<?xml version="1.0" encoding="UTF-8"?>
<svg version="1.1" viewBox="0 0 415.74 354.2" xmlns="http://www.w3.org/2000/svg">
 <g transform="matrix(.89999 0 0 .89999 .0079787 .007258)">
  <g fill="#515557">
   <path d="m118.7 179.75q-6.95-3.6-6.95-11.45 0-5.95 3.35-10.05 3.9-4.7 10.9-4.5t10.3 6.45q2.9 5.5 1.5 11.85 1.4 2.2 2.65 5.2 1.2 2.95 1.7 5.4-4.75-0.6-10.1-3.5-6.5 4.15-13.35 0.6"/>
   <path d="m100 172q-7.85 5.4-15.4 0.95-7.5-4.35-7.35-13.8 0.15-6.1 3.8-10.25 4.4-5.05 12.35-4.35 7 0.65 10.8 7 3.65 6.05 1.6 12 2.6 4.45 4.2 10.4-5.25-0.4-10-1.95"/>
   <path d="m40.4 181.65q-4.55-5.95-4.65-13.8-0.05-6.8 5.85-12.45t12.9-5.75q6.25-0.05 11.2 4.05 3.8 3.15 5.4 7.05 7.1 3.75 11.25 8.1-2.05 1.55-4.65 2.8-2.8 1.25-5.35 1.7-1 6.5-5.8 10.95-5.05 4.7-11.6 4.55-9.2-0.2-14.55-7.2"/>
   <path d="m48.3 232.45q6.5-11.4 14.25-15.65 1.35 4.4 1.1 12.3-0.25 7-1.5 12.25 4.65 5.55 5.25 13 0.6 7.05-2.5 13.6-3.25 6.7-9.25 10.4-6.55 4.05-14.75 3.35-10.85-0.9-16.55-8.95-4.85-6.75-4.85-16.25 0-13.05 10.05-20.2 9.1-6.4 18.75-3.85"/>
   <path d="m7.9 183.8q6.6-6.45 14.65-6.45 4.75 0 9.7 2.5 4.45 2.25 7.05 5.45 3.65-0.05 5.7 0.05l4.4 0.45q-2.85 4.7-5.5 8 1.7 3.9 0.95 9.1-0.7 5.1-3.5 9.75-6.6 10.95-17.9 10.75-10.95-0.2-17.2-8.4-5.3-6.9-5.2-15.7t6.85-15.5"/>
   <path d="m107.75 247.75 2.9 14.6q-0.45 3.4 0.2 5.5 0.75 2.35 3.15 4.15 6.45 4.7 12.5 10.15l-8.5 22.85q-3.8 5.1-8.4 7.4-5.95 3-15.5 2.85-10.3-0.15-17.4-7.6-7.95-8.3-7.85-22.4 0.05-11.85 7.65-19.45 6.85-6.85 15.9-7.05 2.9-9.85 12.2-22.65 1.35 3.4 3.15 11.65"/>
  </g>
  <path d="m288.25 16.25q12.9 9.7 22.2 22.2 10.75 14.45 14.7 30.2l-3.65 5.25q-13.7 0.7-29.75 15.2-6.8 6.1-25.75 27.8-4.95-3.8-9.75-8.85-4.4-4.65-7.65-9.2 1.4 8.45 0.35 15.25-1.05 6.75-3.7 7.3-3.65 0.8-13-6.7-8.95-7.15-15.3-15.3 2.55 6.85 3.55 14.15 1.05 7.6-0.65 8.6-3.25 2-12.6-4.25-9.3-6.25-16.55-15.25 2.15 5.25 3.75 11.5 1.8 6.95 0.75 7.45-1.25 0.5-5.95-5.95-4.85-6.75-7.3-12.9-8.45-21.05-5.5-22.75 3.55-2.05 15.8 7.4-5.9-10.8-9.55-25.2-3.65-14.6-0.7-16.45 2.75-1.7 11.85 3.8 7.75 4.7 14.65 10.95-4.75-13.8-5.4-26.45-0.65-12.45 3.05-14.3 5.6-2.8 18.85 4.9 11.9 6.85 20.75 16.1-4.3-32.9 5-38.25 4.6-2.6 15.1 1.15 10.8 3.85 22.4 12.6" fill="#fff"/>
  <path d="m328.4 73.95q17.55 1.65 24.7 15.3 7.1 0.8 13.85 4.5l19.3 31.4-12.75 22q-6.75 8.65-23.4 11.45-14.5 2.4-27.35-0.5-1.4 4.45-1.75 7.9-0.25 3.05 1.6 4.1 1 0.55 2.05 1.4l2.25 2q17.9 5.3 24.8 18.55 6.95 13.35 1.3 32.35 2.95 4.5 6.6 21.35 3.8 17.55 4.55 19 1.65-0.1 3 0.65 2.1 4.45 0.15 9.05-1.8 4.1-6.1 7.05-4.15 2.85-8.4 3.15-4.55 0.3-6.9-2.65-4.2-5.35-7.8-16.5-1.45-4.5-4.7-17.25-4.85 6.45-10.55 11.15-5.65 4.65-10.95 6.6-3.2 4.9-7.05 14.45-3.2 7.75-5.9 16.2-4.75 14.75-11.9 26.45-6.85 11.3-17.45 22.25-18.4 9.4-37.6-0.45-8.5-4.35-14.7-11.7-6.3-7.45-8.8-16.3-2.1-7.45 0.35-16.5 2.4-8.75 6.65-10.9 11.85-5.9 19.15-18.4 8.55-14.6 2.6-27.45-3.3-7.3-5.9-15.95-2.9-9.5-3.95-17.8-13.05 8.65-29.25 17-6.95 3.6-12.35 0.8-4.65-2.4-6.85-8.7-2.05-5.95-0.85-11.85 1.25-6.3 5.6-8.75 7.9-4.4 18.1-12.5l15.35-13.15q0.45-11.15 10.3-18.5 9.75-7.3 21.65-5.9 3.35-10.8 11-22.55 6.2-9.5 14.35-18.4l2.55-9.4q-3.1-3.75-6.45-10.75-3.4-7.1-2.3-7.75 1.05-0.6 6.4 1.15 4.6 1.5 9.75 3.75l17.35-3.3q4.8-4 12-5.9 7.2-1.95 14.65-1.25" fill="#7ecef4"/>
  <path d="m113.2 279.6q7.7 1.5 39.7 5.6 33 4.2 52.55 7.85 7.9-2.1 12.55-5.05l-2.15 3.5 1 3.55 1.15 3.3q-2.45 1.9-4.45 4.35-2.25 2.75-2.3 4.45 1.75 6.55 1.75 10.2 0 0.75 0.3 1.15 0.4 0.45 1.4 0.75 5.45 1.55 6.25 2l2.75-1.55q1.65-1.15 2.55-2.35 3.3 1.3 5.65 1.8l6.2 0.25q3.35 9.9 4.1 13.5l-3.2 5.7 2.05 4.65q1.2 2.15 1.9 2.35 1.45 0.3 5.85 0 4.5-0.35 5.2-0.95 1.4-1.1 1.6-4.9l3.75-0.5q2.15-0.45 3.1-1.1 7.65 0.95 8.05-3.5 4.35-2.45 4.85-4.4l4.35-2.1 2 2.6-2.55 4.05-2.9 3.95q0.2 9.5-3.35 21.3-4.05 13.45-9.4 14.8-5.2 1.25-12.1-2.4-4.4-2.4-12.05-8.55-13.5 4.1-27.35 2.85-14.35-1.3-24.3-8-4.35 4.9-8.45 8.15-4 3.2-6.65 3.95-5.05 1.45-9.35-3.2-0.55 2.85-0.75 6.9-0.2 4.35 0.25 6.35 0.5 2.25 0.25 3.4-0.35 1.3-1.95 2.3-5.2 3.25-5.9 4.45l-1.05 1.45-1.85 0.25q-4.75-0.85-7.5-2.45l-1.3 0.75-1.8 0.4-4.9 0.05q-1.9 0-2.4-1.6-0.85-2.4-2.2-4.3-0.7-1-0.9-2.1-0.25-1.25 0.25-2.15-2.5 1.4-5.7 0.95-3.15-0.45-4.25-2.3-0.65-1.2-0.2-4.2 0.5-3.25 1.95-4.45 4.55-3.5 7.2-7.4l10.6-16.35q5.25-8.4 8.65-15.35-6.6-10-17.95-18.6-10.65-8.15-22.3-12.75-4.4-1.75-5.95-5.8-1.5-3.9 0.35-8.2 1.85-4.45 3.8-6.1 2.15-1.85 5.5-1.2" fill="#4c5170"/>
  <g fill="#fff">
   <path d="m184.4 161.6q0.4 0.65 0.1 0.95-0.3 0.35-0.8 0.2-1.65-0.5-2.85 0-1.05 0.4-1.35 1.25-0.5 1.5 2.4 6.8l-0.35 1.3-0.5 1.3-0.7 0.85-1.3 0.1q-0.8-0.25-1.2 0.4-0.4 0.55-0.15 1.25l1.65 4.4q1.9-0.25 3.45 2.3l2.9 4.35q1.8 2.25 0.5 3.45-0.65 0.65-0.7 1.15t0.45 1.1l2.5 2.35-4.75 3.3q3.3 2.55 4.75 7.55 1.65 5.55-1.1 8.7-0.85 1-0.9 1.55-0.05 0.45 0.55 1.8 0.65 1.5 1.1 3.55 0.55 2.4 0.5 4.1 1.8 0.95 2.65 1.75 1.1 1.1 1.6 2.75 1.2-4.95 3.55-4.75 2.2 0.25 2.2 3.35l0.2 3.05q0.35 1.45 1.35 2.1 1.7 1.15 1.6 3.7-0.05 2.65-0.75 5.45l-1.4 4.35q-0.7 1.9-1.65 2.35l-2.65-0.25q-1.5 2.7-2.25 7.1-0.2 1.4-1.35 1.4l-1.05 0.05q-0.55 0.2-0.6 1.1-0.2 2.7 0.5 4.95 0.75 2.55 2.25 3 2.8 0.8 4.7 6 1.95 5.2 0.05 7.25-1.45 1.5-3.25 5.25-0.9 1.85-2.15 2l1.95 3 4.5 19.25-2.65 6.3q-3.85 0.25-7.35 1.2-4.45 1.2-6.15 3.15-2.4-1.2-5.45-2.25-2.95-1-5.35-1.4-2.25-2.55-3.55-3.25-2.85-0.35-5.25 0.5-2.15 0.7-6.3 3.25-4.75-2.7-12.1-5.35l-4.3-9.5q-0.5-1.05-2-1.85l-2.5-1.15-1.5-0.95q-0.45-0.55-0.7-1.9-1.3-7.2-5.65-12.4-3.45-4.15-14.35-12.9l-1.9-1.7q-0.7-0.95-0.85-2.75-0.35-3.5 0.3-7.55 0.55-3.95 1.9-7.5l0.9-2.6 0.4-2.9q0.15-1.8 0.6-3.7l1.4-5q3.3-3.9 4.2-9.15 0.8-4.6-0.45-9.15l4.85-6.55q2.95-3.9 5.25-6.45l4.5-0.25q2.95 0.15 5.25 0.9 4.35 1.4 6.3-0.35 1.75-1.6 1.05-5.3l5.25-5.85q6.35-1.7 8.55-5.15 2.1-3.25-0.55-6.1-0.55-0.65-0.6-1.1-0.05-0.5 0.45-1.15 3.65-5.2 5.05-8.4 0.3-0.7 0.7-0.85l1.05-0.15q5 0 7.1-3.5 2-3.4 0.15-8.25 2.3-2 9-2.35 0 1.35 1.1 3.1"/>
   <path d="m428.95 246.45q1.45-0.2 2.95 0.6 2.4 1.35 4.45 4.2 1.9 2.65 2.7 5.4 0.7 2.4 2.75 2.95l4.75-0.3 0.95-0.1q0.45 0.05 0.8 0.55 2.9 4.4 5.6 14.55-4.95 1.95-5.8 5.7-0.75 3.55 2.5 4.8 6 2.35 8.3 4-0.5 1.05 2.15 9.15-2.75 2.65-3.1 4.75-0.4 2.35-0.1 4.7 0.45 3.35 2.3 5.3l0.1 2.65q-0.1 1.6-0.4 2.3-0.95 2.15-4.75 4.8-4.3 3-9 4.2l-1.45 0.3-1.25-0.2q-1.1-0.85-3.1-1.2l-1.9-0.45-2.1-1.15q-2.9-2-6.15 3-1.6 1.35-3.2 1.55l-0.85 4.7-1.3 4.6q-1.25 0.45-2.6 1.7-1.8 1.85-3.55 2.4l-3.2 1.05-6.1-0.15q-3.3-1.45-10.9-1.55-1.15 0-1.35-1.05-0.7-3.5-2.8-6.8t-3.85-3.7q-2.15-0.55-5.1 2.1-2.6-1.3-4.5-1.55-0.85-0.1-1.1-0.5-0.25-0.35-0.1-1.1 0.3-1.55-0.85-3.05t-3.4-2.3l-3.4-0.3-3.2 0.4-1.7 0.2-1.7-0.4q-0.95-0.3-2.55-1.4l-2.45-1.9q-0.7-0.75-1.7-2.85l-1.9-4.5q-0.55-1.2 0.3-1.75 1.8-1.15 0.85-4.7-1-3.65-3.5-3.95-2.4-0.3-5.3-1.35-3.05 2.7-6.8 2.25-0.3 0.45-0.85 0.6-0.75 0.1-1.65-0.45l-2.2-1.15-1.7-0.75q-1.3-0.65-1.7-1.8-0.4-1.25-2.5-4.05l-3.8-4.8q-0.65-0.8 0.1-1.65l1.7-2.7q0.75-1.7 0.95-3.05 0.15-1.2-1.15-2.6-0.95-1.05-1.9-1.55-0.55-0.3-1.5 0.25l-1.75 1.25q-0.75 0.5-1.5 0.35l-1.35-0.55q-1.45-0.45-1.25-2.05 0.25-1.55 0.1-4.05l-0.35-4.9q-0.3-4.7-3.35-5.4 1.15-0.35 2.15-1.05l2.15-1.8 3 0.65q1.2 3.5 0.7 7.55 1.2 1.05 3.35 1.15 2 0.1 3-0.65 0.9-0.65 1.6-2.95 0.7-2 0.8-3.85 0.05-1.5 0.8-2.05 0.5-0.35 1.9-0.55 1.7 7.3 4.8 13.7 2.55 5.2 4.95 7.85 0.05-2.95 5.25-4.35l2.05-0.2q0.8 0.2 1.6 0.95 0.75 0.7 2.15 0.85l2.35-0.2q1.05-0.25 1.2-0.9 0.15-0.7-0.75-1.7-1.55-1.8 1.4-4.55l1.2-1.5 0.4-1.5q0.1-0.95 1.3-1.9 1.25-0.95 3.1-1.6-1.45-0.65-3-0.65-1.25-3.3-2.3-8.05l2.1-0.3q0.8-0.35 1.15-1.25 0.7-1.8 2.95-1.9 2.35-0.05 2.55 2.55t3.55 2.3q3.3-0.3 3.45-2.05 0.05-1.4 1.9-1.85l3.55 0.2q3.6 1.15 7 3.15 3.15 1.85 3.25 2.6 0.15 1.5-0.65 3.15 2.95 4.8 5.55 4.4 1.55-0.25 2.35-2.3 0.85-2.1 0.15-4.25-0.35-1.35 0.45-1.7 0.95-0.5 3.9-3 0.75-0.75 1.75-0.15 2.65 1.8 5.2 2.45l3.1 0.05q0.6-0.35 0.8-2.15l0.3-3.25q0.15-0.75 2.2-2.1 2.2-1.45 3.8-1.6l2.6-0.6 1.8-1.45q0.95-1.05 2.35-1.2"/>
   <path d="m368.6 90.35q2.8-5.45 5.35-8.2 4.45 4.2 7.8 14.5 3 9.35 3.35 17.45 4.7 2.55 8.75 7.4-0.75 7.15-6.7 14.85-6.1 7.85-13.9 11.25 1.7-2.85 4.5-11.25l3.75-12.35q-2.35-4-7.65-6.15-4.2-1.75-9.75-2.1-2.15 6-6.05 12.95-3.85 6.75-7.85 11.7-0.8-5.75-2.55-15.05l-2.8-14.85-14.75 8.4q-8.2 4.4-14 7-7.85-6.5-21.5-12.2-13.1-5.5-22.4-6.55-5.4 0.4-20.5 5.5l-2.6 0.45-1.9-0.45q-5-1.55-14.2-5.65-8.75-3.9-14.5-7 18.75 4.7 29.45 6.5 8.55-1.1 23.75-9.25 5.25 0.35 24.75 6.65-4.55-6.25-10.45-16.95-5.5-9.95-8.5-16.95 9.2 2 25.25 11.65 16.25 9.8 24.75 18.7 8.35-0.7 19.35 0.25 9.65 0.8 16.85 2.4 1.65-6.35 4.9-12.65"/>
  </g>
  <g fill="#4c5170">
   <path d="m141.95 247.45q1.75-4.25 5.55-4.95l14.7-0.9 12.65 1q2.25 0.35 0.9 2.8-2.85 5.35-9.1 11.7-6.4 6.5-12.7 10.25-4.5 2.6-8.25 0.1-3.8-2.6-4.7-9.1-0.9-6.65 0.95-10.9"/>
   <path d="m190.1 279.35q-1.05 7.1-3.75 12.6-3.35 6.85-9.75 12.55-4.05 3.6-8.05 3.55-3.95-0.05-6.55-3.7-3.6-5.1-2.15-11.75 1.55-7.15 8.1-8.95l20.4-6 1.55 0.05q0.4 0.4 0.2 1.65"/>
   <path d="m188 295.1q1.9-2.15 7.25-4.75 5.25-2.5 9.5-3.35 0.95-0.2 1.35 0.25 0.4 0.5 0.25 1.85-0.5 4.1-2.35 9.4-1.8 5.2-4.15 9.35-1.95 3.5-5.65 3.7-3.45 0.2-6.1-2.4-2.6-2.55-2.75-6.6-0.15-4.25 2.65-7.45"/>
   <path d="m413 270.1q1.35-5.15 5.1-9.6 4.25-5 9.35-6t8.25 4.2q3.05 4.95 1.15 9.15-2.15 4.7-9.15 5.95-6.35 1.1-13.45-1.05-1.05-0.3-1.3-1-0.25-0.55 0.05-1.65"/>
   <path d="m431.6 286.15q4.7 0.35 10.1 2.9 5.65 2.65 8.8 6.3 2.45 2.8 2.9 6.4 0.6 4.75-3.15 8.75-4.15 4.4-10.7 2.65-6.45-1.7-6.7-6.65-0.3-5.7-3.45-18.75-0.25-1.1 0.35-1.4l1.85-0.2"/>
   <path d="m404.45 328.8q-1.7-2.1-1.25-4.7 0.65-4.2 3.95-10.4 3-5.55 6.6-9.95 0.75-0.9 1.15-0.85 0.45 0 1.1 1.2 1.95 3.55 3.1 10.15 1.3 7.25 0.4 12.6-0.5 3.3-3.4 4.55-2.5 1.15-5.85 0.5-3.9-0.75-5.8-3.1"/>
  </g>
  <path d="m299.05 267.25q1.4 3.55 1.6 8.15 0.3 6-1.7 11.15-0.95 2.4-5.1 5.4-4.35 3.2-9.4 4.85l-1.75 0.25q-0.45-0.25-0.4-1.3 0.3-6.1 5.1-15.55 4.5-8.95 9.1-13.5 0.95-0.9 1.45-0.85 0.6 0.1 1.1 1.4" fill="#00a5e3"/>
  <g fill="#4c5170">
   <path d="m358.55 26.8q1.05-1.2 1.45-0.85 0.45 0.25 0.1 1.8-4.45 21.1-14.65 52.25-5.3-3.6-11.35-5.15-6.2-1.6-12.6-0.95 5.55-8.65 17.95-24.15 9.3-11.6 19.1-22.95"/>
   <path d="m273.3 120.7q-0.65-0.5-0.55-3.25 0.05-0.85 0.95-2.3l1.5-2.2q0.55-0.8 1.5-1.15l1.55-0.1q0.65 0.2 1.1 1.45t0.15 1.9l-1.75 3.45-1.6 2.3q-0.5 0.45-1.45 0.35-0.85-0.05-1.4-0.45"/>
   <path d="m258.6 128.6q3.1-5.45 6.6-10.4 0.95 4.55 1.85 6.05 0.6 1 0.6 1.55 0 0.45-0.6 1.5l-2.2 4.55-2.1 4.7-0.9 1.75-1.35 0.95q-3.45 1.5-4.3 1.95l-1.45-0.1q-0.8-0.5-1.3-1.85 1.65-4.5 5.15-10.65"/>
   <path d="m277.7 126.8q0.65 0.15 0.95 1.45 0.25 1.2 0.1 2.5-0.15 1.4-1.1 3.65l-1 2.6 0.05 2.2q0.2 1.45 0.55 2.3l0.35 1.55-0.6 1.45-3.45 5.65q-0.4 0.65-0.9 0.65l-0.85-0.55-1.6-2.05q-0.6-0.9-0.45-2.25 0.2-1.25-0.35-3.05-0.35-1 0.5-5.4 0.85-4.35 1.6-5.95 0.7-1.45 3.1-3.2 2.25-1.7 3.1-1.55"/>
   <path d="m235.35 149.9q7.95-3.1 15.05-1.2 4.7 2.7 6.65 7.35 1.9 4.55 0 8.35-2.2 4.4-7.5 4.9-6.55 0.65-16.25-5-0.65 2-0.6 4.9 0 2.6 0.5 4.3 0.8 2.9-1.45 1.2-3.5-2.65-5.7-6.45-3.1-5.35-2.15-11.2 5.2-4.7 11.45-7.15"/>
   <path d="m243.05 227.15 2.7 0.15q3.55 1.75 6.55 6.9 3.65 6.25 3.4 13.2-0.15 3.75-2.25 5-2.05 1.2-2.9 3.4-0.65 1.55-0.85 4.15-0.15 1.95-1.45 1.7-1.2-0.2-1.85-1.6-1.2-2.55-3.1-2.55-1.6 0-3.4-3.55 0.1-3.25-0.65-5.95-0.65-2.4-2.35-5.45-1.1-5.7 0.5-7.8 1.35-1.85 3.5-6.1 0.55-1.1 2.15-1.5"/>
   <path d="m332.35 197.25q5.15-5.35 8.6-8.4 4.2 6.6 6.8 14.25 2.25 6.6 2.25 10.3 0 3.2-1.95 8.85-1.95 5.75-4.95 11.1-2.4 2.35-6.1 4.95l-5.9 3.6q-0.1-4.3-2.85-12.15-2.9-8.3-6.3-12.85-5.05 3.45-18.1 9.35-12.6 5.75-18.6 7.5-3.7-3.3-8.85-12.6-4.8-8.7-5.7-12.65-0.85-3.55 0.6-10.9 1.4-6.85 3.3-10.5 1.7-3.2 10.85-7.55 8.7-4.15 14.3-4.9l2.8 0.15q0.9 0.3 2.15 1.55 2.6 2.6 8.25 11.25 5.6 8.55 10.25 17.05l2.3-0.05 6.85-7.35"/>
   <path d="m348.95 187.6q3.25 3.9 5.1 10.1 1.7 5.7 1.8 11.95-4-3.35-5.9-10.2-1.75-6.25-1-11.85"/>
  </g>
  <path d="m324.4 78.8q7.5 2.4 12 11.45-7.5 1.65-13.05 6.1l-9.25-7.6q0-4.2 3.15-6.9 2.75-2.35 7.15-3.05" fill="#fdd23f"/>
  <path d="m324.3 85.1q0.95 0 1.6 1.3 0.6 1.2 0.65 2.8 0.1 3.9-2.7 3.9-1 0-1.55-1.25-0.55-1.15-0.55-2.95 0-1.35 0.85-2.55 0.8-1.25 1.7-1.25" fill="#fff"/>
  <path d="m225.05 370.1-1.8 2.8q-1.05 1.45-0.5 3.25 0.6 1.75 0.7 4.3-2.05-1.6-3.05-4.7-0.9-2.7-0.8-6.1 0.1-2.45 2-1.3l3.45 1.75" fill="#515557"/>
  <path d="m127.35 367.75q-0.35 0.7-2.5 2.45-2.25 1.8-3.1 3.15-0.1-2.55 1.8-5.8 1.85-3.15 2.9-3 0.75 0.15 0.9 3.2" fill="#38393a"/>
  <g fill="#4c5170">
   <path d="m73.75 269.1q-2.4 3-3.75 7.7-1.05 3.9-1.2 7.95-6.7-3.3-15.4-8.7-2.65-1.6-2.65-4.45 0.05-2.05 1.55-5.4 1.15-2.65 3.65-3.7 2.4-1.05 4.05 0 2.7 1.85 13.75 6.6"/>
   <path d="m30 235.9q-6.5 4.2-8.7 11.2-6.15-6.9-8.35-15.8-1.55-6.25-1.2-14.15 0.15-3.15 2.1-4.85 1.8-1.6 4.6-1.6 2.45 0 3.75 1.75 1.15 1.5 1 3.55-0.6 12.5 6.8 19.9"/>
   <path d="m30.3 178.85 3.85-3.8 3.8-3.3q3.45-2.4 6.3 0.8 2.8 3.2 0.35 5.4l-3.15 3-2.95 3.3q-3.35-3.1-8.2-5.4"/>
   <path d="m69.65 157.85 11.75-1.4q2.4-0.05 2.75 2.55 0.35 2.55-2.65 3.1l-6.55 1-3.7-2.05q-0.85-2.25-1.6-3.2"/>
   <path d="m106.4 158.5q7.5 2.4 10.1 3.9 2.8 1.7 1.75 3.9-1 2.25-3.4 1.15-4.85-2.15-8.3-3.1l-0.85-1.15q0.7-2.2 0.7-4.7"/>
  </g>
  <g fill="#dcdddd">
   <path d="m190.4 102.25q2.5 5.2 4.1 12.05 1.55 6.65 0.65 7.4-6.25-9.7-9.45-25.25l4.7 5.8"/>
   <path d="m204.3 115.9q-11.2-8.5-17.4-18.9 16.65 15.7 23.45 14.2 6.3-1.35 2.25-16.7l4.45 5.25q3 7.7 3.8 14.55 0.75 6.9-1.3 7.9-4.2 2.05-15.25-6.3"/>
   <path d="m220.5 100.45 1.9 1.8q3.7 1.85 12.5 5.5 9.05 3.75 14.1 5.45-0.7 7.65-3.5 8.3-3.6 0.85-14.55-8-11.55-9.25-17.8-19.1 3.6 3.35 7.35 6.05"/>
   <path d="m249.25 106.15-1.3 0.3-4.55-0.75q2.65-4.75-0.75-16.7 1.1 2.3 2.95 5.4l3.15 4.8q0.35 2.3 0.5 6.95"/>
   <path d="m268.75 98.8q-10.5 5-15.25 6-7.2-7.5-10.15-15.4 3.5 3.7 11.2 6.6 7.9 2.95 14.2 2.8"/>
   <path d="m258.7 110.5q8.05-2.8 13.6-3.5l2.15 0.5q-4.35 3.9-8.25 9.5l-7.5-6.5"/>
   <path d="m344.95 110.75q-11.35 6.65-28.35 15.4-9.1-6.35-20.55-11.65-14.05-6.55-23.75-7.5-4.5 0.85-10.7 2.55-6.4 1.8-10.45 3.35l-3.9-0.15q-19.6-7.8-26-11.4 13.35 4.9 25.05 8.45l3.3 0.5 3.05-0.7q8.25-3.1 16.8-4.6 2.3-0.35 5.15 0.1 10.25 1.75 20.9 5.8 10.1 3.85 18.95 9.1 2 1.2 4.8 0.1l11.9-5.35 13.2-6.75q1.1-0.6 1.65-0.4 0.65 0.2 1 1.6 1.8 7 2.95 15.3 1.35 9.75 0.9 15.35l-5.9-29.1"/>
   <path d="m365.3 113.8q13.15 1.2 17.95 8.4 0.85 1.35 0.45 3.2-1.2 5.4-4.05 11.7-3.1 7-6.3 10.65 5.15-11.65 8.15-23.6-1.75-3.4-6.4-5.6-4.9-2.25-11.95-2.75 0.45-1.15 0.85-1.6 0.5-0.45 1.3-0.4"/>
   <path d="m278.2 69.85 11.9 18.4q7.65 11.4 13.6 18.65l-7.45-2.9q-6.05-9.1-11.15-18.55-5.7-10.6-6.9-15.6"/>
   <path d="m157.9 269.9 1.3-5.9 5.8-5.1q1.45-0.9 3.5-1.35l3.15-0.15 2.35-0.15 2-1.25q0.7-0.75 2.55-1.25l2.85-0.45q2.35-2.85 5.2-8.65l2.9-6.65q0.4-1.15 0.2-4.6l-0.5-4.35q-0.2-0.95 0.2-1.6 0.35-0.6 1.35-1.25 1.4 1.3 2.05 2.5 1.4-4.4 4-4.15 1.05 0.15 1.45 1.5 0.4 1.1 0.25 2.65-0.15 2.5 1.4 3.95t1.75 3.6q0.35 4.85-2.15 10.75-1.05 2.5-4.25 1.9-1.65 4.25-2.1 6.25l-0.5 1.4q-0.3 0.4-0.95 0.45-1.75 0.3-1.75 1.95 0 2.5 0.5 4.35 0.7 2.45 2.05 2.65 3 0.45 5.15 5.5 0.95 2.4 1 4.6 0 2.55-1.4 3.65-1.25 1-2.7 4.05-1.15 2.35-2.25 2.75l1.95 3.4q-5.8 2.05-8 7.15-2.5 5.65 1.75 11.35-0.05 1.15-0.85 1.8-0.85 0.7-1.95 0.6-1.15-0.05-2.5 0.45-1.45 0.5-1.95 1.2-0.9 1.3-2.35 0.8-1.05-0.35-3.4 0.4-4.25 1.2-6.3-0.8 1.3 0.3 2.55-0.55l1.4-1.65 3-6.5q6.1-5.25 10-12.45 3.6-6.6 4.6-13.4 0.2-1.3-0.3-1.7l-1.65 0.1-8.5 2.6-9.75 2.9-3.1-4.15-1.55-1.25-2.15 0.25-3.05 0.7-2.05-0.1q-0.6-0.35-0.95-0.35-0.55-0.05-1.15 0.4-2.25 1.6-6.65 5-0.75 0.5-1.3 0.55l-1.15-0.2q-1.8-0.5-4.05-1.85-2.55-1.5-4.6-3.5 2.2-0.8 5.5-0.85l4.7 0.45q3-3.95 9.4-8.4"/>
   <path d="m362.75 259.4q1.4 0 4-1.05 1.95-0.8 2.75 0.65 1 1.65 3.75 1.65 2.45-0.65 5.2 0.8 0.75 0.35 1.05 1.6 0.35 1.4 1.75 1.85 0.75 0.2 0.9 0.75 0.2 0.55-0.65 0.75l-7.6-0.2q-3.75 1.85-6.6 4.6l0.55 3.7q0.15 2.8-0.15 5.2 1.5 0.25 3.25 1.8 1.15 1.1 4.45 2.05 0.95 0.35 1.3 0.65 0.45 0.45 0.5 1.2 0.1 1.65 0.75 2.65 1.25 1.9-2.15 6.95-0.25 0.4 0.15 1.3l2.15 6.25 2.2 6 2.25 0.1q1.2 0.15 2.5 0.8 1.5 0.8 4.25 1.6l3.85 0.85q4.65-2.25 5.85-3.2 1.45-1.15 1.65 0.95 0.15 2 1.45 4.3 1.45 2.6 3.4 3.45-1.45 3.2-1.85 5.05-0.4 1.75 0 3.3 0.45 1.8 2.15 3.6 1.95 2.1 4.35 2.55 3.35 0.6 5.85-0.4 2.9-1.15 3.4-4.1 0.6-3.5 0.6-6.65 4.75 1.2 5.85-0.85 0.65-1.2 3.1-2.75 2.55-1.55 4-1.55 1.8 0 3.3-0.6 1.8-0.75 1.95-2.1l6.75 0.35q4-0.9 6.05-3.85 2.7 0.6 2.75 2.7 0.2 2.75 0.75 3.75 0.9 1.25 0.25 3.15-0.85 2.5-4.3 6.15-2.2 1.3-4.2 1.7l-3.15-0.25q-1.7-1-3.65-1.2l-1.4-0.4-1.6-0.9q-1.1-0.6-2.2-0.6-1.2 0-1.9 0.85-3.15 3.6-5.35 4.05-0.1 1.85-0.75 4.6l-1.4 4.4-1.85 1.1-1.7 1.7q-1.65 1.65-3.6 1.95-1.75 0.35-3.4 1l-2.35 0.35-2.7-0.65q-1.25-0.6-5.1-1.35l-4.9-0.7q-1.8 0.05-2.25-1.7-0.65-2.85-2.65-5.9-2.3-3.55-4.3-3.5-3.2 0.1-4.6 2.05-2.4-1.25-4.25-1.6-0.95-0.2-1.3-0.55-0.35-0.4-0.35-1.35 0.1-2.5-2.45-4.2-3.15-2.2-8.45-0.75-1.55 0.45-4.6-0.75-3-1.2-4.1-2.65-0.95-1.3-2.1-3.85l-1.35-3.35q-0.45-1.65 0.95-2.75 1.45-1.15 0.4-4.4-1.1-3.4-3.55-3.6-2.6-0.25-4.9-1.15-3.45 2.4-6.6 2.2l-1.65 0.6q-0.75 0.1-1.35-0.35-0.8-0.65-3.65-1.75-2.1-0.65-2.5-2.25l-2.35-4-3.05-4q-0.8-0.8-0.6-1.5l0.8-1.25 1.6-2.8q1.1-2.3 0.95-3.05-0.2-0.95-1.5-2.3-1.35-1.4-2.2-1.35-1.2 0.05-2.85 1.2-1.05 0.75-2.5 0.25-0.65-0.2-1.1-0.75-0.6-0.65-0.55-1.55 0.35-4.55-0.2-8.1-0.7-4.65-2.8-6.25l1.85-1.1q1.4 0.35 2.45 2.75 1 2.25 1.1 4.8 1.4 2 3.7 3.1 2.65 1.25 4.7 0.3l2.5-1.25q1.25-0.75 2-2 0.75-1.2 1.7-1.35l1.8 0.3q1 3.05 2.9 6.6 1.85 3.55 3.75 5.95l0.9-1.75q0.5-0.7 1.35-1.15 2.35-1.2 3.7-1.4l1.8 0.05q1.05 0.25 1.6 0.85 0.85 0.95 3.5 0.5 1.15-0.2 1.6-0.75 0.5-0.65-0.2-1.6-0.75-0.95-0.7-1.95t0.8-1.7q2.5-2.25 2.6-3.75 0.05-1 1.3-2.05 1.2-1 3.1-1.7-0.95-0.65-2.75-0.65-0.75-1.3-1.6-5.45"/>
   <path d="m427.4 299.25q1.75-1.75 4.1-2.55 0.7 2.65 0.85 5.6-1.35 0.2-2.3 0.95t-0.95 1.55q-0.05 1.65-1 2.65-0.9 1-2.95 1.55 0.95-0.9 1.3-1.8 0.35-0.85 0.35-2.25v-3.2q0.1-2 0.6-2.5"/>
  </g>
  <path d="m226.1 382.35q-2.85-0.7-2.65-1.95 0.25-1.5-0.5-4.55-0.25-1.05-0.2-1.6 0-0.85 0.5-1.6 1.75-2.4 3.45-6.25 8.6-0.8 18.85-5 12.8-5.25 21.95-13.65 0.8 6.8-0.2 13.7-1.2 8.3-4.7 13.55l-4.9-0.2q-3.75-0.8-7.1-2.8 0.4 8.1 0 9.15-0.3 0.75-2.05 1.7-1.8 1-3.3 1.25l-1.45 1.25-1.95 0.75-3.95 0.45-2.95-0.15q-1.3-0.3-3.1-3.65l-5.75-0.4" fill="#3a3e59"/>
  <path d="m242.9 345.7q-0.5-0.05-1.9-2.45l-2.35-4.45 2.3-3.5q8.9 1.1 17.9-0.15 8.85-1.2 16.25-4.5-0.75 1.35-2.25 2.5l-2.35 1.55q-0.05 2.9-2.3 3.5l-5.95-0.15q-1.05 0.65-3.3 1.15l-3.3 0.4-0.55 2.8q-0.55 1.55-1.25 2.4l-5 0.75-5.95 0.15" fill="#6db3d4"/>
  <path d="m150.2 331.9q3.65-6.8 8.1-9.25 4.4-2.4 7.65 0.45 1.2 1.05 1.5 3.65-1.5 4.3-2.1 7.25l-1.1 6.35q-0.45 2.9 1.3 4 1.85 1.2 5.6-0.45 10.65-4.7 19.3-13.35 10.1-10.05 12.2-20.9 4.45 11.1 15.3 17.9 9.8 6.15 23 7.75l-2.3 3.5 2.35 4.45q1.4 2.4 1.9 2.45l5.95-0.15 5-0.75q0.7-0.85 1.25-2.4l0.55-2.8 3.3-0.4q2.25-0.5 3.3-1.15l5.95 0.15q2.25-0.6 2.3-3.5l2.35-1.55q1.5-1.15 2.25-2.5l4.75-2.4 2 2.9q-18.25 27.15-47.6 33.9-12.7 2.9-25.15 1.15-12.05-1.65-21.5-7.3-5.4 6.55-13.1 10.85-5.8 3.25-11.2-2.05-0.85 3.85-1 7.5-0.1 3.6 0.45 5.55 1.4 4.7-1.45 5.95-1.5 0.7-3.55 2.25-1.95 1.55-2.8 2.6l-0.8 0.85-1.75 0.35-3.8-0.85q-2.4-0.85-4.1-1.75-0.85 0.85-2.55 1.1l-5.25 0.3q-1-0.05-1.5-0.45t-0.85-1.35l-1.25-2.6-1.45-2.4q-0.8-1.2-0.3-3.35-2.5 1.1-4.95 1l-2.7-0.7q-1.75-0.75-2.2-1.45-0.4-0.65-0.3-2.3l0.3-3.05q0.15-1.95 3.25-4.8 5.65-5.25 15-20.25 5.8-9.3 10.45-17.95" fill="#3a3e59"/>
  <path d="m281.85 331.15-2-2.9q4.1-2.45 6.9-5.25l-4.9 8.15" fill="#6db3d4"/>
  <path d="m282.9 291.9q1-4.6 3.2-9.05 1.25 2.9 5.9 3.9 4.6 1.05 7.65-0.75-1.7 3.35-8.85 7.75-6.95 4.35-8.1 3.25-0.8-0.7 0.2-5.1" fill="#0090c6"/>
  <g fill="#6db3d4">
   <path d="m375.25 143.05-1.9 4.7q-7.5 7.7-20.4 10.3-12.45 2.55-28.85 0.1-15.2-2.25-26.2-13.5-10.8-11-8.4-20.7 2.65 7.95 13.6 14.2 9.95 5.7 24.2 8.6 13.9 2.8 26.8 1.95 13.55-0.9 21.15-5.65"/>
   <path d="m305 150.7q8.4 5.5 17.95 7.4-1.6 4.9-1.95 7.9-0.2 2.55 1.95 4l4.55 4.1q-17.65 1.3-27.95-11-9.4-11.3-8.1-27.45 3.9 8.75 13.55 15.05"/>
   <path d="m250.85 209.9q0.9 3.35-2.2 8.75-2.85 4.95-5.95 6.75-2.55 1.5-6.7-0.1-4.6-1.75-6.9-6.25l-0.95-5.15q-0.25-1.8-0.25-4l8.1-6.45q5-3.7 7.45-3.3 2.6 0.45 4.5 3.4 1.25 1.9 2.9 6.35"/>
   <path d="m243.65 201.65q-3.95-0.6-10.25 4-6.8 4.85-16.15 10.55-10.6 6.45-19.1 10.55-0.8-1.75-2.4-1.25-1.8 0.6-2.95 4.2-0.6-1.1-1.8-2.3l-2.1-1.55q-0.05-3.6-1.15-5.5 10.45-3.5 23.9-10.3 12-6.05 20.6-11.7 5.2-3.4 10.75-0.85 6.05 2.8 8.15 11.4-3.2-6.65-7.5-7.25"/>
   <path d="m333.6 247.95q6.7-8.4 10.6-16.7 3.1 6.4 7.55 24.05 3.75 14.9 7.55 19.35-0.15 0.65 0.05 1.1l0.65 0.9q0.65 0.9 0.7 1.3 0.05 0.75-1.3 1.05-3.05 0.65-4.3-0.5-0.75-0.7-1.85-0.95l-2.15 0.1q-4.65 1.6-5.5 4.45-3-4.25-6.7-13.95-4.35-11.4-5.3-20.2"/>
  </g>
  <path d="m353.8 52.1-8.65 28.1-3.75-2.55q-1.9-1-5.2-2.15 13.85-23.85 24.15-50.5-1.3 9.05-6.55 27.1" fill="#3a3e59"/>
  <path d="m268.45 79.7q3.85 6.2 8.35 11.55 5.05 6 9.65 9.25-6.1-1.85-9.85-2.45-3.7-6.25-5.5-9.9-2.95-6-2.65-8.45" fill="#6db3d4"/>
  <path d="m429.15 286q5.25 4.25 9.1 11.5 4.3 8.2 4.25 16-3.1 0.1-6.05-1.6-3.65-2.1-3.6-5.8 0.05-3.85-1.15-10-1.05-5.15-2.55-10.1" fill="#3a3e59"/>
  <path d="m150.8 268.7q3-0.65 8.4-4.7l-1.3 5.9q-6.1 4.95-9.4 8.4-4.3-1.25-9.6 0-1.9-1.7-4-4.65l4.95 2.15 3.45-0.9 3.9-0.8q1.6-3 3.6-5.4" fill="#dcdddd"/>
  <g fill="#3a3e59">
   <path d="m412.45 271.5q7.35 0.5 14.3-2.7 7.05-3.25 9.45-8.45 1.15 2.95 0.8 5.75-0.45 3-2.5 4.65-3.45 2.85-10.05 3.2-6.9 0.35-12-2.45"/>
   <path d="m403.25 324q1.05-4.7 3.75-9.1-2 4.75-0.55 8.3 1.3 3.15 4.2 3.7 3.9 0.75 6.25-1.25 3-2.55 2.5-9 1 4.05 0.6 7.55-0.4 3.15-1.8 5.2-1.25 1.85-3.85 2.4l-4.9-0.2q-3-0.85-4.8-3.05-1.9-2.25-1.4-4.55"/>
   <path d="m153.45 267.6q-4.7 2.6-8.15-0.4-2.55-2.25-3.7-6.45 10-3.25 20.25-8.5 9.7-5 14.35-9-2.35 7-10 14.6-6.3 6.15-12.75 9.75"/>
   <path d="m189.75 277.25q1.1 5.35-3.2 14.05-4.15 8.25-9.7 12.95-4.25 3.6-8.25 3.4-3.25-0.1-5.85-2.65 9.05-3.85 17-12.75 6.3-7.1 10-15"/>
   <path d="m199.6 308.35q-2.05 2.9-5.25 3.2-3.05 0.3-5.2-1.7 4.6-2.65 9.9-10.2 4.8-6.85 6.95-12.9 0 5.4-2.15 12.15-1.95 6.2-4.25 9.45"/>
   <path d="m103.95 287q19.1 5.35 29.65 9.65 0 1.2 0.55 1.85 0.65 0.8 2.2 1.25 1.6 0.5 2.45 1.15t1.55 2q2.95 5.7 4 9.1 9.1 3.35 12 5.15 2.7-1.9 6.25-2.95 3.8-1.1 6.15-0.5l3.05 3.2q-1.1 1.55-2.3 4.35-1.15 2.65-1.85 5.05-0.5-2.3-2.4-3.65-1.9-1.3-4.25-0.95-2.55 0.4-4.8 2.4-2.75 2.4-6 7.8-7.45-9.4-18.2-17.7-11.65-8.95-23.5-13.7-3.4-1.35-4.85-5.15-1.5-4 0.3-8.35"/>
   <path d="m51.75 266.75q7.65 5.05 18.25 9.4l-0.7 4.15q-0.35 2.2-0.4 4.2l-15.65-8.5q-2.15-1.25-2.45-3.9-0.25-2.4 0.95-5.35"/>
   <path d="m13.15 213.4q0.2 8.2 2.9 15.55 3.1 8.4 8.4 12.2-2.1 2.8-3.2 5.75-4.95-4.7-7.75-14.25-3.2-10.9-0.35-19.25"/>
   <path d="m34.85 181.25q7.05-7.15 9.15-8.9 1.1 1 1.5 2.3 0.5 1.75-0.85 3-4.7 4.6-6.3 6.85-1.15-1.65-3.5-3.25"/>
   <path d="m71.2 160.25 13-1.15q-0.35 2.55-2.35 2.9l-6.85 1.1-3.55-1.95-0.25-0.9"/>
   <path d="m106.4 161.15q7.45 2.45 11.95 4.85-0.3 1-1.1 1.45l-2.35-0.05-8.75-3.3-0.4-0.75 0.65-2.2"/>
  </g>
  <g fill="#38393a">
   <path d="m103.6 294.95q1.05 3.65 5.8 5.8 3.5 1.6 8.35 4.5-9 10.4-23.5 9.9-17.85-0.7-23.75-16.65-2.45-6.55-1.95-14.05 0.45-7.25 3.45-12.9 0.85 5.4 6.65 8.65 5.3 3 12.85 3.25t13.85-2.4q6.9-2.9 9.7-8.4 5.6 3.75 10.8 9.55l-12.1-2.55q-2.65-0.5-5.7 1.6-3.35 2.25-4.1 5.75-1.15 5.15-0.35 7.95"/>
   <path d="m108.05 249.5 2.35 12.65q-2.85-1.75-8.5-3.25 2-8.7 2.45-22.65 1.9 4.75 3.7 13.25"/>
   <path d="m20.7 264.9q-2.4-8.85 1.55-20.05 0.3 6.8 5.7 11.7 4.95 4.45 12.6 6.1 7.55 1.6 14.6-0.25 7.55-1.95 11.75-7.25 0.4 5.3-0.7 10.1-4.3-1.6-5.6-2.5-1.7-1.2-4.25-0.2-2.75 1.05-4.25 4.1-1.75 3.6-1.1 6.25 0.8 3.15 5 5.2-5.6 4-13.2 3.75-7.5-0.25-13.5-4.5-6.5-4.65-8.6-12.45"/>
   <path d="m62.35 216.75q1.3 5.75 1.25 12 0 6-1.25 10.9-0.65 2.6-2.95 2.95-1.6 0.2-4.95-0.75 6-10.4 7.9-25.1"/>
   <path d="m22.1 212.35q-1.35-1.5-3.6-1.6-3.15-0.1-4.75 1.6-1.9 2.1-2.1 7.25-5.1-2.6-8.1-9.2-3.4-7.3-2.15-15.75 0.95 6.15 6.4 10.2 5 3.7 12.3 4.7 7.2 1 13.8-1 7.05-2.1 10.85-6.9-0.4 8.45-6.55 14.95-6.35 6.65-14.7 6.65-0.5-3.3-0.25-6.6 0.25-2.65-1.15-4.3"/>
   <path d="m42.95 194.6q-4.25 4.9-7.25 6.9-2.85 1.9-5.85 0.65-2.85-1.15-3.75-4 4.8-1.15 11.55-4.75 6.8-3.65 11.8-7.8-2.2 4.05-6.5 9"/>
   <path d="m45.5 176.25q5.15 2.55 11.05 2.1 5.95-0.45 10.55-3.7l2.4-0.45 2.85-0.7q-0.75 9-9.4 13.15-7.85 3.8-14.4 0.85l0.9-1.9-5.5-0.45q-0.85-0.55-3.3-3.45l3.05-3.25 1.8-2.2"/>
   <path d="m35.85 165.25q1.05 3 3 5.6l-2.4 2.4q-0.85-3.45-0.6-8"/>
   <path d="m58.45 166.55q3.4 2.3 9.9 3 7.05 0.75 14-0.85-3.5 2.15-8.05 3.8-4.7 1.65-8.05 1.85-3.55 0.2-5.6-1.7-2.2-2.05-2.2-6.1"/>
   <path d="m79.95 162.5q2.6 2.1 6.3 3.2 3.65 1.1 7.45 0.9 0.1 1.4 1.6 2.85 1.8 1.75 4.8 2.55-4.25 3.05-9.3 2.7-5.55-0.4-10-4.85l1.55-1.15q-2.1-2.1-4-3.4l-0.75-2.75 2.35-0.05"/>
   <path d="m95.05 161.9q1.85 2.8 6.25 6.3 4.5 3.5 9.05 5.7-9.4-0.65-13.65-3.35-2.4-1.45-2.85-3.95-0.5-2.45 1.2-4.7"/>
   <path d="m137.95 166.75q0.25 2.75-0.2 5.3-1.1-1-1.8-1.25 1.55-1.55 2-4.05"/>
   <path d="m112.65 166.65q2 5 7.35 7.1 5.05 2 10.05 0.25-0.15 1.25 0.3 2.6 0.6 1.7 1.95 2.45-7.3 4.7-14.4 0.25-7.1-4.4-6.15-13.05l0.9 0.4"/>
   <path d="m131.4 171.7q1.15 2.7 3.95 5.6 2.9 3 6.6 5.2-7.35-0.8-10.3-3.95-1.3-1.35-1.55-3.3-0.3-2.3 1.3-3.55"/>
   <path d="m220.1 368.15q1.2 2.75 3 5.2-0.6 1.25-0.15 2.5 0.6 1.8 0.5 4.55-2.1-1.95-3.1-4.85-1.1-3.45-0.25-7.4"/>
  </g>
  <g fill="#0f141b">
   <path d="m369.9 89.75q-3.4 6.8-5.7 13.65-0.15 0.5-0.65 0.4-8.3-1.75-17.2-2.55-10.65-1-18.8-0.2-0.65 0.05-0.95-0.3-8.45-8.6-22.55-17.3-14.15-8.75-25-12.05 4.4 9.65 8.85 17.5 3.8 6.7 9.1 14.75 5.4 2.15 12.15 5.25 1.6 0.75 1.4 1.25-0.25 0.5-1.85-0.2-11.1-4.7-17.65-6.9-9.6-3.3-19.25-5.05-12.15 6.85-23.6 9.25l-0.2 0.05q-6.8-0.8-25-5.35 15.2 6.65 24.65 10.05l1.9 0.45 1.9-0.5q6.4-2.2 10.2-3.3 5.2-1.5 10.35-2.35h0.2q12.6 2.1 24.4 7.4 9.4 4.25 19.85 11.35 13.5-6.5 27.95-15.15l0.9-0.25 0.35 0.75q3.45 16.35 5.25 28.05 3.6-4.7 6.35-10l6.05-13.05q0.15-0.35 0.6-0.35 6.95 0.55 11.3 2.5 4.5 2.05 6.75 5.85 0.4 0.5 0.15 1.35l-3 10.2q-1.8 5.25-4.4 11.2 7.8-4.05 13.75-12.75 5.4-7.95 4.55-11.8-0.15-0.85-3-3.15-2.7-2.2-5.55-3.9l-0.3-0.4q-1-13.3-5.4-23.3-3.35-7.6-4.7-7.6-0.9 0-4.15 6.5m10.35 1q4.55 10.5 5.4 22.25 2.95 1.8 5.55 4.2 2.55 2.35 3.1 3.75 1.85 4.5-4.7 13.85-6.95 10-16.1 13.7l-1 0.05q-0.3-0.25 0-1 5-11.8 8.1-23.35-2.15-3.45-6-5.3-3.9-1.8-10.25-2.35-3.5 8.65-6.1 13.55-3.2 5.95-7.2 10.85-0.6 0.8-1 0.7-0.35-0.1-0.55-1.2-1.55-9.8-5.3-28.6-13.25 8.15-26.85 14.6l-1.05 0.25q-0.4 0-0.95-0.35-11-6.95-19.4-10.8-11.7-5.4-23.85-7.7-5.4 0.95-10.05 2.25l-10.1 3.3-2.4 0.5-2.3-0.5q-12.45-4.6-23.95-10-5-2.4-4.85-3.15 0.1-0.8 5.4 0.5 16.25 3.95 24.15 4.95 11.15-2.55 22.7-8.8 0.9-0.5 2.1-0.25 10.05 1.9 19 5l2.8 1.05q-5.35-7.8-8.9-14.05-4.35-7.7-8.9-18.05-0.45-1.15-0.25-1.4l1.35 0.1q11.45 3.25 26.25 12.2 14.9 9.05 23.6 18.05 8.7-0.85 18.7 0.05 8.4 0.75 16.55 2.6 2.2-6.75 6-13.7 3.7-6.85 5-6.85 2.3 0 6.25 9.1"/>
   <path d="m273.95 79.55q5.45 1.65 10.35 4.05l1.05 2.45q-4.4-2.35-10.35-4.3-5.5-1.8-5.85-1.35-0.45 0.6 2.6 6.8 3.25 6.65 6.6 11.3l-2.55-0.4q-3.55-4.85-6.5-11.45t-2.1-7.85q0.7-1.1 6.75 0.75"/>
   <path d="m366.7 94.8q-9.8-5.8-23.2-4.75-12.7 1-19.65 7.1l-1.2-1.3q7.65-6.7 20.75-7.75 13.65-1.05 23.95 5l-0.65 1.7"/>
   <path d="m335.65 90.55q-1.75-4.05-4.95-7-3.25-2.95-7.35-4.2l-3.3-0.15q-2.35 0.25-4.25 0.95l-1.7 0.1q-0.15-0.5 1.3-1.15 2-0.9 4.6-1.25 2.3-0.3 3.75 0 4.5 0.9 8.35 4.25 3.65 3.25 5.55 7.7l-2 0.75"/>
   <path d="m323.1 78.3 2.55 1.25q-4.9 0.1-7.95 3-3.15 2.95-2.7 7.45l-1.9-1.5q0.05-4.2 3-6.95 2.65-2.6 7-3.25"/>
   <path d="m324.2 85.65q-0.55 0-1.05 0.8-0.6 0.9-0.7 2.25-0.15 1.75 0.4 2.85 0.45 0.9 1.15 0.95 0.8 0 1.35-0.9 0.55-1 0.55-2.55 0-1.5-0.45-2.4-0.5-0.9-1.25-1m-0.2 7.95q-1.25 0-2.15-1.2-1-1.35-0.8-3.75 0.15-2 1.25-3.15 0.95-1 1.85-0.95 1.2 0 2.05 1 1.05 1.25 1.1 3.55t-1.15 3.55q-0.9 0.95-2.15 0.95"/>
   <path d="m342.65 89.2q0.05-2.35-0.85-4.55-0.6-1.3-0.15-1.5 0.4-0.25 1.15 1 1.3 1.95 1.45 5l-1.6 0.05"/>
   <path d="m352.15 89.4q-6.3-11.35-21.1-13.95-15.2-2.65-28.7 6.15l-1.65-1.1q13.95-10.55 31.35-7.1 7.8 1.55 13.7 5.75 6.1 4.35 8.75 10.55l-2.35-0.3"/>
   <path d="m360.75 28q-2.3 11.7-6.05 24.85-3.25 11.45-8.75 27.9l-1.6-1.05q10.9-33.5 15.15-52.8-21.8 25.7-37.55 47.25h-2.05q17-23.4 37.75-47.5 4.35-5 3.1 1.35"/>
   <path d="m324.4 69.35q-4.35-16.2-15-30.6-9.2-12.4-21.8-21.85-11.15-8.35-21.6-12.05-10.05-3.55-14.5-1.15-3.5 1.9-5.05 9.15-1.45 6.85-0.75 16.6 1.55 22.05 10.7 37.95 0.85 1.45 0.4 1.7-0.45 0.3-1.35-1.1-10.35-15.85-12.2-39.15-0.85-10.45 0.85-17.8 1.8-7.85 6-10.05 4.85-2.5 15.55 1.2 11.05 3.8 22.7 12.4 13.1 9.7 22.55 22.3 10.85 14.55 14.95 30.75l-1.45 1.7"/>
   <path d="m246.65 43.25q-9.65-11-23.2-18.1-12.3-6.4-16.5-4.5-2.4 1.05-2.75 7.85-0.3 6.7 1.4 16.1 4.05 22.7 14.05 36.75 1.1 1.65 0.7 1.9-0.4 0.3-1.65-1.2-11.3-13.5-15.6-37.7-1.85-10.25-1.2-17.5 0.7-7.6 3.85-9 4.75-2.1 17.65 4.55 13.8 7.15 22.75 17.8l0.5 3.05"/>
   <path d="m193.35 47.7q9.25 5.4 15.4 12.35l0.9 3.45q-6.4-7.2-15.5-12.7-8.85-5.35-11.35-3.9-1.2 0.65-0.25 7.2 0.95 6.7 3.55 15.2 6.75 22.15 16.45 31.5 1.45 1.35 1.1 1.7-0.35 0.3-1.85-0.9-10.9-8.85-18.4-32.6-3-9.5-3.75-16.7-0.75-7.4 1.3-8.45 3.1-1.65 12.4 3.85"/>
   <path d="m177.5 87.2q1.65 6.6 4.95 13.95 3.95 8.7 8.15 14.9 3.5 5.15 4.2 4.75 0.55-0.3-1-6.35-1.85-7.05-4.95-13.95l3.25 3.45q2.6 6.45 3.75 12.15 1.15 5.8-0.2 6.4-2 0.85-6.5-5.05-4.7-6.15-8.9-15.6-3.5-7.85-4.95-14.95-1.5-7.15 0.15-8.25 1.95-1.25 7.3 1.45 4.8 2.45 9.35 6.4l1.45 3.65q-4.5-4.25-9.85-7.25-5.4-3.05-6.8-2.05-0.8 0.55 0.6 6.35"/>
   <path d="m187.15 97.15q7.6 10.6 18.65 18.65 10.5 7.75 13.2 5.55 1.65-1.35 0.6-8.55-1.05-7.1-3.9-14.15l2.85 2.65q2.5 6.55 3.1 13.25 0.7 6.95-1.25 8.5-3.45 2.85-14.8-5.2-11.85-8.4-19.4-20.1-1-1.45-0.55-1.75t1.5 1.15"/>
   <path d="m248.45 106.35q-0.1-4.85-1-8.95l2.55 3.3 0.5 5.25-2.05 0.4"/>
   <path d="m214 95.1q9.35 11.4 19.2 19.15 9.15 7.15 11.8 6.15 2.15-0.85 3.05-7.45l2.05 0.25q-0.5 3.8-1.6 6.4-1.15 2.7-2.7 3.3-3.3 1.2-13.2-6.6-10.7-8.45-19.5-20.5-1.15-1.6-0.75-1.9 0.4-0.35 1.65 1.2"/>
   <path d="m259.75 110.05q3.8 3.55 7.1 6.25l-1.15 1.65q-4.35-3.45-8-7.1l2.05-0.8"/>
   <path d="m242.55 88.65q0.45-0.2 1.4 1.55 3.75 7.05 10.6 14.6l-2 0.5q-6.15-7.25-9.65-14.6-0.8-1.8-0.35-2.05"/>
   <path d="m374.8 147.15q-6.45 8.55-21.3 11.85-12.95 2.85-26.85 0.9-11.6-1.65-20.9-7.3-8.55-5.25-13.3-12.6-4.65-7.2-4.25-14.15 0.4-7.25 6.2-11.95l1.65 0.85q-5.65 4.15-5.95 10.95-0.3 6.45 4.2 13.25 4.65 6.95 12.85 11.9 8.9 5.4 19.9 7 13.4 1.9 25.6-0.65 14.2-2.95 20.8-11.15l1.35 1.1"/>
   <path d="m247.8 148.05q4.85-12.55 12.6-24.5 7-10.75 13.15-16.4l2.2 0.7q-5.95 5.2-12.95 15.95-7.65 11.85-12.6 24.6l-2.4-0.35"/>
   <path d="m216.7 175.4q-1.4-8.5 3.8-15.85 5.25-7.4 15.15-10.9 10.15-3.65 20.2 0.25 11.75 4.55 17.75 18.1 0.65 1.5 0.1 1.8-0.55 0.25-1.35-1.2-6.75-12.8-17.8-16.85-9.1-3.25-18.15-0.05-9.2 3.3-14.25 10.45-4.6 6.6-4.15 14 0.1 1.6-0.45 1.7-0.6 0.15-0.85-1.45"/>
   <path d="m201.6 185q8.45-6.7 15.2-13.7l0.3 2.75q-6.35 6.3-14.7 12.85-8.6 6.75-17.75 12.5l-1.8-1.65q9.4-5.35 18.75-12.75"/>
   <path d="m233.8 163.7q8.4 4.85 14.55 4.75 6-0.1 8.25-4.8 1.55-3.3-0.8-7.9-2.55-4.95-7.95-7.45l3.5 0.1q4.8 3.1 6.75 8.05 1.8 4.65 0.15 8.05-2.6 5.45-9.5 5.6-6.75 0.15-15-4.75-1 3.1 0.2 8.15 0.65 2.8-0.1 3.1-0.65 0.25-2.6-1.25-3.7-2.8-6.05-7.05-2.75-4.95-2.3-9.9l1.95-1.75q-1.05 5.05 1.5 10.1 1.95 3.95 5.85 7.5 0.65 0.65 0.35-0.4-0.7-2.3-0.7-4.85 0.05-2.7 0.9-4.95 0.25-0.8 1.05-0.35"/>
   <path d="m273.35 119q0.1 0.85 0.3 1.05l0.75 0.25h0.9q0.8-0.25 3.55-5.5l-0.05-1.3q-0.3-0.85-0.7-1-0.75-0.3-2.1 0.75-0.5 0.35-1.6 2.2l-1.15 2.2 0.1 1.35m-0.2-4.35q1.3-2.1 1.95-2.65 2.1-1.65 3.6-1.05 0.75 0.3 1.35 2.05 0.6 1.7 0.2 2.5l-2.05 3.4q-1.85 2.85-2.45 3.05h-1.5q-1.1-0.2-1.65-0.65-0.45-0.35-0.7-1.85-0.25-1.3-0.15-2.05 0.1-0.7 1.4-2.75"/>
   <path d="m277.3 127.6q-0.5-0.15-2.5 1.45t-2.8 2.95q-0.45 0.75-1.35 5.15-0.9 4.5-0.6 5.4 0.6 1.8 0.2 3.65-0.05 0.6 0.4 1.15l0.9 1.3 0.85 1.3 0.35 0.05 3.45-5.75 0.5-1.05-0.1-1.1-0.6-2.2q-0.45-2.15-0.1-3.3l1.25-3.3q0.8-2.1 0.8-2.75l-0.2-2-0.45-0.95m1.35 5.85-1.2 3.5q-0.4 1.45 0.65 4.75 0.55 1.65-0.8 3.45l-1.75 2.95-1.7 2.95q-1.25 1.75-2.5 0l-1.85-2.7q-0.8-0.95-0.6-2.3 0.3-1.6-0.2-3.1-0.4-1.2 0.5-6.15 0.8-4.65 1.35-5.6 1.35-2.25 4.1-4.05 2.45-1.6 3.3-1.35 1.35 0.35 1.5 4.7 0.05 0.7-0.8 2.95"/>
   <path d="m265.85 117.7q0.45 3.8 2.25 6.95 0.65 1.15-0.2 2.7-2.55 4.5-4.7 10.35-0.45 1.35-2.25 2.05-1 0.35-2.45 1.15l-2.1 1.15q-1.75 0.85-2.55-0.7l-1.3-1.8 1.05-1.3 1.35 2 0.3 0.35 0.6-0.15 4.55-2.15q1.2-0.5 1.45-1.25 1.85-5.35 4.55-10.2 0.65-1.05 0.3-1.6-1.4-2.4-2.15-6.15l1.3-1.4"/>
   <path d="m237.6 203.75q-1.3 0.7-4.5 2.8l-15.85 10.4q-10.4 6.45-18.95 11l-1.05-1.95q11.1-5.6 35.2-21.1 2.75-1.7 5.05-2.55 3-1.15 3.15-0.7 0.1 0.45-3.05 2.1"/>
   <path d="m247 202.85q-1.4-2.2-1.05-2.5 0.3-0.3 2.05 1.5 2.45 2.55 3.65 8.15 0.3 1.3-0.15 1.4-0.5 0.15-0.95-1.1-1.35-4.1-3.55-7.45"/>
   <path d="m238.4 243.55q2.8 5.1 2.25 12.45-0.55 7.6-4.5 15-9.5 17.85-31 23.05l0.4-2.1q19.35-4.9 28.5-21.65 3.85-7 4.5-14.05 0.65-7-2-11.75-4.1-7.5-6.75-17.6-2.2-8.3-3-16.45l1.75-1.15q0.7 8.05 3.15 16.95 2.7 10 6.7 17.3"/>
   <path d="m234 215.35q-0.45-1.1-0.6-2.95-0.2-1.8-0.05-3.25 0.1-1.45 0.7-1.45 0.55 0 0.5 1.45 0 3.55 0.65 5.85 0.5 1.8 0 1.9-0.5 0.15-1.2-1.55"/>
   <path d="m182.8 159.3q-5.65 0.35-7.65 1.75 1.8 5-0.3 8.5-2.2 3.7-7.5 3.7-1 0-1.4 0.9-2.15 4.8-4.7 8.45l-0.25 0.55 0.3 0.55q2.6 3.3 0.6 6.8-2.15 3.9-8.9 5.75l-4.9 5.35q0.75 4.2-1.6 5.95l-6.85 0.2q-2.05-0.65-4.75-0.8l-4.35 0.25q-2.05 2.25-9.75 12.75 1.25 5 0.3 9.75-1 4.75-4.05 8.5l-1.35 4.8q-0.35 1.55-0.45 3.4-0.15 2.65-1.4 5.85-2.8 7.55-2.2 14.45 0.15 1.45 0.8 2.35l1.65 1.45q10.9 8.8 14.3 12.8 4.75 5.55 6.05 12.9 0.2 1.15 0.6 1.6l1.35 0.65q3.55 1.25 4.65 3.6l3.95 8.85q6.7 2.5 11.5 5.15 3.35-2.2 6.7-3 3.2-0.75 5.65-0.05 1.8 0.5 2.65-1.2 2.15-4.3 3.5-6.3l2.75-1.9q-1.75 3-4.6 9.15-0.6 1.2-1.9 1.7l-2.7 0.1q-2.15-0.6-5.3 0.4-3.05 0.95-6.4 3.25l-0.6 0.05q-3.55-2.05-12.2-5.05l-0.3-0.3-4.55-10q-0.45-0.9-1.65-1.6l-2.45-0.9q-2.55-0.45-3.2-3.75-1.3-7.15-5.3-12-3.15-3.8-13.9-12.5-2.95-2.4-3.2-5.25-0.35-3.6 0.2-7.6 0.5-4.1 1.85-7.75l1-2.55 0.5-2.9q0.1-1.9 0.6-3.9l1.45-5 0.1-0.15q3-3.6 3.9-8.25 0.85-4.65-0.45-9.5-0.1-0.25 0.1-0.5l4.95-6.65 5.25-6.6 0.3-0.15 4.85-0.4q3.2 0.15 6 1.1 3.9 1.35 5.45-0.05 1.45-1.3 0.75-4.85l0.2-0.5 5.25-6 0.25-0.15q6.5-1.75 8.35-4.9 1.65-2.85-1.15-5.35l-0.75-0.9q-0.15-0.55 0.35-1.3 3.7-5.3 5.3-8.9 0.45-0.95 1.1-1.3l1.85-0.25q4.7 0 6.4-3.25 1.7-3.1-0.1-7.7-0.15-0.35 0.15-0.65 2.1-1.8 9.85-2.2 0.8-0.05 0.8 0.7 0 1.15 0.95 2.6 0.95 1.5 0.35 2.15l-2 0.2q-1.45-0.45-2.4 0-0.7 0.3-0.95 0.95-0.2 0.65 2.85 6.35l0.05 0.45-1.2 2.8q-0.75 1.5-3 0.9-1-0.3-0.55 0.65l1.55 4q2.1 0.15 3.6 2.55l3.2 4.75q1.8 2.3 0.15 3.95-0.7 0.8-0.05 1.45l2.8 2.45-1.45 1.1-2.7-2.7q-1.45-1.65 0.15-3.05 0.4-0.35 0.3-0.75l-0.75-1.35-3.05-4.8q-1.45-2.25-2.75-2.1-0.5 0-0.6-0.4l-1.75-4.5q-0.6-1.5-0.15-2.25 0.45-0.8 2.1-0.35 1.2 0.3 1.65-0.5l0.65-1.85q-3.15-5.85-2.6-7.55 0.35-1 1.7-1.5l3.35-0.1q0.6 0.15 0.25-0.25-0.9-1.5-1.05-2.55"/>
   <path d="m180.15 196.8q5.7-0.2 8.6 7.3 2.85 7.45-0.9 11.35l-0.5 0.9q0 0.35 0.35 1 1.55 3.4 1.75 7.8 4.3 2 4.8 8.15 0.1 1.6-0.4 1.65t-0.75-1.5q-0.35-2.45-1.4-4-1.15-1.85-3.5-3-0.35-0.15-0.35-0.5-0.15-4-2.15-7.9-1.05-2.1 0.55-3.7 3.25-3.25 0.95-9.55t-7-6.85q-1.5-0.2-1.5-0.65-0.05-0.45 1.45-0.5"/>
   <path d="m193.3 231.4-0.95-2.5q1.3-4.6 4.2-4.35t2.7 4.4q-0.15 3.1 1.5 4.2 0.9 0.6 1.5 1.7 0.6 1.2 0.55 2.55-0.05 4.95-1.9 10.05-1.55 4.3-4.95 3.3-1.35 2.75-1.9 6.1-0.2 1.15-0.65 1.55-0.4 0.35-1.4 0.35-1.15 0-1.2 1-0.15 2.35 0.55 4.15 0.75 1.85 2.05 2.25 3.65 1.1 5.5 6.75 1.8 5.55-0.25 8l-2.15 2.4q-1 1.25-1.55 2.45-0.85 1.75-1.5 2.1l1.8 2.6-1.7 0.7-2.1-3.25q-0.45-0.8 0.5-1.1 1.05-0.35 1.6-1.7 1.35-3.35 3.35-5.4 1.7-1.8-0.2-6.55-1.85-4.65-4.25-5.25-2.1-0.5-2.95-3.6-0.65-2.3-0.45-5.25 0.1-1.1 0.55-1.5t1.7-0.5q0.8-0.05 0.95-0.95 0.75-4.1 2.35-7 0.25-0.5 0.85-0.35l2.1 0.1q0.7-0.45 1.35-2.15 1.75-4.9 1.8-9.45l-0.2-1.8-0.75-0.85q-2.05-1.4-2.05-5.55 0-3.1-1.8-2.55-1.8 0.6-2.6 4.9"/>
   <path d="m137.4 237.9q-0.2-0.45 1.2-1.1 2.5-1.15 5.5-1.95l4.4-0.6q1.2 0.2 3.7 2.7 2.35 2.3 3.95 4.7l-2.45 0.05-3.2-3.9q-1.65-1.7-2.4-1.85l-3.6 0.35q-2.8 0.55-5.5 1.55l-1.6 0.05"/>
   <path d="m147.15 243.5q-3.65 1.35-4.95 5.85-1.15 3.9-0.25 8.8 1.1 6.05 4.15 8.5 2.85 2.25 6.25 0.5 5.7-2.85 12.3-9.15 6.65-6.35 10.05-12.35 0.85-1.55 0.7-1.9-0.2-0.4-1.9-0.6l-14.4-0.75q-9 0.05-11.95 1.1m12.6-2.75 14.05 0.8q2.85 0.45 3.2 1.35 0.35 0.8-1 3.45-3.3 6.65-10.15 13.15-6.35 6-12.85 9.25-4.2 2.15-7.7-0.3-3.9-2.7-5.2-10.05-1-5.8 0.5-10.2 1.7-4.9 6.05-6.35 3.45-1.15 13.1-1.1"/>
   <path d="m160.25 263.1-1.55 7.4-0.25 0.4q-6.4 4.45-9.4 8.15l-0.6 0.2-4.5-0.6-4.75 0.6-0.5-0.1q-2.1-1.8-3.95-4.35-0.9-1.2-0.55-1.5 0.3-0.35 1.4 0.75l3.75 3.55q4.5-1.15 8.7-0.05 3.6-4.25 9.15-8.35l0.85-4.7 2.2-1.4"/>
   <path d="m160.2 278.15 3.25-1.05q1.65-0.8 3.2 0.35 1.8 1.4 4.3 5.15l-1.75 0.55-3.55-4.4q-0.4-0.4-0.9-0.4l-1 0.15-3.3 0.75q-1.45 0.15-1.55-0.3-0.1-0.5 1.3-0.8"/>
   <path d="m160.75 298.25q0.6 4.15 2.85 6.5 2.35 2.4 5.9 2.15 5.45-0.35 11.85-8.8 6.7-8.8 8-18.5 0.15-1-0.05-1.25l-0.95 0.05q-8.2 2.8-20.6 6.15-4.05 1.1-5.95 5.3-1.65 3.8-1.05 8.4m-0.5-9.7q2.25-4.45 7.05-5.75l20.55-5.9q2.35-0.7 2.85-0.25 0.5 0.5 0.15 3.2-1.3 10.45-8.3 19.55-6.75 8.8-13 9.25-3.85 0.3-6.75-2.2-3.2-2.7-3.9-7.95-0.75-5.7 1.35-9.95"/>
   <path d="m188.75 294.4q-1.6-1.2-3.15-1.65l0.7-1.55q1.9 0.6 3.6 2l-1.15 1.2"/>
   <path d="m203.9 287.9q-13.15 3.85-15.9 8.55-3.25 5.45-0.6 10.1 2.05 3.6 5.65 4 3.7 0.35 5.9-3.05 4.9-7.45 6.5-18.7 0.1-0.9-0.15-1.05l-1.4 0.15m3 1.05q-1.4 11.65-6.6 19.65-2.8 4.25-7.35 3.85-4.5-0.4-7.15-5-3.1-5.45 0.7-11.95 3-5 16.95-9.1l3.2-0.3q0.55 0.4 0.25 2.85"/>
   <path d="m200.8 306.3-4.15 10.35q-0.15 0.35-0.5 0.35-4.1 0.25-7.75 1.3-4.05 1.2-5.55 2.95l-0.7 0.15q-5.65-2.95-10.8-3.85l-0.35-0.2q-1.95-2.3-4.75-3.75l3.55 0.3 2.25 2.05q6.05 1.2 10.3 3.25 3.2-3.15 13.2-3.8l2.2-5.25 3.05-3.85"/>
   <path d="m256.35 247.4q-0.15 2.15-0.6 3.25-0.6 1.35-2.1 2.45t-2.25 2.15q-0.95 1.4-0.9 3.3 0.05 3.8-1.6 4.2t-3.25-2.4q-0.7-1.25-1.4-1.65-0.5-0.3-1.3-0.3-1 0-1.95-1.1-1-1.2-1.75-3.25l0.35-3.6q1.05 3.7 2.2 5.35 0.7 1 1.2 1 2.3 0 3.9 2.7 1.05 1.8 1.6 1.65t0.5-2.6q-0.05-3.9 3.75-6.7 1.25-0.95 1.65-1.85 0.3-0.8 0.4-2.65 0.2-5.4-1.9-10.35-2.5-5.95-7.75-9.15l-2.05-0.15q-1.15 0.35-1.45 1.1-0.85 2.1-4.3 7.25-0.35 0.5 0 3.65l0.7 4.95-2.05-2.6q-0.75-5.5 0.1-6.8l2.25-3.55 1.95-3.5q0.5-1.3 2.45-1.85l3.1 0.2q5.25 3.1 8.15 8.95 2.85 5.7 2.35 11.9"/>
   <path d="m283.05 241q-4.6 8.25-7.35 13.9-0.7 1.45-1.15 1.25-0.4-0.2 0.1-1.75 1.3-3.7 3.35-7.55 2.1-4 4.05-6.4 0.9-1.15 1.3-0.9 0.4 0.2-0.3 1.45"/>
   <path d="m104.4 294.3q1 3.4 4.5 5 13.05 5.9 21 11.5 11.65 8.25 20.55 20.5l-1.1 2.2q-8.9-12.4-20.5-20.65-8-5.7-20.95-11.5-4.35-1.95-5.55-6.05-1.05-3.4 0.1-7.8 1.2-4.75 4.25-7.25 2.95-2.45 6.5-2l6.2 1.15q1.75 0.45 5.7 1.65l2.35 3.1q-8.35-2.7-14.6-3.5-2.8-0.35-5 1.75t-3.3 6q-0.9 3.2-0.15 5.9"/>
   <path d="m172.8 317.05q-3.4 6.1-5.35 12.2-2.35 7.35-3.1 16.1-0.15 1.95-0.65 1.95t-0.45-2q0.15-8.55 2.5-16.4 1.7-5.7 5.1-12.65l1.95 0.8"/>
   <path d="m160.75 320.8 3.25 0.3q1.85 0.6 2.65 1.5 0.95 1.05 1.4 2.65l-1 2.95q-0.5-2.95-1.55-4.25-0.6-0.65-1.85-1.05l-2.6-0.2q-5.5 0.95-11.05 11.3-5.85 11.1-12.15 20.95-7.6 11.85-11.9 15.5l-2.3 1.85q-1 1-1.25 2.3-0.45 2.4-0.45 3.4 0 1.3 0.75 1.85 2.8 2.15 5.65 1.5 2.5-0.6 4.35-1.65 2.05-1.15 4.3-3.4 1-0.95 1.35-0.65 0.4 0.35-0.5 1.4-2.3 2.8-4.5 4.25-1.95 1.2-4.7 1.85-3.5 0.9-7.1-1.8-2-1.6-0.9-7.2 0.3-1.6 1.75-3l2.4-2.1q3.45-3 11.2-15.25 6.3-9.9 12.35-20.9 2.95-5.4 6.15-8.5 3.2-3.05 6.25-3.6"/>
   <path d="m139.55 373.35q2.35-3.5 3.95-7.75 0.5-1.4 0.95-1.25 0.5 0.2 0.1 1.6-1.2 4.8-4.1 8.1-1 1.15-1.35 0.9-0.4-0.25 0.45-1.6"/>
   <path d="m137.25 390.75q5.05 0 6.05-0.6 1.25-0.8 2.9-2.6 1.7-1.9 3-4.1 0.8-1.5 1.3-1.25 0.45 0.25-0.3 1.75-1.35 2.6-3.2 4.9l-2.9 2.8q-1.2 0.75-6.8 0.75l-2.45-0.35q-0.75-0.4-1.25-1.75l-1.4-2.75-1.45-2.6q-0.95-1.7-0.3-3.3l2.05-0.65q-0.85 1.8-0.1 3.25l1.35 2.5 1.3 2.75q0.3 0.75 0.7 1l1.5 0.25"/>
   <path d="m145 389.7q3.3 1.7 6.9 2.2 1.7 0.25 2.05-0.5 0.5-1 3.05-2.85l3.85-2.75q1.35-1.05 1.45-2.05l-0.55-3q-1.05-4.15 0.65-14.15l1.6 1.75q-1.35 8.65-0.45 12.05 0.65 2.5 0.45 3.8-0.3 1.75-2.05 3.05l-3.65 2.5q-2.4 1.7-2.8 2.55-0.4 0.95-1.25 1.2l-2.45 0.05q-1.7-0.15-4.2-1t-3.85-1.75l1.25-1.1"/>
   <path d="m158.15 335.45q0.35 9.7 1.85 18.8 1.55 9.65 3.4 12 1.9 2.45 4.55 3.3l4.85-0.15q5.25-2.45 11.05-8.25 6.1-6.05 10.7-13.85 11.2-19 7.95-36.25-0.35-1.9 0.15-1.95 0.5-0.1 0.95 1.75 4.4 17.1-6.85 36.95-4.75 8.3-11.1 14.75-6.2 6.3-12.1 8.9-2.6 1.15-5.75 0.4-3.65-0.9-5.95-4.1-2.05-2.85-3.6-13.4-1.45-10.3-1.2-18.9 0.05-1.95 0.55-1.95t0.55 1.95"/>
   <path d="m158.15 346.15q-2.4-3.25-3.6-7-0.5-1.6 0-1.75 0.5-0.2 1.05 1.35 1.05 2.6 2.4 4.5l0.15 2.9"/>
   <path d="m309.45 272.55q-3.75 7.6-10.35 26.2-10.15 28.7-27.45 46.15-13.15 13.25-29.3 19.05-13.45 4.8-27.95 3.9-15.5-1-27.5-8.3l1.1-1.55q11.45 6.7 25.8 7.75 14.25 1 27.9-3.85 15.85-5.65 28.6-18.55 16.75-17.05 26.8-45.45 6.6-18.5 10.9-26.85 5.35-10.25 12.8-16.75 1.45-1.3 1.8-0.95t-1 1.75q-7.25 7.6-12.15 17.45"/>
   <path d="m216.75 291.8q1.2 4.45 2.2 6.75 0.15 0.4-0.2 0.65-2.2 1.55-4.05 3.6-2.25 2.55-2.55 4.45 1.7 6.1 1.7 9.9l0.1 0.85q0.2 0.3 0.7 0.4 2.5 0.6 6.35 2 2.25-0.9 4.6-4.1 0.25-0.3 0.65-0.15 7.3 2.9 11.95 2.45 0.4-0.1 0.6 0.3 1.25 2.85 2.5 7.25l1.8 6.8-0.05 0.45-3.45 5.5 1.6 3.3q1.35 2.55 2.2 2.7l5.3-0.15 4.7-0.65 0.8-1.5 0.7-3.3q0.1-0.5 0.55-0.5 4.65 0.15 6.5-1.25l0.4-0.1 5.85-0.25q1.3-0.6 1.5-2.9 0-0.25 0.3-0.45l3-1.75q1.35-1.05 1.7-2.25 0.1-0.3 0.35-0.35 2.55-0.9 4.35-2.2 0.5-0.35 0.85 0.15l1.9 2.95-1.05 1.35-1.7-2.55q-1.05 0.75-3.4 1.7-0.5 1.25-1.8 2.3l-2.95 1.75q-0.35 2.8-2.1 3.65l-6.65 0.35q-2.65 1.35-6.3 1.3-0.5 4.3-1.7 5.35-0.55 0.45-5.35 0.9l-6.15 0.15q-1.3-0.2-3-3.25l-2.1-4.2q-0.15-0.35 0-0.6l3.4-5.7q-2.3-8.6-4-12.45-4.75 0.15-10.8-2.15-1.95 2.55-5.3 3.7h-0.4l-6.75-2.05q-1.1-0.3-1.5-0.9t-0.4-1.75q0-2.45-2-9.85l-0.05-0.2q0.3-2.4 3.15-5.5 1.7-1.9 3.8-3.55-1-2.5-2.1-6.55l0.1-0.55 1.55-2.05 2.55-1.35q-1.5 3.1-2.4 4.1"/>
   <path d="m283.2 296.3 0.7-0.05q4.05-1.25 8.55-4.35 4.75-3.35 5.95-6.2 1.45-3.5 1.6-7.9 0.2-5.5-1.8-10.5-0.25-0.7-0.55-0.7-0.3-0.05-0.8 0.6-5.9 7.7-9.55 15.25-3.65 7.5-4.2 13l0.1 0.85m16.35-29.5q2.2 5 2.2 10.8 0 5.15-1.6 8.8-1.45 3.35-6.65 6.85-4.85 3.25-9.2 4.3-1.8 0.45-2.35 0-0.6-0.45-0.45-2.3 0.55-6.15 4.45-13.95 3.75-7.5 9.8-15 1.45-1.75 2.25-1.6 0.7 0.15 1.55 2.1"/>
   <path d="m346.4 197.4q4.5 9.7 4.65 15.6 0.15 4.8-3 12.65-3.2 8-8.6 16.2-13.15 19.8-28.25 26.2l1.25-2.85q13.4-6.4 25.25-24.7 10.9-16.8 11.1-27.5 0.1-5.75-3.85-14.8-4.2-9.5-10.05-15.9-1.15-1.25-0.8-1.6 0.3-0.4 1.55 0.75 5.9 5.4 10.75 15.95"/>
   <path d="m326 174.3q-1.2-1.45-4.65-4.15-1.65-1.3-1.4-4.15 0.3-3.9 1.9-8.25l2.05 0.45q-1.6 4.25-1.85 7.85-0.2 1.95 0.75 2.65l4.5 3.95q17.95 5.05 25.2 18.85 7.65 14.6 0.7 34.3-0.65 1.9-1.25 1.7-0.6-0.15 0-2.1 6-19.6-1.5-33.4-7.1-13.1-24.15-17.5l-0.3-0.2"/>
   <path d="m349.45 188.5q-0.5 4.3 1.25 10.15 1.8 5.8 4.95 10.3l-0.55 2.25q-4.15-5.15-6.15-12.3-1.9-6.9-0.9-12.05l1.4 1.65"/>
   <path d="m359.4 239.85q1.9 7.25 4.2 19.1 0.8 4.1 2.1 5.7l-2.55 0.35q-1.05-1.5-1.85-5.7-4.55-24.85-8.85-33.5l1.1-2.5q3.05 5.8 5.85 16.55"/>
   <path d="m361.4 265.2q1.4-1.1 3.45-1.2 1.95-0.1 3.8 0.8l-2.5 1.2-4.15 0.2-1.35 0.1q-0.2-0.35 0.75-1.1"/>
   <path d="m332.6 248.3 1.9-1.85q1.35 9.85 4.4 18.95 3.2 9.6 7.5 16.1l-1.9 1.25q-4.1-6.25-7.3-15.65-3.15-9.2-4.6-18.8"/>
   <path d="m341.15 189.7q-8.95 7.85-15.25 15.7-1.05 1.3-1.85 1.25t-1.55-1.5q-9.05-17-18.1-27.7-1.25-1.45-2.25-1.75l-3.7 0.15q-6 1-13 4.55-6.75 3.45-9.75 6.75-2.1 2.3-3.6 10.35-1.55 8.4-0.1 12 2.4 5.7 6.35 12.75 4.6 8.25 7.2 10.55 7.25-2.15 19.45-7.95 9.45-4.55 16.6-8.65 0.8-0.5 1.25 0.2 3.4 4.85 5.95 11.95 2.15 5.9 3.25 12.1 6.6-3.8 11.95-9.65l-2 4.45q-4.7 4.3-10.15 7.4l-1 0.2q-0.3-0.2-0.4-0.9-1-6.15-2.95-11.9-2.35-7.05-5.7-11.95-6.55 3.9-16.4 8.65-12.25 5.85-19.7 8.05l-0.6 0.05-0.5-0.3q-2.9-2.3-8.1-11.3-4.55-7.75-6.7-13-1.65-4 0.1-13.25 1.7-8.8 4.1-11.5 3-3.3 10.4-6.85 7.55-3.6 13.85-4.6l4.2-0.1q1.7 0.45 3.3 2.3 8.8 10.35 17.85 27.55 0.35 0.65 0.6 0.7l0.7-0.55q7.25-9.1 15.45-16.1l0.8 1.85"/>
   <path d="m320.55 184.95q4.3 8.2 3.45 20.85l-1.8-2.75q0.25-5.5-0.35-9.25-0.55-3.85-2.3-8.35-0.6-1.55-0.15-1.75 0.4-0.2 1.15 1.25"/>
   <path d="m330.85 187.35q0.15 7.65-1.7 13.25l-2.65 2.55q1.4-3.7 2.2-7.6l1.05-8.25q0.1-1.7 0.6-1.7 0.5 0.05 0.5 1.75"/>
   <path d="m240.1 363.45q5.65 5.25 12.55 8.5 7.3 3.5 10.6 2 3.7-1.6 7.35-10.95 4.25-10.75 4.45-23.5l1.95-1.85q0.15 15.2-4.35 26.5-3.9 9.7-8.7 11.65-4.1 1.65-11.4-1.6t-14.4-10l1.95-0.75"/>
   <path d="m251.4 372.2q0.6 8.85 0 9.85-0.5 0.75-2.7 1.7-2.2 1-3.95 1.2l0.65-1.7 2.7-0.95q1.35-0.7 1.8-1.4 0.45-0.75-0.3-9.5l1.8 0.8"/>
   <path d="m232.65 382.45 1.2 2.15 1.2 0.95 3.65 0.15q3.15-0.2 4.4-0.85 1.25-0.6 1.7-1.75t0.45-3.55q0-1.3 0.5-1.35 0.45 0 0.6 1.3 0.35 2.45-0.05 3.85-0.5 2.05-2.5 3.05-1.35 0.65-5 0.9l-4.45-0.15q-1.95-0.7-3.4-4.4l1.7-0.3"/>
   <path d="m245.35 376.3q0-2.25 0.15-3.85 0.1-1.25 0.65-1.2t0.45 1.3l-0.1 3.75q0 1.45-0.55 1.45-0.6 0-0.6-1.45"/>
   <path d="m236.4 374.6q1.15-2.95 1.55-6.65 0.2-1.55 0.65-1.5 0.5 0.1 0.5 1.65-0.1 3.9-1.65 6.95-0.5 1-0.95 0.8-0.5-0.15-0.1-1.25"/>
   <path d="m227.9 366.4q-0.85 2.1-4.25 7.5-0.45 0.7-0.1 2 0.65 2.3 0.65 3.7 0 0.7 0.15 0.95l0.85 0.75q1.5 1 5.55 0.65 3.75-0.25 4.55-3.9 0.3-1.3 0.8-1.2t0.35 1.4q-0.3 2.4-1.85 3.85-1.55 1.4-3.85 1.5-3.55 0.15-6.3-0.95-1.9-0.75-1.9-3 0-1.6-0.5-3.35-0.6-1.9 0.25-3.3 2.5-3.85 3.65-6.55l1.95-0.05"/>
   <path d="m224.7 370.85-3.55-1.85q-0.95-0.55-0.95 0.5 0 3.35 0.9 6 0.9 2.55 2.4 3.9l0.65 2.55q-2.5-1.05-4.1-5-1.55-3.75-1.3-7.5 0.15-2.1 0.75-2.45t2.3 0.65q1.75 1 3.65 1.8l-0.75 1.4"/>
   <path d="m332.75 262.2q0.1-1.15 0.95-1.75 0.95-0.7 2.55-0.5l0.3 1.65q-2.15-0.2-2.25 0.9-0.05 3.55-2.55 7.75-0.8 1.3-3.3 1.25-2.65-0.05-4.35-1.7-0.25-0.25-0.15-0.55 0.4-1.45 0.25-3.35-0.15-2-0.8-3.5l-3.35-0.75 0.75-1.15 3.3 0.5 0.5 0.4 0.95 3.85q0.25 1.8 0 3.7 1.15 0.95 3 0.9 1.6-0.05 2-0.6 0.9-1.15 1.5-3.2 0.6-1.95 0.7-3.85"/>
   <path d="m432.3 246.15q2.6 1.4 4.8 4.6 1.95 2.8 2.8 5.65 0.55 1.9 2.25 2.25l4.75-0.45q2.05-0.55 3.05 1.1 3.3 5.3 5.5 14.75 0.25 0.85-0.35 1.1-4.5 1.75-5.7 4.85-1.2 3 1.8 3.9 5.8 1.85 8.8 4 0.3 0.2 0.2 0.75-0.35 2.9 1.7 9.2 0.1 0.4-0.15 0.6-1.2 0.85-2.05 2.2-0.7 1.15-0.9 2.25-0.25 1.6-0.05 3.65 0.35 3.55 2.25 5.55l0.2 0.3q0.5 4.75-0.15 6.1-0.95 2.25-5.1 5.05-4.5 3.1-9.45 4.35l-2.05 0.1q-0.7-0.15-1.5-0.7-1.05-0.7-2.9-1.05l-2-0.4-2.1-1.1q-2.45-1.65-5.2 2.6-1.2 1.2-3.05 1.75-0.4 3.35-2.05 8.8l-0.4 0.4q-1.4 0.45-2.6 1.65-2.2 2.2-3.8 2.65-1.8 0.45-2.9 1-1.9 0.85-3.4 1-1.8 0.15-3.6-0.65-1.6-0.7-4.65-1.25l-5.9-0.65q-0.8 0-1.4-0.55t-0.75-1.35q-0.7-3.45-2.6-6.4-1.8-2.8-3.35-3.2-1.8-0.45-4.6 2.05l-0.6 0.05q-2.3-1.3-4.75-1.75-2-0.35-1.6-2.4 0.25-1.4-0.7-2.55-0.95-1.2-2.9-1.9-2.55-0.85-6.2 0.05l-4.05-0.1-3.05-1.35q-2-1.1-2.85-1.95-0.7-0.7-2-3.85l-1.75-4.3q-0.7-1.6 1-2.65 1.45-0.9 0.85-3.8-0.6-3-2.75-3.25-2.05-0.25-5.05-1.25-2.95 2.4-6.6 2.1-0.5 0.55-1.4 0.65-1.05 0.15-1.95-0.5-1.15-0.85-3.9-1.95-2.25-1-2.5-1.9-0.35-1-2.6-4.25l-3.45-4.65q-0.9-1.1 0.4-2.55l1.65-2.55 0.95-2.85q0.15-0.95-0.85-2.1l-1.65-1.4q-0.35-0.15-1.2 0.3-0.8 0.4-1.55 1.05-0.8 0.8-1.85 0.6l-1.55-0.6q-1.95-0.65-1.65-2.75 0.45-3.4-0.3-8.85-0.25-1.75-1-3.1-1-1.7-2.45-1.85l1.4-1.1q1.45 0.55 2.45 2.4 0.85 1.65 1.05 3.6 0.6 7.15 0.35 8.8v0.95l0.7 0.5 1.1 0.4 1.1-0.3q2.9-2.15 3.95-1.65l2.2 1.8q1.75 1.85 1.55 3.35-0.2 1.4-1.05 3.2-0.85 1.75-1.85 2.9-0.3 0.3-0.3 0.5l0.2 0.45 3.5 4.75q2.15 3.1 2.55 4.25 0.35 1 1.4 1.45l3.95 1.95 1.1 0.35 0.6-0.55 0.55-0.25q3.5 0.45 6.4-2.15l0.55-0.1q2.1 0.9 5.4 1.2 3.25 0.35 4.3 4.5 1 4.1-1.3 5.5-0.6 0.35-0.25 1.1l1.6 3.7q1.1 2.5 1.9 3.3l2.25 1.8 2.35 1.25 1.55 0.45 1.6-0.15q4.1-1.15 6.95-0.1 2.4 0.85 3.7 2.45 1.3 1.65 0.95 3.45-0.2 0.85 0.65 1 1.8 0.15 4.25 1.4 3.05-2.6 5.3-2.05 2.05 0.5 4.3 3.55 2.35 3.2 3.05 6.7 0.15 0.6 0.85 0.65l6 0.8q3.05 0.65 5 1.5 1.6 0.65 2.8 0.7 1.2 0 2.6-0.65l3.35-0.95q1.4-0.4 3.25-2.25 1.3-1.35 2.45-1.75 1.65-5.1 1.95-8.9 0.1-0.5 0.5-0.5 1.85-0.4 3-1.35 3.6-5.5 7.05-3.2l2 1.15 1.75 0.5q1.95 0.3 2.8 0.9l2.75 0.25q4.6-1.15 8.7-3.95 3.75-2.55 4.65-4.6l0.35-2-0.1-2.45q-2-2.25-2.45-6.1-0.3-2.45 0.05-4.3 0.5-2.8 2.5-4.8-2.1-6.45-1.85-8.55-3.25-2.2-7.3-3.5-3.6-1.05-3.3-5.25 0.3-4.45 5.5-6.7l-1.9-6.6q-1.25-3.75-2.65-6.45-0.4-0.75-1.6-0.45-6.95 1.65-8.35-3.15-0.8-2.7-2.45-5.15-1.95-2.9-4.2-4.15-2.55-1.35-4.35 0.55-1.05 1.1-2.1 1.6l-2.9 0.65q-1.65 0.1-3.25 0.95-1.65 0.85-1.8 1.75l-0.25 3.4q-0.25 2.35-1.35 2.95l-3.6-0.2q-2.7-0.8-5.5-2.65l-0.55-0.25q-0.2 0-0.55 0.3l-3.7 2.85q-0.45 0.3-0.55 0.55l0.1 0.7q0.75 2.3 0 4.75-0.85 2.6-2.85 2.9-1.5 0.25-3.25-1.05-1.7-1.3-3.25-3.85-0.15-0.2-0.05-0.55 1.1-2.1 0.9-2.95-0.15-0.6-3.1-2.2-3.25-1.7-6.85-2.85l-3.15-0.3q-1.1 0.3-1.2 1.2-0.05 1.25-1.65 2.05-1.4 0.75-3.1 0.8-1.55 0-2.6-0.8t-1.15-2.1q-0.2-2.05-1.65-2.1t-2.1 1.6q-0.8 1.95-4 2.05l-0.3-1.75 1.9-0.25 0.7-0.85q1.2-3 3.9-2.7 2.65 0.25 2.95 3.7 0.15 1.65 2.4 1.65 1.25 0 2.25-0.5 0.95-0.45 0.95-0.95 0.1-1.7 1.8-2.5 1.85-0.85 4.6 0.05 3.85 1.25 7 3 3.65 2.05 3.8 3.45 0.1 2-0.55 3.35 0.75 1.65 1.9 2.7 1.3 1.1 2.55 0.9 1.1-0.2 1.65-2 0.55-1.85-0.05-3.75-0.6-1.85 1-2.9l3.8-2.85q1.15-1.1 3 0.15 2.55 1.65 4.7 2.25l2.4 0.05q0.5-0.3 0.4-2-0.1-2.35 0.1-3.35 0.2-0.9 2.7-2.3 2.55-1.4 4.4-1.55 1.5-0.15 2.4-0.65l1.65-1.4q1.1-1.15 2.85-1.2 1.65-0.1 3.3 0.85"/>
   <path d="m362.2 272.05q-1.9 1.65-2.3 2.6-0.25 0.65 0.15 1.15 1.4 1.65 1.25 2.6-0.1 0.95-1.75 1.4-4.05 1.1-5.1-0.65l-1.25-0.8-2.15 0.2q-2.2 0.85-3.05 1.4-0.8 0.5-0.85 1.1-0.1 1.4-1.2 1.95-0.95 0.5-3 0.6-1.25 0.05-1.3-0.4t1.25-0.75q2.65-0.55 2.65-1.85 0-1.65 5-3.6l2.9-0.25q1.45 0.25 2.15 1.25l3.45 0.15 0.6-0.5-0.75-1.05q-1-1.2-0.3-2.7 0.55-1.15 2.35-2.75 0.65-0.6 0.9-2.45 0.15-1.4 2.55-2.95 1.85-1.25 4.15-2.05 1.65-0.6 3.55 0.4 2.15 1.05 5.35 1.35 1.55 0.15 1.55 0.65 0 0.45-1.6 0.5-3.8 0.1-5.95-1.05-0.75-0.4-1.1-0.4l-0.95 0.15q-2.6 0.9-4.25 2-1.6 1.05-1.7 1.85-0.2 1.9-1.25 2.9"/>
   <path d="m427.75 255.35q-4.85 1-8.25 4.5-3.45 3.6-5.8 10.3-0.3 0.9-0.15 1.2l0.75 0.5q4.7 1.65 9.65 1.45 5.5-0.2 9.3-2.75 2.35-1.55 2.9-4.3 0.45-2.25-0.35-4.85-1-3.35-3.45-5-2.25-1.55-4.6-1.05m9.75 5.55q1 3.25 0.4 5.95-0.75 3.2-3.75 5.2-4 2.65-10.1 2.85-5.4 0.2-10.25-1.5-1.7-0.55-1.9-1.25-0.15-0.55 0.45-2.55 4.3-13.8 15.05-15.9 3.3-0.65 6.05 1.2 2.85 2 4.05 6"/>
   <path d="m430.25 287.9q1.65 6.15 2.35 10.05 0.75 4 1.15 8.95 0.25 3 4.05 4.8 3.95 1.9 8 0.45 3.6-1.25 5.4-4.3 2-3.5 0.75-8.2-1.1-4.05-7.45-8.05-6.45-4.05-13.05-4.75l-1.2 0.1q-0.2 0.15 0 0.95m15 2.1q7.05 4.25 8.4 9.25 1.5 5.5-0.85 9.6-2.15 3.75-6.5 5.1-4.9 1.55-9.4-0.55-4.55-2.1-4.9-6.25l-1.05-8.8-2.25-10.05q-0.55-2.25-0.1-2.7l3-0.25q6.95 0.65 13.65 4.65"/>
   <path d="m428.15 297.25q1.45-1 3.3-1.7l0.45 2.1q-3.7 1.4-4 2.45-0.25 0.75-0.35 2.35v2.85q0.25 2.3-1.75 3.5l-1.3 0.35q-0.35-0.3 0.55-1.2l0.85-1.15q0.25-0.6 0.15-1.5-0.1-1.25-0.05-3.05 0.05-1.95 0.3-2.85 0.3-1 1.85-2.15"/>
   <path d="m402.5 323.6q1-4.25 3.75-9.65 2.8-5.5 6.7-10.75 1.25-1.65 2-1.6 0.8 0.1 1.75 2.3 5.7 13.25 3.55 23.05-1.35 6.05-7.75 6.05-4.7 0-7.8-3.1-3-2.95-2.2-6.3m11.7-19.4q-7.85 10.75-10 19.8-0.65 2.7 2 4.95 2.6 2.25 6.35 2.25 5 0 6.05-4.65 2-9-3.3-22.05-0.45-1.15-1.1-0.3"/>
   <path d="m122.05 281.3-0.8-3.35 2.7 2.1 0.3 1.85-2.2-0.6"/>
   <path d="m110.45 263.35q-4.35-2.6-9.7-3.4-11.7-1.7-20.35 4.15-8.7 5.8-10.15 16.3-2.05 14.75 4.6 23.85 6.1 8.35 17.55 9.65 7.55 0.9 13.8-1.35 6.6-2.35 10.7-7.9l2.1 0.8q-4.4 6.3-11.7 9-6.85 2.55-15.2 1.55-12.8-1.45-19.3-10.85-6.7-9.65-4.6-24.8 1.55-11.45 10.7-17.85 9.35-6.55 22.2-4.65 5.1 0.7 9.5 3.1l-0.15 2.4"/>
   <path d="m106.05 238.25q3.1 10 5 24.15l-1.95-0.75q-2.05-14.65-4.8-23.85-6.3 8.95-10.95 20.85l-2.05 0.1q4.8-11.9 11.15-21 1.6-2.2 2.25-2.05 0.6 0.1 1.35 2.55"/>
   <path d="m73.35 269.9q-9.6-4.05-14.1-6.45-1.7-0.9-3.5 0.2-1.55 1-2.75 3.15-1.4 2.55-1.3 4.7 0.1 2.45 2.25 3.7 8.7 5.15 15 8.2l-0.1 2.5q-5.5-2.7-15.9-8.85-2.65-1.55-3.1-4.65-0.4-3.15 1.55-6.65 1.6-2.95 4-4.15t4.7 0q6.45 3.4 14.35 6.6l-1.1 1.7"/>
   <path d="m62.45 240q2.85 3.55 4.35 7.95t1.45 8.9q0 4.7-1.4 9l-1.95-0.8q1.3-3.9 1.35-8.3 0.1-8.5-4.8-14.85l1-1.9"/>
   <path d="m43.7 233.2q-10.5 0-16.9 6.65-6.35 6.55-6.25 16.85 0.1 10.95 6.25 17.4 6.25 6.5 16.85 6.5 6.45 0 11.75-3.25l2 1.2q-5.85 3.9-13.65 4.05-11.25 0.15-18.2-6.8-7.1-7.1-7.05-19.1 0.1-11.45 7.15-18.55 7-7 18.1-7l5.05 0.5-1.2 1.9-3.9-0.35"/>
   <path d="m63.7 218.5q1.15 5.75 0.75 12.9-0.4 6.65-1.85 10.45-0.45 1.1-1.3 1.55l-2.5 0.35q-3.35 0-6.7-1.5-3.65-1.65-5.35-4.4-0.55-0.8-0.55-2-0.05-1.05 0.35-1.95 5.05-10.05 13.8-16.6 1.55-1.15 2.3-0.9 0.7 0.25 1.05 2.1m-15.15 18.3q1.25 2 4.55 3.55 3.05 1.4 5.7 1.4 1.75 0 2.25-1.2 1.35-3.3 1.75-10.2 0.4-7.25-0.7-12.5-8.3 6.1-13.75 16.75-0.5 1 0.2 2.2"/>
   <path d="m21.3 212.85q-1-1-2.75-1.2-2-0.2-3.35 0.75-1.65 1.15-2.1 3.9-1.1 7.05 0.95 15 2.25 8.7 7.55 14.8l-0.8 2.2q-6-6.5-8.6-16.15-2.4-8.7-1.2-16.2 0.5-3.2 2.7-4.85 2.1-1.6 5.05-1.25 2.5 0.25 4.05 1.85 1.65 1.7 1.45 4.1-0.45 6.5 1.05 11 1.5 4.55 5.5 8.6l-1.55 1.15q-4.1-4.05-5.8-9.05-1.7-5.05-1.2-11.75 0.15-1.8-0.95-2.9"/>
   <path d="m7.9 185q-6.2 6.55-5.9 15.15 0.2 6.3 2.95 11.25 2.55 4.55 6.9 7.4l-0.05 2.1q-5.15-3.05-8.25-8.25-3.3-5.6-3.55-12.55-0.25-9.3 6.55-16.4 6.85-7.15 16.4-7.1 4.8 0.05 9.45 2.35 4.7 2.3 8.05 6.35l-2.1 0.3q-3-3.3-7.1-5.2-4.05-1.8-8.35-1.9-8.7-0.15-15 6.5"/>
   <path d="m44.75 193.15q1.15 3.55 1.15 7.4 0 8.8-6.35 16-6.65 7.55-15.9 7.65l-0.35-1.8q8.95-0.25 14.95-7.2 5.65-6.5 5.65-14.7 0-3.1-0.65-5.65l1.5-1.7"/>
   <path d="m29.85 187.8q-4.75 1.35-4.05 6.85 0.5 3.65 3.05 5.8 2.7 2.25 5.65 0.7 3.35-1.75 7.35-6.25 3.35-3.8 6.45-8.6-3.15-0.45-8.6-0.05-5.75 0.4-9.85 1.55m7.85-3.05q4.55-0.3 9.55 0.05 2.3 0.15 2.65 0.75 0.3 0.55-0.8 2.35-2.95 4.9-6.55 8.8-3.9 4.25-7.45 6.05-3.65 1.8-7.05-0.7-3.3-2.45-3.95-7.25-0.45-3.15 0.85-5.45 1.4-2.45 4.45-3.3 3.5-1 8.3-1.3"/>
   <path d="m37.7 183.75q3.55-4.1 6.1-6.35 1.95-1.75 0.05-4-1-1.3-2.35-1.6-1.4-0.35-2.6 0.55-2.6 1.95-7.8 7.05l-1.85-0.85q6.8-6.5 8.6-7.85 1.55-1.15 3.7-0.75 2.15 0.45 3.65 2.3 1.35 1.7 1.25 3.45-0.05 1.8-1.5 2.95-2.55 2.1-6 6.35l-1.25-1.25"/>
   <path d="m35.65 173.7q-0.5-2.1-0.6-4.4-0.4-8.4 5.6-14.5 5.85-5.95 13.85-5.95 6.2 0 11.25 3.65 4.85 3.55 6.9 9.25l-2.4-1.05q-2.25-4.5-6.35-7.25-4.35-2.85-9.4-2.85-7.1 0-12.5 5.35-5.65 5.6-5.25 13.25 0.1 1.75 0.35 3.15l-1.45 1.35"/>
   <path d="m43.1 185.4-2.95-2.9 0.95-1.35q1.85 2.45 4.5 4.15l-2.5 0.1"/>
   <path d="m48.75 186.9q2.9 1.1 6 1 6.5-0.2 11.1-4.15 4.5-3.85 5.8-10.2l1.8-0.45q-1.25 6.95-6.05 11.4-5.1 4.8-12.7 5-3.25 0.15-6.65-1.2l0.7-1.4"/>
   <path d="m76.75 156.75q0.95-6.1 5.05-9.65 4.05-3.5 9.9-3.5 6.4 0 10.9 4.35 4.5 4.3 4.65 10.65 0 3.45-0.9 6.15l-1.2-2.2q0.45-1.85 0.35-3.9-0.1-5.75-4.1-9.55t-9.75-3.8q-5.35 0-8.9 3.05-3.5 3.05-4.35 8.35l-1.65 0.05"/>
   <path d="m77.2 164.8-0.45-1.95 1.65-0.2q0.3 1.9 1.05 3.5l-2.25-1.35"/>
   <path d="m91.85 175.45q-7.25 0.15-11.7-5.15l1.35-0.9q3.9 4.5 10.35 4.5 4.3 0 7.5-2.15l1.75 0.7q-3.9 2.95-9.25 3"/>
   <path d="m73.8 162.45 7.65-1.05q2.15-0.25 1.9-2.25-0.15-2.15-2.2-1.95l-11.15 1.45-0.95-1.55 12.05-1.45q1.6-0.1 2.65 0.85t1.2 2.65q0.15 1.35-0.65 2.4-0.95 1.25-2.75 1.4l-5.95 0.7-1.8-1.2"/>
   <path d="m105.95 165.3q-1.8-3.3-3.25-4.25-1.95-1.3-3.9-0.9-1.8 0.4-3.1 2.1-1.5 2-1.15 4.2 0.35 2.35 2.65 3.45l5.4 2.05 6.55 1.15q-1.4-4.4-3.2-7.8m1.65-0.15q1.95 3.85 3.3 8.4 0.25 0.8 0.1 1.05l-0.8 0.15-7.5-1.2q-3.2-0.75-6.2-2.15-2.9-1.35-3.55-4.45-0.6-3.1 1.4-5.65 1.75-2.3 4.4-2.8 2.6-0.5 4.8 1.05 1.85 1.25 4.05 5.6"/>
   <path d="m106.3 157.6q7.15 2.25 10.95 4.35 1.3 0.75 1.8 2.1 0.45 1.45-0.2 2.8-0.65 1.3-1.9 1.6l-2.35-0.25q-5.95-2.45-8.15-3.2l-0.55-1.75q3.95 1.25 9.15 3.5l1.45 0.15q0.7-0.2 0.95-0.75 0.35-0.75 0.15-1.5-0.25-0.9-1.15-1.4-3.4-2-10-3.85l-0.15-1.8"/>
   <path d="m112.5 166.5-0.05 0.85q0.15 6.2 3.95 9.85 3.55 3.4 8.85 3.4 3.6 0 6.55-1.9l1.3 1q-3.4 2.25-7.8 2.25-6.4 0-10.3-3.9-3.95-3.9-4.1-10.65l0.1-1.45 1.5 0.55"/>
   <path d="m112.55 160.5q1.7-3.35 4.75-5.35 3.4-2.2 7.85-2.2 5.8 0 9.75 3.95 4 4.1 4.05 10.55 0.05 2.85-0.8 5.45l-1.25-1.6q0.5-1.8 0.5-4-0.05-5.25-3.3-8.85-3.5-3.8-9-3.85-3.85-0.05-6.85 1.85-2.75 1.7-4.35 4.65l-1.35-0.6"/>
   <path d="m132.3 172q-1.5 1-1.55 2.9-0.1 2 1.55 3.25 3.55 2.75 8.9 3.65-1.6-5.6-4.05-9-0.9-1.15-2.2-1.4-1.35-0.25-2.65 0.6m6.05-0.15q1.4 2 2.35 4.2l1.6 4.5q0.55 1.9 0.2 2.35l-2.4 0.1q-5.6-1.25-8.75-3.75-2.3-1.8-2.2-4.5 0.15-2.6 2.3-4 1.7-1.1 3.7-0.85 2.05 0.25 3.2 1.95"/>
   <path d="m127.85 367.2-1.3 1.75-0.2-3.15q-0.05-0.55-0.4-0.2-1.45 1.2-2.4 3.3-0.95 1.95-1.05 3.85l-1.45 2.75q-0.55-2.9 0.65-6 1.1-2.9 3.3-4.95 1.25-1.2 1.9-1.1 0.55 0.15 0.8 1.55l0.15 2.2"/>
   <path d="m151.55 377.4q1.15-4.2 1.75-8.15 0.25-1.5 0.75-1.4 0.55 0.1 0.35 1.6-0.5 4.55-1.75 8.2-0.5 1.45-1 1.35t-0.1-1.6"/>
   <path d="m65.3 160.45q-3 0-4.65 2.05-1.45 1.75-1.45 4.4 0 2.75 1.4 4.55 1.65 2.15 4.95 2.15 3.5 0 8.45-1.65 4.5-1.5 7.25-3.25-4.05-3.65-8.5-5.95t-7.45-2.3m8.05 0.85q4.2 2.2 8.15 5.6 1.55 1.3 1.45 2-0.15 0.7-2.25 1.85-3.35 1.75-7.3 3.05-4.55 1.45-7.8 1.5-3.85 0.05-6-2.45-2-2.3-2-5.95 0-3.4 2-5.65 2.15-2.45 5.8-2.45 3.2 0 7.95 2.5"/>
  </g>
 </g>
</svg>
