<?xml version="1.0" encoding="UTF-8"?>
<svg version="1.1" viewBox="0 0 690.31 575.5" xmlns="http://www.w3.org/2000/svg">
 <g transform="matrix(1.4 0 0 1.4 .0033334 .007)">
  <path d="m446.55 221.65 6.5 2.65 6.35 2.85q0.65 0.45 6.45 9.4l7.45 11.9q-2.4-0.3-7.1 2.5-0.9 0.6-2.15 2.3-1.05 1.55-1.85 3.2l-6.5-9.15-7.25-9.9-2.35-1.75-2.3-1.35q-0.25-0.15-1.85-0.75-1.25-0.5-1.65-1.1-0.85-1.3-0.1-5.4 0.45-2.05 3-4.5 0.8-0.7 1.75-0.95l1.6 0.05" fill="#efefef"/>
  <path d="m328.85 91.1 7.5 6.4 21.75 20.5 12.1 10.9q9.4 8.25 13.25 11 4.85 3.35 12.85 9.45l14.65 11.65 21.9 18.8q16.3 14.2 21 19.2 0.95-5 0-20.05-0.9-13.7-0.75-13.7 0.45 0 4.9 10.15 4.5 10.2 6.85 16.6 2.2 6.05 4.2 14.2 1.8 7.25 2.65 12.7 0.8 4.9 2 15.55 1.15 10.6 1.2 13.95l-3.55 0.25q-4.9-6.15-9.4-10.9-5.1-5.4-24.6-17.85-7.1-4.55-15.15-10.25-8.5-6-11.75-8.9-2.85-2.55-33.55-19.85l-32.2-17.9q-1.65-0.85-7.35-3.05l-11.9-4.45q-10.75-4.05-51.1-34.85-14.55-11.1-25.45-21-9.3-8.4-8.7-8.9 0.45-0.35 7.45 2.55 6.75 2.75 11.55 5.2 6.15 3.15 20.4 9.5-4.9-8.35-8.5-16-2.5-5.2-4.05-10.3-1.35-4.6-0.85-4.8 0.45-0.2 9.45 7.15 8.75 7.1 11.7 9.95l10.85 9.75q8.15 7.15 8.5 6.9 0.3-0.25-2.3-5.85l-4.05-8.4q-1.7-3.5-4.25-9.6-2.75-6.7-2.5-7.05t8.3 6.45l11.05 9.55 11 9.7q8 6.95 8.25 6.8 0.2-0.1-1.95-4.55-2.85-5.9-4.3-9.8-1.9-5-2.45-7.85-0.45-2.45 0.1-2.65 0.4-0.15 5.25 3.7" fill="#efefef"/>
  <path d="m364.85 125.9-20-18.65-12.85-11.95q-6.3-5.8-8.05-6.8 0.2 1.85 2.75 8.05l6 13.15q2.3 4.75 1.7 5.25-0.6 0.55-4.5-3l-20.65-18.4q-11.2-9.8-14.55-12.1 2 6 12.35 26.75 2.75 5.55 2.15 5.85t-5.05-3.75q-12.45-11.4-22.3-20.05-12.1-10.6-14.9-12.2 0.2 2.95 5.15 13.6 5.05 10.9 9 16.5l-1.2-0.1-1.6-0.65q-4.2-5.95-9.35-17.6-5.5-12.6-3.65-14.05 0.75-0.6 4 1.8 5.05 3.7 19.35 16.45l16.2 14.5-2.25-5-2.75-6.1q-5.5-11.6-7-15.8-1.05-2.95-0.4-3.45 0.7-0.5 3.9 2.1l18.7 16.15 15.8 13.85q-5.55-10.85-7.75-17.7-1.8-5.65-0.8-6.45 1.05-0.9 5.45 2.65 4.8 3.85 18.7 17 26.65 25.15 37.4 32.65 13.8 9.5 36.8 28.6 25.55 21.15 32.45 29.9 0.35-5.45 0.1-13.3t-1-15.1q-0.55-5.6 0.15-5.9 0.8-0.3 3.25 4.95 11.15 23.85 15.5 41.2 2 7.95 3.15 18.95 0.9 8.45 1.45 20.9l-1.75-0.35q-0.95-21.7-5.3-39.05-2.8-11.1-7.55-23.8-3.65-9.9-7.25-17.55 0.8 7.8 1.25 15.75 0.45 8.9 0.15 14.25-0.2 3.2-0.85 3.35-0.6 0.15-2.55-2.25-7.05-8.6-32.15-29.45-23.35-19.45-37.4-29.15-6.1-4.2-17.45-14.45" fill="#0f141b"/>
  <path d="m344.1 163.75q-3.15-1.6-8.8-3.4-7.05-2.3-11.65-4.5-8.1-3.75-17.85-10.5-23.55-16.35-47.55-36.2l-15.3-13.2q-4.05-3.7-5.2-5.3-0.7-1-0.3-1.5 0.95-1.2 9.15 2.25 10.75 4.45 31.9 15.15 17.85 9.05 21.2 11.1 2.2 1.3 2.05 1.75-0.2 0.45-2.5-0.65l-36.95-17.7q-16.3-7.8-20.2-8.9 5.3 5.55 22.85 19.55 20.9 16.7 42.5 31.7 10 6.9 17.2 10.65 5.5 2.8 11.2 4.65 5.95 1.95 9 3.5 0.45 0.25-0.75 1.55" fill="#0f141b"/>
  <g fill="#efefef">
   <path d="m125.45 225.9-1.15-4.85q5.9 2.95 18.65 14.65l16.85-1.15q2.4 0 8.65 3.85 1.8-3.2 6.25-9.35l7-9.65 11.55 6.8 12.6 7.65q4.45 2.9 10.45 5.65 5.45 2.55 9.75 3.85l-1.85 10.6-44.55 89.25q-6.95 7.45-17.95 14.8-9.7 6.45-18.25 10.15l2.6-9.35q-3.65 3.3-10.4 7.2-5.7 3.3-9.5 4.8 0.2-4 2.25-13.15 1.95-8.65 4.25-16.5-4.65 5.5-14.95 10.8 0.25-5.7 4.2-14.3 3.45-7.55 7.05-11.95-3.25-3.15-10.5-5.05-2.15-0.6-4.05-1.9-1.65-1.2-2.6-2.55-2.65-3.75-7.65-9.95-5.85-7.3-9.35-10.85l-2.1-2.3q-0.9-1.25-1.4-2.95l-2.45-6.6-3.45-8.75-3.25-3.8-3.35-3.35q-1.3-1.1-12.05-6.9l-16.45-8.85-9.65 3.15-1.9 0.45q-0.9-0.05-1.95-0.8-0.9-0.6-4.05-4.5l-5.1-6.25q-4.5-5.1-14.5-12.8 5.75-0.25 15.8 3.65-8.85-9.15-28.15-15.9 8.65-1.05 20 2.6 9.1 2.9 18.4 8.2 8.1 4.65 17.1 6.85 2.15-1.3 3.7-1.4 1.75-0.1 3.95 1.15 2.9 1.65 14.2 4.4l6.15 0.55 5-0.8 6.25-1.55 7.35-1.6q-1.45-4-2.95-8.9l-2.4-7.7q3.75 1 9.5 4.35-2.85-7.55-9.25-19.85 5.5 2.85 14.5 9.65 8.5 6.4 13.15 11.05"/>
   <path d="m436.65 214.65q-2.75 1-4.6 5.75-1.9 4.8-0.7 8.3l-7.75-3.6q0.05-4 1.2-8.2 1.05-3.7 2.65-6.55 4.3 2.75 9.2 4.3"/>
   <path d="m474.55 273.25-3.1-2.15q-1.25-0.7-2.1-3.35-0.75-2.45-0.65-4.55 0.15-1.8 2.6-3.55 2.3-1.7 4.55-2 2.75-0.35 6.55 1.8 3.55 2 6.65 5.5 1.95 2.25 1.55 5.15l-16.05 3.15"/>
  </g>
  <path d="m413.9 275.85q2.45 19.8-2.45 30.15-7.75 16.35-29.65 23.5-21.5 6.95-43.35 1-2.6 4-10.75 8.1-8.5 4.2-16.35 5.05 0.2 7.25-3.85 12.1-3.15 3.8-9.2 6.45-0.1 3.85-0.55 6.35-0.45 2.9-1.6 5.85l-17.35 20.4-4.6 0.45q-3.05 0.7-5.55 2.7l-8.75-11q0.75-3.35 4.15-6.9 3.1-3.25 7.15-5.4 3.05-1.55 3.5-3.5 0.4-1.5 1.7-4.25-2.5-3.45-4.8-9.8-2.6-7.2-1.9-10.8 0.75-4 4.8-8.55 4.05-4.7 8.8-6.8-3.95-5.7-3.6-14.15 0.35-8 4.4-16.85 8.8-19.15 26.1-28.8l39.15-10.2q3.4-1.9 6.55-4.65 3.05-2.65 3.55-4.05 0.45-1.35 0.15-4.2-0.35-2.9-1.35-6.25l4.45 4.7 3.2 3.95 1.5 1.3q0.7 0.25 1.5-0.35 1.45-1.1 0.7-4.3-0.75-3.25-1.7-13.9 7.25 9.35 19.3 18.05l1.6 1.4q0.6 0.95 0.7 3l-0.05 6.55-0.55 7.4 7.15-11.15q5.25-7.7 7.9-9.5 1.15-0.85 2.1 0.45 5.55 8.05 7.85 26.45" fill="#b5b5b0"/>
  <path d="m405.8 29.55q3 3.9 4.7 8.25 1.4 3.6 2.25 8.35 0.65 3.85 2.7 7.2l4.7 6.35 6.15 5.2q4.45 3.65 6 6.05l8.85 13.05q6.5 9.95 8.1 15.4 1.2 4.2 1.5 10.25 0.35 6.85-0.95 10.3 1.25 1.4 1.95 3.25 0.7 1.8 0.4 2.75-0.35 0.95-3.5 2.7-3.2 1.8-5.85 2.4l-2.6-0.7-0.7-3.15-0.7-3.8-3.6-3.25q-2-17.25-4.35-26l-2.2-1.75-6.8-7.7q-3.7-4.3-6.55-8.25l-4.05-5.8q-1.7-2.9-2.55-6.25-0.7-3.15-2.7-4.85-1.4-1.2-5.05-2.75-8.9-2.55-13.85-5-8.6-4.25-18.65-16.25-5.55-6.65-12.95-10.15-4.05-1.9-13.8-4.6 3.4-1.2 5.55-1.65 3.55-0.7 6.7-0.1-2.8-4.2-9.65-8-4.05-2.2-12.4-5.6l17.5-0.7q10.8 0.65 18.9 3.45-2.45-3.65-10.55-7.5 14.4 1.95 22.45 5.95 13.15 6.5 25.6 22.9" fill="#efefef"/>
  <path d="m411.95 107.6 1.85-2.45q0.6 1.1 2.8 2.65l3.25 2.05q4.15 2.45 9.6 6.3 6.8 4.75 9.85 7.75 0 2.85 0.9 6.45l-10.9-3.25q-3.15-1.05-4.75-3.25-7.55-10.25-12.6-16.25" fill="#efefef"/>
  <path d="m422.25 111.1q7.2 4.45 11.8 8.25-1.65 0.85-3.7 1-2.3 0.25-3.9-0.55-1.8-0.85-3-3.2-1.25-2.5-1.2-5.5" fill="#fdd23f"/>
  <path d="m273.5 167.9q-10.5-6.85-10.3-8.25 0.2-1.05 13.05-0.8l19.2 1.1q-1.45 2-1.75 5.45-0.15 2.25-2.55 13-8.1-4.25-17.65-10.5" fill="#e6e6e6"/>
  <path d="m283.7 215.05 5.35 8.25-10-1.75-1.25-1.35q-0.9-0.8-1.65-1.15-1.7-0.85-6.05-4.5l-7.7-6.65q3.1-0.95 10.95-2.6l11.55-2.4-2.1 7.75q-0.4 1.4-0.15 2.4l1.05 2" fill="#e6e6e6"/>
  <path d="m416.5 82.55 14.35 11.6q1.15 4.6 2.65 13.6 1.45 8.7 1.7 12.4-3.9-3.15-9-6.5-5-3.3-8.5-5.1-2.25-1.15-4.5-3.85-1.65-2-4.2-3.2-2.9-1.3-6.2-1.2l-4.85-0.4q-2-0.7-3.65-0.7-1.9 0-3.9-1.3-5.4-3.55-15.1-9.35-1.9-1.1-3.1-4.9-1.2-3.9-4-6.7l-10.7-10.2-13.85-13.45q-1.9-1.9-2.2-4.15l-0.25-4.25q-0.05-1.35 0.45-1.5 0.45-0.15 1.75 0.8 3.4 2.65 12.8 9.1l-7.9-10.75-6.15-8.25q-1.2-1.7-1.1-2.65l0.4-3.5q11.85 9.7 22.75 17.25 14.6 10.05 25.25 14.6 5.95 2.55 12.25 9.15 5.15 5.3 14.8 13.4" fill="#dbe7ed"/>
  <g fill="#fff">
   <path d="m425.25 124.8 1.75-1.7q1.05-0.85 1.4-0.8 0.4 0.1 0.85 1.6l0.7 3.05-2.4-0.7q-1.45-0.65-2.3-1.45"/>
   <path d="m430.35 127.35q2.6-3.85 3.35-3.6 0.4 0.15 0.85 1.8l0.45 3.15q-1.05-0.05-4.65-1.35"/>
   <path d="m426.85 113.95 4.65 3.55q-2.35 2.25-4.25 0.95-2-1.35-0.4-4.5"/>
   <path d="m483.35 270.2q0.5 4.7-2.6 11-2.7 5.5-5.55 7.8l-0.25-10.05-0.65-7.65q-0.35-1.95 1-3.55 1.35-1.65 3.3-1.75 1.95-0.05 3.25 1.05 1.3 1.15 1.5 3.15"/>
   <path d="m485.2 278.05q-0.9 4.85-3 10-1.8 4.5-3.5 6.85-1.3-5.3-1.7-7.7 3.5-4.4 5.45-9.55l2.75 0.4"/>
   <path d="m483.55 273.45v-2l3.55-2.8q1.75-1.1 2.95 1 2.35 4.25 2.4 10.45 0.1 5.3-1.35 9.15-3.8-9.4-7.55-15.8"/>
   <path d="m429.8 376.35q6.9 2.7 11.7 9.25 4.45 6.1 4.35 11.25-4.1-2.85-10.2-5.7-5.45-2.55-9.95-3.95-0.95-3.65 0.35-6.85 1.25-3 3.75-4"/>
   <path d="m459.1 375.45q3.2 0.55 6.45 4.3 2.95 3.4 3.85 6.7 0.8 2.95-1.95 1.7-0.95-0.4-2.85-0.9l-2.75-0.5q-0.4-3.8-2.75-11.3"/>
   <path d="m304.6 379.3q6.75 1.6 11.05 8.1t3.85 14.25q-0.05 1.05-0.55 1.2t-1.05-0.7q-2-2.8-6-5.25-3.8-2.3-6.95-2.8 0.3-9.45-0.35-14.8"/>
   <path d="m257.95 392.05q2.95-9.75 6.55-10.1 2.65-0.3 4.15 3.9 1.45 4.1 0.75 9.15-0.4 2.9-3.05 4.15-4.2 2.1-8.6 7.7-1.05 1.35-1.6 1.3-0.55-0.1-0.6-1.3-0.2-6.1 2.4-14.8"/>
  </g>
  <g fill="#dbe7ed">
   <path d="m399.65 130.55q-2.25-0.05-6.5-3.95-3.8-3.55-4.9-5.8-0.65-1.35-0.6-3 0.05-1.7 0.8-2.05 3.1-1.5 10.25-4.1 6-2.2 11.1-3.85l1.75-0.1q0.65 0.2 1.4 1.2l7.15 9.3q5 6.65 5.95 7.35 1.65 1.3 11.5 4l11.95 3.15-19.95 7.25-1.9 0.55q-0.75 0-1.75-0.55-2.5-1.35-11.75-4.55l-14.5-4.85"/>
   <path d="m392.9 156.4 9.5 6q6.7 4.15 10.25 5.55 3.45 1.4 13.45 12.2 7.35 8 14.45 16.75 1.15 1.4 0.6 2.45-0.5 0.95-2.25 1.3-4.9 0.95-9.1 6-4 4.85-5.15 10.75-5.85-13.75-17.25-25.5-7.85-8.1-17.85-14.75-1.55-3.75-2.35-9.05-0.75-5.4-0.4-9.8 1.6-1.65 2.9-2.4 0.75-0.45 1.45-0.3 0.65 0.1 1.75 0.8"/>
   <path d="m355.8 189.05-12.25-0.35q-7.4 1.2-9.15 3.55-4.8 3.6-11.25 11.35-3.55 4.25-9.2 11.85-0.95 1.35-2.1 1.85l-2.4 0.45-12.55-1-11.7-2.1q-3.4-0.7-2.4-4 3-10.2 6.35-24.15 3.8-15.85 4.65-22.5 0.3-2.7 2.4-4.4l2.6-2.95 2.65-4.15q1.25-2.15 3.25-1.5 9.7 3.25 26.15 10.8 14.65 6.65 26 12.7 6.7 3.6 14.6 12.4 7.45 8.35 11 15.6-18.7-10.85-26.65-13.45"/>
   <path d="m334.4 192.25q2.85-2.7 9.45-3.5 5.9-0.75 11.95 0.3 3.5 3.5 5.05 11.55 1.45 7.55 0.45 14.85-0.65 4.7-4.8 7-4.15 2.35-10.45 1.6l-8.4 8.85q-4.35 4.15-10.7 3.8l2.75-2.45q0.75-0.75 0.15-1.25l-1.45-1-0.85-0.4-1.35 0.15q-1.65 0.55-5.45 2.25-3.85 1.7-5.95 2.8l-5.65-3.65q0.45-2.1 1.8-5.85 1.2-3.55 1.75-4.5l4.5-5.35 5.2-5.9q2.8-3.2 5.4-4.85l1.7-1.1q0.6-0.5 0.95-1.7l1.45-4.7q1.3-3.95 2.5-6.95"/>
   <path d="m325.45 241.1 7.5 0.45q2.25 0.75 3.45 3.9 0.4 1.1 0.95 1.75l1.2 1.25 5.9 5.8q2.95 3.25 3.75 4.7 1.3 2.25 4 4.05 3.5 2.35 6.45 5.75 2.1 0.5 4.5 3-1.55-0.75-3.05-0.5-1.3 0.25-1.7 1-0.9 2-0.05 5.2 0.9 3.25 2.85 4.45l0.5 1.6-4.5-0.1q-2.25 0.8-3.6 3.35-0.75-2.85-2.15-5.4-1.65-3.05-3.1-3-2.15 0.05-3.1 3.8-0.9 3.6 0.1 6.1-2.65-2.1-4.95-5.6-1.75-2.55-5-4.1-3.1-1.4-8.05-5.8-4.45-4-7.95-8.1-8.1 1.4-15.9 0.2-9.4-1.45-16.05-6.45-2.7-2.1-5.2-3.05-1.85-0.7-5.8-1.45l-37.55-7.25q-9.65-1.8-16.25-4.25-7.55-2.85-17.7-8.9-30.6-18.4-42.75-24.1l-1.8-1.15q-0.65-0.6-1-1.6l-4.25-9.75q3.8 0.2 14.05 4.1 7.2 2.7 13.6 5.65-5.25-6.9-18.35-15.55-10.6-7-21.3-12.05-1.45-0.7-2.2-1.45-0.8-0.8-1.15-2.05-6.35-21.55-8.35-25.85-1.35-3.05-6.4-10.1-4.7-6.65-8.55-11.2-3.75-4.35-6.65-9.5-0.65-1.1-0.15-1.55l1.75-0.1q30.4 8.55 68.45 29.85 34.8 19.4 60.8 40.65l19.35 17.45q13 11.95 18.15 15.25 1.25 0.8 5.25 6.2l5.2 6.8q1.55 1.5 6.5 3.7 4.25 1.9 7.9 3l-2.4-2.55q-1.05-1.05 0-1.7l2.35-1.45q1.7-1.05 3.35-1.85 0.6-0.3 1.1-0.25l1.7 0.8q8.85 6.6 13.65 6.6 1.6 0 2.65 1.35"/>
   <path d="m348.35 278.35q2.9 0.05 5.2 8.6 2.2 8.2 1.55 14.55-2.35-2.35-5.3-6.3-3-4.1-4.45-6.95-1.4-2.75-0.2-6.4 1.15-3.55 3.2-3.5"/>
   <path d="m354.15 288.85-0.55-2.1q1.05-2.1 3.1-3.15 2.25-1.1 4.9-0.45 1.45 4.7 3.5 14.1-4.4-2.05-10.95-8.4"/>
   <path d="m358.55 271.85q1.4-1.1 3.75-0.3 2.45 0.8 4.9 3.4 6.05 6.55 7.5 18.4l-6.75-5.85-6.5-5.5q-2.45-2.15-3.4-5.6-0.95-3.4 0.5-4.55"/>
   <path d="m329.45 274.55q2.5 2.8 7.2 9.3 4.65 6.5 5.15 7.8 0.45 1.1-2.3 16.45l-4.1 21.55q-1.95 10.15-11.1 27.85-0.6 1.25-1.25 1.05-0.6-0.2-0.65-1.5-0.4-7.8 0.2-28.3 2.9-1.8 3.5-9.35 0.3-3.95 0-15.75-0.2-6.9-3.6-12.15-3.65-5.65-11.8-10.75l-0.85-15.6h4.8l4.75-0.5q2.6 3.3 10.05 9.9"/>
   <path d="m411.4 263.2 2 0.15q1.15 0.25 2.65 1.2 9 5.6 19.55 13.55 12.15 9.15 13.8 12.3 1.8 3.4 2.8 13.5 1 10.05-0.15 13.55-1.1 3.4-7.25 11.9-5.95 8.15-10.65 12.95 3.9-22.25 2.9-29.75-0.85-6.5-7.2-13.25-4.7-4.95-11.15-8.9-2-1.25-4.05-1.2 0.25-6.6-0.55-13.35-0.9-7.1-2.7-12.65"/>
   <path d="m400.8 350.05q-0.4-1.4-0.1-2.5 0.35-1.15 1.25-1.25 1 1.4 7.35 7.1 6.65 5.95 8.9 8.8 1.05 1.35 3.45 1.9 7.65 1.65 15.9 4 2.4 0.65 4.15-0.8 2-1.65 1.65-5.1-0.75-7.4-2.8-12.2-0.5-1.1-0.15-1.7 0.45-0.6 1.5 0.2 7.7 5.85 13.9 18.75 6.25 13.05 6.25 23.65 0 1.45-1.6 0.8-3.5-1.35-8.45-2.65-6-1.55-9.15-1.6-3.35-5.4-9.15-9.1-6.75-4.3-14.1-4.15-6.35 0.1-9.8-5-2.55-3.75-5.35-9.9-2.4-5.3-3.65-9.25"/>
   <path d="m279.1 395.25q-0.35-0.7-0.3-1.8 0.4-7.45 4-20.9 3.5-13 6.1-17.6 0.6-1.1 1.25-1.05 0.6 0.05 0.9 1.3 3.15 13.7 5.1 19.2 1.9-6 2.05-10.7 0-1.4 0.5-1.65 0.45-0.25 1.25 0.75 4.15 5.1 5.1 21.05 0.9 15.5-1.95 24.6-0.75 2.55-2.9 1.5-4.45-2.25-10.7-6.45-6.2-4.15-9.3-6.95l-1.1-1.3"/>
  </g>
  <path d="m435.65 97.6q-0.45-1.25-1.4-2.1l-2.55-1.65q-1.95-5.2-8.15-24.95-0.4-1.3 0.1-1.55t1.2 0.5q4.5 4.75 13.05 16.45 8.4 11.45 9.35 13.9 0.9 2.25 0.4 11.15-0.5 8.75-1.2 8.75l-1.65-0.85-2-1.6q-3.8-8.1-7.15-18.05" fill="#fdd23f"/>
  <path d="m402.95 110q-3.7 1.35-10.9 4.4 0.4-1.35 2.8-5.4-7 1.95-11.75 4.4 1.9-3.45 7.3-7.4 2.4-1.8 8.55-5.65l6.35 0.1q2.05-0.05 4.55 1.45 2.45 1.45 4.1 3.6l-2 2.1q-2.55 0.05-9 2.4" fill="#b5b5b0"/>
  <path d="m402.1 137.6q0.8-2.6 2.35-5.25l17.45 5.9q-5.2 3.5-14.6 20.25-0.75-5.45 0.15-13.5-2.05 2.2-5.5 3.75 1.45-5.25 4.65-11.3l-4.5 0.15" fill="#efefef"/>
  <g fill="#b5b5b0">
   <path d="m387.9 119.8q0.45 3.1 8.65 9.6 1.2 0.95 3.75 1.8l4.15 1.15-0.85 1.8q-7.15 5.05-10.85 9.7-4.8 6.15-5.9 14.05-2 13.8 9.25 34.5-7.6-2.9-14.9-9.05-8.1-6.85-10.55-13.7-3.1-8.8 1.4-23.85 4.95-16.6 15.85-26"/>
   <path d="m450.3 222.95-2.95-1.3q-2.2-0.85-3.7 0.3-1.4 1.05-2.45 3.3-1.2 2.45-1.25 5.1 0 1.4 0.95 2.45l2.15 1.55q-0.65 0.65-1.95 0.5-1.05-0.1-2-0.6l-4.5-1.9q-3.25-1.55-3.65-5.2-0.35-3.45 0.95-6.65 1.1-2.75 3.15-4.75 1.35-1.3 3.3-1.45 2-0.2 3.6 0.9 2.35 1.55 6.6 3.5 2.05 0.95 1.75 4.25"/>
   <path d="m482.85 259.7q-2.3-1.35-4.1-1.8l-3.8-0.2q-1.55 0.25-3.45 1.7-2.15 1.55-2.55 3.15-0.5 2.15 0.45 5.4-1.6 0.2-3.3-1.6-1.8-2.15-3.3-4.75l-0.9-1.95q-0.3-1 0-2.15 0.85-3.65 4.15-6.3 3.2-2.6 6.95-2.9 1.9-0.15 3.15 0.55 1.15 0.55 2.1 1.95l4.15 5.8q0.6 0.8 0.7 1.55l-0.25 1.55"/>
   <path d="m405.1 209.6q4.75 4.4 11.2 17.6 0.65 4.75-1.15 11.15-0.85 3.1-3.7 10.3-1.15 2.95-0.65 6.5 0.4 3.3 0 5.9-1.4-4.7-3.15-8.6-1.8-3.95-2.6-4.05-1.1-0.15-4.35 3.85-2.7 3.3-4.6 6.4l0.45-5.65q0.05-2.75-0.45-5.25-0.55-2.95-3.9-9-3.55-6.4-6.85-9.9 3-3.55 5.9-10.15 1.3 2.3 1.4 6.3 0.1 3.35-0.55 6.35 4.75-2.45 8.4-7.95 4.25-6.4 4.6-13.8"/>
   <path d="m414.65 289.2q1.85-0.4 4.3 1.2 10.2 6.4 14.4 12.8 4.6 7 3.95 16.6-3.15 5.45-11.15 8.15-5.55 1.85-17.5 3.3-6.6 0.8-8.4 5t1.7 10.05q-0.95 0-1.3 1t0.05 2.45q1.6 5.2 4.1 10.45 3.05 6.55 6.35 10.7 1.7 2.15 4.3 2.9l4.85 0.5 5.05 0.55q2.6 0.6 4.1 1.55-2.6 1.35-3.55 4.95-0.8 3-0.2 5.85-5.6-2.15-18.65-5.2l-18.85-4q-1.6-0.3-2.15-1.05t0.1-1.7q0.95-1.5 5.3-4.75 1.55-1.2 0.5-2.45l-4.25-5.4q-7.45-1.25-14.45-6.4-7.15-5.3-8.05-10.5-0.45-2.8 0.8-6.65 1.3-4.15 3.85-6.95 20.05-3.45 31.55-13.15 13.4-11.35 13.25-29.8"/>
   <path d="m159.95 345.65-3.35 0.2q-1.2-0.45-1.15-2.2 0.25-4.95 2.4-12.25 1.95-6.75 4.6-12.4-3.35-15.7 0.8-30.4 4.8-16.85 18.7-28.85-1.9-5.15-3.6-12.15l-2.25-10.35q-0.4-1.8 0.3-2.35 0.7-0.6 2.45 0.5 9.65 6.1 30.45 13.65 18.6 6.75 31.65 9.7 2.6 0.6 3.95 1.45 1.5 0.9 1.95 2.45 1 3.45 2.35 7 8.6 3 15.1 12.3 5.7 8.2 7.65 17.8 1.8 0.4 4.9-1 4.05-1.7 9.6-3-3.15 6.05-5.1 13.1-2.15 7.85-1.5 12.65-4.4-1.5-6.15-2.75-0.75-0.5-1.6-0.65-1-0.1-1.75 0.4l-1.05 3.5q-0.7 2.4-0.85 3.5l-0.4 7.2-0.2 8.05q0 2-1.35 2.45l-3.4-0.3-13.65-2.75q-6.2 3.4-14.3 5.45-8 2-14.45 1.8-3.5 3.15-5.15 3.7l-3.95-0.35q-11.15-3.4-15.05-4.45-8.4-2.2-14.6-2.8-9.15-0.85-22 2.15"/>
  </g>
  <g fill="#efefef">
   <path d="m392.3 114.3-2.45 0.9-1.65 1q-0.65 0.85-0.3 3.6-8.55 7.5-13.55 20-4.7 11.75-4.45 23.15 0.1 4.1 0.8 6.75 0.85 3.15 2.95 5.95 3.7 4.95 10.1 9.6 5.8 4.2 12.35 7.15-2.5-4.65-6.55-15.25 13 8 23.5 20.95 11.15 13.7 14 26.55-3.2-4.9-12-11.25 1.65 3.45 1.95 7.85 0.25 3.95-0.6 6.4-1.25-3.6-4.8-9.25-3.4-5.3-6.5-8.8-0.55 6.8-3.9 12.45-3.45 5.9-9.1 9.3 0.85-2.6 0.55-6.55-0.3-3.8-1.4-6.1-2.55 6.5-7.5 11.85-4.5 4.9-8.3 6.15 1.55-3.25 1.95-7.9 0.4-4.15-0.2-7.35-1.75 1.95-4.45 3.95-2.55 1.85-4.8 2.85 0-5.45 4.85-12.95 4.05-6.35 8.65-10.15 1.7-1.35 1-2.65-6.65-12.7-16.15-20.9-8.15-7.05-22.6-14.05 2.95-15.5 16-33.6 13-18 24.35-22.5l-0.95 1.95q5.8-2.8 11.75-4.4-1.4 2.05-2.55 5.3"/>
   <path d="m368.05 228.75q6.9-4.55 9.15-7.3 0.55 3.45 0.1 7.95-0.45 4.9-1.85 7.3 2.4-0.65 5.35-3.1 2.7-2.2 4.55-4.75 3.35 3.8 6.7 9.6t4 8.85q0.9 4.4 0.25 11l-7.25 10.75q0.6-5.95 0.45-13.4-0.05-1.95-0.6-2.9l-1.7-1.5q-4.65-3.25-9.5-7.6-6.15-5.55-9.8-10.45-0.15-1.6 0.15-4.45"/>
   <path d="m251.2 275.8q7.2 0.45 12.3 6.1 4.7 5.15 7.45 14.3-3.6-5.95-7.05-9.2-4.75-4.45-9.6-4.3l-3.1-6.9"/>
   <path d="m234.7 276.95 2 2.1 1.5 2.25q0.5 0.85 0.2 1.4l-1.35 1.25q-7 5.65-9.6 16.3-2.7 11.15 1.35 20.8 0.6 1.45-0.75 1.9l-8.65 3.1q-5.95-12.25-1.7-27.9 4.5-16.45 17-21.2"/>
   <path d="m187.85 292.95q2.6-9.8 8-17.4 5.55-7.85 12.95-11.6l1.35-0.5q0.65-0.1 1.3 0.35l4 2.9q-14.75 8.05-20.1 27.7-5.3 19.55 2.35 37.15l-4.15 1.25q-1.65 0.45-2.35-0.75-9.1-17.55-3.35-39.1"/>
  </g>
  <path d="m272.75 162.7q-0.95-0.2-0.9-0.65 0-0.4 1-0.35l21.3 2.15-0.65 3.4q-7.75-2.2-20.75-4.55" fill="#fff"/>
  <path d="m283.05 210.15-16.6 1.25-1.15-0.95q8.95-2.05 18.6-3.55l-0.85 3.25" fill="#fff"/>
  <g fill="#b9c3c9">
   <path d="m342.55 43.45q17.65 13 26.1 18.5 10 6.55 15.65 16.2 2.65 4.45 10.35 9.65 8.6 5.8 17.5 8 4.25 1.1 7.55 3.85l14.25 11.3 1.45 9.25-8.1-5.8q-4.55-3-6.5-4-3.45-1.8-6.6-4.75-2.75-2.7-4.3-3.7-2.5-1.55-5.35-1.55l-7.15-0.7-3-0.4q-2.05-0.25-3.25-1.1l-7.65-4.6q-6.6-3.85-7.95-4.8-1.2-0.8-1.7-1.55l-0.9-1.85-1.9-4.9q-1.1-2-3.15-3.95l-13.2-12.5-11.9-11.5q-1.75-1.75-1.75-4.15l0.1-4.25q0.05-0.85 0.35-1 0.3-0.2 1.05 0.3"/>
   <path d="m449.7 132.45-6.25-1.5 4.65-1.8 1.6 3.3"/>
   <path d="m403.15 129.9-4.35 0.7q-1.15-0.1-5.65-4.3-4.4-4.05-4.8-5.1-0.45-1.1-0.45-3.5 0-1.6 1.7-1.6l8.95-0.1 1.5 0.2 1.1 0.8q4 3.7 7.75 10 0.65 1.1 0.3 1.55l-1.65 0.45-4.4 0.9"/>
   <path d="m413.2 135.35-13.85-4.9 9.55-1.8q8.25 1.75 11.4 3.5l4.15 2.15q2.1 1 3.45 0.95l7.45-1.05q6.8-1.6 13.6-1.35l-10.3 3.85-8.85 3.25-3.65 0.15-12.95-4.75"/>
   <path d="m441.1 198.55q0.05 1.7-4.05 2.85-3.5 0.95-7.15 5.55-3.6 4.6-5.35 10.35-4.1-10.1-11.25-18.5 6.05 1.85 14.4 1.65 7.65-0.15 13.4-1.9"/>
   <path d="m423.95 220.9q-0.95 4.4-0.15 9.45t2.9 8.7q2.7 4.5 3.6 7.1 0.55 1.65 0.1 2.15l-1.85 0.1q-2.8-0.65-7.2-2.8-4.25-2.05-7.4-4.2 2.15-5.5 2.35-13.25 0.95-3.55 0.65-7.4-0.3-3.9-1.8-7.1 5.95 3.9 8.8 7.25"/>
   <path d="m330.7 203.4q-0.45 1.8-2.25 2.9-2.65 1.6-4.5 3.25l-5.7 6.5-5.55 6.75q-0.75 1.05-1.4 3.35l-1.35 4.8q-6.3 0.3-13.15 2.45l-1.5 0.15q-0.4-0.15-0.9-1.1-7.6-13.1-11.2-18.4 13 3.35 26.1 3.75 1.85 0.05 2.95-0.6l1.8-2q3.65-5.15 9.65-12.05 6.5-7.5 10.6-11-1.75 4.55-3.6 11.25"/>
   <path d="m356.4 189.25q5.4 2.25 14.35 7 7.9 4.2 12.4 7-4.95 3.5-9.35 9.95-4.1 6.05-5.35 11.05-0.85 3.4-0.5 10.2 0.3 7.35 1.85 13.95 0.65 2.6-1.25 3.2-1.85 0.55-2.85-1.1-3.65-6.3-10.9-11.4-7.15-5-15.85-7.45l7.1-7.5q6.25 0.25 9.75-1.35 3.85-1.8 5.35-6.15 1.65-4.75 0.35-13.4-1.4-9.1-5.1-14"/>
   <path d="m414.75 281.7q9.75 1.5 22.3 12.55 13.7 12.05 15.15 23.6-3.3 5.85-8.3 12.6-4.95 6.5-9.85 11.65 1.7-7.95 2.6-15.85 1.1-9.7 0.3-13.95-1.55-8.05-9-15.4-6.85-6.7-13-7.95 0.25-4.7-0.2-7.25"/>
   <path d="m325.85 300.15q-0.45-5.7-5.1-11.1-3.5-4.05-9.8-8.3l-0.15-3.75q6.6 2.05 12.85 7.3t8 10.2q1.5 4.3 2.65 15.7 1.2 12.45 0.55 21.2-2.1 7.6-4.75 14.2-2.9 7.15-5.65 11.15-0.85 1.3-1.55 1.25-0.75-0.05-0.7-1.6l0.4-27.5q1.75-2.05 2.55-3.8 0.9-1.9 0.95-4.1 0.4-11.95-0.25-20.85"/>
   <path d="m324.75 270-5.05-5-18.95-0.55q-6.8-1.4-14.15-6.55-2.4-1.7-4.6-2.5l-5.55-1.4-25.65-4.9q-18.45-3.65-25.1-5.85-7.85-2.6-13.15-5.25-3.65-1.9-8.7-5.25-5.75-3.8-20.05-12.05-16.55-9.5-21.85-11.55l-2-1.2-0.8-1.7-3.95-9.35q10.4 2.35 24.9 8.85 12.45 5.6 19.35 10.15 13.9 9.15 28.5 14l11.35 3.4q6.6 1.95 10.55 3.5 6.05 2.4 14 5.75l11.85 5.2q3.2 1.55 5.85 1.85l4.4-0.2q2-0.35 5.55 0.7 3.3 1 5.95 2.55 2.9 1.7 8.75 3.3 6.65 1.8 11.65 1.8l2.95 0.3 1.9 1.2q7.5 6.95 13 11.05 6.9 5.15 12.9 7.45-1.7 0.35-2.95 3.05-1.35 3.05-0.55 6.6-2.8-2-4.25-4.15-2.4-3.4-4.65-4.25-1.25-0.45-3.2-1.7l-3.05-2.3-5.2-5"/>
   <path d="m303.25 234.05q2.7 3.85 8.6 8.5l-4.7-1-4.15-1.35-2.5-2.65q-1.15-1.1-0.15-1.75l2.9-1.75"/>
   <path d="m325.7 241.25 7.3 0.45q2.4 0.9 3.45 3.8l0.8 1.65 0.95 1q-3.75-0.35-7.3-2.35-3.4-1.9-5.2-4.55"/>
   <path d="m344.45 254.5q1.95 1.8 3.45 4.4 1.25 2.15 4.05 4l3.5 2.75 3.6 3.45q-1.05-0.6-5.15-1.25-1.7-0.3-3.9-1.3t-3.65-2.15q-2-2.95-1.9-9.9"/>
   <path d="m350.4 278.8q1.8 1 4.45 1.25l4.35-0.4 2 2.4 0.25 1.25-4.25 0.25q-2.25 0.8-3.65 2.85-1.85-5.4-3.15-7.6"/>
   <path d="m346.05 280.25q5.3 7.5 8.9 20.75-6.7-8.05-8.9-11.7-1.5-2.55-1.45-5.15 0.05-2.5 1.45-3.9"/>
   <path d="m358.2 272.5q11 10 16.1 20.3-10.75-8.95-13.1-10.75-2.4-1.8-3.2-4.8-0.75-2.7 0.2-4.75"/>
   <path d="m362.4 287.4q-0.9-0.6-1.75 0.35t-0.25 2.2q1.45 3.05 4.35 7.1-6.55-4.4-10.35-7.8l-0.8-2.7q1.25-2.2 3.3-3.1l4.65 0.15 0.85 3.8"/>
   <path d="m290.3 353.7q0.35 0.4 2.35 8.35 2.2 8.95 3.5 12.25-1.25 3.15-3.1 5.15-1.3-6.35-2.05-13.55-0.7-6.9-0.7-12.2"/>
   <path d="m279.4 391q7.3 6.4 13.55 10.55 4.3 2.85 6.35 1.9 1.95-0.85 2.4-5.45 1-10.8 0.5-19.45-0.6-11.1-3.65-16.65 4.6 1.6 6.2 18.45 1.6 16.55-1.45 27.8-0.85 3.1-3.35 1.75l-11.15-6.6q-6.55-4.35-9-7.15-0.7-0.8-0.75-1.85-0.05-0.8 0.35-3.3"/>
   <path d="m439.9 383.35q6.45 0.85 11.5 2.25 5.3 1.4 6.95 0.85 1.5-0.55 1.35-3.55-0.15-3.55-0.75-6.65 3 9.65 3 14.45 0 1.55-1.35 0.95-2.55-1.1-7.85-2.5-6.25-1.6-9.95-1.7l-2.9-4.1"/>
   <path d="m401.55 346.5q1.85 6.45 8.75 15.9 7.45 10.25 13.05 12.25-4.4 0.3-7.75-0.9-3-1.05-5.5-4.15-1.9-2.45-4.95-9-2.7-5.85-4.45-10.65-0.5-1.4-0.3-2.3 0.25-0.9 1.15-1.15"/>
  </g>
  <path d="m394.45 103.4 4.7-3.25 5.4 0.25q2.3-0.1 4.85 1.3 2.45 1.4 4.8 3.95l-2.4 1.9q-2.9 0.5-8.65 2.45-6.35 2.15-11.05 4.45 1-2.65 3.05-5.65 3.45-3.35 7.5-5l-3.7-0.5-4.5 0.1" fill="#898885"/>
  <path d="m402.35 137.6q0.45-2.5 2-5.15 10.8 3.55 16.95 6-4.55 3.45-8.35 7.6-4 4.35-5.8 7.95v-4.4q0-2.55 0.25-4.4-1.95 1.7-5.4 3.3l1.95-5.4q1.5-3.65 2.6-5.7l-4.2 0.2" fill="#c9caca"/>
  <g fill="#898885">
   <path d="m387.25 120.5q3.15 3.95 6.75 7 3.95 3.25 5.65 3.05l5 1.85-1.05 1.7q-6.2 3.95-11.15 10.55-5.5 7.4-5.8 13.65-0.3 7.05 2.3 16.9 2.75 10.5 7.15 17-2.15-0.55-4.45-1.8-2.15-1.15-3.25-2.3-3.6-5.15-5.5-14.25-1.85-8.8-1.1-16.05 0.65-6.2 2.4-11.2 1.65-4.9 5-10.4-2.75-6.8-1.95-15.7"/>
   <path d="m414.45 275.65q4.4 33.95-20.7 48.75-10.9 6.45-25.8 7.95-14.35 1.45-29.85-1.85l-4.4 5.15q2.05-8.2 4.4-20.25l3-16.5q2.3 4.25 3.15 11.95 9.4 3.3 21.05 2.75 11.8-0.5 22.25-4.8 11.25-4.65 18.15-12.6 7.7-8.85 8.75-20.55"/>
   <path d="m380.75 338.05q-4.15-3.75-10.55-6.15 20.9-3.65 31.95-13.55 12.1-10.8 12.8-29.4 8.4 2.35 15.1 10.05 8.2 9.45 7.5 21.45-4.75 5-10.9 7.35-5.6 2.2-13.9 2.65-5.75 0.3-9.25 2.5-3.35 2.1-3.75 5.35-3.45-0.1-7.05 3.2-3.9 3.6-3.9 8.15-3.4-7.35-8.05-11.6"/>
   <path d="m389.2 362.25q-2.15 1.45-10.05-2.45-8.4-4.2-11.8-9.5 7 1.6 11.1-1.75 4-3.3 3.15-9.4 5 4.3 7.7 12.8 2.7 8.4-0.1 10.3"/>
   <path d="m391.75 367.4-4-4.8q1.7-0.1 2.7-1.85 2.8 3.75 4.35 6.6 0.9 1.65 0.75 2.6-0.15 0.85-1.4 1.8-3.85 3-1 3.35 18.8 2.3 32.45 7.4-0.3 1.8-0.2 4.75-9.2-3.1-19.75-5.7-9.9-2.45-17.05-3.45-4.65-0.7-1.95-3.55 0.65-0.7 4.95-4.45 1.35-1.3 0.15-2.7"/>
  </g>
  <path d="m425.4 387.25q-0.1-2.95 0.2-4.75 15.65 5.85 20.15 14.05-5.6-4.35-20.35-9.3" fill="#dcdddd"/>
  <path d="m325.75 323.2q-0.8 3.45-3.15 5.7l-0.35 11.95-7.4 2.15-6.75 1.25q0 8.5-4.25 15l-5.45 3.2-0.8 5.75q-0.65 3.7-1.55 5.85-2.6-8-4.75-18.65-0.3-1.55-0.9-1.75-0.55-0.2-1.2 1.05-2.25 4.5-4.25 10.2-2.3 6.4-3.25 11.5-0.9-3.15-2.7-5.15-1.65-1.85-3.55-2.25l0.9-1.85q-2.6-4-4.7-10.4-2.2-6.6-2.2-10.75 3.4 2.65 8.75 2.15 5.35-0.55 7.9-3.9l1.85-7.35q-12.75-12.55-6.3-31.15 7.2 10 21.35 12.75 13.6 2.6 23.5-3.05-0.25 5.5-0.75 7.75" fill="#898885"/>
  <path d="m256.15 408.05q1.45-5.75 4.8-10.7 3.55-5.2 8.45-8.2 0.4 4.75-0.15 6.85l-0.65 1.75-1.8 1.15q-3.25 1.5-6.85 5.55-3.2 3.6-3.8 3.6" fill="#dcdddd"/>
  <g fill="#898885">
   <path d="m269.4 389.15q4.95-3.05 10.55-3.25-0.55 3.05-1.2 8.75-2.2 0.1-5.15 0.9-3.25 0.95-4.95 2.1 0.7-1.75 0.9-4.1 0.25-2.4-0.15-4.4"/>
   <path d="m431.8 220.7q4.25 3 9.1 4.5-2.6 6.9 1.75 8.75-0.6 1.55-3.6 0.45-3.1-1.25-5.35-2.5-2.1-1.25-2.6-4.8-0.5-3.35 0.7-6.4"/>
   <path d="m466.7 250.65q2.3 4.3 5 8.3-1.15 0.9-2 2.2-0.9 1.35-1 2.25-0.05 1.9 0.6 4.3-1.95 0.3-3.6-1.75-1.95-2.45-3.15-4.75-1.3-2.4-0.5-4.5 1.35-3.5 4.65-6.05"/>
   <path d="m187.2 293.8q-2 6.8-1.25 17.35 0.95 12.65 5.85 21.4-3.6-0.05-14.25-2.15t-12.5-3.1q-2.75-1.5-3.8-16.9-1.1-16.55 3-24.75 4.5 2.4 11.15 4.7 5.85 2 11.8 3.45"/>
   <path d="m209.35 329.1q-6.45 1.7-11.3 2.45-3.1-5.9-4.35-16-1.4-11.35 0.95-19.55 11.85 3.6 22 5.35-0.85 5.3-0.5 10.8 0.5 7.35 3.1 13.8-3.25 1.4-9.9 3.15"/>
  </g>
  <path d="m185.7 314.65q-1.25-10.3 1.6-19.85 4.55 1.65 7.4 2.25-2.4 7.9-1.8 15.25 0.65 8.3 5.15 19.25l-4.75 1.25q-1.5 0.35-2.6-1.55-3.9-7.5-5-16.6" fill="#c9caca"/>
  <path d="m229.05 321.4q0.4 0.65 0.25 0.95l-1 0.65-8.85 3.1q-2.65-4.6-3.5-11.15-1-7.15 0.85-12.65l4.8 1.45 4.8 1.4q-0.75 3.85-0.25 7.8 0.65 4.55 2.9 8.45" fill="#c9caca"/>
  <g fill="#898885">
   <path d="m155.6 342.4q2.25-14.3 7-23.4 0.3 2.6 1 5.15 0.75 2.7 1.45 3.15 0.8 0.55 12.75 3.15 12.25 2.7 14.05 2.55 2.8-0.25 5.6-1.25 7.5-1.55 16.2-4.05 9.15-2.6 14.2-4.7 1.1-0.45 1.25-1 0.2-0.45-0.25-1.5-3.15-7.05-2.05-16.2 9 5.7 26.55 5.45 16.95-0.25 29.1-5.6-1.5 4.55-2.2 9.05-0.8 5.15-0.15 8.55l-6.75-3-3.25 0.15q-5.15 3.75-11.4 6.4-6.15 2.65-11.85 3.6-1.5 0.25-2.55 0.85l-1.85 1.25-12.85 9.95-12.5 9.05q-1.45 0.95-2.55 1.2l-2.85-0.3q-17.1-6.4-28.75-7.3-9.8-0.7-23.6 2.3-2.15 0.45-3.15-0.45-0.95-0.9-0.6-3.05"/>
   <path d="m238.95 283.25q-1.9 3-2.7 6.55-0.7 3.3-0.3 6.35l-5.4-4q1.7-2.9 4.1-5.4 2.25-2.35 4.3-3.5"/>
   <path d="m243.85 330.15q1.45-0.8 3.8-1.35 3.35-0.75 8.4-2.6 5-1.85 8.9-3.8-4.15 8.35-13.35 11.4-8.25 2.75-11.8-0.4 2.6-2.4 4.05-3.25"/>
   <path d="m231.3 339.65q7.25 3 14.5 1.65-4.85 2.45-11.1 4.15-7.5 2-14.15 2l10.75-7.8"/>
   <path d="m248.2 340.3q5.85-1.5 10.65-7 4.5-5.1 6.55-11.65 2.65-1.45 5-3.25-1.6 4.55-1.85 7.55l-0.4 8-0.35 6.75q-0.25 3.4-3.85 2.45-9-2.35-15.75-2.85"/>
  </g>
  <path d="m239.45 333.4q4.1 2.5 10.8 0.55 7.5-2.15 14.15-9.05-5.55 11.35-14.15 15.1-8.45 3.65-18.95-0.35l8.15-6.25" fill="#c9caca"/>
  <path d="m361.2 200.15q2.4 14.55-1.85 20.15-3.65 4.85-13.15 3.6l-7.9 8.35q-2.05 2.25-5.2 3.45-3.05 1.15-5.8 0.75 2.85-2.5 2.8-3-0.05-0.3-1.2-1.1-1.1-0.75-1.6-0.85l-2.2 0.6q-1.75 0.65-3.25 1.5 0.3-8.7 1.1-11.15 1.45-4.5 7.5-10.45 13.05-3.15 15.85-3.55 2-0.3 3.9-1.55l3.6-2.9 3.25-2.05q2.25-1.2 4.15-1.8" fill="#b9c3c9"/>
  <path d="m334.3 192.55q3.45-3.35 10.55-4 6.2-0.6 11.8 0.9 1.8 2.35 2.8 5.3-6.65-4.1-14.3-3.15-8.05 1-12.7 7.4l1.85-6.45" fill="#b9c3c9"/>
  <g fill="#c9caca">
   <path d="m368.3 8.2q-2.8-3.75-8.2-7 7.1 2.3 12.7 8.45l-4.5-1.45"/>
   <path d="m331.9 5.45q14.8 0.7 28.2 14.45-2.9-0.8-6.05-1.05-3.45-3.75-8.85-7.25-6.65-4.35-13.3-6.15"/>
   <path d="m406.95 60.65q-2.3-3.25-7.35-4.4-8.05-1.8-13.95-5.25-6.85-3.95-14-11.7-7.2-7.8-13.05-11.8-7.65-5.2-16.5-6.7 9-1.15 18.85 3.1 10.2 4.45 16.55 12.85 5.35 7.1 10.8 10.75 4.75 3.2 12.1 5.3 4.8 1.4 7.9 4.35 3.35 3.15 3.65 7.15 0.25 2.85 2 6.3 1.4 2.75 4.2 6.55l7.25 8.3q4.45 5.25 6.05 8.35l-3.8-1.9q-2.1-3.05-5.45-6.95l-5.75-6.65-4.6-5.6q-1.8-2.5-2.4-5.15-1-4.7-2.5-6.9"/>
   <path d="m449.3 128.45q-2.65 1.75-5.85 2.5l-3.05-0.55q-1.35-2.8-0.75-6.9 1.6 2.25 5.15 2.8 3.7 0.55 7.35-1.05-0.25 1.45-2.85 3.2"/>
  </g>
  <path d="m428.4 122.5-0.9 3.7-1.95-1.25q0.9-2.05 2.85-2.45" fill="#dcdddd"/>
  <path d="m433.7 123.8q-0.8 2.55-1 4.3l-2.35-0.75q1.85-3.15 3.35-3.55" fill="#dcdddd"/>
  <g fill="#c9caca">
   <path d="m424.55 217.3q3.5 2.95 7 4.7-0.75 3.7-0.2 6.55l-7.85-3.6 0.45-4.05 2.75 3.2q-0.45-3.05-2.15-6.8"/>
   <path d="m452.2 234.25q3.35 3.7 13 17.4-2.1 2.65-2.85 4.6-11.6-16.85-13.65-18.65-1.15-0.95-3.5-2.3-2.2-1.3-3.35-1.75-1.2-0.45-1.6-2.25-0.5-2 0.45-4.55 3.15 1.25 6.65 3.6 3.2 2.1 4.85 3.9"/>
   <path d="m468.65 263.1q0.25-1.05 0.6-1.65 0.55-0.8 1.8-1.5 2.25 3.2 7.8 5.35 6.05 2.3 11.55 1.4 0.15 2.45-0.05 3.15-0.9-1.5-1.95-1.35-0.7 0.15-2.05 0.95-1.7 1-2.8 2.15 0-2.7-1.6-4.3-1.4-1.4-3.4-1.3t-3.25 1.75q-1.35 1.85-1 4.85-1.55-0.7-2.35-1.2-1.45-0.85-1.9-1.95-0.6-1.4-1.05-3.4-0.55-2.15-0.35-2.95"/>
   <path d="m482.35 277.7 1.1-4.2 2.65 4.65-3.75-0.45"/>
  </g>
  <g fill="#dcdddd">
   <path d="m477.7 291.6-0.5-4.55q2.4-3 5.3-9.35l2.65 0.45-1.2 4.9q-3.25 5.1-6.25 8.55"/>
   <path d="m478.55 266.25q0.35 5.5-0.35 11.05-0.75 6.45-2.8 11.65l-0.4-9.3-0.55-8.3q-0.2-2 0.75-3.4 1.1-1.65 3.35-1.7"/>
   <path d="m483.55 271.6 2.5-2.15q4.85 9.85 5 19.75l-3.65-8.4q-2.2-4.65-3.95-7.3l0.1-1.9"/>
  </g>
  <g fill="#c9caca">
   <path d="m124.65 220.95q1.6 3.05 5.35 12.15 3.85 9.25 5.2 11.85 1.25 2.4-0.45 2.75-1.65 0.3-2.7-1.9-3.05-6.6-7.4-24.85"/>
   <path d="m98.15 205.3q4.3 4.75 9.2 13.75 5.05 9.1 7.55 16.9 0.65 2.05-1 2.75-1.6 0.65-2.5-1.75l-5.4-14.35q-4.05-10.3-7.85-17.3"/>
   <path d="m98.05 220.65 9.3 22.05q6.35 14.15 11.85 22.35 1.55 2.35-0.1 3.45-1.65 1.05-3.3-1.7-4.4-7.35-9.35-19.65-5.75-14.3-8.4-26.5"/>
   <path d="m84.7 274.05-3.85-4.5q-1.9-2-3.7-3l-27-14.65-9.5 3.25-2.6 0.3q-1-0.25-2.1-1.55-11.45-14.4-21.85-22.4 5.2 1.9 12.45 7.6 6.1 4.8 10.65 9.8 0.95 1 2.35 1 0.95 0.05 2.55-0.5 3.45-1.15 8.8-1.95l6.3-0.45q1.95 0.5 7.65 3.95 6.3 3.7 12 5.7 2.95 1 6.35 1.2l5-0.1q3.65-0.25 6.8 1.35 2.6 1.25 6.7 4.9 13.45 11.8 30.05 20.1 15.45 7.75 30.2 10.9-0.65 5.5-0.6 11.7 0.05 7.5 1.2 13-2.3 3.05-4.45 10.9-2 7.15-2.45 12.65-0.1 1.55 0.8 2.25 1 0.8 2.9 0.4 13.1-2.9 19.55-2.35-5.8 6.75-14.85 13.1-9.85 6.95-20.6 11.25l3.05-9.5q-7.5 6.25-20.35 12.35 0.7-5.45 2.7-14.45 2.05-9.1 4.05-15.5-2.15 2.3-7.75 6.25l-7.45 4.9q0.65-5.9 3.5-12.6 3-7.15 7.95-13.95-5.8-3.7-9.6-4.35-2.25-0.4-4.05-1.55-1.95-1.25-3.8-3.7l-8.05-10.55q-5.3-6.65-8.75-9.85-1.55-1.4-2.4-2.8-0.65-1.1-1.35-3.1l-2.8-7.2-3.65-8.25"/>
   <path d="m159.85 256.15q10-0.2 13.2 1.2 3.4 1.55 6 4.95l-1.75 2.1-2.55-2.6q-1.5-1.3-2.8-1.6l-4.3-0.5q-3-0.2-5.95 0l-1.85-3.55"/>
  </g>
  <path d="m265.65 292.85q4.45 3.2 6.4 7.1-8.8-0.95-14.45-10.85 3.95 0.85 8.05 3.75" fill="#898885"/>
  <path d="m304.9 385.95q11.6 6.3 13.8 17.1-7.5-8.25-13.7-8.75 0.25-3.45-0.1-8.35" fill="#dcdddd"/>
  <path d="m460.8 382q6.3 3.15 8.45 6.15l-3.4-0.7-4.2-0.8-0.85-4.65" fill="#dcdddd"/>
  <path d="m435.65 120.85 3.65 3.05q-0.15 1.25 0.15 3.25 0.3 1.85 0.75 3.2l-3.35-0.75q-0.9-4.7-1.2-8.75" fill="#c9caca"/>
  <path d="m412.8 108.75-1-1.2 2.4-1.9q1.45 1.5 4.3 3.35l3.75 2.1 0.05 1.4q-5.95-2.1-9.5-3.75" fill="#c9caca"/>
  <path d="m329.75 234.4-6.15 5.45-4.55-0.95q-2.65-0.95-4.15-2.05 9.1-4.25 11.4-5.1 1.15-0.4 1.75 0l1.75 1.1q0.85 0.7-0.05 1.55" fill="#efefef"/>
  <path d="m416.15 227.2q0.15 2.7-0.5 7.5-2.1-7.25-8-14.9-1.2 4.4-6.25 8.55-4.3 3.6-9.7 5.75l-2.1 0.35q-0.35-0.3-0.05-1.9 0.6-3.35 0.3-5.35l-2.65 3.65-2-2q4.3-5.3 6-10.3 1.15 1.75 1.5 5.65 0.3 3.65-0.25 7 5.7-2.95 9.3-10 3-5.85 3.4-11.5 3.1 3.15 6.45 8.75 2.55 4.3 4.55 8.75" fill="#898885"/>
  <path d="m375.05 239.3-2.35 0.2q-0.4-0.35 0.1-2.05 1.15-3.75 1.5-8.75-1.75 1.65-3.5 2.55l-3.1 1.35 0.15-4.25q1.55-0.65 4.7-3l4.55-3.9q0.65 2.55 0.2 7.25-0.45 5.05-1.85 7.75 4.35-1.15 9.75-7.6l2 2q-5.4 6.45-12.15 8.45" fill="#c9caca"/>
  <g fill="#0f141b">
   <path d="m435.2 120.15c-1 0.5-2.2 0.83333-3.6 1 0 0-3.025 0.31457-4.4-0.2-1.8332-0.68603-3.3333-1.5833-4.6-3.65-1.2667-2.1-1.7833-4.3833-1.55-6.85l2 1.25c-0.2 1.7667 0.13333 3.45 1 5.05 0.9 1.6333 2.0392 2.4031 3.45 2.95 0.96397 0.37371 2.0745 0.2313 3.1 0.1 1.0514-0.13462 2.25-0.46667 3.05-0.9l1.55 1.25"/>
   <path d="m428.7 115.6 0.75 0.55s-0.27732 0.78324-0.6 1c-0.18197 0.12224-0.47453 0.23141-0.65 0.1-0.20188-0.15119-0.2-0.35-0.1-0.75s0.3-0.7 0.6-0.9"/>
   <path d="m389.25 115.25q4.75 0.3 9.45-0.1l1.45 0.05 0.9 0.65 3.95 4.2q3.15 3.7 4.8 7 0.7 1.4 0.35 2t-2 0.8l-7.8 1.45-1.9 0.1q-0.8-0.15-1.95-0.9l-4.4-3.65q-2.85-2.7-4.35-4.9-0.5-0.75-0.75-2.25l-0.05-2.65q0.1-1.1 0.5-1.45 0.5-0.4 1.8-0.35m-0.1 5.75q1.4 2.1 4.2 4.65l4.25 3.45 1.25 0.65 1.4-0.05 8.15-1.25q0.6-0.05 0.3-0.55-1.6-3.2-4.65-6.95l-3.85-4.2q-0.45-0.45-1.15-0.4l-9.9 0.4q-0.5 0-0.55 0.35-0.2 2.8 0.55 3.9"/>
   <path d="m409.25 128.2q6.35 1.15 10.8 3.35 1.15 0.6 1 0.95l-1.3-0.1q-5.25-2.05-11.6-3l1.1-1.2"/>
   <path d="m436.5 134.7q-3.8 0.95-8.3 0.95-1.05 0-1.05-0.3t1-0.4l3.9-0.5 4.25-0.95q4.05-0.9 6.45-0.7 0.95 0.1 0.95 0.35t-0.95 0.35l-6.25 1.2"/>
   <path d="m387.65 115.45q4.65-2.4 11.6-4.95 6.35-2.35 11.2-3.65l1.65-0.1 1.15 1.05 12.05 15.75 1.7 1.65 2 0.85q8.35 3.1 19.95 5.7 1.5 0.3 1.5 0.95 0 0.6-1.45 1-2.05 0.55-10.3 3.8l-9.05 3.5-1.85 0.4-1.85-0.4q-6.6-2.75-27.95-9.75l2.8-0.9q22 7.4 25.85 9l1.3 0.25 1.25-0.35q16.7-6 18.15-6.45-12.15-2.7-18.9-5.2-1.55-0.55-2.35-1.1l-2.05-1.9-12.1-15.55q-0.5-0.75-1.5-0.5-4.4 1.2-9.9 3.2-5.9 2.15-10.6 4.4l-2.3-0.7"/>
   <path d="m412.25 107.75q-2.2 3-4.6 4.55-0.85 0.55-1.1 0.3-0.25-0.2 0.6-0.95 2.1-1.85 3.8-4.3l1.3 0.4"/>
   <path d="m399.05 115.4 5.05-1.7 1.1-0.1-0.7 0.75q-2.25 1.45-4.25 2.1l-1.2-1.05"/>
   <path d="m426.4 113.9 0.9 0.6c-0.43333 0.7-0.61667 1.4-0.55 2.1 0.0667 0.63333 0.30577 1.1357 0.75 1.45 0.49451 0.34986 1.2143 0.40458 1.8 0.25 0.60918-0.16078 1.2333-0.55 1.5-1.15l0.95 0.5c-0.36667 0.76667-1.0667 1.2667-2.1 1.5-1 0.23333-1.8833 0.1-2.65-0.4-0.63333-0.43333-1.0333-1.1-1.2-2-0.16667-0.96667 0.0333-1.9167 0.6-2.85"/>
   <path d="m429.7 123.3q0.6 1.55 0.9 3.8l-1.4-0.35-0.45-2.6-0.5-1.3q-0.5-0.1-2.25 2.3l-0.95-0.95q1.1-1.35 2.1-2 0.95-0.65 1.4-0.55 0.55 0.1 1.15 1.65"/>
   <path d="m434.35 128.5q-0.5-4.05-0.75-4.1l-2.65 3-1.3-0.5q2.95-4.05 4.25-3.8 0.55 0.1 1.05 1.7 0.55 1.7 0.7 4.05l-1.3-0.35"/>
   <path d="m411.25 107.2 1.95-2.15 1.2 1.3-1.6 1.8-1.55-0.95"/>
   <path d="m442.95 124.05 0.7 2.05-0.1 0.45-0.35-0.3-1-1.8q-0.3-0.55 0.05-0.75 0.35-0.25 0.7 0.35"/>
   <path d="m449.85 129.25q-2.7 1.5-5.45 2.05l-2.6-0.85q2.85-0.4 6.05-2 3.25-1.65 3.45-2.8 0.4-2.2-2.85-6.5-0.75-0.95-0.45-1.2 0.3-0.3 1.2 0.55 1.9 1.85 3 4.05 1.15 2.1 0.9 3.4-0.3 1.6-3.25 3.3"/>
   <path d="m449.2 132.8q-0.7-1.65-2.1-3.05l1.35-0.65q1.4 1.6 1.95 3.45l-1.2 0.25"/>
   <path d="m431.7 94.65q3.8 17.45 4.5 26.25l-1.7-0.9q-0.9-9.45-4.2-25.05-0.3-1.35 0.35-1.8 0.6-0.5 1.65 0.2l2.75 2q0.9 0.75 1.35 2.05 3.55 10.5 7.7 19.85 0.65 1.45 0.25 1.6-0.4 0.2-1.15-1.2-4.15-8.05-8.15-19.7-0.5-1.3-0.8-1.55l-2.55-1.75"/>
   <path d="m416.7 96.9q2.2 1.15 5.45 3.85 5.75 4.85 11.8 9.05l0.25 2.25q-4.4-3.1-12.95-10.3-3.25-2.8-5.1-3.9-1.9-1.15-4.25-1.65-1.05-0.25-1-0.6l1.15-0.2q2.45 0.35 4.65 1.5"/>
   <path d="m424.15 68.15q-0.1 0.05-0.05 0.25 0.55 2.3 3.85 11.7l4.9 14.35h-1.75l-8.3-25.75q-0.45-1.95 0.35-2.4 0.75-0.45 1.95 0.85 5.05 5.35 13.85 17.4 8.25 11.25 9.1 13.45 0.65 1.75 0.3 9.4-0.3 5.75-0.8 10-0.1 1.2-0.65 1.45-0.5 0.25-1.55-0.4l-1.9-1.35-0.95-2.5q2.05 1.8 3.4 2.55 0.3 0.25 0.3-0.15l0.6-10q0.2-7-0.35-8.5-0.75-2-9-13.4-8.65-11.95-13.1-16.75l-0.2-0.2"/>
   <path d="m441.65 82.75q8.1 13.15 9 19.5 1.6 11.25-0.1 18.35l-1.05-0.95q0.6-4.15 0.25-9.35l-0.85-7.8q-0.9-6.35-9-19.3-7.4-11.7-11.8-15.7l-6.7-5.9q-3.45-2.75-6.6-4.6-1.15-0.7-1.1-1.1l1.25 0.1q6.85 3.1 14.4 10.05 4.8 4.4 12.3 16.7"/>
   <path d="m412.55 41.5q0.8 4.95 3.1 9.7 2.55 5.3 6.4 9.15l-3.3-1.5q-6.3-6.9-7.95-17.05-0.5-3-1.65-5.45-1.15-2.6-3.6-5.8-9.8-13.05-19.95-19.85-10.75-7.15-24.35-9.05 5.8 3 8.75 6.8l-2.5-0.3q-1.9-2.15-4.35-3.8-2.25-1.45-5.75-3-1.15-0.5-0.95-0.95 0.15-0.45 1.4-0.4 15 0.5 27.25 8.05 11.45 7.15 21.85 21.4 2.55 3.5 3.8 6.2 1.3 2.8 1.8 5.85"/>
   <path d="m370.95 9.7q-6.8-2.7-18.35-3.85-10.8-1.05-18.65-0.15 6.35 1.85 12.05 5.4 5.55 3.45 9.55 7.9l-2.4-0.05q-4.05-4.15-9.45-7.3-5.15-2.95-12.4-5.5-0.95-0.3-0.95-0.7 0-0.45 1.1-0.7 7.5-1.8 19.45-0.75 12.45 1.1 20.45 4.65 1.85 0.8 1.7 1.3l-2.1-0.25"/>
   <path d="m430.05 92.95-2.1-0.9q-18.05-18.35-19.15-24.65-0.75-4.45-3.25-6.85-2.65-2.55-8.45-3.95-7.7-1.85-13.6-5.65-5.9-3.85-12.6-11.35-6.7-7.45-12.35-11.3-7.8-5.3-17.1-6.5-1.3-0.2-1.3-0.65-0.05-0.5 0.9-1 3.4-1.8 8.3-2.05 5.1-0.3 9.8 1.2 1.45 0.5 1.35 0.95l-1.55 0.1q-8.3-1.9-15.5 0.3 8.9 1.55 16.6 6.7 5.85 3.95 12.2 11 6.6 7.4 12.2 11.05 5.6 3.7 13.1 5.5 6.7 1.6 9.45 4.65 2.05 2.3 3.2 7.65 1.1 4.8 19.85 25.75"/>
   <path d="m415.25 82.75q-8.45-7.2-14.95-13.7-5.7-5.8-11.85-8.45-19.15-8.2-46.55-31.35l-0.1 2.8q0 0.6 0.55 1.35l7.45 9.85 9.55 12.35-3.8-2.15q-7.95-10-14.45-19.25-0.8-1.1-0.8-2.1l0.1-3.05q0-1.35 0.65-1.6 0.65-0.2 1.75 0.75 9.55 8.05 19.4 15.05 15.25 10.75 26.9 15.75 6.45 2.8 12.45 8.9 6.25 6.25 14.7 13.5 8.3 7.1 15.3 12.25l-0.4 1.65q-7.45-5.35-15.9-12.55"/>
   <path d="m342.15 49q0.15 1.5 0.75 2.2 2.95 3.6 12.55 12.75 7.55 7.2 13 12.05 2.35 2.15 3.65 5.25l1.75 4.4 0.6 1.05 1.35 1.05 15.8 9.65q1.25 0.8 2.6 0.95l3.7 0.7 3.95 0.5 5.6 0.4q3.75 1.1 6.95 4.7l1.85 1.9 2.55 1.85q5.05 2.75 11 6.9 6.95 4.8 9.95 8.05l0.15 0.35q0.15 3.7 1.1 6.55l-1.65-0.2q-0.9-2.5-1.05-5.8-3-3.2-9.6-7.85-5.6-3.9-10.6-6.7-2.55-1.4-4.85-4-1.6-1.75-2.95-2.65-1.45-1-3.3-1.5l-5.2-0.4-4.3-0.55-3.65-0.5q-1.75-0.1-3.15-0.95l-15.9-9.85q-1.1-0.65-1.6-1.3-0.5-0.6-0.85-1.6l-1.75-4.45q-1.1-2.55-3.35-4.55l-13-12.1q-9.65-9.25-12.65-12.8-1.05-1.3-1.15-3.35l-0.2-4.8q0-1.6 0.75-2t1.95 0.5q16.75 12.55 26 18.55 1.45 0.95 1.15 1.4-0.3 0.5-1.75-0.4-10.1-6.2-25.9-18-0.4-0.35-0.4 0.05l0.1 4.55"/>
   <path d="m400.5 100.5-9.65 6.1q-4.15 2.9-6 5.25 3.85-1.9 9.85-3.5 1.95-0.55 0.8 1.05-1.75 2.5-2.95 5.4l-1.8 0.65q1.05-2.9 2.9-5.5-4.75 1.45-9.95 4-2.15 1.1-1.15-1.1 1.4-2.95 6.3-6.6 3.25-2.45 9.65-6.3l2 0.55"/>
   <path d="m404.1 132.25 1.35 0.25q-1.3 1.9-2.3 4.35l3.65-0.05q1 0 0.45 0.9-2.9 5.3-4.25 9.75 2.55-1.35 4.2-2.95l0.15 1.6q-2.1 1.8-5 3.3-1.7 0.8-1.2-1 0.95-3.4 4.6-10.45l-3.45 0.35-0.9-0.05q-0.15-0.25 0.05-1 0.9-2.45 2.65-5"/>
   <path d="m422.5 138.75q-3.05 2.15-9.3 11.5-5.7 8.5-6.15 8.4-0.6-0.15-0.7-5.6-0.1-5.65 0.65-8.75 0.35-1.4 0.8-1.3 0.5 0.1 0.3 1.5-0.75 5.7-0.4 11.9 3.85-6.9 6.25-10.35 3.65-5.3 7.1-7.9l1.45 0.6"/>
   <path d="m403.2 135.55q-13.2 9.9-15.3 21.1-2.5 13.25 8.55 34.25 0.9 1.75 0.45 2.3-0.5 0.6-2.4-0.35-9.5-4.6-16.25-10.85-7.4-6.85-8.9-13.4-1.85-8.05 1.5-21.3 4.55-17.95 17.1-28.45l0.15 1.95q-11.4 10.35-15.5 27.55-3 12.45-1.45 19.85 1.3 6 8.6 12.8 6.6 6.15 14.65 9.9-11.05-21.75-7.9-35.9 2.8-12.55 17.85-22.5l-1.15 3.05"/>
   <path d="m384.15 112.25q-13.05 7.55-24.15 23.3t-15.3 32.7l-2.15-1q4.45-17.7 16.25-33.8 11.95-16.35 26.15-23.65l-0.8 2.45"/>
   <path d="m424.75 222.1q-1.15 9.4 2.65 16.25 2.95 5.45 3.55 7.55 0.75 2.5 0.05 3.15l-3.15-0.05q-6.45-1.8-14.2-6.4l0.7-1.75q8.4 4.95 13.75 6.5l1.35 0.1q0.2-0.25 0-1.25-0.25-1.15-1.3-3.15l-2.25-4.1q-2.1-4.05-2.8-9-0.7-4.85 0-9.75l1.65 1.9"/>
   <path d="m392.6 154.95q11.8 7.85 20.2 12 4.5 2.25 8.45 6.35l11.05 12.15q5.95 6.85 8.9 10.95 2.8 3.95-1.9 5.1-5.2 1.35-9.05 6.4-3.6 4.7-5 11.3l-1.25-3.25q1.75-6.1 5.4-10.3 4-4.55 9.55-6 1.05-0.3 1.15-0.8 0.15-0.45-0.55-1.45-2.85-3.95-8.8-10.7-5.5-6.3-11-11.95-3.65-3.8-7.85-5.9-8.8-4.45-20.15-12l-1.5 0.05q-2.2 1.5-3.75 2.8l-0.15-2.5 2.85-2.1q1.05-0.75 1.7-0.75 0.75-0.05 1.7 0.6"/>
   <path d="m378.85 185.45q-4.25-2.6-8.9-4.6-0.95-0.45-0.8-0.8l1.15-0.05q4.9 1.65 9 4.7 0.9 0.7 0.7 1-0.25 0.3-1.15-0.25"/>
   <path d="m389.2 175.7q15.4 10.35 25.2 22.7 9.9 12.5 13.3 26.05 0.35 1.45-0.05 1.6t-1.3-1q-4.55-6.1-10.7-10.3l-0.95-2.5 5.9 4.3q2.8 2.35 4.85 5.2-3.9-11.5-13.05-22.65-9.25-11.3-22.7-20.8l-0.5-2.6"/>
   <path d="m413.15 211.1q-0.8-1.45-0.35-1.7 0.4-0.25 1.35 1.1 2.4 3.6 3.35 8.4 0.9 4.85-0.05 8.7-0.4 1.55-0.95 1.55-0.5-0.05-1.05-1.3-4.95-11-9.95-16.7-0.8 7.8-4.85 13.45-3.1 4.35-7.85 7.15-1.15 0.7-1.45 0.4-0.3-0.25 0.05-1.55 1.35-5.05-0.2-10.4-1.95 5.4-6.65 10.75-4.75 5.35-8.45 6.25-1.1 0.25-1.35 0-0.2-0.2 0.15-1.25 2.6-7.65 1.9-13.2-3.45 3.8-8.7 6.85l-0.05-1.95q4.75-2.85 8.55-6.45 0.7-0.7 1.05-0.5l0.4 1q0.45 2.5 0.1 6.35-0.4 3.9-1.45 7.3 3.5-1.5 7.7-6.6t6.05-10.1q0.4-1 0.85-1t0.8 0.95q2.2 6.1 1.05 11 3.9-2.55 6.6-6.65 3.65-5.5 4.6-13.05 0.25-1.8 1.5-0.5 6.25 7.2 10.3 16.15 0.5-3.45-0.3-7.3-0.8-3.75-2.7-7.15"/>
   <path d="m361.05 176.35q6.45 4.35 11.55 10.2 5.4 6.1 10.65 15.3 1.2 2-0.8 3.55-3.25 2.4-6.75 7.15-3.85 5.15-5.7 10.2-1.55 4.25-1.2 12.55 0.25 7.4 1.65 12.95 0.7 2.9-1.6 3.95-2.25 1.05-3.5-0.9-4-6.2-9.8-10.65-7.5-5.8-17.3-8.15l1.25-1.5q9.75 2.45 17.3 8.5 5.75 4.6 9.8 10.9 0.7 1.1 1.75 0.45 1.1-0.7 0.7-2.3-1.5-6.05-1.9-13.35-0.5-8.55 1.1-12.9 1.9-5.3 5.95-10.75 3.7-5 7.15-7.6l0.45-0.5-0.25-0.75q-5.2-9.05-10.3-14.9-4.9-5.55-11.2-9.85-9.1-6.2-29.35-15.2-16.35-7.2-26.7-10.75l-0.85-0.1-0.55 0.65q-3.45 5.45-6.15 8.2l-1.1 1.4q-0.35 0.65-0.5 1.7-0.95 7.6-5.1 24.35l-6.15 23.35q-0.2 0.65-0.1 1.1l0.5 1q6.65 10.05 11.1 18.7 0.3 0.65 1.15 0.4 7.7-2.2 14.05-2.65l-0.55 1.75q-5.95 0.3-13.25 2.55l-1.7 0.2q-0.4-0.2-0.95-1.2-4.6-9.25-11.55-18.75-1.1-1.6-0.55-3.55 2.9-10.15 6.05-23.35 4.05-16.7 5-24.35 0.15-1.2 0.75-2.15l1.4-1.65q2.9-3.05 5.95-8.25 0.7-1.2 1.55-1.5l1.95 0.1q10.1 3.45 26.95 10.95 20.5 9.2 29.7 15.45"/>
   <path d="m338.2 190.95q-8.05 3.75-24.1 25.85-0.75 1.05-1.65 1.4l-2.35 0.35-13-0.95q-7.15-0.95-13.3-2.65l-1.05-1.9q6.1 1.75 13.6 2.85l13.7 1.05q1.75 0 2.7-1.25 7.35-9.85 12.05-15.25 7.75-8.8 12.75-11.05 3.1-1.45 8.35-1.8l9.45 0.6q3.3 0.8 12.4 5.45 8.65 4.4 14.2 8l0.6 2.2q-5.9-3.65-14.65-8.2-9.8-5.05-13-5.8l-9-0.4q-5.3 0.35-7.7 1.5"/>
   <path d="m324.3 209q0.5-3.85 0.15-7.55-0.55-4.65-3.4-15.4-3-11.45-4.35-12.8-1.6-1.55-8.2-4.8-6.7-3.3-14.05-6.05l0.6-1.5q7.7 2.9 14.5 6.25 6.8 3.3 8.45 5 1.6 1.6 4.7 13.7 2.85 10.95 3.35 15.45 0.35 3.25 0 6.65l-1.75 1.05"/>
   <path d="m335.85 191.4q-3 6.9-4.5 12.85-0.45 1.85-2 2.75-3.5 1.9-5.15 3.8-7.8 8.7-10.65 12.45l-1.7 4.4-2.05 6.2-1.4-1q2.85-9.55 3.75-10.7 3.9-5.1 10.7-12.8 1.7-1.85 5.6-4.15 0.75-0.45 1.1-1.45 1.55-5.55 3.85-10.9l2.45-1.45"/>
   <path d="m330.7 212.9q-3.55 3.3-5.9 6.6-0.85 1.2-1.2 0.95-0.35-0.2 0.4-1.5 1.7-3.05 5.45-6.7l0.45-0.75-0.15-0.85q-0.75-2.1-0.6-4.85l1.05-1.1q0.15 3.3 0.95 5.75 0.5 1.55-0.45 2.45"/>
   <path d="m323.6 222.75-1 6.5q-0.2 1.6-0.65 1.55-0.45 0-0.35-1.6 0.3-4.2 0.95-6.6 0.3-1.1 0.8-1.05t0.25 1.2"/>
   <path d="m346.05 209.1-12.5 2.8-1.4-0.1q-0.15-0.45 1.1-0.85 5.3-1.65 12.5-3.15l3.15-1.05 2.8-1.65q0.95-0.65 1.25-0.35 0.25 0.25-0.55 1.05l-2.7 2.1q-1.5 0.8-3.65 1.2"/>
   <path d="m354.1 203.05q1.6-1.4 3.75-2.15 1.25-0.4 1.45 0t-0.95 0.95q-1.65 0.7-3.6 2.1-1 0.7-1.3 0.3t0.65-1.2"/>
   <path d="m353.55 217.7q1.3 0.15 2.55 1.2 0.95 0.8 0.7 1.2t-1.3-0.25q-2.15-1.2-3.3-0.35-2.35 1.85-5.25 4.95l-8 8.55q-4.65 4.9-12.5 4.65l1.35-1.7q6-0.35 9.7-4.3l7.8-7.95q3.3-3.25 6.1-5.5 0.9-0.7 2.15-0.5"/>
   <path d="m357.3 189.45q3.6 3.4 5 12.35 1.3 8 0.1 14.05-1 5.55-5.95 7.8-4.2 1.95-10.5 1.3l1.4-1.7q11.5 0.7 13.05-7.8 1.3-6.95-0.45-15.4-2-9.55-6.4-10.95l3.75 0.35"/>
   <path d="m343.65 226.9q4.65 1.6 8.85 7.05 1 1.25 0.55 1.55-0.45 0.35-1.45-0.85-1.95-2.3-4.5-4.1-2.55-1.85-4.7-2.45l1.25-1.2"/>
   <path d="m405.6 250.15-0.7-0.8q-0.3-0.1-0.85 0.4-2.2 1.9-4.3 4.85l-4.65 7.05q-5.9 9.15-10.3 14.55-5.45 6.6-11.4 11.25l-0.45-1.95q5.6-4.45 10.75-10.85 4.15-5.15 9.9-14.05 2.95-4.55 5.1-7.25 2.25-2.85 4.7-5 1.1-0.9 1.8-0.75 0.85 0.15 1.75 1.8 8.05 14.9 8.7 34.35 0.8 23.15-11.6 34.05-14.85 13-34.1 15.6-13.65 1.85-32.8-1.6l1.5-2.2q20.5 3.85 36 0.6 15.5-3.2 28.15-14 11.9-10.1 11.1-33.1-0.7-19.45-8.3-32.95"/>
   <path d="m363.8 291.5 5.1-3.05 1.55 1.1q-2.75 1.9-6.3 3.8l-0.35-1.85"/>
   <path d="m361.1 294.9-5.8 2.55-0.15-1.9 4.2-1.8 1.75 1.15"/>
   <path d="m352.35 298.55q-4 1.5-9.7 3.2l-0.5-1.75 9-2.9 1.2 1.45"/>
   <path d="m414.8 241.65q-1.9 4.95-2.5 7.1-1 3.45-0.75 5.6 0.45 3.85 0.05 8.05l-1.65-3.5-0.3-4.4q-0.25-2.3 0.9-6.1l2.7-7.3q3.05-7.85 2.05-15.4l1.6 0.6q0.8 7.85-2.1 15.35"/>
   <path d="m385.8 228.15q3.3 3.3 6.7 9.25 2.9 5.15 4.2 9.15 0.55 1.55 0.65 4.5 0.1 3.15-0.35 6.45l-2 2.3q0.7-3.3 0.6-7.6-0.1-3.75-0.55-5.05-1.65-4.5-4.1-8.95-3.15-5.8-6.25-8.85l1.1-1.2"/>
   <path d="m367.95 231.85q3 4.55 9.55 10.5 5.5 5 10.5 8.45 1.35 0.9 1.85 1.85t0.6 2.7q0.35 5.6-0.45 12.55l-2.25 2.75 0.9-8.25q0.25-4.25 0.1-6.95-0.1-1.45-0.4-2.05l-1.2-1.2q-4.7-3.2-9.85-7.85-6.15-5.45-9.45-9.95l0.1-2.55"/>
   <path d="m264.7 160.7q6.55 5.1 26.75 17.05l-0.6 1.75q-18.5-10.8-27.1-17.6-1.9-1.5-1.75-2.45 0.2-0.9 2.45-1.15 5-0.55 14.7-0.25l17.2 1.2-1.2 1.75-16.55-1.25q-9.75-0.45-14.05-0.05-1.05 0.1 0.15 1"/>
   <path d="m284.95 204.05q-8.4 1.25-22.15 4.35l-1.15-1.2q11.35-2.75 23.75-5.15l-0.45 2"/>
   <path d="m289.75 224.25-9.85-1.7-1.7-2.05q5.1 1.2 10.55 1.85l1 1.9"/>
   <path d="m460 226.75 1.1 1.5 1.9 3.45q0.65 1.05 0.25 1.35-0.35 0.25-1.15-0.65-1.35-1.6-2.25-3.2-0.75-1.2-2.3-1.95l-10.4-4.7q-1.45-0.65-2.8 0-1.6 0.75-2.6 3.15-1.1 2.5-1 4.45 0.05 1.9 1.2 2.45 3.75 1.6 6.25 3.4 1.45 1.05 2.85 2.9l11.7 16.65-0.85 2.1q-4-6.3-12.3-17.7-1.15-1.6-2.4-2.5l-6.05-3.35q-1.85-0.9-2-3.65-0.1-2.45 1.15-5.35 1.15-2.7 3.2-3.85 2.1-1.2 4.3-0.25l10.45 4.65 1.75 1.1"/>
   <path d="m465.25 234.9q3.4 4.4 5.65 8.6 0.8 1.5 0.4 1.75-0.4 0.2-1.25-1.15l-5.65-8.65q-0.8-1.15-0.4-1.4 0.45-0.25 1.25 0.85"/>
   <path d="m448.3 219.55q-2.9-1.45-6.45-3.6-2.35-1.35-4.65-0.6-3 1.05-4.6 5.3-1.25 3.2-0.85 6.15 0.4 3.15 2.5 4.2l5.2 2.45q1.95 0.95 3.45 0.5l1.5 1q-1.3 0.7-2.85 0.75t-2.85-0.6l-5.3-2.55q-2.6-1.2-3.15-5.25-0.5-3.7 0.9-7.25 0.9-2.35 2.4-4 1.5-1.7 3.2-2.3 2.95-1.05 5.9 0.65l6.4 3.6q1.25 0.65 1.8 2.2 0.5 1.5 0.05 3.05l-1.45-0.6q0.35-2.25-1.15-3.1"/>
   <path d="m435.45 215.45q-4.3-1.8-8.15-4.2l0.65-1.55q3.85 2.45 9.2 4.55l-1.7 1.2"/>
   <path d="m431.9 229.85-8-3.75-0.15-2.15q2.65 1.45 7.4 3.55l0.75 2.35"/>
   <path d="m483.05 256.05q0.6 0.85 0.8 2 0.15 1.2-0.25 2.2l-1.45-0.75q0.3-1.25-0.45-2.45-2.25-3.45-4.7-6.35-1.35-1.55-4.45-1.4-3.3 0.15-5.7 2.15-2.3 1.95-3.55 4.6-1.25 2.6-0.5 3.95l3.8 5.75q0.9 1.3 2.6 1.7l0.45 1.65q-3.15-0.4-4.45-2.3l-3.85-5.9q-1.15-2 0.2-5.1 1.3-3.15 4.35-5.55 3.2-2.6 7.1-2.65 3.6-0.05 5.2 1.85l4.85 6.6"/>
   <path d="m481.75 258.15q4.3 2.1 8.1 6.55 1.45 1.65 1.55 4 0.1 1.6-0.35 2.85l-1.3-1.95q0.2-2.25-1.1-3.8-3.35-3.85-6.9-5.75-3-1.6-5.45-1.55-2.55 0.05-4.65 1.85-1.95 1.65-2.1 3.25-0.15 2.05 0.45 4 0.75 2.3 2.2 3.1t2.25 1.5l0.45 2.95q-1.4-1.85-3.4-2.95-1.9-1-3-3.9-0.95-2.55-0.8-4.8 0.15-2.35 2.8-4.55 2.7-2.2 5.7-2.3 2.4-0.05 5.55 1.5"/>
   <path d="m481.75 265.85q1.85 1.05 2.3 3.3 1.05 5.35-2.1 11.8-2.3 4.8-5.8 8.5-1.65 1.75-1.65-0.6 0.05-8.3-1.05-18-0.55-4.9 4.55-5.7 2.1-0.3 3.75 0.7m-3.45 1.2q-3.45 0.55-3.1 3.6 0.8 7.5 0.8 16.65 3.15-3.9 4.95-7.95 2.45-5.6 1.45-9.85-0.7-3.05-4.1-2.45"/>
   <path d="m483.55 270.35q2.1-2.1 4.1-2.75 1-0.35 1.7 0t1.3 1.45q1.95 3.6 2.35 9.55 0.35 5.85-0.95 10.9-0.3 1.15-0.85 1.2-0.5 0-0.95-1.05-3.9-10-6.8-14.65l0.75-1.95q1.7 2.55 3.55 6.7l3.25 7.6q0.85-4.6 0.35-9.55t-2.1-7.9q-0.45-0.8-1.2-0.55-1.75 0.6-4.15 3l-0.35-2"/>
   <path d="m485.4 278.95-3-0.3 0.5-1.7 2.4 0.25 0.1 1.75"/>
   <path d="m477.85 286.4q0.5 4.45 1 6.55 2-3.5 3.6-7.8t2.1-7.7q0.75 0.35 1.5 0.65-0.6 3.75-2.45 8.55-1.85 4.65-4.15 8.35-1.1 1.75-1.7-0.35-0.7-2.4-1.25-6.65l1.35-1.6"/>
   <path d="m359.1 272.5q-0.8 0.75-0.2 3.75 0.6 3.2 2.05 4.35l12.65 10.8q-1.85-10.6-7.35-16.2-2.15-2.2-4.2-2.9-1.95-0.65-2.95 0.2m2.7-1.9q2.6 0.6 5.2 3.05 6.55 6.25 8.25 19.15 0.2 1.35-0.2 1.45-0.3 0.1-1.2-0.65l-7-6.05-6.95-5.7q-2.3-1.95-2.85-5.7-0.55-3.6 0.9-4.9 1.4-1.25 3.85-0.65"/>
   <path d="m348.4 279.15q-1.6 0-2.6 2.95-1.1 3.35 0.85 6.6 3.85 6.25 7.9 11 0.1-7.6-2.3-14.4-2.15-6.15-3.85-6.15m0-1.9q2.9-0.15 5.45 7.4 2.6 7.8 2.15 16.55-0.15 2.25-1.6 0.65-5.6-6.35-9.2-12.25-2.4-4-0.85-8.25 1.45-3.95 4.05-4.1"/>
   <path d="m362.15 282.95q2.05 7.1 3.4 13.95 0.25 1.1-0.05 1.35-0.3 0.2-1.25-0.35-4.35-2.65-9.9-7.6l-0.4-2.5q6.35 5.7 9.95 8.1-1.3-6.15-3.35-12.85l1.6-0.1"/>
   <path d="m362.95 283.4q-0.35 0.4-1.2 0.55l-1.25-0.05q-2.05-0.45-3.95 0.8-1.95 1.35-2.6 3.8l-0.65-2.5q0.85-2.05 2.7-3.1 2.05-1.2 4.55-0.7l1.25-0.2 1.15 1.4"/>
   <path d="m361.75 269.45q2.1 1.4 3.3 3.45l-3.3-1.3q-1.95-1.95-5.7-2.6l-4.3-1q-1.85-0.6-3.85-1.8-1.1-0.65-0.95-1.1 0.2-0.4 1.35 0.15 3.65 1.7 8 2.2 3 0.35 5.45 2"/>
   <path d="m324.9 240.25 8.75 0.65q2.4 0.95 3.7 4.65 0.45 1.1 1 1.6 7.3 6.35 10.35 11.05 1.65 2.45 3.3 3.6 5.55 3.7 8.45 7.25l-2.95-0.3q-2.55-2.65-6.8-5.5l-1.9-1.6-1.6-2.25q-2.65-4.3-10.25-11.25-0.75-0.75-1.25-2.05-0.6-1.7-1.15-2.45-0.55-0.8-1.4-1.15l-7.55-0.6-0.7-1.65"/>
   <path d="m359.3 242.6q0.85 2.65 1.2 5.45 0.35 2.85 0 4.35-0.5 1.95-4.1 4.95-3.2 2.6-6.65 4.4l-1.1-1.4q3.2-1.7 6.3-4.2 3.35-2.75 3.75-4.2 0.45-1.5-0.05-5-0.5-3.6-1.65-5.95l2.3 1.6"/>
   <path d="m333.95 246.75q1.5 0.65 1.25 1.1l-1.7-0.05q-6.2-2.15-8.85-6.35-0.5-0.7-1.3-0.75-6.6-0.4-15.35-7.5l-0.8-0.15q-3.25 1.4-6.25 3.45-0.35 0.35 0.1 0.7 1.55 1.2 3.3 3.45l-2.4-0.65-2.25-2.1q-1.65-1.35 0-2.5 3.05-2.25 6.75-3.8l1.35-0.35q0.5 0.05 1.15 0.6 8.6 6.75 14.45 7.1 1.5 0.1 2.6 1.8 2.3 3.5 7.95 6"/>
   <path d="m185.7 151.5q-44.75-25.95-75.3-33.5 1.05 3.7 9.6 13.35 3.1 3.55 7.35 9.95 3.85 5.8 5.2 8.6 1.5 3.15 4.6 13.35l3.85 12.3 0.7 1.3 1.3 0.95q12.45 6.05 22.7 13 12.9 8.7 19.5 16.95l-3.8-1.3q-6.85-7.5-18.4-15.1-9.45-6.2-20.8-11.7l-1.95-1.3q-0.5-0.6-1.05-1.95-0.8-2.05-4-12.9-2.95-9.85-4.3-12.8-1.3-2.75-5-8.35-4.1-6.2-7.15-9.7-10.35-11.95-10.35-15.25 0-1.6 1.6-1.25 30.65 7.35 76 33.45 43.2 24.85 65.2 46.25l13 12.35q8.9 8.05 13.65 10.95 1.4 0.8 2.2 1.9l8.05 10.55q1.05 1.3 2.1 2 3.8 2.4 9.2 4.65 5.85 2.4 11.15 3.6 1.65 0.4 1.55 0.9-0.05 0.55-1.75 0.2-5.35-1.05-11.4-3.4-5.6-2.15-9.7-4.6l-2.4-2.25-8.3-10.45q-0.7-1-1.7-1.65-8.25-5-26.85-23.2-21.85-21.25-64.3-45.9"/>
   <path d="m346.25 290.25q-3.45-2.5-6-6.15l-2.05-2.55-2.6-1.7q-3.25-1.5-8.15-5.8-4.3-3.75-8.4-8.3-11.75 1-18.4-0.4-7.35-1.5-14.7-6.9-1.8-1.3-3.3-1.95-1.7-0.8-4.2-1.25-25.85-5.25-39.1-7.6-9-1.6-17.7-4.8-8.55-3.2-14.75-7.15-9.4-6.1-22.85-13.75-14.95-8.6-23.1-12.3l-1.4-0.85-0.75-1.3-4.2-10q-0.35-0.8-0.1-1.1l1.2-0.1q9.25 1.55 23.25 7.85 12.55 5.65 20.65 11.2 1.55 1 1.25 1.45-0.3 0.5-1.85-0.5-7.85-4.95-20.35-10.5-13.65-6.05-22.2-7.9l4 8.9 0.45 0.8 0.9 0.6q8.2 3.7 23.15 12.25 13.5 7.65 22.9 13.7 6.05 3.9 14.4 7 8.45 3.15 17.35 4.75l20.7 3.95 18.5 3.45q2.55 0.45 4.55 1.4 1.55 0.7 3.5 2.1 7.55 5.35 14.6 6.8 6.4 1.3 18.05 0.35l0.5 0.2q4.2 4.65 8.25 8.3 4.85 4.3 8.05 5.75 3.25 1.5 5.3 4.5 2 2.9 3.65 4.15l1 3.4"/>
   <path d="m330.3 234.75-5.9 5.5-2.05-0.4 6.9-6.1q0.25-0.25 0-0.4l-1.5-1.1q-0.4-0.25-1 0-5.45 2.15-11.4 5.2l-1.6-1q6.3-2.95 12.55-5.5l1.05-0.25q0.45 0 1 0.3l2.05 1.4q0.65 0.65 0.7 1.15 0 0.55-0.8 1.2"/>
   <path d="m319.25 245.65q-2.05-3.55-4.5-5.05-1.1-0.65-0.9-1.1l1.35 0.05q1.7 0.75 2.8 1.95 1.25 1.3 2.2 3.6 0.75 1.75 0.35 1.95t-1.3-1.4"/>
   <path d="m345.7 264.5q-5.4-1.35-11.4-5.05-6.2-3.85-11.1-9.1-1.25-1.4-0.9-1.75t1.7 0.95q4.55 4.55 10.15 8.05 5.45 3.4 10.55 4.95-0.4-1.2-0.55-3.25-0.05-1.35 0.35-1.4 0.45-0.05 0.65 1.3 0.25 2.1 1.3 4.25 0.45 0.85 0.25 1.05t-1 0"/>
   <path d="m276.9 247.35q3.85 1.7 9.6 1.35 2.3-0.15 5.1 0.65 3 0.85 5.65 2.6 1.5 1 1.25 1.4-0.25 0.35-1.8-0.4-5.65-2.75-10.1-2.5h-4.7q-3.15-0.3-5.65-1.5-13.15-6.35-26.25-11.35-1.6-0.6-1.4-1.1l1.85 0.05q10.55 3.75 26.45 10.8"/>
   <path d="m237.35 190.5q9.8 8.5 20.8 19.7 9.9 10.05 17.2 18.6 3.9 4.55 8.7 7 3.6 1.8 9.55 3.15 1.75 0.4 1.55 0.9l-1.8 0.2q-5.6-0.8-9.85-2.85-5.35-2.5-9.45-7.25-7.25-8.3-16.95-18.4-10.95-11.35-20.5-20.25-1.25-1.1-0.85-1.5 0.35-0.4 1.6 0.7"/>
   <path d="m342.9 291.6q0.3 1.55-3.25 20.75-3.55 19.15-4.9 23.3-1.9 5.95-4.1 10.9-2.35 5.2-5.75 10.95-1.3 2.2-2.25 2t-1.05-2.7q-0.55-10.95 0-28.25l0.2-0.45q2.7-2.05 3.05-5.3 0.9-7.3 0.1-21.65-0.4-6.55-4.9-11.6-2.5-2.85-9.85-8.1l-0.25-0.4q-0.55-5.7-0.95-15.65l1.6-0.15q0.35 7 1.1 15 7.2 5.15 10.05 8.55 4.55 5.4 4.95 12.35 0.9 14.6 0 22-0.4 3.8-3.3 6.15l-0.45 16.3q-0.15 7.35 0 11.1 0.05 0.8 0.25 0.8l0.6-0.7q5.95-10.45 9.3-21.65 1.3-4.35 4.7-23.05 3.4-18.65 3.15-20.1-0.2-1.15-4.35-6.65l-9.95-12.35 4.95 3.25q10.9 13.4 11.3 15.35"/>
   <path d="m341.45 297q2.95 4.6 3.15 12.6 0.1 1.65-0.45 1.7-0.5 0-0.65-1.6-0.6-5.85-2.75-10.1l0.7-2.6"/>
   <path d="m334.15 333.85q5.35-5.45 10.15-16 0.65-1.45 1.1-1.25 0.5 0.2-0.05 1.7-4.6 12.5-11.7 18.8l0.5-3.25"/>
   <path d="m297.6 344.95q-1.95-0.95-3.95-2.6-1.15-0.95-0.85-1.35 0.25-0.4 1.5 0.4 4.35 2.8 6.8 2.65l10.25-1.5q6.85-1.35 11.1-3.05l-0.15 2.3q-4.5 1.7-11.25 2.9l-9.95 1.2q-1.4 0.05-3.5-0.95"/>
   <path d="m310.25 272.2q-10.95 5.9-19.65 18.75-9.35 13.7-9.8 26.8-0.15 5.65 2.85 11.75 2.6 5.25 6.4 8.9 1.25 1.25 0.95 1.7-0.35 0.4-1.6-0.75-4.8-4.35-7.6-9.45-3.35-6.15-3.15-12.25 0.45-13.7 10-27.65 9.1-13.4 21.4-19.9l0.2 2.1"/>
   <path d="m289.35 290.55q3-1.75 6.15-1t5.5 3.8q3.8 4.95 6 14.25 2 8.4 1.25 12.7-0.75 4.2-5.15 9.8-4.7 6-10 8.65-1.25 0.6-1.5 0.2t1.05-1.2q4.25-2.65 8.65-8.5 4.25-5.75 4.9-9.45 0.7-3.95-1.25-12-2.15-8.7-5.45-13.15-2.3-3.05-5.25-3.35-2.95-0.35-6.35 2.15l1.45-2.9"/>
   <path d="m270.75 346.2q-0.45 3.25 1.3 9.2 1.8 5.9 4.6 10.55l-0.95 1.9q-3.4-5.25-5.4-11.8-2-6.45-1.45-10.1 0.55-3.7 5.2-8.85 4.3-4.8 8.75-7.25l0.9 1.5q-4.1 2.25-8.2 6.85-4.3 4.8-4.75 8"/>
   <path d="m280.7 359.85q-3.3 6.1-5.3 11.8-0.85 2.4-2.8 3.4-5.2 2.55-7.95 5-2.85 2.55-3.6 5.55l-2.2 3.35q-0.1-4.55 3.1-8.45 3.1-3.7 9.65-7.2l1.3-0.95 0.85-1.5q2.8-6.8 6-11.55 0.85-1.3 1.3-1.1 0.45 0.25-0.35 1.65"/>
   <path d="m288.65 338.05q-1.2 4.25-3.95 16.15-0.45 1.95-0.95 1.85t-0.15-2.1q1.5-8.4 3.6-17.65l1.45 1.75"/>
   <path d="m302.05 344.85q-2.3 2.85-3.45 6.65-0.9 3.1-1.5 8.4-0.2 1.6-0.7 1.5-0.5-0.05-0.45-1.65 0.3-5.15 1.1-8.4 0.9-3.8 2.85-6.45l2.15-0.05"/>
   <path d="m312.05 343.45q0.2 6.6-1.8 10.2-3.05 5.65-12.75 9.8-1.4 0.6-1.7 0.2t1.15-1.2q4.85-2.65 7.5-4.8 2.85-2.35 4.25-5 1.75-3.2 1.6-9l1.75-0.2"/>
   <path d="m280.25 395.35q3.25 3.25 9.35 7.35 5.4 3.7 10.6 6.45 1.7 0.9 2.15-0.6 2.4-7.8 1.85-23.25-0.55-16.75-4.6-21.95-0.6-0.75-0.7 0.05-0.2 5-1.7 9.75-1.9 5.85-5.15 8.2-1.25 0.9-1.55 0.45-0.3-0.4 0.9-1.35 2.15-1.75 3.7-5.45-3.35-11.8-4.75-20.05l-0.25-0.35-0.4 0.35q-2.85 4.85-5.55 15.5-2.6 10.35-4.4 23.3-0.15 0.95 0.5 1.6m2.25-25.2q2.75-10.5 6.05-15.95 0.9-1.45 1.8-1.3 0.95 0.1 1.3 1.8 0.8 3.85 2.3 9.7l2.1 7.85q1.25-4.2 1.5-8.45 0.1-1.75 1.2-1.95 1.15-0.25 2.35 1.35 4.1 5.5 4.75 21.95 0.55 15.35-2.05 23.85-1 3.1-4.15 1.55-5.2-2.55-11.15-6.45-6.3-4.2-9.6-7.4-0.75-0.75-0.95-1.4t0-1.75q1.9-13.45 4.55-23.4"/>
   <path d="m258.2 394.9q-1.95 7.05-1.95 11.7 0 1.2 0.9-0.05 4.05-5.7 9.65-8.75 0.8-0.45 1.1-0.95l0.45-1.4q1.3-7.95-1.95-11.55-1-1.15-1.9-1.1-0.8 0.1-1.75 1.3-2.5 3.2-4.55 10.8m3.1-11.9q1.5-1.85 3.2-1.95 1.75-0.1 3.2 1.55 1.85 2.1 2.55 5.5 0.65 3.5-0.05 7.65l-0.75 2.15-1.9 1.55q-2.9 1.65-5 3.4-2.15 1.9-4.3 4.6-3.35 4.25-3.5-0.95-0.1-5.2 1.75-12.3 2-7.65 4.8-11.2"/>
   <path d="m279.1 395.65q-4.4-0.75-11.65 3.6l1.35-2.5q5.65-3.2 9.95-2.8l0.35 1.7"/>
   <path d="m304.7 393.3q3.85 0.35 7.75 3 3.25 2.15 5.8 5.35 0.3 0.35 0.35-0.2 0.3-7.6-3.2-12.9-3.45-5.25-10.95-8.65l-0.1-1.95q16.7 6.75 15.75 23.6-0.15 2.35-0.9 2.55-0.7 0.2-2.1-1.5-2.15-2.8-5.05-4.75-3.5-2.35-7.35-2.9v-1.65"/>
   <path d="m414.7 288.2q2.25-0.05 3.8 0.9 7.6 4.7 11.75 8.9 5.7 5.75 7.25 12.5 1.2 5.45 0.15 15.2-0.85 7.95-2.65 14.65 4.4-5.1 9.2-11.75 5.65-7.75 6.8-10.9 1.15-3.25 0.4-13.05-0.8-9.8-2.5-13.3-1.65-3.35-13.85-12.7-12.25-9.35-20.9-13.95-1.25-0.65-2.45-0.45l-0.35-1.9q1.95-0.35 3.5 0.5 8.95 4.7 21.5 14.45 12.55 9.7 14.3 13.25 1.8 3.65 2.55 14.05 0.8 10.35-0.45 13.85-1.25 3.4-7 11.2-5.5 7.35-9.85 11.85-1.95 2-2.4 1.65t0.1-2.8q1.65-6.95 2.45-15.15 0.95-9.95-0.25-14.35-1.85-6.55-8.05-12.6-4.35-4.2-10.1-7.6-1.3-0.75-2.95-0.7v-1.75"/>
   <path d="m382.15 339.3q-0.6-12.9 12-13 6.5 0 11.8-2.15 5.75-2.35 7.5-6.3 1-2.2 0.55-5.4-0.55-3.55-2.75-6.35l0.9-2.2q2.55 3.3 3.4 7.75 0.75 4.2-0.45 6.8-2 4.4-8 7-5.6 2.4-12.95 2.6-5.2 0.15-7.95 3.1-3 3.1-3.05 9.15l-1-1"/>
   <path d="m401.7 344.1q0.95 2.3 3.15 4.25 7.8 7 13.85 13.4 1.1 1.1 2.7 1.4l16.9 4.2q1.85 0.5 3.25-1.55 1.25-1.95 1.05-4.15-0.7-6.3-2.7-11.1-1.2-2.85-0.3-3.4t3.25 1.35q8.1 6.5 13.7 18.5 5.6 11.9 6.2 23.85 0.1 1.4-0.45 1.75l-1.9-0.15q-11.1-4.05-17.5-4.1l-0.85-1.75q3.2-0.15 8.95 1.25 5.1 1.3 9.8 3.2 0.5 0.2 0.5-0.2-0.65-11.35-6.15-23.15t-13.1-18.1q-1.65-1.4-0.85 0.45 2.35 5.6 2.9 11.55 0.25 3.45-1.6 5.85-1.9 2.45-4.55 1.7-9.2-2.6-16.9-4.4l-1.9-0.6-1.45-1.15q-6.25-6.6-13.65-13.25-5.2-4.6-5.2-10.8 0-3.9 3.05-6.15 3.8-2.8 13-3.65 16.65-1.5 22.4-10.8l-0.1 3.5q-6.35 8.05-22.1 9.5-8.55 0.8-11.85 3-2.45 1.65-2.45 4.65 0 2.95 0.9 5.1"/>
   <path d="m461.25 385.85c2.1333 0.23333 4.3333 0.75 6.6 1.55 0.66667 0.26667 0.95 0.0833 0.85-0.55-0.5-1.9667-1.6167-3.95-3.35-5.95-1.8667-2.1333-4-3.7667-6.4-4.9l-0.5-2.1c2.8667 1.1 5.4333 2.9 7.7 5.4 2.1 2.3333 3.4333 4.7 4 7.1 0.3 1.3 0.46332 1.9336-0.15 2.5-0.62458 0.57678-2.55-0.05-2.55-0.05-2.1-0.7-4.0667-1.1667-5.9-1.4l-0.3-1.6"/>
   <path d="m399.7 346.7q0.5-1.05 1.95-1l0.95 1.7q-0.9-0.25-1.2 0.3-0.3 0.5 0.05 1.6 1.9 6.55 5.2 13 3.55 6.85 6.45 9.1 1.45 1.1 3.1 1.6l4 0.45q9 0 16.75 6.2 8 6.4 9.6 15.45 0.65 3.95-2.5 1.55-7.75-5.9-28.2-11.6-12.7-3.55-27.75-6.4-2.15-0.4-2.8-1.45-0.7-1 0.2-2.35 1-1.55 5.65-5.2 0.6-0.45 0.05-1.25-1.75-2.6-4.75-5.7l2.1-0.1q2.15 2.2 3.95 4.7 0.85 1.1 0.8 1.95 0 0.85-1.05 1.65l-3.3 2.6q-1.55 1.25-2.1 2.15-0.8 1.1 1.5 1.6 15.85 2.9 28.3 6.4 20.2 5.6 28.3 11.85l0.15-0.1q-1.8-8.45-9.15-14.35-7.3-5.85-15.75-5.85-5.2 0-8.1-2.3-3.1-2.45-6.9-9.75-3.5-6.8-5.45-13.5-0.6-1.9-0.05-2.95"/>
   <path d="m424.75 386.9q-0.75-3.55 0.4-6.7 1.25-3.45 4.1-4.1l1.8 1.25q-3.15-0.15-4.4 3.75-1.1 3.45-0.1 6.45l-1.8-0.65"/>
   <path d="m370.25 333.65q-0.8 0.25-1.45 1.2-1.6 2.35-2.4 5.65-0.8 3.5-0.1 6 1.55 5.25 9.15 10.05 5.4 3.35 10.8 5.05 1.65 0.5 2.55-0.25t0.9-2.55q0-4.3-2.05-9.6-2.2-5.6-5.5-9.25-1.4-1.45-1.1-1.8t1.8 1.05q3.8 3.6 6.25 9.55 2.35 5.55 2.35 10.05 0 2.95-1.5 4.15-1.5 1.15-4.15 0.4-5.95-1.7-11.75-5.4-7.9-5.1-9.6-10.95-0.85-2.85 0.1-6.7 0.85-3.6 2.8-6.4 1.05-1.55 2.3-2l3.25 0.25q2.6 1 4.8 2.7 1 0.8 0.8 1.15-0.2 0.4-1.3-0.3-1.7-1.05-4.9-2l-2.05-0.05"/>
   <path d="m275.75 298.25q4.65-1.8 11.05-3.6l-0.85 2.4q-4.65 1.15-9.75 3.1l-3.9 0.55q-2.05-0.15-3.6-1.1-1.15-0.65-0.95-1.1l1.4 0.05q2.9 1.15 6.6-0.3"/>
   <path d="m244.75 261.35q-1.15-1.15-3.35-1.65-32.4-7.6-63.05-23.5l-1.35-0.25q-0.25 0.35 0.05 1.95 0.85 4.45 2.6 10.95 1.6 5.8 3.15 10.45l-1.65 1.3q-1.45-4.35-3.2-10.95-1.75-6.7-2.7-11.55-0.6-3.05 0.4-4 0.9-0.9 3.2 0.3 30.85 16 62.95 23.5 2.65 0.6 4.05 2 1.5 1.4 2.4 4.25 3.1 9.8 6.7 17.65 4.95 10.9 9.35 14.55 1.5 1.25 1.2 1.6-0.35 0.35-1.85-0.7-4.9-3.4-10.1-14.2-3.85-8.05-7.05-18.35-0.75-2.3-1.75-3.35"/>
   <path d="m226.9 243.65q-1.2 5.55-1.75 10.75l-2.1-0.6q0.55-4.75 1.95-10.75l1.9 0.6"/>
   <path d="m187.4 233.25q0.15-5.4 0.8-9.8l1.8 0.8q-0.9 4.85-1.45 9.1-0.25 1.95-0.7 1.9-0.5-0.05-0.45-2"/>
   <path d="m141.85 234.8 10.55-0.85 7.8-0.3q1.15 0.15 3.5 1.2 2.3 1.05 4.4 2.35 7.4-10.9 12.95-18l1.4 1.05q-7.15 9.4-13.4 18.9l-0.55 0.45-0.6-0.25q-5.1-3.45-7.95-3.9-1.05-0.1-6.65 0.15l-10 0.75-1.45-1.55"/>
   <path d="m150.2 243.75q9.4-0.2 16.5-0.05l2.4 0.3q0.95 0.25 2.2 1.15l8.1 5.55 0.5 2.5q-2.6-1.45-9.5-6.35l-1.95-1.15-1.75-0.3q-9.05-0.2-15.2 0l-1.3-1.65"/>
   <path d="m162.05 260.35-0.8-1.65q2.9-0.1 6.1 0.1l4.55 0.55q1.55 0.4 3.2 1.6 1.7 1.2 2.85 2.8l-1.3 1.15q-2.7-3.35-5.15-3.95l-9.45-0.6"/>
   <path d="m235.4 277.65q-12.6 5.5-16.9 20.85-4.15 14.55 1.65 27.05l-1.85 0.6q-5.95-12.1-1.75-27.65 4.45-16.5 17.35-22.1l1.5 1.25"/>
   <path d="m214.2 266.3q-1.65-0.95-3.25-1.65l-1.4 0.1q-16.3 8.15-21.35 29.45-4.95 20.65 4 37.45 0.25 0.4 0.75 0.3l3.65-0.8-0.1-0.2q-7.2-17.7-2.3-36.1 4.85-18.3 19.1-28l0.9-0.55m1.5 1.45q-0.55 0.1-1.4 0.65-13.6 9.1-18.2 27-4.55 17.9 2.3 34.95l0.25 0.3 0.35-0.05q13.45-2.7 28.95-8.5 0.25-0.05 0.15-0.3-4.5-9.8-1.45-21.8 2.9-11.35 10.25-16.9l0.75-0.7q0.1-0.25-0.2-0.75l-1.7-2.45-1.6-1.6q-2.7-1.9-7.75-4.8-5.4-3.1-9.2-4.85l-1.5-0.2m-52.8 19q6.35-20.75 23.3-30.9 0.85-0.5 1.5-0.6l1.65 0.15q11.5 2.5 25.65 9.3 11.6 5.55 20.05 11.45l2.1 2.1 1.75 2.6q0.65 1.25 0.5 1.95-0.2 0.75-1.5 1.75-7.05 5.35-9.65 15.85-2.8 11.05 1.55 20.55 0.55 1.2 0.4 1.8-0.2 0.65-1.5 1.15-6.5 2.45-16.75 5.4-11.75 3.4-18.75 4.55l-9.7-1q-8.5-1.5-17.9-4.25-1-0.3-1.45-0.75l-0.75-1.45q-6.75-19.5-0.5-39.65m35.45-26.8q-5.5-1.8-9.4-2.65-1-0.25-1.9 0.3-15.55 9.35-21.9 29.2t0.1 38.9q0.25 0.85 1.1 1.05l11.7 2.9q8.05 1.8 12.1 2.25-8.7-17.1-3.65-38.05 5.2-21.8 21.7-30.3-4.3-1.8-9.85-3.6"/>
   <path d="m171.2 296.6q0.9 3.3 2.85 3.8 1.85 0.45 3.8-1.65 2.2-2.45 3.6-7.4 1.15-3.95 0.85-7.2-0.3-3.7-2.4-4.25-2.35-0.65-4.65 1.45-2.6 2.35-3.8 6.95-1.25 4.7-0.25 8.3m9.05-18.1q2.7 0.75 3.55 4.4 0.85 3.7-0.65 8.9-1.7 5.9-4.7 8.5-2.45 2.05-4.85 1.45-2.9-0.7-4.05-4.55-1.15-3.95 0.25-9.3 1.4-5.3 4.7-7.9 2.95-2.35 5.75-1.5"/>
   <path d="m204.3 287.6q-2.3 2.3-3.35 6.75-1.2 5-0.55 8.25 0.65 3 2.6 3.45 1.9 0.4 4-1.9 2.45-2.55 3.55-7.15 1.15-4.65 0.65-7.75-0.5-2.85-2.25-3.3-2.45-0.6-4.65 1.65m8.4 1.15q0.8 3.5-0.45 8.65-1.25 5.05-4.15 7.95-2.7 2.7-5.4 2.1-2.85-0.6-3.8-3.95-1.05-3.6 0.35-9.5 1.1-4.55 3.75-7.25 2.9-3 6.3-2.2 2.6 0.65 3.4 4.2"/>
   <path d="m145.4 237.05q13.35 13.65 19.35 27.25 0.75 1.65 0.25 1.85-0.45 0.2-1.25-1.35-6.4-12.6-18.95-25.65-10.45-10.85-19.3-16.5 1.4 6.1 7.15 21.95 0.8 2.15 0.35 2.3-0.45 0.2-1.4-1.85-6.1-13.3-8-23.8-0.2-1.25 0.05-1.35 0.15-0.05 1.3 0.55 9.35 5.15 20.45 16.6"/>
   <path d="m126.3 228.65q-5.75-6-13.2-12.05-7.45-6-13.5-9.6 6.3 12 12.45 28.85 0.65 1.8 0.15 1.95-0.5 0.2-1.2-1.5-8-19.4-13.7-30.75-0.5-1.1-0.25-1.3t1.35 0.35q6.2 3.25 13.65 8.9 7.95 5.95 13.5 11.75l0.75 3.4"/>
   <path d="m107.25 226.4q-4.65-2.95-8.45-4.35 3.95 12.85 7.15 21.4 5.3 14.05 10.7 22.8 1.1 1.7 0.6 1.95-0.5 0.3-1.55-1.35-5.85-8.8-11.2-22.75-4.2-10.9-7.45-23.05-0.2-0.75-0.05-0.95l0.95 0.05q5 1.65 8.8 4.15l0.5 2.1"/>
   <path d="m82.95 242.2q-2.9-0.1-6.75-1l-8-2.25q-3.6-1.25-5.65-2.3-1.35-0.65-2.75-0.55-1.45 0.1-2.7 1l-1.9-0.75q2-1.55 4.2-1.8 2-0.2 3.75 0.7 2 0.95 5.65 2.2l7.7 2.25q6.65 1.5 11.75 0.2l14.5-3.4 0.55 1.55-14.7 3.5-5.65 0.65"/>
   <path d="m91.2 250.8q-8.3 0.5-12.6-1.55-10.8-5.2-20.4-10.7-1.95-1.15-4.6-1.75-6.95-1.85-15.15-6.5-8.9-5.05-17.75-7.9-9.3-3-16.75-3.05 7.5 2.55 14.25 6.35 8.05 4.6 12.85 9.95l-2.95-0.7q-9.65-8.85-27.15-15.35-1-0.4-0.95-0.85 0.05-0.5 1.15-0.6 8.2-0.75 17.95 1.95 9.95 2.75 20.1 8.75 4.45 2.6 8.3 4.15l6.5 2.1q3.2 0.9 5 1.9 10.35 5.95 20.2 10.7 1.95 0.95 4.8 1.25 2.75 0.3 7.15 0.05l7.05-0.8 8.25-1.7 0.75 1.75-8.6 1.65-7.4 0.9"/>
   <path d="m118.7 295.35 2.7 2.2q1.35 0.85 3.65 1.85l14.85 6.8q2 0.95 3.05 1.65l2.9 2.7q2.75 3.35 4.85 5.35 2.75 2.65 5.35 2.65l6.6 0.35 0.4 2-7.05-0.35q-3.35 0-6.55-3.05l-5-5.5-2.55-2.45q-0.9-0.65-2.7-1.45-9.85-4.75-14.8-6.95-4.5-1.95-7-4.35-5.75-5.55-13-13.85-7.05-8.15-11.95-14.85-1-1.45-2.25-2.15-1.1-0.65-2.85-0.95l-8.2-1.1q-2.15-0.2-4.3-1.1-1.75-0.7-4.25-2.2-6.1-3.65-12.75-8.4-0.8-0.6-1.3-0.7-0.5-0.15-1.15 0-5.6 1-14.95 4.6-1.35 0.5-2.1 0.4-0.9-0.1-2-1.1-1.8-1.5-5-5.7l-4.75-5.9q-2.9-3.1-6.6-6.35-3.85-3.4-7-5.6-1.95-1.45 0.4-1.45 3.75-0.05 8.8 1.45 4.6 1.35 9.25 3.7 1.55 0.8 1.3 1.25-0.2 0.5-1.75-0.2-8.8-4-15.65-4.75 5.75 4.35 12.25 10.85 1.6 1.6 5 5.95 3.05 3.9 4.7 5.35 0.7 0.6 1.25 0.7l1.4-0.25q9.4-3.6 15.25-4.65l1.8-0.05q0.75 0.2 1.8 0.95 7.65 5.4 12.6 8.45 2.75 1.7 4.25 2.25 1.6 0.65 3.65 0.75l8.3 1q2.15 0.4 3.5 1.1 1.7 0.85 2.9 2.55 4.9 6.7 11.85 14.75 7.15 8.25 12.85 13.8"/>
   <path d="m250.95 274.65q8.2 0.75 14.05 7.55 5.8 6.8 7.7 17.7l-1.85-0.15q-2.05-10.05-7.05-16.05t-12.25-7.05l-0.6-2"/>
   <path d="m253.9 281.65q5.6 0.1 10.7 4.65 5.65 5.05 8.15 13.5l-1.9 0.1q-2.25-7.35-7.2-11.8-4.2-3.8-8.95-4.5l-0.8-1.95"/>
   <path d="m248.65 268.3q5.35 1.6 10.95 6.85 5.45 5.1 7.9 10.55l-5.9-5.05q-5.1-7-12.2-9.85l-0.75-2.5"/>
   <path d="m226.7 315.25q14.75-3.2 23.75-5.95l3.75-0.7 4.8 0.35 10.7 1.2q4.55-0.05 11.8-2.15l-0.6 2q-6.25 1.5-11.2 1.75l-4.85-0.4-6.05-0.85-8 0.3q-9.15 2.85-23.85 6.1l-0.25-1.65"/>
   <path d="m230.85 291.45 24.1 17.95-2.3 0.35-22.65-16.7 0.85-1.6"/>
   <path d="m161.1 319.8 1.9 0.1q-5.75 12.5-6.45 23.55-0.05 1 0.6 1.3l2.65-0.05q7.1-1.4 12.15-1.9 5.95-0.55 11.2-0.15 5.2 0.4 13.9 2.8l15.55 4.7 1.8 0.25q0.75-0.05 1.65-0.7 7.95-5.3 26.25-19.75 1.95-1.5 4.45-2 5.65-1.1 11.75-3.65 6.85-2.9 11.15-6.4 1.8-1.45 3.9-0.25l6.5 3.15 0.25 2.3q-4.2-1.7-7.6-3.55-0.75-0.45-1.2-0.45t-0.95 0.4q-4.4 3.55-11.45 6.55-6.35 2.7-12.05 3.85l-2 0.55-1.75 1.15q-19.2 15.05-26.3 19.75-1.2 0.85-2.35 0.95l-2.55-0.35-15.35-4.7q-8.55-2.3-13.7-2.75l-11 0.3q-4.75 0.5-11.95 2l-4.3-0.25q-1.25-0.8-1.1-3.1 0.35-5.35 2.05-11.6 1.65-6.15 4.35-12.05"/>
   <path d="m231.95 339.1q6.8 2.7 14.25 0.9 6.3-1.55 10.2-5.3 1.85-1.8 3.95-5 2.3-3.45 4.1-7.35l2.45-1q-2.2 4.8-4.65 8.75-2.55 4.2-4.55 6.05-4.45 4.3-11.95 5.8-8.35 1.65-15.3-1.55l1.5-1.3"/>
   <path d="m239.9 332.9q5.75 2.8 13.55-0.85 7.35-3.5 11.4-10l-1 4.35q-5.25 6-12.45 8.35-7.55 2.45-13-0.6l1.5-1.25"/>
   <path d="m221.65 346.65q11.9-1 23.2-5.7l6.65-0.7q-5.8 3.45-14.95 5.95-9.5 2.55-17.1 2.6l2.2-2.15"/>
   <path d="m271.5 318.2q-0.7 1.7-1.35 4.2-0.65 2.45-0.75 3.65l-0.75 15.05q-0.2 4.4-5.2 2.9-8.15-2.3-16.55-2.7l2.5-1.65q7.55 0.6 14.45 2.6l2.3 0.1q0.6-0.3 0.6-1.4 0-4.4 0.75-15.05 0.2-2.25 1.5-6.25l2.5-1.45"/>
   <path d="m103.8 295.5q1.7 2 3.85 3.15l7.75 3.65q1.55 0.75 3.1 2.45l9 10.15q1.9 2.05 4.05 2.95 1.8 0.8 5.85 1.5 5.6 0.95 11.2 3.15 4.9 1.9 11.05 2.8l-0.4 2.05q-5.6-0.8-11.3-3-4.9-2.05-10.85-3.1-4.2-0.75-6.3-1.65-2.6-1.05-4.65-3.3l-9.05-10.1-1.15-1.25-1.35-0.8-7.8-4q-2.4-1.3-4.25-3.5l-11.15-13.45-11.1-13.05q-1.5-1.65-3.8-3.05-17-9.6-27.4-14.8l2.2-0.7 25.75 14.05q2.65 1.5 4.5 3.5 5 5.6 22.25 26.35"/>
   <path d="m95.05 294.25q5.3 4.85 17.2 20.7 3 4.05 6.15 4.8 7.55 1.95 11.35 5.35l-1.2 1.45q-3.35-3.15-10.6-4.95-4.1-1.05-7.05-5.1-4.05-5.6-8.7-11.3-5.45-6.7-8.35-9.4-2.2-2-2.9-4.15-1.8-5.85-7.4-18.5l3.3 3.1q4.2 9.1 5.9 14.7 0.55 1.7 2.3 3.3"/>
   <path d="m132.7 342.6q-6.6 6.1-14.65 10.05l-1.05 0.2q-0.25-0.2-0.2-1.05 0.7-7.5 5.1-16.15 4.15-8.05 9.5-13.45 1.1-1.1 1.45-0.75 0.4 0.4-0.65 1.55-4.75 5.3-8.55 12.85-4.05 8-5.05 14.75 8.25-4.6 15.05-11.5l-0.95 3.5"/>
   <path d="m136.15 333.85q-2.95 8.05-5.55 18.35-2.3 9.15-3.6 17.2 13.2-6 23.6-15.35 1.2-1.05 1.55-0.7 0.3 0.35-0.8 1.55-4.75 5-11.8 9.6-6.6 4.3-13.25 6.95l-1 0.15-0.1-1.05q1.15-9.25 3.6-18.7 2.6-10 6.3-18.4 0.65-1.45 1.15-1.3 0.45 0.2-0.1 1.7"/>
   <path d="m144.5 366.95q7.65-3.15 18.25-10.6 9.95-6.95 15.95-13l2.15 0.1q-6.75 7.1-17.45 14.45-11.15 7.75-19.75 10.95-1.3 0.45-0.95-0.75 1.3-5.1 2.75-9.1l2.2-1.3q-2.1 5.4-3.15 9.25"/>
   <path d="m142.15 135.1q-10.2-6.6-30.65-13.25l-0.55-1.85q8.55 2.6 16.7 6.1 9.45 4.1 15.15 8.05 1.65 1.2 1.3 1.6-0.3 0.4-1.95-0.65"/>
  </g>
 </g>
</svg>
