<?xml version="1.0" encoding="UTF-8"?>
<svg version="1.1" viewBox="0 0 394.78 347.39" xmlns="http://www.w3.org/2000/svg">
 <g transform="matrix(.86 0 0 .86 .0037391 -.01547)">
  <path d="m299.05 45.85q10.45-2.9 22.65-1.9 1.4 0.1 1.55 0.95 0.1 0.9-1.5 1.75-2.35 1.3-11 4.3-8.2 2.8-12.35 5.35-12.85-0.15-26.4 2.8 14.55-9.85 27.05-13.25" fill="#6fba2c"/>
  <path d="m321.15 43.3q2.95 0.25 3 1.55 0.1 1.3-2.9 2.85-3.1 1.6-10.7 4.1-7.25 2.45-11.4 4.7l-2.95-0.15q5.85-3.4 13.6-6 8.9-2.95 11.05-4 1.2-0.55 1.2-1t-1.05-0.55q-11.25-0.85-19.9 1.4-11 2.9-27 12.35l-6.45 2.15q16.7-11.75 30.95-15.6 10.45-2.8 22.55-1.8" fill="#0f141b"/>
  <path d="m291.55 36.05q12.8-5.2 26.9-6.2 1.4-0.1 1.95 0.85 0.6 1-1.05 1.85-12.7 7-22.75 13.4-10.5 6.65-15.8 11.2-7.15 1-11.6 2.9l-6.4 1.95q-4.35 1.45-6.55 2.9l5.55-7.35q12.05-14.3 29.75-21.5" fill="#f3993a"/>
  <path d="m296.5 47.35-15.45 9.75-3.1 0.5 16.55-11q10.4-6.7 23.75-14 1.25-0.7 0.95-1.35-0.25-0.7-1.55-0.5-18.85 2.5-31.75 8.8-17.1 8.3-28.1 24.7-0.65 0.9-2.75 1.25 10.65-17.25 27.8-26.5 15.1-8.15 34.45-9.65 3.3-0.25 3.95 1.3 0.6 1.65-2.55 3.35-10.5 5.7-22.2 13.35" fill="#0f141b"/>
  <path d="m287.25 30.15q-11 11.55-14.95 16.1-8 9.15-12.8 16.95-8.25 3.5-16.85 11.65l-5.65 5.85q4.75-19 15.8-32.1 12.9-15.3 33.2-20.9l2.3 0.15q0.45 0.7-1.05 2.3" fill="#5ec2d0"/>
  <path d="m287.55 31.05-12.1 13.5c-6.6 7.4333-11.717 13.733-15.35 18.9l-3.1 1.2c5.8667-9.5 15.65-21.05 29.35-34.65 0.7-0.7 1.0878-0.97895 0.8-1.45-0.28689-0.46954-1.65 0.05-1.65 0.05-12.7 3.7667-23.217 10.633-31.55 20.6-7 8.4-11.833 18.067-14.5 29l-3.75 4.95c2.0333-11.767 6.6167-22.4 13.75-31.9 9.1-12.133 21.067-20.183 35.9-24.15 2.0333-0.53333 3.25-0.41667 3.65 0.35 0.36667 0.76667-0.11667 1.9667-1.45 3.6" fill="#0f141b"/>
  <path d="m222.25 120.35 13 14.3q4.75-4.05 13.05-4.85 7.95-0.8 15.15 1.7 5.45 9.5 2.75 18.5-2.45 8.1-10.85 14.3-7.9 5.85-18.55 8.25-10.8 2.45-20.4 0.35-19.85-7.8-28.95-22.4-4.1-6.55-4.6-12.8-0.55-6.35 2.65-11.05 4.6-6.85 14.05-6.75t17.55 7.15q2.15-4.25 5.15-6.7" fill="#fff3c3"/>
  <path d="m230.25 193.95q0.8-5.95 0.95-11.8 0.05-1.8-0.65-2.7-0.6-0.8-2.25-1.45-3.05-1.1-12.5-5.3 9.35 1.9 20.2-0.3 10.95-2.2 19.05-7.7 8.8-5.95 11.3-14 2.9-9.05-2.9-19.2 4.25 1.55 8.9 3.6 4.65 2.1 5.7 2.9l2.1 1.4q2 13.2-7.8 29.15-3.95 6.5-8.35 10.5-4.45 4.1-7.25 3.8l-4.05 18.9 0.05 9.05q0 2.25 0.95 3.85 7.5 12.7 12 25.5 5.5 15.45 8.35 35.5 0.55 3.6 3.25 15.7 2 10.5 0 11.35-1.45 0.65-6.2-5.35-4.2-5.35-6.7-10.15-1.3 7.05-5.2 14.35-3.9 7.15-5.8 6.4-1.75-0.6-2.85-8.4-1-6.95-0.8-13.25-1.25-1.25-2.85-5.35-1.5-3.65-2.6-7.8-1 4.8-3.15 10.25-2.2 5.5-3.15 5.55-1.05 0.1-3.5-2.65-2.55-2.8-4.75-6.65-1.2 8.7-4.3 17.9-3.25 9.7-5.4 9.65-2.05-0.05-4.5-8.3-2.1-7.35-2.85-14.5-3.4 7.15-8.55 13.7-4.95 6.2-6.35 5.7-1.6-0.55-1.85-9.4-0.3-9.55 1.35-21.7 4.55-33.1 18.85-53.8-9 7-18.85 6.9-6.3-2.8-6.7-4.6-0.35-1.4 2.3-1.55l8.1-0.85q4.55-0.85 6.05-2.5-2.4-1.45-3.9-2.95-1.7-1.65-3.35-4.3-0.8-1.35-0.1-1.85l2 0.05q7.05 2.5 11.95 3.55 3.45 0.75 6.5-0.9 5.5-2.95 7.8-6.65 1.35-2.2 2.3-9.3" fill="#59bded"/>
  <path d="m234 142.55q0.35-4.45 1.2-8.35 6.95-3.8 12.05-4.15 0.25 8.5-3.9 15.55-4.2 7.15-9.3 6.05-0.4-4.05-0.05-9.1" fill="#3e4e57"/>
  <path d="m180.9 15.95q13.3 9.6 20 17.1 1.95 2.2 0.3 3-1.45 0.75-6.4 0.65 7.1 4.9 15.2 12.45 8.45 8 12.9 14.25 1.15 1.6 0.85 2.3-0.35 0.8-2.6 0.95-4.75 0.25-11.4-1.85 3.6 7 14.05 17.7 8.8 9.05 16.85 15.3 1.5 1.2 1.25 2.6-0.2 1.25-1.75 2.3-1.3 0.95-3.95 1.55l-4.45 0.65 1.3 4.9q-2.8 0.95-6.1 5.15-2.7 3.5-3.9 6.45-3-3.95-7.05-7.2-3.45-2.8-8.45-5.65-1.6-0.95-2.25-2.1-0.6-1.15-0.55-3 0.25-11.6-5.55-22.6-5.9-11.25-16.15-18.15-5.55-3.75-7.8-7.9-5.4-10-12-25.25-6.65-15.45-10.2-26.1-0.6-1.75-0.05-2.4t2.25 0q11.05 4.35 25.65 14.9" fill="#00568b"/>
  <g fill="#e8390e">
   <path d="m439.8 94.65q4-4.9 7.25-10.2 3.65-6.05 4.85-10.25 0.5-1.85 1.55-2.15t1.6 1.6q4.5 15.25-1.5 29.3-5.7 13.3-17.15 18.1 5.6-0.75 17.85-6.5 1.85-0.85 2.95-0.45 1.3 0.5 0.7 2.55-2.95 10.3-14 15.05-9.2 4-22.15 3.6-9.35-0.3-13.3-0.15l-9.9 1q-9.75 7.9-18.75 19.55-9.5 12.4-19.55 17.3-9.65 4.7-22.85 3.9 6.15 1.75 14 3.05l11.85 1.35q3.3 0.2 4.1 1.55 0.9 1.45-1.6 3.35-5.9 4.55-17 6.15-13 1.95-26.35-1.7 2.35 2.5 7.15 4.75 5.25 2.45 9.95 2.75 2.3 0.1 2.75 1.05 0.5 1.05-2 2.1-8.45 3.55-21.95 1.4-15.9-2.5-27.55-12.05-5.75 8.45-13.95 12.15-7.55 3.4-15.5 2.2-7.7-1.15-13.45-6.15-5.95-5.15-7.85-12.9-0.4-1.65 0.6-1.8 0.95-0.15 1.95 1l4.5 4.35q-3.05-3.75-4.15-8.3-0.85-3.5-0.65-8.15 0.05-1.5 0.9-1.8t1.75 1.05q6.05 8.95 15.7 8.55 9.7-0.4 14.05-10.2-4.25-2.05-6.4-5.35-2.4-3.75-2.7-9.85-0.05-1.45 0.6-1.95 0.7-0.55 1.75 0.4 4.6 3.95 9.6 3.85 2.15-2.35 2.75-8.2 0.45-4.85-0.3-10-0.4-2.9-4-5.75-3.65-3-9.35-4.9-14-4.55-29.55 0.25-2.25 5.25-2.8 13.45-0.55 7.65 0.55 14.8 0.25 1.65-0.35 2.15-0.65 0.45-1.95-0.6-5.7-4.5-8.6-11.95-2.7-6.9-2.5-14.65 0.25-7.6 3.2-13.6 3.15-6.35 8.45-8.95-1.1-2.8-1.3-4.9l4.2-0.65q2.45-0.55 3.85-1.45 1.8-1.1 2.15-2.3 0.4-1.4-1.3-2.7l-8.6-7.25q5-11.5 15.5-19.75 10-7.8 23.55-11.65 13.3-3.8 27.75-3.15 14.75 0.7 28.1 5.9 13.2 5.2 24.75 1.5 10.75-3.5 15.1-12.75 0.85-1.75 1.95-1.8 1.2-0.05 1.65 1.8 1.25 4.85-0.85 10.85-2.45 7.15-8.65 11.7 6.65-2.4 9.35-6.4 1-1.55 1.9-1.5 0.9 0 0.85 1.75-0.3 8.9-7.05 15.8-6.35 6.5-14.4 7.55 8.55 2.5 16.5 6.5 9.25 4.6 16 10.5 5.65 4.85 13.3 6.05 7.7 1.2 15.15-1.65 17.55-6.65 22.75-28.75 0.5-2.15 1.65-2.45 1.15-0.25 1.65 1.7 1.7 6.4 1.25 12.35"/>
   <path d="m214.7 112.9 4.05 3.6 3.5 3.85q-3.05 2.65-5.15 6.7-3.25-2.85-8.3-5.4 0.5-2.4 2.15-4.8 1.55-2.3 3.75-3.95"/>
   <path d="m184.9 127.25q1.5-2.35 3.65-4 1 2.55 0.65 5.1-0.3 2.5-1.65 2.7-1 0.1-1.65-0.75-0.8-0.95-1-3.05"/>
   <path d="m205.9 126.6q0.6 0.7 0.25 2.1-0.35 1.3-1.45 2.55t-2.45 1.7q-1.45 0.5-2.2-0.2-0.8-0.7-0.3-2.35 0.45-1.55 1.7-2.8 1.25-1.2 2.5-1.45 1.25-0.3 1.95 0.45"/>
  </g>
  <path d="m235.2 134.2 1.5-4.55 1.5-4q13.35-7.5 38.65-9.55 23.35-1.85 39.65 1.85 1.7 0.35 1.9 1.45 0.2 1-1.1 2-4.85 3.85-14.45 8.65-10.5 5.3-20.4 8.5l-2.25 0.4q-0.95-0.1-2.15-0.95-10.7-7.3-23.05-8.3-12.1-0.95-19.8 4.5" fill="#59bded"/>
  <path d="m192.45 176.7q-0.35-3.05 1-2.35l1.55 1.35 2.5 1.75q-2.05-3.85-2.05-7.2 0-1.35 0.75-1.65 0.75-0.25 1.7 0.7 6.15 6.15 13.4 7.25 5.8 0.9 10.6-1.55l7.05 3.3q1.45 0.65 1.95 1.7 0.4 0.9 0.4 2.95 0 5.15-1.25 12.95-12.25 5.95-24.4-0.65-11.85-6.4-13.2-18.55" fill="#e8390e"/>
  <path d="m103.9 144.45q1.4-1.85 2.55-1.55 1.25 0.35 1.35 3 1.1 23.8 8.25 37.25 6.6 12.5 23.85 25.4 13 9.8 16.9 15.6-2.95 1.35-5.05 3.05-9.75-6.45-22.5-5.45-12.5 0.95-22.55 8.55-3.05 6.4-3.05 18.35 0 24.85-14.3 38.9-6.35 6.25-14.3 8.65t-15.9 0.45q-11.25 8.65-25.1 6.05-14.15-2.65-20.05-15.25-5.6-2.85-9.3-8.45-3.55-5.35-3.8-10.6-0.15-3.85 2.6-2.35 4.4 2.4 11.3 2.35 6.7-0.1 13.35-2.4 6.95-2.4 11.4-6.45 4.9-4.45 5.5-9.85 1.25-11.1 6-20.2 4.5-8.5 13-16.95-5.45 0.7-10.8 2.7-3.9 1.5-9.45 4.45-2.05 1.1-3 0.2-0.8-0.85-0.3-2.35 4-12.05 19.5-20.65 13.9-7.75 26.15-7.75-5.45-7.25-6.05-17.3-0.45-7.5 1.7-14.15 0.85-2.65 2.1-2.3 1.15 0.35 1.65 2.8 1.1 5 3.85 9.95 2.65 4.75 6.25 8.5-0.25-9.4 1.8-17.75 2.15-8.7 6.45-14.45" fill="#59bded"/>
  <path d="m234.4 155.05-0.35-3.4q4.45 1.5 8.85-5.35 4.55-7.05 4.35-16.25 3.25-0.3 6.8-0.15 1 7-1.15 13.4-2.4 7.1-8 11-2.35 1.65-5.7 1.8-3.05 0.1-4.8-1.05" fill="#fff"/>
  <path d="m247.1 223.25q1.85 2.35 3.45 6.4 1.9 4.8 1.85 8.35-0.05 2.5-1.4 6-1.4 3.6-3.85 7.25-0.65 1-1.15 1.05-0.45 0.1-1-0.75-2-3.15-3.65-7.7-1.7-4.55-1.6-6.65 0.1-2.85 4.95-13.85 0.55-1.2 1.15-1.15 0.45 0.05 1.25 1.05" fill="#fff3c3"/>
  <path d="m139.45 244.55q4.1-9.5 11.1-16.5 5.7-5.7 18.2-6.85 12.15-1.1 21.55 2.8 6 2.5 13.55 0.6 6.2-1.55 12.3-5.7-7.95 10.75-13.1 28.15-4.5 15-5.8 30.5-8.9-0.5-17.1-4.15-5.55 14.4-20.05 26.45-14.35 11.85-26.7 12.7-1.9 0.15-3 1.25-1 1-1.9 3.35-2.95 7.55-7.05 22.55-4.05 14.85-6.7 27.65l-3.5-0.1q0.7-5.25 1.05-14.4 0.4-9.9-0.35-10.1-0.7-0.15-6.75 8.25-5 7-9.85 14.4-1.85-0.45-5.15-1.75-3.3-1.35-6.25-2.85 4.5-11.2 13.85-28.65 8.2-15.35 14.7-25.6 1.6-2.5 3.15-3.6 1.55-1.15 3.6-1.15 4.9 0 9.3-8.45 4.95-9.55 5.5-23.8 0.6-13.9 5.4-25" fill="#fff3c3"/>
  <path d="m111.25 367.25 3.5 0.1-1.95 10.7q-0.35 2.45-1.75 3.5-1.45 1.05-4.65 1.1-5.25 0.1-11-1.15-6.25-1.35-11.6-3.95-2.05-1-2.7-3.55-0.6-2.4 0.15-5.3 0.9-3.5 2.7-7.9 2.95 1.5 6.25 2.85 3.3 1.3 5.15 1.75 4.85-7.4 9.85-14.4 6.05-8.4 6.75-8.25 0.75 0.2 0.35 10.1-0.35 9.15-1.05 14.4" fill="#00568b"/>
  <path d="m143.3 309.8q5.9-2.4 10.95-5.65 4.55-2.9 9.75-7.35l5.3 0.1q1.35-2.35 2.4-5.5 0.9-2.75 1.2-4.85 3.55-5.25 7.25-13.15 6.6 3.1 16.75 4.05-1.15 10.2-1 17.8 0.25 8.9 2.4 8.3-4.25 8.35-13.3 10.7-7.65 2-14.95-0.8-3.3 7.2-8.35 15.4l0.15-3.65q-0.15-1.4-0.5-1.6-1.05-0.6-8.25 3.8-6.45 4-10.9 7.5-3.8-1.9-5.95-6.65-1.7-3.8-2.5-9.85l4.9-4.3 4.65-4.3" fill="#fff3c3"/>
  <path d="m124.75 329.5q1.3-3.6 4.25-6.6l4.75-4.5q0.8 6.05 2.5 9.85 2.15 4.75 5.95 6.65 4.45-3.5 10.9-7.5 7.2-4.4 8.25-3.8 0.35 0.2 0.5 1.6l-0.15 3.65q-6.6 10.9-13.3 19.35-1.5 1.95-4.1 2.75l-4.3 0.35q-5.9-1.2-9.85-4.75-4.1-3.7-5.75-9.6-1-3.6 0.35-7.45" fill="#00568b"/>
  <path d="m212.7 284.4q0.15 4.2 1.55 9.9 1.25 5.1 2.65 8.25-2.15 6.05-3.95 16.1-1.5 8.5-2.15 16.25-0.8 10.4-1.25 50.6l-8.05 1.2q0.25-7.85-1.3-18.9-1.5-10.55-2.5-10.65-0.85-0.05-6.1 11.45-4.95 10.85-7.05 16.7-4.7-1.35-10.15-4.55 3.6-11.9 11.95-32.8l9.55-23.15q3.75-9.4 4.35-22.35 5.55-5.55 12.45-18.05" fill="#fff3c3"/>
  <path d="m172.45 394.7q-0.8-2.4-0.25-5.3 0.7-3.65 2.2-8.65 5.45 3.2 10.15 4.55 2.1-5.85 7.05-16.7 5.25-11.5 6.1-11.45 1 0.1 2.5 10.65 1.55 11.05 1.3 18.9l8.05-1.2-0.1 9.3q-0.05 2.8-1.2 4.45-1.05 1.5-3.2 2.15-6.65 2.15-14.9 1.25-7.65-0.8-14.1-3.85-2.65-1.3-3.6-4.1" fill="#00568b"/>
  <path d="m244.55 272.55q0.8 4 2.15 7.7 1.5 4.2 3.05 6.05-0.2 7.6 0.85 14.35 1.1 7.25 2.8 7.3 1.9 0.05 5.35-5.65 0.6 4.4 2 9.35 1.5 5.25 3.3 9.25 8.2 18.05 15 39.3-3.65-4.1-4.8-3.8-0.75 0.15-1.25 10.6l-0.6 16.1q-9.2 0.7-22.05-2.55-2.15-32.9-2.05-48.15 0.1-9.8-2.5-23.9-2.25-12.4-5.5-22.7 2.55-6.4 4.25-13.25" fill="#fff3c3"/>
  <path d="m250.7 385.9-0.35-5.35q12.85 3.25 22.05 2.55l0.6-16.1q0.5-10.45 1.25-10.6 1.15-0.3 4.8 3.8 4.65 14.45 6.65 24.6 0.85 4.3-0.25 7.1t-3.9 3.65q-4 1.25-11.25 1.55-6.1 0.25-11.25-0.3-7.7-0.85-8.35-10.9" fill="#00568b"/>
  <path d="m66.65 235.8q1.55-0.45 2.15 2.3 0.65 3.3-1.85 8-1.9 3.5-4.15 5.15-2 1.45-3.25 0.8-1.15-0.6-0.85-3.6-1.75 1.75-3.25 2.5-1.5 0.7-2.4 0.2-1.55-0.85-0.8-5.35 0.75-4.75 3.65-10.25 2.75-5.15 6.35-8.05 3.35-2.65 4.95-1.6 1.25 0.8 1.1 3.5-0.2 2.65-1.65 6.4" fill="#bae3f9"/>
  <path d="m38.8 277.5q-2.1-0.1-2.45-1.2-0.4-1.25 0.9-2.85 1.4-1.75 3.85-2.75 2.5-1.1 4.75-0.9 2.2 0.15 2.65 1.3 0.45 1.2-1 2.85-1.55 1.75-4 2.7-2.55 1-4.7 0.85" fill="#bae3f9"/>
  <path d="m234.65 137.95 0.75-3.75q4.65-3.5 11.65-4.35l-0.05 3.6q-7.1 0.95-12.35 4.5" fill="#28343b"/>
  <path d="m237.45 133.55q2.25-1.65 4.95-2.4 0.8 1.55 0.1 4-0.65 2-1.8 2.85-0.95 0.7-2.05 0.45-0.95-0.2-1.35-1.55-0.4-1.45 0.15-3.35" fill="#fff"/>
  <path d="m237.45 133.55q2.25-1.65 4.95-2.4 0.65 1.15 0.25 3.2-2.9 0.8-5.45 2.1-0.2-1.5 0.25-2.9" fill="#dcdddd"/>
  <path d="m254 129.8 0.1 3.45-7.1 0.2 0.05-3.6q3.25-0.35 6.95-0.05" fill="#dcdddd"/>
  <path d="m254 129.8q4.9 0.35 10 2l1.6 3.6q-6.1-1.85-11.5-2.15l-0.1-3.45" fill="#dcd2a9"/>
  <path d="m280.55 139.3q-1.35 1.55-2.95 0.7-4.1-2.15-12-4.6l-1.6-3.6q9.25 2.85 14.1 6.2 1.65 1.15 2.45 1.3" fill="#4da5ce"/>
  <path d="m223.1 121.35-1.1 3.95q-0.95-1.4-2.1-2.55l2.35-2.55 0.85 1.15" fill="#dcd2a9"/>
  <g fill="#c93008">
   <path d="m266.2 153.85q1.7 9.2 8.15 12.55 6.4 3.35 14.25-0.7 2.1-1.1 2.8 0.3 0.65 1.4-1.15 2.45-4.9 2.95-9.9 3.1-4.65 0.1-8.35-2.2-3.65-2.25-5.25-6.25-1.65-4.2-0.55-9.25"/>
   <path d="m243.55 183.35q-2.6-6.75-0.3-12.4 0.3 7.35 2.75 12.4 2.75 5.65 8.3 8.95 2.5 1.5 1.95 2.5-0.6 1.05-3.1-0.4-6.85-3.85-9.6-11.05"/>
   <path d="m242.3 184.7 2.1 2.6q1.4 1.75 3.35 3.5 2.85 6 9 8.3 5.8 2.2 13.15 0.75 7.25-1.4 13.8-5.95 6.95-4.85 11.15-11.9-3.85 11.3-12 17.5-7.4 5.6-16.5 5.75-8.8 0.15-16-4.75-7.5-5.2-10.4-14.15-0.6-1.8 0.3-2.4 0.85-0.55 2.05 0.75"/>
   <path d="m196.3 168.8q2.95 10.15 14.35 14.3 9.65 3.55 20.55 1.7-0.4 6.65-1.15 11.05-5.3 2.8-11.75 2.7-6.3-0.1-12-2.95-12.95-6.45-14-20.2 2 3.8 4.8 6.05 2.25 1.85 6.55 3.8-4.2-3.5-6.7-9.25-2.45-5.65-0.65-7.2"/>
   <path d="m353.45 77.05q-1.85 0.5-2.25-1t1.2-2.1q7.55-2.85 12.3-9.5 5.25-7.25 4.35-15.8 1.65 2.2 1.65 6.2 0 4.2-1.8 8.5-4.5 10.7-15.45 13.7"/>
   <path d="m345.5 90.85q-2.4-0.15-2.4-1.85 0.05-1.75 2.35-1.7 8.85 0.2 17.4-7 8.4-7.1 9.4-15.15 1.4 3.85-0.1 8.55-1.45 4.6-5.15 8.6-8.75 9.35-21.5 8.55"/>
   <path d="m437.05 80.75q1.75 1.4 2.5 6.15 0.65 4.05 0.3 7.95l-3.65 4.2q1.5-4.4 1.65-8.75 0.15-3.95-0.8-9.55"/>
   <path d="m453.55 71.9q2.9 3.2 3.45 10.55 0.6 7.6-1.7 15.6-5.8 20.35-23.5 24.45-2.1 0.5-2.35-1.1t1.7-2.15q12.55-3.5 19.1-16.85 6.8-13.75 3.3-30.5"/>
   <path d="m400.75 135.65q-7.45 1.1-16.25 4.65 7.35-5.75 22.6-7.3l22.7-1.1q8.4-0.6 16.75-5.8 8.75-5.45 11.2-12.2 0.3 9.75-10.7 15.95-11.3 6.35-28.5 5.35-10.55-0.6-17.8 0.45"/>
   <path d="m367.55 183.35q-3.7 7.8-21.3 9.2-16.2 1.3-30.2-3.25-2.25-0.75-1.8-2.6 0.5-1.8 2.9-1.15 14.5 3.9 27.55 3.5 13.9-0.4 22.85-5.7"/>
   <path d="m342.5 199.1q-2.3 2.7-8.25 3.8-5.85 1.05-13.4 0.15-17.7-2.05-29.5-11.8l2.5-4.05q9.85 8.4 23.9 11.5 12.95 2.85 24.75 0.4"/>
   <path d="m234.8 157.65q0.25 1.65-0.35 1.85-0.55 0.2-1.65-0.7-3.95-11.6-1.2-24.35 2.85-13.3 11.65-20.8 1.95-1.7 3.2-0.35 1.3 1.4-0.3 2.8-15.1 13.55-11.35 41.55"/>
  </g>
  <path d="m172.8 34.05q4.5 11.7 7.45 18.15 0.75 1.65 2.1 2.45 1.25 0.75 3.55 1 18.7 2.2 36.9 10.3-1.3 0.9-6.05 0.4-5-0.55-9.95-2.3-13.1-4.6-20.4-4.5 8.9 5.5 15.7 17.2 6.5 11.15 7.15 20.8 0.1 1.85 1 2.6 0.8 0.75 2.9 1.05l14.85 0.65q8.05-0.35 14.15-1.95-0.55 2.9-7.3 4.35-6.3 1.35-15.55 1.05l3.65 4.6 4.05 4.65q-2 3-3.6 6.75-2.65-3-6.85-6.55-5-4.2-9.25-6.55-1.55-0.85-2.1-1.85-0.6-0.95-0.55-2.65 0.15-14.3-7.45-26.65-6.45-10.4-15.05-14.9-4.45-2.35-7.1-7.75-24.1-49.9-21.6-53.6 8.8 18.05 13.45 26.85 0.95 1.75 2.15 2.4 0.95 0.5 2.85 0.6 16.85 0.8 29.75 5.3l-6.6 0.6-9.5-1.25q-6.6-1.4-12.75-1.25" fill="#004370"/>
  <path d="m231.05 188.45q0.4-3.8 0.25-5.6-0.25-2.1-0.8-3.15-0.7-1.25-2.25-1.8-6.15-2.25-12.05-5.05l12.55 0.5q7.8-0.4 14-2.2-1.25 5.65 0.35 10.45 1 3.15 4.2 7.75l-2.75-2.4-2.15-2.2q-0.95-0.9-1.7-0.8-0.8 0.1-0.7 1.55 0.4 4.6 4.85 9.95 3.95 4.85 8.2 7.05l-0.05 7.15q0.25 4.2 1.55 6-17.8-4.55-24.6-18.6l1.1-8.6" fill="#4da5ce"/>
  <path d="m235.65 172.55q-8.4 1.55-19.1 0.5l-7.85-3.95q-4.2-2.3-7.6-5.2 12.05 5.7 26.4 5.9 12.25 0.2 25-3.55-8.1 4.7-16.85 6.3" fill="#dcd2a9"/>
  <g fill="#4da5ce">
   <path d="m279.65 152.65-2 5.2-3.95-0.85q3.4-2.1 5.95-4.35"/>
   <path d="m266.15 161.1q2.7 7.15 8.6 10-2.2 4.95-6.5 7.6-4.4 2.65-9.3 1.85-5.3-0.2-9.95-3.95-3.3-2.75-5-5.95 3.15-0.9 8.5-4.4 7-2.05 13.65-5.15"/>
   <path d="m237 128.9q19-8.05 40.55-10.05 21.95-2.05 39.2 2.85-7.3 4.95-15.65 9.25-9.7 5-17.9 7.45l-2.85 0.45q-1-0.1-2.25-0.85-11.7-6.8-22.2-8.1-11.85-1.5-20.7 4.3l1.8-5.3"/>
   <path d="m203.5 213.8q-4-3.6-3.9-6.85 4.65 6.35 11.95 8.65 1.9 0.6 1.5 1.9t-2 0.8q-3.95-1.2-7.55-4.5"/>
   <path d="m190.7 220.65q3 1.6 8.1 2.35l9.7 0.35q-5.6 2.2-10.5 2.3-2.35-0.4-4.75-1.9-2.65-1.65-2.55-3.1"/>
   <path d="m206.25 295.05q-6.75 9.2-8.7 7.8 2.8-2.3 7.6-10.6 4.4-7.55 7.25-14.25 0.75-1.85 2.4-1.25 1.6 0.55 0.6 2.9-2.9 6.8-9.15 15.4"/>
   <path d="m213.9 281.95q1.3 8.1 3.05 14.4 1.9 6.7 3.05 6.7 1.65 0 6-15 4.3-14.8 5.4-23.6-1.05 13.7-4.4 27.6-3.75 15.25-6.95 15.1-2.15-0.15-4.6-8.05-2.45-7.95-2.55-15.05l1-2.1"/>
   <path d="m230.5 277.15q1.7 3 3.9 5.4 2.15 2.4 3.1 2.35 1.15-0.1 3.9-6 2.8-6.1 3.9-11.45-0.8 6.8-3.1 13.6-2.35 7.1-4.2 7.75-0.85 0.3-3.7-3-2.7-3.15-4.5-6.25l0.7-2.4"/>
   <path d="m250.85 287.4q-1.2 0.05-3.3-4.9-1.95-4.5-2.95-8.85l0.35-2.55q1.4 5.25 3.15 8.6 1.65 3.15 2.75 3.15 1.25 0 3.25-4.7 2.2-5.2 3.2-11.7-0.25 6.85-2.3 13.8-2.15 7.05-4.15 7.15"/>
   <path d="m251.4 287.2q0.1 5.9 1 10.85 0.9 5.1 2 5.3 1.5 0.25 5-6.2 3.75-6.8 5.15-13.3-0.9 9.25-4.95 17.1-3.7 7.05-6.2 6.85-1.95-0.15-3-8.65-0.75-6.25-0.75-12.8 0.45 0.8 0.85 0.95l0.9-0.1"/>
   <path d="m265.05 283.15q2.2 4.8 6.3 10.7 3.9 5.6 4.65 5.35 0.55-0.2 0.85-2l0.3-4.05q0.85 3.5 0.9 6.35 0.05 2.95-0.8 3.15-1.5 0.35-6.1-5.5-4.35-5.45-6.75-10.1 0.6-2.1 0.65-3.9"/>
  </g>
  <path d="m249.95 246.2q-2.75 6.2-3.9 6.1-1.45-0.15-4.2-7.35-2.85-7.35-1.25-8.95 0.05 3.25 2.35 7.85 2.1 4.25 3.1 4.3 0.9 0.05 3.25-4.2 2.45-4.35 2.75-7 0.8 2.8-2.1 9.25" fill="#dcd2a9"/>
  <g fill="#4da5ce">
   <path d="m154.25 225.4-2.55 1.85q-11.85-8.25-28.4-4.55-17.75 3.9-28.3 19.6 2.3-7.3 8.9-13.4 6.45-5.9 15.05-8.85 9.05-3.1 17.95-2 9.7 1.2 17.35 7.35"/>
   <path d="m100.95 235.15q2.7-2.7 6-5-1.55 3.65-2.5 9.15-0.9 5-0.9 8.85 0 25.6-14.65 39.75-6.4 6.15-14.2 8.4-7.7 2.2-15 0.1l7.5-7.35q11.95-0.7 21.55-13.1 8.9-11.5 9.8-24.15 0.85-11 2.4-16.65"/>
   <path d="m1.15 265.95q4.3 15.65 21.15 19.3 15.8 3.4 30.7-5.45 2.6-1.55 4.2 0.3 1.6 1.8-1.05 3.55-9.9 6.55-20.35 7.85-9.5 1.2-17.75-2.05-7.9-3.15-12.45-9.4-4.7-6.4-4.45-14.1"/>
   <path d="m39.3 291.3q5.4 1.6 14.9 0.35 9.95-1.25 14.3-4.5-5.2 7.2-12.8 11.45-7.45 4.1-15.4 4.4-8.2 0.3-14.95-3.5-7.3-4.1-11.55-12.35 5 3.05 11.55 4.2 7 1.2 13.95-0.05"/>
   <path d="m40.85 219.95q4.45-4.45 11.35-7.55 7.5-3.45 14.85-3.85 2.3-0.1 2.3 1.75 0.05 1.9-2.35 2.15-6.45 0.75-13 2.85-5.75 1.85-8.95 3.75-2.6 1.6-4.2 0.9"/>
   <path d="m96.65 162.95q1.7-9.5 6-16.3-5 18.9-3.6 33.8l-3.25-3.3q-0.45-6.8 0.85-14.2"/>
   <path d="m81.35 179.45q-3-10.35 0.2-20.4-0.55 11.9 2.35 19.6 2.55 6.7 8.65 12.25 1.9 1.7 0.9 3.2-1.05 1.5-3.05-0.15-6.35-5.05-9.05-14.5"/>
  </g>
  <path d="m206.7 294.4q3.25-4.75 5.9-9.9 0.4 4.1 1.6 9.45 1.3 5.6 2.6 8.55l-2.15 8.55q-3.7-6.6-4.95-11.3-2.9 2.9-9.9 7.7l0.3-4.8q2.95-2.8 6.6-8.25" fill="#dcd2a9"/>
  <path d="m133.9 312.55q-2.2 0.25-3.35 1.1-1.05 0.8-1.85 2.65-2.5 5.75-6.55 21-4.05 15.05-7.15 30.05l-3.7-0.15q0.85-6.35 1.2-14.95 0.35-9.4-0.6-9.55-0.4-0.05-1.75 1.55 8.55-20.05 14.35-29.9 1.8-3.15 3.25-4.3 1.6-1.25 4.4-1.6 13.4-1.7 26.85-16.15 13-13.9 15.15-27.15 0.4-2.45 2.65-1.6 3.1 1.15 10.1 1.75 7.25 0.65 11.7 0.05l-1.7 12.3q-10-0.85-16.85-4.35-4.1 12.25-17.8 24.6-14.7 13.15-28.35 14.65" fill="#dcd2a9"/>
  <path d="m110.15 344.25q1.35-1.6 1.75-1.55 0.95 0.15 0.6 9.55-0.35 8.6-1.2 14.95l3.7 0.15-1.95 9.95q-0.8 4.85-5.3 5.4-3.4 0.5-12.05-1.15 6.35-18.45 14.45-37.3" fill="#004370"/>
  <path d="m161.8 328.25q0.25-4.35-0.65-4.7-0.65-0.25-7.75 3.9-7.05 4.15-11.6 7.45-1.45-0.85-2.6-2 5.6-7.7 12.3-15.25 5.9-6.65 14.5-15.2 3.05-4.5 4.55-7.9 1.55-3.6 2.35-8.1 4.15-5.45 7.15-13.15 5.05 2.85 16.85 4.35-0.9 7.4-0.75 15.8 0.2 10.25 2.25 10.25-4.7 7.65-12.5 10.1-7.3 2.25-15.9-0.35-2.65 5.85-8.2 14.8" fill="#dcd2a9"/>
  <path d="m161.15 323.55q0.9 0.35 0.65 4.7-5 8.2-12.65 19.3-1.5 2.2-4.15 3.15l-5.25 0.45q-4.95-0.85-9.7-4.7 4.65-7.35 9.15-13.55 1.15 1.15 2.6 2 4.55-3.3 11.6-7.45 7.1-4.15 7.75-3.9" fill="#004370"/>
  <path d="m206.3 335.95q4.25-24.65 8.85-37.65l1.4 3.5q-2.75 11.75-3.35 14.9-1.95 9.75-2.4 17.6-1.15 21.25-1.5 51.2l-7.9 1.2q0-7.3-1-16.9l3.15-18.25 2.75-15.6" fill="#dcd2a9"/>
  <path d="m200.4 369.8q1 9.6 1 16.9l7.9-1.2-0.1 9.15q-0.05 5-2.6 6.4-2.15 1.2-11.15 2 1.8-14.15 4.95-33.25" fill="#004370"/>
  <path d="m244.5 273.15q2.95 10.85 5.15 13.2 0 6.25 1 13 1.1 7.85 2.75 8.45 0.7 0.3 2.35-1.25 1.75-1.65 2.9-3.9-0.3 3.55-2.55 6.6-2.2 3-4.7 3.4 2.3 12.25 2.9 20.65 1.15 15.15 2.9 26.9 1.75 11.7 4.45 22.55l-11.1-2.05-1.2-30.45q-0.55-17.05-0.9-20.85-1.15-12-2.95-22.55-2.25-13.65-5.05-21.2l4.05-12.5" fill="#dcd2a9"/>
  <path d="m254.6 394.7q-3.3-2.65-3.65-7.65l-0.4-6.35 11.1 2.05q1.65 6.7 3.9 14.05-7.1 0.9-10.95-2.1" fill="#004370"/>
  <path d="m380.8 143.05q3.65-2.65 8.6-4.55 4.7-1.75 9.15-2.35-3.5 2.7-8 7.15-4.35 4.3-6.35 7-12.3 16.4-23.6 22.25-11.8 6.05-28.4 3.75 29.5 1.2 48.6-33.25" fill="#c93008"/>
  <g fill="#0f141b">
   <path d="m205.2 131.6c-0.9 1.0333-1.9667 1.6833-3.2 1.95-1.1 0.23333-1.9 0.11667-2.4-0.35s-0.7-1.2-0.6-2.2c0.16667-1.1667 0.76667-2.3333 1.8-3.5 0.83333-0.93333 1.8167-1.5333 2.95-1.8 1.0333-0.26667 1.8167-0.16667 2.35 0.3 0.6 0.5 0.83333 1.2667 0.7 2.3-0.1 1.1-0.63333 2.2-1.6 3.3m-1.35-4.85c-0.73333 0.26667-1.45 0.78333-2.15 1.55-0.9 0.96667-1.4333 1.8833-1.6 2.75-0.13333 0.66667-0.0919 1.0458 0.25 1.35 0.37437 0.3331 1.0191 0.24088 1.5 0.1 0.91491-0.26802 1.5667-0.83333 2.3-1.7 0.8-0.9 1.2833-1.7833 1.45-2.65 0.13333-0.66667 0.1396-1.0473-0.2-1.35-0.3859-0.34395-1.55-0.05-1.55-0.05"/>
   <path d="m187.05 131.55q-0.8-0.05-1.5-0.75-0.85-0.85-1.15-2.35l1.05-1.7q-0.05 1.7 0.6 2.85 0.55 0.9 1.05 0.9 1.3 0.05 1.6-2.6 0.25-2.55-0.7-4.15l1-0.6q1.4 2 0.85 5.2-0.6 3.3-2.8 3.2"/>
   <path d="m238.3 171.05q10.95-2.65 18.55-9.3 7.35-6.45 9-14.5 1.7-8.45-3.7-15.85l2.55 0.45q4.85 7.45 3.2 15.8-1.6 8-8.55 14.6-7.15 6.75-17.65 9.9-11.35 3.35-24 1.6l-4.3-2.4q12.95 2.65 24.9-0.3"/>
   <path d="m221.35 132.65q-9.1-10.45-19.9-11.35-9.4-0.8-14.5 5.15-5.75 6.8-1.3 17.75 4.2 10.25 14.35 18 5.45 4.2 13.65 8.3 5.65 2.85 15.6 7.05 2.95 1.2 2.95 4.4-0.05 7.05-1.15 13.5-0.95 5.35-2 7.6-1.05 2.1-3.3 4l-4.85 3.35q-2.9 1.85-8.05 1.05-4.3-0.7-11.5-3.55l-1.05-0.05q-0.1 0.3 0.55 1.45 1.85 3.05 4.3 4.95 2.35 1.85 5.65 3 1.5 0.5 1.3 1l-1.6 0.1q-7.15-1.9-11-8.25-1.55-2.6-0.8-3.65 0.7-1 3.25 0.05 6.25 2.65 10.9 3.35 4.8 0.65 7.25-0.9 5.65-3.6 7.25-6.8 1.05-2.05 1.9-7.25 1.05-6.1 1.1-13 0.05-2.1-1.7-2.75-9.75-4-15.95-7.05-8.3-4.15-14-8.3-11.55-8.45-15.55-19.75-4-11.45 2.3-18.95 5.7-6.7 15.95-6 11.3 0.85 20.15 11.1l-0.2 2.45"/>
   <path d="m203.3 162c-0.76667-0.36667-1.1235-0.57423-0.95-1 0.16995-0.41701 1.35-0.05 1.35-0.05 3.4333 1.1333 6.5833 1.5167 9.45 1.15 3-0.43333 5.9-1.7167 8.7-3.85 0.76667-0.6 1.25-0.78333 1.45-0.55 0.2 0.2-0.0333 0.66667-0.7 1.4-2.4 2.6-5.45 4.15-9.15 4.65-3.5667 0.46667-6.95-0.11667-10.15-1.75"/>
   <path d="m264.75 155.45q0.15-4.45 3.85-1.85 5.9 4.15 10.35 3.35 5.15-0.9 6.35-8.3 0.25-1.55 0.8-1.5 0.5 0.1 0.3 1.65-0.9 8.7-7.25 9.7-5.45 0.8-11.35-3.7-1.5-1.2-1.55 0.7-0.25 9 6.75 13.4 7.4 4.6 16.15-0.9 1.4-0.9 1.65-0.45 0.3 0.45-1.05 1.4-8.9 6.35-17.2 1.6-8.15-4.7-7.8-15.1"/>
   <path d="m242.95 170.05q1.2-0.15 2.65 2.05 4.65 6.75 13.15 7.65 9.85 1 15.1-9.1l1.8 0.25q-5.4 11.4-16.25 10.85-4.55-0.25-8.7-2.75-4.1-2.45-6.45-6.3-0.5-0.85-0.8-0.8-0.35 0.05-0.4 1.15-0.3 6.4 1.55 10.85 2.55 6.2 9.5 10.25 1.35 0.8 1 1.2t-1.7-0.3q-7.55-3.95-10.4-10.9-2.1-5.1-1.5-11.2 0.25-2.75 1.45-2.9"/>
   <path d="m240.95 186.4q3 8.85 10.35 13.8 7.05 4.75 15.5 4.3 14.65-0.75 24.3-15.7 9.25-14.4 7.45-31.15-0.15-1.5 0.35-1.65 0.5-0.1 0.75 1.35 2.95 16.65-6.55 31.95-10 16.1-26.2 17.1-9 0.5-16.4-4.45-8.1-5.45-11.15-15.55-0.75-2.55 0.55-3.15 1.35-0.65 3.25 1.45l2.7 3.05 2.5 2.3 3 3.55q-2.7-1.25-5.05-3.5l-4.2-4.4q-0.85-0.9-1.2-0.6-0.3 0.3 0.05 1.3"/>
   <path d="m179.5 15.85q-12.25-8.75-23.45-13.7-1.7-0.75-2.1-0.4-0.35 0.3 0.05 1.85 1.4 5.1 4.85 13.5l7.2 16.55q2.75 6.25 10.3 21.2 1.3 2.65 3.15 4.3 1.2 1.15 4.7 3.35 9.9 6.15 15.95 17.9 6.1 11.85 5.4 23.75-0.1 1.35 0.4 2.05l1.7 1.3q4.35 2.3 8.65 5.8 4.65 3.75 7.15 7.25l-0.7 1.75q-2.5-3.7-7.05-7.5t-8.75-5.75q-1.65-0.8-2.35-1.85-0.75-1.15-0.65-3.05 0.5-11.55-5.95-23.5-6.05-11.35-14.65-16.75-3.55-2.2-4.9-3.4-2.1-1.9-3.6-4.85-6-11.9-10.35-21.35-9.05-19.4-12.1-30.25-1.55-5.75 4.25-3.3 11.65 5 24.1 13.85 12.1 8.6 20.45 17.55 2.35 2.5 2 3.7-0.4 1.2-3.55 1.65l-7-0.4q-1.5-0.35-1.4-0.75 0.05-0.4 1.6-0.35l6.6-0.2q1.35-0.2 1.4-0.7 0.1-0.55-1-1.8-8.15-8.75-20.35-17.45"/>
   <path d="m186.45 36.05q-6.4-1.35-12.25-1.4-1.7-0.05-1.7-0.55 0-0.55 1.7-0.6 7.1-0.1 12.45 1.4 1.65 0.5 1.5 1l-1.7 0.15"/>
   <path d="m195.7 36.6c4.8667 3.3667 9.85 7.3833 14.95 12.05 5.8667 5.4 10.167 10.15 12.9 14.25 1.0667 1.5333 1.4 2.6667 1 3.4-0.36667 0.7-1.4167 1.0833-3.15 1.15 0 0-4.1914-0.18115-6.25-0.55-2.5511-0.45709-5.2333-1.15-7.5-2.05-1.0333-0.43333-1.5-0.8-1.4-1.1 0.0667-0.3 0.63333-0.3 1.7 0l7.3 1.55 6.1 0.5c1.3333-0.03333 1.55-0.71667 0.65-2.05-2.7667-4.1333-7.3-9.0667-13.6-14.8-5.2667-4.7667-10.25-8.7833-14.95-12.05l2.25-0.3"/>
   <path d="m187.25 59.05q8.6 0.1 17 3.35 1.55 0.65 1.35 1.1-0.25 0.45-1.7 0-8.95-2.85-16.65-3.3-1.4-0.05-1.4-0.6t1.4-0.55"/>
   <path d="m210.55 64.95q5 7.65 14.25 17.35 9.5 10 16.5 14.75 2.4 1.65 2 3.6-0.5 2.15-4.5 3.5-5.55 1.9-12.45 2.1l-12.95-0.8q-1.75-0.2-1.7-0.7 0.05-0.55 1.8-0.4 7.25 0.5 13.6 0.05 6.9-0.45 11.2-1.9 2.2-0.75 2.75-1.9t-0.8-2.05q-7.55-5.15-17.45-15.7-10-10.75-14.35-18.45l2.1 0.55"/>
   <path d="m232.2 110.15q-1.1-2.35-1.35-5.5l1.8-0.15q0.15 2.35 1.2 4.9l-1.65 0.75"/>
   <path d="m215.5 113.65q-4.65 2.9-5.9 8.6l-1.7-0.7q0.55-2.3 1.8-4.45 1.75-2.85 4.45-4.65l1.35 1.2"/>
   <path d="m216.55 126.5q1.7-3.7 5.3-6.9l0.85 1.4q-3.55 3.3-4.85 6.5l-1.3-1"/>
   <path d="m326.7 62.95q-12.6-4.85-26.55-5.8-14.15-0.95-27.1 2.4-29.25 7.5-40.3 31.95l-1.55-1.3q11.25-24.95 41.2-32.65 13.25-3.45 27.75-2.45 14.3 0.95 27.2 6.05 8.9 3.45 17.3 2.75 13.9-1.15 21.8-13.95 1.4-2.2 2.75-2.1 1.45 0.1 2.1 2.95 1.75 7.9-3.15 15.85-5.15 8.4-14.2 10.4l-1.55-0.15q-0.15-0.5 1.25-0.95 8.45-2.65 13.2-10.4 4.5-7.4 2.9-14.4-0.25-1.2-0.85-1.3-0.55-0.05-1.15 0.95-7.65 13.25-22.1 14.85-9.45 1-18.95-2.7"/>
   <path d="m361.85 72.35q5.45-2.4 7.9-6.15 1.55-2.4 2.75-2.05t1.25 3.3q0.25 9.9-8.35 17.35-8.7 7.5-19.35 6.2-1.4-0.2-1.35-0.7t1.5-0.45q9.8 0.7 17.75-6.05 8.05-6.85 8.25-16.4 0-2.15-1.25-0.25-1.55 2.4-5.1 4.6-3.35 2.05-7.65 3.4l3.65-2.8"/>
   <path d="m439.2 82.15q2.3 7.1 1.4 11.85l-2.1 2.25q0.8-3.75 0.55-7.2-0.25-2.9-1.3-6.4-0.3-0.95-0.7-0.95-0.45 0-0.7 1.05-3.05 10.65-7.8 17.4-4.8 6.8-12.1 10.6-7.85 4.1-16.8 3.6-9.65-0.5-16.45-6.4-6.65-5.75-15.9-10.4-9.25-4.6-18.35-6.75l3.85-0.95q8.6 2.25 17.05 6.75 8.15 4.3 14.6 9.85 6.45 5.6 15.85 6 8.4 0.4 15.3-3.3 6.75-3.65 11.45-10.3 4.7-6.55 7.8-16.6 0.8-2.75 2.15-2.8 1.3 0 2.2 2.7"/>
   <path d="m447.8 85.25q-3.05 5.2-6.05 8.45-4.15 4.5-8.9 11.65-0.9 1.3-1.35 1.05-0.4-0.3 0.4-1.7 4.05-6.65 8.6-12.1 3.1-3.7 5.85-8.2 3.5-5.85 4.75-10.5 0.8-2.85 2.3-2.9 1.45 0 2.55 2.75 2.5 6.4 2 14.5-0.5 7.95-3.7 15.3-7.4 16.95-21.95 19.1-1.65 0.25-1.8-0.3-0.2-0.5 1.6-0.8 13.3-2.35 20.35-18.35 6.8-15.45 1.85-28.85-0.35-1.1-0.85-1.1t-0.8 1.1q-1.3 4.95-4.85 10.9"/>
   <path d="m391.15 137.15c4.1667-1.4 9-2.3 14.5-2.7 1.7667-0.13333 5.95-0.13333 12.55 0 6.2667 0.13333 10.683 0.05 13.25-0.25 5.8667-0.7 11.133-2.5667 15.8-5.6 4.8667-3.1667 8.05-7 9.55-11.5 0.36667-1.1 0.63672-1.5944 0.15-2.1-0.34697-0.3604-1.5 0.05-1.5 0.05l-10.1 4.4c-4.6 1.8-8.5 2.6667-11.7 2.6l4.1-1.95c1.7-0.23333 4.3833-1.1167 8.05-2.65l9.1-3.9s2.7048-0.97974 3.55-0.15c0.99931 0.98107 0.56667 2.0333-0.1 4.2-1.5 4.9-4.7833 9.0333-9.85 12.4-4.9 3.2333-10.533 5.1833-16.9 5.85-2.5 0.26667-6.85 0.35-13.05 0.25-6.8-0.13333-11.067-0.15-12.8-0.05-5.0667 0.26667-9.8 1.15-14.2 2.65-4.1667 1.4333-8.6167 3.6-13.35 6.5-1.0667 0.66667-1.7 0.86667-1.9 0.6-0.23333-0.26667 0.18333-0.78333 1.25-1.55 4.5333-3.2 9.0667-5.5667 13.6-7.1"/>
   <path d="m401.05 135.85q-4.7 2.95-9.55 7.8-3.7 3.75-9.55 10.9-11.7 14.25-20.2 18.75-10.95 5.75-28.8 3.8-1.55-0.15-1.5-0.7t1.6-0.4q17.5 1.4 28.5-4.7 8.1-4.5 19-17.9 5.7-7 8.55-10 4-4.2 8.35-7.2l3.6-0.35"/>
   <path d="m339.1 176.75 12.15 2.55 12.75 1.35q3.65 0.3 4.4 2 0.8 1.65-1.65 3.75-8.25 7.15-24.9 7.3-14.2 0.1-25.5-4.25-1.45-0.5-1.25-1.05 0.15-0.5 1.6 0 11.5 3.9 25.4 3.55 16.05-0.35 23.7-6.95 1.1-0.95 0.65-1.75t-2.55-1q-17-1.3-30.35-5.45l5.55-0.05"/>
   <path d="m340.95 201.95q-9.6 4.5-25.1 1.6-15.8-3-24.75-11.4l1.05-1.95q8.45 7.9 23.8 11.2 15.35 3.25 24.35-1 1.1-0.5 0.9-0.95-0.15-0.4-1.2-0.5-11.05-0.65-20.15-8.85l3.05 0.4q8.15 6.2 17.1 6.9 3.05 0.2 3.45 1.65 0.45 1.5-2.5 2.9"/>
   <path d="m207.9 217q-2.5 1.8-6.75 2.65l-8.65 0.85q-0.75 0-0.95 0.35-0.25 0.35 0.25 0.85 2.95 2.75 8.8 3.65l-4.1 0.55q-4-1.2-5.9-3.2-1.45-1.5-1.1-2.55 0.4-1.15 2.9-1.25l8.2-0.7q3.7-0.65 5.95-2.1l1.35 0.9"/>
   <path d="m218.4 216.95q-14.3 18.5-19.45 52.9-1.85 12.2-1.9 22.55-0.1 9.3 1.05 9.9 1.3 0.65 6.25-6.05 5.4-7.35 10-16.95 0.65-1.3 1.15-1.1 0.45 0.2-0.1 1.6-3.95 10.05-10 18.15-5.8 7.75-8.2 6.95-1.85-0.6-2.05-10.7-0.2-10.7 1.8-24.05 5.4-36.05 20.6-53.95 1.3-1.5 1.65-1.15 0.4 0.35-0.8 1.9"/>
   <path d="m213.5 282.65q0.2 7.2 2.65 15.4 2.3 7.95 3.95 8.05 2.15 0.05 6.05-14.9 3.9-14.8 5-26.85 0.15-1.6 0.65-1.55 0.55 0 0.5 1.6-0.45 12.45-4.4 27.85-4.2 16.55-7.85 16.5-2.4-0.05-5.05-8.2-2.55-7.9-2.85-15.4l1.35-2.5"/>
   <path d="m243 281.3q-2.85 8.85-4.95 8.85-1.4 0.05-4.2-3.2-2.65-3.05-4.4-6.5l0.5-2.75q1.95 3.85 4.65 7 2.4 2.85 3.3 2.85t3.6-7.9q2.8-8.1 3.7-13.7 0.25-1.65 0.75-1.6t0.35 1.7q-0.6 6.9-3.3 15.25"/>
   <path d="m257.25 261q0.5-0.05 0.7 1.7 0.95 8.1-1.8 17.25-2.6 8.7-5.35 8.8-1.25 0.05-3.25-4.05-2.15-4.35-3.6-10.35l0.95-3.35q1.95 7.55 3.75 11.6 1.45 3.4 2.25 3.35 1.6 0 3.85-7.3 2.5-8.15 2.05-15.8-0.05-1.75 0.45-1.85"/>
   <path d="m250.5 287.15q0.1 7.5 1.15 13.5 0.95 5.6 1.95 5.9 2.15 0.6 6.1-8 4.35-9.4 4.95-19.2 0.1-1.7 0.6-1.7 0.5 0.05 0.5 1.75 0.2 10.8-4.85 21.15-4.7 9.6-8.05 8.65-1.85-0.5-3.05-7.9-1.15-7-1.1-16.2l1.8 2.05"/>
   <path d="m255.15 215.4q6.65 11.95 10.1 20.65 4.25 10.55 6.8 23.35l2 10.35 2.5 12.65q1.9 8.55 2.35 14.3 0.55 6.9-1.2 7.4-1.85 0.55-6.65-5.35-4.5-5.45-6.85-10.35l0.55-2.95q2.25 5.25 6.7 10.95 4.15 5.35 5.35 5.15 0.9-0.15 0.15-6.5-0.7-5.95-2.2-12.35-0.95-4-2.55-12.45l-1.95-10.55q-2.6-12.7-6.65-23-3.45-8.65-10-20.4-1.05-1.9-1.35-2.75-0.4-1.05-0.35-2.35l-0.35-9.45 2.2 1.1q0.25 2.95 0.05 8.3-0.05 1.2 0.15 1.75l1.2 2.5"/>
   <path d="m198.6 169.05q3.65 3.95 8.6 5.8 6.65 2.45 13.5-0.15l2.05 1.1q-7.45 3.25-15.05 0.8-6.15-1.95-10.15-6.55-0.8-0.9-1.1-0.6-0.35 0.3-0.15 1.65 1.65 10.65 13.3 16.85 1.55 0.75 1.25 1.2-0.25 0.4-1.75-0.2-6.1-2.55-10-7.5-3.75-4.75-4.35-10.2-0.35-2.9 0.9-3.5 1.2-0.6 2.95 1.3"/>
   <path d="m197.45 186.9q3.5 4.7 8.75 7.55 12.1 6.6 24.1 0.1l-0.4 2.4q-12.25 6.05-24.65-0.9-12.05-6.75-13.5-19.2-0.3-2.55 0.55-3.25 0.8-0.65 2.15 0.7t3.2 2.55l0.6 2.1q-2.4-1.4-4.3-3.4-0.45-0.5-0.7-0.2-0.3 0.3-0.1 1.4 0.75 5.35 4.3 10.15"/>
   <path d="m253.25 237.2q0.2 5.65-5.35 14.25-1.2 1.85-1.85 1.85-0.7 0-1.85-1.9-2.05-3.25-3.5-6.85-1.6-4-1.75-6.65-0.2-4.3 4.8-14.5 1.05-2.15 2-2.15 0.9-0.05 2.15 1.95 2.7 4.25 3.9 7.25 1.3 3.35 1.45 6.75m-8.2-13.15q-1.85 4.1-3.1 7.85-1.45 4.3-1.35 5.9 0.1 2.25 1.6 6.2 1.4 3.65 3.2 6.75 0.4 0.7 0.7 0.7l0.65-0.7q5-8.75 4.8-13.5-0.15-3.15-1.35-6.3-1.05-2.75-3.55-7.1-0.5-0.85-0.8-0.8-0.35 0.05-0.8 1"/>
   <path d="m139.9 245.95q-4 9.75-4.45 20.5-0.5 12.15-4.4 22.95-4.6 12.5-11.05 13.1-2.75 0.25-4.4 1.6t-3.9 5.15q-8.85 14.85-16.55 30-9.05 17.9-12.5 28.7-1.1 3.5-0.75 5.3 0.4 1.85 2.65 3.3 3.7 2.3 10.05 3.8 6.85 1.55 13.1 1.2 2.1-0.15 2.95-1.1t1.3-3.7q2.25-13.55 7-31.4 4.3-16.1 8.6-28.5 0.9-2.6 2.1-3.75 1.25-1.15 3.3-1.35 10.35-0.75 23.4-10.15 16-11.5 22.85-28.65l1.9 0.9q-7 17.4-23.7 29.25-13.6 9.65-24.2 10.4-1.6 0.1-2.4 0.9-0.8 0.75-1.6 3.1-4.2 12.05-8.45 28.35-4.6 17.6-6.9 31.3-0.65 3.85-1.95 5.1-1.1 1.15-4.05 1.3-5.6 0.35-12.65-1.1-7.4-1.55-11.75-4.25-2.75-1.75-3.35-4.05-0.65-2.5 0.7-6.7 3.5-10.8 12.7-28.9 7.7-14.95 16.75-30.15 2.4-4 4.5-5.65t5.15-1.9q5.75-0.5 9.7-12.25 3.45-10.05 3.95-22.2 0.45-10.95 4.7-21.2 4.2-10.3 11.15-17.2 7-7 20.8-7.8 12.3-0.7 21.2 3.45 2.45 1.15 5.9 1.2l4.75-0.45q3.5-0.75 6.55-2.05 4.1-1.85 8.6-5.25l-1.85 3.2q-4.1 2.95-7.35 4.25-2 0.8-5.65 1.55l-5.2 0.45q-3.8-0.05-6.4-1.3-8.65-4-20.25-3.35-13 0.75-19.8 7.5-6.8 6.8-10.8 16.55"/>
   <path d="m113.25 344.4-0.25 11.15-0.75 10.85 2.75-0.05-0.45 1.75h-3.3q-0.9 0-0.85-0.9l0.95-11.25q0.55-7.25 0.45-11.6l-0.15-0.6-0.55 0.5q-10.15 13.65-15 21.65-0.35 0.5-0.9 0.35-6-1.5-11.25-4.6l0.5-1.45q5 2.65 10.55 4.15 4.45-6.95 14.9-21 1.5-2 2.4-1.75t0.95 2.8"/>
   <path d="m197 278.6q-12.2-1.25-19.85-5.95-1.4-0.8-1.05-1.35 0.35-0.5 1.8 0.2 7.75 3.9 19.1 5v2.1"/>
   <path d="m174.65 284.3q-2.4 10.7-7.65 17.55-0.95 1.15-1.4 0.9t0.4-1.5q4.25-6.3 5.75-13.7l2.9-3.25"/>
   <path d="m169.45 295.9-0.65 1.7-5.75 0.15 1.25-1.75 5.15-0.1"/>
   <path d="m146.3 308.7-9.15 8.15c-4.5 3.9333-7.4167 6.6667-8.75 8.2-1.4 1.6333-2.3333 3.3667-2.8 5.2-0.5 1.8-0.58333 3.8667-0.25 6.2 0.4 2.9 1.6167 5.5 3.65 7.8 2.4 2.7667 6.2117 4.7371 9.9 5.65 1.9425 0.4808 4.1661 0.60083 6-0.2 2.2789-0.99516 3.3167-2.5 5.25-5.3 8.7-12.433 15.067-22.85 19.1-31.25l1.7 0.55c-4.5 9.4333-10.9 20.067-19.2 31.9-2.2 3.1667-3.827 4.9664-6.6 6.1-2.0528 0.83915-4.5019 0.75108-6.65 0.2-4.1033-1.0527-8.1167-3.2167-10.95-6.45-2.3667-2.7-3.7667-5.6-4.2-8.7-0.33333-2.3333-0.15-4.7 0.55-7.1 0.66667-2.4333 1.6833-4.4167 3.05-5.95 1.4-1.5667 4.0167-4.0167 7.85-7.35l7.25-6.2 4.25-1.45"/>
   <path d="m201.05 301.85q-6 11.2-16.9 13.45-8.35 1.75-15.7-1.75-1.5-0.7-1.25-1.2l1.8 0.05q7.05 2.3 13.45 1.25 9.3-1.55 15-10.2l3.6-1.6"/>
   <path d="m134.55 317.9q1.4 12.85 7.5 16.05 4.25-3.25 9.4-6.4 4.45-2.7 7.85-4.3 1.9-0.85 2.55-0.5 0.7 0.35 0.7 2.3l-0.15 3.35-2.1 2.7q0.8-3.35 0.8-6.05 0-0.6-0.2-0.7l-1 0.25q-2.9 1.35-7.65 4.35-5.25 3.3-9.55 6.65l-1.15 0.05q-7.2-3.8-8.4-16.45l1.4-1.3"/>
   <path d="m179.4 263q-0.5-7.65-1.75-13.05-0.3-1.4 0.2-1.5 0.45-0.15 0.9 1.2 1.8 5.45 1.8 13.35 0 1.6-0.5 1.6-0.55 0-0.65-1.6"/>
   <path d="m217.3 303.3-2.9 12.35q-0.8 3.85-1.55 9-0.95 6.25-1.2 10.8-1 17.75-1.4 58.8-0.05 3.9-1.2 5.75-1.2 1.8-4.25 2.6-6.95 1.75-14.2 1.25-8.1-0.6-14.6-3.85-5.95-2.95-4.65-10.4 1.75-9.7 8.8-28.3 4.75-12.6 14.1-34.55l2.4-6.45 1.45-6.35q0.9-5.35 1.05-11.1l1.95-1.35q-0.05 5.65-1.25 12.8-0.65 3.7-1.5 6.55l-2.4 6.65q-9.3 21.95-14 34.35-6.95 18.35-8.65 28-0.55 3.2 0.3 5.15 0.8 2 3.25 3.2 5.9 2.95 13.1 3.6 7.25 0.65 14.35-1.2 2.2-0.55 2.95-1.7 0.9-1.35 0.95-4.7 0.35-38.8 1.6-58.95 0.25-4.55 1.25-10.95 0.75-5.05 1.6-9.1 0.9-4.35 3.45-14.5l1.2 2.6"/>
   <path d="m199.65 359q1.15 5.8 1.9 13.9 0.7 7.45 0.75 12.85 3.1-0.15 7.05-1.1l-0.05 1.7q-4.05 1.05-7.7 1.15-1 0.05-1-0.8 0-5.55-0.6-13.05-0.7-8.6-1.85-14.4-0.45-2-1.15-0.4-7.9 16.95-11.6 26.6l-0.4 0.6h-0.75q-4.7-1.3-9.95-4.3l0.4-1.6q4.65 2.6 9.3 4 2.2-5.65 11.65-25.9 1.05-2.25 2.25-2.1t1.75 2.85"/>
   <path d="m241.05 284.15 2.9 10.75q1.05 4.45 2.1 10.5l2.25 13.15q0.9 6.2 1.05 11.95 0.95 38 2.35 54.9 0.4 4.8 1.85 7 1.4 2.2 4.75 3.1l11.45 0.7q8.05-0.35 12.1-1.8 2.2-0.8 2.75-3.3 0.45-2.2-0.3-6.45-4.05-23.3-21.25-63.6-3.85-9.05-5.1-17.95l1.5-2.1q1 9.25 5.3 19.25 17.6 41.4 21.6 64.15 0.95 5.6-0.1 8.45-0.95 2.5-3.7 3.5-4.5 1.6-13.15 1.85l-11.65-0.75q-3.95-1.1-5.75-3.7-1.8-2.65-2.3-8.2-1.25-15.2-2.2-54.95-0.15-5.8-1-12.05l-2.2-12.85-2.05-9.95-2.65-9.25 1.45-2.35"/>
   <path d="m280.8 365.9q-2.6-4.95-5.2-8-0.6-0.75-1-0.65t-0.5 1.05q-0.6 12.25-0.55 24.75l-0.2 0.85-0.8 0.2q-13.15 0.2-22.15-2.75l-0.1-1.65q4.8 1.55 11.15 2.25l10.35 0.4q-0.05-11 0.85-24.15 0.15-2.5 1.25-2.9t2.75 1.5l2.75 3.6 1.4 5.5"/>
   <path d="m104.35 145.3q-9.15 14.3-7.65 32.65l-1.8-1.65q-1.3-17.85 8.05-32 1.85-2.7 3.6-2.4 1.9 0.35 2.1 4.2 1.3 22.4 7.05 34.3 6.7 13.9 25.05 27.6l10.3 8.25q4.4 3.95 6.7 7.45l-1.85 0.9q-2.3-3.45-6.35-7.15-3.65-3.3-9.95-7.95-18.8-13.85-25.65-28.25-5.75-12.2-6.9-35.05-0.1-2.25-0.85-2.45t-1.85 1.55"/>
   <path d="m80.75 158.15q1.25-3.8 2.85-3.7 1.5 0.1 2.6 3.55 2.1 6.9 4.5 11 2.2 3.8 7.7 10.15 1.1 1.3 0.75 1.65-0.4 0.35-1.6-0.85-5.65-5.8-8.2-10-2.75-4.6-4.6-11.55-0.55-2-1.25-1.85-0.65 0.1-1.2 2.05-2.85 9.9-0.4 19.7 2.45 9.65 8.9 14.8 1.35 1.05 1 1.4-0.3 0.4-1.65-0.45-7.6-5.1-10.15-15.85-2.45-10.25 0.75-20.05"/>
   <path d="m86.85 190.3q-13.05-0.75-27.6 8.15-14.15 8.65-17.8 18.75-0.6 1.55 0.05 2 0.65 0.4 2.15-0.35 6.25-3.2 10.55-4.65 4.95-1.65 12.25-2.65 1.7-0.2 1.75 0.3 0.1 0.5-1.55 0.85-7.5 1.5-12.05 3.05-4.8 1.6-10.3 4.55-2.9 1.6-4.2 0.7-1.3-0.95-0.2-4.4 3.4-10.5 17.8-19.4 14.45-8.95 27.95-8.65l1.2 1.75"/>
   <path d="m66.4 212.25q-7.4 5.35-13.05 14.85-6.35 10.6-7.2 21.3-0.45 5.65-4.75 10.5-4.1 4.6-10.6 7.4-6.45 2.85-13.55 3.15-7.45 0.3-13.7-2.35-1.4-0.6-1.75-0.4-0.3 0.2-0.15 1.5 0.85 7.8 6.35 13.55 5.25 5.45 13.35 7.8 8.15 2.35 16.9 0.85 9.3-1.65 17.1-7.35 1.2-0.85 1.5-0.45 0.35 0.4-0.8 1.35-7.8 6.4-17.6 8.2-9.1 1.7-17.8-0.9-8.65-2.55-14.15-8.45-5.8-6.25-6.45-14.5-0.25-2.55 0.65-3.15 0.95-0.65 3.45 0.45 11.35 5.05 25.25-0.7 6.35-2.65 10.3-6.85 4.3-4.5 4.7-9.75 0.85-10.65 6.55-20.85 5.05-9.05 12.05-14.8l3.4-0.4"/>
   <path d="m14.9 287.55q3.35 6.25 9.55 10.1t13.6 4.35q17.1 1.1 29.65-14.45 0.95-1.15 1.35-0.85 0.4 0.35-0.45 1.55-6.5 8.85-15.3 12.9-8.05 3.65-16.7 2.8-8.2-0.85-14.9-5.6-6.75-4.75-9.9-12.15l3.1 1.35"/>
   <path d="m108.65 229.1q-3.6 6.4-4 18.6-0.7 27.8-14.8 41.25-12.9 12.3-32 8.65l2-1.75q17.5 2.65 29.45-9.8 12.75-13.25 13.4-38.35 0.3-10.8 3.1-17.05l2.85-1.55"/>
   <path d="m151 227.85q-12.95-7.75-28.65-4-16.3 3.9-26.05 18.4-0.95 1.4-1.4 1.15-0.45-0.3 0.45-1.75 9.15-15.3 26.6-19.6 17-4.25 30.6 4.45l-1.55 1.35"/>
   <path d="m233.9 150.85q4.45 1.4 8.55-5.15 4.2-6.7 3.85-15.6l1.8-0.1q0.4 9.35-4.25 16.7t-9.9 5.65l-0.05-1.5"/>
   <path d="m252 129.7 3.6 0.15q1.15 6.65-1.5 13.3-2.65 6.7-8.2 10.9-1.25 0.95-1.7 0.6-0.4-0.4 0.7-1.5 4.65-4.75 6.6-11.1 2-6.45 0.5-12.35"/>
   <path d="m235.35 133.5q8.4-6.45 22.6-4.2 12.4 1.95 20.9 8.4 0.7 0.55 1.5 0.5l2.3-0.55q11.4-4.45 18.2-7.65 8.25-3.95 15.25-8.6 1.35-0.9 1.15-1.75t-1.8-1.2q-16.75-3.35-39.65-1.2-24.05 2.25-37.6 9.2l1.1-2.45q12.8-6.35 36.7-8.5 23.75-2.15 40 1.5 3.05 0.65 3.2 2.45 0.15 1.65-2.25 3.35-7.15 4.9-15.35 8.85-6.7 3.15-18.45 7.6-1.9 0.75-2.95 0.7-1.15 0-2.3-0.9-7.9-6.05-20.55-7.95-14.7-2.15-22.4 4.75l0.4-2.35"/>
   <path d="m225.1 147.4q2.9 7.25 7.65 10.8 1.5 1.1 1.3-0.5-1.95-13.75 0.8-24.35 2.75-10.85 10.2-17.65 1.35-1.25 1.7-0.85 0.35 0.35-0.9 1.65-7.05 7.35-9.6 17.55-2.4 9.95-0.75 23.5 0.35 2.6-0.55 3-0.85 0.4-2.95-1-5.25-3.45-8.45-11.2-3.1-7.55-3-16 0.1-8.95 3.85-15.3 4.25-7.15 12.3-9.2l1.65 0.15q0.1 0.55-1.4 0.95-7.45 2.25-11.3 9.05-3.4 6-3.45 14.4 0 7.85 2.9 15"/>
   <path d="m278.85 139.35 1.95-0.2q0.95 5.15 0.35 10.4-0.7 5.65-2.85 8h-2.1q2.5-3.45 3.1-8.55 0.5-4.5-0.45-9.65"/>
  </g>
 </g>
</svg>
