<?xml version="1.0" encoding="UTF-8"?>
<!-- Created with Inkscape (http://www.inkscape.org/) -->
<svg version="1.1" viewBox="0 0 247.09 115.69" xmlns="http://www.w3.org/2000/svg">
 <defs>
  <clipPath id="clipPath5444">
   <path d="M 0,792.109 H 612.156 V 0 H 0 Z"/>
  </clipPath>
 </defs>
 <g transform="translate(-1.1134 -3.135)">
  <g transform="matrix(.53268 0 0 -.53268 -26.394 413.19)" clip-path="url(#clipPath5444)">
   <g transform="matrix(2.3094 0 0 2.3094 425.54 683.12)">
    <path d="m0 0c8.544 0.493 20.996 2.657 28.073 6.284 4.355 2.232 4.505 4.737 2.364 6.412-8.368 6.548-19.463 11.914-33.925 13.825-3.734 0.493-5.748 0.073-9.141-1.183-4.873-1.805-12.547-6.959-15.76-10.593 11.818-2.624 22.81-8.113 28.389-14.745" fill="#003c8f"/>
   </g>
   <g transform="matrix(2.3094 0 0 2.3094 491.13 716.02)">
    <path d="m0 0c-3.683-1.483-10.927-3.208-16.206-4.483-0.901 0.504-1.592 0.982-2.361 1.485-2.441-0.53-5.12-1.113-8.437-2.002-1.087-3.224-6.027-5.108-12.335-4.049-7.562 1.271-10.377 5.537-9.886 8.606 0.412 2.573 3.399 5.028 9.118 4.827 1.121 1.067 2.653 2.429 4.057 3.649-0.212 0.497-0.34 0.866-0.482 1.363 0.834 1.151 1.31 1.809 2.281 3.125 1.169-0.055 2.769-0.281 4.005-0.491-1.025-0.962-2.116-2.049-3.023-3.159 0.213-0.384 0.483-0.965 0.696-1.419-1.064-1.036-2.384-2.271-3.776-3.527 5.851-1.163 8.518-3.589 9.309-5.927 2.637 0.676 5.9 1.499 8.5 2.056 1.114-0.584 2.308-1.115 3.448-1.512 3.37 0.884 8.536 2.325 12.027 3.534 1.104-0.694 1.734-1.166 3.065-2.076" fill="#00b8ee"/>
   </g>
   <g transform="matrix(2.3094 0 0 2.3094 484.05 720.81)">
    <path d="m0 0c-3.49-1.209-8.656-2.65-12.026-3.534-1.141 0.398-2.334 0.928-3.449 1.512-2.599-0.557-5.863-1.38-8.5-2.056-0.791 2.338-3.458 4.765-9.308 5.928 1.391 1.255 2.712 2.49 3.775 3.526-0.213 0.454-0.482 1.036-0.695 1.419 0.906 1.11 1.997 2.198 3.022 3.159 9.407-1.458 19.36-4.764 27.181-9.954" fill="#d2ecfa"/>
   </g>
   <g transform="matrix(2.3094 0 0 2.3094 421.33 707.68)">
    <path d="m0 0c0.419 2.156-1.678 4.716-7.122 5.598-6.091 0.986-8.8-1.161-9.072-2.865-0.336-2.096 2.235-4.77 7.4-5.638 5.142-0.864 8.393 0.832 8.794 2.905" fill="#d2ecfa"/>
   </g>
   <g transform="matrix(2.3094 0 0 2.3094 453.08 713.77)">
    <path d="m0 0c1.044 0.413 2.381 0.747 2.381 0.88 0 0.086-2.467-0.098-4.02-0.015 0.591-0.296 1.035-0.553 1.639-0.865" fill="#fff697"/>
   </g>
   <g transform="matrix(2.3094 0 0 2.3094 428 712.98)">
    <path d="M 0,0 C 1.25,0.718 2.236,0.959 4.329,0.345 3.078,0.007 1.205,-0.434 0.3,-0.646 0.206,-0.418 0.094,-0.187 0,0" fill="#fff697"/>
   </g>
   <g transform="matrix(2.3094 0 0 2.3094 427.15 729.21)">
    <path d="m0 0c-0.16-0.47-0.379-0.901-0.665-1.139-0.703-0.584-1.238-1.329-1.445-2.029-0.093-0.312-0.219-0.588-0.376-0.827-0.946 0.607-2.185 1.119-3.121 1.457 0.639 0.502 1.467 0.92 2.342 1.08 0.305 0.057 0.521 0.214 0.679 0.421 1.032 0.387 2.29 1.039 2.586 1.037" fill="#fff697"/>
   </g>
   <g transform="matrix(2.3094 0 0 2.3094 416.39 716.79)">
    <path d="m0 0c-0.322-0.286-0.486-0.733-0.529-1.179 1.296-0.529 2.196-1.196 2.75-1.887 0.202-2.484-2.551-4.281-7.446-4.002-1.471 0.955-3.799 2.109-6.028 3.143-0.497 2.766 3.024 4.439 8.057 3.509 0.335 0.222 0.858 0.783 0.976 1.367 0.75-0.227 1.488-0.548 2.22-0.951" fill="#fff697"/>
   </g>
   <g transform="matrix(2.3094 0 0 2.3094 399.53 707.86)">
    <path d="m0 0c0.016 0.66 0.901 1.477 2.959 1.361 1.971-0.11 2.758-0.955 2.741-1.615-0.015-0.654-1.016-1.362-2.887-1.253-1.936 0.113-2.832 0.78-2.813 1.507" fill="#fbd6a0"/>
   </g>
   <g transform="matrix(2.3094 0 0 2.3094 468.64 729.56)">
    <path d="m0 0c-6.466-1.457-11.323-3.699-15.45-4.825-1.125-0.306-1.52 0.567-0.635 1.089 0.951 0.561 2.057 1.163 3.262 1.774-1.747 0.685-3.964 1.503-5.305 1.841-0.91-0.455-1.819-0.865-2.719-1.212-1.267-0.489-2.212-0.132-1.178 0.748 1.537 1.31 5.209 3.828 7.885 5.536 3.719-0.834 9.161-2.622 14.14-4.951" fill="#e8538d"/>
   </g>
   <g transform="matrix(2.3094 0 0 2.3094 459.15 733.76)">
    <path d="m0 0c-1.69-0.611-3.401-1.31-5.038-2.039-1.813 0.64-3.659 1.291-5.64 1.93 1.312 0.772 2.607 1.585 3.863 2.376 2.057-0.608 4.709-1.498 6.815-2.267" fill="#003c8f"/>
   </g>
   <g transform="matrix(2.3094 0 0 2.3094 452.92 735.93)">
    <path d="m0 0c0.66 1.238 1.032 1.981 1.427 3.01 0.302 0.79 0.195 1.141-0.252 1.419-1.195 0.743-3.343 1.42-5.505 1.658-0.635 0.071-0.955-0.132-1.459-0.464-1.316-0.866-2.668-1.925-4.045-2.896 3.491-0.713 6.765-1.636 9.834-2.727" fill="#fff"/>
   </g>
   <g transform="matrix(2.3094 0 0 2.3094 477.15 724.91)">
    <path d="m0 0c1.268 1.125 2.011 1.847 3.019 2.968 0.528 0.589 0.331 1.247-0.226 1.645-1.271 0.907-3.224 1.645-5.319 2.282-0.891 0.271-1.459 0.159-2.057-0.041-1.415-0.471-3.159-1.146-5.551-2.209 3.668-1.328 7.04-2.898 10.134-4.645" fill="#fff"/>
   </g>
   <g transform="matrix(2.3094 0 0 2.3094 417.48 744.36)">
    <path d="m0 0c1.511-0.199 2.981-0.439 4.419-0.711 0.379 0.887 0.762 1.821 1.001 2.576 0.256 0.808-0.099 1.407-0.757 1.512-1.83 0.291-3.276 0.464-5.014 0.437-0.811-0.012-1.219-0.238-1.79-0.755-1.123-1.019-1.966-1.838-3.245-3.113 1.62 0.317 3.212 0.341 5.386 0.054" fill="#fff"/>
   </g>
   <g transform="matrix(2.3094 0 0 2.3094 514.28 718.07)">
    <path d="m0 0c-1.077 1.47-3.521 2.944-6.506 4.118-0.773 0.305-1.532 0.259-2.288 0.139-2.146-0.338-3.893-0.985-6.183-1.931 2.515-1.485 4.842-3.086 6.988-4.765 1.062-0.832 1.559-1.868 1.26-2.973 2.495 1.442 4.201 2.462 6.371 3.84 0.732 0.465 0.795 0.975 0.358 1.572" fill="#fff"/>
   </g>
   <g transform="matrix(2.3094 0 0 2.3094 420.1 688.73)">
    <path d="m0 0c11.188-0.053 29.698 4.362 33.646 9.346 0.935-1.148 0.69-3.426-2.001-4.833-7.05-3.685-17.278-6.115-29.215-6.943-0.909 0.935-1.549 1.736-2.43 2.43" fill="#00307c"/>
   </g>
   <g transform="matrix(2.3094 0 0 2.3094 483.91 700.43)">
    <path d="m0 0c0.936 0.494 0.607 0.981-0.351 0.569-1.805-0.775-2.628-1.059-4.54-1.616-0.893-0.261-0.808-0.78 0.153-0.574 2.035 0.436 3.221 0.821 4.738 1.621" fill="#878ec2"/>
   </g>
   <g transform="matrix(2.3094 0 0 2.3094 498.25 709.52)">
    <path d="m0 0c2.268 1.035 3.541 1.592 5.81 2.945 0.544 0.325 0.675 0.835 0.477 1.492 1.274-1.174 0.932-1.905 0.238-2.348-1.711-1.094-4.138-2.567-6.207-3.7 0.079 0.656 0.06 1.034-0.318 1.611" fill="#dbdcdc"/>
   </g>
   <g transform="matrix(2.3094 0 0 2.3094 474.9 726.25)">
    <path d="m0 0c1.293 1.154 2.462 2.194 3.184 2.964 0.297 0.319 0.477 0.697 0.318 1.234 0.855-0.418 1.032-1.214 0.557-1.771-0.915-1.074-1.99-2.069-3.025-2.984z" fill="#dbdcdc"/>
   </g>
   <g transform="matrix(2.3094 0 0 2.3094 451.56 736.4)">
    <path d="m0 0c0.518 1.193 1.058 2.375 1.452 3.263 0.159 0.358 0.14 0.855-0.039 1.154 0.656-0.299 0.926-0.687 0.696-1.353-0.418-1.214-0.915-2.229-1.492-3.303z" fill="#dbdcdc"/>
   </g>
   <g transform="matrix(2.3094 0 0 2.3094 428.45 752.02)">
    <path d="m0 0c0.219-0.577 0.259-0.756 0.1-1.293-0.16-0.537-0.557-1.532-1.015-2.626l0.617-0.1c0.497 1.134 0.721 1.664 1.015 2.626 0.219 0.717 0.059 1.234-0.717 1.393" fill="#dbdcdc"/>
   </g>
   <g transform="matrix(2.3094 0 0 2.3094 421.47 708.89)">
    <path d="m0 0c-0.511 0.791-1.797 1.759-3.847 2.451-0.803 0.272-0.719 0.55 0.104 0.346 1.826-0.454 2.981-1.245 3.639-1.932z" fill="#ffee7d"/>
   </g>
   <g transform="matrix(2.3094 0 0 2.3094 416.67 716.39)">
    <path d="m0 0c-0.308-0.256-0.392-0.667-0.421-1.089l-0.451 0.193c0.052 0.432 0.193 0.855 0.487 1.161z" fill="#ffee7d"/>
   </g>
   <g transform="matrix(2.3094 0 0 2.3094 421.91 726.96)">
    <path d="m0 0c-0.189-0.326-0.483-0.63-0.947-0.715-0.796-0.146-1.549-0.518-2.145-0.96l-0.508 0.174c0.548 0.462 1.242 0.869 1.991 1.105 0.354-0.05 0.88 0.071 1.609 0.396" fill="#ffee7d"/>
   </g>
   <g transform="matrix(2.3094 0 0 2.3094 427.62 729.12)">
    <path d="m0 0c-0.17-0.525-0.407-1.014-0.729-1.282-0.686-0.569-1.148-1.114-1.387-1.897-0.108-0.354-0.238-0.662-0.403-0.926l-0.37 0.233c0.156 0.227 0.278 0.493 0.368 0.8 0.217 0.732 0.774 1.549 1.513 2.162 0.248 0.205 0.442 0.567 0.588 0.965z" fill="#ffee7d"/>
   </g>
   <g transform="matrix(2.3094 0 0 2.3094 411.77 718.93)">
    <path d="m0 0c-0.117-0.662-0.62-1.271-0.977-1.507-0.142-0.095-0.197-0.1-0.412-0.06-6.132 1.133-8.655-1.703-7.322-3.78l-0.582 0.174c-1.094 2.293 1.613 5.259 8.019 4.104 0.368 0.198 0.806 0.726 0.855 1.246z" fill="#ffee7d"/>
   </g>
   <g transform="matrix(2.3094 0 0 2.3094 449.77 715.24)">
    <path d="m0 0c0.883-0.031 2.045 9e-3 2.94 0.075-0.663-0.189-1.136-0.354-1.731-0.575l0.57-0.235c1.041 0.422 2.335 0.756 2.318 1.03-0.021 0.332-2.836 0.023-4.668 0.179-0.928 0.079-2.576-0.042-3.206-0.537-0.416-0.326-1.03-0.375-1.887-0.185-1.735 0.386-2.592 0.231-3.878-0.503l0.235-0.465c1.236 0.712 1.904 0.881 3.554 0.515l2.25 0.285c0.364 0.287 1.213 0.448 2.024 0.477l0.795 0.224z" fill="#ffee7d"/>
   </g>
   <g transform="matrix(2.3094 0 0 2.3094 384.45 713.94)">
    <path d="m0 0c-0.329-2.063 2.394-4.509 7.223-5.32 5.383-0.905 8.177 0.937 8.51 2.655 0.368 1.893-1.429 4.381-6.914 5.269-6.097 0.987-8.585-1.142-8.819-2.604m7.16-5.893c-5.413 0.91-7.986 3.708-7.627 5.955 0.359 2.235 3.703 4.028 9.36 3.112 5.676-0.919 7.753-3.64 7.306-5.948-0.446-2.299-3.847-3.991-9.039-3.119" fill="#0f141b"/>
   </g>
   <g transform="matrix(2.3094 0 0 2.3094 412.67 744.78)">
    <path d="m0 0c-1.024-1.383-1.489-1.975-2.303-3.099 0.136-0.466 0.222-0.677 0.41-1.118 0.102-0.237 0.087-0.298-0.082-0.444-1.17-1.016-2.676-2.379-3.907-3.548-0.116-0.112-0.189-0.126-0.37-0.123-5.67 0.138-8.415-2.432-8.765-4.612-0.38-2.384 1.621-6.916 9.69-8.272 5.929-0.995 10.828 0.676 11.982 3.676 0.098 0.252 0.138 0.306 0.388 0.373 3.346 0.896 5.822 1.405 8.212 1.925 0.178 0.036 0.215 0.038 0.349-0.05 0.599-0.396 1.502-0.999 2.203-1.393 5.055 1.22 12.305 2.973 15.917 4.397l0.507-0.363c-3.566-1.45-11.129-3.268-16.294-4.496-0.185-0.044-0.242-0.021-0.378 0.055-0.742 0.413-1.587 0.97-2.209 1.382-2.346-0.51-4.922-1.079-8.182-1.95-1.328-3.695-6.944-5.067-12.564-4.123-7.232 1.215-10.672 5.296-10.093 8.918 0.452 2.823 3.59 5.23 9.261 5.055 1.194 1.133 2.717 2.455 3.866 3.453-0.179 0.426-0.244 0.647-0.413 1.121-0.054 0.151-0.042 0.235 0.049 0.361 0.785 1.082 1.247 1.694 2.139 2.905z" fill="#0f141b"/>
   </g>
   <g transform="matrix(2.3094 0 0 2.3094 459.74 733.36)">
    <path d="m0 0c-1.646-0.593-3.267-1.227-5.014-2.004-0.226-0.1-0.291-0.12-0.498-0.047-1.695 0.598-3.308 1.187-5.325 1.837-0.514 0.166-0.522 0.303-0.079 0.564 1.26 0.742 2.328 1.424 3.539 2.187l0.617-0.169c-1.193-0.752-2.375-1.496-3.621-2.239 1.856-0.605 3.505-1.18 5.078-1.735 1.597 0.709 3.072 1.328 4.586 1.885z" fill="#0f141b"/>
   </g>
   <g transform="matrix(2.3094 0 0 2.3094 421.19 742.94)">
    <path d="m0 0c0.245 0.234 0.472 0.447 0.681 0.64-0.742 0.119-1.488 0.231-2.24 0.33-3.812 0.504-5.939 0.039-9.323-1.214-5.152-1.908-13.215-7.36-16.272-10.998l0.955-0.199c3.098 3.457 10.638 8.718 15.575 10.546 3.164 1.172 5.279 1.625 8.97 1.139 0.555-0.074 1.104-0.16 1.654-0.244" fill="#0f141b"/>
   </g>
   <g transform="matrix(2.3094 0 0 2.3094 436.15 741.73)">
    <path d="m0 0c-0.269-0.173-0.544-0.353-0.833-0.542 5.149-1.176 10.002-2.857 14.553-5.036 0.354 0.084 0.713 0.165 1.074 0.244-4.622 2.295-9.565 4.076-14.794 5.334" fill="#0f141b"/>
   </g>
   <g transform="matrix(2.3094 0 0 2.3094 496.29 713.06)">
    <path d="m0 0c-1.671 1.307-3.404 2.524-5.191 3.662-0.263-0.094-0.535-0.188-0.821-0.286 1.927-1.202 3.79-2.506 5.589-3.914 2.149-1.681 1.479-3.886-2.283-5.814-6.844-3.507-19.395-5.725-28.362-6.211l0.631-0.77c8.982 0.522 21.149 2.702 28.009 6.3 4.16 2.181 5.114 4.931 2.428 7.033" fill="#0f141b"/>
   </g>
   <g transform="matrix(2.3094 0 0 2.3094 403.87 743.97)">
    <path d="m0 0c1.413 1.413 2.298 2.285 3.574 3.429 0.528 0.472 0.996 0.801 1.963 0.816 1.747 0.025 3.193-0.146 5.067-0.445 0.838-0.133 1.259-0.88 0.952-1.851-0.244-0.772-0.619-1.711-0.978-2.553l-0.538 0.106c0.347 0.811 0.771 1.809 1.02 2.593 0.213 0.677-0.012 1.118-0.536 1.201-1.854 0.296-3.257 0.459-4.973 0.431-0.805-0.012-1.138-0.251-1.633-0.7-1.069-0.97-1.789-1.648-2.937-2.828z" fill="#0f141b"/>
   </g>
   <g transform="matrix(2.3094 0 0 2.3094 429.34 742.41)">
    <path d="m0 0c1.605 1.122 3.048 2.193 4.292 3.059 0.727 0.505 0.986 0.557 1.611 0.487 2.123-0.234 4.349-0.907 5.617-1.695 0.587-0.366 0.698-0.845 0.352-1.747-0.397-1.039-0.749-1.77-1.407-2.999l-0.518 0.189c0.663 1.241 1.046 1.963 1.443 2.999 0.259 0.679 0.211 0.908-0.129 1.12-1.226 0.762-3.32 1.382-5.392 1.611-0.452 0.05-0.731-0.045-1.313-0.438-1.192-0.803-2.56-1.852-3.81-2.75z" fill="#0f141b"/>
   </g>
   <g transform="matrix(2.3094 0 0 2.3094 452.71 735.94)">
    <path d="m0 0c2.292 1.024 4.297 1.792 5.935 2.338 0.856 0.286 1.309 0.296 2.203 0.025 2.542-0.773 4.269-1.526 5.392-2.328 0.724-0.517 0.852-1.369 0.263-2.019-1.049-1.16-1.664-1.785-2.964-2.94l-0.503 0.278c1.347 1.194 2.099 1.913 3.074 3 0.376 0.418 0.372 0.881-0.183 1.278-1.09 0.779-2.725 1.468-5.228 2.228-0.751 0.228-1.219 0.19-1.926-0.045-1.538-0.512-3.14-1.164-5.251-2.099z" fill="#0f141b"/>
   </g>
   <g transform="matrix(2.3094 0 0 2.3094 478.91 723.86)">
    <path d="m0 0c2.277 0.943 4.245 1.66 6.49 2.014 1.006 0.159 1.624 0.152 2.413-0.159 3.19-1.255 5.555-2.771 6.611-4.211 0.529-0.722 0.436-1.402-0.453-1.966-2.332-1.481-4.204-2.601-6.625-3.999l0.199 0.76c2.263 1.311 3.97 2.292 6.197 3.706 0.561 0.356 0.625 0.714 0.27 1.2-1.002 1.366-3.295 2.81-6.378 4.023-0.666 0.262-1.358 0.253-2.168 0.124-2.127-0.336-3.778-0.972-5.92-1.855z" fill="#0f141b"/>
   </g>
   <g transform="matrix(2.3094 0 0 2.3094 400.05 707.86)">
    <path d="m0 0c-0.011-0.443 0.604-1.125 2.608-1.243 1.872-0.11 2.636 0.529 2.647 0.995 0.013 0.484-0.634 1.257-2.526 1.363-1.793 0.1-2.717-0.621-2.729-1.115m2.584-1.755c-2.207 0.129-3.056 0.944-3.035 1.755 0.021 0.878 1.132 1.719 3.199 1.603 1.984-0.112 2.976-1.046 2.955-1.871-0.021-0.863-1.197-1.599-3.119-1.487" fill="#fce1b9"/>
   </g>
   <g transform="matrix(2.3094 0 0 2.3094 406.45 706.81)">
    <path d="m0 0c-0.014 0.351 0.398 0.876 1.494 0.885 1.049 8e-3 1.517-0.423 1.538-0.826 0.019-0.373-0.493-0.865-1.488-0.87-1.031-6e-3 -1.529 0.426-1.544 0.811" fill="#fff"/>
   </g>
   <g transform="matrix(2.3094 0 0 2.3094 484.67 720.41)">
    <path d="m0 0c-3.332-1.162-8.4-2.603-12.132-3.581-0.158-0.042-0.191-0.042-0.338 0.01-1.09 0.38-2.165 0.875-3.309 1.472-2.596-0.558-5.755-1.361-8.32-2.02-0.263-0.066-0.317 0.012-0.403 0.22-0.683 1.664-2.46 4.25-8.923 5.645-0.471 0.101-0.53 0.239-0.189 0.547 1.311 1.183 2.466 2.283 3.532 3.317-0.198 0.424-0.351 0.784-0.543 1.13-0.112 0.202-0.104 0.289 0.045 0.472 0.942 1.155 1.948 2.14 2.83 2.97l0.601-0.108c-0.957-0.902-2.212-2.15-3.028-3.136 0.189-0.353 0.4-0.804 0.582-1.193 0.104-0.222 0.081-0.297-0.08-0.453-1.014-0.987-2.095-1.989-3.357-3.133 6.413-1.359 8.245-4.089 8.949-5.777 2.563 0.657 5.634 1.453 8.191 2.001 0.148 0.034 0.193 0.033 0.333-0.039 1.13-0.592 2.205-1.073 3.283-1.453 3.306 0.869 8.395 2.292 11.735 3.452z" fill="#0f141b"/>
   </g>
   <g transform="matrix(2.3094 0 0 2.3094 469.16 729.16)">
    <path d="m0 0c-6.333-1.438-11.638-3.762-15.628-4.863-1.284-0.354-1.956 0.816-0.801 1.498 0.97 0.572 1.731 1 2.795 1.547-1.365 0.53-3.345 1.248-4.695 1.596-0.95-0.473-1.823-0.832-2.671-1.159-1.61-0.621-2.585 0.132-1.405 1.137 1.353 1.153 5.008 3.667 7.705 5.423l0.624-0.153c-2.747-1.749-6.504-4.324-8.024-5.606-0.68-0.575-0.241-0.814 0.966-0.348 0.855 0.329 1.523 0.648 2.487 1.129 0.222 0.111 0.297 0.119 0.477 0.074 1.493-0.376 3.721-1.266 5.068-1.795 0.401-0.156 0.376-0.369 0.016-0.552-1.197-0.607-2.148-1.11-3.109-1.677-0.646-0.38-0.36-0.91 0.477-0.681 4.129 1.129 8.844 3.298 15.067 4.745z" fill="#0f141b"/>
   </g>
   <g transform="matrix(2.3094 0 0 2.3094 467.84 728.85)">
    <path d="m0 0c2.173-1.04 4.278-2.189 6.311-3.458 0.286 0.097 0.557 0.191 0.82 0.285-1.952 1.241-3.972 2.381-6.057 3.417-0.361-0.078-0.72-0.16-1.074-0.244" fill="#94cbe6"/>
   </g>
   <g transform="matrix(2.3094 0 0 2.3094 422.77 744.42)">
    <path d="m0 0c-0.209-0.193-0.436-0.406-0.681-0.64 1.918-0.293 3.801-0.645 5.644-1.067 0.289 0.189 0.564 0.369 0.833 0.542-1.896 0.456-3.826 0.848-5.796 1.165" fill="#94cbe6"/>
   </g>
   <g transform="matrix(2.3094 0 0 2.3094 254.15 661.08)">
    <path d="m0 0c-3.424 0.271-6.543 0.641-8.839 1.158-15.584 3.512-37.619 3.25-51.315 1.833-3.31-0.343-4.562-1.458-5.292-3.342-1.008-2.6-1.878-5.22-2.136-7.985-0.023-0.307-0.094-0.471-0.221-0.691 1.531-13.439 11.854-24.382 23.035-31.992 2.262-1.539 3.616-1.794 6.207-1.008 11.196 3.396 35.919 15.44 43.347 23.875 3.089 3.508 5.473 5.698 7.791 7.147 4.387-3.269 9.022-6.138 13.815-8.331-2.146 2.774-3.54 9.074-3.54 12.18 0 1.154 0.516 1.791 1.753 1.193 6.326-3.056 17.319-6.631 23.616-7.585 4.484 5.486 11.592 4.341 15.075-1.431 5.772-0.573 12.976 0.667 17.174 2.093 2.075 0.705 3.227 2.737 2.785 5.253-3.501 19.935-25.803 34.747-57.3 33.067-9.468-0.505-18.482-0.758-26.35 0.179-1.945 1.635-5.848 4.45-7.71 5.534 0.028-0.889 0.195-2.334 0.554-4.244-4.394 1.114-8.261 2.804-11.431 5.295-1.487 1.168-3.662 2.388-3.927 2.016-1.278-1.789 4.878-13.48 15.331-25.911 0.208-1.396 1.981-3.17 2.71-2.537 1.099-1.389 1.814-2.324 3.148-3.328 0.495-0.961 0.841-1.508 1.72-2.438" fill="#003c8f"/>
   </g>
   <g transform="matrix(2.3094 0 0 2.3094 439.19 627)">
    <path d="m0 0c-6.711-1.99-12.149-2.308-18.066-1.906-2.361 5.646-9.257 7.052-12.527 1.299-6.201 0.766-18.022 4.894-23.922 7.212-0.743 0.292-0.992 0.106-0.955-0.503 0.159-2.574 1.422-10.86 5.512-12.261 0.493-0.187 0.989-0.368 1.487-0.543 0.516-2.128 1.43-4.513 2.331-6.143 0.378-0.683 0.781-0.85 1.985-0.567 2.566 0.605 6.785 2.105 9.314 3.346 11.135-1.702 22.016-1.002 29.132 1.488 5.661 1.98 8.798 5.614 9.246 10.809-0.964-1.223-1.912-1.75-3.537-2.231" fill="#d2ecfa"/>
   </g>
   <g transform="matrix(2.3094 0 0 2.3094 397.15 623.3)">
    <path d="M 0,0 C -2.948,-3.148 -9.606,-1.502 -11.739,2.043 -8.253,6.101 -2.906,5.57 0,0" fill="#00b8ee"/>
   </g>
   <g transform="matrix(2.3094 0 0 2.3094 394.04 628.03)">
    <path d="m0 0c-2.74-1.934-6.927-0.91-8.191 1.874 3.053 1.355 5.593 0.917 8.191-1.874" fill="#fff697"/>
   </g>
   <g transform="matrix(2.3094 0 0 2.3094 379.36 633.85)">
    <path d="m0 0c0.731-1.561 3.333-2.39 4.91-1.235-1.089 0.991-3.415 1.626-4.91 1.235" fill="#fbd6a0"/>
   </g>
   <g transform="matrix(2.3094 0 0 2.3094 386.16 634.7)">
    <path d="m0 0c-0.575 0.181-0.969-0.135-1.018-0.366-0.068-0.32 0.141-0.672 0.607-0.788 0.425-0.106 0.869 0 0.981 0.325 0.114 0.325-0.106 0.683-0.57 0.829" fill="#ef821e"/>
   </g>
   <g transform="matrix(2.3094 0 0 2.3094 386.07 634.43)">
    <path d="m0 0c-0.576 0.181-0.969-0.134-1.019-0.366-0.067-0.32 0.142-0.672 0.608-0.788 0.425-0.105 0.869 0 0.981 0.325 0.113 0.326-0.106 0.683-0.57 0.829" fill="#ef821e"/>
   </g>
   <g transform="matrix(2.3094 0 0 2.3094 445.7 644.78)">
    <path d="m0 0c1.062-2.619-0.4-5.123-2.476-5.828-4.197-1.425-11.401-2.666-17.173-2.093-3.483 5.772-10.591 6.917-15.076 1.431-6.296 0.954-17.29 4.53-23.615 7.585-1.237 0.598-1.754-0.039-1.754-1.193 0-3.126 1.412-9.49 3.581-12.235 0.678-0.858 2.186-1.813 3.735-1.524-3.596 1.098-5.29 8.47-5.565 12.367-0.042 0.597 0.25 0.749 0.851 0.462 4.977-2.381 18.478-6.764 24.079-7.278 2.8 5.118 9.659 5.005 12.526-1.298 6.574-0.704 14.313 0.676 18.777 2.137 4.441 1.453 3.95 6.277 2.11 7.467" fill="#00b8ee"/>
   </g>
   <g transform="matrix(2.3094 0 0 2.3094 412.45 626.06)">
    <path d="m0 0s-0.573 4.598-0.6 6.429c0.795 1.061 1.299 1.565 2.254 2.44 8.608 0.075 11.319 2.71 10.663 6.455-3.304 7.316-9.867 14.211-18.501 18.421-0.937-0.025-1.763-0.21-2.434-0.536-12.488 5.345-24.202 6.518-37.198 6.043-6.935-0.252-12.818-0.369-19.379 0.312 0.636-0.532 1.121-1.052 1.9-1.747 5.509-0.588 11.469-0.674 17.836-0.43 10.595 0.405 25.698-1.476 35.032-6.109-1.987-4.527 1.32-12.783 9.216-15.612 0.213-1.252 0.505-2.605 0.77-4.064-1.406-1.645-2.653-3.29-3.501-4.961 0.079-2.467 0.356-6.625 0.356-6.625s2.968-0.128 3.586-0.016" fill="#d2ecfa"/>
   </g>
   <g transform="matrix(2.3094 0 0 2.3094 433.59 669.96)">
    <path d="m0 0c-0.281-3.47-3.729-4.346-7.229-4.023 0.11-0.995 0.255-1.968 0.435-2.967 4.557-0.409 9.136 1.603 8.024 5.079-0.209 0.654-0.733 1.4-1.23 1.911" fill="#003c8f"/>
   </g>
   <g transform="matrix(2.3094 0 0 2.3094 236.48 719.58)">
    <path d="m0 0c-4.417 1.472-8.551 3.535-12.071 6.294-1.382 1.084-2.27 1.822-3.294 2.378 0.046 0.558 1.386 0.212 3.876-1.668 3.311-2.501 7.607-4.606 10.954-5.21 0.173-0.707 0.285-1.118 0.535-1.794" fill="#d2ecfa"/>
   </g>
   <g transform="matrix(2.3094 0 0 2.3094 268.04 711.73)">
    <path d="m0 0c4.511-2.507 7.478-3.091 11.593-3.997 3.524-0.776 7.592-1.789 10.989-3.139 3.149 1.592 10.226 1.136 18.742-3.101 8.387-4.174 12.202-11.527 10.254-15.502-1.561-3.187-9.435-2.862-17.25 0.835-9.936 4.701-14.209 11.278-13.647 15.15-3.007 1.703-5.977 2.468-9.367 3.213-3.157 0.694-5.284 1.297-7.968 2.76-0.73 1.1-1.877 2.402-3.346 3.781" fill="#d2ecfa"/>
   </g>
   <g transform="matrix(2.3094 0 0 2.3094 291.94 676.9)">
    <path d="m0 0c-0.466-0.771 0.04-3.164 3.427-5.386 3.34-2.193 5.765-2.016 6.358-1.072 0.652 1.038 0.123 3.496-3.458 5.583-3.482 2.029-5.809 1.73-6.327 0.875" fill="#fbd6a0"/>
   </g>
   <g transform="matrix(2.3094 0 0 2.3094 274.23 659.86)">
    <path d="m0 0c-1.673 5.766-0.687 12.778 0.752 17.169 0.243 0.741 0.271 1.046-0.186 1.706-2.928 4.228-12.996 12.01-17.761 14.87-0.653 0.391-1.027 0.299-0.895-0.606 0.557-3.82 1.748-7.849 3.231-11.779-1.038 3.93-1.723 7.625-1.952 10.36 4.338-2.707 12.706-9.174 15.375-13.031 0.617-0.89 0.648-1.168 0.372-2.187-1.579-5.81-1.7-11.931-0.231-16.453 0.361-0.018 0.807-0.035 1.295-0.049" fill="#00b8ee"/>
   </g>
   <g transform="matrix(2.3094 0 0 2.3094 239.37 711.04)">
    <path d="m0 0c-1.708-4.081-1.071-12.994 1.117-16-0.441-0.026-1.298 0.355-1.939 1.782-1.563 3.472-1.907 11.559 0.268 15.947 0.192-0.646 0.359-1.222 0.554-1.729" fill="#00b8ee"/>
   </g>
   <g transform="matrix(2.3094 0 0 2.3094 265.27 660.47)">
    <path d="m0 0c-1.043 2.952-1.294 6.777-0.971 9.606-1.569 1.1-3.222 2.352-4.777 3.668-1.007-2.362-0.688-8.779 1.434-13.022 1.276-0.121 2.753-0.205 4.314-0.252" fill="#d2ecfa"/>
   </g>
   <g transform="matrix(2.3094 0 0 2.3094 250.06 667.03)">
    <path d="m0 0c-1.999 4.554-2.06 9.436-1.437 12.489-0.941 0.91-1.793 1.553-2.673 2.589-0.468-2.147-0.618-6.384 0.414-10.189 0.249-0.92 0.673-1.981 0.991-2.405 0.318-0.425 1.405-1.519 2.705-2.484" fill="#d2ecfa"/>
   </g>
   <g transform="matrix(2.3094 0 0 2.3094 370.42 654.88)">
    <path d="m0 0c0.103 2.272-1.594 5.288-5.346 6.817-4.47 1.823-7.952 0.985-9.206-0.35-2.237 0.58-5.069 1.575-7.392 2.641 0.973-1.257 1.773-2.346 3.005-3.512 1.173-0.546 2.246-0.938 3.356-1.268-0.048-0.557 0.014-1.196 0.295-1.781 3.812-2.253 8.443-4.451 12.085-5.267 0.852 0.077 1.529 0.377 2.041 0.679 0.909-0.398 1.86-0.816 2.996-1.316 1.356 0.039 2.364 0.219 3.784 0.746-1.494 0.751-3.419 1.628-5.618 2.611" fill="#fff697"/>
   </g>
   <g transform="matrix(2.3094 0 0 2.3094 345.33 663.12)">
    <path d="m0 0c-0.296-0.791 0.362-2.059 2.414-2.786 2.019-0.714 3.147-0.331 3.475 0.385 0.269 0.586-0.104 1.943-2.201 2.772-2.215 0.876-3.448 0.268-3.688-0.371" fill="#fbd6a0"/>
   </g>
   <g transform="matrix(2.3094 0 0 2.3094 336.81 669.81)">
    <path d="m0 0c-1.946 0.485-4.712 1.369-7.324 2.493-1.069 1.685-1.995 3.455-1.826 5.871-1.377 1.32-6.208 2.556-10.31 3.455-2.557 0.561-4.72 1.349-6.911 2.5-0.647 1.012-2.219 2.725-3.286 3.765 3.09-1.742 7.135-3.09 10.393-3.68 3.259-0.59 9.299-2.332 12.052-3.399 2.809 1.096 5.9 1.096 9.357 0.371 4.278-2.356 7.568-6.885 7.631-11.299-3.026 1.629-7.902 1.84-9.776-0.077" fill="#fff697"/>
   </g>
   <g transform="matrix(2.3094 0 0 2.3094 338.08 670.83)">
    <path d="m0 0c0.428 7.129-8.833 11.089-23.348 12.322 1.058-0.371 2.155-0.682 3.339-0.942 4.102-0.899 8.933-2.135 10.31-3.455-0.169-2.416 0.758-4.186 1.826-5.871 2.612-1.124 5.378-2.008 7.324-2.493 0.159 0.164 0.349 0.306 0.549 0.439" fill="#fbd6a0"/>
   </g>
   <g transform="matrix(2.3094 0 0 2.3094 403.71 673.82)">
    <path d="m0 0c-2.214 0.277-5.007 1.863-6.472 3.798-0.786 1.949-0.739 4.008-0.586 5.465 0.482-0.184 0.878-0.403 1.225-0.622 0.732 0.2 1.54 0.344 2.327 0.338-0.893-1.734-0.419-5.307 3.506-8.979" fill="#fff697"/>
   </g>
   <g transform="matrix(2.3094 0 0 2.3094 425.14 666.79)">
    <path d="m0 0c-0.423-0.173-1.077-0.295-1.692-0.289 0.846-0.833 1.468-1.506 1.872-2.115 0.327 0.077 0.584 0.166 0.782 0.275-0.263 0.764-0.52 1.34-0.962 2.129" fill="#fff697"/>
   </g>
   <g transform="matrix(2.3094 0 0 2.3094 251.05 686.97)">
    <path d="m0 0c0.164-0.013 0.46-0.018 0.695-0.028 0.739-0.701 2.449-2.499 3.367-3.329-0.226-0.352-0.391-1.082-0.328-1.242 0.102-0.255 0.605-0.594 1.309-0.694-0.051 0.893 0.02 2.281 0.146 3.425-1.718 1.252-2.881 2.149-4.777 3.668-0.248-0.618-0.349-1.133-0.412-1.8" fill="#fff697"/>
   </g>
   <g transform="matrix(2.3094 0 0 2.3094 246.14 693.03)">
    <path d="M 0,0 C 0.051,0.491 0.139,0.943 0.239,1.283 -0.653,2.1 -1.843,3.258 -2.411,3.817 -1.886,2.565 -1.156,1.044 0,0" fill="#fff697"/>
   </g>
   <g transform="matrix(2.3094 0 0 2.3094 284.36 718.78)">
    <path d="M 0,0 C 1.852,1.476 1.389,8.432 -1.74,12.179 3.069,10.04 13.557,4.444 17.02,0.628 12.167,0.414 4.679,0.115 0,0" fill="#003c8f"/>
   </g>
   <g transform="matrix(2.3094 0 0 2.3094 329.94 720.17)">
    <path d="m0 0c-2.366 3.981-15.792 11.042-21.224 12.794-0.789 0.254-1.721-0.465 0.434-1.503 5.279-2.541 14.719-7.617 18.245-11.289 0.799 0.021 1.607 0.019 2.545-2e-3" fill="#00b8ee"/>
   </g>
   <g transform="matrix(2.3094 0 0 2.3094 150.41 576.17)">
    <path d="m0 0c0.378 0.991 0.813 1.404 1.421 1.809 3.044 2.029 7.135 4.576 9.807 6.253-0.427 1.052-0.711 1.706-1.109 2.615 2.985 1.706 6.082 3.923 8.161 5.418 11.108-2.79 19.498 2.271 19.926 8.305 0.382 5.384-4.814 10.624-13.449 11.778-7.07 0.945-11.975-0.795-14.533-3.571-4.421 0.6-8.905 1.077-13.6 1.104-0.61 0.424-1.061 0.742-1.645 1.167-5.221 0.437-9.762 0.557-15.015-0.159-0.616-0.084-1.031-0.214-1.321-0.503-0.482-1.234-0.964-3.352-1.125-4.639 0.27 0.581 0.67 0.91 1.333 1.029 4.403 0.796 9.177 1.142 14.457 0.982 0.716-0.398 1.459-0.796 2.043-1.061 3.793 0.133 9.178-0.319 13.158-0.804-1.173-3.619 0.288-8.932 5.387-11.89-2.243-1.812-5.852-3.717-9.348-5.678 0.284-0.852 0.597-1.819 0.938-2.785-2.246-1.336-6.105-3.592-8.64-4.861-0.437-0.218-1.059-0.746-1.25-1.407 1.462-0.914 2.957-1.952 4.404-3.102" fill="#00b8ee"/>
   </g>
   <g transform="matrix(2.3094 0 0 2.3094 98.488 644.47)">
    <path d="m0 0c0.271 0.581 0.671 0.91 1.333 1.029 4.403 0.796 9.178 1.141 14.457 0.982 0.717-0.398 1.459-0.796 2.043-1.061 3.793 0.133 9.179-0.319 13.158-0.804-1.173-3.619 0.288-8.933 5.387-11.89-2.242-1.813-5.852-3.717-9.348-5.678 0.284-0.852 0.597-1.819 0.939-2.786-2.246-1.335-6.106-3.591-8.641-4.86-1.119-0.559-2.092-2.671-2.41-4.462-7.972 6.049-16.566 17.349-17.31 27.695 0.205 0.646 0.342 1.192 0.392 1.835" fill="#d2ecfa"/>
   </g>
   <g transform="matrix(2.3094 0 0 2.3094 116.35 606.1)">
    <path d="m0 0c-0.012 0.404 0.157 0.688 0.571 0.913 2.662 1.441 6.21 2.837 9.767 3.96-1.393 1.627-2.997 3.619-4.161 5.173-3.524-0.655-6.927-1.329-8.989-1.895-0.721-0.198-1.601-0.713-1.837-1.363-0.604 1.418-1.45 3.245-1.915 3.919 0.126 0.249 0.366 0.414 0.803 0.517 6.455 1.526 19.392 2.668 23.738 2.413 1.402-0.083 1.648-1.002 0.185-1.341-1.422-0.33-4.099-0.816-7.137-1.365 1.235-1.66 2.574-3.357 3.808-4.785 2.209 0.55 4.265 0.944 5.928 1.119 1.698 0.178 1.889-0.581 0.33-1.403-5.012-2.639-11.92-4.475-16.602-7.094-0.819-0.458-1.386-1.209-1.431-2.14-0.949 1.307-2.231 2.654-3.058 3.372" fill="#e8538d"/>
   </g>
   <g transform="matrix(2.3094 0 0 2.3094 201.39 619.58)">
    <path d="m0 0c-7.042 0.725-10.757 5.241-10.279 9.061 0.431 3.453 4.757 6.82 12.483 5.692 6.917-1.011 10.298-5.378 9.908-8.595-0.469-3.877-4.864-6.903-12.112-6.158" fill="#d2ecfa"/>
   </g>
   <g transform="matrix(2.3094 0 0 2.3094 155.2 637.69)">
    <path d="m0 0c-1.459 0.716-3.198 1.248-4.629 1.446-0.955 0.133-1.794 0.037-2.228-0.186-1.035-0.53-6.208 0.026-6.155 0.478 0.033 0.275 3.555 0.159 5.624 0.981 0.826 0.329 1.777 0.415 2.52 0.398 1.168-0.026 2.308-0.212 3.82-0.478 0.976-0.171 2.122 0.027 3.476 0.293 1.334 0.26 2.467 0.161 3.859-0.386-0.264-1.002-0.319-2.583-0.054-3.818-1.425-0.601-2.55-0.397-4.081 0.261 0.661 0.52-0.123 1.064-2.152 1.011" fill="#fff697"/>
   </g>
   <g transform="matrix(2.3094 0 0 2.3094 178.02 635.56)">
    <path d="m0 0c0.274 0.032 0.558 0.079 0.841 0.127 0.247-1.227 1.094-2.491 2.482-3.462-0.094-0.3-0.207-0.633-0.334-0.971 0.633-0.433 1.639-1.078 2.522-1.459 0.346 0.378 0.634 0.721 0.831 1.03 4.451-1.101 10.34 0.182 11.241 4.084 1.345 0.309 3.096 0.685 4.613 1.086-0.133 0.912-0.452 1.625-0.837 2.378-1.566-0.091-2.62-0.177-4.193-0.377-0.979 1.773-3.358 3.385-7.689 3.633-4.142 0.237-7.316-1.502-8.38-3.649-0.378-0.107-0.802-0.146-1.229-0.132-0.093-0.607-0.067-1.421 0.132-2.288" fill="#fff697"/>
   </g>
   <g transform="matrix(2.3094 0 0 2.3094 178.94 619.8)">
    <path d="m0 0c-2.598-0.166-4.145-0.786-5.438-4.02-0.283-0.705-0.664-1.042-1.3-1.22-0.886-0.248-1.331-0.532-1.884-1.327-0.849-1.22-2.202-1.91-4.272-2.6-0.961-0.32-1.246-1.034-1.114-1.22 0.18-0.252 1.698 0.319 3.105 0.398 1.24 0.07 2.626 0.265 3.681 1.313-0.207 0.638-0.465 1.416-0.585 1.913 3.016 1.599 7.879 4.518 9.36 5.739-0.563 0.324-1.031 0.622-1.553 1.024" fill="#fff697"/>
   </g>
   <g transform="matrix(2.3094 0 0 2.3094 207.26 636.74)">
    <path d="m0 0c0 1.215-1.28 2.25-3.462 2.268-2.176 0.018-3.308-1.117-3.343-2.248-0.036-1.204 1.115-2.328 3.303-2.308 2.229 0.02 3.502 0.973 3.502 2.288" fill="#fbd6a0"/>
   </g>
   <g transform="matrix(2.3094 0 0 2.3094 82.39 662.9)">
    <path d="m0 0c-1.194-0.111-1.706-0.377-2.175-1.087-1.009-1.526-1.592-3.435-1.831-5.545-0.108-0.956 0.261-1.591 1.314-1.91 2.454-0.743 6.114-1.379 8.515-1.591 0.678-0.06 0.915 0.437 0.968 1.008 0.258 2.765 1.128 5.385 2.136 7.985 0.161 0.414 0.348 0.788 0.576 1.129-3.469 0.094-8.088 0.143-9.503 0.011" fill="#fff"/>
   </g>
   <g transform="matrix(2.3094 0 0 2.3094 116.35 606.1)">
    <path d="m0 0c-0.012 0.404 0.157 0.688 0.571 0.913 2.662 1.441 6.21 2.837 9.767 3.96-1.393 1.627-2.997 3.619-4.161 5.173-3.524-0.655-6.927-1.329-8.989-1.895-0.721-0.198-1.601-0.713-1.837-1.363 0.613-1.361 1.181-3.224 0.297-3.886l0.631-1.325c1.2 0.426 2.004 0.205 3.721-1.577" fill="#003c8f"/>
   </g>
   <g transform="matrix(2.3094 0 0 2.3094 234.86 724.51)">
    <path d="m0 0c-2.49 0.932-5.221 3.177-6.893 6.059-2.254 3.887-4.463 5.419-9.418 7.879-3.87 1.922-6.818 2.94-8.038 3.793-0.561 0.394-0.438 0.673 0.133 0.743 0.756 0.093 1.646 0.098 2.468 0.067 0.345-0.014 0.524-0.067 0.822-0.252 0.742-0.465 2.487-1.201 5.332-2.355 5.889-2.388 8.451-3.773 11.142-7.6 1.253-1.783 2.554-3.691 3.623-4.376 0.259-1.27 0.467-2.521 0.829-3.958" fill="#003c8f"/>
   </g>
   <g transform="matrix(2.3094 0 0 2.3094 277.53 718.84)">
    <path d="m0 0c2.911 0.891 3.301 3.517 1 4.72-2.892 1.512-4.925 3.244-7.082 6.049-3.449 4.483-6.341 7.243-9.498 8.382-1.909 0.69-3.74 1.327-5.57 2.388-0.317 0.183-0.678 0.298-0.999 0.295-0.523-5e-3 -1.221-0.017-1.669-0.069-0.32-0.037-0.277-0.271-0.032-0.416 2.553-1.508 4.384-2.164 7.806-3.557 1.995-0.812 4.311-2.46 7.958-7.68 1.063-1.519 3.575-3.881 3.959-4.475 0.417-0.645 0.111-0.874-0.507-0.576-1.389 0.67-3.966 2.817-5.096 4.487-3.249 4.802-6.196 7.215-11.049 8.728-2.467 0.769-4.373 1.619-6.134 2.951-0.354 0.268-0.639 0.369-0.956 0.364-0.689-0.011-1.155 0.024-1.654 0.048-0.388 0.018-0.536-0.104-0.21-0.459 0.812-0.89 5.054-3.11 8.954-4.781 3.899-1.671 6.307-4.437 7.919-6.446 1.611-2.01 3.899-4.457 5.769-5.849-4.505 1.552-8.611 4.758-11.341 8.276-1.592 2.054-2.547 3.244-4.933 4.318-2.388 1.074-5.635 2.64-8.437 4.158-0.477 0.259-0.775 0.358-1.233 0.318-0.457-0.04-1.194-0.072-1.592-0.119-0.338-0.04-0.448-0.22-0.06-0.418 2.766-1.406 6.321-2.998 9.133-4.278 2.325-1.058 3.358-2.24 5.193-4.874 0.908-1.303 2.463-3.168 4.737-5.228 2.015-1.408 5.883-4.283 7.687-5.858 2.386-0.23 5.338-0.354 7.937-0.399" fill="#003c8f"/>
   </g>
   <g transform="matrix(2.3094 0 0 2.3094 216.38 767.13)">
    <path d="m0 0c1.642-1.155 3.436-1.93 5.702-2.636 4.854-1.514 7.8-3.926 11.049-8.728 1.131-1.67 3.707-3.818 5.097-4.488 0.618-0.297 0.923-0.068 0.506 0.577-0.383 0.593-2.896 2.955-3.958 4.475-3.648 5.219-5.963 6.867-7.958 7.679-3.326 1.353-5.148 2.012-7.591 3.432-0.243-0.513-0.922-0.813-2.847-0.311" fill="#d2ecfa"/>
   </g>
   <g transform="matrix(2.3094 0 0 2.3094 224.58 743.75)">
    <path d="m0 0c-2.635 3.866-5.253 5.212-11.142 7.6-1.82 0.738-3.189 1.306-4.134 1.74 1.488-0.108 2.94-0.248 3.517 0.509 2.766-1.407 6.321-2.998 9.133-4.278 2.325-1.059 3.357-2.24 5.192-4.875 0.909-1.303 2.463-3.168 4.738-5.228-1.614 1.209-3.445 2.344-3.723 2.164-0.278-0.179-0.14-1.054 0.02-1.85-0.975 0.517-2.368 2.407-3.601 4.218" fill="#d2ecfa"/>
   </g>
   <g transform="matrix(2.3094 0 0 2.3094 260.13 740.6)">
    <path d="m0 0c-0.688 0.107-1.448-0.026-1.646-0.688 1.127-1.208 3.451-3.253 4.527-3.686 0.643-0.259 0.867 0.027 0.482 0.662-0.384 0.635-2.226 2.406-3.363 3.712" fill="#fff697"/>
   </g>
   <g transform="matrix(2.3094 0 0 2.3094 99.054 634.23)">
    <path d="m0 0c-0.619 0.816-1.062 0.928-2.176 0.716-3.077-0.583-6.3-1.445-8.568-2.201-0.796-0.266-0.971-0.612-0.929-1.46 0.133-2.652 0.77-4.589 1.831-6.578 0.32-0.599 0.585-0.694 1.486-0.743 3.369-0.186 7.135 0.026 10.478 0.61 1.5 0.262 1.711 1.335 1.326 2.627-0.663 2.228-2.36 5.596-3.448 7.029" fill="#fff"/>
   </g>
   <g transform="matrix(2.3094 0 0 2.3094 113.57 608.62)">
    <path d="m0 0c-1.021 0.914-1.691 0.809-3.21 0.159-2.918-1.246-6.261-2.997-9.072-4.802-0.795-0.509-0.859-1.119-0.425-1.83 1.247-2.042 3.144-4.471 5.066-6.154 0.637-0.557 1.118-0.644 2.203-0.345 3.263 0.902 7.295 2.123 10.373 3.608 1.197 0.577 1.413 1.543 0.715 2.785-1.459 2.6-2.891 4.112-5.65 6.579" fill="#fff"/>
   </g>
   <g transform="matrix(2.3094 0 0 2.3094 133.85 586.75)">
    <path d="m0 0c-0.909 0.471-1.527 0.365-2.228-0.318-2.123-2.07-5.438-5.386-6.923-7.322-0.611-0.796-0.817-1.683 0.131-2.388 1.964-1.458 3.771-2.892 5.678-4.005 0.811-0.473 1.895-0.689 3.077-0.106 3.555 1.751 6.793 3.564 9.205 5.173 0.875 0.584 1.078 1.424 0.106 2.493-2.36 2.6-5.252 4.51-9.046 6.473" fill="#fff"/>
   </g>
   <g transform="matrix(2.3094 0 0 2.3094 125.27 587.27)">
    <path d="m0 0c0.336-0.363 0.676-0.72 1.018-1.071 0.889 1.098 1.583 1.319 2.85 0.942-1.312 1.182-2.591 2.437-3.815 3.75 1.042-1.647 1.204-3.124-0.053-3.621" fill="#c5ddeb"/>
   </g>
   <g transform="matrix(2.3094 0 0 2.3094 106.48 613.01)">
    <path d="m0 0c0.249-0.457 0.508-0.913 0.775-1.367 1.041 0.409 1.971 0.014 3.786-1.864-1.839 2.413-3.469 4.649-4.932 7.492 0.748-2.247 1.008-3.636 0.371-4.261" fill="#00307c"/>
   </g>
   <g transform="matrix(2.3094 0 0 2.3094 103.12 628.18)">
    <path d="m0 0c-1.099 2.563-1.709 4.91-1.971 7.923-0.053-1.326-0.213-2.441-0.425-2.812 0.052-0.666 0.14-1.34 0.26-2.02 0.876-1.013 1.382-1.751 2.136-3.091" fill="#c5ddeb"/>
   </g>
   <g transform="matrix(2.3094 0 0 2.3094 152.88 565.03)">
    <path d="m0 0c1.973-1.06 3.402-1.109 6.139-0.173 10.479 3.587 35.191 14.797 42.694 23.863 3.874 4.68 7.973 8.01 13.41 9.192 1.178 0.257 1.895 0.678 2.051 1.729 0.098 0.659-0.352 0.889-1.215 0.778-6.208-0.796-12.137-4.735-17.15-10.425-6.499-7.377-26.139-16.439-38.916-21.925-2.707-1.163-4.221-1.282-5.912-0.301 0.71-1.269 0.353-1.99-1.101-2.738" fill="#00307c"/>
   </g>
   <g transform="matrix(2.3094 0 0 2.3094 255.06 618.17)">
    <path d="m0 0c0.544 0.542 0.234 0.784-0.426 0.372-1.868-1.166-3.102-2.132-4.837-3.789-0.599-0.574-0.34-0.893 0.426-0.392 1.859 1.216 3.307 2.285 4.837 3.809" fill="#878ec2"/>
   </g>
   <g transform="matrix(2.3094 0 0 2.3094 438.65 647.02)">
    <path d="m0 0c-0.327 0.675-0.513 0.534-0.287-0.131 0.522-1.546 0.784-2.751 1.022-4.241 0.183-1.137 0.946-1.022 0.729 0.171-0.274 1.501-0.739 2.706-1.464 4.201" fill="#878ec2"/>
   </g>
   <g transform="matrix(2.3094 0 0 2.3094 251.1 755.83)">
    <path d="m0 0c0.521-0.023 0.558-0.547 0.03-0.547-0.139 0-0.283 0.01-0.387 0.015-0.485 0.023-0.549 0.499-0.05 0.537 0.129 0.01 0.298 0 0.407-5e-3" fill="#878ec2"/>
   </g>
   <g transform="matrix(2.3094 0 0 2.3094 237.68 754.92)">
    <path d="m0 0c0.336 0.063 0.524 0.099 0.823 0.114 0.59 0.029 0.699-0.55 0.11-0.587-0.354-0.023-0.592-0.055-0.861-0.1-0.585-0.097-0.643 0.467-0.072 0.573" fill="#878ec2"/>
   </g>
   <g transform="matrix(2.3094 0 0 2.3094 227.27 752.96)">
    <path d="m0 0c0.09 0.033 0.234 0.058 0.367 0.072 0.5 0.054 0.653-0.469 0.146-0.561-0.11-0.02-0.239-0.055-0.338-0.075-0.529-0.105-0.68 0.378-0.175 0.564" fill="#878ec2"/>
   </g>
   <g transform="matrix(2.3094 0 0 2.3094 214.33 748.7)">
    <path d="m0 0c0.355 0.184 0.712 0.329 1.079 0.443 0.688 0.212 0.921-0.32 0.243-0.562-0.41-0.146-0.664-0.248-1.08-0.426-0.557-0.239-0.901 0.206-0.242 0.545" fill="#878ec2"/>
   </g>
   <g transform="matrix(2.3094 0 0 2.3094 323.22 612.66)">
    <path d="m0 0c0.504-0.159 1.061-0.318 1.592-0.424-0.08 0.398-0.159 0.796-0.199 1.074-0.128 0.892 0.171 1.12 0.95 0.708 3.36-1.782 7.286-3.215 10.646-3.802 0.919-0.16 0.937-0.562 0.123-1.037-2.129-1.245-5.869-2.761-8.616-3.496 1.193-1.074 8.324 1.967 11.034 3.172 10.079-2.335 33.211-1.247 36.771 7.37-7.7-7.267-34.926-8.862-57.088 5.199 0.302-2.499 2.399-7.729 4.787-8.764" fill="#c5ddeb"/>
   </g>
   <g transform="matrix(2.3094 0 0 2.3094 308.14 634.11)">
    <path d="m0 0c-1.813 0.951-3.593 1.939-5.337 2.96-1.759-0.427-4.037-1.302-5.46-2.257 2.716-2.378 9.73-6.566 13.808-8.377-1.373 1.751-2.341 4.803-3.011 7.674" fill="#00307c"/>
   </g>
   <g transform="matrix(2.3094 0 0 2.3094 264.77 660.88)">
    <path d="m0 0c-1.96 1.517-3.873 3.057-5.677 4.643 0.322-1.318 0.966-3.372 1.481-4.511 1.324-0.202 3.052-0.313 4.212-0.368z" fill="#c5ddeb"/>
   </g>
   <g transform="matrix(2.3094 0 0 2.3094 240.62 682.99)">
    <path d="m0 0c-0.393 0.39-0.78 0.781-1.162 1.174 0.197-1.403 0.878-4.143 2.092-5.376-0.46 1.638-0.756 2.869-0.93 4.202" fill="#00307c"/>
   </g>
   <g transform="matrix(2.3094 0 0 2.3094 201.26 740.02)">
    <path d="m0 0c2.755-7.324 7.789-14.914 14.553-22.13 0.095-1.099 0.261-2.391 0.659-3.484-8.842 9.802-16.448 23.51-15.212 25.614" fill="#00307c"/>
   </g>
   <g transform="matrix(2.3094 0 0 2.3094 308.14 634.11)">
    <path d="m0 0c0.25-0.575 1.346-1.052 1.845-0.803 0.349-2.948 2.473-7.595 4.947-8.419-2.474-0.675-5.039 1.504-6.792 9.222" fill="#00a0cf"/>
   </g>
   <g transform="matrix(2.3094 0 0 2.3094 251.66 672.68)">
    <path d="m0 0c-0.701 0.617-1.391 1.238-2.067 1.864 0.292-1.453 1.212-4.304 1.947-5.665l1.599-1.177c-0.662 1.508-1.083 3.097-1.479 4.978" fill="#00307c"/>
   </g>
   <g transform="matrix(2.3094 0 0 2.3094 249.76 667.25)">
    <path d="m0 0c-0.435 1.244-0.877 2.651-1.167 3.687-0.929 0.859-1.799 1.646-2.679 2.521 0.254-1.195 0.319-2.176 0.716-2.919 0.6-1.12 1.686-2.19 3.13-3.289" fill="#c5ddeb"/>
   </g>
   <g transform="matrix(2.3094 0 0 2.3094 279.32 729.77)">
    <path d="m0 0c1.338-2.184 0.078-3.699-3.346-4.565l3.149-0.138c2.636 1.299 2.4 3.778 0.197 4.703" fill="#00307c"/>
   </g>
   <g transform="matrix(2.3094 0 0 2.3094 79.072 662.01)">
    <path d="m0 0c-0.896-1.793-1.419-3.948-1.606-5.876-0.045-0.46 0.075-1.009 0.682-1.165 2.303-0.588 5.906-1.188 7.469-1.365 0.71-0.08 1.312-0.026 1.726 0.348-0.12-1.205-0.346-1.638-1.337-1.566-2.771 0.201-6.999 1.027-8.299 1.539-0.884 0.348-1.384 0.926-1.245 1.887 0.321 2.223 1.151 5.167 2.61 6.198" fill="#dbdcdc"/>
   </g>
   <g transform="matrix(2.3094 0 0 2.3094 112.47 568.51)">
    <path d="m0 0c0.119-0.736 3.541-3.024 6.168-4.596 0.943-0.565 1.75-0.503 2.765 0.04 3.164 1.691 4.596 2.586 7.68 4.596 0.707 0.46 1.213 1.233 1.094 2.029 1.632-1.571 1.333-2.626-0.139-3.561s-6.142-3.569-8.197-4.576c-1.015-0.497-2.328-0.677-3.383-0.099-1.054 0.576-4.467 2.882-5.61 3.939-0.919 0.85-0.896 1.293-0.378 2.228" fill="#dbdcdc"/>
   </g>
   <g transform="matrix(2.3094 0 0 2.3094 85.378 598.01)">
    <path d="m0 0c-0.086-0.792 2.583-4.218 5.028-6.646 0.475-0.472 1.038-0.652 1.981-0.362 3.357 1.033 5.699 1.808 8.935 3.117 1.237 0.499 1.74 1.321 1.636 2.186 0.896-0.964 0.911-2.493-0.757-3.219-3.203-1.395-7.1-2.678-9.918-3.409-1.326-0.345-1.862-0.264-2.497 0.378-1.721 1.739-4.019 4.601-4.993 6.199-0.431 0.706-0.068 1.342 0.585 1.756" fill="#dbdcdc"/>
   </g>
   <g transform="matrix(2.3094 0 0 2.3094 74.532 630.91)">
    <path d="m0 0c-0.561-0.762 0.575-5.522 1.586-7.373 0.208-0.379 0.435-0.455 1.043-0.466 3.095-0.062 6.159-0.032 9.38 0.528 1.439 0.25 1.946 0.692 2.006 1.758 0.576-1.477 0.243-2.316-1.618-2.691-3.235-0.653-8.039-0.749-10.468-0.591-0.716 0.046-0.903 0.296-1.229 0.855-0.809 1.385-1.587 4.185-1.804 6.705-0.062 0.706 0.31 0.995 1.104 1.275" fill="#dbdcdc"/>
   </g>
   <g transform="matrix(2.3094 0 0 2.3094 223.41 767.6)">
    <path d="m0 0c-0.33-0.814-1.078-0.844-2.705-0.468l-0.966 0.697c2.367-0.649 3.06-0.534 3.257 5e-3z" fill="#94cbe6"/>
   </g>
   <g transform="matrix(2.3094 0 0 2.3094 187.48 766.25)">
    <path d="m0 0c3.045-0.444 3.803-0.315 4.068 0.315l0.38-0.298c-0.306-0.768-0.999-0.956-3.253-0.623z" fill="#94cbe6"/>
   </g>
   <g transform="matrix(2.3094 0 0 2.3094 441.68 658.91)">
    <path d="m0 0c0.02-3.253-2.846-5.561-10.905-5.613-0.89-0.816-1.33-1.26-2.097-2.276 0.026-1.503 0.259-3.721 0.606-6.221l-0.556-0.027c-0.353 2.535-0.546 4.748-0.568 6.258-1e-3 0.125 0.039 0.231 0.1 0.308 0.84 1.048 1.283 1.487 2.179 2.343 0.11 0.106 0.15 0.128 0.344 0.132 5.418 0.107 11.206 1.034 10.273 6.517z" fill="#0f141b"/>
   </g>
   <g transform="matrix(2.3094 0 0 2.3094 398.25 703.55)">
    <path d="m0 0c-1.153-0.068-1.877-0.332-2.285-0.529-0.15-0.072-0.238-0.064-0.413 0.01-11.221 4.695-22.141 6.482-36.96 5.941-7.144-0.26-13.39-0.344-19.078 0.271l-0.656 0.625c6.371-0.683 12.4-0.607 19.721-0.339 14.842 0.542 26.018-1.193 37.196-6.045 0.486 0.223 1.05 0.342 1.637 0.412z" fill="#0f141b"/>
   </g>
   <g transform="matrix(2.3094 0 0 2.3094 126.18 587.9)">
    <path d="m0 0c0.289-0.295 0.584-0.591 0.886-0.887l-0.568-0.651c-0.364 0.354-0.718 0.708-1.063 1.06z" fill="#94cbe6"/>
   </g>
   <g transform="matrix(2.3094 0 0 2.3094 97.311 635.61)">
    <path d="m0 0c-0.101 0.557-0.183 1.102-0.25 1.633l0.656 0.776c0.124-1.042 0.309-2.137 0.571-3.278z" fill="#94cbe6"/>
   </g>
   <g transform="matrix(2.3094 0 0 2.3094 242.78 676.65)">
    <path d="m0 0c0.591-1.347 1.911-2.708 2.825-3.532l0.856-1.711c-1.652 1.433-1.718 1.393-2.733 2.507l-1.237 2.079z" fill="#94cbe6"/>
   </g>
   <g transform="matrix(2.3094 0 0 2.3094 260.77 739.75)">
    <path d="m0 0c-0.86 0.397-1.563 0.142-1.712-0.445l-0.334 0.358c0.247 0.593 0.835 0.828 1.595 0.668z" fill="#ffee7d"/>
   </g>
   <g transform="matrix(2.3094 0 0 2.3094 387.48 695.72)">
    <path d="m0 0c0.528-0.199 0.937-0.409 1.234-0.592 0.863 0.229 1.677 0.327 2.398 0.313l-0.225-0.442c-0.659-7e-3 -1.237-0.099-2.024-0.314-0.188-0.052-0.26-0.053-0.407 0.04-0.293 0.185-0.555 0.357-1.045 0.547z" fill="#ffee7d"/>
   </g>
   <g transform="matrix(2.3094 0 0 2.3094 404.09 673.29)">
    <path d="m0 0c-2.188 0.205-4.844 1.588-6.402 3.412l-0.491 1.402c1.213-1.961 4.017-3.883 6.383-4.295z" fill="#ffee7d"/>
   </g>
   <g transform="matrix(2.3094 0 0 2.3094 425.01 661.11)">
    <path d="m0 0c-0.563 0.746-1.355 1.616-1.942 2.184l0.625 0.012c0.62-0.609 1.246-1.371 1.756-2.057z" fill="#ffee7d"/>
   </g>
   <g transform="matrix(2.3094 0 0 2.3094 425.52 666.97)">
    <path d="m0 0c0.379-0.637 0.705-1.302 0.98-2.058l-0.384-0.18c-0.278 0.772-0.666 1.483-1.023 2.093z" fill="#ffee7d"/>
   </g>
   <g transform="matrix(2.3094 0 0 2.3094 242.02 699.67)">
    <path d="m0 0c0.437-0.912 1.081-1.869 1.837-2.705l-0.073-0.569c-1.217 1.183-2.129 2.786-2.525 4.029z" fill="#ffee7d"/>
   </g>
   <g transform="matrix(2.3094 0 0 2.3094 262.79 674.32)">
    <path d="m0 0c-0.849 0.15-1.544 0.463-1.594 0.833-0.073 0.532 0.301 1.688 1.657 2.45l-0.031-0.5c-0.912-0.61-1.202-1.408-1.142-1.847 0.012-0.095 0.269-0.306 1.079-0.5z" fill="#ffee7d"/>
   </g>
   <g transform="matrix(2.3094 0 0 2.3094 251.09 687.53)">
    <path d="m0 0c0.209-0.03 0.405-0.039 0.597-0.032 0.134 5e-3 0.181-0.01 0.279-0.113 1.114-1.173 2.288-2.301 3.332-3.321l-0.238-0.381c-1.057 1.045-2.24 2.251-3.36 3.371-0.232 6e-3 -0.436 6e-3 -0.66 0.028z" fill="#ffee7d"/>
   </g>
   <g transform="matrix(2.3094 0 0 2.3094 282.39 699.89)">
    <path d="m0 0c14.42-1.061 24.697-4.825 24.365-12.42l-0.465-0.3c0.479 6.575-7.729 10.804-22.394 12.194z" fill="#fce1b9"/>
   </g>
   <g transform="matrix(2.3094 0 0 2.3094 343.64 695.54)">
    <path d="m0 0c4.286-2.555 7.103-7.022 7.067-11.159l-0.505 0.243c-0.101 4.209-3.364 8.746-7.85 11.165z" fill="#ffee7d"/>
   </g>
   <g transform="matrix(2.3094 0 0 2.3094 382.84 648.6)">
    <path d="m0 0c-1.553 0.775-3.341 1.591-5.359 2.467-0.234 0.101-0.24 0.154-0.245 0.369-0.051 2.151-1.476 4.948-5.209 6.47-4.686 1.91-7.801 0.854-9.02-0.276-0.545-0.505-0.764-0.313-0.269 0.241 1.434 1.605 5.123 2.28 9.47 0.508 3.824-1.56 5.521-4.62 5.469-6.919 2.013-0.901 4.078-1.837 5.642-2.628z" fill="#ffee7d"/>
   </g>
   <g transform="matrix(2.3094 0 0 2.3094 334.2 661.7)">
    <path d="m0 0c-0.194 0.693-0.149 1.166-0.038 1.713 0.133 0.657 0.427 0.607 0.355-0.059-0.058-0.547-0.059-1.274 0.312-2.043z" fill="#ffee7d"/>
   </g>
   <g transform="matrix(2.3094 0 0 2.3094 372.24 647.71)">
    <path d="m0 0c-0.707 0.311-1.297 0.547-1.917 0.819-0.319-0.186-0.667-0.306-1.122-0.416l-0.973 0.214c0.839 0.076 1.404 0.354 1.871 0.63 0.128 0.074 0.205 0.079 0.344 0.02 0.856-0.375 1.776-0.818 2.825-1.28z" fill="#ffee7d"/>
   </g>
   <g transform="matrix(2.3094 0 0 2.3094 336.48 669.34)">
    <path d="m0 0c-2.322 0.58-4.796 1.503-6.967 2.472l-0.412 0.687c2.28-1.066 5.289-2.156 7.675-2.77z" fill="#ffee7d"/>
   </g>
   <g transform="matrix(2.3094 0 0 2.3094 334.42 664.36)">
    <path d="m0 0c-1.001 0.296-1.896 0.616-2.815 1.015l-0.9 0.875c1.238-0.602 2.418-1.05 3.725-1.442z" fill="#ffee7d"/>
   </g>
   <g transform="matrix(2.3094 0 0 2.3094 418.36 654.34)">
    <path d="m0 0c4.26-0.332 8.578 1.579 7.543 4.849-0.104 0.328-0.398 0.96-0.784 1.437-0.49-3.024-3.901-4.093-7.124-3.805 0.098-0.846 0.206-1.581 0.365-2.481m-0.452-0.118c-0.161 0.91-0.305 1.84-0.404 2.699-0.035 0.294 0.066 0.404 0.412 0.378 3.299-0.243 6.379 0.592 6.805 3.804 0.054 0.407 0.217 0.476 0.544 0.093 0.431-0.503 0.937-1.263 1.129-1.861 1.16-3.62-3.211-5.807-8.034-5.46-0.369 0.027-0.399 0.055-0.452 0.347" fill="#0f141b"/>
   </g>
   <g transform="matrix(2.3094 0 0 2.3094 275.26 703.87)">
    <path d="m0 0c2.646-1.452 4.875-2.129 8.227-2.865 3.193-0.702 6.283-1.447 9.381-3.202 0.186-0.105 0.228-0.209 0.204-0.444-0.404-3.875 3.888-10.091 13.543-14.658 7.942-3.757 15.413-3.954 16.786-1.035 1.834 3.898-1.861 10.947-10.117 15.055-8.603 4.281-15.27 4.609-18.313 3.234-0.213-0.096-0.319-0.099-0.547-9e-3 -3.625 1.44-7.789 2.425-10.759 3.079-3.714 0.816-6.852 1.43-10.852 3.611l-1.185 1.173c4.559-2.675 8.125-3.395 12.137-4.277 2.962-0.651 7.304-1.649 10.937-3.084 3.257 1.602 10.238 1.222 18.886-3.082 8.655-4.307 12.457-11.842 10.362-15.981-1.7-3.36-9.519-3.15-17.613 0.679-9.716 4.597-14.285 11.022-13.818 15.305-2.855 1.567-6.023 2.421-9.152 3.109-3.17 0.697-5.203 1.253-7.679 2.616z" fill="#0f141b"/>
   </g>
   <g transform="matrix(2.3094 0 0 2.3094 292.4 676.59)">
    <path d="m0 0c-0.334-0.552-0.098-2.729 3.362-5 3.072-2.016 5.495-2.03 6.029-1.181 0.552 0.882 0.076 3.168-3.412 5.2-3.513 2.047-5.604 1.602-5.979 0.981m3.063-5.467c-3.479 2.283-4.047 4.772-3.474 5.719 0.641 1.061 3.246 1.234 6.678-0.765 3.804-2.218 4.254-4.799 3.514-5.98-0.759-1.209-3.456-1.115-6.718 1.026" fill="#0f141b"/>
   </g>
   <g transform="matrix(2.3094 0 0 2.3094 327.49 610.49)">
    <path d="m0 0c-0.579 0.202-1.156 0.413-1.731 0.631l0.215 0.71c0.451-0.17 0.901-0.336 1.354-0.496z" fill="#94cbe6"/>
   </g>
   <g transform="matrix(2.3094 0 0 2.3094 359.9 604.43)">
    <path d="m0 0c11.183-1.624 21.791-0.74 28.463 1.594 5.095 1.783 8.444 5.287 8.976 9.95l0.864 1.355c-0.046-5.884-3.449-9.992-9.578-12.137-7.062-2.471-18.247-3.281-29.936-1.369z" fill="#94cbe6"/>
   </g>
   <g transform="matrix(2.3094 0 0 2.3094 391.3 630.7)">
    <path d="m0 0c-1.721-1.253-4.208-0.746-5.441 1.273l0.477 0.1c1.065-1.492 2.995-2.06 4.567-1.094z" fill="#ef821e"/>
   </g>
   <g transform="matrix(2.3094 0 0 2.3094 394.4 627.64)">
    <path d="m0 0c-2.836-2.069-7.202-0.995-8.536 1.92l0.398 0.219c1.203-2.61 5.173-3.601 7.829-1.791z" fill="#0f141b"/>
   </g>
   <g transform="matrix(2.3094 0 0 2.3094 397.37 622.74)">
    <path d="m0 0c-3.037-3.263-9.752-1.588-11.978 2.017l0.306 0.463c2.069-3.342 8.502-5.119 11.42-1.989z" fill="#0f141b"/>
   </g>
   <g transform="matrix(2.3094 0 0 2.3094 254.51 660.99)">
    <path d="m0 0c-1.815 3.639-2.545 10.019-1.395 13.094 0.124 0.331 0.279 0.358 0.568 0.116 1.408-1.18 2.949-2.331 4.589-3.48 0.211-0.147 0.245-0.215 0.211-0.589-0.244-2.716-0.072-6.404 1.001-9.429l-0.621 0.024c-1.139 3.22-1.291 7.035-1.025 9.508-1.616 1.136-2.913 2.136-4.29 3.293-0.801-2.504-0.402-8.513 1.658-12.567z" fill="#0f141b"/>
   </g>
   <g transform="matrix(2.3094 0 0 2.3094 270.51 660.08)">
    <path d="m0 0c-1.426 4.485-1.362 10.609 0.234 16.487 0.256 0.943 0.221 1.122-0.359 1.95-2.653 3.787-11.103 10.374-14.75 12.662 0.288-2.567 0.736-5.571 1.811-9.719 0.267-1.032-0.024-1.163-0.399-0.169-1.532 4.062-2.749 8.134-3.284 11.81-0.17 1.165 0.322 1.431 1.288 0.854 5.12-3.055 15.06-10.802 17.923-14.934 0.494-0.713 0.494-1.037 0.197-1.942-1.417-4.322-2.415-11.321-0.774-17.068l-0.594 0.015c-1.664 5.834-0.755 12.762 0.767 17.215 0.215 0.634 0.188 0.902-0.19 1.447-2.838 4.096-12.587 11.775-17.537 14.814-0.532 0.327-0.635 0.224-0.551-0.354 0.356-2.445 0.954-5.061 1.773-7.746-0.629 2.971-0.808 3.956-1.081 6.135-0.069 0.545 0.088 0.655 0.551 0.368 4.01-2.502 12.678-9.116 15.443-13.109 0.636-0.92 0.665-1.301 0.369-2.391-1.595-5.872-1.683-11.92-0.233-16.352z" fill="#0f141b"/>
   </g>
   <g transform="matrix(2.3094 0 0 2.3094 238.24 713.74)">
    <path d="m0 0c-1.972-4.196-1.543-12.089-0.061-15.262 0.411-0.879 0.835-1.149 1.1-1.366-2.022 3.154-2.489 11.976-0.741 15.812l0.294-0.791c-1.492-4.198-0.829-12.554 1.263-15.37 0.243-0.326 0.251-0.537-0.298-0.537-0.367 0-1.442 0.352-2.199 2.04-1.572 3.501-1.99 11.619 0.384 16.26z" fill="#0f141b"/>
   </g>
   <g transform="matrix(2.3094 0 0 2.3094 345.82 662.95)">
    <path d="m0 0c-0.251-0.671 0.413-1.817 2.271-2.476 2.023-0.715 2.951-0.293 3.194 0.239 0.199 0.433-0.062 1.642-2.074 2.437-2.082 0.823-3.181 0.36-3.391-0.2m2.113-2.968c-2.281 0.808-2.878 2.213-2.536 3.124 0.319 0.848 1.934 1.337 3.998 0.522 2.196-0.868 2.665-2.294 2.298-3.094-0.458-1-1.923-1.203-3.76-0.552" fill="#fce1b9"/>
   </g>
   <g transform="matrix(2.3094 0 0 2.3094 235.21 723.7)">
    <path d="m0 0c-2.736 0.948-5.526 3.28-7.269 6.254-2.209 3.769-4.316 5.336-9.303 7.813-3.924 1.95-6.793 2.943-8.051 3.816-0.764 0.531-0.614 1.079 0.228 1.159 0.819 0.078 1.527 0.098 2.507 0.06 0.38-0.015 0.626-0.075 0.946-0.274 0.723-0.452 2.435-1.139 5.317-2.308 5.674-2.301 8.479-3.736 11.248-7.679 1.333-1.898 2.354-3.466 3.375-4.162l0.132-0.788c-1.326 0.804-2.532 2.582-3.964 4.619-2.727 3.883-5.287 5.207-11.016 7.531-2.901 1.176-4.6 1.928-5.346 2.394-0.266 0.167-0.395 0.225-0.711 0.239-0.953 0.041-1.703 0.029-2.36-0.051-0.388-0.048-0.358-0.17-0.092-0.357 1.21-0.85 4.182-1.807 8.023-3.75 5.04-2.552 7.273-4.121 9.512-7.979 1.52-2.62 4.151-4.879 6.651-5.874z" fill="#0f141b"/>
   </g>
   <g transform="matrix(2.3094 0 0 2.3094 226.42 769.78)">
    <path d="m0 0c0.429 2e-3 0.679-0.066 1.114-0.318 1.716-0.995 3.725-1.677 5.531-2.328 2.994-1.08 5.903-3.621 9.623-8.457 2.126-2.764 4.122-4.456 6.985-5.953 2.529-1.322 2.069-4.168-0.482-5.098l-1.975 0.099c3.623 0.368 4.528 3.211 2.163 4.447-2.912 1.524-4.989 3.31-7.149 6.118-3.675 4.778-6.425 7.282-9.35 8.337-1.822 0.658-3.836 1.415-5.58 2.427-0.368 0.214-0.526 0.263-0.899 0.275-0.512 0.017-0.822 0.014-1.269-0.027-0.213-0.019-0.226-0.072-0.045-0.184 2.528-1.557 4.052-1.947 7.52-3.343 1.818-0.731 4.246-2.244 8.084-7.758 1.044-1.503 3.576-3.88 3.958-4.509 0.605-0.993 0.101-1.422-0.83-0.973-1.404 0.677-3.99 2.691-5.234 4.552-3.252 4.86-6.2 7.182-10.907 8.649-2.685 0.837-4.521 1.719-6.167 3.02-0.308 0.242-0.532 0.329-0.826 0.323-0.565-9e-3 -1.029 0.034-1.433 0.055-0.278 0.014-0.303-0.066-0.119-0.229 0.841-0.747 4.65-2.761 8.718-4.504 3.789-1.624 6.177-4.175 8.069-6.534 1.487-1.855 3.054-3.635 5.272-5.476 0.819-0.679 0.711-1.028-0.298-0.656-4.347 1.601-8.047 4.365-11.007 8.182-1.541 1.987-2.428 3.17-4.821 4.248-2.814 1.265-5.933 2.856-8.41 4.198-0.488 0.264-0.734 0.339-1.125 0.308-0.587-0.047-1.045-0.025-1.457-0.075-0.082-0.01-0.111-0.05-0.014-0.099 2.406-1.223 6.423-2.99 9.047-4.183 2.424-1.102 3.501-2.36 5.302-4.945 0.696-0.997 2.733-3.504 6.123-6.346l-2.661 1.551c-2.174 2.075-3.358 3.702-3.909 4.492-1.762 2.528-2.741 3.715-5.084 4.78-2.627 1.195-6.615 3.009-9.117 4.323-0.604 0.316-0.496 0.768 0.149 0.845 0.414 0.05 0.981 0.055 1.592 0.115 0.517 0.05 0.887-0.094 1.368-0.354 2.47-1.337 5.601-2.866 8.405-4.128 2.477-1.115 3.538-2.416 5.059-4.377 2.748-3.542 6.631-6.238 9.483-7.468-1.738 1.509-3.083 3.084-4.365 4.683-1.777 2.216-4.198 4.87-7.759 6.396-3.642 1.561-8.152 3.895-9.043 4.869-0.453 0.496-0.321 0.881 0.398 0.846 0.398-0.019 1.074-0.044 1.627-0.035 0.365 0.01 0.731-0.146 1.109-0.432 1.617-1.225 3.42-2.051 6.064-2.875 4.794-1.495 7.884-3.846 11.19-8.807 1.104-1.655 3.592-3.751 4.956-4.409 0.326-0.158 0.401-0.111 0.202 0.196-0.347 0.54-2.885 2.863-3.988 4.424-3.823 5.412-6.071 6.874-7.832 7.606-3.42 1.421-5.174 2.032-7.781 3.601-0.631 0.379-0.608 0.773 0.114 0.845 0.582 0.059 1.124 0.067 1.711 0.07" fill="#0f141b"/>
   </g>
   <g transform="matrix(2.3094 0 0 2.3094 323.11 720.09)">
    <path d="m0 0c-3.59 3.54-12.715 8.527-17.955 11.096-2.45 1.201-1.348 2.317-0.247 1.966 5.725-1.829 19.467-9.071 21.554-13.097l-0.751 0.017c-2.397 3.797-15.369 10.747-20.934 12.606-0.653 0.219-1.025-0.236 0.603-1.025 5.334-2.584 15.149-7.731 18.577-11.554z" fill="#0f141b"/>
   </g>
   <g transform="matrix(2.3094 0 0 2.3094 283.21 718.77)">
    <path d="m0 0c2.147 0.999 1.77 8.651-1.849 12.47l0.962-0.339c2.875-3.62 3.552-10.344 1.762-12.121z" fill="#0f141b"/>
   </g>
   <g transform="matrix(2.3094 0 0 2.3094 237.54 677.69)">
    <path d="m0 0c-7.785 9.131-13.309 17.994-15.263 22.969-0.816 2.079-1.112 3.546-0.678 4.185 0.378 0.56 2.43-0.461 4.316-1.918 2.937-2.267 6.463-3.851 10.442-4.933l0.149-0.724c-4.14 1.131-7.833 2.793-10.928 5.176-2.027 1.561-3.457 2.25-3.569 2.038-0.239-0.452 0.043-1.72 0.83-3.577 2.014-4.75 7.097-12.79 14.141-21.226z" fill="#0f141b"/>
   </g>
   <g transform="matrix(2.3094 0 0 2.3094 283.95 636.26)">
    <path d="m0 0c4.195-3.146 8.597-5.909 13.109-8.04l0.816-1.168c-5.077 2.219-10.004 5.234-14.657 8.712z" fill="#0f141b"/>
   </g>
   <g transform="matrix(2.3094 0 0 2.3094 400.98 703.55)">
    <path d="m0 0c-9.813 5.362-22.704 8.247-37.643 7.465-8.574-0.448-16.832-0.718-24.206-0.066l1.116-0.847c7.158-0.584 15.036-0.334 23.116 0.096 14.091 0.752 26.299-1.854 35.788-6.711 0.5 0.069 1.104 0.101 1.829 0.063" fill="#0f141b"/>
   </g>
   <g transform="matrix(2.3094 0 0 2.3094 400.98 703.55)">
    <path d="m0 0c-0.725 0.038-1.329 6e-3 -1.829-0.063 8.983-4.598 15.531-11.212 18.929-18.91-0.011 1.059-0.316 2.321-0.987 3.825-3.485 6.052-8.987 11.254-16.113 15.148" fill="#94cbe6"/>
   </g>
   <g transform="matrix(2.3094 0 0 2.3094 236.34 718.9)">
    <path d="m0 0c-4.703 1.542-8.717 3.659-12.193 6.395-1.422 1.12-2.086 1.713-3.136 2.307l0.138 0.442c1.06-0.563 1.887-1.236 3.312-2.345 3.378-2.629 7.239-4.672 11.741-6.174z" fill="#0f141b"/>
   </g>
   <g transform="matrix(2.3094 0 0 2.3094 265.72 714.12)">
    <path d="m0 0c5.326-0.584 11.297-0.707 18.1-0.446 10.182 0.39 25.487-1.265 35.051-6.139 0.216-0.11 0.245-0.215 0.16-0.458-1.666-4.735 1.537-12.236 8.993-15.141 0.177-0.069 0.262-0.134 0.299-0.338 0.225-1.276 0.471-2.498 0.72-3.775 0.047-0.239 0.031-0.327-0.099-0.478-1.625-1.902-2.635-3.362-3.367-4.792 0.078-2.36 0.206-4.27 0.355-6.501l-0.55 0.012c-0.148 2.228-0.261 4.043-0.337 6.412-7e-3 0.186 0.01 0.256 0.088 0.409 0.737 1.449 1.769 2.866 3.399 4.778-0.229 1.27-0.514 2.678-0.717 3.8-7.778 2.734-11.252 10.905-9.317 15.683-9.441 4.547-24.573 6.329-34.66 5.944-6.518-0.25-12.321-0.123-17.507 0.411z" fill="#0f141b"/>
   </g>
   <g transform="matrix(2.3094 0 0 2.3094 368.37 655.7)">
    <path d="m0 0c0.192 0.475-0.397 1.419-2.003 2.202-1.722 0.839-3.102 0.69-3.316 0.198-0.265-0.609 0.509-1.605 2.282-2.308 1.737-0.689 2.838-0.583 3.037-0.092" fill="#fff"/>
   </g>
   <g transform="matrix(2.3094 0 0 2.3094 331.96 596.86)">
    <path d="m0 0c-1.193 2.157-2.051 4.707-2.46 7.206-0.191 1.168 0.23 1.255 0.482 0.099 0.513-2.336 1.415-4.755 2.572-6.847 0.323-0.585 0.471-0.687 1.576-0.426 3.028 0.714 7.369 2.228 9.785 3.424 1.078 0.533 1.251 0.18 0.219-0.438-2.319-1.391-6.789-2.986-9.844-3.706-1.473-0.347-1.9-0.09-2.33 0.688" fill="#94cbe6"/>
   </g>
   <g transform="matrix(2.3094 0 0 2.3094 103.94 662.11)">
    <path d="m0 0c-3.17 0.133-7.261 0.211-9.307 0.045-1.214-0.098-1.602-0.41-1.969-0.955-0.997-1.481-1.51-3.185-1.791-5.401-0.105-0.825 0.249-1.312 1.154-1.572 2.604-0.748 6.063-1.375 8.336-1.552 0.462-0.036 0.65 0.252 0.707 0.856 0.269 2.89 1.14 5.447 2.096 7.912 0.722 1.864 1.933 3.245 5.603 3.627 14.866 1.549 36.456 1.509 51.482-1.877 3.504-0.79 11.393-1.417 17.723-1.755 1.725-0.093 1.77-0.606 0.048-0.58-6.507 0.096-14.425 0.766-17.951 1.561-14.986 3.376-36.057 3.373-51.202 1.836-3.537-0.36-4.472-1.763-4.985-3.084-0.946-2.44-1.858-4.978-2.124-7.825-0.096-1.033-0.646-1.411-1.355-1.334-2.37 0.259-5.971 0.822-8.577 1.638-1.164 0.364-1.641 1.057-1.502 2.199 0.269 2.221 0.895 4.141 1.88 5.68 0.505 0.789 1.154 1.086 2.375 1.193 2.021 0.177 6.24 0.14 9.729 0.036z" fill="#0f141b"/>
   </g>
   <g transform="matrix(2.3094 0 0 2.3094 106.97 613.81)">
    <path d="m0 0c0.29-0.553 0.599-1.111 0.928-1.674l-0.879-0.238c-0.246 0.429-0.48 0.856-0.703 1.279z" fill="#0f141b"/>
   </g>
   <g transform="matrix(2.3094 0 0 2.3094 152.08 564.34)">
    <path d="m0 0c2.157-1.26 3.614-1.162 5.72-0.533 11.111 3.314 35.682 15.083 43.571 24.01 5.779 6.541 9.071 8.478 13.528 9.506 1.011 0.234 1.636 0.668 1.819 1.533 0.214 1.012-0.168 1.122-0.516 0.145-0.196-0.554-0.563-0.882-1.4-1.074-4.652-1.073-7.86-2.479-14.063-9.524-7.554-8.579-32.412-20.433-43.097-23.797-1.953-0.616-3.19-0.603-4.777 0.244z" fill="#0f141b"/>
   </g>
   <g transform="matrix(2.3094 0 0 2.3094 115.75 606.68)">
    <path d="m0 0c-0.015 0.375 0.268 0.684 0.681 0.907 2.46 1.331 5.75 2.66 9.449 3.843-1.354 1.636-2.703 3.283-3.806 4.75-4.398-0.819-7.074-1.405-8.802-1.88-0.929-0.255-1.688-0.789-1.724-1.487l-0.323 0.755c0.333 0.652 0.968 1.036 1.901 1.292 1.753 0.482 4.34 1.005 8.814 1.837 0.288 0.051 0.351 0.038 0.528-0.189 1.24-1.6 2.584-3.25 3.993-4.897 0.242-0.285 0.225-0.475-0.151-0.596-3.781-1.193-7.062-2.56-9.56-3.912-0.397-0.215-0.537-0.525-0.438-0.949z" fill="#0f141b"/>
   </g>
   <g transform="matrix(2.3094 0 0 2.3094 160.49 635.82)">
    <path d="m0 0c1.428-0.546 2.656-0.729 3.908-0.205l0.102-0.495c-1.416-0.603-2.64-0.382-4.316 0.33z" fill="#ffee7d"/>
   </g>
   <g transform="matrix(2.3094 0 0 2.3094 153.97 637.71)">
    <path d="m0 0c-1.307 0.642-2.529 0.998-4.122 1.218-1.002 0.139-1.692 0.084-2.118-0.184-0.916-0.577-6.597-0.02-6.466 0.733 0.095 0.543 3.62 0.241 5.796 1.166 0.964 0.409 2.03 0.419 2.58 0.41 1.375-0.022 2.357-0.244 3.862-0.508 0.94-0.165 2.037 0.051 3.395 0.317 1.499 0.295 2.531 0.218 3.925-0.358l-0.115-0.435c-1.303 0.508-2.41 0.597-3.73 0.337-1.561-0.305-2.456-0.467-3.55-0.277-1.489 0.262-2.505 0.438-3.793 0.451-0.519 5e-3 -1.538 4e-3 -2.447-0.37-1.777-0.73-5.23-0.742-5.236-0.808-0.012-0.131 4.562-0.763 5.593-0.231 0.55 0.283 1.282 0.352 2.367 0.202 1.634-0.226 3.11-0.64 4.984-1.64z" fill="#ffee7d"/>
   </g>
   <g transform="matrix(2.3094 0 0 2.3094 184.53 625.96)">
    <path d="m0 0c0.082 0.225 0.166 0.471 0.252 0.739-1.24 0.901-2.086 2.079-2.388 3.308-0.204-0.034-0.416-0.068-0.629-0.095l-0.072 0.415c0.231 0.024 0.463 0.06 0.687 0.097 0.24 0.04 0.338 0.024 0.398-0.231 0.273-1.159 1.103-2.313 2.284-3.173 0.191-0.138 0.204-0.193 0.138-0.418-0.101-0.338-0.201-0.65-0.302-0.937z" fill="#ffee7d"/>
   </g>
   <g transform="matrix(2.3094 0 0 2.3094 179.38 619.32)">
    <path d="m0 0c-2.661-0.107-4.23-0.91-5.424-3.893-0.298-0.743-0.731-1.145-1.442-1.343-0.919-0.257-1.369-0.725-1.755-1.281-0.913-1.312-2.443-1.988-4.401-2.64-0.789-0.263-1.071-0.786-1.005-0.881 0.083-0.118 1.441 0.375 2.929 0.478 1.322 0.091 2.641 0.318 3.637 1.378l0.164-0.483c-1.061-1.051-2.432-1.273-3.78-1.323-1.506-0.055-2.951-0.743-3.288-0.303-0.186 0.242 0.069 1.164 1.219 1.547 1.889 0.63 3.292 1.31 4.149 2.541 0.434 0.623 0.919 1.09 2.015 1.397 0.596 0.166 0.892 0.45 1.146 1.084 1.321 3.301 2.94 3.974 5.342 4.16z" fill="#ffee7d"/>
   </g>
   <g transform="matrix(2.3094 0 0 2.3094 177.76 641.33)">
    <path d="m0 0c0.366-0.01 0.732 0.021 1.069 0.106 1.053 2.024 4.09 3.957 8.532 3.706 5.05-0.29 6.986-2.272 7.794-3.646 1.435 0.18 2.372 0.263 3.869 0.353l0.254-0.408c-1.568-0.091-2.58-0.18-4.114-0.378-0.219-0.027-0.274 0.052-0.356 0.175-0.954 1.43-2.81 3.134-7.463 3.401-3.962 0.232-7.031-1.372-8.197-3.501-0.025-0.045-0.064-0.08-0.113-0.095-0.425-0.119-0.873-0.167-1.317-0.156z" fill="#ffee7d"/>
   </g>
   <g transform="matrix(2.3094 0 0 2.3094 229.35 636.02)">
    <path d="m0 0c-1.152-0.305-3.017-0.73-4.458-1.05-0.91-3.751-6.541-5.283-11.32-4.138-0.16-0.233-0.368-0.474-0.662-0.801l-0.403 0.198c0.369 0.405 0.559 0.653 0.726 0.916 0.099 0.155 0.224 0.169 0.368 0.139 4.531-0.96 9.884 0.234 10.853 3.805 0.062 0.226 0.118 0.273 0.309 0.319 1.497 0.35 3.379 0.777 4.532 1.083z" fill="#ffee7d"/>
   </g>
   <g transform="matrix(2.3094 0 0 2.3094 199.17 632.06)">
    <path d="m0 0c2.147 9e-3 3.283 0.848 3.283 2.036 0 0.99-1.134 2.004-3.233 2.013-2.095 9e-3 -3.106-1.092-3.133-2-0.035-1.123 1.238-2.057 3.083-2.049m0.011-0.527c-2.366-0.011-3.587 1.203-3.545 2.576 0.038 1.232 1.305 2.507 3.574 2.497 2.176-9e-3 3.688-1.023 3.688-2.517 0-1.552-1.468-2.546-3.717-2.556" fill="#fce1b9"/>
   </g>
   <g transform="matrix(2.3094 0 0 2.3094 213.59 633.06)">
    <path d="m0 0c-1.347 0.22-2.14-0.352-2.242-0.995-0.109-0.687 0.306-1.47 1.698-1.644 1.236-0.154 2.088 0.347 2.162 1.074 0.068 0.663-0.508 1.384-1.618 1.565" fill="#fff"/>
   </g>
   <g transform="matrix(2.3094 0 0 2.3094 178.24 640.45)">
    <path d="m0 0c-0.423-3.38 2.768-8.035 10.08-8.787 7.4-0.761 11.358 2.418 11.799 5.939 0.379 3.033-2.802 7.303-9.67 8.306-7.386 1.078-11.784-2.057-12.209-5.458m10.001-9.364c-7.344 0.755-11.001 5.55-10.519 9.414 0.502 4.011 5.416 7.065 12.802 5.985 6.824-0.996 10.508-5.345 10.112-8.953-0.426-3.888-4.881-7.221-12.395-6.446" fill="#0f141b"/>
   </g>
   <g transform="matrix(2.3094 0 0 2.3094 101.33 656.09)">
    <path d="m0 0c0.306 0.194 0.708 0.335 1.195 0.399 5.367 0.695 9.837 0.616 14.971 0.138 0.138-0.013 0.185-0.03 0.288-0.104 0.567-0.413 0.906-0.672 1.492-1.08 4.971-0.032 9.62-0.507 13.392-1.044 2.929 3.113 8.333 4.433 14.706 3.581 8.336-1.114 14.099-6.191 13.679-12.121-0.458-6.466-9.137-11.41-20.115-8.611-1.886-1.357-4.906-3.468-7.899-5.192 0.378-0.863 0.594-1.398 0.99-2.375 0.077-0.19 0.055-0.278-0.145-0.404-2.575-1.617-7.054-4.447-9.728-6.229-0.633-0.422-1.008-0.811-1.368-1.806l-0.458 0.378c0.383 0.998 0.875 1.467 1.532 1.905 2.679 1.786 7.028 4.503 9.605 6.118-0.386 0.948-0.591 1.438-0.983 2.332-0.102 0.234-0.065 0.332 0.132 0.445 3.057 1.747 6.135 3.97 8.038 5.339 0.167 0.121 0.221 0.127 0.433 0.077 11.306-2.723 19.046 2.527 19.438 8.072 0.354 4.982-4.6 10.285-13.206 11.435-6.301 0.841-11.241-0.372-14.226-3.318-0.167-0.165-0.229-0.212-0.468-0.179-3.904 0.539-8.292 0.999-13.299 1.075-0.176 2e-3 -0.22 0.01-0.349 0.1-0.567 0.395-0.921 0.66-1.511 1.089-5.104 0.384-9.56 0.517-14.878-0.192-0.961-0.129-1.398-0.525-1.626-1.176z" fill="#0f141b"/>
   </g>
   <g transform="matrix(2.3094 0 0 2.3094 98.479 645.61)">
    <path d="m0 0c0.223 0.458 0.712 0.711 1.299 0.811 4.56 0.774 9.172 1.138 14.389 0.98 0.143-5e-3 0.177-7e-3 0.313-0.085 0.869-0.482 1.388-0.756 1.876-0.979 4.752 0.159 9.072-0.309 12.967-0.787 0.427-0.052 0.493-0.114 0.363-0.546-1.114-3.711 0.822-8.791 5.143-11.277 0.472-0.271 0.443-0.367 0.035-0.701-1.985-1.626-6.007-3.776-9.023-5.452 0.229-0.692 0.554-1.735 0.811-2.462 0.098-0.28 0.04-0.37-0.199-0.512-2.12-1.262-5.948-3.511-8.536-4.805-0.6-0.3-0.966-0.758-1.083-1.359l-0.543 0.325c0.215 0.724 0.684 1.21 1.387 1.561 2.528 1.265 6.303 3.426 8.447 4.701-0.24 0.682-0.616 1.808-0.832 2.457-0.082 0.248-0.039 0.36 0.18 0.483 2.893 1.613 7.018 3.918 8.904 5.395-4.732 2.841-6.231 7.937-5.255 11.679-3.813 0.454-8.011 0.852-12.637 0.767-0.151-3e-3 -0.249-1e-3 -0.388 0.065-0.495 0.225-1.005 0.501-1.886 0.99-5.174 0.154-9.859-0.234-14.354-1-0.765-0.131-1.274-0.561-1.418-1.577z" fill="#0f141b"/>
   </g>
   <g transform="matrix(2.3094 0 0 2.3094 100.88 631.52)">
    <path d="m0 0c0.168 0.234 0.467 0.382 0.869 0.478 6.239 1.475 19.324 2.666 23.814 2.4 1.762-0.104 1.911-1.433 0.223-1.825-1.419-0.329-4.006-0.83-6.705-1.318 1.234-1.65 2.321-3.004 3.417-4.277 2.219 0.548 4.212 0.879 5.819 1.048 1.916 0.205 2.396-0.879 0.447-1.877-4.978-2.551-11.814-4.467-16.572-7.128-0.972-0.542-1.315-1.298-1.289-2.197l-0.498 0.61c0.124 0.924 0.681 1.616 1.543 2.09 4.657 2.563 11.547 4.401 16.602 7.083 1.319 0.7 1.168 1.037-0.202 0.893-1.617-0.17-3.476-0.525-5.72-1.084-0.235-0.062-0.361-0.029-0.532 0.168-1.172 1.356-2.292 2.795-3.616 4.577-0.237 0.318-0.169 0.493 0.188 0.557 2.787 0.503 5.582 1.019 7.044 1.358 1.101 0.255 0.967 0.773-0.175 0.84-4.467 0.264-17.414-0.986-23.629-2.456-0.475-0.112-0.62-0.288-0.696-0.524z" fill="#0f141b"/>
   </g>
   <g transform="matrix(2.3094 0 0 2.3094 244.97 670.33)">
    <path d="m0 0c-0.55 0.633-1.36 1.669-1.605 2.527-1.094 3.84-1.19 8.592-0.597 11.181 0.098 0.427 0.277 0.451 0.617 0.09 0.901-0.959 1.472-1.489 2.447-2.391 0.205-0.191 0.242-0.256 0.159-0.61-0.639-2.735-0.461-10.926 3.331-14.719l-1.046-0.016c-3.085 3.008-3.657 11.343-2.897 14.861-0.88 0.802-1.35 1.24-2.137 2.116-0.443-1.855-0.307-6.971 0.78-10.303 0.192-0.591 0.536-1.608 0.948-2.736" fill="#0f141b"/>
   </g>
   <g transform="matrix(2.3094 0 0 2.3094 94.115 635.17)">
    <path d="m0 0c-2.964-0.552-6.053-1.364-8.518-2.186-0.706-0.235-0.783-0.563-0.74-1.186 0.175-2.512 0.712-4.303 1.782-6.431 0.215-0.427 0.41-0.533 1.291-0.576 3.433-0.167 7.132 0.066 10.397 0.642 1.156 0.204 1.426 0.969 1.02 2.246-0.706 2.223-2.227 5.267-3.362 6.854-0.485 0.679-0.861 0.824-1.87 0.637m-6.217-10.983c-1.014 0.048-1.317 0.173-1.713 0.861-1.052 1.834-1.73 4.099-1.856 6.752-0.047 0.975 0.185 1.425 1.097 1.729 2.515 0.839 5.73 1.739 8.593 2.283 1.163 0.221 1.822 0.105 2.504-0.822 1.155-1.567 2.836-4.833 3.528-7.155 0.465-1.568 0.152-2.747-1.612-3.05-3.317-0.571-7.109-0.763-10.541-0.598" fill="#0f141b"/>
   </g>
   <g transform="matrix(2.3094 0 0 2.3094 106.36 608.28)">
    <path d="m0 0c-3.013-1.288-6.278-2.973-9.015-4.729-0.686-0.44-0.671-0.938-0.347-1.467 1.382-2.263 3.286-4.566 5.008-6.073 0.52-0.456 0.998-0.541 1.985-0.264 3.395 0.953 7.068 2.055 10.27 3.602 1.071 0.516 1.162 1.242 0.533 2.357-1.426 2.528-2.88 3.986-5.524 6.435-0.896 0.83-1.466 0.756-2.91 0.139m-4.704-12.733c-1.75 1.499-3.717 3.909-5.147 6.26-0.554 0.912-0.311 1.689 0.528 2.227 2.752 1.765 6.088 3.56 9.118 4.855 1.54 0.658 2.454 0.766 3.55-0.205 2.682-2.376 4.23-4.144 5.741-6.669 0.846-1.414 0.477-2.588-0.891-3.248-3.229-1.559-7.09-2.69-10.46-3.616-1.158-0.319-1.627-0.3-2.439 0.396" fill="#0f141b"/>
   </g>
   <g transform="matrix(2.3094 0 0 2.3094 129.16 585.46)">
    <path d="m0 0c-2.362-2.303-5.465-5.395-6.894-7.257-0.624-0.815-0.593-1.461 0.103-2.005 2.02-1.574 3.693-2.862 5.623-3.965 0.924-0.528 1.881-0.527 2.849-0.05 3.617 1.781 6.724 3.539 9.115 5.133 0.742 0.495 0.82 1.082 0.022 1.96-2.135 2.352-4.761 4.256-8.93 6.413-0.811 0.42-1.332 0.313-1.888-0.229m-1.443-13.739c-1.871 1.122-3.608 2.439-5.706 4.038-0.912 0.696-1.042 1.696-0.205 2.787 1.442 1.88 4.554 5.082 6.925 7.394 0.832 0.81 1.662 0.874 2.638 0.37 4.209-2.179 6.975-4.162 9.141-6.548 1.049-1.155 1.006-2.198-0.229-3.022-2.404-1.603-5.554-3.337-9.235-5.121-1.124-0.545-2.3-0.514-3.329 0.102" fill="#0f141b"/>
   </g>
   <g transform="matrix(2.3094 0 0 2.3094 446.45 643.17)">
    <path d="m0 0c1.344-1.735 0.904-5.384-2.486-6.495-4.657-1.525-12.047-2.791-18.331-2.182-0.186 0.018-0.251 0.093-0.319 0.236-1.38 2.91-3.877 4.7-6.572 4.8-2.442 0.095-4.689-1.178-6.08-3.478-0.088-0.144-0.13-0.172-0.287-0.154-5.802 0.639-18.768 4.916-23.603 7.228-0.886 0.423-1.345 0.049-1.28-0.844 0.292-3.946 1.711-10.068 4.669-11.99-1.022 0.225-1.802 0.781-2.295 1.405-2.129 2.697-3.539 9.036-3.539 12.077 0 1.156 0.473 1.333 1.333 0.918 6.316-3.051 17.241-6.536 23.467-7.56 0.327-0.054 0.409-0.027 0.592 0.185 1.979 2.292 4.531 3.464 7.213 3.275 2.948-0.21 5.401-1.818 7.21-4.637 0.166-0.257 0.252-0.308 0.518-0.331 5.888-0.517 12.9 0.703 17.094 2.102 2.425 0.81 3.4 3.011 3.005 5.602-0.541 3.544-2.024 7.612-3.882 10.839 0.671-1.503 0.975-2.766 0.986-3.824 1.003-2.275 1.733-4.644 2.168-7.082 0.44-2.465-0.594-4.239-2.482-4.88-4.079-1.386-10.913-2.682-16.683-2.175-0.198 0.017-0.267 0.082-0.357 0.228-1.769 2.852-4.566 4.579-7.539 4.791-2.818 0.203-5.401-0.939-7.57-3.401-0.083-0.094-0.146-0.125-0.309-0.098-6.181 0.992-16.859 4.475-23.179 7.529-1.145 0.553-2.162 0.33-2.162-1.466 0-3.166 1.353-9.661 3.563-12.459 1.106-1.398 2.622-1.808 3.894-1.68 0.876 0.087 0.699 0.556 0.216 0.71-3.279 1.045-5.042 7.957-5.347 11.845-0.033 0.425 0.079 0.533 0.593 0.287 4.854-2.321 17.922-6.536 23.76-7.179 0.413-0.046 0.434 4e-3 0.62 0.296 1.327 2.096 3.333 3.391 5.653 3.304 2.577-0.095 4.83-1.797 6.178-4.598 0.126-0.263 0.181-0.32 0.493-0.352 6.355-0.625 14.185 0.656 18.738 2.118 4.041 1.298 4.687 5.962 2.166 8.098z" fill="#0f141b"/>
   </g>
   <g transform="matrix(2.3094 0 0 2.3094 228.65 705.18)">
    <path d="m0 0c-2.206 3.393-4.11 3.338-4.174 1.905-0.02-0.454-0.238-0.663-0.743-0.796-3.315-0.872-6.021-0.186-10.372 6.34-5.927 8.89-12.905 11.896-21.899 12.296-4.121 0.183-7.361 0.225-9.131 0.611-0.262 0.057-0.571 0.112-1.002 0.058-0.557-0.07-1.528-0.033-2.289-0.103-0.492-0.045-0.505-0.234-0.059-0.408 1.952-0.755 6.102-1.107 12.468-1.339 6.632-0.242 14.246-3.289 19.498-11.619 1.466-2.325 3.034-4.161 4.151-5.215 0.891-0.84 0.517-1.066-0.444-0.929-1.544 0.22-3.66 1.671-5.233 3.863-7.756 10.813-13.21 12.162-25.347 13.091-4.158 0.319-7.899 0.935-9.431 1.691-0.303 0.15-0.616 0.2-0.955 0.139-0.495-0.087-0.954-0.198-1.472-0.337-0.474-0.128-0.507-0.544-0.08-0.79 1.535-0.882 3.552-1.259 6.42-1.459 14.114-0.981 20.613-3.687 28.199-14.033 0.879-1.199 1.566-1.973 2.549-2.497-1.716 0.411-3.154 1.257-4.697 2.882-9.829 10.345-16.527 11.924-29.048 11.898-4.746-0.011-7.747 0.797-9.178 1.615-0.567 0.324-0.85 0.361-1.387 0.334-0.716-0.035-1.809-0.168-2.724-0.327-0.615-0.108-0.633-0.457-0.081-0.727 4.178-2.05 8.383-2.938 13.635-2.753 11.982 0.424 19.292-2.733 26.687-10.849 1.357-1.489 2.282-2.441 3.422-3.024-1.961-0.305-3.984 0.128-5.783 1.776-7.638 7.001-12.115 9.965-25.838 10.293-6.659 0.16-9.497 1.035-16.5 4.112-0.786 0.345-1.297 0.356-1.91 0.239-1.084-0.207-1.881-0.411-2.839-0.637-0.902-0.212-1.148-1.017-0.053-1.565 5.04-2.52 11.407-4.934 19.1-5.411 12.269-0.762 16.835-2.345 24.618-10.346 4.414-4.539 6.971-5.382 11.579-5.213 4.336 0.159 11.898 1.711 17.469 3.422 1.54 0.474 2.412 0.214 3.7-0.835 0.965-0.786 1.223 1.498-0.826 4.647" fill="#003c8f"/>
   </g>
   <g transform="matrix(2.3094 0 0 2.3094 125.7 746.19)">
    <path d="m0 0c12.137-0.929 17.591-2.279 25.348-13.091 1.572-2.193 3.688-3.643 5.232-3.864 0.961-0.136 1.335 0.09 0.444 0.93-1.117 1.053-2.685 2.89-4.151 5.214-5.252 8.331-12.866 11.378-19.498 11.62-6.366 0.232-10.516 0.584-12.468 1.339-0.095 0.037-0.166 0.075-0.219 0.112-0.388-0.628-1.805-0.914-3.605-0.785 1.755-0.657 5.163-1.188 8.917-1.475" fill="#d2ecfa"/>
   </g>
   <g transform="matrix(2.3094 0 0 2.3094 103.16 731.94)">
    <path d="m0 0c13.723-0.328 18.2-3.292 25.838-10.293 1.799-1.648 3.822-2.082 5.783-1.777-1.141 0.584-2.065 1.535-3.422 3.024-7.395 8.116-14.701 11.156-26.687 10.85-5.82-0.149-10.913 1.147-13.874 2.907-0.332-1.053-1.45-1.061-3.821-0.738 6.771-2.964 9.626-3.816 16.183-3.973" fill="#d2ecfa"/>
   </g>
   <g transform="matrix(2.3094 0 0 2.3094 162.63 716.93)">
    <path d="m0 0c-1.715 0.294-2.278-0.735-1.678-2.144 2.597-3.014 5.366-3.896 7.46-3.418-2.033 1.434-3.736 3.406-5.782 5.562" fill="#fff697"/>
   </g>
   <g transform="matrix(2.3094 0 0 2.3094 188.23 720.66)">
    <path d="m0 0c-1.567 0.98-2.572 0.465-2.584-0.87 0.931-1.641 3.577-4.729 6.039-4.998 0.697-0.076 1.234 0.15 0.576 0.808-1.225 1.226-2.769 2.916-4.031 5.06" fill="#fff697"/>
   </g>
   <g transform="matrix(2.3094 0 0 2.3094 396.34 695.64)">
    <path d="m0 0c-1.413-1.511-0.883-5.944 3.516-9.79 4.101-3.587 8.72-3.526 10.118-1.938 1.186 1.349 0.689 5.191-3.779 9.165-4.86 4.325-8.597 3.908-9.855 2.563" fill="#003c8f"/>
   </g>
   <g transform="matrix(2.3094 0 0 2.3094 223.67 696.97)">
    <path d="m0 0c-5.3-1.638-12.406-3.406-17.979-3.715-7.447-0.414-9.752 3.25-14.729 8.116 5.776-4.661 9.313-6.469 15.525-5.993 5.002 0.383 10.072 1.091 15.052 2.211 2.299 0.517 4.701 0.218 5.599-2.097-1.214 1.284-2.63 1.736-3.468 1.478" fill="#00307c"/>
   </g>
   <g transform="matrix(2.3094 0 0 2.3094 167.98 695.54)">
    <path d="m0 0c1.8-0.726 3.148-0.956 4.894-0.866 0.755 0.039 0.907-0.433 0.082-0.567-1.79-0.289-3.774 0.052-5.256 0.943-0.652 0.391-0.418 0.771 0.28 0.49" fill="#878ec2"/>
   </g>
   <g transform="matrix(2.3094 0 0 2.3094 175.34 737.29)">
    <path d="m0 0c-0.487-0.02-0.547 0.519-0.059 0.557 0.257 0.02 0.571 0.025 0.785-5e-3 0.536-0.074 0.537-0.6 0.014-0.564-0.248 0.017-0.526 0.021-0.74 0.012" fill="#878ec2"/>
   </g>
   <g transform="matrix(2.3094 0 0 2.3094 157.61 735.82)">
    <path d="m0 0c0.418 0.149 0.96 0.309 1.437 0.418 0.545 0.124 0.737-0.424 0.165-0.562-0.538-0.129-0.976-0.259-1.428-0.408-0.631-0.208-0.792 0.331-0.174 0.552" fill="#878ec2"/>
   </g>
   <g transform="matrix(2.3094 0 0 2.3094 146.72 730.88)">
    <path d="m0 0c0.076 0.06 0.24 0.185 0.33 0.237 0.42 0.243 0.783-0.203 0.308-0.52-0.09-0.06-0.274-0.194-0.323-0.222-0.401-0.231-0.684 0.212-0.315 0.505" fill="#878ec2"/>
   </g>
   <g transform="matrix(2.3094 0 0 2.3094 134.15 720.35)">
    <path d="M 0,0 C 0.332,0.443 0.945,1.099 1.359,1.46 1.871,1.904 2.29,1.49 1.784,1.042 1.287,0.602 0.901,0.173 0.432,-0.41 0.09,-0.834 -0.375,-0.499 0,0" fill="#878ec2"/>
   </g>
   <g transform="matrix(2.3094 0 0 2.3094 63.678 741.97)">
    <path d="m0 0c3.037-0.443 4.273-0.51 4.558 0.578l0.375-0.354c-0.264-0.893-1.114-1.241-3.338-0.912z" fill="#94cbe6"/>
   </g>
   <g transform="matrix(2.3094 0 0 2.3094 104.09 750.14)">
    <path d="m0 0c2.034-0.206 3.655 0.125 3.919 0.771l0.336-0.336c-0.318-0.602-1.455-0.953-2.977-0.903z" fill="#94cbe6"/>
   </g>
   <g transform="matrix(2.3094 0 0 2.3094 189.05 719.15)">
    <path d="m0 0c-1.779 1.443-2.879 0.924-2.627-0.633l-0.496 0.656c-0.03 1.283 1 1.871 2.558 0.909z" fill="#ffee7d"/>
   </g>
   <g transform="matrix(2.3094 0 0 2.3094 163.38 716.12)">
    <path d="m0 0c-1.81 0.466-2.596-0.443-1.298-2.45l-0.878 0.724c-0.664 1.39-0.063 2.547 1.642 2.253z" fill="#ffee7d"/>
   </g>
   <g transform="matrix(2.3094 0 0 2.3094 191.24 704.93)">
    <path d="m0 0c-3.037-0.033-5.537 0.528-8.08 3.205-10.321 10.864-17.585 11.872-28.903 11.872-4.837 0-7.611 0.826-9.193 1.661-0.53 0.281-0.746 0.367-1.267 0.334-0.853-0.055-1.615-0.129-2.533-0.289-0.406-0.071-0.428-0.179-0.079-0.348 4.212-2.033 8.324-2.785 13.414-2.606 11.772 0.413 19.403-2.677 26.935-10.943 1.3-1.426 2.176-2.29 3.135-2.892 0.653-0.411 0.575-0.623-0.096-0.698-2.25-0.253-4.144 0.284-5.842 1.841-7.666 7.027-12.04 9.923-25.622 10.247-6.643 0.159-9.561 1.071-16.628 4.176-0.757 0.332-1.184 0.36-1.754 0.252-0.848-0.162-2.098-0.481-2.812-0.65-0.795-0.189-0.836-0.652 0.034-1.087 6.471-3.236 12.645-4.919 18.979-5.312 12.155-0.754 16.898-2.282 24.839-10.447 4.166-4.282 6.926-5.231 11.316-5.071 4.081 0.15 11.517 1.542 17.368 3.339 1.621 0.499 2.722 0.289 3.95-0.938 0.688-0.687 0.476-1-0.266-0.371-1.156 0.98-2.083 1.177-3.472 0.729-5.876-1.894-13.231-3.324-17.54-3.496-4.758-0.19-7.28 0.623-11.873 5.345-7.92 8.142-12.691 9.546-24.343 10.269-6.384 0.396-12.649 2.189-19.222 5.493-1.332 0.67-1.073 1.778 0.101 2.056 0.719 0.171 2.012 0.47 2.869 0.634 0.709 0.134 1.258 0.073 2.051-0.275 7.014-3.082 9.819-3.847 16.401-4.004 13.705-0.328 18.314-3.273 26.051-10.364 1.477-1.354 2.973-1.813 4.727-1.842-0.98 0.618-1.72 1.354-2.864 2.608-7.451 8.178-14.749 11.174-26.401 10.764-5.206-0.186-9.718 0.73-13.751 2.827-0.791 0.411-0.835 1.029 0.174 1.205 0.93 0.162 2.022 0.299 2.733 0.335 0.584 0.03 0.917-0.015 1.508-0.353 1.531-0.875 4.554-1.549 8.973-1.547 11.788 6e-3 19.287-1.165 29.366-11.957 2.445-2.619 4.592-3.094 7.61-3.223 1.397-0.06 1.403-0.463 7e-3 -0.479" fill="#0f141b"/>
   </g>
   <g transform="matrix(2.3094 0 0 2.3094 182.3 706.5)">
    <path d="m0 0c-0.737 0.515-1.391 1.182-2.129 2.188-7.284 9.934-13.245 12.948-27.905 13.948-3.165 0.216-5.07 0.651-6.524 1.516-0.653 0.388-0.618 1.04 0.122 1.24 0.599 0.161 1.067 0.275 1.512 0.353 0.372 0.066 0.767 0.017 1.111-0.154 1.416-0.698 4.967-1.316 9.33-1.65 12.313-0.942 17.821-2.322 25.6-13.166 1.383-1.927 3.518-3.54 4.977-3.748 0.575-0.083 0.717-0.046 0.193 0.448-1.343 1.266-2.974 3.217-4.247 5.237-6.002 9.517-14.542 11.32-19.172 11.489-7.086 0.258-10.488 0.693-12.553 1.384-1.04 0.349-0.897 0.735 0.159 0.873 0.851 0.112 1.696 0.053 2.244 0.132 0.459 0.066 0.845-8e-3 1.119-0.065 1.796-0.373 4.976-0.383 9.069-0.561 10.08-0.438 16.628-4.117 22.126-12.362 4.207-6.312 6.783-7.138 10.039-6.281 0.363 0.095 0.542 0.228 0.613 0.567 0.16 0.778 0.508 0.71 0.427-0.08-0.06-0.577-0.333-0.89-0.9-1.039-3.381-0.89-6.311-0.19-10.712 6.413-5.416 8.125-11.791 11.769-21.623 12.225-4.17 0.193-7.323 0.267-9.168 0.621-0.256 0.049-0.527 0.138-0.931 0.079-0.534-0.078-1.098-0.013-1.74-0.054-0.313-0.021-0.308-0.087-0.022-0.168 1.751-0.503 5.018-0.916 11.876-1.119 4.701-0.14 13.543-1.861 19.76-11.721 1.259-1.996 2.732-3.905 4.054-5.152 1.036-0.977 0.748-1.675-0.666-1.473-1.686 0.241-3.963 1.851-5.479 3.965-7.691 10.719-12.898 12.104-25.089 13.037-4.472 0.342-7.909 0.913-9.503 1.724-0.273 0.138-0.531 0.185-0.825 0.133-0.434-0.077-0.847-0.17-1.435-0.328-0.305-0.082-0.271-0.224-0.015-0.359 1.357-0.71 2.907-1.155 6.311-1.392 14.979-1.041 21.145-4.173 28.409-14.079 1.085-1.479 2.049-2.451 3.442-2.885z" fill="#0f141b"/>
   </g>
   <g transform="matrix(2.3094 0 0 2.3094 396.76 695.21)">
    <path d="m0 0c-1.243-1.33-0.511-5.846 3.523-9.375 3.995-3.492 8.556-3.35 9.748-1.995 0.885 1.007 0.863 4.57-3.85 8.764-4.906 4.364-8.437 3.659-9.421 2.606m3.101-9.833c-4.026 3.52-5.129 8.42-3.469 10.196 1.6 1.712 5.698 1.52 10.236-2.516 4.196-3.734 5.29-7.846 3.768-9.577-1.385-1.573-6.19-1.904-10.535 1.897" fill="#0f141b"/>
   </g>
  </g>
 </g>
</svg>
