<?xml version="1.0" encoding="UTF-8"?>
<!-- Created with Inkscape (http://www.inkscape.org/) -->
<svg version="1.1" viewBox="0 0 371.87 321.45" xmlns="http://www.w3.org/2000/svg">
 <defs>
  <radialGradient id="radialGradient95791-4" cx="0" cy="0" r="1" fx="-.093349" fy=".99563" gradientTransform="matrix(-9.1053 15.487 -15.487 -9.1053 186.35 134.08)" gradientUnits="userSpaceOnUse">
   <stop stop-color="#ef9450" offset="0"/>
   <stop stop-color="#ef9450" offset=".403"/>
   <stop stop-color="#ea6168" offset=".49492"/>
   <stop stop-color="#ea6168" offset="1"/>
  </radialGradient>
  <radialGradient id="radialGradient95795-9" cx="0" cy="0" r="1" fx="-.046293" fy=".99893" gradientTransform="matrix(18.552 -17.151 9.4399 10.211 189.66 132.47)" gradientUnits="userSpaceOnUse">
   <stop stop-color="#9c5fa4" offset="0"/>
   <stop stop-color="#9c5fa4" offset=".48428"/>
   <stop stop-color="#ea6168" offset=".51612"/>
   <stop stop-color="#ea6168" offset="1"/>
  </radialGradient>
  <radialGradient id="radialGradient95799-5" cx="0" cy="0" r="1" fx="-.99514" fy=".098453" gradientTransform="matrix(12.894 10.399 -10.399 12.894 190.3 121.3)" gradientUnits="userSpaceOnUse">
   <stop stop-color="#ef9450" offset="0"/>
   <stop stop-color="#ef9450" offset=".51549"/>
   <stop stop-color="#ea6168" offset=".64333"/>
   <stop stop-color="#ea6168" offset="1"/>
  </radialGradient>
  <radialGradient id="radialGradient95803-8" cx="0" cy="0" r="1" fx="-.076597" fy=".99706" gradientTransform="matrix(-14.612 17.264 -15.233 -12.893 197.03 124.1)" gradientUnits="userSpaceOnUse">
   <stop stop-color="#ea6168" offset="0"/>
   <stop stop-color="#ea6168" offset=".47594"/>
   <stop stop-color="#9c5fa4" offset=".53446"/>
   <stop stop-color="#9c5fa4" offset="1"/>
  </radialGradient>
  <radialGradient id="radialGradient95808-5" cx="0" cy="0" r="1" fx="-.0031612" fy=".99999" gradientTransform="matrix(28.502 -8.8228 8.8228 28.502 282.14 78.24)" gradientUnits="userSpaceOnUse">
   <stop stop-color="#ea6168" offset="0"/>
   <stop stop-color="#ea6168" offset=".46706"/>
   <stop stop-color="#ef9450" offset=".58661"/>
   <stop stop-color="#ef9450" offset="1"/>
  </radialGradient>
  <radialGradient id="radialGradient95813-1" cx="0" cy="0" r="1" fx="-.07234" fy=".99738" gradientTransform="matrix(12.594 -19.698 14.893 9.5225 236.8 86.246)" gradientUnits="userSpaceOnUse">
   <stop stop-color="#ea6168" offset="0"/>
   <stop stop-color="#ea6168" offset=".44276"/>
   <stop stop-color="#ef9450" offset=".62321"/>
   <stop stop-color="#ef9450" offset="1"/>
  </radialGradient>
  <radialGradient id="radialGradient95828-2" cx="0" cy="0" r="1" fx=".047819" fy="-.99886" gradientTransform="matrix(7.8021 -49.369 49.369 7.8021 273.69 89.65)" gradientUnits="userSpaceOnUse">
   <stop stop-color="#83ccc9" offset="0"/>
   <stop stop-color="#83ccc9" offset=".4752"/>
   <stop stop-color="#287f8f" offset=".60859"/>
   <stop stop-color="#287f8f" offset="1"/>
  </radialGradient>
  <radialGradient id="radialGradient95832-7" cx="0" cy="0" r="1" fx=".047819" fy="-.99886" gradientTransform="matrix(-14.642 -42.004 32.473 -11.32 359.41 123.78)" gradientUnits="userSpaceOnUse">
   <stop stop-color="#287f8f" offset="0"/>
   <stop stop-color="#287f8f" offset=".34256"/>
   <stop stop-color="#83ccc9" offset=".51673"/>
   <stop stop-color="#83ccc9" offset="1"/>
  </radialGradient>
  <radialGradient id="radialGradient95837-2" cx="0" cy="0" r="1" fx="-.045053" fy="-.99898" gradientTransform="matrix(-65.042 -18.462 12.182 -42.916 294.88 60.893)" gradientUnits="userSpaceOnUse">
   <stop stop-color="#287f8f" offset="0"/>
   <stop stop-color="#287f8f" offset=".4308"/>
   <stop stop-color="#83ccc9" offset=".61506"/>
   <stop stop-color="#83ccc9" offset="1"/>
  </radialGradient>
  <radialGradient id="radialGradient95841-2" cx="0" cy="0" r="1" fx="-.067977" fy="-.99769" gradientTransform="matrix(-30.167 .038011 -.038011 -30.167 331.84 64.79)" gradientUnits="userSpaceOnUse">
   <stop stop-color="#287f8f" offset="0"/>
   <stop stop-color="#287f8f" offset=".40707"/>
   <stop stop-color="#83ccc9" offset=".61719"/>
   <stop stop-color="#83ccc9" offset="1"/>
  </radialGradient>
 </defs>
 <path d="m312.37 235.73c1.5711-0.78555 3.7021-1.4959 5.0726-1.6964 2.3232-0.35099 7.5964-0.33428 10.68-0.0501-2.1059-2.2647-6.0588-4.2537-9.3263-4.5378-2.3065-0.19221-3.3929-0.117-6.3178 0.66855-2.4235 0.64348-3.209 0.67691-4.7467 0.40113-1.3622-0.24235-3.326-0.45963-5.0225-0.50977-0.59334-2.3149-2.2146-2.9333-4.8637-2.7996-3.6185-2.8079-7.0198-6.8276-9.1257-9.5854-3.2341-4.237-7.7468 4.6882 2.3734 15.251 1.3204 1.3789 3.4263 2.3901 5.2983 3.2425 0.75212 0.34263 1.3037 0.70198 1.897 1.3956 1.7382 2.0307 4.9556 4.2202 7.7468 5.7245 3.2759 3.2676 4.6715 10.906 6.0504 12.368 1.1449-2.131 1.6212-5.8498 1.3455-7.6633-0.25907-1.6881-1.5962-4.5712-3.0419-6.4682 1.2702 0.0585 2.6993 0.2507 4.1868 0.7354 1.3204 0.42621 5.1813 3.1589 9.2511 6.3178 0.0418-2.5154-1.3956-6.1089-4.1116-8.6912-1.5544-1.4792-4.4626-3.1171-7.3457-4.1032" fill="#4db0b5"/>
 <path d="m308.64 306.99c-14.432-8.6912-20.374-21.302-24.895-36.093-1.7382-5.666-1.4792-9.4517 0.94433-12.569 3.6436-4.6632 6.0086-8.1396 7.3541-11.466 1.1867-2.9166 0.64348-11.716-1.0279-17.792-0.86912-3.1589-3.4347-7.2287-5.7663-9.7191-7.7218-8.2483-49.155 16.731-41.592 17.942 3.6938 0.59334 11.449 3.0085 13.755 4.9807 2.7411 2.3483 5.7746 6.8192 4.7217 10.363-2.5823 8.641-2.6324 12.285-1.2368 15.101 8.7246 17.633 9.3848 25.982 4.7634 33.177-3.9528 6.1674-6.8443 8.5408-10.906 11.967-1.6463 1.3872-1.1867 3.1422 1.7884 3.1004-0.0668 0.46799 0.44292 0.94433 1.638 1.17 13.296 2.5321 29.232-5.7078 28.957-22.472 2.9583 4.4877 6.9279 8.1229 12.001 10.346 1.5293-0.21728 4.0698 0.56827 6.0671 3.1589 0.93597-0.45128 2.0976-0.86076 3.4347-1.195" fill="#4db0b5"/>
 <path d="m243.66 237.3c3.6938 0.59334 11.449 3.0085 13.755 4.9807 2.7411 2.3483 5.7746 6.8192 4.7216 10.354-0.4262 1.4207-0.77719 2.6909-1.0697 3.8609 0.94433 2.4319 2.6074 5.0058 4.262 6.6103 0.80227 0.77719 1.521 1.0279 1.4625-0.67691-0.0501-1.3705-0.16714-2.3566-0.47634-3.9862-0.26742-1.4374-0.19221-2.6408 1.2452-4.4041 2.8414-3.4932 4.8888-7.0783 4.8721-11.307-8e-3 -3.6687-5.2565-12.084-12.51-18.561-10.914 5.4654-20.19 12.502-16.263 13.129" fill="#fff"/>
 <path d="m260.21 227.89c-15.093 7.6131-22.53 17.29-22.48 22.982 0.0167 1.7215-0.74377 1.8469-1.9472 0.71033-2.833-2.6742-5.5072-8.1898-4.7467-13.806 1.2619-9.3848 32.258-11.441 29.174-9.8862" fill="#9c5fa4"/>
 <path d="m217.46 193.15c-3.7272-13.672-27.879-12.97-53.885 0.69362-3.9027 2.0474-7.8388 3.8442-10.906 4.9222-16.522-2.5906-19.706-24.753-7.68-45.353 13.396-22.956 8.0059-43.422-4.5127-53.526-19.497-15.744-54.111-16.714-82.023-7.1702-37.74 12.895-54.019 12.009-54.362 7.7218-0.15042-1.897 3.535-3.9277 8.3235-4.3456 1.6797-0.15042 1.8552-1.287-0.04179-1.3705-7.5964-0.34263-12.034 3.2676-11.842 6.2677 0.4847 7.3959 15.21 8.4823 59.192-5.0058 18.034-5.5239 54.838-5.9 68.318 13.02 5.8081 8.1563 3.8275 24.728-6.2259 38.584-39.002 53.768 13.17 99.798 67.474 75.906 17.942-7.8973 31.439-18.377 28.171-30.344" fill="#fff"/>
 <g fill="#4db0b5">
  <path d="m213.64 207.33c3.6185-4.4124 5.1896-9.1675 3.8275-14.182-3.7355-13.68-27.887-12.978-53.894 0.68526-3.8943 2.0558-7.8304 3.8442-10.897 4.9222-9.3012-1.4541-14.374-9.109-14.892-19.196-1.9555-4.0782-4.4626-7.9558-5.5239-8.0644-3.5768-0.37606-14.115 7.3792-18.277 16.848-0.66855 1.5042 0 1.6965 1.0363 0.80227 2.482-2.1394 5.0225-3.9779 7.7301-5.6409 1.0864-0.66856 1.4207-0.51813 0.78555 0.66019-3.4514 6.3763-4.2537 15.377-3.0336 20.291 0.35935 1.429 0.83569 1.8887 1.3705 0.20893 1.0028-3.1338 2.6157-6.51 4.613-8.9586 1.17-1.429 1.7466-1.2953 1.6212 0.51813-0.43456 6.4766 0.56827 13.271 2.5739 17.031 0.66855 1.2702 1.4457 1.0864 2.1143-0.0501 1.9137-3.2258 3.9361-5.7579 6.978-8.1647 1.5878-1.2619 2.4319-1.0864 3.3595 0.74376 5.7078 11.265 25.798 16.547 41.342 10.354 5.6743-1.0279 24.16-2.6993 29.166-8.8082"/>
  <path d="m119.62 166.73c1.2201-1.3037 0.88583-1.9639-1.2368-1.6714-2.4235 0.34263-4.5963 0.8524-6.8527 1.5878-2.0224 5.6493-3.067 11.106-3.2341 16.296 2.5572-5.7997 6.8527-11.449 11.324-16.212"/>
  <path d="m164.14 304.21c-3.8275-3.5266-6.2175-8.2566-6.2593-13.446-5.1562 4.6214-14.909 10.354-18.394 11.424-1.5377 0.46799-2.9751 0.76048-4.3623 0.71034 7.0449-4.9556 13.53-10.179 17.065-14.282 3.326-3.8776 10.321-15.987 14.758-25.764 0.13371-2.3149 0.47634-4.6046 1.2034-6.485 1.663-4.2704 5.9835-12.744 12.753-22.346 4.5796-6.4933 6.2928-10.07 8.0978-16.597 1.8134-6.5351 4.0447-12.494 7.2454-16.446 4.8136-5.9668 17.867-5.6576 23.826 10.597 3.4848 9.4934-6.5351 31.205-12.577 38.968-3.535 4.5378-9.3597 10.471-14.875 14.324-1.6547 1.1616-5.666 2.5823-9.8027 3.794-5.4988 6.744-8.5324 15.168-8.967 18.928-0.51813 4.471 0.35935 10.379 1.9973 14.366 2.0642 2.9249 4.5378 5.0392 6.3847 6.1841 1.5795 0.98611 1.429 2.2396-0.58498 2.3232-4.613 0.18385-9.0004-0.88583-12.719-2.8664-1.0864-2.7411-3.067-3.6353-4.7885-3.3846"/>
 </g>
 <path d="m196.88 256.43c-5.5741 3.4347-7.9892 6.1841-10.145 10.998 2.5739-0.87747 4.7634-1.78 5.8833-2.5656 5.5072-3.8525 11.34-9.7859 14.875-14.324 1.2619-1.6212 2.7076-3.8692 4.1534-6.4766-5.4153 5.2899-10.663 9.8361-14.767 12.368" fill="#fff"/>
 <path d="m163.31 151.99c-2.5154-3.0085-4.1283-7.1117-5.0392-11.466-0.64348-3.0753-1.9806-2.9918-2.5321-0.15878-4.3372 22.33-3.6185 35.258 9.7859 46.615 10.78 9.1341 20.04 10.329 28.957 4.9389 12.268-7.4126 7.5546-21.619-2.5572-24.72-13.831-4.237-22.539-7.9391-28.614-15.21" fill="#9c5fa4"/>
 <path d="m173.07 155.6c-2.8246-1.9472-5.2231-7.1368-6.2593-12.427-0.41785-2.1477-1.4123-2.2982-2.3901-0.4847-2.6324 4.847-2.3316 14.742 1.2034 20.825 3.5099 6.0504 8.1146 6.7607 10.538 1.5126 1.5544-3.3846 0.0251-7.2705-3.0921-9.4266" fill="#9c5fa4"/>
 <path d="m206.35 107.82c1.9388-19.889-5.1395-36.871-28.865-57.796-16.714-14.742-20.976-41.768-17.524-43.272 5.8498-2.5489 27.093 26.09 32.901 47.108 0.56827 2.0558 1.8302 2.0391 1.5042-0.45127-2.9667-22.639-27.16-55.991-36.72-52.665-6.9362 2.4068-10.63 21.87 13.463 55.08 13.989 19.279 20.098 36.938 17.341 54.027-1.4374 8.9168-2.9166 16.806-0.28414 22.689 1.8887 4.237 16.346-5.8498 18.185-24.72" fill="#fff"/>
 <path d="m206.45 106.6c-1.7382-2.1394-3.0085-4.5044-3.8776-6.1925-1.3455-2.6241-2.9667-4.7634-3.8442-4.8219-1.3956-0.10028-6.368 4.5545-9.7274 9.201-0.0501 0.90255-0.13371 1.7967-0.23399 2.6993 3.56 1.2953 6.9446 3.4681 9.3848 6.7022 0.3677 0.47634 0.35099 0.79391-0.24235 1.195-4.0949 2.7996-8.524 9.2929-10.622 14.533 0.21728 0.9109 0.50141 1.7884 0.86912 2.6241 1.897 4.237 16.354-5.8498 18.193-24.72 0.0418-0.40949 0.0669-0.81062 0.10028-1.2201" fill="#4db0b5"/>
 <path d="m181.57 131.17c-2.1723 0.0947-2.9917 1.798-1.3195 3.351 1.8122 1.6724 3.4598 2.3902 6.7606 2.5823 1.1371 0.0711 8.0144-4.3204 10.028-7.8386-1.1039-0.14209-2.3819-0.47615-3.393-0.8528-2.9919 1.4616-7.5129 2.5572-12.076 2.7579" fill="url(#radialGradient95791-4)"/>
 <path d="m192.88 128.77c-3.5683 2.113-6.7272 5.3234-8.5908 7.9725 0.76753 0.18951 1.663 0.30085 2.7242 0.36717 1.1371 0.0711 7.9474-3.8608 10.028-7.8386-1.1039-0.14209-2.3819-0.47615-3.393-0.8528-0.24163 0.11848-0.50222 0.24161-0.76989 0.35059" fill="url(#radialGradient95795-9)"/>
 <path d="m185.55 120.8c2.222 3.8108 5.7829 7.5129 9.8527 8.1731 5.4153 0.89543 8.1229-1.8217 8.6161-4.5296 0.45246-2.5906-1.111-5.1812-4.2789-4.6295-4.4959 0.78647-8.5491 0.21321-12.293-1.1773-0.47614-0.18951-0.90255-0.26768-1.2626-0.26768-1.1276 0-1.5374 0.87649-0.63486 2.4317" fill="url(#radialGradient95799-5)"/>
 <path d="m199.74 119.82c-0.49273 0.0947-0.97835 0.14209-1.4616 0.18951-1.6796 2.8247-4.7217 5.4321-7.5212 6.8359 1.4284 1.0778 2.9917 1.8548 4.6463 2.1225 5.4153 0.89544 8.1229-1.8217 8.6161-4.5296 0.40982-2.3571-0.84332-4.7049-3.4432-4.7049-0.26769 0-0.54248 0.0238-0.83623 0.0711" fill="url(#radialGradient95803-8)"/>
 <path d="m183.14 143.66c0.59334-3.5768 2.7996-7.4376 5.5406-9.5269 2.599-2.4068 8.5073-6.3095 13.58-7.2622 3.6353-0.68526 9.2762 9.4851 5.1646 12.226-8.2399 5.4988-24.954 8.5575-24.285 4.5629" fill="#9c5fa4"/>
 <path d="m266.62 61.152c1.4545 4.9806 2.6825 8.198 5.8414 13.354 3.8776 6.3595 18.561 24.21 21.578 23.266 2.3642-0.73673-0.25822-19.054-5.808-22.422-7.4712-4.5296-14.499-10.471-19.396-15.285-0.25821-0.2511-0.68462-0.39324-1.0944-0.39324-0.72726 0-1.4213 0.44299-1.1205 1.4806" fill="url(#radialGradient95808-5)"/>
 <path d="m246.41 73.384c-1.7382-2.0474-3.535-3.1338-5.783-4.496-1.8552-1.1282-1.9137-2.482 0.0836-2.6491 2.131-0.1755 4.4292-0.22564 6.861 0.15878 2.1561 0.34263 0.76884 9.2595-1.1616 6.9864" fill="#ef9450"/>
 <path d="m222.51 79.529c2.4153 5.1312 6.251 8.8251 13.012 10.872 2.6323 0.79357 8.0393-1.8122 11.808-4.4125 3.3262-2.2978 5.3819-4.5964 3.1589-4.5712-13.638 0.11848-19.664-0.72724-26.165-3.5768-0.55194-0.24163-0.99493-0.35061-1.3289-0.35061-0.91913 0-1.0447 0.81964-0.48561 2.0396" fill="url(#radialGradient95813-1)"/>
 <path d="m226.74 103.53c-4.5044-2.2397-6.627-6.7607-6.4599-12.443 0.0418-1.6881 0.55156-2.0976 2.0057-1.287 3.2174 1.8051 6.7273 3.0503 10.396 3.7773 3.9445 0.77719-2.9416 11.449-5.9418 9.9531" fill="#ef9450"/>
 <g fill="#9c5fa4">
  <path d="m295.87 163.61c-5.8498-10.338-3.5183-25.714 8.2232-40.163 2.7411-3.3762-6.2175-10.329-21.611-11.7-9.2929-0.30085-20.859 5.3568-28.831 13.329-12.092 12.092-18.77 16.873-30.411 17.341-7.8137 0.32592-13.63-2.5906-17.742-7.0616-13.613-3.1338-25.087 5.6911-28.28 16.497-6.2008 2.8246-11.073 6.7357-13.379 11.014-1.0948 2.0307-0.4262 2.7996 2.5739 2.2229 6.7022-1.287 15.761 1.3622 25.305 11.7 2.1561 2.3399 4.7384 4.2871 7.5964 5.8081 1.2535 0.0334 2.5823 0.0501 3.9946 0.0418 2.3149-0.0167 4.0531 0.82733 6.1758 3.301 3.1088 0.46799 6.3512 0.50977 9.6188 0.0752-5.315 20.692-26.207 25.48-38.458 21.711-2.0558-0.62677-2.7578 0.41784-1.6881 2.1059 6.1089 9.6773 21.21 15.945 32.65 13.513-7.4711 9.7024-7.7636 32.676-0.1755 39.938 1.6881 1.6212 2.7828 1.0028 2.7912-1.3204 0.0251-11.541 10.396-21.661 28.514-27.929 8.2232-2.8497 23.725-7.1702 34.581-10.229 25.288-7.1201 37.088-27.444 18.552-60.195"/>
  <path d="m338.86 147.16c-5.4153-6.1507-28.397-3.1338-46.573 10.755-13.948 10.655-13.68 47.96 1.7466 56.451 9.8277 5.4069 20.633 3.9779 28.948-5.9167 6.9446-8.2566 7.9224-17.29 5.3651-24.402 16.513-12.744 18.669-27.628 10.513-36.887"/>
  <path d="m273.94 96.354c-24.026-8.6661-50.768 4.7551-54.621 20.023-5.4988-0.43456-13.037-8.967-15.744-16.705-0.49305-1.3872-1.5377-1.5627-2.7411 0-7.4627 9.694-3.3846 43.799 22.397 42.754 11.65-0.47635 18.327-5.2481 30.419-17.349 7.9725-7.9725 19.538-13.63 28.831-13.329 7.0031 0.22564-0.35099-12.443-8.5408-15.393"/>
  <path d="m272.3 95.811c-1.1365-10.404-14.165-14.7-20.658-14.106-14.416 1.3037-23.725 13.196-27.678 26.149 9.2177-10.797 29.425-18.051 48.336-12.042"/>
 </g>
 <path d="m323.91 64.465c-1.2619-1.7382-8.4321-8.5909-11.808-11.65-0.63513-0.57663-1.5293-0.80226-2.4653-0.64348-1.1532 1.5544-2.6241 3.8692-4.4292 7.1117 1.6797 6.4432 4.9473 18.836 7.0031 27.16 3.4848 3.8943 9.0171 9.3347 13.513 13.597 2.4068-2.6826 5.3317-7.4376 5.5156-9.0087 0.25906-2.3232-6.0671-24.828-7.329-26.567m47.467 60.863c0 1.2535-3.6269 5.1144-6.6939 6.9112-1.6045 0.93598-2.4235 0.80227-3.4514 0.20893-2.3065-0.0167-4.3707-0.0334-7.1869-0.20057-2.131 1.755-4.1868 3.2592-5.6827 4.1367-1.7884 1.0363-2.6575 1.2786-4.6548 0.98612-0.0669-0.27578-0.14207-0.52649-0.24236-0.74377-2.014-4.4459-10.112-6.6772-19.94-5.6242-3.56-2.2062-8.733-4.0698-13.705-5.1729-3.2592 0.23399-6.6354 0.29249-9.4182-0.0669-2.1728-0.27578-3.4765-0.55156-4.379-1.3705-4.7969-4.3707-8.7998-7.4293-13.388-10.062-1.6296-3.5851-4.2704-10.438-6.2677-15.026-2.5823-2.2647-6.8025-5.5323-9.7525-8.2733-4.379-1.7382-11.7-4.6882-13.864-6.1674-2.1561-1.4792-5.5323-5.6911-6.1674-7.329-1.0112-2.6074-1.5878-6.9613-1.3705-9.4349 1.2118-1.5795 2.2647-3.067 3.1088-4.1116 0.69362-0.8524 2.0642-0.97776 4.0113-0.20892 6.953 2.7411 18.795 8.2232 22.764 10.755 2.8998 1.8385 7.7636 6.3847 9.2845 8.2733 2.2313 2.7745 5.3902 7.4794 8.0143 11.633-3.3511-10.939-8.2483-28.806-10.154-37.088-0.79391-3.4681-0.40949-5.1479 0.95268-6.8025 4.6715-5.6911 11.858-13.438 17.391-19.213 1.9388-2.0224 4.3122-2.2814 5.9334-1.1115 6.1925 4.5044 28.856 23.8 31.514 28.179 2.4653 4.0364 11.031 36.637 10.78 42.67-0.10029 2.4904-2.5322 6.9279-5.7412 11.349 0.4262 0.94433 0.62677 1.9889 0.3677 2.6826-0.44291 1.1616-1.4123 2.7828-2.5238 4.3289 0.21728 0.0752 0.43456 0.14207 0.65184 0.20057 3.9862-2.0725 12.794-5.7496 14.742-5.7161 2.1143 0.0501 10.321 3.9361 11.574 4.6715 1.2535 0.72705 3.4932 5.4821 3.4932 6.7357" fill="#287f8f"/>
 <path d="m248.33 63.985c-0.84332 1.0447-1.8975 2.5404-3.1087 4.12-0.2132 2.4653 0.36006 6.8191 1.3621 9.4265 0.63487 1.6393 4.0115 5.85 6.1757 7.3374 2.1652 1.4711 9.4852 4.4208 13.856 6.1674 2.9583 2.7328 7.1701 6.0002 9.7525 8.2734 1.1205 2.5404 2.4236 5.7912 3.6436 8.7831 5.1312-5.8834 7.2538-13.755 7.2957-21.335-1.0613-1.5137-2.0562-2.8749-2.9249-3.953-1.5208-1.888-6.3763-6.4263-9.2763-8.2733-3.9778-2.5238-15.811-8.0059-22.773-10.755-0.86938-0.3435-1.6203-0.50931-2.2552-0.50931-0.777 0-1.3621 0.2511-1.7459 0.71777" fill="url(#radialGradient95828-2)"/>
 <path d="m343.33 118.76c2.1817 4.2033 3.9028 10.454 4.5881 17.859 0.14209-0.0711 0.28427-0.14209 0.44299-0.24162 1.5042-0.87648 3.5517-2.3817 5.691-4.1283 2.8164 0.16583 4.8806 0.18951 7.1787 0.18951 1.0352 0.58513 1.8548 0.71778 3.4598-0.21319 3.0587-1.7956 6.694-5.6576 6.694-6.911 0-1.2531-2.2481-6.0004-3.4934-6.7357-1.2626-0.73673-9.4682-4.6215-11.574-4.6632h-0.0474c-1.7459 0-8.5825 2.7662-12.945 4.8387" fill="url(#radialGradient95832-7)"/>
 <path d="m305.21 59.286c1.8051-3.2425 3.2676-5.5573 4.4292-7.1117 0.92762-0.15878 1.8302 0.06686 2.4653 0.64348 3.3678 3.0586 10.538 9.9113 11.808 11.65 0.25071 0.34263 0.70198 1.521 1.2702 3.2007 3.3344-3.0001 9.084-3.1756 16.087-0.16714-1.3455-4.496-2.5321-7.9474-3.2341-9.1007-2.6659-4.3707-25.33-23.667-31.522-28.171-1.6129-1.1783-3.9862-0.9109-5.925 1.1115-5.5406 5.7663-12.728 13.521-17.399 19.213-1.195 1.4541-1.638 2.9333-1.1783 5.6242 5.2314 0.12535 14.065 1.8385 23.892 5.7746-0.2507-0.9694-0.4847-1.8636-0.69362-2.6659" fill="#83ccc9"/>
 <path d="m283.19 50.547c-1.3621 1.663-1.7459 3.3427-0.9523 6.8025 0.90255 3.9196 2.4738 9.9948 4.237 16.455 6.2344-0.18951 14.75 0.83621 23.491 3.7606-1.7388-6.7523-3.6185-13.889-4.7551-18.276 1.7625-3.1674 3.1923-5.4487 4.3457-6.9948-5.6159-4.6632-12.368-8.357-19.171-10.02-2.6491 2.9249-5.1561 5.7998-7.1953 8.2733" fill="url(#radialGradient95837-2)"/>
 <path d="m316.79 57.199c3.1004 2.9585 6.3178 6.1591 7.1199 7.2623 0.59222 0.80306 2.2552 6.0504 3.8528 11.683 4.5795-1.6298 10.112-1.779 15.769-0.63486-2.1723-8.0895-4.4208-15.335-5.4906-17.107-0.66803-1.111-2.6323-3.1755-5.29-5.7161-6.0587 0.04736-12.117 2.1817-15.962 4.5127" fill="url(#radialGradient95841-2)"/>
 <path d="m343.47 136.62c-2.8664-6.3345-18.076-8.1731-33.052-2.4235 1.5544 1.5042 2.014 3.3428 0.9694 5.0225 2.4068-1.0028 5.4487-1.3037 8.4488-1.1198 0.80227 1.6045 2.2898 4.4877 2.6491 4.5378 0.44292 0.0502 5.1228-2.9333 7.8054-4.3205 4.4626 4.5294 4.8721 9.0338 5.4571 9.2511 0.53484 0.20057 4.4877-1.429 6.4515-2.7411 1.5544-1.0446 2.2229-6.0922 1.2702-8.2065" fill="#fff"/>
 <path d="m309.83 125.83c-5.1479 0.33428-10.371 0.0669-12.769-0.69362 1.8218 1.2619 7.8388 3.1171 8.5073 3.5851 0.66855 0.46799 2.6157 3.4765 4.8554 5.4738 3.1338-1.2619 9.0672-2.8748 13.112-3.1923-2.8581-1.8887-8.6327-4.1868-13.705-5.1729" fill="#f45854"/>
 <path d="m309.84 125.83c0.4847 2.1477 1.9639 5.3317 4.4041 7.0616 3.0001-0.88583 6.5685-1.6797 9.2845-1.8887-2.8581-1.8887-8.6243-4.1868-13.689-5.1729" fill="#fff98e"/>
 <path d="m323.53 131c-1.7633-1.17-4.6464-2.4904-7.7886-3.5684 0.29249 1.3956 1.0446 3.1756 2.131 4.5127 1.989-0.45963 3.9862-0.81898 5.6576-0.94433" fill="#f13244"/>
 <path d="m203.31 182.64c-7.797 0.0752-13.095-0.68527-17.641-1.8302-1.5126-0.38442-2.7745-1.0279-3.6436-2.1394-1.7132-2.1895-3.443-2.6659-5.1562-1.638-0.33428-0.14206-0.71869-0.26742-1.1616-0.37606-3.8024-0.94433-5.7161-1.8887-6.4515-3.1255-1.897-3.209-4.3122-4.5629-7.2705-4.262-5.4905 0.55155-9.0087 3.4347-9.2511 7.9056 2.6074-1.0279 5.8916-1.3037 8.8918-0.95269 0.75212 1.1616 1.7884 2.5405 3.2508 3.6938-1.6045 1.3371-3.8108 2.5656-5.9501 2.833-1.2619 0.15878-2.0809 0.46799-3.2091 1.872-2.4235 2.9751-4.4124 7.329-4.0615 11.357 3.184-1.5042 6.6103-4.0615 9.5687-6.9028 0.86912 0.0251 1.7717-8e-3 2.6659-0.0669-1.1616 2.3566-1.7048 5.5323-1.4541 8.2065 0.32592 3.5768 3.443 6.5518 6.3763 7.4878-0.71034-7.7218-0.20892-12.092 1.5795-12.811 4.3372-1.7466 6.6354-2.6659 7.8221-3.9445 1.1282 0.0251 2.0307 0.34263 3.301 1.0446 5.4153 3.0085 13.714 5.6158 21.151 9.4851 3.6603 1.9137 6.8192 1.9304 10.346-0.0585 2.9416-4.0614 4.73-7.095 6.0838-12.402-2.6324 0.41785-7.4878 0.50142-9.7609-0.25906-2.4569-2.482-3.7522-3.1422-6.0253-3.1171" fill="#4db0b5"/>
 <g fill="#fff">
  <path d="m164.75 169.52c-0.86076-0.27578-1.78-0.35935-2.7661-0.25906-5.4905 0.55155-9.0087 3.4347-9.2511 7.9056 2.5489-1.0028 5.7245-1.287 8.6745-0.9694 4.4375-0.45127 5.5824-3.8692 3.3428-6.6772"/>
  <path d="m156.89 183.45c-0.37606 0.26742-0.75212 0.63513-1.1783 1.1616-2.4151 2.9834-4.4041 7.3374-4.0615 11.357 3.1923-1.5042 6.6187-4.0615 9.5687-6.9028h0.117c-0.12535-3.1004-1.9472-5.1311-4.4459-5.6158"/>
  <path d="m162.4 196.63c0.20892 4.262 3.0168 6.9864 6.4097 8.0644-0.31756-3.4681-0.39278-6.2593-0.21728-8.3402-2.0725-2.0809-4.8888-1.7048-6.1925 0.27578"/>
  <path d="m104.15 87.513c-0.18385-1.521 0.40949-2.4904 0.96104-2.5656 0.53484-0.08357 2.7244 1.1783 4.496 3.301 1.1449 1.3789-5.2649 0.89419-5.4571-0.73541"/>
  <path d="m116.71 89.516c-0.0919-1.7466 0.56827-3.1171 1.2285-3.2174 0.76048-0.117 2.716 2.0809 3.794 4.6966 0.73541 1.78-4.9306 0.21728-5.0225-1.4792"/>
  <path d="m134.67 96.605c-0.98612-2.9667-3.2258-6.4682-4.1534-6.4432-0.86076 0.02507-2.1561 1.3455-2.5906 3.1088-0.59334 2.3734 7.3123 5.0392 6.744 3.3344"/>
  <path d="m185.6 237.51c0.50141-0.82733 0.93597-7.8889 1.0363-13.196-1.3204 3.0252-3.0252 5.8498-5.7412 9.7107-1.9973 2.8414-3.7857 5.5741-5.3568 8.1396 5.0977-1.7132 9.4684-3.6687 10.062-4.6548"/>
  <path d="m166.95 262.73c2.5154-1.663 4.9306-3.6603 5.1562-4.354 0.34263-1.078-0.59334-4.9306-0.59334-9.1592-1.5544 2.9416-2.6909 5.3986-3.3678 7.1452-0.71869 1.8469-1.0613 4.0949-1.195 6.368"/>
  <path d="m166.57 304.61c-0.66855-0.3677-1.3789-0.47634-2.1644-0.38442-4.8554-3.7773-6.602-9.7358-6.5602-13.438-5.1646 4.6214-14.884 10.329-18.368 11.399-1.897 0.57662-3.6353 0.89419-5.3234 0.63512-4.1785-0.66019-9.1926 5.8749-8.5825 6.4599 0.56827 0.55156 6.1256-0.95269 11.833-0.43456-2.8664 3.1422-3.5183 5.1395-3.2007 5.5657 0.30085 0.40113 1.5711 0.47635 3.3344-0.16713 1.7466-0.63513 3.0586-0.8357 4.9724-0.64349 2.1561 0.20893 3.5015 0.0501 5.2983-0.61005 3.5851-1.3204 6.0588-4.7885 7.9558-4.7467 2.1644 0.0585 3.6938 3.9528 6.485 4.2704 4.3539 0.49305 6.4265 2.1059 7.2705 1.638 1.0028-0.56827 0.1755-7.8221-2.95-9.5436"/>
 </g>
 <path d="m265.67 300.92c1.4708-2.2898 2.3984-4.7049 2.7076-7.4878-2.95 7.8722-12.118 13.747-17.466 16.714-1.8552 1.0279-1.312 1.9304 0.15878 1.9973 1.546 0.0836 3.443-0.15043 5.432-0.73541 3.2007-2.7411 5.808-5.2398 9.1675-10.488" fill="#4db0b5"/>
 <g fill="#fff">
  <path d="m303.87 306.8c-1.5042-1.3956-3.1756-1.9304-4.6715-1.6797-4.6381-1.8887-9.9196-6.8109-12.059-10.438 0.25906 4.8554-1.3622 9.3096-3.6353 13.003-2.0307-0.64348-4.6799-0.50141-6.159 0.85241-4.6548 4.262-4.0698 12.193-3.326 12.377 1.7215 0.41784 5.6911-2.9751 10.371-4.8721 4.5712-0.5432 10.797-0.80226 15.586-0.70198 4.8804 1.5627 9.201 3.9528 10.296 3.3177 1.1867-0.68526-2.0307-7.8137-6.4014-11.858"/>
  <path d="m314.9 307.19c-3.6102-0.76884-6.5435-0.15878-9.7024 0.9694 1.9889 2.2229 3.6269 4.9473 4.5378 7.07 1.9388-0.20893 4.3623-0.19221 6.627 0.18385 4.7802 0.7939 9.0923 3.0837 9.7609 2.131 0.96104-1.3455-6.4014-9.3263-11.223-10.354"/>
  <path d="m318.97 239.19c-2.4736-0.0501-3.4263 1.5042-2.9584 3.7355 1.8385 1.1031 4.7718 3.2341 7.8221 5.5991 0.0418-2.9333-1.8636-6.9697-4.8637-9.3347"/>
  <path d="m312.09 255.6c1.3705-2.5489 1.6964-6.6354 1.1282-8.5825-1.4457-0.78555-3.1756 8e-3 -3.9779 1.6964 1.2118 3.0001 2.0307 6.0253 2.8497 6.8861"/>
  <path d="m319.67 229.56c-2.6826 0.98612-2.8163 3.184-1.1282 4.3456 2.6157-0.21728 6.9195-0.16714 9.5854 0.0752-1.9221-2.0642-5.3818-3.9027-8.4572-4.4208"/>
 </g>
 <path transform="matrix(8.3567,0,0,-8.3567,319.06,128.7)" d="m0 0c-0.333 0.141-0.731 0.27-1.099 0.342-0.616-0.04-1.241-8e-3 -1.528 0.083 0.218-0.151 0.938-0.374 1.018-0.43 8e-3 -5e-3 0.018-0.015 0.028-0.026 0.456 0.04 1.075 0.069 1.581 0.031" opacity=".137" style="mix-blend-mode:normal"/>
 <path transform="matrix(8.3567,0,0,-8.3567,313.17,49.293)" d="m0 0c0.128-0.195 0.315-0.616 0.435-0.959-0.219 0.229-0.384 0.396-0.533 0.526-0.122 0.105-0.225 0.136-0.33 0.073 0.101 0.175 0.266 0.332 0.428 0.36" opacity=".137" style="mix-blend-mode:normal"/>
 <g fill="#dcdddd">
  <path d="m193.95 55.334c0.34263-0.06686 0.56827-0.69362 0.40949-1.9304-2.9667-22.631-27.16-55.983-36.729-52.665-1.0195 0.35935-1.9722 1.0864-2.7745 2.1728 10.037-5.7913 35.951 30.553 39.094 52.423" style="mix-blend-mode:normal"/>
  <path d="m154.18 15.314c0.73541 1.2368 1.7299 2.5405 2.482 3.3511 0.52648 0.55991 0.94433 2.8831 0.27578 3.1589-1.3705-1.2285-3.2592-5.5239-2.7578-6.51" style="mix-blend-mode:normal"/>
  <path d="m156 25.001c0.57663 0.75212 1.4541 1.755 2.4235 2.4235 0.86076 0.59334 2.0642 2.9667 1.7466 3.3678-1.755-0.81898-4.7049-4.7049-4.1701-5.7913" style="mix-blend-mode:normal"/>
 </g>
 <path d="m191.23 220.29c-1.5627 1.5293-3.1004 2.7996-4.2119 3.4932 0.58498-1.3622 1.1365-3.1756 1.6212-4.9389z" fill="#fff"/>
 <path d="m191.76 208.68c0.50141-1.2201 1.0363-2.3984 1.5293-3.3177 1.8302-3.4096 3.7857-5.1729 3.7857-5.1729-0.60169 1.6463-1.0112 4.7718-1.1783 7.8638z" fill="#fff"/>
 <g fill="#88518e">
  <path d="m252.76 84.863c-7.9391 1.7382-16.229 8.5825-20.483 16.07 11.641-7.3039 27.478-9.3096 40.03-5.1228-1.7717-1.3204-4.1116-3.3344-5.6827-4.7802-4.6548-1.663-11.148-4.5044-13.864-6.1674"/>
  <path d="m277.9 102.94c-17.073-1.5711-33.227 6.9279-43.414 22.288-7.3374 11.065-29.617 11.232-36.127-4.5044 2.4152 11.307 10.062 22.305 24.879 21.703 11.65-0.47634 18.318-5.2481 30.411-17.341 7.7051-7.7051 18.745-13.246 27.862-13.346-1.0948-2.599-2.3901-5.8415-3.6102-8.7998"/>
  <path d="m296.37 164.46c-4.7133 3.1338-9.4182 8.4739-10.998 12.009-1.9555 4.3707-6.9613 9.1257-11.984 10.304 3.5851-6.8527 5.7913-16.354 5.7913-26.015 0-15.811 7.2287-24.101 19.079-35.383-1.3872 0.12535-3.7272-2.3817-5.2732-3.7021-21.569 0.18385-41.709 15.886-52.565 36.244-9.343 17.516-30.544 21.586-40.64 14.541-15.778-10.998-28.464-13.07-36.394-7.7636 0.14207 0.52649 0.86912 0.73541 3.7523 0.20893 6.4097-1.1783 17.107 3.1088 24.578 11.884 1.7215 2.014 4.5378 4.0865 7.5964 5.808 5.5323-0.30921 7.2872-0.10864 10.028 3.1506 14.357 2.4987 26.759-4.2202 36.988-17.29 8.7748-11.215 16.212-19.054 24.143-24.076 4.4542-2.8163 5.5239-1.8803 3.535 2.2982-3.3511 7.0449-5.2899 15.444-6.5017 25.355-1.2702 10.363-8.3235 19.447-23.917 27.628-36.002 18.887-56.142 17.232-65.15 8.5909 2.3734 7.7803 19.564 18.485 33.177 15.084-1.546 1.9555-2.9918 5.0894-3.769 7.9474 5.6911-8.382 15.652-12.31 25.305-15.494 18.552-6.1173 28.815-9.9196 34.447-15.87 3.3093-3.5015 4.5127-3.2007 4.6799 0.40113 0.46799 10.513-8.616 17.575-33.745 26.826-22.773 8.382-29.893 20.583-25.305 36.871 0.7187-0.0167 0.93598-0.61006 0.99447-2.0558 0.47635-11.223 8.8918-21.419 28.522-27.937 11.273-3.7355 20.867-6.4766 34.573-10.22 33.946-9.2678 31.84-37.422 19.054-59.342"/>
  <path d="m206.1 136.46c10.045 19.438 33.093 13.739 46.189-9.6439-13.814 16.63-34.781 20.408-46.189 9.6439"/>
  <path d="m163.98 143.68c-0.24235 5.7496 1.7215 11.006 4.028 13.906-1.1282 1.2285-2.3065 2.3817-3.2425 3.8358-1.8636-3.443-3.3428-12.385-0.78555-17.742"/>
  <path d="m166.42 165.09c1.9388 3.5517 7.2037 5.1729 9.2595 0.65184-2.6491-0.88583-5.8498-1.2034-9.2595-0.65184"/>
  <path d="m191.72 176.79c-1.3287-1.5627-2.7578-2.9667-4.2537-4.237-6.3596 1.3956-13.104 1.312-19.062-0.30085 0.29249 0.39277 0.58498 0.81062 0.86076 1.287 0.72705 1.2285 2.6491 2.1728 6.4432 3.1171 0.44292 0.117 0.82733 0.23399 1.1616 0.37606 1.7132-1.0279 3.443-0.55156 5.1646 1.638 0.86912 1.1115 2.131 1.755 3.6353 2.1394 3.6938 0.92762 7.8889 1.6045 13.513 1.7884-2.9082-1.6964-5.8331-3.8943-7.4627-5.808"/>
  <path d="m161.63 176.22c-1.5962-0.19221-3.2759-0.19221-4.8888-8e-3 1.0613 2.1143 2.4068 4.1283 4.0531 6.0671 1.5042-0.53484 2.9416-1.4207 4.0782-2.365-1.4541-1.1532-2.4987-2.5321-3.2425-3.6938"/>
  <path d="m161.29 169.35c-3.2676-1.8803-6.0086-4.3874-7.8973-7.5546 0.10864 3.7272 0.63512 7.1201 1.6463 10.279 1.4792-1.4123 3.6185-2.3483 6.251-2.7244"/>
  <path d="m181.52 188.99c-1.2702-0.70198-2.1728-1.0195-3.301-1.0446-1.0697 1.1532-3.0419 2.014-6.5936 3.4514 7.1117 4.2453 13.597 4.7802 19.856 2.0725-3.7355-1.5377-7.2204-2.9583-9.9614-4.4793"/>
  <path d="m334.34 148.26c5.3568 7.0114 4.5963 23.667-3.8275 33.971-0.69363 0.70198-1.2452 1.2034-2.1728 1.8134 2.7411 8.6243 1.4207 16.329-5.3651 24.411-9.0338 10.755-21.277 11.382-28.037 6.3095 13.898-12.151 12.494-31.405 1.429-50.3-6.393-10.922 31.246-25.004 37.974-16.204"/>
 </g>
 <g>
  <path transform="matrix(8.3567,0,0,-8.3567,195.34,208.24)" d="m0 0c0.849 0.153 1.419 0.478 2.119 1.173-0.487-0.256-0.847-0.22-1.347 0.047-0.223 0.12-0.792 0.376-1.276 0.556-0.381-0.211-1.081-0.257-1.432-0.137-0.393-0.349-0.811-0.635-1.245-0.862-0.063-0.033 0.031-0.301-0.032-0.332-0.053-0.025-0.263 0.187-0.317 0.163-2.74-1.218-5.943-0.184-6.928 2.259 0.114-4.392 4.844-6.624 9.421-4.793 0.095 0.25 0.157 0.409 0.229 0.656-0.504 0.278-0.962 0.787-1.148 1.076-0.128 0.2-0.045 0.313 0.202 0.253 0.449-0.11 0.892-0.163 1.333-0.135 0.14 0.355 0.397 0.83 0.628 1.032-0.128-0.33-0.193-0.641-0.207-0.956" opacity=".137" style="mix-blend-mode:normal"/>
  <path transform="matrix(8.3567,0,0,-8.3567,152.71,198.78)" d="m0 0c-0.144-0.061-0.431-0.123-0.567-0.13-0.2-0.01-0.545 0.133-0.722 0.298-0.811 0.236-1.911 2.638-0.397 5.325 2.235 3.967 0.391 6.699-3.394 7.809 4.964-0.808 6.201-4.242 4.16-7.875-1.615-2.875-0.785-5.256 0.92-5.427" opacity=".137" style="mix-blend-mode:normal"/>
  <path transform="matrix(8.3567,0,0,-8.3567,152.9,176.97)" d="m0 0c0.221 0.329 0.882 0.631 1.301 0.426 0.159-0.077 0.384-0.365 0.664-0.506 0.241-0.121 0.061-0.471-0.319-0.445-0.213 0.128-0.491 0.374-0.6 0.608-0.349 0.049-0.732 0.01-1.046-0.083" opacity=".137" style="mix-blend-mode:normal"/>
 </g>
 <path d="m214.3 186.71c-0.32592 2.4736-5.2648 5.7913-9.1508 5.4654 0.25906 3.2258 1.0279 6.017 1.7717 7.5714 1.5878 0.23399 4.3038-0.30921 5.6326-0.90255 3.067-3.2676 5.9418-9.1508 6.5435-12.82-1.897 0.66856-4.7969 0.68527-4.7969 0.68527" fill="#dcdddd" style="mix-blend-mode:normal"/>
 <g>
  <path transform="matrix(8.3567,0,0,-8.3567,209.37,185.8)" d="m0 0c-0.131 0.132-0.234 0.22-0.332 0.278 0.557-0.776-0.307-1.182-0.833-0.919-0.782 0.391-1.518 0.276-2.17 0.805-0.291 0.236-0.519 0.211-0.784 0.015-0.254-0.188-0.686-0.226-1.122-0.122-0.212 0.051-0.492 0.048-0.733-0.089-0.241-0.138-0.719-0.753-0.903-1.169 0.357 0.172 0.799 0.454 1.119 0.804 0.197-9e-3 0.418-4e-3 0.609 0.019-0.212-0.424-0.12-1.362 0.292-1.886 3e-3 -1e-3 5e-3 -2e-3 7e-3 -3e-3 -0.085 0.924-0.024 1.446 0.19 1.533 0.518 0.209 0.793 0.319 0.935 0.472 0.136-3e-3 0.244-0.041 0.395-0.125 0.649-0.36 1.642-0.672 2.531-1.136 0.438-0.228 0.817-0.231 1.238 8e-3 0.353 0.486 0.566 0.849 0.729 1.483-0.315-0.049-0.897-0.059-1.168 0.032" opacity=".137" style="mix-blend-mode:normal"/>
  <path transform="matrix(8.3567,0,0,-8.3567,309.34,238.08)" d="m0 0c0.893-0.196 1.303-0.367 1.741-1.254-0.487 0.379-0.949 0.706-1.107 0.757-0.178 0.058-0.349 0.081-0.502 0.088 0.174-0.227 0.334-0.572 0.365-0.774 0.033-0.217-0.024-0.662-0.161-0.917-0.166 0.175-0.333 1.089-0.724 1.48-0.334 0.18-0.719 0.442-0.927 0.685-0.072 0.083-0.137 0.126-0.227 0.167-0.179 0.081-0.375 0.175-0.527 0.293-0.031 0.192-0.07 0.379-0.116 0.549-0.089 0.322-0.326 0.724-0.567 1.02 0.142 0.066 0.276 0.136 0.402 0.21 0.252-0.316 0.607-0.716 0.981-1.006 0.302 0.015 0.508-0.044 0.582-0.335 0.106 7e-3 0.2-7e-3 0.3-0.022-0.095-0.425 0.071-0.85 0.487-0.941" opacity=".137" style="mix-blend-mode:normal"/>
  <path transform="matrix(8.3567,0,0,-8.3567,310.97,236.7)" d="M 0,0 C -0.205,0.035 -0.256,0.275 -0.053,0.406 0.383,0.686 1.168,0.71 2.027,0.341 1.638,0.354 1.034,0.362 0.757,0.315 0.479,0.267 0.156,0.132 0,0" opacity=".137" style="mix-blend-mode:normal"/>
  <path transform="matrix(8.3567,0,0,-8.3567,211.63,223.35)" d="m0 0c-0.843-0.171-1.599 0.019-2.09 0.219-0.026-1.675-0.618-3.403-1.697-4.86-0.498-0.673-1.173-0.832-1.552-0.644-0.289-0.806-1.504-3.406-3.625-4.224 0.108 0.014 0.218 0.039 0.333 0.075 0.418 0.127 1.584 0.813 2.201 1.367 6e-3 -0.621 0.292-1.188 0.749-1.61 0.207 0.03 0.443-0.077 0.574-0.405 0.445-0.237 0.97-0.365 1.522-0.343 0.241 0.01 0.259 0.16 0.069 0.278-0.22 0.137-0.516 0.39-0.764 0.74-0.196 0.478-0.301 1.184-0.239 1.72 0.053 0.449 0.416 1.458 1.073 2.264 0.496 0.145 0.975 0.316 1.174 0.454 0.598 0.419 1.227 1.041 1.654 1.559-0.192 1.157 0.022 2.636 0.618 3.41" opacity=".137" style="mix-blend-mode:normal"/>
 </g>
 <path d="m137.47 302.84c-0.57663 1.429-1.8719 2.5405-3.652 2.5656-3.2508 0.0418-6.042 1.6881-8.0393 3.8609 0.91926 0.55992 7.2705-1.0864 11.633-0.41784 2.5405-3.2425 4.0949-4.0698 6.9446-3.8692 1.8218-1.2619 4.5378-4.1868 5.2649-6.2092 1.5627-1.0864 8.3569-6.8443 8.3569-6.8443l-0.10864-1.17s2.8497-2.9333 0 0c-2.8413 2.9416-16.421 11.574-20.399 12.084" fill="#dcdddd" style="mix-blend-mode:normal"/>
 <g>
  <path transform="matrix(8.3567,0,0,-8.3567,200.85,99.685)" d="m0 0c0.145 0.188 0.27 0.166 0.328 0 0.084-0.238 0.206-0.483 0.352-0.716 0.147 2.27-0.739 4.245-3.474 6.657-2 1.765-2.511 4.998-2.097 5.178l0.076 0.078c-1.129-0.041-0.089-4.041 1.86-5.621 1.627-1.319 2.82-3.865 2.7-6.092 0.065 0.204 0.15 0.38 0.255 0.516" opacity=".137" style="mix-blend-mode:normal"/>
  <path transform="matrix(8.3567,0,0,-8.3567,309.16,120.49)" d="m0 0c-0.093 0.229-0.143 0.337-0.246 0.523-0.37 0.247-0.986 0.544-1.5 0.782-0.115 0.053-0.142 0.079-0.199 0.182-0.432 0.771-0.987 2.049-1.219 2.626-0.162 0.156-0.414 0.33-0.7 0.498-0.559 0.162-1.435 0.55-1.962 0.808l-0.065-0.068c0.07-0.155 0.086-0.315 0.016-0.436-0.13-0.228-0.6-0.421-1.063-0.493 0.069-0.067 0.136-0.125 0.195-0.165 0.259-0.177 1.136-0.53 1.659-0.738 0.353-0.328 0.858-0.719 1.167-0.99 0.24-0.549 0.555-1.369 0.75-1.798 0.549-0.315 1.029-0.681 1.603-1.205 0.107-0.098 0.263-0.131 0.523-0.164 0.333-0.042 0.737-0.035 1.127-7e-3 0.595-0.133 1.214-0.356 1.641-0.62 1.175 0.126 2.144-0.14 2.385-0.672 0.012-0.026 0.021-0.057 0.029-0.089 0.239-0.035 0.344-7e-3 0.557 0.118 0.18 0.105 0.425 0.285 0.681 0.495 0.336-0.02 0.583-0.023 0.859-0.025 0.124-0.07 0.222-0.087 0.414 0.026 0.357 0.21 0.778 0.654 0.799 0.814-0.322 0.207-0.78 0.369-1.034 0.384-0.165 0.01-0.916-0.165-1.419-0.321-0.733-0.227-1.457-0.27-2.043-0.095 0.161 0.085 0.293 0.163 0.451 0.282 0.152 0.116 0.467 0.556 0.615 0.802 5e-3 9e-3 0.01 0.018 0.014 0.027-0.104 0.068-0.174 0.185-0.22 0.292-0.21-0.152-0.49-0.421-0.78-0.717-0.19-0.194-0.539-0.274-1.053-0.3 0.05-0.064 0.121-0.154 0.164-0.192-0.785 0.208-1.467 0.137-2.146 0.436" opacity=".137" style="mix-blend-mode:normal"/>
  <path transform="matrix(8.3567,0,0,-8.3567,312.98,49.167)" d="m0 0c-0.362 0.294-0.966 0.036-1.281-0.334-0.039-0.267-0.188-1.379-0.236-1.781 0.161-0.151 0.366-0.501 0.398-0.795 0.033-0.307 0.094-1.244 0.227-1.438 0.132-0.194 0.884-0.922 1.22-1.201s0.987-0.684 1.554-0.899c-0.428 0.404-1.577 1.518-1.97 1.987-0.182 0.761-0.615 2.422-0.837 3.25 0.225 0.399 0.623 1.125 0.925 1.211" opacity=".137" style="mix-blend-mode:normal"/>
  <path transform="matrix(8.3567,0,0,-8.3567,332.79,113.16)" d="m0 0c0.486 0.492 0.971 1.085 1.034 1.514 0.075 0.504-0.163 1.467-0.446 2.106-0.056 0.126-0.097 0.281-0.116 0.42-0.175 1.274-0.343 2.32-0.546 2.597-0.591 0.805-1.523 1.895-2.677 2.955 1.122-0.816 3.281-2.805 3.382-3.045 0.384-0.918 1.306-4.271 1.29-5.106-7e-3 -0.316-0.382-0.986-0.688-1.359-0.066 0.145-0.196 0.281-0.325 0.246-0.277-0.076-0.671-0.23-0.908-0.328" opacity=".137" style="mix-blend-mode:normal"/>
  <path transform="matrix(8.3567,0,0,-8.3567,273.81,315.42)" d="m0 0c-0.581-0.256-1.247-0.332-1.865-0.215-0.143 0.028-0.204 0.084-0.196 0.14-0.174-2e-3 -0.276 0.047-0.312 0.117 0.84 0.358 1.64 1.008 2.044 1.67 0.585 0.958 0.032 2.788-0.776 3.987-0.245 0.362-0.401 0.775-0.437 1.253 0.038 0.163 0.088 0.346 0.15 0.554 0.126 0.423-0.237 0.958-0.565 1.239-0.232 0.199-0.927 0.435-1.405 0.547 0.354 0.328 0.808 0.661 1.362 0.973 0.817 0.24 1.705 0.488 2.424 0.691 0.383 0.107 0.739 0.241 1.066 0.399 0.244-0.298 0.484-0.704 0.574-1.03 0.2-0.727 0.265-1.779 0.123-2.129-0.161-0.397-0.445-0.813-0.88-1.372-0.29-0.372-0.321-0.826-0.113-1.504 0.541-1.769 1.252-3.278 2.979-4.319-0.16-0.04-0.3-0.088-0.412-0.143-0.238 0.31-0.542 0.405-0.725 0.378-0.607 0.267-1.083 0.701-1.436 1.238 0.01-0.61-0.16-1.125-0.445-1.539-0.622 0.142-0.91-0.107-1.155-0.935" opacity=".137" style="mix-blend-mode:normal"/>
 </g>
 <path d="m249.73 311.51c3.3177-0.40113 8.8332-3.1673 13.814-7.5045-1.9054 2.8581-5.2983 5.925-7.0449 7.4042-3.8692 1.1449-6.6103 0.78555-6.7691 0.10028" fill="#42999d"/>
 <g fill="#dcdddd">
  <path d="m169.52 314.15c-0.63512 0.72705-2.9166-1.1365-7.2705-1.638-2.7996-0.30921-4.3289-4.2119-6.485-4.262-1.9054-0.0501-4.379 3.4263-7.9641 4.7384-1.7884 0.6602-3.1338 0.82733-5.2983 0.61005-1.9054-0.1922-3.2174 8e-3 -4.9724 0.65184-1.4625 0.52649-2.5739 0.55992-3.0837 0.33428 2.3149-2.8163 5.6994-4.9724 8.1313-4.5963 3.0252 0.46799 6.4766-0.45963 9.5269-3.6938 1.8051-1.9304 3.1923-1.5544 5.4236 0.30085 2.0558 1.7048 3.4765 3.4765 5.2481 3.8191 1.3789 0.25907 2.5405 0.67691 3.9277 1.3789 1.2702 0.64348 1.5627 0.4262 1.638-1.0446 0.0836-1.5377-0.28414-3.8609-0.9694-5.4654 1.9555 1.3789 3.1923 7.6716 2.1477 8.8667" style="mix-blend-mode:normal"/>
  <path d="m288.7 296.94c0.46799 3.301-0.58498 8.7915-2.6658 12.209-0.90255-0.71033-1.6797-1.195-2.6074-1.6045 2.5656-3.5768 3.6018-8.2483 3.7105-12.861 0.58498 0.91926 1.053 1.5878 1.5627 2.2564" style="mix-blend-mode:normal"/>
  <path d="m274.02 320.91c2.2731-8.9335 8.6243-11.148 12.243-9.2511 2.0809 1.0948 5.8331 1.4374 8.6076 0.47635 1.17-0.40949 1.9639-0.45963 2.975-0.20057 3.443 0.89419 9.3096 4.6297 9.8946 4.2453 0.49306-0.33428-0.86911-4.7969-4.7133-9.8194 3.8442 2.3566 8.5157 11.349 7.2454 12.293-0.76884 0.57663-7.9056-2.7411-10.304-3.3177-3.3428-0.0669-11.758 0.1755-15.577 0.70198-4.1701 1.5544-8.8332 5.4069-10.371 4.8721" style="mix-blend-mode:normal"/>
  <path d="m307.17 310.87c6.017-1.5627 13.221 1.4875 18.745 6.6354-1.4123 1.0446-8.8165-3.4932-16.179-2.2814-0.63512-1.5042-1.6463-3.1422-2.5656-4.354" style="mix-blend-mode:normal"/>
  <path d="m330.7 137.97c4.1617 2.6909 5.6827 6.9697 6.1507 7.1368 0.59334 0.20057 3.418-1.1616 4.1785-2.1895 1.078-1.4625 2.2229-4.6381 1.638-7.5714 1.8385 2.7745 1.5042 7.8555-0.47634 9.4851-1.0697 0.88583-6.0253 3.0085-6.4432 2.7411-0.41784-0.25907-3.0586-7.3959-5.0476-9.6021" style="mix-blend-mode:normal"/>
 </g>
 <g>
  <path transform="matrix(8.3567,0,0,-8.3567,239.21,67.281)" d="m0 0c0.208-0.02 0.453-0.048 0.719-0.119 0-0.109 3e-3 -0.286 0.03-0.46-0.269 0.238-0.749 0.412-0.749 0.579" opacity=".137" style="mix-blend-mode:normal"/>
  <path transform="matrix(8.3567,0,0,-8.3567,222.54,77.748)" d="m0 0c0.252-0.453 1.131-1.036 1.993-1.012-0.205-0.129-0.395-0.289-0.566-0.466-1.022 0.34-1.584 1.332-1.427 1.478" opacity=".137" style="mix-blend-mode:normal"/>
  <path transform="matrix(8.3567,0,0,-8.3567,220.97,89.469)" d="m0 0c0.082-0.473 0.385-0.933 0.79-1.179-0.075-0.136-0.139-0.282-0.201-0.429-0.688 0.341-0.753 1.366-0.589 1.608" opacity=".137" style="mix-blend-mode:normal"/>
  <path transform="matrix(8.3567,0,0,-8.3567,197.03,129.39)" d="m0 0c-0.753 0.048-1.572 1.015-1.384 1.271 0.212-0.255 0.776-0.626 1.319-0.747 0.274-0.06 0.355-0.406 0.065-0.524" opacity=".137" style="mix-blend-mode:normal"/>
  <path transform="matrix(8.3567,0,0,-8.3567,179.48,132.53)" d="m0 0c0.225-0.125 0.759-0.21 1.189-0.123-0.136-0.096-0.323-0.264-0.418-0.425-0.367 0.012-0.851 0.358-0.771 0.548" opacity=".137" style="mix-blend-mode:normal"/>
  <path transform="matrix(8.3567,0,0,-8.3567,286.53,74.175)" d="m0 0c-0.58 0.345-1.761 1.302-2.174 1.733 0.274-0.471 0.819-1.129 1.421-1.627 0.304-0.252 0.213-0.585-0.077-0.553 0.141-0.124 0.348-0.328 0.494-0.482 0.189-0.201 0.533-0.719 1.013-1.41-0.185 0.493-0.549 1.809-0.677 2.339" opacity=".137" style="mix-blend-mode:normal"/>
 </g>
 <g fill="#c7e7e9">
  <path d="m250.38 63.299c1.7215 1.0697 4.471 4.0949 6.8694 7.3959 7.1786 2.9333 12.276 6.6939 15.527 7.7469-0.19221-1.3037-3.3595-6.1925-5.1813-7.9474-4.4877-2.1394-15.143-6.836-17.215-7.1953"/>
  <path d="m302.29 31.851c-3.1255 3.0837-7.4042 7.7134-10.705 11.507-0.86076 0.99447-0.46799 1.2201 0.46799 1.2452 1.6714 0.05014 3.0837-0.51813 4.1701-2.1477 2.2146-3.3177 4.4041-6.3095 7.2956-9.8946 1.3789-1.7215 0.39277-2.3065-1.2285-0.71034"/>
  <path d="m356.01 113.93c0.9694 1.2118 2.6408 2.8831 4.2537 4.3372 2.1143 0.55156 3.5684 1.0613 4.9306 1.9221 1.3455 0.24235 3.2676 0.76884 5.0726 1.8051-0.55156-1.0363-1.5126-2.95-2.2062-3.418-2.0474-1.3622-10.463-4.7384-12.051-4.6464"/>
  <path d="m339.81 111.76c8e-3 1.5544-0.4262 2.0642-1.6881 2.833-1.8887 1.1616-1.7967 2.8497-3.9277 5.0476-1.3037 1.3371-0.58499 1.638 0.64348 0.68527 2.5321-1.9555 2.8915-3.769 4.262-4.5462 1.2034-0.67691 1.5627-0.64348 2.4402-0.29249-0.81898-1.4708-1.3705-2.3734-1.7299-3.7272"/>
 </g>
 <path transform="matrix(8.3567,0,0,-8.3567,295.68,100.19)" d="m0 0c0.387-0.042 1.031-0.179 1.541-0.347 0.456-0.356 0.852-0.656 1.184-0.993 0.435-0.442 0.147-0.735-0.377-0.779-0.216 0.377-0.669 1.07-0.848 1.212-0.286 0.227-1.12 0.705-1.5 0.907" opacity=".137" style="mix-blend-mode:normal"/>
 <path d="m58.887 94.43c-42.227 13.271-55.782 12.494-58.34 6.3429 0 0.0752-0.01671 0.15042-0.0084 0.21728 0.47634 7.3959 15.226 8.5324 59.192-5.0058 27.386-8.4321 60.98-1.6296 70.39 15.92-10.279-21.11-45.278-25.631-71.234-17.474" fill="#dcdddd" style="mix-blend-mode:normal"/>
 <g fill="#0f141b">
  <path d="m322.67 131.09c-3.5015-1.9973-7.8304-3.6603-14.574-5.1061l3.209-0.34263c3.7773 0.88583 8.6996 2.5405 12.987 5.2732z"/>
  <path d="m300.32 126.35c-2.7494-0.35099-3.6436-0.47634-4.7634-1.4875-4.8052-4.3539-8.7664-7.3123-13.062-9.7525-0.36771-0.21728-0.51813-0.3677-0.66856-0.71869-1.7215-4.0531-4.1952-10.463-6.0671-14.758-2.5238-2.1979-6.4265-5.2816-9.5102-8.0644-4.7133-1.8552-11.817-4.8303-13.872-6.2343-2.1979-1.5042-5.5991-5.6242-6.3596-7.5881-0.9109-2.3483-1.546-6.5769-1.3956-9.3681 0.0251-0.45963 0.0919-0.58498 0.37606-0.94433 1.078-1.404 2.131-2.7745 2.9166-3.769 0.78555-0.97776 2.3232-1.2285 4.613-0.34263 7.1452 2.7578 18.953 8.0811 22.923 10.613 2.9333 1.8636 7.8555 6.5685 9.3764 8.4655 3.5016 4.3456 9.0004 13.053 11.558 17.641 4.6297 2.4402 9.6856 5.1646 12.209 7.2705 1.4541 1.2118 4.3038 5.432 6.4766 9.435 0.68527 1.2786 0.117 1.6129-0.67691 0.40113-2.4736-3.7439-5.315-7.68-6.7273-8.875-2.2313-1.8887-6.7357-4.5462-11.533-7.1117-0.46799-0.25071-0.51813-0.29249-0.75212-0.70198-2.7996-4.8971-8.1563-13.087-11.574-17.332-1.4959-1.8636-6.2259-6.2593-9.109-8.0895-3.9445-2.5154-15.535-7.9641-22.539-10.78-1.7633-0.71034-2.9249-0.52648-3.418 0.08357-0.8524 1.053-1.8051 2.365-2.9667 3.9779-0.20056 2.5321 0.43456 6.602 1.3622 8.992 0.63512 1.638 3.9194 5.666 5.9835 7.0699 2.2062 1.5126 8.6745 4.0949 13.421 5.9083 0.33427 0.12535 0.4262 0.1755 0.71869 0.45127 2.8915 2.6659 6.6187 5.6158 9.2678 7.8555 0.29249 0.24235 0.39278 0.38442 0.56827 0.76884 2.0725 4.6966 4.5378 10.922 6.1256 14.466 4.4459 2.6324 8.2984 5.5824 13.204 10.095 0.75212 0.69362 1.78 1.0195 4.0531 1.2368 3.4681 0.33428 7.3039 0.37606 12.602-0.0418 1.7132-0.13371 1.78 0.6017 0.0752 0.82734-5.1896 0.67691-9.577 0.81062-12.836 0.40113"/>
  <path d="m256.35 81.602c2.014-0.9109 2.9333-1.6045 3.4848-2.5321 0.70198-1.1616 1.429-0.68527 0.78555 0.50977-0.59334 1.0948-1.7884 1.897-3.9612 2.7411-1.2034 0.47634-1.6129-0.13371-0.30921-0.71869"/>
  <path d="m259.77 75.623c-0.73541-1.7215-1.6296-3.2926-3.418-5.5908-0.8524-1.0948-0.31756-1.5377 0.59335-0.50141 1.9054 2.1812 3.0085 4.0197 3.6938 5.7663 0.50977 1.2953-0.34263 1.5627-0.86912 0.32592"/>
  <path d="m271.51 78.449c-1.8218-0.70198-3.7021-1.663-5.3902-2.7828-1.053-0.71034-0.53484-1.4457 0.52649-0.75212 1.6714 1.0864 3.4765 2.0307 5.1896 2.8246 1.5126 0.69362 1.1031 1.2619-0.32592 0.71034"/>
  <path d="m277.13 82.561c-1.2452-0.80226-0.91926-1.4123 0.39277-0.71869 1.9304 1.0112 3.677 2.1728 5.3651 3.6269 0.28413 0.24235 0.34263 0.34263 0.50977 0.76884 1.8302 4.5963 5.2481 11.173 7.9641 15.477 0.78555 1.2535 0.1755 1.6045-0.63512 0.44292-3.0503-4.379-6.5184-10.789-8.616-15.736-1.4625-1.4207-2.7828-2.4486-4.9807-3.8609"/>
  <path d="m308.44 119.76c-1.7299-3.6938-4.4041-8.6494-5.3066-9.6355-1.0112-1.078-5.3568-3.2258-8.5575-4.3456-1.4959-0.52648-1.3037-1.2368 0.20892-0.77719 3.2676 0.98612 7.9474 2.9667 9.2427 4.3122 1.1867 1.2368 3.6185 6.3095 5.1479 10.104 0.52648 1.2953-0.15878 1.5711-0.73541 0.34263"/>
  <path d="m331.59 114.06c-1.0195-0.0919-1.9054 0.10864-2.8079 0.64348-0.95269 0.56827-1.2452 0.13371-0.41785-0.61841 0.78555-0.71869 2.0725-1.1198 3.4932-1.053 2.6826-1.2034 6.3011-2.7411 8.758-3.2926 1.9054-0.41785 4.1701 3.4347 3.3595 5.5741-0.99447 2.5906-4.5378 7.3708-6.4682 8.733-1.546 1.0948-3.1756 1.9889-5.1813 2.833-1.3872 0.58499-1.755 0.0502-0.30085-0.69362 1.8218-0.93597 3.3846-1.9388 4.8386-3.0085 1.7884-1.3204 5.0726-5.8081 6.0086-8.265 0.54319-1.429-1.287-4.1868-1.989-4.0197-2.3065 0.50977-5.7078 1.9054-8.4572 3.0419-0.25071 0.10864-0.5432 0.15042-0.83569 0.12535"/>
  <path d="m341.04 110.59c-0.67691 0.32592-0.40949 2.248 0.70198 4.0782 0.6602 1.078 0.0752 1.3538-0.63512 0.38442-1.1783-1.6212-1.638-3.5768-1.2285-4.5294z"/>
  <path d="m326.9 124.48c-1.1115-0.82733-2.1226-2.3901-2.3316-3.535-0.19221-1.1031 0.25071-2.5656 1.2034-3.6854 0.82733-0.97776 1.3037-0.62677 0.61005 0.45127-0.75212 1.17-0.95269 2.2146-0.7939 3.0586 0.14206 0.79391 0.78554 2.2313 1.7884 3.1255 1.1031 0.9694 0.61841 1.3956-0.47634 0.58498"/>
  <path d="m322.69 113.89c-1.663-2.2814-5.5573-5.3735-13.68-10.154-1.3037-0.76884-0.94433-1.4123 0.37606-0.67691 8.3569 4.6799 12.602 7.6382 14.081 10.329 0.81898 1.4875 0.18385 1.8218-0.77719 0.50141"/>
  <path d="m291.29 92.849c-2.6324-8.0895-7.5881-26.274-9.7107-35.358-0.82733-3.535-0.50977-5.3568 1.1616-7.3959 5.5574-6.7607 12.544-14.031 17.474-19.129 2.0307-2.0976 4.6799-2.4904 6.6103-1.1031 6.2844 4.5044 29.124 23.734 31.74 28.221 2.6157 4.4877 11.148 36.879 10.889 43.038-0.10864 2.482-2.4736 6.9864-6.1507 11.917l-0.53485-1.1449c3.2007-4.4375 5.3401-8.8082 5.4153-10.856 0.19221-5.5991-8.1229-37.932-10.797-42.319-2.599-4.2787-25.012-23.533-31.18-28.054-1.4207-1.0446-3.56-0.72705-5.2816 1.0697-4.9055 5.1228-11.675 12.443-17.215 19.187-1.1198 1.3622-1.6129 2.8413-0.82733 6.251 1.9973 8.6828 6.9864 26.901 10.571 38.55z"/>
  <path d="m304.77 58.739c3.4598-5.9835 5.8415-9.0255 7.3374-9.4767 1.2619-0.37606 1.4541 0.20057 0.2507 0.73541-1.2619 0.56827-3.1004 3.3344-6.485 9.4015 1.7382 6.6521 5.3066 20.048 6.8694 26.7 4.1367 4.613 10.304 10.822 15.544 15.811 1.2535 1.195 0.71034 1.663-0.53484 0.59334-5.3568-4.6297-11.758-10.889-15.845-15.41-0.25071-0.28414-0.30085-0.41784-0.39278-0.79391-1.6463-6.6103-5.1311-19.923-6.8777-26.6-0.117-0.46799-0.0669-0.61005 0.13371-0.96104"/>
  <path d="m325.35 99.673c2.4319-2.7745 5.1228-7.3792 5.2816-8.758 0.24235-2.1143-5.9083-24.218-7.2371-26.048-1.2368-1.7048-8.0978-8.3903-11.633-11.65-0.67691-0.62677-1.5795-0.73541-2.5322-0.44292l0.68527-1.1533c0.92762-0.12535 1.7967 0.08357 2.5739 0.78555 3.4598 3.1422 10.638 9.9531 11.909 11.691 1.429 1.9722 7.7301 24.711 7.4711 27.001-0.18385 1.663-3.2174 6.4515-5.7746 9.3096z"/>
  <path d="m297.63 42.461c3.9695-5.6075 6.7774-8.1396 9.109-8.0226 1.4207 0.07521 1.3872 0.86912-0.0251 0.9109-1.8302 0.04179-4.3205 2.1143-8.4823 7.5714-1.0028 1.3204-1.6045 0.95269-0.6017-0.45963"/>
  <path d="m299.53 69.346c0.50141-5.549 1.312-11.006 2.2814-16.43 0.28413-1.6129 1.0362-1.4708 0.76883 0.15042-0.88583 5.4069-1.5794 10.906-2.1394 16.396-0.18385 1.7633-1.0697 1.663-0.9109-0.117"/>
  <path d="m314.75 95.256c-2.95-2.4987-6.1674-5.4487-9.4433-9.0756-0.29249-0.32592-0.45963-0.61841-0.60169-1.0446-1.6045-4.9222-1.2201-9.7024-1.6129-11.975-0.25906-1.4708 0.40949-1.5962 0.75212-0.13371 0.55992 2.4068 0.34264 7.2872 2.0809 12.134 3.3678 3.7606 6.3262 6.6772 9.318 9.5269 1.4875 1.4207 0.99447 1.8302-0.49306 0.56827"/>
  <path d="m293.77 74.071c-1.1449-0.55156-2.4152-1.7215-2.9333-3.2592-1.2368-3.6603-3.2676-11.884-4.0865-15.535-0.25907-1.1449-0.66856-1.7382-1.17-2.1059-0.99447-0.71869-0.59334-1.2452 0.45127-0.6017 0.7187 0.44292 1.3538 1.2619 1.663 2.5321 0.87747 3.6436 2.9583 11.95 4.0364 15.41 0.42621 1.3622 1.3956 2.2229 2.4319 2.8998 1.1198 0.71869 0.70198 1.1867-0.39277 0.6602"/>
  <path d="m302.33 98.08c-1.1115-0.81898-1.7466-1.9973-2.1143-3.184-1.312-4.145-2.6742-11.299-3.4013-16.413-0.18385-1.287-0.41784-2.0892-0.87747-2.716-0.71034-0.98612-0.25907-1.3538 0.57662-0.4847 0.61006 0.61841 1.0028 1.6797 1.2285 3.1004 0.81062 5.0559 2.2731 12.51 3.3678 16.263 0.34263 1.1867 0.86076 2.0725 1.6964 2.8246 1.2285 1.1031 0.76884 1.521-0.47634 0.61005"/>
  <path d="m310.36 125.86c0.80226 2.7996 2.5906 5.8415 4.4793 6.8109l-1.1198 0.37606c-1.9304-1.2953-3.5517-4.1032-4.4208-7.3123z"/>
  <path d="m319.64 128.91c0.0418 0.15042 0.0752 0.30921 0.10864 0.4847 0.22564 1.1282 0.0919 2.0057-0.0501 2.0307-0.12536 0.0251-0.63513-0.86912-0.83569-1.8887-0.0752-0.35935-0.117-0.67691-0.14207-0.95269z"/>
  <path d="m317.51 132.03c-1.0028-1.078-1.897-2.9166-2.2647-4.7384l0.98611 0.29249c0.30921 1.404 1.1115 3.1004 2.1812 4.2787z"/>
  <path d="m348.7 119.62c1.5711-0.0418 1.6045 0.67691 0.0251 0.79391-2.95 0.22564-5.9919 0.1755-8.3486-0.23399l0.6017-0.99447c1.8218 0.38442 4.8386 0.50141 7.7218 0.43456"/>
  <path d="m340.61 119.56c3.7272-2.0642 13.363-6.2844 15.611-6.2593 2.1979 0.0167 10.663 4.0865 11.934 4.8303 1.3956 0.81062 3.7439 5.8331 3.7188 7.2287-0.0334 1.5878-3.911 5.5908-6.9864 7.3959-1.6547 0.9694-2.6241 0.88583-3.794 0.24235-2.1394 8e-3 -4.4041-0.0836-7.4293-0.26742l0.76048-0.9694c2.1226 0.13371 4.2954 0.14207 6.5685 0.15042 0.32592 0 0.47634 0.0502 0.81062 0.20057 0.68527 0.32592 1.1616 0.35935 2.6157-0.46799 3.2508-1.8469 6.4515-5.3484 6.4432-6.3262-8e-3 -1.2953-2.2814-5.6827-3.2592-6.276-1.1867-0.72705-9.3764-4.4877-11.324-4.5044-1.9555-0.0251-11.499 3.9862-14.198 5.3902z"/>
  <path d="m343.58 136.72c1.8803 0.29249 2.6993 0.15042 4.4793-0.88583 2.1895-1.2786 5.7412-3.8358 9.1926-6.8694 1.1616-1.0195 1.6212-0.49306 0.51813 0.59334-3.1004 3.0837-6.8861 6.1089-9.109 7.4126-1.7633 1.0195-3.1422 1.3204-4.8052 1.0279z"/>
  <path d="m354.63 120.27c1.8218-0.73541 3.2592-1.3956 5.0392-2.3149 0.38441-0.20056 0.52648-0.19221 0.9109-0.10028 1.3956 0.31756 2.7912 0.86076 4.028 1.5627 1.3204 0.75212 1.0362 1.3789-0.32592 0.69362-1.2702-0.63512-2.6241-1.0195-3.9946-1.2368-1.8887 0.91926-3.4848 1.5377-5.4069 2.1143-1.6045 0.4847-1.9388-0.0418-0.25071-0.71869"/>
  <path d="m270.4 72.056c-1.4458-2.5405-3.1088-6.4097-4.2453-10.789-0.6017-2.2898 2.1227-2.4736 3.0336-1.5795 4.8804 4.7969 12.218 10.68 17.215 13.705l0.44292 1.8803c-6.3763-4.1534-13.196-9.6773-18.36-14.817-0.62677-0.62677-1.663-0.33428-1.3956 0.57663 1.2368 4.2871 2.9918 8.2984 5.0977 11.842z"/>
  <path d="m240.35 69.294c-2.4486-1.4625-1.9806-3.3678 0.30921-3.535 1.9388-0.15042 3.8108-0.15042 6.2844 0.0084l-0.69362 1.0195c-1.8887-0.1755-3.6436-0.20057-5.5072-0.0585-1.1783 0.08357-1.6797 0.66855 0.13372 1.7382 1.5878 0.93597 3.2592 1.9054 4.4542 2.9834l0.10864 1.638c-1.4875-1.6296-3.2258-2.6826-5.0894-3.794"/>
  <path d="m233.91 90.508c-5.5072-2.0474-9.4934-5.5072-11.817-10.789-1.0446-2.3901 0.0167-3.3177 2.4068-2.3149 6.5351 2.7494 12.385 3.5768 24.277 3.443l0.81062 1.17c-12.669 0.20892-18.928-0.79391-25.455-3.7523-1.4374-0.65184-1.8302-0.27578-1.1783 1.0697 2.3734 4.8888 6.2928 8.1981 11.934 10.229z"/>
  <path d="m225.5 103.45c-4.003-2.4653-5.8916-6.8777-5.6827-12.377 0.0836-2.1561 1.0196-2.6241 2.6826-1.6714 2.6241 1.4959 5.7746 2.6408 9.2678 3.443l-0.75212 0.86076c-3.0336-0.70198-6.3262-1.9555-8.9335-3.4932-1.0362-0.61006-1.3371-0.53484-1.3538 0.89419-0.0752 4.9724 1.7132 9.0338 5.2147 11.332z"/>
  <path d="m198.33 120.55c-3.8191 0.35935-7.6382-0.14207-11.014-1.4875-1.6212-0.64348-2.3149-0.14207-1.3705 1.4875 2.5739 4.4124 6.0922 7.2287 9.5102 8.0393 2.3483 0.55991 2.1059 1.0864-0.11699 0.78555-3.8609-0.53484-7.6466-3.7021-10.179-8.3318-1.404-2.5739 8e-3 -3.6938 2.4402-2.833 3.3678 1.1867 7.0198 1.7048 10.521 1.2034z"/>
  <path d="m185.69 137.49c-2.365-0.25906-4.0447-1.0195-5.7412-2.6074-1.9472-1.8302-1.312-3.9779 1.6212-4.145 4.5294-0.25071 8.8249-1.3622 11.282-2.6324l1.4541 0.61841c-3.4013 1.6296-8.1062 2.7745-12.711 2.9082-1.7132 0.0418-2.3232 1.3956-1.0112 2.5572 1.663 1.4792 3.3428 2.2229 5.666 2.3734z"/>
  <path d="m182.83 142.08c0.9694-3.3846 3.1171-6.4515 5.5991-8.29 1.4207-1.053 1.8803-0.42621 0.50142 0.68526-2.0474 1.6547-3.3428 3.5851-4.3122 6.1006z"/>
  <path d="m223.22 108.56c3.1589-11.975 12.017-24.561 26.048-27.118l0.91926 1.0948c-13.68 2.3817-21.945 13.856-25.464 24.619z"/>
  <path d="m273 96.599c-25.012-8.2232-52.548 7.0449-53.743 22.881-0.12535 1.6463-0.83569 1.5962-0.7939-0.0585 0.40949-16.572 28.037-31.673 52.832-24.511z"/>
  <path d="m219.15 116.99c-5.9418-0.6017-13.321-9.2762-15.995-17.173-0.33428-0.98612-0.94433-1.2368-1.9555 0.14207-7.0031 9.4851-3.092 42.771 22.02 41.751 11.407-0.45963 18.36-5.5908 30.01-17.073 8.1731-8.0561 18.979-13.496 28.004-13.538l0.53484 1.2619c-9.1174 0.0418-20.148 5.7161-27.603 13.179-11.716 11.708-18.335 17.14-30.87 17.65-26.45 1.0948-30.703-33.653-22.831-43.757 1.4875-1.9137 2.9333-1.638 3.5433 0.10864 2.599 7.3875 10.22 15.953 15.444 16.237z"/>
  <path d="m296.83 126.93c-12.652 2.5321-29.358 14.24-39.52 24.728-1.429 1.4708-1.9806 1.0363-0.55991-0.55991 9.9196-11.165 26.801-23.182 41.049-25.631z"/>
  <path d="m258.21 198.71c1.0446-0.21728 1.8218-0.45127 2.8831-0.88583 1.3204-0.53484 1.6463 0.40113 0.30921 0.90254-1.0112 0.38442-2.0642 0.61842-3.0837 0.74377-1.3037 0.15878-1.5544-0.45963-0.10864-0.76048"/>
  <path d="m298.97 125.53c-16.931 15.962-19.112 24.427-19.179 35.525-0.117 19.304-6.251 29.508-13.338 34.74-1.2702 0.93598-1.7884 0.37606-0.4847-0.67691 6.6939-5.4403 12.276-16.806 12.385-34.029 0.0752-12.711 3.2676-20.834 19.313-35.809z"/>
  <path d="m176.59 152.07c2.9082-11.106 14.524-20.474 28.322-17.55l1.1115 1.6881c-13.388-3.3093-24.628 4.9473-28.146 15.327z"/>
  <path d="m197.78 182.47c-2.4402-1.4541-4.6548-3.2425-6.5769-5.3234-9.0422-9.8026-18.026-12.686-24.686-11.533-3.9445 0.68526-4.3623-0.85241-3.1673-3.0503 8.0644-14.842 43.715-24.611 63.003-4.6548 1.1449 1.1783 0.63512 1.6964-0.5432 0.55991-19.522-18.761-53.752-8.9001-61.49 4.7049-0.83569 1.4708-0.61005 1.9388 2.0057 1.3789 6.9613-1.4792 16.037 1.3204 25.806 11.741 2.3817 2.5489 5.2816 4.6464 8.524 6.2092z"/>
  <path d="m208.87 185.13c13.187 2.3232 29.049-3.2843 39.695-21.176 1.078-1.8134 1.663-1.4708 0.67691 0.39278-9.3848 17.817-25.271 24.26-39.052 22.413z"/>
  <path d="m167.44 164.97c2.7327 3.8692 5.7245 3.6687 7.6215 0.55156l1.3956 0.49305c-2.4653 4.1367-6.7691 4.7467-10.647-0.86076z"/>
  <path d="m164.14 162.19c-2.6742-6.0253-2.833-15.017-0.20057-19.772 1.2368-2.2229 2.7661-2.1143 3.3595 0.66019 1.0279 4.847 2.9416 9.0255 5.1646 11.265l-0.98612 0.63513c-2.3232-2.3065-4.2704-6.7273-5.198-11.741-0.3092-1.6881-0.76048-1.5293-1.3956-0.27578-2.014 3.9695-2.2731 11.75 0.20892 17.834z"/>
  <path d="m159.9 182.43c-1.6296-1.9639-2.95-4.003-3.9946-6.134l1.6463-0.10028c1.0363 2.014 2.3316 3.9361 3.9194 5.783z"/>
  <path d="m172.48 191.05c6.368 3.6938 12.41 4.2453 18.068 2.0224l1.755 0.77719c-6.9446 3.1673-13.923 2.6575-21.628-2.131z"/>
  <path d="m154.43 172.71c-2.8748-8.5993-1.9722-18.853 0.76048-32.45 0.72705-3.5935 2.8664-3.4848 3.6269 0.12535 0.83569 4.0197 2.1227 7.1702 3.9445 9.6773l-0.12535 2.1477c-2.5656-3.3344-4.1032-7.1535-4.8971-11.566-0.40949-2.2564-1.078-2.4402-1.4792-0.17549-2.3399 13.12-3.1088 22.898-0.62677 31.004z"/>
  <path d="m219.85 185.91c-5.1311 21.385-26.792 26.324-39.361 22.371-1.3622-0.4262-1.897-0.0585-1.0363 1.2452 6.134 9.3514 21.235 15.669 32.709 13.12l-1.0446 1.3872c-11.967 2.3149-26.684-4.003-32.659-13.898-1.5377-2.5489-0.15878-3.6854 2.3065-2.9834 11.817 3.3846 32.024-0.73541 37.656-21.118z"/>
  <path d="m296.99 164.12c17.407 31.146 8.031 52.649-19.463 60.387-10.438 2.9333-26.901 7.4794-34.581 10.137-18.527 6.4098-27.92 16.597-28.23 27.319-0.0836 2.8915-1.5627 3.5684-3.677 1.6547-8.0561-7.3039-7.7803-31.614 0.81062-41.225 1.1031-1.2368 1.638-0.75212 0.6017 0.5432-7.5714 9.4266-8.0895 32.592-0.69363 39.963 1.3204 1.3204 1.9555 0.95269 1.9555-0.94433 0.0167-11.725 10.02-22.029 28.764-28.522 7.7051-2.6575 24.143-7.4376 34.581-10.379 24.636-6.9279 35.993-26.333 18.778-58.039z"/>
  <path d="m324.45 155.83c-2.5154 7.0699-2.6491 13.129-0.79391 18.544 0.68527 1.9973 0.12536 2.2062-0.76047 0.34263-2.4653-5.1729-2.4402-12.026 0.10863-18.694z"/>
  <path d="m295.31 214.44c8.4321 4.8136 18.811 3.2508 27.043-6.5435 9.0255-10.73 7.446-21.786 3.0837-28.589-1.0279-1.6045-0.4847-1.989 0.6602-0.46799 5.0058 6.6772 7.0699 18.636-2.6074 30.152-8.9001 10.588-20.633 11.942-29.107 6.2677z"/>
  <path d="m328.07 183.48c14.299-11.215 18.343-24.778 10.948-35.183l0.95269-0.65184c7.8973 9.7943 4.8888 24.778-11.374 37.029z"/>
  <path d="m259.23 229.13c-14.115 7.3792-20.959 16.747-20.917 21.728 0.0251 2.2396-1.1783 2.6826-2.95 1.0948-2.5739-2.3065-5.1311-7.2037-5.0141-12.393l1.2452-0.67691c-0.18385 5.3234 2.1394 9.8528 4.5127 12.285 0.8524 0.87747 1.078 0.75212 1.053-0.33428-0.13371-5.3234 6.3763-13.931 18.251-20.951z"/>
  <path d="m176.25 176.78c2.0892-1.3956 4.0782-1.1115 6.1758 1.5627 0.69362 0.87748 1.8302 1.5962 3.3344 1.9806 5.3986 1.3872 10.087 1.7466 17.499 1.7132 3.2425-0.0167 5.2314 1.3789 8.2483 5.8582 0.94433 1.404 0.33428 1.7633-0.64348 0.47634-3.1088-4.1032-5.0225-5.1395-7.5797-5.1646-7.3457-0.0668-12.243-0.52648-17.742-1.9054-1.8385-0.45963-2.9834-1.078-3.9528-2.3149-1.4457-1.8385-2.8915-2.2647-4.2119-1.6212z"/>
  <path d="m165.7 180.98c-1.6797-0.91926-3.1338-2.3399-4.3874-4.2787-2.716-0.27577-5.3066-0.0836-7.7134 0.67691-1.2702 0.39278-1.4457 0.234-1.3037-0.94433 0.51813-4.2453 3.9194-7.1786 9.6355-7.7552 3.1171-0.31756 5.7412 1.1365 7.7719 4.5712 0.61005 1.0279 2.1394 1.9388 6.1005 2.9249 1.8719 0.46798 2.8581 1.2535 3.4681 2.7411 0.45963 1.1198-0.0919 1.4123-0.67691 0.35935-0.64348-1.1532-1.3705-1.7132-3.0336-2.131-4.0865-1.0195-5.8498-1.755-6.7942-3.3511-1.6463-2.7828-3.9445-4.2286-6.7357-3.9445-5.0309 0.50977-8.3068 3.2592-8.7497 6.6187 1.9472-0.66855 4.9389-1.078 8.1229-0.76884 0.44292 0.0418 0.52648 0.10029 0.79391 0.50142 1.1616 1.7633 2.3399 3.0503 3.9027 4.1283 1.312 0.9109 0.89419 1.3622-0.40113 0.65184"/>
  <path d="m165.3 180.27c-1.6965 1.429-3.7606 2.6909-6.276 3.0085-1.287 0.15878-1.9388 0.59334-2.8413 1.7048-2.0809 2.5572-4.028 6.7022-4.0447 10.195 2.5489-1.3287 5.3401-3.4263 8.4405-6.393 0.35099-0.34263 0.49306-0.37606 1.1449-0.34263 1.6797 0.0919 3.3929 8e-3 4.7217-0.14207 1.8218-0.20057 1.9722 0.53484 0.18385 0.90254-1.4541 0.2925-3.4765 0.50142-5.1813 0.50978-2.8831 2.7661-5.8833 4.9055-8.7915 6.3429-1.3287 0.6602-1.5377 0.51813-1.5711-0.76048-0.13371-4.2035 1.9722-8.4405 4.1032-11.065 1.0864-1.3455 1.9806-1.8302 3.7021-2.0474 2.0642-0.25906 4.0782-1.3956 5.5657-2.6324z"/>
  <path d="m170.67 192.46c-1.053 0.40113-2.1561 3.7021-1.3956 11.725 0.10028 1.0613-0.15878 1.2368-1.2201 0.80227-3.0168-1.2285-5.925-4.0949-6.2593-7.7051-0.25906-2.7494 0.35099-5.9418 1.5042-8.3151l1.2034-0.0167c-1.17 2.2647-1.7215 5.4404-1.4708 8.2148 0.28414 3.0085 2.7912 5.7412 5.198 6.7524-0.76884-7.5129-0.10864-11.884 1.9137-12.627 6.2844-2.3232 7.9558-3.092 8.6076-5.1646 0.3677-1.1532 1.0195-0.97775 0.76884 0.20893-0.50142 2.4235-2.3984 3.6436-8.85 6.1256"/>
  <path d="m212.19 199.49c-3.3929 1.521-6.6103 1.312-9.8946-0.44292-7.4376-3.9695-15.586-6.5518-20.993-9.5854-1.3705-0.76048-2.3149-1.078-3.5517-1.0028l0.79391-1.0112c0.94433 0.0585 1.8887 0.34263 3.2174 1.078 5.3317 2.9751 13.747 5.6326 21.227 9.4266 3.5768 1.8134 6.6187 1.7299 10.279-0.41785z"/>
  <path d="m187.54 123.78c-0.0334 2.3316 0.12535 4.5211 0.56827 6.5017l-1.2786 0.25906c-0.69362-2.6742-0.82733-5.6075-0.65184-8.7079z"/>
  <path d="m186.48 118.37c0.31756-2.7912 0.80226-5.6911 1.2786-8.641 2.5405-15.769-2.5656-33.369-17.215-53.559-23.8-32.809-20.892-53.25-13.087-55.908 10.438-3.5517 34.38 30.344 37.364 53.066 0.4262 3.2676-1.7215 3.1422-2.4235 0.63512-6.0671-21.745-27.277-48.93-32.199-46.74-2.5405 1.1282 0.39278 27.01 17.692 42.37 22.33 19.823 30.62 36.16 29.207 56.844l-1.2368-1.7132c0.94433-19.096-6.6939-34.648-28.815-54.169-16.898-14.909-21.327-42.478-17.341-44.267 6.51-2.9333 27.628 26.124 33.586 47.459 0.40949 1.4792 0.85241 1.429 0.61006-0.30085-3.2174-23.065-27.177-55.281-36.119-52.206-6.2259 2.1394-10.505 20.825 13.831 54.22 15.051 20.642 20.082 38.308 17.466 54.537-0.4847 2.9918-0.93597 5.9418-1.2201 8.758z"/>
  <path d="m162.41 195.31c-5.5824 2.8664-11.758 5.2565-14.349 5.1813-1.7466-0.0501-4.2286-0.90254-5.7746-2.3232-1.2034-1.1031-0.8524-1.5962 0.50977-0.70198 1.6797 1.0948 3.6353 1.7466 5.2565 1.78 2.2898 0.0334 8.1981-2.3566 14.474-5.7245z"/>
  <path d="m151.47 199.27c-16.455-3.1088-18.995-25.931-7.1702-46.197 13.43-23.007 7.9641-42.654-4.3456-52.59-17.951-14.491-51.194-17.433-81.346-7.1284-34.807 11.9-54.579 12.519-55.014 7.1201-0.18385-2.3483 3.8692-4.3874 8.7915-4.8136 1.1365-0.10028 1.1783-0.45127-0.01671-0.50977-7.2287-0.32592-11.499 2.8831-11.315 5.8081 0.40113 6.0588 11.349 8.8416 58.498-5.6075 19.396-5.9418 55.741-5.5323 69.103 13.221 6.276 8.8165 3.769 25.714-6.276 39.57-37.548 51.746 10.981 96.138 64.407 75.546l-0.66855 1.9221c-54.612 20.433-103.46-25.48-64.983-78.522 9.8695-13.605 11.892-29.726 6.2593-37.64-12.652-17.767-47.793-18.853-67.515-12.811-45.846 14.056-59.393 11.775-59.869 4.3874-0.24235-3.7105 4.8971-7.0699 12.377-6.744 2.4736 0.10864 2.4068 2.0391 0.05014 2.2397-5.3234 0.45127-7.9307 2.4319-7.8137 3.8943 0.31756 3.9946 18.435 3.9695 53.543-8.3235 30.11-10.538 64.29-7.7134 82.8 7.2371 12.644 10.204 18.31 31.071 4.6297 54.504-12.176 20.859-8.3068 42.436 8.2733 44.509z"/>
  <path d="m103.64 86.873c0.0501-1.5878 0.5432-2.3399 1.3956-2.4653 0.86076-0.117 2.8664 1.2786 4.5879 3.1088l-1.5126-0.12535c-1.3371-1.2702-2.4987-1.9555-2.9166-1.9221-0.25071 0.01671-0.55156 0.43456-0.53484 1.4792z"/>
  <path d="m120.61 89.934c-0.76884-1.663-2.2397-3.1338-2.5823-3.0921-0.25906 0.02507-0.64348 0.6602-0.73541 2.1644l-1.053-0.3092c0.16714-1.2034 0.71034-2.8581 1.5962-2.9918 1.0112-0.16714 3.0503 2.2647 4.12 4.5545z"/>
  <path d="m133.59 95.314c-1.078-2.3984-2.5656-4.5462-3.067-4.5629-0.5432-0.0084-1.2702 0.71869-1.8636 2.0558l-0.93597-0.44292c0.61841-1.5795 1.8134-2.7745 2.7996-2.8246 1.0363-0.04179 3.067 3.0336 4.3874 6.4348z"/>
  <path d="m189.16 219.15c-1.7633 6.0755-3.5266 9.2762-7.7552 15.268-6.6688 9.4517-10.914 17.984-12.611 22.229-0.93597 2.3483-1.4875 5.4403-1.521 9.7191-8e-3 1.5878-0.62677 1.5878-0.76048 8e-3 -0.31756-4.0698-0.0167-7.7719 0.92762-10.212 1.7132-4.4041 6.159-12.97 12.853-22.472 4.2453-6.017 6.0337-9.4517 7.7469-15.31z"/>
  <path d="m191.23 208.61c1.3789-3.3511 2.8748-5.9083 4.6464-7.9307 1.1533-1.3204 1.755-0.81897 0.71034 0.58499-1.4708 1.9722-2.7912 4.3372-4.028 7.3457z"/>
  <path d="m206.52 252.55c-2.5489 3.1756-7.9976 8.8667-13.613 12.936-3.56 2.5823-16.547 5.7328-21.193 6.1507-1.8134 0.15878-1.9889-0.50142-0.0251-0.80227 4.6882-0.71869 17.232-4.2286 20.499-6.5184 5.4571-3.8108 10.48-9.0672 14.123-13.321z"/>
  <path d="m167 264.26c-3.3428 7.5881-10.697 20.516-14.382 24.762-3.2926 3.8108-9.4015 9.0756-16.655 13.881l-1.638-0.0836c8.2148-5.5323 14.073-10.864 17.332-14.65 3.5266-4.1032 10.814-16.914 15.285-26.725z"/>
  <path d="m174.86 300.62c-1.1449-2.833-2.2647-8.4656-1.7215-13.137 0.52648-4.5127 3.4013-12.017 8.5909-18.577l2.131-0.56827c-5.6242 6.8694-8.8834 15.335-9.3514 19.371-0.55156 4.73 0.31756 10.998 2.2647 15.226z"/>
  <path d="m163.43 304.34c-3.886-3.7355-6.1925-8.758-5.9501-14.282 0.0669-1.521 0.82733-1.521 0.79391 0-0.117 5.4821 2.3984 10.404 6.4348 13.981z"/>
  <path d="m168.71 306.88c3.7606 2.0976 8.2399 3.2592 12.92 3.1171 1.3455-0.0418 1.6296-0.71034 0.34263-1.4792-3.4347-2.0391-8.2316-6.9446-9.7692-13.221-0.45127-1.8385 0.22564-2.0307 0.76884-0.20893 1.8218 6.1674 6.2259 10.546 9.4934 12.652 2.1644 1.3956 1.5293 3.067-0.80226 3.1756-4.5211 0.20056-8.8082-0.75213-12.469-2.5572z"/>
  <path d="m183.16 309.88c-6.6605-1.9054-12.276-6.7022-15.143-13.187-0.62677-1.4123-0.117-1.663 0.6017-0.30085 3.1589 6.0588 8.3151 10.505 14.441 12.402z"/>
  <path d="m137.04 309.35c-5.2983-0.59334-11.056 1.0446-11.833 0.23399-1.0363-1.078 4.8386-7.9558 9.0004-7.3206 1.4457 0.234 2.716 0.12536 5.1311-0.61841 3.3845-1.0279 13.304-6.744 18.502-11.491l0.0251 1.2118c-5.0559 4.5378-14.441 10.087-18.26 11.324-2.6491 0.86077-3.9194 0.88584-5.5406 0.66856-3.8358-0.51813-8.3402 5.2648-8.0728 5.6075 0.23399 0.29249 6.134-1.0112 11.867-0.6017z"/>
  <path d="m143.67 304.96c2.6742-2.0224 4.1701-3.8442 5.6911-6.3512 0.81062-1.3288 1.3705-1.0279 0.66855 0.35935-1.3789 2.7076-3.0837 4.6966-5.1061 6.3262z"/>
  <path d="m155.76 308.75c-1.7215 8e-3 -4.1283 3.4681-7.7719 4.7802-2.0391 0.72705-3.1673 0.85241-5.5323 0.61841-1.78-0.18385-3.0168-0.0919-4.7885 0.55156-2.1728 0.78555-3.443 0.59334-3.8943-8e-3 -0.63512-0.84405 0.83569-4.2286 5.4738-8.5324 1.9639-1.8302 4.847-2.2062 6.744-0.82734 1.1616 0.85241 0.86912 1.3538-0.39277 0.6602-1.7717-0.99447-3.8609-0.55156-5.6075 1.0613-5.0643 4.7133-5.4988 6.861-5.3735 7.0699 0.19221 0.25071 1.0613 0.30085 2.7578-0.34263 1.9137-0.72705 3.2759-0.9109 5.1729-0.7187 2.1227 0.20893 3.2258 0.117 5.0726-0.58498 3.3678-1.2702 6.0838-4.7551 8.1647-4.7049 2.3901 0.0501 4.1116 3.9695 6.5184 4.2119 3.9862 0.40114 6.2928 2.0976 6.9446 1.7299 0.57663-0.32592 0.0669-6.9112-2.9667-8.5825-1.0948-0.6017-2.2313-0.57663-4.028 0.20892-1.3872 0.6017-1.5962 0.0836-0.31756-0.72705 1.6129-1.0279 3.6018-1.2452 4.9055-0.51813 3.4932 1.9137 4.2119 9.8277 2.9416 10.496-1.1198 0.6017-3.5266-1.1532-7.6382-1.5293-2.8748-0.25906-4.6715-4.3205-6.3847-4.3122"/>
  <path d="m256.58 316.43c-3.4598 0.0418-4.1868-2.1561-2.1394-3.8943 4.1617-3.5266 6.836-5.7579 10.705-11.95 4.4375-7.1117 3.3929-15.861-4.8888-32.6-1.5711-3.1673-1.4458-6.8276 1.1532-15.527 0.99447-3.301-2.0474-7.5714-4.5127-9.6773-1.897-1.6296-7.5379-3.5183-11.85-4.496l1.2368-1.1198c3.6102 0.77719 9.6104 2.9249 11.558 4.5879 2.6909 2.2982 6.1507 7.0365 4.9473 11.09-2.7912 9.3263-2.4736 12.26-1.312 14.608 8.4906 17.148 9.7107 25.965 4.7216 33.787-3.8275 6.0003-6.7774 8.4238-11.156 11.992-1.5126 1.2368-0.6602 2.3316 1.546 2.2982z"/>
  <path d="m273.57 316.06c-4.8972 2.0057-10.429 2.5405-15.469 1.5377-2.8163-0.56827-2.6491-2.4987-0.0919-3.1673 5.8164-1.4959 15.669-7.0867 18.494-16.873 0.43456-1.4959 1.1365-1.3037 0.76048 0.21728-2.5071 10.204-12.786 16.162-19.029 17.558-1.7382 0.39277-1.5544 1.078 0.0418 1.3705 5.2231 0.95269 10.772 0.234 15.577-1.9889z"/>
  <path d="m282.82 307.41c2.5906-3.6269 4.1032-8.2148 3.8943-13.655-0.0585-1.7382 0.67691-1.755 0.79391-0.0251 0.40948 5.6493-0.98612 10.371-3.5183 14.098z"/>
  <path d="m255.84 312.05c-1.4625 0.43456-3.2759 0.61005-4.8136 0.53484-2.1812-0.10864-2.365-1.7048-0.34263-2.8414 6.836-3.8609 15.393-10.187 17.633-17.775l0.1755 2.5906c-2.9416 6.9947-10.48 12.176-17.374 15.987-1.3037 0.71869-1.1282 1.0697-8e-3 1.1282 1.521 0.0752 3.4848-0.22564 6.1507-1.0112z"/>
  <path d="m287.09 293.8c3.2508 5.1479 7.8638 9.201 13.095 11.123l-1.78 0.35099c-4.5545-2.1394-8.6494-5.6743-11.299-9.8612z"/>
  <path d="m286.73 220.21c1.8636 2.1728 4.1534 5.8331 4.9389 8.6745 1.8218 6.627 2.3149 15.243 1.0446 18.235-1.5795 3.7355-4.2202 7.4126-7.4962 11.608-2.3065 2.9583-2.4569 6.7691-0.8524 12.009 4.8136 15.719 11.198 27.996 25.296 36.227l-1.5878 0.35099c-13.822-8.0393-20.215-20.575-24.996-36.21-1.8218-5.925-1.5711-9.8361 1.0363-13.187 3.8024-4.8637 5.7663-7.6466 7.212-11.349 1.0613-2.7244 0.67691-11.24-0.99447-17.29-0.76884-2.8079-2.8163-6.1758-4.7384-8.5491z"/>
  <path d="m280.62 244.03c-1.3288-1.3204-2.3316-2.6408-3.3511-4.4375-0.76884-1.3705-0.0334-1.7967 0.78555-0.45963 1.0613 1.7299 1.9137 3.0252 3.0921 4.3456 0.99447 1.1115 0.47634 1.5377-0.52649 0.55156"/>
  <path d="m273.82 321.38c-1.312-0.45127-1.546-9.0672 3.0503-13.287 2.248-2.0558 6.8777-1.6881 8.9586 0.46798 0.90254 0.93598 0.4847 1.3622-0.55156 0.57663-2.0558-1.5711-5.783-1.7717-7.5212-0.13371-4.2704 4.028-3.9528 11.315-3.4932 11.449 1.4207 0.39278 7.1702-4.5211 13.246-5.7746 1.4708-0.30085 1.6296 0.45963 0.15042 0.76884-5.9501 1.2452-11.583 6.7022-13.839 5.9334"/>
  <path d="m301.21 315.81c-5.7579-0.117-11.432 0.13371-17.616 0.77719l2.2731-1.1616c4.1032-0.44291 9.4517-0.62677 12.962-0.55991z"/>
  <path d="m298.1 315.2c-2.1394-0.59334-1.9221-1.2953 0.23399-0.75212 5.3986 1.3622 10.605 4.2787 11.65 3.7522 0.65184-0.33428-2.0809-6.9362-6.5267-10.914-2.2898-2.0474-5.0309-2.2731-6.8025-0.18385-0.86911 1.0195-1.3371 0.58498-0.58498-0.51813 1.7382-2.5489 5.3986-2.8664 8.2399-0.20057 4.3122 4.0448 7.9224 11.825 6.276 12.694-1.6881 0.89418-6.9864-2.3566-12.485-3.8776"/>
  <path d="m309.51 314.69c2.2814-0.25071 4.7467-0.23399 6.9279 0.15878 4.6966 0.86076 8.8165 2.9082 9.2511 2.3817 0.56827-0.67691-6.1256-8.4321-10.922-9.4517-3.4096-0.72705-6.0003-0.30085-9.201 0.82733l-0.76048-0.88583c3.3762-1.3705 6.5852-1.8469 10.237-1.0864 4.8386 1.0112 12.903 9.5352 11.474 11.24-1.1365 1.3538-5.4738-1.195-10.262-1.8887-2.2731-0.33428-4.2537-0.43456-6.3178-0.25071z"/>
  <path d="m302.12 229.97c-0.44292-1.6045-1.5962-2.3316-3.8442-2.248-0.50141 0.0167-0.71033-0.0418-1.078-0.33427-3.0837-2.4736-6.1005-5.783-8.1563-8.4488l0.91926-0.52648c2.0307 2.6241 4.9724 5.925 8.0728 8.2566 3.067-0.13371 4.6464 0.95269 5.2231 3.3428z"/>
  <path d="m311.62 235.68c1.5377-0.99447 4.1032-1.9304 5.7579-2.1561 2.4736-0.32592 7.7301-0.30085 9.4099-0.13371-1.4708-1.2285-5.2648-3.1171-8.0561-3.3595-2.4736-0.20892-3.418-0.10028-6.134 0.62677-2.5321 0.67691-3.3595 0.71034-4.9389 0.37606-1.7466-0.37606-4.2787-0.62677-6.2259-0.6602-1.5293-0.0167-1.5544-0.67691-0.0251-0.75212 2.014-0.10028 4.4877 0.0919 6.4181 0.4262 1.4959 0.25071 2.0474 0.21728 4.5545-0.45963 3.0336-0.81062 4.1784-0.92761 6.4682-0.72705 3.0085 0.25907 6.8276 2.0892 9.1257 4.2537 1.2118 1.1449 0.9109 1.4207-0.6017 1.3037-3.0168-0.21728-7.6633-0.234-9.8695 0.10028-1.5544 0.23399-3.8191 0.96104-5.4988 1.8385-1.3705 0.70198-1.78 0.22564-0.38442-0.67691"/>
  <path d="m313 235.4c2.3734 0.76884 5.5657 2.5489 7.1535 4.003 2.5238 2.2982 3.8609 5.6326 4.1534 8.2316 0.17549 1.5962-0.30921 1.663-1.4123 0.84405-3.8943-2.8915-6.9028-5.1562-8.4823-5.6994-1.4541-0.49306-2.9082-0.8524-4.8554-0.95269-1.3789-0.0752-1.3622-0.71033 0.0167-0.76048 1.7717-0.0668 3.6436 0.0585 5.2231 0.57663 1.6547 0.53484 5.3401 3.3678 8.4238 5.7245-0.29249-1.9221-1.4959-4.7467-3.9612-7.0867-1.6212-1.5377-4.6297-3.3093-7.5546-4.2537z"/>
  <path d="m291.78 232.85c1.5711 1.3037 3.2007 2.0558 4.8052 2.7828 0.85241 0.39278 1.404 0.71034 2.0892 1.5293 1.7382 2.0725 4.9974 4.1283 7.6967 5.5406 0.0251 0.0167 0.0585 0.0334 0.0752 0.0585 3.1756 3.3093 4.6966 10.605 5.5574 11.758 0.74376-1.5293 1.0446-4.8386 0.7939-6.51-0.27577-1.7717-1.5962-4.5044-3.1171-6.5769l1.3622 0.0502c1.2702 1.6045 2.7578 4.6632 2.9918 6.3847 0.26742 1.9639-0.16714 5.0058-1.2118 7.4293-0.50141 1.17-0.86911 1.2535-1.4792 0.16713-1.2452-2.2146-2.7661-8.9001-5.7328-11.733-2.5739-1.4959-5.8916-3.6436-7.7134-5.8833-0.50142-0.61841-1.1031-0.98611-1.7132-1.2619-1.4123-0.64348-2.95-1.4207-4.1367-2.2814z"/>
  <path d="m311.58 138.59c1.9889-0.78555 4.9556-1.1783 8.0226-1.0363 0.51813 0.0251 0.61006 0.10029 0.85241 0.6017 0.8524 1.7633 1.9889 3.886 2.2146 3.911 0.25906 0.0251 4.1617-2.4569 7.0867-4.1367 0.53484-0.3092 0.7354-0.23399 1.17 0.234 4.1534 4.496 4.6882 8.7664 5.0643 8.8834 0.43456 0.14207 3.9946-1.4207 5.8916-2.6826 1.287-0.86076 1.8385-5.6743 1.0028-7.4794-2.6408-5.7328-16.873-7.8221-32.082-2.2313-0.46799 0.17549-0.57663 0.15878-0.92762-0.20057-2.0642-2.0976-4.3205-4.9724-4.7133-5.2899-0.26742-0.24235-4.1283-1.5042-7.5797-3.0168l0.67691-0.76047c2.6074 1.1282 5.8331 2.1059 7.095 2.6074 0.40949 0.16714 0.53485 0.26742 0.89419 0.68527 0.87748 1.0279 2.9082 3.4932 4.3038 4.8637 14.65-5.5156 30.377-4.028 33.478 2.8246 0.90255 1.989 0.45128 7.563-1.5794 8.9168-1.9304 1.3037-6.134 3.0503-6.9112 2.8163-0.88584-0.26742-1.1198-4.8554-5.3568-9.0505-2.4235 1.1867-7.2204 4.3456-7.8304 4.1868-0.57662-0.14207-2.0725-2.9918-2.8664-4.5879-2.9416-0.234-5.783 0.18385-8.3653 1.2452z"/>
  <path d="m156.04 21.329c-1.897-2.131-2.9333-5.9585-2.2313-6.4432 0.50141-0.35099 1.6212 0.24235 2.2564 1.2034 0.66855 1.0279 0.25906 1.3455-0.55156 0.39277-0.55991-0.6602-0.87748-0.73541-1.0112-0.65184-0.21728 0.15878 0.5432 2.8998 2.1227 4.9891 0.80226 1.0613 0.24235 1.4374-0.58498 0.50977"/>
  <path d="m156.32 25.405c-0.20057 0.19221 1.2034 2.7912 3.2843 4.5127 1.0864 0.89419 0.6017 1.3789-0.45127 0.61005-2.5238-1.8385-4.3372-5.2064-3.7021-5.925 0.35935-0.40113 1.663-0.06686 2.6826 0.97776 0.86912 0.89419 0.4847 1.2953-0.45963 0.49306-0.80226-0.68527-1.2452-0.76884-1.3538-0.66855"/>
 </g>
 <path d="m144.11 104.63c0.1755-4.4542-0.55991-7.797-1.6797-8.0143-0.86912-0.16714-3.0586 0.91926-4.2119 2.4486-2.9751 3.9277 5.7496 9.2595 5.8916 5.5657" fill="#dcdddd" style="mix-blend-mode:normal"/>
 <path d="m146.47 118.26c1.9722-3.4598 3.7355-10.371 2.9583-10.722-0.55156-0.25071-2.2981 0.35935-3.443 2.3232-1.7215 2.95-0.117 9.46 0.4847 8.3987" fill="#dcdddd" style="mix-blend-mode:normal"/>
 <g fill="#fff">
  <path d="m195.6 86.243c0.61005-2.1812 1.8636-3.443 2.9082-3.3093 0.84405 0.10028 1.8302 3.1756 1.0196 7.329-0.30085 1.5544-4.588-1.6296-3.9278-4.0197"/>
  <path d="m188.6 69.736c0.14207-1.5042 1.3455-4.2704 2.5572-4.2202 1.2118 0.0585 2.7494 4.5963 2.0809 11.365-0.15878 1.6045-4.8721-4.6381-4.6381-7.1452"/>
  <path d="m178.78 57.376c-0.0418-2.2397 0.40113-4.4877 1.2118-4.613 1.1867-0.18385 3.5433 5.5741 4.9055 10.697 0.51813 1.9806-6.0755-3.8525-6.1173-6.0838"/>
  <path d="m170.02 46.586c-0.0919-0.73541 0.0334-1.9221 0.52648-2.0391 0.78555-0.18385 3.0336 3.184 3.6353 6.6939 0.20892 1.2452-3.8525-2.2982-4.1617-4.6548"/>
  <path d="m144.36 126.93c1.0195-0.77719 3.2341-1.4541 3.8108-0.86912 0.76048 0.75212-2.5823 6.1173-5.6994 9.8444-1.5795 1.897-0.61006-7.0867 1.8887-8.9753"/>
  <path d="m138.64 144.62c1.195-0.88583 3.7355-1.5293 4.4208-0.80226 0.84405 0.87747-3.067 8.2316-7.2789 12.134-1.638 1.5042 0.45963-9.5603 2.8581-11.332"/>
 </g>
 <g fill="#dcdddd">
  <path d="m166.06 40.41c-2.3984-1.1867-5.2147-4.7467-5.0559-5.7746 0.0919-0.57663 1.3455-0.22564 2.5572 0.6017 1.4625 1.0028 3.3845 5.6075 2.4987 5.1729" style="mix-blend-mode:normal"/>
  <path d="m170.48 44.582c0.50977 1.078 1.4374 3.418 1.7299 4.5879 0.30085 1.195 1.5377 2.4569 2.014 2.3483-1.3455-5.1144-3.1589-7.2454-3.7439-6.9362" style="mix-blend-mode:normal"/>
  <path d="m179.83 52.855c0.79391 1.4875 1.663 4.6548 2.131 7.0198 0.46799 2.3065 2.1644 3.8525 2.9249 3.8275-2.0391-7.9391-4.2537-11.24-5.0559-10.847" style="mix-blend-mode:normal"/>
  <path d="m191.05 65.434c0.6602 1.6797 0.87748 5.6158 0.3677 8.407-0.29249 1.5878 1.404 3.2676 1.8134 3.301 0.40113-7.2204-0.81062-11.683-2.1812-11.708" style="mix-blend-mode:normal"/>
  <path d="m198.38 82.966c0.55991 3.6938-0.96104 6.2593-0.79391 7.0699 0.16714 0.81898 1.195 1.1198 1.9639 0.44292 0.35099-2.1561 0.0585-7.2371-1.17-7.5129" style="mix-blend-mode:normal"/>
 </g>
 <path d="m145.44 110.66c-0.34263 1.3204-0.21728 4.4542 0.18385 4.5044 0.63512 0.0836 2.8998-4.6381 3.6102-7.7218-0.6017 0.0251-2.8748 1.6129-3.794 3.2174" fill="#fff"/>
 <path d="m137.87 99.788c0.46799 1.3872 2.4068 3.7857 3.2174 3.6353 0.80226-0.15878 1.7717-2.6909 1.3455-6.8025-1.3872-0.13371-3.6938 1.5377-4.5629 3.1673" fill="#fff"/>
 <path d="m148.23 125.81c-0.90255 1.521-3.0586 4.1534-4.3874 5.315-1.3705 1.195-2.0809 4.2035-1.5627 4.9306 1.9639-2.2062 6.3513-7.68 5.9501-10.246" fill="#dcdddd" style="mix-blend-mode:normal"/>
 <path d="m142.94 143.7c-1.0363 2.1477-3.3428 5.0894-5.7245 7.2036-1.6129 1.429-2.0725 4.8804-1.6965 5.2064 2.9166-2.1644 8.5825-10.688 7.4209-12.41" fill="#dcdddd" style="mix-blend-mode:normal"/>
 <g fill="#0f141b">
  <path d="m143.62 104.7c0.0501-4.6214-0.73541-7.3959-1.2953-7.5129-0.67691-0.14207-2.248 0.51813-3.4514 1.9137-1.0697 1.2452-1.546 0.84405-0.59334-0.55156 1.1867-1.7466 3.3177-2.6909 4.2954-2.5071 1.6547 0.30085 2.0892 4.7049 1.8218 8.7915-0.0919 1.4374-0.79391 1.312-0.77719-0.13371"/>
  <path d="m146.21 117.92c1.9889-3.2759 3.2592-9.6355 2.8915-9.8444-0.19221-0.10028-1.3455 0.40949-2.8079 2.2229-0.76048 0.93597-1.3037 0.50977-0.63512-0.49306 1.2285-1.8552 3.1422-3.2007 4.0364-2.8246 1.404 0.59334-0.59334 7.9808-2.8497 11.39-0.6602 0.99447-1.287 0.62677-0.63512-0.45127"/>
  <path d="m165.39 40.388c-2.6241-1.6129-5.3902-5.2565-4.7885-6.042 0.38442-0.50977 1.7466-0.47634 2.8497 0.49306 0.84405 0.73541 0.50977 1.1783-0.40949 0.5432-0.74376-0.51813-1.4207-0.65184-1.521-0.50141-0.16714 0.25071 1.8051 3.1338 4.2787 4.8386 1.1449 0.79391 0.67691 1.3371-0.40949 0.66855"/>
  <path d="m173.63 50.684c-1.0028-3.2174-2.482-5.6827-2.9583-5.5824-0.13371 0.03343-0.23399 0.41785-0.19221 0.9694 0.10028 1.1533-0.63512 1.1282-0.75212-0.03343-0.117-1.1198 0.20057-1.9639 0.84405-1.9889 1.1867-0.0585 3.0753 3.3678 3.8108 6.4265 0.32592 1.3204-0.35935 1.4792-0.75212 0.20892"/>
  <path d="m180.04 53.344c-0.38442 0.02507-0.87748 1.4959-0.87748 3.3177 0 1.2702-0.74376 1.2619-0.78555-0.0084-0.0752-1.9639 0.38442-4.3038 1.5042-4.4124 1.1198-0.10864 3.2592 3.2926 5.1228 10.379 0.3677 1.3956-0.31756 1.5878-0.72705 0.23399-1.9304-6.393-3.769-9.5352-4.237-9.5102"/>
  <path d="m192.96 76.259c0.0836-6.6187-1.0446-10.145-1.8469-10.229-0.59334-0.0585-1.429 1.0028-1.9806 3.1004-0.31756 1.2201-0.96104 1.0613-0.73541-0.18385 0.45963-2.6157 1.7299-4.1283 2.8246-3.9946 1.8134 0.21728 2.8497 4.8303 2.4151 11.332-0.0836 1.17-0.69362 1.1533-0.67691-0.02507"/>
  <path d="m199.24 89.562c0.22564-3.8108-0.31756-5.9-0.86076-6.017-0.6017-0.12535-1.4708 0.74376-2.1561 2.2564-0.46799 1.0363-1.0363 0.84405-0.72705-0.25071 0.50141-1.7717 1.9388-3.4096 3.1589-3.1004 1.1616 0.29249 1.9054 3.3093 1.3287 7.1869-0.17549 1.2034-0.81897 1.1449-0.74376-0.07521"/>
  <path d="m142.8 134.87c3.2174-4.145 5.2816-8.0644 4.9891-8.4656-0.16714-0.24235-1.4207-0.19221-2.6241 0.49306-1.053 0.6017-1.3622-0.0167-0.35935-0.69362 1.546-1.0446 3.5433-1.0196 3.9695-0.50978 0.73541 0.88584-1.9639 5.6409-5.4069 9.7274-1.1282 1.3287-1.6881 0.89419-0.56827-0.55156"/>
  <path d="m135.92 155.14c5.1813-5.6326 7.0282-10.421 6.6939-10.931-0.21728-0.34263-1.5711-0.3092-3.0837 0.43456-1.078 0.5432-1.404-0.0836-0.37606-0.72705 1.8218-1.1282 3.7355-1.2452 4.4041-0.45127 1.0028 1.195-1.546 6.8025-7.0616 12.268-0.88583 0.87748-1.4875 0.39278-0.57663-0.59334"/>
 </g>
 <path d="m279.02 160.79c5.6326-6.836 11.599-12.151 15.159-12.677 5.1729-0.76884 8.967-1.5795 12.861-3.3762 5.5406-2.5405 5.7078-8.29 3.3762-10.538-1.3622-1.3371-3.4848-3.8525-4.8554-5.4738-2.6157-1.0279-5.4487-2.0224-7.5797-3.0168-11.925 10.981-19.772 21.41-18.962 35.082" fill="#4db0b5"/>
 <path d="m273.69 186.2c5.1896-1.5126 10.438-5.7746 13.588-12.836 1.078-2.4152 5.6158-6.3011 11.549-8.6995 1.7884-0.7187 2.9333-1.0697 5.2147-0.94433 9.1592 0.47634 15.335 2.8414 21.352 1.2619 2.4402-0.64348 5.8415-2.4987 7.3206-6.485-1.6714 0.84405-3.9194 1.5126-5.7328 1.6212-0.81062-3.3428-1.7633-5.9585-2.8079-8.0978-2.4235 0.15042-5.7913 0.7354-7.6382 1.1532-0.15878-2.3734-0.63513-4.5796-1.3204-6.3763-2.0057-0.45127-5.2732-1.2619-8.1647-2.0558-3.9027 1.7967-7.6967 2.6074-12.861 3.3762-3.5684 0.52648-9.5269 5.8415-15.168 12.677 0.2507 9.6188-2.3734 20.792-5.3317 25.405" fill="#fff"/>
 <path d="m335.75 147.57c-0.58498-0.21728-0.99447-4.7216-5.4571-9.2511-2.6826 1.3872-7.3708 4.3707-7.8054 4.3122-0.36771-0.0418-1.8469-2.9249-2.6491-4.5294-2.8664-0.17549-5.7663 0.0919-8.1146 0.99448-0.37606 2.1226-1.7884 4.3122-4.6799 5.6409h8e-3c2.8915 0.7939 6.159 1.6045 8.1647 2.0558 0.68526 1.7967 1.1616 4.003 1.3204 6.3763 1.3538-0.30921 3.5433-0.70198 5.5741-0.95269 1.6881-2.1644 4.7885-3.3846 7.8137-3.7857 0.55991 1.429 1.8051 2.7411 2.95 3.5266 3.2174-1.312 6.744-3.9027 9.318-7.1284-1.9555 1.312-5.9083 2.9416-6.4432 2.7411" fill="#932000"/>
 <path d="m317.85 164.3c-5.8498 2.8998-8.2984 7.2036-9.1675 7.6967-0.75212 0.4262-3.1673-1.1532-3.2759-1.897-0.13371-0.97775 2.5238-3.9946 3.2759-7.2789 0.98612-4.354 13.187-0.51813 9.1675 1.4792" fill="#fff"/>
 <path d="m326.99 160.2c0.10864 0.38442 0.31756 1.2368 0.39277 1.5962-2.8748 0.53484-6.368-0.21728-9.6439-2.5739-14.299-10.296-20.04-9.0672-29.567-2.4653-2.7411 1.897-6.2175 4.5294-9.3096 7.797-0.0585 6.8777-2.1059 15.477-5.1813 21.644 5.3066-1.6714 10.939-6.2677 13.597-12.836 1.2535-3.1171 6.9362-6.9613 12.627-9.1675 1.5795-0.61005 6.1507-0.33427 8.3903-0.17549 0.29249-0.63513 0.51812-1.5795 0.56827-2.2396 0.90254-0.20893 1.7215 0.68526 1.4457 1.9304-0.71034 3.2592-2.6074 6.3429-3.769 7.6549 0.45963 0.40949 1.4792 0.68527 2.1394 0.62677 0.65184-0.0669 2.9166-4.1534 7.6967-6.861 7.6215 1.0864 13.872-0.40949 16.338-6.6354-1.2619 0.87748-4.2871 1.5878-5.7245 1.7048" fill="#dcdddd" style="mix-blend-mode:normal"/>
 <path d="m305.56 128.72c-0.30921-0.27578-4.3707-1.5544-7.68-2.9918-11.399 11.006-16.162 18.151-17.9 26.207 6.8944-11.599 19.472-21.845 25.58-23.215" fill="#42999d"/>
 <g fill="#0f141b">
  <path d="m279.12 159.8c5.0559-6.1005 11.023-11.675 14.984-12.26 5.0225-0.74377 8.6661-1.4625 12.694-3.3093 4.8303-2.2229 5.4905-7.4627 3.0837-9.7776l1.1282-0.37606c2.1477 2.365 2.5071 8.2817-3.769 11.173-3.9695 1.8218-7.9056 2.7244-12.953 3.4681-3.2926 0.4847-9.1926 5.5824-15.201 12.878z"/>
  <path d="m321.34 152.35c1.5544-2.2898 4.613-3.9194 8.3151-4.471 0.43456-0.0669 0.61841 8e-3 0.83569 0.51813 0.5432 1.2786 1.6881 2.482 2.4235 2.9918 2.9583-1.2452 5.6576-3.2341 7.9892-5.8833l1.7884-0.49306c-3.1673 3.8442-6.0253 5.8415-9.3514 7.2956-0.46799 0.20056-0.65184 0.15878-1.0446-0.117-1.078-0.74377-2.0725-1.8051-2.716-3.1255-2.95 0.39277-5.1729 1.5544-6.7022 3.0336z"/>
  <path d="m307.65 144.34c2.0474 0.57663 4.7634 1.2953 7.4209 1.872 0.47635 0.10864 0.61006 0.20056 0.74377 0.63512 0.67691 2.1728 1.0446 3.9946 1.17 5.6994 1.6797-0.38441 4.2704-0.81897 6.8694-1.0697 0.50978-0.0501 0.69363 8e-3 0.92762 0.52648 1.3037 2.9834 2.0809 5.5741 2.716 8.616 0.31756 1.5126-0.32592 1.6212-0.75212 0.16714-0.92762-3.2091-1.78-5.6744-2.9166-8.1731-2.1477 0.15878-4.6381 0.51813-6.9028 0.98611-0.74377 0.15879-0.86076 0.0418-0.93598-0.70198-0.20056-2.1561-0.57662-3.9862-1.195-5.6409-2.3232-0.50141-5.4905-1.3037-8.5658-2.1477z"/>
  <path d="m308.02 164.65c-1.2786-0.14207-2.6074-0.26742-3.9946-0.34263-1.9304-0.10029-2.9082 0.0501-5.0476 0.9109-5.2899 2.1477-10.028 6.0337-11.106 8.4572-3.2759 7.3374-8.4823 11.641-14.533 13.304l0.7187-1.5627c4.4208-1.5126 9.46-5.3401 12.594-12.36 1.078-2.4068 5.4069-6.2844 11.925-8.9252 2.3901-0.96104 3.0586-1.0864 5.4738-0.98611 1.5627 0.0668 3.0252 0.18385 4.4041 0.33427z"/>
  <path d="m317.14 164.65c2.7996 0.30921 5.3818 0.35935 8.0477-0.32592 3.0168-0.77719 5.0392-2.3901 6.4348-4.7718-1.0613 0.50141-2.9082 0.95268-4.5378 1.053l-0.28413-0.96105c1.6714-0.16714 3.1923-0.55155 4.9724-1.3288 1.5042-0.66019 1.8469-0.39277 1.2034 1.078-1.5962 3.677-4.7049 5.5239-7.4544 6.2426-3.1589 0.82733-6.393 0.56826-10.02 0.0668z"/>
  <path d="m304.85 170.17c-0.14207-1.1365 2.4486-4.1701 3.4514-7.4544 0.41785-1.3538 1.053-1.2034 0.75212 0.18385-0.74376 3.418-3.1756 6.3011-3.0837 7.1284 0.0585 0.55156 1.9472 1.6714 2.4486 1.429 0.81062-0.39277 3.4347-4.6966 9.2511-7.5045 1.7967-0.86912 2.1059-0.26742 0.35099 0.68527-5.6743 3.0586-8.1564 7.2956-9.0923 7.8722-0.8524 0.53485-3.9278-1.1198-4.0782-2.3399"/>
  <path d="m298.97 125.53c-16.931 15.962-19.112 24.427-19.179 35.525-0.117 19.304-6.251 29.508-13.338 34.74-1.2702 0.93598-1.7884 0.37606-0.4847-0.67691 6.6939-5.4403 12.276-16.806 12.385-34.029 0.0752-12.711 3.2676-20.834 19.313-35.809z"/>
  <path d="m342.45 145.29c-1.9388 1.2953-6.134 3.0503-6.9112 2.8163-0.89419-0.26742-1.1282-4.8554-5.3568-9.0505-2.4235 1.1783-7.2204 4.3456-7.8304 4.1868-0.57663-0.14207-2.0809-2.9918-2.8664-4.588-2.9416-0.23399-5.7913 0.18386-8.3736 1.2368l0.46799-1.2953c1.9806-0.79391 4.9556-1.1783 8.0226-1.0363 0.50977 0.0251 0.6017 0.10028 0.84405 0.6017 0.86076 1.7633 1.989 3.886 2.2229 3.9027 0.25071 0.0251 4.1534-2.4486 7.0867-4.1283 0.53484-0.3092 0.7354-0.24235 1.1616 0.23399 4.1617 4.496 4.6882 8.7664 5.0643 8.8834 0.44292 0.14207 4.003-1.4207 5.9-2.6909z"/>
  <path d="m309.87 134.46c-2.0642-2.0976-4.3205-4.9724-4.7133-5.2899-0.26742-0.24235-4.12-1.5042-7.5797-3.0168l0.67691-0.76883c2.6074 1.1365 5.8415 2.1143 7.095 2.6157 0.40949 0.16714 0.53484 0.26742 0.89419 0.68527 0.87748 1.0195 3.4347 3.9862 4.7634 5.3986l-0.20892 0.57663z"/>
 </g>
</svg>
