<?xml version="1.0" encoding="UTF-8"?>
<!-- Created with Inkscape (http://www.inkscape.org/) -->
<svg version="1.1" viewBox="0 0 302.29 275.58" xmlns="http://www.w3.org/2000/svg">
 <path transform="matrix(.62841 0 0 -.62841 -437.27 400.26)" d="m954.64 573.46c0.482-3.06 2.5241-6.8181 4.3611-6.6771 1.399 0.107 2.686 3.9986 2.503 7.3226-0.165 2.976-1.8632 5.6704-3.7582 5.4704-1.772-0.187-3.5189-3.4978-3.1059-6.1158" fill="#5b6970"/>
 <path transform="matrix(.62841 0 0 -.62841 -437.27 400.26)" d="m850.13 462.6c0.236-2.49 2.799-6.508 4.429-6.262 1.555 0.233 2.8524 5.1124 2.5264 7.3634-0.379 2.608-2.0588 4.5428-3.7658 4.3638-1.763-0.182-3.4706-2.4932-3.1896-5.4652" fill="#5b6970"/>
 <path transform="matrix(.62841 0 0 -.62841 -437.27 400.26)" d="m848.78 478.94c0.206-2.111 1.63-5.0595 3.616-4.7835 1.748 0.244 2.7044 3.2785 2.2964 5.4275-0.429 2.252-2.3368 5.8673-3.7638 5.6023-1.224-0.228-2.3936-3.7383-2.1486-6.2463" fill="#fff"/>
 <path transform="matrix(.62841 0 0 -.62841 -437.27 400.26)" d="m799.62 472.91c0.39-3.161 2.3882-5.0477 3.9102-4.8257 1.37 0.202 2.7077 2.7494 2.1987 5.7354-0.441 2.586-2.241 5.3316-3.513 5.1226-1.614-0.265-2.845-4.0222-2.596-6.0322" fill="#fff"/>
 <path transform="matrix(.62841 0 0 -.62841 -437.27 400.26)" d="m802.29 426.42c-0.897 11.084 10.349 19.243 28.678 21.021 18.485 1.784 31.379-3.0067 32.555-14.26 0.14-1.333 0.101-2.622-0.053-3.876-1.261-10.263-10.831-16.273-26.708-18.13-15.754-1.845-25.636 0.42974-31.16 6.7617-2.191 2.511-3.0501 5.231-3.3131 8.483m-0.48017 53.712c0.242 0.042 0.479 0.063 0.712 0.063 3.689 0 4.4103-3.6826 6.0473-14.638 1.358-9.091 1.8832-15.144-2.4798-15.674-3.823-0.474-5.7063 3.6758-7.1833 14.197-1.893 13.455-0.0592 15.538 2.9038 16.052m48.558 5.9705c3.786 0.554 5.7933-4.8937 7.1263-14.482 0.836-6.026 2.3622-14.855-2.3538-15.869-4.371-0.959-6.0583 4.5938-7.2203 13.924-0.723 5.806-2.3312 15.748 2.4478 16.427m59.062-70.715c-6.022 5.674 0.039 13.643-2.021 18.129-0.829 1.803-2.4222 3.7649-5.7612 5.0859-5.91 2.338-13.806 4.766-16.814 10.271-6.067 11.102 10.264 19.107 4.5344 30.956-5.766 11.924-16.746 9.4729-21.062 14.343-4.743 5.358-4.0408 14.01-7.1018 18.863-4.212 6.678-10.922 12.813-19.126 13.797-5.692 0.683-16.377-3.9576-19.365-6.3186-0.301-0.236-0.692-0.319-1.067-0.216-11.16 3.08-16.18 2.7863-23.229-0.67168-5.243-2.573-13.896-13.705-16.258-23.329-1.868-7.606 3.5317-14.992 0.52169-25.674-3.002-10.661-15.535-13.025-16.77-21.296-1.329-8.927 8.6957-15.242 7.7577-28.244-0.532-7.398-7.687-10.714-14.632-13.154-0.18179-8.911-3.7036-16.642-9.6646-21.635 0.565-6.39 6.0333-51.017 9.7543-79.581 1.468-11.269 3.7378-20.12 4.3898-23.049 1.724 1.865 3.133 3.228 3.939 3.717 1.152 0.698 5.8204 1.4862 11.567 2.8062 9.227 2.119 20.833 3.712 23.452 2.981 0.917-0.255 2.1672-2.3755 4.1082-5.4625 3.041-2.213 10.98-7.6605 11.946-7.9605 0.552-0.074 6.4111 0.12865 12.392 0.13265 6.063 4.882 20.751 14.722 23.261 14.958h3e-3c0.709 0 1.773 0.51541 2.858-0.51959 0.219-0.028 0.473-0.063 0.735-0.1 4.488-0.632 14.843-2.531 18.513-3.621 0.357 0.416 0.676 0.776 0.939 1.052 0.55 0.578 1.338 0.785 2.158 0.649 4.237-0.713 20.025-5.374 21.764-6.295 0.276-0.146 0.718-0.572 1.279-1.209 3.402-0.797 12.869-2.498 14.548-2.786 2.459 1.257 9.301 4.758 12.742 6.495-0.468 6.527-9.879 114.44-10.426 121.25-3.65 1.135-7.04 2.975-9.865 5.638" fill="#865a14"/>
 <path transform="matrix(.62841 0 0 -.62841 -437.27 400.26)" d="m801.41 456.98c0.401-2.537 2.408-6.4784 4.301-6.3704 1.78 0.102 2.6627 5.0374 2.3217 7.4094-0.38 2.635-2.283 5.3379-4.076 5.0689-1.871-0.28-2.9637-3.4549-2.5467-6.1079" fill="#5b6970"/>
 <path transform="matrix(.62841 0 0 -.62841 -437.27 400.26)" d="m903.65 568.96c0.442-3.273 3.1676-6.4674 4.6636-6.2634 1.46 0.199 3.1373 3.6114 3.0163 6.8164-0.111 2.92-2.769 5.6609-4.377 5.4909-1.854-0.197-3.7068-3.0599-3.3028-6.0439" fill="#5b6970"/>
 <path transform="matrix(.62841 0 0 -.62841 -437.27 400.26)" d="m906.27 582.29c1.551 0.198 2.6049 2.6384 2.3359 4.9574-0.226 1.944-1.7146 5.0439-2.9556 4.9029-1.344-0.153-2.7484-3.4416-2.7014-5.3256 0.059-2.376 1.6841-4.7436 3.3211-4.5346" fill="#fff"/>
 <path transform="matrix(.62841 0 0 -.62841 -437.27 400.26)" d="m935.48 408.96c-1.635-3.474-8.024-17.667-11.024-24.416-1.169 12.818-2.034 22.338-2.213 24.45 4.317-0.872 8.876-0.843 13.237-0.034m-30.215 184.16c4.826 0.604 6.1034-7.4201 6.7664-15.128 0.974-11.369 0.32992-15.486-3.4421-15.852-4.087-0.416-6.3431 2.8705-7.3011 14.834-0.314 3.914-1.8682 15.415 3.9768 16.146m29.305-33.581c18.452 1.261 30.883-3.8907 31.504-16.235 0.057-1.132-0.035-2.213-0.209-3.265-1.569-9.532-11.22-14.927-29.449-16.207-13.004-0.916-22.402 2.7985-27.562 8.6595-2.105 2.392-3.0456 4.4441-3.2656 7.3341-0.838 10.996 10.44 18.44 28.982 19.713m20.943 37.735c4.137 0.565 5.8451-3.7919 7.2161-14.618 0.853-6.73 1.5232-16.329-3.3758-16.801-4.465-0.45-6.2344 3.7914-7.5024 15.667-0.399 3.739-1.8749 14.986 3.6621 15.751m-68.148-69.04c8.305-5.344 23.691-2.7376 30.722-21.622 2.295-6.167 0.17852-11.225-1.7665-15.985 1.684-7.021 9.8132-7.1323 16.626-9.2463 4.03-1.251 8.104-2.5517 11.211-8.1877 0.824-1.495 1.426-2.915 1.853-4.27 14.802 16.819 40.928 29.163 65.658 31.696-1.904 8.988-8.6113 11.688-11.931 21.416-0.813 2.382-1.2335 5.181-1.3195 8.601-0.367 14.799 7.85 20.06 6.951 30.727-2.307 27.41-37.038 62.491-78.873 58.839-34.028-2.977-61.788-29.928-65.456-62.29 20.022-5.536 14.366-21.982 26.325-29.678" fill="#865a14"/>
 <path transform="matrix(.62841 0 0 -.62841 -437.27 400.26)" d="m953.15 590.3c0.028-2.356 2.356-4.5456 3.802-4.4186 1.606 0.14 2.584 2.3646 2.368 4.6836-0.224 2.397-1.9199 5.7421-3.3659 5.5461-1.376-0.187-2.8341-3.1151-2.8041-5.8111" fill="#fff"/>
 <path transform="matrix(.62841 0 0 -.62841 -437.27 400.26)" d="m1015.1 411.19c-0.818-2.234-0.5002-6.3684 0.6868-6.9794 1.452-0.743 4.4052 1.6354 5.6542 4.4714 1.041 2.361 0.6587 5.8164-0.8543 6.4634-1.72 0.738-4.6107-1.5634-5.4867-3.9554" fill="#5b6970"/>
 <path transform="matrix(.62841 0 0 -.62841 -437.27 400.26)" d="m1022.4 419.72c1.378-0.704 3.7246 0.91073 4.5826 2.5557 0.775 1.482 1.0076 5.458-0.4574 6.045-1.363 0.544-4.2521-1.584-5.3091-3.887-0.589-1.284-0.3701-3.9198 1.1839-4.7138" fill="#fff"/>
 <path transform="matrix(.62841 0 0 -.62841 -437.27 400.26)" d="m1063.5 394.99c-1.428 0.633-4.1275-0.8099-5.1845-3.3529-0.916-2.204-1.0194-6.5051 0.2826-7.1271 1.383-0.658 4.105 2.1547 5.252 4.5767 0.834 1.767 1.1469 5.2373-0.3501 5.9033" fill="#5b6970"/>
 <path transform="matrix(.62841 0 0 -.62841 -437.27 400.26)" d="m1000.8 390.48c4.761 8.329 18.38 9.6242 34.888 1.4172 12.67-6.299 21.605-16.116 17.472-27.038-0.143-0.378-0.301-0.755-0.481-1.132-4.617-9.662-16.964-10.783-33.194-3.103-9.321 4.408-15.068 10.611-18.045 16.472-2.635 5.187-3.2039 8.8943-0.6408 13.384m15.94 27.657c4.437 10.115 7.5389 12.086 10.323 10.991 4.088-1.609 1.1142-8.3408-1.9958-15.336-2.938-6.591-5.7749-12.401-9.7179-10.424-4.831 2.416-0.4682 10.533 1.3908 14.769m43.202-19.438c3.965 9.337 6.8064 12.032 9.4794 10.876 3.195-1.379 1.9967-6.9584-1.6153-14.956-3.825-8.463-6.1474-12.885-9.6174-10.77-3.078 1.877-2.2377 5.4513 1.7533 14.85m23.137-29.487c3.116 8.741 7.3259 27.071 9.1139 43.001-26.506 4.955-64.691 24.804-77.139 37.996-15.023-13.729-32.888-33.887-38.706-43.195-0.249-0.401-0.55-0.772-1.38-0.512-4.106 1.282-18.386 11.37-21.347 13.67-3.423-4.261-9.3706-7.927-15.342-9.646-0.818-1.726-4.6646-10.848-8.0896-18.765-2.615-6.047-4.2413-11.86-5.1383-13.932 3.032-33.224 7.455-81.566 7.968-87.895 0.873 0.289 1.694 0.499 2.432 0.67 1.612 1.231 3.074 2.245 3.743 2.505 2.654 1.033 20.415 8.1266 33.249 12.381 5.897 1.955 10.521 2.6906 12.513 2.2656 6.764-1.441 16.446-5.5529 22.482-8.3499-0.088 0.071 0.105-0.047 0 0 0.463-0.215 0.873-0.656 1.243-1.227 0.05-0.078 0.101-0.158 0.149-0.241 4.813-2.589 13.539-5.2384 14.624-5.2624 1.101-0.025 9.555 1.85 15.726 3.465 2.091 1.443 3.874 2.385 4.822 2.385 2.315 0 15.126-5.408 15.246-5.46 0.083-0.036 0.137-0.112 0.209-0.164 0.011 1.777 0.053 5.996 0.166 6.816 0.12 0.866 1.246 1.911 2.294 2.56 2.484 4.815 10.014 18.512 15.846 32.334 5.883 13.943 11.379 28.739 12.329 31.616-2.42 0.382-4.8079 0.81252-6.3539 1.4755-0.585 0.252-0.874 0.912-0.66 1.51" fill="#865a14"/>
 <path transform="matrix(.62841 0 0 -.62841 -437.27 400.26)" d="m1065.2 399.86c1.129-0.663 3.3492 0.89979 4.1862 2.8548 0.996 2.325 0.9212 5.5448-0.1718 5.9538-1.268 0.473-4.0675-2.1123-4.8095-3.7513-0.914-2.018-0.3089-4.4103 0.7951-5.0573" fill="#fff"/>
 <g fill="#6a4504" stroke-width="1.7813">
  <path d="m134.25 65.764c0.97525 11.606 35.81 11.247 36.458-3.1704 0.70004-15.543-37.931-14.349-36.458 3.1704z"/>
  <path d="m68.022 136.71c1.3529 12.999 38.751 11.527 38.281-4.2912-0.46364-15.552-40.407-16.147-38.281 4.2912z"/>
  <path d="m222.58 177.76c-9.5762 6.4872-32.497-4.4437-28.157-12.656 15.873-30.042 27.256-2.3695 29.983 6.1169 0.7567 2.3554 0.95293 4.6564-1.826 6.539z"/>
 </g>
 <g fill="#ec6d81">
  <path transform="matrix(.62841 0 0 -.62841 -437.27 400.26)" d="m922.01 552.59c4.049 1.143 6.2434 1.9086 7.4674-0.55043 1.207-2.424-0.24805-4.3655-5.045-5.8235-4.7-1.43-6.9816-2.0185-7.7366 0.53152-0.746 2.515 0.9403 4.6034 5.3143 5.8424m12.446 6.7798c-17.673-1.212-28.771-10.415-28.094-19.335 0.137-1.795 1.4566-4.3628 2.4206-5.8988 3.97-6.329 15.068-10.418 27.497-9.546 18.745 1.317 30.339 8.5386 29.84 18.431-0.016 0.318-0.077 0.616-0.114 0.924-1.219 10.194-14.998 16.56-31.55 15.425"/>
  <path transform="matrix(.62841 0 0 -.62841 -437.27 400.26)" d="m1018.2 392.64c4.439-0.232 5.7748-1.5227 5.5578-4.0387-0.203-2.366-1.6278-3.0541-6.3338-2.5841-3.917 0.387-6.0855 1.2131-5.8885 3.9641 0.168 2.328 2.1245 2.8967 6.6645 2.6587m16.7-0.93004c-12.474 6.203-28.646 5.8676-33.239-2.1744-1.508-2.642-1.8586-5.6401-1.3706-8.4491 1.233-7.101 9.0847-14.846 19.183-19.624 13.083-6.188 28.813-5.4808 33.044 3.3722 0.283 0.592 0.507 1.189 0.682 1.791 2.561 8.838-6.6103 19.275-18.299 25.084"/>
  <path transform="matrix(.62841 0 0 -.62841 -437.27 400.26)" d="m817.13 439.08c4.372 1.897 8.2998 2.6061 9.5858-0.30987 1.462-3.315-1.1788-5.6737-5.7228-7.5117-4.899-1.984-8.7025-2.8023-9.7525-0.0103-1.159 3.084 1.5686 5.9568 5.8896 7.8318m45.815-6.0914c-0.859 8.047-12.96 15.645-31.736 13.829-16.689-1.619-28.917-10.669-28.143-20.229 0.182-2.239 1.2469-4.721 2.5039-6.502 4.7-6.662 16.606-9.456 31.033-7.767 15.863 1.855 27.394 10.641 26.346 20.649-0.0798-0.0324-4e-3 0.019-4e-3 0.019"/>
 </g>
 <g fill="#fff798">
  <path transform="matrix(.62841 0 0 -.62841 -437.27 400.26)" d="m749.48 374.62c-5.406-5.57-10.296-14.444-10.301-24.146 0-6e-3 1e-3 -0.012 1e-3 -0.019 4e-3 -12.567 11.921-17.034 9.9098-26.554-1.84-8.709-14.17-9.715-23.368-6.92 3.06-9.767 13.554-21.343 32.008-15.516-2.021 15.53-3.4184 36.415-5.3914 53.456-0.798 6.901-2.2993 14.672-2.8583 19.699"/>
  <path transform="matrix(.62841 0 0 -.62841 -437.27 400.26)" d="m859.08 558.54c0.364-0.063 0.697-0.138 1.048-0.207 0.193 1.656 1.5516 4.3956 1.8586 6.0106 0.791 4.145 1.948 8.149 3.445 11.982 9.679 24.784 31.85 41.084 60.743 43.612 36.796 3.224 65.514-19.589 75.719-44.42 1.808-4.397 3.1426-8.4309 3.6366-12.757 0.047-0.409 0.11-0.821 0.144-1.227 0.961-11.44-7.353-16.746-6.997-30.901 0.405-16.289 11.459-20.697 15.104-30.994 2.786 0.194 6.4939 0.264 9.2129 0.192 16.418-0.438 29.664-5.1867 40.071-14.932 2.031-1.903 4.6504-3.476 6.4014-5.694 4.412 0.67 8.5787-0.83458 12.672-2.2256 2.535-0.862 5.7113-2.1788 7.8353-3.7908 0.257-0.195 0.5-0.405 0.754-0.603 0.015 2.987-0.2307 7.9318-1.3457 10.836-1.427 3.718-3.6024 7.3367-6.7804 10.09-1.006 0.87-2.085 1.678-3.259 2.391-10.083 6.123-20.786 8.8168-32.856 13.677-5.565 2.24-9.9979 4.5962-12.252 8.2912-2.15 3.526-1.8645 3.892 0.4655 0.39995 0.441-0.661 1.1136-1.6616 2.3661-2.1137-0.039 2.386-1.3364 5.3039-1.6814 7.2169-2.887 16.017-7.3808 31.568-13.854 45.457-1.95 4.186-4.1916 8.4026-6.4116 12.304-17.881 31.436-44.827 53.599-72.357 54.18-5.911 0.113-10.521-0.872-16.49-4.07-0.338-0.18-0.74-0.19-1.086-0.026-5.562 2.643-15.211 2.8906-21.316 2.2706-23.867-2.432-49.748-22.683-65.04-49.876-2.229-3.963-4.281-8.058-6.12-12.26-2.488-5.684-3.4864-13.051-5.1484-19.015 8.4992 4.1736 17.868 7.3728 31.519 6.2032"/>
  <path transform="matrix(.62841 0 0 -.62841 -437.27 400.26)" d="m1091.5 432.17c-0.308 3 1.476 3.178 1.786 0.116 1.908-18.974-5.1085-47.602-9.6342-63.895 5.43-1.814 18.65-1.7416 22.34 0.38944 9.863 25.653 11.42 51.392 4.8265 71.824-0.845 2.617-1.7055 5.9364-2.8135 8.3834-4.312 9.526-11.051 17.927-19.299 24.186-5.207 3.953-12.395 5.8555-19.107 4.6475-0.439-0.082-0.893 0.095-1.166 0.451-10.269 13.349-26.375 20.566-45.523 21.077-27.182 0.714-60.991-14.809-77.617-33.847-0.4357-10.512-7.0737-17.766-3.0767-24.273 0.392-0.637 0.932-1.199 1.587-1.702 5.3453 7.3056 13.532 17.183 20.942 22.348 2.943 2.056 3.1184 1.6423 0.19739-0.4377-6.865-4.875-16.068-15.905-19.249-22.772 2.176-0.798 5.033-1.6749 8.615-1.6929 1.143-8e-3 1.436-0.301 1.168-1.472-1.125-4.921-4.564-7.3068-8.449-8.8548l2.7811-2.3938c1.591-0.188 2.777 0.10414 4.495 0.10414 0.358 0 1.757-0.182 1.105-1.682-0.253-0.585-0.551-1.151-0.867-1.708 2.722-2.195 15.845-11.233 20.296-13.236 12.051 14.807 34.978 41.433 52.442 52.903 2.888 1.896 2.6856 1.0848-0.2024-0.88921-3.149-2.147-7.3558-5.4273-11.242-8.8793 12.188-12.926 49.792-33.512 75.86-38.389 0.677 6.963 0.3326 14.585-0.1944 19.696"/>
 </g>
 <path d="m99.627 216.14c33.286-21.367 30.5-85.179 28.302-93.313l10.788 1.6813 3.3626 29.283 2.1016 23.538 3.923 42.734-7.8462 4.6236-9.2472-1.9616-4.0632-2.1016-11.769-3.5028-2.1016 2.3818z" fill="#6a4504" stroke-width="1.7813"/>
 <path transform="matrix(.62841 0 0 -.62841 -437.27 400.26)" d="m940.48 440.72c2.027-3.322 6.606-5.071 13.475-5.34-2.025-5.571-7.763-7.728-13.482-7.503-5.343 2.536-8.732 6.536-9.024 11.387-0.397 6.59 9.634 16.48 6.031 25.082-0.984 2.351-2.6511 3.2521-4.0831 4.7471-7.183 6.532-17.473 6.8494-18.874 12.228-0.41 1.572 0.95627 5.0417 1.8453 7.3187 3.8319-5.0396 9.8841-5.7891 16.181-7.9281 3.498-1.187 6.5837-4.1581 9.1987-8.9021 7.742-14.049-7.088-21.548-1.268-31.09m-217.85-5.221c-0.273-1.352-0.22216-1.6254-0.57216-1.6904-0.345-0.063-0.24186 0.0605-0.28486 1.1974-8e-3 0.227-0.01 0.468 3e-3 0.742 0.388 7.977 12.495 8.9891 10.972 20.563-0.057 0.432 0.0113 0.95861-0.0847 1.4206-0.654 3.145-0.10943 2.9781 0.72257-0.19808 3.699-14.132-9.1219-13.933-10.756-22.035m206.42 3.58c-0.582 7.574 8.67 16.548 5.726 24.187-0.424 1.101 0.0159 2.3853-0.54907 3.2543-5.781 8.879-18.123 6.3847-20.221 14.43-1.386 5.317 3.336 10.999 4.308 17.8 0.339 2.374-6e-3 5.5136-1.0045 8.1936-1.194 3.208-2.605 5.9006-4.165 7.9506-7.439 9.778-18.1 8.264-25.797 13.135-15 9.495-6.2808 25.838-28.802 29.681-18.818 3.212-29.585-4.5056-37.654-13.603-0.232-0.264-0.625-0.443-0.919-0.405-8.942 0.147-14.807 5.9148-23.892 8.2578-11.527 2.972-29.316-4.6011-35.224-13.711-6.243-9.626-1.808-15.886-9.431-23.855-9.881-10.329-20.514-9.7596-27.095-21.493-0.372-0.663-0.733-1.358-1.079-2.107-2.651-5.75-2.024-10.683-0.85704-14.184 2.016-6.046 6.4374-9.3737 5.3544-16.471-1.382-9.054-10.894-8.834-13.808-17.23-4.351-12.521 7.5587-18.999 6.0547-31.034-1.084-8.665-10.249-9.755-17.46-9.3655 7e-3 -0.022 0.019-0.045 0.026-0.067 1.299-4.054 8.7898-9.8879 14.405-11.398 6.214 1.815 11.481 5.557 12.884 12.273 1.428 6.838-0.14145 12.44-2.7304 16.854-0.296 0.504-0.598 0.92117-0.906 1.4002-1.885 2.952-1.4043 3.4316 0.56173 0.57162 3.163-4.601 6.5731-10.861 4.7801-19.445-1.805-8.656-10.95-12.351-22.059-15.3 0.173-0.17 0.36-0.317 0.538-0.481 16.04-14.742 49.467-0.768 47.736 21.25-0.071 0.884 0.135 1.136 1.002 1.28 6.168 1.025 13.118 5.28 13.589 11.851 0.309 4.284-0.585 7.647-1.87 10.613-2.667 6.156-5.4595 10.575-4.3835 17.787 1.398 9.359 14.009 11.51 16.88 21.722 2.99 10.635-3.376 15.936-1.069 25.342 2.838 11.558 10.088 20.112 16.343 23.12 7.784 3.744 11.893 3.8696 23.621 0.36765 3.764 2.879 12.728 7.585 19.901 6.719 10.347-1.243 17.127-8.7132 20.145-13.725 3.82-6.342 1.5937-13.961 5.8537-18.78 4.433-5.016 15.135-1.2437 21.092-13.566 6.174-12.771-8.2192-22.968-3.0532-32.038 2.014-3.535 6.1234-4.7569 9.7244-6.3589 0.051-0.022 0.102-0.043 0.153-0.065 1.953-0.86 3.948-1.587 5.822-2.32 3.679-1.438 6.854-2.922 8.085-5.598 2.856-6.215-2.989-11.819 1.964-16.94 5.76-5.955 14.817-7.473 23.168-6.034 7.39 1.274 14.22 4.864 17.727 9.769 0.287 0.401 0.558 0.807 0.799 1.225-13.651 0.573-23.499 7.212-24.214 16.539" fill="#fff798"/>
 <path transform="matrix(.62841 0 0 -.62841 -437.27 400.26)" d="m1143 322.15c-2.585 0.91-2.141 2.156 0.473 1.534 4.026-0.959 7.992-1.039 12.066-0.182 15.275 13.483 22.862 36.136 16.372 50.815-0.062 0.14-0.115 0.283-0.18 0.421-11.126-13.675-26.873-21.416-39.729-21.947-10.598-0.438-17.314 1.7841-17.955 8.2331-0.824 8.325 19.81 22.314 17.663 38.128-0.237 1.755-0.3237 3.896-0.8897 5.501-1.914 5.431-7.9533 10.803-14.641 15.265-1.3627-10.733-0.7545-23.379-3.6795-35.196-1.4-5.656-2.4147-11.391-4.6537-17.168-0.087-0.224-0.238-0.417-0.435-0.553-2.977-2.07-9.697-2.504-15.723-1.931-2.77-8.729-20.661-52.037-26.121-62.205 0.195-0.055 0.389-0.111 0.577-0.194 2.894-1.264 11.465-5.435 17.44-9.082 5.004 1.536 10.091 2.429 13.163 2.163 22.355 6.899 22.846 31.43 14.689 50.898-2.81-7.271-12.122-12.134-19.721-9.488-3.251 1.133-2.771 2.493 0.537 1.766 6.755-1.485 15.829 3.475 17.553 11.963 0.502 2.472 1.377 2.129 2.403 9e-3 9.347-19.3 9.485-38.181-0.536-49.258 21.617-9.584 51.624-4.165 57.87 25.226-8.906-5.9-18.448-7.572-26.542-4.719" fill="#fff798"/>
 <path d="m142.87 96.367c23.421 1.2798 42.916-12.942 47.654-27.245l0.89164 4.8544 5.3498 5.7462 2.9721 6.5387-12.681 2.5758-14.266 5.7462-10.7 7.3314-5.3498 5.1517-1.9814-5.5481-4.9537-3.3685-5.1518-0.99071z" fill="#6a4504" stroke-width="1.7813"/>
 <path transform="matrix(.62841 0 0 -.62841 -437.27 400.26)" d="m742.3 234.5c1.07 1.707 12.008 13.467 12.547 14.129-2.033 2.027-9.0327 8.9573-8.8887 10.862 0.119 1.574 8.8138 13.183 15.536 20.959-0.342 1.659-0.90761 4.7677-1.4836 8.8037-0.399 2.792-1.0793 7.8224-1.5553 11.432-5.769-1.823-11.949-3.1143-16.659-2.0343-0.063 0.014-0.129 0.023-0.192 0.038-1.299-1.47-4.7517-7.2348-6.0427-9.6158 4.01-0.339 8.8154-0.83539 9.4964-0.97739 0.519-0.108 0.953-0.454 1.05-0.976 1.104-5.959-23.848-62.26-12.973-45.467-0.179-0.294-0.354-0.559-0.518-0.762-1.731-2.14-10.103-8.871-16.103-12.189 0.93708-1.3207 16.009 1.5812 18.493 2.0152 1.235 0.216 1.728 0.111 2.621-0.293 1.369-0.622 3.778-1.5935 6.0166-1.939 0.0304 1.736-1.8101 4.9008-1.4551 5.8298 0.013 0.035 0.069 0.117 0.111 0.184" fill="#0f141b"/>
 <path transform="matrix(.62841 0 0 -.62841 -437.27 400.26)" d="m1085.7 284.16c-2.053-1.646-5.0399-3.1427-6.4499-3.6007-1.239-0.404-0.9836-0.64518-1.8676-0.0672-3.691 2.425-11.515 12.226-14.305 15.623-0.172 0.21-1.4976 1.4023-1.6246 1.5563-0.079-1.328-0.3476-5.763-0.2656-8.458 1.651-2.473 3.8724-5.7802 4.9634-7.1442 2.347-2.936 8.9983-9.324 9.5903-11.121 0.11-0.337 0.3715-1.4655 0.1785-2.8955-0.855-6.331-4.4562-20.101-4.4982-20.27-0.449-1.792-3.2133-2.2257-4.1383-2.2257-0.065 0-0.3238 0.0928-0.3888 0.10383-3.206 0.532-27.072 18.885-36.07 27.929-0.574 0.577-1.3225 1.5101-1.7575 1.9981-1.005 1.131-2.8277 6.0702-1.7687 7.9772 1.264 2.275 6.4875 6.2146 7.9666 9.4609-3.94-1.06-10.293-2.0969-11.834-2.0629-1.808 0.04-9.5133 2.321-13.976 4.769 0.886-3.661 0.7389-9.2732 0.5289-10.434-0.036-0.197-0.359-0.59-0.897-1.129-5.617-5.628-35.061-27.113-39.66-29.182-1.717-0.771-6.6927-0.163-8.6487 0.13-4.061 0.606-25.784 8.8545-30.469 12.092-0.442 0.305-0.734 0.568-0.822 0.769-0.893 2.053-0.38352 15.079-0.2891 17.912-3.697-1.741-10.945-5.0879-12.036-5.1419-2.085 0-11.089 1.2864-13.82 1.9464 3.5042-6.8273 11.718-17.181 11.914-17.929 0.477-1.814 1.7355-16.689 2.7995-28.146 3.247 3.033 10.896 9.9654 13.241 9.9964 9.928 0.132 32.148-3.4185 41.925-7.7095 0.994-0.434 1.446-0.788 2.24-1.985 0.1-0.152 0.209-0.319 0.324-0.498 1.79-2.788 4.7559-7.7429 5.5699-9.3099 1.13-2.173 1.056-4.2133-0.095-6.7263-0.426-0.932-1.103-3.5452-1.895-5.0542 3.2569 1.2312 5.7922 3.3108 6.9082 3.6148 1.185 0.325 6.7458 1.6766 8.9508 1.9676 0.039 4.603 1.716 14.507 3.239 20.523 0.463 1.832 1.0348 3.3938 1.5328 4.2608 1.322 2.301 18.745 23.833 21.107 24.129 4.732 0.597 23.747-15.377 27.513-21.564 0.646-1.062 1.9442-5.142 3.3132-10.029 1.413-5.045 3.29-12.055 3.872-16.408 4.686 3.25 20.584 12.553 23.935 12.336 0.889-0.043 2.8076 0.0327 3.8006-0.2003-0.124 1.883 0.1224 6.6551 0.088 11.638-0.08 11.591 0.35 27.167 1.042 28.89 0.157 0.391-0.7836 0.76878 1.6744 1.6018 0.774 0.262 2.4319 0.71922 3.7149 1.0432-0.831 1.267-3.5294 5.8505-4.3564 7.0245" fill="#0f141b"/>
 <path transform="matrix(.62841 0 0 -.62841 -437.27 400.26)" d="m840.11 265.97c2.213-0.459 6.814-0.304 8.853 0.246 0.506 1.131 4.331 10.288 4.705 11.164 1.232 2.884 5.8626 6.882 5.8626 9.055 0 2.87-4.2319 7.3659-5.2949 7.8849-2.704-0.671-21.894-14.222-24.45-16.815 0.664-2.254 7.2552-9.829 10.324-11.535" fill="#505456"/>
 <g stroke-width="1.7813">
  <path d="m120.97 119.45c16.856 6.1726 26.649-3.0288 27.938-13.276l2.4768 3.4675-0.89164 5.5481-2.9721 6.2416-0.29721 4.6564 2.774 3.3685 4.9537 3.4675 5.2508 1.2879 2.5758 0.0991-1.7833 3.2694-4.161 2.675-5.0527 1.8823-5.6471 0.49535-3.9629-0.49535-4.3592-1.5852-3.6656-2.675-0.6935-1.5852 0.0991-3.9629 0.0991-3.0712-0.0991-1.4861-1.0898-1.9815-3.2694-1.6842-4.0619-1.0898-2.5758-1.288z" fill="#ddd483"/>
  <path d="m141.58 142.34 1.5851 19.518 8.8173-19.716-6.0433 0.59442z" fill="#6a4504"/>
  <path d="m148.46 151.52c-2.918 25.482 11.566 52.168 33.434 58.972 19.828 6.1694 41.245 0.38044 58.26-21.185l-11.492 27.74-10.105-3.7646-5.5481 3.1704-7.7275 1.7833-8.9166-4.5573-0.90074-1.4414-14.151-5.3242-11.349 2.9424-17.934 7.4258-2.662 2.2418-1.5412-0.14001v-6.0248l-2.2418-25.5-2.662-25.079 0.56044-2.8022z" fill="#6a4504"/>
 </g>
 <g fill="#505456">
  <path transform="matrix(.62841 0 0 -.62841 -437.27 400.26)" d="m960.78 257.14c1.876-0.329 6.779-0.694 7.824-0.227 4.774 2.146 38.23 27.833 40.114 29.652 0.261 3.144 0.072 10.393-1.3641 11.886-9.797 4.293-21.693 8.4939-23.663 8.7669-5.554 0.777-39.128-13.865-43.799-15.762-1.179-0.478-8.8103-6.4693-9.6943-7.6503-0.728-1.432 0.37589-12.906 0.98289-14.88 2.874-2.508 24.463-10.89 29.599-11.786"/>
  <path transform="matrix(.62841 0 0 -.62841 -437.27 400.26)" d="m731.71 242.3c3.699 4.573 14.058 36.57 13.853 44.261-4.019 0.393-13.671 1.7342-14.705 1.5272-2.673-1.327-31.204-38.368-32.635-42.318 0.013-4.465 1.9375-14.343 2.6525-16.239 1.175-0.404 5.98-0.982 8.774-1.28 1.203-0.13 1.568-0.036 2.69 0.508 3.207 1.543 17.57 11.319 19.37 13.542"/>
  <path transform="matrix(.62841 0 0 -.62841 -437.27 400.26)" d="m1053.7 219.11c0.972 3.594-3.6824 24.742-5.2804 28.107-4.786 5.446-21.065 21.945-27.387 22.978-2.662-2.217-20.141-24.018-21.03-25.763-2.161-4.318-2.8768-21.637-2.5338-24 1.626-1.808 16.489-10.41 18.375-10.999 1.465-0.434 15.645-0.096 17.351 0.213 1.575 0.423 18.74 7.625 20.505 9.464"/>
  <path transform="matrix(.62841 0 0 -.62841 -437.27 400.26)" d="m979.9 226.07c-1.219 2.344-3.1888 8.1063-4.9358 10.553-0.524 0.733-2.1019 2.1153-3.1789 2.5553-9.831 4.02-30.151 7.6143-40.256 7.4533-1.65-0.025-11.124-8.1089-13.626-10.581-1.551-1.534-0.93407-2.3169-1.1321-0.23793-0.673 7.064-1.2051 24.938-1.8071 28.104-0.799 1.88-12.58 19.766-14.156 20.864-1.612 0.851-19.104 5.4433-22.059 5.8943-2.198-2.441-15.859-19.755-16.571-21.262-0.365-0.94-3.4297-26.546-3.8927-28.222-0.363-1.318 0.76288-0.91738-0.45712-0.0154-2.527 1.868-19.305 15.485-23.119 18.99-4.105-1.457-14.385-4.9067-15.363-5.6807-1.777-1.894-15.197-30.079-17.047-35.315 2.721-1.322 18.998-4.9771 23.143-6.0221 7.088-1.791 9.553-2.198 14.697-1.299 3.007 0.528 18.874 4.628 24.689 5.369 0.986 0.127 1.569-0.063 2.794-1.285 1.215-1.214 3.568-3.387 4.599-3.868 5.22-0.332 33.022 0.511 34.265 0.929 1.312 0.442 5.794 3.005 8.505 4.183 0.919 0.401 1.509 0.401 2.297-0.271 3.3-2.823 12.815-12.436 15.36-15.17 12.263 2.167 29.617 8.595 39.65 8.581 0.938-5e-3 1.799 0.534 2.33 1.46 1.468 2.571 3.641 6.589 4.611 8.742 1.395 3.097 1.399 4.134 0.661 5.552"/>
 </g>
 <g stroke-width="1.7813">
  <path d="m139.21 247.74c0.073 1.2944 1.0698 2.473 1.0335 3.8544-0.0582 2.221-0.0704 4.5632 0.56569 6.324 0.94863 2.6257 7.939 8.0487 9.6385 8.8679 2.0549 0.99052 20.979-2.4107 21.828-2.8636 0.90682-0.48339 2.2372-3.3289 2.7356-4.7638 0.49485-1.4244 0.0666-6.9354-0.42385-9.4574l5.114 10.368-4.2032 8.897-5.8146 0.49038-8.897 2.1718-12.049 2.9424-10.508-10.298-5.9546 3.0124-21.297 0.63049-4.7638-3.4326-18.494 3.923-17.654-4.4836-3.2575-1.296s5.5933-4.5687 6.9003-4.7287c1.46-0.17861 10.684 4.6475 12.75 4.6936 1.9621 0.044 12.694-0.90005 13.731-1.8914 0.86418-0.82664 1.7257-7.9721 2.5394-8.0562 1.3873-0.1434 6.8582 9.2094 8.0993 9.2823 4.6945 0.27566 17.824-0.21099 20.535-1.296 2.4995-1.0005 5.3525-15.012 6.1488-25.991 0.074-1.0209 1.1183 2.6244 1.183 1.6886 0.9874 2.351-0.32593 0.85551 0.26014 5.2542 0.28713 2.1549 0.14759 4.2672 0.25429 6.1589z" fill="#333435"/>
  <path d="m147.12 221.9c2.3818 2.8722 16.434 11.288 18.697 11.514 2.2926 0.22922 5.9291 0.35869 7.1525-0.0255 2.0211-0.63441 20.66-14.094 21.297-15.062 0.51163-0.77733 1.5062-4.8338 1.0858-6.305l2.0667 7.2156-0.42033 2.3118-3.993 2.8022-20.246 15.202-2.662 0.6305-4.8338-0.7706-15.132-5.6744-3.3626-2.1016-0.14019-2.4518 0.21018-6.5852z" fill="#333435"/>
  <path d="m27.751 177.68c-0.05408 5.4031 6.3604 3.045 7.4258-0.77059l3.0824 19.055 1.7514 16.113-3.923 0.14019-8.7568-0.21016-6.2348-4.8338-3.3626-6.375v-0.98078l3.1524 1.1209h7.1456l3.923-2.452 0.84066-4.6236-3.1524-5.9546-1.8914-4.8338-0.56044-3.783z" fill="#ddd483"/>
  <path d="m55.214 217.76c-8.1807 0.34018-13.763-7.8941-15.902-11.559l2.452 17.584 3.853-3.2926 9.4574-2.452z" fill="#6a4504"/>
 </g>
 <path transform="matrix(.62841 0 0 -.62841 -437.27 400.26)" d="m758.51 219.89c3.019-5e-3 22.527 2.203 24.458 3.287 2.296 2.712 7.1876 7.459 8.8946 9.751-1.042 1.057-2.699 4.1646-3.706 5.4196-1.06 1.322 0.24289 0.78738 1.0389 2.0514 3.337 5.297 23.511 30.094 23.841 32.082 0.149 2.278-9.0809 19.143-11.145 20.349-1.134 0.299-6.996-0.207-16.885-2.273-8.326-1.739-16.157-4.5646-17.193-5.1916-3.348-2.03-19.026-22.697-20.746-25.951 0.888-1.786 5.4643-7.3293 8.0873-9.8403 0.684-0.655 0.68635-1.3013-0.33465-2.5683-2.397-2.969-10.73-13.154-10.967-13.903-0.189-0.6 3.1085-5.859 3.1085-5.859z" fill="#505456"/>
 <path transform="matrix(.62841 0 0 -.62841 -437.27 400.26)" d="m1096.7 277.37c-2.401-0.053-10.814-2.3244-12.194-3.1344-0.734-3.663 1.0108-35.848 1.4898-39.191 1.754-2.179 11.877-9.679 13.739-9.887 5.694 9e-3 22.774 4.1666 27.307 7.3406-1.439 4.333-10.474 23.323-11.544 24.81-1.229 1.689-16.586 18.323-18.798 20.062" fill="#505456"/>
 <path d="m243.62 244.34c0.72931 1.2247 9.1109 9.5418 10.677 9.5288 1.5178-0.0125 8.4876-2.9344 9.8933-2.9543 1.8517-0.016 5.4118 2.7596 7.1456 3.354l-6.7252 3.5028-10.858 2.1716-10.368-7.2156z" fill="#333435" stroke-width="1.7813"/>
 <path transform="matrix(.62841 0 0 -.62841 -437.27 400.26)" d="m1097.5 293.44c-2.477 0.744-8.7456-0.76039-11.687-1.7674 1.788-1.28 3.0008-2.6587 3.0368-3.3787 0.041-0.831 0.096-1.9135-1.1282-3.1585 1.111-1.277 3.878-5.268 4.922-6.868 1.517 0.296 2.955 0.514 3.793 0.514 0.409 0 0.705-0.05 0.955-0.161 1.392-0.779 7.441-7.308 12.353-12.746-0.376 3.515-1.0833 14.091-1.2803 15.919-0.956 1.324-9.7897 11.296-10.965 11.647" fill="#505456"/>
 <path d="m260.86 158.48c8.8768 0.68052 12.264-7.7409 12.285-12.234l1.387 6.1906-4.161 9.0156-6.0433 8.8173-0.89164 3.4675 2.2787 3.0712 6.5387 1.4861 6.5884 0.34675c-0.20939-0.2094-3.5372 0.3939-5.7451 2.6301-0.99478 1.0075-1.3812 2.4824-0.94234 3.6114 1.2942 3.3289 9.3665 4.6852 16.757-0.17208 11.925-7.8374 10.983-18.8 10.983-18.8l1.4861 6.836-0.19814 7.3314-2.8731 5.5481-5.449 7.6285-3.5666 4.0619 5.449-1.8823 4.26-1.9814-2.1796 7.4304-4.4583 6.0433-5.8452 4.6564-6.0433 2.1796-5.9443 0.39627-5.0527-0.29721-6.2416-1.5852-3.7646-1.8823-2.8731 3.0712-4.5573 1.6842-8.0248 1.387-12.582-6.4396 5.3498-12.285 11.393-27.838 7.8268-0.49535 1.8823-0.79258z" fill="#ddd483" stroke-width="1.7813"/>
 <path d="m246.54 219.37 14.081 3.9932 0.42032 11.279-9.1072-8.897-3.853 0.70054-2.8722-5.8146z" fill="#333435" stroke-width="1.7813"/>
 <path transform="matrix(.62841 0 0 -.62841 -437.27 400.26)" d="m1065.2 301.06c-0.415 0.182-1.4024-5e-3 -1.9434-0.17669-0.552-0.177-1.3002-0.9167-1.4482-1.2297-0.168-0.359 0.4459-1.2624 0.6839-1.5554 5.756-7.116 14.494-15.547 16.275-16.28 1.936 0.276 9.3895 4.982 10.074 6.461-2.858 2.903-19.142 10.825-23.642 12.78" fill="#505456"/>
 <path d="m191.82 244.38s-0.44012 4.3906-0.20976 8.4693c0.193 3.4173 1.0191 6.6008 1.4007 6.9427 1.5144 1.3567 7.255 3.7826 8.897 4.2032 1.3769 0.35272 10.521-1.7793 11.699-2.522 2.6208-1.6523 7.636-14.992 8.4066-17.794 1.0508 3.3626 3.853 15.832 3.853 15.832l0.14019 3.5028-7.4258 3.783-6.5852 2.8022h-10.438l-7.566-3.6428-5.6744-3.923 1.8914-13.801z" fill="#333435" stroke-width="1.7813"/>
 <path transform="matrix(.62841 0 0 -.62841 -437.27 400.26)" d="m1058.9 291.77c-2.371 0.968-13.534 5.1173-14.956 5.1343-1.636-0.196-13.596-9.6076-16.408-14.668-0.307-0.89 2.0142-5.026 2.6822-5.778 7.401-8.328 33.835-28.101 36.775-29.027 0.639 0.052 2.385 0.749 2.825 1.175 0.507 2.151 5.9525 19.361 5.9305 21.684-0.249 0.329-7.0446 8.087-9.4406 11.081-1.88 2.35-6.816 9.5833-7.408 10.398" fill="#505456"/>
 <path d="m208.05 222.09c8.4607 6.9119 23.483 16.414 24.372 15.951 0.69696-0.36403 3.2719-4.5329 6.0433-8.9661l-1.6842 15.207-3.3685 2.1796-2.5263-1.4365-21.598-17.635z" opacity=".33448" stroke-width="1.7813"/>
 <path d="m83.795 224.98c3.1524 2.452 5.7759 4.7203 7.2856 4.7638 3.2536 0.0935 10.999-9.4574 11.699-10.929 0.42032 1.331-0.42032 3.5028-0.42032 3.5028l-2.1016 3.0824-2.8022 7.2156-1.4011 1.8914-2.8022 0.07-2.8022-0.42032-1.1909-1.331-2.3118-2.7322z" fill="#333435" stroke-width="1.7813"/>
 <path transform="matrix(.62841 0 0 -.62841 -437.27 400.26)" d="m858.63 292.09c0.90776-1.8829 1.109-4.308 1.109-5.939 0-0.765-0.473-1.776-1.245-3.107-0.589-1.016-1.347-2.214-2.228-3.661-0.784-1.286-1.524-2.502-1.862-3.238-0.335-0.721-2.7958-8.1428-3.7778-10.457-0.415-0.976-0.999-1.222-1.801-1.41-2.871-0.678-8.0102-0.90841-9.3372-0.16941-2.145 1.193-5.6242 4.3616-8.0502 7.7846-1.351 1.907-2.1411 3.6966-2.5351 4.9676-0.174 0.556-0.32182 1.4882-0.25882 1.7792-3.871 0.03-9.0465 0.57373-9.9685 0.70673-1.061 0.151-6.0722 3.9053-9.6316 5.4658 2.0584-4.6938 4.0668-10.825 3.9098-12.265-0.057-0.529-0.29604-1.4937-1.06-2.6907-3.853-6.034-15.078-19.548-23.341-30.497 0.739-0.827 2.3338-2.54 3.4958-3.653 0.727-0.695 1.0486-0.87309 1.4396-1.2661 0.439-0.442 0.628-0.65 0.388-1.127-0.064-0.127-0.142-0.262-0.274-0.44-0.403-0.545-2.7641-3.6068-4.9781-6.4088 3.3905-0.21261 11.631 0.30239 14.928-0.0256 0.738 1.564 2.0009 3.6492 2.8649 5.4092 4.902 9.994 11.043 22.138 12.246 23.168 1.399 1.199 11.366 4.9301 14.424 6.0691 0.504 0.188 0.81 0.301 0.83 0.307 0.438 0.15 0.92 0.042 1.245-0.284 0.476-0.477 1.4444-1.6418 3.3354-3.3418 5.357-4.814 15.422-13.548 19.368-16.762 0.88555 2.8064 3.659 28.289 4.092 29.263s8.5803 12.158 13.435 18.24c-3.754 1.05-13.695 3.5811-16.762 3.5827" fill="#0f141b"/>
 <path d="m67.074 134.92c12.596 7.3695 35.84 1.605 38.341-7.0341l-0.29721 4.3592-2.774 4.3592-5.8452 3.8639-8.2229 1.7833-7.5294-0.0991-5.6471-0.99073-5.5481-2.774z" fill="#cc5f71" stroke-width="1.7813"/>
 <g fill="#f6bdc0">
  <path transform="matrix(.62841 0 0 -.62841 -437.27 400.26)" d="m817.09 439.67c-4.321-1.875-7.758-5.339-6.599-8.423 1.05-2.792 5.76-2.762 10.659-0.778 4.544 1.838 8.249 5.182 6.787 8.497-1.286 2.916-6.475 2.601-10.847 0.704"/>
  <path transform="matrix(.62841 0 0 -.62841 -437.27 400.26)" d="m922.01 553.54c-4.374-1.239-7.621-4.275-6.875-6.79 0.755-2.55 4.876-3.355 9.576-1.925 4.797 1.458 7.757 4.793 6.55 7.217-1.224 2.459-5.202 2.641-9.251 1.498"/>
  <path transform="matrix(.62841 0 0 -.62841 -437.27 400.26)" d="m1010.7 389.98c-0.196-2.751 2.878-4.523 6.796-4.91 4.705-0.47 7.864 1.164 8.067 3.53 0.217 2.516-2.853 4.792-7.292 5.024-4.539 0.238-7.402-1.316-7.571-3.644"/>
 </g>
 <g fill="#fffcd1" stroke-width="1.7813">
  <path d="m91.291 31.768s0.5923 2.0225 1.1787 3.4794c0.61719 1.5336 1.1613 3.0468 2.3688 3.4675 1.7899 0.62354 3.8519-0.50561 6.2571-0.93929 3.2573-0.5873 5.7476-0.33321 5.7476-0.33321l-2.3649 8.0924s-2.566-0.74473-5.353-0.47038c-2.8114 0.27675-4.4186 1.9844-7.7997 1.2398-1.1779-0.25934-2.3255-1.6494-2.9933-3.2774-0.71868-1.7519-0.91311-3.7402-0.91311-3.7402z"/>
  <path d="m191.89 36.952c2.8514 1.9507 8.0931 0.27273 8.5466-2.592l4.2032 8.1964c-1.6408 3.0924-6.4701 4.2725-9.7376 3.4326-0.78333-2.4438-2.7911-7.5749-3.0124-9.037z"/>
  <path d="m230.28 94.96c4.6587 0.10153 11.823-2.0521 12.362-5.1721l4.7312 6.1358c-0.42234 3.0256-4.0913 3.8362-6.1612 4.0511l-6.4485-0.0411z"/>
 </g>
 <g stroke-width="1.7813">
  <path d="m148.82 104.99c1.3242-2.484 0.50007-5.549-0.39629-6.935l3.9629 1.4861 1.9814 2.1796 2.1796 3.5666v3.7648l-0.19813 3.9629-1.9815 3.3685-0.59443 4.7554 0.99072 2.1796 1.7833 1.387 2.774 0.79258 3.5666 0.39629-0.39629 2.1796-1.9814 2.1796-2.774 1.7833-2.3777 0.59442-2.774-0.99071-2.3777-1.5852-1.387-1.9814-1.5852-3.7648v-2.9721l2.3777-5.5481 1.387-3.7648v-2.9721z" fill="#ddd483"/>
  <path d="m118.96 88.654c0-0.55264 7.1251 1.5736 9.804-0.30074 2.1577-1.5096 0.90776-5.653 2.9338-7.3351 1.044-0.86681 3.0168 0.15141 3.9932-0.79112 0.90662-0.87527 0.86469-3.6804 0.86469-3.6804l3.7009 6.0127-0.49039 3.0124s-0.66568 1.0022-1.1824 1.2525c-1.0451 0.50612-2.4516-0.25202-3.4702 0.30555-1.5458 0.84614-1.4806 3.4461-3.2285 4.1863-4.6159 1.9543-12.925-1.89-12.925-2.662z" fill="#fffcd1"/>
  <path d="m18.171 90.008s0.69676 0.96202 1.5237 0.96325c1.054 2e-3 1.7631-1.0918 2.7146-0.96325 2.1169 0.28596 2.8528 2.9427 4.7461 3.3366 1.6676 0.34691 3.1401-1.1154 5.0053-1.0278 1.0849 0.0509 2.3399 0.39463 3.1483 1.0662 1.4829 1.2319 2.2913 3.3184 3.643 4.969 1.2569 1.5348 2.727 2.8685 4.5283 3.1408 1.8301 0.27675 4.8712-1.1312 5.0415-0.92425 0.3776 0.45904-4.5962 5.8675-8.6764 5.6719-2.4514-0.11757-3.9365-2.3633-5.4136-4.4043-1.0378-1.4341-2.0008-2.8558-3.5986-2.9841-2.3155-0.18572-3.6259 3.5671-6.0246 3.5028-2.1078-0.0565-2.7894-2.4518-4.7638-2.5569-1.3824-0.0738-2.9422 1.6463-2.9422 1.6463l-1.6813-4.3083 1.4711-6.0948z" fill="#fffcd1"/>
  <path d="m3.8638 146.83c4.2141 3.8448 9.3546 3.8815 12.625 1.0431 2.6002-2.2562 3.9096-6.3476 3.4169-11.656l2.522 5.8146-0.7706 5.7444-1.4711 3.783-4.8338 3.0124-2.9422 0.49038-3.1524-1.6813-3.7128-2.4518-1.8214-3.5028z" fill="#ddd483"/>
  <path d="m8.2067 156.75c4.9038 1.1909 13.384 2.1091 20.517-3.7 5.1918-4.2283 4.1389-13.859 4.695-14.398 0.68677-0.66566 7.3654-1.1966 10.592-4.6542 2.3464-2.5149 2.7555-5.2086 2.5079-7.8834 1.5712 1.6511 2.8807 8.2885 2.8807 8.2885l-1.6113 4.6936-5.9546 3.783-2.452 0.70055-0.07006 3.6428-2.452 6.9354-4.7638 3.783-4.0632 2.522-4.2734 0.84066-4.3434 0.70056-3.6428-0.49038-3.5728-1.5412z" fill="#ddd483"/>
  <path d="m225.29 169.38c-8.8581 8.1786-32.826-4.2937-34.378-10.204l0.69351 3.5666 2.3777 3.7648 4.7554 4.3592 6.4396 3.5666 7.1331 1.7833 6.4396-0.59443 3.9629-1.2879 1.1889-1.6842z" fill="#cc5f71"/>
  <path d="m133.65 64.072c4.2292 3.0786 32.023 5.3698 36.161-7.2323l-0.29725 5.449-2.675 3.5666-6.0433 3.1704-8.322 1.8823h-6.836l-6.5387-1.9815-4.4583-2.1796z" fill="#cc5f71"/>
  <path d="m30.133 253.76s7.0684 4.0523 9.037 4.1332c3.8186 0.15694 21.716-4.3434 21.716-4.3434l-5.254 7.2856-15.972 2.662-8.967-5.6744z" fill="#333435"/>
  <path d="m31.738 237.77c5.4275-5.1259 12.15-10.725 15.225-13.262 3.2986-1.6712 13.701-5.7994 20.904-8.1034l-3.2694-0.34675-11.79 1.9814-8.1239 2.5758-7.3314 8.6193-5.4489 7.1671z" fill="#a6abae"/>
  <path d="m57.245 250.06s-2.8435-2.1386-2.8722-3.4326c-0.01176-0.52661 2.9873-3.8517 6.2594-7.4806 3.998-4.4341 8.8934-9.3571 9.643-9.6827 1.0743-0.46672 3.0432-0.68852 3.2413-0.68852z" fill="#333435"/>
  <path d="m1.2898 246.57s4.0855 4.2939 5.6471 4.26c3.685-0.0796 11.088-5.0527 13.276-7.7275 2.1153-2.5866 9.511-19.518 10.997-23.084l-1.1889 10.403-4.9537 14.564-1.7833 4.161-11.988 8.0248-2.774 1.0898-5.4489-0.79258-0.99072-0.89165-0.19814-4.3592z" fill="#333435"/>
  <path d="m229.51 211.67c2.3284 1.7689 9.5644 8.3148 11.316 8.444 1.2678 0.0935 5.9872-1.2284 5.9872-1.2284l-3.5028 3.713-2.7322 1.4711-8.4066-7.9162-2.9422-3.2926s-4e-3 -1.4066 0.28022-1.1909z" fill="#353839"/>
  <path d="m1.5517 246c2.4003-2.9354 7.2024-7.4773 11.081-12.098 4.7422-5.6505 9.6378-10.207 10.761-10.81 2.0432-1.0962 5.5857-2.3018 7.8581-2.5555 0.56641-0.0632-0.03194 0.74415 0.33377 0.74415-0.23918-1.3414-9.3672-1.6913-9.3672-1.6913l-5.254 4.9038-8.3366 9.8076-6.7252 9.1772z" fill="#a6abae"/>
 </g>
 <path d="m249.13 120.67c0-0.82073 2.2963 0.51052 5.9816-0.31736 2.7177-0.61052 3.3186-3.0835 3.3186-3.0835l1.602 5.6744c-0.0989 0.25954-2.9797 0.8123-5.7886 0.59282-3.2321-0.25255-5.1137-1.4976-5.1137-2.8664z" fill="#fffcd1"/>
 <path transform="matrix(.62841 0 0 -.62841 -437.27 400.26)" d="m836.56 412.31c-14.428-1.688-26.058 1.578-30.758 8.24-1.256 1.781-2.046 3.791-2.227 6.03-0.774 9.559 10.901 17.86 27.591 19.479 18.776 1.816 30.403-5.073 31.263-13.12 0-6e-3 3e-3 -0.012 3e-3 -0.018 1.048-10.009-10.01-18.756-25.872-20.611m-5.626 36.348c-18.329-1.778-31.36-11.163-30.463-22.247 0.263-3.252 1.569-6.195 3.759-8.706 5.524-6.332 16.855-9.833 32.609-7.988 15.878 1.857 26.673 9.316 27.935 19.579 0.154 1.254 0.192 2.543 0.053 3.876-1.177 11.253-15.408 17.27-33.893 15.486m238.03-45.825c-0.838-1.955-2.467-2.967-3.596-2.303-1.104 0.646-1.314 2.25-0.401 4.268 0.743 1.64 2.635 3.91 3.903 3.437 1.093-0.409 1.089-3.077 0.094-5.402m-5.567-13.514c-1.146-2.422-3.199-4.88-4.581-4.222-1.302 0.622-1.041 4.056-0.126 6.26 1.057 2.543 2.85 3.71 4.278 3.077 1.498-0.666 1.264-3.348 0.429-5.115m6.558 21.482c-2.674 1.155-7.522-1.986-11.486-11.322-3.991-9.399-4.275-14.758-1.196-16.635 3.47-2.115 8.244 2.754 12.07 11.217 3.612 7.998 3.807 15.36 0.612 16.74m-265.96 51.53c1.793 0.268 3.223-1.685 3.603-4.32 0.341-2.372-0.187-6.796-1.967-6.898-1.893-0.108-3.427 3.322-3.828 5.858-0.418 2.653 0.32 5.079 2.192 5.36m-1.816 16.095c1.272 0.208 2.599-2.103 3.04-4.689 0.508-2.986-0.474-5.021-1.844-5.223-1.522-0.223-2.93 1.309-3.319 4.471-0.249 2.01 0.508 5.175 2.123 5.441m3.879-30.001c4.363 0.53 5.286 8.59 3.929 17.681-1.637 10.955-3.919 15.418-7.609 15.418-0.232 0-0.47-0.021-0.712-0.063-2.962-0.514-6.245-3.935-4.353-17.39 1.478-10.521 4.921-16.12 8.745-15.646m99.546 143.28c1.241 0.141 2.229-2.513 2.454-4.457 0.269-2.319-0.339-4.202-1.89-4.4-1.637-0.209-2.648 1.657-2.708 4.033-0.047 1.883 0.8 4.671 2.144 4.824m4.621-22.196c0.122-3.205-0.553-6.061-2.012-6.26-1.496-0.204-3.274 2.433-3.716 5.707-0.404 2.984 0.557 5.178 2.411 5.374 1.607 0.171 3.207-1.902 3.317-4.821m-1.593-8.943c3.772 0.366 5.362 6.06 4.387 17.429-0.662 7.708-3.044 17.151-7.87 16.547-5.844-0.731-5.551-13.651-5.237-17.566 0.957-11.963 4.633-16.827 8.72-16.41m203.04-258.92c10.021 11.077 9.883 29.958 0.535 49.257-1.026 2.121-1.901 2.464-2.402-8e-3 -1.724-8.488-10.798-13.448-17.554-11.963-3.308 0.727-3.787-0.633-0.536-1.767 7.599-2.645 16.91 2.218 19.721 9.489 8.157-19.468 7.665-43.999-14.689-50.898-3.072 0.266-8.159-0.627-13.164-2.164-5.974 3.648-14.545 7.819-17.439 9.083-0.188 0.082-0.383 0.138-0.577 0.194 5.46 10.168 23.35 53.476 26.121 62.205 6.025-0.574 12.745-0.139 15.722 1.931 0.198 0.136 0.349 0.329 0.436 0.553 2.239 5.777 4.042 11.512 5.442 17.168 2.925 11.817 4.05 23.281 3.443 34.014 6.687-4.462 10.598-9.125 12.513-14.556 0.565-1.605 0.967-3.274 1.205-5.028 2.147-15.814-17.226-29.803-16.402-38.128 0.641-6.449 9.091-10.09 19.688-9.652 12.856 0.531 28.876 7.071 37.996 21.972 0.064-0.139 0.118-0.281 0.18-0.421 6.489-14.68-1.097-35.939-16.373-49.423-4.073-0.856-8.039-0.776-12.066 0.183-2.614 0.622-3.057-0.625-0.472-1.534 8.093-2.854 17.636-1.181 26.541 4.719-6.245-29.391-36.252-34.81-57.869-25.226m-3.706-19.679c0.197-1.828 1.406-12.571 1.782-16.086-4.912 5.438-10.961 11.967-12.353 12.746-0.25 0.111-0.546 0.161-0.955 0.161-0.838 0-2.276-0.218-3.793-0.515-1.044 1.601-3.811 5.592-4.922 6.869 1.224 1.245 2.061 2.438 2.02 3.27-0.036 0.72-1.193 1.82-2.981 3.1 2.941 1.007 8.262 1.954 10.739 1.21 1.175-0.351 9.506-9.431 10.463-10.755m6.288-25.209c1.07-1.487 10.328-19.585 11.767-23.918-4.533-3.174-20.61-7.666-26.304-7.675-1.862 0.208-11.985 7.708-13.739 9.887-0.478 3.343-1.109 35.082-0.375 38.745 1.38 0.81 8.455 2.524 10.856 2.577 2.212-1.739 16.567-17.927 17.795-19.616m-30.839 18.123c-0.693-1.723-0.9-17.689-0.819-29.28 0.034-4.983 0.121-9.143 0.246-11.026-0.993 0.234-2.187 0.437-3.076 0.48-3.351 0.217-18.674-8.48-23.361-11.73-0.581 4.353-1.985 10.259-3.398 15.304-1.369 4.887-2.746 8.967-3.392 10.028-3.766 6.188-24.121 23.108-28.853 22.511-2.363-0.296-20.89-22.853-22.211-25.154-0.498-0.867-0.991-2.35-1.455-4.182-1.522-6.016-2.727-15.841-2.765-20.444-2.205-0.291-7.214-1.013-8.4-1.338-1.115-0.304-3.335-1.752-5.647-3.536 0.792 1.51 1.47 2.862 1.896 3.794 1.151 2.513 1.224 4.711 0.095 6.884-0.815 1.567-4.174 7.389-5.965 10.177-0.114 0.179-0.223 0.346-0.323 0.498-0.794 1.197-1.246 1.551-2.24 1.985-9.777 4.291-32.943 8.078-42.872 7.946-2.344-0.031-8.732-6.254-11.979-9.287-1.065 11.457-2.086 24.44-2.563 26.254-0.196 0.748-6.676 10.55-11.205 16.589 2.731-0.66 9.922-2.105 12.007-2.105 1.091 0.055 8.103 3.795 11.8 5.537-1.198-2.833-1.471-15.623-0.578-17.677 0.087-0.2 0.379-0.463 0.822-0.768 4.684-3.237 27.512-11.722 31.572-12.328 1.956-0.293 7.248-0.902 8.965-0.13 4.598 2.069 35.147 24.579 40.764 30.206 0.538 0.539 0.861 0.933 0.897 1.13 0.21 1.161-0.037 5.511-0.923 9.173 4.463-2.449 10.907-4.729 12.714-4.769 1.541-0.034 6.87 1.397 10.81 2.457-3.371-2.931-6.546-6.24-7.81-8.515-1.059-1.908 1.08-7.871 2.085-9.002 0.434-0.489 0.947-1.027 1.521-1.604 8.998-9.045 33.928-27.988 37.134-28.521 0.065-0.011 0.245-0.024 0.31-0.024 0.925 0 4.732 1.075 5.181 2.867 0.042 0.169 3.253 14.664 4.107 20.995 0.193 1.43 0.267 2.446 0.156 2.784-0.592 1.797-7.522 8.408-9.869 11.344-1.091 1.364-3.201 4.504-4.851 6.977-0.083 2.695-0.093 5.848-0.013 7.176 0.126-0.154 0.282-0.344 0.454-0.553 2.79-3.397 11.226-13.644 14.918-16.069 0.883-0.578 1.186-0.727 2.425-0.323 1.41 0.458 3.727 1.899 5.781 3.545 0.827-1.174 2.968-4.364 3.799-5.631-1.284-0.324-2.273-0.614-3.046-0.876-2.459-0.833-2.688-1.378-2.845-1.769m-29.742-55.768c-1.765-1.838-18.93-9.041-20.504-9.463-1.707-0.31-15.887-0.647-17.352-0.213-1.886 0.588-16.749 9.19-18.375 10.998-0.342 2.364 1.634 19.682 3.795 24.001 0.889 1.744 17.107 21.968 19.769 24.186 6.322-1.034 21.498-15.956 26.283-21.402 1.599-3.365 7.356-24.513 6.384-28.107m-79.088-7.335c-0.531-0.926-1.392-1.465-2.329-1.459-10.034 0.013-27.388-6.415-39.651-8.582-2.545 2.734-12.06 12.347-15.36 15.17-0.788 0.672-1.378 0.672-2.297 0.271-2.711-1.178-7.193-3.741-8.505-4.183-1.242-0.418-29.045-1.261-34.265-0.929-1.031 0.481-3.384 2.654-4.599 3.868-1.225 1.222-1.808 1.413-2.793 1.285-5.816-0.741-21.683-4.841-24.69-5.369-5.144-0.898-7.608-0.492-14.697 1.3-4.145 1.045-19.161 5.645-21.882 6.967 1.85 5.236 14.639 31.214 16.416 33.108 0.979 0.774 9.84 4.067 13.944 5.524 3.814-3.506 21.224-17.91 23.751-19.779 1.219-0.902 1.512-0.672 1.875 0.647 0.464 1.675 4.316 28.385 4.681 29.325 0.712 1.507 12.639 17.717 14.837 20.158 2.956-0.45 19.186-4.728 20.798-5.579 1.576-1.098 12.884-17.88 13.683-19.76 0.603-3.165 2.553-20.882 3.226-27.946 0.198-2.079 0.527-2.242 2.078-0.708 2.502 2.472 11.03 9.611 12.68 9.635 10.106 0.161 30.11-3.118 39.941-7.138 1.077-0.44 1.709-1.034 2.233-1.767 1.747-2.446 4.978-7.42 6.197-9.765 0.738-1.418 0.734-2.455-0.661-5.551-0.97-2.154-3.143-6.171-4.611-8.743m-184.61 14.909c2.214 2.803 4.38 5.614 4.783 6.159 0.133 0.178 0.211 0.313 0.275 0.44 0.24 0.477 0.05 0.685-0.388 1.127-0.391 0.393-1.048 1.017-1.774 1.712-1.163 1.113-2.507 2.408-3.246 3.235 8.264 10.949 19.966 24.463 23.818 30.497 0.764 1.197 1.226 2.106 1.284 2.635 0.156 1.44-1.884 6.065-4.376 10.68 2.849-1.994 6.828-4.62 7.888-4.771 0.923-0.133 5.861-0.322 9.732-0.352-0.062-0.291 6e-3 -0.632 0.18-1.188 0.395-1.271 1.46-3.1 2.812-5.007 2.426-3.423 5.786-7.104 7.932-8.297 1.327-0.739 7.687-0.548 10.558 0.13 0.802 0.188 1.387 0.434 1.802 1.41 0.981 2.314 4.221 10.55 4.556 11.271 0.339 0.736 1.078 1.952 1.862 3.238 0.881 1.447 1.639 2.645 2.228 3.661 0.772 1.331 1.246 2.342 1.246 3.107 0 1.631-0.744 3.439-1.771 5.046 3.068-0.514 11.157-2.178 14.911-3.228-4.856-6.082-12.688-16.832-13.121-17.806s-3.167-25.511-3.619-28.278c-3.945 3.214-13.302 11.436-18.658 16.25-1.891 1.7-3.294 2.983-3.769 3.46-0.325 0.326-0.808 0.434-1.246 0.284-0.019-6e-3 -0.326-0.119-0.829-0.307-3.058-1.139-13.657-5.146-15.056-6.345-1.203-1.03-7.549-13.05-12.451-23.044-0.863-1.76-1.681-3.455-2.419-5.019-3.296 0.328-9.865-0.187-13.144-0.7m-7.042-3.51c-1.931-1.083-21.439-3.292-24.458-3.287l-11.547 7.354s-1.721 5.259-1.532 5.859c0.237 0.749 8.57 11.092 10.967 14.061 1.021 1.267 0.861 2.071 0.177 2.726-2.623 2.511-7.357 7.739-8.245 9.525 1.72 3.254 17.24 23.29 20.588 25.32 1.037 0.627 7.763 2.822 16.089 4.561 9.889 2.066 15.278 2.572 16.412 2.273 2.064-1.205 10.349-16.337 10.199-18.615-0.33-1.988-21.608-27.258-24.945-32.555-0.796-1.263-0.68-1.36 0.38-2.682 1.007-1.255 2.664-3.259 3.707-4.316-1.708-2.292-5.495-7.511-7.792-10.224m-39.942 6.207c-1.736 0.68-3.923 1.54-5.292 2.162-0.893 0.404-1.386 0.509-2.621 0.293-2.484-0.434-17.388-3.113-17.489-3.129 5.999 3.317 14.855 9.159 16.585 11.299 0.164 0.203 0.339 0.468 0.518 0.762 4.393 7.201 13.037 40.648 11.933 46.607-0.096 0.522-0.53 0.868-1.05 0.976-0.681 0.142-5.347 0.722-9.356 1.061 1.29 2.381 4.464 7.254 5.763 8.724 0.063-0.015 0.129-0.024 0.192-0.038 4.71-1.08 10.069-0.948 15.837 0.875 0.476-3.61 0.92-6.868 1.318-9.66 0.577-4.036 1.058-7.089 1.4-8.748-6.722-7.776-15.584-19.441-15.703-21.015-0.144-1.905 6.8-8.891 8.833-10.918-0.538-0.662-10.529-12.422-11.599-14.129-0.042-0.067-0.097-0.149-0.111-0.184-0.355-0.929 0.315-3.201 0.842-4.938m-33.38-1.13c-2.794 0.298-7.599 0.876-8.774 1.28-0.715 1.896-1.063 11.932-1.076 16.397 1.431 3.951 28.858 38.942 31.531 40.269 1.034 0.207 8.952 0.127 12.971-0.265 0.205-7.692-8.893-39.058-12.592-43.631-1.8-2.223-16.163-11.999-19.37-13.542-1.122-0.544-1.487-0.638-2.69-0.508m16.067 88.723c9.199-2.795 21.528-1.789 23.368 6.92 2.012 9.52-8.88 14.066-8.885 26.633 0 7e-3 -1e-3 0.013-1e-3 0.019 5e-3 9.702 3.555 16.999 8.961 22.569 0.559-5.027 1.272-11.3 2.071-18.2 1.973-17.041 4.473-37.927 6.494-53.456-18.454-5.827-28.948 5.749-32.008 15.515m-14.74 69.943c-0.177 0.163-0.364 0.31-0.538 0.481 12.056 1.056 20.412 6.644 22.218 15.299 1.793 8.585-2.367 15.239-5.53 19.839-1.965 2.861-3.234 1.868-1.349-1.083 0.307-0.48 0.609-0.975 0.905-1.48 2.59-4.414 4.592-9.819 3.165-16.656-1.403-6.716-6.67-10.458-12.884-12.273-5.616 1.509-12.554 7.068-13.853 11.122-7e-3 0.022-0.019 0.045-0.026 0.067 7.21-1.77 17.164 1.133 18.247 9.798 1.504 12.036-10.72 18.356-6.37 30.876 2.914 8.397 12.584 8.177 13.967 17.23 1.082 7.098-3.969 11.214-5.985 17.26-1.168 3.5-1.321 7.645 1.33 13.396 0.345 0.749 0.707 1.444 1.078 2.106 6.581 11.733 17.136 10.533 27.016 20.863 7.624 7.969 3.662 14.229 9.905 23.854 5.908 9.11 22.119 16.289 33.647 13.318 9.085-2.344 15.423-8.033 24.364-8.179 0.295-0.039 0.687 0.141 0.919 0.404 8.069 9.097 18.128 16.658 36.946 13.446 22.52-3.844 13.25-19.872 28.25-29.366 7.696-4.871 18.594-3.357 26.033-13.135 1.56-2.051 2.971-4.586 4.165-7.793 0.997-2.681 1.107-5.189 0.768-7.564-0.973-6.8-5.695-12.483-4.308-17.8 2.098-8.045 14.44-5.866 20.22-14.745 0.566-0.869 1.072-1.838 1.496-2.938 2.944-7.639-6.308-16.613-5.726-24.187 0.714-9.327 10.562-15.967 24.213-16.539-0.24-0.418-0.512-0.825-0.798-1.226-3.507-4.904-10.338-8.495-17.727-9.768-8.352-1.44-17.408 0.079-23.168 6.033-4.953 5.121 0.891 10.725-1.965 16.94-1.23 2.677-4.405 4.16-8.084 5.599-1.874 0.732-3.87 1.459-5.822 2.319-0.051 0.023-0.103 0.043-0.154 0.066-3.601 1.602-7.001 3.69-9.014 7.225-5.166 9.07 10.251 18.636 4.077 31.408-5.956 12.322-17.367 9.338-21.801 14.353-4.259 4.82-1.876 11.73-5.695 18.072-3.018 5.012-10.98 13.506-21.327 14.749-7.174 0.866-16.137-4.313-19.901-7.192-11.728 3.503-16.469 3.535-24.253-0.209-6.255-3.008-14.292-12.429-17.13-23.988-2.307-9.405 4.059-14.864 1.068-25.499-2.871-10.213-15.64-12.364-17.037-21.723-1.077-7.211 3.293-11.63 5.96-17.787 1.284-2.965 2.179-6.329 1.87-10.612-0.472-6.571-7.421-10.826-13.589-11.852-0.867-0.144-1.073-0.395-1.003-1.28 1.732-22.017-30.749-35.991-46.79-21.249m123.78 183.95c1.839 4.201 3.891 8.297 6.12 12.26 15.292 27.193 39.124 47.916 62.991 50.348 6.105 0.621 15.754-0.809 21.317-3.452 0.345-0.164 0.747-0.154 1.085 0.026 5.969 3.198 10.579 4.182 16.49 4.07 27.53-0.581 53.688-22.113 71.569-53.549 2.22-3.902 4.304-7.961 6.254-12.146 6.473-13.89 11.411-29.214 14.298-45.23 0.345-1.913 0.974-4.162 1.988-6.548-0.723 0.703-1.311 1.396-1.752 2.058-2.331 3.491-3.787 2.708-1.637-0.819 2.254-3.694 6.731-7.024 12.295-9.264 12.071-4.861 22.537-7.475 32.62-13.599 1.173-0.712 2.253-1.52 3.258-2.391 3.179-2.752 5.511-6.214 6.938-9.931 1.116-2.905 1.676-5.958 1.661-8.945-0.254 0.199-0.497 0.408-0.754 0.603-2.124 1.613-4.512 2.851-7.047 3.713-4.093 1.391-8.574 1.792-12.987 1.121-1.751 2.218-3.661 4.265-5.692 6.167-10.407 9.746-24.362 15.283-40.78 15.721-2.719 0.071-5.481 2e-3 -8.267-0.192-1.516 10.297-14.541 13.523-14.946 29.811-0.355 14.156 7.958 19.462 6.997 30.901-0.034 0.407-0.097 0.818-0.144 1.227-0.494 4.326-1.671 8.755-3.478 13.152-10.206 24.83-40.185 48.51-76.981 45.287-28.893-2.528-52.641-20.168-62.32-44.952-1.497-3.833-2.654-7.837-3.444-11.982-0.308-1.616-0.562-3.251-0.756-4.907-0.35 0.068-0.684 0.143-1.048 0.207-13.572 2.351-22.862-0.926-30.099-6.282 1.661 5.963 3.763 11.833 6.251 17.517m84.666-63.583c-7.031 18.884-23.42 16.835-31.726 22.179-11.958 7.695-4.854 23.696-24.875 29.232 3.668 32.362 29.533 57.195 63.561 60.172 41.835 3.652 75.005-30.092 77.312-57.501 0.899-10.667-7.096-15.928-6.728-30.727 0.086-3.421 0.618-6.22 1.431-8.601 3.319-9.728 11.364-12.429 13.269-21.417-24.73-2.533-50.856-14.876-65.658-31.695-0.427 1.355-1.029 2.775-1.853 4.27-3.107 5.636-7.181 7.94-11.211 9.19-6.813 2.115-13.494 1.223-15.178 8.244 1.946 4.759 3.951 10.486 1.656 16.654m18.051-42.942c-0.985 2.351-2.257 4.197-3.69 5.693-6.709 7.004-16.999 6.14-18.401 11.519-0.409 1.572 0.169 3.543 1.058 5.821 2.886-6.223 9.489-5.395 15.787-7.534 3.497-1.188 6.898-3.292 9.513-8.036 7.743-14.049-7.087-21.547-1.267-31.089 2.026-3.322 6.606-5.071 13.475-5.341-2.025-5.57-7.763-7.727-13.483-7.502-5.342 2.536-8.731 6.535-9.023 11.387-0.397 6.59 9.633 16.479 6.031 25.082m-15.233-55.352c4.318-0.872 8.877-0.842 13.238-0.033-1.635-3.475-8.025-17.667-11.024-24.417-1.169 12.819-2.034 22.339-2.214 24.45m-63.822-122.56c0-2.173-3.527-6.171-4.759-9.054-0.374-0.877-4.199-10.034-4.705-11.164-2.039-0.551-6.64-0.706-8.853-0.247-3.069 1.706-8.399 9.282-9.063 11.535 2.556 2.593 20.327 14.725 23.031 15.397 1.063-0.52 4.349-3.597 4.349-6.467m-0.639 7.781c-0.262 0.037-0.515 0.072-0.735 0.1-1.085 1.035-2.149 1.702-2.858 1.702h-3e-3c-2.51-0.236-17.433-10.391-23.496-15.273-5.982-4e-3 -11.447-0.049-11.999 0.025-0.965 0.3-8.352 5.511-11.394 7.724-1.94 3.087-3.743 5.444-4.659 5.699-2.62 0.731-14.225-1.335-23.452-3.454-5.747-1.32-10.574-2.66-11.726-3.358-0.806-0.489-2.214-1.852-3.938-3.717-0.652 2.929-1.898 11.701-3.366 22.97-3.721 28.564-8.873 73.191-9.438 79.581 5.961 4.993 9.876 12.172 9.507 21.083 7.024 1.731 14.652 6.387 15.184 13.785 0.937 13.002-9.403 19.317-8.073 28.244 1.234 8.271 14.003 10.635 17.006 21.296 3.009 10.682-2.706 17.989-0.838 25.595 2.363 9.624 9.991 19.495 15.234 22.068 7.049 3.458 11.865 3.754 23.025 0.674 0.374-0.103 0.766-0.02 1.067 0.216 2.987 2.361 13.004 7.336 18.695 6.653 8.204-0.984 14.915-7.119 19.127-13.797 3.06-4.853 1.466-13.282 6.209-18.64 4.316-4.87 15.296-1.75 21.062-13.674 5.73-11.849-10.267-20.411-4.199-31.513 3.008-5.505 10.903-7.933 16.813-10.271 3.34-1.321 6.048-2.614 6.876-4.417 2.06-4.486-4-12.455 2.021-18.129 2.825-2.663 6.216-4.503 9.866-5.638 0.546-6.814 9.958-114.72 10.426-121.25-3.441-1.737-10.284-5.238-12.742-6.495-1.679 0.288-11.146 1.989-14.548 2.786-0.562 0.637-1.003 1.063-1.279 1.209-1.739 0.921-17.527 5.582-21.764 6.295-0.82 0.136-1.608-0.071-2.158-0.649-0.263-0.276-0.583-0.636-0.939-1.052-3.67 1.09-14.025 2.989-18.514 3.621m150.94-7.645c-1.885-1.82-35.341-27.507-40.114-29.652-1.045-0.468-5.949-0.103-7.824 0.226-5.136 0.896-26.726 9.279-29.6 11.786-0.607 1.975-0.292 12.976 0.437 14.408 0.883 1.18 7.726 6.856 8.905 7.335 4.671 1.896 38.245 15.593 43.799 14.816 1.97-0.274 12.29-3.528 22.087-7.822 1.436-1.493 2.571-7.954 2.31-11.097m56.237-5.668c2.396-2.994 9.034-10.279 9.283-10.608 0.022-2.323-3.847-19.533-4.354-21.684-0.44-0.426-2.186-1.123-2.825-1.175-2.94 0.926-29.374 20.699-36.775 29.027-0.668 0.752-1.728 4.888-1.421 5.778 2.812 5.059 13.511 13.368 15.147 13.564 1.422-0.017 11.639-3.851 14.01-4.819 0.592-0.816 5.055-7.733 6.935-10.083m0.191 19.602c4.5-1.955 19.319-9.32 22.178-12.223-0.686-1.479-6.563-6.185-8.499-6.461-1.781 0.733-10.351 9.721-16.108 16.837-0.237 0.293-0.406 0.639-0.237 0.998 0.147 0.313 0.951 0.774 1.504 0.951 0.54 0.172 0.747 0.08 1.162-0.102m-3.21 1.781c-1.048-0.65-2.175-1.695-2.294-2.561-0.114-0.82-0.155-5.038-0.167-6.816-0.072 0.053-0.126 0.129-0.208 0.164-0.12 0.053-12.931 5.461-15.246 5.461-0.949 0-2.731-0.943-4.822-2.385-6.171-1.616-14.625-3.491-15.726-3.465-1.085 0.023-9.574 2.966-14.387 5.554-0.049 0.084-0.099 0.163-0.149 0.241-0.371 0.571-0.78 1.012-1.244 1.227-6.035 2.798-15.875 7.642-22.639 9.082-1.993 0.425-6.893-0.823-12.79-2.778-12.834-4.254-30.398-11.86-33.051-12.892-0.67-0.261-2.132-1.275-3.743-2.505-0.739-0.172-1.56-0.381-2.432-0.671-0.514 6.329-4.936 54.671-7.968 87.896 0.896 2.072 3.351 7.767 5.966 13.813 3.425 7.917 7.114 16.409 7.932 18.134 5.97 1.72 11.288 4.912 14.711 9.173 2.961-2.3 17.359-12.073 21.465-13.354 0.829-0.26 1.13 0.11 1.379 0.511 5.819 9.308 23.526 29.349 38.549 43.077 12.448-13.191 49.295-33.354 75.801-38.309-1.788-15.93-5.775-33.59-8.891-42.332-0.214-0.597 0.075-1.258 0.659-1.51 1.547-0.663 3.712-1.204 6.131-1.587-0.949-2.876-6.446-16.334-12.328-30.278-5.832-13.821-12.024-28.076-14.508-32.89m44.861 145.93c1.108-2.448 2.081-4.986 2.925-7.603 6.594-20.432 5.148-45.725-4.715-71.378-3.69-2.131-14.457-1.869-19.887-0.055 5.53 16.293 10.093 44.141 8.185 63.115-0.31 3.062-2.094 2.884-1.786-0.116 0.527-5.112 0.315-11.618-0.362-18.581-26.069 4.877-61.775 24.584-73.963 37.51 3.886 3.453 7.541 6.418 10.69 8.565 2.888 1.974 1.908 3.337-0.98 1.44-17.463-11.469-41.889-36.834-52.048-52.508-4.451 2.003-16.707 10.726-19.429 12.921 0.317 0.557 0.614 1.123 0.867 1.708 0.652 1.499-0.747 1.682-1.105 1.682-1.718 0-3.377 0.102-4.968 0.29l-1.914 1.369c3.885 1.548 7.289 4.792 8.414 9.714 0.268 1.171-0.025 1.464-1.168 1.472-3.582 0.018-6.439 0.449-8.615 1.247 3.181 6.867 11.715 17.172 18.58 22.047 2.921 2.079 2.021 3.496-0.922 1.441-7.41-5.165-16.21-14.206-20.329-22.069-0.655 0.503-1.195 1.065-1.587 1.702-3.997 6.507 5.205 12.758 4.08 23.27 16.626 19.038 48.986 33.335 76.168 32.62 19.148-0.51 34.809-7.504 45.077-20.853 0.274-0.356 0.727-0.533 1.167-0.451 6.711 1.208 13.565-0.583 18.772-4.536 8.249-6.259 14.541-14.437 18.853-23.963m63.915-117.61c-3.315-2.324-6.464-4.087-9.516-5.343 14.301 14.063 20.411 35.68 11.677 51.216-0.788 1.396-1.381 1.332-2.114-0.028-13.574-25.228-52.481-26.683-53.62-15.19-0.748 7.543 18.826 21.015 16.483 38.286-1.503 11.073-10.275 17.952-17.083 22.308-1.797 20.192-9.834 37.584-23.49 49.588 0.835 10.622-4.147 20.884-12.941 26.125-9.018 5.374-21.831 8.741-33.498 13.22-1.813 0.696-3.427 1.485-4.874 2.314-2.263 3.612-3.538 7.894-3.99 10.401-11.886 65.94-53.154 112.55-94.933 113.43-6.16 0.128-11.032-1.273-17.146-4.474-6.453 3.184-15.872 4.523-22.15 3.884-32.899-3.352-68.024-40.15-79.08-86.391-1.641-1.522-3.187-3.127-4.658-4.767-8.418 0.4-14.619 6.383-22.967 8.534-14.554 3.755-31.402-5.215-37.353-14.155-6.67-10.02-2.682-17.301-9.196-23.956-9.725-9.934-22.339-9.008-28.91-23.262-7.601-16.495 6.535-22.603 5.132-31.784-1.099-7.204-11.416-7.752-14.48-16.579-4.64-13.363 8.01-20.503 6.628-31.549-0.925-7.398-9.885-9.768-16.601-7.299-1.117 0.407-1.681 0.117-1.619-1.07 0.299-5.723 6.503-11.99 12.199-13.963-1.598-0.243-3.211-0.393-4.8-0.446-1.486-0.05-2.285-0.265-0.892-1.963 9.664-11.823 28.558-11.865 41.064-3.544 0.126-1.361 0.391-3.883 0.761-7.275-8.244-8.271-10.914-16.409-10.857-26.231 0.073-12.693 10-18.491 8.509-26.141-1.035-5.306-10.494-8.891-21.806-4.598-0.991 0.376-1.789 0.249-1.612-1.269 0.976-8.327 7-16.235 15.986-19.566-1.308-1.615-4.861-7.207-6.037-9.43-1.208 0.049-2.132 0.037-2.484-0.081-3.15-1.045-34.528-40.973-34.57-43.243-0.043-2.27 0.998-17.686 2.468-19.248 1.207-1.283 12.83-2.284 13.423-2.218 1.184 0.136 22.201 3.76 24.377 4.244 1.778-0.658 6.736-2.513 7.725-3.29 1.153-0.907 9.065-6.596 12.256-8.803 1.174-0.813 1.884-0.954 3.401-0.89 5.286 0.221 23.843 3.038 25.457 4.507 0.38 0.345 1.306 1.439 2.438 2.83 4.745 0.847 11.3 1.621 14.659 1.621-1.404-3.063-2.339-5.322-2.42-6.016-0.054-0.462 0.166-0.915 0.563-1.162 2.756-1.705 23.474-7.746 25.095-8.169 6.892-1.8 9.972-2.176 14.361-1.388 3.28 0.589 20.506 5.2 25.576 5.748 1.3-1.446 4.387-4.653 5.874-5.19 2.455-0.884 34.83 0.415 36.403 1.04 1.12 0.445 6.339 3.517 8.296 4.321 3.282-2.845 12.484-12.427 14.865-15.035 0.521-0.575 1.07-0.912 1.88-0.768 15.404 2.726 31.311 8.888 39.382 8.435 2.209-0.124 3.789 0.807 5.248 2.698 2.662 3.448 8.319 7.653 9.412 7.999 0.955 0.261 6.344 0.615 8.501 0.792 3.239-3.166 19.127-11.415 20.063-11.707 1.827-0.573 15.807-0.528 18.672 0.257 2.643 0.724 21.643 8.089 22.638 10.915 0.166 0.47 0.237 1.156 0.237 1.994 5.763 3.498 20.743 12.405 23.169 12.327 0.864-0.028 3.923-0.756 5.82-1.227 4.16-3.45 11.848-8.961 13.919-8.961 6.58 0 25.567 5.541 29.543 9.124 0.3 0.268 0.444 0.672 0.384 1.07-0.535 3.619-12.372 25.231-13.088 26.215-0.037 0.051-1.633 1.869-3.89 4.396-0.287 3.97-1.205 18.298-1.575 19.779-0.316 1.27-7.263 8.569-10.727 11.566 3.605 1.318 6.695 3.128 9.257 5.369 27.304-12.236 57.989-2.443 63.057 29.942 0.322 2.057-0.172 2.363-1.881 1.172m-436.89 127.32c3.699-14.132-9.155-14.323-10.789-22.425-0.272-1.352-0.635-2.058-0.985-2.123-0.345-0.063-0.637 0.493-0.679 1.631-9e-3 0.226-0.011 0.468 3e-3 0.741 0.388 7.977 12.499 9.017 10.976 20.591-0.057 0.433-0.128 0.875-0.224 1.338-0.654 3.145 0.865 3.424 1.698 0.247m175.63 77.107c-0.963 1.536-1.558 3.213-1.695 5.007-0.678 8.92 9.082 16.897 26.755 18.109 16.552 1.135 29.05-3.838 30.268-14.031 0.037-0.309 0.098-0.607 0.114-0.925 0.499-9.891-9.869-16.166-28.613-17.483-12.429-0.872-22.859 2.994-26.829 9.323m26.964-11.971c18.229 1.28 29.106 7.455 30.675 16.987 0.173 1.052 0.266 2.133 0.209 3.265-0.621 12.344-14.501 18.499-32.953 17.238-18.542-1.273-30.823-9.72-29.986-20.716 0.221-2.89 1.496-5.612 3.601-8.003 5.16-5.862 15.449-9.687 28.454-8.771m19.541 72.442c1.446 0.197 2.696-2.536 2.92-4.932 0.215-2.319-0.539-3.819-2.146-3.959-1.446-0.127-2.715 1.338-2.742 3.694-0.031 2.695 0.591 5.011 1.968 5.197m5.155-21.398c0.184-3.324-0.881-6.49-2.279-6.598-1.838-0.141-3.043 3.004-3.525 6.064-0.414 2.618 0.664 5.037 2.437 5.224 1.895 0.201 3.203-1.714 3.367-4.69m-1.76-9.345c4.899 0.472 5.491 11.332 4.638 18.061-1.371 10.827-4.498 16.05-8.635 15.486-5.537-0.765-5.008-13.037-4.608-16.776 1.268-11.876 4.14-17.221 8.605-16.771m-108.39-80.364c1.426 0.266 2.783-2.561 3.211-4.813 0.408-2.15-0.036-4.948-1.783-5.191-1.987-0.276-2.938 2.436-3.144 4.547-0.244 2.507 0.491 5.229 1.716 5.457m5.534-20.694c0.326-2.25-0.46-6.617-2.015-6.851-1.63-0.246-3.522 3.3-3.758 5.79-0.281 2.972 0.796 4.691 2.559 4.874 1.707 0.178 2.835-1.204 3.214-3.813m-1.238-9.401c4.717 1.014 4.64 11.515 3.803 17.541-1.332 9.588-4.9 16.039-8.687 15.485-4.779-0.679-4.842-11.847-4.119-17.653 1.161-9.33 4.632-16.332 9.003-15.373m197.36-87.591c-0.174-0.602-0.398-1.199-0.681-1.791-4.232-8.853-19.213-8.969-32.295-2.781-10.099 4.778-17.122 11.932-18.356 19.033-0.487 2.809-0.097 5.61 1.411 8.252 4.593 8.042 19.463 7.865 31.938 1.662 11.689-5.809 20.545-15.537 17.983-24.375m-16.91 26.531c-16.509 8.208-31.019 6.021-35.78-2.309-2.563-4.49-2.44-9.758 0.195-14.945 2.977-5.861 9.169-11.618 18.49-16.025 16.231-7.681 31.475-6.337 36.093 3.326 0.179 0.376 0.337 0.754 0.481 1.132 4.133 10.922-6.809 22.523-19.479 28.821m-28.013-93.537c-0.087 0.072 0.105-0.047 0 0m7.985 111.49c0.876 2.391 2.939 3.984 4.658 3.246 1.514-0.647 1.581-2.92 0.54-5.281-1.249-2.837-3.611-5.176-5.063-4.432-1.187 0.611-0.954 4.233-0.135 6.467m5.977 13.197c1.058 2.302 3.276 3.957 4.639 3.413 1.466-0.587 0.996-3.893 0.222-5.375-0.859-1.645-2.574-2.904-3.953-2.201-1.553 0.794-1.497 2.878-0.908 4.163m-7.068-22.133c3.943-1.977 9.121 4.725 12.059 11.316 3.11 6.996 4.745 15.176 0.658 16.786-2.785 1.094-7.558-1.099-11.995-11.214-1.86-4.237-5.553-14.472-0.722-16.888" fill="#0f141f"/>
 <path d="m198.93 88.974c-1.8119 0.62653-0.51651 5.173 3.6542 10.283 2.4632 3.0178 5.994 6.103 10.305 9.0421 4.3624 2.9738 8.6948 5.4232 12.844 7.3969 9.0922 4.3246 16.831 6.2468 18.484 4.3414 1.1744-1.3542-3.6956-2.0229-10.651-5.1023-5.3162-2.3536-11.219-5.8418-17.591-10.223-4.4991-3.093-8.5323-6.502-11.311-9.5994-3.1278-3.4858-4.7727-6.4711-5.7338-6.1388z" fill="#fffcd1"/>
</svg>
