<?xml version="1.0" encoding="UTF-8"?>
<!-- Created with Inkscape (http://www.inkscape.org/) -->
<svg version="1.1" viewBox="0 0 174.79 274.7" xmlns="http://www.w3.org/2000/svg">
 <g transform="translate(-30.439 1.4327)" stroke-width=".68527">
  <path class="st0" d="m91.95 147.06c2.8096 0.7538 28.507 3.769 30.426 3.4949 15.007 34.126 14.802 51.053 5.2766 60.921 1.302 5.1395 2.1243 8.84 1.3705 12.472-1.0964 5.2081-3.906 7.8121-9.0456 13.089 0.41116 3.632 4.1116 9.3197 7.4694 11.376 3.2208 1.9873 18.845 5.7563 22.134 6.7842 7.538 2.2614 7.1954 11.033 3.6319 14.939-3.2893 3.7005-22.271 2.5355-27.411-1.6446-6.7842-5.4822-19.188-20.627-21.449-29.192-1.0279-4.1116-0.0685-6.9898 2.5355-8.2232 4.0431-1.9188 6.7157-3.6319 8.0177-6.9898 1.0279-2.7411 0.68527-6.1674-1.4391-9.0456-4.3172 1.5761-14.733 1.5076-18.639-0.41116-0.82232 1.2335-3.2208 5.4822-3.4949 7.4009-0.61675 3.9746 0 8.1547 1.7817 12.266 1.5076 3.5634 1.302 5.3451-0.13706 13.02-0.34264 1.9188-1.0279 15.419-1.3705 16.789-1.0964 4.4542-3.769 6.8527-8.7029 6.9212-9.0456 0.13702-19.873 0-24.67-3.8375-1.9873-1.5761-2.3984-7.2638-0.54822-9.1826 1.165-1.2335 11.307-7.4694 13.157-8.977 4.1116-3.2208 7.9491-9.7994 9.3197-13.98-4.2487-9.5938-3.4949-16.721 1.8502-24.944-9.5253-11.581-9.3197-18.845 2.1929-38.923 2.3984-3.9061 7.7436-24.122 7.7436-24.122" fill="#d3ddf1"/>
  <path class="st0" d="m54.671 104.92c-0.54822-36.114 34.88-51.258 71.611-49.202 36.319 1.9873 50.504 28.37 47.147 55.164-3.0837 24.807-32.961 40.568-56.261 39.814-32.961-1.0279-62.085-14.322-62.497-45.776" fill="#d3ddf1"/>
  <path class="st1" d="m85.029 101.97c0.0685-2.1244 26.657 7.4694 26.657 7.4694s-0.20564 4.0431-0.34263 5.2766c-0.2741 2.2614-1.3705 4.7284-3.4263 6.3045-2.0558 1.5076-5.071 2.1243-7.4694 1.7817-10.827-1.5761-15.624-12.266-15.419-20.832" fill="#fff"/>
  <path class="st0" d="m128.47 210.18c4.2487 4.9339 12.609 5.8248 18.639 3.4263 5.4822 3.632 19.188 3.906 26.794 2.6726 1.9873 2.6725 2.3984 6.8527 0.2741 9.3882-13.774 1.6446-29.809-1.6446-45.296-9.5938-0.47969-1.439-1.5076-3.906-1.2335-4.5228 0.2741-0.61673 0.82232-1.3705 0.82232-1.3705" fill="#d3ddf1"/>
  <path class="st2" d="m173.84 216.27c2.7411-0.20565 10.073-2.7411 11.787-4.5228-4.9339-1.6446-7.3324-6.9898-6.7156-11.718 0.54822-4.6598 5.6877-10.348 12.54-9.9364 7.1268 0.41116 13.02 6.4415 12.472 14.048-0.95939 14.87-14.322 21.038-29.809 21.517 1.4391-2.0558 0.89083-7.538-0.27412-9.3882" fill="#e2eef5"/>
  <path class="st2" d="m115.04 256.5c-2.8781-6.236 6.3045-9.0456 12.335-8.0176 3.2893 1.9187 14.185 4.6598 18.16 5.4136 7.3324 1.4391 10.69 6.236 9.7994 11.787-0.5482 3.4949-2.604 6.0304-7.0583 6.5786-5.4136 0.61673-12.061 0.5482-16.789-1.0279-5.2766-1.6446-14.322-10.073-16.446-14.733" fill="#e2eef5"/>
  <path class="st0" d="m120.18 150.28c1.9188-0.13701 5.5507-0.20565 6.6471-0.41116 10.622 4.6598 26.04 12.129 29.261 17.474 1.9188 3.0837 2.1243 5.4136 0.27413 8.2232-1.302 1.9873-14.459 17.954-15.076 18.913 5.9619 0.54822 11.787 3.5634 11.992 9.7308 0.13701 5.6877-5.4136 11.307-12.883 11.101-4.3858-0.13701-8.84-1.9873-11.787-4.8654 6.236-7.1953 6.5786-13.02 4.8654-26.588 2.1929-3.5634 7.4694-9.4567 10.073-11.444-1.7132-1.7132-12.403-6.7156-15.076-6.7842-1.5076-2.3299-8.2918-15.35-8.2918-15.35" fill="#d3ddf1"/>
  <path class="st1" d="m136.84 110.26c3.1523 0.0686 19.667-3.6319 22.203-4.7284 0 6.6471-5.6877 15.898-13.911 17.886-2.7411 0.68526-5.4136 0.20565-6.8527-1.4391-1.2335-1.302-1.7132-3.769-1.7817-6.3045 0-1.6446 0.34263-5.4136 0.34263-5.4136" fill="#fff"/>
  <path class="st2" d="m75.298 244.51c6.7156-2.6725 11.581-2.6725 17.748 2.8781-0.27411 1.6446-1.0279 13.431-1.0279 14.528 0.13706 3.4264-2.3299 7.8806-5.6192 8.4288-2.3299 0.41116-13.02 0.89085-14.87 0.75382-6.373-0.61676-10.964-1.5076-13.294-3.769-2.3299-2.3299-1.8502-8.5659 1.165-10.69 1.302-0.89085 10.073-6.0989 10.827-6.8527 1.302-1.0964 4.3857-4.3857 5.071-5.2766" fill="#e2eef5"/>
  <path class="st3" d="m111.69 131.78c5.2081 1.7132 18.365 2.3984 23.231 0.68527 0.41116 0.75379 0.61673 1.165 0.75379 1.5076-6.3045 5.4136-16.721 5.1395-24.944-0.20564 0.2741-0.54823 0.95936-1.9873 0.95936-1.9873" fill="#ee869a"/>
  <path class="st4" d="m56.316 116.84c15.967 20.078 29.878 27.753 57.7 28.576 18.16 0.54822 40.705-3.769 50.299-15.076-8.7714 10.896-26.04 18.502-36.525 19.256 2.467 1.6446 6.6471 3.4949 8.2918 4.3857-1.5761 2.467-6.3045 5.2766-9.9364 5.8248-2.1244 1.9188-6.236 3.3578-10.211 3.2208-0.2741-1.5761-0.82233-3.7005-1.0964-4.3857 2.604-1.7817 6.1674-6.3045 4.3857-10.964-2.3984-6.3045-9.8679-6.236-20.01-2.8096-3.3578-6.0304-7.9491-8.5659-12.335-6.7157-2.1243 0.89086-4.1116 4.1802-4.1802 5.6192-12.746-5.7563-25.081-16.584-26.383-26.931" fill="#b7c0d1"/>
  <path class="st5" d="m93.046 247.18c-1.2335 4.0431-0.95937 14.322-1.0279 15.898-0.34264 5.9619-3.2893 7.1954-11.787 8.2232-3.9746 0.4797-16.858-0.54822-20.764-3.1522-2.1243-1.3706-3.7005-4.3857-2.604-7.675 4.1116 5.2081 21.997 7.1268 28.713 4.0431 3.2208-1.4391 3.7005-5.5507 3.6319-8.977 0-1.8502-0.34263-7.538 0.20557-10.896 0.0685 0.0686 3.1522 1.5761 3.6319 2.5355" fill="#c1cbd2"/>
  <path class="st4" d="m116 251.02c-3.5634-4.3857-6.373-8.2232-6.9212-9.4567-1.9188-3.906-1.9873-6.7156 0.95936-8.2232 3.9746-2.0558 6.9898-5.2766 8.5659-9.8679 1.4391-4.2487 6.9898-6.3045 10.416-4.4542 0.0686-1.7132-0.13701-3.0152-1.3705-7.538 1.5076-1.3705 3.769-5.2766 5.4821-8.84-10.005 10.964-45.433 9.2512-57.22-4.1802 0.13706 3.6319 4.4543 9.6623 6.4415 12.061-1.0964 1.6446-3.5634 6.7842-4.3857 10.416 1.7132-2.2614 6.7842-0.95939 9.6623 1.302-0.95938 2.3299 0.0685 5.6878 0.82232 7.4694 0.7538 1.7817 2.8781 8.5659 2.0558 11.17-0.2741 0.75379-0.75379 2.3984-1.0279 3.8375 1.4391 0.68526 2.5355 1.8502 3.4949 2.8096 0.0685-1.165 0.54821-2.8096 0.61674-3.2208 1.2335-5.6192 0.20557-9.1826-1.5076-13.705-1.7817-4.6598-0.68528-10.69 2.7411-15.898 3.1522 1.9873 13.637 1.9873 18.913 0.95936 3.0152 6.8527 2.3985 10.759-7.1268 15.624-2.3984 1.2335-3.2208 3.0837-2.6726 6.1674 0.7538 4.5228 4.5913 10.964 9.1826 16.995 0.7538-1.302 2.0558-2.7411 2.8781-3.4264" fill="#b7c0d1"/>
  <path class="st5" d="m132.18 266.44c-4.3172-1.302-15.282-14.185-16.241-15.419-0.82233 0.68529-2.1243 2.1243-2.8096 3.3578 0 0.0686 9.1826 10.827 12.815 14.048 3.7005 3.1522 10.485 4.1802 18.228 4.0431 7.8806-0.13701 9.3882-1.7817 11.238-7.1268-4.9339 3.0837-13.568 3.906-23.231 1.0964" fill="#c1cbd2"/>
  <path class="st5" d="m179.18 204.21c1.302 4.934 6.5101 9.2512 12.335 7.4009 7.0583-2.2614 5.4822-10.622 0.47969-12.129 4.0431 3.7005 3.3578 8.4973-1.0279 9.7308-4.3172 1.2335-8.3603-0.82232-11.787-5.0025" fill="#c1cbd2"/>
  <path class="st4" d="m128.47 210.18c1.3705-1.0964 2.8096-3.2893 3.2893-4.3858 4.3172 5.2766 11.581 7.0583 19.119 4.8654-5.7563 6.0989-14.939 5.3451-22.408-0.47969" fill="#b7c0d1"/>
  <path class="st4" d="m127.79 211.75c0.20565 1.3706 0.61676 2.604 0.95939 4.6598 13.226 6.6471 30.015 10.759 45.776 9.1826 0.2741-0.5482 0.34263-1.9188 0.47966-2.9467-14.117 0.68529-37.964-2.8096-47.215-10.896" fill="#b7c0d1"/>
  <path class="st5" d="m203.72 203.32c-3.3578 11.513-13.089 18.434-28.713 19.256-0.0686 1.0279-0.20564 2.3984-0.47966 2.9466 18.023-1.7817 30.426-9.1141 29.192-22.203" fill="#c1cbd2"/>
  <path class="st6" d="m137.66 104.64c4.4542-11.238 17.748-19.256 22.134-9.4567 1.7817 3.906 0.47969 4.7284-1.302 0.82232-3.4264-7.675-15.419-1.0279-19.53 9.1141-1.165 3.0152-2.5355 2.5355-1.302-0.47967" fill="#0f141b"/>
  <path class="st6" d="m92.704 103.68c-0.20557 1.7817-0.61674 12.266 0.89085 12.609 1.5076 0.34264 2.7411-7.9491 2.7411-11.513" fill="#0f141b"/>
  <path class="st1" d="m94.143 105.12c-0.34264 2.0558-0.54822 6.9212-0.20557 7.1954 0.34263 0.2741 1.302-4.7969 1.2335-6.9898" fill="#fff"/>
  <path class="st6" d="m141.36 109.85c-0.13701 0.95938-1.7817 11.375-0.47969 11.444 1.302 0.0686 3.3578-8.84 3.2893-11.855" fill="#0f141b"/>
  <path class="st1" d="m143.14 110.06c-0.34263 3.5634-1.2335 7.1268-1.4391 7.0583-0.2741-0.0686 0.0686-2.8781 0.54823-6.9898z" fill="#fff"/>
  <g fill="#0f141b">
   <path class="st6" d="m139.44 131.3c-10.142 11.17-23.436 9.2511-37.21-2.7411h1.9873c8.2232 7.1954 22.066 13.089 32.55 3.632z"/>
   <path class="st6" d="m56.933 257.73c2.0558-2.8781 5.6877-4.5228 8.84-6.373 7.3324-4.3858 8.7029-5.8248 13.637-16.172-4.3857-10.759-3.4264-17.543 1.8502-24.67-4.6598-5.2766-7.1268-9.8679-6.9898-15.761 0.13707-5.6877 2.6726-12.746 9.1826-23.368 0.27411-0.47969 1.9188 0.0686 1.6446 0.54823-5.8933 10.348-8.3603 17.2-8.5659 22.477-0.20556 6.0989 2.5355 10.142 6.5101 15.144 0.27411 0.34263 0.27411 0.82232 0.0685 1.165-4.6598 7.4694-6.373 13.5-1.9873 24.053 0.13706 0.2741 0.13706 0.54822 0 0.82232-5.1395 10.827-6.9212 13.089-14.254 17.474-3.1522 1.8502-6.5786 3.3578-8.3603 5.8933-1.3705 1.9873-1.6446 5.8933 0.61674 7.6065 5.7563 4.3857 23.847 5.0024 28.37 2.2614 2.467-1.439 3.6319-3.8375 3.5634-7.0583-0.0685-5.8933 0.41116-11.992 1.2335-15.967 1.2335-5.8248 1.7132-8.0176-0.82232-14.528-2.1929-5.6192-1.302-11.718 2.604-17.2 0.27411-0.41116 0.7538-0.5482 1.2335-0.34263 2.5355 1.165 12.54 2.0558 18.16 0.41116 0.54823-0.13701 0.95939 0.34263 1.302 0.68527 5.1395 7.4694 0.20565 13.637-7.4009 17.2-3.3578 1.5761-2.9467 5.208-0.82233 9.6623 3.3578 7.0583 15.761 25.903 24.944 28.165 9.0456 2.2614 18.228 1.5076 21.038-0.47969 3.0152-2.1243 3.2208-6.4416 1.2335-9.6623-1.302-2.0558-3.906-3.9746-9.2511-5.2766-14.254-3.3578-16.789-3.9746-21.175-8.4973-3.2208-3.2893-4.6598-8.5659-3.9746-9.5253 1.2335-1.7817 6.5786-6.0304 8.2918-11.307 1.0279-2.9466 0.89083-7.0583-0.89086-13.637-0.0686-0.34265 0-0.68528 0.2741-0.95938 4.1802-4.3172 6.373-9.3197 6.5786-16.241 0.2741-8.5659-2.604-20.01-8.7715-36.319-1.0964-2.9467 0.13701-3.4264 1.3706-0.54822 6.3045 15.35 9.8679 27.616 9.6623 37.005-0.13701 6.7156-2.2614 11.992-7.2639 17.063 1.7817 6.5786 2.1929 10.964 1.302 14.185-1.302 4.3857-4.4543 7.538-8.9085 11.513 0.0686 1.8502 0.82233 4.1802 3.906 7.3324 3.8375 3.9746 5.6192 4.5228 20.215 7.9491 5.6192 1.302 9.2512 3.5634 10.896 6.8527 1.9873 3.9746 1.165 9.3882-2.1929 11.65-3.7004 2.5355-13.363 3.2208-22.614 0.82233-10.553-2.6726-23.094-22.682-26.314-29.261-2.6726-5.6192-2.2614-10.69 1.7817-12.403 8.0176-3.2893 10.005-9.0456 6.7156-13.911-5.5507 1.3706-14.322 0.7538-17.954-0.41116-3.4949 5.4136-4.0431 9.2512-1.9188 14.665 2.8096 7.1268 2.2614 9.6623 0.95937 15.693-0.47968 2.3299-1.2335 13.568-1.2335 15.487 0.13706 3.9746-1.5076 6.9898-4.5913 8.84-2.5355 1.5076-24.807 3.0152-31.248-3.2208-2.5355-2.0558-2.5355-6.6471-0.47969-9.5253"/>
   <path class="st6" d="m138.27 197.84c3.6319-6.3045 14.802-19.667 16.309-21.517 3.4949-4.3857 3.5634-6.236-2.7411-11.992-5.7563-5.2766-19.804-11.238-26.04-13.568-0.54823-0.20564-0.61673-0.68526-0.41117-1.2335 0.20565-0.5482 1.3706-0.61673 1.8502-0.41117 6.373 2.3299 19.941 8.2232 25.903 13.705 6.7156 6.1674 7.3324 9.1826 2.9466 14.733-1.5076 1.9188-13.02 14.939-16.584 20.901-1.9873 3.6319-3.2893 3.0152-1.2335-0.61673"/>
   <path class="st6" d="m127.86 163.78c2.3299 0.61673 13.637 5.208 16.309 7.8806 0.41117 0.41117 0.41117 1.0279 0 1.4391-0.61673 0.68527-9.7994 9.7994-9.8679 11.924l-1.302-1.0279c0.0684-2.9466 8.9085-11.033 9.3882-11.513-3.0152-2.1243-11.307-5.208-13.911-5.8933z"/>
   <path class="st6" d="m141.91 193.59c13.089 0.61676 17.337 15.282 5.5507 20.901-5.6192 2.6726-14.665 1.302-19.599-3.4263-0.41117-0.41116 1.0279-1.8502 1.3705-1.4391 5.4136 5.208 12.609 5.2766 17.337 3.0152 10.211-4.8654 6.2359-17.406-5.9619-17.132 0.0686 0.0686 0.89085-1.9188 1.302-1.9188"/>
   <path class="st6" d="m144.72 196.95c1.0279-0.34263 2.5355-0.41116 4.0431-0.20564 0.41116 0.0686 1.8502 2.1243 1.302 1.9873-1.6446-0.47969-3.5634-0.75382-4.7284-0.54822-3.0152 0.54822-3.2208-0.41117-0.61675-1.2335"/>
   <path class="st6" d="m150.75 209.63c-0.0684-3.4264-1.8502-5.6877-4.3172-5.8248-4.1802-0.13701-4.1802-1.439 0.13701-1.5761 3.0152-0.0686 5.5507 2.467 6.0989 5.8933 0.0686 0.47969-1.9188 2.0558-1.9188 1.5076"/>
   <path class="st6" d="m146.29 214.63c-0.54819-0.20565 1.2335-1.3706 1.7132-1.2335 11.238 3.4264 28.781 3.5634 36.593-1.9873 0.20565-0.13701 2.3299 0.7538 1.9188 1.0964-7.9491 6.3045-28.987 6.7156-40.225 2.1243"/>
   <path class="st6" d="m129.23 214.77c7.7436 5.4136 22.408 9.5252 36.593 10.005 22.682 0.75379 36.868-6.9212 37.073-20.695 0.13701-7.4009-5.1395-13.226-12.129-13.157-7.6065 0.0684-10.348 7.1268-10.485 10.553-0.20565 5.208 3.2208 9.3882 8.0862 9.5253 7.8121 0.20565 9.8679-7.538 4.8654-10.005-2.7411-1.3706-1.8502-2.8096 0.89085-1.5076 6.4415 3.2208 3.9746 13.637-5.8248 13.5-6.1674-0.0686-10.827-5.9619-10.553-11.65 0.2741-6.1674 5.3451-12.403 13.089-12.472 8.2918 0 14.596 6.0989 14.391 14.802-0.41117 16.789-17.2 23.779-39.403 23.162-13.363-0.34264-27.548-3.8375-37.073-10.211-0.2741-0.13701 0-2.1929 0.47969-1.8502"/>
   <path class="st6" d="m133.61 270.48c7.1268-0.47969 7.3324-9.1826 1.8502-12.061-2.604-1.3705-1.9873-2.467 0.68526-1.2335 6.6471 3.0152 6.7156 11.924 0.41116 14.665z"/>
   <path class="st6" d="m145.4 272.19c5.1395-2.8096 4.7969-10.348 0.54822-13.157-2.9467-1.9873-2.3984-2.8781 0.68527-1.2335 4.4543 2.3984 6.1674 9.6623 1.9873 14.459z"/>
   <path class="st6" d="m95.582 121.64c-8.1547-4.0431-12.472-9.3882-11.992-20.421 0.0685-1.0279 0.34263-1.2335 1.302-0.89085 2.604 0.82232 23.025 6.236 26.588 7.1268 0.95938 0.2741 1.165 0.61673 1.0964 1.5076 0 0-0.2741 2.2614-0.5482 4.0431-0.41116 2.8096-1.0964 2.7411-1.165-0.20565 0-1.0279 0-2.2614-0.13701-2.3984-0.20565-0.27412-19.051-5.071-24.396-6.7842-0.41116 7.538 3.7005 13.774 9.3882 17.063 2.0558 1.2335 2.0558 2.1243-0.13706 0.95936"/>
   <path class="st6" d="m158.08 106.77c-6.7842 2.8096-20.215 4.5913-20.421 4.7969-0.13701 0.13702-0.20564 0.82233-0.2741 1.7817-0.41116 3.4949-1.2335 3.3578-1.165-0.20565 0-1.302 0.0686-3.0837 0.0686-3.0837 0.13701-0.7538 0.2741-0.89083 1.0279-1.0279 2.9467-0.41116 16.721-2.8096 21.86-5.208 1.302-0.61676 1.5761-0.41116 1.4391 1.0279-1.2335 10.005-4.4542 14.939-13.157 18.16-3.0152 1.165-3.3578 0.0686-0.47966-1.0279 6.5101-2.2614 10.553-8.84 11.101-15.213"/>
   <path class="st6" d="m111.48 102.73c-0.2741-7.3324-6.3045-15.487-12.815-16.378-2.467-0.34263-2.3299-1.7132 0.13706-1.3706 7.6065 1.0279 14.117 9.3197 14.391 17.749 0.20564 3.0837-1.5761 3.0837-1.7132 0"/>
   <path class="st6" d="m84.069 96.147c1.2335-4.6598 3.8375-8.0862 7.4009-9.7994 2.3299-1.0964 2.9467 0.2741 0.61675 1.3706-3.0837 1.3705-5.2766 4.7969-6.373 8.9085-0.68527 2.3299-2.2614 1.8502-1.6446-0.47969"/>
   <path class="st6" d="m66.389 270.75c-1.0279-1.7817-1.9873-4.4542-2.0558-6.9898 0-2.604 1.8502-5.2766 4.9339-7.1268 2.2614-1.3705 3.1522-0.13701 0.89085 1.302-2.2614 1.3705-3.8375 3.8375-3.8375 5.8248 0 2.2614 1.302 5.071 2.604 6.7842 0.54821 0.68526-2.0558 1.0279-2.5355 0.20565"/>
   <path class="st6" d="m78.793 271.51c-2.7411-0.54823-3.7005-4.1116-3.3578-6.7842 0.34264-3.2893 2.8781-6.5101 5.5507-7.0583 2.1243-0.41117 2.3984 0.75379 0.27411 1.4391-1.9873 0.68526-3.4949 2.8096-3.8375 5.8248-0.34263 2.9466 1.165 5.4821 2.467 5.7563 0.54821 0.0686-1.0279 0.82233-1.0964 0.82233"/>
  </g>
  <path class="st1" d="m105.66 129.93c0 1.4391 1.0279 6.373 2.1243 6.5101 1.0964 0.13701 3.4264-2.9467 4.1116-4.5913-1.8502-0.5482-6.236-1.9188-6.236-1.9188" fill="#fff"/>
  <path class="st1" d="m135.05 132.53c2.1243-0.61676 3.2893-1.165 4.6598-1.9188 0 1.7132-0.75379 5.6877-1.439 5.9619-0.68529 0.20564-3.2208-4.0431-3.2208-4.0431" fill="#fff"/>
  <path class="st2" d="m67.965 72.231c-0.95938-5.0024 5.0025-38.855 9.0456-39.609 3.0837-0.54823 17.337 19.941 18.228 25.012-6.373 1.2335-22.477 9.0456-27.274 14.596" fill="#e2eef5"/>
  <path class="st2" d="m146.29 60.102c2.3299-6.236 15.35-20.901 18.845-19.462 3.769 1.5761 0.54822 26.726-1.7817 32.071-3.7005-4.5228-11.101-11.17-17.063-12.609" fill="#e2eef5"/>
  <g>
   <path class="st7" d="m107.78 136.3c-0.0686-1.0964-2.2614-4.8654-2.3984-6.5101 0.68527 0.20565 1.5761 0.75382 2.1244 0.82232-0.13701 1.3706 0.13701 3.769 0.2741 5.6877" fill="#dcdddd"/>
   <path class="st7" d="m138.27 136.44c-1.0964-0.95936-2.9467-3.0837-3.0837-3.769 1.0279-0.41116 1.5076-0.68526 1.5076-0.68526s0.95936 2.7411 1.5761 4.4542" fill="#dcdddd"/>
   <path class="st8" d="m143.21 38.858c3.8375-3.0152 21.792-15.83 26.588-15.35 12.952 1.3706 10.142 53.588 1.8502 65.169-0.75382-2.1928-6.7156-14.596-8.3603-16.035 3.2893-7.8121 5.1395-30.7 1.7817-32.071-3.7005-1.439-16.172 13.637-18.845 19.462-1.9873-0.82232-3.7004-1.5076-3.7004-1.5076z" fill="#0f2b36"/>
  </g>
  <path class="st6" d="m127.31 150.63c-5.5507 0.89083-5.6192-0.89086-1.0964-1.6446 21.517-3.4949 45.022-17.68 46.05-40.774 1.0964-26.383-11.581-49.956-46.941-51.806-37.279-1.9873-69.623 13.705-69.898 50.162 0.61674 19.804 17.406 35.977 41.87 41.39l-0.20557 1.5076c-25.355-5.5507-43.515-21.929-44.131-43.378 0.20557-33.578 27.753-54.068 72.502-51.669 40.568 2.1928 50.299 30.7 49.339 54.41-1.0279 22.545-23.368 37.964-47.489 41.801" fill="#0f141b"/>
  <g fill="#d3ddf1">
   <path class="st0" d="m68.308 103.96c-23.505-0.2741-37.073-20.832-36.388-43.309 6.0989 14.117 11.787 38.17 41.596 40.842 5.071 0.4797-5.2081 2.467-5.2081 2.467"/>
   <path class="st0" d="m72.762 117.05c-25.629 12.746-38.17-3.7005-40.705-23.231 9.7308 13.02 14.048 28.576 39.266 20.284 4.2487-1.5076 1.4391 2.9466 1.4391 2.9466"/>
   <path class="st0" d="m165.96 105.19c16.721-2.3984 24.327-24.807 23.984-23.162 1.0964 12.198-7.7436 27.822-23.299 28.439-4.2487 0.20564-1.5761-5.1395-0.68529-5.2766"/>
   <path class="st0" d="m163.77 120.13c8.0176 6.0304 17.954 2.1929 25.561-4.934-5.1395 12.54-17.543 18.639-27.205 7.675-3.3578-3.8375 1.6446-2.7411 1.6446-2.7411"/>
  </g>
  <path class="st8" d="m57.207 86.964c-4.7969-24.533 8.0177-67.019 16.926-69.144 9.3882-2.1929 35.634 30.083 36.799 37.621 0.82233 5.2766-13.226 8.1547-14.939 3.5634-2.1929-5.7563-14.733-26.931-18.708-26.588-4.2487 0.41117-9.0456 25.972-8.1547 40.499 0.41116 8.3603-10.622 20.558-11.924 14.048" fill="#0f2b36"/>
  <path class="st5" d="m68.719 59.622c0.13706-4.4542 5.0025-26.794 8.2232-27.068 2.1243-0.20565 8.0177 7.4009 9.4567 9.5938-6.5786-0.95939-15.213 9.1826-17.68 17.474" fill="#c1cbd2"/>
  <path class="st5" d="m154.38 51.673c4.4542-3.2893 11.787-5.5507 12.266-2.1928 0.13701-2.9467 0.13701-8.4974-1.4391-8.9085-1.5761-0.41116-8.0862 4.5228-9.0456 5.4136-0.41116 1.3706-1.7817 5.6877-1.7817 5.6877" fill="#c1cbd2"/>
  <g fill="#b7c0d1">
   <path class="st4" d="m161.85 122.53c-0.34263-0.4797 0.82232-1.165 1.302-0.61673 8.0862 8.977 17.611 4.5228 25.903-6.1674-1.0279 3.5634-7.2638 11.033-11.992 12.403-5.8933 1.5761-12.198-0.95936-15.213-5.6192"/>
   <path class="st4" d="m165.55 110.26c-1.0964-0.0686-0.47967-1.5761 0.34265-1.7132 15.761-1.6446 20.353-12.472 23.916-26.52 0.54822 3.8375-2.9466 15.898-6.2359 20.078-4.7969 6.1674-9.1826 8.7714-18.023 8.1547"/>
   <path class="st4" d="m32.468 94.776c10.211 22.408 15.693 28.713 39.814 20.901 1.7132-0.54822 1.4391 0.95937 0.34264 1.5076-24.259 11.924-36.868-3.2893-40.157-22.408"/>
   <path class="st4" d="m31.783 60.444c5.3451 29.193 16.789 40.637 37.347 42.418 1.9188 0.20565 0.95938 1.302-0.20557 1.2335-24.396-0.41117-37.347-20.284-37.142-43.652"/>
  </g>
  <g fill="#0f141b">
   <path class="st6" d="m101.54 128.22c-2.7411-1.7132-2.0558-2.7411 0.54822-1.0964 9.4567 5.9618 31.659 8.0862 38.992 1.3706 2.1929-1.9873 2.9467-0.89086 0.82233 1.0964-7.8806 7.3324-28.987 5.6192-40.362-1.3706"/>
   <path class="st6" d="m112.58 132.53c-1.5761 2.8096-4.2487 4.4542-5.0025 4.3857-1.0964-0.13701-2.604-3.0152-3.3578-7.6065-0.0685-0.54822 1.7817 0.0686 1.9188 0.61673 0.61673 3.5634 1.439 5.6877 1.7132 5.6877 0.20564 0.0686 1.6446-1.165 3.2208-3.9746z"/>
   <path class="st6" d="m141.02 130c-0.34263 3.1522-1.7817 6.7842-2.7411 7.0583-0.61676 0.13701-2.6726-1.165-4.3858-4.4542-0.0686-0.13701 1.5076-0.95939 1.6446-0.68529 1.2335 2.604 2.3299 3.6319 2.5355 3.6319 0.20565-0.0686 0.95939-1.5761 1.3706-5.208z"/>
   <path class="st6" d="m70.295 22.823c-8.5659 13.842-16.721 42.624-11.513 64.21 0.68527 3.0152 9.5938-9.6623 9.1826-14.87-1.7817-21.38 6.373-40.842 8.977-41.185 2.2614-0.34263 14.87 13.774 19.119 25.835 2.3984 6.9212 15.35 2.604 13.568-1.2335-3.1522-6.8527-17.063-28.302-30.357-35.977-3.6319-2.1243-6.373-0.95936-8.977 3.2208m-13.911 65.169c-5.3451-22.271 3.2893-51.738 12.266-66.197 3.2893-5.3451 6.9898-6.6471 11.718-3.906 13.705 7.9491 27.616 27.479 31.454 36.799 0.34263 0.82233 0.41116 1.5761 0.0686 2.3984-2.3984 5.7563-15.282 7.1954-17.68 0.41117-3.5634-10.073-16.104-24.259-16.858-24.122-0.95938 0.20565-8.7714 19.051-7.1953 38.307 0.68527 8.7029-11.924 24.053-13.774 16.309"/>
   <path class="st6" d="m143.21 37.625c6.1674-5.6192 17.406-12.472 21.586-14.322 5.0025-2.1928 8.1547-1.0279 10.964 4.1116 6.1674 11.307 5.5507 45.913-3.4949 63.319l-1.165-2.8096c7.7436-17.2 8.4973-49.271 2.8781-59.55-2.604-4.7284-4.8654-4.7969-8.3603-3.2893-3.7005 1.6446-15.419 9.1141-21.655 15.007-0.0686 0.13701-1.0279-2.2614-0.7538-2.467"/>
   <path class="st6" d="m156.09 44.957c1.8502-1.5076 6.9898-6.3045 9.5938-5.1395 4.2487 1.9188 1.302 26.931-1.439 32.893-0.13701 0.20565-1.7132-0.95936-1.6446-1.302 4.8654-15.556 3.1522-29.741 2.3984-30.083-0.68529-0.27412-5.1395 2.467-9.0456 6.5786z"/>
   <path class="st6" d="m169.04 109.51c8.4288-0.0686 17.406-8.2918 20.49-25.835-6.236 16.241-16.172 20.421-22.477 21.723-2.467 0.4797-2.8096-0.47969-0.34263-1.2335 6.9212-2.1929 15.761-6.7842 21.243-21.106 1.7817-4.6598 4.1116-3.906 3.2208 1.0279-3.5634 20.627-13.363 27.068-22.134 26.931-4.934-0.0686-4.7969-1.439 0-1.5076"/>
   <path class="st6" d="m163.29 123.01c7.4009 8.0862 16.515 6.6471 25.218-6.7157-8.6344 7.9492-17.132 10.211-24.122 4.8654-1.7132-1.302-1.0964-2.2614 0.68529-1.0279 5.9618 4.2487 14.459 2.3984 21.38-4.1802 3.9746-3.769 5.4136-2.3984 2.5355 2.1244-8.9085 14.048-18.776 14.254-26.52 5.8933-1.5761-1.7132-0.7538-2.604 0.82232-0.95939"/>
   <path class="st6" d="m30.824 64.556c-0.7538-6.9212 1.8502-7.538 3.6319-0.61673 5.071 19.804 19.325 34.332 36.662 36.456 4.934 0.61673 4.934 1.9188 0 1.3706-10.622-1.302-19.804-6.3045-26.726-14.391-8.977-10.485-11.65-25.218-12.129-25.081-0.47969 0.20565 1.6446 17.132 9.1826 27.411 5.8248 8.0176 14.185 12.883 24.738 13.226 4.5228 0.13701 4.5913 1.7132 0 1.5076-17.886-0.54823-32.482-12.54-35.36-39.883"/>
   <path class="st6" d="m31.989 99.573c-3.2893-9.8679-1.0964-11.307 4.2487-2.1243 10.005 17.269 18.639 21.38 33.236 16.446 3.4264-1.165 3.769 0.2741 0.34264 1.4391-19.188 6.4415-27-3.1523-34.949-16.309-0.61674-1.0279-1.2335-2.1243-1.9188-3.2893v0.0686c0.34264 1.2335 0.7538 2.467 1.0964 3.5634 6.4415 18.982 18.502 27 36.662 17.68 3.1522-1.6446 3.8375-0.20564 0.61674 1.4391-21.38 10.964-33.099 0.0686-39.334-18.913"/>
  </g>
  <path class="st0" d="m106.41 66.612c2.7411-9.9364 3.769-24.738 2.604-35.703-0.61675-5.2766-8.2232-27.274-10.211-30.837 8.5659 5.0025 13.363 15.076 15.487 24.121 3.3578 14.459 2.2614 35.36-5.7563 44.337-2.3984 2.6726-2.1243-1.9188-2.1243-1.9188" fill="#d3ddf1"/>
  <path class="st0" d="m142.52 63.391c4.7284-7.0583 8.1547-21.586 8.9085-30.495 0.82233-9.7308-0.89085-23.847-2.8096-30.632 5.4821 6.5101 9.3197 17.954 9.4567 26.52 0.20564 13.431-3.9746 27.205-11.718 37.073-1.9188 2.467-5.0025-0.68526-3.8375-2.467" fill="#d3ddf1"/>
  <path class="st4" d="m106.34 66.543c7.7436-20.284 1.8502-50.641-7.538-66.197 16.721 17.748 15.83 56.329 8.7714 66.951-0.82232 1.2335-1.5761 0.13701-1.2335-0.75379" fill="#b7c0d1"/>
  <path class="st4" d="m142.18 63.596c10.211-11.992 11.376-49.271 6.7157-60.098 9.5253 14.391 4.4542 48.517-4.8654 61.4-2.0558 2.8781-2.5355-0.5482-1.8502-1.302" fill="#b7c0d1"/>
  <path class="st6" d="m146.63 64.076c16.995-24.327 10.073-48.791 3.2893-59.207 3.1523 11.444 6.3045 34.264-6.1674 58.385-1.6446 3.1523-3.1522 2.3299-1.5076-0.75379 10.622-20.49 9.7994-42.35 5.8933-56.329-1.8502-6.6471-0.54823-7.6065 3.4949-1.6446 7.1954 10.622 13.98 35.086-3.8375 60.578-1.6446 2.3299-2.8096 1.302-1.165-1.0279" fill="#0f141b"/>
  <path class="st6" d="m108.94 66.749c10.279-15.076 8.7029-51.121-8.4973-64.827 10.348 22.614 13.089 37.827 7.1268 63.319-0.68526 3.0152-2.0558 2.6726-1.3705-0.34263 5.4821-24.601 2.0558-40.362-7.1953-61.332-2.5355-5.7563-1.4391-6.6471 3.7005-2.1243 18.913 16.584 16.789 53.383 7.2639 66.129-1.5076 2.0558-2.3985 1.302-1.0279-0.82233" fill="#0f141b"/>
  <path class="st9" d="m117.17 40.777c0.68526-7.675 7.3324-13.363 14.391-13.157 6.8527 0.20565 11.718 6.236 11.718 13.363 0 3.4949-1.5076 31.797-2.1929 34.126-2.7411 9.0456-6.373 12.609-13.294 12.403-4.9339-0.13701-11.307-5.6877-11.787-11.992-0.34263-4.2486 1.165-34.743 1.165-34.743" fill="#fdd23c"/>
  <g fill="#0f141b">
   <path class="st6" d="m118.06 41.805c-0.54823 4.1116-1.8502 21.38-1.0964 31.659 1.165 16.584 19.05 16.446 22.477 3.8375 2.1929-8.0176 2.8781-30.837 2.8096-35.977-0.0686-16.378-21.723-17.611-24.19 0.47967m-3.0837 31.797c-0.75379-10.348 0.54822-27.89 1.0964-32.071 2.7411-19.736 28.165-20.284 28.233-0.2741 0 3.1522-0.4797 27.548-2.9467 36.525-4.0431 15.007-25.081 14.391-26.383-4.1802"/>
   <path class="st6" d="m121.42 39.681c3.4949 0.2741 15.761 1.302 18.434 1.302 1.9873 0 1.9873 1.302 0 1.302-2.7411 0-15.144-0.95936-18.571-1.2335-2.2614-0.20565-2.1243-1.5761 0.13701-1.3705"/>
   <path class="st6" d="m119.29 59.759c3.0837 0.47969 13.98 1.5076 18.913 1.6446 2.2614 0.0686 2.7411 1.3705 0.0686 1.302-4.5913-0.0686-15.693-1.165-19.051-1.7132-2.1243-0.27413-1.9873-1.5761 0.0686-1.2335"/>
   <path class="st6" d="m119.36 71.888c3.4949 0.47969 13.98 1.7132 18.16 1.7817 2.3299 0 2.467 1.439-0.13702 1.302-3.9746-0.20565-13.705-0.95939-17.954-1.7132-2.1929-0.41117-2.0558-1.6446-0.0686-1.3706"/>
   <path class="st6" d="m120.32 50.028c-2.5355-0.41116-2.2614-1.5761 0.20564-1.2335 2.8781 0.41117 14.391 1.7817 18.776 1.8502 2.0558 0 2.3299 1.3705 0 1.2335-4.5913-0.13701-15.556-1.302-18.982-1.8502"/>
  </g>
  <path class="st0" d="m60.633 164.61c3.7005-4.9339 11.787-12.403 22.203-16.789-1.0964-2.9466 0.27411-7.538 3.3578-8.9085 5.5507-2.467 11.101 0.68526 12.952 6.0989 6.9212-3.2208 16.721-4.2486 19.393 1.0964 2.1243 4.1801 1.0964 9.6623-3.906 12.266 2.3984 4.5228 1.302 9.4567-4.5228 11.65-4.3172 1.6446-12.403 0.27412-15.144-3.0837-0.95938 0.41117-23.642 10.348-25.149 10.896-4.8654 1.5762-9.3882-0.20564-11.033-3.769-1.0279-2.467 0.34263-7.4009 1.8502-9.4567" fill="#d3ddf1"/>
  <path class="st4" d="m61.181 164.06c3.9746-5.0025 13.98-13.5 21.723-16.378 0.34263 1.6446 2.0558 4.5228 2.8781 5.4136-1.5076 0.89083-16.584 11.307-17.954 12.335-2.1929 1.5761-9.7994 2.604-6.6471-1.3706" fill="#b7c0d1"/>
  <path class="st4" d="m60.702 175.84c5.8933 1.0964 22.134-5.6877 30.769-10.827 2.467-1.5076 4.1802-1.7132 5.8248-0.4797 5.6192 4.1116 14.939 3.5634 18.571-2.8096-0.13702 8.84-12.472 12.129-20.764 5.1395-28.576 13.089-29.535 12.883-34.401 8.977" fill="#b7c0d1"/>
  <path class="st6" d="m83.521 148.64c-19.599 9.3882-26.657 19.599-23.505 25.286 1.5076 2.7411 4.8654 4.3857 9.3197 3.0152 5.0025-1.5076 20.353-8.977 25.218-11.307 0.34263-0.13701 0.75379-0.13701 1.0279 0.13701 5.6877 4.6598 11.718 4.5228 15.487 2.3299 3.5634-1.9873 5.208-5.7563 2.8781-8.84-0.34263-0.4797 1.302-1.6446 1.6446-1.165 3.1522 4.3172 1.165 9.4567-3.2893 12.061-4.3172 2.604-10.964 2.8096-17.474-2.1929-3.6319 2.0558-19.393 9.0456-24.944 10.69-5.5507 1.5761-9.5938-0.41117-11.444-3.7005-2.9467-5.208-1.0279-14.459 24.053-28.37z" fill="#0f141b"/>
  <path class="st6" d="m66.526 165.43c3.6319-2.7411 13.363-9.8679 17.886-12.609-3.2208-4.0431-3.906-10.622 0.95938-14.322 4.7969-3.6319 10.622-1.5076 14.459 5.2766 9.3882-4.3172 17.611-2.3984 20.284 3.0152 2.604 5.3451-0.13701 12.266-10.416 14.322-4.5228 0.89086-4.9339-0.75379-0.4797-1.7817 8.9085-2.0558 10.622-7.6065 8.9085-11.581-1.9873-4.7969-9.1141-6.3045-18.297-1.7132-0.61674 0.2741-1.0279 0.20565-1.3705-0.47969-2.8781-5.6192-7.7436-8.7715-12.061-5.4822-3.6319 2.8096-3.8375 7.9491 0.20557 12.198 0.47969 0.47967 0.54822 1.0964-0.13706 1.5076-3.4264 2.1929-14.528 9.5938-19.119 12.883-3.1522 2.2614-3.8375 1.0279-0.82232-1.2335" fill="#0f141b"/>
 </g>
</svg>
