<?xml version="1.0" encoding="UTF-8"?>
<!-- Created with Inkscape (http://www.inkscape.org/) -->
<svg version="1.1" viewBox="0 0 278.23 312.37" xmlns="http://www.w3.org/2000/svg">
 <g transform="translate(43.262 11.627)">
  <path transform="matrix(17.583 0 0 -17.583 218.05 207.31)" d="m0 0c-0.091 0.753-0.492 1.526-1.267 2.176l-7.12 1.615c-1.285-0.034-2.399-1.128-2.745-2.133-0.421-0.584-0.625-1.135-0.422-1.333 0.044-0.043 0.146-0.043 0.254 0.017-0.264-0.641-0.205-1.117-0.022-1.131 0.109-9e-3 0.265 0.168 0.442 0.42-0.239-0.686-0.114-1.353 0.065-1.37 0.097-0.01 0.216 0.149 0.368 0.425-0.1-0.67 0.075-1.039 0.17-1.036 0.113 4e-3 0.261 0.217 0.45 0.635-0.028-0.993 0.3-1.514 0.518-1.491 0.094 0.01 0.209 0.13 0.304 0.461-0.031-0.403-9e-3 -0.708 0.144-0.779 0.145-0.068 0.436 0.073 0.753 0.474-0.194-0.451-0.18-0.806-0.022-0.891 0.213-0.115 0.603 6e-3 1.104 0.619-0.169-0.378-0.168-0.709-0.066-0.803 0.227-0.209 0.729-0.039 1.195 0.495-0.085-0.207-0.056-0.393 0.022-0.463 0.241-0.22 0.842-0.082 1.456 0.716-0.129-0.366-0.189-0.77-0.026-0.846 0.146-0.069 0.509 0.154 1.005 0.716-0.041-0.221-0.065-0.48 0.058-0.519 0.143-0.046 0.46 0.143 0.81 0.529 0.083-0.138 0.255-0.163 0.432-0.058 0.263 0.155 0.527 0.409 0.763 0.737 0.217 0.118 0.418 0.302 0.592 0.541 0.595 0.598 0.888 1.425 0.785 2.277" fill="#fff5d7"/>
  <path transform="matrix(17.583 0 0 -17.583 93.163 131.54)" d="m0 0c0.034 0.066 0.064 0.117 0.092 0.158-0.575 0.204-1.424 0.8-2.011 1.581-0.408 0.542-0.662 0.805-1.081 1.062-0.556 0.343-0.437 0.712 0.081 0.758 1.106 0.097 1.903-0.268 2.878-1.152 0.247-0.224 0.474-0.33 0.718-0.364 0.18-0.025 0.395 0.017 0.541 0.086 0.139 0.065 0.201 0.155 0.158 0.356-0.119 0.557-0.113 1.177 0.067 1.581l0.81 1.438 3.826-0.874-0.077-1.517c-7e-3 -0.226-0.09-0.519-0.243-0.729-0.19-0.258-0.263-0.395-0.319-0.669l-0.136-2.145c-0.012-0.096-0.024-0.188-0.04-0.26l-0.51-0.678-4.196 0.249z" fill="#ee86a7"/>
  <path transform="matrix(17.583 0 0 -17.583 148.61 50.409)" d="m0 0c-9e-3 0.12-0.043 0.156-0.172 0.215-0.647 0.291-1.319 0.271-1.745-0.098-0.338-0.294-0.452-0.904-0.317-1.273 0.169 0.393 0.487 0.63 0.828 0.737 0.164-0.127 0.332-0.293 0.441-0.41 0.238-0.255 0.629-0.296 0.818 0.043 0.123 0.223 0.169 0.472 0.147 0.786" fill="#f5b2b2"/>
  <path transform="matrix(17.583 0 0 -17.583 209.85 60.245)" d="m0 0c0.325 0.479-0.111 1.203-0.887 1.075-0.039 0.594-0.547 0.89-1.202 0.57-0.166 0.646-0.995 0.781-1.391 0.242-0.325 0.469-1.143 0.401-1.159-0.09-0.597 0.108-0.919-0.451-0.514-0.959 0.415 0.204 0.965 0.176 1.498-0.064 0.109-0.049 0.15-0.083 0.166-0.164 0.405-0.371 0.882-0.343 1.362 0.057 0.086-0.762 0.627-1.103 0.982-0.834-0.053-0.408 0.253-0.763 0.521-0.775-0.015-0.2-0.091-0.505-0.215-0.665 0.389-0.091 0.875 0.116 0.811 0.585 0.48 0.181 0.461 0.821 0.028 1.022" fill="#fadce2"/>
  <path transform="matrix(17.583 0 0 -17.583 160.42 59.963)" d="m0 0c-0.109-0.382-1e-3 -0.734 0.239-0.804 0.234-0.069 0.505 0.132 0.613 0.559-0.269 0.374-0.631 0.404-0.852 0.245" fill="#3e3a39"/>
  <path transform="matrix(17.583 0 0 -17.583 166.46 58.418)" d="m0 0c-0.096-0.257-0.073-0.488 0.013-0.503 0.093-0.015 0.178 0.155 0.2 0.437-0.071 0.037-0.143 0.059-0.213 0.066" fill="#fff"/>
  <path transform="matrix(17.583 0 0 -17.583 187.43 144.88)" d="m0 0c-0.283 0.22-0.732 0.202-0.96-0.148-0.158 0.303-0.438 0.467-0.721 0.444-0.232-0.019-0.467-0.165-0.638-0.464-0.091 0.303-0.307 0.507-0.552 0.579-0.247 0.072-0.522 8e-3 -0.726-0.226l-0.067 0.077-1.181 0.342c-0.189 0.183-0.49 0.211-0.757 0.079l-0.926-0.83c-0.077-0.31 0.491-0.655 1.259-0.227-0.053-0.282 0.137-0.495 0.45-0.529 0.287-0.032 0.676 0.085 1.076 0.434-0.067-0.505 0.197-0.799 0.527-0.858 0.324-0.058 0.711 0.11 0.912 0.522 0.231-0.529 0.677-0.81 1.034-0.791 0.291 0.016 0.522 0.233 0.526 0.679 0.418-0.395 1.013-0.628 1.179-0.518 0.139 0.091 0.24 0.911-0.435 1.435" fill="#fadce2"/>
  <path transform="matrix(17.583 0 0 -17.583 142.82 281.38)" d="m0 0c-0.07-0.026-0.126-0.029-0.166-0.011-0.163 0.077-0.103 0.481 0.026 0.847-0.19-0.246-0.378-0.43-0.555-0.559-0.088-0.196-0.274-0.366-0.482-0.413-0.451-0.101-0.508-0.467-0.414-0.747 0.241 0.159 0.579 0.209 0.778 0.398-1e-3 -0.031 1e-3 -0.065 6e-3 -0.102 0.02-0.141 0.099-0.343 0.252-0.474 0.231 0.13 0.394 0.338 0.385 0.673 0.204-0.322 0.75-0.463 0.852-0.569 0.059 0.151 0.07 0.523-0.06 0.676-0.146 0.172-0.363 0.25-0.622 0.281" fill="#f5b2b2"/>
  <path transform="matrix(17.583 0 0 -17.583 37.711 69.896)" d="m0 0c-1.325 0.014-2.232 0.252-3.011 0.955-0.333 0.301-0.635 0.347-0.835 0.206-0.168-0.118-0.214-0.34-0.085-0.645 0.186-0.438 0.582-0.678 1.117-0.736 0.417-0.046 1.22 0.014 1.453 0.013 0.242 0 0.752-0.078 1.152-0.083-0.018 0.125 0.058 0.229 0.209 0.29" fill="#fadce2"/>
  <path transform="matrix(17.583 0 0 -17.583 13.777 73.528)" d="m0 0c-0.233 1e-3 -1.036-0.059-1.452-0.014-0.054 6e-3 -0.106 0.014-0.157 0.024-0.664 0.011-1.148-0.12-1.386-0.347-0.334-0.32-0.236-0.629 0.206-0.74 0.305-0.076 0.727-0.025 1.175 0.247 0.642 0.389 1.47 0.667 2.342 0.771-0.287 0.024-0.567 0.059-0.728 0.059" fill="#fff5d7"/>
  <path transform="matrix(17.583 0 0 -17.583 34.302 75.946)" d="m0 0c-0.844-0.044-1.661-0.772-2.05-1.733-0.143-0.353-0.397-0.442-0.592-0.39-0.172 0.046-0.278 0.232-0.242 0.489 0.079 0.571 0.749 1.236 1.495 1.534 0.327 0.086 0.755 0.162 0.975 0.178 0.157-0.016 0.276-0.025 0.401-0.027z" fill="#fadce2"/>
  <path transform="matrix(17.583 0 0 -17.583 228.87 47.516)" d="m0 0c0.246 0.347 0.304 0.653 0.224 0.81-0.094 0.184-0.35 0.313-0.638 0.212 0.197 0.344 0.094 0.762-0.166 0.86-0.144 0.054-0.359 0.022-0.574-0.099 0.109 0.339-0.025 0.647-0.249 0.727-0.216 0.078-0.53 0.011-0.836-0.23 0.062 0.419-0.055 0.714-0.348 0.792-0.28 0.075-0.59-0.074-0.779-0.376 0 0.396-0.1 0.603-0.328 0.619-0.26 0.017-0.597-0.181-0.793-0.658-0.048 0.359-0.206 0.496-0.407 0.496-0.207 0-0.415-0.203-0.492-0.469-0.151 0.332-0.36 0.328-0.547 0.082-0.14-0.183-0.209-0.428-0.21-0.671-0.174-0.264-0.202-0.72 0.04-1.052 0.107 0.043 0.236 0.056 0.382 0.03 0.016 0.491 0.835 0.559 1.159 0.09 0.397 0.54 1.225 0.404 1.391-0.242 0.655 0.32 1.163 0.024 1.203-0.57 0.775 0.128 1.211-0.596 0.886-1.075 0.433-0.201 0.452-0.841-0.027-1.022 0-6e-3 1e-3 -0.012 1e-3 -0.019 0.341 0.145 0.529 0.231 0.792 0.363 0.211 0.105 0.345 0.271 0.35 0.481 0.159 0.166 0.261 0.377 0.265 0.604 5e-3 0.255-0.099 0.368-0.299 0.317" fill="#fff5d7"/>
  <path transform="matrix(17.583 0 0 -17.583 126.38 46.748)" d="m0 0c0.021-0.045-0.03-0.102-0.139-0.159-0.115-0.06-0.216-0.063-0.238-0.016-0.022 0.045 0.015 0.109 0.142 0.165 0.109 0.048 0.215 0.053 0.235 0.01" fill="#fadbda"/>
  <path transform="matrix(17.583 0 0 -17.583 116.81 40.673)" d="m0 0c0.063 0.265 0.395 0.313 0.612 0.133 0.012-0.011 0.024-0.011 0.035 5e-3 0.233 0.355 0.767 0.396 1.116-0.027 0.013-0.015 0.026-0.016 0.043-1e-3 0.408 0.384 1.126 0.294 1.351-0.161 7e-3 -0.015 0.017-0.02 0.036-0.013 0.518 0.202 0.939-0.025 1.085-0.539 4e-3 -0.017 0.011-0.021 0.033-0.019 0.412 0.045 0.762-0.201 0.779-0.66 1e-3 -0.015 5e-3 -0.024 0.021-0.032 0.351-0.161 0.405-0.521 0.161-0.824-9e-3 -0.456-0.323-0.666-0.813-0.579 0.11 0.205 0.196 0.44 0.193 0.659-0.305 0.054-0.514 0.336-0.509 0.771-0.39-0.275-0.872 0.106-0.98 0.841-0.413-0.361-0.975-0.473-1.358-0.063-0.023 0.085-0.051 0.132-0.162 0.177-0.52 0.214-0.999 0.269-1.511 0.061-0.058 0.083-0.107 0.175-0.132 0.271" fill="#d8bec4"/>
  <path transform="matrix(17.583 0 0 -17.583 219.6 32.395)" d="m0 0c0.43 0.117 0.847-0.072 0.578-0.753-0.076-0.126-0.094-0.166-0.157-0.251 0.256 0.094 0.453-0.274 0.148-0.762-0.022-0.22-0.112-0.368-0.305-0.471-0.192-0.103-0.542-0.26-0.753-0.341 0.341 0.265 0.372 0.726-0.062 0.995 0.314 0.535-0.127 1.182-0.893 1.072-0.031 0.731-0.712 0.834-1.206 0.583-0.188 0.686-1.031 0.73-1.385 0.237-0.453 0.552-1.152 0.319-1.163-0.097-0.131 0.026-0.269 0.01-0.385-0.021-0.043 0.076-0.079 0.138-0.117 0.259-5e-3 0.193 0.052 0.395 0.124 0.476 0.027-0.127 0.066-0.254 0.12-0.384 0.202-0.024 0.477 0.083 0.677 0.292 0.197-0.162 0.574-0.202 0.811-0.045 0.22-0.197 0.61-0.13 0.915-0.031 0.119-0.254 0.61-0.395 0.937-0.287 0.054-0.207 0.408-0.471 0.865-0.44 0.07-0.348 0.617-0.737 1.251-0.031" fill="#dcd4bb"/>
  <g fill="#cf7492">
   <path transform="matrix(17.583 0 0 -17.583 191.89 93.458)" d="m0 0c-0.08 0.686-0.467 1.174-0.987 1.493 0.046 0.147 0.083 0.299 0.089 0.457 0.236-0.36 0.528-0.388 0.77-0.235-3e-3 -0.34 0.139-0.693 0.51-0.771-9e-3 -0.514-0.197-0.631-0.382-0.944"/>
   <path transform="matrix(17.583 0 0 -17.583 160.11 61.122)" d="m0 0c-0.226 0.061-0.459 0.1-0.691 0.12 0.035 0.165 0.05 0.462 0.027 0.612 0.174-0.183 0.527-0.391 0.845-0.291-0.08-0.137-0.133-0.26-0.181-0.441"/>
   <path transform="matrix(17.583 0 0 -17.583 127.24 60.482)" d="m0 0c-0.221-0.055-0.417-0.132-0.578-0.23 0.018 0.086 0.042 0.182 0.062 0.245 0.089 0.054 0.196 0.098 0.31 0.137 0.081-0.047 0.124-0.084 0.206-0.152"/>
  </g>
  <path transform="matrix(17.583 0 0 -17.583 123.35 57.806)" d="m0 0c0.171-0.126 0.363-0.285 0.473-0.416 0.253-0.3 0.688-0.242 0.835 0.102-0.204 0.4-0.835 0.477-1.308 0.314" fill="#d49a9c"/>
  <g fill="#cf7492">
   <path transform="matrix(17.583 0 0 -17.583 35.784 71.481)" d="m0 0c-0.052-0.161 0.016-0.304 0.322-0.462 0.482-0.249 1.002-0.672 1.287-1.025 0.367-0.453 0.69-0.627 1.116-0.729-0.156-0.156-0.26-0.28-0.358-0.467-0.39 0.28-0.81 0.706-1.049 1.043-0.238 0.337-0.846 0.908-1.059 1.022-0.378 0.204-0.438 0.52-0.259 0.618"/>
   <path transform="matrix(17.583 0 0 -17.583 91.345 127.54)" d="M 0,0 0.175,-0.072 0.099,-0.229 C 0.274,-0.211 0.448,-0.233 0.614,-0.381 0.538,0.09 0.74,0.708 1.161,1.027 0.68,0.879 0.224,0.428 0,0"/>
   <path transform="matrix(17.583 0 0 -17.583 120.44 128.42)" d="m0 0c0.582-0.337 1.728-0.515 2.741-0.501 0.354 5e-3 0.469 0.163 0.121 0.499 0.341-0.299 0.592-0.497 0.89-0.614l-0.049-0.246c-0.252 0.133-0.638 0.097-0.855-0.22-0.357 0.645-1.06 0.522-1.351-7e-3 -0.298 0.678-0.92 0.746-1.28 0.331l-0.071 0.078c-1e-3 0.198-0.146 0.578-0.146 0.68"/>
  </g>
  <g fill="#d8bec4">
   <path transform="matrix(17.583 0 0 -17.583 94.735 151.38)" d="m0 0c-0.678-0.426-1.344-0.108-1.252 0.209 0.233-0.315 0.73-0.087 0.818 0.371 0.033 0.168 0.06 0.298 0.114 0.472 0.282 0.119 0.496 0.114 0.743-0.054 0.024-0.182 0.127-0.396 0.241-0.555-0.531-0.105-0.701-0.67-0.272-0.773 0.29-0.07 0.691-0.012 1.143 0.274-0.36-0.383-0.86-0.572-1.228-0.452-0.236 0.077-0.332 0.278-0.307 0.508"/>
   <path transform="matrix(17.583 0 0 -17.583 174.29 158.54)" d="m0 0 8e-3 -0.135c0.347-0.305 0.837-0.615 1.135-0.529 0.168 0.048 0.297 0.661-0.243 1.304-0.306 0.365-0.799 0.405-1.12 3e-3 -0.36 0.629-1.032 0.526-1.352-0.019-0.28 0.754-0.995 0.71-1.273 0.331l-0.072 0.092c0.011-0.171-0.089-0.355-0.217-0.422 0.042-0.032 0.083-0.067 0.123-0.105 0.028-0.026 0.059-0.023 0.1 0.023 0.329 0.371 0.902 0.389 1.296-0.141 0.038-0.052 0.064-0.049 0.1 0 0.32 0.431 0.903 0.468 1.38 0.054l-0.051 0.132c0.182 0.225 0.719 0.289 1.046-0.203 0.372-0.563-0.011-0.925-0.86-0.385"/>
   <path transform="matrix(17.583 0 0 -17.583 122 153.93)" d="m0 0c0.054-0.793 1.008-0.801 1.367-0.317-0.143-0.367-0.459-0.525-0.853-0.494-0.375 0.029-0.591 0.456-0.514 0.811"/>
   <path transform="matrix(17.583 0 0 -17.583 148.21 160.45)" d="m0 0c0.696-0.881 1.383-0.553 1.464-0.027 0.042-0.452-0.217-0.657-0.46-0.688-0.321-0.04-0.776 0.194-1.004 0.715"/>
  </g>
  <g fill="#dcd4bb">
   <path transform="matrix(17.583 0 0 -17.583 194.14 256.28)" d="m0 0c0.31 0.143 0.459 0.327 0.63 0.586 1.301 1.264 0.809 3.338-0.522 4.367-0.04-0.068-0.151-0.11-0.341-0.049-0.376 0.119-0.686 0.312-0.888 0.527-0.011-0.243-0.089-0.477-0.222-0.58 0.177-0.306 0.279-0.9 0.175-1.469 0.358-0.137 0.452-1.704 0.15-2.432 0.147 0.232 0.436 0.995 0.47 1.417 0.517-0.747-0.367-2.646-1.088-3.285-0.177-0.156-0.393-0.243-0.445-0.101-0.063-0.199 0.072-0.294 0.305-0.161 0.233 0.134 0.344 0.239 0.559 0.464 0.097-0.149 0.286-0.174 0.558 0.017"/>
   <path transform="matrix(17.583 0 0 -17.583 14.368 195.08)" d="m0 0c0.01-0.173 0.163-0.17 0.283 0.019 0.307 0.485 0.672 0.922 1.133 1.19-0.519-0.523-0.898-1.012-1.143-1.583-0.187-0.077-0.388 0.024-0.273 0.374"/>
   <path transform="matrix(17.583 0 0 -17.583 16.816 215.92)" d="m0 0c0.067-0.187 0.245-0.149 0.619 0.302l-0.058-0.192c-0.158-0.244-0.321-0.412-0.427-0.412-0.105 0-0.158 0.12-0.134 0.302"/>
   <path transform="matrix(17.583 0 0 -17.583 25.167 231.1)" d="m0 0c0.038-0.17 0.103-0.194 0.14-0.194 0.054 1e-3 0.147 0.103 0.234 0.293 0.034 0.073 0.198 0.707 0.475 1.077-0.177-0.466-0.278-0.807-0.326-1.142-0.168-0.274-0.302-0.428-0.36-0.428-0.057 0-0.182 0.164-0.163 0.394"/>
   <path transform="matrix(17.583 0 0 -17.583 35.343 244.91)" d="m0 0c0.099-0.173 0.324 0.144 0.564 0.638l3e-3 -0.208c-0.174-0.374-0.336-0.637-0.451-0.645-0.049-3e-3 -0.105 0.095-0.116 0.215"/>
   <path transform="matrix(17.583 0 0 -17.583 49.156 257.85)" d="m0 0c0.187-0.296 0.44-0.282 0.648 0.447-0.046-0.422-0.187-0.764-0.345-0.778-0.113-0.01-0.223 0.073-0.303 0.331"/>
   <path transform="matrix(17.583 0 0 -17.583 60.305 263.68)" d="m0 0c0.12-0.363 0.511-0.151 0.976 0.352-0.275-0.465-0.62-0.708-0.821-0.68-0.109 0.016-0.18 0.11-0.155 0.328"/>
   <path transform="matrix(17.583 0 0 -17.583 73.747 268.88)" d="m0 0c7e-3 -0.325 0.235-0.396 0.535-0.187 0.532 0.37 1.029 0.997 1.385 1.579-0.488-1.047-1.187-1.793-1.603-1.864-0.31-0.053-0.384 0.141-0.317 0.472"/>
   <path transform="matrix(17.583 0 0 -17.583 92.824 274.33)" d="m0 0c0.015-0.202 0.153-0.318 0.405-0.218 0.349 0.137 0.641 0.317 0.983 0.648-0.275-0.455-0.684-0.765-1.001-0.814s-0.461 0.063-0.387 0.384"/>
   <path transform="matrix(17.583 0 0 -17.583 114.26 273.59)" d="m0 0c0.039-0.321 0.609-0.483 1.522 0.486-0.381-0.616-0.863-0.874-1.156-0.891-0.314-0.019-0.446 0.103-0.366 0.405"/>
   <path transform="matrix(17.583 0 0 -17.583 138.72 276.07)" d="m0 0c0.035-0.31 0.687 4e-3 1.219 0.617-0.328-0.465-0.701-0.772-0.927-0.888-0.225-0.116-0.352-0.025-0.292 0.271"/>
  </g>
  <g fill="#d49a9c">
   <path transform="matrix(17.583 0 0 -17.583 142.41 282.12)" d="m0 0c0.477-0.141 0.646-0.397 0.689-0.878-0.222 0.098-0.558 0.206-0.834 0.518-3e-3 -0.272-0.148-0.581-0.383-0.655-0.128 0.124-0.269 0.329-0.272 0.554-0.162-0.141-0.616-0.259-0.77-0.393-0.078 0.442 0.038 0.679 0.42 0.767 0.205 0.047 0.343 0.174 0.474 0.393 0.219 0.195 0.39 0.353 0.545 0.561-0.222-0.625-0.108-0.877 0.131-0.867"/>
   <path transform="matrix(17.583 0 0 -17.583 75.5 260.93)" d="m0 0c-0.149-0.189-0.292-0.319-0.417-0.398-0.078-0.095-0.121-0.193-0.131-0.269-0.018-0.142 0.087-0.724 0.259-0.797 0.126 0.143 0.172 0.399 0.168 0.708-0.05 0.161-0.018 0.434 0.121 0.756"/>
   <path transform="matrix(17.583 0 0 -17.583 75.108 276.6)" d="m0 0c-1e-3 0-1e-3 1e-3 -2e-3 1e-3 0.125-0.33 0.33-0.569 0.535-0.714 0.082 0.168 0.055 0.48-4e-3 0.797-0.226-0.137-0.407-0.15-0.529-0.084"/>
   <path transform="matrix(17.583 0 0 -17.583 93.359 279.84)" d="m0 0c-0.102 0.094-0.103 0.425 0.065 0.803-0.175-0.215-0.337-0.369-0.483-0.474 0.143-0.107 0.208-0.254 0.302-0.456 0.059-0.128 0.105-0.239 0.168-0.278 0.082 0.046 0.133 0.183 0.152 0.321-0.081 7e-3 -0.15 0.035-0.204 0.084"/>
  </g>
  <path transform="matrix(17.583 0 0 -17.583 172.44 48.522)" d="m0 0c-0.171-0.143-0.342-0.237-0.509-0.284-0.082-0.119-0.14-0.245-0.175-0.367 0.221 0.159 0.583 0.129 0.852-0.245 0.022 0.086 0.037 0.181 0.044 0.285-0.105 0.153-0.184 0.359-0.212 0.611" fill="#cf7492"/>
  <g fill="#0d131a">
   <path transform="matrix(17.583 0 0 -17.583 176.86 60.167)" d="m0 0c-0.057-0.644-0.413-0.92-0.709-0.834-0.358 0.105-0.429 0.715-0.113 1.199l0.127 0.031c-0.374-0.514-0.259-1.068 0.01-1.147 0.277-0.081 0.578 0.258 0.603 0.859z"/>
   <path transform="matrix(17.583 0 0 -17.583 175.16 65.266)" d="m0 0c-0.258 0.378-0.628 0.434-0.852 0.241l0.03 0.122c0.242 0.146 0.596 0.087 0.853-0.255z"/>
   <path transform="matrix(17.583 0 0 -17.583 124.54 57.537)" d="m0 0c0.152-0.094 0.299-0.239 0.442-0.392 0.233-0.25 0.571-0.261 0.737 0.039 0.121 0.216 0.162 0.444 0.14 0.752-7e-3 0.091-0.033 0.126-0.145 0.176-0.651 0.293-1.286 0.261-1.69-0.09-0.305-0.265-0.406-0.783-0.34-1.12 0.22 0.437 0.654 0.698 1.176 0.731 0.389 0.024 0.769-0.1 0.955-0.374l-0.051-0.098c-0.162 0.283-0.535 0.411-0.904 0.388-0.465-0.029-0.859-0.276-1.081-0.648-0.111-0.188-0.154-0.146-0.184 0.025-0.068 0.385 0.051 0.895 0.364 1.167 0.423 0.367 1.126 0.412 1.799 0.109 0.141-0.063 0.185-0.101 0.197-0.259 0.023-0.321-0.03-0.594-0.156-0.82-0.194-0.351-0.628-0.336-0.891-0.046-0.162 0.179-0.303 0.314-0.475 0.421z"/>
   <path transform="matrix(17.583 0 0 -17.583 92.05 131.7)" d="m0 0c0.029 0.058 0.047 0.097 0.073 0.14-0.545 0.205-1.373 0.778-1.975 1.577-0.425 0.565-0.665 0.808-1.062 1.052-0.6 0.369-0.45 0.795 0.106 0.844 1.064 0.094 1.894-0.223 2.919-1.152 0.433-0.393 0.859-0.433 1.2-0.273 0.132 0.062 0.164 0.119 0.126 0.298-0.125 0.586-0.113 1.141 0.04 1.528l0.142 0.089c-0.176-0.368-0.207-0.993-0.078-1.6 0.045-0.21-0.018-0.331-0.194-0.413-0.344-0.161-0.853-0.143-1.318 0.279-1.01 0.915-1.787 1.244-2.831 1.151-0.496-0.043-0.562-0.363-0.061-0.671 0.405-0.249 0.671-0.501 1.102-1.073 0.597-0.794 1.433-1.363 1.97-1.563 0.045-0.017 0.053-0.037 0.025-0.084-0.022-0.035-0.045-0.078-0.067-0.121z"/>
   <path transform="matrix(17.583 0 0 -17.583 199.6 77.06)" d="m0 0c-0.01-0.217-0.093-0.527-0.255-0.748-0.185-0.253-0.253-0.379-0.31-0.661l-0.104 0.046c0.059 0.283 0.144 0.427 0.329 0.68 0.156 0.213 0.224 0.485 0.232 0.691z"/>
   <path transform="matrix(17.583 0 0 -17.583 148.21 47.159)" d="m0 0c0.391-0.381 0.864-0.439 1.339-0.062 0.055 0.043 0.068 0.033 0.079-0.039 0.074-0.48 0.301-0.73 0.504-0.817 0.142-0.061 0.269-0.049 0.402 0.032 0.053 0.032 0.077 0.031 0.073-0.043-0.022-0.416 0.257-0.711 0.501-0.725 0.136-9e-3 0.137-0.067 0-0.067-0.277-6e-3 -0.59 0.299-0.58 0.743-0.107-0.073-0.295-0.091-0.435-0.031-0.274 0.118-0.475 0.446-0.533 0.864-0.462-0.374-0.957-0.321-1.34 0.024z"/>
   <path transform="matrix(17.583 0 0 -17.583 195.6 87.814)" d="m0 0c0.384-0.083 0.786 0.14 0.734 0.532l0.093 0.031c0.077-0.513-0.442-0.756-0.885-0.648z"/>
   <path transform="matrix(17.583 0 0 -17.583 210.09 59.645)" d="m0 0c0.223-0.096 0.367-0.318 0.364-0.559-4e-3 -0.249-0.157-0.464-0.419-0.537-0.12-0.034-0.146 0.012-0.018 0.064 0.212 0.088 0.335 0.254 0.338 0.476 3e-3 0.216-0.106 0.397-0.3 0.487z"/>
   <path transform="matrix(17.583 0 0 -17.583 194.26 40.652)" d="m0 0c0.42 0.067 0.753-0.1 0.921-0.357 0.161-0.247 0.156-0.557-0.011-0.784-0.088-0.12-0.137-0.093-0.056 0.04 0.137 0.226 0.13 0.467-0.017 0.692-0.157 0.241-0.454 0.396-0.837 0.331z"/>
   <path transform="matrix(17.583 0 0 -17.583 172.86 30.633)" d="m0 0c0.331 0.159 0.661 0.176 0.904 0.035 0.213-0.123 0.343-0.352 0.346-0.632 1e-3 -0.166-0.054-0.168-0.069-3e-3 -0.023 0.246-0.136 0.441-0.331 0.554-0.228 0.132-0.515 0.125-0.832-0.032z"/>
   <path transform="matrix(17.583 0 0 -17.583 172.51 31.539)" d="m0 0c-0.07 0.274-0.27 0.463-0.558 0.521-0.309 0.062-0.596-0.054-0.79-0.311-0.094-0.126-0.14-0.094-0.055 0.039 0.195 0.304 0.528 0.437 0.862 0.37 0.312-0.063 0.55-0.3 0.607-0.603 0.031-0.169-0.024-0.181-0.066-0.016"/>
   <path transform="matrix(17.583 0 0 -17.583 148.2 27.557)" d="m0 0c-0.183 0.268-0.547 0.347-0.801 0.271-0.208-0.063-0.292-0.185-0.299-0.365-6e-3 -0.152-0.056-0.153-0.067-1e-3 -0.016 0.222 0.12 0.394 0.342 0.46 0.281 0.084 0.661 1e-3 0.876-0.304z"/>
   <path transform="matrix(17.583 0 0 -17.583 118.49 45.816)" d="m0 0c-0.19 0.236-0.242 0.536-0.109 0.763 0.121 0.208 0.365 0.307 0.666 0.254l-2e-3 -0.082c-0.274 0.051-0.475-0.043-0.579-0.22-0.117-0.203-0.065-0.469 0.11-0.676z"/>
   <path transform="matrix(17.583 0 0 -17.583 209.29 77.785)" d="m0 0c0.727 0.241 1.077 0.504 1.099 0.762l0.096 0.084c0.015-0.442-0.441-0.711-1.189-0.921z"/>
   <path transform="matrix(17.583 0 0 -17.583 215.49 69.744)" d="m0 0c0.054 8e-3 0.091 0.017 0.145 0.03 0.135 0.033 0.15-0.032 0.018-0.074-0.067-0.021-0.104-0.029-0.163-0.042z"/>
   <path transform="matrix(17.583 0 0 -17.583 229.34 46.673)" d="m0 0c0.175 0.042 0.326-0.059 0.32-0.367-7e-3 -0.363-0.248-0.692-0.612-0.865-0.145-0.068-0.18-0.017-0.027 0.063 0.332 0.174 0.536 0.495 0.542 0.805 5e-3 0.26-0.108 0.323-0.289 0.261z"/>
   <path transform="matrix(17.583 0 0 -17.583 222 28.689)" d="m0 0c0.265 0.079 0.538-2e-3 0.659-0.239 0.103-0.2-1e-3 -0.565-0.291-0.922-0.118-0.146-0.167-0.113-0.054 0.045 0.273 0.384 0.331 0.685 0.256 0.833-0.101 0.197-0.353 0.293-0.621 0.181z"/>
   <path transform="matrix(17.583 0 0 -17.583 208.86 15.205)" d="m0 0c0.205 0.118 0.424 0.147 0.576 0.09 0.305-0.115 0.411-0.629 0.136-0.988-0.109-0.143-0.157-0.117-0.055 0.039 0.23 0.352 0.114 0.771-0.116 0.858-0.147 0.055-0.39 0.013-0.569-0.103z"/>
   <path transform="matrix(17.583 0 0 -17.583 189.6 6.5272)" d="m0 0c0.289 0.232 0.612 0.307 0.85 0.222 0.276-0.099 0.386-0.484 0.26-0.785-0.071-0.168-0.121-0.154-0.067 0.025 0.087 0.291-0.019 0.594-0.229 0.67-0.228 0.082-0.539-7e-3 -0.822-0.234z"/>
   <path transform="matrix(17.583 0 0 -17.583 169.55 -.90502)" d="m0 0c0.199 0.297 0.519 0.44 0.802 0.365 0.306-0.082 0.45-0.396 0.364-0.859-0.031-0.171-0.088-0.163-0.068 0.011 0.047 0.405-0.044 0.681-0.321 0.754-0.282 0.075-0.588-0.089-0.769-0.397z"/>
   <path transform="matrix(17.583 0 0 -17.583 149.57 -.18033)" d="m0 0c0.217 0.497 0.579 0.666 0.821 0.65 0.244-0.017 0.379-0.241 0.356-0.667-9e-3 -0.165-0.069-0.167-0.07-1e-3 -3e-3 0.391-0.109 0.558-0.296 0.57-0.224 0.016-0.566-0.158-0.774-0.662z"/>
   <path transform="matrix(17.583 0 0 -17.583 142.82 -7.0374)" d="m0 0c-0.2 0-0.404-0.202-0.467-0.461l-0.052 0.089c0.088 0.268 0.307 0.472 0.521 0.472 0.247 0 0.391-0.172 0.433-0.537 0.017-0.153-0.042-0.162-0.068-0.01-0.062 0.363-0.199 0.447-0.367 0.447"/>
   <path transform="matrix(17.583 0 0 -17.583 121.1 16.808)" d="M 0,0 C -0.103,0.381 -0.047,0.773 0.158,1.043 0.381,1.335 0.621,1.292 0.761,0.973 0.831,0.814 0.779,0.788 0.703,0.944 0.578,1.2 0.411,1.228 0.231,0.991 0.037,0.736 -0.022,0.363 0.065,0.02 0.111,-0.16 0.048,-0.177 0,0"/>
   <path transform="matrix(17.583 0 0 -17.583 120.93 12.103)" d="m0 0c-0.145-0.271-0.133-0.669 0.082-0.958l-0.081-0.025c-0.256 0.33-0.238 0.865-9e-3 1.141z"/>
   <path transform="matrix(17.583 0 0 -17.583 125.85 28.553)" d="m0 0c-0.045 0.077-0.072 0.131-0.107 0.212-0.074 0.175-0.022 0.201 0.06 0.03 0.039-0.081 0.075-0.144 0.126-0.232z"/>
   <path transform="matrix(17.583 0 0 -17.583 135.68 21.636)" d="m0 0c-0.041 0.143-0.066 0.271-0.081 0.421-0.021 0.212 0.037 0.216 0.068 6e-3 0.021-0.145 0.047-0.268 0.092-0.418z"/>
   <path transform="matrix(17.583 0 0 -17.583 149.35 26.336)" d="m0 0c-0.024 0.193-0.032 0.471-0.019 0.748 9e-3 0.197 0.068 0.194 0.066-2e-3 -2e-3 -0.269 9e-3 -0.478 0.028-0.659z"/>
   <path transform="matrix(17.583 0 0 -17.583 164.71 21.961)" d="m0 0c0.024 0.184 0.059 0.364 0.098 0.555 0.039 0.197 0.101 0.182 0.065-0.015-0.033-0.179-0.06-0.369-0.085-0.572z"/>
   <path transform="matrix(17.583 0 0 -17.583 178.4 29.44)" d="m0 0c0.109 0.169 0.177 0.287 0.266 0.472 0.092 0.192 0.148 0.162 0.06-0.032-0.081-0.179-0.136-0.284-0.228-0.427z"/>
   <path transform="matrix(17.583 0 0 -17.583 193.31 36.726)" d="m0 0c0.129 0.171 0.219 0.298 0.322 0.463 0.099 0.159 0.146 0.126 0.054-0.037-0.101-0.177-0.204-0.335-0.35-0.532z"/>
   <path transform="matrix(17.583 0 0 -17.583 206.77 44.205)" d="m0 0c0.098 0.064 0.194 0.134 0.309 0.237 0.136 0.123 0.177 0.076 0.044-0.05-0.119-0.114-0.201-0.176-0.297-0.239z"/>
   <path transform="matrix(17.583 0 0 -17.583 210.63 58.734)" d="m0 0c0.158 0.033 0.286 0.082 0.436 0.171 0.142 0.084 0.168 0.035 0.032-0.058-0.148-0.102-0.318-0.171-0.502-0.204z"/>
   <path transform="matrix(17.583 0 0 -17.583 34.098 75.731)" d="m0 0c-0.295-8e-3 -0.894 0.074-1.156 0.079-0.255 5e-3 -1.059-0.065-1.462-0.021-0.571 0.062-0.966 0.328-1.155 0.772-0.135 0.318-0.085 0.569 0.107 0.704 0.216 0.152 0.543 0.101 0.892-0.213 0.744-0.672 1.608-0.94 3.054-0.947l-0.151-0.085c-1.371 0.021-2.239 0.305-2.969 0.964-0.338 0.305-0.623 0.311-0.779 0.202-0.15-0.105-0.178-0.315-0.061-0.59 0.16-0.378 0.522-0.638 1.078-0.702 0.423-0.049 1.211 0.013 1.447 0.01 0.269-3e-3 0.775-0.084 1.15-0.091z"/>
   <path transform="matrix(17.583 0 0 -17.583 184.66 143.28)" d="m0 0c0.014 0.085 0.025 0.165 0.035 0.261l0.12-0.047c-0.011-0.098-0.022-0.173-0.041-0.273z"/>
   <path transform="matrix(17.583 0 0 -17.583 170.2 146.76)" d="m0 0c0.225 0.34 0.691 0.393 1.014 0.143 0.698-0.543 0.589-1.403 0.423-1.516-0.165-0.112-0.769 0.099-1.206 0.53l0.012 0.089c0.409-0.406 0.989-0.636 1.145-0.533 0.111 0.073 0.212 0.848-0.441 1.356-0.287 0.223-0.688 0.169-0.909-0.149z"/>
   <path transform="matrix(17.583 0 0 -17.583 29.486 75.051)" d="m0 0c-0.896-0.088-1.782-0.367-2.487-0.794-0.458-0.277-0.898-0.319-1.208-0.242-0.465 0.117-0.599 0.464-0.23 0.817 0.234 0.224 0.68 0.354 1.264 0.363l0.322-0.096c-0.709 0.033-1.263-0.087-1.523-0.335-0.31-0.296-0.196-0.561 0.193-0.659 0.309-0.077 0.716-3e-3 1.133 0.25 0.589 0.357 1.403 0.639 2.191 0.749z"/>
   <path transform="matrix(17.583 0 0 -17.583 34.541 76.661)" d="m0 0c-0.807-0.039-1.626-0.732-2.022-1.711-0.164-0.403-0.454-0.467-0.647-0.416-0.213 0.057-0.311 0.285-0.277 0.537 0.069 0.513 0.649 1.131 1.26 1.446l0.491 0.121c-0.812-0.259-1.575-0.977-1.658-1.578-0.032-0.232 0.068-0.402 0.208-0.439 0.169-0.045 0.397 0.02 0.537 0.366 0.402 0.996 1.252 1.714 2.088 1.756z"/>
   <path transform="matrix(17.583 0 0 -17.583 123.81 141.1)" d="m0 0c0.197 0.233 0.482 0.324 0.759 0.243 0.251-0.073 0.455-0.276 0.548-0.542 0.163 0.258 0.385 0.408 0.63 0.428 0.317 0.026 0.632-0.182 0.775-0.523 0.076-0.182 0.022-0.202-0.063-0.029-0.152 0.309-0.431 0.476-0.707 0.454-0.231-0.019-0.445-0.17-0.6-0.414-0.042-0.068-0.059-0.064-0.083 6e-3 -0.089 0.26-0.287 0.455-0.526 0.525-0.256 0.075-0.517-3e-3 -0.699-0.22z"/>
   <path transform="matrix(17.583 0 0 -17.583 113.3 136.33)" d="m0 0c-0.251-1e-3 -0.502-0.119-0.677-0.303-0.12-0.127-0.159-0.086-0.048 0.048 0.186 0.223 0.458 0.353 0.727 0.353 0.29 1e-3 0.54-0.153 0.655-0.409 0.059-0.131-1e-3 -0.159-0.061-0.034-0.103 0.217-0.332 0.346-0.596 0.345"/>
   <path transform="matrix(17.583 0 0 -17.583 102.48 135.56)" d="m0 0c-0.181 0.205-0.493 0.248-0.777 0.099l0.029 0.115c0.26 0.119 0.545 0.082 0.73-0.079z"/>
   <path transform="matrix(17.583 0 0 -17.583 94.638 152.25)" d="m0 0c-0.522-0.287-0.985-0.231-1.194-0.029-0.1 0.097-0.128 0.23-0.094 0.335l0.074-0.073c-7e-3 -0.066 0.021-0.127 0.089-0.192 0.188-0.182 0.625-0.242 1.129 0.043z"/>
   <path transform="matrix(17.583 0 0 -17.583 146.86 160.41)" d="m0 0c-0.214-0.407-0.62-0.545-0.919-0.492-0.288 0.052-0.602 0.296-0.564 0.815-0.348-0.285-0.72-0.428-1.036-0.393-0.362 0.04-0.544 0.299-0.473 0.601 0.037 0.16 0.095 0.145 0.065-0.016-0.048-0.265 0.136-0.456 0.421-0.487 0.308-0.034 0.691 0.119 1.035 0.409 0.062 0.052 0.078 0.042 0.07-0.035-0.052-0.504 0.234-0.749 0.503-0.797 0.282-0.05 0.649 0.08 0.858 0.476 0.029 0.056 0.052 0.064 0.082 0 0.244-0.533 0.684-0.761 0.992-0.744 0.315 0.017 0.5 0.272 0.496 0.667-1e-3 0.143 0.064 0.145 0.068 2e-3 0.011-0.373-0.138-0.746-0.558-0.768-0.299-0.015-0.776 0.19-1.04 0.762"/>
   <path transform="matrix(17.583 0 0 -17.583 20.869 179.74)" d="m0 0c0.327 1.108 1.516 2.244 2.826 2.281l5e-3 -0.116c-1.198-0.039-2.254-0.994-2.663-1.972z"/>
   <path transform="matrix(17.583 0 0 -17.583 18.982 202.4)" d="m0 0c-0.102-0.053-0.218-0.045-0.271 6e-3 -0.438 0.428 0.746 2.149 1.96 2.818 0.221 0.122 0.251 0.071 0.034-0.06-1.274-0.771-2.252-2.357-1.922-2.679 0.039-0.038 0.141-0.037 0.241 0.038z"/>
   <path transform="matrix(17.583 0 0 -17.583 26.219 215.76)" d="m0 0c-0.157-0.24-0.299-0.367-0.416-0.359-0.419 0.028-0.277 1.606 1.261 2.835 0.174 0.139 0.217 0.092 0.046-0.052-1.482-1.253-1.545-2.659-1.3-2.681 0.09-8e-3 0.253 0.16 0.47 0.478z"/>
   <path transform="matrix(17.583 0 0 -17.583 34.119 232.28)" d="m0 0c-0.174-0.311-0.274-0.377-0.358-0.369-0.237 0.021-0.349 0.809-0.059 1.524 0.077 0.189 0.135 0.165 0.063-0.025-0.285-0.747-0.12-1.391 5e-3 -1.402 0.061-5e-3 0.183 0.124 0.373 0.478z"/>
   <path transform="matrix(17.583 0 0 -17.583 37.333 249.5)" d="m0 0c-0.25-4e-3 -0.602 1.231 0.632 3.074 0.12 0.18 0.175 0.145 0.057-0.037-1.235-1.923-0.775-2.94-0.686-2.939 0.08 2e-3 0.224 0.17 0.444 0.684l3e-3 -0.204c-0.186-0.4-0.329-0.576-0.45-0.578"/>
   <path transform="matrix(17.583 0 0 -17.583 44.723 236.29)" d="m0 0c0.014 0.237 0.075 0.231 0.067-6e-3 -0.033-1.042 0.313-1.522 0.475-1.505 0.091 9e-3 0.224 0.138 0.326 0.624 0.053 0.252 0.115 0.239 0.068-0.015-0.1-0.526-0.256-0.693-0.383-0.706-0.267-0.03-0.613 0.562-0.553 1.608"/>
   <path transform="matrix(17.583 0 0 -17.583 60.693 253.07)" d="m0 0c-0.045-0.445-0.04-0.808 0.11-0.878 0.144-0.067 0.475 0.118 0.819 0.605 0.134 0.19 0.185 0.157 0.057-0.037-0.392-0.59-0.754-0.733-0.919-0.656-0.135 0.063-0.194 0.275-0.176 0.694z"/>
   <path transform="matrix(17.583 0 0 -17.583 77.211 258.76)" d="m0 0c-0.252-0.515-0.237-0.895-0.097-0.97 0.279-0.151 0.976 0.152 1.889 1.942 0.089 0.174 0.146 0.144 0.06-0.031-0.916-1.868-1.665-2.177-1.995-1.999-0.176 0.095-0.192 0.449-0.037 0.84z"/>
   <path transform="matrix(17.583 0 0 -17.583 96.123 263.91)" d="m0 0c-0.223-0.432-0.207-0.794-0.124-0.871 0.234-0.215 0.825 0.051 1.295 0.68 0.117 0.157 0.166 0.122 0.054-0.039-0.531-0.759-1.163-0.947-1.42-0.711-0.109 0.101-0.11 0.414 0.027 0.762z"/>
   <path transform="matrix(17.583 0 0 -17.583 115.99 269.38)" d="m0 0c-0.147-0.223-0.119-0.455-0.039-0.527 0.211-0.192 0.805-0.083 1.439 0.756 0.114 0.152 0.165 0.115 0.054-0.04-0.628-0.883-1.298-1.027-1.558-0.79-0.086 0.078-0.112 0.266-0.058 0.434z"/>
   <path transform="matrix(17.583 0 0 -17.583 141.28 266.15)" d="m0 0c-0.155-0.429-0.182-0.774-0.06-0.832 0.136-0.064 0.553 0.212 1.132 0.892 0.137 0.161 0.18 0.118 0.05-0.048-0.53-0.673-1.019-1.028-1.223-0.934-0.177 0.082-0.142 0.463-0.018 0.816z"/>
   <path transform="matrix(17.583 0 0 -17.583 158.39 268.22)" d="m0 0c-0.079-0.394-0.026-0.501 0.026-0.518 0.266-0.087 1.333 0.85 1.854 2.456 0.07 0.217 0.131 0.194 0.065-0.024-0.505-1.646-1.609-2.634-1.946-2.527-0.115 0.037-0.15 0.206-0.101 0.504z"/>
   <path transform="matrix(17.583 0 0 -17.583 173.4 268.15)" d="m0 0c0.071-0.127 0.228-0.14 0.381-0.05 0.775 0.456 1.613 1.85 1.619 3.535 1e-3 0.236 0.063 0.235 0.065-2e-3 0.013-1.711-0.823-3.139-1.648-3.624-0.205-0.121-0.401-0.073-0.482 0.068z"/>
   <path transform="matrix(17.583 0 0 -17.583 194.53 255.48)" d="m0 0c0.553 0.341 0.994 1.118 1.121 2.144 0.027 0.216 0.083 0.211 0.061-6e-3 -0.111-1.099-0.583-1.982-1.271-2.298z"/>
   <path transform="matrix(17.583 0 0 -17.583 196.17 168.24)" d="m0 0c0.744-0.619 1.2-1.4 1.299-2.22 0.112-0.922-0.241-1.849-0.957-2.456l0.22 0.351c0.509 0.59 0.711 1.339 0.619 2.099-0.097 0.8-0.512 1.513-1.231 2.132z"/>
   <path transform="matrix(17.583 0 0 -17.583 194.24 170.41)" d="m0 0c0.134-0.168 0.244-0.333 0.325-0.534 0.072-0.176 0.016-0.195-0.062-0.027-0.094 0.203-0.218 0.372-0.356 0.55z"/>
   <path transform="matrix(17.583 0 0 -17.583 189.35 169.88)" d="m0 0c0.271-0.398 0.472-0.992 0.526-1.603 0.016-0.181-0.045-0.183-0.068-3e-3 -0.078 0.616-0.305 1.258-0.593 1.643z"/>
   <path transform="matrix(17.583 0 0 -17.583 178.01 163.83)" d="m0 0c0.122-0.197 0.208-0.374 0.303-0.635 0.06-0.162-2e-3 -0.184-0.063-0.027-0.103 0.268-0.241 0.554-0.415 0.791z"/>
   <path transform="matrix(17.583 0 0 -17.583 176.84 237.57)" d="m0 0c0.369 0.788 0.495 1.586 0.469 2.816-4e-3 0.226 0.058 0.228 0.069 2e-3 0.06-1.236-0.092-2.057-0.491-2.839-0.108-0.212-0.15-0.199-0.047 0.021"/>
   <path transform="matrix(17.583 0 0 -17.583 171.04 170.4)" d="m0 0c0.204-0.41 0.276-0.855 0.204-1.337-0.035-0.235-0.092-0.231-0.067 6e-3 0.049 0.471-0.016 0.878-0.21 1.273z"/>
   <path transform="matrix(17.583 0 0 -17.583 157.48 170.99)" d="m0 0c0.197-0.551 0.158-1.243-0.12-2.136-0.064-0.206-0.126-0.189-0.066 0.021 0.267 0.932 0.284 1.638 0.062 2.188z"/>
   <path transform="matrix(17.583 0 0 -17.583 130.88 168.18)" d="m0 0c-0.149-0.503-0.395-1.04-0.794-1.72-0.128-0.216-0.182-0.187-0.058 0.037 0.392 0.706 0.614 1.213 0.76 1.704z"/>
   <path transform="matrix(17.583 0 0 -17.583 121.61 158.65)" d="m0 0c-0.724-1.017-1.396-2.174-1.685-2.919-0.081-0.21-0.142-0.188-0.063 0.026 0.281 0.77 0.983 1.978 1.739 3.022z"/>
   <path transform="matrix(17.583 0 0 -17.583 108.53 160.36)" d="m0 0c-0.348-0.298-0.578-0.506-0.882-0.832-0.14-0.151-0.189-0.114-0.049 0.046 0.274 0.312 0.483 0.516 0.768 0.765z"/>
   <path transform="matrix(17.583 0 0 -17.583 94.843 154.91)" d="m0 0c-0.542-0.243-0.923-0.551-1.422-1.021-0.156-0.146-0.205-0.106-0.047 0.052 0.496 0.492 0.898 0.819 1.456 1.067z"/>
   <path transform="matrix(17.583 0 0 -17.583 73.914 151.79)" d="m0 0c-0.347-0.147-0.624-0.291-0.917-0.483-0.195-0.127-0.237-0.083-0.038 0.058 0.281 0.198 0.56 0.353 0.905 0.501z"/>
   <path transform="matrix(17.583 0 0 -17.583 128.56 290.87)" d="m0 0c-0.194-0.171-0.51-0.225-0.743-0.369-0.056-0.035-0.066-0.024-0.081 0.023-0.112 0.343 0.02 0.698 0.449 0.794 0.196 0.044 0.339 0.179 0.423 0.33l0.126 0.081c-0.084-0.249-0.269-0.44-0.53-0.498-0.398-0.09-0.46-0.396-0.401-0.641 0.222 0.134 0.568 0.194 0.757 0.392z"/>
   <path transform="matrix(17.583 0 0 -17.583 132.22 300.26)" d="m0 0c-0.146 0.132-0.226 0.341-0.25 0.48-0.051 0.306 0.151 0.401 0.196 0.493 0.061 0.122 0.106 0.105 0.063-0.025-0.043-0.127-0.217-0.182-0.173-0.456 0.021-0.126 0.085-0.294 0.216-0.429 0.278 0.165 0.392 0.438 0.326 0.807-0.023 0.133 0.038 0.145 0.066 0.013 0.084-0.403-0.031-0.706-0.352-0.893-0.043-0.026-0.056-0.023-0.092 0.01"/>
   <path transform="matrix(17.583 0 0 -17.583 143.99 280.79)" d="m0 0c0.271-0.04 0.46-0.133 0.589-0.286 0.133-0.156 0.133-0.509 0.071-0.703-0.016-0.05-0.042-0.055-0.085-0.023-0.136 0.104-0.581 0.202-0.811 0.517l0.017 0.119c0.23-0.349 0.732-0.456 0.812-0.539 0.048 0.199 0.017 0.466-0.072 0.571-0.138 0.164-0.359 0.252-0.686 0.278z"/>
   <path transform="matrix(17.583 0 0 -17.583 74.107 275.54)" d="m0 0c1e-3 -0.3-0.061-0.512-0.167-0.647-0.029-0.037-0.044-0.036-0.081-0.014-0.183 0.109-0.286 0.671-0.266 0.829 0.01 0.071 0.038 0.145 0.092 0.221l0.189 0.098c-0.137-0.119-0.18-0.25-0.191-0.328-0.021-0.166 0.091-0.657 0.205-0.738 0.109 0.141 0.143 0.391 0.128 0.758z"/>
   <path transform="matrix(17.583 0 0 -17.583 85.103 274.64)" d="m0 0c0.077-0.392 0.082-0.672 8e-3 -0.836-0.021-0.045-0.04-0.048-0.082-0.018-0.242 0.173-0.455 0.456-0.561 0.779l0.121-0.059c0.133-0.333 0.331-0.526 0.461-0.625 0.047 0.145 0.034 0.363-0.029 0.708z"/>
   <path transform="matrix(17.583 0 0 -17.583 97.726 281.32)" d="m0 0c-0.02-0.156-0.075-0.289-0.157-0.347-0.032-0.023-0.049-0.023-0.079 3e-3 -0.061 0.054-0.12 0.184-0.168 0.289-0.088 0.19-0.165 0.342-0.3 0.442l0.074 0.054c0.138-0.107 0.212-0.267 0.301-0.459 0.043-0.095 0.09-0.213 0.132-0.251 0.055 0.048 0.09 0.145 0.108 0.277z"/>
  </g>
  <path transform="matrix(17.583 0 0 -17.583 150.85 95.707)" d="m0 0c-0.52-0.089-0.519-0.452-7e-3 -0.838 0.514-0.387 0.982-0.799 1.461-1.271 0.65-0.642 1.829-0.649 2.152-0.068 0.221 0.398 0.1 0.894-0.487 1.318-0.957 0.69-2.217 1.013-3.119 0.859" fill="#ee86a7"/>
  <path transform="matrix(17.583 0 0 -17.583 144.74 98.774)" d="m0 0c-0.948-0.013-1.632-0.323-2.029-0.755-0.523-0.567-0.531-1.314-0.125-1.833 0.204-0.261 0.477-0.299 0.667-0.206 0.22 0.107 0.323 0.362 0.196 0.728-0.177 0.51-0.094 0.975 0.179 1.323 0.237 0.304 0.611 0.512 1.07 0.595-2e-3 0.054 0.012 0.104 0.042 0.148" fill="#fadce2"/>
  <path transform="matrix(17.583 0 0 -17.583 142.19 98.86)" d="m0 0c-0.901 0.118-1.828-0.032-2.573-0.393-0.905-0.438-1.44-1.091-1.498-1.806-0.034-0.423 0.117-0.691 0.341-0.725 0.218-0.033 0.521 0.138 0.607 0.588 0.166 0.864 0.615 1.415 1.4 1.741 0.385 0.328 0.964 0.559 1.723 0.595" fill="#fff5d7"/>
  <path transform="matrix(17.583 0 0 -17.583 96.954 105.77)" d="m0 0c0.729 0.353 1.703 0.505 2.589 0.4-0.803 0.242-1.832 0.152-2.603-0.188-0.601-0.264-1.069-0.685-1.211-1.229 0.252 0.396 0.668 0.747 1.225 1.017" fill="#fadce2"/>
  <path transform="matrix(17.583 0 0 -17.583 145.11 99.241)" d="m0 0c-9e-3 -0.108 0.104-0.275 0.278-0.395 0.628-0.43 1.219-0.842 1.735-1.3 0.609-0.539 1.693-0.516 1.973 0.077 0.044-1.067-1.626-0.912-2.229-0.274-0.304 0.323-1.138 1.045-1.457 1.278-0.318 0.233-0.421 0.488-0.3 0.614" fill="#cf7492"/>
  <g fill="#0d131a">
   <path transform="matrix(17.583 0 0 -17.583 150.94 96.521)" d="m0 0c-0.504-0.086-0.439-0.411 0.016-0.754 0.501-0.376 0.974-0.773 1.473-1.265 0.641-0.633 1.759-0.621 2.059-0.083 0.204 0.368 0.095 0.824-0.477 1.238-0.935 0.675-2.16 1.02-3.071 0.864m1.401-2.106c-0.497 0.49-0.947 0.903-1.445 1.279-0.56 0.421-0.515 0.826 0.032 0.919 0.922 0.157 2.212-0.169 3.163-0.862 0.601-0.439 0.743-0.958 0.502-1.392-0.356-0.64-1.574-0.614-2.252 0.056"/>
   <path transform="matrix(17.583 0 0 -17.583 144.08 102.1)" d="m0 0c-0.457-0.086-0.82-0.307-1.036-0.582-0.269-0.344-0.338-0.802-0.171-1.284 0.13-0.375 0.022-0.664-0.225-0.785-0.209-0.102-0.508-0.05-0.721 0.223-0.437 0.559-0.402 1.329 0.123 1.899 0.447 0.486 1.21 0.768 2.1 0.764l-0.057-0.089c-0.848-0.024-1.541-0.285-1.97-0.75-0.508-0.553-0.503-1.281-0.125-1.765 0.177-0.227 0.432-0.278 0.614-0.189 0.218 0.106 0.275 0.347 0.165 0.665-0.173 0.499-0.101 1.002 0.191 1.375 0.23 0.294 0.631 0.527 1.108 0.605z"/>
   <path transform="matrix(17.583 0 0 -17.583 138.95 99.181)" d="m0 0c-0.754 0.07-1.622-0.061-2.368-0.421-0.882-0.427-1.416-1.058-1.473-1.765-0.033-0.406 0.112-0.642 0.303-0.672 0.225-0.034 0.472 0.155 0.547 0.551 0.172 0.893 0.671 1.481 1.528 1.812l-0.151-0.161c-0.71-0.318-1.119-0.861-1.276-1.676-0.089-0.465-0.41-0.661-0.66-0.623-0.255 0.039-0.42 0.334-0.384 0.777 0.057 0.714 0.618 1.413 1.527 1.853 0.794 0.384 1.785 0.515 2.702 0.374z"/>
   <path transform="matrix(17.583 0 0 -17.583 140.88 99.025)" d="m0 0c-0.761 0.207-1.727 0.119-2.492-0.217-0.701-0.308-1.033-0.735-1.158-1.094l-0.147-0.175c0.111 0.561 0.56 1.052 1.26 1.36 0.824 0.362 1.934 0.429 2.721 0.158z"/>
  </g>
 </g>
</svg>
