<?xml version="1.0" encoding="UTF-8"?>
<!-- Created with Inkscape (http://www.inkscape.org/) -->
<svg version="1.1" viewBox="0 0 335.47 304.12" xmlns="http://www.w3.org/2000/svg">
 <g transform="translate(39.818 2.2481)">
  <path transform="matrix(14.662 0 0 -14.662 85.297 124.06)" d="m0 0c-1.022-0.017-2.042 1e-3 -2.762 0.065-0.288 0.025-0.399 0.1-0.561 0.397-0.521 0.951-0.772 1.964-0.798 3.228 1.362 0.608 3.198 1.307 4.678 1.677-0.552 3.022-4.33 4-6.826 2.508 0.31-1.217 0.779-2.813 1.153-3.913-1.57-1.473-2.423-3.536-2.458-4.809-0.046-1.67 1.458-4.107 1.937-4.304 0.405-0.166 1.354-0.096 2.052 0.217l3.399 1.982z" fill="#8c93c8"/>
  <path transform="matrix(14.662 0 0 -14.662 34.485 177.12)" d="m0 0c-2.324 0.023-3.4186 3.419-1.651 7.581-1.569-1.473-2.422-3.536-2.457-4.809-0.046-1.67 1.458-4.107 1.937-4.304 0.404-0.165 1.351-0.096 2.049 0.215-4e-3 0.429 0.033 0.87 0.122 1.317" fill="#d2cde6"/>
  <path transform="matrix(14.662 0 0 -14.662 46.009 61.104)" d="m0 0c1.071 0.422 2.235 0.823 3.236 1.073-0.551 3.022-4.329 4-6.825 2.509 0.213-0.84 0.503-1.859 0.784-2.771 0.783 0.757 2.64 0.01 2.805-0.811" fill="#d2cde6"/>
  <g fill="#8c93c8">
   <path transform="matrix(14.662 0 0 -14.662 275.33 216.88)" d="M 0,0 0.951,-0.898 C 0.679,-0.504 0.372,-0.21 0,0"/>
   <path transform="matrix(14.662 0 0 -14.662 275.26 216.81)" d="m0 0c-0.296 0.386-1.593 0.587-3.108 0.566-1.246-0.018-2.077-0.032-3.578 0.062-0.957 0.061-2.075 1.853-2.268 3.605-0.087 0.785-0.055 1.282 0.273 1.811 0.585 0.941 0.622 1.97 0.17 2.716 0.761-0.707 1.959-2.104 2.833-3.127 0.327 0.159 0.554 0.368 0.727 0.691-0.918 0.99-2.147 1.996-3.331 2.757 0.873-0.158 2.616-0.903 3.871-1.535 0.05 0.363 0.014 0.804-0.127 1.168-1.141 0.353-2.561 0.584-4.018 0.72 0.997 0.277 2.083 0.473 2.951 0.583-0.582 1.79-2.617 3.091-4.82 2.322 0.148-0.657 0.292-1.424 0.387-2.065-0.623 0.807-1.536 1.55-2.513 2.009 0.064-0.212 0.104-0.363 0.152-0.59-0.183-0.049-0.315-0.084-0.561-0.139 0.708-0.295 1.536-0.716 2.25-1.282-0.851 0.396-2.137 0.692-3.05 0.636-0.237-0.238-0.377-0.842-0.21-1.128 0.939 0.104 2.051 0.114 3.126 0-1.197-0.178-2.182-1.27-2.055-3.01 0.022-0.313-0.108-0.624-0.298-0.838-0.363-0.411-0.627-0.98-0.573-1.472l3.016-5.217c0.601-0.529 1.396-0.534 1.948-0.177 0.039 0.026 0.073 0.056 0.105 0.088 0.855 0.199 1.583 0.648 2.798 0.871 1.587 0.293 3.214 0.435 4.209 0.39 0.698-0.031 1.246-0.163 1.699-0.42z"/>
   <path transform="matrix(14.662 0 0 -14.662 275.26 216.81)" d="m0 0c-0.296 0.386-1.593 0.587-3.108 0.566-1.246-0.018-2.077-0.032-3.578 0.062-0.957 0.061-2.075 1.853-2.268 3.605-0.087 0.785-0.055 1.282 0.273 1.811 0.585 0.941 0.622 1.97 0.17 2.716 0.761-0.707 1.959-2.104 2.833-3.127 0.327 0.159 0.554 0.368 0.727 0.691-0.918 0.99-2.147 1.996-3.331 2.757 0.873-0.158 2.616-0.903 3.871-1.535 0.05 0.363 0.014 0.804-0.127 1.168-1.141 0.353-2.561 0.584-4.018 0.72 0.997 0.277 2.083 0.473 2.951 0.583-0.582 1.79-2.617 3.091-4.82 2.322 0.148-0.657 0.292-1.424 0.387-2.065-0.623 0.807-1.536 1.55-2.513 2.009 0.064-0.212 0.104-0.363 0.152-0.59-0.183-0.049-0.315-0.084-0.561-0.139 0.708-0.295 1.536-0.716 2.25-1.282-0.851 0.396-2.137 0.692-3.05 0.636-0.237-0.238-0.377-0.842-0.21-1.128 0.939 0.104 2.051 0.114 3.126 0-1.197-0.178-2.182-1.27-2.055-3.01 0.022-0.313-0.108-0.624-0.298-0.838-0.363-0.411-0.627-0.98-0.573-1.472l3.016-5.217c0.601-0.529 1.396-0.534 1.948-0.177 0.039 0.026 0.073 0.056 0.105 0.088 0.855 0.199 1.583 0.648 2.798 0.871 1.587 0.293 3.214 0.435 4.209 0.39 0.698-0.031 1.246-0.163 1.699-0.42z"/>
  </g>
  <g fill="#bbe2e8">
   <path transform="matrix(14.662 0 0 -14.662 91.237 36.716)" d="m0 0c0.032-0.105 0.058-0.196 0.082-0.288 0.04 0.069 0.081 0.132 0.12 0.188-0.067 0.035-0.134 0.068-0.202 0.1"/>
   <path transform="matrix(14.662 0 0 -14.662 88.51 48.806)" d="m0 0c0.022 0.055 0.045 0.11 0.071 0.164-0.084-0.021-0.175-0.042-0.294-0.069 0.073-0.03 0.148-0.062 0.223-0.095"/>
   <path transform="matrix(14.662 0 0 -14.662 73.52 56.883)" d="m0 0c-0.237-0.237-0.378-0.841-0.211-1.127 0.207 0.022 0.423 0.04 0.644 0.054 0.038 0.347 0.145 0.781 0.267 1.057-0.247 0.022-0.484 0.029-0.7 0.016"/>
   <path transform="matrix(14.662 0 0 -14.662 196.73 99.516)" d="M 0,0 C 0.33,-0.151 0.651,-0.306 0.945,-0.454 0.995,-0.09 0.959,0.35 0.818,0.714 0.565,0.792 0.297,0.864 0.019,0.931 0.082,0.628 0.081,0.318 0,0"/>
   <path transform="matrix(14.662 0 0 -14.662 192.39 113.78)" d="m0 0c-0.182-0.239-0.408-0.479-0.668-0.645 0.225-0.261 0.442-0.514 0.642-0.748 0.327 0.159 0.554 0.368 0.727 0.69-0.218 0.235-0.453 0.47-0.701 0.703"/>
  </g>
  <path transform="matrix(14.662 0 0 -14.662 159.47 76.011)" d="m0 0c0.799 0.189 1.612 0.328 2.292 0.414-0.582 1.79-2.617 3.091-4.82 2.322 0.113-0.501 0.223-1.066 0.312-1.59 0.879 0.291 2.037-0.277 2.216-1.146" fill="#d2cde6"/>
  <path transform="matrix(14.662 0 0 -14.662 142.25 50.687)" d="m0 0c0.267 0.155 0.546 0.172 0.771 0.086 0.257-0.099 0.441-0.334 0.451-0.654 0.343 0.049 0.608-0.084 0.729-0.294 0.116-0.2 0.101-0.47-0.099-0.717 0.571 0.115 1.127 0.204 1.614 0.266-0.581 1.79-2.617 3.091-4.82 2.321 0.079-0.348 0.156-0.727 0.226-1.102 0.068 0.226 0.246 0.372 0.446 0.42 0.253 0.061 0.54-0.036 0.682-0.326" fill="#bbe2e8"/>
  <path transform="matrix(14.662 0 0 -14.662 126.72 115.49)" d="m0 0c-0.186-0.435-0.147-0.779 0.107-0.89 0.221-0.096 0.53 0.035 0.744 0.527 0.034 0.078 0.06 0.153 0.079 0.225-0.383-0.284-0.826-0.15-0.93 0.138" fill="#3e3a39"/>
  <path transform="matrix(14.662 0 0 -14.662 137.8 107.1)" d="m0 0c-0.182 0.079-0.523-0.035-0.752-0.561-1e-3 -4e-3 -2e-3 -7e-3 -4e-3 -0.011 0.104-0.288 0.547-0.422 0.93-0.138 0.092 0.355 0.011 0.63-0.174 0.71" fill="#8c93c8"/>
  <path transform="matrix(14.662 0 0 -14.662 87.681 99.673)" d="m0 0c-0.061-0.221-0.103-0.455-0.109-0.635 0.022-0.09 0.063-0.151 0.119-0.168 0.152-0.048 0.372 0.099 0.518 0.564-0.206-0.087-0.44-7e-3 -0.528 0.239" fill="#3e3a39"/>
  <path transform="matrix(14.662 0 0 -14.662 94.445 91.105)" d="m0 0c-0.094 0.03-0.199-5e-3 -0.304-0.149-0.059-0.122-0.113-0.276-0.157-0.435 0.088-0.246 0.321-0.327 0.527-0.239 1e-3 2e-3 2e-3 4e-3 2e-3 6e-3 0.149 0.482 0.078 0.77-0.068 0.817" fill="#8c93c8"/>
  <path transform="matrix(14.662 0 0 -14.662 93.851 103.53)" d="m0 0c0.057-0.118-0.037-0.29-0.175-0.254-0.114 0.029-0.147 0.196-0.056 0.287 0.066-0.039 0.146-0.045 0.231-0.033" fill="#fff"/>
  <path transform="matrix(14.662 0 0 -14.662 112.56 106.01)" d="m0 0c-0.041 0.228-0.207 0.304-0.386 0.276-0.633-0.1-1.406-1.049-1.177-2.244 0.032-0.167 0.126-0.171 0.203-0.025 0.407 0.771 0.725 1.374 1.365 1.442 0.035 0.164 0.025 0.386-5e-3 0.551" fill="#f5b2b2"/>
  <path transform="matrix(14.662 0 0 -14.662 139.78 118.05)" d="m0 0c0.284 0.095 0.555 0.257 0.77 0.479 0.271-0.35 0.066-0.803-0.339-1.084-0.155 0.128-0.321 0.36-0.433 0.574" fill="#bbe2e8"/>
  <path transform="matrix(14.662 0 0 -14.662 146.77 119.83)" d="m0 0c0.112-0.019 0.284-0.021 0.424 0.033" fill="#bbe2e8"/>
  <path transform="matrix(14.662 0 0 -14.662 131.96 119.64)" d="m0 0c-0.069-0.119-0.03-0.271 0.082-0.306 0.153-0.047 0.296 0.163 0.223 0.319-0.107-0.03-0.211-0.032-0.305-0.013" fill="#fff"/>
  <path transform="matrix(14.662 0 0 -14.662 21.922 32.262)" d="m0 0c0.288 0.374 0.71 0.469 1.035 0.336 0.286-0.117 0.498-0.41 0.481-0.843 0.432 0.139 0.813 0.015 1.011-0.235 0.181-0.227 0.21-0.559-0.012-0.895 0.808 0.295 1.63 0.56 2.364 0.743-0.551 3.022-4.329 4-6.825 2.508 0.134-0.527 0.298-1.126 0.472-1.724 0.098 0.382 0.343 0.594 0.614 0.636 0.313 0.048 0.661-0.129 0.86-0.526" fill="#bbe2e8"/>
  <path transform="matrix(14.662 0 0 -14.662 114.67 277.95)" d="m0 0c0.728 0.894 1.55 2.122 2.202 3.278-0.017-0.015-0.036-0.029-0.055-0.042-0.179-0.116-0.384-0.193-0.6-0.227-0.504-0.935-1.263-2.064-1.972-2.963-0.129-0.025-0.315-4e-3 -0.563 0.036-0.666 0.109-1.435-0.169-1.568-0.92 0.16 0.093 0.315 0.146 0.472 0.18-0.109-0.169-0.158-0.376-0.106-0.603 0.296 0.213 0.554 0.379 0.873 0.552-0.284-0.283-0.367-0.619-0.268-0.876 0.409 0.4 1.018 0.826 1.473 1.071 0.361 0.193 0.706 0.288 0.974 0.228-0.078 0.294-0.385 0.419-0.862 0.286" fill="#f5b2b2"/>
  <path transform="matrix(14.662 0 0 -14.662 186.83 260.41)" d="m0 0c-0.368 0.867-0.877 1.727-1.502 2.518-0.146-0.055-0.289-0.109-0.429-0.161 0.552-0.611 1.275-1.696 1.581-2.485-0.061-0.191-0.239-0.207-0.491-0.13-0.589 0.178-1.29 0.016-1.56-0.459 0.062-4e-3 0.121-0.013 0.196-0.027-0.044-0.07-0.075-0.145-0.088-0.227 0.083 0.034 0.196 0.062 0.312 0.087-0.042-0.092-0.057-0.195-0.045-0.304 0.318 0.168 0.775 0.32 1.15 0.343 0.347 0.021 0.508 0.072 0.838 0.276 0.284 0.175 0.666 0.224 1.06 0.154-0.029 0.316-0.446 0.536-1.022 0.415" fill="#f5b2b2"/>
  <path transform="matrix(14.662 0 0 -14.662 99.053 115.99)" d="m0 0c-0.068-0.06-0.15-0.077-0.177-0.046-0.028 0.032-6e-3 0.1 0.064 0.163 0.076 0.067 0.151 0.074 0.174 0.049 0.03-0.035 0.017-0.097-0.061-0.166" fill="#fadbda"/>
  <path transform="matrix(14.662 0 0 -14.662 289.27 230.04)" d="m0 0c-0.603 0.873-1.38 1.261-2.65 1.318-1.149 0.052-3.197-0.186-4.321-0.411 1.571-0.115 2.534-0.758 3.629-1.815 0.431-0.416 1.051-0.721 1.815-0.78 1.952-0.15 2.286 0.588 1.527 1.688" fill="#7a7fae"/>
  <path transform="matrix(14.662 0 0 -14.662 290.14 231.34)" d="m0 0c-0.382-0.778-2.534-1.011-3.719-0.522 0.105-0.095 0.211-0.194 0.318-0.297 0.431-0.416 1.051-0.722 1.815-0.78 1.899-0.146 2.267 0.549 1.586 1.599" fill="#b6b1c7"/>
  <path transform="matrix(14.662 0 0 -14.662 241.13 244.15)" d="m0 0c0.428-0.388 1.026-0.669 1.757-0.726 1.563-0.12 2.088 0.33 1.845 1.079-0.202-0.604-2.013-1.01-3.602-0.353" fill="#a2c4c9"/>
  <path transform="matrix(14.662 0 0 -14.662 32.742 196.4)" d="m0 0c-0.698-0.313-1.648-0.383-2.052-0.217-0.479 0.197-1.983 2.634-1.937 4.304 0.027 0.985 0.543 2.441 1.502 3.732-0.068-0.827 0.543-1.545 1.495-1.821 0.42-0.122 0.516-0.208 0.686-0.52 0.336-0.617 0.455-0.742 1.038-0.798 0.688-0.067 1.749-0.088 2.676-0.051-0.489-0.598-0.684-1.003-0.637-1.561z" fill="#7a7fae"/>
  <path transform="matrix(14.662 0 0 -14.662 2.6535 199.57)" d="m0 0c0.404-0.166 1.351-0.096 2.049 0.215-4e-3 0.429 0.033 0.87 0.122 1.317-1.92 0.019-3.001 2.3393-2.322 5.4923-0.20971 0.29612-0.31395 0.64268-0.28395 1.0117-0.958-1.291-1.475-2.748-1.502-3.732-0.046-1.67 1.458-4.108 1.937-4.304" fill="#b6b1c7"/>
  <path transform="matrix(14.662 0 0 -14.662 32.847 190.03)" d="m0 0c-0.645-0.104-1.396 0.011-1.844 0.291-1.304 0.813-1.864 3.595-1.301 6.076-0.541-0.991-0.831-1.983-0.851-2.714-0.046-1.67 1.458-4.107 1.937-4.304 0.404-0.165 1.35-0.096 2.048 0.215-1e-3 0.144 3e-3 0.29 0.011 0.436" fill="#a2c4c9"/>
  <path transform="matrix(14.662 0 0 -14.662 92.674 135.56)" d="m0 0c0.53-0.468 1.494-0.628 2.741-0.433 0.382 0.06 0.484-0.085 0.035-0.201-0.68-0.177-1.661-0.66-2.465-1.119-0.188-0.107-0.339-0.125-0.515-0.018-0.332 0.202-0.708 0.426-1.112 0.704-0.036 0.505 0.217 1.073 0.534 1.417 0.156 0.17 0.289 0.332 0.326 0.691 3e-3 -0.292 0.077-0.546 0.213-0.759 0.017-0.373 0.128-0.465 0.243-0.282" fill="#7a7fae"/>
  <path transform="matrix(14.662 0 0 -14.662 96.219 128.57)" d="M 0,0 C 0.341,0.393 0.643,0.545 0.798,0.602 1.005,0.677 1.086,0.809 1.119,0.977 0.616,0.951 0.302,0.534 0,0" fill="#d49a9c"/>
  <path transform="matrix(14.662 0 0 -14.662 140.9 167.1)" d="m0 0c0.04-1.052-0.038-2.148-0.546-3.273-0.079-0.175-0.03-0.285 0.101-0.337 0.463-0.183 0.942-0.011 1.016 0.292 0.507-1.075-1.19-1.748-2.139-0.82 1.074 1.63 1.419 2.537 1.568 4.138" fill="#7a7fae"/>
  <path transform="matrix(14.662 0 0 -14.662 150.51 221.11)" d="m0 0c1.249 0.227 1.787 0.473 4.082 0.601-1.331-0.226-2.196-0.423-2.645-0.589-0.448-0.166-1.206-0.458-1.658-0.588 0.157 0.157 0.218 0.318 0.221 0.576" fill="#7a7fae"/>
  <g fill="#d49a9c">
   <path transform="matrix(14.662 0 0 -14.662 133.04 241.49)" d="m0 0c0.107-0.06 0.115-0.251 0.014-0.414-0.474-0.76-0.805-1.272-1.423-2.061-0.07-0.09-0.017-0.156 0.061-0.131 0.713 0.865 1.74 2.349 2.282 3.375-0.197-0.149-0.439-0.227-0.646-0.255-0.101-0.187-0.164-0.3-0.288-0.514"/>
   <path transform="matrix(14.662 0 0 -14.662 77.886 289.52)" d="M 0,0 C 0.195,0.387 0.565,0.627 1.189,0.613 0.811,0.545 0.569,0.369 0.419,0.125 0.275,0.093 0.149,0.056 0,0"/>
   <path transform="matrix(14.662 0 0 -14.662 82.89 295.97)" d="M 0,0 C 0.099,0.389 0.548,0.895 1.307,0.844 1.106,0.734 0.987,0.663 0.833,0.506 0.514,0.338 0.256,0.184 0,0"/>
   <path transform="matrix(14.662 0 0 -14.662 91.71 300.81)" d="M 0,0 C -0.035,0.673 1.928,1.628 2.394,1.309 1.973,1.314 1.606,1.155 1.093,0.835 0.734,0.611 0.329,0.292 0,0"/>
   <path transform="matrix(14.662 0 0 -14.662 162.45 224.43)" d="m0 0c0.541-0.566 1.258-1.827 1.534-2.491 0.034-0.081 0.065-0.096 0.148-0.083 0.464 0.071 0.752-0.017 0.982-0.275-0.445 0.048-0.777 5e-3 -1.095-0.206-0.202-0.134-0.458-0.226-0.738-0.242-0.412-0.022-0.876-0.145-1.195-0.347-4e-3 0.101 7e-3 0.199 0.045 0.3-0.092-0.015-0.222-0.049-0.314-0.074 0.012 0.07 0.041 0.144 0.083 0.216-0.051 0.015-0.123 0.026-0.188 0.035 0.224 0.404 0.838 0.619 1.479 0.467 0.061-7e-3 0.137-0.021 0.186-0.036 0.162-0.052 0.357 1e-3 0.384 0.15-0.267 0.726-1.052 1.91-1.572 2.493 0.088 0.03 0.157 0.053 0.261 0.093"/>
  </g>
  <g fill="#0d131a">
   <path transform="matrix(14.662 0 0 -14.662 269.55 214.32)" d="m0 0c-0.782 0.258-1.335 0.362-2.719 0.341-1.233-0.017-2.103-0.038-3.584 0.055-0.993 0.063-2.127 1.924-2.319 3.666-0.083 0.762-0.055 1.292 0.288 1.844 0.667 1.075 0.623 2.294-0.117 3.047-0.136 0.137-0.088 0.184 0.049 0.048 0.772-0.755 0.87-2.022 0.164-3.157-0.333-0.536-0.355-1.026-0.272-1.774 0.194-1.767 1.304-3.494 2.219-3.551 1.478-0.093 2.337-0.08 3.568-0.062 1.65 0.024 2.338-0.153 3.12-0.566z"/>
   <path transform="matrix(14.662 0 0 -14.662 72.532 150.72)" d="m0 0c-0.035 0.45 0.182 0.995 0.594 1.461 0.197 0.223 0.302 0.495 0.28 0.798-0.164 2.268 1.428 3.291 2.882 3.039 0.214-0.037 0.203-0.105-0.011-0.07-1.404 0.227-2.924-0.794-2.766-2.963 0.022-0.313-0.091-0.63-0.31-0.878-0.428-0.485-0.607-1.046-0.557-1.462z"/>
   <path transform="matrix(14.662 0 0 -14.662 127.39 115.62)" d="m0 0c-0.205-0.471-0.122-0.755 0.079-0.842 0.202-0.088 0.475 0.026 0.684 0.506 0.185 0.425 0.129 0.793-0.071 0.88-0.191 0.083-0.49-0.08-0.692-0.544m0.043-0.92c-0.286 0.125-0.326 0.507-0.13 0.956 0.254 0.585 0.629 0.663 0.813 0.583 0.265-0.115 0.323-0.535 0.124-0.992-0.229-0.526-0.589-0.642-0.807-0.547"/>
   <path transform="matrix(14.662 0 0 -14.662 86.397 107.12)" d="m0 0c-0.012-0.129 0.038-0.234 0.114-0.258 0.094-0.03 0.305 0.045 0.46 0.548 0.149 0.483 0.076 0.726-0.038 0.762-0.112 0.037-0.215-0.024-0.297-0.179l0.063 0.189c0.075 0.075 0.165 0.099 0.26 0.069 0.17-0.055 0.258-0.355 0.099-0.872-0.157-0.508-0.411-0.646-0.577-0.594-0.046 0.014-0.092 0.063-0.116 0.115z"/>
   <path transform="matrix(14.662 0 0 -14.662 140.12 118.4)" d="m0 0c-0.358-0.252-0.809-0.152-0.939 0.146l0.053 0.105c0.072-0.273 0.515-0.451 0.909-0.132z"/>
   <path transform="matrix(14.662 0 0 -14.662 95.197 103.89)" d="m0 0c-0.18-0.069-0.423-0.016-0.528 0.214l0.039 0.123c0.069-0.228 0.294-0.346 0.521-0.234z"/>
   <path transform="matrix(14.662 0 0 -14.662 97.043 127.07)" d="m0 0c0.204 0.258 0.459 0.448 0.729 0.546 0.148 0.054 0.223 0.129 0.274 0.315 0.045 0.163 0.031 0.395 0 0.566-0.033 0.18-0.149 0.264-0.325 0.236-0.59-0.093-1.36-1.017-1.142-2.186 0.024-0.128 0.07-0.117 0.127-8e-3 0.455 0.862 0.765 1.407 1.408 1.449l-0.022-0.099c-0.572-0.031-0.879-0.576-1.313-1.398-0.095-0.181-0.24-0.181-0.283 0.04-0.235 1.203 0.538 2.197 1.21 2.303 0.208 0.033 0.399-0.065 0.445-0.319 0.035-0.19 0.042-0.448-4e-3 -0.616-0.054-0.194-0.141-0.302-0.348-0.377-0.289-0.105-0.534-0.284-0.873-0.693z"/>
   <path transform="matrix(14.662 0 0 -14.662 140.42 118.47)" d="m0 0c0.121-0.214 0.258-0.392 0.393-0.511 0.406 0.302 0.492 0.693 0.327 0.939-0.202-0.201-0.438-0.33-0.72-0.428m-0.013 0.084c0.269 0.1 0.498 0.243 0.69 0.445 0.04 0.042 0.063 0.042 0.1-0.01 0.224-0.311 0.15-0.78-0.345-1.126-0.042-0.03-0.058-0.027-0.095 6e-3 -0.135 0.123-0.295 0.334-0.398 0.54z"/>
   <path transform="matrix(14.662 0 0 -14.662 152 120.27)" d="m0 0c-0.106-0.031-0.24-0.028-0.362 0-0.14 0.033-0.132 0.077 0.01 0.06 0.146-0.017 0.253-0.014 0.385 0.035z"/>
   <path transform="matrix(14.662 0 0 -14.662 114.19 73.826)" d="m0 0c-0.982 0.097-2.011 0.077-2.964-0.026-0.051-5e-3 -0.061 1e-3 -0.08 0.041-0.156 0.315-0.032 0.891 0.213 1.16 0.026 0.028 0.034 0.031 0.075 0.033 0.998 0.052 2.552-0.325 3.391-0.836 0.178-0.109 0.147-0.166-0.033-0.062-0.842 0.488-2.363 0.851-3.35 0.794-0.208-0.219-0.334-0.759-0.201-1.018 1.032 0.112 2.19 0.088 3.244-0.033z"/>
   <path transform="matrix(14.662 0 0 -14.662 86.53 47.158)" d="m0 0c0.658-0.278 1.539-0.725 2.281-1.342l-0.258 0.099c-0.58 0.441-1.398 0.87-2.183 1.196z"/>
   <path transform="matrix(14.662 0 0 -14.662 128.19 67.258)" d="m0 0c-0.637 0.831-1.551 1.57-2.511 2.025l-0.029 0.121c0.955-0.442 1.896-1.184 2.523-1.993z"/>
   <path transform="matrix(14.662 0 0 -14.662 148.58 78.19)" d="m0 0c0.882 0.248 1.973 0.471 2.962 0.604-0.296 0.879-0.981 1.644-1.847 2.073-0.884 0.438-1.899 0.496-2.842 0.173 0.14-0.659 0.272-1.372 0.365-2.046 0.034-0.247-0.024-0.256-0.065-0.01-0.11 0.67-0.247 1.397-0.404 2.057-0.014 0.056-2e-3 0.07 0.052 0.088 1.006 0.34 2.044 0.289 2.949-0.16 0.906-0.449 1.594-1.243 1.911-2.19 0.018-0.054 4e-3 -0.072-0.052-0.079-1-0.128-2.016-0.321-2.829-0.542z"/>
   <path transform="matrix(14.662 0 0 -14.662 153.13 82.972)" d="m0 0c0.866-0.132 2.584-0.862 3.872-1.495 0.04 0.341-5e-3 0.735-0.12 1.037-1.047 0.333-2.419 0.565-3.998 0.731-0.226 0.024-0.22 0.088 6e-3 0.068 1.569-0.135 2.958-0.38 4.02-0.697 0.041-0.012 0.051-0.02 0.066-0.056 0.139-0.359 0.177-0.77 0.124-1.174-8e-3 -0.06-0.031-0.068-0.086-0.04-1.353 0.686-3.012 1.374-3.765 1.525z"/>
   <path transform="matrix(14.662 0 0 -14.662 149.55 86.681)" d="m0 0c0.796-0.718 2.051-2.172 2.907-3.173 0.282 0.141 0.508 0.354 0.652 0.615-0.898 0.968-2.108 1.959-3.322 2.761-0.15 0.098-0.113 0.15 0.039 0.054 1.227-0.775 2.443-1.778 3.372-2.757 0.027-0.028 0.037-0.05 0.016-0.088-0.17-0.321-0.409-0.539-0.729-0.701-0.035-0.018-0.062-0.017-0.088 0.014-0.894 1.055-2.071 2.424-2.733 3.054z"/>
   <path transform="matrix(14.662 0 0 -14.662 158.9 76.146)" d="m0 0c-0.176 0.833-1.328 1.4-2.173 1.114l-0.012 0.081c0.911 0.299 2.078-0.271 2.266-1.176z"/>
   <path transform="matrix(14.662 0 0 -14.662 125.43 51.063)" d="m0 0c0.065 0.192 0.242 0.351 0.454 0.402 0.227 0.054 0.542-0.013 0.71-0.321 0.228 0.141 0.543 0.165 0.77 0.078 0.275-0.106 0.456-0.352 0.473-0.656 0.318 0.035 0.596-0.076 0.734-0.313 0.127-0.219 0.101-0.509-0.08-0.73l-0.126-0.025c0.199 0.226 0.243 0.487 0.118 0.703-0.122 0.21-0.369 0.314-0.664 0.279-0.047-5e-3 -0.056 3e-3 -0.059 0.048-0.022 0.282-0.176 0.501-0.431 0.599-0.22 0.084-0.476 0.067-0.717-0.065-0.043-0.023-0.054-0.019-0.076 0.021-0.132 0.247-0.386 0.341-0.634 0.282-0.227-0.055-0.381-0.226-0.436-0.459z"/>
   <path transform="matrix(14.662 0 0 -14.662 170.9 50.113)" d="m0 0c-0.134-0.098-0.17-0.066-0.037 0.049 0.12 0.103 0.25 0.205 0.382 0.299l0.061-0.053c-0.151-0.102-0.266-0.192-0.406-0.295"/>
   <path transform="matrix(14.662 0 0 -14.662 150.36 33.303)" d="m0 0c-0.092-0.18-0.145-0.291-0.216-0.457-0.059-0.143-0.11-0.127-0.056 0.023 0.057 0.162 0.101 0.27 0.188 0.446z"/>
   <path transform="matrix(14.662 0 0 -14.662 32.712 197.15)" d="m0 0c-0.704-0.317-1.628-0.394-2.077-0.246-0.488 0.161-2.028 2.711-1.982 4.387 0.035 1.279 0.908 3.343 2.472 4.819-0.366 1.081-0.836 2.667-1.143 3.87-0.013 0.051-3e-3 0.063 0.046 0.091 1.364 0.796 3.193 0.907 4.635 0.253 1.191-0.54 1.999-1.535 2.242-2.796 0.01-0.055-5e-3 -0.069-0.051-0.081-1.522-0.384-3.386-1.102-4.628-1.655 0.029-1.241 0.285-2.231 0.797-3.168 0.146-0.267 0.248-0.346 0.52-0.37 0.674-0.06 1.657-0.072 2.768-0.058l-0.037-0.109c-1.099-0.025-2.07-1e-3 -2.742 0.059-0.309 0.027-0.438 0.112-0.611 0.427-0.516 0.943-0.766 1.988-0.796 3.235-1e-3 0.043 9e-3 0.055 0.052 0.074 1.246 0.554 3.09 1.277 4.611 1.66-0.225 1.184-0.993 2.134-2.175 2.67-1.455 0.66-3.214 0.548-4.526-0.227 0.305-1.198 0.77-2.771 1.136-3.854 0.016-0.047 0.011-0.056-0.02-0.085-1.534-1.439-2.397-3.507-2.431-4.759-0.044-1.602 1.447-4.063 1.91-4.256 0.382-0.16 1.335-0.095 2.028 0.22z"/>
   <path transform="matrix(14.662 0 0 -14.662 -5.3211 178.2)" d="m0 0c-0.089-0.21-0.143-0.388-0.197-0.601l-0.07 0.104c0.042 0.152 0.095 0.3 0.159 0.445z"/>
   <path transform="matrix(14.662 0 0 -14.662 9.8742 200.71)" d="m0 0c0.499 0.357 0.925 0.859 1.209 1.492 0.099 0.221 0.155 0.195 0.062-0.028-0.262-0.625-0.647-1.116-1.126-1.479z"/>
   <path transform="matrix(14.662 0 0 -14.662 27.572 -1.3156)" d="m0 0c-0.11-0.472-0.16-0.761-0.222-1.173-0.037-0.248-0.098-0.24-0.068 0.01 0.05 0.413 0.099 0.711 0.191 1.164z"/>
   <path transform="matrix(14.662 0 0 -14.662 72.84 11.925)" d="m0 0c-0.42-0.263-0.815-0.614-1.138-0.943-0.174-0.177-0.224-0.136-0.047 0.05 0.314 0.33 0.687 0.678 1.104 0.954z"/>
   <path transform="matrix(14.662 0 0 -14.662 57.842 56.597)" d="m0 0c0.21 0.3 0.233 0.637 0.034 0.888-0.202 0.254-0.562 0.341-0.938 0.23-0.059-0.017-0.07-2e-3 -0.07 0.052 2e-3 0.4-0.19 0.67-0.461 0.781-0.276 0.113-0.667 0.06-0.968-0.298-0.044-0.052-0.062-0.048-0.089 1e-3 -0.188 0.344-0.495 0.531-0.811 0.482-0.29-0.045-0.515-0.291-0.594-0.66l-0.051 0.142c0.101 0.345 0.338 0.572 0.633 0.617 0.338 0.052 0.681-0.142 0.872-0.503 0.274 0.339 0.697 0.454 1.051 0.309 0.318-0.13 0.506-0.432 0.499-0.831 0.359 0.102 0.764 0.046 1.01-0.263 0.195-0.247 0.207-0.616 7e-3 -0.906z"/>
   <path transform="matrix(14.662 0 0 -14.662 45.444 61.292)" d="m0 0c-0.146 0.758-1.964 1.543-2.754 0.778l-0.027 0.09c0.815 0.766 2.669 0.012 2.86-0.839z"/>
   <path transform="matrix(14.662 0 0 -14.662 118.04 227.3)" d="m0 0c0.549-0.482 1.298-0.553 1.885-0.172 0.402 0.26 0.404 0.927-0.154 1.558-0.132 0.149-0.086 0.192 0.05 0.047 0.607-0.645 0.627-1.399 0.163-1.699-0.58-0.377-1.396-0.355-2.009 0.181z"/>
   <path transform="matrix(14.662 0 0 -14.662 148.3 228.3)" d="m0 0c0.796 0.188 1.552 0.649 2.749 0.866 1.608 0.292 3.193 0.439 4.216 0.392 1.286-0.058 2.075-0.436 2.697-1.336 0.835-1.209 0.33-1.93-1.58-1.783-0.762 0.059-1.385 0.34-1.858 0.797-1.272 1.227-2.139 1.674-3.727 1.816l0.341 0.07c1.404-0.154 2.205-0.588 3.471-1.81 0.423-0.408 1.071-0.712 1.783-0.767 1.872-0.144 2.214 0.537 1.474 1.609-0.59 0.853-1.332 1.234-2.603 1.292-1.019 0.046-2.612-0.108-4.199-0.39-1.207-0.215-2.003-0.712-2.866-0.89z"/>
   <path transform="matrix(14.662 0 0 -14.662 264.43 254.63)" d="m0 0c-0.24 0.24-0.482 0.451-0.792 0.704-0.156 0.128-0.119 0.172 0.038 0.047 0.326-0.258 0.597-0.473 0.896-0.757z"/>
   <path transform="matrix(14.662 0 0 -14.662 287.29 253.21)" d="m0 0c-0.241 0.26-0.504 0.5-0.816 0.741-0.135 0.103-0.1 0.149 0.036 0.048 0.312-0.231 0.619-0.482 0.873-0.745z"/>
   <path transform="matrix(14.662 0 0 -14.662 83.711 288.31)" d="m0 0c-0.148-0.032-0.267-0.081-0.405-0.157-0.077-0.042-0.088-0.012-0.078 0.048 0.13 0.737 0.873 1.06 1.615 0.939 0.257-0.042 0.424-0.058 0.531-0.04 0.728 0.925 1.458 2.024 1.943 2.918l0.108 0.015c-0.482-0.898-1.233-2.038-1.98-2.983-0.018-0.024-0.034-0.034-0.06-0.037-0.133-0.018-0.321 5e-3 -0.558 0.043-0.733 0.12-1.367-0.252-1.503-0.8 0.135 0.073 0.271 0.115 0.445 0.15z"/>
   <path transform="matrix(14.662 0 0 -14.662 94.286 289.61)" d="m0 0c-0.212-0.118-0.432-0.258-0.76-0.488-0.057-0.04-0.075-0.025-0.087 0.032-0.05 0.236-1e-3 0.482 0.17 0.696 0.193 0.242 0.51 0.395 0.829 0.389 0.149-2e-3 0.149-0.055 0-0.061-0.308-0.012-0.585-0.167-0.756-0.382-0.15-0.187-0.194-0.416-0.167-0.578 0.303 0.219 0.545 0.363 0.9 0.553z"/>
   <path transform="matrix(14.662 0 0 -14.662 115.25 277.17)" d="m0 0c0.484 0.128 0.774-0.033 0.86-0.315 0.018-0.059 5e-3 -0.073-0.062-0.061-0.244 0.041-0.574-0.039-0.933-0.233-0.409-0.22-1.017-0.633-1.449-1.048-0.043-0.042-0.071-0.035-0.087 0.014-0.129 0.394 0.084 0.899 0.734 1.21 0.143 0.068 0.168 0.016 0.027-0.055-0.614-0.309-0.776-0.803-0.694-1.07 0.435 0.416 1.019 0.81 1.429 1.031 0.365 0.196 0.685 0.275 0.939 0.236-0.082 0.198-0.351 0.331-0.838 0.185z"/>
   <path transform="matrix(14.662 0 0 -14.662 148.06 229.27)" d="m0 0c-0.732-1.29-1.502-2.443-2.261-3.356-0.115-0.138-0.17-0.101-0.054 0.045 0.729 0.918 1.506 2.064 2.163 3.221z"/>
   <path transform="matrix(14.662 0 0 -14.662 157.49 274.11)" d="m0 0c-0.097-0.022-0.194-0.048-0.267-0.074-0.067-0.024-0.081-4e-3 -0.069 0.056 0.123 0.603 1.046 0.864 1.652 0.704 0.127-0.034 0.246 0.016 0.286 0.122-0.316 0.808-1.048 1.885-1.574 2.466l0.085 0.034c0.527-0.586 1.249-1.65 1.574-2.471 0.012-0.029 0.013-0.036 1e-3 -0.065-0.06-0.141-0.226-0.21-0.393-0.166-0.631 0.167-1.389-0.126-1.529-0.577 0.081 0.028 0.159 0.045 0.277 0.069z"/>
   <path transform="matrix(14.662 0 0 -14.662 154.21 271.85)" d="m0 0c-0.061 0.01-0.114 0.015-0.163 0.019-0.06 4e-3 -0.068 0.029-0.044 0.072 0.242 0.436 0.956 0.679 1.73 0.423l-0.414 7e-3c-0.45 0.064-0.99-0.087-1.217-0.424 0.049-5e-3 0.087-0.011 0.151-0.023z"/>
   <path transform="matrix(14.662 0 0 -14.662 165.44 223.24)" d="m0 0c0.606-0.769 1.113-1.618 1.483-2.486 0.603 0.109 0.996-0.12 1.038-0.45 7e-3 -0.051-0.011-0.062-0.059-0.054-0.383 0.062-0.746 0.012-1.02-0.157-0.34-0.21-0.476-0.259-0.857-0.282-0.328-0.019-0.731-0.128-1.115-0.322-0.068-0.034-0.078-0.022-0.082 0.04-0.035 0.476 0.389 0.8 1.245 0.74 0.162-0.011 0.157-0.069-3e-3 -0.061-0.831 0.043-1.166-0.272-1.159-0.623 0.352 0.179 0.775 0.3 1.109 0.32 0.346 0.021 0.494 0.074 0.818 0.274 0.254 0.156 0.632 0.223 1.034 0.16-0.048 0.228-0.411 0.438-0.975 0.32-0.015-4e-3 -0.029 4e-3 -0.034 0.017-0.371 0.873-0.895 1.757-1.508 2.532z"/>
  </g>
  <path transform="matrix(14.662 0 0 -14.662 133.67 144.44)" d="m0 0c-0.68-0.19-1.707-0.713-2.501-1.158-0.167-0.094-0.291-0.121-0.455-0.027-0.689 0.395-1.148 0.691-1.627 1.06-0.394 0.304-0.654 0.462-1.019 0.637-1.206 0.577-2.223 1.212-2.958 1.928-0.412-0.062-1.026-0.369-1.33-0.746-0.153 0.075-0.305 0.15-0.456 0.224-0.715-0.254-1.404-1.304-1.431-2.026 0.747-0.031 1.825-0.144 2.774-0.278-0.899-0.107-1.819-0.267-2.754-0.525-0.06-0.702 0.094-1.752 0.408-2.38 1.319 0.739 3.036 1.598 5.046 2.477-1.569-3.377 0.397-6.981 1.473-7.188 1.918-0.368 5.245 3.061 5.291 6.42 0.013 1.02-0.143 1.671-0.461 1.582" fill="#8c93c8"/>
  <path transform="matrix(14.662 0 0 -14.662 35.615 128.62)" d="m0 0c-0.736 0.421-1.37 0.872-1.872 1.361-0.412-0.062-1.026-0.369-1.33-0.746-0.153 0.075-0.305 0.15-0.456 0.224-0.715-0.254-1.404-1.304-1.431-2.026 0.747-0.031 1.825-0.144 2.774-0.278-0.899-0.107-1.819-0.267-2.754-0.524-0.06-0.703 0.094-1.753 0.408-2.381 0.952 0.533 2.113 1.13 3.44 1.751-0.429 0.673-0.049 2.128 1.221 2.619" fill="#d2cde6"/>
  <path transform="matrix(14.662 0 0 -14.662 78.474 223.83)" d="m0 0c-2.202 0.223-2.897 2.339-2.495 4.699-1.609-3.359 0.313-7.071 1.43-7.286 1.918-0.368 5.245 3.061 5.29 6.42 1e-3 5e-3 1e-3 9e-3 1e-3 0.014-0.88-3.038-2.533-4.018-4.226-3.847" fill="#d2cde6"/>
  <g fill="#bbe2e8">
   <path transform="matrix(14.662 0 0 -14.662 72.479 240.18)" d="m0 0c-1.224 0.185-2.221 1.068-2.662 2.201 0.246-1.99 1.311-3.539 2.006-3.673 1.238-0.238 3.063 1.107 4.213 2.994-1.11-1.266-2.412-1.695-3.557-1.522"/>
   <path transform="matrix(14.662 0 0 -14.662 -8.3093 136.7)" d="m0 0c0.083 0.291 0.497 0.58 1.149 0.524l0.181-0.088c-0.158 0.234-0.101 0.442 0.069 0.573 0.156 0.12 0.407 0.174 0.674 0.126-0.353 0.248-0.671 0.507-0.949 0.777-0.412-0.062-1.026-0.369-1.33-0.746-0.153 0.075-0.305 0.15-0.456 0.225-0.716-0.255-1.404-1.304-1.431-2.027 0.699-0.029 1.688-0.129 2.591-0.252-0.429 0.231-0.578 0.609-0.498 0.888"/>
   <path transform="matrix(14.662 0 0 -14.662 2.6813 149.98)" d="m0 0c-0.922-0.108-1.864-0.269-2.823-0.533-0.06-0.702 0.094-1.752 0.408-2.38 0.756 0.423 1.643 0.886 2.639 1.369-1.509-0.056-1.442 1.21-0.224 1.544"/>
  </g>
  <g fill="#0d131a">
   <path transform="matrix(14.662 0 0 -14.662 -12.112 119.24)" d="m0 0c0.302 0.385 0.907 0.692 1.352 0.77 0.037 6e-3 0.047 5e-3 0.078-0.025 0.693-0.667 1.654-1.289 2.931-1.9 0.382-0.183 0.644-0.344 1.028-0.64 0.466-0.359 0.922-0.656 1.624-1.059 0.132-0.075 0.244-0.064 0.406 0.027 0.774 0.434 1.746 0.946 2.468 1.127 0.176 0.044 0.192-0.015 0.018-0.065-0.701-0.202-1.66-0.727-2.437-1.162-0.203-0.113-0.351-0.12-0.514-0.027-0.705 0.404-1.167 0.707-1.636 1.068-0.381 0.293-0.624 0.447-1.001 0.628-1.291 0.618-2.253 1.244-2.951 1.92-0.403-0.065-0.966-0.357-1.261-0.712z"/>
   <path transform="matrix(14.662 0 0 -14.662 36.299 128.99)" d="m0 0c-1.246-0.47-1.657-1.909-1.232-2.576l-0.078-0.032c-0.433 0.686-0.058 2.153 1.217 2.662z"/>
   <path transform="matrix(14.662 0 0 -14.662 -.56784 150.41)" d="m0 0c-0.8 0.108-1.791 0.208-2.611 0.243-0.058 2e-3 -0.067 0.021-0.066 0.064 0.022 0.698 0.699 1.78 1.445 2.061 0.038 0.014 0.044 0.015 0.082-4e-3 0.916-0.455 1.887-0.936 2.879-1.35l-0.072-0.073c-0.996 0.416-1.928 0.874-2.847 1.328-0.693-0.257-1.333-1.288-1.378-1.918 0.72-0.032 1.763-0.138 2.849-0.305z"/>
   <path transform="matrix(14.662 0 0 -14.662 40.995 157.19)" d="m0 0c-1.839-0.806-3.445-1.614-4.988-2.461-0.059-0.033-0.075-0.023-0.098 0.024-0.32 0.669-0.463 1.698-0.407 2.382 3e-3 0.047 0.014 0.056 0.063 0.07 0.993 0.269 1.961 0.437 3.134 0.547 0.248 0.023 0.255-0.04 7e-3 -0.069-1.173-0.134-2.144-0.314-3.098-0.573-0.047-0.605 0.096-1.659 0.387-2.263 1.455 0.817 3.166 1.638 5.03 2.453z"/>
   <path transform="matrix(14.662 0 0 -14.662 62.402 262.97)" d="m0 0c-1.207 0.232-3.06 4.008-1.456 7.323 0.097 0.201 0.155 0.171 0.061-0.032-1.537-3.317 0.371-6.946 1.44-7.151 1.829-0.352 5.133 2.994 5.241 6.36 7e-3 0.225 0.072 0.23 0.07 5e-3 -0.037-3.432-3.399-6.881-5.356-6.505"/>
   <path transform="matrix(14.662 0 0 -14.662 45.333 244.56)" d="m0 0c0.097 0.791 0.298 1.514 0.549 1.996 0.09 0.175 0.15 0.142 0.06-0.032-0.25-0.487-0.418-1.21-0.528-2.094z"/>
   <path transform="matrix(14.662 0 0 -14.662 74.973 261.12)" d="m0 0c0.263 0.527 0.44 1.676 0.488 2.35 0.019 0.276 0.078 0.274 0.067-2e-3 -0.027-0.638-0.164-1.729-0.43-2.308z"/>
   <path transform="matrix(14.662 0 0 -14.662 116.37 229.31)" d="m0 0c0.137 0.582 0.161 0.937 0.152 1.269-6e-3 0.241 0.056 0.244 0.068 4e-3 0.017-0.336 0.01-0.669-0.094-1.142z"/>
   <path transform="matrix(14.662 0 0 -14.662 10.282 129.98)" d="m0 0c-0.13 0.198-0.094 0.444 0.099 0.592 0.157 0.12 0.416 0.172 0.638 0.136l0.135-0.106c-0.27 0.067-0.539 0.023-0.712-0.11-0.175-0.134-0.196-0.342-0.034-0.555z"/>
   <path transform="matrix(14.662 0 0 -14.662 -2.3508 149.67)" d="m0 0c-0.394 0.217-0.538 0.617-0.458 0.896 0.078 0.274 0.457 0.588 1.103 0.559l0.155-0.096c-0.692 0.08-1.086-0.229-1.16-0.488-0.079-0.277 0.113-0.665 0.526-0.868z"/>
   <path transform="matrix(14.662 0 0 -14.662 4.8217 173.21)" d="m0 0c-0.525-0.025-1.044 0.159-1.107 0.62-0.046 0.333 0.206 0.729 0.758 0.937l0.34 0.025c-0.695-0.15-1.045-0.596-0.996-0.955 0.055-0.4 0.584-0.584 1.148-0.54z"/>
  </g>
 </g>
</svg>
