<?xml version="1.0" encoding="UTF-8"?>
<!-- Created with Inkscape (http://www.inkscape.org/) -->
<svg version="1.1" viewBox="0 0 394.29 349.41" xmlns="http://www.w3.org/2000/svg">
 <path d="m49.36 197.18c-0.38004 2.2499-3.7016 3.542-5.6551 3.162-3.618-0.60806-4.4541-2.9187-4.2109-4.3705 0.15203-0.60807 0.45605-0.88171 1.1781-1.4214 0.53206-0.45605 0.60806-1.6874 1.3682-1.9534 0.93491-0.38004 2.4171-0.45605 3.542-0.30404 3.352 0.60807 4.1577 2.8427 3.7776 4.857" fill="#61955C"/>
 <path d="m62.944 192.45c0.38004-2.3335 4.2869-5.0926 6.1947-4.5605 1.847 0.53207 2.4399 3.4052 2.3031 4.2641-0.15201 0.9121-1.1781 3.8916-0.53206 4.857 0.30404 0.45605 0.82849 2.6299-1.6874 3.808-1.847 0.8589-4.5833 0.22801-4.7202-1.1249-0.07602-1.2846 0.53206-2.3335 0.15201-2.8959-1.391-2.0142-2.0674-2.227-1.7406-4.3477" fill="#61955C"/>
 <path d="m62.679 229.99c-0.60808-3.1088-0.76009-3.5648-3.1924-4.3173-1.4214-0.45605-3.3824 0.76008-4.3705 0.9349-1.0185 0.22802-2.1966-2.0674-1.5278-3.5116 0.53206-1.0717 3.7776-1.5278 4.5605-3.8612 0.53207-1.5278-0.8893-2.4627-0.8589-3.542 0.02658-1.0489 3.0023-2.9795 2.8655-7.4565-0.07602-2.6527-4.4541-3.5116-7.1828-3.1924-3.8384 0.45605-5.6855 2.6299-5.389 4.5073 0.38005 2.2803 3.7244 3.8917 3.9677 5.2826 0.77529 4.6137-7.9368 8.0174-9.2776 7.3196-1.581-0.82848 1.771-3.086 1.2313-5.1762-0.53206-2.1966-3.2684-2.5767-5.6855-2.1206-3.1392 0.60806-5.0394 2.5767-5.0166 5.0394 0.02658 1.1249 1.3378 1.7406 1.6646 2.8959 0.30404 1.2846-0.30404 3.2456-4.4237 2.1206-10.028-2.6831-18.77-6.0047-24.99 1.7178-4.9102 6.0883-3.5952 17.724 1.961 19.655 8.1246 2.8427 8.9561-10.538 14.131-7.5857-0.22802 2.5767-1.6342 4.4541-5.9819 7.1068-2.3031 1.391-4.5301 8.6612-0.45605 12.549 3.9981 3.7776 10.726 3.8916 14.185-0.60809 2.4095-3.162 4.8798-6.1947 6.704-7.6685 1.8774-1.505 4.4009-0.85889 3.5952 2.9492-0.93491 4.5073-3.2684 5.0166-4.6137 7.5097-1.6646 3.1392-0.15201 11.905 8.8216 13.702 2.9795 0.60806 7.6959-2.4095 8.8756-5.123 0.76009-1.6646-0.05392-7.6959 0.38004-9.1705 0.38004-1.315 1.5582-1.9534 2.1966-4.5301 0.38004-1.391-0.45605-4.4009-1.4746-6.6508-1.1553-2.5463-0.07602-10.404 1.4214-12.147 2.6299-3.0023 4.1045-0.45605 6.704-1.4214 0.9653-0.38004 1.6114-1.5582 1.8242-2.7895 0.15202-0.82851-0.60806-2.0902-0.68408-2.4095" fill="#71AB6A"/>
 <path d="m62.679 229.99c-0.60808-3.1088-0.76009-3.5648-3.1924-4.3173-1.4214-0.45605-3.3824 0.76008-4.3705 0.9349-1.0185 0.22802-2.1966-2.0674-1.5278-3.5116 0.53206-1.0717 3.7776-1.5278 4.5605-3.8612 0.53207-1.5278-0.8893-2.4627-0.8589-3.542 0.02658-1.0489 3.0023-2.9795 2.8655-7.4565-0.07602-2.6527-4.4541-3.5116-7.1828-3.1924-3.8384 0.45605-5.6855 2.6299-5.389 4.5073 0.38005 2.2803 3.7244 3.8917 3.9677 5.2826 0.77529 4.6137-7.9368 8.0174-9.2776 7.3196-1.581-0.82848 1.771-3.086 1.2313-5.1762-0.53206-2.1966-3.2684-2.5767-5.6855-2.1206-3.1392 0.60806-5.0394 2.5767-5.0166 5.0394 0.02658 1.1249 1.3378 1.7406 1.6646 2.8959 0.30404 1.2618-0.30404 3.2152-4.3401 2.1435 2.5463 1.6342 4.667 2.7895 5.9515 4.5073 6.514 8.7684 3.8917 21.237 18.073 21.13-0.22802-0.60806-0.45605-1.2618-0.76009-1.8242-1.1553-2.5463-0.07602-10.404 1.4214-12.147 2.6299-3.0024 4.1045-0.45607 6.704-1.4214 0.96532-0.38004 1.6114-1.5582 1.8242-2.7895 0.15203-0.8285-0.60806-2.0902-0.68407-2.4171" fill="#61955C"/>
 <path d="m364.67 180.39c0.30402-0.60806 3.5116-1.581 4.6137-0.60806 1.1249 0.99571 0.60807 4.4541 0.0274 4.9862-0.8285 0.76009-5.7691-2.037-4.6366-4.4009" fill="#71AB6A"/>
 <path d="m377.84 170c0-1.2086 2.2803-3.2988 5.199-4.0209 3.7016-0.9349 7.0536-0.076 7.2132 0.53208 0.15201 0.60806-2.227 1.9534-2.1967 2.4931 0.054 0.76009 4.857 3.1392 4.5833 4.6137-0.53206 2.9263-12.576 2.5995-12.763 1.5278-0.15201-0.88171 0.68408-1.847 0.60808-2.7591 0-0.93492-2.6831-1.3682-2.6831-2.3867" fill="#71AB6A"/>
 <path d="m170.82 55.432c-4.5605-3.2988-8.5799-0.76009-8.9554 3.2684-0.45605 4.4769-4.5301 6.1643-8.0714 6.3847-37.379 2.037-59.179 21.666-70.226 97.979-5.199 35.904 0.30404 90.767 17.483 107.85 9.8941 9.8409 27.726 14.775 43.787 19.172 16.115 4.4237 45.611 9.0633 60.251 1.9838 19.387-9.3582 50.116-46.656 66.661-94.306 14.131-40.65 16.544-90.337-24.374-110.55-4.4769-2.1967-7.9102-4.6137-6.3316-10.538 1.1782-4.4237 0.0266-7.0004-5.1458-7.4261-17.939-1.1249-49.392-6.1415-65.079-13.809" fill="#DFD8CB"/>
 <g>
  <path d="m238.63 104.38c-7.2969 1.7178-26.492 2.3031-35.126 2.0142-17.456-0.60806-17.563 12.496-3.3824 18.395 10.243 4.2337 28.879 5.2522 44.94-0.93491 18.019-6.97 8.2591-22.927-6.4379-19.467" fill="#e9e4d9"/>
  <path d="m206.28 279.66c-22.899 9.0101-89.264-3.162-116.86-30.541 2.9795 9.3848 6.8408 17.054 11.61 21.8 9.8948 9.8408 27.753 14.775 43.788 19.172 16.115 4.4237 45.638 9.0633 60.278 1.9838 16.035-7.7491 39.846-34.643 56.953-70.682-20.942 31.962-44.833 53.95-55.774 58.268" fill="#c1bbb1"/>
  <path d="m186.67 289.55c-6.894-0.38006-10.216 1.3149-14.801 0.68408-8.5806-1.2314-18.662-3.3216-27.35-5.4422-2.7895-0.68409-5.199-0.60809-7.9642-1.4746-2.4399-0.80569-5.2826-2.3335-7.6153-3.4584-7.6685-3.6712-16.061-5.199-23.301-10.377-3.7244-2.6527-7.3501-4.1577-10.538-6.7268 1.7938 3.2456 3.7776 6.0047 5.9515 8.1786 9.8675 9.8401 27.726 14.775 43.761 19.172 16.142 4.4237 45.638 9.0633 60.278 1.9838 1.4746-0.68408 3.0024-1.581 4.5833-2.5995-1.7938 0.15203-3.808 0.45607-6.5672 0.91212-5.7691 1.0185-9.1705-0.45605-16.438-0.8285" fill="#aca386"/>
 </g>
 <path d="m247.36 87.212c-4.4769-2.1966-7.9095-4.6137-6.3239-10.538 1.2085-4.4237 0.0266-7.0004-5.123-7.4261-17.965-1.1249-49.419-6.1415-65.105-13.809-4.5605-3.2988-8.5799-0.76009-8.9554 3.2684-0.38004 4.4769-4.5073 6.1643-8.0714 6.3543-37.352 2.0674-59.179 21.693-70.226 98.007-1.2845 8.8482-1.9078 18.877-1.8774 29.227 5.6323-46.79 31.909-91.463 64.193-89.211 24.964 1.7406 25.5 7.857 33.84 9.7877 14.775 3.4356 26.171-17.537 44.645-6.0351 15.847 9.8675 7.2968 28.396 8.1246 33.223 2.4095 14.399 17.108 18.287 17.671 40.301 0.22803 9.9754-3.9144 24.052-11.556 40.945-13.702 30.193-14.695 44.566-9.948 51.269 15.686-17.402 32.391-43.922 43.117-74.812 14.104-40.65 16.517-90.337-24.401-110.55" fill="#383839"/>
 <path d="m190.28 111.78c3.7548-1.4214 7.4488-3.6012 11.312-5.395-6.4607 0.15203-10.185 2.4231-11.312 5.395" fill="#444647"/>
 <path d="m238.63 104.38c-3.3824 0.8057-9.3308 1.3378-15.579 1.6874 0.45606 0.22802 0.85889 0.45605 1.2846 0.76008 8.608 5.3662 10.038 13.261 9.6626 20.152 3.7548-0.76007 7.4698-1.7286 11.065-3.1272 18.019-6.97 8.2591-22.926-6.4379-19.467" fill="#444647"/>
 <path d="m183.95 89.59c23.65 6.4608 52.556 6.6508 64.489-1.8242-0.38003-0.15203-0.68407-0.38005-1.0717-0.53207-4.4769-2.1966-7.9102-4.6137-6.3239-10.538 1.2085-4.4009 0.0266-7.0004-5.123-7.4261-17.965-1.1021-49.419-6.1415-65.105-13.809-4.5605-3.2988-8.5806-0.76008-8.9554 3.2684-0.38004 4.4769-4.5073 6.1643-8.0714 6.3847-2.4171 0.15201-4.7734 0.30402-7.0536 0.60806 5.3358 10.511 19.226 18.985 37.218 23.892" fill="#2f2f32"/>
 <path d="m226.17 265.02c0.30404 3.2152 1.1553 5.6854 2.4703 7.5629 11.53-12.763 23.596-30.461 33.437-51.188-12.012 18.287-24.964 33.303-35.904 43.627" fill="#2f2f32"/>
 <path d="m163.54 75.881c4.5073 1.5278 10.726-6.0883 16.169-3.4052 11.53 7.6153 14.265 13.837 18.957 10.351 1.8774-1.391 5.4954-1.9838 6.5672-1.8242 0.77528 0.15203 1.391 0.38004 1.9002 0.68408 4.1577 3.6712 8.4735 3.7776 11.718 3.1088 2.1738-0.45605 6.514 2.7895 8.8748 2.4703 2.5235-0.38004 2.8655-3.2988 5.7387-3.8612 2.6527-0.45605 6.97 3.4888 11.584 2.5463-3.2456-1.9534-5.313-4.4541-3.9981-9.2776 1.1781-4.4237 0.0266-7.0232-5.1458-7.4565-17.965-1.1021-49.419-6.1111-65.078-13.809-4.5833-3.2684-8.6073-0.68407-8.9827 3.2684-0.30404 3.7548-3.2456 5.5486-6.3011 6.1643 5.7083 2.7591 2.9491 9.3042 7.9901 11.021" fill="#483118"/>
 <path d="m164.86 72.129c1.8774 0.60806 8.5008-4.5833 12.603-3.6712 6.2707 0.60806 16.759 13.032 18.475 11.959 2.0903-1.6646 6.4912-3.542 9.8682-3.0023 3.4888 0.53207 5.313 2.8655 5.9287 3.8385 2.6527 2.8123 9.1165-0.53207 12.683 1.1553 2.1206 0.98812 2.3563 1.8242 3.6484 0.45605 0.68407-0.76009 3.1392-2.6831 4.743-2.9795 2.3335-0.45605 5.4422 1.9534 8.5806 2.6299-0.77528-1.505-0.98811-3.352-0.38004-5.8147 1.2085-4.4009 0.0532-7.0004-5.123-7.4261-17.966-1.1021-49.419-6.1111-65.105-13.809-4.5605-3.2988-8.5806-0.76009-8.9561 3.2684-0.15201 2.0142-1.1021 3.4584-2.3563 4.4541 3.9449 3.4584 3.5952 8.3663 5.3586 8.9827" fill="#5f4326"/>
 <path d="m220.24 123.54c-1.1781 6.438-5.5486 7.9642-10.564 7.0536-5.2522-0.96532-8.5267-5.7919-7.6419-10.511 0.85889-4.7202 5.6323-7.7225 10.887-6.7572 5.2294 0.96532 8.1778 5.4954 7.3196 10.216" fill="#383839"/>
 <path d="m212.91 113.31c-5.2522-0.96532-10.028 2.037-10.886 6.7572-0.38005 2.0142 0.0158 4.029 0.95074 5.7468 4.2945 1.3377 9.5785 2.2155 15.316 2.3752 0.91211-1.1249 1.5904-2.6492 1.9324-4.6634 0.8589-4.7202-2.0674-9.251-7.3196-10.216" fill="#444647"/>
 <path d="m199.07 133.89c-1.0717 5.8755-5.0166 7.3728-9.5991 6.5444-4.7962-0.88171-7.8563-5.389-7.0536-9.7063 0.77529-4.3173 5.1458-7.0536 9.948-6.1947 4.8038 0.88171 7.4793 5.0394 6.704 9.3582" fill="#383839"/>
 <path d="m219.3 146.06c-0.96531 5.2294-4.6137 7.4565-9.7603 6.514-4.7962-0.88169-8.098-5.4954-7.3196-9.8135 0.77529-4.3173 5.4194-6.9472 10.216-6.0883 4.8038 0.8817 7.6427 5.0698 6.8636 9.3848" fill="#383839"/>
 <path d="m144.92 214.44c5.9287 4.4541 8.2052 5.0926 16.25 4.3173 7.9908-0.77529 9.1971 7.5857 1.2618 9.1173-8.5267 1.6342-18.529-1.4746-23.65-6.8636-5.2598-5.5486-0.076-11.236 6.1415-6.5672" fill="#FEF4E0"/>
 <path d="m105.24 100.97c1.4442 1.3378 3.808 1.5278 5.0394 3.3216 2.1967 3.162 1.2085 11.289 4.7734 14.721 4.1805 3.9677 2.9796 6.1947 5.123 8.2584 1.6342 1.6114 6.704 6.7572 7.9908 7.0004 1.2618 0.22804 10.324-1.2617 10.913-1.847 0.60808-0.60807 17.992-12.254 19.44-13.541 1.4214-1.315 8.4203-5.3358 8.7418-6.4607 0.38004-1.1553 1.847-4.857 2.7895-5.2826 7.9908-3.5952 14.936-13.381 22.122-16.41 6.2479-2.6299 21.156-3.4052 27.806-5.9819 4.7429-1.847 11.61-6.8104 17.456-15.284-0.45604-0.07602-0.96532-0.15201-1.5278-0.22803-2.3563-0.15201-4.9634-0.38004-7.7491-0.60806-4.1805 2.3867-10.833 10.403-13.568 12.012-2.1967 1.315-9.0359 1.2618-12.817 0.9121-10.296-0.9121-11.074-5.1762-12.012-5.9287-4.1805-3.2988-6.1111-9.9746-4.1577-14.775-3.9449-1.1249-7.6419-2.3563-10.887-3.6712-0.15202 12.04 8.4735 17.885 9.8409 23.757 0.53206 2.1434-0.30403 6.2707-1.7178 8.1246-3.9144 5.0394-10.35 7.5857-13.89 12.254-4.7429 6.2175-8.741 10.913-14.667 13.434-6.7268 2.8427-20.594 3.4356-23.972 1.1553-10.752-7.16-20.432-14.721-21.934-29.12-2.1206 2.7895-4.1273 5.8755-6.0351 9.3042 0.76009 2.037 1.771 3.8612 2.8959 4.9102" fill="#71AB6A"/>
 <path d="m219.96 84.734c4.7429-1.847 11.611-6.78 17.484-15.284-0.45605-0.07602-0.99572-0.15201-1.5278-0.22802-2.3867-0.15203-4.9862-0.38004-7.7499-0.60808-4.1805 2.4095-10.833 10.404-13.594 12.04-2.1967 1.2845-9.0101 1.2313-12.791 0.9121-10.297-0.93491-11.101-5.1762-12.04-5.9287-4.1577-3.3292-6.1111-10.002-4.1577-14.802-3.9372-1.1249-7.6153-2.3335-10.859-3.6484-0.15201 12.013 8.4461 17.858 9.8409 23.758 0.53205 2.1207-0.30404 6.2479-1.7178 8.0972-0.0539 0.07602-0.076 0.15201-0.15201 0.22802 0.38005 0.07602 0.8285 0.22803 1.2617 0.38004 2.3031 0.60808 4.667 1.2085 7.0232 1.7178 0.38004-0.22803 0.77528-0.38004 1.1781-0.53206 6.2479-2.6527 21.157-3.4356 27.806-6.0047" fill="#61955C"/>
 <path d="m272.82 194.61h-0.15203c0.68408-3.7548 1.9838-14.962 1.1553-19.494-3.8384 4.8266-10.297 12.254-12.388 14.829-1.8774 6.78-6.0047 18.555-9.0367 25.527 0.38004 2.8123 0.22803 12.979 0.53207 16.303 2.3563-2.1738 8.795-9.7603 10.324-12.925 3.1088-6.7268 5.9819-13.782 8.5001-21.076 0.38005-1.0489 0.76009-2.0902 1.0717-3.162" fill="#ada387"/>
 <path d="m267.69 192.7c0.15202-0.68408 0.53207-8.1246 0.99572-11.289-2.9796 3.5116-5.9287 6.9472-7.2132 8.5274-1.8774 6.7876-6.0047 18.582-9.0367 25.527 0.15201 1.3378 0.22803 4.3705 0.30403 7.5325 1.581-1.6342 4.1805-4.933 5.5258-6.4608 0.80568-1.6874 9.0633-22.202 9.4654-23.838" fill="#71AB6A"/>
 <path d="m268.67 181.4c-2.9796 3.542-5.9287 6.9472-7.2132 8.5274-1.7178 6.2479-5.3662 16.705-8.2591 23.757 5.0698-9.251 9.2776-14.292 12.71-16.196 0.96531-2.4931 1.6646-4.3477 1.771-4.8038 0.15201-0.68408 0.53205-8.1246 0.99571-11.289" fill="#61955C"/>
 <path d="m258.96 208.55c0.99571-2.4399 1.771-8.0706 0.80569-12.361-1.7178 5.389-4.0209 11.879-6.0883 16.974 1.9838 0.076 4.2641-2.1434 5.2826-4.6137" fill="#e1d97b"/>
 <path d="m254.17 211.92c2.1434-3.7548 4.1045-6.7268 5.9287-9.0093 0.15201-2.1966 0.15201-4.6137-0.30404-6.704-1.6114 4.9634-3.6712 10.833-5.6018 15.713" fill="#c2bc6b"/>
 <path d="m335.16 164.58c0.99571 2.0142 2.0902 4.7734 2.6299 4.6137 0.53205-0.15202 2.1738 0.0274 2.6527 0.15202 0.93491 0.15201 3.8612 1.3149 4.4237 1.9002 0.60806 0.68408 2.1434 0.0274 2.037-0.8817-0.15201-1.1021 0.91211-2.2499 1.8242-2.5235 1.6874-0.45606 4.0209 0.82849 5.655 2.2499 1.4214 1.2313 3.6484 4.6365 2.3563 6.2707-1.0489 1.3378-4.857 0.45605-6.1643-0.38004-0.45605-0.30403-1.391 0.53207-1.7938 0.68408-0.76008 0.30405-3.352-1.6114-4.2945-0.30404-1.1553 1.5582 2.3031 2.9492 1.1249 4.5605-1.2314 1.7178-7.0764-2.0902-9.0101-1.771-1.9534 0.30402-2.2803 2.5235-4.1273 2.5463-2.1207 0.054-2.5463-3.2684-5.8451-3.2684-3.6712-0.38004 7.8836-15.364 8.5267-13.809" fill="#71AB6A"/>
 <path d="m340.43 169.32c-0.45605-0.0761-2.1206-0.30403-2.6527-0.0761-0.53205 0.15201-1.6342-2.5995-2.6299-4.6365-0.60806-1.5278-12.201 13.434-8.5274 13.837 3.3216-0.0274 3.7244 3.2988 5.8451 3.2684 1.847-0.0274 2.1967-2.2499 4.1577-2.5767 0.45605-0.0761 1.2314 0.076 2.0674 0.38004 2.0142-2.8655 3.8308-6.0883 5.0926-8.9561-1.1021-0.53208-2.7059-1.1249-3.352-1.2314" fill="#61955C"/>
 <path d="m348.66 145.05c-1.1021-2.4399-10.001-5.199-17.724-1.0185-0.60807 0.30404-1.1781 0.68407-1.7178 1.0489-1.2085-3.086-7.8836-8.4727-15.552-8.2318-2.2803 0.0761-2.3867 33.17 3.3216 43.895 4.4009 5.6322 11.745-2.1206 17.242-13.354 2.3031-2.6831 4.9862-6.0883 6.6508-7.3196 6.2479-4.5605 9.7869-10.618 7.7757-15.016" fill="#71AB6A"/>
 <path d="m321.37 171.1c-6.0883-1.2845-6.2175-9.5186-8.5533-9.1431 0.68408 7.4565 2.0142 14.721 4.1805 18.796 4.4009 5.6018 11.745-2.1435 17.215-13.38 0.53206-0.60806 2.8655-4.0513 6.0047-6.4608 4.3173-3.3748 6.2175-6.5444 6.7572-7.16-15.392-2.3335-19.172 18.689-25.608 17.348" fill="#61955C"/>
 <path d="m305.78 78.243c-2.037 33.223-2.5995 212.82-2.4703 219.74 0.38004 14.855 12.763 34.858 18.26 42.205 2.8959 3.884 13.3 8.3929 23.864 7.2132 5.7082-0.60807 7.4032-7.1068 2.5235-12.093-15.686-15.982-23.087-26.171-25.553-35.422-1.5582-5.8451-3.5648-46.416-3.9449-66.15-0.054-2.5995 0.68409-9.9214 2.3867-13.461l-0.45605-12.763c-1.3682-2.2499-2.4703-5.4726-2.3867-13.649 0.0761-11.021 0.7601-111.36 0.45605-112.43-0.38004-1.6874-8.2584-5.7691-9.251-5.6855-0.68409 0.02658-3.4052 1.6874-3.4584 2.4931" fill="#c4c0a8"/>
 <path d="m308.95 202.29c-0.0533 1.7178 0.53205 11.289 0.45605 13.89-1.1782 2.4703-1.6646 6.2251-1.771 12.308-0.0533 3.618 0.30405 66.097 0.68408 71.433 0.53207 7.9908 6.1111 21.478 17.402 36.092 3.8916 5.0394 13.219 6.7572 19.816 6.0579 4.7201-0.45605 5.1458-3.4052 1.847-7.3197-15.285-15.66-22.551-25.715-24.991-34.858-1.581-5.8451-3.5648-46.416-3.9448-66.151-0.0532-2.5995 0.68408-9.9207 2.3867-13.46l-0.45605-12.763c-1.391-2.2499-2.4703-5.4726-2.3867-13.649 0.0761-11.021 0.7601-111.36 0.45606-112.43-0.45606-1.6874-8.285-5.7691-9.2776-5.6855-0.8057 22.738-2.0902 102.89-2.227 118.47-0.0533 4.6366 0.85888 7.0004 1.9534 8.0706" fill="#D6D090"/>
 <path d="m318.74 308.13c2.2271-0.15201 5.7387 0.85891 9.2784 3.7244-2.8199-4.3477-4.6137-8.2318-5.6018-11.958-0.22803-0.76009-0.38005-2.037-0.60806-3.7776-0.76009 2.5463-2.7059 3.6712-4.9634 3.9677-1.7938 0.22803-5.8983-1.2618-8.6612-5.2294 0.054 2.5463 0.0761 4.3477 0.15201 5.0698 0.22803 3.1392 1.2085 7.16 3.0328 11.744 1.4746-1.9838 4.0513-3.2988 7.3729-3.542" fill="#EAE3C6"/>
 <path d="m318.35 161.29c0.054-7.2436 0-15.767 0.0274-23.57-3.4356-1.2846-7.2132-1.2618-10.511-0.53206-0.15202 7.7225-0.30403 15.364-0.38004 22.47 1.6646-1.2618 7.6153-0.88171 10.886 1.6342" fill="#B9B47D"/>
 <path d="m318.54 237.2c-0.0266-1.2085-0.0532-2.3563-0.076-3.4584-0.054-2.5995 0.68408-9.9207 2.3867-13.46-1.8774-0.60807-9.1165-3.0024-11.423-4.1045-1.1781 2.4399-1.6646 6.2175-1.771 12.307v7.0004c2.7363 2.3031 8.6072 3.1392 10.886 1.7178" fill="#B9B47D"/>
 <path d="m326.56 141.6c1.315-2.3335 1.6646-5.4194 1.0717-8.4461-1.4442-7.4565-8.3663-12.335-17.376-11.074-9.4388 1.3378-15.472 7.0232-16.062 14.882-0.22803 2.8655 0.38005 5.5486 2.1966 7.1068-1.4746 2.3563-2.0902 4.9862-2.0142 7.5097 0.15202 4.2641 3.9145 7.2132 9.251 6.8636 0.0761-0.96531 0.22802-2.2499 0.45605-3.7548 3.618-4.3705 13.622-1.2085 15.418 1.3682l9.8675-10.35c-0.53206-1.5582-1.5582-2.9187-2.8427-4.1045" fill="#71AB6A"/>
 <path d="m305.84 137.59c-4.5301-1.3682-3.1088-13.648-0.0266-14.613-8.1512 3.0328-11.182 8.3389-11.61 13.997-0.22803 2.8427 0.38005 5.5486 2.1966 7.1068-1.4746 2.3563-2.0902 4.9634-2.0142 7.4793 0.15201 4.2869 3.9144 7.236 9.251 6.8636 0.0761-0.93491 0.22802-2.2499 0.45605-3.7244 0.38005-0.38004 2.2499-1.315 2.6831-1.581-5.199-1.1553-5.313-13.783-0.9653-15.526" fill="#61955C"/>
 <g fill="#0f141b">
  <path d="m163.66 58.862c-0.53206 5.5486-5.389 7.7765-9.7869 8.0174-46.013 2.5463-59.957 37.272-68.511 96.451-5.3586 36.87 0.77528 90.176 16.947 106.29 9.5992 9.546 27.35 14.426 42.983 18.716 13.97 3.8384 44.271 9.1971 59.019 2.0902 19.681-9.4928 49.66-46.979 65.721-93.261 25.876-74.516-7.8023-100.58-23.489-108.33-4.5301-2.2499-9.2237-5.2522-7.2664-12.63 0.96531-3.5648 0.22802-4.857-3.5116-5.1458-17.107-1.0717-47.702-5.8451-64.166-13.246-1.0185-0.45605-1.6874-0.8589-2.4399-1.2845-2.7059-1.581-5.2294-0.60808-5.4954 2.3335m-19.708 233.95c-16.061-4.4009-35.046-10.324-45.316-20.54-13.997-13.916-24.428-62.584-18.234-109.8 10.055-76.582 33.974-97.175 72.265-99.293 1.391-0.05392 6.5444-0.53206 6.8104-4.6365 0.45605-6.5444 7.0004-8.2318 11.074-5.8147 14.694 8.6878 46.549 13.219 65.507 14.373 6.5976 0.53206 9.6265 3.6712 7.6153 9.7063-1.2085 3.542 0.054 5.8147 4.4541 7.9102 37.192 17.698 45.478 59.957 26.707 113.99-16.384 47.167-47.729 86.369-68.081 96.21-13.273 6.3848-40.597 3.9981-62.799-2.0902"/>
  <path d="m225.37 68.308c-3.0555 2.3563-10.028 10.029-11.825 11.101-1.3378 0.8057-6.8104 1.1021-11.718 0.68408-9.4388-0.8589-9.7071-4.4009-11.316-5.6855-3.7244-2.9795-5.3358-9.2237-3.4584-13.165l-3.0556-1.2618c-1.2313 2.8655-1.0185 12.576 4.5301 16.974 2.2803 2.6831 3.6712 5.5791 13.085 6.4075 0.45605 0.02658 10.216 0.68408 13.676-1.3682 3.4356-2.037 11.155-12.656 16.625-13.139z"/>
  <path d="m106.82 88.848c1.4746 9.4927 9.9488 20.754 22.498 29.147 4.857 3.2456 22.094-0.53206 25.5-1.9534 6.4608-2.7363 10.403-7.8023 15.016-13.836 3.1924-4.2109 10.055-7.4261 14.265-12.817 1.6874-2.1967 2.8959-6.1111 2.2499-8.8756-1.581-6.6204-9.1971-9.4654-9.8135-22.98l-3.5952-1.3377c0.9653 15.82 8.5274 19.521 9.8682 25.152 0.38004 1.6874 0.0533 5.199-0.99571 6.5444-3.9981 5.1762-10.484 7.2664-14.319 12.307-4.4237 5.8147-8.3123 10.806-13.97 13.193-6.8408 2.8959-20.218 3.2152-22.738 1.5278-11.128-7.4261-20.111-14.962-20.969-29.523z"/>
  <path d="m103.55 94.074c0.60808 2.0902 1.6114 5.0394 2.5995 5.9819 1.2085 1.1249 3.6712 1.3377 5.2826 3.6712 2.4703 3.5648 1.4214 11.343 4.3705 14.158 4.2641 4.0741 3.3216 6.4912 5.0166 8.1246 0 0 6.4911 6.0047 7.6427 6.6204 1.505 0.0266 9.1165-1.3682 10.431-1.8774 4.1805-3.6484 16.195-10.591 18.582-13.3 0.53206-0.60806 7.5097-5.1458 8.1246-5.7919 0.38004-1.1021 2.1434-5.1762 3.9677-5.9819 7.9376-3.5952 14.212-13.38 21.881-16.625 7.16-3.0023 20.996-2.8427 27.887-5.5259 4.2641-1.6646 11.718-7.236 16.061-14.345 0.60808-0.05392 1.9838-0.07602 3.2152 0.60808-7.7225 11.449-15.552 15.659-17.993 16.598-6.2479 2.4095-21.666 2.037-27.913 5.6018-6.4607 3.6712-13.381 12.039-21.853 15.954-0.53206 0.60806-2.0674 3.542-2.3867 4.6137-0.68408 2.3867-6.1947 4.9102-8.4469 7.2132-1.771 1.847-15.016 9.251-18.984 13.676-1.2313 1.315-11.986 2.4095-13.139 2.1967-2.2271-0.38005-7.1068-5.8223-9.0633-7.6959-2.7059-2.5995-1.1021-4.4769-4.933-8.1246-4.1273-3.9449-2.7895-11.986-4.7734-14.855-0.77528-1.1249-3.6712-1.4746-5.0166-2.7059-1.0489-0.99571-1.9838-2.8123-2.7591-4.5833z"/>
 </g>
 <path d="m140.12 219.94c4.8266 5.0926 14.185 7.7225 21.961 6.1415 5.579-1.1553 4.9102-6.0579-0.76009-5.5258-8.3929 0.82849-11.182 0.076-17.509-4.667-4.0209-3.0327-7.6959-0.15201-3.7016 4.0513m-2.0902 1.9002c-5.8451-6.2175-0.53207-14.345 6.78-8.8756 4.9634 3.2456 8.5001 5.8451 16.517 5.0698 10.002-0.96531 11.315 9.2784 1.4518 11.182-7.1296 1.391-15.874-0.0533-22.363-5.2522-0.76009-0.60806-1.7178-1.4214-2.3867-2.1206" fill="#383839"/>
 <g fill="#0f141b">
  <path d="m251.04 229.48c-0.0266-1.2617-0.7601-12.307-0.91212-13.729-0.0266-0.30402 0-0.60806 0.15202-0.93491 2.9264-6.7344 7.0232-18.314 8.9561-25.286 0.054-0.22803 0.15201-0.45605 0.30403-0.68408 0.60807-0.7753 8.285-9.0093 11.798-13.3 3.162-3.8308 3.8612-3.0555 4.1273 1.2314 0.30403 5.4954-0.80569 14.855-1.4214 18.261-2.0142 4.9634-4.0741 4.2641-3.3216 0.15202 0.60806-3.1088 1.581-11.155 1.6646-15.982-1.9306 2.3031-9.0101 10.726-9.7877 11.664-1.961 6.97-5.8983 18.153-8.8216 24.964 0.15201 1.771 0.38004 11.101 0.45605 12.12 2.6831-3.0556 6.4379-7.8836 7.4261-9.9214 3.4356-7.0764 6.3543-5.6855 2.9187 1.391-1.315 2.6831-5.3358 8.2591-8.3389 11.557-3.8612 4.2337-5.0394 4.2641-5.1762-1.505"/>
  <path d="m252.89 221.49c1.581-1.847 4.2109-5.0698 4.5073-5.4194 1.2085-2.6527 8.849-22.47 9.251-24.052 0.0266-0.15204 0.45605-6.5444 0.60808-8.4195l3.4888-4.7734c-0.30404 1.9306-1.2618 13.863-1.315 14.185-0.45606 1.9534-8.849 22.738-9.5992 24.294-0.0761 0.15202-5.7387 7.2436-7.2968 8.3655z"/>
  <path d="m272.65 196.13c-0.68408-0.22803-4.2337-1.5278-5.2294-1.9838 0.30402-0.8817 0.45605-3.3216 0.45605-3.3216 0.45605 0.22803 3.808 1.505 5.4422 2.0902z"/>
  <path d="m262.67 220.57-5.7083-2.6299 1.8242-2.6527 5.123 2.3563s-1.3682 2.8959-1.2314 2.9187"/>
  <path d="m253.13 213.77c4.6365 0.8589 6.8104-4.3477 7.2968-5.4726 0.91211-2.2803 1.5582-10.377 0.15202-15.445l-1.3377 4.6137c0.076 2.4703 0.076 6.704-0.76009 9.8682-0.68409 2.3867-2.4931 4.0513-4.5833 4.4009z"/>
  <path d="m42.466 193.75c-0.22803 1.1021-2.0142 1.7938-2.0142 2.7591 0 0.45605 1.0489 2.3563 3.4584 2.7895 1.2085 0.22803 3.8917-1.0185 4.0741-2.037 0.30404-1.5278-0.60808-3.7016-2.4931-4.0513-0.88169-0.15201-2.8959-0.22803-3.0327 0.53206m0.9121 8.3929c-4.857-0.88169-6.0579-4.3705-5.6551-6.4912 0.30404-1.4518 1.3682-2.0674 1.7178-2.4703 0.38004-0.38004 0.60806-1.8242 1.9838-2.3031 1.2617-0.45605 3.086-0.60808 4.4769-0.30404 4.6669 0.8285 5.7387 4.2641 5.2522 6.9472-0.60806 3.5116-5.123 5.123-7.7757 4.6366"/>
  <path d="m65.94 199.27c0.22803 1.505 5.0926 0.0274 4.2869-1.4214-1.3682-2.4095 0.22802-4.4541 0.22802-6.1415 0-0.53206-0.98811-2.5463-1.5582-2.7059-1.6646-0.38004-4.6137 2.3031-4.7734 3.8385-0.07602 0.9653 0.45605 1.2313 1.7178 3.086 0.94251 1.3378-0.05316 2.1967 0.07602 3.352m-4.8266-6.514c0.30404-4.2869 5.7919-7.3728 8.5274-6.5976 2.9263 0.8285 3.8916 4.6137 3.5952 6.3315-0.30402 1.505-1.0185 2.9795-0.76008 3.6712 0.93491 2.1967 0.88169 4.5301-2.5235 5.9819-3.6484 1.5582-6.8408-0.0761-7.1068-2.3031-0.07602-1.1021 0.53206-2.0142 0.22803-2.5463-0.96532-1.6342-2.1967-1.8774-2.0142-4.5301"/>
  <path d="m20.969 239.52c-3.8916-1.6114-6.1111 11.343-14.426 8.0174-7.4261-2.9796-8.554-15.767-3.2684-22.336 7.2968-9.0093 17.054-4.3477 26.573-1.7938 3.162 0.8285 2.8123-0.30402 2.4171-0.76008-0.53207-0.60807-1.6342-1.581-1.6342-2.8427-0.05328-3.4052 2.6527-6.514 6.6508-7.2664 3.9981-0.77529 7.2969 1.1249 8.0174 3.9981 0.30404 1.2845-0.07602 2.4627-0.60808 3.4356 2.6831-1.0185 5.389-3.1392 5.123-4.8266-1.2845-1.1249-3.5952-2.8731-3.9677-5.313-0.45605-2.5767 1.581-5.9515 6.97-6.5672 5.5791-0.68409 9.0899 1.8774 9.1971 4.9102 0.15201 4.0513-2.2803 6.97-2.7895 7.6959 0.38005 0.60809 1.4442 1.7938 0.80569 3.7016-0.9121 2.6831-4.2641 3.3216-5.1762 4.1045-0.38004 0.38004-0.07602 1.4442 0.22803 1.315 1.2313-0.45605 3.3748-1.5582 5.0166-1.0489 3.3216 1.0185 3.618 2.2499 4.4237 5.6855 0.07602 0.53207 1.0185 1.315 0.68408 3.1088-0.38004 2.037-1.2085 3.8612-2.7059 4.4237-3.2152 1.2085-4.857-1.4746-6.5976 0.45605-1.0185 1.1781-1.9306 8.6338-1.0717 10.511 0.85889 1.8774 2.9263 5.4422 2.3867 7.6153-0.53206 2.1967-2.8427 3.998-3.0555 4.6669-0.38004 1.4974 0.68407 7.4261-0.15203 9.4114-1.6874 3.9145-7.2892 7.3196-10.752 6.5672-10.136-2.037-12.468-12.442-10.19-16.732 1.3682-2.5995 4.0513-3.2988 4.857-7.0232 0.30404-1.581-0.15201-1.8774-1.1021-1.1553-1.771 1.4214-4.6669 4.4541-6.4075 7.35-3.4052 5.655-12.282 5.8451-17.108 1.2618-5.389-5.0698-2.0902-14.158 0.45605-15.418 5.2598-2.5995 6.4608-4.2337 6.3011-8.2318-0.07602-2.037 1.9306-2.2499 2.3563-0.22802 0.93491 4.2641 1.315 6.3543-6.2479 11.101-1.2618 0.77528-3.352 6.6508-0.15203 9.6797 3.352 3.162 8.7144 3.2684 11.503-0.38004 2.3031-3.0328 5.3358-5.8983 7.4033-7.5629 3.4584-2.7591 7.1828-0.85891 6.1111 4.2869-1.0185 4.933-3.7016 5.9287-4.8038 7.9908-0.9653 1.847-0.38004 9.492 7.5629 11.074 2.0674 0.38004 5.9515-1.9534 6.8636-4.0513 0.60806-1.6114-0.22803-7.1828 0.38004-9.0101 0.45605-1.391 1.7178-2.6527 2.1739-4.4237 0.15201-0.60806-0.30404-3.0328-1.3682-5.4726-1.391-3.0327-0.38004-11.718 1.7178-14.078 3.3292-3.808 5.8223-1.315 7.4033-1.9306 0.15202-0.0532 0.53207-0.53206 0.68408-1.4214-0.02658-0.076-0.60808-1.4214-0.68408-1.7178-0.53206-2.4931-0.53206-2.4931-1.9306-2.9263-0.77529-0.22803-2.3031 0.68407-3.428 0.9653-2.7895 0.68409-4.8266-3.4356-3.5952-6.0579 0.82851-1.7178 4.5605-2.1967 5.0394-3.6712 0.15201-0.45605-0.96532-1.9078-0.93491-3.2456 0.05316-2.1738 2.4095-3.1392 2.3031-7.1068-0.02734-0.8817-2.8959-1.9838-5.199-1.7178-2.1739 0.22803-3.9449 1.581-3.7776 2.6831 0.22802 1.315 3.1392 3.1924 3.4888 5.3054 1.0717 6.2479-8.4735 9.9754-11.128 8.608-3.4888-1.8242 0.99571-3.8916 0.02734-5.7691-0.38004-0.82849-2.0142-1.0717-3.5648-0.7753-3.0023 0.53207-3.5648 2.3335-3.542 3.2456 0 0.30405 1.3378 1.2314 1.581 2.4399 0.53206 2.5995-1.0717 5.4422-6.704 3.9449-10.699-2.8731-17.725-5.0926-23.034 1.505-4.5833 5.655-2.7591 15.525 1.1249 16.812 6.3315 2.0902 6.1415-9.0101 13.568-7.7765 0.15201 0.68408-0.22803 2.7059-0.22803 2.7059"/>
  <path d="m316.64 122.26c0.076-20.298 0.15202-37.593 0.054-40.301-0.68407-1.2846-6.0351-4.3401-7.5857-4.8266-0.38005 0.15201-2.4703 1.315-2.4931 1.8242-0.38004 8.2052-0.8057 24.159-1.1553 44.324l-3.7016 1.2845c0.30403-21.183 0.76009-38.264 1.2313-46.496 0.15203-2.1434 4.9862-4.6669 6.1947-4.743 1.6114-0.07602 10.78 5.2522 11.477 8.098 0.15201 0.60808 0.0266 19.708-0.22803 41.991zm3.5116 33.223c-0.15201 20.807-0.30403 37.969-0.30403 38.397-0.076 7.9908 0.96531 10.806 2.1206 12.684 0.15201 0.30403 0.22802 0.53205 0.30404 0.88171l0.45606 12.763c0 0.30404-0.054 0.60806-0.15204 0.8589-1.4746 3.0024-2.2499 9.8941-2.1966 12.63 0.38006 20.754 2.4095 60.278 3.8612 65.722 2.3639 8.8216 9.6265 18.85 25.098 34.617 5.7919 5.9287 3.8308 14.346-3.618 15.177-10.19 1.1553-22.068-2.8123-25.822-7.8563-6.3011-8.4461-18.716-28.503-19.065-43.439-0.076-4.9634 0-77.734 0.60808-139.22l3.7244-4.1273c-0.68408 62.316-0.76009 138.2-0.60807 143.29 0.30403 14.507 13.381 34.779 18.234 41.321 2.5235 3.3748 12.763 7.5097 22.524 6.4075 4.3401-0.45606 5.0926-5.2826 1.4214-9.0093-15.928-16.249-23.462-26.734-25.983-36.226-1.6874-6.2175-3.6484-48.051-4.0209-66.58-0.0266-2.4703 0.60809-9.7603 2.3867-13.863l-0.38005-11.879c-1.3378-2.3335-2.4931-5.8147-2.4095-14.185 0.054-4.3477 0.15201-20.861 0.30402-39.98z"/>
  <path d="m309.65 122.23c0.38004-19.199 0.76009-36.949 1.0717-46.013-1.1553-0.60806-2.2803-0.53206-3.0327 0.15201-0.45606 12.683-0.80571 29.254-1.1553 46.254z"/>
  <path d="m306 153.63c-0.30404 16.517-0.45606 31.265-0.53207 40.57-0.0266 4.0513 0.60807 6.9472 1.9534 8.6604 0.0266 1.1553 0.45607 11.504 0.45607 12.978-1.1249 2.5767-1.6342 6.2707-1.7406 12.602-0.076 3.2988-0.15201 65.669 0.22803 71.299 0.45605 7.4033 5.6854 21.8 18.019 37.754 4.4769 5.8147 15.311 7.1068 21.558 6.4608 7.0764-0.76009 6.7572-6.5444 0.53206-12.307-1.505-1.3986-3.5648 0.8285-2.0674 2.2271 5.3358 4.9634 4.0741 6.3847 0.96531 6.704-6.4075 0.60806-15.07-1.0489-18.475-5.4726-11.905-15.418-16.651-28.343-17.107-35.288-0.38005-5.2826-0.76009-68.188-0.68407-71.326 0.076-6.0351 0.60806-9.5186 1.6114-11.664 0.0761-0.15201 0.15203-0.38004 0.15203-0.60806 0-1.391-0.45605-13.085-0.45605-13.862 0.0266-0.38004-0.15203-0.80569-0.45605-1.1021-0.45606-0.45605-1.5582-2.0902-1.5278-7.0004 0.054-6.5672 0.30404-22.765 0.60806-41.348z"/>
  <path d="m320.3 208.62c-3.086-1.3682-9.0093-4.0741-11.181-4.933-0.054-0.22803-0.68408-2.3563-0.38004-2.7591 3.4356 1.4214 8.8756 3.8612 11.021 4.8798 0.60806 1.2085 0.53206 2.8123 0.53206 2.8123"/>
  <path d="m320.89 218.74c-1.7938-0.53207-9.7603-3.3216-11.449-4.0741-0.15201 0.38004-0.60807 2.9491-0.60807 3.1392 1.581 0.60808 10.19 3.4888 11.477 3.8917 0.60806-1.505 0.77529-2.037 0.60806-2.9492"/>
  <path d="m327.99 142.78c1.6342-2.7363 2.6299-6.3315 1.9306-9.948-1.6874-8.6605-10.967-14.157-19.896-12.897-10.645 1.5278-17.617 9.0899-18.206 16.651-0.30404 3.808 1.3682 6.78 3.4888 8.5806l2.3031-2.4399c-1.6342-1.391-1.6874-4.1273-1.581-5.6322 0.53206-7.0536 5.9515-11.986 14.507-13.193 7.7225-1.1021 14.024 2.8427 15.338 9.5999 0.45605 2.5235 0.22802 5.0166-0.76008 6.9168z"/>
  <path d="m331.13 144.01c-4.2869-7.4033-14.238-10.377-20.861-9.5726-13.46 1.581-18.529 10.136-18.314 17.215 0.15201 4.4009 3.4052 8.4461 9.5459 9.0899 2.2499 0.22803 3.0024-0.45605 3.7244-3.2988 1.0489-4.2945 8.6346-3.5952 12.496-1.315 3.1924 1.8774 4.6137-0.38005 1.2618-2.8427-4.5605-3.4052-15.097-4.4237-17.483 2.4399-0.30404 0.80569-0.30404 0.85889-0.68408 0.76008-2.9795-0.60806-4.5605-2.6831-4.6365-4.9634-0.076-2.6527 0.7601-11.477 14.587-13.112 5.4726-0.60807 14.962 2.3867 16.92 7.9102z"/>
  <path d="m350.84 144.12c-1.771-3.8916-12.522-6.1415-20.781-1.6874-5.8755 3.162-8.3655 8.7418-9.0359 13.863-0.53205 3.7016 1.5278 4.1045 2.6831 0.38004 1.7406-5.6018 4.2337-8.9827 8.098-11.074 5.6018-3.0328 13.944-2.037 15.204 0.15202 1.5278 3.3216-1.4442 8.5806-7.1828 12.791-0.8285 0.60808-3.2684 3.3748-5.3358 5.7691-0.93491 1.0717-1.6342 1.9534-2.3563 3.2988-4.5073 8.4195-10.913 16.705-13.702 11.959l-0.30403 4.3477c5.655 4.0741 12.468-4.2641 18.127-16.464 2.2803-2.3867 4.9634-5.4194 5.6855-5.9515 8.3655-6.0883 11.181-12.361 8.8748-17.43"/>
  <path d="m328.53 176.85c1.6114 0.53206 2.4703 1.6114 3.1087 2.3335 0.76009 0.8589 0.85891 0.9121 1.6114 0.076 2.6831-2.8959 3.0328-2.5767 8.7418-0.15201 2.0142 0.85889 2.4627 0.76009 1.1249-1.2313-1.4746-2.1967 0.38004-4.0741 5.2294-2.3563 0.68409-0.38005 1.9002-1.581 3.1088-0.80571 4.0513 2.6299 6.0351 0.53207 1.9838-3.6712-2.227-2.3335-4.7962-2.6831-5.0394-0.60807-0.38004 2.7059-3.1392 2.8655-4.5301 1.3682-1.8242-1.3682-3.352-1.4746-5.389-1.2085-1.7178 0.53208-2.8427-0.76008-4.1045-3.4052l2.6299-3.0023c1.2085 2.5767 1.1781 3.0556 2.4931 3.1924 2.2803 0.22803 3.5116 0.53207 5.3358 1.7938 0.60807 0.45605 0.80569 0.53207 1.0185-0.30403 0.9121-4.0513 6.1947-3.542 9.5992 0.0761 4.9862 5.2826 5.0926 12.228-4.5301 8.3663-1.0489-0.38004-1.0717 1.9002-3.6484 0.7753-0.7601-0.30404-0.8285-0.15202-0.38005 0.53205 1.9306 3.2684-0.45605 5.3662-4.6137 3.6712-1.8242-0.76009-3.9145-1.7938-5.4194-1.7406-0.96531 0.15201-1.7178 2.8123-4.3477 2.8731-3.3216 0.0761-3.1924-4.3477-7.0536-3.2988z"/>
  <path d="m365.22 181c-0.38004 0.76007 2.6831 3.2988 3.352 2.9491 0.38003-0.22802 0.60806-3.0556 0.0761-3.4888-0.38005-0.30405-3.2152 0.15202-3.4356 0.53206m-2.1966-1.391c0.68407-1.4746 6.1415-2.3563 7.4793-1.1553 1.6114 1.4214 0.96532 6.8408 0 7.6693-2.0142 1.771-9.1165-3.0328-7.4793-6.514"/>
  <path d="m379.4 170.05c2.4171 1.1553 2.5463 1.5278 2.0674 3.542-0.15203 0.77528-0.38005 0.96531 0.15201 1.1553 1.1553 0.38005 5.4954 0.45607 8.5001-0.53205 0.94251-0.30404 1.1249-0.68408 0.53207-1.2617-0.76008-0.76009-2.5995-2.3335-3.5648-2.9492-1.0185-0.60807-1.0489-1.0185-0.38004-1.5582 1.847-1.4214 1.3377-1.5278 0.45605-1.6874-1.4214-0.30403-6.1111 0.68408-7.99 2.2803-0.53207 0.45605-0.60808 0.60807 0.15201 0.98812m-1.2617 5.6551c-0.0761-0.68408 0.15201-1.505 0.45605-1.961 0.76008-0.9121 0.30402-1.1553-0.45605-1.581-0.7601-0.45605-2.1739-0.9349-2.1739-2.1738 0-1.2085 1.9838-4.1045 6.5976-5.2522 4.8798-1.2314 9.0899 0.15202 9.3848 1.3149 0.22804 0.93492-0.60807 1.847-1.2313 2.4703-0.53206 0.60806-0.076 0.68408 0.22803 0.9349 1.6646 1.1781 3.5952 3.1924 3.4052 4.4769-0.53208 4.1273-15.874 4.1273-16.277 1.771"/>
 </g>
 <g fill="#383839">
  <path d="m109.22 208.34c-0.22803 0.30402-1.8242 3.4888-1.9838 4.8798-0.15201 1.9002-0.77529 3.3824-1.0185 5.579-0.53206 4.7734-1.0413 6.8408-3.0023 6.6736-0.98812-0.076-2.3867-2.3335-1.8242-6.1643 0.38004-2.7591 1.7938-3.6712 3.086-7.6951 0.30404-0.8589 0.45606-2.5995 0.22803-4.1045z"/>
  <path d="m185.37 229.1s-2.8123 2.2271-3.7016 6.3543c-1.4746 7.1068-3.2152 7.4565-4.8798 6.97-1.315-0.38005-1.6342-2.8959-1.2314-4.1045 1.1249-3.1924 5.5486-7.6419 5.2522-11.851 0.53206 1.3682 4.5605 2.6299 4.5605 2.6299"/>
  <path d="m121.58 210.78c-0.68407 3.618-0.22802 4.9634-0.30402 7.0536-0.0539 4.2641-1.5582 5.6855-2.8959 5.3586-1.1553-0.30404-2.2499-1.2085-2.0142-4.1577 0.15201-1.771 1.771-4.3705 1.6874-8.9021z"/>
  <path d="m206.28 234.18c-2.3031 0.8285-3.8612 6.3315-4.9634 9.3856-1.1021 3.0556-1.3682 8.4195-1.8774 10.296-0.53207 1.9002-2.1434 3.7548-3.352 3.542-1.2313-0.22803-1.6874-2.6527-1.0717-5.0698 0.60807-2.4095 1.9306-5.6019 3.4888-9.1165 1.5278-3.4888 1.5278-8.3663-0.53207-11.986 2.3335 4.0513 6.0047 4.1577 8.3123 2.9491"/>
 </g>
 <path d="m126.97 138.37c-9.9746-1.8242-24.749 10.056-28.959 34.537-2.9795 17.188 2.8427 34.751 9.4122 36.387 2.037 0.45605 4.4769-0.22803 7.0004-1.9078 1.847 1.961 3.9677 3.2152 6.2175 3.7016 6.0579 1.2845 16.732-13.086 20.888-30.407 5.2598-21.988-2.5463-40.114-14.56-42.313" fill="#FEF4E0"/>
 <path d="m214.54 163.05c-10.136-3.1088-26.573 0.7601-35.314 30.112-4.933 16.705-1.2846 33.008 4.7202 36.092 2.2803 1.1781 6.0047 0.8589 10.055-0.94251 2.1206 2.6831 4.7734 4.857 7.9634 6.4076 5.7691 2.7895 17.59-10.591 23.757-27.324 7.4793-20.272 2.3867-40.168-11.182-44.35" fill="#FEF4E0"/>
 <path d="m120.95 209.3c4.2109 0.22804 13.81-11.315 18.046-29.013 2.037-8.5001 2.6299-16.33 1.2085-23.007-0.38004-1.8774-1.1781-4.2337-1.8242-5.8755-2.3867-6.0047-6.5976-9.8675-11.852-10.833-3.9981-0.76008-9.1705 0.76008-13.595 4.933-1.2313 1.1553-2.037 2.7363-3.1924 4.2337-4.1577 5.4726-7.6419 13.354-9.4114 23.597-0.53206 3.2152-0.80569 6.3847-0.80569 9.438 0 1.2617 0.07602 3.4356 0.15201 4.6365 0.68408 10.967 4.5073 18.609 8.4469 19.575 5.5258 1.3682 16.758-10.324 20.084-25.688 1.8774-8.554 1.2845-15.311-0.45605-19.601-1.1553-2.8427-2.9796-4.5833-5.2826-5.0166-2.7591-0.53207-6.2707 1.505-9.0101 6.1415-2.0674 3.5116-4.1577 8.2318-4.6137 14.775-1.505 20.486 6.8636 31.399 12.066 31.694m-16.625-32.096c0.45605-6.5976 3.1392-12.228 5.7919-17.242 3.8612-7.35 9.4654-8.8482 13.273-8.1512 3.5648 0.68408 6.4075 3.3216 8.2318 7.4565 0.80569 1.8242 1.9838 4.3173 2.0674 6.5672 0.15201 4.3705 0.30404 10.136-1.0413 16.277-1.581 7.4033-5.3662 14.694-9.8409 20.137-0.8893 1.0717-1.8774 1.9002-2.7363 3.0023-3.8308 4.857-9.1705 6.7572-13.085 5.7919-7.6419-1.9306-13.354-16.491-11.664-31.292 0.30404-2.3563-0.15201-4.1273 0.22803-6.4607 1.315-7.6959 4.1805-15.633 7.236-21.291 1.9838-3.618 3.7244-6.5672 6.2479-9.0899 5.313-5.2826 12.871-7.7491 18.529-6.704 4.7201 0.8589 8.3929 3.4888 11.315 7.2436 1.1781 1.505 2.3867 3.1088 3.2456 4.9862 3.8612 8.3929 4.5605 20.191 1.5278 32.821-0.80569 3.2988-1.847 5.4726-2.8655 8.5001-4.7202 13.916-14.399 24.267-20.459 23.114-8.554-1.6114-16.25-14.426-15.982-30.488 0.0539-1.771-0.15202-3.352 0-5.1762" fill="#383839"/>
 <path d="m202.24 233.21c4.4009 0.96532 14.721-8.285 21.452-26.519 6.514-17.671 3.3824-37.192-9.9214-41.267-10.752-3.3216-24.321 2.2271-32.124 25.045-0.38005 1.1021-0.30404 2.037-0.68409 3.2152-0.38004 1.1553-0.38004 2.4931-0.68408 3.6484-3.6712 14.238 0.22803 27.887 4.7202 30.192 4.8038 2.4703 20.486-4.7734 25.983-22.068 4.5301-14.292 2.6831-23.624-3.5952-25.554-1.1021-0.38004-2.3867-0.076-3.8917 0.22802-4.1805 0.80571-8.9029 6.2479-11.611 16.277-0.38004 1.3682-0.85891 4.4237-1.0717 5.7691-2.4095 15.552 4.1805 29.495 11.423 31.078m-14.989-37.862c2.896-10.618 10.485-19.145 17.107-19.869 1.6114-0.15201 3.0328-0.82848 4.5073-0.38004 8.3929 2.5767 11.879 15.31 6.5444 32.123-2.3867 7.5325-7.1828 13.193-12.254 17.376-7.2969 6.0351-15.445 8.6346-20.031 6.2707-6.2479-3.2152-10.779-18.394-7.16-34.349 0.38005-1.771 0.30404-3.4888 0.8057-5.2522 1.1781-4.0513 2.0902-5.389 3.542-8.5533 6.704-14.829 16.625-21.881 24.803-22.202 3.352-0.0761 6.97-0.68409 9.8948 0.15201 3.5116 1.1021 6.2707 3.3824 8.9827 6.1643 7.8829 8.098 9.8135 25.634 3.9677 41.508-3.8384 10.377-9.8948 19.494-15.606 24.749-0.96531 0.8817-2.0142 1.2085-3.086 2.2803-2.6831 2.6831-5.8147 3.0556-8.2857 2.037-8.5533-3.5952-17.268-18.689-14.882-34.483 0.45605-2.9795 0.30403-4.4541 1.1553-7.6153" fill="#383839"/>
 <path d="m245.53 49.386c-4.9026-2.6831-12.683-5.6855-24.052-8.8756 0.15202-0.76008 0.38005-1.505 0.60807-2.4171 7.1828-1.2617 15.016-1.581 17.563-11.691 2.3335-9.1971-6.3011-19.521-20.915-23.194-13.89-3.5116-26.76 1.2618-29.415 10.485-2.2271 7.7757 1.4442 13.755 8.4469 17.911-0.38004 1.1781-0.60808 2.1434-0.88171 3.0023-12.147-2.3867-20.62-3.1392-26.091-2.8959-7.35 0.22802-10.726 2.6527-12.227 7.8836-3.2988 11.396 4.3173 17 43.492 26.466 37.647 9.0899 47.917 8.7418 51.135-2.8655 1.6114-5.8755-0.53205-9.9746-7.6693-13.809" fill="#FEF4E0"/>
 <path d="m245.53 49.386c-4.9026-2.6831-12.683-5.6855-24.052-8.8756 0.15202-0.76008 0.38005-1.505 0.60807-2.4171 7.1828-1.2617 15.016-1.581 17.563-11.691 1.2314-4.8798-0.60807-10.055-4.7734-14.399 3.8916 14.453-6.438 17.617-22.926 13.166-14.641-3.9449-20.513-9.4927-21.156-14.748-0.60807 1.0185-1.1249 2.1206-1.4746 3.2684-2.227 7.7757 1.4442 13.755 8.4469 17.911-0.22804 0.76009-1.0489 4.1273-1.2085 4.7429-3.352-0.77528-10.377-1.315-10.833 1.4442-0.8589 5.1458 14.426 9.4122 17.509 10.324 5.313 1.5582 12.066 3.1088 17.912 3.7244 5.2522 0.53207 5.7083 3.3824-0.0266 3.5952-2.8731 0.07602-7.7765-0.38004-15.338-2.1434-28.101-6.514-44.485-14.506-43.198-18.743 0.45605-1.4746 2.9491-2.5995 8.0714-2.8427-7.236 0.30404-10.618 2.6831-12.093 7.8836-3.2988 11.396 4.3173 17 43.492 26.466 37.647 9.0899 47.918 8.7418 51.135-2.8655 1.6114-5.8755-0.53206-9.9746-7.6693-13.809" fill="#DCD4C3"/>
 <g fill="#0f141b">
  <path d="m221.09 42.279c12.254 3.4584 19.441 6.4379 23.65 8.795 4.9102 2.7059 8.3929 5.4954 6.704 11.638-2.5995 9.4122-10.055 10.967-48.936 1.581-39.041-9.4114-44.968-14.56-42.205-24.187 1.315-4.6137 4.1045-6.5976 12.174-6.6204 5.3662-0.02658 13.058 0.76009 23.918 2.8731l1.315-3.352c-8.3123-1.8242-17.911-3.4052-25.366-3.3216-6.1947 0.05392-13.701 0.60808-16.223 9.3582-3.9981 13.863 6.438 20.057 45.29 29.442 39.578 9.546 50.491 9.0101 54.245-4.6669 1.847-6.6736-1.6114-11.825-9.0906-15.954-5.3358-3.0328-13.46-6.0047-24.508-8.9288z"/>
  <path d="m166.01 37.593c4.4769 3.1924 16.866 9.2776 40.088 14.667 25.902 5.9819 38.156 6.3543 42.661 5.8451 2.5463-0.22803 2.7363 1.3378 0.45605 2.2499-4.3477 1.7406-17.724 1.0489-43.492-4.933-22.953-5.3054-37.969-12.388-41.536-16.249-2.1434-2.3031-0.80569-3.4584 1.847-1.581"/>
  <path d="m219.22 1.171c-14.775-3.7244-29.146 1.7406-32.096 12.066-2.2499 7.8836 1.5582 14.534 8.795 19.28-0.38004 1.2313-0.80568 2.8959-0.96531 3.3824-0.99571 3.2456 1.3378 4.2109 2.8427 0.93491 0.30403-0.60808 1.0717-2.4399 1.4214-3.6484 0.60807-2.2499 0.60807-2.3335-1.7178-3.8612-5.9819-3.9981-8.0972-9.2244-6.4075-15.123 2.5767-9.0633 15.552-12.174 27.216-9.2237 13.112 3.2988 21.72 12.522 19.601 20.995-1.6646 6.5444-7.2132 9.3856-13.89 9.9754-3.0328 0.30404-2.9796 0.45605-3.5952 2.7895-0.45605 1.771-0.8817 3.2152-1.1249 4.5073-0.45605 2.6299 1.6114 3.6484 2.7363 0.77529 0.60807-1.4442 1.0489-3.086 1.581-4.6365 9.0367-0.07602 16.33-4.2109 18.368-12.282 2.6831-10.618-7.4261-22.041-22.765-25.929"/>
  <path d="m199.62 41.323c3.5116 2.1967 11.799 4.1577 15.687 4.3705 3.0328 0.15201 3.0556 1.5278 0.0266 1.9306-3.2456 0.45605-14.05-2.0674-16.974-4.8266-2.1434-2.0142-1.1553-2.9796 1.2617-1.4746"/>
 </g>
</svg>
