<?xml version="1.0" encoding="UTF-8"?>
<!-- Created with Inkscape (http://www.inkscape.org/) -->
<svg version="1.1" viewBox="0 0 469.29 348.16" xmlns="http://www.w3.org/2000/svg">
 <g transform="translate(576.76 392)">
  <g fill="#282121">
   <path d="m-499.63-372.89c-2.5445-1.9856-10.263-2.699-15.128 1.6487 0.97895-1.2722 2.4057-2.7823 3.6344-3.6899-4.1247-1.6369-13.884 4.9498-15.632 14.793-0.42011-2.0134-0.45974-4.2083-0.0793-5.4948-4.0965 2.4176-7.1867 12.248-5.7465 18.149 1.4823 6.1238 6.1519 10.486 11.367 10.794 6.5153 0.39634 10.92-4.8376 11.926-12.374 0.50334-3.8167-0.9631-7.0187-1.2722-10.388-0.57468-6.2498 3.7057-11.563 10.948-13.437"/>
   <path d="m-555.26-342.37c6.3897 0.54694 13.408-4.8797 14.234-14.653 1.2167-14.289-2.7545-23.252-5.0755-25.671 0.0396 1.5655-0.11889 3.6225-0.40425 5.5788-0.55884-8.4031-6.9771-14.136-8.627-14.36 1.3436 5.0477 1.6646 9.6056 1.1177 13.758-0.7134-3.131-2.0847-4.7818-2.8259-5.3553 0.47561 10.612-5.928 15.45-6.6973 20.078-1.3991-2.0689-3.8048-4.2225-5.5645-4.5301 0.96309 1.9143 1.6923 5.4532 1.5378 8.3753-0.45975 9.0741 4.7675 16.135 12.304 16.778"/>
   <path d="m-548-328.4c-8.3052-1.3277-11.409 3.5512-21.811-1.621-0.0396 0.71339 0.19817 1.7756 0.6698 2.6277-3.1033-1.6091-5.6347-3.7057-6.767-5.4389-1.0503 12.346 6.6132 26.314 18.554 24.077-1.621 0.81248-4.1667 1.6646-4.9494 1.8311 7.2703 4.6839 25.866 2.378 26.719-8.5152 0.48749-6.2078-4.9078-11.772-12.416-12.961"/>
  </g>
  <g fill="#201718">
   <path d="m-516.38-342.54c-4.1805 3.0082-11.241 1.6923-14.891-1.3713 2.1402 4.1944 5.9145 6.9767 10.039 7.2283 6.5153 0.39633 10.92-4.8377 11.926-12.374 0.50334-3.8326-0.9631-7.033-1.2722-10.403-0.0396-0.57468-0.0396-1.1454-0.0139-1.7042-2.3503 5.9002 1.1335 13.66-5.7885 18.624"/>
   <path d="m-555.26-342.37c6.3897 0.54694 13.408-4.8797 14.234-14.653 0.19817-2.2512 0.23781-4.3625 0.19817-6.3616-1.621 7.3262-13.884 20.008-25.964 10.948 1.7042 5.6486 5.9842 9.5917 11.521 10.067"/>
   <path d="m-572.65-317.18c3.2143 5.8166 8.5846 9.6753 15.296 8.4169-1.621 0.81248-4.1667 1.6646-4.9498 1.8311 7.2707 4.6839 25.866 2.378 26.719-8.5152 0.0793-1.1058-0.0139-2.1957-0.27744-3.242-6.7393 11.577-27.544 9.0043-36.772 1.51"/>
  </g>
  <g fill="#0f141b">
   <path d="m-546.14-379.09c-1.189-6.0263-4.8095-10.472-7.7178-12.262-1.9579-1.2167-1.9143-0.60243-1.5378 0.9512 1.9698 8.0678 1.5378 15.17-1.6765 21.434-0.58657 1.1613 0.1189 1.6091 0.7689 0.432 3.9158-7.0888 4.0545-13.548 2.1125-21.784 2.489 1.7756 7.746 7.8157 7.0468 15.855z"/>
   <path d="m-553.79-379.29c-0.57468-1.7201-1.4823-2.7387-2.0411-3.3966-1.1613-1.3713-1.4268-1.3436-1.4268 0.7134 0 9.4236-5.5645 13.576-6.767 18.302l1.078 2.1125c-0.58658-4.5999 6.5292-9.3119 6.7531-19.84 0.69754 1.0067 1.5378 2.7704 1.8865 5.5788z"/>
   <path d="m-568.11-359.27c0.11889-2.2234-0.23781-5.0755-0.9631-7.075-0.72529-2.0411-0.57468-2.0292 1.078-1.2564 3.4243 1.6091 5.7885 5.2435 5.8443 6.4737 0.0397 1.2326-0.58657 1.0344-0.9076-0.0396-0.53109-1.732-2.8814-4.1247-4.8935-5.257 0.72529 2.1402 1.1454 4.9776 1.0225 7.3124-0.44786 8.7245 4.502 15.506 11.731 16.121 6.6973 0.57468 12.821-5.4246 13.562-14.079 0.99083-11.633-1.5259-20.036-3.8603-23.769-0.0793 2.2631-0.2378 4.8797-1.2286 6.7952-0.7134 1.3832-1.3991 1.2286-1.0067-0.19818 0.63018-2.2234 1.0899-5.2154 1.1177-7.4943 0.0281-1.8588 0.42011-2.3503 1.8033-0.3567 2.6158 3.7176 5.0196 12.5 4.4322 25.125-0.50334 10.402-8.3749 16.023-14.947 15.464-7.1586-0.60243-13.437-6.9489-12.779-17.771"/>
   <path d="m-567.96-326.89c-0.55883-0.44786-0.93535-1.3-1.1177-2.0847 9.9413 4.5301 13.045-0.11889 20.987 1.2009 7.2426 1.1454 12.346 6.4313 11.884 12.29-0.76889 9.8152-16.988 12.192-24.468 8.7245 1.4664-0.4756 3.4402-1.2445 4.4881-1.9856 1.4268-1.0067 0.74114-1.8311-0.7134-0.92346-1.0622 0.66981-3.5789 1.7756-4.9074 2.1679-1.3555 0.39633-1.4823 0.55883-0.31706 1.2722 7.7039 4.7956 26.943 2.1957 27.838-9.2144 0.51919-6.5153-5.6906-12.318-13.59-13.576-8.459-1.3713-11.116 3.4798-20.693-0.9631-1.5219-0.69754-1.9698-0.55882-1.8192 0.68566 0.0397 0.44786 0.45974 1.0225 0.61432 1.4823z"/>
   <path d="m-570.49-319.09c-2.7823-2.1679-5.3691-8.6127-5.9561-12.136-0.50334-3.0637-0.68566-3.8326 1.732-1.078 2.2948 2.6436 7.5779 5.9561 12.849 6.6691 1.2009 0.15854 1.1335 0.9512-0.0793 0.84023-6.32-0.60243-10.584-3.678-13.423-6.5716 0.65791 3.1865 3.1469 9.1442 5.425 11.116 0.61432 0.53109 0.0281 1.621-0.55883 1.1613"/>
   <path d="m-575.34-329.2c-0.0281 9.8152 6.5153 21.504 18.092 19.784l-2.0847 1.5259c-12.108 0.68566-18.316-14.275-17.114-24.622z"/>
   <path d="m-533.39-347.4c-1.51-6.7254 2.9091-16.205 5.4948-18.274 1.3713-1.1058 1.5536-0.65791 1.3 0.65791-0.48749 2.5048 0.31707 6.7393 1.7042 8.3191 0.69755 0.79663 0.2378 1.3555-0.58657 0.66981-2.0689-1.7637-2.3622-5.425-2.2234-8.1375-3.2301 3.2698-5.509 11.521-4.2923 16.526 1.3991 5.7746 5.8443 10.025 10.794 10.319 5.8443 0.3567 10.263-4.2923 11.255-11.829 0.45974-3.4679-0.97894-7.1863-1.2603-10.248-0.57468-6.1939 3.3015-11.423 9.9547-13.674-3.8722-1.5536-11.269-1.0503-14.834 4.2364-0.9512 1.3991-2.0134 0.86798-1.1454-0.54694 4.3482-7.0468 13.954-6.2775 16.932-4.4742 1.6646 0.99083 1.6091 1.0899-0.1189 1.6369-6.3758 1.9698-10.053 6.9909-9.5354 12.709 0.27743 2.8377 2.0847 6.7393 1.5814 10.542-1.0899 8.235-6.4317 13.562-12.989 13.157-5.6628-0.3567-10.514-4.8654-12.024-11.591"/>
   <path d="m-512.77-372.59c0.4756-0.50334 0.78474-1.1732 1.2722-1.5814 1.0503-0.87986 1.5933-1.2009-0.31707-1.4545-4.6423-0.61433-12.947 4.8238-15.17 13.59l0.64206 3.4402c0.82437-9.2421 9.298-15.953 13.772-15.953-1.8033 1.621-3.6344 3.9435-3.9847 4.9494z"/>
  </g>
  <path d="m-426.15-253.03c0.51523-1.5378 0.89571-4.0268-0.15854-5.9981-0.23781-0.47561-0.53109-0.97895-0.82438-1.4664 0.84023-2.4057 0.4756-6.8792 0-8.0115-0.31707-0.74115-0.68566-1.5259-1.1177-2.3344 1.0225-2.3899 1.6487-6.1939-1.5378-11.269-0.1189-0.19817-0.27743-0.39633-0.42011-0.60243 0.78475-3.2975 0.0793-7.8018-2.1521-10.374-0.64206-0.74114-1.3832-1.4981-2.2076-2.2512 0.69755-2.5881-0.0793-5.2708-1.189-7.0884-0.61432-1.0067-1.4823-1.9579-2.5603-2.8814-0.51524-1.7756-1.9579-5.1872-5.1595-7.7737-0.60243-0.48749-1.2445-0.92346-1.9302-1.3277 0.15854-2.7426-2.8655-6.6556-6.641-7.5502-0.15854-0.0281-0.3567-0.0793-0.51919-0.11889-0.84023-1.6488-4.4742-4.5717-6.8233-5.173-0.66981-0.15854-1.3277-0.31707-1.9856-0.44786-0.89572-2.1244-4.0268-4.7259-7.9838-5.1872-0.2378-0.0281-0.432-0.0281-0.65791-0.0396-1.7597-2.3225-5.6763-3.6621-8.4169-3.789-1.078-1.1454-3.3134-2.3344-5.8305-2.7387-1.2881-0.19817-2.5603-0.27744-3.789-0.23781-1.8192-1.0067-6.1658-2.8655-10.277-1.9698-2.8259 0.60243-5.4948 1.9579-8.0955 3.7335-3.0478-0.43201-5.7326-0.0793-8.4031 0.57468-2.7387-1.2009-4.8515-4.7536-5.0053-7.0888-0.19817-2.6713-2.4057-2.7268-2.8813 0.3567-0.53109 3.5076 0.19817 6.6132 2.2076 8.2489-4.2225 1.1058-8.9762 1.9856-15.464 0.86797-10.375-1.7914-14.527-5.0335-17.184-11.871-1.2722-3.3015-2.921-1.8311-2.5167 0.48749 1.4823 8.4447 10.487 14.163 19.267 15.715 10.78 1.9024 20.064-3.0637 24.622-3.1033-6.5573 5.6347-13.101 12.556-21.238 15.31-1.7201 0.57468-7.3682 1.7042-8.1233 1.7478-2.0292 0.0793-1.9579 2.3225-0.44786 2.7704 3.1588 0.93535 7.5363-0.0396 9.8711-0.85211 9.2279-3.2143 17.393-11.968 26.258-18.19 1.2722 1.4268 4.1805 2.0847 6.3334 1.8192 0.2378-0.0281 0.68566-0.15854 1.2167-0.31707 0.85212 1.7042 3.131 2.2789 4.6981 2.2948 1.5933 0.0281 3.1588-0.19817 4.7259-0.50334 0.0793 3.0082 5.9843 4.0826 8.2632 2.9646 0.2378 3.2579 3.1865 4.3482 4.9494 4.0545 0.39633 1.2445 1.2167 2.1521 2.9923 2.8813 0.55883 0.23781 1.5378 0.3567 2.8259 0.48749l0.0139 0.0281c-0.75304 2.2789 1.8747 5.299 4.6141 5.5229 0.39633 0.0278 0.74114 0.0793 1.1177 0.11889-0.15854 2.1244 3.0914 5.1452 5.2574 5.7885 0.31707 0.0793 0.61433 0.19817 0.93535 0.31707-0.15854 2.699 1.4109 4.8935 4.7116 7.5922 0.47561 0.39633 1.0622 0.78475 1.732 1.189-0.44786 1.6765 0.58657 5.1036 3.7454 7.1309 0.15854 0.11889 0.31707 0.2378 0.48749 0.31706-0.31706 0.97895-0.50334 2.4176-0.15852 3.6344 0.44785 1.6091 2.057 3.9709 4.2087 6.7531-0.31707 1.3713-0.54694 3.2856-0.47561 4.544 0.0396 1.0899 0.39633 2.2948 0.87987 3.5512-0.42011 1.0344-0.89572 2.8378-0.92347 3.8722-0.0281 1.3555 0.7253 3.4957 1.9698 5.9561-0.69754 1.6765-0.93534 4.4322-0.31706 6.0683 0.58657 1.6091 1.5933 3.6344 2.7704 5.6767-0.86796 4.3062 0.64206 11.479 3.2143 14.121l11.116-12.22c-0.31707-1.2722-0.87987-2.6158-1.5933-3.6899" fill="#424041"/>
  <path d="m-506.42-337.95c-3.0478-0.432-5.7326-0.0396-8.4169 0.57468-1.3277 0.27744-4.4881 1.2009-5.6624 1.5259-3.2698 0.86797-6.8792 1.5814-11.353 1.3436-1.8311 0.85211-4.1528 2.3344-5.8582 3.5947 0.43201 0.0793 0.87986 0.19817 1.3158 0.27743 10.766 1.9024 20.05-3.0637 24.608-3.1033 1.7478-1.3713 3.9435-3.4679 5.3691-4.1944" fill="#333133"/>
  <path d="m-430.23-256.99c-4.4742-49.468-33.738-73.279-69.462-79.5-0.87986 0.31707-4.7818 2.7109-5.7603 3.5076 1.2603 1.4268 4.1663 2.0847 6.3195 1.8192 0.27744-0.0278 0.68566-0.15854 1.2286-0.31706 0.85211 1.6923 3.1192 2.2631 4.6839 2.2789 1.5933 0.0278 3.1588-0.19817 4.7259-0.50335 0.0793 3.0042 5.9843 4.0826 8.2774 2.9765 0.2378 3.242 3.1746 4.3482 4.9355 4.0545 0.39633 1.2286 1.2286 2.1521 2.9923 2.8655 0.55883 0.2378 1.5378 0.39633 2.8259 0.50334l0.0139 0.0142c-0.75304 2.2948 1.8747 5.3129 4.628 5.5225 0.39633 0.0396 0.74115 0.0793 1.1058 0.11889-0.15852 2.1244 3.1033 5.1456 5.257 5.8027 0.31707 0.0793 0.63018 0.19817 0.9512 0.27744-0.15854 2.7109 1.3991 4.9074 4.6981 7.5918 0.48749 0.39633 1.078 0.78475 1.7478 1.2009-0.45975 1.6646 0.57468 5.0893 3.7335 7.1308 0.15854 0.0793 0.31707 0.19817 0.49146 0.31707-0.3567 0.99083-0.50334 2.4335-0.15854 3.6502 0.44786 1.5933 2.057 3.9554 4.2083 6.7393-0.31706 1.3713-0.53109 3.2856-0.4756 4.544 0.0793 1.0899 0.39633 2.2948 0.87986 3.5512-0.40426 1.0503-0.89572 2.8377-0.92346 3.888-0.0278 1.3436 0.72529 3.4798 1.9698 5.9422-0.69755 1.6765-0.93535 4.4322-0.31707 6.0679 0.58657 1.621 1.6091 3.6344 2.7704 5.6767-0.86797 4.3066 0.65791 11.479 3.2301 14.122l11.116-12.22c-0.31706-1.2722-0.89571-2.6158-1.6091-3.6899-2.0689-2.2076-2.5326-2.5167-4.0688-3.9554" fill="#333133"/>
  <g fill="#282121">
   <path d="m-364.07-92.752-13.073-1.8033c-0.27742 1.5219-0.93534 8.8644-0.79663 9.34 0.65793 2.3503 17.044 4.6978 17.98 2.4612 0.3567-0.84023-3.131-8.8926-4.1108-9.9971"/>
   <path d="m-509.9-90.592c1.1732 3.3966 20.707 5.6624 22.524 2.9765 0.74115-1.0899 3.6899-10.724 3.8999-12.276l-19.826-2.3344c-3.0478 3.4798-6.9905 10.472-6.5994 11.633"/>
   <path d="m-283.48-57.982-13.898-0.72529c-1.1732 3.4243-2.0134 9.4656-1.2286 10.486 2.4058 3.131 17.771 4.2646 18.177 2.0966 0.44784-2.3899-0.35671-7.872-3.0478-11.857"/>
  </g>
  <path d="m-279.11-90.962c1.0067-1.6488 18.526-26.817 20.357-30.117 2.2076-3.999 6.6275-17.659 7.2846-22.623l-40.254 29.935c0.68565 3.0756 0.40426 14.597 0.23779 17.645-0.64206 10.878-6.7111 22.231-6.8792 24.985-0.15854 2.7545-0.11891 11.619 0.68566 12.877 0.84023 1.3277 14.345 2.921 15.436 0.58657 1.1058-2.3344-0.85212-19.364-0.27743-21.462 0.57468-2.1124 2.4176-10.179 3.4243-11.829" fill="#424041"/>
  <path d="m-279.11-90.962c1.0067-1.6488 18.526-26.817 20.357-30.117 2.2076-3.999 6.6275-17.659 7.2846-22.623l-40.254 29.935c0.68565 3.0756 0.40426 14.597 0.23779 17.645-0.64206 10.878-6.7111 22.231-6.8792 24.985-0.0278 0.47559-0.0396 1.1176-0.0396 1.8865 4.7402-3.4957 10.71-5.1591 15.897-5.1872-0.1189-2.3225-0.15853-4.1104 0-4.6978 0.57469-2.1125 2.4176-10.179 3.4243-11.829" fill="#333133"/>
  <path d="m-357.62-153.88c5.0473 2.3066 15.869 4.9217 19.812 5.4528l48.461-152.53c-22.678-9.8711-61.729 14.415-83.807 29.39-8.99 6.1099-31.543 7.2846-39.289 10.137-5.8586 2.1521-26.579 20.19-30.117 36.492-3.9435 18.12-14.723 44.085-24.552 53.886-5.0897 5.0893-6.7813 11.06-9.7593 21.336-6.138 21.112-23.518 35.066-27.502 45.175-2.0966 5.2712 16.932 7.2985 21.085 5.1595 3.8444-1.9698 6.8792-24.58 19.84-41.61 2.699-3.5353 8.7808-9.6892 11.298-11.116 9.2279-5.2292 27.055-20.861 36.926-29.781 4.9217-4.4465 13.241-5.7326 17.981-4.4322 0.53109 0.42011 1.0622 0.84022 1.6091 1.2722 5.173 9.6753 0.68566 30.9-2.4612 44.714-1.2603 5.4528-1.1335 7.4804 3.3688 10.906 7.3821 5.6347 12.22 24.51 15.827 34.046 1.3436 3.5234 16.079 4.4742 16.303 2.7387 0.57468-4.2927-2.0411-5.9145-6.1939-11.675-0.71341-0.99083-8.8926-25.839-8.8644-27.516 0.0793-6.1099 7.3544-20.819 12.206-27.502 3.2698 2.6436 6.0124 4.628 7.83 5.4528" fill="#424041"/>
  <path d="m-357.62-153.88c5.0473 2.3066 15.869 4.9217 19.812 5.4528l20.679-65.099c-5.3129-2.7268-9.4375-4.4041-11.716-4.628-13.227-1.2564-27.195 25.671-32.983 24.412-5.7885-1.2722-43.861-24.664-51.411-35.08-4.3902-6.054-4.1528-19.183-2.378-30.858-8.0535 5.3271-23.895 20.679-26.943 34.745-1.9024 8.7249-5.3826 19.253-9.5774 28.928 7.1027 8.1375 14.303 19.001 17.002 31.403 7.2287-5.9561 14.681-12.555 19.91-17.281 4.9213-4.4465 13.241-5.7326 17.98-4.4322 0.53109 0.42011 1.0622 0.84022 1.6091 1.2722 5.1733 9.6753 0.68566 30.9-2.4612 44.714-1.2603 5.4528-1.1335 7.4804 3.3688 10.906 4.8654 3.7176 8.6405 13.213 11.675 21.979 3.3847-2.4612 7.7317-3.9554 11.716-3.8444-2.6277-7.788-6.3334-19.406-6.3196-20.539 0.0793-6.1099 7.3544-20.819 12.206-27.502 3.2698 2.6436 6.0124 4.628 7.83 5.4528" fill="#333133"/>
  <path d="m-294.66-304.03c-24.174-5.4389-63.226 20.246-79.053 31.333-8.1514 5.7187-33.389 7.5363-39.736 9.8715-4.1667 1.5259-27.027 20.259-30.76 37.471-3.9158 18.036-14.023 43.33-23.755 53.033-5.5927 5.5927-7.6758 13.408-10.277 22.329-6.0821 20.973-23.14 34.521-27.642 44.951-3.0319 7.0468 19.197 9.256 23.629 6.9771 4.1948-2.1521 6.4876-24.79 19.714-42.169 2.5999-3.4124 8.9484-9.5215 11.367-10.892 9.3816-5.3133 26.999-20.945 36.8-29.809 5.5229-4.9918 16.526-6.0964 19.952-3.6066l-3.9847-2.6713c-3.7057-0.60243-11.787-0.0793-17.239 4.8654-7.872 7.117-27.195 24.245-36.814 29.697-2.5881 1.4664-8.7526 7.6901-11.479 11.284-12.961 17.016-16.177 39.666-19.63 41.442-3.8048 1.942-21.951-0.0281-20.217-4.3902 3.7057-9.382 21.448-24.3 27.516-45.217 2.1798-7.522 4.2087-15.673 9.6056-21.056 9.885-9.8711 20.763-36.003 24.72-54.207 3.4679-15.981 23.965-33.934 29.725-36.045 6.8788-2.5167 30.424-4.0965 39.415-10.193 13.437-9.1165 52.166-35.402 77.207-31.096z" fill="#0f141b"/>
  <path d="m-341.71-114.02c-0.40426-0.53109-2.5167-1.3991-2.8932-1.3277-1.8033 0.3567-9.6333 13.898-9.2001 17.044 0.27743 2.2234 4.0688 8.9623 6.4737 9.4799 2.3899 0.51524 8.1653-1.4387 8.5989-3.4243z" fill="#282121"/>
  <path d="m-341.71-114.02c-0.40426-0.53109-2.5167-1.3991-2.8932-1.3277-1.0225 0.19816-3.9277 4.5578-6.222 8.9064 3.2579-1.3991 6.935-2.1244 9.8992-1.8588z" fill="#201718"/>
  <path d="m-300.94-150.74c-10.444-16.68-42.169-48.098-51.327-50.348-4.1246 6.4595-11.032 18.26-10.64 24.188 0.64206 9.7455 21.448 28.16 29.306 32.927-1.0622 2.1402-1.9302 4.0969-2.0966 4.712-0.39633 1.5259 4.0129 8.7526 3.8167 10.92-0.19817 2.1521-3.3015 9.1858-4.4322 10.319-1.1454 1.1454-3.1865 1.5655-5.4528 3.6502-5.6767 5.2292-6.7674 18.652 0.78078 22.623 1.7637 0.92346 9.9551-1.621 10.864-4.1246 1.7201-4.7259 7.7737-19.001 13.758-26.048 1.9698-2.3225 10.878-9.4795 13.087-11.968 2.0689-2.3067 2.8536-13.632 2.3344-16.848" fill="#424041"/>
  <path d="m-300.49-151.24c-1.5814-13.688-47.3-51.733-51.775-49.845-4.1246 6.4456-11.185 18.232-10.794 24.161 0.44786 6.935 11.283 18.288 20.231 25.964 5.3973-8.1934 17.072-15.017 24.496-13.954 1.6091 0.78473 14.918 11.968 17.841 13.674" fill="#333133"/>
  <path d="m-213.36-269.62c-9.1022-8.2493-21.714-11.871-24.049-24.091-1.7756 1.3158-3.2698 5.4809-3.2143 9.1442-5.4666-9.6194-6.138-17.114-4.362-28.299-3.7057 0.23781-9.6896 5.6624-9.5358 12.038-3.7335-8.501-5.7885-18.904-4.9914-29.362-3.1469 1.5933-6.4456 4.7818-9.0741 8.7943-5.1872 0.19817-11.367 5.7885-16.373 15.576-0.19817-4.4742-2.7387-11.871-5.8305-13.479 0.44786 5.6208-3.6225 16.219-7.1867 21.378-0.0397-2.4731 0.0396-7.1586 0.44786-8.1375-7.2565 3.7612-12.695 12.835-13.828 23-0.6698-7.4943-5.3687-15.576-9.6194-17.239 1.5219 4.4461 2.921 12.584 1.2009 16.75-1.9301 4.6981-8.8085 12.905-9.9829 27.88-1.4664-3.9158-3.2301-7.1447-4.544-7.48-1.1058 28.565-9.969 35.052-10.095 48.712-0.11889 13.618 4.8099 29.837 11.703 35.975 6.2359 5.5229 20.19 12.318 27.11 23.629 2.6158 2.0689 4.586 3.7335 4.6419 4.0826 0.51524 3.2143-0.27743 14.541-2.3225 16.848-0.11889 0.11889-0.19816 0.2378-0.31706 0.3567-1.5933 7.9699-5.0751 15.911-9.4375 20.889 3.1192-0.9076 7.8157-2.9765 11.815-5.2011-2.4731 3.5789-8.6829 10.403-12.08 12.5 15.604-3.9986 46.224-15.702 59.409-32.913 11.06-14.415 13.394-34.535 23.056-34.745l28.257-70.762c0.3567-5.8305-4.1246-19.798-10.794-25.838" fill="#282121"/>
  <path d="m-321.05-251.76c-1.3832 2.5009-2.6158 7.4661-2.9091 11.661-0.0793 1.0622 0.19817 0.58657 0.53109 0.15854 0.65791-0.8125 1.4981-1.8311 2.057-2.5167 0.1189-0.15854 0.27744-0.0793 0.23779 0.0793-0.9512 5.7044-0.78473 9.0043-0.43199 10.668 0.23779 1.1454 0.23779 1.3158 0.92345 0.1189 2.3503-4.1944 7.3821-11.032 10.025-13.548 0.81249-0.75304 0.60243-0.31707 0.54695 0.19817-0.19817 1.9143-0.15854 4.9213-0.0139 6.5994 0.1189 0.96309 0.1189 1.0067 0.49145 0.0139 2.4612-6.5015 6.5712-12.36 8.5707-14.527 0.39635-0.432 0.49146-0.48749 0.42012 0.15854-0.51523 4.0268-0.86796 7.6758-0.99083 12.024-0.0397 1.0344 0.27744 0.97895 0.60243 0.27744 1.0899-2.4612 2.8932-5.5649 4.0268-7.2704 0.27743-0.432 0.35671-0.27743 0.31707 0.1189-0.1189 1.4823-0.15853 3.9158 0.0793 5.1452 0.15854 0.79663 0.2378 0.0397 0.27743-0.0281 0.53109-2.2789 2.5009-9.2556 3.6344-12.094 0.3567-0.85212 0.19817-0.86798-0.42012-0.3567-1.189 0.99083-2.2234 2.4335-2.7268 3.3411-0.31706 0.54694-0.51919 0.71339-0.31706-0.1189 0.44786-1.8469 1.1454-4.5578 1.5655-6.1658 0.19817-0.69754 0.1189-0.78474-0.42011-0.42011-0.2378 0.15854-0.53109 0.3567-0.81249 0.58658-0.3567 0.27743-0.3567 0.15852-0.31707-0.1189 0.45975-2.1244 0.97895-4.8515 1.411-6.5435 0.31707-1.1732 0.19817-1.2167-0.74114-0.31707-3.032 2.8259-8.8505 9.4098-10.57 13.129-0.31707 0.7134-0.31707 0.4756-0.27744-0.0793 0.1189-1.4109 0.23781-2.699 0.43201-3.678 0.15853-0.85212 0.11889-0.92346-0.49146-0.27744-3.0756 3.2024-7.1867 8.3052-8.6968 10.43-0.31707 0.44786-0.42012 0.63018-0.54694-0.0278-0.42012-2.0015 0.0793-4.936 0.42011-7.0191 0.11891-0.84023 0.0139-0.7134-0.54693-0.27743-2.7387 2.1957-4.4461 4.8654-5.2431 6.5573-0.11889 0.2378-0.23779 0.19817-0.23779-0.0139 0.19816-2.2076 0.44786-4.3763 0.60243-5.6486 0.15852-1.2445 0.11889-1.2286-0.47561-0.19817" fill="#494242"/>
  <path d="m-267.04-225.35c-2.5444 5.1175-2.1243 30.019-2.0253 35.64 0.0142 0.92345-0.0793 0.82437-0.68566 0.27743-1.3555-1.1732-3.6344-3.9709-5.97-8.2073-0.40426-0.72926-0.50334-1.1177-0.69755-0.0793-0.27743 1.4981-0.3567 4.0965-0.1189 6.4595 0.0793 0.76888-0.0281 0.63016-0.50334 0.23779-4.4183-3.8167-12.053-13.311-15.436-19.756-0.42012-0.81248-0.44786-0.96308-0.757-0.0793-0.87986 2.5445-1.3713 7.4943-0.55884 11.535 0.19817 1.0067 0.0397 0.76889-0.47559 0.15854-4.4881-5.341-10.528-17.896-12.304-25.81-0.15854-0.81248-0.2378-0.97893-0.85212-0.0793-3.0914 4.6002-3.0478 11.102-3.0756 20.176 0 0.64206-0.0396 0.58657-0.40426 0.15853-1.3436-1.621-3.1469-5.3969-4.1243-7.8435-0.2378-0.55882-0.2378-0.61432-0.31706 0.0278-0.19817 1.6765-0.40426 5.0057-0.0793 9.0463 0.0793 0.9948 0.0793 1.0622-0.27742 0.0397-1.6924-5.2712-7.075-15.282-8.3753-20.595-0.2378-0.92346-0.2378-1.1454-0.72529 0.0397-0.86797 2.0966-2.0847 5.6486-2.8814 8.99-0.19817 0.82438-0.27744 1.1058-0.84023 0.2378-7.0048-11.129-7.1586-23.294-5.4948-33.472 0.15854-0.97895 0.31706-1.3158-0.51523-0.1189-0.54694 0.78475-1.1732 1.7478-1.7756 2.7545-2.9487 14.681-8.0115 20.903-8.1094 31.193-0.11891 13.632 4.8095 29.851 11.717 35.975 6.2217 5.5225 20.175 12.318 27.097 23.629 2.6158 2.0689 4.586 3.7335 4.6419 4.0826 0.19817 1.1612 0.19817 3.3569 0.0396 5.8166 1.3832-1.3991 2.6277-2.9091 3.3847-4.0969 0.57468-0.9076 0.9076-0.63017 1.2009-0.1189 1.1731 2.0689 2.3899 5.383 2.6436 7.4943 0.19817 1.4546 0.0396 1.4823 1.0067 0.31706 1.7042-2.1521 4.2646-6.9069 5.4112-9.256 0.27743-0.57469 0.47559-0.61432 0.42011 0.0396-0.15853 2.1521-0.89572 4.7259-1.4981 6.6834-0.15853 0.51524-0.0793 0.47561 0.40426 0.23781 1.3991-0.74115 2.3067-1.5933 2.9923-2.3067 0.39634-0.39633 0.68566-0.81248 0.31707 0.39634-0.48749 1.5259-1.7756 3.999-2.4335 5.2851-0.15853 0.31707-0.0793 0.4875 0.31706 0.19817 1.4982-1.0503 3.9277-2.8259 5.0192-3.9554 0.3567-0.39634 0.40427-0.35671 0.31707 0.15853-0.19816 1.2445-0.74115 2.7268-0.93535 3.5512-0.1189 0.46371-0.0278 0.61432 0.51524 0.39634 1.8588-0.78078 4.4045-3.1865 5.5931-4.3621 0.60242-0.61431 0.74114-0.89571 0.35669 0.27744-1.6646 5.1595-5.7187 13.115-8.3753 15.799-0.45975 0.47559-0.3567 0.97894 0.4756 0.81248 4.7679-0.99083 11.773-6.7531 14.793-9.214 0.92347-0.76889 0.9631-0.76889 0.48749 0.3567-2.1957 5.3271-12.709 16.485-18.959 21.616 12.821-5.8166 26.006-13.842 33.514-23.643 11.06-14.415 13.394-34.535 23.056-34.745l11.773-29.488c-22.049-11.129-43.371-21.56-47.985-22.846" fill="#201718"/>
  <g fill="#d42d36">
   <path d="m-315.64-255.97c1.1335-0.0793 3.7731 12.737 4.9637 14.205 1.5378 1.8866 9.9551 8.3472 11.787 10.235-6.5994-1.7597-14.849-5.0477-17.072-7.7602-2.267-2.7823-0.97895-16.61 0.31707-16.68"/>
   <path d="m-293.15-284.24c-1.9143 1.3 2.2353 19.519 5.7746 22.385 2.3225 1.9024 9.2421 4.3062 10.332 5.0473 1.1058 0.74115 4.5582 5.3549 6.4178 5.5507 0.44786-0.99083-2.5881-7.8577-5.3271-9.6194-1.9579-1.2722-9.2699-5.2431-9.8291-6.3195-3.1588-6.0683-6.4598-17.17-7.3686-17.044"/>
   <path d="m-264.4-297.6c-1.4546 2.7823-1.3555 12.514 2.1798 17.296 0.82438 1.1335 8.3753 5.2851 9.2699 6.3477 0.90761 1.0622 7.4107 7.3682 7.7741 7.2283 0.57469-1.6646-4.4742-9.6753-5.5788-10.668-1.1058-0.97895-7.8296-5.6486-8.319-6.4595-1.4268-2.3225-5.1314-11.143-5.3271-13.744"/>
   <path d="m-231.81-277.32c-0.7134 2.7823 5.8864 10.598 7.0048 11.591 1.1058 0.9948 3.6899 5.4532 5.2574 8.585 1.3555-2.3503-0.4875-8.9623-1.5259-10.221-1.3277-1.621-9.8152-9.0883-10.738-9.9551"/>
  </g>
  <path d="m-183.82-166.9c-2.5881 0.0396-15.562-3.8444-18.904-3.3015-5.7183 0.93535-5.1591 10.025-0.31706 14.485 11.046 3.7731 20.903 1.8866 25.713-8.99 0.78474-1.7597 0.79663-3.357 0.3567-5.1175-2.0847 1.4981-5.2431 2.8932-6.8649 2.921" fill="#282121"/>
  <path d="m-198.72-163.07c-1.7201-0.31707-4.4322-1.6091-7.746-3.8048-1.0899 3.3015 0.2378 8.2216 3.4243 11.158 9.9131 3.3847 18.833 2.2234 24.063-5.8725-6.096 1.0067-14.108-0.4875-19.742-1.4823" fill="#201718"/>
  <path d="m-111.89-200.79c-14.415-5.7746-35.011-24.119-47.776-26.495-4.628-0.86797-19.952-2.3225-25.181-2.267-2.057-2.6158-4.5582-4.3486-7.0052-4.8658l9.4938 29.432c0.432-1.0503 0.78474-2.0689 1.078-3.0914 7.9279-1.2167 24.133-0.31706 31.543 1.7478 6.2498 1.7478 23.965 6.3338 37.443 7.2145 3.1588 0.19817 2.9091-0.66981 0.40425-1.6765" fill="#8b8386"/>
  <path d="m-180.33-219.67c14.933-1.2881 21.112 0.31706 26.901 2.4058 1.2286 0.432 1.5536 0.19817 0.27743-0.54694-3.1588-1.8311-11.381-5.1452-28.299-5.2154-0.0793-0.63018-0.95121-2.6554-1.3832-3.5948-1.3158-0.92346-4.4045-1.2286-6.8514-1.0503l2.4731 7.4245c0.97895 2.1125 7.7598 2.5167 6.8649 0.57469" fill="#c4b5bb"/>
  <path d="m-111.89-200.79c-3.2856-1.3158-6.9069-3.3015-10.668-5.5788-3.8326-1.4664-7.6758-3.3134-7.8439-3.0756-0.2378 0.3567 1.1454 1.2167 2.9487 2.5009-1.3277-0.23781-11.717-5.6347-12.094-5.1314-0.46371 0.63017 14.052 10.011 29.571 12.597 0.0396-0.31706-0.64207-0.81248-1.9143-1.3158" fill="#c4b5bb"/>
  <path d="m-180.22-214.2c-0.44786 0.3567-2.5445 0.31707-5.0755 0.0793l2.9487 9.1304c0.42012-1.0344 0.78475-2.0689 1.078-3.0914 7.9136-1.2167 24.133-0.31706 31.529 1.7478 4.4322 1.2445 14.639 3.9158 24.999 5.6767-16.261-4.8797-21.769-8.2073-27.852-9.8854-7.2985-1.9856-25.922-3.1746-27.628-3.6502" fill="#7a7272"/>
  <path d="m-202.73-170.19c3.3411-0.54695 16.317 3.357 18.904 3.3014 1.621-0.0397 4.7818-1.4268 6.8649-2.921-0.90761-3.7731-3.8444-8.3329-5.6066-17.002-0.82436-3.9848-0.35669-10.668 0.27744-15.38 2.2234-16.792-8.1653-39.932-22.972-43.735-2.7545-0.69754-7.6762-0.3567-10.249 0.97895-4.2646-1.8033-9.7173-3.3411-11.871-2.9091-18.498 3.8048-26.943 16.163-28.62 35.919-1.0899 12.975-1.1613 18.372 2.378 22.217 2.6158 2.8259 11.898 7.2704 16.345 10.696 5.7603 4.4326 14.932 17.296 19.225 19.659 2.4058 1.3158 9.885 3.1865 14.499 3.4798 0.15853 0.0396 0.3567 0.1189 0.51524 0.15853-4.8377-4.4461-5.3969-13.534 0.31706-14.471" fill="#424041"/>
  <path d="m-240.89-198.08c-2.9091-3.8048-2.4176-27.754-0.93536-43.777-8.6547 6.2082-13.031 16.303-14.177 29.921-1.0899 12.975-1.1613 18.372 2.378 22.217 2.5999 2.8259 11.898 7.2708 16.345 10.696 5.7603 4.4322 14.918 17.295 19.225 19.658 2.3899 1.3 9.885 3.1865 14.499 3.4679 0.15853 0.0793 0.31707 0.1189 0.5192 0.19816-3.1865-2.9368-4.5162-7.872-3.4243-11.171-5.9842-3.9709-13.954-10.864-21.672-20.078-5.0755-6.0683-11.479-9.4518-12.751-11.116" fill="#333133"/>
  <g fill="#8b8386">
   <path d="m-198.58-236.59c1.1335 1.6765 0.69754 3.4243-0.19817 4.0268-0.75303 0.50334-2.5722 0.15852-3.7454-1.51-1.0503-1.4942-0.92346-3.2024 0.15853-3.9277 1.0899-0.72529 2.7823-0.0793 3.789 1.411"/>
   <path d="m-191.93-222.95c0.76889 1.8588 0.3567 4.0268-0.9948 4.5721-1.3277 0.55884-3.0478-0.57468-3.9277-2.5048-0.86796-1.9024-0.432-4.0268 0.89572-4.5721 1.3436-0.55882 3.2024 0.50336 4.0268 2.5048"/>
   <path d="m-185.89-203.1c0.0281 3.9277-2.5881 7.1308-5.8305 7.1447-3.2301 0.0139-5.8721-3.1469-5.9002-7.075-0.0139-3.9277 2.5722-7.0187 5.8166-7.0326 2.6832-0.0142 5.886 2.7942 5.9141 6.9628"/>
  </g>
  <g fill="#7a7272">
   <path d="m-198.77-232.56c0.31707-0.19817 0.65792-0.92346 0.79664-1.3832-1.6646 0.89571-3.6502 0.48749-5.2574-2.489-0.11891 1.078 0.42011 1.9579 0.71339 2.378 1.1732 1.6488 2.9923 2.0015 3.7454 1.4981"/>
   <path d="m-197.32-222.89c0.0793 1.1454 0.19816 1.4387 0.45974 1.9975 0.87986 1.9302 2.6 3.0637 3.9435 2.5167 0.58657-0.2378 1.3555-1.0503 1.3991-2.6277-1.2009 2.3503-4.5158 1.2286-5.8023-1.8866"/>
   <path d="m-197.31-205.31c-0.19817 0.71339-0.31707 1.4823-0.31707 2.2789 0.0278 3.9277 2.6713 7.1027 5.9141 7.075 1.6488 0 3.1469-0.85213 4.1948-2.1957-3.5948 1.8192-9.1442-1.2009-9.8014-7.1586"/>
  </g>
  <path d="m-179.49-165.53c0.11891 0.60243-0.69754 1.3555-2.3066 1.6646-1.8747 0.31708-2.8655-0.3567-2.9091-0.64206-0.15854-0.96308 1.1613-0.74114 2.6-1.1732 1.6487-0.50334 2.5009-0.432 2.6158 0.15854" fill="#494242"/>
  <g fill="#c4b5bb">
   <path d="m-199.56-236.48c0.15853 0.53109-0.0396 1.2286-0.48749 1.3713-0.45975 0.15854-1.0225-0.23779-1.2286-0.82437-0.19817-0.60244 0.0396-1.2168 0.51523-1.3713 0.44785-0.15854 1.0344 0.31707 1.2009 0.82438"/>
   <path d="m-193.1-223.11c0.19816 0.63018-0.0397 1.4664-0.57469 1.6369-0.54695 0.19816-1.2009-0.27743-1.4387-0.99084-0.23781-0.72529 0.0396-1.4545 0.58657-1.6369 0.51523-0.15853 1.2167 0.3567 1.4268 0.99083"/>
   <path d="m-187.28-206.02c0.39634 1.0503-0.0793 2.489-0.92346 2.81-0.92346 0.31706-2.0689-0.39634-2.5009-1.5933-0.44785-1.2167-0.0281-2.4454 0.87987-2.7823 0.86796-0.31706 2.1521 0.51524 2.5445 1.5655"/>
  </g>
  <g fill="#0f141b">
   <path d="m-201.61-154.88c-3.2024 0.27744-14.457-2.0292-16.862-3.3411-4.3902-2.4058-13.856-15.646-19.546-20.008-4.4183-3.4124-14.178-7.8577-16.75-10.654-3.7176-4.0406-3.5948-10.36-2.5009-23.335 1.7914-21.169 11.619-33.221 29.697-36.94 3.7612-0.76889 14.569 4.2784 15.911 5.383 1.2722 1.0503 0.48749 1.5655-0.57468 0.93536-3.9277-2.3503-12.374-4.9498-15.016-4.4045-17.449 3.5948-26.384 14.821-28.118 35.346-1.0622 12.598-1.1613 18.078 2.2076 21.742 2.5167 2.7268 12.024 7.3686 16.261 10.626 5.8725 4.5162 14.947 17.296 19.141 19.603 2.0411 1.1177 7.9976 2.6832 12.486 3.2301z"/>
   <path d="m-214.96-244.52c2.5048-1.1613 7.0607-1.4268 9.5354-0.79663 14.681 3.7731 24.65 26.817 22.497 43.036-0.31706 2.4176-1.2722 10.668-0.27743 15.59 2.5722 12.584 7.564 16.61 5.299 21.742-4.4041 9.927-13.632 12.863-25.992 8.277-0.79663-0.31706-5.8023-4.5578-9.7454-8.1094-1.5219-1.3713-6.3196-4.0965-9.2556-5.0612-0.87986-0.27743-1.078 0.50335-0.2378 0.89572 2.3344 1.0899 6.8649 3.8444 8.5426 5.3553 3.1865 2.8655 8.8926 7.9136 10.095 8.4031 10.137 4.0268 22.566 4.2364 28.495-9.1724 2.5881-5.8301-2.921-10.374-5.4809-22.888-0.76888-3.7454-0.0396-10.347 0.60244-15.212 2.1957-16.541-9.4518-40.939-24.021-44.672-3.1588-0.81248-8.8505-0.51524-12.108 1.621z"/>
   <path d="m-176.91-169.09c-2.1521 1.4664-5.2011 2.7823-6.9069 2.8259-2.2353 0.0397-15.813-3.8008-18.82-3.3134-5.5927 0.92346-4.2225 10.85 1.2603 14.373l-3.4402-1.189c-4.1805-5.0196-3.9554-13.702 1.942-14.667 3.4124-0.55883 16.806 3.4679 18.973 3.4124 1.4545-0.0281 5.1036-1.3832 6.7254-3.3292z"/>
   <path d="m-181.92-203.86c7.9136-15.883-1.0186-29.096-9.4375-31.753l1.7597 2.7109c6.1376 3.357 11.171 13.646 7.5359 25.265z"/>
   <path d="m-181.62-206.77c7.5783-1.2445 24.105-0.60243 31.627 1.5378 8.1237 2.3225 27.139 6.4456 37.667 7.1304 6.1796 0.40426 6.4595-1.1732 0.86798-3.4402-14.164-5.7326-35.891-24.678-48.111-26.943-4.9776-0.93534-21.476-2.5326-26.384-2.4176l1.7478 1.9698c5.6066 0.0793 19.896 1.411 24.426 2.267 12.402 2.3067 33.444 20.763 47.65 26.453 1.2009 0.4875 1.1613 0.55884-0.11889 0.4756-14.499-0.9512-33.626-6.1662-37.317-7.2006-7.5922-2.1244-23.42-2.9646-31.487-1.8033z"/>
   <path d="m-202.02-237.48c-0.86798 0.58657-0.74115 1.9856 0.0139 3.0478 1.0344 1.4664 2.489 1.6091 2.8814 1.3436 0.65791-0.432 0.89571-1.8469 0.0281-3.1469-0.92345-1.3713-2.2234-1.7201-2.921-1.2445m3.9554 0.54694c1.4268 2.1244 0.51921 4.2923-0.3567 4.8935-0.79663 0.53108-3.032 0.64205-4.6419-1.6369-1.1612-1.6369-1.078-3.888 0.35671-4.8519 1.0622-0.7134 3.3015-0.44786 4.6561 1.5933"/>
   <path d="m-192.51-222.71c-0.76888-1.8469-2.3344-2.5167-3.2024-2.1679-1.0226 0.43201-1.2445 2.2353-0.57469 3.7335 0.74114 1.621 2.1402 2.6 3.131 2.1957 0.96308-0.40427 1.3-2.1798 0.64206-3.7612m-5.0053 2.0966c-1.0344-2.2789-0.35671-4.7259 1.3277-5.425 1.8746-0.76889 4.0688 0.85212 4.8797 2.81 0.90761 2.1798 0.19817 4.7818-1.3713 5.4389-1.3991 0.57468-3.5512 0.0139-4.8376-2.8259"/>
   <path d="m-186.52-203.09c-0.0139-3.6899-2.6435-6.0263-4.8099-6.3057-2.489-0.31708-5.6906 1.9024-5.6624 6.3616 0.0281 3.5789 2.378 6.4737 5.2712 6.4595 2.8932-0.0139 5.215-2.9368 5.2011-6.5153m1.4387-0.0793c0.0278 4.2646-3.0478 7.83-6.6275 7.8577-3.2856 0.0142-6.6275-2.699-6.6552-7.6758-0.0281-4.502 2.7823-7.6762 6.5574-7.6901 2.699-0.0139 6.6972 2.5722 6.7254 7.5082"/>
   <path d="m-315.61-254.96c-0.87986 2.489-1.7201 13.003 0.11891 15.282 1.8033 2.2076 8.1653 4.9494 14.108 6.7952-0.85212-0.74114-1.8866-1.5814-2.9368-2.4454-2.921-2.4176-5.9561-4.9217-6.8653-6.0401-0.58657-0.72529-1.2722-3.0914-2.3344-6.893-0.63018-2.2512-1.5378-5.467-2.1125-6.6973m15.632 23.643c-7.033-1.8469-14.317-4.9217-16.47-7.5783-2.2512-2.7704-1.4664-14.08-0.27744-16.582 1.0067-2.0966 1.51-1.1613 2.057-0.2378 1.1732 1.9856 3.5512 12.402 4.4742 13.548 0.82438 1.0225 9.5215 8.1795 10.794 9.5076 1.4981 1.5536 1.51 1.8747-0.58658 1.3277"/>
   <path d="m-292.78-283.73m-0.19816 0.76889c-0.42012 4.0688 3.2856 18.428 5.9842 20.623 2.0847 1.6924 9.1577 4.2364 10.304 5.0053 0.92346 0.63018 3.678 4.0969 5.3969 5.1595-0.47561-1.9143-2.8378-6.7813-5.0053-8.1795-1.4268-0.92346-9.3539-5.2288-10.039-6.5435-2.2789-4.3763-5.2851-13.282-6.6414-16.065m21.126 31.795c-1.6646-0.84023-4.7116-4.5582-5.5368-5.1175-1.0344-0.69754-8.3052-3.3847-10.388-5.0755-3.8999-3.1588-7.0187-18.651-6.2221-22.413 0.27744-1.3 0.89572-1.4545 1.6924-0.31707 1.6091 2.2789 4.5721 11.787 7.075 16.597 0.60243 0.99083 8.5707 5.4108 9.6194 6.0821 2.8655 1.8469 5.3271 7.7039 5.5229 9.3535 0.19817 1.6369-0.0396 1.7478-1.7597 0.87986"/>
   <path d="m-264.46-295.05c-0.55884 3.8999 0.0396 10.752 2.7387 14.373 0.72529 0.99083 8.2913 5.1729 9.256 6.3057 0.74115 0.86797 4.586 4.6137 6.4876 6.2637-0.90761-2.5167-4.1524-7.8855-5.2011-8.8224-1.0622-0.9512-7.8018-5.5649-8.4312-6.5994-1.1335-1.8311-3.7057-7.7321-4.8515-11.521m19.463 27.726h0.0139zm-1.4704 0.19817c-2.1402-1.7637-6.0679-5.3969-6.9628-6.4456-1.0225-1.2009-8.3749-5.1175-9.298-6.3616-3.2143-4.3486-3.9277-12.682-2.6277-16.932 0.78473-2.5445 1.2167-2.5167 1.6091 0.0139 0.51919 3.3569 3.9277 10.57 5.2011 12.654 0.31708 0.44786 7.7602 5.9141 8.2077 6.3195 1.4664 1.3 4.9494 7.4804 5.4805 9.5219 0.69754 2.6832-0.1189 2.4612-1.6091 1.2286"/>
   <path d="m-231.04-275.77c1.0225 3.0756 5.5788 8.6266 6.6414 9.5774 1.0622 0.9512 3.1746 4.5162 4.67 7.3405 0.23781-2.6832-1.0622-7.1725-1.8311-8.1094-0.99084-1.2167-9.3539-8.6968-9.4795-8.8085m10.458 17.994c-1.6091-3.1033-3.7612-6.683-4.6561-7.48-1.1058-0.97894-7.1166-8.5291-7.1586-11.2-0.0396-2.3067 0.2378-1.9975 1.6765-0.7253 2.2076 2.0015 9.2283 8.3191 10.123 9.4236 1.3555 1.6369 2.489 8.0817 1.9975 9.7732-0.79664 2.7823-1.2168 1.6765-1.9856 0.19817"/>
   <path d="m-201.42-244.53c0.2378-7.4103-4.6419-20.078-11.116-25.936-9.1438-8.2913-20.385-10.78-24.007-22.944-0.48749-1.6487-0.57469-1.8865-2.0253-0.27743-1.4664 1.6487-2.7387 4.7398-2.9091 7.6338l1.621 3.0637c-0.55884-3.2975 0.61431-7.5082 2.0847-9.4518 2.921 11.591 15.17 15.296 23.992 23.28 5.8586 5.3129 10.235 17.421 10.584 23.881z"/>
   <path d="m-253.72-299.2c-1.2445-6.1099 3.9709-11.913 7.9695-12.919-3.0201 12.933 0.31707 24.216 9.3539 35.095 0.92347 1.1177 1.7914 0.40426 0.92347-0.78475-9.0459-12.57-11.017-21.63-8.6266-34.13 0.42012-2.1402 0.15854-2.3503-2.4335-1.5655-3.9847 1.2009-8.319 5.7044-8.8644 10.738z"/>
   <path d="m-246.56-287.38c-8.6548-7.746-15.506-25.307-13.66-41.694-4.6422 2.8655-10.039 9.5636-12.038 17.505-0.3567 1.4387-1.4387 1.2445-1.2009-0.19817 0.96309-6.0683 4.9213-13.828 12.639-18.666 1.942-1.2326 2.3503-0.74115 2.2353 1.1177-0.90761 15.366 4.0969 32.004 12.933 41.065 1.078 1.1058 0.27743 1.9143-0.90761 0.86796"/>
   <path d="m-268.94-320.74c-5.5229 0.54694-13.479 7.8018-19.085 23.336-0.54695 1.5378-1.5933 1.2286-1.1177-0.31707 4.4041-14.303 13.31-24.887 21.14-24.734z"/>
   <path d="m-284.11-307.56c-0.8957-5.1591-2.7981-9.3678-5.3969-11.703-1.8747-1.7042-2.0847-1.5933-2.0966 0.86797-0.0793 7.3964-5.2292 19.491-8.9346 22.553-0.78473 0.64206-0.54694 1.51 0.44786 0.9631 3.8722-2.0966 9.6753-14.625 9.9412-23.154 2.7109 2.6277 4.7675 9.9131 4.5301 13.381z"/>
   <path d="m-297.05-299.1c0-2.057 0.15854-5.0196 0.35671-6.4036 0.23779-1.6487-0.2378-2.0689-2.2948-0.79662-8.7665 5.4108-13.437 17.03-13.115 24.804 0.0396 1.3277 0.97894 1.4664 1.0503 0.15854 0.60243-9.9829 5.7607-19.225 12.668-23.489-0.2378 2.1679-0.27743 5.8582-0.19817 7.6199z"/>
   <path d="m-310.86-285.96c-1.1177-6.3338-4.8377-12.08-8.6686-14.457-2.168-1.3436-2.3622-0.27743-1.9579 1.0622 1.3555 4.4881 2.1244 11.745 0.60242 15.464-2.4612 5.9561-8.2774 12.206-9.7173 26.565l1.3832 2.6277c0.93535-15.352 7.8997-23.461 10.011-28.607 1.5933-3.8722 0.63016-10.99-0.71341-15.688 3.5393 2.489 7.6061 9.3678 8.1653 17.911z"/>
   <path d="m-302.94-133.84c-1.4268 7.4103-4.4465 14.821-8.2493 19.91 4.5721-1.6488 11.129-4.8238 14.695-7.5502 1.2286-0.93534 1.8192-0.2378 0.64207 0.82438-5.3133 4.712-14.807 8.1653-16.247 8.4728-2.0689 0.44786-2.2789-0.15854-1.2009-1.5655 3.7057-4.8658 6.6695-11.465 8.2913-18.162z"/>
   <path d="m-304.78-154.72c-6.8931-11.675-21.364-18.764-27.502-24.203-6.4733-5.7464-11.619-21.672-11.493-35.5 0.1189-12.891 8.7665-20.19 10.039-47.594 1.9975 2.1125 5.0334 9.5358 5.9422 15.31 0.19816 1.2009 0.96309 1.3277 0.97894 0.0396 0.0793-5.1595-3.6344-14.485-6.0679-16.596-2.2353-1.9579-2.3066-1.8192-2.4454 0.99083-1.2722 27.181-10.305 34.199-10.43 47.65-0.15854 14.387 4.9356 30.634 11.758 36.688 5.8166 5.1595 18.959 11.409 26.188 21.448z"/>
   <path d="m-300.05-118.5c-1.5655 2.6436-6.4456 8.3191-10.319 11.703 15.562-4.4738 43.609-15.701 55.983-31.85 10.906-14.22 13.157-33.459 22.553-34.913l1.4664 1.3c-9.0182 0.19817-11.535 20.777-22.511 35.094-13.059 17.03-43.679 29.32-58.905 32.06-3.1588 0.57469-2.0847-0.50334-0.63016-1.6487 3.0478-2.3622 6.5157-6.9628 8.9484-10.151z"/>
   <path d="m-231.41-173.32c-6.3477-0.60243-16.764 1.9143-23.224 9.13-0.60243 0.66981-1.2168 0.0396-0.65793-0.6698 3.9705-4.9494 12.835-10.57 22.161-10.332z"/>
   <path d="m-290.97-113.11c0.53109 3.9554 0.27743 14.163 0.0793 17.03-0.66979 11.325-6.6972 22.133-6.8788 24.986-0.19817 3.3015-0.0397 11.521 0.58657 12.513 1.1177 1.1177 13.534 2.3225 14.345 0.64206 0.9512-2.0134-0.93536-19.099-0.31708-21.364 0.42012-1.51 2.3899-10.179 3.4957-11.982 0.35671-0.58658 19.155-27.964 20.343-30.103 1.7478-3.1469 4.8797-12.458 6.404-18.54l2.6832-3.2579c-1.0344 5.6763-5.1595 18.805-7.2985 22.678-1.2168 2.1798-20.315 29.376-20.665 29.921-0.99084 1.621-2.9923 10.375-3.357 11.717-0.61432 2.2076 1.5378 19.379 0.31706 21.951-1.399 2.9368-16.387 0.92346-17.435-0.74114-1.0344-1.6369-1.0226-12.053-0.92347-13.674 0.19817-3.0201 6.5292-14.163 7.1586-24.762 0.19817-3.0082 0.0793-12.108-0.3567-16.093z"/>
   <path d="m-282.12-57.622c2.378 4.0268 3.2143 9.8152 2.7704 12.192-0.58657 3.1746-17.827 1.1177-20.231-2.0134-1.0503-1.3713 0.15854-8.0813 1.1612-11.255l1.4387 0.85211c-1.1335 3.678-1.5814 8.5846-1.1177 9.2417 2.2234 2.8932 16.093 3.7335 17.072 2.3225 0.39633-2.0689-0.31707-6.8649-2.4731-10.57z"/>
   <path d="m-360.67-172.03c4.9217 9.9131 20.903 23.629 27.488 27.572l-0.79664 1.4387c-11.423-6.8649-24.538-20.288-27.782-28.704-0.71339-1.8311 0.0793-2.3067 1.0899-0.31706"/>
   <path d="m-362.1-179.35c0.93535-6.2078 6.7254-15.841 9.7875-20.707 0.75304-1.189-0.0142-1.621-0.87986-0.53109-5.6208 7.0607-9.8434 16.317-10.081 20.945-0.1189 2.0134 0.81249 2.6832 1.1732 0.27744"/>
   <path d="m-301.52-150.51m-39.96 59.786c-7.8438-4.1385-7.1308-18.638-1.0067-24.272 2.2234-2.057 4.4179-2.7268 5.4108-3.7057 1.0067-1.0067 4.0406-7.6762 4.2226-9.7034 0.1189-1.732-4.3204-9.1442-3.8603-10.92 0.90761-3.4243 4.7956-9.8572 6.8233-11.577 1.078-0.9076 1.4664-0.15853 0.57468 0.68566-1.5933 1.4942-5.2292 9.0602-5.7746 11.116-0.27744 1.1335 4.0268 8.6127 3.8326 10.808-0.19817 2.1957-3.3015 9.3959-4.6141 10.724-1.2445 1.2326-3.3292 1.6923-5.4666 3.6621-5.6347 5.1872-6.2359 17.98 0.64206 21.602 1.4387 0.75303 9.1997-1.621 9.9829-3.7731 1.6369-4.502 7.6758-18.973 13.87-26.258 2.2234-2.6 11.199-9.8295 13.101-11.968 1.8033-2.0134 2.6832-12.905 2.1957-16.247-0.87986-1.2168-13.492-10.668-16.624-13.52-0.96309-0.87987-0.65791-1.4823 0.53109-0.63018 12.654 9.1022 17.701 12.877 17.855 13.814 0.51919 3.2698-0.23781 15.086-2.5009 17.603-1.6488 1.8588-11.8 9.7875-13.548 11.842-5.6208 6.6136-11.367 20.609-13.395 26.202-1.0503 2.8813-10.095 5.6486-12.248 4.5162"/>
   <path d="m-341.23-114.83c-0.79664-0.63016-2.921-1.6091-3.5234-1.4981-2.4176 0.45975-10.584 14.821-10.151 17.995 0.31706 2.267 4.4738 9.9551 7.3262 10.57 2.5167 0.54695 8.7665-1.8033 9.8711-4.0267l-2.3344 0.31706c-1.621 1.3-5.5645 2.378-7.1586 2.0292-1.9579-0.42012-5.6767-6.6552-5.9842-8.948-0.40427-2.9923 7.033-15.534 8.6686-16.331 0.4756 0.0793 2.057 0.78473 2.3067 1.078z"/>
   <path d="m-402.59-190.62c16.61 9.7312 37.96 32.857 45.231 36.171 3.9277 1.8033 11.241 3.7454 16.135 4.7675l2.9923 2.4612c-4.6419-0.81248-15.17-3.2975-19.854-5.4389-8.8501-4.0268-27.502-25.279-45.133-36.968-1.5536-1.0344-1.2167-2.0689 0.63018-0.99083"/>
   <path d="m-411.02-194.55c-6.0821-2.6158-14.024-11.647-16.848-19.337-0.53109-1.4546-1.3-1.1454-0.96309 0.3567 1.8747 8.1796 10.053 17.519 17.519 19.798 1.3832 0.43201 2.1679-0.0139 0.27744-0.82437"/>
   <path d="m-421.83-208.94c-2.9487-3.9277-6.8792-12.192-5.341-16.764 0.39633-1.189 1.1613-1.0503 0.96309 0.11891-0.71339 4.2784 3.7454 13.716 5.2011 16.065 0.51524 0.85213-0.15852 1.4387-0.82437 0.57469"/>
   <path d="m-394.62-184.43c4.1667 9.3119 1.0067 27.278-2.8655 44.238-1.2326 5.3549-1.078 7.0607 3.131 10.277 7.5224 5.7464 13.017 26.342 16.037 34.311 1.078 2.8536 13.506 3.8603 15.114 2.7823 0.45975-3.8999-2.168-5.6628-6.096-11.116-0.61432-0.85212-9.0182-25.88-8.9762-27.894 0.0793-6.2779 7.5082-21.252 12.36-27.936l1.51 1.0622c-4.7398 6.5296-12.192 20.665-12.29 26.733 0.0139 1.4664 7.7598 25.545 8.7245 27.111 4.0688 5.6347 7.075 7.8018 6.446 12.513-0.42012 3.2301-16.974 1.411-18.442-2.4454-3.3847-8.9346-8.2212-28.299-15.52-33.878-4.8519-3.7057-5.0196-6.6275-3.7771-12.066 2.7981-12.262 8.1934-37.276 1.1613-46.028z"/>
   <path d="m-376.65-93.642c-0.27744 2.3344-0.74115 7.7321-0.66981 8.3191 0.58659 1.6487 15.226 3.8722 16.75 2.3502-0.0397-1.0622-2.5167-7.0191-3.6621-8.9064l1.5536-0.44785c1.3436 2.4335 4.5158 8.9203 4.0406 10.039-1.4109 3.3688-19.756 0.51919-20.651-2.6554-0.15852-0.61433 0.7689-7.7182 1.0503-9.7732z"/>
   <path d="m-482.19-100.13c-0.19818 1.5655-3.4402 12.402-4.2923 13.646-1.942 2.8932-23.14 1.2564-25-4.1246-0.53109-1.5655 4.3343-8.8224 7.1586-12.206l1.1732 1.3832c-3.0201 3.6066-6.2775 9.6476-6.1519 10.654 0.9512 2.7387 19.868 5.0893 21.406 2.81 0.57468-0.84023 2.8655-8.1514 3.5948-11.046z"/>
   <path d="m-436.19-238.86c-1.7201-2.9487-2.7109-8.2354-2.1679-11.787l-1.1454-1.8588c-1.1335 3.1746-0.60243 10.948 2.2234 15.058z"/>
   <path d="m-440.98-262.09c-0.47561 1.6091-0.54695 3.7454-0.0793 4.9637 1.4545 3.9554 5.7183 10.864 8.3472 13.632l-0.79663 1.1613c-2.7704-2.8378-7.5922-10.277-9.1303-14.485-0.69754-1.9302-0.15854-4.8939 0.58658-6.5716z"/>
   <path d="m-441.99-272.03c-0.31706 0.96309-0.65791 2.2789-0.6698 3.1033-0.0793 3.8603 7.1027 15.45 13.647 20.959l-0.9512 1.1335c-7.2426-6.0964-14.206-17.603-14.122-21.952 0.0278-1.2881 0.72529-4.0545 1.2445-5.0473z"/>
   <path d="m-442.29-280.25c-0.2378 1.2286-0.39633 2.7704-0.31707 3.8444 0.31707 6.18 9.6896 16.135 15.981 21.336 0.75699 0.63018 1.1613 1.7756 1.7359 2.9368l-0.92346 0.97894c-0.53109-1.189-1.2286-2.2076-1.9302-2.7823-6.8233-5.6347-15.953-15.646-16.317-22.371-0.0793-1.3713 0.1189-3.9554 0.55883-5.4666z"/>
   <path d="m-425.43-252.34c0.65791-1.3991 1.2009-4.7818-0.19817-7.3825-5.2292-9.8152-19.323-22.958-20.777-28.103-0.27743-1.0503-0.15854-2.267 0.0793-3.0914l-1.1454-0.55883c-0.3567 1.1058-0.6698 2.7823-0.27743 4.1104 1.5933 5.6069 15.645 18.806 20.889 28.635 0.79663 1.51 0.66981 3.4521 0.27744 4.9078z"/>
   <path d="m-450.53-298.19c-0.1189 1.4823 0.79663 4.2646 3.5512 6.0401 6.851 4.4183 16.736 14.457 20.427 23.406 0.54694 1.3158 0.97894 6.4737-0.19817 8.9623l-0.81249-1.4387c0.54695-2.2353 0.27744-5.9981-0.15854-7.0468-2.9765-7.2283-12.555-17.925-20.19-22.846-3.5076-2.2512-4.7536-6.4317-4.0268-8.3052z"/>
   <path d="m-456.89-307.39c-0.0793 2.2948 1.2167 4.2923 4.4881 6.9489 4.7259 3.8444 16.61 7.6619 23.14 18.009 2.7387 4.3343 3.2024 8.4728 1.3832 12.318l-0.76889-1.3991c1.1732-3.1865 0.61432-6.6275-1.6765-10.249-6.6136-10.472-18.582-14.094-22.86-17.575-3.1469-2.5603-5.1036-5.1175-4.8381-8.4031z"/>
   <path d="m-429.67-282.23c0.86798-3.2143 0.39633-8.2632-2.2076-11.269-5.3691-6.18-15.786-11.745-26.397-14.947-2.0847-0.63017-5.0196-3.5393-4.8099-5.215 0.0397-0.3567-1.189-0.51919-1.2445-0.15854-0.31707 2.5326 3.2579 5.8443 5.6906 6.5855 11.325 3.4124 20.721 8.7245 25.81 14.569 1.9975 2.3067 2.6158 6.2217 2.1521 9.1299z"/>
   <path d="m-468.85-319.07c-0.2378 0.7134-0.0396 1.6091 0.53109 2.4612 0.82438 1.2286 2.2353 2.1243 3.5512 2.2353 12.947 1.0503 25.671 5.3271 29.544 11.619 1.2286 1.9856 2.1521 5.2011 1.0622 8.2354-0.0793 0.27743-0.99083-1.0067-0.93534-1.3 0.50334-2.3503-0.23781-4.7259-1.2009-6.2779-3.3688-5.4948-14.863-9.927-28.565-11.018-1.7042-0.15854-3.4679-1.2286-4.5024-2.7942-0.79663-1.2009-1.0344-2.4612-0.68566-3.5511z"/>
   <path d="m-474.67-322.81c0.3567 1.1177 1.1454 1.8311 2.6158 2.4335 3.9709 1.6091 20.358-0.15854 28.97 6.8094 3.9709 3.2024 5.3969 7.6897 5.6065 9.1438l-1.7478-1.621c-0.68566-1.8311-2.1125-4.4881-4.6557-6.5574-8.1094-6.5435-25.237-5.2292-28.635-6.6136-1.8747-0.75304-2.921-1.7875-3.3847-3.3134z"/>
   <path d="m-479.59-326.77c0.19817 2.699 2.6713 3.8444 4.3482 3.4521 3.4798-0.79663 14.276-1.3832 23.336 0.757 4.32 1.0067 7.522 5.3129 7.1027 8.459l-1.2286-0.75304c-0.15854-2.2789-2.7109-5.6767-6.1662-6.4876-4.4461-1.0503-14.905-2.5445-22.748-0.74114-2.3344 0.53109-5.4666-0.92346-5.8721-4.3482z"/>
   <path d="m-487.88-329.86c-0.15854 2.5167 5.3549 3.4402 7.0884 2.6713 4.1247-1.8033 11.2-3.2856 21.546-0.65791 2.7268 0.68566 7.1166 4.2784 7.4661 6.1099l-1.6765-0.57468c-1.1177-1.4545-4.0406-3.8048-6.096-4.3204-7.914-2.0015-15.282-1.7914-20.735 0.58657-2.2789 1.0067-8.6409-0.0396-8.8505-3.5234z"/>
   <path d="m-497.37-331.82c0.72529 1.5259 2.8536 1.9856 4.1667 2.0015 7.4241 0.1189 14.947-4.7259 23.923-3.678 4.3343 0.51524 7.8716 3.4957 8.6548 5.97l-1.5378-0.3567c-0.99083-1.7597-3.6899-3.9435-7.2565-4.3763-8.6686-1.0067-16.694 3.789-23.797 3.6899-1.9579-0.0281-4.4322-0.76889-5.3271-2.7823z"/>
   <path d="m-505.23-333.42c1.078 1.2722 3.9709 2.0292 5.9704 1.7756 1.9301-0.2378 13.283-5.7183 20.441-5.7183 3.0319 0 7.83 1.5814 9.6333 4.5301l-1.6765-0.15854c-1.8747-2.0134-5.5927-3.1033-7.9556-3.1192-6.2217 0-18.05 5.299-20.232 5.5645-1.9302 0.23781-5.4389-0.27743-6.9628-2.1125z"/>
   <path d="m-484.16-340.08c2.8378 0.44786 5.7187 1.9856 6.6977 3.5789l-1.8866-0.23781c-1.078-0.89571-2.9368-1.7914-5.0057-2.1125-18.148-2.9091-31.054 19.029-47.049 24.608-4.3763 1.5259-8.1514 1.3277-10.263 0.71339-2.2948-0.68566-2.2234-3.5947 0.57468-3.7335 0.69754-0.0396 6.1662-1.1335 7.83-1.6923 13.241-4.4603 22.679-20.749 34.815-23.364 3.8326-0.82438 7.8997 0.44785 11.829 2.5881l-2.7941 0.11889c-3.3966-1.8192-6.9489-1.8747-8.7669-1.4823-11.731 2.5326-21.168 18.68-34.633 23.21-1.8192 0.61432-7.4939 1.7478-8.2909 1.7914-1.3158 0.0793-1.4982 1.1731-0.27744 1.5378 2.81 0.84023 6.8649 0.0793 9.4795-0.84023 15.688-5.467 28.704-27.642 47.762-24.706"/>
   <path d="m-512.39-333.1c-4.8658 0.45974-14.163 4.712-24.105 3.0637-12.751-2.1125-19.169-11.171-19.756-16.331-0.3567-3.0914 2.0847-4.4881 3.5512-0.68566 2.6713 6.8788 7.0884 9.885 16.904 11.577 13.8 2.4057 20.875-4.6839 29.963-3.0201l-1.4268 1.078c-8.7665-0.86796-15.24 5.3969-28.817 3.0478-10.221-1.7637-14.834-4.9776-17.659-12.262-0.84023-2.1679-1.6488-1.7637-1.3158 0.15852 1.4823 8.4312 10.766 13.786 18.764 15.212 10.696 1.8866 20.539-3.3411 24.902-3.1192z"/>
   <path d="m-513.64-337.65c-3.2301-0.86797-5.5931-4.5721-5.7468-6.893-0.2378-3.3847-3.2024-3.3292-3.7731 0.40425-0.55884 3.6621-0.0278 7.1027 1.9024 8.4728l1.2445-0.58657c-1.8311-1.4109-2.6-4.3066-2.0847-7.746 0.3567-2.3622 1.51-2.3344 1.6369-0.42011 0.15854 2.1798 1.8865 5.5225 4.4603 7.1443z"/>
   <path d="m-197.14-156.29c-1.0622-1.5933-3.6344-3.1469-4.8658-3.678-0.92345-0.39635-0.47559-1.8192 0.53109-1.3991 2.2948 0.92346 4.7679 3.4679 5.257 4.6561 0.3567 0.87987-0.43201 1.1613-0.92346 0.42012"/>
  </g>
  <path d="m-224.31-208.51c-0.27744 2.6436 0.48748 9.1858 0.71339 10.081 0.3567 1.4268 8.8224 6.7674 11.605 7.9418-0.19817-1.7914-8.8926-14.359-12.318-18.023" fill="#fff"/>
  <g fill="#0f141b">
   <path d="m-223.78-207.91c0.0281 2.8932 0.31707 8.459 0.78474 9.3257 0.35671 0.99084 6.2637 4.9498 9.801 6.8094-2.5326-4.7259-10.025-14.947-12.024-17.1-0.45974-0.50335-0.23779-0.89571 0.40427-0.4756 3.4243 2.1957 11.298 13.143 12.71 17.715 0.45974 1.51 0.27743 1.4823-1.078 0.89572-3.2698-1.4268-10.347-5.9141-11.032-7.5363-0.432-1.0067-0.90761-7.8018-0.68566-10.738z"/>
   <path d="m-209.46-190.8c0.27743-2.2234 0.0793-4.4041-0.0793-5.4108-0.15853-0.75304 0.53109-0.87986 0.81248-0.0793 0.42012 1.2168 0.54695 3.6225 0.0793 5.5649-0.19817 0.90761-0.9076 0.64207-0.81248-0.0793"/>
   <path d="m-219.68-202.69c-0.19817 1.2881-0.58657 2.2234-0.93535 2.1798-0.42011-0.0397-0.65791-1.3713-0.50334-2.9923 0.0396-0.39633 0.0793-0.72529 0.15853-1.0622z"/>
  </g>
  <path d="m-239.7-241.83c-3.4798-0.45974-7.3266 1.2445-10.347 4.4604-9.214-1.942-24.65-5.2851-30.676-6.2359-11.619-1.8033-17.952 3.7612-18.917 10.99-0.75303 5.8023 1.7201 11.703 7.7602 15.618 7.3124 4.7398 16.023 7.872 22.231 11.171 5.1175 2.7109 9.5215 5.2431 20.092 12.724 2.1957 1.5536 2.5603 1.4387 1.5933-1.2722-2.5881-7.1447-8.2632-14.164-17.911-22.469 3.0201 0.65792 7.6619 1.6924 11.647 2.5722 1.7042 4.1809 5.0334 6.893 9.8992 7.5363 6.9909 0.92346 15.492-5.6204 16.848-15.813 1.2604-9.5917-4.2087-18.218-12.22-19.281" fill="#8b8386"/>
  <path d="m-239.67-217.27c-1.942-1.5814-33.402-8.0955-37.303-8.6127 0.58658 0.9076 8.1514 6.1658 10.962 8.9762l0.15853 0.0793c-0.0139 0-0.0281-0.0142-0.0281-0.0142 3.0201 0.64207 7.6623 1.6924 11.647 2.5603 1.7042 4.1944 5.0334 6.893 9.8992 7.5363 2.8378 0.39634 5.9141-0.47559 8.6686-2.2948-0.0142-2.2353-1.5933-6.2498-4.0129-8.2212" fill="#7a7272"/>
  <g fill="#c4b5bb">
   <path d="m-280.92-221.65c-5.9842-3.1588-8.8925-8.7526-9.4518-8.5287-0.69755 0.27744 3.3411 7.2704 8.8085 9.969 11.242 5.5645 25.181 16.764 30.522 25.824 1.0067 0.75701 0.45974 0.2378 1.4942 1.2722 1.9024 1.3555 2.4335 1.7201 1.9579-0.0139-0.51524-1.8866-12.626-17.603-33.333-28.523"/>
   <path d="m-230.67-233.31c-2.0847-0.1189-2.9487 2.1521-3.7454 4.4041-0.432-1.8588-1.4268-2.7942-1.9737-2.921-0.27744-0.0793-0.79663 0.0793-1.3 0.31707 0.757 1.942 1.0899 4.628 0.60243 8.2913-0.19817 1.5219-0.81248 2.9765-1.6369 4.3062 0.47561 0.44786 1.0186 0.7134 1.3991 0.76888 0.60243 0.0793 2.168-1.399 2.8259-4.041 0.71341 0.27743 0.15854 3.4679 0.64206 3.567 0.78475 0.15853 1.5536-1.9024 1.9579-3.032 0.432 2.3622-1.5814 6.7951-0.47561 7.2565 0.58658 0.2378 2.8814-2.5722 4.1805-4.9217 0.31707-1.0344 0.55883-2.1244 0.7134-3.242 0.40426-3.1192 0.1189-6.1242-0.75304-8.8085-0.72528-1.189-1.6091-1.9143-2.4335-1.9579"/>
   <path d="m-276.79-233.5c-0.27744 0.9512 12.919 3.5234 16.806 4.2087 7.704 1.3436 16.932 2.6436 16.848 1.9856-0.11891-1.0067-15.492-3.5353-17.883-4.1944 2.921 0.4756 10.948 1.8588 11.129 1.4823 0.57469-1.1732-20.288-5.3129-20.413-4.362-0.0397 0.31706 0.2378 0.61431 0.9512 0.86797-2.6-0.23781-7.1308-1.0225-7.4384 0.0139"/>
  </g>
  <path d="m-253.4-214c1.7201 3.7176 4.8377 6.054 9.1581 6.6275 7.9418 1.0463 15.058-7.1867 16.135-15.268 1.2168-9.2278-4.0125-17.561-11.674-18.568-3.0914-0.42011-6.5998 1.0067-9.466 3.8603l-1.6923-0.4756c3.1865-3.4124 7.3262-5.509 11.255-4.9914 8.3472 1.1058 14.583 10.36 13.269 20.273-1.6488 12.528-12.08 17.659-18.023 16.876-3.6225-0.4756-8.4451-2.9368-10.85-8.627z" fill="#0f141b"/>
  <path d="m-247.13-194.61c1.7478 4.8377 0.99083 4.9914-2.8655 2.267-10.71-7.5922-14.933-10.081-19.896-12.709-4.7956-2.5603-15.953-6.8094-22.735-11.2-5.8721-3.8048-9.1997-10.458-8.3611-16.82 0.85212-6.3897 6.7813-13.506 20.358-11.437 2.3503 0.3567 34.115 7.0746 37.946 7.5779 3.888 0.51919 7.8018 4.7398 6.5994 13.856-0.79663 5.9426-7.522 11.815-10.78 11.465-1.1454-0.11891-15.813-3.5789-18.078-4.3763l-2.0966-1.7756c1.8588 0.40427 19.323 4.2784 20.414 4.4183 1.6765 0.2378 8.1792-4.3066 8.9203-9.9412 1.3713-10.319-3.7176-11.814-5.3129-12.024-0.92346-0.11889-32.606-6.8649-37.793-7.6758-8.9064-1.3991-17.044 1.7637-18.19 10.458-0.79664 5.9422 1.9302 11.409 7.4662 14.988 7.0607 4.5864 17.17 8.4871 22.189 11.158 5.0053 2.6554 9.3816 5.1313 20.162 12.766 0.96309 0.68566 1.1335 0.85213 0.63017-0.55882-4.8658-13.479-23.098-26.719-27.768-30.243-2.4454-1.8469-2.267-4.0549-1.4823-5.4112 0.50334-0.89571 1.189-0.69754 0.86797 0.27744-0.4875 1.4546-0.19817 2.6277 1.732 4.1108 11.913 9.2699 23.559 18.302 28.076 30.83" fill="#0f141b"/>
 </g>
</svg>
