<?xml version="1.0" encoding="UTF-8"?>
<!-- Created with Inkscape (http://www.inkscape.org/) -->
<svg version="1.1" viewBox="0 0 605.88 326.74" xmlns="http://www.w3.org/2000/svg">
 <path d="m399.84 206.3s-66.573 2.3707-110.31-14.296c-73.348 53.273-113.99 80.873-149.96 94.924 4.1725 14.296 33.202 24.001 49.679 17.804 20.317 21.906 74.517 27.432 99.272-1.6595 32.199 8.3687 67.829-5.1919 77.279-30.777 16.903 1.6595 32.282-6.5195 39.558-18.231 9.3644-15.149 8.0368-37.469-5.5238-47.756" fill="#fff"/>
 <path d="m399.84 206.3s-1.8966 0.083-5.595 0.083c-40.478 36.298-134.32 79.704-213.43 59.965-15.149 8.9377-28.52 15.647-41.232 20.578 4.1725 14.296 33.202 24.001 49.679 17.804 20.317 21.906 74.517 27.432 99.272-1.6595 32.199 8.3687 67.829-5.1919 77.279-30.777 16.903 1.6595 32.282-6.5195 39.558-18.231 9.3644-15.149 8.0368-37.469-5.5238-47.756" fill="#dcdddd"/>
 <path d="m513.98 93.339c1.4224-6.8514-1.4224-13.371-21.171-21.906-14.627-6.3536-29.023-6.0217-30.862-1.8966-0.47415 1.4224-0.23707 3.082 0.71121 4.86l29.44 17.567z" fill="#e85478"/>
 <path d="m549 99.861c-20.246-6.6855-43.657-10.526-53.441-9.4592-106.64-69.5-296.82-42.069-393.58 14.793-92.082 54.11-119.68 127.71-81.544 170.53 25.258 28.437 87.231 42.32 174.21-12.209 11.711-7.3493 75.188-51.521 96.43-67.995 50.935-39.56 100.95-78.533 207.33-72.009 6.1876 6.6855 19.748 15.552 35.962 20.91 33.204 10.882 63.313 9.6252 67.409-2.6789 4.4333-13.466-13.466-29.02-52.773-41.9" fill="#e85478"/>
 <path d="m500.99 126.07c6.9463 6.2824 19.061 13.632 33.37 18.326 33.202 10.953 63.31 9.6252 67.409-2.6789 0.71124-2.3707 0.94831-4.7652 0.23707-7.1833-15.054 11.285-56.037 11.38-101.03-8.4398" fill="#c84968"/>
 <path d="m306.98 4.4008c-18.492-0.16831-31.279 6.1876-40.898 14.722-5.0971 4.6704-10.787 4.7652-16.382 0-14.722-12.47-44.577-11.048-61.136-0.08303-30.108 19.819-48.007 48.925-60.468 81.458 31.445-18.658 96.012-39.392 134.82-46.751 39.809-5.3579 81.041-6.3536 119.93-1.4224-19.227-30.611-45.414-47.671-75.856-47.922" fill="#fff"/>
 <path d="m433.76 134.2c-34.708-8.0368-116.09 1.8966-153.72 25.592l-14.627 33.202c10.621-4.0066 95.51 33.119 160.83 8.5346 38.053-14.296 37.384-60.385 7.5152-67.326" fill="#e85478"/>
 <path d="m283.86 189.64c-10.028-2.4181-18.326-0.47414-19.156 2.8449 10.55-4.0065 96.181 33.705 161.5 9.0325 12.968-4.86 21.408-13.466 25.758-22.83-29.02 23.589-84.555 31.194-168.1 10.953" fill="#c84968"/>
 <path d="m433.76 134.2c-11.214-2.5841-27.432-3.3427-45.414-2.3707-12.114 6.8514-9.3644 21.834 9.6963 21.076 20.412-0.71122 30.945 2.7738 30.945 12.873 0 9.5304-12.802 18.824-30.945 19.061-17.998 0.23621-26.697 8.2147-26.348 16.479 1e-3 0.0306 3e-3 0.0612 4e-3 0.0918 0.16588 2.6789 1.8966 5.9268 5.026 8.4398 16.714-0.16831 33.705-2.513 49.51-8.4398 38.053-14.296 37.384-60.385 7.5152-67.326" fill="#fff"/>
 <path d="m371.71 201.53c0.16831 2.6789 1.8966 5.9269 5.026 8.4398 16.714-0.16831 33.705-2.513 49.51-8.4398 12.968-4.86 24.755-11.214 29.44-34.708-11.38 26.846-47.611 34.247-83.992 34.496 4e-3 0.0918 4.5e-4 0.0787 0.0159 0.21153" fill="#dcdddd"/>
 <path d="m156.94 110.53c0.94829 2.6789-2.75 6.3536-7.61 8.2027-7.0174 2.6789-10.621 1.6595-11.545-0.94828-1.4224-3.4376 3.7694-6.7803 8.0368-8.3687 5.5949-2.1337 9.8622-2.3707 11.119 0.94828" fill="#f4b1ba"/>
 <g fill="#0f141b">
  <path d="m499.05 92.803c10.36-0.08303 30.443 3.3427 49.176 9.5304 35.461 11.617 55.032 26.427 51.101 38.638-3.1057 9.4592-30.277 12.114-64.147 0.94829-15.481-5.0971-28.52-13.466-34.542-19.819-3.1768-3.3427-7.4441-0.47415-4.5044 2.6789 6.3536 7.1122 20.246 16.974 37.301 22.569 31.948 10.55 66.741 10.455 71.674-4.5044 5.0971-15.647-15.386-32.951-55.115-46.082-20.317-6.6144-46.082-10.787-58.043-8.6058z"/>
  <path d="m516.72 92.443c2.4181-8.1079-5.5238-16.477-22.664-23.918-15.149-6.5195-31.114-6.5195-34.459 0.08303-0.23707 0.71122-0.47414 1.6595-0.47414 2.916l6.4484 2.75c-0.94831-1.6595-1.4224-3.1057-1.1854-3.6746 0.94831-1.6595 12.375-3.3427 27.432 3.1768 18.326 7.942 20.317 13.371 19.819 17.899z"/>
  <path d="m268.45 194.66c-4.7652-0.23707-5.3578-4.0066 0-3.8406 25.089 0.94829 96.515 31.028 156.9 8.2739 35.127-13.205 35.544-55.952 7.8708-62.391-34.791-8.0368-112.57 1.4224-149.87 23.257-3.6746 2.3707-5.6898-1.1854-1.8966-3.5087 42.069-24.087 117.34-33.705 152.88-25.424 32.451 7.5152 35.544 57.791-6.8514 73.346-61.219 22.498-142.26-8.7717-159.07-9.6963"/>
  <path d="m143.38 289.18c6.3536 10.455 29.44 18.136 44.074 13.466l4.2673 4.4333c-14.296 7.3493-47.005-0.94831-53.192-15.979z"/>
  <path d="m189.59 301.12c18.136 22.83 74.768 29.105 98.269-1.4224 2.3707-3.0108 6.1876-1.1854 4.1725 1.8966-24.924 36.464-87.229 29.942-106.3 1.6595-2.3707-3.4376 1.1854-5.3579 3.8406-2.1336"/>
  <path d="m290.22 300.82c32.617 7.942 69.081-6.9462 75.02-33.788 0.94828-3.7694 4.4333-3.1768 3.8406 0.71124-4.3384 30.611-47.505 48.759-82.547 37.467z"/>
  <path d="m366.41 269.76c14.793 1.4224 29.523-5.263 36.799-17.069 8.2027-13.371 8.2027-34.373-4.9311-44.326l6.6855-0.9483c12.209 10.621 12.138 34.373 3.5087 48.342-9.0325 14.556-27.934 21.834-43.323 18.302z"/>
  <path d="m292.63 197.54c-21.574 16.737-84.386 61.054-96.178 68.495-81.795 51.604-148.12 46.502-178.56 12.375-38.472-43.157-16.571-119.1 81.71-176.89 10.953-6.3536 22.83-12.375 35.544-17.899l-3.9354 9.4592c-10.028 4.5044-19.393 9.2933-27.934 14.296-92.667 54.529-117.09 126.12-80.958 166.68 37.301 41.9 112.74 23.835 170.95-12.707 11.214-7.0174 69.166-47.336 93.084-65.487z"/>
  <path d="m417.48 130.96c23.423-4.9311 50.181-6.8514 82.464-4.7652l-1.6595-5.1919c-38.472-2.3707-69.835 1.4224-96.515 8.8666z"/>
  <path d="m262.93 50.301c-36.547 5.9268-108.06 30.108-129.8 44.494 13.964-33.873 32.116-57.374 56.789-73.599 15.149-9.9571 43.823-12.209 58.126-0.08303 6.5195 5.5238 13.537 5.5238 19.819-0.08303 10.716-9.6252 23.589-14.296 39.058-14.058 27.098 0.23707 54.029 15.718 72.094 45.079l7.0174 0.47414c-17.069-31.611-49.427-52.27-79.37-52.521-16.974-0.16588-30.526 6.6855-42.235 17.235-4.3384 3.8406-8.6058 3.9354-13.039-0.08303-15.386-13.964-48.007-12.541-64.984-1.4224-26.512 17.472-46.836 43.574-59.548 80.875-2.3707 6.7803-0.47414 7.776 6.0217 4.1014 31.948-17.733 92.165-37.216 129.8-44.326 83.801-11.711 174.63-4.1014 236.1 38.304 3.0108 2.1336 4.9311-0.94831 1.8966-3.0108-60.468-45.411-167.27-52.855-237.86-41.398"/>
 </g>
 <path d="m32.61 273.98c10.36-0.94831 12.707-10.123 9.3644-45.58-2.3707-24.421-11.214-42.654-19.748-41.817-0.47415 0-0.94829 0.083-1.4224 0.23707-4.1014 6.6855-7.4441 13.371-9.9571 20.08-0.94828 7.0174-1.1854 15.481-0.47414 24.506 2.3707 24.421 13.466 43.406 22.072 42.569" fill="#fff"/>
 <path d="m144.64 229.86c4.3384 36.547-2.75 49.176-14.888 50.599-11.285 1.4224-23.091-19.156-26.263-45.748-3.082-26.595 3.0108-49.176 14.39-50.516 11.783-1.4224 23.328 17.069 26.763 45.665" fill="#fff"/>
 <path d="m41.87 222.34c2.1337 17.472-1.1854 32.282-7.61 33.119-6.4484 0.71123-13.466-12.707-15.647-30.108-2.3707-17.472 1.1854-32.365 7.6101-33.119 6.4484-0.94829 13.466 12.636 15.647 30.108" fill="#383839"/>
 <path d="m142.96 219.5c2.6789 22-1.8966 34.959-9.6963 35.879-6.8514 0.71121-15.647-5.429-18.729-32.7-2.8449-24.758 3.6746-34.71 10.36-35.461 7.8708-0.94828 15.718 13.561 18.065 32.282" fill="#383839"/>
 <path d="m35.67 222.66c0.94829 10.194 0 18.136-2.1337 18.397-2.1336 0.16831-4.7652-7.4441-5.6898-17.638-0.94829-10.289 0-18.729 2.1337-18.895 2.1337-0.23707 4.694 7.942 5.5949 18.16" fill="#fff"/>
 <path d="m131.81 219.29c0.94831 12.707 0.16831 18.658-2.1336 18.824-2.4182 0.23709-4.1014-6.3536-5.026-18.231-0.71122-10.194 0.16831-18.563 2.1337-18.658 1.8966-0.16831 4.1725 7.942 4.9311 18.065" fill="#fff"/>
 <g fill="#0f141b">
  <path d="m22.47 189.11c-6.2824 0.47414-11.617 17.994-9.3644 42.069 2.3707 24.17 13.134 40.812 19.227 40.227 7.61-0.71122 10.455-7.0174 7.1122-42.737-2.1336-22.996-10.621-40.227-16.974-39.558m22.498 39.058c3.3427 35.042 0.16588 47.168-12.138 48.339-8.2739 0.94829-22.332-14.627-25.172-44.743-2.513-26.597 4.694-46.502 14.296-47.756 10.455-0.94829 20.578 17.994 22.996 44.16"/>
  <path d="m118.16 186.76c-8.4398 0.94829-15.315 20.412-12.043 47.671 3.1057 26.429 14.461 44.494 23.328 43.491 4.5044-0.47414 18.065-2.1337 12.636-47.756-3.0108-25.509-13.371-44.66-23.918-43.406m29.271 42.737c4.1725 35.627-3.0108 51.77-17.306 53.526-11.877 1.4224-26.012-16.216-29.774-48.007-3.4376-28.937 4.3384-51.853 17.235-53.358 14.296-1.6595 26.429 19.156 29.857 47.839"/>
  <path d="m43.63 246.28c-1.4224 6.3536-4.4333 11.119-9.1273 11.711-9.2933 1.1854-16.311-14.888-18.492-32.368-1.8966-15.884 0.23708-34.791 9.8623-35.962 2.1337-0.23707 4.1014 0.47415 5.9506 1.6595l5.0971 19.653c-3.0108-10.455-7.5389-16.643-10.384-16.311-3.8406 0.47415-7.6812 12.541-5.429 30.191 2.3707 17.733 9.1273 28.352 12.802 27.934 3.8406-0.47414 7.6101-12.802 5.3579-30.191z"/>
  <path d="m128.74 190.93c-1.1854-0.94831-2.4182-1.4224-3.5087-1.1854-4.3384 0.47414-10.953 7.942-8.2027 32.617 2.1337 19.321 7.8708 31.365 15.979 30.445 5.429-0.47414 10.028-11.545 7.3493-33.036-0.94828-7.2782-2.5841-13.561-4.5992-18.397l9.6963 17.804c0.71122 5.7609 0.94829 10.882 0.71122 15.386-0.71122 14.556-5.7609 22.569-12.707 23.328-4.7652 0.47415-18.065-1.4224-21.834-34.959-3.082-26.929 4.86-37.384 12.968-38.304z"/>
  <path d="m30.37 207.81c-0.47414-0.083-1.1854 7.7049-0.23707 15.386 0.71121 7.5389 3.0108 14.627 3.1768 14.627 0.16831 0 1.1854-7.1122 0.23707-14.983-0.71123-7.7049-2.6789-14.983-3.1768-15.054m-4.5992 15.813c-0.47414-5.8557-1.4224-20.744 4.1014-21.242 4.694-0.23707 7.0174 9.7911 7.942 20.08 0.71121 8.1079 0.9483 20.246-4.1014 20.744-4.4333 0.47414-7.0174-9.6963-7.942-19.559"/>
  <path d="m127.16 205.16c-0.47414 2.6789-0.94829 7.6101-0.23707 14.556 0.71123 10.123 1.8966 14.058 2.5841 15.481 0.47415-1.6595 0.94829-5.6898 0.16588-15.718-0.47416-6.9462-1.6595-11.711-2.513-14.296m7.2782 13.964c0.94829 12.375-0.47414 20.839-4.5044 21.171-1.8966 0.083-6.1165-1.4224-7.61-20.246-0.47414-7.0174-0.47414-20.578 4.3384-20.981 4.7652-0.23707 7.1122 12.138 7.776 20.08"/>
 </g>
</svg>
