<?xml version='1.0' encoding='utf-8'?>
<svg xmlns="http://www.w3.org/2000/svg" version="1.1" width="379px" height="323px" viewBox="-0.55 -0.15 379.45 322.65"><g><path fill="#ec6d45" d="M343.0 99.55 Q346.4 106.2 349.25 115.6 L339.4 118.55 332.6 119.55 Q327.35 120.3 326.55 120.8 322.7 123.15 319.6 128.5 316.4 133.95 315.4 140.15 314.65 144.9 317.8 148.35 321.45 152.35 331.3 155.9 342.55 156.35 353.1 151.45 349.75 171.75 342.3 185.7 337.9 193.9 328.8 204.45 315.45 219.8 294.15 228.4 274.1 236.5 253.25 236.4 244.85 236.35 235.9 234.6 227.1 232.95 220.15 230.15 208.55 225.55 192.0 215.7 173.35 204.55 171.95 199.85 169.2 190.7 168.45 178.05 167.7 166.3 168.85 156.0 169.45 150.45 170.75 144.25 172.15 137.7 173.85 132.75 184.15 103.25 199.8 85.85 217.65 66.0 247.5 55.6 250.45 54.75 255.15 54.05 L262.95 53.2 Q274.65 52.55 286.25 55.05 299.0 57.8 309.4 63.95 L318.3 70.95 Q328.2 79.15 333.3 85.1 339.1 91.8 343.0 99.55"/><path fill="#ffffff" d="M178.7 174.6 L201.75 185.85 Q222.95 196.4 227.65 200.4 L235.25 207.4 Q241.45 213.0 247.25 217.0 265.05 229.3 285.35 231.5 270.45 236.55 255.15 236.55 240.1 236.5 225.4 231.55 218.35 231.55 214.55 231.7 207.75 231.95 203.85 233.45 200.8 234.6 196.8 238.05 L190.15 243.45 Q187.95 244.9 186.05 247.45 184.05 250.05 183.55 252.35 182.85 255.5 183.8 260.05 L185.85 267.55 189.6 283.3 Q191.25 292.95 189.65 299.75 188.1 306.25 183.7 311.35 179.3 316.5 173.4 318.5 167.75 320.45 161.2 319.6 154.6 318.75 150.6 315.45 137.3 304.7 139.4 284.2 141.2 266.55 152.1 252.1 L155.65 246.9 Q157.4 243.85 157.55 241.05 157.95 235.55 154.65 232.55 152.65 233.4 150.75 236.6 L148.3 241.45 143.65 250.25 Q141.05 255.3 139.35 259.2 L132.8 273.45 Q129.0 280.8 125.75 284.2 120.9 289.25 113.4 290.6 106.4 291.85 99.65 289.6 93.7 287.6 89.8 282.4 86.0 277.35 85.15 270.75 83.95 260.4 85.8 239.9 87.45 226.15 87.9 220.2 88.75 210.1 87.15 205.75 83.65 196.05 73.6 187.6 67.4 182.45 52.6 173.5 39.7 165.7 32.4 160.25 21.35 151.95 14.55 143.2 4.45 130.2 2.35 116.4 0.25 102.45 6.9 91.55 13.55 80.65 27.5 75.45 41.35 70.3 56.3 73.1 88.05 79.15 116.65 106.35 138.55 127.2 157.2 159.05 161.25 166.05 164.55 166.65 166.65 167.05 167.7 165.0 170.6 165.25 173.85 169.3 177.6 174.05 178.7 174.6"/><path fill="#ffffff" d="M175.2 181.25 Q185.85 181.7 190.9 178.55 196.2 175.3 200.95 174.05 206.0 172.7 211.95 173.25 217.75 173.75 223.25 176.6 229.1 179.65 232.2 184.15 233.55 186.05 233.0 187.6 L230.95 191.0 226.85 197.4 Q224.45 201.35 223.6 204.2 222.3 208.65 222.15 214.4 222.0 219.6 222.85 224.7 223.15 226.65 225.35 234.35 227.55 241.95 228.25 246.45 230.55 261.45 221.05 264.0 215.55 265.5 207.45 261.65 204.35 260.15 195.2 254.35 L186.1 249.15 Q180.5 245.7 178.5 242.2 177.4 240.3 176.75 236.4 L175.95 229.5 Q175.45 223.35 174.45 220.9 173.0 217.4 169.8 215.7 L163.3 213.3 Q160.35 212.3 157.35 210.7 153.9 208.85 151.85 206.95 146.5 201.95 145.0 194.5 143.65 187.9 145.8 183.15 147.25 179.85 151.3 179.15 L158.45 179.35 175.2 181.25"/><path fill="#ffffff" d="M169.35 153.75 L168.6 159.8 168.1 165.9 166.05 165.9 Q164.65 166.45 162.85 165.4 160.55 164.05 158.2 160.05 129.75 111.6 94.05 88.6 93.6 86.65 91.85 83.9 90.2 81.4 88.0 79.2 80.5 71.8 77.6 64.75 74.7 57.7 75.65 52.4 76.4 48.25 79.6 44.8 82.35 41.95 87.65 40.85 92.9 39.75 98.7 40.85 L101.75 41.5 Q108.75 43.4 115.7 49.55 118.95 52.45 126.25 60.7 130.9 65.9 132.75 67.5 135.9 70.25 138.2 70.1 140.95 69.9 141.95 67.5 L143.0 63.0 Q143.6 60.05 144.9 58.6 146.6 56.65 150.35 55.9 156.25 54.7 161.85 60.75 166.6 65.85 170.05 74.8 157.6 111.2 169.35 153.75"/><path fill="#dbdcdc" d="M169.35 153.75 L168.6 159.8 168.1 165.9 166.05 165.9 Q164.65 166.45 162.85 165.4 160.55 164.05 158.2 160.05 147.15 141.15 134.3 125.45 139.15 127.1 145.05 126.75 151.75 126.35 155.1 123.25 157.85 120.9 159.6 114.3 161.25 107.95 164.1 105.95 162.75 129.65 169.35 153.75"/><path fill="#ffffff" d="M346.05 180.1 Q350.05 183.75 361.25 188.7 L369.3 192.25 Q373.8 194.3 373.9 195.3 374.05 196.25 373.55 197.6 L372.4 199.8 371.2 201.9 Q370.8 203.15 371.35 204.2 374.75 210.1 376.0 214.95 377.75 221.8 375.85 228.1 375.05 230.8 372.1 233.45 369.4 235.8 366.15 237.1 363.4 238.2 360.65 238.1 357.9 238.0 355.7 236.7 352.35 234.75 349.2 233.25 345.45 231.5 343.7 231.3 341.95 231.15 339.7 232.3 338.2 233.0 335.8 234.8 L331.9 237.4 Q329.65 238.55 327.55 238.45 322.75 238.3 318.95 233.5 316.65 230.7 315.05 225.75 313.4 220.8 313.6 217.35 324.15 209.8 332.35 200.55 340.9 190.85 346.05 180.1"/><path fill="#ffffff" d="M253.0 253.1 L253.25 255.45 253.2 258.2 Q253.3 261.6 253.55 263.1 254.0 265.7 255.25 267.2 259.15 271.9 260.55 277.65 261.85 283.1 260.35 287.05 258.95 290.7 254.45 293.45 249.95 296.15 244.4 296.7 229.6 298.25 217.55 283.5 209.0 273.0 205.85 261.45 215.55 265.9 220.8 264.5 223.2 263.85 224.95 262.1 226.45 260.55 227.9 257.65 229.6 254.35 228.7 248.3 228.35 245.6 225.9 235.6 L224.6 231.8 233.5 234.6 Q233.9 236.35 236.0 238.1 L240.85 241.45 Q246.5 244.95 248.15 246.3 252.0 249.5 253.0 253.1"/><path fill="#dbdcdc" d="M164.8 166.7 Q166.95 167.1 168.0 165.05 L168.35 165.1 Q168.15 168.85 168.35 174.55 168.5 180.3 168.85 181.25 L158.6 179.75 Q152.35 178.95 148.85 179.85 143.85 181.1 144.35 190.8 144.9 200.25 149.4 204.6 155.7 210.65 164.85 213.85 168.95 215.35 170.3 216.1 172.8 217.5 174.05 219.95 175.95 223.55 176.55 232.1 177.1 240.0 179.3 243.1 L181.65 245.65 185.45 248.75 Q184.25 250.55 183.85 252.4 183.0 256.25 184.45 261.8 L186.95 271.05 180.05 263.1 Q175.85 258.1 172.65 255.55 168.05 252.0 163.55 251.45 161.0 251.15 157.3 251.5 152.65 251.9 151.7 253.15 L152.4 252.15 Q156.5 246.7 157.45 241.2 157.9 238.25 157.15 235.85 156.35 233.2 154.4 232.55 L152.05 234.6 Q150.75 235.75 151.0 236.55 149.85 233.2 148.4 231.0 146.7 228.35 144.15 226.55 142.45 225.4 145.1 219.95 147.7 214.4 146.15 213.15 L136.1 204.75 Q132.9 201.15 132.65 195.05 132.6 193.5 134.55 188.85 136.2 184.85 135.35 182.95 131.55 174.7 130.8 170.6 129.6 163.8 132.3 155.55 133.2 152.9 137.95 156.4 143.35 160.3 145.15 159.05 147.05 157.75 144.6 148.2 141.8 137.25 142.05 135.5 150.3 146.8 157.45 159.1 161.5 166.1 164.8 166.7"/><path fill="#3e3a39" d="M153.3 140.3 Q152.7 138.55 152.7 134.2 152.75 129.25 153.95 128.05 154.8 127.2 156.55 129.0 157.8 130.25 158.65 131.75 159.75 133.7 159.45 137.65 159.1 141.35 158.0 142.6 157.45 143.3 155.45 142.15 153.55 141.0 153.3 140.3"/><path fill="#ffffff" d="M345.85 178.1 Q340.95 190.95 333.05 200.05 330.5 197.1 327.6 196.45 324.05 195.65 319.2 198.0 L309.05 203.85 Q303.25 207.3 300.8 207.3 297.5 207.3 293.25 204.4 288.95 201.4 287.9 198.15 286.8 194.7 286.6 189.0 286.4 183.3 287.25 180.7 287.6 179.55 290.85 176.4 294.85 172.55 297.6 168.3 302.75 160.3 305.75 149.6 307.85 140.55 308.5 139.8 309.6 138.55 312.5 138.75 L315.9 139.2 Q314.95 141.4 315.4 143.55 315.8 145.4 317.4 147.85 319.95 150.6 323.25 152.4 325.95 153.8 331.3 155.7 335.9 156.05 344.0 154.35 351.9 152.7 353.1 151.3 349.6 168.15 345.85 178.1"/><path fill="#dbdcdc" d="M208.0 192.65 Q213.3 189.5 210.45 193.35 202.25 204.45 194.5 221.2 186.05 239.45 185.85 248.7 176.95 244.5 176.7 234.95 176.55 226.1 175.2 222.9 173.65 219.1 195.0 202.05 203.15 195.5 208.0 192.65"/><path fill="#ffffff" d="M254.1 9.1 Q254.35 24.7 255.5 32.85 257.65 47.65 263.4 53.6 247.25 54.1 231.25 61.85 215.65 69.45 202.6 82.75 189.35 96.3 180.8 113.7 171.85 131.9 169.35 151.95 162.85 133.15 163.75 110.5 164.55 88.95 171.6 70.5 181.25 45.4 202.0 27.25 219.25 12.2 241.5 3.95 246.05 2.25 249.95 1.45 L253.75 1.0 Q254.0 2.05 254.1 9.1"/><path fill="#dbdcdc" d="M376.85 221.0 Q376.95 224.6 375.85 228.1 375.05 230.8 372.1 233.45 369.4 235.8 366.15 237.1 363.4 238.2 360.65 238.1 357.9 238.0 355.7 236.7 352.35 234.75 349.2 233.25 345.45 231.5 343.7 231.3 341.95 231.15 339.7 232.3 338.2 233.0 335.8 234.8 L331.9 237.4 Q329.65 238.55 327.55 238.45 322.75 238.3 318.95 233.5 316.65 230.7 315.05 225.75 313.4 220.8 313.6 217.35 321.7 211.6 328.6 204.55 349.6 220.9 376.85 221.0"/><path fill="#dbdcdc" d="M253.0 253.1 L253.25 256.2 Q242.0 250.15 228.95 250.4 228.75 247.7 227.8 243.55 L225.9 235.6 224.6 231.8 233.5 234.6 Q233.9 236.35 236.0 238.1 L240.85 241.45 Q246.5 244.95 248.15 246.3 252.0 249.5 253.0 253.1"/><path fill="#ffffff" d="M264.45 87.9 Q274.65 87.9 281.9 95.25 289.1 102.55 289.1 112.9 289.1 123.2 281.9 130.55 274.65 137.85 264.45 137.85 254.3 137.85 247.05 130.55 239.85 123.2 239.85 112.9 239.85 102.55 247.05 95.25 254.3 87.9 264.45 87.9"/><path fill="#595757" d="M238.65 142.85 Q238.4 141.05 239.0 141.15 L240.95 142.5 Q247.4 147.6 253.45 149.15 259.7 150.75 271.65 150.25 269.55 153.65 259.9 155.75 250.6 157.75 246.05 156.25 242.15 154.95 240.2 149.8 239.2 147.2 238.65 142.85"/><path fill="#595757" d="M271.3 156.0 Q269.85 160.0 265.95 163.95 261.75 168.25 257.0 169.9 253.85 171.0 250.7 169.05 248.15 167.45 247.7 165.8 249.85 165.6 256.75 163.15 265.9 159.9 271.3 156.0"/><path fill="#595757" d="M206.1 134.45 Q207.65 134.35 208.8 137.25 209.8 139.75 209.7 141.95 209.55 144.5 209.0 146.55 208.3 149.3 207.25 149.35 205.65 149.5 204.6 147.4 203.5 145.35 203.7 142.6 204.1 134.55 206.1 134.45"/><path fill="#595757" d="M189.55 134.05 Q191.15 133.85 191.85 137.5 192.5 141.1 191.45 143.25 190.95 144.25 189.75 142.7 L188.25 140.05 Q187.6 138.45 188.05 136.3 188.55 134.15 189.55 134.05"/><path fill="#595757" d="M199.8 151.35 Q200.95 154.15 201.15 157.0 201.4 160.55 199.8 162.9 198.5 164.85 196.65 165.2 194.65 165.55 193.5 162.9 192.45 160.5 192.45 156.75 192.45 153.25 193.9 150.7 195.3 148.2 197.05 148.2 198.5 148.2 199.8 151.35"/><path fill="#595757" d="M175.5 158.05 Q176.45 157.95 176.9 162.3 177.35 166.6 176.25 166.1 174.2 165.1 173.7 161.7 173.25 158.25 175.5 158.05"/><path fill="#595757" d="M190.15 197.35 Q187.9 194.8 189.15 190.2 189.8 187.7 196.7 185.25 203.5 182.8 204.45 184.45 205.15 185.7 203.05 190.95 200.7 196.75 197.45 198.1 192.55 200.1 190.15 197.35"/><path fill="#595757" d="M212.0 200.4 Q212.8 199.75 214.45 201.2 216.15 202.7 216.45 204.7 217.05 209.3 214.85 212.1 213.1 214.3 210.85 214.4 210.0 214.45 209.2 213.5 L208.4 212.1 Q208.25 211.45 209.6 206.5 211.0 201.15 212.0 200.4"/><path fill="#595757" d="M199.6 229.35 Q196.95 229.55 196.6 224.25 196.25 219.0 198.85 218.65 200.75 218.35 201.05 223.8 201.35 229.25 199.6 229.35"/><path fill="#595757" d="M244.1 263.25 Q245.35 265.8 243.6 267.5 241.9 269.1 240.05 268.1 238.2 267.1 236.0 261.5 233.8 255.65 235.55 254.45 237.0 253.5 240.15 257.2 242.7 260.25 244.1 263.25"/><path fill="#595757" d="M158.15 275.65 Q157.1 271.75 159.25 264.6 161.45 257.15 164.25 257.4 167.15 257.65 168.4 261.8 169.45 265.3 168.75 268.0 168.2 270.05 166.55 273.5 164.75 277.3 163.75 278.05 L160.4 277.95 Q158.5 276.9 158.15 275.65"/><path fill="#595757" d="M173.85 282.3 Q174.3 282.15 174.5 285.4 174.75 288.65 174.1 288.9 173.45 289.2 172.5 288.1 171.55 287.0 171.15 285.6 170.9 284.65 171.7 283.6 172.55 282.6 173.85 282.3"/><path fill="#595757" d="M130.7 239.4 Q132.0 238.55 134.15 239.4 136.25 240.3 137.1 242.1 137.5 242.95 131.3 251.3 125.0 259.7 123.95 258.45 121.25 255.2 124.35 248.2 127.1 241.95 130.7 239.4"/><path fill="#595757" d="M130.2 223.5 Q129.6 221.15 133.15 218.25 136.3 215.7 137.75 215.7 138.75 215.7 140.05 216.6 141.4 217.55 141.3 218.25 141.2 219.05 135.85 221.65 130.4 224.25 130.2 223.5"/><path fill="#595757" d="M110.05 169.8 Q106.2 164.15 108.5 159.45 109.4 157.6 110.9 157.0 112.45 156.35 113.75 157.4 L126.65 167.85 Q128.85 169.85 127.55 173.75 126.2 177.7 122.7 176.15 L115.85 173.45 Q111.2 171.45 110.05 169.8"/><path fill="#595757" d="M79.1 113.95 Q80.55 112.2 84.55 112.65 87.9 113.0 93.3 117.35 99.4 122.25 99.75 126.8 99.85 128.55 97.05 130.4 94.5 132.0 92.6 132.15 89.55 132.3 84.3 126.85 79.65 122.0 78.8 119.4 77.65 115.7 79.1 113.95"/><path fill="#595757" d="M131.4 144.9 Q129.5 142.25 128.8 139.85 128.0 137.35 129.05 136.6 130.75 135.45 136.3 142.2 141.85 148.95 139.8 149.9 136.1 151.55 131.4 144.9"/><path fill="#595757" d="M134.55 95.05 L139.75 101.35 Q143.9 107.65 144.0 115.95 144.0 116.6 142.05 117.4 139.95 118.25 138.5 117.75 136.25 116.95 133.2 111.45 130.0 105.8 129.05 100.5 128.55 97.75 130.45 94.85 132.45 91.8 134.55 95.05"/><path fill="#595757" d="M348.55 195.65 Q350.2 193.2 352.55 193.8 354.85 194.35 356.95 197.6 361.6 204.85 361.45 209.4 361.3 213.15 358.5 213.45 356.15 213.75 351.75 205.55 347.35 197.4 348.55 195.65"/><path fill="#3e3a39" d="M334.95 210.2 Q336.05 210.2 337.4 214.2 338.75 218.15 337.6 218.45 336.6 218.7 334.85 217.0 333.3 215.5 333.05 214.6 332.6 213.05 333.25 211.6 333.9 210.2 334.95 210.2"/><path fill="#595757" d="M218.9 148.15 Q213.9 131.8 212.6 116.25 L212.0 107.95 Q211.75 105.05 211.1 104.85 209.95 104.5 207.45 107.55 204.6 111.0 202.65 116.2 201.15 120.15 199.85 126.95 198.9 131.75 198.2 131.8 197.0 131.85 194.15 124.75 191.2 117.6 189.75 117.6 187.0 117.6 183.3 136.0 179.65 154.4 179.05 154.4 178.25 154.4 177.4 144.7 176.5 134.8 175.2 134.2 174.3 133.7 172.95 135.45 178.8 108.15 201.9 84.15 224.9 60.2 249.25 55.9 236.1 67.6 230.05 81.4 223.5 96.25 223.5 116.9 223.5 142.1 233.05 165.9 235.7 172.45 239.4 179.6 242.05 184.65 241.85 184.8 240.3 186.15 231.65 173.25 222.35 159.4 218.9 148.15"/><path fill="#cc5d3b" d="M332.75 199.75 L328.8 204.45 Q320.3 214.2 308.2 221.45 296.75 228.3 283.4 232.1 L285.35 231.5 Q268.2 229.65 252.8 220.55 258.05 219.75 262.05 218.55 281.55 212.7 293.45 204.5 297.6 207.3 300.8 207.3 303.25 207.3 309.05 203.85 L319.2 198.0 Q323.95 195.75 327.4 196.4 330.25 196.95 332.75 199.75"/><path fill="#dbdcdc" d="M324.75 183.3 Q331.9 181.0 335.75 182.8 339.95 184.75 339.15 191.1 336.2 195.65 332.75 199.75 330.25 196.95 327.4 196.4 323.95 195.75 319.2 198.0 L309.05 203.85 Q303.25 207.3 300.8 207.3 297.6 207.3 293.45 204.5 L297.7 201.25 Q306.0 194.25 312.95 189.6 320.25 184.75 324.75 183.3"/><path fill="#dbdcdc" d="M283.4 232.1 Q268.25 236.5 253.25 236.4 L246.8 236.1 Q236.1 235.15 225.4 231.55 L224.8 231.55 222.8 222.15 Q240.05 222.55 252.8 220.55 268.2 229.65 285.35 231.5 L283.4 232.1"/><path fill="#0d131a" d="M348.95 163.6 Q353.05 146.0 350.35 127.85 347.8 110.4 339.65 96.55 326.55 74.2 304.3 62.95 281.25 51.25 255.85 55.45 236.8 58.6 220.15 70.05 204.4 80.85 192.6 97.75 181.1 114.2 175.05 133.85 168.95 153.7 169.35 173.65 169.45 177.7 168.4 177.3 167.35 176.85 167.25 172.8 166.8 152.1 172.95 131.95 179.0 112.05 190.6 95.55 202.5 78.7 218.45 67.8 235.3 56.35 254.8 52.95 281.5 48.25 305.75 60.3 329.15 71.95 341.9 94.85 350.9 109.05 353.65 127.35 356.45 146.05 352.0 164.5 347.25 184.2 335.0 199.8 321.6 216.9 300.8 226.85 282.0 235.85 262.05 237.45 242.05 239.05 225.0 232.9 L224.55 230.4 Q241.1 236.6 261.0 234.8 280.35 233.05 299.35 224.0 319.9 214.25 332.8 197.65 344.55 182.65 348.95 163.6"/><path fill="#0d131a" d="M244.8 1.3 Q248.3 0.25 251.05 0.05 253.7 -0.15 254.4 0.45 255.0 1.0 255.1 2.65 L255.2 10.1 Q255.4 26.15 256.75 34.85 259.15 50.0 265.45 53.1 266.0 53.35 264.2 53.55 262.5 53.7 262.0 53.2 256.5 48.15 254.5 33.85 253.35 25.8 253.1 10.15 L253.1 5.0 Q253.1 2.45 252.7 2.3 L250.2 2.4 245.25 3.5 Q227.1 9.35 209.2 23.3 183.8 43.1 172.9 70.7 165.8 88.7 164.9 108.95 164.05 128.9 169.3 149.7 169.5 150.6 169.05 152.65 168.65 154.7 168.5 154.2 162.15 131.7 162.35 110.9 162.55 89.1 169.9 70.2 181.0 41.65 206.2 21.85 224.85 7.2 244.8 1.3"/><path fill="#0d131a" d="M345.05 180.1 Q344.9 179.85 345.65 179.0 346.45 178.15 346.65 178.5 347.75 180.6 352.25 183.0 355.2 184.6 361.6 187.2 369.95 190.55 371.3 191.25 375.45 193.3 375.85 195.25 376.1 196.6 374.95 198.4 L373.0 200.95 Q371.7 202.9 372.05 203.6 375.7 209.9 376.95 214.1 378.9 220.9 377.0 227.35 374.75 234.9 367.5 237.95 360.55 240.9 355.0 237.65 351.25 235.45 348.0 233.9 344.5 232.25 343.2 232.1 341.15 231.9 336.6 235.3 L332.3 238.1 Q329.6 239.45 327.05 239.35 321.3 239.1 316.9 233.65 314.35 230.5 313.2 226.0 312.15 221.85 312.6 217.7 312.65 217.3 313.8 216.65 315.0 216.05 314.9 216.5 314.25 220.2 315.4 224.5 316.6 228.75 319.2 232.0 323.0 236.7 327.8 236.95 329.9 237.0 332.15 235.85 L336.05 233.25 Q338.5 231.45 339.7 230.85 341.7 229.85 343.45 230.05 345.2 230.25 348.95 232.0 L355.45 235.4 Q360.2 238.2 366.4 235.45 372.65 232.7 374.35 227.1 376.25 220.8 374.6 214.45 373.5 210.05 370.1 204.2 369.5 203.15 369.95 201.9 370.2 201.15 371.15 199.8 L372.25 197.95 Q372.75 196.9 372.65 196.0 372.55 195.0 368.65 192.95 L361.15 189.45 Q354.4 186.45 351.6 184.95 346.8 182.35 345.05 180.1"/><path fill="#0d131a" d="M188.7 180.45 Q186.95 181.45 182.1 181.85 177.45 182.25 171.45 182.0 L161.25 180.95 153.15 180.1 Q148.4 180.0 146.6 184.1 144.6 188.65 146.35 195.05 148.25 202.0 153.7 207.1 155.65 208.9 158.5 210.25 160.2 211.05 163.75 212.25 168.55 213.95 170.65 215.2 174.2 217.4 175.65 221.0 176.7 223.45 177.25 230.25 177.65 234.6 178.0 236.55 178.6 239.9 179.7 241.8 180.95 243.95 183.6 246.0 185.35 247.3 189.7 249.85 L195.95 253.7 Q203.3 258.55 207.65 260.55 215.3 264.05 220.15 262.75 224.25 261.65 226.55 257.05 228.0 254.15 227.2 248.05 226.75 244.4 224.65 235.8 222.85 228.4 222.15 224.6 221.05 218.4 221.1 213.75 L221.1 213.7 Q221.2 207.35 223.9 201.15 225.45 197.65 229.1 192.0 L231.6 187.9 Q232.45 186.05 231.8 185.35 215.2 166.1 188.7 180.45 M171.6 180.1 Q176.85 180.35 181.6 179.9 186.15 179.5 187.7 178.65 202.7 170.5 213.6 171.9 224.15 173.3 233.4 184.0 234.7 185.5 233.8 187.9 233.25 189.4 230.85 193.1 227.4 198.5 225.9 201.85 223.3 207.8 223.2 213.75 223.1 221.5 226.7 235.3 229.05 244.5 229.6 248.5 230.45 254.7 228.95 258.65 227.95 261.15 225.75 263.1 223.6 264.9 221.05 265.6 215.6 267.1 207.4 263.5 202.45 261.3 195.0 256.4 L188.7 252.65 Q180.45 247.75 177.6 242.85 176.35 240.7 175.75 237.1 L175.05 230.4 Q174.45 223.95 173.6 221.8 172.35 218.8 169.05 216.95 167.35 216.0 162.4 214.35 158.85 213.1 156.85 212.1 153.8 210.6 151.6 208.6 145.65 203.05 143.65 195.2 141.75 188.0 144.05 182.9 145.25 180.15 147.7 179.0 149.85 177.95 153.35 178.0 L160.5 178.9 171.6 180.1"/><path fill="#0d131a" d="M163.7 165.1 L166.55 164.85 168.9 164.8 168.0 166.5 167.3 166.8 Q165.1 167.65 163.45 167.15 160.55 166.25 157.75 161.45 144.6 139.05 129.5 121.65 110.8 100.0 90.45 87.7 69.1 74.8 46.95 74.15 23.1 73.45 11.2 88.1 3.1 98.1 3.7 112.3 4.35 128.1 16.05 143.2 22.8 151.9 33.4 159.75 39.75 164.45 53.1 172.5 67.9 181.45 74.1 186.6 84.15 195.05 87.65 204.7 89.3 209.3 89.05 219.05 88.9 224.8 87.6 238.6 86.5 250.05 86.2 255.7 85.75 264.85 86.45 270.5 87.25 276.95 91.25 281.85 95.2 286.75 101.3 288.8 107.7 290.9 114.15 289.4 120.95 287.8 125.45 282.6 131.05 276.1 139.35 257.15 145.25 243.65 148.5 238.3 153.85 229.55 158.9 228.6 162.5 227.95 163.15 228.95 163.8 230.0 160.0 230.35 155.35 230.8 150.35 239.25 147.25 244.55 141.55 258.0 133.45 277.1 127.5 284.5 122.9 290.25 115.3 292.35 107.95 294.35 100.4 292.2 93.8 290.25 88.9 284.0 84.2 277.9 83.3 270.7 82.6 265.1 83.25 255.45 L84.8 237.95 86.45 219.0 Q86.9 209.65 85.4 205.4 82.15 196.3 72.65 188.8 68.3 185.3 52.0 175.45 37.85 166.85 31.75 162.45 20.55 154.35 13.5 145.65 0.75 129.8 0.05 112.45 -0.55 96.7 8.4 86.15 21.45 70.75 46.6 71.25 70.05 71.75 91.45 85.15 112.6 98.4 130.5 118.75 146.65 137.05 159.5 160.4 161.65 164.3 163.7 165.1"/><path fill="#0d131a" d="M153.95 233.55 Q153.55 233.35 153.95 232.55 154.3 231.8 154.7 232.0 156.25 232.8 157.05 233.85 157.85 234.9 158.25 236.7 159.0 239.85 157.8 243.75 156.55 247.65 153.6 251.6 148.25 258.7 144.7 267.5 140.85 277.0 140.15 286.0 139.1 300.35 146.95 309.85 154.1 318.5 164.4 318.85 173.1 319.15 179.35 314.4 185.95 309.35 188.25 299.55 189.85 292.7 188.5 283.45 187.75 278.6 185.05 268.0 182.7 259.0 182.45 255.55 182.0 249.95 184.8 247.85 185.15 247.6 185.85 248.4 186.55 249.25 186.2 249.5 183.8 251.35 184.5 256.75 184.85 259.35 187.1 267.65 190.5 280.45 191.1 283.9 192.65 292.9 191.0 300.05 188.5 310.75 181.25 316.65 174.05 322.5 164.2 321.9 151.0 321.1 143.35 310.15 136.05 299.75 137.35 286.0 139.05 267.75 151.75 250.9 154.55 247.2 155.85 243.65 157.2 239.95 156.6 237.3 156.0 234.5 153.95 233.55"/><path fill="#0d131a" d="M254.45 253.25 Q254.8 254.5 254.55 260.05 254.35 264.7 255.85 266.5 261.05 272.9 262.35 278.0 263.4 282.1 262.1 286.25 260.6 290.9 256.45 294.1 252.3 297.3 246.65 298.2 229.55 301.0 216.7 284.8 209.15 275.35 203.85 260.3 203.7 259.9 204.8 260.05 205.9 260.2 206.05 260.6 209.95 271.8 217.0 281.05 229.9 297.95 245.95 295.35 250.9 294.55 254.65 291.95 258.3 289.35 259.7 285.65 262.7 277.85 254.5 268.0 252.45 265.45 252.35 260.9 252.25 254.9 252.0 254.1 250.1 247.2 239.8 241.9 231.8 237.75 232.1 233.8 232.15 233.4 233.05 233.5 233.95 233.6 233.9 234.05 233.7 236.45 240.05 239.85 245.65 242.9 248.55 245.25 253.25 249.05 254.45 253.25"/><path fill="#0d131a" d="M163.85 60.9 Q169.0 67.15 170.35 73.25 170.45 73.7 169.7 74.55 168.95 75.35 168.85 74.95 167.65 69.6 162.55 63.5 156.35 56.05 150.4 57.1 145.0 58.05 143.6 64.8 143.0 67.7 142.2 68.95 140.85 70.95 138.05 71.15 135.65 71.3 132.65 68.8 130.35 66.9 126.4 62.15 116.0 49.8 108.3 45.5 100.3 41.1 92.25 41.3 84.15 41.5 80.1 46.25 74.35 52.9 78.05 63.25 81.2 72.1 89.15 79.4 92.2 82.2 93.55 84.15 95.35 86.75 95.2 89.1 95.15 89.5 93.95 88.65 92.7 87.8 92.55 87.35 91.65 84.75 87.7 81.2 78.25 72.5 74.9 62.65 71.15 51.4 77.8 44.1 82.8 38.6 91.75 38.3 100.5 38.0 109.3 42.8 114.4 45.6 119.55 50.85 122.3 53.6 127.8 60.25 131.3 64.5 133.4 66.5 136.25 69.2 137.9 69.05 139.7 68.95 140.4 67.8 140.85 67.1 141.4 64.4 142.2 60.7 143.9 58.15 146.3 54.6 150.0 54.05 157.3 52.95 163.85 60.9"/><path fill="#0d131a" d="M167.85 173.45 L168.65 173.6 Q169.05 173.85 169.1 174.25 169.2 174.7 168.95 175.05 168.7 175.45 168.25 175.5 159.2 176.45 151.1 171.65 148.5 170.1 128.1 154.6 L119.75 148.25 Q116.3 145.65 116.95 144.8 117.55 144.0 121.0 146.6 L129.4 152.95 Q147.0 166.35 152.9 169.75 161.45 174.65 167.85 173.45"/><path fill="#0d131a" d="M251.5 54.7 Q251.9 54.95 250.75 55.5 L249.05 55.55 Q243.5 51.1 238.55 40.6 234.25 31.4 233.5 25.1 232.85 19.95 233.8 20.15 234.7 20.35 235.45 24.5 236.55 30.6 240.8 39.7 246.1 51.1 251.5 54.7"/><path fill="#0d131a" d="M205.35 66.15 Q203.45 63.25 204.3 63.0 205.15 62.75 207.25 65.4 L211.6 69.55 Q214.65 72.1 215.6 72.3 L215.55 72.25 Q216.05 72.3 215.15 73.15 214.25 73.95 213.75 73.6 211.4 72.2 209.0 70.1 206.55 67.95 205.35 66.15"/><path fill="#0d131a" d="M173.4 86.1 Q173.9 85.35 178.0 87.65 182.15 89.9 187.2 91.9 191.55 93.55 192.9 93.7 193.25 93.75 193.3 94.55 193.35 95.4 193.05 95.7 L192.55 95.85 Q191.15 95.85 185.45 93.5 179.7 91.15 176.85 89.35 172.85 86.85 173.4 86.1"/><path fill="#0d131a" d="M281.15 95.7 Q274.3 88.45 264.6 88.45 254.75 88.45 247.95 95.6 241.15 102.75 241.15 113.2 241.15 123.25 247.85 130.0 254.55 136.7 264.6 136.7 274.75 136.7 281.4 130.05 288.0 123.4 288.0 113.2 288.0 102.95 281.15 95.7 M246.45 94.45 Q253.95 86.5 264.6 86.5 275.1 86.5 282.55 94.3 290.0 102.15 290.0 113.2 290.0 124.25 282.8 131.55 275.6 138.8 264.6 138.8 253.85 138.8 246.4 131.55 238.9 124.3 238.9 113.6 238.9 102.35 246.45 94.45"/><path fill="#0d131a" d="M251.25 98.95 Q256.75 93.15 264.45 93.15 272.2 93.15 277.7 98.95 283.15 104.75 283.15 112.95 283.15 121.15 277.7 126.95 272.2 132.75 264.45 132.75 256.75 132.75 251.25 126.95 245.75 121.15 245.75 112.95 245.75 104.8 251.25 98.95"/><path fill="#ffffff" d="M262.5 105.95 Q262.4 102.85 264.4 100.8 266.3 98.8 269.05 98.8 271.9 98.8 273.8 100.75 275.7 102.7 275.7 105.45 275.7 108.2 273.85 110.15 271.95 112.1 269.3 112.1 266.5 112.1 264.65 110.5 262.6 108.8 262.5 105.95"/><path fill="#0d131a" d="M227.15 179.65 Q227.4 179.65 228.05 180.8 228.7 181.95 228.35 182.0 222.05 182.4 217.35 186.4 210.6 192.1 202.4 207.6 200.3 211.55 199.9 210.45 199.5 209.4 201.6 205.3 208.65 191.65 214.95 185.65 220.6 180.25 227.15 179.65"/><path fill="#0d131a" d="M222.85 205.0 Q223.15 204.5 222.9 207.8 222.6 211.3 221.95 213.45 L219.8 220.4 Q218.75 224.15 218.35 227.15 217.8 231.1 217.1 229.75 216.4 228.45 216.9 224.5 217.55 219.7 219.5 213.4 221.35 207.5 222.85 205.0"/><path fill="#ffffff" d="M350.3 125.95 Q351.6 126.2 353.45 127.0 355.65 127.95 356.85 129.15 L356.95 129.2 Q356.65 131.55 355.85 133.3 354.75 136.0 352.75 137.35 351.85 129.9 350.3 125.95"/><path fill="#ed8599" d="M335.8 131.5 Q338.05 131.6 341.35 133.2 344.6 134.8 346.7 136.85 348.0 138.1 349.15 139.85 350.15 141.45 350.35 142.3 347.85 144.15 341.95 145.05 L331.3 145.6 Q330.4 145.55 328.1 144.0 325.8 142.4 324.7 141.15 326.15 137.4 327.35 135.55 L330.15 138.0 334.0 141.5 335.45 141.65 Q336.75 140.9 335.8 131.5"/><path fill="#ffffff" d="M335.25 141.85 L331.05 138.1 327.75 135.2 Q329.4 132.85 330.85 131.6 332.0 130.6 334.95 129.35 335.55 131.75 335.55 136.45 L335.25 141.85"/><path fill="#ed8599" d="M349.65 115.65 Q354.25 114.6 356.2 118.35 357.4 120.65 357.4 124.8 L357.35 128.5 Q353.0 126.5 350.4 126.1 L343.15 126.55 Q335.5 128.0 329.5 132.6 327.95 134.8 326.65 137.35 325.0 140.45 325.15 141.55 L327.1 143.55 Q328.65 144.7 330.95 145.2 L339.9 145.6 Q345.2 145.15 348.6 143.5 351.45 142.2 352.4 137.95 353.8 137.4 356.35 135.75 357.5 138.25 357.4 142.1 357.35 145.95 356.1 148.35 354.0 152.45 344.45 154.65 335.65 156.7 330.7 155.35 324.9 153.8 321.05 151.3 316.85 148.6 316.2 145.45 315.45 142.45 315.45 141.8 315.45 137.95 317.9 132.65 319.75 128.6 322.7 124.4 325.15 120.85 330.7 120.15 L335.4 119.75 340.05 119.0 340.35 118.9 349.65 115.65"/><path fill="#922f00" d="M335.1 129.3 Q338.25 128.15 342.75 127.15 L349.6 125.95 Q350.25 127.1 351.1 132.4 L351.85 138.5 351.5 140.1 350.95 141.6 Q349.85 139.05 347.6 136.7 345.05 134.0 341.8 132.65 338.75 131.35 335.75 131.45 L335.1 129.3"/><path fill="#0d131a" d="M350.2 116.55 L348.55 117.15 Q341.45 119.6 333.5 120.65 327.9 121.45 327.0 122.0 322.85 124.55 319.5 131.45 316.4 137.8 316.4 142.3 316.4 143.1 316.55 143.7 317.25 147.05 321.15 150.05 325.0 153.1 330.5 154.55 334.35 155.55 343.6 153.35 352.85 151.15 354.15 148.9 356.3 145.25 356.3 140.85 356.3 138.4 355.45 136.9 354.3 138.45 352.7 139.1 352.35 139.3 352.0 138.35 351.6 137.4 351.9 137.3 354.1 136.3 355.15 133.25 356.2 130.45 356.2 126.05 356.2 120.2 355.4 118.85 354.9 118.0 353.8 117.25 352.65 116.5 351.65 116.4 L350.2 116.55 M347.95 115.3 Q350.7 114.35 351.65 114.45 353.5 114.75 355.15 115.75 356.75 116.7 357.3 117.75 358.5 119.8 358.5 126.1 358.5 129.45 357.85 131.8 L356.55 135.05 Q357.5 136.25 358.15 137.85 358.8 139.6 358.8 141.2 358.8 143.4 357.95 146.2 357.1 148.85 355.9 150.9 354.2 153.85 344.2 155.75 334.65 157.6 330.0 156.45 324.05 155.05 319.8 151.9 315.4 148.65 314.6 144.8 313.65 140.3 317.0 132.05 320.6 123.15 325.75 120.0 326.55 119.5 328.75 119.2 L333.2 118.7 340.25 117.55 347.95 115.3"/><path fill="#0d131a" d="M331.3 132.35 Q329.55 133.9 327.8 136.65 326.35 138.95 325.65 140.7 326.75 141.9 328.6 143.05 330.45 144.1 331.4 144.15 350.7 145.05 351.05 138.05 L350.35 132.7 Q349.6 128.1 349.0 127.05 344.9 127.45 339.25 129.05 333.05 130.8 331.3 132.35 M329.95 130.9 Q332.4 128.7 340.35 126.5 348.0 124.4 351.15 124.75 352.3 124.9 354.15 125.9 356.2 127.05 357.4 128.5 357.65 128.8 356.9 129.45 356.15 130.1 355.9 129.8 355.0 128.8 353.45 127.95 352.1 127.3 351.15 127.1 351.85 129.15 352.5 133.5 L353.05 138.1 353.05 138.15 Q352.8 143.2 348.2 145.0 343.4 146.9 331.4 146.35 329.9 146.3 327.4 144.7 324.95 143.15 323.75 141.5 323.45 141.15 323.55 140.6 324.05 138.85 325.85 135.95 327.9 132.75 329.95 130.9"/><path fill="#0d131a" d="M334.45 129.9 Q334.4 129.8 335.3 129.35 L336.3 129.25 Q336.85 130.8 337.0 134.85 337.15 139.05 336.65 141.4 336.15 143.9 334.2 142.4 327.7 136.95 327.35 136.8 327.0 136.6 327.45 135.7 327.9 134.8 328.25 135.0 L334.85 140.75 335.15 135.75 Q335.15 131.85 334.45 129.9"/><path fill="#0d131a" d="M336.25 131.05 Q341.0 130.75 345.8 134.35 350.1 137.6 351.0 141.0 351.05 141.3 350.05 142.0 349.05 142.7 349.05 142.3 348.9 139.7 344.75 136.15 340.25 132.3 336.15 132.5 335.75 132.55 335.8 131.8 335.85 131.05 336.25 131.05"/><path fill="#fffbda" d="M342.9 65.95 Q333.95 86.65 331.5 88.95 328.25 92.05 322.45 91.55 316.8 91.05 312.5 87.55 308.0 83.85 306.85 78.05 305.65 71.85 309.45 67.65 313.25 63.45 331.25 51.05 346.3 40.6 355.25 35.15 351.0 47.1 342.9 65.95"/><path fill="#0d131a" d="M330.25 88.1 Q332.75 85.75 341.3 66.7 349.4 48.8 353.35 37.55 344.45 43.0 330.9 52.45 314.4 63.95 310.6 68.15 307.0 72.1 307.65 77.15 308.35 82.3 313.35 86.35 317.95 90.1 322.65 90.55 327.25 90.95 330.25 88.1 M354.8 34.35 Q356.15 33.7 356.4 34.0 356.65 34.25 356.2 35.6 353.45 45.1 344.7 65.45 335.5 86.85 332.5 89.75 328.8 93.25 322.85 92.7 316.9 92.2 311.6 88.0 306.05 83.6 305.3 77.35 304.6 71.3 308.75 66.7 313.25 61.7 333.0 48.3 351.0 36.05 354.8 34.35"/></g></svg>