<?xml version='1.0' encoding='utf-8'?>
<svg xmlns="http://www.w3.org/2000/svg" version="1.1" width="178px" height="127px" viewBox="-1.25 0.0 178.4 126.9"><g><path fill="#0d131a" d="M173.75 69.65 Q172.15 75.3 167.65 77.65 164.3 79.3 158.45 79.5 152.0 79.4 149.35 79.65 144.9 80.1 143.55 82.6 141.1 87.15 145.15 91.0 147.1 92.85 155.15 97.4 162.45 101.5 164.9 104.75 168.6 109.65 165.55 116.0 162.95 121.5 156.3 121.05 148.95 119.5 146.25 120.0 143.2 120.55 139.3 123.9 135.8 126.9 132.55 126.9 129.6 126.9 126.75 125.2 L121.75 121.45 Q114.9 116.1 106.9 116.4 102.95 116.55 99.75 118.1 L94.5 121.35 Q87.75 125.9 79.5 125.9 71.15 125.9 64.4 119.45 L59.1 114.35 Q55.9 111.7 52.6 110.75 47.55 109.3 41.2 110.75 37.7 111.55 30.45 114.35 24.15 116.75 21.3 117.05 16.95 117.5 14.6 114.5 10.45 109.1 17.3 100.8 L22.05 95.1 Q24.05 92.2 22.9 90.65 21.65 88.9 18.35 88.3 L11.95 87.5 Q3.2 86.25 0.75 79.0 -1.25 73.05 2.35 66.6 5.1 61.75 13.05 53.85 L28.3 38.55 Q37.75 28.45 43.8 18.55 L48.25 10.9 Q50.5 7.0 52.25 5.05 56.65 0.0 64.55 0.0 68.8 0.0 74.55 3.6 80.3 7.15 84.75 7.15 89.9 7.15 98.3 3.9 106.15 0.85 111.15 1.3 117.25 1.85 121.2 5.9 124.1 8.9 126.95 15.3 L132.0 26.45 Q135.4 32.8 139.95 36.3 142.85 38.55 150.55 42.35 159.5 46.7 162.95 48.9 177.15 57.8 173.75 69.65"/><path fill="#e097bf" d="M171.7 69.8 Q170.4 74.25 166.1 75.9 163.1 77.05 157.15 77.15 L148.15 77.55 Q143.7 78.3 142.3 81.2 139.6 86.9 143.4 91.35 145.7 94.05 153.1 98.2 160.65 102.45 162.9 104.95 166.75 109.25 164.15 114.7 161.75 119.7 155.35 119.2 148.25 117.7 145.7 118.15 143.0 118.65 139.2 121.75 135.8 124.5 132.1 124.5 130.2 124.5 127.55 122.9 L122.25 119.35 Q114.5 114.3 106.55 114.6 102.8 114.75 99.75 116.2 98.4 116.8 94.75 119.2 88.25 123.5 79.95 123.5 72.5 123.5 65.2 116.85 L59.5 111.85 Q56.2 109.35 52.8 108.7 45.9 107.35 31.05 112.15 24.5 114.3 21.85 114.65 17.65 115.3 15.95 113.35 12.45 109.35 19.2 101.15 L23.9 95.2 Q26.0 92.15 25.1 90.5 23.7 87.8 20.4 86.8 L13.9 85.75 Q9.65 85.25 7.4 84.0 4.15 82.2 2.7 78.1 1.05 73.45 4.9 67.15 7.8 62.5 15.7 54.3 L30.5 38.85 Q39.45 29.0 44.75 20.25 51.55 9.15 53.5 7.0 58.2 1.8 65.05 1.8 69.05 1.8 74.25 5.3 79.4 8.75 85.8 8.7 91.2 8.65 99.15 5.45 106.5 2.5 111.15 2.95 116.35 3.45 119.85 7.5 122.4 10.4 125.2 16.85 L130.25 27.85 Q133.55 34.0 137.9 37.35 140.7 39.5 148.3 43.05 157.25 47.25 160.75 49.35 175.1 58.0 171.7 69.8"/><path fill="#0d131a" d="M100.65 30.85 Q100.6 30.4 100.9 30.05 101.2 29.75 101.65 29.7 102.1 29.65 102.45 29.95 102.8 30.2 102.85 30.7 102.9 31.15 102.6 31.5 L101.85 31.85 Q100.75 31.95 100.65 30.85"/><path fill="#0d131a" d="M70.95 29.55 Q70.9 29.1 71.15 28.75 71.45 28.45 71.9 28.4 73.0 28.3 73.1 29.4 L72.85 30.2 72.1 30.55 Q71.65 30.6 71.3 30.3 L70.95 29.55"/><path fill="#c283a6" d="M7.35 81.15 Q9.6 82.0 13.2 82.5 23.45 83.9 25.9 86.95 28.2 89.8 24.1 94.95 25.95 92.1 25.1 90.5 23.7 87.8 20.4 86.8 L13.9 85.75 Q9.65 85.25 7.4 84.0 4.15 82.2 2.7 78.1 4.7 80.1 7.35 81.15"/><path fill="#c283a6" d="M164.95 73.85 Q169.95 72.4 171.95 68.85 L171.7 69.8 Q170.4 74.25 166.1 75.9 163.1 77.05 157.15 77.15 L148.15 77.55 Q143.7 78.3 142.3 81.2 140.45 85.15 141.65 88.5 138.0 83.75 140.1 79.55 142.25 75.4 148.15 75.4 159.55 75.4 164.95 73.85"/><path fill="#c283a6" d="M48.5 104.1 Q53.55 104.1 57.65 106.65 60.05 108.15 64.1 112.2 68.15 116.25 70.7 117.75 74.9 120.3 80.15 120.3 88.35 120.3 95.3 115.3 99.0 112.65 100.6 111.85 103.85 110.3 107.75 110.3 116.0 110.3 122.8 116.0 L127.55 119.9 Q130.15 121.65 132.7 121.65 135.85 121.65 139.25 118.15 142.65 114.65 147.1 114.65 150.1 114.65 156.3 116.7 160.35 118.0 163.5 115.85 160.95 119.8 154.85 119.15 L149.95 118.35 145.7 118.15 Q143.0 118.65 139.2 121.75 135.8 124.5 132.1 124.5 130.2 124.5 127.55 122.9 L122.25 119.35 Q114.5 114.3 106.55 114.6 102.8 114.75 99.75 116.2 98.4 116.8 94.75 119.2 88.25 123.5 79.95 123.5 72.5 123.5 65.2 116.85 L59.5 111.85 Q56.2 109.35 52.8 108.7 45.9 107.35 31.05 112.15 24.5 114.3 21.85 114.65 17.65 115.3 15.95 113.35 15.3 112.65 15.0 111.8 20.55 115.25 31.1 110.25 L39.75 106.15 Q44.75 104.1 48.5 104.1"/><path fill="#0d131a" d="M85.2 44.2 Q101.6 45.05 108.6 44.7 110.3 44.6 111.9 43.3 112.45 42.85 112.7 43.05 112.95 43.25 112.55 43.8 L110.8 45.4 Q109.9 45.8 108.45 45.9 99.3 46.35 86.0 45.65 L62.15 43.6 60.15 42.85 58.5 41.4 Q57.6 40.25 57.9 40.05 58.15 39.9 59.2 40.8 60.7 42.05 62.35 42.3 L85.2 44.2"/></g></svg>