<svg xmlns="http://www.w3.org/2000/svg" width="120" height="149" version="1.1" viewBox="-0.7 -0.15 120.45 149"><g><path fill="#ba5400" d="M107.15 36.45 Q112.8 43.65 114.45 51.15 118.7 71.0 111.95 86.8 108.9 93.95 103.7 98.15 99.7 101.4 93.65 103.35 90.15 104.5 84.1 104.2 78.5 103.95 74.5 102.8 71.3 101.9 68.7 98.65 66.2 95.45 65.0 91.1 63.95 87.15 64.0 82.2 64.05 78.1 64.7 75.4 65.4 72.45 67.3 69.55 69.05 66.95 72.25 63.75 L77.5 58.2 81.85 53.55 87.3 47.8 Q90.7 43.75 91.5 41.0 92.5 37.55 92.65 35.3 92.8 32.7 92.0 30.4 L90.75 27.05 89.6 25.15 Q94.7 25.75 99.4 28.85 103.05 31.25 107.15 36.45"/><path fill="#ba5400" d="M21.65 37.35 Q20.85 45.0 18.85 49.8 17.1 53.1 14.85 55.9 12.15 59.2 11.4 58.05 9.35 55.05 7.6 49.15 5.7 42.5 5.85 37.05 6.05 30.9 7.3 24.45 8.65 17.55 10.7 13.05 14.4 4.85 18.4 1.0 18.3 5.85 18.85 9.1 L21.25 22.1 Q22.45 29.1 21.65 37.35"/><path fill="#0d131a" d="M16.65 48.55 Q16.4 50.45 14.35 52.25 12.35 54.05 11.9 52.8 10.8 49.75 10.05 44.35 9.35 38.95 9.55 35.45 10.55 18.15 15.7 10.95 L16.3 14.35 Q16.6 16.3 16.85 17.1 L17.7 23.3 Q18.2 28.75 18.05 32.05 L17.45 41.15 16.65 48.55"/><path fill="#ba5400" d="M89.5 47.45 L90.55 47.15 Q90.8 47.25 90.55 48.15 89.85 51.1 88.45 53.55 91.7 52.45 94.85 50.4 96.05 49.65 96.2 50.8 96.85 55.95 96.7 59.0 98.75 57.25 100.4 54.7 L100.95 54.1 Q101.2 54.05 101.35 54.9 L102.1 59.35 Q102.65 62.2 103.1 63.5 104.35 61.45 105.7 56.95 L106.2 56.15 106.8 56.85 109.1 61.05 Q109.75 59.6 110.15 55.65 110.25 54.8 110.45 54.7 L111.2 55.25 113.75 58.85 Q114.1 58.15 114.25 56.45 L114.3 53.6 Q114.25 52.9 114.9 54.5 115.45 55.95 115.3 56.85 115.15 58.4 114.6 59.35 L113.9 60.3 113.0 59.35 111.2 57.05 Q110.8 60.05 110.1 61.6 L109.4 62.65 Q109.2 62.7 108.6 62.05 107.85 61.2 106.45 58.75 105.25 62.6 104.0 64.7 103.2 66.1 102.8 65.9 102.4 65.7 102.0 64.05 L100.45 56.8 Q99.3 58.35 97.05 59.95 96.2 60.55 95.95 60.4 95.7 60.25 95.7 59.25 95.7 56.2 95.15 51.5 L90.9 53.8 87.8 55.05 Q86.95 55.25 86.8 55.05 86.65 54.8 87.0 54.0 L89.35 48.75 Q86.25 50.75 84.65 51.05 L85.25 50.05 Q86.0 49.0 86.25 48.9 L89.5 47.45"/><path fill="#fff1ac" d="M87.15 49.1 L85.9 49.4 Q88.05 47.2 89.7 44.45 91.45 41.6 92.0 39.25 93.2 34.05 91.65 29.75 90.3 26.0 89.5 24.9 91.55 24.9 94.75 26.25 98.2 27.7 101.15 30.1 107.0 34.75 110.65 41.85 113.45 47.4 115.35 55.35 114.9 58.05 113.95 59.75 L110.85 55.8 Q110.45 59.65 109.2 61.95 108.15 60.75 106.25 57.2 104.95 61.65 103.0 64.7 101.8 61.1 100.8 55.0 L98.65 57.75 96.3 59.85 96.1 54.85 95.55 50.7 91.3 53.0 87.45 54.65 88.9 51.55 Q89.85 49.35 90.0 48.0 L87.15 49.1"/><path fill="#933f00" d="M115.2 56.1 Q117.1 68.7 114.65 78.7 112.1 89.25 107.1 95.1 100.6 102.7 89.15 104.05 L78.85 103.75 Q74.05 103.0 71.8 101.8 70.9 101.35 69.45 98.55 L68.2 95.85 Q87.7 97.35 99.5 87.45 111.05 77.8 113.35 59.0 L113.95 59.75 Q114.7 58.4 115.2 56.1"/><path fill="#dcd096" d="M115.2 56.1 Q114.7 58.4 113.95 59.75 L113.35 59.0 113.45 58.5 113.65 54.0 113.6 49.1 114.45 51.85 115.2 56.05 115.2 56.1"/><path fill="#0d131a" d="M89.15 25.25 L88.95 24.45 89.75 24.35 Q102.1 26.25 110.25 39.3 119.75 54.45 116.15 76.05 113.2 94.15 100.6 101.1 88.85 107.65 72.1 102.9 70.55 102.45 70.65 101.95 L72.25 101.85 Q88.45 106.05 99.5 99.8 111.4 93.05 114.25 75.85 117.65 55.2 108.95 40.4 101.55 27.8 90.55 25.65 94.7 33.4 92.55 40.0 90.8 45.45 84.55 52.0 L76.95 59.8 Q70.35 66.7 68.05 69.95 65.3 73.85 64.75 78.85 64.2 83.9 66.05 89.1 66.65 90.8 66.2 90.9 65.75 91.05 65.0 89.1 62.85 83.45 63.35 78.2 63.85 73.1 66.75 69.0 69.05 65.75 75.3 59.2 L83.1 51.2 87.65 46.05 Q89.85 43.2 91.1 40.15 93.65 33.75 89.15 25.25"/><path fill="#0d131a" d="M17.75 0.85 Q18.6 -0.15 18.9 0.05 19.2 0.2 19.1 1.45 18.95 5.1 19.45 9.1 19.8 11.85 20.8 16.45 22.85 25.9 22.65 33.0 22.45 40.75 19.6 48.8 19.15 50.1 18.7 50.0 18.3 49.85 18.7 48.5 21.2 40.55 21.25 32.0 21.25 25.1 19.65 16.65 17.95 8.25 17.95 3.4 L18.0 2.15 Q9.7 12.55 7.45 28.25 5.1 44.85 11.35 56.85 11.9 57.9 11.4 58.2 10.95 58.45 10.4 57.4 3.0 43.25 6.2 25.9 9.0 10.85 17.75 0.85"/><path fill="#0d131a" d="M14.95 10.75 Q15.65 9.65 15.95 9.7 16.25 9.75 16.45 11.2 L17.35 16.8 Q18.65 23.6 18.65 31.7 18.65 40.5 17.05 48.75 L16.3 48.95 15.95 48.7 Q17.55 40.75 17.55 32.0 17.6 23.8 16.25 17.0 L15.45 12.0 Q11.1 18.8 10.4 32.7 9.75 45.45 12.25 51.75 12.45 52.25 12.0 52.6 11.55 52.95 11.3 52.35 8.65 45.45 9.25 32.9 9.95 18.6 14.95 10.75"/><path fill="#fff1ac" d="M16.35 91.4 Q22.4 87.4 33.6 82.85 L51.45 76.15 Q57.0 73.2 62.8 74.85 L61.6 76.25 Q60.65 77.5 60.25 78.5 62.4 78.25 65.45 79.2 68.0 80.0 69.15 80.8 66.7 81.05 64.05 82.8 L65.35 84.0 66.85 85.9 Q66.05 85.75 64.4 85.9 L61.75 86.4 Q62.35 87.35 62.6 90.55 L63.7 92.75 65.1 95.9 63.45 95.15 Q62.45 94.7 61.7 94.6 62.3 95.45 63.4 98.65 64.6 102.1 65.0 104.35 65.35 106.65 65.0 109.15 64.7 111.4 64.05 112.1 64.25 116.7 62.15 119.9 L60.35 116.75 59.35 120.3 Q58.4 123.3 57.85 124.1 L55.95 122.1 53.55 119.35 Q53.15 120.9 53.5 123.35 50.95 122.9 47.9 120.4 45.65 118.6 43.75 116.25 L43.3 117.6 42.8 119.55 40.95 117.9 40.7 119.2 39.85 121.95 Q39.6 120.95 38.15 118.5 37.6 122.25 34.95 125.8 34.95 124.6 33.65 122.3 32.65 125.0 28.85 132.4 28.25 130.85 24.95 127.35 L21.8 124.15 21.9 126.55 Q18.5 124.65 15.4 120.45 12.05 115.9 11.65 111.85 L10.9 112.8 Q10.05 114.0 9.65 115.1 8.75 112.85 9.4 108.0 9.85 104.45 10.65 101.95 L9.7 102.35 Q8.85 102.65 8.35 103.15 8.5 100.25 11.6 96.25 14.05 93.05 16.35 91.4"/><path fill="#ba5400" d="M17.75 129.65 L19.0 124.55 21.85 126.45 21.95 124.3 Q22.9 124.9 25.25 127.65 27.65 130.4 28.15 131.5 28.65 132.6 29.4 131.9 29.0 133.65 26.9 138.0 26.25 139.4 25.4 140.15 24.55 140.95 23.0 141.5 19.85 142.7 17.85 141.5 L15.45 141.55 Q14.65 141.25 14.5 140.6 L12.9 140.4 Q12.5 140.15 12.25 139.45 11.75 138.25 13.1 137.15 L16.35 134.4 Q16.65 134.0 17.75 129.65"/><path fill="#ba5400" d="M40.95 117.9 L42.9 119.45 Q43.1 117.85 43.85 116.35 L46.4 118.95 49.0 121.2 47.15 128.8 44.65 138.95 Q42.8 145.6 40.5 147.05 39.5 147.75 38.4 147.85 L36.45 147.7 Q35.1 148.35 33.85 148.05 32.8 147.8 32.25 147.05 28.85 147.05 29.15 144.35 29.2 144.0 30.15 142.6 L31.3 140.85 31.8 136.4 32.35 125.95 Q32.95 124.0 33.65 122.3 L35.0 125.7 Q36.05 124.6 37.2 121.5 L38.2 118.6 38.9 119.75 39.85 121.95 40.95 117.9"/><path fill="#ba5400" d="M61.75 94.6 L65.0 95.9 Q64.45 93.4 62.6 90.5 62.7 88.5 61.65 86.3 62.25 86.0 64.2 85.85 L67.3 85.75 Q70.05 87.2 71.7 89.0 73.45 90.9 75.2 94.3 76.2 96.25 76.9 98.9 L78.15 104.2 78.75 109.35 Q79.05 113.15 79.4 114.85 80.1 118.2 83.25 125.9 L83.65 128.05 83.7 132.2 Q83.65 137.85 82.3 141.25 81.85 142.4 80.4 143.2 L77.95 144.25 74.6 144.45 70.4 144.25 Q69.45 144.1 68.85 143.5 L68.25 142.4 Q68.15 141.65 70.05 139.4 70.55 138.75 70.55 136.1 L70.4 134.15 Q70.1 132.85 69.3 132.1 L62.7 124.75 61.45 128.55 59.0 134.55 Q57.8 137.05 56.3 139.05 55.0 140.75 54.3 141.15 L50.95 141.25 Q49.1 141.85 47.55 141.2 L45.7 140.85 Q44.95 140.45 44.8 139.95 44.7 139.5 45.15 138.45 45.6 137.4 46.35 136.45 47.5 135.05 48.2 131.95 48.4 131.2 48.1 129.55 L47.35 126.75 48.0 124.55 48.9 121.25 Q52.35 123.35 53.5 123.7 L53.5 119.1 Q54.15 120.35 58.1 123.85 59.3 122.2 60.35 116.75 L62.25 119.95 Q62.85 119.05 63.45 116.45 64.05 113.85 64.1 111.75 65.05 110.5 65.1 107.3 65.15 104.6 64.65 102.25 63.95 99.05 61.75 94.6"/><path fill="#ba5400" d="M42.3 48.6 Q43.85 51.15 44.3 51.35 L44.6 49.7 46.9 52.3 Q49.5 55.6 50.8 59.2 54.3 68.8 52.45 77.0 50.0 88.2 43.35 92.6 39.0 95.5 33.7 96.8 L21.35 97.2 Q15.25 96.15 9.8 91.75 5.2 88.1 2.8 83.75 -0.7 77.3 1.7 73.7 L4.0 69.65 Q5.05 67.3 6.25 62.55 6.85 60.05 8.4 57.3 9.85 54.6 11.85 52.45 12.2 47.95 12.85 47.4 L14.45 49.95 15.15 47.25 17.15 48.75 16.6 46.45 Q18.65 47.6 20.6 47.6 L19.75 46.05 23.1 46.8 23.75 43.8 25.6 45.15 27.05 46.5 26.7 42.3 31.3 46.0 31.75 42.4 33.55 44.55 36.1 47.05 37.1 44.5 38.25 46.45 40.1 48.7 40.55 46.9 40.85 46.15 42.3 48.6"/><path fill="#933f00" d="M65.45 107.7 Q66.5 114.3 66.2 119.75 65.95 123.55 65.0 127.45 L61.75 123.6 Q60.0 121.35 59.6 120.4 L60.5 116.9 Q61.95 119.15 62.2 119.9 64.35 116.5 64.05 112.0 L65.45 107.7"/><path fill="#933f00" d="M48.85 120.9 Q51.85 122.85 53.45 123.45 53.2 122.05 53.35 118.7 53.75 119.75 55.55 121.55 L58.15 123.75 Q58.9 123.35 59.5 120.3 L60.7 121.9 62.7 124.85 Q61.45 129.2 57.75 136.85 55.25 134.35 52.15 133.5 49.4 132.7 47.75 133.5 48.15 132.75 48.1 130.65 48.1 128.5 47.7 126.55 L48.2 124.35 48.85 120.9"/><path fill="#933f00" d="M40.6 119.4 L40.7 117.7 43.05 119.65 Q43.05 118.7 43.8 115.8 44.1 116.65 48.95 121.15 L47.05 128.9 45.15 137.7 Q41.8 134.4 37.7 133.6 34.3 132.95 32.0 134.1 L32.25 126.3 Q32.6 125.9 33.55 121.85 L35.0 125.5 Q36.35 124.4 37.4 121.2 L38.15 118.25 38.8 119.55 40.1 121.8 Q40.45 121.2 40.6 119.4"/><path fill="#933f00" d="M17.35 131.25 Q18.2 129.2 19.0 124.25 L21.9 126.35 Q21.7 125.45 21.8 123.85 L24.0 126.3 26.5 128.95 27.7 130.8 29.05 132.85 Q28.4 135.0 27.55 136.6 25.25 133.1 22.05 131.85 19.75 130.95 17.35 131.25"/><path fill="#dcd096" d="M40.75 107.1 Q40.35 106.65 40.2 105.75 L39.75 103.85 41.55 105.15 41.7 103.95 Q41.7 102.75 41.85 102.7 42.5 104.5 42.6 106.3 42.7 107.75 42.4 108.3 42.3 108.5 41.75 108.1 L40.75 107.1"/><path fill="#dcd096" d="M41.2 114.8 Q41.15 119.3 40.1 121.7 L38.05 118.2 36.95 122.4 Q36.15 124.9 34.8 125.95 L33.65 122.5 32.6 125.05 31.15 128.0 Q29.2 130.9 28.8 131.85 L24.9 127.45 21.85 124.05 21.85 125.75 21.85 126.5 Q20.35 125.5 18.2 123.5 15.95 121.45 15.1 120.25 13.95 118.7 12.85 115.65 11.9 113.1 11.65 111.6 L10.6 113.3 Q9.95 114.35 9.85 114.9 9.65 114.3 9.75 112.25 9.85 111.15 10.55 109.6 11.2 108.0 11.9 107.35 13.0 110.75 15.0 113.15 L19.15 117.5 Q19.75 114.55 20.35 112.9 21.9 116.05 23.55 117.55 25.7 119.55 27.3 121.75 L29.7 117.55 Q31.55 114.15 31.6 111.75 L33.75 115.05 Q35.4 117.5 35.7 118.45 L36.95 115.6 Q37.6 113.4 37.65 111.4 38.2 112.05 39.2 115.4 40.5 113.2 40.65 108.0 41.25 111.05 41.2 114.8"/><path fill="#dcd096" d="M56.45 84.1 L59.15 83.8 62.95 83.7 Q62.1 82.85 59.4 82.05 60.45 81.3 64.2 80.05 62.75 79.25 60.2 78.7 L65.2 79.1 Q67.9 79.85 68.8 80.8 67.85 80.95 65.8 81.85 L64.0 82.7 65.25 83.95 Q66.6 85.3 66.95 85.95 L64.85 85.85 61.65 86.2 Q62.25 86.6 62.75 90.8 60.45 86.3 56.45 84.1"/><path fill="#dcd096" d="M61.35 110.85 Q61.9 106.95 61.3 101.65 62.4 102.8 63.25 104.3 63.4 103.35 63.0 100.5 62.55 97.5 61.95 95.6 63.35 97.75 64.15 100.25 L65.1 104.7 Q65.45 106.7 65.15 108.6 64.9 110.5 64.1 111.75 64.3 113.95 63.7 116.3 63.1 118.4 62.2 119.55 L61.0 117.9 60.3 117.1 Q59.55 122.6 58.15 123.8 55.1 121.7 53.45 119.25 53.3 123.15 53.45 123.75 51.4 122.85 48.3 120.55 44.8 118.0 43.7 116.25 43.05 117.7 43.05 119.4 L41.95 118.9 40.85 118.1 Q41.3 114.15 41.05 110.2 L41.65 112.25 Q42.1 113.6 42.65 114.35 L43.0 112.25 43.45 109.7 46.95 113.25 Q49.25 115.15 51.45 116.3 51.95 112.55 52.6 111.0 54.7 114.3 57.3 115.85 L58.7 112.8 Q59.45 110.95 59.8 108.45 L61.35 110.85"/><path fill="#dcd096" d="M60.85 93.9 L62.1 93.8 64.35 94.3 Q65.15 95.65 64.9 95.9 L62.8 95.05 Q60.75 94.2 60.85 93.9"/><path fill="#933f00" d="M33.7 96.8 L21.35 97.2 Q16.65 96.35 12.15 93.5 20.15 96.25 27.85 95.45 34.8 94.75 40.05 91.35 44.75 88.35 47.7 83.9 50.45 79.75 50.95 75.5 L50.95 74.65 50.95 74.25 52.9 74.3 52.45 77.0 Q50.0 88.2 43.35 92.6 39.0 95.5 33.7 96.8"/><path fill="#dcd096" d="M16.15 95.6 Q20.85 98.05 28.2 97.5 34.8 97.05 40.0 94.6 43.2 93.1 45.4 91.0 47.6 88.95 49.3 85.9 48.9 90.25 45.0 94.1 41.55 97.5 36.65 99.3 29.15 102.0 22.25 100.15 16.0 98.55 16.15 95.6"/><path fill="#0d131a" d="M12.7 93.95 L13.75 93.8 Q14.4 94.05 14.0 94.4 10.55 97.85 9.5 101.9 L10.6 101.1 Q11.4 100.55 11.55 100.7 11.8 100.85 11.3 101.95 10.05 104.8 9.8 108.4 9.65 111.15 10.1 113.15 L11.0 111.55 Q11.55 110.7 11.85 110.7 12.15 110.65 12.3 111.75 12.8 115.45 15.25 119.1 17.65 122.75 21.35 125.35 L21.4 123.85 21.55 123.2 22.3 123.9 25.25 127.0 Q27.45 129.0 28.6 131.0 L30.25 128.3 Q32.5 124.85 33.05 122.5 33.3 121.4 33.5 121.35 33.7 121.3 34.15 122.2 L34.95 124.5 Q36.9 122.6 37.6 118.1 37.75 117.05 37.95 117.05 L38.55 117.9 39.65 120.4 Q40.55 117.75 40.55 112.95 40.5 107.65 39.2 104.0 38.8 102.8 39.0 102.7 39.15 102.6 40.0 103.3 L41.15 104.25 Q41.05 102.7 40.2 100.35 L38.05 95.65 Q37.75 95.15 38.25 94.95 38.7 94.8 39.0 95.3 40.7 98.05 41.65 100.85 42.7 103.7 42.5 105.4 42.35 106.8 42.0 106.7 41.7 106.65 40.55 105.2 41.55 109.15 41.65 114.1 41.75 119.5 40.6 121.9 L39.85 122.85 Q39.65 122.85 39.2 121.85 L38.25 119.65 Q37.45 123.25 35.6 125.9 L34.7 126.7 Q34.5 126.7 34.35 125.9 L33.7 123.35 Q32.75 126.45 31.25 128.8 L30.25 130.7 29.35 132.6 Q28.95 133.5 28.65 133.4 28.45 133.35 28.0 132.5 26.35 129.4 24.7 127.8 L22.25 125.25 22.3 126.7 Q22.3 127.25 22.0 127.2 L21.0 126.6 Q17.2 124.1 14.65 120.45 12.15 116.85 11.35 113.0 L10.55 114.95 Q10.1 115.95 9.8 115.9 9.5 115.8 9.1 114.75 8.45 112.8 8.65 109.45 8.85 106.15 9.7 103.1 L8.8 104.25 Q8.1 105.25 7.75 104.95 7.4 104.65 7.7 102.95 8.65 98.0 12.7 93.95"/><path fill="#0d131a" d="M51.15 82.25 Q50.8 82.1 50.95 81.55 51.1 81.05 51.45 81.15 57.45 83.3 61.55 87.95 64.6 91.4 65.35 94.4 65.85 96.3 65.6 96.5 65.35 96.75 63.9 96.0 L62.65 95.4 Q65.4 100.65 65.75 105.65 66.05 110.35 64.15 113.75 64.0 114.0 64.15 110.35 65.05 107.9 64.4 103.75 63.65 99.0 61.2 94.85 60.75 94.1 60.9 93.9 L61.85 93.95 63.95 94.85 Q63.1 92.05 60.4 88.8 56.55 84.25 51.15 82.25"/><path fill="#0d131a" d="M63.4 104.8 Q63.75 104.75 64.0 106.15 64.75 110.25 64.5 113.95 64.25 117.65 63.0 119.85 L62.15 120.85 Q61.9 120.85 61.4 119.75 L60.35 117.35 Q60.25 117.2 60.5 116.6 60.7 116.0 60.8 116.3 60.95 116.95 62.0 118.5 63.35 116.2 63.55 112.7 L63.3 106.3 Q63.1 104.9 63.4 104.8"/><path fill="#0d131a" d="M60.8 114.3 Q61.05 114.4 60.95 116.05 L60.2 120.0 59.1 123.3 Q58.45 124.6 58.05 124.7 57.75 124.75 56.8 123.9 L55.0 121.9 53.9 120.4 54.05 122.9 Q54.35 124.5 53.0 124.0 50.8 123.25 48.15 121.25 45.3 119.15 43.9 117.1 L43.5 119.2 43.2 120.3 42.4 119.85 Q41.35 119.0 40.65 117.95 40.55 117.8 40.75 117.4 40.95 117.05 41.1 117.2 L42.6 118.65 43.3 115.6 43.65 115.0 44.3 115.8 Q45.65 117.85 48.25 119.9 50.7 121.85 52.95 122.8 52.75 120.95 52.95 119.4 53.05 118.25 53.2 118.2 L54.15 119.05 Q56.7 122.35 58.0 122.8 59.3 120.35 60.15 116.0 60.5 114.2 60.8 114.3"/><path fill="#0d131a" d="M52.5 75.5 L52.7 74.95 Q55.3 74.0 58.0 73.75 L62.2 73.95 Q63.6 74.3 63.7 74.7 63.8 75.15 62.6 76.1 L60.95 77.85 Q65.95 78.05 68.95 79.9 69.9 80.5 69.9 80.85 69.85 81.2 68.9 81.45 65.6 82.25 64.75 82.85 66.75 84.4 67.35 85.35 67.8 86.1 67.55 86.3 L66.1 86.45 62.35 86.7 Q62.95 87.8 63.2 89.25 63.5 90.75 63.25 91.6 63.2 91.9 62.05 89.9 62.3 88.15 61.25 86.7 L60.9 86.0 Q60.95 85.85 61.5 85.7 L65.9 85.3 Q65.4 84.3 64.0 83.35 L63.35 82.75 Q63.3 82.5 63.9 82.15 65.7 81.05 67.5 80.6 63.95 78.9 60.2 78.9 59.55 78.9 59.45 78.7 59.35 78.5 59.7 77.8 60.4 76.6 61.65 75.4 60.55 74.95 58.25 74.95 55.3 74.9 52.75 75.85 52.5 75.95 52.5 75.5"/><path fill="#0d131a" d="M18.4 124.05 Q18.45 123.85 19.1 124.35 L19.75 125.0 Q18.4 130.85 16.8 134.75 L15.15 136.35 Q12.7 138.0 12.7 139.0 12.65 139.6 13.2 140.0 13.75 140.45 14.55 140.35 14.8 140.35 14.8 140.8 14.85 141.2 14.6 141.2 13.3 141.2 12.45 140.6 11.55 139.95 11.55 139.0 11.6 138.0 12.55 137.05 L14.45 135.6 15.8 134.25 17.35 128.95 18.4 124.05"/><path fill="#0d131a" d="M15.4 138.0 Q16.25 137.55 16.35 137.7 16.5 137.8 15.9 138.3 14.35 139.6 15.0 140.5 15.25 140.9 16.2 141.1 L17.65 140.95 Q17.85 140.85 18.05 141.3 18.2 141.7 18.0 141.75 15.4 142.5 14.2 141.1 13.65 140.45 13.95 139.55 14.3 138.6 15.4 138.0"/><path fill="#0d131a" d="M19.45 138.95 Q17.85 140.2 18.15 140.95 18.4 141.65 20.3 141.4 L23.1 140.8 Q24.65 140.2 25.25 139.45 27.15 137.0 28.85 131.35 L31.7 127.1 Q31.0 130.2 29.3 134.2 27.6 138.2 26.15 140.15 25.25 141.35 23.1 142.0 L19.65 142.5 Q17.65 142.5 17.25 141.6 16.6 139.95 19.15 138.5 19.9 138.05 20.0 138.2 L19.45 138.95"/><path fill="#0d131a" d="M31.55 127.15 Q31.5 127.0 32.15 125.9 32.8 124.8 32.85 125.0 33.0 127.2 32.6 132.85 32.25 138.6 31.75 141.0 L30.95 142.45 Q29.8 143.95 29.75 144.8 29.75 145.65 30.4 146.2 31.1 146.7 31.95 146.55 32.2 146.5 32.25 146.9 32.35 147.3 32.1 147.35 30.85 147.55 29.85 146.95 28.65 146.25 28.6 144.85 28.55 143.7 30.05 142.0 L30.7 140.75 Q31.1 138.7 31.35 134.1 L31.55 127.15"/><path fill="#0d131a" d="M32.55 144.3 Q33.2 143.65 33.4 143.75 L33.15 144.65 Q32.25 146.0 32.5 146.7 32.75 147.15 34.0 147.45 L35.8 147.25 Q36.65 146.55 37.0 145.45 37.3 144.5 37.6 144.5 37.85 144.5 37.65 145.45 37.2 147.6 36.45 148.1 35.4 148.85 33.75 148.5 32.15 148.15 31.7 147.15 31.1 145.85 32.55 144.3"/><path fill="#0d131a" d="M48.25 120.9 L48.95 121.1 49.55 121.65 Q46.85 132.0 46.2 135.2 44.4 143.7 42.5 145.9 41.15 147.4 39.45 148.0 L36.1 148.1 Q35.75 148.0 36.0 147.65 36.25 147.25 36.55 147.3 39.3 147.8 41.35 145.3 43.3 142.95 45.0 135.05 L46.55 127.95 48.25 120.9"/><path fill="#0d131a" d="M47.3 128.4 Q47.2 128.1 47.6 126.95 47.95 125.85 48.05 126.25 48.65 128.15 48.8 130.75 48.9 133.0 47.0 136.5 L46.3 137.6 45.65 138.7 Q45.4 139.5 45.7 140.05 46.05 140.65 47.15 140.65 47.8 141.45 47.5 141.45 45.25 141.6 44.6 140.55 44.1 139.75 44.6 138.65 L46.15 136.1 Q47.9 132.75 47.65 130.7 L47.3 128.4"/><path fill="#0d131a" d="M47.7 138.45 Q48.4 137.8 48.6 137.95 L48.2 138.75 Q47.6 139.5 47.6 140.15 47.55 140.7 48.45 140.9 L50.95 140.8 51.25 141.1 51.15 141.55 48.0 141.8 Q46.6 141.55 46.65 140.4 46.75 139.35 47.7 138.45"/><path fill="#0d131a" d="M51.3 139.0 Q52.0 138.3 52.2 138.4 52.45 138.5 51.9 139.25 51.0 140.45 51.45 140.8 L52.6 141.0 54.05 140.65 Q55.65 139.85 58.0 135.15 60.5 130.2 62.0 124.3 62.1 123.85 62.65 124.55 63.2 125.2 63.1 125.6 61.7 130.4 59.15 135.35 56.4 140.7 54.45 141.6 53.5 142.1 52.25 142.05 51.05 141.95 50.6 141.45 49.75 140.6 51.3 139.0"/><path fill="#0d131a" d="M59.35 121.35 Q59.15 121.1 59.5 120.2 59.85 119.35 60.05 119.7 62.8 124.5 67.45 129.15 69.95 131.6 70.5 132.75 70.85 133.4 70.95 135.65 L70.85 138.85 69.85 140.5 Q68.9 141.8 68.85 142.35 68.8 143.55 70.15 143.8 70.65 144.5 70.35 144.5 69.25 144.5 68.5 143.85 67.75 143.25 67.8 142.3 67.85 141.5 68.75 140.25 L69.9 138.5 Q70.15 137.7 70.0 135.8 L69.6 133.5 66.5 129.9 63.7 127.0 Q61.4 124.45 59.35 121.35"/><path fill="#0d131a" d="M70.6 142.85 Q70.45 143.55 70.7 143.8 71.0 144.15 72.1 144.2 L74.15 143.95 74.55 144.3 74.6 144.75 72.05 145.15 Q70.5 145.1 69.95 144.5 69.35 143.85 69.65 142.9 69.9 142.0 70.85 141.2 71.65 140.5 71.8 140.7 72.0 140.9 71.35 141.55 70.8 142.15 70.6 142.85"/><path fill="#0d131a" d="M66.35 85.95 Q66.15 85.85 66.1 85.05 66.1 84.25 66.3 84.3 72.35 86.8 75.7 93.85 79.1 100.95 79.55 112.1 79.65 115.1 82.2 121.5 83.9 125.7 84.05 126.95 84.65 131.35 84.05 136.2 83.4 141.55 81.8 142.8 80.0 144.2 77.35 144.9 74.7 145.55 73.9 144.9 73.35 144.45 73.7 143.45 74.05 142.4 75.2 141.6 76.0 141.05 76.15 141.25 76.35 141.45 75.65 142.05 L74.85 143.1 Q74.55 143.7 74.8 143.9 L77.35 143.8 Q79.5 143.2 81.1 141.95 82.25 141.0 82.8 136.35 83.35 131.7 82.85 127.0 82.8 126.35 81.35 122.45 78.55 115.15 78.4 112.15 77.85 101.8 74.7 94.95 71.55 88.1 66.35 85.95"/><path fill="#0d131a" d="M17.25 47.3 L17.65 48.7 17.75 49.3 17.25 49.25 15.35 48.05 14.8 49.85 14.45 50.5 Q14.25 50.5 13.9 50.0 L13.05 48.7 Q12.45 50.15 12.25 52.95 L12.0 53.9 Q11.75 54.15 11.6 53.7 9.5 56.2 8.0 59.4 7.35 60.8 6.45 63.7 L5.05 68.0 4.15 70.35 3.25 72.3 Q1.5 75.0 1.6 77.05 1.75 82.55 6.6 88.0 11.5 93.55 18.5 95.8 25.25 97.95 33.2 96.2 41.5 94.4 46.0 89.3 50.0 84.75 51.55 77.45 52.9 71.1 51.95 65.35 50.6 57.35 45.0 50.75 L44.55 51.8 43.6 51.1 Q42.0 49.5 40.8 47.5 L40.4 48.75 40.15 49.2 Q40.0 49.3 39.6 48.9 38.2 47.6 37.15 45.6 L36.65 47.2 36.35 47.65 35.9 47.45 Q34.15 46.3 31.95 43.5 L31.8 45.95 31.6 46.75 30.9 46.3 27.05 43.1 27.35 46.1 27.2 46.9 26.45 46.45 23.95 44.45 23.7 46.6 23.5 47.05 23.1 47.1 20.6 46.6 21.05 47.45 21.2 47.9 20.6 48.0 Q19.05 48.0 17.25 47.3 M44.2 49.2 L44.35 48.65 45.0 49.1 Q51.55 56.8 53.05 65.0 54.2 71.05 52.8 77.95 51.3 85.5 47.35 90.1 42.65 95.55 33.85 97.45 25.5 99.25 18.35 96.95 10.75 94.55 5.4 88.8 0.05 83.0 0.0 77.05 -0.05 74.75 1.8 71.75 L3.8 67.5 5.35 63.25 6.95 58.95 Q8.75 54.95 11.45 52.15 11.5 49.3 12.45 47.05 12.85 46.05 13.3 47.0 L14.3 49.1 Q14.45 47.55 14.7 46.65 14.9 46.05 15.4 46.65 L16.65 48.15 16.15 46.5 Q16.0 45.85 16.15 45.75 L16.8 45.9 Q19.15 47.1 20.05 47.3 19.45 46.8 19.0 45.75 18.75 44.95 19.65 45.35 21.8 46.15 22.9 46.35 L23.2 43.6 Q23.2 42.9 23.4 42.8 23.6 42.75 24.1 43.15 L26.6 45.65 26.1 42.1 Q26.0 41.3 26.25 41.25 26.45 41.25 27.05 41.75 L30.95 45.25 Q30.8 43.15 31.05 41.85 31.2 40.65 32.0 41.7 34.7 45.45 35.95 46.45 L36.55 44.25 36.95 43.6 37.5 44.2 39.8 47.95 40.2 45.75 Q40.5 44.7 41.05 45.75 42.9 49.15 44.15 50.5 L44.2 49.2"/><path fill="#ba5400" d="M89.05 59.9 Q80.75 67.9 73.4 70.5 69.25 72.0 60.35 73.35 L51.1 74.35 Q50.1 74.25 48.85 69.05 47.55 63.8 48.5 62.65 50.35 60.3 53.05 58.25 56.15 55.85 59.6 54.4 68.0 50.95 77.6 50.6 84.1 50.35 97.05 51.15 92.55 56.55 89.05 59.9"/><path fill="#0d131a" d="M82.8 60.85 Q74.45 66.6 67.8 68.3 L58.9 69.95 53.4 70.35 Q52.15 70.3 51.8 68.3 51.45 66.3 52.3 65.15 53.8 63.05 57.2 60.75 61.5 57.75 66.45 56.35 72.25 54.7 79.6 54.35 L89.4 54.7 Q86.0 58.6 82.8 60.85"/><path fill="#ba5400" d="M50.85 65.45 L55.9 65.35 53.1 68.2 55.9 68.05 53.9 69.55 52.5 70.45 Q51.4 71.15 50.7 68.35 50.0 65.45 50.85 65.45"/><path fill="#ed8599" d="M11.65 84.6 Q11.75 83.55 12.5 82.35 13.35 80.95 14.6 80.3 L16.05 81.0 17.75 82.15 Q19.55 83.65 21.95 84.95 21.0 87.15 18.75 88.75 16.5 90.4 14.8 90.15 13.5 89.95 12.65 88.4 11.75 86.9 11.65 84.6"/><path fill="#922f00" d="M11.55 79.8 L13.2 79.7 14.85 80.25 Q13.7 80.6 12.7 82.05 11.95 83.15 11.5 84.5 11.35 83.95 11.35 82.5 L11.55 79.8"/><path fill="#0d131a" d="M96.85 50.45 L97.75 50.75 Q97.9 51.05 97.3 51.75 86.1 65.05 76.75 69.8 67.55 74.45 52.3 74.75 50.9 74.8 50.95 74.25 50.95 73.7 52.35 73.65 66.15 73.35 76.1 68.3 86.05 63.25 96.05 51.5 76.6 50.55 66.8 52.8 57.2 55.0 49.75 62.05 48.95 62.85 48.75 62.4 48.5 61.95 49.25 61.1 55.85 53.8 66.05 51.45 76.5 49.1 96.85 50.45"/><path fill="#0d131a" d="M55.75 64.75 Q57.55 64.8 56.2 65.9 54.85 67.15 53.7 67.85 L56.05 67.6 Q56.8 67.6 56.75 67.9 L56.1 68.7 Q55.25 69.35 53.05 70.4 L52.4 70.35 Q51.85 70.25 52.0 70.15 L53.2 69.55 55.0 68.4 53.1 68.6 52.3 68.5 Q52.25 68.3 52.85 67.65 L54.8 65.8 51.7 65.8 Q50.8 65.75 50.8 65.5 50.85 65.3 51.7 65.1 L55.75 64.75"/><path fill="#0d131a" d="M88.85 54.05 Q89.9 54.15 90.0 54.5 90.05 54.85 89.3 55.55 81.0 63.8 73.0 67.1 65.0 70.4 52.8 70.65 51.85 70.7 51.85 70.35 51.8 70.05 52.75 69.95 64.75 69.1 72.65 65.85 80.7 62.5 88.35 55.1 75.2 53.8 64.6 57.65 56.3 60.65 52.7 65.2 L51.6 65.25 Q62.15 52.05 88.85 54.05"/><path fill="#0d131a" d="M7.85 66.0 Q9.0 63.3 10.6 61.85 12.2 60.3 13.5 60.8 14.65 61.25 14.65 63.75 14.65 66.0 13.7 68.6 12.6 71.75 11.05 73.1 9.7 74.3 8.4 73.85 7.05 73.4 6.85 71.2 6.6 68.95 7.85 66.0"/><path fill="#0d131a" d="M35.15 67.05 Q37.1 67.35 37.95 70.05 38.85 72.9 37.6 76.55 36.45 80.0 34.5 81.5 32.65 82.95 30.6 82.2 28.75 81.5 28.05 79.25 27.3 76.9 28.2 73.95 29.3 70.25 31.6 68.35 33.5 66.8 35.15 67.05"/><path fill="#fff" d="M12.8 61.9 Q13.2 62.05 13.35 62.7 13.5 63.5 13.1 64.6 12.45 66.75 10.95 66.25 10.5 66.1 10.35 65.4 10.2 64.65 10.5 63.8 11.0 62.65 11.7 62.15 12.3 61.75 12.8 61.9"/><path fill="#0d131a" d="M14.45 59.1 Q13.9 58.45 14.15 58.1 14.45 57.75 15.05 58.3 16.15 59.3 16.05 61.5 16.0 62.6 15.8 62.6 15.55 62.65 15.4 61.6 15.2 59.85 14.45 59.1"/><path fill="#fff" d="M34.8 68.35 Q35.5 68.5 35.75 69.3 36.05 70.15 35.6 71.5 35.2 72.7 34.45 73.25 33.75 73.8 33.0 73.55 32.2 73.3 32.0 72.5 31.75 71.6 32.2 70.45 32.65 69.25 33.45 68.7 34.1 68.2 34.8 68.35"/><path fill="#0d131a" d="M33.7 64.0 Q34.85 63.75 34.95 64.2 35.05 64.65 33.85 64.95 31.95 65.5 30.85 66.8 30.05 67.7 29.85 67.5 29.6 67.35 30.3 66.4 31.75 64.35 33.7 64.0"/><path fill="#0d131a" d="M13.8 74.85 Q14.0 74.6 15.4 75.25 16.85 75.9 16.75 76.2 16.7 76.5 15.85 76.7 15.0 76.9 14.7 76.7 L13.95 75.8 Q13.6 75.05 13.8 74.85"/><path fill="#0d131a" d="M18.4 83.25 Q14.4 80.15 13.1 80.15 L11.7 80.2 10.35 80.3 Q9.55 80.3 9.1 79.8 8.55 79.2 8.75 78.25 8.9 77.6 9.2 77.65 9.45 77.65 9.5 78.3 9.5 79.5 10.45 79.45 L13.15 79.25 Q14.1 79.3 15.9 80.4 L19.0 82.5 Q22.0 84.75 22.55 84.8 L23.4 84.45 Q23.85 83.9 24.1 84.05 24.35 84.15 24.1 84.8 23.7 85.95 22.4 85.7 L18.4 83.25"/><path fill="#0d131a" d="M11.05 79.85 Q11.05 79.65 11.6 79.65 12.1 79.7 12.1 79.9 11.85 84.35 12.5 86.7 13.1 89.05 14.65 89.6 15.9 90.1 17.75 88.9 19.8 87.55 21.4 84.75 L22.0 84.85 Q22.45 85.1 22.35 85.3 20.55 88.3 18.0 89.75 15.85 90.95 14.4 90.45 12.75 89.9 11.85 87.55 10.8 84.75 11.05 79.85"/><path fill="#0d131a" d="M14.35 80.1 Q14.65 80.0 15.0 80.35 15.35 80.7 14.95 80.75 13.9 80.95 12.95 82.4 12.05 83.75 12.1 84.85 12.15 85.5 11.85 84.95 11.6 84.4 11.65 83.75 11.85 82.55 12.55 81.55 13.35 80.45 14.35 80.1"/></g></svg>