<?xml version='1.0' encoding='utf-8'?>
<svg xmlns="http://www.w3.org/2000/svg" version="1.1" width="239px" height="287px" viewBox="-0.15 -0.05 239.0 286.7"><g><path fill="#5dc1cf" d="M19.9 189.65 Q8.55 181.95 1.0 181.75 12.7 170.6 29.8 168.95 48.3 167.15 64.3 178.05 57.45 162.1 61.8 148.95 64.55 140.75 70.4 135.75 77.6 129.5 82.25 117.75 93.0 135.75 89.55 155.95 86.0 176.45 70.25 183.5 L67.4 186.65 Q57.05 196.95 42.25 196.65 29.9 196.35 19.9 189.65"/><path fill="#50a8b4" d="M1.3 181.85 Q10.85 178.55 26.2 186.55 32.85 190.0 44.75 189.8 57.0 189.6 65.7 185.6 L67.35 186.55 Q62.8 191.6 55.3 194.35 47.4 197.2 38.4 196.6 31.35 196.15 19.05 189.1 6.95 182.05 1.3 181.85"/><path fill="#50a8b4" d="M70.15 183.4 L69.1 182.75 Q81.25 172.3 84.65 153.1 87.9 134.95 82.05 118.15 86.75 126.15 88.75 135.85 90.8 145.65 89.6 154.9 86.9 176.2 70.15 183.4"/><path fill="#0d131a" d="M77.25 129.15 Q74.85 132.5 70.5 136.8 62.25 145.05 61.15 156.1 60.1 166.75 65.75 179.35 L63.55 177.75 Q57.05 163.25 59.9 151.6 62.0 143.0 69.4 135.6 73.65 131.3 76.25 127.6 79.7 122.6 81.25 117.3 81.6 116.15 82.0 116.15 82.35 116.2 82.85 117.2 88.95 128.55 90.7 141.05 92.45 153.7 89.2 163.55 84.75 176.85 71.15 183.75 L69.6 182.9 Q82.45 176.5 87.0 162.85 89.75 154.45 88.6 142.45 87.4 129.8 82.2 119.2 80.7 124.35 77.25 129.15"/><path fill="#0d131a" d="M21.55 191.85 Q14.45 187.4 11.5 185.9 5.6 182.95 1.0 182.65 0.15 182.6 0.0 182.2 -0.15 181.8 0.45 181.25 6.85 175.4 14.9 171.9 23.15 168.25 31.75 167.75 41.55 167.15 50.4 170.0 59.75 173.0 66.45 179.45 67.1 180.1 66.85 180.45 66.55 180.8 65.85 180.25 57.8 174.3 49.4 171.85 41.3 169.5 31.85 170.05 14.3 171.15 2.65 181.35 7.35 181.8 13.0 184.6 L22.55 190.1 Q32.45 196.05 44.15 195.65 57.4 195.15 66.95 186.15 L68.2 186.95 Q58.1 197.25 44.45 197.95 32.4 198.6 21.55 191.85"/><path fill="#5dc1cf" d="M93.05 93.55 Q94.9 89.0 99.15 83.5 102.6 88.15 108.55 92.7 113.7 96.65 118.05 98.55 120.35 92.65 125.2 85.55 129.55 79.15 132.5 76.55 139.7 78.4 147.45 86.7 154.8 94.5 156.2 100.7 156.75 103.3 156.35 113.15 155.9 123.65 154.7 126.35 153.25 129.8 144.85 137.4 135.9 145.5 131.35 146.45 126.65 147.4 115.65 143.95 105.15 140.65 101.6 137.55 98.6 134.95 94.85 125.0 91.95 117.3 90.25 110.2 90.3 100.4 93.05 93.55"/><path fill="#0d131a" d="M134.6 113.75 Q133.0 106.4 136.55 101.05 140.15 95.65 147.25 94.8 150.25 99.4 150.4 104.15 150.55 108.5 148.45 110.75 146.7 112.7 142.95 113.65 138.75 114.7 134.6 113.75"/><path fill="#0d131a" d="M100.6 121.65 Q98.05 120.65 96.55 117.3 95.0 113.7 95.3 108.75 100.4 106.9 105.4 109.85 110.55 112.9 111.9 119.1 110.35 121.0 107.05 121.85 L100.6 121.65"/><path fill="#5dc1cf" d="M165.5 152.55 Q169.95 161.15 180.0 169.55 188.3 176.4 197.8 181.25 210.95 188.0 217.15 197.65 222.4 205.75 221.65 213.7 217.45 217.45 205.55 219.3 193.35 221.25 188.95 218.45 183.7 222.55 178.05 225.5 172.6 228.35 169.05 229.05 L158.4 229.65 Q153.45 245.45 144.55 263.15 142.85 266.5 140.3 268.4 137.7 270.35 135.85 269.35 L130.65 269.5 Q126.0 269.8 125.3 265.6 124.65 261.55 127.95 258.6 133.5 253.5 139.95 225.75 134.0 223.65 126.95 220.2 126.85 218.7 126.25 217.7 125.75 216.9 125.1 216.75 L119.05 195.05 Q114.75 178.85 114.7 168.4 L165.5 152.55"/><path fill="#922f00" d="M124.7 139.75 Q121.35 137.05 118.35 132.0 119.7 131.25 121.05 129.55 122.6 127.65 123.0 125.75 126.05 127.0 129.1 127.55 L134.0 127.8 Q134.7 131.4 134.7 135.15 L129.05 135.65 Q125.65 136.75 124.7 139.75"/><path fill="#ed8599" d="M124.6 139.9 Q125.3 137.25 128.2 135.95 131.1 134.6 134.75 135.4 134.75 137.55 134.05 139.3 133.2 141.45 131.6 141.95 129.9 142.5 128.2 141.95 L124.6 139.9"/><path fill="#00568a" d="M93.55 85.25 Q92.0 87.9 90.9 91.05 89.85 94.1 89.6 96.5 76.3 85.05 55.95 78.3 36.8 71.9 12.5 70.0 28.1 67.3 53.2 72.25 77.05 77.0 93.55 85.25"/><path fill="#00568a" d="M172.55 63.3 Q156.15 79.4 156.2 100.7 152.95 92.4 146.7 85.9 140.2 79.2 132.5 76.55 129.25 79.5 125.3 85.55 121.4 91.45 118.2 98.25 113.8 97.5 108.0 92.65 103.6 88.9 99.15 83.5 95.4 87.45 92.95 94.05 90.1 101.85 90.35 110.6 86.6 97.65 93.85 85.2 100.95 73.0 113.7 69.25 123.15 66.5 133.65 69.15 141.55 71.15 148.3 75.6 163.3 60.4 180.95 50.05 201.4 38.05 222.9 34.2 188.55 47.6 172.55 63.3"/><path fill="#fff8b0" d="M36.4 92.0 Q35.0 83.0 28.05 77.3 22.3 72.55 13.5 70.6 33.6 70.4 56.3 78.55 77.25 86.0 89.45 96.25 88.8 102.15 90.35 110.6 91.8 118.4 94.1 123.55 85.9 124.7 79.2 127.45 71.8 130.6 68.05 135.1 68.55 120.8 60.85 108.6 51.95 94.55 36.4 92.0"/><path fill="#fff8b0" d="M214.25 44.5 Q211.35 51.05 213.0 58.9 199.5 69.15 194.35 82.6 188.4 98.0 193.1 118.0 187.3 113.0 175.95 110.3 166.55 108.05 156.45 107.95 L156.35 102.05 156.3 95.35 Q157.3 76.35 177.05 59.35 194.5 44.3 220.85 35.2 216.15 40.1 214.25 44.5"/><path fill="#ffffff" d="M85.9 73.05 Q87.55 69.35 86.65 65.75 92.2 66.9 96.65 63.3 100.75 60.0 100.85 55.6 105.6 57.5 113.5 55.6 121.55 53.65 125.45 49.4 130.15 54.7 136.55 54.4 141.85 54.15 146.4 50.35 147.9 54.85 151.95 57.75 155.9 60.6 160.3 60.6 160.75 63.05 161.4 64.0 153.6 70.4 148.3 75.6 131.15 64.65 114.75 69.15 100.75 72.95 93.55 85.25 91.1 84.05 86.85 82.35 82.6 80.7 80.0 79.9 84.15 77.0 85.9 73.05"/><path fill="#ffffff" d="M170.6 109.15 Q177.3 110.35 181.7 112.05 181.15 114.45 181.8 117.65 182.5 121.3 184.4 124.2 177.0 128.45 174.45 135.65 172.2 142.2 174.55 149.0 167.55 150.1 161.45 155.75 155.0 161.7 153.15 169.55 145.2 166.35 136.2 168.3 127.7 170.2 121.8 175.75 117.05 168.95 109.35 165.5 102.05 162.25 95.7 163.5 93.85 155.75 88.7 151.05 83.9 146.65 78.0 146.45 78.05 137.5 71.8 131.75 79.55 125.65 94.1 123.55 95.65 127.8 97.35 131.3 99.8 136.35 101.55 137.75 105.35 140.6 115.9 144.15 127.75 148.15 131.55 146.45 137.85 143.7 145.7 136.5 153.0 129.85 154.55 126.15 156.25 122.25 156.45 107.95 162.95 107.8 170.6 109.15"/><path fill="#50a8b4" d="M142.75 265.95 Q139.2 270.3 135.7 269.4 134.55 270.0 133.15 269.95 131.8 269.95 130.85 269.4 128.15 270.55 126.2 267.85 124.3 265.2 125.6 262.2 125.9 263.15 126.85 263.6 L128.85 263.65 Q129.5 265.3 131.1 265.65 132.65 266.0 134.15 264.95 136.2 267.15 140.2 264.9 144.7 262.35 148.2 255.5 145.8 262.2 142.75 265.95"/><path fill="#50a8b4" d="M168.15 204.6 Q166.85 209.95 167.8 217.0 168.7 224.1 171.3 228.25 168.55 229.4 164.35 229.7 161.0 229.95 158.25 229.6 164.15 213.15 168.15 204.6"/><path fill="#50a8b4" d="M167.65 209.4 Q169.35 216.15 175.65 218.75 181.85 221.3 188.85 218.55 179.0 225.9 171.3 228.25 169.5 225.25 168.55 220.65 167.5 215.55 167.65 209.4"/><path fill="#50a8b4" d="M125.4 180.15 Q127.55 186.2 133.4 192.75 139.5 199.6 144.85 201.4 L143.2 210.05 Q137.0 205.1 132.35 197.3 127.6 189.4 125.4 180.15"/><path fill="#00426f" d="M89.5 96.2 Q77.25 85.75 56.95 78.75 36.2 71.55 12.65 69.9 33.45 69.3 54.95 75.25 75.75 81.05 90.65 91.1 L89.5 96.2"/><path fill="#00426f" d="M176.7 59.85 Q156.0 77.25 156.0 99.9 L153.5 94.65 Q151.9 91.5 150.9 90.15 155.1 72.2 176.5 56.15 196.3 41.3 221.7 34.45 191.2 47.6 176.7 59.85"/><path fill="#ddd698" d="M15.95 71.1 Q31.5 70.15 54.2 77.8 77.15 85.55 89.5 96.2 L89.15 99.95 89.1 103.9 Q87.35 102.6 81.55 99.75 72.9 89.7 51.4 81.0 32.55 73.35 15.95 71.1"/><path fill="#ddd698" d="M37.4 92.05 Q47.2 88.55 65.1 93.45 81.1 97.8 89.25 104.05 89.3 105.4 89.8 108.2 L90.65 112.1 83.6 111.75 Q79.95 103.8 63.75 97.3 48.35 91.15 37.4 92.05"/><path fill="#ddd698" d="M64.65 116.0 Q68.6 113.7 76.7 112.4 85.15 111.0 90.65 112.1 91.85 117.95 93.95 123.7 L89.95 124.3 Q86.6 118.8 81.8 116.55 75.05 113.45 64.65 116.0"/><path fill="#ddd698" d="M165.7 84.4 Q162.5 87.5 155.95 97.6 156.8 76.8 176.55 59.55 193.35 44.9 220.5 35.25 200.05 46.05 186.8 56.85 169.05 71.25 165.7 84.4"/><path fill="#ddd698" d="M167.2 95.65 Q160.2 98.2 156.2 101.65 L156.1 97.05 Q174.45 66.6 212.2 59.3 197.6 65.0 183.95 75.25 168.35 86.95 167.2 95.65"/><path fill="#ddd698" d="M191.75 93.0 Q182.55 93.1 174.75 97.6 166.9 102.15 165.25 108.4 L156.3 108.1 156.2 101.65 Q162.95 96.5 172.2 94.15 181.95 91.65 191.75 93.0"/><path fill="#dbdcdc" d="M85.65 81.8 Q88.4 81.6 90.2 79.7 91.95 77.85 91.8 75.45 96.65 75.2 99.9 72.05 102.8 69.15 103.55 64.85 108.25 67.15 114.95 65.2 121.8 63.2 123.9 58.5 125.8 63.0 132.3 64.0 138.6 65.0 143.0 61.8 143.2 65.65 146.8 68.2 150.3 70.75 154.35 70.1 L148.55 75.55 Q133.0 65.45 116.7 68.75 101.0 72.0 93.55 85.5 86.6 82.2 85.65 81.8"/><path fill="#dbdcdc" d="M181.7 112.1 Q174.25 110.75 170.6 113.0 167.35 115.0 168.1 119.05 163.35 119.9 161.5 125.9 159.65 131.85 162.5 136.7 156.45 136.3 151.2 141.45 146.1 146.45 145.6 152.75 141.25 149.35 133.8 151.1 126.3 152.8 124.1 157.75 121.9 152.7 115.85 150.85 110.45 149.2 105.45 150.75 105.1 145.95 100.75 142.2 96.35 138.4 91.4 138.75 88.9 133.55 84.45 131.6 79.15 129.3 71.75 132.2 74.7 129.0 82.15 126.35 88.85 124.0 93.95 123.7 95.25 127.45 97.4 131.55 99.8 136.1 101.4 137.55 104.5 140.4 114.9 144.0 126.4 147.95 131.2 146.55 136.6 145.0 145.15 137.25 153.5 129.7 154.8 125.6 155.45 123.6 155.95 117.75 156.4 111.95 156.3 108.1 169.25 107.7 181.7 112.1"/><path fill="#ce7486" d="M126.2 137.3 Q127.7 135.85 130.5 135.3 L134.7 135.55 134.2 139.5 Q133.15 137.55 131.0 136.9 128.7 136.2 126.2 137.3"/><path fill="#0d131a" d="M173.6 61.15 Q189.15 46.9 216.15 36.25 200.0 39.75 181.9 50.7 164.1 61.35 148.75 76.5 L148.1 76.55 Q139.75 70.65 129.55 69.3 119.25 67.9 110.35 71.55 101.55 75.15 95.55 83.9 89.0 93.5 90.05 103.75 91.05 113.1 95.3 124.3 99.4 135.15 102.4 137.2 107.3 140.6 116.85 143.6 127.0 146.8 131.3 145.7 135.5 144.6 144.05 137.05 152.75 129.35 153.9 125.45 154.95 121.9 155.4 113.75 155.8 106.35 155.4 102.5 153.25 79.8 173.6 61.15 M222.4 33.35 Q224.2 33.15 224.4 33.75 224.6 34.4 222.9 35.05 199.1 44.15 184.4 54.75 155.15 75.8 157.3 102.4 157.8 108.85 157.2 116.55 156.65 123.0 155.8 126.05 154.6 130.2 145.25 138.2 136.15 146.0 131.7 147.15 126.9 148.4 116.05 145.05 106.1 142.0 101.3 138.65 98.1 136.45 93.8 125.2 89.3 113.6 88.3 103.9 87.1 92.55 94.65 82.15 101.1 73.3 109.65 69.8 118.7 66.15 129.25 67.45 139.8 68.8 148.3 74.7 163.45 58.05 184.0 46.8 203.8 35.95 222.4 33.35"/><path fill="#0d131a" d="M124.95 48.9 L126.0 48.95 Q129.1 53.1 135.25 53.55 141.7 54.0 146.0 49.7 146.7 49.0 147.05 49.95 148.45 54.1 152.4 57.0 156.25 59.8 160.35 59.85 160.95 59.85 161.0 60.55 161.1 62.2 162.1 63.65 L160.9 64.65 Q160.45 64.05 160.1 63.05 L159.7 61.25 Q155.2 61.1 151.5 58.5 147.6 55.8 146.15 51.4 141.7 55.55 135.65 55.35 129.4 55.15 125.35 50.25 121.3 54.55 114.05 56.35 107.05 58.1 101.5 56.5 100.7 61.7 96.5 64.65 92.45 67.45 87.45 66.65 87.85 70.5 86.45 73.8 84.7 77.75 80.45 80.15 L78.8 79.45 Q83.05 77.3 84.95 73.0 86.5 69.45 85.95 65.8 85.85 65.35 86.1 65.15 L86.75 65.05 Q90.85 66.4 95.15 63.55 99.55 60.55 100.15 55.5 100.2 54.6 101.0 54.85 106.05 56.6 113.55 54.65 120.75 52.75 124.95 48.9"/><path fill="#0d131a" d="M96.75 80.8 L95.95 81.9 Q91.95 77.35 89.3 72.45 88.7 71.35 89.1 71.15 89.5 70.9 90.15 72.0 93.4 76.95 96.75 80.8"/><path fill="#0d131a" d="M107.45 71.8 L106.3 72.5 Q105.15 70.7 103.95 67.6 102.75 64.4 102.3 61.95 102.15 60.9 102.6 60.85 103.1 60.75 103.3 61.8 103.7 63.85 105.05 67.0 106.3 70.05 107.45 71.8"/><path fill="#0d131a" d="M123.9 68.0 L122.65 68.0 Q123.1 57.7 123.95 53.6 124.25 52.25 124.7 52.35 125.15 52.45 124.95 53.85 124.5 56.85 123.9 68.0"/><path fill="#0d131a" d="M139.7 70.95 L138.5 70.45 Q139.8 67.15 141.7 63.2 143.7 59.15 145.15 56.75 145.75 55.8 146.15 56.05 146.55 56.25 146.0 57.25 142.85 62.9 139.7 70.95"/><path fill="#0d131a" d="M91.9 94.45 Q94.0 88.35 98.6 82.95 99.15 82.35 99.6 82.95 102.6 86.85 107.95 91.4 113.9 96.35 117.6 97.55 125.3 82.0 131.95 75.85 132.2 75.65 132.4 75.7 138.6 77.3 145.7 83.7 154.0 91.15 156.2 99.7 L156.25 104.95 Q154.75 95.4 146.55 86.8 139.4 79.3 132.65 77.45 126.85 82.9 118.55 98.95 118.4 99.35 117.95 99.2 113.9 98.15 108.0 93.4 102.45 89.0 99.2 84.7 93.95 91.05 92.15 99.3 90.8 105.35 91.25 113.1 L89.85 108.55 Q89.8 100.6 91.9 94.45"/><path fill="#0d131a" d="M106.8 109.75 Q111.45 113.15 112.5 119.1 112.75 120.25 112.3 120.35 111.85 120.4 111.55 119.3 110.2 114.05 106.05 111.0 103.55 109.15 100.55 108.8 97.5 108.35 94.4 109.55 L93.25 109.5 Q93.1 109.05 94.05 108.6 97.4 107.1 100.8 107.45 104.05 107.8 106.8 109.75"/><path fill="#0d131a" d="M112.25 119.7 Q109.6 122.15 105.75 122.7 102.4 123.2 99.85 122.05 97.15 120.85 95.75 117.05 94.3 113.2 94.95 108.7 L95.9 108.4 Q95.5 112.5 96.85 116.1 98.2 119.65 100.45 120.65 102.75 121.7 105.85 121.3 109.3 120.9 111.85 118.8 L112.25 119.7"/><path fill="#0d131a" d="M147.95 94.2 Q149.1 94.15 149.15 94.6 149.2 95.05 148.0 95.2 141.3 96.0 137.6 101.05 133.85 105.95 134.8 113.5 134.95 114.6 134.45 114.6 134.0 114.65 133.8 113.55 133.2 109.45 133.75 106.4 134.35 103.2 136.4 100.3 140.15 94.75 147.95 94.2"/><path fill="#0d131a" d="M146.7 94.85 L147.8 94.75 Q150.75 98.7 151.1 103.8 151.4 108.45 149.5 110.7 147.4 113.25 143.15 114.25 138.75 115.3 134.35 114.05 L134.45 113.1 Q138.85 113.9 142.65 113.0 146.4 112.1 148.3 109.8 150.0 107.8 149.65 103.3 149.25 98.55 146.7 94.85"/><path fill="#0d131a" d="M121.5 121.2 Q120.9 121.0 120.85 120.65 120.75 120.3 122.3 119.95 123.85 119.6 123.95 119.95 124.05 120.3 123.6 120.75 123.2 121.2 122.6 121.3 L121.5 121.2"/><path fill="#0d131a" d="M139.85 124.3 Q140.4 123.75 140.7 123.95 141.0 124.15 140.55 124.8 138.15 128.2 133.05 128.5 128.45 128.7 123.45 126.45 121.55 131.5 118.15 132.75 115.1 133.85 112.9 131.4 112.3 130.75 112.5 130.5 112.75 130.25 113.45 130.75 116.0 132.5 118.25 131.35 120.75 130.1 122.65 125.45 122.85 124.95 123.3 125.15 128.15 127.2 132.25 127.2 137.2 127.25 139.85 124.3"/><path fill="#0d131a" d="M133.25 127.8 L134.6 127.65 Q135.55 133.55 135.25 136.75 134.8 141.2 131.95 142.45 128.75 143.85 124.5 140.55 120.5 137.45 117.9 132.25 L119.1 131.6 Q121.55 136.45 125.0 139.4 128.75 142.65 131.5 141.45 133.75 140.45 134.05 136.85 134.25 133.95 133.25 127.8"/><path fill="#0d131a" d="M125.05 140.1 L124.2 139.55 Q124.9 136.8 128.15 135.4 131.3 134.0 134.8 134.75 L134.7 136.0 Q131.7 135.25 128.75 136.4 125.6 137.6 125.05 140.1"/><path fill="#0d131a" d="M89.8 95.6 L89.45 97.4 Q75.6 85.9 55.6 79.1 36.05 72.45 12.85 71.05 11.2 71.0 11.1 70.35 11.05 69.7 12.65 69.4 29.15 66.2 54.4 71.15 78.25 75.85 94.35 84.45 L93.4 86.15 Q78.15 78.85 57.45 74.15 34.55 68.9 18.0 70.1 39.45 71.55 58.35 78.35 76.75 84.95 89.8 95.6"/><path fill="#0d131a" d="M180.85 116.95 Q180.5 114.25 180.95 111.75 L182.45 112.25 Q181.85 115.1 182.7 118.45 183.45 121.45 185.25 124.15 185.55 124.6 185.1 124.85 178.15 128.45 175.4 135.2 172.7 141.95 175.3 149.0 175.5 149.6 174.9 149.65 168.15 150.75 161.45 157.2 154.75 163.7 153.9 169.95 153.8 170.6 153.2 170.3 147.0 167.3 137.25 169.3 127.55 171.3 122.05 176.65 121.65 177.05 121.3 176.55 117.4 170.75 110.6 167.2 103.0 163.25 95.65 164.3 95.2 164.4 95.1 163.95 93.85 157.7 88.8 152.55 83.45 147.05 77.85 147.2 77.3 147.3 77.35 146.7 77.65 143.25 75.6 138.7 73.55 134.15 70.9 132.45 L71.9 131.45 Q74.95 133.15 77.0 137.65 79.0 142.0 78.75 145.9 84.75 146.0 90.0 151.3 94.95 156.35 96.4 162.85 104.45 161.75 111.6 165.5 117.8 168.75 121.85 174.75 127.5 169.4 136.8 167.55 146.05 165.7 152.7 168.6 154.0 161.8 160.2 155.75 166.45 149.75 173.55 148.4 171.1 141.35 173.4 134.95 175.95 128.05 183.4 124.0 181.35 120.7 180.85 116.95"/><path fill="#0d131a" d="M36.05 92.85 Q35.7 92.8 35.6 92.4 35.2 85.15 28.6 79.0 21.95 72.8 12.4 70.95 L14.25 70.1 Q23.9 72.05 30.1 77.85 36.3 83.65 36.95 91.3 50.7 93.55 59.85 105.75 69.0 117.9 68.8 133.7 72.9 129.15 80.3 126.25 86.6 123.75 93.8 122.95 L94.45 124.25 Q87.05 125.1 80.5 127.8 73.0 130.9 68.65 135.6 68.05 136.25 67.75 136.1 67.5 135.95 67.5 135.05 67.7 119.55 58.55 107.35 49.45 95.25 36.05 92.85"/><path fill="#0d131a" d="M167.0 117.95 Q172.95 119.0 177.15 120.4 178.3 120.8 178.15 121.25 L176.85 121.35 166.7 119.15 156.15 117.85 156.3 116.55 167.0 117.95"/><path fill="#0d131a" d="M168.0 140.4 Q168.95 141.2 168.65 141.55 168.35 141.95 167.35 141.15 159.0 134.7 151.15 131.45 L152.0 130.35 Q156.3 132.15 160.0 134.5 163.65 136.8 168.0 140.4"/><path fill="#0d131a" d="M139.95 141.5 L141.1 140.6 Q142.3 144.0 145.45 150.55 148.7 157.2 151.15 161.25 151.65 162.2 151.3 162.45 150.9 162.65 150.3 161.8 147.6 157.75 144.3 151.2 141.2 145.05 139.95 141.5"/><path fill="#0d131a" d="M123.6 146.15 L124.95 146.35 Q124.55 151.05 124.75 168.25 124.8 169.75 124.3 169.75 123.85 169.75 123.75 168.25 123.05 153.15 123.6 146.15"/><path fill="#0d131a" d="M110.55 142.25 L111.85 142.7 101.5 157.7 Q100.9 158.75 100.5 158.55 100.1 158.35 100.65 157.25 103.05 152.75 110.55 142.25"/><path fill="#0d131a" d="M99.0 134.25 L99.7 135.35 Q90.15 140.1 86.0 142.8 84.85 143.55 84.6 143.15 84.35 142.8 85.45 142.0 89.9 138.8 99.0 134.25"/><path fill="#0d131a" d="M37.1 92.35 L36.15 91.3 Q46.85 88.2 62.75 92.1 77.3 95.65 89.15 103.05 L89.35 104.8 Q77.75 97.6 63.25 93.8 47.3 89.6 37.1 92.35"/><path fill="#0d131a" d="M64.8 116.4 L64.3 115.15 Q69.9 112.55 77.95 111.5 85.1 110.6 90.7 111.25 L90.95 112.85 Q85.4 112.25 78.35 113.05 70.35 114.0 64.8 116.4"/><path fill="#0d131a" d="M213.15 44.8 Q215.75 38.15 220.8 34.7 L223.4 34.5 Q218.1 37.0 215.1 44.8 212.1 52.55 213.85 59.1 213.95 59.45 213.7 59.6 199.45 70.8 194.8 84.55 190.1 98.35 193.9 118.15 194.1 119.0 193.65 119.25 193.15 119.5 192.35 118.8 186.7 113.75 175.25 111.05 165.95 108.8 156.65 108.8 L156.7 107.25 Q165.25 107.25 174.1 109.15 185.8 111.7 192.1 116.65 188.35 99.15 192.05 86.25 196.5 70.85 212.1 58.8 210.35 51.9 213.15 44.8"/><path fill="#0d131a" d="M212.8 58.5 L212.3 59.7 Q193.35 63.5 178.15 74.35 163.25 84.95 156.2 99.3 L155.95 96.8 Q162.9 82.65 178.6 72.05 194.3 61.5 212.8 58.5"/><path fill="#0d131a" d="M191.8 92.35 L191.65 93.5 Q181.95 92.15 170.7 95.55 161.0 98.45 156.25 102.55 L156.15 100.8 Q161.25 96.55 170.95 93.9 182.0 90.85 191.8 92.35"/><path fill="#0d131a" d="M171.3 180.05 Q171.2 178.6 171.65 178.55 172.1 178.55 172.3 180.0 173.95 191.05 168.2 206.7 L163.4 218.5 Q160.6 225.15 159.75 228.2 155.15 244.3 145.1 263.75 143.45 266.95 140.8 268.6 138.15 270.25 133.85 270.7 130.25 271.1 127.75 269.95 125.4 268.85 124.65 266.7 124.0 264.85 124.55 262.85 125.1 260.6 126.95 258.65 129.3 256.2 130.95 252.65 131.95 250.55 133.55 245.9 136.3 238.0 140.35 219.9 146.0 194.85 146.55 178.95 146.6 177.65 147.05 177.7 147.5 177.7 147.55 179.0 147.7 195.1 142.15 220.45 138.3 237.8 135.25 246.6 133.65 251.05 132.45 253.5 130.7 257.05 128.25 259.65 125.8 262.25 126.3 265.4 126.8 268.45 129.35 268.95 128.2 267.55 128.05 265.65 127.95 263.75 128.95 262.3 129.3 261.75 129.65 262.0 130.05 262.25 129.75 262.8 128.7 264.85 129.9 267.2 131.25 269.85 134.4 269.25 132.45 267.1 134.05 263.0 134.3 262.3 134.75 262.45 135.2 262.55 135.0 263.25 133.95 267.9 136.05 268.7 137.6 269.3 139.8 267.8 142.15 266.2 143.75 263.05 152.75 245.4 158.1 227.7 L166.6 205.5 Q172.05 190.4 171.3 180.05"/><path fill="#0d131a" d="M133.55 194.35 Q127.85 188.2 125.35 180.95 125.0 179.8 125.4 179.65 125.8 179.45 126.3 180.55 129.3 187.4 134.55 193.05 139.65 198.55 144.8 200.6 L144.4 202.25 Q138.85 200.05 133.55 194.35"/><path fill="#0d131a" d="M113.7 168.0 L115.55 169.15 Q115.95 178.6 118.25 188.55 119.5 193.95 122.65 204.2 125.2 212.6 125.95 216.9 L124.15 216.75 Q123.75 214.65 122.55 211.1 L120.4 204.65 Q114.4 185.3 113.7 168.0"/><path fill="#0d131a" d="M177.45 189.15 Q178.3 188.55 178.55 188.9 178.85 189.25 178.1 189.9 170.75 196.25 168.9 207.4 167.05 218.7 172.1 228.0 L170.3 228.75 Q165.0 218.5 167.25 206.7 169.45 195.05 177.45 189.15"/><path fill="#0d131a" d="M194.0 204.45 Q194.6 203.55 194.95 203.75 195.35 203.95 194.85 204.95 193.4 208.0 191.75 213.5 191.4 214.75 191.0 214.65 190.6 214.5 190.8 213.2 191.2 210.9 192.05 208.55 192.95 205.95 194.0 204.45"/><path fill="#ffffff" d="M138.95 99.9 Q140.15 99.45 141.45 100.65 142.65 101.8 143.15 103.7 143.55 105.25 143.25 106.75 142.9 108.4 141.85 108.75 140.7 109.15 139.45 108.1 138.2 107.05 137.65 105.3 137.1 103.65 137.4 102.05 137.75 100.35 138.95 99.9"/><path fill="#ffffff" d="M103.55 109.8 Q104.65 109.6 105.55 110.6 106.4 111.55 106.9 113.45 107.3 115.05 106.85 116.4 106.35 117.75 105.25 117.95 104.3 118.15 103.35 117.25 102.4 116.35 101.9 114.55 101.45 112.9 102.0 111.45 102.5 110.05 103.55 109.8"/><path fill="#5dc1cf" d="M66.05 185.7 Q63.95 184.55 65.7 183.1 67.5 181.7 69.25 182.85 L72.75 184.75 111.75 210.65 Q141.75 232.7 169.05 229.05 171.85 228.65 177.7 225.5 182.9 222.6 188.95 218.45 197.7 212.4 209.8 208.7 222.75 204.7 227.35 207.6 234.65 221.7 232.8 234.2 231.15 245.55 222.15 254.35 213.75 262.6 200.55 267.15 187.65 271.65 173.2 271.65 148.2 271.65 128.7 256.15 117.05 246.85 103.15 226.95 91.3 209.9 84.7 202.15 74.8 190.45 66.05 185.7"/><path fill="#00568a" d="M199.95 176.25 L203.8 175.85 Q204.8 176.35 206.2 180.1 207.7 184.2 209.2 185.5 211.1 187.1 215.15 187.5 219.1 187.95 219.6 188.45 220.4 189.25 220.75 192.9 221.15 196.85 221.45 197.45 222.1 198.75 225.55 199.95 229.0 201.2 229.2 201.55 229.5 202.05 227.6 206.25 225.35 211.15 225.05 213.6 223.2 227.5 208.65 238.6 193.5 250.15 173.45 251.3 156.55 252.25 140.8 243.5 129.95 237.45 118.3 225.65 87.7 194.65 71.75 184.35 L76.0 184.1 79.45 183.45 Q80.9 183.7 83.6 187.55 86.5 191.65 88.45 192.4 L92.05 192.15 Q94.2 191.45 95.45 192.2 96.8 193.0 97.8 197.15 98.75 201.35 100.85 202.75 L105.35 202.85 Q108.2 201.8 109.95 202.85 111.55 203.9 111.75 208.75 111.95 213.9 114.3 216.05 116.25 217.85 120.45 217.05 124.65 216.25 125.65 217.1 126.7 218.0 127.2 223.2 127.7 228.2 130.9 230.35 133.85 232.35 136.55 231.3 139.6 230.15 140.25 230.35 141.95 231.0 143.7 235.4 145.55 239.95 148.1 241.3 150.7 242.65 153.85 240.6 157.4 238.35 158.2 238.4 159.7 238.55 163.05 242.6 166.3 246.55 169.05 246.55 171.7 246.55 174.5 243.0 177.4 239.2 178.4 239.0 179.6 238.75 184.0 240.9 188.2 243.0 191.25 242.0 194.15 241.0 195.35 237.15 196.6 233.1 198.4 232.3 L204.25 232.55 Q208.0 233.5 210.55 231.7 213.15 229.8 213.55 224.15 214.0 218.1 214.7 217.25 215.2 216.7 217.8 215.95 220.6 215.1 221.7 214.3 221.85 203.55 215.15 195.05 208.9 187.25 195.95 180.4 192.95 178.8 186.85 174.65 179.95 169.95 177.35 167.4 L182.6 167.1 186.85 167.3 Q188.05 167.8 190.4 171.2 192.8 174.7 194.3 175.5 196.7 176.85 199.95 176.25"/><path fill="#00568a" d="M108.05 41.2 Q111.8 65.0 116.55 81.25 117.5 84.5 114.55 86.05 111.55 87.55 110.45 83.5 106.1 67.5 103.55 40.7 101.0 13.75 102.7 1.3 105.85 27.55 108.05 41.2"/><path fill="#fff8b0" d="M104.05 9.75 Q106.0 21.15 108.85 30.1 112.4 41.2 116.0 43.45 115.2 50.65 116.45 57.05 117.65 63.35 120.55 67.8 116.95 72.2 116.1 79.2 112.4 69.4 108.45 44.2 105.2 23.8 104.05 9.75"/><path fill="#ddd698" d="M105.05 15.1 Q106.65 26.85 108.65 36.2 111.4 49.15 113.7 50.7 113.6 56.9 114.75 62.35 115.95 68.5 118.3 71.2 116.1 75.95 116.3 80.45 112.55 68.75 108.6 46.65 104.45 23.4 105.05 15.1"/><path fill="#50a8b4" d="M68.1 184.3 Q78.0 189.9 92.85 205.55 104.9 218.3 114.25 231.0 125.0 245.6 141.95 252.6 157.6 259.05 176.15 258.2 192.5 257.4 204.75 248.7 216.15 240.55 216.25 231.8 222.35 225.4 224.45 216.75 L225.65 211.05 Q226.3 208.4 227.35 207.3 236.6 222.9 231.65 239.1 226.05 257.4 204.1 265.8 170.6 278.7 142.3 264.6 121.7 254.3 105.65 230.9 92.6 211.9 85.9 203.7 74.55 189.8 66.2 185.9 64.65 185.2 65.55 184.3 66.4 183.35 68.1 184.3"/><path fill="#0d131a" d="M127.05 221.45 L127.05 219.45 Q138.05 225.15 149.8 227.5 159.05 229.35 165.7 228.7 171.05 228.15 177.75 224.6 L188.25 218.2 Q189.2 217.55 189.45 217.9 189.65 218.25 188.8 219.05 184.4 222.9 178.6 226.05 171.4 230.0 165.9 230.5 159.15 231.15 149.9 229.35 138.1 227.1 127.05 221.45"/><path fill="#0d131a" d="M119.65 217.25 Q115.7 214.75 111.85 211.65 L111.6 209.3 Q116.9 213.6 122.2 216.75 L119.65 217.25"/><path fill="#0d131a" d="M66.15 186.45 Q65.15 185.9 65.4 185.45 L66.65 185.5 Q75.95 190.2 87.5 204.25 94.3 212.45 106.5 230.35 124.2 256.25 146.45 265.6 170.15 275.5 198.75 266.45 222.25 259.05 229.5 242.15 236.3 226.25 226.7 208.05 L227.5 206.15 Q238.85 226.1 231.75 243.45 224.35 261.5 199.7 269.05 142.4 286.65 104.9 231.6 91.75 212.35 87.15 206.5 76.05 192.45 66.15 186.45"/><path fill="#0d131a" d="M187.25 166.5 Q188.35 166.95 190.65 170.6 192.95 174.3 194.85 175.15 L200.25 175.35 204.3 175.1 Q205.7 175.85 206.7 179.6 207.75 183.6 209.95 185.25 212.0 186.8 215.85 186.85 219.5 186.9 220.25 187.65 221.3 188.7 221.35 192.4 221.35 196.25 222.1 197.3 222.95 198.45 226.5 199.45 229.8 200.4 230.0 201.2 230.3 202.3 228.3 206.65 226.0 211.65 225.65 214.55 224.25 225.95 213.1 236.35 202.85 245.9 189.9 249.8 169.6 255.95 150.0 248.75 133.55 242.65 119.05 227.75 85.85 193.85 69.4 183.6 68.55 183.05 68.8 182.65 L70.0 182.7 Q78.85 187.35 94.1 201.25 104.6 210.75 120.25 226.7 135.1 241.7 151.6 247.25 169.9 253.45 189.2 247.7 201.35 244.05 211.15 235.6 222.5 225.8 224.05 214.45 224.5 211.2 226.55 206.4 228.4 202.15 228.3 201.8 228.25 201.6 225.2 200.55 222.0 199.45 221.05 198.1 220.45 197.2 220.0 193.2 219.6 189.5 219.05 189.05 218.65 188.75 215.0 188.25 211.25 187.75 209.15 186.3 207.2 185.0 205.75 181.0 204.3 177.2 203.5 176.8 L199.95 177.1 Q196.75 177.55 194.2 176.3 192.0 175.25 189.8 172.0 187.6 168.75 186.45 168.2 L182.15 168.0 177.1 167.55 175.2 165.5 Q177.4 166.9 181.7 166.55 186.35 166.15 187.25 166.5"/><path fill="#0d131a" d="M79.85 182.6 Q81.6 183.0 84.35 187.25 87.15 191.45 88.55 191.85 89.95 192.25 92.0 191.45 L95.45 191.3 Q97.2 191.95 98.3 196.7 99.4 201.55 101.3 202.4 L105.4 202.15 110.0 201.95 Q112.0 202.7 112.25 208.2 112.55 214.0 114.85 215.65 116.85 217.05 120.5 216.4 L125.85 216.25 Q127.5 217.0 127.9 222.35 128.3 227.95 131.3 230.0 133.55 231.55 136.5 230.5 139.8 229.3 140.7 229.65 142.3 230.25 144.3 235.3 146.2 240.2 148.75 240.9 151.25 241.6 154.1 239.55 157.15 237.4 158.55 237.6 159.95 237.75 163.35 242.05 166.6 246.15 169.0 246.0 171.6 245.85 174.2 242.3 176.9 238.55 178.2 238.25 179.7 237.9 184.0 240.25 188.15 242.5 190.95 241.5 193.55 240.6 194.85 236.5 196.25 232.2 198.05 231.3 199.6 230.55 203.5 231.7 207.25 232.8 209.5 231.6 212.55 229.95 212.7 224.1 212.85 217.75 214.0 216.65 214.65 216.05 218.75 214.85 222.05 213.9 223.3 210.75 223.65 209.8 224.1 209.9 224.55 210.0 224.3 210.95 223.4 214.8 219.85 216.2 216.15 217.05 215.35 217.9 214.6 218.7 214.1 225.2 213.6 231.05 210.1 232.8 207.45 234.1 203.7 233.3 L198.8 233.0 Q197.55 233.55 195.75 237.8 193.95 241.85 191.3 242.75 188.1 243.8 183.95 241.85 179.7 239.8 178.8 240.0 177.9 240.2 174.85 243.75 171.95 247.15 169.05 247.3 166.15 247.45 162.9 243.6 159.45 239.55 158.4 239.4 157.4 239.25 154.5 241.1 151.7 242.85 148.6 242.15 145.45 241.45 143.4 236.65 141.35 231.85 140.1 231.45 139.45 231.25 136.25 232.15 133.45 232.9 130.4 231.1 127.2 229.2 126.55 223.75 125.95 218.35 125.1 217.9 124.15 217.4 120.45 217.85 116.8 218.3 114.2 216.8 111.7 215.4 111.15 209.8 110.6 204.25 109.1 203.5 L105.3 203.7 100.8 203.6 Q98.3 202.35 97.25 197.85 96.25 193.45 94.8 192.95 L91.75 193.05 Q89.75 193.55 88.2 193.1 86.2 192.5 83.5 188.55 80.8 184.65 79.45 184.3 L76.15 184.85 72.2 185.05 70.65 183.2 Q72.95 184.45 75.9 183.5 79.2 182.45 79.85 182.6"/><path fill="#0d131a" d="M103.3 1.05 Q105.5 21.55 109.3 44.55 113.55 70.35 116.9 80.85 117.3 82.1 116.85 82.2 116.4 82.35 115.95 81.15 112.0 70.5 108.15 48.15 104.45 26.85 102.9 7.3 102.75 24.15 104.95 46.1 107.25 69.1 110.75 82.75 111.05 83.85 110.65 84.05 110.2 84.2 109.8 83.0 104.6 66.6 102.3 39.65 100.1 14.0 102.15 1.05 102.35 -0.05 102.75 -0.05 103.2 -0.05 103.3 1.05"/><path fill="#0d131a" d="M102.8 5.35 L103.3 1.0 Q104.85 12.95 107.95 24.65 112.1 40.15 116.45 43.1 116.75 43.3 116.65 43.6 115.55 47.7 117.0 56.05 118.5 64.65 121.1 67.5 121.4 67.8 121.1 68.15 119.15 70.75 117.95 73.95 116.55 77.75 116.95 80.95 L115.65 79.15 Q115.65 73.2 119.6 67.85 116.8 64.45 115.4 55.8 114.15 47.9 115.1 43.75 111.2 40.85 107.9 29.6 105.35 20.75 102.8 5.35"/><path fill="#0d131a" d="M115.35 42.8 L115.4 45.9 Q113.45 52.9 113.85 62.35 114.15 69.1 115.85 78.45 L113.55 70.4 Q112.4 62.9 112.6 57.05 112.85 49.6 115.35 42.8"/><path fill="#0d131a" d="M199.45 183.7 Q187.5 177.05 180.9 171.85 170.5 163.6 164.9 153.4 L166.3 152.55 Q171.8 162.5 182.15 170.45 188.0 174.95 200.5 181.9 210.55 187.5 216.7 195.75 223.65 205.05 222.3 213.8 L220.75 214.95 Q222.3 206.15 215.5 197.15 209.55 189.3 199.45 183.7"/></g></svg>