<?xml version='1.0' encoding='utf-8'?>
<svg xmlns="http://www.w3.org/2000/svg" version="1.1" width="359px" height="600px" viewBox="-2.15 -0.35 358.9 600.1"><g><path fill="#5dc1cf" d="M63.35 115.95 Q64.75 116.05 73.55 127.45 85.85 143.45 93.55 152.0 125.05 187.0 149.0 183.9 173.55 180.75 157.1 212.35 148.9 228.15 135.75 244.55 119.2 217.7 94.85 220.35 85.35 221.35 76.2 226.85 68.15 231.7 62.85 238.35 46.9 228.85 30.0 245.95 19.15 256.95 11.75 273.45 9.25 265.0 7.65 252.95 4.45 228.85 8.95 210.9 15.75 183.6 30.0 155.7 47.45 121.35 63.35 115.95"/><path fill="#50a8b4" d="M63.35 115.95 Q64.75 116.05 73.55 127.45 85.85 143.45 93.55 152.0 125.05 187.0 149.0 183.9 173.55 180.75 157.1 212.35 148.9 228.15 135.75 244.55 130.85 236.65 125.1 231.2 120.8 205.6 95.3 174.45 86.15 163.3 77.4 155.3 69.4 148.0 68.1 148.85 57.55 155.7 52.15 193.4 50.9 202.25 49.5 215.0 48.5 222.3 47.6 217.4 43.9 197.2 49.3 169.4 L52.55 154.1 Q53.65 148.8 52.2 149.9 43.65 156.5 29.9 183.45 16.45 209.75 12.05 227.45 11.0 229.75 9.95 229.25 8.9 228.8 8.3 226.1 6.75 219.55 8.95 210.9 15.75 183.6 30.0 155.7 47.45 121.35 63.35 115.95"/><path fill="#f9be00" d="M241.95 523.95 Q251.2 547.2 266.2 566.95 279.1 584.05 293.85 595.5 296.25 597.35 291.9 598.0 L279.85 597.25 Q235.3 589.15 201.0 561.6 172.2 538.45 152.35 503.2 136.2 474.6 128.25 442.7 121.65 416.2 123.2 400.65 L236.4 401.25 Q218.7 465.7 241.95 523.95"/><path fill="#d7a400" d="M236.4 401.25 Q231.15 420.4 229.6 439.05 191.6 470.3 184.9 511.85 182.85 524.8 184.1 537.5 184.7 543.8 185.7 547.8 152.15 513.9 134.65 464.0 127.9 444.7 124.9 426.45 122.25 410.45 123.2 400.65 L236.4 401.25"/><path fill="#fff3c2" d="M241.95 523.95 Q251.2 547.2 266.2 566.95 279.1 584.05 293.85 595.5 296.4 597.45 291.85 598.25 287.1 599.15 279.85 597.25 243.7 588.0 215.4 560.9 190.9 537.35 175.2 503.45 161.25 473.4 157.6 443.2 154.1 414.45 161.15 398.5 L236.4 401.25 Q218.7 465.7 241.95 523.95"/><path fill="#dbd2a9" d="M236.4 401.25 Q231.45 419.2 229.75 437.0 190.55 466.95 184.15 519.25 163.85 483.1 157.75 452.8 151.25 420.9 161.15 398.5 L236.4 401.25"/><path fill="#dbdcdc" d="M140.7 450.55 Q141.8 448.55 147.35 454.2 150.1 457.0 152.65 460.2 L151.05 467.7 Q148.95 475.5 146.25 477.1 142.75 474.6 140.85 464.15 139.05 454.15 140.7 450.55"/><path fill="#f9be00" d="M193.2 414.65 Q197.85 422.55 197.55 433.55 197.35 442.85 193.8 451.45 192.25 455.2 187.55 458.55 182.9 461.8 176.75 463.6 162.3 467.85 152.35 461.65 140.2 454.05 136.05 436.2 133.0 423.2 134.85 412.65 L193.2 414.65"/><path fill="#d7a400" d="M197.45 429.1 Q182.1 430.05 168.55 437.25 155.15 444.35 145.95 456.3 137.85 447.5 135.3 432.45 133.35 421.15 134.85 412.65 L193.2 414.65 Q196.9 420.9 197.45 429.1"/><path fill="#ffffff" d="M152.95 460.75 Q155.95 456.35 163.35 457.05 170.55 457.75 173.1 462.1 172.55 467.85 168.7 476.5 164.75 485.2 162.6 485.0 160.35 484.75 156.75 475.8 153.05 466.75 152.95 460.75"/><path fill="#dbdcdc" d="M161.4 457.0 Q158.7 459.0 159.05 468.55 159.3 474.85 160.8 483.7 158.25 479.2 155.8 472.4 153.0 464.7 152.95 460.75 154.15 458.9 156.5 457.95 158.65 457.05 161.4 457.0"/><path fill="#ffffff" d="M174.95 461.9 Q176.55 458.0 181.5 454.25 187.5 449.75 191.15 453.2 192.05 462.45 190.1 471.85 188.15 481.35 185.35 480.9 182.5 480.45 178.2 472.5 173.85 464.55 174.95 461.9"/><path fill="#dbdcdc" d="M174.95 461.9 Q176.0 459.45 179.1 456.35 179.9 471.1 185.0 480.8 182.05 479.8 177.95 472.1 173.9 464.4 174.95 461.9"/><path fill="#f9be00" d="M76.2 135.45 Q68.95 124.25 66.6 122.3 59.65 116.5 44.7 140.3 33.0 159.0 20.2 188.85 10.7 211.0 10.0 244.65 9.35 274.45 14.95 288.35 15.85 290.55 15.55 291.55 15.25 292.45 14.15 291.75 11.25 290.05 8.1 282.6 -1.45 259.75 3.25 219.75 7.65 182.85 32.65 143.65 41.7 129.4 51.4 118.3 59.8 108.65 63.65 106.85 70.2 103.75 73.05 104.65 75.75 105.5 75.5 110.1 75.25 115.15 76.9 119.15 79.2 124.65 87.9 137.8 98.5 153.85 116.4 167.15 136.5 182.15 147.4 178.05 L151.85 183.0 Q155.2 187.85 149.75 187.4 115.85 184.5 91.45 156.3 84.7 148.55 76.2 135.45"/><path fill="#d7a400" d="M63.65 106.85 Q67.1 105.25 69.55 104.7 64.15 107.75 62.85 110.5 60.8 114.85 56.2 119.25 31.4 143.1 16.9 182.25 5.2 213.8 4.85 238.75 4.65 254.55 6.5 265.5 8.95 280.5 15.5 290.1 15.8 291.65 15.15 291.95 14.5 292.25 13.3 291.15 10.2 288.3 7.35 280.7 -1.25 257.85 3.25 219.75 7.65 182.85 32.65 143.65 41.7 129.4 51.4 118.3 59.8 108.65 63.65 106.85"/><path fill="#d7a400" d="M76.2 135.45 Q68.95 124.25 66.6 122.3 L65.3 121.55 Q66.9 120.7 68.85 120.95 71.85 121.45 73.85 125.0 80.0 136.2 92.3 151.1 109.6 172.15 116.15 167.0 125.35 173.9 133.1 176.85 141.75 180.15 147.4 178.05 L151.85 183.0 Q155.2 187.85 149.75 187.4 115.85 184.5 91.45 156.3 84.7 148.55 76.2 135.45"/><path fill="#5dc1cf" d="M241.45 59.0 Q261.85 63.15 283.05 87.05 295.05 100.6 312.3 127.8 321.55 142.3 324.4 166.75 325.85 178.95 325.4 188.25 304.8 165.9 295.1 166.75 290.7 167.15 286.95 172.05 284.3 175.5 280.15 184.2 263.85 173.55 248.9 184.35 243.2 188.5 239.5 194.6 236.05 200.3 236.1 204.6 L212.1 185.9 230.9 135.8 Q233.45 124.85 236.0 109.75 241.15 79.55 241.45 59.0"/><path fill="#50a8b4" d="M241.45 59.0 Q261.85 63.15 283.05 87.05 295.05 100.6 312.3 127.8 318.75 137.9 322.15 153.35 307.65 130.1 285.4 105.55 260.8 78.35 256.9 85.25 256.1 86.7 263.95 103.35 272.85 122.25 274.2 131.0 269.0 117.35 261.5 105.0 253.25 91.35 250.9 94.8 243.3 105.85 245.35 187.3 241.1 191.35 238.5 196.35 236.05 201.1 236.1 204.6 L212.1 185.9 230.9 135.8 Q233.45 124.85 236.0 109.75 241.15 79.55 241.45 59.0"/><path fill="#f9be00" d="M239.0 54.05 Q244.0 53.7 256.35 60.8 271.15 69.3 285.4 83.25 303.25 100.65 315.45 126.55 329.65 156.75 329.15 185.65 329.0 194.1 328.4 195.65 327.85 197.1 326.6 193.1 L319.25 164.65 Q308.95 126.7 288.45 100.25 270.2 76.7 249.5 68.65 245.7 67.15 244.65 73.3 L243.55 90.1 Q241.9 120.7 229.7 136.9 226.75 140.8 224.3 142.75 L222.4 143.9 Q229.95 132.35 233.55 105.4 236.75 81.5 234.65 69.5 232.95 59.85 233.95 56.9 234.8 54.35 239.0 54.05"/><path fill="#d7a400" d="M249.5 68.65 L247.5 68.2 245.65 68.15 Q245.5 67.05 245.65 66.55 245.95 65.6 248.15 65.05 249.75 64.7 254.85 66.95 260.95 69.7 267.7 74.55 286.8 88.25 300.05 110.65 313.95 134.1 319.75 151.4 325.85 169.6 324.45 185.2 L319.25 164.65 Q308.95 126.7 288.45 100.25 270.2 76.7 249.5 68.65"/><path fill="#d7a400" d="M240.35 113.7 Q236.95 127.25 229.7 136.9 226.75 140.8 224.3 142.75 L222.4 143.9 Q226.95 137.0 230.2 123.6 233.05 112.05 234.4 98.05 235.6 105.3 238.75 101.15 241.0 98.2 243.5 90.9 242.75 104.2 240.35 113.7"/><path fill="#f9be00" d="M270.3 382.95 Q290.75 373.2 300.6 378.2 318.35 387.2 329.6 397.2 345.05 410.95 332.95 416.15 312.2 425.05 305.7 426.05 L298.75 425.7 Q296.15 424.85 292.7 422.25 L270.15 407.1 Q253.55 396.05 251.85 393.65 L257.25 390.1 Q263.95 385.95 270.3 382.95"/><path fill="#d7a400" d="M251.85 393.65 L257.25 390.1 Q263.95 385.95 270.3 382.95 290.75 373.2 300.6 378.2 305.95 380.9 311.35 384.2 302.25 386.05 296.05 392.9 288.05 401.65 285.95 417.55 L265.3 403.85 Q253.35 395.75 251.85 393.65"/><path fill="#f9be00" d="M261.15 338.05 Q266.4 319.7 274.25 297.5 L281.05 279.0 Q299.3 288.15 309.85 300.9 324.4 318.5 322.45 341.15 320.15 367.85 299.15 382.25 283.15 393.2 259.6 395.4 244.3 396.85 261.15 338.05"/><path fill="#d7a400" d="M260.6 338.75 Q266.05 320.2 274.1 297.7 L281.05 279.0 Q285.65 281.3 290.25 284.15 271.8 336.55 281.45 361.05 285.2 370.55 292.75 374.4 299.25 377.7 306.65 376.1 297.5 385.05 283.45 390.65 271.15 395.55 258.55 396.75 243.25 398.2 260.6 338.75"/><path fill="#ffffff" d="M328.9 413.2 Q331.3 410.55 332.0 410.05 334.7 408.25 338.3 409.3 340.7 410.6 343.5 416.2 346.25 421.7 345.5 423.45 344.35 423.8 340.35 422.35 336.55 420.9 334.15 419.35 L328.9 413.2"/><path fill="#dbdcdc" d="M328.9 413.2 L330.8 411.05 Q334.0 413.1 339.95 418.2 345.65 423.1 345.5 423.45 344.35 423.8 340.35 422.35 336.55 420.9 334.15 419.35 L328.9 413.2"/><path fill="#ffffff" d="M328.15 429.25 Q323.6 427.0 319.85 424.3 L314.6 416.7 Q316.95 412.5 320.6 411.3 325.15 409.8 330.35 413.75 333.15 415.95 336.0 423.85 338.8 431.65 337.35 432.2 334.25 432.35 328.15 429.25"/><path fill="#dbdcdc" d="M337.7 431.55 L337.35 432.2 Q334.25 432.35 328.15 429.25 323.6 427.0 319.85 424.3 L314.6 416.7 Q316.05 414.1 318.15 412.6 327.35 425.0 337.7 431.55"/><path fill="#ffffff" d="M299.4 425.2 Q301.65 419.95 303.3 418.35 306.4 415.4 312.6 415.85 316.6 416.15 320.75 425.4 324.65 433.95 323.9 435.7 320.65 435.7 310.95 431.65 301.0 427.55 299.4 425.2"/><path fill="#dbdcdc" d="M323.95 435.35 L323.9 435.7 Q320.65 435.7 310.95 431.65 301.0 427.55 299.4 425.2 L300.95 421.7 Q301.9 419.85 302.95 418.7 306.65 423.3 312.85 427.85 L323.95 435.35"/><path fill="#ffffff" d="M329.75 124.05 Q332.2 123.8 339.55 125.75 347.1 127.7 346.7 128.75 346.1 130.2 337.8 134.8 L329.75 124.05"/><path fill="#dbdcdc" d="M346.35 129.25 L341.2 132.75 337.8 134.8 333.85 129.5 340.1 129.45 346.35 129.25"/><path fill="#ffffff" d="M355.7 147.7 Q355.15 148.85 340.85 150.6 L339.7 136.6 Q345.45 138.4 351.1 142.7 356.25 146.65 355.7 147.7"/><path fill="#dbdcdc" d="M340.3 144.2 Q345.95 146.6 351.45 147.35 L355.7 147.7 Q355.15 148.85 340.85 150.6 L340.3 144.2"/><path fill="#ffffff" d="M340.25 151.5 Q348.2 162.25 348.15 163.75 L339.35 163.45 330.65 162.0 340.25 151.5"/><path fill="#dbdcdc" d="M336.8 155.25 Q340.85 159.85 344.95 162.2 346.95 163.4 348.15 163.75 L339.35 163.45 330.65 162.0 336.8 155.25"/><path fill="#f9be00" d="M276.45 119.25 Q292.2 112.8 304.65 114.45 340.25 119.2 342.0 142.75 343.2 158.45 330.05 163.3 319.5 167.15 306.4 163.15 300.45 161.35 289.65 162.5 278.4 163.65 267.1 167.5 238.8 177.15 232.6 194.7 229.7 193.75 226.25 191.7 219.4 187.55 216.75 181.9 208.25 163.85 244.85 137.6 262.55 124.95 276.45 119.25"/><path fill="#d7a400" d="M232.6 194.7 Q229.7 193.75 226.3 191.7 219.45 187.55 216.75 181.9 208.2 163.9 244.65 137.75 246.5 149.85 252.45 153.25 259.2 157.05 274.55 152.35 283.85 149.5 296.4 150.2 L316.65 152.45 Q327.5 153.7 332.7 152.25 339.7 150.25 342.0 142.75 343.9 158.15 330.45 163.1 319.5 167.15 306.4 163.15 300.45 161.35 289.65 162.5 278.4 163.65 267.1 167.5 238.8 177.15 232.6 194.7"/><path fill="#dbdcdc" d="M45.0 249.55 L52.6 268.5 47.9 270.85 Q43.0 273.0 42.05 272.3 41.05 271.45 42.3 262.65 43.5 254.45 45.0 249.55"/><path fill="#ffffff" d="M53.45 270.25 L67.45 278.7 Q58.7 288.9 56.95 288.9 55.55 288.9 54.05 281.8 52.55 274.45 53.45 270.25"/><path fill="#dbdcdc" d="M61.95 273.9 Q59.55 278.75 58.75 281.0 57.35 285.15 57.8 288.55 L56.95 288.9 Q55.55 288.9 54.05 281.8 52.55 274.45 53.45 270.25 L61.95 273.9"/><path fill="#ffffff" d="M78.35 292.0 Q76.55 293.0 72.9 286.85 69.55 281.2 69.2 278.4 L84.4 272.6 82.35 281.75 Q80.0 291.1 78.35 292.0"/><path fill="#dbdcdc" d="M78.6 274.8 Q76.8 278.55 77.05 283.25 77.3 286.85 78.8 291.6 L78.35 292.0 Q76.55 293.0 72.9 286.85 69.55 281.2 69.2 278.4 L78.6 274.8"/><path fill="#f9be00" d="M223.1 99.6 L224.05 100.8 Q225.25 102.55 226.35 105.1 229.85 113.3 231.15 126.7 237.7 129.8 242.3 135.8 246.9 141.85 247.75 148.6 251.05 165.65 241.4 176.6 238.4 180.05 234.5 182.45 L231.15 184.2 Q233.05 199.0 240.0 214.85 246.05 228.55 252.45 236.1 L262.95 248.65 Q271.65 260.05 277.3 271.8 294.3 307.4 282.5 342.9 270.05 380.1 249.7 396.35 230.35 411.8 195.25 414.65 191.8 418.0 184.3 420.8 174.75 424.45 164.6 424.25 135.65 423.7 114.45 393.1 104.45 378.65 102.3 356.65 99.85 330.9 111.1 310.45 113.6 293.35 119.8 269.0 L130.9 227.3 Q137.2 203.3 139.65 188.25 142.9 168.35 141.3 154.7 L138.4 130.65 Q137.15 118.1 137.95 109.95 139.9 89.45 157.5 77.65 168.9 70.05 180.75 69.2 192.0 68.4 202.05 73.8 208.65 77.35 215.2 84.75 222.65 93.15 223.1 99.6"/><path fill="#d7a400" d="M211.45 183.25 Q221.35 182.35 230.65 178.35 240.15 174.25 246.35 168.05 244.8 173.35 237.85 179.3 L231.15 184.2 Q233.3 200.85 241.55 218.15 235.85 224.25 222.7 223.0 210.15 222.1 198.1 217.05 186.0 212.0 177.05 203.9 167.65 195.4 163.65 185.2 159.3 174.15 161.95 162.55 164.0 167.0 167.45 170.1 172.75 174.9 179.55 174.35 180.25 174.9 178.75 171.6 183.7 178.45 192.75 181.4 201.1 184.15 211.45 183.25"/><path fill="#d7a400" d="M215.95 376.7 Q220.15 377.9 241.65 371.05 261.85 364.6 276.85 357.85 264.65 386.55 245.15 399.7 226.75 412.1 195.25 414.65 191.4 418.35 184.15 421.35 174.75 425.25 164.75 425.15 136.45 424.85 114.45 393.1 104.45 378.65 102.3 356.65 99.85 330.9 111.1 310.45 114.2 289.3 124.9 249.55 136.3 207.25 139.15 191.05 139.0 195.7 142.2 203.25 145.2 210.35 144.4 218.25 135.0 235.45 129.05 257.45 123.2 278.9 123.2 295.1 123.2 297.15 125.05 296.4 L128.75 294.2 Q130.9 292.85 131.35 293.5 132.0 294.45 130.1 299.35 117.7 331.55 125.25 354.95 131.65 374.95 150.95 384.95 168.2 393.9 187.7 391.45 207.2 389.0 215.95 376.7"/><path fill="#d7a400" d="M152.05 91.45 Q150.55 94.35 151.05 97.45 151.45 100.15 153.1 101.85 143.95 103.0 143.3 126.9 143.1 134.55 145.4 171.4 145.6 174.1 143.6 175.7 141.65 177.35 141.5 174.75 L141.8 167.05 Q142.1 160.4 141.25 154.4 L138.3 140.8 Q135.85 128.8 135.8 119.2 135.55 89.25 157.5 77.65 169.15 71.45 178.9 69.95 189.35 68.35 198.25 72.0 186.85 70.45 180.8 72.0 173.0 73.95 170.9 81.4 155.95 83.8 152.05 91.45"/><path fill="#fff3c2" d="M214.95 189.75 Q224.25 188.1 231.15 184.2 233.05 199.0 240.0 214.85 246.05 228.55 252.45 236.1 L262.95 248.65 Q271.65 260.05 277.3 271.8 294.3 307.4 282.5 342.9 270.05 380.25 249.25 396.9 229.3 412.9 195.25 414.65 227.0 388.8 210.75 348.35 205.15 334.35 194.55 320.75 186.35 310.25 180.25 305.65 167.35 291.55 166.05 250.0 164.9 212.7 172.85 178.55 L179.15 181.75 Q182.4 183.0 184.55 181.45 196.35 192.95 214.95 189.75"/><path fill="#dbd2a9" d="M214.95 189.75 Q224.25 188.1 231.15 184.2 232.65 195.9 237.5 208.65 241.65 219.65 247.15 228.65 240.5 232.9 230.75 233.2 220.85 233.45 210.2 229.55 185.5 220.55 169.95 195.85 L171.25 186.9 Q171.85 182.8 172.85 178.55 L179.15 181.75 Q182.4 183.0 184.55 181.45 196.35 192.95 214.95 189.75"/><path fill="#dbd2a9" d="M215.5 365.65 Q216.9 370.85 225.35 372.15 233.4 373.4 244.4 370.65 255.95 367.75 265.65 361.6 276.55 354.7 282.0 345.55 269.7 382.5 249.05 398.2 229.8 412.85 195.25 414.65 219.7 394.8 215.5 365.65"/><path fill="#f9be00" d="M143.3 175.45 Q146.15 171.6 150.25 177.6 154.25 183.35 156.05 192.75 158.0 203.15 155.5 210.15 152.5 218.5 143.6 218.9 127.1 219.65 110.65 237.65 102.45 246.65 92.1 263.5 L86.95 271.65 Q83.75 276.25 80.5 278.4 71.75 284.15 57.85 275.8 45.35 268.3 44.5 253.15 43.85 241.8 49.35 229.7 57.0 212.85 80.95 200.9 96.95 192.9 113.85 189.45 127.45 186.65 130.75 185.35 138.1 182.5 143.3 175.45"/><path fill="#d7a400" d="M145.95 218.6 L143.6 218.9 Q127.1 219.65 110.65 237.65 102.45 246.65 92.1 263.5 L86.95 271.65 Q83.75 276.25 80.5 278.4 71.75 284.15 57.85 275.8 48.75 270.35 45.8 260.75 43.4 252.85 45.25 242.85 48.55 258.9 58.4 264.45 68.35 270.05 76.7 259.85 120.3 206.35 145.95 218.6"/><path fill="#fff3c2" d="M131.9 90.8 Q142.9 90.35 155.1 95.6 156.45 96.15 157.0 97.55 157.5 98.9 156.95 100.2 156.4 101.55 155.05 102.1 L152.35 102.05 Q141.6 97.45 132.0 97.9 126.05 98.15 114.4 101.35 L105.65 104.2 Q100.05 105.8 92.35 105.95 75.3 106.35 59.55 90.55 47.2 78.05 40.85 62.35 40.3 61.0 40.9 59.65 41.45 58.3 42.8 57.8 L45.5 57.85 Q46.85 58.4 47.35 59.75 53.3 74.45 65.5 86.5 79.45 100.25 91.6 99.0 97.05 98.45 102.75 97.15 L112.55 94.6 Q125.15 91.1 131.9 90.8"/><path fill="#dbd2a9" d="M43.6 61.4 Q57.55 86.75 70.2 96.35 79.9 103.7 95.9 105.8 L92.35 105.95 Q75.3 106.35 59.55 90.55 47.2 78.05 40.85 62.35 40.3 61.0 40.9 59.65 41.45 58.3 42.8 57.8 L42.85 58.75 Q42.9 60.1 43.6 61.4"/><path fill="#dbd2a9" d="M144.1 95.7 Q148.75 96.6 152.25 97.65 157.4 99.15 156.95 100.2 156.4 101.55 155.05 102.1 L152.35 102.05 Q142.85 98.0 134.45 97.8 128.15 97.7 119.3 100.0 121.5 96.55 131.5 95.6 139.45 94.8 144.1 95.7"/><path fill="#ffffff" d="M179.95 147.0 Q176.8 147.45 172.9 147.1 165.05 146.45 161.2 142.65 157.2 132.5 158.05 125.65 158.9 118.85 164.2 117.8 169.45 116.8 175.45 128.2 181.35 139.5 179.95 147.0"/><path fill="#ffffff" d="M227.75 129.45 Q222.95 123.65 220.2 112.05 217.35 100.05 221.15 98.95 223.35 98.3 226.7 106.65 230.25 115.6 231.25 126.5 230.65 128.15 227.75 129.45"/><path fill="#f9be00" d="M159.95 80.0 Q159.7 76.8 161.1 69.85 162.65 62.25 164.35 61.6 166.15 60.9 171.4 64.5 176.4 67.95 179.35 71.6 180.1 73.95 178.8 76.45 177.55 78.9 174.8 80.45 168.15 84.25 159.95 80.0"/><path fill="#d7a400" d="M159.95 80.0 Q159.7 76.8 161.1 69.85 162.65 62.25 164.35 61.6 L165.55 61.55 Q165.65 67.4 167.6 73.35 170.1 80.85 174.0 80.9 171.1 82.25 167.65 82.15 163.85 82.0 159.95 80.0"/><path fill="#0d131a" d="M22.6 256.7 Q16.25 265.85 11.75 276.05 L11.35 273.35 Q16.6 261.55 21.65 254.0 32.3 238.0 44.3 234.2 L47.65 233.5 46.75 236.65 45.25 237.05 Q33.75 240.7 22.6 256.7"/><path fill="#0d131a" d="M122.5 227.5 Q126.25 230.55 128.95 233.6 L128.1 235.9 Q126.65 234.2 124.2 232.15 L120.15 228.9 121.4 228.25 122.5 227.5"/><path fill="#0d131a" d="M233.55 407.25 L237.9 404.5 Q221.45 468.15 244.6 525.45 253.75 548.1 268.25 567.3 280.75 583.75 294.6 594.55 298.35 597.45 297.5 598.65 296.8 599.65 292.35 599.75 L284.1 599.45 279.25 598.95 Q232.4 590.4 196.45 560.35 168.9 537.3 150.15 504.0 135.0 477.1 127.3 446.0 120.95 420.35 121.8 402.95 L124.2 405.1 Q123.95 422.3 130.7 447.15 138.75 476.6 153.4 502.6 172.0 535.6 198.75 558.1 233.9 587.6 280.1 596.05 287.85 597.45 292.0 596.75 L292.85 596.55 292.3 595.85 Q267.2 575.95 249.7 543.4 227.65 502.25 227.65 455.5 227.65 431.65 233.55 407.25"/><path fill="#0d131a" d="M280.65 596.4 L280.25 598.1 Q253.2 591.95 228.85 573.05 210.05 558.5 194.85 538.1 183.45 522.85 175.2 505.9 169.15 493.45 165.85 482.55 L167.0 480.1 Q169.75 490.75 177.6 506.1 187.2 524.8 200.2 541.3 235.55 586.1 280.65 596.4"/><path fill="#0d131a" d="M230.85 421.55 L230.95 421.5 230.95 423.3 Q225.4 427.95 219.75 430.1 210.75 433.5 197.55 432.95 L197.55 431.55 Q219.2 431.4 230.85 421.55"/><path fill="#0d131a" d="M212.25 457.2 Q222.35 453.7 229.0 448.05 L229.1 449.8 Q214.75 461.95 191.8 462.95 L191.7 461.55 Q203.05 460.4 212.25 457.2"/><path fill="#0d131a" d="M208.7 489.0 Q224.9 484.7 229.9 479.95 L230.85 480.95 Q224.65 486.7 209.1 491.0 189.55 496.4 171.2 493.25 L170.4 491.95 Q188.65 494.35 208.7 489.0"/><path fill="#0d131a" d="M219.55 516.5 Q231.75 512.3 235.45 506.55 L235.8 508.3 Q231.75 514.7 219.4 518.6 204.15 523.4 184.35 520.7 L184.55 519.3 Q203.8 521.9 219.55 516.5"/><path fill="#0d131a" d="M245.7 533.75 L246.4 534.85 Q244.15 540.45 231.65 544.35 217.9 548.7 202.55 546.8 L202.35 545.55 Q216.65 547.35 230.85 542.65 243.3 538.55 245.7 533.75"/><path fill="#0d131a" d="M223.2 567.55 L222.45 566.3 Q235.8 567.5 246.2 563.25 255.2 559.5 257.3 554.15 L258.4 555.1 Q256.15 560.85 248.55 564.55 238.45 569.5 223.2 567.55"/><path fill="#0d131a" d="M243.45 581.75 Q252.6 582.45 260.5 579.4 268.15 576.45 269.75 571.9 L270.7 572.9 Q268.4 578.65 261.75 581.35 254.95 584.05 244.7 583.05 L243.45 581.75"/><path fill="#0d131a" d="M151.5 461.65 L153.15 462.5 151.8 470.15 Q150.55 475.15 147.7 478.45 146.2 480.2 144.35 477.9 141.25 474.1 139.7 463.85 138.2 453.85 139.9 450.2 L139.9 450.15 Q140.1 449.85 140.75 450.15 L141.55 450.9 141.9 461.2 Q142.9 472.2 146.35 475.8 147.3 476.85 149.2 470.9 150.75 466.05 151.5 461.65"/><path fill="#0d131a" d="M194.25 414.05 Q199.2 422.4 199.05 434.4 198.95 444.75 195.45 453.2 194.15 456.5 191.45 459.1 L191.35 453.2 192.65 450.95 Q196.05 442.75 196.35 433.8 196.7 423.0 192.15 415.3 L194.25 414.05"/><path fill="#0d131a" d="M175.05 462.8 Q175.1 463.95 175.95 465.1 L171.9 465.95 172.65 463.3 175.05 462.8"/><path fill="#0d131a" d="M134.95 438.4 Q132.1 426.5 133.4 414.35 133.75 414.85 134.55 414.95 135.45 415.1 135.8 415.3 134.9 427.15 138.3 438.85 142.75 454.2 153.0 460.6 L153.05 460.6 153.25 463.55 151.7 462.7 Q139.2 456.15 134.95 438.4"/><path fill="#0d131a" d="M157.2 458.65 Q155.0 459.5 153.85 461.1 154.05 467.0 157.65 475.7 161.05 483.95 162.65 484.1 164.2 484.05 167.8 476.15 171.55 467.95 172.15 462.35 170.95 460.45 168.2 459.2 165.4 457.95 162.15 457.85 159.35 457.8 157.2 458.65 M152.2 460.3 Q153.7 458.1 156.15 456.9 158.8 455.65 162.05 455.75 165.8 455.85 169.15 457.6 172.45 459.25 173.85 461.65 L174.0 461.9 173.95 462.2 Q173.5 467.45 170.25 475.85 166.95 484.4 164.4 486.5 163.4 487.25 162.6 487.2 159.8 486.9 155.95 476.8 152.15 466.95 152.05 460.8 L152.05 460.5 152.2 460.3"/><path fill="#0d131a" d="M190.3 453.65 Q188.65 452.25 186.45 452.75 183.35 453.4 179.75 456.95 176.7 459.95 175.75 462.2 175.35 463.15 176.25 466.0 177.25 469.05 179.25 472.65 181.1 475.9 182.9 478.0 184.55 479.9 185.45 480.05 185.8 480.05 186.15 479.7 187.9 478.05 189.2 471.9 190.55 465.6 190.55 458.6 L190.3 453.65 M186.2 450.45 Q188.9 449.8 191.75 452.55 L192.0 452.8 192.4 454.2 Q193.2 462.4 191.7 471.3 190.25 480.25 187.7 482.65 186.75 483.55 185.55 483.45 182.8 483.0 177.6 474.15 175.6 470.6 174.5 467.3 173.15 463.3 173.85 461.65 174.9 459.1 178.4 455.55 182.6 451.2 186.2 450.45"/><path fill="#0d131a" d="M65.9 123.15 Q64.55 121.95 62.55 122.4 55.3 124.1 42.6 145.8 32.1 163.8 21.15 189.25 11.8 211.1 11.1 244.6 10.45 274.3 15.9 287.95 16.75 290.05 17.05 291.75 17.45 293.85 16.8 294.35 15.6 295.25 12.2 291.85 6.15 285.85 2.8 271.65 -2.15 250.65 1.6 219.05 4.05 198.45 13.75 176.3 20.65 160.55 31.75 143.1 41.0 128.65 50.7 117.5 59.25 107.8 63.2 105.9 71.35 102.1 74.5 104.15 76.8 105.7 76.55 110.2 76.3 114.7 78.45 119.5 81.15 125.5 89.45 137.25 99.45 151.3 113.75 163.15 129.65 176.3 140.6 177.65 L139.0 179.55 Q126.8 177.45 110.2 163.5 95.5 151.15 87.0 138.35 77.8 124.45 75.7 120.05 73.7 115.8 73.95 110.9 74.1 107.35 72.9 106.55 70.9 105.15 64.1 108.3 60.7 109.9 52.45 119.25 42.85 130.2 33.85 144.15 8.65 183.1 4.3 219.9 2.8 232.7 2.8 243.85 2.8 264.45 7.05 277.65 9.3 284.55 13.1 289.7 14.65 291.75 14.6 290.8 14.55 290.1 13.95 288.75 11.7 283.05 10.3 272.55 8.85 261.45 8.85 248.7 8.85 232.6 11.2 217.8 13.85 201.0 19.2 188.45 28.8 166.05 37.75 149.8 52.9 122.1 61.95 119.95 64.6 119.3 67.25 121.5 68.95 122.9 71.3 126.25 L76.2 133.55 Q87.95 151.65 97.2 161.0 113.35 177.45 133.55 183.35 131.55 184.3 129.45 184.95 109.55 178.9 94.25 162.2 87.5 154.85 74.45 134.7 L69.7 127.6 Q67.4 124.4 65.9 123.15"/><path fill="#0d131a" d="M60.65 128.95 Q61.65 127.05 62.5 127.45 63.35 127.85 62.6 129.7 57.3 142.85 52.2 166.75 45.05 199.8 48.35 217.85 48.9 220.85 48.2 220.55 47.55 220.3 47.15 218.45 43.2 200.65 48.3 170.9 53.0 143.8 60.65 128.95"/><path fill="#0d131a" d="M281.4 184.8 L280.6 185.95 279.45 185.4 Q270.55 179.35 263.25 179.6 258.6 179.7 252.55 183.05 245.6 186.85 240.95 194.3 236.95 200.75 237.0 205.35 L235.35 202.9 Q235.3 197.7 239.8 191.35 244.55 184.6 251.65 180.75 257.15 177.75 263.65 177.8 271.6 177.95 279.8 182.95 283.5 175.25 286.9 171.3 290.9 166.55 295.35 165.9 300.65 165.1 307.4 169.95 313.9 174.55 325.35 187.0 L326.1 190.75 Q314.95 178.65 307.45 173.0 299.4 166.95 294.7 167.7 291.0 168.25 286.5 175.2 283.5 179.8 281.4 184.8"/><path fill="#0d131a" d="M250.35 79.15 Q248.85 77.2 249.15 76.7 249.5 76.15 251.6 77.95 256.35 82.0 262.55 94.8 267.8 105.8 271.65 117.6 272.8 121.2 271.85 121.15 270.95 121.1 270.0 118.3 265.25 104.05 258.1 91.3 253.8 83.55 250.35 79.15"/><path fill="#0d131a" d="M249.3 67.2 Q261.75 72.05 274.3 83.45 288.25 96.15 299.2 114.25 L296.85 114.1 Q286.15 96.8 272.85 85.05 261.25 74.85 249.5 70.25 248.05 69.7 247.5 70.25 246.15 71.1 245.5 75.05 244.95 78.15 244.7 84.45 244.15 97.85 242.85 105.9 240.6 119.55 235.25 129.7 L233.85 128.6 Q239.0 118.7 241.15 105.35 242.4 97.5 242.95 84.35 243.1 76.15 243.35 73.2 243.75 68.5 245.5 67.35 L249.3 67.2"/><path fill="#0d131a" d="M322.65 181.5 L318.6 165.65 320.45 165.75 324.35 181.1 326.55 190.1 Q327.75 194.95 327.85 194.15 328.15 192.2 328.3 185.6 L328.3 183.9 Q328.3 174.35 326.7 164.75 L328.85 164.0 Q330.65 174.95 330.5 185.2 330.35 192.45 329.7 195.45 329.2 197.75 328.25 197.85 327.15 198.0 326.1 194.8 325.3 192.4 322.65 181.5"/><path fill="#0d131a" d="M234.15 70.7 Q233.0 64.1 232.95 60.45 232.95 56.75 234.15 55.25 235.65 53.3 239.9 53.5 244.6 53.75 251.1 56.5 267.35 63.5 286.7 82.35 300.6 95.9 311.4 115.25 L308.45 114.9 Q297.9 96.65 284.8 83.85 270.95 70.3 256.9 62.25 245.25 55.55 240.3 55.9 237.3 56.1 236.5 57.2 235.65 58.2 235.65 60.95 235.65 64.15 236.75 70.3 237.0 71.8 236.9 75.35 L236.75 81.85 Q236.75 90.85 235.15 102.25 233.6 113.45 230.85 124.55 230.15 123.1 229.8 121.5 233.0 107.55 234.2 92.1 235.35 77.65 234.15 70.7"/><path fill="#0d131a" d="M251.55 394.9 L252.85 392.95 Q253.9 394.4 272.05 407.05 L292.4 421.1 Q295.75 423.6 299.55 424.6 300.2 426.2 301.25 427.4 295.05 426.85 290.8 424.15 285.0 420.4 269.3 408.85 252.85 396.65 251.55 394.9"/><path fill="#0d131a" d="M303.9 379.45 Q305.05 379.55 310.2 382.4 316.2 385.7 321.8 389.7 338.0 401.15 338.95 409.45 L336.45 409.25 Q335.25 403.2 321.85 393.2 311.0 385.1 300.95 380.2 L301.5 379.7 303.9 379.45"/><path fill="#0d131a" d="M280.5 280.1 L280.0 276.7 Q300.55 286.8 311.85 300.65 326.5 318.5 324.5 341.35 322.25 367.7 300.95 382.55 286.1 392.85 270.15 394.2 L265.65 393.8 Q264.25 393.1 268.1 392.45 283.25 389.8 296.95 380.65 319.1 365.9 321.25 341.05 323.1 319.25 309.45 302.3 299.05 289.4 280.5 280.1"/><path fill="#0d131a" d="M334.25 420.7 L333.8 418.2 Q335.9 419.65 339.7 421.1 342.8 422.35 344.3 422.55 L344.8 422.6 Q345.9 422.75 342.95 417.05 340.0 411.25 337.95 410.15 L333.3 410.35 Q331.95 411.0 330.55 412.6 329.7 412.1 328.85 411.9 330.8 409.6 332.05 408.8 334.55 407.2 337.95 407.8 341.35 408.4 345.3 417.15 349.2 425.85 346.95 425.5 343.85 425.0 340.05 423.55 336.4 422.15 334.25 420.7"/><path fill="#0d131a" d="M330.7 412.5 Q332.9 414.55 335.8 420.35 339.25 427.25 339.45 432.35 339.5 434.0 339.05 434.3 338.45 434.65 336.05 433.85 333.55 433.05 328.9 430.65 324.45 428.4 321.2 426.3 L321.2 424.2 Q324.25 426.2 330.05 428.9 336.05 431.65 336.85 431.3 337.65 430.95 334.6 423.55 331.5 416.2 329.8 414.45 328.4 413.05 326.45 412.2 324.25 411.3 322.5 411.7 320.5 412.1 318.45 414.15 317.05 415.6 315.95 417.45 L315.0 416.65 314.05 415.9 Q315.3 413.9 317.1 412.2 319.6 409.9 322.1 409.35 324.2 408.95 326.7 409.95 328.9 410.85 330.7 412.5"/><path fill="#0d131a" d="M316.1 419.25 Q313.95 416.5 310.6 416.35 308.2 416.25 304.6 420.0 300.9 423.85 301.7 426.2 302.15 427.5 312.1 431.2 321.5 434.65 323.0 434.7 324.05 434.8 321.45 428.7 318.75 422.4 316.1 419.25 M326.2 434.5 Q326.7 437.15 326.3 437.6 L323.45 437.55 Q317.5 436.05 310.4 433.25 302.1 430.0 299.4 427.55 298.4 426.65 298.4 425.9 298.35 425.35 298.9 424.2 300.2 421.05 302.3 418.45 306.05 413.75 310.35 414.15 314.15 414.55 316.75 416.5 318.85 418.1 320.45 421.1 325.35 430.4 326.2 434.5"/><path fill="#0d131a" d="M340.9 127.0 L334.05 125.4 332.05 123.35 Q336.1 123.85 341.05 125.25 346.45 126.75 347.3 127.9 347.75 128.45 347.5 129.05 346.9 130.55 340.45 134.3 L339.6 132.75 Q344.2 130.05 345.6 128.75 344.6 128.05 340.9 127.0"/><path fill="#0d131a" d="M356.5 146.9 Q356.75 147.65 356.5 148.1 355.7 149.65 342.05 151.35 L342.2 149.55 Q352.2 148.25 354.7 147.3 353.75 145.75 350.1 143.05 345.6 139.75 341.0 138.0 L341.0 136.15 Q346.15 138.0 351.15 141.7 355.65 144.95 356.5 146.9"/><path fill="#0d131a" d="M341.85 152.2 Q349.1 162.2 349.0 163.8 L348.6 164.6 Q346.95 165.9 331.3 163.0 L333.2 161.6 Q344.1 163.5 347.05 163.25 346.15 161.2 340.7 153.55 L341.85 152.2"/><path fill="#0d131a" d="M244.3 136.95 Q253.7 127.2 272.6 119.65 292.1 111.9 304.8 113.6 322.9 116.0 332.8 123.5 342.75 131.05 343.65 143.1 344.55 155.15 337.0 161.2 331.6 165.55 322.25 166.3 313.9 166.95 306.15 164.6 300.15 162.8 289.45 163.85 278.35 164.9 267.25 168.6 239.45 177.9 233.45 194.95 L232.3 192.45 Q240.0 174.25 267.7 165.5 278.75 162.05 289.85 161.2 300.4 160.45 306.65 162.35 314.1 164.6 321.6 164.05 330.1 163.5 335.15 159.45 342.0 154.05 341.15 142.8 340.3 131.35 331.45 124.85 322.7 118.45 305.0 116.1 292.8 114.5 274.6 121.55 257.45 128.25 245.4 138.3 L244.3 136.95"/><path fill="#0d131a" d="M42.75 266.05 Q42.15 271.05 42.65 271.6 43.15 272.1 45.2 271.2 L49.7 269.0 50.6 270.65 44.85 273.85 Q41.85 275.3 41.0 274.65 39.1 273.15 43.05 254.1 L44.0 257.5 Q43.15 262.2 42.75 266.05"/><path fill="#0d131a" d="M55.05 282.85 Q56.05 287.65 57.05 288.0 57.9 288.25 60.45 285.5 L65.45 279.7 67.9 280.4 Q58.5 291.55 56.5 291.55 55.85 291.55 55.25 290.85 53.85 289.1 52.85 282.25 51.85 275.3 52.45 271.0 54.0 273.15 54.0 273.75 54.0 278.0 55.05 282.85"/><path fill="#0d131a" d="M78.95 294.95 L76.9 294.9 Q75.05 293.95 72.4 288.75 70.25 284.55 68.9 280.55 L70.8 280.7 Q72.5 284.9 74.7 288.3 77.65 292.8 78.65 290.4 80.85 285.2 82.85 275.8 L84.95 274.25 82.5 286.2 Q80.55 294.05 78.95 294.95"/><path fill="#0d131a" d="M139.05 97.7 L141.65 98.2 Q138.4 106.75 138.7 120.85 138.9 131.5 141.1 144.55 142.8 154.9 142.9 163.8 142.9 169.7 142.1 177.65 L139.6 180.3 Q140.35 174.9 140.2 166.6 140.0 155.8 138.15 146.15 135.5 132.4 135.55 119.75 135.55 105.55 139.05 97.7"/><path fill="#0d131a" d="M229.95 184.5 Q230.8 184.1 231.15 184.2 L232.15 184.0 Q234.25 198.6 241.25 214.55 247.3 228.45 253.25 235.45 L254.95 237.4 Q262.15 245.55 266.55 251.7 274.9 263.2 280.1 275.0 284.45 284.9 286.85 295.15 289.3 305.75 289.3 315.35 289.3 328.55 284.35 344.45 273.2 380.55 251.3 397.45 229.9 413.95 193.3 416.0 L195.2 414.7 Q196.85 413.8 197.1 413.45 231.15 410.05 250.2 394.3 269.65 378.15 281.5 342.55 286.25 328.25 286.25 313.85 286.25 294.75 277.9 275.7 272.8 264.0 264.7 252.8 260.3 246.7 253.35 238.8 L251.65 236.8 Q245.65 229.7 239.4 215.55 232.2 199.3 229.95 184.5"/><path fill="#0d131a" d="M141.7 90.85 Q144.45 86.15 149.95 81.05 155.15 76.15 159.9 73.6 L159.55 77.4 Q150.55 82.35 144.5 91.75 L141.7 90.85"/><path fill="#0d131a" d="M222.05 175.65 Q221.5 175.3 221.65 174.45 221.8 173.6 222.8 173.95 226.35 175.25 227.55 175.95 228.25 176.35 228.15 176.75 L227.55 177.1 224.85 176.55 Q222.55 176.0 222.05 175.65"/><path fill="#0d131a" d="M238.5 170.2 Q238.2 168.6 238.8 166.6 239.0 165.75 239.45 165.85 239.9 165.95 240.2 166.7 240.35 167.15 239.7 170.35 239.55 171.4 239.05 171.2 238.65 171.0 238.5 170.2"/><path fill="#0d131a" d="M131.25 181.9 Q140.35 177.65 142.35 175.0 143.45 173.5 144.45 173.25 145.6 172.9 144.3 175.85 142.3 180.15 133.5 184.35 125.3 188.25 114.95 190.35 96.35 194.2 79.55 203.0 57.3 214.65 50.35 230.15 45.85 239.85 45.45 249.8 44.75 266.95 58.35 274.9 70.1 281.75 79.55 275.5 85.3 271.75 92.9 259.9 104.0 242.55 111.25 234.95 127.0 218.35 144.0 217.4 146.1 217.25 145.95 218.15 145.85 219.05 143.85 219.15 128.1 220.3 112.35 237.45 103.35 247.2 93.65 263.5 86.85 275.05 79.75 278.95 69.8 284.45 57.0 277.3 42.1 268.95 42.0 250.95 41.9 238.85 47.15 228.75 56.1 211.6 77.05 200.55 92.15 192.55 111.25 188.65 121.0 186.7 131.25 181.9"/><path fill="#0d131a" d="M156.15 97.85 Q155.75 96.85 154.75 96.4 142.7 91.25 131.85 91.7 125.2 92.0 112.75 95.45 L102.95 98.0 91.7 99.85 Q79.25 101.15 65.0 87.2 52.6 75.0 46.55 60.05 46.15 59.05 45.15 58.65 L43.15 58.6 Q41.5 59.3 41.5 61.05 L41.7 62.05 Q47.85 77.35 61.0 90.5 77.1 106.7 92.25 105.1 98.0 104.5 104.1 103.1 L114.2 100.5 Q125.95 97.25 132.0 97.0 141.75 96.55 152.7 101.25 153.7 101.65 154.75 101.25 155.75 100.85 156.15 99.85 156.55 98.85 156.15 97.85 M131.9 89.55 Q143.25 88.9 155.45 94.8 157.15 95.6 158.05 97.45 158.95 99.35 158.25 100.95 157.55 102.6 155.6 103.1 L152.0 102.85 Q141.4 98.35 132.0 98.75 126.1 99.0 114.65 102.2 L104.3 104.95 Q97.8 106.5 92.1 107.1 76.15 108.75 60.0 92.7 46.6 79.45 40.05 62.7 39.35 60.95 39.9 59.0 40.5 56.95 42.1 56.3 L45.7 56.45 Q47.55 57.3 48.2 59.0 54.35 74.5 66.5 86.15 79.9 99.0 91.95 97.75 101.7 96.7 112.3 93.75 126.1 89.9 131.9 89.55"/><path fill="#0d131a" d="M165.1 116.2 Q168.3 117.0 171.2 119.85 175.5 124.1 178.55 132.4 181.5 140.5 181.25 146.7 181.15 149.0 175.75 148.95 169.4 148.95 161.95 144.7 160.95 144.15 160.55 143.4 L159.65 141.1 Q157.95 136.8 157.15 132.55 155.7 124.75 157.95 120.05 160.35 115.0 165.1 116.2 M169.55 121.05 Q166.65 118.25 163.55 118.8 160.8 119.25 159.95 121.75 158.6 125.6 159.55 132.05 160.3 137.4 162.15 142.2 165.45 145.35 171.8 146.25 175.45 146.75 179.3 146.4 L179.45 144.5 Q179.45 139.0 176.35 131.8 173.3 124.75 169.55 121.05"/><path fill="#0d131a" d="M179.9 147.2 L170.05 146.75 167.1 145.4 Q163.05 136.9 163.7 130.05 164.25 123.85 167.8 122.9 172.6 121.6 176.45 129.65 180.25 137.55 179.9 147.2"/><path fill="#0d131a" d="M222.1 100.15 Q219.8 98.55 219.8 104.05 219.8 109.2 222.3 116.75 224.8 124.45 227.95 128.55 229.95 127.55 230.5 126.35 229.75 117.6 227.1 109.9 224.45 101.8 222.1 100.15 M220.3 98.1 Q221.45 97.65 222.8 98.55 225.45 100.4 228.2 108.45 231.1 116.95 231.95 126.45 L231.9 126.95 Q231.15 129.0 228.25 130.1 L227.5 130.1 227.2 129.9 Q223.3 125.15 220.25 115.25 217.1 105.0 218.5 100.4 219.1 98.55 220.3 98.1"/><path fill="#0d131a" d="M228.0 129.45 Q224.45 126.05 221.7 117.6 L219.6 109.8 Q218.95 105.9 220.3 104.65 221.6 103.5 223.5 105.25 225.4 106.95 227.6 112.4 230.2 118.9 231.45 126.7 230.25 127.95 228.0 129.45"/><path fill="#0d131a" d="M161.55 70.4 Q159.6 78.0 160.8 79.1 162.4 80.6 165.75 80.95 169.05 81.3 172.25 80.4 175.6 79.4 177.45 76.9 179.2 74.45 178.55 72.0 178.1 70.35 172.05 66.15 165.95 61.9 164.65 62.4 163.4 62.9 161.55 70.4 M158.5 79.2 Q157.95 77.15 159.45 69.35 161.15 60.85 163.35 60.0 165.65 59.15 172.7 64.25 179.45 69.1 180.05 71.05 181.15 74.8 179.25 77.7 177.35 80.6 172.8 82.15 167.7 83.9 162.95 82.3 159.05 80.95 158.5 79.2"/><path fill="#0d131a" d="M256.25 310.95 Q267.25 306.25 274.55 299.35 281.15 293.2 282.7 287.3 L283.45 288.25 Q281.65 294.95 275.0 301.4 267.65 308.45 256.55 313.15 229.0 324.65 190.7 317.0 L190.95 315.6 Q228.35 322.8 256.25 310.95"/><path fill="#0d131a" d="M208.25 343.9 L208.5 342.5 Q234.05 345.9 257.35 337.85 279.4 330.25 287.1 317.1 L287.35 318.9 Q279.4 332.45 257.1 340.1 233.4 348.25 208.25 343.9"/><path fill="#0d131a" d="M214.6 364.3 L214.95 362.95 Q233.6 366.25 254.0 360.85 272.8 355.85 280.5 347.4 L280.95 349.25 Q272.8 358.15 253.65 363.25 232.45 368.9 214.6 364.3"/><path fill="#0d131a" d="M213.85 389.4 L214.0 388.0 Q230.55 388.95 244.3 385.5 258.75 381.85 268.35 373.85 L268.8 375.6 Q258.85 383.9 244.3 387.5 230.05 391.0 213.85 389.4"/><path fill="#0d131a" d="M206.75 402.6 Q216.8 404.2 231.8 401.05 246.4 397.95 254.1 392.95 L251.0 396.4 Q243.45 401.35 230.2 403.55 217.15 405.7 206.5 404.0 L206.75 402.6"/><path fill="#0d131a" d="M130.7 222.25 L133.9 220.55 126.75 247.65 Q121.05 268.9 118.45 279.7 114.15 297.5 112.05 311.3 L110.6 311.9 Q109.5 312.4 108.8 313.3 L108.15 314.95 Q110.3 300.45 114.65 281.9 117.75 268.65 123.25 248.4 L130.7 222.25"/><path fill="#0d131a" d="M172.25 178.3 L173.95 178.6 Q166.25 219.8 166.4 247.0 166.6 285.3 181.35 305.6 L178.7 304.95 Q163.55 284.1 163.55 247.15 163.55 220.15 172.25 178.3"/><path fill="#0d131a" d="M231.35 188.75 L232.5 189.6 Q225.8 198.85 212.35 200.95 200.75 202.7 186.05 199.7 173.55 197.15 169.45 194.1 L170.3 192.95 Q173.9 195.65 185.7 198.05 200.05 201.0 211.85 199.2 225.4 197.1 231.35 188.75"/><path fill="#0d131a" d="M222.7 218.45 Q228.2 216.5 231.9 213.7 235.6 210.95 236.9 207.85 L238.2 208.35 Q236.75 211.85 233.05 214.9 229.15 218.1 223.55 220.05 212.25 224.05 198.25 223.15 181.85 222.05 167.35 214.1 L168.05 212.9 Q181.85 220.15 197.85 221.25 211.9 222.25 222.7 218.45"/><path fill="#0d131a" d="M247.1 229.45 L248.4 229.95 Q246.95 233.6 242.85 237.15 238.65 240.85 232.85 243.3 220.35 248.6 203.8 248.55 184.55 248.5 165.55 240.8 L166.05 239.5 Q184.65 247.0 203.95 246.75 220.25 246.6 232.75 241.25 238.4 238.8 242.1 235.8 245.8 232.75 247.1 229.45"/><path fill="#0d131a" d="M259.1 244.95 L260.45 245.15 Q259.75 249.85 256.05 254.65 252.2 259.7 246.1 263.4 232.85 271.4 213.45 272.85 190.85 274.55 167.0 266.25 L166.55 264.5 Q190.0 272.65 212.7 270.9 232.1 269.4 245.15 261.5 251.15 257.85 254.8 253.55 258.45 249.2 259.1 244.95"/><path fill="#0d131a" d="M259.0 281.35 Q264.8 277.15 268.1 272.25 271.4 267.35 271.6 262.65 L273.0 262.7 Q272.75 267.95 269.55 273.15 266.15 278.6 260.15 282.95 246.75 292.65 225.55 295.5 200.55 298.85 172.6 291.05 L172.15 289.35 Q199.75 297.05 224.65 293.7 245.85 290.9 259.0 281.35"/><path fill="#0d131a" d="M163.5 170.9 Q162.1 168.0 161.65 164.95 161.35 162.55 161.8 162.35 162.3 162.15 163.15 164.85 165.15 170.9 169.65 174.85 173.3 178.05 177.55 179.9 181.75 181.8 184.7 181.55 L185.65 183.15 Q181.15 183.45 176.7 181.95 172.1 180.35 168.2 177.0 165.25 174.5 163.5 170.9"/><path fill="#0d131a" d="M203.25 331.9 Q217.95 356.5 217.3 377.85 216.9 390.35 208.9 401.95 200.75 413.75 187.85 419.7 185.05 421.0 184.7 420.35 184.4 419.7 186.85 418.35 198.35 412.2 205.35 402.1 212.9 391.35 213.75 378.2 215.1 358.45 200.75 333.5 195.4 324.15 188.85 315.95 183.25 308.9 179.3 305.7 172.95 300.55 174.3 300.7 175.6 300.9 180.3 304.25 184.8 307.45 190.8 314.5 197.6 322.45 203.25 331.9"/><path fill="#0d131a" d="M112.7 311.15 Q102.5 328.4 104.3 354.7 105.95 378.6 115.2 391.9 129.05 411.9 147.65 419.7 150.9 421.05 150.85 421.95 150.85 422.85 147.45 421.75 137.25 418.4 128.7 411.6 120.0 404.7 112.5 393.85 106.85 385.65 103.4 374.9 99.45 362.5 99.45 349.35 99.45 338.4 102.4 327.7 105.95 314.65 112.7 307.6 115.85 304.35 116.0 304.65 116.25 305.1 112.7 311.15"/><path fill="#0d131a" d="M241.75 137.9 Q237.05 130.85 231.2 127.9 230.6 127.2 230.8 126.45 231.0 125.65 232.15 126.05 239.05 129.45 243.7 135.25 248.65 141.45 249.7 148.85 252.9 171.25 237.45 182.35 229.3 188.2 216.85 190.15 206.6 191.65 198.9 190.15 192.65 188.9 187.45 185.5 182.0 181.9 179.45 177.75 177.45 174.4 176.5 169.2 176.2 167.55 176.8 166.85 177.4 166.1 177.9 167.95 178.75 171.0 181.25 175.1 184.7 180.7 189.1 183.55 194.15 186.9 201.45 187.9 210.45 189.15 221.05 186.45 238.8 181.95 244.8 168.6 248.8 159.75 247.05 150.05 246.05 144.25 241.75 137.9"/><path fill="#0d131a" d="M224.75 102.5 Q224.3 101.6 223.4 100.8 L222.05 99.2 Q220.95 92.0 213.0 83.6 203.8 73.9 192.15 71.15 185.3 69.5 178.2 70.5 L176.35 68.3 Q184.65 67.25 192.65 69.1 205.55 72.15 214.85 82.15 223.85 91.8 224.75 102.5"/><path fill="#ffffff" d="M172.65 127.7 Q173.0 129.4 172.35 130.65 171.7 131.8 170.35 132.05 169.05 132.35 167.95 131.6 166.75 130.75 166.4 129.05 166.05 127.35 166.75 126.1 167.45 124.9 168.75 124.65 170.05 124.35 171.15 125.15 172.3 126.0 172.65 127.7"/><path fill="#ffffff" d="M224.0 109.15 Q224.45 110.65 224.3 111.85 224.15 113.05 223.45 113.25 222.75 113.45 222.0 112.5 221.2 111.6 220.8 110.1 220.35 108.65 220.5 107.45 220.7 106.25 221.35 106.05 222.0 105.8 222.8 106.75 223.6 107.65 224.0 109.15"/><path fill="#fff3c2" d="M233.35 2.0 L236.05 1.9 Q237.4 2.45 237.95 3.75 244.9 19.4 242.85 32.7 240.75 45.95 230.3 53.1 221.05 59.45 217.7 66.2 214.4 72.8 215.15 83.25 215.25 84.75 214.45 85.8 213.65 86.9 212.2 87.15 210.65 87.45 209.5 85.65 208.35 83.9 208.25 81.2 207.85 69.85 211.6 62.5 215.65 54.6 226.35 47.3 234.55 41.7 235.95 30.75 237.35 19.8 231.55 6.6 230.95 5.3 231.5 3.95 232.0 2.55 233.35 2.0"/><path fill="#dbd2a9" d="M214.6 65.6 Q216.55 61.35 220.9 58.15 224.45 55.55 227.5 54.95 225.05 56.45 222.0 59.9 218.45 63.9 216.85 67.65 215.15 71.75 214.95 76.8 L215.15 83.25 Q215.25 84.8 214.85 85.5 214.4 86.25 213.05 86.5 211.85 86.7 211.9 79.55 211.9 71.65 214.6 65.6"/><path fill="#0d131a" d="M238.75 3.4 Q246.1 20.25 244.2 33.3 242.35 46.35 231.6 53.65 225.85 57.6 222.8 60.6 218.9 64.45 217.25 68.8 216.45 70.85 216.05 74.85 215.7 78.7 215.9 82.95 216.0 85.1 214.85 86.55 213.75 87.85 212.15 87.85 208.65 87.95 208.0 83.25 207.55 79.3 207.7 74.85 207.85 69.0 209.1 65.4 210.9 60.2 214.8 55.7 218.6 51.35 225.0 46.95 233.0 41.45 234.5 31.45 236.05 21.25 230.75 6.95 229.85 4.55 230.45 2.75 231.0 1.15 232.7 0.35 234.5 -0.35 236.05 0.3 L237.65 1.6 238.75 3.4 M235.7 2.75 L233.7 2.8 Q232.15 3.4 232.15 5.2 L232.35 6.25 Q237.1 17.0 237.1 26.6 237.1 33.55 234.55 39.05 231.9 44.6 226.85 48.05 218.85 53.5 214.85 59.0 210.7 64.65 209.8 69.2 209.0 73.35 209.75 83.0 210.1 86.2 212.2 86.15 213.15 86.15 213.8 85.2 214.4 84.3 214.3 83.25 213.5 71.5 217.3 64.55 220.55 58.7 229.8 52.35 240.0 45.4 241.95 32.45 243.95 19.5 237.15 4.1 236.75 3.15 235.7 2.75"/></g></svg>