<?xml version='1.0' encoding='utf-8'?>
<svg xmlns="http://www.w3.org/2000/svg" version="1.1" width="220px" height="206px" viewBox="-1.45 -0.35 220.15 206.05"><g><path fill="#ef821e" d="M181.05 67.2 L195.95 59.4 186.0 86.0 208.4 80.55 197.05 105.6 216.65 106.55 184.6 136.7 201.4 139.35 179.05 148.3 Q156.55 157.25 155.7 157.25 L153.25 156.75 Q148.3 155.95 141.8 153.7 133.6 150.5 123.65 144.75 115.3 139.9 113.6 138.2 104.05 132.2 95.2 125.3 77.75 111.75 74.2 100.45 72.1 93.85 66.2 81.5 60.35 69.6 59.4 67.35 L70.75 74.5 69.8 37.15 80.25 46.2 84.15 2.65 101.85 41.2 119.3 18.05 123.35 54.25 144.8 38.25 143.1 55.05 154.3 44.95 156.0 52.55 199.1 18.95 181.05 67.2"/><path fill="#0d131a" d="M197.35 21.35 L178.6 36.0 158.1 51.85 Q156.15 53.2 155.75 53.2 155.15 53.2 154.7 51.4 L153.75 47.05 144.55 55.3 Q143.1 56.45 142.65 56.25 142.15 56.05 142.35 54.2 L143.7 40.4 125.3 54.2 Q123.25 55.5 122.75 55.3 122.3 55.1 121.95 53.1 121.5 50.55 118.5 20.45 L103.65 40.5 101.75 42.35 Q101.45 42.4 100.45 40.4 L84.8 6.2 81.55 45.3 Q81.35 46.9 80.95 47.1 80.45 47.3 78.7 46.0 L70.9 39.9 71.85 74.05 Q71.95 75.9 71.35 76.0 70.95 76.0 69.1 74.95 L64.5 71.95 61.9 70.15 66.9 80.3 64.2 80.3 58.1 67.45 Q57.2 65.1 57.8 64.9 58.4 64.75 61.35 66.85 L69.65 72.85 68.45 38.05 Q68.35 34.95 68.8 34.85 69.15 34.75 71.7 36.9 73.65 38.6 79.7 44.4 L82.7 3.4 Q82.9 0.4 83.65 0.05 84.55 -0.35 86.1 3.25 L102.05 39.5 116.85 18.65 Q119.25 15.25 119.8 15.45 120.45 15.6 120.8 20.05 L123.55 53.1 142.5 38.3 Q145.5 35.95 146.0 36.35 146.4 36.7 145.95 40.6 L144.0 53.5 152.0 45.35 Q153.9 43.3 154.55 43.3 155.25 43.35 155.7 45.65 L156.45 51.15 Q193.5 21.15 196.45 19.2 200.2 16.75 200.8 17.05 201.4 17.35 199.9 21.15 L182.5 65.8 193.7 58.8 Q197.05 56.7 197.55 57.05 198.05 57.5 196.45 61.5 189.3 79.4 187.35 84.85 L206.05 79.6 Q209.75 78.55 210.0 79.15 210.25 79.7 208.3 83.9 L198.5 104.8 214.1 104.95 Q218.2 105.05 218.4 105.65 218.7 106.4 214.95 109.8 L186.25 136.05 198.2 137.45 Q203.35 138.15 203.55 139.05 203.65 139.7 200.5 141.05 194.35 143.75 176.5 150.75 L175.4 149.95 174.6 149.0 197.5 139.55 187.0 138.05 Q183.6 137.55 183.25 137.1 182.75 136.45 184.9 134.3 L200.5 119.9 214.3 107.35 199.1 106.65 196.05 106.1 Q195.9 105.8 197.1 103.1 L206.45 82.05 188.35 86.5 184.95 87.1 Q184.55 86.8 185.7 83.7 L194.1 61.4 184.25 66.8 Q180.9 68.6 180.35 68.45 179.55 68.2 180.95 64.55 L197.35 21.35"/><path fill="#ffe33f" d="M165.05 70.4 Q170.65 62.65 171.15 62.9 171.65 63.1 168.5 73.95 L163.25 90.95 Q166.4 87.15 169.7 83.75 173.15 80.15 173.55 80.4 173.9 80.65 168.1 94.9 L171.5 92.65 Q174.9 90.45 175.15 90.8 175.65 91.4 164.95 110.95 178.95 98.75 179.6 99.2 179.8 99.4 176.4 105.75 L171.05 115.3 177.6 112.9 Q181.5 111.65 181.65 112.0 181.8 112.4 176.5 117.9 L167.95 126.5 176.0 124.3 Q180.6 123.2 180.8 123.95 181.05 124.75 168.25 134.9 155.6 144.95 155.0 144.95 150.25 144.95 133.35 139.8 L116.5 134.3 Q115.9 134.05 115.75 133.5 L106.7 103.4 Q97.7 73.3 98.25 73.15 99.2 72.85 107.55 84.15 107.8 56.85 108.85 56.85 109.5 56.8 112.4 71.2 L115.2 85.6 116.05 81.15 Q117.0 76.7 117.4 76.7 117.8 76.65 120.35 87.2 L123.9 102.8 Q125.85 96.5 126.6 96.35 127.35 96.2 131.15 102.25 131.15 96.35 131.45 88.5 131.75 79.25 132.15 79.2 132.65 79.15 134.25 85.55 L136.5 95.75 Q137.5 93.35 138.6 91.3 139.85 89.0 140.25 89.05 140.65 89.1 141.4 92.0 L142.5 97.3 Q156.05 72.2 156.55 72.35 156.9 72.45 156.95 76.0 L156.85 82.15 165.05 70.4"/><path fill="#008086" d="M182.3 163.7 Q174.3 152.5 162.9 153.0 159.8 153.1 153.65 154.45 147.8 155.75 145.1 155.75 139.9 155.75 132.25 151.0 123.4 145.5 117.55 144.2 110.6 142.65 102.7 144.35 L96.25 146.3 Q100.85 141.1 104.0 132.55 107.6 122.95 106.05 116.7 113.75 118.6 120.9 126.3 124.45 130.15 126.45 133.6 L133.7 129.65 132.3 135.0 146.25 126.25 142.2 133.35 146.25 133.0 144.85 136.15 150.0 134.65 148.0 138.75 153.15 136.5 153.4 140.25 Q164.45 140.5 173.0 147.3 181.7 154.25 182.3 163.7"/><path fill="#008086" d="M86.55 86.8 Q93.85 91.55 98.75 98.35 111.35 115.7 102.05 136.3 103.7 122.55 94.85 112.4 86.15 102.45 73.0 102.45 54.05 102.45 46.55 119.05 41.6 130.05 42.55 144.45 42.8 147.4 42.25 148.8 41.75 150.15 39.85 151.65 33.6 156.6 24.85 163.7 14.8 171.6 8.95 178.5 6.8 181.05 4.45 180.5 2.05 179.85 1.85 176.3 6.1 165.05 13.9 155.4 L18.7 149.6 Q20.7 147.05 20.85 145.55 L21.45 128.2 Q21.75 117.35 24.6 109.8 31.3 92.0 45.2 84.8 57.75 78.25 73.95 81.35 79.95 82.5 86.55 86.8"/><path fill="#fff8b0" d="M182.8 164.85 Q185.6 169.85 183.15 179.3 180.65 189.1 174.5 194.75 167.75 200.95 158.35 203.05 150.05 204.9 146.6 202.65 143.15 200.4 144.8 197.6 147.35 194.8 147.45 193.65 139.9 195.0 128.7 195.35 124.25 199.3 117.8 200.9 L108.55 201.25 Q105.6 200.5 105.3 198.9 104.8 196.65 110.4 193.55 105.35 192.7 96.75 189.2 88.55 185.9 86.9 184.3 84.25 184.3 82.9 182.65 81.7 181.15 81.8 178.7 L77.45 172.8 Q67.05 181.8 58.45 183.4 52.0 184.6 49.9 181.9 48.5 180.05 50.55 174.55 52.6 169.05 56.2 165.2 L58.2 163.35 Q51.75 165.4 48.5 167.2 29.15 177.95 16.8 187.1 12.7 190.1 11.45 190.75 9.55 191.8 6.75 191.95 2.3 192.2 1.0 186.65 -0.1 181.65 1.85 177.1 2.35 180.3 4.35 180.9 6.35 181.45 8.4 179.0 11.0 175.9 17.1 170.7 L26.6 162.95 33.5 157.1 40.25 151.45 Q41.95 150.1 42.6 148.8 43.2 147.45 43.05 145.5 41.75 129.1 48.15 117.1 56.05 102.35 72.9 102.35 86.85 102.35 95.9 113.65 105.2 125.2 101.25 138.95 101.2 139.45 99.55 142.3 L97.4 145.75 Q103.4 143.85 105.85 143.45 L116.65 143.85 Q122.4 144.9 131.45 150.3 140.1 155.45 143.35 155.75 146.1 156.05 152.15 154.75 159.1 153.3 160.95 153.2 175.75 152.5 182.8 164.85"/><path fill="#d2ecfa" d="M106.9 196.05 Q109.9 195.5 112.95 196.8 115.9 198.1 117.3 200.4 114.9 201.95 110.45 201.45 106.25 200.95 105.5 199.5 104.9 198.15 105.3 197.2 105.7 196.3 106.9 196.05"/><path fill="#d2ecfa" d="M145.7 196.75 Q148.45 195.25 154.15 197.7 159.8 200.2 158.85 202.55 L158.8 202.6 Q156.7 203.9 152.4 203.55 148.0 203.2 145.35 201.35 144.1 200.45 144.1 199.05 144.15 197.6 145.7 196.75"/><path fill="#ddd698" d="M78.4 172.95 Q72.7 178.2 62.6 182.0 51.4 186.25 49.35 181.85 54.25 182.85 62.4 177.3 69.5 172.5 73.3 167.2 L75.55 170.05 Q76.7 171.45 78.4 172.95"/><path fill="#ddd698" d="M80.95 177.55 Q75.1 169.05 70.15 162.95 76.65 168.6 82.6 172.5 81.2 174.8 80.95 177.55"/><path fill="#ddd698" d="M102.2 191.5 L93.65 188.0 Q89.85 186.3 86.9 184.25 L93.9 183.95 Q98.05 183.65 100.75 181.8 113.4 186.45 126.25 186.35 133.45 186.25 141.7 184.45 140.5 182.75 139.8 179.8 L139.35 177.25 Q147.3 186.75 160.5 188.05 171.3 189.15 181.1 184.9 175.3 197.65 158.95 203.2 160.3 201.15 155.2 198.45 149.95 195.65 145.45 196.7 L147.55 193.75 130.65 195.0 Q111.8 195.45 102.2 191.5"/><path fill="#ddd698" d="M82.6 182.05 Q87.25 182.4 95.4 177.55 L108.45 169.1 Q112.45 166.7 113.95 167.85 115.25 168.9 113.85 171.4 109.55 179.2 96.6 183.1 91.25 184.75 87.35 184.55 83.2 184.3 82.6 182.05"/><path fill="#ddd698" d="M110.25 193.7 L116.45 194.35 128.0 195.3 Q128.15 196.8 122.8 198.95 L117.4 200.8 Q116.4 197.85 112.5 196.55 109.1 195.4 106.6 196.2 107.45 195.15 108.95 194.35 L110.25 193.7"/><path fill="#b6ccd9" d="M117.25 200.8 L113.1 201.4 Q108.6 201.75 106.95 200.75 L111.15 199.85 Q115.1 198.65 113.7 197.1 L115.5 198.05 Q117.25 199.35 117.25 200.8"/><path fill="#b6ccd9" d="M155.15 198.4 Q157.35 198.85 158.35 200.9 158.9 201.9 158.95 202.85 154.75 204.3 150.7 203.75 L147.45 202.95 Q154.1 203.35 155.3 200.9 155.65 200.15 155.45 199.2 L155.15 198.4"/><path fill="#0d131a" d="M105.55 196.2 Q106.3 195.35 107.95 194.45 L110.05 193.1 112.05 193.4 107.4 196.3 Q104.25 198.45 107.4 199.9 110.6 201.4 116.3 200.05 119.8 199.2 123.7 197.4 127.15 195.7 127.8 194.85 L131.55 194.5 Q130.6 195.55 126.15 197.95 120.7 200.95 116.6 201.8 110.05 203.2 106.4 201.15 102.9 199.15 105.55 196.2"/><path fill="#0d131a" d="M111.75 197.15 L105.55 196.95 106.55 195.85 Q109.85 195.1 113.75 196.45 117.7 197.8 117.7 199.85 L116.7 200.4 Q116.3 198.35 111.75 197.15"/><path fill="#0d131a" d="M77.4 171.9 L78.0 172.6 78.6 173.3 Q71.3 181.05 60.35 183.85 50.45 186.4 48.25 183.45 46.45 181.1 48.6 175.15 50.85 169.0 55.25 164.9 58.7 163.4 60.05 162.95 54.25 167.5 51.6 173.8 49.3 179.15 50.6 181.15 52.05 183.45 59.85 181.5 69.0 179.2 77.4 171.9"/><path fill="#0d131a" d="M69.9 161.55 Q73.6 165.2 76.9 169.75 L82.0 177.05 81.25 179.35 74.5 170.05 Q70.55 164.7 67.6 162.05 L69.9 161.55"/><path fill="#0d131a" d="M116.95 195.45 Q97.65 192.95 85.1 183.9 L88.15 183.9 Q100.05 191.45 117.75 193.55 132.75 195.35 147.45 192.95 L147.9 194.1 Q134.1 197.7 116.95 195.45"/><path fill="#0d131a" d="M73.9 103.7 Q58.9 103.7 50.7 114.65 42.5 125.6 43.9 143.7 44.15 147.35 43.0 149.4 41.75 151.65 37.05 155.4 25.9 164.3 24.4 165.55 17.25 171.55 11.0 177.95 7.25 181.85 4.5 181.75 1.85 181.65 1.95 177.85 L2.75 176.5 Q2.3 179.05 4.55 179.3 6.95 179.6 10.1 176.1 15.35 170.25 23.8 163.15 L36.85 152.65 Q39.9 150.25 40.55 149.35 41.8 147.55 41.6 144.35 40.2 124.9 49.0 113.1 57.85 101.1 74.05 101.35 87.2 101.55 95.9 111.6 104.9 122.0 102.35 135.65 102.25 136.35 101.4 137.7 L100.3 139.7 Q103.5 125.15 94.95 114.2 86.75 103.7 73.9 103.7"/><path fill="#0d131a" d="M63.1 81.25 Q46.4 81.45 34.65 95.0 20.95 110.7 22.7 136.95 23.05 142.3 22.55 144.2 22.1 146.0 19.5 149.45 11.8 159.65 8.75 164.65 3.5 173.1 2.45 179.5 1.1 187.55 4.55 189.9 7.85 192.15 13.65 187.95 21.75 182.1 31.65 175.95 42.85 168.95 49.35 166.0 56.8 162.65 66.5 160.75 76.0 158.9 82.75 155.7 86.85 153.75 86.2 154.85 85.55 155.85 82.65 157.55 75.1 161.2 65.8 163.0 56.55 164.8 49.1 168.4 36.4 174.6 14.5 190.1 8.05 194.65 3.65 192.45 -1.45 189.95 0.5 179.1 1.75 172.05 8.0 162.1 12.15 155.4 17.95 148.35 20.1 145.75 20.5 143.7 20.8 142.2 20.55 137.4 19.1 111.1 31.2 95.25 42.85 79.9 63.1 79.25 79.6 78.7 92.1 88.65 103.4 97.75 106.25 110.75 108.55 121.2 104.95 132.55 101.85 142.3 96.25 148.15 93.9 150.6 93.3 150.05 92.65 149.45 95.55 146.15 100.45 140.6 103.2 131.0 106.3 120.3 104.15 112.0 100.6 98.45 90.05 90.05 78.75 81.05 63.1 81.25"/><path fill="#0d131a" d="M172.9 154.25 Q180.1 157.75 182.9 165.1 183.3 166.2 183.15 166.55 182.85 167.2 182.9 168.15 180.2 159.85 172.35 156.1 164.45 152.3 155.05 155.05 145.9 157.45 140.25 156.0 137.05 155.15 131.2 151.2 123.5 145.9 114.3 144.65 103.1 143.15 94.25 148.75 L95.5 147.15 Q103.15 140.65 114.95 142.65 123.95 144.2 132.4 149.75 138.4 153.75 141.9 154.3 146.0 154.95 155.7 152.9 165.2 150.5 172.9 154.25"/><path fill="#0d131a" d="M184.75 176.55 Q183.9 182.65 180.7 188.25 177.0 194.7 171.2 198.5 165.0 202.5 157.75 204.0 149.35 205.7 144.8 202.5 143.15 201.3 143.2 199.4 143.3 197.45 145.05 195.8 146.4 194.5 146.6 193.65 146.8 192.85 146.15 192.1 143.5 189.2 141.9 186.9 138.95 182.6 138.45 178.25 138.0 174.1 139.3 169.9 140.55 166.0 142.95 163.1 144.55 161.15 145.9 160.6 147.25 160.05 145.7 161.8 142.9 165.05 141.55 169.1 140.15 173.2 140.45 177.5 140.75 181.45 143.55 185.9 144.5 187.45 147.2 190.8 149.3 193.45 147.15 195.65 145.55 197.3 145.2 198.45 144.75 200.0 146.35 201.1 150.05 203.65 156.55 202.5 163.8 201.25 171.55 195.75 176.3 192.45 179.05 187.25 181.65 182.5 182.35 176.65 184.1 161.45 175.5 151.25 167.2 141.4 153.9 141.25 L152.5 141.15 152.4 139.55 152.5 137.6 149.05 139.0 146.95 139.75 Q146.45 139.75 146.95 138.7 L148.5 135.75 146.0 136.45 143.85 136.75 Q143.65 136.55 144.0 135.65 L145.0 133.7 142.15 134.15 141.3 134.05 Q141.15 133.8 141.75 132.95 L144.95 127.85 Q144.0 128.05 132.6 135.8 L131.2 136.65 Q130.85 136.7 131.15 135.4 L132.45 131.0 Q129.75 132.95 127.85 133.95 126.5 134.7 126.4 134.65 126.2 134.65 125.35 133.4 120.8 126.8 116.6 123.45 112.45 120.2 106.1 118.15 105.65 117.25 105.55 116.4 105.45 115.45 106.05 115.6 112.8 117.75 117.8 121.85 122.35 125.65 126.95 132.5 L131.1 130.05 Q134.2 128.2 134.5 128.45 135.05 128.95 133.25 133.4 147.4 123.95 148.15 124.45 148.85 124.95 143.6 132.8 L145.35 132.45 Q147.15 132.15 147.35 132.45 147.65 132.95 145.65 135.3 L148.65 134.0 Q150.9 133.1 151.2 133.35 151.7 133.7 148.95 137.7 L151.15 136.55 Q153.4 135.4 153.8 135.65 L154.1 137.2 154.1 139.8 Q169.7 139.9 178.55 151.75 186.7 162.65 184.75 176.55"/><path fill="#0d131a" d="M145.2 196.85 Q147.4 194.55 153.55 196.75 159.8 199.0 159.35 202.45 L158.25 202.75 Q159.15 200.4 152.9 198.05 146.65 195.7 145.0 197.9 144.9 197.65 145.1 197.4 L145.2 196.85"/><path fill="#0d131a" d="M111.55 172.65 Q113.55 170.2 114.3 170.2 115.05 170.15 113.15 173.25 108.1 181.25 96.7 184.4 92.0 185.7 88.0 185.5 84.0 185.35 82.3 183.75 78.9 180.5 81.7 173.05 84.85 164.6 94.1 158.85 98.35 156.15 99.05 156.6 99.75 157.0 96.0 159.8 88.5 164.8 84.8 171.8 81.3 178.4 83.65 181.65 84.6 182.95 87.8 183.15 L95.25 182.35 Q105.6 179.85 111.55 172.65"/><path fill="#0d131a" d="M11.15 182.15 Q11.9 180.8 12.7 181.05 13.5 181.3 12.9 182.95 L11.45 186.35 10.9 187.5 Q10.7 187.6 10.65 186.5 10.55 183.2 11.15 182.15"/><path fill="#0d131a" d="M64.9 121.2 Q69.3 119.2 73.4 121.15 77.65 123.15 79.9 128.55 81.25 131.75 80.7 132.45 80.1 133.1 78.8 129.9 77.0 125.6 73.45 123.85 69.85 122.05 66.05 123.6 56.75 127.35 54.35 145.6 54.1 147.65 53.45 147.55 52.75 147.5 52.95 145.15 53.65 135.5 57.15 129.05 60.25 123.3 64.9 121.2"/></g></svg>