<?xml version='1.0' encoding='utf-8'?>
<svg xmlns="http://www.w3.org/2000/svg" version="1.1" width="226px" height="325px" viewBox="-0.2 -0.55 225.5 324.95"><g><path fill="#e50044" d="M136.55 273.5 L142.25 269.2 Q147.0 266.7 152.8 266.8 157.15 266.9 160.65 269.95 164.05 272.95 165.75 278.0 169.55 289.55 162.45 302.15 155.7 314.15 145.1 319.4 136.1 323.9 130.25 321.5 125.25 319.4 123.8 314.45 122.25 309.15 123.75 297.45 125.0 287.45 131.95 278.6 134.1 275.85 136.55 273.5"/><path fill="#ffffff" d="M66.3 177.65 Q69.25 178.05 78.65 181.95 83.35 183.9 87.45 185.75 82.95 200.95 85.5 213.55 86.8 219.85 88.95 223.1 L87.15 226.25 Q84.65 230.05 81.2 233.25 77.0 237.15 75.0 238.3 71.1 240.65 65.9 240.75 60.95 240.85 55.6 237.3 50.35 233.8 47.15 228.4 41.55 219.0 39.7 208.4 37.8 197.6 41.3 193.45 43.6 190.25 47.05 187.6 49.25 185.9 53.2 183.55 57.55 180.95 62.35 179.05 64.75 178.1 66.3 177.65"/><path fill="#ffffff" d="M47.4 192.25 Q52.6 191.95 56.0 196.05 57.75 198.05 58.4 200.15 62.2 209.45 59.1 216.4 57.55 219.9 55.25 221.55 53.4 227.75 50.0 230.65 47.8 232.55 46.05 232.55 41.3 233.0 37.0 231.35 28.55 228.15 27.1 217.7 25.45 205.4 33.2 198.25 39.2 192.7 47.4 192.25"/><path fill="#e50044" d="M33.0 120.65 L42.3 125.2 41.3 151.3 37.95 151.3 Q18.85 141.9 3.35 135.3 1.25 134.4 1.3 131.2 1.35 127.15 6.9 124.05 12.85 120.8 17.7 119.8 25.0 118.3 33.0 120.65"/><path fill="#ffe792" d="M3.35 135.3 Q6.05 132.65 10.85 130.7 20.55 126.75 31.4 130.1 38.0 132.15 40.45 137.95 42.7 143.25 41.3 151.3 L36.6 150.6 Q31.1 147.75 24.2 144.45 10.4 137.75 3.35 135.3"/><path fill="#ffffff" d="M32.1 187.75 Q25.9 186.25 22.65 179.2 19.1 171.35 22.85 162.55 26.25 154.7 33.8 152.2 37.55 150.95 40.65 151.3 54.3 155.05 55.6 161.35 56.1 163.6 55.2 167.1 L53.7 173.15 Q52.85 178.2 50.6 180.75 49.45 182.05 48.5 182.3 46.9 186.9 42.25 188.15 L32.1 187.75"/><path fill="#30353a" d="M46.05 169.95 Q46.05 168.15 47.45 166.45 50.25 163.0 57.3 163.45 65.2 163.9 76.2 167.8 86.05 171.25 92.45 175.15 L87.7 186.2 Q85.1 184.7 81.0 182.8 72.7 179.1 64.95 177.4 54.25 175.4 51.2 174.45 46.65 173.05 46.05 169.95"/><path fill="#ffffff" d="M211.35 157.6 Q219.65 159.75 220.85 162.3 224.55 170.25 220.7 184.4 218.0 194.1 212.15 205.55 206.35 216.85 196.85 224.5 186.0 233.25 175.75 232.0 164.2 229.65 159.55 227.2 L157.5 225.75 157.2 225.25 Q159.3 221.9 160.75 216.25 163.6 205.0 160.2 193.6 153.6 174.3 135.85 166.15 130.3 163.6 124.35 162.45 L119.45 161.85 142.25 157.85 Q169.8 154.05 193.4 155.0 203.1 155.4 211.35 157.6"/><path fill="#e50044" d="M96.1 168.95 Q99.4 168.5 104.3 165.45 L108.5 162.5 112.15 162.15 Q119.6 160.95 128.15 163.45 136.6 165.95 143.95 171.4 160.75 183.9 161.95 202.25 163.15 220.45 152.2 233.65 142.05 245.8 128.65 246.55 114.35 247.35 102.95 240.1 89.5 231.5 86.1 214.35 83.0 198.9 89.25 182.35 91.2 177.2 93.85 172.55 L96.1 168.95"/><path fill="#ffe792" d="M101.4 172.35 Q103.5 172.55 109.0 171.2 118.85 171.5 128.25 177.35 136.6 182.55 141.15 189.6 145.85 196.9 148.35 210.8 150.75 224.35 148.9 231.2 147.35 237.0 141.95 241.15 136.6 245.3 129.2 246.45 111.75 249.2 97.45 235.2 84.8 222.75 84.75 203.7 84.7 197.7 85.95 191.8 L87.2 187.1 Q89.85 179.8 95.9 175.35 L101.4 172.35"/><path fill="#e50044" d="M212.05 130.0 Q162.85 143.8 150.8 154.75 142.25 157.45 129.4 160.0 L118.25 161.95 Q119.55 149.5 124.8 134.75 135.4 105.15 155.5 93.45 169.3 85.45 186.9 90.5 205.8 95.95 216.9 114.05 220.45 119.8 219.2 124.05 218.0 128.35 212.05 130.0"/><path fill="#ffe792" d="M207.65 131.2 Q195.65 134.3 184.55 138.25 163.1 145.85 149.4 155.85 L123.6 160.75 Q124.65 155.75 126.8 149.35 131.05 136.65 136.5 130.0 L144.05 120.0 Q149.45 113.15 154.3 109.1 168.6 97.1 185.95 102.4 199.3 106.45 206.9 114.85 210.7 119.1 211.85 122.5 L211.95 126.15 Q211.3 130.05 207.65 131.2"/><path fill="#30353a" d="M84.75 201.05 L85.45 212.55 Q78.35 210.25 73.75 210.1 69.2 209.9 59.8 211.65 53.35 212.8 51.7 208.2 51.05 206.3 52.1 204.4 53.25 202.35 56.15 201.25 67.2 196.95 77.1 198.6 82.05 199.4 84.75 201.05"/><path fill="#30353a" d="M101.95 244.75 Q93.35 248.2 93.8 261.85 L84.75 250.6 Q85.7 247.7 87.55 244.45 91.25 237.95 95.6 236.4 100.35 234.7 105.05 237.6 109.05 240.1 110.65 244.05 106.25 243.05 101.95 244.75"/><path fill="#e50044" d="M83.15 279.8 Q77.0 280.8 70.4 279.15 53.45 275.0 42.45 256.9 41.15 254.05 40.55 250.45 39.35 243.3 42.9 239.8 47.75 234.9 55.55 235.1 65.0 235.3 76.45 243.4 88.8 252.1 93.2 261.75 97.55 271.3 91.75 276.25 88.65 278.9 83.15 279.8"/><path fill="#30353a" d="M96.6 168.7 Q99.9 167.4 104.25 164.45 L107.95 161.7 110.2 164.0 Q111.2 167.85 108.3 171.35 106.65 173.4 103.8 173.6 L101.3 173.45 96.6 168.7"/><path fill="#c6003a" d="M56.05 247.4 Q63.4 249.55 69.35 253.85 76.2 258.9 80.95 265.25 86.65 272.9 84.2 276.75 82.65 279.15 78.7 279.7 74.75 280.25 69.35 278.8 62.15 276.95 55.8 272.65 47.2 266.9 44.05 258.8 43.3 256.65 43.05 254.1 42.55 249.0 45.25 247.2 48.3 245.1 56.05 247.4"/><path fill="#c6003a" d="M122.65 306.5 L124.95 310.2 Q128.3 314.15 133.75 315.2 140.55 316.55 149.75 310.7 159.4 304.5 165.2 294.2 L163.25 299.05 Q160.65 304.85 157.25 309.45 146.3 324.2 131.55 321.55 124.6 319.2 122.95 312.6 122.4 310.55 122.5 308.3 L122.65 306.5"/><path fill="#c6003a" d="M147.4 238.55 L148.0 234.5 Q148.65 233.7 149.15 230.45 L149.55 227.35 Q157.05 221.1 162.0 210.25 159.0 228.75 147.4 238.55"/><path fill="#dbc77f" d="M134.65 245.3 Q123.9 248.35 112.1 244.5 L110.55 244.0 109.5 242.15 Q108.1 239.95 106.05 238.35 104.0 236.75 100.4 236.1 L97.15 235.75 Q92.95 231.7 90.45 226.75 L88.8 222.55 90.25 224.5 Q92.25 226.85 94.8 228.85 103.05 235.3 114.2 236.0 127.65 236.8 136.4 234.25 L135.3 238.5 Q134.3 243.2 134.65 245.3"/><path fill="#dbdcdc" d="M22.1 172.65 L26.1 176.45 Q31.3 180.15 37.55 179.7 43.85 179.25 46.9 176.75 L48.75 174.4 53.3 175.55 52.3 178.3 Q50.85 181.25 48.45 182.1 L46.75 185.65 Q44.0 189.15 38.7 189.0 31.75 188.75 27.1 184.8 21.8 180.3 22.1 172.65"/><path fill="#dbdcdc" d="M43.0 232.9 Q35.7 232.3 31.45 226.4 27.45 221.0 27.7 213.6 L30.5 217.15 Q34.3 220.75 39.3 221.05 45.0 221.35 49.85 218.6 54.35 216.1 56.05 212.3 L60.2 211.6 59.45 215.4 Q58.0 219.6 54.6 221.45 L54.2 223.35 Q53.65 225.65 52.6 227.5 49.35 233.45 43.0 232.9"/><path fill="#30353a" d="M100.2 247.25 Q93.6 252.85 94.15 263.25 L90.65 257.8 Q90.95 254.8 91.8 251.5 93.4 244.9 95.9 243.4 98.9 241.55 102.0 241.0 L109.05 240.65 110.5 243.85 Q105.6 242.65 100.2 247.25"/><path fill="#30353a" d="M85.5 211.85 Q83.05 210.6 78.85 209.85 70.45 208.4 61.85 211.2 56.75 212.85 54.2 211.3 L52.55 209.6 Q54.4 208.65 59.05 207.4 65.25 205.65 70.05 205.6 76.35 205.5 81.45 206.8 84.0 207.45 85.25 208.15 L85.5 211.85"/><path fill="#30353a" d="M46.3 170.05 L61.35 172.25 Q78.5 175.75 89.2 182.15 L87.8 185.05 Q72.8 179.1 64.4 177.2 L51.25 174.9 Q46.3 173.7 46.3 170.05"/><path fill="#0d131a" d="M89.0 179.8 Q91.2 175.15 94.0 171.0 95.45 168.9 96.65 167.5 96.9 167.2 97.6 167.8 98.3 168.35 98.05 168.65 L95.6 172.0 Q92.95 176.0 90.95 180.5 84.55 194.6 86.2 208.95 87.15 217.35 90.65 224.3 94.25 231.4 100.2 236.4 L96.9 236.55 Q91.45 231.3 88.1 224.35 84.65 217.3 83.75 209.35 82.1 194.5 89.0 179.8"/><path fill="#0d131a" d="M134.85 245.95 Q128.65 247.8 120.65 247.15 113.35 246.55 108.3 244.3 L110.0 242.3 Q115.45 244.65 122.75 245.1 129.95 245.5 135.05 243.8 L134.85 245.95"/><path fill="#0d131a" d="M108.65 161.6 Q123.25 159.15 136.3 165.4 150.65 172.2 158.8 187.75 165.3 200.2 162.55 214.9 159.65 230.55 147.4 239.85 L147.75 236.55 Q158.8 226.5 160.55 211.8 162.0 199.05 156.5 188.7 148.4 173.5 134.2 166.65 121.6 160.6 109.6 163.1 L108.8 162.45 Q108.3 161.65 108.65 161.6"/><path fill="#0d131a" d="M107.65 172.4 L109.1 170.85 Q126.25 172.65 136.7 183.3 143.75 190.45 147.25 201.25 150.3 210.6 150.35 220.9 150.4 230.2 148.1 236.75 L147.45 233.05 Q149.05 227.8 148.3 218.35 147.5 207.8 144.05 198.85 139.0 185.65 126.75 178.15 116.6 171.95 107.65 172.4"/><path fill="#0d131a" d="M105.7 172.6 L104.6 172.8 Q97.65 174.45 93.6 178.45 90.35 181.6 87.95 187.5 L87.2 187.55 Q86.6 187.2 86.7 186.85 88.75 181.1 91.95 177.75 95.9 173.65 102.9 171.55 L105.7 172.6"/><path fill="#0d131a" d="M102.65 172.4 Q102.75 172.05 103.5 172.15 104.2 172.25 104.1 172.6 98.2 194.15 104.6 215.05 111.55 237.85 129.9 245.8 130.25 245.9 129.8 246.45 L129.05 246.85 Q111.4 240.4 103.5 218.9 95.45 196.9 102.65 172.4"/><path fill="#0d131a" d="M164.9 91.2 Q146.6 96.05 133.7 118.5 122.9 137.3 119.15 161.25 119.1 161.65 118.15 161.75 117.2 161.85 117.25 161.45 121.1 137.05 130.25 119.4 143.15 94.55 164.3 88.95 177.8 85.35 192.85 92.0 207.15 98.25 216.15 110.5 220.9 116.9 220.5 122.25 220.05 128.4 212.7 130.4 196.4 134.85 185.45 138.95 165.45 146.5 147.8 157.6 147.5 157.8 147.5 156.6 147.5 155.45 147.7 155.3 167.1 143.0 186.4 136.15 192.5 134.0 212.5 128.7 217.85 127.3 218.45 122.8 219.05 118.35 214.75 112.5 205.85 100.35 192.4 94.2 178.1 87.65 164.9 91.2"/><path fill="#0d131a" d="M210.5 123.25 Q209.35 116.2 201.3 110.45 192.95 104.5 184.15 102.5 173.4 100.05 164.1 104.2 151.25 109.9 139.4 127.0 127.85 143.6 124.3 160.5 124.25 160.8 123.4 160.9 122.6 160.95 122.65 160.65 126.75 141.1 137.85 124.95 149.15 108.5 163.35 102.2 172.7 98.05 183.8 100.5 193.15 102.6 201.9 108.8 210.85 115.15 212.5 122.45 214.0 128.9 209.6 130.6 L205.85 131.65 Q211.55 129.95 210.5 123.25"/><path fill="#0d131a" d="M208.0 156.0 Q219.15 157.85 221.05 160.95 225.3 167.95 222.75 181.2 220.3 193.95 212.8 206.65 204.95 220.05 194.9 227.2 183.65 235.25 172.7 232.8 168.1 231.8 164.15 229.8 161.4 228.45 157.35 225.75 157.05 225.55 157.15 224.7 157.2 223.85 157.55 224.05 L165.15 227.85 Q169.1 229.55 173.15 230.4 183.7 232.6 194.25 224.7 203.45 217.75 210.7 204.8 217.4 192.75 219.8 180.7 222.25 168.4 218.8 162.5 214.75 155.55 179.7 156.4 148.7 157.1 121.95 162.25 121.55 162.35 120.2 161.7 118.85 161.05 119.2 160.95 145.4 153.85 181.6 154.15 197.35 154.25 208.0 156.0"/><path fill="#0d131a" d="M40.15 193.95 L38.45 194.2 Q45.05 185.4 64.45 176.45 64.8 176.3 65.45 177.1 66.15 177.9 65.8 178.05 58.1 181.55 54.05 183.95 46.85 188.15 42.3 193.1 42.0 193.4 40.15 193.95"/><path fill="#0d131a" d="M55.95 234.9 L52.0 235.35 Q49.65 233.55 48.2 231.7 48.0 231.4 48.6 230.8 49.2 230.15 49.45 230.4 52.0 232.9 55.95 234.9"/><path fill="#0d131a" d="M88.8 222.55 Q89.05 222.3 89.7 222.85 90.35 223.4 90.15 223.7 85.75 230.1 82.25 233.8 76.8 239.45 71.55 240.9 L67.7 239.35 Q73.25 238.8 79.55 232.9 82.2 230.4 88.8 222.55"/><path fill="#0d131a" d="M35.15 121.7 Q34.85 122.6 34.5 122.5 25.65 118.75 16.55 121.0 10.65 122.45 5.6 126.05 1.8 128.8 2.25 131.35 2.75 134.1 8.3 136.15 17.05 139.45 24.7 143.0 34.05 147.3 38.85 150.7 39.05 150.85 37.8 151.3 L36.25 151.55 Q32.65 149.0 23.3 144.85 L6.75 137.8 Q0.2 135.0 0.0 131.25 -0.2 127.6 5.35 123.6 10.4 120.0 16.5 118.65 25.65 116.65 35.1 120.65 35.45 120.75 35.15 121.7"/><path fill="#0d131a" d="M31.5 130.6 Q24.1 128.45 17.05 129.8 10.0 131.1 4.05 135.7 3.8 135.95 3.2 135.5 2.6 135.1 2.85 134.85 9.55 129.05 16.95 127.8 23.4 126.7 31.6 129.0 L31.5 130.6"/><path fill="#0d131a" d="M55.45 162.3 Q64.5 162.9 75.65 166.4 86.7 169.9 92.9 174.1 93.2 174.3 92.6 175.35 91.95 176.35 91.65 176.15 85.25 171.75 74.55 168.35 63.8 164.95 54.85 164.5 52.35 164.35 50.35 165.1 48.4 165.9 47.45 167.35 46.25 169.2 47.2 170.95 47.9 172.25 49.65 172.95 51.1 173.55 54.15 173.95 62.25 175.1 70.25 177.4 80.2 180.3 87.8 184.45 88.1 184.65 87.65 185.55 87.25 186.45 86.9 186.25 79.4 182.6 68.35 179.4 58.95 176.65 54.4 176.2 47.6 175.55 45.65 171.8 45.0 170.6 45.2 168.95 45.35 167.45 46.2 166.1 47.45 164.2 49.95 163.15 52.45 162.1 55.45 162.3"/><path fill="#0d131a" d="M84.35 199.35 Q84.7 199.45 84.65 200.5 84.6 201.55 84.25 201.45 76.8 199.15 68.5 199.55 61.15 199.95 56.5 202.15 53.0 203.8 52.6 206.1 52.3 207.6 53.2 208.75 53.8 209.6 54.85 210.15 56.35 210.9 58.25 210.65 L59.55 210.3 Q66.4 208.75 70.45 208.5 78.25 208.0 84.65 210.65 85.0 210.8 85.3 212.05 85.6 213.3 85.25 213.15 75.1 209.0 59.7 212.35 L58.55 212.6 Q55.8 213.2 53.65 211.9 52.05 210.9 51.45 209.4 50.2 206.6 51.45 203.95 52.8 201.25 56.6 199.55 61.8 197.3 68.5 197.0 76.6 196.6 84.35 199.35"/><path fill="#0d131a" d="M87.9 241.65 Q92.25 234.95 97.85 234.55 102.85 234.2 107.3 237.9 111.15 241.1 111.15 243.5 111.15 245.05 109.75 244.8 103.65 243.7 99.1 250.0 94.5 256.35 94.85 265.35 94.85 265.7 93.8 264.6 L92.7 263.1 Q92.4 257.0 96.6 250.35 101.6 242.3 109.2 243.1 108.3 241.3 105.3 239.25 101.6 236.7 97.95 236.7 94.3 236.7 91.1 240.1 87.25 244.2 85.6 252.05 85.55 252.4 84.75 251.55 84.0 250.7 84.05 250.35 85.0 246.2 87.9 241.65"/><path fill="#0d131a" d="M89.3 276.55 Q94.55 273.35 93.4 266.25 92.1 258.5 79.8 248.2 66.65 237.25 55.05 236.25 50.25 235.85 47.0 237.45 43.8 239.1 42.5 242.55 40.35 248.25 43.85 256.25 47.65 264.9 56.2 271.15 63.9 276.75 73.8 278.35 83.75 280.0 89.3 276.55 M95.65 266.05 Q96.6 274.0 90.75 278.15 85.05 282.2 74.6 280.85 63.8 279.45 54.55 273.0 45.85 266.95 41.8 257.4 37.7 247.9 40.9 241.3 42.8 237.4 46.95 235.45 51.05 233.5 56.5 233.95 67.55 234.9 81.05 245.95 94.6 257.0 95.65 266.05"/><path fill="#0d131a" d="M152.3 267.0 Q151.9 266.95 151.65 266.05 151.35 265.15 151.7 265.15 158.1 265.4 162.6 270.4 168.7 277.1 167.5 290.0 166.2 303.95 154.7 314.45 143.9 324.4 134.2 323.0 128.65 322.15 125.5 319.2 122.05 315.85 121.1 309.45 119.55 299.1 125.05 287.05 130.6 274.7 139.3 270.35 139.5 270.25 139.9 271.05 140.3 271.85 140.1 271.9 132.9 275.85 127.55 288.1 122.2 300.4 123.6 309.85 125.05 319.55 133.7 320.75 142.65 322.05 152.45 313.45 163.4 303.8 165.05 289.1 167.15 270.45 152.3 267.0"/><path fill="#0d131a" d="M34.15 153.0 Q29.3 154.9 26.3 159.75 23.7 163.95 23.05 168.7 22.4 173.4 23.8 177.7 24.9 180.95 27.05 183.35 29.2 185.7 32.15 186.85 39.0 189.3 43.6 187.15 47.15 185.4 48.55 181.05 48.65 180.7 49.3 180.8 49.9 180.85 49.8 181.2 47.9 187.05 44.35 188.75 41.0 190.35 36.25 189.95 L31.15 188.9 Q27.8 187.6 25.2 184.85 22.55 182.05 21.3 178.45 19.75 173.8 20.45 168.65 21.15 163.45 23.95 158.95 26.8 154.4 31.45 152.1 35.5 150.15 40.15 150.15 46.95 150.15 51.55 153.75 56.15 157.3 57.3 163.45 L54.9 162.75 Q54.15 159.25 51.1 156.4 47.65 153.15 42.75 152.25 38.3 151.4 34.15 153.0"/><path fill="#0d131a" d="M39.45 184.75 L38.6 185.6 37.85 185.85 Q37.5 185.7 37.6 185.1 37.7 184.15 38.4 183.4 39.3 182.35 40.8 182.5 49.8 183.0 52.9 174.4 L53.7 174.3 Q54.35 174.55 54.25 174.9 52.25 181.7 47.2 183.65 44.7 184.6 40.7 184.25 40.0 184.2 39.45 184.75"/><path fill="#0d131a" d="M49.85 191.4 Q54.55 192.3 57.4 196.15 58.85 198.1 59.45 200.05 59.6 200.4 58.8 200.75 57.95 201.1 57.8 200.75 57.25 199.2 55.95 197.55 53.4 194.25 49.6 193.45 44.15 192.35 38.6 195.4 31.95 199.1 29.45 207.1 26.95 215.15 29.75 221.85 32.25 227.75 37.5 230.25 40.2 231.5 43.05 231.5 46.0 231.55 48.3 230.3 52.9 227.95 54.05 221.45 54.1 221.1 54.85 221.0 55.6 220.95 55.55 221.3 55.15 225.55 53.2 228.6 51.6 231.1 49.4 232.2 46.65 233.65 43.1 233.75 39.45 233.8 36.4 232.4 30.5 229.65 27.55 222.7 24.35 215.1 26.95 206.65 29.7 197.9 37.35 193.7 43.8 190.2 49.85 191.4"/><path fill="#0d131a" d="M59.7 210.9 Q59.7 210.55 60.4 210.6 61.1 210.7 61.1 211.05 61.1 217.2 57.45 220.4 55.8 221.85 51.7 223.4 50.15 223.95 49.6 224.65 49.0 225.3 48.6 227.05 48.4 227.95 47.95 227.75 47.5 227.6 47.55 226.65 47.7 224.6 48.3 223.7 49.05 222.45 51.15 221.7 54.45 220.5 56.25 218.9 59.4 216.0 59.7 210.9"/><path fill="#0d131a" d="M101.85 172.3 Q106.45 172.3 108.4 169.35 109.2 168.2 109.45 166.85 109.65 165.65 109.3 164.85 109.0 163.9 107.0 162.3 106.7 162.05 107.25 161.35 107.85 160.65 108.1 160.9 L109.45 162.0 Q110.7 163.05 111.0 163.95 112.3 167.45 110.15 170.6 107.2 174.85 101.85 173.95 100.9 173.8 99.15 172.35 L96.15 169.4 97.95 168.55 Q101.25 172.3 101.85 172.3"/><path fill="#30353a" d="M96.6 168.7 Q99.9 167.4 104.25 164.45 L107.95 161.7 110.2 164.0 Q110.6 165.5 110.15 167.8 109.55 170.7 107.8 172.85 104.0 177.5 100.6 174.5 L96.6 168.7"/><path fill="#0d131a" d="M107.0 162.3 Q106.7 162.05 107.25 161.35 107.85 160.65 108.1 160.9 L109.45 162.0 Q110.7 163.05 111.0 163.95 112.45 167.85 109.25 172.35 106.0 176.85 102.1 176.25 101.1 176.1 99.1 173.8 97.05 171.45 95.8 168.9 L97.15 167.55 99.45 171.35 Q101.5 174.55 102.65 174.65 106.2 174.65 108.3 170.9 110.25 167.4 109.3 164.85 109.0 163.9 107.0 162.3"/><path fill="#30353a" d="M141.5 229.2 L144.35 229.75 Q145.8 230.2 146.5 231.3 148.25 234.0 146.9 243.85 145.65 253.15 147.85 259.2 149.05 262.4 151.2 265.45 152.4 268.25 152.4 270.5 152.4 273.7 149.85 274.9 145.7 276.85 141.95 274.05 L139.05 270.85 Q132.45 260.8 132.4 250.95 132.35 247.65 133.1 243.45 L134.15 237.3 Q134.7 232.65 138.15 230.45 L141.5 229.2"/><path fill="#0d131a" d="M133.25 236.25 Q134.4 231.1 138.45 229.15 141.2 227.85 143.5 228.25 146.1 228.7 147.5 230.6 148.95 232.45 148.95 235.4 L148.4 240.0 Q146.8 249.5 147.85 255.1 148.65 259.6 152.3 265.65 154.0 268.35 153.1 271.6 152.7 273.1 151.7 274.4 L149.9 276.05 Q147.85 277.2 145.5 276.8 143.0 276.35 140.95 274.3 132.35 265.45 131.45 253.15 131.0 246.6 133.25 236.25 M139.55 230.9 Q136.35 232.35 135.4 236.25 132.6 247.95 133.6 255.3 134.8 264.35 142.1 272.7 143.6 274.45 145.65 274.8 147.45 275.05 149.05 274.2 150.8 273.15 151.35 271.1 151.95 269.05 150.4 266.45 146.25 259.75 145.45 254.05 144.75 249.0 146.25 239.95 L146.75 235.65 Q146.75 230.8 143.25 230.25 141.6 229.95 139.55 230.9"/><path fill="#e50044" d="M56.1 69.0 Q65.7 65.7 73.7 65.7 92.4 66.05 103.15 73.1 115.8 81.4 120.9 100.6 125.45 117.65 117.95 141.7 114.2 153.75 109.55 162.35 109.8 160.95 109.4 159.0 108.65 155.2 105.7 152.8 102.5 150.2 90.85 155.2 L79.85 160.75 Q78.95 164.7 73.3 170.9 66.3 178.6 59.4 178.65 49.05 178.8 41.95 173.55 39.75 171.9 38.15 169.9 L36.95 168.25 Q22.9 154.2 20.9 132.85 18.9 112.1 28.8 92.0 36.85 75.55 56.1 69.0"/><path fill="#ffe792" d="M80.05 165.35 L85.15 164.9 Q93.3 162.75 98.5 152.85 L100.45 152.5 104.65 152.75 Q110.55 154.25 109.55 162.35 L105.55 167.5 Q100.35 173.3 94.45 176.65 85.65 181.7 74.9 182.4 62.9 183.2 51.45 178.2 L54.25 178.45 61.1 177.75 Q71.95 175.25 78.0 165.05 L80.05 165.35"/><path fill="#30353a" d="M42.6 106.2 Q46.15 105.9 48.35 107.85 50.85 110.15 52.05 115.65 53.2 120.95 51.1 125.25 49.35 128.9 46.7 129.85 43.6 130.95 40.4 129.1 36.2 126.65 35.05 119.85 33.85 112.4 38.1 108.55 39.45 107.35 41.15 106.65 L42.6 106.2"/><path fill="#30353a" d="M35.45 8.05 Q38.05 9.35 30.5 37.85 22.85 66.85 15.95 79.8 L27.2 95.35 24.35 101.4 Q19.0 97.85 13.5 93.6 2.55 85.15 1.9 81.85 2.2 69.6 16.5 40.05 27.5 17.25 32.3 10.55 33.6 8.75 34.65 8.2 L35.45 8.05"/><path fill="#30353a" d="M94.95 16.35 Q104.45 0.55 106.55 0.9 108.35 0.5 104.15 14.0 100.35 26.25 94.25 41.75 L89.1 54.75 84.25 65.7 Q81.85 70.55 81.05 74.45 80.3 77.9 80.35 83.4 80.5 90.0 80.2 93.2 79.7 99.4 77.8 100.65 75.45 102.2 72.2 93.35 68.85 84.15 69.3 75.05 69.5 70.8 72.65 61.9 75.55 53.9 80.3 43.6 86.05 31.15 94.95 16.35"/><path fill="#9ba4a9" d="M42.15 108.1 Q43.4 108.5 43.8 110.25 44.15 111.95 43.55 113.9 42.9 116.0 41.65 117.05 40.35 118.2 38.95 117.75 37.6 117.3 37.25 115.6 36.95 114.05 37.65 111.95 38.3 110.0 39.65 108.85 41.0 107.7 42.15 108.1"/><path fill="#f19a96" d="M39.9 95.1 Q37.4 93.1 38.35 88.5 39.25 84.45 41.9 81.25 45.05 77.45 48.9 76.05 52.75 74.7 55.05 76.45 57.5 78.35 56.85 82.55 56.3 86.6 53.25 90.45 50.1 94.45 46.45 95.85 42.6 97.25 39.9 95.1"/><path fill="#c6003a" d="M34.85 160.85 L38.15 164.55 Q42.8 168.6 49.6 170.4 56.65 172.25 64.9 168.9 70.15 166.75 74.95 162.9 L77.75 165.0 76.2 167.45 Q74.1 170.35 71.6 172.6 63.5 179.9 53.85 178.35 43.9 176.75 39.05 170.3 36.65 167.2 34.85 160.85"/><path fill="#30353a" d="M3.55 71.05 Q3.55 78.0 8.05 83.4 12.6 88.8 26.2 98.0 L24.5 101.2 Q19.2 98.3 13.75 94.5 2.85 86.95 2.15 82.5 1.45 78.05 2.45 74.1 L3.55 71.05"/><path fill="#30353a" d="M45.2 130.0 Q40.6 130.25 38.2 127.4 37.5 126.55 35.9 122.8 L37.3 124.0 Q39.05 125.25 40.95 125.75 47.1 127.2 52.4 119.95 L51.5 124.85 Q49.7 129.8 45.2 130.0"/><path fill="#0d131a" d="M93.7 41.1 Q99.0 27.5 103.1 14.4 107.05 2.0 106.35 1.7 105.25 1.15 99.5 10.1 93.75 19.1 87.25 31.55 70.4 63.95 70.4 76.7 70.4 84.7 73.25 92.75 75.9 100.05 77.7 99.9 78.45 99.8 78.8 95.65 79.2 90.7 79.4 77.2 79.45 75.15 84.15 64.05 L93.7 41.1 M88.1 26.75 Q94.6 15.15 100.15 7.35 105.75 -0.55 107.15 0.05 108.7 0.7 104.7 14.15 101.1 26.15 94.9 42.45 L85.7 65.4 Q81.2 76.05 81.1 76.9 80.8 79.65 80.55 91.25 80.0 101.5 77.8 101.75 74.25 102.15 70.8 91.8 67.3 81.25 68.7 73.0 71.5 56.25 88.1 26.75"/><path fill="#0d131a" d="M29.4 37.35 Q35.2 14.9 35.2 8.8 35.2 8.65 35.05 8.7 29.9 12.2 15.8 44.35 1.55 76.75 3.3 81.9 4.45 85.2 13.85 92.6 22.05 99.0 25.75 100.8 26.05 100.95 25.65 101.85 25.25 102.75 24.9 102.6 20.25 100.3 12.45 94.3 2.2 86.45 1.15 82.0 0.35 78.6 4.55 65.95 8.5 54.25 14.9 40.1 21.5 25.5 27.05 16.45 33.3 6.25 35.95 7.1 36.95 7.45 36.35 13.85 35.65 20.65 33.4 30.5 27.6 56.2 16.8 80.05 23.7 87.55 27.6 95.05 27.8 95.45 27.2 96.4 26.65 97.35 26.45 96.95 24.35 92.85 21.6 89.2 19.05 85.85 14.15 80.75 22.35 64.55 29.4 37.35"/><path fill="#0d131a" d="M70.9 67.05 L70.1 67.15 Q43.55 69.2 30.45 92.1 22.85 105.3 21.35 120.95 21.3 121.35 20.35 121.25 19.35 121.15 19.4 120.75 19.8 107.6 26.3 94.2 39.3 67.45 70.15 64.7 L71.65 64.6 70.9 67.05"/><path fill="#0d131a" d="M51.05 117.55 Q50.7 112.4 48.45 109.5 46.25 106.6 42.9 106.85 40.05 107.05 38.15 110.1 36.25 113.1 36.25 117.4 L36.3 118.6 Q36.65 123.25 39.05 126.4 41.4 129.55 44.45 129.3 47.85 129.1 49.65 125.9 51.45 122.75 51.05 117.55 M42.75 105.15 Q46.95 104.85 49.95 108.2 53.05 111.6 53.45 117.4 53.85 123.25 51.35 127.05 48.85 130.7 44.6 131.0 40.7 131.25 37.65 127.95 34.45 124.45 33.95 118.75 33.5 113.5 36.25 109.4 38.95 105.4 42.75 105.15"/><path fill="#0d131a" d="M89.85 168.75 Q89.75 167.6 90.3 167.55 90.8 167.5 91.0 168.75 91.65 173.25 88.85 175.8 86.75 177.7 83.25 177.1 82.1 176.85 82.1 176.35 82.1 175.9 83.25 175.95 L84.95 175.9 Q86.5 175.6 87.55 174.6 88.6 173.65 89.25 172.1 89.95 170.45 89.85 168.75"/><path fill="#0d131a" d="M16.45 132.8 L16.35 135.15 Q16.35 143.65 19.5 150.85 24.25 161.65 35.3 166.7 33.5 162.55 30.95 151.75 L28.45 139.9 Q27.0 131.8 24.1 126.25 21.5 121.25 19.65 121.6 18.25 121.85 17.25 126.2 16.45 129.8 16.45 132.8 M117.65 95.8 Q114.55 86.3 108.65 79.8 104.2 74.95 97.6 71.7 91.3 68.6 83.85 67.4 L84.35 65.0 Q92.65 66.55 99.2 69.65 106.4 73.05 110.95 78.05 116.55 84.25 119.45 93.25 122.05 101.55 122.8 113.7 123.9 132.15 116.95 149.15 109.95 166.35 97.35 175.35 90.0 180.6 82.0 182.1 67.6 184.9 53.75 180.5 40.9 176.4 36.65 169.3 21.05 162.2 16.05 147.55 13.65 140.55 14.1 132.95 14.25 129.8 15.45 125.8 17.1 120.3 19.4 120.05 23.35 119.6 26.75 126.85 29.15 131.85 30.8 139.35 L34.0 154.35 Q37.2 167.7 39.9 170.4 44.1 174.6 51.25 176.35 59.45 178.35 65.55 175.15 71.1 172.2 74.65 168.0 L77.15 164.25 78.2 164.3 Q79.1 164.7 78.95 165.05 77.1 169.45 71.2 173.8 63.6 179.45 55.2 178.95 60.0 180.7 66.1 181.25 73.4 181.9 80.45 180.55 89.3 178.8 96.35 173.95 105.1 167.9 107.45 162.15 109.6 156.8 105.4 154.35 103.25 153.1 100.45 153.6 L98.05 154.35 Q97.7 154.55 97.25 153.8 96.8 153.1 97.15 152.9 L100.35 151.7 Q103.95 150.85 106.7 152.5 108.6 153.6 109.3 155.45 109.9 157.1 109.7 159.75 115.15 150.55 118.1 138.25 120.85 127.0 120.8 116.35 120.75 105.2 117.65 95.8"/><path fill="#30353a" d="M139.5 137.35 L150.95 138.65 Q150.8 144.9 148.95 151.95 146.85 159.9 142.85 167.7 139.25 174.8 134.15 176.75 L128.45 176.95 Q126.25 176.05 125.4 173.45 124.2 169.85 128.25 165.9 134.4 159.95 137.55 148.05 L139.5 137.35"/><path fill="#30353a" d="M126.0 173.75 Q128.95 175.8 134.85 171.1 142.0 165.4 148.75 152.45 144.4 164.2 143.1 166.75 138.4 176.35 133.4 177.1 129.05 177.75 127.35 176.45 126.4 175.7 126.0 173.75"/><path fill="#0d131a" d="M138.6 136.35 Q138.65 136.0 139.5 136.05 140.4 136.15 140.4 136.5 140.1 146.7 136.95 154.6 134.05 161.7 128.45 167.85 126.6 169.85 126.55 172.05 126.45 174.05 127.8 175.35 129.3 176.8 131.65 176.45 134.4 176.05 137.15 173.4 141.0 169.6 144.95 160.25 149.7 149.1 150.35 138.55 150.35 138.2 151.25 138.25 152.1 138.3 152.1 138.65 151.9 149.45 147.35 160.9 143.35 170.8 139.0 175.05 135.7 178.3 131.9 178.5 128.65 178.65 126.55 176.65 124.7 174.85 124.55 171.9 124.4 168.6 126.7 166.1 132.1 160.25 134.7 153.95 137.45 147.2 138.6 136.35"/><path fill="#30353a" d="M174.6 179.45 Q174.6 181.85 177.45 186.05 L180.25 189.8 Q178.85 191.8 173.3 195.0 L165.85 199.0 Q162.05 201.05 154.65 201.8 145.55 202.75 144.65 198.35 143.75 193.9 146.75 192.2 147.75 191.65 155.45 189.8 161.05 188.45 168.4 183.8 172.05 181.5 174.6 179.45"/><path fill="#30353a" d="M172.05 195.9 Q161.05 202.4 149.25 201.9 L147.3 200.95 Q145.25 199.55 144.75 197.35 147.0 199.95 157.75 197.55 169.9 194.75 178.35 187.05 L180.75 189.25 Q177.6 192.6 172.05 195.9"/><path fill="#0d131a" d="M174.3 178.3 Q174.6 178.1 174.8 179.15 174.95 180.25 174.7 180.5 168.75 185.4 163.7 187.8 157.8 190.65 149.5 191.95 147.5 192.25 146.4 193.9 145.35 195.4 145.6 197.1 145.8 198.85 147.35 199.9 149.15 201.15 152.35 200.85 160.05 200.25 168.1 196.45 174.85 193.25 179.75 188.95 180.05 188.7 180.75 189.3 181.4 189.95 181.15 190.2 176.05 195.15 168.95 198.55 160.95 202.35 152.75 203.0 148.75 203.35 146.25 201.4 144.15 199.75 143.85 197.35 143.5 194.95 144.75 192.9 146.15 190.6 148.85 190.1 155.65 188.85 162.5 185.55 168.75 182.6 174.3 178.3"/><path fill="#ffffff" d="M164.95 113.45 Q170.9 122.8 166.7 130.0 164.65 133.6 161.35 135.3 158.3 137.8 154.1 138.35 147.8 139.15 138.4 135.85 129.55 132.75 127.45 124.95 126.75 122.5 126.85 119.9 L127.1 117.75 Q125.85 110.3 131.2 106.15 133.9 104.1 136.8 103.55 L139.8 102.9 147.15 102.65 Q158.75 103.75 164.95 113.45"/><path fill="#ffffff" d="M193.3 155.3 Q199.1 156.35 202.3 158.95 206.3 160.75 209.35 167.95 213.4 177.4 208.4 186.4 205.15 192.25 199.4 194.05 195.7 195.25 191.55 194.6 188.55 194.8 184.7 192.7 179.9 190.05 176.65 184.85 173.0 179.05 173.65 172.6 L175.05 167.25 Q174.9 163.45 176.5 160.85 177.8 158.7 180.9 156.7 186.2 154.0 193.3 155.3"/><path fill="#dbdcdc" d="M165.2 131.55 Q162.0 135.8 156.95 135.05 152.9 134.45 150.75 131.95 148.65 128.7 146.95 126.9 144.5 124.3 141.9 123.5 L135.1 123.05 Q131.05 123.3 128.7 119.9 126.5 116.75 127.8 114.05 L129.15 117.15 Q131.15 120.25 134.5 120.1 L142.35 119.75 Q146.9 120.35 150.8 125.05 155.1 130.2 160.05 130.5 164.55 130.75 167.35 127.15 166.8 129.45 165.2 131.55"/><path fill="#dbdcdc" d="M134.55 123.05 L138.2 122.55 142.35 123.0 Q144.7 123.8 147.3 127.4 L151.05 132.45 Q152.85 134.3 155.6 134.85 158.8 135.5 162.5 134.15 161.4 135.8 158.6 137.1 153.1 139.7 144.9 138.0 134.4 135.85 129.5 129.35 125.2 123.65 127.3 118.25 130.45 123.25 134.55 123.05"/><path fill="#dbdcdc" d="M174.35 178.85 Q176.1 182.2 179.3 184.1 182.4 185.9 186.3 186.15 L187.4 189.65 Q189.05 193.45 191.65 194.8 188.15 195.3 182.6 191.35 175.8 186.45 174.35 178.85"/><path fill="#dbdcdc" d="M186.4 186.05 L188.05 186.5 193.7 186.15 Q200.9 184.8 205.6 180.85 209.05 177.95 210.75 174.0 210.6 179.5 209.55 183.0 207.5 190.0 202.1 193.05 196.7 196.1 192.4 194.6 188.8 193.3 187.35 189.65 L186.6 187.2 186.4 186.05"/><path fill="#0d131a" d="M127.95 119.95 L127.9 120.5 Q127.9 124.85 130.3 128.3 133.5 133.0 140.75 135.55 151.95 139.5 159.0 136.05 L159.8 135.6 154.15 135.25 Q152.0 134.45 150.4 132.8 L148.0 129.7 Q145.6 126.4 143.55 124.8 142.1 123.75 140.3 123.55 L136.85 123.7 Q134.1 124.0 132.7 123.75 130.35 123.3 128.8 121.3 L127.95 119.95 M163.95 131.6 Q165.15 130.2 165.85 128.1 166.45 126.3 166.45 124.85 166.55 119.05 163.35 113.9 160.0 108.4 154.45 106.2 146.35 102.95 139.2 104.4 133.05 105.65 129.95 109.65 128.1 112.1 128.2 114.85 128.25 117.6 130.25 120.2 131.4 121.75 133.2 122.1 134.4 122.35 136.85 122.05 L140.8 121.9 Q143.05 122.15 144.85 123.55 L147.7 126.2 149.7 128.75 151.8 131.45 Q153.05 132.7 154.95 133.4 L160.75 133.6 Q162.5 133.0 163.95 131.6 M165.5 113.2 Q169.1 119.15 168.75 124.7 168.65 126.6 167.95 128.7 167.35 130.5 165.7 132.65 163.3 135.8 159.8 137.7 156.1 139.7 150.9 139.6 145.7 139.55 139.85 137.45 131.85 134.65 128.4 129.65 125.75 125.8 126.0 121.15 126.05 119.35 126.4 117.9 L126.7 116.75 Q126.15 113.2 126.9 110.55 127.25 109.25 128.2 107.8 130.85 103.7 138.65 102.25 147.4 100.65 155.65 104.25 161.65 106.9 165.5 113.2"/><path fill="#0d131a" d="M201.35 160.0 Q196.7 156.45 190.8 155.9 186.4 155.55 182.9 157.05 179.4 158.55 177.7 161.55 176.7 163.3 176.9 165.7 177.15 168.5 179.05 170.45 L183.95 175.1 Q186.85 178.65 187.25 184.15 187.7 190.25 191.4 192.85 193.85 194.6 197.3 193.7 204.5 191.8 207.4 186.05 209.35 182.2 209.6 177.8 209.8 173.35 208.25 169.4 205.95 163.6 201.35 160.0 M182.3 154.85 Q186.35 153.25 191.7 153.7 198.1 154.25 203.15 158.1 208.15 162.0 210.65 168.3 213.95 176.8 209.95 185.35 205.95 193.75 197.95 195.8 193.9 196.9 190.35 194.3 187.3 192.05 186.2 188.85 185.75 187.5 185.45 184.3 185.2 180.9 183.35 178.1 182.25 176.45 179.05 173.2 L177.55 171.7 Q175.25 169.2 174.8 166.3 174.35 163.4 175.8 160.6 177.75 156.65 182.3 154.85"/><path fill="#0d131a" d="M174.75 164.0 Q174.95 163.7 175.6 165.2 176.25 166.65 176.1 167.0 174.3 171.0 174.75 175.4 175.15 179.95 177.9 184.2 180.4 188.15 183.8 190.75 187.55 193.6 191.45 194.0 191.85 194.05 193.4 194.95 194.95 195.9 194.6 195.9 188.75 196.1 183.5 193.05 178.6 190.15 175.8 185.35 173.0 180.55 172.75 174.65 172.45 168.7 174.75 164.0"/><path fill="#003856" d="M19.8 120.8 Q22.85 120.2 26.35 129.1 29.6 137.35 32.45 151.75 33.85 158.7 36.2 164.75 37.35 167.75 38.25 169.35 35.0 168.95 28.25 163.6 19.25 156.5 16.9 147.75 14.5 138.95 15.8 129.65 17.05 120.9 19.8 120.8"/><path fill="#005981" d="M19.45 120.95 Q22.1 120.5 24.2 123.6 26.5 127.0 28.65 135.25 30.5 142.3 30.3 147.0 30.1 151.9 27.65 152.8 24.3 153.95 20.8 150.15 17.0 145.95 15.55 138.3 14.4 132.3 15.9 126.5 17.3 121.05 19.45 120.95"/><path fill="#003856" d="M79.25 164.95 Q73.15 162.65 71.05 152.1 68.6 139.65 75.55 125.6 81.65 113.25 90.5 109.25 97.3 106.2 101.65 108.7 105.55 110.95 106.35 117.45 107.4 125.95 102.85 140.75 98.45 155.15 90.55 161.6 84.2 166.8 79.25 164.95"/><path fill="#005981" d="M80.1 137.15 Q77.9 130.55 80.0 122.75 82.4 114.1 89.35 109.8 95.9 105.75 101.2 108.25 104.9 110.0 106.2 115.8 107.6 121.9 105.65 130.1 103.9 137.6 98.0 142.25 92.35 146.7 87.35 145.25 82.25 143.75 80.1 137.15"/><path fill="#ffffff" d="M102.65 121.4 Q101.25 126.15 98.0 128.3 95.0 130.25 91.75 129.25 88.7 128.35 87.3 124.8 85.8 121.1 87.0 116.75 88.25 112.2 91.85 109.85 95.25 107.65 98.3 108.7 101.85 109.9 102.95 113.45 104.0 116.85 102.65 121.4"/><path fill="#ffffff" d="M26.15 130.25 Q27.1 133.6 25.85 136.5 24.75 139.2 22.65 139.7 19.75 140.4 17.4 137.6 15.4 135.3 15.2 132.9 15.3 129.85 15.85 126.8 17.0 120.7 19.45 120.65 21.95 120.6 24.3 125.4 25.5 127.85 26.15 130.25"/><path fill="#0d131a" d="M72.05 152.85 Q73.1 157.3 75.5 160.5 77.55 163.3 79.6 164.05 83.65 165.5 89.3 161.4 97.3 155.55 101.95 140.45 105.8 127.8 105.6 119.9 105.4 111.95 101.15 109.55 95.95 106.6 88.8 111.2 81.4 115.95 76.45 126.0 69.1 140.85 72.05 152.85 M78.9 165.9 Q71.6 163.2 69.65 151.15 67.5 138.1 74.2 124.5 79.25 114.25 87.8 109.3 96.15 104.45 102.15 107.85 106.9 110.55 107.75 118.35 108.75 127.2 104.45 141.05 100.5 153.9 92.7 161.2 85.2 168.2 78.9 165.9"/><path fill="#0d131a" d="M16.05 147.55 Q13.65 140.55 14.1 132.95 14.25 129.8 15.45 125.8 17.1 120.3 19.4 120.05 23.35 119.6 26.75 126.85 29.15 131.85 30.8 139.35 L34.0 154.35 Q37.2 167.7 39.9 170.4 44.1 174.6 51.25 176.35 59.45 178.35 65.55 175.15 71.1 172.2 74.65 168.0 L77.15 164.25 78.2 164.3 Q79.1 164.7 78.95 165.05 L76.2 169.5 Q72.4 174.4 66.45 177.55 59.8 181.05 50.85 178.55 43.2 176.45 38.5 171.75 37.7 170.95 36.65 169.3 21.05 162.2 16.05 147.55 M16.45 132.8 L16.35 135.15 Q16.35 143.65 19.5 150.85 24.25 161.65 35.3 166.7 33.5 162.55 30.95 151.75 L28.45 139.9 Q27.0 131.8 24.1 126.25 21.5 121.25 19.65 121.6 18.25 121.85 17.25 126.2 16.45 129.8 16.45 132.8"/></g></svg>