<?xml version='1.0' encoding='utf-8'?>
<svg xmlns="http://www.w3.org/2000/svg" version="1.1" width="260px" height="186px" viewBox="-0.6 -3.35 259.55 186.2"><g><path fill="#8bc56c" d="M181.6 42.9 L126.35 104.75 Q108.5 107.1 89.05 102.7 50.15 93.95 42.25 60.3 37.9 38.55 49.05 23.45 54.65 15.85 61.1 12.65 L66.25 9.6 Q72.85 6.15 80.4 3.9 104.5 -3.35 128.55 4.25 153.6 12.2 167.45 24.55 175.1 31.35 181.6 42.9"/><path fill="#8bc56c" d="M211.65 61.5 Q219.0 68.45 223.45 85.1 225.55 92.9 222.3 101.55 219.25 109.7 212.05 117.15 196.55 133.1 174.7 136.05 151.05 139.25 134.0 129.45 115.6 118.9 116.95 99.0 118.15 81.65 130.05 68.7 136.0 62.25 141.7 59.25 L144.65 57.55 Q148.45 55.5 152.65 53.85 166.0 48.6 178.0 49.2 201.6 52.05 211.65 61.5"/><path fill="#ffec60" d="M15.45 91.95 Q27.6 78.1 31.8 75.0 36.2 71.8 40.95 72.8 41.85 72.95 48.5 75.85 L61.5 80.9 Q71.9 84.85 74.25 85.95 77.05 87.25 77.75 88.8 78.1 89.6 77.9 90.1 L46.85 100.3 Q43.4 98.85 40.7 96.2 L38.65 93.8 Q34.5 98.3 24.0 105.2 11.95 113.1 6.25 113.55 0.7 114.0 0.65 111.15 0.55 109.05 2.8 106.7 L15.45 91.95"/><path fill="#ffec60" d="M88.65 91.05 Q93.2 91.45 96.05 94.9 97.5 96.6 98.0 98.25 L88.25 114.2 60.75 108.65 Q50.65 132.05 38.2 141.75 29.85 148.25 24.1 147.1 21.4 146.55 21.95 143.45 L23.1 140.45 45.55 97.9 Q49.65 90.4 52.7 88.4 55.35 86.65 60.1 87.6 68.4 89.25 88.65 91.05"/><path fill="#ffec60" d="M97.3 98.55 Q100.6 93.9 104.85 93.15 109.15 92.4 113.35 94.4 115.5 95.35 116.75 96.5 116.1 98.75 116.9 105.0 117.3 108.1 117.85 110.75 116.15 114.3 111.45 120.95 106.15 128.4 103.45 130.25 100.9 131.95 100.35 136.3 100.1 138.5 100.3 140.35 100.35 153.35 96.15 167.5 92.2 180.9 88.8 181.95 86.05 182.8 84.7 179.1 84.05 177.3 83.55 173.05 81.3 146.1 79.9 138.85 78.95 134.1 79.65 130.15 80.15 127.25 80.95 126.45 L87.05 116.1 Q92.95 105.7 93.75 104.65 95.6 101.05 97.3 98.55"/><path fill="#ffec60" d="M209.45 21.65 L177.6 35.45 173.05 29.75 Q168.15 23.85 166.35 23.15 L171.2 15.8 Q176.55 8.5 179.1 8.6 L190.1 9.55 200.0 10.65 209.5 11.15 Q217.0 11.9 216.65 14.25 216.3 16.55 212.85 19.35 L209.45 21.65"/><path fill="#ffec60" d="M203.3 37.15 Q195.05 51.45 194.0 52.4 185.95 49.7 182.35 49.8 L179.65 39.9 178.0 35.7 184.5 27.7 Q191.4 19.55 193.4 18.65 197.25 16.9 200.15 17.3 204.6 17.85 211.15 22.85 L237.55 42.55 Q240.0 44.5 239.85 46.45 239.6 49.2 232.65 48.85 225.75 48.45 214.35 43.05 208.65 40.35 203.3 37.15"/><path fill="#ffec60" d="M247.5 81.65 Q238.9 79.05 226.45 72.7 L216.35 66.85 Q215.9 65.05 211.2 61.25 204.35 55.8 193.45 51.75 L202.8 48.4 Q212.4 45.05 213.8 45.0 220.3 44.7 226.3 50.55 232.05 56.05 251.45 72.95 255.15 76.2 256.55 78.15 258.6 80.95 257.2 82.4 255.5 84.05 247.5 81.65"/><path fill="#0a2b3c" d="M120.8 2.8 Q131.85 4.4 135.9 6.35 127.5 6.55 116.1 9.15 93.2 14.35 78.0 26.35 60.45 40.25 54.5 52.1 49.1 62.75 50.75 77.0 L47.2 75.45 Q45.9 72.4 44.55 68.5 41.85 60.7 41.7 56.4 42.0 50.0 45.1 41.7 51.3 25.15 65.25 15.95 87.3 1.45 107.05 1.45 111.5 1.45 120.8 2.8"/><path fill="#0a2b3c" d="M94.8 39.4 Q97.6 44.9 94.1 50.9 89.1 58.6 79.4 55.6 76.75 54.15 74.95 51.35 71.35 45.7 75.65 38.75 78.55 34.05 84.15 33.5 88.2 33.1 90.3 34.35 92.95 35.75 94.8 39.4"/><path fill="#0a2b3c" d="M144.35 11.65 Q148.65 13.45 150.6 16.4 152.1 18.7 151.6 19.7 150.5 21.95 149.25 22.85 146.1 25.05 140.4 23.4 134.15 20.6 132.45 16.8 131.9 15.65 131.9 14.5 L132.0 13.6 Q133.85 10.8 136.55 10.3 139.55 9.7 144.35 11.65"/><path fill="#0a2b3c" d="M132.7 45.65 Q123.85 50.5 119.0 54.8 114.35 59.0 111.45 59.0 110.1 59.0 108.45 57.55 107.45 56.7 107.45 54.85 107.45 51.2 112.35 46.4 119.1 39.85 124.35 36.55 131.05 32.35 137.85 31.65 L148.65 32.05 Q152.05 33.1 151.6 35.8 151.2 38.0 148.7 39.0 L143.55 40.5 Q140.0 41.65 132.7 45.65"/><path fill="#0a2b3c" d="M19.85 87.35 L29.1 77.0 Q32.6 73.15 37.1 72.8 L42.05 73.25 Q43.0 73.3 48.0 75.5 L52.75 77.65 Q55.15 79.65 55.05 83.7 55.05 85.75 54.5 87.35 51.25 87.05 47.75 93.2 46.0 96.3 44.9 99.4 43.25 98.7 41.05 96.05 L39.15 93.55 32.0 99.3 Q31.1 90.95 25.4 88.3 23.6 87.5 21.55 87.35 L19.85 87.35"/><path fill="#0a2b3c" d="M73.6 92.3 Q76.75 96.2 75.8 100.3 73.85 109.1 68.4 110.55 L60.75 108.65 57.8 114.65 Q54.55 121.0 53.3 122.6 53.1 120.85 52.35 118.8 50.75 114.65 47.8 113.1 44.4 111.3 40.45 112.2 L37.2 113.5 Q40.15 107.6 43.45 101.55 49.95 89.45 51.5 88.55 53.25 87.5 54.65 87.4 L58.95 87.7 69.4 89.0 Q71.0 89.0 73.6 92.3"/><path fill="#0a2b3c" d="M80.0 129.55 L84.05 122.25 87.3 116.6 91.65 114.2 Q96.95 112.25 101.4 114.75 105.95 117.25 106.45 122.25 106.75 125.35 105.85 127.3 L103.55 129.8 Q101.4 132.2 101.2 133.95 L100.1 146.95 Q99.4 145.2 97.85 143.4 94.75 139.85 90.4 139.55 86.05 139.3 82.8 141.8 81.2 143.0 80.45 144.3 80.05 141.15 79.8 137.75 79.3 130.95 80.0 129.55"/><path fill="#0a2b3c" d="M193.8 18.35 Q190.0 20.75 183.7 28.3 183.5 25.5 181.45 23.15 177.4 18.45 168.35 20.8 L172.1 14.9 Q176.3 8.9 178.65 8.7 182.45 8.35 193.1 10.15 L194.9 12.75 Q196.65 15.7 196.35 17.45 195.7 17.15 193.8 18.35"/><path fill="#0a2b3c" d="M209.4 21.55 Q214.95 25.15 216.7 26.6 217.8 27.55 217.45 31.3 217.1 35.05 215.8 36.35 214.5 37.7 211.6 38.9 208.6 40.15 207.65 39.6 L203.3 37.15 198.8 45.2 Q198.65 43.25 197.85 40.8 196.15 35.9 192.65 33.45 189.15 31.0 184.2 31.6 L179.9 32.75 181.95 30.35 189.35 22.4 Q193.9 17.65 197.25 16.95 L201.5 17.2 Q202.95 17.35 209.4 21.55"/><path fill="#0a2b3c" d="M203.95 48.3 Q211.3 43.5 217.5 45.05 219.4 45.5 223.45 48.2 224.9 49.2 234.95 58.95 235.8 66.3 230.45 69.9 228.75 71.05 226.65 71.65 L224.9 72.05 Q224.25 70.6 220.25 68.85 L216.35 67.4 Q215.0 65.05 212.6 62.75 L210.5 60.95 Q211.6 54.0 207.9 50.45 L205.2 48.7 203.95 48.3"/><path fill="#78ab5e" d="M205.85 116.0 Q211.8 113.0 214.9 110.6 L216.7 112.4 Q214.35 115.65 209.45 119.8 199.7 128.1 187.0 132.75 L179.85 124.85 Q194.0 122.0 205.85 116.0"/><path fill="#78ab5e" d="M166.8 137.3 Q166.9 137.4 166.55 137.4 L165.9 137.3 Q135.0 137.9 122.6 119.2 118.75 113.35 117.2 106.3 L116.4 100.4 118.4 104.35 Q121.25 109.15 125.35 113.2 138.45 126.1 159.3 126.75 L164.05 126.8 163.55 127.6 Q163.0 128.65 162.9 129.8 162.6 133.55 166.8 137.3"/><path fill="#011d2d" d="M50.45 75.95 L46.9 74.4 Q38.0 53.05 42.15 47.85 L43.65 52.4 Q46.2 57.95 51.15 63.05 L50.55 68.25 Q50.05 73.8 50.45 75.95"/><path fill="#78ab5e" d="M118.4 88.2 L116.85 96.95 Q114.1 94.7 110.4 93.65 102.9 91.55 97.9 97.65 96.85 95.9 95.1 94.15 91.55 90.65 87.95 90.75 L80.8 90.55 78.0 90.25 Q78.15 89.45 77.15 88.25 75.1 85.8 69.2 83.7 L57.75 79.55 Q51.05 77.0 50.45 76.0 50.25 73.6 50.7 68.1 L51.15 63.05 Q59.4 71.65 74.05 77.8 92.4 85.55 118.4 88.2"/><path fill="#ddcc54" d="M19.7 103.65 Q26.35 99.3 31.2 95.35 L32.1 99.3 Q21.3 107.85 14.3 111.2 6.85 114.7 3.0 113.4 1.1 112.7 0.7 111.35 2.5 111.4 5.8 110.45 12.35 108.6 19.7 103.65"/><path fill="#011d2d" d="M31.2 95.35 L35.9 91.4 Q37.9 90.0 38.9 89.9 40.5 89.65 42.3 91.4 L47.05 95.3 44.45 100.05 Q40.2 95.65 38.85 93.7 L37.0 95.3 32.1 99.3 31.2 95.35"/><path fill="#ddcc54" d="M53.35 123.2 Q50.85 127.75 47.2 132.55 43.35 137.65 40.1 140.4 33.2 146.3 29.3 147.05 26.35 147.65 22.65 145.25 L26.75 144.2 Q31.85 142.15 36.65 137.25 43.15 130.6 51.1 116.2 L52.3 118.95 Q53.45 121.95 53.35 123.2"/><path fill="#ddcc54" d="M69.35 110.4 Q71.05 109.6 74.2 105.45 L92.15 106.85 87.3 114.5 69.35 110.4"/><path fill="#011d2d" d="M69.95 110.7 L61.4 108.7 59.1 113.1 53.35 123.2 51.1 116.2 Q54.2 110.55 55.15 107.95 56.3 104.75 57.5 104.15 58.85 103.5 63.4 104.25 L74.2 105.45 69.95 110.7"/><path fill="#ddcc54" d="M100.0 146.15 Q98.55 168.9 90.75 179.1 95.7 170.25 96.85 142.2 L100.0 146.15"/><path fill="#ddcc54" d="M105.8 127.8 Q106.8 126.25 106.65 123.5 L106.3 121.1 Q110.8 115.85 116.75 106.45 L118.4 110.75 113.55 118.45 Q108.2 126.4 105.8 127.8"/><path fill="#011d2d" d="M106.3 121.1 L106.55 123.45 Q106.65 126.1 105.8 127.8 L104.8 128.8 Q102.1 131.25 101.45 132.55 100.45 134.6 100.3 139.5 L100.0 146.15 96.85 142.2 97.0 136.85 Q97.15 132.1 97.5 131.05 98.3 128.25 101.8 125.65 103.8 124.2 106.3 121.1"/><path fill="#ddcc54" d="M183.75 29.35 L177.75 36.05 175.9 33.3 Q173.75 30.5 172.45 30.2 L179.95 22.1 181.85 23.95 Q183.7 26.4 183.75 29.35"/><path fill="#011d2d" d="M183.75 29.35 Q183.7 26.25 181.85 23.85 L179.95 22.1 182.2 19.55 Q183.25 18.25 186.6 17.8 190.0 17.3 194.0 17.95 L183.75 29.35"/><path fill="#ddcc54" d="M203.35 17.6 L207.75 18.1 Q212.65 18.35 215.25 16.9 212.05 21.05 209.65 21.95 L203.35 17.6"/><path fill="#ddcc54" d="M199.1 44.4 L194.9 51.5 188.6 50.5 191.4 46.05 196.55 37.25 199.1 44.4"/><path fill="#011d2d" d="M213.5 37.9 L208.25 40.55 203.0 37.3 199.1 44.4 196.55 37.25 198.2 34.2 Q200.05 30.55 202.85 31.2 204.25 31.55 207.7 34.1 210.5 36.1 213.5 37.9"/><path fill="#ddcc54" d="M213.5 37.9 Q225.1 45.0 237.95 48.6 235.2 49.35 230.15 48.7 220.05 47.4 208.25 40.55 L213.5 37.9"/><path fill="#ddcc54" d="M256.9 82.05 Q256.55 82.7 255.0 82.9 251.8 83.35 245.55 81.35 239.35 79.35 232.1 75.85 L226.15 72.7 224.85 72.2 Q223.65 71.75 224.25 71.8 226.7 72.05 229.3 70.7 L231.4 69.3 Q245.4 79.25 256.9 82.05"/><path fill="#011d2d" d="M231.4 69.3 Q230.2 70.65 227.1 71.35 L224.25 71.8 Q223.3 70.35 217.1 67.95 L214.75 64.8 Q211.95 61.5 209.95 60.7 L213.35 59.25 Q217.45 58.35 220.65 61.0 L231.4 69.3"/><path fill="#0d131a" d="M181.05 39.8 Q181.2 40.05 180.25 40.25 L179.1 40.15 Q169.35 23.55 149.35 13.25 129.05 2.8 105.25 2.5 85.6 2.25 70.35 8.65 55.15 15.1 47.9 26.75 42.1 36.05 42.9 51.75 43.65 66.5 49.3 75.8 L48.15 75.75 46.7 75.15 Q41.1 65.85 40.4 51.6 39.6 35.75 46.2 25.45 53.65 13.9 68.5 7.1 84.6 -0.25 105.45 0.0 129.7 0.35 150.55 11.4 171.25 22.35 181.05 39.8"/><path fill="#0d131a" d="M28.0 77.0 Q32.95 71.75 38.1 71.5 40.8 71.35 44.9 73.0 L53.6 76.65 Q63.75 80.8 71.1 83.35 76.1 85.1 77.95 87.65 78.85 88.95 78.8 90.0 78.85 90.3 77.9 90.35 77.0 90.35 76.95 90.05 76.9 89.3 76.0 88.3 74.25 86.3 70.25 85.25 67.25 84.45 55.35 79.55 L44.0 74.85 Q40.45 73.4 37.9 73.65 33.45 74.05 28.9 78.9 23.3 84.8 9.35 100.7 L2.9 107.95 Q2.05 108.85 1.65 109.85 1.3 110.85 1.6 111.5 1.9 112.25 2.9 112.6 L4.75 112.85 Q11.65 112.45 25.3 102.85 32.15 98.0 37.95 92.9 38.4 92.45 38.8 92.5 39.25 92.6 39.9 93.25 L42.65 96.1 Q44.45 97.95 45.2 98.25 45.5 98.4 45.1 99.3 L44.45 100.05 Q43.25 99.55 40.95 97.2 L38.7 94.75 Q27.85 104.3 17.9 109.75 9.1 114.5 4.7 114.35 1.05 114.15 0.2 112.1 -0.6 110.1 1.85 106.95 L8.25 99.15 Q23.75 81.5 28.0 77.0"/><path fill="#0d131a" d="M87.9 89.8 Q92.85 90.0 96.0 93.3 97.55 95.0 98.2 96.8 98.35 97.1 97.9 98.0 97.45 98.85 97.3 98.55 96.45 96.8 94.8 95.15 91.55 91.95 87.35 91.85 L74.2 90.65 61.2 88.8 54.05 88.2 Q52.05 88.6 49.9 91.9 48.15 94.65 32.55 123.9 L24.5 139.35 Q23.15 142.0 22.85 143.2 22.6 144.4 23.15 145.2 24.55 147.0 29.15 146.0 34.8 144.8 42.35 136.15 51.4 125.8 59.9 108.0 60.2 107.35 61.65 107.55 L69.25 109.2 Q81.5 112.15 88.7 113.25 89.0 113.3 88.75 114.2 88.5 115.15 88.2 115.1 81.5 114.2 72.4 112.0 L61.4 109.5 Q53.85 125.5 44.8 136.05 36.45 145.85 30.0 147.45 L24.9 147.85 Q22.7 147.55 21.8 146.35 20.05 143.9 22.9 138.15 L31.45 121.5 Q45.35 95.15 48.6 89.95 50.95 86.25 54.8 85.9 L61.55 86.7 Q74.3 89.2 87.9 89.8"/><path fill="#0d131a" d="M106.9 91.25 Q111.1 91.2 116.45 95.5 116.7 95.7 116.55 96.7 116.35 97.7 116.1 97.5 104.45 88.0 95.45 103.7 L82.65 125.65 Q81.1 127.85 80.65 130.75 80.2 133.6 80.75 137.8 L82.95 157.65 84.7 174.55 Q85.1 181.25 87.65 181.35 88.3 181.35 89.25 180.5 92.65 177.3 95.45 167.55 99.1 154.75 99.65 135.7 99.75 133.0 100.9 131.2 101.6 130.1 103.75 128.2 108.5 123.8 112.3 118.25 116.05 112.85 117.1 108.9 L117.6 110.35 117.95 112.35 Q115.8 117.35 110.95 123.25 L105.15 129.65 Q102.95 131.6 102.45 132.35 101.4 133.8 101.45 136.05 101.7 150.7 98.2 164.3 94.9 177.3 90.25 181.55 88.75 182.85 87.6 182.8 85.1 182.7 83.85 179.35 83.25 177.7 82.85 174.5 L78.5 137.75 Q77.95 133.35 78.6 130.25 79.2 127.15 81.35 123.85 L88.25 111.95 94.0 101.8 Q100.0 91.3 106.9 91.25"/><path fill="#0d131a" d="M211.5 10.9 Q216.5 11.3 217.15 13.6 217.55 14.95 216.15 17.0 214.4 19.55 210.45 22.0 L209.55 21.75 Q208.9 21.35 209.15 21.2 212.75 18.95 214.6 16.85 216.2 15.0 215.9 13.9 215.45 12.25 211.45 12.15 L197.65 11.2 184.85 9.75 179.15 9.55 Q176.75 10.05 175.35 12.0 L166.85 23.55 166.05 22.85 165.25 22.05 174.3 10.65 Q176.0 8.25 178.65 7.8 L184.9 8.15 211.5 10.9"/><path fill="#0d131a" d="M204.55 36.7 Q209.25 40.15 216.7 43.45 225.6 47.45 232.1 48.1 238.35 48.75 239.2 46.75 239.5 46.0 239.0 45.05 238.6 44.15 237.9 43.6 L224.25 33.45 206.5 20.8 Q201.25 17.3 196.65 18.35 193.05 19.2 190.1 22.6 L178.35 36.75 Q178.15 37.0 177.4 36.35 176.65 35.7 176.85 35.45 L181.5 29.75 189.25 20.95 Q193.2 16.9 197.25 16.25 201.9 15.5 207.25 19.1 212.7 22.75 225.3 32.2 236.8 40.8 238.7 42.45 240.05 43.6 240.4 45.0 240.75 46.2 240.3 47.3 239.7 48.75 237.7 49.2 L232.1 49.35 Q225.05 48.9 215.6 44.75 207.8 41.25 203.3 37.75 197.9 48.95 195.0 52.3 L193.85 52.05 Q192.95 51.6 193.15 51.35 196.4 47.35 201.65 36.95 202.4 35.7 202.8 35.65 203.15 35.65 204.55 36.7"/><path fill="#0d131a" d="M246.75 80.85 Q251.5 82.25 254.25 82.25 256.4 82.3 256.8 81.55 257.1 81.1 256.55 80.0 255.6 78.15 252.35 75.25 237.05 62.05 228.85 54.2 222.25 47.9 216.85 46.4 213.4 45.4 210.8 46.5 L203.7 49.2 195.0 52.3 Q194.7 52.4 195.15 51.05 195.55 49.7 195.85 49.6 205.8 46.05 210.05 44.75 213.7 43.7 216.4 44.25 221.95 45.35 228.9 52.0 237.1 59.85 253.0 73.5 256.3 76.45 257.55 78.5 258.95 80.75 258.1 82.25 256.45 85.25 246.15 82.1 241.45 80.7 232.2 76.25 225.5 73.05 218.5 69.25 L216.55 66.0 Q240.25 78.9 246.75 80.85"/><path fill="#0d131a" d="M20.65 86.8 Q24.8 86.1 27.95 88.65 31.85 91.7 32.5 99.0 L32.0 99.45 Q31.45 99.6 31.45 99.3 31.2 96.25 30.0 93.75 28.85 91.25 27.05 89.8 25.75 88.75 23.7 88.25 L19.9 88.0 Q19.6 88.05 20.0 87.45 20.35 86.85 20.65 86.8"/><path fill="#0d131a" d="M52.0 77.7 Q51.75 77.55 52.15 77.25 52.55 76.95 52.8 77.1 L54.95 79.75 Q56.65 83.2 55.0 87.9 L54.2 87.95 Q53.5 87.7 53.6 87.45 55.0 83.45 53.7 80.25 L52.0 77.7"/><path fill="#0d131a" d="M42.35 111.05 Q45.25 110.7 47.85 112.15 50.9 113.9 52.4 117.2 53.8 120.45 53.25 124.0 53.2 124.3 52.6 124.3 52.0 124.3 52.05 124.0 52.55 121.05 51.0 118.0 49.5 114.95 46.8 113.45 44.6 112.2 41.85 112.55 39.15 112.9 37.2 114.6 37.0 114.8 36.95 114.15 36.9 113.55 37.1 113.35 39.4 111.35 42.35 111.05"/><path fill="#0d131a" d="M69.2 89.5 Q68.95 89.4 69.75 89.3 L70.85 89.35 Q73.25 90.35 75.1 93.35 77.4 97.05 76.6 101.05 75.7 105.75 72.95 108.5 71.6 109.9 70.3 110.4 L69.5 110.15 Q69.0 109.75 69.3 109.65 70.45 109.1 71.65 107.75 74.1 105.1 74.9 100.9 75.8 96.2 72.7 92.45 L69.2 89.5"/><path fill="#0d131a" d="M102.45 114.25 Q107.1 117.05 107.25 122.4 107.35 125.05 106.5 127.2 106.4 127.5 105.75 127.4 105.15 127.3 105.25 127.0 105.95 125.05 105.85 122.7 105.55 118.05 101.65 115.45 97.4 112.7 92.1 114.55 L87.4 117.15 Q87.2 117.35 87.1 116.7 87.0 116.05 87.2 115.8 L92.1 113.35 Q97.8 111.45 102.45 114.25"/><path fill="#0d131a" d="M80.6 143.9 Q80.05 143.7 80.2 143.45 81.1 141.85 82.9 140.55 86.35 137.95 91.1 138.65 95.85 139.35 98.35 142.8 99.65 144.55 100.0 146.3 100.1 146.6 99.65 147.0 L99.15 147.05 Q98.7 145.5 97.5 143.95 95.05 140.85 90.9 140.2 86.75 139.55 83.65 141.6 82.05 142.6 81.25 143.85 L80.6 143.9"/><path fill="#0d131a" d="M167.4 21.35 L171.1 19.45 Q175.65 18.1 179.9 20.7 183.1 22.65 183.85 26.25 184.2 28.05 183.9 29.5 L183.25 30.1 182.7 30.05 Q182.95 28.7 182.6 27.05 181.9 23.8 178.9 22.05 175.15 19.85 170.75 21.15 L166.9 23.05 Q166.7 23.25 166.95 22.4 167.2 21.55 167.4 21.35"/><path fill="#0d131a" d="M191.4 10.2 Q191.15 10.05 191.9 9.8 L192.9 9.65 194.95 11.3 Q196.85 13.65 196.9 17.75 196.9 18.05 196.35 18.15 195.8 18.25 195.8 17.95 195.6 14.6 193.55 12.1 L191.4 10.2"/><path fill="#0d131a" d="M216.45 27.25 Q216.4 26.95 216.95 27.05 217.55 27.15 217.6 27.45 L218.1 30.75 Q218.2 34.3 216.05 36.85 214.35 38.9 211.0 39.8 L207.85 40.35 Q207.55 40.4 207.5 39.8 207.4 39.25 207.7 39.2 L210.3 38.6 Q213.2 37.6 214.65 35.85 216.45 33.65 216.65 30.25 L216.45 27.25"/><path fill="#0d131a" d="M180.05 33.7 Q179.8 33.15 180.0 32.9 L183.9 31.15 Q188.65 30.0 193.1 32.8 197.15 35.35 198.65 40.0 199.4 42.35 199.3 44.4 199.3 44.7 198.7 44.85 198.05 44.95 198.1 44.65 198.1 42.85 197.35 40.65 195.9 36.25 192.35 34.05 188.0 31.4 183.9 32.45 180.6 34.0 180.5 34.1 180.3 34.3 180.05 33.7"/><path fill="#0d131a" d="M202.9 48.2 Q203.7 47.6 204.05 47.6 205.7 47.7 207.35 48.9 209.05 50.05 210.2 52.0 211.25 53.75 211.5 56.35 211.8 59.05 211.05 61.15 L209.95 60.15 Q210.3 58.45 209.85 56.25 209.45 54.15 208.65 52.7 207.8 51.2 205.65 50.0 203.8 48.9 202.35 48.75 202.05 48.75 202.9 48.2"/><path fill="#0d131a" d="M233.75 58.35 Q233.65 58.1 234.4 58.0 235.15 57.95 235.25 58.25 236.15 60.75 235.75 63.6 235.35 66.1 234.1 67.9 231.2 72.15 225.45 72.25 225.15 72.25 225.15 71.55 225.1 70.8 225.4 70.8 227.55 70.75 229.45 69.75 231.3 68.7 232.55 66.85 233.85 65.0 234.2 62.7 234.5 60.45 233.75 58.35"/><path fill="#0d131a" d="M98.1 1.15 Q98.4 1.1 99.0 1.7 99.55 2.35 99.25 2.4 72.85 7.5 56.85 24.7 42.2 40.45 43.05 57.65 L42.45 56.65 41.85 55.05 Q41.5 47.55 44.95 39.1 48.55 30.3 55.2 23.15 61.8 16.05 71.3 10.75 83.25 4.05 98.1 1.15"/><path fill="#0d131a" d="M136.1 5.8 Q136.4 5.8 136.4 6.55 136.35 7.25 136.05 7.25 129.35 7.15 119.3 9.25 99.2 13.5 81.65 24.8 63.25 36.7 55.55 53.15 49.7 65.7 51.35 76.2 51.4 76.5 50.65 76.6 49.95 76.7 49.9 76.4 48.35 67.0 51.3 57.45 57.35 37.9 80.2 22.9 97.5 11.5 118.4 7.55 128.9 5.55 136.1 5.8"/><path fill="#0d131a" d="M94.2 48.6 Q96.05 44.3 94.3 40.0 92.85 36.2 89.4 34.7 85.7 33.1 81.95 34.55 79.95 35.35 78.3 36.95 76.65 38.55 75.75 40.6 74.85 42.65 74.8 45.1 74.8 47.55 75.65 49.65 76.9 52.95 80.25 54.45 81.9 55.15 83.95 55.2 86.2 55.25 88.05 54.5 92.35 52.9 94.2 48.6 M81.4 33.05 Q85.5 31.45 90.0 33.35 91.9 34.2 93.5 35.85 95.1 37.55 95.9 39.7 96.8 42.15 96.8 44.75 96.8 47.4 95.8 49.65 93.55 54.75 88.6 56.65 86.4 57.45 83.65 57.4 81.0 57.35 79.1 56.55 75.35 54.9 73.6 50.55 72.7 48.25 72.7 45.6 72.7 42.95 73.95 40.0 74.95 37.75 77.05 35.85 79.05 33.95 81.4 33.05"/><path fill="#0d131a" d="M147.95 15.05 Q146.2 13.65 143.75 12.65 141.2 11.65 138.8 11.45 136.4 11.25 134.75 11.95 133.35 12.5 132.95 13.6 132.15 15.6 133.85 17.8 135.6 20.0 139.1 21.45 143.0 23.05 146.45 22.65 149.7 22.3 150.45 20.55 150.9 19.4 150.35 18.0 149.7 16.45 147.95 15.05 M144.4 11.0 Q147.05 12.1 149.05 13.85 150.9 15.55 151.7 17.4 152.45 19.4 151.8 21.1 150.75 23.6 146.75 24.35 142.7 25.1 138.4 23.35 135.1 22.0 132.95 19.5 130.95 17.1 130.95 14.8 130.95 13.85 131.3 13.0 131.95 11.55 134.2 10.6 136.15 9.75 138.85 9.85 141.65 9.9 144.4 11.0"/><path fill="#0d131a" d="M143.3 30.05 Q146.9 30.05 149.25 31.25 151.8 32.5 152.25 34.95 152.95 39.05 146.5 40.65 132.0 44.2 117.8 57.05 115.15 59.45 112.45 59.75 110.0 60.05 108.1 58.6 106.3 57.25 106.3 55.05 106.3 52.15 108.25 49.3 115.35 38.8 127.45 33.7 135.95 30.05 143.3 30.05 M148.55 32.7 Q146.55 31.75 143.65 31.95 133.55 32.65 123.7 38.2 113.85 43.75 109.65 51.15 108.45 53.15 108.4 54.8 108.35 56.4 109.45 57.25 110.7 58.2 112.7 57.8 114.9 57.35 116.8 55.45 129.25 43.15 145.6 39.1 148.2 38.45 149.65 37.4 151.05 36.3 150.8 35.15 150.45 33.6 148.55 32.7"/><path fill="#0d131a" d="M202.65 123.45 Q210.4 118.2 215.0 112.25 L215.55 111.55 217.45 112.9 216.7 113.9 Q212.3 119.6 204.15 125.1 196.6 130.1 187.95 133.6 L186.65 131.6 Q195.25 128.45 202.65 123.45 M170.35 48.7 L168.7 50.55 Q161.9 51.35 155.1 53.75 145.95 57.0 138.35 62.65 125.7 72.1 120.65 86.2 116.05 98.95 119.3 109.75 122.75 121.2 133.4 128.15 145.85 136.3 165.0 135.5 L167.05 137.7 Q146.45 138.95 132.55 130.15 120.7 122.6 117.0 110.4 113.6 99.15 118.25 85.95 123.35 71.3 136.35 61.6 144.8 55.3 155.4 51.85 162.95 49.35 170.35 48.7 M223.8 98.9 L221.9 97.95 Q223.4 91.65 222.4 84.9 219.85 68.35 206.5 59.15 196.05 51.95 181.75 50.5 L182.1 48.85 Q197.1 50.45 208.1 58.0 222.25 67.65 224.9 84.7 225.8 90.7 223.8 98.9"/><path fill="#ffffff" d="M177.5 41.4 Q178.8 40.15 179.85 40.05 L180.65 40.15 Q182.6 40.6 182.6 51.25 L182.0 67.75 Q181.7 73.3 177.95 75.45 174.65 77.35 168.9 76.55 164.05 75.9 161.5 71.65 159.3 67.9 160.1 64.45 160.7 61.85 168.35 52.2 175.05 43.75 177.5 41.4"/><path fill="#dbdcdc" d="M182.55 54.55 Q182.6 69.05 181.6 71.15 179.75 75.1 176.15 76.45 L172.9 77.05 180.8 40.3 Q182.5 39.75 182.55 54.55"/><path fill="#0d131a" d="M180.45 40.75 Q179.5 40.25 175.15 44.95 172.4 47.95 167.4 54.75 160.5 64.1 160.7 66.65 160.95 69.5 162.7 71.7 164.5 73.95 167.55 75.05 169.9 75.9 172.75 75.75 175.9 75.6 178.1 74.25 180.6 72.7 181.0 69.85 181.35 67.0 181.55 59.85 L181.7 47.05 Q181.65 41.4 180.45 40.75 M174.0 44.0 Q176.5 41.15 178.15 40.1 179.75 39.05 180.9 39.5 182.0 39.95 182.5 41.75 182.95 43.35 183.15 47.05 183.45 52.75 183.35 60.1 L182.9 70.3 Q182.7 72.0 181.45 73.75 180.25 75.4 178.65 76.4 176.2 77.9 172.4 77.95 169.1 78.0 166.4 77.05 163.0 75.8 160.65 72.6 158.4 69.5 158.5 66.45 158.55 63.3 162.9 57.4 166.1 52.95 174.0 44.0"/><path fill="#0d131a" d="M134.35 92.45 Q140.4 87.7 147.9 88.3 155.25 88.9 159.4 94.2 163.15 98.95 162.7 106.0 162.15 113.9 156.1 118.85 150.35 123.5 142.85 123.05 135.25 122.55 130.9 116.95 126.65 111.5 127.55 104.4 128.45 97.05 134.35 92.45"/><path fill="#0d131a" d="M196.85 74.35 Q194.8 68.05 197.55 64.65 200.75 60.7 207.15 61.5 213.7 62.35 219.4 67.75 224.1 72.2 225.0 78.3 225.8 83.6 223.65 86.1 220.95 89.2 215.55 89.15 209.7 89.0 204.4 84.95 198.9 80.8 196.85 74.35"/><path fill="#ffffff" d="M149.6 100.95 Q151.0 102.55 151.0 105.05 150.95 107.95 148.8 109.75 146.8 111.4 144.2 111.15 141.55 110.95 139.9 108.8 138.45 106.95 138.85 104.25 139.25 101.55 141.25 100.0 143.2 98.5 145.7 98.85 148.05 99.2 149.6 100.95"/><path fill="#ffffff" d="M206.95 70.1 Q207.65 69.25 208.95 69.15 L211.6 69.55 214.2 71.05 Q216.65 73.15 216.8 75.7 216.9 77.15 216.15 77.95 215.5 78.75 214.15 78.85 211.7 79.1 209.15 76.95 207.4 75.4 206.7 73.3 206.05 71.25 206.95 70.1"/><path fill="#e63556" d="M162.1 136.9 Q159.0 133.3 158.95 129.45 158.9 125.4 162.5 122.15 L166.9 120.25 Q172.25 119.2 176.7 123.15 L185.9 131.6 Q190.4 135.7 193.45 137.8 198.1 141.0 196.55 143.3 194.55 146.2 182.55 145.6 169.1 144.95 162.1 136.9"/><path fill="#e63556" d="M211.85 97.0 Q215.7 94.45 218.9 94.7 222.7 94.95 227.15 99.0 231.5 102.95 232.0 111.1 232.4 118.35 229.9 123.05 227.95 126.6 226.25 125.3 225.5 124.75 224.15 122.1 221.6 117.0 214.15 109.45 209.6 104.85 210.25 100.45 210.45 99.1 211.2 97.9 L211.85 97.0"/><path fill="#c72b4a" d="M196.55 142.7 Q196.0 144.5 189.4 145.05 181.2 145.7 170.95 142.55 161.25 139.55 159.35 133.2 158.75 131.2 159.0 129.15 L159.4 127.45 161.6 129.85 Q164.6 132.75 168.4 135.15 180.55 142.85 196.55 142.7"/><path fill="#c72b4a" d="M211.7 100.85 Q212.85 102.75 215.4 104.55 220.1 107.9 223.8 114.1 227.85 120.9 226.65 125.25 226.25 125.15 225.7 124.65 224.6 123.75 223.7 122.1 219.35 113.7 213.85 109.8 210.4 107.35 209.9 103.75 209.5 100.6 211.05 99.3 L211.7 100.85"/><path fill="#0d131a" d="M164.6 122.1 L163.3 122.9 Q162.05 123.9 161.2 125.25 159.8 127.35 159.8 129.7 159.8 131.95 161.05 134.3 163.9 139.6 174.25 142.7 183.05 145.3 189.85 144.75 192.85 144.5 194.6 143.75 196.05 143.1 196.25 142.25 196.65 140.75 193.6 138.8 186.55 134.25 177.95 125.5 L177.05 124.5 Q172.75 120.15 167.7 121.0 166.1 121.3 164.6 122.1 M169.1 118.85 Q174.15 118.75 178.25 122.8 L179.2 123.75 187.25 131.8 Q191.1 135.45 194.4 137.6 198.25 140.05 197.7 142.6 197.35 144.1 195.1 145.15 192.85 146.2 189.5 146.45 182.45 147.0 173.65 144.6 162.6 141.6 159.45 135.6 156.9 130.8 158.3 126.45 159.2 123.5 161.3 121.8 164.7 118.9 169.1 118.85"/><path fill="#0d131a" d="M221.5 96.25 Q218.9 95.2 216.95 95.65 212.95 96.45 211.4 100.15 209.6 104.5 214.7 108.8 218.55 112.05 221.55 116.3 223.8 119.45 224.85 122.0 L225.0 122.4 Q225.85 124.6 226.9 124.7 228.0 124.8 229.45 122.3 231.7 118.55 231.15 112.0 230.6 104.9 226.85 100.3 224.6 97.5 221.5 96.25 M216.95 93.85 Q223.15 93.0 227.85 98.55 232.35 103.8 232.8 111.9 233.2 118.95 230.7 123.05 228.8 126.3 226.8 126.15 224.85 126.0 223.65 122.95 L223.45 122.55 Q222.45 120.1 220.1 116.95 217.05 112.9 213.25 109.9 209.65 107.0 209.0 103.5 208.5 100.35 210.3 97.8 211.2 96.55 212.8 95.45 214.8 94.15 216.95 93.85"/></g></svg>