<svg xmlns="http://www.w3.org/2000/svg" width="319" height="374" version="1.1" viewBox="-0.3 -2.1 318.95 373.95"><g><path fill="#e85377" d="M181.6 286.85 L197.8 351.9 195.75 365.2 185.35 358.55 180.8 367.55 Q177.65 363.1 174.55 355.45 168.4 340.15 168.8 324.05 L170.3 290.4 181.6 286.85"/><path fill="#c94768" d="M170.3 290.4 L181.6 286.85 194.85 343.2 Q189.3 341.85 181.35 336.2 L168.8 326.85 170.3 290.4"/><path fill="#e85377" d="M236.7 266.85 Q262.3 275.35 281.35 299.5 L271.55 300.7 266.4 301.6 271.4 311.55 263.1 312.0 205.35 270.55 200.2 262.95 Q219.1 260.95 236.7 266.85"/><path fill="#c94768" d="M222.7 263.85 Q229.0 267.65 235.65 278.85 241.55 288.9 243.5 296.95 L205.35 270.55 200.75 263.1 Q209.2 261.4 222.7 263.85"/><path fill="#f6aa00" d="M235.85 283.5 Q261.25 302.0 273.45 331.5 L264.75 329.6 261.0 328.6 263.1 341.1 248.65 337.15 190.1 271.25 203.2 267.9 Q208.8 268.85 216.65 272.35 226.55 276.75 235.85 283.5"/><path fill="#d49300" d="M203.2 267.9 Q207.65 268.7 213.7 271.1 221.2 274.1 228.6 278.65 235.15 289.85 238.05 303.3 241.15 317.8 238.05 326.75 L190.1 271.25 203.2 267.9"/><path fill="#f6aa00" d="M187.0 282.45 Q191.3 286.1 197.65 295.2 204.5 305.05 210.4 316.6 225.55 346.4 224.4 367.25 L214.45 360.6 211.95 369.75 Q206.45 367.45 199.85 356.35 186.65 334.1 181.2 289.95 L187.0 282.45"/><path fill="#d49300" d="M181.2 289.95 L187.0 282.45 Q193.4 287.85 202.6 302.75 213.0 319.6 218.9 336.35 205.3 337.3 189.5 331.65 184.15 313.75 181.2 289.95"/><path fill="#f0e78e" d="M20.2 50.2 Q22.15 46.05 26.3 48.3 28.05 49.25 32.45 54.9 L42.35 67.9 Q58.4 88.2 74.55 99.35 L127.45 154.05 102.95 199.8 Q99.4 199.65 96.6 198.15 93.65 196.6 93.7 194.5 89.85 193.8 84.65 191.4 79.15 188.8 77.4 186.6 75.05 183.65 79.05 182.85 L83.55 182.65 Q77.95 181.45 71.6 179.1 58.95 174.5 55.4 168.95 52.9 165.1 55.6 163.3 57.8 161.85 60.95 162.45 56.45 160.45 51.0 157.3 40.15 151.05 35.6 145.55 31.3 140.35 31.35 136.0 31.35 132.1 33.95 132.4 37.25 132.85 41.35 134.65 43.4 135.6 44.8 136.4 40.25 132.6 34.75 126.1 23.7 113.1 18.8 99.8 16.3 92.9 18.1 89.1 19.95 85.3 24.55 87.95 28.4 90.15 32.15 93.45 L34.25 95.4 Q31.5 92.4 28.45 87.35 21.4 75.6 19.35 61.5 18.3 54.1 20.2 50.2"/><path fill="#f0e78e" d="M24.25 48.6 Q23.95 48.15 24.0 47.75 24.15 47.0 26.15 47.45 27.1 47.65 31.6 53.45 L42.3 67.2 Q59.9 88.95 75.0 98.8 70.75 101.3 67.85 102.5 55.45 94.35 39.6 71.4 25.8 49.8 24.25 48.6"/><path fill="#e85377" d="M194.9 273.75 Q202.65 278.45 212.3 287.75 222.55 297.55 231.35 309.25 253.05 337.85 254.75 360.6 251.65 360.6 245.4 357.9 L239.8 355.2 239.4 368.15 225.25 358.55 Q224.25 352.6 221.65 343.8 216.5 326.25 208.6 312.1 200.75 297.95 192.35 287.8 L185.5 280.45 194.9 273.75"/><path fill="#c94768" d="M193.5 289.35 L185.5 280.45 194.9 273.75 Q203.4 278.9 214.0 289.4 225.35 300.55 234.55 313.55 233.65 323.15 231.0 330.4 227.55 339.8 221.6 343.8 220.7 340.5 218.65 334.85 214.5 323.6 208.6 312.1 202.7 300.55 193.5 289.35"/><path fill="#f0e78e" d="M177.0 280.1 L197.8 255.05 Q198.6 255.05 203.9 256.95 L209.05 258.8 200.7 263.35 206.05 272.6 195.3 271.65 195.85 282.8 188.25 280.8 185.45 291.65 178.8 288.55 177.0 280.1"/><path fill="#965e3a" d="M196.8 246.85 L189.7 248.45 Q185.55 249.05 183.4 247.2 178.4 242.9 181.05 227.25 L187.2 201.55 201.8 210.35 202.2 221.15 Q202.2 234.25 200.0 245.8 L196.8 246.85"/><path fill="#f0e78e" d="M139.45 172.8 L187.2 201.55 184.05 213.4 Q182.0 221.15 181.1 226.15 178.4 240.95 182.7 246.85 184.35 249.15 189.05 248.55 191.7 248.2 196.8 246.85 L200.0 245.8 Q197.8 257.2 193.65 265.95 186.55 280.8 169.65 282.9 164.35 283.55 158.75 282.85 L154.15 282.05 144.3 280.6 Q137.5 279.2 129.9 275.8 119.65 284.35 109.05 285.65 101.45 286.6 91.8 283.7 91.15 289.6 90.2 289.85 89.2 290.1 85.35 283.9 81.15 277.2 80.6 272.5 82.8 260.2 88.85 252.05 95.05 243.75 102.6 243.4 97.0 224.05 102.3 202.2 105.95 187.25 111.35 179.45 L139.45 172.8"/><path fill="#c9c279" d="M109.75 285.6 Q101.9 286.75 91.8 283.7 91.3 288.9 90.35 289.55 89.6 290.0 87.35 286.8 85.2 283.75 82.9 279.15 107.15 276.6 113.7 258.5 114.95 258.9 118.7 261.5 122.1 263.85 123.05 263.85 129.9 266.1 137.8 266.25 146.85 266.35 151.2 263.25 168.6 249.9 166.1 225.2 163.9 203.25 146.85 177.25 L187.2 201.55 184.05 213.4 Q182.0 221.15 181.1 226.15 178.4 240.95 182.7 246.85 184.35 249.15 189.05 248.55 191.7 248.2 196.8 246.85 L200.0 245.8 Q197.8 257.2 193.65 265.95 186.55 280.8 169.65 282.9 164.35 283.55 158.75 282.85 L154.15 282.05 144.3 280.6 Q137.5 279.2 129.9 275.8 119.85 284.15 109.75 285.6"/><path fill="#f0e78e" d="M152.35 238.45 Q158.05 232.9 160.4 242.6 162.55 251.55 157.95 266.45 155.65 273.9 152.9 279.55 140.8 268.6 145.0 252.15 147.3 243.3 152.35 238.45"/><path fill="#f0e78e" d="M286.2 15.3 Q292.0 9.45 295.85 6.5 307.1 -2.1 310.45 7.0 315.05 19.55 301.2 39.1 296.75 45.4 290.35 52.4 L283.2 60.0 Q287.75 57.85 295.55 53.0 304.05 47.7 306.6 46.4 311.95 43.6 314.1 44.45 316.7 45.4 315.7 51.5 314.1 61.4 302.45 74.8 293.35 85.2 283.5 92.45 288.9 90.15 299.55 84.9 307.85 80.8 310.95 79.9 315.45 78.55 316.4 80.9 317.5 83.45 314.85 91.3 310.35 104.5 293.75 116.2 L283.95 122.25 Q281.1 123.8 282.05 123.5 287.25 121.8 296.0 120.75 306.05 119.6 306.2 121.75 306.45 124.35 301.3 131.8 295.85 139.65 291.1 142.55 286.9 145.1 273.65 149.5 L261.25 153.35 268.25 153.05 Q276.1 152.75 280.3 152.8 286.0 152.8 287.75 155.2 289.15 157.1 287.9 160.4 286.65 163.75 282.8 167.55 278.2 172.05 272.4 174.45 267.1 176.65 251.2 175.9 L236.35 174.75 243.65 177.95 Q251.65 181.65 255.1 184.4 258.6 187.2 256.2 190.25 L251.6 194.35 Q249.8 196.15 245.15 196.3 239.8 196.5 234.3 194.05 240.95 198.6 238.05 202.25 236.15 204.7 230.5 206.35 227.4 207.3 222.95 205.3 L219.1 203.15 220.9 205.3 Q222.7 207.7 222.9 209.0 223.1 210.4 218.5 212.4 214.25 214.25 212.35 214.25 211.05 214.25 207.5 211.2 L204.15 208.1 205.9 210.8 Q207.6 213.8 207.4 215.45 207.2 217.2 202.5 217.95 198.35 218.6 195.4 218.05 193.35 217.7 190.8 213.45 L188.65 209.3 190.35 213.45 Q191.9 217.9 191.0 219.55 189.95 221.4 185.7 221.6 181.55 221.8 180.15 220.4 178.35 218.6 172.55 206.35 167.75 206.65 165.05 193.95 162.95 184.25 163.2 177.1 164.35 161.05 172.9 150.3 176.3 146.0 182.8 139.95 L195.95 127.9 Q205.95 118.5 211.7 101.4 213.6 95.7 215.9 86.45 L219.6 71.85 Q221.4 65.45 227.2 60.1 231.35 56.2 240.7 50.6 L258.1 39.8 Q268.9 32.5 277.35 24.25 L286.2 15.3"/><path fill="#f19963" d="M152.9 238.0 Q152.65 229.85 155.25 227.0 156.3 225.9 160.4 224.7 162.5 224.1 165.85 226.45 169.05 228.7 170.35 231.35 171.35 233.25 169.65 239.65 167.3 248.65 167.05 250.45 166.4 255.35 167.75 264.6 169.1 273.75 170.35 273.75 171.4 273.75 174.7 265.8 178.9 255.25 181.2 250.05 184.95 241.0 186.3 238.1 188.35 233.6 190.75 231.75 193.3 229.75 197.55 232.15 201.35 234.25 202.8 237.15 203.95 239.45 201.6 243.55 199.65 246.95 195.75 250.9 192.95 253.65 188.0 263.3 L181.2 276.65 Q179.4 279.8 178.85 285.1 178.35 289.9 177.45 290.8 175.9 292.3 174.75 295.65 173.6 298.9 173.3 302.45 173.15 304.2 174.75 309.55 176.1 314.15 174.95 316.95 172.6 322.55 165.4 321.55 163.1 321.25 161.55 316.8 159.9 312.2 160.8 307.4 161.6 303.15 161.15 298.8 L160.0 290.8 Q152.2 278.6 153.2 273.25 153.55 271.6 154.7 270.85 L155.8 270.4 155.75 267.65 Q155.45 264.05 154.15 259.6 152.95 255.4 152.95 250.85 L152.9 238.0"/><path fill="#c9c279" d="M286.2 15.3 Q292.0 9.45 295.85 6.5 307.1 -2.1 310.45 7.0 309.0 5.75 307.45 6.65 305.95 7.5 301.6 12.0 293.2 20.65 277.2 44.65 267.65 45.65 255.2 58.35 243.4 70.4 237.85 83.45 225.9 111.45 208.75 136.7 L195.5 155.25 Q187.85 165.8 184.3 171.35 176.0 184.3 168.8 182.0 166.5 181.3 164.65 179.1 L163.2 177.1 Q164.35 161.05 172.9 150.3 176.3 146.0 182.8 139.95 L195.95 127.9 Q205.95 118.5 211.7 101.4 213.6 95.7 215.9 86.45 L219.6 71.85 Q221.4 65.45 227.2 60.1 231.35 56.2 240.7 50.6 L258.1 39.8 Q268.9 32.5 277.35 24.25 L286.2 15.3"/><path fill="#d18456" d="M158.4 250.55 Q156.15 231.35 160.25 233.3 164.4 235.3 167.35 234.2 169.45 233.35 170.35 231.35 171.35 233.25 169.65 239.65 167.3 248.65 167.05 250.45 166.4 255.35 167.75 264.6 169.1 273.75 170.35 273.75 171.35 273.75 174.7 265.75 177.8 266.65 185.2 253.4 L190.3 244.5 Q192.8 240.6 193.85 241.2 196.6 242.75 199.0 242.0 201.75 241.1 202.8 237.15 203.95 239.45 201.6 243.55 199.65 246.95 195.75 250.9 192.95 253.65 188.0 263.3 L181.2 276.65 Q179.4 279.8 178.85 285.1 178.35 289.9 177.45 290.8 175.9 292.3 174.75 295.65 173.6 298.9 173.3 302.45 173.15 304.2 174.75 309.55 176.1 314.15 174.95 316.95 173.75 319.8 171.25 321.0 164.55 314.8 163.0 305.95 162.05 302.1 163.1 295.2 164.3 287.6 163.9 284.45 159.65 261.0 158.4 250.55"/><path fill="#f0e78e" d="M284.9 15.35 Q296.6 3.45 301.65 1.8 306.95 0.0 308.5 2.0 309.3 3.0 309.0 4.35 306.55 3.8 301.75 7.15 295.7 11.45 288.2 20.75 282.4 27.95 272.25 37.4 262.9 46.1 252.75 54.1 L247.9 52.85 Q246.55 53.75 244.7 54.2 L241.95 54.5 244.65 51.35 Q243.2 50.9 241.3 49.9 L255.95 40.8 Q263.95 35.7 267.65 32.6 L284.9 15.35"/><path fill="#eeeeef" d="M163.35 230.45 Q159.1 228.5 160.0 226.35 161.9 221.7 165.4 217.7 168.85 213.8 169.5 215.35 170.0 216.7 169.35 222.55 168.8 227.3 168.3 229.25 167.55 232.4 163.35 230.45"/><path fill="#eeeeef" d="M204.15 232.8 L200.7 238.8 Q198.75 241.4 195.6 237.9 192.4 234.35 194.2 232.85 196.55 230.8 201.4 227.95 207.0 224.55 206.95 226.0 206.9 227.5 204.15 232.8"/><path fill="#eeeeef" d="M165.45 317.8 Q164.7 315.6 169.25 314.25 173.8 312.85 174.1 316.1 L175.25 322.1 176.15 326.95 Q172.75 326.8 169.2 323.25 166.3 320.35 165.45 317.8"/><path fill="#c8c9ca" d="M165.5 231.1 Q163.5 230.9 161.55 229.35 164.15 220.3 169.5 215.5 170.0 216.95 169.3 222.7 L168.3 229.25 Q167.8 231.3 165.5 231.1"/><path fill="#c8c9ca" d="M204.15 232.8 L200.7 238.8 Q199.9 239.85 198.75 239.75 197.75 239.7 196.65 238.85 200.1 230.8 206.95 225.95 L206.95 226.0 Q206.9 227.5 204.15 232.8"/><path fill="#c8c9ca" d="M167.4 315.05 Q169.5 313.8 171.55 313.9 173.9 314.05 174.1 316.1 L175.25 322.1 176.15 326.95 174.4 326.65 Q168.7 322.25 167.4 315.05"/><path fill="#eeeeef" d="M74.6 314.3 L83.05 311.65 Q86.65 318.45 81.1 325.35 80.15 322.95 77.3 318.4 L74.6 314.3"/><path fill="#c8c9ca" d="M79.15 312.85 Q81.05 315.05 81.75 317.9 82.25 320.1 82.2 323.4 L81.4 324.2 80.6 324.75 Q79.3 321.65 76.8 317.65 L74.6 314.3 79.15 312.85"/><path fill="#f19963" d="M86.65 284.7 Q86.0 285.55 80.45 288.95 75.95 291.65 75.1 295.3 75.95 298.0 79.6 301.75 L83.5 305.85 Q84.5 307.8 84.15 309.85 83.55 312.95 79.65 314.05 75.35 315.25 73.5 314.55 71.95 313.9 70.05 310.7 65.95 303.7 63.1 300.7 55.9 293.25 44.35 290.0 34.1 287.15 20.45 285.1 11.75 283.75 11.15 282.3 7.95 274.75 15.0 270.3 19.15 267.7 24.55 268.9 27.7 269.6 33.75 272.0 39.75 273.9 49.6 279.65 L42.1 270.9 Q34.0 261.75 30.85 259.45 26.8 256.55 26.35 255.9 25.6 254.9 25.6 251.55 25.6 247.35 28.6 244.75 31.45 242.25 35.2 242.65 41.4 243.25 45.05 247.25 47.4 249.9 50.35 256.6 53.4 263.65 57.6 270.25 63.15 278.85 68.15 282.05 71.1 282.2 76.3 277.2 81.35 272.35 81.6 272.45 84.9 273.8 86.75 278.0 88.6 282.25 86.65 284.7"/><path fill="#d18456" d="M26.35 255.9 Q25.6 254.9 25.6 251.55 25.6 250.3 25.9 249.15 27.4 249.8 34.1 250.1 39.35 250.35 40.75 252.7 43.65 256.75 51.95 270.5 60.3 284.35 64.55 290.35 69.75 297.7 75.15 303.2 78.45 306.55 80.45 307.95 81.95 309.1 81.65 311.35 81.3 313.6 79.65 314.05 75.35 315.25 73.5 314.55 71.95 313.9 70.05 310.7 65.95 303.7 63.1 300.7 55.9 293.25 44.35 290.0 34.1 287.15 20.45 285.1 11.75 283.75 11.15 282.3 10.2 279.95 11.25 278.6 11.85 277.8 13.85 276.35 L17.15 273.75 Q26.05 272.7 37.9 278.1 44.0 280.9 49.65 284.5 50.7 285.0 50.25 282.4 L49.6 279.65 42.1 270.9 Q34.0 261.75 30.85 259.45 26.8 256.55 26.35 255.9"/><path fill="#d18456" d="M86.8 278.15 Q87.6 280.0 87.6 281.7 87.6 283.5 86.65 284.7 85.9 285.65 80.45 288.55 76.0 290.9 75.15 294.5 76.2 297.8 74.4 295.85 72.55 293.95 71.8 291.35 71.8 288.6 77.2 285.55 84.15 281.65 86.8 278.15"/><path fill="#eeeeef" d="M32.55 253.2 L16.2 250.4 Q16.95 249.15 18.35 247.7 21.15 244.85 24.6 244.1 28.2 243.3 30.75 247.5 32.85 250.95 32.55 253.2"/><path fill="#c8c9ca" d="M31.8 249.6 Q32.7 252.15 32.55 253.2 L16.85 250.55 Q20.35 249.1 24.35 248.9 L31.8 249.6"/><path fill="#eeeeef" d="M16.2 278.35 L9.75 277.75 0.8 277.0 Q3.6 272.15 8.85 270.7 13.45 269.35 15.95 271.25 17.9 272.7 17.6 275.55 17.3 278.25 16.2 278.35"/><path fill="#c8c9ca" d="M17.6 275.05 Q17.55 276.3 17.1 277.3 16.65 278.3 16.2 278.35 L9.8 277.8 0.85 277.05 Q4.4 274.35 9.1 273.8 13.75 273.3 17.6 275.05"/><path fill="#bf794e" d="M180.45 142.85 Q174.85 151.8 166.55 160.4 149.9 177.6 136.2 175.75 141.35 169.1 145.6 152.2 150.0 134.7 146.65 130.85 143.7 127.5 134.25 123.85 L125.4 120.85 124.25 114.15 147.2 106.0 Q154.1 107.2 163.4 115.2 176.25 126.35 180.45 142.85"/><path fill="#965e3a" d="M163.05 115.05 Q176.3 126.35 180.45 142.85 177.7 147.25 173.2 152.85 168.15 146.15 160.85 141.9 155.95 139.05 145.6 135.2 142.15 132.05 132.65 126.35 L123.85 121.25 123.65 114.45 146.5 105.65 Q153.45 106.85 163.05 115.05"/><path fill="#152139" d="M123.55 136.05 L117.3 140.95 117.25 118.8 119.35 116.2 124.25 114.15 125.4 120.85 137.5 124.7 Q147.15 128.6 147.8 133.4 148.65 139.25 146.05 150.6 143.45 161.95 139.65 168.7 141.8 164.7 141.65 154.45 141.55 144.15 139.15 136.9 134.65 132.65 125.75 128.7 125.65 133.6 123.55 136.05"/><path fill="#f0e78e" d="M139.45 137.25 Q140.75 140.45 141.45 149.65 142.25 160.65 140.35 166.85 L135.85 175.05 110.8 179.2 112.2 172.95 99.3 146.5 104.65 138.45 109.25 142.35 Q111.6 144.05 113.4 143.1 116.25 141.7 119.9 139.05 124.25 135.85 124.85 134.05 125.4 132.4 125.6 130.3 L125.7 128.5 132.15 131.8 Q138.75 135.45 139.45 137.25"/><path fill="#c9c279" d="M125.7 128.5 L130.1 130.7 Q135.0 133.25 137.4 135.1 L121.1 138.1 Q124.3 135.6 124.85 134.05 125.4 132.4 125.6 130.3 L125.7 128.5"/><path fill="#c9c279" d="M104.65 138.45 L108.75 141.95 Q103.6 144.1 99.55 147.0 L99.3 146.5 104.65 138.45"/><path fill="#fff" d="M110.95 143.55 Q108.8 143.35 105.85 141.55 L103.35 139.85 Q105.9 135.15 109.0 130.15 115.2 120.15 118.0 118.65 119.55 123.2 119.65 129.5 119.7 136.35 117.8 140.5 113.2 143.75 110.95 143.55"/><path fill="#dbdcdc" d="M119.5 131.9 Q115.2 131.15 112.05 132.8 108.75 134.55 104.15 140.15 L103.5 139.9 Q106.0 135.2 109.05 130.2 115.2 120.15 118.0 118.65 L119.25 125.25 Q119.75 128.75 119.5 131.9"/><path fill="#d18456" d="M104.35 168.1 L102.6 174.45 Q101.3 173.0 100.2 168.15 L99.35 163.6 104.35 168.1"/><path fill="#ed8599" d="M104.75 158.75 L103.9 170.1 Q102.05 168.9 100.8 166.15 99.7 163.6 99.95 162.15 L102.5 159.85 104.75 158.75"/><path fill="#f19963" d="M115.15 154.55 Q116.1 158.0 116.0 160.95 115.85 164.05 114.6 165.95 108.45 175.0 102.3 175.6 103.75 173.4 104.4 167.05 L104.9 158.95 115.15 154.55"/><path fill="#d18456" d="M115.15 154.55 Q116.1 158.0 116.0 160.95 115.85 164.05 114.6 165.95 L112.9 168.3 Q112.0 163.75 111.4 162.3 110.15 159.1 107.65 157.75 L115.15 154.55"/><path fill="#e85377" d="M92.85 86.8 L108.3 82.5 98.4 144.15 96.15 145.8 94.1 148.4 78.8 144.05 Q68.6 140.75 67.45 139.0 66.4 137.4 66.95 122.4 L67.75 104.5 Q67.75 102.3 74.4 99.65 82.45 96.45 85.3 93.05 L92.85 86.8"/><path fill="#c94768" d="M85.3 93.05 L92.7 86.65 108.3 82.5 98.4 143.7 95.4 146.2 Q93.0 144.0 89.5 142.9 L83.55 141.6 Q76.45 140.15 74.2 134.5 72.5 129.4 74.65 115.95 76.6 104.0 79.15 97.6 83.25 95.55 85.3 93.05"/><path fill="#e85377" d="M145.3 76.65 L97.0 144.15 Q92.15 141.1 88.65 135.3 81.7 123.7 88.5 110.05 107.15 72.8 117.2 70.8 122.0 69.85 132.6 72.55 140.95 74.65 145.3 76.65"/><path fill="#c94768" d="M127.55 71.4 Q132.45 72.35 138.25 74.15 L145.3 76.65 97.0 144.15 Q92.15 141.1 88.65 135.3 81.7 123.7 88.5 110.05 L92.6 102.15 Q96.7 98.95 109.55 85.85 119.7 75.5 127.55 71.4"/><path fill="#e85377" d="M190.7 92.2 L147.25 106.25 134.55 109.8 Q121.45 113.85 119.3 116.15 115.85 119.85 101.25 143.45 L97.7 144.15 92.6 137.25 91.95 127.9 Q91.6 122.1 94.1 118.55 L102.15 104.1 Q107.95 93.75 111.05 92.45 130.95 84.4 147.65 74.6 153.05 71.5 167.4 78.1 179.6 83.65 190.7 92.2"/><path fill="#c94768" d="M176.15 82.65 Q184.15 87.15 190.7 92.2 L147.25 106.25 134.55 109.8 Q121.45 113.85 119.3 116.15 115.85 119.85 101.25 143.45 L97.7 144.15 96.25 142.2 98.45 136.1 Q99.7 132.45 100.25 129.5 104.3 108.25 122.6 94.4 134.45 85.4 160.4 75.3 167.35 77.6 176.15 82.65"/><path fill="#e85377" d="M201.85 95.1 Q204.15 97.45 209.75 107.4 L199.3 125.0 180.2 142.0 Q176.95 128.1 164.6 116.5 155.1 107.5 148.7 105.9 141.25 107.8 131.8 111.2 121.3 114.9 119.15 116.75 117.25 118.3 111.95 126.3 106.2 135.0 101.9 143.2 101.55 144.4 99.35 143.4 L100.0 136.2 Q100.5 130.25 102.6 126.75 L110.0 114.4 Q115.3 106.05 118.1 103.6 120.35 101.65 128.4 99.3 137.05 96.8 140.05 94.8 L149.1 88.65 Q154.3 85.8 158.8 86.9 L182.05 90.8 Q200.5 93.75 201.85 95.1"/><path fill="#c94768" d="M205.7 100.55 L209.75 107.4 199.3 125.0 180.2 142.0 Q177.8 131.7 168.05 120.4 157.75 108.5 147.9 106.1 138.55 108.9 131.2 111.45 121.2 115.0 119.15 116.75 117.9 117.8 114.6 122.4 111.25 127.2 107.6 133.15 109.75 113.95 119.1 109.8 126.4 105.1 135.35 101.3 144.1 97.5 152.25 95.45 165.2 92.55 179.4 94.2 191.55 95.65 205.7 100.55"/><path fill="#e85377" d="M92.35 81.95 Q91.1 88.4 89.05 105.45 86.6 125.9 87.65 128.2 89.45 132.25 93.8 138.45 L97.75 143.9 95.75 146.1 Q88.05 142.0 83.0 138.1 76.8 133.35 76.8 130.55 76.8 125.9 80.95 108.35 85.75 87.9 90.55 78.7 93.75 72.6 93.65 75.0 93.6 76.4 92.35 81.95"/><path fill="#f19963" d="M95.55 146.5 Q97.7 143.75 100.25 143.7 106.2 143.6 113.5 147.9 120.35 151.95 118.95 153.1 118.5 153.45 111.55 156.0 104.35 158.65 102.6 159.8 100.55 161.1 97.55 165.4 L94.95 169.45 Q90.55 161.3 89.7 158.95 88.95 157.0 89.3 155.8 89.85 154.1 92.9 150.45 L95.55 146.5"/><path fill="#d18456" d="M106.25 148.35 L106.55 144.75 Q111.55 146.35 115.85 149.45 119.9 152.35 118.95 153.1 118.5 153.45 111.55 156.0 104.35 158.65 102.6 159.8 100.55 161.1 97.55 165.4 L94.95 169.45 94.75 165.0 Q94.75 160.1 95.75 157.9 96.8 155.65 100.55 153.1 103.7 150.95 105.05 150.75 105.8 150.6 106.25 148.35"/><path fill="#0d131a" d="M25.25 45.85 Q28.85 47.75 35.3 56.4 47.7 72.9 54.5 80.3 65.85 92.7 76.75 98.75 L73.25 99.7 Q61.4 91.5 50.35 79.05 44.9 72.9 34.75 59.45 L29.5 52.65 Q27.1 49.7 25.9 49.05 23.65 47.9 22.3 48.85 19.9 50.55 19.9 56.75 19.9 59.05 20.25 61.35 22.1 74.1 28.2 85.05 31.65 91.25 35.4 95.3 L52.0 113.7 53.0 116.7 Q43.25 107.7 36.6 100.15 L31.7 94.2 Q28.0 90.45 24.15 88.85 20.75 87.45 19.7 88.4 18.4 89.5 18.3 92.25 18.15 95.4 19.65 99.5 22.55 107.35 29.25 117.1 35.7 126.45 42.55 133.15 47.75 138.2 53.5 141.7 56.35 143.45 58.2 144.25 L60.45 147.2 Q58.9 146.55 55.05 144.3 47.05 139.6 42.75 135.8 41.75 134.9 38.3 134.1 L33.85 133.3 Q32.55 133.25 32.45 135.45 32.35 138.05 34.55 141.55 40.75 151.55 60.75 161.35 65.9 163.9 69.15 164.55 L70.35 166.3 Q68.85 165.95 60.9 163.0 58.25 162.75 56.45 164.05 54.15 165.65 56.15 168.5 59.85 173.8 73.1 178.35 82.0 181.45 90.35 182.85 L91.45 184.15 85.85 183.2 81.35 182.65 Q78.4 182.75 77.5 184.55 76.6 186.3 82.45 189.45 89.25 193.1 98.35 193.7 101.05 193.9 101.6 194.25 102.1 194.6 99.85 194.7 L96.1 194.7 94.6 194.55 Q94.55 196.1 97.15 197.45 99.7 198.8 103.0 198.9 L102.9 200.7 Q99.45 200.55 96.2 198.6 92.9 196.65 92.4 194.4 82.9 192.35 78.4 188.65 74.85 185.75 75.9 183.7 76.45 182.65 78.15 182.15 64.65 178.3 58.15 173.4 52.95 169.45 52.95 165.55 52.95 163.9 54.3 162.9 55.75 161.8 58.35 162.1 40.5 153.8 33.75 144.05 28.65 136.7 31.2 132.45 32.05 131.05 35.05 131.45 37.65 131.8 40.05 133.15 24.3 117.3 18.4 102.3 16.05 96.3 15.95 91.8 15.8 87.65 17.55 86.2 19.1 84.9 22.05 85.6 25.5 86.4 28.8 89.6 23.2 81.05 20.1 71.0 17.4 62.2 17.4 55.3 17.4 49.25 20.25 46.7 22.65 44.5 25.25 45.85"/><path fill="#0d131a" d="M24.7 48.05 Q25.6 48.7 30.75 56.75 40.4 71.75 46.95 80.35 58.65 95.6 68.25 101.9 L67.45 103.1 Q54.15 93.5 43.7 79.35 L29.55 57.5 25.55 51.35 Q23.4 48.25 22.45 48.15 L24.7 48.05"/><path fill="#0d131a" d="M66.6 113.9 L60.6 109.15 Q54.3 104.55 52.6 105.15 51.8 105.35 51.55 106.75 50.6 111.4 55.75 120.95 61.0 130.75 66.95 134.65 L66.15 135.85 Q60.0 131.8 53.9 121.05 47.8 110.2 48.85 105.0 49.3 102.9 51.0 102.35 53.1 101.65 58.1 105.2 L67.15 112.7 66.6 113.9"/><path fill="#0d131a" d="M66.7 136.75 L65.9 137.9 Q58.35 132.55 56.4 133.5 55.95 133.75 55.95 134.75 55.95 140.4 60.9 145.75 68.15 153.45 86.15 161.4 90.65 163.4 89.4 163.5 88.2 163.6 85.15 162.55 L78.55 160.85 Q68.65 158.55 67.5 159.85 L67.5 160.3 Q69.55 166.4 80.0 171.65 89.3 176.35 102.0 178.9 106.6 179.85 105.85 180.15 L101.9 180.35 90.95 180.75 Q90.3 181.8 93.7 185.6 97.55 189.85 102.75 192.4 105.2 193.6 104.55 194.1 103.9 194.65 101.0 193.05 95.9 190.35 92.25 185.85 88.7 181.55 89.75 179.95 90.55 178.75 93.95 178.65 70.15 172.8 66.15 160.75 L66.0 160.0 Q66.0 159.3 66.4 158.9 67.3 157.9 70.4 158.15 L78.25 159.6 Q64.6 153.3 58.4 145.6 53.8 140.0 53.8 134.65 53.8 132.25 55.4 131.5 57.7 130.3 66.7 136.75"/><path fill="#0d131a" d="M202.8 261.9 Q225.4 260.4 245.45 268.95 267.6 278.45 281.35 298.4 282.4 299.9 282.2 300.25 L280.35 300.5 274.0 301.15 267.45 302.15 270.6 307.75 Q273.05 312.3 272.5 312.25 L267.5 312.45 263.1 312.7 263.05 311.25 270.25 310.9 265.25 302.0 264.9 301.6 Q264.85 301.1 266.25 300.9 L279.95 298.9 Q263.2 278.25 239.95 269.4 222.25 262.7 202.0 263.25 L202.8 261.9"/><path fill="#0d131a" d="M238.0 283.9 Q264.8 303.15 274.3 330.55 274.75 331.85 274.55 332.15 L273.35 332.25 267.9 331.05 261.9 329.6 263.35 336.35 Q264.45 341.75 263.95 342.05 263.15 342.6 248.3 337.5 L248.85 336.45 262.2 340.1 259.95 328.85 Q259.7 327.55 260.45 327.6 L261.2 327.9 264.5 328.8 272.25 330.55 Q260.0 301.85 235.15 283.9 226.05 277.3 216.35 273.0 208.6 269.6 203.1 268.65 L203.35 267.2 Q208.95 268.15 217.6 272.1 228.25 276.9 238.0 283.9"/><path fill="#0d131a" d="M195.25 273.15 Q213.4 284.1 231.35 306.65 253.4 334.45 256.0 359.75 256.15 361.05 255.6 361.6 255.05 362.1 254.1 361.8 246.3 359.35 240.6 356.45 L240.75 363.85 Q240.7 369.65 240.15 370.0 239.3 370.55 223.3 357.6 L224.5 356.55 239.1 367.25 239.0 360.0 Q239.05 354.6 239.2 354.5 L244.85 356.9 Q251.0 359.55 253.95 359.85 251.9 337.5 230.4 309.3 221.6 297.75 211.6 288.1 202.1 278.9 194.55 274.35 L195.25 273.15"/><path fill="#0d131a" d="M198.65 295.0 Q205.85 305.05 211.75 316.7 227.1 346.75 225.2 368.55 L225.0 368.8 Q224.5 368.85 223.05 367.8 216.25 362.7 214.85 361.75 L212.85 370.2 212.4 371.65 Q212.1 371.85 211.5 371.3 L204.7 365.35 Q200.1 360.65 196.45 353.6 186.15 333.7 180.45 290.05 L181.9 289.85 Q186.8 329.5 198.15 351.65 204.65 364.45 211.5 368.7 213.75 359.65 214.0 359.5 214.3 359.3 223.75 365.95 L223.75 364.6 Q223.75 344.65 209.95 317.2 198.15 293.8 187.45 283.8 187.25 283.65 187.3 282.75 L187.45 281.9 Q192.15 285.9 198.65 295.0"/><path fill="#0d131a" d="M169.5 324.1 L169.5 326.0 Q169.5 339.4 174.2 352.4 176.95 360.0 180.7 366.1 184.55 357.15 185.05 356.55 185.4 356.15 189.75 359.65 L195.2 364.0 197.1 351.8 198.3 353.2 Q197.2 365.8 196.25 366.4 195.7 366.75 191.05 363.5 L185.6 359.6 181.85 368.05 Q181.3 369.05 180.8 368.75 180.25 368.45 179.1 366.45 172.55 355.0 170.9 349.65 167.75 339.55 168.2 322.4 L169.5 324.1"/><path fill="#0d131a" d="M197.8 254.3 Q198.75 254.3 203.7 255.8 208.55 257.25 210.15 258.0 211.75 258.75 211.7 259.05 211.65 259.4 209.8 260.05 208.05 260.65 205.25 261.95 L201.7 263.6 205.0 268.75 Q207.75 273.1 207.4 273.45 L202.05 273.2 196.05 272.45 196.7 278.45 Q197.2 283.45 196.65 283.75 L192.8 283.0 188.75 281.7 187.45 287.8 Q186.3 293.05 185.85 293.35 185.2 293.85 178.5 289.2 L179.1 287.9 184.95 290.65 186.2 284.85 Q187.3 280.05 187.75 279.95 188.45 279.7 195.1 281.85 L194.55 276.0 Q194.1 271.25 194.55 270.9 L199.15 271.05 204.75 271.75 199.75 263.1 202.75 261.35 207.3 258.9 Q198.65 255.75 197.8 255.75 L197.8 254.3"/><path fill="#0d131a" d="M203.6 225.9 L201.25 227.45 Q201.4 221.05 200.85 218.15 L203.35 218.25 203.6 225.9"/><path fill="#0d131a" d="M198.8 247.55 Q200.45 246.1 202.05 243.4 200.25 255.45 195.6 264.55 189.8 275.85 179.85 281.95 L179.5 279.75 Q193.65 270.0 198.8 247.55"/><path fill="#0d131a" d="M183.15 221.5 L182.0 231.4 Q181.25 242.05 183.45 245.5 L182.25 246.25 Q180.2 245.35 179.7 238.45 179.15 230.5 181.7 221.25 L183.15 221.5"/><path fill="#0d131a" d="M96.7 283.8 L105.15 284.55 Q118.65 284.5 127.55 276.35 121.85 273.0 120.95 271.2 L122.7 271.15 130.3 275.0 Q134.85 277.35 141.55 279.0 146.55 280.2 151.55 280.8 L154.3 281.15 155.5 282.75 150.35 283.1 Q142.7 282.4 130.05 277.2 120.2 286.6 107.1 286.95 101.95 287.1 92.5 284.8 L92.1 286.6 91.7 289.15 Q91.55 290.9 90.7 290.9 90.05 290.9 88.6 289.6 87.55 288.75 85.85 286.35 L87.15 284.55 90.05 288.65 90.6 285.05 Q91.0 282.6 91.7 280.5 92.4 278.45 92.9 280.5 L93.25 282.95 96.7 283.8"/><path fill="#0d131a" d="M144.9 250.35 Q146.3 247.3 147.65 246.45 148.95 245.6 146.7 250.15 144.4 254.85 144.95 261.65 145.6 270.05 150.85 276.3 L152.9 278.85 Q154.45 281.05 151.9 279.45 145.1 275.3 143.1 267.25 141.0 259.0 144.9 250.35"/><path fill="#0d131a" d="M169.05 228.4 L170.7 230.0 Q172.3 231.8 172.3 232.4 172.3 234.95 170.45 241.65 L168.75 248.3 Q167.6 252.95 167.6 253.75 167.6 258.75 168.6 265.15 169.55 271.35 170.45 272.85 171.55 271.7 176.2 260.2 L183.45 240.75 Q185.3 236.2 186.6 234.35 187.8 232.65 190.15 230.95 192.35 229.4 194.45 229.85 195.55 230.1 196.5 230.8 195.45 231.0 195.1 231.85 L194.7 231.75 Q192.55 231.25 191.2 232.3 189.35 233.75 187.85 236.55 186.9 238.3 184.7 243.6 L177.5 260.75 Q173.2 271.45 170.95 274.5 170.5 275.15 169.85 274.7 L169.25 274.1 Q167.85 272.45 166.8 263.75 165.75 255.1 166.35 250.35 166.65 247.9 168.3 241.95 L169.8 235.9 Q170.35 232.85 169.75 231.65 L168.35 229.7 169.05 228.4"/><path fill="#0d131a" d="M155.4 228.05 Q153.4 230.8 153.65 237.95 L153.65 248.0 153.75 253.7 Q153.95 256.35 154.85 259.4 L157.95 271.15 Q159.45 277.5 159.55 278.8 159.6 280.0 159.15 279.75 158.65 279.45 158.25 277.95 L156.9 273.8 155.9 271.15 155.25 271.4 Q154.6 271.75 154.2 272.5 153.25 274.5 153.7 276.65 154.5 280.6 159.35 288.2 L159.7 286.2 Q160.05 284.4 160.35 285.7 160.85 287.75 161.2 293.85 161.9 298.2 162.0 300.3 162.2 303.9 161.5 307.55 160.9 310.85 161.6 314.3 162.25 317.45 163.6 319.35 164.55 320.65 165.35 320.8 L165.85 321.0 166.25 321.0 Q166.95 321.65 169.75 323.05 L166.65 323.25 Q164.1 322.85 161.85 320.3 159.55 317.65 159.55 311.7 159.55 310.45 160.1 307.3 160.4 305.85 160.25 300.95 L159.8 294.1 159.3 291.05 Q154.65 284.35 153.05 280.85 151.7 277.8 151.65 274.8 151.6 272.65 153.55 270.75 L155.5 269.25 152.35 258.1 Q151.7 255.85 151.6 245.45 L151.65 235.15 Q151.65 228.2 154.2 225.85 155.45 224.7 160.5 223.45 L160.2 224.0 160.6 223.9 159.7 225.6 159.65 225.6 Q156.55 226.4 155.4 228.05"/><path fill="#0d131a" d="M202.65 244.8 Q200.75 247.55 196.9 251.4 194.7 253.55 191.35 259.15 188.45 263.95 185.6 269.65 L181.8 277.0 Q180.7 278.95 180.3 281.9 L179.9 286.5 Q179.55 289.6 177.95 291.3 176.55 292.7 175.45 295.85 174.3 299.05 174.0 302.5 173.85 304.4 175.05 308.1 176.2 311.8 176.25 314.75 176.3 318.15 174.8 319.15 L174.45 318.15 174.1 317.1 174.3 316.7 Q175.05 314.95 174.75 312.7 L173.7 308.55 Q172.4 304.45 172.55 302.35 172.95 298.55 174.15 295.25 175.35 291.85 176.95 290.3 L177.7 288.5 178.05 285.75 Q178.4 282.65 178.7 281.25 179.3 278.45 180.55 276.3 L184.3 269.0 189.8 258.35 Q193.05 252.55 195.2 250.35 199.35 246.25 201.25 242.8 203.1 239.35 202.15 237.5 L201.95 237.15 Q202.75 236.25 202.95 235.25 L204.55 237.0 Q206.0 239.9 202.65 244.8"/><path fill="#0d131a" d="M160.5 226.6 Q160.25 227.2 161.1 228.1 162.05 229.25 163.65 229.95 165.3 230.75 166.45 230.45 167.45 230.25 167.75 229.1 L168.55 224.1 Q169.15 219.75 169.15 217.4 169.15 216.05 168.95 215.6 L168.9 215.55 Q168.0 215.45 165.25 218.75 162.2 222.5 160.5 226.6 M160.9 229.95 Q158.35 227.7 159.15 225.75 160.85 221.7 164.4 217.6 167.9 213.55 169.55 213.55 170.3 213.55 170.65 214.3 171.6 216.7 169.25 229.75 168.9 231.1 166.75 231.6 163.55 232.35 160.9 229.95"/><path fill="#0d131a" d="M203.5 232.75 Q206.2 227.7 206.35 226.2 205.15 226.25 200.75 229.0 196.6 231.55 194.55 233.3 194.3 233.5 194.3 234.0 L194.4 234.65 Q194.75 236.05 196.0 237.45 197.25 238.9 198.5 239.15 199.5 239.35 200.2 238.45 L203.5 232.75 M208.25 223.85 Q208.8 224.15 208.8 224.75 208.75 226.4 205.45 232.65 202.55 238.2 201.5 239.55 200.7 240.7 198.25 240.3 196.2 239.85 194.1 237.35 191.7 234.5 192.95 232.15 194.55 230.8 200.1 227.4 206.9 223.2 208.25 223.85"/><path fill="#0d131a" d="M169.35 314.8 Q167.65 315.35 166.6 316.35 165.95 316.85 165.95 317.4 L166.0 317.6 Q167.05 320.75 170.95 323.9 174.55 326.75 175.45 326.25 175.95 326.0 173.5 316.15 173.45 315.05 172.4 314.65 L169.35 314.8 M165.8 315.5 Q167.4 314.35 169.2 313.75 L172.8 313.55 Q174.5 314.15 174.65 316.05 175.2 319.6 175.7 321.35 177.0 325.95 176.9 327.5 176.9 328.25 176.6 328.1 172.95 327.95 168.7 324.35 165.0 321.15 164.15 318.65 163.95 316.8 165.8 315.5"/><path fill="#0d131a" d="M79.7 320.5 L81.3 323.9 Q82.55 323.9 83.25 319.45 84.0 314.75 82.5 311.9 L83.95 311.3 Q85.35 313.95 85.0 317.7 84.7 320.9 83.35 323.7 82.2 326.15 81.15 325.95 80.25 325.8 79.5 323.9 78.4 321.1 76.25 317.65 L74.25 314.75 75.8 314.75 Q77.85 316.6 79.7 320.5"/><path fill="#0d131a" d="M29.0 259.0 L25.2 256.05 Q24.25 254.8 24.25 251.7 L24.25 251.55 26.3 252.3 27.25 255.55 Q27.65 256.35 29.8 257.85 L31.3 258.9 Q35.25 261.7 40.9 267.7 46.8 274.05 50.15 279.2 53.05 283.7 51.45 282.45 L49.25 280.3 Q23.85 265.3 15.1 271.1 L14.1 270.5 Q13.45 270.15 13.55 270.05 16.65 265.9 26.45 268.25 35.35 270.45 46.55 277.1 34.35 262.85 30.45 260.05 L29.0 259.0"/><path fill="#0d131a" d="M86.6 282.0 L86.6 279.7 Q86.0 277.55 84.6 275.75 83.15 273.95 81.5 273.2 81.1 273.4 78.85 275.65 L73.35 281.05 Q69.85 283.95 68.1 282.8 L66.95 282.1 67.05 282.2 Q61.5 278.3 55.55 268.3 51.9 262.1 49.7 256.85 46.8 250.2 44.35 247.55 40.95 243.95 35.1 243.35 31.6 243.05 28.9 245.4 L28.85 245.5 27.8 244.5 27.95 244.35 Q29.65 242.85 31.7 241.9 34.05 240.8 35.9 240.95 42.45 241.6 46.2 246.15 48.15 248.5 51.2 255.5 54.45 263.05 58.2 269.3 63.6 278.2 68.35 281.35 70.25 281.3 73.5 278.6 L78.45 273.9 80.8 271.7 Q81.45 271.2 82.1 271.45 84.05 272.2 85.7 274.5 87.25 276.7 87.95 279.35 88.2 280.1 88.1 282.55 88.0 285.25 87.5 285.9 87.0 286.6 81.85 289.0 76.8 291.85 75.85 295.25 76.55 297.2 78.85 299.65 80.65 301.55 82.75 303.1 84.65 304.5 85.2 307.1 85.75 309.5 84.9 311.45 84.35 312.7 82.9 313.8 81.5 314.9 79.8 315.45 73.1 317.75 70.25 314.65 69.4 313.7 69.0 312.3 L68.8 311.1 Q65.1 304.45 61.65 300.85 54.75 293.65 44.15 290.7 37.75 288.9 31.1 287.95 L21.5 286.65 14.05 285.4 Q11.15 284.65 10.6 283.4 8.95 279.5 9.05 277.3 L10.9 277.3 Q10.8 278.4 11.4 279.9 L12.45 282.15 Q12.75 282.85 14.9 283.4 L20.65 284.4 Q33.95 286.4 44.5 289.3 55.6 292.4 62.65 299.2 66.6 303.0 70.05 309.25 L71.75 312.25 Q74.45 314.95 79.5 313.35 82.3 312.5 83.15 310.65 83.55 309.75 83.35 308.45 83.0 306.3 80.9 304.1 L77.5 300.65 Q75.45 298.5 74.55 296.75 L72.8 293.6 Q72.2 292.45 72.4 292.15 72.6 291.85 73.6 292.8 L74.55 293.8 Q75.15 291.2 80.35 287.85 85.65 284.85 86.1 284.3 86.45 283.8 86.6 282.0"/><path fill="#0d131a" d="M28.7 245.85 Q26.9 244.2 24.75 244.65 22.4 245.2 20.45 246.65 16.85 249.35 17.2 250.0 17.4 250.45 19.8 250.6 L23.7 250.85 31.95 252.55 Q31.8 251.1 31.0 249.3 30.05 247.1 28.7 245.85 M24.75 243.35 Q28.15 242.6 29.85 244.2 31.55 245.75 32.95 249.45 34.2 252.65 34.0 253.35 L33.65 254.0 32.2 254.0 19.05 252.1 Q15.2 251.65 14.9 250.35 14.6 249.15 17.2 247.1 21.15 244.1 24.75 243.35"/><path fill="#0d131a" d="M13.15 270.85 L9.85 271.0 Q7.6 271.5 4.6 273.7 1.8 275.8 1.9 276.5 L5.4 276.9 10.7 277.1 13.85 277.6 16.1 277.8 16.55 277.1 17.0 275.45 17.0 274.9 Q17.0 272.8 15.6 271.7 14.7 271.05 13.15 270.85 M8.2 269.5 Q13.0 268.3 16.3 270.8 18.15 272.15 18.7 276.05 19.25 280.15 16.4 280.15 L9.75 279.1 1.9 278.05 Q0.65 278.05 0.2 277.45 -0.3 276.75 0.5 275.35 3.15 270.75 8.2 269.5"/><path fill="#0d131a" d="M181.15 142.65 L179.75 143.0 Q175.7 126.95 162.8 115.8 153.3 107.55 146.35 106.35 L148.2 105.4 Q155.3 106.45 164.85 115.25 177.1 126.6 181.15 142.65"/><path fill="#bf794e" d="M244.7 54.2 Q246.55 53.75 247.9 52.85 L252.75 54.1 Q245.0 60.15 239.6 63.8 230.85 69.6 227.4 78.2 226.55 80.35 224.65 86.6 222.85 92.5 221.15 96.55 L212.65 117.25 Q207.7 127.95 201.55 133.75 193.8 141.05 190.7 145.45 187.05 150.6 186.0 156.9 184.55 165.8 183.25 169.5 180.85 176.35 175.2 182.95 L166.35 193.95 Q163.1 197.35 158.8 196.4 157.15 196.05 150.85 192.85 143.2 188.95 138.45 187.1 120.55 180.1 108.45 185.85 110.3 180.75 111.85 178.5 116.4 175.95 122.3 174.9 129.2 173.75 135.85 175.2 148.9 168.75 164.15 156.6 175.3 147.7 180.55 142.0 184.65 137.6 194.75 129.55 204.05 120.95 209.25 108.35 212.45 100.65 218.05 78.6 222.0 63.05 226.6 59.5 230.25 56.65 241.3 49.9 243.2 50.9 244.65 51.35 L241.95 54.5 244.7 54.2"/><path fill="#0d131a" d="M146.85 132.65 Q146.15 127.7 125.3 121.3 L125.0 121.2 123.8 114.2 124.7 114.05 125.8 120.55 137.7 124.35 Q147.85 128.3 148.4 132.15 149.6 140.5 146.75 152.0 143.7 164.45 137.3 174.1 L136.6 175.45 135.55 175.45 Q128.65 174.45 122.05 175.6 114.85 176.85 111.85 180.15 107.25 187.15 104.2 201.55 101.2 215.8 101.9 226.65 102.65 238.15 105.4 246.55 107.15 251.85 110.75 258.2 112.15 260.65 110.55 259.1 108.95 257.55 107.4 255.25 105.75 252.75 103.85 248.65 L102.3 245.05 Q95.2 245.4 89.55 252.75 83.85 260.15 81.6 272.05 81.15 272.1 80.35 272.6 L79.6 273.05 Q80.95 259.75 86.95 251.65 92.8 243.7 101.5 242.65 98.9 232.95 98.9 223.05 98.9 209.55 103.2 195.8 106.3 185.95 110.05 179.8 111.45 175.15 111.55 173.9 111.7 172.85 111.0 172.05 L110.25 171.45 111.75 170.4 112.25 170.75 Q112.8 171.3 113.0 172.3 113.55 174.55 112.55 177.5 115.1 175.0 121.3 174.05 L135.45 174.55 Q141.2 166.25 144.7 152.75 147.9 140.1 146.85 132.65"/><path fill="#0d131a" d="M125.9 128.1 L132.95 131.7 Q139.15 135.2 139.9 137.1 141.2 140.3 141.9 149.55 142.7 160.7 140.75 166.95 L139.3 169.15 Q140.05 166.75 140.65 162.75 141.25 158.55 141.25 155.65 141.25 150.35 140.15 144.3 139.25 139.7 138.45 137.6 137.9 136.15 133.4 133.25 129.75 130.9 126.15 129.2 126.0 131.9 125.25 134.2 124.6 136.15 120.0 139.5 116.3 142.2 113.6 143.5 110.15 145.25 103.35 140.35 L103.95 139.6 Q110.2 144.2 113.2 142.7 L119.65 138.65 Q123.85 135.55 124.4 133.9 L125.2 131.5 125.25 128.5 Q125.15 126.45 125.5 127.1 L125.9 128.1"/><path fill="#0d131a" d="M118.0 140.25 L116.85 141.25 Q118.65 137.3 118.7 129.55 118.75 122.45 117.55 119.35 L118.35 117.95 Q119.95 122.1 120.3 127.8 120.7 135.35 118.0 140.25"/><path fill="#0d131a" d="M110.95 143.55 Q109.55 143.15 108.75 141.65 107.55 139.45 107.45 137.25 107.35 135.25 108.15 134.65 109.8 133.35 112.2 135.5 114.6 137.7 115.6 141.75 115.15 142.6 113.8 143.2 112.3 143.85 110.95 143.55"/><path fill="#fff" d="M110.45 140.7 Q109.2 138.45 109.95 138.0 110.25 137.85 110.8 138.3 L112.0 139.75 Q112.55 140.7 112.7 141.55 112.85 142.35 112.6 142.45 112.25 142.65 111.6 142.1 L110.45 140.7"/><path fill="#0d131a" d="M100.4 162.25 Q100.15 163.6 101.0 165.75 102.0 168.25 103.7 169.4 L103.65 170.3 Q101.6 168.95 100.35 166.8 99.1 164.7 99.35 163.2 L100.4 162.25"/><path fill="#0d131a" d="M115.4 160.3 Q115.4 157.6 114.6 154.7 L115.75 154.4 Q116.75 158.25 116.7 161.4 116.65 164.75 115.35 166.65 113.25 169.85 110.5 172.25 107.3 175.05 104.0 175.9 L102.45 176.05 101.75 175.3 Q100.6 173.25 99.55 168.6 L98.65 163.7 100.05 163.5 101.0 168.35 Q101.8 171.8 102.7 173.35 103.8 169.8 104.15 161.45 L104.35 158.9 105.5 159.0 105.35 161.5 Q104.85 171.35 103.35 174.85 108.8 173.45 114.1 165.65 115.4 163.65 115.4 160.3"/><path fill="#0d131a" d="M84.55 94.65 Q82.65 96.45 79.65 98.0 L74.55 100.2 Q71.3 101.5 70.15 102.2 68.3 103.3 68.3 104.5 L68.0 111.6 Q66.75 136.9 67.95 138.7 68.9 140.15 77.85 143.1 85.35 145.6 94.25 147.85 L93.95 148.95 80.9 145.85 Q67.75 142.4 66.35 140.25 65.5 138.95 65.7 130.3 L66.5 111.7 66.35 103.45 Q66.35 101.75 68.6 100.6 L73.75 98.5 79.7 96.25 Q83.1 94.75 84.85 92.7 85.0 94.3 84.55 94.65"/><path fill="#0d131a" d="M104.6 84.35 Q102.95 85.1 91.4 88.45 L92.5 85.55 97.4 84.7 104.05 83.05 104.6 84.35"/><path fill="#0d131a" d="M116.7 69.25 Q121.55 68.25 132.6 71.5 140.45 73.8 145.55 76.15 L144.1 76.85 Q139.75 74.9 132.15 72.95 122.1 70.4 117.35 71.4 112.9 72.3 102.25 88.0 93.45 101.05 89.05 110.3 L88.0 109.8 Q92.7 100.0 100.85 87.3 111.8 70.2 116.7 69.25"/><path fill="#0d131a" d="M191.05 91.7 L189.2 92.2 Q178.0 83.6 166.4 78.3 153.0 72.2 147.95 75.1 L147.6 75.3 Q140.4 79.45 134.55 82.45 123.75 87.95 111.3 93.0 109.1 93.9 105.6 99.45 103.5 102.7 99.55 110.1 95.95 116.85 94.55 118.85 92.75 121.45 92.5 125.05 92.35 127.2 92.85 131.5 93.3 135.25 93.2 137.3 L91.75 135.45 91.7 131.65 91.0 124.75 Q91.0 120.85 92.9 118.15 L95.55 114.45 Q97.4 111.8 98.55 109.55 102.4 101.75 104.2 98.45 107.3 92.85 109.6 91.9 121.55 87.05 135.85 79.65 L147.7 73.25 Q153.15 70.1 167.6 77.05 179.3 82.7 191.05 91.7"/><path fill="#0d131a" d="M174.3 90.15 L158.65 87.5 Q155.0 86.55 151.0 88.35 148.5 89.5 143.75 92.95 L140.35 95.3 135.8 98.05 Q133.3 99.3 130.4 100.15 121.05 102.8 118.35 105.1 115.8 107.25 111.55 113.45 108.25 118.25 104.75 124.2 L103.1 127.05 Q101.55 129.55 100.9 133.25 L100.35 139.3 99.9 143.6 98.8 143.25 Q99.1 142.1 99.2 139.2 99.25 135.3 99.45 133.2 99.8 129.45 101.35 126.9 L103.8 122.75 Q107.6 116.35 112.15 110.05 116.15 104.55 117.7 103.15 119.3 101.8 122.35 100.65 124.3 99.9 128.55 98.7 L134.55 96.8 Q137.8 95.65 139.75 94.35 L143.05 92.0 Q149.05 87.65 150.25 87.05 154.45 84.85 158.35 85.8 L177.4 89.05 195.3 91.85 Q201.8 93.0 202.8 94.0 204.25 95.45 207.0 100.85 L209.6 106.25 209.2 107.7 Q203.65 97.8 201.4 95.5 200.5 94.6 191.45 92.95 L174.3 90.15"/><path fill="#0d131a" d="M164.9 99.5 Q159.1 100.25 155.8 102.75 153.95 104.15 152.8 104.6 L142.7 108.1 129.3 112.7 Q122.1 115.35 120.1 116.85 116.35 119.65 103.75 140.35 L102.15 143.7 100.85 143.55 102.95 139.9 110.95 126.45 Q116.3 117.7 118.8 115.8 120.8 114.3 128.55 111.75 L142.45 107.25 148.45 104.95 152.5 103.1 154.4 101.85 156.15 100.45 Q163.0 95.25 190.15 99.05 193.8 99.55 192.75 99.85 L190.05 99.95 Q173.15 98.4 164.9 99.5"/><path fill="#0d131a" d="M199.0 123.6 L198.85 124.4 Q192.3 117.75 175.5 110.4 161.15 104.1 154.95 103.25 L155.65 102.55 Q168.3 105.05 181.6 111.2 196.25 117.9 199.0 123.6"/><path fill="#0d131a" d="M203.15 118.8 Q201.95 115.35 199.8 112.75 197.2 109.65 192.85 107.2 191.05 106.2 191.15 106.0 191.3 105.8 193.25 106.45 197.55 107.8 200.25 110.95 202.3 113.35 203.7 117.2 L203.15 118.8"/><path fill="#0d131a" d="M93.85 73.05 Q95.05 72.7 91.45 98.45 87.7 125.2 88.4 126.75 90.05 130.35 94.65 137.9 L98.3 144.2 97.35 144.9 92.65 137.85 86.95 129.35 Q86.35 128.05 86.25 127.3 L86.3 125.55 Q86.3 118.8 88.5 103.25 89.95 93.2 91.6 83.95 L93.0 75.6 Q89.5 81.0 83.6 100.95 77.4 121.9 77.4 130.55 77.4 133.05 83.45 137.75 88.75 141.8 96.35 145.9 L95.8 146.9 84.2 140.55 Q75.1 134.8 75.1 131.25 75.1 119.75 83.0 96.45 90.6 73.95 93.85 73.05"/><path fill="#0d131a" d="M112.25 147.85 Q105.6 144.2 100.25 144.3 98.35 144.35 96.75 146.0 95.8 146.95 94.45 149.15 L93.35 150.8 90.5 154.6 Q89.75 155.9 89.75 156.85 89.75 157.5 90.25 158.75 91.2 161.2 95.0 168.3 99.3 161.25 102.25 159.3 103.95 158.25 112.8 154.95 L118.5 152.7 Q118.0 151.0 112.25 147.85 M100.2 143.15 Q105.7 143.2 112.6 146.85 118.8 150.15 119.6 152.35 119.85 153.05 119.35 153.55 118.9 153.9 113.2 156.05 104.5 159.25 102.9 160.3 99.4 162.55 96.55 168.65 L95.7 170.6 Q95.5 170.8 94.45 169.75 93.4 168.65 91.2 164.45 89.25 160.7 88.45 158.55 87.75 156.65 88.45 155.3 88.9 154.35 92.45 150.05 L93.5 148.55 95.65 145.0 Q97.3 143.1 100.2 143.15"/><path fill="#0d131a" d="M281.3 45.1 Q282.15 46.5 282.35 49.65 282.6 52.95 281.9 55.55 280.25 61.9 278.35 65.0 275.2 70.15 266.65 77.7 274.95 73.45 278.2 72.2 283.3 70.15 285.25 71.15 287.15 72.1 287.55 75.1 L287.6 79.85 Q287.6 85.8 285.25 89.75 281.35 96.3 269.75 102.7 L271.95 102.05 278.85 99.75 Q281.8 98.85 283.4 99.3 285.15 99.8 285.45 102.8 285.7 105.15 285.05 109.6 284.2 115.25 281.85 119.4 278.1 126.05 270.1 130.3 261.8 134.7 249.2 138.9 L260.2 137.3 267.4 137.5 Q269.85 138.2 269.95 139.75 270.05 140.8 268.75 143.2 265.85 148.55 262.55 151.55 258.6 155.05 252.65 156.7 247.8 158.05 238.3 159.0 248.7 160.05 249.8 162.3 L249.6 163.5 248.9 165.0 Q245.35 169.55 240.55 173.3 234.9 177.7 231.85 177.2 L223.35 175.35 Q229.9 178.6 230.4 180.95 L230.25 181.7 229.65 182.75 Q226.6 185.75 222.6 187.4 218.1 189.25 214.8 188.3 L209.85 186.55 Q214.7 190.2 214.7 191.25 L214.1 192.15 Q212.6 193.15 208.4 194.75 203.4 196.7 201.9 196.2 200.95 195.9 198.4 194.2 200.55 196.95 200.55 198.25 200.35 199.5 199.8 199.75 197.55 200.9 193.9 201.4 L187.55 201.25 Q187.55 203.15 185.65 204.15 L183.75 204.8 Q179.1 206.7 176.75 207.2 172.6 208.05 170.35 206.35 167.9 204.45 166.75 202.1 L166.05 200.05 166.0 198.25 Q166.1 196.95 166.8 199.15 167.45 201.1 168.35 202.35 169.35 203.75 171.25 205.2 173.0 206.6 176.85 205.7 178.95 205.2 183.2 203.5 184.3 203.2 184.9 202.45 186.05 200.95 183.6 198.75 179.7 195.75 178.45 193.35 176.3 189.4 182.15 195.9 L185.0 198.2 187.3 199.6 Q188.8 200.6 192.55 200.0 195.95 199.45 198.6 198.1 L198.75 197.9 Q198.9 196.95 196.1 193.7 193.6 190.85 192.3 189.9 188.2 186.65 188.85 186.25 189.55 185.85 193.15 188.8 199.45 193.9 202.35 194.85 203.2 195.15 206.85 193.55 210.15 192.05 212.3 190.7 211.9 189.85 208.3 187.2 204.8 184.6 202.65 183.55 198.1 181.45 196.9 179.8 195.7 178.25 203.3 182.3 208.2 184.95 215.2 186.95 217.85 187.7 221.4 186.3 224.95 184.85 227.95 181.85 228.35 181.5 228.25 181.0 227.9 179.35 222.4 176.55 217.85 174.15 214.45 173.1 207.3 171.55 205.85 170.35 204.4 169.15 208.9 170.2 L221.0 173.25 232.1 175.8 Q234.35 176.15 239.05 172.35 243.45 168.85 247.25 164.05 247.7 163.45 247.5 163.05 246.75 161.45 238.2 160.45 L226.15 159.95 213.15 159.15 Q209.5 158.25 219.8 158.25 L238.15 157.65 Q246.3 156.95 252.3 155.3 257.5 153.9 261.8 149.15 265.0 145.6 266.25 142.15 267.0 140.0 265.9 139.7 L262.5 139.6 236.8 142.65 228.4 143.2 Q228.7 142.6 236.05 140.8 245.25 138.55 250.8 136.7 259.75 133.65 268.75 128.85 276.1 124.95 279.6 116.8 280.75 114.05 282.5 106.05 283.15 102.9 282.0 102.05 280.95 101.25 278.3 102.1 L267.1 105.4 Q266.5 105.6 255.45 110.15 244.95 114.5 242.95 114.95 L239.4 115.4 Q240.1 114.55 251.6 109.6 268.05 102.5 273.65 98.55 276.3 96.7 281.15 90.9 284.65 86.85 285.0 79.95 285.35 73.45 283.3 73.35 281.9 73.3 271.95 77.6 L260.4 82.7 Q250.35 89.35 246.95 90.25 243.65 91.2 258.7 81.6 272.75 72.7 278.0 60.65 279.95 56.25 280.25 52.3 280.55 48.9 279.65 47.45 278.45 45.35 271.7 47.25 267.9 48.3 260.15 51.5 L250.4 56.15 254.3 52.25 259.6 50.2 272.65 44.75 Q279.7 42.35 281.3 45.1"/><path fill="#0d131a" d="M313.4 13.75 Q313.4 24.15 303.6 37.95 298.3 45.45 287.55 56.7 L298.1 50.05 309.0 42.75 Q314.05 39.65 316.1 41.0 317.15 41.7 317.5 44.8 317.9 48.35 316.9 52.9 315.1 61.35 306.3 72.05 299.3 80.55 289.3 89.0 L298.25 84.8 Q302.85 82.55 309.85 78.05 315.0 75.2 316.8 77.65 318.65 80.25 317.8 85.25 317.4 87.75 315.8 92.5 313.1 100.6 306.4 107.5 299.8 114.25 288.15 121.1 L298.7 119.4 306.35 119.65 Q307.35 120.2 307.5 121.45 307.7 123.1 306.55 126.45 305.5 129.55 301.6 134.7 297.0 140.8 292.5 143.5 289.6 145.25 281.5 148.0 L268.3 152.15 Q276.35 151.85 280.3 151.9 288.4 151.9 290.1 154.4 291.55 156.45 289.9 160.95 288.7 164.05 284.2 168.1 279.0 172.7 272.75 175.3 265.55 178.25 242.05 176.2 245.75 177.85 249.9 180.15 254.6 182.75 256.95 184.6 259.25 186.4 258.6 188.55 258.05 190.4 253.7 193.8 L252.25 195.0 Q250.65 196.55 247.0 197.05 242.9 197.55 238.25 196.35 L239.85 198.35 Q240.7 199.5 240.7 200.25 L240.65 200.9 Q240.3 203.25 236.7 205.05 234.65 206.1 230.75 207.2 227.35 208.25 222.55 206.1 223.6 207.75 223.8 208.85 L223.8 209.1 Q223.8 209.8 223.2 210.55 221.9 212.05 217.8 213.65 214.05 215.15 212.35 215.15 210.95 215.15 207.7 212.55 208.3 214.1 208.3 215.15 L208.3 215.55 Q208.15 216.6 207.15 217.3 205.45 218.6 201.25 219.05 197.6 219.4 195.2 218.95 193.75 218.7 192.15 216.8 L192.2 217.9 Q192.2 219.2 191.8 219.95 190.75 221.85 187.05 222.4 184.95 222.7 182.85 222.35 180.5 222.0 179.55 221.05 177.4 218.95 172.6 206.95 L173.85 207.1 Q174.9 209.8 177.2 214.1 179.65 218.65 180.8 219.8 181.35 220.35 183.05 220.6 184.9 220.9 186.8 220.6 189.5 220.3 190.2 219.1 L190.45 217.95 Q190.45 215.2 188.2 210.5 L186.9 208.2 Q185.85 206.1 186.2 205.45 186.6 204.8 188.3 207.3 189.7 209.35 190.15 210.45 191.45 213.0 192.75 214.8 194.4 217.0 195.55 217.2 197.75 217.6 201.1 217.2 204.75 216.85 206.1 215.85 206.5 215.6 206.5 215.35 206.65 214.15 205.25 211.25 203.9 208.4 202.75 207.25 198.85 203.3 199.0 202.55 199.2 201.85 201.85 204.4 211.25 213.35 212.35 213.35 214.0 213.35 217.85 211.7 221.8 210.0 222.0 209.1 221.9 208.3 219.65 205.55 L216.2 201.55 Q210.55 197.85 211.0 196.9 211.5 195.9 215.75 199.45 220.3 203.25 223.35 204.65 227.1 206.45 230.25 205.5 233.7 204.5 235.7 203.15 237.8 201.75 238.0 200.3 238.35 198.05 233.4 194.7 228.4 192.25 225.75 188.7 224.8 187.4 225.65 187.65 226.6 187.95 229.35 190.2 235.15 195.0 242.85 195.35 249.1 195.6 250.95 193.75 L252.6 192.35 255.05 190.25 Q256.3 188.9 256.3 187.8 256.3 186.55 254.55 185.1 251.2 182.45 243.3 178.8 L236.05 175.6 236.65 174.75 Q237.4 173.95 237.95 174.0 L254.5 175.15 Q267.5 175.5 272.05 173.6 277.8 171.25 282.25 166.8 285.85 163.2 287.05 160.1 288.15 157.25 287.1 155.8 285.6 153.7 280.3 153.7 276.15 153.65 266.3 153.9 L257.15 154.15 261.0 152.5 273.45 148.6 Q286.55 144.25 290.65 141.75 294.9 139.2 299.45 132.55 302.65 127.95 304.0 124.8 304.7 123.15 304.2 122.55 303.6 121.85 301.0 121.85 L292.65 122.35 Q286.4 123.0 282.35 124.35 L271.85 128.85 Q264.45 131.05 272.05 127.15 275.95 125.1 282.3 122.1 293.2 116.2 300.8 109.4 310.8 100.55 314.0 91.0 315.5 86.45 315.4 83.45 315.3 81.25 314.45 80.5 313.25 79.45 308.9 81.45 L299.0 86.4 Q282.25 94.6 275.6 97.25 L283.0 91.75 Q292.5 84.75 301.55 74.4 313.25 61.05 314.85 51.35 315.6 46.45 314.1 45.45 312.55 44.4 307.65 46.85 L297.8 52.65 Q286.25 59.8 277.15 65.05 L277.55 62.8 284.8 57.0 Q296.5 44.75 302.45 35.6 313.7 18.4 309.6 7.3 308.35 3.8 305.9 3.25 302.2 2.45 295.0 8.3 290.85 11.75 282.9 19.95 L278.0 24.9 Q270.3 32.4 260.85 39.0 255.45 42.75 244.85 49.1 233.45 55.9 229.2 59.5 222.35 65.3 220.45 72.1 L217.6 83.15 Q213.55 99.65 210.4 107.45 205.15 120.5 196.6 128.55 L188.45 136.0 Q173.95 149.15 169.4 156.3 164.0 164.85 163.8 177.15 163.7 179.95 163.3 180.1 162.8 180.25 162.75 177.05 162.5 165.35 166.35 158.15 171.05 149.35 187.25 134.65 L195.35 127.25 Q203.65 119.45 208.5 107.0 211.1 100.3 215.25 83.5 217.7 73.0 218.7 69.45 220.7 62.45 228.8 56.45 230.5 55.2 245.9 46.0 255.1 40.5 260.35 36.7 268.15 31.05 275.9 23.45 L284.1 14.6 Q291.55 6.9 295.4 4.0 300.85 0.0 305.5 0.0 313.4 0.0 313.4 13.75"/><path fill="#0d131a" d="M309.15 3.65 L308.85 5.05 Q306.65 4.55 302.15 7.75 296.2 11.95 288.75 21.2 280.85 31.0 265.55 44.35 251.3 56.85 240.0 64.4 233.3 68.85 230.1 74.3 228.1 77.7 225.7 85.65 223.6 92.6 221.8 96.85 L218.35 105.4 Q213.95 116.6 211.45 121.4 207.3 129.35 202.0 134.3 194.35 141.45 191.3 145.85 187.75 150.9 186.7 157.0 L186.55 158.2 Q185.2 166.25 183.7 170.3 181.25 176.95 175.75 183.4 L170.55 189.9 Q166.8 194.8 165.05 196.05 162.4 197.95 158.65 197.1 157.5 196.85 155.35 195.9 L150.85 193.65 Q136.5 186.35 127.05 184.65 116.55 182.75 107.95 186.85 L108.1 185.2 Q118.05 180.45 131.55 184.05 139.05 186.05 151.5 192.35 157.25 195.3 158.95 195.7 162.15 196.4 164.35 194.8 165.85 193.7 169.4 189.05 L174.65 182.5 Q179.85 176.4 182.05 169.1 182.8 166.5 184.45 156.65 L184.65 155.45 Q185.7 149.2 188.4 145.6 190.1 143.3 198.45 135.5 203.8 130.45 208.9 121.75 213.35 114.2 217.05 104.85 L220.5 96.3 Q221.5 93.85 222.55 89.85 L224.05 84.05 Q226.65 75.4 227.7 73.45 230.35 68.6 237.2 64.0 248.9 56.2 263.6 43.7 279.95 29.8 287.65 20.3 295.15 11.0 301.2 6.65 306.35 3.0 309.15 3.65"/><path fill="#0d131a" d="M251.6 54.35 Q249.9 54.3 248.05 53.55 246.95 54.25 245.05 54.75 L241.35 55.3 Q240.8 55.3 240.7 55.0 240.55 54.7 241.0 54.35 242.85 53.0 243.8 51.65 242.35 51.35 240.7 50.4 L242.05 49.45 245.05 50.7 245.55 51.05 245.5 51.55 Q245.0 52.55 243.2 53.95 L245.85 53.2 247.55 52.15 248.1 52.05 Q250.7 53.2 253.5 53.1 L251.6 54.35"/></g></svg>