<?xml version='1.0' encoding='utf-8'?>
<svg xmlns="http://www.w3.org/2000/svg" version="1.1" width="110px" height="200px" viewBox="-0.3 -0.1 109.6 199.85"><g><path fill="#ffffff" d="M92.1 19.8 Q103.0 16.5 105.65 17.15 103.8 33.2 95.0 49.85 86.15 66.6 77.4 70.25 74.65 75.3 74.15 85.65 73.6 96.7 76.65 101.35 84.6 113.55 84.7 126.95 84.8 145.6 66.8 155.1 59.7 158.85 50.85 160.25 41.65 161.7 34.1 160.0 32.55 161.75 32.55 168.65 35.9 170.3 35.45 176.65 34.95 183.85 28.95 189.75 23.9 194.6 17.85 197.0 11.1 199.75 8.7 196.7 7.55 195.3 8.1 191.65 8.65 187.9 10.75 183.65 16.05 172.9 25.95 168.5 26.7 162.9 26.35 159.8 26.25 158.6 25.2 157.15 L24.2 156.0 Q18.9 152.55 15.4 146.15 11.75 139.35 11.3 131.35 19.6 116.4 19.6 115.8 19.6 115.55 18.3 115.5 L15.7 115.45 Q20.35 109.9 31.25 105.15 28.75 100.3 27.5 96.05 25.3 88.3 27.6 83.9 33.2 83.6 39.8 89.1 45.5 93.8 47.55 98.45 L52.45 96.35 Q53.95 95.5 56.9 87.6 60.35 78.35 59.5 72.1 48.0 70.35 42.25 61.75 38.3 55.85 39.0 46.0 39.65 36.3 44.25 29.3 44.55 24.65 49.5 14.75 54.3 5.25 56.2 4.45 56.95 4.2 57.7 8.05 58.35 11.0 58.6 14.05 64.5 8.3 70.65 4.25 77.0 0.0 78.8 0.85 79.45 1.15 79.15 24.75 81.75 22.95 92.1 19.8"/><path fill="#ffffff" d="M59.5 72.1 Q60.4 75.35 57.8 84.35 55.3 92.95 53.1 95.75 51.2 90.7 52.35 82.7 53.35 75.8 55.7 71.25 L59.5 72.1"/><path fill="#ffffff" d="M4.65 49.05 Q-0.1 41.75 1.5 40.55 3.75 38.9 10.8 43.2 20.15 48.95 29.65 62.35 35.1 70.0 39.3 79.2 43.1 87.5 44.8 94.5 40.35 88.85 34.95 85.6 29.7 82.5 27.6 83.9 26.35 84.65 26.6 88.85 26.8 93.25 28.45 98.4 18.15 93.05 10.8 77.6 3.45 62.25 4.65 49.05"/><path fill="#ffffff" d="M84.1 17.8 Q86.9 19.8 87.7 21.15 81.45 23.2 79.15 24.75 L79.35 15.5 Q81.1 15.65 84.1 17.8"/><path fill="#0075c1" d="M15.7 115.45 L18.3 115.5 Q19.6 115.55 19.6 115.8 19.6 116.4 11.3 131.35 L11.25 128.8 Q11.3 124.8 12.2 121.8 13.3 118.35 15.7 115.45"/><path fill="#ffffff" d="M55.0 163.5 Q55.25 166.35 55.65 167.65 60.85 169.4 67.0 174.05 74.9 180.0 77.1 186.15 79.3 192.25 73.5 192.95 68.15 193.6 59.15 189.5 50.55 185.55 46.85 179.15 43.1 172.6 48.3 169.75 48.3 167.4 47.8 165.2 47.15 162.25 45.85 160.9 50.2 160.7 54.8 159.6 54.75 161.05 55.0 163.5"/><path fill="#922f00" d="M52.65 64.9 Q55.55 65.75 59.75 65.6 58.05 67.5 57.7 69.25 54.85 67.25 52.65 64.9"/><path fill="#ffffff" d="M96.2 95.75 Q101.2 95.1 104.7 95.65 108.35 96.25 108.65 97.85 108.75 98.5 107.2 100.95 105.35 103.9 102.55 106.65 94.3 114.75 83.15 115.85 81.4 109.3 77.95 103.45 83.9 97.35 96.2 95.75"/><path fill="#ed8599" d="M59.75 65.6 Q64.6 65.45 68.15 64.3 68.6 66.2 67.85 68.4 66.9 71.15 64.65 71.7 62.2 72.35 57.7 69.25 58.05 67.5 59.75 65.6"/><path fill="#0075c1" d="M41.4 123.7 Q42.85 123.9 47.4 131.4 52.2 139.35 51.65 142.9 51.15 146.0 41.9 146.25 32.85 146.5 31.4 144.45 30.05 142.5 34.35 133.15 38.7 123.7 41.4 123.7"/><path fill="#ffffff" d="M41.0 129.65 Q41.4 129.65 43.85 134.8 46.3 140.05 46.1 140.85 L41.15 141.25 Q36.4 141.0 36.15 140.5 35.8 139.75 37.95 134.75 40.1 129.65 41.0 129.65"/><path fill="#e50044" d="M64.85 116.65 Q65.85 115.65 73.4 120.0 80.95 124.35 81.9 126.5 83.5 130.3 78.55 138.15 73.7 145.85 70.6 145.6 67.25 145.4 64.9 132.05 62.5 118.85 64.85 116.65"/><path fill="#ffffff" d="M68.15 121.55 Q68.6 121.1 72.75 124.55 77.1 128.1 77.6 130.15 77.85 131.2 75.3 135.0 72.7 138.8 71.65 138.8 70.9 138.8 69.3 130.4 67.7 122.05 68.15 121.55"/><path fill="#dbdcdc" d="M84.75 56.35 Q91.15 50.75 99.35 40.5 94.9 51.4 89.05 59.5 82.95 67.9 77.4 70.25 75.5 73.8 74.6 89.15 73.0 82.8 68.4 79.65 63.95 76.65 59.4 78.25 59.85 74.95 59.5 72.1 52.45 71.0 47.45 67.3 L55.9 68.1 Q61.25 72.4 64.3 71.9 67.4 71.4 68.6 66.1 76.75 63.35 84.75 56.35"/><path fill="#dbdcdc" d="M59.5 72.1 Q60.4 75.35 57.8 84.35 55.3 92.95 53.1 95.75 51.2 90.7 52.35 82.7 53.35 75.8 55.7 71.25 L59.5 72.1"/><path fill="#dbdcdc" d="M10.45 76.85 Q17.15 84.5 26.55 88.5 26.7 93.05 28.45 98.4 23.25 95.7 18.45 89.8 13.85 84.25 10.45 76.85"/><path fill="#dbdcdc" d="M45.85 160.9 Q50.2 160.7 54.8 159.6 54.75 161.05 55.0 163.5 55.25 166.35 55.65 167.65 58.0 168.45 63.4 172.05 68.95 175.75 72.6 179.0 65.3 174.35 59.5 172.3 51.85 169.5 48.05 171.7 48.05 168.75 47.7 166.15 47.1 162.25 45.85 160.9"/><path fill="#dbdcdc" d="M107.8 99.9 Q105.05 104.9 99.85 109.0 92.45 114.95 83.15 115.85 81.9 111.1 79.7 106.7 92.85 107.8 107.8 99.9"/><path fill="#c6003a" d="M70.6 145.6 Q69.2 145.55 67.8 142.45 74.8 139.8 80.05 135.45 78.0 139.45 75.2 142.55 72.3 145.7 70.6 145.6"/><path fill="#dbdcdc" d="M41.1 146.2 Q56.35 146.8 67.8 142.45 69.2 145.55 70.6 145.6 72.3 145.7 75.2 142.55 78.0 139.45 80.05 135.45 L79.7 135.7 84.45 131.25 Q82.5 146.8 66.8 155.1 59.7 158.85 50.85 160.25 41.65 161.7 34.1 160.0 32.55 161.75 32.55 168.65 35.85 170.3 35.45 176.55 35.0 183.65 29.2 189.45 33.9 179.8 31.0 174.3 28.6 169.8 22.95 170.05 L25.95 168.5 Q26.7 162.9 26.35 159.8 26.25 158.6 25.2 157.15 L24.2 156.0 Q20.75 153.75 18.0 150.1 15.15 146.4 13.45 141.7 27.95 145.7 41.1 146.2"/><path fill="#0d131a" d="M69.7 43.45 Q70.9 43.65 71.55 45.5 72.25 47.65 71.75 50.95 71.2 54.15 69.9 55.95 68.65 57.65 67.3 57.4 65.85 57.15 65.2 55.1 64.45 52.9 65.0 49.75 65.6 46.5 67.05 44.75 68.35 43.25 69.7 43.45"/><path fill="#ffffff" d="M69.4 44.65 Q69.95 44.75 70.2 45.65 70.45 46.55 70.25 47.7 70.05 48.95 69.5 49.9 68.9 50.8 68.3 50.75 67.65 50.7 67.4 49.65 67.15 48.65 67.4 47.3 67.65 46.05 68.25 45.25 68.85 44.5 69.4 44.65"/><path fill="#0d131a" d="M43.35 40.35 Q44.35 40.5 44.9 42.15 45.45 44.0 45.2 47.05 44.95 49.8 44.1 51.7 43.2 53.65 42.2 53.5 41.1 53.4 40.5 51.7 39.8 49.85 40.05 46.95 40.35 43.6 41.35 41.8 42.25 40.25 43.35 40.35"/><path fill="#ffffff" d="M43.25 41.3 Q43.65 41.4 43.9 42.15 44.15 42.9 44.05 43.95 L43.55 45.9 Q43.15 46.75 42.7 46.85 42.2 46.95 41.9 46.1 41.65 45.25 41.8 43.95 41.95 42.8 42.4 42.05 42.8 41.25 43.25 41.3"/><path fill="#0d131a" d="M44.35 28.45 Q45.85 26.5 46.75 26.2 47.65 25.85 46.0 27.85 40.7 34.4 39.65 44.75 38.6 55.2 42.75 61.45 46.6 67.25 53.8 70.0 61.05 72.8 69.35 71.7 71.6 71.45 70.95 72.0 70.3 72.6 67.9 72.8 59.5 73.65 52.55 71.0 45.55 68.3 41.5 62.5 37.15 56.25 38.1 45.7 39.05 35.3 44.35 28.45"/><path fill="#0d131a" d="M103.8 16.4 Q105.5 16.2 105.9 16.7 106.25 17.05 106.05 18.45 103.85 35.1 95.5 50.9 87.0 67.0 78.2 70.5 76.1 71.3 75.35 71.0 74.55 70.7 76.65 69.95 85.1 66.9 94.05 50.3 103.0 33.75 105.0 17.65 101.95 17.6 92.9 20.25 83.45 23.0 80.2 25.05 78.55 26.1 78.55 24.45 79.05 3.55 78.45 1.35 75.9 0.65 66.45 7.9 56.25 15.65 51.8 23.0 50.4 24.95 49.75 25.1 49.15 25.3 50.1 23.45 53.7 16.55 61.75 9.7 68.9 3.55 75.25 0.9 77.7 -0.1 78.45 0.05 79.55 0.25 79.8 2.8 L80.05 12.35 80.05 23.6 Q83.2 21.5 91.55 19.1 99.15 16.9 103.8 16.4"/><path fill="#0d131a" d="M84.5 17.25 Q87.6 19.35 88.35 20.75 L87.9 21.35 Q87.35 21.75 87.25 21.55 86.6 20.35 83.75 18.3 80.75 16.1 79.2 16.05 79.0 16.05 79.0 15.5 79.05 14.9 79.25 14.9 81.2 14.95 84.5 17.25"/><path fill="#0d131a" d="M57.2 8.85 Q56.7 5.8 56.25 5.15 54.3 6.55 49.8 15.35 44.95 24.75 44.9 29.0 L44.1 29.7 Q43.35 30.2 43.4 29.95 44.2 23.15 48.45 14.75 52.1 7.55 55.15 4.55 56.1 3.65 56.5 3.7 56.85 3.7 57.35 4.75 58.5 7.15 59.3 13.15 L58.55 13.9 57.8 14.0 Q57.7 11.65 57.2 8.85"/><path fill="#0d131a" d="M58.05 71.8 Q57.9 71.55 58.95 71.65 L60.05 71.95 Q61.05 75.6 58.0 85.65 55.0 95.55 52.75 96.85 L47.7 99.05 Q47.45 99.15 47.3 98.45 47.1 97.75 47.3 97.65 L52.15 95.85 Q53.95 94.8 56.7 84.8 59.55 74.5 58.05 71.8"/><path fill="#0d131a" d="M91.75 95.4 Q99.95 93.55 106.2 95.35 108.9 96.1 109.2 97.75 109.3 98.35 108.4 100.2 L106.1 103.85 Q102.35 108.75 98.85 111.2 92.6 115.65 83.45 116.45 L82.95 115.9 Q82.6 115.35 82.8 115.3 93.45 114.35 101.6 106.75 104.45 104.1 106.4 101.2 108.0 98.8 108.05 97.9 107.8 97.0 105.9 96.45 100.9 95.0 92.45 96.9 82.95 99.05 78.4 104.0 78.25 104.2 77.95 103.6 77.6 103.05 77.75 102.9 82.75 97.45 91.75 95.4"/><path fill="#0d131a" d="M27.3 83.4 Q29.25 82.05 33.65 84.25 40.1 87.5 44.85 92.95 50.7 99.75 51.8 107.95 52.1 110.2 51.65 111.8 51.2 113.4 51.1 111.15 50.75 103.1 44.55 95.1 39.25 88.35 33.1 85.3 29.35 83.4 27.9 84.4 27.45 84.7 27.25 86.25 27.0 88.2 27.35 91.15 28.35 98.7 32.05 105.45 36.9 114.4 44.35 116.55 46.6 117.2 45.1 117.2 43.7 117.2 41.6 116.4 34.4 113.6 30.05 105.25 26.75 99.0 25.8 91.7 25.55 89.6 25.8 87.2 26.15 84.1 27.3 83.4"/><path fill="#0d131a" d="M55.25 71.0 L55.85 71.1 Q56.35 71.35 56.25 71.55 54.0 75.8 53.0 82.9 51.9 90.8 53.7 95.5 53.8 95.75 53.1 96.0 L52.3 96.05 Q50.3 90.7 51.5 82.85 52.55 76.1 55.25 71.0"/><path fill="#0d131a" d="M4.15 49.1 Q4.15 48.9 4.75 48.95 5.3 49.0 5.3 49.2 4.0 62.0 11.1 77.05 18.2 92.05 28.1 97.6 28.35 97.7 28.3 98.6 28.3 99.45 28.05 99.35 17.3 93.9 9.95 78.3 2.7 62.9 4.15 49.1"/><path fill="#0d131a" d="M0.0 41.1 Q0.1 40.1 0.95 39.8 L4.0 39.75 Q8.9 40.55 15.45 45.65 23.3 51.75 30.65 62.1 36.55 70.45 41.05 80.65 44.8 89.15 46.3 95.9 44.05 93.75 43.8 92.85 41.95 86.25 38.55 78.9 34.5 70.1 29.2 62.65 20.6 50.55 12.15 44.8 7.3 41.45 3.8 40.9 L2.1 40.95 Q1.6 41.2 1.8 42.05 2.7 47.05 15.4 62.15 L21.7 69.65 Q25.25 74.15 26.75 77.1 27.65 78.95 27.65 80.65 27.65 81.95 27.15 82.85 26.5 84.05 24.25 84.25 L21.35 83.8 Q20.15 83.25 18.95 82.0 17.8 80.8 17.7 79.85 17.6 78.85 18.75 80.2 21.35 83.2 24.2 83.1 25.2 83.05 25.8 82.1 26.65 80.55 25.3 77.8 22.7 72.6 14.5 62.9 6.25 53.1 3.3 48.8 -0.3 43.55 0.0 41.1"/><path fill="#0d131a" d="M31.65 105.6 Q20.1 110.7 15.65 116.45 11.9 121.25 11.8 128.8 11.65 140.35 17.7 148.8 19.65 151.5 22.15 153.7 L24.7 155.8 Q26.75 157.65 26.95 159.75 L26.95 163.55 26.5 168.2 Q25.95 170.55 25.25 171.05 24.55 171.5 24.8 169.2 25.4 168.1 25.7 164.7 26.0 161.6 25.8 159.85 25.6 157.6 23.0 155.95 18.65 153.3 15.1 147.7 9.95 139.55 10.1 129.2 10.2 121.1 13.7 116.15 18.25 109.75 30.65 104.3 30.85 104.2 31.35 104.85 31.85 105.5 31.65 105.6"/><path fill="#0d131a" d="M73.55 86.2 Q74.0 76.0 76.65 70.5 76.75 70.25 77.85 69.9 L78.8 69.75 Q75.85 74.85 75.05 85.35 74.15 96.5 77.1 101.05 82.5 109.3 84.45 118.2 86.5 127.3 84.45 135.1 82.65 142.0 78.5 147.1 74.3 152.25 67.3 155.95 59.6 160.0 50.95 161.3 L34.55 160.8 Q32.75 162.15 33.15 170.2 33.25 172.05 32.7 171.8 32.2 171.5 32.05 169.6 31.5 162.45 33.1 159.9 33.55 159.3 34.55 159.5 42.1 161.15 50.6 159.85 59.05 158.55 66.5 154.6 72.85 151.25 77.05 146.1 81.2 141.0 82.9 134.45 84.9 126.8 83.15 118.2 81.35 109.65 76.15 101.65 73.15 97.05 73.55 86.2"/><path fill="#0d131a" d="M25.7 167.45 Q25.9 167.4 25.9 168.3 L25.7 169.3 Q19.35 172.2 14.65 178.35 10.55 183.75 9.05 189.7 8.45 192.0 8.5 193.8 8.5 195.55 9.15 196.35 10.05 197.55 12.0 197.7 15.3 197.9 20.35 195.25 24.95 192.8 28.5 189.3 32.4 185.55 34.0 180.9 35.3 177.05 34.75 173.55 34.2 170.4 32.6 169.35 L32.6 168.55 Q32.75 167.8 32.9 167.9 34.05 168.45 34.9 169.85 35.75 171.25 36.05 173.15 36.7 176.85 35.2 181.35 33.5 186.65 29.4 190.65 25.65 194.25 20.9 196.8 15.65 199.55 12.0 199.35 9.6 199.2 8.3 197.6 7.45 196.55 7.35 194.3 7.25 192.0 7.9 189.4 9.45 183.15 13.6 177.45 18.6 170.55 25.7 167.45"/><path fill="#0d131a" d="M14.35 187.85 Q15.75 186.15 16.6 186.1 17.5 186.05 16.0 187.85 10.1 195.2 11.5 197.9 L10.7 197.95 9.75 197.5 Q9.45 195.3 11.05 192.45 12.0 190.8 14.35 187.85"/><path fill="#0d131a" d="M44.65 161.15 Q44.45 161.0 45.4 160.8 46.35 160.6 46.55 160.8 48.15 162.75 48.7 166.1 49.1 168.55 48.85 170.1 48.65 171.5 48.05 171.95 47.45 172.4 47.65 171.0 47.95 169.45 47.25 166.3 46.4 162.45 44.65 161.15"/><path fill="#0d131a" d="M54.2 159.75 L55.0 159.25 55.75 159.2 Q55.5 160.25 55.6 162.7 55.7 165.3 56.1 166.95 62.55 169.5 67.85 173.6 75.25 179.2 77.65 185.95 79.15 190.15 76.95 192.15 74.85 194.1 69.75 193.6 64.5 193.1 58.3 190.25 52.5 187.55 48.65 182.95 44.9 178.5 44.8 174.55 44.75 172.75 45.65 171.25 46.6 169.7 48.25 168.85 48.45 168.75 48.45 169.55 L48.35 170.4 Q45.95 171.85 46.0 174.5 46.05 178.1 49.9 182.25 53.7 186.35 59.4 188.95 65.2 191.6 69.8 192.25 74.45 192.9 76.15 191.3 77.8 189.9 76.55 186.35 74.45 180.55 67.05 174.9 61.7 170.8 56.1 168.4 L55.2 167.75 Q54.95 167.4 54.85 166.7 54.2 163.6 54.2 159.75"/><path fill="#0d131a" d="M68.25 183.6 Q66.8 182.95 67.45 182.7 68.1 182.5 69.55 183.15 72.1 184.25 74.6 186.35 77.25 188.55 77.7 190.2 77.85 190.8 76.5 191.5 76.25 189.95 73.4 187.3 70.65 184.7 68.25 183.6"/><path fill="#0d131a" d="M43.2 31.45 Q43.05 31.4 43.15 30.95 43.2 30.5 43.35 30.55 44.65 30.65 45.5 31.6 46.3 32.6 46.35 34.1 46.4 34.85 46.1 35.15 45.85 35.4 45.8 34.65 45.75 33.4 45.0 32.45 44.2 31.5 43.2 31.45"/><path fill="#0d131a" d="M66.75 36.55 Q67.75 34.1 70.65 33.0 73.6 31.9 75.65 33.3 76.2 33.7 76.2 34.05 L75.55 34.0 Q73.35 32.85 70.5 34.05 67.8 35.2 67.1 37.1 66.85 37.9 66.5 37.9 66.2 37.9 66.75 36.55"/><path fill="#0d131a" d="M67.2 69.0 Q67.9 67.45 67.9 65.55 L67.8 64.8 Q64.6 65.75 60.65 65.95 L53.75 65.55 Q56.1 67.85 58.65 69.5 62.4 71.9 64.55 71.35 66.3 70.9 67.2 69.0 M68.0 63.95 Q68.95 63.7 69.05 64.35 69.35 66.4 68.4 68.75 67.25 71.6 64.9 72.25 61.85 73.0 57.15 69.6 54.55 67.65 52.4 65.25 L50.25 64.15 Q49.8 63.75 50.1 63.35 L51.15 63.4 Q52.95 64.75 58.0 65.0 63.45 65.3 68.0 63.95"/><path fill="#0d131a" d="M59.6 65.45 Q60.45 65.75 60.3 65.9 59.5 66.5 58.85 67.7 58.15 68.9 58.25 69.55 L57.8 69.3 57.3 68.75 Q57.6 67.15 59.6 65.45"/><path fill="#0d131a" d="M15.2 115.35 Q15.2 114.8 15.75 114.8 L19.15 114.95 Q20.2 115.15 20.2 115.8 20.2 116.35 16.05 124.05 L11.85 131.8 Q11.55 132.35 11.1 132.0 10.8 131.85 10.8 131.5 L10.85 131.25 18.9 116.1 15.75 115.95 Q15.2 115.95 15.2 115.35"/><path fill="#0d131a" d="M46.7 131.45 Q42.8 125.1 41.35 124.3 40.55 124.4 39.2 126.05 37.65 127.95 35.95 131.2 34.05 134.85 32.85 138.45 31.7 141.75 31.7 143.35 31.7 143.9 31.85 144.1 32.6 145.15 37.8 145.55 L47.35 145.05 Q50.85 144.25 51.1 142.8 L51.15 142.15 Q51.15 138.6 46.7 131.45 M41.4 123.15 L41.5 123.15 Q42.35 123.15 44.7 126.35 47.75 130.4 49.95 134.85 52.65 140.3 52.2 143.0 51.9 145.2 47.6 146.2 L37.85 146.75 Q32.0 146.3 30.9 144.75 30.0 143.5 31.5 138.8 32.75 134.8 34.9 130.7 38.85 123.15 41.4 123.15"/><path fill="#0d131a" d="M41.05 140.65 L45.5 140.55 Q45.3 139.4 43.5 135.45 L40.9 130.35 Q40.0 131.3 38.35 135.2 36.8 138.95 36.7 140.15 L41.05 140.65 M41.0 129.05 Q41.4 129.05 41.65 129.45 42.55 130.6 44.6 135.1 46.9 140.0 46.65 141.0 46.45 141.65 45.2 141.75 43.4 141.95 40.1 141.75 36.0 141.55 35.6 140.75 35.25 139.95 36.8 136.0 38.15 132.5 39.35 130.55 40.3 129.05 41.0 129.05"/><path fill="#0d131a" d="M65.2 117.1 Q64.4 118.0 64.4 121.8 64.4 125.75 65.25 130.8 66.1 136.2 67.55 140.25 69.1 144.8 70.6 145.05 71.6 145.1 73.4 143.55 75.15 141.95 76.95 139.45 79.4 136.0 80.7 132.6 82.2 128.7 81.35 126.7 80.55 124.8 73.5 120.7 66.55 116.75 65.2 117.1 M64.45 116.2 Q64.9 115.75 66.05 116.0 68.95 116.6 75.1 120.35 81.55 124.25 82.4 126.25 83.4 128.55 81.9 132.7 80.6 136.35 77.9 140.1 L74.85 143.75 Q72.25 146.3 70.55 146.2 68.35 146.05 66.45 140.65 64.35 134.75 63.5 126.6 62.65 117.85 64.45 116.2"/><path fill="#0d131a" d="M74.9 134.5 Q77.0 131.35 77.0 130.35 L77.0 130.3 Q76.65 128.75 73.35 125.8 70.55 123.3 68.65 122.3 68.8 124.55 69.95 130.55 71.15 136.85 71.8 138.1 72.8 137.65 74.9 134.5 M67.75 121.15 Q68.0 120.9 68.55 121.0 70.05 121.45 73.65 124.55 77.65 128.0 78.15 130.05 78.35 130.9 76.95 133.35 L74.5 137.05 Q72.65 139.35 71.65 139.35 71.05 139.35 70.65 138.3 69.8 136.25 68.45 129.3 67.05 121.85 67.75 121.15"/></g></svg>