<?xml version='1.0' encoding='utf-8'?>
<svg xmlns="http://www.w3.org/2000/svg" version="1.1" width="152px" height="168px" viewBox="-0.2 -0.8 151.85 167.65"><g><path fill="#0d131a" d="M130.65 143.3 Q131.95 146.3 130.7 151.6 129.5 156.75 127.45 157.75 126.95 157.95 120.5 154.55 L112.85 150.45 Q109.45 148.8 111.25 143.95 112.95 139.3 116.55 137.8 119.95 136.4 124.1 137.65 128.85 139.1 130.65 143.3"/><path fill="#007a28" d="M128.4 143.6 Q129.5 146.55 128.85 151.0 128.3 155.2 127.2 155.7 126.65 156.0 120.75 152.75 114.9 149.6 113.8 148.55 112.9 147.7 114.8 144.3 116.75 140.8 119.1 139.85 L124.15 140.0 Q127.45 141.05 128.4 143.6"/><path fill="#0d131a" d="M126.15 117.05 L129.9 129.0 Q134.8 143.3 144.3 148.6 145.6 149.35 145.6 150.45 145.6 151.55 144.15 152.25 136.65 155.95 124.75 154.0 113.45 152.2 103.8 146.3 98.95 143.35 95.9 138.65 93.1 134.35 91.0 127.35 88.85 120.1 89.85 111.35 90.9 102.4 94.5 99.25 99.25 95.05 107.55 96.4 116.65 97.95 121.4 105.85 123.9 110.05 126.15 117.05"/><path fill="#fcd13e" d="M125.45 118.6 L128.9 130.15 Q133.15 143.7 141.75 148.95 143.6 150.05 143.75 150.45 143.85 150.8 142.85 151.15 136.0 153.7 125.75 152.35 115.05 150.95 105.9 145.85 100.6 142.9 98.0 139.6 95.55 136.4 92.95 129.45 90.05 121.55 90.65 112.55 91.15 104.5 93.7 101.5 98.05 96.5 106.4 97.6 115.5 98.8 120.5 107.15 123.25 111.75 125.45 118.6"/><path fill="#0d131a" d="M35.7 144.75 Q34.9 146.35 27.65 149.5 20.7 152.55 19.3 152.35 18.6 152.25 17.75 150.2 16.8 147.95 16.45 145.25 15.55 137.9 19.85 134.8 22.0 133.3 24.95 133.1 28.0 132.9 31.0 134.2 34.1 135.55 35.55 138.85 37.0 142.15 35.7 144.75"/><path fill="#007a28" d="M33.55 143.6 Q32.85 145.25 27.1 147.9 21.6 150.45 20.25 150.25 18.7 150.05 18.15 145.7 17.55 141.0 19.65 137.75 21.05 135.55 23.55 134.95 26.15 134.3 29.2 135.6 32.05 136.85 33.25 139.45 34.35 141.75 33.55 143.6"/><path fill="#0d131a" d="M57.95 87.8 Q62.35 92.6 62.5 101.2 62.6 109.1 59.3 116.75 56.3 123.5 51.55 128.7 46.7 134.0 40.6 137.05 31.4 141.55 26.1 142.7 19.75 144.1 9.9 143.1 L5.0 142.5 Q1.7 141.8 0.5 140.35 -0.2 139.6 0.1 139.1 0.4 138.45 2.15 137.65 10.9 133.55 16.55 117.3 19.45 108.45 21.1 104.15 24.0 96.8 27.5 92.6 34.1 84.6 43.85 83.5 53.05 82.4 57.95 87.8"/><path fill="#fcd13e" d="M57.4 89.3 Q60.15 91.95 60.2 100.4 60.3 108.8 57.7 114.65 54.6 121.6 49.45 127.55 43.95 133.85 38.05 136.75 28.75 141.35 18.5 141.75 12.2 142.0 5.05 140.6 3.3 140.25 3.4 139.6 3.4 139.15 4.25 138.7 12.65 134.25 18.25 118.25 21.1 109.45 22.75 105.2 25.6 97.85 28.95 93.55 34.75 86.1 43.95 85.25 52.4 84.45 57.4 89.3"/><path fill="#0d131a" d="M98.35 96.6 Q100.1 101.9 100.65 106.05 102.25 118.35 94.4 125.65 85.85 133.6 71.95 131.3 58.1 128.95 52.4 118.8 47.3 109.7 51.95 96.8 58.35 83.2 59.4 77.4 55.25 71.05 54.55 64.25 53.85 57.1 57.2 51.45 63.4 41.05 74.1 36.05 87.45 29.8 100.8 36.7 112.55 42.75 115.25 56.2 117.7 68.2 112.3 77.7 109.65 82.45 104.0 85.95 99.35 88.85 95.9 89.25 L98.35 96.6"/><path fill="#b4ce8e" d="M110.9 76.2 Q108.3 80.85 103.15 84.35 98.4 87.6 93.65 88.45 98.15 99.7 98.75 104.4 100.25 116.05 91.85 122.9 83.9 129.4 72.35 127.85 60.2 126.15 55.15 116.25 51.0 108.1 54.75 96.15 60.1 83.15 61.4 77.4 57.2 71.2 56.6 64.15 56.05 57.35 59.0 52.5 65.8 41.3 76.15 36.95 87.85 32.0 99.55 38.45 111.7 45.15 113.9 57.65 115.65 67.8 110.9 76.2"/><path fill="#97ae79" d="M104.8 76.85 L103.1 73.5 Q102.35 71.75 102.55 71.15 L106.2 74.6 109.85 77.85 Q107.35 81.4 103.4 84.15 99.7 86.75 95.8 87.95 100.05 85.3 102.75 82.35 105.95 78.75 104.8 76.85"/><path fill="#0d131a" d="M90.05 66.95 Q91.05 64.95 93.2 64.2 L97.4 64.4 Q99.45 65.4 100.2 67.55 100.95 69.7 99.95 71.75 98.95 73.8 96.85 74.55 L92.65 74.3 Q90.6 73.35 89.85 71.15 89.05 69.0 90.05 66.95"/><path fill="#ffffff" d="M93.45 66.35 Q93.85 65.45 94.85 65.1 L96.7 65.2 Q97.65 65.65 97.95 66.6 98.3 67.55 97.85 68.5 97.45 69.4 96.45 69.75 L94.6 69.65 Q93.65 69.2 93.35 68.25 93.0 67.3 93.45 66.35"/><path fill="#0d131a" d="M65.9 55.2 Q66.9 53.2 69.0 52.45 L73.15 52.65 Q75.2 53.65 75.95 55.75 76.75 57.9 75.75 59.95 74.8 62.0 72.65 62.75 L68.45 62.5 Q66.4 61.55 65.7 59.4 64.95 57.25 65.9 55.2"/><path fill="#0d131a" d="M97.55 146.45 Q101.3 151.15 99.95 154.85 99.05 157.35 94.8 159.65 90.75 161.85 90.25 160.9 88.9 158.55 85.0 154.75 83.05 152.8 78.7 149.05 76.35 147.0 82.7 143.9 88.8 140.9 90.95 141.4 94.2 142.2 97.55 146.45"/><path fill="#007a28" d="M93.95 145.3 Q98.95 151.15 98.4 153.5 97.8 156.15 94.5 158.2 91.4 160.2 90.85 159.25 88.75 155.4 81.15 148.9 79.95 147.8 83.35 143.9 86.55 140.15 87.8 139.9 89.15 139.6 93.95 145.3"/><path fill="#0d131a" d="M54.45 136.3 Q56.95 137.25 59.7 141.6 62.3 145.8 61.4 146.3 54.2 150.1 50.3 155.1 48.05 157.95 44.45 152.7 41.0 147.65 41.55 145.5 42.4 142.15 46.35 138.75 50.8 134.95 54.45 136.3"/><path fill="#007a28" d="M52.8 138.0 Q55.45 138.7 57.45 142.0 59.35 145.1 58.4 145.65 54.7 147.6 49.15 153.7 48.1 154.85 45.6 151.25 43.4 148.0 43.15 146.55 42.85 145.15 46.55 141.4 50.45 137.45 52.8 138.0"/><path fill="#ffffff" d="M69.95 55.05 Q70.35 54.15 71.3 53.8 L73.2 53.9 Q74.1 54.35 74.45 55.3 74.75 56.25 74.35 57.15 73.9 58.1 72.95 58.4 L71.1 58.3 Q70.15 57.9 69.85 56.9 69.5 55.95 69.95 55.05"/><path fill="#ed8599" d="M81.5 73.25 L79.4 75.25 Q77.65 76.25 76.45 75.7 75.05 75.0 74.75 72.15 L74.8 69.6 Q74.95 67.7 75.2 66.9 L83.35 70.65 Q82.9 71.7 81.5 73.25"/><path fill="#0d131a" d="M46.2 126.7 Q45.85 121.25 51.55 117.15 56.9 113.35 65.05 112.35 73.45 111.35 80.5 114.0 88.45 117.0 91.95 123.8 93.1 126.0 85.8 138.9 76.95 154.5 75.65 158.5 74.45 162.2 71.4 160.6 63.85 156.65 56.8 148.95 46.9 138.15 46.2 126.7"/><path fill="#e73820" d="M100.9 80.75 Q100.45 81.45 99.35 81.45 98.25 81.45 97.0 80.8 L95.0 79.25 Q94.15 78.25 94.65 77.4 95.0 76.7 96.15 76.7 97.35 76.7 98.8 77.5 100.0 78.15 100.65 79.2 101.3 80.2 100.9 80.75"/><path fill="#e73820" d="M65.7 64.1 Q65.35 64.65 64.1 64.65 62.8 64.65 61.6 64.1 60.35 63.5 59.65 62.7 58.8 61.7 59.2 60.95 59.55 60.25 60.75 60.2 61.95 60.15 63.2 60.75 64.9 61.5 65.55 62.55 66.1 63.45 65.7 64.1"/><path fill="#fcd13e" d="M71.35 129.85 L73.6 136.05 Q76.5 142.55 80.0 144.9 75.5 153.4 74.05 157.2 73.45 158.7 72.75 158.75 L70.9 158.0 Q67.45 156.1 63.75 153.05 58.5 148.7 54.9 143.5 58.55 141.8 65.3 135.65 L71.35 129.85"/><path fill="#d9b536" d="M80.0 144.9 Q76.5 142.55 73.6 136.05 L71.35 129.85 65.3 135.65 Q58.55 141.8 54.9 143.5 48.95 134.85 48.35 125.15 48.15 122.1 53.0 119.15 57.75 116.2 64.45 115.15 71.8 113.95 77.85 115.75 84.95 117.85 88.5 123.6 89.55 125.25 86.65 131.8 85.0 135.45 80.0 144.9"/><path fill="#0d131a" d="M76.6 107.8 Q80.3 102.3 87.45 100.1 94.8 97.85 102.3 101.8 109.7 105.7 114.4 114.15 119.4 123.15 119.45 136.65 119.5 150.1 114.55 160.6 113.65 162.55 111.75 164.75 109.95 166.85 109.4 166.75 L107.5 163.9 Q105.4 160.65 103.65 159.25 101.55 157.55 95.2 153.4 89.3 149.5 86.1 146.75 75.6 137.85 73.7 125.5 72.0 114.6 76.6 107.8"/><path fill="#009233" d="M78.0 109.4 Q82.25 102.6 89.5 101.35 95.5 100.35 102.35 104.3 109.3 108.3 112.95 115.0 117.5 123.4 117.45 136.75 117.4 149.9 112.95 159.95 L111.2 162.7 Q109.95 164.3 109.7 163.9 108.7 162.05 107.35 160.4 105.25 157.8 99.85 154.25 L90.15 147.7 Q77.7 138.35 75.2 124.75 73.65 116.3 78.0 109.4"/><path fill="#0d131a" d="M45.35 92.5 Q55.15 87.1 64.35 91.5 70.2 94.3 73.25 100.75 77.05 108.75 73.45 118.2 69.7 128.1 59.7 135.25 54.2 139.15 44.7 144.4 40.85 147.05 37.65 150.95 L34.8 154.3 Q33.65 154.55 32.1 152.95 30.1 151.0 28.65 147.1 24.4 135.8 25.4 124.9 26.25 114.75 31.45 106.25 37.1 97.0 45.35 92.5"/><path fill="#009233" d="M46.55 93.9 Q55.0 89.3 62.6 92.45 68.8 95.0 71.75 102.2 74.95 109.85 71.95 117.75 68.2 127.85 54.6 136.45 L44.35 142.7 Q39.1 146.15 36.9 149.2 L35.4 151.35 34.25 152.55 Q33.7 152.45 32.15 149.9 30.55 147.2 29.8 145.0 26.45 135.3 27.15 125.2 27.9 114.55 33.0 106.85 38.85 98.0 46.55 93.9"/><path fill="#0d131a" d="M40.5 24.6 Q38.15 22.55 39.25 18.8 40.25 15.35 43.75 11.7 52.0 3.05 60.8 3.8 63.1 4.0 63.3 6.7 L63.4 12.8 64.55 21.2 Q64.95 25.05 64.45 25.45 62.0 27.3 54.0 27.75 44.7 28.2 40.5 24.6"/><path fill="#e73820" d="M61.6 8.85 L62.15 16.15 Q62.5 19.6 63.25 22.65 L63.7 24.65 Q63.65 25.25 62.2 25.55 L52.05 26.25 Q43.85 25.95 41.45 22.75 38.85 19.3 44.85 12.65 51.1 5.7 58.7 5.25 60.25 5.2 60.85 5.95 61.4 6.7 61.6 8.85"/><path fill="#0d131a" d="M61.2 35.05 L53.65 44.8 47.6 52.6 44.25 55.85 Q42.85 56.8 41.45 56.7 35.25 56.35 33.95 45.8 33.45 41.45 34.3 37.7 35.2 33.65 37.35 32.15 42.05 28.85 50.55 27.4 59.95 25.85 61.45 29.7 62.25 31.6 61.2 35.05"/><path fill="#e73820" d="M59.85 35.3 Q56.9 38.05 52.5 43.8 L46.8 51.05 43.45 54.35 Q42.1 55.4 41.25 55.2 36.7 54.35 35.65 45.1 34.55 35.8 38.8 33.1 42.5 30.8 49.8 29.0 58.5 26.85 59.9 29.75 60.3 30.65 60.35 32.2 60.35 33.9 59.85 35.3"/><path fill="#0d131a" d="M82.8 19.7 Q80.2 21.5 78.9 22.0 77.05 22.8 75.1 22.5 70.8 21.8 68.4 20.4 65.55 18.75 63.75 15.25 63.1 14.05 64.55 10.65 65.75 7.85 67.75 4.8 69.85 1.9 72.3 1.05 77.65 -0.8 84.2 0.55 90.5 1.9 93.0 5.0 94.35 6.7 94.05 8.1 93.95 8.75 92.85 10.45 91.75 12.05 88.65 14.95 L82.8 19.7"/><path fill="#e73820" d="M82.8 17.8 Q79.4 20.1 77.8 20.7 L74.25 21.05 Q67.15 20.3 65.0 14.8 64.6 13.8 66.05 10.8 67.3 8.1 69.15 5.4 70.65 3.3 72.5 2.6 77.0 0.85 82.95 2.0 88.65 3.05 90.8 5.7 92.25 7.45 91.45 9.0 90.7 10.6 87.8 13.5 85.0 16.35 82.8 17.8"/><path fill="#0d131a" d="M52.9 24.5 Q54.55 19.85 58.8 17.15 63.3 14.25 68.6 14.95 75.5 15.9 78.1 21.2 80.5 26.15 77.8 30.85 75.45 35.0 70.9 37.05 67.25 38.7 63.2 38.7 57.3 38.65 54.15 34.05 51.1 29.55 52.9 24.5"/><path fill="#fcd13e" d="M54.35 24.25 Q55.85 20.3 59.45 17.95 63.35 15.45 68.05 16.05 74.2 16.85 76.45 21.5 78.5 25.65 76.3 29.9 74.55 33.25 70.55 35.25 67.0 37.05 63.6 37.0 58.25 36.95 55.4 32.8 52.65 28.75 54.35 24.25"/><path fill="#0d131a" d="M57.05 26.4 Q55.95 24.5 57.1 22.2 58.3 19.8 61.4 18.25 64.1 16.85 67.05 17.25 69.9 17.65 70.9 19.45 71.85 21.25 70.4 23.65 69.0 25.95 66.3 27.3 63.4 28.75 60.65 28.45 58.0 28.1 57.05 26.4"/><path fill="#d9b536" d="M58.2 25.7 Q57.35 24.15 58.5 22.15 59.65 20.2 61.8 19.15 63.95 18.05 66.45 18.25 68.95 18.45 69.65 19.75 70.45 21.15 69.25 23.1 68.1 24.9 65.95 26.0 63.7 27.15 61.55 27.15 59.1 27.2 58.2 25.7"/><path fill="#b4ce8e" d="M92.65 88.65 Q102.5 89.3 107.95 95.2 113.5 101.2 112.9 110.85 112.8 112.6 110.7 114.25 108.7 115.85 106.55 116.1 104.2 116.35 102.35 115.15 100.7 114.05 100.35 112.45 98.95 106.1 96.6 102.9 93.9 99.2 87.8 96.3 85.25 95.1 87.35 91.75 89.4 88.45 92.65 88.65"/><path fill="#97ae79" d="M87.15 95.9 Q88.2 95.15 92.8 97.05 98.75 99.95 102.6 110.25 103.55 112.9 107.05 113.45 110.25 113.95 111.6 112.6 111.3 113.4 110.0 114.6 108.75 115.75 106.3 116.2 103.65 116.6 102.7 115.65 101.25 114.2 100.55 112.4 L98.75 106.75 Q97.55 102.75 94.6 100.0 91.55 97.1 87.15 95.9"/><path fill="#b4ce8e" d="M36.8 86.15 Q40.15 81.65 47.25 78.95 54.9 75.95 61.25 77.6 63.9 78.3 64.3 83.6 64.7 88.9 62.8 88.5 56.65 87.25 53.2 89.8 51.85 90.8 47.9 95.35 44.75 98.95 42.55 99.6 41.1 100.05 39.1 99.3 36.95 98.5 36.05 96.9 34.45 94.2 35.0 90.7 35.45 87.95 36.8 86.15"/><path fill="#97ae79" d="M36.95 97.45 Q35.85 96.45 35.8 95.15 35.75 93.75 36.5 95.2 37.3 96.9 39.65 96.8 41.55 96.75 43.5 95.7 L48.7 91.35 Q52.9 87.75 55.6 87.25 58.55 86.7 60.55 87.25 62.15 87.7 62.05 88.25 62.0 88.65 60.25 88.55 L57.95 88.4 54.55 89.1 Q52.65 89.75 51.8 90.7 46.2 97.4 44.45 98.55 40.9 100.85 36.95 97.45"/><path fill="#0d131a" d="M93.9 88.1 Q99.6 88.15 104.7 91.45 109.45 94.45 111.75 98.85 112.95 101.15 113.6 105.05 114.3 109.0 113.8 111.4 113.05 115.1 108.9 116.55 104.9 118.0 102.05 116.0 100.55 114.9 99.55 111.55 98.1 106.6 97.3 105.0 94.7 99.65 87.65 96.9 86.5 96.45 86.75 95.9 L88.5 95.85 Q95.9 98.25 99.0 104.65 100.05 106.8 101.35 111.3 102.15 113.9 103.5 114.55 L109.0 114.35 Q111.9 113.05 112.1 110.85 112.35 108.7 111.75 105.5 111.25 102.7 110.35 100.4 108.7 96.0 104.1 92.95 99.4 89.8 93.55 89.4 91.8 89.3 91.9 88.7 92.0 88.05 93.9 88.1"/><path fill="#0d131a" d="M37.95 97.05 Q40.8 99.85 44.6 97.15 L47.35 94.35 50.8 90.8 Q53.05 88.9 54.95 88.1 57.45 87.1 60.5 87.35 62.0 87.45 62.25 88.15 62.55 88.85 60.65 88.6 58.25 88.35 55.8 89.35 53.8 90.15 52.2 91.65 49.75 93.8 45.9 98.1 43.45 100.6 40.45 100.2 37.8 99.9 36.0 97.6 33.7 94.75 34.0 91.65 34.3 88.45 37.45 84.55 40.2 81.1 45.4 78.75 52.15 75.7 59.7 76.55 62.15 76.8 62.1 77.5 62.05 78.25 59.65 78.0 53.55 77.4 47.75 79.5 42.15 81.6 38.9 85.5 36.35 88.5 35.8 91.6 35.4 94.55 37.95 97.05"/><path fill="#922f00" d="M83.35 70.45 Q83.0 72.0 81.1 73.9 80.25 72.55 78.15 71.6 76.2 70.7 74.85 70.85 L75.15 67.1 79.1 69.0 Q80.95 69.95 83.35 70.45"/><path fill="#0d131a" d="M74.5 66.45 Q78.95 68.8 83.85 70.9 82.85 73.05 80.85 74.85 78.3 77.2 76.35 76.25 74.35 75.3 74.25 71.8 L74.5 66.45 M80.05 73.8 Q81.65 72.25 82.5 70.6 78.0 68.25 75.55 67.2 L75.25 71.75 Q75.2 74.35 76.55 75.1 77.95 75.85 80.05 73.8"/><path fill="#0d131a" d="M83.9 70.3 Q85.05 70.8 84.95 71.2 L83.7 71.35 Q81.75 70.85 78.45 69.3 75.25 67.7 74.25 66.75 73.15 65.8 73.4 65.5 73.65 65.15 74.55 65.7 78.0 67.9 83.9 70.3"/><path fill="#0d131a" d="M81.4 73.55 Q81.65 74.0 81.25 74.25 80.8 74.5 80.55 74.0 80.05 73.15 78.05 72.2 76.15 71.25 75.2 71.35 74.6 71.45 74.55 70.95 74.5 70.45 75.1 70.35 76.7 70.25 78.6 71.15 80.55 72.1 81.4 73.55"/><path fill="#0d131a" d="M83.25 45.45 Q84.4 47.5 83.7 49.05 82.9 50.7 80.2 51.15 73.95 52.15 67.55 54.6 L55.65 59.5 Q52.1 60.9 50.7 59.1 49.4 57.45 50.1 53.5 50.6 50.35 51.95 47.25 54.15 42.0 58.05 38.6 59.45 37.4 64.65 36.15 70.05 34.9 73.5 35.05 76.2 35.2 79.05 38.75 80.85 41.0 83.25 45.45"/><path fill="#e73820" d="M58.35 39.95 Q59.8 38.8 64.7 37.55 69.95 36.15 73.05 36.45 75.4 36.65 77.25 38.7 78.75 40.25 80.6 43.85 82.05 46.65 82.05 47.85 82.1 49.45 80.0 49.8 74.05 50.75 68.05 52.75 63.35 54.35 56.45 57.3 L52.1 57.45 Q51.2 56.4 51.75 53.3 53.5 43.85 58.35 39.95"/><path fill="#0d131a" d="M81.45 41.45 Q77.65 39.35 75.25 36.55 73.7 34.7 75.35 28.8 77.1 22.6 80.55 19.9 84.6 16.7 88.6 15.15 92.95 13.4 95.65 14.25 98.6 15.2 99.0 20.55 99.35 25.3 97.6 31.45 95.85 37.6 93.1 41.2 90.0 45.25 87.05 44.0 L81.45 41.45"/><path fill="#e73820" d="M87.0 42.1 Q80.75 39.65 76.75 36.15 75.15 34.7 76.7 29.2 78.25 23.75 80.7 21.65 84.1 18.75 88.3 17.05 92.8 15.2 95.3 16.05 97.05 16.65 97.15 21.25 97.2 25.55 95.8 30.8 94.35 36.35 92.15 39.5 89.65 43.1 87.0 42.1"/><path fill="#0d131a" d="M127.65 49.0 Q129.85 47.0 133.0 46.25 L139.3 45.3 Q144.4 44.9 147.05 45.9 148.05 46.3 148.55 46.75 149.45 47.5 149.9 48.95 151.65 54.35 151.35 59.3 150.95 64.9 147.85 69.15 147.1 70.2 146.25 70.55 145.35 70.9 144.1 70.55 140.3 69.6 133.3 65.25 129.15 62.7 126.75 58.4 124.75 54.85 125.15 52.9 125.55 50.85 127.65 49.0"/><path fill="#0d131a" d="M118.65 62.85 Q118.45 60.8 122.1 60.3 125.35 59.9 127.85 60.75 131.3 61.95 136.15 67.55 141.9 74.15 142.55 80.45 142.9 84.5 134.25 86.1 126.5 87.5 122.1 86.15 120.35 85.6 119.4 84.35 118.2 82.8 118.4 80.45 119.35 70.15 118.65 62.85"/><path fill="#0d131a" d="M118.2 21.9 Q120.55 26.7 121.7 33.45 124.45 50.05 117.8 55.7 117.2 56.25 114.2 54.25 L106.6 49.3 Q103.9 47.75 98.75 45.55 95.0 43.95 94.75 43.4 93.6 40.4 94.95 35.55 96.2 31.0 99.2 26.45 106.25 15.7 113.2 16.55 115.75 16.85 118.2 21.9"/><path fill="#0d131a" d="M130.85 46.8 L126.45 47.0 Q123.0 46.8 122.15 45.0 120.8 42.1 121.05 31.05 121.3 19.3 123.65 17.4 125.85 15.6 129.65 16.95 133.15 18.2 136.9 21.65 145.65 29.6 145.65 37.65 145.65 40.5 141.05 43.35 136.45 46.25 130.85 46.8"/><path fill="#e73820" d="M133.3 47.65 Q135.25 47.0 139.25 46.85 144.1 46.65 146.65 47.65 147.6 48.05 148.3 49.85 149.6 53.25 149.6 57.7 149.65 63.8 146.75 67.6 146.05 68.55 145.3 68.75 L143.25 68.6 Q139.7 67.7 133.05 63.45 129.2 61.1 127.65 57.3 126.5 54.5 126.95 52.4 127.25 50.65 128.85 49.55 130.15 48.65 133.3 47.65"/><path fill="#e73820" d="M120.05 64.1 Q119.95 62.8 122.6 62.35 L126.9 62.65 Q130.9 64.3 134.3 68.0 138.95 72.95 140.6 79.9 141.25 82.75 134.9 84.15 L123.25 84.65 Q121.9 84.5 121.1 83.35 120.25 82.2 120.3 80.55 L120.5 72.95 120.05 64.1"/><path fill="#e73820" d="M142.6 39.85 Q138.65 43.5 132.5 45.1 126.85 46.55 125.4 45.15 123.1 43.0 123.0 31.8 122.95 20.7 125.0 19.1 128.65 16.35 135.45 22.7 141.9 28.75 143.45 35.1 143.8 36.5 143.75 37.3 143.7 38.85 142.6 39.85"/><path fill="#e73820" d="M119.95 32.6 Q122.45 46.75 117.25 52.85 116.7 53.5 113.85 51.9 L106.25 47.45 99.3 43.85 Q96.85 42.6 96.65 41.95 95.0 37.1 100.9 27.5 107.05 17.6 112.65 18.25 114.8 18.5 116.9 22.75 118.9 26.8 119.95 32.6"/><path fill="#0d131a" d="M111.0 46.5 Q112.35 40.25 117.4 38.25 122.75 36.2 128.45 40.7 133.4 44.6 134.5 51.5 135.5 58.05 132.6 62.55 130.25 66.2 125.05 66.4 119.85 66.65 116.55 63.2 113.5 60.05 111.9 55.3 110.2 50.35 111.0 46.5"/><path fill="#fcd13e" d="M112.95 46.35 Q113.8 41.5 118.05 39.85 122.65 38.1 127.6 42.0 131.95 45.45 132.85 52.0 133.65 58.2 130.9 62.0 128.2 65.65 123.6 64.8 119.25 64.0 116.3 60.05 114.2 57.2 113.3 53.55 112.35 49.8 112.95 46.35"/><path fill="#0d131a" d="M94.9 48.2 Q96.05 47.25 98.35 47.25 102.0 47.3 105.35 48.35 109.4 49.6 111.55 52.0 113.6 54.3 116.2 58.75 118.75 63.15 119.1 64.9 119.65 67.65 118.7 71.45 118.0 74.5 116.65 77.15 115.4 79.7 113.85 80.1 112.3 80.55 109.85 79.0 103.0 74.65 98.4 67.35 93.45 59.55 93.5 52.1 93.55 49.35 94.9 48.2"/><path fill="#e73820" d="M117.4 65.6 Q117.85 68.4 117.05 71.6 116.4 74.3 115.15 76.3 114.2 77.9 112.9 78.0 111.7 78.1 109.9 76.95 105.0 73.85 101.0 68.3 96.6 62.25 95.4 55.9 94.8 52.55 95.5 50.65 96.2 48.8 97.95 48.75 101.35 48.65 104.75 49.65 108.85 50.85 110.65 53.1 112.5 55.4 114.6 59.1 117.05 63.4 117.4 65.6"/><path fill="#0d131a" d="M124.4 43.35 Q126.45 42.8 128.6 44.6 130.65 46.3 131.5 49.05 132.6 52.4 131.7 54.8 130.95 56.85 129.15 57.55 127.2 58.3 125.05 56.9 122.8 55.45 121.7 52.55 120.6 49.75 121.35 46.95 122.1 43.95 124.4 43.35"/><path fill="#d9b536" d="M122.65 47.7 Q123.1 45.15 124.9 44.75 126.5 44.4 128.15 45.85 129.75 47.3 130.4 49.6 131.2 52.2 130.7 53.95 130.3 55.6 128.9 56.1 127.4 56.7 125.8 55.7 124.15 54.65 123.15 52.35 122.2 50.1 122.65 47.7"/><path fill="#0d131a" d="M57.95 38.75 L58.65 37.1 60.4 37.8 60.2 38.35 57.95 38.75"/><path fill="#0d131a" d="M73.0 35.55 L74.85 33.7 75.7 36.0 75.3 36.3 73.0 35.55"/><path fill="#0d131a" d="M77.75 21.95 L79.3 21.35 79.65 21.85 78.75 23.45 78.05 23.3 77.75 21.95"/></g></svg>