<?xml version='1.0' encoding='utf-8'?>
<svg xmlns="http://www.w3.org/2000/svg" version="1.1" width="200px" height="167px" viewBox="-0.1 0.15 199.85 167.15"><g><path fill="#ed85ad" d="M79.0 156.1 Q77.8 153.65 80.05 151.4 80.75 150.65 83.2 150.45 L89.4 150.15 Q92.8 149.95 95.55 148.7 97.7 147.75 98.55 146.75 102.15 150.25 105.0 150.65 L102.2 153.7 98.65 156.55 Q93.55 160.0 87.65 160.0 80.95 160.0 79.0 156.1"/><path fill="#cd7497" d="M96.4 148.45 L98.6 146.95 Q99.15 147.45 101.4 148.8 L105.05 150.75 Q103.15 153.5 100.3 155.7 98.5 157.1 95.95 158.15 92.55 159.5 89.55 159.3 94.0 157.85 95.75 153.8 96.4 152.3 96.5 150.45 L96.4 148.45"/><path fill="#0d131a" d="M79.95 153.55 Q79.6 154.7 80.3 155.9 81.35 157.75 84.05 158.45 89.05 159.8 94.55 157.8 100.6 155.65 104.15 150.3 L104.9 150.45 Q105.5 150.85 105.3 151.05 101.5 156.8 95.1 159.25 89.2 161.45 83.85 160.05 82.3 159.65 80.85 158.65 79.45 157.65 78.8 156.5 78.35 155.75 78.25 154.7 78.1 153.65 78.4 152.85 79.1 151.1 80.95 150.3 82.6 149.6 85.6 149.55 L92.35 148.9 Q96.1 148.1 97.9 146.55 98.1 146.35 98.55 146.9 99.0 147.4 98.8 147.6 96.85 149.35 92.8 150.25 L85.45 151.05 Q80.65 151.05 79.95 153.55"/><path fill="#ed85ad" d="M173.65 92.95 Q175.5 96.3 176.3 99.0 180.85 114.8 173.25 128.6 166.65 140.7 153.55 147.05 137.05 155.15 121.0 154.65 103.15 154.05 93.8 142.6 86.65 133.8 87.85 120.3 88.8 109.8 94.2 99.3 100.25 87.6 116.0 80.45 129.6 74.3 139.3 75.35 L140.35 73.6 Q145.3 66.2 155.55 60.35 165.4 54.75 168.65 56.55 171.8 58.25 172.05 71.2 172.35 83.7 170.15 88.0 171.8 89.65 173.65 92.95"/><path fill="#cd7497" d="M170.25 88.4 Q163.6 82.4 159.3 80.45 159.65 74.5 161.9 68.4 164.15 62.3 166.7 60.05 168.7 58.3 169.55 58.7 170.25 59.05 171.05 61.55 172.1 64.8 171.95 73.9 171.75 83.6 170.25 88.4"/><path fill="#cd7497" d="M102.85 149.95 Q106.3 151.9 109.35 152.5 L117.5 154.3 Q117.0 159.05 113.05 162.85 108.65 167.1 103.9 165.4 100.05 164.0 100.15 158.15 100.25 152.7 102.85 149.95"/><path fill="#cd7497" d="M161.2 157.45 Q157.6 158.85 153.8 156.35 149.85 153.8 149.1 149.15 156.25 146.15 161.5 142.1 164.6 145.25 164.7 150.55 164.8 156.05 161.2 157.45"/><path fill="#0d131a" d="M166.7 85.25 L161.8 81.9 Q162.4 77.25 163.6 72.4 165.1 66.6 166.45 65.15 168.75 67.6 167.9 76.8 167.5 81.35 166.7 85.25"/><path fill="#cd7497" d="M167.1 130.3 L169.8 129.2 Q172.55 128.1 174.35 127.0 167.55 139.5 155.2 146.35 145.6 151.7 131.95 153.95 113.35 157.05 100.45 148.35 95.9 145.25 93.25 141.5 91.0 138.2 91.6 136.9 106.55 148.15 128.5 146.55 138.95 145.8 148.1 142.0 157.4 138.1 167.1 130.3"/><path fill="#0d131a" d="M117.1 154.25 Q117.1 153.9 117.7 153.95 118.3 154.0 118.25 154.35 117.95 159.05 114.15 162.95 109.95 167.3 104.8 166.1 100.2 165.05 99.6 159.6 99.05 154.4 102.25 149.4 103.1 149.8 103.2 150.35 100.35 154.6 101.1 159.55 101.8 164.4 105.2 164.85 109.8 165.55 113.5 161.6 116.7 158.15 117.1 154.25"/><path fill="#0d131a" d="M162.15 141.7 L163.7 144.2 Q165.55 147.7 165.35 151.45 165.1 156.0 161.5 157.7 158.35 159.2 154.65 157.4 151.15 155.75 149.5 152.45 148.9 151.25 148.5 149.25 148.45 149.0 149.1 148.75 L149.75 148.65 Q149.9 149.8 150.85 151.8 152.2 154.6 155.3 156.1 158.4 157.6 160.7 156.6 163.75 155.3 163.95 151.3 164.05 148.1 162.5 144.8 L161.5 143.05 Q161.1 142.45 161.2 142.3 161.8 141.4 162.15 141.7"/><path fill="#0d131a" d="M167.6 57.4 Q162.65 57.2 155.3 61.4 146.4 66.5 139.8 75.4 L138.9 75.5 138.2 75.3 Q144.9 65.6 154.2 60.25 161.55 56.0 167.55 55.7 172.1 55.5 172.8 68.6 173.4 80.8 170.65 89.05 170.6 89.2 170.1 88.4 169.6 87.6 169.65 87.4 171.85 80.15 171.25 69.0 170.65 57.55 167.6 57.4"/><path fill="#0d131a" d="M168.0 62.35 Q168.4 62.5 167.35 64.7 168.85 68.15 168.5 75.55 168.2 81.85 167.05 85.55 L166.1 84.7 Q167.2 80.35 167.45 74.15 167.7 67.45 166.5 66.15 165.15 69.05 164.05 73.7 162.95 78.0 162.45 82.25 L161.35 81.5 Q162.1 76.2 163.45 71.5 165.0 66.3 166.85 63.55 167.65 62.25 168.0 62.35"/><path fill="#0d131a" d="M118.85 79.7 Q105.6 85.1 95.2 98.05 L94.15 98.85 Q93.7 98.85 94.35 97.8 101.5 85.9 116.05 79.45 131.15 72.75 146.4 75.7 148.0 76.0 147.85 76.35 147.75 76.75 146.65 76.6 131.75 74.45 118.85 79.7"/><path fill="#0d131a" d="M177.4 120.9 Q172.75 136.35 158.55 145.3 142.0 155.7 122.95 155.5 103.0 155.3 93.2 143.2 90.5 139.85 88.85 135.5 87.2 131.2 86.95 126.75 86.85 125.0 87.6 124.85 88.3 124.7 88.5 126.25 89.8 137.2 95.2 143.2 104.95 153.95 123.4 154.0 141.5 154.1 157.8 144.0 171.1 135.75 175.65 120.9 180.35 105.4 172.15 92.3 167.9 85.5 159.75 81.25 157.65 80.15 158.05 79.85 158.45 79.55 160.05 80.25 168.5 84.05 173.1 91.05 182.2 104.65 177.4 120.9"/><path fill="#0d131a" d="M149.5 97.3 Q149.2 95.55 150.25 94.2 151.45 92.6 153.55 92.55 155.55 92.45 157.1 93.7 158.55 94.9 158.85 96.6 159.2 98.35 158.15 99.7 157.05 101.15 155.15 101.45 153.05 101.7 151.3 100.3 149.8 99.1 149.5 97.3"/><path fill="#0d131a" d="M123.15 109.6 Q124.2 111.3 123.8 113.35 123.4 115.35 121.85 116.6 120.25 117.85 118.15 117.55 116.05 117.25 114.9 115.45 113.75 113.75 114.15 111.7 114.55 109.6 116.25 108.3 118.0 107.0 120.0 107.35 122.1 107.8 123.15 109.6"/><path fill="#0d131a" d="M155.75 105.6 Q158.45 114.05 156.5 122.0 154.35 130.6 147.75 133.4 141.7 135.95 135.15 132.25 127.9 128.15 126.3 119.0 126.1 117.95 126.45 117.5 126.8 117.05 127.85 116.85 136.45 115.35 143.25 112.5 150.85 109.3 154.35 105.05 155.45 103.75 156.0 104.0 156.55 104.3 155.75 105.6"/><path fill="#6fb92c" d="M111.7 70.15 L118.45 81.65 114.3 84.85 111.35 86.8 105.05 79.1 101.9 82.1 Q98.8 85.1 98.5 85.1 97.9 85.1 89.15 76.55 L84.8 80.75 80.2 84.9 75.25 79.85 70.4 74.9 60.85 83.65 50.05 74.45 38.9 85.35 20.25 79.85 Q1.55 74.15 1.4 73.25 1.3 72.35 17.45 62.45 L33.65 52.75 49.9 65.25 60.35 57.0 Q60.65 56.75 65.8 62.05 L71.2 67.4 76.15 63.45 80.95 59.6 Q81.45 59.65 85.6 64.8 L89.65 70.0 99.35 63.8 Q105.4 73.9 105.75 74.0 111.5 70.1 111.7 70.15"/><path fill="#6fb92c" d="M162.85 43.8 L148.25 47.15 148.2 56.7 136.4 60.2 135.9 70.35 127.2 71.95 126.85 79.3 119.4 81.55 Q119.15 81.75 118.85 81.75 118.2 81.75 117.8 80.8 117.35 79.6 116.6 74.35 L115.95 69.35 121.6 68.05 121.6 57.7 131.05 56.2 131.5 43.7 143.4 41.2 142.6 27.6 155.9 26.45 160.95 7.1 179.25 3.6 Q197.65 0.25 198.45 0.85 199.25 1.5 190.0 17.3 L180.6 33.0 162.65 33.8 162.85 43.8"/><path fill="#5fa124" d="M0.8 73.4 L1.45 72.95 2.05 72.5 Q2.5 72.9 21.9 77.8 41.2 82.65 41.5 83.05 L39.9 84.45 38.6 85.45 19.75 79.55 Q1.85 74.1 0.8 73.4"/><path fill="#5fa124" d="M112.95 85.7 L112.3 86.55 Q111.5 87.2 111.15 86.75 L107.4 82.15 106.25 80.5 105.15 79.3 Q104.9 79.15 104.6 79.45 L104.15 79.95 Q104.9 78.7 105.2 78.6 105.5 78.5 106.2 79.1 110.9 83.35 112.95 85.7"/><path fill="#5fa124" d="M89.25 76.85 Q88.55 76.0 89.35 75.95 L90.65 76.2 Q92.3 77.1 96.15 80.05 L100.4 83.5 98.25 85.2 93.75 81.05 Q89.85 77.55 89.25 76.85"/><path fill="#5fa124" d="M127.2 71.95 Q126.75 72.05 126.8 71.65 126.85 71.3 127.4 71.1 132.25 69.45 136.1 68.5 136.25 69.65 135.9 70.3 L127.2 71.95"/><path fill="#5fa124" d="M118.6 81.3 L122.95 79.25 Q125.55 78.0 126.9 77.45 126.9 78.95 126.55 79.4 L119.5 81.5 118.55 81.6 Q118.1 81.55 118.6 81.3"/><path fill="#5fa124" d="M136.7 60.15 Q136.25 60.3 136.2 59.9 136.15 59.5 136.8 59.1 137.35 58.8 141.75 57.05 L148.15 54.55 Q148.5 54.45 148.5 55.55 148.5 56.7 148.05 56.85 L142.85 58.45 136.7 60.15"/><path fill="#5fa124" d="M162.2 44.15 L148.25 46.75 Q147.8 46.85 147.9 46.5 148.0 46.1 148.6 45.9 149.65 45.45 154.5 43.85 160.2 42.0 162.8 41.5 163.4 41.35 163.15 42.65 162.85 43.95 162.2 44.15"/><path fill="#5fa124" d="M162.5 33.85 Q162.05 33.85 162.4 33.35 L163.35 32.7 Q165.8 32.0 173.3 31.2 L181.6 30.6 Q182.25 30.7 181.65 31.8 181.1 32.9 180.4 32.9 L172.05 33.4 162.5 33.85"/><path fill="#5fa124" d="M70.6 75.1 Q69.9 74.25 70.35 74.15 L71.35 74.4 Q73.15 75.35 77.55 79.0 L82.2 83.1 Q80.6 85.4 80.1 84.8 L75.35 79.95 70.6 75.1"/><path fill="#5fa124" d="M50.45 74.7 Q49.8 74.05 50.15 73.9 L51.05 74.0 Q53.3 74.95 58.2 78.15 L63.25 81.6 Q61.35 84.0 60.75 83.55 L55.6 79.35 Q51.65 75.95 50.45 74.7"/><path fill="#0d131a" d="M117.3 81.1 Q118.15 81.95 117.9 82.1 117.7 82.25 117.1 81.8 114.0 79.35 100.85 76.3 87.4 73.25 70.6 71.2 27.95 66.05 6.2 72.0 L3.55 72.4 Q3.2 72.1 6.0 71.25 27.5 64.65 70.95 69.95 88.1 72.05 101.5 75.3 114.75 78.5 117.3 81.1"/><path fill="#ed85ad" d="M171.95 114.3 Q174.35 112.9 179.1 112.0 185.5 110.7 186.55 113.7 188.3 118.7 178.75 124.75 171.5 129.35 166.9 130.35 L171.95 114.3"/><path fill="#ed85ad" d="M129.0 142.25 Q136.8 141.6 136.8 143.65 136.8 147.4 134.5 152.7 131.5 159.65 127.05 159.7 123.15 159.75 121.05 153.05 119.15 146.85 120.45 144.5 121.3 142.85 129.0 142.25"/><path fill="#0d131a" d="M187.2 113.85 Q189.0 119.05 178.7 125.3 175.45 127.3 171.25 129.2 L167.35 130.8 165.3 131.0 Q165.3 130.55 166.9 129.9 174.55 126.7 179.95 122.9 186.35 118.45 185.9 115.45 185.15 110.15 172.7 114.5 L171.25 114.65 Q171.1 114.3 172.5 113.65 178.65 110.7 182.9 111.2 186.45 111.6 187.2 113.85"/><path fill="#0d131a" d="M136.4 144.2 Q136.65 143.15 136.95 143.2 137.3 143.25 137.25 144.35 137.2 148.95 134.6 154.2 131.55 160.2 127.75 160.45 123.0 160.75 120.8 154.95 119.0 150.1 119.9 145.8 120.05 144.95 120.4 144.85 120.75 144.75 120.7 145.85 120.4 151.2 122.4 155.0 124.45 158.9 127.8 158.85 130.1 158.8 132.65 154.45 135.2 150.1 136.4 144.2"/><path fill="#0d131a" d="M194.85 3.2 L195.95 3.1 195.1 4.0 Q175.6 14.3 148.85 42.2 138.35 53.2 130.35 63.2 122.7 72.85 121.05 76.9 L120.25 77.8 Q119.8 77.85 120.3 76.65 126.35 62.7 150.4 38.3 175.85 12.5 194.85 3.2"/><path fill="#922f00" d="M154.8 122.95 Q154.15 122.0 151.5 121.3 L145.3 120.75 Q136.3 121.25 131.8 127.85 130.6 126.5 129.4 123.95 128.1 121.15 127.7 118.8 L127.65 118.45 127.85 118.4 Q134.8 117.35 142.5 114.3 151.45 110.8 154.45 106.9 154.65 106.7 154.75 106.8 L155.0 107.4 Q156.0 111.3 156.0 115.3 156.05 119.55 154.9 123.1 L154.8 122.95"/><path fill="#ed8599" d="M147.75 131.85 Q144.5 133.4 140.55 132.8 135.6 132.0 131.8 127.85 136.3 121.25 145.3 120.75 L151.5 121.3 Q154.15 122.0 154.8 122.95 L154.9 123.1 Q152.85 129.4 147.75 131.85"/><path fill="#0d131a" d="M143.6 120.1 Q151.5 119.05 155.35 122.75 155.85 123.25 155.55 123.65 155.2 124.0 154.9 123.45 154.55 122.7 152.15 121.95 149.35 121.05 146.2 121.1 137.2 121.15 131.85 128.3 L131.45 128.25 Q131.25 127.95 131.4 127.7 135.05 121.25 143.6 120.1"/><path fill="#ffeb3f" d="M150.55 97.15 Q150.35 95.75 151.2 94.75 152.05 93.65 153.5 93.55 155.0 93.45 156.25 94.45 157.3 95.3 157.6 96.6 157.9 97.95 157.25 99.0 156.5 100.2 154.95 100.4 153.3 100.6 152.0 99.55 150.8 98.6 150.55 97.15"/><path fill="#ffeb3f" d="M122.15 109.95 Q123.0 111.3 122.75 112.8 122.45 114.4 121.2 115.45 119.95 116.6 118.45 116.4 116.8 116.2 115.85 114.85 114.95 113.5 115.2 111.8 115.45 110.15 116.8 109.15 118.1 108.15 119.7 108.35 121.2 108.55 122.15 109.95"/><path fill="#0d131a" d="M196.2 0.15 L199.45 0.3 Q199.75 0.65 198.9 2.6 194.7 12.2 181.8 32.65 L181.0 33.55 179.95 33.75 163.35 34.3 163.5 38.85 163.55 42.7 163.3 44.15 Q163.05 44.45 161.7 44.8 L148.8 47.55 148.9 56.05 Q148.9 56.9 148.6 57.15 L147.65 57.55 137.0 60.5 136.8 68.3 136.6 70.55 Q136.4 70.9 135.5 71.1 L130.25 71.95 127.65 72.3 127.4 79.55 126.95 79.9 118.95 82.0 Q118.3 82.15 118.25 81.8 118.2 81.45 119.0 81.3 L122.0 80.35 125.8 79.0 126.1 78.55 126.7 71.9 Q126.7 71.6 127.0 71.55 L134.85 70.0 Q135.35 69.9 135.5 69.6 L135.6 68.4 136.0 59.95 136.35 59.65 146.75 56.35 147.4 56.1 147.55 55.5 Q147.6 48.65 147.75 46.8 147.75 46.5 148.25 46.35 L155.05 44.85 161.55 43.4 162.2 43.1 162.3 42.35 162.15 39.2 Q162.0 36.3 162.15 34.15 162.2 33.45 162.4 33.3 L163.85 33.05 172.4 32.55 180.2 32.2 Q180.3 31.8 188.9 17.55 197.4 3.15 197.25 1.75 193.65 1.9 180.1 4.2 166.15 6.6 161.4 7.95 L156.75 25.7 156.3 26.8 154.9 27.0 144.0 28.05 Q143.4 28.1 143.3 28.4 L143.35 30.1 143.9 40.6 143.85 41.5 143.05 41.8 132.7 44.0 132.3 44.15 132.1 44.8 Q131.8 48.0 131.6 56.2 L131.3 56.5 127.05 57.3 122.75 58.05 Q122.35 58.1 122.3 58.45 L122.2 63.2 122.1 68.05 121.7 68.45 117.0 69.65 Q116.6 69.75 116.65 70.3 L118.1 80.25 Q118.15 80.7 117.85 80.8 117.55 80.85 117.45 80.4 115.5 71.15 115.25 69.2 115.15 68.9 115.45 68.8 116.75 68.4 121.25 67.55 L120.95 58.0 Q120.95 57.3 121.4 57.05 L122.55 56.8 130.6 55.65 Q130.5 49.7 130.85 44.5 130.9 43.35 131.25 43.15 131.5 42.95 133.15 42.7 L142.7 40.85 141.9 28.7 Q141.85 27.4 142.1 27.05 142.35 26.75 143.45 26.6 L148.55 26.25 155.6 25.9 157.95 15.3 Q159.5 8.35 159.85 7.5 160.1 6.85 160.65 6.55 161.05 6.35 162.75 5.9 165.55 5.1 177.7 2.95 190.45 0.7 196.2 0.15"/><path fill="#0d131a" d="M111.75 69.5 L112.5 70.3 118.05 80.3 118.65 81.6 118.25 82.2 112.5 86.9 111.3 87.6 Q111.05 87.55 110.1 86.5 L106.8 82.35 105.0 79.8 100.0 84.85 98.5 85.95 97.1 84.95 89.2 77.1 82.05 84.5 Q80.9 85.75 80.3 85.7 L79.0 84.75 73.65 79.25 70.4 75.6 62.35 83.75 Q61.55 84.5 61.1 84.55 60.7 84.65 60.0 84.1 54.7 79.85 50.1 74.95 L45.05 80.45 40.35 85.3 39.25 86.0 37.95 85.9 Q8.6 77.2 2.05 74.7 0.2 73.95 0.05 73.4 -0.1 72.85 1.3 71.85 7.7 67.6 32.3 52.7 33.35 52.1 33.7 52.15 34.0 52.2 35.05 52.95 L49.9 64.5 Q55.4 59.95 59.0 57.3 60.15 56.45 60.35 56.4 60.85 56.3 61.65 57.05 65.3 60.4 71.15 66.85 L79.6 59.55 Q80.6 58.75 80.95 58.75 81.4 58.7 82.1 59.6 L89.9 69.35 98.5 63.75 Q99.25 63.25 99.55 63.25 L100.3 63.9 Q103.1 67.9 105.8 73.25 L110.65 70.0 Q111.4 69.45 111.75 69.5 M112.15 71.95 L111.35 70.9 Q111.1 70.8 110.5 71.25 L106.15 74.15 105.7 74.4 Q105.55 74.4 105.3 74.1 L102.4 69.65 99.5 65.35 99.2 65.1 98.85 65.2 89.8 70.55 89.45 70.5 85.15 65.4 80.95 60.6 80.7 60.55 Q80.0 60.95 76.05 64.3 L71.4 68.1 71.1 68.1 Q70.25 67.65 65.75 63.1 L60.45 58.1 60.25 58.1 50.8 65.3 50.05 65.7 49.15 65.35 40.3 58.9 33.55 53.75 18.05 63.05 Q2.75 72.15 2.15 73.15 5.15 74.5 38.7 84.35 L49.05 74.6 Q49.8 73.9 50.1 73.9 50.4 73.9 51.25 74.8 L56.25 79.1 60.7 82.65 61.0 82.65 65.75 78.45 70.25 74.2 70.55 74.2 75.2 78.65 80.3 83.4 80.75 83.45 Q87.45 77.0 89.1 75.95 L89.5 76.0 98.5 83.9 98.95 83.9 Q100.35 82.4 104.8 78.65 104.95 78.5 105.2 78.65 L111.3 85.75 111.75 85.8 117.75 81.8 118.15 81.6 117.5 80.7 112.15 71.95"/><path fill="#ed85ad" d="M109.15 91.6 Q110.5 91.85 109.35 97.8 108.3 103.55 105.7 110.9 99.1 129.7 94.1 129.85 83.15 126.85 72.9 114.25 68.85 109.3 66.8 104.9 64.7 100.5 65.65 99.05 68.7 94.2 83.45 91.8 97.9 89.5 109.15 91.6"/><path fill="#cd7497" d="M76.55 118.7 Q71.85 113.8 68.0 107.45 65.15 102.8 67.7 100.55 70.05 98.5 75.75 99.25 81.6 100.0 87.7 103.35 94.55 107.1 99.1 112.75 102.75 117.3 99.75 124.1 96.7 130.95 91.55 129.0 83.65 126.1 76.55 118.7"/><path fill="#0d131a" d="M86.15 90.6 Q95.95 89.2 103.7 90.25 107.25 90.75 107.1 91.3 L103.5 91.6 85.55 92.25 Q76.7 93.6 70.3 96.5 67.3 97.85 66.75 99.8 66.1 102.0 68.1 105.95 70.8 111.45 76.4 117.15 82.4 123.3 90.2 128.0 92.45 129.4 92.3 130.0 92.15 130.6 89.85 129.35 81.75 124.9 75.3 118.4 69.65 112.65 66.75 107.0 64.35 102.45 65.0 99.65 65.65 96.95 69.4 95.2 76.3 92.0 86.15 90.6"/><path fill="#0d131a" d="M72.9 101.75 Q77.75 102.25 83.5 105.1 89.3 108.0 93.9 112.3 96.15 114.4 96.15 116.35 96.15 118.15 94.4 119.1 90.0 121.35 83.9 116.75 80.7 114.45 78.1 111.45 74.15 106.8 72.9 101.75"/><path fill="#0d131a" d="M73.55 102.45 Q75.3 108.3 80.55 113.25 85.55 118.05 90.25 119.0 93.05 119.6 94.7 117.8 96.55 115.85 93.65 113.15 89.6 109.35 84.5 106.55 79.05 103.6 73.55 102.45 M72.5 102.25 L71.35 102.05 Q69.95 101.85 70.05 101.45 70.15 101.05 71.25 101.1 77.5 101.3 84.9 105.25 91.5 108.75 95.35 113.05 97.75 115.75 96.1 118.2 94.45 120.75 90.35 120.15 85.1 119.45 79.45 113.75 73.9 108.1 72.5 102.25"/></g></svg>