<?xml version='1.0' encoding='utf-8'?>
<svg xmlns="http://www.w3.org/2000/svg" version="1.1" width="328px" height="244px" viewBox="-1.65 -1.15 328.25 244.35"><g><path fill="#a586bc" d="M289.35 13.25 Q300.4 2.4 308.5 5.95 316.6 9.55 320.5 19.6 324.0 28.75 323.45 41.4 322.85 53.5 318.75 65.3 314.5 77.35 307.8 85.2 308.0 96.5 299.6 109.6 304.05 106.55 306.2 107.4 308.1 108.15 308.75 112.25 310.45 123.4 298.2 136.35 292.0 142.9 280.75 145.85 268.8 149.0 256.2 146.65 256.4 151.6 254.25 160.2 254.2 158.15 253.5 156.25 252.85 154.3 251.8 153.15 248.5 149.55 240.9 152.25 234.45 154.5 228.6 159.55 222.9 164.45 220.1 169.3 216.55 175.4 216.45 183.0 222.35 195.95 224.7 199.35 220.25 205.45 218.05 211.4 216.0 216.95 215.6 223.4 213.3 215.0 209.75 205.45 205.85 195.05 203.2 190.8 197.45 181.75 196.4 175.7 195.0 167.6 200.65 159.55 205.5 152.55 213.6 148.05 202.25 150.05 189.15 154.7 179.95 157.95 172.3 161.6 166.8 164.25 163.6 161.1 160.45 158.05 163.05 153.4 175.9 130.65 214.65 133.2 207.5 131.15 200.25 126.85 194.8 123.65 191.6 120.7 180.9 128.7 163.25 120.7 150.4 114.85 140.65 104.95 126.9 91.0 124.7 70.15 123.75 61.2 125.65 54.35 127.65 47.3 132.0 44.7 146.95 35.9 162.85 45.85 176.35 54.3 184.8 71.45 189.95 61.55 198.7 53.9 205.65 47.75 213.75 43.95 210.7 38.25 206.2 32.45 204.75 30.7 205.25 30.15 L207.5 30.0 Q212.4 30.9 216.2 32.45 215.3 26.5 213.35 18.3 211.65 11.25 210.2 6.55 209.3 3.65 210.4 2.9 211.25 2.25 213.1 3.15 218.3 5.75 225.1 15.25 230.35 22.65 235.5 32.6 235.55 30.35 234.85 23.7 234.35 19.25 235.25 18.9 237.2 18.1 240.55 25.25 243.4 31.35 244.6 36.55 251.85 36.05 260.65 37.45 268.25 38.7 274.1 40.75 278.1 24.35 289.35 13.25"/><path fill="#a586bc" d="M225.7 189.25 Q233.9 186.95 238.9 183.0 L246.15 191.8 Q245.35 191.35 244.2 191.4 L241.9 191.6 Q237.4 188.35 229.55 195.3 228.4 193.05 225.7 189.25"/><path fill="#a586bc" d="M172.75 191.95 Q188.1 184.55 196.25 175.3 196.7 178.55 198.65 182.7 200.4 186.45 202.65 189.5 180.6 208.15 148.2 212.65 133.1 214.75 119.6 212.8 105.5 210.75 95.55 204.6 76.75 193.05 71.85 166.85 67.65 144.8 73.9 118.6 L82.05 119.1 89.3 118.2 Q79.3 154.6 88.9 175.25 100.35 199.85 139.05 200.3 155.05 200.5 172.75 191.95"/><path fill="#ffe792" d="M271.15 61.05 Q276.4 57.2 282.8 57.1 289.7 57.0 295.3 61.6 300.6 65.9 302.45 75.35 303.95 82.9 302.8 89.2 300.1 103.75 289.1 113.3 278.9 122.2 261.25 126.9 245.3 131.2 230.3 129.25 215.95 127.35 207.9 120.5 199.75 113.5 196.85 102.3 193.85 90.5 199.25 82.45 205.15 73.65 213.9 72.05 219.25 71.05 232.4 72.85 251.5 75.55 271.15 61.05"/><path fill="#ffe792" d="M302.25 36.45 Q307.05 29.25 310.8 30.65 317.75 33.2 315.65 48.8 313.75 63.25 307.15 73.05 304.05 62.9 296.35 54.1 297.2 44.05 302.25 36.45"/><path fill="#ffe792" d="M164.75 73.5 Q171.4 76.7 177.15 83.65 182.25 89.75 185.15 101.05 188.1 112.3 185.5 115.45 182.85 118.65 173.25 114.55 163.2 110.25 157.35 102.4 152.3 95.6 150.3 87.35 147.95 77.65 152.5 73.75 157.1 69.75 164.75 73.5"/><path fill="#ffe792" d="M238.9 183.0 Q229.65 189.7 219.9 190.15 217.45 186.0 216.45 182.15 216.2 174.0 223.35 165.0 230.3 156.2 239.35 152.65 247.25 149.5 251.2 152.9 254.15 155.45 254.3 160.6 250.2 174.8 238.9 183.0"/><path fill="#ffe792" d="M227.15 197.2 Q231.15 192.85 235.7 191.15 240.2 189.45 241.9 191.6 246.25 190.5 248.95 195.35 252.4 187.45 257.45 184.7 261.8 182.3 263.8 184.7 267.65 183.25 270.65 187.4 273.5 191.3 273.7 197.3 274.05 208.2 270.0 217.6 266.2 226.45 259.85 231.0 254.25 235.0 249.75 233.2 245.9 231.7 244.6 227.25 242.7 231.1 238.3 235.0 232.65 240.0 227.05 240.5 222.5 240.95 219.0 237.05 215.75 233.45 215.55 229.0 215.05 219.35 219.1 209.95 222.25 202.6 227.15 197.2"/><path fill="#ffe792" d="M122.9 16.0 Q125.85 21.35 125.1 26.85 124.5 31.75 120.6 35.8 116.25 40.35 110.15 40.8 107.4 44.35 106.15 49.15 105.1 53.2 105.45 56.85 112.7 61.95 116.0 71.15 118.75 78.85 117.95 86.3 116.85 96.8 110.5 105.15 100.9 117.9 82.25 119.15 61.95 120.55 50.05 106.25 44.85 100.05 42.75 92.2 40.65 84.45 41.95 76.9 39.9 74.3 35.6 71.75 31.75 69.55 28.3 68.55 25.0 71.15 20.2 71.6 15.65 72.05 11.6 70.55 6.85 68.7 3.5 63.1 -0.5 56.45 1.7 49.65 4.1 42.3 10.45 39.35 16.5 36.45 24.25 38.45 31.0 40.2 33.7 47.75 35.9 54.0 34.4 59.2 37.6 62.5 41.85 63.6 L47.85 64.0 Q49.7 60.8 54.2 56.9 57.85 53.8 60.75 52.15 61.25 48.1 60.2 44.1 59.55 41.4 57.85 37.95 52.95 37.95 47.8 35.4 41.6 32.3 40.0 27.15 37.6 19.55 40.2 13.1 42.9 6.5 50.0 3.05 56.75 -0.2 64.0 2.6 70.85 5.3 74.5 11.95 77.2 16.95 75.45 23.5 73.8 29.75 69.35 33.65 69.85 37.8 71.3 41.55 72.75 45.4 74.7 47.45 79.3 46.65 84.65 47.35 89.2 47.95 92.3 49.3 94.5 47.1 96.3 43.55 L98.65 38.1 Q94.9 35.45 93.35 30.7 91.95 26.25 92.65 21.0 93.45 15.35 98.35 11.5 103.9 7.05 111.7 8.25 119.25 9.4 122.9 16.0"/><path fill="#ffffff" d="M221.45 82.0 Q226.65 81.85 230.65 85.15 235.2 88.9 235.45 95.45 235.75 102.0 231.25 106.25 227.3 110.05 221.95 110.3 216.85 110.5 212.45 106.55 207.75 102.3 207.75 96.5 207.75 90.5 211.8 86.3 215.8 82.2 221.45 82.0"/><path fill="#ffffff" d="M278.0 98.1 Q279.45 97.6 280.85 98.4 282.35 99.25 282.65 101.25 282.95 103.35 281.6 105.4 275.0 115.25 261.4 118.9 248.5 122.35 237.4 118.45 234.7 117.5 233.5 115.7 232.35 113.9 233.05 111.9 233.75 109.95 236.0 109.2 238.2 108.5 240.9 109.1 250.8 111.25 259.95 108.45 267.55 106.1 274.2 100.45 276.55 98.55 278.0 98.1"/><path fill="#ffffff" d="M278.05 92.65 Q272.45 90.45 270.25 85.05 268.05 79.7 270.45 74.6 272.8 69.6 278.1 67.8 283.1 66.15 287.8 68.45 292.05 70.55 294.2 74.9 296.35 79.3 295.1 84.3 293.7 89.8 288.8 92.25 283.65 94.8 278.05 92.65"/><path fill="#8f75a3" d="M218.85 23.9 Q222.45 34.65 222.45 39.25 222.45 42.8 220.45 44.8 218.15 47.15 214.5 45.4 L210.0 38.15 206.2 32.45 Q205.05 31.05 205.25 30.35 205.45 29.65 207.1 30.0 213.55 31.45 216.35 32.6 213.7 19.35 209.85 2.35 215.1 12.6 218.85 23.9"/><path fill="#8f75a3" d="M168.0 122.65 Q152.15 116.9 140.55 104.7 124.95 88.35 124.6 66.35 129.8 86.85 145.45 102.25 158.75 115.35 172.55 119.0 178.2 120.5 182.45 120.25 189.35 119.95 194.3 115.5 193.15 121.15 186.65 123.65 178.95 126.6 168.0 122.65"/><path fill="#8f75a3" d="M321.5 55.05 Q317.25 73.7 308.0 84.25 L308.0 77.55 Q315.65 65.5 318.6 52.45 321.35 40.0 320.75 22.4 325.95 35.4 321.5 55.05"/><path fill="#8f75a3" d="M163.95 152.95 Q163.95 156.15 165.55 157.65 167.55 159.6 171.6 157.85 183.85 152.65 195.9 149.65 212.2 145.55 225.1 146.35 197.1 149.85 172.45 161.5 167.0 164.05 163.9 161.85 160.55 159.45 163.95 152.95"/><path fill="#8f75a3" d="M289.3 142.7 Q274.5 150.15 256.4 146.35 L256.4 140.8 Q266.95 144.5 280.45 141.25 296.9 137.35 306.45 124.15 302.75 135.9 289.3 142.7"/><path fill="#8f75a3" d="M207.0 198.2 L203.3 190.15 Q208.05 196.1 211.8 202.85 L217.05 213.45 Q215.3 219.5 215.2 223.1 212.5 213.15 210.0 205.7 L207.0 198.2"/><path fill="#8f75a3" d="M199.05 183.9 L202.7 189.45 Q180.65 207.85 150.45 212.65 119.95 217.5 98.6 205.6 123.8 215.15 152.95 208.15 180.2 201.6 199.05 183.9"/><path fill="#dbc77f" d="M165.85 88.05 Q154.4 85.95 151.3 91.5 149.25 85.7 149.85 81.0 150.45 75.95 153.95 73.6 156.25 72.05 160.4 72.7 164.75 73.45 169.2 76.25 180.35 83.35 183.65 97.2 177.2 90.1 165.85 88.05"/><path fill="#dbc77f" d="M315.9 43.5 Q313.35 40.4 307.0 42.7 300.25 45.1 296.75 51.35 299.25 39.8 303.95 34.2 308.35 29.0 311.9 31.55 316.15 34.6 315.9 43.5"/><path fill="#dbc77f" d="M216.45 182.0 Q224.7 183.05 234.55 179.1 245.7 174.65 252.3 165.9 248.4 174.75 242.6 180.2 233.8 188.4 219.95 190.25 L217.8 186.05 Q216.55 183.25 216.45 182.0"/><path fill="#dbc77f" d="M244.65 227.25 Q236.2 240.65 224.55 240.35 219.6 240.25 216.85 234.25 214.15 228.35 215.9 221.9 217.35 225.95 222.1 227.95 227.0 230.0 232.55 228.65 246.8 225.15 251.3 204.95 252.2 215.35 244.65 227.25"/><path fill="#dbc77f" d="M248.15 220.25 Q255.15 224.55 262.95 219.35 271.15 213.9 273.55 201.95 272.95 212.9 268.2 221.6 262.35 232.3 252.6 233.55 250.35 233.8 247.9 232.05 245.15 230.1 244.8 227.2 246.8 223.75 248.15 220.25"/><path fill="#dbc77f" d="M117.3 90.0 Q115.55 98.0 110.3 104.65 98.55 119.5 79.15 119.5 65.85 119.5 54.85 110.4 41.9 99.8 41.75 82.65 45.9 95.3 56.9 102.35 66.8 108.75 78.15 108.35 91.35 107.85 101.75 100.5 115.1 91.15 116.8 74.0 119.15 81.8 117.3 90.0"/><path fill="#dbc77f" d="M36.1 60.5 Q33.45 67.65 35.2 71.55 34.3 70.95 31.85 69.9 29.3 68.75 28.3 68.55 26.15 70.4 22.45 71.25 18.4 72.2 14.45 71.35 4.3 69.15 1.5 56.9 3.2 60.9 8.1 62.95 12.8 64.9 18.4 64.35 24.2 63.85 28.5 60.8 33.3 57.45 34.7 51.85 35.5 55.6 34.7 59.05 L36.1 60.5"/><path fill="#dbc77f" d="M75.8 20.85 Q75.7 23.7 74.2 26.95 72.55 30.55 69.45 33.65 L69.85 38.45 Q67.1 38.1 64.0 39.15 60.9 40.25 59.45 42.1 L58.0 38.1 Q51.2 38.2 46.25 34.9 40.95 31.35 40.0 25.15 45.55 31.65 57.55 30.65 70.05 29.65 75.8 20.85"/><path fill="#dbc77f" d="M98.25 40.05 L98.4 37.95 Q96.9 37.0 95.4 34.8 94.2 33.05 93.6 31.55 96.65 34.55 101.9 35.05 106.8 35.5 112.05 33.75 117.3 31.95 120.75 28.6 124.45 25.0 124.75 20.75 126.65 27.6 121.35 34.35 116.3 40.8 110.25 40.8 107.35 45.2 106.5 47.35 105.6 44.85 103.15 42.8 101.0 41.0 98.25 40.05"/><path fill="#8f75a3" d="M72.9 123.7 L74.25 118.8 89.5 118.3 Q87.85 122.85 86.05 132.8 81.85 125.8 72.9 123.7"/><path fill="#0d131a" d="M230.05 93.0 Q231.2 96.45 229.55 99.75 227.9 103.1 224.45 104.2 221.0 105.35 217.75 103.65 214.5 101.95 213.35 98.5 212.2 95.05 213.7 91.85 215.25 88.5 218.95 87.3 222.4 86.2 225.65 87.9 228.9 89.55 230.05 93.0"/><path fill="#ffffff" d="M223.1 91.2 Q223.75 92.65 223.2 94.15 222.65 95.6 221.2 96.25 L218.25 96.35 Q216.8 95.8 216.15 94.35 215.5 92.95 216.05 91.45 216.65 90.0 218.05 89.3 L220.95 89.2 Q222.45 89.8 223.1 91.2"/><path fill="#0d131a" d="M271.05 85.15 Q272.7 89.9 277.9 92.0 282.95 94.0 287.5 92.1 292.15 90.2 294.0 85.6 295.8 81.1 294.05 76.1 292.3 71.25 287.4 69.0 282.55 66.8 278.0 68.65 272.45 70.9 270.8 75.85 269.3 80.15 271.05 85.15 M276.4 93.15 Q270.95 90.6 269.25 85.65 267.35 79.8 269.3 74.85 271.4 69.6 277.35 67.3 282.75 65.2 288.1 67.55 293.6 69.95 295.5 75.6 297.5 81.65 295.4 86.65 293.3 91.55 287.95 93.6 282.15 95.8 276.4 93.15"/><path fill="#0d131a" d="M279.25 72.3 L285.4 72.45 Q288.6 73.9 289.95 77.1 291.3 80.3 290.0 83.6 288.7 86.8 285.75 88.05 282.55 89.35 279.3 87.9 276.05 86.45 274.8 83.1 273.75 80.15 274.8 77.1 275.95 73.65 279.25 72.3"/><path fill="#ffffff" d="M281.55 74.2 Q283.0 74.85 283.55 76.2 284.15 77.55 283.55 78.95 282.95 80.3 281.65 80.85 L279.0 80.75 Q277.55 80.1 277.0 78.7 276.45 77.35 277.05 75.95 277.6 74.65 278.9 74.1 L281.55 74.2"/><path fill="#0d131a" d="M182.25 115.7 Q184.2 115.65 184.95 114.85 185.75 114.0 185.7 111.7 185.45 99.55 178.4 88.0 170.9 75.7 160.85 73.45 157.05 72.6 154.3 74.3 151.45 76.0 150.95 79.8 149.4 91.05 159.8 103.35 170.35 115.85 182.25 115.7 M187.3 111.85 Q187.3 114.85 186.15 116.1 185.0 117.25 182.25 117.3 169.25 117.45 158.0 104.65 146.7 91.9 148.75 79.35 149.65 74.0 153.5 71.8 156.9 69.9 161.25 70.95 171.95 73.6 179.6 85.55 187.3 97.55 187.3 111.85"/><path fill="#0d131a" d="M246.45 42.95 Q246.65 44.1 246.2 44.2 245.7 44.25 245.45 43.1 241.85 27.95 236.55 20.9 235.9 20.05 235.7 20.15 235.5 20.25 235.6 21.3 L236.45 30.4 Q236.65 34.8 236.2 38.75 236.0 40.4 235.55 40.3 235.05 40.25 235.05 38.55 235.05 30.0 234.0 21.85 233.45 17.3 234.75 17.05 236.05 16.8 238.6 20.6 244.6 29.5 246.45 42.95"/><path fill="#0d131a" d="M209.1 5.45 Q208.05 1.85 209.4 1.3 210.55 0.85 213.7 2.7 221.0 7.05 227.65 17.0 232.7 24.5 235.7 32.4 L235.4 34.7 Q230.55 23.85 224.4 15.75 218.25 7.65 212.15 4.15 211.3 3.7 211.05 3.9 210.85 4.1 211.1 5.0 212.95 10.85 214.7 19.3 216.5 28.1 217.4 35.65 217.6 37.15 217.1 37.15 216.6 37.2 216.35 35.65 213.65 21.5 209.1 5.45"/><path fill="#0d131a" d="M216.15 31.85 L216.4 33.7 Q212.75 32.0 207.25 30.8 205.5 30.4 206.65 31.85 211.15 37.35 215.05 45.05 215.6 46.15 215.15 46.45 214.75 46.7 214.05 45.55 210.1 39.1 205.2 33.05 203.05 30.4 203.35 29.55 203.7 28.55 207.25 29.15 210.75 29.75 216.15 31.85"/><path fill="#0d131a" d="M213.4 43.3 L214.15 44.9 Q204.65 49.3 197.05 57.0 189.7 64.45 185.2 73.7 L183.85 70.9 Q188.25 62.05 196.3 54.65 204.0 47.5 213.4 43.3"/><path fill="#0d131a" d="M244.7 37.7 L244.3 35.75 Q268.65 34.3 286.45 45.0 303.8 55.45 307.85 73.05 313.4 97.4 295.75 115.85 278.75 133.6 250.85 135.85 249.3 135.95 249.2 135.35 249.15 134.7 250.7 134.5 276.8 131.6 293.15 115.25 310.9 97.5 305.45 73.7 301.55 56.7 284.45 46.5 267.15 36.15 244.7 37.7"/><path fill="#0d131a" d="M217.65 132.85 Q227.75 135.35 236.85 135.2 238.35 135.15 238.35 135.8 238.35 136.4 236.9 136.5 227.4 137.15 216.45 134.6 200.55 130.85 190.7 121.5 L192.45 119.85 Q202.0 128.95 217.65 132.85"/><path fill="#0d131a" d="M271.4 62.2 Q260.25 70.35 249.55 72.95 238.85 75.55 226.6 73.1 210.55 69.9 202.2 80.05 194.0 90.05 199.05 105.65 203.85 120.45 219.8 125.9 235.7 131.4 259.5 126.5 280.85 122.1 292.4 108.95 302.5 97.4 302.2 83.05 301.8 65.0 290.65 59.85 286.05 57.7 280.7 58.45 275.6 59.15 271.4 62.2 M270.45 60.7 Q275.85 56.8 281.85 56.2 287.75 55.65 292.75 58.5 304.2 64.95 304.3 82.85 304.4 98.1 293.75 110.2 281.7 123.8 259.8 128.3 235.25 133.35 218.8 127.7 202.05 121.95 196.7 106.05 194.05 98.25 195.0 91.05 195.9 84.0 199.95 78.9 209.0 67.6 226.85 71.15 238.9 73.55 249.2 71.1 259.55 68.65 270.45 60.7"/><path fill="#0d131a" d="M234.2 91.8 Q232.45 86.6 227.65 84.15 222.85 81.65 217.65 83.35 212.4 85.05 209.95 89.95 207.45 94.85 209.15 100.1 211.05 106.0 216.45 108.25 221.15 110.25 225.9 108.75 231.15 107.05 233.5 101.8 235.8 96.8 234.2 91.8 M208.05 89.75 Q210.75 83.95 217.2 81.8 223.1 79.85 228.65 82.8 234.15 85.7 235.75 91.4 237.5 97.7 234.85 103.05 232.15 108.4 226.25 110.35 220.4 112.25 214.9 109.5 209.3 106.75 207.35 100.7 205.55 95.15 208.05 89.75"/><path fill="#0d131a" d="M240.45 109.75 L236.0 109.95 Q234.55 110.55 233.95 111.9 233.45 113.1 233.75 114.4 234.05 115.7 235.15 116.55 238.6 119.1 245.5 119.65 252.25 120.2 259.65 118.55 267.25 116.85 272.9 113.2 278.55 109.55 281.25 104.65 282.1 103.05 281.85 101.45 281.6 100.0 280.6 99.2 279.55 98.4 278.1 98.7 276.65 99.0 275.2 100.3 267.75 107.2 259.25 109.5 250.75 111.8 240.45 109.75 M278.55 97.0 Q280.55 96.85 282.0 97.8 283.5 98.85 283.8 101.0 284.1 103.15 282.95 105.25 280.05 110.45 273.95 114.45 267.75 118.55 259.9 120.3 252.1 122.0 244.55 121.15 237.5 120.35 234.1 117.85 232.3 116.55 231.8 114.65 231.35 112.95 232.05 111.45 232.85 109.7 234.7 108.8 237.0 107.7 240.1 108.3 250.5 110.4 258.35 108.35 266.55 106.2 274.35 99.0 276.3 97.25 278.55 97.0"/><path fill="#0d131a" d="M245.0 110.0 L246.4 110.05 Q246.3 115.4 245.6 120.25 L244.55 120.1 245.0 110.0"/><path fill="#0d131a" d="M255.0 109.6 L256.25 109.55 Q257.05 116.2 257.75 119.5 L256.75 119.65 Q255.65 114.85 255.0 109.6"/><path fill="#0d131a" d="M264.45 107.2 L265.65 106.65 Q267.5 110.65 269.3 115.85 L268.4 116.35 264.45 107.2"/><path fill="#0d131a" d="M272.0 102.25 L272.9 101.55 Q275.6 105.65 277.6 110.4 L276.8 111.0 Q274.4 106.0 272.0 102.25"/><path fill="#0d131a" d="M182.75 65.85 Q189.85 78.15 191.35 92.75 191.55 94.4 190.85 94.5 190.15 94.55 189.9 92.9 187.7 78.4 180.65 66.6 174.3 55.95 165.15 49.35 156.45 43.05 147.7 42.2 138.85 41.3 132.8 46.3 124.65 53.05 125.7 68.8 126.8 85.45 138.0 99.7 144.7 108.25 153.8 114.35 162.2 120.05 170.8 122.35 179.2 124.65 185.25 123.05 191.55 121.3 193.4 115.7 193.85 114.35 194.55 114.5 195.25 114.65 194.85 116.0 192.6 123.15 185.7 125.2 179.3 127.15 170.25 124.55 161.45 122.0 152.55 116.0 143.35 109.8 136.65 101.65 125.05 87.6 123.15 70.05 121.15 52.0 131.3 43.75 138.0 38.3 147.75 39.45 157.25 40.55 166.6 47.45 176.3 54.6 182.75 65.85"/><path fill="#0d131a" d="M295.45 7.1 Q304.25 2.4 311.25 5.65 318.25 8.9 321.9 19.6 326.6 33.35 323.3 51.4 319.75 70.95 308.25 85.9 L308.15 83.35 Q318.25 68.85 321.15 50.3 323.8 33.35 319.6 20.6 316.45 11.2 310.25 8.25 304.05 5.35 296.45 9.45 289.45 13.2 283.8 21.5 278.2 29.75 275.05 40.75 L273.25 40.05 Q276.4 28.3 282.05 19.8 287.85 11.2 295.45 7.1"/><path fill="#0d131a" d="M313.1 34.8 Q312.1 32.45 310.2 32.0 308.3 31.55 306.25 33.15 302.8 35.8 300.0 42.7 297.35 49.15 297.05 54.8 L295.65 53.55 Q296.2 47.2 298.75 41.0 301.55 34.35 305.3 31.3 308.1 29.05 310.6 29.5 313.3 30.0 314.9 33.65 317.85 40.4 315.9 51.95 313.8 64.5 307.0 74.1 L306.6 72.35 Q312.2 62.95 314.0 51.45 315.65 40.65 313.1 34.8"/><path fill="#0d131a" d="M213.75 132.85 L218.9 134.7 Q199.65 132.55 186.0 136.75 171.9 141.1 165.1 151.85 162.25 156.4 163.9 159.7 165.6 163.1 170.45 161.0 185.0 154.7 194.35 151.75 210.3 146.7 225.0 145.8 226.7 145.75 226.8 146.35 226.85 147.0 225.15 147.15 210.45 148.55 194.8 153.7 184.6 157.05 171.0 163.2 164.85 165.95 162.05 161.25 159.25 156.6 163.1 150.6 169.9 140.05 183.5 135.45 196.6 131.0 213.75 132.85"/><path fill="#0d131a" d="M306.55 105.95 Q309.5 106.95 310.0 112.15 310.6 118.0 307.5 124.9 304.15 132.4 297.75 138.1 281.5 152.45 256.15 147.3 L256.25 145.75 Q280.75 150.15 296.1 136.7 302.15 131.4 305.3 124.4 308.2 117.95 307.7 112.5 307.2 106.8 302.55 109.45 299.55 111.15 294.65 116.1 L297.6 111.55 Q299.8 108.95 301.85 107.2 304.1 105.1 306.55 105.95"/><path fill="#0d131a" d="M212.1 148.25 L216.35 147.75 Q209.6 150.65 204.6 156.1 199.7 161.35 198.1 167.25 195.4 177.1 202.0 187.1 205.45 192.35 210.4 204.6 214.85 215.7 215.75 220.15 L215.75 226.2 Q212.5 215.25 207.9 203.9 203.1 192.15 200.05 188.0 192.95 178.15 195.95 166.95 197.45 161.45 201.95 156.25 206.45 151.1 212.1 148.25"/><path fill="#0d131a" d="M229.85 160.0 Q221.55 166.8 218.5 174.85 216.4 180.45 217.3 182.95 217.9 184.75 219.9 188.8 222.15 193.45 225.15 198.7 L224.25 200.6 Q218.5 191.05 215.7 183.35 214.75 180.45 216.8 174.4 219.85 165.6 228.55 158.45 239.1 149.85 247.0 150.35 254.5 150.8 254.35 158.75 L253.3 162.35 Q254.2 152.85 247.5 152.05 240.65 151.2 229.85 160.0"/><path fill="#0d131a" d="M220.4 190.95 L219.65 189.4 Q236.3 188.05 246.3 174.1 256.35 160.0 255.4 138.85 255.35 137.35 256.0 137.35 256.6 137.3 256.75 138.8 258.65 160.8 248.1 175.3 237.95 189.2 220.4 190.95"/><path fill="#0d131a" d="M224.95 189.35 L226.75 188.8 229.75 194.35 228.45 195.45 224.95 189.35"/><path fill="#0d131a" d="M238.15 183.55 L239.65 182.6 246.65 191.6 244.55 191.45 Q240.8 187.1 238.15 183.55"/><path fill="#0d131a" d="M242.6 196.4 Q242.4 192.15 239.85 191.5 236.4 190.65 230.2 195.7 222.95 201.6 219.25 211.15 215.55 220.75 216.6 228.85 217.6 236.7 222.4 239.05 227.55 241.55 234.85 236.7 242.75 231.4 247.0 220.75 252.1 208.15 249.8 199.15 248.85 195.5 246.85 193.7 245.25 192.2 243.4 192.45 244.0 193.8 244.2 195.75 244.65 201.05 241.2 207.25 240.6 208.4 240.15 208.2 239.75 207.95 240.25 206.75 242.8 200.8 242.6 196.4 M240.3 189.7 Q241.3 190.0 242.05 190.65 244.85 190.0 247.25 191.6 249.95 193.35 251.3 197.3 254.55 206.75 248.7 221.4 244.2 232.75 235.45 238.2 227.45 243.2 221.55 240.35 215.7 237.5 214.75 228.2 213.8 219.5 217.4 210.1 221.1 200.45 229.15 194.15 236.3 188.5 240.3 189.7"/><path fill="#0d131a" d="M271.55 191.05 Q270.4 187.75 268.45 186.25 266.55 184.85 264.6 185.65 L263.4 184.5 Q265.95 183.15 268.55 184.45 271.15 185.8 272.8 189.45 276.8 198.2 272.9 212.8 269.85 224.1 262.65 230.1 256.2 235.45 250.1 234.15 248.25 233.75 246.65 232.3 244.95 230.7 244.2 228.45 L245.2 227.1 Q245.7 229.0 247.15 230.55 248.65 232.25 250.4 232.65 256.0 233.85 261.7 228.75 268.0 223.1 270.9 212.3 274.4 199.25 271.55 191.05"/><path fill="#0d131a" d="M249.65 195.8 L248.7 194.3 Q251.55 188.5 254.85 185.5 258.25 182.5 261.7 182.85 266.1 183.35 267.15 190.25 268.2 197.4 264.3 205.1 263.75 206.2 263.25 206.0 262.8 205.85 263.25 204.7 266.6 196.25 265.4 190.3 264.45 185.25 261.4 184.9 258.65 184.55 255.65 187.2 252.4 190.05 249.65 195.8"/><path fill="#0d131a" d="M173.45 190.4 Q186.6 184.1 195.95 174.3 L196.45 176.45 Q186.75 186.35 173.6 192.7 160.85 198.8 147.0 200.65 133.05 202.5 120.6 199.7 107.55 196.75 98.2 189.1 86.7 179.7 84.1 161.7 81.45 143.5 88.2 118.35 L90.55 117.85 Q77.7 167.85 99.95 187.15 108.45 194.55 121.15 197.4 133.3 200.15 147.05 198.3 160.85 196.45 173.45 190.4"/><path fill="#0d131a" d="M201.95 189.05 L203.1 190.5 Q178.55 211.45 143.2 214.55 127.6 215.9 113.85 213.05 100.05 210.2 91.2 203.65 75.4 192.0 70.75 169.1 66.2 146.8 73.1 118.6 L75.3 118.95 Q68.6 146.5 73.1 168.25 77.7 190.15 92.8 201.45 101.5 207.95 114.8 210.8 128.05 213.65 143.2 212.3 177.1 209.35 201.95 189.05"/><path fill="#0d131a" d="M105.75 57.95 L105.55 55.95 Q111.65 59.9 115.05 66.45 118.4 72.8 119.0 81.2 120.0 95.3 110.15 107.1 99.15 120.15 81.35 120.55 60.85 121.0 49.15 106.8 38.15 93.5 41.2 76.25 L42.5 77.8 Q41.25 93.75 50.9 105.35 61.75 118.35 81.25 118.05 98.0 117.75 108.5 105.5 117.9 94.4 117.0 81.35 115.85 66.05 105.75 57.95"/><path fill="#0d131a" d="M83.95 46.35 Q89.25 47.0 93.0 48.5 L92.05 49.85 Q88.75 48.7 84.35 48.2 79.45 47.7 75.55 48.3 L73.85 46.55 Q78.0 45.65 83.95 46.35"/><path fill="#0d131a" d="M48.55 64.05 L46.45 64.25 Q49.1 60.45 52.9 56.9 57.15 52.9 61.2 50.85 L60.55 53.4 Q53.5 57.6 48.55 64.05"/><path fill="#0d131a" d="M2.5 44.85 Q6.25 38.55 13.85 36.8 21.5 35.05 27.9 39.1 33.35 42.6 35.2 49.6 37.0 56.35 34.3 61.6 33.85 62.45 33.35 62.3 32.85 62.1 33.2 61.2 35.1 55.95 33.55 50.2 31.85 44.0 26.85 40.95 20.95 37.35 14.05 39.25 7.55 41.05 4.35 46.35 1.0 51.95 3.1 59.3 5.25 66.9 11.55 69.4 22.35 73.65 29.8 66.35 30.7 65.45 31.05 65.8 31.4 66.1 30.65 67.15 27.75 71.15 21.95 72.25 16.3 73.3 10.55 71.2 3.35 68.65 0.85 60.2 -1.65 51.75 2.5 44.85"/><path fill="#0d131a" d="M27.2 69.55 L28.95 67.9 Q33.3 68.85 38.2 72.45 43.15 76.15 44.6 79.55 45.05 80.55 44.55 80.8 44.1 81.1 43.55 80.1 41.85 76.9 36.55 73.5 31.3 70.1 27.2 69.55"/><path fill="#0d131a" d="M34.3 60.3 L34.8 58.2 Q38.35 61.7 42.6 62.9 46.9 64.1 51.0 62.75 L52.5 62.8 Q52.65 63.3 51.4 63.85 47.35 65.75 42.75 64.85 37.95 63.9 34.3 60.3"/><path fill="#0d131a" d="M64.55 1.35 Q71.5 4.0 75.1 11.0 78.4 17.45 76.35 24.7 74.35 31.75 68.6 35.0 67.05 35.85 66.75 35.4 66.4 34.9 67.85 33.9 72.55 30.75 74.25 24.5 76.05 17.85 73.05 12.05 69.85 5.8 63.45 3.7 57.8 1.8 51.75 3.55 44.9 5.55 41.65 12.9 38.65 19.75 40.75 25.35 43.2 31.75 48.85 35.05 54.0 38.05 59.15 37.25 60.6 37.05 60.7 37.65 60.8 38.25 59.35 38.55 53.3 39.85 47.55 36.8 41.3 33.45 38.7 26.5 35.85 18.95 39.5 11.1 43.25 3.15 50.95 0.9 58.05 -1.15 64.55 1.35"/><path fill="#0d131a" d="M68.55 34.1 L70.3 32.65 Q70.55 37.4 72.25 41.8 74.1 46.4 76.9 48.85 77.8 49.65 77.45 50.05 77.1 50.45 76.1 49.75 73.15 47.75 71.0 43.2 68.95 38.8 68.55 34.1"/><path fill="#0d131a" d="M56.65 37.95 L58.9 37.75 Q61.45 42.0 61.9 47.2 62.35 52.65 60.3 57.0 59.8 58.1 59.3 57.95 58.8 57.8 59.2 56.65 62.2 47.85 56.65 37.95"/><path fill="#0d131a" d="M124.6 16.45 Q127.5 22.6 125.45 29.45 123.85 35.0 118.75 38.5 113.6 42.0 107.85 41.4 106.25 41.2 106.3 40.65 106.35 40.1 107.95 40.2 112.95 40.55 117.5 37.15 122.1 33.8 123.6 28.7 125.2 23.3 122.6 17.8 119.95 12.25 114.8 10.35 108.45 7.95 102.45 10.5 96.9 12.85 94.65 17.85 92.15 23.45 93.75 29.4 95.35 35.35 100.05 38.15 101.15 38.8 100.85 39.25 L99.45 39.2 Q93.9 36.65 91.95 29.75 90.0 23.0 92.7 16.9 95.45 10.75 101.85 8.15 108.45 5.5 115.75 8.25 121.75 10.5 124.6 16.45"/><path fill="#0d131a" d="M109.4 40.8 L111.9 40.65 Q108.85 43.65 107.4 48.2 105.75 53.2 106.3 59.2 106.4 60.65 105.85 60.7 105.35 60.7 105.1 59.3 104.2 53.65 105.45 48.55 106.65 43.55 109.4 40.8"/><path fill="#0d131a" d="M97.75 37.25 L99.5 38.45 Q98.45 42.15 96.35 45.45 94.35 48.6 91.7 50.75 90.7 51.55 90.35 51.15 90.0 50.75 90.9 49.85 93.4 47.4 95.05 44.25 96.5 41.45 97.75 37.25"/></g></svg>