<?xml version='1.0' encoding='utf-8'?>
<svg xmlns="http://www.w3.org/2000/svg" version="1.1" width="119px" height="139px" viewBox="-2.35 -0.25 119.15 138.85"><g><path fill="#009e41" d="M81.5 6.7 Q90.35 5.75 98.85 9.9 106.1 13.4 110.95 19.3 115.5 24.85 115.1 28.65 114.85 31.15 108.55 32.95 102.3 34.75 93.85 34.8 72.2 34.9 63.5 24.85 61.3 30.55 57.45 48.7 L51.75 48.4 Q55.95 31.65 58.5 23.7 46.9 29.1 30.35 24.65 13.55 20.15 9.1 9.85 11.3 5.7 18.35 3.15 25.3 0.7 33.7 0.95 42.75 1.25 49.85 4.75 57.95 8.75 61.6 16.15 71.05 7.85 81.5 6.7"/><path fill="#008b38" d="M59.05 17.0 Q51.9 9.85 44.15 7.7 40.5 4.15 35.6 2.4 31.9 1.05 28.9 1.05 38.95 0.35 47.4 3.7 57.05 7.5 61.3 15.65 61.5 18.1 61.3 18.4 60.95 18.9 59.05 17.0"/><path fill="#008b38" d="M104.0 24.5 Q106.05 22.65 104.3 20.25 102.95 18.45 100.9 17.5 102.3 15.1 101.45 12.9 100.85 11.2 99.2 10.05 106.3 13.6 111.05 19.45 115.45 24.9 115.1 28.65 114.85 31.15 108.55 32.95 102.3 34.75 93.85 34.8 72.2 34.9 63.5 24.85 62.05 28.65 59.95 37.75 59.45 30.4 56.35 30.9 L58.5 23.7 Q52.4 26.55 43.75 26.5 35.5 26.45 27.5 23.8 35.8 24.75 43.9 24.05 52.35 23.35 59.2 20.95 L61.7 20.7 63.45 21.85 Q70.6 27.45 83.9 28.65 97.9 30.0 104.0 24.5"/><path fill="#faee42" d="M87.75 42.05 Q88.4 43.35 88.4 53.35 L94.05 51.9 99.45 51.65 Q99.2 52.9 96.85 57.85 L91.8 67.4 92.8 79.9 Q93.25 88.95 92.8 97.15 91.8 114.6 78.15 125.1 65.3 135.05 46.25 135.3 35.95 135.45 26.7 131.25 17.8 127.15 11.45 119.75 -2.35 103.6 2.1 82.35 4.4 71.35 10.7 60.2 L16.55 51.25 14.55 45.75 Q12.7 40.15 13.3 39.95 14.0 39.7 18.3 41.4 L22.45 43.1 22.15 38.35 Q22.1 33.5 23.05 32.95 24.2 32.25 29.5 35.5 34.7 38.65 37.15 41.35 39.5 36.15 40.6 34.0 42.55 30.2 43.55 30.2 45.1 30.2 48.6 33.85 52.75 38.25 55.3 44.2 58.85 40.0 63.4 36.4 67.55 33.1 68.35 33.4 68.95 33.6 70.85 39.1 L73.75 47.7 Q76.75 45.15 82.1 43.1 87.3 41.05 87.75 42.05"/><path fill="#d7ce3a" d="M86.65 97.55 Q88.2 94.9 90.25 96.4 92.25 97.85 91.6 101.35 88.4 120.75 71.0 129.65 53.55 138.6 33.7 133.45 13.65 128.2 6.6 112.45 13.0 119.8 23.95 122.85 31.0 124.85 38.25 124.7 53.55 124.45 63.4 119.9 77.05 113.65 86.65 97.55"/><path fill="#595649" d="M24.5 92.5 Q21.2 106.55 20.25 113.05 18.65 123.75 20.6 127.7 10.0 121.3 3.25 105.5 2.4 99.15 6.05 86.55 10.6 71.0 19.95 55.05 L22.15 58.3 27.3 54.2 29.65 57.7 35.55 54.35 30.95 69.6 Q26.0 86.15 24.5 92.5"/><path fill="#595649" d="M41.85 135.15 Q33.15 134.65 27.45 131.35 26.5 121.6 30.0 112.4 33.3 103.8 36.15 105.15 L37.6 105.8 Q38.7 106.35 39.0 107.15 40.25 110.25 42.3 121.75 44.85 132.35 49.35 134.95 L41.85 135.15"/><path fill="#595649" d="M76.45 79.2 Q73.9 101.05 73.45 107.75 72.9 115.95 73.4 119.85 73.9 124.0 76.0 126.7 73.2 128.5 67.5 130.9 60.05 134.0 54.95 134.6 52.75 131.25 52.35 122.4 51.85 112.55 53.45 94.2 56.7 72.3 60.95 57.05 L64.6 60.5 69.45 55.75 73.15 61.25 78.9 58.75 76.45 79.2"/><path fill="#3e392d" d="M20.6 127.7 Q12.7 123.0 6.8 112.7 11.8 118.3 19.55 121.4 19.55 125.55 20.6 127.7"/><path fill="#595649" d="M46.7 135.15 Q35.1 135.7 27.5 131.4 36.6 135.0 46.7 135.15"/><path fill="#3e392d" d="M43.05 124.55 Q45.35 132.65 49.35 134.95 L46.7 135.15 Q36.6 135.0 27.5 131.4 L27.45 131.35 Q27.1 127.45 27.45 123.7 33.0 124.8 38.25 124.7 L43.05 124.55"/><path fill="#3e392d" d="M73.15 113.75 Q73.05 118.7 73.65 121.6 74.3 124.45 75.95 126.65 L75.4 127.05 Q72.1 129.05 66.75 131.2 59.8 134.05 54.95 134.6 52.9 131.45 52.4 123.4 64.35 121.05 73.15 113.75"/><path fill="#922f00" d="M39.0 90.75 Q40.5 90.85 48.1 95.95 L56.6 101.45 59.2 102.1 Q56.1 107.85 49.45 112.45 42.0 117.6 36.1 116.35 30.6 115.15 26.2 109.7 22.45 105.0 21.05 99.35 24.9 97.15 29.05 94.95 37.4 90.6 39.0 90.75"/><path fill="#ed8599" d="M27.25 95.95 Q37.15 90.6 39.0 90.75 40.6 90.9 48.15 95.75 L56.5 101.45 Q57.75 102.35 58.9 102.5 56.15 107.3 50.7 111.6 43.0 117.7 35.95 116.2 32.35 115.4 29.05 112.65 26.0 110.1 23.9 106.45 23.6 103.7 24.55 101.05 25.3 98.75 27.25 95.95"/><path fill="#ce7486" d="M27.0 96.05 Q36.95 90.55 39.0 90.75 40.5 90.85 48.25 96.1 56.45 101.65 56.9 101.8 L59.2 102.1 55.5 107.1 Q53.85 105.45 52.2 104.35 37.75 95.5 25.55 99.1 L27.0 96.05"/><path fill="#3e4e57" d="M29.95 80.5 Q28.75 85.1 24.85 87.6 21.0 90.1 16.7 89.0 12.45 87.9 10.25 83.8 8.1 79.75 9.3 75.1 10.5 70.45 14.4 67.95 18.25 65.5 22.55 66.6 26.85 67.75 29.0 71.8 31.15 75.85 29.95 80.5"/><path fill="#3e4e57" d="M77.25 81.35 Q77.25 86.35 73.8 89.9 70.3 93.45 65.4 93.45 60.5 93.45 57.0 89.9 53.55 86.35 53.55 81.35 53.55 76.3 57.0 72.75 60.5 69.2 65.4 69.2 70.3 69.2 73.8 72.75 77.25 76.3 77.25 81.35"/><path fill="#0d131a" d="M84.1 5.7 Q92.5 5.45 100.15 9.35 107.35 13.05 112.2 19.2 116.8 24.95 116.4 28.85 116.1 31.5 108.85 33.75 99.65 36.65 86.5 35.15 71.1 33.45 63.8 26.15 62.25 30.65 60.15 39.35 L58.45 40.95 Q61.7 27.6 62.85 24.6 62.5 23.65 62.5 23.15 62.45 22.15 64.05 24.35 68.95 31.05 85.3 33.1 100.05 34.95 109.1 32.05 114.25 30.45 114.4 28.6 114.75 25.05 110.45 19.8 105.9 14.3 99.25 10.85 91.7 7.0 83.75 7.25 72.35 7.65 62.05 16.7 L61.8 17.3 Q61.4 17.65 60.95 16.5 58.1 9.55 50.35 5.6 42.9 1.8 32.8 1.65 24.95 1.55 18.5 3.85 12.1 6.2 9.9 9.9 11.65 13.75 15.7 16.95 19.8 20.2 25.65 22.45 33.65 25.45 44.25 25.45 54.2 25.5 58.2 23.05 59.8 22.1 59.65 22.9 L59.15 23.9 Q57.15 30.05 54.1 42.0 L53.2 40.0 57.4 24.85 Q50.75 27.45 42.4 27.4 33.75 27.3 25.75 24.25 19.7 21.95 14.25 17.35 9.05 13.0 8.45 10.15 7.85 7.15 15.4 3.6 23.55 -0.25 32.5 0.0 42.5 0.3 50.3 4.3 58.1 8.3 61.75 15.1 72.3 6.1 84.1 5.7"/><path fill="#0d131a" d="M44.6 6.7 Q52.95 9.55 58.2 15.6 59.5 17.1 58.9 17.1 58.3 17.15 57.35 16.2 52.0 10.75 43.15 7.9 31.4 4.05 20.15 8.1 18.2 8.85 18.05 8.3 17.9 7.75 19.7 7.15 33.1 2.85 44.6 6.7"/><path fill="#0d131a" d="M83.1 10.75 Q89.8 10.9 97.9 14.85 105.3 18.55 109.1 22.85 110.55 24.5 110.6 25.35 110.6 26.15 108.35 23.6 105.4 20.25 97.75 16.45 88.95 12.1 82.7 12.2 77.3 12.25 72.35 14.0 67.95 15.55 65.1 17.9 64.5 18.45 64.0 18.2 63.45 18.0 64.45 17.1 66.65 15.1 70.65 13.35 76.75 10.6 83.1 10.75"/><path fill="#0d131a" d="M87.05 43.3 Q85.75 43.05 81.65 44.45 76.85 46.0 74.25 48.25 L74.0 49.65 Q73.6 50.55 72.9 48.05 72.4 46.0 70.35 40.65 68.35 35.4 67.85 34.7 66.95 34.95 61.8 39.25 56.7 43.5 55.85 44.65 55.15 45.6 54.8 45.15 L54.65 44.5 Q52.15 38.65 48.05 34.8 44.9 31.85 43.55 31.85 42.95 32.0 40.6 36.15 38.65 39.75 37.8 41.65 36.7 44.15 36.25 44.05 35.85 43.95 36.65 41.8 35.5 40.4 30.05 37.1 24.5 33.75 23.55 34.0 23.3 34.3 23.2 39.05 L23.2 46.05 Q23.3 48.1 22.9 48.0 22.55 47.85 22.3 46.8 L21.75 43.8 Q20.55 42.95 17.8 42.05 L14.55 41.2 Q14.75 42.7 17.25 51.05 17.65 52.7 17.25 52.6 L16.75 52.15 14.35 55.95 Q11.55 60.6 9.25 65.5 1.95 81.0 2.2 92.75 2.55 109.55 15.6 121.85 27.9 133.45 43.5 134.1 62.8 134.9 76.35 125.0 90.7 114.45 91.9 96.25 92.4 89.0 92.2 81.25 92.05 73.85 91.4 68.95 L90.6 69.2 Q90.0 69.1 91.1 67.25 L94.9 59.7 98.3 52.25 94.6 52.6 Q91.8 53.15 88.95 54.15 88.55 58.2 88.2 59.3 87.75 60.55 87.7 56.6 87.6 45.3 87.05 43.3 M81.45 42.65 Q85.95 40.8 87.5 41.15 88.2 41.3 88.4 41.75 89.15 43.25 89.15 52.85 93.1 51.2 96.25 50.6 100.25 49.9 100.35 51.5 100.5 53.9 92.55 67.55 L92.55 67.7 Q93.6 72.9 94.05 80.75 94.5 89.15 93.95 96.25 92.45 115.85 77.8 126.6 64.05 136.7 43.65 135.95 26.8 135.35 14.2 124.15 0.25 111.8 0.0 92.75 -0.15 79.85 7.25 65.2 9.6 60.55 12.65 55.85 L15.8 51.2 12.85 42.75 Q11.9 39.95 12.3 39.4 12.8 38.75 15.95 39.7 18.85 40.55 21.5 41.95 L21.15 36.4 Q21.2 32.2 22.55 31.7 24.3 31.05 29.4 34.5 33.55 37.2 36.9 40.4 37.9 37.35 39.1 34.75 41.45 29.65 43.55 29.5 45.3 29.4 48.8 33.1 52.8 37.25 55.4 42.95 59.0 38.9 63.2 35.65 67.45 32.35 68.6 32.7 69.65 33.05 71.7 39.5 L73.9 46.8 Q76.95 44.55 81.45 42.65"/><path fill="#0d131a" d="M8.75 76.35 L9.0 79.1 Q6.8 85.2 5.25 92.45 3.7 99.7 3.45 105.15 L2.8 104.2 2.55 103.65 Q2.5 99.0 4.25 91.2 6.0 83.7 8.75 76.35"/><path fill="#0d131a" d="M34.95 54.05 Q36.15 53.3 35.9 54.45 L30.1 73.95 29.7 72.65 34.95 55.05 29.55 58.2 27.2 54.7 22.5 58.45 21.85 58.5 20.0 55.7 16.65 61.8 13.2 68.65 11.55 70.0 Q12.65 67.25 15.4 62.1 L19.3 55.1 Q19.85 54.15 20.2 54.85 L22.25 57.8 24.9 55.5 Q27.2 53.6 27.4 53.65 L29.75 57.25 32.35 55.7 34.95 54.05"/><path fill="#0d131a" d="M21.8 102.25 L22.6 103.5 Q21.05 110.05 20.45 116.3 19.8 123.35 20.75 127.2 L19.35 126.2 Q17.9 116.8 21.8 102.25"/><path fill="#0d131a" d="M26.8 86.45 L23.75 97.9 22.65 98.4 Q23.4 94.6 25.4 87.4 L26.8 86.45"/><path fill="#0d131a" d="M29.3 112.8 Q30.05 112.9 30.4 113.4 27.95 118.7 27.95 131.4 L26.85 130.75 Q26.35 126.5 27.05 121.4 27.75 116.25 29.3 112.8"/><path fill="#0d131a" d="M41.85 116.05 Q43.4 123.9 44.95 127.85 46.95 132.95 50.05 134.85 L48.4 135.0 Q45.35 132.65 43.45 127.95 41.85 123.95 40.4 116.35 41.05 115.9 41.85 116.05"/><path fill="#0d131a" d="M52.6 98.4 Q53.35 91.15 54.2 86.05 54.25 86.45 54.6 86.85 L55.25 87.65 Q54.5 92.15 53.8 99.15 52.85 98.8 52.6 98.4"/><path fill="#0d131a" d="M53.35 109.15 Q52.0 126.5 55.35 134.2 L54.4 134.6 Q52.2 130.75 51.65 125.15 51.05 119.55 51.85 110.75 L53.35 109.15"/><path fill="#0d131a" d="M74.5 89.15 L75.3 88.15 76.0 87.1 Q74.95 95.95 74.15 107.95 73.6 116.0 74.1 120.3 74.55 124.65 76.25 126.35 L75.65 127.15 Q74.05 125.75 73.4 122.65 72.75 119.5 72.75 112.9 72.75 110.2 72.9 107.65 73.65 96.6 74.5 89.15"/><path fill="#0d131a" d="M78.15 58.5 L79.1 58.4 79.25 59.45 77.15 77.95 76.3 75.75 78.3 59.45 73.0 61.7 69.4 56.35 65.0 60.7 64.6 61.0 64.2 60.8 61.2 58.0 59.7 64.8 58.35 71.5 56.55 72.95 58.4 65.1 Q59.65 59.65 60.4 57.2 L60.7 56.6 61.3 57.05 64.4 60.05 68.7 55.85 Q69.3 55.35 69.45 55.35 L70.05 55.85 73.25 60.8 78.15 58.5"/><path fill="#0d131a" d="M20.2 98.5 L21.2 98.35 Q22.55 104.05 27.0 109.2 31.6 114.45 36.2 115.35 40.85 116.2 47.1 112.85 53.95 109.2 58.4 102.4 L59.7 102.6 Q54.95 110.4 47.75 114.45 41.3 118.05 36.05 117.2 31.2 116.45 26.55 111.1 21.85 105.65 20.2 98.5"/><path fill="#0d131a" d="M27.4 95.85 L28.3 96.1 Q25.8 98.4 24.85 102.4 24.1 105.75 24.7 107.9 L23.65 106.9 Q23.0 104.65 23.75 101.8 24.65 98.4 27.4 95.85"/><path fill="#0d131a" d="M21.1 98.2 L28.65 93.9 Q36.0 89.75 39.35 90.15 42.95 90.6 50.4 96.1 57.65 101.4 58.0 101.4 58.9 101.35 60.7 100.5 L64.05 98.85 Q65.55 98.1 65.65 98.55 L64.65 99.9 Q60.2 103.85 57.85 103.05 L49.3 97.45 Q41.45 92.15 39.1 91.8 37.05 91.5 29.3 95.65 L20.85 99.9 Q19.55 99.9 17.9 97.95 16.55 96.35 15.8 94.65 15.35 93.65 15.5 93.4 15.7 93.05 16.7 94.2 L19.0 96.85 Q20.3 98.2 21.1 98.2"/><path fill="#0d131a" d="M28.55 72.05 Q26.5 68.2 22.4 67.1 18.35 66.05 14.65 68.45 10.95 70.85 9.8 75.25 8.65 79.65 10.7 83.55 12.8 87.4 16.85 88.5 20.75 89.45 24.25 87.4 28.3 84.95 29.45 80.35 30.6 75.95 28.55 72.05 M22.7 66.0 Q26.4 66.95 28.75 70.2 31.0 73.35 31.0 77.35 31.0 78.9 30.6 80.65 29.2 85.8 24.8 88.4 20.8 90.75 16.55 89.6 12.0 88.45 9.7 84.15 7.4 79.85 8.7 74.95 10.0 70.05 14.05 67.45 18.15 64.8 22.7 66.0"/><path fill="#0d131a" d="M14.8 81.05 Q13.5 79.0 14.15 76.4 14.8 74.0 16.85 72.75 18.9 71.45 21.15 72.05 23.3 72.6 24.45 74.55 25.3 75.95 25.3 77.6 L25.1 79.2 Q24.4 81.65 22.25 82.95 20.25 84.1 18.1 83.55 16.0 83.0 14.8 81.05"/><path fill="#0d131a" d="M73.4 73.15 Q70.1 69.75 65.4 69.75 60.7 69.75 57.4 73.15 54.05 76.55 54.05 81.35 54.05 86.15 57.4 89.55 60.7 92.95 65.4 92.95 70.1 92.95 73.4 89.55 76.75 86.15 76.75 81.35 76.75 76.55 73.4 73.15 M65.4 68.55 Q70.55 68.55 74.25 72.3 77.9 76.05 77.9 81.35 77.9 86.6 74.25 90.35 70.55 94.1 65.4 94.1 60.25 94.1 56.55 90.35 52.9 86.6 52.9 81.35 52.9 76.05 56.55 72.3 60.25 68.55 65.4 68.55"/><path fill="#0d131a" d="M59.3 81.35 Q59.3 78.8 61.1 77.0 62.9 75.2 65.4 75.2 67.9 75.2 69.7 77.0 71.5 78.8 71.5 81.35 71.5 83.85 69.7 85.7 67.9 87.5 65.4 87.5 62.9 87.5 61.1 85.7 59.3 83.85 59.3 81.35"/><path fill="#0d131a" d="M87.35 75.4 Q86.95 70.9 87.55 72.3 88.1 73.7 88.4 76.3 90.25 94.35 84.95 107.8 80.95 117.85 74.1 123.35 72.6 124.55 72.2 124.3 71.8 124.05 73.35 122.6 79.35 117.1 83.1 108.0 88.9 94.0 87.35 75.4"/><path fill="#e9eff8" d="M24.15 79.0 Q23.65 81.0 21.95 82.1 20.25 83.2 18.35 82.7 16.45 82.2 15.55 80.45 14.6 78.65 15.1 76.6 15.65 74.6 17.35 73.5 19.0 72.4 20.9 72.9 22.8 73.4 23.75 75.15 24.7 76.95 24.15 79.0"/><path fill="#e9eff8" d="M70.45 81.35 Q70.45 83.5 68.95 85.05 67.45 86.6 65.35 86.6 63.2 86.6 61.75 85.05 60.25 83.55 60.25 81.35 60.25 79.15 61.75 77.6 63.2 76.05 65.35 76.05 67.45 76.05 68.95 77.6 70.45 79.15 70.45 81.35"/><path fill="#ffffff" d="M62.2 76.25 Q61.4 77.4 60.15 77.8 L57.95 77.6 Q57.0 76.95 56.9 75.7 56.8 74.45 57.65 73.25 58.5 72.1 59.7 71.7 L61.9 71.9 Q62.85 72.55 62.95 73.8 63.0 75.1 62.2 76.25"/><path fill="#ffffff" d="M16.7 73.15 Q15.55 74.0 14.35 73.95 13.2 73.9 12.7 73.0 12.2 72.1 12.7 70.9 13.2 69.65 14.35 68.8 15.5 67.95 16.7 68.0 17.85 68.05 18.35 68.95 18.85 69.85 18.35 71.1 17.85 72.35 16.7 73.15"/></g></svg>