<?xml version='1.0' encoding='utf-8'?>
<svg xmlns="http://www.w3.org/2000/svg" version="1.1" width="303px" height="173px" viewBox="-1.35 -0.75 302.85 173.35"><g><path fill="#ffffff" d="M249.65 80.3 Q266.1 74.65 275.95 73.55 301.5 70.75 297.25 81.5 289.35 101.15 240.75 113.35 224.2 117.5 205.2 120.2 L183.65 122.5 188.1 121.4 Q192.8 120.15 194.3 119.3 195.75 119.95 197.4 119.9 200.0 119.85 201.7 118.0 209.2 115.9 214.65 108.4 220.15 100.85 220.5 92.05 234.95 85.35 249.65 80.3"/><path fill="#f2984f" d="M247.15 95.55 L260.4 76.9 Q269.75 74.25 275.95 73.55 L286.4 73.0 Q259.05 105.85 256.15 108.95 245.75 112.4 233.25 115.15 L247.15 95.55"/><path fill="#0d131a" d="M276.05 74.15 Q266.15 75.25 249.65 80.9 235.05 85.95 220.75 92.55 220.55 92.65 220.3 91.9 220.0 91.2 220.25 91.1 234.85 84.3 249.45 79.2 266.35 73.35 276.25 72.25 294.25 70.25 297.9 75.0 298.75 76.15 298.85 78.15 298.95 80.1 298.25 81.95 290.1 102.05 242.05 114.1 225.5 118.25 206.35 120.85 L183.7 123.1 Q183.45 123.1 183.4 122.5 183.4 121.9 183.65 121.9 L205.15 119.6 Q224.2 116.9 240.55 112.8 260.95 107.65 274.5 100.95 292.35 92.1 296.7 81.25 297.9 78.2 296.55 76.5 293.45 72.25 276.05 74.15"/><path fill="#0d131a" d="M259.55 76.85 L261.35 76.5 234.35 114.8 233.35 115.1 232.65 115.0 245.2 96.75 Q257.5 79.05 259.55 76.85"/><path fill="#0d131a" d="M286.0 72.5 L286.95 72.4 287.55 72.75 Q264.4 101.1 256.95 109.15 256.6 109.5 255.7 109.45 254.8 109.45 255.05 109.25 L270.45 91.15 286.0 72.5"/><path fill="#ffffff" d="M204.5 130.2 Q193.3 128.95 181.45 125.75 L183.9 121.9 186.15 118.3 Q226.75 108.5 245.75 108.6 259.35 108.7 261.2 113.85 263.15 119.25 256.8 124.3 249.15 130.4 233.3 131.0 217.2 131.55 204.5 130.2"/><path fill="#f2984f" d="M237.2 130.9 L233.3 131.0 220.2 131.3 Q234.3 111.8 236.5 108.95 241.65 108.5 248.35 108.85 L254.3 109.25 237.2 130.9"/><path fill="#dbdcdc" d="M201.95 129.95 Q191.55 128.45 181.45 125.75 L183.65 122.5 Q183.95 121.45 185.4 119.8 186.95 117.95 187.95 117.8 194.35 122.2 213.3 130.8 L201.95 129.95"/><path fill="#0d131a" d="M235.55 109.15 Q235.75 108.95 236.7 108.85 L237.5 108.9 229.4 120.15 Q221.75 130.9 220.9 131.7 L220.15 131.7 Q219.5 131.6 219.65 131.4 L227.25 120.65 235.55 109.15"/><path fill="#0d131a" d="M237.7 131.4 L236.95 131.3 Q236.4 131.0 236.6 130.85 237.45 130.15 253.0 109.5 253.2 109.3 254.05 109.5 254.9 109.65 254.7 109.85 239.35 130.1 237.7 131.4"/><path fill="#0d131a" d="M233.4 131.85 Q218.15 132.4 205.75 131.1 193.5 129.8 180.7 126.35 180.45 126.3 181.0 125.75 181.5 125.25 181.65 125.3 194.1 128.6 206.4 129.8 218.2 130.95 233.3 130.4 243.4 130.05 250.35 127.15 257.35 124.3 259.55 119.6 262.2 114.05 256.8 111.35 251.15 108.5 237.7 109.55 226.0 110.55 209.45 113.9 L211.4 112.15 Q226.3 109.2 237.55 108.2 254.5 106.6 260.0 111.1 264.1 114.45 261.3 120.35 259.45 124.15 254.35 127.0 246.55 131.35 233.4 131.85"/><path fill="#ffffff" d="M139.85 95.75 Q134.25 97.35 130.15 100.45 L127.15 103.2 Q103.7 92.05 81.6 79.95 45.0 60.0 30.6 47.05 21.8 39.15 16.3 29.15 11.0 19.4 11.1 11.9 11.25 3.9 17.75 1.85 25.1 -0.5 39.0 5.5 65.75 17.05 93.95 42.5 118.75 64.9 138.85 92.45 L139.85 95.75"/><path fill="#f2984f" d="M30.6 47.05 Q26.3 43.2 22.55 38.5 L23.2 37.0 30.2 19.2 35.95 4.25 39.0 5.5 Q51.7 10.95 64.9 19.75 L51.6 49.7 47.15 59.5 Q37.0 52.8 30.6 47.05"/><path fill="#dbdcdc" d="M115.35 97.65 Q106.75 93.45 95.45 87.4 L118.65 88.75 135.25 87.95 Q137.15 89.8 137.95 91.15 138.95 92.8 139.75 95.65 133.6 97.2 129.75 100.35 L127.15 103.2 115.35 97.65"/><path fill="#0d131a" d="M138.65 90.95 L139.2 93.95 Q119.6 66.95 95.15 44.5 66.15 17.9 38.8 6.05 29.1 1.9 22.5 1.85 15.95 1.75 13.35 5.85 9.35 12.05 14.75 24.45 20.1 36.8 31.0 46.6 45.95 60.05 85.4 81.3 106.95 92.95 127.65 102.75 127.9 102.85 127.3 103.35 126.7 103.85 126.45 103.75 102.6 92.45 81.05 80.75 43.9 60.6 29.3 47.5 17.85 37.25 12.4 24.35 6.95 11.5 11.2 4.8 13.7 0.85 19.9 0.15 27.85 -0.75 39.6 4.3 66.5 15.9 94.2 40.9 119.2 63.45 138.65 90.95"/><path fill="#0d131a" d="M35.25 3.9 L36.0 3.85 Q36.7 4.05 36.6 4.25 23.9 37.2 23.05 38.8 22.95 39.05 22.4 38.8 21.9 38.55 22.0 38.3 L28.1 22.05 Q34.15 6.0 35.25 3.9"/><path fill="#0d131a" d="M64.35 19.55 Q64.45 19.35 65.1 19.55 65.75 19.75 65.65 19.95 L47.8 59.75 47.15 59.7 Q46.65 59.4 46.75 59.2 L55.0 40.3 Q63.35 21.25 64.35 19.55"/><path fill="#ffffff" d="M1.7 44.0 Q5.35 36.05 17.25 36.45 28.55 36.8 41.7 44.3 65.7 55.95 99.5 78.5 125.35 95.75 129.95 99.9 127.75 102.3 126.4 104.4 124.95 106.6 124.1 108.9 65.6 98.6 28.55 77.65 11.1 67.75 4.45 58.25 -1.2 50.2 1.7 44.0"/><path fill="#f2984f" d="M24.8 37.4 Q32.85 40.25 38.05 42.55 44.65 45.5 51.9 49.9 L44.85 66.7 38.2 82.75 Q33.35 80.3 28.55 77.65 19.7 72.65 13.3 67.4 L19.0 52.45 24.8 37.4"/><path fill="#dbdcdc" d="M103.1 97.6 L122.4 94.5 129.95 99.9 Q127.55 102.3 126.15 104.4 124.75 106.55 124.1 108.9 113.3 106.95 79.7 99.0 89.9 99.35 103.1 97.6"/><path fill="#0d131a" d="M23.9 37.65 L24.8 37.6 Q25.6 37.75 25.5 38.0 L13.7 68.1 Q13.65 68.35 13.1 67.95 12.6 67.55 12.65 67.3 13.7 63.65 18.65 50.85 L23.9 37.65"/><path fill="#0d131a" d="M38.6 83.35 L37.95 83.4 Q37.4 83.15 37.5 82.95 38.5 80.05 42.1 71.75 L51.6 49.7 Q51.7 49.45 52.25 49.9 52.85 50.3 52.75 50.5 L38.6 83.35"/><path fill="#0d131a" d="M24.6 38.35 Q17.95 36.4 11.8 37.7 4.75 39.15 2.75 44.4 0.45 50.5 6.05 58.5 12.65 67.95 28.85 77.15 65.6 97.95 124.4 108.3 124.65 108.35 124.35 108.9 L123.85 109.45 Q95.1 104.95 70.4 96.95 46.4 89.2 27.9 78.75 8.4 67.7 2.4 56.4 -1.35 49.3 0.6 44.1 3.15 37.4 11.05 35.75 17.5 34.35 24.95 36.55 41.6 41.35 73.1 60.35 103.25 78.5 130.75 99.7 131.0 99.9 130.5 100.55 129.95 101.15 129.7 100.95 102.5 80.05 72.35 61.95 41.15 43.25 24.6 38.35"/><path fill="#e95550" d="M73.3 129.5 Q68.15 128.85 64.7 126.1 61.35 123.3 61.45 119.95 49.45 118.85 40.15 116.25 28.05 112.85 28.4 108.55 28.7 105.0 42.55 109.1 L63.05 116.1 Q64.85 114.2 68.1 113.4 L75.3 113.05 Q81.1 113.75 84.4 116.8 92.6 115.25 98.05 115.65 103.5 116.05 104.5 118.35 105.25 120.15 99.85 120.85 94.6 121.55 86.85 120.85 L86.9 122.6 Q86.45 126.15 82.6 128.15 78.65 130.15 73.3 129.5"/><path fill="#e95550" d="M184.4 120.95 Q182.9 125.0 178.45 128.2 173.9 131.5 169.4 131.65 L169.45 131.7 Q168.8 133.6 165.35 134.4 L157.1 134.85 Q153.6 135.2 141.15 138.85 130.1 142.1 122.1 142.1 111.1 142.1 97.9 138.45 85.0 134.85 77.2 129.8 73.55 127.45 72.8 125.05 72.1 122.9 73.75 121.35 75.35 119.85 78.15 119.55 81.15 119.3 83.95 120.6 89.95 123.45 102.25 124.0 118.45 124.75 123.6 117.15 122.35 109.2 127.7 102.9 133.0 96.75 141.7 95.6 L168.05 108.95 184.4 120.95"/><path fill="#ffffff" d="M78.75 113.75 Q75.85 112.75 74.15 113.1 74.05 111.6 73.0 109.4 72.15 107.45 76.65 109.8 80.95 112.0 81.3 114.8 L78.75 113.75"/><path fill="#ffffff" d="M66.95 113.9 L65.1 114.75 Q63.45 115.65 62.75 116.2 L60.65 115.15 Q60.35 112.65 61.5 110.8 62.65 109.0 63.4 110.1 L64.75 111.6 66.95 113.9"/><path fill="#6fb92c" d="M163.35 52.65 Q168.65 52.3 175.25 55.75 182.9 59.75 186.6 66.6 192.55 77.55 194.8 79.25 199.75 82.95 207.5 75.15 210.1 72.6 210.8 67.9 L210.95 63.75 Q216.5 68.4 219.15 76.65 221.75 84.7 220.6 93.25 219.4 102.3 214.3 108.75 208.6 115.95 199.2 118.3 L168.25 111.15 Q165.9 112.25 163.6 112.45 151.9 113.4 144.0 103.25 136.0 92.95 138.35 79.0 140.35 67.0 148.2 59.75 154.9 53.5 163.35 52.65"/><path fill="#e95550" d="M167.3 111.5 L170.55 109.95 Q174.15 108.0 175.6 105.95 L178.5 105.9 182.7 105.75 Q185.5 105.5 182.45 109.65 179.35 113.85 174.8 115.5 L169.8 115.25 Q167.15 114.0 167.3 111.5"/><path fill="#e95550" d="M221.3 35.05 Q222.7 36.0 218.35 47.7 214.6 57.95 211.1 64.75 210.9 70.1 207.6 75.0 203.55 81.0 197.6 80.25 194.5 79.85 192.75 77.4 192.05 76.45 189.85 71.6 185.35 61.75 175.35 56.2 171.2 53.9 167.05 53.05 L163.9 52.65 Q166.8 51.0 169.4 50.2 172.25 49.3 175.8 49.0 175.2 39.65 176.1 31.4 176.9 23.85 178.05 23.7 179.35 23.5 182.9 30.95 186.55 38.6 190.45 50.0 193.7 50.85 195.85 51.8 198.15 52.85 201.1 54.9 207.35 47.1 212.45 41.7 219.75 33.95 221.3 35.05"/><path fill="#2f8097" d="M162.55 141.75 Q163.05 137.2 162.85 134.55 L164.4 134.4 Q166.1 134.15 167.1 133.55 L167.45 145.8 Q168.1 147.5 173.55 151.0 179.0 154.45 179.15 154.95 179.6 156.35 178.75 159.5 177.85 162.65 176.95 162.9 L175.5 160.25 174.4 161.25 172.75 162.1 Q170.6 156.35 165.95 151.45 161.9 147.2 161.95 146.6 L162.55 141.75"/><path fill="#2f8097" d="M174.7 146.5 Q173.75 145.8 171.85 140.35 169.8 134.5 169.85 131.35 170.9 131.8 173.85 130.45 173.7 132.7 175.05 137.05 176.35 141.15 177.4 142.6 178.6 144.25 184.85 147.4 191.95 150.95 194.4 153.05 196.45 154.85 197.75 159.5 199.1 164.3 197.95 166.45 L195.15 164.05 191.8 166.25 Q189.05 158.0 183.6 152.95 L174.7 146.5"/><path fill="#2f8097" d="M186.5 145.95 Q184.8 145.55 180.85 138.3 176.65 130.55 175.45 129.75 L176.95 129.25 Q178.7 128.45 179.75 127.1 180.4 129.7 183.45 134.4 186.3 138.85 187.75 139.85 190.25 141.7 200.85 144.95 210.05 147.75 215.6 148.8 218.55 149.35 221.3 154.35 223.95 159.15 223.2 161.55 L218.5 160.5 218.5 160.45 217.7 163.4 Q217.05 164.75 216.45 164.7 215.55 161.75 212.45 158.5 209.5 155.4 206.7 154.2 189.85 146.75 186.5 145.95"/><path fill="#e95550" d="M184.45 98.4 Q192.3 92.75 200.25 96.5 204.1 98.3 203.1 107.1 202.15 115.5 199.05 117.9 196.25 119.45 194.25 119.2 188.3 122.05 181.9 120.75 173.8 119.1 169.1 110.8 172.55 108.55 177.35 104.35 182.65 99.7 184.45 98.4"/><path fill="#c94844" d="M72.05 124.7 Q73.05 127.35 76.55 129.65 L73.3 129.5 Q68.15 128.85 64.7 126.1 61.35 123.3 61.45 119.95 L63.7 120.0 66.05 120.0 Q67.25 122.7 72.05 124.7"/><path fill="#5fa124" d="M166.35 107.65 Q172.15 108.0 175.45 105.95 171.8 109.55 167.8 111.3 165.5 112.3 163.6 112.45 158.1 112.9 152.8 110.45 147.45 107.9 143.75 103.0 135.1 91.6 139.55 74.65 139.4 95.7 154.35 104.1 160.0 107.3 166.35 107.65"/><path fill="#1e6579" d="M168.1 146.8 Q167.05 146.8 166.65 147.2 165.4 148.75 165.15 150.6 L162.85 148.25 Q161.9 147.2 161.95 146.6 L162.55 141.75 Q163.05 137.2 162.85 134.55 L164.4 134.4 Q166.1 134.15 167.1 133.55 L167.45 145.8 168.1 146.8"/><path fill="#1e6579" d="M174.7 146.5 Q173.75 145.8 171.85 140.35 169.8 134.5 169.85 131.35 170.9 131.8 173.85 130.45 173.7 132.7 175.05 137.05 176.35 141.15 177.4 142.6 L179.0 144.15 Q177.1 146.45 178.5 149.05 L174.7 146.5"/><path fill="#1e6579" d="M186.5 145.95 Q184.8 145.55 180.85 138.3 176.65 130.55 175.45 129.75 L176.95 129.25 Q178.7 128.45 179.75 127.1 180.4 129.7 183.45 134.4 186.3 138.85 187.75 139.85 189.3 140.95 193.6 142.55 194.3 146.55 198.45 150.55 189.0 146.55 186.5 145.95"/><path fill="#c94844" d="M195.5 117.25 L194.25 119.2 Q189.3 121.55 184.65 121.4 178.55 121.2 173.85 116.5 171.8 117.05 169.5 115.35 167.2 113.6 167.3 111.5 L169.65 110.45 172.5 108.4 Q173.25 110.05 174.9 111.3 176.7 112.7 179.2 113.3 181.3 115.95 186.15 117.0 L195.5 117.25"/><path fill="#c94844" d="M77.2 129.8 Q75.7 128.85 73.9 126.95 L71.75 124.2 Q87.7 130.45 103.2 131.9 120.2 133.55 131.5 128.8 136.75 131.25 145.15 133.2 L155.65 135.05 Q153.2 135.4 140.3 139.1 129.95 142.1 122.1 142.1 111.1 142.1 97.9 138.45 85.0 134.85 77.2 129.8"/><path fill="#c94844" d="M179.75 127.1 Q177.5 128.75 174.45 130.15 171.1 131.7 169.4 131.65 169.05 135.5 156.45 134.9 143.4 134.25 133.6 129.2 127.3 126.0 124.65 121.1 121.9 115.9 123.45 109.35 123.6 116.45 136.85 117.85 L148.6 118.5 159.6 119.55 Q165.85 120.8 172.9 124.85 178.15 127.9 179.75 127.1"/><path fill="#c94844" d="M48.1 118.1 Q28.4 114.85 27.75 108.45 38.5 116.1 63.65 118.6 L67.6 119.3 Q69.1 119.8 67.65 120.1 57.95 119.75 48.1 118.1"/><path fill="#c94844" d="M179.05 41.2 Q181.5 53.45 181.35 54.65 181.1 56.6 178.4 55.35 175.75 54.1 175.7 52.3 175.65 48.35 175.95 40.75 L176.4 31.3 Q176.55 29.0 179.05 41.2"/><path fill="#c94844" d="M211.8 45.75 L206.2 56.25 Q203.55 60.7 202.5 60.75 201.5 60.85 200.45 59.35 199.25 57.7 200.15 56.3 202.9 52.15 209.7 44.95 L212.7 42.0 Q214.35 40.8 211.8 45.75"/><path fill="#5fa124" d="M208.9 113.95 Q204.75 117.1 201.85 117.65 L202.3 115.1 Q202.65 112.3 201.9 111.15 202.9 112.65 205.6 112.8 208.7 112.95 212.5 110.9 L208.9 113.95"/><path fill="#c94844" d="M86.7 119.75 L95.1 119.6 Q103.6 119.05 104.2 117.35 105.2 118.45 104.4 119.45 103.4 120.75 99.8 121.1 L91.0 121.35 86.9 121.1 86.7 119.75"/><path fill="#0d131a" d="M220.25 93.4 Q219.4 100.65 216.1 105.55 215.3 106.7 214.3 106.6 213.3 106.45 212.6 105.05 210.85 101.5 212.45 94.15 213.9 87.35 217.05 85.3 218.3 84.45 219.25 84.95 220.2 85.45 220.4 87.15 L220.25 93.4"/><path fill="#0d131a" d="M175.85 49.9 Q169.95 50.5 165.6 52.5 L164.15 52.5 163.3 52.2 Q168.7 49.3 175.75 48.3 L175.85 49.9"/><path fill="#0d131a" d="M201.5 54.3 L200.6 55.5 Q196.35 52.75 191.4 51.35 L190.65 49.25 Q196.45 50.85 201.5 54.3"/><path fill="#0d131a" d="M210.9 64.65 L211.25 63.35 Q217.35 69.0 220.1 78.9 222.85 89.0 220.55 98.2 218.55 106.35 213.0 111.85 207.6 117.25 199.6 119.3 199.3 119.4 199.25 118.5 199.25 117.65 199.65 117.55 208.35 115.2 213.55 108.45 217.15 103.75 218.75 97.45 220.9 88.6 218.7 79.35 216.45 70.1 210.9 64.65"/><path fill="#0d131a" d="M183.25 110.2 L184.15 109.15 Q187.45 110.55 191.95 111.2 L197.8 111.45 Q197.95 111.25 197.9 111.9 L197.6 112.65 Q196.15 113.15 192.05 112.65 187.1 112.05 183.25 110.2"/><path fill="#0d131a" d="M173.05 116.75 L174.6 116.45 Q178.4 119.65 183.6 120.45 190.05 121.4 195.2 117.65 195.4 117.5 195.3 118.35 L194.95 119.35 Q189.6 123.05 183.05 121.95 177.15 120.9 173.05 116.75"/><path fill="#0d131a" d="M186.5 105.1 Q186.95 106.25 183.8 110.6 180.1 115.6 175.8 117.15 L172.05 117.35 Q170.15 117.0 168.65 115.85 167.8 115.2 167.25 114.05 166.75 113.0 166.7 111.9 168.05 111.15 168.0 111.5 167.95 113.25 169.45 114.35 170.6 115.25 172.3 115.5 L175.4 115.2 Q179.1 113.9 182.35 110.15 185.25 106.85 184.9 105.95 184.55 105.2 176.15 106.15 175.9 106.15 176.65 105.45 L177.45 104.7 181.8 104.4 Q186.2 104.3 186.5 105.1"/><path fill="#0d131a" d="M217.55 47.65 Q221.65 36.25 220.65 35.5 219.65 34.8 212.85 42.2 207.05 48.45 201.5 55.55 199.65 57.95 199.5 57.1 199.35 56.3 201.15 53.85 205.8 47.65 211.8 41.2 220.15 32.2 221.8 33.75 223.35 35.2 218.8 47.9 215.25 57.85 211.95 64.75 210.55 73.05 206.55 77.5 203.0 81.45 198.55 81.2 193.4 81.05 189.7 73.6 183.15 60.15 173.3 55.5 164.65 51.4 156.65 55.15 149.85 58.35 145.4 64.4 140.75 70.75 139.3 79.35 138.05 86.7 140.0 93.4 141.9 100.1 146.55 105.05 149.8 108.55 154.35 110.2 158.75 111.85 163.55 111.45 167.15 111.15 170.9 108.65 L177.65 103.05 Q183.7 97.45 186.6 95.75 192.0 92.65 197.55 94.05 199.6 94.6 201.1 96.15 202.55 97.6 203.25 99.75 204.7 104.15 203.0 110.75 201.45 116.65 198.75 120.0 198.6 120.2 198.15 119.8 197.65 119.45 197.8 119.25 200.3 116.15 201.7 110.6 203.3 104.4 201.95 100.3 200.7 96.7 197.3 95.8 192.1 94.45 187.1 97.2 184.05 98.9 178.45 104.15 L171.55 110.1 Q167.45 112.95 163.65 113.25 158.75 113.65 154.0 111.8 149.35 109.95 145.65 106.25 140.65 101.3 138.4 94.15 136.05 86.8 137.35 79.15 140.45 60.75 155.6 54.05 165.55 49.7 175.25 54.85 185.1 60.1 191.5 73.5 194.7 80.2 199.3 79.8 203.35 79.5 206.4 75.75 209.8 71.55 210.75 64.45 213.95 57.6 217.55 47.65"/><path fill="#0d131a" d="M177.8 22.7 Q180.2 22.35 185.55 35.4 188.2 41.85 193.2 56.35 194.35 59.75 193.45 59.45 192.5 59.1 191.3 55.5 180.8 24.3 178.2 25.05 176.1 25.7 176.65 50.45 176.7 53.2 175.9 53.6 175.15 54.0 175.1 50.7 174.75 23.15 177.8 22.7"/><path fill="#0d131a" d="M166.0 133.6 Q168.4 132.85 168.85 131.5 168.95 131.3 169.5 131.5 170.1 131.65 170.0 131.9 169.3 133.8 166.35 134.75 159.95 136.7 147.95 134.65 135.35 132.5 128.95 127.7 124.9 124.65 123.15 119.65 121.35 114.6 122.75 109.8 124.5 103.7 129.05 99.95 133.25 96.5 139.55 95.15 L139.95 96.5 Q133.85 97.8 129.55 102.05 125.7 105.85 124.45 110.6 123.3 115.1 124.75 119.2 126.2 123.35 129.9 126.15 136.05 130.75 148.25 133.15 160.0 135.45 166.0 133.6"/><path fill="#0d131a" d="M184.3 121.1 L184.95 121.15 Q183.75 124.35 180.95 127.25 178.05 130.35 174.55 131.7 171.95 132.75 169.3 132.7 166.8 132.65 164.75 131.65 160.65 129.65 156.2 128.95 150.15 127.95 141.65 128.95 136.6 129.55 131.15 126.4 125.6 123.2 123.95 118.65 123.65 117.9 123.7 116.05 123.7 114.05 123.8 114.65 123.85 119.35 129.8 123.85 135.9 128.45 141.55 127.55 L155.45 127.1 Q160.3 127.75 165.25 130.2 168.85 132.05 173.9 130.05 177.0 128.8 179.65 126.45 182.3 124.1 183.5 121.45 183.6 121.25 184.3 121.1"/><path fill="#0d131a" d="M77.5 120.25 Q74.6 120.75 73.55 122.55 72.75 124.05 73.75 125.8 74.8 127.55 77.5 129.3 85.5 134.45 98.4 137.95 111.3 141.5 122.1 141.5 127.65 141.5 133.85 140.15 L144.25 137.3 Q151.2 135.25 154.2 134.7 156.6 134.25 160.2 135.35 154.1 135.65 144.6 138.5 138.15 140.75 134.5 141.7 128.15 143.45 121.65 143.4 110.95 143.35 97.75 139.4 84.9 135.6 76.65 130.3 72.7 127.75 71.7 125.3 70.95 123.55 71.7 122.2 72.95 119.95 76.65 119.2 80.6 118.35 84.2 120.05 90.1 122.85 102.5 123.2 118.55 123.65 123.3 116.0 124.0 117.7 123.6 118.2 117.95 125.45 101.9 124.65 89.85 124.0 83.65 121.15 80.6 119.7 77.5 120.25"/><path fill="#0d131a" d="M75.25 113.65 L68.4 113.95 Q65.35 114.65 63.65 116.35 62.75 116.25 62.5 115.85 64.4 113.7 67.9 112.7 71.45 111.7 75.6 112.2 79.0 112.65 81.75 114.1 84.35 115.5 85.95 117.55 87.35 119.3 87.5 121.4 86.85 121.05 86.25 121.0 86.05 119.65 85.0 118.3 83.6 116.45 81.05 115.25 78.5 114.05 75.25 113.65"/><path fill="#0d131a" d="M76.35 129.05 L77.85 130.15 Q75.35 130.4 72.85 130.1 65.15 129.15 61.95 125.1 60.25 122.95 60.45 119.85 L62.05 120.3 Q62.15 122.25 63.5 124.0 65.0 125.9 67.65 127.2 70.25 128.55 73.4 128.9 L76.35 129.05"/><path fill="#0d131a" d="M44.6 109.0 Q53.45 111.65 62.5 115.3 64.65 116.1 65.15 116.9 65.65 117.7 63.5 116.9 54.6 113.5 46.1 110.85 29.25 105.55 29.0 108.6 28.85 109.7 29.9 110.8 33.3 114.55 47.0 117.3 58.4 119.55 66.9 119.65 69.35 119.7 68.0 120.3 L64.2 120.85 Q55.95 120.75 45.3 118.5 32.1 115.7 28.4 111.6 26.55 109.55 26.7 108.2 27.1 103.65 44.6 109.0"/><path fill="#0d131a" d="M105.85 118.1 Q106.25 118.95 105.7 119.7 104.6 121.25 98.65 121.65 93.4 122.05 86.95 121.45 86.7 121.4 86.75 120.8 86.8 120.2 87.05 120.25 94.0 120.9 99.35 120.3 104.4 119.75 103.95 118.6 103.15 116.75 98.75 116.3 93.55 115.75 84.75 117.5 84.55 117.6 84.4 117.0 84.3 116.4 84.5 116.35 93.2 114.6 98.95 115.1 104.75 115.55 105.85 118.1"/><path fill="#0d131a" d="M72.65 109.85 Q72.2 108.45 72.35 108.3 L74.75 108.6 Q77.1 109.2 79.3 110.9 81.8 112.9 82.05 114.95 L81.4 114.8 80.55 114.1 Q79.75 112.5 77.45 111.05 75.35 109.65 73.65 109.4 74.5 111.45 74.65 112.65 L74.05 112.75 Q73.45 112.75 73.4 112.55 L72.65 109.85"/><path fill="#0d131a" d="M61.75 110.0 Q62.6 109.15 63.0 109.2 L63.9 110.0 Q65.35 112.15 67.35 113.45 67.65 113.6 66.15 114.0 64.3 112.45 62.9 110.45 L62.45 110.8 Q61.25 112.2 61.25 114.7 L61.3 115.6 Q60.0 115.0 60.05 114.65 60.05 111.7 61.75 110.0"/><path fill="#0d131a" d="M91.4 122.65 L93.55 123.1 Q95.2 123.75 94.7 123.65 92.4 123.3 89.4 124.4 86.1 125.65 85.25 127.7 84.55 129.4 85.65 131.45 86.8 133.65 89.75 135.6 86.85 134.95 86.25 134.35 82.4 130.65 83.8 127.35 84.55 125.55 86.9 124.2 89.0 123.0 91.4 122.65"/><path fill="#0d131a" d="M106.35 124.1 L108.0 124.05 108.95 124.25 Q106.2 125.05 104.8 126.65 103.4 128.25 103.7 130.25 104.25 134.0 109.2 137.45 114.75 141.25 122.15 141.75 L117.45 142.15 Q111.15 140.85 106.95 137.55 102.95 134.4 102.4 130.65 102.1 128.65 103.15 126.9 104.2 125.15 106.35 124.1"/><path fill="#0d131a" d="M166.5 134.15 Q166.5 133.85 167.25 133.45 167.95 133.05 167.95 133.3 L168.05 145.65 Q168.5 146.7 171.0 148.35 L175.6 151.2 179.0 153.45 180.3 154.75 180.5 156.05 Q180.5 157.35 179.8 159.5 L178.6 162.55 Q178.0 163.65 177.4 163.85 176.85 164.05 176.6 163.6 L175.35 161.3 173.15 162.9 Q172.25 163.35 172.0 162.7 169.25 155.5 163.9 150.25 L161.95 148.3 Q161.1 147.4 161.15 146.7 L161.4 144.8 162.0 140.2 Q162.4 137.05 162.25 135.1 162.25 134.9 162.95 134.8 163.6 134.7 163.6 135.15 163.6 138.7 162.75 144.8 L162.55 146.6 162.55 146.65 Q162.55 147.1 164.75 149.4 167.35 151.95 168.9 154.0 171.5 157.4 173.05 161.3 L174.85 160.15 176.1 160.2 177.1 161.95 178.15 159.3 Q178.7 157.4 178.7 156.05 L178.6 155.15 174.75 152.45 169.85 149.2 Q167.4 147.35 166.9 146.0 L166.85 145.8 166.5 134.15"/><path fill="#0d131a" d="M173.2 130.8 Q173.2 130.7 173.85 130.5 174.45 130.25 174.45 130.5 174.3 132.65 175.65 136.95 176.9 140.9 177.85 142.25 178.6 143.3 180.8 144.6 182.05 145.35 185.4 147.0 192.65 150.6 195.25 152.8 197.5 154.7 198.7 159.7 199.95 164.75 198.65 167.15 198.3 167.75 197.75 167.3 L195.05 164.9 192.15 167.2 191.35 167.55 190.85 166.8 Q188.45 159.6 184.5 155.05 181.75 151.9 177.05 148.85 L174.05 146.85 Q173.0 146.05 171.25 140.85 169.45 135.4 169.25 132.0 169.25 131.85 169.85 131.65 L170.45 131.5 Q170.45 134.6 172.45 140.25 174.25 145.4 175.05 146.0 L177.75 147.85 Q182.75 151.1 185.35 153.85 189.65 158.45 192.15 165.4 L194.45 163.8 Q194.85 163.45 195.15 163.45 L195.8 163.8 197.65 165.4 197.85 163.9 Q197.85 161.3 196.65 158.05 195.4 154.75 194.0 153.5 191.45 151.35 184.9 148.1 L180.0 145.5 Q177.75 144.15 176.9 142.95 175.85 141.55 174.6 137.6 173.2 133.3 173.2 130.8"/><path fill="#0d131a" d="M179.3 127.65 L179.85 126.9 Q180.45 126.25 180.5 126.5 180.9 129.0 183.95 133.85 186.75 138.4 188.1 139.35 190.55 141.15 201.25 144.2 210.3 146.8 216.1 147.85 218.75 148.4 221.75 153.1 223.0 155.2 223.7 157.75 224.45 160.45 224.0 161.95 223.8 162.5 223.3 162.35 L219.15 161.3 Q218.8 163.3 217.85 164.8 217.0 166.05 216.6 166.1 216.15 166.2 215.9 165.25 215.4 163.7 212.3 160.15 208.85 156.2 206.45 155.15 L204.6 154.35 Q189.1 147.4 186.25 146.75 185.0 146.5 183.35 143.9 L179.65 137.35 Q176.45 131.45 174.85 130.35 174.65 130.25 175.4 129.9 L176.35 129.75 Q177.65 131.1 180.7 136.75 185.2 145.05 186.65 145.4 190.0 146.15 205.1 152.85 L206.95 153.65 Q209.65 154.85 212.55 157.8 215.6 160.85 216.75 163.8 L217.1 163.2 Q217.55 162.25 217.8 160.95 217.95 160.25 218.25 160.1 L219.3 160.05 222.7 160.85 222.7 160.65 Q222.7 159.4 222.05 157.55 L220.3 153.9 Q217.85 149.9 215.45 149.4 209.75 148.3 200.55 145.5 189.95 142.25 187.4 140.35 185.9 139.25 183.1 134.95 180.1 130.4 179.3 127.65"/><path fill="#0d131a" d="M164.5 69.65 Q167.6 69.8 169.5 73.85 171.35 77.8 171.05 83.4 170.8 88.8 168.35 92.45 165.9 96.1 162.65 96.15 159.1 96.25 157.05 92.4 155.0 88.5 155.35 82.25 155.6 76.75 158.2 73.1 160.85 69.45 164.5 69.65"/><path fill="#ffffff" d="M217.85 86.75 Q218.65 86.8 219.15 88.0 219.65 89.25 219.5 91.3 219.35 93.3 218.6 94.65 217.85 95.9 217.1 95.85 215.95 95.8 215.4 94.2 214.8 92.6 215.2 90.65 215.55 88.8 216.3 87.7 217.0 86.65 217.85 86.75"/><path fill="#ffffff" d="M162.85 71.3 Q164.1 71.4 164.95 73.1 165.75 74.8 165.65 77.2 165.6 79.55 164.6 81.15 163.6 82.75 162.25 82.7 160.7 82.65 159.9 81.0 159.1 79.4 159.15 76.7 159.25 74.45 160.35 72.85 161.45 71.25 162.85 71.3"/><path fill="#2f8097" d="M130.2 117.6 Q131.05 117.1 132.0 117.3 132.95 117.5 133.3 118.2 134.2 120.0 129.9 122.2 L121.15 127.3 Q115.7 130.5 112.15 131.4 108.65 137.6 104.95 142.1 100.7 147.25 99.4 149.3 98.05 151.45 97.35 154.45 L96.2 159.05 Q93.35 158.05 92.1 153.4 L90.6 154.95 89.1 156.95 Q88.5 155.95 88.15 154.5 87.6 152.5 87.85 150.75 88.15 148.45 90.65 146.15 L98.85 139.05 Q102.15 136.0 105.6 131.05 108.25 127.3 109.15 127.15 112.35 126.7 119.55 123.25 124.65 120.8 130.2 117.6"/><path fill="#1e6579" d="M92.0 153.75 L89.05 157.7 Q86.9 153.55 87.1 150.95 L88.5 152.85 Q90.25 154.5 92.15 153.2 L93.95 154.75 Q96.0 155.8 97.55 153.25 L96.1 159.5 Q95.45 159.4 94.6 158.6 92.9 157.05 92.0 153.75"/><path fill="#1e6579" d="M117.05 128.9 L116.5 129.8 112.0 131.55 108.9 136.6 Q110.5 131.4 111.3 130.5 111.8 129.95 119.55 126.65 L127.15 123.5 Q126.8 124.45 117.05 128.9"/><path fill="#e95550" d="M194.4 118.8 Q195.7 117.6 197.25 114.0 198.6 110.8 199.2 108.15 199.7 106.0 201.6 109.6 204.35 114.85 201.5 118.35 198.65 121.85 194.4 118.8"/><path fill="#c94844" d="M195.95 116.6 L199.2 116.7 Q201.2 116.3 202.9 114.25 202.7 115.65 202.0 117.0 200.65 119.8 198.25 119.9 L194.9 119.5 194.35 119.05 195.95 116.6"/><path fill="#0d131a" d="M132.2 117.95 Q131.45 117.75 130.45 118.3 L121.4 123.15 Q112.85 127.45 109.2 127.95 108.6 128.05 106.35 131.2 102.45 136.7 99.25 139.7 L93.35 144.85 89.8 148.1 Q88.65 149.4 88.45 151.0 L88.4 152.05 Q88.4 154.1 89.2 155.95 90.65 154.0 91.45 153.35 92.0 152.95 92.25 153.0 L92.9 153.85 Q94.1 157.4 95.85 158.35 L96.4 156.05 Q97.25 151.8 98.85 149.2 100.5 146.6 103.35 143.25 107.9 137.9 111.6 131.3 111.75 131.05 112.0 131.05 114.55 130.4 117.8 128.7 L123.55 125.35 Q127.3 123.05 129.6 121.85 132.8 120.3 132.8 118.95 L132.85 118.95 Q132.85 118.2 132.2 117.95 M129.85 117.25 Q131.5 116.35 133.05 117.25 134.05 117.9 134.05 118.95 L134.05 119.0 Q133.95 121.05 130.15 122.95 L124.2 126.35 118.4 129.7 Q115.15 131.4 112.55 132.1 108.7 138.95 104.6 143.8 101.65 147.4 100.1 149.85 98.65 152.1 97.75 156.3 L96.75 159.85 96.5 160.35 96.0 160.25 Q93.3 159.2 91.8 154.7 91.1 155.45 89.6 157.85 89.1 158.75 88.6 157.85 87.9 156.75 87.35 154.8 86.55 152.3 86.8 150.45 87.05 148.55 88.3 147.15 L92.05 143.85 94.95 141.7 98.45 138.8 Q101.7 135.8 105.35 130.5 L107.25 127.7 Q108.15 126.55 108.9 126.45 111.9 126.0 118.35 123.15 124.35 120.45 129.85 117.25"/><path fill="#0d131a" d="M201.4 110.35 L200.35 108.65 Q199.95 108.25 199.8 108.3 199.65 108.3 199.6 108.75 199.0 111.3 198.0 113.9 196.7 117.1 195.35 118.8 198.4 120.1 200.4 118.2 201.85 116.95 202.1 114.8 202.4 112.65 201.4 110.35 M197.8 110.9 Q199.15 106.65 199.55 106.65 201.65 106.65 203.15 111.3 204.75 116.3 201.5 119.25 200.0 120.55 197.95 120.65 195.95 120.75 193.95 119.65 193.8 119.6 193.75 119.15 193.7 118.7 193.8 118.6 196.15 116.0 197.8 110.9"/><path fill="#2f8097" d="M137.15 116.35 Q139.0 114.55 140.25 116.0 141.5 117.4 137.85 120.6 134.6 123.45 128.45 127.75 122.9 131.65 120.65 132.85 120.05 136.15 117.15 143.05 113.55 151.4 112.7 154.1 111.9 156.55 111.8 159.6 L111.7 164.3 Q110.5 164.15 109.15 162.8 107.85 161.5 106.8 159.5 105.1 161.65 104.2 163.75 100.95 160.5 101.35 155.8 101.75 151.45 104.55 148.65 109.5 143.65 111.55 140.45 113.8 137.0 115.35 132.35 116.4 129.3 117.9 128.6 121.95 126.75 127.6 123.25 134.25 119.2 137.15 116.35"/><path fill="#1e6579" d="M106.9 159.3 L108.75 160.05 Q110.9 160.0 112.45 155.95 L112.1 164.9 Q111.35 164.7 110.3 163.95 108.15 162.5 106.65 160.0 L103.95 164.3 Q102.75 163.2 101.8 161.4 99.85 157.75 101.1 154.3 101.35 156.4 102.9 158.15 104.7 160.25 106.9 159.3"/><path fill="#1e6579" d="M126.75 127.45 L126.4 129.6 120.75 133.1 118.25 140.2 118.7 135.6 Q118.95 132.3 119.65 131.6 120.0 131.25 123.4 129.3 L126.75 127.45"/><path fill="#0d131a" d="M139.45 116.4 Q138.45 116.1 137.55 117.0 134.65 119.85 127.95 123.95 122.3 127.4 118.15 129.35 117.3 129.75 116.8 130.6 L115.85 132.9 Q114.35 137.35 112.05 141.0 109.5 144.95 105.9 148.3 103.9 150.25 103.2 151.35 102.2 153.1 101.95 156.05 L101.9 157.0 Q101.9 160.35 104.0 162.85 L106.1 159.6 Q106.85 158.5 107.55 159.7 109.6 163.05 111.1 163.7 L111.15 161.1 Q111.15 157.1 112.1 154.1 112.95 151.4 115.8 144.8 L118.4 138.5 120.05 132.95 120.35 132.5 Q122.5 131.4 128.1 127.5 134.2 123.2 137.45 120.35 139.9 118.25 139.9 116.95 L139.9 116.8 139.45 116.4 M136.7 116.1 Q138.15 114.75 139.7 115.4 141.1 116.0 141.1 116.95 141.1 118.75 138.25 121.25 L129.0 128.3 Q123.65 132.1 121.15 133.45 120.35 137.7 117.1 145.3 114.45 151.35 113.45 154.5 112.6 157.15 112.6 161.1 L112.55 164.65 112.5 165.45 111.85 165.5 Q110.65 165.35 109.2 163.95 107.8 162.65 106.7 160.8 L104.7 164.6 104.35 165.15 103.75 164.8 Q101.95 163.0 100.95 160.8 99.85 158.3 100.05 156.0 100.35 152.85 101.7 150.85 L104.8 147.55 107.6 144.75 Q109.5 142.7 111.0 140.35 113.15 137.0 114.7 132.55 L115.8 129.9 Q116.45 128.8 117.65 128.25 121.75 126.35 127.25 122.95 133.85 118.9 136.7 116.1"/><path fill="#2f8097" d="M145.75 112.85 Q146.45 112.15 147.35 112.1 148.3 112.05 148.6 112.75 149.5 114.55 144.9 118.8 134.45 128.55 132.9 129.55 133.9 135.6 137.35 143.1 139.7 148.15 142.55 152.6 143.55 154.2 147.3 158.65 148.95 160.65 149.4 164.0 149.7 166.45 148.05 168.7 146.7 170.55 145.65 170.75 145.5 169.35 143.9 166.15 142.65 168.0 140.9 169.5 139.35 170.8 138.15 171.3 137.9 165.6 136.8 161.3 L134.25 152.95 127.5 132.3 Q126.3 128.5 126.7 127.55 127.1 126.65 130.95 124.25 134.0 122.35 139.1 118.4 144.0 114.6 145.75 112.85"/><path fill="#1e6579" d="M134.95 155.85 L130.1 140.35 Q134.55 153.35 137.35 159.05 141.3 167.2 144.05 165.7 L141.75 168.8 Q139.2 171.9 137.65 171.9 138.15 167.3 134.95 155.85"/><path fill="#1e6579" d="M148.6 113.05 Q150.25 114.6 141.85 122.35 137.65 126.25 133.15 129.8 L134.8 137.4 132.6 133.35 Q130.55 129.1 131.35 128.15 132.25 127.1 140.5 120.0 L148.6 113.05"/><path fill="#1e6579" d="M143.7 165.7 L146.55 166.25 Q148.7 166.85 149.3 164.1 L149.5 166.55 Q149.05 169.35 145.85 171.15 L143.7 165.7"/><path fill="#0d131a" d="M144.5 118.55 Q148.1 115.25 148.1 113.5 L148.1 113.3 147.75 112.95 Q146.9 112.75 146.15 113.5 L139.45 119.1 131.25 124.95 130.55 125.4 Q127.55 127.2 127.2 128.05 L127.1 128.6 Q127.1 129.35 128.0 132.15 L135.7 155.75 137.6 162.35 Q138.4 165.95 138.65 170.55 141.15 169.15 143.3 166.15 144.05 165.1 144.65 166.25 145.6 168.05 146.05 170.05 L147.8 168.15 Q148.8 166.55 148.8 164.9 L148.75 164.25 Q148.5 161.95 147.8 160.7 147.4 159.85 146.0 158.3 143.85 155.95 142.05 153.1 139.65 149.5 137.3 144.55 133.35 136.4 132.3 129.85 L132.3 129.75 132.55 129.25 144.5 118.55 M149.3 113.5 Q149.3 116.05 145.35 119.7 137.1 127.4 133.75 130.0 134.85 136.35 138.55 144.2 140.9 149.15 143.05 152.45 144.35 154.55 147.05 157.5 L149.15 159.9 Q150.05 161.3 150.35 163.75 L150.4 164.55 Q150.4 166.9 148.8 169.15 147.6 170.85 146.45 171.45 L145.35 171.7 Q145.1 171.6 144.95 170.7 144.55 168.75 143.85 167.8 141.15 171.35 138.35 172.45 L137.4 172.6 137.1 171.95 Q136.9 166.8 136.2 163.05 135.65 160.0 134.35 156.1 L126.6 132.45 Q125.45 128.75 125.95 127.6 126.4 126.55 129.9 124.35 143.1 114.8 145.3 112.65 146.5 111.4 147.95 111.9 149.3 112.3 149.3 113.5"/></g></svg>