<?xml version='1.0' encoding='utf-8'?>
<svg xmlns="http://www.w3.org/2000/svg" version="1.1" width="158px" height="202px" viewBox="-0.75 0.0 157.55 201.55"><g><path fill="#3e3a39" d="M77.95 70.7 Q65.6 70.7 56.85 79.45 48.1 88.2 48.1 100.55 48.1 112.9 56.85 121.7 65.6 130.45 77.95 130.45 90.35 130.45 99.1 121.7 107.85 112.95 107.85 100.55 107.85 88.2 99.1 79.45 90.3 70.7 77.95 70.7 M84.8 4.1 Q87.6 6.95 87.6 10.95 L87.6 28.35 Q87.6 32.35 84.8 35.15 81.95 37.95 77.95 37.95 73.75 37.95 70.95 34.9 56.6 36.45 44.25 43.75 31.9 51.1 23.7 62.95 L37.75 72.45 Q44.55 62.75 54.95 57.2 65.75 51.45 77.95 51.45 98.25 51.45 112.7 65.85 127.1 80.25 127.1 100.55 127.1 105.6 126.0 110.7 L150.6 127.35 Q153.65 129.4 154.55 132.95 155.45 136.5 153.75 139.75 143.85 158.85 126.25 170.9 108.75 182.9 87.6 185.25 L87.6 190.2 Q87.6 194.2 84.8 197.0 81.95 199.8 77.95 199.8 74.0 199.8 71.15 197.0 68.35 194.2 68.35 190.2 L68.35 172.8 Q68.35 168.8 71.15 165.95 73.95 163.15 77.95 163.15 82.05 163.15 84.95 166.2 99.3 164.7 111.65 157.35 124.0 150.0 132.2 138.15 L118.2 128.65 Q111.4 138.35 101.0 143.95 90.2 149.7 77.95 149.7 57.65 149.7 43.25 135.3 28.85 120.85 28.85 100.55 28.85 95.35 29.9 90.4 L5.35 73.8 Q2.3 71.75 1.4 68.2 0.5 64.65 2.2 61.4 12.1 42.3 29.7 30.25 47.2 18.2 68.35 15.85 L68.35 10.95 Q68.35 6.95 71.15 4.1 73.95 1.3 77.95 1.3 81.95 1.3 84.8 4.1"/><path fill="#ffffff" d="M77.95 70.7 Q90.3 70.7 99.1 79.45 107.85 88.2 107.85 100.55 107.85 112.95 99.1 121.7 90.35 130.45 77.95 130.45 65.6 130.45 56.85 121.7 48.1 112.9 48.1 100.55 48.1 88.2 56.85 79.45 65.6 70.7 77.95 70.7"/><path fill="#dbdcdc" d="M48.2 99.6 Q50.1 111.0 58.75 117.75 66.75 123.95 77.4 124.1 88.1 124.25 96.35 118.1 105.35 111.35 107.85 99.2 107.85 111.55 100.5 120.35 92.05 130.4 77.3 130.4 64.2 130.4 55.7 120.5 47.75 111.3 48.2 99.6"/><path fill="#0d131a" d="M77.95 69.85 Q91.4 69.85 100.45 79.3 109.05 88.3 109.05 100.6 109.05 113.65 99.8 122.65 90.7 131.5 77.95 131.5 64.85 131.5 55.9 122.35 47.1 113.35 47.1 100.55 47.1 87.35 56.15 78.55 65.05 69.85 77.95 69.85 M57.5 80.05 Q49.05 88.5 49.05 100.55 49.05 112.65 57.45 121.05 65.9 129.5 77.95 129.5 90.0 129.5 98.35 121.1 106.75 112.7 106.75 100.6 106.75 88.55 98.4 80.1 90.0 71.6 77.95 71.6 65.9 71.6 57.5 80.05"/><path fill="#0d131a" d="M68.4 16.9 Q47.35 19.25 30.15 31.1 12.95 42.9 3.2 61.75 1.65 64.75 2.4 67.85 3.15 70.95 5.95 72.85 L16.75 80.25 30.1 89.25 29.6 91.6 4.75 74.75 Q1.3 72.35 0.3 68.6 -0.75 64.8 1.25 60.95 11.2 41.8 29.0 29.55 46.85 17.3 68.25 14.9 L68.4 16.9"/><path fill="#0d131a" d="M88.7 10.95 L88.75 28.4 Q88.75 35.4 81.95 38.15 75.2 40.95 70.65 35.95 56.55 37.55 44.6 44.7 32.55 51.85 24.5 63.5 L22.85 62.4 Q31.2 50.4 43.8 42.9 56.45 35.4 70.9 33.85 L71.5 34.1 Q75.5 37.85 80.9 35.95 86.35 34.0 86.35 28.3 L86.5 10.9 Q86.5 6.95 83.9 4.6 81.5 2.5 78.1 2.5 74.65 2.5 72.2 4.6 69.5 6.95 69.35 10.9 69.25 15.1 69.5 17.6 69.65 19.1 68.75 19.2 67.85 19.25 67.65 17.6 67.25 14.4 67.3 10.9 67.5 5.75 70.85 2.7 73.9 0.0 78.2 0.0 82.5 0.0 85.45 2.75 88.7 5.8 88.7 10.95"/><path fill="#0d131a" d="M21.5 62.4 Q20.15 61.4 20.55 60.8 20.95 60.2 22.35 61.2 L29.9 66.45 Q34.6 69.55 38.3 71.7 L37.2 73.35 Q30.85 69.5 21.5 62.4"/><path fill="#0d131a" d="M151.2 126.4 Q154.6 128.95 155.65 132.55 156.8 136.4 154.85 140.15 144.9 159.45 127.2 171.75 109.25 184.2 87.6 186.5 L87.55 184.4 Q108.55 182.05 125.8 170.15 143.0 158.25 152.75 139.4 154.3 136.4 153.5 133.35 152.7 130.35 149.95 128.3 139.3 120.3 125.85 111.9 L126.3 109.55 139.6 118.2 151.2 126.4"/><path fill="#0d131a" d="M67.25 190.2 L67.15 172.2 Q67.15 165.25 74.15 162.7 81.1 160.2 85.7 165.2 99.6 163.7 111.45 156.35 123.05 149.2 131.2 137.4 L133.05 138.75 Q124.75 150.75 112.15 158.25 99.5 165.75 85.0 167.25 L84.4 167.05 Q80.4 163.3 75.05 165.2 69.55 167.15 69.55 172.85 L69.45 190.25 Q69.45 194.2 72.1 196.55 74.5 198.65 78.0 198.7 81.5 198.7 83.95 196.65 86.7 194.3 86.85 190.35 86.95 186.35 86.7 183.45 86.55 181.95 87.35 181.85 88.1 181.75 88.3 183.4 88.8 187.1 88.65 190.5 88.5 195.75 85.1 198.8 82.05 201.55 77.8 201.5 73.5 201.45 70.55 198.6 67.25 195.45 67.25 190.2"/><path fill="#0d131a" d="M133.6 139.9 Q125.1 133.6 117.8 129.35 L119.05 127.7 Q128.95 133.8 134.55 138.55 135.85 139.7 135.4 140.3 134.95 140.95 133.6 139.9"/><path fill="#0d131a" d="M77.95 90.1 Q82.3 90.1 85.4 93.15 88.45 96.25 88.45 100.55 88.45 104.9 85.4 108.0 82.3 111.05 77.95 111.05 73.65 111.05 70.55 108.0 67.5 104.9 67.5 100.55 67.5 96.25 70.55 93.15 73.65 90.1 77.95 90.1"/><path fill="#ffffff" d="M76.55 93.85 Q78.15 93.85 79.25 94.95 80.4 96.1 80.4 97.65 80.4 99.2 79.25 100.35 78.15 101.45 76.55 101.45 75.0 101.45 73.85 100.35 72.75 99.25 72.75 97.65 72.75 96.1 73.85 94.95 75.0 93.85 76.55 93.85"/><path fill="#0d131a" d="M123.85 80.5 Q130.75 96.35 126.2 113.15 125.85 114.45 125.2 114.35 124.5 114.2 124.8 112.8 128.4 95.9 121.75 81.1 115.35 66.8 101.5 58.85 86.75 50.3 69.05 53.35 48.9 56.8 37.1 74.6 36.25 75.9 35.7 75.5 35.1 75.15 35.9 73.85 47.8 54.85 68.6 51.1 86.9 47.8 102.8 56.95 117.2 65.2 123.85 80.5"/><path fill="#0d131a" d="M31.1 88.35 Q27.55 104.7 34.2 119.7 40.75 134.45 54.45 142.35 69.15 150.8 86.95 147.7 107.15 144.15 118.8 126.5 119.65 125.2 120.25 125.6 120.85 125.95 120.05 127.3 108.35 146.2 87.4 150.0 68.9 153.4 53.05 144.3 38.8 136.1 32.25 120.65 25.5 104.85 29.7 88.0 30.1 86.5 30.8 86.65 31.45 86.8 31.1 88.35"/></g></svg>