<?xml version='1.0' encoding='utf-8'?>
<svg xmlns="http://www.w3.org/2000/svg" version="1.1" width="643px" height="509px" viewBox="-0.05 -1.15 643.2 509.4"><g><path fill="#87b1d0" d="M302.8 396.25 L316.3 396.05 Q327.95 395.9 329.15 396.05 330.55 396.2 354.85 428.7 379.0 461.0 379.45 462.7 379.85 464.35 379.1 465.45 378.2 466.65 376.3 466.1 L336.0 455.9 Q297.55 446.1 296.45 445.5 295.3 444.85 291.45 433.75 287.75 423.1 287.75 421.95 287.75 421.45 293.8 420.5 300.1 419.55 300.45 419.05 300.75 418.65 301.45 407.3 302.1 396.25 302.8 396.25"/><path fill="#87b1d0" d="M265.25 374.35 Q266.55 374.35 273.65 371.85 L281.25 369.35 Q282.1 369.35 291.85 377.45 301.5 385.45 302.7 387.05 303.8 388.5 302.25 402.95 300.75 417.25 299.55 418.65 298.5 419.85 287.9 421.95 277.55 423.95 276.45 423.55 275.75 423.25 277.9 418.7 280.35 413.45 280.45 412.55 280.6 411.4 272.55 392.6 264.8 374.35 265.25 374.35"/><path fill="#87b1d0" d="M229.3 372.25 Q230.7 371.85 246.7 372.6 L263.75 373.7 Q264.8 374.05 272.2 392.55 279.5 410.95 279.3 412.0 279.05 413.3 272.1 428.4 264.9 444.0 263.75 445.0 262.3 446.25 244.95 449.25 227.25 452.3 225.0 451.25 222.85 450.25 212.2 436.75 201.8 423.55 202.05 423.05 L214.15 412.75 226.65 402.1 Q227.4 401.1 230.55 379.5 230.65 379.0 229.35 375.5 228.3 372.55 229.3 372.25"/><path fill="#87b1d0" d="M146.0 387.5 Q142.5 364.85 142.5 363.05 142.5 362.35 162.6 358.9 L183.25 355.15 187.95 346.05 Q192.3 337.65 193.35 338.1 L207.25 344.15 Q219.95 349.8 220.6 350.9 221.5 352.5 226.3 365.0 231.25 377.95 231.25 379.3 231.25 381.25 229.45 391.25 227.6 401.8 226.75 402.8 225.7 404.05 211.1 415.1 196.35 426.35 195.3 426.5 194.0 426.7 172.4 419.8 150.6 412.75 150.1 411.55 149.55 410.3 146.0 387.5"/><path fill="#87b1d0" d="M108.15 296.6 Q119.25 275.65 120.4 274.5 L124.95 290.2 Q129.55 306.25 130.6 307.0 L156.35 317.75 Q181.6 328.0 182.25 327.85 L192.75 323.9 Q202.45 320.4 202.15 321.8 190.05 359.85 188.05 361.35 184.35 364.15 158.9 367.2 133.65 370.25 129.6 368.6 127.85 367.9 112.15 344.55 96.55 321.35 96.65 320.15 96.8 317.95 108.15 296.6"/><path fill="#87b1d0" d="M123.1 283.15 Q116.6 260.35 116.95 259.65 L122.9 247.7 Q128.55 236.5 129.1 235.85 130.95 233.6 180.75 235.9 230.25 238.15 230.45 239.2 L235.85 252.4 Q241.05 265.25 240.95 266.75 240.8 268.5 235.5 286.5 230.25 304.4 229.5 305.9 228.85 307.25 206.35 317.5 184.0 327.75 182.5 327.6 180.9 327.45 155.8 317.6 130.5 307.65 130.1 306.75 129.4 305.15 123.1 283.15"/><path fill="#87b1d0" d="M212.4 110.6 Q223.25 117.1 231.35 122.95 239.7 129.05 240.25 130.95 241.95 136.95 246.75 172.3 251.85 210.4 250.4 215.55 249.25 219.65 229.05 237.55 208.3 255.9 203.35 255.8 195.45 255.6 162.85 246.35 130.55 237.2 129.35 235.1 127.6 232.1 115.5 198.4 102.9 163.4 103.9 161.7 104.55 160.55 114.6 150.3 125.75 138.95 137.4 127.75 170.9 95.7 177.65 95.0 185.1 94.2 212.4 110.6"/><path fill="#87b1d0" d="M326.75 40.35 Q352.25 50.95 357.15 55.5 362.5 60.5 379.25 92.35 396.05 124.4 394.6 127.3 392.85 130.8 361.4 171.1 329.35 212.1 325.9 214.5 322.3 217.05 299.9 223.1 277.8 229.05 274.3 228.65 270.35 228.2 233.0 202.6 194.95 176.5 193.55 172.05 192.15 167.55 197.75 119.8 203.2 72.7 204.8 70.1 207.0 66.4 249.5 47.85 291.8 29.3 296.75 29.7 302.15 30.1 326.75 40.35"/><path fill="#759ab5" d="M356.15 88.35 Q358.15 89.0 381.9 116.9 406.35 145.6 405.4 149.15 404.35 153.05 364.05 184.4 324.15 215.35 319.65 216.6 L297.7 223.25 Q278.8 228.65 273.9 227.85 268.95 227.05 231.7 202.2 L194.3 176.75 Q193.25 176.05 192.85 169.0 192.45 162.15 193.15 159.55 193.35 158.7 228.6 174.85 263.95 191.1 264.75 189.75 265.2 189.0 274.1 154.5 282.75 120.95 284.2 120.35 L320.55 103.8 Q355.25 88.05 356.15 88.35"/><path fill="#759ab5" d="M169.25 176.9 Q183.45 167.15 187.95 163.55 190.45 161.55 212.45 175.55 233.65 189.0 235.5 192.0 L244.15 205.3 Q251.0 216.7 249.35 218.6 246.85 221.5 228.35 237.4 209.0 254.1 206.5 254.85 199.9 256.85 166.6 247.5 134.9 238.65 130.35 235.2 129.55 234.6 118.35 205.1 107.1 175.65 106.6 175.3 L127.45 181.95 Q148.75 188.5 150.85 188.25 153.05 188.0 169.25 176.9"/><path fill="#759ab5" d="M122.75 284.85 Q115.9 264.05 117.15 262.8 118.15 261.85 142.8 259.3 167.6 256.75 168.45 256.05 169.25 255.4 170.3 252.7 171.15 250.45 172.2 250.45 L188.05 253.25 203.65 256.05 Q204.05 256.05 211.7 252.15 218.9 248.5 219.75 249.35 L230.7 257.6 Q240.65 265.0 240.95 265.75 241.4 266.8 236.7 285.15 232.0 303.65 230.65 305.5 229.3 307.4 208.3 317.25 187.5 327.0 183.95 327.6 180.8 328.15 156.15 318.6 131.8 309.2 130.85 307.5 129.15 304.5 122.75 284.85"/><path fill="#759ab5" d="M148.35 343.9 Q152.85 339.4 153.1 338.1 L153.65 327.0 Q154.2 317.5 155.1 318.15 155.85 318.7 168.4 323.25 180.85 327.75 181.55 328.35 182.05 328.8 192.25 324.2 201.9 319.9 201.65 321.8 201.3 325.25 196.4 341.9 191.15 359.55 189.45 360.6 185.3 363.1 159.3 366.5 133.5 369.9 129.6 368.6 128.0 368.05 124.85 358.65 L121.6 347.85 Q121.0 345.75 130.65 347.75 141.35 349.95 142.25 349.35 144.2 348.05 148.35 343.9"/><path fill="#759ab5" d="M195.4 384.95 Q197.45 384.25 213.0 381.1 229.05 377.9 229.55 378.3 230.8 379.3 229.7 389.0 228.75 397.25 227.85 400.6 227.1 403.35 196.55 426.5 195.45 427.35 172.35 419.85 149.2 412.4 150.1 411.55 151.7 409.95 165.8 407.85 L181.2 405.55 Q182.45 405.15 188.75 395.1 195.0 385.1 195.4 384.95"/><path fill="#759ab5" d="M243.95 410.9 Q256.7 417.0 257.6 415.65 258.1 414.9 260.65 405.75 262.9 397.6 264.0 398.05 265.9 398.8 272.55 404.05 279.7 409.65 279.7 411.15 279.7 413.0 272.1 429.0 264.45 445.25 262.85 446.0 261.25 446.8 248.3 448.85 L232.9 450.85 Q230.65 450.85 224.3 447.3 218.65 444.15 217.15 442.65 214.4 439.9 207.9 431.2 200.2 420.9 202.55 420.9 202.9 420.9 214.3 411.55 225.35 402.4 228.0 403.3 L243.95 410.9"/><path fill="#759ab5" d="M272.6 381.2 L279.05 387.3 Q284.3 392.15 284.95 391.7 285.95 391.05 294.4 390.25 302.95 389.4 303.2 390.2 303.7 391.6 302.9 404.75 302.05 418.55 300.45 419.05 274.8 425.4 275.15 423.9 L277.75 417.7 Q279.95 412.3 279.7 411.15 279.5 410.1 274.8 398.2 L269.6 384.95 Q269.0 383.2 270.1 381.65 271.25 380.1 272.6 381.2"/><path fill="#759ab5" d="M303.3 396.5 L316.0 395.65 326.55 396.2 Q327.55 396.7 327.8 412.15 328.05 426.8 327.65 429.5 327.45 430.9 353.1 447.6 378.65 464.3 378.5 465.15 378.3 466.1 378.4 466.9 L376.3 466.35 334.9 455.7 Q295.45 445.5 294.3 444.15 292.6 442.05 288.0 422.7 287.65 421.05 292.85 419.95 L299.55 418.65 Q300.55 418.25 301.6 407.45 302.6 396.7 303.3 396.5"/><path fill="#87b1d0" d="M324.65 295.5 Q329.6 303.35 329.25 305.25 328.35 310.35 318.05 316.3 307.95 322.15 305.55 319.75 303.2 317.4 261.9 283.6 220.4 249.65 218.1 248.25 215.85 246.9 222.3 242.75 L231.0 237.0 240.75 226.75 Q249.15 217.9 250.55 215.75 251.15 214.85 255.9 218.15 261.15 221.85 262.85 226.45 264.6 231.15 286.35 252.85 306.3 272.8 310.95 276.15 313.7 278.15 316.0 281.25 317.75 283.65 318.85 286.1 L324.65 295.5"/><path fill="#759ab5" d="M254.55 244.4 L267.4 258.0 280.2 271.2 Q281.3 272.0 283.7 272.15 286.35 272.25 287.2 272.7 288.3 273.25 288.9 276.5 289.55 280.0 290.2 280.65 L322.15 311.15 Q324.1 313.1 316.9 317.5 309.7 321.9 307.2 319.85 L260.75 281.5 Q230.7 256.8 217.7 247.55 229.2 239.4 241.45 225.0 243.95 225.9 247.85 229.0 252.0 232.25 252.35 234.0 L252.9 239.4 Q253.35 243.2 254.55 244.4"/><path fill="#0d131a" d="M330.3 395.1 Q331.65 395.55 333.0 397.45 L355.7 428.15 Q376.95 456.85 379.6 460.95 382.45 465.4 381.15 466.9 L374.4 467.1 337.5 457.45 Q304.15 448.7 298.45 447.4 295.85 446.85 295.15 446.35 294.2 445.7 293.15 443.4 292.4 441.75 290.25 434.75 L286.65 422.65 Q286.25 421.3 287.55 420.65 288.85 419.95 289.3 421.35 291.8 429.2 296.2 441.0 297.1 443.45 299.45 444.0 L337.9 454.55 374.85 464.5 377.65 464.3 Q378.4 463.65 377.1 461.75 374.25 457.6 352.2 428.65 L329.85 399.35 Q329.2 398.4 328.3 398.1 L325.85 397.85 302.8 397.9 Q302.0 397.9 301.9 396.7 301.75 395.45 303.45 395.3 L315.45 394.6 Q321.05 394.5 324.85 394.65 L330.3 395.1"/><path fill="#0d131a" d="M281.8 367.9 Q283.3 368.0 293.25 376.95 303.05 385.75 303.85 387.45 304.75 389.4 303.75 403.7 302.7 418.15 301.35 419.5 300.2 420.7 291.65 422.55 283.7 424.25 275.35 425.35 274.2 425.5 273.8 424.3 273.4 423.1 275.75 422.65 296.95 418.45 298.85 417.45 299.9 416.9 300.65 403.55 301.35 390.4 300.75 388.7 300.15 387.1 292.5 380.5 285.05 374.05 280.75 371.25 280.1 370.85 274.55 372.85 L264.95 376.55 Q264.5 376.7 263.65 375.15 262.8 373.6 263.35 373.4 267.45 371.8 274.15 369.85 280.75 367.85 281.8 367.9"/><path fill="#87b1d0" d="M261.0 330.25 Q261.35 333.6 260.85 371.5 260.85 372.9 249.9 372.4 238.9 371.9 238.9 370.7 238.9 368.7 244.55 349.1 250.3 329.15 251.6 327.6 252.85 326.1 253.9 326.2 L256.5 327.0 259.45 327.65 Q260.75 328.1 261.0 330.25"/><path fill="#0d131a" d="M235.9 372.35 Q236.25 370.35 250.1 327.35 250.75 325.35 253.4 325.5 254.8 325.6 256.85 326.25 L260.35 326.8 Q262.25 327.65 262.5 330.85 262.65 332.85 262.2 351.8 261.8 370.6 261.6 371.7 261.4 372.8 259.8 372.7 258.2 372.6 258.25 371.25 L259.5 351.6 Q260.4 334.45 259.4 330.5 258.6 327.25 255.5 327.75 252.6 328.2 252.4 329.75 252.0 332.45 239.35 371.45 239.0 372.5 237.35 373.1 235.6 373.75 235.9 372.35"/><path fill="#0d131a" d="M228.8 371.55 Q236.35 369.8 247.9 369.95 258.05 370.1 263.3 371.35 266.55 372.1 273.25 390.3 276.7 399.7 280.5 411.6 281.25 413.7 274.4 428.75 267.7 443.4 265.5 445.75 264.5 446.85 249.0 449.2 232.45 451.75 225.0 451.25 222.2 451.05 214.45 442.45 206.25 433.3 201.15 423.95 200.7 423.15 201.25 421.9 201.8 420.65 202.7 422.0 208.5 431.0 215.95 439.35 223.5 447.85 226.25 448.2 233.05 449.15 248.05 446.75 261.9 444.55 262.8 443.45 266.9 438.4 272.6 425.3 278.0 412.9 277.45 411.55 L269.1 388.7 Q264.5 376.55 262.4 374.65 260.6 373.0 249.55 372.95 238.55 372.9 229.8 374.5 228.25 374.8 227.65 373.4 227.05 372.0 228.8 371.55"/><path fill="#87b1d0" d="M244.5 428.25 Q244.35 429.05 248.05 431.65 251.15 433.85 249.0 435.5 245.2 438.45 240.2 466.8 L234.75 498.1 Q233.35 501.75 230.65 503.9 227.9 506.05 224.25 506.3 221.0 506.55 218.75 501.9 216.8 497.9 217.15 495.25 218.5 486.4 219.65 460.65 221.05 427.5 217.15 425.0 213.45 422.65 217.8 421.85 L225.75 421.3 Q231.0 421.0 238.0 423.8 244.8 426.45 244.5 428.25"/><path fill="#759ab5" d="M248.1 424.35 Q255.75 428.6 253.25 430.0 246.4 433.95 240.35 465.2 237.8 478.2 235.0 500.45 231.1 482.6 229.4 479.95 L223.4 472.3 Q218.4 466.0 218.4 465.1 L219.0 445.65 Q219.5 430.35 219.2 429.5 218.9 428.55 216.7 426.8 214.8 425.3 214.8 423.55 214.8 419.95 224.1 419.1 L236.75 419.55 Q241.15 420.5 248.1 424.35"/><path fill="#759ab5" d="M224.05 494.85 Q226.95 493.8 228.4 494.2 229.6 494.55 231.7 496.7 L233.9 498.7 Q234.15 498.7 233.95 499.05 233.55 499.8 233.55 500.75 233.55 502.05 230.85 504.25 228.2 506.45 226.0 506.95 224.15 507.35 220.7 504.85 217.6 502.6 217.4 501.8 217.0 500.05 220.65 496.6 221.45 495.8 224.05 494.85"/><path fill="#0d131a" d="M246.5 435.35 Q249.75 430.45 253.3 429.85 254.55 429.65 254.7 430.2 254.85 430.8 253.5 431.5 252.05 432.3 250.95 433.7 249.75 435.3 247.95 439.05 245.15 444.9 240.9 472.0 236.75 498.45 235.0 501.45 233.55 503.9 231.4 505.75 228.6 508.1 225.75 508.2 223.4 508.25 220.6 506.4 L217.55 503.95 Q216.1 502.5 216.05 495.8 216.05 493.3 216.6 481.45 L218.35 454.0 Q219.5 433.65 218.4 431.0 217.55 428.9 215.8 426.7 214.8 425.4 215.3 425.0 216.25 424.2 218.15 425.7 220.4 427.4 220.9 431.0 221.65 436.6 220.85 455.45 220.3 469.05 219.2 484.9 218.6 493.65 218.8 497.65 218.95 500.65 219.6 501.8 220.25 502.95 222.15 504.0 224.3 505.2 226.15 505.0 228.7 504.7 231.0 502.1 233.2 499.6 233.8 496.75 L240.15 460.75 Q243.85 439.3 246.5 435.35"/><path fill="#0d131a" d="M144.9 391.65 Q141.8 372.85 142.0 369.3 142.0 368.5 143.55 368.15 145.1 367.75 145.15 368.95 145.8 378.35 148.5 393.45 151.5 410.15 153.45 411.15 159.55 414.45 177.0 419.6 194.15 424.65 195.8 423.9 197.95 422.9 207.9 414.95 220.0 405.1 225.15 400.95 226.25 400.05 228.75 378.55 229.0 376.3 225.45 367.3 L219.4 352.9 Q218.8 351.4 211.0 348.15 203.55 345.1 195.5 342.85 194.9 342.65 194.9 341.9 194.95 341.1 195.95 341.3 204.8 343.2 212.55 345.75 221.6 348.7 222.3 350.4 L227.2 364.2 231.75 378.3 Q232.1 379.45 231.1 389.95 230.0 401.0 228.75 402.05 L208.7 418.95 Q197.75 427.7 194.95 427.55 190.9 427.3 170.35 420.7 150.35 414.35 149.8 413.55 148.15 411.25 144.9 391.65"/><path fill="#87b1d0" d="M209.9 319.15 Q214.4 320.5 240.45 324.55 L267.9 328.85 277.8 330.4 Q285.1 332.1 284.4 335.85 283.55 340.15 281.2 342.75 278.95 345.15 276.6 344.85 272.4 344.3 235.7 345.25 L195.35 346.55 Q194.05 346.65 196.75 336.9 199.4 327.1 201.8 323.15 203.75 319.9 205.05 319.15 206.7 318.2 209.9 319.15"/><path fill="#759ab5" d="M214.15 346.4 L194.45 347.35 Q193.35 347.35 194.7 346.3 195.95 345.3 198.3 344.1 201.55 342.5 210.6 338.9 220.4 335.0 222.75 334.6 224.1 334.35 232.65 338.25 L239.45 337.65 249.1 336.1 254.5 336.6 260.25 337.1 272.0 335.85 Q282.15 335.0 283.2 335.6 284.3 336.25 282.7 339.55 281.3 342.4 279.85 343.85 278.9 344.8 257.6 345.4 L236.5 345.85 Q233.45 345.55 214.15 346.4"/><path fill="#0d131a" d="M205.1 319.4 Q203.35 319.0 205.65 317.75 208.0 316.55 209.45 316.95 218.1 319.4 242.65 323.45 L272.5 328.2 Q280.05 329.45 281.05 329.85 285.0 331.4 285.0 335.95 285.0 338.7 282.75 341.95 279.95 345.95 275.95 346.2 L240.95 347.85 Q207.05 349.05 194.15 348.05 192.45 347.9 193.05 346.55 193.65 345.2 195.05 345.25 207.95 345.45 242.7 344.4 274.55 343.45 275.85 343.6 278.3 343.85 280.25 341.1 281.7 339.0 282.6 335.85 283.0 334.35 281.3 333.35 279.4 332.25 274.7 331.6 L236.75 325.45 Q212.25 321.15 205.1 319.4"/><path fill="#0d131a" d="M119.55 273.8 Q121.0 271.75 121.55 273.15 122.15 274.6 120.5 277.25 113.45 288.75 106.5 304.2 99.8 319.0 100.45 320.9 103.45 330.05 115.4 347.4 127.25 364.6 131.4 366.25 138.45 369.0 163.0 365.0 186.65 361.15 188.25 358.45 190.35 354.85 194.1 342.3 198.7 326.8 200.7 321.6 201.4 319.9 203.4 318.25 205.4 316.6 204.8 318.3 202.85 324.1 196.65 344.9 192.45 358.95 190.75 361.25 188.3 364.5 160.95 368.05 133.35 371.65 128.6 368.9 124.9 366.75 111.4 346.8 97.2 325.8 97.7 320.35 98.25 314.75 104.9 300.15 112.05 284.55 119.55 273.8"/><path fill="#87b1d0" d="M90.55 293.05 Q113.85 294.05 119.0 290.55 121.95 291.55 123.15 322.15 124.45 354.0 123.1 350.1 122.35 347.75 115.55 343.65 109.45 340.0 103.65 337.8 86.95 331.45 48.55 325.6 L10.35 320.15 Q7.0 319.1 4.2 311.65 1.65 304.85 2.05 300.95 3.05 291.2 14.4 286.6 L37.1 287.4 Q58.7 288.85 63.2 290.15 69.9 292.15 90.55 293.05"/><path fill="#759ab5" d="M38.95 308.25 L54.95 310.15 Q57.4 309.8 89.05 317.8 120.5 325.8 120.85 326.6 121.1 327.1 129.15 330.05 137.25 333.4 137.85 336.1 138.7 340.0 136.3 346.65 133.65 353.9 129.85 354.6 124.35 355.6 123.05 351.55 L121.85 347.55 Q120.9 345.0 119.0 343.35 116.65 341.3 101.5 336.05 87.5 331.2 82.85 330.25 L46.15 325.3 Q13.5 320.75 14.85 319.2 20.75 312.65 23.95 308.15 25.2 306.4 38.95 308.25"/><path fill="#0d131a" d="M99.25 291.95 Q109.4 291.95 115.8 289.55 119.35 288.25 123.35 285.65 L124.5 286.55 Q125.4 287.65 124.6 288.65 118.15 296.75 80.9 294.2 L47.3 291.1 14.25 287.9 Q11.4 287.7 7.3 292.8 3.05 298.15 3.75 302.4 4.7 308.15 6.6 312.6 9.05 318.45 12.15 318.8 45.3 322.5 76.25 329.15 113.6 337.15 119.55 344.1 122.05 347.05 122.25 349.0 122.3 349.7 121.9 349.65 121.45 349.55 120.85 348.6 118.85 345.3 108.05 341.1 L95.15 336.6 Q89.3 334.45 54.5 328.45 20.85 322.6 8.4 321.3 6.7 321.1 3.2 312.8 -0.05 305.0 0.0 303.4 0.2 296.95 5.35 290.55 10.3 284.5 14.35 284.5 L54.0 288.25 99.25 291.95"/><path fill="#0d131a" d="M128.25 232.7 Q130.0 230.05 131.0 232.35 132.0 234.6 131.05 236.25 126.2 244.45 122.3 253.15 118.85 260.8 119.1 261.8 122.35 275.0 126.25 288.35 131.1 305.05 132.6 305.9 139.15 309.55 160.0 318.05 180.95 326.6 182.3 326.1 194.9 321.9 212.2 313.3 227.55 305.7 228.0 304.65 230.05 300.55 233.9 286.15 L239.5 264.0 Q239.9 262.5 241.45 264.3 242.95 266.1 242.75 267.15 240.7 276.3 238.05 285.5 L233.7 300.05 Q232.55 303.95 231.65 305.65 230.5 307.9 228.5 309.15 222.95 312.65 210.55 318.45 194.1 326.1 182.55 329.2 180.0 329.9 158.95 321.2 L132.6 310.3 Q130.2 309.5 129.25 308.35 128.5 307.45 127.35 304.55 126.05 300.95 121.6 285.3 L116.6 267.5 Q115.7 264.55 115.8 262.15 115.95 259.8 117.1 257.25 L120.7 247.6 Q124.2 238.9 128.25 232.7"/><path fill="#0d131a" d="M328.6 311.5 Q323.25 315.8 317.7 318.95 309.15 323.85 306.45 321.8 L266.55 288.55 Q227.55 256.25 215.65 248.55 214.3 247.7 215.95 247.3 217.55 246.9 218.95 247.65 231.3 254.2 270.7 287.55 L296.1 309.0 Q307.4 318.25 308.75 318.05 311.25 317.7 318.4 313.9 326.2 309.75 326.55 307.75 327.5 302.8 324.85 296.55 322.35 290.65 318.1 286.55 290.0 260.55 279.35 249.7 261.85 231.9 257.0 218.7 256.25 216.75 259.4 218.35 262.6 220.0 264.05 223.2 270.5 237.6 296.05 261.1 309.1 273.1 323.15 284.15 324.85 285.6 327.65 293.05 329.85 298.95 331.05 303.65 331.5 305.4 330.6 308.05 329.75 310.6 328.6 311.5"/><path fill="#0d131a" d="M185.3 98.75 Q179.35 96.3 178.2 96.85 165.75 103.05 140.5 126.3 116.3 148.65 106.55 162.05 105.05 164.15 114.65 191.6 124.5 219.75 131.75 232.4 132.85 234.3 143.05 238.25 152.8 242.05 165.75 245.8 197.95 255.15 204.8 252.3 213.7 248.65 227.45 236.85 239.55 226.5 249.75 214.95 250.85 213.75 252.35 214.25 253.9 214.75 252.15 216.8 242.15 228.65 227.6 241.55 211.6 255.75 205.6 256.75 198.85 257.9 165.05 248.75 131.3 239.65 128.2 235.95 125.8 233.1 113.45 198.2 101.15 163.45 101.75 161.45 103.65 155.0 139.2 123.45 174.4 92.2 178.55 92.45 181.5 92.65 198.65 100.55 200.95 101.6 200.35 103.4 199.75 105.15 198.1 104.4 L185.3 98.75"/><path fill="#87b1d0" d="M178.3 137.05 Q168.85 148.8 155.95 156.75 150.65 160.05 138.1 165.8 132.8 168.2 126.1 168.4 118.45 168.55 117.4 164.8 L112.8 148.05 Q108.4 134.3 103.65 128.3 87.25 107.55 64.8 81.55 31.05 42.5 15.25 29.65 13.25 28.1 16.85 18.35 20.25 9.2 22.2 7.45 25.05 5.0 36.45 2.7 47.95 0.35 50.55 1.85 52.2 2.8 104.6 46.35 157.5 90.3 160.9 92.55 L171.7 99.9 Q180.45 104.85 187.35 103.95 189.6 103.7 185.8 118.05 181.95 132.55 178.3 137.05"/><path fill="#759ab5" d="M111.05 91.7 Q120.15 100.9 130.85 116.6 132.1 118.4 134.9 128.8 137.6 138.8 138.6 139.8 140.2 141.4 144.65 146.75 149.3 152.3 150.6 154.3 L152.55 156.5 Q153.5 157.65 154.1 160.05 155.05 163.85 154.05 176.85 152.95 190.75 150.6 191.75 148.25 192.75 130.65 185.3 113.95 178.3 111.4 176.25 110.85 175.85 113.7 171.05 116.75 165.75 116.6 164.05 116.05 157.85 112.25 148.4 L107.4 135.8 Q104.6 125.3 61.2 77.15 L32.15 45.3 Q19.4 31.25 20.0 30.9 L30.7 28.75 43.45 26.4 Q46.2 25.75 48.15 26.7 49.65 27.45 50.95 29.4 53.15 32.8 59.75 40.6 66.5 48.7 67.95 49.4 70.65 50.75 73.65 52.9 77.05 55.25 77.9 56.65 78.55 57.65 81.05 64.9 83.5 71.85 84.15 72.65 86.3 75.2 90.65 78.65 95.25 82.35 96.65 82.35 101.8 82.35 111.05 91.7"/><path fill="#0d131a" d="M183.05 105.1 Q178.3 104.75 171.85 101.25 165.65 97.85 155.35 90.1 136.4 75.9 93.5 40.3 L50.45 4.3 Q47.7 2.1 38.65 4.35 32.25 6.0 24.6 9.2 21.7 10.45 18.8 18.2 15.85 26.15 18.0 28.3 31.2 41.55 62.6 76.3 97.35 114.75 103.65 124.2 109.45 132.9 112.55 140.6 116.5 150.25 118.75 163.9 119.6 169.15 117.95 168.0 116.4 166.85 115.2 162.05 112.05 149.0 109.15 141.65 106.05 133.75 101.15 127.05 88.35 109.75 51.0 68.95 22.9 38.25 14.35 29.7 12.85 28.2 14.6 20.3 16.2 13.2 17.8 10.35 19.2 7.85 21.05 6.5 22.95 5.1 26.6 4.0 34.4 1.6 39.05 0.75 49.7 -1.15 53.3 1.9 L98.95 40.0 Q144.6 77.85 152.8 83.7 L170.6 96.45 Q179.45 102.15 185.1 102.15 189.8 102.15 190.3 103.9 190.75 105.6 183.05 105.1"/><path fill="#0d131a" d="M370.45 73.4 Q380.25 89.9 382.15 94.85 383.6 98.75 382.15 100.95 381.6 101.85 380.95 101.7 380.25 101.55 379.9 100.3 378.0 92.65 367.6 75.75 358.45 60.95 356.15 58.9 346.15 50.1 325.2 41.3 306.8 33.6 297.2 32.4 290.5 31.6 249.65 49.95 209.2 68.15 207.8 71.9 206.05 76.65 203.2 92.3 200.35 108.1 198.2 125.35 192.6 169.85 197.3 173.8 216.85 190.05 238.5 204.9 262.8 221.5 274.7 225.7 277.5 226.7 292.75 223.0 308.05 219.2 321.8 214.1 326.15 212.5 328.35 213.5 330.6 214.45 326.25 216.25 312.9 221.7 293.5 226.8 274.75 231.75 272.7 230.7 260.6 224.4 227.35 201.65 192.4 177.75 191.9 174.35 190.05 161.45 195.7 115.55 201.3 70.4 204.3 68.25 216.55 59.4 255.85 42.95 293.25 27.3 297.5 27.75 304.4 28.5 329.9 39.05 357.2 50.35 359.65 55.3 L370.45 73.4"/><path fill="#0d131a" d="M326.35 431.2 Q325.55 430.75 326.45 429.6 327.3 428.4 328.0 428.9 374.65 460.5 379.25 464.15 380.5 465.15 380.05 465.9 379.65 466.6 378.7 466.05 L351.5 448.05 326.35 431.2"/><path fill="#0d131a" d="M297.45 444.8 Q294.7 445.6 294.65 444.65 294.6 443.75 296.55 442.9 298.8 441.95 309.55 436.6 320.75 431.05 323.85 429.7 L325.2 428.65 Q325.5 428.1 325.6 426.8 L325.85 413.25 325.9 398.05 Q325.85 396.05 326.95 396.3 328.0 396.55 328.4 398.3 L328.85 412.65 Q329.0 426.45 329.2 428.15 329.4 430.05 328.95 430.75 L326.2 432.55 Q304.95 442.55 297.45 444.8"/><path fill="#0d131a" d="M229.75 493.75 Q232.7 495.35 233.3 498.0 233.45 498.65 233.25 498.85 233.0 499.05 232.6 498.3 231.75 496.8 229.15 495.7 226.75 494.65 225.3 494.85 223.7 495.1 221.5 496.6 219.05 498.35 219.05 499.8 219.05 500.65 218.85 500.3 218.6 499.9 218.5 498.85 218.4 497.6 220.9 495.3 223.3 493.1 225.0 492.75 227.15 492.3 229.75 493.75"/><path fill="#0d131a" d="M19.5 285.65 Q20.5 286.95 23.45 296.0 26.7 305.95 26.2 308.9 25.95 310.45 23.2 313.15 L17.75 318.4 Q16.25 319.85 13.75 319.7 11.2 319.6 13.0 318.15 17.4 314.6 19.3 312.5 21.7 309.85 22.2 307.4 22.45 306.35 19.75 296.9 17.15 287.75 16.5 286.65 15.95 285.7 17.35 285.2 18.75 284.7 19.5 285.65"/><path fill="#0d131a" d="M80.85 317.6 L52.95 311.1 43.5 309.9 33.45 309.1 Q30.0 308.8 29.75 307.55 29.55 306.3 32.95 306.65 L52.7 308.15 Q60.95 308.9 109.4 321.9 L116.0 323.95 Q120.45 325.5 120.85 326.6 122.45 330.8 121.35 331.25 120.3 331.7 118.9 328.8 118.4 327.9 114.15 326.3 L108.15 324.3 80.85 317.6"/><path fill="#0d131a" d="M243.2 223.45 Q244.7 220.5 244.9 223.5 244.95 225.1 247.8 227.75 L254.0 233.25 255.0 238.05 Q255.75 242.6 256.05 243.0 260.35 248.35 267.75 255.95 L281.4 269.95 288.95 271.65 290.6 275.8 Q291.95 280.0 292.2 280.2 L309.1 295.95 317.55 303.65 Q322.9 309.25 322.1 310.5 321.3 311.7 316.8 307.75 L308.45 300.35 290.3 283.85 Q289.95 283.5 288.05 279.0 L286.1 274.55 Q279.6 273.7 279.15 273.25 L252.15 244.6 Q251.7 244.1 251.4 239.85 251.1 235.65 250.85 235.45 L245.85 232.5 Q242.65 230.45 242.25 228.7 241.75 226.4 243.2 223.45"/><path fill="#0d131a" d="M45.75 26.8 Q44.8 27.45 33.25 30.3 21.45 33.25 19.9 33.0 17.65 32.6 17.25 31.7 16.7 30.6 20.45 29.6 L33.05 27.15 Q42.25 25.4 43.9 24.2 48.8 20.55 52.3 15.35 L54.8 11.8 Q56.2 10.15 56.45 11.8 56.7 13.55 51.65 20.0 47.1 25.95 45.75 26.8"/><path fill="#0d131a" d="M81.25 62.45 Q84.45 70.95 85.05 71.85 85.9 73.15 90.45 76.2 94.9 79.3 95.35 79.95 95.8 80.55 100.1 82.15 104.4 83.75 104.65 84.1 107.8 88.6 105.95 88.45 104.15 88.3 101.4 84.95 101.05 84.55 97.55 84.15 L93.9 83.6 87.2 77.7 Q82.95 73.95 82.3 72.65 L78.55 63.6 Q75.25 55.7 74.4 54.9 L71.7 53.55 Q69.35 52.45 66.95 50.05 L57.55 40.05 51.3 33.15 Q48.75 30.65 48.8 28.05 48.85 25.5 51.4 28.3 L68.95 47.4 Q69.45 47.95 72.95 50.15 76.4 52.3 77.15 53.15 78.15 54.25 81.25 62.45"/><path fill="#0d131a" d="M113.95 97.1 Q111.7 93.05 113.3 93.3 114.6 93.5 117.4 96.0 118.45 96.85 124.05 104.15 131.35 113.6 135.35 118.35 135.95 119.1 137.05 128.6 L138.1 137.95 146.15 145.7 Q150.3 149.75 150.6 150.55 150.95 151.5 150.65 153.05 150.35 154.6 149.7 155.4 147.85 157.55 146.6 151.15 146.45 150.5 142.9 147.4 L135.6 140.8 Q135.35 140.55 133.65 130.6 131.95 120.55 131.3 119.6 127.15 113.5 120.5 105.35 L113.95 97.1"/><path fill="#0d131a" d="M232.9 433.1 Q233.15 431.45 234.8 432.1 236.45 432.8 235.9 434.2 235.45 435.35 232.75 461.0 L229.9 488.5 Q229.6 490.55 228.45 489.0 227.3 487.5 227.45 485.7 L230.05 459.8 Q232.55 435.05 232.9 433.1"/><path fill="#0d131a" d="M210.55 77.85 Q209.55 74.25 210.6 73.5 211.65 72.7 213.05 77.1 L222.75 104.85 Q223.7 107.45 222.2 107.4 220.7 107.3 219.75 104.85 217.65 99.4 214.7 90.75 211.55 81.55 210.55 77.85"/><path fill="#0d131a" d="M234.75 114.45 L255.2 117.25 273.95 118.9 Q279.3 119.1 278.2 120.1 277.1 121.1 272.7 121.1 L250.0 119.6 234.5 117.35 Q227.8 116.4 226.45 114.8 225.15 113.15 234.75 114.45"/><path fill="#0d131a" d="M351.4 91.1 Q301.95 114.5 290.7 118.5 L282.0 121.35 Q276.25 122.85 284.45 118.35 286.65 117.15 313.85 105.05 343.1 92.0 350.15 88.6 353.95 86.75 354.2 88.2 354.4 89.7 351.4 91.1"/><path fill="#0d131a" d="M280.95 126.55 Q282.35 122.7 283.45 122.9 284.6 123.05 283.5 128.6 L276.4 155.15 Q269.5 180.6 267.4 187.5 265.3 194.5 263.6 194.25 261.9 194.0 263.25 189.0 266.3 177.45 272.75 154.6 279.55 130.6 280.95 126.55"/><path fill="#0d131a" d="M363.35 65.6 Q363.1 69.6 362.25 73.95 361.45 78.3 360.4 81.1 359.1 84.65 357.15 85.85 355.2 87.05 357.4 80.85 359.45 75.15 360.35 67.75 L360.9 61.55 362.2 62.5 Q363.5 63.8 363.35 65.6"/><path fill="#0d131a" d="M357.4 87.35 Q359.65 89.4 374.1 106.1 375.0 107.2 374.55 108.05 374.15 108.9 372.6 107.35 L354.6 88.35 Q353.7 87.75 354.6 86.65 355.45 85.55 357.4 87.35"/><path fill="#0d131a" d="M221.75 117.35 Q225.05 113.05 224.85 115.5 224.65 117.7 223.05 120.35 L213.4 135.1 Q203.95 149.5 200.75 154.75 197.3 160.35 197.2 157.4 L197.8 153.3 208.5 137.0 Q219.6 120.15 221.75 117.35"/><path fill="#0d131a" d="M162.65 229.6 Q159.7 226.2 160.15 225.2 160.6 224.2 163.6 227.2 166.8 230.4 185.3 241.3 L205.7 253.55 Q208.35 255.7 206.25 255.6 204.45 255.5 201.85 254.3 197.25 252.25 182.2 243.1 165.55 232.95 162.65 229.6"/><path fill="#0d131a" d="M183.3 164.75 Q186.2 162.2 186.85 163.9 187.5 165.6 184.8 167.55 L174.6 175.3 Q167.25 180.75 160.35 184.6 157.05 186.45 155.25 185.6 153.45 184.75 156.35 183.0 164.75 177.95 171.95 173.1 179.8 167.85 183.3 164.75"/><path fill="#0d131a" d="M108.95 178.0 Q106.7 177.2 106.8 174.95 107.3 172.8 107.05 172.7 105.7 172.0 120.2 178.0 L140.85 186.25 Q145.5 187.9 143.85 188.5 142.4 189.0 139.35 188.5 137.5 188.2 124.85 183.7 L108.95 178.0"/><path fill="#0d131a" d="M149.8 192.75 Q149.7 190.6 150.85 190.8 152.1 191.05 153.1 195.25 153.75 198.0 155.4 208.05 157.15 219.0 157.15 221.5 157.15 224.35 156.2 223.85 155.25 223.3 154.7 220.0 L151.9 204.8 Q149.9 194.3 149.8 192.75"/><path fill="#0d131a" d="M150.6 225.95 Q153.3 224.65 152.9 226.05 152.5 227.4 150.35 228.7 147.4 230.55 145.05 231.65 141.65 233.2 137.6 234.2 133.8 235.15 140.95 231.1 146.05 228.2 150.6 225.95"/><path fill="#0d131a" d="M123.85 262.25 Q120.2 262.55 119.65 261.7 119.15 260.85 123.85 260.2 162.75 254.7 167.85 254.7 169.65 254.7 176.4 267.75 L191.3 296.65 Q193.2 300.1 192.25 301.7 191.35 303.35 189.8 300.3 168.5 257.65 166.95 257.75 L147.2 259.8 123.85 262.25"/><path fill="#0d131a" d="M189.8 308.5 Q190.85 305.6 191.8 306.55 192.75 307.45 191.3 311.25 189.8 315.25 184.3 326.25 182.8 329.3 181.9 329.2 181.0 329.1 182.5 325.95 L186.6 316.5 189.8 308.5"/><path fill="#0d131a" d="M213.3 296.55 L200.0 303.1 Q197.85 303.95 196.9 303.1 195.95 302.2 198.8 300.65 L213.45 293.5 229.15 286.05 Q231.85 284.85 231.25 286.5 230.65 288.15 228.45 289.1 225.85 290.25 213.3 296.55"/><path fill="#0d131a" d="M151.6 343.35 L142.8 351.45 Q134.75 358.7 133.6 359.35 131.9 360.3 131.15 360.25 130.15 360.1 131.85 358.1 133.75 355.85 141.3 348.75 149.1 341.4 150.35 340.85 151.65 340.3 152.1 341.35 152.55 342.4 151.6 343.35"/><path fill="#0d131a" d="M157.35 340.1 L167.85 339.45 Q175.65 339.05 177.55 339.35 179.45 339.65 183.0 346.55 185.05 350.55 186.55 354.35 187.1 355.75 187.1 356.7 187.1 357.9 185.8 356.6 184.6 355.4 181.25 349.15 L177.8 342.6 168.25 342.3 157.35 342.35 Q155.4 342.15 155.0 341.25 154.6 340.25 157.35 340.1"/><path fill="#0d131a" d="M152.35 335.35 Q152.8 326.75 153.35 325.6 153.85 324.6 154.75 324.15 155.75 323.65 155.6 325.15 L155.2 331.1 Q154.9 335.6 154.6 336.35 153.95 337.9 153.2 338.3 152.2 338.75 152.35 335.35"/><path fill="#0d131a" d="M181.8 337.85 L188.65 332.95 194.8 328.6 Q195.45 328.15 195.95 328.8 196.4 329.5 195.55 330.35 L189.25 335.15 182.55 339.6 180.3 339.95 Q179.6 339.55 181.8 337.85"/><path fill="#0d131a" d="M179.3 371.1 Q177.95 369.35 178.45 368.25 178.9 367.15 180.55 368.6 181.7 369.6 187.8 376.95 193.8 383.8 195.8 383.8 L229.15 377.1 Q231.0 376.75 231.1 377.8 231.2 378.9 229.45 379.4 220.65 381.85 210.8 384.05 195.25 387.6 193.8 386.3 L186.25 378.65 179.3 371.1"/><path fill="#0d131a" d="M192.55 391.05 L187.15 399.3 182.05 406.55 Q181.25 407.5 168.0 409.65 L152.85 411.8 Q150.75 412.0 150.35 410.75 150.0 409.5 152.35 409.3 L165.7 406.95 179.05 404.55 Q179.95 404.5 185.45 397.0 191.35 388.95 191.8 388.55 193.1 387.5 193.5 388.0 193.95 388.65 192.55 391.05"/><path fill="#0d131a" d="M184.3 409.3 Q182.95 407.6 184.2 407.5 185.45 407.45 186.3 408.55 L191.0 414.35 196.3 421.05 Q197.5 422.75 196.0 422.7 194.5 422.65 194.05 421.55 L189.75 415.8 Q185.6 410.55 185.05 409.3 L184.3 409.3"/><path fill="#0d131a" d="M260.6 444.25 Q260.6 442.05 259.1 430.25 257.4 417.3 256.5 416.8 254.65 415.8 241.75 410.45 228.45 404.9 226.4 404.4 223.9 403.8 224.8 402.9 L229.0 403.05 Q232.95 404.25 245.45 409.6 258.6 415.2 258.75 416.05 259.5 419.7 260.85 429.65 262.4 440.5 262.5 443.75 262.55 446.75 261.6 446.25 260.6 445.75 260.6 444.25"/><path fill="#0d131a" d="M258.25 412.3 Q260.75 402.9 261.75 400.4 262.05 399.75 262.65 399.95 263.3 400.15 263.1 400.65 L259.25 413.3 Q258.9 414.5 258.25 414.25 257.6 413.95 258.25 412.3"/><path fill="#0d131a" d="M264.0 399.05 Q262.9 398.0 263.25 397.55 263.6 397.1 264.5 397.9 L269.3 401.55 274.1 405.3 Q274.9 406.1 274.6 406.75 274.3 407.45 273.2 406.55 L264.0 399.05"/><path fill="#0d131a" d="M261.35 378.7 Q261.3 377.4 261.8 377.55 262.25 377.65 262.35 378.45 L263.25 386.65 Q264.0 394.4 263.85 395.55 263.65 396.8 263.25 396.65 262.8 396.5 262.75 395.45 L261.35 378.7"/><path fill="#0d131a" d="M283.65 392.45 Q282.55 392.45 283.15 391.55 283.8 390.55 286.1 390.2 L294.7 389.25 300.7 389.05 Q301.65 389.25 301.7 390.1 301.7 390.95 300.15 390.95 L291.45 391.7 283.65 392.45"/><path fill="#0d131a" d="M284.45 391.0 Q285.3 391.9 284.6 392.9 L281.35 399.35 Q278.65 405.05 278.4 406.1 278.15 407.4 277.75 405.45 277.4 403.65 278.05 402.9 278.5 402.4 280.2 397.8 282.05 392.9 282.6 391.9 283.6 390.15 284.45 391.0"/><path fill="#0d131a" d="M272.4 382.5 Q270.85 380.75 271.8 380.45 272.7 380.15 273.7 381.2 L279.25 386.15 284.6 391.1 Q285.25 391.9 284.45 392.2 L282.9 392.05 277.85 387.75 272.4 382.5"/><path fill="#0d131a" d="M278.05 370.5 Q279.55 369.0 279.85 369.7 280.15 370.3 279.55 371.25 L272.4 381.95 Q271.85 382.95 271.25 382.45 270.7 381.9 271.1 380.8 271.55 379.6 274.05 375.8 276.7 371.85 278.05 370.5"/><path fill="#0d131a" d="M207.3 339.6 Q209.0 338.55 215.45 336.05 L223.25 333.1 Q223.6 333.0 228.35 335.0 233.05 337.05 234.0 337.65 L251.0 335.35 263.5 336.35 274.45 335.3 283.55 334.65 282.8 335.9 Q281.75 337.15 280.35 337.0 L271.75 337.25 263.75 337.85 257.3 337.65 251.25 337.1 243.65 338.05 234.5 339.5 229.45 338.1 223.75 336.35 216.75 338.3 208.3 340.85 206.0 341.05 Q205.5 340.7 207.3 339.6"/><path fill="#87b1d0" d="M514.0 54.75 Q521.2 56.05 529.5 58.25 552.1 64.3 554.7 69.4 556.0 71.9 563.15 94.4 571.05 119.45 573.65 131.55 588.3 142.25 605.9 174.45 624.05 207.65 628.1 233.2 631.55 254.8 628.3 273.5 626.65 282.8 624.55 287.95 633.2 297.7 636.1 307.95 638.9 317.95 637.3 332.45 636.35 341.05 627.0 349.8 617.8 358.4 602.45 365.3 568.1 380.8 525.55 380.3 497.95 379.95 473.4 373.0 447.55 365.65 423.85 350.65 423.1 350.2 409.95 354.8 396.3 359.6 395.2 359.6 393.3 359.6 381.45 350.95 369.55 342.15 368.8 340.0 368.55 339.3 368.85 335.7 369.25 331.15 369.05 327.85 368.4 315.8 360.8 305.8 355.65 299.05 343.5 298.4 333.6 297.85 328.3 300.5 324.9 302.2 316.85 283.35 313.75 276.1 311.85 269.95 309.85 263.7 310.55 263.05 L317.3 256.65 Q321.7 251.75 322.8 247.1 325.15 237.1 322.45 225.3 319.85 213.9 315.05 210.8 313.0 209.45 299.0 205.25 285.5 201.15 285.2 200.75 281.35 195.1 278.95 178.7 276.45 161.5 279.35 154.55 282.0 148.15 296.1 140.15 309.35 132.6 313.25 133.4 323.8 135.45 330.3 134.55 343.3 132.75 359.3 121.6 370.25 114.0 384.25 89.85 393.3 74.25 406.1 46.95 407.8 43.25 424.95 45.35 442.65 47.55 452.25 53.6 455.3 55.5 457.85 64.35 459.2 68.95 460.55 75.35 461.25 77.75 475.15 79.2 488.7 80.6 490.5 79.35 495.0 76.35 506.9 54.05 507.1 53.45 514.0 54.75"/><path fill="#ffffff" d="M495.85 286.3 Q501.6 292.75 540.0 307.9 578.4 323.05 588.4 322.75 L595.9 322.2 Q601.8 321.4 605.65 319.4 607.5 318.4 604.15 322.4 598.35 329.0 587.4 331.1 581.2 332.3 571.05 331.1 559.5 329.75 545.95 325.6 533.15 321.7 520.25 316.3 508.05 311.25 502.6 307.75 501.4 307.0 498.4 296.45 495.35 285.75 495.85 286.3"/><path fill="#759ab5" d="M328.8 213.35 Q337.55 220.05 343.2 227.15 348.7 234.05 349.65 239.2 370.8 265.45 403.0 288.7 427.7 306.55 465.05 326.6 497.85 344.3 528.75 354.25 580.55 371.0 613.55 361.05 591.7 374.75 557.6 379.05 538.05 381.5 515.75 380.6 490.75 379.65 464.8 369.85 455.45 366.35 443.05 360.6 L422.45 350.85 Q421.0 350.8 408.65 355.35 396.5 359.85 395.2 359.6 389.15 358.3 379.05 349.35 369.55 340.85 370.0 339.0 370.35 337.65 369.75 332.05 369.0 324.9 367.0 318.55 360.95 299.25 346.75 297.4 L335.1 297.75 327.9 298.05 Q323.7 295.85 316.05 279.3 L309.25 263.2 315.4 257.4 Q321.75 250.75 323.0 246.55 326.55 234.65 323.7 224.8 318.2 206.0 290.55 202.85 286.55 202.4 284.4 198.5 282.7 195.4 283.1 193.15 307.8 197.3 328.8 213.35"/><path fill="#759ab5" d="M354.8 183.85 L339.25 179.95 Q362.65 180.7 372.5 179.1 385.05 177.05 401.7 168.3 L391.95 177.6 Q384.65 184.7 379.65 188.7 367.65 187.25 354.8 183.85"/><path fill="#0d131a" d="M508.25 56.4 Q506.75 60.9 502.2 68.3 497.45 75.9 493.65 79.55 493.25 79.95 490.3 80.35 487.3 80.75 488.25 79.6 492.85 74.45 495.55 70.6 498.1 67.05 499.95 63.35 L502.75 57.3 Q503.95 54.35 504.45 53.55 507.5 48.4 529.5 55.2 538.45 57.95 545.6 61.45 553.15 65.05 554.85 67.6 557.3 71.4 564.0 92.25 570.3 112.05 573.4 124.85 574.1 127.8 574.75 129.0 575.4 130.15 577.15 131.9 602.65 157.6 618.1 193.5 637.1 237.75 629.3 276.65 624.25 302.05 614.45 313.65 602.5 327.75 582.15 323.65 566.0 320.35 535.55 307.9 504.2 295.0 496.45 287.95 494.45 286.15 495.05 285.15 495.65 284.15 496.45 284.7 508.8 293.4 539.1 305.45 568.6 317.2 584.4 320.15 600.55 323.1 609.65 313.5 619.05 303.65 625.45 275.95 633.95 239.5 613.6 193.5 605.7 175.7 594.5 158.95 584.9 144.6 575.65 134.95 L571.55 130.5 Q570.85 129.4 569.85 125.45 566.65 112.95 560.15 93.75 553.3 73.4 550.95 70.4 547.1 65.45 528.1 59.35 509.25 53.25 508.25 56.4"/><path fill="#0d131a" d="M594.2 183.75 Q607.9 201.8 613.5 227.2 619.05 252.4 614.65 275.55 613.9 279.3 612.85 280.0 611.75 280.7 612.4 275.15 615.7 246.5 609.4 223.45 603.9 203.35 589.7 183.55 588.8 182.25 590.15 178.05 591.0 175.55 593.15 170.8 593.85 169.2 594.6 169.85 595.35 170.45 595.15 171.2 593.95 175.85 593.45 178.5 593.2 179.85 593.4 181.35 593.6 183.0 594.2 183.75"/><path fill="#0d131a" d="M366.45 338.3 Q368.6 331.8 365.75 321.15 362.95 310.8 357.85 305.0 353.05 299.6 344.15 299.4 337.65 299.25 332.55 301.4 L329.35 302.5 Q327.95 302.75 327.1 302.15 322.3 298.8 315.2 283.75 308.55 269.8 307.9 264.1 L307.75 261.85 Q307.95 260.75 309.1 260.1 322.0 252.95 322.65 237.05 323.25 221.65 312.3 210.35 311.4 209.4 311.55 208.85 311.75 208.3 312.7 208.4 315.2 208.7 317.55 211.85 327.7 225.4 326.2 240.3 324.75 254.8 313.2 262.8 310.4 264.75 318.35 281.7 326.3 298.65 329.85 297.65 351.6 291.65 361.95 304.7 366.8 310.9 369.35 320.0 371.85 329.0 371.45 338.45 371.35 341.4 382.45 350.1 393.8 358.95 397.3 357.55 411.85 351.7 416.8 350.25 424.25 348.1 427.05 349.95 479.0 383.8 546.6 377.1 571.2 374.65 593.05 367.2 611.5 360.9 618.95 354.6 619.15 355.2 624.55 352.0 629.95 348.75 630.3 349.35 622.2 359.3 600.85 368.0 577.75 377.4 549.85 380.6 517.75 384.3 487.55 378.6 452.55 372.0 424.15 353.3 422.35 352.1 412.35 355.95 410.75 356.6 399.15 361.6 396.7 362.7 395.7 362.75 394.35 362.85 392.6 361.8 386.15 357.95 377.2 350.75 365.45 341.3 366.45 338.3"/><path fill="#0d131a" d="M488.25 132.3 Q490.55 132.9 499.8 132.3 508.5 131.75 510.0 132.55 515.95 135.7 524.3 149.1 532.05 161.55 533.7 168.8 L534.75 172.7 Q535.05 174.75 533.95 177.25 530.65 184.95 529.9 187.1 526.6 196.2 526.6 202.1 526.6 204.7 525.5 204.65 524.45 204.65 524.0 203.0 522.7 198.05 525.8 188.45 L530.15 174.5 Q530.9 170.2 525.0 158.55 518.3 145.25 509.0 136.65 507.15 134.9 497.5 135.75 488.1 136.6 486.55 134.75 481.7 129.0 473.5 114.0 467.1 102.45 461.05 82.6 455.8 63.8 454.5 60.45 451.05 51.55 432.45 48.5 425.55 47.35 418.5 47.4 412.1 47.45 409.45 48.35 408.35 48.7 404.9 55.7 L397.2 71.9 Q384.95 97.5 377.1 106.6 361.25 124.9 348.1 131.75 331.9 140.2 312.7 136.05 309.95 135.45 299.7 141.0 289.65 146.45 285.35 150.6 284.25 151.65 283.35 153.15 282.35 154.75 281.95 156.25 279.2 166.75 282.2 182.4 285.15 197.9 290.0 199.45 317.1 208.2 331.35 217.9 344.45 226.85 352.4 240.7 354.7 244.7 354.05 246.4 353.35 248.1 350.9 243.7 344.05 231.55 325.75 219.25 306.7 206.45 291.3 204.8 288.35 204.5 284.55 201.3 282.9 199.9 281.05 193.3 279.2 186.8 278.1 178.7 275.3 158.4 279.45 152.2 283.65 145.8 297.2 137.9 310.8 130.0 315.1 131.5 333.95 138.05 353.25 124.25 359.75 119.6 366.4 112.5 L374.45 103.2 Q381.25 95.35 390.35 77.5 399.1 60.4 402.6 48.9 403.2 46.95 404.45 45.5 405.8 44.0 407.45 43.65 417.5 41.45 433.35 44.75 445.25 47.25 449.8 49.65 453.35 51.55 455.05 53.45 456.75 55.4 458.05 59.15 L462.95 74.25 Q467.25 87.6 471.25 98.6 475.1 109.05 481.7 121.4 487.45 132.15 488.25 132.3"/><path fill="#0d131a" d="M505.25 231.55 Q510.4 238.4 522.3 259.05 533.3 278.2 534.7 281.7 535.05 282.6 534.65 282.95 L533.7 282.8 Q530.6 279.95 517.9 271.7 L500.35 260.3 497.05 258.05 Q495.05 256.6 494.75 255.8 491.85 248.45 497.7 238.65 499.9 235.05 502.25 232.8 504.6 230.7 505.25 231.55"/><path fill="#ffffff" d="M505.65 234.45 Q511.95 243.0 532.15 277.15 532.5 277.9 531.9 279.05 531.35 280.2 530.9 279.75 528.25 277.35 516.75 269.65 504.25 261.45 501.1 259.25 498.85 257.65 498.1 256.05 495.4 249.95 500.05 241.35 501.65 238.4 503.6 236.1 505.35 234.1 505.65 234.45"/><path fill="#0d131a" d="M326.55 180.95 Q322.05 185.45 311.7 189.25 299.5 193.75 290.2 192.2 287.85 191.8 287.4 190.7 286.9 189.55 290.4 189.85 302.05 190.95 314.2 184.8 324.1 179.8 325.7 176.0 327.3 172.25 320.7 159.25 315.35 148.7 311.25 143.4 309.95 141.75 310.35 140.6 310.8 139.45 312.85 141.6 317.85 146.85 323.85 158.95 329.0 169.3 329.9 173.45 330.5 176.2 329.25 178.1 L326.55 180.95"/><path fill="#0d131a" d="M524.65 205.6 Q525.25 205.2 526.8 207.2 539.5 223.65 550.5 254.6 559.45 279.65 559.95 288.65 560.05 291.6 558.15 292.6 556.05 293.7 551.9 292.2 550.1 291.6 546.55 289.85 543.1 288.2 541.75 287.35 539.2 285.7 539.25 285.15 539.3 284.55 542.85 285.65 549.0 287.65 550.7 287.95 554.7 288.75 554.7 286.8 554.7 278.95 546.8 256.25 537.6 229.65 525.25 208.2 524.0 206.05 524.65 205.6"/><path fill="#0d131a" d="M491.5 78.35 Q495.65 78.75 495.2 79.95 494.75 81.2 489.25 81.4 L475.55 80.55 Q466.05 79.55 463.05 78.6 460.0 77.65 459.95 76.1 459.9 74.6 463.05 75.1 L477.3 77.0 491.5 78.35"/><path fill="#0d131a" d="M567.6 295.1 Q568.75 294.8 569.7 295.7 571.4 297.25 572.4 299.5 573.35 301.65 573.4 303.95 573.5 306.45 571.9 307.9 570.3 309.3 570.25 306.2 570.25 304.7 569.9 303.3 L569.1 300.75 568.45 299.4 567.25 297.2 Q566.35 295.4 567.6 295.1"/><path fill="#0d131a" d="M611.1 296.8 Q610.25 300.1 609.15 301.0 606.0 303.6 607.0 300.5 L608.65 295.7 610.0 290.8 Q610.3 289.65 610.75 290.0 611.2 290.25 611.5 291.4 612.05 293.35 611.1 296.8"/><path fill="#0d131a" d="M522.95 301.65 Q523.65 300.05 525.75 301.55 527.8 303.0 527.2 304.4 L521.2 314.95 Q520.65 316.1 519.4 315.45 518.2 314.85 518.75 313.7 L522.95 301.65"/><path fill="#0d131a" d="M560.95 316.4 Q562.35 315.2 564.1 316.1 565.8 317.05 564.95 317.9 L559.2 322.25 553.3 326.75 Q552.35 327.7 550.45 327.3 548.6 326.95 549.7 326.0 L560.95 316.4"/><path fill="#0d131a" d="M589.65 322.9 Q590.65 321.35 591.85 321.8 593.1 322.25 592.4 323.15 L586.15 330.65 Q585.2 331.45 582.25 331.65 579.35 331.9 579.9 331.15 L584.7 327.2 589.65 322.9"/><path fill="#cccccc" d="M498.75 244.1 Q500.35 240.25 502.95 236.95 505.25 234.0 505.65 234.45 511.75 242.65 528.55 270.9 L532.0 278.85 531.4 279.7 Q516.4 260.6 498.75 244.1"/><path fill="#759ab5" d="M482.15 203.05 Q481.4 207.8 479.25 213.5 L474.9 223.6 Q459.9 211.9 441.55 200.15 L468.55 194.8 Q473.8 195.1 482.15 203.05"/><path fill="#e50038" d="M501.15 239.6 Q504.9 233.5 505.65 234.45 509.4 239.6 517.7 253.05 515.8 255.45 512.45 256.55 509.0 257.65 505.0 257.05 501.05 256.45 497.2 251.75 497.05 246.1 501.15 239.6"/><path fill="#c6002f" d="M498.75 244.1 Q500.35 240.25 502.95 236.95 505.25 234.0 505.65 234.45 508.95 238.95 517.9 253.35 515.95 256.45 512.4 257.65 505.8 250.65 498.75 244.1"/><path fill="#0d131a" d="M509.65 243.15 Q510.25 243.95 510.15 245.2 510.05 246.55 509.15 247.4 508.3 248.3 506.75 248.15 505.2 248.0 504.35 246.95 503.35 245.8 503.55 244.35 503.75 242.85 505.05 242.0 506.0 241.4 507.3 241.6 508.8 241.8 509.65 243.15"/><path fill="#0d131a" d="M517.3 250.0 L518.9 251.8 Q519.7 252.7 519.5 253.05 516.35 259.65 507.5 259.55 498.55 259.5 494.75 252.45 495.05 251.95 495.25 249.7 495.4 247.5 495.75 247.05 497.6 255.6 506.5 255.9 510.15 256.0 513.2 254.45 516.35 252.75 517.3 250.0"/><path fill="#0d131a" d="M472.25 246.5 Q469.7 229.0 480.9 204.2 483.0 202.95 494.65 217.55 506.25 232.05 505.6 233.05 504.5 233.8 503.1 235.1 500.3 237.7 497.2 243.15 494.15 248.5 495.5 254.5 L496.55 257.85 Q496.95 259.0 496.6 258.9 495.2 258.45 485.4 253.6 474.85 248.4 472.25 246.5"/><path fill="#0d131a" d="M456.8 195.45 Q469.1 192.8 472.45 194.45 487.9 201.95 512.1 239.4 520.65 252.65 527.9 266.0 534.25 277.7 535.0 280.6 535.7 283.25 534.9 283.9 534.1 284.6 532.95 282.2 520.1 255.25 504.45 233.3 487.05 208.95 471.7 198.95 468.85 197.05 458.5 198.75 452.6 199.75 433.6 204.1 424.05 206.25 424.85 204.6 425.65 202.95 434.95 200.8 L456.8 195.45"/><path fill="#0d131a" d="M471.0 246.0 Q470.6 245.2 470.45 242.2 470.15 233.8 473.25 222.5 476.2 211.9 480.6 203.8 481.35 202.55 482.0 203.1 482.65 203.7 482.0 205.2 477.9 214.5 475.35 225.35 472.55 237.5 473.35 245.05 487.55 252.0 501.75 260.2 519.05 270.2 533.5 280.5 534.75 281.35 535.0 283.05 535.25 284.7 533.95 283.75 532.65 282.85 509.7 269.3 485.5 255.05 474.4 248.75 471.6 247.2 471.0 246.0"/><path fill="#0d131a" d="M340.5 182.05 Q334.4 180.2 336.1 179.5 337.85 178.75 344.75 180.2 L369.15 185.15 Q377.85 186.75 379.25 186.2 380.4 185.75 388.85 178.0 L400.05 167.9 Q401.3 166.9 407.6 166.45 415.5 165.95 416.65 167.0 417.75 168.0 410.1 168.95 404.95 169.65 403.8 170.4 401.5 171.85 391.6 180.9 381.95 189.75 380.05 190.8 378.8 191.45 369.25 189.55 357.45 187.15 340.5 182.05"/><path fill="#0d131a" d="M409.65 224.55 Q409.9 217.8 411.15 218.7 412.3 219.55 412.75 225.5 413.3 232.6 414.8 247.8 415.15 250.9 415.7 251.3 L420.15 251.05 435.75 248.25 Q442.45 247.05 444.2 248.15 446.25 249.5 446.55 256.35 L447.3 271.75 Q447.4 274.1 448.0 274.35 448.75 274.65 452.15 273.4 L479.35 263.75 Q484.05 262.1 486.7 262.85 489.4 263.55 490.6 267.0 L498.6 290.55 Q503.6 304.7 505.6 305.85 524.25 316.6 546.75 323.75 580.15 334.35 596.65 326.35 601.05 324.25 604.15 320.65 606.5 317.9 607.15 318.1 608.55 318.45 606.4 321.85 603.8 325.9 597.25 328.9 579.3 337.2 545.85 326.7 535.0 323.3 521.75 317.65 509.25 312.05 506.0 310.75 L502.8 309.2 Q501.35 308.3 500.5 307.1 499.85 306.15 495.0 291.9 L487.85 270.25 Q486.7 266.65 485.25 266.05 484.05 265.55 480.95 266.75 L468.55 271.8 Q459.1 275.7 454.05 277.6 445.85 280.7 444.5 279.9 443.0 279.05 442.8 270.7 L442.7 254.45 Q442.6 251.7 441.4 251.25 L436.0 251.65 418.9 255.4 Q413.35 256.7 412.25 256.15 411.05 255.55 410.65 251.1 409.25 234.45 409.65 224.55"/><path fill="#0d131a" d="M361.4 253.85 Q357.0 249.05 357.85 247.65 358.7 246.2 361.3 249.05 394.25 284.65 448.6 316.2 507.35 350.25 558.8 359.7 586.4 364.8 605.45 359.15 622.3 354.15 630.25 341.55 637.45 330.1 635.65 315.4 633.9 301.1 624.25 289.2 623.6 288.4 623.85 287.25 624.15 286.1 624.65 286.5 634.9 294.65 638.9 309.8 643.15 325.7 637.45 339.35 630.85 355.05 612.85 361.75 591.7 369.65 557.75 363.65 506.25 354.55 448.05 320.9 393.9 289.6 361.4 253.85"/></g></svg>