<?xml version='1.0' encoding='utf-8'?>
<svg xmlns="http://www.w3.org/2000/svg" version="1.1" width="218px" height="329px" viewBox="-0.05 -0.45 217.95 328.85"><g><path fill="#cea6cc" d="M191.05 181.95 Q179.4 191.35 175.7 192.2 177.95 197.6 179.05 206.25 180.0 213.6 179.9 221.3 182.55 225.25 190.35 234.85 196.85 244.3 197.15 253.05 197.45 263.35 187.4 276.85 189.15 281.05 194.65 284.15 197.55 285.8 201.95 287.8 206.4 290.7 206.15 297.1 205.9 303.8 199.85 304.85 L183.35 305.4 Q169.45 305.25 163.45 304.1 160.6 303.55 157.55 301.65 154.4 299.7 153.85 297.95 153.65 297.25 153.5 292.9 153.4 288.2 153.0 286.05 152.4 282.7 144.65 277.2 L136.95 272.35 131.1 269.85 Q127.8 268.55 124.2 267.55 119.9 267.25 106.25 270.4 91.35 273.85 82.1 277.9 L79.55 280.55 75.2 284.5 Q72.2 286.75 60.75 288.35 49.2 289.95 45.0 288.65 39.6 287.0 32.75 278.7 25.35 269.75 23.1 260.65 21.55 254.4 21.4 250.1 21.15 245.25 22.5 240.3 24.6 232.65 29.85 224.25 34.5 216.8 43.7 204.1 51.2 193.65 52.7 190.5 48.3 183.8 46.95 179.9 45.3 175.1 45.95 169.4 47.25 158.25 72.0 136.2 L75.5 129.8 Q77.95 125.1 78.95 121.45 L98.05 110.4 152.1 124.4 Q160.35 129.75 167.6 139.4 L175.0 149.6 180.0 145.35 211.9 161.3 Q204.25 171.3 191.05 181.95"/><path fill="#30353a" d="M78.4 124.65 L78.85 122.2 85.5 111.05 152.0 123.85 Q158.65 133.55 157.3 147.25 155.85 161.65 146.2 164.6 140.0 166.55 130.75 164.6 121.5 162.65 111.75 157.4 89.1 145.2 78.4 124.65"/><path fill="#cea6cc" d="M182.9 7.7 Q187.35 13.35 191.6 20.6 196.75 29.35 198.3 35.1 198.45 35.75 194.8 36.55 L186.05 38.45 186.7 42.55 187.15 46.7 Q191.75 53.4 191.05 53.6 189.2 54.05 187.3 54.85 187.3 59.25 186.9 64.3 189.1 65.75 190.9 68.6 192.4 70.95 192.9 72.9 194.95 81.1 189.75 95.0 184.8 108.1 178.8 113.25 177.3 114.55 174.3 114.95 171.75 115.3 167.15 115.05 163.1 120.05 154.7 123.85 146.5 127.5 138.95 128.0 126.9 128.8 111.1 123.45 L100.6 119.75 Q95.6 118.1 93.15 118.3 86.45 118.85 77.6 122.35 74.75 123.45 73.0 123.45 70.7 123.45 67.9 121.8 61.75 118.2 53.95 107.6 45.05 95.5 46.15 88.5 46.65 85.15 49.35 80.25 51.95 75.45 56.0 70.4 L57.1 65.95 Q29.4 67.85 12.65 72.15 L5.4 74.15 Q3.55 74.6 3.05 73.6 1.05 69.55 1.05 59.3 1.05 52.65 2.15 36.9 2.75 28.05 7.25 21.2 12.3 13.5 21.15 10.1 30.45 6.5 44.9 10.15 54.65 12.6 75.7 21.4 78.3 17.6 80.45 15.2 83.05 12.35 84.1 12.75 85.5 13.25 85.5 18.55 L85.4 25.55 88.25 26.7 Q91.95 23.6 97.25 21.95 101.05 20.75 106.95 20.0 120.95 18.4 131.4 21.5 145.15 10.15 154.3 5.0 161.4 1.0 169.25 1.3 178.15 1.65 182.9 7.7"/><path fill="#60615f" d="M128.9 55.85 Q129.75 52.6 138.05 52.8 146.3 53.05 145.8 56.5 145.35 59.35 143.15 61.3 141.1 63.05 138.85 63.05 135.5 63.05 132.0 60.8 128.2 58.35 128.9 55.85"/><path fill="#ffffff" d="M104.15 42.8 Q111.7 44.1 118.2 46.45 126.45 49.45 131.8 53.75 L130.55 54.3 117.9 53.8 Q109.5 54.05 103.4 55.35 101.05 55.75 100.95 54.55 L101.5 51.9 Q102.6 46.6 104.15 42.8"/><path fill="#ffffff" d="M144.55 48.25 Q147.55 45.75 151.5 43.55 153.4 45.85 154.85 50.15 156.05 53.65 155.95 54.45 L149.1 54.25 144.85 54.55 140.65 52.9 Q141.2 51.05 144.55 48.25"/><path fill="#cea6cc" d="M23.95 234.6 Q20.05 227.25 18.15 222.65 15.2 215.5 15.25 211.5 15.3 209.5 16.25 208.55 17.45 207.35 20.4 207.5 L30.5 208.25 41.05 207.2 31.15 221.35 Q26.0 229.15 23.95 234.6"/><path fill="#30353a" d="M184.7 147.3 Q186.55 149.1 187.3 149.05 L187.25 149.3 Q187.25 150.65 188.6 152.55 189.95 154.35 191.55 155.3 192.6 155.95 195.65 155.85 195.3 156.4 197.65 157.2 200.3 158.15 200.5 158.4 201.75 159.9 204.9 160.7 L211.1 161.8 203.6 170.8 Q193.6 171.3 185.55 161.35 182.05 156.95 181.0 152.4 179.85 147.55 181.9 144.05 183.05 145.7 184.7 147.3"/><path fill="#cea6cc" d="M213.3 135.3 Q216.3 139.45 216.75 145.2 217.0 148.1 216.45 152.25 216.2 154.5 215.05 157.0 213.5 160.35 211.25 161.65 208.4 161.8 205.35 160.85 202.35 159.95 200.8 158.55 198.1 160.05 197.0 160.35 L193.85 160.3 Q190.15 159.1 187.55 155.05 185.05 151.1 185.9 148.35 183.4 148.55 179.5 145.45 175.15 141.95 175.7 138.3 174.2 137.25 172.95 135.65 170.5 132.4 172.0 129.3 174.05 125.0 180.3 121.6 186.65 118.1 191.75 118.7 197.1 119.3 201.0 122.0 206.45 125.7 213.3 135.3"/><path fill="#ffffff" d="M157.45 81.15 Q153.1 76.05 149.0 73.6 156.05 73.9 160.9 75.5 L157.45 81.15"/><path fill="#ffffff" d="M108.1 88.15 L107.95 82.0 Q116.3 77.45 128.6 75.15 L120.15 81.2 Q113.1 86.1 108.1 88.15"/><path fill="#ffffff" d="M97.75 126.2 Q98.95 130.7 98.05 133.7 97.1 136.65 94.45 137.3 91.75 138.0 88.95 135.6 86.15 133.2 85.1 129.3 84.25 126.0 85.3 123.0 86.4 119.8 89.05 119.2 91.55 118.6 93.85 120.15 96.6 122.0 97.75 126.2"/><path fill="#30353a" d="M85.55 164.35 Q84.95 175.3 92.85 182.0 101.7 189.5 120.95 191.5 120.1 191.7 114.8 193.8 109.4 195.95 105.15 197.0 92.9 195.8 87.1 187.75 81.1 179.4 82.95 164.85 83.95 164.15 84.4 164.25 L85.55 164.35"/><path fill="#60615f" d="M128.05 56.3 Q129.0 52.7 138.1 52.95 147.25 53.15 146.65 57.0 146.2 60.15 143.75 62.25 141.5 64.15 139.05 64.15 135.35 64.15 131.5 61.7 127.3 59.05 128.05 56.3"/><path fill="#922f00" d="M157.45 81.15 Q153.1 76.05 149.0 73.6 156.05 73.9 160.9 75.5 L157.45 81.15"/><path fill="#922f00" d="M108.45 88.1 L105.2 83.5 Q109.65 81.05 116.25 78.65 123.1 76.15 128.6 75.15 L120.35 81.15 Q113.45 86.05 108.45 88.1"/><path fill="#ffffff" d="M97.75 126.2 Q98.95 130.7 98.05 133.7 97.1 136.65 94.45 137.3 91.75 138.0 88.95 135.6 86.15 133.2 85.1 129.3 84.25 126.0 85.3 123.0 86.4 119.8 89.05 119.2 91.55 118.6 93.85 120.15 96.6 122.0 97.75 126.2"/><path fill="#ffffff" d="M108.45 81.55 Q110.95 80.35 116.65 78.25 116.55 80.15 115.6 82.5 114.55 85.05 113.55 85.45 112.6 85.85 110.9 84.4 109.5 83.2 108.45 81.55"/><path fill="#ffffff" d="M157.5 74.65 Q156.6 77.15 155.15 78.7 152.95 76.3 149.3 73.75 L153.6 74.05 157.5 74.65"/><path fill="#cea6cc" d="M26.7 269.65 Q30.4 276.5 35.85 282.3 41.3 288.15 44.65 288.8 L51.55 289.2 60.25 288.65 Q60.25 294.15 61.0 297.65 61.25 298.8 64.1 303.6 L68.2 310.85 Q69.45 313.55 67.5 317.6 65.85 321.1 63.1 323.4 60.75 325.4 45.1 326.85 39.65 327.35 32.6 325.8 24.4 324.0 18.9 320.3 17.15 319.1 15.95 315.05 15.25 312.6 14.55 308.3 14.15 305.7 16.15 300.65 17.8 296.4 20.4 292.1 23.15 287.6 24.9 282.2 27.1 275.35 26.7 269.65"/><path fill="#b390b1" d="M106.4 270.55 Q91.5 273.95 82.1 277.75 L79.3 280.45 74.75 284.4 Q71.75 286.7 60.55 288.45 L45.1 288.95 Q40.35 287.55 36.2 283.1 32.65 279.35 26.85 270.4 24.0 266.0 22.25 259.3 20.35 252.1 21.15 246.9 31.95 259.4 47.95 262.4 60.2 264.7 78.3 261.6 L108.0 255.5 Q124.15 252.6 132.85 255.15 162.05 263.7 177.25 259.85 191.1 256.35 194.0 242.3 196.5 247.6 196.7 252.95 196.9 258.9 194.1 265.7 191.75 271.4 187.65 276.9 L187.9 277.85 Q190.8 282.2 196.4 285.55 182.85 285.35 173.45 287.65 163.65 290.0 153.55 296.15 152.9 287.95 152.35 284.8 151.9 282.1 144.8 277.15 L137.85 272.8 Q132.45 269.9 124.5 267.7 120.35 267.4 106.4 270.55"/><path fill="#b390b1" d="M16.0 215.75 Q20.4 216.85 26.1 216.6 31.8 216.35 36.0 214.85 32.6 219.3 29.55 225.1 L24.45 235.5 20.25 226.25 Q17.2 219.6 16.0 215.75"/><path fill="#b390b1" d="M19.05 294.8 Q23.75 285.6 24.8 282.85 27.45 275.9 26.85 269.8 34.25 283.45 41.65 287.3 47.95 290.55 59.8 288.75 60.15 295.65 61.4 298.45 L62.25 300.25 Q53.85 296.1 41.8 294.6 29.9 293.1 19.05 294.8"/><path fill="#b390b1" d="M1.65 41.7 Q2.1 30.1 6.95 21.55 11.05 14.3 16.3 12.2 23.05 11.0 33.25 28.9 40.15 40.9 44.65 53.2 L55.85 52.1 64.3 51.6 Q61.0 56.85 57.35 65.85 30.25 67.75 13.15 72.05 L5.65 74.05 Q3.7 74.5 3.2 73.5 0.65 68.5 1.65 41.7"/><path fill="#b390b1" d="M164.35 50.85 Q161.1 48.3 160.8 47.35 L160.1 45.8 159.55 44.85 172.95 41.2 Q172.95 45.45 171.45 50.25 L169.95 54.85 Q167.15 53.05 164.35 50.85"/><path fill="#b390b1" d="M187.3 54.85 L187.15 46.7 190.85 53.0 187.3 54.85"/><path fill="#b390b1" d="M176.0 192.2 L170.5 178.0 Q173.3 181.15 183.15 181.1 191.3 181.0 194.8 178.6 191.8 181.2 186.65 184.85 L176.0 192.2"/><path fill="#b390b1" d="M167.25 115.35 Q164.8 117.9 160.1 120.75 150.8 126.4 139.75 127.75 125.6 128.25 109.2 123.15 L98.85 119.65 Q94.25 118.05 92.85 118.15 87.75 118.45 78.95 121.65 72.1 124.15 69.8 122.9 65.75 120.75 61.35 116.75 55.85 111.7 53.1 106.4 65.9 114.45 76.6 112.4 L85.2 110.25 94.95 109.8 Q97.55 110.2 108.9 113.4 119.75 116.4 127.2 117.35 151.65 120.55 168.9 107.2 171.6 105.1 174.3 105.3 175.85 105.4 178.6 106.25 183.65 107.15 189.3 96.9 L185.6 104.75 Q181.3 112.8 178.55 113.9 175.85 115.0 171.25 115.3 L167.25 115.35"/><path fill="#b390b1" d="M52.8 190.4 Q48.35 185.2 46.2 178.6 45.1 175.25 45.65 171.75 L46.45 168.9 Q46.55 173.7 49.6 178.55 52.8 183.7 58.3 187.25 71.55 195.8 89.75 191.0 91.75 193.2 96.45 194.95 L104.05 197.0 Q95.7 199.8 87.75 200.95 77.35 202.4 69.9 200.65 59.5 198.25 52.8 190.4"/><path fill="#212226" d="M102.2 186.7 L108.95 188.9 Q116.75 191.1 122.1 191.1 114.55 194.35 105.75 197.25 100.75 196.75 96.35 195.05 91.75 193.3 89.5 190.9 96.65 188.95 102.2 186.7"/><path fill="#212226" d="M134.15 127.9 Q139.5 127.9 146.95 126.45 L153.3 124.95 Q156.7 135.05 156.65 136.15 156.55 141.7 153.6 146.55 149.75 152.8 142.9 153.3 130.7 154.15 116.3 142.15 111.4 138.05 104.0 130.55 L91.8 118.35 Q93.7 117.85 109.45 122.65 126.55 127.9 134.15 127.9"/><path fill="#b390b1" d="M195.4 157.25 Q199.7 155.6 204.75 152.5 215.15 146.15 215.8 142.65 216.75 148.9 216.7 150.2 216.65 154.75 213.65 158.6 209.8 163.55 211.1 161.5 210.1 162.0 208.3 161.9 204.65 161.8 200.5 159.0 195.6 161.25 193.5 160.3 192.1 159.0 190.75 158.35 192.15 158.5 195.4 157.25"/><path fill="#dbdcdc" d="M104.15 42.8 Q111.7 44.1 118.2 46.45 126.45 49.45 131.8 53.75 L131.05 54.05 Q126.55 51.7 119.6 49.4 110.0 46.25 103.0 46.1 L104.15 42.8"/><path fill="#dbdcdc" d="M151.5 43.55 L153.05 45.95 Q150.3 46.4 147.05 47.9 144.0 49.35 141.75 51.05 143.1 49.3 145.9 47.15 148.5 45.2 151.5 43.55"/><path fill="#0d131a" d="M193.8 72.2 Q195.9 80.6 191.05 94.75 186.35 108.45 180.1 113.8 178.4 115.25 174.9 115.7 171.95 116.05 167.1 115.8 166.8 115.8 167.45 115.1 L168.35 114.35 174.45 114.15 Q177.0 113.8 178.35 112.65 184.05 107.8 188.75 94.85 193.75 81.1 191.65 72.9 191.2 70.95 190.1 69.0 188.6 66.3 186.6 65.0 186.7 63.95 186.95 63.15 189.6 64.7 191.6 67.6 193.2 70.0 193.8 72.2"/><path fill="#0d131a" d="M170.2 53.95 L169.5 55.3 Q161.3 50.25 159.55 46.15 153.7 32.45 139.4 25.55 125.1 18.65 107.05 20.8 97.85 21.85 88.55 26.95 L86.65 26.15 Q90.95 23.45 96.6 21.4 102.3 19.35 107.15 18.8 126.5 16.5 140.85 23.9 154.75 31.0 160.95 45.55 162.5 49.2 170.2 53.95"/><path fill="#0d131a" d="M62.75 51.95 L64.85 51.95 Q61.5 57.9 58.15 67.2 L53.6 73.05 Q55.4 67.9 57.85 62.15 60.6 55.65 62.75 51.95"/><path fill="#0d131a" d="M187.0 47.9 Q186.65 47.35 186.8 46.2 186.95 45.05 187.15 45.35 L191.95 51.9 Q193.05 53.5 192.85 53.95 192.7 54.35 190.95 54.85 L187.7 55.5 Q187.4 55.55 187.15 54.85 186.95 54.15 187.3 54.0 188.9 53.35 190.2 53.05 189.65 51.8 187.0 47.9"/><path fill="#0d131a" d="M160.95 74.95 Q161.2 75.05 160.95 75.75 160.65 76.45 160.35 76.35 156.35 74.8 150.05 74.4 L148.3 72.65 Q156.2 73.05 160.95 74.95"/><path fill="#0d131a" d="M143.25 61.5 Q145.4 59.6 145.85 56.85 146.1 55.05 141.8 54.2 137.7 53.35 133.5 54.1 129.3 54.85 128.85 56.5 128.55 57.65 129.55 58.95 130.9 60.75 133.95 62.05 136.75 63.3 139.05 63.3 141.25 63.3 143.25 61.5 M142.15 52.55 Q147.95 53.7 147.4 56.9 146.9 60.35 144.3 62.75 141.8 65.0 139.05 65.0 136.45 65.0 133.0 63.5 129.3 61.9 127.65 59.8 126.55 58.25 126.55 56.85 126.55 54.15 131.1 52.75 135.95 51.25 142.15 52.55"/><path fill="#0d131a" d="M102.0 43.25 Q99.05 42.85 100.3 42.3 101.5 41.8 104.4 42.25 121.85 44.8 132.25 53.15 132.5 53.35 132.05 53.95 131.55 54.55 131.3 54.35 125.2 49.45 115.3 46.3 109.0 44.3 102.0 43.25"/><path fill="#0d131a" d="M103.8 45.6 Q102.9 48.5 101.65 54.85 107.7 53.5 117.0 53.15 L130.65 53.55 Q130.95 53.6 130.35 54.25 L129.45 54.9 Q124.4 54.4 116.35 54.8 107.75 55.25 101.9 56.55 100.9 56.7 100.4 56.3 99.85 55.85 100.05 54.8 100.9 50.3 102.05 46.7 102.65 44.85 103.55 44.3 104.45 43.75 103.8 45.6"/><path fill="#0d131a" d="M149.1 44.25 Q151.7 42.9 152.65 43.15 153.6 43.4 151.0 44.75 147.6 46.55 144.5 49.5 141.95 51.95 141.35 53.2 141.25 53.5 140.55 53.2 139.85 52.9 139.95 52.6 140.65 51.0 142.85 48.85 145.6 46.15 149.1 44.25"/><path fill="#0d131a" d="M152.7 46.45 Q151.95 45.0 152.8 45.4 153.65 45.85 154.45 47.45 156.1 50.8 156.55 53.3 156.85 54.65 156.5 54.95 L155.05 55.15 149.1 54.95 145.55 55.1 144.75 54.55 Q144.3 53.95 144.65 53.85 L148.65 53.5 Q151.95 53.4 155.05 53.6 154.3 49.7 152.7 46.45"/><path fill="#0d131a" d="M137.1 45.25 Q135.9 43.1 136.8 43.4 137.75 43.7 139.0 45.95 140.85 49.25 141.45 53.05 141.5 53.4 140.75 53.5 140.0 53.6 139.9 53.3 139.6 51.45 138.7 48.85 L137.1 45.25"/><path fill="#0d131a" d="M131.85 46.45 Q131.95 43.55 132.55 43.35 133.15 43.2 133.2 46.0 L133.25 48.8 133.1 53.6 Q133.1 53.9 132.35 53.85 131.55 53.8 131.6 53.45 L131.85 46.45"/><path fill="#0d131a" d="M132.0 59.85 Q130.6 59.75 130.9 59.05 131.15 58.35 132.6 58.35 135.35 58.35 136.7 60.4 137.4 61.55 137.05 62.1 136.7 62.6 135.9 61.55 134.7 60.1 132.0 59.85"/><path fill="#0d131a" d="M141.6 60.1 Q142.05 58.8 143.3 58.05 144.5 57.35 146.2 57.35 146.55 57.35 146.55 58.2 146.55 59.05 146.2 59.05 143.45 59.05 142.7 60.9 142.2 62.2 141.7 61.85 141.2 61.5 141.6 60.1"/><path fill="#0d131a" d="M78.0 121.95 L78.9 121.55 79.7 121.65 Q78.9 124.65 77.15 128.25 L74.15 133.85 70.8 136.7 72.6 133.4 75.45 128.15 Q77.2 124.65 78.0 121.95"/><path fill="#0d131a" d="M77.5 125.2 Q77.4 124.95 77.8 123.85 78.2 122.75 78.35 123.0 81.8 129.6 87.85 136.7 93.4 143.2 99.45 148.2 L96.65 148.8 Q91.0 144.0 85.9 137.7 80.95 131.55 77.5 125.2"/><path fill="#0d131a" d="M153.15 124.3 Q156.8 130.5 157.7 139.35 158.6 148.25 156.2 155.0 153.25 163.7 146.15 165.85 141.75 167.2 135.0 166.35 L134.45 163.95 145.6 163.45 Q151.65 161.55 154.4 153.55 156.7 147.0 155.85 138.9 155.05 130.85 151.5 124.95 151.3 124.65 152.1 124.3 152.95 123.95 153.15 124.3"/><path fill="#0d131a" d="M82.6 165.4 L84.35 164.5 Q82.75 170.15 83.65 176.5 84.5 182.75 87.5 187.1 91.35 192.75 98.4 195.05 104.85 197.15 109.45 195.3 106.45 197.35 105.1 197.45 99.5 197.9 94.45 195.65 89.1 193.3 85.8 188.5 82.6 183.8 81.75 176.6 80.95 169.9 82.6 165.4"/><path fill="#0d131a" d="M63.3 171.75 Q58.2 173.0 57.4 172.45 56.6 171.9 61.25 170.55 78.45 165.45 86.15 162.55 85.85 163.3 85.9 163.8 L85.95 164.9 Q79.85 167.7 63.3 171.75"/><path fill="#0d131a" d="M163.25 159.75 Q164.35 163.25 167.1 169.0 177.35 190.25 179.85 201.65 183.1 216.6 178.35 232.15 177.25 235.8 176.45 235.6 175.65 235.4 176.6 231.7 180.75 215.6 175.8 197.1 173.1 187.0 165.15 170.15 162.3 164.0 161.15 159.85 160.35 156.9 159.8 151.85 159.25 147.05 160.15 146.9 161.05 146.8 161.6 151.7 162.1 156.2 163.25 159.75"/><path fill="#0d131a" d="M52.15 190.0 Q52.35 189.75 53.05 190.6 53.75 191.45 53.55 191.7 L39.6 211.6 Q28.8 227.25 25.15 234.6 18.3 248.3 27.15 267.4 30.7 275.15 35.8 280.9 40.85 286.6 45.2 287.9 49.25 289.15 60.35 287.6 71.4 286.0 74.3 283.8 78.1 280.95 83.1 275.05 86.45 271.1 87.3 271.6 88.15 272.05 84.8 276.0 L80.9 280.55 Q78.3 283.4 75.9 285.25 72.75 287.65 60.95 289.4 49.1 291.15 44.8 289.85 39.3 288.15 33.65 282.0 28.15 275.95 24.4 267.7 15.5 248.05 22.6 233.8 28.15 222.8 52.15 190.0"/><path fill="#0d131a" d="M179.4 222.35 L179.65 219.55 184.2 225.35 Q191.1 233.8 193.3 237.3 198.1 245.0 198.35 251.95 198.8 264.6 186.75 278.8 184.7 281.25 183.55 281.1 182.4 281.0 184.45 278.6 188.6 273.8 191.3 268.85 196.05 260.2 195.75 252.6 195.5 245.85 191.45 238.65 188.9 234.15 182.95 226.85 L179.4 222.35"/><path fill="#0d131a" d="M82.6 276.6 Q85.45 274.75 98.4 271.4 113.55 267.45 125.3 266.65 L131.25 267.0 Q132.15 267.7 127.15 268.2 114.4 269.5 97.75 274.0 82.45 278.15 79.05 280.5 L80.25 278.9 Q81.85 277.05 82.6 276.6"/><path fill="#0d131a" d="M184.45 291.75 Q182.35 289.65 182.55 288.95 182.75 288.25 185.05 290.1 186.75 291.45 188.5 293.55 190.55 296.05 190.7 297.5 190.85 298.8 190.25 301.05 189.45 303.8 187.95 305.35 L184.95 305.45 Q186.75 303.95 187.8 301.3 188.7 298.9 188.45 297.4 188.0 295.25 184.45 291.75"/><path fill="#0d131a" d="M199.4 295.4 Q198.65 293.3 195.4 290.55 193.15 288.7 192.9 287.7 192.65 286.65 195.0 288.2 196.0 288.85 198.0 290.75 200.75 293.35 201.3 294.85 201.85 296.3 201.55 298.55 201.2 300.8 200.25 302.5 199.55 303.85 197.9 305.0 L194.75 305.0 Q196.7 304.0 197.95 301.75 198.9 300.1 199.3 298.25 199.75 296.4 199.4 295.4"/><path fill="#0d131a" d="M154.4 292.85 Q154.7 296.75 154.9 297.3 155.35 298.8 158.35 300.8 161.45 302.9 164.05 303.25 L175.1 304.15 183.8 304.55 194.1 304.35 Q200.95 303.95 202.4 303.1 204.65 301.8 204.95 298.0 205.2 295.35 204.35 292.85 203.35 290.0 201.35 288.75 L198.05 286.95 Q193.55 284.7 191.55 283.25 188.0 280.7 187.0 277.75 186.85 277.2 187.6 276.15 188.4 275.05 188.4 275.4 188.65 278.65 192.15 281.55 194.45 283.5 198.75 285.6 L201.0 286.55 Q202.45 287.15 202.95 287.45 205.35 289.0 206.55 292.4 207.65 295.4 207.4 298.45 207.2 300.7 205.85 302.55 204.7 304.2 203.1 304.85 200.85 305.85 194.1 306.2 L184.15 306.55 174.85 306.25 163.75 305.3 Q160.65 304.85 157.1 302.8 153.4 300.65 152.8 298.75 152.5 297.7 152.25 293.95 151.85 287.8 151.4 285.6 150.75 282.05 142.4 276.6 133.05 270.45 122.35 268.15 L126.4 267.35 Q136.5 270.1 144.9 276.0 152.85 281.55 153.6 285.65 L154.4 292.85"/><path fill="#0d131a" d="M41.95 206.5 Q42.25 206.45 41.6 207.35 L40.5 208.35 Q32.9 209.7 23.75 208.45 19.35 207.9 17.75 208.85 15.65 210.1 16.85 214.55 18.9 222.25 24.8 233.25 24.95 233.5 24.3 234.95 L23.5 236.15 Q21.05 231.7 18.65 226.1 15.7 219.25 14.4 214.25 13.6 210.95 14.85 208.85 16.8 205.45 23.7 206.5 34.55 208.1 41.95 206.5"/><path fill="#0d131a" d="M21.25 292.45 Q18.7 297.35 17.7 299.75 16.1 303.65 16.0 306.45 15.85 309.95 17.4 314.65 18.85 319.0 20.05 319.95 23.1 322.3 29.85 324.1 36.75 325.9 42.4 325.75 L52.25 325.05 Q56.6 324.5 60.5 323.1 63.4 322.05 65.4 319.05 67.35 316.2 67.45 313.4 67.5 311.9 66.5 309.75 L64.0 305.45 Q61.45 301.5 60.2 298.75 59.7 297.65 59.35 293.95 L59.05 288.8 60.05 288.55 61.05 288.6 Q60.75 290.35 61.2 293.85 61.6 297.0 62.1 298.15 L64.05 301.7 66.1 305.0 Q68.05 308.0 68.8 309.6 69.9 311.95 69.85 313.8 69.7 317.2 67.4 320.45 64.9 324.0 61.35 325.05 51.2 328.15 42.55 328.3 37.4 328.4 30.5 326.7 22.4 324.75 18.35 321.6 16.8 320.45 15.15 315.7 13.35 310.65 13.5 306.95 13.6 304.0 15.6 299.5 L19.65 291.5 Q22.75 285.5 24.3 280.25 26.3 273.55 25.5 269.05 L26.65 270.25 Q27.85 271.85 27.9 272.65 28.0 276.85 25.85 282.6 24.4 286.4 21.25 292.45"/><path fill="#0d131a" d="M37.2 326.85 Q35.05 325.75 33.55 323.85 32.3 322.35 31.05 319.6 29.6 316.5 34.2 307.1 35.35 304.75 35.7 305.55 36.1 306.35 35.05 308.9 31.95 316.05 33.25 318.95 34.9 322.6 37.3 324.4 39.5 326.05 42.75 326.5 L37.2 326.85"/><path fill="#0d131a" d="M53.4 307.3 Q56.5 313.1 56.85 318.45 56.95 320.1 56.4 322.0 55.75 324.05 54.6 325.3 L50.15 326.25 Q52.5 325.0 53.8 322.7 54.95 320.6 54.85 318.7 54.6 315.25 53.2 311.35 L51.15 306.55 Q50.0 303.95 50.85 304.05 51.75 304.15 53.4 307.3"/><path fill="#0d131a" d="M175.65 149.2 L175.15 150.1 174.45 150.85 Q170.85 145.25 165.2 138.35 157.25 128.7 151.7 125.05 151.4 124.9 152.45 124.45 L153.6 124.15 Q158.25 127.1 165.6 135.85 171.5 142.9 175.65 149.2"/><path fill="#0d131a" d="M179.75 144.85 Q179.7 145.2 180.05 145.6 L180.5 146.45 177.15 149.35 172.5 153.65 Q170.65 155.65 170.0 155.55 169.35 155.45 170.55 153.7 173.0 150.2 179.75 144.85"/><path fill="#0d131a" d="M199.45 159.0 Q199.4 158.55 200.05 158.3 L201.0 157.95 Q202.35 159.4 205.35 160.3 208.85 161.4 212.25 160.75 L211.8 161.9 210.9 162.55 Q207.45 163.05 203.7 161.65 200.5 160.45 199.45 159.0"/><path fill="#0d131a" d="M215.3 143.85 Q214.65 138.75 212.0 134.95 207.25 128.2 201.7 124.15 196.3 120.15 191.35 119.6 186.5 119.0 180.3 122.5 174.25 125.9 172.8 129.65 171.9 131.85 173.35 134.6 174.7 137.25 175.95 136.7 176.15 136.85 175.95 137.4 L175.45 139.0 Q173.2 138.1 171.75 135.15 170.1 131.75 171.35 128.55 172.75 125.0 179.2 121.35 185.5 117.75 190.0 117.8 195.9 117.85 202.65 122.65 209.0 127.15 213.95 134.2 216.65 138.0 217.3 143.25 217.9 147.95 216.8 152.85 214.2 164.1 198.25 178.0 185.65 188.95 175.95 193.35 L175.25 191.25 Q190.0 183.75 201.9 171.75 212.75 160.75 214.75 153.0 215.9 148.5 215.3 143.85"/><path fill="#0d131a" d="M180.5 145.3 L181.15 146.1 Q181.4 146.4 181.9 146.35 179.45 152.45 186.3 160.8 193.55 169.6 203.6 170.15 L202.3 171.85 Q189.9 170.3 183.55 160.6 178.0 152.15 180.5 145.3"/><path fill="#0d131a" d="M177.1 137.3 Q176.5 139.65 179.15 143.3 182.0 147.25 185.55 147.65 185.85 147.7 185.8 148.5 185.7 149.3 185.4 149.3 181.35 149.15 177.7 144.45 174.3 140.1 174.9 137.4 175.45 135.2 179.3 132.0 182.9 129.0 188.15 126.1 190.95 124.55 192.6 124.45 194.3 124.3 191.5 125.85 186.6 128.65 182.8 131.4 177.65 135.2 177.1 137.3"/><path fill="#0d131a" d="M197.85 136.7 Q200.2 135.4 200.75 135.8 201.3 136.25 199.0 137.6 194.35 140.3 190.3 143.9 186.35 147.5 186.4 148.85 186.55 152.35 189.4 155.95 192.3 159.6 195.4 159.95 196.25 160.05 201.1 157.15 205.2 154.75 207.2 153.25 211.05 150.5 211.25 150.9 211.45 151.3 208.7 153.9 207.0 155.55 202.5 158.45 197.05 161.95 194.95 161.9 191.7 161.85 188.15 157.55 184.6 153.2 184.45 149.1 184.4 147.1 188.8 143.15 192.8 139.6 197.85 136.7"/><path fill="#0d131a" d="M89.2 119.95 Q87.5 120.3 86.55 122.05 85.75 123.45 85.55 125.35 85.35 127.25 85.85 129.1 86.85 132.65 89.35 134.9 91.85 137.15 94.25 136.55 95.95 136.15 96.75 134.7 98.45 131.8 97.0 126.4 95.95 122.6 93.6 120.9 91.55 119.4 89.2 119.95 M85.25 121.25 Q86.6 119.0 88.85 118.45 91.7 117.75 94.3 119.55 97.25 121.55 98.45 126.0 99.7 130.6 99.1 133.7 98.4 137.5 94.95 138.35 91.95 139.1 88.7 136.4 85.5 133.7 84.35 129.5 83.8 127.35 84.05 125.15 84.3 122.95 85.25 121.25"/><path fill="#0d131a" d="M109.25 88.8 L108.3 87.25 Q112.1 85.65 117.4 82.1 L125.25 76.45 128.85 73.9 Q137.95 68.15 145.15 70.65 152.3 73.05 160.85 84.6 162.4 86.65 162.0 87.35 161.6 88.05 160.05 85.95 152.0 75.0 144.85 72.8 137.9 70.65 129.2 76.15 L125.7 78.65 Q115.95 85.85 109.25 88.8"/><path fill="#0d131a" d="M76.7 20.75 L75.65 22.35 Q55.85 14.3 44.5 10.9 29.1 6.35 17.2 13.25 4.25 20.75 2.9 38.4 2.05 49.15 2.1 58.6 2.15 68.05 3.1 71.3 3.55 72.75 4.3 72.95 L7.25 72.45 Q17.25 69.65 31.3 67.55 45.7 65.45 57.3 65.2 L57.15 67.1 Q45.85 67.3 31.8 69.45 17.75 71.65 7.6 74.8 L3.2 75.15 Q1.8 74.55 1.15 71.95 0.05 67.4 0.0 57.2 -0.05 48.0 0.7 37.9 2.2 18.35 16.2 10.7 28.7 3.8 45.35 8.75 57.2 12.3 76.7 20.75"/><path fill="#0d131a" d="M85.55 26.45 L85.5 24.6 97.5 30.1 Q99.75 31.2 99.5 31.75 99.25 32.3 96.95 31.35 L85.55 26.45"/><path fill="#0d131a" d="M34.95 33.75 Q27.95 19.95 22.8 15.45 21.65 14.45 21.9 14.1 22.15 13.8 23.4 14.65 29.25 18.5 36.25 31.95 41.0 41.1 45.05 52.1 L55.2 51.3 67.95 50.65 67.8 52.6 54.55 53.4 44.3 54.25 Q43.9 54.35 43.8 53.95 40.25 44.25 34.95 33.75"/><path fill="#0d131a" d="M84.5 11.25 Q86.85 12.0 86.35 21.95 85.55 38.25 93.35 59.15 101.2 80.25 112.25 91.15 113.5 92.35 113.1 92.7 112.75 93.1 111.45 91.95 99.95 81.65 91.65 59.85 83.55 38.5 84.4 21.85 84.8 14.0 83.85 13.6 82.9 13.25 78.45 19.7 69.75 32.4 68.5 55.3 67.3 77.75 73.9 96.2 74.6 98.15 74.0 98.4 73.45 98.6 72.7 96.65 65.55 78.45 66.8 54.9 68.05 31.25 76.95 18.25 82.25 10.5 84.5 11.25"/><path fill="#0d131a" d="M173.6 23.4 Q173.4 14.3 175.65 13.8 177.95 13.35 182.0 21.6 187.15 32.1 187.8 49.65 188.5 68.05 183.85 86.8 183.35 88.85 182.8 88.7 182.2 88.55 182.65 86.45 186.65 66.95 185.95 49.65 185.25 32.6 180.25 22.5 177.05 16.0 176.2 16.1 175.25 16.2 175.45 23.5 175.8 38.7 171.35 53.65 166.85 68.85 157.95 82.05 L156.95 81.0 Q165.45 67.7 169.7 53.0 173.95 38.3 173.6 23.4"/><path fill="#0d131a" d="M117.55 79.0 Q111.7 81.05 105.65 84.0 L104.65 82.8 Q109.35 79.8 117.6 77.05 125.55 74.35 130.85 73.8 L127.4 76.35 Q123.4 76.9 117.55 79.0"/><path fill="#0d131a" d="M111.5 84.05 Q112.7 85.05 113.2 84.9 113.7 84.8 114.45 83.05 115.25 81.15 115.75 78.6 L117.65 77.85 Q117.3 80.8 115.9 83.5 114.6 85.95 113.5 86.25 112.45 86.55 110.7 85.3 108.85 84.0 107.6 81.95 L109.1 81.25 Q110.2 82.9 111.5 84.05"/><path fill="#0d131a" d="M155.5 79.45 L154.65 78.45 Q155.75 77.05 156.95 74.4 L158.5 74.8 Q157.35 77.3 155.5 79.45"/><path fill="#0d131a" d="M185.25 8.75 Q189.25 13.9 193.4 21.6 196.45 27.2 198.5 32.05 199.4 34.25 199.1 35.2 198.75 36.4 196.25 37.05 L186.2 39.45 185.9 37.55 195.55 35.2 Q196.9 34.9 197.05 34.4 197.2 34.0 196.6 32.5 194.75 28.05 191.6 22.4 187.55 15.05 183.55 9.9 177.7 2.4 169.05 2.1 161.75 1.85 153.5 6.55 149.3 8.95 145.0 12.05 140.05 15.7 132.9 21.75 L130.85 21.1 Q138.9 14.25 143.55 10.7 148.6 6.85 152.5 4.65 161.5 -0.45 169.55 0.05 178.9 0.6 185.25 8.75"/><path fill="#0d131a" d="M173.2 40.5 L173.05 42.45 160.0 45.6 159.35 43.95 Q161.75 43.25 173.2 40.5"/><path fill="#0d131a" d="M112.35 48.15 Q112.7 47.05 113.35 47.05 114.7 47.05 114.7 50.3 114.7 51.85 114.3 52.85 113.85 53.9 113.1 53.9 112.45 53.9 112.15 52.55 111.9 51.4 112.0 50.1 112.05 49.0 112.35 48.15"/><path fill="#0d131a" d="M147.2 48.3 Q147.65 48.3 147.95 49.25 L148.15 50.95 148.05 53.05 Q147.85 53.75 147.35 53.75 146.35 53.75 146.25 50.9 146.15 48.3 147.2 48.3"/><path fill="#ffffff" d="M113.15 48.1 Q113.7 48.1 113.7 49.35 113.7 50.75 113.05 50.75 112.6 50.75 112.6 49.3 112.75 48.1 113.15 48.1"/><path fill="#ffffff" d="M147.4 50.15 Q147.45 51.15 147.05 51.15 146.7 51.15 146.65 50.2 146.65 49.2 147.0 49.2 147.4 49.15 147.4 50.15"/><path fill="#0d131a" d="M168.1 113.0 Q170.7 110.2 170.8 111.15 170.95 112.1 168.35 114.95 157.8 126.6 142.65 128.65 127.65 130.6 107.0 123.4 L98.8 120.45 Q94.65 119.0 93.25 119.1 88.8 119.45 84.6 120.6 82.3 121.2 78.65 122.55 73.85 124.3 72.7 124.4 69.55 124.8 66.65 122.5 59.75 117.15 53.85 109.8 46.1 100.15 45.05 92.45 43.6 81.75 60.05 64.35 62.1 62.2 62.55 62.85 62.95 63.5 61.0 65.8 53.75 74.35 50.55 80.4 47.15 86.95 47.75 92.0 48.45 98.05 54.6 106.75 60.65 115.35 67.9 120.7 70.55 122.7 73.15 122.45 74.5 122.35 78.55 120.9 85.8 118.2 93.1 117.55 94.85 117.4 98.6 118.5 L106.75 121.2 Q125.75 127.8 140.7 126.35 157.5 124.7 168.1 113.0"/><path fill="#cea6cc" d="M117.05 191.2 Q112.25 191.05 103.65 187.55 93.95 183.65 89.9 179.15 86.95 175.85 85.8 169.65 84.6 163.3 86.15 158.1 87.3 154.2 91.85 151.15 95.8 148.5 98.9 148.25 101.4 148.15 108.1 151.55 110.6 150.2 118.0 153.35 125.3 156.4 125.45 158.45 L129.85 159.95 Q134.4 161.65 135.3 163.7 136.4 166.1 136.05 171.2 135.7 176.2 134.2 180.0 132.55 184.25 128.45 187.45 123.35 191.35 117.05 191.2"/><path fill="#b390b1" d="M86.35 169.1 Q92.55 178.4 111.85 180.55 119.7 181.45 126.15 180.5 132.75 179.55 134.75 177.1 134.2 182.05 130.3 186.0 125.9 190.4 119.25 191.0 113.5 191.55 102.3 186.85 90.65 181.95 88.6 177.45 87.35 174.75 86.75 171.65 L86.35 169.1"/><path fill="#0d131a" d="M106.0 151.7 Q107.1 149.95 110.7 150.05 114.0 150.15 117.9 151.65 121.85 153.2 124.2 155.35 126.85 157.7 126.3 159.85 125.5 163.1 123.5 168.05 L120.45 174.7 Q118.75 177.6 118.25 177.2 117.7 176.75 119.0 173.65 L122.4 165.05 Q124.55 159.0 124.2 158.1 123.45 156.0 116.95 153.7 110.55 151.4 108.7 152.4 107.45 153.1 104.85 159.2 103.15 163.2 101.35 168.3 100.3 171.3 99.75 170.3 99.25 169.35 100.1 166.15 102.6 156.85 106.0 151.7"/><path fill="#0d131a" d="M99.05 147.25 Q100.65 147.15 104.3 148.35 108.4 149.7 109.5 151.25 L107.95 152.0 Q106.4 150.95 103.0 149.95 99.95 149.0 99.05 149.1 96.3 149.25 92.6 152.1 88.5 155.3 87.4 158.95 85.9 164.05 86.8 169.85 87.7 175.6 90.45 178.65 94.3 182.85 102.7 186.35 112.2 190.25 121.75 190.45 L119.95 191.9 Q108.75 191.3 99.85 187.1 93.2 183.95 89.35 179.65 86.15 176.15 84.9 170.0 83.55 163.65 85.15 158.25 86.4 154.1 91.4 150.55 95.8 147.45 99.05 147.25"/><path fill="#0d131a" d="M74.55 133.2 Q76.8 131.35 76.6 132.55 76.4 133.75 74.2 135.65 61.4 146.8 54.4 155.75 46.0 166.4 46.55 173.1 47.2 181.35 51.85 187.45 56.75 193.95 66.3 198.4 71.5 200.85 82.05 200.3 92.0 199.8 103.15 196.85 114.65 193.8 122.7 189.45 131.55 184.6 133.55 179.45 134.7 176.5 135.0 171.05 135.25 165.7 134.45 163.95 133.95 162.85 130.15 161.15 126.4 159.45 124.85 159.55 L124.8 158.85 Q124.85 158.1 125.05 158.1 127.35 158.1 131.1 159.8 135.0 161.5 136.05 163.15 137.3 165.15 137.2 170.65 137.1 176.3 135.6 180.1 133.5 185.5 124.35 190.65 116.0 195.3 104.1 198.6 92.45 201.75 81.95 202.35 70.8 203.0 65.0 200.4 54.05 195.55 48.5 186.55 43.9 179.05 44.4 171.65 45.0 163.0 55.2 151.4 61.9 143.8 74.55 133.2"/></g></svg>