<?xml version='1.0' encoding='utf-8'?>
<svg xmlns="http://www.w3.org/2000/svg" version="1.1" width="282px" height="290px" viewBox="-0.7 -0.65 281.65 289.5"><g><path fill="#bf794e" d="M199.25 18.65 Q213.25 32.35 223.7 57.8 240.4 98.25 247.05 197.7 L249.35 221.15 Q250.8 236.55 252.1 240.75 L260.0 244.7 267.35 248.25 261.45 251.05 Q265.55 253.65 270.45 257.15 275.8 261.0 278.05 263.1 L264.4 263.1 Q268.9 271.65 270.8 276.25 L251.4 272.9 234.55 269.5 Q238.2 273.95 240.95 276.4 L231.9 275.55 223.45 274.3 227.5 278.35 218.4 275.9 Q212.8 274.25 210.2 273.1 213.8 278.9 216.2 281.8 196.85 277.55 186.95 274.05 L188.55 280.15 Q189.75 284.6 190.5 286.35 178.45 279.2 170.7 274.9 171.45 281.45 172.2 284.0 167.55 279.95 160.0 274.55 L116.95 275.15 103.7 273.5 Q94.05 271.65 87.45 268.65 85.4 270.45 80.85 272.8 L80.8 269.65 Q75.2 272.1 72.85 274.0 L73.1 270.45 73.3 267.55 Q70.0 269.0 64.15 272.05 L42.0 263.1 Q40.65 264.85 37.3 267.4 34.4 269.65 32.55 270.65 L33.6 266.9 34.15 263.2 Q28.45 267.0 23.15 269.5 25.6 264.1 27.3 258.3 L15.5 259.4 2.15 259.9 Q7.8 254.45 16.0 245.65 L9.75 244.95 4.05 243.95 14.8 232.9 23.45 224.35 18.25 226.35 Q20.05 212.65 30.0 185.05 L39.55 160.15 Q40.0 114.85 46.05 93.65 55.45 60.75 82.1 52.8 83.4 44.45 91.15 33.3 98.45 22.8 106.0 17.4 114.25 11.5 129.0 6.5 146.4 0.65 159.9 1.25 182.55 2.25 199.25 18.65"/><path fill="#f09ba5" d="M111.05 241.15 L114.35 235.75 Q118.4 244.1 113.1 249.1 107.65 254.3 94.4 253.55 85.4 253.0 79.6 249.3 73.55 245.45 73.9 239.75 L74.05 238.0 74.65 236.4 Q76.25 239.35 78.0 240.85 78.05 239.35 78.7 235.65 L79.65 230.55 Q82.7 228.55 86.9 227.6 91.1 226.65 95.8 226.9 100.25 227.15 102.8 227.9 105.35 228.6 107.35 230.2 108.2 233.4 111.05 241.15"/><path fill="#c6dcdb" d="M41.0 246.85 Q41.5 239.95 46.65 235.6 51.65 231.4 59.0 231.15 65.55 230.9 69.35 234.7 72.55 237.85 72.75 242.2 73.2 251.35 66.85 257.7 63.3 261.25 63.4 267.4 63.45 271.1 65.0 276.65 66.05 280.4 64.8 281.15 L59.45 280.95 Q48.95 279.15 44.15 268.05 40.15 258.9 41.0 246.85"/><path fill="#c6dcdb" d="M121.65 237.9 Q125.9 233.15 133.0 233.35 143.0 233.65 147.5 242.15 151.15 249.0 150.95 260.4 150.65 276.6 138.15 282.45 128.5 287.0 115.65 284.5 111.6 283.7 111.55 281.55 111.5 279.55 114.45 277.25 121.65 271.55 122.85 266.65 124.15 261.5 120.35 252.4 116.65 243.45 121.65 237.9"/><path fill="#965e3a" d="M220.15 230.75 Q228.3 229.1 230.0 221.85 232.5 229.95 231.25 236.4 229.75 244.5 222.55 247.0 217.0 248.95 209.65 248.05 201.05 247.0 193.4 242.15 173.2 229.45 167.5 196.35 172.3 207.55 182.3 216.4 191.35 224.45 202.05 228.4 212.45 232.25 220.15 230.75"/><path fill="#965e3a" d="M156.1 241.1 Q155.9 243.75 153.65 247.25 151.2 251.1 150.9 252.25 150.7 249.45 149.35 246.4 148.2 243.75 146.5 241.55 146.35 240.6 146.65 240.0 145.0 239.45 143.2 237.4 140.95 234.9 139.75 234.1 135.2 232.15 130.05 233.35 127.0 234.1 121.1 237.05 120.4 237.75 120.85 239.65 118.9 246.7 119.05 247.6 L116.7 242.4 Q115.1 238.9 114.1 235.35 116.05 232.55 117.4 228.95 118.85 224.9 119.65 223.6 123.55 225.85 146.1 225.4 168.45 224.95 168.55 223.15 L171.45 236.3 Q172.65 242.7 172.7 248.1 L163.7 244.25 156.1 241.1"/><path fill="#a7bab9" d="M125.7 234.2 Q131.75 230.65 139.75 234.1 143.05 236.25 144.45 237.75 146.2 239.55 146.5 241.55 144.15 238.55 142.8 238.8 141.5 239.0 140.85 243.1 140.5 245.15 140.45 247.15 L135.95 243.6 Q131.3 240.15 130.5 240.55 129.75 240.95 128.4 242.55 L127.2 244.05 121.2 238.4 Q122.65 235.95 125.7 234.2"/><path fill="#965e3a" d="M74.9 235.75 L72.9 242.8 70.15 236.4 Q70.45 234.55 67.95 232.15 58.95 228.4 50.3 232.35 41.2 236.55 40.45 246.35 L37.2 249.3 35.7 238.5 Q29.3 243.05 26.8 244.2 L25.35 236.85 24.2 232.0 21.15 232.3 Q17.25 232.95 12.95 234.8 L18.9 228.15 Q24.5 222.15 28.3 220.2 L42.05 227.0 59.45 218.95 67.15 220.15 74.9 235.75"/><path fill="#a7bab9" d="M56.0 231.35 Q60.8 230.55 65.05 231.5 69.05 232.4 69.05 233.8 L66.5 236.8 Q62.45 240.45 54.85 243.8 55.0 241.55 54.0 238.95 53.0 236.35 52.05 236.4 48.2 237.3 43.95 241.9 41.8 244.25 40.45 246.35 42.6 233.55 56.0 231.35"/><path fill="#d08690" d="M108.3 247.1 Q114.45 245.55 115.85 242.15 115.0 248.6 109.85 251.45 104.5 254.35 93.7 253.7 85.4 253.2 81.05 250.95 74.6 247.65 73.75 240.0 75.35 243.15 81.65 245.4 87.5 247.45 95.05 247.95 102.7 248.5 108.3 247.1"/><path fill="#965e3a" d="M256.7 248.6 L267.3 248.1 261.4 250.8 256.7 248.6"/><path fill="#965e3a" d="M262.35 260.05 L269.7 260.85 Q274.5 261.65 277.85 263.1 L270.15 263.0 264.2 263.1 262.35 260.05"/><path fill="#965e3a" d="M251.4 273.1 Q239.4 270.8 234.35 269.15 L231.15 264.35 249.4 269.35 270.35 275.05 270.75 276.25 251.4 273.1"/><path fill="#965e3a" d="M185.15 268.4 Q203.4 277.25 214.9 280.3 L215.15 281.55 Q210.2 280.5 199.85 277.7 190.4 275.1 186.5 273.8 L185.15 268.4"/><path fill="#965e3a" d="M231.65 265.7 L235.95 271.15 Q238.95 274.7 240.1 275.65 227.15 275.65 223.25 274.3 L222.15 272.7 228.75 273.3 234.45 273.3 Q232.65 268.9 231.65 265.7"/><path fill="#965e3a" d="M170.0 273.45 Q178.4 277.6 184.9 279.95 L185.25 269.75 187.75 278.65 Q189.25 283.8 190.3 285.85 178.0 280.3 170.0 273.45"/><path fill="#965e3a" d="M150.2 268.15 L159.3 268.65 161.9 269.25 Q162.7 269.65 163.5 270.6 L165.95 274.4 168.55 278.35 Q168.7 277.0 170.0 273.45 L170.8 279.0 Q171.35 282.55 171.75 283.75 164.2 277.25 159.55 274.4 L147.15 274.4 149.0 271.1 150.2 268.15"/><path fill="#965e3a" d="M116.9 275.05 Q110.7 274.7 101.35 272.85 90.7 270.75 87.25 268.65 L80.35 272.7 80.35 269.5 72.4 273.7 73.1 267.55 63.65 271.45 Q63.3 269.55 63.3 266.8 71.15 264.4 73.35 261.9 73.45 258.95 76.35 258.8 79.0 258.65 82.2 260.65 89.05 264.9 102.2 267.3 112.75 269.25 121.95 269.25 119.3 273.7 116.9 275.05"/><path fill="#965e3a" d="M4.15 243.3 Q13.85 243.1 19.15 241.6 L15.95 245.65 Q8.85 244.95 4.15 243.3"/><path fill="#965e3a" d="M37.35 256.95 L37.1 261.65 Q39.35 260.4 41.15 258.45 L42.15 263.25 37.2 267.25 Q34.1 269.65 32.4 270.5 L33.35 267.3 33.9 263.6 Q28.25 266.95 23.3 269.15 25.75 263.4 26.75 258.8 11.45 260.1 2.9 258.9 21.45 256.3 28.5 253.4 29.75 252.85 30.2 253.1 30.65 253.4 30.45 254.6 29.95 257.25 28.85 260.3 30.3 259.7 32.2 258.35 L35.35 255.6 Q36.2 254.6 36.75 254.85 37.35 255.1 37.35 256.95"/><path fill="#965e3a" d="M208.25 271.85 L219.9 273.8 218.05 268.3 Q219.8 270.7 222.45 273.5 L227.55 278.3 Q213.85 274.65 208.25 271.85"/><path fill="#a7bab9" d="M40.8 248.6 Q42.15 259.75 49.5 265.25 56.0 270.05 63.4 268.4 63.85 274.15 65.25 276.9 66.25 278.9 65.5 280.1 64.65 281.5 61.8 281.3 53.3 280.75 47.15 272.95 39.85 263.65 40.8 248.6"/><path fill="#a7bab9" d="M119.95 273.05 Q125.0 274.35 130.4 273.25 136.1 272.05 140.4 268.5 150.9 259.85 148.0 242.7 150.8 248.7 151.05 256.35 151.3 264.7 148.25 271.3 140.55 288.2 117.25 284.75 112.45 284.05 111.55 281.95 110.7 280.0 113.6 277.85 L119.95 273.05"/><path fill="#0d131a" d="M107.1 228.8 Q107.7 229.55 107.45 231.35 102.2 228.1 95.75 227.75 91.05 227.45 86.85 228.45 82.65 229.45 79.7 231.55 L79.75 229.0 Q86.7 225.0 95.75 225.7 102.05 226.2 107.1 228.8"/><path fill="#0d131a" d="M114.3 234.7 Q117.3 238.65 117.15 242.25 116.9 249.0 110.9 252.45 104.9 255.95 94.35 255.35 84.1 254.75 78.2 250.2 72.6 245.85 72.95 239.7 73.1 237.2 74.2 234.8 L75.2 237.4 74.75 239.8 Q74.45 244.9 80.05 248.55 85.6 252.2 94.45 252.7 103.9 253.25 109.3 250.5 114.65 247.7 115.0 242.1 115.15 239.55 113.25 236.75 L114.3 234.7"/><path fill="#0d131a" d="M144.65 239.85 Q139.55 233.8 131.0 234.25 124.3 234.6 121.3 240.2 118.5 245.5 120.9 251.7 124.55 260.95 124.05 265.9 123.4 272.45 116.1 277.4 113.0 279.5 112.95 281.2 112.9 282.9 115.75 283.4 129.5 285.9 138.45 281.05 149.45 275.15 149.85 259.2 150.2 246.45 144.65 239.85 M130.4 232.15 Q141.3 231.6 147.05 238.9 152.7 246.0 152.3 259.3 151.95 273.1 144.05 280.25 134.5 288.85 115.55 285.6 111.5 284.9 110.5 282.7 109.15 279.85 114.55 275.75 120.9 271.0 121.8 266.45 122.8 261.65 118.95 252.05 115.85 244.35 120.05 238.15 123.9 232.5 130.4 232.15"/><path fill="#0d131a" d="M98.15 239.35 Q99.05 239.1 100.5 243.1 101.9 247.05 101.15 247.45 100.2 247.95 98.65 243.8 97.1 239.7 98.15 239.35"/><path fill="#0d131a" d="M87.55 238.95 Q88.35 239.05 87.0 242.8 85.65 246.5 84.85 246.3 84.0 246.05 85.35 242.45 86.7 238.9 87.55 238.95"/><path fill="#0d131a" d="M252.65 241.75 L251.9 239.45 Q255.85 242.15 268.35 247.8 269.3 248.25 268.4 248.8 L261.75 251.6 259.6 250.45 262.3 249.45 264.85 248.4 Q257.65 244.95 252.65 241.75"/><path fill="#0d131a" d="M264.55 263.95 L263.4 261.85 Q270.6 261.75 274.95 262.1 265.7 254.45 257.9 250.05 256.25 249.1 256.55 248.6 256.9 248.05 258.65 248.9 264.25 251.65 270.15 255.6 276.3 259.75 279.7 263.25 280.95 264.5 278.95 264.4 L264.55 263.95"/><path fill="#0d131a" d="M272.75 276.85 Q272.95 277.2 272.75 277.45 L272.15 277.65 253.55 274.45 Q241.95 272.2 234.9 270.2 L233.45 268.15 Q245.45 271.35 268.8 274.7 267.3 271.1 262.25 261.35 261.7 260.3 262.2 260.05 262.7 259.8 263.45 260.85 267.6 266.8 272.75 276.85"/><path fill="#0d131a" d="M231.05 264.15 Q231.6 263.95 232.35 265.2 236.15 271.1 242.15 276.15 242.75 276.65 242.65 277.0 242.6 277.35 241.9 277.35 229.7 276.7 224.35 275.25 L222.9 273.3 Q227.75 274.45 238.15 275.0 234.2 271.3 231.15 265.6 230.5 264.4 231.05 264.15"/><path fill="#0d131a" d="M202.1 279.5 Q193.65 277.2 186.85 274.95 L186.3 272.75 199.65 276.8 Q208.05 279.15 213.55 280.15 L208.15 272.7 Q207.65 272.05 207.9 271.8 L208.8 271.85 Q215.55 274.5 224.75 276.7 221.1 273.6 218.2 268.75 217.45 267.55 217.95 267.25 218.4 266.95 219.3 268.2 222.45 272.7 228.9 278.4 229.35 278.8 229.2 279.15 229.05 279.5 228.35 279.35 218.65 277.3 212.0 274.9 214.6 278.65 217.55 282.15 218.0 282.65 217.85 282.9 L217.05 283.05 Q211.95 282.25 202.1 279.5"/><path fill="#0d131a" d="M117.85 273.8 L115.1 275.95 Q104.9 275.1 96.4 272.65 86.05 269.7 79.8 264.8 78.35 263.65 78.8 263.15 79.25 262.6 80.75 263.7 92.3 272.2 117.85 273.8"/><path fill="#0d131a" d="M73.6 266.4 L73.3 268.25 Q69.2 270.05 64.7 272.6 L64.1 270.75 Q70.35 267.55 73.6 266.4"/><path fill="#0d131a" d="M16.4 244.7 L14.95 246.3 Q8.15 246.3 2.25 244.5 1.25 244.25 2.0 243.55 12.5 234.2 22.8 223.1 L26.0 222.05 Q19.05 231.1 5.8 243.15 10.85 244.45 16.4 244.7"/><path fill="#0d131a" d="M17.65 242.45 Q18.75 241.2 19.2 241.55 19.6 241.95 18.6 243.2 15.8 246.9 11.6 251.45 L4.35 258.8 27.15 257.65 Q27.85 257.55 27.75 258.2 L26.7 262.35 24.6 267.45 Q30.0 265.25 34.0 262.0 L33.6 264.3 Q28.1 268.35 22.15 270.45 L21.45 270.45 Q21.15 270.25 21.5 269.65 24.5 264.3 25.5 259.75 L0.85 260.75 Q-0.7 260.75 0.45 259.75 L9.3 251.15 17.65 242.45"/><path fill="#0d131a" d="M37.55 268.35 Q34.5 270.55 31.75 271.6 30.6 272.0 31.0 270.85 32.15 267.8 32.7 265.4 33.2 263.2 33.5 259.9 33.7 258.2 34.25 258.25 34.8 258.35 34.8 260.05 L34.8 260.1 Q34.8 264.5 33.75 268.5 35.9 267.5 38.2 265.5 40.5 263.45 42.1 261.1 L42.9 263.25 Q40.85 265.9 37.55 268.35"/><path fill="#0d131a" d="M73.6 272.2 Q76.25 270.4 80.75 268.45 L80.5 270.3 Q76.2 272.25 72.75 274.8 72.35 275.1 72.05 274.8 71.75 274.5 71.8 273.95 72.05 269.8 72.95 265.75 73.3 264.2 73.9 264.3 74.5 264.4 74.3 265.9 L73.6 272.2"/><path fill="#0d131a" d="M81.4 267.95 L81.15 271.35 Q83.95 270.15 86.45 268.1 L88.05 268.9 Q84.4 271.8 80.7 273.55 L79.9 273.7 Q79.5 273.55 79.5 273.2 79.4 270.45 80.2 267.95 80.5 267.0 81.0 267.05 81.5 267.05 81.4 267.95"/><path fill="#0d131a" d="M147.1 273.5 L158.95 273.35 Q159.75 273.35 160.15 273.7 165.65 277.6 170.65 281.65 170.0 279.05 169.6 274.35 169.55 273.55 169.8 273.35 170.05 273.2 170.65 273.6 175.5 276.85 188.1 283.4 185.9 276.15 184.9 269.75 184.65 268.15 185.1 268.05 185.6 267.9 186.0 269.45 188.65 279.4 191.35 286.65 191.55 287.15 191.3 287.4 L190.5 287.35 Q187.3 285.95 180.2 281.75 173.45 277.8 171.45 276.3 171.8 279.2 173.05 284.5 173.2 285.1 172.9 285.3 L172.15 285.2 165.15 279.7 Q160.6 276.05 159.3 275.3 L145.75 275.55 147.1 273.5"/><path fill="#0d131a" d="M47.5 233.5 Q53.85 229.3 62.1 230.2 68.45 230.85 71.4 234.85 73.6 237.9 73.9 243.05 74.2 248.05 71.9 252.5 70.15 256.0 66.15 260.3 64.2 262.35 64.3 267.7 64.4 272.65 66.05 276.75 67.4 280.2 65.95 281.5 64.55 282.7 60.45 282.2 48.95 280.85 43.5 269.5 38.9 259.9 39.85 246.85 40.5 238.15 47.5 233.5 M71.6 242.4 Q71.15 238.0 68.25 235.2 65.65 232.65 61.9 232.15 55.65 231.25 49.9 234.45 42.75 238.45 42.05 247.0 40.85 261.3 46.55 270.6 52.15 279.6 61.8 280.15 L64.05 279.85 Q64.7 279.4 64.2 277.85 62.95 274.45 62.5 269.65 61.85 262.55 64.3 259.2 68.35 253.6 69.6 251.15 72.05 246.5 71.6 242.4"/><path fill="#bf794e" d="M102.65 196.7 L151.45 192.4 168.8 222.4 166.95 240.35 152.2 232.35 150.6 239.6 136.7 226.45 137.55 240.5 127.45 231.0 126.75 236.9 119.25 224.1 111.35 241.2 Q105.6 230.85 103.55 212.75 L102.65 196.7"/><path fill="#0d131a" d="M137.7 228.45 L138.25 231.9 138.9 237.75 Q139.05 241.5 138.6 241.9 138.0 242.35 135.1 239.6 L128.3 233.05 127.95 235.3 Q127.45 238.3 127.0 238.35 126.5 238.45 124.9 235.55 L121.65 229.95 119.6 226.1 Q118.45 229.55 116.55 233.5 L113.05 240.35 Q111.65 243.1 111.1 243.2 110.3 243.3 109.05 239.85 106.4 232.65 104.35 223.15 101.8 211.2 101.8 201.8 101.8 198.15 102.5 196.6 103.25 195.05 103.35 198.85 103.6 209.75 106.4 222.2 108.45 231.5 111.35 239.2 L117.9 224.55 Q118.8 222.45 119.45 222.6 120.15 222.7 121.3 225.25 L126.35 234.35 126.5 231.4 Q126.6 229.4 127.2 229.4 127.8 229.35 129.8 231.4 L136.5 238.25 135.85 227.35 Q135.65 225.35 136.2 225.35 136.8 225.4 139.45 227.65 L150.35 237.75 151.1 233.6 Q151.35 231.45 151.7 231.25 152.15 231.05 154.5 232.25 156.7 233.3 166.3 238.4 167.2 231.85 167.55 225.8 167.9 220.65 168.8 221.45 169.7 222.2 169.45 227.55 L168.75 238.0 Q168.45 241.25 167.8 241.6 167.4 241.85 165.35 240.75 L153.05 233.85 152.85 235.4 152.25 238.6 Q151.55 241.4 151.3 241.45 150.95 241.5 148.8 239.2 L137.7 228.45"/><path fill="#0d131a" d="M165.4 188.65 Q164.15 177.45 163.8 159.15 163.6 148.85 164.65 147.8 165.75 146.8 166.2 156.5 167.25 179.8 168.15 187.9 170.35 208.0 175.65 219.45 184.4 238.4 202.45 244.7 209.8 247.25 216.65 246.75 223.2 246.3 226.85 243.15 234.1 236.95 226.15 207.3 219.1 181.3 203.05 146.0 200.55 140.45 201.0 139.25 201.5 137.95 205.15 144.8 209.0 151.95 214.65 165.75 221.55 182.5 226.2 197.45 239.25 239.5 228.15 245.85 214.75 253.45 197.5 245.3 180.35 237.2 172.9 220.15 167.5 207.8 165.4 188.65"/><path fill="#bf794e" d="M29.65 185.7 L39.1 162.05 87.95 197.95 Q84.25 207.3 80.8 225.05 79.1 233.95 78.1 240.95 L67.3 222.05 Q57.95 236.65 56.95 236.65 56.0 236.65 55.65 223.7 42.55 239.8 41.7 239.45 40.9 239.15 41.7 227.5 L30.25 235.5 27.8 220.6 17.8 225.85 Q19.85 212.1 29.65 185.7"/><path fill="#0d131a" d="M26.2 189.8 Q32.15 172.45 39.3 157.65 42.0 152.05 42.55 153.15 43.1 154.3 40.75 160.0 22.95 203.6 19.35 224.0 L26.45 220.05 Q28.3 218.9 28.75 219.15 29.25 219.35 29.45 221.45 29.85 225.5 30.4 229.0 31.05 233.25 31.4 233.4 31.75 233.6 34.9 231.2 L40.5 226.65 Q42.25 225.15 42.55 225.45 42.8 225.7 42.7 228.7 42.45 237.0 42.9 237.3 43.35 237.65 54.3 223.8 55.5 222.25 55.95 222.3 56.55 222.3 56.9 224.65 L57.95 234.15 64.9 223.2 Q66.55 220.35 67.25 220.2 67.75 220.1 68.85 221.9 L72.85 229.7 Q75.4 235.0 77.2 237.55 77.95 230.35 80.9 218.15 83.8 206.15 86.25 199.65 87.25 197.1 88.05 197.05 88.85 197.0 88.0 199.55 86.05 205.55 82.9 219.55 79.55 234.7 79.0 241.25 78.8 243.6 77.65 242.0 75.8 239.4 72.5 233.15 L67.3 223.25 62.2 231.55 Q57.8 238.5 56.75 238.45 55.65 238.4 55.3 232.05 L55.2 225.7 Q42.65 242.0 41.4 241.6 40.6 241.35 40.7 235.15 L40.95 229.0 36.1 233.25 Q31.05 237.45 30.1 237.15 29.15 236.85 28.25 229.3 L27.55 221.75 18.65 227.3 Q17.1 228.25 16.8 227.5 16.6 227.05 16.9 225.25 19.55 209.25 26.2 189.8"/><path fill="#0d131a" d="M84.4 51.15 Q87.15 50.45 87.9 51.2 88.7 52.0 86.0 52.7 75.95 55.3 69.15 60.0 60.55 65.9 54.75 76.45 40.95 101.5 40.55 158.35 40.55 158.9 39.5 160.15 38.4 161.45 37.8 161.55 37.6 104.75 49.75 79.3 60.15 57.45 84.4 51.15"/><path fill="#0d131a" d="M219.6 52.15 Q209.35 29.85 194.6 17.0 178.65 3.1 159.65 2.25 148.3 1.75 130.85 7.05 112.55 12.65 105.1 19.7 98.2 26.2 91.7 36.1 85.15 46.05 83.6 52.45 L80.1 52.95 Q81.75 46.05 87.75 36.15 94.9 24.3 103.45 17.35 111.75 10.65 126.8 5.45 144.6 -0.65 160.55 0.05 180.35 0.95 196.8 14.75 212.6 28.0 222.2 50.55 233.3 76.4 239.25 112.6 245.05 148.0 250.85 223.9 251.5 232.35 252.2 236.6 252.8 240.4 254.4 246.85 255.0 249.25 254.15 249.45 253.35 249.6 252.55 247.3 248.8 236.15 248.1 224.05 240.85 98.15 219.6 52.15"/></g></svg>