<?xml version='1.0' encoding='utf-8'?>
<svg xmlns="http://www.w3.org/2000/svg" version="1.1" width="291px" height="254px" viewBox="-0.9 -0.25 290.8 254.0"><g><path fill="#0d131a" d="M5.45 191.55 Q8.55 177.95 17.7 167.2 27.75 155.45 43.2 149.6 54.4 145.35 57.45 149.95 60.1 153.95 55.9 161.5 L55.0 163.1 Q51.1 170.05 49.95 173.8 48.0 180.0 49.25 186.55 50.7 194.15 66.2 192.4 72.15 191.75 76.95 187.75 79.75 185.45 84.05 179.85 L87.9 174.6 Q90.1 171.85 91.9 171.35 L92.55 171.05 Q95.3 170.3 98.3 172.0 100.9 173.45 104.0 177.0 111.8 185.85 115.85 203.45 119.85 221.0 116.1 230.0 115.35 231.8 115.3 235.0 114.8 237.15 111.05 236.35 104.2 234.85 98.15 235.65 92.15 236.4 84.65 239.65 64.45 248.35 47.4 247.55 30.55 246.75 18.55 236.75 9.4 229.1 5.9 216.7 2.5 204.6 5.45 191.55"/><path fill="#e50012" d="M13.1 177.95 Q20.9 163.5 34.7 156.05 44.7 150.6 50.4 149.75 54.05 149.15 55.4 150.5 56.65 151.75 56.05 154.75 55.55 157.4 53.9 160.4 L53.0 161.95 Q49.0 169.15 47.75 173.15 45.65 179.9 47.0 187.0 L47.4 188.45 Q48.6 193.95 54.75 198.2 60.4 202.1 67.6 203.15 71.1 203.65 71.4 203.15 71.75 202.65 67.65 201.75 64.1 201.0 60.05 198.95 55.45 196.6 52.65 193.65 57.55 195.7 66.45 194.7 73.05 193.95 78.45 189.5 81.6 186.85 86.2 180.85 L89.65 176.65 Q91.45 174.75 92.9 174.35 97.4 173.05 102.25 178.5 109.6 186.8 113.5 203.8 117.45 220.75 113.95 229.1 113.3 230.7 110.25 231.5 L103.2 232.55 Q93.8 233.65 88.85 235.25 86.1 236.1 81.1 238.2 69.15 243.1 61.65 244.45 48.7 246.8 36.2 242.85 23.4 238.8 15.7 229.6 8.0 220.4 6.75 207.7 5.3 192.35 13.1 177.95"/><path fill="#ec6d45" d="M38.75 161.85 Q21.9 177.65 17.3 196.4 12.8 214.65 20.2 234.15 14.4 229.2 11.0 222.5 7.55 215.75 6.75 207.7 5.3 192.35 13.1 177.95 20.9 163.5 34.7 156.05 44.7 150.6 50.4 149.75 54.05 149.15 55.4 150.5 56.65 151.75 56.05 154.75 55.55 157.4 53.9 160.4 L53.0 161.95 Q49.9 167.55 48.75 170.35 L48.8 165.35 Q48.85 160.25 48.25 159.7 47.65 159.1 44.8 163.05 L40.9 168.3 Q40.35 168.9 40.45 164.6 40.55 160.2 38.75 161.85"/><path fill="#c6000b" d="M96.1 205.4 Q101.0 210.95 110.45 217.2 113.6 219.85 114.5 222.25 115.6 225.2 113.95 229.1 113.3 230.7 110.25 231.5 L103.2 232.55 Q93.8 233.65 88.85 235.25 86.1 236.1 81.1 238.2 69.15 243.1 61.65 244.45 48.7 246.8 36.2 242.85 34.85 242.45 32.25 241.45 55.2 244.4 77.25 223.9 81.75 219.7 90.1 210.2 95.2 204.4 96.1 205.4"/><path fill="#0d131a" d="M6.8 174.7 Q12.15 171.05 18.6 172.3 24.8 173.5 28.2 178.7 31.65 183.95 30.4 190.35 29.15 196.9 23.9 200.45 18.85 203.8 12.75 202.65 6.3 201.4 2.65 196.0 -0.9 190.8 0.3 184.5 1.55 178.25 6.8 174.7"/><path fill="#fcd13e" d="M28.15 189.6 Q27.05 195.3 22.45 198.4 18.15 201.35 12.85 200.35 7.3 199.3 4.05 194.55 0.95 189.9 1.95 184.5 3.05 179.1 7.6 176.0 12.35 172.8 17.95 173.9 23.4 174.95 26.3 179.45 29.25 183.95 28.15 189.6"/><path fill="#d9b536" d="M21.65 175.2 Q25.45 177.2 27.25 181.1 29.05 185.05 28.15 189.6 27.05 195.3 22.45 198.4 18.15 201.35 12.85 200.35 10.95 199.95 9.3 199.15 18.0 199.85 22.3 192.4 26.75 184.6 21.65 175.2"/><path fill="#0d131a" d="M41.2 229.95 Q41.2 232.15 40.7 234.1 39.1 240.6 33.55 243.95 27.9 247.3 21.5 245.7 14.5 244.0 10.6 237.6 6.75 231.2 8.45 224.15 10.1 217.65 15.65 214.3 18.3 212.7 21.45 212.25 L27.65 212.55 Q31.05 213.4 33.9 215.5 36.7 217.6 38.55 220.7 41.2 225.0 41.2 229.95"/><path fill="#fcd13e" d="M21.7 243.6 Q15.45 242.15 12.0 236.35 8.55 230.75 10.1 224.4 11.5 218.75 16.35 215.8 21.2 212.85 26.9 214.25 33.1 215.8 36.6 221.5 40.05 227.3 38.5 233.5 37.1 239.1 32.25 242.1 27.35 245.05 21.7 243.6"/><path fill="#d9b536" d="M36.6 221.5 Q40.05 227.3 38.5 233.5 37.1 239.1 32.25 242.1 27.35 245.05 21.7 243.6 28.85 242.5 32.15 234.9 35.8 226.35 30.6 215.75 34.4 217.9 36.6 221.5"/><path fill="#e50012" d="M184.55 20.65 Q196.45 28.05 204.15 39.95 212.8 53.35 213.95 70.5 215.05 86.75 209.25 102.7 207.85 106.55 203.3 114.0 199.2 120.7 196.15 124.55 L187.5 134.5 Q182.55 140.6 181.9 145.2 181.1 151.15 184.8 158.9 186.15 161.85 193.35 173.75 199.85 184.6 201.55 193.1 203.55 203.1 199.55 212.35 195.3 222.05 187.05 228.95 178.75 235.8 168.75 237.9 140.0 243.9 117.85 237.5 94.7 230.8 86.55 212.5 82.85 205.05 83.2 196.4 83.6 186.45 89.3 174.15 96.55 160.4 98.95 153.75 103.1 142.3 97.95 136.75 95.4 135.1 88.0 132.5 81.05 130.05 76.6 129.05 68.65 127.35 65.25 125.95 59.8 123.8 57.0 119.95 53.7 115.35 52.35 108.9 51.05 102.3 52.65 97.7 53.65 94.9 55.85 92.7 58.1 90.55 60.8 89.8 73.15 86.85 76.25 85.3 76.3 77.05 78.55 66.35 83.05 45.05 93.95 33.1 104.7 21.3 121.25 15.95 138.15 10.45 159.35 12.15 172.65 13.25 184.55 20.65"/><path fill="#c6000b" d="M170.25 21.55 Q166.7 17.65 162.7 14.95 L159.0 12.75 Q174.0 13.9 184.15 19.9 194.75 26.15 203.3 39.45 212.2 53.3 214.05 68.55 215.85 83.95 210.3 99.3 208.7 103.8 204.3 111.7 199.65 120.15 196.65 123.65 188.05 133.5 185.45 137.35 181.7 142.85 181.6 147.35 181.45 151.8 184.75 158.55 186.85 162.75 194.7 175.75 201.05 186.25 202.45 194.85 204.1 204.45 200.0 213.85 195.85 223.4 187.25 230.15 178.95 236.7 168.75 238.85 158.65 240.95 146.85 240.95 132.8 241.0 120.8 237.9 108.55 234.75 101.3 229.85 92.8 224.1 88.45 214.35 108.35 226.55 119.85 229.05 138.0 232.95 158.6 222.55 176.1 213.75 178.9 201.45 181.05 192.3 174.9 179.0 167.0 164.55 164.5 158.3 160.25 147.65 165.85 142.35 173.6 135.05 179.85 122.7 185.8 110.95 188.95 97.65 192.1 84.25 191.5 73.2 190.8 61.4 185.8 55.2 181.45 33.85 170.25 21.55"/><path fill="#ec6d45" d="M112.55 25.45 Q96.0 35.6 91.1 47.15 90.6 45.6 89.0 45.1 87.55 44.65 85.55 45.15 89.15 38.45 94.1 33.0 102.1 24.25 118.75 17.4 135.1 10.7 140.65 13.35 126.2 17.05 112.55 25.45"/><path fill="#ec6d45" d="M90.0 71.05 Q96.5 61.65 100.9 58.55 106.05 54.95 113.7 55.5 113.35 57.1 111.4 58.85 L107.05 62.35 Q100.25 67.8 97.5 75.0 96.05 78.7 84.85 85.7 75.15 91.7 76.85 93.9 78.0 95.35 77.35 95.45 L74.7 94.9 Q68.45 93.0 65.0 93.7 57.0 95.3 55.15 104.0 53.2 113.45 60.9 124.15 L59.15 123.4 57.85 121.95 Q54.45 117.3 52.85 109.9 51.2 102.3 52.8 97.7 53.75 94.95 55.95 92.95 58.05 91.0 60.85 90.25 L63.45 89.55 Q70.4 87.65 75.05 85.65 79.6 83.65 83.15 79.95 85.7 77.25 90.0 71.05"/><path fill="#ec6d45" d="M177.9 49.85 Q169.5 50.1 162.85 57.4 155.65 65.3 156.45 75.7 151.4 74.25 145.85 73.1 L139.85 71.9 Q141.4 56.95 154.85 49.8 160.7 46.65 166.8 46.6 173.15 46.55 177.9 49.85"/><path fill="#ffffff" d="M85.25 77.45 Q82.05 81.0 77.45 83.75 77.15 82.95 77.0 79.6 L77.0 76.0 Q79.3 73.3 87.85 69.7 89.45 72.8 85.25 77.45"/><path fill="#0d131a" d="M210.3 95.6 Q214.1 80.8 212.2 66.2 210.3 51.6 203.1 40.45 195.45 28.55 184.05 21.6 172.8 14.75 159.4 13.65 138.05 11.95 121.8 17.05 105.7 22.1 95.0 33.75 83.75 46.1 79.85 64.25 77.15 76.75 78.5 84.45 L75.8 83.9 Q74.65 74.3 77.5 62.55 81.0 48.3 89.35 37.2 111.75 7.4 159.85 11.25 185.45 13.3 201.35 34.0 217.85 55.45 214.6 85.55 213.25 97.9 206.7 110.45 200.1 123.15 188.8 134.9 181.6 142.45 182.65 149.7 183.55 156.1 192.55 169.75 201.0 182.6 203.35 192.6 205.9 203.55 201.7 213.2 197.15 223.65 189.2 230.7 180.9 238.0 170.55 240.15 160.15 242.35 147.25 242.2 129.1 242.1 115.65 237.8 101.15 233.2 93.0 224.05 82.95 212.75 82.2 198.85 81.5 185.4 89.4 170.9 97.0 157.0 98.0 154.5 101.85 144.7 98.6 137.85 98.3 137.3 99.85 138.15 L101.5 139.4 Q103.6 146.0 99.9 155.15 L90.2 174.3 Q85.2 184.05 84.7 194.2 84.15 204.65 88.55 213.55 98.6 233.95 128.8 238.9 139.1 240.6 150.6 240.1 160.2 239.7 168.75 237.9 178.75 235.8 187.05 228.95 195.3 222.05 199.55 212.35 203.5 203.3 200.05 191.0 197.3 181.05 190.0 169.8 181.25 156.4 180.7 148.9 180.05 140.85 187.95 132.7 194.6 125.85 201.1 115.35 208.2 103.9 210.3 95.6"/><path fill="#0d131a" d="M87.25 70.4 L89.3 69.6 Q88.75 73.55 87.15 76.8 L86.5 76.3 85.95 75.8 Q86.75 73.95 87.25 70.4"/><path fill="#0d131a" d="M73.8 106.2 Q74.75 110.4 73.35 114.05 71.9 117.85 68.8 118.55 65.65 119.25 62.45 116.5 59.3 113.75 58.4 109.6 57.4 105.15 58.2 102.15 59.1 98.7 62.1 98.05 65.4 97.3 69.1 99.75 72.95 102.25 73.8 106.2"/><path fill="#0d131a" d="M166.55 78.0 Q180.05 82.5 185.35 86.05 L185.7 86.3 185.7 86.7 Q185.7 95.5 178.75 102.1 171.75 108.7 162.45 108.7 151.6 108.7 146.0 98.35 140.6 88.3 141.85 72.0 L142.65 72.1 Q152.5 73.35 166.55 78.0"/><path fill="#ffffff" d="M183.65 87.2 Q183.45 94.95 177.1 100.85 170.7 106.75 162.45 106.75 155.85 106.75 151.0 101.45 147.4 97.55 145.5 91.5 143.6 85.55 143.6 78.05 L143.75 74.15 Q153.15 75.45 166.0 79.75 178.35 83.85 183.65 87.2"/><path fill="#0d131a" d="M132.8 14.3 Q134.35 16.0 135.1 18.6 135.85 21.15 135.65 24.1 135.4 27.75 133.75 31.1 132.1 34.45 129.45 36.7 126.4 39.3 122.8 40.6 119.3 41.85 115.85 41.6 110.1 41.05 106.3 36.6 102.15 31.6 102.7 25.0 103.4 17.75 109.05 12.95 114.5 8.4 121.4 8.8 128.25 9.2 132.8 14.3"/><path fill="#fcd13e" d="M121.95 38.45 Q118.75 39.6 115.7 39.35 110.8 38.95 107.55 35.1 103.95 30.8 104.4 24.9 104.95 18.6 110.05 14.2 114.9 10.2 121.0 10.5 127.1 10.85 131.1 15.35 133.7 18.3 133.4 23.65 133.2 26.95 131.7 29.95 130.25 32.9 127.9 34.95 125.15 37.3 121.95 38.45"/><path fill="#d9b536" d="M131.1 15.35 Q133.7 18.3 133.4 23.65 133.2 26.95 131.7 29.95 130.25 32.9 127.9 34.95 125.15 37.3 121.95 38.45 118.75 39.6 115.7 39.35 113.5 39.2 111.55 38.2 122.7 37.25 127.3 28.2 131.65 19.7 127.05 12.2 129.3 13.4 131.1 15.35"/><path fill="#0d131a" d="M166.15 3.6 Q171.65 7.6 171.45 14.3 171.4 17.0 165.65 18.4 160.6 19.65 154.6 19.25 148.85 18.85 144.25 17.25 138.7 15.3 138.5 12.55 138.15 7.85 144.05 3.75 149.8 -0.25 155.75 0.05 161.7 0.35 166.15 3.6"/><path fill="#fcd13e" d="M164.05 16.7 Q159.8 17.8 154.35 17.45 148.85 17.1 145.05 15.45 141.25 13.8 140.45 11.5 141.15 7.95 145.25 4.95 149.8 1.55 155.25 1.85 158.85 2.05 162.2 3.6 165.5 5.1 167.4 7.4 169.3 9.75 169.3 12.45 L169.2 13.55 Q168.25 15.55 164.05 16.7"/><path fill="#d9b536" d="M167.4 7.4 Q169.3 9.75 169.3 12.45 L169.2 13.55 Q168.25 15.55 164.05 16.7 159.8 17.8 154.35 17.45 150.15 17.15 146.95 16.15 154.15 16.55 158.7 14.2 164.2 11.35 164.45 4.85 166.4 6.1 167.4 7.4"/><path fill="#0d131a" d="M157.95 76.7 Q159.7 77.15 161.55 78.05 L161.7 80.25 Q161.7 82.75 161.1 84.4 160.5 86.15 159.55 86.15 158.55 86.15 158.0 84.4 157.45 82.8 157.45 80.25 157.45 78.35 157.95 76.7"/><path fill="#0d131a" d="M81.8 80.0 Q81.2 80.0 80.75 78.65 80.3 77.25 80.3 75.3 L80.4 73.6 83.0 72.5 83.35 75.3 Q83.35 77.25 82.9 78.65 82.45 80.0 81.8 80.0"/><path fill="#e50012" d="M84.4 47.2 Q87.05 44.7 89.7 45.05 92.05 45.35 91.0 54.85 L88.75 68.9 Q86.45 69.1 80.3 73.65 74.95 77.6 74.8 76.8 74.45 74.8 75.9 67.25 77.6 58.45 80.25 53.1 82.05 49.35 84.4 47.2"/><path fill="#ec6d45" d="M91.05 45.9 Q87.4 46.95 83.45 56.15 79.3 65.9 80.2 73.55 L77.3 75.95 Q75.15 77.55 74.75 76.95 74.15 76.05 75.0 69.1 75.9 61.55 77.75 57.5 81.5 49.25 85.25 46.25 88.6 43.55 91.05 45.9"/><path fill="#0d131a" d="M89.3 45.8 Q88.3 45.15 86.0 46.85 82.1 50.0 79.3 56.7 76.0 64.6 75.35 75.3 75.3 76.45 75.9 76.0 77.3 74.55 81.3 72.05 85.15 69.65 87.55 68.65 88.75 63.6 89.65 57.15 91.05 46.95 89.3 45.8 M82.75 47.4 Q84.3 45.45 86.6 44.55 L90.2 44.4 Q92.35 45.55 92.2 52.2 92.1 59.15 89.45 69.7 86.7 70.85 82.4 73.4 77.95 76.05 76.55 77.45 75.2 78.85 74.05 78.1 73.0 77.4 73.1 75.55 73.9 58.45 82.75 47.4"/><path fill="#0d131a" d="M188.0 56.35 Q195.55 65.75 195.55 78.75 195.55 95.4 185.9 107.1 175.85 119.35 160.4 119.35 150.25 119.35 141.7 110.1 132.45 100.1 130.1 84.05 127.9 68.8 123.45 62.45 119.0 56.15 110.5 56.15 104.7 56.15 98.95 61.8 95.85 64.8 90.45 72.5 L85.9 78.8 Q82.6 82.95 78.05 85.3 73.55 87.6 63.6 90.3 L61.55 90.85 Q56.05 92.45 54.05 98.1 52.45 102.75 53.55 108.9 54.65 115.05 57.95 119.6 60.75 123.4 65.65 125.3 68.55 126.4 76.5 127.95 87.05 130.05 94.6 133.9 102.3 137.8 105.0 142.65 107.15 146.55 106.15 146.6 105.2 146.7 103.3 143.9 99.65 138.65 92.95 135.45 86.45 132.35 73.5 129.5 62.6 127.1 58.1 123.2 53.35 119.1 51.35 109.85 49.6 101.8 51.75 96.3 54.05 90.4 60.45 88.75 73.25 85.8 78.85 82.15 84.5 78.55 89.65 69.85 100.15 54.4 110.25 54.4 119.8 54.4 124.65 60.55 129.6 66.9 131.95 82.85 134.2 98.1 142.4 107.75 150.65 117.45 161.7 117.45 173.85 117.45 183.4 106.9 193.7 95.45 193.7 78.45 193.7 67.2 187.2 58.55 180.5 49.6 169.9 47.85 158.2 45.95 148.75 55.95 145.15 59.8 142.9 64.45 140.8 68.7 140.8 71.5 148.2 71.6 163.65 76.65 180.35 82.05 188.5 87.9 189.9 88.9 189.2 89.25 188.55 89.6 187.25 88.75 177.2 82.15 160.85 77.65 147.55 73.95 139.5 73.7 138.5 73.7 138.55 72.1 138.7 68.55 141.0 63.75 143.5 58.5 147.5 54.3 157.65 43.4 170.3 45.6 180.85 47.45 188.0 56.35"/><path fill="#0d131a" d="M217.05 195.45 Q211.2 190.7 213.15 187.45 215.35 183.8 221.15 180.6 228.0 176.8 235.45 176.5 242.85 176.25 249.55 179.95 258.35 184.8 266.85 196.7 270.55 201.9 271.45 205.15 272.45 208.75 270.35 210.65 264.95 215.75 245.05 209.3 226.7 203.3 217.05 195.45"/><path fill="#e50012" d="M234.6 178.6 Q241.65 178.35 248.6 182.0 257.65 186.8 265.7 198.05 271.65 206.35 268.8 209.0 264.55 213.0 246.05 207.15 228.05 201.4 218.5 193.65 214.2 190.15 215.1 188.65 217.2 185.25 221.95 182.35 227.85 178.85 234.6 178.6"/><path fill="#c6000b" d="M218.5 193.65 L216.55 191.85 Q240.55 193.45 250.3 182.95 258.5 187.95 265.7 198.05 271.65 206.35 268.8 209.0 264.55 213.0 246.05 207.15 228.05 201.4 218.5 193.65"/><path fill="#0d131a" d="M260.6 192.8 Q266.85 194.6 272.15 193.4 276.6 192.35 282.7 188.45 287.15 185.55 288.2 186.45 289.9 187.95 289.15 198.55 288.4 209.15 282.05 218.0 277.35 224.55 270.1 229.6 259.0 237.25 252.9 238.45 245.35 239.9 231.5 235.65 220.85 232.35 217.45 230.6 212.0 227.75 210.65 223.2 209.65 219.55 211.65 215.5 213.55 211.7 219.55 204.95 L220.2 203.85 Q227.95 194.95 235.4 192.2 245.55 188.45 260.6 192.8"/><path fill="#e50012" d="M274.7 194.45 Q278.6 193.3 283.95 189.9 286.25 188.3 286.9 188.25 287.35 188.8 287.35 191.8 L287.1 198.15 Q286.4 208.15 280.9 216.2 276.75 222.3 270.2 226.85 262.2 232.35 252.55 234.45 242.95 236.6 235.65 234.4 L233.75 233.8 Q223.85 230.9 220.05 229.1 213.95 226.25 212.9 222.6 L212.65 220.7 Q212.65 214.8 221.75 204.5 228.45 196.95 235.8 194.2 246.15 190.25 259.95 194.25 267.7 196.5 274.7 194.45"/><path fill="#c6000b" d="M280.9 216.2 Q276.75 222.3 270.2 226.85 262.2 232.35 252.55 234.45 242.95 236.6 235.65 234.4 L233.75 233.8 Q223.85 230.9 220.05 229.1 213.95 226.25 212.9 222.6 L212.65 220.7 Q212.65 217.35 215.5 212.7 219.45 210.6 224.75 211.9 L235.6 214.95 Q252.8 218.3 277.95 203.4 283.6 200.05 287.3 194.65 L287.1 198.15 Q286.4 208.15 280.9 216.2"/><path fill="#0d131a" d="M250.7 219.5 L262.4 219.1 Q267.3 220.2 268.9 223.05 L269.0 223.25 269.05 223.45 Q270.0 228.75 266.55 233.25 262.8 238.2 255.35 239.75 249.55 240.95 243.55 238.35 237.15 235.55 236.95 230.65 236.8 227.45 241.2 224.05 245.35 220.85 250.7 219.5"/><path fill="#fcd13e" d="M251.45 221.15 Q256.4 219.95 260.55 220.6 265.25 221.35 267.0 224.25 L267.1 225.75 Q267.1 229.95 264.15 233.3 260.9 237.0 255.1 238.15 252.05 238.8 248.8 238.15 245.55 237.55 243.05 235.85 239.8 233.7 239.2 230.5 239.35 227.55 243.15 224.8 246.6 222.35 251.45 221.15"/><path fill="#d9b536" d="M267.0 224.25 L267.1 225.75 Q267.1 229.95 264.15 233.3 260.9 237.0 255.1 238.15 L250.65 238.4 Q255.45 238.1 258.35 233.65 261.8 228.35 259.1 220.45 264.95 220.9 267.0 224.25"/><path fill="#0d131a" d="M285.15 202.9 L285.35 202.95 285.5 203.1 Q288.5 205.65 289.15 209.95 289.85 214.6 287.05 218.4 285.15 221.05 280.4 222.45 274.85 224.15 271.8 221.25 269.75 219.3 270.55 215.4 271.25 211.95 273.75 208.55 276.05 205.45 279.6 203.75 283.05 202.05 285.15 202.9"/><path fill="#fcd13e" d="M285.75 216.65 Q284.6 218.25 282.4 219.45 280.2 220.6 277.85 220.85 274.65 221.25 272.95 219.85 272.3 218.9 272.3 217.55 272.3 214.05 275.4 209.85 277.45 207.1 279.85 205.6 282.55 203.95 284.7 204.65 287.5 207.2 287.5 211.25 287.5 214.15 285.75 216.65"/><path fill="#d9b536" d="M284.7 204.65 Q287.5 207.2 287.5 211.25 287.5 214.15 285.75 216.65 283.9 219.15 280.05 220.4 283.1 218.6 284.0 214.45 285.0 209.7 282.3 204.55 L284.7 204.65"/><path fill="#0d131a" d="M178.5 159.25 Q175.8 151.25 178.25 149.65 180.8 148.0 191.55 151.55 204.0 155.7 213.75 166.25 227.35 181.0 227.35 201.95 227.35 222.15 218.25 236.0 207.1 253.0 185.45 253.0 167.4 253.0 155.75 244.25 141.4 233.45 141.4 211.9 141.4 203.1 146.3 197.65 151.9 191.5 162.45 191.5 166.15 191.5 170.35 192.8 173.7 193.8 176.6 195.35 180.65 191.35 181.45 181.6 182.35 170.85 178.5 159.25"/><path fill="#e50012" d="M166.25 194.0 Q171.3 194.9 175.3 196.95 173.5 198.65 170.75 200.25 168.15 201.75 166.6 202.1 164.5 202.55 164.25 203.5 164.0 204.45 166.95 203.9 169.7 203.4 173.25 201.05 176.75 198.8 178.65 196.4 182.4 192.15 183.3 181.25 184.1 171.95 182.65 165.75 L180.4 158.25 179.1 153.9 Q178.6 151.8 179.1 151.3 180.45 149.95 190.05 153.15 201.75 157.1 211.05 166.25 228.3 183.15 224.85 209.5 221.5 234.95 204.35 245.5 196.7 250.2 187.5 250.9 178.35 251.6 168.95 248.3 160.75 245.45 155.0 240.5 148.85 235.2 146.0 227.85 143.35 221.0 143.4 213.9 143.4 206.8 146.1 201.7 149.3 195.9 155.3 194.25 160.1 192.9 166.25 194.0"/><path fill="#ec6d45" d="M190.2 154.95 Q188.8 154.9 190.2 157.25 L193.65 163.0 Q194.4 164.5 193.5 164.15 L191.1 162.65 Q187.05 160.05 187.7 163.0 188.25 165.6 188.05 171.0 187.85 177.65 186.5 183.55 182.7 200.25 171.9 201.9 176.4 199.3 178.65 196.4 182.4 192.15 183.3 181.25 184.1 171.95 182.65 165.75 L180.4 158.25 179.1 153.9 Q178.6 151.8 179.1 151.3 180.45 149.95 190.05 153.15 192.55 154.05 194.5 154.95 L190.2 154.95"/><path fill="#c6000b" d="M155.0 240.5 Q148.85 235.2 146.0 227.85 L149.35 230.7 Q154.1 234.55 159.25 236.7 176.45 243.8 193.65 231.15 207.05 221.3 212.75 204.8 218.1 189.45 215.75 171.55 227.75 187.25 224.85 209.5 221.5 234.95 204.35 245.5 196.7 250.2 187.5 250.9 178.35 251.6 168.95 248.3 160.75 245.45 155.0 240.5"/><path fill="#0d131a" d="M211.8 172.8 Q217.95 170.75 223.75 173.6 229.55 176.45 231.55 182.5 233.55 188.55 230.7 194.2 227.75 200.0 221.55 202.1 215.65 204.05 210.25 201.35 204.55 198.5 202.45 192.2 200.4 186.0 203.1 180.4 205.8 174.8 211.8 172.8"/><path fill="#fcd13e" d="M228.8 192.95 Q226.25 198.05 220.8 199.85 215.75 201.55 211.0 199.2 206.0 196.65 204.25 191.2 202.4 185.75 204.75 180.9 207.05 176.05 212.3 174.3 217.65 172.55 222.75 175.0 227.8 177.45 229.55 182.75 231.25 188.05 228.8 192.95"/><path fill="#d9b536" d="M229.55 182.75 Q231.25 188.05 228.8 192.95 226.25 198.05 220.8 199.85 215.75 201.55 211.0 199.2 L210.1 198.7 Q217.55 199.85 222.55 193.65 228.1 186.85 224.9 176.3 228.2 178.85 229.55 182.75"/><path fill="#0d131a" d="M211.7 219.65 Q218.0 222.4 220.2 229.15 222.35 235.75 219.4 242.5 216.5 249.1 209.65 251.55 203.3 253.75 197.55 251.25 191.3 248.5 188.95 241.65 186.75 235.1 189.35 229.15 192.45 222.15 199.3 219.45 205.7 216.95 211.7 219.65"/><path fill="#fcd13e" d="M217.6 241.05 Q215.05 246.85 209.4 249.3 203.75 251.75 198.3 249.35 193.15 247.1 190.95 241.65 188.6 235.55 191.3 229.5 193.95 223.5 199.95 221.05 205.45 218.95 210.6 221.2 216.05 223.6 218.1 229.4 220.15 235.25 217.6 241.05"/><path fill="#d9b536" d="M216.2 225.8 Q218.5 228.95 218.9 233.0 219.3 237.15 217.6 241.05 215.15 246.6 209.85 249.1 204.5 251.6 199.2 249.7 208.8 248.95 213.7 241.1 218.2 233.85 216.2 225.8"/></g></svg>