<?xml version='1.0' encoding='utf-8'?>
<svg xmlns="http://www.w3.org/2000/svg" version="1.1" width="237px" height="308px" viewBox="-0.7 -0.15 236.65 307.65"><g><path fill="#fff095" d="M106.95 275.8 Q110.8 272.3 115.35 271.2 L122.0 271.0 Q125.85 271.6 127.6 272.55 130.7 274.25 131.65 278.1 133.2 284.4 130.2 294.05 127.35 303.35 123.5 306.15 123.15 306.4 117.85 301.55 112.5 296.6 112.05 296.75 98.7 301.7 98.25 301.35 96.4 296.35 97.75 291.35 98.9 287.0 102.05 282.0 104.75 277.8 106.95 275.8"/><path fill="#dccf81" d="M104.55 282.0 Q101.9 282.65 105.0 278.7 108.0 274.9 110.1 273.85 115.1 275.1 120.55 275.3 126.65 275.5 131.1 274.2 132.25 274.45 132.1 282.15 131.95 289.75 130.6 287.2 128.75 283.75 119.2 282.1 110.2 280.6 104.55 282.0"/><path fill="#0d131a" d="M96.05 296.75 Q95.7 291.4 98.4 285.85 100.05 282.35 102.7 279.0 105.15 275.9 107.8 273.8 L110.95 273.9 Q113.3 274.6 112.05 275.3 102.7 280.7 99.5 290.35 98.4 293.75 98.4 296.75 98.35 299.35 99.05 299.7 100.2 300.3 105.3 297.8 109.75 295.65 113.4 293.1 115.35 297.0 119.15 300.75 122.55 304.1 123.5 303.95 125.75 303.6 128.2 293.9 130.85 283.6 129.95 275.25 129.75 273.2 131.3 272.9 132.8 272.6 132.95 273.8 134.3 286.45 130.0 297.85 128.3 302.2 126.3 304.95 124.4 307.5 123.25 307.3 121.7 307.05 118.4 304.45 114.2 301.1 112.5 297.2 108.9 299.8 103.45 301.4 98.5 302.85 97.75 302.2 96.3 301.0 96.05 296.75"/><path fill="#e9eff8" d="M160.25 219.4 Q171.75 206.85 182.15 203.9 190.55 201.45 194.4 205.6 202.25 213.9 206.3 229.3 211.0 247.0 205.0 258.2 198.35 270.55 187.25 276.75 175.35 283.4 158.95 282.65 149.3 282.2 141.1 277.9 133.3 273.8 132.25 269.25 129.25 256.4 141.1 240.45 145.05 235.1 151.4 228.5 L160.25 219.4"/><path fill="#c9cfd7" d="M156.6 252.55 Q161.0 257.55 168.8 260.4 176.3 263.2 184.45 263.1 192.85 263.05 198.95 259.9 205.7 256.5 207.95 250.15 205.65 268.35 186.85 277.2 179.45 280.7 170.8 282.0 163.05 283.2 156.75 282.35 149.15 281.4 139.45 277.3 130.1 273.35 132.6 272.9 140.9 271.4 148.0 264.55 153.5 259.2 156.6 252.55"/><path fill="#0d131a" d="M141.25 279.6 Q135.25 276.95 132.3 274.4 130.55 272.95 131.8 271.75 133.0 270.6 135.2 272.8 137.4 275.0 142.45 277.3 156.5 283.95 174.85 279.65 194.9 275.0 202.55 259.95 209.65 246.0 204.9 228.35 200.75 212.9 190.5 202.85 187.75 200.1 187.55 198.75 187.35 197.45 189.5 199.25 206.6 213.75 209.3 234.45 211.4 250.7 205.05 262.1 197.45 275.85 179.7 281.55 160.45 287.8 141.25 279.6"/><path fill="#e50012" d="M120.95 76.8 Q120.45 73.05 120.45 57.65 125.55 55.7 132.3 55.55 138.7 55.4 142.6 56.9 147.95 58.95 150.25 60.25 154.4 62.5 156.3 65.4 152.75 67.5 139.5 72.05 125.15 76.95 120.95 76.8"/><path fill="#0d131a" d="M120.35 56.3 Q130.55 52.95 141.9 55.7 154.0 58.65 159.65 67.05 160.85 68.85 159.75 68.85 158.6 68.9 157.25 67.2 152.55 61.15 142.75 58.05 131.2 54.45 120.3 58.35 L120.5 57.5 Q120.6 56.95 120.35 56.3"/><path fill="#e50012" d="M1.8 79.5 Q7.1 74.45 29.4 85.8 51.6 97.1 78.6 118.5 80.15 119.7 75.2 128.8 71.0 136.6 68.35 139.75 63.55 145.5 62.2 146.25 60.1 147.4 53.4 147.2 44.55 146.95 33.7 137.2 24.4 128.85 15.6 115.45 7.6 103.3 3.45 92.65 -0.7 81.85 1.8 79.5"/><path fill="#c6000b" d="M1.7 81.55 Q4.15 87.8 11.95 97.8 19.65 107.6 29.5 117.15 53.3 140.2 66.6 141.2 L63.85 145.4 Q52.95 149.3 40.9 142.25 30.7 136.25 20.9 123.3 12.5 112.2 6.85 99.5 1.5 87.55 1.7 81.55"/><path fill="#0d131a" d="M0.95 86.9 Q-0.65 80.65 0.5 78.2 1.6 75.8 5.75 76.25 19.7 77.8 44.6 92.7 66.8 106.0 79.65 118.3 80.15 118.75 78.9 119.0 L77.15 118.8 Q61.85 106.3 43.65 95.2 19.15 80.25 5.75 78.95 2.85 78.7 2.3 80.55 1.85 82.15 3.05 86.35 5.3 94.15 10.45 104.1 16.5 115.75 23.85 124.95 43.35 149.3 62.85 145.6 64.3 145.35 63.0 146.4 61.75 147.5 60.65 147.8 43.3 152.55 23.55 128.95 15.55 119.45 9.25 107.5 3.35 96.25 0.95 86.9"/><path fill="#e50012" d="M135.1 193.2 Q134.15 186.15 135.45 175.4 136.4 167.2 138.0 161.2 L139.3 154.95 Q140.1 151.5 141.1 150.1 143.95 146.25 152.45 152.55 173.45 167.85 187.7 191.9 193.8 202.25 196.25 210.75 198.8 219.4 196.8 223.55 195.5 226.25 185.95 224.3 176.85 222.45 165.45 217.45 153.25 212.1 145.15 206.05 135.85 199.1 135.1 193.2"/><path fill="#e50012" d="M70.95 135.7 L78.9 131.5 Q84.1 128.8 88.3 127.45 100.4 123.4 113.0 127.1 122.7 129.9 134.1 139.3 146.8 149.85 153.2 162.25 157.1 169.85 158.35 189.6 L159.05 203.9 Q159.45 211.2 160.0 213.75 162.45 224.45 161.05 236.45 159.0 254.3 148.2 264.35 132.75 278.7 111.55 274.3 93.0 270.45 75.1 253.95 72.7 251.7 62.15 249.9 48.15 247.45 40.0 236.65 33.6 228.25 33.0 217.7 32.65 211.95 34.65 198.9 36.85 184.35 47.9 166.6 55.85 153.75 70.95 135.7"/><path fill="#c6000b" d="M123.25 173.45 Q130.65 175.3 162.65 199.25 194.55 223.15 191.8 224.4 188.15 226.15 177.5 222.6 168.45 219.55 160.5 215.05 161.85 221.6 161.45 227.0 160.3 229.35 154.15 225.1 147.85 220.7 145.95 215.35 145.3 213.55 131.85 191.55 120.3 172.7 123.25 173.45"/><path fill="#c6000b" d="M121.3 275.45 Q108.25 274.85 100.0 271.25 90.95 267.3 77.4 255.6 75.2 253.7 73.6 252.85 71.65 251.75 69.35 251.45 60.55 250.1 53.35 247.05 39.5 241.15 37.45 230.85 44.45 238.8 57.25 243.5 61.5 245.05 72.5 247.65 73.7 247.95 78.2 251.35 84.05 255.75 88.45 258.3 105.1 268.05 125.35 267.7 135.0 267.55 143.8 262.3 152.3 257.2 157.55 248.85 155.25 259.05 143.35 267.6 131.7 275.95 121.3 275.45"/><path fill="#0d131a" d="M69.75 136.3 L72.2 136.45 Q54.85 157.2 47.3 170.05 35.2 190.7 33.75 210.75 32.8 224.45 39.8 234.15 45.0 241.35 53.85 245.5 58.15 247.5 68.25 250.05 74.8 251.65 80.5 256.8 86.35 262.05 90.95 265.0 95.7 268.05 101.7 270.45 116.6 276.25 129.75 272.8 142.8 269.35 152.05 257.3 157.1 250.75 159.2 238.6 161.35 226.45 159.3 215.4 159.1 214.15 160.35 214.45 161.6 214.75 161.7 215.65 163.65 227.7 161.5 239.45 159.5 250.5 154.5 258.4 149.7 265.95 141.25 270.75 132.65 275.55 122.35 276.3 98.5 278.0 79.1 258.6 74.95 254.45 66.8 252.05 L53.75 248.15 Q39.85 242.35 34.35 233.15 29.5 225.1 30.3 212.7 31.65 192.0 43.4 171.35 52.2 155.95 69.75 136.3"/><path fill="#0d131a" d="M79.8 213.65 Q81.45 216.35 81.5 220.15 81.55 224.35 79.75 227.6 77.7 231.25 74.3 231.25 70.9 231.25 68.6 227.8 66.4 224.45 66.55 219.9 66.7 215.4 69.3 212.7 71.5 210.4 74.15 210.4 77.75 210.4 79.8 213.65"/><path fill="#e9eff8" d="M70.55 214.25 Q72.3 212.2 74.55 212.3 76.7 212.35 78.0 214.8 79.25 217.05 79.15 220.2 L78.95 222.7 Q78.1 224.45 77.05 225.2 75.5 226.25 72.7 226.3 70.6 226.35 69.3 224.5 68.6 222.4 68.6 219.95 68.6 216.5 70.55 214.25"/><path fill="#c9cfd7" d="M74.3 229.45 Q73.0 229.6 71.65 228.4 70.25 227.05 69.3 224.5 70.6 226.35 72.7 226.3 75.5 226.25 77.05 225.2 78.1 224.45 78.95 222.7 78.5 225.65 77.25 227.45 76.0 229.2 74.3 229.45"/><path fill="#e9eff8" d="M176.5 45.2 Q188.65 29.95 189.3 30.2 190.0 30.4 189.55 38.5 189.1 46.4 188.3 50.1 198.15 48.45 216.45 49.05 233.65 49.6 233.8 50.75 234.0 52.05 220.25 58.65 213.35 61.85 206.4 65.0 L218.6 71.5 Q230.75 78.25 230.75 79.2 230.75 80.15 208.4 85.25 L182.0 91.2 187.5 97.6 Q192.05 103.0 191.8 103.95 191.55 104.85 185.95 105.15 L180.7 105.45 Q181.75 106.15 183.85 113.95 185.9 121.65 185.3 122.25 184.85 122.65 180.05 120.75 174.85 118.7 174.2 118.7 172.55 131.3 165.35 138.15 158.65 144.55 146.75 146.2 153.2 151.45 152.95 153.0 152.7 154.35 140.35 155.65 150.35 167.95 149.25 169.55 148.5 170.55 141.9 169.55 135.45 168.55 134.9 167.8 138.8 177.2 140.55 182.3 144.0 192.4 142.7 194.1 141.85 195.25 136.1 190.2 L126.0 181.05 Q122.25 191.35 116.3 202.35 110.85 212.5 109.9 212.1 108.0 211.3 106.25 200.85 L104.9 190.6 Q98.75 196.2 85.65 205.7 72.25 215.4 71.0 214.95 68.4 214.05 67.15 198.9 66.0 185.3 66.8 178.9 63.25 181.8 56.95 184.6 51.4 187.05 48.85 187.4 48.0 179.25 55.75 163.95 63.95 147.85 75.55 136.65 63.5 136.5 63.35 135.5 63.3 134.85 68.0 130.85 L72.7 127.0 Q68.0 123.0 67.7 122.0 67.45 121.25 72.1 120.2 L81.65 118.35 Q74.65 107.15 77.55 92.95 80.0 81.2 86.85 74.1 L83.6 72.2 Q81.65 70.85 81.65 70.35 81.65 69.85 86.8 68.75 L94.7 67.4 Q91.75 58.75 87.85 45.8 82.85 29.55 83.2 28.1 83.35 27.25 90.3 29.65 97.3 32.05 97.4 31.7 100.45 22.2 106.75 11.3 112.8 0.8 114.05 2.05 115.0 3.0 115.75 17.3 L116.3 31.35 124.15 25.95 Q132.35 20.75 134.05 21.45 135.7 22.15 129.05 33.05 121.8 44.3 121.4 45.25 120.9 46.6 120.7 60.3 120.45 73.2 120.7 77.25 122.95 77.25 141.8 71.05 161.0 64.7 162.6 63.1 165.15 59.4 176.5 45.2"/><path fill="#c9cfd7" d="M92.05 118.45 Q94.15 114.3 103.85 115.75 112.5 117.0 116.2 119.95 119.25 122.4 115.7 126.1 112.1 129.9 106.35 128.85 101.95 128.05 96.55 123.8 91.4 119.75 92.05 118.45"/><path fill="#0d131a" d="M116.45 14.95 L117.3 30.5 Q117.3 31.35 116.35 32.1 115.4 32.85 115.35 31.55 L114.55 14.6 Q113.95 3.65 113.7 3.55 113.25 3.35 110.9 6.7 108.35 10.35 105.65 15.3 98.2 29.0 96.85 39.45 96.7 40.6 96.2 40.8 95.65 41.0 95.7 38.9 95.95 28.0 104.6 13.1 107.8 7.6 110.95 3.6 113.9 -0.15 114.7 0.0 115.45 0.15 116.45 14.95"/><path fill="#0d131a" d="M190.0 28.65 Q191.4 29.1 190.75 38.05 190.15 46.85 188.3 54.3 187.75 56.55 186.85 56.7 185.95 56.9 186.45 53.35 189.5 32.7 188.5 32.25 187.85 31.95 176.6 46.5 L162.6 64.15 Q161.35 65.4 141.15 72.1 121.1 78.8 120.05 78.5 119.45 78.3 119.4 63.5 119.4 48.55 120.1 45.7 124.0 39.95 128.5 31.95 133.05 23.85 132.7 23.1 132.35 22.2 125.1 26.5 117.4 31.0 113.9 34.85 112.9 35.95 112.4 35.8 111.85 35.65 112.85 34.1 116.3 28.75 125.4 23.85 133.5 19.5 134.95 20.2 136.35 20.9 131.45 30.35 126.9 39.15 122.1 45.9 121.3 48.8 121.25 62.25 121.2 75.55 121.85 75.9 122.45 76.15 140.45 70.05 L161.6 62.9 Q170.1 51.25 178.0 41.4 188.6 28.15 190.0 28.65"/><path fill="#0d131a" d="M201.9 65.8 Q204.1 64.5 218.85 57.75 232.6 51.5 232.65 51.15 232.7 50.4 220.2 50.1 L188.7 51.4 Q187.75 51.5 187.55 50.35 187.35 49.25 188.35 49.15 210.75 47.75 224.6 48.55 235.95 49.2 235.95 50.7 235.95 51.8 223.3 57.8 214.6 62.0 203.8 66.7 199.65 68.5 199.15 68.15 198.65 67.8 201.9 65.8"/><path fill="#0d131a" d="M149.9 93.85 Q153.25 98.05 153.8 104.45 154.3 110.6 152.05 116.35 149.7 122.45 145.1 125.85 140.1 129.55 133.85 129.35 128.2 129.1 122.8 125.8 117.6 122.6 114.35 117.6 110.95 112.4 110.9 107.05 110.9 105.45 112.05 104.75 113.6 103.8 114.0 103.1 118.7 94.9 126.25 91.0 133.05 87.5 140.05 88.4 146.2 89.15 149.9 93.85"/><path fill="#0d131a" d="M103.4 97.6 L100.9 99.95 Q98.9 101.35 95.7 101.4 90.2 101.5 87.2 99.4 83.95 97.25 84.0 92.9 84.15 82.8 92.8 76.2 96.35 73.45 99.95 72.7 103.6 71.9 105.65 73.4 109.75 76.4 108.25 85.85 106.9 94.7 103.4 97.6"/><path fill="#ffffff" d="M90.85 91.2 Q92.15 84.75 97.55 81.25 102.35 78.2 104.85 79.7 107.25 81.2 105.95 87.9 104.8 93.95 103.0 95.95 102.45 96.55 101.5 96.75 L98.15 97.25 95.1 98.15 Q93.65 98.6 92.55 97.55 90.1 95.2 90.85 91.2"/><path fill="#ffffff" d="M141.9 98.65 Q145.15 104.1 143.9 111.35 142.6 118.95 137.05 122.35 131.3 125.9 123.75 121.6 116.05 117.25 115.55 109.65 115.45 107.95 115.05 107.85 114.85 107.8 115.1 106.8 116.0 102.95 119.45 99.55 122.7 96.3 127.0 94.7 131.5 93.05 135.35 93.85 139.6 94.8 141.9 98.65"/><path fill="#0d131a" d="M171.55 93.6 Q167.25 94.1 166.7 93.5 166.1 92.85 171.75 91.85 180.3 90.35 204.4 84.85 228.8 79.25 228.9 78.65 229.05 78.15 218.8 72.75 209.5 67.85 204.6 65.55 L206.95 63.95 222.55 72.5 Q232.75 78.2 232.55 79.25 232.25 80.5 205.65 86.65 179.4 92.8 171.55 93.6"/><path fill="#0d131a" d="M179.7 91.4 L182.5 90.8 Q186.7 94.15 190.3 99.15 193.6 103.75 193.1 104.65 192.7 105.5 188.45 106.0 L179.2 105.6 Q177.9 105.3 177.75 104.6 177.55 103.9 179.4 104.05 182.6 104.35 186.7 104.15 L190.6 103.65 Q190.8 103.25 187.3 99.05 183.35 94.4 179.7 91.4"/><path fill="#0d131a" d="M185.15 115.45 Q186.45 122.8 185.65 123.1 184.8 123.5 181.4 122.4 177.5 121.2 173.1 118.85 170.6 117.5 171.1 116.9 171.6 116.35 173.65 117.15 L179.2 119.45 Q183.75 121.25 184.1 120.95 184.55 120.6 182.9 114.2 181.2 107.75 179.95 105.15 179.7 104.65 181.0 104.75 182.3 104.8 182.55 105.25 183.85 108.1 185.15 115.45"/><path fill="#0d131a" d="M166.85 137.7 Q159.0 145.9 147.55 146.65 146.85 146.7 146.1 146.0 145.35 145.3 145.75 145.2 158.55 143.25 166.2 134.9 172.7 127.7 173.35 118.7 173.4 118.1 174.4 118.4 175.4 118.65 175.4 118.95 174.35 129.9 166.85 137.7"/><path fill="#0d131a" d="M125.35 109.8 Q127.2 105.6 130.15 103.6 133.0 101.65 135.65 102.65 138.3 103.7 138.8 107.8 139.3 111.7 137.5 115.15 135.65 118.75 133.05 120.3 130.25 121.9 127.4 120.65 124.85 119.55 124.35 116.25 123.85 113.15 125.35 109.8"/><path fill="#ffffff" d="M129.8 110.85 Q130.35 109.55 131.3 108.8 132.2 108.15 132.75 108.4 133.45 108.7 133.6 109.65 133.8 110.7 133.25 111.95 132.7 113.15 131.85 113.85 131.0 114.5 130.35 114.25 129.65 114.0 129.5 112.95 129.35 111.9 129.8 110.85"/><path fill="#0d131a" d="M141.8 142.85 Q140.5 141.8 140.75 141.25 141.0 140.65 143.05 142.0 147.25 144.85 151.2 149.0 154.9 152.95 154.5 153.7 154.2 154.3 149.65 155.3 L141.15 156.55 138.7 155.0 146.75 153.75 Q151.5 152.75 151.5 152.45 151.5 152.05 149.1 149.6 L141.8 142.85"/><path fill="#0d131a" d="M147.9 168.8 Q148.15 168.15 144.95 163.6 141.65 158.9 138.05 155.0 136.5 153.35 137.35 153.2 138.15 153.1 139.95 154.65 144.4 158.55 148.05 164.2 151.5 169.4 150.9 170.55 L144.4 170.8 Q138.35 170.25 135.4 169.2 135.05 169.05 134.6 168.15 134.15 167.2 134.4 167.3 L142.25 168.75 Q147.65 169.45 147.9 168.8"/><path fill="#0d131a" d="M134.15 168.05 Q133.05 165.0 134.15 165.3 135.3 165.6 136.65 168.7 140.25 176.75 142.75 186.45 145.15 195.65 144.2 196.35 143.15 197.15 136.2 191.65 129.55 186.3 125.9 182.0 123.7 179.35 123.6 177.9 123.5 176.4 125.7 178.85 128.7 182.0 135.0 187.6 141.35 193.15 141.7 192.95 142.05 192.75 139.0 182.9 136.05 173.15 134.15 168.05"/><path fill="#0d131a" d="M75.2 125.8 L69.45 130.95 Q65.15 134.75 65.25 135.0 L69.3 135.5 75.55 135.9 Q76.15 136.0 75.7 136.8 75.25 137.6 74.6 137.6 L67.65 137.0 Q62.15 136.35 62.05 135.85 61.9 135.2 66.35 131.4 70.45 127.9 73.95 125.5 75.45 124.45 76.1 124.4 76.8 124.3 75.2 125.8"/><path fill="#0d131a" d="M97.4 31.05 Q98.15 31.55 97.95 32.4 97.75 33.3 97.0 32.9 95.15 31.9 89.7 30.25 84.2 28.6 83.85 28.95 83.5 29.3 88.55 45.35 92.7 58.7 95.75 67.7 L88.95 69.1 Q83.4 70.35 83.35 70.65 83.3 70.95 85.15 72.05 L88.55 74.0 Q79.55 82.15 78.15 95.35 76.85 107.4 82.2 116.3 83.4 118.25 82.65 118.8 L78.9 119.65 Q69.3 121.65 68.95 122.15 68.65 122.65 73.25 126.45 73.6 126.75 73.45 127.2 73.25 127.65 72.85 127.5 71.1 126.9 68.6 124.55 66.2 122.25 66.3 121.45 66.4 120.75 70.55 119.55 75.0 118.3 80.5 117.5 73.9 107.25 76.05 93.95 78.0 81.6 85.7 74.35 L82.15 72.4 Q79.65 70.95 79.8 70.25 79.95 69.55 85.75 68.2 L93.5 66.45 Q89.6 55.75 85.75 43.8 80.6 27.85 81.5 26.95 82.45 26.0 88.95 27.85 95.05 29.6 97.4 31.05"/><path fill="#0d131a" d="M66.1 176.3 Q66.9 172.7 67.5 172.8 68.1 172.9 67.95 175.75 67.3 187.5 68.5 200.3 69.7 213.05 71.45 213.5 72.8 213.85 89.25 201.45 L105.85 189.1 Q106.3 194.15 107.5 201.15 108.95 209.8 109.9 209.85 110.9 209.9 116.0 200.15 121.5 189.55 125.35 179.15 L126.9 180.85 Q122.7 192.95 117.45 203.1 111.8 213.95 109.3 213.75 107.85 213.65 106.4 206.6 105.05 200.3 104.4 192.35 96.2 199.55 85.45 207.65 71.95 217.8 70.15 216.9 67.35 215.5 65.9 199.95 64.4 184.55 66.1 176.3"/><path fill="#0d131a" d="M75.9 134.55 Q77.75 132.7 78.45 132.85 79.15 133.0 77.6 134.8 64.75 149.65 58.8 160.55 52.75 171.6 49.75 186.05 60.7 182.65 67.0 177.65 67.35 177.45 67.2 178.65 L66.9 180.0 Q65.65 181.0 62.0 183.0 57.65 185.4 53.4 187.15 48.8 189.05 47.95 188.1 47.1 187.05 48.35 181.05 50.75 169.75 58.65 156.7 66.15 144.25 75.9 134.55"/><path fill="#0d131a" d="M99.9 88.1 Q101.65 86.45 103.7 86.55 105.95 86.65 106.1 89.1 106.15 89.65 105.4 91.95 104.6 94.45 103.85 95.8 104.4 94.4 104.35 93.15 104.25 91.9 103.5 91.65 102.8 91.35 101.85 92.25 101.0 93.05 100.5 94.2 99.85 95.75 99.85 97.0 99.8 98.1 100.2 98.45 100.5 98.7 100.2 99.2 99.95 99.7 99.45 99.65 97.95 99.5 97.0 98.9 95.85 98.25 95.85 97.3 95.8 95.25 96.65 93.05 97.7 90.2 99.9 88.1"/><path fill="#0d131a" d="M152.05 150.4 Q175.4 166.7 189.8 193.75 195.45 204.4 197.7 213.2 199.8 221.65 197.8 224.45 196.6 226.15 190.3 225.75 183.65 225.3 175.4 222.8 153.95 216.2 142.05 202.55 140.2 200.5 140.5 199.6 140.8 198.75 142.65 200.75 152.45 211.5 173.05 219.2 181.55 222.35 187.95 223.3 194.5 224.25 195.9 222.4 197.2 220.7 195.5 213.9 193.55 206.25 188.85 197.05 175.95 171.95 152.05 153.1 151.65 152.75 151.6 151.4 151.6 150.05 152.05 150.4"/><path fill="#c9cfd7" d="M119.35 192.95 Q116.95 187.35 118.25 186.25 121.1 183.75 128.2 182.65 135.05 181.6 138.25 182.85 146.25 186.1 152.75 199.05 157.9 209.3 158.4 215.65 143.85 218.25 134.75 221.2 121.0 227.7 121.3 226.55 L122.25 220.65 123.05 214.2 116.15 209.45 Q109.2 204.75 109.2 204.0 109.2 202.4 113.95 201.4 L122.7 200.45 119.35 192.95"/><path fill="#e9eff8" d="M155.45 204.05 L157.25 211.1 Q158.2 215.7 157.55 214.85 151.15 206.65 145.25 200.8 146.75 197.8 144.3 187.05 153.3 196.8 155.45 204.05"/><path fill="#0d131a" d="M118.4 193.9 Q115.65 187.75 116.65 186.4 119.5 182.6 127.7 181.4 134.4 180.45 137.9 181.45 143.4 182.9 150.25 192.65 157.75 203.4 158.55 213.75 158.7 215.8 158.15 216.1 157.5 216.45 156.7 213.2 154.1 202.65 149.45 195.2 144.5 187.2 137.9 183.8 135.15 182.4 127.95 183.55 120.4 184.75 119.5 187.55 119.05 188.9 121.65 195.05 L124.3 200.95 123.6 201.3 Q123.25 201.5 122.4 200.8 121.05 199.7 118.4 193.9"/><path fill="#e9eff8" d="M122.5 213.9 Q122.2 213.05 115.75 208.55 109.7 204.35 110.2 203.35 111.3 201.35 117.75 200.75 123.8 200.2 126.15 201.3 L130.95 204.3 Q135.05 207.1 135.4 207.85 L135.1 208.5 Q134.55 209.1 134.65 210.3 134.75 211.25 135.9 213.7 136.85 215.8 136.65 216.6 136.2 218.15 133.85 220.45 130.55 223.65 126.2 224.85 L123.95 225.7 121.95 226.05 Q120.6 225.75 121.65 220.55 122.75 214.65 122.5 213.9"/><path fill="#0d131a" d="M146.4 191.25 Q148.2 197.4 146.4 200.8 145.65 202.2 142.5 204.75 L136.3 209.0 Q135.3 209.6 136.55 212.65 137.95 216.05 137.3 217.25 136.0 219.65 133.7 221.65 131.35 223.7 129.3 224.15 L126.3 224.5 Q125.4 224.4 127.15 223.75 130.65 222.5 133.1 220.0 135.85 217.1 135.0 214.45 L133.35 210.5 Q132.6 208.65 133.6 207.9 L140.15 203.35 Q143.05 201.25 144.05 199.55 146.25 195.65 141.75 185.65 141.1 184.3 141.85 184.15 142.5 184.05 143.45 184.9 144.9 186.15 146.4 191.25"/><path fill="#0d131a" d="M128.85 222.35 Q134.85 219.95 140.4 218.2 156.25 213.15 161.95 215.75 L163.1 216.4 162.7 216.3 Q161.75 215.85 155.15 217.15 148.9 218.4 141.1 220.45 135.75 221.85 127.65 225.45 121.4 228.25 120.65 227.9 119.7 227.5 120.95 221.35 L122.1 214.7 115.5 210.05 Q109.0 205.65 108.4 204.35 107.15 201.75 114.5 200.55 121.5 199.35 125.45 200.6 127.85 201.4 128.2 202.05 L126.15 202.2 118.7 201.8 Q113.45 202.1 111.85 203.8 111.45 204.2 117.15 208.25 123.35 212.65 123.85 214.2 124.25 215.5 123.2 220.65 122.25 225.2 122.65 225.0 124.3 224.15 128.85 222.35"/><path fill="#dccf81" d="M115.65 115.65 Q113.05 119.8 107.95 121.05 103.3 122.2 97.65 120.8 92.2 119.4 87.75 116.15 83.1 112.75 81.25 108.5 L93.9 112.0 Q106.95 115.25 115.65 115.65"/><path fill="#fff095" d="M77.3 106.95 Q75.4 106.3 75.85 104.95 76.4 103.35 80.3 101.45 94.3 94.45 106.3 96.8 112.25 98.0 115.35 104.5 117.85 109.8 117.25 114.4 116.85 117.35 98.6 112.95 86.15 109.95 77.3 106.95"/><path fill="#0d131a" d="M116.25 114.0 Q116.85 109.65 114.45 104.75 111.5 98.75 105.85 97.6 94.45 95.4 81.0 101.9 74.3 105.2 78.45 106.6 84.85 108.75 98.25 112.0 115.95 116.25 116.25 114.0 M115.25 116.35 Q113.75 117.05 105.85 115.65 96.1 113.9 82.65 109.65 85.0 113.05 89.05 115.9 94.45 119.65 100.35 120.3 105.65 120.9 109.85 119.7 113.8 118.6 115.25 116.35 M90.15 96.7 Q99.05 94.65 106.45 95.95 112.85 97.1 116.15 104.5 119.0 110.85 117.75 115.35 116.65 119.3 110.6 121.25 105.3 122.95 100.0 122.2 92.85 121.2 86.65 116.15 82.35 112.6 80.1 108.8 L77.6 107.85 Q75.05 106.8 74.85 105.5 74.6 103.95 77.9 101.65 82.3 98.55 90.15 96.7"/><path fill="#0d131a" d="M43.2 217.35 Q46.55 232.15 46.0 241.0 45.45 249.2 41.75 250.65 37.4 252.35 29.65 244.95 21.3 236.95 17.15 225.35 14.75 218.65 14.25 212.7 13.7 206.75 15.4 205.45 16.65 204.45 19.5 205.9 21.8 207.05 24.65 209.5 26.3 203.15 28.9 199.3 30.8 196.5 32.05 196.2 34.4 195.65 37.8 202.05 41.2 208.45 43.2 217.35"/><path fill="#dccf81" d="M41.15 221.25 Q45.0 238.25 42.7 245.2 L42.1 246.7 41.0 247.8 Q39.55 248.4 37.05 246.8 25.55 239.55 19.8 225.05 15.5 214.25 16.35 208.7 L16.4 208.35 Q16.8 207.3 18.05 208.0 20.65 209.25 25.3 213.1 L25.6 213.35 Q26.3 210.75 28.55 206.3 30.25 202.9 31.4 201.1 L31.55 200.9 Q32.8 199.05 34.3 201.15 37.6 205.9 41.15 221.25"/><path fill="#fff095" d="M25.3 213.1 L24.5 215.1 Q18.5 209.7 16.4 208.35 16.8 207.3 18.05 208.0 20.65 209.25 25.3 213.1"/><path fill="#fff095" d="M41.15 221.25 Q45.0 238.25 42.7 245.2 L42.1 246.7 41.0 247.8 Q44.0 245.25 39.2 224.7 34.6 204.9 31.4 201.1 L31.55 200.9 Q32.8 199.05 34.3 201.15 37.6 205.9 41.15 221.25"/></g></svg>