<?xml version='1.0' encoding='utf-8'?>
<svg xmlns="http://www.w3.org/2000/svg" version="1.1" width="262px" height="378px" viewBox="-0.35 -0.15 261.5 378.2"><g><path fill="#ffffff" d="M215.2 138.7 Q219.65 139.3 223.7 143.0 228.4 147.3 228.05 152.55 227.95 154.1 225.35 164.35 223.35 172.45 224.3 179.75 L225.85 191.0 226.9 200.05 Q227.7 211.7 220.05 222.95 217.6 224.4 211.8 226.8 205.55 229.4 200.7 230.85 196.1 232.2 191.05 231.8 184.85 231.25 179.85 228.05 178.9 225.95 176.95 219.8 175.5 215.15 173.45 212.25 177.8 211.15 180.8 207.4 184.25 203.1 186.7 194.5 189.15 182.4 190.55 176.0 193.1 164.55 198.15 156.5 203.1 148.65 209.65 142.9 212.95 140.0 215.2 138.7"/><path fill="#dbdcdc" d="M186.4 196.45 L189.15 183.2 Q191.15 173.15 192.85 167.55 201.05 181.65 203.2 198.35 205.2 214.35 201.45 230.6 L200.7 230.85 Q194.75 232.6 190.9 232.3 185.8 231.85 179.85 228.05 178.9 225.95 176.95 219.8 175.5 215.15 173.45 212.25 177.35 211.3 181.1 206.75 184.9 202.15 186.4 196.45"/><path fill="#57c2e9" d="M251.4 228.8 L241.7 227.55 Q234.5 227.05 228.85 229.1 215.05 235.5 206.3 238.2 190.25 243.2 181.3 237.5 L178.85 227.5 Q182.5 230.85 188.75 231.85 197.2 233.15 206.6 228.85 216.9 224.1 222.3 222.1 231.65 218.6 238.1 218.25 245.45 217.85 250.8 219.45 256.2 221.05 256.6 223.7 257.05 226.55 256.05 227.75 254.85 229.2 251.4 228.8"/><path fill="#4ba9cb" d="M206.6 228.85 Q209.4 227.4 209.25 231.85 209.05 236.25 206.05 238.25 190.2 243.15 181.3 237.5 L178.85 227.5 Q182.65 231.0 188.85 232.05 197.45 233.55 206.6 228.85"/><path fill="#57c2e9" d="M230.85 93.9 Q223.2 100.25 222.05 101.7 214.5 111.4 212.55 120.85 211.85 124.45 212.2 126.8 212.6 128.95 213.65 128.85 216.3 128.55 222.0 123.3 228.7 117.15 236.2 114.15 245.85 110.35 252.25 106.85 256.1 104.75 258.6 106.8 261.15 108.9 258.2 112.8 256.45 115.2 248.5 118.45 237.9 122.75 235.4 124.2 229.3 127.7 219.15 135.25 208.45 143.3 204.4 147.65 198.95 153.5 194.85 162.6 190.85 171.6 189.75 180.2 188.25 192.0 184.2 201.0 179.5 211.6 173.5 212.2 L169.65 205.95 Q174.15 203.85 175.95 200.1 179.15 193.55 181.6 174.5 184.0 155.65 197.35 141.95 201.1 138.05 202.35 134.15 203.35 131.1 203.6 124.55 203.85 116.75 206.4 110.8 210.3 101.6 220.45 92.45 224.8 88.55 228.55 86.7 233.2 84.45 234.3 87.0 235.6 89.95 230.85 93.9"/><path fill="#4ba9cb" d="M181.6 174.5 Q183.45 160.4 191.35 149.15 194.15 149.95 195.15 153.2 196.3 156.9 194.7 162.95 190.8 171.95 189.75 180.2 188.25 192.0 184.2 201.0 179.5 211.6 173.5 212.2 L169.65 205.95 Q174.15 203.85 175.95 200.1 179.15 193.55 181.6 174.5"/><path fill="#0d131a" d="M225.15 146.4 Q222.8 141.65 214.75 139.3 L216.05 138.0 Q220.55 139.35 223.15 140.8 226.5 142.7 227.75 145.2 231.1 151.8 226.3 165.6 224.55 170.7 225.2 178.6 225.6 183.55 228.0 196.7 229.1 202.7 227.3 209.75 225.55 216.6 221.7 222.15 L219.55 222.5 Q223.8 215.4 225.1 208.95 226.3 202.95 225.15 196.55 223.3 186.7 222.95 179.85 222.4 170.4 224.4 164.75 228.5 152.9 225.15 146.4"/><path fill="#0d131a" d="M251.5 227.9 Q254.35 228.2 255.25 227.25 256.1 226.4 255.65 223.85 255.35 221.75 250.45 220.35 245.2 218.8 238.15 219.2 231.85 219.55 222.65 222.95 217.15 225.0 207.15 229.65 L207.0 229.7 Q197.4 234.15 188.9 232.95 182.35 232.05 178.55 228.45 L179.5 226.8 Q183.1 230.1 189.2 230.95 197.25 232.1 206.2 228.0 L206.35 227.9 Q216.8 223.1 222.15 221.15 231.5 217.65 238.05 217.3 246.1 216.9 251.4 218.55 256.95 220.3 258.0 223.8 258.4 225.0 258.2 226.35 258.0 227.85 257.1 228.8 255.45 230.55 251.55 230.15 L248.45 229.7 238.7 229.15 Q232.15 229.35 227.35 231.1 L219.65 234.4 Q207.4 239.75 200.3 241.1 188.65 243.35 180.8 238.3 L181.8 236.75 Q189.1 241.35 201.2 238.6 208.15 237.05 221.3 231.3 L228.55 228.25 Q233.5 226.4 239.5 226.5 L248.5 227.45 251.5 227.9"/><path fill="#0d131a" d="M206.35 186.2 L210.8 180.55 Q213.3 177.4 214.75 176.2 216.5 174.75 216.8 175.25 217.05 175.7 215.8 177.15 L206.8 188.5 Q202.65 193.7 197.1 199.55 191.85 205.05 189.3 207.05 187.05 208.85 186.95 208.0 186.9 207.15 188.5 205.85 190.15 204.5 195.95 198.15 L206.35 186.2"/><path fill="#0d131a" d="M204.85 213.95 Q212.15 210.45 216.6 206.95 219.3 204.8 218.95 206.0 218.6 207.2 216.0 209.4 213.65 211.45 205.4 215.45 195.35 220.35 188.15 221.65 186.1 222.0 185.4 221.65 184.65 221.2 187.2 220.55 196.55 217.95 204.85 213.95"/><path fill="#0d131a" d="M219.05 91.75 Q224.9 86.45 229.75 84.75 234.55 83.1 235.8 85.95 236.8 88.15 235.4 90.45 234.1 92.6 229.9 95.9 224.95 99.8 222.8 102.45 217.8 108.85 215.2 115.55 213.15 120.85 213.0 125.05 213.0 126.8 214.5 126.95 216.5 127.1 220.4 123.5 L226.15 118.35 Q230.25 115.15 235.3 113.2 245.6 109.15 251.85 105.75 254.1 104.5 256.35 104.55 258.7 104.6 259.9 106.0 261.05 107.35 261.05 109.3 261.05 111.4 259.65 113.2 257.6 115.8 247.6 120.25 237.35 124.55 235.85 125.4 229.8 128.85 219.95 136.1 209.05 144.0 205.1 148.3 199.95 153.85 195.65 163.95 191.5 173.75 190.4 182.45 189.0 193.2 185.35 201.5 180.45 212.45 173.55 213.1 L173.4 211.25 Q178.7 210.7 183.2 200.85 187.3 191.9 188.8 180.1 189.95 171.2 194.1 162.1 198.2 152.95 203.7 147.0 207.9 142.5 218.75 134.4 228.9 126.85 234.95 123.4 236.5 122.55 246.15 118.65 255.45 114.65 257.45 112.25 258.55 110.95 258.75 109.75 258.95 108.55 258.25 107.8 257.55 106.95 256.05 106.85 254.4 106.8 252.7 107.7 246.1 111.25 236.55 115.05 231.65 117.0 227.55 119.9 225.2 121.6 221.7 124.85 L217.85 128.15 Q215.8 129.55 213.75 129.8 212.55 129.9 211.85 128.65 210.25 125.75 212.15 118.6 214.55 109.85 221.35 101.15 223.25 98.7 228.1 94.9 L232.65 90.85 Q234.15 89.0 233.45 87.35 232.75 85.85 229.85 87.0 226.4 88.4 221.1 93.15 210.7 102.5 206.9 112.0 204.8 117.35 204.55 124.55 204.3 131.25 203.25 134.5 201.9 138.6 198.0 142.6 184.9 156.05 182.5 174.6 180.1 193.55 176.9 200.35 174.95 204.55 170.5 206.6 L169.7 204.9 Q173.35 203.2 175.4 198.2 178.3 190.95 180.7 172.6 181.95 163.1 185.45 155.95 188.95 148.8 195.7 141.8 199.5 137.9 201.0 134.2 202.4 130.55 202.65 124.5 203.0 115.65 205.55 109.55 209.25 100.55 219.05 91.75"/><path fill="#4ba9cb" d="M163.7 24.8 Q159.1 25.35 154.4 27.8 L147.15 31.9 Q141.5 34.7 136.05 35.75 128.2 37.2 125.8 33.4 123.5 29.7 133.3 27.2 138.2 25.95 143.55 25.4 147.8 21.8 154.7 19.15 161.15 16.65 164.3 16.95 168.2 17.35 168.9 20.65 169.6 24.1 163.7 24.8"/><path fill="#57c2e9" d="M204.3 24.5 Q204.15 26.35 202.4 27.5 200.4 28.8 197.15 28.65 193.6 28.45 188.55 30.2 L179.2 33.95 Q166.55 39.05 158.1 37.2 145.85 33.55 140.45 32.2 131.1 29.8 125.85 32.65 L126.7 23.6 Q134.6 21.55 145.4 24.65 L153.75 27.15 Q158.45 28.5 161.65 28.65 167.85 28.95 179.3 24.6 191.1 20.05 198.05 20.05 201.1 20.05 202.85 21.45 204.4 22.75 204.3 24.5"/><path fill="#4ba9cb" d="M202.85 21.45 Q204.4 22.75 204.3 24.5 204.15 26.35 202.4 27.5 200.4 28.8 197.15 28.65 193.6 28.45 188.55 30.2 L179.2 33.95 Q166.55 39.05 158.1 37.2 L148.75 34.65 Q158.4 36.05 166.1 34.05 175.25 31.65 178.0 25.05 185.05 22.4 187.6 21.65 193.15 20.05 198.05 20.05 201.1 20.05 202.85 21.45"/><path fill="#57c2e9" d="M155.7 104.6 Q157.6 111.55 148.85 125.9 144.0 133.8 134.35 147.9 129.5 156.15 136.15 165.1 139.9 170.1 157.95 186.05 169.75 196.55 175.15 206.35 179.4 214.05 181.8 224.1 183.2 229.9 185.15 241.4 186.35 247.4 185.65 255.3 185.25 260.15 183.3 271.35 178.9 297.0 179.15 315.45 179.5 341.9 173.05 355.45 167.2 367.65 153.0 374.35 146.25 377.55 138.0 376.5 130.2 375.55 122.8 371.05 115.3 366.5 110.25 359.5 104.85 352.15 103.35 343.6 100.1 324.9 111.7 311.45 116.7 305.7 123.25 302.75 129.8 299.85 136.05 300.6 129.5 294.8 119.0 288.35 106.45 280.55 103.3 278.2 95.2 272.2 90.5 264.8 84.8 255.9 82.3 242.7 77.65 218.4 87.2 193.9 90.6 185.1 96.55 174.55 L106.25 158.0 Q108.5 154.15 107.0 151.25 106.1 149.5 102.25 146.35 100.35 144.8 93.25 143.1 86.15 141.4 84.7 140.2 79.6 136.05 84.7 130.5 89.25 125.55 101.3 120.15 125.3 109.45 155.7 104.6"/><path fill="#4ba9cb" d="M155.7 104.6 Q157.6 111.55 148.85 125.9 144.0 133.8 134.35 147.9 130.6 154.25 132.9 159.95 134.75 164.5 142.8 173.05 138.7 171.8 133.45 167.2 L124.35 158.45 Q119.05 153.3 115.6 151.55 110.95 149.1 107.2 151.1 104.75 146.15 97.25 144.1 L91.5 142.65 Q88.4 141.8 86.9 140.55 71.7 128.15 112.2 115.15 132.45 108.65 155.7 104.6"/><path fill="#4ba9cb" d="M145.35 288.8 Q144.25 276.6 144.45 274.7 159.9 260.75 164.2 238.6 167.85 219.6 163.75 191.35 174.9 199.75 179.0 211.75 180.6 216.4 182.1 224.1 L184.9 239.15 Q186.1 245.15 185.45 253.45 185.0 258.6 183.15 270.25 178.9 297.15 179.15 315.45 179.4 334.9 176.05 347.2 172.8 358.95 165.65 366.2 153.4 372.6 145.5 368.85 138.85 365.7 135.8 355.75 133.3 347.55 133.65 336.75 134.0 327.25 136.1 321.7 138.45 315.55 145.6 310.65 147.9 309.05 148.05 308.0 148.3 306.55 145.75 304.05 146.4 300.5 145.35 288.8"/><path fill="#f9be00" d="M116.0 188.15 Q117.8 192.75 126.6 222.55 135.8 252.2 141.0 261.1 146.75 270.85 148.7 283.9 149.9 291.9 149.9 305.15 146.05 302.85 143.55 301.85 140.0 300.45 137.1 300.55 133.5 296.7 126.45 292.7 L120.15 289.45 Q109.9 281.7 102.45 273.05 91.9 260.75 88.5 248.2 84.85 234.8 86.65 217.7 88.3 202.05 93.6 189.65 97.45 180.65 105.5 180.75 108.9 180.75 111.75 182.75 114.7 184.75 116.0 188.15"/><path fill="#d7a400" d="M141.45 261.8 Q147.15 271.5 148.9 284.3 149.9 291.4 149.9 305.3 147.6 304.0 144.65 302.75 138.8 300.2 135.85 300.3 132.45 296.65 125.6 292.35 134.2 292.4 137.6 287.2 142.05 280.5 141.45 261.8"/><path fill="#ffffff" d="M174.7 147.15 Q167.25 149.4 158.6 146.95 153.35 145.45 148.3 141.9 143.4 138.45 137.8 132.5 L146.1 121.55 158.5 120.95 Q167.3 121.75 173.5 125.0 178.65 127.7 181.65 132.5 184.6 137.15 183.4 140.3 181.55 145.0 174.7 147.15"/><path fill="#dbdcdc" d="M146.65 122.0 Q151.15 120.8 158.3 121.3 166.65 121.85 172.55 124.65 165.85 138.9 147.0 141.4 144.6 139.95 141.8 137.1 139.25 134.6 137.3 131.9 L146.65 122.0"/><path fill="#57c2e9" d="M114.0 29.2 Q110.1 27.9 104.8 28.7 98.45 29.7 93.55 33.4 94.8 40.1 100.85 62.55 L103.9 62.3 109.05 62.0 Q111.1 56.2 114.0 29.2 M165.9 80.55 Q170.65 80.4 175.2 77.05 L182.5 70.25 Q183.7 69.05 184.65 69.25 185.6 69.45 185.9 70.85 187.0 75.8 187.55 82.85 L203.7 87.6 Q204.95 88.0 205.25 89.4 205.55 90.75 204.75 91.35 197.8 97.15 185.0 99.4 L174.2 101.05 Q167.65 102.05 163.4 103.25 156.85 105.1 151.25 114.25 L146.4 123.0 Q143.3 128.4 139.7 131.95 137.3 134.3 133.5 135.45 129.7 136.55 125.85 136.15 121.25 135.65 112.6 132.55 105.65 130.1 103.7 130.85 99.55 132.45 88.65 138.45 79.15 143.65 73.45 147.2 70.5 149.0 67.0 149.2 64.0 149.35 59.75 148.35 57.25 147.75 49.5 144.8 43.7 142.6 40.5 142.8 34.65 143.2 24.8 146.6 15.75 149.7 13.1 151.7 11.75 152.7 9.45 152.45 7.1 152.25 5.15 150.95 2.5 149.25 1.05 145.05 0.3 142.7 17.05 134.0 L49.0 118.1 Q57.6 113.75 61.2 108.75 64.3 104.5 66.5 95.45 68.35 87.6 70.8 83.2 74.55 76.75 79.55 72.55 82.05 70.45 83.8 69.65 84.25 63.85 83.9 57.55 L82.9 47.55 Q80.85 30.55 79.1 20.95 L77.2 10.85 Q76.7 7.35 81.95 6.15 87.1 4.95 88.2 7.6 89.25 10.25 90.45 16.3 L92.1 24.8 Q95.85 22.3 101.9 21.35 108.1 20.35 114.85 21.25 L114.8 22.0 Q116.85 3.85 117.8 2.9 119.75 0.95 122.8 1.4 126.2 1.85 129.0 5.15 126.95 15.15 126.5 36.8 126.05 57.15 127.25 62.25 138.05 68.15 143.45 72.3 149.75 77.1 151.4 81.55 L156.65 80.85 165.9 80.55"/><path fill="#4ba9cb" d="M127.4 63.25 Q131.2 64.05 139.85 70.15 149.25 76.8 151.25 81.15 146.2 82.85 142.65 84.45 142.7 79.15 138.6 74.0 136.1 70.9 127.4 63.25"/><path fill="#4ba9cb" d="M96.4 98.05 Q103.75 89.55 111.5 88.05 116.65 87.05 119.55 88.8 123.45 91.15 126.35 99.4 123.8 100.95 121.5 101.35 114.6 101.95 110.3 102.95 104.95 104.15 99.55 105.95 94.05 107.75 90.5 109.5 89.6 105.85 96.4 98.05"/><path fill="#4ba9cb" d="M168.3 101.95 Q165.35 103.15 162.1 104.7 155.6 107.8 154.3 109.65 L144.5 125.2 Q137.85 135.1 133.45 136.2 128.45 137.45 119.6 134.45 108.85 130.85 106.15 130.65 103.5 130.5 90.0 138.35 75.1 147.05 66.15 148.9 63.5 149.45 52.65 146.05 L42.35 142.55 49.8 143.25 Q58.55 143.75 64.75 143.05 68.95 142.6 82.15 134.8 96.2 126.45 103.35 124.75 108.35 123.55 117.8 125.5 127.5 127.5 130.7 126.9 134.35 126.2 139.1 122.15 L147.8 113.75 Q159.65 102.1 168.3 101.95"/><path fill="#4ba9cb" d="M114.55 21.25 L114.0 29.15 Q111.35 28.35 107.85 28.45 104.0 28.55 100.25 29.85 103.15 26.45 103.65 25.2 104.55 22.85 102.05 21.4 108.05 20.35 114.55 21.25"/><path fill="#ffffff" d="M100.4 94.35 Q107.25 88.5 110.65 88.9 112.35 89.1 115.3 94.1 118.1 98.95 118.0 100.85 106.4 103.75 97.05 106.8 L90.0 109.3 Q92.55 101.05 100.4 94.35"/><path fill="#dbdcdc" d="M114.5 92.8 Q110.75 92.1 103.6 96.05 97.0 99.65 92.05 104.5 95.6 97.95 102.15 92.95 107.95 88.6 110.65 88.9 112.1 89.05 114.5 92.8"/><path fill="#e4004f" d="M104.35 97.6 Q107.0 100.25 106.45 103.65 96.2 106.6 90.45 109.1 91.15 104.6 95.55 99.35 97.75 96.75 99.8 95.0 102.3 95.55 104.35 97.6"/><path fill="#c60044" d="M99.9 95.05 L101.4 95.25 Q102.35 95.65 102.95 96.4 100.45 97.65 97.25 100.35 93.85 103.25 91.6 106.1 93.85 101.1 97.1 97.6 98.75 95.8 99.9 95.05"/><path fill="#0d131a" d="M126.3 32.65 Q129.0 34.5 134.0 34.3 138.05 34.15 142.6 32.75 144.4 33.65 145.3 33.7 140.2 35.85 135.6 36.4 129.45 37.15 125.9 34.7 L126.3 32.65"/><path fill="#0d131a" d="M164.65 15.5 Q166.75 15.65 168.65 17.5 170.5 19.35 170.5 21.2 170.5 22.55 169.55 23.6 168.05 25.25 164.5 25.65 160.85 26.1 157.0 27.65 L154.25 26.9 Q159.1 24.45 163.6 23.95 168.15 23.4 168.05 21.2 168.05 20.05 166.9 19.0 165.7 17.95 164.2 17.8 161.15 17.5 155.75 19.4 149.6 21.5 145.55 24.95 L143.0 24.05 Q147.5 20.2 153.65 17.75 160.0 15.15 164.65 15.5"/><path fill="#0d131a" d="M205.15 22.2 Q205.7 23.2 205.55 24.75 205.35 26.2 204.7 27.3 203.75 28.8 201.85 29.55 199.9 30.3 197.35 30.2 194.35 30.05 190.55 31.15 187.75 31.95 183.1 33.9 L172.15 38.1 Q165.75 39.95 159.35 38.85 L153.6 37.35 148.1 35.55 Q140.75 33.25 136.3 32.8 130.2 32.15 126.3 34.25 L126.0 31.95 Q130.25 29.65 136.05 30.4 139.5 30.85 147.7 33.45 L158.25 36.4 170.45 36.0 Q174.35 35.05 181.85 31.9 187.1 29.7 189.75 28.9 194.0 27.6 197.2 27.75 L200.8 27.3 Q202.35 26.75 203.0 25.65 203.8 24.35 203.05 23.05 202.55 22.05 201.2 21.45 199.85 20.9 198.05 20.9 193.55 20.9 188.45 22.3 185.65 23.1 179.6 25.35 L170.75 28.4 Q165.9 29.7 161.6 29.5 157.4 29.3 149.5 26.75 142.4 24.55 138.65 23.95 132.45 23.0 126.9 24.45 L127.2 21.95 Q132.85 20.5 139.3 21.9 L150.05 25.1 Q156.8 27.25 162.5 27.5 166.5 27.7 170.85 26.55 L179.0 23.75 187.95 20.45 Q193.2 18.85 197.8 18.85 200.15 18.85 202.25 19.8 204.35 20.75 205.15 22.2"/><path fill="#0d131a" d="M154.6 110.55 L157.45 106.85 Q157.65 114.6 154.0 121.45 L150.6 121.2 Q153.7 115.65 154.6 110.55"/><path fill="#0d131a" d="M92.8 189.3 Q94.85 184.7 98.25 181.9 101.8 179.0 105.75 179.05 109.3 179.1 112.45 181.7 115.35 184.1 116.8 187.8 120.55 197.2 123.2 206.45 128.9 226.0 132.55 237.05 138.45 254.95 142.35 261.6 148.05 271.3 149.95 283.0 151.5 292.55 150.75 305.55 L148.55 304.95 Q149.35 291.5 147.3 280.9 145.25 270.55 140.2 261.95 136.2 255.15 130.35 237.75 126.55 226.35 120.75 206.65 116.2 191.0 115.2 188.45 114.0 185.4 111.4 183.55 108.8 181.7 105.55 181.6 102.0 181.55 99.1 183.75 96.15 185.95 94.4 190.0 89.25 201.9 87.6 216.55 85.65 233.4 89.35 247.05 92.6 259.2 101.95 270.8 109.4 280.1 119.6 287.75 L118.55 289.15 Q107.9 281.2 100.5 272.2 90.9 260.55 87.55 248.25 83.7 233.95 85.4 217.5 87.0 202.45 92.8 189.3"/><path fill="#0d131a" d="M133.2 147.25 Q135.05 144.1 141.2 135.1 141.35 135.85 142.0 136.3 L143.15 136.95 Q137.25 145.5 135.45 148.55 133.8 151.4 133.3 153.55 132.75 156.0 133.65 158.0 137.1 165.4 144.25 172.25 L157.9 183.85 Q166.6 191.15 171.6 197.55 178.5 206.55 182.1 218.05 186.15 232.9 186.65 245.05 187.0 254.25 185.3 265.8 L182.05 287.0 Q180.35 300.9 180.8 315.45 181.9 349.25 168.0 365.45 157.2 378.05 139.85 378.05 133.8 378.05 126.95 374.65 120.1 371.2 114.35 365.3 101.0 351.5 101.0 334.2 101.0 321.5 110.7 310.75 120.65 299.75 133.4 299.15 129.65 296.3 120.35 290.9 100.3 279.4 92.4 269.75 84.3 259.8 80.95 242.2 77.45 224.2 81.25 208.35 85.5 190.45 101.15 164.1 L105.15 157.35 Q106.45 155.1 106.1 153.25 104.55 147.25 95.55 144.7 L88.9 143.05 Q85.55 142.1 84.5 140.85 L86.65 139.35 Q87.4 140.4 90.75 141.25 L97.55 142.95 Q106.9 145.85 108.55 152.85 109.2 155.55 107.4 158.65 L103.4 165.45 Q90.85 186.5 86.75 198.4 79.4 219.65 83.55 241.5 87.0 259.3 94.95 268.85 102.2 277.5 121.65 288.65 127.65 292.1 130.1 293.65 134.6 296.55 137.75 299.25 148.1 300.6 154.1 308.45 159.45 315.5 160.55 326.55 161.6 337.4 158.5 344.0 155.65 349.95 150.65 350.0 145.8 350.1 143.35 343.8 140.95 337.6 142.95 331.15 143.65 328.95 144.15 328.85 144.65 328.7 144.35 331.3 143.6 337.85 145.7 342.45 147.8 347.1 151.55 347.1 155.05 347.1 156.9 341.3 158.8 335.3 157.9 326.2 156.65 313.5 149.4 307.2 143.6 302.25 135.15 301.95 L134.25 301.9 Q124.4 301.9 114.95 310.15 103.9 319.75 103.9 333.85 103.9 350.25 115.6 362.85 126.8 374.85 140.05 374.95 157.75 375.05 167.05 363.2 178.8 348.25 178.25 313.4 178.05 301.1 179.8 287.05 L183.0 264.65 Q184.55 252.3 184.1 243.15 183.55 231.35 179.6 219.45 176.1 208.75 169.0 199.6 164.0 193.1 155.15 185.1 L141.35 172.45 Q134.25 165.3 131.0 158.35 129.8 153.05 133.2 147.25"/><path fill="#0d131a" d="M138.2 226.65 Q146.2 223.4 154.9 216.55 161.7 211.25 165.6 206.6 166.65 205.4 166.75 206.3 166.8 207.2 165.6 209.05 163.25 212.7 157.5 217.4 149.0 224.35 138.6 228.05 L135.9 228.3 Q135.2 227.85 138.2 226.65"/><path fill="#0d131a" d="M148.7 257.35 L145.55 257.6 Q144.45 257.35 147.95 256.0 159.7 251.45 166.3 246.65 171.05 243.15 178.45 235.05 179.6 233.8 179.5 234.65 179.45 235.55 178.2 237.65 175.95 241.35 168.4 247.3 158.3 255.15 148.7 257.35"/><path fill="#0d131a" d="M155.75 218.3 Q155.4 217.6 155.7 216.85 156.0 216.05 156.7 217.05 160.15 221.9 162.25 226.7 166.05 235.35 167.3 246.3 166.2 249.05 165.95 247.4 164.8 239.75 162.05 232.25 159.8 226.1 155.75 218.3"/><path fill="#0d131a" d="M154.7 283.3 L152.2 283.35 Q151.8 282.95 154.25 282.15 159.25 280.65 166.7 275.85 174.0 271.15 178.55 266.55 180.15 264.95 179.95 266.0 179.75 266.95 178.2 268.85 174.35 273.4 167.65 277.6 160.55 282.05 154.7 283.3"/><path fill="#0d131a" d="M160.85 317.05 Q159.45 317.05 159.45 316.45 159.45 315.8 160.75 315.65 167.7 314.7 176.15 309.2 177.5 308.3 177.25 309.05 177.05 309.7 175.95 311.0 174.4 312.75 170.5 314.65 165.45 317.1 160.85 317.05"/><path fill="#0d131a" d="M162.65 333.4 Q164.45 333.9 169.25 333.5 173.85 333.05 175.25 332.4 L176.55 332.35 Q176.6 333.0 175.3 333.85 173.85 334.85 169.25 335.3 164.25 335.75 162.0 334.7 160.9 334.15 160.9 333.55 160.95 332.9 162.65 333.4"/><path fill="#0d131a" d="M121.8 207.8 L122.1 209.25 Q114.45 208.05 103.8 207.9 L87.95 208.7 88.6 206.9 103.1 205.8 Q113.9 205.75 121.8 207.8"/><path fill="#0d131a" d="M128.2 230.45 L128.7 231.8 Q117.35 235.65 104.1 235.65 93.75 235.6 86.4 233.45 L86.65 231.75 Q93.6 233.55 103.8 233.45 115.95 233.35 128.2 230.45"/><path fill="#0d131a" d="M93.3 259.3 Q102.4 261.75 110.2 261.9 122.55 262.15 138.6 257.7 L139.15 259.05 Q128.05 263.85 114.15 264.1 101.95 264.35 93.95 261.2 L93.3 259.3"/><path fill="#0d131a" d="M113.75 284.05 L111.95 281.7 Q119.8 284.3 127.95 284.5 139.05 284.75 148.25 280.15 L148.9 281.45 Q139.3 286.25 129.1 286.45 121.35 286.55 113.75 284.05"/><path fill="#0d131a" d="M173.4 123.65 Q179.75 126.65 182.65 132.0 185.05 136.45 184.15 140.1 183.05 144.65 176.45 147.6 169.35 150.8 161.65 149.1 155.75 147.8 149.6 144.0 142.8 139.75 138.0 133.8 137.8 133.55 138.45 132.95 139.15 132.4 139.35 132.65 143.85 138.2 149.8 142.0 156.1 145.95 162.3 146.8 169.35 147.75 174.9 145.85 180.5 143.85 182.15 139.75 182.85 137.9 180.4 133.55 177.35 128.2 171.75 125.45 165.85 122.6 157.75 122.0 150.85 121.45 146.5 122.6 L146.8 121.65 Q147.2 120.7 147.55 120.65 162.95 118.8 173.4 123.65"/><path fill="#0d131a" d="M141.15 130.6 Q140.85 130.4 141.2 129.8 141.6 129.15 141.85 129.35 L149.85 134.05 Q155.1 136.95 157.4 137.95 160.1 139.15 159.7 139.6 159.3 140.1 156.3 139.15 152.0 137.75 141.15 130.6"/><path fill="#0d131a" d="M162.0 129.7 Q165.15 131.05 164.45 131.45 L161.6 131.1 153.3 128.6 Q147.65 127.1 143.5 126.9 143.1 126.85 143.35 126.15 143.65 125.45 144.2 125.5 149.0 125.9 153.8 127.05 158.6 128.25 162.0 129.7"/><path fill="#0d131a" d="M89.8 97.15 Q91.15 93.9 94.25 90.2 97.35 86.45 100.1 84.8 101.55 83.95 101.85 84.25 102.1 84.5 100.85 85.7 98.1 88.25 95.3 91.55 92.5 94.8 90.65 97.65 89.15 99.95 89.15 99.25 89.15 98.75 89.8 97.15"/><path fill="#0d131a" d="M114.2 94.65 Q112.0 90.8 110.6 89.6 106.5 90.5 101.05 95.0 94.25 100.6 91.4 107.85 95.75 106.0 102.15 104.15 110.25 101.85 117.25 100.95 116.35 98.35 114.2 94.65 M112.6 30.2 Q108.95 29.35 104.6 30.1 99.35 31.0 95.0 34.0 96.0 39.1 101.85 61.15 L108.05 60.7 Q110.0 54.35 112.6 30.2 M185.3 67.85 Q186.3 67.95 186.65 69.9 L188.35 81.85 194.85 83.95 205.2 87.5 Q206.8 88.1 207.2 89.0 207.55 89.8 206.75 90.65 201.25 96.35 193.55 98.85 189.2 100.3 179.0 101.65 167.6 103.2 162.75 105.05 157.85 106.9 154.9 110.85 L144.75 126.4 Q138.35 135.85 133.45 137.15 129.25 138.25 117.7 134.8 105.95 131.25 104.1 131.6 103.15 131.8 87.65 140.45 72.4 148.9 66.5 149.65 L59.75 149.3 Q56.55 148.65 51.65 146.65 46.05 144.4 42.8 144.0 40.0 143.65 36.9 144.55 21.45 149.1 14.75 152.15 7.4 155.55 2.4 150.1 0.45 147.95 0.05 145.55 -0.35 143.1 1.15 141.95 6.3 138.05 22.1 130.1 41.45 120.65 50.9 115.7 57.05 112.45 59.8 109.05 62.8 105.35 64.3 98.55 65.45 93.5 66.8 88.95 68.15 84.45 69.0 82.85 70.85 79.6 75.15 75.45 78.75 71.9 82.5 69.2 83.0 68.85 83.3 65.3 83.6 61.85 83.35 59.9 79.3 30.05 76.1 10.55 76.1 8.8 77.85 7.0 79.55 5.35 81.65 4.75 L86.9 4.9 Q89.05 5.8 89.55 7.5 L91.15 14.9 Q92.35 20.75 93.0 22.8 96.45 21.1 101.2 20.25 L113.7 19.9 Q114.75 10.55 115.4 6.8 116.1 2.8 116.9 1.95 119.1 -0.15 122.2 0.0 126.5 0.25 130.0 4.35 130.55 5.25 130.05 7.1 129.85 7.8 129.0 14.0 L127.95 22.85 Q127.7 25.6 126.9 25.65 126.15 25.75 126.35 23.0 L127.4 6.6 Q127.6 5.45 125.6 4.0 123.65 2.7 122.1 2.6 120.1 2.5 118.8 3.75 117.85 5.45 115.6 26.75 111.65 63.45 107.1 66.9 105.15 68.4 105.05 67.9 104.95 67.5 105.95 66.2 106.95 64.85 107.55 63.0 L102.65 63.5 100.8 63.4 Q99.9 63.0 99.5 61.55 L96.05 47.45 92.6 32.9 Q91.95 29.65 92.85 29.75 93.7 29.85 94.15 31.35 98.6 28.6 103.7 27.6 108.55 26.7 112.9 27.6 L113.45 22.45 100.25 23.0 Q95.9 24.0 92.8 25.9 91.3 26.8 90.9 25.25 88.1 11.35 87.15 8.5 86.85 7.65 85.25 7.25 83.75 6.9 82.35 7.25 80.95 7.65 79.8 8.55 78.5 9.6 78.6 10.55 L81.55 29.65 Q84.5 49.0 85.4 58.8 86.15 66.05 85.05 67.9 87.1 66.85 88.7 66.35 L90.25 66.15 Q90.4 66.7 87.15 68.55 82.65 71.05 78.0 75.65 73.35 80.2 71.5 83.9 68.35 90.35 66.75 98.95 65.55 105.5 62.15 109.85 58.65 114.3 51.65 117.95 L33.1 127.55 16.4 135.85 Q6.0 140.9 2.65 143.15 1.25 144.1 1.8 145.9 2.35 147.65 4.25 149.2 9.05 153.15 13.45 150.55 16.1 148.95 23.3 146.5 29.2 144.5 36.15 142.55 40.2 141.45 43.2 141.7 46.75 142.0 52.65 144.4 57.35 146.3 59.85 146.95 L66.1 147.3 Q73.3 146.0 87.85 137.85 101.85 129.95 104.3 129.75 105.05 129.7 117.15 133.1 128.6 136.35 133.55 134.95 139.25 133.3 144.9 123.25 L149.3 115.1 Q151.85 110.5 153.85 108.25 157.3 104.35 163.35 102.2 169.25 100.1 178.45 99.35 186.35 98.75 192.3 96.65 199.4 94.2 204.45 89.45 203.1 88.7 194.7 86.2 187.05 83.95 186.65 83.2 186.15 82.25 185.5 77.75 L184.35 70.6 182.1 72.7 Q177.7 76.9 175.15 78.55 170.75 81.4 165.9 81.5 153.35 81.8 146.95 84.45 141.2 86.8 134.4 93.8 130.9 97.45 127.9 99.3 124.05 101.7 119.7 102.1 111.85 102.8 101.65 106.0 L90.35 109.9 88.8 110.15 Q88.45 109.9 88.95 108.45 92.35 99.2 100.45 93.1 106.6 88.45 112.05 87.45 116.2 86.75 116.35 87.4 116.5 88.0 112.4 89.1 116.95 93.9 119.55 100.7 123.45 100.35 126.85 97.95 129.0 96.4 132.75 92.45 137.0 88.05 139.7 86.0 144.25 82.55 149.7 80.95 148.15 77.5 141.4 72.35 135.35 67.75 130.65 65.7 127.9 64.5 126.9 63.2 125.95 62.05 125.8 60.0 125.2 52.45 125.1 45.5 124.9 35.95 125.85 31.2 126.3 29.1 126.7 29.0 127.1 28.9 127.2 31.2 L127.2 40.5 Q127.35 50.55 128.2 58.95 128.4 61.05 128.85 61.75 129.35 62.5 131.3 63.35 138.0 66.25 143.95 70.8 150.4 75.6 152.7 79.85 L157.55 79.2 166.15 78.9 Q171.1 78.8 175.9 75.05 L182.1 69.5 Q184.3 67.8 185.3 67.85"/><path fill="#0d131a" d="M99.6 95.85 L100.65 94.75 Q103.8 95.15 105.85 97.8 107.85 100.4 107.4 103.35 L105.5 103.85 Q106.0 100.85 104.15 98.45 102.35 96.15 99.6 95.85"/><path fill="#0d131a" d="M5.05 143.6 Q6.45 143.5 8.95 144.9 11.55 146.4 12.15 147.8 12.7 149.0 11.7 149.65 10.05 150.8 5.95 148.3 2.8 146.35 3.15 144.85 3.35 143.8 5.05 143.6"/><path fill="#0d131a" d="M93.8 102.75 Q94.8 101.75 96.35 103.3 97.85 104.8 97.55 106.5 96.8 107.25 90.6 108.75 92.7 103.85 93.8 102.75"/></g></svg>