<?xml version='1.0' encoding='utf-8'?>
<svg xmlns="http://www.w3.org/2000/svg" version="1.1" width="347px" height="387px" viewBox="-0.35 -0.15 346.85 387.35"><g><path fill="#e5e3da" d="M329.0 227.5 Q333.55 228.25 335.1 235.1 336.5 241.15 329.5 252.4 326.0 258.05 322.2 262.5 323.4 267.1 330.25 268.9 334.6 270.0 339.35 269.8 342.6 269.65 344.25 273.1 346.25 277.2 341.95 282.45 339.55 285.45 334.4 286.1 330.05 286.6 328.8 285.65 326.85 284.3 323.65 283.3 317.15 281.2 311.2 283.45 302.9 286.55 295.45 284.3 293.15 283.6 291.2 282.4 L289.7 281.4 Q258.6 286.8 233.25 272.75 225.3 268.4 218.9 262.6 L214.1 257.65 Q209.65 254.8 211.4 245.6 L214.1 237.0 217.75 235.7 Q236.55 257.95 261.9 262.85 274.6 265.25 283.55 263.25 284.1 260.2 287.95 255.5 L291.75 251.35 Q294.05 247.9 293.9 240.1 L293.35 233.05 Q291.8 231.65 291.15 229.75 289.9 226.0 294.65 223.7 299.45 221.4 303.1 223.9 304.95 225.2 305.8 226.9 310.85 236.8 309.2 244.9 308.4 248.95 306.55 251.05 310.65 248.85 316.45 239.85 319.35 235.35 321.45 231.3 324.8 226.85 329.0 227.5"/><path fill="#c1bfb8" d="M328.4 282.65 Q334.9 287.1 340.8 283.35 337.3 286.75 332.7 286.55 L328.8 285.65 Q326.85 284.3 323.65 283.3 317.15 281.2 311.2 283.45 302.9 286.55 295.45 284.3 293.15 283.6 291.2 282.4 L289.7 281.4 Q258.6 286.8 233.25 272.75 225.3 268.4 218.9 262.6 L214.1 257.65 Q211.5 256.0 211.0 252.0 230.75 268.45 248.25 274.3 265.25 280.0 286.55 277.8 L291.45 280.5 Q297.1 283.1 301.15 282.8 305.7 282.45 313.9 279.6 321.45 278.0 328.4 282.65"/><path fill="#e5e3da" d="M153.1 344.55 Q155.55 336.9 164.6 335.45 167.05 332.65 169.1 327.8 173.2 318.15 171.2 308.2 L194.5 306.75 195.0 309.8 Q195.45 313.7 195.05 317.95 193.75 331.45 184.8 343.05 L191.5 348.55 Q200.05 354.3 209.55 355.65 L212.2 355.7 Q215.35 355.95 218.0 356.85 226.4 359.7 226.4 367.95 226.4 376.95 213.85 382.75 208.6 385.2 203.1 385.9 197.5 386.6 193.75 385.25 187.1 384.75 178.6 380.3 161.6 371.45 152.45 351.85 151.85 348.35 153.1 344.55"/><path fill="#e5e3da" d="M151.3 252.95 L184.4 221.5 188.9 221.9 Q194.35 222.55 198.95 223.85 213.55 228.05 214.1 237.0 L214.6 246.5 Q214.9 258.05 213.7 268.2 209.9 300.65 192.9 307.15 178.7 312.55 160.25 304.3 153.15 301.15 147.95 296.95 143.05 293.0 142.5 290.45 139.8 285.7 139.55 278.65 139.0 264.5 151.3 252.95"/><path fill="#c1bfb8" d="M147.95 296.95 Q143.05 293.0 142.5 290.45 139.85 285.85 139.55 278.9 138.95 265.1 150.55 253.7 144.15 266.2 144.65 277.7 145.15 290.8 154.8 296.9 166.45 304.3 178.5 305.9 189.95 307.4 199.25 303.4 196.4 305.8 192.9 307.15 178.7 312.55 160.25 304.3 153.15 301.15 147.95 296.95"/><path fill="#e5e3da" d="M235.25 124.9 Q247.2 128.6 257.35 134.85 266.8 140.65 272.9 147.45 281.65 157.25 281.8 167.6 281.8 176.4 277.35 184.15 272.95 191.9 264.6 197.65 254.85 204.35 240.4 207.85 225.95 211.35 207.9 211.35 197.45 211.3 187.95 207.4 178.4 203.5 171.5 196.4 165.65 190.45 162.65 183.1 159.6 175.8 159.8 168.05 160.05 147.7 173.55 135.3 187.0 122.9 210.55 121.25 L213.6 121.15 Q223.35 121.15 235.25 124.9"/><path fill="#c1bfb8" d="M165.75 159.2 Q164.3 168.05 165.7 174.8 167.05 181.25 171.7 188.7 175.15 194.25 184.1 205.65 176.8 201.95 171.5 196.4 165.65 190.45 162.65 183.1 159.6 175.8 159.8 168.05 160.05 149.3 171.6 137.2 167.1 151.15 165.75 159.2"/><path fill="#852a18" d="M258.05 132.75 L269.0 135.6 Q279.95 139.2 280.15 143.1 280.25 145.05 277.3 147.25 274.75 149.15 273.7 149.15 L267.15 142.3 Q259.9 135.25 256.45 134.05 L258.05 132.75"/><path fill="#852a18" d="M186.85 135.2 Q184.15 142.4 178.05 149.8 165.85 164.65 148.8 165.85 142.2 166.4 135.35 165.8 121.55 164.65 120.1 159.1 118.4 152.7 132.0 140.25 145.1 128.25 155.1 125.55 L157.1 125.65 Q160.6 126.6 168.1 130.7 L175.55 133.05 Q183.65 135.4 186.85 135.2"/><path fill="#852a18" d="M231.75 135.55 Q231.55 142.8 229.8 148.9 224.05 168.45 204.15 169.2 199.35 169.45 193.8 167.05 182.7 162.25 178.95 149.15 L186.7 136.85 187.0 140.8 Q187.55 145.55 188.9 149.4 193.3 161.65 204.3 160.25 L207.5 159.9 Q211.35 159.1 214.45 156.7 224.35 149.0 223.35 128.2 L231.55 129.5 231.75 135.55"/><path fill="#ffffff" d="M221.5 144.5 Q217.1 160.7 204.3 160.25 191.4 159.8 188.15 149.1 187.1 145.75 186.9 140.65 L186.6 134.35 189.65 131.35 Q193.55 127.9 197.8 125.8 211.35 119.05 223.35 128.2 L223.25 133.3 Q222.9 139.45 221.5 144.5"/><path fill="#e5e3da" d="M210.75 95.55 L216.0 101.95 Q227.2 103.3 237.85 106.65 248.5 110.0 255.15 114.3 259.45 117.1 261.25 120.7 263.1 124.3 262.05 127.8 261.25 130.65 258.9 132.45 256.6 134.2 253.8 134.2 252.95 134.2 247.25 131.95 241.2 129.55 239.9 129.35 L235.35 129.45 230.3 129.7 226.6 129.1 222.45 128.05 Q217.75 126.25 214.15 125.75 211.15 125.35 207.5 125.75 205.1 126.0 197.1 130.5 189.3 134.95 187.95 134.95 L187.85 134.95 Q179.8 134.95 169.6 130.95 L160.9 126.85 Q158.55 125.55 155.1 125.55 153.05 125.55 151.7 126.1 151.0 125.25 151.2 123.45 151.45 121.45 152.8 120.2 160.7 113.1 172.05 108.25 183.4 103.4 195.6 101.9 L198.55 95.6 Q201.6 89.3 203.2 89.1 205.3 89.15 210.75 95.55"/><path fill="#852a18" d="M206.25 231.9 Q196.05 226.9 184.25 227.65 L181.5 224.6 Q178.3 221.4 175.9 220.75 L170.45 218.1 Q169.0 214.8 169.65 210.85 171.05 203.0 181.75 199.95 L185.3 199.1 194.7 198.85 Q210.3 200.55 223.4 214.45 L224.5 217.05 Q225.6 220.3 225.6 223.3 225.5 232.95 214.1 237.0 211.35 234.35 206.25 231.9"/><path fill="#e5e3da" d="M111.9 139.3 L112.95 151.45 Q113.8 163.95 112.9 165.4 L116.65 170.55 Q121.6 176.95 127.45 183.35 146.2 203.9 167.25 216.8 L174.5 220.1 Q182.35 224.35 185.55 229.4 L185.3 231.5 Q184.9 234.05 183.9 235.95 180.75 242.15 173.25 240.25 163.2 236.4 148.95 226.75 120.45 207.45 99.3 178.4 L96.1 178.75 Q92.15 178.65 88.3 176.5 90.1 171.8 91.75 165.2 95.1 151.95 94.45 142.25 91.8 143.0 89.0 142.75 83.5 142.25 83.05 137.4 82.5 131.5 87.1 125.85 91.75 120.1 96.5 121.3 102.15 122.7 105.65 126.2 110.1 130.65 111.9 139.3"/><path fill="#e5e3da" d="M79.95 147.8 Q76.25 146.45 72.55 143.4 65.1 137.25 65.0 128.65 64.9 120.05 70.0 116.45 71.6 115.3 73.5 114.8 L75.1 114.55 78.25 128.65 Q81.15 143.6 79.95 147.8"/><path fill="#852a18" d="M253.05 261.9 L263.45 263.1 Q259.0 270.25 260.9 277.05 261.9 280.45 263.75 282.4 L257.05 281.6 251.9 280.8 Q247.8 274.6 250.0 267.6 250.7 265.45 251.95 263.45 L253.05 261.9"/><path fill="#852a18" d="M275.05 263.65 L283.55 263.25 283.5 270.0 Q284.4 277.6 289.25 281.95 L275.05 282.4 Q273.4 280.6 272.6 277.4 270.95 270.9 275.05 263.65"/><path fill="#e5e3da" d="M140.55 241.5 Q141.2 248.3 136.1 256.35 133.55 260.4 130.9 263.1 L129.25 265.05 Q127.25 267.55 125.6 270.45 120.25 279.6 120.25 288.85 120.25 313.1 108.8 312.75 99.8 312.95 92.7 300.95 85.3 288.35 85.1 270.25 85.05 264.2 86.25 256.85 88.75 242.15 95.35 235.55 100.15 230.7 107.1 228.3 113.1 226.2 119.8 226.15 126.1 226.15 132.5 230.2 139.9 234.85 140.55 241.5"/><path fill="#e5e3da" d="M152.15 276.7 L155.4 297.2 Q151.2 294.2 144.5 293.25 131.15 291.3 118.75 301.45 117.85 296.75 117.85 291.35 117.85 280.6 122.45 277.3 L124.75 275.35 Q127.75 273.2 131.1 272.1 141.8 268.55 152.15 276.7"/><path fill="#852a18" d="M102.2 274.95 L103.3 275.25 Q104.6 275.75 105.7 276.85 109.15 280.2 108.95 287.7 L108.15 293.4 Q106.55 299.1 102.5 299.1 101.0 299.2 99.5 297.85 96.5 295.15 96.5 288.0 96.45 284.75 97.15 281.5 98.55 274.95 102.2 274.95"/><path fill="#e5e3da" d="M103.65 31.55 Q103.6 48.25 102.05 55.4 100.0 64.9 96.3 73.1 91.9 82.75 85.65 89.5 L84.65 91.85 Q83.75 94.75 84.5 97.3 L90.55 117.45 Q95.45 137.0 94.0 149.85 L93.7 156.2 Q92.7 164.3 89.45 173.1 79.1 201.3 49.8 226.0 L44.2 230.95 Q37.55 237.2 32.05 243.7 14.65 264.45 16.1 279.65 L16.55 284.45 Q17.8 290.2 21.55 295.25 33.65 311.35 66.75 313.9 77.0 315.75 91.75 314.0 121.2 310.55 143.5 292.8 L154.65 301.6 Q148.3 309.0 134.0 316.05 105.45 330.1 65.9 328.25 49.85 327.55 33.7 321.1 1.3 308.3 0.55 279.9 0.85 272.75 3.95 263.15 10.1 243.95 24.0 231.9 L38.35 217.25 Q48.85 208.6 59.25 195.6 80.15 169.6 79.95 147.8 79.95 139.9 78.5 129.9 75.55 109.95 68.25 99.5 59.9 94.5 52.3 86.0 37.05 68.9 40.7 51.15 41.95 42.75 48.15 32.45 60.55 11.85 85.25 2.5 L82.75 10.6 93.85 5.6 Q105.8 0.9 110.1 2.5 104.1 12.9 103.4 16.3 103.7 23.2 103.65 31.55"/><path fill="#598b1f" d="M85.25 2.5 L82.75 10.6 93.85 5.6 Q105.8 0.9 110.1 2.5 104.1 12.9 103.4 16.3 103.7 23.2 103.65 31.55 103.6 48.25 102.05 55.4 100.45 63.05 97.55 70.2 94.9 72.9 91.8 75.2 91.95 72.6 91.7 68.1 L91.45 64.1 Q90.4 66.15 86.7 70.0 L84.95 63.95 83.8 61.05 Q82.25 65.65 77.85 71.35 L73.8 76.15 Q71.85 72.6 71.4 67.2 L71.4 62.5 Q70.45 62.95 68.4 65.65 L66.55 68.2 Q65.9 66.25 65.2 59.0 L64.6 52.15 Q62.15 53.8 59.4 61.0 58.05 64.6 57.15 67.85 L56.45 64.95 56.0 62.7 53.75 66.25 Q53.35 65.15 52.9 60.25 L52.55 55.55 Q49.5 56.35 47.0 62.15 45.25 66.2 43.65 73.25 38.4 62.1 40.7 51.15 41.95 42.75 48.15 32.45 60.55 11.85 85.25 2.5"/><path fill="#adc186" d="M48.75 40.6 Q50.05 36.55 54.45 30.9 58.7 25.45 62.1 23.3 64.85 21.55 65.25 22.1 65.6 22.55 63.7 24.95 62.25 26.75 57.85 33.45 L52.1 42.2 Q50.35 44.75 49.1 44.15 47.8 43.55 48.75 40.6"/><path fill="#c1bfb8" d="M152.45 351.85 Q151.9 348.6 152.95 344.95 156.05 355.6 162.05 362.8 171.25 373.9 189.35 381.15 195.95 383.8 200.8 382.95 204.85 382.25 206.5 379.45 L206.8 380.7 210.95 380.4 Q215.8 379.25 219.4 374.85 L219.55 376.0 Q220.7 375.6 222.05 374.65 224.75 372.85 225.9 370.3 224.65 377.5 214.7 382.3 204.55 387.2 193.75 385.25 187.1 384.75 178.6 380.3 161.6 371.45 152.45 351.85"/><path fill="#691b07" d="M122.75 150.65 Q122.45 160.15 138.85 162.1 152.5 163.7 166.55 160.05 158.35 165.15 148.8 165.85 142.2 166.4 135.35 165.8 121.55 164.65 120.1 159.1 119.25 155.95 122.75 150.65"/><path fill="#c1bfb8" d="M241.2 134.45 L232.2 131.45 222.45 128.05 Q217.9 126.3 214.15 126.0 L207.5 126.2 Q205.15 126.45 197.15 130.75 189.3 134.95 187.95 134.95 L187.85 134.95 Q179.8 134.95 169.6 130.95 L160.9 126.85 Q158.55 125.55 155.1 125.55 153.05 125.55 151.7 126.1 151.1 125.4 151.15 123.95 151.2 122.4 152.05 121.1 158.45 119.2 167.15 123.85 174.0 127.45 180.85 128.55 187.35 129.6 190.8 127.95 201.95 122.5 209.9 121.85 217.15 121.2 224.25 124.4 239.15 131.2 249.25 131.75 259.1 132.25 262.3 126.7 L262.05 127.8 Q260.7 132.45 255.45 134.2 250.1 135.95 241.2 134.45"/><path fill="#c1bfb8" d="M203.15 89.65 Q202.4 92.2 201.8 96.5 201.25 100.4 201.35 101.55 L196.25 101.8 198.95 96.05 Q201.85 90.2 203.15 89.65"/><path fill="#691b07" d="M175.05 209.65 Q174.7 213.85 175.95 220.8 L175.9 220.75 170.45 218.1 Q169.0 214.8 169.65 210.85 171.05 203.0 181.75 199.95 L182.4 199.75 Q178.85 201.6 176.85 204.6 175.25 207.05 175.05 209.65"/><path fill="#c1bfb8" d="M131.7 289.5 Q145.65 287.6 155.9 297.6 151.6 294.4 144.85 293.3 131.25 291.05 118.75 301.45 L119.75 293.4 123.1 291.8 Q127.3 290.1 131.7 289.5"/><path fill="#852a18" d="M125.85 296.55 Q120.85 299.15 119.2 300.6 L120.1 290.4 Q121.25 279.7 122.45 277.3 L125.65 275.4 127.0 277.0 Q128.6 279.05 129.65 281.25 133.15 288.35 130.5 294.3 L125.85 296.55"/><path fill="#691b07" d="M123.3 291.75 Q127.4 290.1 131.6 289.5 131.5 291.9 130.5 294.3 L125.85 296.55 Q120.85 299.15 119.2 300.6 L119.8 293.4 Q121.3 292.55 123.3 291.75"/><path fill="#c1bfb8" d="M171.2 308.2 L178.25 309.4 178.35 312.9 Q178.25 317.25 177.35 321.3 174.45 334.25 164.7 339.6 L163.9 338.25 Q163.4 336.65 164.6 335.45 167.1 332.6 169.15 327.75 173.25 318.1 171.2 308.2"/><path fill="#852a18" d="M170.05 326.8 L171.45 328.3 Q173.3 330.05 175.55 331.35 182.65 335.55 190.7 333.8 L187.7 338.9 Q183.75 344.65 179.25 347.75 175.7 347.55 172.0 346.05 164.55 343.05 163.75 336.45 L166.25 333.65 Q168.95 330.2 170.05 326.8"/><path fill="#691b07" d="M173.95 330.35 Q170.6 336.35 164.7 339.6 L164.65 339.65 Q163.95 338.2 163.75 336.45 L166.25 333.65 Q168.95 330.2 170.05 326.8 L171.05 327.9 173.95 330.35"/><path fill="#691b07" d="M251.9 280.8 Q250.1 278.05 249.55 275.3 L261.05 277.45 Q262.05 280.6 263.75 282.4 L257.05 281.6 251.9 280.8"/><path fill="#691b07" d="M275.05 282.4 Q273.7 280.95 272.85 278.35 L285.95 277.85 Q287.35 280.25 289.25 281.95 L275.05 282.4"/><path fill="#c1bfb8" d="M294.1 224.6 Q293.05 226.45 293.5 228.1 L295.55 232.45 Q297.1 235.75 297.3 239.05 297.85 242.4 295.35 247.25 292.8 252.2 289.4 254.15 L291.7 250.95 Q293.95 246.75 293.95 241.7 294.05 239.75 293.75 237.3 293.2 232.4 291.45 230.0 291.1 228.85 291.4 227.4 291.95 224.5 295.25 223.1 L294.1 224.6"/><path fill="#c1bfb8" d="M324.5 231.75 Q320.9 240.15 316.45 245.35 311.6 251.1 305.05 253.85 L305.4 253.0 306.55 251.05 312.5 245.35 Q318.95 238.15 321.7 230.95 L324.15 228.45 Q327.0 226.2 329.2 227.3 328.45 227.5 327.45 228.1 325.5 229.4 324.5 231.75"/><path fill="#c1bfb8" d="M94.45 142.25 L92.9 142.55 Q96.35 141.65 98.65 139.6 L100.25 137.7 99.25 149.9 Q97.7 163.45 95.25 170.0 94.2 172.75 96.55 175.05 99.25 177.75 104.65 176.15 L108.55 182.3 Q113.8 190.0 120.7 197.7 142.7 222.3 172.5 237.65 173.65 238.25 174.35 239.25 175.0 240.25 174.4 240.5 L173.25 240.25 Q163.2 236.4 148.95 226.75 120.45 207.45 99.3 178.4 L96.1 178.75 Q92.15 178.65 88.3 176.5 90.1 171.8 91.75 165.2 95.1 151.95 94.45 142.25"/><path fill="#852a18" d="M128.0 184.0 L135.9 191.9 Q135.0 201.6 129.5 205.05 126.75 206.75 124.2 206.55 L115.85 198.05 Q120.65 198.15 124.5 192.35 127.5 187.85 128.0 184.0"/><path fill="#852a18" d="M107.05 188.55 L99.3 178.4 Q100.9 178.4 103.4 176.75 108.45 173.45 112.9 165.4 L119.65 174.75 119.25 176.8 Q118.7 179.2 117.6 181.3 114.1 188.0 107.05 188.55"/><path fill="#691b07" d="M128.3 205.65 Q126.05 206.7 124.2 206.55 L115.85 198.05 Q117.95 198.1 120.0 196.9 123.7 201.05 128.3 205.65"/><path fill="#691b07" d="M104.05 176.3 L104.65 176.15 106.45 179.15 112.0 187.15 Q109.6 188.35 107.05 188.55 L99.3 178.4 Q101.15 178.4 104.05 176.3"/><path fill="#c1bfb8" d="M79.45 135.55 Q80.85 144.6 79.95 147.8 77.55 146.9 74.65 144.95 68.85 141.0 66.5 135.6 71.75 140.05 74.9 139.95 77.9 139.85 79.45 135.55"/><path fill="#c1bfb8" d="M87.15 142.4 Q83.05 140.75 82.7 136.5 L82.85 135.55 Q83.35 138.3 88.15 139.75 93.0 141.2 97.6 139.05 99.9 137.95 101.2 136.55 98.25 141.7 92.4 142.55 L87.15 142.4"/><path fill="#c1bfb8" d="M85.1 270.25 Q85.05 263.95 86.3 256.45 88.85 241.5 95.3 235.6 90.55 246.85 89.65 257.55 88.75 268.25 91.2 284.7 93.1 297.95 100.8 305.45 107.55 312.1 114.45 310.9 112.05 312.8 108.8 312.75 99.8 312.95 92.7 300.95 85.3 288.35 85.1 270.25"/><path fill="#c1bfb8" d="M60.3 93.7 Q51.35 86.25 46.15 77.85 54.7 85.3 59.9 89.1 65.05 92.85 69.5 94.85 73.35 96.6 76.4 104.3 79.1 110.95 81.3 121.35 84.35 135.9 84.35 150.15 84.35 158.55 77.8 173.3 68.55 194.15 51.25 210.5 26.1 234.3 17.15 247.1 3.3 266.95 5.85 285.5 8.05 301.55 25.1 312.0 40.7 321.6 61.5 322.7 95.9 324.5 118.1 317.85 136.8 312.3 151.4 299.05 L154.65 301.6 Q148.3 309.0 134.0 316.05 105.45 330.1 65.9 328.25 49.85 327.55 33.7 321.1 1.3 308.3 0.55 279.9 0.85 272.75 3.95 263.15 10.1 243.95 24.0 231.9 L38.35 217.25 Q48.85 208.6 59.25 195.6 80.15 169.6 79.95 147.8 79.95 139.9 78.5 129.9 75.55 109.95 68.25 99.5 64.8 97.45 60.3 93.7"/><path fill="#e5e3da" d="M71.45 166.1 Q67.95 165.9 65.5 163.7 62.5 160.95 62.5 156.15 62.5 151.2 65.4 148.7 68.0 146.55 72.2 146.65 76.55 146.8 79.25 149.15 82.45 152.05 82.45 157.65 82.45 162.15 77.0 164.55 L71.45 166.1"/><path fill="#c1bfb8" d="M63.1 159.95 Q68.55 163.4 73.25 162.55 78.05 161.7 82.4 156.2 L82.45 157.65 Q82.45 162.15 77.0 164.55 L71.45 166.1 Q68.8 165.95 66.65 164.55 64.1 162.9 63.1 159.95"/><path fill="#c1bfb8" d="M83.75 139.9 L86.6 141.95 Q90.3 143.7 94.45 142.25 L94.75 145.85 88.6 145.65 Q82.65 144.55 83.75 139.9"/><path fill="#0d131a" d="M78.95 163.3 Q75.4 175.85 66.25 188.65 57.2 201.35 41.35 216.1 21.1 234.95 13.3 246.65 1.75 263.9 2.25 283.15 2.3 300.7 20.55 312.6 37.25 323.5 63.55 326.4 89.7 329.25 113.8 322.95 139.95 316.1 153.95 300.65 154.2 300.45 155.1 301.2 156.05 301.95 155.8 302.15 141.65 317.65 114.95 324.8 90.0 331.5 63.25 328.8 36.05 326.0 18.9 314.65 0.05 302.2 0.0 283.15 -0.35 263.75 9.35 248.1 17.3 235.25 39.6 214.5 54.15 200.95 63.0 188.6 71.6 176.6 75.5 164.95 L78.95 163.3"/><path fill="#0d131a" d="M110.3 1.35 Q111.9 1.6 111.1 2.7 107.6 8.05 102.8 18.6 98.0 29.1 95.35 37.3 94.55 39.8 94.2 39.6 93.85 39.45 94.4 36.95 95.9 29.3 100.65 18.15 105.0 7.85 108.25 3.25 102.9 3.0 92.55 7.1 84.45 10.3 82.35 11.8 81.25 12.4 81.05 12.3 80.8 12.1 81.35 10.8 L84.45 3.35 Q65.3 12.45 54.25 25.5 44.0 37.6 42.15 51.3 40.3 64.5 46.55 76.45 52.85 88.55 66.0 96.65 68.6 98.25 69.65 99.25 71.3 100.8 72.2 103.15 77.5 117.35 79.7 128.55 82.0 140.6 81.15 151.05 L78.8 148.55 Q79.55 138.35 77.2 126.8 75.15 116.7 70.3 103.7 69.55 101.65 68.0 100.35 L64.45 97.9 Q50.35 88.65 43.8 75.8 37.35 63.05 39.6 49.4 41.9 35.2 53.25 22.85 65.45 9.55 86.3 0.3 87.25 -0.15 87.5 0.05 87.7 0.2 87.35 1.2 L83.95 8.95 Q92.45 4.6 99.5 2.65 106.1 0.8 110.3 1.35"/><path fill="#0d131a" d="M141.95 292.75 Q142.25 292.45 143.45 292.75 144.6 293.05 144.4 293.25 133.15 303.6 115.95 309.55 L117.35 306.8 Q131.9 301.5 141.95 292.75"/><path fill="#0d131a" d="M95.8 141.8 L95.85 144.75 Q95.85 169.2 83.15 190.0 74.8 203.6 55.9 221.7 L41.7 235.3 Q33.95 242.95 29.3 248.95 17.25 264.55 17.25 281.1 17.25 290.2 24.95 297.45 32.15 304.25 44.9 308.4 57.25 312.45 72.25 313.15 87.6 313.9 102.3 310.95 L105.6 312.5 Q90.2 316.1 73.85 315.65 57.9 315.2 44.6 310.95 30.9 306.6 23.15 299.2 14.8 291.25 14.8 281.1 14.8 264.0 27.4 247.8 32.15 241.65 40.1 233.85 L54.4 220.15 Q72.95 202.3 80.95 189.0 93.0 169.0 93.05 144.85 L93.0 142.55 95.8 141.8"/><path fill="#0d131a" d="M102.35 29.65 L102.5 23.35 Q102.7 17.3 103.0 14.75 103.05 14.25 104.05 12.8 105.05 11.3 105.0 11.65 104.45 16.0 104.6 29.95 105.35 47.25 102.0 60.45 97.95 76.4 87.6 88.35 85.45 90.85 85.1 93.3 84.85 95.3 85.8 98.15 90.45 111.7 92.8 121.85 L90.6 122.75 Q88.3 111.6 83.85 98.6 82.85 95.55 83.1 93.25 83.45 90.25 86.0 87.35 95.75 76.3 99.75 59.45 103.0 45.85 102.35 29.65"/><path fill="#0d131a" d="M159.05 163.35 L161.35 162.9 161.05 168.05 Q160.75 177.1 165.75 185.95 170.6 194.55 179.2 200.75 L176.45 202.05 Q168.05 195.8 163.4 187.05 158.6 178.0 158.8 168.0 L159.05 163.35 M254.75 134.25 L256.9 133.4 Q268.5 140.3 275.2 148.65 282.65 157.95 282.8 167.6 282.8 184.35 268.4 196.05 252.15 209.25 221.9 211.75 L220.1 209.9 Q250.15 207.75 266.15 195.1 280.3 183.9 280.3 167.6 280.2 158.35 272.8 149.25 266.15 141.0 254.75 134.25"/><path fill="#0d131a" d="M122.75 278.85 Q122.6 279.0 122.75 277.7 122.85 276.35 123.15 276.1 130.45 269.85 136.35 269.85 141.9 269.8 150.95 275.45 153.25 276.85 153.0 277.3 152.7 277.7 150.45 276.4 142.6 271.85 136.3 272.15 129.15 272.45 122.75 278.85"/><path fill="#0d131a" d="M137.8 292.15 Q147.95 291.25 155.1 296.6 156.7 297.8 156.55 298.2 156.35 298.6 154.7 297.45 147.4 292.5 137.4 293.75 127.4 295.0 119.15 301.95 L119.2 300.9 Q119.35 299.85 119.55 299.7 127.7 293.1 137.8 292.15"/><path fill="#0d131a" d="M206.0 140.9 Q206.65 141.0 207.0 142.3 207.45 143.8 207.15 146.15 206.85 148.55 206.1 149.85 205.5 150.9 204.8 150.85 204.05 150.75 203.75 149.45 203.4 148.05 203.7 145.6 204.0 143.2 204.8 141.9 205.4 140.8 206.0 140.9"/><path fill="#ffffff" d="M205.85 142.3 Q206.6 142.4 206.35 144.0 206.2 145.5 205.5 145.5 205.2 145.45 205.05 145.0 L205.05 143.85 Q205.1 143.1 205.4 142.65 L205.85 142.3"/><path fill="#0d131a" d="M289.6 280.9 L290.5 281.85 Q291.1 282.8 290.8 282.85 266.3 285.95 250.35 281.2 232.55 275.9 214.05 258.0 213.85 257.8 213.75 256.55 213.7 255.3 213.9 255.5 232.35 273.35 251.6 279.0 267.65 283.65 289.6 280.9"/><path fill="#0d131a" d="M98.6 179.05 Q98.4 178.8 99.25 178.5 L100.25 178.4 Q112.95 195.45 131.6 211.75 152.3 229.85 171.3 238.75 174.2 240.1 173.9 240.6 173.6 241.15 170.65 239.85 149.15 230.45 130.55 214.25 114.3 200.0 98.6 179.05"/><path fill="#0d131a" d="M75.15 114.75 Q75.25 116.0 74.9 116.05 66.85 117.2 66.05 124.6 65.35 131.55 69.3 137.8 73.35 144.3 80.2 146.5 80.55 146.65 79.7 148.45 71.45 145.75 67.15 138.25 63.35 131.6 64.05 124.45 64.4 120.55 66.95 117.6 69.95 114.2 74.75 113.55 75.05 113.5 75.15 114.75"/><path fill="#0d131a" d="M124.95 275.85 Q124.75 275.65 125.4 275.2 126.0 274.75 126.2 274.95 131.45 280.7 132.45 285.6 133.35 290.15 130.7 294.95 L129.75 295.15 Q128.9 295.1 129.05 294.85 131.4 290.6 130.5 285.85 129.5 280.85 124.95 275.85"/><path fill="#0d131a" d="M190.9 332.3 Q191.2 332.2 190.95 333.45 190.75 334.7 190.4 334.75 184.55 335.8 178.95 333.85 173.05 331.85 169.6 327.25 169.4 327.0 169.8 326.35 170.25 325.75 170.45 326.0 174.0 330.5 179.7 332.1 185.0 333.6 190.9 332.3"/><path fill="#0d131a" d="M186.75 133.7 Q186.9 133.4 187.6 133.7 188.25 134.0 188.15 134.25 179.3 155.7 162.65 163.25 151.1 168.5 134.65 167.15 122.8 166.2 119.8 160.9 116.95 155.95 122.45 148.85 128.15 141.55 137.85 134.45 147.25 127.5 154.25 125.25 154.55 125.15 155.35 125.7 156.1 126.25 155.8 126.35 149.5 127.9 139.65 135.3 129.75 142.7 123.9 150.25 119.05 156.45 122.45 160.25 125.55 163.7 134.8 164.4 151.45 165.75 162.35 161.0 178.2 154.1 186.75 133.7"/><path fill="#0d131a" d="M283.9 262.4 Q284.2 262.35 284.3 263.2 284.35 264.05 284.05 264.1 264.55 266.2 251.5 261.65 234.85 255.8 216.8 236.5 216.6 236.3 217.25 235.75 217.9 235.15 218.1 235.4 234.95 253.4 252.1 259.45 265.85 264.3 283.9 262.4"/><path fill="#0d131a" d="M112.3 166.1 Q112.1 165.85 112.55 165.0 113.0 164.15 113.2 164.4 121.5 177.0 139.1 193.5 155.1 208.55 164.85 214.35 169.95 217.4 176.75 220.2 181.85 222.75 185.25 228.0 186.4 229.8 186.0 229.95 185.55 230.1 184.3 228.5 181.15 224.5 175.2 221.55 168.05 218.45 164.1 216.1 152.55 209.25 137.55 195.05 121.35 179.75 112.3 166.1"/><path fill="#0d131a" d="M193.5 305.85 Q193.5 305.65 194.55 305.3 L195.6 305.2 Q196.65 317.05 194.85 324.85 192.05 337.15 181.95 346.6 179.75 348.45 178.55 348.5 175.85 348.65 172.75 347.7 170.05 346.85 168.1 345.55 164.65 343.25 163.4 340.05 162.2 337.05 163.75 335.35 168.2 330.35 170.0 322.85 171.75 315.45 170.3 308.2 170.25 307.9 171.3 307.95 172.35 308.0 172.4 308.3 173.8 315.25 172.05 322.55 170.15 330.35 165.05 336.1 164.3 337.1 164.7 338.05 166.2 341.75 169.2 343.8 172.8 346.3 178.65 346.3 179.7 346.3 180.75 345.4 187.8 338.95 190.95 330.6 194.75 320.4 193.5 305.85"/><path fill="#0d131a" d="M222.7 215.45 Q218.2 208.4 204.95 203.05 192.7 198.15 182.45 201.1 174.2 203.5 172.1 208.45 170.05 213.1 171.5 219.05 171.55 219.3 170.7 219.05 169.85 218.8 169.8 218.35 168.5 212.25 170.15 207.85 172.65 201.45 182.95 198.95 194.1 196.25 205.75 200.95 219.8 206.6 224.65 214.75 228.7 221.6 225.65 228.55 224.45 231.35 222.15 233.5 219.6 235.85 216.15 236.95 L214.1 237.3 Q213.25 237.2 212.15 236.45 205.8 232.15 197.35 229.9 190.0 227.9 184.1 228.1 183.8 228.1 183.6 227.4 183.4 226.65 183.7 226.65 192.55 226.4 198.6 228.05 206.1 230.1 214.05 235.95 220.85 234.2 223.8 227.7 226.55 221.4 222.7 215.45"/><path fill="#0d131a" d="M231.45 106.1 Q217.35 102.55 205.45 102.55 190.9 102.55 176.75 107.7 162.8 112.8 153.4 121.25 152.55 121.95 152.15 123.3 151.75 124.6 152.05 125.35 154.7 124.55 156.3 124.7 158.3 124.85 161.1 126.4 165.15 128.65 170.1 130.35 179.1 133.4 187.95 133.45 190.7 133.45 196.5 129.8 202.7 125.9 207.25 125.3 216.55 124.1 226.95 128.1 L234.9 131.4 Q239.4 133.2 242.55 133.75 L254.75 133.4 Q259.1 131.7 260.15 126.65 260.75 123.65 259.65 120.95 258.35 117.75 254.85 115.5 246.25 109.85 231.45 106.1 M241.5 135.4 Q239.05 135.0 235.0 133.5 L227.35 130.55 Q216.8 126.8 207.6 127.5 203.3 127.85 197.1 131.95 191.15 135.95 187.95 135.95 178.9 135.95 169.65 132.3 166.55 131.05 160.4 127.7 158.75 126.8 156.1 126.6 153.45 126.4 151.9 127.05 151.45 127.35 151.1 126.9 149.85 125.65 150.0 123.65 150.15 121.35 152.15 119.45 161.8 110.75 176.1 105.6 190.65 100.3 205.45 100.3 217.65 100.3 231.8 103.9 246.7 107.7 255.7 113.5 260.2 116.4 262.1 119.95 263.8 123.1 263.25 126.3 262.15 132.7 257.1 134.85 252.0 137.0 241.5 135.4"/><path fill="#0d131a" d="M230.65 134.55 L230.55 130.65 Q230.5 130.25 231.85 130.65 233.15 131.05 233.15 131.55 233.75 146.75 227.45 157.25 219.7 170.05 204.0 170.0 193.65 170.0 186.15 163.55 179.2 157.6 178.4 149.75 178.35 149.5 179.6 148.4 180.8 147.3 180.8 147.6 180.8 155.95 187.7 162.15 194.6 168.35 203.95 168.35 217.55 168.35 224.55 158.0 230.65 149.0 230.65 134.55"/><path fill="#0d131a" d="M222.35 127.65 L223.35 127.6 Q224.35 127.7 224.35 127.9 224.9 141.55 220.45 150.4 215.05 161.1 203.5 161.1 194.5 161.1 189.85 153.95 185.8 147.65 185.8 137.0 185.8 136.7 186.7 135.45 187.6 134.15 187.6 134.5 187.5 145.95 190.85 152.2 194.85 159.55 203.5 159.6 214.6 159.55 219.35 148.7 222.9 140.45 222.35 127.65"/><path fill="#0d131a" d="M208.65 191.9 Q206.45 187.05 207.45 181.35 207.7 179.8 208.3 179.85 208.9 179.9 208.8 181.45 207.85 192.9 216.9 197.85 226.55 203.1 240.75 196.55 242.75 195.6 243.05 196.2 243.35 196.85 241.35 197.8 226.25 205.45 215.5 199.35 210.85 196.7 208.65 191.9"/><path fill="#0d131a" d="M262.85 165.1 Q263.85 166.0 264.5 167.3 L265.1 169.1 Q265.1 169.9 264.45 169.9 263.8 169.85 263.6 169.15 262.8 166.35 262.25 165.5 261.9 164.95 262.1 164.75 262.35 164.6 262.85 165.1"/><path fill="#0d131a" d="M276.55 165.8 Q277.05 165.05 277.25 165.15 L277.2 166.15 276.05 169.5 Q275.85 170.2 275.15 170.0 274.45 169.85 274.6 169.15 274.95 167.9 276.55 165.8"/><path fill="#0d131a" d="M146.2 293.3 Q150.9 298.7 159.2 302.7 190.35 317.55 204.05 293.95 214.15 276.65 213.55 242.3 213.5 240.85 214.2 240.85 214.85 240.85 214.9 242.3 216.75 287.7 200.35 303.25 185.35 317.45 158.3 304.55 148.15 299.65 142.9 293.0 L146.2 293.3"/><path fill="#0d131a" d="M141.15 271.95 L138.55 271.15 Q140.25 264.9 144.65 258.75 148.9 252.85 155.1 247.8 165.4 239.45 167.05 237.4 L167.9 237.55 168.45 238.05 Q163.25 244.2 157.05 249.2 151.05 254.05 146.95 259.85 142.7 265.85 141.15 271.95"/><path fill="#0d131a" d="M306.55 257.15 Q305.9 256.3 306.35 255.8 306.85 255.3 307.65 256.1 310.35 258.8 309.2 263.7 308.1 268.3 305.05 270.4 303.95 271.2 303.65 270.85 303.4 270.55 304.4 269.6 307.2 267.4 307.7 263.15 308.2 259.2 306.55 257.15 M324.55 227.3 Q327.95 225.35 331.2 227.1 334.85 229.1 335.75 233.55 336.9 239.0 332.95 247.35 329.5 254.65 322.95 262.6 323.5 265.2 326.5 266.9 330.1 269.0 336.2 269.0 341.8 269.0 344.25 272.25 346.5 275.15 345.15 279.05 343.2 284.6 337.35 286.4 331.9 288.15 327.15 285.65 319.4 281.7 312.15 284.05 301.1 287.7 293.3 284.85 285.1 281.8 283.15 272.2 281.35 263.4 285.0 257.85 286.0 256.3 288.3 253.85 290.5 251.55 291.25 250.25 292.65 248.0 293.15 242.0 293.75 234.9 291.35 231.85 289.6 229.6 290.3 227.05 290.9 224.75 293.2 223.1 295.55 221.45 298.3 221.4 301.35 221.35 303.65 223.35 309.25 228.25 310.15 237.2 310.95 245.1 308.15 249.05 L308.15 249.1 312.9 243.4 Q316.6 238.35 318.75 234.05 321.2 229.2 324.55 227.3 M333.8 233.85 Q333.05 230.25 330.3 228.75 328.25 227.6 325.5 229.1 322.4 230.8 320.4 234.9 318.05 239.75 313.6 245.25 309.2 250.8 306.2 252.7 305.0 254.4 304.8 254.0 304.45 253.45 305.6 251.15 L306.75 248.55 Q309.6 242.75 307.9 235.5 306.25 228.7 301.95 225.0 298.45 222.0 294.3 224.65 290.15 227.35 292.75 230.7 295.4 234.15 294.85 241.5 294.4 247.8 292.55 251.0 288.2 255.9 286.4 258.75 283.25 263.8 284.85 271.9 286.5 280.05 294.75 283.0 302.45 285.7 311.7 282.65 319.85 279.95 328.0 284.2 332.2 286.4 336.45 285.05 341.2 283.55 343.05 278.15 344.2 274.85 342.15 272.65 340.15 270.5 336.2 270.5 328.7 270.5 324.7 267.55 321.65 265.35 321.4 262.45 L321.55 261.9 Q326.8 255.8 330.4 248.6 335.0 239.5 333.8 233.85"/><path fill="#0d131a" d="M134.85 191.85 L135.6 191.75 Q136.35 191.65 136.35 191.9 136.05 198.85 133.35 202.75 130.4 207.05 124.8 207.15 L124.45 206.4 Q124.25 205.65 124.5 205.65 128.15 205.8 131.4 201.55 134.75 197.2 134.85 191.85"/><path fill="#0d131a" d="M115.9 197.25 L116.15 197.25 Q119.35 197.3 123.0 192.85 126.7 188.3 127.05 183.6 L127.75 183.65 Q128.45 183.95 128.45 184.25 128.0 190.1 124.95 194.05 121.65 198.3 116.55 198.7 L116.05 198.0 Q115.65 197.2 115.9 197.25"/><path fill="#0d131a" d="M107.25 187.45 Q110.95 188.35 114.65 184.1 118.25 179.9 118.9 174.3 118.95 174.0 119.7 174.1 120.45 174.2 120.4 174.5 119.35 182.5 115.5 186.4 111.8 190.15 106.85 188.9 106.55 188.85 106.75 188.1 106.95 187.4 107.25 187.45"/><path fill="#0d131a" d="M101.1 137.9 Q98.2 142.65 91.85 143.6 85.5 144.55 82.9 140.4 79.9 135.7 83.4 129.15 86.65 123.0 92.25 120.65 96.4 118.9 102.15 121.9 108.5 125.25 110.85 132.2 112.1 136.0 113.15 145.25 114.2 154.6 114.2 162.15 114.2 165.1 112.45 168.15 110.9 170.7 106.6 175.6 103.25 179.4 98.15 180.0 93.15 180.55 87.75 177.75 87.4 177.55 87.8 176.35 88.2 175.1 88.5 175.25 99.45 181.05 105.3 174.4 109.5 169.65 110.9 167.3 112.45 164.7 112.45 162.15 112.45 155.1 111.15 145.45 109.95 136.45 108.7 132.65 106.75 126.85 101.55 124.0 96.75 121.45 93.0 123.0 87.7 125.15 85.1 130.2 82.5 135.25 84.85 138.9 87.0 142.3 92.1 141.75 97.2 141.25 100.05 137.35 101.35 135.65 101.8 135.85 102.25 136.1 101.1 137.9"/><path fill="#0d131a" d="M80.7 157.75 Q81.45 154.05 80.15 151.45 78.6 148.25 74.15 147.55 69.15 146.8 66.05 149.3 63.35 151.5 63.25 155.05 63.2 158.9 64.95 161.5 66.6 163.85 69.1 164.35 72.55 165.05 75.95 163.55 79.9 161.75 80.7 157.75 M65.15 147.8 Q68.85 144.75 74.35 145.6 79.7 146.3 82.05 150.5 84.0 153.95 83.15 158.05 82.15 162.95 77.55 165.35 73.4 167.5 68.8 166.6 65.55 165.9 63.35 162.2 61.25 158.7 61.55 154.95 61.85 150.55 65.15 147.8"/><path fill="#0d131a" d="M258.15 131.65 Q267.25 133.45 273.3 135.95 281.65 139.4 281.7 143.35 281.65 146.35 274.35 149.85 L273.85 149.15 Q273.45 148.35 273.7 148.25 276.15 147.1 277.45 145.8 278.75 144.5 278.7 143.35 278.75 140.55 272.2 137.75 266.65 135.4 257.85 133.6 257.55 133.5 257.7 132.55 257.8 131.6 258.15 131.65"/><path fill="#0d131a" d="M253.0 261.1 L253.95 261.25 Q254.65 261.6 254.45 261.85 251.05 265.8 250.55 270.25 249.95 275.2 252.9 280.1 253.05 280.35 252.2 280.4 L251.25 280.25 Q245.45 269.9 253.0 261.1"/><path fill="#0d131a" d="M264.15 263.6 Q261.45 268.5 261.35 273.25 261.3 278.5 264.65 281.75 264.85 281.95 264.0 282.15 L263.0 282.2 Q259.15 277.95 259.3 273.0 259.45 268.85 262.6 263.25 L263.55 263.15 Q264.3 263.35 264.15 263.6"/><path fill="#0d131a" d="M274.4 263.85 L275.3 263.9 Q276.1 264.05 275.95 264.25 273.25 267.8 273.15 273.25 273.05 278.75 275.7 282.25 275.9 282.5 275.05 282.6 L274.05 282.55 Q271.25 278.4 271.35 273.35 271.45 268.25 274.4 263.85"/><path fill="#0d131a" d="M95.65 287.8 Q95.45 282.35 97.4 278.3 99.4 274.05 102.65 274.0 105.8 274.05 108.0 278.2 110.05 282.05 110.05 286.7 110.05 292.45 108.25 295.95 106.2 299.95 102.35 299.95 99.35 299.9 97.45 296.0 95.8 292.6 95.65 287.8 M97.15 287.85 Q97.25 291.8 98.7 294.9 100.25 298.25 102.35 298.2 105.75 298.15 107.15 293.75 108.05 290.95 108.05 286.7 108.1 282.4 106.35 279.1 104.7 275.95 102.65 276.0 100.5 275.95 98.85 279.2 97.05 282.75 97.15 287.85"/><path fill="#0d131a" d="M132.6 234.15 Q127.4 234.0 122.5 239.15 117.75 244.1 115.35 251.8 114.85 253.4 114.45 253.3 114.1 253.2 114.45 251.6 116.6 242.2 121.45 237.15 126.6 231.75 133.95 232.2 131.45 229.75 126.55 228.5 122.85 227.55 119.2 227.55 L115.05 228.2 Q111.3 229.3 107.9 233.7 104.0 238.75 101.55 247.1 101.1 248.6 100.75 248.5 100.4 248.4 100.7 246.9 103.3 233.0 111.1 227.95 101.55 229.35 94.7 238.35 86.55 249.0 86.55 265.9 86.55 287.35 94.0 300.6 100.75 312.6 109.15 311.4 113.95 310.7 115.95 307.55 117.55 305.05 118.2 299.35 118.8 292.0 119.45 287.55 120.6 279.6 123.3 272.9 124.95 268.95 132.25 259.95 138.4 252.45 139.25 246.15 140.05 240.65 138.2 237.45 136.4 234.25 132.6 234.15 M135.7 230.95 Q142.5 237.05 141.15 246.45 140.15 253.25 133.9 260.95 126.55 269.95 125.15 273.45 122.55 279.9 121.35 288.05 120.65 292.6 119.9 300.35 119.05 306.35 117.15 309.15 114.7 312.65 109.35 313.4 100.5 314.6 93.05 303.0 84.3 289.4 84.3 265.9 84.3 246.25 93.7 235.75 102.75 225.6 119.3 225.3 129.25 225.1 135.7 230.95"/><path fill="#0d131a" d="M152.65 355.0 Q149.25 347.25 153.35 341.35 157.05 336.05 165.2 334.15 165.5 335.6 165.1 335.7 158.45 337.4 155.15 342.35 151.65 347.65 154.3 353.8 159.9 366.75 173.1 376.0 185.95 385.0 197.7 384.9 200.7 384.95 203.15 383.15 206.0 381.1 206.05 377.75 206.05 370.15 198.85 369.7 L193.9 369.0 Q192.05 368.5 190.6 367.35 189.5 366.5 189.7 366.15 189.9 365.8 191.1 366.45 193.75 367.9 198.9 368.2 203.3 368.45 205.65 370.95 208.05 373.4 208.05 377.75 208.05 381.75 204.65 384.45 210.7 383.7 214.8 380.45 219.0 377.05 218.65 372.85 218.1 367.55 214.55 364.95 211.6 362.85 207.45 363.0 204.65 363.1 202.25 362.35 200.6 361.85 200.55 361.35 200.55 360.85 202.45 361.35 L207.55 361.65 Q212.45 361.25 216.0 363.8 220.05 366.75 220.65 372.7 220.85 375.5 219.0 378.8 221.5 377.65 223.35 374.25 225.15 370.95 225.15 367.75 225.15 362.75 221.35 359.65 217.25 356.3 210.0 356.25 203.2 356.2 193.95 351.25 185.5 346.65 183.7 343.25 183.6 342.95 184.25 342.4 184.95 341.9 185.1 342.15 186.35 344.9 194.4 349.55 203.45 354.75 210.0 354.75 217.35 354.75 222.1 358.15 227.15 361.75 227.15 367.75 227.2 374.95 219.05 380.6 210.35 386.6 197.7 386.65 184.9 386.6 171.65 377.35 158.3 368.0 152.65 355.0"/><path fill="#0d131a" d="M203.2 88.1 Q205.4 88.2 209.85 92.8 214.45 97.45 216.85 102.25 216.95 102.55 215.9 102.7 L214.7 102.55 Q212.85 98.9 208.6 94.45 204.55 90.3 203.4 90.35 202.65 90.4 200.9 94.3 199.25 97.85 197.6 102.7 L196.2 102.75 Q194.9 102.55 195.0 102.25 196.75 97.05 199.25 92.65 201.85 88.05 203.2 88.1"/></g></svg>