<?xml version='1.0' encoding='utf-8'?>
<svg xmlns="http://www.w3.org/2000/svg" version="1.1" width="201px" height="212px" viewBox="-1.3 -0.2 200.55 212.05"><g><path fill="#ffe100" d="M149.05 81.45 Q162.5 101.0 158.4 123.0 154.25 145.15 134.5 157.35 115.65 168.95 93.85 162.9 71.9 156.8 59.2 136.2 51.8 124.2 49.95 111.35 48.2 99.6 51.3 88.6 54.7 76.4 60.15 69.7 64.3 64.55 73.45 58.75 90.95 47.65 111.75 53.2 133.75 59.1 149.05 81.45"/><path fill="#ffe100" d="M168.3 52.6 Q169.0 58.25 168.4 62.25 167.85 66.1 166.2 67.85 164.7 69.4 162.15 70.5 L158.55 72.0 Q157.6 72.55 154.15 76.0 L149.15 80.75 146.1 77.25 Q144.2 74.75 144.95 74.35 146.9 73.15 149.25 71.15 152.45 68.35 151.2 67.8 147.1 66.05 132.2 49.1 116.3 31.0 113.6 23.0 111.85 17.9 113.8 11.7 115.95 4.9 121.2 2.85 126.0 1.0 128.95 0.95 132.6 0.9 137.25 3.2 146.55 7.85 157.35 26.5 167.15 43.4 168.3 52.6"/><path fill="#ffe100" d="M104.75 184.65 Q109.1 177.95 114.5 175.4 119.15 173.2 123.1 174.65 128.5 176.65 129.8 184.1 130.9 190.25 129.05 196.65 127.5 201.95 121.05 205.9 114.05 210.15 107.9 207.85 103.0 205.95 101.75 198.8 100.45 191.25 104.75 184.65"/><path fill="#515457" d="M112.15 165.1 Q114.55 164.3 118.95 163.6 123.85 162.85 122.05 164.15 119.3 166.15 117.35 168.9 115.35 171.7 115.5 173.5 115.6 175.0 117.65 176.3 L120.85 177.85 Q124.2 179.35 122.0 186.6 121.2 189.45 118.0 190.85 115.0 192.2 112.15 191.5 109.55 190.9 109.15 187.0 108.95 185.35 109.3 181.7 106.15 177.3 106.0 174.3 105.95 171.85 107.95 168.85 110.0 165.85 112.15 165.1"/><path fill="#ffffff" d="M99.15 89.9 Q100.05 89.7 98.05 93.45 96.05 97.25 93.25 98.3 89.15 99.8 84.5 99.2 79.55 98.55 78.25 95.9 L89.8 92.45 99.15 89.9"/><path fill="#ffffff" d="M111.75 82.5 L116.9 74.1 Q121.4 67.0 121.8 66.7 122.35 66.3 122.9 70.65 123.5 75.2 122.55 77.4 121.3 80.35 119.4 81.55 117.6 82.7 114.5 82.8 L112.75 82.7 111.75 82.5"/><path fill="#ffe100" d="M26.0 39.7 Q25.85 37.2 27.9 35.3 29.05 34.25 38.35 31.4 47.7 28.55 48.95 29.0 50.15 29.45 64.35 52.5 78.45 75.4 78.45 76.55 78.45 78.0 53.15 84.15 52.25 84.35 39.15 62.65 26.15 41.1 26.0 39.7 M46.4 48.95 Q45.8 46.95 45.2 45.9 L43.55 43.85 Q42.15 42.45 41.75 42.65 41.0 43.1 41.3 45.1 41.55 46.8 42.15 47.9 42.9 49.25 44.0 50.3 45.4 51.6 46.55 51.35 47.05 51.2 46.4 48.95"/><path fill="#ffe100" d="M70.5 10.05 Q79.7 7.1 80.95 8.6 109.55 57.95 107.8 60.7 106.1 63.45 77.85 57.95 76.15 57.4 58.8 19.6 58.35 18.4 58.5 16.9 58.75 15.05 60.0 14.15 62.1 12.65 70.5 10.05 M75.6 21.7 Q74.15 20.25 73.7 20.5 73.4 20.6 73.45 22.3 73.5 24.25 74.35 25.8 74.85 26.75 76.35 28.05 77.9 29.4 78.5 29.1 79.05 28.85 78.4 26.7 L77.4 24.0 75.6 21.7"/><path fill="#dcc200" d="M149.85 135.75 Q159.2 124.2 159.2 114.6 159.4 125.5 156.1 133.25 153.5 139.2 146.25 148.0 137.25 158.9 121.7 162.8 103.05 167.5 82.8 158.8 87.45 160.1 97.5 158.9 108.6 157.6 122.65 153.75 138.9 149.3 149.85 135.75"/><path fill="#dcc200" d="M41.7 42.75 Q41.25 43.8 41.3 45.2 41.35 47.0 42.4 48.5 43.3 49.85 44.9 50.75 46.2 51.45 46.95 51.5 L46.65 54.25 Q46.2 56.4 45.15 56.7 42.7 57.5 40.1 55.55 37.9 53.9 36.65 51.3 35.5 48.8 35.7 46.0 35.9 43.55 36.9 42.5 37.45 41.9 38.95 41.8 40.7 41.65 41.7 42.75"/><path fill="#dcc200" d="M71.1 19.45 Q72.9 19.35 73.85 20.5 72.65 23.25 74.6 26.15 75.75 27.9 76.65 28.5 77.55 29.1 79.15 29.2 L78.9 31.8 Q78.5 33.75 77.45 34.05 75.0 34.85 72.2 32.8 69.75 31.05 68.9 28.9 67.85 26.3 68.0 23.6 68.15 21.15 69.1 20.1 69.65 19.55 71.1 19.45"/><path fill="#0d131a" d="M92.45 30.95 Q84.3 15.5 81.5 11.3 80.25 9.4 79.8 9.15 L77.35 8.95 Q74.4 9.35 69.1 11.2 64.7 12.75 61.4 14.3 59.85 15.05 59.6 17.1 59.35 18.55 60.3 20.4 L67.5 35.35 Q73.15 46.9 77.15 54.5 78.25 56.4 76.35 57.6 72.0 60.5 70.6 62.2 70.0 63.0 69.4 62.1 68.85 61.2 69.7 60.2 70.85 58.85 72.05 58.0 L74.4 56.5 Q75.45 55.85 74.7 54.55 72.35 50.05 65.55 35.75 L58.7 21.3 Q57.3 18.2 57.95 15.75 58.45 14.1 59.8 13.3 62.4 11.7 69.85 9.3 L77.95 6.9 Q81.0 6.1 83.0 9.65 107.1 53.5 107.8 55.2 108.8 57.4 108.8 58.35 L108.0 61.6 Q107.4 63.5 106.65 63.6 105.95 63.7 106.25 62.15 106.75 59.6 106.5 58.05 106.35 56.95 105.55 55.6 L92.45 30.95"/><path fill="#0d131a" d="M48.25 28.35 Q50.25 28.2 51.8 31.15 L64.75 52.2 78.1 73.85 Q79.4 76.05 79.4 77.35 L78.8 80.05 Q78.1 82.55 77.4 82.2 76.7 81.85 77.15 79.7 77.45 78.4 77.35 77.65 77.1 76.1 75.7 73.8 L50.25 32.05 49.1 30.65 47.5 30.35 Q44.2 30.45 37.8 32.35 30.85 34.4 27.8 36.55 27.35 36.9 27.05 38.15 26.7 39.6 27.15 40.55 29.9 45.9 40.0 62.1 48.75 76.2 53.1 82.65 L52.8 84.2 52.35 85.4 Q25.8 42.4 25.5 41.25 25.05 39.35 25.45 37.7 25.8 36.15 26.75 35.25 28.45 33.5 36.95 30.95 44.8 28.6 48.25 28.35"/><path fill="#0d131a" d="M86.65 58.1 Q90.3 57.45 95.2 59.2 100.05 60.95 102.15 63.55 103.35 65.05 102.85 65.65 102.4 66.2 101.2 64.85 98.8 62.15 94.75 60.6 90.45 58.95 86.2 59.45 85.25 59.55 85.4 58.95 85.5 58.3 86.65 58.1"/><path fill="#0d131a" d="M72.55 82.75 Q73.1 83.25 72.7 83.55 72.3 83.9 71.6 83.3 70.0 81.85 66.95 80.7 62.35 78.9 58.2 80.0 57.0 80.35 57.15 79.7 57.25 79.0 58.3 78.75 61.55 77.95 65.25 78.85 69.35 79.85 72.55 82.75"/><path fill="#0d131a" d="M111.35 81.85 L122.05 64.85 Q122.45 64.15 123.0 64.5 123.5 64.85 123.0 65.6 L112.35 82.3 Q111.95 83.05 111.4 82.95 110.8 82.85 111.35 81.85"/><path fill="#0d131a" d="M99.2 90.6 L85.55 94.7 76.5 97.15 Q74.9 97.45 74.9 96.7 74.9 95.95 76.1 95.75 L87.95 92.65 99.2 89.35 Q99.85 89.1 100.0 89.7 100.15 90.3 99.2 90.6"/><path fill="#0d131a" d="M113.45 83.1 Q112.75 83.0 112.9 82.7 113.05 82.4 113.95 82.45 120.45 82.9 122.2 76.6 123.6 71.45 121.7 67.75 121.05 66.55 121.4 66.3 121.75 66.0 122.25 66.8 124.9 71.05 123.05 77.15 120.95 84.15 113.45 83.1"/><path fill="#0d131a" d="M99.35 91.7 Q97.7 97.25 92.0 99.35 86.2 101.45 80.25 98.4 79.25 97.9 79.55 97.45 L80.6 97.4 Q85.05 99.7 90.4 98.35 96.4 96.85 98.35 91.3 98.65 90.45 99.1 90.75 99.55 91.0 99.35 91.7"/><path fill="#0d131a" d="M120.5 87.25 Q120.4 86.35 121.05 86.0 121.6 85.9 121.8 86.8 122.35 89.75 122.3 91.25 122.3 91.85 121.65 92.25 L120.35 92.5 116.9 91.5 107.5 97.65 106.95 101.7 Q106.85 102.45 106.1 102.85 L104.7 102.95 100.6 101.15 Q100.15 100.9 100.35 100.1 100.65 99.5 101.4 99.8 L104.45 101.15 Q104.8 101.35 105.1 101.15 L105.4 100.55 Q105.95 96.95 106.1 96.9 L116.5 90.0 117.85 90.25 120.15 91.0 120.75 90.9 121.0 90.3 120.5 87.25"/><path fill="#0d131a" d="M114.95 79.35 Q114.65 78.65 114.7 78.0 114.8 77.4 115.2 77.2 L116.2 77.35 Q116.7 77.7 117.0 78.4 117.35 79.1 117.25 79.75 117.2 80.35 116.75 80.55 L115.8 80.4 Q115.3 80.05 114.95 79.35"/><path fill="#0d131a" d="M88.9 95.5 Q88.55 94.75 88.65 94.05 88.75 93.4 89.25 93.15 89.75 92.95 90.35 93.3 L91.25 94.4 91.5 95.8 Q91.4 96.5 90.9 96.7 L89.85 96.55 Q89.25 96.2 88.9 95.5"/><path fill="#0d131a" d="M108.15 181.5 Q105.85 184.1 103.8 189.15 101.35 195.1 102.35 200.05 103.5 205.4 108.4 207.45 113.85 209.7 119.1 206.75 124.25 203.9 126.65 197.8 129.9 189.55 128.15 182.45 126.55 175.95 122.45 175.05 L119.25 174.85 116.5 175.35 116.0 174.45 Q116.9 173.75 118.85 173.45 L122.95 173.6 Q128.15 175.15 130.0 182.05 131.95 189.35 128.75 198.35 126.15 205.6 119.9 208.75 113.7 211.85 107.35 209.2 102.3 207.1 100.85 201.2 99.4 195.2 102.35 188.25 104.65 183.05 106.95 180.5 107.95 179.35 108.55 179.95 L108.85 180.5 108.15 181.5"/><path fill="#515457" d="M126.05 102.5 Q126.3 102.4 126.35 102.75 L130.35 117.4 Q130.6 118.1 130.8 118.15 L131.35 118.15 Q135.2 116.6 139.8 114.95 L140.45 114.8 140.6 115.5 Q141.65 118.75 142.3 127.5 143.05 136.8 142.4 141.9 L142.05 143.05 141.75 142.05 139.55 136.9 Q137.95 133.55 136.5 131.55 L136.15 131.3 135.65 131.45 121.9 137.15 121.0 137.25 120.55 136.8 112.35 112.4 Q112.2 111.9 112.35 111.65 112.35 111.4 112.7 111.2 L125.65 102.7 126.05 102.5"/><path fill="#0d131a" d="M140.2 8.85 Q139.65 11.1 136.3 13.15 133.0 15.2 131.45 14.45 130.2 13.85 130.0 10.9 129.8 7.85 131.05 5.9 133.15 2.65 137.05 4.25 140.95 5.75 140.2 8.85"/><path fill="#0d131a" d="M125.15 17.5 Q125.45 18.95 122.8 21.75 120.0 24.65 117.7 24.75 114.25 24.9 113.05 21.3 111.8 17.65 114.75 15.25 116.3 14.0 120.6 14.95 124.85 15.9 125.15 17.5"/><path fill="#ffffff" d="M118.0 23.05 Q115.55 23.45 114.55 20.95 113.55 18.4 115.8 16.4 116.5 15.8 119.9 16.4 123.45 17.0 123.5 18.05 123.55 18.95 121.45 20.9 119.35 22.85 118.0 23.05"/><path fill="#0d131a" d="M41.8 43.05 L40.8 42.55 38.05 42.65 Q36.8 43.5 36.55 45.75 36.3 48.55 38.2 51.55 41.65 57.15 44.8 55.7 46.55 54.9 46.45 52.0 46.4 49.55 45.3 47.25 44.05 44.65 41.8 43.05 M40.85 41.65 Q44.0 42.65 46.15 46.75 47.85 49.95 47.7 52.95 47.5 55.95 45.5 57.05 43.5 58.1 40.9 56.6 38.25 55.15 36.55 51.95 34.85 48.8 35.05 45.8 35.25 42.8 37.25 41.7 38.75 40.9 40.85 41.65"/><path fill="#0d131a" d="M42.7 47.7 Q44.25 50.35 46.3 51.05 L46.65 51.35 Q46.75 51.55 46.45 51.6 43.8 52.2 41.7 48.15 39.6 44.15 41.6 42.3 41.85 42.05 42.25 42.55 40.95 44.7 42.7 47.7"/><path fill="#0d131a" d="M72.9 20.3 L70.15 20.35 Q68.9 21.25 68.7 23.5 68.45 26.3 70.3 29.3 72.3 32.5 74.3 33.4 L76.9 33.45 Q78.65 32.65 78.6 29.75 78.5 27.3 77.4 25.0 76.2 22.45 74.2 21.0 L72.9 20.3 M69.35 19.45 Q70.8 18.65 72.95 19.4 L73.0 19.4 Q76.05 20.4 78.3 24.5 80.0 27.7 79.8 30.7 79.6 33.65 77.6 34.75 75.6 35.85 73.0 34.35 70.4 32.9 68.7 29.7 67.0 26.5 67.15 23.5 67.35 20.5 69.35 19.45"/><path fill="#0d131a" d="M78.6 29.3 Q75.9 29.95 73.8 25.9 71.7 21.85 73.7 20.05 73.9 19.9 74.2 20.05 74.45 20.15 74.35 20.3 73.05 22.45 74.8 25.4 76.4 28.05 78.45 28.8 78.7 28.9 78.75 29.05 L78.6 29.3"/><path fill="#515457" d="M163.95 130.1 Q160.4 129.65 157.3 132.2 155.65 133.55 157.0 129.25 L159.15 123.4 Q159.85 121.75 161.85 120.7 163.4 119.9 164.7 119.85 165.8 119.8 167.25 120.5 168.9 121.3 169.65 122.45 170.2 123.25 169.55 128.6 168.95 134.0 168.55 133.2 167.35 130.55 163.95 130.1"/><path fill="#ffffff" d="M138.6 8.8 Q138.0 10.5 135.5 12.1 133.05 13.6 132.1 13.0 131.2 12.45 131.35 10.0 131.45 7.6 132.25 6.6 133.8 4.6 136.55 5.7 139.3 6.8 138.6 8.8"/><path fill="#0d131a" d="M114.35 163.75 Q116.35 163.3 113.65 165.0 107.7 168.7 107.2 173.5 106.8 177.65 110.4 181.6 109.2 183.8 109.9 187.0 110.65 190.4 112.95 190.85 116.6 191.6 119.5 188.5 122.4 185.45 122.0 181.35 121.9 180.2 120.0 178.2 112.2 176.45 115.4 169.85 118.4 163.7 124.9 161.7 L125.9 161.6 Q126.4 161.7 125.65 162.2 116.9 168.0 116.5 172.6 116.2 176.55 120.8 176.85 123.55 178.15 123.75 181.75 124.0 186.3 120.55 189.75 117.0 193.35 112.65 192.35 109.75 191.65 108.6 188.6 107.5 185.6 108.7 182.15 105.45 178.9 105.3 174.45 105.15 169.25 110.05 165.75 112.3 164.15 114.35 163.75"/><path fill="#0d131a" d="M170.1 124.6 Q169.4 122.7 167.7 121.5 165.85 120.2 163.9 120.55 158.85 121.55 157.4 132.55 157.3 133.35 157.1 131.05 156.85 128.75 156.9 127.4 156.95 125.1 158.75 122.45 160.95 119.2 164.3 118.8 167.75 118.4 170.65 121.75 171.55 122.75 171.0 124.1 170.45 125.5 170.1 124.6"/><path fill="#0d131a" d="M169.0 136.15 Q166.85 130.85 162.4 130.85 157.45 130.85 153.65 138.6 153.25 139.5 152.6 139.25 152.0 139.05 152.3 138.15 153.55 134.4 156.6 131.65 159.65 128.85 162.55 128.85 165.75 128.85 168.35 131.75 170.4 134.05 170.85 136.15 171.2 138.0 170.7 138.5 170.15 139.0 169.0 136.15"/><path fill="#0d131a" d="M131.6 118.5 Q130.95 118.75 130.5 118.5 130.05 118.3 129.7 117.3 L125.85 103.2 113.35 111.55 121.45 135.9 128.4 132.9 Q135.55 129.95 136.25 130.1 138.05 130.5 141.85 140.2 L142.0 136.1 Q142.0 130.55 141.35 124.15 140.7 117.8 139.95 115.45 L131.6 118.5 M125.3 101.85 L126.05 101.55 Q126.8 101.55 127.0 102.3 L131.25 116.7 139.55 114.05 140.8 113.95 Q142.35 114.15 143.35 127.6 144.4 141.5 142.05 145.0 138.05 134.65 136.0 131.75 L135.95 131.8 122.15 137.5 120.8 137.6 Q120.15 137.5 119.95 136.8 L111.75 112.35 111.6 111.7 111.7 111.2 Q111.9 110.65 112.3 110.4 L125.3 101.85"/><path fill="#515457" d="M127.55 44.25 L118.45 31.65 Q120.2 32.75 126.0 32.25 133.5 31.55 138.85 27.35 144.35 23.05 145.9 17.85 147.1 13.9 145.85 11.15 148.55 13.85 154.6 21.95 154.8 24.35 153.9 27.65 152.0 34.25 146.3 38.85 140.4 43.6 134.8 44.5 L127.55 44.25"/><path fill="#515457" d="M162.8 43.75 Q161.1 49.65 155.9 53.65 148.35 59.55 140.95 57.95 L134.65 51.3 Q136.5 51.9 142.25 50.6 149.5 49.0 152.95 45.2 156.85 40.95 158.3 37.4 159.65 34.1 159.45 29.9 161.3 33.25 163.45 38.6 L162.8 43.75"/><path fill="#0d131a" d="M167.8 60.35 Q168.3 54.4 165.85 46.6 162.0 34.45 153.75 22.0 145.6 9.8 138.15 4.75 135.25 2.75 132.0 2.15 127.35 1.2 122.75 3.25 118.1 5.3 115.55 10.2 112.3 16.4 114.95 23.85 117.6 31.5 132.95 48.5 147.35 64.45 153.25 67.8 154.05 68.25 150.3 71.45 145.9 75.0 145.0 75.85 L144.15 73.7 Q148.8 70.0 149.65 68.9 150.45 67.95 149.85 67.65 143.7 64.2 130.15 48.45 115.9 31.85 112.95 23.4 110.4 16.15 113.45 9.8 116.1 4.1 121.6 1.7 126.15 -0.2 130.25 0.05 135.0 0.35 139.55 3.6 148.25 9.8 155.8 21.5 163.15 32.85 167.45 46.4 170.05 54.7 169.3 61.3 168.3 70.2 160.95 71.65 157.6 72.3 149.85 81.95 L148.7 80.0 Q151.75 76.2 155.1 73.25 158.5 70.3 160.25 69.95 167.0 68.6 167.8 60.35"/><path fill="#0d131a" d="M121.5 10.2 Q118.0 8.85 117.35 6.5 116.55 3.7 118.95 1.8 121.2 0.0 123.5 0.9 125.9 1.85 126.7 5.7 127.5 9.4 126.3 10.35 L121.5 10.2"/><path fill="#ffffff" d="M121.85 8.8 Q119.25 7.75 118.7 6.3 117.95 4.3 119.8 2.9 121.55 1.55 123.2 2.2 124.75 2.85 125.45 5.7 126.1 8.5 125.25 9.15 124.4 9.8 121.85 8.8"/><path fill="#0d131a" d="M153.7 20.4 L155.05 21.95 Q156.6 30.15 148.6 38.15 144.45 42.3 139.3 44.15 133.95 46.1 128.7 45.05 L127.45 43.6 Q132.45 44.6 137.7 42.75 142.9 40.95 147.2 36.65 150.95 32.9 152.7 28.55 154.45 24.2 153.7 20.4"/><path fill="#0d131a" d="M144.35 9.6 L145.95 10.35 Q147.9 12.95 146.9 17.2 145.9 21.4 142.6 25.05 138.85 29.2 133.85 31.45 126.9 34.65 119.55 32.9 L118.15 30.75 Q124.1 32.65 130.4 30.75 136.55 28.95 140.85 24.15 144.1 20.6 145.25 16.95 146.55 12.6 144.35 9.6"/><path fill="#0d131a" d="M158.8 29.0 L160.1 30.5 Q160.45 34.85 158.95 38.45 157.5 41.85 154.05 45.25 146.2 52.95 135.5 51.85 L134.35 50.6 Q139.4 51.15 144.35 49.4 149.3 47.65 152.95 44.05 156.15 40.9 157.65 37.05 159.15 33.15 158.8 29.0"/><path fill="#0d131a" d="M162.5 37.2 L163.85 38.55 Q164.5 42.15 163.25 45.4 162.05 48.5 158.95 51.8 151.5 59.8 141.65 58.75 L140.5 57.45 Q145.15 57.9 149.8 56.05 154.5 54.25 157.85 50.6 160.65 47.6 161.9 44.1 163.1 40.6 162.5 37.2"/><path fill="#515457" d="M63.2 142.25 Q66.45 143.8 70.15 143.75 76.9 143.7 88.15 139.45 99.1 135.35 104.75 132.75 L109.2 130.4 Q110.3 130.8 112.35 133.8 114.35 136.65 114.25 137.35 88.0 152.8 71.5 150.4 69.75 149.3 66.3 145.65 L63.2 142.25"/><path fill="#515457" d="M76.1 154.9 Q78.85 156.45 85.5 156.05 95.35 155.5 106.95 150.1 117.45 144.8 118.05 144.7 119.3 144.4 120.05 145.1 L121.7 147.7 Q124.1 150.35 123.8 151.15 123.55 151.8 120.25 153.55 114.75 156.45 108.55 158.6 98.2 162.2 90.95 161.75 85.5 160.05 80.1 157.25 L76.1 154.9"/><path fill="#515457" d="M153.05 98.9 Q154.7 96.0 155.6 92.35 L158.6 104.1 Q156.15 109.45 151.5 113.7 147.9 117.05 145.75 117.65 144.05 114.95 143.1 112.5 142.15 109.9 142.65 109.1 149.95 104.25 153.05 98.9"/><path fill="#515457" d="M159.6 109.95 L159.6 120.6 Q158.55 123.7 156.15 127.75 153.5 132.15 151.7 133.25 151.1 132.35 149.9 128.9 L148.65 124.8 Q152.25 122.85 155.8 117.2 158.0 113.7 159.6 109.95"/><path fill="#0d131a" d="M154.7 91.7 L155.8 93.55 Q155.1 98.1 151.1 102.9 147.6 107.05 142.9 110.05 L146.0 117.05 Q149.8 114.4 153.0 110.8 157.35 105.95 158.1 101.7 L158.6 104.1 Q158.0 107.4 154.0 111.95 150.3 116.2 146.2 118.75 L145.45 118.85 Q145.05 118.7 144.85 118.35 L141.35 110.5 Q141.05 109.65 141.85 109.05 147.3 104.65 149.8 101.9 154.8 96.35 154.7 91.7"/><path fill="#0d131a" d="M155.1 117.2 Q158.6 112.35 159.05 109.45 L159.3 111.85 Q158.85 115.0 155.35 119.35 152.6 122.75 149.25 125.5 L151.8 132.2 Q153.85 130.2 156.2 126.2 158.5 122.25 159.15 119.7 L159.3 121.8 Q158.7 124.3 156.25 128.35 153.9 132.25 152.25 133.65 L151.5 133.85 150.9 133.45 148.1 126.2 147.95 125.6 Q147.85 125.0 148.2 124.7 151.8 121.75 155.1 117.2"/><path fill="#0d131a" d="M74.3 154.45 Q73.95 154.1 74.45 153.55 74.9 152.95 75.3 153.25 82.0 158.45 100.9 151.5 110.35 148.05 118.45 143.5 119.1 143.2 119.7 143.65 L120.5 144.5 124.05 149.55 Q124.8 150.5 124.65 151.3 124.55 151.95 123.9 152.35 114.4 157.95 105.25 160.55 96.6 163.0 89.75 162.4 89.0 162.35 89.05 161.65 89.1 160.9 89.85 160.85 97.8 160.75 105.3 158.7 114.15 156.3 123.1 151.05 L119.0 145.2 Q108.8 150.65 99.5 154.0 81.4 160.45 74.3 154.45"/><path fill="#0d131a" d="M63.4 143.1 Q63.15 142.9 63.0 142.15 62.85 141.4 63.1 141.6 67.25 145.05 83.75 140.15 98.3 135.85 109.3 129.55 L110.3 129.4 Q110.75 129.5 111.0 129.9 L114.9 136.15 Q115.35 136.7 115.2 137.45 115.05 138.25 114.4 138.55 102.7 144.8 92.65 148.25 78.65 153.1 71.65 150.95 L71.05 150.1 Q70.7 149.35 71.0 149.4 77.7 151.35 92.0 146.5 102.65 142.9 113.3 137.2 L109.5 131.45 Q98.95 137.45 85.0 141.7 68.3 146.75 63.4 143.1"/><path fill="#0d131a" d="M105.5 52.4 Q104.7 52.25 104.55 51.35 104.45 50.45 105.25 50.6 119.6 53.1 132.0 61.9 144.9 71.1 152.7 85.05 165.15 107.25 157.7 129.7 154.35 139.8 147.3 147.8 140.2 155.8 130.6 160.25 109.05 170.15 87.6 162.05 65.8 153.85 55.3 131.0 49.45 118.35 48.95 105.3 48.45 92.7 53.0 81.35 53.35 80.4 54.15 80.8 54.5 80.95 54.35 81.45 L53.95 82.6 Q49.8 93.05 50.65 105.35 51.5 117.45 57.15 129.7 67.15 151.4 88.15 159.75 109.0 168.0 129.25 158.7 149.55 149.35 156.0 128.4 162.6 107.15 150.95 86.35 143.5 73.0 131.3 64.0 119.3 55.15 105.5 52.4"/><path fill="#ffe100" d="M17.6 86.6 Q20.45 86.15 24.95 87.65 30.55 89.55 32.45 93.25 52.25 133.2 53.2 134.6 54.35 136.25 57.55 136.1 60.15 135.95 62.1 135.0 64.55 133.85 66.7 130.9 68.65 128.3 68.9 126.65 69.1 125.25 72.15 127.0 75.25 128.8 75.85 130.9 76.5 133.2 76.0 136.45 75.5 139.9 74.2 139.9 71.95 139.9 68.75 140.9 64.45 142.25 62.7 144.55 61.3 146.5 60.0 149.35 L58.3 152.5 Q56.0 154.85 51.7 155.8 46.5 156.9 40.35 155.3 35.8 154.1 29.5 150.35 22.4 146.05 16.45 140.25 0.75 125.1 0.6 108.0 0.55 100.2 5.9 93.75 11.05 87.55 17.6 86.6"/><path fill="#0d131a" d="M5.8 112.95 Q2.1 113.0 1.15 109.2 0.15 105.35 3.5 103.25 5.7 101.85 9.1 103.2 12.45 104.5 13.0 106.65 13.45 108.4 11.0 110.65 8.45 112.9 5.8 112.95"/><path fill="#ffffff" d="M5.75 111.35 Q3.15 111.45 2.55 108.85 1.95 106.2 4.55 104.6 6.15 103.6 8.65 104.6 10.9 105.55 11.4 106.8 11.85 108.0 9.65 109.7 7.55 111.25 5.75 111.35"/><path fill="#515457" d="M35.75 109.1 Q36.5 107.25 36.5 101.35 L39.85 108.4 Q41.7 112.25 42.0 113.45 41.75 117.9 39.35 121.55 36.0 126.55 28.4 130.3 21.95 133.55 15.5 132.6 11.85 132.05 9.25 130.45 8.4 129.3 5.3 122.95 L2.35 116.85 Q5.7 119.85 10.95 121.0 19.1 122.75 27.05 117.85 34.05 113.05 35.75 109.1"/><path fill="#515457" d="M43.25 125.4 Q45.25 121.4 44.85 118.55 45.5 119.5 48.8 126.65 48.5 129.8 47.95 131.6 46.4 136.45 42.6 140.05 37.35 144.5 30.2 145.45 24.2 146.3 22.3 144.7 L17.5 140.2 Q14.1 136.9 14.55 137.0 27.45 141.4 37.35 132.95 41.15 129.65 43.25 125.4"/><path fill="#0d131a" d="M41.1 113.4 Q41.2 112.3 41.9 112.5 42.65 112.7 42.55 113.85 42.05 120.1 37.8 124.85 33.65 129.55 26.65 131.85 20.95 133.7 15.75 133.35 10.6 132.95 8.5 130.5 7.8 129.7 8.3 129.25 8.8 128.85 9.5 129.65 11.05 131.4 15.8 131.6 20.85 131.8 26.25 130.0 32.3 128.05 36.45 123.45 40.65 118.8 41.1 113.4"/><path fill="#0d131a" d="M35.35 100.2 Q35.05 99.55 35.5 99.35 35.95 99.15 36.3 99.8 38.8 104.85 35.7 110.5 32.85 115.7 26.6 119.15 20.45 122.55 14.05 122.45 6.95 122.35 1.95 117.75 1.55 117.4 1.7 116.6 1.85 115.85 2.25 116.2 6.95 120.3 13.8 120.5 20.1 120.7 25.95 117.65 31.65 114.6 34.45 109.8 37.4 104.7 35.35 100.2"/><path fill="#0d131a" d="M48.0 126.6 Q47.95 125.8 48.6 125.75 49.3 125.7 49.35 126.5 49.7 131.6 46.85 136.2 43.85 141.0 38.1 143.9 33.2 146.35 29.1 146.7 24.75 147.05 21.8 144.95 20.75 144.2 21.15 143.8 21.5 143.35 22.65 143.95 25.2 145.2 28.9 144.95 32.95 144.65 37.0 142.6 42.5 139.85 45.45 135.5 48.35 131.2 48.0 126.6"/><path fill="#0d131a" d="M44.2 118.7 Q44.15 117.85 44.85 117.8 45.5 117.75 45.55 118.6 45.75 122.95 43.35 127.35 40.85 131.95 36.35 135.0 31.0 138.65 24.8 139.35 18.45 140.05 14.0 137.2 13.05 136.65 13.3 136.1 L14.55 136.0 Q19.3 138.15 24.85 137.5 30.35 136.8 35.35 133.4 39.65 130.5 42.0 126.5 44.4 122.55 44.2 118.7"/><path fill="#0d131a" d="M4.25 97.65 Q0.4 105.3 2.35 113.85 5.85 128.9 20.85 142.1 34.4 154.1 45.05 155.05 51.55 155.65 55.35 153.35 58.75 151.35 59.8 147.3 60.6 144.1 64.3 141.8 67.45 139.8 71.1 139.3 L72.95 139.4 Q73.95 139.65 73.9 140.15 73.85 140.8 72.6 140.7 69.25 140.55 65.95 142.7 62.4 145.05 61.75 148.3 60.95 152.2 57.15 154.7 52.6 157.65 45.65 157.0 33.55 155.9 19.55 143.95 3.7 130.45 0.5 113.85 -1.3 104.45 3.1 96.25 7.25 88.45 14.1 86.45 19.8 84.75 25.7 87.05 32.15 89.5 34.6 95.3 37.65 102.5 45.1 117.45 52.15 131.55 53.5 133.55 56.0 137.1 60.8 135.0 65.6 132.9 67.35 127.35 67.85 125.65 68.4 125.75 69.25 125.85 69.4 126.9 69.55 128.0 68.75 129.4 65.8 134.7 60.9 136.55 55.95 138.35 52.5 135.3 51.15 134.05 43.9 119.15 37.05 105.1 33.75 97.3 31.45 91.9 25.95 89.2 20.6 86.55 15.6 87.9 8.2 89.9 4.25 97.65"/><path fill="#0d131a" d="M12.9 89.05 Q14.55 89.75 16.15 93.25 17.8 96.75 16.8 97.9 15.8 99.1 12.25 98.7 8.85 98.35 7.35 97.1 4.55 94.8 6.9 91.2 9.3 87.55 12.9 89.05"/><path fill="#ffffff" d="M12.2 90.65 Q13.45 91.25 14.85 93.7 16.3 96.25 15.7 96.9 14.9 97.75 12.3 97.3 9.95 96.85 8.6 96.0 6.75 94.85 8.2 92.15 9.65 89.45 12.2 90.65"/><path fill="#0d131a" d="M30.65 90.7 Q30.6 93.3 28.6 96.3 26.6 99.35 24.85 99.15 23.55 99.05 22.1 95.5 20.65 92.0 21.15 90.1 22.15 86.25 26.45 87.15 30.7 88.05 30.65 90.7"/><path fill="#ffffff" d="M29.2 90.65 Q29.15 92.6 27.8 95.05 26.4 97.5 25.35 97.4 24.3 97.3 23.3 94.65 22.3 91.9 22.85 90.05 23.6 87.5 26.45 88.15 29.25 88.75 29.2 90.65"/><path fill="#ffe100" d="M189.35 108.9 Q194.65 110.45 196.6 116.9 198.55 123.3 196.05 130.6 193.45 138.15 187.55 143.5 181.4 149.05 176.7 147.35 172.15 145.65 170.4 137.55 168.8 130.15 170.4 123.5 172.1 116.6 177.05 112.15 182.75 107.0 189.35 108.9"/><path fill="#dcc200" d="M177.7 146.95 Q175.45 143.25 175.45 137.25 175.4 131.35 177.55 125.7 182.65 111.95 193.45 112.25 197.4 117.75 197.25 122.9 197.15 125.5 194.9 132.35 193.1 137.95 188.0 142.75 182.4 148.05 177.7 146.95"/><path fill="#0d131a" d="M195.3 117.7 Q193.55 111.25 187.9 109.85 183.1 108.6 178.7 111.9 174.35 115.15 171.95 121.6 169.75 127.55 170.85 135.25 172.05 143.75 176.75 145.7 181.4 147.65 186.5 143.25 191.7 138.8 194.6 130.25 196.9 123.55 195.3 117.7 M188.85 107.4 Q195.5 109.55 197.45 116.55 199.25 122.95 196.5 131.05 193.45 140.25 187.25 145.0 181.45 149.4 176.2 147.65 171.05 145.9 169.2 137.3 167.3 128.55 170.35 119.65 172.7 112.85 177.9 109.3 183.3 105.6 188.85 107.4"/><path fill="#0d131a" d="M45.75 34.95 Q47.0 35.55 54.4 47.65 61.1 58.55 65.4 66.5 66.45 68.35 66.0 68.5 65.55 68.65 64.75 67.25 L53.3 48.5 Q45.95 36.75 45.0 36.15 43.45 35.35 30.05 39.25 L28.85 39.35 Q28.7 39.1 29.85 38.6 32.5 37.45 38.15 36.0 44.55 34.35 45.75 34.95"/><path fill="#0d131a" d="M84.9 23.9 Q91.15 35.35 96.5 46.25 98.3 49.9 97.95 50.25 97.6 50.55 95.7 47.0 L84.9 26.9 Q77.9 13.95 77.0 13.05 76.15 12.65 70.95 13.85 65.65 15.05 62.3 16.4 L60.65 16.65 Q60.5 16.3 62.0 15.65 66.15 13.85 71.1 12.55 76.9 11.1 77.9 12.1 79.0 13.2 84.9 23.9"/></g></svg>