<?xml version='1.0' encoding='utf-8'?>
<svg xmlns="http://www.w3.org/2000/svg" version="1.1" width="387px" height="341px" viewBox="-2.45 -1.8 387.35 341.25"><g><path fill="#f6c8d6" d="M268.55 283.05 Q285.15 290.65 293.9 296.45 307.25 305.4 304.9 311.5 302.45 317.95 282.45 316.5 263.75 315.1 254.45 309.9 249.65 307.25 248.85 303.9 247.7 299.1 249.75 293.3 251.8 287.55 255.85 284.2 258.35 282.15 260.9 281.7 264.3 281.1 268.55 283.05"/><path fill="#f6c8d6" d="M159.75 299.15 Q166.3 293.8 174.6 297.65 180.1 300.2 184.35 305.9 188.55 311.6 188.65 316.6 188.7 318.3 191.9 318.1 L193.6 318.0 Q194.1 317.95 193.35 318.35 171.95 329.2 154.95 333.6 135.85 338.55 131.25 332.6 127.6 327.85 135.85 319.1 140.55 314.1 159.9 298.35 L159.75 299.15"/><path fill="#d5adba" d="M249.75 293.3 Q251.8 287.55 255.85 284.2 262.0 279.15 269.5 282.6 277.25 286.1 293.1 295.65 290.3 295.55 286.7 297.2 283.05 298.9 280.4 301.7 273.7 308.6 278.5 315.35 L266.85 312.8 254.45 309.9 Q250.05 308.95 248.85 303.9 247.7 299.1 249.75 293.3"/><path fill="#d5adba" d="M161.85 331.35 Q161.8 324.1 152.6 321.0 143.95 318.0 135.1 320.8 139.2 315.55 147.1 309.1 L159.75 299.15 Q166.3 293.8 174.6 297.65 180.1 300.2 184.35 305.9 188.55 311.6 188.65 316.6 L188.85 319.0 Q188.75 319.35 187.25 320.1 L174.25 326.1 161.85 331.35"/><path fill="#0d131a" d="M270.6 289.8 Q265.2 288.9 256.6 294.05 247.75 299.35 248.85 303.9 249.3 305.75 249.95 306.35 250.8 307.1 253.4 307.65 266.9 313.55 284.35 314.65 301.6 315.65 303.45 310.95 305.3 306.3 295.2 299.35 284.55 292.05 270.6 289.8 M255.65 291.9 Q265.45 283.85 270.2 285.1 290.25 290.55 299.8 299.05 307.7 306.05 306.05 312.1 304.25 318.7 285.6 317.95 268.05 317.2 249.55 310.95 247.4 310.25 247.3 309.2 247.45 307.35 246.95 305.3 245.75 300.1 255.65 291.9"/><path fill="#0d131a" d="M139.55 317.45 Q129.6 327.2 132.35 332.1 134.75 336.35 150.15 333.15 166.4 329.8 185.0 320.3 L187.75 319.1 Q188.7 318.45 188.65 316.6 188.55 311.6 184.35 305.9 180.1 300.2 174.6 297.65 171.85 296.4 169.6 296.95 167.75 297.45 162.95 300.25 148.45 308.8 139.55 317.45 M150.85 336.2 Q133.7 339.45 130.15 334.2 126.75 329.2 132.55 320.85 139.5 310.8 158.45 298.15 162.85 295.2 166.65 294.5 171.2 293.6 175.55 295.6 181.5 298.4 189.25 308.15 196.85 317.85 194.55 319.15 170.45 332.5 150.85 336.2"/><path fill="#0d131a" d="M164.0 28.25 Q163.95 17.0 172.15 12.6 180.15 8.25 189.6 13.75 194.45 16.6 196.8 21.45 199.25 26.5 198.1 32.1 196.6 39.35 190.65 43.2 184.9 47.05 177.4 45.5 170.35 43.95 166.45 38.05 164.1 34.4 164.0 28.25"/><path fill="#f6c8d6" d="M178.05 42.7 Q172.15 41.45 168.8 36.4 165.5 31.35 166.75 25.4 168.1 19.5 173.1 16.2 178.2 12.9 184.05 14.15 190.0 15.4 193.3 20.45 196.6 25.55 195.3 31.45 194.05 37.3 189.0 40.65 183.9 43.95 178.05 42.7"/><path fill="#f6c8d6" d="M261.4 26.05 Q267.15 38.0 264.25 51.6 260.55 69.05 244.8 80.35 228.75 91.75 211.85 88.2 203.6 86.45 196.75 81.7 189.85 77.0 185.25 69.9 180.5 62.6 178.65 53.75 176.8 44.6 178.55 36.35 180.35 27.7 185.0 20.45 189.85 12.85 196.85 8.25 208.0 1.0 221.45 1.3 234.15 1.55 245.05 8.25 256.15 15.05 261.4 26.05"/><path fill="#d5adba" d="M253.65 15.15 Q261.35 20.25 264.1 30.75 266.6 40.45 264.25 51.6 260.55 69.05 244.8 80.35 228.75 91.75 211.85 88.2 209.4 87.7 208.3 87.1 205.05 85.45 198.25 82.7 204.55 80.45 214.3 73.5 224.95 65.95 233.95 56.75 257.4 32.8 253.65 15.15"/><path fill="#0d131a" d="M257.9 17.3 Q266.7 27.55 266.3 39.4 L264.65 38.75 263.05 37.9 Q263.75 28.75 255.65 19.45 246.95 9.45 232.65 5.05 222.05 1.8 210.45 4.25 196.6 7.15 188.6 17.5 183.5 24.1 183.8 21.8 184.1 19.6 187.6 14.45 193.85 5.3 206.7 1.7 219.25 -1.8 231.55 1.6 248.4 6.25 257.9 17.3"/><path fill="#f6c8d6" d="M326.75 109.4 Q323.75 116.65 319.15 124.15 315.25 130.45 312.75 133.1 L288.25 106.75 Q293.45 103.65 299.85 97.9 L309.9 88.5 Q315.25 83.65 318.7 82.1 323.15 80.1 326.7 82.1 335.2 89.0 326.75 109.4"/><path fill="#d5adba" d="M329.9 89.15 Q331.8 96.25 328.55 106.25 324.75 117.8 315.3 127.8 L311.0 128.15 Q306.3 128.1 304.6 126.25 314.25 118.05 320.45 108.95 326.75 99.8 329.9 89.15"/><path fill="#0d131a" d="M328.95 89.7 Q328.4 83.85 325.2 82.4 321.5 80.75 309.7 90.95 294.85 103.85 288.25 106.75 L298.45 119.05 309.2 131.95 Q322.25 121.25 327.35 103.05 329.45 95.4 328.95 89.7 M327.7 81.1 Q331.05 83.45 331.65 89.85 332.3 96.15 330.05 104.3 324.8 123.6 310.05 136.5 L284.0 104.35 Q290.05 102.3 297.25 97.05 L308.95 87.65 Q315.45 82.4 319.1 80.8 324.15 78.65 327.7 81.1"/><path fill="#f6c8d6" d="M294.05 92.0 Q314.05 115.85 322.2 140.95 330.75 167.25 329.85 193.45 328.95 219.7 318.75 242.7 308.2 266.35 288.9 283.95 268.6 302.45 240.3 312.55 218.85 320.2 194.0 320.3 167.65 320.4 143.7 311.9 117.45 302.55 98.2 284.1 76.85 263.65 66.2 233.75 55.9 204.85 56.7 172.3 57.5 141.2 68.2 112.3 78.85 83.45 97.2 62.75 116.4 41.15 140.45 32.55 164.9 23.85 194.3 29.8 221.55 35.3 248.45 52.25 274.5 68.75 294.05 92.0"/><path fill="#ffffff" d="M294.95 192.95 Q323.65 171.3 323.75 145.6 331.7 169.25 330.4 194.45 329.15 219.65 318.85 242.35 308.2 265.9 289.4 283.35 269.45 301.95 242.55 311.5 218.85 319.95 192.95 320.0 165.6 320.1 141.2 310.75 114.7 300.55 95.45 280.5 74.25 258.4 63.65 226.1 94.85 237.85 140.2 237.2 183.7 236.5 225.55 224.8 268.85 212.7 294.95 192.95"/><path fill="#d5adba" d="M58.3 140.95 L66.4 124.2 85.85 120.95 115.0 122.3 126.9 137.7 Q114.25 140.15 100.7 137.55 93.75 136.2 91.3 136.0 86.2 135.6 81.35 136.95 78.0 137.9 72.2 143.05 65.0 149.5 58.55 153.1 L58.3 140.95"/><path fill="#dbdcdc" d="M128.45 280.9 Q163.8 294.7 206.0 292.5 245.55 290.5 277.6 275.5 309.65 260.6 321.15 238.75 308.4 264.7 290.25 282.2 270.1 301.7 242.55 311.5 220.1 319.5 195.7 320.25 169.25 321.05 145.65 313.0 119.55 304.1 100.15 285.3 78.55 264.4 66.7 232.65 88.75 265.4 128.45 280.9"/><path fill="#0d131a" d="M328.35 194.65 Q330.4 195.8 332.1 197.05 329.45 236.8 305.35 268.25 281.25 299.65 243.4 312.85 217.55 321.9 189.35 321.4 159.35 320.85 133.6 309.45 105.3 296.9 86.35 272.95 65.35 246.3 57.85 207.75 53.7 186.6 55.8 160.8 58.05 132.85 67.05 107.9 77.2 79.85 94.25 60.55 113.5 38.75 139.95 30.25 160.0 23.85 183.2 26.1 202.75 27.95 218.2 35.0 227.25 39.15 228.8 41.2 230.4 43.25 219.0 38.45 202.25 31.4 184.7 29.4 161.8 26.75 141.55 33.4 119.7 40.6 101.9 59.45 85.35 77.0 74.45 102.35 64.0 126.8 60.65 154.05 57.25 181.5 61.8 206.25 69.15 246.15 90.8 272.85 109.8 296.25 138.55 308.0 163.7 318.25 192.75 318.35 218.85 318.4 241.1 310.5 280.35 296.55 303.8 264.65 326.5 233.75 328.35 194.65"/><path fill="#ffffff" d="M116.65 239.75 Q159.05 243.65 208.1 236.25 L205.7 244.65 Q202.6 254.75 198.95 263.0 187.25 289.45 174.45 287.9 172.3 287.65 170.65 281.7 168.8 275.05 170.35 268.1 L166.2 274.45 Q161.05 282.05 156.05 288.2 139.9 307.85 130.95 305.85 126.0 304.75 128.5 287.65 130.7 272.65 134.4 264.9 L129.0 271.45 Q122.35 279.3 116.05 285.55 96.05 305.6 87.5 302.45 82.55 300.65 87.05 286.0 91.6 271.2 102.05 255.8 88.35 262.95 73.9 268.05 45.0 278.25 41.3 267.85 38.9 261.0 58.5 248.15 74.1 237.9 84.1 234.4 L92.45 236.35 Q103.4 238.55 116.65 239.75"/><path fill="#ffffff" d="M325.2 155.15 L325.65 151.15 Q352.9 158.55 369.25 169.55 383.85 179.35 381.3 185.35 379.4 189.85 366.6 188.75 L354.15 186.75 Q357.6 189.35 360.45 194.3 363.55 199.7 361.65 201.45 354.0 208.45 332.1 197.15 325.2 193.6 317.8 188.7 L311.7 184.45 Q319.45 179.15 323.35 164.65 324.55 160.1 325.2 155.15"/><path fill="#dbdcdc" d="M150.6 293.45 Q139.8 304.1 136.3 304.4 134.5 304.55 153.2 280.95 L172.3 257.35 171.35 265.25 Q163.8 280.45 150.6 293.45"/><path fill="#dbdcdc" d="M140.15 251.35 L134.6 263.85 Q116.65 285.75 104.4 295.9 94.15 304.4 90.2 302.95 88.35 302.25 113.1 277.65 132.95 257.9 140.15 251.35"/><path fill="#dbdcdc" d="M192.75 274.8 Q185.25 286.05 180.2 285.45 177.85 285.15 191.75 263.4 L206.15 241.75 Q201.4 261.75 192.75 274.8"/><path fill="#dbdcdc" d="M108.7 247.75 L103.65 254.0 Q85.95 265.4 71.35 269.9 58.65 273.85 50.65 272.0 46.15 270.95 77.0 259.25 92.4 253.4 108.7 247.75"/><path fill="#dbdcdc" d="M333.45 197.9 Q318.85 191.0 314.1 185.85 365.8 200.3 354.9 203.6 349.2 205.35 333.45 197.9"/><path fill="#dbdcdc" d="M342.2 177.9 L361.55 181.55 Q380.35 185.65 377.5 187.75 374.25 190.1 366.5 189.5 359.45 188.95 353.5 186.55 L349.9 182.85 Q345.65 178.95 342.2 177.9"/><path fill="#0d131a" d="M205.8 238.75 Q206.9 235.0 207.95 235.45 209.0 235.85 208.05 239.7 201.5 265.8 191.0 279.25 182.35 290.3 174.5 289.35 168.9 288.65 168.65 275.45 168.45 262.8 172.85 252.25 174.25 248.95 174.95 249.6 175.65 250.3 174.55 254.0 171.8 263.5 171.65 273.2 171.45 284.25 175.3 285.6 181.2 287.65 189.65 275.5 199.0 262.1 205.8 238.75"/><path fill="#0d131a" d="M141.1 246.9 Q142.9 243.25 143.5 244.4 144.1 245.55 142.45 249.25 133.3 269.85 130.15 284.55 126.75 300.4 131.6 304.0 135.8 307.15 148.7 294.1 161.65 280.95 170.6 264.25 170.9 263.7 171.0 265.55 171.15 267.3 170.35 268.6 161.65 286.7 148.05 299.05 142.15 304.4 137.35 306.6 132.45 308.8 130.05 307.05 122.5 301.35 128.25 280.0 132.2 265.05 141.1 246.9"/><path fill="#0d131a" d="M110.7 243.75 Q114.0 240.1 114.1 241.4 114.2 242.7 110.7 246.95 95.4 265.8 89.5 283.4 87.05 290.55 87.05 295.45 87.0 300.15 89.1 301.05 95.85 304.05 114.15 285.5 119.95 279.6 127.15 271.25 L135.0 262.05 Q135.25 261.75 134.95 264.0 134.7 266.3 134.3 266.85 100.35 309.75 87.6 304.2 84.2 302.7 83.85 296.95 83.55 291.25 86.4 282.85 93.05 263.5 110.7 243.75"/><path fill="#0d131a" d="M81.65 234.4 Q85.35 232.8 84.95 233.95 84.6 235.1 80.55 237.15 61.05 247.15 51.45 254.7 40.95 262.95 42.95 267.7 44.45 271.3 52.1 271.2 58.95 271.15 69.3 268.25 91.65 261.9 104.6 251.85 104.95 251.6 103.9 253.6 L102.3 256.05 Q97.35 260.0 88.0 264.35 78.25 268.95 68.6 271.6 44.0 278.4 39.8 268.3 37.15 261.9 50.6 251.8 62.4 242.9 81.65 234.4"/><path fill="#0d131a" d="M359.5 190.3 Q365.65 197.95 362.65 202.2 358.9 207.55 346.75 204.65 332.45 201.3 314.1 187.3 310.75 184.7 311.2 183.95 311.65 183.15 315.1 185.5 332.2 197.4 345.6 201.4 357.8 205.0 360.6 200.6 362.45 197.65 356.45 190.95 351.0 184.8 343.55 180.2 337.1 176.25 337.1 175.05 337.1 173.9 343.55 177.45 353.65 182.95 359.5 190.3"/><path fill="#0d131a" d="M354.7 187.1 Q353.5 186.7 352.65 185.3 351.75 183.9 352.2 184.1 358.0 187.45 368.45 187.65 379.05 187.85 380.05 184.15 381.3 179.45 369.85 171.45 355.45 161.4 328.3 153.35 324.9 152.35 324.15 151.7 323.4 151.0 322.65 148.35 317.3 130.5 307.65 113.95 296.4 94.6 279.3 77.75 L280.15 75.95 280.75 74.0 Q298.2 90.8 309.6 109.8 321.35 129.3 326.4 150.05 352.05 156.4 368.75 167.05 384.9 177.3 382.9 184.95 381.55 190.1 370.4 190.4 359.85 190.65 354.7 187.1"/><path fill="#d5adba" d="M129.95 165.35 Q130.85 171.1 127.6 179.35 124.35 187.55 118.1 195.7 103.5 214.8 85.0 220.0 84.0 219.9 81.15 218.3 L77.5 216.25 Q95.45 207.9 110.85 194.1 128.7 178.15 129.95 165.35"/><path fill="#ffffff" d="M27.2 168.3 Q39.4 168.95 52.2 172.55 66.25 176.55 77.3 183.2 71.95 186.8 70.8 194.0 69.7 200.85 72.75 207.25 76.0 213.95 82.2 216.3 89.25 219.0 98.0 214.75 94.3 228.25 84.3 239.45 75.75 249.0 64.15 255.4 53.95 261.05 45.25 262.3 36.75 263.55 35.2 259.85 33.25 255.4 35.9 249.85 39.6 242.0 52.1 233.0 29.3 237.0 17.7 233.05 9.25 230.15 7.95 223.8 6.4 216.2 19.4 209.05 30.0 203.2 37.85 202.55 23.7 198.05 15.25 193.3 2.35 185.95 1.35 177.55 0.8 172.55 8.25 170.05 15.3 167.65 27.2 168.3"/><path fill="#dbdcdc" d="M91.0 217.75 L98.85 212.55 Q93.1 233.45 70.95 249.9 62.3 256.25 54.0 259.7 46.1 263.0 42.55 262.05 57.75 257.45 71.7 244.65 85.5 231.95 91.0 217.75"/><path fill="#0d131a" d="M0.8 173.3 Q2.95 168.7 12.2 167.1 20.9 165.6 33.35 167.15 45.85 168.7 57.85 172.75 70.7 177.1 79.25 183.15 L78.0 184.15 76.75 185.15 Q71.15 180.05 59.4 175.9 48.55 172.1 36.1 170.3 L14.95 169.6 Q5.55 170.75 4.05 175.0 1.95 180.95 8.9 187.45 17.85 195.8 39.45 201.55 45.15 203.05 44.1 203.9 L36.7 203.5 Q27.25 205.3 18.9 210.45 8.7 216.7 9.35 223.55 10.0 230.4 21.8 232.5 33.3 234.6 52.6 231.7 L60.7 231.35 Q61.25 232.1 53.4 233.9 45.65 237.9 40.05 245.25 33.85 253.4 36.35 258.6 38.05 262.1 45.9 260.6 53.8 259.1 63.45 253.4 74.2 247.05 82.6 237.9 92.35 227.35 96.95 215.1 L99.75 212.9 Q96.2 226.0 86.4 237.6 77.8 247.65 66.15 254.75 55.5 261.25 46.2 263.05 36.95 264.8 33.8 260.9 30.1 256.35 35.25 247.8 40.25 239.45 49.15 234.4 36.5 237.1 24.25 235.8 7.5 233.95 5.9 224.15 4.95 218.15 12.0 212.0 19.5 205.5 32.35 202.3 15.25 197.9 6.1 188.8 -2.45 180.35 0.8 173.3"/><path fill="#0d131a" d="M78.6 184.95 Q73.75 187.4 70.95 187.35 68.1 187.3 77.35 182.6 86.25 178.05 97.15 170.5 L113.15 159.2 Q124.6 151.4 129.45 157.15 133.8 162.35 130.4 173.95 125.45 191.15 112.75 204.2 102.35 214.9 92.5 217.95 89.6 218.85 89.0 218.45 88.3 218.05 91.45 216.4 106.5 208.4 116.5 195.4 124.95 184.35 127.7 172.85 130.0 163.15 127.45 159.25 124.65 154.85 116.65 160.2 L101.15 171.3 Q89.45 179.45 78.6 184.95"/><path fill="#f6c8d6" d="M306.1 195.45 Q308.8 196.65 312.3 199.0 317.8 202.55 320.0 212.55 322.2 222.4 320.2 234.05 318.1 246.55 311.85 256.25 304.8 267.2 293.95 271.95 286.4 275.25 275.9 275.3 264.75 275.35 254.75 271.55 229.7 262.1 226.8 236.05 226.2 230.4 232.95 224.0 237.15 220.1 246.05 214.55 258.9 206.65 270.4 201.35 285.0 194.7 294.95 193.5 300.25 192.85 306.1 195.45"/><path fill="#d5adba" d="M254.3 203.45 Q250.85 219.35 254.15 233.4 257.05 245.9 264.85 255.25 272.0 263.85 281.3 267.7 290.5 271.5 298.5 269.4 288.95 274.9 277.15 275.55 265.4 276.2 254.75 271.9 243.5 267.4 236.35 258.55 228.5 248.85 227.0 235.5 226.2 228.2 237.85 216.7 246.05 208.65 254.3 203.45"/><path fill="#ffffff" d="M268.1 170.9 Q277.35 172.65 286.4 178.0 295.3 183.3 301.05 190.3 307.05 197.7 307.55 204.7 307.9 210.2 302.8 217.65 297.2 225.85 288.25 231.0 274.25 239.1 260.7 241.7 243.85 244.95 233.85 237.85 224.75 216.55 229.5 197.55 234.25 178.6 250.45 172.1 258.05 169.05 268.1 170.9"/><path fill="#dbdcdc" d="M267.05 240.75 Q253.8 243.75 244.4 242.2 238.15 241.15 233.9 238.1 230.0 228.95 228.95 218.3 227.75 206.3 230.65 196.35 231.45 208.95 241.25 221.25 251.45 234.1 267.05 240.75"/><path fill="#0d131a" d="M304.45 195.75 L303.8 194.45 302.85 193.45 Q305.6 193.7 309.3 195.45 313.05 197.25 314.65 199.2 319.9 205.7 321.6 216.2 323.35 226.7 321.0 237.75 318.45 249.5 311.95 258.55 304.7 268.55 293.7 273.35 284.8 277.25 273.55 276.95 262.2 276.65 251.95 272.1 240.95 267.25 234.0 258.65 226.35 249.15 224.9 236.4 224.6 233.85 226.15 230.3 227.5 227.2 229.95 224.0 L230.1 226.05 230.4 228.1 Q228.0 231.9 228.45 235.75 229.8 247.5 236.85 256.45 243.3 264.55 253.45 269.2 263.05 273.6 273.65 273.95 284.2 274.35 292.7 270.65 302.25 266.5 308.8 257.55 314.8 249.3 317.3 238.55 319.7 228.25 318.3 218.3 316.85 208.2 311.8 201.4 310.6 199.75 308.55 198.35 L304.45 195.75"/><path fill="#0d131a" d="M280.85 176.65 Q263.85 168.7 250.85 173.9 232.95 181.05 230.3 205.45 229.25 214.75 230.85 224.2 232.3 232.8 235.05 237.35 242.3 242.05 254.9 240.9 266.65 239.8 278.85 234.15 291.25 228.4 298.75 220.45 306.95 211.7 306.35 203.15 L306.15 201.9 Q298.75 185.0 280.85 176.65 M248.95 170.6 Q263.2 164.85 280.8 173.15 298.8 181.6 307.3 198.95 308.8 202.15 308.95 205.45 309.15 213.95 301.6 222.55 294.6 230.5 283.05 236.35 266.75 244.55 250.3 244.1 235.1 243.7 230.75 236.9 229.9 235.55 230.7 235.45 L231.7 235.65 Q224.05 214.3 229.05 195.5 234.0 176.6 248.95 170.6"/><path fill="#0d131a" d="M195.55 53.3 Q198.25 51.25 203.3 58.75 206.15 63.05 206.95 65.7 207.65 68.3 206.4 68.9 203.8 70.15 198.75 62.65 193.5 54.95 195.55 53.3"/><path fill="#922f00" d="M193.8 94.05 Q192.65 92.65 191.6 89.9 L190.05 85.9 Q203.45 81.8 209.7 78.55 211.0 82.3 211.2 88.1 L211.15 93.15 Q207.1 90.6 202.4 90.95 198.05 91.25 193.8 94.05"/><path fill="#ed8599" d="M193.75 94.45 Q197.15 91.15 202.05 90.7 207.05 90.25 211.4 93.0 210.95 97.15 209.2 99.55 207.55 101.65 205.05 102.15 202.85 102.55 199.05 99.8 195.55 97.25 193.75 94.45"/><path fill="#0d131a" d="M180.95 68.05 Q182.7 71.45 183.4 74.15 184.3 77.5 183.1 78.15 181.7 78.9 179.4 76.75 177.3 74.7 175.35 71.1 173.55 67.7 172.95 64.9 172.3 61.8 173.65 61.05 174.9 60.35 176.7 62.0 178.7 63.75 180.95 68.05"/><path fill="#ffffff" d="M177.35 63.85 Q177.95 64.95 178.05 66.05 178.1 67.2 177.5 67.55 L175.95 67.45 Q174.9 66.85 174.25 65.5 173.8 64.55 173.75 63.6 173.7 62.5 174.2 62.1 L175.7 62.15 Q176.65 62.65 177.35 63.85"/><path fill="#ffffff" d="M199.65 55.6 Q200.4 56.55 200.55 57.7 200.75 58.85 200.15 59.25 L198.6 59.3 Q197.55 58.8 196.75 57.55 196.2 56.6 196.05 55.65 195.85 54.6 196.35 54.15 L197.85 54.05 Q198.85 54.5 199.65 55.6"/><path fill="#0d131a" d="M188.95 86.2 Q189.5 85.75 190.55 85.55 192.75 92.25 197.0 97.0 201.65 102.1 205.55 101.05 210.15 99.85 210.35 91.45 210.5 84.95 208.55 79.15 209.3 78.55 210.15 78.7 213.55 88.4 211.9 95.95 210.45 102.9 206.0 103.95 201.15 105.1 195.85 99.05 190.95 93.5 188.95 86.2"/><path fill="#0d131a" d="M201.5 91.65 Q196.95 92.2 194.15 94.95 L193.4 93.85 Q201.5 85.75 211.35 92.45 L210.8 93.6 Q206.4 91.1 201.5 91.65"/><path fill="#0d131a" d="M189.45 87.05 Q186.05 87.65 185.55 87.1 185.05 86.5 188.25 85.65 196.8 83.3 201.4 81.6 207.15 79.5 210.8 77.0 213.4 75.2 213.6 75.95 213.8 76.65 211.45 78.75 208.4 81.4 202.05 83.75 196.15 85.85 189.45 87.05"/><path fill="#0d131a" d="M48.65 88.9 Q60.25 88.9 67.5 97.45 74.4 105.6 74.5 117.9 74.6 131.65 67.2 140.95 59.65 150.4 48.05 150.4 36.25 150.4 27.9 141.05 19.65 131.8 19.65 119.2 19.65 108.1 26.5 99.35 34.65 88.9 48.65 88.9"/><path fill="#f6c8d6" d="M48.2 147.25 Q38.45 147.25 31.3 139.3 23.6 130.8 23.6 117.75 23.6 106.65 30.2 99.2 37.0 91.5 47.65 91.5 58.25 91.5 64.65 99.2 70.75 106.55 70.65 117.75 70.55 130.35 64.85 138.5 58.65 147.25 48.2 147.25"/><path fill="#d5adba" d="M48.2 147.25 Q38.45 147.25 31.3 139.3 23.6 130.8 23.6 117.75 27.7 124.3 35.0 127.3 41.55 129.95 49.3 129.35 56.55 128.8 62.5 125.6 68.5 122.35 70.65 117.75 L70.35 122.75 Q69.15 133.55 63.55 140.15 57.55 147.25 48.2 147.25"/><path fill="#f6c8d6" d="M87.8 27.85 Q99.65 27.85 110.0 33.5 120.05 39.0 126.45 48.55 L123.3 104.95 Q117.15 115.7 106.55 122.05 95.6 128.6 82.9 128.6 63.6 128.6 49.95 114.8 36.25 101.0 36.25 81.6 36.25 57.4 52.5 42.0 67.45 27.85 87.8 27.85"/><path fill="#d5adba" d="M52.35 102.75 Q62.5 107.25 75.8 106.75 88.55 106.3 101.7 101.3 115.0 96.25 125.75 87.7 L124.6 99.55 Q117.45 112.1 107.8 119.85 96.3 129.15 83.8 129.15 65.8 129.15 53.75 119.3 40.9 108.8 35.85 88.0 41.45 97.9 52.35 102.75"/><path fill="#0d131a" d="M87.8 26.15 Q100.3 26.15 111.2 32.3 121.3 38.0 127.75 47.6 131.75 53.55 130.7 54.25 129.65 55.0 125.4 49.25 118.85 40.4 109.9 35.2 99.55 29.1 87.8 29.1 79.6 29.1 71.0 32.45 61.95 35.95 54.7 42.4 37.5 57.65 37.5 81.6 37.5 100.5 50.8 113.95 64.1 127.35 82.9 127.35 95.0 127.35 105.6 121.15 116.15 114.95 122.25 104.35 122.5 103.9 123.0 103.75 L123.95 103.85 124.55 104.6 124.4 105.55 Q118.0 116.8 106.4 123.6 94.8 130.35 81.95 130.35 62.95 130.35 48.7 116.3 34.1 101.95 34.1 82.0 34.1 55.6 52.2 39.75 67.75 26.15 87.8 26.15"/><path fill="#f6c8d6" d="M137.0 85.2 Q141.3 88.05 144.45 92.25 151.35 101.65 151.25 112.05 151.15 124.3 140.5 132.1 131.55 138.7 118.5 138.0 103.55 137.2 95.35 126.0 87.55 115.4 89.4 102.45 91.55 87.6 106.65 82.0 118.35 77.6 130.6 81.95 L137.0 85.2"/><path fill="#d5adba" d="M123.05 122.9 Q132.4 120.9 139.35 116.05 146.8 110.85 149.1 103.85 152.5 114.45 148.95 122.55 144.45 132.7 129.45 136.35 112.35 140.5 100.6 130.75 96.4 127.25 93.75 122.7 91.55 118.9 91.5 116.65 96.45 121.85 105.4 123.45 113.75 124.9 123.05 122.9"/><path fill="#0d131a" d="M93.95 88.95 Q98.3 84.0 104.0 81.8 107.6 80.4 110.1 80.75 112.6 81.05 106.65 83.3 95.15 87.6 91.55 99.5 87.65 112.1 96.4 123.95 103.3 133.35 114.15 135.85 124.0 138.15 133.5 134.25 142.9 130.4 146.95 122.55 151.45 113.9 147.3 104.05 145.25 99.15 140.65 96.2 135.2 92.75 129.3 94.65 123.5 96.55 120.95 101.65 118.95 105.75 119.35 111.1 119.55 113.4 118.8 113.55 118.0 113.7 117.45 111.7 115.5 104.4 119.35 98.55 122.65 93.55 128.45 91.7 134.6 89.75 141.15 92.85 148.25 96.25 150.95 103.75 154.9 114.65 149.85 123.95 145.25 132.5 135.05 136.8 124.85 141.05 114.0 138.9 102.1 136.55 94.05 127.05 83.7 114.85 87.85 100.2 89.65 93.85 93.95 88.95"/><path fill="#f6c8d6" d="M245.7 34.7 Q254.55 32.45 267.3 39.75 280.05 47.1 282.2 55.6 285.05 66.8 280.9 74.8 276.65 82.95 266.25 85.6 255.7 88.25 246.3 82.35 236.85 76.45 234.05 65.4 232.8 60.35 233.35 55.15 L234.9 48.15 238.25 39.2 Q240.15 36.1 245.7 34.7"/><path fill="#d5adba" d="M265.55 85.35 Q257.45 87.4 249.95 84.0 242.8 80.75 238.1 73.45 253.15 79.3 266.9 71.5 272.75 68.2 276.45 63.15 280.15 58.05 280.5 52.75 286.15 65.15 281.2 74.3 276.75 82.55 265.55 85.35"/><path fill="#0d131a" d="M265.45 40.65 Q257.7 36.3 249.0 36.1 242.85 35.95 241.75 35.15 240.7 34.35 245.1 34.0 256.05 33.0 265.75 37.7 274.65 42.0 280.0 49.75 285.3 57.45 285.1 65.55 284.9 74.25 278.35 80.45 270.4 87.95 258.45 87.15 246.05 86.35 239.05 76.85 233.85 69.8 233.95 62.4 234.05 54.8 239.8 51.5 244.85 48.6 251.5 51.95 258.2 55.35 260.0 62.0 261.2 66.35 260.35 66.85 259.45 67.35 257.95 62.9 256.2 57.7 250.95 54.65 245.5 51.45 241.3 53.8 237.2 56.15 237.0 62.3 236.85 68.65 241.2 74.65 247.05 82.7 257.3 84.15 268.15 85.7 275.7 78.1 281.35 72.4 281.55 64.95 281.7 58.05 277.2 51.4 272.8 44.8 265.45 40.65"/></g></svg>