<?xml version='1.0' encoding='utf-8'?>
<svg xmlns="http://www.w3.org/2000/svg" version="1.1" width="461px" height="405px" viewBox="-0.1 -0.25 460.65 405.45"><g><path fill="#5dc1cf" d="M279.35 97.1 Q281.25 81.0 282.6 76.05 284.1 78.45 285.35 83.7 286.6 88.85 287.05 89.5 287.65 90.25 289.1 89.85 284.45 104.6 286.05 121.1 286.95 130.05 291.6 148.6 295.7 165.05 295.8 173.6 295.9 186.75 288.75 197.3 287.2 209.85 279.6 232.2 L271.35 254.95 Q261.75 285.5 261.15 308.75 260.35 337.95 268.8 375.05 272.2 378.45 279.25 381.0 281.7 381.95 283.95 385.55 286.1 389.05 286.7 392.9 287.15 395.95 285.15 398.3 283.2 400.65 280.3 400.55 279.5 402.6 275.9 403.25 272.3 403.95 269.0 402.6 266.7 404.3 262.45 403.9 257.9 403.5 253.45 400.9 242.1 394.1 240.15 378.5 235.5 341.05 228.9 319.8 226.4 312.25 225.8 309.85 225.0 306.4 225.85 303.0 231.5 281.05 231.65 258.25 231.75 240.95 229.1 230.45 218.2 228.0 207.5 227.4 187.85 226.3 177.45 232.35 L172.75 239.05 Q167.15 247.15 163.7 252.65 152.3 273.55 138.9 285.25 121.95 300.0 99.05 303.15 89.35 308.75 70.75 336.15 61.25 350.2 51.05 366.6 49.55 368.6 51.95 374.75 53.25 377.95 55.45 382.4 56.35 384.75 55.8 388.45 55.3 391.85 54.1 393.2 53.4 393.95 50.65 394.7 L46.2 395.45 Q45.05 397.45 40.45 397.55 35.7 397.7 33.95 395.45 30.95 396.45 26.1 395.45 20.9 394.4 18.75 391.9 16.6 389.35 16.55 382.5 16.5 375.1 19.05 366.75 19.75 364.35 23.9 357.6 L33.8 341.7 Q50.05 315.3 60.95 291.2 63.7 285.15 69.45 282.0 77.45 277.6 82.3 272.3 84.45 270.0 101.2 231.9 L118.35 192.65 Q122.7 183.05 135.85 172.5 151.85 159.7 166.4 160.25 173.8 160.5 187.05 157.75 L207.75 152.8 Q220.75 149.7 232.55 144.15 243.75 138.9 248.1 138.0 259.4 123.45 270.5 120.85 276.7 112.6 279.35 97.1"/><path fill="#ffffff" d="M315.1 18.0 Q316.9 18.8 321.2 22.65 317.65 26.1 312.05 27.6 302.25 19.1 296.95 15.15 L307.2 15.9 Q312.35 16.8 315.1 18.0"/><path fill="#5dc1cf" d="M332.55 239.45 L325.9 270.7 Q322.8 285.95 323.25 291.05 324.85 309.45 330.85 331.5 335.4 348.25 340.0 359.15 341.75 361.4 345.0 363.05 L351.0 365.55 Q358.65 368.9 360.85 376.0 362.1 380.15 361.35 382.75 360.55 385.65 357.35 385.85 355.4 389.45 349.55 388.45 347.45 393.8 334.9 389.9 329.7 388.3 325.6 385.7 321.2 382.9 320.0 380.15 318.95 377.65 308.6 348.0 300.65 325.45 291.0 307.3 290.05 305.5 290.55 297.25 L291.7 278.9 Q292.85 250.7 285.5 234.5 308.4 228.55 323.2 209.55 335.5 193.75 337.35 176.95 341.7 194.85 332.55 239.45"/><path fill="#5dc1cf" d="M137.0 295.55 Q142.7 291.55 147.3 284.95 153.3 276.3 154.75 266.25 174.25 236.25 177.0 232.75 183.2 228.3 198.5 227.8 212.95 227.35 228.95 230.45 L229.75 235.7 Q221.2 269.55 200.95 287.0 195.55 291.7 186.75 296.95 179.6 301.25 178.2 303.2 171.8 312.55 178.45 337.65 180.95 346.9 184.5 355.5 187.7 363.25 189.65 365.55 192.15 366.6 197.45 366.5 202.6 366.4 204.7 367.45 211.3 370.75 212.05 375.95 212.75 380.95 207.6 383.65 L207.55 383.75 Q206.7 384.9 203.85 385.55 L199.25 385.85 Q198.0 386.65 194.4 386.9 L186.1 386.5 Q174.5 384.5 170.3 376.2 L153.55 340.5 Q139.85 311.4 135.7 305.95 134.25 304.05 134.85 300.2 135.45 296.55 137.0 295.55"/><path fill="#ffffff" d="M159.55 276.85 L157.85 261.65 Q175.3 234.9 177.0 232.75 183.0 228.5 193.0 227.5 L213.6 228.15 Q215.2 231.35 216.5 234.85 213.7 239.4 207.3 251.8 L199.3 267.05 Q196.1 272.7 185.0 279.65 172.7 287.3 163.55 287.4 161.05 286.55 159.55 276.85"/><path fill="#a586bc" d="M187.05 157.75 Q173.8 160.5 166.4 160.25 L163.55 160.2 160.7 160.3 Q159.5 159.1 158.95 153.35 158.4 147.65 159.1 144.15 172.45 129.55 198.6 126.2 225.6 122.75 252.1 133.35 L248.1 138.0 Q243.75 138.9 232.55 144.15 220.75 149.7 207.75 152.8 L187.05 157.75"/><path fill="#ffffff" d="M279.65 270.0 Q274.6 262.9 271.35 254.95 L275.15 243.4 Q276.6 249.5 281.55 257.7 287.35 267.4 292.0 268.05 L292.0 275.5 291.85 279.8 Q286.3 279.15 279.65 270.0"/><path fill="#ffffff" d="M104.75 242.55 Q102.25 236.1 101.25 232.1 L110.75 209.3 119.9 201.45 128.75 194.15 Q133.8 224.6 133.7 225.5 131.15 228.85 120.95 239.2 110.05 250.25 108.8 250.1 107.65 249.95 104.75 242.55"/><path fill="#ffffff" d="M400.4 182.5 Q395.6 174.2 382.95 175.25 L386.0 172.0 390.25 167.2 Q403.75 168.0 409.7 178.3 415.2 187.85 412.6 202.1 409.95 216.55 400.05 229.45 389.3 243.6 373.3 251.05 371.35 251.95 370.95 251.65 370.6 251.3 372.3 249.95 383.1 241.7 391.4 228.35 399.35 215.55 402.0 203.05 404.75 190.0 400.4 182.5"/><path fill="#a586bc" d="M408.55 48.25 Q420.35 57.7 416.85 67.35 413.5 76.5 396.05 86.4 387.0 91.55 383.65 94.45 379.55 98.1 379.85 101.6 380.2 105.1 385.2 110.2 389.55 114.55 400.25 122.75 407.9 128.65 404.4 141.7 401.2 153.6 390.25 167.2 384.7 177.15 374.0 181.45 361.05 186.6 337.95 185.0 L337.35 176.95 Q338.95 162.3 335.25 136.8 L331.95 115.65 Q330.05 103.15 329.3 94.95 328.3 82.95 329.0 74.65 329.2 72.4 333.2 57.95 336.3 46.7 334.65 39.5 L368.0 44.2 Q397.75 48.05 408.55 48.25"/><path fill="#922f00" d="M292.65 44.4 Q288.3 44.45 284.05 47.1 280.0 49.6 277.0 53.75 276.25 50.8 272.5 43.6 L267.05 33.45 Q266.1 31.65 271.15 29.8 276.3 27.9 279.45 29.15 282.8 30.5 286.7 35.3 289.9 39.25 292.65 44.4"/><path fill="#ffffff" d="M332.2 113.7 L335.4 135.65 Q338.95 162.2 337.35 176.95 335.1 197.3 318.4 214.85 300.65 233.45 277.7 235.95 L284.05 218.05 Q287.95 206.05 288.75 197.3 295.75 186.85 295.7 173.9 295.65 165.55 291.65 149.25 287.15 130.8 286.3 121.75 284.65 105.1 289.1 89.85 287.65 90.25 287.05 89.5 286.7 89.0 284.6 82.0 282.75 75.75 281.55 75.5 L276.4 74.25 Q271.25 73.05 269.25 71.9 268.45 71.45 268.25 69.45 268.0 67.2 269.3 65.8 270.0 68.25 275.55 68.8 L282.65 68.9 Q284.3 68.9 289.85 61.75 295.45 54.45 295.55 51.85 295.65 48.45 290.55 40.35 284.85 31.3 279.45 29.15 276.3 27.9 271.15 29.8 266.1 31.65 267.05 33.45 L272.5 43.6 Q276.25 50.8 277.0 53.75 275.8 55.55 275.3 56.5 273.2 45.3 260.75 34.6 256.95 31.35 259.15 18.65 261.3 6.25 264.95 4.3 267.2 3.1 274.85 4.7 282.8 6.3 288.3 9.4 L296.9 15.7 Q306.55 22.9 312.5 28.05 L307.7 29.15 Q305.45 29.75 304.65 31.05 302.85 33.85 303.0 37.65 303.1 41.25 304.8 43.4 316.0 57.8 320.2 65.8 325.6 76.0 329.6 92.65 330.3 100.7 332.2 113.7"/><path fill="#922f00" d="M272.9 68.5 Q269.5 67.75 269.3 65.8 269.95 64.25 271.55 62.2 L274.25 58.7 Q272.15 63.8 272.9 68.5"/><path fill="#ed8599" d="M282.65 68.9 L278.1 68.95 272.9 68.5 Q271.7 61.1 277.25 53.2 283.4 44.5 292.65 44.4 295.55 49.95 295.55 51.85 295.45 54.45 289.85 61.75 284.3 68.9 282.65 68.9"/><path fill="#ffffff" d="M326.95 204.45 L326.4 216.35 Q325.9 224.2 325.3 227.75 323.2 239.0 317.35 258.05 309.0 285.0 302.25 291.4 298.1 287.05 292.0 275.5 293.25 268.9 291.15 256.1 289.1 243.9 285.5 234.5 297.6 231.35 308.75 223.2 319.6 215.25 326.95 204.45"/><path fill="#a586bc" d="M270.65 72.4 Q272.65 73.55 277.75 74.65 L282.8 75.75 Q281.85 77.35 281.0 83.05 L279.3 95.15 Q276.5 112.85 270.5 120.85 265.35 122.05 258.9 127.1 242.75 119.7 225.55 117.5 209.1 115.4 194.15 118.3 179.3 121.15 168.5 128.45 157.4 136.0 152.55 147.0 151.0 150.6 150.45 153.8 146.9 153.1 143.15 155.65 L136.4 160.75 Q126.95 166.8 112.4 157.3 107.55 154.1 100.9 146.1 L89.7 132.2 Q83.35 124.6 79.1 122.05 73.6 118.8 69.4 122.25 60.0 131.15 53.6 131.75 46.1 132.5 34.35 123.7 31.15 121.3 27.4 115.25 L20.4 103.05 Q10.5 85.55 0.4 78.45 3.05 78.65 8.0 81.7 13.9 85.35 16.4 86.2 13.3 83.95 8.3 76.9 3.25 69.85 1.3 65.05 16.75 75.85 31.85 83.05 47.5 90.55 52.1 88.9 54.85 85.8 55.75 80.0 57.4 69.3 58.2 66.4 59.7 60.9 65.1 57.35 70.25 53.95 77.45 53.25 84.8 52.5 91.9 54.7 99.6 57.15 105.1 62.45 131.8 88.25 145.3 89.95 158.0 91.5 155.05 71.65 152.95 57.05 165.9 47.85 177.0 39.95 194.6 38.6 202.8 38.0 211.6 42.1 217.05 44.65 228.0 52.2 239.8 60.3 246.65 63.9 258.45 70.1 270.65 72.4"/><path fill="#ffffff" d="M108.95 154.45 Q101.95 159.6 101.35 169.15 100.8 178.15 105.95 183.55 100.4 179.95 94.1 176.95 91.55 174.5 90.7 170.35 89.9 166.2 90.95 161.8 93.5 151.35 103.1 148.1 106.4 152.05 108.95 154.45"/><path fill="#ffffff" d="M245.35 269.95 Q248.0 276.85 248.0 278.15 L243.95 284.6 239.2 291.4 Q238.1 290.4 235.0 284.5 232.05 278.85 231.5 277.0 232.25 275.1 236.45 269.25 240.7 263.25 242.15 262.3 242.85 263.35 245.35 269.95"/><path fill="#ffffff" d="M257.85 207.95 Q260.95 218.7 261.25 223.25 261.35 225.7 253.45 238.75 245.8 251.35 242.75 254.5 238.7 250.45 233.75 240.3 229.1 230.7 229.2 227.8 229.3 223.75 236.75 211.0 244.6 197.6 250.45 192.9 254.0 194.65 257.85 207.95"/><path fill="#ffffff" d="M212.2 176.45 Q212.7 175.4 220.0 169.0 227.7 162.25 230.65 160.7 233.05 161.25 240.3 165.3 247.75 169.5 252.8 173.15 250.55 175.8 234.8 188.75 230.2 187.2 222.4 182.95 214.55 178.7 212.2 176.45"/><path fill="#ffffff" d="M158.7 196.85 L148.4 192.85 Q140.05 189.5 138.0 188.3 140.05 185.25 144.85 180.9 150.35 175.95 154.55 174.0 156.45 174.25 161.35 176.15 165.4 180.2 172.35 185.85 L158.7 196.85"/><path fill="#ffffff" d="M241.6 130.25 Q227.6 126.4 214.05 125.7 177.8 123.7 159.1 144.15 157.45 157.0 164.25 166.1 168.75 172.05 181.9 181.05 197.35 191.6 204.1 198.2 216.6 210.35 222.95 226.75 229.55 243.7 225.8 254.8 223.3 262.2 215.9 267.2 201.85 276.55 186.35 268.5 178.35 264.35 164.7 250.75 L150.2 236.2 133.25 219.85 Q115.35 203.15 101.55 193.45 75.2 174.95 56.4 174.6 40.9 179.9 37.9 192.15 35.05 203.5 43.95 213.55 53.25 224.1 69.35 225.1 88.15 226.3 109.05 213.3 L103.45 226.75 Q86.9 234.7 70.45 234.05 55.65 233.5 44.15 226.25 33.15 219.35 29.0 209.0 24.75 198.35 29.6 188.15 37.3 172.15 56.15 169.65 73.55 167.3 94.1 176.95 110.65 184.7 129.95 202.55 142.6 214.3 169.4 243.45 183.75 259.1 194.75 262.25 204.45 265.0 216.45 258.8 221.65 249.9 216.45 235.1 213.05 225.55 207.6 218.0 201.65 209.75 191.35 200.75 184.5 194.8 172.35 185.85 159.75 176.55 154.05 166.9 147.3 155.55 152.55 147.0 170.35 117.95 207.1 116.4 221.4 115.85 237.0 119.55 250.15 122.7 261.35 128.1 280.5 137.35 292.3 150.25 303.35 162.35 305.8 175.2 308.2 187.9 301.55 198.0 294.65 208.55 279.4 213.6 290.05 206.2 294.9 196.75 299.8 187.15 298.05 177.0 294.1 154.35 261.15 137.5 253.25 133.45 241.6 130.25"/><path fill="#ffffff" d="M183.35 181.2 Q184.75 179.45 187.9 176.55 191.6 173.2 193.45 172.35 195.05 172.75 198.2 174.25 L205.9 178.55 Q204.9 180.1 201.45 182.9 L196.1 186.8 Q184.95 182.65 183.35 181.2"/><path fill="#ffffff" d="M87.85 263.15 Q90.1 261.05 96.7 257.45 102.9 254.1 104.25 253.9 104.75 255.1 105.4 260.1 106.1 265.25 106.25 269.45 104.85 270.0 98.55 273.35 91.75 276.95 89.55 278.5 L88.4 271.0 Q87.6 265.0 87.85 263.15"/><path fill="#e50020" d="M305.8 15.9 Q312.75 17.25 312.75 17.7 312.75 20.65 311.9 22.85 311.0 25.15 309.6 25.15 L307.65 23.4 305.55 21.25 Q305.55 16.85 305.8 15.9"/><path fill="#0095ae" d="M418.6 14.0 Q435.35 22.1 443.6 26.8 458.65 35.35 458.05 38.8 457.45 42.5 439.4 45.3 427.75 47.15 412.5 48.15 406.75 49.15 372.75 44.85 L334.65 39.5 Q332.2 28.9 325.15 26.15 317.55 18.8 315.7 18.0 312.95 16.85 307.5 15.9 L296.95 15.15 Q292.45 11.8 288.7 9.65 L302.4 4.6 Q309.35 2.0 315.1 1.8 319.85 1.65 366.15 6.7 414.5 12.0 418.6 14.0"/><path fill="#7ec6d4" d="M418.6 14.0 Q442.95 25.75 451.55 31.7 421.15 17.75 417.25 16.35 413.05 14.8 315.1 4.15 L301.05 5.15 Q305.1 3.6 307.8 2.9 311.45 1.95 315.1 1.8 319.85 1.65 366.15 6.7 414.5 12.0 418.6 14.0"/><path fill="#5dc1cf" d="M326.95 26.8 Q333.0 32.4 334.65 39.5 336.3 46.7 333.2 57.95 329.2 72.4 329.0 74.65 328.3 82.95 329.3 94.95 325.2 78.0 319.55 66.95 314.7 57.4 303.85 43.45 302.3 41.45 302.45 37.6 302.6 34.05 304.1 30.75 304.65 29.55 312.2 27.85 319.7 26.15 321.2 22.65 323.45 24.75 326.95 26.8"/><path fill="#ffffff" d="M227.0 218.8 Q228.2 223.4 229.5 230.55 219.1 228.1 208.35 227.45 188.1 226.15 177.45 232.35 L181.0 226.6 Q184.15 221.5 187.25 219.6 191.0 217.25 197.4 217.4 L227.0 218.8"/><path fill="#50a8b4" d="M89.35 304.55 Q107.3 298.95 129.4 283.55 151.4 268.2 163.35 253.05 150.25 276.65 133.4 288.6 115.9 301.0 89.35 304.55"/><path fill="#50a8b4" d="M33.95 395.45 Q30.95 396.45 26.1 395.45 20.9 394.4 18.75 391.9 16.5 389.2 16.2 387.55 15.75 385.1 17.15 378.3 18.45 386.05 24.75 389.9 31.0 393.7 35.75 389.9 L35.85 388.75 35.95 387.6 Q38.65 390.9 41.95 390.3 45.35 389.7 46.3 385.2 L46.7 386.6 Q46.95 387.75 47.15 387.9 49.8 390.15 52.55 388.2 55.2 386.35 55.45 382.4 57.3 383.95 56.35 388.05 55.55 391.55 54.1 393.2 53.4 393.95 50.65 394.7 L46.2 395.45 Q45.05 397.45 40.45 397.55 35.7 397.7 33.95 395.45"/><path fill="#50a8b4" d="M270.95 395.25 L269.4 391.0 Q271.4 395.45 275.1 396.6 278.7 397.7 280.65 394.6 L279.9 391.45 Q281.25 393.95 283.5 392.75 285.8 391.55 286.1 387.95 287.4 392.55 286.85 395.65 285.95 400.7 280.3 400.55 279.5 402.6 275.9 403.25 272.3 403.95 269.0 402.6 266.85 404.15 262.95 403.95 258.8 403.7 254.6 401.5 243.95 395.9 240.9 382.6 245.75 392.55 258.15 397.35 263.35 399.35 266.9 398.9 270.7 398.4 270.95 395.25"/><path fill="#dbdcdc" d="M298.8 15.1 L306.1 15.75 306.1 17.4 298.8 15.1"/><path fill="#dbdcdc" d="M321.2 22.65 L319.3 24.25 Q316.75 21.6 312.4 19.7 L312.3 18.35 Q312.35 17.05 312.5 17.1 L315.1 18.0 Q316.9 18.8 321.2 22.65"/><path fill="#50a8b4" d="M338.55 200.35 Q337.75 212.05 334.7 228.5 322.3 232.8 310.9 242.0 300.3 250.6 291.65 262.5 290.7 245.95 285.5 234.5 308.4 228.55 323.2 209.55 335.5 193.75 337.35 176.95 339.55 185.9 338.55 200.35"/><path fill="#50a8b4" d="M359.95 373.35 Q361.65 375.95 361.85 379.1 362.15 384.05 357.35 385.85 355.4 389.45 349.55 388.45 347.65 393.2 336.8 390.45 326.4 387.8 321.5 382.35 335.05 386.5 338.45 387.0 349.55 388.6 349.6 381.4 L348.8 380.4 347.55 378.9 Q349.9 381.1 352.35 381.45 355.9 382.0 356.65 378.0 L356.1 376.5 Q355.25 374.35 355.5 374.7 357.5 377.05 359.15 376.75 360.9 376.45 359.95 373.35"/><path fill="#50a8b4" d="M198.6 379.25 L198.0 377.8 Q197.65 376.85 196.5 376.1 200.85 378.7 202.35 379.1 205.1 379.75 206.7 377.25 L205.95 375.9 205.2 374.4 Q207.9 375.95 209.35 375.7 211.1 375.45 209.3 372.5 212.55 375.05 212.3 378.1 212.0 381.4 207.6 383.65 L207.55 383.75 Q206.7 384.9 203.85 385.55 L199.25 385.85 Q198.25 386.5 194.9 386.8 L186.95 386.6 Q175.55 385.05 170.75 377.55 179.0 381.6 187.65 382.75 197.9 384.15 198.6 379.25"/><path fill="#50a8b4" d="M154.75 266.25 L157.75 261.65 159.6 274.35 Q154.45 276.95 150.55 279.5 153.8 273.0 154.75 266.25"/><path fill="#50a8b4" d="M210.45 243.55 Q216.6 231.8 219.35 228.65 L224.4 229.65 Q227.0 235.5 227.85 242.65 226.2 248.1 224.35 252.65 219.4 256.95 213.6 259.65 207.1 262.7 201.3 262.85 204.35 255.1 210.45 243.55"/><path fill="#50a8b4" d="M228.95 230.45 L229.75 235.7 227.85 242.65 Q227.0 235.5 224.4 229.65 L228.95 230.45"/><path fill="#8f75a3" d="M222.1 148.5 L233.65 139.7 Q240.5 134.5 244.25 130.55 249.05 132.1 252.1 133.35 L248.1 138.0 Q243.55 138.95 236.6 142.2 227.2 146.65 222.1 148.5"/><path fill="#dbdcdc" d="M279.65 270.0 Q274.6 262.9 271.35 254.95 L275.15 243.4 Q276.6 249.5 281.55 257.7 287.35 267.4 292.0 268.05 L292.0 275.5 291.85 279.8 Q286.3 279.15 279.65 270.0"/><path fill="#dbdcdc" d="M390.25 167.2 Q396.85 167.55 401.8 170.4 406.45 173.05 409.3 177.7 401.4 175.35 392.5 176.15 388.35 174.8 382.95 175.25 L386.0 172.0 390.25 167.2"/><path fill="#dbdcdc" d="M227.0 218.8 Q228.2 223.4 229.5 230.55 219.1 228.1 208.35 227.45 188.1 226.15 177.45 232.35 L181.0 226.6 Q184.15 221.5 187.25 219.6 191.0 217.25 197.4 217.4 L227.0 218.8"/><path fill="#6a1a00" d="M271.8 42.25 L267.05 33.45 Q266.1 31.65 271.15 29.8 276.3 27.9 279.45 29.15 282.0 30.2 285.05 33.4 273.8 39.35 276.4 51.9 275.15 48.6 271.8 42.25"/><path fill="#dbdcdc" d="M336.15 143.45 Q338.8 164.05 337.35 176.95 335.1 197.3 318.4 214.85 300.65 233.45 277.7 235.95 L281.7 224.75 Q284.4 217.25 285.9 211.75 294.55 206.3 298.5 201.45 302.75 196.3 304.45 188.65 323.15 174.6 336.15 143.45"/><path fill="#dbdcdc" d="M288.9 197.05 Q292.8 195.7 296.05 194.0 291.9 203.9 287.2 206.75 L288.3 200.75 288.9 197.05"/><path fill="#dbdcdc" d="M326.95 204.45 L326.4 216.35 Q325.9 224.2 325.3 227.75 L324.1 233.15 Q305.9 242.95 291.95 262.1 291.2 255.25 289.45 247.7 287.7 240.25 285.5 234.5 297.6 231.35 308.75 223.2 319.6 215.25 326.95 204.45"/><path fill="#dbdcdc" d="M108.95 154.45 Q101.95 159.6 101.35 169.15 100.8 178.15 105.95 183.55 100.4 179.95 94.1 176.95 91.55 174.5 90.7 170.35 89.9 166.2 90.95 161.8 93.5 151.35 103.1 148.1 106.4 152.05 108.95 154.45"/><path fill="#dbdcdc" d="M29.6 188.15 Q31.55 184.2 33.9 181.4 37.05 178.8 43.2 177.1 48.9 175.55 53.75 175.65 39.7 181.5 37.6 193.55 35.65 204.85 44.65 214.3 54.25 224.35 70.1 225.15 88.55 226.05 109.05 213.3 L103.45 226.75 Q86.9 234.7 70.45 234.05 55.65 233.5 44.15 226.25 33.15 219.35 29.0 209.0 24.75 198.35 29.6 188.15"/><path fill="#dbdcdc" d="M164.3 166.15 Q168.8 172.1 182.0 181.1 197.4 191.6 204.15 198.2 216.6 210.4 222.95 226.75 229.55 243.7 225.8 254.8 223.3 262.2 215.9 267.2 210.45 270.85 204.15 271.65 198.05 272.45 190.0 270.7 209.75 268.9 216.45 258.8 221.65 249.9 216.45 235.1 213.05 225.55 207.6 218.0 201.65 209.75 191.35 200.75 184.5 194.8 172.35 185.85 164.1 179.8 158.6 173.3 152.45 166.0 150.85 159.4 153.1 149.85 159.05 144.3 157.45 157.1 164.3 166.15"/><path fill="#c60019" d="M305.8 15.9 Q312.75 17.25 312.75 17.7 L312.65 19.75 Q310.1 18.6 305.65 17.2 305.65 16.35 305.8 15.9"/><path fill="#008094" d="M443.0 44.75 Q431.05 46.9 412.5 48.15 406.75 49.15 372.75 44.85 L334.65 39.5 Q334.0 36.65 333.05 34.4 386.55 41.5 413.15 41.95 432.25 42.25 458.05 38.45 458.2 42.0 443.0 44.75"/><path fill="#008094" d="M393.3 26.25 Q392.5 29.15 391.3 30.15 390.45 30.9 388.85 30.9 L361.8 29.7 327.9 27.65 325.15 26.15 321.0 22.3 358.0 25.85 Q389.35 28.3 393.3 26.25"/><path fill="#dbdcdc" d="M159.2 274.55 L157.85 261.65 164.75 251.0 Q167.85 255.15 171.65 259.0 176.75 264.15 181.25 266.8 169.95 269.1 159.2 274.55"/><path fill="#dbdcdc" d="M213.6 228.15 Q215.2 231.35 216.5 234.85 214.05 238.8 209.25 248.0 L201.85 262.35 Q192.8 261.95 183.0 255.95 174.55 250.7 169.4 243.95 175.75 234.3 177.0 232.75 183.0 228.5 193.0 227.5 L213.6 228.15"/><path fill="#8f75a3" d="M337.4 176.4 Q339.8 179.45 347.15 179.45 354.05 179.45 363.3 176.9 384.15 171.05 395.15 160.4 393.2 163.5 390.25 167.2 384.7 177.15 374.0 181.45 361.05 186.6 337.95 185.0 L337.35 176.95 337.4 176.4"/><path fill="#8f75a3" d="M329.55 95.8 Q330.55 95.15 333.6 96.45 L339.55 99.45 Q347.6 103.5 348.75 99.8 349.8 96.4 359.05 96.75 363.45 96.95 364.7 96.65 366.9 96.2 366.15 94.25 364.7 90.7 376.85 88.85 L396.6 86.1 396.05 86.4 Q382.85 93.95 380.6 98.05 378.0 103.0 385.35 110.35 L381.4 108.35 Q378.75 107.1 379.6 110.45 380.1 112.3 376.3 112.0 L367.45 110.4 Q353.8 107.65 352.75 110.95 351.5 114.9 341.5 113.45 L331.25 111.1 329.55 95.8"/><path fill="#8f75a3" d="M408.55 48.25 Q416.0 54.2 417.3 60.2 L401.65 55.4 Q392.3 52.8 387.95 55.4 385.6 56.8 379.45 55.85 L367.25 53.4 Q350.85 49.85 347.9 54.5 344.65 59.6 340.55 58.1 L337.2 56.5 Q335.2 55.55 333.8 55.7 336.2 46.25 334.65 39.5 L368.0 44.2 Q397.75 48.05 408.55 48.25"/><path fill="#8f75a3" d="M264.0 70.8 L270.65 72.4 Q272.65 73.55 277.75 74.65 L282.8 75.75 Q281.85 77.35 281.0 83.05 L279.3 95.15 Q276.5 112.85 270.5 120.85 265.35 122.05 258.9 127.1 254.4 125.05 249.65 123.35 251.3 120.6 252.35 117.4 253.65 113.9 252.7 107.8 L250.35 97.25 Q248.9 91.3 249.25 88.85 249.8 85.45 253.55 85.65 255.35 85.75 255.3 83.8 L254.5 79.05 Q253.0 71.3 258.1 68.55 L264.0 70.8"/><path fill="#8f75a3" d="M165.7 66.15 Q169.45 74.95 171.8 84.3 177.65 107.85 170.45 114.9 166.1 119.2 168.1 122.0 L170.1 124.2 Q171.25 125.5 171.3 126.65 157.95 134.6 152.55 147.0 L151.7 149.25 151.3 141.6 Q151.0 136.75 149.4 134.7 146.25 130.45 144.75 126.15 142.5 119.65 145.6 116.35 150.25 111.45 141.2 99.5 L133.5 89.9 Q129.15 84.4 127.9 81.3 143.4 93.2 150.7 89.1 157.1 85.45 155.05 71.65 154.6 68.3 154.95 64.7 155.6 58.15 158.75 53.65 162.0 57.6 165.7 66.15"/><path fill="#8f75a3" d="M3.3 79.8 Q9.15 83.25 17.35 93.55 L31.7 111.6 Q40.4 121.45 48.1 124.75 57.8 128.85 68.2 123.8 63.6 128.4 61.25 130.0 55.5 133.8 50.1 132.6 41.85 130.7 34.95 124.2 29.65 119.2 23.8 109.95 L14.1 93.85 Q8.35 84.65 3.3 79.8"/><path fill="#0d131a" d="M308.05 15.7 L310.0 16.2 Q310.0 17.6 309.6 18.95 309.15 20.45 308.55 20.45 308.05 20.45 308.0 18.65 L308.05 15.7"/><path fill="#7ec6d4" d="M392.75 25.5 L362.25 19.1 330.2 12.5 319.2 12.05 313.5 12.2 Q315.85 11.4 321.35 10.65 L330.4 10.2 348.55 13.85 366.55 17.95 380.35 21.45 Q391.15 24.15 391.45 24.35 L392.75 25.5"/><path fill="#0d131a" d="M391.5 23.15 Q395.05 24.2 393.9 27.6 392.8 30.85 390.2 31.15 382.9 31.9 361.1 31.0 L327.7 28.45 Q326.75 28.4 324.85 26.85 L321.05 23.5 Q316.75 19.55 314.9 18.7 312.3 17.6 307.45 16.75 L297.75 15.9 296.8 15.15 Q296.15 14.4 296.5 14.35 L307.2 14.85 Q312.85 15.6 315.65 16.8 316.9 17.35 318.85 19.1 L322.15 22.3 Q325.95 25.9 327.0 26.0 339.1 27.75 361.3 28.95 383.6 30.2 390.05 29.5 391.4 29.35 391.95 27.4 392.55 25.3 390.35 24.7 382.2 22.35 359.15 17.25 338.5 12.6 331.1 11.25 328.95 10.85 323.5 11.2 317.9 11.55 314.95 12.35 L312.65 12.45 Q312.85 11.8 315.45 10.9 318.55 9.8 323.8 9.15 L331.25 8.95 Q338.0 10.25 359.8 15.3 383.1 20.75 391.5 23.15"/><path fill="#0d131a" d="M448.55 28.7 Q460.55 35.75 459.95 39.1 459.3 43.2 441.1 46.0 L412.15 49.3 Q405.3 50.15 371.55 45.9 L334.95 40.8 Q334.6 40.75 334.55 39.45 334.5 38.15 334.85 38.2 L371.7 43.6 Q405.7 48.15 412.4 47.35 L435.15 44.95 Q456.7 42.0 457.25 38.65 457.75 35.65 441.85 26.75 433.55 22.15 418.5 14.85 412.8 12.45 368.15 7.6 L315.1 2.6 Q311.45 2.4 301.6 5.9 L289.4 10.4 Q289.05 10.5 288.85 9.75 288.6 8.95 288.9 8.85 291.0 8.25 301.35 3.85 311.6 -0.25 315.4 0.0 340.9 1.65 375.75 6.0 411.95 10.55 418.2 13.15 439.8 23.55 448.55 28.7"/><path fill="#0d131a" d="M154.1 270.1 Q148.15 278.9 141.75 284.65 125.45 299.2 92.65 305.25 L88.55 305.1 Q87.25 304.45 90.1 304.0 120.05 299.35 137.85 284.25 145.0 278.15 151.6 269.25 155.6 263.9 162.65 252.55 L164.0 250.4 165.45 251.8 164.45 253.5 154.1 270.1"/><path fill="#0d131a" d="M223.8 228.8 L228.75 229.4 228.65 230.4 Q228.55 231.0 228.7 231.35 L224.15 230.65 Q223.9 229.85 223.8 228.8"/><path fill="#0d131a" d="M334.5 44.8 Q334.3 34.65 326.35 27.4 326.1 27.2 326.95 26.85 327.75 26.5 327.9 26.65 336.8 35.05 337.1 44.45 337.25 49.45 333.45 62.05 329.95 73.55 330.05 85.8 330.15 98.2 334.05 123.15 335.6 133.05 338.85 151.45 340.9 167.6 338.25 182.25 334.55 202.65 316.05 219.1 297.75 235.45 277.15 237.05 277.65 236.0 278.6 235.0 298.05 232.45 314.9 216.55 331.8 200.6 335.45 181.25 337.55 169.9 336.2 153.55 335.45 143.75 332.3 123.65 328.2 97.55 327.85 86.75 327.5 74.2 331.05 62.45 334.6 50.75 334.5 44.8"/><path fill="#0d131a" d="M213.25 227.3 Q213.4 228.25 214.15 229.45 187.8 227.0 176.75 234.85 173.35 239.15 170.05 244.4 169.35 243.45 169.05 242.5 173.1 236.4 176.4 232.25 L176.55 232.1 Q182.6 227.75 192.65 226.75 201.0 225.9 213.25 227.3"/><path fill="#0d131a" d="M320.35 22.0 Q320.6 21.75 321.5 22.55 322.35 23.35 322.15 23.6 318.7 27.05 312.95 28.35 312.2 28.5 311.0 27.7 L309.85 26.75 297.9 16.9 Q292.3 12.6 287.9 10.15 282.5 7.1 274.65 5.5 267.3 3.95 265.3 5.0 261.85 6.8 259.85 18.75 257.8 31.0 261.3 34.0 266.05 38.1 268.9 41.7 274.5 48.6 276.0 55.8 L275.3 56.6 Q274.6 57.15 274.55 56.85 273.3 49.85 267.2 42.9 L259.1 35.15 Q254.95 31.35 257.7 18.4 260.3 5.85 264.55 3.55 267.15 2.15 275.45 3.65 283.95 5.2 289.25 8.15 293.55 10.55 299.7 15.7 L312.3 26.7 Q317.1 25.4 320.35 22.0"/><path fill="#0d131a" d="M292.4 44.05 Q292.65 44.05 292.75 44.8 292.85 45.55 292.6 45.55 284.7 45.5 278.7 52.75 272.75 60.0 273.6 68.2 273.65 68.45 273.0 68.5 L272.3 68.3 Q271.35 59.25 277.7 51.6 284.05 44.0 292.4 44.05"/><path fill="#0d131a" d="M269.8 70.45 Q270.25 71.7 275.35 72.95 L282.25 74.4 Q283.7 74.8 285.5 81.35 L287.7 89.0 Q288.2 89.8 290.5 88.3 292.85 86.75 292.9 85.25 L293.45 77.15 Q294.0 72.35 295.2 72.0 296.2 71.75 296.7 72.25 297.2 72.8 296.1 72.8 294.85 72.85 294.65 84.6 294.6 87.4 291.25 89.85 287.8 92.3 286.4 90.0 286.0 89.35 284.05 82.8 282.3 76.75 281.55 76.35 L274.7 74.9 Q268.65 73.45 267.85 71.1 266.55 67.25 269.8 62.75 L274.25 57.25 Q274.55 56.9 273.35 61.2 270.95 64.2 270.25 65.7 269.05 68.2 269.8 70.45"/><path fill="#0d131a" d="M266.0 32.15 Q267.35 29.75 272.1 28.5 276.8 27.25 279.75 28.4 285.15 30.55 291.45 40.1 297.2 48.75 297.1 51.9 297.05 54.75 290.9 62.25 284.8 69.7 282.65 69.7 L276.8 69.8 Q270.7 69.55 269.5 68.05 269.15 67.55 268.95 66.65 268.75 65.55 269.0 64.6 L269.9 64.5 Q270.7 64.7 270.6 65.05 270.3 66.0 270.75 66.55 271.6 67.65 277.2 68.0 L282.65 68.1 Q284.2 67.8 289.4 61.0 294.7 54.05 294.75 51.8 294.75 49.5 290.05 41.55 284.5 32.05 279.15 29.9 L273.0 30.05 Q269.25 31.05 268.0 32.55 267.65 33.0 271.85 40.6 276.65 49.35 277.65 52.8 L277.15 53.55 Q276.5 54.1 276.45 53.8 274.95 48.5 269.65 40.1 265.35 33.3 266.0 32.15"/><path fill="#0d131a" d="M281.4 75.35 Q281.5 75.0 282.65 75.65 283.85 76.25 283.75 76.6 281.8 83.0 280.1 98.45 277.6 112.85 270.45 121.55 268.55 123.9 267.8 123.85 267.1 123.8 269.05 121.45 275.75 113.3 278.0 97.85 L279.45 85.8 Q280.3 79.0 281.4 75.35"/><path fill="#0d131a" d="M244.5 142.2 Q246.35 138.35 250.85 133.45 L253.15 133.9 Q246.75 140.45 244.35 145.35 243.3 147.55 243.4 145.95 243.45 144.4 244.5 142.2"/><path fill="#0d131a" d="M270.8 119.65 Q271.1 119.6 270.55 120.75 L269.75 121.95 Q265.75 123.15 260.2 127.55 259.25 126.6 258.5 126.4 265.85 120.65 270.8 119.65"/><path fill="#0d131a" d="M95.45 241.6 L111.85 201.95 114.3 203.9 97.0 244.35 Q85.85 269.65 82.9 272.85 79.55 276.5 76.15 278.95 74.0 280.45 70.75 282.2 67.2 284.1 65.8 285.4 63.4 287.55 61.7 291.5 53.3 311.05 36.2 339.2 20.35 365.25 19.8 366.95 17.25 374.95 17.3 382.3 17.35 389.05 19.35 391.35 21.9 394.35 28.4 395.0 34.65 395.6 34.9 393.8 35.55 389.85 35.0 386.3 34.45 382.7 32.85 380.5 31.7 378.85 32.4 378.75 33.15 378.65 34.3 380.3 38.05 385.75 36.6 394.9 36.15 398.0 28.4 397.35 20.5 396.65 17.15 392.75 14.8 389.95 14.95 382.2 15.1 374.6 17.6 366.25 18.1 364.55 34.45 337.05 52.25 307.1 59.8 289.85 61.6 285.75 64.5 283.7 L70.0 280.75 Q77.45 276.8 82.2 270.35 85.35 266.15 95.45 241.6"/><path fill="#0d131a" d="M119.4 192.45 L117.25 190.85 Q122.35 181.9 131.3 174.0 141.0 165.45 151.45 161.7 L152.3 163.8 Q142.4 167.8 132.85 176.4 124.0 184.3 119.4 192.45"/><path fill="#0d131a" d="M240.95 141.5 Q239.2 142.15 234.8 144.15 228.0 147.3 223.25 149.0 214.85 152.0 202.45 154.9 L181.95 159.6 Q173.05 161.3 166.35 161.05 L161.0 161.35 160.4 159.45 166.3 159.15 Q172.75 159.4 183.75 157.35 190.3 156.15 202.1 153.35 212.5 150.85 222.05 147.1 L234.35 141.7 Q242.5 137.9 248.35 136.8 248.7 136.75 248.2 138.2 247.7 139.65 247.35 139.7 244.05 140.3 240.95 141.5"/><path fill="#0d131a" d="M33.35 395.2 Q34.3 394.55 34.5 394.85 35.65 396.7 40.5 396.6 45.35 396.55 45.6 394.75 46.3 390.0 45.55 385.3 44.9 381.3 43.7 379.5 42.25 377.35 43.1 377.4 43.9 377.5 45.35 379.65 46.7 381.7 47.4 385.6 48.2 390.3 47.45 395.35 47.05 398.1 41.2 398.5 35.35 398.9 32.65 396.15 32.45 395.9 33.35 395.2"/><path fill="#0d131a" d="M55.1 387.05 Q55.05 383.4 53.7 380.6 48.2 369.1 50.4 366.1 58.85 352.1 68.6 337.7 87.95 309.0 96.8 303.65 97.25 303.35 100.05 302.9 L102.5 302.55 Q94.0 306.2 74.2 333.9 61.1 352.2 52.2 367.1 51.25 368.7 52.8 373.05 53.95 376.25 55.65 379.25 57.75 382.95 57.9 387.05 58.0 391.2 56.05 393.85 55.05 395.2 51.25 396.1 L45.8 396.5 Q45.45 396.45 45.75 395.55 46.0 394.65 46.35 394.65 L50.4 393.95 Q52.85 393.25 53.5 392.65 55.2 391.0 55.1 387.05"/><path fill="#0d131a" d="M152.3 269.5 Q152.35 269.05 154.05 267.45 155.7 265.85 155.65 266.2 154.15 277.65 147.1 286.9 142.75 292.55 137.45 296.2 135.95 297.25 135.6 300.75 135.25 304.15 136.35 305.45 140.2 310.2 155.45 342.4 L171.0 375.85 Q174.0 381.75 182.3 384.55 190.6 387.4 198.7 385.25 200.4 384.75 198.55 380.65 196.6 376.3 192.35 374.85 190.3 374.2 190.75 373.7 L193.25 373.9 Q199.25 375.9 200.65 381.5 201.25 383.7 200.75 385.45 200.3 387.25 199.05 387.55 190.2 389.9 181.05 386.9 171.85 383.85 168.6 377.4 L153.45 344.05 Q138.6 311.85 134.25 306.35 132.8 304.5 133.25 300.3 133.75 295.9 136.0 294.35 149.5 284.95 152.3 269.5"/><path fill="#0d131a" d="M200.5 371.2 Q198.5 370.1 199.15 369.75 199.75 369.4 201.75 370.5 206.4 373.1 208.45 377.8 210.35 382.05 208.8 384.1 207.5 385.9 204.3 386.55 201.45 387.15 199.4 386.5 199.05 386.45 199.3 385.65 199.5 384.9 199.85 384.95 L203.75 384.85 Q206.15 384.25 206.9 383.25 208.05 381.75 206.1 377.6 204.05 373.2 200.5 371.2"/><path fill="#0d131a" d="M186.7 295.55 Q194.75 290.75 199.6 286.5 207.75 279.2 214.6 267.8 216.15 267.0 218.25 266.35 210.95 279.55 202.45 287.4 197.8 291.7 188.85 297.05 L183.45 300.5 Q180.8 302.4 179.6 304.2 174.05 312.45 179.15 334.6 183.7 354.35 190.45 364.2 192.3 365.8 197.45 365.7 L201.65 365.6 Q204.0 365.65 205.45 366.4 213.05 370.2 213.35 376.9 213.45 379.75 211.95 381.8 210.45 383.95 207.75 384.4 207.4 384.5 207.3 383.65 207.2 382.85 207.5 382.7 211.8 380.75 210.9 375.9 210.0 371.0 204.35 368.15 202.4 367.2 197.5 367.3 190.25 367.45 189.05 366.05 187.15 363.95 183.85 356.1 180.25 347.45 177.7 338.1 170.85 312.45 177.55 302.75 178.9 300.8 181.4 298.95 L186.7 295.55"/><path fill="#0d131a" d="M229.3 234.6 Q229.4 234.3 229.9 236.2 L230.25 238.4 227.4 246.3 Q227.2 245.05 227.35 243.0 L227.55 239.65 229.3 234.6"/><path fill="#0d131a" d="M287.85 190.1 Q287.5 187.7 288.25 188.1 289.05 188.5 289.4 190.85 290.45 197.45 288.7 206.05 287.65 207.5 285.7 208.75 288.9 196.6 287.85 190.1"/><path fill="#0d131a" d="M284.9 211.5 L287.75 210.1 Q285.75 218.25 280.6 233.25 272.45 256.7 269.15 268.95 263.25 291.0 262.8 308.8 262.4 323.9 264.15 340.8 266.05 358.7 270.25 376.75 270.8 379.1 269.55 378.35 268.35 377.65 267.8 375.3 259.5 339.8 260.3 308.7 260.8 290.65 266.55 268.65 269.95 255.85 277.9 232.9 283.0 218.2 284.9 211.5"/><path fill="#0d131a" d="M226.9 220.5 Q226.2 216.95 227.35 218.2 228.55 219.45 229.25 223.0 230.45 228.95 231.55 239.3 232.65 249.6 232.7 255.6 232.85 268.8 230.8 282.9 229.2 294.0 226.65 303.25 225.9 305.95 226.25 308.4 226.55 310.1 228.1 314.85 231.45 324.85 233.75 334.9 237.75 352.55 240.95 378.4 242.4 389.8 249.15 396.3 255.95 402.85 266.2 402.65 270.75 402.6 270.2 396.65 269.7 390.75 265.4 387.9 263.45 386.6 264.0 386.35 264.55 386.15 266.5 387.45 271.7 390.95 272.4 397.8 273.1 404.95 266.8 405.05 256.25 405.2 248.8 399.4 239.95 392.45 238.65 378.9 236.2 354.0 231.75 335.85 230.15 329.45 225.65 315.75 224.05 310.9 223.75 309.05 223.3 306.25 224.15 303.2 226.6 294.3 228.3 282.95 230.4 268.65 230.4 255.4 230.35 248.7 229.25 237.8 228.15 226.85 226.9 220.5"/><path fill="#0d131a" d="M275.45 385.9 Q273.6 384.5 274.4 384.45 275.25 384.45 277.15 385.85 280.8 388.55 281.85 394.4 282.85 399.7 281.1 402.05 279.65 404.0 274.75 404.2 270.1 404.35 268.8 403.05 268.6 402.85 269.1 402.25 269.65 401.7 269.9 401.85 L274.3 402.35 Q278.2 402.2 279.3 400.7 280.6 398.9 279.7 393.85 278.65 388.3 275.45 385.9"/><path fill="#0d131a" d="M268.35 375.6 Q268.15 375.35 268.75 374.8 269.35 374.3 269.55 374.55 272.3 377.8 279.2 380.15 282.2 381.2 284.35 383.8 287.15 387.25 288.0 393.2 288.5 396.9 286.15 399.3 283.8 401.65 280.3 401.3 279.95 401.25 280.05 400.45 280.1 399.6 280.45 399.65 283.1 399.95 284.7 398.05 286.35 396.05 285.85 393.0 285.35 389.35 283.15 386.0 281.0 382.7 278.65 381.65 L273.35 379.35 Q270.1 377.7 268.35 375.6"/><path fill="#0d131a" d="M329.9 387.1 Q337.45 390.65 343.5 390.55 347.65 390.5 349.05 387.8 350.45 385.25 348.75 381.7 347.75 379.55 345.25 377.65 342.75 375.8 339.2 374.6 336.9 373.8 337.7 373.35 338.5 372.9 340.7 373.75 348.1 376.5 350.25 381.05 351.85 384.55 350.85 388.1 349.45 392.75 343.6 392.85 337.1 392.95 328.7 389.3 319.85 385.4 318.15 381.0 L303.35 340.7 Q293.85 315.35 289.4 308.5 288.2 306.65 288.45 301.85 L289.55 291.6 Q291.15 277.1 290.65 266.7 289.9 250.0 284.2 235.15 284.15 234.9 285.45 234.35 L286.85 234.05 Q292.6 249.05 293.2 266.2 293.55 275.9 291.85 291.55 291.1 298.2 291.0 300.9 290.85 305.15 291.75 306.95 298.1 320.1 303.7 334.25 L312.25 357.35 Q317.75 372.75 320.75 379.8 322.35 383.5 329.9 387.1"/><path fill="#0d131a" d="M347.0 369.95 Q344.5 369.65 345.05 369.1 L348.15 368.85 Q354.8 369.75 357.75 377.6 360.2 384.25 357.6 387.7 355.15 391.0 349.85 389.65 349.55 389.6 349.5 388.55 349.45 387.55 349.8 387.65 354.15 388.75 356.1 386.25 358.2 383.55 356.2 378.15 355.1 375.15 352.9 372.95 350.35 370.4 347.0 369.95"/><path fill="#0d131a" d="M336.9 180.6 Q336.85 179.75 337.65 177.45 338.4 175.15 338.45 175.55 343.65 200.7 334.4 242.7 332.05 253.4 327.5 271.6 324.25 285.65 324.55 290.9 325.6 307.95 331.8 330.55 337.0 349.65 341.6 358.8 342.9 360.4 345.45 361.7 L350.0 363.7 Q354.7 365.5 357.2 367.6 361.05 370.8 362.35 376.1 363.7 381.5 361.45 384.65 359.65 387.1 356.9 387.1 356.6 387.1 356.85 386.05 357.05 384.95 357.4 384.95 359.3 384.95 360.25 382.95 361.4 380.45 360.05 376.25 358.6 371.55 355.3 368.95 353.25 367.35 348.55 365.55 345.15 364.25 343.6 363.4 340.6 361.8 339.7 359.95 334.2 348.8 329.5 330.65 324.35 310.85 322.45 291.15 321.95 285.9 324.25 274.3 L329.7 249.35 Q337.85 210.75 336.9 180.6"/><path fill="#0d131a" d="M335.1 41.2 Q334.95 40.8 335.6 40.25 336.25 39.65 336.35 40.0 337.85 43.45 341.3 47.0 L347.85 52.9 Q357.0 60.9 358.95 64.7 362.4 71.45 357.9 81.15 L350.9 96.75 Q348.6 102.75 349.7 105.75 351.05 109.35 360.7 114.25 363.85 115.85 371.55 119.1 385.75 125.4 391.1 136.5 396.2 147.1 393.2 162.4 L391.9 164.85 390.75 166.7 Q394.9 150.25 389.05 137.8 383.6 126.2 370.9 120.6 364.1 118.05 358.85 115.5 348.65 110.55 347.15 106.6 345.85 103.25 348.25 96.9 L355.55 80.8 Q359.7 72.0 356.4 65.35 354.4 61.25 346.5 54.35 L340.1 48.3 Q336.75 44.7 335.1 41.2"/><path fill="#0d131a" d="M407.3 48.35 Q407.05 48.15 408.05 47.9 L409.35 47.85 Q421.3 56.35 419.3 65.7 417.1 75.95 398.35 86.6 389.1 91.85 385.95 94.2 381.2 97.7 381.05 100.45 380.8 103.85 385.85 108.95 389.95 113.1 401.15 121.65 403.75 123.65 405.35 126.4 407.1 129.35 407.35 132.65 408.0 140.85 401.85 152.9 395.65 164.9 385.2 175.85 372.65 188.9 338.15 186.45 337.8 186.4 337.65 185.3 337.45 184.15 337.8 184.15 371.1 186.55 383.45 173.7 393.7 162.95 399.45 151.85 405.2 140.75 404.6 132.85 404.15 126.75 399.75 123.4 388.2 114.55 383.85 109.95 378.75 104.55 379.0 100.55 379.25 97.15 383.35 93.65 386.8 90.75 395.65 85.7 413.7 75.4 416.3 66.05 418.8 57.15 407.3 48.35"/><path fill="#0d131a" d="M376.3 46.05 Q375.95 45.9 377.2 45.6 378.45 45.35 378.85 45.6 389.55 52.0 390.35 58.7 391.15 65.65 384.65 73.75 380.4 79.05 372.4 85.35 364.9 91.3 366.3 96.95 368.35 105.2 388.85 113.4 L390.65 115.2 391.6 116.65 Q367.85 107.45 364.7 98.25 362.4 91.5 371.6 83.9 377.7 78.9 381.9 73.55 388.35 65.3 387.65 59.1 386.8 51.6 376.3 46.05"/><path fill="#0d131a" d="M269.3 70.8 Q269.65 70.85 270.45 72.2 271.3 73.55 270.95 73.5 258.3 71.25 246.25 64.95 239.2 61.25 227.25 52.95 216.5 45.45 211.25 42.95 202.65 38.8 194.65 39.4 175.05 40.9 164.45 49.75 153.95 58.5 155.85 71.5 158.05 86.35 151.2 89.9 145.15 93.0 133.25 86.15 121.35 79.3 104.5 63.0 97.9 56.65 88.4 54.65 80.0 52.9 72.4 55.0 67.4 56.4 63.65 59.75 60.25 62.8 59.15 66.2 58.35 68.75 56.75 79.3 55.0 88.85 52.4 89.7 47.6 91.25 32.5 84.2 18.3 77.6 3.3 67.45 5.55 71.55 9.4 76.7 13.15 81.8 16.05 84.7 19.4 88.1 14.8 86.35 L9.5 83.55 4.65 80.8 Q10.2 85.65 15.35 93.2 18.3 97.6 23.4 106.75 L29.05 116.45 Q32.1 121.05 34.85 123.05 46.75 132.0 54.35 131.25 60.8 130.55 68.8 121.7 73.35 116.65 80.45 121.8 86.15 125.95 98.1 140.7 109.2 154.4 116.85 158.95 129.45 166.35 140.1 156.6 143.15 153.75 145.25 152.8 148.35 151.35 150.4 153.3 L150.05 155.8 Q147.5 152.65 141.8 157.65 129.2 168.7 116.6 162.0 108.7 157.85 96.35 142.55 84.3 127.6 80.0 124.2 73.7 119.2 69.35 124.0 60.45 133.85 52.9 134.2 45.35 134.5 33.45 125.6 30.65 123.5 27.35 118.25 L21.45 107.85 Q15.15 96.45 13.25 93.55 8.0 85.45 2.1 80.75 -0.1 78.95 0.0 78.1 L2.7 78.15 Q4.15 78.6 8.5 81.2 L13.4 84.25 Q10.1 80.6 6.65 75.75 3.0 70.6 1.2 66.85 0.1 64.55 0.15 63.6 0.25 62.45 2.15 63.9 16.65 74.75 31.95 81.9 46.3 88.6 50.9 87.5 53.35 86.9 55.0 77.6 L57.35 65.0 Q61.0 55.35 71.8 52.4 79.6 50.2 88.85 52.4 99.05 54.8 106.05 61.6 125.35 80.25 137.25 86.0 145.35 89.9 149.75 87.65 156.1 84.4 154.25 71.75 152.25 57.95 162.05 48.35 172.45 38.15 192.45 36.75 202.35 36.05 212.0 40.75 217.0 43.15 228.85 51.45 241.35 60.15 246.3 62.85 256.95 68.6 269.3 70.8"/><path fill="#0d131a" d="M205.65 125.15 Q217.1 125.85 222.9 131.4 226.6 135.0 230.35 144.25 L228.35 145.25 Q224.5 135.75 221.45 132.6 216.3 127.4 205.55 126.75 L189.3 127.55 Q195.75 125.35 202.05 125.05 L205.65 125.15"/><path fill="#0d131a" d="M166.75 129.6 L163.3 132.4 133.7 139.25 Q126.75 140.85 122.85 140.35 118.9 139.8 116.5 136.95 114.35 134.4 112.45 128.65 L108.5 115.1 Q106.85 109.65 101.25 109.25 97.6 109.0 86.35 111.4 74.45 114.0 68.4 114.45 61.15 114.95 55.95 113.1 50.8 111.25 45.05 106.15 40.5 102.1 31.7 92.3 16.65 75.35 6.55 69.4 L10.3 71.2 15.75 74.25 Q20.0 77.55 24.7 82.35 L32.9 91.2 Q48.3 108.35 57.9 111.1 62.95 112.55 69.85 111.8 L85.85 108.85 Q98.25 106.15 102.15 106.5 108.65 107.1 110.65 113.9 L113.95 126.0 Q115.5 131.65 117.1 134.1 119.1 137.2 122.6 137.95 126.3 138.75 132.9 137.2 154.4 132.15 166.75 129.6"/><path fill="#0d131a" d="M279.6 96.5 Q279.9 96.65 279.55 97.4 279.2 98.1 278.9 97.95 246.7 82.75 227.65 78.3 201.8 72.25 188.95 82.15 185.85 84.55 184.65 89.1 183.9 91.8 183.5 97.75 182.9 107.25 180.25 110.9 176.45 116.05 164.9 118.25 157.75 119.6 150.4 118.6 141.95 117.4 137.45 113.4 133.4 109.8 129.45 103.3 126.85 98.95 122.9 90.65 114.35 72.95 106.3 64.35 104.2 62.1 106.85 63.8 109.45 65.55 111.55 67.8 115.45 71.95 119.05 78.45 121.15 82.2 125.0 90.45 129.0 99.0 131.1 102.6 134.65 108.8 138.5 112.2 142.45 115.7 150.25 116.65 L164.3 116.1 Q174.6 114.15 178.25 109.9 181.35 106.25 181.9 97.65 182.25 91.55 183.2 88.15 184.7 82.8 188.2 80.1 201.75 69.6 227.5 75.9 245.15 80.25 279.6 96.5"/><path fill="#0d131a" d="M37.85 178.55 Q32.0 183.7 29.45 190.6 26.85 197.85 28.6 205.2 30.5 213.25 37.35 220.0 47.9 230.45 64.75 232.7 83.8 235.3 103.35 225.6 103.65 225.45 103.25 226.7 L102.55 228.1 Q82.65 237.95 63.5 234.95 46.95 232.35 35.85 221.45 28.85 214.55 26.8 205.95 24.9 198.05 27.5 190.2 30.05 182.55 36.1 176.95 42.4 171.15 50.75 169.1 63.8 165.9 80.4 170.65 96.9 175.4 112.1 186.7 127.4 198.15 141.8 212.5 149.0 219.65 163.2 235.5 172.2 245.55 176.75 249.85 183.55 256.35 189.1 259.2 201.75 265.6 217.35 256.8 L216.65 258.25 215.5 259.95 Q200.15 267.6 187.55 260.5 182.05 257.45 175.3 250.85 L162.0 236.6 Q148.95 222.05 140.7 213.95 126.55 200.0 111.15 188.55 96.25 177.5 80.25 172.9 64.2 168.3 51.5 171.45 43.75 173.35 37.85 178.55"/><path fill="#0d131a" d="M56.45 174.2 L58.15 174.6 Q59.5 175.1 59.2 175.2 49.7 178.0 44.1 183.35 38.85 188.4 37.85 194.75 36.85 201.0 40.1 207.1 43.5 213.4 50.65 218.05 61.9 225.4 77.5 223.7 92.95 222.05 109.1 211.9 109.4 211.7 109.0 213.15 108.55 214.6 108.15 214.8 92.1 224.45 76.65 225.65 61.2 226.9 49.75 219.4 42.9 214.95 39.2 208.35 35.65 201.9 36.1 195.25 36.6 188.25 41.5 182.9 46.8 177.0 56.45 174.2"/><path fill="#0d131a" d="M164.0 164.45 Q168.25 170.45 181.95 180.1 197.0 190.6 204.35 197.8 217.35 210.4 224.35 226.6 230.1 239.9 228.2 250.95 226.5 260.95 219.0 267.0 211.8 272.85 201.85 273.1 191.45 273.4 181.75 267.5 176.35 264.2 170.25 258.0 L157.65 244.85 Q122.25 209.3 101.55 194.55 64.9 168.5 42.65 178.0 40.35 179.0 40.6 178.15 40.85 177.3 43.15 176.3 65.7 166.6 102.45 192.9 122.45 207.25 158.8 243.7 L172.25 256.95 Q178.4 262.85 181.6 264.95 190.65 270.85 200.5 270.85 210.05 270.85 216.95 265.5 224.2 259.9 225.9 250.4 227.8 239.9 222.25 227.1 215.35 211.15 202.85 198.8 195.6 191.6 181.05 181.4 166.95 171.55 162.6 165.85 155.65 156.65 158.35 144.1 L159.55 142.95 Q160.6 142.05 160.55 142.4 157.55 155.3 164.0 164.45"/><path fill="#0d131a" d="M174.05 132.05 Q192.35 123.15 216.15 124.45 239.95 125.75 261.5 136.75 282.05 147.25 291.5 160.25 298.75 170.15 299.1 180.8 299.4 187.85 296.45 194.85 292.4 204.5 282.7 212.05 295.05 206.5 300.65 197.0 304.95 189.7 304.95 181.0 304.95 167.5 294.55 154.4 284.1 141.2 265.3 131.15 245.7 120.6 223.75 118.15 201.85 115.65 183.7 121.9 168.8 127.0 159.6 137.6 151.45 147.0 151.45 155.65 153.9 148.3 159.65 142.3 165.45 136.25 174.05 132.05 M166.95 128.3 Q178.15 120.25 193.35 117.0 228.55 109.55 266.05 129.7 286.5 140.75 297.35 155.0 308.35 169.45 307.0 184.0 306.0 194.2 299.9 201.75 293.7 209.3 282.55 213.75 279.6 214.9 278.3 214.55 276.95 214.2 279.2 212.65 288.3 206.35 293.1 198.1 297.85 189.8 297.5 180.85 297.05 169.2 287.2 158.15 277.6 147.35 260.1 138.4 239.15 127.7 215.85 126.3 192.4 124.95 174.8 133.5 165.25 138.15 159.65 144.2 153.85 150.45 151.8 158.7 L152.05 160.0 Q153.75 167.3 161.85 175.5 166.85 180.55 179.7 190.65 191.6 200.0 197.1 205.1 206.2 213.6 210.95 221.6 221.3 239.05 219.6 251.35 217.7 265.0 201.1 269.35 L197.85 269.6 Q196.95 269.25 199.4 268.7 215.3 265.1 217.75 252.55 220.15 240.3 209.55 222.4 205.0 214.7 195.65 206.3 191.65 202.7 178.15 192.1 160.5 178.25 155.05 170.95 145.95 158.85 151.25 146.85 155.95 136.15 166.95 128.3"/><path fill="#0d131a" d="M389.9 168.1 Q389.6 168.1 390.2 167.3 L391.05 166.5 Q400.75 167.1 406.9 172.45 413.15 177.9 414.5 187.35 416.95 204.5 406.05 222.55 394.65 241.45 374.2 251.4 370.3 253.3 369.7 252.65 369.05 251.9 373.0 248.65 387.9 236.35 396.2 218.05 404.35 200.0 401.05 187.65 399.4 181.55 394.6 178.7 389.8 175.9 382.3 176.6 382.0 176.65 382.7 175.55 383.4 174.45 383.65 174.4 395.4 173.7 400.5 181.5 403.85 186.65 403.85 194.25 403.85 208.05 394.8 224.35 385.4 241.25 371.3 251.4 388.4 243.2 400.15 227.4 412.7 210.55 412.7 193.0 412.7 183.65 408.3 177.15 402.35 168.45 389.9 168.1"/><path fill="#0d131a" d="M108.35 154.05 Q108.6 153.85 109.1 154.5 109.55 155.15 109.3 155.35 103.25 159.6 102.3 168.8 101.35 178.3 107.1 183.55 L105.9 183.45 Q104.4 183.0 104.0 182.45 99.7 176.25 100.6 167.85 101.55 158.8 108.35 154.05"/><path fill="#0d131a" d="M103.15 147.65 Q103.45 147.55 103.7 148.3 103.95 149.1 103.6 149.2 94.8 151.95 92.05 162.25 90.9 166.7 91.7 170.65 92.55 174.8 95.3 176.95 L94.25 177.0 Q92.85 176.8 92.5 176.35 87.95 170.35 90.25 161.2 92.85 150.85 103.15 147.65"/><path fill="#0d131a" d="M274.75 244.9 Q274.55 244.3 275.1 243.1 275.7 241.9 275.75 242.35 276.55 247.4 282.55 257.25 288.85 267.45 291.75 267.15 292.1 267.1 292.15 267.9 292.25 268.7 291.9 268.75 288.2 269.15 282.2 259.9 277.15 252.0 274.75 244.9"/><path fill="#0d131a" d="M270.95 256.05 Q270.75 255.6 271.15 254.45 271.6 253.25 271.7 253.65 274.5 261.2 280.3 269.35 286.95 278.7 291.3 278.85 291.65 278.85 291.65 279.8 291.65 280.8 291.3 280.75 286.4 280.55 279.7 271.35 274.45 264.15 270.95 256.05"/><path fill="#0d131a" d="M311.9 17.1 Q311.9 17.35 309.3 16.5 306.65 15.7 306.65 15.45 306.25 16.9 306.25 18.4 306.25 21.0 307.15 22.8 308.05 24.5 309.1 24.5 310.15 24.5 311.05 22.8 311.95 21.0 311.95 18.4 L311.9 17.1 M309.3 15.8 Q313.15 16.7 313.15 16.95 L312.9 21.15 Q312.15 24.95 309.9 25.65 L305.5 22.2 Q304.95 20.5 304.95 18.55 304.9 16.6 305.4 15.1 L309.3 15.8"/></g></svg>