<?xml version='1.0' encoding='utf-8'?>
<svg xmlns="http://www.w3.org/2000/svg" version="1.1" width="465px" height="502px" viewBox="-0.2 0.25 465.3 501.8"><g><path fill="#ffffff" d="M353.5 47.15 L355.4 58.75 Q357.2 71.05 356.9 74.45 L360.8 80.45 Q364.7 87.55 364.7 92.9 L368.85 54.15 391.75 71.6 Q388.85 98.4 387.85 101.25 399.25 81.75 400.85 77.3 L416.95 101.75 Q404.75 138.15 403.45 140.75 418.5 121.5 422.4 114.25 L431.0 148.55 Q415.15 175.1 412.55 177.7 L417.4 175.25 Q423.95 170.95 432.55 161.8 L432.8 197.2 424.8 205.85 Q415.95 215.0 411.75 217.45 L412.1 217.65 414.55 217.15 Q420.0 215.4 433.35 208.1 L428.15 240.6 Q413.05 247.9 405.5 250.0 L410.35 249.4 Q417.1 248.35 426.85 246.1 L415.4 272.35 406.25 274.55 Q396.2 276.75 392.0 276.75 L394.9 277.6 411.25 279.6 398.5 300.95 389.95 300.6 Q380.8 300.0 377.7 298.85 L384.25 301.7 393.55 305.9 372.75 322.0 358.7 316.3 369.65 324.1 352.2 336.85 340.25 331.35 348.55 339.45 329.6 347.25 Q321.0 342.55 318.9 340.75 L324.65 348.55 290.6 361.0 282.5 351.9 286.4 361.0 269.0 363.35 Q265.45 357.95 261.75 351.35 254.4 338.15 253.9 332.15 267.75 317.4 283.05 299.0 313.7 262.2 321.0 244.0 328.3 225.8 332.0 164.65 333.85 134.1 334.25 107.2 334.9 101.7 332.45 70.75 L329.85 40.9 353.5 47.15"/><path fill="#ffffff" d="M130.5 24.65 L129.9 33.5 92.6 135.0 81.75 112.4 80.5 92.45 Q82.05 85.75 87.8 75.5 90.65 70.4 93.2 66.6 L93.65 72.95 96.75 69.7 102.8 47.25 130.5 24.65"/><path fill="#ffffff" d="M123.35 192.95 Q121.55 207.0 123.25 214.2 L126.05 202.8 Q129.15 190.9 130.75 188.3 L146.6 206.2 144.25 219.05 Q141.95 232.65 142.05 236.45 L145.25 228.3 Q149.1 219.1 152.15 213.7 L163.45 228.8 160.2 240.5 Q157.0 253.45 157.2 259.4 L170.9 241.15 180.3 254.9 172.65 269.5 183.8 259.95 192.85 276.3 184.85 293.5 196.15 283.75 201.55 296.1 198.25 301.65 Q193.25 302.45 187.2 304.45 175.1 308.45 169.9 314.55 164.7 320.65 144.85 297.1 138.65 289.75 131.75 280.25 L126.05 272.3 Q120.15 253.95 115.5 231.6 106.25 186.9 112.65 166.9 L125.55 180.3 123.35 192.95"/><path fill="#f9be00" d="M381.75 335.45 L389.4 336.25 391.2 339.85 387.3 345.05 374.7 342.05 381.75 335.45"/><path fill="#f9be00" d="M341.05 392.0 L359.9 411.6 345.6 430.3 325.95 412.0 325.2 414.2 332.35 429.65 310.4 443.05 303.75 431.35 285.7 371.3 307.25 355.05 354.45 353.9 368.75 355.5 Q384.2 357.55 389.8 360.0 L384.7 380.4 366.25 374.95 Q377.95 382.35 379.0 383.25 L366.4 403.3 325.95 376.1 341.05 392.0"/><path fill="#f9be00" d="M272.05 219.0 Q269.2 256.95 267.75 263.05 L246.8 290.6 228.95 305.85 226.4 301.95 Q220.4 290.3 210.95 267.15 L202.65 246.3 219.1 233.6 244.1 287.1 248.55 281.7 Q247.6 271.15 246.9 258.85 245.45 234.3 246.65 225.75 L272.05 219.0"/><path fill="#f9be00" d="M278.9 396.85 Q284.3 398.2 284.3 399.3 L287.9 448.6 276.85 449.1 273.45 395.7 278.9 396.85"/><path fill="#f9be00" d="M176.15 390.95 L179.8 393.4 178.2 409.9 Q173.9 412.7 163.4 415.25 L153.75 417.3 147.8 405.0 Q152.1 401.95 164.55 396.15 L176.15 390.95"/><path fill="#f9be00" d="M263.4 391.8 L276.8 385.55 278.75 414.1 280.95 451.2 Q281.3 459.75 280.45 464.65 279.6 469.45 277.85 469.45 276.4 469.45 274.9 466.9 L273.7 464.3 Q270.7 469.7 269.5 469.7 268.15 469.7 267.2 467.15 265.75 463.1 264.75 452.15 263.85 441.8 263.55 415.75 L263.4 391.8"/><path fill="#ffffff" d="M174.15 387.8 Q168.85 381.45 165.8 373.65 L163.8 367.1 246.75 332.0 268.7 332.65 286.5 374.55 Q283.2 379.9 275.3 386.2 271.35 389.35 268.05 391.45 L268.1 397.05 Q267.9 403.85 266.65 409.55 262.7 427.9 249.8 429.0 235.45 429.95 228.35 418.15 226.15 414.45 224.9 409.95 L224.15 406.15 Q191.1 408.1 174.15 387.8"/><path fill="#f9be00" d="M388.1 346.1 Q388.1 347.4 385.35 348.7 L382.6 349.8 385.5 351.4 Q388.35 353.2 388.1 354.5 387.95 355.35 383.35 356.55 378.3 357.95 371.15 358.85 351.7 361.25 332.55 358.4 L320.6 343.35 322.1 342.5 328.35 347.25 346.55 337.75 341.2 331.65 352.9 337.6 382.55 343.35 Q388.1 344.85 388.1 346.1"/><path fill="#f9be00" d="M200.6 281.5 Q197.85 272.8 199.25 271.95 200.15 271.4 202.3 273.25 L204.25 275.15 Q203.75 274.3 203.45 273.05 202.85 270.6 204.0 268.75 205.15 266.9 216.0 284.2 L226.65 301.9 209.85 301.05 Q203.7 291.6 200.6 281.5"/><path fill="#8cc456" d="M277.6 374.1 Q276.1 373.95 271.9 367.6 L268.0 361.3 Q275.9 360.9 285.3 358.95 L290.0 367.65 Q290.85 369.1 290.9 370.5 290.95 372.0 290.0 372.75 289.1 373.5 284.2 373.95 279.8 374.3 277.6 374.1"/><path fill="#8cc456" d="M326.55 349.75 Q330.35 353.45 332.05 355.8 L335.0 360.25 Q335.15 362.3 329.35 364.95 323.8 367.5 314.7 360.4 311.85 358.2 309.0 355.25 L306.7 352.8 Q314.8 350.05 323.05 346.55 L326.55 349.75"/><path fill="#8cc456" d="M345.25 335.95 L358.15 346.65 359.4 348.6 Q360.0 350.85 356.8 352.55 350.2 356.05 347.1 356.05 343.9 356.05 334.6 350.7 L325.95 345.3 Q336.25 340.75 345.25 335.95"/><path fill="#8cc456" d="M370.3 343.95 Q367.25 344.1 357.05 339.45 L347.45 334.8 347.95 334.55 Q358.15 329.05 367.35 322.5 L382.15 332.9 383.45 334.45 Q384.25 336.3 381.85 338.0 L375.4 341.95 Q371.7 343.9 370.3 343.95"/><path fill="#8cc456" d="M369.6 320.85 Q380.05 313.1 388.6 304.25 L413.1 314.05 415.05 315.45 Q416.3 317.35 413.1 319.7 409.55 322.3 402.0 326.05 394.85 329.5 393.45 329.65 391.6 329.85 380.4 325.35 L369.6 320.85"/><path fill="#8cc456" d="M435.95 294.15 Q431.7 300.0 429.0 300.55 425.25 301.35 392.15 300.5 401.2 290.45 408.2 279.0 L419.7 279.55 434.65 280.1 Q438.65 280.1 439.9 280.8 441.6 281.8 440.85 284.95 440.0 288.6 435.95 294.15"/><path fill="#8cc456" d="M457.8 242.4 Q456.85 247.85 453.65 253.2 450.5 258.5 446.8 260.95 442.25 264.0 426.35 269.0 L411.4 273.45 Q418.25 261.05 422.75 246.9 L434.55 243.7 449.75 239.7 456.0 237.9 Q458.65 237.75 457.8 242.4"/><path fill="#8cc456" d="M464.55 194.7 Q464.55 201.55 462.35 210.0 459.9 219.4 456.75 221.65 452.4 225.2 437.75 234.3 L424.0 242.7 Q428.4 227.05 429.8 209.85 L439.55 204.2 Q449.85 198.05 452.7 195.5 457.3 191.45 460.35 190.55 464.55 189.3 464.55 194.7"/><path fill="#8cc456" d="M458.1 145.4 Q459.3 152.5 459.4 156.4 459.6 163.35 457.3 167.25 453.8 173.15 430.45 200.0 L430.5 198.8 Q431.5 180.75 429.95 164.3 L438.9 155.0 451.1 142.7 Q454.35 139.65 455.8 140.2 457.3 140.75 458.1 145.4"/><path fill="#8cc456" d="M441.65 93.7 Q444.3 99.45 445.5 106.2 447.05 114.9 444.9 120.1 441.65 127.9 428.4 151.95 425.6 133.95 419.45 118.6 L436.25 91.0 437.95 90.1 Q439.95 90.0 441.65 93.7"/><path fill="#8cc456" d="M426.6 71.85 Q425.25 78.35 414.65 107.95 407.85 94.3 398.05 83.0 409.35 60.3 410.7 56.5 411.8 53.5 413.55 53.2 415.5 52.8 418.75 55.7 428.2 64.0 426.6 71.85"/><path fill="#8cc456" d="M394.5 46.55 Q394.25 56.5 391.5 76.05 381.35 66.0 368.6 58.55 L371.1 30.4 Q371.35 27.65 373.0 26.65 375.15 25.35 379.15 27.7 386.25 31.85 389.15 34.7 394.7 40.05 394.5 46.55"/><path fill="#8cc456" d="M348.45 22.85 Q350.9 31.2 354.4 51.35 346.15 47.85 337.8 45.6 L329.85 43.8 328.5 31.4 326.9 18.0 Q326.5 15.9 327.65 14.15 329.35 11.5 334.2 12.35 340.9 13.55 343.25 15.0 346.8 17.15 348.45 22.85"/><path fill="#8cc456" d="M201.7 279.15 L203.45 278.35 Q205.3 278.0 205.85 280.25 L206.85 284.85 Q207.05 287.05 205.85 289.05 L200.5 298.35 Q198.15 291.95 194.85 284.9 L201.7 279.15"/><path fill="#8cc456" d="M191.8 278.65 Q187.85 270.9 182.5 261.95 L192.2 253.25 194.1 252.4 Q196.05 252.05 196.5 254.5 L197.85 261.25 Q198.4 265.45 197.05 267.65 194.9 271.05 191.8 278.65"/><path fill="#8cc456" d="M185.7 245.65 Q183.55 249.1 179.45 256.9 L170.3 242.8 180.65 228.75 182.25 227.4 Q184.0 226.65 184.8 229.8 186.2 235.4 186.55 238.35 187.1 243.4 185.7 245.65"/><path fill="#8cc456" d="M151.5 184.6 Q150.2 190.2 146.25 209.6 L130.4 189.65 137.25 170.2 Q137.55 168.85 138.35 168.1 139.95 166.5 142.45 169.3 L148.05 175.55 Q152.3 181.1 151.5 184.6"/><path fill="#8cc456" d="M156.6 206.5 Q162.3 196.85 164.1 196.85 166.05 196.85 168.7 201.65 171.1 206.05 171.3 208.55 171.4 210.25 170.05 212.95 L167.85 217.55 162.8 231.9 151.25 216.1 Q153.75 211.3 156.6 206.5"/><path fill="#8cc456" d="M116.0 157.75 Q119.65 146.4 121.2 146.05 123.35 145.65 127.6 151.9 131.95 158.4 130.95 162.3 L125.0 183.2 112.65 169.0 Q114.15 163.4 116.0 157.75"/><path fill="#8cc456" d="M90.7 44.65 Q93.1 41.85 93.7 44.25 94.0 45.4 93.85 47.15 L93.1 67.85 Q87.0 79.2 80.95 93.95 80.1 72.9 79.7 68.3 79.4 65.1 83.65 56.45 87.55 48.4 90.7 44.65"/><path fill="#8cc456" d="M128.45 28.7 Q120.95 32.7 115.05 38.0 107.35 44.9 100.25 55.7 103.25 46.45 107.6 36.05 116.35 15.25 123.3 9.4 131.0 2.9 137.35 1.25 L141.15 1.1 Q142.45 1.65 141.85 3.1 140.3 6.95 128.45 28.7"/><path fill="#ffe792" d="M204.65 213.0 L204.55 210.5 Q204.6 207.95 205.3 207.75 207.35 207.15 215.45 224.95 219.5 233.85 223.15 242.85 L220.95 240.8 Q219.5 239.7 218.4 240.15 217.5 240.55 217.1 242.3 216.65 244.05 215.95 244.4 215.2 244.75 213.35 243.85 211.2 242.8 209.85 243.0 208.35 243.25 208.8 247.8 209.25 252.45 208.8 252.55 207.8 252.8 206.45 252.55 L205.3 252.25 Q201.65 243.4 198.75 234.05 192.9 215.4 196.5 213.15 197.3 212.65 199.1 214.25 L200.7 215.9 199.9 213.15 Q199.3 210.25 200.25 209.55 201.15 208.85 203.0 210.85 L204.65 213.0"/><path fill="#ffe792" d="M264.9 192.95 Q266.15 193.1 266.8 199.3 L267.9 198.25 Q269.15 197.2 269.95 197.4 270.75 197.6 271.0 213.25 L271.1 228.8 Q269.4 224.05 266.85 224.05 265.95 224.05 265.2 225.25 264.5 226.4 263.85 226.4 263.25 226.4 262.05 224.75 260.8 223.1 259.4 223.1 257.9 223.1 256.1 226.45 L254.0 229.9 Q253.55 229.95 252.9 228.55 252.25 227.1 251.5 227.05 249.85 226.95 248.45 230.05 247.45 232.2 247.05 234.45 246.95 224.6 247.9 214.55 249.85 194.55 255.2 193.75 256.3 193.6 259.0 199.15 L261.45 196.0 Q264.1 192.85 264.9 192.95"/><path fill="#ffe792" d="M321.8 429.9 Q322.2 425.9 323.05 425.7 323.95 425.45 325.7 427.45 327.4 429.4 328.55 429.0 329.65 428.65 329.6 426.7 L329.05 423.1 340.35 446.25 Q351.35 470.15 349.9 473.7 348.8 474.5 346.95 473.15 L345.3 471.65 345.55 477.25 Q345.6 482.9 344.5 483.4 343.4 483.9 339.8 479.9 L336.4 475.75 336.85 478.75 Q337.05 481.75 336.05 481.95 334.75 482.25 331.65 478.9 328.1 475.05 324.45 468.6 321.2 462.85 312.95 446.8 L305.6 432.4 Q306.4 433.8 308.2 435.0 310.5 436.55 311.95 436.0 313.05 435.55 313.0 433.75 312.9 431.95 313.55 431.7 314.05 431.55 316.15 433.5 318.25 435.45 319.85 434.7 321.4 434.05 321.8 429.9"/><path fill="#ffe792" d="M356.15 410.35 L355.5 407.25 371.25 425.45 Q386.8 444.05 385.5 445.9 384.7 447.0 381.65 446.85 L383.75 450.75 Q385.55 455.0 384.35 456.85 383.55 457.75 378.8 455.4 L374.2 452.9 374.8 454.45 Q375.15 456.25 374.05 457.35 371.95 458.65 358.1 444.2 L344.65 429.55 344.95 425.7 Q349.9 428.1 350.7 427.3 351.5 426.5 348.6 420.65 350.25 419.7 350.0 416.7 349.75 413.6 350.25 413.2 L352.55 413.3 355.25 413.25 Q356.45 412.45 356.15 410.35"/><path fill="#ffe792" d="M366.35 395.9 Q365.9 394.2 366.3 393.75 366.6 393.45 368.7 393.75 370.65 394.0 371.35 392.7 372.05 391.4 370.85 389.3 369.7 387.25 370.1 386.75 370.5 386.2 372.2 386.25 373.9 386.25 374.6 385.3 375.4 384.15 374.7 382.25 L373.4 379.7 382.65 385.9 Q392.75 392.8 396.9 396.15 402.0 400.3 407.55 406.35 413.15 412.45 412.8 413.65 412.5 414.65 411.05 414.75 L409.65 414.6 410.4 415.85 Q411.05 417.35 410.45 418.55 409.85 419.75 407.55 419.2 L405.35 418.4 406.05 419.45 Q406.7 420.65 406.3 421.45 405.7 422.6 403.3 422.0 399.6 421.0 389.0 415.85 379.15 411.1 369.2 404.85 L361.25 399.5 364.05 399.65 Q365.75 399.55 366.3 398.6 366.8 397.65 366.35 395.9"/><path fill="#ffe792" d="M386.15 363.6 Q387.25 362.1 385.45 360.45 L382.4 358.35 391.8 360.5 Q402.65 363.25 409.8 366.45 417.25 369.8 421.8 373.25 425.2 375.85 425.2 376.8 425.2 378.4 422.2 378.4 420.6 378.4 419.65 378.9 419.35 379.15 419.0 379.35 L421.45 380.75 Q423.8 382.5 423.6 384.1 423.35 386.15 418.5 386.55 413.05 386.9 403.9 384.9 395.85 383.1 384.6 379.95 L374.9 377.1 377.2 377.5 Q379.6 377.6 380.05 376.15 380.45 374.85 378.8 373.45 377.2 372.1 377.45 371.5 377.7 370.85 380.8 370.8 383.8 370.75 384.05 369.6 384.3 368.5 382.25 367.0 380.25 365.55 380.5 364.9 380.75 364.25 383.1 364.35 385.55 364.45 386.15 363.6"/><path fill="#ffe792" d="M386.25 344.75 Q386.05 344.15 385.05 343.05 384.2 342.2 384.25 341.5 384.3 340.85 386.2 340.45 388.15 340.0 388.25 339.4 388.4 338.2 384.25 336.8 L396.25 336.4 417.25 337.2 Q425.1 338.25 428.35 340.25 430.75 341.65 430.45 343.25 430.25 344.25 426.75 345.15 L423.3 345.8 424.6 347.05 Q425.8 348.6 425.5 349.8 425.2 351.05 408.2 352.15 L387.4 352.95 Q384.2 350.25 382.6 349.8 L385.45 348.4 Q388.3 346.75 388.2 345.65 388.1 344.55 387.15 344.55 L386.25 344.75"/><path fill="#8cc456" d="M71.3 87.85 Q72.2 87.2 75.1 94.95 L77.85 102.8 Q76.2 104.85 73.9 113.05 72.75 117.15 71.95 120.8 70.5 115.4 69.95 112.4 69.5 109.65 69.9 99.4 70.3 88.55 71.3 87.85"/><path fill="#8cc456" d="M113.85 140.5 Q112.5 142.7 110.6 150.6 108.9 157.55 108.45 161.4 108.25 155.45 108.3 148.5 108.4 134.65 109.5 129.7 L112.4 133.9 Q115.05 138.45 113.85 140.5"/><path fill="#ffe792" d="M285.25 442.95 L286.75 439.05 288.25 449.1 Q289.7 461.0 289.55 469.95 289.4 482.2 288.4 489.85 287.2 498.95 285.1 499.25 283.25 499.5 280.45 493.75 L278.05 487.95 277.35 490.5 Q276.35 493.0 274.8 493.0 273.3 493.0 271.9 480.8 L270.75 468.55 273.8 464.7 274.7 467.1 Q275.9 469.5 277.45 469.75 280.0 469.9 280.45 456.2 L280.45 442.45 Q283.25 446.15 285.25 442.95"/><path fill="#ffe792" d="M208.75 418.25 L213.55 415.8 Q211.55 420.15 207.65 430.25 203.2 442.0 203.7 442.7 L205.7 442.65 207.1 441.75 206.7 444.4 Q206.4 447.15 207.1 447.55 208.15 448.25 211.25 444.05 L211.05 445.85 Q211.0 447.75 211.8 448.15 213.0 448.75 221.9 436.6 L223.7 438.45 Q214.55 464.75 208.95 475.9 205.45 482.95 204.1 482.7 203.45 482.55 203.8 479.75 L204.7 473.8 Q205.1 471.15 204.85 470.1 L204.5 469.55 200.9 476.3 Q197.1 482.95 195.8 482.7 194.55 482.4 194.55 477.7 L194.8 473.0 193.3 475.25 Q191.5 477.4 189.95 477.0 188.05 476.55 188.75 468.95 189.5 461.05 192.4 454.8 L202.1 433.25 208.75 418.25"/><path fill="#ffe792" d="M297.75 205.9 Q296.7 218.35 287.5 235.25 282.85 243.65 278.45 249.6 279.65 241.4 281.2 232.2 284.35 213.85 286.2 208.8 288.1 203.75 289.3 202.65 289.9 202.05 290.1 202.5 291.8 202.8 292.6 206.45 293.35 209.9 293.85 209.75 L297.15 204.9 297.75 205.9"/><path fill="#f9be00" d="M248.6 281.35 L235.15 297.85 Q233.15 292.8 230.95 277.75 228.9 263.85 228.9 257.95 228.9 252.8 229.35 249.55 229.8 246.25 230.55 246.1 231.0 246.0 231.8 246.8 L232.5 247.6 233.7 244.9 Q235.0 242.15 235.6 242.15 236.2 242.15 237.0 244.75 L237.7 247.35 239.5 244.05 Q241.45 240.8 242.3 240.9 242.6 240.95 243.55 252.85 244.8 268.3 248.6 281.35"/><path fill="#f9be00" d="M273.75 242.45 Q274.7 242.45 275.8 247.45 L276.7 252.4 Q271.1 259.35 261.05 269.15 265.85 255.3 269.6 248.1 272.5 242.45 273.75 242.45"/><path fill="#ffe792" d="M191.75 420.85 L197.1 421.9 169.25 449.55 169.25 443.55 Q169.25 442.8 177.75 434.45 186.1 426.2 187.85 425.0 189.15 424.1 190.55 422.4 L191.75 420.85"/><path fill="#f9be00" d="M156.5 388.1 Q143.55 387.6 143.55 386.85 143.55 386.2 145.55 384.95 L147.5 383.8 Q141.55 384.0 141.4 383.1 141.05 381.35 151.6 377.4 160.95 373.85 165.75 373.0 L173.65 388.3 Q168.8 388.6 156.5 388.1"/><path fill="#f9be00" d="M214.25 414.35 L223.85 405.55 229.9 420.4 Q223.8 433.5 217.6 441.95 212.85 448.4 211.8 448.15 211.25 448.0 211.2 446.0 L211.25 444.05 Q208.3 447.95 207.1 447.55 206.3 447.3 206.45 444.4 L206.7 441.5 Q204.9 443.65 204.0 443.25 202.35 442.55 208.15 428.35 L214.25 414.35"/><path fill="#f9be00" d="M275.95 386.5 L287.05 374.6 295.2 399.75 Q303.8 426.8 306.1 436.6 308.55 447.2 308.55 453.3 308.55 458.15 307.2 458.5 306.25 458.75 303.7 455.95 L301.35 453.1 Q300.95 457.95 300.0 458.5 297.65 458.95 286.55 422.75 L275.95 386.5"/><path fill="#f9be00" d="M291.1 372.2 L283.95 354.35 290.3 360.95 294.75 359.2 305.4 363.95 314.85 373.0 Q326.0 384.6 334.6 397.45 344.1 411.65 348.2 419.65 351.6 426.25 350.7 427.3 350.0 428.1 347.4 426.95 L344.95 425.7 345.05 427.8 Q345.0 430.05 344.05 430.8 342.95 431.75 337.0 426.4 331.2 421.2 321.65 410.8 313.8 402.3 301.65 386.4 L291.1 372.2"/><path fill="#8cc456" d="M312.35 362.5 Q316.25 366.75 304.8 369.5 302.1 370.2 299.85 369.5 L298.1 368.7 287.85 358.35 Q296.65 356.35 305.45 353.3 L312.35 362.5"/><path fill="#ffffff" d="M178.45 392.05 L194.5 394.25 222.5 406.8 219.4 409.8 Q215.45 413.3 211.35 415.85 198.1 423.95 187.85 419.35 177.6 414.75 177.0 402.95 176.8 399.25 177.6 395.3 L178.45 392.05"/><path fill="#e95532" d="M137.05 19.8 Q139.65 17.2 141.55 18.05 142.45 18.45 144.25 20.9 145.35 22.4 145.2 25.2 145.05 28.55 142.85 31.9 138.85 37.85 130.85 55.95 120.45 79.5 114.9 99.8 107.2 128.2 107.0 154.5 106.75 190.05 119.25 230.9 126.85 255.7 139.15 274.1 154.6 297.25 176.85 309.25 171.0 312.05 164.6 319.95 161.45 323.9 159.4 327.25 L157.95 327.25 Q150.2 321.05 139.7 308.95 L130.75 298.1 Q121.75 290.15 119.4 286.75 117.95 284.6 119.65 283.85 L121.6 283.5 120.7 282.05 Q114.2 279.0 110.05 276.1 107.1 274.05 103.8 269.15 100.7 264.55 100.7 262.75 100.7 261.4 105.5 261.75 L110.25 262.4 110.4 261.7 Q98.25 253.75 90.4 246.05 88.4 244.0 86.6 238.5 85.2 234.3 84.65 230.55 84.25 228.05 85.3 227.25 86.2 226.6 87.7 227.5 89.5 228.55 101.05 234.15 85.0 218.65 81.6 214.15 78.5 210.1 76.0 204.2 73.0 197.15 73.15 192.0 73.25 187.1 75.1 187.5 75.7 187.65 78.7 190.2 L94.55 203.15 94.4 199.2 Q85.45 191.65 76.6 179.85 70.8 172.05 66.3 164.25 63.65 159.75 63.5 150.85 63.35 142.45 65.05 141.4 66.25 140.65 68.5 143.3 L72.05 148.05 82.95 162.05 92.2 174.15 Q86.55 164.15 80.2 146.15 L73.3 125.7 Q71.75 121.65 73.2 115.1 74.15 110.7 76.75 104.45 78.4 100.5 80.05 102.45 81.0 103.55 82.3 107.35 L91.15 130.05 Q90.15 121.7 89.6 108.05 L88.8 88.6 Q88.35 81.75 92.75 74.9 96.15 69.6 98.7 68.45 99.95 67.9 100.1 77.2 L99.95 86.65 Q105.0 65.5 120.0 42.3 129.75 27.2 137.05 19.8"/><path fill="#e95532" d="M343.8 95.9 Q349.7 74.55 351.5 72.75 353.6 70.65 357.65 75.8 360.9 79.9 362.75 84.45 364.0 87.55 364.2 90.5 364.35 93.05 363.7 97.95 362.35 108.4 354.5 131.7 L346.9 152.85 Q349.9 150.3 362.0 131.3 373.75 112.85 374.5 112.55 376.0 111.9 377.55 113.5 379.3 115.25 381.35 119.85 383.4 124.45 383.15 128.8 382.9 132.65 380.55 138.9 378.65 143.85 367.65 160.95 L357.05 177.0 Q358.95 176.2 373.1 166.5 386.8 157.05 388.65 156.55 390.9 155.9 392.0 160.3 392.75 163.6 392.6 167.15 392.25 174.6 387.7 178.45 377.6 186.9 362.5 197.1 L349.45 205.55 Q351.65 205.45 368.9 201.55 386.65 197.55 388.8 197.3 390.55 197.15 391.65 198.9 392.75 200.6 392.75 203.25 392.65 209.9 386.9 214.0 381.75 217.65 362.3 225.8 L343.9 233.2 363.95 232.3 Q384.25 231.65 385.45 232.85 386.9 234.3 385.3 238.85 383.7 243.5 380.55 246.65 377.85 249.35 358.6 253.25 L339.9 256.65 Q345.2 257.9 359.85 258.65 371.35 259.3 371.95 260.8 373.55 263.4 369.55 268.25 L363.55 274.15 Q362.2 275.45 344.0 275.75 L326.1 275.85 Q329.4 277.55 342.65 281.35 354.5 284.7 355.3 285.85 356.6 287.7 351.4 291.85 346.0 296.2 340.85 296.5 336.3 296.8 321.75 294.85 L308.15 292.85 Q311.15 295.85 322.15 300.25 332.15 304.25 332.95 306.2 334.0 308.85 329.75 311.25 326.4 313.15 322.15 313.95 319.45 314.45 305.05 310.45 L291.2 306.35 Q293.65 309.1 303.0 315.1 311.25 320.4 311.8 322.2 312.55 324.55 307.05 327.2 302.15 329.5 298.8 329.65 295.3 329.85 273.9 321.6 275.25 323.55 283.0 329.25 290.15 334.55 290.4 335.55 290.75 337.15 287.65 339.25 284.45 341.45 280.55 342.05 277.2 342.55 267.65 338.15 L258.8 333.65 Q256.2 336.95 252.5 339.15 249.8 340.75 244.2 343.0 229.95 348.75 218.35 359.2 208.2 368.35 202.6 372.1 194.3 377.65 187.4 378.15 179.85 378.7 173.9 372.6 172.05 370.65 170.55 368.3 L169.45 366.35 162.0 367.45 Q152.95 368.95 144.8 371.2 135.95 373.65 130.0 380.4 125.7 385.3 121.05 395.15 113.0 412.1 102.45 419.75 97.15 423.55 93.5 423.95 L76.9 410.3 66.65 387.95 90.25 362.35 92.1 362.65 98.15 363.1 Q99.35 363.15 102.3 363.95 L107.1 364.65 Q113.55 364.45 122.5 356.05 131.4 347.75 146.3 336.65 L159.4 327.25 Q174.95 303.65 204.35 301.0 219.1 299.7 230.7 303.1 234.6 295.5 253.35 277.0 274.0 256.65 282.25 244.4 292.4 229.3 299.85 196.8 302.2 186.6 304.0 175.95 L305.3 167.3 Q312.8 129.75 305.15 84.35 301.15 60.7 294.2 40.35 292.4 35.1 295.25 32.6 297.65 30.4 303.55 30.05 308.45 29.7 310.75 33.1 311.8 34.65 316.75 46.55 323.7 63.3 330.95 93.35 334.55 108.35 336.75 120.0 337.6 118.4 343.8 95.9"/><path fill="#2f8097" d="M248.75 415.5 Q252.45 415.0 255.4 417.15 257.7 418.8 256.7 423.35 L254.6 429.35 Q254.0 430.75 253.35 439.75 L252.8 448.45 256.25 443.35 Q264.65 432.85 265.9 430.45 268.4 425.75 268.85 425.15 271.25 421.65 273.7 421.95 276.4 422.3 277.9 425.6 279.3 428.6 278.9 431.8 278.65 434.2 274.7 438.2 L268.95 443.75 263.75 448.6 Q260.25 452.25 259.25 456.25 258.3 460.25 255.9 464.65 L253.25 469.25 Q252.6 470.6 252.4 473.5 252.1 477.1 252.95 479.85 254.25 484.3 253.4 487.4 252.2 491.85 246.7 491.5 241.3 491.15 240.55 486.3 240.15 483.8 241.2 478.9 241.65 476.75 241.95 471.75 L242.2 467.15 Q237.75 461.6 236.6 455.4 L236.4 450.3 229.8 442.2 Q226.75 438.6 224.55 437.75 222.35 436.9 220.75 435.35 L219.65 434.0 220.25 428.55 Q221.05 422.95 221.95 422.15 224.3 420.05 227.2 421.45 230.25 422.9 232.75 427.65 L240.35 442.0 239.5 428.4 242.2 429.1 Q241.65 428.0 241.45 426.3 241.05 422.85 242.75 419.65 244.65 416.05 248.75 415.5"/><path fill="#ffffff" d="M216.9 426.95 Q219.0 423.65 221.0 423.5 222.6 423.4 223.85 424.25 225.0 425.05 225.5 426.4 226.0 427.7 225.2 429.4 224.4 431.15 223.0 431.8 221.85 432.35 219.5 434.15 L216.15 436.75 Q214.4 438.0 214.5 437.4 214.15 431.2 216.9 426.95"/><path fill="#ffffff" d="M250.45 411.7 Q253.25 411.8 254.6 414.0 255.9 416.15 255.15 419.1 254.45 421.75 252.85 425.25 251.3 428.45 251.0 428.45 245.65 424.25 244.85 418.65 244.3 414.9 246.35 413.05 247.9 411.65 250.45 411.7"/><path fill="#ffffff" d="M271.05 427.65 Q271.8 424.0 275.8 423.85 279.75 423.65 281.8 427.05 283.5 429.8 283.45 431.2 283.4 431.9 283.05 432.05 280.95 431.35 279.55 431.45 L275.5 431.8 Q272.7 431.85 271.6 430.25 270.8 429.1 271.05 427.65"/><path fill="#ffffff" d="M247.2 487.1 Q252.15 487.4 251.25 491.95 250.7 494.75 247.65 501.05 L245.65 498.5 Q243.55 495.35 243.05 492.6 242.5 489.7 244.25 488.15 245.55 487.0 247.2 487.1"/><path fill="#2f8097" d="M179.7 418.55 Q183.8 414.45 185.7 413.75 188.3 412.75 191.05 415.5 193.55 418.05 191.5 421.45 190.45 423.2 188.9 424.4 L179.85 432.4 Q170.6 440.95 169.45 443.95 167.4 449.25 171.8 465.15 172.95 469.35 171.8 471.65 171.25 472.8 170.45 473.1 L168.45 473.3 Q165.9 473.25 163.2 471.9 160.5 470.55 160.35 467.1 160.65 463.2 160.55 461.65 160.4 459.65 158.6 458.3 L153.35 455.4 Q150.15 453.7 148.85 452.35 L145.0 447.2 Q142.55 443.7 137.8 441.8 135.05 440.7 129.2 439.55 L120.95 437.65 Q116.85 436.1 116.65 432.9 116.5 429.55 120.6 428.4 124.15 427.4 128.5 428.35 131.65 429.0 137.7 432.0 L143.15 434.9 Q141.5 432.95 138.1 430.3 133.6 426.85 130.15 425.7 126.8 424.6 125.2 423.35 L123.7 421.6 Q122.85 420.45 122.4 418.25 121.9 415.85 122.55 414.75 123.5 413.05 125.75 412.15 128.8 411.0 131.9 412.8 134.9 414.5 141.5 420.85 L147.45 426.85 147.95 426.45 142.4 417.55 Q137.35 416.0 136.7 414.3 136.55 413.8 136.9 408.2 137.15 404.2 140.2 403.15 142.3 402.45 145.3 403.2 147.15 403.65 149.85 408.45 L153.7 416.4 161.95 436.85 179.7 418.55"/><path fill="#ffffff" d="M142.95 407.8 Q143.55 409.45 142.4 411.1 141.4 412.5 140.25 412.8 L134.75 414.5 Q130.15 415.95 129.95 415.7 129.7 415.45 131.05 412.95 132.4 410.4 133.95 408.3 135.65 405.95 136.7 405.4 L140.05 405.25 Q141.3 405.6 141.45 405.7 142.4 406.25 142.95 407.8"/><path fill="#ffffff" d="M121.75 414.05 Q125.1 412.9 127.35 416.1 128.2 417.4 127.35 419.15 126.35 421.05 124.0 421.6 L118.55 423.55 Q115.45 424.8 115.1 424.3 114.65 423.65 117.7 419.05 120.7 414.45 121.75 414.05"/><path fill="#ffffff" d="M122.4 434.7 Q122.6 435.9 122.05 436.55 L113.75 443.75 Q112.35 443.05 113.7 437.9 114.95 433.05 115.8 432.45 116.95 431.5 118.25 431.4 119.75 431.2 120.95 432.25 122.2 433.25 122.4 434.7"/><path fill="#ffffff" d="M162.8 471.25 Q163.1 470.1 164.65 469.55 L168.0 469.65 Q169.6 470.25 169.9 472.3 170.2 474.05 169.55 475.15 L166.1 479.8 Q163.2 483.55 162.9 483.55 162.5 483.55 162.8 471.25"/><path fill="#08294d" d="M115.7 393.75 Q113.95 398.95 109.85 402.85 103.55 408.8 92.95 410.2 L89.55 409.4 Q85.35 408.2 81.35 406.25 77.35 404.3 76.15 401.05 L75.7 398.25 Q78.1 397.85 81.55 396.15 88.4 392.8 93.6 386.55 99.25 379.75 104.65 378.15 108.85 376.95 112.3 378.9 115.05 380.45 116.0 385.45 116.9 390.1 115.7 393.75"/><path fill="#ffffff" d="M90.65 394.9 Q95.6 390.65 97.2 389.45 99.6 387.7 101.4 388.15 103.7 388.7 104.35 391.55 105.1 394.85 103.0 399.8 101.1 404.4 96.6 407.65 93.0 410.25 91.6 410.1 86.8 409.5 81.7 405.8 L77.55 402.25 Q78.55 402.2 82.15 400.35 86.8 398.0 90.65 394.9"/><path fill="#e9545d" d="M81.75 400.7 L91.75 394.65 Q93.95 396.3 94.55 399.45 95.15 402.75 93.55 405.75 92.15 408.45 89.1 408.7 86.6 408.95 85.15 407.85 83.05 406.15 82.2 403.7 81.6 402.05 81.75 400.7"/><path fill="#f9be00" d="M57.25 394.1 L62.2 389.65 Q64.55 387.9 67.15 388.0 69.55 388.05 70.8 390.45 L76.0 399.9 Q79.8 405.9 85.3 408.2 88.3 409.5 92.6 410.15 L96.95 411.35 Q98.85 411.95 99.0 412.65 99.25 413.75 96.75 418.45 L88.0 433.95 Q83.3 442.3 79.45 451.0 L75.65 458.85 Q74.45 460.4 63.2 466.85 L47.1 475.85 Q39.1 480.3 37.55 478.55 36.95 477.85 37.15 476.35 37.4 474.7 38.6 473.25 L52.4 456.6 62.05 427.0 55.45 427.5 Q48.15 427.75 40.35 427.25 32.65 426.7 22.7 431.65 18.05 433.95 10.4 439.15 5.6 442.45 1.8 444.25 0.0 437.3 2.85 429.85 4.0 426.75 9.25 417.8 12.3 412.6 16.15 409.25 19.55 406.25 22.2 405.8 L31.45 405.4 Q39.35 405.3 42.4 405.55 45.05 405.75 49.9 401.35 L57.25 394.1"/><path fill="#922f00" d="M64.6 442.95 Q66.1 441.05 73.45 436.85 L80.45 433.05 78.95 438.2 76.3 446.2 Q73.85 452.35 65.75 459.1 61.25 462.85 51.5 469.25 41.75 475.6 41.25 475.1 40.85 474.7 46.05 468.5 L54.85 458.3 Q57.6 455.1 60.75 449.5 64.0 443.7 64.6 442.95"/><path fill="#ed8599" d="M83.4 416.35 Q86.8 415.5 88.75 415.5 L80.55 433.6 Q73.7 436.55 72.05 437.45 66.65 440.4 62.45 444.95 58.0 449.8 52.4 454.15 47.3 458.1 46.5 457.75 42.8 455.9 51.75 441.55 L61.45 427.55 Q65.75 424.55 69.35 422.25 76.65 418.05 83.4 416.35"/><path fill="#f9be00" d="M47.0 315.9 Q50.6 308.05 58.75 308.5 62.85 308.75 66.2 310.55 72.25 302.75 78.8 306.2 82.1 307.9 84.15 311.15 94.0 306.9 98.05 313.95 99.55 316.55 99.85 320.05 100.1 323.2 99.35 325.2 L94.75 337.05 Q91.4 346.65 91.1 353.55 90.9 359.75 93.5 364.2 95.95 368.35 95.75 370.05 95.3 373.75 92.15 376.85 88.8 380.25 83.3 381.9 78.5 383.35 73.85 386.4 L70.15 389.15 62.05 388.45 Q59.35 387.3 55.65 384.8 48.3 379.85 43.5 373.25 38.7 366.65 38.25 354.6 L38.75 343.85 Q32.7 342.15 30.25 337.3 29.5 335.8 29.2 334.2 L29.05 332.85 Q29.7 320.75 38.4 317.1 42.75 315.3 47.0 315.9"/><path fill="#8cc456" d="M160.2 336.4 Q154.1 342.45 149.45 356.9 147.1 364.15 146.0 370.2 141.7 371.45 134.95 376.25 L129.05 380.8 Q129.8 372.65 134.15 361.45 L137.8 351.55 Q137.4 350.85 133.2 350.85 L129.1 351.0 143.6 338.45 Q151.9 335.5 156.9 335.65 159.4 335.75 160.2 336.4"/><path fill="#dbdcdc" d="M177.05 390.9 Q171.7 385.5 168.25 378.85 L165.8 373.3 Q167.15 375.65 171.2 379.15 176.3 383.6 182.9 387.1 201.6 397.0 224.0 395.6 L223.1 406.65 Q194.1 408.15 177.05 390.9"/><path fill="#dbdcdc" d="M265.9 382.55 Q265.55 381.0 266.05 379.55 266.4 378.5 267.0 377.85 271.3 373.3 273.15 369.65 L274.05 370.9 Q275.25 372.35 276.75 373.3 278.3 374.25 282.2 374.15 L285.85 373.9 284.75 376.15 Q283.3 378.9 281.4 381.35 275.45 389.35 267.65 391.8 267.9 389.35 265.9 382.55"/><path fill="#dbdcdc" d="M267.45 404.15 Q267.0 408.5 265.95 412.45 262.55 424.95 254.85 428.2 L257.15 422.3 Q257.8 420.55 256.6 418.75 L255.25 417.3 Q255.55 416.5 255.0 415.15 L254.35 413.9 Q262.05 412.0 265.65 406.1 266.8 404.25 267.4 402.2 L267.75 400.55 267.45 404.15"/><path fill="#dbdcdc" d="M243.45 418.6 Q242.3 420.25 242.1 422.6 241.8 426.4 242.05 428.4 229.05 424.5 225.2 412.4 224.0 408.65 223.85 404.5 L223.95 401.1 Q224.55 404.3 229.75 408.55 236.45 414.05 245.3 414.65 L244.6 417.4 243.45 418.6"/><path fill="#dbdcdc" d="M177.7 395.5 L178.5 393.25 183.4 396.45 Q189.45 400.15 195.2 402.65 200.9 405.1 212.3 406.1 L222.55 406.6 Q212.35 417.8 201.4 420.55 197.95 421.4 194.85 421.25 L192.45 421.0 Q192.75 420.4 192.7 419.35 192.6 417.25 190.8 415.15 188.95 413.1 185.7 414.15 184.3 414.9 182.85 415.6 176.2 410.0 176.7 401.05 176.85 398.25 177.7 395.5"/><path fill="#1e6579" d="M192.05 417.35 Q192.85 418.7 191.9 420.7 L190.85 422.4 181.0 431.05 Q170.9 440.3 169.6 443.35 168.25 446.55 169.55 453.7 170.25 457.8 172.15 464.45 173.1 467.85 171.75 470.95 171.1 472.5 170.25 473.4 170.4 471.2 167.55 469.95 L164.7 469.15 Q164.4 468.3 164.4 466.35 L164.35 462.95 Q164.2 460.9 163.25 459.9 161.85 458.45 156.95 456.35 151.15 453.85 146.75 449.45 L146.45 449.6 145.95 448.6 145.8 448.4 145.85 448.4 Q143.35 444.25 139.4 442.5 136.2 441.1 132.8 440.35 L128.25 439.45 124.1 438.8 Q121.6 438.35 120.95 437.6 122.5 436.75 122.65 435.25 122.8 434.3 121.5 432.7 L120.15 431.35 125.5 431.35 Q133.0 432.1 143.75 435.55 L146.2 439.45 146.45 439.25 Q142.6 432.95 136.35 428.5 134.9 427.55 129.25 425.85 125.0 424.55 123.65 422.05 L125.4 421.25 Q127.2 420.2 127.4 419.05 L127.6 416.7 127.55 415.8 Q136.2 417.75 144.8 425.1 148.75 428.55 151.85 434.0 L152.4 432.7 Q144.8 420.2 142.25 418.0 141.0 416.9 138.6 416.1 136.45 415.4 135.65 414.45 140.9 412.8 142.25 411.6 143.3 410.7 143.45 409.4 143.65 408.05 142.75 407.05 L148.7 413.2 Q155.25 420.65 158.3 427.3 L163.5 439.5 189.0 414.3 190.05 415.0 Q191.25 416.0 192.05 417.35"/><path fill="#1e6579" d="M256.4 418.75 Q257.5 420.25 256.55 423.1 L253.85 431.2 252.65 449.1 Q261.8 435.9 264.85 432.05 267.85 426.9 269.65 424.7 272.85 420.85 276.15 423.6 L273.1 424.7 Q270.2 426.4 271.25 429.65 272.0 432.0 274.7 431.6 278.3 431.15 279.7 432.05 L277.2 435.85 Q274.15 439.95 271.4 441.3 268.5 442.75 264.9 447.15 262.25 450.45 260.45 453.65 L257.55 461.25 Q255.4 467.0 253.5 468.5 L252.35 471.9 Q249.5 468.95 245.65 469.7 L242.35 471.05 242.2 466.8 Q240.4 465.0 238.75 462.1 235.45 456.25 236.3 450.75 228.55 440.45 226.65 439.1 L222.85 437.25 Q220.35 436.0 219.9 434.05 224.45 431.0 225.15 429.5 225.85 427.95 225.15 426.25 224.2 424.0 220.95 423.1 L223.8 421.4 Q227.15 420.3 229.9 423.6 232.6 426.85 236.75 434.85 238.85 438.8 240.35 442.15 L239.5 428.15 242.05 429.0 Q241.8 426.75 241.95 424.2 242.2 419.05 244.25 417.35 L246.95 422.85 Q249.85 428.3 251.0 428.3 252.25 428.3 253.65 423.95 254.85 420.3 255.05 417.85 L256.4 418.75"/><path fill="#dbdcdc" d="M140.6 405.75 Q142.9 406.85 143.1 408.6 143.25 409.7 142.45 411.3 141.75 412.75 130.25 415.85 131.8 413.4 136.35 409.3 L140.6 405.75"/><path fill="#dbdcdc" d="M125.45 414.75 L126.4 415.25 Q127.4 416.0 127.7 417.05 128.0 418.3 127.2 419.5 126.5 420.65 125.2 421.15 L115.0 424.45 Q116.4 422.55 120.0 419.15 123.8 415.55 125.45 414.75"/><path fill="#dbdcdc" d="M121.9 432.75 Q122.5 433.6 122.55 434.75 122.55 435.8 122.15 436.3 L113.75 443.6 Q114.7 439.9 117.2 435.5 L119.55 431.85 120.4 431.85 Q121.35 431.95 121.9 432.75"/><path fill="#dbdcdc" d="M165.55 469.45 Q168.75 470.2 169.6 471.7 170.1 472.6 169.85 474.4 169.6 476.15 162.7 483.4 L165.55 469.45"/><path fill="#dbdcdc" d="M223.25 424.45 L224.55 425.2 Q225.8 426.15 225.8 427.3 225.8 428.65 225.0 429.7 224.3 430.65 222.35 432.0 L214.7 437.4 Q215.55 432.65 219.15 428.25 221.95 424.8 223.25 424.45"/><path fill="#dbdcdc" d="M248.5 412.4 L249.3 412.75 Q250.25 413.3 250.85 414.6 252.85 418.7 251.0 428.3 249.15 426.6 247.45 424.25 244.0 419.55 244.8 416.45 245.6 413.35 247.1 412.55 L248.5 412.4"/><path fill="#dbdcdc" d="M275.5 431.6 Q274.4 432.0 272.75 431.1 271.0 430.15 270.95 428.65 270.85 427.35 271.45 426.55 L272.05 426.05 Q273.5 425.2 276.7 426.05 281.0 427.25 283.4 431.6 L282.95 431.9 281.15 431.75 Q279.8 431.3 278.15 431.3 L275.5 431.6"/><path fill="#ce7486" d="M81.1 416.9 Q85.8 415.55 88.7 415.55 L80.2 433.4 72.1 437.25 Q67.85 435.65 60.7 436.5 L54.35 437.65 61.05 426.7 62.95 426.45 Q71.75 419.65 81.1 416.9"/><path fill="#d7a400" d="M45.3 375.05 Q46.95 376.6 50.35 378.1 55.25 380.2 61.55 381.25 77.5 383.8 90.4 377.9 83.75 381.85 79.8 382.85 77.35 383.5 73.4 386.15 L69.9 388.65 Q67.7 386.85 64.95 387.45 L62.65 388.45 Q55.1 385.5 49.0 379.4 L45.3 375.05"/><path fill="#d7a400" d="M41.3 343.5 Q33.4 343.9 30.65 337.2 29.8 335.15 29.55 332.6 L29.55 331.0 Q29.75 332.9 32.9 335.55 36.8 338.9 40.45 338.35 43.85 337.8 46.35 335.95 L48.15 334.2 47.75 338.5 Q46.35 342.9 41.3 343.5"/><path fill="#d7a400" d="M62.85 323.65 Q63.0 328.45 60.95 331.05 59.95 332.4 58.9 332.75 L58.3 327.35 Q60.6 327.1 61.95 325.35 L62.85 323.65"/><path fill="#d7a400" d="M73.0 325.5 Q74.7 326.65 76.7 325.25 L78.35 323.65 76.9 326.9 Q74.85 330.1 72.15 329.85 L73.0 325.5"/><path fill="#d7a400" d="M85.6 325.3 L90.0 325.1 91.85 323.65 90.35 326.45 Q88.25 329.15 85.4 328.6 L85.6 325.3"/><path fill="#ca4829" d="M268.0 286.25 Q277.45 276.95 290.3 257.9 296.7 248.4 301.2 240.7 296.1 255.55 285.55 271.65 276.4 285.7 266.1 296.4 255.4 307.45 245.3 325.15 240.25 334.0 237.3 340.65 237.3 331.65 246.95 314.5 256.6 297.35 268.0 286.25"/><path fill="#ca4829" d="M146.15 370.25 L147.95 362.85 154.4 362.25 161.8 361.9 Q168.0 361.45 173.3 360.1 186.6 356.75 195.35 347.75 L190.25 353.65 Q180.7 361.95 173.85 364.3 170.2 365.55 154.4 367.85 150.3 368.7 146.15 370.25"/><path fill="#79aa4a" d="M130.75 369.6 Q137.65 364.4 147.95 362.85 L146.15 370.25 Q135.25 374.2 128.8 381.55 L130.75 369.6"/><path fill="#ca4829" d="M128.8 381.55 L126.2 384.8 124.4 387.35 Q122.9 389.6 117.5 401.05 111.55 412.45 106.05 416.7 100.35 421.05 96.45 422.8 L93.7 423.65 Q96.35 420.6 98.1 416.25 L99.3 412.5 Q104.8 409.9 107.65 406.95 114.25 400.2 119.3 385.75 122.9 375.4 130.75 369.6 L128.8 381.55"/><path fill="#d7a400" d="M93.25 415.3 L84.4 416.0 Q81.1 416.4 72.45 421.25 L62.95 426.45 51.0 427.35 Q40.65 427.65 36.45 427.15 32.6 426.7 23.75 431.35 17.95 434.4 8.8 440.4 3.25 444.05 1.9 444.0 1.2 443.95 1.6 443.2 13.0 433.2 17.15 429.95 21.35 426.7 26.9 424.6 34.3 421.8 40.65 422.75 L53.9 423.5 Q59.75 423.25 62.3 422.25 L74.2 417.05 Q85.35 413.1 93.25 415.3"/><path fill="#0d131a" d="M337.55 119.1 Q337.55 119.5 336.55 120.6 335.6 121.75 335.55 121.35 334.3 103.2 324.05 70.75 315.95 44.95 311.45 35.9 310.25 33.55 309.1 32.4 307.9 31.25 306.45 31.0 304.3 30.65 300.1 31.8 295.55 33.05 294.7 34.7 293.95 36.05 294.7 38.05 307.35 74.3 309.5 108.4 312.4 155.45 297.6 211.85 293.05 229.15 283.1 245.1 274.75 258.55 264.9 267.55 225.45 303.5 220.3 327.15 220.05 328.35 219.35 328.2 218.7 328.1 218.9 326.85 221.3 314.0 232.05 299.15 242.7 284.4 262.95 265.95 272.6 257.1 280.85 243.9 290.65 228.2 295.1 211.1 309.85 154.95 307.1 108.45 305.05 74.45 292.5 38.65 291.6 36.05 292.85 33.6 294.05 31.4 299.2 29.85 303.95 28.45 306.7 28.9 310.75 29.55 313.55 35.1 318.35 44.8 326.15 69.0 336.25 100.45 337.55 119.1"/><path fill="#0d131a" d="M141.85 17.0 Q143.35 17.8 144.55 19.85 147.5 25.25 144.55 30.85 L142.35 34.9 Q129.25 58.55 121.85 80.25 109.0 117.9 108.8 157.6 108.6 204.5 126.1 246.5 145.7 293.4 178.45 308.55 178.8 308.7 178.1 309.4 177.4 310.15 177.05 309.95 145.8 295.55 126.05 251.75 106.8 209.2 106.8 158.5 106.75 118.9 119.9 80.35 127.55 57.8 140.75 34.0 L142.9 30.0 Q145.35 25.4 143.2 20.65 142.6 19.35 141.45 18.7 140.3 18.0 139.55 18.7 129.15 29.1 118.55 46.8 99.6 78.3 95.85 111.7 95.7 113.05 95.0 113.0 94.35 112.95 94.45 111.6 97.45 77.6 116.85 45.3 123.4 34.4 130.75 25.5 136.35 18.65 138.55 17.2 140.15 16.1 141.85 17.0"/><path fill="#0d131a" d="M92.15 162.95 Q92.5 160.5 93.05 161.0 93.55 161.5 93.5 162.8 92.35 197.7 102.65 235.0 118.95 293.95 158.85 326.4 159.15 326.65 158.55 327.4 157.9 328.15 157.6 327.9 116.1 294.5 99.75 233.15 94.0 211.55 92.25 189.5 90.9 172.5 92.15 162.95"/><path fill="#0d131a" d="M314.95 183.4 Q315.25 180.3 315.9 181.0 316.5 181.7 316.4 184.1 315.5 204.2 309.3 222.95 300.1 250.8 279.7 274.6 257.3 300.75 250.45 310.9 239.9 326.4 237.75 340.55 237.55 341.7 237.0 341.65 236.4 341.6 236.5 340.4 238.05 325.6 248.3 309.85 255.5 298.7 277.45 272.95 297.15 249.85 306.25 224.75 312.75 206.85 314.95 183.4"/><path fill="#0d131a" d="M96.25 68.7 Q97.75 67.25 99.2 67.85 100.8 68.45 100.85 71.15 L100.65 86.65 Q100.65 87.05 99.6 88.25 98.5 89.45 98.5 89.05 L98.8 80.35 99.0 70.75 Q98.95 69.65 98.55 69.35 98.15 69.1 97.5 69.7 96.4 70.65 94.8 72.95 92.9 75.6 91.6 78.4 89.75 82.45 89.75 90.1 L90.3 105.4 Q91.0 120.9 91.95 129.4 92.15 131.2 91.35 131.25 90.55 131.3 89.95 130.0 87.85 125.7 84.65 116.6 L81.1 106.35 Q80.15 103.65 79.6 103.15 78.85 102.45 77.85 104.35 76.8 106.45 75.4 110.65 74.2 114.3 73.7 116.45 72.7 120.9 73.9 125.05 L79.95 143.2 Q87.1 163.3 93.0 174.5 93.2 174.85 92.65 176.0 92.1 177.2 91.95 176.85 85.95 165.55 78.4 144.7 L71.95 125.85 Q70.7 121.55 71.9 116.0 72.4 113.85 73.65 110.1 75.1 105.8 76.2 103.55 77.6 100.75 79.45 101.1 81.15 101.4 82.3 104.05 83.4 106.5 85.85 113.9 L89.75 125.8 Q87.3 98.25 87.75 88.4 87.9 85.05 88.2 83.3 88.7 80.35 89.95 77.65 91.3 74.75 93.35 72.0 94.9 69.95 96.25 68.7"/><path fill="#0d131a" d="M62.6 145.25 Q62.85 141.0 65.2 140.45 67.4 139.9 69.35 142.55 82.75 160.55 90.8 170.8 91.05 171.1 91.15 173.0 91.3 174.85 91.05 174.55 L80.35 160.55 67.85 143.65 Q66.65 141.9 65.8 141.95 64.65 141.95 64.45 145.35 64.25 148.9 64.75 156.3 65.05 160.4 67.5 164.65 71.55 171.85 78.2 180.35 86.15 190.55 95.05 198.7 95.3 198.95 94.7 199.85 94.05 200.7 93.75 200.45 84.75 192.15 76.65 181.85 69.9 173.2 65.85 165.9 64.65 163.8 63.85 161.1 63.1 158.6 62.95 156.45 62.35 149.2 62.6 145.25"/><path fill="#0d131a" d="M72.2 191.8 Q71.95 187.55 73.95 186.7 75.6 186.0 77.55 187.65 L95.4 202.75 Q95.7 203.0 95.15 204.0 94.6 205.0 94.3 204.75 90.45 201.75 76.25 188.8 73.65 186.5 73.95 191.45 74.15 194.6 75.15 198.4 75.95 201.4 76.8 203.3 L78.65 207.85 Q80.05 211.1 81.05 212.25 92.05 224.8 102.1 233.85 102.4 234.1 101.9 235.0 101.35 235.85 101.05 235.6 90.8 226.3 79.4 213.4 78.15 211.95 76.55 208.35 L74.75 203.85 Q72.6 197.4 72.2 191.8"/><path fill="#0d131a" d="M83.7 230.65 Q83.1 227.3 84.95 226.35 86.55 225.5 88.7 226.85 99.45 233.2 102.0 234.1 102.35 234.2 102.05 235.25 101.7 236.3 101.35 236.15 99.35 235.45 95.05 232.9 L87.75 228.4 Q84.85 226.45 85.5 230.35 86.25 234.9 88.1 240.45 89.55 244.5 93.5 248.15 101.75 255.75 111.3 261.05 111.6 261.25 111.6 262.45 111.6 263.65 111.3 263.45 105.2 260.05 99.25 255.6 L92.2 249.85 Q87.8 245.8 86.3 241.35 84.6 236.4 83.7 230.65"/><path fill="#0d131a" d="M103.7 260.6 L110.8 261.4 110.65 263.25 103.35 262.25 Q102.15 262.2 101.6 262.8 100.85 263.6 102.05 265.4 105.6 270.85 108.5 273.5 110.1 274.95 114.15 277.4 118.05 279.75 120.8 281.0 121.15 281.15 121.5 282.5 121.85 283.8 121.5 283.65 118.55 282.35 114.15 279.75 109.45 276.95 107.45 275.2 104.05 272.15 100.7 266.65 98.9 263.65 100.15 261.9 101.25 260.4 103.7 260.6"/><path fill="#0d131a" d="M118.65 286.85 Q116.95 284.2 118.65 283.4 L121.05 283.1 Q121.55 283.1 121.35 284.6 L120.45 284.45 119.65 284.55 Q119.45 285.0 120.15 286.05 121.75 288.5 123.55 290.35 126.2 293.15 131.15 296.85 131.45 297.1 131.6 298.7 131.7 300.35 131.4 300.1 122.95 293.7 118.65 286.85"/><path fill="#0d131a" d="M352.75 71.35 Q355.55 71.35 357.7 73.9 360.95 77.75 362.8 81.75 365.75 88.1 365.75 92.65 L365.3 96.75 Q363.55 106.3 359.35 120.6 354.45 137.3 349.6 148.35 L361.25 130.3 371.05 114.7 Q373.3 111.3 375.85 111.6 377.95 111.8 379.65 114.3 388.05 126.55 382.35 137.95 378.15 146.3 372.4 155.85 365.55 167.4 360.3 174.05 364.4 171.5 371.9 166.2 L384.55 157.25 Q387.45 155.25 389.7 155.9 391.8 156.55 392.85 159.25 394.4 163.25 393.65 168.8 392.75 175.4 388.65 179.35 375.95 191.45 354.4 203.95 L386.15 196.75 Q390.25 195.8 392.2 197.9 393.55 199.35 393.55 201.8 393.55 205.9 392.4 208.85 391.7 210.75 390.15 212.6 388.35 214.7 386.15 215.85 376.1 221.15 370.65 223.7 359.9 228.75 350.2 231.9 L364.55 231.6 Q377.35 231.35 381.85 231.4 384.65 231.45 385.9 232.35 387.3 233.4 387.25 235.85 387.15 239.3 385.3 242.7 382.6 247.75 377.05 250.1 374.3 251.25 365.95 253.1 355.6 255.45 345.75 256.65 L367.2 258.05 Q372.4 258.4 373.4 260.6 374.05 262.05 372.9 264.5 371.5 267.6 369.5 270.65 367.4 273.85 364.0 275.25 361.7 276.2 357.95 276.55 352.9 277.0 329.15 276.4 333.15 277.8 340.85 280.0 L351.5 283.0 Q355.25 284.1 356.1 285.7 356.9 287.3 355.2 289.6 352.6 293.05 349.8 294.55 346.9 296.15 344.9 296.8 341.8 297.8 338.3 297.7 L326.85 296.8 312.4 294.7 330.1 302.95 Q335.55 305.55 333.2 309.15 L331.4 311.25 329.0 313.05 Q324.4 315.55 319.9 315.25 316.55 315.0 308.3 312.6 300.25 310.25 294.3 307.85 L309.75 319.05 Q312.3 320.95 312.65 322.6 312.95 324.3 310.9 325.95 307.95 328.4 304.05 329.75 301.5 330.65 299.25 330.6 L294.9 329.95 Q290.7 329.1 277.5 323.7 L288.55 332.3 Q293.4 336.2 289.75 339.05 L287.1 340.85 Q285.4 341.85 284.3 342.25 280.55 343.55 277.3 342.8 273.1 341.8 267.85 339.55 261.75 336.95 258.3 334.2 257.5 333.55 257.95 333.05 L259.2 333.1 Q261.95 335.05 268.15 337.5 273.8 339.75 277.75 340.65 280.55 341.35 283.75 340.15 286.4 339.25 288.6 337.6 289.5 336.95 289.15 335.85 288.8 334.75 287.35 333.7 L280.3 328.55 Q274.05 323.75 270.3 319.95 269.45 319.1 269.85 318.6 L271.3 318.7 Q275.25 321.05 284.05 324.25 291.75 327.0 295.45 327.8 L299.45 328.4 Q301.35 328.45 303.6 327.65 307.4 326.4 309.75 324.55 311.0 323.5 310.55 322.5 310.25 321.7 308.65 320.55 L301.25 315.5 Q293.5 310.05 288.95 305.8 288.05 304.95 288.45 304.35 L290.0 304.25 Q294.2 306.2 305.0 309.35 316.35 312.65 320.25 312.9 324.65 313.3 328.05 311.3 335.05 307.2 329.3 304.6 L319.85 300.35 Q311.25 296.3 306.2 293.2 305.2 292.6 305.4 292.0 305.65 291.4 306.75 291.7 319.55 294.75 338.5 295.3 341.75 295.35 344.5 294.5 346.45 293.9 349.0 292.5 351.8 291.05 353.7 288.5 354.7 287.2 354.05 286.3 353.4 285.4 350.95 284.75 333.9 280.4 323.15 276.1 322.0 275.65 322.15 275.0 322.35 274.35 323.55 274.35 L342.6 274.35 357.9 274.15 Q360.7 274.05 362.7 273.2 365.4 272.0 367.75 269.1 L369.65 266.35 370.85 264.15 Q371.55 262.4 371.3 261.7 370.75 260.3 367.1 260.15 L349.75 258.9 336.7 257.75 Q335.45 257.7 335.45 256.85 335.45 256.05 336.65 255.9 348.3 254.75 361.9 251.75 373.05 249.25 376.25 247.9 381.1 245.85 383.45 241.7 384.95 239.1 385.25 236.15 385.45 234.55 384.8 233.95 384.1 233.25 381.85 233.25 377.55 233.2 359.65 233.65 L342.65 234.15 Q341.35 234.2 341.25 233.5 341.15 232.8 342.4 232.4 360.25 226.85 385.2 213.7 387.1 212.7 388.65 210.9 390.0 209.3 390.6 207.7 391.55 205.25 391.55 201.35 391.45 199.8 390.2 198.9 388.75 197.9 386.55 198.55 377.15 201.35 363.9 204.1 L348.65 206.9 Q347.3 207.1 347.15 206.45 347.0 205.8 348.15 205.15 356.6 200.65 369.2 191.6 381.05 183.1 387.45 177.25 390.65 174.35 391.4 168.15 391.95 163.4 391.05 160.15 390.5 158.2 389.05 157.95 387.65 157.7 385.95 158.95 377.45 165.15 367.75 171.65 358.95 177.55 357.75 178.05 356.4 178.7 355.65 178.5 354.8 178.25 355.95 176.65 358.55 173.25 366.6 160.4 376.3 145.05 380.45 136.75 383.45 130.75 381.6 123.7 380.45 119.4 377.6 115.05 376.8 113.8 375.75 113.7 374.3 113.55 372.9 116.0 366.7 126.75 360.8 135.75 352.3 148.8 347.15 153.95 346.2 154.9 345.65 154.5 345.1 154.1 345.65 152.9 349.65 144.55 355.6 124.65 361.1 106.1 362.95 96.1 363.55 92.85 363.2 90.1 362.8 86.8 360.85 82.7 359.2 79.05 356.0 75.25 354.55 73.5 352.95 73.5 351.0 73.5 350.0 76.5 L344.3 98.05 Q337.95 120.95 334.65 127.65 334.0 128.95 333.35 128.6 332.75 128.25 333.25 126.9 335.9 120.05 341.5 99.6 L348.05 75.75 Q349.45 71.4 352.75 71.35"/><path fill="#0d131a" d="M112.6 140.35 Q113.7 137.5 111.8 134.7 L108.55 130.05 Q108.35 129.75 108.9 129.25 109.5 128.75 109.7 129.05 L111.1 130.75 113.3 133.65 Q114.4 135.25 114.75 136.6 115.2 138.65 114.35 141.0 112.35 146.15 110.95 152.05 108.9 160.65 108.65 168.85 L107.2 162.95 Q108.45 151.45 112.6 140.35"/><path fill="#0d131a" d="M118.3 147.85 Q119.5 145.3 121.35 145.35 122.7 145.35 124.25 146.8 127.45 149.8 130.45 154.85 L131.75 157.3 Q132.35 158.75 132.35 160.25 132.35 161.55 131.5 164.3 127.45 177.35 125.55 186.25 123.35 196.6 123.35 204.55 L123.55 209.85 Q126.4 197.2 130.6 184.85 133.65 176.0 136.6 169.35 137.65 167.0 139.3 166.9 140.75 166.8 142.4 168.35 147.45 173.05 150.3 176.85 152.2 179.4 152.55 181.45 152.85 183.2 152.15 186.4 L148.9 201.2 Q145.25 218.25 143.35 230.35 147.0 220.3 152.2 211.05 156.45 203.45 160.7 198.15 162.5 196.0 164.35 196.1 166.1 196.25 167.85 198.4 169.1 200.0 170.35 202.4 L171.85 206.05 Q172.7 208.7 172.25 211.05 171.95 212.55 170.85 214.55 167.1 221.25 163.75 231.35 159.4 244.3 158.0 256.95 L168.7 242.45 Q176.25 232.4 179.8 228.1 181.75 225.8 183.45 226.35 185.05 226.85 185.8 229.4 187.6 235.35 187.75 238.85 187.85 241.2 187.55 242.8 L186.3 246.55 Q184.75 250.05 175.9 265.5 L185.45 257.5 Q190.4 253.4 191.45 252.6 193.2 251.25 194.8 251.55 196.3 251.9 196.95 253.5 L198.55 258.7 Q199.3 262.05 199.2 263.6 198.95 266.5 197.2 270.1 191.05 283.35 186.8 290.8 196.85 281.6 200.8 278.45 202.9 276.8 204.55 277.35 206.05 277.8 206.75 279.9 207.65 282.4 207.9 284.2 208.35 287.45 206.75 289.95 L202.8 296.15 198.35 302.7 Q198.15 303.0 197.3 302.25 196.45 301.5 196.65 301.2 L205.15 288.75 206.05 286.7 Q206.25 285.8 206.05 284.45 205.95 283.2 205.05 280.35 204.7 279.35 204.05 279.1 203.2 278.75 202.0 279.75 L183.9 295.95 Q182.8 297.0 182.4 296.5 182.05 296.05 182.55 295.05 L195.4 269.1 196.85 265.5 Q197.3 264.05 197.1 262.35 196.7 257.85 195.25 254.2 194.95 253.45 194.35 253.35 193.6 253.25 192.6 254.05 L171.6 271.85 Q170.85 272.5 170.6 272.1 170.35 271.75 170.75 270.75 L177.2 258.95 184.4 245.5 Q185.35 243.4 185.65 241.55 L185.75 238.5 Q185.65 235.3 184.05 229.9 183.5 228.15 182.9 228.0 182.3 227.9 181.25 229.25 L157.4 260.7 Q156.55 261.75 156.1 261.15 155.75 260.75 155.75 260.05 156.2 247.1 161.0 232.45 164.5 221.65 168.85 213.7 170.1 211.45 170.3 209.75 170.4 208.55 169.9 206.8 169.1 203.6 166.3 199.4 165.3 197.9 164.4 197.8 163.35 197.65 162.2 199.25 157.4 206.0 153.0 214.05 146.75 225.6 142.55 237.75 142.2 238.9 141.45 238.75 140.7 238.6 140.75 237.4 141.65 225.2 145.95 204.55 L150.15 186.1 Q150.85 183.2 150.2 181.0 149.8 179.75 148.6 178.1 144.55 172.65 141.2 169.55 140.15 168.6 139.7 168.55 138.9 168.45 138.35 170.0 134.65 179.45 131.4 189.4 126.45 204.35 124.25 215.3 123.9 216.95 123.25 216.65 122.65 216.4 122.45 215.3 118.9 195.0 129.7 163.25 131.1 159.25 128.8 156.1 L126.45 152.6 122.9 148.05 Q122.05 147.05 121.45 147.05 120.7 147.1 120.0 148.6 115.75 157.95 113.4 167.6 110.35 180.3 110.95 192.4 110.95 192.8 110.1 191.65 L109.2 190.1 Q108.6 177.8 111.65 165.8 113.9 157.1 118.3 147.85"/><path fill="#0d131a" d="M142.0 0.4 Q143.7 1.3 142.2 4.2 133.7 20.15 129.75 29.6 129.6 29.95 127.95 30.9 126.3 31.85 126.45 31.5 129.4 24.5 140.85 3.25 141.75 1.6 140.55 1.6 L138.85 2.0 Q131.65 4.45 125.15 9.0 123.7 10.0 121.9 11.95 119.85 14.05 118.6 16.05 114.8 21.75 110.4 31.4 102.35 48.9 97.85 69.0 97.8 69.4 96.55 69.8 95.3 70.2 95.35 69.8 100.2 48.65 108.45 30.65 112.7 21.35 116.8 15.05 118.15 12.95 120.45 10.65 122.45 8.65 124.1 7.5 127.95 4.8 132.35 2.65 136.05 0.85 138.3 0.25 L142.0 0.4"/><path fill="#0d131a" d="M89.8 44.15 Q91.5 42.0 93.05 42.5 94.75 43.05 94.65 46.5 93.95 67.8 94.6 72.75 L93.65 73.75 Q92.65 74.35 92.55 74.0 92.3 71.6 92.45 64.0 L93.0 46.15 Q93.05 43.9 92.5 43.85 92.1 43.8 91.25 44.9 90.0 46.45 87.25 51.2 84.55 55.9 82.75 59.7 81.6 62.2 81.1 64.7 80.6 67.35 80.65 70.95 80.85 87.3 82.55 104.95 82.6 105.35 81.4 104.3 80.2 103.25 80.15 102.85 79.25 91.9 78.7 70.85 78.6 67.35 79.05 64.75 79.55 62.1 80.9 59.1 82.45 55.8 85.45 50.8 88.3 46.1 89.8 44.15"/><path fill="#0d131a" d="M69.45 91.2 Q69.85 86.6 71.65 87.0 73.25 87.35 74.25 90.3 L78.5 102.3 76.65 103.35 72.35 90.05 Q71.9 88.7 71.55 89.35 L71.35 90.4 Q70.75 96.85 70.75 105.9 L70.8 108.85 Q70.95 114.45 73.4 123.25 L71.6 123.75 69.75 116.65 Q68.75 112.0 68.65 108.25 68.5 100.85 69.45 91.2"/><path fill="#0d131a" d="M346.05 15.5 Q348.15 17.4 348.9 20.05 351.7 29.65 354.35 43.8 357.8 62.15 358.2 75.05 358.2 75.45 357.0 75.25 355.8 75.1 355.8 74.7 355.4 61.9 352.05 43.95 349.4 29.95 346.65 20.5 345.4 16.0 340.8 14.6 335.2 13.05 330.95 13.1 327.05 13.25 327.7 17.9 336.6 81.35 335.2 103.65 335.2 104.05 334.3 104.0 333.35 104.0 333.35 103.6 333.8 84.3 325.85 18.1 325.4 14.2 327.3 12.5 328.65 11.3 330.9 11.3 335.5 11.2 341.3 12.85 344.05 13.65 346.05 15.5"/><path fill="#0d131a" d="M427.9 68.55 L427.45 72.05 Q413.9 118.3 405.0 138.15 415.35 124.15 434.85 91.15 436.35 88.65 438.4 89.1 440.15 89.45 441.3 91.5 445.55 99.15 447.4 109.1 448.05 112.45 447.55 116.1 447.1 119.2 446.05 121.4 439.5 134.95 434.9 143.55 424.35 163.3 415.45 175.35 426.45 167.0 451.35 140.95 453.75 138.4 455.6 138.75 457.55 139.15 458.55 142.8 459.5 146.25 460.15 151.25 460.8 156.4 460.55 159.2 460.3 161.85 459.5 163.9 L457.35 168.0 Q454.5 173.0 442.6 187.55 427.25 206.4 416.3 215.2 432.4 208.7 458.6 190.4 460.9 188.75 462.7 189.55 464.6 190.35 464.8 193.35 465.1 197.45 464.55 203.05 464.0 208.4 463.05 212.0 462.0 215.85 461.0 217.7 460.1 219.35 457.9 221.65 454.6 225.1 443.2 232.55 428.3 242.25 414.5 247.8 430.95 244.1 453.85 237.45 456.95 236.5 458.3 238.0 459.45 239.3 458.8 241.8 456.45 250.1 454.5 253.95 453.15 256.7 451.85 258.3 450.2 260.3 447.6 261.95 443.05 264.85 431.75 268.9 415.15 274.8 398.0 277.0 L436.5 279.3 Q440.65 279.4 441.7 281.05 442.45 282.2 441.7 284.5 438.95 292.3 436.25 296.2 434.4 298.9 432.15 300.2 429.9 301.5 426.4 301.85 L410.6 302.4 382.6 300.65 Q388.1 302.6 399.2 307.25 L413.25 313.35 Q419.35 316.2 415.2 319.45 L407.25 324.9 Q402.3 327.85 398.5 329.4 395.6 330.55 393.55 330.65 391.05 330.8 387.8 329.75 386.05 329.2 378.45 325.8 L364.3 319.5 Q376.15 327.25 382.4 331.85 386.65 335.0 383.65 337.65 381.85 339.25 378.9 341.25 375.85 343.35 373.85 344.25 370.05 345.9 365.2 344.2 363.0 343.4 356.65 340.4 349.95 337.2 343.6 333.9 352.35 340.75 358.5 346.1 362.55 349.6 358.8 352.15 353.7 355.65 350.35 356.6 L347.4 357.15 Q345.0 357.25 342.6 356.25 338.8 354.7 333.2 351.4 327.1 347.75 321.5 343.5 L328.8 351.4 334.95 358.05 Q336.1 359.35 336.15 360.6 336.15 362.15 334.5 363.15 328.85 366.5 325.4 366.8 322.1 367.0 318.7 364.95 L314.9 361.85 308.35 356.35 313.0 361.85 Q314.1 363.3 314.2 364.65 314.3 366.25 312.7 367.25 307.4 370.35 303.6 370.95 299.6 371.6 296.5 368.85 295.05 367.6 285.35 357.0 L291.05 368.45 Q292.0 370.5 291.85 371.65 291.6 373.3 289.3 373.9 282.35 375.8 278.95 375.45 277.25 375.25 276.05 374.6 274.8 373.9 273.55 372.5 272.45 371.2 266.45 361.15 L259.75 349.5 Q259.05 347.9 259.7 347.65 260.25 347.4 261.1 348.65 L268.05 359.8 Q274.4 370.0 275.25 370.95 L277.15 372.65 279.45 373.3 Q283.35 373.75 288.8 372.15 289.9 371.85 289.9 371.05 L289.35 369.2 283.7 357.85 279.35 349.5 Q278.8 348.2 279.3 347.85 279.8 347.5 280.65 348.6 283.55 352.4 290.4 359.5 L298.0 367.1 Q300.55 369.25 303.6 368.75 305.4 368.45 307.7 367.6 L311.75 365.65 Q312.6 365.1 312.4 364.35 L311.55 363.0 305.05 355.25 Q298.8 348.05 297.7 346.05 297.05 344.8 297.3 344.4 297.6 343.95 298.75 345.1 L309.85 354.95 319.9 363.1 Q322.8 364.85 325.5 364.65 L329.55 363.5 333.75 361.45 Q334.4 361.15 334.3 360.5 L333.6 359.3 Q328.85 354.45 322.4 347.05 316.35 340.15 313.85 336.85 313.05 335.75 313.5 335.3 313.9 334.85 314.9 335.8 321.05 341.55 331.55 347.9 339.85 352.95 343.25 354.2 L349.9 354.45 Q353.35 353.5 357.8 350.6 359.5 349.45 357.4 347.7 L333.7 327.75 Q332.6 326.8 333.1 326.3 333.6 325.75 334.85 326.6 340.75 330.5 352.3 335.95 362.15 340.65 366.1 342.0 368.35 342.8 370.3 342.7 L373.05 342.15 Q374.25 341.8 377.45 339.85 L382.45 336.3 Q383.85 334.95 381.3 333.35 L352.5 314.2 Q351.4 313.45 351.8 312.75 352.2 312.0 353.4 312.6 357.9 314.85 371.5 320.6 385.1 326.45 388.5 327.55 391.4 328.5 393.55 328.35 395.4 328.25 397.95 327.25 405.3 324.3 414.05 318.0 415.9 316.65 412.55 315.05 L394.25 307.6 Q376.35 300.35 374.85 299.45 373.1 298.4 373.6 297.9 L375.4 297.7 Q384.1 299.7 404.05 299.95 420.15 300.2 425.95 299.6 429.05 299.3 430.95 298.2 432.85 297.15 434.5 294.75 436.2 292.25 437.8 289.0 439.3 286.0 440.0 283.75 440.45 282.35 439.85 281.85 439.15 281.2 436.45 281.1 L415.0 280.4 Q400.2 279.65 389.0 277.75 387.6 277.55 387.65 276.75 387.7 276.0 389.1 275.95 404.25 275.5 425.45 268.5 441.45 263.2 446.45 260.05 448.75 258.6 450.35 256.6 451.4 255.25 452.75 252.7 L455.2 246.75 457.05 241.2 Q457.5 239.5 456.8 239.1 L454.35 239.2 Q445.2 242.05 434.35 245.0 412.75 250.9 403.1 251.65 401.7 251.75 401.55 251.0 401.45 250.25 402.85 249.85 418.6 245.65 437.75 233.35 449.55 225.8 456.2 219.95 459.45 216.95 461.1 210.95 462.15 207.15 462.7 201.85 463.2 196.9 463.0 193.45 462.75 189.7 459.65 191.9 444.85 202.3 438.35 206.25 422.3 216.1 411.15 218.95 409.75 219.35 409.5 218.7 409.2 218.05 410.4 217.3 425.9 207.7 455.45 166.65 L457.45 162.65 Q458.25 160.7 458.4 158.65 458.7 155.55 457.8 149.6 L456.6 143.1 Q455.45 138.9 452.65 142.2 446.2 149.75 434.7 161.05 419.3 176.1 412.2 179.75 411.0 180.35 410.8 179.55 410.65 178.9 411.05 178.35 418.15 168.7 430.35 146.45 439.15 130.5 443.8 120.85 446.15 115.85 445.25 109.25 444.85 106.4 443.6 102.2 441.9 96.4 439.7 92.4 437.95 89.3 436.45 92.05 428.9 105.75 420.75 118.75 409.3 137.0 402.45 144.3 401.6 145.15 401.05 144.75 400.45 144.35 400.95 143.25 405.35 134.05 425.25 71.7 426.45 66.95 424.0 63.2 421.7 59.55 416.5 55.25 415.05 54.1 414.1 53.9 412.7 53.65 411.95 55.4 407.4 66.55 402.3 77.4 393.65 95.7 388.15 102.45 387.5 103.2 386.9 102.9 386.3 102.55 386.5 101.6 388.05 94.75 390.7 71.25 393.15 49.65 393.15 46.45 393.15 39.5 389.25 36.05 383.65 31.15 377.45 27.95 375.3 26.85 374.15 27.25 372.8 27.75 372.5 30.3 L369.7 59.75 Q366.9 88.35 365.3 96.75 L364.05 96.8 Q362.9 96.5 362.95 96.1 364.5 87.95 367.3 60.35 L370.35 30.15 Q371.0 25.75 373.25 24.95 375.15 24.3 378.5 26.05 384.95 29.35 390.7 34.4 395.5 38.55 395.5 46.55 395.5 50.8 393.75 67.25 391.6 87.05 389.35 97.1 394.05 88.8 401.4 73.7 408.15 59.85 410.25 54.7 411.25 52.25 413.6 52.05 415.8 51.9 418.05 53.75 423.4 58.1 425.95 62.1 427.9 65.25 427.9 68.55"/><path fill="#0d131a" d="M261.25 195.15 Q263.3 192.15 264.8 192.35 266.25 192.55 266.85 195.1 L267.3 197.75 267.95 197.1 Q268.75 196.4 269.65 196.45 270.9 196.45 271.55 199.05 272.75 203.8 272.75 217.25 272.75 222.5 272.2 232.2 271.65 242.1 271.1 246.15 271.05 246.55 269.9 247.75 L268.75 248.65 268.75 248.55 Q269.3 244.5 269.95 233.4 L270.6 217.3 Q270.6 198.4 269.35 198.4 268.75 198.4 268.1 199.4 267.1 200.95 266.3 200.3 265.6 199.75 265.45 198.05 265.15 194.0 264.5 193.85 264.0 193.75 261.4 197.85 260.05 200.05 259.1 200.0 258.3 199.95 257.4 198.05 L256.3 195.85 Q255.5 194.45 254.8 194.5 253.2 194.75 251.1 201.95 248.4 211.4 248.0 225.9 247.6 241.9 247.85 251.8 248.1 261.95 249.5 281.25 249.55 281.65 248.6 281.7 247.7 281.75 247.65 281.35 L245.75 252.1 Q245.2 240.7 245.6 226.45 245.95 212.65 248.95 202.5 251.7 193.15 254.65 192.9 256.45 192.75 258.05 195.4 L259.35 198.15 261.25 195.15"/><path fill="#0d131a" d="M273.65 241.55 Q275.05 241.7 275.9 243.7 276.95 246.1 277.85 252.25 L275.7 253.9 274.3 245.7 Q273.85 243.55 273.35 243.5 272.8 243.45 269.75 250.45 266.3 258.15 261.75 270.05 261.6 270.45 260.1 270.9 L258.7 271.0 Q265.75 252.45 269.45 245.85 271.95 241.4 273.65 241.55"/><path fill="#0d131a" d="M293.85 208.55 L295.8 205.1 Q297.85 201.6 298.65 201.5 299.05 201.45 299.15 202.35 299.3 203.25 298.9 203.3 298.35 203.5 296.2 207.7 293.15 213.8 292.0 208.25 L291.0 204.1 Q290.65 203.2 290.15 203.15 289.35 203.1 287.5 209.0 285.7 214.6 285.0 218.7 L282.45 233.05 279.35 250.65 Q279.3 251.05 278.15 251.5 L277.05 251.55 Q279.9 230.9 282.45 218.75 284.4 209.65 286.5 205.1 288.45 200.95 290.25 201.1 291.8 201.25 292.95 204.9 L293.85 208.55"/><path fill="#0d131a" d="M244.1 247.9 Q244.6 256.35 245.4 261.6 247.85 277.4 249.75 280.9 249.95 281.2 248.95 281.65 L247.8 281.75 Q245.75 278.15 243.2 261.85 242.3 256.05 241.85 248.0 L241.9 243.8 Q241.95 242.05 241.6 242.15 241.35 242.2 240.35 244.1 L239.1 246.65 Q238.1 248.95 237.25 248.6 236.6 248.3 236.3 246.6 235.85 243.4 235.45 243.35 234.95 243.3 233.9 246.5 233.3 248.15 232.55 248.55 231.85 248.85 231.75 248.1 L231.4 247.3 Q231.05 246.95 230.75 247.3 230.5 247.55 230.25 249.45 229.95 251.85 229.9 255.75 229.85 261.9 230.85 270.0 231.75 276.95 233.0 283.55 233.85 288.05 235.85 297.15 233.7 298.4 233.6 297.95 L230.7 284.25 Q229.45 277.55 228.55 270.6 227.75 264.15 227.85 256.7 227.95 248.8 229.05 246.25 229.85 244.5 231.05 245.0 232.15 245.45 232.15 246.35 L232.35 245.9 Q233.2 243.45 233.75 242.5 234.55 241.2 235.55 241.2 236.6 241.2 237.25 243.3 L237.75 245.4 239.2 242.85 Q240.75 240.25 241.8 240.3 243.4 240.4 243.75 242.4 L244.1 247.9"/><path fill="#0d131a" d="M200.85 279.95 L199.15 281.25 Q196.2 272.75 199.05 271.0 L201.1 271.15 Q202.3 271.9 203.25 273.55 202.75 272.4 202.7 270.8 202.6 268.65 203.65 268.15 204.95 267.45 206.95 269.15 209.7 271.5 214.0 278.45 221.25 290.15 227.25 301.15 227.4 301.5 226.6 301.95 L225.6 302.05 Q221.4 294.3 212.15 279.55 205.7 269.1 204.4 269.8 204.05 270.0 204.15 270.9 L204.85 274.2 Q205.25 275.65 204.55 275.8 204.0 275.9 203.1 275.15 L201.15 273.2 Q200.4 272.5 199.95 272.6 199.2 272.8 199.45 274.5 199.8 276.9 200.85 279.95"/><path fill="#0d131a" d="M203.95 292.25 L205.55 290.75 210.6 300.05 Q208.9 301.55 208.65 301.1 L204.1 292.65 203.95 292.25"/><path fill="#0d131a" d="M204.55 207.1 Q206.4 206.0 209.05 210.0 210.45 212.15 212.6 216.45 L221.15 234.45 Q228.6 250.65 229.45 253.95 L228.95 255.95 228.2 257.2 Q227.35 253.9 220.25 237.9 213.35 222.35 210.75 217.55 206.9 208.75 205.65 208.65 205.05 208.6 205.0 209.45 L205.25 211.45 Q205.7 213.95 204.9 213.9 204.35 213.9 203.35 212.75 L202.0 210.95 Q201.2 210.0 200.8 210.2 200.15 210.55 201.5 215.05 202.05 216.8 201.45 217.3 200.9 217.8 199.7 216.6 L198.15 214.9 Q197.2 214.05 196.7 214.25 195.2 214.95 197.35 223.95 199.2 231.6 204.55 248.3 207.8 258.5 227.25 301.25 227.4 301.6 226.6 301.95 L225.6 302.0 Q213.8 276.95 208.85 265.65 204.65 256.05 202.25 249.1 195.55 229.45 194.35 220.85 193.35 213.85 195.9 212.65 197.85 211.75 199.95 214.8 199.05 212.65 199.05 211.2 199.05 209.6 199.8 209.0 200.35 208.55 201.2 208.8 202.2 209.05 203.1 210.3 L203.9 211.5 203.6 209.7 Q203.4 207.8 204.55 207.1"/><path fill="#0d131a" d="M141.0 383.65 Q140.55 383.1 140.6 382.4 140.95 380.1 151.1 376.35 159.05 373.45 164.9 372.2 165.25 372.15 165.45 373.05 165.65 373.95 165.3 374.0 159.45 375.25 150.7 378.6 141.95 381.85 142.15 382.7 142.25 383.1 144.25 383.15 L147.1 383.1 Q148.7 383.1 148.9 383.75 149.05 384.4 147.7 384.95 144.05 386.45 144.15 386.85 L157.25 387.25 Q170.35 387.3 173.3 386.9 173.7 386.85 174.1 387.75 174.5 388.65 174.1 388.7 L156.85 389.2 144.45 388.5 Q142.55 388.1 142.35 387.2 142.15 386.55 143.05 385.75 143.85 385.05 145.2 384.5 141.85 384.6 141.0 383.65"/><path fill="#0d131a" d="M176.6 390.0 Q177.0 389.9 177.2 390.8 177.45 391.7 177.05 391.75 173.3 392.8 164.75 396.85 155.65 401.2 147.75 405.9 147.4 406.1 146.95 405.3 146.5 404.55 146.8 404.3 154.7 399.15 164.25 394.75 172.05 391.2 176.6 390.0"/><path fill="#0d131a" d="M177.7 409.3 Q178.05 409.15 178.45 410.0 178.85 410.8 178.5 411.0 171.25 414.7 162.0 416.65 L154.2 417.9 Q153.8 417.95 153.6 417.05 153.35 416.2 153.75 416.1 L161.7 414.6 Q171.0 412.45 177.7 409.3"/><path fill="#0d131a" d="M196.9 420.8 Q197.2 420.55 197.85 421.25 198.45 421.9 198.15 422.15 L190.95 429.5 180.4 440.4 173.45 447.15 169.55 450.8 Q169.25 451.05 168.65 450.4 168.0 449.7 168.3 449.45 L178.8 438.9 196.9 420.8"/><path fill="#0d131a" d="M224.9 438.0 L215.75 463.4 Q212.45 472.1 209.45 477.65 205.75 484.45 203.75 483.8 202.7 483.45 202.7 481.4 202.7 479.2 204.05 471.75 201.55 477.2 199.75 479.9 197.4 483.45 195.75 483.4 193.6 483.3 193.6 479.0 L193.9 475.35 Q191.55 479.05 189.05 477.8 185.9 476.25 188.9 463.9 191.1 454.7 194.7 446.05 202.35 427.7 209.2 416.35 L210.15 416.5 Q210.95 416.95 210.75 417.3 205.6 425.8 196.75 447.05 192.65 456.95 190.5 466.6 188.45 475.65 189.75 476.3 190.55 476.7 191.65 475.4 L193.25 473.0 Q194.8 470.25 195.55 471.3 196.2 472.2 195.9 474.3 L195.55 476.55 195.3 479.15 Q195.3 481.0 195.65 481.4 196.2 482.0 197.7 479.95 L200.15 475.7 202.35 470.85 Q203.8 467.7 205.1 468.35 206.4 468.95 205.85 471.95 204.1 481.45 204.6 481.65 205.1 481.8 207.75 476.5 210.7 470.55 213.6 462.8 L222.95 436.95 224.9 438.0"/><path fill="#0d131a" d="M212.8 414.15 L214.05 414.0 215.1 414.3 207.0 433.75 Q205.9 436.4 205.05 439.25 204.25 442.05 204.55 442.25 204.8 442.4 205.65 441.55 206.6 440.45 207.2 440.5 207.85 440.55 207.85 441.75 L207.5 444.4 Q207.2 446.8 207.45 446.9 208.05 447.15 209.75 444.45 210.75 443.0 211.6 443.15 212.45 443.3 212.2 444.7 211.85 447.25 212.0 447.35 212.35 447.55 215.65 443.35 218.85 439.15 220.7 436.15 220.9 435.8 221.7 436.3 222.5 436.75 222.3 437.1 L217.9 443.3 Q213.25 449.25 211.55 448.85 210.3 448.6 210.4 447.0 L210.6 445.65 208.85 447.75 Q207.75 448.65 206.9 448.25 205.3 447.5 206.2 443.2 205.6 443.75 204.85 443.95 L203.35 443.75 Q201.4 442.4 205.2 432.8 L208.95 423.4 212.8 414.15"/><path fill="#0d131a" d="M264.85 432.85 L262.6 434.9 262.15 420.3 Q262.15 419.9 263.3 419.55 L264.45 419.6 264.85 432.85"/><path fill="#0d131a" d="M280.9 431.75 L282.05 452.15 Q282.55 466.0 279.3 469.5 278.2 470.5 277.45 470.45 276.1 470.4 274.8 468.05 L273.65 465.75 272.35 468.25 Q270.9 470.7 269.25 470.6 265.3 470.4 263.95 457.1 L263.4 449.55 265.55 447.35 266.1 457.1 Q266.45 462.25 267.6 465.8 268.6 468.7 269.3 468.7 270.05 468.7 271.7 465.6 272.9 463.4 273.85 463.45 274.75 463.5 275.55 465.8 L276.65 468.1 Q277.2 468.9 277.5 468.85 278.65 468.8 279.35 464.95 280.2 460.3 279.9 452.3 L278.75 431.65 280.9 431.75"/><path fill="#0d131a" d="M275.35 386.5 Q275.3 386.15 276.35 385.7 L277.45 385.6 Q278.1 389.9 280.5 425.75 L278.3 424.6 Q276.0 391.3 275.35 386.5"/><path fill="#0d131a" d="M276.2 393.15 Q276.1 392.8 276.65 390.7 277.2 388.6 277.3 388.95 278.05 392.45 285.6 415.9 L293.25 439.75 296.35 449.25 Q299.2 457.6 299.85 457.55 300.2 457.5 300.2 456.05 L300.15 454.25 Q300.3 451.85 301.2 451.95 301.95 452.05 303.1 453.95 305.8 458.05 306.85 457.75 307.85 457.55 307.2 451.4 306.35 443.2 302.65 429.3 L293.7 399.65 285.65 374.2 Q285.55 373.85 286.55 373.4 L287.7 373.35 295.75 398.8 304.75 428.5 Q311.4 453.4 308.55 458.15 307.95 459.0 307.05 459.25 305.45 459.55 303.45 457.1 L301.75 454.8 Q301.85 459.25 299.85 459.3 296.75 459.5 291.25 440.2 L283.95 418.05 Q277.1 397.05 276.2 393.15"/><path fill="#0d131a" d="M308.35 368.7 L309.9 367.2 321.1 379.15 Q328.35 387.25 334.75 395.75 342.0 405.45 347.35 415.65 352.9 426.25 351.3 427.85 L347.9 427.75 345.4 426.75 Q345.8 430.7 344.35 431.5 341.9 432.9 331.65 423.1 325.4 417.1 320.35 411.3 310.85 400.4 301.8 388.7 292.25 376.35 290.3 372.25 290.1 371.9 290.65 370.65 291.15 369.35 291.3 369.7 293.2 373.6 302.65 386.05 312.45 398.9 322.15 410.0 330.65 419.8 337.3 425.6 342.6 430.25 343.45 429.85 343.85 429.65 343.8 428.15 L343.7 426.4 Q343.7 425.1 344.5 424.95 345.15 424.85 346.8 425.6 L348.4 426.3 Q349.55 426.75 349.85 426.6 350.75 426.15 345.85 416.95 340.3 406.65 333.1 397.15 326.8 388.75 319.55 380.6 L308.35 368.7"/><path fill="#0d131a" d="M374.6 343.2 Q374.25 343.15 375.1 342.1 375.95 341.05 376.3 341.1 384.75 342.5 387.5 344.1 389.0 344.95 388.95 346.35 388.9 347.4 386.55 348.55 384.15 349.55 384.15 349.7 384.15 349.9 386.6 351.0 389.0 352.45 388.95 354.05 388.9 356.2 385.45 357.55 380.5 359.45 368.25 360.2 342.25 361.75 334.45 359.55 334.1 359.45 334.05 358.25 333.95 357.05 334.3 357.15 338.25 358.3 347.3 358.55 356.4 358.8 368.1 358.05 379.65 357.3 384.5 355.8 387.35 354.95 387.35 354.1 387.35 353.65 386.15 352.85 385.2 352.25 384.15 351.8 381.5 350.6 381.7 349.55 381.85 348.55 384.4 347.7 387.05 346.75 387.1 346.15 387.2 345.25 374.6 343.2"/><path fill="#0d131a" d="M284.45 416.1 Q285.8 417.35 285.85 417.75 286.85 423.95 288.25 438.05 289.85 454.55 290.5 467.75 291.15 479.95 289.8 489.2 288.3 499.9 284.7 500.2 281.1 500.5 277.95 489.85 L277.2 491.85 Q276.2 493.85 274.8 493.75 271.9 493.55 270.65 481.45 L269.95 469.2 Q269.95 468.85 271.05 468.55 L272.1 468.65 Q271.85 473.9 272.9 482.75 273.95 491.85 275.0 491.9 275.5 491.95 275.8 491.1 L276.4 488.5 Q277.0 485.95 277.9 486.3 278.8 486.6 279.8 489.4 282.95 498.5 284.55 498.4 286.25 498.25 287.5 491.2 289.0 482.5 288.3 468.55 287.65 455.65 285.8 437.2 284.15 421.25 283.15 415.15 283.1 414.8 284.45 416.1"/><path fill="#0d131a" d="M304.6 435.0 L304.5 429.05 314.4 447.75 323.5 464.5 Q329.6 475.0 333.1 479.1 335.2 481.55 335.75 481.25 336.55 480.8 335.15 476.2 334.65 474.35 335.65 473.95 336.75 473.5 338.15 475.55 343.0 482.45 343.9 482.2 344.95 482.05 344.05 473.4 343.8 470.9 344.65 470.5 345.25 470.2 346.4 471.15 L347.7 472.45 Q348.7 473.4 349.25 473.15 349.95 472.8 347.0 464.6 344.2 456.95 340.5 448.6 337.6 442.0 331.4 429.55 324.95 416.65 322.3 412.3 327.7 417.15 328.0 417.55 332.55 425.15 342.45 447.55 345.75 454.85 348.8 463.35 350.95 469.4 351.0 472.05 351.05 473.8 350.15 474.45 348.4 475.7 345.9 473.1 L346.25 478.8 Q346.25 483.45 344.3 483.95 342.95 484.35 341.15 482.6 339.75 481.3 337.55 478.1 337.85 479.2 337.75 480.3 337.6 482.15 336.3 482.6 334.75 483.1 332.6 481.2 328.5 477.55 321.5 465.55 L313.45 451.25 304.6 435.0"/><path fill="#0d131a" d="M313.2 365.0 L312.5 361.4 Q354.15 401.7 371.5 423.35 382.15 436.65 385.0 441.6 387.35 445.75 385.75 447.05 384.85 447.75 383.05 447.55 384.55 450.15 385.2 452.35 386.3 455.75 384.95 457.0 383.7 458.2 380.9 457.25 378.8 456.6 375.3 454.5 376.05 457.25 374.55 458.25 371.95 459.9 357.7 445.45 L343.85 430.35 Q343.65 430.05 344.4 429.15 345.2 428.2 345.4 428.5 348.45 432.65 359.9 444.5 372.3 457.25 373.55 456.55 374.15 456.2 373.0 453.5 372.4 451.95 373.0 451.65 373.6 451.4 375.15 452.3 382.85 457.0 383.9 455.95 384.6 455.3 383.35 452.25 382.25 449.5 380.25 446.55 379.65 445.7 380.05 445.3 L381.3 445.35 383.25 445.9 384.7 445.85 Q385.45 445.2 379.5 437.2 L369.85 424.9 Q354.35 405.5 313.2 365.0"/><path fill="#0d131a" d="M335.25 358.7 L336.75 358.55 338.9 358.7 Q350.7 363.55 367.95 374.35 382.05 383.15 391.35 390.4 415.7 409.95 413.45 414.1 412.65 415.55 410.55 415.45 411.1 416.3 411.25 417.35 411.35 418.6 410.7 419.4 409.6 420.65 406.85 419.85 L407.4 421.1 Q407.55 422.05 406.95 422.65 404.9 424.7 388.45 416.75 374.6 410.1 366.2 404.6 L347.8 392.7 Q334.25 383.65 325.0 376.25 L323.3 373.4 322.2 371.05 Q331.75 378.6 346.9 389.05 357.4 396.25 367.25 402.6 374.8 407.5 389.85 414.85 404.7 422.1 405.35 421.3 405.6 421.0 405.35 420.4 L404.15 418.9 Q403.4 418.2 403.8 417.7 L405.4 417.65 Q407.1 418.4 408.25 418.5 409.25 418.65 409.5 418.3 410.1 417.6 408.75 415.65 408.0 414.55 408.45 414.0 408.8 413.55 409.65 413.7 L411.0 413.75 411.75 413.2 Q412.25 412.3 406.45 406.55 399.9 400.0 389.95 392.25 380.6 384.9 365.4 375.25 346.9 363.45 335.25 358.7"/><path fill="#0d131a" d="M379.65 358.5 Q379.3 358.45 380.85 357.6 382.4 356.8 382.75 356.85 393.2 359.4 404.85 363.55 413.2 366.6 419.55 370.65 426.2 374.85 425.85 377.25 425.7 378.65 424.1 379.2 L420.8 379.6 Q423.05 381.25 423.9 382.4 425.45 384.55 423.7 386.05 421.8 387.65 415.2 387.4 408.6 387.1 398.7 384.95 387.55 382.6 379.8 380.3 L367.75 376.25 363.8 372.65 378.05 377.4 Q388.3 380.55 399.15 382.85 409.05 384.95 416.35 385.2 422.45 385.35 422.85 384.35 423.1 383.7 421.5 382.4 L419.2 380.75 Q417.5 379.55 417.9 378.75 418.25 378.05 420.3 377.85 L422.45 377.65 Q423.9 377.45 424.0 377.1 424.4 376.05 419.1 372.7 412.85 368.8 404.0 365.6 394.95 362.25 379.65 358.5"/><path fill="#0d131a" d="M383.5 335.4 Q386.75 334.85 398.25 335.15 L412.5 335.85 Q420.55 336.65 425.3 338.1 431.5 340.0 431.15 342.8 430.95 344.65 428.75 345.45 L424.5 346.4 Q426.8 347.9 426.65 349.3 426.45 352.4 409.65 353.4 L396.05 353.95 388.0 354.15 Q387.65 354.15 387.3 353.0 386.95 351.8 387.3 351.8 L395.7 351.7 409.6 351.3 420.95 350.2 Q424.4 349.65 424.5 349.1 424.7 348.3 423.05 347.5 421.2 346.5 421.6 345.75 421.95 345.05 424.05 344.6 L428.0 343.75 Q429.4 343.35 429.5 342.75 429.75 341.55 426.1 340.3 421.5 338.75 412.3 337.85 L397.95 337.4 383.2 337.85 Q382.85 337.95 383.0 336.7 383.15 335.5 383.5 335.4"/><path fill="#0d131a" d="M87.8 415.0 Q88.0 414.65 89.1 415.0 90.2 415.3 90.0 415.6 86.8 421.0 82.4 431.9 78.9 440.55 77.5 445.05 76.15 449.4 73.8 452.5 70.7 456.55 64.05 461.55 49.7 472.35 43.75 474.9 40.85 476.15 40.5 475.25 40.3 473.95 48.05 465.2 55.75 456.45 59.45 450.7 61.3 447.75 63.4 443.05 63.55 442.75 64.8 442.6 L66.0 442.55 Q64.1 446.75 60.7 451.9 55.95 459.05 49.35 466.3 L44.65 471.2 Q41.75 474.25 41.85 474.45 L51.15 468.5 Q60.25 462.3 62.95 460.1 69.55 454.85 72.35 451.25 74.5 448.45 75.75 444.5 77.6 438.75 80.45 431.35 84.65 420.35 87.8 415.0"/><path fill="#0d131a" d="M73.15 406.95 L74.65 407.2 Q75.2 407.5 75.15 407.75 L74.8 408.0 73.75 408.1 Q71.8 408.2 70.15 409.65 L67.4 411.95 Q66.05 412.8 66.15 412.05 66.25 411.4 66.8 410.8 L69.0 408.6 Q71.0 407.05 73.15 406.95"/><path fill="#0d131a" d="M60.6 426.5 Q60.85 426.2 61.75 426.65 62.7 427.05 62.45 427.35 L57.5 434.25 Q51.95 442.35 48.9 448.9 47.05 452.8 46.55 454.5 45.95 456.5 46.8 456.85 48.3 457.4 55.25 450.15 59.35 445.85 64.75 441.55 73.8 434.3 80.6 432.2 81.0 432.1 80.9 433.25 80.8 434.4 80.4 434.5 73.85 436.55 65.45 443.3 60.6 447.2 56.6 451.4 48.95 459.45 46.15 458.2 44.4 457.4 44.9 454.8 45.2 453.2 47.15 448.25 49.35 442.65 55.15 434.1 L60.6 426.5"/><path fill="#0d131a" d="M89.3 389.85 L93.55 385.3 Q98.35 379.8 101.7 377.95 106.2 375.45 110.2 376.55 114.1 377.55 116.2 381.6 119.05 387.15 116.15 395.05 113.15 403.3 106.25 406.9 102.8 408.7 99.25 409.5 L90.2 410.4 Q89.85 410.4 89.75 409.65 89.65 408.9 90.0 408.9 98.7 408.75 105.4 405.3 111.65 402.05 114.25 394.8 116.7 387.85 114.15 382.9 112.6 379.9 109.55 378.95 106.1 377.8 102.15 379.95 100.25 381.0 98.35 382.85 L94.95 386.5 90.6 391.2 Q87.75 393.85 84.7 395.65 81.1 397.75 75.85 399.15 75.5 399.25 75.2 398.6 74.95 397.95 75.3 397.85 79.1 396.85 83.8 394.05 86.7 392.3 89.3 389.85"/><path fill="#0d131a" d="M83.95 402.4 Q83.55 401.25 84.0 400.2 84.4 399.15 85.35 398.85 86.3 398.55 87.25 399.15 88.2 399.8 88.55 400.95 88.9 402.15 88.5 403.2 88.1 404.25 87.15 404.55 86.15 404.85 85.25 404.25 84.3 403.6 83.95 402.4"/><path fill="#ffffff" d="M89.0 399.5 Q88.8 398.95 89.05 398.4 89.3 397.85 89.85 397.7 L90.9 397.8 91.6 398.65 Q91.8 399.25 91.55 399.75 91.3 400.3 90.75 400.45 L89.7 400.35 Q89.2 400.1 89.0 399.5"/><path fill="#0d131a" d="M94.35 390.75 Q99.55 385.2 103.1 387.65 106.45 389.95 105.5 396.25 104.95 399.9 102.45 403.25 99.2 407.45 93.4 410.05 93.1 410.15 92.4 409.7 91.7 409.2 92.0 409.1 97.4 406.65 100.55 402.75 103.05 399.6 103.55 396.3 104.4 390.55 101.75 389.3 99.15 388.0 95.45 391.85 88.15 399.35 77.6 402.7 77.3 402.8 77.1 402.05 76.85 401.35 77.15 401.25 87.8 397.9 94.35 390.75"/><path fill="#0d131a" d="M66.3 386.85 Q69.3 386.5 71.5 389.35 72.85 391.0 75.5 396.65 L77.15 400.05 Q81.15 408.15 95.9 410.1 98.7 410.5 99.55 412.25 100.6 414.6 97.65 419.05 95.6 422.25 90.65 430.95 84.2 442.25 82.0 447.2 L78.35 455.6 Q77.0 458.5 75.55 460.0 72.35 463.4 43.75 478.6 41.05 480.0 39.05 479.85 37.75 479.8 37.05 479.15 36.3 478.6 36.35 477.1 36.4 474.9 38.5 472.15 L43.85 465.15 Q53.85 453.15 56.15 449.55 56.35 449.2 57.85 448.65 59.35 448.1 59.15 448.45 56.4 452.75 45.3 466.35 L39.4 473.45 Q38.05 475.35 37.85 476.7 37.7 477.6 38.0 478.0 38.35 478.45 39.25 478.5 40.6 478.5 42.6 477.4 53.85 471.15 62.45 466.0 72.25 460.1 73.8 458.5 75.55 456.6 80.25 446.05 84.55 436.8 90.25 427.35 L96.2 417.95 97.7 415.5 Q98.6 413.8 98.2 412.95 97.8 412.05 95.95 411.85 88.9 410.85 84.45 409.0 77.95 406.25 75.5 401.35 L73.85 397.95 Q71.1 392.25 70.2 390.9 68.4 388.3 66.4 388.5 64.2 388.75 62.35 390.4 61.3 391.3 57.4 395.75 52.95 400.75 49.65 403.2 44.55 406.9 40.0 406.65 25.15 405.8 21.95 407.15 18.35 408.75 13.75 413.9 7.15 421.3 3.35 431.7 1.7 436.15 1.7 439.8 L1.7 442.05 Q1.75 443.25 2.05 443.3 2.45 443.35 6.1 440.8 L13.2 435.7 Q17.9 432.4 23.7 429.8 30.85 426.6 36.15 426.2 38.4 426.0 45.7 426.2 L55.65 426.25 62.35 425.55 65.15 423.85 Q72.8 419.0 76.5 417.4 84.95 413.8 92.9 414.8 93.9 414.9 93.95 415.4 94.0 415.9 93.05 415.9 85.7 415.75 77.35 419.5 73.1 421.4 66.1 425.85 L63.15 427.65 Q61.7 428.3 57.1 428.4 L46.05 428.3 Q37.15 428.05 36.2 428.15 32.05 428.55 25.0 431.6 18.65 434.4 14.7 437.15 3.5 445.5 1.55 444.8 0.9 444.55 0.55 443.75 -0.2 442.15 0.05 438.3 0.3 434.25 1.55 430.6 5.4 419.35 12.3 411.8 17.05 406.6 21.2 404.85 24.2 403.6 31.45 403.8 L40.05 404.3 Q43.75 404.3 48.55 400.95 52.4 398.25 56.05 394.15 59.65 390.05 61.4 388.75 63.55 387.15 66.3 386.85"/><path fill="#0d131a" d="M91.05 395.25 Q90.8 395.05 91.2 394.6 91.6 394.1 91.85 394.3 94.6 396.2 95.3 399.6 95.95 402.95 94.25 406.15 92.95 408.8 90.05 409.4 88.55 409.7 86.85 409.4 85.25 409.1 84.45 408.45 82.3 406.8 81.45 404.25 80.8 402.3 81.05 400.65 81.1 400.35 81.7 400.4 82.3 400.45 82.25 400.8 L82.55 403.1 Q83.25 405.6 85.4 407.25 85.95 407.65 87.0 407.9 88.3 408.15 89.5 407.9 91.65 407.35 92.65 405.4 94.15 402.55 93.55 399.5 93.0 396.75 91.05 395.25"/><path fill="#0d131a" d="M117.3 361.55 Q113.15 364.85 109.65 365.6 107.9 365.95 104.45 365.55 L99.4 364.75 94.15 364.2 Q93.75 364.2 93.2 362.85 92.65 361.45 93.05 361.45 L99.2 362.5 105.1 363.65 110.0 363.25 Q113.2 362.45 116.05 359.95 L129.1 349.15 144.75 336.05 Q163.1 320.05 186.25 321.05 187.55 321.1 187.4 321.75 187.3 322.45 186.0 322.45 174.8 322.6 165.15 326.3 155.3 330.1 146.35 337.9 138.2 345.0 117.3 361.55"/><path fill="#0d131a" d="M160.05 368.85 L152.7 369.8 Q148.05 370.6 144.1 372.35 134.5 376.65 129.9 382.05 126.1 386.45 120.15 398.9 114.95 409.8 108.3 416.0 103.1 420.8 93.3 425.6 92.95 425.75 93.05 424.75 93.1 423.75 93.45 423.55 102.35 418.4 106.85 414.05 113.05 408.0 118.05 397.6 124.05 385.05 128.45 380.15 133.4 374.65 143.5 370.1 147.65 368.25 152.05 367.4 L159.35 366.45 168.05 365.0 Q173.15 363.65 178.3 360.55 186.85 355.4 192.6 349.7 194.55 347.75 197.7 343.7 198.65 342.55 199.2 342.9 199.8 343.2 199.05 344.35 196.65 348.15 194.05 351.0 188.15 357.45 179.4 362.75 174.05 365.95 168.8 367.35 L160.05 368.85"/><path fill="#0d131a" d="M133.45 349.95 Q137.8 349.8 138.75 350.75 139.25 351.2 139.0 352.0 L138.35 353.55 Q131.15 368.9 129.65 381.35 129.6 381.85 127.7 381.95 129.65 369.5 133.55 359.55 137.0 352.2 136.9 351.9 136.8 351.55 134.1 351.5 L129.45 351.65 Q129.1 351.7 128.95 351.0 128.8 350.35 129.15 350.25 L133.45 349.95"/><path fill="#0d131a" d="M144.35 339.0 Q144.0 339.1 143.9 338.4 143.75 337.65 144.1 337.55 147.95 336.25 152.25 335.55 158.0 334.55 160.4 335.5 161.35 335.85 160.8 336.8 L159.85 338.15 Q156.5 342.4 154.6 346.3 150.1 355.35 146.8 370.5 146.7 371.0 145.0 370.1 148.35 354.85 153.05 345.55 156.0 339.75 159.3 336.7 L152.05 337.15 Q147.65 337.9 144.35 339.0"/><path fill="#0d131a" d="M38.05 343.3 Q38.15 342.95 38.8 343.15 39.5 343.3 39.4 343.7 38.45 349.35 39.05 356.3 39.85 364.9 43.0 370.2 46.4 375.9 53.1 381.4 58.75 385.95 63.55 388.05 63.9 388.2 63.35 388.95 62.85 389.7 62.5 389.55 57.35 387.35 51.55 382.8 44.5 377.3 40.95 371.4 37.35 365.25 36.95 355.35 36.7 347.6 38.05 343.3"/><path fill="#0d131a" d="M76.3 386.0 Q72.4 388.0 70.85 389.1 L69.05 388.05 74.25 384.75 Q78.05 382.55 81.25 381.25 L87.75 378.45 Q91.0 376.75 92.6 374.7 94.55 372.25 94.5 370.3 94.45 368.85 93.0 365.95 90.1 360.35 89.8 356.5 89.2 348.45 94.4 335.0 L98.55 323.65 Q99.7 318.65 97.15 314.65 94.45 310.35 89.35 310.55 L84.7 311.6 Q84.35 311.75 84.0 311.2 83.65 310.65 83.95 310.4 86.6 308.45 90.9 308.75 96.25 309.1 99.15 313.7 102.0 318.15 100.3 324.55 99.35 328.25 96.2 335.8 92.7 346.05 92.15 352.0 91.45 359.75 94.9 364.85 97.0 367.9 96.85 370.45 96.7 372.9 94.45 375.75 91.45 379.7 82.5 383.15 80.1 384.1 76.3 386.0"/><path fill="#0d131a" d="M41.0 314.7 L47.4 314.5 Q51.3 315.05 54.1 317.05 58.85 320.45 59.5 326.45 59.8 329.2 58.95 337.45 57.3 352.9 58.4 359.95 60.45 373.05 70.95 378.4 71.95 378.95 71.6 379.55 L70.25 379.65 Q58.55 373.95 56.1 360.8 54.8 353.7 56.5 337.9 57.25 329.6 57.05 327.3 56.45 321.65 52.7 318.95 50.3 317.25 46.85 316.85 L41.25 317.1 Q36.4 318.2 33.05 322.85 29.2 328.2 30.6 334.55 31.55 338.7 35.0 340.9 37.25 342.3 40.1 342.65 43.45 343.0 45.8 340.85 48.15 338.75 47.8 335.85 47.5 333.45 45.45 332.55 43.45 331.7 42.1 333.15 41.25 334.05 40.8 333.75 40.35 333.4 41.1 332.4 42.95 329.7 46.05 330.8 49.15 331.9 49.65 335.65 50.1 339.3 47.75 342.05 45.0 345.3 39.65 345.0 36.6 344.85 33.55 342.8 29.35 340.05 28.25 335.05 26.65 327.75 31.0 321.65 34.95 316.05 41.0 314.7"/><path fill="#0d131a" d="M69.65 315.7 Q67.25 310.7 60.9 309.55 54.95 308.5 50.85 311.8 48.6 313.65 47.6 315.9 47.45 316.25 46.85 316.05 46.2 315.9 46.25 315.5 46.65 312.75 49.75 310.15 54.15 306.5 61.15 307.45 68.7 308.55 71.55 314.3 74.35 319.85 73.35 331.1 71.95 346.55 73.15 354.85 75.0 367.65 83.0 374.05 83.8 374.7 83.3 375.1 82.85 375.45 82.05 374.9 72.3 367.85 70.55 353.3 69.75 346.7 71.1 331.1 72.05 320.75 69.65 315.7"/><path fill="#0d131a" d="M65.85 309.85 Q67.25 306.85 70.3 305.25 73.65 303.55 77.5 304.45 89.1 307.2 86.75 326.0 84.95 341.0 84.9 348.15 84.75 363.2 89.35 370.0 90.0 370.95 89.4 371.15 88.8 371.35 88.1 370.5 82.8 363.5 82.45 350.95 82.25 343.45 84.4 325.95 86.5 308.75 76.6 306.35 73.0 305.5 70.05 307.5 68.2 308.8 67.1 310.75 L66.3 310.65 Q65.7 310.2 65.85 309.85"/><path fill="#0d131a" d="M62.1 323.9 Q62.15 323.0 62.7 323.15 63.25 323.3 63.45 324.25 63.9 326.45 63.1 328.9 61.9 332.4 58.45 333.8 58.1 333.95 57.8 332.9 57.55 331.8 57.9 331.65 60.35 330.65 61.3 328.4 62.0 326.8 62.1 323.9"/><path fill="#0d131a" d="M77.45 323.95 Q77.75 323.05 78.35 323.05 78.95 323.05 78.85 324.0 78.65 326.35 76.85 328.5 74.75 331.0 72.2 330.7 71.85 330.65 71.85 329.6 71.9 328.5 72.25 328.55 73.95 328.75 75.55 327.1 76.95 325.7 77.45 323.95"/><path fill="#0d131a" d="M90.85 324.25 Q91.25 323.2 91.75 323.4 92.25 323.55 91.95 324.65 91.4 326.65 90.05 327.95 88.15 329.85 85.15 329.55 84.75 329.5 84.85 328.6 84.95 327.7 85.35 327.75 87.45 327.9 89.05 326.65 90.2 325.7 90.85 324.25"/><path fill="#0d131a" d="M160.7 326.75 L157.65 328.05 Q170.0 307.1 192.95 301.55 209.05 297.65 231.05 301.5 231.45 301.6 231.1 302.5 230.8 303.45 230.4 303.35 181.6 295.45 160.7 326.75"/><path fill="#0d131a" d="M267.6 393.7 L267.5 391.1 Q275.65 385.9 281.35 379.45 284.7 375.6 285.7 373.45 L286.85 373.4 Q287.85 373.65 287.65 374.0 285.85 377.35 282.4 381.25 276.25 388.25 267.6 393.7"/><path fill="#0d131a" d="M178.7 391.15 Q195.8 407.75 223.85 405.0 L223.95 407.6 Q194.95 410.45 177.15 392.65 170.8 386.35 166.75 378.2 163.65 372.0 162.9 367.35 162.85 367.0 163.75 367.0 164.7 367.0 164.75 367.35 165.7 371.95 168.65 377.65 172.65 385.3 178.7 391.15"/><path fill="#0d131a" d="M177.5 392.3 L178.5 392.2 Q179.4 392.45 179.3 392.8 L178.65 395.5 Q178.1 398.5 178.05 401.35 177.95 410.25 182.95 414.55 183.25 414.8 182.65 415.5 182.05 416.2 181.75 415.95 175.4 410.55 175.8 401.15 175.9 398.15 176.7 395.05 L177.5 392.3"/><path fill="#0d131a" d="M221.95 405.75 Q222.2 405.5 222.9 406.1 223.55 406.7 223.3 407.0 214.3 417.65 204.65 421.05 197.8 423.45 191.8 421.95 191.45 421.9 191.65 421.0 191.9 420.1 192.25 420.15 196.4 421.15 203.35 418.65 213.2 415.15 221.95 405.75"/><path fill="#0d131a" d="M222.75 395.35 Q223.0 393.0 223.85 392.95 224.65 392.85 224.55 395.3 223.95 408.8 228.95 417.5 233.7 425.8 242.35 427.95 242.75 428.05 242.5 428.95 242.3 429.85 241.9 429.75 232.25 427.35 226.9 418.7 221.05 409.2 222.75 395.35"/><path fill="#0d131a" d="M266.15 387.9 Q265.85 385.9 266.5 385.75 267.2 385.55 267.75 387.85 269.9 396.95 268.25 407.8 265.85 423.65 255.05 428.85 254.7 429.0 254.6 427.9 254.5 426.75 254.85 426.6 263.5 422.85 265.8 406.2 267.3 395.15 266.15 387.9"/><path fill="#0d131a" d="M184.65 413.2 L188.5 413.05 Q190.4 413.4 191.75 415.05 193.4 417.0 193.15 419.85 192.95 422.6 190.4 424.8 L179.65 434.5 Q170.75 442.85 170.25 444.15 169.75 445.7 169.9 449.2 L170.3 453.75 171.05 458.25 Q171.75 461.55 172.4 463.3 173.5 466.45 173.45 468.25 173.4 471.65 170.45 474.25 170.15 474.5 169.75 473.9 169.4 473.3 169.65 473.05 171.55 471.15 171.4 468.25 171.3 466.6 170.3 463.8 169.1 460.35 168.3 453.85 167.6 446.35 168.5 443.55 169.1 441.8 178.7 432.6 L188.75 423.2 Q191.1 421.25 191.1 419.95 191.3 417.75 190.05 416.3 189.15 415.15 187.95 414.9 186.35 414.65 184.9 415.45 L182.8 417.1 162.7 437.6 Q162.4 437.9 161.75 437.25 161.15 436.55 161.4 436.3 L171.6 425.7 181.45 415.35 Q183.15 413.7 184.65 413.2"/><path fill="#0d131a" d="M163.95 440.1 Q164.35 441.2 163.7 441.35 163.0 441.55 162.55 440.45 156.2 424.6 151.45 414.9 147.65 407.15 145.9 405.2 144.25 403.45 141.85 403.7 140.7 403.8 139.65 404.35 138.65 404.9 138.1 405.7 137.9 406.05 137.25 405.55 136.65 405.1 136.75 404.75 137.2 403.5 138.6 402.55 140.05 401.6 141.65 401.45 145.6 401.2 147.8 403.7 149.8 406.1 153.7 414.65 158.15 424.5 163.95 440.1"/><path fill="#0d131a" d="M135.4 415.2 Q135.3 415.1 136.05 414.55 136.8 414.0 136.85 414.1 137.55 414.95 142.05 416.55 144.6 417.45 149.75 426.6 154.6 435.25 155.6 439.6 155.85 440.75 155.25 440.9 154.6 441.0 154.2 439.9 152.4 435.45 147.65 427.3 142.6 418.75 141.25 418.2 136.3 416.4 135.4 415.2"/><path fill="#0d131a" d="M133.4 415.05 L135.8 414.2 Q140.05 417.7 145.2 423.25 150.6 429.05 152.75 432.7 152.95 433.05 152.2 433.55 L151.2 433.7 Q148.75 429.85 142.85 423.7 137.2 417.9 133.4 415.05"/><path fill="#0d131a" d="M131.05 413.6 Q128.8 412.9 126.45 413.15 124.05 413.35 123.2 414.45 L122.25 414.35 Q121.55 413.95 121.75 413.6 123.25 411.25 126.45 410.9 129.1 410.6 132.05 411.65 L131.05 413.6"/><path fill="#0d131a" d="M122.85 422.25 Q122.75 421.9 123.5 421.75 124.3 421.55 124.4 421.9 124.8 423.0 129.3 424.4 133.05 425.5 137.05 428.15 143.9 432.65 147.4 439.55 148.0 440.7 147.35 441.05 146.7 441.4 146.05 440.25 142.45 433.85 136.0 429.85 132.5 427.7 128.7 426.5 123.75 424.95 122.85 422.25"/><path fill="#0d131a" d="M123.0 426.3 Q126.35 426.05 133.1 428.95 138.65 431.35 143.95 434.6 144.3 434.8 144.05 435.55 143.8 436.35 143.45 436.15 139.0 433.4 132.15 430.85 125.4 428.35 123.0 428.45 120.95 428.55 119.35 429.5 117.45 430.55 117.0 432.35 116.95 432.75 116.2 432.5 115.5 432.3 115.55 431.9 116.1 429.15 118.4 427.7 120.25 426.5 123.0 426.3"/><path fill="#0d131a" d="M163.2 470.5 Q163.55 470.7 163.1 471.5 162.7 472.3 162.35 472.1 160.15 470.95 159.6 468.5 159.25 466.75 159.7 463.9 160.05 461.55 158.85 460.1 157.45 458.4 152.75 455.95 149.35 454.2 147.55 452.55 146.45 451.6 145.05 449.65 L142.6 446.6 Q140.2 444.15 136.35 442.55 132.9 441.15 128.9 440.65 122.5 439.8 120.5 438.3 L121.45 437.1 124.85 437.95 128.7 438.45 Q133.05 439.0 137.1 440.6 142.0 442.55 144.7 445.35 L147.35 448.55 Q148.55 450.3 149.6 451.2 151.15 452.65 154.35 454.3 159.25 456.85 160.7 459.15 161.8 460.85 161.5 464.1 161.25 467.25 161.5 468.35 161.8 469.75 163.2 470.5"/><path fill="#0d131a" d="M120.45 432.85 Q119.9 432.45 119.15 432.3 L117.2 432.4 Q116.1 432.85 115.65 433.95 114.85 436.05 114.25 439.55 113.75 442.7 113.9 442.8 L117.4 439.75 121.45 435.95 Q122.05 435.35 121.6 434.25 L120.45 432.85 M123.35 434.8 Q123.5 436.0 122.55 437.05 L114.0 444.35 Q113.45 444.8 113.1 444.5 112.25 443.95 112.65 440.2 113.0 436.5 114.25 433.4 114.95 431.5 116.7 430.9 L119.35 430.75 Q120.6 430.95 121.3 431.45 123.1 432.65 123.35 434.8"/><path fill="#0d131a" d="M125.55 420.2 L126.45 419.1 Q126.85 418.25 126.7 417.25 126.5 416.0 125.55 415.35 124.45 414.6 123.35 414.6 122.3 414.6 121.6 415.2 119.1 417.25 115.55 423.8 L119.95 422.2 123.7 421.0 125.55 420.2 M128.15 416.3 Q128.6 417.9 127.85 419.7 127.4 420.8 126.35 421.5 L124.2 422.45 115.55 425.05 Q114.45 425.25 114.2 424.8 113.65 423.85 116.0 419.85 118.4 415.85 120.6 414.05 122.0 412.9 123.95 413.1 125.45 413.25 126.5 414.0 127.7 414.85 128.15 416.3"/><path fill="#0d131a" d="M140.9 406.6 Q140.0 405.95 139.0 405.8 137.9 405.7 136.95 406.25 135.55 407.15 132.95 411.15 130.5 414.95 130.65 415.2 L139.95 412.05 Q142.3 411.05 142.3 409.2 142.3 407.75 140.9 406.6 M141.85 405.15 Q143.35 406.1 143.75 407.8 144.2 409.55 143.4 411.3 143.0 412.25 141.75 412.9 L139.7 413.75 134.7 415.3 130.1 416.6 Q128.7 416.8 129.25 415.4 130.1 413.1 132.25 409.65 134.75 405.65 136.3 404.85 139.2 403.45 141.85 405.15"/><path fill="#0d131a" d="M169.25 473.2 L168.95 471.8 Q168.25 470.5 166.75 470.25 164.85 470.0 164.05 470.8 163.55 471.25 163.55 472.15 L163.55 472.4 Q163.25 477.45 163.25 481.5 L163.25 482.05 168.75 475.1 Q169.25 474.15 169.25 473.2 M163.0 469.7 Q164.25 468.45 166.95 468.75 169.3 469.1 170.3 471.1 171.5 473.35 170.05 475.9 L170.0 475.95 163.85 483.65 Q162.8 484.65 162.2 484.25 161.8 483.95 161.75 482.45 161.6 479.95 162.0 472.4 161.95 470.65 163.0 469.7"/><path fill="#0d131a" d="M244.25 416.45 Q244.5 416.2 245.0 416.75 245.5 417.3 245.2 417.55 243.9 418.75 243.35 421.05 242.5 424.75 243.75 430.45 245.2 437.1 245.85 444.7 L246.2 451.05 Q246.2 452.35 245.5 452.35 244.8 452.35 244.7 451.05 243.55 439.75 241.55 430.9 239.35 420.75 244.25 416.45"/><path fill="#0d131a" d="M254.55 417.3 Q254.3 417.0 254.8 416.45 255.3 415.95 255.55 416.2 L257.25 418.05 Q258.1 419.3 258.05 420.85 257.95 422.45 256.25 427.15 255.05 430.45 255.0 431.05 L252.95 451.5 Q252.75 453.05 252.15 452.9 251.55 452.8 251.55 451.6 L252.15 441.25 Q252.75 431.9 252.9 430.85 L254.2 426.65 Q255.85 421.9 255.9 420.7 255.95 419.55 255.6 418.7 L254.55 417.3"/><path fill="#0d131a" d="M245.4 447.95 Q245.65 448.3 245.4 449.45 245.2 450.65 244.95 450.35 237.95 440.7 232.15 429.8 L229.4 424.9 Q228.15 422.9 227.35 422.5 225.55 421.65 223.45 422.45 221.7 423.1 221.05 424.15 L220.15 424.25 Q219.4 424.05 219.5 423.7 220.15 421.6 222.8 420.5 225.6 419.3 228.25 420.55 229.5 421.15 230.9 423.2 L234.0 428.65 238.55 437.2 Q241.85 443.0 245.4 447.95"/><path fill="#0d131a" d="M219.0 434.15 Q218.85 433.8 219.6 433.4 L220.45 433.35 Q221.3 435.35 223.7 436.25 226.35 437.25 229.35 440.25 233.7 444.6 241.0 455.0 241.7 456.0 241.1 456.35 240.55 456.75 239.8 455.8 231.9 445.7 227.4 441.45 224.7 438.95 222.6 438.15 221.0 437.55 220.15 436.4 219.6 435.7 219.0 434.15"/><path fill="#0d131a" d="M268.7 423.8 Q270.2 421.4 272.75 421.4 275.2 421.4 277.25 423.4 277.5 423.65 276.95 424.05 L276.1 424.2 Q274.3 422.95 272.55 423.3 270.8 423.6 269.85 425.35 L267.4 429.9 Q265.3 433.6 263.1 436.3 258.3 442.15 252.6 450.8 252.4 451.15 252.2 449.45 252.05 447.8 252.25 447.45 255.95 441.6 261.5 434.9 L265.3 429.4 268.7 423.8"/><path fill="#0d131a" d="M278.05 431.6 Q278.05 431.2 278.75 431.25 279.45 431.3 279.45 431.7 279.45 435.9 274.05 440.5 268.4 445.25 265.8 447.85 261.4 452.35 260.55 455.5 258.75 462.3 256.45 465.95 L254.0 469.25 Q253.55 470.2 253.55 473.45 L253.65 477.4 254.45 481.6 Q255.2 484.3 255.05 485.75 254.7 488.2 252.0 490.9 251.7 491.2 251.25 490.5 250.8 489.8 251.05 489.5 252.95 487.55 253.1 485.25 253.15 483.95 252.45 481.3 252.05 480.0 251.8 477.5 L251.5 473.3 Q251.45 469.55 252.45 468.3 256.8 462.85 258.8 455.05 259.7 451.6 265.0 446.0 268.45 442.4 272.65 439.0 274.7 437.3 276.45 434.8 278.05 432.5 278.05 431.6"/><path fill="#0d131a" d="M238.2 427.85 Q238.15 427.5 239.3 427.65 240.45 427.85 240.5 428.2 L240.8 431.9 Q241.45 439.6 241.25 442.15 241.2 442.55 240.3 442.45 239.35 442.4 239.4 442.0 L239.15 437.25 238.5 431.6 238.2 427.85"/><path fill="#0d131a" d="M243.1 489.05 Q243.5 489.2 243.1 490.05 242.7 490.9 242.35 490.7 238.25 488.7 239.6 481.65 L240.75 473.85 Q241.45 468.15 241.05 467.3 237.2 461.55 235.95 457.5 234.7 453.45 235.8 450.35 235.9 450.0 236.6 450.2 237.3 450.45 237.2 450.8 236.7 453.1 237.95 457.05 239.4 461.5 242.6 466.3 243.95 468.3 241.8 482.65 241.35 485.3 241.5 486.55 241.7 488.4 243.1 489.05"/><path fill="#0d131a" d="M219.9 424.85 Q217.1 426.4 215.7 431.65 214.4 436.55 215.0 436.65 L216.45 435.25 Q218.3 433.5 221.0 431.9 224.5 429.9 224.8 427.85 225.1 426.1 223.1 424.9 221.65 423.95 219.9 424.85 M214.65 430.1 Q216.3 424.7 218.95 423.3 221.5 421.95 224.2 423.55 226.75 425.1 226.45 428.0 226.3 429.65 225.35 430.8 224.2 432.1 221.65 433.3 219.4 434.4 216.35 437.2 L215.15 438.2 214.35 438.25 Q213.9 438.1 213.7 437.2 213.25 434.8 214.65 430.1"/><path fill="#0d131a" d="M245.5 412.95 Q247.0 411.3 249.15 411.0 252.35 410.6 254.35 412.75 255.45 413.95 255.8 415.95 256.1 417.5 255.9 419.05 255.7 420.65 254.05 424.55 252.2 429.0 251.15 429.1 250.65 429.15 249.95 428.55 248.2 427.0 246.35 424.0 244.05 420.25 243.95 417.55 243.8 414.85 245.5 412.95 M253.0 414.1 Q251.55 412.4 249.4 412.7 248.0 412.9 246.75 414.25 245.45 415.75 245.45 417.5 L245.45 417.55 Q245.5 421.1 250.9 427.4 251.2 427.4 252.7 423.85 254.2 420.2 254.35 418.9 L254.4 418.15 Q254.4 415.65 253.0 414.1"/><path fill="#0d131a" d="M275.8 430.95 Q277.75 430.5 280.4 430.9 L282.7 431.3 Q281.85 427.6 280.05 426.2 278.4 424.9 276.35 424.7 274.3 424.45 273.2 425.4 272.4 426.05 271.95 427.05 271.4 428.4 272.0 429.6 273.0 431.6 275.8 430.95 M276.15 423.05 Q278.8 423.2 280.85 424.85 282.5 426.1 283.35 428.85 284.05 431.0 283.85 431.9 283.7 432.45 283.25 432.6 L281.9 432.55 Q278.55 431.85 276.2 432.45 274.55 432.9 273.15 432.45 271.45 431.9 270.6 430.25 269.65 428.35 270.3 426.55 270.8 425.2 271.95 424.25 273.55 422.9 276.15 423.05"/><path fill="#0d131a" d="M243.3 487.55 Q244.7 486.1 247.4 486.1 250.0 486.2 251.25 487.65 252.45 489.0 252.2 491.25 252.0 492.75 250.4 497.05 248.55 501.95 247.55 502.0 246.45 502.05 244.35 497.85 242.2 493.7 242.1 491.25 242.05 488.85 243.3 487.55 M247.4 487.65 Q245.5 487.5 244.4 488.6 243.65 489.45 243.65 490.85 L243.65 491.15 Q243.75 493.05 245.15 496.05 246.25 498.35 247.4 499.95 L249.3 495.65 Q250.5 492.55 250.65 491.05 L250.7 490.45 Q250.7 489.35 250.1 488.65 249.25 487.65 247.4 487.65"/></g></svg>