<?xml version='1.0' encoding='utf-8'?>
<svg xmlns="http://www.w3.org/2000/svg" version="1.1" width="292px" height="184px" viewBox="-0.05 -0.2 291.65 184.35"><g><path fill="#0d131a" d="M115.2 62.65 L115.3 62.75 115.35 62.9 117.05 68.45 Q118.7 74.55 119.55 80.2 122.25 97.85 115.95 104.65 110.6 110.45 99.15 107.5 88.45 104.7 63.4 102.25 38.35 99.8 22.7 100.0 17.85 100.1 17.8 98.95 17.75 97.8 22.4 95.4 26.75 93.2 34.25 89.9 33.8 88.7 19.55 86.6 L4.05 84.65 Q0.05 84.4 0.0 83.95 -0.05 83.45 4.2 81.55 7.2 80.25 16.1 77.15 L27.85 73.15 Q14.95 65.9 10.4 63.1 8.65 62.0 8.75 61.65 8.85 61.25 11.2 60.6 17.2 58.85 32.95 54.9 L20.7 45.45 9.5 36.85 Q7.75 35.35 7.85 35.05 L10.35 34.45 22.2 33.6 Q32.3 33.15 37.55 33.6 L30.5 24.3 Q29.5 23.0 29.6 22.75 L31.35 22.7 43.35 24.55 34.55 16.3 27.2 9.65 26.05 8.25 Q26.05 7.85 27.85 8.0 31.75 8.35 49.45 11.35 46.45 7.85 43.1 2.55 41.7 0.3 41.95 0.1 42.2 -0.2 45.5 0.85 63.3 6.5 88.35 31.85 102.65 46.35 115.2 62.65"/><path fill="#efeddf" d="M118.45 89.75 Q118.45 99.2 114.6 103.4 109.9 108.4 99.6 105.7 88.2 102.7 64.6 99.8 38.7 96.7 23.85 97.2 L31.5 93.25 37.5 90.45 Q39.75 89.3 39.75 88.9 39.7 88.5 37.2 87.7 33.65 86.55 27.35 85.55 L8.05 82.95 Q13.45 80.15 21.35 77.35 25.5 75.85 30.3 74.3 L32.6 73.4 Q32.7 73.15 30.6 72.05 L22.2 67.3 13.8 62.4 24.55 59.4 Q33.05 57.15 35.05 56.85 L37.45 56.5 35.5 54.6 Q22.95 43.2 13.45 36.6 L29.1 35.75 Q37.65 35.9 40.45 36.75 42.7 37.45 42.65 37.1 L41.3 35.5 33.25 24.9 39.75 25.85 45.35 26.95 47.55 27.3 Q48.1 27.05 46.55 25.25 39.2 16.95 31.1 10.35 L43.8 12.2 51.7 13.6 53.95 13.8 52.55 12.05 49.65 8.75 46.0 3.8 Q64.2 10.4 88.05 34.35 101.8 48.2 113.65 63.65 115.05 67.8 116.2 72.9 118.45 82.5 118.45 89.75"/><path fill="#c9c8bc" d="M118.45 89.65 L118.45 89.75 Q118.45 99.2 114.6 103.4 109.9 108.4 99.6 105.7 88.2 102.7 64.6 99.8 38.7 96.7 23.85 97.2 L31.5 93.25 37.5 90.45 Q39.75 89.3 39.75 88.9 39.7 88.5 37.2 87.7 33.65 86.55 27.35 85.55 L8.05 82.95 Q13.45 80.15 21.35 77.35 25.5 75.85 30.3 74.3 L32.6 73.4 Q32.7 73.15 30.6 72.05 L22.2 67.3 13.8 62.4 14.2 62.25 Q22.45 62.45 31.75 63.95 40.85 65.45 48.85 67.9 46.15 68.45 43.35 69.85 L37.4 72.6 Q57.35 72.15 78.55 77.15 93.8 80.75 118.45 89.65"/><path fill="#0d131a" d="M89.9 36.2 L91.35 35.1 Q103.85 47.9 115.2 62.65 L115.3 62.75 115.35 62.9 117.05 68.45 Q118.7 74.55 119.55 80.2 122.25 97.85 115.95 104.65 110.6 110.45 99.15 107.5 93.2 105.95 82.4 104.2 71.4 102.4 59.7 101.1 L59.5 101.1 Q54.1 97.85 49.65 95.7 45.9 93.9 45.75 93.6 45.5 93.05 49.35 92.3 L56.75 90.7 64.6 89.1 Q62.0 87.05 53.0 82.65 L43.15 77.95 Q41.65 77.15 41.75 76.85 41.85 76.55 44.1 75.9 L57.55 73.4 71.9 70.9 Q69.75 67.6 63.35 60.9 L62.25 59.5 64.7 59.3 73.65 60.3 81.9 61.1 70.45 50.6 59.3 40.6 57.35 39.2 59.95 38.9 Q63.6 39.05 74.65 42.1 86.7 45.35 94.75 48.75 91.7 39.15 89.9 36.2"/><path fill="#61532e" d="M94.0 40.55 Q103.95 51.15 113.65 63.65 115.05 67.8 116.2 72.9 118.45 82.5 118.45 89.75 118.45 99.2 114.6 103.4 109.9 108.4 99.6 105.7 93.7 104.15 82.8 102.35 L60.1 99.3 50.5 93.95 Q56.0 92.55 67.85 90.55 L69.95 90.25 68.3 88.9 Q62.85 84.95 55.3 81.2 L46.85 77.15 61.45 74.6 73.75 72.8 75.7 72.75 Q75.9 72.6 74.9 71.05 73.75 69.15 71.55 66.4 L67.0 61.25 75.65 62.0 84.3 63.0 86.9 63.75 84.95 61.4 75.2 51.65 Q67.45 44.25 63.75 41.5 72.15 43.1 84.15 47.0 94.2 50.25 96.0 51.25 L97.65 52.1 Q98.05 52.05 97.25 50.05 L95.35 44.7 94.0 40.55"/><path fill="#524423" d="M92.6 83.2 L118.4 87.2 118.45 89.75 Q118.45 99.2 114.6 103.4 109.9 108.4 99.6 105.7 93.7 104.15 82.8 102.35 L60.1 99.3 50.5 93.95 Q56.0 92.55 67.85 90.55 L69.95 90.25 68.3 88.9 Q62.85 84.95 55.3 81.2 L46.85 77.15 59.35 74.95 70.1 75.2 80.45 76.45 Q70.55 78.35 66.4 81.45 77.35 81.1 92.6 83.2"/><path fill="#0d131a" d="M163.0 104.2 Q166.6 101.15 170.5 100.85 174.4 100.55 178.35 102.95 L179.1 102.85 179.35 103.05 Q183.55 105.7 189.85 115.95 197.8 128.85 198.05 139.85 198.15 144.5 196.55 154.9 195.5 161.5 195.7 162.65 195.95 164.1 194.15 165.5 191.1 167.95 184.55 169.6 177.65 171.25 173.85 170.05 168.1 168.15 161.65 158.0 157.0 150.6 152.4 139.75 149.65 133.35 152.85 121.85 156.2 109.95 163.0 104.2"/><path fill="#524423" d="M196.2 140.7 Q196.2 145.6 194.7 154.6 193.8 160.2 193.8 161.95 L193.85 162.95 193.0 164.05 Q190.3 166.3 184.2 167.85 177.75 169.45 174.5 168.3 170.65 166.85 164.15 157.35 158.05 148.35 154.1 139.0 151.6 133.1 154.7 122.2 157.9 110.9 164.2 105.6 170.6 100.15 177.7 104.7 L177.95 104.85 178.6 104.8 Q182.75 107.85 188.55 117.35 195.95 129.65 196.2 139.9 L196.2 140.7"/><path fill="#0d131a" d="M190.25 160.6 L192.2 160.65 192.25 160.65 192.35 160.7 Q197.3 163.15 198.9 165.0 199.45 165.7 200.0 167.75 200.45 169.55 200.25 169.9 L199.1 170.15 Q186.45 167.35 186.2 166.0 186.05 164.9 186.35 163.65 186.65 162.35 187.25 161.75 188.2 160.7 190.25 160.6"/><path fill="#dbdcdc" d="M187.55 164.5 Q187.55 163.3 188.2 162.6 188.95 161.85 190.4 161.65 L192.0 161.6 Q198.55 164.7 199.05 168.95 L191.5 166.85 Q187.95 165.75 187.6 165.2 L187.55 164.5"/><path fill="#0d131a" d="M190.85 163.15 Q194.9 166.2 195.85 170.65 196.15 172.0 195.75 172.3 L193.6 172.15 Q182.95 169.1 181.75 167.05 L180.95 165.7 Q180.6 164.9 180.9 164.2 181.45 163.05 182.6 162.1 183.85 161.1 185.1 160.9 187.4 160.55 190.85 163.15"/><path fill="#dbdcdc" d="M182.55 166.55 Q182.25 166.05 182.25 165.5 182.25 164.9 182.5 164.4 182.85 163.55 183.75 162.9 184.65 162.3 185.7 162.15 187.25 161.9 190.15 164.4 193.45 167.25 194.6 170.9 L187.15 168.8 Q183.05 167.4 182.55 166.55"/><path fill="#0d131a" d="M184.9 166.5 L187.4 168.5 Q188.85 169.9 189.25 171.4 189.55 172.5 189.25 173.05 188.95 173.5 188.35 173.4 L182.25 172.55 Q176.4 171.55 174.85 170.25 174.45 169.95 174.35 169.2 L174.45 167.75 Q174.75 166.5 175.95 165.2 177.15 163.85 178.35 163.65 179.3 163.45 181.3 164.35 L184.9 166.5"/><path fill="#dbdcdc" d="M176.25 169.05 Q176.0 168.95 176.0 168.5 L176.1 167.95 Q176.35 166.95 177.15 166.0 178.05 165.05 178.9 164.9 179.65 164.75 181.2 165.4 182.85 166.05 184.35 167.25 187.25 169.5 187.85 172.3 178.15 170.6 176.25 169.05"/><path fill="#dbdcdc" d="M178.9 164.9 L180.85 165.3 Q182.2 165.8 183.6 166.7 179.7 166.6 176.2 169.0 L176.0 168.5 176.1 167.95 Q176.35 166.95 177.15 166.0 178.05 165.05 178.9 164.9"/><path fill="#0d131a" d="M72.45 143.95 Q72.85 133.45 79.35 121.85 84.25 113.05 88.05 110.05 L88.3 109.85 89.05 109.85 Q92.7 107.05 96.6 106.9 100.55 106.8 104.45 109.4 111.8 114.4 116.4 125.9 120.85 136.95 118.85 143.6 115.9 153.25 110.75 163.0 104.95 173.9 100.75 176.05 97.2 177.8 90.1 176.85 83.45 175.9 80.05 173.75 78.25 172.55 78.25 171.2 L78.25 170.95 77.65 168.0 76.35 163.55 73.9 154.05 Q72.3 147.3 72.45 143.95"/><path fill="#61532e" d="M80.1 170.95 Q80.1 169.5 78.35 162.95 75.75 153.45 75.3 148.5 L75.2 146.0 Q75.2 136.1 81.0 124.15 85.55 114.85 89.0 111.7 L89.65 111.7 89.9 111.5 Q96.4 106.3 103.4 110.95 110.2 115.6 114.65 126.45 118.9 136.95 117.05 143.1 114.15 152.85 109.0 162.45 103.6 172.55 99.9 174.4 96.85 175.9 90.25 175.0 84.05 174.1 81.1 172.2 80.1 171.55 80.1 171.2 L80.1 170.95"/><path fill="#524423" d="M89.0 111.7 L89.65 111.7 89.9 111.5 Q96.4 106.3 103.4 110.95 110.2 115.6 114.65 126.45 118.9 136.95 117.05 143.1 114.15 152.65 109.4 161.65 109.0 160.9 107.8 156.55 106.8 153.05 105.45 151.9 103.65 151.05 97.5 150.9 90.15 150.7 86.35 152.6 L91.2 143.15 Q93.7 138.65 97.3 133.6 92.9 133.2 87.1 133.65 L76.9 134.75 Q79.05 127.3 83.35 119.8 86.8 113.7 89.0 111.7"/><path fill="#0d131a" d="M74.25 179.4 L73.6 179.5 Q72.95 179.5 73.0 178.9 73.1 176.6 74.3 174.05 76.35 169.7 80.6 167.65 L80.65 167.6 80.7 167.6 82.25 167.4 Q83.95 167.35 84.9 168.15 85.75 168.8 85.95 170.2 L85.95 173.45 Q85.9 174.35 82.05 176.2 78.7 177.85 74.25 179.4"/><path fill="#ffffff" d="M76.4 173.45 Q78.25 170.15 81.05 168.45 L82.1 168.35 Q83.2 168.4 83.9 168.95 85.1 169.95 85.1 172.4 L85.05 173.3 Q84.75 173.85 81.5 175.25 L74.6 177.9 Q75.25 175.55 76.4 173.45"/><path fill="#dbdcdc" d="M83.9 168.95 Q85.1 169.95 85.1 172.4 L85.05 173.3 Q84.5 174.3 76.75 177.1 79.1 171.15 83.15 168.55 L83.9 168.95"/><path fill="#0d131a" d="M79.15 180.15 Q77.4 180.95 77.75 179.8 79.1 175.75 81.4 173.0 84.7 169.0 89.5 168.4 91.9 168.1 93.6 170.3 94.75 171.75 93.95 173.3 93.3 174.7 87.05 177.3 82.6 179.15 79.15 180.15"/><path fill="#ffffff" d="M89.55 169.75 L91.45 169.9 Q92.4 170.2 92.9 170.9 93.3 171.45 93.3 172.1 L93.15 172.9 Q92.35 174.6 79.25 178.6 80.5 176.05 83.3 173.4 86.65 170.25 89.55 169.75"/><path fill="#dbdcdc" d="M92.85 170.8 L92.9 170.9 Q93.3 171.45 93.3 172.1 L93.15 172.9 Q92.35 174.5 80.7 178.15 82.6 175.1 85.75 173.2 88.9 171.3 92.85 170.8"/><path fill="#0d131a" d="M90.0 173.15 Q92.55 170.75 96.6 170.4 98.55 170.2 99.4 171.65 99.95 172.55 100.15 174.0 100.3 175.45 99.9 176.15 99.35 177.1 93.65 178.7 L86.65 180.55 86.2 180.6 Q85.85 180.35 86.4 178.9 87.9 175.15 90.0 173.15"/><path fill="#ffffff" d="M87.7 179.1 Q89.3 175.95 90.7 174.4 93.25 171.6 96.7 171.3 97.7 171.25 98.35 172.3 98.85 173.1 98.85 174.05 L98.65 175.0 Q97.95 176.1 87.7 179.15 L87.7 179.1"/><path fill="#dbdcdc" d="M98.0 171.85 L98.35 172.3 Q98.85 173.1 98.85 174.05 L98.65 175.0 Q98.15 175.75 91.45 178.0 92.9 175.6 94.15 174.3 95.9 172.55 98.0 171.85"/><path fill="#0d131a" d="M100.35 40.55 Q99.4 37.8 99.8 37.55 100.1 37.3 102.8 38.45 L131.7 50.85 155.8 150.25 128.0 167.1 Q127.0 167.5 127.0 166.55 L125.95 152.45 107.45 162.55 Q104.95 163.9 106.05 161.1 L115.5 137.35 96.85 140.05 80.1 142.8 77.55 143.2 Q77.4 142.95 79.25 140.4 82.95 135.2 89.75 129.55 93.2 126.7 99.15 122.45 95.55 121.0 82.65 116.8 L68.15 112.3 Q65.2 111.6 65.25 111.05 65.25 110.55 68.15 108.65 70.55 107.1 79.85 102.55 88.85 98.1 92.85 96.45 L78.75 90.55 Q76.2 89.4 76.7 88.55 77.15 87.85 79.75 87.6 L95.45 86.0 Q93.35 82.7 88.55 77.15 L81.5 69.55 Q79.1 67.3 79.45 66.9 L82.9 66.8 96.15 68.85 108.15 70.9 104.45 56.1 100.35 40.55"/><path fill="#efeddf" d="M110.25 71.75 L103.95 41.5 130.15 52.25 153.65 149.4 128.7 164.5 127.6 149.45 108.55 159.85 118.4 135.1 116.8 135.3 Q93.45 138.35 81.7 140.6 84.75 136.0 92.85 129.45 98.5 124.9 101.6 123.0 102.7 122.3 102.3 121.95 102.1 121.75 99.2 120.45 94.65 118.45 87.75 115.9 77.75 112.2 70.85 110.4 75.5 107.05 84.8 102.35 91.95 98.75 95.35 97.4 97.05 96.7 96.4 96.15 L95.45 95.7 89.6 92.8 Q84.85 90.5 83.45 90.0 81.5 89.3 84.0 89.3 L90.85 88.4 97.1 87.6 Q98.65 87.55 98.75 86.95 98.8 86.5 97.85 85.2 89.6 74.05 85.55 69.7 L110.6 73.0 110.25 71.75"/><path fill="#c9c8bc" d="M70.85 110.4 L71.65 109.85 Q87.9 105.65 106.7 103.7 L142.15 101.8 153.65 149.4 128.7 164.5 127.6 149.45 108.55 159.85 118.4 135.1 116.8 135.3 Q93.45 138.35 81.7 140.6 84.75 136.0 92.85 129.45 98.5 124.9 101.6 123.0 102.7 122.3 102.3 121.95 102.1 121.75 99.2 120.45 94.65 118.45 87.75 115.9 77.75 112.2 70.85 110.4"/><path fill="#0d131a" d="M194.3 163.25 L184.7 156.3 Q170.35 171.85 169.5 171.4 168.95 171.15 163.15 158.75 L156.95 145.35 121.55 160.8 Q120.5 161.3 120.75 160.2 L124.4 145.3 113.65 147.7 Q105.7 149.7 101.1 151.15 96.35 152.65 95.95 152.4 95.7 152.25 97.2 149.8 98.55 147.55 105.2 138.8 L114.8 126.4 105.5 127.2 117.3 118.95 100.85 115.15 85.75 111.8 Q84.0 111.4 84.25 110.6 84.45 109.95 86.35 108.6 89.4 106.4 96.6 102.45 L106.85 97.0 102.0 95.4 96.1 93.65 Q92.65 92.5 92.55 92.2 92.4 91.65 96.5 90.2 106.55 86.65 118.65 86.15 114.7 82.05 105.1 74.6 L93.8 66.25 91.2 64.05 Q91.0 63.45 93.45 63.15 L102.25 62.2 Q101.2 60.55 94.2 54.65 L91.55 52.2 Q91.5 51.6 95.9 52.25 L111.1 54.0 126.15 55.65 113.95 35.35 Q113.3 34.25 113.55 34.0 L114.85 34.15 127.6 38.4 Q126.8 35.8 123.05 28.1 L118.4 19.1 117.3 16.85 119.7 17.0 Q125.5 18.95 134.25 23.75 147.6 31.1 155.7 39.5 L155.85 39.65 205.95 142.45 Q204.25 169.35 203.5 169.5 203.1 169.6 194.3 163.25"/><path fill="#61532e" d="M170.85 167.55 L157.8 142.95 123.2 158.05 124.95 151.95 Q126.2 147.8 127.15 145.4 128.1 143.0 127.75 142.75 L125.45 143.25 116.4 145.2 Q107.3 147.05 101.3 148.65 105.65 141.6 119.1 124.15 L111.75 124.8 Q115.25 122.1 119.7 119.7 121.75 118.6 121.3 118.15 120.9 117.8 117.55 117.2 L104.5 114.25 87.95 110.4 Q93.7 105.95 109.4 97.75 L111.15 96.8 99.3 91.8 Q112.6 88.1 120.65 88.0 L122.8 87.85 121.45 86.5 Q116.5 80.65 108.1 73.8 L96.85 64.95 105.05 63.6 103.25 60.6 Q100.95 57.15 98.25 55.1 L115.8 57.15 128.55 58.9 131.9 60.0 Q132.6 60.05 130.4 57.05 128.05 53.8 123.55 46.65 L117.8 37.25 130.4 41.25 Q126.5 28.15 123.1 21.5 129.4 24.0 138.2 29.3 148.1 35.25 154.35 40.8 L204.05 142.8 202.3 165.55 184.45 153.9 170.85 167.55"/><path fill="#524423" d="M202.3 165.55 L184.45 153.9 170.85 167.55 157.8 142.95 123.2 158.05 124.95 151.95 Q126.2 147.8 127.15 145.4 128.1 143.0 127.75 142.75 L125.45 143.25 116.4 145.2 Q107.3 147.05 101.3 148.65 105.65 141.6 119.1 124.15 L111.75 124.8 Q115.25 122.1 119.7 119.7 121.75 118.6 121.3 118.15 120.9 117.8 117.55 117.2 L104.85 114.35 88.55 110.5 Q133.8 99.25 184.2 102.1 L204.05 142.8 202.3 165.55"/><path fill="#0d131a" d="M207.2 122.35 Q209.35 119.55 212.55 118.3 215.8 117.0 219.7 117.5 225.5 118.25 230.65 122.3 235.85 126.35 238.2 132.0 239.8 135.8 248.15 147.5 256.8 159.7 260.5 162.85 261.6 163.75 261.65 165.05 261.7 166.35 260.7 167.75 257.55 172.3 249.05 174.9 239.65 177.75 233.5 174.3 L229.35 172.45 Q221.8 168.25 220.0 166.55 217.4 164.15 214.75 158.0 213.05 153.5 211.85 151.25 206.75 141.55 205.4 136.45 203.1 127.75 207.2 122.35"/><path fill="#efeddf" d="M236.5 132.7 Q238.15 136.7 246.6 148.55 255.4 160.9 259.3 164.25 260.3 165.1 259.2 166.7 256.35 170.75 248.55 173.15 239.9 175.75 234.4 172.65 L232.3 171.5 Q224.7 167.3 222.4 165.2 219.1 162.3 216.65 156.65 L213.5 150.4 Q208.6 141.1 207.3 136.35 205.0 128.25 208.65 123.5 212.5 118.5 219.45 119.35 224.7 120.05 229.5 123.8 234.35 127.55 236.5 132.7"/><path fill="#c9c8bc" d="M207.3 136.35 Q205.0 128.25 208.65 123.5 212.5 118.5 219.45 119.35 224.7 120.05 229.5 123.8 234.35 127.55 236.5 132.7 237.65 135.45 243.05 143.4 248.45 151.45 253.45 157.7 245.9 153.0 236.05 151.45 L224.15 150.55 Q223.5 156.6 223.4 166.05 221.2 164.35 219.65 162.25 218.1 160.05 216.65 156.65 L213.5 150.4 Q208.6 141.1 207.3 136.35"/><path fill="#0d131a" d="M267.1 172.1 Q267.1 172.75 265.65 172.65 L260.0 172.0 Q255.75 171.25 254.2 170.1 252.35 168.6 252.55 167.1 252.75 165.4 254.0 164.2 255.1 163.15 256.65 162.9 259.75 162.4 263.05 165.5 265.5 167.8 266.4 170.0 L267.1 172.1"/><path fill="#c9c8bc" d="M254.75 169.35 Q253.45 168.35 253.45 167.35 L253.45 167.2 Q253.55 166.2 254.8 165.15 255.75 164.4 256.8 163.9 261.75 164.4 265.4 171.55 L259.6 170.85 Q255.85 170.15 254.75 169.35"/><path fill="#0d131a" d="M247.8 165.9 Q248.55 165.55 250.15 165.9 251.4 166.2 252.3 166.65 257.5 169.35 259.8 173.65 260.85 175.65 260.65 176.2 260.5 176.7 259.15 176.4 L252.15 175.1 Q246.15 173.8 244.65 172.25 243.8 171.4 244.05 170.15 244.3 168.95 245.25 167.8 246.3 166.55 247.8 165.9"/><path fill="#c9c8bc" d="M245.35 171.65 Q244.95 171.25 244.95 170.65 L244.95 170.35 Q245.15 169.45 246.1 168.5 247.1 167.5 248.4 166.9 249.3 166.5 251.8 167.8 254.15 168.95 256.1 170.9 258.25 173.0 259.0 175.2 247.3 173.65 245.35 171.65"/><path fill="#0d131a" d="M236.8 174.95 Q234.8 172.85 236.95 170.4 238.8 168.25 241.15 167.9 243.2 167.6 245.85 169.65 248.8 171.9 251.3 176.15 L252.15 178.15 Q252.15 178.75 251.15 178.65 239.5 177.8 236.8 174.95"/><path fill="#c9c8bc" d="M241.5 169.35 Q242.8 169.15 245.8 171.6 248.9 174.2 250.55 177.15 L243.95 176.3 Q239.0 175.45 237.35 174.2 L237.15 173.65 237.25 173.1 Q237.55 171.95 238.65 170.85 239.9 169.6 241.5 169.35"/><path fill="#ffffff" d="M257.7 164.05 Q262.05 165.05 265.4 171.55 L263.2 171.35 Q261.55 167.25 257.7 164.05"/><path fill="#ffffff" d="M251.8 167.8 Q254.15 168.95 256.1 170.9 258.25 173.0 259.0 175.2 L256.2 174.8 Q253.8 170.25 248.75 166.85 249.75 166.75 251.8 167.8"/><path fill="#ffffff" d="M245.95 171.75 Q248.95 174.3 250.55 177.15 L246.55 176.7 Q243.65 171.6 241.65 169.35 243.1 169.35 245.95 171.75"/><path fill="#0d131a" d="M163.05 121.4 Q171.4 126.2 173.8 130.75 176.25 135.35 173.75 141.55 171.5 147.1 169.1 156.3 166.0 167.95 166.7 172.15 167.25 175.75 162.3 178.3 157.15 181.0 150.15 180.7 142.2 180.35 137.45 175.85 130.3 169.05 130.0 159.35 129.75 151.3 134.1 142.85 137.7 135.9 142.65 130.05 149.15 122.3 155.05 120.6 159.4 119.3 163.05 121.4"/><path fill="#efeddf" d="M172.0 140.85 Q169.65 146.7 167.25 156.05 164.15 167.95 164.85 172.4 165.25 174.75 161.45 176.7 156.8 179.1 150.35 178.85 142.95 178.55 138.75 174.5 133.0 168.9 132.45 159.55 132.0 151.05 135.75 143.7 139.15 137.2 143.8 131.55 150.1 123.95 155.55 122.35 159.15 121.3 162.15 123.05 169.9 127.45 172.05 131.4 174.2 135.3 172.0 140.85"/><path fill="#c9c8bc" d="M162.15 123.05 Q169.9 127.45 172.05 131.4 174.2 135.3 172.0 140.85 170.5 144.65 168.65 150.95 166.3 158.9 165.35 164.6 L163.95 159.7 Q163.35 157.8 162.55 157.15 162.25 157.85 159.8 159.3 157.0 160.95 156.6 161.4 156.15 160.9 153.45 154.5 150.95 148.55 150.15 148.4 146.3 147.85 141.3 150.7 138.9 152.1 132.45 157.0 132.7 149.75 135.75 143.7 139.15 137.2 143.8 131.55 150.1 123.95 155.55 122.35 159.15 121.3 162.15 123.05"/><path fill="#0d131a" d="M162.4 170.2 Q164.3 170.2 166.6 173.0 169.3 176.3 169.45 180.55 169.55 182.75 167.45 181.8 L162.45 179.3 Q158.4 177.2 157.9 176.5 156.1 174.25 156.55 173.15 157.15 171.6 159.05 170.85 160.55 170.2 162.4 170.2"/><path fill="#c9c8bc" d="M168.25 180.2 Q159.35 176.9 158.6 175.95 157.85 175.0 157.85 174.15 L157.95 173.55 Q158.35 172.6 159.9 171.9 161.05 171.35 162.3 171.15 164.95 172.4 166.65 175.65 167.75 177.75 168.25 180.2"/><path fill="#ffffff" d="M162.3 171.15 Q164.75 172.25 166.35 175.15 162.05 173.55 158.4 175.65 157.85 174.8 157.85 174.15 L157.95 173.55 Q158.35 172.6 159.9 171.9 161.05 171.35 162.3 171.15"/><path fill="#0d131a" d="M153.45 171.0 Q156.2 170.6 159.15 174.3 162.15 178.1 162.85 183.4 162.9 184.15 161.55 184.05 160.25 183.9 158.7 183.15 L153.1 180.6 Q148.85 178.6 148.05 177.3 147.8 176.85 148.0 175.75 L148.5 174.2 Q149.05 173.05 150.55 172.1 152.0 171.25 153.45 171.0"/><path fill="#c9c8bc" d="M149.5 175.0 Q149.9 174.2 151.1 173.5 152.35 172.75 153.8 172.55 154.95 172.45 157.05 174.35 158.8 175.85 160.0 177.95 161.4 180.3 161.5 182.55 157.4 180.85 154.15 179.2 150.15 177.2 149.6 176.3 L149.4 175.6 149.5 175.0"/><path fill="#ffffff" d="M157.05 174.35 Q159.85 176.75 161.05 180.15 156.35 176.2 151.6 177.85 149.9 176.85 149.6 176.3 L149.4 175.6 149.5 175.0 Q149.9 174.2 151.1 173.5 152.35 172.75 153.8 172.55 154.95 172.45 157.05 174.35"/><path fill="#0d131a" d="M139.95 177.9 Q138.45 176.3 140.85 173.8 143.35 171.15 146.95 172.05 148.9 172.55 150.9 175.35 153.1 178.45 153.95 182.65 154.15 183.55 153.6 183.7 L151.45 183.4 146.0 181.6 Q141.8 179.9 139.95 177.9"/><path fill="#c9c8bc" d="M141.2 176.75 L141.1 176.45 141.3 175.8 Q141.85 174.7 143.25 173.9 144.85 172.95 146.45 173.15 147.8 173.3 149.7 176.15 151.65 179.05 152.4 182.3 L146.8 180.2 Q142.65 178.35 141.2 176.75"/><path fill="#ffffff" d="M146.45 173.15 Q147.9 173.3 149.95 176.6 148.3 176.3 145.75 176.55 L141.55 177.05 141.2 176.75 141.1 176.45 141.3 175.8 Q141.85 174.7 143.25 173.9 144.85 172.95 146.45 173.15"/><path fill="#0d131a" d="M246.5 74.35 Q249.15 83.1 249.15 93.2 249.15 98.0 248.7 101.15 272.7 127.75 272.9 128.5 L260.0 126.5 244.95 123.85 250.4 135.65 Q255.0 145.65 254.7 145.9 254.35 146.15 245.3 142.95 L234.35 139.05 237.15 149.05 Q239.4 157.15 238.85 157.25 237.95 157.45 212.6 142.9 L210.35 154.4 Q208.35 164.55 207.6 165.1 206.85 165.65 201.75 155.7 L196.1 144.5 183.85 153.75 Q172.6 162.2 172.1 162.0 171.6 161.8 170.65 153.4 L169.55 143.15 165.1 146.8 Q161.85 149.45 161.15 149.25 160.45 149.1 160.05 140.75 L159.65 131.05 143.5 136.25 Q128.75 140.9 128.65 140.45 128.55 140.0 135.15 131.0 L143.1 120.15 136.3 120.45 131.4 120.15 Q131.4 119.65 134.35 115.75 L138.3 110.55 124.05 109.6 Q111.95 108.7 112.2 108.15 112.4 107.6 123.85 100.7 L137.0 92.8 131.6 90.25 Q127.7 88.4 128.3 88.05 129.25 87.45 139.1 84.05 L128.6 73.7 Q119.6 64.65 120.5 64.25 122.0 63.65 141.85 63.85 L135.75 40.7 Q134.9 37.65 135.4 37.4 135.8 37.2 138.95 38.35 L161.6 46.45 Q212.35 33.95 234.4 54.3 242.85 62.05 246.5 74.35"/><path fill="#efeddf" d="M247.3 93.15 Q247.3 98.0 246.8 101.3 L246.75 101.75 267.7 125.2 253.95 123.3 242.85 122.25 Q242.55 122.6 246.35 131.6 L251.05 142.7 240.95 139.55 Q233.0 137.1 232.5 137.15 232.0 137.2 233.8 144.35 L236.15 153.75 223.15 146.55 Q212.4 140.6 211.95 140.9 211.55 141.2 209.55 149.45 L206.95 160.25 201.65 150.25 Q197.5 142.6 196.6 142.45 195.7 142.3 185.35 149.6 L173.6 158.05 Q171.35 140.3 170.9 139.85 170.65 139.6 167.35 142.2 L162.7 145.85 Q161.5 130.0 161.2 129.35 161.05 128.95 148.7 132.6 L133.2 137.25 146.7 118.3 135.0 118.3 141.7 109.0 117.9 106.8 140.7 92.7 132.75 88.35 142.4 84.8 124.7 66.05 143.05 65.7 144.55 65.7 144.25 64.45 141.25 52.9 138.25 40.5 161.5 48.35 161.75 48.3 Q211.65 35.9 233.15 55.65 241.25 63.1 244.8 74.95 247.3 83.35 247.3 93.15"/><path fill="#c9c8bc" d="M240.95 139.55 Q233.0 137.1 232.5 137.15 232.0 137.2 233.8 144.35 L236.15 153.75 223.15 146.55 Q212.4 140.6 211.95 140.9 211.55 141.2 209.55 149.45 L206.95 160.25 201.65 150.25 Q197.5 142.6 196.6 142.45 195.7 142.3 185.35 149.6 L173.6 158.05 Q171.35 140.3 170.9 139.85 170.65 139.6 167.35 142.2 L162.7 145.85 Q161.5 130.0 161.2 129.35 161.05 128.95 148.7 132.6 L133.2 137.25 146.7 118.3 135.0 118.3 141.7 109.0 118.45 106.85 Q170.6 97.8 235.4 102.05 240.65 108.4 249.25 113.8 253.7 116.6 265.3 122.5 L267.7 125.2 253.95 123.3 242.85 122.25 Q242.55 122.6 246.35 131.6 L251.05 142.7 240.95 139.55"/><path fill="#0d131a" d="M249.1 55.95 L247.35 74.1 Q268.95 97.05 269.1 98.05 269.2 98.7 263.25 99.85 L256.15 101.15 Q256.8 104.05 258.4 116.3 260.0 128.45 260.0 130.5 260.0 131.6 255.35 128.6 L242.45 119.6 242.0 128.05 Q241.65 134.6 241.4 134.85 241.15 135.1 236.9 131.5 L231.35 126.65 Q230.15 134.35 229.8 134.6 229.5 134.8 224.85 129.3 L219.25 122.6 209.25 139.3 Q209.0 139.7 204.55 131.9 L199.1 122.6 192.75 126.8 Q187.2 130.45 186.65 130.3 186.1 130.15 184.4 124.2 L182.35 117.2 175.5 121.0 Q169.65 124.3 169.3 124.1 168.95 123.95 167.8 118.75 L166.3 112.45 156.15 119.0 Q147.2 124.75 146.95 124.5 146.7 124.25 148.6 116.3 L150.9 106.7 Q149.95 106.85 145.9 108.1 L140.75 109.5 Q138.85 109.75 138.35 109.5 137.6 109.2 138.3 107.85 139.55 105.35 152.5 89.05 L143.7 89.1 Q137.05 89.1 137.3 88.5 L145.2 79.25 153.75 69.65 147.15 64.0 141.7 59.2 156.8 54.05 Q156.25 53.0 157.15 50.25 158.05 47.5 159.9 44.7 164.75 37.55 169.9 38.5 L173.9 39.2 177.85 31.4 182.1 22.95 183.0 21.35 184.6 22.65 Q186.45 24.65 193.7 34.0 194.65 33.45 198.15 28.7 L202.2 22.65 Q202.95 21.05 203.4 21.15 203.85 21.2 205.15 23.25 L208.8 29.4 Q211.85 34.5 212.75 35.6 214.55 34.3 225.55 24.4 L227.45 23.0 Q227.95 22.85 228.15 24.1 L230.1 33.05 232.1 41.8 241.65 39.55 Q250.2 37.55 250.45 37.9 250.75 38.25 249.1 55.95"/><path fill="#61532e" d="M258.1 97.9 Q253.25 98.8 253.0 99.2 252.9 99.45 255.05 109.6 257.45 121.2 257.95 127.05 256.4 125.7 248.25 120.2 L240.8 115.05 239.35 130.95 230.05 123.1 228.95 129.95 219.25 118.8 209.15 134.85 204.35 126.8 Q200.45 120.3 200.05 120.25 199.65 120.2 194.2 122.95 L187.7 126.25 185.5 119.9 Q183.65 114.65 183.4 114.65 183.15 114.65 177.45 117.2 L170.75 120.25 169.15 114.45 Q167.9 109.65 167.55 109.5 167.25 109.35 159.65 114.2 L150.0 120.4 153.25 104.5 142.15 106.25 Q145.45 100.8 156.2 87.4 L142.45 86.65 Q144.9 84.15 156.6 69.4 148.25 61.45 145.8 59.75 L159.45 55.1 Q160.45 51.15 162.25 47.3 165.75 39.65 169.55 40.3 L174.9 41.15 183.65 26.2 189.6 32.4 193.85 36.6 Q194.25 36.7 197.5 32.85 L203.4 25.35 208.15 32.25 Q211.4 37.1 211.9 37.45 212.7 38.0 214.6 36.7 217.6 34.65 226.25 26.75 L230.8 43.9 247.85 40.95 246.4 74.55 264.55 96.7 258.1 97.9"/><path fill="#524423" d="M246.4 74.55 L264.55 96.7 258.1 97.9 Q253.25 98.8 253.0 99.2 252.9 99.45 255.05 109.6 257.45 121.2 257.95 127.05 256.4 125.7 248.25 120.2 L240.8 115.05 239.35 130.95 230.05 123.1 228.95 129.95 219.25 118.8 209.15 134.85 204.35 126.8 Q200.45 120.3 200.05 120.25 199.75 120.2 188.7 125.75 L196.85 118.8 Q200.95 115.1 201.05 113.05 201.1 112.15 200.0 110.8 198.25 108.7 197.45 107.35 193.6 100.65 193.4 86.15 193.4 84.8 196.35 83.55 199.3 82.3 200.7 83.0 213.4 87.55 221.55 86.9 233.3 85.95 238.7 74.85 241.0 70.15 243.65 57.7 246.3 45.2 247.85 41.9 L246.4 74.55"/><path fill="#524423" d="M191.35 34.25 L187.6 42.55 Q185.85 46.3 184.25 46.9 182.6 47.55 180.35 44.75 L176.15 39.0 183.65 26.2 191.35 34.25"/><path fill="#61532e" d="M269.65 45.9 L268.9 51.15 278.75 53.25 Q288.7 55.5 288.9 56.45 289.2 57.65 284.5 63.0 279.7 68.55 276.45 70.45 280.95 78.4 279.85 79.5 279.15 80.2 264.95 79.75 L247.35 79.15 Q245.65 79.15 243.25 76.3 241.05 73.65 239.35 69.9 235.15 60.45 239.4 58.35 L256.05 47.55 Q268.4 39.2 269.25 39.85 270.2 40.55 269.65 45.9"/><path fill="#524423" d="M280.0 77.9 Q280.25 79.1 279.85 79.5 279.15 80.2 264.95 79.75 L247.35 79.15 Q244.85 79.15 242.8 78.25 239.95 77.05 239.95 74.5 239.95 70.8 240.6 70.3 240.75 70.15 241.9 70.55 258.8 77.35 280.0 77.9"/><path fill="#0d131a" d="M253.5 48.1 Q266.35 39.55 268.8 38.2 271.15 36.95 271.5 37.55 L271.3 40.1 269.25 50.5 287.3 54.2 Q290.9 55.15 291.25 56.1 291.6 57.05 285.85 62.9 280.25 68.6 276.95 70.9 L282.4 78.3 Q284.35 81.4 282.1 81.4 L247.3 80.05 Q244.7 79.8 244.95 79.05 245.2 78.35 247.4 78.2 L263.35 78.4 Q277.65 78.6 279.05 78.25 277.25 73.55 276.15 72.1 L275.1 70.6 Q275.05 70.1 276.6 69.15 278.4 68.05 282.85 63.25 287.3 58.35 287.9 56.85 286.85 56.2 279.05 54.55 L269.1 52.7 Q267.05 52.45 266.9 51.8 L267.35 50.25 268.25 45.15 268.75 40.8 Q266.95 41.25 254.15 49.95 241.35 58.7 240.0 59.05 L237.75 59.35 Q237.6 59.05 239.2 57.8 L253.5 48.1"/><path fill="#61532e" d="M167.2 24.7 L169.65 19.75 Q172.3 14.95 173.25 15.65 174.3 16.4 179.9 31.25 185.45 45.9 185.35 47.0 185.2 48.25 175.0 53.05 164.6 57.9 163.05 56.45 L142.25 37.95 154.75 34.9 Q153.7 31.15 152.8 27.25 151.0 19.5 151.7 19.05 152.4 18.6 159.9 21.6 L167.2 24.7"/><path fill="#524423" d="M185.35 47.0 Q182.3 48.65 180.05 42.75 174.7 28.7 173.05 15.55 L173.25 15.65 Q174.3 16.4 179.9 31.25 185.45 45.9 185.35 47.0"/><path fill="#0d131a" d="M169.55 17.2 Q171.55 13.1 172.7 12.8 173.75 12.55 179.8 28.5 185.7 44.1 185.75 45.7 185.8 47.15 185.35 47.55 184.95 47.95 184.45 47.2 L179.15 32.6 Q173.95 18.35 172.85 16.65 172.1 17.25 170.7 19.85 169.3 22.3 168.05 25.1 L166.8 25.55 Q162.4 23.55 158.15 21.9 153.85 20.2 152.45 19.95 152.45 22.95 155.6 34.65 L155.9 35.6 144.15 38.45 163.6 55.7 Q164.95 56.9 164.2 57.35 L162.5 57.2 Q160.8 56.2 149.6 46.85 137.8 36.9 139.1 36.75 L146.5 35.5 153.6 34.25 150.45 22.3 Q149.1 16.75 149.25 16.65 150.05 16.1 166.75 23.5 L169.55 17.2"/><path fill="#0d131a" d="M201.85 78.15 Q200.1 76.2 199.0 75.6 195.1 73.4 190.4 75.4 187.65 76.55 182.7 80.35 L181.6 81.2 Q177.4 84.4 173.6 84.15 171.0 84.0 168.9 82.2 165.2 79.0 164.35 72.7 163.55 66.4 166.2 61.4 171.0 52.45 184.75 49.25 195.7 46.7 203.65 48.6 219.4 52.35 228.4 61.9 236.3 70.25 236.3 79.5 236.3 85.85 231.95 89.5 229.3 91.7 225.4 92.55 221.55 93.4 217.35 92.65 214.65 92.2 211.2 88.85 209.15 86.9 205.3 82.15 L201.85 78.15"/><path fill="#0d131a" d="M169.8 81.1 Q166.4 78.25 165.7 72.45 165.0 66.65 167.45 62.1 172.05 53.55 185.2 50.55 195.65 48.15 203.35 49.95 218.55 53.55 227.25 62.7 234.9 70.7 234.9 79.5 234.9 85.25 231.05 88.4 228.65 90.45 225.1 91.2 221.5 92.0 217.6 91.3 215.25 90.9 212.0 87.75 L206.35 81.3 202.75 77.05 Q200.95 75.05 199.65 74.35 195.25 71.9 190.0 74.05 187.05 75.25 181.85 79.25 L180.75 80.1 Q174.35 84.95 169.8 81.1"/><path fill="#0d131a" d="M184.9 65.25 Q185.55 67.45 185.2 69.85 184.5 74.9 180.5 77.55 177.7 79.35 174.7 79.05 171.6 78.75 169.45 76.45 167.9 74.85 167.25 72.65 166.6 70.45 166.95 68.05 167.55 63.85 170.65 61.15 173.7 58.45 177.5 58.8 180.55 59.1 182.75 61.4 184.25 63.0 184.9 65.25"/><path fill="#6f4e25" d="M183.8 69.7 Q183.5 71.85 182.4 73.7 181.3 75.5 179.6 76.6 177.25 78.15 174.85 77.85 172.3 77.6 170.55 75.7 169.25 74.3 168.65 72.3 168.05 70.3 168.35 68.15 168.9 64.45 171.5 62.05 174.15 59.65 177.35 60.0 179.85 60.25 181.6 62.15 182.95 63.55 183.55 65.55 184.1 67.55 183.8 69.7"/><path fill="#5a3e19" d="M183.55 65.55 Q184.1 67.55 183.8 69.7 L183.15 72.1 182.0 70.65 Q181.3 73.45 178.9 74.85 176.45 76.25 173.7 75.25 171.45 74.4 170.5 72.0 169.6 69.65 170.3 66.95 L168.55 67.15 Q169.35 63.85 171.85 61.8 174.4 59.7 177.35 60.0 179.85 60.25 181.6 62.15 182.95 63.55 183.55 65.55"/><path fill="#0d131a" d="M209.65 76.85 Q209.65 72.05 213.05 68.65 216.45 65.2 221.25 65.2 226.05 65.2 229.45 68.65 232.85 72.05 232.85 76.85 232.85 81.7 229.45 85.1 226.05 88.5 221.25 88.5 216.45 88.5 213.05 85.1 209.65 81.7 209.65 76.85"/><path fill="#6f4e25" d="M211.05 76.85 Q211.05 72.55 214.05 69.5 217.0 66.45 221.25 66.45 225.5 66.45 228.45 69.5 231.45 72.55 231.45 76.85 231.45 81.15 228.45 84.25 225.5 87.3 221.25 87.3 217.0 87.3 214.05 84.25 211.05 81.15 211.05 76.85"/><path fill="#6f4e25" d="M211.05 76.85 Q211.05 72.55 214.05 69.5 217.0 66.45 221.25 66.45 225.5 66.45 228.45 69.5 231.45 72.55 231.45 76.85 231.45 81.15 228.45 84.25 225.5 87.3 221.25 87.3 217.0 87.3 214.05 84.25 211.05 81.15 211.05 76.85"/><path fill="#5a3e19" d="M215.0 68.65 Q217.75 66.45 221.25 66.45 225.5 66.45 228.45 69.5 231.45 72.55 231.45 76.85 231.45 80.3 229.5 82.95 L228.65 80.7 228.2 79.8 Q226.5 83.25 223.8 84.25 221.05 85.25 217.75 83.55 215.05 82.15 214.05 79.45 213.0 76.8 213.9 73.8 L211.4 74.1 Q212.3 70.75 215.0 68.65"/><path fill="#0d131a" d="M226.7 76.85 Q226.7 79.15 225.1 80.75 223.5 82.4 221.25 82.4 219.0 82.4 217.4 80.75 215.8 79.15 215.8 76.85 215.8 74.55 217.4 72.95 219.0 71.35 221.25 71.35 223.5 71.35 225.1 72.95 226.7 74.55 226.7 76.85"/><path fill="#ffffff" d="M228.8 73.65 Q228.8 75.7 227.65 77.1 226.5 78.55 224.85 78.55 223.2 78.55 222.05 77.1 220.9 75.7 220.9 73.65 220.9 71.6 222.05 70.2 223.2 68.75 224.85 68.75 226.5 68.75 227.65 70.2 228.8 71.6 228.8 73.65"/><path fill="#0d131a" d="M185.3 82.0 Q185.4 80.15 188.35 79.0 191.3 77.9 194.35 78.45 198.1 79.15 200.0 80.65 202.05 82.25 201.7 84.55 201.4 86.65 198.2 88.3 195.0 89.95 192.2 89.4 189.15 88.85 187.05 86.3 185.2 84.05 185.3 82.0"/><path fill="#0d131a" d="M165.45 86.75 Q166.2 87.55 168.95 92.45 L172.2 91.2 Q175.4 89.75 175.45 89.85 L176.9 92.7 178.6 96.5 Q179.75 95.85 182.35 94.75 185.1 93.65 185.25 93.8 L187.35 96.4 189.85 99.8 194.05 97.5 Q197.0 96.0 197.6 95.8 197.95 95.65 200.55 98.3 L203.85 101.85 207.7 98.8 211.25 96.5 Q211.75 96.45 214.9 98.9 L218.8 102.1 Q220.2 101.25 225.85 98.15 L227.3 97.95 Q227.75 98.3 226.9 99.1 224.5 101.3 221.6 103.05 219.15 104.6 218.6 104.55 L215.1 102.1 211.25 99.0 207.1 102.05 203.4 104.35 200.5 101.7 197.25 98.3 193.05 100.65 Q189.6 102.35 189.0 102.2 188.45 102.05 186.7 99.65 L184.55 96.35 180.95 98.15 Q178.2 99.4 177.85 99.2 177.5 99.0 176.2 96.3 L174.5 92.5 171.0 94.2 Q168.55 95.3 168.2 95.15 167.8 95.0 166.45 92.25 165.1 89.4 164.4 87.25 164.05 86.15 164.45 86.1 164.75 86.05 165.45 86.75"/><path fill="#0d131a" d="M180.3 69.35 Q180.05 71.35 178.6 72.6 177.15 73.85 175.4 73.7 173.65 73.5 172.65 72.0 171.6 70.5 171.85 68.5 172.15 66.55 173.55 65.3 175.0 64.0 176.75 64.15 178.5 64.35 179.55 65.85 180.55 67.35 180.3 69.35"/><path fill="#ffffff" d="M182.4 66.05 Q182.4 67.9 181.35 69.25 180.25 70.55 178.75 70.55 177.25 70.55 176.2 69.25 175.15 67.95 175.15 66.05 175.15 64.2 176.2 62.85 177.25 61.55 178.75 61.55 180.25 61.55 181.35 62.85 182.4 64.2 182.4 66.05"/></g></svg>