<?xml version='1.0' encoding='utf-8'?>
<svg xmlns="http://www.w3.org/2000/svg" version="1.1" width="252px" height="272px" viewBox="-0.15 -2.05 252.45 272.35"><g><path fill="#c18963" d="M99.55 228.45 L113.65 231.95 111.15 235.3 Q108.75 239.05 109.05 241.1 109.3 242.75 111.0 244.7 112.75 246.8 113.15 248.7 113.65 251.3 103.0 259.4 93.2 266.85 88.5 268.75 L79.65 268.5 Q74.75 267.05 73.8 265.45 68.9 263.4 66.55 259.4 L65.15 255.8 Q64.2 255.05 63.6 254.0 62.4 251.9 64.15 250.45 65.9 249.05 79.7 243.75 L95.6 237.8 Q98.6 236.1 99.55 228.45"/><path fill="#c18963" d="M178.1 226.1 L178.7 231.9 Q179.15 235.7 180.65 236.5 181.65 236.95 200.95 241.8 219.1 246.35 220.7 247.7 222.55 249.2 221.65 250.55 L218.95 253.0 Q220.5 255.7 214.3 259.55 208.05 263.45 202.95 262.9 201.45 264.4 196.75 265.6 191.1 267.0 187.5 265.45 183.3 263.6 174.75 255.95 166.15 248.2 165.65 245.65 165.4 244.1 166.6 242.65 168.15 240.75 168.45 239.55 168.75 238.3 168.0 234.5 L167.2 230.95 178.1 226.1"/><path fill="#986c4c" d="M113.65 231.95 L111.9 234.15 Q110.05 236.8 109.4 238.75 106.5 237.3 101.65 237.75 L91.6 239.25 95.6 237.8 Q98.6 236.1 99.55 228.45 L113.65 231.95"/><path fill="#986c4c" d="M178.1 226.1 L178.55 230.35 Q178.8 233.3 179.3 234.7 177.85 233.65 174.2 236.0 L168.3 240.05 168.45 239.55 Q168.75 238.3 168.0 234.5 L167.2 230.95 178.1 226.1"/><path fill="#d3d1ca" d="M161.7 171.7 Q173.4 171.7 182.0 181.15 190.5 190.4 190.5 202.55 190.5 214.65 182.45 223.05 174.3 231.5 162.55 231.5 150.65 231.5 142.1 223.05 133.45 214.5 133.45 202.55 133.45 190.35 141.65 181.15 150.05 171.7 161.7 171.7"/><path fill="#adaca6" d="M140.85 206.1 Q144.6 214.4 152.0 219.25 159.2 224.0 167.85 224.25 176.9 224.55 185.1 219.8 181.25 225.25 175.45 228.3 169.45 231.5 162.55 231.5 150.65 231.5 142.1 223.05 133.45 214.5 133.45 202.55 133.45 193.85 137.95 186.2 136.85 197.2 140.85 206.1"/><path fill="#d3d1ca" d="M113.3 175.15 Q121.1 176.05 131.35 184.85 142.9 194.75 142.75 204.4 142.55 216.85 135.4 224.45 127.8 232.5 114.8 232.35 102.7 232.2 94.2 223.75 85.45 215.0 86.85 203.3 88.3 191.05 96.65 182.5 104.75 174.15 113.3 175.15"/><path fill="#adaca6" d="M96.65 182.5 Q104.75 174.15 113.3 175.15 115.15 175.35 120.6 178.7 L129.05 184.05 Q123.6 186.15 118.75 192.05 114.05 197.8 111.7 205.15 109.15 212.9 110.15 219.75 111.3 227.4 116.65 232.3 L114.8 232.35 Q102.7 232.2 94.2 223.75 85.45 215.0 86.85 203.3 88.3 191.05 96.65 182.5"/><path fill="#0d131a" d="M95.2 237.0 Q97.75 235.55 98.7 228.35 L100.9 228.85 Q99.9 236.35 96.05 238.55 L96.0 238.55 81.2 244.15 Q66.1 250.0 64.7 251.15 64.0 251.7 64.0 252.4 64.0 253.65 65.7 255.15 L66.0 255.7 67.35 259.15 Q69.55 262.75 74.15 264.65 L74.55 265.0 Q76.15 266.95 80.35 268.05 84.9 269.25 88.2 267.95 93.15 265.95 102.8 258.4 112.65 250.75 112.3 248.85 111.95 247.15 110.3 245.2 108.5 243.1 108.2 241.2 107.85 238.9 109.75 235.4 111.0 233.0 112.1 231.8 L114.3 232.5 Q112.75 234.3 111.45 236.4 109.65 239.4 109.9 240.95 110.15 242.4 111.6 244.1 113.95 246.85 114.35 249.05 115.0 252.2 103.2 260.8 92.85 268.35 87.95 270.3 L79.2 270.05 Q74.55 268.45 73.3 266.15 68.45 264.05 66.25 261.25 64.6 259.1 64.55 256.75 61.4 254.1 61.35 252.4 61.35 250.9 62.7 249.8 64.05 248.7 79.7 242.8 L95.2 237.0"/><path fill="#0d131a" d="M77.2 249.65 L80.15 249.4 Q81.4 249.75 79.95 250.2 75.5 251.65 72.35 253.05 66.1 255.9 66.6 257.85 67.2 260.15 66.4 259.45 65.65 258.7 65.15 256.5 64.75 254.6 70.0 252.3 L77.2 249.65"/><path fill="#0d131a" d="M86.3 254.15 L88.1 254.1 Q88.1 254.75 86.7 255.4 73.15 261.6 74.65 265.05 75.35 266.6 74.45 266.15 L73.4 265.35 Q71.5 262.3 77.75 258.35 81.45 256.0 86.3 254.15"/><path fill="#0d131a" d="M213.0 243.95 Q220.65 246.0 221.8 246.95 223.35 248.3 223.35 249.6 223.35 250.5 222.35 251.4 L220.45 252.9 219.95 253.3 220.05 253.95 Q220.05 255.95 219.2 257.3 217.35 260.1 212.4 262.1 207.5 264.1 203.25 263.8 200.9 265.6 196.3 266.75 190.6 268.2 187.0 266.6 182.55 264.7 173.9 256.85 165.05 248.9 164.55 246.05 164.3 244.8 164.95 243.55 165.3 242.9 166.2 241.8 167.35 240.5 167.6 239.35 168.05 237.6 166.35 231.15 L168.0 230.7 168.95 234.7 Q169.65 238.4 169.3 239.75 168.9 241.3 167.5 242.9 L166.65 244.1 Q166.35 244.7 166.5 245.5 166.9 247.75 175.35 255.3 183.75 262.9 187.8 264.65 191.2 266.15 196.75 264.6 201.4 263.3 202.7 261.95 L203.7 261.85 Q207.2 262.25 211.75 260.05 216.05 257.95 217.8 255.35 218.6 254.1 218.2 253.45 L217.05 252.6 219.1 251.4 Q220.6 250.55 220.85 249.75 221.0 249.0 220.2 248.35 218.45 246.9 194.35 241.05 L180.3 237.3 180.25 237.3 180.2 237.25 Q178.95 236.5 178.05 231.65 L177.25 226.3 178.95 225.9 179.6 230.9 Q180.3 235.3 181.05 235.75 L194.75 239.35 213.0 243.95"/><path fill="#0d131a" d="M206.3 249.2 Q204.8 248.8 205.45 248.4 206.1 248.0 207.55 248.4 L214.5 250.4 Q218.75 251.8 219.35 252.75 219.9 253.65 219.3 253.8 L218.55 253.8 Q217.4 252.95 213.05 251.4 L206.3 249.2"/><path fill="#0d131a" d="M192.6 254.55 Q191.5 253.9 192.05 253.6 192.6 253.3 194.35 253.95 197.1 255.0 199.75 256.65 203.5 258.95 204.2 261.05 204.75 262.45 203.7 263.3 203.05 263.8 201.45 263.95 199.8 264.1 200.8 263.5 L202.2 262.25 Q202.65 261.6 202.5 261.25 201.95 259.75 197.75 257.3 193.3 255.0 192.6 254.55"/><path fill="#0d131a" d="M161.7 172.55 Q153.65 172.55 146.75 177.6 140.1 182.5 136.75 190.45 135.9 189.85 135.5 188.95 139.15 180.85 146.15 175.95 153.35 170.85 161.7 170.85 173.75 170.85 182.95 180.45 192.3 190.3 192.25 203.65 192.2 216.0 183.1 224.5 174.25 232.85 161.95 232.85 154.9 232.85 148.65 229.35 142.95 226.15 138.6 220.45 L139.45 218.65 Q143.35 224.2 149.35 227.35 155.5 230.6 162.55 230.6 173.95 230.6 181.8 222.5 189.65 214.35 189.65 202.55 189.65 190.6 181.25 181.55 172.85 172.55 161.7 172.55"/><path fill="#0d131a" d="M180.7 191.3 Q183.85 187.55 184.3 184.95 L185.25 186.2 Q184.75 189.4 181.55 193.3 178.0 197.7 172.75 200.7 167.25 203.9 159.95 204.55 151.45 205.3 142.6 202.3 L141.95 200.55 Q150.0 203.6 158.85 202.7 166.25 201.9 171.7 198.8 177.0 195.75 180.7 191.3"/><path fill="#0d131a" d="M139.3 217.25 L139.8 216.05 Q151.6 221.25 162.55 221.05 170.55 220.9 177.5 217.85 182.3 215.75 186.0 212.0 189.0 208.95 189.8 206.6 L190.05 208.45 Q189.1 211.15 185.95 214.15 182.4 217.5 177.5 219.65 170.6 222.7 162.35 222.65 151.5 222.6 139.3 217.25"/><path fill="#0d131a" d="M113.2 176.0 Q105.25 175.1 97.45 182.95 89.2 191.25 87.7 203.4 87.1 208.4 88.65 213.15 90.15 217.9 93.6 221.8 97.5 226.25 103.15 228.85 108.8 231.45 114.85 231.5 126.95 231.65 134.35 224.25 141.7 216.85 141.9 204.35 142.05 195.1 130.65 185.4 120.55 176.85 113.2 176.0 M95.5 182.15 Q104.25 173.25 113.4 174.3 121.35 175.2 131.85 184.2 143.8 194.35 143.65 204.4 143.4 217.9 135.6 225.9 127.6 234.15 113.9 233.95 107.7 233.85 101.6 230.75 95.8 227.8 91.5 222.95 87.8 218.75 86.2 213.65 84.55 208.55 85.2 203.2 86.65 191.1 95.5 182.15"/><path fill="#0d131a" d="M88.85 193.0 L89.85 192.2 Q96.45 200.55 108.75 203.2 118.95 205.4 129.9 203.35 134.55 202.45 138.15 200.7 141.25 199.2 141.55 198.25 L141.9 199.4 Q141.4 201.05 137.0 202.85 133.2 204.45 128.95 205.25 118.0 207.3 107.8 204.75 95.75 201.75 88.85 193.0"/><path fill="#0d131a" d="M133.85 218.35 Q140.25 216.0 141.1 213.4 L142.3 213.85 Q141.8 215.35 139.15 217.2 136.55 219.0 133.25 220.25 123.65 223.85 111.9 223.05 98.75 222.1 88.7 215.7 L87.9 214.1 Q99.3 220.65 114.05 221.1 125.65 221.4 133.85 218.35"/><path fill="#c18963" d="M204.0 126.3 Q205.95 126.05 207.95 126.35 207.45 122.1 207.1 117.35 206.4 107.9 207.15 105.35 208.15 102.05 212.65 101.95 217.85 101.9 226.95 106.15 235.75 110.25 239.95 117.85 242.7 122.85 245.55 134.85 251.05 158.25 244.35 162.3 237.9 166.2 219.05 166.85 201.7 167.4 191.9 165.1 184.95 163.5 171.95 157.5 L160.3 151.8 162.4 160.05 Q164.5 169.0 164.75 172.8 165.0 176.9 155.2 185.4 146.75 192.7 140.5 195.85 139.65 193.2 136.6 189.7 133.7 186.35 130.85 184.4 129.65 185.9 128.05 186.65 126.6 187.4 125.15 187.35 L115.65 186.7 Q109.3 185.45 106.15 181.3 97.0 177.2 91.7 174.2 82.5 169.0 81.45 165.6 80.2 161.55 81.25 158.15 82.35 154.6 85.55 153.45 90.75 151.5 100.95 147.0 113.35 141.55 115.45 139.7 L162.3 136.45 185.0 146.05 194.45 146.45 202.7 145.35 Q203.65 143.45 202.25 137.95 200.4 130.5 200.3 129.6 200.05 126.8 204.0 126.3"/><path fill="#986c4c" d="M121.25 146.8 L114.1 147.45 Q111.6 147.95 110.55 149.35 109.45 150.7 111.15 151.0 L115.45 150.7 Q118.5 150.45 119.9 151.55 121.7 152.9 123.3 166.1 124.85 179.1 123.85 182.75 123.3 184.65 121.95 185.75 120.25 187.15 117.85 186.65 114.15 186.25 112.15 185.65 108.65 184.65 106.15 181.3 97.0 177.2 91.7 174.2 82.5 169.0 81.45 165.6 80.2 161.55 81.25 158.15 82.35 154.6 85.55 153.45 90.75 151.5 100.95 147.0 113.35 141.55 115.45 139.7 L161.8 136.5 Q150.5 148.0 147.05 153.75 142.0 162.2 133.75 186.1 133.0 185.4 132.25 185.1 L130.85 184.4 132.3 181.25 Q134.15 176.25 134.85 169.45 138.3 169.4 139.45 165.65 140.45 162.3 139.45 157.45 138.5 152.7 136.3 149.4 133.9 145.85 131.3 146.1 L121.25 146.8"/><path fill="#986c4c" d="M217.65 141.8 Q212.85 134.95 210.35 132.75 205.85 128.8 200.3 129.25 200.3 126.7 204.15 126.3 206.05 126.05 207.95 126.35 L211.8 128.7 Q216.0 131.6 217.65 134.15 219.85 137.65 220.35 142.05 220.9 146.5 217.65 141.8"/><path fill="#986c4c" d="M238.1 136.35 Q236.75 124.15 235.0 120.5 L228.8 111.7 Q225.65 107.35 229.5 107.5 236.8 111.65 240.5 118.9 242.95 123.75 245.55 134.85 251.05 158.25 244.35 162.3 238.95 165.5 224.4 166.55 230.2 164.2 232.25 162.95 236.95 160.15 238.2 156.4 239.6 149.75 238.1 136.35"/><path fill="#c18963" d="M196.5 92.15 Q199.35 112.75 183.8 127.7 168.5 142.4 143.4 144.05 116.3 145.85 99.6 133.85 83.4 122.25 82.15 101.55 81.55 91.6 85.8 81.45 89.9 71.6 97.7 63.35 114.75 45.35 137.7 43.95 161.3 42.55 177.05 55.1 193.2 68.0 196.5 92.15"/><path fill="#986c4c" d="M82.2 102.35 Q82.95 108.85 88.15 116.3 94.05 124.75 103.6 130.8 128.45 146.6 165.2 139.3 155.1 143.25 143.4 144.05 116.6 145.85 99.9 134.1 83.75 122.65 82.2 102.35"/><path fill="#0d131a" d="M239.05 118.05 Q235.05 110.9 226.6 106.95 214.5 101.3 209.95 103.35 208.45 104.05 208.0 105.6 207.4 107.6 207.9 115.15 L208.8 126.25 Q216.1 129.25 219.6 136.55 220.85 139.2 221.2 141.6 221.5 143.8 220.9 144.4 220.5 144.8 219.85 143.15 L218.1 138.7 Q214.7 131.15 208.6 127.95 207.05 127.15 204.85 127.15 202.6 127.15 201.65 128.05 201.1 128.6 201.15 129.5 L202.45 135.25 Q203.7 140.2 203.65 145.3 203.6 150.6 204.0 152.35 204.75 155.55 204.15 155.25 203.7 154.95 202.8 153.0 202.2 151.75 201.95 149.1 L201.85 146.7 194.25 147.35 184.65 146.85 166.6 139.15 168.9 138.25 Q179.8 142.75 185.4 145.3 187.2 146.1 194.5 145.45 L202.1 144.5 202.25 143.2 Q202.25 141.1 200.8 135.7 199.65 131.65 199.45 129.65 L199.4 129.3 Q199.4 127.8 200.45 126.8 202.4 125.0 207.0 125.4 L205.8 115.55 Q204.95 107.25 205.7 104.75 206.45 102.25 208.8 101.2 213.7 98.95 227.3 105.4 236.55 109.75 240.95 117.3 243.75 122.25 246.45 133.6 252.3 159.0 245.2 163.3 238.5 167.3 219.0 167.8 201.35 168.2 191.7 165.95 181.8 163.6 161.65 153.45 L164.35 162.45 Q166.3 169.05 166.5 172.0 L166.75 172.8 Q166.75 177.5 155.85 186.35 147.1 193.5 140.9 196.6 L140.0 197.05 139.7 196.1 Q138.9 193.7 136.3 190.5 133.75 187.45 131.15 185.55 129.55 187.25 128.55 187.8 126.75 188.7 123.8 188.65 L114.85 187.55 Q108.75 185.95 105.7 182.0 93.8 176.75 89.9 174.65 81.5 170.1 80.45 166.65 79.25 162.5 79.25 160.8 79.25 154.1 83.9 152.4 L97.15 147.35 Q108.1 143.0 112.4 140.65 L114.95 141.1 Q111.3 143.45 99.75 148.5 L85.85 154.25 Q82.85 155.35 82.0 158.8 81.2 161.8 82.3 165.35 83.85 170.25 105.8 180.05 L105.65 178.5 Q105.6 176.9 105.95 176.5 106.35 176.15 106.8 177.55 L107.8 180.8 Q108.85 183.35 114.9 185.1 119.8 186.5 123.8 186.5 126.4 186.5 128.2 185.5 L130.15 183.85 131.3 183.7 Q133.95 185.45 136.75 188.6 139.7 191.85 140.95 194.65 147.4 191.1 155.15 184.3 163.9 176.55 163.9 173.05 L163.9 172.85 Q163.45 165.95 159.45 152.05 158.1 147.25 158.75 146.85 159.4 146.45 160.7 151.05 L173.95 157.5 Q185.25 162.7 192.1 164.3 202.0 166.6 218.8 165.95 236.65 165.2 242.9 161.45 246.1 159.5 246.65 153.0 247.25 146.05 244.7 135.05 241.9 123.05 239.05 118.05"/><path fill="#0d131a" d="M121.95 145.4 Q133.6 143.75 135.95 147.3 137.75 150.05 139.2 153.7 141.15 158.55 141.0 162.05 140.8 167.1 138.75 169.1 137.5 170.35 135.15 170.5 134.9 177.3 133.85 180.6 133.1 182.9 131.3 184.85 126.1 187.25 129.15 184.8 131.65 182.75 132.65 175.85 133.7 168.0 132.1 157.45 131.85 155.75 132.05 155.35 132.25 154.95 133.15 155.6 134.4 156.5 135.2 168.4 136.7 167.95 137.4 167.25 138.05 166.6 138.55 165.2 139.75 161.95 138.25 156.55 136.95 151.95 134.65 148.5 132.7 145.6 122.45 146.95 113.55 148.15 109.05 150.35 106.45 151.65 106.0 157.05 105.8 159.45 106.2 164.75 106.35 167.1 105.9 166.9 105.45 166.7 104.95 165.05 104.05 161.85 104.15 157.25 104.3 150.7 107.35 149.15 112.2 146.75 121.95 145.4"/><path fill="#0d131a" d="M231.2 121.95 Q231.2 120.65 231.8 121.05 232.4 121.45 232.75 123.05 233.8 128.05 233.85 133.3 233.9 139.25 232.45 141.6 230.8 144.35 229.45 149.55 228.3 154.1 228.35 156.1 228.4 157.55 227.8 157.25 227.2 157.0 227.1 156.25 226.5 152.5 227.6 147.8 228.75 143.05 231.05 139.75 232.2 138.15 231.8 130.5 L231.2 121.95"/><path fill="#0d131a" d="M155.65 157.55 Q155.65 158.35 155.25 158.35 154.85 158.35 154.85 157.55 154.85 156.7 155.25 156.7 155.65 156.7 155.65 157.55"/><path fill="#0d131a" d="M196.2 96.9 Q196.2 73.5 178.75 58.3 161.65 43.35 137.75 44.85 115.4 46.2 98.6 63.6 90.75 71.7 86.65 81.4 82.4 91.5 83.0 101.5 83.5 110.25 87.05 117.65 90.55 125.0 96.75 130.5 104.95 137.7 116.85 140.95 128.7 144.2 143.35 143.2 166.35 141.65 181.45 128.15 196.2 114.95 196.2 96.9 M179.65 56.05 Q198.6 71.55 198.6 96.9 198.6 116.2 183.1 129.75 167.55 143.3 143.45 144.9 128.2 145.95 116.0 142.85 103.4 139.7 95.05 132.4 88.6 126.75 84.55 118.05 80.5 109.4 79.95 100.25 79.3 89.9 83.7 79.65 87.95 69.8 96.05 61.6 113.3 44.15 136.4 42.75 161.6 41.2 179.65 56.05"/><path fill="#0d131a" d="M119.55 48.7 L120.75 48.25 Q122.65 53.45 124.4 63.7 126.7 76.8 125.6 84.15 L123.6 83.9 Q124.65 76.6 122.8 63.85 121.25 53.45 119.55 48.7"/><path fill="#0d131a" d="M168.4 57.6 Q176.0 67.15 178.15 74.85 L176.7 76.4 Q174.55 68.8 167.05 58.7 162.95 53.25 156.35 46.1 L157.3 45.25 168.4 57.6"/><path fill="#00a63c" d="M140.55 43.25 Q140.8 45.95 138.75 46.2 136.75 46.45 136.3 43.8 135.5 39.1 132.9 34.4 L130.45 30.6 Q104.7 34.85 77.9 37.4 51.4 39.9 28.85 34.5 6.65 29.2 3.15 19.95 8.5 23.05 29.65 16.05 L64.45 3.85 Q79.35 -0.75 97.45 2.4 115.6 5.6 126.5 14.75 132.6 19.8 136.55 28.55 140.05 36.25 140.55 43.25"/><path fill="#009233" d="M92.4 1.95 Q109.95 3.75 120.8 10.55 117.95 9.5 114.0 10.05 109.0 10.8 105.4 14.1 81.05 10.1 54.5 19.0 44.55 22.35 38.65 26.15 33.0 29.8 34.95 31.3 38.05 33.65 50.2 35.3 L70.55 37.9 Q45.9 39.15 26.05 33.8 6.35 28.5 3.15 19.95 8.5 23.05 29.65 16.05 L64.45 3.85 Q75.95 0.3 92.4 1.95"/><path fill="#ed8599" d="M161.65 125.65 Q162.25 127.4 162.0 129.75 161.8 132.1 160.85 133.7 159.9 135.3 158.8 135.2 157.7 135.1 157.1 133.35 156.5 131.55 156.7 129.2 156.95 126.8 157.9 125.25 158.85 123.7 159.95 123.8 161.05 123.9 161.65 125.65"/><path fill="#d3d1ca" d="M183.55 70.1 Q190.3 70.55 191.8 87.25 192.4 93.65 191.9 100.05 191.45 106.2 190.25 108.65 L196.45 112.25 202.0 115.35 Q204.75 117.2 204.1 118.0 203.55 118.7 200.05 118.7 L180.1 118.0 157.25 117.05 Q145.35 123.7 137.65 127.4 123.35 134.25 118.4 132.7 115.45 131.75 112.65 127.0 109.8 122.25 108.15 115.4 104.1 98.95 109.2 84.9 110.7 80.65 114.0 80.3 115.9 80.15 122.05 81.85 126.1 82.95 142.2 89.3 157.3 94.7 161.75 93.0 165.55 91.55 173.9 80.4 181.7 69.95 183.55 70.1"/><path fill="#adaca6" d="M200.05 118.7 L180.1 118.0 157.25 117.05 Q152.6 116.65 153.55 114.5 154.5 112.35 156.7 112.5 L179.65 114.65 204.15 117.4 Q204.65 118.7 200.05 118.7"/><path fill="#ffffff" d="M148.9 103.9 Q149.95 105.45 140.3 111.35 130.55 117.3 127.5 116.4 124.45 115.5 120.75 108.7 116.85 101.55 118.3 97.8 123.0 96.0 135.5 99.15 146.85 101.95 148.9 103.9"/><path fill="#ffffff" d="M188.5 90.5 Q189.85 96.7 187.35 102.0 187.0 102.8 185.3 103.55 183.4 104.45 182.9 105.05 L171.8 99.45 Q174.2 95.6 178.75 89.85 184.3 82.7 185.2 83.5 187.4 85.5 188.5 90.5"/><path fill="#dbdcdc" d="M118.3 97.8 Q122.8 96.05 134.55 98.85 144.8 101.3 148.45 103.55 140.6 101.65 132.65 101.15 122.2 100.55 118.45 103.25 117.45 99.75 118.3 97.8"/><path fill="#dbdcdc" d="M185.2 83.5 Q186.5 84.65 187.65 87.6 185.95 86.35 181.55 89.6 L174.5 95.5 Q178.2 90.4 180.9 87.2 184.55 82.85 185.2 83.5"/><path fill="#0d131a" d="M137.15 43.65 Q137.65 45.45 138.65 45.35 139.85 45.15 139.7 43.3 139.2 36.25 135.65 28.65 131.75 20.25 125.95 15.4 115.3 6.45 97.35 3.3 79.35 0.15 64.7 4.65 59.85 6.15 46.5 11.0 30.0 17.05 22.55 19.2 10.35 22.65 5.0 21.5 10.4 29.45 30.8 34.0 52.5 38.9 77.8 36.5 118.25 32.75 130.3 29.75 131.65 29.4 131.95 30.0 132.3 30.65 131.15 31.45 133.3 34.0 134.55 36.6 135.75 39.0 137.15 43.65 M141.45 43.2 Q141.6 45.2 141.15 46.0 140.6 47.0 138.85 47.05 137.15 47.1 136.45 46.4 135.75 45.75 135.45 43.95 134.8 40.05 132.35 36.15 L129.35 31.9 Q99.8 36.75 74.8 39.1 48.55 41.6 30.35 37.05 12.6 32.6 1.65 21.3 -0.15 19.45 0.0 18.75 0.2 17.85 3.6 19.2 9.8 21.65 21.95 18.05 L45.9 9.4 Q60.8 3.9 65.25 2.55 80.15 -2.05 98.2 1.4 116.0 4.8 127.05 14.1 133.1 19.15 137.2 27.9 140.9 35.85 141.45 43.2"/><path fill="#0d131a" d="M123.75 20.05 Q125.7 21.0 125.3 21.4 L123.15 21.15 Q108.15 16.0 96.85 14.45 78.6 12.0 63.8 17.3 57.9 19.4 58.75 18.45 59.55 17.55 63.45 16.05 78.55 10.45 96.6 12.35 111.9 14.0 123.75 20.05"/><path fill="#0d131a" d="M157.8 126.5 Q157.25 127.8 157.1 129.4 156.9 131.5 157.4 133.1 157.85 134.6 158.55 134.7 159.25 134.75 160.0 133.45 160.85 132.0 161.1 129.8 161.4 126.45 160.2 124.95 L159.6 124.55 Q159.3 124.55 158.9 124.85 158.3 125.35 157.8 126.5 M158.35 123.7 Q159.2 123.1 160.0 123.15 160.8 123.2 161.5 124.0 163.05 125.95 162.65 129.8 162.4 132.55 161.25 134.45 160.1 136.35 158.7 136.25 157.3 136.1 156.55 134.0 155.8 131.9 156.1 129.15 156.25 127.35 156.85 125.9 157.5 124.4 158.35 123.7"/><path fill="#0d131a" d="M187.65 74.15 Q185.8 71.1 183.5 70.95 182.05 70.85 175.25 80.0 L168.6 88.5 Q164.75 92.75 162.05 93.8 158.4 95.2 149.05 92.45 143.6 90.85 131.95 86.35 L120.95 82.4 Q115.55 80.95 113.75 81.25 111.3 81.65 110.0 85.2 106.55 94.8 107.55 106.5 108.45 116.7 112.25 124.45 115.4 130.8 118.65 131.9 122.55 133.15 137.9 126.2 150.45 120.55 155.75 117.05 154.45 116.85 154.45 116.35 154.45 115.85 157.45 115.95 L166.15 116.45 174.15 116.9 200.05 117.85 Q202.7 117.9 202.7 117.3 202.75 116.9 201.5 116.1 198.6 114.0 196.5 112.9 L183.1 106.25 169.45 99.5 Q167.25 98.35 167.7 97.85 168.1 97.4 170.2 98.45 L189.7 107.5 Q192.15 102.4 191.55 91.2 190.9 79.8 187.65 74.15 M183.4 68.6 Q185.0 68.1 186.7 69.65 188.05 70.95 189.15 73.3 192.85 81.35 193.45 92.25 194.0 102.95 191.3 108.3 L196.15 110.85 203.25 114.85 Q207.0 117.35 205.4 118.65 204.1 119.8 200.05 119.6 L174.1 118.6 157.45 117.9 Q149.8 122.65 141.2 126.9 124.0 135.4 118.15 133.5 116.05 132.85 114.0 130.9 111.7 128.7 110.1 125.5 106.15 117.45 105.15 106.85 104.0 94.6 107.55 84.7 109.25 79.9 112.7 78.8 115.55 77.85 120.6 79.25 L139.2 86.45 Q158.4 93.4 161.45 92.2 163.75 91.3 168.15 85.9 L173.85 78.2 Q175.95 75.3 178.65 72.5 181.85 69.15 183.4 68.6"/><path fill="#0d131a" d="M144.6 101.4 Q145.35 103.05 145.45 105.2 145.55 107.7 144.65 109.15 L144.5 109.0 134.35 114.75 Q130.85 112.85 129.9 107.0 129.0 101.2 131.6 98.2 L144.4 101.5 144.6 101.4"/><path fill="#0d131a" d="M181.4 90.75 Q182.65 93.25 182.4 97.55 182.15 101.85 180.6 104.05 L174.65 100.9 174.05 98.4 Q173.85 97.05 174.2 95.8 L179.45 88.75 Q180.1 88.8 180.45 89.1 L181.4 90.75"/><path fill="#ffffff" d="M137.55 105.2 Q137.3 103.65 137.7 102.5 138.1 101.2 139.05 101.05 140.0 100.9 140.75 102.05 141.45 103.05 141.65 104.6 141.85 106.2 141.5 107.35 141.1 108.65 140.15 108.75 139.15 108.9 138.4 107.75 137.75 106.75 137.55 105.2"/><path fill="#ffffff" d="M175.4 97.1 Q175.4 93.8 176.8 93.8 178.2 93.8 178.2 97.1 178.2 100.35 176.8 100.35 176.1 100.35 175.7 99.3 175.4 98.4 175.4 97.1"/><path fill="#0d131a" d="M142.1 109.4 Q147.7 105.75 148.3 104.2 145.6 102.25 135.15 99.65 123.45 96.75 118.8 98.3 L118.55 99.9 Q118.55 102.9 120.6 107.05 122.2 110.3 124.25 112.85 126.3 115.4 127.7 115.8 129.1 116.2 133.25 114.35 137.4 112.5 142.1 109.4 M117.15 97.85 Q117.85 96.5 119.1 96.25 125.95 94.9 136.5 97.75 146.15 100.35 149.35 103.4 L149.4 103.45 149.35 103.4 149.45 103.5 Q150.2 104.1 149.95 104.5 L149.15 105.3 Q146.7 108.7 138.7 113.4 130.2 118.45 127.0 117.5 123.85 116.55 120.35 110.55 117.1 104.9 116.7 100.75 116.55 99.1 117.15 97.85"/><path fill="#0d131a" d="M184.9 84.1 Q183.7 84.55 179.25 90.25 175.35 95.25 172.75 99.2 L182.35 104.5 Q183.6 104.1 185.15 102.95 L187.1 101.1 Q188.3 98.95 188.3 94.7 188.3 91.3 187.15 88.1 186.15 85.4 184.9 84.1 M183.9 82.15 Q184.5 81.75 184.95 81.95 185.1 82.0 185.45 82.35 188.25 84.9 189.4 91.25 190.6 98.1 188.05 101.95 L185.95 103.9 183.1 105.5 171.25 99.1 175.65 92.0 Q180.65 84.5 183.9 82.15"/></g></svg>