<?xml version='1.0' encoding='utf-8'?>
<svg xmlns="http://www.w3.org/2000/svg" version="1.1" width="331px" height="353px" viewBox="0.05 0.0 330.8 352.65"><g><path fill="#0d131a" d="M183.95 59.65 Q194.75 59.65 201.2 66.75 206.25 72.3 206.35 78.5 206.45 87.6 196.95 94.2 188.35 100.1 179.0 100.05 173.75 100.0 168.6 97.85 163.65 95.75 159.95 92.25 159.15 91.45 159.25 91.05 159.35 90.55 160.55 90.35 169.15 88.9 173.25 82.4 177.1 76.4 176.95 66.35 176.9 63.35 178.85 61.5 180.8 59.65 183.95 59.65"/><path fill="#a7d081" d="M195.2 64.8 Q202.45 69.3 204.3 75.45 206.35 82.25 198.5 89.9 190.2 97.9 178.85 98.15 173.45 98.25 168.4 95.95 164.45 94.15 162.05 91.6 172.15 89.3 176.0 81.9 178.55 77.0 178.55 68.7 L178.5 66.2 Q178.5 62.0 182.7 61.3 188.25 60.45 195.2 64.8"/><path fill="#90b571" d="M182.7 61.3 Q188.25 60.45 195.2 64.8 202.45 69.3 204.3 75.45 206.35 82.25 198.5 89.9 190.2 97.9 178.85 98.15 173.6 98.25 168.65 96.05 164.75 94.3 162.3 91.8 166.85 92.65 172.3 91.9 177.1 91.3 180.65 89.75 183.8 88.4 184.3 86.8 184.75 85.45 183.15 84.4 181.55 83.4 179.1 83.4 176.45 83.4 174.2 84.65 176.8 81.4 177.8 76.7 178.55 73.4 178.55 68.7 L178.5 66.2 Q178.5 62.0 182.7 61.3"/><path fill="#0d131a" d="M182.85 88.7 Q192.4 84.05 197.35 72.95 L198.25 73.35 Q193.1 84.9 184.05 89.5 175.05 94.15 161.8 92.0 L161.45 91.3 Q173.8 93.1 182.85 88.7"/><path fill="#0d131a" d="M193.3 185.6 Q195.05 184.5 196.9 186.7 201.85 192.35 224.8 208.35 237.2 217.0 271.0 239.55 301.55 259.9 313.0 268.15 330.8 280.95 328.3 282.1 L320.4 281.05 301.55 279.75 Q294.8 279.8 281.5 290.8 L270.2 300.1 Q263.55 305.35 258.4 308.0 235.4 299.65 221.45 297.75 211.75 296.4 200.0 297.95 L196.55 297.5 Q193.7 297.8 191.7 291.75 189.5 285.0 188.25 267.9 187.1 251.9 187.25 233.3 187.45 214.25 188.9 201.4 190.55 187.15 193.3 185.6"/><path fill="#90b571" d="M195.75 187.7 Q205.4 198.85 264.15 234.6 L303.7 258.4 Q321.45 269.1 322.2 270.25 327.95 278.85 327.8 280.7 L321.35 279.65 Q312.6 278.0 304.3 277.8 296.8 277.6 282.85 289.0 L271.45 298.4 Q264.9 303.65 260.25 305.95 237.95 296.85 220.95 295.05 211.2 294.0 199.3 295.6 L196.4 295.95 Q194.8 296.1 193.15 291.25 188.35 276.6 188.7 233.2 188.85 214.7 190.2 202.1 191.65 188.3 194.05 186.95 194.8 186.6 195.75 187.7"/><path fill="#0d131a" d="M157.2 185.95 L158.35 184.6 159.0 184.7 Q162.0 185.1 164.3 192.1 165.7 196.35 166.55 202.0 170.15 226.0 163.6 248.8 155.55 276.95 134.75 286.55 122.1 292.45 108.55 295.5 94.95 298.6 81.75 298.5 25.65 298.1 0.05 259.55 0.65 258.05 16.75 259.45 L58.15 260.9 Q101.35 259.5 129.3 232.25 149.25 212.8 157.2 185.95"/><path fill="#eef3f6" d="M83.45 296.2 Q51.0 296.15 24.55 280.15 15.55 274.7 9.2 268.55 3.9 263.45 4.15 262.05 4.3 261.05 7.95 261.25 L18.65 262.35 Q40.05 264.65 60.15 263.95 100.65 262.55 128.4 236.65 149.5 216.95 159.8 187.4 163.05 189.35 165.0 202.25 166.15 209.6 166.15 218.3 166.15 239.9 159.2 256.9 150.8 277.4 134.1 285.15 122.3 290.65 108.35 293.55 95.5 296.2 83.45 296.2"/><path fill="#0d131a" d="M183.35 105.1 Q186.25 102.05 189.15 101.7 191.3 101.4 193.3 102.7 198.4 106.05 200.55 116.85 202.6 127.25 200.0 133.5 199.05 135.85 197.4 136.85 195.75 137.85 193.7 137.4 189.65 136.5 186.55 133.45 183.35 130.25 181.8 125.25 180.1 119.7 180.65 113.45 181.15 107.45 183.35 105.1"/><path fill="#ed85ad" d="M194.05 135.9 Q189.9 135.0 187.0 131.05 185.0 128.4 183.8 124.55 182.15 119.15 182.45 113.4 182.75 108.0 184.5 106.15 188.75 101.65 192.45 104.0 197.05 107.05 199.05 117.2 201.0 127.15 198.6 132.9 197.05 136.55 194.05 135.9"/><path fill="#cd7497" d="M194.05 135.9 Q189.9 135.0 187.0 131.05 185.0 128.4 183.8 124.55 182.15 119.15 182.45 113.4 182.75 108.0 184.5 106.15 188.75 101.65 192.45 104.0 197.05 107.05 199.05 117.2 201.0 127.15 198.6 132.9 197.05 136.55 194.05 135.9"/><path fill="#0d131a" d="M191.4 86.0 Q195.1 84.75 199.85 84.85 L207.9 85.55 212.8 85.4 Q216.75 86.75 218.95 89.85 219.95 91.25 222.15 96.3 L223.4 98.9 224.95 101.7 Q227.15 105.8 229.3 111.75 L232.95 122.45 Q238.3 138.05 243.55 148.15 251.65 163.6 264.8 178.55 278.8 194.55 279.65 204.35 L279.5 205.15 279.15 205.95 Q281.9 215.15 279.45 215.0 278.0 214.85 270.85 209.15 L271.25 211.1 Q271.45 213.35 270.55 213.45 L267.8 212.5 Q257.35 207.85 247.55 192.85 235.75 174.75 230.35 148.4 226.7 130.95 220.45 113.05 L220.35 113.75 Q218.65 122.05 216.5 128.4 L215.4 131.9 214.95 132.0 Q208.35 133.4 203.7 133.1 197.15 132.65 192.8 129.1 L192.55 128.9 192.55 128.55 Q192.5 125.65 191.2 121.3 L188.6 113.8 187.2 109.95 Q183.0 114.45 177.3 122.4 169.65 133.1 166.3 141.1 159.35 157.7 152.95 168.55 144.8 182.25 133.7 193.7 130.55 196.9 124.45 201.6 117.9 206.55 113.25 209.1 110.3 210.7 109.25 210.15 108.3 209.65 108.35 206.65 108.45 204.25 109.35 200.75 L110.65 195.8 110.35 193.1 Q110.35 174.0 152.9 136.3 159.3 130.65 164.75 122.25 L173.1 107.8 177.6 99.6 Q180.15 94.95 182.25 92.25 185.4 88.25 191.4 86.0"/><path fill="#a7d081" d="M199.9 86.6 L207.7 87.1 212.85 87.5 Q215.9 88.6 217.7 91.1 218.85 92.65 220.7 96.9 222.45 101.0 223.35 102.7 225.55 106.85 227.75 112.45 L231.5 122.95 Q237.25 139.65 242.0 149.1 250.05 165.1 263.2 180.05 270.35 188.25 274.55 195.45 278.1 201.6 278.1 204.25 274.85 198.5 273.95 197.85 273.35 197.4 273.8 198.8 274.2 200.05 275.15 201.9 L277.55 206.25 Q279.05 209.45 279.15 212.4 279.2 213.9 275.15 210.9 271.3 208.1 268.85 205.2 264.5 198.55 265.05 200.25 265.55 201.9 267.25 204.45 L269.0 208.2 Q269.8 210.4 269.7 211.0 269.45 212.3 265.15 209.1 260.2 205.4 254.85 198.65 239.1 178.85 231.85 148.05 229.15 136.6 225.7 124.6 222.5 113.45 221.1 110.3 L220.7 109.45 219.9 110.0 Q219.55 110.3 219.35 111.0 L218.8 113.45 Q217.4 120.9 215.0 127.9 L214.2 130.6 Q208.1 131.8 203.85 131.55 197.95 131.15 194.05 128.1 193.95 125.1 192.65 120.7 191.85 117.9 190.05 113.25 L188.45 108.65 190.2 105.95 Q190.85 105.05 190.45 104.85 190.05 104.6 188.45 106.1 185.05 109.25 177.85 118.9 168.45 131.5 164.85 140.5 160.2 152.25 150.8 167.3 140.15 184.4 130.75 193.3 122.2 201.35 117.75 204.7 109.15 211.2 109.85 206.0 110.4 202.05 111.55 197.9 112.75 193.6 114.05 191.2 114.8 189.8 114.35 189.9 L113.7 190.3 Q113.6 189.9 112.75 191.75 L111.9 193.15 Q111.9 183.6 125.25 167.35 134.4 156.15 154.0 137.45 160.4 131.25 166.15 122.8 169.6 117.7 175.0 108.1 180.9 97.6 184.25 93.25 187.1 89.55 191.8 87.85 195.35 86.6 199.9 86.6"/><path fill="#90b571" d="M200.5 97.65 Q197.05 92.6 193.85 91.25 190.3 89.7 185.5 91.8 188.05 89.15 191.8 87.85 195.35 86.6 199.9 86.6 L207.7 87.1 212.85 87.5 Q215.9 88.6 217.7 91.1 218.85 92.65 220.7 96.9 222.45 101.0 223.35 102.7 225.55 106.85 227.75 112.45 L231.5 122.95 Q228.1 125.8 228.3 134.05 223.35 115.5 221.1 110.3 L220.7 109.45 219.9 110.0 Q219.55 110.3 219.35 111.0 L218.8 113.45 217.75 118.45 Q213.9 111.65 208.15 105.85 201.6 99.3 200.5 97.65"/><path fill="#90b571" d="M203.2 114.0 Q211.1 116.35 218.4 115.6 217.2 121.45 215.0 127.9 L214.2 130.6 Q208.1 131.8 203.85 131.55 197.95 131.15 194.05 128.1 193.95 125.1 192.65 120.7 191.85 117.9 190.05 113.25 L188.45 108.65 189.65 106.8 Q194.9 111.6 203.2 114.0"/><path fill="#90b571" d="M238.7 170.05 Q246.1 182.55 252.75 191.7 260.75 202.7 269.35 211.3 268.15 211.35 265.05 209.05 261.4 206.3 257.4 201.7 246.3 189.1 238.7 170.05"/><path fill="#90b571" d="M167.4 132.4 Q177.35 113.85 188.2 106.3 184.1 110.4 177.45 119.45 168.35 131.75 164.85 140.5 160.2 152.25 150.8 167.3 140.15 184.4 130.75 193.3 L120.85 202.2 Q121.45 200.0 131.6 187.75 144.45 172.35 150.85 162.85 154.65 157.25 159.4 148.0 164.65 137.55 167.4 132.4"/><path fill="#90b571" d="M120.85 202.2 Q109.6 211.55 109.85 206.45 111.3 208.5 116.8 201.2 L119.95 197.15 Q121.15 195.9 120.65 198.05 L120.85 202.2"/><path fill="#0d131a" d="M194.95 85.3 L197.75 84.5 Q199.05 84.0 199.4 83.25 201.05 79.95 200.25 78.25 L199.15 77.2 201.55 76.3 Q206.0 74.55 211.6 75.15 L212.5 75.25 212.75 76.25 Q209.5 84.25 213.15 85.6 213.9 85.9 215.7 90.45 217.7 95.5 218.7 100.55 221.55 115.15 213.55 116.0 L209.3 116.2 Q207.1 116.1 205.8 115.2 201.05 111.95 199.15 101.7 L197.6 94.05 Q196.5 90.1 194.45 88.15 193.7 87.4 191.75 87.85 L191.3 86.35 191.35 86.35 194.95 85.3"/><path fill="#eef3f6" d="M200.95 84.4 Q202.5 81.9 202.85 77.5 206.4 76.35 210.5 76.65 209.7 79.95 209.7 81.9 209.7 86.2 212.8 87.45 213.4 88.0 214.5 91.15 215.8 94.75 216.45 98.25 L217.0 100.4 Q218.45 105.85 217.9 108.55 217.2 112.35 212.6 113.65 209.0 114.65 206.55 113.25 204.1 111.8 202.55 107.5 201.6 104.95 200.35 99.0 199.2 93.65 198.45 91.6 197.2 88.0 195.3 86.85 L195.25 86.8 195.35 86.8 198.65 85.9 Q200.3 85.35 200.95 84.4"/><path fill="#d3d9db" d="M199.7 96.2 Q198.85 92.5 198.0 90.5 196.85 87.8 195.3 86.85 L195.25 86.8 195.35 86.8 198.65 85.9 Q200.3 85.35 200.95 84.4 202.5 81.9 202.85 77.5 206.4 76.35 210.5 76.65 209.7 79.95 209.7 81.9 209.7 86.25 212.75 87.4 213.35 87.85 214.5 91.15 215.8 94.75 216.45 98.25 214.65 98.5 211.65 98.35 205.65 98.1 199.7 96.2"/><path fill="#0d131a" d="M330.1 279.75 Q329.8 282.4 327.45 282.05 326.2 281.9 323.75 280.6 319.8 278.45 319.15 278.25 316.15 277.05 313.55 277.8 312.0 278.25 309.35 281.25 L304.95 286.75 Q299.15 294.25 296.85 296.4 292.2 300.65 285.55 302.5 282.6 303.35 280.4 300.05 278.9 297.75 277.25 292.3 274.75 283.95 272.05 278.9 267.45 270.1 259.55 263.4 252.2 257.15 227.7 221.75 204.1 187.5 203.8 187.4 200.7 191.15 191.9 218.6 182.25 248.75 178.9 269.15 174.9 293.4 168.5 307.15 157.35 330.9 138.3 328.95 130.5 328.15 122.6 325.6 117.5 323.95 109.35 320.4 98.6 315.75 86.2 312.55 74.8 309.55 67.15 309.05 55.65 308.2 56.35 305.25 57.05 302.45 68.35 298.7 85.55 293.9 100.5 284.55 117.3 274.05 127.4 260.05 139.2 243.7 149.1 210.35 157.8 176.65 160.7 168.65 164.5 158.15 170.1 151.25 176.2 143.7 189.35 133.95 192.55 131.6 192.55 126.85 L192.55 124.65 193.9 126.35 Q196.65 129.75 202.05 130.75 207.85 131.8 214.7 129.65 L216.0 129.35 215.65 130.6 Q210.2 150.1 218.3 173.4 226.3 196.4 242.4 208.65 256.3 219.25 272.25 229.25 L295.95 243.5 Q314.65 254.7 323.25 264.4 330.85 272.95 330.1 279.75"/><path fill="#eef3f6" d="M324.65 279.6 Q322.05 277.3 320.3 276.25 317.2 274.35 312.5 275.6 310.45 276.15 307.6 279.5 L301.95 286.7 Q293.45 297.25 284.25 299.45 282.25 299.95 281.1 298.15 280.25 296.8 278.75 291.85 276.1 283.2 273.4 278.1 268.65 269.1 260.55 262.2 252.5 255.4 240.45 238.45 233.45 228.6 220.8 208.85 L209.5 191.65 Q205.4 186.0 203.85 185.8 203.25 185.75 202.85 186.15 199.7 189.3 190.5 218.1 180.7 248.8 177.4 268.9 173.75 290.8 166.3 305.35 154.7 327.9 136.4 326.05 129.0 325.3 120.5 322.25 117.65 321.2 106.95 316.65 100.55 313.95 89.55 310.95 79.85 308.3 73.15 307.1 L64.55 306.1 60.1 305.5 Q58.65 305.0 64.5 302.75 L75.9 298.6 Q94.45 291.9 105.7 284.2 118.1 275.75 129.5 261.2 140.8 246.85 149.95 216.75 152.4 208.7 156.7 192.3 160.7 177.25 162.75 170.9 165.75 161.6 171.35 153.8 178.35 144.0 190.35 135.15 193.4 132.9 193.95 128.5 198.9 132.25 203.15 132.65 206.15 132.9 213.85 131.35 211.85 139.15 211.85 147.8 211.85 165.65 219.6 182.75 227.5 200.15 240.55 210.05 254.95 220.95 270.55 231.1 279.85 237.15 294.35 245.85 307.6 253.8 311.15 256.55 318.45 262.3 323.45 269.1 328.05 275.45 328.05 279.0 L328.0 279.45 Q327.95 280.1 326.65 280.05 L324.65 279.6"/><path fill="#d3d9db" d="M291.65 294.75 Q299.3 284.9 305.55 279.65 313.1 273.3 317.0 275.15 315.0 274.9 312.5 275.6 310.05 276.25 303.95 284.2 297.1 293.1 291.3 296.55 L291.65 294.75"/><path fill="#d3d9db" d="M73.15 307.1 L64.55 306.1 60.1 305.5 Q58.75 305.05 63.7 304.7 68.85 304.35 74.0 304.75 82.75 305.45 93.15 308.9 98.0 310.55 109.95 315.45 119.3 319.25 123.7 320.15 130.1 321.5 133.65 318.95 140.9 313.8 155.7 300.3 169.3 287.9 174.65 282.05 169.9 301.15 162.05 312.4 151.45 327.55 136.4 326.05 129.0 325.3 120.5 322.25 117.65 321.2 106.95 316.65 100.55 313.95 89.55 310.95 79.85 308.3 73.15 307.1"/><path fill="#d3d9db" d="M213.85 131.35 Q212.55 136.65 212.1 141.95 207.25 143.5 193.75 144.65 182.4 145.6 174.6 149.6 180.7 142.3 190.35 135.15 193.4 132.9 193.95 128.5 198.9 132.25 203.15 132.65 206.15 132.9 213.85 131.35"/><path fill="#0d131a" d="M226.55 103.7 L230.05 103.6 Q231.1 104.35 230.8 107.1 229.6 117.5 223.15 126.65 216.05 136.75 206.95 138.4 L205.6 138.45 Q205.2 138.3 205.5 137.45 L207.1 127.65 208.95 113.25 209.55 108.2 Q209.8 106.2 210.7 105.65 211.45 105.2 213.75 105.3 L219.6 104.95 226.55 103.7"/><path fill="#ed85ad" d="M228.2 107.3 Q228.2 115.2 222.15 124.85 215.45 135.5 207.3 136.9 208.25 132.85 210.5 113.45 L211.05 108.4 Q211.15 107.55 211.75 107.1 212.3 106.6 213.15 106.65 L219.6 106.6 226.8 105.8 Q228.2 105.55 228.2 107.3"/><path fill="#f6c8dd" d="M226.8 105.8 Q228.2 105.55 228.2 107.3 L228.2 107.85 Q227.3 107.0 225.25 107.45 L219.45 107.95 Q214.8 108.15 211.2 107.9 211.7 106.6 213.15 106.65 L219.6 106.6 226.8 105.8"/><path fill="#eef3f6" d="M192.2 181.45 L215.35 183.15 Q225.35 217.75 249.3 238.05 267.35 253.3 282.7 273.3 294.3 288.45 297.95 296.8 300.2 302.05 298.75 304.65 297.8 306.3 294.4 307.65 288.45 309.95 267.75 322.7 L244.7 336.65 Q242.5 337.65 235.25 342.65 229.4 346.7 227.4 346.55 225.95 346.5 225.8 343.05 225.65 340.05 226.35 337.7 232.0 319.65 231.8 300.2 231.55 281.25 225.85 263.35 222.7 253.55 214.2 236.15 L200.45 208.0 Q194.0 193.4 192.2 181.45"/><path fill="#d3d9db" d="M231.2 287.95 Q230.0 272.55 227.5 266.75 234.8 282.5 234.7 308.4 234.65 327.0 232.1 336.9 231.05 340.9 244.2 334.35 L266.5 323.05 Q257.7 329.05 247.45 335.4 237.55 341.55 234.75 342.85 226.85 346.45 226.45 346.45 225.15 346.5 226.35 341.65 233.2 313.5 231.2 287.95"/><path fill="#0d131a" d="M191.5 181.55 L192.9 181.35 Q195.1 195.7 206.7 218.75 222.25 249.55 227.6 265.65 232.65 280.75 232.8 295.6 233.05 318.25 227.2 341.4 226.45 344.25 227.65 344.65 228.8 345.05 231.9 343.15 L260.1 326.35 Q286.55 310.75 294.15 306.95 298.35 304.85 298.6 301.95 298.75 300.5 297.3 297.1 293.8 289.05 282.25 273.95 266.9 253.85 248.85 238.6 236.25 227.9 226.15 212.75 215.4 196.5 213.15 183.2 212.3 178.2 212.85 177.95 213.4 177.75 214.05 181.65 216.05 193.7 224.75 207.65 234.55 223.25 250.55 237.3 271.65 255.85 285.9 274.3 295.6 286.85 299.4 295.3 301.55 300.05 301.5 302.05 301.45 306.15 295.95 308.85 291.6 311.0 263.3 327.3 236.65 342.7 232.6 345.25 228.1 348.05 226.35 347.95 223.3 347.8 224.85 340.75 230.15 316.75 230.15 295.6 230.2 281.7 224.8 265.15 219.0 247.5 204.4 218.45 199.4 208.5 196.05 199.05 192.65 189.35 191.5 181.55"/><path fill="#eef3f6" d="M180.6 179.95 L202.1 178.8 Q202.45 189.25 206.05 212.25 210.35 239.8 211.55 251.95 216.55 303.05 200.35 334.7 195.1 345.0 189.6 347.65 186.5 349.15 179.6 348.6 171.25 347.95 153.5 340.45 136.15 333.1 131.25 332.95 129.4 332.9 130.25 331.65 L134.65 326.75 Q144.85 315.15 153.0 298.3 163.4 276.8 172.2 228.7 179.3 183.65 180.6 179.95"/><path fill="#d3d9db" d="M153.5 340.45 Q136.15 333.1 131.25 332.95 129.65 332.9 130.2 332.2 130.7 331.5 132.3 331.3 138.2 330.5 154.3 336.5 173.5 343.65 176.45 344.2 184.2 345.7 190.6 339.7 196.95 333.8 203.1 319.6 206.75 311.1 209.75 287.45 212.15 265.2 212.5 264.05 213.6 283.95 211.15 300.15 208.3 319.25 200.35 334.7 195.1 345.0 189.6 347.65 186.5 349.15 179.6 348.6 171.25 347.95 153.5 340.45"/><path fill="#0d131a" d="M206.05 134.75 L207.25 136.25 204.05 147.3 Q201.5 156.1 201.5 160.6 201.5 182.65 208.15 221.9 214.75 261.15 214.75 277.45 214.75 293.6 212.0 307.15 208.95 322.2 202.2 335.4 193.35 352.65 182.5 351.1 178.85 350.55 170.25 347.85 160.4 344.75 152.8 341.4 149.5 339.9 142.6 338.05 136.15 336.3 133.0 335.9 127.95 335.3 127.45 333.9 126.9 332.5 130.4 328.7 147.3 310.35 157.95 279.85 168.35 250.15 176.65 197.75 178.95 183.5 179.9 179.7 180.8 176.25 181.15 176.3 181.5 176.3 180.7 180.55 L179.5 188.05 178.1 197.95 Q168.55 257.95 158.4 286.5 149.4 311.65 133.35 329.05 L131.2 331.4 Q129.95 332.95 131.35 332.9 133.15 332.85 139.5 334.7 146.4 336.65 152.05 339.05 159.35 342.1 166.95 344.55 175.3 347.25 180.3 347.9 186.3 348.75 190.0 346.55 194.85 343.7 199.7 334.35 212.2 310.5 212.2 276.6 212.2 262.75 206.1 222.65 200.0 182.55 200.0 160.45 200.0 154.5 202.45 147.0 205.55 137.6 206.05 134.75"/><path fill="#a7d081" d="M122.5 189.85 Q123.75 187.9 125.25 188.05 126.6 188.2 127.55 189.9 129.95 194.1 127.1 197.35 122.95 202.15 115.8 205.7 114.05 206.55 116.85 200.35 119.45 194.6 122.5 189.85"/><path fill="#90b571" d="M128.4 191.7 Q130.55 189.45 129.5 192.65 128.4 195.8 127.1 197.35 124.05 200.9 118.85 204.05 123.2 197.15 128.4 191.7"/><path fill="#0d131a" d="M122.1 189.6 Q123.6 187.65 123.8 188.1 124.0 188.55 122.9 190.1 121.85 191.65 118.65 198.35 115.45 205.1 115.8 205.2 116.2 205.3 120.45 202.2 124.85 198.95 126.7 197.05 128.65 195.05 129.55 195.0 130.45 195.0 128.6 197.0 124.4 201.65 116.4 206.4 114.9 207.25 114.35 207.0 113.75 206.7 114.05 204.9 114.35 203.05 117.4 197.35 120.35 191.85 122.1 189.6"/><path fill="#eef3f6" d="M231.6 39.5 Q243.25 36.45 243.75 37.45 244.15 38.25 238.05 45.65 L231.85 52.9 Q239.85 50.5 240.2 51.15 240.55 51.85 237.65 55.4 234.15 59.7 228.75 63.9 232.5 66.05 232.1 66.95 231.75 67.6 228.35 68.3 L223.35 68.9 Q222.3 71.0 219.3 73.1 213.25 77.3 203.45 77.3 L193.55 76.9 190.3 76.45 Q190.0 74.6 190.2 71.95 190.65 66.55 193.45 62.3 200.2 51.85 213.1 45.75 219.7 42.65 231.6 39.5"/><path fill="#d3d9db" d="M193.75 66.7 Q192.8 68.5 191.8 71.5 190.7 74.95 190.7 76.85 190.25 75.85 190.15 73.85 190.0 69.85 191.8 65.0 L193.75 66.7"/><path fill="#d3d9db" d="M219.35 46.95 L218.05 43.6 Q226.2 40.7 234.25 39.0 L240.7 37.9 Q235.8 39.0 228.9 42.05 222.9 44.7 219.35 46.95"/><path fill="#0d131a" d="M203.0 42.15 Q212.1 39.7 216.4 42.05 219.6 43.85 220.4 48.45 221.15 52.95 219.3 57.8 217.3 63.0 213.1 66.25 208.3 69.9 201.8 69.95 196.6 69.95 193.4 66.85 190.1 63.75 190.25 57.45 190.35 53.75 193.65 49.1 197.55 43.6 203.0 42.15"/><path fill="#ffffff" d="M203.25 43.05 L204.05 42.8 Q199.65 53.35 201.75 60.85 203.45 67.05 207.9 67.75 L205.05 68.6 202.1 69.0 Q197.2 69.0 194.1 65.65 191.05 62.35 191.2 57.45 191.3 53.95 194.4 49.6 198.1 44.45 203.25 43.05"/><path fill="#dbdcdc" d="M203.25 43.05 L204.05 42.8 Q200.6 51.15 201.2 57.55 197.15 61.1 194.45 65.95 191.05 62.65 191.2 57.45 191.3 53.95 194.4 49.6 198.1 44.45 203.25 43.05"/><path fill="#ed85ad" d="M216.35 43.45 Q220.95 47.7 217.5 57.2 216.05 61.15 213.65 63.8 211.1 66.65 208.45 66.75 206.25 66.8 204.5 63.75 202.65 60.45 202.65 55.6 202.65 49.35 205.2 42.55 213.35 40.65 216.35 43.45"/><path fill="#cd7497" d="M216.35 43.45 Q218.2 45.25 218.7 48.4 209.35 51.0 202.7 56.3 L202.65 55.6 Q202.65 49.35 205.2 42.55 213.35 40.65 216.35 43.45"/><path fill="#0d131a" d="M213.0 55.7 Q213.0 58.35 212.3 60.25 211.65 62.1 210.65 62.1 209.7 62.1 209.0 60.25 208.3 58.35 208.3 55.7 208.3 53.05 209.0 51.15 209.7 49.25 210.65 49.25 211.65 49.25 212.3 51.15 213.0 53.05 213.0 55.7"/><path fill="#a7d081" d="M249.9 87.2 Q235.9 101.95 213.4 98.8 L215.05 97.75 Q217.05 96.3 218.7 94.4 224.0 88.3 224.0 79.9 224.0 77.35 222.75 74.2 L221.5 71.6 223.35 68.9 227.25 68.55 Q231.3 68.0 232.1 66.95 232.65 66.2 230.45 64.95 L228.2 63.8 234.95 58.15 Q241.5 52.35 240.6 51.3 240.15 50.75 236.1 51.7 L232.2 52.8 234.4 50.25 239.0 44.7 242.7 39.8 Q244.05 37.85 243.75 37.45 223.9 38.55 206.15 49.55 192.3 58.2 190.5 71.05 189.6 77.45 191.5 82.15 188.15 81.85 183.6 80.75 174.5 78.55 168.6 74.6 154.45 65.05 154.45 48.25 154.45 27.55 170.75 14.35 186.55 1.5 210.25 1.5 232.45 1.5 246.7 14.2 262.5 28.35 262.5 53.75 262.5 73.95 249.9 87.2"/><path fill="#ffffff" d="M217.6 48.6 Q218.4 49.4 218.4 50.55 218.4 51.7 217.6 52.55 216.8 53.35 215.65 53.35 214.5 53.35 213.65 52.55 212.85 51.7 212.85 50.55 212.85 49.4 213.65 48.6 214.5 47.8 215.65 47.8 216.8 47.8 217.6 48.6"/><path fill="#90b571" d="M190.7 81.55 L183.4 80.45 Q174.8 78.5 168.25 74.2 160.9 69.35 157.2 62.0 154.0 55.65 154.0 48.6 L157.5 50.65 Q162.15 52.9 167.9 53.95 186.15 57.25 208.0 47.0 204.6 49.35 200.8 52.7 193.3 59.45 191.6 64.55 189.85 69.8 189.7 72.6 189.65 74.2 190.0 75.95 190.15 77.8 191.15 80.55 L190.7 81.55"/><path fill="#90b571" d="M237.8 55.9 Q241.5 63.85 239.35 74.1 236.6 86.85 225.05 94.25 221.35 96.65 217.05 97.6 L213.5 98.05 Q217.9 95.7 220.65 91.9 223.85 87.5 223.85 82.35 223.85 77.8 222.7 74.25 L221.5 71.6 223.3 69.2 229.65 68.0 Q231.8 67.4 232.1 66.95 232.4 66.4 229.05 64.0 L237.8 55.9"/><path fill="#0d131a" d="M236.95 68.2 Q236.75 62.95 235.25 58.2 235.05 57.5 235.5 57.2 235.95 56.85 236.2 57.55 237.9 62.55 238.25 67.95 238.65 74.15 237.15 79.5 235.15 86.65 229.85 91.55 223.05 97.85 211.85 99.15 L211.7 98.15 Q222.55 96.9 228.9 90.85 233.75 86.25 235.7 79.25 237.15 74.1 236.95 68.2"/><path fill="#0d131a" d="M210.0 24.2 Q214.7 22.8 216.65 22.55 218.7 22.35 210.35 25.1 199.5 28.65 192.15 36.15 185.45 42.95 182.9 51.7 180.45 60.1 182.55 67.8 184.7 75.75 191.0 80.5 L191.15 81.05 Q191.05 81.5 190.05 80.85 183.4 76.6 181.0 68.5 178.75 60.65 181.2 51.85 183.8 42.65 190.8 35.55 198.55 27.7 210.0 24.2"/><path fill="#0d131a" d="M162.55 48.95 Q162.4 38.6 167.1 28.95 171.75 19.4 179.1 14.9 181.6 13.35 182.25 13.4 182.9 13.45 179.65 15.7 172.15 20.85 167.85 30.4 163.6 39.85 164.1 49.95 164.6 60.7 170.55 68.5 177.15 77.3 189.35 80.4 L189.1 81.35 Q175.7 77.9 168.8 68.55 162.7 60.3 162.55 48.95"/><path fill="#0d131a" d="M160.6 28.3 Q157.55 34.1 156.5 37.65 155.2 42.05 155.2 47.85 155.2 57.6 159.8 64.85 164.45 72.1 173.4 76.25 161.2 68.9 158.25 54.9 155.65 42.6 160.6 28.3 M247.55 88.15 Q261.5 75.4 261.5 53.55 261.5 32.15 248.55 17.9 234.55 2.5 210.9 2.5 184.75 2.5 171.0 15.3 159.0 26.45 158.85 44.35 158.75 59.05 166.95 68.95 175.6 79.35 190.25 80.1 187.35 70.85 192.0 61.9 197.0 52.2 209.3 46.2 218.3 41.8 231.75 38.55 243.9 35.65 244.5 36.6 245.2 37.85 242.05 42.5 238.7 47.55 233.7 51.9 242.0 49.25 242.6 49.9 243.1 50.55 239.75 54.55 235.85 59.2 230.0 64.0 L232.45 65.45 Q234.5 66.85 233.5 67.55 231.1 69.15 224.0 69.6 L222.5 71.65 Q226.5 79.15 224.3 86.7 222.05 94.35 214.4 98.4 234.05 100.45 247.55 88.15 M263.8 53.6 Q264.05 76.25 249.1 89.5 234.1 102.85 211.5 99.7 209.55 99.4 209.5 99.1 209.4 98.75 211.55 97.9 214.1 97.0 216.75 94.45 219.8 91.6 221.25 88.15 222.9 84.2 222.9 80.2 222.9 76.2 221.3 72.75 217.45 75.95 210.85 77.3 L209.0 77.15 Q209.35 76.55 211.35 76.1 214.55 75.35 217.95 73.1 220.85 71.15 222.35 69.3 L221.5 69.05 Q221.0 68.75 222.8 68.5 L228.1 67.7 Q231.2 67.15 231.15 66.8 231.1 66.4 227.95 64.45 227.4 64.1 227.55 63.8 L228.75 62.8 Q230.1 61.95 234.85 57.25 239.8 52.3 239.5 51.8 239.35 51.55 236.35 52.6 L231.4 54.3 Q228.6 55.2 230.75 53.35 233.65 50.8 238.55 44.65 243.35 38.55 242.95 38.0 242.35 37.2 231.75 40.05 219.9 43.25 210.95 47.55 197.55 54.05 192.8 64.95 188.9 73.85 192.0 80.65 192.75 82.2 192.45 82.6 L190.75 82.75 Q174.3 80.6 164.1 71.9 153.05 62.55 153.05 48.45 153.05 28.55 167.95 14.85 184.2 0.0 211.05 0.0 236.45 0.0 250.85 16.5 263.8 31.3 263.8 53.6"/><path fill="#0d131a" d="M190.05 77.2 L189.95 75.65 Q195.65 77.05 204.1 77.05 205.55 77.05 205.5 77.4 205.45 77.75 204.3 77.85 201.45 78.15 197.05 77.95 L190.05 77.2"/></g></svg>