<?xml version='1.0' encoding='utf-8'?>
<svg xmlns="http://www.w3.org/2000/svg" version="1.1" width="498px" height="310px" viewBox="-0.4 -0.4 498.0 310.4"><g><path fill="#eef3f6" d="M425.9 18.7 Q453.3 10.4 471.5 6.7 490.75 2.8 491.05 5.9 491.3 8.3 482.65 25.5 473.85 43.05 462.15 63.15 431.2 116.45 418.7 123.0 404.1 130.65 391.55 135.95 377.8 141.7 362.8 146.3 383.25 144.95 400.8 146.4 408.55 147.05 409.35 151.3 410.15 155.7 402.95 162.6 391.85 173.2 375.8 185.55 355.0 201.6 348.0 202.2 338.65 202.9 316.1 199.55 290.9 195.85 277.75 190.55 L262.9 157.05 Q264.65 150.7 270.05 138.2 276.6 122.9 284.45 108.65 306.45 68.65 327.15 57.0 359.85 38.65 425.9 18.7"/><path fill="#cacfd2" d="M277.75 190.55 L262.9 157.05 Q264.5 151.4 268.9 140.9 282.2 150.35 293.2 166.6 301.7 179.25 310.4 198.65 289.1 195.15 277.75 190.55"/><path fill="#adb2b4" d="M147.75 207.45 L156.6 211.0 149.05 217.95 Q140.75 225.05 136.85 225.9 132.55 226.85 128.6 223.6 127.1 222.3 126.75 221.2 126.45 220.05 127.75 219.9 130.2 219.6 137.6 214.85 144.3 210.5 147.75 207.45"/><path fill="#838688" d="M147.75 207.45 L156.6 211.0 150.75 216.5 Q144.05 222.4 139.85 224.7 141.15 218.6 140.0 213.25 145.45 209.5 147.75 207.45"/><path fill="#eef3f6" d="M18.55 98.5 Q9.3 80.9 5.3 68.95 0.7 55.25 4.6 53.2 8.55 51.15 24.2 57.65 38.5 63.6 57.9 74.65 77.1 85.55 92.95 96.7 110.0 108.7 116.6 116.35 L111.2 137.85 Q106.1 159.3 107.4 158.95 L128.35 200.05 Q102.95 198.6 84.85 191.25 69.95 185.2 64.5 177.5 60.65 172.1 72.6 167.5 79.9 164.65 96.75 161.25 59.8 151.15 49.5 144.8 45.25 142.2 36.05 128.3 27.15 114.9 18.55 98.5"/><path fill="#3e4e57" d="M268.1 164.7 Q276.5 178.0 276.5 189.4 L279.6 191.4 Q281.45 193.05 282.8 196.0 276.75 224.65 250.85 234.9 238.15 239.95 215.45 240.6 183.15 232.0 156.45 211.95 L230.95 131.1 Q256.25 146.0 268.1 164.7"/><path fill="#27333a" d="M276.95 212.2 Q267.15 230.4 245.0 236.9 234.3 240.05 215.45 240.6 183.15 232.0 156.45 211.95 L225.2 137.35 Q255.7 166.8 276.95 212.2"/><path fill="#3e4e57" d="M282.95 238.9 Q280.3 244.25 276.5 245.15 L265.15 246.4 Q255.15 246.85 244.05 245.8 268.7 238.4 286.25 226.5 285.3 234.05 282.95 238.9"/><path fill="#27333a" d="M276.5 245.15 L265.15 246.4 Q255.15 246.85 244.05 245.8 265.7 239.25 281.65 229.45 L283.9 236.6 Q281.1 244.1 276.5 245.15"/><path fill="#ffe792" d="M285.85 207.3 Q287.45 216.4 286.25 226.5 279.2 236.2 265.8 241.05 257.7 244.0 244.05 245.8 229.3 244.3 215.45 240.6 L235.4 238.05 Q247.2 236.05 255.4 232.35 277.3 222.5 282.8 196.0 284.6 200.15 285.85 207.3"/><path fill="#dbc77f" d="M278.35 211.4 Q279.9 213.75 281.45 220.1 283.1 226.6 284.4 228.8 277.25 237.15 264.55 241.45 256.95 244.05 244.05 245.8 229.3 244.3 215.45 240.6 L232.25 238.55 Q242.7 237.0 250.2 234.55 270.9 227.85 278.35 211.4"/><path fill="#adb2b4" d="M121.7 221.85 Q123.85 218.45 127.35 219.95 132.4 222.1 134.9 226.4 L141.25 240.35 Q146.3 251.6 158.0 268.25 170.4 285.8 176.2 288.8 L177.7 288.95 Q182.2 293.35 183.95 295.45 L183.75 295.9 Q182.2 299.9 176.25 302.0 170.35 304.1 162.4 303.5 L151.4 302.1 Q146.5 301.0 143.05 298.3 135.95 292.8 128.35 273.25 119.0 249.25 119.4 232.45 119.55 225.2 121.7 221.85"/><path fill="#838688" d="M154.25 288.6 Q154.7 278.15 147.85 252.55 155.0 264.55 163.0 275.0 171.8 286.55 176.2 288.8 L177.7 288.95 Q182.2 293.35 183.95 295.45 L183.75 295.9 Q182.2 299.9 176.25 302.0 170.35 304.1 162.4 303.5 L153.3 302.5 Q149.05 301.75 146.1 300.25 153.85 298.85 154.25 288.6"/><path fill="#dbc77f" d="M183.95 295.45 Q182.2 293.35 177.7 288.95 L186.85 287.5 183.95 295.45"/><path fill="#e85377" d="M7.5 73.05 L20.95 77.3 Q31.05 80.55 34.35 82.0 32.35 85.35 18.75 97.95 L12.5 85.9 Q6.45 73.7 7.5 73.05"/><path fill="#e85377" d="M34.0 124.1 L18.75 97.95 34.1 101.65 Q47.15 104.95 49.9 105.9 47.95 108.85 34.0 124.1"/><path fill="#e85377" d="M49.5 144.8 L34.0 124.1 63.5 131.4 49.5 144.8"/><path fill="#e85377" d="M482.15 25.0 Q480.85 29.0 468.6 53.5 L447.35 33.95 Q450.1 32.8 465.25 29.0 L482.15 25.0"/><path fill="#e85377" d="M450.0 84.0 L428.45 66.45 467.9 51.85 450.0 84.0"/><path fill="#e85377" d="M408.75 113.25 L400.65 106.55 Q447.05 86.35 450.0 84.0 448.0 89.2 437.55 103.3 425.35 119.75 418.85 122.15 417.2 120.3 408.75 113.25"/><path fill="#0d131a" d="M2.5 50.25 Q6.8 48.0 23.1 54.9 37.75 61.05 57.9 72.75 77.45 84.05 93.8 95.7 111.15 108.0 117.6 115.5 L115.65 117.15 Q108.95 109.35 91.95 97.4 76.3 86.45 57.25 75.6 38.2 64.8 24.15 58.85 8.85 52.45 5.2 54.35 4.2 54.8 4.1 57.15 3.7 69.25 23.4 104.7 31.35 119.1 38.9 130.15 46.7 141.55 50.15 143.7 57.2 148.0 78.5 154.65 89.2 157.95 98.7 160.45 L98.05 162.9 Q87.9 160.25 77.2 156.9 56.1 150.35 48.8 145.9 45.0 143.55 36.75 131.6 28.75 120.0 20.3 104.95 -0.4 68.0 0.05 55.3 0.15 51.5 2.5 50.25"/><path fill="#0d131a" d="M7.95 74.45 L6.65 71.95 Q16.45 74.05 39.05 82.15 64.85 91.4 68.85 95.7 72.85 99.95 87.95 120.8 103.1 141.7 103.9 144.1 L102.95 147.7 Q102.25 145.7 87.1 124.35 71.6 102.6 67.55 98.25 63.85 94.25 39.7 85.0 17.4 76.5 7.95 74.45"/><path fill="#0d131a" d="M18.7 97.05 L34.25 82.4 35.4 82.7 29.7 89.2 22.6 97.0 47.6 103.95 Q73.0 111.45 82.85 116.4 L83.75 119.15 Q73.6 113.75 55.55 108.25 45.2 105.1 28.1 100.85 L19.1 98.55 18.7 97.05"/><path fill="#0d131a" d="M48.85 106.0 L50.05 106.25 37.35 123.35 63.6 129.6 Q89.8 136.3 100.05 141.3 L100.25 143.3 Q91.25 139.15 74.6 134.7 L47.6 128.3 34.15 125.15 33.75 123.8 48.85 106.0"/><path fill="#0d131a" d="M48.9 144.2 L62.65 131.3 63.85 131.6 51.85 145.5 48.9 144.2"/><path fill="#0d131a" d="M157.55 211.95 L151.0 218.0 Q143.55 224.35 136.8 227.8 L135.2 226.5 Q133.75 225.1 134.2 225.0 137.2 224.4 144.2 219.55 150.5 215.15 154.3 211.5 L147.95 208.95 139.6 215.05 Q133.7 218.95 130.2 220.4 129.85 220.1 128.55 219.75 127.25 219.4 126.85 219.1 129.35 218.55 136.6 213.9 143.55 209.45 146.85 206.5 L157.55 211.95"/><path fill="#0d131a" d="M73.9 168.05 Q66.1 170.8 64.95 173.7 64.45 175.15 65.55 176.75 70.85 184.75 84.95 190.4 101.4 197.0 125.6 198.4 L127.9 200.1 Q102.5 199.0 84.15 192.1 68.05 186.05 62.5 177.75 60.6 174.9 61.65 172.3 63.1 168.6 71.55 165.75 74.6 164.75 87.3 161.7 L92.25 160.5 92.9 162.95 87.9 164.2 Q78.45 166.45 73.9 168.05"/><path fill="#0d131a" d="M74.7 185.9 L72.35 184.85 Q78.0 181.75 84.55 180.0 88.9 178.8 94.7 178.0 L95.0 177.95 95.3 180.55 85.85 181.85 Q79.95 183.0 74.7 185.9"/><path fill="#0d131a" d="M111.95 189.95 L112.95 189.85 113.1 191.5 112.45 192.1 106.15 192.7 Q102.55 193.4 98.55 195.65 L96.95 194.55 Q101.4 192.05 105.2 191.0 107.95 190.25 111.95 189.95"/><path fill="#0d131a" d="M230.3 132.2 L231.6 129.95 Q276.8 155.65 277.75 188.65 281.25 190.55 283.3 193.5 286.75 198.45 288.35 207.95 289.3 213.45 289.0 219.65 288.25 232.4 286.8 237.7 284.6 245.6 279.35 246.85 273.45 248.25 262.0 248.4 246.9 248.65 231.4 246.15 186.85 239.0 155.65 213.0 L158.95 212.1 Q189.25 234.5 230.9 242.0 245.8 244.65 259.7 244.95 270.95 245.15 276.2 243.9 281.8 242.55 284.3 230.65 286.6 219.35 284.6 207.5 283.1 198.65 280.65 194.7 279.2 192.4 276.4 190.85 L275.2 189.4 Q275.2 179.75 268.8 168.3 257.55 148.25 230.3 132.2"/><path fill="#0d131a" d="M286.05 220.1 L287.05 223.5 Q285.45 228.05 284.65 229.45 282.65 233.15 278.8 235.8 268.4 243.1 241.3 245.5 L238.5 243.9 Q264.5 241.6 276.4 233.15 283.2 228.35 286.05 220.1"/><path fill="#0d131a" d="M281.6 195.35 L283.3 196.25 Q283.1 202.15 280.9 208.2 277.5 217.5 269.95 224.5 260.0 233.65 246.85 237.4 233.05 241.35 212.5 240.4 L208.45 237.95 Q249.55 239.85 268.2 222.6 275.3 216.05 278.9 206.95 281.45 200.6 281.6 195.35"/><path fill="#0d131a" d="M256.45 216.15 L258.25 218.0 Q245.85 229.8 216.45 231.55 205.3 232.2 194.45 231.15 184.7 230.25 179.85 228.5 L180.7 226.1 Q185.4 227.8 194.85 228.7 205.4 229.7 216.15 229.1 244.55 227.5 256.45 216.15"/><path fill="#0d131a" d="M275.6 187.65 Q276.15 184.55 276.85 187.1 L277.45 190.25 Q274.85 201.35 268.05 210.4 260.5 220.55 250.5 223.85 239.9 227.4 225.55 226.45 216.25 225.8 198.8 222.4 L195.5 230.85 193.2 229.7 Q194.55 226.95 196.2 220.7 L197.6 219.8 Q214.2 223.05 224.9 223.6 239.7 224.4 250.2 220.85 259.2 217.85 267.2 206.25 274.1 196.2 275.6 187.65"/><path fill="#0d131a" d="M181.4 208.9 L183.45 207.35 Q185.25 209.75 190.65 214.25 195.9 218.6 198.8 220.2 L197.55 222.45 Q194.45 220.75 189.0 216.2 183.3 211.5 181.4 208.9"/><path fill="#0d131a" d="M496.0 1.6 Q497.6 3.5 496.15 7.1 483.5 38.55 458.25 77.7 433.5 116.15 422.2 122.75 408.15 130.95 394.25 136.7 382.7 141.5 366.6 146.4 L357.05 146.1 Q372.65 141.35 390.05 134.4 408.95 126.9 418.8 121.2 426.3 116.85 436.55 102.25 444.85 90.4 460.85 62.8 472.85 42.15 481.65 24.6 489.5 9.0 489.75 6.2 487.35 4.55 468.3 8.75 449.45 12.95 423.85 20.7 360.1 40.0 327.8 58.1 307.55 69.45 285.6 109.35 277.8 123.5 271.2 138.75 265.85 151.15 264.1 157.4 L262.15 153.75 Q264.15 146.55 269.2 134.45 275.45 119.5 282.95 105.8 303.75 67.7 324.5 56.05 356.1 38.35 408.85 20.5 461.2 2.85 489.75 0.05 494.3 -0.4 496.0 1.6"/><path fill="#0d131a" d="M459.8 29.3 Q477.25 24.7 481.6 24.25 L481.8 25.9 Q477.35 26.35 460.0 31.15 440.5 36.55 421.05 43.15 366.6 61.6 356.75 74.1 345.5 88.45 332.85 110.6 320.65 132.05 318.65 140.25 L312.75 143.25 Q314.75 135.05 328.6 111.15 342.75 86.85 354.2 72.25 364.55 59.1 420.25 40.95 439.85 34.55 459.8 29.3"/><path fill="#0d131a" d="M448.85 83.15 L449.8 84.5 Q440.65 90.9 372.75 119.75 300.7 150.4 266.1 161.25 L264.9 158.7 Q302.0 145.95 373.0 116.6 441.55 88.2 448.85 83.15"/><path fill="#0d131a" d="M446.45 34.55 L449.1 34.25 469.6 51.0 467.05 53.55 Q452.7 58.25 398.25 80.15 366.3 93.0 334.0 106.3 L337.5 101.35 Q355.15 94.15 398.3 77.45 449.1 57.75 465.25 52.4 L446.45 34.55"/><path fill="#0d131a" d="M427.1 67.45 L429.25 66.8 451.25 80.6 449.8 84.5 427.1 67.45"/><path fill="#0d131a" d="M399.5 107.1 L401.0 106.15 411.05 112.6 Q419.9 118.7 420.75 121.7 L417.9 123.2 Q417.25 120.85 410.1 115.0 L399.5 107.1"/><path fill="#0d131a" d="M404.35 163.9 Q392.85 174.95 377.95 186.75 356.75 203.55 349.4 204.15 340.2 204.9 318.65 201.9 294.05 198.5 280.7 193.15 L277.9 189.5 Q291.1 194.75 316.5 198.4 339.05 201.6 347.9 200.9 354.5 200.35 374.6 184.9 390.7 172.55 402.05 161.65 405.45 158.4 407.05 155.6 408.55 152.85 407.95 151.05 406.95 148.25 400.7 147.7 346.1 143.05 268.35 165.5 L267.65 163.05 Q306.85 151.7 340.65 147.0 375.0 142.25 402.2 144.55 406.65 144.95 409.3 146.6 411.4 147.95 412.05 149.75 412.95 152.3 410.75 156.15 408.75 159.75 404.35 163.9"/><path fill="#0d131a" d="M397.0 166.45 L396.95 168.1 Q374.9 167.55 348.8 168.1 296.7 169.15 273.55 174.4 L272.9 171.55 Q296.15 166.25 348.55 165.8 374.85 165.6 397.0 166.45"/><path fill="#0d131a" d="M368.45 190.35 L365.8 193.05 Q322.35 186.8 319.2 185.35 317.3 184.5 312.55 176.25 L308.15 168.15 310.35 168.2 314.55 175.35 Q318.95 182.65 320.0 183.1 321.65 183.85 368.45 190.35"/><path fill="#0d131a" d="M140.1 240.85 L137.4 234.7 Q134.45 227.8 132.95 225.75 130.9 222.85 126.85 221.15 124.9 220.35 123.5 221.6 119.95 225.15 120.9 238.15 122.0 253.45 129.55 272.8 137.05 292.05 144.05 297.4 147.35 299.95 152.1 300.95 L162.5 302.2 Q170.0 302.75 175.55 300.9 181.15 299.0 182.6 295.35 L183.85 292.8 Q184.85 290.55 184.9 289.2 177.2 290.8 175.6 289.95 169.55 286.85 157.0 269.0 145.2 252.25 140.1 240.85 M121.7 219.8 Q122.95 218.55 125.0 218.15 L128.8 218.4 Q134.6 220.65 138.25 228.4 140.3 232.8 143.55 241.95 147.0 249.65 158.6 266.35 171.4 284.85 176.75 287.65 L180.35 287.4 185.3 286.4 187.9 286.0 Q188.4 286.2 188.2 287.5 187.8 289.85 186.75 292.55 L184.95 296.4 Q183.15 300.9 176.9 303.45 170.45 306.15 162.2 305.5 L150.45 304.1 Q145.15 302.95 141.45 300.25 133.65 294.6 126.05 275.1 118.45 255.65 117.75 239.0 117.15 224.25 121.7 219.8"/><path fill="#0d131a" d="M173.65 288.55 Q171.3 286.75 172.5 286.4 173.7 286.0 176.45 287.55 180.5 289.85 182.2 292.9 183.65 295.5 182.95 297.5 182.35 299.35 179.7 300.9 177.1 302.4 178.95 299.35 180.7 296.5 178.5 293.3 177.15 291.3 173.65 288.55"/><path fill="#ffe792" d="M237.6 134.2 L245.5 136.25 Q253.95 139.05 256.8 142.95 263.0 151.35 262.25 165.1 261.85 172.35 260.95 173.75 259.2 176.35 253.05 173.0 247.6 170.05 242.8 161.45 L235.95 149.6 228.45 125.0 Q232.35 128.0 239.3 138.75 246.05 149.15 246.4 152.15 246.7 155.1 249.3 157.0 251.95 158.9 252.25 155.9 252.55 152.8 251.2 148.9 249.85 145.1 247.65 142.55 245.8 140.45 243.0 139.0 L240.55 137.95 237.6 134.2"/><path fill="#dbc77f" d="M228.45 125.0 Q232.35 128.0 239.3 138.75 246.05 149.15 246.4 152.15 246.8 155.65 250.75 158.2 254.85 160.9 255.65 155.1 L256.6 146.35 256.55 141.3 Q259.15 145.7 260.85 152.9 262.5 159.95 262.25 165.1 261.85 172.35 260.95 173.75 259.2 176.35 253.05 173.0 247.6 170.05 242.8 161.45 L235.95 149.6 228.45 125.0"/><path fill="#838688" d="M204.55 244.9 Q201.0 245.35 188.9 235.3 180.25 228.2 179.2 224.2 178.25 220.75 182.65 221.25 184.65 221.5 192.2 226.6 L193.45 225.9 Q194.95 225.5 196.25 227.05 L200.25 231.45 Q203.0 234.75 204.7 238.65 207.2 244.6 204.55 244.9"/><path fill="#838688" d="M253.35 242.65 Q248.3 239.8 242.55 234.3 236.75 228.75 233.7 223.8 230.6 218.85 232.0 217.4 233.4 215.95 238.45 218.8 243.5 221.7 249.3 227.2 255.05 232.7 258.15 237.65 261.25 242.6 259.85 244.05 258.4 245.5 253.35 242.65"/><path fill="#ffe792" d="M220.5 101.25 Q223.4 113.9 224.25 115.9 224.9 117.45 228.0 122.6 231.0 127.5 232.55 131.4 237.75 144.1 235.45 161.15 232.4 183.45 213.1 195.75 206.6 199.85 198.1 202.9 L187.15 206.35 Q184.55 211.2 170.15 212.45 155.9 213.7 151.6 209.8 133.25 207.05 120.4 198.65 105.7 189.05 101.3 173.85 97.2 159.65 105.95 138.4 108.65 131.75 112.35 125.2 L115.5 120.0 Q116.9 114.65 118.75 108.9 122.45 97.3 124.65 95.1 126.45 93.3 132.45 100.9 138.65 108.85 140.95 107.8 153.75 101.95 175.8 104.05 186.85 105.1 195.3 107.3 L203.55 100.35 Q212.45 93.35 215.6 93.05 218.6 92.75 220.5 101.25"/><path fill="#dbc77f" d="M224.25 115.9 Q224.9 117.45 228.0 122.6 231.0 127.5 232.55 131.4 237.75 144.1 235.45 161.15 232.4 183.45 213.1 195.75 206.6 199.85 198.1 202.9 L187.15 206.35 Q185.0 210.4 173.75 212.05 162.95 213.65 155.6 211.65 161.3 206.75 162.6 201.8 164.15 196.0 160.65 187.45 162.3 186.5 166.9 185.2 L175.3 182.8 Q185.7 179.5 184.95 175.65 183.2 168.05 182.45 157.05 181.75 146.2 182.9 145.05 190.25 137.7 199.75 123.45 210.6 107.15 217.3 91.75 218.45 94.0 220.65 103.2 222.95 112.9 224.25 115.9"/><path fill="#dbc77f" d="M157.65 103.8 Q143.65 110.4 135.15 129.75 133.2 134.2 130.8 140.3 129.15 143.75 127.9 141.3 123.9 133.85 123.75 113.95 123.7 107.3 124.1 100.85 124.4 95.35 124.65 95.1 126.45 93.3 132.45 100.9 138.65 108.85 140.95 107.8 147.85 104.65 157.65 103.8"/><path fill="#3e4e57" d="M171.0 146.0 Q169.5 152.3 164.15 155.55 173.15 155.4 186.45 157.4 196.65 158.95 203.15 160.65 203.4 164.1 202.6 181.2 192.9 178.8 176.7 177.7 144.25 175.5 111.55 182.0 109.5 179.0 110.05 170.35 L111.0 162.25 Q113.55 161.0 121.15 159.4 L134.25 157.15 Q128.75 150.9 133.25 141.25 137.7 131.85 146.5 129.4 153.9 127.35 159.7 128.4 166.6 129.7 169.75 135.25 172.45 140.05 171.0 146.0"/><path fill="#27333a" d="M133.25 141.25 Q137.7 131.85 146.5 129.4 157.0 126.45 163.8 129.75 158.95 128.95 152.95 130.35 146.6 131.9 142.1 135.35 130.65 144.15 138.8 158.3 139.75 159.85 132.2 161.65 118.05 164.95 110.3 167.55 L111.0 162.25 Q113.55 161.0 121.15 159.4 L134.25 157.15 Q128.75 150.9 133.25 141.25"/><path fill="#27333a" d="M194.55 163.4 Q188.9 160.6 176.3 156.15 L192.2 158.35 Q198.9 159.55 203.15 160.65 L203.05 169.95 Q201.25 166.7 194.55 163.4"/><path fill="#838688" d="M162.95 191.25 Q161.65 187.8 163.05 187.1 L175.25 186.1 203.15 184.15 Q210.0 183.35 215.2 185.4 220.2 187.45 219.45 190.35 218.35 194.8 207.9 199.85 197.5 204.85 186.05 206.6 175.9 208.15 167.45 198.4 164.25 194.75 162.95 191.25"/><path fill="#adb2b4" d="M135.55 187.6 Q135.1 191.05 141.65 199.9 148.7 209.45 155.35 212.2 145.9 210.15 135.6 206.35 114.95 198.8 110.75 190.0 L122.2 188.6 135.55 187.6"/><path fill="#838688" d="M142.9 201.55 Q149.45 209.75 155.35 212.2 145.45 210.05 134.9 206.1 139.9 204.7 142.9 201.55"/><path fill="#838688" d="M240.25 188.6 Q240.95 189.15 250.85 201.25 259.45 211.8 261.5 211.3 262.75 211.0 262.95 212.05 263.1 213.1 262.25 214.65 260.0 218.7 255.65 219.35 251.7 219.95 244.7 208.45 241.55 203.25 237.55 194.95 236.0 191.7 236.9 189.2 237.8 186.65 240.25 188.6"/><path fill="#ffe792" d="M231.15 296.85 L229.25 294.05 Q234.85 292.65 237.3 291.5 237.15 296.05 238.55 301.9 233.95 300.05 231.15 296.85"/><path fill="#adb2b4" d="M258.3 213.5 Q261.1 210.85 265.05 212.55 269.1 214.25 272.7 219.95 281.55 233.9 281.25 258.9 281.05 280.15 276.55 289.0 272.9 296.2 261.0 303.2 254.25 307.15 248.5 307.0 242.4 306.85 239.05 302.1 L238.55 301.9 Q237.15 296.05 237.3 291.5 L238.35 290.8 Q242.7 286.0 248.1 265.2 253.2 245.5 253.95 233.15 254.0 222.4 254.2 220.05 254.5 217.1 258.3 213.5"/><path fill="#838688" d="M258.3 213.5 Q261.1 210.85 265.05 212.55 269.1 214.25 272.7 219.95 281.55 233.9 281.25 258.9 281.05 280.15 276.55 289.0 272.9 296.2 261.0 303.2 254.25 307.15 248.5 307.0 242.4 306.85 239.05 302.1 L238.55 301.9 Q237.15 296.05 237.3 291.5 L238.35 290.8 Q242.7 286.0 248.1 265.2 253.2 245.5 253.95 233.15 254.0 222.4 254.2 220.05 254.5 217.1 258.3 213.5"/><path fill="#adb2b4" d="M249.85 258.05 Q259.1 261.65 258.2 278.85 257.45 293.2 251.25 306.85 243.25 307.95 239.05 302.1 L238.55 301.9 Q237.15 296.05 237.3 291.5 L238.35 290.8 Q241.0 287.9 244.25 278.25 247.25 269.55 249.85 258.05"/><path fill="#0d131a" d="M249.9 155.25 Q250.5 155.95 251.0 154.8 251.5 153.65 250.0 149.65 248.45 145.5 246.65 143.4 244.65 141.1 241.4 139.65 L245.25 145.75 247.6 150.4 Q249.25 154.45 249.9 155.25 M232.6 133.35 L229.2 124.0 238.65 132.4 Q241.8 132.9 245.65 134.35 253.05 137.2 257.85 142.2 261.2 145.65 262.4 149.85 263.7 154.2 263.6 162.4 263.5 175.8 259.25 177.4 257.15 178.15 252.2 175.15 246.95 172.0 241.3 162.3 236.5 152.8 235.75 151.95 L235.45 145.95 Q236.25 146.9 242.05 157.6 248.55 168.55 253.7 171.9 257.6 174.45 259.4 171.1 260.8 168.5 261.15 161.5 261.55 151.65 255.8 143.7 253.75 140.95 248.1 138.3 242.8 135.85 240.8 136.2 L241.3 136.85 Q245.6 138.3 248.6 141.7 250.8 144.2 252.2 147.9 253.55 151.5 253.55 154.8 L253.25 157.3 Q252.6 159.35 250.9 158.9 249.05 158.4 247.45 156.15 246.2 154.3 245.3 151.65 243.75 147.2 240.15 141.9 236.35 136.25 232.6 133.35"/><path fill="#0d131a" d="M199.3 231.7 L195.9 227.5 Q194.85 226.8 194.05 226.85 L193.45 227.0 202.35 235.8 199.3 231.7 M204.5 243.6 Q205.0 243.6 205.15 243.0 205.45 242.05 204.6 239.9 L195.35 231.55 Q187.35 224.35 182.5 222.55 L181.05 222.45 180.35 222.95 Q180.0 223.95 181.8 226.4 184.2 229.75 189.7 234.3 197.6 240.85 201.75 242.9 203.9 243.9 204.5 243.6 M205.9 238.15 Q208.35 243.95 206.05 245.65 204.45 246.85 201.2 245.4 196.7 243.45 188.05 236.3 176.1 226.4 178.0 221.95 179.05 219.6 182.8 220.0 184.95 220.25 192.2 225.05 193.15 224.5 194.1 224.55 195.85 224.55 197.2 226.25 L198.85 228.0 202.35 232.05 Q204.5 234.9 205.9 238.15"/><path fill="#0d131a" d="M252.9 240.9 L252.55 243.7 Q247.15 240.55 241.65 235.2 237.6 231.3 234.25 226.4 231.1 221.7 230.3 218.7 229.35 215.15 233.25 215.65 236.15 216.1 241.1 219.2 246.0 222.25 250.2 226.25 L253.3 229.45 253.3 233.25 Q251.05 230.6 244.7 225.4 236.5 218.65 232.9 218.3 L232.85 218.7 Q232.25 220.75 241.55 230.35 250.05 239.1 252.9 240.9"/><path fill="#0d131a" d="M218.25 97.85 Q217.05 94.2 215.75 94.35 213.55 94.6 206.0 100.1 199.65 104.8 197.45 107.0 L195.3 108.55 192.95 108.25 Q184.6 105.9 173.85 105.0 154.0 103.25 141.45 108.95 139.3 109.9 136.55 107.55 134.9 106.15 131.45 101.75 127.0 96.0 125.75 95.9 125.65 95.9 125.6 96.0 123.95 97.65 121.1 105.9 118.85 112.45 116.75 120.3 L116.7 120.5 116.6 120.7 113.45 126.0 Q109.8 132.45 107.1 139.0 98.6 159.8 102.55 173.5 107.5 190.6 124.3 199.95 135.2 206.0 149.6 208.1 L152.5 209.5 Q154.55 211.3 161.2 211.55 L174.75 210.6 Q179.15 209.8 182.2 208.5 185.25 207.2 186.05 205.75 L186.25 205.3 189.4 204.35 Q205.55 199.6 214.7 193.15 231.35 181.35 234.15 160.95 236.05 147.1 232.95 136.4 231.2 130.25 226.15 122.0 L223.1 116.45 Q221.65 113.15 220.05 105.2 L218.25 97.85 M217.1 90.35 Q219.9 90.05 221.1 94.15 221.85 96.6 222.95 103.65 L224.0 109.85 Q224.65 113.6 225.45 115.4 L228.35 120.7 235.05 131.75 Q239.0 140.1 239.3 151.0 239.35 153.45 237.9 164.25 235.05 185.0 212.65 198.1 201.4 204.7 190.4 207.2 189.9 209.45 186.1 211.2 182.15 213.05 175.6 213.8 L160.2 214.6 Q153.85 214.05 150.2 210.7 130.1 207.7 117.15 198.25 104.25 188.8 100.05 174.2 98.7 169.6 98.7 164.1 98.7 151.2 106.0 134.9 109.8 126.45 114.35 119.45 116.0 112.4 117.6 106.65 120.75 95.5 123.05 93.2 124.6 91.55 125.6 91.6 127.05 91.7 129.35 94.6 L133.5 100.15 Q139.0 107.25 140.4 106.6 152.8 100.95 173.25 102.45 184.6 103.3 194.95 105.85 200.35 101.1 205.3 97.3 213.95 90.65 217.1 90.35"/><path fill="#0d131a" d="M125.75 138.6 Q122.75 132.65 122.45 118.0 122.2 105.2 123.5 100.95 124.45 97.95 124.95 98.35 125.4 98.65 125.15 101.25 124.5 109.25 124.55 116.3 124.6 130.4 127.2 137.8 128.6 141.75 127.7 141.35 126.95 140.95 125.75 138.6"/><path fill="#0d131a" d="M213.1 97.2 Q214.1 96.0 214.6 96.4 215.15 96.75 214.55 98.05 L209.45 107.95 Q203.8 118.55 199.95 124.85 191.2 139.25 185.75 143.4 183.35 145.2 182.8 144.8 182.25 144.3 184.75 142.1 187.2 139.9 195.9 126.3 204.15 113.4 209.25 104.15 L210.65 101.3 Q212.25 98.25 213.1 97.2"/><path fill="#0d131a" d="M111.15 166.8 L111.8 180.65 Q110.8 178.35 110.8 173.65 110.8 170.05 111.15 166.8 L110.95 162.1 Q113.85 160.65 120.55 158.9 127.1 157.15 132.2 156.4 130.7 154.2 130.15 151.95 129.3 148.5 130.35 144.1 131.6 138.65 135.85 134.4 140.0 130.3 146.2 127.95 154.25 124.9 161.8 127.2 169.05 129.4 171.75 135.15 174.55 141.2 172.75 146.95 171.3 151.45 167.75 154.55 176.85 154.7 188.85 156.4 198.25 157.8 203.6 159.15 L203.9 160.0 204.0 162.9 203.45 181.25 203.4 182.25 202.4 182.0 195.55 181.4 176.5 179.45 Q143.4 177.2 111.9 183.5 L111.8 180.65 112.0 181.1 Q141.95 175.2 172.2 176.65 189.25 177.45 201.8 180.15 202.35 169.15 202.35 162.85 L202.3 161.3 Q196.95 160.0 185.65 158.6 172.75 157.05 164.05 157.05 162.65 157.05 162.4 156.6 162.05 156.0 163.7 154.85 168.1 151.75 169.65 146.0 171.2 140.3 168.8 136.1 165.45 130.1 157.7 129.2 152.5 128.6 146.75 130.2 142.15 131.5 138.25 135.5 134.4 139.45 132.9 144.5 132.2 147.0 132.2 149.15 132.2 151.1 133.25 153.6 134.05 155.65 134.85 156.6 L136.1 158.0 Q136.4 158.65 134.5 158.85 129.55 159.35 121.95 161.05 114.25 162.75 111.55 163.95 L111.15 166.8"/><path fill="#0d131a" d="M182.05 183.95 Q185.0 183.8 194.35 183.75 L202.95 183.35 203.3 184.95 183.8 186.3 165.75 187.35 Q164.3 187.45 163.85 188.1 163.4 188.8 164.05 190.4 166.45 196.35 172.85 201.0 180.2 206.35 187.45 205.2 190.4 204.7 188.65 206.0 L186.3 207.35 Q178.95 209.75 171.55 204.1 164.8 199.0 160.8 189.8 159.8 187.4 160.6 186.2 160.9 185.8 162.2 185.15 163.25 184.6 168.3 184.4 L182.05 183.95"/><path fill="#0d131a" d="M111.6 191.35 L110.65 188.85 Q113.9 187.95 121.75 187.05 L131.9 186.1 Q134.5 186.0 135.2 186.65 135.75 187.2 136.8 190.55 138.2 194.8 143.55 201.3 150.05 209.15 156.35 211.8 L152.35 212.1 Q145.8 209.4 139.2 200.85 133.2 193.05 132.65 188.4 L121.75 189.35 Q115.15 190.35 111.6 191.35"/><path fill="#0d131a" d="M117.4 196.7 L125.3 197.8 139.45 198.7 141.75 201.0 127.4 200.2 120.65 198.85 117.4 196.7"/><path fill="#0d131a" d="M166.8 197.5 Q177.1 196.75 189.0 194.45 200.9 192.15 207.45 189.65 L209.85 190.55 Q202.25 193.45 191.45 196.0 178.85 198.95 168.95 199.65 L166.8 197.5"/><path fill="#0d131a" d="M236.5 195.65 L236.4 195.5 Q234.6 191.7 235.2 188.0 235.9 183.6 241.05 187.55 245.5 191.0 249.45 195.95 252.95 200.3 257.95 205.5 262.75 210.45 264.5 211.35 L263.4 211.3 Q261.1 211.35 260.35 211.8 258.4 210.75 254.95 206.9 L246.65 196.85 242.45 192.2 239.45 189.6 Q238.3 188.7 238.05 190.6 237.85 192.5 238.75 194.4 L238.8 194.55 Q243.7 204.95 248.0 211.2 251.8 216.75 254.3 217.85 253.8 219.0 253.65 220.3 246.85 217.75 236.5 195.65"/><path fill="#0d131a" d="M252.55 221.35 Q252.7 213.85 256.6 211.2 260.05 208.9 265.65 211.35 272.7 214.4 277.65 226.25 283.35 239.9 283.15 259.05 282.9 281.0 278.6 290.1 274.9 297.95 263.15 304.9 255.35 309.45 249.25 309.35 242.35 309.25 238.3 303.2 234.6 301.95 231.0 298.65 227.9 295.8 227.45 294.25 227.15 293.2 227.55 293.05 L230.5 292.4 234.4 291.25 237.45 289.95 Q241.25 282.65 246.3 263.25 251.1 244.85 252.65 233.05 L252.55 221.35 M255.65 217.8 Q255.45 218.5 255.45 222.15 L255.45 226.05 255.25 233.2 Q254.5 245.7 249.35 265.55 243.9 286.65 239.35 291.7 238.1 293.0 231.2 294.9 233.85 298.85 239.5 300.9 L239.85 301.05 241.0 301.8 Q246.85 310.0 260.35 302.1 271.85 295.35 275.4 288.3 279.75 279.7 280.0 258.9 280.2 239.8 274.8 226.8 270.4 216.25 264.6 213.7 260.35 211.95 258.35 213.8 256.1 215.95 255.65 217.8"/><path fill="#0d131a" d="M236.05 295.55 Q236.1 291.75 237.45 289.85 239.05 287.55 240.95 286.45 242.95 285.3 241.45 288.25 239.35 292.45 239.15 295.2 238.8 299.4 241.9 302.9 243.9 305.15 241.2 304.3 238.55 303.4 237.3 301.4 236.0 299.3 236.05 295.55"/><path fill="#e85377" d="M116.55 169.6 Q117.05 178.15 113.3 184.45 109.55 190.7 103.8 191.0 98.05 191.35 93.6 185.5 89.2 179.7 88.7 171.15 88.25 162.6 92.0 156.35 95.75 150.05 101.5 149.75 107.25 149.4 111.65 155.25 116.05 161.05 116.55 169.6"/><path fill="#c94768" d="M116.55 169.6 Q117.05 178.15 113.3 184.45 109.55 190.7 103.8 191.0 103.0 191.05 99.85 189.5 L95.95 187.6 Q104.25 189.55 110.35 183.15 115.6 177.6 116.55 169.6"/><path fill="#e85377" d="M228.2 155.15 Q232.65 161.85 232.1 170.95 231.55 180.0 226.3 186.2 221.0 192.4 214.15 192.05 207.3 191.7 202.85 185.05 198.4 178.4 198.95 169.3 199.5 160.2 204.8 154.0 210.05 147.8 216.9 148.15 223.75 148.5 228.2 155.15"/><path fill="#c94768" d="M229.5 157.45 Q232.6 163.5 232.1 170.95 231.55 180.0 226.3 186.2 221.0 192.4 214.15 192.05 208.1 191.75 203.85 186.35 208.9 189.1 214.0 186.5 218.8 184.05 222.0 177.95 225.2 171.7 225.25 164.35 225.3 156.2 221.35 149.25 226.5 151.5 229.5 157.45"/><path fill="#0d131a" d="M110.8 156.2 Q106.75 150.75 101.55 151.05 96.35 151.3 92.95 157.2 89.55 163.1 90.0 171.1 90.45 179.1 94.45 184.55 98.5 190.0 103.7 189.75 108.9 189.45 112.3 183.55 115.7 177.65 115.25 169.65 114.8 161.65 110.8 156.2 M112.85 153.8 Q117.9 159.95 118.4 168.95 118.9 178.0 114.5 185.0 110.15 191.95 103.85 192.3 97.6 192.65 92.75 186.45 87.95 180.3 87.45 171.25 86.95 162.15 91.1 155.3 95.3 148.4 101.55 148.05 107.9 147.7 112.85 153.8"/><path fill="#ffffff" d="M112.15 168.45 Q112.3 172.05 110.65 174.65 109.05 177.3 106.6 177.4 104.15 177.5 102.3 175.05 100.45 172.6 100.3 169.0 100.15 165.4 101.75 162.8 103.35 160.15 105.8 160.05 108.25 159.95 110.1 162.4 111.95 164.85 112.15 168.45"/><path fill="#0d131a" d="M200.25 169.35 Q199.95 174.25 201.3 178.7 202.65 183.2 205.4 186.25 209.2 190.5 214.25 190.75 220.55 191.1 225.4 185.25 230.3 179.4 230.8 170.85 231.15 166.0 229.75 161.5 228.4 157.0 225.65 153.95 221.85 149.7 216.85 149.45 210.5 149.15 205.65 155.0 200.8 160.8 200.25 169.35 M216.95 146.4 Q219.9 146.55 222.95 148.15 225.95 149.75 228.2 152.25 231.3 155.75 232.85 160.65 234.4 165.55 234.05 171.0 233.45 180.65 227.6 187.55 221.7 194.5 214.35 194.1 211.35 193.95 208.5 192.55 205.65 191.15 203.45 188.7 200.35 185.25 198.8 179.95 197.3 174.75 197.7 169.2 198.3 159.55 203.95 152.8 209.65 146.05 216.95 146.4"/><path fill="#ffffff" d="M202.55 169.15 Q202.75 165.35 204.95 162.75 207.2 160.15 210.1 160.25 213.0 160.35 214.9 163.15 216.85 165.95 216.65 169.75 216.45 173.55 214.25 176.15 212.05 178.75 209.15 178.65 206.25 178.55 204.3 175.75 202.35 173.0 202.55 169.15"/></g></svg>