<?xml version='1.0' encoding='utf-8'?>
<svg xmlns="http://www.w3.org/2000/svg" version="1.1" width="345px" height="369px" viewBox="-0.25 -3.55 345.25 369.2"><g><path fill="#8d80bb" d="M7.2 197.1 Q6.45 190.55 10.2 184.05 13.95 177.55 20.45 174.3 27.55 170.7 35.4 172.5 L32.25 225.05 Q21.9 224.7 16.95 216.7 15.4 214.2 14.6 211.2 L14.1 208.75 Q8.05 204.25 7.2 197.1"/><path fill="#7c70a2" d="M15.5 202.0 Q18.9 207.6 25.65 207.8 32.15 208.0 33.55 203.55 L32.25 225.05 Q21.9 224.7 16.95 216.7 15.4 214.2 14.6 211.2 L14.1 208.75 Q7.5 203.85 7.15 195.9 8.3 199.15 10.8 200.95 13.25 202.7 15.5 202.0"/><path fill="#8d80bb" d="M327.55 303.2 Q333.6 308.3 336.3 312.5 339.9 318.05 340.1 325.15 340.55 339.25 326.25 345.6 315.5 350.35 293.2 351.45 285.55 351.85 277.6 351.35 L266.45 350.6 Q255.95 350.2 246.25 355.8 234.55 362.6 217.5 362.1 201.6 361.6 186.8 355.2 173.8 349.55 164.5 350.1 157.9 350.55 144.25 355.8 126.2 362.8 110.6 360.65 104.7 359.85 97.6 357.55 L85.45 353.3 Q76.05 350.05 61.8 352.55 L48.85 354.9 33.5 356.45 Q18.25 356.85 10.45 348.0 4.4 341.1 4.1 330.8 3.9 322.6 7.4 315.1 9.75 310.0 15.4 302.65 22.05 294.0 24.05 290.65 28.3 283.55 29.1 276.35 29.6 272.2 30.1 256.65 30.8 235.9 31.5 222.75 34.45 169.45 42.9 117.4 52.1 60.4 83.65 31.1 106.85 9.65 138.65 5.4 206.3 -3.55 244.7 41.45 273.3 75.05 281.3 131.2 284.4 153.0 290.35 214.3 296.6 267.7 305.05 280.75 309.45 287.55 316.25 293.75 320.15 297.3 327.55 303.2"/><path fill="#7c70a2" d="M327.55 303.2 Q333.6 308.3 336.3 312.5 339.9 318.05 340.1 325.15 340.55 339.25 326.25 345.6 315.5 350.35 293.2 351.45 285.55 351.85 277.6 351.35 L266.45 350.6 Q255.95 350.2 246.25 355.8 234.55 362.6 217.5 362.1 201.6 361.6 186.8 355.2 173.8 349.55 164.5 350.1 157.9 350.55 144.25 355.8 126.2 362.8 110.6 360.65 104.7 359.85 97.6 357.55 L85.45 353.3 Q76.05 350.05 61.8 352.55 L48.85 354.9 33.5 356.45 Q18.25 356.85 10.45 348.0 4.4 341.1 4.1 330.8 4.05 328.25 4.35 325.6 L6.15 330.25 Q7.35 333.35 8.95 335.25 13.7 340.9 26.4 341.4 33.15 341.65 38.25 339.6 41.65 338.25 46.7 334.6 52.5 330.4 55.8 328.7 62.0 325.5 69.85 324.1 77.65 322.7 85.35 326.15 88.2 327.4 98.4 333.95 106.45 339.05 112.45 340.35 121.1 342.2 131.0 338.3 140.7 334.45 151.35 335.35 157.6 335.85 169.05 339.0 179.9 341.95 185.05 342.1 193.5 342.35 200.2 337.55 211.05 329.75 225.55 328.4 L251.65 329.3 Q268.65 330.95 276.95 329.95 290.45 328.35 300.05 320.1 306.15 314.85 307.35 307.7 308.3 302.05 306.2 293.95 L301.7 279.75 Q299.1 271.35 299.15 266.0 301.9 275.8 305.05 280.75 309.45 287.55 316.25 293.75 320.15 297.3 327.55 303.2"/><path fill="#8d80bb" d="M98.8 62.0 Q104.05 64.85 108.15 69.2 111.95 73.35 112.95 76.75 L116.1 123.7 Q105.45 134.35 91.55 136.35 77.1 138.45 69.8 129.3 62.45 120.1 65.9 109.35 69.25 98.9 79.8 95.5 66.85 89.75 65.1 79.8 63.3 69.55 74.8 61.75 85.35 54.6 98.8 62.0"/><path fill="#7c70a2" d="M78.45 142.9 Q72.4 139.9 71.0 133.7 68.25 130.25 67.35 128.05 66.35 125.6 66.4 122.15 78.25 131.7 94.85 129.7 107.7 128.2 117.55 121.4 124.1 121.95 124.6 124.8 125.1 127.6 119.85 133.3 115.2 138.4 107.4 141.65 99.9 144.75 92.1 145.2 84.0 145.6 78.45 142.9"/><path fill="#fff095" d="M57.45 94.6 Q63.75 93.2 64.65 98.35 65.5 103.45 60.25 107.0 53.05 111.9 49.4 125.05 47.15 133.1 45.8 147.4 44.85 157.25 38.8 165.3 32.8 173.3 25.7 174.25 22.3 174.7 20.05 173.15 18.0 171.7 17.6 169.1 16.7 162.95 24.1 158.7 28.5 156.2 31.1 149.3 33.45 143.0 34.8 131.75 36.6 116.55 42.3 106.9 48.25 96.65 57.45 94.6"/><path fill="#fff095" d="M184.95 162.45 Q188.95 164.05 190.4 166.6 191.7 168.9 190.55 171.1 189.4 173.25 186.4 174.15 183.1 175.1 178.9 174.0 168.95 171.35 161.75 162.3 154.35 153.05 151.15 138.7 147.05 120.6 144.1 114.8 139.1 104.95 127.55 100.2 123.85 98.7 125.15 94.2 126.45 89.7 131.05 89.7 136.35 89.7 143.1 94.75 150.8 100.45 154.85 109.35 157.3 114.65 160.0 124.35 163.25 135.95 164.6 139.6 170.9 156.9 184.95 162.45"/><path fill="#8d80bb" d="M225.6 171.85 Q234.4 173.15 239.95 179.7 244.9 185.6 245.9 193.8 246.85 201.8 243.55 208.15 240.05 214.95 233.1 216.75 231.3 223.05 226.1 227.25 220.4 231.8 211.2 233.2 200.3 234.85 192.8 231.65 186.25 228.85 182.8 222.65 170.8 224.55 163.15 218.75 156.45 213.75 154.95 204.7 153.5 196.1 157.45 189.0 161.65 181.35 169.9 180.0 L225.6 171.85"/><path fill="#7c70a2" d="M161.65 217.55 Q154.8 211.25 154.6 201.05 157.05 207.05 163.85 210.35 171.35 214.0 178.55 210.95 192.25 221.15 208.85 218.6 225.5 216.1 230.7 202.8 237.8 205.2 241.25 199.0 243.7 194.55 244.0 186.55 247.85 195.85 244.9 204.95 241.85 214.45 233.1 216.75 231.3 223.05 226.1 227.25 220.4 231.8 211.2 233.2 200.3 234.85 192.8 231.65 186.25 228.85 182.8 222.65 169.55 224.75 161.65 217.55"/><path fill="#eb6d80" d="M91.3 48.15 Q92.85 49.75 92.85 52.0 92.85 54.25 91.3 55.85 89.75 57.4 87.55 57.4 85.35 57.4 83.8 55.85 82.25 54.25 82.25 52.0 82.25 49.75 83.8 48.15 85.35 46.55 87.55 46.55 89.75 46.55 91.3 48.15"/><path fill="#eb6d80" d="M164.2 54.85 Q164.2 57.9 162.25 60.05 160.3 62.2 157.5 62.2 154.75 62.2 152.8 60.05 150.85 57.9 150.85 54.85 150.85 51.8 152.8 49.65 154.75 47.5 157.5 47.5 160.3 47.5 162.25 49.65 164.2 51.8 164.2 54.85"/><path fill="#ffffff" d="M87.65 49.25 Q88.25 50.0 88.25 51.0 88.25 52.0 87.65 52.75 87.0 53.45 86.1 53.45 85.25 53.45 84.6 52.75 84.0 52.0 84.0 51.0 84.0 50.0 84.6 49.25 85.25 48.55 86.1 48.55 87.0 48.55 87.65 49.25"/><path fill="#ffffff" d="M158.5 53.1 Q158.5 54.5 157.7 55.45 156.9 56.4 155.8 56.4 154.65 56.4 153.9 55.45 153.1 54.5 153.1 53.1 153.1 51.75 153.9 50.8 154.7 49.85 155.8 49.85 156.9 49.85 157.7 50.8 158.5 51.75 158.5 53.1"/><path fill="#0d131a" d="M6.35 185.4 Q8.1 181.6 12.15 178.0 16.0 174.65 20.6 172.55 21.9 174.4 22.55 174.95 18.55 176.65 15.3 179.9 12.25 182.95 10.5 186.7 8.3 191.5 8.65 196.3 9.05 201.9 13.0 205.85 13.0 202.9 13.35 200.6 14.6 191.7 20.35 185.2 26.45 178.3 33.65 179.1 L33.35 182.1 Q27.65 181.45 22.8 187.6 18.25 193.3 17.1 201.2 16.15 207.65 18.25 213.0 21.7 221.7 32.5 223.55 L32.0 226.5 Q23.55 226.0 18.75 221.3 14.65 217.3 13.45 210.7 6.7 206.35 4.9 199.05 3.2 192.15 6.35 185.4"/><path fill="#0d131a" d="M327.0 298.25 Q335.05 304.8 338.9 310.35 344.25 317.9 344.5 326.65 345.0 341.95 331.25 348.2 321.45 352.7 299.2 353.8 293.5 354.1 284.45 353.55 L272.45 352.65 Q264.3 352.0 260.65 352.6 255.45 353.45 248.5 357.45 234.7 365.4 220.8 365.55 205.65 365.65 184.5 356.85 171.75 351.5 163.95 351.9 157.95 352.2 144.85 357.4 124.0 365.65 110.55 363.7 105.7 363.0 99.75 360.65 L89.4 356.5 84.9 354.9 Q78.75 352.8 69.6 353.7 66.0 354.05 53.55 356.35 L43.5 358.65 Q37.15 360.05 31.7 360.2 24.45 360.4 18.45 358.4 12.45 356.4 8.3 352.5 4.5 348.9 2.3 343.7 0.15 338.5 0.0 332.65 -0.25 323.5 3.95 314.95 6.6 309.5 13.05 301.1 18.4 294.25 20.85 289.8 24.5 283.2 25.25 276.7 25.75 272.2 26.25 256.4 26.75 241.0 28.3 221.25 30.2 197.1 33.15 172.55 L38.05 169.15 Q33.2 215.2 31.85 256.0 31.2 273.05 30.8 276.55 30.0 283.6 26.1 290.5 23.8 294.6 18.1 301.9 11.7 310.2 9.4 314.8 5.55 322.4 5.8 330.75 5.85 334.6 7.1 338.5 8.95 344.35 13.05 348.25 20.3 355.15 33.45 354.75 L45.6 353.7 56.15 351.85 Q66.4 349.95 71.15 349.7 79.1 349.35 86.0 351.7 L90.55 353.35 Q105.1 358.6 113.5 359.3 127.35 360.55 143.65 354.25 157.6 348.85 164.6 348.45 174.15 347.85 187.5 353.65 201.35 359.65 216.5 360.35 233.7 361.15 245.4 354.35 252.85 350.05 259.5 349.2 263.7 348.6 272.7 349.3 284.4 350.2 293.1 349.75 314.7 348.65 324.95 344.35 338.8 338.5 338.4 325.2 338.2 317.6 333.65 311.7 330.9 308.05 322.75 301.45 316.25 296.15 313.05 293.05 307.55 287.65 303.65 281.65 297.0 271.35 291.95 238.95 289.0 219.85 284.65 176.3 281.2 142.6 279.6 131.4 272.35 80.55 247.85 48.05 209.9 -2.3 138.85 7.1 112.45 10.6 90.8 28.1 61.05 52.15 48.7 97.65 48.05 97.95 46.55 99.8 L44.4 101.9 Q51.6 54.95 84.05 26.7 96.7 15.65 111.8 8.85 124.7 3.05 136.35 1.5 170.85 -3.05 198.95 6.1 227.6 15.35 246.8 37.9 263.0 56.95 272.75 83.8 280.1 104.1 283.5 128.0 285.75 143.55 288.95 175.1 293.15 217.4 296.15 236.65 301.05 268.2 307.45 278.1 311.15 283.85 317.05 289.6 320.95 293.4 327.0 298.25"/><path fill="#0d131a" d="M83.0 56.45 Q88.85 56.35 94.75 58.5 108.65 63.5 114.4 76.35 115.8 79.5 114.2 79.7 112.55 79.9 111.55 77.15 110.35 73.9 105.45 69.1 99.65 63.45 93.75 61.3 89.25 59.65 84.85 59.6 78.9 59.55 74.55 62.55 69.8 65.8 67.65 70.05 65.6 74.2 66.45 78.45 68.55 89.5 80.95 93.55 83.75 94.5 83.15 95.65 82.55 96.7 80.25 96.95 77.9 97.2 73.5 101.4 68.6 106.05 67.3 110.35 65.9 115.05 66.8 119.7 67.75 124.4 70.95 128.35 76.0 134.6 85.3 135.15 92.55 135.55 101.4 131.7 109.85 128.0 115.05 122.6 116.6 120.95 117.7 122.0 118.8 123.0 117.15 124.75 109.6 132.7 100.75 136.35 92.6 139.7 84.0 139.25 73.4 138.7 67.5 131.35 62.25 124.8 62.25 116.85 62.25 113.65 63.25 110.4 64.6 105.9 68.35 101.65 72.0 97.6 76.35 95.45 70.9 94.55 66.95 90.2 63.15 86.05 62.1 80.3 61.05 74.3 63.4 68.9 66.05 62.9 72.3 59.2 76.85 56.55 83.0 56.45"/><path fill="#0d131a" d="M62.9 97.75 Q61.8 95.2 57.8 96.1 49.35 98.0 43.75 107.35 38.1 116.75 36.3 131.95 34.85 144.1 32.15 150.75 29.4 157.4 24.85 160.0 21.3 162.05 19.85 164.95 18.55 167.55 19.3 169.75 19.9 171.5 21.55 172.3 23.2 173.1 25.5 172.75 32.15 171.9 37.75 164.2 43.4 156.55 44.3 147.25 45.65 133.1 47.8 125.2 51.65 111.05 59.45 105.75 61.85 104.1 62.8 101.7 63.65 99.45 62.9 97.75 M57.15 93.15 L62.4 93.4 Q64.65 94.3 65.65 96.55 66.9 99.4 65.6 102.75 64.3 106.1 61.1 108.25 54.1 113.05 50.55 126.45 48.55 134.05 47.3 147.55 46.3 158.1 40.6 166.55 34.7 175.3 27.3 176.25 23.8 176.75 20.35 175.25 16.75 173.65 15.85 170.95 14.8 167.75 16.35 164.1 18.1 159.8 22.65 157.25 26.55 155.05 29.6 147.65 32.75 140.05 34.05 129.05 37.8 97.45 57.15 93.15"/><path fill="#0d131a" d="M188.6 166.65 Q187.2 165.0 184.4 163.85 173.15 159.4 167.0 148.6 163.35 142.1 159.25 127.3 156.1 115.7 153.5 109.95 149.6 101.5 142.35 96.0 136.0 91.2 131.05 91.2 129.2 91.2 127.9 92.4 126.8 93.5 126.5 95.1 126.25 96.25 126.6 97.2 127.0 98.35 128.1 98.85 139.8 103.65 145.05 113.4 148.4 119.65 152.15 136.4 L152.6 138.35 Q155.7 152.1 162.7 161.05 169.7 170.0 179.3 172.55 183.2 173.6 186.1 172.7 188.75 171.85 189.4 169.9 189.95 168.3 188.6 166.65 M162.15 126.5 Q166.1 140.9 169.35 146.75 174.85 156.55 185.2 160.65 190.6 162.75 192.15 165.8 193.5 168.5 192.0 172.35 190.75 175.65 186.3 176.55 L177.45 176.1 Q167.35 173.4 159.75 162.45 152.65 152.2 149.25 137.05 145.55 120.75 142.45 115.0 137.7 106.05 126.95 101.6 124.65 100.65 123.7 98.7 122.8 96.85 123.25 94.5 123.75 92.0 125.75 90.2 128.0 88.2 131.05 88.2 136.65 88.2 143.65 93.2 151.85 99.15 156.2 108.7 157.95 112.45 159.55 117.45 L162.15 126.5"/><path fill="#0d131a" d="M169.65 178.5 Q171.7 178.15 171.75 179.65 171.75 181.15 170.15 181.45 165.4 182.5 161.7 186.2 158.75 189.1 157.5 192.4 155.4 198.0 156.35 204.15 157.3 210.3 160.95 214.65 163.8 218.1 168.0 219.9 173.4 222.2 180.55 221.45 176.95 213.45 178.2 204.3 179.45 195.4 184.5 190.2 187.0 187.65 187.85 188.85 188.75 190.0 186.6 192.3 182.75 196.55 181.7 204.5 180.6 213.25 184.1 220.15 187.1 226.15 192.4 229.2 199.7 233.4 211.0 231.7 220.4 230.3 225.8 225.55 229.95 222.0 231.55 216.75 233.6 210.0 230.1 200.5 226.8 191.4 221.45 187.35 219.15 185.6 219.95 184.45 220.75 183.35 223.5 185.15 230.85 190.0 233.9 198.6 236.65 206.35 235.15 214.45 239.95 212.2 242.5 206.85 244.75 202.05 244.6 196.25 244.35 188.35 239.5 182.25 234.3 175.65 225.4 173.35 222.6 172.6 223.0 171.75 223.35 170.9 225.45 171.25 236.1 172.85 242.75 180.45 248.9 187.45 249.2 196.4 249.45 203.4 245.5 209.45 241.3 215.85 234.3 217.95 231.95 225.25 226.65 230.15 220.75 235.6 212.3 236.9 200.45 238.7 191.85 233.9 185.75 230.5 182.05 224.3 174.3 225.35 167.85 223.55 161.1 221.7 157.25 217.05 153.05 212.05 151.9 205.6 150.7 199.0 153.05 192.75 155.0 187.6 160.0 183.4 164.8 179.4 169.65 178.5"/><path fill="#0d131a" d="M90.8 48.7 Q89.45 47.3 87.55 47.3 85.65 47.3 84.3 48.7 82.95 50.05 82.95 52.0 82.95 53.95 84.3 55.35 85.65 56.7 87.55 56.7 89.45 56.7 90.8 55.35 92.15 53.95 92.15 52.0 92.15 50.05 90.8 48.7 M83.15 47.55 Q85.3 45.6 88.0 45.6 90.6 45.6 92.4 47.55 94.1 49.45 94.1 52.0 94.1 54.5 92.2 56.25 90.25 58.0 87.55 58.0 84.85 58.0 82.95 56.25 81.0 54.5 81.0 52.0 81.0 49.55 83.15 47.55"/><path fill="#0d131a" d="M151.55 54.85 Q151.55 57.6 153.3 59.55 155.05 61.5 157.5 61.5 159.95 61.5 161.7 59.55 163.45 57.6 163.45 54.85 163.45 52.1 161.7 50.15 159.95 48.2 157.5 48.2 155.05 48.2 153.3 50.15 151.55 52.1 151.55 54.85 M166.1 54.7 Q166.1 58.1 163.55 60.75 161.0 63.4 157.65 63.4 154.3 63.4 151.75 60.95 149.15 58.5 149.15 55.1 149.15 51.6 151.5 48.95 153.9 46.2 157.2 46.2 160.6 46.2 163.3 48.75 166.1 51.35 166.1 54.7"/><path fill="#0d131a" d="M105.2 269.05 Q97.25 277.75 87.9 286.3 79.85 293.7 76.85 295.6 72.7 298.25 60.35 272.6 L45.6 239.7 Q44.1 236.5 47.9 228.7 51.35 221.7 57.85 213.2 64.2 204.95 70.4 199.2 77.0 193.1 80.5 192.75 88.7 191.95 103.85 209.75 114.5 222.25 123.2 236.65 127.85 244.4 105.2 269.05"/><path fill="#0d131a" d="M212.7 234.95 Q223.3 233.4 229.65 224.85 232.85 220.6 233.9 216.6 239.75 223.55 242.55 228.1 246.4 234.45 248.5 242.3 250.5 249.9 237.0 270.4 224.9 288.65 217.8 294.0 213.05 297.6 193.9 277.0 186.7 269.25 180.25 261.0 174.1 253.15 172.7 250.1 170.3 244.9 174.75 235.75 178.25 228.5 183.05 223.65 L184.5 225.9 Q186.55 228.5 189.45 230.55 198.65 237.0 212.7 234.95"/><path fill="#0d131a" d="M289.2 203.0 L292.95 226.9 Q296.85 252.15 297.6 258.95 L288.8 250.6 Q281.25 243.3 278.95 237.9 277.75 235.05 282.5 220.45 286.8 207.15 289.2 203.0"/><path fill="#ffffff" d="M87.65 49.25 Q88.25 50.0 88.25 51.0 88.25 52.0 87.65 52.75 87.0 53.45 86.1 53.45 85.25 53.45 84.6 52.75 84.0 52.0 84.0 51.0 84.0 50.0 84.6 49.25 85.25 48.55 86.1 48.55 87.0 48.55 87.65 49.25"/><path fill="#ffffff" d="M158.5 53.1 Q158.5 54.5 157.7 55.45 156.9 56.4 155.8 56.4 154.65 56.4 153.9 55.45 153.1 54.5 153.1 53.1 153.1 51.75 153.9 50.8 154.7 49.85 155.8 49.85 156.9 49.85 157.7 50.8 158.5 51.75 158.5 53.1"/></g></svg>