<?xml version='1.0' encoding='utf-8'?>
<svg xmlns="http://www.w3.org/2000/svg" version="1.1" width="241px" height="254px" viewBox="-0.4 -1.1 240.9 253.65"><g><path fill="#f6c8dd" d="M49.55 107.7 Q62.75 102.55 75.4 106.8 73.3 108.6 71.25 111.15 L67.55 116.1 Q58.3 114.7 49.35 120.55 40.85 126.1 36.5 135.4 31.5 146.15 34.45 158.9 37.75 173.35 49.85 178.2 49.1 183.45 50.95 189.1 44.85 188.2 39.3 184.45 32.5 179.9 27.55 171.75 22.5 163.5 22.45 151.3 22.45 137.3 29.6 124.75 36.35 112.85 49.55 107.7"/><path fill="#d5adbf" d="M71.6 110.75 L67.55 116.1 Q58.3 114.7 49.35 120.55 40.85 126.1 36.5 135.4 34.05 140.7 33.6 147.45 33.1 154.5 35.0 160.9 34.8 168.4 39.0 175.05 43.15 181.65 49.9 184.8 50.3 187.05 50.95 189.1 44.85 188.2 39.3 184.45 32.5 179.9 27.55 171.75 25.05 167.65 23.7 162.05 22.3 156.1 22.5 149.6 28.9 131.5 40.25 121.9 52.7 111.35 71.6 110.75"/><path fill="#f6c8dd" d="M66.2 119.3 Q64.9 122.9 65.1 129.5 60.9 130.75 57.7 134.7 54.5 138.65 52.6 144.85 50.55 151.5 51.35 158.25 L52.05 172.1 Q51.05 174.1 49.35 179.1 41.95 169.9 41.0 156.5 40.1 143.95 45.1 134.75 49.0 127.55 54.7 123.55 60.05 119.8 66.2 119.3"/><path fill="#d5adbf" d="M48.8 138.85 Q55.0 130.1 65.1 126.85 L65.1 129.5 Q60.9 130.75 57.7 134.7 54.5 138.65 52.6 144.85 50.55 151.5 51.35 158.25 L52.05 172.1 Q51.05 174.1 49.35 179.1 42.8 171.0 41.3 159.4 42.9 147.2 48.8 138.85"/><path fill="#b4a1bc" d="M220.75 106.8 L227.85 106.85 Q231.55 113.5 227.2 111.35 224.9 110.2 220.75 106.8"/><path fill="#b4a1bc" d="M224.8 106.15 L233.2 103.55 Q237.3 111.55 234.05 111.45 231.35 111.4 224.8 106.15"/><path fill="#d0bad9" d="M231.3 105.0 L233.35 100.7 Q235.55 96.2 236.15 95.45 240.5 107.8 238.85 109.6 237.4 111.1 231.3 105.0"/><path fill="#b4a1bc" d="M233.9 99.55 Q235.4 104.3 239.25 107.9 239.2 110.6 237.05 109.65 235.1 108.8 231.3 105.0 L233.9 99.55"/><path fill="#71706d" d="M175.4 72.7 Q183.15 68.0 192.0 65.7 205.95 62.1 214.6 67.85 226.45 75.8 232.7 84.95 240.2 96.0 234.55 103.0 229.45 109.35 220.0 107.95 214.05 107.05 208.55 103.75 L200.5 98.35 194.6 94.25 Q191.45 94.45 186.6 96.8 176.9 101.55 168.4 112.5 163.8 104.45 164.4 93.05 165.2 78.95 175.4 72.7"/><path fill="#595754" d="M164.65 90.3 Q175.4 86.65 184.9 84.65 195.65 82.45 200.75 83.2 204.75 83.8 210.3 90.5 216.85 98.5 219.55 100.15 225.25 103.7 230.8 103.4 L234.55 103.0 Q229.45 109.35 220.0 107.95 214.05 107.05 208.55 103.75 L200.5 98.35 194.6 94.25 Q191.45 94.45 186.6 96.8 176.9 101.55 168.4 112.5 166.25 108.7 165.1 102.95 163.85 96.35 164.65 90.3"/><path fill="#71706d" d="M152.75 228.4 Q157.0 235.35 158.0 238.6 160.05 245.3 154.75 247.55 144.85 251.75 133.9 248.5 120.9 244.65 110.1 231.0 106.75 226.75 108.35 222.45 109.7 218.6 114.05 216.6 L112.45 213.75 111.35 211.7 Q125.7 194.85 141.2 180.7 172.25 152.4 177.95 166.05 189.65 193.95 177.65 212.1 173.05 219.0 165.55 223.5 159.2 227.3 152.75 228.4"/><path fill="#595754" d="M124.15 197.55 Q139.3 181.6 150.9 172.4 151.1 175.05 153.9 185.2 156.4 194.45 156.3 200.05 156.05 218.0 131.1 224.3 125.9 225.6 127.15 228.2 127.7 229.35 132.85 234.15 136.45 237.5 137.55 240.9 138.5 243.75 138.3 249.5 122.75 247.1 110.1 231.0 106.75 226.75 108.35 222.45 109.7 218.6 114.05 216.6 L112.45 213.75 111.35 211.7 Q116.6 205.55 124.15 197.55"/><path fill="#d0bad9" d="M148.4 246.0 Q148.6 242.1 152.05 238.1 155.35 234.3 157.05 235.2 160.4 237.05 163.2 240.4 166.0 243.75 167.15 247.4 162.35 248.6 154.9 247.45 L148.4 246.0"/><path fill="#b4a1bc" d="M151.7 238.55 Q154.5 241.45 158.75 243.7 162.05 245.4 167.05 247.0 L167.15 247.4 Q162.35 248.6 154.9 247.45 L148.4 246.0 Q148.6 242.45 151.7 238.55"/><path fill="#d0bad9" d="M154.1 243.05 Q157.35 246.45 158.45 249.95 L145.35 250.5 138.05 249.55 Q138.25 245.65 142.15 241.25 145.85 236.95 147.55 237.9 151.15 239.85 154.1 243.05"/><path fill="#b4a1bc" d="M141.2 242.35 Q144.0 245.25 148.0 247.35 151.05 248.9 155.75 250.45 150.95 251.1 144.05 250.4 L138.05 249.55 Q138.2 246.35 141.2 242.35"/><path fill="#71706d" d="M200.0 16.5 Q197.55 20.45 196.45 25.4 195.25 30.65 195.25 38.2 195.25 43.0 193.3 48.5 191.2 54.4 187.75 58.35 185.4 57.3 184.05 53.05 L181.65 43.85 Q177.65 29.9 166.4 23.8 171.3 18.4 180.6 12.45 191.5 5.4 200.0 3.65 204.25 2.8 204.35 6.1 204.4 9.5 200.0 16.5"/><path fill="#0d131a" d="M48.95 119.85 Q58.4 113.95 68.05 115.6 L67.5 116.7 Q58.4 115.3 49.55 121.15 41.2 126.65 37.05 135.65 34.25 141.7 34.1 149.55 33.9 158.5 37.45 165.7 39.25 169.4 42.2 172.3 44.8 174.95 47.2 175.9 L48.15 177.2 49.1 178.5 Q40.65 174.95 36.4 166.25 32.6 158.6 32.6 150.8 32.6 146.45 33.45 142.1 34.3 137.85 35.7 134.85 40.0 125.5 48.95 119.85"/><path fill="#0d131a" d="M74.25 107.1 Q62.05 103.4 49.4 108.45 36.6 113.6 30.1 125.05 23.05 137.45 23.05 151.15 23.0 163.2 28.05 171.45 33.0 179.55 39.7 184.05 45.15 187.65 51.05 188.5 L51.25 189.75 Q43.75 188.7 38.2 184.9 31.9 180.6 26.5 171.75 21.35 163.25 21.35 151.0 21.4 137.05 28.6 124.35 35.4 112.4 49.05 107.15 62.5 102.0 75.25 106.15 L74.25 107.1"/><path fill="#0d131a" d="M51.8 144.6 Q53.8 138.15 57.3 134.1 60.7 130.15 65.1 128.9 L65.2 130.1 Q57.0 132.75 53.15 145.0 51.9 149.25 51.75 153.85 L51.5 155.85 51.2 157.9 Q50.5 156.7 50.5 154.7 50.5 148.7 51.8 144.6"/><path fill="#0d131a" d="M66.25 119.9 Q60.3 120.35 55.2 123.9 49.6 127.8 45.65 135.05 41.2 143.15 41.2 153.75 41.2 160.3 43.05 166.35 45.05 172.8 48.95 177.75 L49.4 180.2 Q41.15 170.9 39.85 157.2 38.65 144.3 43.95 134.55 47.8 127.45 54.05 123.2 60.05 119.1 66.65 118.7 L66.25 119.9"/><path fill="#0d131a" d="M228.15 108.75 L229.75 109.45 Q230.65 112.0 229.9 112.65 228.45 113.9 220.65 107.5 L222.55 107.45 Q227.9 111.7 228.9 111.25 L228.95 111.05 Q228.95 110.4 228.15 108.75"/><path fill="#0d131a" d="M234.25 107.4 L235.9 108.6 236.25 110.7 Q236.35 111.75 235.9 112.1 233.95 113.7 226.55 108.25 L227.6 107.5 Q230.4 109.55 232.35 110.4 234.1 111.15 234.65 110.75 L234.85 109.9 Q234.85 109.0 234.25 107.4"/><path fill="#0d131a" d="M240.15 107.55 Q240.5 110.2 239.55 110.85 237.6 112.05 231.2 105.8 L232.3 105.15 Q235.2 108.0 236.9 108.95 237.95 109.5 238.3 109.25 238.7 109.0 238.7 107.85 238.7 105.4 236.75 99.2 L237.3 97.0 Q239.75 104.2 240.15 107.55"/><path fill="#0d131a" d="M194.4 95.05 Q188.25 96.8 185.15 98.6 178.4 102.5 170.9 111.55 L169.95 109.4 Q176.3 101.25 183.4 97.3 188.15 94.65 194.55 93.45 L198.2 93.6 197.0 94.65 202.0 98.25 209.0 103.05 Q213.45 105.85 219.0 107.0 228.75 108.95 233.95 102.5 236.7 99.1 236.0 94.4 235.0 88.0 228.0 80.3 222.1 73.85 214.15 68.55 205.25 62.65 190.6 66.9 L190.6 65.25 Q206.3 60.8 215.05 66.65 223.1 72.0 229.3 79.1 236.5 87.35 237.55 94.15 238.4 99.5 235.2 103.45 229.5 110.6 219.0 108.6 213.65 107.55 208.15 104.45 L200.9 99.6 194.4 95.05"/><path fill="#0d131a" d="M113.0 216.3 L111.4 213.5 110.85 212.4 112.6 212.4 112.85 212.8 114.05 215.25 Q115.25 217.3 117.2 219.05 119.35 221.0 119.25 221.5 119.1 221.95 117.5 220.85 L115.05 218.95 114.0 217.95 Q109.0 219.8 108.8 224.4 108.65 227.95 110.75 230.5 123.8 246.45 138.2 248.65 L138.05 250.2 Q130.65 249.0 123.5 244.55 115.4 239.6 108.8 231.2 106.45 228.2 106.4 224.65 106.35 219.15 113.0 216.3"/><path fill="#0d131a" d="M178.7 165.75 Q182.1 173.9 183.55 178.75 185.55 185.4 185.55 190.65 185.55 201.1 180.65 209.95 176.4 217.75 168.1 223.05 161.35 227.35 154.0 228.9 L156.2 232.05 Q157.65 234.05 158.3 235.55 L157.2 235.35 155.85 235.4 Q154.7 233.0 152.55 229.6 L146.55 230.25 Q140.45 230.7 140.0 229.65 139.85 229.3 142.95 229.15 147.8 228.9 152.6 227.6 171.2 222.5 178.45 209.15 187.75 192.3 177.55 167.2 L177.9 164.25 178.7 165.75"/><path fill="#0d131a" d="M156.75 235.7 Q156.35 235.45 155.3 236.05 153.1 237.35 151.15 240.35 L149.65 239.05 Q150.5 237.75 152.2 236.55 L154.7 235.0 Q156.35 234.15 157.3 234.65 161.45 236.9 163.1 238.5 165.55 240.95 167.95 246.3 168.6 247.75 168.45 248.0 168.15 248.4 165.6 248.7 L162.0 248.75 157.8 248.4 Q157.4 247.7 157.35 247.15 L166.35 246.9 Q165.15 243.55 162.55 240.5 159.9 237.4 156.75 235.7"/><path fill="#0d131a" d="M145.85 238.8 Q143.7 240.0 141.5 243.0 139.1 246.25 138.75 249.1 151.05 250.95 157.65 249.5 156.4 246.2 153.2 243.0 150.4 240.15 147.25 238.4 146.85 238.2 145.85 238.8 M145.25 237.75 Q146.8 236.8 147.85 237.35 151.75 239.5 153.7 241.25 156.5 243.75 158.7 247.85 159.7 249.75 159.5 250.35 159.3 251.0 157.45 251.35 151.5 252.55 144.35 251.5 L137.95 250.15 137.45 250.05 137.45 249.55 Q137.65 245.95 139.35 243.2 141.25 240.2 145.25 237.75"/><path fill="#0d131a" d="M205.6 3.65 Q206.65 5.15 205.2 8.7 204.05 11.55 200.7 16.95 198.35 20.65 197.35 26.45 196.4 31.65 196.4 39.4 196.4 44.3 194.45 49.35 192.35 54.7 188.65 58.5 L187.35 57.6 Q190.6 53.8 192.6 48.2 194.45 42.9 194.45 38.2 194.45 30.7 195.65 25.4 196.8 20.15 199.35 16.1 202.65 10.8 203.35 7.65 203.75 5.7 203.2 4.9 202.55 3.95 200.15 4.4 192.0 6.1 181.4 12.85 172.25 18.65 167.25 24.05 L165.75 23.35 Q170.9 17.7 180.25 11.5 191.3 4.25 199.75 2.5 201.5 2.15 203.2 2.45 205.0 2.8 205.6 3.65"/><path fill="#d0bad9" d="M164.8 23.5 Q174.7 28.7 180.9 39.8 186.5 49.9 186.75 60.25 187.05 70.7 181.6 74.9 173.05 81.5 169.65 85.95 166.2 90.45 166.15 95.2 166.1 99.05 168.55 106.05 L174.3 122.1 Q185.8 156.95 169.05 182.8 162.35 193.1 152.05 200.3 142.9 206.75 133.35 209.15 113.15 214.3 95.8 209.9 72.85 204.05 62.75 182.25 52.55 160.2 60.05 135.05 63.1 124.9 68.6 116.05 73.6 108.0 79.2 103.2 90.5 93.5 96.25 79.9 99.9 71.2 101.9 58.45 104.2 43.95 114.15 34.45 123.55 25.45 139.35 21.2 153.25 17.45 164.8 23.5"/><path fill="#b4a1bc" d="M96.25 79.9 Q99.9 71.2 101.9 58.45 105.5 35.6 127.85 25.35 122.7 54.85 131.65 71.7 137.5 82.75 148.45 86.95 150.05 87.6 148.2 89.3 L142.05 93.85 Q128.65 102.95 121.65 110.4 93.45 140.6 118.1 181.65 122.55 189.05 135.9 194.05 148.95 199.0 156.75 196.7 151.25 201.35 144.95 204.65 139.1 207.7 133.35 209.15 113.15 214.3 95.8 209.9 72.85 204.05 62.75 182.25 52.55 160.2 60.05 135.05 63.1 124.9 68.6 116.05 73.6 108.0 79.2 103.2 90.5 93.5 96.25 79.9"/><path fill="#b4a1bc" d="M172.2 67.75 Q176.8 69.5 179.85 71.8 182.95 74.15 181.6 74.9 170.55 81.25 162.55 79.25 154.75 77.3 156.5 69.5 159.75 63.0 172.2 67.75"/><path fill="#71706d" d="M62.75 182.25 L62.75 182.2 Q71.05 187.6 81.85 188.7 93.25 189.85 105.35 185.95 133.5 176.85 155.95 144.85 161.9 158.7 163.6 169.95 165.65 183.15 161.8 191.95 155.5 198.55 147.7 203.15 140.5 207.4 133.35 209.15 113.15 214.3 95.8 209.9 72.85 204.05 62.75 182.25"/><path fill="#595754" d="M62.75 182.25 L62.75 182.2 Q73.3 189.05 87.4 188.95 102.6 188.8 118.0 180.45 129.45 200.7 156.95 196.55 151.4 201.3 145.1 204.6 139.15 207.7 133.35 209.15 113.15 214.3 95.8 209.9 72.85 204.05 62.75 182.25"/><path fill="#0d131a" d="M181.25 42.25 Q176.65 32.9 168.95 27.05 156.25 17.5 139.55 22.0 107.05 30.75 102.7 58.6 100.8 70.75 97.5 78.9 91.6 93.6 79.7 103.85 74.45 108.35 69.65 115.85 63.95 124.8 60.85 135.25 57.7 145.7 57.75 156.1 57.85 169.7 63.45 181.9 74.4 205.55 100.15 210.05 115.75 212.8 133.2 208.4 143.05 205.85 152.6 198.95 164.1 190.55 170.65 178.55 177.2 166.55 177.95 152.25 178.7 137.95 173.55 122.35 L169.7 111.55 Q167.2 104.8 166.4 101.85 165.2 97.45 165.4 94.2 165.7 90.05 169.3 85.4 173.1 80.5 181.15 74.3 186.0 70.55 186.05 61.25 186.1 51.95 181.25 42.25 M166.15 23.45 Q176.75 29.6 182.7 41.55 187.85 52.0 188.05 61.45 188.25 71.2 182.9 75.0 175.7 80.1 171.2 85.65 167.05 90.8 166.95 93.95 166.85 97.1 168.05 101.6 168.95 104.95 171.2 111.0 L175.05 121.85 Q180.4 138.0 179.95 152.5 179.45 167.4 172.8 179.5 166.05 191.85 153.75 200.8 143.3 208.4 132.85 211.05 115.6 215.4 99.35 212.15 73.3 206.95 62.05 182.55 56.2 169.95 55.85 156.55 55.6 146.05 58.7 135.65 61.9 125.0 68.05 115.4 73.2 107.3 78.65 102.6 90.3 92.65 96.05 78.25 99.25 70.2 101.1 58.35 105.75 28.95 138.7 20.15 153.6 16.15 166.15 23.45"/><path fill="#0d131a" d="M155.8 146.05 Q134.05 176.6 108.05 186.2 84.0 195.05 64.2 183.75 75.5 206.15 100.85 210.35 116.25 212.9 133.25 208.6 140.7 206.7 148.05 202.25 155.4 197.8 161.3 191.6 163.7 186.05 163.7 178.55 163.7 164.8 155.8 146.05 M164.6 168.45 Q167.55 183.0 162.35 192.2 L162.3 192.3 162.25 192.35 Q156.15 198.7 148.65 203.25 141.15 207.8 133.5 209.75 115.75 214.25 99.75 211.4 73.4 206.75 62.2 182.5 L61.35 180.6 63.05 181.7 Q71.7 187.3 82.75 188.25 94.15 189.2 106.3 185.0 133.7 175.6 155.5 144.5 L156.1 143.65 156.5 144.65 Q162.75 159.1 164.6 168.45"/><path fill="#0d131a" d="M160.55 13.75 Q162.75 15.95 162.75 19.05 162.75 22.15 160.55 24.35 158.35 26.55 155.25 26.55 152.15 26.55 150.0 24.35 147.8 22.15 147.8 19.05 147.8 15.95 150.0 13.75 152.15 11.55 155.25 11.55 158.35 11.55 160.55 13.75"/><path fill="#0d131a" d="M184.25 33.05 Q184.25 36.15 182.05 38.35 179.85 40.55 176.75 40.55 173.65 40.55 171.5 38.35 169.3 36.15 169.3 33.05 169.3 29.95 171.5 27.75 173.65 25.55 176.75 25.55 179.85 25.55 182.05 27.75 184.25 29.95 184.25 33.05"/><path fill="#71706d" d="M128.35 25.3 Q130.35 28.75 130.65 30.75 131.4 35.1 128.45 40.35 126.0 44.75 124.5 51.6 L121.9 64.45 Q120.4 70.95 116.4 73.5 112.85 75.7 108.1 74.4 101.7 72.65 97.15 62.45 93.0 53.2 92.8 43.35 92.65 36.1 89.15 27.65 84.6 16.7 84.1 14.5 82.75 8.85 83.85 5.35 85.05 1.65 88.8 0.85 97.7 -1.1 112.0 9.25 124.2 18.05 128.35 25.3"/><path fill="#595754" d="M96.8 7.85 Q108.15 15.55 115.45 31.1 118.6 37.75 120.2 39.65 122.95 43.0 127.2 42.9 125.45 46.8 124.2 53.05 L121.9 64.45 Q120.4 70.95 116.4 73.5 112.85 75.7 108.1 74.4 101.7 72.65 97.15 62.45 93.0 53.2 92.8 43.35 92.65 36.1 89.15 27.65 84.6 16.7 84.1 14.5 82.6 8.35 84.1 4.8 86.95 3.6 89.45 4.15 92.2 4.75 96.8 7.85"/><path fill="#d5adbf" d="M89.55 8.05 Q91.3 8.05 94.95 10.7 98.75 13.45 102.3 17.4 111.5 27.55 110.2 34.9 108.7 43.3 110.25 51.7 110.7 54.2 113.05 61.95 114.5 66.7 112.2 68.85 109.8 71.15 105.6 66.7 101.05 61.8 99.55 54.05 99.2 52.1 98.5 42.2 98.1 36.45 96.05 31.2 L92.2 22.85 Q90.15 18.3 89.45 13.9 88.85 10.0 89.55 8.05"/><path fill="#ffffff" d="M146.25 48.3 Q152.1 53.0 151.3 61.25 149.3 63.4 146.0 64.0 142.6 64.65 139.6 63.3 132.05 59.75 133.75 47.05 140.4 43.6 146.25 48.3"/><path fill="#f6c8dd" d="M179.1 54.75 Q189.9 56.2 191.75 63.5 192.55 66.55 191.25 69.4 189.95 72.3 187.1 73.85 179.0 78.2 166.95 75.85 161.2 74.7 159.25 70.75 157.65 67.55 158.75 63.55 160.1 58.7 166.05 56.2 171.85 53.75 179.1 54.75"/><path fill="#d5adbf" d="M171.15 74.0 L187.85 73.4 187.1 73.85 Q179.0 78.2 166.95 75.85 162.0 74.85 159.85 71.75 158.05 69.2 158.35 65.65 162.0 72.7 171.15 74.0"/><path fill="#ffffff" d="M159.9 83.6 Q158.2 84.05 155.45 82.75 153.2 81.65 151.1 79.8 149.2 78.15 149.15 77.6 149.1 76.95 151.1 77.1 L157.4 78.35 165.8 79.6 Q162.45 82.95 159.9 83.6"/><path fill="#0d131a" d="M161.2 140.65 Q163.9 143.75 163.9 148.1 163.9 152.5 161.2 155.55 158.45 158.65 154.6 158.65 150.75 158.65 148.0 155.55 145.3 152.5 145.3 148.1 145.3 143.75 148.0 140.65 150.75 137.55 154.6 137.55 158.45 137.55 161.2 140.65"/><path fill="#ffffff" d="M176.85 31.15 Q176.3 32.1 175.35 32.5 L173.65 32.65 Q172.9 32.3 172.75 31.45 172.65 30.55 173.2 29.6 173.7 28.65 174.65 28.25 L176.35 28.1 Q177.1 28.45 177.25 29.35 177.4 30.2 176.85 31.15"/><path fill="#ffffff" d="M155.75 16.55 Q155.25 17.5 154.3 17.9 L152.6 18.05 Q151.85 17.7 151.7 16.85 151.55 15.95 152.1 15.0 152.65 14.05 153.6 13.65 L155.3 13.5 Q156.05 13.85 156.2 14.75 156.3 15.6 155.75 16.55"/><path fill="#8a969d" d="M156.8 144.6 Q156.6 146.15 155.35 147.05 154.1 148.0 152.55 147.75 151.0 147.55 150.05 146.35 149.1 145.1 149.3 143.55 149.55 142.0 150.8 141.1 152.05 140.2 153.6 140.4 155.15 140.6 156.1 141.85 157.05 143.05 156.8 144.6"/><path fill="#71706d" d="M100.2 74.05 Q113.65 83.55 108.65 93.05 106.6 97.0 101.65 99.55 96.75 102.1 90.75 102.4 86.55 102.6 75.65 99.9 L59.4 96.0 Q55.6 96.65 46.65 103.7 37.3 111.1 29.2 113.15 17.25 116.2 9.1 110.0 1.05 103.85 1.25 92.2 1.45 83.05 22.6 70.1 31.35 64.7 40.3 61.0 49.45 57.25 55.05 56.75 64.25 55.95 80.1 63.0 92.0 68.25 100.2 74.05"/><path fill="#595754" d="M53.3 91.7 Q57.7 87.95 62.05 88.7 64.45 89.1 68.2 90.85 69.95 91.35 80.5 96.35 92.0 100.95 100.15 100.3 95.8 102.2 90.75 102.4 86.55 102.6 75.65 99.9 L59.4 96.0 Q55.6 96.65 46.65 103.7 37.3 111.1 29.2 113.15 19.0 115.8 11.35 111.5 3.85 107.3 1.85 98.35 12.9 106.15 27.35 104.05 41.25 102.0 53.3 91.7"/><path fill="#d0bad9" d="M6.15 91.05 Q13.6 89.65 20.85 94.35 28.4 99.2 28.4 106.5 23.5 113.6 18.8 115.3 14.75 116.8 14.4 114.15 9.65 117.25 7.7 116.4 5.45 115.5 4.85 109.25 2.65 111.05 1.7 109.1 0.85 107.4 1.25 103.6 2.15 94.2 6.15 91.05"/><path fill="#b4a1bc" d="M28.0 103.4 Q28.4 105.0 28.4 106.5 23.5 113.6 18.8 115.3 14.75 116.8 14.4 114.15 9.65 117.25 7.7 116.4 5.45 115.5 4.85 109.25 3.3 110.55 2.1 108.85 1.05 107.4 0.85 104.9 1.6 106.3 2.2 106.7 3.2 107.3 4.7 106.45 6.8 110.95 9.0 111.85 11.35 112.85 14.75 110.15 17.1 117.55 28.0 103.4"/><path fill="#71706d" d="M65.15 130.65 Q71.4 125.9 78.65 125.2 85.4 124.6 89.5 127.65 107.25 140.85 106.7 168.5 106.5 179.65 103.1 189.95 99.85 199.8 95.05 205.0 90.35 210.1 83.8 211.65 76.8 213.35 70.4 210.35 54.5 202.85 51.65 172.65 48.8 143.15 65.15 130.65"/><path fill="#595754" d="M53.55 184.6 Q63.55 191.9 71.45 191.9 78.2 191.85 90.0 185.95 94.9 188.05 100.8 180.1 104.95 174.55 106.7 169.4 106.35 180.3 103.0 190.3 99.75 199.9 95.05 205.0 90.85 209.55 85.05 211.3 78.95 213.2 73.05 211.35 58.75 206.9 53.55 184.6"/><path fill="#71706d" d="M50.5 188.9 Q48.4 175.55 52.3 171.2 56.3 166.65 71.45 166.15 84.25 165.75 87.95 176.25 90.3 183.0 88.7 189.9 L83.8 207.45 Q81.05 213.8 76.3 216.5 71.5 219.25 66.45 217.4 54.3 212.95 50.5 188.9"/><path fill="#595754" d="M50.5 188.9 Q49.8 184.4 51.95 181.15 55.15 176.25 63.8 177.45 73.6 178.8 77.25 180.7 80.75 182.45 81.5 186.25 L83.6 196.65 Q85.45 201.65 88.15 191.9 89.3 199.8 85.6 205.8 83.6 209.1 79.6 213.9 76.15 217.45 71.9 218.0 67.5 218.55 63.35 215.8 53.7 209.2 50.5 188.9"/><path fill="#d0bad9" d="M62.05 151.2 Q65.15 154.95 67.4 162.75 69.3 169.35 69.05 171.5 68.75 173.6 61.7 173.75 54.55 173.85 53.75 171.2 52.8 168.0 56.25 158.35 59.8 148.5 62.05 151.2"/><path fill="#b4a1bc" d="M57.55 155.35 L57.3 161.55 Q57.05 165.4 57.3 167.25 58.1 173.0 65.25 173.4 61.65 174.05 58.15 173.5 54.25 172.95 53.75 171.2 53.4 170.0 54.8 164.45 56.0 159.95 57.55 155.35"/><path fill="#d0bad9" d="M72.6 150.55 Q74.9 147.9 79.35 157.95 83.7 167.8 82.85 171.05 82.0 174.3 74.9 174.25 67.85 174.2 67.55 172.0 67.2 169.45 68.45 162.3 70.0 153.6 72.6 150.55"/><path fill="#b4a1bc" d="M67.55 172.0 Q67.45 171.0 68.25 165.2 69.1 159.0 70.0 155.05 70.4 158.1 70.4 166.2 71.15 173.05 75.85 174.2 L70.3 173.7 Q67.7 173.05 67.55 172.0"/><path fill="#ffffff" d="M149.2 55.2 Q149.0 56.65 148.45 57.6 147.85 58.55 147.2 58.45 146.55 58.4 146.25 57.3 145.9 56.25 146.1 54.8 146.3 53.35 146.9 52.4 147.45 51.45 148.1 51.5 148.75 51.6 149.05 52.65 149.4 53.75 149.2 55.2"/><path fill="#0d131a" d="M150.4 14.2 Q148.4 16.2 148.4 19.05 148.4 21.9 150.4 23.95 152.4 25.95 155.25 25.95 158.15 25.95 160.15 23.95 162.15 21.9 162.15 19.05 162.15 16.2 160.15 14.2 158.15 12.15 155.25 12.15 152.4 12.15 150.4 14.2 M155.25 10.95 Q158.6 10.95 161.05 13.5 163.45 16.05 163.45 19.4 163.45 22.7 161.05 24.95 158.65 27.15 155.25 27.15 151.9 27.15 149.35 24.75 146.8 22.3 146.8 19.0 146.8 15.7 149.35 13.3 151.9 10.95 155.25 10.95"/><path fill="#0d131a" d="M168.4 33.0 Q168.4 29.7 170.9 27.3 173.4 24.95 176.75 24.95 180.1 24.95 182.5 27.5 184.85 30.0 184.85 33.35 184.85 36.65 182.5 38.9 180.15 41.1 176.75 41.1 173.4 41.1 170.9 38.7 168.4 36.3 168.4 33.0 M181.65 28.2 Q179.65 26.15 176.75 26.15 173.9 26.15 171.9 28.2 169.9 30.2 169.9 33.05 169.9 35.9 171.9 37.95 173.9 39.95 176.75 39.95 179.65 39.95 181.65 37.95 183.65 35.9 183.65 33.05 183.65 30.2 181.65 28.2"/><path fill="#0d131a" d="M124.5 48.25 Q125.8 43.5 127.75 39.95 130.4 35.25 129.95 31.4 129.7 29.15 127.95 26.25 L127.65 25.7 Q123.65 18.7 111.7 10.0 97.65 -0.25 89.0 1.6 86.6 2.1 85.35 4.05 83.25 7.3 84.85 14.3 85.7 17.75 88.45 23.95 90.95 29.6 91.9 32.75 93.5 38.0 93.6 43.3 93.8 53.2 97.9 62.3 102.3 71.95 108.3 73.65 112.6 74.8 115.8 72.9 119.65 70.65 121.1 64.3 L122.55 57.1 Q123.7 51.15 124.5 48.25 M129.7 24.15 Q131.75 28.0 131.9 30.95 132.2 35.35 129.15 40.75 127.25 44.15 126.05 48.65 125.25 51.55 124.15 57.4 L122.65 64.65 Q121.05 71.6 116.6 74.25 114.65 75.45 112.35 75.9 L107.5 75.7 Q100.75 73.85 96.15 62.75 92.2 53.2 92.0 43.35 91.9 38.25 90.3 33.15 89.4 30.15 86.95 24.55 84.3 18.55 83.35 14.7 81.35 6.7 83.55 2.95 85.1 0.3 88.65 0.05 100.45 -0.75 114.9 9.65 126.4 17.95 129.7 24.15"/><path fill="#0d131a" d="M90.9 9.35 Q90.1 9.5 90.65 14.35 91.25 19.6 93.25 23.2 98.45 32.65 99.1 42.15 L99.25 44.75 Q99.55 51.5 100.45 55.1 102.0 61.3 106.0 65.6 107.8 67.5 108.9 68.2 110.25 69.05 111.15 68.5 112.95 67.45 112.95 65.0 L112.5 62.15 112.0 60.55 Q110.65 56.45 110.0 53.45 108.85 48.25 108.85 43.15 108.85 39.25 109.6 34.75 L109.75 33.15 Q109.75 27.15 103.1 19.2 99.95 15.45 95.55 12.1 91.7 9.2 90.9 9.35 M89.1 8.35 L87.95 7.55 Q87.05 6.75 88.0 6.85 91.6 7.35 96.1 10.7 100.05 13.7 104.05 18.45 107.7 22.9 109.25 25.65 112.1 30.75 111.4 34.7 109.05 47.75 113.1 60.2 L113.6 61.8 Q114.4 64.4 113.95 66.65 113.5 68.9 112.0 69.75 109.15 71.4 105.15 67.1 100.95 62.6 99.35 55.85 98.4 51.9 98.05 44.8 L97.9 42.25 Q97.6 37.5 96.15 33.25 95.35 30.85 93.2 26.35 L91.65 23.05 Q89.55 18.45 88.95 14.2 88.35 10.4 89.1 8.35"/><path fill="#0d131a" d="M145.05 48.15 Q142.5 46.45 139.75 46.15 136.9 45.8 134.3 47.1 L134.05 51.15 Q134.05 56.2 136.05 59.4 137.5 61.65 139.8 62.7 142.6 64.05 145.85 63.4 148.85 62.85 150.7 60.95 L150.8 59.65 Q150.8 56.1 149.3 53.05 147.75 50.0 145.05 48.15 M133.5 46.55 Q136.55 44.9 139.75 45.0 143.1 45.05 145.85 46.95 149.1 49.1 150.7 53.05 152.3 56.9 151.9 61.3 L151.85 61.5 151.75 61.65 Q149.55 64.0 145.55 64.5 141.65 65.05 138.5 63.55 131.4 60.15 133.15 47.0 L133.2 46.65 133.5 46.55"/><path fill="#0d131a" d="M144.9 47.05 L145.55 47.05 Q148.8 49.2 150.35 53.0 151.75 56.65 151.35 61.15 L146.85 63.9 Q142.75 63.65 141.4 58.2 140.6 55.1 141.4 52.1 142.25 48.7 144.9 47.05"/><path fill="#0d131a" d="M142.55 57.9 Q142.2 56.4 142.2 55.1 142.2 50.5 145.25 48.3 147.9 50.2 149.35 53.15 150.8 56.15 150.8 59.65 L150.7 60.95 Q149.45 62.3 147.15 63.1 145.4 62.95 144.15 61.3 143.05 59.95 142.55 57.9"/><path fill="#0d131a" d="M190.55 69.45 Q191.8 66.9 191.3 64.15 190.65 60.7 187.4 58.35 184.15 56.0 179.05 55.3 171.85 54.35 166.2 56.75 160.6 59.15 159.35 63.7 158.15 67.95 160.05 71.05 162.15 74.3 167.05 75.25 178.95 77.6 186.8 73.35 189.3 71.95 190.55 69.45 M188.3 57.6 Q191.9 60.25 192.6 64.15 193.2 67.35 192.0 70.15 190.8 73.05 188.0 74.6 179.8 79.05 166.85 76.4 160.75 75.25 158.45 71.6 156.3 68.1 157.65 63.35 159.05 58.45 165.3 55.75 171.55 53.15 179.2 54.15 184.7 54.85 188.3 57.6"/><path fill="#0d131a" d="M155.75 82.2 Q158.25 83.4 159.75 83.05 161.55 82.6 164.4 80.1 L155.55 78.55 151.05 77.7 149.85 77.7 Q150.1 78.2 151.5 79.35 153.5 81.1 155.75 82.2 M168.35 78.85 L171.35 78.6 Q171.25 78.85 169.8 79.4 167.6 80.25 165.85 80.3 162.05 83.85 159.6 84.45 156.4 85.25 150.7 80.25 147.85 77.85 148.25 76.95 148.5 76.25 151.15 76.5 L155.8 77.4 161.35 78.7 Q165.25 79.4 168.35 78.85"/><path fill="#0d131a" d="M172.7 62.25 Q173.4 62.45 172.7 66.7 172.0 70.9 171.25 69.65 170.5 68.4 171.25 65.2 171.95 62.05 172.7 62.25"/><path fill="#0d131a" d="M184.55 61.75 Q185.15 61.7 185.6 64.8 186.1 67.95 185.15 69.0 184.15 70.0 184.1 66.0 184.0 61.85 184.55 61.75"/><path fill="#0d131a" d="M160.75 141.05 Q158.2 138.15 154.6 138.15 151.0 138.15 148.45 141.05 145.9 144.0 145.9 148.1 145.9 152.2 148.45 155.15 151.0 158.05 154.6 158.05 158.2 158.05 160.75 155.15 163.3 152.2 163.3 148.1 163.3 144.0 160.75 141.05 M144.7 148.1 Q144.7 143.5 147.65 140.15 150.65 136.8 154.75 136.8 158.8 136.8 161.75 140.25 164.65 143.65 164.65 148.3 164.65 152.9 161.65 156.35 158.65 159.75 154.55 159.75 150.5 159.75 147.6 156.25 144.7 152.75 144.7 148.1"/><path fill="#8a969d" d="M176.85 31.15 Q176.3 32.1 175.35 32.5 L173.65 32.65 Q172.9 32.3 172.75 31.45 172.65 30.55 173.2 29.6 173.7 28.65 174.65 28.25 L176.35 28.1 Q177.1 28.45 177.25 29.35 177.4 30.2 176.85 31.15"/><path fill="#8a969d" d="M155.75 16.55 Q155.25 17.5 154.3 17.9 L152.6 18.05 Q151.85 17.7 151.7 16.85 151.55 15.95 152.1 15.0 152.65 14.05 153.6 13.65 L155.3 13.5 Q156.05 13.85 156.2 14.75 156.3 15.6 155.75 16.55"/><path fill="#0d131a" d="M100.65 73.45 Q107.7 78.4 109.65 84.25 110.95 88.2 109.85 91.95 108.4 97.0 103.7 99.85 98.85 102.8 90.8 103.2 87.7 103.35 81.85 102.15 L70.7 99.45 Q62.95 97.4 59.45 96.8 57.0 97.25 54.05 99.15 52.2 100.3 48.5 103.25 L40.25 109.3 Q34.95 112.55 29.4 113.95 L21.0 114.9 22.65 113.3 Q25.8 113.25 29.0 112.4 34.3 111.05 39.15 107.95 L46.85 102.1 52.75 97.55 Q56.0 95.25 59.0 94.2 61.75 93.2 64.7 93.35 65.2 93.4 62.95 94.2 60.65 95.0 61.3 95.15 L65.05 96.2 71.1 97.9 81.9 100.5 Q87.75 101.75 90.75 101.6 97.25 101.3 102.35 98.25 107.45 95.2 108.7 90.8 109.85 86.9 107.55 82.75 105.25 78.6 99.75 74.7 91.75 69.05 79.95 63.8 64.2 56.75 55.1 57.55 49.35 58.05 40.3 61.9 31.6 65.6 23.0 71.05 2.55 84.0 2.35 92.75 2.35 94.65 2.5 96.35 1.65 97.3 1.35 99.65 0.4 96.2 0.45 92.2 0.65 82.4 22.3 69.0 31.15 63.5 40.3 59.7 49.5 55.85 55.0 55.4 64.2 54.6 79.9 61.75 91.7 67.1 100.65 73.45"/><path fill="#0d131a" d="M22.45 96.25 Q19.1 93.45 14.7 92.2 10.35 90.95 6.4 91.65 4.45 93.25 3.05 97.65 1.7 101.8 1.7 105.55 L1.8 107.4 Q2.1 109.2 2.8 109.45 3.4 109.7 4.45 108.8 L4.8 104.8 Q5.4 100.7 6.7 100.1 7.4 99.8 7.3 100.2 L6.7 101.8 Q5.2 105.45 5.4 109.2 5.55 111.5 6.4 113.3 7.15 114.95 8.15 115.4 L10.35 115.5 Q11.8 115.15 14.1 113.65 13.85 112.1 13.9 110.1 14.0 106.15 15.55 104.1 16.5 102.85 16.1 104.4 15.25 107.55 15.2 109.35 15.15 111.95 15.6 113.45 16.0 114.6 16.45 114.7 18.15 115.1 20.7 113.6 24.15 111.55 27.8 106.35 27.65 100.55 22.45 96.25 M6.0 90.5 Q9.5 89.35 14.55 90.65 19.7 91.9 23.25 94.9 25.95 97.1 27.65 100.45 29.2 103.55 29.4 106.4 29.6 108.65 29.1 108.5 L28.6 107.9 Q24.8 113.35 21.3 115.55 18.45 117.25 16.15 116.7 14.95 116.45 14.1 115.05 L10.4 117.2 8.0 117.25 Q6.75 116.65 5.75 114.9 4.65 112.95 4.35 110.3 2.7 111.1 2.2 111.05 0.5 111.0 0.1 108.0 -0.4 104.55 0.95 99.45 2.4 94.2 4.65 91.65 L4.0 91.5 Q3.8 91.2 6.0 90.5"/><path fill="#0d131a" d="M80.45 125.9 Q74.5 125.95 68.8 129.15 61.9 133.05 57.55 140.8 50.85 152.8 52.3 171.2 L50.85 172.65 Q49.0 152.95 55.6 140.45 59.9 132.25 67.05 128.25 73.2 124.75 80.1 124.55 86.5 124.4 90.0 127.0 98.6 133.4 103.3 143.35 107.05 151.3 107.9 160.4 109.15 174.0 105.7 186.8 102.55 198.5 97.0 204.5 93.85 207.9 89.4 210.1 85.0 212.3 80.4 212.75 L81.55 211.25 Q89.05 210.3 94.45 204.45 99.9 198.6 103.2 186.95 106.85 174.1 105.65 160.9 104.8 151.75 101.55 144.25 97.2 134.35 89.05 128.25 85.8 125.85 80.45 125.9"/><path fill="#0d131a" d="M84.7 171.95 L82.6 169.95 Q82.35 168.6 82.45 167.9 85.05 168.65 86.35 170.3 89.7 174.35 90.05 181.6 90.3 186.85 89.35 189.85 88.75 191.7 88.2 191.9 87.65 192.15 87.95 189.7 88.5 184.8 88.25 181.65 87.75 175.7 84.7 171.95"/><path fill="#0d131a" d="M49.55 189.0 Q48.5 182.2 48.7 178.3 49.0 173.4 51.2 170.7 L52.1 170.0 53.1 169.35 53.65 170.95 52.7 171.9 Q50.85 174.15 50.55 178.05 50.2 181.9 51.3 188.8 53.25 201.3 58.0 208.85 62.75 216.4 69.15 217.2 73.05 217.7 77.65 214.0 81.8 210.65 83.1 207.1 84.2 204.25 84.8 205.05 85.4 205.9 84.55 207.75 82.05 213.2 77.9 216.4 73.5 219.75 68.9 219.15 61.95 218.3 56.75 210.2 51.6 202.15 49.55 189.0"/><path fill="#0d131a" d="M63.35 173.05 L67.05 172.35 67.5 172.95 67.95 173.5 Q65.3 174.4 63.15 174.5 L57.05 174.15 Q53.4 173.35 52.85 171.45 52.05 168.85 54.85 160.15 57.75 151.15 60.35 149.75 61.45 149.15 62.4 150.35 65.75 154.45 68.2 163.5 L67.4 165.2 Q65.1 155.8 61.6 151.6 61.2 151.15 60.8 151.4 58.65 152.55 56.05 160.65 53.55 168.55 54.3 171.0 54.7 172.15 57.3 172.75 L63.35 173.05"/><path fill="#0d131a" d="M79.7 160.35 Q76.4 152.05 74.0 150.8 73.45 150.5 73.05 150.95 70.45 153.95 69.05 162.55 67.85 169.45 68.15 171.95 68.25 172.4 69.65 172.85 71.25 173.45 73.55 173.6 L79.1 173.15 Q81.85 172.45 82.25 170.9 82.9 168.45 79.7 160.35 M67.7 162.25 Q69.45 152.85 72.2 149.65 73.15 148.45 74.65 149.2 77.6 150.75 81.1 159.75 84.55 168.4 83.8 171.15 83.25 173.3 79.95 174.4 77.05 175.35 73.6 175.15 L69.85 174.65 Q66.8 173.95 66.6 172.55 66.3 169.95 67.7 162.25"/><path fill="#ffffff" d="M149.2 55.2 Q149.0 56.65 148.45 57.6 147.85 58.55 147.2 58.45 146.55 58.4 146.25 57.3 145.9 56.25 146.1 54.8 146.3 53.35 146.9 52.4 147.45 51.45 148.1 51.5 148.75 51.6 149.05 52.65 149.4 53.75 149.2 55.2"/></g></svg>