<?xml version='1.0' encoding='utf-8'?>
<svg xmlns="http://www.w3.org/2000/svg" version="1.1" width="401px" height="291px" viewBox="-0.7 -0.05 401.15 290.75"><g><path fill="#0d131a" d="M25.3 87.5 Q30.05 89.3 39.55 89.4 54.2 89.6 66.05 83.5 69.35 87.4 70.3 92.35 70.8 94.85 70.7 97.15 67.85 99.15 59.2 100.85 48.6 102.9 42.0 100.75 35.4 98.6 28.8 92.45 26.35 90.2 25.25 88.6 24.2 87.05 25.3 87.5"/><path fill="#e50020" d="M159.65 224.4 Q167.85 225.8 174.65 231.05 181.85 236.6 184.7 244.5 190.25 259.9 190.2 268.95 190.15 276.85 185.75 280.75 180.9 285.05 161.8 283.7 146.95 282.6 138.85 280.3 134.0 278.9 132.4 267.75 130.6 255.0 135.35 238.5 137.8 230.0 144.85 226.3 151.25 223.0 159.65 224.4"/><path fill="#c60019" d="M145.3 281.65 Q143.05 249.4 150.35 224.45 160.2 222.55 170.4 228.25 181.0 234.15 184.7 244.5 190.25 259.9 190.2 268.95 190.15 276.85 185.75 280.75 181.75 284.3 167.75 284.0 157.35 283.75 145.3 281.65"/><path fill="#e50020" d="M135.5 245.35 Q128.4 235.85 134.75 223.8 137.15 219.2 140.95 215.5 144.35 212.15 147.05 211.15 L167.85 236.7 Q166.35 240.45 162.7 244.15 158.8 248.0 154.25 250.05 142.7 255.1 135.5 245.35"/><path fill="#c60019" d="M154.75 240.2 Q158.55 233.4 158.7 225.45 L167.85 236.7 Q165.45 242.65 158.85 247.4 151.45 252.65 144.7 251.45 151.15 246.65 154.75 240.2"/><path fill="#ffffff" d="M136.15 267.75 Q137.85 268.0 141.1 273.6 144.45 279.4 142.45 280.7 140.2 282.2 131.95 283.85 123.6 285.55 123.4 284.5 123.25 283.85 124.1 281.1 125.05 277.9 126.5 275.1 130.75 266.85 136.15 267.75"/><path fill="#dbdcdc" d="M136.15 267.75 Q137.85 268.0 141.1 273.6 144.45 279.4 142.45 280.7 140.2 282.2 131.95 283.85 123.6 285.55 123.4 284.5 123.25 283.85 124.1 281.1 125.05 277.9 126.5 275.1 130.75 266.85 136.15 267.75"/><path fill="#ffffff" d="M159.6 286.75 L148.05 287.7 Q145.15 287.4 151.05 280.95 156.9 274.5 160.9 274.6 164.15 274.65 166.95 279.15 169.5 283.2 168.85 284.55 168.4 285.5 159.6 286.75"/><path fill="#dbdcdc" d="M162.3 274.85 Q165.1 275.8 167.35 279.8 169.4 283.45 168.85 284.55 168.55 285.3 162.6 286.3 L152.1 287.6 Q155.4 280.95 162.3 274.85"/><path fill="#c60019" d="M171.75 238.2 L180.55 243.15 178.9 245.2 174.35 250.35 Q171.05 253.9 169.15 255.1 166.6 256.75 164.0 256.35 161.45 255.95 162.2 250.6 163.0 245.25 164.65 245.15 165.75 245.1 168.35 242.05 171.25 238.5 171.75 238.2"/><path fill="#e50020" d="M131.9 242.4 Q141.15 236.25 149.7 235.75 158.9 235.25 164.15 241.75 168.6 247.25 167.1 251.8 166.0 255.25 163.15 256.15 L157.4 257.45 Q152.5 258.6 149.1 260.1 145.95 261.5 140.1 266.6 133.6 272.3 128.75 278.35 125.15 282.85 122.55 278.0 120.45 273.95 119.9 265.95 119.5 260.2 121.4 255.15 124.2 247.5 131.9 242.4"/><path fill="#c60019" d="M157.4 257.45 Q152.5 258.6 149.1 260.1 145.95 261.5 140.1 266.6 133.6 272.3 128.75 278.35 126.55 281.05 125.05 278.0 123.55 275.0 124.15 269.25 128.05 255.05 135.15 247.9 139.65 243.4 153.35 235.9 160.05 236.7 164.15 241.75 168.6 247.25 167.1 251.8 166.0 255.25 163.15 256.15 L157.4 257.45"/><path fill="#e50020" d="M131.0 250.5 Q133.85 257.4 130.3 264.05 128.85 266.7 126.95 267.9 125.0 269.2 123.55 268.25 120.75 266.45 119.95 256.25 119.15 246.1 121.4 245.9 123.55 245.7 126.9 247.25 130.3 248.85 131.0 250.5"/><path fill="#c60019" d="M121.7 245.9 Q124.0 245.85 127.1 247.4 130.35 248.95 131.0 250.5 133.55 256.65 130.8 262.9 128.3 268.65 124.85 268.65 128.75 266.9 126.5 259.0 L121.7 245.9"/><path fill="#e50020" d="M148.35 240.4 Q148.95 241.6 147.4 243.65 145.85 245.7 143.3 247.2 136.7 251.15 133.9 246.7 131.5 242.95 132.9 235.05 134.25 227.2 137.15 227.9 139.7 228.45 143.6 233.25 146.6 237.05 148.35 240.4"/><path fill="#c60019" d="M148.35 240.4 Q149.35 242.4 145.35 245.75 141.2 249.2 137.5 248.9 141.45 248.85 141.95 241.7 142.4 235.35 140.2 229.65 142.45 231.6 145.05 235.2 147.2 238.15 148.35 240.4"/><path fill="#e50020" d="M121.5 140.25 Q122.55 133.5 125.75 129.4 128.85 125.55 131.95 126.25 L132.7 176.8 Q118.75 158.0 121.5 140.25"/><path fill="#c60019" d="M132.15 138.1 L132.7 176.8 Q122.4 162.9 121.25 148.9 125.75 142.2 132.15 138.1"/><path fill="#b3aea6" d="M334.15 228.4 Q331.9 234.7 327.65 240.1 323.95 244.75 322.0 245.25 L313.05 234.5 323.55 231.4 334.15 228.4"/><path fill="#e50020" d="M388.55 219.5 Q398.15 227.4 398.25 234.7 396.95 233.05 371.3 223.5 363.55 220.6 352.75 221.1 342.15 221.55 335.2 224.9 L334.15 228.4 323.55 231.4 313.05 234.5 288.75 205.15 Q317.35 189.05 353.25 200.9 365.2 204.85 376.7 211.55 384.15 215.9 388.55 219.5"/><path fill="#c60019" d="M388.55 219.5 Q398.15 227.4 398.25 234.7 396.95 233.05 371.3 223.5 363.55 220.6 352.75 221.1 342.15 221.55 335.2 224.9 L334.15 228.4 Q330.2 229.35 319.55 232.65 331.65 220.3 350.55 216.7 367.4 213.45 386.2 217.7 L388.55 219.5"/><path fill="#ffee7d" d="M325.75 210.45 Q325.6 217.6 328.15 222.75 L309.8 208.0 Q313.7 202.0 320.45 199.2 321.55 198.75 331.1 196.25 325.95 201.5 325.75 210.45"/><path fill="#e50020" d="M327.45 230.7 Q319.5 233.9 318.55 235.35 L320.6 216.9 Q323.1 217.2 330.9 221.05 339.25 225.2 337.3 226.5 336.35 227.1 327.45 230.7"/><path fill="#c60019" d="M335.55 223.75 Q338.55 225.7 337.3 226.5 336.35 227.1 327.45 230.7 319.5 233.9 318.55 235.35 L319.4 227.65 Q325.4 225.75 335.55 223.75"/><path fill="#e50020" d="M203.85 177.25 Q220.55 170.9 242.45 166.95 253.4 165.0 261.0 164.3 262.05 175.3 272.3 191.4 283.3 208.6 292.65 210.6 298.25 211.8 304.8 219.05 312.05 227.1 313.55 235.95 315.35 246.8 307.35 255.05 297.65 265.0 274.65 270.0 242.8 276.95 205.45 259.75 191.75 253.45 180.85 245.4 171.2 238.3 169.05 234.1 158.8 214.0 170.85 198.5 180.5 186.1 203.85 177.25"/><path fill="#b3aea6" d="M186.85 185.25 Q208.2 172.75 245.7 166.4 253.55 190.0 271.5 206.5 287.85 221.55 311.8 230.0 316.85 242.3 309.8 252.1 301.05 264.3 274.65 270.0 242.8 276.95 205.45 259.75 191.75 253.45 180.85 245.4 171.2 238.3 169.05 234.1 153.95 204.45 186.85 185.25"/><path fill="#e50020" d="M123.6 145.8 Q125.55 146.7 128.25 144.3 L130.6 141.7 133.0 154.5 Q124.15 160.6 121.3 161.4 119.0 162.05 106.3 151.75 93.1 141.0 88.9 134.0 86.8 130.55 87.9 127.1 88.9 124.2 91.85 122.05 94.65 120.1 97.55 119.85 100.55 119.65 101.75 121.55 104.3 125.7 112.75 135.1 121.35 144.8 123.6 145.8"/><path fill="#c60019" d="M128.6 148.0 Q130.2 146.25 131.35 145.6 L133.0 154.5 Q124.15 160.6 121.3 161.4 119.0 162.05 106.3 151.75 93.1 141.0 88.9 134.0 86.9 130.65 90.5 127.25 L97.3 122.5 114.7 141.35 Q123.95 150.65 126.8 149.9 L128.6 148.0"/><path fill="#dbd5ca" d="M25.3 88.95 Q32.7 98.95 36.95 100.1 44.05 102.0 52.5 101.7 64.0 101.25 72.85 96.45 L95.5 133.4 Q89.3 135.65 79.5 137.2 66.1 139.3 60.75 136.6 56.75 134.6 45.9 126.3 34.65 117.65 28.8 114.45 18.5 108.85 15.65 105.95 10.85 101.15 10.0 92.15 9.0 81.6 10.35 76.25 11.8 70.45 15.2 74.7 17.6 77.7 25.3 88.95"/><path fill="#b3aea6" d="M23.6 95.0 Q23.75 92.65 25.65 94.35 29.05 97.4 32.3 98.75 L36.95 100.1 Q44.05 102.0 52.5 101.7 64.0 101.25 72.85 96.45 L95.5 133.4 Q89.3 135.65 79.5 137.2 66.1 139.3 60.75 136.6 56.85 134.6 48.35 128.1 L33.85 117.5 Q28.4 112.8 24.85 101.65 23.45 97.2 23.6 95.0"/><path fill="#e50020" d="M112.5 67.0 Q115.15 74.45 115.15 84.8 115.15 93.25 111.1 108.85 106.7 125.75 102.6 128.7 93.75 135.1 87.4 134.8 83.9 134.65 75.05 130.55 68.9 127.7 68.65 121.45 68.55 119.85 70.75 105.5 72.2 96.15 68.45 87.9 65.85 82.3 54.0 64.85 45.15 51.8 28.85 45.85 23.65 43.95 16.0 42.25 L5.45 39.75 Q1.35 38.55 4.15 34.8 6.65 31.55 13.6 27.3 20.35 23.25 27.85 20.3 35.85 17.2 40.8 16.95 52.05 16.4 66.45 22.7 82.6 29.75 95.8 42.75 108.15 55.0 112.5 67.0"/><path fill="#c60019" d="M48.1 29.95 Q53.65 29.5 62.65 34.05 71.2 38.35 80.25 45.75 101.05 62.7 105.05 77.05 108.9 90.75 107.55 109.0 106.3 126.05 102.6 128.7 93.75 135.1 87.4 134.8 83.9 134.65 75.05 130.55 68.9 127.7 68.65 121.45 68.55 119.85 70.75 105.5 72.2 96.15 68.45 87.9 65.85 82.3 54.0 64.85 47.4 55.1 35.65 49.15 28.75 45.65 17.55 42.6 10.5 40.7 23.4 35.75 35.9 30.95 48.1 29.95"/><path fill="#e50020" d="M33.65 45.2 Q35.0 42.85 38.0 41.75 46.0 38.85 51.05 44.5 53.6 47.3 54.5 50.7 55.05 58.55 47.95 62.0 44.0 63.9 36.55 64.55 32.7 64.85 31.9 62.8 31.35 61.3 31.7 54.15 32.0 48.05 33.65 45.2"/><path fill="#e50020" d="M81.8 70.6 Q83.75 74.65 84.1 79.15 83.55 83.6 78.85 86.75 74.8 89.55 67.9 91.4 59.9 93.55 58.8 90.5 57.4 86.75 61.5 76.9 65.75 66.55 70.35 65.05 78.0 62.55 81.8 70.6"/><path fill="#c60019" d="M48.8 42.3 Q48.8 36.9 51.65 43.25 L54.5 50.7 Q55.05 58.55 47.95 62.0 44.0 63.9 36.55 64.55 L33.35 64.3 Q32.25 63.85 31.85 62.6 36.5 61.5 42.35 55.2 48.8 48.25 48.8 42.3"/><path fill="#c60019" d="M84.2 74.2 Q84.6 76.9 84.1 79.15 83.55 83.6 78.85 86.75 75.85 88.8 70.35 90.65 64.1 92.75 60.95 92.1 72.15 83.95 74.5 81.6 82.15 73.75 79.15 66.45 83.45 68.75 84.2 74.2"/><path fill="#e50020" d="M231.95 89.7 Q240.5 104.6 246.75 119.15 252.4 121.35 257.9 130.3 263.2 138.9 263.0 144.45 L262.65 161.3 Q261.45 174.2 256.1 181.9 L245.7 196.85 Q236.05 210.0 228.7 217.1 225.15 220.5 219.95 231.3 215.5 240.45 212.9 241.0 210.35 241.55 204.05 231.75 196.1 219.4 190.7 215.05 182.75 208.65 176.1 210.0 169.8 211.25 169.05 218.05 168.65 221.75 170.85 228.4 L174.0 237.2 Q174.95 240.3 172.15 239.65 169.25 239.0 163.4 234.35 160.05 231.7 154.65 224.25 148.55 215.8 143.5 206.15 130.0 180.1 132.7 162.15 L132.6 128.8 Q129.55 122.2 132.3 104.15 135.45 83.7 144.2 68.95 148.35 62.0 154.8 55.6 162.15 48.35 170.0 44.55 190.05 34.85 204.65 51.1 218.9 66.95 231.95 89.7"/><path fill="#c60019" d="M204.65 51.1 L208.35 55.35 Q206.3 57.05 203.95 57.8 216.4 72.5 224.9 87.05 231.75 98.7 239.5 116.65 231.25 116.5 229.2 118.3 228.4 119.05 229.25 119.6 230.15 120.2 232.25 120.25 236.55 120.35 243.15 123.8 249.65 127.2 251.95 130.45 254.55 134.05 255.95 137.15 257.6 140.9 258.0 144.9 259.05 157.15 258.9 163.25 258.4 178.7 253.05 186.45 L244.15 199.15 Q236.05 210.0 228.7 217.1 225.15 220.5 219.95 231.3 215.5 240.45 212.9 241.0 210.35 241.55 204.05 231.75 196.1 219.4 190.7 215.05 182.75 208.65 176.1 210.0 169.8 211.25 169.05 218.05 168.65 221.75 170.85 228.4 L174.0 237.2 Q175.15 241.2 174.2 241.15 173.35 241.1 171.3 238.0 166.1 230.15 164.5 222.1 163.15 215.5 165.7 210.35 L167.45 207.25 Q168.2 205.95 167.95 205.3 159.75 184.5 156.55 143.35 153.7 106.1 156.35 77.8 156.55 75.55 149.5 79.1 140.0 83.9 137.2 84.35 140.2 75.65 144.2 68.95 148.35 62.0 154.8 55.6 162.15 48.35 170.0 44.55 190.05 34.85 204.65 51.1"/><path fill="#dbd5ca" d="M199.0 175.0 Q197.0 173.7 192.25 183.95 188.5 192.0 186.5 198.7 180.7 194.45 171.05 184.0 L160.0 172.0 Q156.95 169.05 153.4 177.65 151.4 182.55 147.65 193.95 137.4 183.1 133.85 166.2 132.7 160.55 132.1 153.2 L131.3 142.9 Q129.75 128.05 134.2 112.85 138.35 98.8 143.65 95.85 L148.5 103.5 Q153.65 111.4 155.25 112.6 156.45 113.5 162.65 107.85 171.75 99.45 179.55 94.7 195.8 111.55 210.25 147.7 218.75 169.1 224.1 189.8 220.9 185.75 210.75 180.65 200.55 176.0 199.0 175.0"/><path fill="#b3aea6" d="M199.0 175.0 Q197.0 173.7 192.25 183.95 188.5 192.0 186.5 198.7 181.05 194.65 171.85 185.0 L160.2 172.35 Q157.05 160.0 156.1 135.45 L155.85 113.3 Q156.7 113.95 158.45 112.5 L162.95 108.2 Q171.45 99.65 179.55 94.7 195.8 111.55 210.25 147.7 218.75 169.1 224.1 189.8 220.9 185.75 210.75 180.65 200.55 176.0 199.0 175.0"/><path fill="#00a4e3" d="M168.8 125.5 Q181.5 115.95 190.35 107.8 198.75 120.35 206.15 136.65 197.35 145.95 178.95 157.4 161.95 167.9 159.05 167.45 156.6 167.05 147.85 160.8 138.95 154.5 132.4 148.45 131.2 141.45 131.85 130.45 132.45 120.25 134.15 113.7 137.4 119.85 145.55 127.55 152.9 134.4 154.85 134.65 156.35 134.85 168.8 125.5"/><path fill="#008fc5" d="M169.3 125.1 Q181.5 115.95 190.35 107.8 198.75 120.35 206.15 136.65 197.35 145.95 178.95 157.4 161.95 167.9 159.05 167.45 158.75 167.4 157.2 150.65 155.65 133.9 155.85 133.9 157.35 134.1 169.3 125.1"/><path fill="#e50020" d="M195.4 78.55 Q198.4 71.8 204.25 70.9 209.2 70.15 214.45 75.8 219.55 81.3 220.85 88.25 222.45 96.7 219.45 103.15 216.5 109.55 210.6 110.6 204.7 111.6 200.05 107.0 195.35 102.3 193.85 93.85 192.35 85.3 195.4 78.55"/><path fill="#c60019" d="M193.85 93.85 Q192.35 85.3 195.4 78.55 198.4 71.8 204.25 70.9 209.2 70.15 214.45 75.8 219.55 81.3 220.85 88.25 221.55 91.95 221.3 95.25 213.1 85.55 207.5 90.0 202.05 94.25 202.05 108.65 199.05 106.6 196.9 102.85 194.75 98.95 193.85 93.85"/><path fill="#c60019" d="M245.7 166.4 L250.35 164.8 Q253.9 163.35 254.75 163.25 262.55 188.3 273.0 202.05 285.8 218.8 307.3 226.25 307.55 226.75 309.6 228.1 L311.8 230.0 Q295.45 224.2 291.45 222.5 281.55 218.3 274.8 212.8 259.0 199.95 245.7 166.4"/><path fill="#0d131a" d="M23.45 87.2 L22.15 84.6 Q28.7 88.85 42.2 87.95 51.85 87.35 59.65 84.95 L58.7 86.8 Q52.9 88.95 45.7 90.1 31.35 92.3 23.45 87.2"/><path fill="#0d131a" d="M142.25 280.0 L150.75 281.45 Q149.8 282.35 149.15 283.6 L140.45 281.8 142.25 280.0"/><path fill="#0d131a" d="M188.2 250.3 Q191.0 252.65 191.4 264.4 191.85 276.85 187.85 282.05 184.3 286.65 168.75 285.95 L168.8 284.35 168.95 282.95 Q181.5 283.05 185.0 279.95 187.1 278.15 188.0 270.05 189.15 260.2 186.4 250.1 L187.25 250.0 188.2 250.3"/><path fill="#0d131a" d="M133.05 236.7 Q132.55 239.25 132.75 243.15 128.55 235.95 130.75 228.75 132.6 222.45 138.1 216.6 142.8 211.55 146.65 210.15 L147.4 212.2 Q144.0 213.4 140.0 218.05 135.5 223.2 133.8 228.95 132.6 233.0 133.05 236.7"/><path fill="#0d131a" d="M166.85 236.3 L168.85 237.1 Q167.8 239.8 165.55 242.55 L164.1 240.9 Q166.0 238.45 166.85 236.3"/><path fill="#0d131a" d="M136.55 268.9 L138.2 267.05 Q139.8 268.85 141.55 272.3 143.3 275.7 143.8 277.95 L143.95 279.2 143.65 281.0 Q143.4 281.9 143.0 282.15 140.9 283.55 132.55 285.15 124.1 286.8 122.25 286.05 121.7 285.85 121.55 285.25 121.3 284.05 123.55 278.85 124.2 279.95 125.05 280.7 124.3 283.1 124.2 284.0 126.05 284.3 133.0 282.85 140.1 281.3 142.0 280.05 142.3 279.85 142.3 278.7 142.0 276.5 139.9 273.15 138.0 270.2 136.55 268.9"/><path fill="#0d131a" d="M146.3 288.9 Q145.6 288.85 145.25 288.35 144.85 287.85 144.9 287.15 145.05 284.25 151.15 278.65 157.5 272.85 161.15 272.95 163.3 273.0 165.3 274.65 166.85 275.95 167.85 277.7 170.05 281.65 170.0 285.75 169.3 287.2 158.65 288.25 L146.3 288.9 M160.85 275.4 Q158.85 275.35 155.5 277.95 152.35 280.35 149.95 283.5 148.15 285.9 148.15 286.9 L158.75 286.1 Q166.8 285.0 168.1 284.15 168.15 283.45 167.45 281.8 166.65 279.85 165.4 278.25 163.05 275.45 160.85 275.4"/><path fill="#0d131a" d="M171.35 240.5 Q169.0 243.35 166.65 245.05 L165.7 243.45 167.5 241.05 169.1 238.8 Q169.2 238.75 170.15 239.45 L171.35 240.5"/><path fill="#0d131a" d="M179.7 243.45 L180.9 244.7 179.85 246.35 175.95 251.0 Q169.4 258.0 163.9 257.15 L162.9 256.8 164.5 255.6 Q166.65 255.8 168.8 254.35 170.65 253.1 173.75 249.8 L179.7 243.45"/><path fill="#0d131a" d="M132.5 243.3 Q130.3 244.65 128.05 246.85 L125.6 245.55 Q127.6 243.55 130.15 241.85 L132.4 240.45 132.65 243.15 132.5 243.3"/><path fill="#0d131a" d="M155.5 237.4 Q151.35 236.3 146.15 237.35 L145.4 235.35 Q151.55 234.2 156.6 235.65 161.8 237.1 165.0 241.05 169.75 246.85 168.2 252.0 167.55 254.05 166.0 255.55 164.7 256.8 163.45 257.15 L163.5 257.15 160.75 257.8 Q153.05 259.55 149.5 261.1 146.55 262.4 140.8 267.4 134.35 273.05 129.6 279.05 L127.25 281.65 Q126.05 282.65 124.95 282.3 122.1 281.4 120.3 274.85 119.15 270.65 118.8 266.0 118.45 260.6 119.4 256.65 L120.0 260.9 Q120.3 263.6 120.9 264.95 L120.95 265.85 Q121.35 271.2 122.55 275.05 123.75 278.9 125.2 279.35 126.25 279.7 127.9 277.7 133.05 271.25 139.55 265.35 145.6 259.8 148.6 258.45 151.1 257.3 154.85 256.65 L160.3 255.7 162.85 255.1 Q163.65 254.85 164.5 254.0 165.7 252.85 166.15 251.35 L166.4 249.6 Q166.5 246.25 163.35 242.45 160.2 238.6 155.5 237.4"/><path fill="#0d131a" d="M118.8 246.8 Q119.4 244.6 120.7 244.45 123.3 244.2 126.65 245.75 130.25 247.4 131.55 249.95 132.45 251.7 131.8 252.0 131.1 252.25 130.4 251.05 129.55 249.65 126.6 248.15 123.25 246.45 121.9 247.7 120.3 249.1 121.1 257.4 121.9 265.8 124.05 267.6 125.3 268.65 125.0 269.15 124.7 269.65 123.1 268.9 120.6 267.75 119.1 259.1 117.7 250.75 118.8 246.8"/><path fill="#0d131a" d="M134.15 229.6 Q135.8 225.9 136.9 226.15 140.1 226.9 144.6 232.1 149.05 237.25 149.1 240.1 149.1 241.55 148.35 241.3 L147.6 240.75 Q146.35 237.9 142.6 233.55 138.4 228.75 136.85 229.45 135.05 230.25 133.9 237.25 132.65 244.35 134.35 246.05 136.1 247.75 135.55 248.3 135.05 248.8 133.4 247.35 131.05 245.3 131.75 238.95 132.3 233.6 134.15 229.6"/><path fill="#0d131a" d="M123.1 129.75 Q124.75 127.25 127.5 126.05 130.0 124.95 132.15 125.45 L131.8 127.05 Q130.35 126.7 128.7 127.75 127.05 128.85 125.6 131.0 122.15 136.35 122.55 144.85 120.85 143.7 119.7 142.0 120.0 134.45 123.1 129.75"/><path fill="#0d131a" d="M132.6 175.3 L132.55 178.4 Q126.4 170.1 123.15 161.2 L125.35 159.35 Q127.8 167.0 132.6 175.3"/><path fill="#0d131a" d="M326.75 239.5 Q330.9 234.25 333.1 228.15 L335.6 227.5 Q333.25 235.8 328.6 241.35 325.1 245.55 322.3 246.3 L321.7 244.25 Q323.35 243.8 326.75 239.5"/><path fill="#0d131a" d="M388.3 216.65 Q397.85 223.8 399.75 231.1 400.45 233.8 399.7 235.15 398.9 236.45 397.4 235.4 389.45 230.05 378.3 226.35 356.2 219.05 338.15 225.0 337.5 224.1 336.65 223.35 356.8 217.45 375.5 222.25 386.2 225.0 394.65 230.65 398.55 233.25 395.4 228.6 392.3 223.95 387.9 220.35 376.25 209.8 358.0 203.1 321.6 189.7 287.05 207.45 L285.8 206.0 Q314.95 189.95 345.6 196.4 367.55 201.05 388.3 216.65"/><path fill="#0d131a" d="M328.2 196.1 L331.3 196.1 Q327.4 200.05 326.9 207.15 326.55 212.4 328.05 218.65 327.0 218.2 325.75 217.9 324.95 214.45 324.95 210.6 325.0 205.2 326.75 200.9 L328.55 197.7 Q322.4 199.1 319.2 200.65 313.8 203.3 310.45 208.4 L309.1 207.55 Q312.65 202.1 318.5 199.2 321.85 197.6 328.2 196.1"/><path fill="#0d131a" d="M331.0 219.25 Q339.95 222.75 340.25 225.6 340.45 227.6 330.2 231.45 319.4 235.55 319.25 235.8 L317.9 234.9 Q318.45 234.05 327.7 230.15 336.7 226.35 336.75 225.9 336.9 224.65 329.65 221.25 322.75 217.95 320.55 217.7 L320.7 216.1 Q323.75 216.45 331.0 219.25"/><path fill="#0d131a" d="M271.85 193.65 Q262.1 179.0 261.1 168.25 L262.35 163.15 Q263.35 174.1 273.4 190.4 284.1 207.7 292.9 209.55 299.75 211.0 307.35 221.25 315.8 232.55 315.35 243.45 314.3 267.05 276.25 271.85 241.65 276.15 210.85 263.8 190.2 255.5 174.9 241.6 174.9 239.4 174.3 238.1 188.5 251.85 208.1 260.25 238.8 273.4 274.5 268.95 293.05 266.65 302.9 260.1 312.75 253.6 313.2 243.35 313.6 233.3 305.75 222.65 298.65 213.0 292.45 211.65 282.45 209.5 271.85 193.65"/><path fill="#0d131a" d="M254.0 185.35 L255.45 184.65 Q259.55 193.15 263.7 198.95 271.35 209.65 281.1 215.4 L280.25 216.8 Q268.85 211.85 261.5 200.45 259.05 196.65 256.8 191.75 L254.0 185.35"/><path fill="#0d131a" d="M272.5 193.3 L274.0 192.65 Q275.1 195.25 274.25 199.8 273.4 204.25 271.5 206.45 270.65 207.4 269.5 207.5 L267.9 207.3 268.3 205.7 Q268.9 205.85 269.85 204.85 271.55 202.9 272.45 199.2 273.35 195.35 272.5 193.3"/><path fill="#0d131a" d="M247.4 237.85 Q262.05 227.1 268.2 206.8 L269.75 207.3 Q263.4 228.35 248.8 240.0 237.1 249.4 222.0 251.55 207.45 253.6 191.6 249.05 179.25 245.45 174.6 241.35 L174.85 237.85 Q177.95 242.65 190.7 246.25 205.5 250.45 220.9 248.25 236.25 246.05 247.4 237.85"/><path fill="#0d131a" d="M274.85 249.1 L272.6 253.45 Q262.35 264.4 243.75 266.8 229.3 268.7 218.6 265.45 L214.1 263.1 Q225.8 266.65 240.65 264.9 261.55 262.5 274.85 249.1"/><path fill="#0d131a" d="M123.95 145.1 Q125.3 145.7 127.4 144.0 L129.95 141.2 131.3 142.15 Q129.9 144.05 128.5 145.2 125.55 147.6 123.25 146.55 121.3 145.65 114.85 138.65 108.95 132.3 104.25 126.35 L105.85 123.55 Q110.05 129.55 115.9 136.6 122.25 144.35 123.95 145.1"/><path fill="#0d131a" d="M87.05 135.0 L90.25 134.6 Q94.9 141.45 107.25 151.45 118.85 160.8 121.1 160.6 123.5 159.95 132.55 153.85 L133.45 155.2 Q124.0 162.5 121.05 163.3 118.25 164.05 105.0 153.2 91.55 142.1 87.05 135.0"/><path fill="#0d131a" d="M123.4 146.6 L123.85 145.05 Q125.35 145.45 126.5 147.6 127.55 149.45 127.9 151.9 128.3 154.5 127.8 156.45 127.25 158.4 125.9 159.25 L123.55 159.85 Q124.6 159.2 125.55 156.75 126.6 154.1 126.3 152.15 126.0 150.1 125.15 148.5 124.3 146.85 123.4 146.6"/><path fill="#0d131a" d="M11.6 71.05 Q13.15 70.45 16.05 74.05 L20.7 80.6 Q25.25 87.2 29.4 91.75 34.65 97.55 37.9 98.4 43.45 99.95 49.5 100.15 61.45 100.45 71.3 95.15 L72.1 97.8 Q61.8 103.4 49.0 103.0 42.75 102.8 36.7 101.15 33.05 100.15 27.8 93.9 24.7 90.2 18.95 81.8 L14.4 75.4 Q13.2 73.9 12.6 74.05 11.5 74.5 10.95 78.95 10.35 84.25 11.05 92.05 11.85 100.4 16.0 104.85 18.8 107.8 28.0 112.8 L29.3 113.5 Q33.25 115.7 38.3 119.25 L47.2 125.9 Q57.1 133.55 61.2 135.65 66.25 138.2 79.3 136.15 89.05 134.65 95.15 132.4 L95.8 133.5 Q69.55 143.3 61.15 139.05 58.7 137.75 54.0 134.1 L45.9 127.65 Q34.1 118.6 28.3 115.4 L27.0 114.7 19.8 110.95 Q16.1 109.0 14.05 107.3 8.85 102.9 8.05 94.15 7.5 88.65 8.05 81.65 8.8 72.2 11.6 71.05"/><path fill="#0d131a" d="M61.05 77.2 L53.1 65.45 Q51.4 62.95 49.55 60.9 50.7 60.2 51.0 59.25 L54.9 64.25 55.9 65.75 62.2 75.05 61.05 77.2"/><path fill="#0d131a" d="M116.85 86.45 L116.85 86.7 Q116.75 95.05 112.45 110.0 107.7 126.35 103.2 129.6 94.5 135.9 88.05 135.9 84.0 135.9 76.15 132.25 L74.6 131.55 Q68.55 128.75 67.4 124.2 66.5 120.8 68.0 112.3 L69.7 105.35 Q70.85 97.6 68.55 91.2 L70.8 90.85 Q73.05 97.6 71.85 105.65 L70.9 111.2 Q69.35 119.95 69.85 122.9 70.55 127.3 75.5 129.6 L77.05 130.3 Q84.5 133.8 88.2 133.75 93.85 133.7 101.95 127.85 105.75 125.05 110.05 108.45 114.05 93.05 114.05 84.8 114.05 75.0 111.7 68.1 107.45 55.85 95.05 43.55 81.95 30.65 65.85 23.65 51.7 17.5 40.85 18.05 32.2 18.45 18.25 25.95 4.6 33.3 4.15 37.25 3.95 38.2 5.8 38.75 L13.3 40.55 23.05 42.9 Q28.85 44.5 33.5 46.6 L32.85 49.05 Q27.8 46.8 21.45 45.1 L11.1 42.65 4.05 41.55 Q-0.7 40.3 0.1 37.35 1.55 32.05 15.85 23.7 30.2 15.35 38.8 14.85 52.65 14.0 67.6 20.2 83.9 26.9 97.65 40.5 110.4 53.1 114.65 67.5 116.85 75.05 116.85 86.45"/><path fill="#0d131a" d="M32.35 44.7 Q34.05 41.3 36.7 40.65 39.1 40.05 39.6 40.9 40.05 41.75 38.25 42.55 35.85 43.65 34.4 46.35 32.75 49.4 32.5 54.2 L32.5 54.85 32.35 60.45 Q32.45 62.6 33.1 63.25 33.9 63.95 36.5 63.75 43.5 63.1 48.25 60.05 53.7 56.45 53.7 50.75 53.7 46.5 54.45 47.3 55.15 48.05 55.3 50.65 55.7 58.6 48.8 62.85 44.15 65.7 37.85 66.25 L34.0 66.5 Q31.9 66.55 31.3 66.0 30.25 64.95 30.0 62.35 29.85 60.4 30.05 55.75 L30.1 55.15 Q30.4 48.5 32.35 44.7"/><path fill="#0d131a" d="M82.0 82.45 L83.3 79.05 Q83.9 77.3 84.6 77.3 85.3 77.35 84.9 79.25 L84.3 83.2 Q83.6 85.6 80.8 87.45 76.2 90.6 67.85 93.15 57.4 96.3 56.8 91.7 56.35 88.55 59.25 80.2 62.1 71.95 65.05 67.6 66.35 65.8 67.5 65.1 68.45 64.55 70.35 64.25 72.05 64.0 71.9 64.6 71.75 65.2 70.4 65.85 L68.85 66.65 67.05 69.0 Q63.85 73.7 61.3 80.9 58.75 88.05 59.55 90.25 59.75 90.9 60.7 91.2 63.3 92.05 69.6 90.05 75.25 88.25 78.4 86.1 80.9 84.4 82.0 82.45"/><path fill="#0d131a" d="M205.45 50.4 Q220.95 67.6 232.8 87.3 242.55 103.45 247.75 117.45 259.35 122.85 263.35 136.2 265.35 142.85 265.0 148.45 L264.95 153.95 Q264.85 162.3 263.7 168.15 262.05 176.5 258.0 182.35 L256.6 184.4 Q251.75 191.6 245.15 200.0 236.3 211.2 229.45 217.85 227.3 219.95 225.0 224.45 L221.4 232.05 217.6 239.85 Q215.5 243.45 213.5 243.85 211.35 244.3 208.5 240.55 L202.95 232.0 Q199.35 226.4 197.2 223.55 193.5 218.65 190.0 215.85 185.9 212.55 181.9 211.4 177.85 210.25 174.8 211.5 170.7 213.2 170.1 218.2 169.8 220.95 172.05 227.6 L176.65 239.95 Q178.8 245.5 174.25 243.3 171.0 241.75 162.75 235.2 158.85 232.1 153.15 224.65 146.55 215.95 141.45 206.2 127.65 179.8 132.15 160.55 L133.55 163.45 Q132.4 182.0 145.2 206.7 150.05 216.0 155.75 223.9 160.85 231.0 164.1 233.55 174.15 241.55 173.15 238.65 L169.7 229.2 Q166.75 220.5 166.95 217.3 167.2 213.7 168.75 211.55 170.1 209.65 172.75 208.55 176.3 207.1 181.55 208.75 186.6 210.35 191.35 214.2 195.0 217.15 198.8 222.15 L204.75 230.85 209.15 237.3 Q211.45 240.2 212.7 239.95 214.1 239.65 215.95 236.65 L219.2 230.3 223.1 222.8 Q225.5 218.7 227.95 216.3 234.5 209.95 243.1 198.5 L253.8 183.4 255.2 181.3 Q259.75 174.8 261.2 164.45 262.0 158.7 261.95 148.65 L261.95 144.45 Q262.15 138.55 257.8 130.9 252.9 122.25 246.35 120.15 243.55 119.25 236.8 118.35 231.95 117.65 232.6 117.1 233.4 116.5 238.6 116.4 241.2 116.35 243.65 116.45 227.05 77.55 203.85 51.8 194.1 41.0 181.55 42.25 170.85 43.3 159.7 52.65 150.65 60.3 145.15 69.5 137.15 82.9 134.15 100.5 132.0 112.85 132.85 118.4 L131.65 129.25 Q128.4 122.45 131.2 104.1 134.35 83.45 143.3 68.4 149.5 58.0 159.3 50.15 170.5 41.2 181.35 40.1 195.0 38.75 205.45 50.4"/><path fill="#0d131a" d="M169.9 103.3 L163.05 109.75 158.3 114.35 Q156.45 115.9 155.2 114.95 153.75 113.85 149.2 106.85 L143.35 97.4 Q139.4 100.55 135.8 112.75 132.15 125.15 132.45 134.95 133.0 152.25 135.4 163.5 138.8 179.6 146.95 191.85 147.8 193.15 148.4 190.45 149.05 186.95 149.4 185.85 152.05 177.9 153.5 174.9 155.5 170.75 157.65 170.2 159.25 169.75 160.75 171.2 L166.1 176.95 177.7 189.6 Q185.3 197.65 185.95 196.9 L189.9 185.1 Q193.7 173.85 196.1 173.0 L197.9 173.35 Q199.05 173.75 199.6 174.1 L204.4 176.45 Q210.3 179.2 213.45 180.9 218.9 183.8 222.05 186.35 216.15 164.9 207.9 144.85 194.4 112.0 179.4 96.1 174.75 99.0 169.9 103.3 M177.1 93.95 Q178.55 92.95 179.4 93.0 180.15 93.0 181.05 94.0 198.05 111.95 213.25 150.55 218.25 163.3 222.25 176.4 225.3 186.2 225.8 189.1 226.4 192.25 225.85 192.45 225.35 192.6 223.25 190.5 221.4 188.65 210.1 182.1 199.2 175.85 197.7 175.5 196.5 175.15 192.7 184.6 188.9 194.0 188.2 198.9 187.95 200.8 186.85 200.5 186.25 200.35 184.55 199.05 L171.45 185.6 Q159.25 172.9 158.2 172.3 157.0 171.6 153.25 182.0 150.2 190.65 149.35 194.35 149.05 195.9 147.95 195.4 L146.9 194.65 Q136.8 183.2 132.5 161.95 131.2 155.3 130.6 148.5 L130.25 143.0 Q128.8 129.0 133.15 114.2 136.75 101.85 142.15 95.15 143.05 94.0 143.7 94.2 L144.6 95.3 Q145.85 97.65 149.45 103.4 153.35 109.75 154.45 110.85 155.55 112.0 156.15 112.0 L157.5 111.1 167.3 102.0 Q173.5 96.25 177.1 93.95"/><path fill="#0d131a" d="M169.8 122.75 Q183.7 112.65 189.7 107.1 L190.8 108.3 Q184.6 114.05 171.7 124.2 158.15 134.9 155.9 135.55 153.45 136.2 144.3 127.15 135.95 118.9 134.1 115.55 L134.1 112.75 Q136.05 116.25 144.4 124.7 152.9 133.3 154.5 133.0 156.45 132.45 169.8 122.75"/><path fill="#0d131a" d="M173.45 141.1 Q190.2 129.75 197.85 121.7 L199.05 122.85 Q191.1 131.2 174.75 143.05 159.4 154.2 156.7 154.4 154.4 154.6 143.5 145.5 133.2 136.9 131.0 133.85 L132.35 132.9 Q134.3 135.7 144.05 143.65 153.95 151.7 155.7 151.65 158.2 151.4 173.45 141.1"/><path fill="#0d131a" d="M205.5 136.25 L206.75 137.3 Q201.5 143.35 182.1 156.2 162.2 169.35 158.6 168.55 155.75 167.85 148.3 162.4 L136.65 153.25 132.2 149.75 132.45 149.45 132.0 149.85 Q131.35 148.95 131.85 148.45 L133.05 148.4 137.7 151.95 Q153.9 165.15 158.15 166.1 160.9 166.75 180.4 154.7 200.2 142.4 205.5 136.25"/><path fill="#0d131a" d="M197.7 76.1 Q195.35 79.35 194.55 84.0 193.75 88.7 194.65 93.7 196.1 101.8 200.5 106.3 204.9 110.8 210.45 109.8 214.65 109.05 217.45 105.1 219.6 101.95 220.25 97.6 220.95 93.25 220.05 88.4 218.8 81.6 213.8 76.3 208.85 71.05 204.4 71.7 200.4 72.3 197.7 76.1 M193.05 94.0 Q192.1 88.65 193.0 83.65 193.85 78.7 196.35 75.2 199.45 70.85 204.15 70.1 209.5 69.3 215.25 75.5 220.75 81.45 222.1 88.55 223.1 93.7 222.3 98.6 221.55 103.55 219.2 106.9 216.2 111.3 211.15 112.15 204.9 113.25 199.75 108.05 194.6 102.85 193.05 94.0"/><path fill="#0d131a" d="M193.4 88.95 Q194.9 72.85 203.35 71.1 206.8 70.4 210.4 72.55 213.85 74.65 216.1 78.55 219.8 85.1 218.7 90.7 217.45 96.85 210.7 99.25 204.5 101.45 198.5 97.05 193.0 93.05 193.4 88.95"/><path fill="#ffffff" d="M199.5 77.25 Q202.35 74.9 205.95 75.25 209.55 75.65 211.8 78.6 214.05 81.55 213.65 85.25 213.25 89.0 210.4 91.35 207.55 93.7 203.95 93.3 200.3 92.95 198.05 90.0 195.8 87.05 196.2 83.3 196.65 79.6 199.5 77.25"/><path fill="#0d131a" d="M201.75 82.4 Q202.3 81.85 203.05 81.95 203.75 82.05 204.2 82.65 204.65 83.3 204.55 84.15 204.5 84.95 203.9 85.5 203.3 86.05 202.6 85.95 201.9 85.9 201.45 85.25 201.0 84.6 201.05 83.75 201.15 82.9 201.75 82.4"/><path fill="#0d131a" d="M242.85 160.5 Q238.3 156.25 238.6 148.25 238.95 139.05 246.65 133.2 248.3 131.95 248.25 133.0 L247.85 134.3 Q242.35 140.45 242.0 147.65 241.7 153.55 244.8 159.45 246.0 161.65 245.25 161.9 244.55 162.1 242.85 160.5"/><path fill="#c60019" d="M236.95 233.05 L225.75 235.45 Q225.45 229.55 227.1 226.7 228.5 224.25 230.9 224.65 233.1 224.95 234.9 227.35 236.8 229.9 236.95 233.05"/><path fill="#e50020" d="M251.35 257.05 Q251.85 266.5 248.7 274.65 246.0 281.45 242.1 284.55 239.2 286.85 237.25 283.7 236.8 283.05 234.5 276.85 232.75 272.0 229.8 267.95 L223.0 259.15 Q219.1 253.9 218.95 250.4 218.85 247.5 221.45 244.05 222.5 242.7 224.85 237.35 226.55 233.5 228.8 232.6 L235.35 232.4 Q237.2 233.45 239.25 236.95 L251.35 257.05"/><path fill="#c60019" d="M251.35 257.05 Q251.85 266.5 248.7 274.65 246.0 281.45 242.1 284.55 241.45 285.15 240.65 285.4 243.95 269.7 242.85 259.8 241.35 246.7 232.05 231.25 237.15 233.15 239.25 236.95 L251.35 257.05"/><path fill="#e50020" d="M247.7 246.55 Q245.0 248.4 242.15 249.55 236.4 251.8 235.7 248.35 234.8 244.25 237.25 238.3 239.75 232.4 242.55 231.85 244.05 231.55 246.15 236.6 248.4 242.0 247.7 246.55"/><path fill="#c60019" d="M244.6 233.6 Q246.15 235.95 247.1 239.35 248.2 243.3 247.7 246.55 244.5 248.7 241.4 249.8 243.5 247.75 243.9 242.45 L244.6 233.6"/><path fill="#e50020" d="M249.55 262.65 Q247.7 263.4 245.6 263.3 241.45 263.1 240.4 258.9 239.2 253.85 242.8 248.75 246.45 243.65 248.8 247.1 251.5 251.05 251.15 256.35 250.9 260.1 249.55 262.65"/><path fill="#c60019" d="M247.8 246.15 Q248.4 246.5 248.8 247.1 251.5 251.05 251.15 256.35 250.9 260.1 249.55 262.65 L247.15 263.2 Q244.4 263.55 242.65 262.4 245.2 262.05 246.35 258.25 247.45 254.65 247.8 246.15"/><path fill="#ffee7d" d="M206.1 25.05 Q223.25 24.85 224.0 25.95 224.75 27.1 209.85 41.1 195.7 54.45 190.75 58.0 189.7 59.75 186.65 72.8 184.0 84.15 181.95 84.65 179.65 85.2 169.75 78.1 168.05 76.95 158.5 69.6 158.05 69.8 147.85 76.95 137.8 83.95 136.55 84.4 135.3 83.0 135.15 71.3 135.0 60.3 135.8 54.9 132.95 51.9 127.45 38.05 122.1 24.45 122.85 23.25 123.5 22.3 134.45 23.3 L150.5 25.35 Q152.2 22.55 161.45 12.65 171.5 1.95 173.7 1.8 174.45 1.75 178.65 12.45 183.15 23.95 184.95 25.9 L206.1 25.05"/><path fill="#dccd6c" d="M184.6 25.4 Q177.4 27.45 169.8 31.5 162.7 35.3 157.7 39.5 157.2 39.0 162.9 25.05 169.0 9.95 173.7 1.8 174.4 1.75 178.4 11.8 182.8 23.0 184.6 25.4"/><path fill="#dccd6c" d="M166.75 59.45 Q173.05 70.3 180.8 84.55 177.5 83.75 168.5 77.25 L158.5 69.6 149.15 76.05 Q139.8 82.55 137.45 83.95 140.3 72.5 147.4 57.2 154.45 42.0 156.35 43.2 157.95 44.25 166.75 59.45"/><path fill="#dccd6c" d="M224.0 25.95 Q224.75 27.1 209.85 41.1 195.7 54.45 190.75 58.0 190.45 58.55 180.15 52.35 165.9 43.8 161.3 41.3 179.7 35.45 224.0 25.95"/><path fill="#dccd6c" d="M127.45 38.05 Q122.1 24.45 122.85 23.25 L138.1 31.7 154.45 40.7 Q149.05 43.85 141.75 49.95 L135.8 54.9 Q132.95 51.9 127.45 38.05"/><path fill="#e50020" d="M240.85 143.2 Q243.0 137.75 245.3 136.45 245.95 138.2 254.6 143.55 262.7 148.65 263.75 148.75 272.95 135.75 277.2 128.55 278.25 126.75 281.3 128.0 284.1 129.2 287.15 132.35 294.75 140.15 292.35 145.1 289.35 151.4 278.5 159.3 266.75 167.85 263.55 163.15 L251.25 156.65 239.5 150.25 Q238.7 148.5 240.85 143.2"/><path fill="#c60019" d="M239.5 150.25 Q238.7 148.5 240.85 143.2 243.0 137.75 245.3 136.45 245.75 137.65 249.7 140.35 251.1 147.5 254.9 151.5 259.0 155.85 264.25 154.7 270.65 153.4 276.05 145.4 278.75 141.45 284.25 129.8 288.35 132.85 290.95 137.25 293.8 142.1 292.35 145.1 289.35 151.4 278.5 159.3 266.75 167.85 263.55 163.15 L251.25 156.65 239.5 150.25"/><path fill="#dbd5ca" d="M339.55 126.95 Q333.5 153.0 323.1 155.35 310.3 158.15 299.75 156.4 288.8 154.6 287.25 148.8 286.0 144.05 279.05 134.15 271.0 123.2 268.1 118.6 L292.3 78.55 343.9 98.2 Q341.95 116.65 339.55 126.95"/><path fill="#b3aea6" d="M343.9 98.2 Q341.95 116.65 339.55 126.95 333.5 153.0 323.1 155.35 L315.25 156.7 304.5 157.3 Q308.3 155.1 309.8 148.75 311.35 142.0 311.75 141.65 324.2 130.6 325.45 124.6 326.45 119.6 319.7 117.4 315.75 116.15 304.45 115.15 293.5 114.2 289.65 112.8 281.9 110.45 279.65 114.15 278.05 116.8 275.0 128.5 270.2 121.9 268.1 118.6 L292.3 78.55 343.9 98.2"/><path fill="#0d131a" d="M335.95 114.15 Q334.0 125.5 332.95 124.95 332.45 124.65 330.8 122.15 328.85 119.3 327.25 117.75 325.75 116.25 318.1 125.55 309.95 135.5 307.6 135.45 303.95 135.4 293.65 123.85 283.3 112.35 278.05 102.5 L292.3 78.55 337.3 95.65 Q337.95 102.25 335.95 114.15"/><path fill="#e50020" d="M353.65 90.8 L356.1 97.05 Q358.15 104.6 356.1 111.0 355.8 111.95 351.0 107.6 343.9 101.1 340.45 98.65 337.05 102.9 334.0 105.75 329.9 109.5 328.3 108.75 L314.25 97.25 Q301.05 86.45 297.3 85.75 293.15 85.0 286.85 94.45 282.1 101.45 278.45 110.0 274.95 118.1 273.85 120.0 271.65 123.9 269.8 123.35 266.5 122.45 263.6 112.5 260.85 103.35 261.4 98.75 251.95 100.75 250.3 99.2 249.15 98.1 254.05 90.3 259.05 82.4 262.75 79.7 265.7 59.15 279.4 39.15 293.45 18.7 306.35 17.65 321.2 20.1 336.3 46.7 343.85 59.95 348.45 72.75 L351.5 75.65 Q355.1 79.4 357.85 83.6 360.75 87.95 359.1 89.75 357.8 91.15 353.65 90.8"/><path fill="#c60019" d="M357.85 83.6 Q360.75 87.95 359.1 89.75 357.8 91.15 353.65 90.8 L356.1 97.05 Q358.15 104.6 356.1 111.0 355.8 111.95 351.0 107.6 343.9 101.1 340.45 98.65 338.7 100.85 335.4 104.05 332.0 107.3 329.85 108.75 332.85 86.0 326.45 59.35 319.2 29.0 303.95 18.05 L306.35 17.65 Q321.2 20.1 336.3 46.7 343.85 59.95 348.45 72.75 L351.5 75.65 Q355.1 79.4 357.85 83.6"/><path fill="#e50020" d="M273.85 83.95 Q277.05 83.25 278.25 86.0 279.25 88.4 278.5 92.75 277.75 96.85 275.7 100.7 273.55 104.75 270.95 106.45 262.3 112.05 257.1 110.9 256.25 110.7 257.5 106.75 258.8 102.7 261.25 97.95 267.8 85.2 273.85 83.95"/><path fill="#c60019" d="M257.0 108.6 Q261.75 106.15 267.85 101.6 L278.35 93.55 Q277.5 97.55 275.55 101.05 273.45 104.85 270.95 106.45 262.3 112.05 257.1 110.9 256.5 110.75 257.0 108.6"/><path fill="#e50020" d="M275.85 230.95 Q277.75 222.25 278.9 220.0 L322.75 234.45 Q327.4 249.75 326.9 265.6 326.45 278.95 323.95 280.95 322.0 282.5 301.5 281.3 280.7 280.05 274.7 277.75 269.25 275.65 272.6 249.8 273.85 240.25 275.85 230.95"/><path fill="#c60019" d="M303.7 239.6 Q312.8 236.65 322.75 234.45 327.4 249.75 326.9 265.6 326.45 278.95 323.95 280.95 322.8 281.9 313.0 281.75 L293.05 280.7 Q294.25 264.5 293.45 257.75 292.75 251.9 289.85 249.35 285.5 245.5 303.7 239.6"/><path fill="#e50020" d="M322.95 224.7 Q324.3 235.65 319.45 244.3 314.4 253.25 305.5 254.35 296.4 255.5 288.35 248.15 280.3 240.8 279.0 230.15 277.65 219.45 283.15 211.1 288.65 202.75 297.75 201.6 306.85 200.5 314.25 207.25 321.65 214.0 322.95 224.7"/><path fill="#c60019" d="M322.95 224.7 Q324.3 235.65 319.45 244.3 314.4 253.25 305.5 254.35 299.35 255.1 293.25 251.7 298.7 250.9 302.75 245.65 306.5 240.75 308.25 233.05 312.05 216.3 305.2 202.15 312.05 204.0 316.95 210.1 321.9 216.35 322.95 224.7"/><path fill="#ffffff" d="M283.45 273.5 Q288.95 268.15 292.8 270.65 294.7 271.9 297.2 276.55 L299.35 280.95 296.8 284.25 Q293.95 287.7 292.15 288.35 290.4 289.0 285.25 284.6 280.15 279.95 279.5 279.65 279.0 279.4 280.2 277.45 281.45 275.4 283.45 273.5"/><path fill="#dbdcdc" d="M292.8 270.65 Q295.05 270.85 297.45 275.9 298.6 278.45 299.35 280.95 L296.8 284.25 Q293.95 287.7 292.15 288.35 L292.9 282.25 Q293.9 274.9 292.8 270.65"/><path fill="#dbdcdc" d="M328.0 269.15 Q330.4 268.9 334.05 275.7 337.45 282.0 337.25 283.85 337.15 284.95 327.35 282.95 L317.6 280.7 321.4 275.05 Q325.7 269.35 328.0 269.15"/><path fill="#e50020" d="M277.05 226.9 L274.8 234.1 Q274.1 236.5 272.95 243.05 268.6 241.9 266.1 240.45 264.35 239.45 263.7 237.5 263.2 235.85 263.4 232.95 263.6 230.6 265.65 228.8 267.3 227.3 268.35 227.3 L272.45 227.1 277.05 226.9"/><path fill="#c60019" d="M263.3 234.6 Q264.3 235.15 268.5 235.95 L273.85 236.9 272.95 243.05 269.95 241.8 266.7 240.65 Q265.15 239.95 264.5 238.85 263.9 237.8 263.55 236.1 L263.3 234.6"/><path fill="#0d131a" d="M236.2 227.35 Q237.65 230.2 237.75 233.0 L236.15 233.1 Q236.05 230.65 234.75 228.55 233.55 226.65 232.0 225.85 L228.95 225.8 Q227.65 226.65 227.0 229.2 226.35 231.7 226.55 235.4 L224.95 235.45 Q224.7 230.5 225.7 227.3 226.45 224.7 227.9 223.8 230.35 222.15 232.7 223.35 234.75 224.4 236.2 227.35"/><path fill="#0d131a" d="M247.8 274.9 Q251.1 267.4 250.6 258.15 L251.6 255.65 Q253.25 265.25 250.0 274.6 247.25 282.7 242.75 286.25 240.75 287.9 238.85 287.35 237.25 286.85 236.0 284.15 L234.1 279.0 233.5 277.2 Q232.1 273.4 230.2 270.4 228.95 268.45 225.9 264.65 L222.15 259.8 Q217.9 254.1 217.65 250.2 217.4 246.55 220.6 243.4 221.75 242.25 224.35 236.55 226.5 231.7 228.8 230.95 232.45 229.7 235.15 230.95 237.55 232.05 239.4 235.25 L238.3 237.5 Q236.4 234.25 234.85 233.35 232.7 232.15 229.2 233.6 228.35 233.95 226.5 238.0 224.4 242.65 222.35 244.7 219.75 247.25 219.85 249.95 219.95 253.25 223.85 258.5 L227.6 263.3 Q230.7 267.25 232.0 269.3 234.05 272.5 235.5 276.45 L236.15 278.35 Q238.05 284.05 239.5 284.45 240.25 284.65 241.45 283.75 245.25 280.7 247.8 274.9"/><path fill="#0d131a" d="M244.35 230.8 Q246.85 233.2 248.35 237.05 250.35 242.25 248.5 246.65 L246.9 246.4 247.05 244.6 Q247.1 240.75 245.25 236.6 243.65 233.0 242.65 232.65 241.1 233.05 239.3 236.6 236.05 242.7 236.25 246.8 236.5 251.2 234.75 247.8 233.4 245.15 234.7 241.85 L237.85 235.85 Q240.65 230.45 242.55 230.05 243.4 229.9 244.35 230.8"/><path fill="#0d131a" d="M246.05 244.2 Q248.1 243.35 249.5 245.3 252.55 249.8 252.5 255.7 252.45 261.05 250.25 263.05 249.3 263.9 248.65 263.65 248.0 263.35 248.85 262.3 250.15 260.6 250.4 256.5 250.7 251.3 248.15 247.55 247.5 246.6 246.65 247.0 244.5 247.95 242.5 252.1 240.45 256.35 241.2 258.75 241.95 261.0 241.05 260.8 240.15 260.6 239.65 259.05 238.55 256.0 241.0 250.6 243.35 245.35 246.05 244.2"/><path fill="#0d131a" d="M207.05 42.25 Q220.2 30.0 222.6 26.6 219.1 25.9 204.0 26.15 L185.1 26.95 184.25 26.6 Q183.35 26.0 183.05 24.75 182.7 23.35 178.35 13.6 174.1 3.95 173.45 3.0 171.05 4.0 161.65 14.05 152.8 23.5 151.95 25.2 151.5 26.1 150.35 26.4 144.65 25.35 135.55 24.45 L123.9 24.0 Q124.25 26.85 129.35 38.8 134.3 50.35 136.6 54.15 136.95 54.7 136.05 61.95 135.45 71.65 137.05 82.9 137.15 83.55 147.65 75.85 158.25 68.0 158.65 68.35 161.5 71.05 171.4 77.5 181.0 83.75 181.7 83.6 182.55 83.4 185.85 71.15 189.35 58.25 189.85 57.45 L189.95 57.25 190.15 57.1 Q194.4 54.0 207.05 42.25 M222.95 24.2 Q225.4 24.5 225.8 25.25 226.2 25.95 225.05 27.4 220.35 33.35 206.7 45.7 195.55 55.75 191.6 58.7 191.1 59.65 188.5 72.8 185.6 85.55 183.3 86.1 179.0 87.1 159.05 71.4 L158.55 71.2 Q157.8 71.2 156.55 72.15 L137.6 85.85 Q136.3 86.8 135.6 86.3 135.05 85.9 134.75 84.35 134.15 80.65 133.8 72.15 133.35 60.4 134.7 55.2 132.05 51.85 127.1 40.15 122.15 28.45 121.7 24.35 121.5 22.55 121.95 22.1 122.5 21.6 125.05 21.4 L137.3 22.4 150.05 24.15 Q153.55 19.45 162.0 10.6 172.0 0.15 174.5 0.0 175.4 -0.05 178.3 6.8 L185.45 24.8 Q211.5 22.95 222.95 24.2"/><path fill="#0d131a" d="M162.45 23.3 Q167.9 10.3 169.6 7.6 171.3 5.0 171.55 5.35 171.7 5.7 170.6 8.3 167.95 14.35 164.25 23.5 159.8 34.4 158.6 38.05 157.8 40.55 157.15 40.4 156.45 40.25 156.75 38.2 157.05 36.15 162.45 23.3"/><path fill="#0d131a" d="M215.55 27.5 Q220.2 26.8 213.9 29.1 L187.3 35.65 161.7 41.6 Q159.95 42.0 159.55 41.4 159.1 40.8 161.25 40.1 163.55 39.35 188.2 33.65 L215.55 27.5"/><path fill="#0d131a" d="M127.95 27.05 Q126.0 25.65 126.0 25.25 125.95 24.8 127.85 25.55 L141.0 32.6 153.95 39.65 Q155.4 40.35 154.85 40.9 154.3 41.45 153.4 41.15 L141.3 34.7 Q129.8 28.35 127.95 27.05"/><path fill="#0d131a" d="M153.75 43.85 L154.6 44.0 Q155.3 44.35 154.65 45.2 154.0 46.0 146.65 62.6 L138.8 80.4 Q138.1 81.9 137.8 81.65 137.45 81.4 138.15 79.05 140.0 73.2 144.95 61.15 151.35 45.45 153.75 43.85"/><path fill="#0d131a" d="M168.3 60.45 Q177.0 76.35 178.9 79.2 181.05 82.45 180.25 82.15 179.7 81.9 177.7 79.85 176.45 78.6 167.35 62.55 L158.0 45.9 Q157.55 44.95 158.1 44.1 158.7 43.2 159.35 44.25 L168.3 60.45"/><path fill="#0d131a" d="M240.1 149.1 L240.2 149.75 252.0 156.15 263.95 162.4 264.1 162.5 264.25 162.7 Q265.15 164.05 267.25 163.85 271.1 163.55 277.35 159.15 282.8 155.25 287.45 150.3 L289.4 152.7 Q284.95 157.6 278.75 161.6 272.1 165.95 267.8 166.25 L264.6 165.75 Q263.25 165.25 262.65 164.5 258.6 162.5 239.7 151.6 239.0 149.2 239.3 146.0 239.85 139.6 244.9 135.75 L253.05 141.2 Q261.6 146.85 263.45 147.75 266.7 143.1 270.25 136.9 L274.9 128.75 276.35 131.5 Q272.25 138.1 264.4 149.2 L264.15 149.6 263.65 149.55 Q262.65 149.45 255.3 144.95 247.25 140.05 245.15 137.6 243.4 139.1 241.75 143.15 240.15 146.9 240.1 149.1"/><path fill="#0d131a" d="M242.85 160.5 Q239.0 155.1 239.2 149.1 239.45 141.25 246.65 133.2 L247.85 134.3 Q235.75 147.75 244.2 159.6 L242.85 160.5"/><path fill="#0d131a" d="M342.75 99.25 L344.7 101.65 Q342.7 122.8 339.05 135.5 333.5 154.65 324.1 156.75 311.2 159.65 299.85 157.95 287.5 156.1 285.8 149.65 284.0 142.85 274.15 129.15 L269.55 123.25 Q267.5 120.75 268.35 121.7 269.55 123.05 270.8 122.75 L271.8 122.2 273.6 124.85 275.9 127.9 283.55 138.9 Q287.35 144.85 288.3 148.5 289.65 153.6 300.05 155.35 310.4 157.1 322.85 154.3 329.95 152.75 335.15 138.35 340.3 123.95 342.75 99.25"/><path fill="#0d131a" d="M335.55 105.35 Q335.55 104.25 336.5 102.7 L337.4 101.4 Q338.4 110.15 337.0 117.15 336.15 121.6 334.45 124.8 333.55 126.55 332.95 126.3 L331.75 124.9 329.4 121.6 Q327.5 119.05 326.55 118.7 325.75 118.4 318.65 126.55 L310.05 136.0 307.95 137.15 304.9 135.6 Q296.65 131.0 287.75 119.45 281.2 110.95 279.35 106.5 L280.85 104.05 Q282.25 108.65 294.15 121.8 305.95 134.95 308.15 134.45 308.8 134.35 316.7 124.55 324.85 115.25 326.95 116.85 329.2 118.55 330.55 120.2 L332.3 122.75 Q335.45 114.25 335.55 105.35"/><path fill="#0d131a" d="M339.6 97.95 L343.3 92.05 Q344.3 90.9 342.1 98.3 L348.2 103.2 353.95 108.25 Q355.05 109.35 355.45 107.85 L355.7 103.25 Q355.7 100.25 354.1 95.75 352.55 91.2 350.7 89.1 347.95 85.8 347.85 84.2 347.75 82.45 354.2 89.3 L356.2 89.85 Q357.45 90.2 357.85 89.5 358.85 88.75 356.9 84.65 354.55 79.6 349.2 75.1 349.25 80.2 348.4 79.4 347.55 78.65 347.2 74.25 347.0 71.7 343.85 63.8 340.1 54.5 335.15 45.9 320.95 21.3 306.3 18.75 293.9 19.85 280.45 38.55 266.8 57.55 263.85 78.9 265.1 82.15 264.7 82.6 264.4 82.95 263.15 81.4 262.1 80.0 256.8 87.75 251.5 95.5 251.85 97.85 252.0 98.85 253.95 98.85 L260.5 97.85 259.0 100.3 251.9 101.15 Q250.55 101.05 249.6 100.0 248.3 98.55 251.3 92.25 254.85 84.85 261.8 79.1 265.0 57.75 277.25 38.15 290.6 16.75 304.5 16.05 318.25 15.35 333.75 39.05 339.45 47.8 344.1 58.0 348.15 66.9 349.35 72.15 358.0 78.0 360.0 85.2 361.25 89.65 360.15 91.7 359.7 92.45 358.4 92.25 L355.4 91.9 Q356.35 93.95 357.25 97.9 358.3 102.3 358.15 104.55 357.95 108.9 357.6 110.5 356.9 113.7 355.1 112.05 L348.05 106.05 340.65 100.15 333.95 108.2 Q330.2 112.1 328.3 111.25 327.9 111.05 325.0 108.3 L318.95 102.85 306.8 92.8 Q299.7 87.3 297.1 86.8 293.8 86.2 288.05 94.55 283.2 101.55 279.4 110.4 278.1 114.05 276.25 117.7 272.55 125.05 269.95 125.35 268.05 125.55 265.65 120.5 263.55 116.15 261.9 109.8 L263.85 109.35 Q265.2 114.45 266.8 117.95 268.55 121.9 270.05 122.3 271.15 122.6 274.4 116.1 L277.45 109.55 279.55 105.0 Q281.95 100.1 284.4 96.15 292.0 83.75 297.45 84.7 300.3 85.2 307.25 90.4 312.05 94.0 321.7 102.1 L328.75 107.8 Q330.2 108.85 333.85 105.2 336.75 102.25 339.6 97.95"/><path fill="#0d131a" d="M331.4 99.75 Q331.0 104.15 330.3 103.65 329.65 103.15 329.75 99.6 330.5 72.9 322.55 49.75 317.5 35.05 311.35 26.9 308.3 22.85 308.3 22.15 308.25 21.4 311.25 23.95 313.2 25.6 316.6 31.45 320.9 38.8 324.25 47.8 333.9 73.55 331.4 99.75"/><path fill="#0d131a" d="M258.8 98.65 Q264.35 89.05 273.35 83.3 275.75 81.8 275.7 82.65 275.7 83.5 274.3 84.55 266.45 90.9 261.0 100.5 256.3 108.75 257.4 109.6 258.0 110.1 263.05 108.55 267.7 107.1 270.5 105.75 272.75 104.7 272.6 105.5 272.55 106.25 271.4 107.1 270.5 107.75 264.85 110.05 259.1 112.35 257.65 112.55 256.2 112.8 255.6 112.1 255.1 111.45 254.85 109.4 254.5 106.15 258.8 98.65"/><path fill="#0d131a" d="M271.5 246.3 Q274.45 225.55 279.5 217.6 L279.85 220.5 Q277.25 225.45 274.25 245.65 271.0 267.85 273.6 274.75 274.15 276.35 275.1 276.75 276.65 277.4 279.9 277.95 L278.85 279.9 274.3 278.75 Q272.55 278.05 271.55 275.5 268.5 267.35 271.5 246.3"/><path fill="#0d131a" d="M299.25 280.05 L317.1 280.65 319.75 282.7 Q311.75 283.2 298.5 282.2 L299.25 280.05"/><path fill="#0d131a" d="M327.5 253.15 Q328.35 261.65 327.75 269.25 L325.5 270.6 325.85 263.95 Q325.95 256.8 325.3 250.85 324.45 243.1 322.2 235.7 L323.8 234.15 Q326.55 243.2 327.5 253.15"/><path fill="#0d131a" d="M312.1 206.85 Q308.95 204.35 305.3 203.3 301.6 202.2 297.9 202.7 289.25 203.75 284.0 211.75 278.8 219.75 280.05 230.0 281.35 240.2 289.0 247.3 296.7 254.35 305.4 253.3 312.1 252.45 316.6 246.6 319.85 242.5 321.25 236.7 322.65 230.95 321.9 224.8 321.25 219.35 318.65 214.65 316.1 209.95 312.1 206.85 M324.0 224.55 L324.3 229.45 Q324.25 234.7 322.7 239.5 321.15 244.35 318.3 247.95 313.25 254.5 305.65 255.4 296.05 256.6 287.25 249.0 278.4 241.35 277.0 230.35 275.6 218.9 280.95 210.75 286.6 202.2 297.65 200.55 301.7 199.9 305.85 201.15 309.85 202.35 313.45 205.15 317.75 208.55 320.55 213.6 323.3 218.65 324.0 224.55"/><path fill="#0d131a" d="M282.55 275.6 Q280.6 277.9 280.25 279.15 L281.2 280.2 282.7 281.8 Q285.2 284.05 287.6 285.7 290.85 287.95 291.9 287.6 294.3 286.7 298.45 280.85 L295.8 275.75 Q293.8 272.3 292.35 271.35 290.35 270.0 287.4 271.55 284.9 272.8 282.55 275.6 M278.55 279.45 Q277.9 277.8 280.55 274.85 282.95 272.2 286.2 270.35 290.25 268.05 293.2 270.0 295.4 271.4 297.85 275.65 300.05 279.4 300.1 280.65 300.15 281.8 297.4 285.45 294.5 289.3 292.45 290.05 290.75 290.7 285.2 286.45 279.7 282.2 278.55 279.45"/><path fill="#0d131a" d="M327.4 282.3 L336.4 283.35 Q335.8 281.1 332.85 275.95 329.55 270.2 328.15 270.15 326.7 270.1 322.6 274.8 318.5 279.45 319.1 280.25 319.65 281.0 327.4 282.3 M327.3 267.85 Q329.15 266.55 334.9 276.0 340.65 285.5 339.05 285.95 337.7 286.3 328.45 284.7 L316.45 282.35 Q313.7 281.7 317.8 276.6 321.6 271.85 327.3 267.85"/><path fill="#0d131a" d="M262.65 163.6 Q260.5 160.6 261.15 155.45 261.65 151.45 263.25 148.5 L264.7 147.9 Q263.35 150.4 263.05 155.5 262.7 161.2 264.5 163.7 L262.65 163.6"/><path fill="#0d131a" d="M262.8 238.35 Q261.5 235.45 262.1 232.55 262.6 229.7 265.0 227.65 267.3 225.65 269.8 225.75 L277.25 225.75 Q277.65 225.75 277.4 227.05 277.1 228.35 276.7 228.35 L269.1 228.35 Q267.3 228.3 265.95 229.8 264.8 231.1 264.4 233.0 264.0 235.15 264.7 236.9 265.6 239.05 267.85 239.8 L271.4 240.95 273.85 241.35 Q274.25 241.45 274.1 242.85 273.95 244.3 273.55 244.25 L270.85 243.75 267.2 242.6 Q264.2 241.6 262.8 238.35"/></g></svg>