<?xml version='1.0' encoding='utf-8'?>
<svg xmlns="http://www.w3.org/2000/svg" version="1.1" width="319px" height="335px" viewBox="-0.65 -0.8 318.55 335.35"><g><path fill="#595757" d="M133.8 316.6 L125.7 323.5 Q117.15 330.5 115.05 330.95 112.85 331.4 109.6 321.25 107.1 313.4 105.65 305.5 L133.8 316.6"/><path fill="#3e3a39" d="M133.8 316.6 L129.8 320.1 121.65 326.75 Q121.55 321.65 116.5 316.85 114.45 314.95 106.45 309.3 L105.65 305.5 133.8 316.6"/><path fill="#3e3a39" d="M226.75 281.45 Q227.7 283.75 227.85 295.5 228.0 306.7 227.45 309.55 226.95 311.9 217.8 309.7 209.2 307.65 204.7 304.85 L226.75 281.45"/><path fill="#595757" d="M89.65 227.95 Q95.25 233.8 98.25 243.25 102.65 257.35 98.1 273.4 93.35 290.15 75.3 296.2 69.45 298.15 62.2 298.9 L54.15 299.55 Q50.75 299.95 44.85 306.5 L37.05 316.0 Q34.8 318.65 29.4 315.2 25.2 312.5 21.45 308.1 20.55 307.05 23.0 302.6 26.55 296.1 27.65 292.6 29.25 287.65 29.15 283.75 29.0 278.85 26.45 271.4 23.5 262.8 25.5 252.45 28.05 239.0 38.7 228.55 49.9 217.55 66.95 218.8 73.95 219.35 80.25 221.95 86.2 224.4 89.65 227.95"/><path fill="#3e3a39" d="M89.65 227.95 Q95.25 233.8 98.25 243.25 102.65 257.35 98.1 273.4 93.35 290.15 75.3 296.2 69.45 298.15 62.2 298.9 L54.15 299.55 Q50.75 299.95 44.85 306.5 L37.05 316.0 Q35.6 317.7 32.6 316.8 34.55 311.9 41.65 302.8 49.2 293.2 58.05 284.8 71.9 271.7 68.9 253.25 65.9 234.6 47.4 222.35 58.3 217.0 71.6 219.4 83.45 221.6 89.65 227.95"/><path fill="#595757" d="M156.2 172.45 Q188.0 172.45 210.3 194.3 232.25 215.75 233.8 246.95 234.55 262.1 228.75 275.55 223.2 288.65 212.25 298.5 189.15 319.3 153.95 318.85 121.45 318.4 101.0 299.8 80.2 280.8 80.2 250.3 80.2 235.1 86.05 220.8 91.75 206.85 102.15 195.95 112.65 184.9 126.25 178.85 140.55 172.45 156.2 172.45"/><path fill="#3e3a39" d="M112.55 186.85 Q132.2 172.45 156.2 172.45 188.0 172.45 210.3 194.3 232.25 215.75 233.8 246.95 235.2 275.85 214.6 296.25 194.1 316.55 161.8 318.6 181.55 312.65 186.35 295.55 190.9 279.3 180.1 261.5 168.7 242.6 145.6 231.95 119.3 219.85 85.35 222.65 93.75 200.6 112.55 186.85"/><path fill="#ffffff" d="M149.9 257.1 Q146.35 244.85 149.65 233.2 153.75 218.7 166.05 211.35 178.1 204.15 191.05 207.75 203.9 211.3 210.4 224.5 216.95 237.8 212.85 252.45 209.9 262.85 201.7 270.45 194.0 277.6 184.5 279.65 183.3 279.9 180.2 284.5 176.7 289.7 174.5 295.55 173.7 297.75 167.8 296.65 161.9 295.6 161.75 293.55 L162.7 283.85 Q163.35 276.5 161.7 275.25 153.45 269.1 149.9 257.1 M188.0 219.3 Q179.7 216.9 171.95 222.25 164.2 227.55 161.5 237.5 158.85 247.45 162.8 256.15 166.7 264.85 175.0 267.25 183.3 269.65 191.05 264.3 198.8 259.0 201.45 249.05 204.15 239.1 200.2 230.4 196.3 221.7 188.0 219.3"/><path fill="#dcc552" d="M191.8 246.5 Q190.4 252.1 186.4 255.1 182.4 258.1 178.15 256.75 173.9 255.4 171.85 250.5 169.8 245.6 171.2 240.05 172.6 234.45 176.6 231.45 180.6 228.45 184.85 229.8 189.1 231.15 191.15 236.05 193.2 240.95 191.8 246.5"/><path fill="#ffffff" d="M87.3 221.15 Q98.2 216.15 110.1 222.25 122.25 228.45 127.7 242.4 131.05 250.95 130.05 262.75 129.15 274.05 125.3 279.45 124.1 281.15 127.15 287.8 130.3 294.7 130.2 295.1 129.45 297.8 125.55 299.45 121.6 301.15 119.05 299.6 L113.9 293.65 Q109.85 288.8 107.85 289.3 102.5 290.65 97.3 288.95 93.65 287.8 88.6 284.4 81.2 273.15 80.0 256.1 78.6 236.45 87.3 221.15"/><path fill="#595757" d="M82.3 244.4 Q84.4 235.0 91.25 231.7 98.2 228.4 106.0 233.05 113.75 237.75 117.4 247.3 121.05 256.85 118.7 265.9 116.4 275.0 109.45 278.3 102.5 281.65 95.05 277.25 87.6 272.85 83.95 263.3 80.25 253.6 82.3 244.4"/><path fill="#ffe45f" d="M96.0 242.3 Q99.55 240.5 103.45 243.0 107.35 245.55 109.25 250.9 111.2 256.25 110.05 261.35 108.9 266.45 105.35 268.25 101.8 270.1 97.9 267.55 94.0 265.05 92.05 259.65 90.15 254.3 91.3 249.2 92.45 244.15 96.0 242.3"/><path fill="#595757" d="M231.0 184.65 Q236.65 180.1 243.9 177.25 261.55 170.25 275.65 177.2 288.9 183.7 294.8 195.5 299.0 203.95 298.9 213.55 298.85 221.45 300.25 226.1 301.35 229.85 304.45 234.05 306.6 237.0 312.05 242.1 315.7 245.55 315.2 246.85 313.0 252.2 309.9 256.05 305.85 261.05 302.9 259.2 297.2 255.3 293.6 253.2 287.0 249.4 283.65 250.05 268.4 253.05 259.95 252.8 238.2 252.1 227.45 237.9 211.8 217.2 223.35 193.45 225.5 189.05 231.0 184.65"/><path fill="#3e3a39" d="M304.45 234.05 L312.0 241.45 Q315.8 245.35 315.2 246.85 313.0 252.2 309.9 256.05 305.85 261.05 302.9 259.2 297.2 255.3 293.6 253.2 287.0 249.4 283.65 250.05 268.4 253.05 259.95 252.8 238.2 252.1 227.45 237.9 218.1 225.5 218.45 211.7 219.75 217.7 225.3 223.8 230.9 229.95 238.85 234.1 257.85 244.0 275.1 236.45 278.85 234.8 285.1 235.6 287.8 235.95 295.55 237.8 301.25 239.15 303.1 238.7 305.75 238.1 304.45 234.05"/><path fill="#dbdcdc" d="M160.45 239.85 L149.35 234.0 Q151.15 224.85 158.5 216.8 169.85 204.4 187.7 207.05 205.75 209.7 211.9 227.05 214.1 233.3 214.35 240.5 214.5 246.4 213.45 250.1 210.85 259.2 207.1 264.35 200.55 273.3 187.1 279.05 186.0 273.95 184.7 270.15 L183.6 267.35 Q187.85 266.65 192.25 263.7 201.1 257.85 202.05 246.85 202.95 235.7 198.85 228.25 194.65 220.55 186.2 219.05 177.75 217.55 169.5 224.3 161.35 230.95 160.45 239.85"/><path fill="#0d131a" d="M122.65 324.6 L133.1 315.8 134.5 317.4 125.1 326.5 Q117.2 333.9 115.05 334.35 114.3 334.55 113.35 333.95 110.85 332.25 107.55 319.5 105.8 312.65 104.1 303.7 L106.7 305.35 Q108.2 313.4 110.75 321.3 113.4 329.5 114.85 329.9 116.4 329.55 122.65 324.6"/><path fill="#0d131a" d="M225.75 281.85 L227.8 279.8 Q228.85 282.45 229.7 295.5 230.55 308.3 230.0 311.0 229.8 312.05 228.6 312.6 225.8 313.8 216.55 310.9 208.15 308.3 204.1 305.75 L205.25 303.95 Q209.35 306.55 217.35 308.45 225.05 310.25 226.4 309.3 227.55 308.45 227.0 295.75 226.45 283.55 225.75 281.85"/><path fill="#0d131a" d="M86.05 223.35 L84.65 225.8 Q80.7 223.35 75.75 221.85 70.15 220.15 64.3 220.1 48.75 220.0 39.3 229.25 32.15 236.3 28.85 245.3 26.2 252.45 26.2 260.35 26.2 266.2 27.8 270.9 30.6 278.95 30.6 284.3 30.6 288.1 29.05 293.0 L25.35 301.15 Q22.55 306.8 22.55 307.2 22.55 308.1 28.0 312.05 33.55 316.1 34.75 315.4 L43.25 306.6 Q51.15 298.5 53.95 298.15 L56.45 297.95 Q65.25 297.45 71.2 295.95 81.9 293.25 88.4 287.0 L90.25 290.7 Q83.15 296.55 71.95 298.95 L57.95 300.6 54.3 300.95 Q51.85 301.25 44.8 308.55 L37.25 316.85 35.35 318.3 Q34.4 318.65 33.0 318.3 31.5 317.95 27.05 315.0 22.5 311.95 21.05 310.25 19.95 308.9 19.7 308.0 19.45 306.8 20.25 305.25 L23.3 299.15 Q25.6 294.45 26.3 292.15 27.85 287.35 27.75 283.5 27.6 278.95 25.15 271.85 21.6 261.6 23.1 251.25 25.05 237.8 35.45 227.6 41.3 221.8 50.45 219.15 57.2 217.2 64.3 217.25 70.15 217.35 75.95 218.95 81.65 220.6 86.05 223.35"/><path fill="#0d131a" d="M81.15 270.65 Q83.8 276.4 84.05 283.5 84.25 289.3 83.0 292.45 L81.4 293.55 Q82.5 290.8 82.4 285.35 82.3 278.35 79.75 272.75 73.8 259.8 57.7 254.25 51.65 252.15 45.45 252.55 39.55 252.85 34.65 255.3 31.35 256.9 28.85 259.6 26.35 262.25 25.4 265.1 L24.7 263.65 Q25.7 260.55 28.25 257.85 30.75 255.2 34.3 253.4 39.6 250.8 45.8 250.4 52.45 249.95 58.7 252.1 75.3 257.8 81.15 270.65"/><path fill="#0d131a" d="M186.1 176.35 Q200.55 181.8 211.35 192.4 213.85 194.8 219.8 201.95 L218.85 205.55 Q208.05 191.8 191.5 183.1 174.0 173.9 156.2 173.9 141.35 173.9 127.5 180.0 114.15 185.9 103.75 196.6 93.35 207.25 87.6 220.9 81.6 235.05 81.6 250.3 81.6 279.95 101.55 298.5 121.5 317.0 153.95 317.4 172.0 317.65 187.9 311.55 203.8 305.5 214.7 294.15 223.9 284.55 228.45 272.45 233.05 260.25 232.35 247.0 L232.1 243.45 236.25 245.65 236.45 246.35 Q237.15 260.2 232.5 272.75 227.85 285.35 218.25 295.25 206.75 307.2 189.95 314.0 172.7 320.95 154.3 320.7 120.45 320.25 99.15 300.9 77.75 281.45 77.75 250.65 77.75 235.7 84.1 220.8 90.25 206.35 101.1 195.0 112.15 183.4 126.4 177.25 140.6 171.05 156.2 171.05 172.15 171.05 186.1 176.35"/><path fill="#0d131a" d="M150.35 233.4 Q147.15 244.7 150.55 256.65 153.95 268.65 162.1 274.7 163.5 275.7 163.55 279.45 163.6 282.15 162.9 288.1 162.4 292.55 162.5 293.5 162.5 294.1 164.2 294.85 166.1 295.7 168.65 296.1 170.8 296.4 172.3 296.15 173.65 295.9 173.85 295.3 176.0 289.45 179.55 284.2 182.8 279.35 184.35 279.0 194.05 276.85 201.7 269.5 209.4 262.1 212.15 252.25 214.25 244.85 213.4 237.25 212.5 229.6 208.85 223.1 205.75 217.55 201.1 213.75 196.45 210.0 190.9 208.4 178.05 204.85 166.15 212.15 154.25 219.5 150.35 233.4 M160.45 293.7 L161.4 284.75 Q162.2 276.55 161.25 275.85 152.65 269.4 148.65 257.0 144.6 244.35 147.85 232.8 151.9 218.35 164.75 210.45 177.55 202.6 190.95 206.35 206.4 210.65 213.1 224.05 219.6 237.1 215.1 253.1 212.2 263.5 203.7 271.2 195.0 279.05 184.65 280.35 183.6 280.75 180.85 285.15 177.7 290.3 175.55 296.05 175.0 297.55 172.4 297.95 170.55 298.25 168.55 297.95 166.1 297.6 163.65 296.55 160.6 295.2 160.45 293.7"/><path fill="#0d131a" d="M199.6 230.75 Q195.8 222.3 187.8 220.0 184.4 219.0 180.85 219.5 177.3 219.95 174.0 221.8 169.8 224.15 166.7 228.35 163.65 232.5 162.2 237.7 159.6 247.35 163.4 255.8 167.2 264.25 175.2 266.55 182.25 268.6 188.95 264.75 193.2 262.4 196.3 258.25 199.35 254.05 200.8 248.85 203.4 239.2 199.6 230.75 M161.75 256.7 Q157.35 247.4 160.1 237.25 163.25 225.6 172.5 220.25 180.6 215.6 188.5 217.85 197.0 220.3 201.2 229.85 205.4 239.3 202.6 249.55 199.55 260.8 190.8 266.05 182.85 270.8 174.7 268.45 166.1 265.95 161.75 256.7"/><path fill="#0d131a" d="M170.0 239.9 Q171.6 233.5 176.8 230.25 181.45 227.4 185.25 228.6 190.45 230.25 192.65 235.9 194.7 241.1 193.25 246.9 191.65 253.4 186.4 256.5 181.85 259.2 177.95 258.0 173.4 256.55 171.0 251.15 168.55 245.7 170.0 239.9 M174.25 234.85 Q172.6 237.2 171.9 240.2 170.55 245.5 172.45 250.15 174.35 254.8 178.35 256.05 181.55 257.1 184.8 255.3 187.05 254.0 188.7 251.7 190.35 249.35 191.1 246.35 192.4 241.05 190.5 236.4 188.6 231.75 184.65 230.5 181.45 229.45 178.15 231.25 175.9 232.55 174.25 234.85"/><path fill="#0d131a" d="M104.2 221.25 Q97.75 219.45 92.3 220.45 87.0 221.45 85.35 224.55 L86.7 220.8 87.0 220.5 Q89.4 217.85 94.9 217.4 100.55 216.95 106.85 219.15 122.65 224.75 129.15 241.35 133.05 251.35 131.8 263.1 130.65 273.9 126.05 280.35 125.4 281.25 128.35 288.15 L131.3 295.45 Q130.85 296.95 129.5 298.35 128.0 299.85 126.05 300.6 121.45 302.35 119.3 301.05 L114.0 295.15 Q109.1 289.75 108.0 290.0 102.7 291.35 98.1 290.2 93.95 289.2 89.9 286.05 L89.85 284.35 Q94.45 287.35 97.9 288.4 102.7 289.85 107.7 288.6 109.45 288.15 112.0 290.5 L116.4 295.6 119.4 299.0 Q121.55 300.25 125.05 298.9 L128.0 297.15 Q129.2 296.05 129.55 294.95 129.55 294.35 127.7 290.65 125.4 285.95 124.7 283.65 123.7 280.45 124.7 279.05 128.5 273.75 129.4 262.65 130.3 251.0 127.05 242.65 120.45 225.85 104.2 221.25"/><path fill="#0d131a" d="M111.0 238.15 Q107.3 234.1 102.85 232.3 96.8 229.9 91.55 232.35 85.05 235.45 83.0 244.45 80.95 253.45 84.6 263.0 86.6 268.35 90.1 272.25 93.6 276.1 97.9 277.85 103.85 280.25 109.15 277.7 115.8 274.5 118.05 265.65 120.3 256.8 116.75 247.55 114.7 242.2 111.0 238.15 M90.7 230.65 Q97.5 227.45 105.5 231.4 114.45 235.8 118.65 246.85 122.45 256.7 120.15 266.25 117.8 275.9 110.65 279.3 103.3 282.85 95.65 279.2 87.2 275.15 82.9 263.95 78.75 253.05 81.55 243.05 84.15 233.8 90.7 230.65"/><path fill="#0d131a" d="M105.65 245.9 Q103.75 243.65 101.5 242.8 L96.3 242.95 Q93.0 244.65 91.95 249.5 90.9 254.3 92.75 259.45 93.85 262.45 95.7 264.65 97.6 266.9 99.85 267.75 L105.0 267.6 Q108.35 265.9 109.4 261.1 110.45 256.25 108.6 251.15 107.5 248.1 105.65 245.9 M95.4 241.1 Q99.3 239.1 103.3 241.5 107.55 244.05 109.95 250.65 112.0 256.35 110.85 261.8 109.7 267.3 105.95 269.25 101.95 271.25 97.9 269.15 93.4 266.85 91.1 260.4 88.8 254.15 90.6 248.05 92.15 242.7 95.4 241.1"/><path fill="#0d131a" d="M275.05 178.45 Q268.95 175.45 260.75 175.15 252.55 174.8 246.1 177.4 232.1 183.05 225.45 194.35 220.6 202.7 220.4 212.4 220.25 220.15 222.4 226.4 224.8 233.25 230.25 239.1 238.5 247.95 252.4 250.5 265.95 252.95 282.0 249.0 L284.85 248.5 Q286.05 248.45 287.9 249.05 291.1 250.15 301.05 257.1 304.35 259.4 309.0 254.6 313.25 250.15 313.65 246.25 313.8 245.2 309.45 241.05 304.1 236.0 303.3 234.9 300.15 230.6 298.95 226.65 297.5 222.0 297.5 214.55 L297.5 213.1 Q297.5 204.4 293.8 196.7 288.2 184.95 275.05 178.45 M244.75 174.2 Q252.55 171.2 261.75 171.8 270.25 172.35 277.15 175.75 291.45 182.75 297.0 195.8 300.4 203.75 300.35 213.55 300.25 221.05 301.5 225.4 302.6 229.1 305.6 233.2 307.85 236.25 312.3 240.4 L316.25 243.95 Q317.9 245.8 317.4 247.9 316.75 250.85 313.6 254.9 309.9 259.65 306.05 260.85 303.7 261.6 300.8 259.6 287.45 250.8 283.95 251.45 L282.6 251.75 Q242.0 260.75 225.85 239.4 221.5 233.65 219.2 225.2 216.6 215.75 217.7 206.65 220.45 183.4 244.75 174.2"/><path fill="#0d131a" d="M298.2 205.6 L298.45 207.25 Q297.5 205.95 294.35 204.4 290.4 202.5 285.85 201.85 272.65 199.95 260.8 209.35 248.25 219.3 248.0 235.95 247.9 241.7 249.3 247.15 250.4 251.5 251.5 252.8 L249.75 251.85 Q248.45 251.3 246.95 246.75 245.2 241.45 245.2 235.4 245.15 217.9 259.45 206.45 267.15 200.3 278.7 199.5 291.3 198.65 298.2 205.6"/><path fill="#595757" d="M199.45 196.65 Q177.4 207.9 152.45 213.0 127.4 218.15 103.9 216.85 80.95 215.6 62.35 208.4 43.55 201.15 31.65 188.8 19.25 176.0 15.75 159.25 9.7 130.4 26.45 103.95 43.9 76.35 81.1 59.95 85.85 57.9 89.0 46.15 92.55 32.7 90.7 15.85 90.35 12.5 96.85 7.9 102.9 3.55 108.45 2.3 113.95 1.1 120.3 2.25 127.35 3.5 128.75 6.95 135.3 23.4 144.0 33.6 151.8 42.75 157.1 42.45 198.4 40.3 225.35 54.5 255.55 70.4 262.5 104.7 265.9 121.45 258.7 138.9 251.85 155.65 236.3 170.75 220.9 185.75 199.45 196.65"/><path fill="#3e3a39" d="M210.25 93.65 Q210.35 86.55 203.9 78.85 188.1 59.9 145.7 49.4 139.5 47.9 132.65 33.7 124.15 13.9 118.55 1.95 122.4 2.45 125.0 3.6 127.95 4.95 128.75 6.95 135.3 23.4 144.0 33.6 151.8 42.75 157.1 42.45 198.4 40.3 225.35 54.5 255.55 70.4 262.5 104.7 265.9 121.45 258.7 138.9 251.85 155.65 236.3 170.75 220.9 185.75 199.45 196.65 177.4 207.9 152.45 213.0 127.4 218.15 103.9 216.85 80.95 215.6 62.35 208.4 43.55 201.15 31.65 188.8 19.25 176.0 15.75 159.25 14.05 151.05 14.25 142.8 25.5 140.3 55.35 136.45 L110.4 129.1 Q182.5 118.5 204.05 104.25 210.1 100.4 210.25 93.65"/><path fill="#ffffff" d="M264.7 98.4 Q262.35 112.45 241.25 126.75 223.8 138.55 197.05 148.45 170.3 158.35 122.55 165.85 69.4 174.15 46.95 169.05 23.7 163.7 14.7 157.25 6.95 151.65 4.25 140.35 1.55 129.15 5.8 118.95 11.1 106.3 25.2 104.45 L22.5 109.9 Q26.05 106.7 31.3 104.65 41.8 100.6 50.25 106.5 54.5 109.5 61.8 118.15 66.7 123.9 68.5 122.05 L72.15 116.2 Q75.55 110.35 78.75 106.35 89.75 92.8 105.7 90.95 126.6 88.5 142.5 98.05 145.85 100.1 151.65 104.65 155.35 107.55 156.45 107.2 158.5 106.55 163.9 93.75 171.35 80.4 183.5 76.75 196.15 72.95 209.3 80.65 211.95 82.2 217.3 86.15 220.65 88.6 221.4 88.25 222.2 87.85 223.35 83.35 L225.8 73.85 Q229.8 60.5 236.3 60.5 240.4 60.5 245.75 63.55 251.25 66.7 255.85 71.85 267.05 84.45 264.7 98.4"/><path fill="#dbdcdc" d="M245.75 63.55 Q251.25 66.7 255.85 71.85 267.05 84.45 264.7 98.4 262.35 112.45 241.25 126.75 223.8 138.55 197.05 148.45 L192.1 150.15 Q192.2 147.35 195.9 140.05 199.4 133.0 204.3 125.6 216.5 107.1 220.05 110.65 223.65 114.2 226.2 111.25 228.45 108.65 228.85 102.5 230.9 90.5 231.2 85.4 231.7 76.55 225.15 78.45 225.15 72.7 229.05 66.55 232.85 60.5 236.3 60.5 240.4 60.5 245.75 63.55"/><path fill="#ea6d8d" d="M7.85 133.55 Q11.6 126.65 16.3 127.1 12.9 141.45 14.6 155.5 15.85 165.75 20.2 177.7 11.15 175.4 6.85 166.85 3.15 159.45 3.7 149.45 4.2 140.2 7.85 133.55"/><path fill="#cb5e7c" d="M20.2 177.7 Q13.9 176.1 9.85 171.4 6.2 167.15 4.7 160.85 10.0 154.75 14.1 148.0 14.4 161.9 20.2 177.7"/><path fill="#ffe45f" d="M25.9 161.7 Q29.3 165.4 31.5 172.45 34.05 180.6 34.1 184.8 34.1 191.15 28.85 190.8 25.85 190.6 22.1 188.05 18.3 185.45 15.4 181.55 8.2 171.75 12.15 162.15 13.8 158.1 15.15 157.35 L18.9 157.5 Q23.0 158.55 25.9 161.7"/><path fill="#ea6d8d" d="M35.15 132.85 Q42.15 129.5 50.75 135.2 59.45 140.95 64.5 152.5 69.75 164.45 69.0 175.05 68.2 185.95 61.4 189.2 54.35 192.55 45.1 186.85 35.65 180.95 30.6 169.5 25.45 157.85 26.85 147.0 28.2 136.15 35.15 132.85"/><path fill="#ea6d8d" d="M149.45 145.6 Q151.95 159.3 144.6 170.4 137.25 181.5 124.45 183.5 111.65 185.55 100.85 177.25 90.05 169.0 87.55 155.25 85.1 141.55 92.45 130.45 99.8 119.35 112.6 117.3 125.45 115.3 136.2 123.6 147.0 131.9 149.45 145.6"/><path fill="#ea6d8d" d="M208.75 102.85 Q219.1 108.7 223.15 121.45 227.2 134.15 222.6 146.35 217.95 158.5 207.4 162.95 196.8 167.4 186.45 161.55 176.1 155.7 172.05 142.95 168.0 130.25 172.6 118.1 177.25 105.9 187.8 101.45 198.4 97.0 208.75 102.85"/><path fill="#dcc552" d="M260.15 103.05 Q262.2 97.75 264.25 97.45 267.75 97.0 270.15 102.0 272.3 106.6 271.85 111.35 271.3 117.5 267.5 125.95 263.0 136.0 259.0 133.9 254.6 131.6 257.2 114.8 258.3 107.9 260.15 103.05"/><path fill="#ea6d8d" d="M257.1 85.95 Q263.2 95.35 263.2 106.4 263.2 118.7 258.95 127.8 254.8 136.8 249.3 136.8 244.45 136.8 240.7 128.4 236.75 119.65 236.75 107.55 236.75 94.55 239.8 85.95 243.1 76.8 248.25 77.55 252.05 78.05 257.1 85.95"/><path fill="#cb5e7c" d="M50.85 135.3 Q54.9 138.0 58.4 142.35 62.05 146.85 64.5 152.5 69.75 164.45 69.0 175.05 68.2 185.95 61.4 189.2 56.7 191.45 50.5 189.4 44.45 187.4 39.0 181.95 44.1 181.9 48.05 177.4 51.75 173.15 53.55 166.05 57.6 150.3 50.85 135.3"/><path fill="#cb5e7c" d="M134.6 140.9 Q134.4 129.85 128.6 119.25 136.55 122.45 142.1 129.35 147.85 136.45 149.45 145.6 151.95 159.3 144.6 170.4 137.25 181.5 124.45 183.5 116.65 184.7 109.15 181.9 101.85 179.15 96.4 173.2 107.6 175.7 116.7 171.75 125.2 168.05 130.05 159.65 134.8 151.35 134.6 140.9"/><path fill="#cb5e7c" d="M223.15 121.45 Q227.2 134.15 222.6 146.35 217.95 158.5 207.4 162.95 198.5 166.65 189.5 163.0 180.6 159.4 175.25 150.15 186.3 153.7 195.35 150.5 203.5 147.6 208.6 139.8 213.45 132.4 214.15 122.8 214.85 113.05 211.0 104.3 219.55 110.25 223.15 121.45"/><path fill="#cb5e7c" d="M248.25 77.55 Q252.05 78.05 257.1 85.95 263.2 95.35 263.2 106.4 263.2 118.7 258.95 127.8 254.8 136.8 249.3 136.8 245.9 136.8 242.8 132.25 239.7 127.7 238.1 120.35 243.25 121.6 246.9 116.85 250.15 112.55 251.4 104.8 252.55 97.3 251.3 89.9 249.95 82.0 246.35 77.65 L248.25 77.55"/><path fill="#ffe45f" d="M67.15 168.75 Q69.25 163.85 78.2 163.4 85.85 163.05 90.2 165.35 93.2 166.9 94.55 177.5 95.7 186.2 95.2 193.4 94.8 198.95 89.2 199.45 83.55 199.95 77.9 194.7 72.35 189.55 68.9 180.9 65.55 172.5 67.15 168.75"/><path fill="#ffe45f" d="M167.45 185.15 Q163.8 185.2 159.7 180.75 154.3 174.85 151.5 165.1 148.75 155.45 151.6 152.85 155.3 149.55 162.8 148.05 171.55 146.25 174.8 150.5 177.7 154.35 178.55 163.05 179.5 173.05 175.65 179.0 171.7 185.1 167.45 185.15"/><path fill="#ffe45f" d="M234.55 118.75 Q241.5 116.05 244.0 120.5 246.1 124.25 246.2 133.4 246.3 143.55 243.3 149.9 240.2 156.5 236.35 156.8 232.8 157.05 230.2 152.0 227.0 145.7 225.35 136.75 223.65 127.3 225.75 124.75 228.7 121.05 234.55 118.75"/><path fill="#dcc552" d="M31.5 172.45 Q34.05 180.6 34.1 184.8 34.1 191.15 28.85 190.8 26.2 190.6 22.9 188.6 19.55 186.5 16.75 183.2 22.5 185.7 22.0 175.15 20.35 162.0 20.2 157.9 23.8 159.2 26.45 162.35 29.45 166.0 31.5 172.45"/><path fill="#dcc552" d="M77.9 194.7 Q75.45 192.45 72.95 188.7 81.15 195.3 85.7 184.35 87.5 179.95 87.95 174.25 88.4 168.6 87.3 164.35 89.1 164.8 90.2 165.35 93.2 166.9 94.55 177.5 95.7 186.2 95.2 193.4 94.8 198.95 89.2 199.45 83.55 199.95 77.9 194.7"/><path fill="#dcc552" d="M174.8 150.5 Q177.7 154.35 178.55 163.05 179.5 173.05 175.65 179.0 171.85 184.9 167.8 185.15 164.3 185.35 160.35 181.4 166.85 182.8 169.05 169.55 171.0 157.9 168.65 147.6 172.95 148.05 174.8 150.5"/><path fill="#dcc552" d="M236.9 139.15 Q238.3 127.8 234.9 118.65 237.9 117.55 240.15 117.85 242.75 118.2 244.0 120.5 246.1 124.25 246.2 133.4 246.3 143.55 243.3 149.9 240.2 156.5 236.35 156.8 232.8 157.05 230.2 152.0 L228.85 149.0 Q235.4 151.5 236.9 139.15"/><path fill="#0d131a" d="M229.8 52.55 Q232.25 53.85 234.9 55.85 L239.85 59.75 233.55 61.05 Q217.95 50.0 194.8 45.9 177.4 42.85 157.2 43.9 151.3 44.2 143.2 34.85 134.25 24.55 127.4 7.5 126.4 4.9 120.2 4.4 114.65 3.9 109.05 5.15 103.55 6.4 97.95 9.65 91.85 13.2 92.15 15.7 94.05 33.1 90.25 46.9 86.85 58.95 81.7 61.25 60.2 70.75 46.15 82.5 31.6 94.65 24.1 109.95 L22.05 106.25 Q20.7 103.8 20.9 103.5 29.2 90.3 45.25 78.4 60.0 67.45 79.4 58.9 83.55 57.05 86.75 45.85 90.6 32.5 88.75 16.1 88.2 11.5 93.1 7.55 98.2 3.5 108.1 0.95 114.85 -0.8 122.05 0.6 130.0 2.1 131.35 6.6 136.0 22.1 145.3 32.4 153.15 41.05 158.15 40.75 179.1 39.7 197.5 42.6 216.7 45.65 229.8 52.55"/><path fill="#0d131a" d="M259.0 133.95 L262.9 133.8 Q256.8 161.5 225.3 184.45 194.5 206.9 152.85 215.45 113.8 223.4 79.35 216.75 44.25 209.95 30.7 191.05 32.45 190.1 33.45 188.5 51.45 206.45 82.85 212.75 115.0 219.25 152.15 211.6 191.45 203.6 221.15 181.65 250.15 160.25 259.0 133.95"/><path fill="#0d131a" d="M245.9 60.0 Q252.4 63.8 257.9 70.6 262.55 76.35 264.75 84.25 266.75 91.5 266.0 97.3 264.95 96.8 263.75 96.9 264.55 89.85 261.5 82.75 259.4 77.8 255.65 73.35 251.35 68.25 245.85 64.95 240.4 61.65 236.3 61.65 232.05 61.65 228.95 68.55 227.2 72.4 225.05 81.25 L223.7 87.15 Q223.1 89.35 222.3 89.75 221.35 90.2 219.7 89.25 218.85 88.75 215.8 86.45 208.45 80.95 202.95 78.8 193.25 75.0 183.85 77.85 174.95 80.5 168.9 88.25 165.4 92.65 161.4 101.4 L159.2 106.5 Q158.1 108.8 157.0 109.2 155.95 109.55 154.15 108.2 L150.25 104.95 Q141.8 98.25 134.65 95.35 121.8 90.2 105.85 92.05 92.85 93.6 83.15 103.25 77.8 108.55 72.15 118.45 69.7 122.75 68.65 125.45 68.0 127.25 66.0 124.85 L60.0 117.75 55.4 112.5 Q52.45 109.45 49.6 107.45 41.5 101.75 32.6 105.45 27.2 107.65 22.65 112.65 20.55 114.95 19.55 115.2 18.9 115.3 18.5 114.55 18.2 113.9 19.5 111.05 20.85 108.1 22.35 106.35 21.75 105.05 16.75 108.25 11.65 111.5 9.3 114.9 4.45 121.95 4.45 132.05 4.45 136.3 5.35 140.05 L5.5 140.55 Q4.3 143.5 3.75 146.7 L3.15 146.35 Q-0.65 137.85 0.15 128.55 0.95 119.5 5.65 113.1 9.6 107.75 15.5 104.55 20.65 101.8 25.65 101.4 28.1 101.2 27.2 103.35 L25.55 106.3 Q27.6 103.85 31.75 101.9 40.3 97.95 49.9 103.6 53.15 105.5 56.05 108.6 58.15 110.8 61.0 114.75 L65.2 120.0 Q67.0 122.0 67.2 121.5 71.65 109.95 82.3 100.1 93.6 89.6 104.95 88.0 121.95 85.6 135.5 92.05 140.75 94.5 151.65 103.15 155.55 106.25 156.1 106.1 156.6 105.95 157.5 103.65 L159.1 99.45 Q162.75 90.55 166.8 85.4 173.25 77.3 182.85 74.4 192.9 71.35 203.4 75.95 208.35 78.1 217.15 84.6 L220.9 87.1 Q221.3 87.25 221.9 84.95 L222.85 80.7 226.6 65.45 Q229.75 56.55 235.0 56.55 239.95 56.55 245.9 60.0"/><path fill="#0d131a" d="M15.85 125.65 L17.8 125.8 17.2 128.5 Q15.9 134.75 15.45 139.0 14.35 148.85 15.75 157.3 L14.2 158.7 13.25 153.4 Q12.8 150.5 12.8 147.65 12.8 142.5 13.15 138.95 13.7 133.6 15.25 128.0 12.55 128.6 9.35 133.3 5.8 138.45 5.15 144.3 4.45 150.75 5.75 158.3 7.05 166.15 9.65 169.6 L9.6 172.75 Q4.35 167.8 2.55 159.95 0.95 152.8 2.4 144.4 3.8 136.45 7.7 131.3 11.3 126.55 15.85 125.65"/><path fill="#0d131a" d="M30.4 172.8 Q28.1 165.55 24.65 162.05 22.15 159.5 18.6 158.6 L15.55 158.45 Q14.65 159.05 13.2 162.6 11.6 166.5 12.15 170.8 12.65 175.15 15.25 179.25 18.0 183.7 22.15 186.7 26.0 189.45 28.95 189.65 31.1 189.8 32.0 188.6 34.45 185.55 30.4 172.8 M27.15 161.5 Q30.4 165.3 32.6 172.1 35.55 181.45 35.75 185.85 36.2 194.2 29.2 192.75 25.2 191.95 20.45 188.65 15.2 185.05 12.45 180.65 9.6 176.05 9.15 171.1 8.65 166.3 10.5 161.75 12.3 157.4 14.35 156.4 15.95 155.55 19.2 156.4 23.9 157.65 27.15 161.5"/><path fill="#0d131a" d="M44.1 129.55 Q49.6 131.05 54.7 135.85 66.4 146.7 69.5 166.4 L67.9 167.7 Q66.95 160.15 63.75 152.85 60.65 145.8 55.9 140.7 51.1 135.6 45.8 133.6 40.05 131.45 35.55 133.6 28.9 136.8 27.65 147.35 26.4 157.85 31.4 169.15 34.35 175.95 39.35 181.1 44.35 186.25 50.0 188.35 56.3 190.65 61.0 188.45 66.35 185.9 67.8 177.5 L69.4 180.15 Q67.85 187.35 62.4 190.4 56.8 193.5 49.65 190.8 36.4 185.9 28.75 169.3 23.4 157.55 25.15 145.55 26.85 133.65 34.15 130.15 38.65 128.05 44.1 129.55"/><path fill="#0d131a" d="M72.65 165.55 Q69.25 166.75 68.2 169.2 66.75 172.6 70.0 180.65 73.35 188.95 78.65 193.9 81.9 196.95 85.5 197.95 88.65 198.8 90.9 197.9 93.85 196.75 94.05 193.3 94.55 186.25 93.4 177.5 92.1 167.65 89.7 166.35 87.25 165.05 82.3 164.65 76.6 164.15 72.65 165.55 M76.25 195.3 Q70.65 190.1 67.45 181.3 64.25 172.65 66.1 168.3 67.55 164.9 71.9 163.4 76.25 161.85 82.35 162.35 87.8 162.8 90.75 164.35 94.35 166.25 95.75 178.05 96.8 186.8 96.3 193.5 95.9 200.0 92.45 201.35 89.45 202.55 84.55 200.6 79.95 198.75 76.25 195.3"/><path fill="#0d131a" d="M148.65 145.75 Q146.25 132.4 135.75 124.3 125.2 116.2 112.75 118.15 107.0 119.05 102.15 122.1 97.25 125.15 93.8 130.0 90.1 135.2 88.8 141.85 87.55 148.35 88.75 155.1 91.15 168.5 101.5 176.55 111.9 184.6 124.3 182.65 130.05 181.75 134.9 178.7 139.8 175.65 143.25 170.85 147.0 165.55 148.4 159.0 149.8 152.45 148.65 145.75 M136.7 121.9 Q148.2 130.95 150.7 145.05 153.45 160.4 146.5 172.05 139.15 184.35 124.0 186.75 111.05 188.75 99.65 179.2 88.5 169.85 85.95 155.6 83.5 141.95 90.7 129.85 98.3 117.0 112.05 114.85 125.15 112.8 136.7 121.9"/><path fill="#0d131a" d="M167.8 184.0 Q171.25 183.7 174.7 178.35 178.3 172.8 177.4 163.15 176.6 154.75 173.9 151.2 172.25 149.05 168.65 148.75 164.5 148.4 159.1 150.25 154.4 151.85 152.35 153.7 151.5 154.5 151.4 156.8 151.2 161.5 153.8 168.35 156.55 175.65 160.55 180.0 164.5 184.3 167.8 184.0 M175.7 149.8 Q177.3 151.95 178.5 156.5 179.85 161.55 179.85 166.65 179.85 174.35 176.6 180.05 172.4 187.35 168.4 187.65 164.7 187.95 159.25 182.0 154.85 177.2 151.8 169.25 148.9 161.75 149.15 156.7 149.3 153.4 150.8 152.0 153.3 149.75 158.45 148.0 164.25 146.05 168.85 146.45 173.45 146.9 175.7 149.8"/><path fill="#0d131a" d="M221.4 145.05 Q225.65 132.75 222.3 121.7 220.35 115.15 216.1 110.15 211.95 105.2 206.45 102.65 202.0 100.6 197.3 100.5 192.55 100.4 188.15 102.25 177.85 106.55 173.4 118.45 168.95 130.3 172.9 142.7 174.95 149.25 179.1 154.25 183.25 159.25 188.75 161.75 193.2 163.8 197.9 163.9 202.65 164.05 207.05 162.15 216.95 158.0 221.4 145.05 M209.35 101.15 Q220.7 107.8 224.75 120.5 229.0 133.85 224.25 147.1 219.35 160.75 207.8 165.25 203.1 167.1 197.75 166.75 192.6 166.4 187.7 164.15 182.1 161.6 177.7 155.8 173.55 150.4 171.25 143.2 166.75 128.95 171.5 116.15 176.2 103.55 187.3 98.85 197.9 94.4 209.35 101.15"/><path fill="#0d131a" d="M262.45 97.15 Q265.8 95.25 269.45 97.85 274.3 101.3 273.5 111.9 272.9 120.0 269.7 126.25 266.75 132.0 262.45 134.8 259.25 136.85 257.65 135.1 257.2 134.65 256.25 131.9 L257.85 129.15 Q257.75 131.75 259.3 132.6 L261.35 132.8 Q264.55 131.65 267.5 124.15 270.1 117.55 270.5 111.9 270.8 107.45 269.3 103.6 267.35 98.6 263.2 99.6 L262.45 97.15"/><path fill="#0d131a" d="M42.85 164.1 L42.45 163.35 Q42.5 163.05 43.1 163.25 L47.4 164.1 52.15 164.75 Q53.15 164.75 52.95 165.35 52.75 165.95 52.2 165.95 L45.85 165.25 Q43.3 164.65 42.85 164.1"/><path fill="#0d131a" d="M206.5 133.0 Q207.35 132.25 207.4 132.85 207.5 133.45 206.75 134.2 204.55 136.45 200.75 137.95 198.2 138.9 196.45 139.15 L195.1 138.95 Q194.7 138.6 196.25 138.3 197.85 137.95 201.8 135.85 L206.5 133.0"/><path fill="#0d131a" d="M120.2 153.85 Q121.0 153.85 121.55 154.6 122.15 155.35 122.15 156.4 122.15 157.45 121.55 158.2 121.0 158.9 120.2 158.9 119.4 158.9 118.8 158.2 118.25 157.45 118.25 156.4 118.25 155.35 118.8 154.6 119.4 153.85 120.2 153.85"/><path fill="#0d131a" d="M247.6 75.2 Q252.8 76.2 258.35 85.1 264.65 95.15 264.65 106.5 264.65 119.85 260.6 129.4 256.3 139.55 249.65 139.1 L247.95 138.45 Q246.9 137.75 246.65 136.85 L246.4 134.85 Q247.9 135.95 249.3 135.95 254.15 135.95 258.15 127.5 262.35 118.6 262.35 106.4 262.35 95.5 256.4 86.35 251.55 78.85 248.15 78.4 242.2 77.55 239.15 92.25 236.25 106.2 238.6 118.45 L236.85 118.45 Q233.9 102.2 237.8 87.85 239.5 81.6 242.1 78.15 244.75 74.65 247.6 75.2"/><path fill="#0d131a" d="M255.4 107.45 L255.2 109.5 254.65 110.35 Q254.3 110.35 254.1 109.5 253.85 108.65 253.85 107.45 253.85 106.25 254.1 105.4 254.3 104.55 254.65 104.55 254.95 104.55 255.2 105.4 L255.4 107.45"/><path fill="#0d131a" d="M239.65 118.95 Q236.6 118.7 232.2 121.15 228.4 123.25 226.6 125.45 224.9 127.6 226.45 136.4 228.0 145.15 231.2 151.45 232.2 153.45 233.5 154.6 234.75 155.7 236.05 155.65 239.4 155.55 242.25 149.4 245.1 143.3 245.05 133.5 244.95 124.6 243.0 121.05 242.0 119.2 239.65 118.95 M224.85 124.0 Q226.9 121.5 231.1 119.15 236.15 116.35 239.85 116.7 241.45 116.8 243.05 118.0 244.5 119.05 245.35 120.6 246.45 122.55 247.15 126.2 247.9 130.05 247.9 134.35 247.9 138.6 246.9 143.2 245.9 147.65 244.3 151.15 240.8 158.6 236.35 158.6 234.45 158.65 232.45 156.9 230.6 155.25 229.15 152.5 226.6 147.45 224.8 137.25 222.9 126.4 224.85 124.0"/></g></svg>