<?xml version='1.0' encoding='utf-8'?>
<svg xmlns="http://www.w3.org/2000/svg" version="1.1" width="144px" height="191px" viewBox="-0.6 -0.35 143.5 190.8"><g><path fill="#a1bfd3" d="M9.75 44.85 L7.65 39.55 Q7.25 38.55 8.65 38.05 10.05 37.5 11.15 38.95 13.45 42.05 20.3 57.4 28.15 75.0 30.2 84.25 32.2 93.0 31.55 102.7 30.75 114.45 25.95 126.05 16.3 149.5 4.85 163.5 3.55 165.15 2.15 164.65 0.8 164.15 1.5 162.8 2.25 161.25 3.55 159.05 L5.2 156.35 3.45 142.1 10.15 132.95 Q5.4 136.5 3.05 137.65 2.65 133.95 2.35 125.2 4.6 124.45 10.1 119.85 15.7 115.2 17.4 112.55 10.4 115.85 2.45 117.8 1.5 116.8 1.2 104.4 L9.5 102.0 1.25 100.05 Q0.8 95.8 1.35 90.05 L2.25 83.25 7.9 85.3 Q14.05 87.6 16.75 88.85 L9.1 81.05 2.9 75.0 5.55 61.75 12.1 67.1 6.2 57.25 9.75 44.85"/><path fill="#839dae" d="M23.8 96.15 Q18.55 79.25 16.2 73.25 12.55 64.0 6.25 57.1 L9.55 45.4 Q19.75 65.65 23.8 96.15"/><path fill="#839dae" d="M22.85 110.85 L24.8 120.5 Q26.2 128.05 25.55 129.2 L23.95 132.95 Q22.65 135.85 22.05 135.45 L17.4 135.25 Q14.2 136.6 12.5 140.6 L7.75 150.95 5.2 156.35 3.65 143.75 Q9.5 137.35 15.6 126.55 20.95 117.0 22.85 110.85"/><path fill="#a1bfd3" d="M110.75 166.9 Q118.2 163.45 122.0 164.9 124.75 165.9 131.0 170.25 138.05 175.1 140.4 178.25 138.75 179.6 126.05 184.95 L124.0 182.95 Q118.0 186.2 116.0 185.95 L110.9 179.05 Q106.65 173.05 105.3 171.9 103.4 170.3 110.75 166.9"/><path fill="#839dae" d="M105.3 171.9 Q104.6 171.25 105.85 170.0 107.0 168.8 109.45 167.55 124.85 171.15 131.75 175.8 136.2 178.8 135.8 180.65 L126.05 184.95 124.0 182.95 Q118.0 186.2 116.0 185.95 L110.9 179.05 Q106.65 173.05 105.3 171.9"/><path fill="#0d131a" d="M10.55 39.4 Q9.95 38.6 9.2 38.65 8.45 38.65 8.65 39.4 8.9 40.55 10.5 44.8 L10.45 45.05 7.2 56.55 12.75 66.75 Q14.1 69.1 13.5 68.95 13.1 68.9 11.65 67.65 L8.95 65.65 6.15 63.65 3.95 73.4 Q3.75 74.35 4.3 75.0 L5.55 76.3 10.2 80.75 Q14.75 85.2 17.25 88.35 19.0 90.6 18.05 90.3 L15.8 89.2 3.85 84.5 Q2.9 84.25 2.8 85.1 1.9 99.05 2.05 99.3 L7.2 100.5 Q12.25 101.6 12.3 101.95 12.4 102.3 7.3 103.5 L1.95 104.9 Q1.75 105.2 2.2 111.0 2.7 116.75 2.9 116.95 L9.4 114.8 17.1 111.9 Q18.45 111.35 18.6 111.65 18.7 111.95 17.85 112.95 12.6 118.9 7.2 122.75 L3.05 125.65 3.3 131.15 3.65 136.5 Q3.8 136.8 6.1 135.2 L9.7 132.4 Q11.05 131.2 11.15 131.5 L10.45 133.55 Q9.9 134.85 7.0 138.6 L4.2 142.3 4.9 148.7 5.7 154.7 6.3 154.7 Q6.75 154.85 6.1 155.9 L2.15 163.0 Q1.65 163.9 2.65 163.85 3.65 163.85 4.3 163.05 15.7 149.1 25.3 125.75 30.35 113.5 30.9 100.95 31.25 92.2 29.5 84.4 27.5 75.35 19.7 57.85 12.85 42.4 10.55 39.4 M8.15 36.35 Q10.0 36.2 11.7 38.55 14.1 41.7 21.2 57.3 29.3 75.1 31.45 84.5 36.05 105.4 27.55 126.05 17.85 149.65 6.35 163.7 5.2 165.15 3.6 165.95 1.75 166.9 0.6 166.2 -0.6 165.45 0.85 162.45 L4.3 156.25 2.7 141.9 Q2.75 141.5 4.1 139.75 L6.95 136.1 5.05 137.4 Q4.0 138.1 3.35 138.3 2.3 138.65 2.3 137.7 2.1 135.8 1.65 126.4 1.6 124.85 1.85 124.5 2.05 124.2 3.65 123.3 7.1 121.4 9.7 119.35 L14.95 114.4 8.1 117.0 3.1 118.6 Q1.9 118.9 1.6 118.6 1.4 118.4 1.15 116.9 0.9 115.45 0.7 111.45 L0.55 105.95 0.8 104.05 Q1.0 103.55 1.75 103.35 L6.65 102.05 1.75 100.75 Q0.25 100.4 0.25 98.75 0.25 95.55 0.7 90.25 L1.35 84.25 Q1.6 83.15 2.05 82.9 2.65 82.55 3.95 83.1 L7.85 84.55 13.8 86.8 4.55 77.65 2.55 75.9 Q1.85 75.05 2.15 73.9 L4.85 61.6 Q5.1 60.55 5.4 60.55 L6.35 61.25 9.4 63.95 6.3 58.75 Q5.3 57.05 5.45 56.45 L8.8 44.7 Q8.25 43.65 6.95 39.8 6.55 38.45 6.8 37.5 7.1 36.4 8.15 36.35"/><path fill="#0d131a" d="M9.8 45.6 L10.2 44.0 Q14.6 54.3 18.3 66.35 25.7 90.35 24.4 104.15 23.4 114.8 15.45 135.1 8.75 152.2 5.75 156.55 4.2 158.85 4.1 157.8 L4.3 156.3 Q7.9 149.75 13.75 134.8 21.6 114.75 22.6 104.4 23.9 90.7 17.2 67.4 15.1 59.95 12.35 52.35 L9.8 45.6"/><path fill="#0d131a" d="M120.85 165.45 Q118.0 165.6 114.05 166.75 109.5 168.05 107.2 169.8 105.75 170.85 105.75 171.35 107.05 172.45 112.5 180.05 114.1 182.3 116.45 184.95 L119.4 184.2 123.7 182.3 124.15 182.05 Q125.75 183.85 126.35 183.75 L133.1 180.9 Q139.25 178.15 139.25 177.8 139.3 177.15 131.7 171.75 124.1 166.35 121.95 165.5 L120.85 165.45 M104.6 170.35 Q105.8 168.35 114.0 166.2 L121.95 164.4 Q126.75 166.05 141.75 176.85 142.9 177.85 141.95 178.4 132.65 183.85 126.3 185.6 125.75 185.75 124.95 185.0 L123.9 183.8 119.95 185.5 116.6 186.75 115.75 186.7 114.9 185.75 111.35 180.9 Q106.15 173.6 104.85 172.45 103.9 171.65 104.6 170.35"/><path fill="#0d131a" d="M113.1 172.85 L113.5 172.25 Q115.95 173.8 119.6 177.25 123.1 180.55 125.15 183.15 L123.25 182.85 Q121.1 180.15 118.35 177.35 115.2 174.15 113.1 172.85"/><path fill="#d4c79f" d="M90.75 62.8 Q100.1 66.5 107.5 72.3 115.15 78.3 118.6 84.95 125.35 97.85 125.65 114.3 L125.3 125.1 Q125.0 130.2 125.3 131.4 126.85 137.45 127.2 145.7 127.55 155.35 125.3 157.15 126.5 160.05 125.25 162.75 124.05 165.3 121.5 166.25 121.75 170.6 117.9 172.55 114.8 174.15 110.25 173.85 95.55 188.6 81.25 188.4 73.4 188.3 63.45 182.55 55.45 177.9 45.2 166.55 36.25 156.6 34.15 151.9 28.1 138.3 25.15 123.45 23.2 113.35 22.85 103.95 22.55 96.15 31.5 82.8 41.7 67.55 55.15 61.15 69.5 54.35 90.75 62.8"/><path fill="#b7ad8a" d="M63.45 182.55 Q55.45 177.9 45.2 166.55 36.25 156.6 34.15 151.9 27.35 136.75 24.6 120.3 31.8 136.1 45.4 146.6 58.75 156.95 75.25 159.85 79.15 160.7 82.45 164.25 86.05 168.1 87.25 168.55 94.6 171.3 103.8 171.25 L120.6 170.15 Q119.25 172.35 116.1 173.3 L110.25 173.85 Q95.55 188.6 81.25 188.4 73.4 188.3 63.45 182.55"/><path fill="#9f8c55" d="M63.0 90.85 Q63.35 92.2 62.1 96.85 60.8 101.75 59.45 103.0 58.2 104.15 55.0 102.35 52.4 100.85 51.0 99.15 50.05 98.1 50.3 94.7 50.45 91.95 51.1 89.85 51.65 88.35 53.7 86.95 55.8 85.5 57.55 85.5 59.3 85.5 60.85 87.05 62.45 88.6 63.0 90.85"/><path fill="#9f8c55" d="M58.9 113.4 Q59.6 114.3 59.15 120.65 L58.2 128.3 Q57.95 129.5 54.2 130.7 L48.1 132.5 Q46.1 133.2 44.9 132.25 L43.05 130.05 Q42.15 129.05 42.5 124.0 42.8 119.85 43.6 116.25 44.2 113.55 45.85 111.75 47.45 110.05 49.35 109.85 51.2 109.65 54.5 110.85 57.85 112.1 58.9 113.4"/><path fill="#9f8c55" d="M57.35 137.35 Q58.0 137.9 58.2 139.75 L58.35 143.6 Q58.35 145.65 57.5 147.8 56.7 150.0 55.75 150.4 L53.55 150.95 51.0 151.35 Q49.85 151.65 48.2 150.5 46.7 149.45 45.8 147.95 45.1 146.85 45.85 143.35 L47.0 138.8 Q47.3 137.6 51.9 137.1 L57.35 137.35"/><path fill="#0d131a" d="M39.5 154.85 Q39.8 158.6 40.85 161.35 L37.6 157.4 Q36.95 155.15 36.7 152.3 36.5 150.0 36.65 148.35 38.05 150.25 39.5 151.1 39.3 151.9 39.5 154.85"/><path fill="#0d131a" d="M43.95 164.65 Q43.05 163.15 42.7 159.6 42.5 156.9 42.65 154.9 L45.45 156.8 45.85 161.7 Q46.3 165.3 47.15 168.7 L43.95 164.65"/><path fill="#0d131a" d="M52.75 174.05 Q48.95 168.05 48.95 158.6 50.15 159.6 52.2 160.65 52.7 165.95 54.35 170.5 55.85 174.5 58.65 178.95 L52.75 174.05"/><path fill="#ed85a7" d="M108.1 155.0 L117.1 154.5 122.15 154.85 Q124.35 155.4 125.65 157.6 127.25 160.25 124.6 163.85 123.25 165.7 121.6 166.95 L121.5 168.1 Q121.2 169.5 120.35 170.6 117.6 174.2 110.25 173.85 L104.45 173.65 Q100.85 173.65 99.5 174.2 L96.05 175.6 Q93.75 176.4 91.85 176.4 89.6 176.4 88.5 173.15 87.4 169.95 88.55 166.95 90.15 162.85 93.8 159.7 96.9 157.05 99.9 156.15 L108.1 155.0"/><path fill="#cd7491" d="M105.45 171.65 L112.75 172.0 Q115.75 172.0 118.5 171.1 L120.6 170.15 Q119.85 171.8 117.45 172.95 115.45 173.9 114.05 173.9 L108.8 173.8 103.5 173.55 101.2 173.8 98.9 174.45 95.7 175.75 91.85 176.4 Q89.85 176.4 88.75 173.75 87.65 171.1 88.2 168.2 88.6 170.0 89.75 171.15 L92.35 172.75 Q94.6 173.7 100.15 171.9 L105.45 171.65"/><path fill="#9f8c55" d="M98.1 156.7 Q98.65 155.75 100.45 149.25 101.95 143.95 102.5 144.8 103.45 146.3 106.05 155.05 L98.1 156.7"/><path fill="#9f8c55" d="M124.9 144.25 Q125.95 145.5 126.25 151.8 126.55 158.1 125.4 157.0 124.45 156.1 122.5 155.35 L120.8 154.8 Q122.05 153.2 123.35 147.8 124.35 143.6 124.9 144.25"/><path fill="#9f8c55" d="M120.0 95.75 Q119.65 94.5 121.35 92.2 L123.0 96.1 Q124.75 102.0 125.45 112.0 L123.2 109.7 Q121.25 107.65 121.35 106.4 L120.8 101.1 120.0 95.75"/><path fill="#9f8c55" d="M106.6 87.95 Q108.8 89.35 111.7 93.7 115.0 98.6 116.3 103.4 117.7 108.5 117.5 112.2 117.35 115.8 115.75 116.95 114.5 117.9 111.05 117.95 L105.25 117.9 Q102.75 118.0 100.25 117.0 98.05 116.05 96.6 114.6 95.5 113.5 94.7 107.9 L93.6 99.3 Q92.95 95.1 94.3 90.4 94.6 89.4 100.1 88.35 L106.6 87.95"/><path fill="#0d131a" d="M78.3 104.0 Q82.3 104.0 85.2 111.6 88.05 119.25 88.05 130.0 88.05 140.8 85.2 148.45 82.3 156.05 78.3 156.05 74.15 156.05 71.35 148.9 68.5 141.5 68.55 130.0 68.65 119.2 71.45 111.6 74.25 104.0 78.3 104.0"/><path fill="#ffffff" d="M79.65 115.7 Q81.85 115.85 83.15 121.05 84.5 126.3 84.1 133.55 83.65 141.85 82.45 145.75 80.9 150.7 77.75 150.8 75.5 150.85 74.2 145.55 72.9 140.3 73.3 132.95 73.7 125.7 75.55 120.65 77.4 115.6 79.65 115.7"/><path fill="#0d131a" d="M118.0 85.25 Q114.6 78.8 107.1 72.9 99.8 67.2 90.55 63.5 81.05 59.7 72.15 59.1 62.45 58.5 55.45 61.8 41.85 68.3 31.85 83.5 23.25 96.5 23.55 103.9 23.9 113.5 25.95 123.7 28.9 138.3 34.85 151.6 36.95 156.35 45.85 166.2 56.0 177.35 63.9 181.95 73.6 187.6 81.35 187.7 95.25 187.85 109.75 173.35 L110.0 173.1 110.3 173.15 115.5 172.7 Q117.9 172.05 119.2 170.75 120.9 169.15 120.8 166.3 L120.75 165.8 121.25 165.6 Q123.65 164.65 124.65 162.3 125.7 160.0 124.65 157.4 L124.45 156.9 124.85 156.6 Q126.8 155.05 126.45 145.9 126.15 137.65 124.6 131.6 124.25 130.25 124.6 124.7 125.25 114.25 124.55 107.4 123.25 95.35 118.0 85.25 M91.05 61.6 Q101.0 65.55 108.65 71.2 116.7 77.2 120.05 83.55 124.0 91.05 125.45 100.6 126.4 106.75 126.4 115.7 L126.05 124.8 125.85 129.25 Q125.85 130.55 126.0 131.2 126.7 133.85 127.3 138.45 127.95 143.8 127.95 148.2 127.95 155.2 126.1 157.3 126.6 158.8 126.6 159.9 126.6 161.5 126.0 162.9 124.85 165.55 122.2 166.7 L122.2 166.75 Q122.2 170.4 120.4 172.15 118.9 173.65 116.45 174.4 L110.95 175.0 Q95.95 190.3 82.3 190.35 74.35 190.35 63.3 183.7 55.1 178.7 45.25 168.8 36.2 159.65 34.25 155.3 28.2 141.85 24.9 125.55 22.45 113.55 22.1 104.0 21.8 95.6 30.4 82.2 40.2 66.8 53.55 60.45 60.7 57.1 70.7 57.35 81.0 57.6 91.05 61.6"/><path fill="#0d131a" d="M53.4 61.6 L54.95 61.2 Q47.05 67.85 40.0 82.4 30.15 102.85 30.45 125.95 30.5 129.15 31.95 136.55 33.15 142.55 32.35 148.55 L31.65 146.0 Q32.0 143.35 31.6 140.55 L30.6 135.55 Q29.5 129.9 29.4 125.95 28.8 101.1 38.5 81.6 44.85 68.85 53.4 61.6"/><path fill="#0d131a" d="M108.15 71.55 Q109.8 72.3 110.75 73.65 111.65 75.0 110.45 74.35 105.3 71.5 99.05 71.3 91.8 71.05 86.7 74.75 77.2 81.65 71.4 95.35 64.6 111.55 65.55 132.5 66.3 148.05 68.45 154.6 69.8 158.55 73.15 161.7 L75.4 163.95 Q76.45 165.15 77.25 167.5 L78.6 172.2 Q80.1 177.7 81.1 179.55 83.05 183.1 85.85 184.75 88.5 186.25 92.25 186.25 L89.85 187.7 Q86.65 187.7 84.25 186.0 81.9 184.35 79.95 180.85 79.25 179.5 78.6 176.85 L77.55 172.45 76.4 168.1 Q75.7 166.0 74.8 164.95 L73.3 163.55 71.75 162.3 Q68.25 159.1 66.9 155.05 64.65 148.45 63.9 132.55 62.9 111.3 70.0 94.35 76.05 79.9 85.75 72.85 90.5 69.45 97.2 69.35 102.9 69.3 108.15 71.55"/><path fill="#0d131a" d="M60.6 87.3 Q59.1 85.8 57.5 85.8 55.9 85.8 53.9 87.15 51.9 88.55 51.4 89.95 50.8 91.85 50.6 94.6 50.35 97.9 51.2 98.9 L54.2 101.4 Q56.5 102.95 57.95 103.0 L59.15 102.7 Q60.45 101.5 61.7 96.65 62.9 92.1 62.6 90.85 62.1 88.75 60.6 87.3 M49.4 94.35 Q49.55 90.95 50.15 89.05 50.7 87.45 53.15 85.95 55.55 84.5 57.45 84.5 59.35 84.5 61.3 86.5 63.25 88.4 63.85 90.85 64.2 92.25 62.7 96.95 61.2 101.9 59.7 103.25 58.6 104.2 57.6 104.15 55.95 104.05 53.45 102.35 L50.3 99.6 Q49.25 98.35 49.4 94.35"/><path fill="#0d131a" d="M45.85 112.0 Q44.3 113.7 43.8 116.2 43.0 119.85 42.7 124.0 42.35 128.8 43.15 129.7 L43.9 130.65 45.35 132.15 47.8 132.05 50.75 131.2 55.2 129.8 Q57.55 128.9 57.7 128.1 58.25 125.65 58.6 120.25 59.05 114.25 58.45 113.5 57.45 112.3 54.2 111.1 50.95 109.85 49.2 110.05 47.35 110.3 45.85 112.0 M44.95 111.3 Q46.75 109.45 48.85 109.2 50.85 108.95 54.55 110.2 58.35 111.5 59.4 112.8 60.0 113.55 60.0 116.15 L59.5 123.55 58.8 128.75 Q58.6 129.8 56.15 130.6 L51.1 132.0 47.8 132.95 44.75 132.9 43.1 131.15 42.35 130.25 Q41.3 129.05 41.6 123.4 41.85 118.7 42.5 115.9 43.1 113.2 44.95 111.3"/><path fill="#0d131a" d="M48.7 138.0 Q47.2 138.45 47.2 138.85 L46.9 139.85 Q45.05 146.3 45.9 147.7 46.75 149.1 48.2 150.15 49.75 151.2 50.7 150.95 L52.85 150.6 55.45 150.05 Q56.25 149.65 57.05 147.65 57.85 145.5 57.85 143.5 57.85 138.35 56.9 137.55 L53.6 137.2 Q50.75 137.35 48.7 138.0 M45.0 148.05 Q43.95 146.25 45.95 139.35 L46.2 138.3 Q46.5 137.35 48.3 136.8 L53.5 136.3 Q56.8 136.4 57.55 137.05 58.3 137.7 58.55 139.5 L58.7 143.6 Q58.7 145.75 58.05 147.95 57.3 150.35 56.3 150.8 L53.65 151.5 50.75 151.85 Q49.45 152.2 47.6 150.8 45.95 149.6 45.0 148.05"/><path fill="#0d131a" d="M36.25 148.35 Q36.4 147.55 36.9 148.15 L39.45 150.5 40.05 151.15 39.95 152.5 Q39.55 156.95 41.2 161.2 L40.55 161.5 Q39.05 157.7 39.05 152.6 L39.1 151.25 36.95 149.3 36.95 149.7 Q36.95 153.85 37.95 157.3 L37.25 157.5 Q36.6 155.35 36.35 151.9 36.15 149.25 36.25 148.35"/><path fill="#0d131a" d="M42.25 159.45 Q42.0 156.8 42.1 155.2 L42.25 154.45 Q42.4 154.35 42.9 154.7 L45.05 156.15 45.95 156.9 46.1 158.25 Q46.25 163.1 47.8 168.95 L46.8 168.8 Q45.55 163.85 45.2 158.0 L45.1 157.0 42.95 155.6 42.95 156.65 Q42.95 158.75 43.35 161.05 43.8 163.75 44.5 164.9 L43.6 164.85 Q42.65 163.25 42.25 159.45"/><path fill="#0d131a" d="M48.5 159.1 Q48.5 158.3 48.65 158.2 L49.15 158.35 51.9 159.95 52.8 160.75 52.95 162.4 Q52.95 164.25 54.5 168.95 56.35 174.75 58.95 178.8 L57.65 178.45 Q54.8 174.0 53.55 170.05 52.4 166.55 51.9 161.2 L49.3 159.45 Q49.4 168.1 53.05 173.85 L51.85 173.25 Q48.5 167.95 48.5 159.1"/><path fill="#0d131a" d="M107.65 154.05 L117.0 153.75 Q119.95 153.85 122.4 154.7 125.05 155.55 125.35 156.7 125.55 159.8 125.0 158.35 124.55 157.2 122.35 156.3 120.0 155.35 117.0 155.25 L108.05 155.65 100.05 156.7 Q97.05 157.55 94.1 159.95 90.3 163.05 89.1 167.15 87.9 171.3 89.15 173.65 90.15 175.6 92.15 175.6 94.65 175.6 98.2 174.1 L99.3 173.65 105.05 173.0 110.5 173.15 Q112.15 173.35 112.55 174.1 112.95 174.95 110.4 174.9 L104.4 174.5 99.7 174.75 98.65 175.15 95.75 176.5 92.3 177.2 Q90.1 177.2 88.7 175.85 86.15 173.35 87.3 167.0 87.95 163.5 91.3 160.3 94.7 157.05 99.75 155.25 101.8 154.5 107.65 154.05"/><path fill="#0d131a" d="M102.4 164.9 L111.95 164.3 Q120.3 164.15 121.45 165.55 L121.85 166.25 120.95 167.15 Q121.15 166.15 120.55 165.95 L111.3 165.4 102.6 165.85 Q100.45 166.25 98.55 167.2 96.25 168.4 95.55 169.85 95.25 170.55 94.95 170.4 94.65 170.25 94.95 169.5 95.7 167.55 98.25 166.25 100.1 165.3 102.4 164.9"/><path fill="#0d131a" d="M101.4 143.95 Q101.8 142.95 102.2 143.2 L103.0 144.5 Q104.55 147.7 105.65 151.3 L106.6 154.9 105.5 155.2 103.8 149.6 102.25 145.6 Q102.15 145.45 100.95 150.1 99.65 155.25 99.0 156.35 L97.6 156.4 98.35 154.35 99.15 151.2 Q100.6 146.05 101.4 143.95"/><path fill="#0d131a" d="M124.0 143.05 Q124.1 142.35 124.6 142.8 L125.6 144.15 Q126.8 146.35 127.0 151.0 127.2 155.8 125.95 157.25 L124.5 157.0 125.35 155.2 Q125.85 153.65 125.85 152.45 125.85 147.1 124.85 145.0 124.7 144.65 124.5 145.45 L123.95 147.7 Q122.75 153.2 121.25 155.15 L119.8 155.05 Q121.55 152.8 122.85 147.45 L124.0 143.05"/><path fill="#0d131a" d="M119.35 95.9 Q119.15 95.1 119.8 93.9 120.05 93.4 121.05 92.0 L121.8 92.8 120.6 94.5 Q120.2 95.2 120.35 95.65 L121.15 101.0 121.8 106.35 Q121.85 107.95 124.95 111.05 L125.75 111.8 125.3 113.25 Q120.55 108.7 120.65 106.9 L120.1 101.5 119.35 95.9"/><path fill="#0d131a" d="M111.5 93.95 Q108.65 89.7 106.4 88.25 L102.35 88.35 Q98.95 88.8 96.5 89.6 94.65 90.25 94.65 90.55 93.25 94.75 93.95 99.25 L94.5 103.3 95.4 109.9 Q96.1 113.55 96.9 114.35 98.25 115.7 100.25 116.55 102.7 117.6 105.2 117.55 L108.35 117.55 112.5 117.5 Q114.6 117.3 115.55 116.65 116.9 115.6 117.15 112.4 117.4 108.7 115.95 103.5 114.65 98.75 111.5 93.95 M95.25 88.95 Q97.8 88.0 101.65 87.25 L106.85 87.0 Q109.15 88.45 112.3 93.2 115.85 98.45 117.15 103.3 118.55 108.4 118.25 112.3 117.95 116.05 116.2 117.35 114.4 118.65 107.9 118.55 L104.8 118.55 Q102.05 118.65 99.5 117.7 97.2 116.85 95.8 115.5 94.9 114.55 94.3 111.1 L93.45 104.3 92.95 99.15 Q92.1 93.8 93.2 90.25 93.3 89.65 95.25 88.95"/><path fill="#0d131a" d="M78.3 104.6 Q74.6 104.6 71.9 112.05 69.25 119.5 69.15 130.05 69.1 138.25 70.65 144.65 72.25 151.1 75.0 153.85 76.6 155.45 78.3 155.45 82.0 155.45 84.75 147.9 87.45 140.35 87.45 130.0 87.45 119.7 84.75 112.15 82.0 104.6 78.3 104.6 M67.95 130.0 Q68.05 118.75 71.0 110.95 73.95 103.1 78.2 103.1 82.55 103.1 85.6 110.95 88.65 118.8 88.65 130.0 88.65 141.2 85.6 149.05 82.55 156.9 78.2 156.9 73.9 156.9 71.05 150.25 67.9 142.85 67.95 130.0"/><path fill="#0d131a" d="M73.9 133.0 Q73.55 139.6 74.65 144.75 75.75 150.15 77.75 150.2 79.85 150.25 81.25 146.8 83.0 142.55 83.5 133.5 83.9 126.35 82.6 121.25 81.4 116.4 79.6 116.3 77.8 116.2 76.1 120.85 74.3 125.85 73.9 133.0 M72.7 132.95 Q73.05 125.65 74.75 120.5 76.65 114.65 79.4 114.8 82.15 115.0 83.65 121.0 85.05 126.55 84.7 133.6 84.25 141.85 83.0 145.85 81.35 151.25 77.75 151.35 76.65 151.35 75.85 150.5 74.1 148.75 73.25 143.85 72.35 138.95 72.7 132.95"/><path fill="#0d131a" d="M80.95 137.05 Q81.55 137.05 81.45 138.35 81.3 139.65 80.65 139.55 80.05 139.55 80.15 138.2 80.35 136.95 80.95 137.05"/><path fill="#a1bfd3" d="M94.65 33.15 Q90.2 54.5 89.5 58.7 88.5 64.75 88.1 65.75 87.4 67.55 85.3 67.7 83.4 67.85 75.5 64.2 67.3 60.4 67.15 58.7 61.15 13.4 60.85 9.35 60.6 5.4 60.75 4.1 60.95 1.85 62.2 1.4 63.55 0.9 65.5 2.35 L68.2 4.7 Q71.5 7.5 80.1 10.35 89.35 13.4 91.4 11.5 93.6 9.5 96.4 9.65 99.2 9.75 99.0 11.65 L94.65 33.15 M84.85 23.25 Q84.75 22.45 78.6 20.2 72.4 17.95 71.75 18.85 70.95 20.05 72.35 32.65 L74.5 50.3 Q75.05 55.0 76.85 57.2 79.05 59.9 80.5 52.55 82.05 44.6 83.6 34.25 85.0 24.4 84.85 23.25"/><path fill="#839dae" d="M71.25 37.4 Q69.05 19.1 70.05 18.3 71.3 17.3 71.75 18.85 70.95 20.05 72.35 32.65 L74.5 50.3 Q74.7 52.2 75.45 54.3 76.2 56.6 77.1 57.5 77.05 57.75 77.95 58.9 L75.3 58.8 Q73.55 58.25 73.1 57.7 72.7 57.15 73.3 56.15 73.5 55.9 71.25 37.4"/><path fill="#0d131a" d="M95.1 10.45 Q93.3 10.8 91.9 12.05 89.5 14.2 79.9 11.05 71.1 8.15 67.75 5.25 L67.0 4.55 64.8 2.7 Q63.35 1.75 62.45 2.1 61.6 2.45 61.45 4.55 61.35 5.75 61.55 9.3 61.75 12.5 66.75 50.25 L68.0 59.25 Q68.3 60.55 75.85 64.05 83.3 67.45 85.05 67.35 86.65 67.25 87.25 65.95 87.8 64.75 88.5 60.25 L88.8 58.6 Q90.8 46.45 94.1 30.55 L96.75 19.3 Q98.25 13.2 98.3 11.6 98.3 10.95 97.7 10.65 L95.1 10.45 M90.9 11.0 Q92.7 9.35 95.1 8.55 L98.85 8.35 Q100.8 9.3 100.4 11.65 L98.75 18.95 95.7 32.5 92.35 47.95 Q90.6 56.05 89.95 60.5 L89.05 66.05 Q88.25 68.65 85.9 68.65 83.6 68.65 75.4 64.9 66.6 60.95 66.35 58.85 L65.65 50.3 61.95 25.85 Q59.5 10.45 59.4 9.05 58.85 1.2 61.85 0.15 63.25 -0.35 65.15 1.0 L68.0 3.5 68.7 4.15 Q71.85 6.85 80.35 9.65 89.15 12.55 90.9 11.0"/><path fill="#0d131a" d="M82.75 34.0 Q84.2 24.0 83.85 23.45 83.5 22.85 78.5 21.0 73.4 19.15 72.35 19.4 72.15 19.8 72.15 21.15 72.15 26.05 74.45 43.85 L75.25 50.2 Q76.0 56.8 77.4 57.35 78.8 57.9 79.8 52.45 L82.75 34.0 M85.25 22.35 L85.55 22.15 Q85.8 22.15 85.6 23.4 83.25 42.25 81.2 52.7 80.6 55.85 79.65 57.6 78.65 59.4 77.55 59.35 76.0 59.3 74.85 55.65 74.15 53.25 73.8 50.35 L73.0 44.05 Q70.25 22.3 71.05 19.0 69.5 18.2 71.2 18.0 L74.65 18.25 80.35 20.15 Q84.35 21.7 85.25 22.35"/><path fill="#a1bfd3" d="M40.4 187.0 L36.75 184.7 34.05 186.9 Q19.7 178.55 18.45 176.65 20.7 174.05 34.2 168.3 47.5 162.65 54.1 161.4 L57.35 161.25 Q58.05 161.55 57.45 162.55 57.05 163.25 57.65 163.5 L59.5 163.45 61.65 163.4 Q61.95 163.65 61.4 164.7 60.5 166.4 62.75 165.25 64.3 164.55 64.6 164.7 64.95 164.85 64.35 166.15 62.7 169.85 54.75 179.4 47.6 187.95 45.4 189.75 L40.4 187.0"/><path fill="#839dae" d="M40.4 187.0 L36.75 184.7 34.05 186.9 29.1 183.65 Q33.1 183.6 40.9 179.0 48.6 174.05 50.2 173.35 51.9 172.6 48.75 175.65 45.1 179.15 45.55 179.4 48.5 180.95 52.45 177.85 57.55 173.15 61.05 170.6 L51.5 182.6 45.4 189.75 40.4 187.0"/><path fill="#a1bfd3" d="M61.6 162.95 Q62.35 163.3 61.55 164.8 61.15 165.65 62.6 164.9 66.35 163.05 64.5 166.65 L63.15 167.1 64.0 165.3 Q63.9 165.0 62.95 165.45 61.85 166.0 61.2 165.8 60.5 165.55 61.05 164.5 61.75 163.2 59.7 163.6 56.0 164.6 57.35 162.35 57.8 161.65 56.4 161.55 54.9 161.45 52.2 162.25 51.2 162.5 51.9 161.95 52.55 161.35 53.5 161.15 L57.6 160.9 Q58.7 161.3 57.8 162.75 57.5 163.25 57.85 163.3 L59.4 163.1 61.6 162.95"/><path fill="#0d131a" d="M17.7 176.6 Q18.05 175.9 19.45 174.8 22.3 172.5 32.95 168.05 43.8 163.45 50.9 161.65 54.3 160.8 54.7 161.15 55.1 161.55 51.6 162.4 45.1 164.0 32.7 169.6 20.6 175.05 19.95 176.45 19.75 176.9 25.95 181.0 L33.6 185.65 Q34.1 185.95 34.8 185.3 L41.55 179.7 Q47.85 174.55 51.45 172.0 L55.25 169.25 Q57.05 168.35 56.3 169.15 L51.85 172.6 Q48.85 174.75 44.3 178.6 L37.8 184.45 Q44.4 189.1 45.2 188.9 45.9 188.7 53.1 180.15 60.65 171.15 62.9 167.4 64.3 165.05 64.8 165.2 65.3 165.35 63.8 168.1 62.35 170.6 55.1 180.0 L47.3 189.75 Q46.55 190.4 45.75 190.45 L43.75 190.05 Q42.8 189.7 40.3 188.0 L36.8 185.6 35.05 187.8 Q34.3 188.55 33.75 188.25 L26.15 183.35 Q19.25 178.8 18.25 178.05 17.3 177.4 17.7 176.6"/></g></svg>