<?xml version='1.0' encoding='utf-8'?>
<svg xmlns="http://www.w3.org/2000/svg" version="1.1" width="119px" height="180px" viewBox="0.0 -0.85 118.55 180.15"><g><path fill="#c6dcdb" d="M47.7 40.45 L52.1 38.35 Q57.7 36.2 63.75 36.25 70.5 36.3 74.55 37.4 77.8 38.3 81.1 40.45 L76.1 41.85 Q69.95 43.3 64.25 43.4 58.55 43.5 52.55 42.0 L47.7 40.45"/><path fill="#0d131a" d="M46.35 126.75 Q51.6 124.7 60.1 126.4 67.65 127.9 70.9 130.5 L72.35 131.6 Q73.1 132.25 73.05 132.65 72.55 135.8 66.75 151.85 60.6 168.85 57.25 175.55 55.4 179.3 54.1 179.15 52.75 179.0 50.95 174.6 48.8 169.4 44.6 156.15 39.0 138.4 39.6 134.4 39.95 132.15 42.0 129.9 43.95 127.65 46.35 126.75"/><path fill="#c6dcdb" d="M71.1 132.35 Q70.7 134.95 63.75 153.8 57.0 172.2 55.7 174.6 54.55 176.7 53.95 176.65 53.45 176.6 52.5 174.45 49.95 168.8 46.0 153.55 41.95 138.15 41.95 133.8 L42.0 133.3 Q42.3 130.9 43.55 128.5 45.0 125.65 46.9 124.95 58.65 120.3 64.75 122.7 69.9 124.75 70.3 131.25 70.35 131.8 70.7 132.05 L71.1 132.3 71.1 132.35"/><path fill="#a7bab9" d="M56.1 136.35 Q57.55 139.25 60.8 140.75 64.8 142.6 69.4 141.05 L64.6 153.0 59.4 165.35 Q58.6 159.0 55.65 155.05 51.85 150.0 45.05 149.85 43.4 143.15 42.9 140.35 44.5 142.6 46.5 142.55 50.1 142.4 56.1 136.35"/><path fill="#0d131a" d="M81.6 62.3 Q87.15 56.75 94.95 56.75 102.75 56.75 108.35 62.45 113.95 68.1 113.95 75.95 113.95 88.75 101.5 93.3 105.9 97.85 105.9 104.2 105.9 107.65 105.0 109.95 110.75 110.4 114.55 114.55 118.45 118.85 118.5 125.4 118.55 133.85 112.1 138.95 106.1 143.65 97.3 143.65 90.6 143.65 85.6 135.9 80.9 128.65 80.9 120.4 80.9 120.1 82.65 119.6 84.45 119.1 84.45 118.85 79.95 117.1 77.2 113.05 74.45 109.05 74.45 104.2 74.45 99.8 76.8 96.0 79.1 92.25 83.0 90.2 79.7 87.5 77.9 83.7 76.05 79.9 76.05 75.6 76.05 67.8 81.6 62.3"/><path fill="#c6dcdb" d="M94.95 57.7 Q102.25 57.7 107.25 63.0 112.15 68.25 112.15 75.7 112.15 87.4 100.95 92.3 100.2 91.5 98.9 90.7 L97.8 90.65 Q97.65 91.25 98.75 92.0 103.6 95.45 104.35 102.6 105.1 110.15 100.0 114.85 98.7 116.05 99.05 116.45 99.35 116.85 100.75 115.65 103.3 113.45 104.55 110.95 109.7 111.6 113.15 115.95 116.5 120.25 116.5 126.0 116.5 133.0 110.6 137.6 104.9 142.1 96.65 142.1 92.15 142.1 88.55 133.75 85.35 126.4 85.35 120.4 L85.45 118.6 85.5 118.2 85.15 118.05 Q80.8 116.5 78.1 112.65 75.4 108.8 75.4 104.2 75.4 99.85 77.75 96.2 80.15 92.55 84.1 90.75 L84.85 90.4 84.15 89.9 Q80.75 87.35 78.9 83.6 77.05 79.85 77.05 75.6 77.05 68.2 82.3 62.95 87.55 57.7 94.95 57.7"/><path fill="#a7bab9" d="M94.05 134.4 Q101.65 137.05 108.8 133.45 115.4 130.15 116.45 124.8 L116.5 126.0 Q116.5 133.0 110.6 137.6 104.9 142.1 96.65 142.1 92.25 142.1 88.6 133.9 91.35 133.5 94.05 134.4"/><path fill="#a7bab9" d="M108.0 63.9 Q96.6 62.6 89.15 66.95 82.1 71.1 77.85 80.95 77.05 78.25 77.05 75.6 77.05 68.2 82.3 62.95 87.55 57.7 94.95 57.7 98.85 57.7 102.3 59.4 105.6 61.0 108.0 63.9"/><path fill="#0d131a" d="M18.85 45.45 Q22.7 41.65 28.05 41.65 33.4 41.65 37.25 45.45 41.05 49.3 41.05 54.65 41.05 58.4 38.9 61.75 43.75 67.25 43.75 74.4 43.75 79.15 41.4 83.4 39.1 87.6 35.05 90.25 37.15 92.35 38.35 95.05 39.5 97.8 39.5 100.75 39.5 104.3 37.85 107.5 36.25 110.65 33.35 112.75 34.9 116.0 34.9 119.5 34.9 126.4 30.5 132.5 25.8 139.0 19.6 139.0 10.05 139.0 4.8 134.35 0.0 130.1 0.0 123.2 0.0 116.9 3.0 112.15 6.0 107.4 10.8 106.15 9.05 103.35 9.45 98.8 9.95 93.05 14.35 90.05 10.3 87.35 7.95 83.3 5.5 79.1 5.5 74.45 5.5 69.45 8.3 64.95 11.0 60.55 15.5 58.0 15.05 56.0 15.05 54.65 15.05 49.3 18.85 45.45"/><path fill="#c6dcdb" d="M36.55 46.2 Q40.05 49.7 40.05 54.65 40.05 58.45 37.85 61.5 L37.65 61.85 37.9 62.15 Q42.75 67.25 42.75 74.4 42.75 79.15 40.45 83.2 38.15 87.3 34.05 89.75 L33.45 90.1 33.95 90.5 Q36.1 92.5 37.3 95.2 38.5 97.85 38.5 100.75 38.5 104.15 36.9 107.2 35.3 110.25 32.45 112.2 L32.1 112.45 32.3 112.8 Q33.9 116.0 33.9 119.5 33.9 125.9 29.6 131.7 25.0 137.8 19.15 137.8 11.8 137.8 6.7 133.25 1.7 128.85 1.7 122.95 1.7 117.3 4.6 112.75 7.25 108.55 11.2 107.0 12.2 109.2 14.55 110.8 15.3 111.3 15.55 110.95 15.8 110.55 15.0 109.85 11.75 106.75 11.35 100.9 10.9 93.45 17.4 88.65 18.1 88.1 17.8 88.0 L16.95 88.15 15.2 89.1 Q11.3 86.65 9.2 82.7 7.2 78.9 7.2 74.15 7.2 69.3 10.95 64.25 14.6 59.3 19.0 57.85 20.55 57.35 20.6 56.85 20.65 56.4 19.8 56.6 L17.9 57.2 16.75 57.7 Q15.4 53.65 19.25 48.2 23.25 42.65 28.05 42.65 33.0 42.65 36.55 46.2"/><path fill="#a7bab9" d="M1.9 120.25 Q3.4 125.25 9.9 129.8 17.3 134.95 26.1 135.25 22.85 137.8 19.15 137.8 11.8 137.8 6.7 133.25 1.7 128.85 1.7 122.95 L1.9 120.25"/><path fill="#a7bab9" d="M19.25 48.2 Q23.25 42.65 28.05 42.65 33.0 42.65 36.55 46.2 40.05 49.7 40.05 54.65 40.05 58.45 37.85 61.5 L37.65 61.85 37.9 62.15 Q42.75 67.25 42.75 74.4 42.75 78.55 40.85 82.45 34.4 71.7 30.4 67.05 23.35 59.0 14.65 60.35 16.75 58.65 19.0 57.85 20.55 57.35 20.6 56.85 20.65 56.4 19.8 56.6 L17.9 57.2 16.75 57.7 Q15.4 53.65 19.25 48.2"/><path fill="#0d131a" d="M83.3 65.05 Q94.25 75.6 94.35 90.75 94.45 106.1 83.25 116.1 72.55 125.6 57.25 125.6 42.3 125.6 31.6 115.85 20.7 105.9 20.7 91.35 20.7 76.35 31.1 65.55 41.8 54.5 57.2 54.55 72.4 54.6 83.3 65.05"/><path fill="#767cba" d="M91.95 90.75 Q91.95 104.95 81.6 114.55 71.4 123.95 56.85 123.95 42.35 123.95 32.45 114.55 22.45 105.0 22.45 90.75 22.45 76.4 32.65 66.2 42.85 56.0 57.2 56.0 71.55 56.0 81.75 66.2 91.95 76.4 91.95 90.75"/><path fill="#767cba" d="M91.95 90.75 Q91.95 104.95 81.6 114.55 71.4 123.95 56.85 123.95 42.35 123.95 32.45 114.55 22.45 105.0 22.45 90.75 22.45 76.4 32.65 66.2 42.85 56.0 57.2 56.0 71.55 56.0 81.75 66.2 91.95 76.4 91.95 90.75"/><path fill="#666ba1" d="M90.95 82.55 Q91.95 86.65 91.95 90.75 91.95 104.95 81.6 114.55 71.4 123.95 56.85 123.95 47.3 123.95 39.4 119.6 46.95 120.8 56.15 119.25 66.05 117.6 73.95 113.3 93.85 102.6 90.95 82.55"/><path fill="#0d131a" d="M81.25 79.85 Q85.35 85.45 84.3 92.45 82.65 103.85 73.65 106.5 64.3 109.25 54.85 99.35 50.65 94.9 47.35 94.65 44.05 94.4 40.1 98.05 34.9 102.85 28.65 101.15 22.95 99.6 21.8 94.85 21.05 91.6 21.9 85.95 22.75 80.1 24.65 76.75 25.7 74.85 27.9 73.7 30.25 72.4 33.05 72.55 36.05 72.75 38.75 75.2 41.35 77.6 42.95 81.3 44.4 84.65 48.05 84.7 51.85 84.75 54.55 80.75 60.25 72.5 69.4 73.3 76.95 73.95 81.25 79.85"/><path fill="#a499c9" d="M22.75 95.5 Q22.45 93.2 22.45 90.75 22.45 83.35 25.5 76.45 27.2 75.25 29.2 74.65 L32.6 74.2 Q38.75 74.5 41.95 81.95 43.7 86.0 47.8 86.25 52.25 86.5 55.85 81.35 61.15 73.75 70.45 75.0 75.9 75.75 79.75 80.55 83.75 85.45 83.05 91.15 81.65 102.8 72.8 105.25 64.0 107.65 55.7 98.8 51.2 94.0 47.7 93.7 44.15 93.35 39.3 97.4 35.2 100.85 30.6 100.3 26.1 99.7 22.75 95.5"/><path fill="#0d131a" d="M47.1 103.85 Q53.0 104.25 56.0 99.9 L56.85 100.8 Q53.4 105.75 46.9 105.2 40.4 104.6 38.25 99.15 L39.1 98.45 Q41.05 103.5 47.1 103.85"/><path fill="#c6dcdb" d="M47.9 130.65 Q49.95 134.6 49.9 137.65 49.9 141.15 47.15 144.3 43.25 148.8 37.2 149.75 31.7 150.6 24.1 148.6 16.65 146.65 12.3 137.75 7.8 128.55 11.3 120.55 14.9 112.3 23.6 109.1 32.3 105.9 39.85 110.05 46.15 113.45 48.05 119.2 49.7 124.2 47.9 130.65"/><path fill="#a7bab9" d="M48.7 142.1 L47.15 144.3 Q43.25 148.8 37.2 149.75 31.7 150.6 24.1 148.6 16.65 146.65 12.3 137.75 7.8 128.55 11.3 120.55 L13.0 117.45 Q14.05 118.5 13.55 119.9 11.05 127.15 13.55 133.05 15.8 138.4 21.7 141.65 27.35 144.7 34.55 144.9 42.0 145.1 48.7 142.1"/><path fill="#0d131a" d="M41.4 119.95 Q41.45 120.45 40.9 120.8 38.05 122.55 38.05 126.05 38.05 128.8 39.4 130.65 40.85 132.5 43.15 132.5 45.45 132.5 46.85 130.1 48.3 127.75 48.3 123.9 48.3 117.7 43.25 113.25 38.3 108.8 31.65 108.85 23.45 108.85 17.6 114.55 11.65 120.4 11.65 129.05 11.65 137.55 17.85 143.3 24.0 149.0 33.0 149.0 37.0 149.0 40.6 147.65 44.2 146.35 46.75 143.95 47.75 143.0 48.1 143.35 48.4 143.7 47.55 144.6 41.85 150.75 33.0 150.75 22.95 150.75 16.35 144.45 9.85 138.25 9.85 129.05 9.85 120.2 15.85 113.85 21.95 107.35 30.85 107.35 39.4 107.35 44.85 112.6 50.0 117.55 50.0 124.5 50.0 128.8 48.2 131.35 46.3 133.95 42.95 133.95 40.05 133.95 38.3 131.6 36.75 129.5 36.7 126.5 36.7 121.7 40.6 119.8 41.3 119.45 41.4 119.95"/><path fill="#c6dcdb" d="M67.5 131.6 Q62.4 125.2 64.45 119.15 66.3 113.7 73.3 109.85 80.5 105.95 88.6 109.65 96.45 113.25 100.05 121.45 103.8 130.0 100.7 138.9 97.4 148.5 87.8 151.85 80.35 154.5 73.35 151.85 65.55 148.95 62.35 140.65 61.35 138.0 62.25 136.0 63.4 133.65 67.5 131.6"/><path fill="#a7bab9" d="M62.35 140.65 Q64.7 143.85 68.4 145.4 72.7 147.2 79.5 147.2 87.95 147.2 94.55 141.7 100.9 136.4 100.9 130.3 100.9 128.85 101.85 128.3 102.7 135.85 99.25 142.2 95.45 149.2 87.8 151.85 80.35 154.5 73.35 151.85 65.55 148.95 62.35 140.65"/><path fill="#0d131a" d="M73.5 110.3 Q67.5 112.7 65.4 117.45 63.45 122.0 65.5 127.55 66.95 131.3 70.3 132.15 73.0 132.8 74.7 131.6 76.85 130.05 77.15 127.55 77.35 125.35 76.15 123.7 75.2 122.45 73.6 122.1 L71.5 122.15 Q70.9 122.45 70.65 122.0 70.4 121.55 71.05 121.2 L74.65 121.05 Q76.6 121.75 77.65 123.4 79.0 125.45 78.65 128.15 78.25 131.25 75.7 132.9 73.05 134.6 70.0 133.85 66.5 133.0 64.5 129.1 61.9 124.0 63.9 118.15 66.0 111.85 72.15 109.25 80.9 105.6 89.35 109.5 97.45 113.15 100.5 121.25 104.55 132.1 100.5 141.55 96.65 150.55 88.3 152.65 79.0 155.05 71.4 151.4 64.05 147.95 61.9 140.85 61.7 140.15 62.1 139.9 62.5 139.65 62.8 140.45 65.0 146.8 72.4 150.0 79.9 153.3 87.65 150.85 96.95 147.95 99.7 138.85 102.0 131.25 99.25 122.9 96.9 115.95 89.65 111.75 81.55 107.1 73.5 110.3"/><path fill="#a7bab9" d="M83.6 35.8 Q86.9 38.0 86.65 39.25 86.4 40.65 86.45 42.4 86.15 43.05 83.35 41.0 74.0 34.1 60.95 35.4 49.65 36.55 44.65 41.9 42.7 44.0 39.5 43.0 37.4 42.35 36.2 40.0 34.95 37.55 36.85 36.75 57.35 28.1 73.9 31.95 79.7 33.25 83.6 35.8"/><path fill="#c6dcdb" d="M46.75 40.15 Q53.35 43.0 61.95 43.35 72.35 43.75 82.15 40.15 73.75 34.6 62.55 35.3 52.9 35.85 46.75 40.15 M82.15 3.25 Q97.45 6.8 104.75 13.65 109.75 18.35 107.5 20.05 105.25 21.7 99.45 18.95 93.0 15.9 77.1 15.25 60.15 14.5 52.4 17.9 47.0 20.25 44.3 22.35 41.7 24.4 40.7 26.9 45.95 24.7 52.8 23.45 61.05 21.95 70.65 22.1 91.4 22.45 104.45 28.4 116.65 34.0 116.9 41.85 117.05 47.45 110.9 52.7 99.95 61.9 80.4 64.75 62.3 67.4 45.05 63.8 28.7 60.35 18.95 53.0 9.1 45.65 7.65 35.75 6.2 25.9 18.2 15.6 30.1 5.4 46.1 2.5 64.5 -0.85 82.15 3.25"/><path fill="#a7bab9" d="M85.45 38.65 L81.25 40.5 Q73.7 35.5 62.9 36.15 53.6 36.65 48.0 40.4 43.15 38.35 41.95 37.0 L47.3 34.15 Q54.65 31.3 64.55 31.3 74.45 31.3 80.95 35.0 84.2 36.8 85.45 38.65"/><path fill="#a7bab9" d="M93.3 54.05 Q109.55 50.35 116.85 43.15 116.3 48.1 110.9 52.7 99.95 61.9 80.4 64.75 62.3 67.4 45.05 63.8 30.6 60.75 21.2 54.6 11.85 48.5 8.8 40.15 13.65 47.65 28.5 52.25 42.25 56.5 60.25 57.0 78.25 57.5 93.3 54.05"/><path fill="#0d131a" d="M108.9 19.7 Q107.95 21.1 104.9 20.75 L98.6 19.3 Q84.95 15.2 73.75 15.0 62.0 14.75 52.15 18.8 45.8 21.4 42.6 25.35 54.9 21.0 68.55 21.0 90.3 21.0 104.85 27.55 118.2 33.5 118.2 40.95 118.2 51.9 103.5 59.25 88.1 66.95 63.15 66.95 42.45 66.95 24.8 58.05 6.1 48.6 6.1 36.0 6.1 21.4 22.1 10.75 38.15 0.0 60.3 0.0 73.7 0.0 85.95 3.5 98.4 7.0 105.05 12.8 107.65 15.1 108.65 17.0 109.55 18.75 108.9 19.7 M103.4 13.35 Q98.15 8.8 88.35 5.65 75.95 1.65 60.55 1.65 39.9 1.65 24.2 11.6 8.15 21.8 8.15 35.65 8.15 47.15 25.6 56.3 42.85 65.3 64.0 65.3 87.8 65.3 102.75 57.5 116.3 50.45 116.3 41.05 116.3 34.15 101.55 28.45 86.8 22.7 69.0 22.7 61.2 22.7 53.3 24.15 46.0 25.5 41.1 27.6 L40.7 28.35 Q38.4 33.25 44.1 37.2 48.8 40.45 56.15 41.6 61.25 42.4 69.25 41.8 78.85 41.0 85.25 38.35 86.15 37.95 86.2 38.45 86.25 38.9 85.65 39.25 70.75 46.5 55.35 43.55 49.5 42.4 44.95 40.0 40.9 37.85 39.75 35.7 38.5 33.45 38.35 31.85 38.2 30.4 38.95 28.35 41.15 22.2 50.9 18.0 61.2 13.5 75.4 13.75 88.15 13.95 99.25 17.75 105.5 19.9 106.75 18.65 108.0 17.4 103.4 13.35"/><path fill="#0d131a" d="M38.35 87.85 Q38.35 90.5 36.65 92.35 34.95 94.25 32.55 94.25 30.15 94.25 28.45 92.35 26.75 90.5 26.75 87.85 26.75 85.2 28.45 83.3 30.15 81.4 32.55 81.4 34.95 81.4 36.65 83.3 38.35 85.2 38.35 87.85"/><path fill="#ffffff" d="M36.85 86.5 Q36.85 87.65 36.1 88.5 35.35 89.35 34.25 89.35 33.2 89.35 32.45 88.5 31.7 87.65 31.7 86.5 31.7 85.3 32.45 84.5 33.2 83.65 34.25 83.65 35.35 83.65 36.1 84.5 36.85 85.3 36.85 86.5"/><path fill="#0d131a" d="M60.3 90.45 Q60.3 87.6 62.35 85.6 64.35 83.55 67.2 83.55 70.05 83.55 72.05 85.6 74.05 87.6 74.05 90.45 74.05 93.3 72.05 95.35 70.05 97.35 67.2 97.35 64.35 97.35 62.35 95.35 60.3 93.3 60.3 90.45"/><path fill="#ffffff" d="M62.0 88.7 Q62.0 87.45 62.9 86.55 63.8 85.65 65.05 85.65 66.35 85.65 67.2 86.55 68.1 87.45 68.1 88.7 68.1 90.0 67.2 90.85 66.35 91.75 65.05 91.75 63.8 91.75 62.9 90.85 62.0 89.95 62.0 88.7"/><path fill="#0d131a" d="M48.7 40.35 L47.4 39.85 Q53.3 35.2 64.35 35.25 75.5 35.25 82.0 40.15 L80.5 40.4 Q74.8 37.2 65.7 37.1 56.25 36.95 48.7 40.35"/></g></svg>