<?xml version='1.0' encoding='utf-8'?>
<svg xmlns="http://www.w3.org/2000/svg" version="1.1" width="334px" height="333px" viewBox="-0.4 -0.15 333.7 333.45"><g><path fill="#0086bb" d="M8.0 196.55 Q15.65 188.35 28.85 184.7 36.35 182.65 41.95 184.8 L45.6 181.45 Q53.75 175.05 63.85 174.75 71.45 174.55 77.6 177.6 L57.55 208.85 38.55 222.55 Q34.95 216.5 22.95 211.9 L6.4 206.55 Q3.8 205.6 4.3 202.75 4.8 200.0 8.0 196.55"/><path fill="#006b95" d="M22.95 211.9 Q24.1 203.4 40.35 198.05 51.3 194.4 68.9 192.35 L57.55 208.85 38.55 222.55 Q34.9 216.55 22.95 211.9"/><path fill="#eef3f6" d="M54.2 196.55 Q51.95 191.7 47.0 188.05 44.2 186.0 38.35 183.1 42.75 180.0 49.95 183.45 56.1 186.4 60.1 191.5 L57.8 192.75 Q55.3 194.4 54.2 196.55"/><path fill="#0086bb" d="M266.2 153.95 Q270.45 157.7 276.2 172.65 281.8 187.1 283.8 198.55 L257.0 292.0 Q227.0 315.4 179.95 317.0 162.7 317.55 146.5 315.05 132.75 312.9 126.3 309.8 L125.95 309.15 31.45 302.3 Q30.75 297.55 35.65 290.3 41.45 281.65 50.9 278.45 L51.15 278.55 Q44.35 271.1 40.25 263.55 35.4 254.5 34.8 245.95 33.55 227.55 42.9 211.45 51.2 197.1 67.45 185.35 80.2 176.05 95.3 164.1 115.25 148.35 118.2 144.2 121.55 139.45 125.85 134.65 130.8 129.15 133.05 128.15 L266.2 153.95"/><path fill="#006b95" d="M50.9 278.45 L51.15 278.55 Q44.65 271.45 40.75 263.55 36.35 254.75 35.75 246.0 34.55 228.55 42.35 213.35 49.5 199.45 63.85 188.05 47.6 209.3 50.95 227.05 53.5 240.95 67.7 251.6 85.6 265.0 114.3 266.2 142.05 267.35 162.1 256.7 161.8 260.6 163.7 263.0 165.65 265.4 169.2 265.4 174.45 270.75 185.55 273.2 195.7 275.4 207.7 274.6 219.55 273.8 228.3 270.4 237.65 266.8 239.9 261.45 247.3 267.4 252.9 280.3 255.7 286.75 257.0 292.0 227.0 315.4 179.95 317.0 162.7 317.55 146.5 315.05 132.75 312.9 126.3 309.8 L125.95 309.15 31.45 302.3 Q30.85 298.2 36.6 290.15 43.05 281.1 50.9 278.45"/><path fill="#006b95" d="M126.85 134.55 Q131.95 129.1 134.05 128.15 L138.0 147.9 Q140.8 166.8 134.85 162.35 125.3 155.1 121.1 153.75 113.3 151.15 104.25 156.45 115.5 147.2 118.2 144.2 L126.85 134.55"/><path fill="#0086bb" d="M100.1 214.75 Q116.5 220.75 129.7 226.45 171.8 244.7 165.25 253.0 156.0 264.8 122.9 315.5 118.6 322.15 115.65 324.1 111.9 326.6 102.35 328.25 82.05 331.75 54.7 328.95 29.55 326.4 19.3 321.25 13.55 318.35 14.4 316.2 15.05 314.55 20.1 312.65 19.8 311.0 22.5 308.15 25.5 305.0 30.95 301.9 45.05 293.85 66.15 290.85 63.9 284.3 63.3 274.8 62.6 264.05 64.3 253.3 68.7 225.8 86.3 209.85 L100.1 214.75"/><path fill="#006b95" d="M66.15 290.85 Q63.55 283.2 63.6 271.15 63.7 257.1 67.65 243.55 67.7 265.45 73.7 282.2 80.85 301.95 95.65 312.45 97.9 314.05 90.65 315.35 L72.85 317.8 Q44.6 321.55 43.85 327.6 26.7 325.0 19.3 321.25 13.5 318.4 13.7 316.65 13.85 315.0 20.1 312.65 19.8 311.0 22.5 308.15 25.5 305.0 30.95 301.9 45.05 293.85 66.15 290.85"/><path fill="#0086bb" d="M325.0 305.25 Q319.9 308.6 313.45 311.15 296.75 317.7 287.25 313.35 268.6 304.7 256.25 290.25 246.45 278.7 241.35 264.55 L279.6 194.2 Q290.35 205.9 301.4 228.2 316.25 258.1 317.05 283.2 L328.2 291.55 Q332.85 295.9 330.95 299.9 329.95 302.05 325.0 305.25"/><path fill="#006b95" d="M319.3 291.85 Q313.7 294.25 312.55 292.65 311.55 291.2 312.95 288.25 315.45 282.9 316.65 277.65 L317.05 283.2 322.2 286.9 326.75 290.3 Q325.3 289.35 319.3 291.85"/><path fill="#006b95" d="M331.2 299.35 L330.95 299.9 Q329.95 302.05 325.0 305.25 319.9 308.6 313.45 311.15 296.75 317.7 287.25 313.35 268.6 304.7 256.25 290.25 246.45 278.7 241.35 264.55 239.3 260.7 238.6 258.25 237.15 253.3 243.75 260.15 L256.45 274.1 Q267.25 285.4 277.05 292.45 306.9 313.9 331.2 299.35"/><path fill="#eef3f6" d="M200.9 191.3 Q183.85 190.5 168.55 184.45 145.9 175.55 135.85 162.7 123.9 147.45 132.55 129.45 L265.5 155.75 Q264.45 167.1 254.95 175.75 246.05 183.85 231.55 188.0 217.2 192.1 200.9 191.3"/><path fill="#cacfd2" d="M132.55 129.45 L152.25 139.05 Q149.0 144.55 142.15 150.8 L133.05 158.55 Q125.1 145.0 132.55 129.45"/><path fill="#0086bb" d="M200.95 183.2 Q180.8 182.25 164.1 174.85 146.05 166.85 136.95 153.15 131.85 145.5 132.5 133.6 133.15 121.95 138.75 114.2 L265.75 131.55 Q268.05 136.6 267.55 145.65 267.05 155.6 263.1 161.05 254.8 172.55 237.3 178.45 220.75 184.1 200.95 183.2"/><path fill="#006b95" d="M210.35 138.0 L172.15 138.1 152.25 137.45 Q147.85 136.0 142.2 141.95 136.55 147.8 136.95 153.15 131.85 145.5 132.5 133.6 133.15 121.95 138.75 114.2 L265.0 131.55 Q266.35 134.75 266.6 141.65 264.6 138.05 210.35 138.0"/><path fill="#eef3f6" d="M254.2 146.9 Q235.3 160.45 202.7 156.95 172.05 153.7 155.95 138.55 145.5 128.75 143.5 117.3 L146.5 117.4 148.1 115.3 265.75 127.9 Q267.1 130.7 264.25 135.95 261.05 141.95 254.2 146.9"/><path fill="#cacfd2" d="M156.4 139.6 Q150.3 134.25 146.8 127.25 144.4 122.35 143.5 117.3 L146.5 117.55 148.35 114.95 171.5 119.7 Q166.55 130.75 156.4 139.6"/><path fill="#0086bb" d="M261.8 81.2 Q265.55 88.6 265.1 95.25 264.7 100.6 262.6 101.75 266.1 104.8 266.65 113.35 267.1 120.55 265.5 126.75 263.65 133.9 255.75 139.45 248.2 144.75 236.65 147.65 211.7 153.85 185.95 146.75 167.7 141.7 156.45 129.2 152.0 124.3 149.85 119.4 147.85 114.9 148.55 112.2 148.8 105.3 150.2 96.25 153.05 78.25 158.9 67.85 162.2 61.95 177.75 60.6 191.7 59.4 210.7 62.15 229.3 64.8 243.45 69.85 258.75 75.3 261.8 81.2"/><path fill="#006b95" d="M243.45 69.85 Q258.75 75.3 261.8 81.2 264.3 86.05 264.75 91.05 265.3 97.1 262.6 101.75 266.8 105.4 267.0 114.3 267.1 120.5 265.5 126.75 264.2 131.75 259.8 136.05 258.3 125.65 253.95 121.85 250.05 118.45 242.25 119.3 246.85 115.95 246.35 110.65 245.9 105.35 240.7 107.05 233.0 109.6 223.1 109.5 212.55 109.4 203.95 106.25 189.1 100.8 185.4 114.15 173.45 112.9 166.85 122.4 164.5 125.7 163.25 129.8 162.25 133.05 162.4 134.85 155.05 128.85 151.15 121.95 147.6 115.75 148.55 112.2 148.8 105.3 150.2 96.25 153.05 78.25 158.9 67.85 162.2 61.95 177.75 60.6 191.7 59.4 210.7 62.15 229.3 64.8 243.45 69.85"/><path fill="#922f00" d="M249.05 76.3 Q252.75 100.25 250.3 95.45 249.0 92.9 240.85 87.2 231.35 80.65 221.25 76.55 192.1 64.8 179.15 81.9 177.7 77.8 176.55 72.3 174.3 61.25 175.85 54.1 177.95 47.05 184.15 46.15 188.3 45.5 198.85 47.9 212.0 50.9 218.65 51.45 231.25 52.45 242.2 48.7 245.4 52.55 249.05 76.3"/><path fill="#eef3f6" d="M327.5 77.4 L323.5 76.5 Q319.35 75.95 318.9 77.9 318.3 80.3 319.85 82.05 321.4 83.8 324.1 83.4 323.3 86.05 321.4 88.0 L319.65 89.45 Q318.7 88.6 317.4 88.05 314.8 86.95 313.15 88.4 310.4 90.85 310.65 93.25 311.0 96.1 317.3 94.5 319.9 96.4 320.75 98.85 321.45 100.8 321.0 100.95 319.25 101.4 318.6 104.0 317.95 106.75 319.95 108.0 L318.35 109.2 Q317.5 109.95 316.0 110.35 314.4 110.8 312.7 110.4 L311.3 109.85 Q311.05 108.1 310.25 106.55 308.7 103.5 306.05 104.6 303.15 105.9 303.15 107.45 303.15 108.9 305.3 109.3 306.85 110.9 306.85 114.05 305.55 113.4 304.2 113.3 301.55 113.15 301.6 115.85 301.65 117.85 305.55 120.3 L302.35 122.7 Q298.8 125.0 297.15 124.5 L297.0 121.3 Q296.85 119.4 296.05 118.95 295.35 118.55 294.05 119.25 292.6 120.05 291.0 122.05 L288.05 121.65 286.7 121.1 Q286.95 119.8 286.75 118.5 286.4 115.95 284.1 116.15 281.65 116.3 280.45 118.85 279.65 120.55 279.35 123.7 L275.6 122.75 274.15 122.15 275.95 120.4 Q277.55 118.35 276.75 116.9 275.75 115.05 274.3 114.95 272.75 114.85 271.8 116.9 270.5 119.8 269.45 120.6 L266.8 118.75 267.05 113.0 269.7 112.7 Q272.2 111.55 271.5 107.5 271.15 105.35 269.6 104.7 L267.05 104.85 Q266.25 105.35 265.8 106.2 L265.5 106.95 263.55 101.8 265.25 57.9 308.7 57.0 Q312.45 62.05 316.75 59.9 318.3 59.15 319.45 57.65 320.45 56.3 320.45 55.4 320.45 53.6 323.25 58.6 325.95 63.4 324.65 63.8 321.0 64.85 320.2 65.25 317.5 66.55 319.15 68.25 321.85 70.95 328.85 69.55 329.75 71.95 328.7 74.9 328.2 76.4 327.5 77.4"/><path fill="#cacfd2" d="M263.75 92.45 L264.0 89.8 265.25 57.9 297.25 57.25 Q302.3 57.15 303.0 57.3 305.15 57.75 305.0 60.2 L304.35 63.3 Q303.45 66.25 303.8 66.85 L305.9 69.55 Q308.15 73.25 306.0 75.1 302.65 76.9 301.1 78.3 299.8 79.5 299.55 80.95 L299.15 84.1 Q298.4 87.4 295.6 88.8 292.0 90.05 290.1 91.25 288.4 92.35 287.3 96.25 286.25 99.85 284.15 100.7 283.2 101.1 281.35 99.65 279.2 98.0 278.4 97.95 277.85 97.9 274.6 99.2 271.9 100.3 271.2 99.4 L270.3 98.15 Q269.75 97.5 268.9 97.15 L265.9 96.6 Q264.1 96.3 263.8 95.05 263.55 94.15 263.75 92.45"/><path fill="#eef3f6" d="M174.7 76.6 L175.4 80.0 Q175.8 81.2 177.25 81.7 179.45 82.4 181.6 81.7 L183.05 84.95 Q179.8 86.9 181.0 90.85 181.55 92.85 182.8 94.4 L182.6 96.3 Q181.95 98.4 179.65 99.4 L176.1 99.5 Q174.3 100.35 173.65 102.25 173.1 103.9 175.85 106.0 177.9 107.5 179.85 108.2 180.8 108.55 178.65 111.7 176.5 114.85 175.75 114.3 172.2 111.7 169.2 111.7 166.2 111.7 165.95 115.5 165.85 117.45 166.05 119.8 165.7 120.35 163.05 120.3 160.25 120.3 159.0 119.55 158.75 119.3 157.65 117.25 156.4 114.9 156.6 114.3 158.5 112.4 156.85 110.9 155.3 109.4 152.45 109.85 150.1 110.15 148.8 112.65 148.05 114.1 146.95 117.45 144.5 116.65 141.05 118.15 L138.05 119.8 Q135.7 118.2 133.6 115.85 134.55 113.35 133.9 112.6 133.3 111.95 129.7 111.15 126.75 110.5 126.5 114.7 126.35 116.8 126.8 119.0 125.0 116.65 122.9 115.35 121.6 114.55 120.25 117.6 119.6 119.15 119.2 120.85 115.8 119.55 113.9 117.35 115.1 117.05 116.25 115.2 117.75 112.75 117.4 109.3 117.05 106.35 114.7 107.3 L112.4 108.8 109.8 106.2 110.3 104.15 Q111.0 102.0 112.0 101.35 115.45 102.6 116.85 98.75 118.25 94.95 115.3 93.35 112.85 92.05 111.0 93.8 109.3 95.35 108.25 99.1 106.45 96.8 102.7 97.9 L99.35 99.4 96.7 91.0 Q98.7 87.5 100.55 85.4 102.75 90.0 105.95 90.0 108.75 90.05 110.3 87.1 111.45 85.0 109.7 84.5 L107.7 84.45 Q105.85 81.85 105.1 80.3 109.0 79.1 109.9 75.25 110.8 71.35 107.45 69.8 104.65 68.5 104.6 71.1 104.6 72.45 105.1 74.0 100.4 73.75 99.6 72.4 99.55 70.85 97.6 68.75 L95.65 66.95 96.55 64.35 Q97.9 61.65 99.85 61.15 101.25 63.55 103.45 63.6 105.7 63.65 107.45 61.15 108.9 59.05 107.15 56.35 L105.1 54.1 106.55 53.3 109.55 50.95 Q112.1 54.7 115.4 54.65 118.9 54.6 121.35 50.1 L147.8 62.25 Q174.35 74.75 174.7 76.6"/><path fill="#cacfd2" d="M174.7 76.6 L175.4 80.0 Q175.8 81.2 177.25 81.7 179.45 82.4 181.6 81.7 L183.05 84.95 Q179.8 86.9 181.0 90.85 181.55 92.85 182.8 94.4 183.75 95.6 182.5 97.6 181.25 99.6 180.45 99.15 175.4 96.05 172.6 96.5 171.2 96.7 168.75 98.85 168.5 99.1 169.1 101.25 169.7 103.45 169.5 103.9 L168.75 105.4 Q168.35 105.9 167.2 105.75 165.4 105.55 162.75 103.4 159.9 101.15 158.25 100.8 L151.85 101.25 Q147.95 101.55 146.35 98.85 145.8 97.95 145.7 95.95 145.55 94.2 144.8 93.2 143.55 91.65 142.65 91.7 L140.2 91.95 Q135.8 91.75 133.3 90.6 129.8 89.05 128.6 85.35 128.25 84.25 129.3 81.35 130.1 79.05 128.55 77.8 127.25 76.75 124.7 77.15 L120.4 77.45 Q119.1 77.2 118.7 75.05 118.2 72.3 117.6 71.6 116.5 70.35 114.45 69.15 113.2 68.4 113.25 67.25 113.35 64.25 115.0 63.05 118.85 60.35 118.35 55.65 L118.3 53.95 119.3 52.55 Q121.9 50.35 121.35 50.1 L147.95 62.3 Q174.35 74.7 174.7 76.6"/><path fill="#ed8599" d="M246.75 83.15 Q250.5 90.0 251.0 96.1 250.25 99.65 243.3 103.75 233.7 109.5 219.7 108.55 202.9 107.4 192.3 100.0 184.35 94.4 181.2 86.6 181.25 86.25 182.25 85.3 L183.25 84.4 181.85 82.5 Q180.55 80.45 181.0 80.0 187.15 73.25 195.3 69.05 208.9 62.1 223.1 65.5 239.3 69.4 246.75 83.15"/><path fill="#ce7486" d="M246.8 83.25 Q250.6 90.2 251.1 96.35 250.85 97.5 249.5 99.1 247.45 101.45 243.85 103.5 244.75 100.8 242.5 96.25 240.2 91.65 236.75 89.25 226.8 82.5 213.95 82.65 198.3 82.85 187.0 94.4 L183.75 90.4 Q181.7 87.85 181.2 86.6 181.25 86.25 182.25 85.3 L183.25 84.4 181.85 82.5 Q180.55 80.45 181.0 80.0 187.15 73.25 195.3 69.05 208.9 62.1 223.1 65.5 239.3 69.4 246.8 83.25"/><path fill="#ffe792" d="M201.85 48.9 Q205.85 61.65 200.45 96.15 196.1 123.9 192.25 134.45 190.95 138.0 189.55 138.3 188.25 138.6 188.05 135.75 187.15 116.2 186.05 99.8 183.9 67.95 181.25 60.15 177.45 48.95 187.6 47.25 191.2 46.65 195.85 47.35 199.7 47.95 201.85 48.9"/><path fill="#dbc77f" d="M186.65 47.4 Q193.2 45.9 201.95 48.7 202.9 51.7 203.35 57.5 189.25 49.0 183.3 70.2 182.2 62.9 181.25 60.15 177.6 49.45 186.65 47.4"/><path fill="#eef3f6" d="M285.4 3.1 Q287.0 4.0 288.25 5.45 L286.55 7.75 Q285.15 10.3 286.45 11.45 L290.25 11.35 Q292.5 9.8 292.7 6.75 296.1 9.1 297.15 11.2 295.4 12.25 293.95 13.75 291.1 16.85 292.7 19.3 294.4 21.85 296.85 20.9 298.4 20.3 299.8 18.5 300.35 18.3 302.75 20.45 L305.0 22.7 Q303.25 23.15 301.7 23.95 298.65 25.55 299.8 27.15 301.05 29.0 303.85 27.9 306.4 26.9 307.9 24.55 309.05 25.2 309.75 27.7 L310.25 30.05 Q307.9 30.45 305.7 31.15 301.35 32.6 302.15 34.2 302.95 35.85 304.2 36.85 L305.3 37.5 Q303.65 38.8 302.45 40.25 300.05 43.2 302.15 44.15 306.45 46.15 310.0 41.3 311.15 39.75 312.85 43.4 L314.3 47.4 310.4 47.9 Q306.85 48.9 308.3 51.5 309.75 54.15 311.45 54.65 312.3 54.9 312.85 54.65 L309.55 59.25 304.5 59.6 Q302.5 60.1 301.4 61.65 300.05 63.55 302.15 65.1 304.1 66.55 306.1 66.1 L308.95 65.1 Q309.7 68.0 309.15 70.9 L308.4 73.2 Q307.9 72.55 306.1 71.85 L302.85 71.65 Q301.1 72.65 300.35 74.35 299.7 75.8 299.0 76.05 297.95 76.45 295.1 74.65 L292.5 72.75 294.25 71.65 Q295.55 70.3 293.25 69.0 290.55 67.5 287.7 69.5 284.85 71.55 286.45 73.75 288.55 76.6 290.65 77.65 L287.05 83.8 283.9 84.95 Q280.3 86.0 278.15 85.5 282.45 78.1 278.35 78.45 276.35 78.6 275.2 80.15 274.2 81.5 274.4 82.9 L271.15 83.45 268.9 83.4 Q269.55 82.8 269.8 81.8 270.3 79.75 268.15 77.6 266.45 75.95 265.7 76.4 265.25 76.7 264.75 78.45 L246.45 45.95 Q244.65 46.7 242.65 47.9 L240.95 48.95 Q233.7 52.1 225.95 52.2 217.75 52.3 204.8 49.15 189.05 45.25 183.05 48.4 181.0 49.5 180.5 51.2 180.1 52.6 180.7 53.3 181.45 54.2 183.7 54.65 185.95 55.05 186.2 55.4 186.9 56.3 183.85 60.4 182.9 60.2 181.6 60.4 179.05 60.8 177.55 62.75 176.1 64.7 178.7 68.5 180.05 70.4 181.65 71.9 L176.1 77.95 Q175.95 77.15 175.3 76.4 174.0 74.9 171.55 75.05 169.1 75.2 168.9 79.05 168.8 81.0 169.2 82.9 L166.35 83.15 Q163.5 83.35 163.65 83.15 162.15 77.9 159.25 77.65 157.6 77.5 158.0 81.05 158.45 84.9 158.2 85.0 157.5 85.35 154.55 85.0 151.5 84.6 151.15 83.95 150.8 83.35 151.15 83.0 L151.6 82.65 151.8 82.25 151.95 82.05 Q152.85 80.7 151.9 79.5 150.85 78.1 147.75 77.9 144.95 77.75 144.65 81.6 144.45 83.55 144.85 85.5 L139.0 86.65 Q136.75 81.55 134.65 80.1 140.0 77.7 141.1 75.2 142.15 72.95 139.65 70.85 L134.9 70.95 132.55 72.95 Q132.1 71.8 131.8 70.45 131.15 67.85 131.8 67.2 135.3 67.4 135.5 65.0 135.65 62.85 133.1 59.85 131.15 57.55 128.9 59.95 L127.05 62.75 122.35 64.3 Q122.0 63.85 121.4 61.25 120.75 58.4 121.05 57.25 124.05 56.5 124.45 54.65 124.85 53.05 123.15 50.7 121.85 48.9 119.35 49.65 L117.15 50.7 115.8 44.7 117.95 44.45 Q120.4 44.05 121.85 43.4 124.4 44.9 127.5 42.9 130.6 40.9 130.2 38.15 129.9 35.85 125.95 36.15 L122.1 36.85 Q119.95 34.1 120.0 32.4 122.85 32.1 124.2 29.8 125.55 27.55 123.95 26.1 122.65 24.95 120.25 25.8 L118.15 26.9 Q117.45 25.6 116.9 24.15 115.75 21.25 116.35 20.6 116.95 20.0 119.75 19.05 L125.0 17.2 Q125.4 20.4 127.15 21.5 128.95 22.6 131.25 20.85 133.2 19.4 131.9 17.2 L130.2 15.35 131.35 14.45 Q132.85 13.45 134.65 13.15 135.25 16.4 138.35 17.3 141.55 18.2 143.8 15.35 145.75 12.9 142.65 11.4 L139.1 10.4 138.6 5.15 141.85 3.7 144.85 3.1 145.3 4.55 Q146.05 6.2 147.5 7.0 148.95 7.8 149.55 4.75 L149.85 1.5 152.9 0.7 155.6 1.25 Q155.15 2.75 155.15 4.5 155.25 8.05 157.7 9.35 160.15 10.65 161.25 8.05 161.8 6.75 161.85 5.15 L163.5 5.3 Q165.35 5.9 166.65 8.0 166.2 13.35 168.4 18.4 170.45 23.15 174.4 26.75 177.1 20.4 186.65 15.1 198.05 8.85 213.4 8.15 227.55 7.55 239.35 13.9 251.0 20.15 255.35 30.4 261.8 25.6 264.5 21.55 267.65 16.8 267.85 10.15 268.15 9.4 270.85 8.75 273.55 8.05 273.45 8.9 L273.0 11.9 Q272.95 14.05 274.9 13.55 277.9 12.8 278.85 11.7 280.25 10.0 278.85 6.5 284.7 2.65 285.4 3.1"/><path fill="#cacfd2" d="M201.4 48.4 Q190.9 46.45 184.45 48.8 181.9 49.7 180.85 51.05 179.9 52.35 180.7 53.3 181.45 54.2 183.7 54.65 185.95 55.05 186.2 55.4 186.9 56.3 183.85 60.4 182.9 60.2 181.6 60.4 179.05 60.8 177.55 62.75 176.1 64.7 178.7 68.5 180.05 70.35 181.65 71.85 L176.2 77.95 Q176.05 77.15 175.35 76.4 174.0 74.9 171.55 75.05 169.1 75.2 168.9 79.05 168.8 81.0 169.2 82.9 L166.5 83.1 164.0 83.0 Q162.15 77.9 159.25 77.65 157.45 77.5 157.7 80.55 L158.2 85.0 Q157.5 85.35 154.55 85.0 151.5 84.6 151.15 83.95 150.8 83.35 151.3 82.7 L151.95 82.0 152.05 81.85 Q152.95 80.5 151.95 79.4 150.85 78.1 147.75 77.9 144.95 77.75 144.65 81.6 144.45 83.55 144.85 85.5 L138.85 86.3 Q137.3 82.8 134.85 80.05 134.7 79.9 136.4 79.0 138.05 78.15 138.4 78.05 141.7 76.8 143.3 74.35 144.2 72.95 144.15 71.7 L143.35 68.85 Q142.55 66.7 143.05 65.5 143.55 64.35 145.55 63.35 147.3 62.5 149.45 63.65 151.95 64.9 153.5 64.65 154.75 64.4 155.7 63.25 L157.4 61.2 Q159.0 59.8 161.5 60.05 L164.45 59.9 Q165.8 58.85 165.4 56.85 165.05 54.9 165.3 54.65 166.1 54.05 167.45 54.0 L169.7 54.15 Q172.75 54.4 175.2 51.55 178.5 47.7 179.75 47.05 L179.85 46.95 Q182.15 45.8 184.85 45.4 187.6 44.95 190.0 45.45 L195.85 46.95 201.4 48.4"/><path fill="#cacfd2" d="M246.55 46.6 L248.75 45.4 251.05 44.4 Q252.55 43.65 256.9 42.0 L261.25 42.2 Q263.45 43.05 265.15 44.6 266.05 45.45 267.1 47.85 268.15 50.15 269.2 51.0 270.6 52.1 272.75 51.95 L276.15 51.6 Q278.4 51.6 279.45 54.05 279.95 55.25 279.5 56.9 279.0 58.6 279.4 59.65 279.9 61.15 282.85 61.8 285.6 62.45 285.8 63.9 285.95 64.95 284.65 66.2 283.2 67.65 283.0 68.4 282.25 71.2 285.6 74.0 L291.0 77.8 288.9 81.3 Q287.25 83.6 286.3 84.1 L283.45 85.0 278.05 85.25 Q280.25 83.3 280.35 80.8 280.5 78.25 278.35 78.45 276.35 78.6 275.2 80.15 274.2 81.5 274.4 82.9 L271.15 83.45 268.9 83.4 Q269.6 82.8 269.85 81.75 270.35 79.65 268.2 77.5 265.95 75.25 265.1 75.9 264.75 76.15 264.2 78.2 L263.65 77.0 262.9 75.85 259.6 69.9 246.55 46.6"/><path fill="#cacfd2" d="M188.05 34.2 Q185.65 34.2 180.2 31.2 175.05 28.4 173.95 26.85 175.4 23.95 179.2 20.65 183.25 17.15 188.35 14.75 185.2 19.95 184.85 24.75 184.4 30.35 188.05 34.2"/><path fill="#ffe792" d="M243.2 47.85 Q243.8 47.2 248.5 45.35 254.05 43.15 257.45 43.55 262.25 44.1 263.4 49.65 266.5 64.25 263.6 92.0 261.15 115.35 257.9 124.75 255.8 130.9 255.4 130.1 L255.05 123.45 Q254.75 116.25 250.85 89.5 246.35 59.35 243.45 51.8 242.3 48.85 243.2 47.85"/><path fill="#dbc77f" d="M243.05 47.85 Q243.6 47.15 248.15 45.35 261.4 40.05 263.4 49.65 L263.55 50.3 Q258.0 47.85 253.05 52.4 248.15 56.85 246.8 65.3 245.0 55.9 243.45 51.8 242.25 48.8 243.05 47.85"/><path fill="#0086bb" d="M222.05 23.5 Q229.85 24.25 233.85 27.8 237.35 30.95 237.75 36.05 238.1 40.1 234.45 41.95 230.95 43.65 223.1 43.65 L210.15 43.1 Q204.8 41.95 204.25 37.1 203.7 31.85 210.25 27.3 216.4 22.95 222.05 23.5"/><path fill="#006b95" d="M206.6 30.55 Q206.7 37.95 213.05 40.0 217.85 41.55 234.95 41.65 231.5 43.65 223.1 43.65 L210.15 43.1 Q204.8 41.95 204.25 37.1 203.9 33.9 206.6 30.55"/><path fill="#ffe792" d="M248.45 24.9 Q249.65 26.95 250.25 29.25 250.85 31.5 250.65 33.25 L244.05 36.3 Q244.05 31.95 245.3 28.75 246.55 25.45 248.45 24.9"/><path fill="#ffffff" d="M248.15 24.95 Q249.6 24.55 251.6 26.05 253.8 27.7 255.2 30.85 L250.65 33.1 Q251.0 29.7 248.15 24.95"/><path fill="#ffffff" d="M198.45 36.4 Q193.5 37.15 184.95 33.5 L177.4 29.65 Q178.6 25.6 181.6 23.4 184.3 21.35 188.3 21.0 L189.6 21.3 Q191.15 21.85 192.6 23.1 197.15 27.1 198.45 36.4"/><path fill="#ffe792" d="M198.2 36.3 Q194.65 36.95 190.15 35.4 L186.35 33.75 Q185.25 30.7 186.95 27.4 188.4 24.6 190.9 22.95 L191.85 23.2 Q192.95 23.7 194.0 24.8 197.25 28.25 198.2 36.3"/><path fill="#0d131a" d="M42.35 180.95 Q51.2 173.95 63.1 173.1 74.05 172.25 80.0 176.65 L77.2 178.4 Q71.35 175.45 63.85 175.65 54.05 175.95 46.1 182.15 L42.35 180.95"/><path fill="#0d131a" d="M38.85 183.85 L35.45 183.4 Q44.75 178.55 51.5 182.0 55.25 183.9 60.75 190.95 L59.4 192.05 Q55.5 187.05 49.5 184.25 42.75 181.15 38.85 183.85"/><path fill="#0d131a" d="M28.3 185.85 Q18.3 188.65 11.4 194.4 5.25 199.5 5.1 203.45 5.05 205.1 6.7 205.7 L12.0 207.4 Q24.45 211.1 27.2 212.2 36.15 215.85 39.3 221.05 L37.8 223.0 Q32.95 214.85 9.25 209.9 3.0 208.6 1.05 207.0 -0.4 205.8 0.15 203.7 1.9 197.0 9.3 191.65 16.75 186.2 27.45 183.9 37.7 181.7 44.2 185.0 48.0 186.9 54.2 193.85 L55.85 195.65 54.55 196.85 52.9 195.0 Q47.2 188.65 42.85 186.6 36.6 183.6 28.3 185.85"/><path fill="#0d131a" d="M125.3 133.3 Q129.7 128.55 133.6 127.1 L133.15 130.15 Q131.25 131.0 126.25 136.35 121.4 141.65 118.0 146.45 115.1 150.55 95.35 165.85 81.75 176.4 68.1 186.25 51.6 198.25 43.65 213.45 35.7 228.65 36.9 245.95 37.85 259.1 47.0 271.7 54.7 282.2 65.35 289.1 L64.05 291.05 Q51.75 285.1 43.15 273.0 34.05 260.25 32.85 245.7 31.25 225.8 39.55 211.25 46.9 198.45 64.95 185.3 74.8 178.2 94.2 162.65 114.9 146.05 117.25 143.1 123.25 135.5 125.3 133.3"/><path fill="#0d131a" d="M50.55 277.35 L51.3 279.6 Q43.7 282.15 37.55 290.35 32.15 297.55 32.6 301.05 L30.3 302.45 Q27.4 297.85 34.55 289.1 41.65 280.35 50.55 277.35"/><path fill="#0d131a" d="M126.8 308.7 Q133.55 311.95 147.55 314.0 163.7 316.4 180.95 315.7 227.25 313.75 256.3 291.1 L258.45 293.4 Q227.1 317.85 179.75 319.45 161.95 320.05 145.95 317.2 131.85 314.65 125.8 310.85 L126.8 308.7"/><path fill="#0d131a" d="M265.5 155.3 L266.75 152.25 Q272.0 156.95 278.0 171.15 284.75 187.2 285.15 200.3 L282.65 198.75 Q280.65 187.15 275.0 172.95 269.4 158.8 265.5 155.3"/><path fill="#0d131a" d="M147.35 278.95 L147.85 276.8 Q155.3 275.2 160.55 271.45 L166.9 265.8 Q169.15 263.85 168.9 265.2 168.7 266.5 166.9 268.8 161.4 275.95 147.35 278.95"/><path fill="#0d131a" d="M249.0 279.7 L249.7 282.65 Q245.65 281.5 240.65 277.65 236.4 274.35 234.95 272.15 233.85 270.4 234.55 270.35 235.3 270.3 236.5 271.9 237.9 273.75 241.25 276.0 245.2 278.65 249.0 279.7"/><path fill="#0d131a" d="M85.45 209.05 Q88.95 206.0 88.8 207.3 88.6 208.65 86.15 210.9 71.65 224.2 67.1 253.1 65.35 264.2 65.55 275.15 65.7 284.95 67.3 290.45 68.9 296.05 68.85 297.15 68.8 298.75 65.55 292.3 47.45 294.4 34.75 300.85 25.55 305.5 22.1 310.45 21.15 311.85 21.25 312.4 L21.45 313.4 16.8 315.3 Q13.45 317.75 19.8 320.2 29.85 324.15 54.25 326.95 83.3 330.35 102.15 327.1 111.55 325.5 115.15 323.1 117.75 321.3 121.95 314.9 L146.65 277.4 Q161.3 255.6 164.45 252.2 167.75 248.7 167.95 249.75 168.1 250.75 166.1 253.85 149.1 279.5 125.35 316.0 120.55 323.45 118.3 325.25 114.55 328.15 105.05 329.8 84.55 333.3 55.6 330.15 29.75 327.3 18.75 322.3 10.35 318.45 13.1 315.2 13.9 314.2 19.0 311.9 17.1 307.0 30.7 300.1 44.95 292.9 64.7 289.9 63.55 286.0 62.8 281.1 61.9 275.3 61.9 270.15 61.9 252.35 65.8 239.6 71.35 221.55 85.45 209.05"/><path fill="#0d131a" d="M333.25 297.1 Q333.3 298.65 331.85 300.45 324.75 309.25 310.5 314.15 295.55 319.3 286.1 314.95 267.75 306.45 256.5 293.25 247.2 282.35 240.25 264.9 238.95 261.7 239.65 260.7 240.3 259.7 242.45 264.15 249.15 278.1 256.7 287.6 269.7 303.95 287.75 312.25 296.7 316.4 312.05 310.05 317.9 307.65 322.95 304.35 327.65 301.25 329.25 299.05 330.8 296.9 327.4 293.3 324.85 290.6 317.4 285.1 317.25 289.1 316.2 289.85 315.6 290.25 315.45 285.85 315.2 277.65 314.8 273.55 312.95 252.9 297.85 225.0 288.2 207.1 278.7 195.0 277.05 192.9 277.2 191.8 277.4 190.6 280.45 193.4 283.05 195.85 288.0 202.55 294.65 211.7 300.3 222.15 317.0 252.95 318.15 282.55 328.6 290.3 331.7 293.85 333.2 295.6 333.25 297.1"/><path fill="#0d131a" d="M55.35 307.2 Q59.75 307.4 59.6 308.05 59.45 308.7 55.2 308.95 L37.0 310.95 Q21.45 312.95 18.25 314.25 15.2 315.5 17.15 313.8 L19.7 311.85 Q23.05 310.15 37.15 308.5 L55.35 307.2"/><path fill="#0d131a" d="M52.05 300.3 Q55.8 299.95 56.25 300.3 56.75 300.7 52.95 301.65 44.65 303.25 38.8 304.8 27.7 307.8 23.35 311.8 L20.85 310.8 Q25.5 306.55 37.35 303.25 45.95 300.9 52.05 300.3"/><path fill="#0d131a" d="M168.85 183.6 Q188.5 191.35 210.45 190.4 232.45 189.45 247.55 180.2 255.25 175.45 259.6 169.2 263.95 162.95 264.6 155.7 L266.6 155.0 Q265.85 163.1 261.6 170.2 256.95 177.85 249.2 182.65 233.75 192.1 210.7 193.2 187.55 194.25 167.6 186.35 154.45 181.15 145.5 174.5 133.6 165.55 130.05 154.5 125.9 141.35 131.75 129.1 L133.35 129.85 Q127.25 142.5 131.7 153.85 135.65 163.85 147.3 172.25 156.2 178.65 168.85 183.6"/><path fill="#0d131a" d="M203.9 182.1 Q223.3 182.5 238.95 176.65 254.6 170.8 262.15 160.4 265.05 156.3 265.7 146.85 266.3 137.95 264.6 134.15 L266.05 131.1 Q269.45 133.55 269.45 144.15 269.45 155.65 264.05 161.75 254.65 172.45 239.85 178.6 223.6 185.35 204.55 184.95 182.35 184.55 163.7 176.05 145.15 167.55 135.95 153.8 130.6 145.8 130.9 134.7 131.1 124.15 136.0 118.1 L137.95 119.4 Q134.05 125.2 133.6 134.7 133.1 145.35 137.9 152.5 146.75 165.8 164.5 173.75 182.25 181.7 203.9 182.1"/><path fill="#0d131a" d="M256.0 30.0 L254.3 31.25 Q250.5 20.95 239.05 14.9 227.7 8.85 213.45 9.5 200.3 10.05 189.15 15.35 178.0 20.65 175.2 27.7 L173.25 26.45 Q176.85 19.15 186.45 13.85 197.65 7.6 212.85 6.95 227.5 6.35 239.45 12.9 251.05 19.3 256.0 30.0"/><path fill="#0d131a" d="M184.7 90.15 L184.7 93.1 Q182.55 90.5 180.55 87.1 L182.0 86.0 184.7 90.15"/><path fill="#0d131a" d="M178.5 76.25 Q178.5 78.35 179.8 81.6 L177.95 81.6 Q176.75 78.25 176.75 76.25 L178.5 76.25"/><path fill="#0d131a" d="M251.3 93.95 L252.15 96.35 Q251.25 100.4 243.9 104.95 233.9 111.15 219.75 110.2 208.25 109.45 198.9 104.55 L199.8 102.5 Q208.65 106.9 219.75 107.65 233.45 108.55 243.5 101.9 246.85 99.7 249.25 96.95 251.1 94.85 251.3 93.95"/><path fill="#0d131a" d="M183.4 75.25 L183.4 77.2 183.2 79.1 182.15 80.55 180.95 81.8 Q180.15 82.2 179.55 81.4 L179.05 80.55 Q181.0 77.55 183.4 75.25"/><path fill="#0d131a" d="M251.2 95.35 L250.0 96.8 Q248.45 85.7 241.0 77.55 233.5 69.3 222.4 66.8 213.2 64.65 203.45 67.15 L203.45 64.7 Q213.15 62.55 222.8 64.7 235.05 67.5 242.35 74.95 250.2 82.95 251.2 95.35"/><path fill="#0d131a" d="M228.75 123.0 Q225.05 123.45 225.0 122.65 224.9 121.85 228.45 121.3 233.0 120.6 239.1 118.4 248.05 115.2 254.15 110.55 L254.15 112.15 253.95 113.7 Q244.3 121.1 228.75 123.0"/><path fill="#0d131a" d="M265.3 88.65 Q266.3 90.65 266.3 93.45 266.25 97.65 263.65 102.4 L263.25 103.1 263.3 99.0 Q265.4 93.65 263.9 89.85 L264.3 87.1 Q265.05 87.85 265.3 88.65"/><path fill="#0d131a" d="M324.15 58.95 Q327.3 64.6 324.75 64.7 323.1 64.75 321.5 65.55 320.0 66.35 319.75 67.15 319.5 68.25 321.9 68.8 L328.55 68.55 Q330.4 68.15 329.7 74.0 328.95 80.0 327.75 78.75 326.7 77.65 323.85 77.35 321.1 77.1 320.35 77.7 319.75 78.25 319.9 79.5 320.0 80.65 320.65 81.4 321.8 82.65 324.45 82.55 326.7 82.5 323.55 86.9 320.35 91.35 319.1 90.3 317.2 88.65 315.9 88.45 314.7 88.2 313.7 89.15 312.5 90.2 311.95 91.4 311.3 92.65 311.7 93.45 312.05 94.1 313.65 94.15 L316.7 93.6 Q318.15 93.1 320.5 97.05 322.85 101.0 321.75 101.5 319.85 102.3 319.7 104.4 319.6 106.15 320.6 107.45 321.2 108.25 320.15 109.5 318.95 110.95 316.25 111.6 L312.3 111.45 Q309.9 110.9 310.2 110.0 310.5 109.05 309.9 107.5 309.3 105.8 308.25 105.25 307.4 104.8 306.35 105.25 304.05 106.25 304.15 107.45 304.2 107.95 306.1 108.85 307.4 110.15 307.8 112.9 308.15 115.65 306.95 114.9 305.6 114.1 304.4 114.15 303.15 114.25 302.8 115.2 302.1 117.25 306.15 119.6 307.15 120.2 306.95 120.55 L306.1 121.4 Q304.95 122.55 302.25 124.0 298.6 125.9 296.6 125.2 296.25 125.1 296.35 122.65 296.4 120.15 295.55 119.75 294.85 119.4 293.9 120.15 292.9 120.85 292.4 122.1 291.95 123.15 288.65 122.6 285.4 122.05 285.8 121.3 286.2 120.45 286.15 119.25 286.1 117.95 285.55 117.3 285.05 116.8 284.15 116.85 282.55 116.95 281.3 119.5 280.3 121.55 280.05 123.75 279.9 125.4 276.25 124.1 272.5 122.8 273.35 121.8 L275.4 119.8 Q276.55 118.45 275.9 117.35 275.0 115.6 274.1 115.65 273.1 115.65 272.4 117.2 L270.85 121.0 Q270.3 122.35 268.65 121.35 L267.3 120.3 266.1 119.1 Q265.4 118.5 265.85 115.1 266.25 111.7 267.2 112.3 268.1 112.9 268.75 112.65 L270.15 111.55 Q271.3 110.4 270.85 107.6 270.55 105.95 269.4 105.4 L267.45 105.5 266.65 106.05 266.2 107.1 Q265.7 108.4 264.8 106.85 L265.2 105.85 Q265.75 104.85 266.7 104.25 L270.0 104.1 Q271.8 104.95 272.2 107.35 272.5 109.1 272.1 110.6 271.75 112.05 270.85 112.9 270.15 113.6 269.25 113.7 L267.75 113.75 Q267.2 113.75 267.3 115.85 L267.55 118.4 269.35 119.65 Q270.35 118.4 271.15 116.6 272.2 114.25 274.05 114.25 276.1 114.15 277.35 116.55 277.75 117.25 277.75 117.95 277.75 119.1 276.9 120.45 276.15 121.7 275.45 121.95 275.05 122.15 276.95 122.75 L278.75 122.85 Q278.65 121.5 279.8 119.0 281.4 115.6 284.05 115.45 285.6 115.35 286.6 116.35 287.55 117.5 287.55 119.55 L287.5 120.55 289.05 120.85 291.05 120.95 Q292.3 118.95 293.95 118.3 L296.4 118.25 Q297.35 118.7 297.65 120.1 L297.8 122.9 297.85 123.9 Q299.0 123.85 301.95 122.25 304.9 120.65 304.25 120.45 303.3 120.2 301.9 118.1 300.3 115.7 301.05 114.25 301.75 112.85 303.5 112.85 L306.05 113.2 Q305.8 110.9 304.85 109.9 302.6 109.35 302.45 107.7 L302.4 107.45 Q302.4 105.45 305.8 103.95 L308.95 104.0 Q310.25 104.7 311.0 106.2 311.6 107.35 311.7 108.5 311.75 109.35 313.25 109.65 314.6 109.9 315.85 109.65 317.0 109.4 318.0 108.85 319.05 108.2 318.8 107.85 317.8 106.5 317.75 105.6 L317.75 105.4 Q317.75 104.15 318.35 102.85 319.0 101.55 319.9 101.0 320.8 100.45 319.0 97.7 317.2 94.95 316.5 95.45 315.25 96.4 312.95 96.0 310.8 95.6 310.15 94.45 309.45 93.1 310.4 90.95 311.2 89.15 312.65 87.85 314.3 86.4 316.7 87.05 318.2 87.45 319.7 88.55 321.9 86.95 323.1 84.15 320.7 84.05 319.3 82.5 317.95 81.0 318.1 78.9 318.2 76.85 319.45 76.2 320.8 75.4 323.65 75.7 326.25 75.9 327.05 76.5 327.7 77.0 328.25 73.65 328.75 70.25 328.05 70.5 L324.0 70.7 Q320.3 70.4 318.65 68.75 317.95 68.0 317.95 67.2 L318.0 66.7 Q318.3 65.55 320.7 64.4 322.3 63.65 323.65 63.3 324.2 63.2 322.7 60.1 321.2 57.0 320.75 56.9 L319.55 58.85 Q317.95 61.0 314.7 61.25 313.1 61.4 311.8 60.75 310.85 60.25 309.5 58.95 L310.5 57.85 Q313.25 61.5 316.45 59.15 318.2 57.9 319.85 55.05 320.95 53.2 324.15 58.95"/><path fill="#0d131a" d="M295.55 8.0 Q298.8 10.95 297.55 11.8 295.5 13.15 294.8 13.75 293.3 15.15 292.9 16.85 292.8 17.45 293.9 18.95 295.05 20.5 295.65 20.5 297.25 20.5 299.2 18.15 299.75 17.45 303.15 20.2 306.5 22.95 305.2 23.4 300.65 24.9 300.25 26.05 L300.85 26.9 Q301.6 27.6 302.1 27.6 303.35 27.55 304.95 26.5 306.5 25.45 307.6 23.9 308.7 22.4 310.25 26.65 311.8 30.9 310.3 31.0 308.5 31.1 306.05 31.85 303.25 32.7 303.15 33.55 303.0 34.75 304.7 36.05 305.65 36.8 305.8 37.35 305.95 38.0 305.1 38.7 301.35 41.8 302.75 43.05 304.1 44.3 306.1 43.65 308.1 43.0 309.4 40.95 311.2 38.1 313.8 43.1 314.8 44.95 315.0 46.55 315.2 48.25 314.2 48.2 309.65 48.1 309.3 49.25 308.85 50.6 309.9 52.15 310.95 53.8 312.6 54.0 314.2 54.2 312.15 57.5 310.1 60.9 309.15 60.25 308.4 59.7 306.9 59.85 L304.5 60.3 Q302.65 60.7 301.95 62.15 301.25 63.6 302.55 64.55 304.35 65.9 305.8 65.75 306.6 65.65 308.55 64.5 310.15 63.6 309.85 69.15 309.5 74.7 307.95 73.75 304.9 71.8 303.5 72.25 302.1 72.65 300.2 76.2 299.65 77.3 296.8 76.15 294.45 75.2 292.45 73.65 291.7 73.1 291.8 72.75 291.85 72.45 292.65 71.95 293.85 71.3 293.95 70.65 L292.9 69.65 Q291.55 68.85 289.9 69.25 288.35 69.6 287.4 70.7 286.5 71.7 287.35 73.35 288.35 75.2 291.35 77.0 292.3 77.55 290.25 80.7 L287.05 84.65 Q286.15 85.55 282.2 86.05 L277.75 86.2 Q276.9 85.85 278.3 83.4 279.9 80.65 279.5 79.7 279.25 79.1 278.4 79.15 276.75 79.25 275.8 80.55 274.95 81.65 275.1 82.8 275.2 84.15 273.85 84.25 L268.8 84.5 Q268.0 84.45 267.95 83.9 267.9 83.4 268.45 82.85 268.95 82.35 268.65 80.8 268.35 79.15 267.6 78.4 266.6 77.4 265.75 77.4 265.1 77.4 265.0 77.8 L264.8 76.55 Q264.75 75.25 265.3 75.1 266.6 74.7 269.1 77.2 270.55 78.65 270.55 81.3 L270.55 81.5 270.25 82.75 272.4 82.9 Q273.6 82.9 273.7 82.4 273.95 80.65 274.7 79.7 276.05 77.9 278.25 77.75 280.1 77.6 280.8 79.15 L281.05 80.6 Q281.05 81.25 280.05 83.05 279.25 84.6 279.5 84.7 L282.6 84.1 Q285.15 83.4 285.7 83.1 290.45 78.05 289.6 77.85 288.35 77.55 285.85 74.15 285.25 73.35 285.25 72.3 285.25 70.9 286.35 69.8 287.65 68.35 289.65 67.9 291.8 67.4 293.6 68.4 295.35 69.45 295.35 70.65 L295.35 70.8 Q295.3 71.25 294.45 71.95 293.65 72.55 293.8 72.7 298.5 75.85 298.85 75.25 L299.7 73.65 Q300.5 72.35 301.8 71.55 303.45 70.6 305.3 70.85 306.8 71.05 307.8 71.9 308.55 72.55 308.6 69.15 308.65 65.65 308.15 66.25 307.35 67.25 305.45 67.1 303.45 67.0 301.7 65.65 299.75 64.15 300.4 62.05 301.05 59.85 304.0 59.0 307.5 58.0 309.2 58.7 L310.85 56.65 Q312.05 55.1 311.65 55.2 310.15 55.5 308.45 53.45 306.65 51.3 307.4 49.35 307.85 48.2 309.1 47.6 310.25 47.1 312.6 46.85 313.65 46.75 312.15 43.95 310.65 41.2 310.05 42.4 309.15 44.35 306.8 45.1 304.35 45.95 301.85 44.8 300.7 44.3 300.5 43.1 L300.5 42.9 Q300.5 40.7 304.45 37.55 302.5 36.55 301.75 34.95 301.15 33.65 301.5 32.9 302.1 31.7 305.7 30.6 L309.45 29.45 Q309.75 29.15 309.15 27.7 308.55 26.3 307.95 25.6 306.8 27.05 305.2 28.0 303.6 28.95 302.15 29.0 300.25 29.0 299.2 27.55 298.8 26.95 298.8 26.3 L298.9 25.6 Q299.2 24.7 301.4 23.65 L303.5 22.45 Q303.5 22.0 301.8 20.7 300.15 19.4 299.85 19.55 L298.3 20.8 Q296.75 21.9 295.65 21.9 293.6 21.9 292.15 19.7 291.45 18.7 291.45 17.45 L291.55 16.55 Q291.9 14.85 293.85 12.9 295.35 11.4 296.2 11.0 296.7 10.8 295.0 9.1 293.3 7.45 293.2 8.0 L292.05 10.25 Q290.85 11.95 289.7 12.45 287.55 13.4 286.0 12.0 285.15 11.25 285.15 10.2 L285.1 10.05 Q285.1 8.55 286.95 5.95 287.25 5.5 286.45 4.95 285.8 4.5 284.9 4.2 284.35 4.0 282.3 5.25 L279.7 6.85 Q280.25 8.4 280.25 9.55 280.25 10.55 279.85 11.45 279.3 12.6 277.85 13.3 L275.1 14.25 Q273.85 14.55 273.05 13.75 271.95 12.55 272.65 9.35 L269.85 9.65 Q268.45 10.05 268.5 10.65 269.55 20.45 258.55 29.35 249.65 36.55 241.55 38.05 L239.45 37.95 Q239.5 37.4 241.55 36.75 249.65 34.2 256.45 28.55 265.95 20.65 267.15 10.1 267.35 8.5 271.0 7.9 274.7 7.25 274.3 8.5 273.95 9.4 274.0 11.0 274.05 12.7 274.65 12.65 277.95 12.05 278.6 10.8 278.95 10.15 278.8 8.75 278.65 7.4 278.2 6.75 277.8 6.15 281.1 4.3 284.2 2.5 285.05 2.45 285.85 2.45 287.6 3.8 289.4 5.25 288.8 5.9 286.45 8.5 286.55 10.1 286.55 10.45 287.45 10.95 L289.2 11.15 Q290.15 10.75 290.9 9.55 291.75 8.25 292.0 6.7 292.3 5.05 295.55 8.0"/><path fill="#0d131a" d="M184.3 96.85 Q181.9 67.8 179.65 60.85 L182.05 59.85 Q184.4 67.0 186.75 96.05 L189.05 129.35 Q189.45 135.1 189.9 136.05 190.35 136.95 191.4 134.15 193.6 128.3 197.15 109.2 201.8 84.05 201.8 65.65 201.8 55.7 200.7 48.6 L203.15 49.25 Q206.55 68.65 201.25 100.5 197.4 123.45 193.35 134.6 192.4 137.25 191.55 138.4 190.55 139.8 189.4 139.6 188.25 139.4 187.7 137.1 187.25 135.15 186.65 128.9 L184.3 96.85"/><path fill="#0d131a" d="M182.2 84.8 L181.2 82.5 177.05 82.35 Q175.45 81.8 174.8 79.15 L174.4 76.2 175.4 76.55 175.95 79.0 Q176.55 80.75 177.5 81.05 180.45 82.0 181.4 81.05 181.8 80.55 182.95 82.95 184.15 85.25 183.45 85.55 182.7 85.9 182.15 86.65 181.6 87.35 181.45 88.2 181.15 89.85 182.2 92.05 L183.35 93.95 183.7 94.2 Q184.0 94.5 183.95 95.05 183.7 96.5 182.45 98.75 180.8 101.6 179.7 100.4 178.5 99.05 176.25 100.2 174.0 101.4 174.7 102.65 L176.15 105.2 Q177.45 106.8 180.5 107.9 181.75 108.35 179.25 112.25 176.7 116.1 175.9 115.35 L173.15 113.6 Q170.95 112.55 169.15 112.4 168.15 112.25 167.55 112.95 166.9 113.65 166.85 116.6 166.8 118.85 167.05 120.45 167.2 121.5 162.55 121.3 157.85 121.15 158.0 120.15 158.05 119.55 156.7 117.0 155.45 114.6 155.8 114.1 L156.8 112.9 Q157.2 112.3 157.0 111.95 156.2 110.35 152.95 110.8 151.2 111.1 150.05 112.45 149.1 113.6 148.35 115.75 147.85 118.35 146.75 118.1 145.0 117.75 141.6 119.0 138.5 120.1 138.5 120.35 L137.65 120.4 Q135.2 118.75 133.1 116.35 L132.95 115.6 Q133.7 113.7 133.45 113.2 133.2 112.7 129.55 111.85 128.55 111.6 128.0 112.15 127.25 112.85 127.25 115.5 127.25 117.45 127.5 118.85 127.65 119.6 127.1 119.75 126.65 119.9 126.25 119.45 124.3 117.05 122.5 115.95 L122.25 115.9 Q121.65 116.15 120.9 118.1 120.25 119.8 119.95 121.5 119.75 122.9 115.85 119.95 111.9 117.0 113.3 116.75 114.8 116.5 115.85 114.6 117.0 112.4 116.7 109.4 116.45 108.0 115.95 107.85 115.45 107.65 114.4 108.15 113.35 108.65 112.9 109.3 112.3 110.15 111.55 109.45 L110.15 107.95 108.7 106.05 Q108.65 104.9 109.95 102.4 111.4 99.55 112.65 100.5 113.95 101.45 115.25 99.95 116.3 98.7 116.5 97.3 116.9 95.05 114.95 94.0 113.55 93.2 112.35 93.7 110.3 94.55 108.85 99.75 108.4 101.0 107.6 100.0 106.15 98.2 103.0 98.95 100.55 99.55 99.6 100.5 98.85 101.3 97.25 96.5 95.65 91.9 95.8 90.7 95.9 89.8 97.8 87.35 99.55 85.05 100.25 84.55 101.3 83.75 101.55 85.55 101.75 86.45 102.95 87.8 104.3 89.35 105.4 89.45 106.6 89.55 107.8 88.8 109.05 88.0 109.7 86.75 110.25 85.8 110.0 85.45 109.85 85.2 109.1 85.1 L107.85 85.15 Q107.0 85.5 106.65 84.75 L104.0 80.45 Q103.7 79.9 103.75 79.75 103.8 79.55 104.45 79.45 105.9 79.2 107.55 77.5 109.25 75.75 109.35 74.3 109.5 71.65 107.15 70.45 105.6 69.65 105.3 71.15 105.1 72.45 105.75 73.75 106.2 74.65 105.9 74.9 L105.55 74.95 101.7 74.5 Q98.75 74.05 98.8 73.45 99.0 71.75 97.8 70.15 97.0 69.1 95.3 67.8 L94.55 66.9 Q94.45 66.5 94.8 65.6 96.6 60.8 99.6 60.05 L101.1 61.3 Q102.75 62.5 103.45 62.55 105.3 62.65 106.65 60.7 107.5 59.45 106.75 57.55 106.05 55.6 104.4 54.7 103.8 54.4 106.75 51.85 109.6 49.4 110.15 50.65 110.55 51.5 112.1 52.7 113.95 54.25 115.3 54.1 117.1 53.9 118.7 52.6 120.2 51.35 120.65 49.9 L122.6 50.0 Q122.1 51.8 119.95 53.5 117.7 55.3 115.45 55.5 114.35 55.6 112.1 54.15 L109.7 52.35 Q109.35 52.0 107.85 53.15 106.35 54.3 106.6 54.65 108.8 57.5 108.8 59.15 108.8 60.45 108.0 61.55 106.05 64.45 103.35 64.35 101.2 64.2 99.6 62.05 97.6 62.9 96.45 66.65 100.35 69.85 100.35 72.1 L100.35 72.15 Q101.05 72.85 104.15 73.2 103.9 72.3 103.9 71.3 103.9 69.8 104.65 69.15 105.65 68.25 107.75 69.15 109.15 69.8 109.95 71.1 110.75 72.35 110.75 73.95 L110.75 74.4 Q110.6 76.25 109.45 77.9 108.15 79.7 106.05 80.55 107.0 82.3 108.05 83.7 110.35 83.55 111.15 84.6 111.9 85.6 110.95 87.4 110.05 89.1 108.5 90.05 106.95 90.95 105.3 90.85 104.45 90.8 102.75 89.4 101.05 88.0 100.7 87.1 100.4 86.35 99.1 88.4 L97.5 91.15 Q99.3 98.95 99.75 98.35 100.25 97.6 103.0 97.05 106.2 96.5 107.95 97.85 109.4 93.45 111.8 92.4 113.65 91.65 115.65 92.75 118.0 94.05 118.0 96.65 L117.9 97.5 Q117.6 99.35 115.95 101.0 114.25 102.75 113.05 102.1 111.9 101.5 111.05 103.45 110.2 105.3 110.6 106.0 111.05 106.7 112.45 107.85 114.8 105.9 116.45 106.5 117.8 107.05 118.1 109.25 L118.15 110.6 Q118.15 112.85 117.0 114.95 116.05 116.75 115.2 117.05 114.55 117.25 116.5 118.7 118.5 120.15 118.75 119.75 L119.8 117.25 Q120.8 114.95 121.7 114.6 L123.25 114.75 125.8 116.85 125.75 115.5 Q125.75 112.35 127.0 111.15 128.05 110.1 129.85 110.45 L133.1 111.35 Q134.3 111.8 134.7 112.55 L134.95 113.55 134.4 115.7 138.05 118.95 Q139.6 117.9 141.45 117.2 144.25 116.2 146.5 116.65 L147.0 115.3 Q148.0 112.55 148.8 111.4 150.15 109.5 152.35 109.15 L155.95 109.5 Q157.65 110.1 158.25 111.35 L158.55 112.45 157.85 113.7 157.25 114.75 159.6 118.8 Q159.95 119.45 162.2 119.5 L164.85 119.35 Q165.2 119.3 165.2 118.3 L165.1 116.85 Q165.1 113.5 166.5 112.0 167.5 110.85 169.25 111.0 170.9 111.15 172.85 111.9 174.7 112.6 175.45 113.3 176.05 113.9 177.8 111.4 179.55 108.85 179.0 108.7 178.2 108.55 175.95 106.8 173.35 104.8 172.9 103.5 L172.9 102.7 173.05 101.9 Q174.1 100.0 175.8 99.05 177.65 98.0 179.55 98.65 182.15 97.4 182.15 94.85 L182.1 94.65 Q179.95 91.55 179.95 88.95 L180.05 87.95 Q180.4 86.2 182.2 84.8"/><path fill="#0d131a" d="M259.55 44.8 Q256.95 43.55 251.8 44.9 247.1 46.15 243.4 48.6 247.35 57.5 251.8 88.9 255.4 114.35 255.75 123.45 L255.9 128.3 257.25 124.55 Q259.45 118.1 261.7 101.95 264.3 83.4 264.3 68.35 264.3 57.05 262.7 49.8 261.95 46.0 259.55 44.8 M250.85 43.55 Q257.25 41.75 260.15 43.2 263.7 45.0 264.6 49.2 267.7 63.85 265.3 91.45 263.2 115.25 260.0 124.6 258.7 128.35 257.4 130.1 256.35 131.55 255.6 131.4 254.95 131.3 254.45 129.2 253.95 127.1 253.85 123.85 253.45 114.35 249.85 88.85 245.45 58.2 241.6 49.45 232.1 52.95 223.5 52.95 215.45 52.95 203.0 49.7 194.2 46.7 187.6 48.2 182.85 49.25 181.3 51.7 180.85 52.45 181.25 52.85 181.85 53.55 184.05 54.1 L187.15 54.75 Q188.15 55.05 186.35 58.05 184.6 61.05 183.7 61.1 L181.3 61.1 Q179.45 61.45 178.15 63.15 177.15 64.5 179.45 67.85 L182.2 71.55 Q182.5 72.2 179.7 75.45 176.95 78.65 176.3 78.65 L174.8 77.1 Q173.45 75.65 171.6 75.75 170.75 75.85 170.35 76.4 169.5 77.7 169.9 80.5 L170.25 83.4 Q169.85 84.05 163.4 83.55 163.15 83.5 163.0 82.65 L162.45 81.0 Q160.85 78.5 159.2 78.35 158.95 78.35 158.7 78.95 158.35 79.65 158.35 80.6 L158.95 83.4 Q159.4 85.15 158.75 85.5 L154.1 85.6 Q150.25 85.2 149.85 84.65 149.5 84.2 150.6 82.35 L151.7 80.4 Q150.9 78.85 147.7 78.6 146.6 78.6 146.15 79.2 145.25 80.25 145.05 82.2 144.8 84.2 145.55 85.35 146.25 86.45 142.25 87.05 L138.1 86.9 Q137.6 84.0 135.3 81.55 133.65 79.75 133.95 79.6 137.3 77.85 137.4 77.8 140.15 76.15 140.45 74.8 140.9 72.85 139.2 71.4 137.55 70.05 135.85 71.1 L133.1 73.4 Q131.8 74.4 130.85 70.45 129.9 66.5 131.3 66.7 133.9 67.1 134.6 65.55 135.0 64.75 134.45 63.3 133.85 61.9 132.55 60.3 131.75 59.35 130.9 59.45 130.0 59.6 128.95 61.0 128.2 62.0 127.7 63.05 122.9 65.35 122.1 65.15 121.45 65.0 120.45 60.7 119.4 56.4 120.3 56.6 121.2 56.8 122.35 56.05 L123.7 54.7 Q124.2 53.4 122.55 51.1 122.05 50.3 121.1 50.15 L118.75 50.5 117.1 51.25 Q116.45 51.5 115.45 47.7 114.45 43.9 115.75 43.7 L118.65 43.6 Q120.3 43.55 121.1 42.8 121.75 42.15 123.55 42.8 L126.25 42.9 Q127.55 42.05 128.45 40.8 129.45 39.4 129.3 38.4 129.15 37.35 127.3 37.1 125.2 36.8 122.1 37.8 120.95 38.2 119.65 34.9 118.35 31.6 119.7 31.6 122.1 31.55 123.25 29.65 124.35 27.9 123.35 26.95 122.1 25.85 118.5 27.9 117.8 28.3 116.4 25.15 114.95 22.0 115.35 20.9 115.85 19.6 120.85 17.65 125.85 15.65 125.7 16.8 125.55 17.7 126.25 19.2 127.0 20.7 127.8 21.05 129.15 21.6 130.85 20.3 131.5 19.8 131.5 18.9 131.5 18.15 130.85 17.45 L129.45 16.0 Q128.6 15.0 131.95 13.05 135.25 11.15 135.45 12.85 135.55 13.8 136.45 15.05 137.5 16.45 138.65 16.7 141.3 17.4 143.25 14.95 144.05 14.0 143.8 13.3 143.3 12.05 139.0 11.1 138.35 10.95 137.9 8.15 137.45 5.4 137.85 4.7 138.2 4.0 141.85 3.15 L145.55 3.0 Q145.65 5.2 147.8 6.4 L148.1 6.45 Q148.65 6.15 149.15 1.1 149.2 0.2 153.05 0.05 156.85 -0.15 156.25 1.45 155.6 3.2 155.7 4.9 155.85 7.6 158.0 8.75 L159.7 8.95 Q160.35 8.55 160.65 7.05 L161.05 4.75 Q161.4 3.7 164.55 5.0 167.75 6.3 167.5 8.5 167.2 11.45 168.55 16.0 170.15 21.35 173.15 24.5 181.5 33.45 200.2 36.45 201.8 36.75 202.0 37.35 202.2 37.95 200.9 37.8 193.2 36.95 188.0 35.35 178.55 32.45 172.45 26.45 168.65 22.7 166.75 16.05 165.15 10.4 165.85 8.35 166.0 7.85 164.55 7.05 163.4 6.4 162.5 6.1 161.95 9.3 160.4 10.15 L157.35 10.0 Q154.45 8.45 154.45 4.35 154.45 2.95 154.7 2.0 154.8 1.4 152.6 1.5 150.35 1.6 150.55 2.2 150.75 2.95 150.3 4.9 149.75 7.1 148.8 7.65 L147.15 7.6 Q144.7 6.3 144.5 4.35 144.4 3.65 141.95 4.35 139.5 5.05 139.35 5.65 139.15 6.4 139.75 9.8 144.25 10.65 145.1 12.75 L145.25 13.65 Q145.25 14.7 144.35 15.8 143.2 17.3 141.55 17.9 L138.3 18.1 Q136.95 17.75 135.6 16.35 134.35 15.05 134.2 14.15 L132.9 14.25 131.3 15.4 Q133.15 17.25 133.15 18.85 133.15 20.3 131.7 21.45 129.3 23.2 127.25 22.35 125.15 21.45 124.45 18.15 L120.6 19.45 Q117.55 20.55 117.2 21.05 116.85 21.55 117.55 23.3 L118.6 25.8 Q122.35 23.8 124.4 25.6 125.4 26.45 125.4 27.8 L125.15 29.05 Q124.8 30.2 123.3 31.5 121.85 32.75 120.95 32.85 120.25 32.95 121.15 34.25 L122.45 36.0 125.85 35.4 Q128.35 35.25 129.65 36.05 130.75 36.75 130.9 38.05 131.15 39.5 130.35 41.0 129.55 42.45 127.95 43.45 L125.45 44.8 Q124.2 45.05 121.85 44.15 119.1 45.35 117.65 45.35 L116.65 45.3 Q116.4 45.7 117.6 49.6 119.75 48.55 121.3 48.75 122.75 49.0 123.7 50.3 125.25 52.4 125.25 54.05 L125.05 55.2 Q124.4 57.0 121.7 57.75 121.55 58.25 121.95 60.9 122.35 63.65 122.65 63.45 L126.55 62.15 Q128.5 58.4 130.7 58.05 132.3 57.8 133.6 59.4 135.3 61.35 135.9 63.15 136.5 64.95 135.9 66.15 135.5 67.0 132.25 67.9 131.8 68.0 132.05 70.0 132.3 71.95 132.85 71.65 L134.6 70.45 Q136.05 69.5 137.15 69.4 138.75 69.25 140.1 70.3 141.95 71.85 141.95 74.05 L141.8 75.1 Q141.5 76.35 138.3 78.6 135.6 80.55 136.1 80.75 136.8 81.05 137.95 83.0 L139.35 85.5 141.5 85.55 144.05 84.9 Q143.9 84.1 143.9 82.6 143.9 79.65 145.1 78.3 146.05 77.1 147.8 77.2 151.75 77.45 152.95 79.8 L153.25 81.15 Q153.25 81.65 151.9 83.65 L157.3 83.95 Q157.6 83.7 157.3 82.6 156.95 81.1 156.95 80.65 156.95 78.4 157.7 77.6 158.3 76.85 159.3 76.95 161.05 77.1 162.65 78.9 164.05 80.45 164.5 82.1 L166.15 82.35 168.4 82.3 168.2 79.75 Q168.2 76.85 169.25 75.55 170.1 74.45 171.5 74.35 174.85 74.1 176.05 76.75 L178.75 74.05 Q180.55 72.2 180.3 71.7 L178.15 68.8 Q176.35 66.15 176.35 64.45 176.35 63.25 177.0 62.3 178.4 60.5 180.55 59.9 L183.45 59.65 184.75 57.65 Q185.7 56.05 185.2 55.95 181.2 55.0 180.15 53.75 179.65 53.1 179.65 52.35 179.65 50.85 180.1 50.1 181.8 47.45 186.65 46.6 192.9 45.5 202.85 47.95 215.4 51.05 225.5 50.7 235.05 50.4 241.7 47.05 246.25 44.8 250.85 43.55"/><path fill="#0d131a" d="M188.95 23.05 Q186.05 22.45 182.55 24.65 179.4 26.6 177.95 29.25 L176.6 28.3 Q178.4 25.0 181.65 22.6 185.5 19.8 188.9 20.5 192.2 21.15 194.7 24.6 197.9 29.0 198.75 36.95 L197.2 36.7 Q195.8 24.4 188.95 23.05"/><path fill="#0d131a" d="M248.15 23.4 Q249.6 23.1 251.3 24.45 253.35 26.15 255.05 29.95 L254.0 31.1 Q252.85 28.55 251.35 27.0 249.85 25.45 248.8 25.7 247.3 26.0 246.15 28.9 244.9 32.05 244.9 36.3 L243.25 36.9 Q243.25 32.1 244.4 28.35 245.75 23.9 248.15 23.4"/><path fill="#0d131a" d="M185.5 34.05 Q184.3 30.55 186.15 27.15 187.6 24.5 190.25 22.8 L191.4 23.7 Q189.2 25.1 187.75 28.1 186.1 31.55 187.05 34.3 L185.5 34.05"/><path fill="#0d131a" d="M251.1 33.55 L250.1 33.75 Q250.7 31.55 249.65 28.8 248.75 26.4 247.3 25.25 L248.05 24.55 Q249.75 25.9 250.7 28.05 251.9 30.75 251.1 33.55"/><path fill="#0d131a" d="M195.9 30.8 Q195.9 32.05 195.5 33.0 195.15 33.9 194.6 33.9 194.05 33.9 193.65 33.0 193.3 32.1 193.3 30.8 193.3 29.5 193.65 28.6 194.05 27.7 194.6 27.7 195.15 27.7 195.5 28.6 195.9 29.5 195.9 30.8"/><path fill="#0d131a" d="M248.1 30.5 Q248.1 31.7 247.75 32.55 247.45 33.4 246.95 33.4 246.45 33.4 246.1 32.55 245.75 31.7 245.75 30.5 245.75 29.3 246.1 28.45 246.45 27.55 246.95 27.55 247.45 27.55 247.75 28.45 248.1 29.3 248.1 30.5"/><path fill="#0d131a" d="M205.15 37.0 Q205.55 40.9 209.4 42.0 L220.4 42.75 223.1 42.75 Q233.15 42.75 235.8 39.9 237.05 38.5 236.9 36.1 236.45 31.15 232.05 27.9 228.0 24.95 222.0 24.35 218.9 24.05 214.9 25.75 210.9 27.4 208.2 30.15 204.8 33.55 205.15 37.0 M213.8 23.75 Q217.6 22.25 221.6 22.5 229.15 22.9 234.05 27.45 238.25 31.3 238.65 36.0 238.9 39.15 237.1 41.1 235.45 42.85 232.1 43.7 L223.1 44.5 220.4 44.55 208.8 43.7 Q203.95 42.2 203.4 37.2 203.15 35.05 204.1 32.7 205.1 30.25 207.0 28.3 210.05 25.3 213.8 23.75"/><path fill="#0d131a" d="M213.55 33.15 Q212.95 32.65 213.05 31.85 213.15 31.05 214.35 31.6 216.4 32.55 217.9 36.15 218.4 37.4 217.95 37.45 217.55 37.5 216.9 36.8 L213.55 33.15"/><path fill="#0d131a" d="M228.95 35.55 Q229.3 34.5 230.15 33.35 231.0 32.25 231.65 32.05 232.25 31.85 232.75 32.35 233.2 32.85 232.9 33.25 L230.2 36.7 Q229.3 37.65 228.9 37.2 228.55 36.75 228.95 35.55"/><path fill="#cacfd2" d="M259.8 135.65 Q260.55 135.35 265.55 127.75 266.55 130.55 264.6 135.3 263.65 137.7 262.45 139.5 L259.8 135.65"/><path fill="#0d131a" d="M261.95 138.05 Q264.15 134.9 264.95 132.05 265.6 129.6 264.95 128.3 L266.6 127.0 Q267.6 129.0 266.85 132.65 266.05 136.55 263.75 139.75 258.05 147.75 247.3 152.95 229.4 161.6 203.0 158.75 170.35 155.3 154.0 138.2 144.55 128.4 142.65 117.45 L144.35 117.1 Q146.2 127.55 155.2 136.7 170.9 152.7 202.8 156.1 228.6 158.85 246.0 150.65 256.55 145.7 261.95 138.05"/><path fill="#0d131a" d="M221.85 151.15 Q203.0 152.7 185.65 147.85 166.85 142.65 155.7 130.65 151.25 125.8 149.2 121.0 147.3 116.55 148.05 113.7 L149.7 112.5 Q149.05 115.0 151.05 119.35 153.2 124.0 157.65 128.75 168.8 140.8 186.25 145.6 203.2 150.3 221.55 148.85 239.95 147.4 252.05 140.4 262.3 134.5 264.35 126.45 265.05 123.65 264.9 115.35 264.75 105.35 262.5 103.35 L263.65 99.45 Q267.25 102.65 268.3 112.5 269.4 122.4 266.65 127.0 L261.45 135.1 Q257.95 139.7 253.2 142.45 240.7 149.65 221.85 151.15"/></g></svg>