<?xml version='1.0' encoding='utf-8'?>
<svg xmlns="http://www.w3.org/2000/svg" version="1.1" width="278px" height="273px" viewBox="-1.0 -0.15 278.15 273.15"><g><path fill="#00b8ee" d="M45.4 5.75 Q49.1 2.95 51.75 1.8 54.45 0.65 54.25 1.95 53.8 5.55 51.35 10.0 47.95 16.3 41.4 22.5 50.7 24.75 54.7 30.65 58.2 35.75 57.05 42.3 55.95 48.35 51.65 52.65 47.2 57.1 41.85 56.95 50.75 63.0 54.05 70.85 55.2 73.6 55.3 75.75 55.4 77.65 54.7 77.65 49.25 77.7 41.65 70.85 34.2 64.1 32.5 57.95 29.45 56.75 27.1 55.1 L21.25 50.9 Q18.2 48.85 14.65 48.25 L6.55 47.8 Q2.85 47.8 3.0 46.6 3.15 45.4 6.9 44.65 9.95 44.05 12.55 42.25 15.25 40.45 16.65 37.95 20.75 30.8 25.0 26.85 27.55 24.5 32.0 22.0 35.75 13.25 45.4 5.75"/><path fill="#00a0cf" d="M51.6 44.25 L53.9 41.7 Q55.2 40.7 57.0 40.85 56.65 47.45 52.25 52.25 47.75 57.1 41.85 56.95 L43.35 58.0 Q40.95 61.55 45.15 69.2 47.3 73.05 50.25 76.6 44.85 74.35 39.4 68.65 33.9 62.85 32.5 57.95 29.45 56.75 27.1 55.1 L21.25 50.9 Q18.2 48.85 14.65 48.25 L6.55 47.8 Q3.0 47.8 2.9 47.05 2.85 46.3 6.0 45.7 9.95 44.8 14.25 45.75 16.35 46.15 21.95 48.15 32.5 51.9 40.9 50.05 47.9 48.5 51.6 44.25"/><path fill="#f2984f" d="M237.8 92.5 Q245.9 95.75 249.15 99.5 252.5 103.35 249.25 106.25 233.95 119.75 228.35 125.4 215.85 137.95 214.25 144.65 L185.2 152.05 Q175.7 147.95 160.2 133.5 145.7 119.95 144.8 116.1 144.4 114.3 148.05 109.9 152.0 105.1 158.25 100.4 175.1 87.9 194.2 86.5 218.45 84.75 237.8 92.5"/><path fill="#d18344" d="M271.4 233.8 Q273.85 239.25 274.9 245.4 276.1 252.2 274.75 255.5 271.15 264.35 252.65 243.65 L271.4 233.8"/><path fill="#00b8ee" d="M164.85 168.65 Q169.35 160.5 179.5 153.7 193.0 144.6 209.0 144.6 228.1 144.6 242.6 152.95 258.05 161.9 263.55 177.9 265.45 183.35 261.55 188.5 257.95 193.3 249.9 197.1 L250.3 197.15 Q249.5 200.4 251.35 205.5 253.65 211.75 258.75 214.4 265.05 217.7 268.9 221.45 273.25 225.75 272.4 228.85 270.6 235.5 269.5 238.1 266.9 244.15 263.55 244.9 L250.5 245.5 Q239.0 245.7 231.45 247.3 225.75 248.5 211.5 253.75 199.65 258.1 196.6 257.85 191.7 257.45 186.85 255.25 180.3 252.3 177.05 247.2 173.9 242.25 173.3 237.95 L173.0 229.05 Q172.9 224.0 171.7 221.0 170.6 218.15 167.65 215.2 164.95 216.9 161.85 221.25 160.3 223.4 159.25 225.2 158.45 223.5 156.6 222.25 153.25 220.0 142.8 217.2 129.55 213.65 120.0 205.75 109.2 196.75 102.25 181.5 95.5 166.55 98.05 146.55 100.05 131.2 107.1 114.9 111.8 104.0 112.05 90.5 112.35 74.3 105.5 62.75 98.95 51.8 79.6 45.6 65.5 41.05 54.9 41.05 L57.05 39.75 53.3 39.25 55.3 35.85 Q73.7 33.65 90.7 36.2 120.75 40.8 132.75 59.5 143.25 75.95 144.15 91.3 144.8 101.6 140.55 115.85 136.65 129.05 134.8 142.15 L133.3 153.95 Q133.0 154.9 135.6 157.5 138.45 160.3 142.7 162.85 154.2 169.75 164.85 168.65"/><path fill="#00a0cf" d="M165.7 167.95 L165.5 167.65 166.05 166.85 165.7 167.95"/><path fill="#00a0cf" d="M111.85 136.4 Q111.2 130.7 112.9 125.1 114.65 119.4 118.2 115.75 121.65 141.25 136.3 156.2 148.55 168.7 162.0 168.8 157.9 172.65 152.25 174.75 146.0 177.1 140.5 176.25 126.4 174.0 124.8 152.8 113.3 149.8 111.85 136.4"/><path fill="#00a0cf" d="M84.95 35.4 Q99.95 37.2 109.2 41.85 123.85 49.25 128.1 67.4 129.5 73.45 129.45 79.65 129.4 84.55 128.8 85.7 126.5 86.05 123.45 83.9 120.2 81.6 118.4 77.95 113.5 68.2 122.4 58.1 113.5 56.05 108.9 51.25 104.4 46.55 106.3 41.95 98.1 44.85 91.15 42.05 86.85 40.3 83.4 36.55 75.7 39.2 68.15 38.85 60.75 38.55 59.6 35.65 70.35 33.65 84.95 35.4"/><path fill="#00a0cf" d="M166.25 189.85 Q168.7 188.25 172.9 190.0 175.55 191.1 183.05 195.1 201.1 204.0 223.35 203.7 229.55 203.6 237.2 201.3 L250.2 197.25 Q249.85 201.85 251.95 206.6 254.3 212.05 258.75 214.4 L265.2 218.3 Q263.4 219.5 225.8 225.7 L188.5 231.7 Q186.2 230.8 183.2 231.35 177.15 232.45 173.55 239.65 173.25 238.2 173.5 235.45 173.75 232.5 173.3 230.05 172.15 223.65 171.45 221.55 170.25 217.8 167.65 215.2 164.95 216.9 161.85 221.25 160.3 223.4 159.25 225.2 158.45 223.5 156.6 222.25 153.25 220.0 142.8 217.2 129.55 213.65 120.0 205.75 109.2 196.75 102.25 181.5 96.0 167.55 97.05 152.2 97.7 153.6 98.75 163.5 100.8 174.15 106.4 180.65 114.05 189.45 122.7 194.3 132.85 199.95 142.85 199.25 153.15 198.55 166.25 189.85"/><path fill="#f2984f" d="M158.45 254.1 Q154.25 240.1 158.0 228.55 161.3 218.35 168.45 215.2 173.2 220.15 173.3 231.65 173.4 237.8 173.75 240.05 174.4 244.45 176.8 247.15 181.65 252.7 189.3 256.0 193.15 257.65 196.0 258.15 193.5 266.15 187.9 269.5 182.9 272.45 176.55 271.15 170.55 269.9 165.55 265.3 160.4 260.55 158.45 254.1"/><path fill="#d18344" d="M161.4 260.6 Q159.4 257.45 158.45 254.1 154.25 240.1 158.0 228.55 161.3 218.35 168.45 215.2 171.5 218.35 172.45 223.1 173.1 226.15 173.1 231.9 173.05 237.9 173.45 240.3 174.2 244.65 176.8 247.15 183.9 254.05 190.8 256.55 194.25 257.8 196.3 257.7 195.95 258.85 194.05 262.1 L177.75 260.9 Q168.5 260.35 161.4 260.6"/><path fill="#922f00" d="M247.1 199.15 Q249.3 211.0 255.75 216.1 257.35 217.4 260.65 219.1 263.4 220.55 264.35 221.6 269.4 227.25 262.35 233.65 260.1 235.7 249.2 236.25 235.4 236.95 228.25 238.85 218.35 242.2 213.45 243.5 204.9 245.85 199.35 244.1 192.55 241.9 189.8 237.9 186.85 233.7 188.05 226.95 189.15 220.35 186.4 211.35 183.95 203.5 180.05 197.95 L189.05 201.3 Q200.35 204.6 211.75 204.3 223.15 204.0 236.25 201.55 L247.1 199.15"/><path fill="#6a1a00" d="M247.1 199.15 Q248.5 206.65 251.6 211.55 244.25 216.3 238.6 223.3 233.1 230.2 229.75 238.5 L228.25 238.85 Q218.35 242.2 213.45 243.5 204.9 245.85 199.35 244.1 192.55 241.9 189.7 237.85 186.7 233.55 187.9 226.8 188.95 220.45 186.2 211.2 183.75 203.15 180.35 198.25 L189.5 201.35 Q200.95 204.45 212.35 204.15 223.75 203.85 236.55 201.5 L247.1 199.15"/><path fill="#ed8599" d="M247.5 216.45 Q256.35 223.2 257.05 235.6 L244.25 236.5 Q234.75 237.1 228.25 238.85 218.35 242.2 213.45 243.5 204.9 245.85 199.35 244.1 185.7 239.7 188.15 226.05 188.5 223.95 188.25 221.6 L187.5 216.9 Q197.85 209.45 209.85 207.55 220.4 205.95 230.15 208.8 242.1 212.35 247.5 216.45"/><path fill="#ce7486" d="M210.3 207.5 Q221.15 205.8 230.9 208.65 234.9 209.85 239.65 212.3 244.95 215.05 248.35 218.0 231.25 212.55 216.35 220.8 201.85 228.85 199.05 243.95 185.45 239.45 187.75 226.45 188.55 221.75 187.65 216.9 197.95 209.4 210.3 207.5"/><path fill="#ffffff" d="M266.25 225.15 Q267.45 230.45 261.75 234.05 256.25 237.5 251.25 235.65 L255.05 223.5 Q258.05 214.7 259.65 212.4 260.8 213.15 263.05 218.0 L266.25 225.15"/><path fill="#dbdcdc" d="M251.25 235.65 L255.45 222.6 Q256.1 229.65 259.55 235.55 L255.6 236.15 Q252.7 236.2 251.25 235.65"/><path fill="#ffffff" d="M215.95 242.1 Q213.3 244.7 205.45 245.05 197.35 245.35 194.95 242.4 195.5 240.8 200.1 232.95 204.7 225.0 206.2 223.2 208.6 225.45 211.8 231.4 215.25 237.8 215.95 242.1"/><path fill="#dbdcdc" d="M195.25 242.15 L197.15 238.2 Q198.85 235.0 200.5 232.1 201.1 238.9 204.8 245.15 L199.75 244.7 Q196.85 244.1 195.25 242.15"/><path fill="#f2984f" d="M39.75 40.65 Q39.75 44.35 37.2 47.0 34.6 49.65 31.0 49.65 27.35 49.65 24.8 47.0 22.2 44.35 22.2 40.65 22.2 36.95 24.8 34.3 27.35 31.7 31.0 31.7 34.6 31.7 37.2 34.3 39.75 36.95 39.75 40.65"/><path fill="#ffffff" d="M36.5 40.65 Q36.5 43.2 34.9 45.0 33.3 46.8 31.0 46.8 28.7 46.8 27.1 45.0 25.45 43.2 25.45 40.65 25.45 38.1 27.1 36.3 28.7 34.5 31.0 34.5 33.3 34.5 34.9 36.3 36.5 38.1 36.5 40.65"/><path fill="#ffffff" d="M211.7 204.4 Q205.6 216.55 203.6 217.75 201.05 216.15 197.65 210.85 L192.45 202.15 211.7 204.4"/><path fill="#ffffff" d="M223.05 203.55 Q228.6 203.1 242.7 199.55 L239.0 207.05 Q234.9 214.8 232.6 216.15 230.75 215.3 227.45 210.45 L223.05 203.55"/><path fill="#ffffff" d="M261.15 189.5 Q260.0 197.0 258.25 201.8 256.65 206.25 255.15 206.75 254.4 206.25 252.1 202.85 249.65 199.25 249.1 197.55 252.45 196.15 257.15 192.7 L261.15 189.5"/><path fill="#dbdcdc" d="M210.75 204.85 L209.5 207.75 Q203.6 206.5 198.55 212.15 L195.7 207.45 192.95 202.75 210.75 204.85"/><path fill="#dbdcdc" d="M242.7 199.55 L240.65 203.75 Q233.1 205.2 227.0 209.5 L223.05 203.55 Q226.35 203.6 234.85 201.55 L242.7 199.55"/><path fill="#dbdcdc" d="M249.1 197.55 Q252.45 196.15 257.15 192.7 L261.15 189.5 260.1 195.2 Q253.65 197.15 251.05 201.9 249.95 200.05 249.1 197.55"/><path fill="#d18344" d="M117.5 35.05 Q120.75 36.25 122.85 43.5 124.75 50.25 124.05 56.2 L122.75 54.05 Q108.2 31.9 59.35 35.45 60.65 31.45 63.5 28.75 67.15 25.2 72.0 25.45 75.75 25.65 79.15 28.3 82.5 30.9 83.4 34.25 85.7 30.35 89.65 28.4 93.75 26.4 97.85 27.4 102.6 28.6 104.55 32.2 105.1 33.15 107.35 40.4 110.65 36.35 112.2 35.35 114.45 33.95 117.5 35.05 M129.55 52.3 Q131.8 55.65 132.2 64.7 132.75 75.5 129.55 85.6 129.4 77.75 128.75 72.05 127.75 63.0 124.15 56.4 L125.85 53.15 Q128.05 50.05 129.55 52.3"/><path fill="#f2984f" d="M126.05 77.35 Q128.1 79.05 129.7 85.9 128.25 92.45 125.1 100.65 122.5 107.35 119.5 113.3 116.0 91.5 121.15 80.8 123.7 75.4 126.05 77.35"/><path fill="#d18344" d="M130.5 125.3 Q131.95 142.2 127.65 148.95 124.55 144.55 121.8 134.2 119.5 125.65 118.6 118.05 118.6 111.95 120.95 107.8 123.4 103.45 125.95 106.2 129.15 109.7 130.5 125.3"/><path fill="#d18344" d="M133.1 138.9 Q138.4 132.1 145.5 132.05 153.2 132.0 158.85 145.2 164.1 157.45 163.1 168.9 150.95 169.2 141.35 163.6 132.9 158.7 128.6 150.8 128.25 145.0 133.1 138.9"/><path fill="#f2984f" d="M115.75 58.7 Q117.15 62.2 116.6 65.4 116.1 68.6 114.0 69.55 111.95 70.5 109.5 68.65 107.05 66.8 105.65 63.25 104.3 59.7 104.8 56.5 105.3 53.35 107.4 52.4 109.5 51.45 111.95 53.3 114.4 55.15 115.75 58.7"/><path fill="#ffffff" d="M113.6 59.55 Q114.55 61.95 114.3 64.05 114.0 66.15 112.7 66.75 111.4 67.35 109.8 66.1 108.25 64.8 107.35 62.4 106.4 60.0 106.7 57.9 106.95 55.75 108.25 55.2 109.55 54.6 111.15 55.9 112.7 57.15 113.6 59.55"/><path fill="#f2984f" d="M90.05 39.9 Q91.25 41.95 90.8 44.3 90.3 46.7 88.4 47.75 87.0 48.5 84.5 47.7 81.85 46.85 80.75 44.95 79.6 42.9 80.15 40.7 80.65 38.45 82.55 37.4 84.5 36.35 86.7 37.15 88.9 37.9 90.05 39.9"/><path fill="#d18344" d="M90.75 41.9 Q88.45 40.85 87.1 39.95 85.25 38.7 84.0 36.9 85.75 36.6 87.4 37.45 89.1 38.25 90.05 39.9 90.65 40.85 90.75 41.9"/><path fill="#ffffff" d="M88.5 41.7 Q88.95 43.3 88.35 44.65 87.7 46.0 86.35 46.35 85.0 46.75 83.75 45.9 82.5 45.05 82.05 43.45 81.65 41.9 82.25 40.55 82.9 39.2 84.25 38.85 85.55 38.5 86.85 39.3 88.1 40.15 88.5 41.7"/><path fill="#f2984f" d="M225.45 186.5 Q225.55 190.7 223.2 193.8 220.8 196.95 217.3 197.15 213.8 197.4 211.2 194.6 208.65 191.8 208.55 187.6 208.45 183.45 210.85 180.3 213.25 177.2 216.75 176.95 220.25 176.75 222.8 179.55 225.35 182.35 225.45 186.5"/><path fill="#ffffff" d="M222.25 186.7 Q222.35 189.6 220.85 191.75 219.35 193.9 217.2 194.0 215.0 194.15 213.45 192.2 211.85 190.3 211.75 187.4 211.7 184.5 213.2 182.4 214.65 180.25 216.85 180.1 219.0 179.95 220.6 181.9 222.2 183.85 222.25 186.7"/><path fill="#f2984f" d="M239.75 186.15 Q237.65 182.65 238.0 178.9 238.35 175.15 240.95 173.4 243.55 171.65 246.85 172.9 250.2 174.15 252.3 177.7 254.4 181.25 254.05 184.95 253.65 188.7 251.05 190.45 248.45 192.2 245.15 190.95 241.8 189.7 239.75 186.15"/><path fill="#ffffff" d="M242.1 184.55 Q240.65 182.1 240.8 179.65 240.9 177.15 242.5 176.05 L246.3 175.9 Q248.5 176.85 249.9 179.3 251.35 181.75 251.25 184.25 251.1 186.7 249.5 187.8 L245.75 187.95 Q243.55 187.0 242.1 184.55"/><path fill="#f2984f" d="M200.0 172.35 Q200.0 178.5 196.8 183.5 193.6 188.5 189.05 189.45 184.5 190.4 181.3 186.75 178.1 183.05 178.1 176.95 178.1 170.85 181.3 165.85 184.5 160.85 189.05 159.85 193.6 158.9 196.8 162.6 200.0 166.25 200.0 172.35"/><path fill="#ffffff" d="M196.6 173.05 Q196.65 177.65 194.4 181.35 192.2 185.05 189.05 185.75 185.95 186.4 183.7 183.6 181.5 180.8 181.5 176.25 181.5 171.65 183.7 167.95 185.9 164.25 189.05 163.55 192.15 162.9 194.4 165.7 196.6 168.5 196.6 173.05"/><path fill="#f2984f" d="M245.95 155.85 Q251.9 159.75 255.65 164.2 258.8 167.95 261.4 173.55 259.45 174.85 256.9 174.75 254.3 174.65 251.75 173.15 247.75 170.7 245.8 166.15 243.9 161.55 245.25 157.45 L245.95 155.85"/><path fill="#ffffff" d="M249.5 157.1 L255.35 163.55 Q258.45 167.2 260.3 170.45 257.6 172.3 253.65 169.9 250.6 168.1 249.15 164.85 247.65 161.55 248.6 158.75 248.9 157.8 249.5 157.1"/><path fill="#f2984f" d="M144.45 87.35 L144.65 98.45 Q144.45 104.7 142.95 109.05 140.6 108.8 138.75 105.9 136.85 102.95 136.35 98.65 135.85 93.95 137.3 90.4 138.75 86.8 141.35 86.4 142.95 86.15 144.45 87.35"/><path fill="#ffffff" d="M142.3 90.35 L143.7 90.7 Q143.45 92.95 143.45 97.8 143.45 102.75 143.15 105.05 141.85 104.8 140.85 102.9 139.85 101.0 139.6 98.3 139.3 95.2 140.1 92.9 140.9 90.6 142.3 90.35"/><path fill="#f2984f" d="M111.95 92.15 Q114.25 92.3 115.5 95.3 116.85 98.55 115.8 102.9 114.9 106.75 112.8 109.65 110.7 112.55 108.4 113.1 109.9 109.2 111.0 100.2 111.8 92.15 111.95 92.15"/><path fill="#ffffff" d="M111.1 95.65 Q112.6 95.95 113.2 97.9 113.8 99.85 113.15 102.65 112.5 105.55 111.25 107.5 109.95 109.6 108.6 109.55 109.7 106.85 110.3 102.75 L111.1 95.65"/><path fill="#f2984f" d="M103.0 132.15 Q106.4 132.2 108.6 136.4 110.8 140.55 110.5 146.45 110.2 152.3 107.6 156.4 104.95 160.55 101.55 160.5 98.75 160.45 96.8 157.6 96.6 150.2 97.05 145.45 97.6 138.8 99.5 133.4 101.15 132.15 103.0 132.15"/><path fill="#ffffff" d="M106.5 146.6 Q106.1 150.55 104.4 153.25 102.65 155.95 100.65 155.85 98.65 155.7 97.55 152.85 96.4 149.95 96.8 146.0 97.2 142.05 98.9 139.4 100.6 136.7 102.6 136.8 104.6 136.9 105.75 139.8 106.9 142.65 106.5 146.6"/><path fill="#f2984f" d="M116.25 177.95 Q118.3 173.45 122.75 173.05 127.2 172.65 131.45 176.55 135.7 180.4 137.25 186.3 138.75 192.25 136.7 196.7 134.6 201.15 130.15 201.55 125.7 201.95 121.5 198.1 117.25 194.2 115.7 188.3 114.15 182.4 116.25 177.95"/><path fill="#d18344" d="M135.2 198.95 Q133.2 201.25 130.15 201.55 126.1 201.9 122.1 198.65 118.2 195.35 116.3 190.15 125.6 197.55 135.2 198.95"/><path fill="#ffffff" d="M119.75 181.25 Q120.95 178.3 123.7 178.05 126.45 177.8 129.1 180.4 131.75 183.0 132.8 186.95 133.8 190.9 132.6 193.85 131.4 196.8 128.65 197.05 125.9 197.3 123.25 194.7 120.6 192.1 119.55 188.15 118.55 184.2 119.75 181.25"/><path fill="#0d131a" d="M270.6 234.75 L272.05 232.2 Q274.95 238.7 275.95 246.55 277.15 255.9 273.65 258.15 267.8 261.95 252.5 244.75 L255.05 244.75 Q263.6 254.35 268.15 256.75 L272.85 256.9 Q275.35 255.3 274.5 248.25 273.7 241.65 270.6 234.75"/><path fill="#0d131a" d="M157.5 254.45 Q153.3 240.45 157.0 228.9 160.3 218.45 168.15 214.55 L168.8 215.85 Q161.45 219.55 158.45 229.5 155.1 240.45 159.15 253.9 161.5 261.8 167.6 266.3 173.0 270.2 179.25 270.25 184.75 270.25 189.0 266.85 193.2 263.5 194.9 258.0 L197.4 257.85 Q195.5 263.95 190.75 268.35 185.65 273.0 179.9 273.0 173.3 272.95 167.0 268.15 160.05 262.9 157.5 254.45"/><path fill="#0d131a" d="M262.9 217.95 L262.1 215.2 Q267.6 218.55 270.85 222.2 274.6 226.5 273.75 229.65 L273.45 230.65 Q271.9 236.7 270.45 239.85 267.9 245.35 264.35 246.15 L259.95 246.45 253.95 246.4 243.35 246.7 Q236.8 247.1 231.65 248.25 228.35 249.0 214.15 254.2 202.55 258.45 195.75 258.7 191.2 258.85 185.15 255.6 178.4 252.0 174.9 246.6 172.55 242.9 171.95 234.45 L171.8 225.55 Q171.5 222.2 169.45 218.55 167.55 215.2 166.0 214.45 164.45 213.65 164.45 213.05 164.4 212.45 166.7 213.3 169.25 214.3 171.25 217.55 173.4 221.05 173.7 225.4 L174.15 234.95 Q174.75 241.5 176.9 244.75 180.25 249.8 186.75 253.3 192.35 256.3 196.25 256.35 201.3 256.4 213.0 252.2 226.85 247.2 231.25 246.35 240.1 244.65 253.95 244.45 L263.35 243.95 Q266.1 243.3 268.4 238.05 269.65 235.25 271.2 229.6 L271.45 228.6 Q272.0 226.6 269.65 223.7 267.35 220.85 262.9 217.95"/><path fill="#0d131a" d="M250.95 201.25 Q251.6 204.7 253.35 207.65 255.45 211.35 258.7 213.25 L257.7 214.9 Q253.5 212.4 251.1 206.8 249.25 202.45 249.1 198.2 L250.1 199.75 250.95 201.25"/><path fill="#0d131a" d="M247.85 199.0 Q249.2 206.4 252.1 210.95 254.3 214.4 257.7 216.6 257.35 217.05 257.15 218.0 253.45 215.65 251.1 212.05 247.9 207.2 246.4 199.3 L247.85 199.0"/><path fill="#0d131a" d="M265.55 221.9 Q267.85 224.9 267.35 228.1 266.8 231.45 263.35 234.6 261.7 236.1 258.25 236.6 L250.1 237.2 239.75 237.75 Q233.0 238.3 228.45 239.55 L221.1 241.85 Q211.95 244.95 209.85 245.4 203.45 246.9 199.0 245.45 191.9 243.2 188.9 238.95 185.8 234.6 186.75 227.65 187.95 219.0 185.05 210.0 183.05 203.65 179.75 198.95 L182.3 199.55 Q185.15 203.6 187.35 211.1 189.95 219.95 188.85 226.15 186.6 239.25 199.6 243.4 203.85 244.75 209.85 243.6 213.35 242.95 220.65 240.5 L224.7 239.0 228.7 237.6 Q233.25 236.35 239.1 235.95 L248.5 235.55 256.75 234.95 Q260.45 234.4 261.85 233.1 266.4 229.0 265.65 225.45 265.9 224.05 265.55 221.9"/><path fill="#0d131a" d="M196.9 210.55 Q197.25 211.25 198.2 211.95 193.2 214.15 188.45 217.8 L188.1 215.8 Q192.35 212.7 196.9 210.55"/><path fill="#0d131a" d="M210.0 206.65 Q216.95 205.6 224.25 206.45 L225.35 208.65 Q217.2 207.35 209.6 208.55 L210.0 206.65"/><path fill="#0d131a" d="M244.8 213.5 Q252.05 218.1 255.1 224.2 L254.2 226.35 Q251.4 220.35 243.5 215.35 240.0 213.15 235.75 211.5 L237.0 209.65 Q241.15 211.25 244.8 213.5"/><path fill="#0d131a" d="M258.75 211.95 Q259.5 210.8 260.3 211.3 L261.5 212.8 Q264.95 218.25 266.25 223.45 L265.75 226.9 Q265.05 224.25 262.7 219.2 260.3 213.95 259.75 214.3 259.0 214.75 256.25 222.7 253.25 231.35 252.8 236.05 L250.9 236.25 250.2 236.2 Q252.2 227.65 255.15 219.85 257.45 213.85 258.75 211.95"/><path fill="#0d131a" d="M205.0 223.5 L206.05 222.1 Q206.7 221.95 208.3 224.2 215.35 234.55 217.4 242.05 L215.3 242.6 Q213.95 237.7 210.55 231.1 207.3 224.7 206.45 224.9 205.75 225.1 201.15 233.4 196.75 241.2 196.3 242.45 L194.6 241.3 Q194.9 240.4 199.65 232.35 L205.0 223.5"/><path fill="#0d131a" d="M194.1 87.75 Q179.15 88.85 164.9 97.2 153.35 103.95 147.55 111.7 145.3 114.8 145.5 115.9 146.3 119.35 160.55 132.75 176.0 147.3 185.5 151.35 L183.35 152.6 Q173.8 148.55 158.3 134.15 143.65 120.6 142.75 116.5 142.4 114.75 145.05 111.1 151.1 102.95 162.9 95.85 177.8 86.8 194.05 85.2 213.3 83.25 232.15 89.05 249.55 94.45 252.45 101.3 253.75 104.4 251.05 106.75 L248.15 109.35 Q233.05 122.7 228.25 127.5 217.0 138.75 215.55 144.8 L213.55 144.5 Q215.05 138.1 226.1 126.7 232.4 120.15 245.85 108.25 L248.75 105.7 Q250.7 103.95 249.8 101.85 247.3 95.95 231.35 91.35 213.75 86.3 194.1 87.75"/><path fill="#0d131a" d="M41.35 7.35 Q46.5 2.75 52.55 0.45 54.25 -0.15 54.85 0.1 55.55 0.35 55.25 1.8 54.45 5.35 52.65 9.1 49.3 15.95 43.2 22.05 49.35 23.85 53.15 27.4 57.0 30.95 57.95 35.8 L56.0 36.25 Q54.95 31.35 50.85 27.75 46.65 24.1 41.15 23.45 39.95 23.3 39.75 23.0 39.55 22.65 40.7 21.8 45.3 18.55 49.4 11.2 52.7 5.3 53.2 2.3 49.85 2.95 43.45 8.4 35.6 15.1 32.9 22.4 27.25 26.05 25.45 27.75 21.5 31.4 17.5 38.45 16.05 41.0 13.05 43.0 10.15 44.85 6.8 45.55 2.65 46.8 6.55 46.8 L14.9 47.3 Q18.55 47.95 21.75 50.1 L25.8 52.95 29.3 55.5 Q31.3 56.8 33.45 57.7 34.75 62.9 41.95 69.55 49.25 76.35 54.25 76.65 L54.35 76.05 Q54.35 72.65 51.65 67.8 47.95 61.15 41.35 57.8 L39.15 56.9 Q38.7 56.5 41.9 56.0 47.35 55.15 51.25 51.3 55.45 47.25 56.2 41.35 L56.25 40.9 58.2 40.9 58.15 41.6 Q57.35 47.55 53.4 52.2 49.45 56.7 44.4 57.65 50.15 60.85 53.3 66.2 56.05 70.9 56.25 76.15 56.35 78.15 55.45 78.55 L52.0 78.2 Q45.75 76.3 40.15 71.3 33.8 65.6 31.75 58.7 29.55 57.8 27.85 56.75 L24.65 54.55 20.7 51.7 Q17.9 49.85 14.4 49.25 L6.55 48.75 Q1.0 48.5 0.15 47.5 -1.0 46.15 6.7 43.7 13.45 41.65 15.85 37.5 19.95 30.25 24.25 26.25 26.85 23.8 31.3 21.3 34.95 13.1 41.35 7.35"/><path fill="#f2984f" d="M23.3 35.3 Q25.5 32.1 29.35 31.4 33.15 30.75 36.4 33.0 39.6 35.2 40.25 39.05 40.95 42.9 38.7 46.05 36.45 49.25 32.6 49.9 28.75 50.6 25.6 48.35 22.4 46.1 21.7 42.3 21.05 38.5 23.3 35.3 M36.85 34.7 Q34.4 32.2 31.0 32.2 27.55 32.2 25.15 34.7 22.7 37.15 22.7 40.65 22.7 44.2 25.15 46.65 27.55 49.15 31.0 49.15 34.4 49.15 36.85 46.65 39.25 44.15 39.25 40.65 39.25 37.15 36.85 34.7"/><path fill="#ffffff" d="M25.95 36.85 Q27.35 34.6 29.85 34.15 32.3 33.75 34.4 35.35 36.5 36.95 37.0 39.6 37.5 42.3 36.05 44.5 34.65 46.75 32.15 47.15 29.65 47.6 27.55 46.0 25.45 44.4 24.95 41.75 24.5 39.05 25.95 36.85 M34.55 36.65 Q33.05 35.0 31.0 35.0 28.9 35.0 27.45 36.65 25.95 38.3 25.95 40.65 25.95 43.0 27.45 44.7 28.9 46.35 31.0 46.35 33.05 46.35 34.55 44.7 36.0 43.0 36.0 40.65 36.0 38.35 34.55 36.65"/><path fill="#f2984f" d="M100.6 133.25 L100.75 132.15 Q101.9 131.65 103.0 131.65 105.4 131.75 107.4 133.8 109.3 135.8 110.4 139.5 111.45 143.25 111.25 147.1 110.95 153.05 108.05 157.1 105.2 161.05 101.55 160.95 99.15 160.95 97.15 158.85 L96.85 158.5 96.8 156.75 97.85 158.2 Q99.55 160.0 101.55 160.0 104.75 160.05 107.25 156.05 109.75 152.05 110.05 146.4 L110.05 145.2 Q110.05 141.85 109.15 139.0 108.3 136.2 106.7 134.45 105.0 132.65 103.0 132.65 101.75 132.65 100.6 133.25"/><path fill="#ffffff" d="M99.25 139.8 Q97.7 142.35 97.3 146.05 97.05 148.65 97.5 150.9 97.95 153.15 98.95 154.35 99.75 155.3 100.7 155.35 102.45 155.45 104.05 152.85 105.65 150.25 106.0 146.55 106.25 144.0 105.8 141.75 105.35 139.5 104.35 138.25 103.5 137.3 102.6 137.3 100.8 137.2 99.25 139.8 M96.8 146.0 Q97.25 141.75 98.85 139.0 100.5 136.2 102.65 136.3 104.0 136.4 105.05 137.65 107.05 139.95 107.05 144.7 L106.8 147.3 Q106.35 151.45 104.6 154.0 102.9 156.45 100.65 156.3 99.25 156.2 98.2 155.0 96.1 152.5 96.8 146.0"/><path fill="#f2984f" d="M135.9 98.7 Q135.35 93.7 136.8 89.9 138.3 86.0 141.1 85.6 142.0 85.5 143.7 86.35 L143.8 87.5 Q142.6 86.75 141.4 86.9 139.05 87.25 137.7 90.65 136.35 94.1 136.85 98.6 137.15 101.6 138.25 104.05 139.35 106.5 140.95 107.7 L142.15 108.35 141.8 109.25 Q140.95 109.0 140.35 108.45 138.65 107.15 137.45 104.5 136.25 101.9 135.9 98.7"/><path fill="#ffffff" d="M139.1 98.35 Q138.8 94.95 139.65 92.4 140.5 89.7 142.1 89.45 142.8 89.35 144.15 90.45 143.85 91.4 143.55 91.2 142.9 90.7 142.4 90.85 141.25 91.0 140.55 93.05 139.8 95.3 140.1 98.25 140.3 100.3 140.95 101.9 141.6 103.55 142.55 104.25 142.8 104.5 142.65 105.4 L141.95 105.0 Q140.85 104.2 140.1 102.4 139.35 100.6 139.1 98.35"/><path fill="#0d131a" d="M107.95 40.45 L107.7 41.8 Q86.55 32.65 55.85 36.4 54.55 36.55 54.45 36.0 54.4 35.45 56.0 35.25 85.4 31.85 107.95 40.45"/><path fill="#f2984f" d="M246.45 165.85 Q248.3 170.3 252.15 172.6 256.3 175.1 260.0 173.75 261.0 173.4 261.8 172.7 L262.3 173.55 Q259.95 175.3 256.9 175.2 254.1 175.1 251.35 173.5 247.2 171.0 245.3 166.3 243.35 161.65 244.75 157.45 245.05 156.45 246.15 154.9 L246.85 155.55 Q246.3 156.4 245.9 157.55 244.65 161.45 246.45 165.85"/><path fill="#0d131a" d="M143.2 91.6 Q142.4 76.95 132.8 61.4 L132.5 58.6 132.4 57.0 Q139.6 66.25 143.0 77.1 145.7 85.85 145.7 94.7 145.7 104.3 142.2 116.2 139.4 125.85 138.25 133.65 L134.75 136.35 Q136.4 126.3 139.6 115.6 143.7 101.75 143.2 91.6"/><path fill="#0d131a" d="M176.05 197.1 Q174.55 196.3 174.45 195.55 174.35 194.75 176.6 195.9 192.4 203.85 218.45 202.65 244.8 201.35 257.05 191.65 265.05 185.3 262.65 178.2 257.45 163.1 243.05 154.3 228.6 145.55 209.0 145.55 196.65 145.55 185.2 152.0 174.35 158.05 165.7 169.1 159.85 176.6 159.65 175.75 159.5 175.05 162.65 169.85 L163.35 168.8 164.3 167.7 Q169.65 158.8 178.8 152.65 191.6 144.1 209.1 143.4 227.85 142.6 243.35 152.25 258.95 161.95 264.5 178.1 267.35 186.25 258.65 193.1 245.35 203.65 219.8 205.15 193.55 206.7 176.05 197.1"/><path fill="#f2984f" d="M115.0 93.5 Q116.3 95.2 116.75 97.65 117.2 100.2 116.6 102.95 115.5 107.65 112.6 110.8 109.75 113.95 107.0 113.65 L107.4 112.75 Q109.7 112.8 112.05 109.9 114.4 106.95 115.35 102.8 115.75 100.95 115.75 99.4 115.75 96.05 114.25 94.1 113.25 92.75 111.9 92.65 L111.15 92.7 111.3 91.7 111.95 91.7 Q113.75 91.8 115.0 93.5"/><path fill="#f2984f" d="M115.3 58.85 Q114.45 56.7 113.15 55.1 111.8 53.5 110.3 52.9 L107.6 52.85 Q105.7 53.7 105.25 56.7 104.8 59.7 106.1 63.1 106.95 65.25 108.3 66.85 109.65 68.45 111.15 69.05 L113.8 69.1 Q116.25 68.05 116.25 63.8 116.25 61.35 115.3 58.85 M113.85 54.45 Q115.35 56.15 116.3 58.5 117.75 62.2 117.2 65.6 116.6 68.95 114.3 69.95 112.6 70.65 110.75 69.9 109.05 69.25 107.55 67.5 106.05 65.8 105.1 63.4 103.65 59.65 104.2 56.35 104.8 53.05 107.15 52.0 108.8 51.3 110.65 52.05 112.35 52.7 113.85 54.45"/><path fill="#d18344" d="M110.65 52.05 Q112.85 52.9 114.55 55.3 111.45 53.7 109.4 51.75 L110.65 52.05"/><path fill="#ffffff" d="M112.3 97.05 Q111.85 96.45 111.3 96.2 L111.5 95.3 Q112.55 95.6 113.1 96.55 114.15 98.15 114.15 99.95 L113.6 102.8 Q113.0 105.25 111.7 107.2 110.35 109.25 108.8 109.7 L109.1 108.5 111.15 106.3 Q112.2 104.65 112.65 102.55 113.5 99.0 112.3 97.05"/><path fill="#0d131a" d="M127.9 51.7 Q126.2 52.5 125.8 52.8 L124.1 51.35 124.25 48.4 127.9 51.7"/><path fill="#f2984f" d="M89.75 47.1 L88.5 48.2 87.35 47.65 89.0 46.5 Q90.35 44.95 90.2 42.65 90.05 40.4 88.5 38.8 86.85 37.05 84.7 37.15 82.7 37.25 81.6 38.65 80.35 40.05 80.4 42.1 80.4 44.1 81.6 45.7 L80.2 45.25 Q79.3 43.45 79.45 41.5 79.65 39.45 80.85 38.0 82.35 36.3 84.65 36.2 87.2 36.1 89.2 38.1 91.2 40.25 91.2 43.1 91.2 45.4 89.75 47.1"/><path fill="#ffffff" d="M88.4 42.9 Q88.4 41.3 87.3 40.15 86.2 39.05 84.9 39.15 83.75 39.15 82.95 40.05 82.1 41.05 82.2 42.5 82.3 43.95 83.3 44.95 84.35 46.1 85.7 46.0 86.85 46.0 87.65 45.05 88.4 44.15 88.4 42.9 M88.0 39.5 Q89.25 40.8 89.35 42.6 89.5 44.45 88.4 45.7 87.3 46.95 85.75 46.95 84.0 47.05 82.6 45.65 81.35 44.35 81.25 42.55 81.1 40.7 82.2 39.45 83.25 38.25 84.85 38.15 86.75 38.15 88.0 39.5"/><path fill="#dbdcdc" d="M89.0 41.05 Q86.85 39.95 85.1 38.2 86.8 38.2 88.0 39.5 L89.0 41.05"/><path fill="#d18344" d="M89.2 38.1 Q90.8 39.75 91.1 42.0 L90.0 41.55 Q89.6 40.0 88.5 38.8 86.85 37.05 84.7 37.15 L84.25 37.2 83.65 36.3 84.65 36.2 Q87.2 36.1 89.2 38.1"/><path fill="#0d131a" d="M106.3 62.25 Q113.4 74.2 112.95 90.95 112.6 104.6 107.95 115.25 101.35 130.6 99.25 144.95 96.15 165.75 103.15 181.1 109.65 195.35 119.35 203.95 129.1 212.55 143.05 216.25 152.4 218.75 156.5 221.0 158.8 222.3 160.2 224.25 L158.4 226.75 Q156.55 224.25 155.15 223.3 151.15 220.45 142.55 218.15 127.9 214.25 117.8 205.7 107.35 196.9 100.75 182.45 94.55 168.8 95.8 152.45 97.05 136.0 106.1 113.9 110.65 102.95 110.9 90.4 111.25 74.95 104.35 63.4 98.05 52.8 81.4 46.9 69.65 42.7 55.55 41.55 53.95 41.4 53.6 40.65 53.25 39.9 54.9 40.1 72.4 41.95 83.1 45.55 99.75 51.2 106.3 62.25"/><path fill="#0d131a" d="M163.9 96.8 L165.8 95.65 Q167.05 105.3 175.0 121.4 183.75 139.2 192.85 147.45 L192.2 148.15 Q182.85 139.65 173.7 122.3 165.15 106.15 163.9 96.8"/><path fill="#0d131a" d="M229.5 90.1 L231.25 90.4 Q223.35 98.6 216.9 115.15 210.75 130.9 209.5 144.6 L208.5 144.55 Q209.8 130.35 215.5 114.95 221.65 98.25 229.5 90.1"/><path fill="#0d131a" d="M203.35 216.25 Q204.1 216.25 206.4 212.1 L209.95 205.25 212.0 205.1 209.05 210.95 Q206.55 215.75 205.45 217.2 203.15 220.25 200.9 217.5 199.85 216.2 195.7 209.45 L191.75 202.95 193.95 203.2 Q202.05 216.25 203.35 216.25"/><path fill="#0d131a" d="M223.65 203.2 Q226.3 207.8 229.0 211.25 231.7 214.7 232.6 214.7 233.4 214.7 237.0 208.65 240.25 203.25 241.8 199.8 L243.95 199.95 Q239.4 210.35 234.1 216.35 232.9 217.75 231.9 217.45 L229.85 215.65 Q227.8 213.5 225.45 209.8 223.3 206.35 222.4 203.9 L223.65 203.2"/><path fill="#0d131a" d="M260.45 189.4 L262.35 188.85 Q260.1 203.2 257.2 207.4 L255.95 208.7 Q255.35 208.75 254.05 207.1 252.5 205.05 248.45 197.85 L249.75 197.2 Q253.1 203.75 255.2 205.85 256.4 204.85 257.75 201.1 259.35 196.5 260.45 189.4"/><path fill="#0d131a" d="M128.1 52.1 Q127.45 52.15 126.45 53.55 125.55 54.8 124.9 56.35 127.9 62.0 129.1 69.3 129.8 73.6 130.0 80.55 L130.0 81.15 Q131.55 74.4 131.55 67.5 131.55 62.4 130.75 58.15 130.05 54.3 128.95 52.7 128.55 52.1 128.1 52.1 M108.55 41.05 Q113.95 43.7 117.7 47.1 121.0 50.05 123.4 53.8 L123.45 53.05 Q123.45 47.3 121.6 42.05 119.7 36.65 117.25 35.75 L112.7 35.95 Q110.7 37.15 108.55 41.05 M97.05 28.15 Q93.35 27.2 89.8 29.0 86.35 30.75 84.05 34.6 L83.9 34.8 Q97.2 36.0 105.45 39.55 104.5 30.05 97.05 28.15 M82.8 34.7 L82.7 34.45 Q81.85 31.25 78.65 28.75 75.45 26.3 71.95 26.2 66.35 26.1 63.1 30.35 L61.0 34.7 Q72.45 33.9 82.8 34.7 M83.6 32.7 Q86.3 28.95 89.95 27.15 93.8 25.3 97.65 26.25 102.5 27.5 105.2 32.1 107.2 35.45 107.65 39.7 109.9 35.8 112.0 34.35 114.6 32.5 117.8 33.65 121.0 34.85 123.25 40.8 125.5 46.85 124.9 53.1 L124.9 53.25 Q128.05 48.4 130.7 51.5 133.25 54.5 133.4 64.85 133.55 76.35 129.95 86.95 128.6 82.6 128.55 80.55 128.3 72.2 126.7 66.2 123.9 55.35 116.7 48.15 107.05 38.5 86.1 36.1 73.8 34.65 58.75 35.85 58.45 33.1 61.35 29.5 65.2 24.6 72.05 24.75 75.5 24.8 78.9 27.15 82.15 29.5 83.6 32.7"/><path fill="#0d131a" d="M117.15 93.85 Q117.35 85.35 119.9 80.05 122.05 75.5 124.75 75.75 128.25 76.15 130.4 85.35 L128.9 91.7 Q126.85 99.35 124.2 105.9 122.65 106.4 121.45 107.5 127.05 94.8 128.95 86.25 127.8 81.4 126.45 79.15 125.55 77.65 124.85 77.6 123.5 77.45 121.8 81.1 118.8 87.4 118.8 97.35 118.8 102.8 119.8 109.9 119.2 111.1 118.75 113.1 116.95 101.7 117.15 93.85"/><path fill="#0d131a" d="M123.4 104.0 L124.95 104.05 Q126.15 104.45 126.9 105.6 129.45 109.65 130.6 118.4 131.95 128.5 130.9 141.55 130.25 142.3 129.65 143.8 L128.75 146.15 Q129.55 139.05 129.55 130.4 129.55 120.45 127.75 113.5 126.75 109.45 125.35 107.25 124.6 106.15 123.8 106.35 122.25 106.8 120.85 110.3 119.35 114.0 119.35 118.0 120.05 124.05 122.7 133.25 125.5 142.85 128.3 148.3 L127.9 151.0 Q124.75 147.0 121.45 135.15 118.7 125.15 117.9 118.1 L117.9 118.05 Q117.9 113.45 119.55 109.1 121.25 104.65 123.4 104.0"/><path fill="#0d131a" d="M162.4 168.2 L162.5 166.15 Q162.5 158.6 159.65 150.3 156.75 141.95 152.5 137.3 148.75 133.25 144.8 133.25 139.4 133.3 135.15 137.8 132.75 140.35 130.6 145.35 128.9 149.25 128.9 149.95 133.4 158.2 142.45 163.2 151.6 168.3 162.4 168.2 M162.15 150.7 Q165.05 160.5 164.35 168.75 L162.85 170.35 Q150.8 170.6 142.2 165.8 132.9 160.6 126.7 149.1 L128.75 144.0 Q131.3 138.35 133.6 135.9 135.9 133.45 139.05 131.9 142.25 130.35 145.15 130.35 149.55 130.35 154.3 135.45 159.15 140.75 162.15 150.7"/><path fill="#ffffff" d="M109.85 55.65 L108.45 55.6 Q107.35 56.15 107.15 58.1 106.95 60.05 107.8 62.2 109.0 65.45 111.1 66.25 L112.5 66.3 Q113.65 65.8 113.8 63.85 114.0 61.9 113.15 59.7 111.95 56.55 109.85 55.65 M108.0 54.8 Q109.0 54.35 110.2 54.8 112.7 55.85 114.15 59.4 114.9 61.35 114.9 63.15 114.9 66.3 112.95 67.15 111.95 67.6 110.75 67.15 108.25 66.1 106.8 62.55 105.8 59.95 106.15 57.7 106.45 55.45 108.0 54.8"/><path fill="#f2984f" d="M221.9 179.3 Q219.6 177.25 216.8 177.45 213.5 177.65 211.2 180.65 208.95 183.6 209.05 187.6 209.1 189.75 209.9 191.65 210.7 193.5 212.1 194.8 214.4 196.85 217.25 196.7 220.55 196.5 222.8 193.5 225.1 190.55 225.0 186.55 224.85 182.0 221.9 179.3 M216.55 176.45 Q219.85 176.2 222.5 178.55 225.8 181.55 225.95 186.4 L225.95 186.45 Q226.05 190.75 223.5 194.0 220.9 197.3 217.15 197.5 213.75 197.75 211.2 195.4 207.85 192.35 207.75 187.55 207.65 183.2 210.2 179.95 212.8 176.7 216.55 176.45"/><path fill="#ffffff" d="M219.7 181.65 Q218.45 180.55 216.85 180.6 214.9 180.7 213.55 182.7 212.2 184.7 212.25 187.4 212.35 190.65 214.35 192.45 215.55 193.65 217.15 193.55 219.1 193.4 220.45 191.5 221.75 189.6 221.75 186.95 L221.75 186.75 Q221.65 183.45 219.7 181.65 M216.8 179.65 Q218.75 179.5 220.35 180.95 222.6 182.95 222.75 186.7 222.85 189.75 221.2 192.05 219.55 194.35 217.2 194.5 215.25 194.65 213.7 193.2 211.4 191.1 211.3 187.4 211.25 184.35 212.85 182.1 214.45 179.8 216.8 179.65"/><path fill="#f2984f" d="M241.25 173.8 Q238.8 175.45 238.45 179.0 238.15 182.55 240.15 185.9 242.45 189.9 246.3 190.8 248.85 191.35 250.8 190.05 253.25 188.4 253.55 184.85 253.85 181.3 251.85 177.95 249.5 173.9 245.7 173.05 243.15 172.5 241.25 173.8 M242.45 189.8 Q240.65 188.4 239.4 186.35 237.55 183.25 237.55 179.8 237.55 177.6 238.35 175.85 239.2 173.95 240.75 172.9 243.1 171.35 246.0 172.05 248.0 172.45 249.8 173.85 251.55 175.25 252.8 177.35 255.0 181.05 254.6 184.95 254.2 188.9 251.45 190.75 249.0 192.3 246.2 191.65 244.2 191.2 242.45 189.8"/><path fill="#ffffff" d="M242.8 176.45 Q241.35 177.45 241.25 179.75 241.2 182.05 242.55 184.3 244.2 187.15 246.8 187.8 248.2 188.1 249.2 187.4 250.65 186.4 250.75 184.1 250.85 181.8 249.5 179.55 247.75 176.65 245.25 176.1 243.8 175.8 242.8 176.45 M241.9 184.8 Q240.5 182.5 240.5 180.0 240.5 177.0 242.45 175.65 243.8 174.75 245.65 175.15 248.6 175.8 250.5 179.05 252.05 181.65 251.9 184.3 251.7 187.0 249.95 188.2 248.55 189.15 246.75 188.7 243.8 188.05 241.9 184.8"/><path fill="#f2984f" d="M195.35 161.85 Q192.55 159.6 189.15 160.35 184.75 161.25 181.7 166.1 178.6 171.0 178.6 176.95 178.6 180.35 179.7 183.1 180.75 185.85 182.75 187.45 185.55 189.7 188.95 188.95 193.35 188.05 196.45 183.2 199.55 178.3 199.55 172.35 199.5 168.95 198.45 166.2 197.35 163.45 195.35 161.85 M188.95 159.2 Q193.25 158.3 196.9 161.75 200.9 165.55 200.95 172.3 200.95 178.6 197.4 183.85 193.9 189.1 189.15 190.1 184.55 191.1 180.85 187.4 177.0 183.55 177.0 177.1 177.0 170.85 180.6 165.5 184.2 160.2 188.95 159.2"/><path fill="#0d131a" d="M189.3 164.2 Q186.4 164.8 184.3 168.35 182.25 171.85 182.25 176.2 182.25 178.8 183.05 180.9 183.85 183.0 185.3 184.15 187.0 185.55 189.15 185.1 192.05 184.5 194.15 181.0 196.2 177.45 196.2 173.1 196.2 170.55 195.4 168.4 194.6 166.3 193.2 165.15 191.4 163.75 189.3 164.2 M183.4 167.85 Q185.85 163.9 189.2 163.2 192.4 162.55 194.85 165.5 197.35 168.55 197.35 173.2 197.35 177.95 195.05 181.8 192.7 185.65 189.4 186.35 185.95 187.05 183.4 184.25 180.85 181.4 180.85 176.5 180.85 171.8 183.4 167.85"/><path fill="#0d131a" d="M248.15 158.6 Q248.4 157.65 249.2 156.7 L249.95 157.3 Q249.35 157.95 249.05 158.9 248.2 161.55 249.6 164.65 251.0 167.8 253.9 169.5 257.1 171.45 259.9 170.45 L260.65 170.05 261.15 170.85 260.2 171.35 Q257.25 172.45 253.6 170.2 250.4 168.25 248.8 164.95 247.2 161.55 248.15 158.6"/><path fill="#f2984f" d="M117.5 176.7 Q116.05 178.8 115.7 181.85 115.35 184.9 116.2 188.2 117.65 193.9 121.75 197.7 125.85 201.45 130.15 201.05 133.45 200.75 135.4 197.95 137.35 195.2 137.35 191.0 137.35 188.8 136.75 186.45 135.25 180.7 131.15 176.95 127.05 173.15 122.8 173.55 119.45 173.85 117.5 176.7 M115.05 188.4 Q114.1 184.95 114.5 181.7 114.9 178.45 116.55 176.2 118.8 173.05 122.65 172.65 127.35 172.25 131.8 176.2 136.3 180.2 137.9 186.2 138.85 189.65 138.45 192.9 138.0 196.15 136.4 198.4 134.15 201.55 130.3 201.95 125.6 202.35 121.1 198.4 116.65 194.45 115.05 188.4"/><path fill="#d18344" d="M115.35 189.35 L117.05 190.7 Q119.0 195.5 122.65 198.45 126.4 201.4 130.15 201.05 132.85 200.8 134.65 198.85 L135.9 199.05 Q133.7 201.65 130.3 201.95 125.8 202.35 121.45 198.7 117.15 195.05 115.35 189.35"/><path fill="#ffffff" d="M120.85 180.3 Q119.9 181.65 119.65 183.7 119.45 185.75 120.05 188.05 121.05 191.8 123.55 194.3 126.05 196.8 128.6 196.55 130.45 196.4 131.5 194.8 132.5 193.45 132.7 191.4 132.9 189.35 132.3 187.05 131.35 183.3 128.8 180.8 126.3 178.3 123.75 178.55 121.9 178.7 120.85 180.3 M118.95 188.3 Q118.3 185.85 118.55 183.6 118.8 181.35 119.9 179.8 121.35 177.8 123.6 177.65 126.55 177.4 129.45 180.1 132.3 182.8 133.35 186.85 133.85 188.5 133.85 190.3 133.85 193.3 132.4 195.3 131.0 197.3 128.75 197.45 125.8 197.7 122.9 195.05 120.05 192.35 118.95 188.3"/><path fill="#dbdcdc" d="M122.1 194.15 Q125.7 196.3 129.0 197.4 L128.75 197.45 Q125.2 197.75 122.1 194.15"/><path fill="#0d131a" d="M191.5 174.7 Q191.5 175.55 191.1 176.1 190.7 176.7 190.1 176.7 189.55 176.7 189.1 176.1 188.7 175.5 188.7 174.7 188.7 173.9 189.1 173.25 189.55 172.65 190.1 172.65 190.7 172.65 191.1 173.25 191.5 173.85 191.5 174.7"/><path fill="#0d131a" d="M253.7 165.15 L253.55 164.2 Q253.65 163.7 254.0 163.55 L254.8 163.65 Q255.2 163.9 255.4 164.45 L255.55 165.45 255.05 166.05 254.3 165.95 253.7 165.15"/></g></svg>