<?xml version='1.0' encoding='utf-8'?>
<svg xmlns="http://www.w3.org/2000/svg" version="1.1" width="126px" height="193px" viewBox="-0.65 -1.2 126.0 192.6"><g><path fill="#0d131a" d="M43.7 122.7 Q50.6 124.8 57.8 129.85 63.4 133.7 67.05 137.9 71.15 142.65 71.15 145.95 L71.0 147.0 Q69.85 151.9 66.3 156.1 64.1 158.7 61.6 160.35 62.7 161.55 63.3 163.4 63.75 164.9 63.65 165.5 63.15 168.6 54.65 173.25 46.3 177.75 37.5 179.9 L31.7 180.8 Q28.2 181.0 27.45 180.2 26.0 178.75 28.1 174.1 L24.9 174.25 Q23.4 174.1 22.5 173.45 20.65 172.05 24.95 167.15 29.15 162.3 34.05 159.95 27.3 155.25 23.7 150.0 20.05 144.75 20.05 139.6 L20.05 139.2 Q20.2 133.95 24.25 129.0 27.0 125.7 30.95 123.05 35.45 120.1 43.7 122.7"/><path fill="#00b8ee" d="M69.85 146.7 Q68.65 151.95 63.4 157.05 60.8 159.6 58.35 161.15 L60.45 161.0 61.4 162.55 Q62.25 164.25 61.95 165.5 61.25 168.1 48.15 174.05 34.45 180.3 28.65 179.35 27.5 179.15 29.1 175.35 30.55 171.9 32.05 169.95 33.2 168.5 32.65 168.4 32.1 168.25 31.2 169.3 L28.45 172.6 26.1 172.45 23.7 172.15 Q23.85 170.5 27.5 166.8 31.35 162.85 35.35 160.6 L38.95 162.1 41.8 162.4 Q43.0 162.05 40.3 161.15 32.95 158.7 27.4 151.6 22.25 144.95 22.35 139.5 22.45 134.5 25.85 129.7 28.4 126.15 31.6 124.05 35.6 121.45 43.25 123.75 50.0 125.8 57.1 130.8 63.25 135.1 66.85 139.6 70.5 144.1 69.85 146.7"/><path fill="#00a0cf" d="M57.1 130.8 Q63.25 135.1 66.85 139.6 70.5 144.1 69.85 146.7 68.65 151.95 63.4 157.05 60.8 159.6 58.35 161.15 L60.45 161.0 60.9 161.6 61.6 162.95 61.95 164.15 62.0 164.25 62.0 164.9 61.95 165.5 61.8 165.8 61.7 165.9 61.1 166.6 58.25 168.65 58.0 168.85 57.3 169.25 57.05 169.45 55.15 170.55 54.9 170.65 52.65 171.85 52.5 171.95 51.35 172.55 51.2 172.6 49.95 173.2 49.9 173.25 48.55 173.85 48.5 173.9 Q42.45 176.65 37.45 178.15 31.65 179.85 28.65 179.35 L28.35 179.1 Q37.4 176.2 46.55 171.8 47.85 171.2 48.35 170.0 48.8 168.8 48.2 168.05 47.2 166.75 44.6 164.7 42.8 163.3 43.35 163.15 46.05 162.5 46.6 160.4 46.95 159.05 46.35 156.65 45.65 153.85 39.6 147.5 31.9 139.4 23.0 135.55 24.1 131.8 26.95 128.35 29.15 125.7 31.6 124.05 35.6 121.45 43.25 123.75 50.0 125.8 57.1 130.8"/><path fill="#0d131a" d="M40.7 102.55 Q42.3 103.1 43.05 104.65 44.65 107.7 42.95 112.65 41.25 117.55 37.85 119.65 32.35 123.05 27.8 124.55 21.65 126.6 15.8 125.85 14.05 125.65 13.3 124.3 12.5 122.8 13.6 120.75 15.95 116.35 22.75 110.85 29.5 105.35 34.95 103.3 38.45 101.8 40.7 102.55"/><path fill="#00b8ee" d="M41.8 112.35 Q40.2 116.85 37.25 118.65 32.85 121.4 25.25 123.2 17.7 124.95 15.55 123.8 L15.15 123.15 Q15.15 120.65 23.1 113.4 30.85 106.35 35.45 104.35 40.5 102.25 42.0 105.2 43.4 107.8 41.8 112.35"/><path fill="#00a0cf" d="M15.15 123.15 L15.15 122.95 Q22.1 121.0 29.55 117.6 36.85 114.25 42.25 110.65 41.7 113.1 40.35 115.3 38.95 117.6 37.25 118.65 32.85 121.4 25.25 123.2 17.7 124.95 15.55 123.8 L15.15 123.15"/><path fill="#0d131a" d="M62.4 82.5 Q62.95 81.4 63.65 81.4 L64.5 81.95 65.25 83.35 Q66.9 86.85 68.0 88.2 70.6 91.35 75.45 93.2 77.25 93.85 78.9 94.95 80.85 96.25 81.4 97.45 82.1 99.0 82.05 101.0 82.0 103.05 81.25 104.9 81.1 105.25 79.4 105.4 77.0 105.65 71.85 103.0 65.75 99.85 62.8 95.4 58.7 89.25 62.4 82.5"/><path fill="#adb2b4" d="M79.5 98.2 Q80.0 99.35 80.0 100.85 80.0 102.55 79.35 104.2 78.1 104.55 73.75 102.6 68.6 100.25 65.4 96.8 61.85 92.95 61.85 88.75 61.85 85.9 63.45 83.05 L63.65 82.75 64.2 83.85 Q65.75 87.2 67.5 89.25 70.7 93.0 75.9 94.95 78.55 95.95 79.5 98.2"/><path fill="#0d131a" d="M43.2 36.75 Q54.15 38.8 62.45 44.1 67.2 47.1 67.25 52.5 67.25 55.8 64.8 63.55 61.85 72.9 61.7 77.95 61.4 86.5 66.75 93.55 68.75 96.25 73.05 98.35 L81.25 101.6 Q89.1 104.6 93.45 107.15 100.55 111.4 104.4 117.3 107.8 122.55 107.7 128.05 107.65 132.8 104.95 138.0 101.15 145.35 92.6 150.15 83.6 155.15 72.15 155.65 60.15 156.15 49.1 152.05 37.85 147.9 32.45 140.75 28.75 135.85 27.8 130.05 26.8 124.05 29.0 118.15 34.85 102.7 33.35 95.2 31.75 87.3 20.35 79.0 10.3 71.7 11.1 60.15 11.5 54.0 16.3 43.55 18.4 38.8 24.85 36.9 32.3 34.65 43.2 36.75"/><path fill="#00b8ee" d="M61.8 45.1 Q66.1 47.8 66.05 52.7 66.05 55.75 63.7 63.2 60.75 72.6 60.55 77.85 60.25 86.9 65.8 94.25 68.05 97.2 72.2 99.45 74.7 100.8 80.35 102.95 87.95 105.85 91.65 108.05 97.9 111.8 101.65 117.55 105.05 122.8 105.65 127.9 106.2 132.95 103.9 137.5 100.4 144.2 91.4 148.65 82.35 153.05 71.15 153.55 59.75 154.05 49.55 150.1 39.3 146.15 34.1 139.25 30.65 134.7 29.85 129.3 29.1 123.9 31.0 118.1 L34.45 107.45 Q35.9 102.05 35.55 98.05 34.75 88.4 21.85 77.6 13.5 70.6 13.5 59.85 13.5 52.5 17.35 44.05 19.3 39.8 25.15 38.05 32.4 35.9 43.05 37.9 53.65 39.95 61.8 45.1"/><path fill="#00a0cf" d="M17.35 44.05 Q19.3 39.8 25.15 38.05 30.8 36.35 38.8 37.25 46.7 38.15 54.15 41.2 39.2 46.05 30.6 53.45 19.5 63.0 20.1 76.0 13.2 69.1 13.5 58.95 13.75 52.0 17.35 44.05"/><path fill="#00a0cf" d="M54.1 97.9 Q46.65 94.2 41.35 89.95 34.15 84.05 35.0 79.7 36.85 71.25 46.05 67.75 51.4 65.7 63.8 62.95 L63.7 63.2 Q60.75 72.6 60.55 77.85 60.25 86.9 65.8 94.25 68.05 97.2 72.2 99.45 74.7 100.8 80.35 102.95 87.95 105.85 91.65 108.05 97.9 111.8 101.65 117.55 105.05 122.8 105.65 127.9 106.2 132.95 103.9 137.5 100.4 144.2 91.4 148.65 82.35 153.05 71.15 153.55 L65.95 153.9 Q61.4 153.7 64.7 151.1 81.2 137.95 71.7 118.15 68.35 111.2 62.4 104.8 57.45 99.5 54.1 97.9"/><path fill="#0d131a" d="M44.2 132.35 Q45.3 130.65 46.2 130.75 46.5 130.75 48.7 131.9 L53.85 134.75 Q59.2 137.6 64.5 139.9 81.05 147.05 94.35 147.5 L94.15 148.8 Q89.55 150.65 82.95 152.4 75.5 154.35 71.2 154.55 62.7 154.9 54.55 152.75 46.4 150.6 40.35 146.45 L40.2 146.3 39.6 145.85 Q39.4 142.5 41.05 138.3 42.3 135.2 44.2 132.35"/><path fill="#fff095" d="M45.7 133.15 Q46.25 132.5 46.9 132.7 L49.95 134.4 Q59.35 139.85 65.75 142.45 78.7 147.75 92.15 148.7 87.25 150.5 81.6 151.9 75.05 153.6 71.15 153.75 62.9 154.1 54.9 152.0 46.9 149.95 41.0 145.9 41.4 142.0 42.9 138.25 44.15 135.05 45.7 133.15"/><path fill="#dccf81" d="M71.15 153.75 Q61.0 154.2 51.45 151.0 56.7 150.9 60.8 149.7 66.05 148.1 70.65 144.3 81.4 148.0 92.15 148.7 87.25 150.5 81.6 151.9 75.05 153.6 71.15 153.75"/><path fill="#0d131a" d="M31.6 60.5 L29.55 60.55 Q29.3 60.35 30.25 59.85 28.55 56.7 29.8 49.55 31.05 42.05 34.15 41.5 37.5 40.95 43.3 44.7 48.35 47.9 50.85 51.1 51.8 52.25 51.5 52.95 50.35 55.75 47.1 57.25 45.0 58.25 40.6 59.1 L31.6 60.5"/><path fill="#ffffff" d="M33.9 42.5 Q37.0 42.0 42.75 45.5 47.9 48.65 50.2 51.6 50.75 52.25 50.75 52.6 L50.75 52.65 Q49.65 55.2 47.05 56.45 45.05 57.4 41.1 57.95 34.65 58.7 31.95 59.4 30.5 55.75 31.3 49.65 32.1 43.55 34.15 43.2 L33.9 42.5"/><path fill="#0d131a" d="M41.85 48.05 Q43.55 48.6 43.75 52.05 43.85 53.7 43.4 55.05 42.95 56.3 42.35 56.4 41.7 56.5 41.1 55.3 40.5 54.0 40.35 51.9 40.3 50.35 40.75 49.1 41.2 47.85 41.85 48.05"/><path fill="#ffffff" d="M43.25 51.9 L43.05 52.85 42.45 53.3 Q42.1 53.35 41.85 53.0 L41.55 52.05 Q41.5 51.55 41.75 51.1 41.95 50.7 42.3 50.65 42.65 50.6 42.95 51.0 L43.25 51.9"/><path fill="#0d131a" d="M37.35 82.4 Q36.0 79.7 37.55 77.15 39.8 73.45 54.95 72.5 70.1 71.5 78.45 74.55 84.7 76.85 84.05 80.95 84.0 86.25 77.15 89.85 69.35 94.0 57.4 92.55 50.3 91.7 44.6 88.8 39.05 85.95 37.35 82.4"/><path fill="#fff095" d="M38.55 77.75 Q40.45 74.6 55.05 73.7 69.95 72.75 78.05 75.7 83.4 77.6 82.85 80.75 82.25 84.95 76.0 88.25 68.4 92.25 57.35 90.95 50.55 90.15 45.25 87.6 39.95 85.05 38.4 81.9 37.35 79.7 38.55 77.75"/><path fill="#dccf81" d="M76.0 88.25 Q68.4 92.25 57.35 90.95 52.1 90.25 47.95 88.7 54.55 89.5 58.05 87.8 64.35 84.75 66.5 73.65 73.8 74.15 78.05 75.7 83.4 77.6 82.85 80.75 82.25 84.95 76.0 88.25"/><path fill="#00b8ee" d="M64.5 107.25 Q68.05 102.25 73.75 103.25 79.95 104.3 79.85 112.75 79.7 121.15 71.8 128.3 64.6 134.8 60.0 133.8 56.45 133.1 58.8 122.3 61.0 112.3 64.5 107.25"/><path fill="#00a0cf" d="M79.85 112.75 Q78.7 119.45 74.0 125.4 69.7 130.9 64.65 133.0 71.0 124.9 70.45 115.8 70.0 107.25 64.7 106.05 66.65 103.55 69.6 102.35 72.5 101.15 75.05 101.75 81.4 103.2 79.85 112.75"/><path fill="#0d131a" d="M64.5 107.25 Q65.85 105.4 66.15 105.85 66.45 106.3 65.55 107.65 62.5 112.4 60.3 120.1 57.95 128.2 59.2 131.1 60.25 133.5 63.2 133.1 66.25 132.7 69.6 129.5 76.45 123.0 79.25 112.75 79.9 110.3 80.4 110.4 80.85 110.5 80.7 112.85 80.25 118.55 76.4 124.7 73.4 129.55 70.5 131.8 60.3 139.5 57.25 132.2 55.8 128.65 57.9 121.15 60.1 113.45 64.5 107.25"/><path fill="#0d131a" d="M92.5 111.4 Q96.95 110.3 102.6 113.6 108.85 117.3 112.55 124.5 118.3 135.8 117.25 147.25 116.4 156.55 111.75 162.75 119.5 167.7 122.6 176.0 125.35 183.3 122.9 186.3 121.55 187.95 115.6 183.75 116.25 187.9 115.45 189.45 114.4 191.4 110.8 190.45 105.55 189.1 99.6 184.05 94.2 179.55 91.55 175.1 87.1 167.65 91.7 163.1 85.4 157.25 82.35 149.1 79.9 142.6 79.9 136.1 79.9 130.4 81.35 125.95 83.05 120.4 86.2 116.3 89.3 112.25 92.5 111.4"/><path fill="#00b8ee" d="M114.7 146.5 Q113.95 157.6 109.25 163.55 107.75 165.5 108.8 165.3 109.7 165.1 111.0 163.95 117.7 168.4 120.45 175.6 122.3 180.45 121.85 183.5 121.7 184.8 119.35 183.8 L115.05 181.45 Q114.9 180.5 114.1 179.05 113.2 177.5 112.55 177.25 112.1 177.1 112.6 178.5 L113.65 182.1 Q114.75 187.15 113.75 188.3 L110.6 188.2 Q105.8 186.5 100.2 181.55 95.05 177.0 92.5 172.8 90.95 170.2 91.4 167.7 L92.7 163.95 Q95.75 166.35 95.95 165.6 L95.55 164.35 Q85.85 155.45 83.0 142.4 80.95 133.0 82.7 127.2 84.4 121.7 87.05 117.9 89.9 113.85 92.75 113.45 97.7 112.7 102.3 115.6 107.05 118.6 110.35 124.8 115.45 134.4 114.7 146.5"/><path fill="#00a0cf" d="M102.6 139.8 Q100.9 126.05 89.15 115.4 90.95 113.7 92.75 113.45 97.7 112.7 102.3 115.6 107.05 118.6 110.35 124.8 115.45 134.4 114.7 146.5 113.95 157.6 109.25 163.55 107.75 165.5 108.8 165.3 109.7 165.1 111.0 163.95 117.1 167.95 119.95 174.45 116.3 170.55 110.2 168.85 103.6 167.05 98.2 169.25 96.55 169.95 96.15 171.85 95.8 173.65 96.8 175.0 101.65 181.4 112.65 188.7 L110.6 188.2 Q105.8 186.5 100.2 181.55 95.05 177.0 92.5 172.8 91.05 170.35 91.4 168.0 91.45 167.35 92.55 164.4 L92.7 163.95 Q95.75 166.35 95.95 165.6 L95.55 164.35 92.7 161.45 Q104.4 154.4 102.6 139.8"/><path fill="#0d131a" d="M86.25 30.55 Q87.85 36.4 87.1 41.15 86.0 48.05 79.85 53.35 75.0 57.5 71.9 57.75 67.95 58.05 61.55 42.45 55.45 27.4 54.7 17.8 54.25 11.35 57.5 10.75 L57.15 10.1 Q72.0 7.3 80.0 17.95 84.4 23.9 86.25 30.55"/><path fill="#d3d9db" d="M85.2 38.7 Q85.2 44.5 80.5 49.85 76.15 54.8 72.45 54.7 69.35 54.6 63.05 40.9 56.6 26.85 55.9 17.7 55.45 12.3 57.75 11.9 63.5 10.55 68.15 12.0 73.45 13.75 77.85 19.3 80.9 23.05 82.9 27.95 85.2 33.55 85.2 38.7"/><path fill="#d3d9db" d="M85.2 38.7 Q85.2 44.5 80.5 49.85 76.15 54.8 72.45 54.7 69.35 54.6 63.05 40.9 56.6 26.85 55.9 17.7 55.45 12.3 57.75 11.9 63.5 10.55 68.15 12.0 73.45 13.75 77.85 19.3 80.9 23.05 82.9 27.95 85.2 33.55 85.2 38.7"/><path fill="#adb2b4" d="M72.75 43.6 Q71.9 45.0 72.3 46.65 72.75 48.3 74.2 49.15 78.05 51.25 83.45 45.55 81.45 49.45 78.15 52.15 74.9 54.8 72.45 54.7 70.95 54.65 68.2 50.5 65.55 46.5 62.8 40.4 L72.75 43.6"/><path fill="#0d131a" d="M52.15 1.35 Q58.05 3.6 63.45 10.35 70.4 18.95 73.35 28.2 76.35 37.3 74.1 43.0 70.4 52.4 68.15 55.1 65.35 58.4 60.95 57.25 55.95 55.9 39.05 41.8 21.45 27.1 21.55 22.85 L20.6 22.2 Q20.75 16.4 23.2 11.55 27.3 3.45 36.75 1.05 45.55 -1.2 52.15 1.35"/><path fill="#d3d9db" d="M72.25 42.65 Q68.65 52.15 66.8 54.5 64.8 57.0 61.25 56.1 56.85 54.95 40.0 41.0 22.65 26.6 22.75 22.9 22.95 17.05 25.45 12.45 29.35 5.25 38.1 3.05 46.05 1.05 52.75 4.25 57.4 6.45 61.8 11.45 67.95 18.4 71.1 26.65 74.7 36.1 72.25 42.65"/><path fill="#d3d9db" d="M72.25 42.65 Q68.65 52.15 66.8 54.5 64.8 57.0 61.25 56.1 56.85 54.95 40.0 41.0 22.65 26.6 22.75 22.9 22.95 17.05 25.45 12.45 29.35 5.25 38.1 3.05 46.05 1.05 52.75 4.25 57.4 6.45 61.8 11.45 67.95 18.4 71.1 26.65 74.7 36.1 72.25 42.65"/><path fill="#adb2b4" d="M58.1 38.05 Q61.15 45.15 65.3 47.2 68.4 48.75 70.45 47.25 67.9 53.5 66.15 55.2 64.4 56.9 61.25 56.1 57.0 54.95 40.75 41.6 23.9 27.75 22.8 23.35 35.1 21.5 46.15 27.15 55.5 31.95 58.1 38.05"/><path fill="#0d131a" d="M47.6 26.75 Q56.75 34.5 59.35 45.35 60.65 50.75 60.15 54.6 60.25 62.2 57.4 63.15 54.55 64.2 48.55 56.35 41.95 47.75 32.35 45.2 27.0 43.8 19.1 44.3 L17.1 44.4 Q16.0 45.55 14.75 50.55 13.45 55.65 13.05 60.6 L12.95 61.75 11.9 61.75 Q5.5 56.05 2.65 51.1 -0.65 45.4 0.15 39.85 1.3 32.15 5.8 26.15 10.35 20.15 17.15 17.4 22.95 15.05 31.0 17.35 39.5 19.85 47.6 26.75"/><path fill="#d3d9db" d="M56.95 43.9 Q58.55 48.75 58.55 52.5 L58.55 55.5 Q58.55 61.55 57.05 62.05 54.9 62.7 49.5 55.65 43.35 47.7 36.05 44.65 29.1 41.75 19.25 42.6 L14.15 43.4 Q11.8 43.95 11.35 44.4 L15.5 44.7 Q14.05 45.95 12.75 51.35 11.45 56.7 12.0 59.3 2.95 50.7 2.95 41.5 L3.15 38.7 Q4.15 32.0 8.6 26.65 12.25 22.25 16.75 20.15 22.55 17.4 30.05 19.25 37.95 21.15 45.75 27.6 53.7 34.2 56.95 43.9"/><path fill="#d3d9db" d="M56.95 43.9 Q58.55 48.75 58.55 52.5 L58.55 55.5 Q58.55 61.55 57.05 62.05 54.9 62.7 49.5 55.65 43.35 47.7 36.05 44.65 29.1 41.75 19.25 42.6 L14.15 43.4 Q11.8 43.95 11.35 44.4 L15.5 44.7 Q14.05 45.95 12.75 51.35 11.45 56.7 12.0 59.3 2.95 50.7 2.95 41.5 L3.15 38.7 Q4.15 32.0 8.6 26.65 12.25 22.25 16.75 20.15 22.55 17.4 30.05 19.25 37.95 21.15 45.75 27.6 53.7 34.2 56.95 43.9"/><path fill="#adb2b4" d="M42.95 46.25 Q48.2 49.2 52.5 48.2 56.5 47.2 56.85 43.7 58.55 48.65 58.55 52.5 L58.55 55.5 Q58.55 61.55 57.05 62.05 54.9 62.7 49.5 55.65 43.35 47.7 36.05 44.65 29.1 41.75 19.25 42.6 L14.15 43.4 Q11.8 43.95 11.35 44.4 L15.5 44.7 Q14.05 45.95 12.75 51.35 11.45 56.7 12.0 59.3 2.95 50.7 2.95 41.5 L3.15 38.7 3.55 36.8 Q4.05 39.75 6.95 41.1 L13.0 41.25 Q18.55 39.15 26.2 40.3 34.4 41.5 42.95 46.25"/><path fill="#00b8ee" d="M81.95 83.35 Q72.35 87.7 59.15 86.55 45.3 85.3 36.3 78.6 L37.1 61.25 Q44.15 54.95 54.6 52.15 68.5 48.4 82.1 53.45 91.4 56.9 90.45 68.7 90.0 73.55 87.7 77.6 85.35 81.8 81.95 83.35"/><path fill="#00a0cf" d="M90.45 68.35 Q90.1 73.3 87.8 77.5 85.4 81.8 81.95 83.35 73.4 87.2 61.65 86.7 49.45 86.15 40.3 81.15 55.75 84.8 71.8 80.9 88.25 76.9 90.45 68.35"/><path fill="#0d131a" d="M84.35 53.8 Q91.5 58.1 91.75 65.75 92.1 77.1 83.5 82.8 76.5 87.45 65.2 87.6 57.25 87.7 49.7 85.6 41.65 83.35 35.95 79.1 L36.65 78.15 Q42.3 82.35 50.15 84.45 57.45 86.4 65.2 86.25 77.1 85.95 83.65 80.25 89.8 74.95 89.5 66.6 89.3 59.5 82.9 55.55 77.1 51.9 67.85 51.8 58.15 51.65 48.6 55.1 40.45 58.05 37.95 61.1 36.8 62.6 36.0 62.55 35.15 62.45 36.7 60.8 40.4 56.75 48.2 53.5 57.65 49.65 67.6 49.8 77.85 49.95 84.35 53.8"/><path fill="#0d131a" d="M34.65 64.1 Q36.05 63.55 37.55 69.75 39.7 78.8 40.75 81.2 L40.75 81.45 40.55 81.6 Q37.9 83.1 35.4 81.9 33.1 80.85 32.05 78.35 30.75 75.35 31.85 70.0 32.95 64.8 34.65 64.1"/><path fill="#ffffff" d="M35.2 80.75 Q33.5 79.55 32.9 77.0 32.3 74.4 32.95 70.95 33.55 67.75 34.15 66.4 34.45 65.7 34.65 65.7 35.0 65.7 37.05 72.85 39.15 80.3 39.9 81.0 38.75 81.6 37.5 81.55 36.2 81.45 35.2 80.75"/><path fill="#dbdcdc" d="M39.9 81.0 Q37.4 82.2 35.3 80.8 36.8 80.25 36.35 76.45 L35.25 66.95 37.65 74.85 Q39.25 80.4 39.9 81.0"/><path fill="#0d131a" d="M25.15 62.15 Q25.4 67.9 22.95 71.6 20.8 74.75 18.1 74.85 15.0 75.0 12.5 71.55 9.9 68.0 9.7 63.0 9.5 57.9 11.65 53.95 13.85 49.9 16.9 49.8 19.95 49.65 22.45 53.35 24.95 57.1 25.15 62.15"/><path fill="#fff095" d="M20.8 71.6 Q19.5 73.05 17.9 73.15 15.35 73.25 13.4 70.1 11.5 67.0 11.3 62.5 11.1 58.05 12.8 54.8 14.45 51.5 17.0 51.4 19.5 51.3 21.45 54.4 23.35 57.5 23.55 62.0 23.65 64.95 22.95 67.5 22.2 70.1 20.8 71.6"/><path fill="#dccf81" d="M23.55 62.0 Q23.65 64.95 22.95 67.5 22.2 70.1 20.8 71.6 19.5 73.05 17.9 73.15 15.55 73.25 13.7 70.5 11.8 67.75 11.4 63.7 11.95 59.45 14.55 56.45 17.4 53.1 21.0 53.75 23.3 56.85 23.55 62.0"/><path fill="#0d131a" d="M16.55 61.55 L16.9 62.95 16.9 63.1 Q16.9 64.3 16.45 64.75 L16.25 64.85 16.0 64.75 Q15.5 64.3 15.4 63.0 15.35 61.8 15.85 61.2 L16.05 61.05 16.55 61.55"/></g></svg>