<?xml version='1.0' encoding='utf-8'?>
<svg xmlns="http://www.w3.org/2000/svg" version="1.1" width="262px" height="317px" viewBox="-1.25 -0.4 262.05 316.55"><g><path fill="#9ed8f5" d="M178.05 179.05 Q179.8 182.55 180.8 192.5 181.85 202.85 181.1 211.25 180.4 218.6 172.5 233.65 163.65 250.55 162.0 256.65 160.9 260.9 160.45 264.75 159.9 269.6 160.85 271.45 160.75 274.45 159.6 276.15 157.7 278.9 152.8 279.55 147.45 280.25 143.0 278.65 138.9 277.2 134.45 273.4 134.25 268.25 132.4 264.35 131.0 261.35 127.9 257.9 124.85 258.95 118.4 260.2 L108.7 261.6 Q98.95 262.25 92.55 267.75 88.45 271.2 85.05 277.55 82.85 281.6 78.2 283.65 74.25 285.35 70.0 285.15 66.55 284.95 64.4 282.95 62.75 281.45 61.25 278.1 60.2 275.65 60.1 271.2 L60.25 263.2 Q60.25 259.85 57.4 246.6 L51.8 221.05 Q64.0 212.05 75.85 202.4 88.85 191.85 94.8 185.95 L114.55 166.4 Q124.5 156.15 134.65 143.1 133.4 155.0 136.9 162.55 139.45 168.1 143.5 169.75 146.5 164.3 147.2 157.2 148.1 148.55 144.95 141.1 149.55 144.9 153.85 149.4 L160.0 155.85 Q162.3 158.05 168.7 166.7 L178.05 179.05"/><path fill="#9ed8f5" d="M167.75 82.9 Q168.65 87.85 167.2 97.7 165.65 108.5 162.6 113.4 158.55 119.9 154.95 119.5 151.95 119.2 149.5 114.2 149.55 111.3 150.2 109.55 150.7 108.2 151.85 106.95 155.3 103.3 159.95 96.25 164.45 89.4 167.75 82.9"/><path fill="#ffffff" d="M162.9 105.9 Q160.95 110.65 157.55 111.25 156.05 111.55 154.4 110.85 152.7 110.15 151.7 108.6 L151.8 107.15 Q154.95 103.9 157.95 100.05 L164.15 97.7 Q164.6 101.7 162.9 105.9"/><path fill="#9ed8f5" d="M107.15 83.8 Q111.35 69.75 121.3 63.65 125.5 68.4 128.45 77.95 132.3 90.6 131.95 106.8 128.6 111.4 120.4 112.05 111.8 112.8 108.7 107.7 102.85 98.15 107.15 83.8"/><path fill="#ffffff" d="M111.35 93.55 Q110.7 89.25 112.05 85.35 112.5 84.1 113.6 82.45 114.6 80.95 115.3 80.3 118.5 82.6 123.45 87.05 129.35 92.35 131.6 95.45 L130.75 97.65 Q128.2 101.7 123.9 103.05 118.95 104.6 115.0 100.95 112.05 98.2 111.35 93.55"/><path fill="#36a0da" d="M125.25 88.55 Q126.25 93.2 124.25 97.05 122.15 101.1 118.45 100.45 115.35 99.25 116.65 93.2 118.0 87.0 122.25 86.25 L125.25 88.55"/><path fill="#36a0da" d="M151.7 107.0 L156.4 101.85 159.7 99.7 Q160.1 104.25 158.85 107.0 157.7 109.45 155.0 110.8 154.4 110.65 153.3 110.0 L151.8 108.9 151.7 107.0"/><path fill="#9ed8f5" d="M154.05 82.05 Q156.05 80.65 162.2 73.7 161.75 80.1 158.5 87.1 155.15 94.25 150.1 99.4 149.35 91.3 147.65 88.7 L143.95 93.55 Q141.7 96.45 140.0 98.0 L139.25 83.45 Q138.5 73.35 137.35 69.05 138.8 70.15 140.25 72.9 L142.65 77.9 Q146.65 72.2 148.85 67.7 151.95 71.65 154.05 82.05"/><path fill="#f9bf3d" d="M162.0 47.85 Q166.45 45.25 171.2 43.95 178.3 42.0 178.1 51.8 177.85 64.05 168.5 82.1 160.55 97.45 151.85 106.95 150.25 108.7 149.8 111.7 L149.55 116.2 Q149.5 117.25 148.6 117.55 L146.65 117.45 Q142.65 119.4 138.75 118.7 135.35 118.05 133.4 115.8 131.85 114.05 131.4 111.65 131.2 110.25 131.35 108.1 132.95 91.95 128.8 78.6 125.2 66.95 118.25 60.35 115.95 58.1 114.1 58.7 112.6 59.2 110.85 62.0 108.75 54.7 108.6 45.55 108.45 36.55 110.2 29.55 111.35 25.2 113.3 24.5 115.3 23.7 118.55 26.6 129.95 36.6 135.05 57.6 138.4 71.25 140.15 97.7 141.5 96.65 143.75 93.8 L147.6 88.95 Q149.05 91.3 150.1 99.4 155.85 93.25 159.55 84.0 162.9 75.65 162.6 70.25 162.3 65.15 159.8 61.45 157.75 58.45 153.25 55.1 156.75 50.9 162.0 47.85"/><path fill="#ffffff" d="M113.75 179.9 Q117.05 180.2 118.55 185.3 119.9 189.75 119.1 193.7 118.05 198.75 116.25 201.85 113.6 206.5 109.8 205.8 105.95 205.1 105.1 199.85 104.45 195.85 105.55 190.95 106.45 186.8 108.75 183.45 111.25 179.7 113.75 179.9"/><path fill="#ffffff" d="M107.0 216.95 Q110.15 217.8 110.8 223.55 111.3 227.9 110.35 232.75 109.6 236.6 106.7 240.7 103.2 245.65 99.75 244.9 95.9 244.0 95.0 238.65 94.25 234.2 95.65 228.1 96.85 222.75 100.2 219.4 103.6 216.0 107.0 216.95"/><path fill="#ffffff" d="M160.3 240.2 Q157.5 239.55 157.0 234.25 156.6 229.85 157.75 224.7 158.75 220.2 161.05 216.85 163.5 213.25 165.6 213.75 168.3 214.4 169.5 219.2 170.45 223.25 169.95 227.15 169.5 230.9 166.5 235.6 163.1 240.8 160.3 240.2"/><path fill="#ffffff" d="M165.9 177.75 Q168.7 177.4 170.85 182.3 172.5 186.05 172.85 189.75 173.15 193.5 172.3 197.2 171.15 202.2 168.45 202.55 165.7 202.95 163.7 198.7 162.1 195.3 161.4 189.85 160.8 185.1 162.05 181.65 163.3 178.05 165.9 177.75"/><path fill="#9ed8f5" d="M249.85 198.15 Q254.65 205.5 257.2 211.35 259.7 217.15 258.85 218.95 257.1 222.8 234.6 218.8 211.4 214.7 198.7 207.4 212.2 212.25 222.45 211.1 232.4 209.95 234.95 203.8 239.1 193.7 223.75 169.7 237.9 180.05 249.85 198.15"/><path fill="#005b96" d="M163.7 160.55 Q153.25 148.2 144.95 140.95 147.95 147.8 146.95 157.55 146.1 166.3 143.35 169.6 138.4 168.15 136.05 161.4 133.6 154.15 135.05 143.25 121.9 159.45 104.25 176.85 90.8 190.1 77.75 201.15 62.35 214.1 42.15 227.35 18.05 243.15 2.35 248.85 6.6 239.5 20.35 225.65 34.4 211.5 50.2 201.0 53.2 180.45 62.3 162.85 64.95 157.6 70.05 149.3 L77.15 137.0 Q82.55 126.55 94.5 91.75 98.75 79.25 105.15 68.85 111.35 58.65 114.65 58.35 116.3 58.25 121.3 63.65 110.45 70.25 106.6 84.3 103.0 97.6 107.95 106.7 111.0 112.25 119.85 112.05 128.35 111.8 131.75 107.0 130.45 116.1 136.6 118.25 141.2 119.8 146.65 117.45 148.15 118.15 148.9 116.95 149.55 115.95 149.5 114.2 152.15 121.0 157.25 119.15 162.35 117.3 164.65 108.6 160.75 127.1 162.0 133.5 177.65 140.4 192.2 148.5 210.95 158.95 222.8 168.75 240.8 194.9 234.55 204.85 231.95 209.0 225.95 210.65 L212.5 211.05 Q195.35 208.4 181.2 195.45 L180.25 187.55 Q179.7 185.1 177.35 179.2 174.1 172.85 163.7 160.55"/><path fill="#005b96" d="M151.75 73.5 Q150.75 70.7 149.0 67.35 L146.4 73.25 Q144.45 77.25 142.85 79.5 L140.15 73.65 Q138.85 70.9 137.6 69.7 137.0 65.35 135.45 59.45 134.05 53.9 132.5 49.65 138.3 49.4 144.05 51.05 150.35 52.85 155.3 56.6 163.75 62.95 161.9 74.25 L158.5 77.9 154.05 82.05 Q153.05 77.1 151.75 73.5"/><path fill="#f9bf3d" d="M84.55 278.05 Q83.55 280.7 85.2 284.9 L88.4 291.25 91.9 297.75 Q94.1 302.05 94.45 303.95 94.85 306.05 93.45 306.4 92.25 306.75 90.8 305.65 L85.95 302.7 Q82.5 300.75 79.6 299.3 77.15 303.35 72.6 308.2 67.95 313.15 66.6 313.05 65.35 313.0 63.75 307.65 62.45 303.3 61.65 298.35 55.1 301.55 47.25 306.2 45.35 307.3 44.7 306.5 44.1 305.75 44.65 303.95 45.75 300.4 49.1 293.65 52.05 287.7 54.0 284.6 L57.1 279.75 Q58.6 277.05 59.7 273.5 61.5 284.95 71.0 285.35 74.9 285.5 78.65 283.55 82.55 281.5 84.55 278.05"/><path fill="#f9bf3d" d="M134.45 273.4 Q138.55 277.55 144.55 279.05 L153.3 279.5 Q160.65 278.3 160.7 271.15 161.5 273.0 165.25 274.55 181.95 281.45 186.45 285.6 189.05 288.0 183.45 288.45 L187.95 292.95 Q188.85 293.95 188.1 294.4 L185.7 294.35 Q181.45 293.2 175.7 292.45 L178.25 295.7 180.2 298.8 Q180.8 300.0 180.35 300.5 L178.2 300.4 Q169.9 297.0 155.7 292.95 145.1 289.95 136.6 288.05 133.6 287.35 132.95 284.95 132.55 283.35 133.15 281.15 133.85 278.65 134.45 273.4"/><path fill="#004a7e" d="M181.3 195.6 Q180.0 186.5 178.05 179.45 176.0 171.9 172.7 164.7 L165.25 145.3 Q180.25 152.2 198.45 163.7 218.3 176.2 234.0 189.25 237.75 200.9 234.0 205.9 231.6 209.15 225.9 210.5 216.7 212.65 201.25 208.85 189.8 203.4 181.3 195.6"/><path fill="#88bbd5" d="M257.9 212.9 Q260.0 217.35 258.8 219.15 257.55 221.0 252.05 220.65 221.6 218.5 201.25 208.85 216.7 212.65 225.9 210.5 231.6 209.15 234.0 205.9 237.75 200.9 234.0 189.25 248.8 201.55 257.9 212.9"/><path fill="#88bbd5" d="M123.0 237.85 Q144.9 235.25 160.6 227.55 177.7 219.15 181.5 207.3 180.7 213.15 176.65 223.7 172.5 234.5 168.1 241.85 163.1 250.9 161.1 260.2 160.2 264.3 160.1 266.45 159.9 269.5 160.85 271.65 160.7 275.55 157.55 277.9 154.65 280.05 151.0 279.8 145.95 279.55 143.15 278.7 138.2 277.2 134.5 273.25 134.0 263.5 128.05 257.75 118.1 260.45 108.0 261.5 102.3 262.05 98.6 263.85 91.45 267.3 85.35 276.4 82.05 281.25 78.8 283.4 74.8 286.1 70.0 285.4 65.0 284.7 62.2 280.15 59.6 275.9 60.25 270.5 61.05 264.3 58.05 248.95 54.25 231.2 52.95 223.5 62.35 233.15 82.55 236.95 101.3 240.45 123.0 237.85"/><path fill="#d6a535" d="M84.5 278.7 Q83.75 281.8 86.75 288.2 88.45 291.75 92.0 298.1 84.35 290.25 71.1 289.55 59.9 289.0 49.3 293.3 50.75 289.85 54.7 283.55 58.6 277.4 59.95 273.95 60.9 279.3 63.9 282.25 66.6 284.95 70.7 285.4 74.35 285.8 78.4 283.65 82.0 281.75 84.5 278.7"/><path fill="#d6a535" d="M160.85 271.65 Q161.85 273.0 166.8 275.1 169.55 276.3 174.8 278.25 166.9 277.4 159.3 281.85 151.75 286.25 151.4 291.6 146.3 289.8 139.25 288.4 135.75 287.8 134.9 287.3 132.35 285.85 133.05 282.1 134.3 275.95 134.5 273.25 138.95 277.35 144.85 279.05 L154.4 279.4 Q160.2 277.6 160.85 271.65"/><path fill="#004a7e" d="M29.2 253.95 Q12.45 253.65 2.85 248.95 16.65 242.9 29.2 235.8 43.1 227.9 52.05 220.65 52.45 224.15 58.25 251.15 44.05 254.2 29.2 253.95"/><path fill="#0d131a" d="M120.6 90.6 Q121.3 89.8 121.9 90.0 122.55 90.2 122.65 91.45 122.75 92.6 122.3 93.95 121.8 95.65 121.05 96.5 120.4 97.25 119.85 97.1 119.2 96.9 119.1 95.7 119.0 94.55 119.4 93.05 119.85 91.45 120.6 90.6"/><path fill="#ffffff" d="M121.25 87.55 Q121.8 87.65 122.05 88.4 122.35 89.1 122.1 89.95 121.9 90.8 121.35 91.35 120.8 91.85 120.25 91.75 119.7 91.6 119.45 90.9 119.2 90.2 119.4 89.3 119.65 88.45 120.15 87.9 120.7 87.4 121.25 87.55"/><path fill="#0d131a" d="M156.8 105.75 L155.8 107.45 Q155.15 108.15 154.7 107.95 154.25 107.75 154.25 106.85 154.2 105.95 154.55 104.95 154.95 103.85 155.55 103.1 156.2 102.25 156.65 102.4 157.15 102.6 157.15 103.7 L156.8 105.75"/><path fill="#ffffff" d="M158.65 103.05 Q158.25 104.7 157.2 104.45 156.1 104.2 156.35 102.65 156.45 102.0 156.9 101.55 157.4 101.05 157.9 101.15 158.35 101.2 158.55 101.8 L158.65 103.05"/><path fill="#0d131a" d="M118.45 193.25 Q118.85 189.7 118.0 185.95 116.85 181.15 114.0 180.65 111.75 180.3 109.5 183.4 107.25 186.5 106.1 191.55 104.85 197.1 106.05 201.1 107.2 205.1 110.15 205.45 113.05 205.75 115.6 201.55 117.85 197.8 118.45 193.25 M114.25 179.35 Q117.75 179.9 119.3 184.5 120.65 188.55 120.0 193.6 119.4 198.8 116.7 202.7 113.7 207.15 109.95 206.7 106.4 206.3 104.75 202.5 102.85 198.2 104.45 191.2 105.8 185.1 108.6 181.9 111.25 178.85 114.25 179.35"/><path fill="#0d131a" d="M51.0 244.0 Q52.35 243.35 52.55 243.7 52.75 244.1 51.45 244.85 43.55 249.45 27.45 251.05 11.2 252.65 2.65 249.55 L2.95 247.9 Q11.05 250.85 27.05 249.5 42.7 248.1 51.0 244.0"/><path fill="#0d131a" d="M159.8 80.65 Q164.3 65.75 156.5 58.85 147.4 50.8 132.85 50.95 L132.35 48.95 Q147.6 48.45 157.85 57.6 164.6 63.6 162.6 75.9 160.5 88.65 149.9 100.95 L149.7 99.3 Q156.25 92.45 159.8 80.65"/><path fill="#0d131a" d="M107.75 43.15 Q107.9 33.15 109.65 28.2 111.85 22.15 116.6 23.9 122.3 26.0 129.5 39.6 140.65 60.7 140.65 100.6 140.65 102.2 140.2 102.25 139.75 102.25 139.7 100.6 138.9 81.6 136.05 66.7 133.0 50.8 127.9 41.05 121.85 29.45 117.25 26.65 113.25 24.15 111.55 28.8 109.9 33.4 109.6 42.85 109.3 53.45 111.2 61.2 L110.2 63.0 Q107.65 54.6 107.75 43.15"/><path fill="#0d131a" d="M149.0 95.95 Q148.45 92.05 147.6 89.85 L144.0 94.65 140.35 99.15 140.2 97.0 Q142.35 94.9 146.65 88.75 147.45 87.75 147.75 87.75 L148.5 88.75 Q151.05 93.7 150.35 103.15 150.25 104.65 149.85 104.65 149.45 104.6 149.5 103.1 149.6 100.0 149.0 95.95"/><path fill="#0d131a" d="M148.8 66.25 Q149.3 66.2 150.1 67.5 152.95 72.25 154.5 80.8 L158.4 76.95 162.1 73.05 161.85 75.55 Q156.05 81.5 154.65 82.45 L153.7 82.9 Q153.45 82.8 153.25 81.85 152.05 74.65 149.0 68.85 145.65 76.35 143.65 79.65 L142.75 80.65 Q142.45 80.6 142.1 79.55 140.2 74.15 138.2 71.2 L137.5 67.65 Q139.05 69.55 140.7 72.8 L143.0 78.1 145.35 73.25 147.85 67.5 Q148.4 66.3 148.8 66.25"/><path fill="#0d131a" d="M145.9 117.2 Q146.65 117.55 147.4 117.85 144.6 119.2 141.4 119.55 137.85 119.95 135.5 118.85 132.45 117.35 131.2 114.05 130.0 110.9 130.9 107.25 L132.05 108.95 Q131.6 110.8 132.7 113.25 133.95 116.0 136.3 117.2 138.05 118.15 141.05 118.15 144.0 118.15 145.9 117.2"/><path fill="#0d131a" d="M105.35 87.45 Q106.95 79.55 110.9 72.95 115.15 65.95 120.75 62.8 L121.6 64.1 Q116.7 66.95 112.75 73.55 109.0 79.8 107.35 87.25 105.65 94.85 106.8 100.75 108.1 107.25 112.55 109.8 116.85 112.25 123.4 110.7 129.9 109.1 131.9 105.25 L131.9 107.4 Q129.8 111.0 123.4 112.4 116.65 113.9 111.65 111.1 106.85 108.45 105.25 101.65 103.75 95.4 105.35 87.45"/><path fill="#0d131a" d="M167.3 82.9 L168.75 79.9 Q169.6 89.9 167.4 101.15 165.05 113.0 160.75 117.4 157.0 121.3 153.15 119.65 149.7 118.15 149.6 114.85 L149.85 113.6 Q151.15 117.5 153.9 118.4 156.8 119.35 159.6 116.35 163.4 112.3 165.75 101.35 167.9 91.15 167.3 82.9"/><path fill="#0d131a" d="M110.45 92.35 Q110.05 85.35 114.6 80.05 L115.6 80.95 Q111.05 86.7 111.95 93.05 112.7 98.3 116.1 100.85 119.55 103.35 124.0 102.15 129.0 100.8 130.9 95.25 L131.8 96.3 Q130.3 101.7 124.8 103.4 119.6 104.95 115.55 102.25 110.85 99.15 110.45 92.35"/><path fill="#0d131a" d="M114.85 80.85 Q113.0 79.3 113.25 78.8 113.55 78.3 115.6 79.75 118.95 82.1 123.35 86.05 128.7 90.85 131.9 94.85 L131.8 96.9 Q128.75 92.9 122.2 87.1 L114.85 80.85"/><path fill="#0d131a" d="M115.85 97.4 Q115.35 94.8 116.5 91.4 117.3 89.2 119.0 87.45 120.65 85.75 121.95 85.75 L122.8 86.7 Q121.25 86.6 119.75 88.15 118.4 89.6 117.6 91.7 116.75 94.3 116.9 96.55 117.15 99.1 118.7 99.75 120.35 100.45 122.05 98.95 123.65 97.55 124.55 94.9 125.15 93.2 125.1 91.25 125.05 89.25 124.4 88.2 L125.5 88.7 Q126.05 89.8 126.1 91.65 126.15 93.6 125.6 95.3 124.65 98.35 122.6 100.0 120.45 101.7 118.45 100.8 116.4 99.95 115.85 97.4"/><path fill="#0d131a" d="M163.85 97.05 Q165.65 96.5 165.75 97.05 165.85 97.55 164.2 98.25 158.1 100.85 156.35 101.85 L157.9 99.35 Q160.2 98.15 163.85 97.05"/><path fill="#0d131a" d="M163.55 98.2 Q163.4 97.7 163.9 97.6 L164.55 97.7 Q164.8 102.85 163.0 106.9 161.0 111.45 157.3 111.85 155.45 112.1 153.7 111.2 151.85 110.2 151.2 108.55 L151.85 107.7 Q152.65 109.15 154.05 109.9 155.5 110.7 157.2 110.5 159.5 110.3 161.35 107.4 163.55 103.9 163.55 98.2"/><path fill="#0d131a" d="M152.7 106.95 Q152.2 108.15 152.9 109.45 L151.5 108.45 152.0 107.05 152.7 106.95"/><path fill="#0d131a" d="M159.05 100.2 L160.1 99.7 Q160.5 103.45 159.25 106.65 157.85 110.15 155.2 110.8 L154.15 110.3 Q156.75 109.95 158.2 106.65 159.55 103.6 159.05 100.2"/><path fill="#0d131a" d="M181.25 196.75 Q181.2 195.35 181.3 194.8 196.9 207.95 220.15 214.5 236.75 219.15 254.2 219.75 259.6 219.95 257.7 214.8 247.7 188.25 213.2 163.35 191.05 147.35 162.1 134.2 L161.95 132.45 Q191.45 144.9 214.7 161.6 249.15 186.35 259.4 214.2 260.8 217.95 259.75 219.65 258.6 221.4 254.5 221.4 236.75 221.25 220.0 216.75 196.7 210.4 181.25 196.75"/><path fill="#0d131a" d="M220.0 167.2 L223.95 170.0 Q231.8 179.45 235.25 190.2 238.85 201.6 234.7 206.45 230.2 211.75 221.15 212.25 210.35 212.85 196.05 206.2 L193.25 204.0 Q208.1 210.75 219.4 210.55 229.2 210.35 233.2 205.35 237.05 200.5 232.35 187.75 227.85 175.55 220.0 167.2"/><path fill="#0d131a" d="M163.9 109.1 L167.15 101.4 165.15 110.75 Q163.55 117.55 162.95 121.6 161.65 130.8 163.55 137.65 164.65 141.4 168.6 151.7 L175.55 169.5 Q183.85 190.8 182.75 206.3 181.75 220.45 172.1 236.65 166.6 245.85 163.65 254.1 160.4 263.0 161.0 268.55 161.2 270.45 161.75 271.3 162.45 272.45 164.15 273.1 174.4 277.15 178.75 279.3 184.85 282.25 187.65 285.15 190.15 287.7 187.45 288.55 L183.75 288.85 182.4 287.55 185.95 287.45 186.55 287.05 186.25 286.35 Q181.6 281.7 163.5 274.75 161.25 273.85 160.45 272.45 159.85 271.45 159.45 268.8 158.55 262.8 161.8 253.65 164.6 245.65 170.25 235.9 179.2 220.35 180.3 205.95 181.55 189.95 173.85 169.9 L167.1 152.6 Q163.35 142.85 162.05 138.05 161.15 134.8 160.95 130.45 160.75 126.0 161.35 121.8 162.1 116.85 163.9 109.1"/><path fill="#0d131a" d="M175.6 45.3 Q174.25 44.1 170.95 44.95 166.65 46.05 162.45 48.55 157.4 51.55 154.05 55.85 L152.6 55.05 Q156.1 50.55 161.55 47.0 166.45 43.8 170.6 42.8 174.95 41.7 177.05 43.6 179.05 45.35 179.2 49.85 179.5 60.95 169.65 80.9 160.4 99.6 151.5 108.35 151.0 108.85 150.75 109.6 L150.4 111.15 Q150.25 111.85 150.2 113.95 L149.8 117.0 Q149.5 118.1 148.8 118.3 L146.7 118.1 Q140.85 116.5 135.85 113.2 131.2 110.1 130.65 107.95 132.25 95.15 128.7 81.8 125.1 68.15 118.05 61.4 116.25 59.7 115.0 59.8 113.7 59.9 111.6 62.0 102.8 70.55 94.1 95.15 L86.75 116.5 Q82.2 129.2 77.95 137.85 75.1 143.75 70.8 150.85 L64.7 161.35 Q59.0 172.4 55.95 181.45 52.4 192.05 51.9 201.3 L51.65 201.6 Q39.75 208.9 26.1 222.05 12.65 235.0 4.1 247.3 3.6 248.05 3.6 248.6 3.6 249.05 4.0 249.2 13.65 252.95 31.3 252.95 48.0 253.0 58.4 249.95 L58.75 252.25 Q46.9 255.35 31.05 255.25 13.65 255.1 3.6 250.9 2.05 250.25 1.7 249.5 1.15 248.45 2.35 246.6 11.55 232.4 24.35 220.05 36.1 208.7 48.85 200.9 49.9 190.2 53.1 180.65 56.1 171.8 61.95 160.9 63.55 157.9 69.3 148.75 74.35 140.7 76.35 136.45 81.25 126.2 85.8 113.4 L92.7 93.0 Q100.4 70.75 110.05 60.6 112.75 57.75 115.05 57.8 117.0 57.85 119.4 60.2 127.0 67.5 130.4 81.85 133.5 94.6 132.25 107.65 133.45 110.1 138.95 113.25 143.45 115.85 146.8 116.9 L148.25 117.1 Q148.55 116.9 148.65 116.2 L148.85 113.2 149.05 110.65 Q149.55 108.25 150.6 107.2 159.15 98.7 168.0 80.45 177.35 61.05 177.0 50.1 176.9 46.45 175.6 45.3"/><path fill="#0d131a" d="M135.75 140.2 L135.0 144.05 Q115.2 172.05 72.5 206.15 30.3 239.8 3.55 249.45 L3.0 248.1 Q35.3 235.2 78.55 198.4 116.35 166.25 135.75 140.2"/><path fill="#0d131a" d="M54.7 242.05 Q51.2 227.05 50.65 221.35 L52.85 219.5 Q53.25 222.95 56.85 239.75 60.4 256.45 60.8 260.15 61.75 269.0 60.55 273.9 59.7 277.45 56.25 282.8 52.5 288.7 50.55 292.3 47.3 298.45 45.5 304.4 45.1 305.65 45.5 305.85 45.95 306.05 47.3 305.25 L53.8 301.4 Q59.0 298.4 61.75 297.25 L62.25 299.1 Q59.5 300.25 54.55 303.2 L48.3 307.0 Q45.2 308.8 43.85 307.8 42.55 306.8 43.45 303.7 45.2 297.8 49.0 291.3 L55.1 281.6 Q58.0 277.1 58.8 272.1 59.55 267.4 58.7 260.45 58.35 257.55 54.7 242.05"/><path fill="#0d131a" d="M87.3 286.9 L92.3 296.25 Q95.2 302.0 95.3 304.65 95.35 307.0 94.25 307.6 93.2 308.15 91.3 307.05 L85.85 303.5 Q81.8 300.9 79.95 300.25 L75.45 306.7 Q72.15 311.05 69.15 313.45 65.85 316.15 64.45 313.0 61.05 305.2 61.05 295.45 61.05 293.75 61.55 293.8 62.0 293.8 62.2 295.45 62.7 300.15 63.7 304.5 64.85 309.2 66.25 311.75 66.45 312.15 67.0 312.1 67.65 312.1 68.3 311.5 74.1 306.15 79.15 298.65 79.3 298.4 79.65 298.5 81.65 299.1 85.9 301.65 L91.8 305.3 93.1 305.4 Q93.55 305.0 93.45 304.1 93.35 302.45 90.4 296.75 L85.65 287.8 Q83.1 282.8 83.35 279.65 83.6 276.4 87.0 272.35 91.15 267.45 94.55 265.15 99.8 261.55 106.85 260.9 120.3 259.7 135.25 255.1 137.2 254.5 137.35 255.1 137.5 255.65 135.65 256.5 124.4 261.55 107.0 263.1 100.15 263.75 95.4 266.85 92.3 268.9 88.45 273.45 85.45 277.05 85.3 280.25 85.2 283.0 87.3 286.9"/><path fill="#0d131a" d="M129.0 257.7 Q134.45 264.35 135.05 270.95 135.35 274.65 133.7 282.35 132.8 286.3 137.75 287.35 145.55 289.0 158.35 292.95 170.35 296.65 178.85 299.85 L179.45 299.85 179.5 299.5 Q175.45 291.4 166.25 284.25 165.25 283.45 165.6 283.05 165.9 282.6 167.0 283.3 171.95 286.45 175.8 290.7 179.35 294.6 181.3 298.6 182.55 301.1 181.6 302.1 L178.0 301.95 Q168.9 298.1 156.75 294.4 144.8 290.75 136.5 289.25 133.3 288.65 132.1 286.7 130.95 284.9 131.6 282.1 133.4 274.4 133.2 271.0 132.75 264.5 127.4 258.3 L129.0 257.7"/><path fill="#0d131a" d="M176.5 293.1 L175.3 291.5 181.8 292.85 186.9 294.1 Q187.35 294.25 187.5 293.95 L187.25 293.1 Q184.1 288.7 171.8 280.8 170.8 280.15 171.0 279.8 L172.3 279.95 Q177.1 282.2 181.85 285.7 186.85 289.4 188.85 292.45 189.9 294.05 189.45 295.1 188.95 296.25 186.95 295.7 180.15 293.7 176.5 293.1"/><path fill="#0d131a" d="M84.7 279.2 Q82.45 282.8 78.45 284.6 74.95 286.25 70.8 286.25 66.55 286.25 63.4 283.25 59.8 279.85 59.55 274.1 L60.9 270.35 Q60.35 276.55 63.35 280.6 66.15 284.4 70.7 284.7 74.5 285.0 78.3 282.95 82.65 280.6 84.6 276.1 L84.7 279.2"/><path fill="#0d131a" d="M159.9 270.9 L161.25 271.75 Q161.7 274.3 160.1 276.5 158.65 278.45 156.15 279.5 151.6 281.35 145.05 279.9 138.05 278.35 134.5 274.0 L134.65 272.45 Q137.9 276.55 144.85 278.3 151.5 280.0 155.7 278.3 157.85 277.4 159.1 275.3 160.4 273.15 159.9 270.9"/><path fill="#0d131a" d="M46.45 236.3 Q47.95 235.5 48.15 235.9 48.4 236.3 46.95 237.2 36.6 243.6 24.6 246.8 13.4 249.8 3.1 249.5 L2.95 247.9 Q23.7 248.45 46.45 236.3"/><path fill="#0d131a" d="M179.1 185.7 Q176.8 177.75 166.45 164.95 158.15 154.7 145.35 142.1 L144.05 139.1 Q155.7 149.05 164.9 159.95 174.9 171.75 178.0 180.2 L179.1 185.7"/><path fill="#0d131a" d="M135.3 139.7 Q135.85 137.85 136.35 138.05 136.8 138.25 136.35 140.0 134.65 146.15 135.55 153.7 136.8 163.95 143.2 168.25 146.4 161.85 146.2 153.2 146.0 145.3 143.25 139.35 142.3 137.3 142.75 137.1 143.2 136.9 144.3 138.55 147.7 143.85 148.05 152.7 148.4 162.35 144.55 169.6 144.05 170.65 143.55 170.75 143.1 170.85 142.05 170.25 135.75 166.35 134.1 156.8 132.7 148.3 135.3 139.7"/><path fill="#0d131a" d="M166.1 178.25 Q164.15 178.35 163.05 181.95 161.9 185.45 162.2 190.15 162.55 195.6 164.25 198.95 165.9 202.25 168.05 202.05 170.35 201.9 171.5 197.45 172.4 193.85 172.1 190.1 171.8 186.55 170.45 182.95 168.6 178.15 166.1 178.25 M165.9 176.7 Q169.25 176.55 171.5 181.5 173.3 185.4 173.65 190.0 173.95 194.3 172.9 198.15 171.5 203.15 168.4 203.45 164.95 203.75 162.7 199.55 160.75 195.8 160.45 190.25 160.15 184.55 161.6 180.75 163.1 176.85 165.9 176.7"/><path fill="#9ed8f5" d="M40.45 30.75 Q28.9 27.8 22.2 31.7 16.1 35.2 14.4 46.25 12.85 56.1 15.25 66.7 6.45 50.15 3.05 32.2 0.55 18.75 1.35 6.25 1.6 2.6 3.25 1.6 5.05 0.45 9.4 1.7 35.55 9.0 63.45 43.1 52.55 33.8 40.45 30.75"/><path fill="#005b96" d="M43.15 31.4 Q54.75 35.1 62.55 42.45 74.6 57.45 84.95 76.7 97.55 100.1 104.65 124.6 L82.6 140.65 Q60.05 127.2 41.1 105.5 26.3 88.45 16.7 70.15 12.9 59.9 13.9 48.7 15.0 35.9 22.2 31.7 30.0 27.15 43.15 31.4"/><path fill="#0d131a" d="M0.4 6.05 Q0.8 1.75 2.45 0.6 3.9 -0.4 7.35 0.35 38.7 7.6 67.8 46.95 93.8 82.05 104.9 122.8 105.55 125.15 104.85 125.35 104.15 125.6 103.45 123.25 98.35 106.0 89.0 87.15 79.05 67.0 66.75 50.0 37.2 9.15 6.9 2.2 4.8 1.7 3.8 2.5 2.6 3.4 2.3 6.35 0.75 22.85 6.4 41.9 11.9 60.45 23.65 79.5 34.4 97.0 49.0 112.15 63.75 127.45 80.05 137.85 82.55 139.45 82.1 140.15 81.65 140.8 79.05 139.25 62.35 129.35 47.15 114.0 32.3 98.95 21.4 81.3 9.6 62.1 4.15 42.65 -1.25 23.2 0.4 6.05"/><path fill="#0d131a" d="M65.35 45.6 L67.1 49.1 Q56.05 35.85 41.9 31.8 29.85 28.3 22.75 32.6 16.55 36.35 14.95 47.9 13.15 60.85 19.5 74.45 L15.95 68.6 Q11.1 56.2 13.45 44.8 15.6 34.65 21.75 31.05 29.0 26.8 40.8 29.65 54.85 33.0 65.35 45.6"/><path fill="#dbdcdc" d="M99.75 244.9 Q95.9 244.0 94.95 238.55 101.0 239.0 107.85 238.9 106.15 241.9 104.25 243.5 101.95 245.4 99.75 244.9"/><path fill="#dbdcdc" d="M160.3 240.2 Q158.1 239.7 157.35 236.3 156.65 233.45 157.05 229.2 164.6 225.95 169.95 221.95 170.25 224.95 169.95 227.15 169.5 230.9 166.5 235.6 163.1 240.8 160.3 240.2"/><path fill="#0d131a" d="M161.8 217.15 Q159.5 220.55 158.35 225.8 157.15 231.25 157.85 235.45 158.45 239.3 160.15 239.6 162.05 240.0 164.8 236.45 167.8 232.6 168.8 227.55 169.7 223.05 168.6 218.9 167.5 214.85 165.55 214.35 163.95 213.95 161.8 217.15 M159.85 241.0 Q156.9 240.4 156.1 235.8 155.3 231.5 156.65 225.3 158.0 219.2 160.85 215.7 163.45 212.5 165.9 213.0 168.95 213.65 170.25 218.65 171.4 223.15 170.5 227.85 169.3 234.05 165.85 237.95 162.65 241.55 159.85 241.0"/><path fill="#0d131a" d="M95.85 239.65 Q97.1 243.7 99.55 244.2 103.2 245.0 106.3 240.25 108.15 237.4 109.45 233.15 110.8 228.6 110.15 223.75 109.4 218.55 106.8 217.65 104.05 216.7 100.9 219.6 97.4 222.9 95.9 229.2 94.5 235.1 95.85 239.65 M99.3 245.65 Q95.8 244.9 94.25 240.15 92.6 235.2 94.1 228.8 95.8 221.6 99.95 218.05 103.75 214.85 107.45 216.15 110.9 217.35 111.8 222.95 112.6 228.0 111.1 233.7 109.75 238.85 106.95 242.3 103.45 246.55 99.3 245.65"/></g></svg>