<?xml version='1.0' encoding='utf-8'?>
<svg xmlns="http://www.w3.org/2000/svg" version="1.1" width="203px" height="276px" viewBox="-0.85 -1.0 203.1 275.9"><g><path fill="#009a63" d="M166.35 166.65 Q169.35 162.65 173.6 152.2 176.4 155.7 179.5 161.2 182.1 165.8 184.15 170.3 L189.2 181.9 Q192.05 188.0 193.15 198.5 193.35 200.45 192.6 201.1 192.2 201.5 190.4 201.85 178.2 204.35 168.0 210.7 162.5 214.1 154.45 213.65 148.5 213.3 140.1 210.7 133.95 208.75 127.7 209.35 123.15 209.85 117.85 211.85 L107.8 216.15 Q100.95 219.1 97.0 220.3 92.3 221.75 87.4 220.05 83.15 218.55 80.2 215.35 L74.75 209.45 69.15 204.15 Q66.1 201.6 59.75 200.35 L48.45 198.55 Q43.6 197.7 40.4 193.15 38.8 190.9 36.45 185.2 35.05 181.8 32.15 180.95 29.6 180.15 25.0 181.1 21.2 181.9 18.35 179.95 16.35 178.6 15.1 176.15 12.8 171.7 13.0 166.55 13.3 158.85 19.4 151.05 25.9 142.7 34.5 133.65 L49.35 118.35 Q56.0 111.35 60.3 101.35 63.15 94.7 65.5 85.0 66.75 79.9 66.5 67.5 66.25 54.0 67.05 48.8 67.95 42.9 70.05 38.75 72.5 33.9 76.1 32.65 80.85 16.65 97.55 12.65 109.75 9.7 121.75 13.35 127.6 15.2 135.5 15.0 L146.9 14.15 150.25 14.4 Q151.45 14.8 151.45 15.6 151.45 17.75 147.0 19.25 136.8 22.65 130.15 28.35 127.1 30.95 121.5 38.0 117.55 43.75 114.75 46.9 109.8 52.55 102.6 56.1 103.5 61.3 98.65 72.4 95.95 78.5 90.65 88.5 87.95 93.95 87.25 98.05 86.7 101.2 87.25 104.4 87.8 107.4 90.2 110.9 92.95 114.95 97.55 118.6 L118.1 121.6 Q134.85 121.7 149.35 138.9 157.75 148.9 166.35 166.65"/><path fill="#00aee5" d="M10.35 183.25 Q11.9 187.4 15.75 188.65 L23.4 189.05 Q28.0 188.5 30.55 191.4 31.65 192.7 33.45 197.0 36.55 204.65 42.2 207.3 46.35 209.25 53.65 209.0 62.8 208.7 71.35 219.55 76.25 225.75 82.4 228.55 90.3 232.05 99.15 229.6 101.5 228.95 114.7 223.05 122.35 219.65 130.65 219.55 138.3 219.4 148.35 222.15 157.1 224.55 163.9 223.1 168.8 222.05 174.5 218.35 179.0 215.45 184.3 213.65 189.15 211.95 193.8 211.45 193.6 213.75 192.85 216.55 192.4 218.55 192.8 220.2 193.4 222.6 196.0 226.05 198.95 229.95 199.65 232.25 200.4 234.6 199.25 237.1 195.65 244.95 175.95 244.7 166.9 244.55 164.05 244.8 157.2 245.35 149.75 248.2 142.25 251.05 132.1 258.15 124.8 263.25 117.7 269.4 112.35 274.1 102.95 272.45 93.8 270.8 88.3 264.6 82.45 258.05 80.05 255.95 77.0 253.35 72.25 251.2 68.35 249.45 60.15 250.25 55.7 250.65 47.25 252.35 41.65 253.5 38.45 253.25 34.1 252.85 30.7 249.9 27.2 246.85 26.9 242.55 26.65 238.95 28.65 230.35 26.35 229.15 20.35 228.3 L10.9 226.85 Q3.45 225.05 1.4 220.6 -0.25 216.95 12.5 202.1 14.25 200.05 14.35 198.15 14.35 196.95 13.45 194.6 L11.75 189.8 Q10.85 186.75 10.35 183.25"/><path fill="#00aee5" d="M35.85 85.35 Q33.9 81.85 31.5 73.1 29.15 64.4 28.6 58.85 31.65 53.0 39.45 53.05 47.35 53.1 54.45 59.35 56.3 67.9 56.75 74.7 57.4 84.25 55.7 94.1 54.15 103.45 47.0 115.45 40.6 126.4 31.1 137.1 40.85 122.2 41.15 107.0 41.35 94.95 35.85 85.35"/><path fill="#ffe33f" d="M19.95 48.6 Q21.4 38.95 27.8 32.4 33.05 27.0 43.55 22.0 31.55 29.85 28.65 49.3 27.65 56.3 29.5 65.5 31.0 73.0 34.85 83.5 26.75 74.05 23.45 67.45 18.55 57.85 19.95 48.6"/><path fill="#ffe33f" d="M80.55 22.95 Q79.25 24.25 78.1 26.9 77.35 28.75 76.1 32.65 69.7 35.35 67.6 45.95 66.1 53.35 66.7 66.25 67.05 74.5 66.25 80.85 65.05 89.7 61.25 99.3 57.55 108.6 49.0 118.45 43.75 124.5 34.4 132.9 40.45 125.9 45.1 118.4 48.8 112.4 52.7 104.15 56.15 96.8 56.95 86.35 57.75 75.85 55.65 65.4 53.65 55.3 54.55 47.9 55.4 41.2 58.9 35.0 62.15 29.25 68.05 26.05 73.75 22.95 80.55 22.95"/><path fill="#ffe33f" d="M198.4 196.75 Q200.5 199.3 200.6 202.8 200.7 206.3 199.0 208.55 197.15 210.95 193.4 211.5 189.1 212.15 184.4 213.8 178.95 215.7 174.8 218.3 169.05 221.9 164.0 223.0 156.5 224.6 147.45 221.9 137.5 218.95 128.85 219.55 120.55 220.15 112.05 224.2 L102.1 228.7 Q94.75 231.45 90.1 230.65 78.45 228.6 71.35 219.75 66.85 214.25 63.35 211.95 58.8 208.95 52.55 208.8 44.55 208.55 41.7 207.25 37.25 205.3 33.95 198.5 32.0 193.1 30.5 191.35 28.1 188.45 22.15 189.3 11.45 190.85 9.0 179.3 7.55 172.5 10.2 165.45 12.2 160.15 15.45 156.6 13.2 163.15 12.9 167.05 12.45 172.0 14.65 175.6 17.0 179.35 19.45 180.55 21.75 181.65 25.55 181.1 30.0 180.5 32.05 181.05 35.0 181.85 36.45 185.2 39.65 192.55 40.25 193.35 43.75 197.95 51.25 199.0 61.5 200.45 64.55 201.65 69.55 203.7 75.55 210.25 82.75 218.2 87.35 220.0 93.3 222.35 102.45 218.8 L113.7 213.65 Q120.8 210.35 124.9 209.8 L133.45 209.35 Q137.0 209.7 142.75 211.45 150.65 213.9 155.15 214.05 162.5 214.35 168.7 210.3 179.65 203.25 190.4 201.85 192.0 201.65 192.6 201.05 193.3 200.35 193.15 198.5 L192.45 193.25 Q196.25 194.15 198.4 196.75"/><path fill="#ffe33f" d="M181.4 175.15 Q184.85 173.35 184.35 170.55 184.2 169.65 182.05 165.75 191.9 166.95 193.9 172.8 195.65 177.8 186.6 183.0 179.15 187.3 168.65 189.7 152.05 193.6 137.45 193.0 125.3 192.5 110.45 188.55 101.8 186.25 95.1 185.55 88.7 184.85 79.6 185.2 71.35 185.55 64.9 182.35 60.3 180.1 56.15 175.65 53.35 172.65 51.75 167.25 51.0 164.65 49.9 158.05 49.25 154.4 46.65 153.25 45.2 152.6 41.4 152.5 38.95 152.45 37.45 149.9 36.2 147.8 36.2 145.25 36.2 139.55 40.4 136.75 39.6 142.15 42.85 143.65 L50.2 144.8 Q56.0 145.55 58.2 149.85 59.25 152.0 60.0 158.05 62.3 176.95 79.05 176.05 85.8 175.65 91.3 176.3 97.35 176.95 107.45 179.4 131.7 185.4 155.3 182.3 171.75 180.15 181.4 175.15"/><path fill="#ffe33f" d="M113.7 112.15 Q118.15 114.1 118.05 123.4 118.0 129.9 115.95 137.65 114.95 141.25 116.7 142.75 117.4 143.35 120.4 144.2 122.7 144.85 123.6 145.95 124.75 147.4 124.05 150.35 L121.1 159.4 117.6 168.6 Q115.05 162.1 110.15 154.2 105.4 146.5 101.0 141.65 94.35 134.4 90.6 131.5 83.6 126.05 76.95 126.0 79.55 117.65 84.0 115.75 87.95 114.05 90.15 117.8 91.85 120.65 94.2 120.3 95.65 120.05 97.95 118.3 103.55 114.0 106.15 112.75 110.4 110.7 113.7 112.15"/><path fill="#ffe33f" d="M165.0 127.05 Q165.65 131.2 165.05 135.6 164.65 138.5 165.75 140.2 166.95 142.1 170.05 143.0 173.05 143.9 174.05 146.35 174.9 148.5 174.05 151.25 173.3 153.75 170.9 158.5 168.55 163.3 166.35 166.65 158.5 148.4 147.5 136.7 133.85 122.2 118.1 121.25 L117.6 118.6 Q123.3 114.15 127.25 114.0 130.6 113.85 133.0 116.85 135.0 119.3 137.2 119.25 138.6 119.25 142.3 117.7 149.2 114.9 153.0 115.25 156.05 115.5 160.45 118.5 164.05 120.9 165.0 127.05"/><path fill="#00aee5" d="M68.4 133.2 Q71.8 131.4 75.65 133.95 78.45 135.8 80.1 138.7 81.6 141.45 81.8 144.35 82.05 148.2 79.4 150.0 76.1 152.2 72.15 149.9 68.6 147.8 66.85 143.6 65.25 139.85 65.7 137.1 66.15 134.4 68.4 133.2"/><path fill="#00aee5" d="M87.3 147.15 Q88.75 145.7 91.15 146.1 93.4 146.5 94.5 147.95 95.75 149.55 96.2 151.55 96.8 154.0 95.5 155.3 94.1 156.65 92.25 156.35 90.5 156.1 88.65 154.45 86.95 152.9 86.5 150.6 86.1 148.35 87.3 147.15"/><path fill="#009a63" d="M84.85 1.0 Q89.2 -0.55 89.85 1.2 90.45 2.9 88.0 4.4 84.3 6.65 80.35 10.6 75.75 15.05 74.0 18.85 69.1 17.8 62.9 18.0 56.5 18.2 50.0 19.65 43.25 21.15 36.6 25.1 29.75 29.15 25.55 34.4 22.7 28.05 24.8 21.95 26.65 16.55 32.2 11.65 36.65 7.75 46.7 6.75 L63.95 6.05 Q70.7 5.85 76.85 3.95 L84.85 1.0"/><path fill="#009a63" d="M43.15 22.25 Q51.2 18.75 62.25 18.3 74.15 17.8 82.05 21.5 L80.55 23.15 Q65.8 22.65 58.5 35.65 52.3 46.7 54.45 59.35 45.0 52.35 37.2 53.25 30.55 54.0 28.6 59.4 27.65 45.7 32.4 35.45 36.3 27.05 43.15 22.25"/><path fill="#0098c7" d="M29.35 190.85 Q30.5 192.0 34.55 199.7 37.5 205.3 42.95 207.6 46.4 209.05 50.6 209.05 55.85 209.05 58.95 209.95 65.4 211.7 69.55 217.25 74.35 223.65 79.45 226.85 84.45 230.0 90.8 230.75 96.05 231.35 104.05 228.1 L118.95 221.55 Q125.95 218.7 135.45 219.6 141.0 220.15 152.55 222.95 159.15 224.5 165.0 222.95 169.2 221.8 175.05 218.25 186.8 211.1 193.8 211.6 191.85 216.65 193.0 220.7 193.7 223.15 196.3 226.65 187.95 227.45 180.9 233.55 174.5 239.15 173.65 244.6 164.95 243.35 153.6 246.85 141.3 250.65 131.45 258.5 123.95 254.05 107.35 254.3 90.6 254.55 83.2 259.4 81.1 256.35 77.75 254.0 73.55 251.0 68.35 250.0 64.1 249.2 59.9 245.85 L52.7 239.5 Q42.9 231.4 28.25 233.1 29.6 226.25 27.85 224.5 27.85 217.8 21.8 211.0 15.75 204.25 10.15 204.55 L13.1 201.0 Q13.9 199.85 14.15 198.55 14.4 197.5 12.9 192.65 L10.15 183.85 Q12.3 187.35 15.95 188.7 18.95 189.85 22.05 189.3 27.05 188.5 29.35 190.85"/><path fill="#008756" d="M25.15 22.2 Q27.55 23.95 30.25 24.6 33.5 25.35 37.9 24.7 29.95 29.05 25.65 34.45 24.2 32.45 24.05 28.95 23.85 25.35 25.15 22.2"/><path fill="#008756" d="M93.35 44.05 Q108.9 45.9 124.6 33.3 113.85 49.45 106.25 54.05 95.0 60.9 85.65 54.15 82.25 51.65 80.4 48.25 78.65 45.05 79.45 43.55 80.5 41.6 84.2 42.25 L93.35 44.05"/><path fill="#dcc437" d="M81.65 126.5 Q91.2 128.65 99.6 135.85 106.2 141.5 111.35 149.55 116.2 157.2 118.65 157.1 120.45 157.05 124.05 151.25 L120.75 160.2 Q118.75 165.65 117.9 168.5 111.6 156.2 105.95 148.3 93.95 131.35 81.65 126.5"/><path fill="#dcc437" d="M166.45 166.55 Q162.1 157.8 157.05 149.8 149.95 138.6 143.85 132.75 150.25 137.05 155.6 143.45 158.65 147.0 163.3 153.3 166.4 157.05 168.4 156.5 170.75 155.8 174.35 148.9 173.95 152.3 171.25 157.95 169.15 162.4 166.45 166.55"/><path fill="#dcc437" d="M7.9 176.3 L10.05 181.3 Q13.3 186.25 18.85 185.95 L28.7 186.45 Q32.05 187.65 34.25 192.6 37.95 200.85 42.45 203.6 46.45 206.0 55.2 206.25 61.6 206.4 66.75 210.5 69.35 212.5 75.65 219.8 80.95 225.9 89.45 226.4 97.4 226.85 106.8 222.45 120.5 216.1 126.75 215.35 132.0 214.75 142.05 217.45 153.45 220.55 161.7 219.6 168.6 218.8 174.1 215.1 180.4 210.85 184.55 209.7 L193.0 208.35 Q196.8 207.7 198.6 206.25 200.2 204.85 200.4 202.6 L200.35 205.35 Q199.5 209.45 195.75 210.8 L186.4 213.1 Q180.25 214.65 175.05 218.25 168.8 222.5 162.25 223.4 156.5 224.15 149.5 222.4 138.85 219.75 134.4 219.5 124.2 218.95 113.4 223.7 98.9 230.15 95.55 230.8 89.35 232.0 81.1 228.0 77.25 226.1 74.05 222.75 L69.05 216.85 Q63.25 209.9 55.2 209.4 43.6 208.65 40.45 207.2 36.25 205.25 33.6 198.05 31.0 191.05 27.8 189.5 25.65 188.45 20.3 189.45 15.7 190.3 11.55 185.9 7.4 181.5 7.9 176.3"/><path fill="#008756" d="M89.95 56.25 Q93.1 58.15 98.45 57.25 101.15 56.85 103.2 56.0 103.8 58.1 102.05 64.6 100.45 70.65 98.8 73.65 96.85 77.25 88.6 93.8 94.45 76.9 92.8 64.9 92.25 61.15 91.05 58.3 L89.95 56.25"/><path fill="#dcc437" d="M188.4 180.15 Q193.85 176.75 194.15 173.9 193.9 177.2 191.65 179.95 190.55 181.35 189.45 182.05 168.65 192.45 144.25 192.85 129.75 193.05 115.95 189.8 L103.3 186.9 Q97.05 185.55 91.7 185.15 L79.35 185.25 Q71.65 185.2 65.05 182.55 53.05 177.7 50.35 159.75 49.7 155.3 47.2 153.65 45.45 152.5 42.1 152.5 39.9 152.5 37.95 150.55 L37.2 149.55 Q38.8 151.15 41.9 151.15 46.75 151.1 48.4 152.05 51.65 153.95 52.4 160.1 53.45 168.15 56.65 173.35 60.65 179.75 68.0 181.8 74.85 183.7 89.85 183.2 95.9 183.0 107.95 185.95 122.6 189.55 131.45 190.45 152.8 192.65 174.0 186.25 182.9 183.55 188.4 180.15"/><path fill="#008756" d="M173.55 151.8 Q180.05 161.0 185.05 171.8 178.4 179.2 163.9 180.65 167.8 173.65 168.25 163.85 170.0 161.0 171.25 157.95 L173.55 151.8"/><path fill="#008756" d="M189.4 182.45 Q191.7 188.8 192.9 194.2 193.9 198.75 193.65 200.0 193.4 201.35 189.9 202.3 L181.65 204.45 Q178.0 205.65 175.55 206.8 172.45 208.25 165.8 212.0 160.0 215.2 151.2 213.45 140.2 210.4 133.55 209.15 150.05 203.85 158.6 191.4 176.4 189.0 189.4 182.45"/><path fill="#0d131a" d="M12.75 195.25 Q9.75 186.8 8.95 181.85 L11.65 185.15 Q11.95 187.25 13.0 190.6 L14.65 195.5 Q15.25 197.35 15.05 198.6 14.85 200.15 13.4 201.9 8.2 208.1 5.9 211.5 1.6 217.85 2.45 220.3 3.7 223.7 8.75 225.4 11.95 226.5 19.05 227.45 L24.65 228.3 Q27.45 228.85 28.95 229.6 L28.55 231.2 Q26.25 229.9 18.65 228.95 10.8 227.95 7.45 226.85 1.65 224.9 0.15 220.95 -0.85 218.25 3.75 211.55 5.5 209.05 11.95 201.1 13.15 199.6 13.3 198.15 13.4 197.0 12.75 195.25"/><path fill="#0d131a" d="M43.5 41.35 Q39.85 41.65 38.4 39.05 37.2 36.95 38.05 33.75 38.9 30.5 41.35 27.65 44.15 24.5 47.7 23.05 51.35 21.6 53.85 22.95 57.05 24.65 56.25 29.15 55.45 33.7 51.05 37.65 47.25 41.05 43.5 41.35"/><path fill="#ffffff" d="M44.05 29.15 Q45.6 27.45 47.35 26.8 L50.15 26.85 Q51.3 27.7 50.75 29.7 50.15 31.7 48.3 33.55 46.55 35.25 44.75 35.7 43.0 36.1 42.25 35.05 41.55 34.1 42.1 32.4 42.6 30.7 44.05 29.15"/><path fill="#0d131a" d="M54.7 47.65 Q55.15 43.95 57.2 41.5 59.3 39.1 61.75 39.35 64.25 39.65 65.7 42.45 67.15 45.3 66.75 49.0 66.3 52.7 64.25 55.15 62.15 57.55 59.7 57.25 57.25 57.0 55.75 54.15 54.3 51.35 54.7 47.65"/><path fill="#ffffff" d="M57.45 47.95 Q57.65 46.2 58.6 45.05 59.6 43.95 60.75 44.05 61.9 44.2 62.6 45.5 63.3 46.85 63.1 48.6 62.9 50.35 61.95 51.45 60.95 52.6 59.8 52.45 58.65 52.35 57.95 51.0 57.25 49.7 57.45 47.95"/><path fill="#0d131a" d="M20.25 48.15 Q20.65 44.85 22.15 42.65 23.6 40.45 25.35 40.65 27.05 40.85 28.05 43.3 29.0 45.8 28.6 49.1 28.25 52.4 26.75 54.6 25.25 56.8 23.5 56.6 21.8 56.4 20.85 53.9 19.9 51.45 20.25 48.15"/><path fill="#ffffff" d="M22.15 48.35 Q22.35 46.8 23.05 45.8 23.75 44.75 24.55 44.85 25.35 44.95 25.8 46.1 26.25 47.25 26.1 48.8 25.9 50.4 25.2 51.4 24.55 52.45 23.7 52.35 22.9 52.25 22.45 51.1 22.0 49.95 22.15 48.35"/><path fill="#0d131a" d="M131.15 14.15 L146.4 13.5 Q152.15 13.0 152.7 15.4 153.2 17.75 148.05 19.55 138.45 22.9 131.95 28.0 125.95 32.6 120.8 40.15 113.15 51.3 105.9 55.5 95.5 61.5 85.0 54.35 84.15 53.8 84.35 53.45 L85.45 53.6 Q96.1 59.35 105.45 53.7 111.85 49.85 119.25 39.0 124.1 31.85 131.9 26.15 139.35 20.75 147.35 18.25 151.1 17.1 150.7 15.8 150.3 14.55 146.4 14.95 L131.0 15.7 Q126.2 15.45 118.25 13.7 109.1 11.7 100.6 13.1 92.4 14.5 86.55 18.75 81.75 22.3 78.95 27.2 76.05 32.25 75.65 38.15 75.6 39.05 75.2 39.05 74.8 39.0 74.8 38.1 74.65 31.8 77.55 26.5 80.25 21.55 85.35 17.75 99.0 7.55 118.65 12.15 126.0 13.9 131.15 14.15"/><path fill="#0d131a" d="M90.6 0.55 Q93.05 2.15 89.15 4.5 77.05 11.95 74.8 19.65 L72.95 19.2 Q73.85 15.15 79.45 9.95 83.5 6.1 88.0 3.35 90.1 2.05 88.3 1.55 86.5 0.95 83.1 2.55 76.9 5.5 69.25 6.65 L51.2 7.5 Q41.55 7.35 35.1 11.0 30.6 13.55 27.95 17.7 25.55 21.55 25.0 25.85 24.45 30.2 26.0 33.85 L25.05 35.3 Q22.65 31.6 23.1 26.25 23.5 21.15 26.15 16.9 28.85 12.6 34.1 9.65 41.35 5.6 51.3 5.75 L68.8 5.25 Q75.2 4.4 82.7 1.25 88.1 -1.0 90.6 0.55"/><path fill="#0d131a" d="M83.15 20.6 L81.9 22.3 Q71.15 18.2 58.85 19.3 46.6 20.4 36.75 26.35 29.75 30.6 25.6 36.25 21.3 42.05 20.6 48.45 19.75 56.0 22.8 63.75 25.95 71.65 33.4 80.25 41.85 89.95 42.0 104.6 42.15 119.6 33.6 134.05 L29.2 138.9 Q39.65 122.4 40.25 106.95 40.8 91.95 32.1 81.6 24.65 72.7 21.45 65.1 17.95 56.7 18.8 48.25 20.1 34.7 35.75 25.2 45.9 19.0 59.05 17.65 72.55 16.2 83.15 20.6"/><path fill="#0d131a" d="M44.2 21.65 L50.6 20.25 Q42.4 22.5 37.75 28.0 34.05 32.3 31.4 40.4 27.9 51.05 30.05 64.5 32.1 77.4 38.55 88.55 L36.05 85.9 Q29.8 74.9 28.2 62.55 26.6 50.2 30.05 39.65 32.3 33.0 35.45 28.8 38.95 24.2 44.2 21.65"/><path fill="#0d131a" d="M28.75 58.3 Q30.7 51.5 40.0 52.2 48.85 52.85 54.6 58.8 L55.0 61.35 Q49.4 54.8 40.15 54.25 30.55 53.65 29.05 60.85 L28.75 58.3"/><path fill="#0d131a" d="M192.4 193.9 L191.85 191.95 Q197.5 193.35 200.15 197.4 202.25 200.55 201.9 204.05 201.65 207.1 199.75 209.3 197.7 211.6 194.45 212.1 187.1 213.25 184.25 214.3 180.6 215.65 173.85 220.0 167.0 224.4 159.5 224.6 154.75 224.7 146.15 222.65 133.8 219.7 127.15 220.5 119.55 221.4 106.65 228.0 94.4 234.35 83.5 230.1 75.7 227.15 70.1 219.75 65.3 213.45 61.3 211.55 57.55 209.75 50.5 210.05 43.0 210.35 38.7 207.0 34.75 203.95 31.8 196.35 29.8 191.2 27.7 190.2 26.35 189.6 21.75 190.3 18.6 190.75 15.7 189.7 12.8 188.65 11.0 186.4 4.15 177.65 9.25 165.05 11.95 158.4 22.6 145.75 32.3 134.2 45.0 121.75 57.8 109.25 62.9 92.35 66.5 80.4 65.9 68.1 65.1 52.05 67.15 44.0 69.4 35.25 75.9 31.6 L75.75 33.45 Q71.15 36.3 69.2 42.6 66.55 51.15 67.4 68.25 68.05 80.9 64.45 92.85 59.25 110.05 45.9 122.9 33.75 134.55 24.05 146.6 14.1 158.85 11.35 165.7 9.25 170.8 9.55 176.35 9.85 182.0 12.45 185.3 15.65 189.35 21.9 188.45 26.4 187.75 28.8 188.95 31.65 190.35 33.45 195.05 35.95 201.5 39.05 204.4 43.3 208.4 50.35 208.15 56.2 207.9 60.45 209.55 66.5 211.85 71.4 218.3 76.9 225.5 83.8 228.3 93.9 232.35 105.75 226.25 117.75 220.05 125.8 218.95 133.85 217.85 146.15 220.75 154.7 222.8 159.05 222.7 166.25 222.65 172.9 218.35 178.9 214.5 184.95 212.55 188.4 211.45 193.95 210.5 196.25 210.1 197.8 208.25 199.4 206.35 199.6 203.75 199.85 200.85 198.25 198.35 196.4 195.35 192.4 193.9"/><path fill="#0d131a" d="M188.45 181.8 L190.0 181.05 Q191.6 184.75 193.05 190.65 194.3 195.7 194.5 198.0 194.7 200.15 194.35 201.0 193.9 202.2 192.1 202.6 L181.75 205.2 Q175.35 207.2 170.8 210.3 165.4 214.0 160.2 214.6 152.75 215.5 140.7 211.8 133.6 209.6 127.25 210.4 120.95 211.2 112.3 215.4 100.7 221.05 94.8 221.55 84.8 222.45 77.15 213.55 71.2 206.6 68.1 204.55 63.45 201.45 55.15 200.5 48.2 199.65 45.3 198.4 40.1 196.15 37.8 190.5 35.3 184.45 33.8 183.05 31.05 180.6 25.0 181.9 L19.6 181.65 Q17.15 180.75 15.45 178.4 12.65 174.6 12.1 169.95 11.45 164.2 14.45 157.7 L18.0 153.75 Q13.9 160.95 13.95 167.75 13.95 173.55 16.8 177.35 19.65 181.3 25.1 180.15 31.35 178.8 34.0 180.8 36.3 182.55 39.3 189.95 41.45 195.2 46.35 197.0 L55.65 198.6 Q63.65 199.6 67.8 202.15 71.75 204.6 78.45 212.4 85.8 220.95 94.8 219.95 99.7 219.45 111.5 213.7 120.65 209.25 126.0 208.45 132.55 207.45 141.15 210.1 152.95 213.7 159.85 212.8 164.55 212.2 169.85 208.55 174.45 205.45 180.85 203.45 L191.2 200.7 Q192.15 200.45 192.35 199.85 L192.35 198.1 Q192.15 195.45 191.1 190.7 189.9 185.15 188.45 181.8"/><path fill="#0d131a" d="M120.0 269.3 Q113.35 274.9 104.05 273.75 93.5 272.45 85.05 262.45 76.85 252.75 68.7 251.2 61.95 249.95 46.05 253.45 40.45 254.65 35.7 253.55 31.4 252.5 28.8 249.75 26.95 247.75 26.3 244.6 25.65 241.45 26.4 238.05 L28.0 230.35 Q28.6 226.4 27.65 225.05 27.0 224.15 27.45 223.9 27.9 223.7 28.6 224.55 29.95 226.2 29.6 230.2 29.4 232.5 28.25 238.15 26.85 244.5 30.45 248.3 32.9 250.85 36.5 251.85 40.65 252.95 45.85 251.8 62.5 248.25 69.5 249.55 78.15 251.1 86.5 261.1 94.0 270.15 103.75 271.5 112.55 272.75 118.8 267.5 131.8 256.5 140.9 251.6 156.8 243.0 172.65 243.9 L186.3 243.4 Q195.45 242.05 197.9 237.95 200.25 234.05 196.9 228.7 192.75 222.25 192.2 220.9 191.35 218.85 192.0 215.9 192.75 212.75 192.6 211.3 L194.75 211.1 Q194.95 213.55 194.1 216.2 193.2 218.85 194.0 220.9 194.75 222.8 198.75 228.2 201.0 231.25 201.15 234.0 201.3 236.45 199.75 239.05 197.2 243.35 187.95 244.9 L172.85 245.5 Q156.75 244.6 141.35 253.35 134.15 257.45 120.0 269.3"/><path fill="#0d131a" d="M189.8 169.05 Q187.2 167.3 183.6 166.65 L185.1 169.75 Q186.1 172.15 183.9 174.55 181.3 177.45 173.05 179.85 164.85 182.25 153.8 183.35 127.45 186.0 106.45 180.15 93.05 176.35 84.35 176.6 72.65 176.95 67.85 174.35 59.6 169.9 58.65 155.2 58.35 150.7 55.8 148.1 53.2 145.5 48.65 145.35 L44.15 144.9 Q41.8 144.3 40.65 142.9 39.15 140.95 39.45 138.4 37.4 141.05 37.1 144.1 36.85 146.55 37.7 148.65 39.1 151.9 42.85 151.8 46.1 151.65 48.25 153.5 51.1 155.9 51.7 161.55 52.9 173.15 60.9 179.3 68.9 185.4 81.45 184.35 88.15 183.8 95.75 184.6 103.95 185.5 111.4 187.75 127.2 192.6 145.6 192.0 168.1 191.3 186.65 182.2 190.25 180.45 191.95 178.2 193.55 176.0 193.2 173.7 192.8 171.05 189.8 169.05 M182.8 165.15 Q187.9 165.65 191.25 167.95 194.65 170.3 195.15 173.6 195.55 176.2 193.55 179.05 191.45 182.0 187.65 183.9 169.0 193.25 145.8 193.85 127.15 194.35 110.9 189.4 103.55 187.15 95.2 186.3 87.55 185.55 80.85 186.1 68.15 187.15 59.6 180.55 51.0 173.9 49.75 161.8 49.25 157.1 47.75 155.2 46.15 153.2 42.7 153.3 40.55 153.4 38.7 152.4 36.75 151.35 36.0 149.55 34.75 146.55 35.6 142.65 36.5 138.65 39.05 136.55 40.1 135.7 40.65 135.9 41.25 136.1 41.05 137.25 40.55 140.5 41.9 142.25 42.85 143.45 44.85 143.75 L48.9 143.95 Q54.15 144.15 57.3 147.25 60.35 150.25 60.65 155.15 61.6 169.35 68.75 173.3 72.85 175.6 84.3 175.25 L95.55 175.95 Q99.9 176.65 106.95 178.6 128.7 184.65 154.4 181.65 164.75 180.45 172.6 178.05 180.1 175.7 182.35 173.15 183.6 171.75 182.9 170.0 L179.05 162.0 Q175.65 155.5 173.4 152.75 L174.15 150.5 Q176.9 154.5 180.85 161.55 L182.8 165.15"/><path fill="#0d131a" d="M117.25 122.95 Q117.05 115.35 113.9 113.35 108.8 110.05 98.75 118.6 95.6 121.25 93.45 121.1 91.4 120.95 89.5 118.1 88.05 116.0 85.85 116.35 83.65 116.75 81.45 119.1 79.05 121.6 77.8 125.4 87.7 125.85 99.7 139.0 110.95 151.3 117.65 167.25 118.25 165.4 120.6 159.1 L123.05 151.95 Q123.85 148.8 123.0 146.85 122.1 144.75 119.5 144.65 115.0 144.45 115.0 140.0 115.0 138.8 115.5 136.7 117.45 129.5 117.25 122.95 M77.75 126.8 Q76.7 126.85 76.45 126.45 76.15 126.05 76.5 124.9 77.85 120.6 80.35 117.7 82.8 114.95 85.6 114.35 87.15 114.05 88.4 114.9 89.35 115.55 90.5 117.2 92.15 119.7 93.75 119.85 95.4 119.95 98.1 117.5 102.7 113.35 106.7 111.65 111.7 109.5 115.0 111.65 118.65 114.0 118.9 121.9 119.1 128.85 116.8 136.9 115.1 142.95 120.25 143.2 123.2 143.35 124.4 145.7 125.55 147.85 124.8 151.05 L122.05 159.0 119.15 167.35 Q118.5 169.8 117.85 169.75 117.25 169.75 116.3 167.45 111.05 154.1 99.2 140.9 86.45 126.65 77.75 126.8"/><path fill="#0d131a" d="M175.25 146.4 Q176.1 149.15 174.2 153.2 L167.75 166.15 166.65 167.85 Q166.05 168.15 165.2 166.2 157.75 150.0 148.4 139.2 134.35 123.05 118.25 122.1 L118.2 120.7 Q134.55 121.05 148.7 137.0 158.65 148.2 166.4 165.55 171.4 156.4 172.8 152.7 174.05 149.4 173.1 146.9 172.15 144.4 169.5 143.6 167.05 142.9 165.8 141.75 164.05 140.1 164.2 137.3 164.55 130.35 164.15 127.7 163.15 121.2 158.5 118.15 154.5 115.55 148.65 116.65 146.05 117.15 140.7 119.3 138.05 120.4 136.5 120.2 134.3 119.95 132.4 117.35 130.4 114.7 126.4 115.2 122.25 115.8 118.15 119.5 L117.85 117.75 Q122.95 113.45 127.0 113.15 131.0 112.85 133.6 116.5 134.9 118.35 136.5 118.75 138.1 119.1 140.25 118.1 152.7 111.95 159.6 116.45 164.4 119.6 165.7 125.4 166.65 129.7 165.85 136.95 165.55 139.6 166.95 140.8 167.7 141.45 170.3 142.2 174.35 143.4 175.25 146.4"/><path fill="#0d131a" d="M92.1 84.3 Q97.1 74.6 98.35 71.6 101.6 63.6 101.9 56.25 L104.5 55.7 Q104.2 63.5 100.45 72.0 98.35 76.8 93.75 85.0 87.4 97.3 87.65 102.6 88.0 109.75 98.35 118.0 L96.75 119.05 Q85.9 110.55 86.0 101.6 86.05 96.1 92.1 84.3"/><path fill="#0d131a" d="M61.15 30.8 Q64.95 26.35 70.3 24.1 75.65 21.9 81.35 22.35 L79.95 23.75 Q74.95 23.75 70.4 25.7 65.6 27.75 62.2 31.65 57.85 36.7 56.05 43.45 53.6 52.45 55.95 63.7 59.95 83.0 55.35 98.9 50.5 115.55 35.2 132.55 L33.3 133.85 34.7 130.85 Q49.2 113.95 53.8 98.35 58.35 82.95 54.6 64.15 50.35 43.3 61.15 30.8"/></g></svg>