<?xml version='1.0' encoding='utf-8'?>
<svg xmlns="http://www.w3.org/2000/svg" version="1.1" width="259px" height="276px" viewBox="0.0 -0.3 258.7 276.45"><g><path fill="#ba7aa5" d="M252.55 91.6 L257.9 102.25 Q256.45 106.6 256.2 112.15 L256.1 129.1 Q256.1 150.8 244.45 178.25 241.2 164.65 236.9 152.1 235.6 157.95 233.5 164.0 231.15 170.8 229.2 173.35 228.75 168.05 227.35 163.15 225.95 158.35 224.55 156.8 220.15 173.75 219.45 177.0 218.2 183.0 218.55 188.05 218.95 194.0 215.55 203.35 212.85 210.8 211.2 212.85 210.7 213.5 187.2 225.85 163.4 238.35 161.25 240.3 155.7 245.3 147.45 247.7 142.2 249.25 136.35 249.6 141.0 246.25 145.4 242.1 150.2 237.6 152.65 234.1 148.85 233.85 142.2 234.3 L132.8 234.8 Q142.85 228.85 145.6 226.7 142.35 224.85 135.85 226.05 128.6 227.35 121.15 231.9 114.7 235.8 100.4 237.75 86.65 239.55 80.4 237.85 59.65 232.25 36.2 218.45 14.9 204.75 9.65 202.35 12.6 201.0 24.35 203.35 38.3 206.2 42.5 206.15 37.5 203.15 29.55 197.25 L20.15 190.1 Q23.65 190.25 32.8 192.3 41.0 194.2 46.3 193.9 39.55 188.35 33.1 179.65 26.2 170.35 25.05 169.25 17.3 161.95 10.6 153.05 4.3 144.7 3.25 140.9 0.25 129.95 2.6 106.0 5.15 80.0 12.1 70.1 13.35 72.6 15.0 77.65 16.4 82.05 16.8 84.15 L17.75 89.3 Q18.6 93.15 19.7 94.9 20.35 88.45 21.75 84.65 23.45 80.8 24.4 77.7 24.9 80.3 25.95 83.55 L27.5 88.65 29.25 84.35 Q29.95 82.25 30.2 79.9 30.55 76.95 32.15 73.1 L35.3 66.75 38.45 59.25 Q40.25 54.1 41.45 51.65 44.45 45.35 61.85 31.9 80.4 17.6 91.2 14.9 93.8 14.75 104.6 17.5 115.9 20.4 118.45 20.5 127.45 14.45 138.2 8.6 150.45 1.9 154.45 1.5 157.75 1.15 169.65 2.9 183.15 4.9 195.1 8.0 201.35 9.95 207.95 13.75 L220.8 21.85 202.6 20.45 189.5 19.6 Q192.95 21.35 196.45 24.2 L200.9 28.1 192.0 28.4 Q188.25 28.55 186.4 29.2 L190.75 33.45 Q192.95 35.65 194.2 36.35 195.7 37.2 205.7 39.3 L218.1 41.5 Q220.2 41.7 226.7 47.8 L233.75 54.7 Q237.2 57.65 241.95 66.25 246.8 75.1 247.4 79.95 247.65 82.1 252.55 91.6"/><path fill="#a16990" d="M222.0 166.3 Q219.7 174.6 219.05 179.55 218.5 183.8 218.8 188.5 219.2 194.45 216.0 203.1 213.55 209.8 211.85 212.0 211.35 212.6 187.55 225.4 163.4 238.35 161.25 240.3 155.7 245.3 146.9 247.9 141.05 249.6 135.2 249.95 148.55 240.25 152.85 234.1 149.0 233.85 142.05 234.15 L132.3 234.55 Q143.2 228.2 145.95 226.05 142.75 224.25 135.45 225.8 127.6 227.5 120.0 232.1 113.55 236.0 99.8 237.85 86.65 239.55 80.4 237.85 65.85 233.95 50.95 226.55 107.9 225.2 150.95 210.2 194.8 194.9 222.0 166.3"/><path fill="#a16990" d="M236.5 151.6 Q235.05 158.15 233.3 163.75 231.05 170.9 229.2 173.35 228.6 166.5 226.7 161.1 236.9 149.25 244.6 135.6 252.75 121.1 257.2 106.05 256.55 109.1 256.3 114.5 L256.1 129.1 Q256.1 151.5 244.7 178.45 242.25 168.35 236.5 151.6"/><path fill="#68ae28" d="M96.9 191.95 Q105.5 194.8 109.9 201.1 114.8 208.1 112.05 216.3 109.95 222.65 102.6 225.2 95.4 227.7 86.8 225.3 78.4 222.95 73.8 215.9 69.15 208.85 71.4 202.15 73.85 194.7 81.55 191.9 88.85 189.3 96.9 191.95"/><path fill="#dbd5ca" d="M160.9 240.4 Q164.25 238.55 172.8 233.35 178.7 229.7 181.05 228.8 181.75 228.6 182.75 230.95 184.75 235.75 185.35 241.3 186.2 248.65 183.95 253.75 181.3 259.95 175.3 264.4 169.75 268.55 162.9 270.1 147.15 273.6 143.3 273.9 L125.45 274.65 Q117.1 274.45 107.7 272.65 99.7 271.15 92.3 264.7 87.15 260.25 84.2 255.55 82.1 252.3 80.5 247.15 78.9 242.25 79.15 240.3 79.4 238.7 80.55 237.85 L83.65 238.4 91.85 238.95 Q105.5 238.95 117.3 233.55 L130.4 227.35 Q139.9 223.7 145.35 226.25 142.45 228.55 137.8 231.2 L132.35 234.3 Q151.4 234.3 153.15 234.55 L144.1 243.55 Q138.35 249.05 136.25 249.6 142.3 249.5 148.75 247.4 156.45 244.85 160.9 240.4"/><path fill="#b3aea6" d="M112.2 257.95 Q116.0 259.2 117.65 259.4 L129.55 259.85 137.5 259.05 153.4 256.65 Q158.05 256.45 168.15 251.95 178.3 247.45 185.45 242.35 186.0 249.1 183.95 253.75 181.3 259.95 175.3 264.4 169.75 268.55 162.9 270.1 147.15 273.6 143.3 273.9 L125.45 274.65 Q117.1 274.45 107.7 272.65 99.7 271.15 92.3 264.7 87.15 260.25 84.2 255.55 82.55 252.95 81.1 248.9 79.75 245.25 79.3 242.4 L85.0 247.5 Q88.85 250.8 90.0 251.3 L99.3 253.55 Q100.5 254.15 103.5 254.95 L107.1 256.0 Q108.6 256.75 112.2 257.95"/><path fill="#68ae28" d="M218.05 118.5 Q221.7 118.5 224.45 121.35 227.15 124.25 227.05 128.0 226.95 131.4 224.65 134.2 222.15 137.3 218.5 137.3 214.15 137.3 211.45 134.45 209.0 131.9 209.0 128.6 209.0 124.1 211.75 121.25 214.35 118.5 218.05 118.5"/><path fill="#68ae28" d="M210.1 141.6 Q212.25 141.5 213.9 142.95 215.6 144.5 215.6 146.95 215.6 149.15 213.95 150.75 212.3 152.3 210.25 152.15 207.9 151.95 206.45 150.1 205.2 148.5 205.2 146.95 205.2 145.05 206.6 143.4 208.05 141.7 210.1 141.6"/><path fill="#68ae28" d="M192.0 54.15 Q193.7 54.05 195.3 55.45 197.1 57.0 197.1 59.15 197.1 61.15 195.55 62.6 194.05 64.0 192.15 63.85 190.0 63.7 188.6 62.0 187.45 60.6 187.45 59.15 187.45 57.45 188.75 55.9 190.15 54.35 192.0 54.15"/><path fill="#68ae28" d="M194.05 76.85 Q199.7 70.85 207.95 71.0 215.0 71.15 220.9 76.35 227.5 82.15 227.5 90.7 227.5 99.35 222.2 105.4 216.55 111.8 207.8 111.8 199.45 111.8 194.0 106.35 188.4 100.75 188.4 91.8 188.4 82.85 194.05 76.85"/><path fill="#ffee7d" d="M200.3 92.1 Q200.3 88.5 202.7 86.0 204.95 83.7 207.8 83.7 210.65 83.7 212.95 85.95 215.45 88.35 215.45 91.95 215.45 95.95 213.45 98.4 211.4 100.95 207.8 100.95 204.4 100.95 202.25 98.05 200.3 95.45 200.3 92.1"/><path fill="#68ae28" d="M174.2 45.05 Q177.7 45.05 180.05 47.7 182.15 50.1 182.15 52.95 182.15 55.8 180.25 58.0 178.0 60.6 174.2 60.6 170.55 60.6 168.1 58.6 165.45 56.5 165.45 52.95 165.45 49.4 168.0 47.2 170.45 45.05 174.2 45.05"/><path fill="#68ae28" d="M51.45 74.5 Q53.15 74.4 54.75 75.8 56.55 77.35 56.55 79.45 56.55 81.5 55.0 82.9 53.5 84.3 51.6 84.15 49.4 84.0 48.05 82.3 46.9 80.9 46.9 79.45 46.9 77.75 48.2 76.25 49.55 74.65 51.45 74.5"/><path fill="#68ae28" d="M48.1 166.0 Q49.8 165.9 51.4 167.3 53.2 168.85 53.2 171.0 53.2 173.0 51.65 174.4 50.15 175.8 48.25 175.7 46.05 175.55 44.7 173.8 43.55 172.4 43.55 171.0 43.55 169.25 44.85 167.75 46.2 166.15 48.1 166.0"/><path fill="#68ae28" d="M133.5 208.3 Q135.45 208.15 137.0 209.5 138.7 210.95 138.7 213.15 138.7 215.15 137.15 216.6 135.65 218.0 133.75 217.85 131.55 217.7 130.2 216.0 129.05 214.6 129.05 213.15 129.05 211.45 130.3 210.0 131.65 208.5 133.5 208.3"/><path fill="#68ae28" d="M51.55 93.1 Q53.65 95.85 53.65 99.15 53.65 102.4 51.8 104.95 49.55 107.95 45.85 107.95 42.3 107.95 39.9 105.65 37.3 103.2 37.3 99.15 37.3 95.0 39.8 92.45 42.15 90.0 45.85 90.0 49.25 90.0 51.55 93.1"/><path fill="#68ae28" d="M61.25 178.4 Q64.65 178.4 66.95 181.15 69.05 183.6 69.05 186.5 69.05 189.35 67.2 191.6 64.95 194.3 61.25 194.3 57.7 194.3 55.3 192.3 52.7 190.1 52.7 186.5 52.7 182.85 55.2 180.6 57.55 178.4 61.25 178.4"/><path fill="#ffee7d" d="M92.4 201.45 Q95.65 201.45 97.9 204.05 99.95 206.45 99.8 209.15 99.6 212.35 97.9 214.3 95.95 216.6 92.4 216.6 89.2 216.6 86.8 214.4 84.4 212.2 84.45 209.05 84.55 205.55 86.8 203.45 88.95 201.45 92.4 201.45"/><path fill="#68ae28" d="M153.7 200.5 Q157.1 200.5 159.4 203.2 161.5 205.6 161.5 208.5 161.5 211.3 159.65 213.55 157.4 216.15 153.7 216.15 150.1 216.15 147.7 214.15 145.1 212.05 145.1 208.5 145.1 204.85 147.6 202.65 150.0 200.5 153.7 200.5"/><path fill="#68ae28" d="M137.35 26.4 Q146.35 26.4 152.35 32.35 158.0 38.0 158.0 45.8 158.0 53.1 152.3 58.8 146.4 64.75 138.15 64.75 129.95 64.75 123.85 59.65 117.2 54.1 117.2 45.5 117.2 37.0 123.85 31.4 129.85 26.4 137.35 26.4"/><path fill="#ffee7d" d="M137.15 38.3 Q140.4 38.3 142.6 40.45 144.65 42.45 144.65 45.25 144.65 47.9 142.6 49.95 140.45 52.05 137.4 52.05 134.4 52.05 132.15 50.2 129.75 48.2 129.75 45.15 129.75 42.1 132.2 40.1 134.4 38.3 137.15 38.3"/><path fill="#68ae28" d="M84.2 36.15 Q91.9 36.6 96.05 43.9 99.95 50.65 97.8 56.95 95.5 63.7 89.6 67.6 83.65 71.5 77.45 70.25 70.5 68.85 66.8 63.05 63.0 57.0 65.1 49.6 67.15 42.5 72.8 38.95 77.8 35.8 84.2 36.15"/><path fill="#ffee7d" d="M85.85 49.65 Q87.1 52.05 86.35 54.25 85.55 56.55 83.55 57.9 81.55 59.2 79.45 58.8 77.05 58.3 75.8 56.35 74.5 54.3 75.2 51.75 75.9 49.35 77.95 47.95 79.8 46.75 81.9 46.85 84.5 47.0 85.85 49.65"/><path fill="#68ae28" d="M45.25 147.4 Q40.95 152.95 33.45 153.8 26.6 154.6 20.7 149.4 14.35 143.9 13.9 135.3 13.5 126.5 18.0 120.75 22.05 115.55 28.3 114.7 34.6 113.85 40.65 118.4 47.4 123.5 48.6 132.25 49.8 141.45 45.25 147.4"/><path fill="#ffee7d" d="M30.15 126.6 Q32.65 126.25 35.05 128.1 37.7 130.2 38.15 133.85 38.65 137.65 36.85 140.1 35.15 142.4 32.2 142.75 29.5 143.05 27.15 140.95 24.65 138.65 24.5 135.1 24.3 131.45 26.1 129.1 27.65 126.95 30.15 126.6"/><path fill="#68ae28" d="M182.9 165.4 Q191.5 165.6 196.45 173.15 201.7 181.05 198.0 190.6 195.25 197.65 189.25 201.8 182.55 206.45 175.05 204.9 166.55 203.2 163.25 195.6 160.2 188.55 163.05 180.4 165.65 172.85 171.55 168.8 176.75 165.3 182.9 165.4"/><path fill="#ffee7d" d="M181.0 177.6 Q184.65 177.55 186.65 179.7 188.65 181.8 188.65 185.7 188.65 189.6 186.55 191.85 184.5 194.1 181.0 194.1 177.7 194.1 175.45 192.15 173.05 190.05 173.05 186.35 173.05 182.15 175.45 179.8 177.6 177.7 181.0 177.6"/><path fill="#68ae28" d="M78.8 102.1 Q84.45 110.05 92.4 113.5 99.4 116.55 107.0 115.7 L110.85 128.65 Q113.8 138.45 113.95 139.95 117.0 136.1 120.25 127.3 L123.35 118.2 Q124.15 116.5 125.15 116.1 L128.55 115.8 Q135.35 115.8 145.15 111.55 155.8 106.95 159.55 101.3 160.0 107.45 158.05 114.75 155.95 122.4 152.75 125.15 146.85 130.2 140.1 131.25 133.85 132.25 125.2 130.0 L118.9 141.4 Q121.35 146.1 124.4 150.2 126.95 153.6 129.0 155.45 130.9 151.8 133.9 147.1 137.4 141.65 138.7 140.75 L145.5 149.25 Q150.4 155.55 150.75 156.35 153.65 155.4 156.75 151.25 L162.0 143.1 Q161.2 149.75 158.15 157.4 155.35 164.4 153.0 166.95 151.1 165.2 146.9 159.35 143.1 154.0 142.0 153.35 138.85 157.6 133.85 165.65 129.7 171.9 126.8 173.15 123.8 170.15 118.5 161.7 L112.35 152.15 Q110.2 153.5 103.1 163.1 96.35 172.3 95.05 172.75 92.6 170.55 88.55 163.65 84.75 157.2 84.3 155.05 82.25 159.75 80.75 162.25 79.1 164.95 76.7 167.25 73.1 163.95 70.6 156.4 69.7 153.7 67.8 145.5 70.2 148.85 73.3 152.0 75.75 154.55 77.75 156.1 79.5 150.9 82.15 146.0 L85.6 139.45 Q89.7 143.65 95.45 159.35 L104.45 148.15 Q109.85 141.05 110.25 140.1 L109.25 135.35 Q108.5 132.55 108.55 131.7 104.25 133.55 98.85 133.45 91.35 133.2 86.25 128.55 81.1 123.8 79.0 115.65 77.0 107.95 78.8 102.1"/><path fill="#56931f" d="M109.25 220.95 Q105.7 224.75 99.65 226.0 93.5 227.2 86.8 225.3 L84.3 224.45 Q97.45 223.05 109.25 220.95"/><path fill="#56931f" d="M138.6 214.1 Q138.25 215.8 136.8 216.9 135.4 217.95 133.75 217.85 131.85 217.7 130.5 216.35 L138.6 214.1"/><path fill="#56931f" d="M153.7 216.15 Q151.15 216.15 149.05 215.05 146.95 213.9 145.9 211.9 153.5 209.45 161.15 206.35 L161.5 208.5 Q161.5 211.3 159.65 213.55 157.4 216.15 153.7 216.15"/><path fill="#56931f" d="M199.25 185.9 L198.0 190.6 Q195.25 197.65 189.25 201.8 182.55 206.45 175.05 204.9 172.0 204.3 169.45 202.8 185.85 195.35 199.25 185.9"/><path fill="#0d131a" d="M80.65 191.15 Q88.4 188.05 97.2 190.95 107.5 194.35 111.75 201.4 115.95 208.25 113.1 216.65 110.85 223.35 103.25 226.1 95.6 228.85 86.5 226.3 77.4 223.8 72.65 216.15 68.05 208.85 70.35 201.8 72.8 194.3 80.65 191.15 M105.15 197.15 Q101.45 194.2 96.65 192.65 92.35 191.25 87.9 191.45 83.4 191.65 79.85 193.45 74.15 196.3 72.05 202.4 70.25 207.9 73.45 213.95 75.5 217.75 79.05 220.55 82.65 223.4 87.0 224.6 95.4 226.95 102.4 224.55 109.4 222.1 111.4 216.05 113.6 209.6 110.65 203.75 108.8 200.05 105.15 197.15"/><path fill="#0d131a" d="M243.0 65.1 Q248.25 74.8 248.85 79.85 249.25 83.3 254.0 91.75 258.6 99.85 258.7 102.7 L257.7 110.95 Q256.75 118.45 257.35 127.15 257.35 138.7 254.2 152.75 251.05 166.8 245.6 179.65 L244.6 181.55 Q244.15 181.7 243.65 179.55 240.25 165.7 236.9 155.45 235.4 161.6 233.7 166.6 231.75 172.3 230.1 174.6 229.15 175.9 228.95 175.45 L228.8 174.25 Q228.4 169.7 227.4 165.4 226.4 161.25 225.3 159.1 L222.25 170.3 Q220.75 175.65 220.3 179.1 220.0 181.5 220.0 185.2 220.0 191.5 217.6 200.75 215.15 210.3 212.7 212.5 210.8 214.2 206.0 216.6 196.95 221.1 191.6 224.05 181.35 229.7 172.9 234.6 163.3 240.2 161.85 241.55 153.0 249.5 134.9 250.55 132.35 250.7 134.4 249.25 147.7 239.55 151.45 234.85 148.95 234.75 140.2 235.0 L131.9 235.3 Q130.6 235.35 130.6 234.9 130.6 234.5 131.5 233.95 L144.05 226.7 Q140.4 225.5 134.5 226.85 127.95 228.3 121.5 232.4 114.65 236.75 100.3 238.8 86.7 240.7 80.0 238.9 63.45 234.4 48.7 227.0 38.8 222.0 24.1 212.5 L15.65 206.9 8.8 202.75 8.05 202.2 Q7.9 201.85 8.8 201.45 12.05 200.05 23.8 202.5 36.8 205.25 38.9 205.1 31.8 200.6 20.85 192.3 L18.95 190.75 Q17.6 189.55 19.4 189.6 L25.3 189.85 31.15 190.55 37.0 192.1 43.2 192.9 Q40.2 190.25 32.4 180.25 L23.85 169.5 Q16.0 162.3 8.85 152.95 2.0 144.05 0.95 140.1 0.0 136.7 0.05 127.5 0.05 117.75 1.2 107.05 4.15 79.3 11.6 68.7 12.1 68.0 12.4 68.1 L12.85 68.8 Q14.15 71.35 15.9 76.75 17.45 81.7 17.85 83.85 L18.2 86.9 Q18.65 90.25 19.2 91.8 19.7 87.95 20.3 85.7 20.7 84.1 21.65 81.75 L23.6 76.9 Q24.55 74.4 25.0 76.95 25.65 80.2 27.5 86.15 29.15 82.25 29.6 77.8 29.95 74.75 31.55 71.05 32.2 69.5 34.55 65.05 35.95 62.45 37.55 57.9 39.3 52.85 40.7 50.0 45.15 40.75 66.1 26.9 73.9 21.75 81.3 17.8 88.2 14.05 90.25 13.75 92.9 13.35 105.0 16.3 L118.25 19.45 Q128.05 12.85 137.7 7.35 149.8 0.5 153.9 0.05 156.95 -0.3 169.05 1.65 182.55 3.75 195.0 6.95 206.35 10.5 220.85 20.05 L223.25 21.8 Q224.25 22.75 222.0 22.5 L206.4 21.4 193.7 20.75 Q196.65 22.7 202.65 28.0 203.45 28.7 203.35 29.0 L202.2 29.25 188.2 29.85 191.05 32.5 194.05 34.95 Q195.4 35.75 205.05 37.45 L217.0 39.25 Q219.65 39.4 227.3 46.1 L234.45 52.8 Q237.85 55.7 243.0 65.1 M251.9 92.5 Q246.8 83.35 246.15 79.65 245.15 74.35 240.25 65.75 235.5 57.4 232.0 54.4 L225.45 48.1 Q219.15 42.45 216.9 42.25 214.15 42.0 204.45 39.8 194.2 37.55 192.6 36.6 191.8 36.15 188.95 33.35 L185.25 29.75 Q184.85 29.35 184.9 29.1 184.95 28.65 186.05 28.25 L192.3 27.7 198.4 27.65 Q192.5 21.9 188.4 19.85 187.5 19.4 187.65 18.85 187.8 18.3 188.85 18.5 L216.65 20.7 Q209.35 15.85 205.4 13.7 199.55 10.45 193.85 8.65 182.05 5.65 168.8 4.0 L154.4 2.95 Q148.95 3.4 134.05 12.15 119.85 20.95 118.85 21.3 117.6 21.8 105.5 18.75 93.25 15.7 91.75 16.1 80.65 18.9 62.2 32.75 44.85 45.75 42.4 51.4 L39.1 59.85 Q37.2 64.75 36.2 66.5 34.1 70.45 33.2 72.65 31.55 76.5 31.2 79.4 30.85 82.9 28.35 88.75 L27.5 90.35 Q27.0 90.95 26.6 89.6 L25.8 86.8 Q24.5 82.4 24.15 80.75 L23.35 82.8 Q22.2 85.7 21.7 87.65 20.85 90.85 20.35 95.75 20.3 96.6 19.8 96.65 19.4 96.65 19.0 96.05 18.05 94.45 16.9 89.45 L15.95 84.75 14.5 79.25 12.1 72.55 Q7.6 79.9 5.0 95.3 2.7 108.85 2.7 122.95 2.7 134.35 4.25 140.15 5.25 143.95 11.6 152.25 18.2 161.0 25.85 168.15 27.7 169.85 31.65 175.55 35.9 181.55 38.3 184.4 42.7 189.75 47.5 193.7 48.85 194.8 47.1 194.95 43.05 195.3 34.0 193.35 25.05 191.45 23.4 191.65 37.4 202.0 43.6 205.75 44.1 206.05 44.05 206.5 44.05 207.0 43.3 207.05 L35.9 206.85 27.3 205.3 19.75 203.7 13.6 203.15 Q16.7 204.8 24.05 209.45 38.45 218.6 48.15 223.6 64.85 232.25 80.85 236.55 86.75 238.15 100.35 236.4 114.7 234.55 121.1 230.7 128.6 226.15 135.9 224.75 142.35 223.55 146.1 225.15 147.8 225.85 146.95 226.5 L135.8 233.4 Q150.4 233.0 153.1 233.15 154.1 233.2 154.4 233.6 154.65 233.9 154.35 234.25 150.9 239.25 139.15 248.05 152.85 246.55 161.05 239.15 162.1 238.25 185.5 225.25 208.8 212.35 210.25 211.0 212.45 209.0 214.85 201.9 217.4 194.3 217.55 188.0 217.4 183.2 218.2 178.75 218.8 175.45 220.7 168.75 L224.15 156.05 Q224.45 154.75 225.35 155.75 226.7 157.25 228.05 161.5 229.35 165.7 230.0 170.6 233.05 164.55 236.1 150.85 236.2 150.3 236.65 150.1 237.15 149.85 237.45 150.8 L239.9 158.15 244.55 174.45 Q254.7 149.4 254.7 127.35 255.95 106.95 256.35 102.9 256.55 100.9 251.9 92.5"/><path fill="#0d131a" d="M106.75 273.95 Q91.2 271.0 82.15 255.55 78.7 249.7 77.7 244.3 76.75 239.1 78.6 237.6 L80.05 237.8 Q81.25 238.2 81.0 238.4 79.3 239.75 80.5 244.6 81.7 249.55 85.2 255.05 94.25 269.4 107.85 271.95 117.05 273.7 125.1 273.9 L143.25 273.15 Q147.5 272.85 162.7 269.35 169.7 267.8 175.25 263.5 180.8 259.25 183.3 253.45 185.1 249.25 184.25 240.4 183.35 231.35 180.65 229.4 180.4 229.25 181.3 228.65 182.2 228.0 182.45 228.15 185.3 230.2 186.95 238.7 188.75 248.0 186.15 253.95 183.5 260.1 177.6 264.8 171.7 269.5 164.4 271.2 147.85 274.75 143.5 275.1 L128.25 276.1 Q118.35 276.15 106.75 273.95"/><path fill="#0d131a" d="M83.2 247.2 Q81.9 245.8 82.4 245.3 82.95 244.8 84.25 246.2 85.4 247.45 87.15 248.7 89.0 250.05 90.3 250.6 91.8 251.3 91.5 251.95 91.2 252.6 89.7 251.95 88.25 251.3 86.35 249.9 L83.2 247.2"/><path fill="#0d131a" d="M106.8 256.65 L103.35 255.85 Q100.05 255.05 99.0 254.2 97.25 252.85 97.45 252.4 97.65 251.95 99.65 252.95 101.2 253.65 104.05 254.3 L107.45 255.4 Q108.95 256.15 112.45 257.3 L117.7 258.65 Q122.25 259.1 130.1 258.7 L133.55 258.65 137.4 258.35 Q139.3 258.05 139.45 258.8 139.55 259.5 137.65 259.8 L129.6 260.55 118.45 260.25 Q116.8 260.1 112.5 258.75 108.35 257.45 106.8 256.65"/><path fill="#0d131a" d="M153.45 257.35 Q150.9 257.45 150.85 256.75 150.8 256.0 153.4 255.9 158.1 255.7 163.0 253.7 165.9 252.5 171.7 249.3 174.1 247.9 174.45 248.55 174.85 249.2 172.4 250.55 166.45 253.85 163.45 255.1 158.35 257.15 153.45 257.35"/><path fill="#0d131a" d="M211.15 120.3 Q214.05 117.4 218.05 117.4 222.05 117.4 225.25 121.05 228.25 124.45 228.15 128.0 228.0 131.7 225.55 134.85 222.75 138.4 218.5 138.4 213.8 138.4 210.75 135.35 207.95 132.5 207.95 128.65 207.95 123.5 211.15 120.3 M218.05 119.25 Q214.75 119.25 212.4 121.65 209.75 124.3 209.75 128.6 209.75 131.5 211.85 133.85 214.35 136.6 218.5 136.6 221.85 136.6 224.2 133.6 226.2 131.0 226.3 127.95 226.45 124.5 223.85 121.8 221.3 119.25 218.05 119.25"/><path fill="#0d131a" d="M210.05 140.65 Q212.9 140.5 214.75 142.5 216.5 144.35 216.5 146.95 216.5 149.3 214.4 151.25 212.35 153.2 210.2 153.05 207.55 152.85 205.85 150.75 204.3 148.9 204.3 146.95 204.3 144.7 205.9 142.8 207.6 140.8 210.05 140.65 M213.45 143.55 Q212.05 142.2 210.15 142.3 208.4 142.4 207.1 143.9 205.9 145.3 205.9 146.95 205.9 148.2 206.95 149.55 208.25 151.25 210.3 151.4 211.95 151.55 213.4 150.25 214.85 148.9 214.85 146.95 214.85 144.85 213.45 143.55"/><path fill="#0d131a" d="M195.75 55.0 Q197.85 56.8 197.85 59.15 197.85 61.2 195.95 62.95 194.1 64.7 192.1 64.55 189.7 64.4 188.15 62.55 186.75 60.9 186.75 59.15 186.75 57.15 188.2 55.45 189.75 53.65 191.95 53.45 193.8 53.3 195.75 55.0 M196.4 59.15 Q196.4 57.4 195.0 56.1 193.45 54.75 192.05 54.9 190.5 55.0 189.3 56.4 188.2 57.7 188.2 59.15 188.2 60.25 189.15 61.45 190.3 62.95 192.2 63.1 193.75 63.25 195.1 62.05 196.4 60.75 196.4 59.15"/><path fill="#0d131a" d="M187.05 91.8 Q187.05 82.45 192.95 76.25 198.9 70.0 207.95 70.15 215.3 70.3 221.7 75.55 229.1 81.6 229.1 90.7 229.1 99.85 224.05 105.8 218.35 112.45 207.8 112.9 198.95 113.25 193.0 107.1 187.05 101.0 187.05 91.8 M195.05 76.85 Q192.2 79.7 190.65 83.55 189.1 87.45 189.1 91.8 189.1 100.3 194.35 105.7 199.55 111.05 207.8 111.05 216.55 111.05 221.95 104.6 226.8 98.75 226.8 90.7 226.8 82.4 220.25 76.75 214.55 71.85 207.95 71.7 200.35 71.6 195.05 76.85"/><path fill="#ffee7d" d="M212.85 98.0 Q214.7 95.75 214.7 91.95 214.7 88.75 212.45 86.5 210.4 84.4 207.8 84.4 205.2 84.4 203.2 86.55 201.05 88.8 201.05 92.1 201.05 95.25 202.85 97.6 204.8 100.2 207.8 100.2 211.0 100.2 212.85 98.0 M199.4 92.1 Q199.4 88.1 202.1 85.35 204.6 82.75 207.8 82.75 211.05 82.75 213.6 85.3 216.35 88.0 216.35 91.9 216.35 96.45 214.05 99.15 211.7 101.9 207.8 101.9 204.05 101.9 201.65 98.8 199.4 95.95 199.4 92.1"/><path fill="#0d131a" d="M167.25 46.6 Q169.95 44.1 174.2 44.1 177.95 44.1 180.6 46.95 183.05 49.65 183.05 52.95 183.05 56.0 180.55 58.7 177.7 61.8 173.5 61.8 169.75 61.8 167.25 59.5 164.55 57.05 164.55 52.95 164.55 49.05 167.25 46.6 M179.55 48.25 Q177.4 45.75 174.2 45.75 170.65 45.75 168.45 47.75 166.2 49.75 166.2 52.95 166.2 56.3 168.75 58.25 171.0 59.9 174.2 59.9 177.6 59.9 179.65 57.5 181.4 55.5 181.4 52.95 181.4 50.45 179.55 48.25"/><path fill="#0d131a" d="M55.35 75.3 Q57.3 77.05 57.3 79.45 57.3 81.9 55.25 83.55 53.4 85.05 51.55 84.9 49.15 84.7 47.6 82.85 46.2 81.2 46.2 79.45 46.2 77.45 47.65 75.75 49.2 73.95 51.4 73.8 53.5 73.6 55.35 75.3 M55.85 79.45 Q55.85 77.35 54.05 76.1 52.65 75.15 51.5 75.2 49.9 75.35 48.75 76.75 47.6 78.05 47.6 79.45 47.6 80.55 48.55 81.8 49.75 83.3 51.65 83.45 53.65 83.6 54.75 82.45 55.85 81.4 55.85 79.45"/><path fill="#0d131a" d="M44.25 167.3 Q45.85 165.5 48.05 165.3 50.15 165.1 52.0 166.8 53.9 168.55 53.9 171.0 53.9 173.3 52.15 174.95 50.4 176.55 48.15 176.4 45.75 176.25 44.2 174.4 42.8 172.75 42.8 171.0 42.8 169.0 44.25 167.3 M52.45 171.0 Q52.45 169.25 51.05 167.95 49.6 166.6 48.15 166.75 46.55 166.85 45.4 168.25 44.25 169.55 44.25 171.0 44.25 172.1 45.2 173.3 46.4 174.8 48.3 174.95 49.85 175.1 51.15 173.9 52.45 172.7 52.45 171.0"/><path fill="#0d131a" d="M133.45 207.6 Q135.75 207.4 137.6 209.2 139.4 210.9 139.4 213.15 139.4 215.1 137.75 216.85 135.95 218.75 133.65 218.55 131.25 218.4 129.7 216.55 128.3 214.9 128.3 213.15 128.3 211.2 129.75 209.55 131.25 207.8 133.45 207.6 M136.65 210.15 Q135.3 208.9 133.6 209.05 132.0 209.2 130.85 210.5 129.75 211.75 129.75 213.15 129.75 214.25 130.7 215.45 131.85 216.95 133.8 217.1 135.55 217.25 136.65 216.4 137.95 215.4 137.95 213.15 137.95 211.4 136.65 210.15"/><path fill="#0d131a" d="M45.85 89.25 Q49.7 89.25 52.2 92.55 54.45 95.45 54.45 98.9 54.45 102.35 52.35 105.25 49.85 108.65 45.85 108.65 42.05 108.65 39.25 106.25 36.05 103.55 36.05 99.15 36.05 94.8 38.9 92.0 41.7 89.25 45.85 89.25 M51.1 93.65 Q49.0 90.7 45.85 90.7 42.4 90.7 40.2 93.05 38.0 95.4 38.0 99.15 38.0 103.05 40.5 105.25 42.7 107.2 45.85 107.2 49.2 107.2 51.2 104.45 52.9 102.1 52.9 99.15 52.9 96.2 51.1 93.65"/><path fill="#0d131a" d="M54.75 193.0 Q51.8 190.55 51.8 186.5 51.8 182.55 54.45 180.0 57.1 177.5 61.3 177.5 65.0 177.5 67.6 180.4 70.1 183.15 70.0 186.5 69.85 189.9 67.85 192.35 65.45 195.2 61.3 195.2 57.45 195.2 54.75 193.0 M55.65 181.2 Q53.45 183.25 53.45 186.5 53.45 189.9 55.95 191.85 58.15 193.55 61.25 193.55 64.6 193.55 66.65 191.15 68.35 189.1 68.35 186.5 68.35 183.95 66.55 181.7 64.45 179.15 61.25 179.15 57.8 179.15 55.65 181.2"/><path fill="#ffee7d" d="M92.45 200.35 Q95.95 200.35 98.45 203.0 99.7 204.3 100.35 206.0 101.0 207.65 100.9 209.25 100.65 213.25 98.4 215.45 96.15 217.7 92.45 217.7 88.45 217.7 85.7 214.85 83.25 212.4 83.35 209.05 83.45 205.15 85.95 202.75 88.5 200.35 92.45 200.35 M99.05 209.15 Q99.2 206.55 97.15 204.3 95.15 202.15 92.4 202.15 89.2 202.15 87.25 204.05 85.25 205.95 85.15 209.1 85.15 211.75 87.0 213.6 89.2 215.9 92.4 215.9 96.05 215.9 97.8 213.3 98.95 211.55 99.05 209.15"/><path fill="#0d131a" d="M153.7 199.6 Q157.35 199.6 159.95 202.5 162.4 205.15 162.4 208.5 162.4 211.6 160.3 214.15 157.8 217.1 153.7 217.1 149.85 217.1 147.15 214.9 144.2 212.5 144.2 208.5 144.2 204.55 146.85 202.1 149.5 199.6 153.7 199.6 M160.75 208.5 Q160.75 205.95 158.95 203.75 156.85 201.25 153.7 201.25 150.2 201.25 148.05 203.25 145.85 205.3 145.85 208.5 145.85 211.85 148.35 213.75 150.55 215.45 153.7 215.45 157.05 215.45 159.05 213.05 160.75 211.05 160.75 208.5"/><path fill="#0d131a" d="M122.8 30.7 Q129.15 25.3 137.35 25.3 147.35 25.3 153.55 31.35 159.55 37.15 159.35 45.8 159.15 53.8 153.4 59.55 147.35 65.6 138.15 65.8 129.55 66.05 122.95 60.55 115.85 54.6 115.85 45.5 115.85 36.6 122.8 30.7 M157.25 45.8 Q157.25 38.45 151.95 33.0 146.25 27.1 137.35 27.1 130.4 27.1 124.55 31.8 117.9 37.2 117.9 45.5 117.9 53.8 124.3 59.1 130.2 64.0 138.15 64.0 146.2 64.0 151.9 58.15 157.25 52.65 157.25 45.8"/><path fill="#ffee7d" d="M128.85 45.15 Q128.85 41.75 131.5 39.5 133.95 37.4 137.15 37.4 140.9 37.4 143.35 39.9 145.6 42.2 145.6 45.25 145.6 48.15 143.3 50.45 140.9 52.95 137.4 52.95 134.05 52.95 131.55 50.85 128.85 48.6 128.85 45.15 M137.15 39.0 Q134.75 39.0 132.8 40.6 130.5 42.35 130.5 45.15 130.5 47.9 132.7 49.65 134.7 51.3 137.4 51.3 140.15 51.3 142.1 49.35 143.95 47.5 143.95 45.25 143.95 42.8 142.15 41.0 140.2 39.0 137.15 39.0"/><path fill="#0d131a" d="M84.3 35.05 Q91.95 35.5 96.85 42.8 101.75 50.1 99.35 57.25 96.9 64.45 90.4 68.55 83.9 72.65 77.25 71.3 69.4 69.75 65.6 63.35 61.85 57.05 64.05 49.35 66.25 41.6 72.5 37.85 77.7 34.7 84.3 35.05 M94.75 43.15 Q92.85 40.3 90.1 38.7 87.35 37.1 84.15 36.9 78.2 36.55 73.45 39.4 67.8 42.8 65.8 49.8 63.8 56.65 67.3 62.4 68.95 65.15 71.65 67.0 74.35 68.9 77.6 69.55 83.6 70.7 89.25 67.0 94.9 63.3 97.1 56.7 98.1 53.7 97.45 49.95 96.8 46.25 94.75 43.15"/><path fill="#ffee7d" d="M82.0 45.95 Q84.65 46.1 86.25 48.5 87.15 49.85 87.45 51.5 87.7 53.15 87.25 54.55 86.35 57.2 84.0 58.7 81.7 60.2 79.25 59.7 76.4 59.05 74.95 56.75 73.5 54.3 74.35 51.5 75.15 48.65 77.5 47.15 79.6 45.85 82.0 45.95 M84.9 49.4 Q83.7 47.65 81.85 47.6 80.0 47.5 78.4 48.5 76.55 49.7 75.9 51.95 75.3 54.05 76.35 55.85 77.45 57.6 79.6 58.1 81.4 58.45 83.2 57.25 85.0 56.05 85.7 54.0 86.05 53.05 85.8 51.75 85.6 50.45 84.9 49.4"/><path fill="#0d131a" d="M42.3 118.05 Q49.2 123.75 50.3 132.1 51.55 141.45 46.7 147.95 41.95 154.25 33.6 155.1 24.8 156.0 18.65 149.4 13.1 143.5 12.7 135.4 12.2 125.9 17.2 119.75 21.55 114.3 28.1 113.4 35.5 112.4 42.3 118.05 M44.35 147.1 Q49.1 141.25 47.9 132.35 47.0 125.7 41.2 120.25 35.05 114.45 28.4 115.4 22.5 116.25 18.6 121.15 14.2 126.7 14.65 135.3 15.05 143.55 20.8 148.8 26.4 153.85 33.4 153.1 40.15 152.3 44.35 147.1"/><path fill="#ffee7d" d="M35.95 127.3 Q38.7 129.65 39.2 133.7 39.65 137.3 37.7 140.35 35.65 143.45 32.3 143.85 28.9 144.25 26.2 141.5 23.6 138.85 23.45 135.15 23.25 131.0 25.35 128.3 27.2 125.9 30.0 125.5 33.25 125.0 35.95 127.3 M37.45 133.95 Q37.0 130.3 34.9 128.55 33.0 126.9 30.25 127.3 28.05 127.65 26.6 129.55 25.05 131.65 25.2 135.05 25.35 138.3 27.55 140.35 29.6 142.3 32.1 142.05 35.0 141.7 36.4 139.75 37.9 137.65 37.45 133.95"/><path fill="#0d131a" d="M182.95 164.3 Q192.65 164.5 197.65 173.1 202.65 181.6 199.0 190.95 196.1 198.35 189.75 202.75 182.75 207.6 174.8 206.0 166.05 204.25 162.4 197.5 158.5 190.3 162.05 180.05 164.9 171.9 171.4 167.7 176.8 164.15 182.95 164.3 M190.15 168.15 Q186.75 166.25 182.9 166.15 177.25 166.0 172.3 169.25 166.35 173.1 163.75 180.6 162.25 184.85 162.5 189.2 162.8 193.5 164.7 196.95 168.1 202.85 175.2 204.2 182.45 205.65 188.85 201.2 194.65 197.15 197.3 190.3 199.05 185.9 198.65 181.5 198.25 177.05 195.8 173.4 193.55 170.05 190.15 168.15"/><path fill="#ffee7d" d="M175.0 178.95 Q177.45 176.8 181.0 176.7 184.9 176.6 187.25 179.05 189.55 181.45 189.55 185.7 189.55 189.95 187.25 192.45 184.9 195.0 181.0 195.0 177.45 195.0 174.95 192.9 172.1 190.5 172.1 186.35 172.1 181.55 175.0 178.95 M176.05 180.25 Q173.75 182.35 173.75 186.35 173.75 189.75 176.05 191.65 178.05 193.35 181.0 193.35 184.25 193.35 186.1 191.35 187.9 189.3 187.9 185.7 187.9 178.15 181.0 178.35 178.0 178.45 176.05 180.25"/><path fill="#0d131a" d="M79.2 103.75 Q78.1 108.9 79.35 114.8 81.05 122.8 86.75 128.0 91.6 132.45 98.25 132.75 103.2 133.0 107.5 131.15 L108.6 131.1 109.1 132.1 110.05 135.7 111.0 140.05 105.25 148.0 Q99.0 156.45 96.0 159.85 95.2 160.85 94.8 159.6 89.3 145.2 85.8 140.75 L78.45 156.35 78.1 156.8 77.3 156.65 Q73.4 153.7 69.2 148.5 72.1 161.5 76.75 166.2 78.85 164.05 80.4 161.4 81.8 159.05 83.65 154.75 84.55 152.7 85.0 154.9 85.45 156.8 88.95 162.9 92.7 169.4 95.15 171.85 L103.2 161.85 Q110.7 152.35 112.0 151.55 112.55 151.2 112.9 151.7 L119.7 162.35 Q126.05 172.2 126.95 172.25 127.8 172.25 133.9 163.65 L141.4 152.9 Q141.75 152.4 142.35 152.7 142.95 153.05 147.9 159.65 152.65 166.0 152.95 165.9 154.2 165.4 156.5 159.8 158.95 153.8 160.45 147.0 155.65 155.55 151.0 157.05 150.35 157.25 150.1 156.65 L145.4 150.35 138.65 141.8 Q137.2 143.25 134.1 148.15 131.4 152.45 129.65 155.75 129.25 156.55 128.85 156.35 L128.2 155.65 Q126.05 153.75 123.55 150.3 120.7 146.4 118.25 141.75 118.1 141.4 118.4 140.8 L118.95 139.85 124.55 129.65 Q124.85 129.2 125.4 129.3 141.35 133.45 150.35 125.9 158.8 118.75 158.9 103.35 154.25 108.6 144.25 112.75 134.95 116.55 128.55 116.55 L125.4 116.8 Q124.7 117.1 124.05 118.5 L120.8 127.55 Q117.05 137.25 114.5 140.4 114.15 140.9 113.7 140.85 113.25 140.8 113.2 140.05 L109.9 128.0 106.45 116.5 Q98.65 117.2 91.55 113.9 84.45 110.55 79.2 103.75 M163.05 140.75 Q163.45 140.85 163.25 142.4 162.4 149.1 158.75 158.75 155.1 168.15 153.5 168.35 152.2 168.45 147.35 162.1 142.55 155.45 142.0 154.95 L134.15 166.95 Q128.75 174.8 126.6 174.45 125.15 174.2 119.7 165.9 116.15 160.45 112.15 153.6 111.5 154.1 103.75 164.55 96.6 174.15 95.35 174.1 93.9 174.05 89.7 167.1 86.1 161.2 84.25 156.95 82.5 160.9 80.25 164.5 77.75 168.35 76.8 168.3 74.0 168.05 71.15 161.1 68.8 155.4 66.9 146.75 66.65 145.15 66.9 144.4 67.2 143.5 68.15 144.8 71.35 149.35 77.45 154.6 L84.95 139.15 Q85.35 138.15 86.15 138.95 88.55 141.45 91.65 147.4 94.35 152.5 96.05 157.05 L103.95 146.95 109.0 139.85 108.3 136.2 107.65 133.0 Q102.85 134.8 97.2 134.4 89.85 133.85 84.9 129.35 79.6 124.45 77.7 115.6 75.95 107.55 77.85 101.4 78.3 100.0 79.15 101.2 84.3 108.45 91.8 112.05 99.3 115.65 107.25 114.75 107.5 114.7 107.8 115.0 L108.2 115.55 114.3 137.95 Q116.45 134.75 119.6 126.05 L122.35 118.05 Q123.6 115.4 124.05 115.1 L128.2 114.65 Q134.85 114.65 144.8 110.4 155.6 105.8 159.2 100.4 159.65 99.75 160.05 99.85 160.45 100.0 160.5 100.75 161.7 118.15 153.1 126.6 143.8 135.8 125.7 131.25 L120.05 141.35 Q124.2 149.25 128.7 153.65 130.25 150.85 133.6 146.1 136.55 142.0 138.0 140.35 138.55 139.8 139.2 140.15 L140.3 141.2 Q148.7 151.35 151.1 154.95 154.2 152.9 156.9 149.6 159.3 146.6 161.9 142.05 162.65 140.65 163.05 140.75"/><path fill="#0d131a" d="M144.2 114.1 Q147.2 115.1 147.65 119.3 148.15 124.0 143.15 126.25 L140.7 126.55 Q139.3 126.4 138.5 125.8 136.55 124.45 136.45 122.0 136.35 119.3 138.95 118.0 L140.6 117.85 Q141.45 118.05 142.1 118.7 142.6 119.2 142.75 120.0 142.85 120.8 142.6 121.4 142.0 122.9 141.45 122.7 140.9 122.5 141.5 121.15 141.95 120.2 141.25 119.6 140.55 119.0 139.35 119.4 138.5 119.7 138.0 120.7 137.5 121.7 137.8 122.6 138.95 126.3 142.6 124.9 144.85 124.05 145.8 121.7 146.6 119.75 146.1 118.2 145.5 116.25 143.45 115.35 141.25 114.4 138.65 115.4 135.35 116.7 134.0 119.85 132.35 123.8 135.4 127.4 138.7 131.3 144.35 129.5 140.3 131.55 138.6 131.25 134.75 130.6 132.95 126.65 131.2 122.8 132.7 119.25 134.25 115.6 138.15 114.05 140.95 113.0 144.2 114.1"/><path fill="#0d131a" d="M93.5 114.45 Q96.6 113.65 99.6 115.3 102.5 116.95 103.95 120.2 105.25 123.05 105.1 125.9 104.9 128.6 103.4 130.75 101.95 132.75 99.95 133.45 L97.15 133.6 Q95.2 133.5 95.25 133.2 95.25 132.5 96.0 132.5 100.25 132.8 102.15 130.0 103.4 128.2 103.45 125.5 103.5 122.75 102.3 120.2 100.95 117.2 98.4 116.1 L93.85 115.85 Q91.15 116.55 89.8 119.35 88.5 122.1 89.65 124.55 91.2 127.8 94.5 127.8 97.5 127.85 98.75 125.95 99.9 124.25 98.9 121.8 97.85 119.25 95.4 120.25 92.7 121.35 94.55 123.3 95.45 124.25 94.75 124.45 94.1 124.7 93.3 123.75 92.25 122.55 92.85 120.95 93.4 119.35 94.95 118.85 98.25 117.85 99.95 120.95 101.55 123.85 100.1 126.5 99.1 128.45 96.55 129.0 94.2 129.45 92.0 128.6 89.45 127.55 88.35 125.15 86.95 122.1 88.35 118.85 89.8 115.45 93.5 114.45"/></g></svg>