<?xml version='1.0' encoding='utf-8'?>
<svg xmlns="http://www.w3.org/2000/svg" version="1.1" width="545px" height="308px" viewBox="-0.2 -0.05 544.6 308.35"><g><path fill="#922169" d="M381.6 195.5 Q382.0 182.45 393.9 176.6 402.4 172.4 412.95 172.9 422.35 173.35 430.8 178.9 441.6 185.95 442.55 197.65 443.5 209.1 435.8 216.05 430.45 220.8 423.0 222.3 409.35 225.0 396.5 217.7 399.2 214.25 399.2 209.6 399.2 204.95 396.5 200.6 393.95 196.5 389.6 195.3 385.85 194.3 381.6 195.5"/><path fill="#922169" d="M365.35 39.05 Q366.3 40.35 366.15 43.6 368.35 52.9 366.65 65.8 365.05 78.15 360.4 90.45 355.7 102.95 349.2 111.75 342.25 121.2 334.95 124.05 324.85 128.0 314.45 125.2 304.65 122.55 300.4 115.9 305.6 114.6 310.65 111.2 314.6 108.5 317.9 104.95 L326.2 82.05 Q327.95 78.65 325.55 70.6 323.75 64.7 320.25 57.7 335.9 45.25 360.9 38.2 364.15 37.3 365.35 39.05"/><path fill="#ba7aa5" d="M382.45 80.4 Q384.95 80.1 385.75 81.65 386.25 82.55 386.15 84.65 385.05 105.1 376.6 121.15 368.7 136.2 357.95 141.05 348.2 145.5 339.15 140.35 330.75 135.55 328.0 126.1 342.85 122.8 352.9 106.5 357.7 98.8 362.65 84.35 372.4 81.55 382.45 80.4"/><path fill="#ba7aa5" d="M345.9 272.45 Q345.5 268.15 343.55 267.05 341.45 265.85 337.65 267.9 334.6 269.6 331.0 273.05 328.15 275.8 327.15 279.8 326.25 283.3 327.1 285.85 323.95 283.35 320.1 281.35 294.9 289.8 267.45 282.75 243.0 276.45 223.3 260.05 207.45 264.35 194.7 270.2 187.8 273.35 176.05 280.05 174.3 281.05 172.95 281.3 L169.65 281.05 Q168.1 280.5 166.45 279.1 L163.1 275.8 Q160.5 273.25 158.55 266.6 157.75 263.7 160.45 258.75 165.0 250.45 177.5 238.9 186.65 230.4 198.05 221.85 210.6 230.05 228.65 230.4 246.6 230.75 259.75 223.2 272.8 215.65 275.45 201.55 278.1 187.55 268.8 176.25 297.0 174.9 322.0 192.15 344.6 207.75 356.85 232.5 L367.2 243.75 Q371.2 246.75 378.45 256.3 L387.15 268.25 Q383.5 267.55 379.35 272.5 375.7 276.95 374.3 281.95 364.3 277.85 345.9 272.45"/><path fill="#ba7aa5" d="M248.95 82.35 Q255.75 91.8 264.75 97.5 271.6 101.85 277.5 102.9 279.7 99.95 282.05 97.7 284.05 95.8 285.4 95.1 287.8 100.8 288.8 105.3 295.05 99.05 298.5 96.45 300.75 98.45 303.5 107.3 307.65 99.85 309.4 98.4 311.45 101.3 311.85 106.05 313.65 105.3 316.35 102.5 L318.2 104.8 Q312.0 111.9 303.4 114.95 297.9 116.9 288.95 117.65 287.6 133.35 272.2 137.65 258.65 141.45 242.95 135.3 228.5 129.6 220.9 119.95 212.8 109.8 214.4 97.65 228.95 100.05 238.35 94.45 245.1 90.45 248.95 82.35"/><path fill="#ba7aa5" d="M285.0 38.1 Q286.0 38.25 286.4 41.55 295.0 43.25 305.8 48.85 308.45 46.6 310.45 45.75 L323.6 65.45 Q328.0 73.05 326.8 82.25 L251.85 59.2 Q249.9 47.6 247.2 38.65 L247.85 35.7 Q248.35 33.65 249.2 32.3 L270.65 39.8 276.65 40.1 281.6 40.8 Q284.05 38.0 285.0 38.1"/><path fill="#922169" d="M500.2 180.35 Q507.9 186.85 509.6 195.4 L499.65 217.5 Q486.5 226.6 468.6 219.35 468.75 209.25 465.1 200.8 462.65 195.15 456.25 186.35 459.05 178.65 467.25 175.15 474.6 172.05 483.9 173.1 492.75 174.1 500.2 180.35"/><path fill="#922169" d="M385.2 232.5 Q388.85 243.1 388.9 249.3 388.95 257.75 383.1 262.65 369.6 244.2 356.45 232.25 352.25 224.8 350.3 222.1 352.0 218.55 354.9 213.95 357.55 209.75 359.15 207.9 360.8 206.0 362.45 205.55 364.4 205.1 366.05 206.8 L376.65 217.85 Q382.6 224.85 385.2 232.5"/><path fill="#922169" d="M47.4 76.7 Q55.6 71.95 63.95 71.7 73.25 71.45 80.65 74.1 90.75 77.7 96.75 86.45 103.9 96.85 101.75 107.1 100.05 115.15 93.55 120.7 L68.05 129.0 Q47.5 128.4 38.5 116.3 30.25 105.25 35.1 90.65 37.9 82.2 47.4 76.7"/><path fill="#922169" d="M252.05 59.55 Q254.15 75.1 247.95 85.0 242.35 94.0 230.3 97.8 220.2 101.0 209.85 96.15 201.4 92.2 198.5 86.75 203.8 83.55 206.3 78.4 207.45 76.05 208.85 70.1 210.85 61.8 208.6 51.2 206.35 40.75 200.7 31.35 202.75 24.6 208.1 15.7 212.2 8.85 216.75 3.05 218.2 1.15 219.7 0.9 221.4 0.55 223.5 2.25 236.6 12.65 244.75 32.65 250.2 46.15 252.05 59.55"/><path fill="#ed8599" d="M262.05 95.55 Q254.6 89.95 248.95 82.35 253.5 79.85 255.75 76.8 257.75 74.1 258.45 70.25 274.6 69.45 289.65 76.65 301.85 82.5 311.55 92.55 311.55 94.6 313.15 97.65 314.45 100.15 316.35 102.5 314.6 104.25 311.85 106.05 311.25 100.75 309.4 98.4 307.85 99.8 303.25 107.05 302.35 103.55 301.05 100.6 299.65 97.45 298.5 96.45 296.95 97.25 288.8 105.3 288.5 103.35 287.4 100.0 286.25 96.6 285.4 95.1 L281.5 98.5 Q279.1 100.9 277.3 103.2 269.85 101.4 262.05 95.55"/><path fill="#922f00" d="M327.15 78.95 L326.8 82.25 Q318.8 80.25 314.75 83.9 311.4 86.9 311.55 92.55 299.85 80.45 284.9 74.7 271.7 69.6 258.45 70.25 259.05 66.7 256.85 63.45 254.55 60.1 250.35 58.75 259.4 56.45 268.65 56.1 276.35 55.85 280.55 56.9 L283.75 61.9 Q286.45 66.4 287.85 67.95 289.85 66.3 296.3 59.05 299.9 59.3 306.05 62.3 311.65 65.05 314.55 67.6 315.1 71.75 316.5 77.0 317.4 76.75 318.95 75.3 L321.9 72.3 Q324.45 74.2 327.15 78.95"/><path fill="#009be4" d="M271.6 43.35 Q268.2 40.8 260.25 36.75 253.3 33.25 249.6 31.85 248.75 24.6 249.8 17.2 250.25 14.05 252.8 15.55 258.0 18.85 264.1 28.4 269.4 36.7 271.6 43.35"/><path fill="#009be4" d="M321.5 45.6 Q315.35 52.9 312.95 56.65 311.55 51.9 310.6 44.55 309.6 36.4 310.3 32.55 310.65 30.55 311.6 29.95 312.6 29.35 313.6 30.9 L317.3 36.8 Q319.7 40.95 321.5 45.6"/><path fill="#009be4" d="M82.15 84.75 Q83.95 88.15 82.9 91.3 81.25 96.45 74.9 97.8 69.5 98.95 64.15 97.15 59.2 95.45 56.15 91.95 52.75 88.0 54.1 83.85 55.7 79.05 62.05 77.55 67.6 76.25 73.0 77.95 79.8 80.15 82.15 84.75"/><path fill="#009be4" d="M419.6 179.15 Q424.3 180.55 426.95 183.85 429.7 187.3 428.5 190.95 427.35 194.45 422.0 195.9 417.05 197.2 412.5 195.95 407.85 194.65 405.15 191.5 402.15 187.9 403.9 184.0 405.65 180.2 410.85 178.95 415.35 177.9 419.6 179.15"/><path fill="#009be4" d="M479.2 178.6 Q483.0 179.35 485.6 181.65 488.7 184.4 487.75 187.85 486.8 191.35 482.45 192.7 L475.0 193.05 Q471.4 192.2 468.75 189.7 465.8 186.9 466.6 184.0 467.6 180.35 471.7 178.95 L479.2 178.6"/><path fill="#ffffff" d="M43.05 78.9 Q37.9 84.35 35.5 89.85 33.75 93.85 33.0 99.3 23.3 95.5 15.55 99.3 10.9 101.6 4.85 108.5 3.15 110.4 1.75 110.25 0.25 110.05 0.65 107.45 3.55 87.9 17.95 80.75 29.7 74.95 43.05 78.9"/><path fill="#ffffff" d="M74.5 145.15 Q74.05 136.3 69.15 129.85 64.75 124.15 65.75 117.9 66.85 111.15 73.9 108.95 80.8 106.75 86.55 111.05 91.45 114.7 93.9 121.55 100.3 139.55 90.75 154.1 82.4 166.8 68.2 169.85 65.3 170.45 64.95 169.15 64.7 168.05 66.3 166.3 75.1 156.85 74.5 145.15"/><path fill="#ffffff" d="M251.3 59.05 Q259.0 62.6 258.45 70.25 258.0 76.0 253.3 79.6 249.95 82.1 242.75 84.45 231.9 88.0 214.75 96.0 216.05 85.0 229.15 70.2 226.9 68.1 220.35 64.55 214.15 61.2 213.25 60.15 220.2 55.8 233.15 55.95 244.7 56.05 251.3 59.05"/><path fill="#ffffff" d="M252.4 43.45 Q250.65 39.1 249.65 32.15 254.7 33.85 261.85 37.65 267.55 40.7 271.6 43.35 272.15 49.3 267.95 52.1 263.75 54.95 259.05 52.0 254.8 49.3 252.4 43.45"/><path fill="#ffffff" d="M323.05 66.0 Q319.7 67.55 316.95 64.8 314.35 62.25 312.95 56.65 317.35 50.15 321.5 45.6 324.25 52.7 324.8 58.65 325.35 64.9 323.05 66.0"/><path fill="#ffffff" d="M351.75 96.55 L342.9 97.4 Q337.4 98.25 334.2 99.3 337.8 107.7 339.45 116.2 341.0 124.05 340.05 127.0 337.75 123.2 328.0 113.9 317.35 103.7 314.2 99.55 309.35 93.05 312.5 87.05 315.6 81.2 322.9 81.6 329.8 82.0 338.2 86.5 346.1 90.7 351.75 96.55"/><path fill="#ffffff" d="M160.55 295.5 Q159.95 295.35 159.35 294.25 155.2 287.15 155.7 278.65 155.95 273.6 158.35 266.0 159.55 272.5 163.9 276.85 167.4 280.35 171.85 281.6 169.75 284.0 166.75 287.9 163.8 291.75 162.0 294.5 161.25 295.65 160.55 295.5"/><path fill="#ffffff" d="M346.0 271.65 Q347.3 281.85 346.85 290.7 346.4 300.1 344.15 305.05 343.25 307.05 341.9 307.05 340.75 307.05 339.55 305.6 335.3 300.8 328.5 289.15 327.05 286.65 326.7 284.5 326.3 281.75 327.5 278.6 329.0 274.65 332.85 271.25 336.0 268.45 339.55 267.0 342.4 265.8 344.1 267.25 345.6 268.5 346.0 271.65"/><path fill="#ffffff" d="M388.8 272.6 Q389.45 277.3 388.6 283.5 387.8 289.7 385.75 295.45 385.05 297.4 383.7 297.45 382.5 297.55 381.35 296.0 378.85 292.55 377.0 288.55 374.9 284.15 374.45 280.8 375.75 276.5 378.7 273.0 381.0 270.3 383.65 268.75 385.7 267.6 387.1 268.75 388.4 269.8 388.8 272.6"/><path fill="#ffffff" d="M381.05 195.75 Q387.35 193.95 392.3 196.4 395.7 198.1 397.95 203.05 400.35 208.4 399.2 213.65 398.7 215.75 396.8 217.3 395.05 218.65 392.85 219.15 380.55 221.85 373.5 229.85 366.7 237.6 367.25 247.25 367.35 249.15 366.2 249.35 365.1 249.6 363.95 248.2 347.3 227.75 368.25 204.25 374.1 197.75 381.05 195.75"/><path fill="#ffffff" d="M459.25 227.05 Q460.25 233.9 458.75 239.9 457.3 245.8 453.95 248.75 452.25 250.25 451.4 249.55 450.65 248.9 450.65 246.9 450.65 236.8 445.4 228.85 440.7 221.7 433.2 218.15 438.4 214.8 440.65 209.35 441.85 206.5 442.6 200.9 456.75 210.35 459.25 227.05"/><path fill="#ffffff" d="M474.05 147.1 Q476.1 147.05 476.55 148.0 476.95 148.95 475.8 150.2 470.25 156.3 470.25 162.8 470.25 168.8 474.85 172.95 467.4 174.5 462.85 177.85 458.55 181.0 456.25 186.35 452.75 181.9 450.8 182.15 449.25 178.25 448.85 175.35 448.05 169.5 450.15 163.1 452.7 155.2 460.0 150.95 466.2 147.35 474.05 147.1"/><path fill="#ffffff" d="M509.8 196.0 Q516.3 199.55 526.4 194.9 535.8 190.6 538.35 184.8 539.2 182.9 540.45 183.0 541.75 183.1 541.95 185.15 543.0 194.0 541.35 199.9 539.1 207.6 531.7 213.55 524.15 219.6 513.6 220.0 504.35 220.35 497.7 216.55 491.9 213.2 491.05 207.6 490.25 202.1 494.6 197.0 498.4 192.45 503.05 192.8 506.65 193.05 509.8 196.0"/><path fill="#922169" d="M172.05 70.3 Q172.6 81.85 167.45 87.45 162.4 92.95 151.75 93.5 141.2 94.05 134.8 89.35 134.35 79.25 130.7 70.75 128.4 65.4 124.15 59.6 124.35 46.9 127.55 36.1 129.6 29.0 133.65 21.15 135.2 18.15 136.9 18.0 138.0 17.9 140.35 19.4 155.75 29.05 165.4 47.25 171.5 58.65 172.05 70.3"/><path fill="#922169" d="M210.05 96.2 L214.7 97.8 Q212.65 102.9 215.5 110.9 219.35 121.55 230.85 129.0 252.35 143.0 274.6 137.05 271.25 156.0 253.25 161.7 236.35 167.1 217.75 158.3 202.65 151.15 196.7 138.8 192.15 129.4 193.55 119.25 194.7 110.9 198.45 105.4 202.55 99.4 210.05 96.2"/><path fill="#922169" d="M212.35 192.7 Q224.05 196.4 236.5 194.9 248.3 193.5 256.7 188.0 265.35 182.35 267.05 174.5 281.9 191.85 273.1 208.75 269.5 215.7 262.5 221.05 255.95 226.05 248.35 228.3 235.4 232.1 219.85 229.7 203.0 227.15 193.85 218.5 184.85 210.05 184.55 198.45 184.25 188.5 190.2 178.85 199.3 188.55 212.35 192.7"/><path fill="#922169" d="M340.5 224.65 Q343.45 239.5 338.35 253.35 333.95 245.5 327.75 239.15 L317.9 230.2 Q320.55 210.7 308.0 195.6 298.5 184.2 281.75 176.7 307.1 180.25 326.2 194.45 337.45 209.35 340.5 224.65"/><path fill="#922169" d="M411.65 222.75 Q418.05 223.4 424.1 221.9 427.95 220.95 433.05 218.6 436.7 219.3 440.3 222.55 442.65 224.65 444.45 227.25 442.5 246.9 430.65 251.6 426.25 253.35 421.2 252.7 417.0 252.15 414.05 250.3 416.7 243.45 415.7 236.0 414.95 230.1 411.65 222.75"/><path fill="#ba7aa5" d="M186.0 147.4 Q189.8 139.9 196.05 137.3 198.4 145.1 208.2 152.4 217.0 158.95 226.95 161.8 237.25 164.8 246.2 163.6 257.05 162.15 265.15 154.65 269.5 164.75 267.55 173.15 265.7 180.95 258.85 186.35 252.35 191.5 242.6 193.65 232.9 195.75 222.25 194.45 203.3 192.1 193.05 181.85 185.5 174.25 183.5 163.4 182.0 155.25 186.0 147.4"/><path fill="#ba7aa5" d="M414.9 248.2 Q412.45 255.4 405.35 259.85 400.45 262.95 395.2 262.25 390.2 261.6 386.95 257.8 390.1 249.9 387.6 239.45 385.65 231.5 381.0 223.7 383.15 222.3 386.3 220.95 389.05 219.8 390.7 219.45 395.15 218.6 396.5 217.7 398.15 218.9 403.5 220.6 408.25 222.15 411.95 222.85 418.35 237.9 414.9 248.2"/><path fill="#ba7aa5" d="M445.5 188.0 Q447.85 184.85 449.15 183.45 451.35 181.0 453.75 183.6 457.85 187.95 461.05 193.05 466.5 201.8 468.15 211.05 469.95 221.2 467.0 227.9 464.35 233.8 459.25 234.95 459.75 223.4 454.05 213.3 449.25 204.75 442.6 200.9 442.85 198.3 441.65 193.55 443.0 191.3 445.5 188.0"/><path fill="#ba7aa5" d="M401.05 173.85 Q395.05 174.9 390.15 178.85 385.6 182.6 382.8 188.2 376.0 185.05 371.8 180.15 368.45 176.25 368.35 173.65 367.85 161.75 374.85 153.85 382.05 145.8 396.0 143.35 416.75 139.8 436.15 157.05 438.3 158.95 438.3 160.6 438.3 162.05 436.55 164.45 433.5 168.9 425.3 175.85 415.45 171.4 401.05 173.85"/><path fill="#922169" d="M400.4 142.85 Q389.65 142.95 381.65 147.85 373.6 152.8 370.25 161.5 362.6 161.25 357.85 155.15 354.2 150.5 352.6 143.0 362.85 140.45 370.8 130.3 376.95 122.45 380.45 111.95 397.35 107.6 409.15 109.05 411.15 109.25 411.75 110.45 412.3 111.45 412.1 113.7 411.35 120.6 407.9 128.95 404.75 136.4 400.4 142.85"/><path fill="#ba7aa5" d="M173.75 30.75 Q177.3 23.35 181.45 16.85 183.1 14.3 185.25 14.45 187.0 14.6 188.9 16.6 197.35 25.55 202.05 33.85 207.85 44.05 209.05 55.05 212.5 86.25 190.0 88.55 183.4 89.2 179.05 87.6 174.25 85.85 171.35 81.0 174.4 68.3 166.65 49.85 168.9 40.85 173.75 30.75"/><path fill="#ba7aa5" d="M86.3 38.6 Q87.3 35.1 90.85 36.0 98.35 38.0 107.05 44.0 113.1 48.2 119.15 53.95 126.55 60.9 131.55 73.35 137.25 87.55 133.5 96.2 128.75 107.2 118.7 109.9 109.95 112.3 101.6 107.85 103.95 95.7 96.4 85.6 90.3 77.5 81.95 74.6 81.35 66.2 82.95 54.8 84.3 45.25 86.3 38.6"/><path fill="#740f52" d="M266.25 276.45 Q284.2 274.7 293.0 268.65 L304.35 273.2 Q316.4 278.3 320.0 281.15 305.55 286.6 285.4 285.25 265.9 283.95 250.05 277.0 L254.8 277.05 266.25 276.45"/><path fill="#740f52" d="M172.1 77.8 Q170.1 87.4 160.75 91.25 154.4 93.9 147.45 93.45 139.85 92.95 134.5 88.75 134.6 86.7 133.75 81.85 132.9 77.05 131.9 74.0 135.9 78.25 143.0 79.25 149.7 80.2 156.5 77.95 163.45 75.7 167.35 71.05 171.65 65.9 170.65 59.4 173.7 70.25 172.1 77.8"/><path fill="#740f52" d="M214.7 95.4 Q223.45 91.6 236.0 86.95 L249.55 81.95 Q245.7 90.5 237.1 95.1 230.3 98.7 223.6 98.7 216.15 98.7 209.9 95.9 202.75 92.7 198.95 86.45 203.1 84.15 206.45 78.25 209.75 72.3 209.55 67.55 213.85 73.95 222.2 78.05 L217.55 87.1 Q215.95 90.65 214.7 95.4"/><path fill="#740f52" d="M66.65 114.5 Q65.15 117.3 65.5 120.75 65.9 124.8 68.8 129.3 52.95 129.85 42.35 120.1 31.4 110.0 33.8 95.7 37.25 105.7 46.85 110.75 55.55 115.3 66.65 114.5"/><path fill="#740f52" d="M102.15 105.55 Q101.3 114.5 93.5 120.65 89.95 111.8 83.9 109.45 89.75 106.2 93.6 101.4 97.7 96.25 98.95 89.95 102.85 98.25 102.15 105.55"/><path fill="#740f52" d="M329.4 115.5 Q335.35 120.45 337.15 122.6 327.1 127.85 316.45 125.8 305.95 123.8 300.7 115.9 304.55 114.65 309.45 111.75 315.2 108.35 318.2 104.95 320.05 106.7 322.25 107.95 324.3 111.25 329.4 115.5"/><path fill="#740f52" d="M338.8 112.45 Q344.65 112.55 350.1 110.85 345.85 117.1 340.0 120.9 L339.25 116.7 Q338.75 114.05 338.8 112.45"/><path fill="#a16990" d="M373.0 126.75 Q372.8 129.2 368.0 134.0 361.7 140.3 352.75 142.85 346.05 144.8 338.0 139.85 329.4 134.6 328.25 126.1 331.0 125.75 336.75 122.8 L340.3 126.7 Q340.5 123.35 340.2 120.85 344.65 118.1 346.8 115.75 345.7 118.9 347.4 122.7 349.15 126.55 352.8 128.9 362.05 134.95 373.0 126.75"/><path fill="#740f52" d="M371.15 131.15 Q368.95 136.65 373.9 141.65 379.4 147.25 389.35 145.2 382.6 146.85 377.4 151.65 372.75 155.85 370.25 161.65 361.35 160.35 357.05 154.6 353.95 150.45 352.75 142.85 354.6 142.6 358.65 140.4 364.85 137.0 371.15 131.15"/><path fill="#740f52" d="M410.6 222.3 Q401.95 221.1 396.75 217.8 398.3 215.35 398.95 211.75 399.65 207.8 398.8 204.8 402.0 208.75 408.15 210.95 414.3 213.15 421.0 212.85 437.15 212.05 442.55 199.0 443.1 207.65 437.65 214.1 432.15 220.6 422.7 222.45 418.0 223.35 410.6 222.3"/><path fill="#a16990" d="M171.85 67.05 Q180.25 76.55 192.45 75.1 204.5 73.65 210.15 63.0 209.4 76.05 203.65 82.35 198.95 87.45 190.55 88.3 L179.9 87.8 Q174.9 86.25 171.3 81.1 171.85 79.8 171.9 73.95 L171.85 67.05"/><path fill="#a16990" d="M99.25 90.55 Q104.85 93.05 110.9 92.45 116.8 91.85 121.45 88.6 126.3 85.2 128.4 79.95 130.7 74.25 129.25 67.55 134.45 77.45 134.75 86.3 135.05 95.15 130.35 101.55 124.9 108.95 116.6 110.35 109.2 111.6 101.6 107.85 102.55 104.3 101.8 99.35 101.1 94.75 99.25 90.55"/><path fill="#a16990" d="M258.35 92.5 Q264.75 98.15 272.55 101.8 277.95 105.85 289.1 108.8 300.7 111.85 310.75 111.5 305.7 115.05 296.75 116.6 287.25 118.3 276.95 117.0 251.4 113.85 236.7 95.6 240.35 93.65 243.9 89.9 247.65 85.9 248.8 82.35 254.0 88.65 258.35 92.5"/><path fill="#a16990" d="M227.95 98.55 Q232.75 97.35 236.7 95.6 246.55 108.1 263.55 113.7 275.45 117.65 288.95 117.8 287.4 121.35 278.3 121.9 269.45 122.4 258.55 119.8 246.8 117.0 238.8 111.9 229.55 106.0 227.95 98.55"/><path fill="#a16990" d="M160.85 258.15 Q163.05 254.15 166.35 250.1 168.7 247.15 172.85 242.85 165.9 254.3 167.6 261.15 169.35 268.15 179.4 267.6 185.7 267.25 195.2 262.35 205.8 256.9 213.1 249.2 219.8 256.95 223.6 259.9 213.3 262.65 201.0 267.6 186.15 273.6 176.35 279.8 174.15 281.2 172.75 281.45 170.7 281.8 168.5 280.45 165.55 278.7 162.7 275.25 159.35 271.2 159.1 267.8 158.8 264.2 159.2 262.15 159.55 260.45 160.85 258.15"/><path fill="#a16990" d="M339.7 255.1 Q343.1 260.75 344.9 267.25 342.15 266.1 338.25 267.7 334.7 269.15 332.05 271.95 329.25 274.95 327.8 278.35 326.1 282.35 327.0 285.7 324.4 283.75 320.0 281.15 317.0 279.1 304.8 273.75 L293.15 268.85 Q281.15 275.55 264.4 276.95 L254.1 277.25 250.05 277.0 246.75 275.45 Q237.35 270.75 228.7 264.1 217.85 255.8 211.2 246.65 227.75 258.2 247.1 260.85 262.55 262.95 277.1 259.2 275.05 256.8 273.9 252.9 276.75 256.05 287.8 259.55 299.35 263.25 310.45 264.15 323.45 265.15 329.8 261.55 337.4 257.25 333.9 246.85 L339.7 255.1"/><path fill="#a16990" d="M337.95 253.8 Q339.95 249.1 340.55 246.35 341.85 248.0 344.3 248.35 350.5 257.55 358.2 262.6 364.75 266.9 370.9 267.35 376.5 267.75 379.05 264.95 381.7 262.1 379.3 257.75 383.7 263.25 386.05 268.0 383.3 268.25 379.75 271.95 375.6 276.3 374.25 282.2 369.45 280.1 360.8 277.2 352.1 274.3 346.05 272.8 L345.0 269.25 Q344.3 267.35 343.4 266.5 342.4 263.3 340.85 259.65 339.25 255.9 337.95 253.8"/><path fill="#740f52" d="M367.2 243.6 L367.6 240.95 Q371.85 240.3 376.95 236.75 382.3 233.0 384.1 229.0 389.45 241.2 389.0 249.75 388.6 257.6 383.2 262.85 380.15 258.45 375.25 252.55 370.35 246.6 367.2 243.6"/><path fill="#a16990" d="M412.8 225.1 Q417.1 237.1 415.45 245.65 414.05 252.7 408.45 257.75 403.35 262.3 397.5 262.5 391.55 262.7 387.0 258.15 389.95 251.7 388.3 244.75 395.6 245.45 402.9 239.75 410.45 233.9 412.8 225.1"/><path fill="#740f52" d="M436.55 220.0 Q438.5 221.15 440.9 223.45 442.9 225.35 444.3 227.1 443.9 244.2 432.75 250.5 428.2 253.05 423.05 252.85 418.1 252.7 414.4 250.0 416.9 242.9 415.7 235.15 422.0 235.6 428.6 230.95 435.4 226.2 436.55 220.0"/><path fill="#a16990" d="M464.7 200.0 Q470.45 214.6 468.0 224.9 465.85 233.95 459.3 234.85 459.9 228.85 457.9 222.35 456.5 217.7 453.35 211.95 456.95 211.55 460.4 208.5 464.4 204.9 464.7 200.0"/><path fill="#a16990" d="M447.0 232.35 Q448.4 235.1 448.8 236.75 L445.85 236.35 Q444.3 236.0 443.3 235.45 L443.7 232.2 444.15 227.7 Q445.55 229.55 447.0 232.35"/><path fill="#740f52" d="M465.3 201.75 Q469.75 205.0 478.25 205.7 L490.8 205.1 Q490.95 208.3 492.7 211.3 495.05 215.3 499.7 217.35 494.85 221.25 487.3 222.35 478.05 223.65 468.8 219.7 468.8 215.45 467.9 210.55 466.95 205.15 465.3 201.75"/><path fill="#dbdcdc" d="M318.95 81.8 Q322.65 80.9 326.85 82.35 320.6 83.45 318.05 89.45 315.35 95.8 318.45 104.3 314.3 100.35 312.5 95.8 310.4 90.5 312.55 86.7 314.75 82.85 318.95 81.8"/><path fill="#dbdcdc" d="M251.55 59.5 Q254.65 60.9 256.15 62.55 258.8 65.45 258.4 70.05 257.95 75.2 253.4 79.05 249.1 82.7 242.0 84.5 249.75 79.85 252.1 71.65 254.15 64.65 251.55 59.5"/><path fill="#dbdcdc" d="M155.6 282.9 Q155.25 272.2 158.2 266.9 159.85 272.95 164.2 277.15 167.8 280.65 172.0 281.8 168.55 285.25 166.5 288.35 164.0 285.3 161.45 283.8 158.3 281.95 155.6 282.9"/><path fill="#dbdcdc" d="M247.55 275.75 L243.75 280.55 240.55 284.75 Q238.8 286.95 237.45 284.85 235.85 282.2 235.1 277.2 234.3 272.2 234.95 268.25 240.4 272.25 247.55 275.75"/><path fill="#dbdcdc" d="M332.35 295.1 Q328.9 289.9 327.65 287.35 325.75 283.15 326.9 279.7 328.15 275.95 331.8 272.15 336.0 267.8 340.45 266.8 344.6 265.9 345.8 270.65 346.1 271.8 346.6 279.8 341.55 276.75 337.2 281.8 333.05 286.65 332.35 295.1"/><path fill="#dbdcdc" d="M375.25 285.05 Q373.7 281.75 375.35 278.5 378.15 272.9 381.65 270.25 384.55 268.0 386.6 268.55 388.2 269.0 388.7 272.45 389.15 275.45 388.7 279.15 385.0 277.6 381.1 279.7 378.0 281.4 375.25 285.05"/><path fill="#dbdcdc" d="M491.45 203.3 Q492.1 199.85 494.3 197.8 494.3 203.6 498.55 207.0 502.95 210.45 511.35 210.95 521.6 211.55 528.25 209.1 537.05 205.8 541.55 196.7 538.85 207.25 533.5 212.75 526.05 220.35 512.65 219.9 505.45 219.7 500.4 217.7 492.75 214.7 491.45 208.1 491.0 205.85 491.45 203.3"/><path fill="#dbdcdc" d="M453.35 211.95 Q448.85 211.45 445.5 215.8 441.85 220.6 444.15 226.7 442.1 224.3 439.45 222.15 435.95 219.25 433.2 218.35 436.95 215.25 439.55 211.05 442.7 205.9 442.7 201.0 445.05 202.4 447.65 204.95 450.7 208.0 453.35 211.95"/><path fill="#dbdcdc" d="M397.65 202.4 Q399.3 205.6 399.15 209.65 399.05 213.15 397.8 215.75 396.85 217.75 395.1 218.5 L391.8 219.25 Q383.6 220.9 375.65 227.55 372.15 230.45 369.7 235.35 366.6 241.55 367.2 247.8 364.3 237.45 369.45 228.15 374.2 219.7 383.65 215.1 389.4 212.3 392.2 210.05 396.5 206.65 397.65 202.4"/><path fill="#dbdcdc" d="M18.5 94.0 Q27.15 90.3 34.2 92.0 33.65 94.45 33.05 99.25 21.75 93.9 9.85 102.75 8.15 104.1 6.05 106.55 L3.3 109.6 Q7.7 98.6 18.5 94.0"/><path fill="#ce7486" d="M250.4 84.4 L248.8 82.35 Q253.8 79.75 256.2 75.95 257.25 74.25 258.45 70.4 273.8 68.9 290.6 77.2 304.4 84.05 311.35 92.55 311.0 96.25 316.45 102.9 L315.15 103.95 Q304.2 92.05 282.8 86.4 263.3 81.25 250.4 84.4"/><path fill="#dbdcdc" d="M66.65 114.5 Q75.15 125.5 77.1 136.4 79.5 149.8 70.9 159.65 72.6 157.15 73.6 153.05 75.7 144.85 72.55 136.9 68.25 128.95 66.6 125.3 63.7 119.0 66.65 114.5"/><path fill="#a16990" d="M372.45 157.0 Q376.75 150.85 384.45 146.6 381.5 150.9 380.85 155.7 380.2 160.85 382.45 164.85 387.35 173.6 402.85 173.45 400.0 173.8 396.95 174.8 386.35 178.3 383.3 188.25 375.65 185.5 371.65 180.2 367.85 175.2 368.1 169.0 368.3 162.8 372.45 157.0"/><path fill="#dbdcdc" d="M449.45 164.6 Q449.15 171.5 452.55 175.8 455.55 179.55 460.2 180.05 L456.5 186.35 454.55 184.0 Q452.25 181.7 450.65 182.15 449.75 179.9 449.15 176.55 448.0 169.9 449.45 164.6"/><path fill="#a16990" d="M217.6 98.5 Q217.0 105.55 222.4 113.45 227.8 121.3 237.1 127.0 247.05 133.1 258.3 134.6 270.9 136.35 282.7 131.85 279.8 135.5 273.25 137.7 260.25 142.05 242.2 134.75 223.5 127.2 216.75 113.85 214.3 109.05 213.85 104.15 213.45 100.25 214.35 97.85 L217.6 98.5"/><path fill="#740f52" d="M193.65 128.3 L197.3 134.4 Q202.3 141.65 208.95 147.15 230.15 164.8 259.7 158.75 255.1 161.9 247.35 163.4 231.9 166.4 216.3 158.1 200.7 149.8 195.6 138.2 194.05 134.6 193.7 131.1 L193.65 128.3"/><path fill="#740f52" d="M264.5 219.4 Q251.7 230.25 233.5 230.65 217.0 231.0 204.95 225.65 196.0 221.65 190.05 214.8 196.4 219.8 206.75 222.8 217.5 225.95 229.15 225.95 257.35 225.85 273.65 208.65 270.9 214.0 264.5 219.4"/><path fill="#a16990" d="M185.2 171.05 Q190.65 177.6 199.95 182.55 209.4 187.6 220.2 189.65 245.65 194.45 263.6 181.4 260.55 185.6 254.05 189.4 241.1 196.9 224.1 194.7 205.35 192.25 195.8 184.65 190.85 180.75 185.2 171.05"/><path fill="#0d131a" d="M311.4 28.9 Q313.25 28.35 317.15 35.05 320.8 41.35 323.35 48.95 325.95 56.65 325.6 61.5 325.2 66.05 322.3 67.2 319.3 68.45 316.65 65.9 313.7 63.0 311.8 55.7 309.65 47.45 309.4 38.7 309.2 29.6 311.4 28.9 M311.75 30.8 Q310.35 32.1 311.0 40.45 311.6 48.45 313.35 55.05 315.05 61.5 317.7 64.25 319.8 66.45 321.65 65.65 326.6 63.45 321.8 49.2 319.3 41.9 315.8 35.75 312.55 30.05 311.75 30.8"/><path fill="#0d131a" d="M250.35 14.35 Q254.45 13.1 263.2 25.25 271.8 37.25 272.3 44.15 272.75 50.4 269.0 52.85 265.6 55.1 260.4 53.55 251.15 50.85 248.9 32.75 248.05 26.15 248.6 20.3 249.1 14.7 250.35 14.35 M251.15 15.9 Q250.3 16.3 250.05 21.4 249.75 26.9 250.55 32.8 252.75 49.35 260.75 51.6 265.3 52.9 267.85 51.1 270.75 49.1 270.45 43.75 270.15 38.2 261.8 26.45 253.55 14.85 251.15 15.9"/><path fill="#0d131a" d="M184.2 19.9 Q183.85 18.8 184.25 18.7 184.7 18.55 185.1 19.6 193.05 38.1 195.9 52.45 199.45 70.65 193.75 78.65 192.9 79.85 192.4 79.75 191.9 79.65 192.65 78.4 197.5 70.05 193.85 52.1 191.65 41.55 184.2 19.9"/><path fill="#0d131a" d="M136.35 23.55 Q135.65 22.55 136.15 22.4 136.65 22.25 137.45 23.25 148.25 37.35 153.95 53.65 159.85 70.65 157.25 81.95 156.4 85.45 154.5 87.95 152.5 90.5 149.65 91.65 L148.65 91.6 Q148.4 91.2 149.2 90.8 153.85 88.25 155.35 81.8 157.85 70.9 151.7 53.2 146.05 36.9 136.35 23.55"/><path fill="#0d131a" d="M89.2 39.6 Q88.45 38.65 89.0 38.35 89.5 38.05 90.25 39.0 107.5 60.1 114.0 73.6 122.15 90.55 117.45 102.35 116.95 103.65 116.4 103.6 115.85 103.6 116.25 102.3 120.0 90.3 111.3 72.9 105.3 60.8 89.2 39.6"/><path fill="#0d131a" d="M72.95 147.05 Q73.25 136.3 67.75 130.15 63.1 125.05 64.25 118.05 65.45 111.05 71.4 108.6 77.95 105.9 84.55 108.6 91.25 111.25 93.85 117.75 100.5 134.15 94.55 149.35 88.0 165.95 69.4 170.8 65.5 171.85 63.95 170.15 62.35 168.35 65.55 165.3 72.65 158.45 72.95 147.05 M72.4 110.8 Q67.7 112.95 66.85 118.45 66.0 124.1 69.85 129.25 75.85 137.3 75.05 148.6 74.2 160.1 66.7 166.9 65.45 168.1 65.9 168.75 L68.2 168.9 Q84.85 165.0 91.65 150.25 98.35 135.6 91.5 118.75 89.25 113.2 83.6 110.75 77.8 108.3 72.4 110.8"/><path fill="#0d131a" d="M383.0 83.5 Q383.2 82.55 383.65 82.65 384.1 82.7 384.0 83.7 382.2 95.9 372.2 111.75 361.3 128.95 350.2 133.85 349.0 134.4 348.8 133.85 348.6 133.3 349.75 132.65 359.95 127.4 370.85 110.4 380.9 94.7 383.0 83.5"/><path fill="#0d131a" d="M391.7 129.9 Q378.85 140.8 370.2 145.0 368.6 145.8 368.35 145.3 368.15 144.8 369.7 143.85 377.25 139.3 390.5 128.35 402.25 118.7 408.4 112.55 409.3 111.6 409.65 111.95 409.95 112.25 409.1 113.25 402.7 120.55 391.7 129.9"/><path fill="#0d131a" d="M370.75 170.25 Q376.2 157.85 395.3 154.75 414.6 151.6 435.2 160.05 436.3 160.5 436.15 160.95 L434.85 161.0 Q416.95 154.35 398.2 156.35 377.45 158.6 371.65 170.9 371.0 172.25 370.6 171.95 370.15 171.6 370.75 170.25"/><path fill="#0d131a" d="M379.6 195.6 Q384.65 193.55 389.0 194.15 393.8 194.85 396.75 198.8 401.35 204.8 400.35 211.8 399.35 219.1 392.95 220.0 384.45 221.2 376.75 228.15 367.4 236.5 368.3 247.15 368.55 249.75 366.8 250.15 365.1 250.5 362.85 248.35 358.3 243.95 356.6 236.1 355.1 229.25 356.3 223.5 358.2 214.35 364.25 206.95 370.55 199.25 379.6 195.6 M387.95 196.15 Q384.15 195.65 380.15 197.4 371.9 200.95 366.05 208.0 360.1 215.15 358.3 223.8 356.9 230.55 358.5 236.7 360.15 242.8 364.55 247.5 365.45 248.5 365.95 248.3 366.4 248.1 366.3 247.0 365.4 235.85 374.95 227.1 383.05 219.6 392.75 218.15 397.7 217.4 398.25 211.35 398.75 205.45 394.7 200.0 392.25 196.7 387.95 196.15"/><path fill="#0d131a" d="M374.25 229.05 L375.45 227.9 Q377.2 232.5 378.0 236.7 378.65 240.3 378.9 245.25 379.0 247.55 378.4 247.6 377.8 247.65 377.65 245.35 377.1 237.3 374.25 229.05"/><path fill="#0d131a" d="M405.4 229.55 Q407.35 235.8 406.9 242.45 406.45 249.7 403.15 254.6 401.5 257.05 398.85 258.45 396.2 259.85 393.25 259.9 392.15 259.9 392.1 259.45 392.1 259.0 393.2 258.9 398.4 258.5 401.55 254.1 404.65 249.75 405.15 242.4 405.6 236.15 404.15 229.8 403.8 228.2 404.35 228.1 404.9 228.0 405.4 229.55"/><path fill="#0d131a" d="M432.55 219.05 L434.3 218.75 Q436.25 225.25 435.95 231.85 435.65 239.75 432.0 243.75 431.2 244.7 430.8 244.4 430.45 244.15 431.25 243.15 434.4 239.0 434.45 231.5 434.45 225.4 432.55 219.05"/><path fill="#0d131a" d="M446.2 235.55 L449.0 235.75 449.5 237.95 446.15 237.65 Q444.05 237.3 442.95 236.75 L443.5 234.75 Q444.5 235.25 446.2 235.55"/><path fill="#0d131a" d="M451.5 185.3 Q451.2 184.4 451.65 184.25 452.1 184.1 452.45 185.0 455.6 192.3 456.55 198.45 457.45 204.05 456.75 210.0 456.6 211.15 456.15 211.15 455.7 211.1 455.75 209.95 456.0 205.15 454.85 198.3 453.65 191.35 451.5 185.3"/><path fill="#0d131a" d="M266.8 45.05 Q267.05 46.1 266.9 46.95 266.7 47.8 266.2 47.95 265.7 48.05 265.15 47.4 264.6 46.7 264.35 45.65 264.1 44.55 264.3 43.75 264.5 42.9 265.0 42.8 265.5 42.7 266.05 43.35 266.6 44.0 266.8 45.05"/><path fill="#ffffff" d="M266.15 45.2 Q266.5 46.6 266.0 46.7 265.5 46.8 265.15 45.45 264.9 44.1 265.35 43.95 L265.8 44.3 266.15 45.2"/><path fill="#0d131a" d="M318.5 56.35 Q318.75 57.2 318.6 57.9 318.5 58.65 318.1 58.7 317.7 58.8 317.25 58.25 316.85 57.7 316.65 56.8 316.4 55.9 316.55 55.2 316.65 54.5 317.05 54.4 317.45 54.35 317.85 54.9 L318.5 56.35"/><path fill="#ffffff" d="M317.95 56.45 Q318.2 57.6 317.85 57.7 317.5 57.8 317.2 56.65 316.95 55.5 317.3 55.4 317.7 55.3 317.95 56.45"/><path fill="#0d131a" d="M406.65 191.45 Q409.6 194.5 414.45 195.5 419.05 196.45 423.15 194.65 427.15 192.9 427.8 189.9 428.5 186.6 425.55 183.55 422.6 180.55 417.75 179.55 412.9 178.55 409.0 180.15 405.1 181.8 404.4 185.1 403.75 188.4 406.65 191.45 M404.8 192.5 Q401.6 188.95 402.4 185.1 403.25 180.9 408.15 178.8 412.8 176.85 418.25 177.95 423.65 179.1 427.0 182.6 430.5 186.25 429.65 190.6 428.9 194.25 424.4 196.35 419.7 198.55 414.05 197.4 408.1 196.25 404.8 192.5"/><path fill="#0d131a" d="M250.1 32.85 L249.9 31.35 Q254.5 32.95 260.15 35.75 267.35 39.25 270.95 42.25 L271.1 44.45 Q268.2 41.9 260.95 38.0 254.35 34.45 250.1 32.85"/><path fill="#0d131a" d="M248.0 39.95 L247.0 37.4 Q247.3 34.35 249.1 30.95 L249.5 33.25 248.7 36.35 248.0 39.95"/><path fill="#0d131a" d="M321.25 45.05 L321.75 46.4 Q319.6 48.8 317.1 52.15 314.55 55.55 313.25 57.8 L312.75 55.7 Q315.75 50.65 321.25 45.05"/><path fill="#0d131a" d="M305.85 47.55 Q309.25 44.25 310.2 44.75 311.05 45.2 311.5 50.25 311.9 55.2 311.4 57.4 311.2 58.35 310.85 58.35 310.45 58.35 310.45 57.4 310.2 49.0 309.3 47.15 308.55 47.45 306.4 49.3 L302.2 53.4 Q301.55 54.1 301.3 53.8 301.0 53.55 301.5 52.7 302.75 50.55 305.85 47.55"/><path fill="#0d131a" d="M285.45 37.1 Q286.65 37.35 287.35 42.15 288.05 46.7 287.6 49.7 287.45 50.8 287.05 50.8 286.6 50.8 286.6 49.7 L286.6 49.6 Q286.6 46.5 285.95 43.2 285.35 40.25 284.8 39.65 283.95 39.9 281.5 42.0 278.75 44.4 277.1 46.7 276.3 47.8 276.0 47.55 275.65 47.35 276.25 46.1 277.7 43.3 281.05 40.05 284.35 36.85 285.45 37.1"/><path fill="#0d131a" d="M270.5 40.6 L269.8 38.85 Q275.85 38.8 282.6 39.9 L280.75 41.5 270.5 40.6"/><path fill="#0d131a" d="M251.8 41.8 L252.4 43.5 Q251.05 44.0 249.55 44.75 L248.95 43.05 251.8 41.8"/><path fill="#0d131a" d="M286.65 42.7 L286.25 40.6 Q297.4 43.1 306.25 48.25 L304.85 49.85 Q296.8 45.2 286.65 42.7"/><path fill="#0d131a" d="M327.25 82.6 L325.75 82.2 Q326.6 78.3 325.35 73.25 324.3 69.0 322.4 66.2 L324.3 65.0 Q326.25 67.95 327.3 72.8 328.5 78.45 327.25 82.6"/><path fill="#0d131a" d="M235.25 95.75 L236.85 94.8 Q244.25 104.4 257.85 110.4 271.4 116.4 285.85 116.6 296.25 116.75 304.55 113.45 312.8 110.15 318.0 103.8 L319.15 105.05 Q313.55 111.9 305.0 115.45 296.45 119.0 285.8 118.85 270.85 118.65 257.6 112.75 243.9 106.65 235.25 95.75"/><path fill="#0d131a" d="M326.85 77.35 L326.4 80.05 Q326.15 78.45 324.55 76.15 323.25 74.3 322.0 73.2 L320.25 75.2 318.35 77.2 Q316.6 78.75 315.95 78.4 315.6 78.2 315.3 76.65 L313.95 68.15 Q312.2 65.95 304.65 62.6 297.65 59.5 296.65 59.75 L293.95 62.95 289.75 67.85 Q288.45 69.1 287.7 69.05 287.0 68.95 286.0 67.6 284.95 66.1 282.4 61.45 280.2 57.5 279.8 57.25 L267.95 56.85 Q256.4 57.4 251.4 59.9 L248.85 58.8 Q253.9 56.0 266.65 55.25 278.65 54.55 280.85 56.0 281.45 56.4 284.5 61.4 287.55 66.35 287.95 66.6 L291.9 62.55 295.75 58.55 Q297.25 57.85 305.4 61.4 313.7 65.0 315.2 67.4 315.6 68.0 316.05 70.1 L317.15 75.6 318.75 74.2 320.45 72.35 Q321.35 71.4 321.95 71.5 322.45 71.6 323.45 72.65 325.75 74.95 326.85 77.35"/><path fill="#0d131a" d="M258.3 71.55 L258.3 69.9 Q269.6 67.7 284.8 73.5 301.4 79.8 311.7 92.05 L311.85 94.45 Q302.75 82.85 285.35 75.8 268.75 69.1 258.3 71.55"/><path fill="#0d131a" d="M247.55 82.75 L249.65 81.75 Q255.95 90.15 263.4 95.65 270.15 100.6 276.4 102.2 278.8 99.2 281.9 96.75 284.65 94.5 285.4 94.6 286.2 94.7 287.0 96.4 288.0 98.6 289.35 104.0 292.25 100.75 295.15 98.15 298.1 95.5 298.8 95.65 299.85 95.8 301.45 99.5 302.85 102.65 303.6 105.7 308.25 97.65 309.45 97.8 310.25 97.85 311.25 100.35 312.25 102.65 312.55 104.95 314.35 103.7 315.85 101.6 L317.2 103.1 315.6 104.75 313.35 106.45 Q312.25 107.3 311.7 107.1 311.05 106.85 310.85 105.3 310.25 101.1 309.4 99.45 308.75 100.0 307.2 102.75 L304.75 107.0 Q302.95 109.7 301.95 106.35 L300.2 100.85 Q299.0 97.75 298.4 97.4 298.0 97.45 294.95 100.8 L290.45 105.55 Q288.2 107.55 287.45 104.6 L286.0 98.7 Q285.45 96.4 285.15 96.25 284.6 96.35 282.1 99.0 L278.4 103.2 Q277.65 104.15 276.0 103.75 269.45 102.15 262.15 97.05 253.85 91.2 247.55 82.75"/><path fill="#0d131a" d="M259.2 68.0 Q259.75 73.3 256.5 77.6 252.8 82.4 245.0 84.75 240.75 86.0 234.65 88.35 226.45 91.55 218.2 95.55 215.1 97.1 214.3 96.35 213.5 95.6 214.6 92.25 216.5 86.6 219.65 81.15 223.3 74.7 227.5 70.75 227.95 70.4 227.45 70.0 220.75 65.35 214.35 62.1 212.1 60.95 212.3 60.1 212.45 59.25 214.9 58.3 227.2 53.4 241.7 55.35 258.15 57.55 259.2 68.0 M244.25 82.8 Q251.85 80.55 255.15 75.85 257.65 72.25 257.25 68.0 256.45 59.45 241.45 57.25 227.35 55.15 214.8 60.0 L214.5 60.35 214.75 60.65 Q218.2 62.2 222.2 64.45 226.25 66.75 229.0 68.75 230.1 69.55 230.2 70.05 230.35 70.75 229.25 71.8 225.15 75.7 221.05 82.45 217.05 89.1 215.8 93.95 215.55 94.7 216.35 94.3 224.7 90.25 233.35 86.75 240.2 84.05 244.25 82.8"/><path fill="#0d131a" d="M329.9 82.1 Q340.75 85.65 350.6 94.6 352.7 96.5 352.55 97.15 352.35 97.85 349.55 97.8 342.8 97.7 335.95 99.7 335.25 99.95 335.55 100.65 337.9 105.85 339.65 113.2 341.4 120.6 341.3 124.85 341.25 127.5 340.65 127.75 340.05 127.95 338.55 126.0 335.9 122.45 327.1 114.5 315.95 104.25 312.55 97.9 308.55 90.45 312.8 84.7 317.65 78.1 329.9 82.1 M350.0 96.1 Q339.65 87.15 329.4 83.9 318.35 80.4 314.35 86.1 310.45 91.6 315.55 99.4 318.9 104.55 328.6 113.35 L335.4 119.8 Q338.65 123.05 339.8 125.05 339.8 121.55 337.95 113.85 336.0 105.75 333.8 100.8 333.2 99.5 333.3 99.1 333.4 98.5 334.75 98.2 343.05 96.0 350.0 96.1"/><path fill="#0d131a" d="M253.0 58.45 L250.8 58.65 Q247.75 40.05 241.05 26.4 234.0 12.1 222.6 2.6 221.45 1.65 220.2 1.7 219.0 1.75 218.05 2.85 213.85 7.65 209.5 15.0 204.1 24.1 201.3 32.85 L199.95 30.85 Q202.85 22.25 208.4 13.4 212.65 6.65 217.2 1.5 218.45 0.1 220.05 0.05 221.6 -0.05 223.15 1.1 234.9 10.3 242.55 25.3 249.95 39.75 253.0 58.45"/><path fill="#0d131a" d="M247.7 82.4 L250.25 81.8 Q247.95 89.5 240.95 94.25 234.75 98.5 226.3 99.55 217.8 100.6 210.1 97.4 202.2 94.1 197.35 87.15 L199.3 86.2 Q203.9 92.25 210.9 95.2 218.1 98.2 226.1 97.25 233.7 96.3 239.25 92.55 244.95 88.7 247.7 82.4"/><path fill="#0d131a" d="M219.95 4.1 Q219.35 3.45 219.65 3.1 219.95 2.8 220.65 3.35 227.25 8.8 231.8 23.95 236.25 38.7 236.0 53.0 235.95 54.15 235.4 54.15 234.8 54.2 234.75 53.05 234.05 38.2 229.7 24.0 225.4 10.05 219.95 4.1"/><path fill="#0d131a" d="M221.6 98.6 L218.95 97.75 Q223.0 96.7 225.05 95.5 227.2 94.2 229.5 91.4 230.35 90.45 230.7 90.8 231.05 91.15 230.3 92.2 228.4 94.85 226.85 96.1 224.8 97.75 221.6 98.6"/><path fill="#0d131a" d="M166.2 48.7 Q168.25 38.95 173.7 28.4 176.95 22.15 180.85 16.65 182.75 13.95 184.9 13.65 187.05 13.35 189.05 15.45 200.3 27.4 205.3 38.0 210.3 48.7 210.65 61.65 211.0 74.2 205.7 81.55 201.2 87.8 193.35 89.45 186.5 90.9 179.65 88.5 173.05 86.2 170.65 81.85 L171.45 79.75 Q173.55 84.0 179.75 86.3 186.1 88.7 192.55 87.45 199.9 86.0 204.1 80.15 209.0 73.3 208.55 61.45 208.1 48.9 203.25 38.4 198.3 27.65 187.75 16.75 186.25 15.25 185.15 15.35 183.7 15.45 181.9 18.0 178.25 23.25 174.8 30.4 169.4 41.6 167.7 51.85 L166.2 48.7"/><path fill="#0d131a" d="M168.9 83.3 Q172.25 76.85 170.25 64.85 168.1 51.95 159.9 39.9 151.55 27.55 139.45 19.85 137.75 18.8 136.7 19.15 135.6 19.5 134.35 21.6 130.65 27.8 127.9 39.15 124.75 51.95 125.6 61.7 L123.45 59.05 Q123.0 49.0 126.25 37.0 129.2 26.2 133.15 20.15 134.9 17.5 136.5 17.25 137.95 16.95 140.5 18.5 153.05 26.15 161.85 39.0 170.35 51.45 172.55 64.65 174.95 78.95 169.95 86.35 165.75 92.55 155.9 94.45 149.95 95.6 144.05 94.4 137.9 93.1 134.35 89.8 L134.35 87.3 Q137.65 90.75 143.85 91.95 149.8 93.15 155.9 91.9 165.5 89.95 168.9 83.3"/><path fill="#0d131a" d="M90.25 36.7 Q88.25 36.15 87.4 38.45 85.1 44.9 84.0 54.85 82.75 65.5 83.55 75.25 L81.25 74.25 Q80.55 64.55 82.05 53.85 83.4 43.9 85.95 37.4 86.7 35.35 88.0 34.85 L90.95 35.0 Q103.85 38.8 115.15 48.6 126.35 58.3 131.45 69.9 137.25 83.05 135.5 93.0 133.65 103.6 123.45 109.3 118.1 112.3 111.65 111.95 105.85 111.6 101.0 108.8 L101.4 107.0 Q107.45 109.25 111.5 109.5 117.2 109.9 122.25 107.05 131.1 102.1 132.95 92.65 134.85 83.15 129.35 70.65 124.3 59.2 113.65 49.9 102.9 40.45 90.25 36.7"/><path fill="#0d131a" d="M93.35 80.8 Q100.4 87.35 102.35 96.25 104.0 103.9 102.15 110.3 100.15 117.35 94.0 122.05 L93.25 119.75 Q103.35 109.65 100.15 96.45 98.05 88.05 91.95 82.05 85.7 75.95 76.85 73.95 63.25 70.8 51.5 75.55 39.7 80.3 36.1 90.55 31.3 104.15 39.25 114.95 43.95 121.35 51.55 124.8 59.1 128.2 67.65 127.85 L69.1 130.05 Q59.45 130.9 50.8 126.95 42.75 123.25 37.5 116.35 33.15 110.65 32.3 103.6 31.5 96.8 34.1 89.9 38.35 78.7 51.1 73.8 63.35 69.1 77.3 72.3 86.55 74.4 93.35 80.8"/><path fill="#0d131a" d="M54.8 84.75 Q54.0 88.65 57.5 92.2 61.0 95.8 66.75 96.95 72.5 98.1 77.1 96.1 81.65 94.15 82.45 90.25 83.25 86.35 79.7 82.8 76.2 79.25 70.5 78.1 64.45 76.9 59.85 79.05 55.5 81.05 54.8 84.75 M81.15 81.9 Q85.25 86.0 84.35 90.75 83.45 95.6 77.95 97.95 72.65 100.2 66.35 98.95 59.85 97.7 55.85 93.75 51.55 89.55 52.8 84.45 53.9 80.05 59.1 77.75 64.4 75.4 70.9 76.65 77.2 77.95 81.15 81.9"/><path fill="#0d131a" d="M18.3 97.1 Q26.05 94.6 33.65 98.1 L33.45 100.85 Q26.4 96.95 18.85 99.25 11.6 101.5 5.7 108.75 2.95 112.1 1.3 111.15 -0.2 110.25 0.0 107.05 0.95 90.8 13.95 81.75 27.45 72.35 44.5 78.2 L42.45 80.05 Q27.9 75.05 15.35 83.6 2.95 91.95 1.55 107.05 1.4 109.05 2.05 109.3 2.8 109.55 4.55 107.3 10.6 99.55 18.3 97.1"/><path fill="#0d131a" d="M365.55 38.35 Q367.25 39.95 367.85 44.7 369.8 60.65 364.6 81.2 357.6 108.9 340.45 122.05 L339.8 120.05 Q354.0 109.1 361.35 85.2 367.3 65.65 366.4 48.45 364.4 62.05 358.55 73.7 357.85 75.1 357.5 74.95 357.1 74.75 357.65 73.3 364.3 56.15 365.2 42.8 365.55 37.6 361.05 38.9 350.85 41.8 341.95 45.95 333.35 49.9 324.4 55.8 L323.65 53.45 Q332.35 48.2 340.65 44.5 349.35 40.65 359.3 37.75 363.6 36.5 365.55 38.35"/><path fill="#0d131a" d="M336.7 121.85 L337.95 123.75 Q328.8 128.9 317.35 127.1 305.25 125.2 299.25 116.35 L301.05 115.45 Q306.85 123.3 317.9 124.95 328.3 126.45 336.7 121.85"/><path fill="#0d131a" d="M326.65 119.85 L327.85 119.75 Q328.05 120.15 327.2 120.7 323.45 123.2 318.15 123.95 312.85 124.7 309.3 123.3 L306.45 121.3 Q310.2 122.65 316.05 122.3 322.3 121.95 326.65 119.85"/><path fill="#0d131a" d="M362.1 85.75 L362.9 83.4 Q368.6 81.35 375.0 80.35 L382.9 79.65 Q385.55 79.65 386.4 80.5 387.2 81.3 387.1 83.65 386.05 101.4 380.3 115.85 372.5 135.45 357.8 142.55 348.5 147.05 338.25 141.35 328.25 135.8 326.7 126.15 L328.9 125.85 Q330.55 133.9 338.9 139.0 347.95 144.5 356.6 140.35 370.9 133.45 378.5 114.45 383.9 100.95 385.25 83.7 385.35 82.35 384.75 81.85 384.2 81.4 382.4 81.4 379.45 81.4 374.4 82.35 368.0 83.55 362.1 85.75"/><path fill="#0d131a" d="M401.25 142.95 L398.3 143.05 Q403.3 137.05 407.0 128.4 410.55 120.1 411.25 113.45 411.5 111.6 410.95 110.85 410.45 110.15 408.75 109.95 403.75 109.35 396.3 110.05 387.5 110.95 380.25 113.4 L380.8 111.1 Q387.9 108.8 396.7 108.1 403.8 107.55 409.0 108.15 411.6 108.5 412.4 109.35 413.35 110.4 413.05 113.4 412.3 120.35 409.3 128.25 406.0 137.0 401.25 142.95"/><path fill="#0d131a" d="M351.85 142.8 L354.0 142.6 Q354.25 149.15 358.75 154.4 363.85 160.3 371.3 160.1 L370.15 162.05 Q362.2 162.3 356.8 155.95 351.95 150.15 351.85 142.8"/><path fill="#0d131a" d="M383.35 187.35 L382.7 189.25 Q377.9 188.05 372.95 183.3 367.4 177.9 366.9 172.35 366.0 161.95 373.85 153.25 381.0 145.4 390.85 143.15 403.0 140.45 414.45 143.6 426.95 147.05 437.15 157.2 439.0 159.05 439.15 160.75 439.3 162.5 437.65 164.55 432.15 171.3 426.3 176.0 L424.0 175.1 431.0 168.95 436.0 163.7 Q437.4 161.95 437.3 160.65 437.2 159.35 435.55 157.9 424.85 148.35 414.1 145.3 403.55 142.35 391.15 145.15 382.65 147.05 376.2 154.0 368.8 161.95 369.45 171.95 369.8 177.05 374.6 181.75 378.75 185.9 383.35 187.35"/><path fill="#0d131a" d="M392.1 178.65 Q382.35 185.1 382.65 195.4 L380.25 196.3 Q380.1 184.35 390.9 177.15 402.3 169.6 418.55 172.8 431.0 175.25 438.35 184.9 445.9 194.85 442.95 206.25 439.6 219.1 425.9 223.0 411.55 227.05 394.7 218.35 L396.55 216.85 Q412.45 224.5 425.65 220.45 437.9 216.7 440.95 205.7 443.7 195.65 437.15 186.35 430.4 176.8 418.2 174.55 402.65 171.65 392.1 178.65"/><path fill="#0d131a" d="M459.7 225.6 Q461.2 233.25 459.85 239.8 458.4 246.6 454.25 250.2 452.1 252.0 451.0 251.15 450.0 250.35 449.9 247.45 449.7 237.9 443.95 229.05 438.25 220.25 431.75 219.25 L433.45 217.45 Q440.8 219.25 446.4 228.7 451.95 238.15 451.45 247.75 451.4 248.65 451.85 248.85 452.35 249.1 453.15 248.4 456.9 245.05 458.1 238.8 459.25 232.85 457.75 225.8 454.35 209.85 442.45 201.85 L442.45 199.2 Q456.25 207.95 459.7 225.6"/><path fill="#0d131a" d="M213.75 97.25 L215.5 97.85 Q212.9 109.05 223.05 120.55 233.95 132.95 252.95 137.0 268.85 140.35 279.25 133.05 288.25 126.65 287.75 117.7 L289.75 117.55 Q290.2 128.5 280.1 135.4 269.0 143.05 252.3 139.5 232.45 135.25 221.4 122.45 210.85 110.25 213.75 97.25"/><path fill="#0d131a" d="M208.8 95.65 L210.9 96.95 Q203.6 99.3 199.0 106.45 194.55 113.5 194.35 122.45 194.1 131.95 198.95 140.35 204.3 149.7 214.95 155.5 237.9 168.1 256.25 159.4 263.65 155.9 268.45 149.5 272.95 143.55 273.75 137.15 L275.7 136.45 Q275.5 143.5 270.75 150.25 265.85 157.25 257.8 161.3 238.05 171.15 213.75 157.85 202.6 151.75 196.9 142.1 191.75 133.4 191.85 123.45 191.9 114.05 196.5 106.45 201.15 98.75 208.8 95.65"/><path fill="#0d131a" d="M184.45 147.75 Q188.1 139.55 195.0 136.3 L196.05 138.35 Q190.15 140.85 186.8 148.15 183.3 155.75 184.65 164.15 186.2 173.7 193.6 180.8 202.2 189.0 217.45 192.45 230.75 195.45 242.05 192.95 252.3 190.7 259.05 184.4 265.45 178.4 266.9 170.6 268.4 162.6 264.15 155.4 L265.7 154.1 Q270.35 162.65 268.85 171.55 267.4 180.2 260.65 186.7 253.6 193.4 242.75 195.85 230.9 198.45 216.9 195.3 201.2 191.75 192.1 183.05 184.15 175.45 182.4 165.25 180.75 156.05 184.45 147.75"/><path fill="#0d131a" d="M183.05 197.05 Q183.1 187.05 189.3 178.2 L191.0 180.0 Q185.35 187.95 185.45 197.1 185.55 206.2 191.35 213.75 197.45 221.7 208.45 225.8 220.55 230.3 236.6 229.15 249.9 228.2 259.35 222.3 268.0 216.9 272.0 208.35 275.8 200.2 274.4 191.35 272.95 182.3 266.45 175.2 L267.45 173.35 Q275.1 181.65 276.7 191.7 278.2 201.25 273.85 210.05 269.45 219.0 260.15 224.7 250.2 230.75 236.75 231.7 219.8 232.9 207.05 228.1 195.45 223.7 189.1 215.1 183.05 206.95 183.05 197.05"/><path fill="#0d131a" d="M319.05 280.9 L321.35 282.2 Q304.65 288.05 285.2 286.7 266.05 285.35 248.2 277.3 229.75 268.95 216.55 255.05 202.4 240.2 196.5 221.2 L199.1 222.55 Q206.7 242.55 221.75 256.85 235.25 269.75 253.55 276.95 270.15 283.55 288.05 284.45 305.05 285.3 319.05 280.9"/><path fill="#0d131a" d="M158.7 295.45 Q154.85 289.9 154.75 279.45 154.7 268.55 158.9 260.05 163.75 250.4 175.8 238.65 186.4 228.3 197.45 221.05 L199.1 223.05 Q187.9 230.45 177.3 240.5 165.4 251.9 160.6 260.95 158.65 264.65 160.45 269.5 162.0 273.75 165.65 277.15 168.0 279.35 170.2 280.25 172.4 281.1 173.7 280.3 185.15 273.35 197.5 267.85 210.8 261.95 222.95 258.8 L224.65 261.2 Q211.9 264.4 198.9 269.8 185.7 275.25 174.7 282.0 172.5 283.35 170.5 285.45 167.35 288.75 162.5 295.75 161.5 297.2 160.55 297.05 159.7 296.9 158.7 295.45 M158.2 269.3 Q156.35 275.55 156.75 282.25 157.2 289.15 159.95 294.1 160.65 295.25 161.25 294.25 166.7 286.15 170.1 282.4 167.15 281.55 164.2 278.85 159.9 274.85 158.2 269.3"/><path fill="#0d131a" d="M246.9 275.35 L249.05 276.45 Q244.75 280.8 240.7 286.2 239.65 287.6 238.7 287.4 237.9 287.25 236.95 285.75 234.95 282.6 233.85 277.7 232.8 272.65 233.15 267.9 L235.6 269.3 Q235.05 278.1 238.2 284.45 238.8 285.6 239.5 284.65 243.6 279.05 246.9 275.35"/><path fill="#0d131a" d="M330.6 275.3 Q326.45 281.1 327.8 285.05 330.25 292.05 339.2 304.1 340.65 306.05 341.45 306.25 342.35 306.45 343.35 304.8 345.6 300.95 345.95 289.5 346.3 279.0 345.0 271.6 344.2 266.55 340.5 267.65 334.85 269.45 330.6 275.3 M331.45 295.95 Q327.75 290.15 326.25 286.5 320.0 281.6 309.35 276.8 303.2 274.0 286.8 267.65 269.45 260.95 272.2 238.5 273.25 229.5 277.6 223.55 282.25 217.2 288.3 217.65 312.5 219.5 330.8 241.1 337.55 249.05 342.25 258.3 346.2 266.1 347.15 271.3 348.5 278.6 347.9 289.7 347.3 301.3 345.0 305.65 343.75 308.05 342.05 308.15 340.2 308.3 338.2 305.7 334.65 301.0 331.45 295.95 M340.15 265.75 L343.15 265.7 Q336.4 247.0 321.05 234.2 305.8 221.45 288.4 219.85 283.8 219.45 279.8 224.5 275.55 229.9 274.25 239.0 272.85 248.8 276.25 255.6 279.65 262.4 287.55 265.5 301.65 271.0 309.3 274.55 319.05 279.1 325.5 283.7 325.05 278.8 329.25 273.4 333.65 267.7 340.15 265.75"/><path fill="#0d131a" d="M274.7 276.15 Q261.3 278.6 250.85 277.25 L248.8 275.35 Q259.85 276.55 272.25 274.55 284.75 272.5 291.6 268.35 L294.75 269.2 Q288.15 273.7 274.7 276.15"/><path fill="#0d131a" d="M278.05 176.3 L282.2 176.8 Q298.5 182.15 309.65 196.05 322.75 212.35 319.35 231.15 L316.95 229.95 Q320.15 211.5 306.0 195.1 294.05 181.25 278.05 176.3"/><path fill="#0d131a" d="M357.1 231.7 L357.4 236.75 Q350.45 222.4 340.7 210.6 330.15 197.9 318.25 190.6 307.1 183.75 294.3 180.25 281.65 176.8 269.05 177.05 L268.1 175.0 Q297.9 175.0 319.15 188.4 331.05 195.9 340.8 207.05 350.5 218.15 357.1 231.7"/><path fill="#0d131a" d="M339.35 255.35 L337.6 253.25 Q342.35 239.75 338.65 222.6 334.7 204.1 322.9 192.9 L327.9 196.2 Q337.35 206.2 341.05 222.7 345.0 240.5 339.35 255.35"/><path fill="#0d131a" d="M326.25 237.8 L327.8 239.8 Q323.45 237.8 317.8 240.25 311.85 242.8 308.0 248.95 304.75 254.1 303.6 260.4 302.35 267.4 304.25 273.35 L302.1 272.25 Q299.9 267.3 301.3 259.7 302.6 252.75 306.0 247.6 309.7 241.7 315.65 239.0 321.2 236.5 326.25 237.8"/><path fill="#0d131a" d="M181.3 235.75 L183.55 233.85 Q179.5 245.6 184.55 257.4 189.25 268.3 196.4 269.5 L193.95 270.55 Q185.25 267.45 181.55 255.95 178.05 245.1 181.3 235.75"/><path fill="#0d131a" d="M381.85 295.45 Q382.85 296.8 383.75 296.65 384.45 296.55 384.85 295.45 387.55 287.95 387.8 278.85 387.95 271.45 386.95 269.75 385.45 267.3 381.1 271.55 376.7 275.85 375.75 280.85 375.5 282.35 376.9 286.25 378.65 291.15 381.85 295.45 M367.25 244.7 L367.55 242.15 Q372.8 247.1 379.45 255.35 386.15 263.7 388.6 268.35 390.5 271.9 389.7 281.35 388.95 290.55 386.5 296.0 385.55 298.0 384.0 298.25 382.3 298.55 380.7 296.6 378.85 294.4 376.65 289.85 374.55 285.6 373.8 282.75 368.4 280.6 359.8 278.0 351.55 275.45 346.15 274.25 L345.7 271.75 Q350.7 272.95 359.55 275.8 368.2 278.55 373.65 280.65 375.25 275.35 378.8 271.35 382.4 267.3 385.55 267.25 381.9 261.4 377.0 255.35 372.25 249.5 367.25 244.7"/><path fill="#0d131a" d="M359.95 276.7 L358.05 276.3 Q358.95 264.8 364.0 257.7 368.75 250.95 374.6 251.6 L375.45 252.9 Q370.15 252.25 365.4 259.25 360.4 266.5 359.95 276.7"/><path fill="#0d131a" d="M358.05 237.25 L358.5 238.65 Q352.75 239.45 347.85 245.25 342.5 251.55 341.65 260.2 L340.15 257.9 Q341.3 249.5 346.9 243.15 352.4 236.9 358.05 237.25"/><path fill="#0d131a" d="M366.25 205.65 L365.15 207.0 Q364.1 206.25 363.3 206.15 361.95 206.05 360.6 207.55 358.25 210.1 355.7 214.05 352.7 218.65 351.05 222.95 L349.3 221.4 Q351.1 217.55 354.25 213.0 357.2 208.75 359.8 206.05 361.35 204.5 363.1 204.35 364.9 204.25 366.25 205.65"/><path fill="#0d131a" d="M387.55 243.8 Q386.0 234.0 380.4 224.35 L381.95 223.35 Q388.7 233.6 389.85 245.0 391.1 257.85 383.6 263.5 L382.4 261.65 Q389.45 256.4 387.55 243.8"/><path fill="#0d131a" d="M410.85 222.8 L412.85 222.8 Q421.6 242.05 413.5 254.0 410.45 258.55 405.45 261.15 401.1 263.45 397.0 263.5 394.0 263.55 391.3 262.4 388.4 261.25 386.5 259.05 L387.7 257.5 Q391.65 261.35 397.05 261.2 400.45 261.15 404.25 259.1 408.8 256.7 411.55 252.55 419.1 241.3 410.85 222.8"/><path fill="#0d131a" d="M440.2 240.75 Q443.1 234.85 443.4 227.15 L444.9 228.65 Q444.7 236.65 441.55 242.8 438.55 248.8 433.5 251.6 429.0 254.15 424.05 254.2 418.65 254.25 413.6 251.25 L414.3 249.35 Q419.05 251.8 423.8 251.8 428.35 251.75 432.5 249.4 437.3 246.65 440.2 240.75"/><path fill="#0d131a" d="M442.55 194.25 L441.3 192.3 Q443.2 189.15 445.1 186.8 L448.4 183.0 Q449.9 181.4 451.55 181.45 453.05 181.5 454.3 182.8 461.35 190.15 465.6 199.6 469.2 207.6 469.65 214.2 470.15 222.05 468.25 227.55 465.7 234.9 459.0 236.85 L459.1 234.25 Q465.1 232.4 466.95 224.7 468.05 220.25 467.6 214.25 467.1 207.65 463.8 200.05 459.8 190.9 452.9 183.7 451.3 181.9 449.2 184.4 445.95 188.25 442.55 194.25"/><path fill="#0d131a" d="M511.2 196.45 L508.8 195.4 Q505.75 184.65 496.7 178.75 488.65 173.5 478.75 173.6 470.5 173.65 464.6 177.35 458.65 181.15 457.2 187.4 L455.8 185.5 Q457.75 179.4 464.05 175.75 470.25 172.25 478.7 172.15 489.35 172.1 497.95 177.65 508.15 184.2 511.2 196.45"/><path fill="#0d131a" d="M468.8 220.7 L468.95 218.6 Q477.55 221.95 486.0 221.35 494.1 220.8 498.9 216.9 L500.95 217.8 Q495.35 222.85 486.5 223.55 477.9 224.25 468.8 220.7"/><path fill="#0d131a" d="M484.8 181.9 Q482.15 179.5 478.0 178.95 473.8 178.4 470.6 180.15 467.55 181.8 467.2 184.4 466.85 186.95 469.6 189.45 472.4 192.0 476.25 192.5 480.35 193.05 483.5 191.45 486.7 189.85 487.05 187.05 487.45 184.25 484.8 181.9 M486.05 181.05 Q489.25 183.95 488.85 187.5 488.4 191.3 484.45 193.15 480.75 194.85 475.95 194.2 471.25 193.6 468.2 190.7 465.05 187.7 465.65 184.2 466.25 180.65 470.05 178.8 473.65 177.05 478.3 177.65 482.9 178.25 486.05 181.05"/><path fill="#0d131a" d="M508.0 193.95 Q509.85 195.55 512.85 196.05 516.0 196.6 519.8 195.9 525.55 194.85 530.55 191.65 535.4 188.55 537.25 184.9 538.7 182.1 540.65 182.1 542.65 182.1 543.1 185.35 544.4 194.0 541.55 201.8 538.75 209.55 532.5 214.35 525.7 219.6 516.65 220.9 507.45 222.2 499.4 218.85 493.1 216.25 490.9 210.2 488.55 203.6 493.2 197.5 496.5 193.2 501.05 192.3 505.25 191.5 508.0 193.95 M507.5 195.55 Q504.7 193.3 500.95 194.3 497.3 195.25 494.6 198.75 491.1 203.35 492.7 208.6 494.35 214.0 500.7 216.75 507.95 219.9 516.35 218.75 524.85 217.65 531.35 212.65 537.35 208.05 539.9 201.1 542.45 194.15 541.2 185.75 540.95 184.0 540.25 184.05 539.55 184.05 538.65 185.75 536.65 189.65 531.55 193.05 526.2 196.6 520.3 197.65 516.35 198.4 512.9 197.8 509.65 197.2 507.5 195.55"/><path fill="#0d131a" d="M476.0 148.4 Q475.9 147.8 474.4 147.8 467.5 147.75 462.05 150.5 456.65 153.25 453.3 158.45 449.95 163.75 449.7 170.25 449.4 176.65 452.1 182.3 L449.85 182.8 Q447.05 177.0 447.55 170.15 448.0 163.3 451.55 157.75 455.0 152.3 461.15 149.25 467.25 146.2 474.4 146.25 477.15 146.25 477.6 147.55 478.15 148.95 475.85 151.4 473.5 153.9 472.3 156.85 470.95 159.95 471.15 163.05 471.35 165.95 472.85 168.65 474.3 171.2 476.65 173.05 L474.05 173.25 Q471.95 171.4 470.7 168.75 469.5 166.1 469.3 163.2 469.1 159.9 470.55 156.5 471.9 153.3 474.5 150.7 476.1 149.05 476.0 148.4"/></g></svg>