<?xml version='1.0' encoding='utf-8'?>
<svg xmlns="http://www.w3.org/2000/svg" version="1.1" width="613px" height="495px" viewBox="-4.9 -5.9 612.6 495.25"><g><path fill="#865b15" d="M500.1 40.15 Q537.55 72.4 560.5 126.45 588.65 192.5 597.05 237.45 607.7 294.2 591.4 333.95 L594.3 342.15 Q597.45 352.6 598.5 363.85 601.9 399.7 583.45 429.75 L590.2 439.5 583.3 440.2 578.6 440.2 575.8 448.3 568.15 445.3 564.9 447.85 569.3 456.65 558.85 458.05 560.05 470.35 546.8 467.1 547.05 470.85 533.55 465.5 529.85 472.7 517.55 463.4 507.1 475.7 498.5 464.35 486.0 467.8 485.5 463.4 467.9 466.2 470.2 457.35 460.0 458.05 471.35 444.6 Q468.75 441.0 466.55 435.35 L464.85 430.45 Q453.85 434.4 434.75 435.8 L417.85 436.4 418.6 442.5 407.3 440.25 405.6 447.7 394.5 444.15 391.55 451.0 380.45 442.15 373.95 450.65 366.35 442.15 354.7 445.45 355.6 440.65 342.1 443.25 350.8 429.9 349.85 425.1 Q339.55 422.9 324.05 415.35 L310.6 408.25 304.15 422.7 314.15 438.25 301.7 439.7 305.45 452.85 281.0 443.4 275.25 455.65 261.0 446.4 251.9 453.4 244.5 443.05 222.85 451.95 225.45 441.75 214.95 442.4 Q204.6 442.95 205.05 442.5 205.85 441.0 211.3 435.3 L216.55 429.9 212.85 429.25 Q209.25 428.5 209.7 428.05 L214.95 424.45 219.6 421.4 Q213.25 414.8 208.1 401.15 L204.2 388.85 Q215.75 376.5 228.7 355.95 L239.35 337.9 Q232.75 330.45 223.3 303.75 L215.2 278.55 Q207.25 277.45 198.75 284.05 194.55 287.35 191.9 290.85 186.1 255.95 193.5 234.3 195.8 227.55 199.1 222.9 L202.0 219.65 Q195.8 180.8 212.8 140.6 226.35 108.4 254.1 76.85 273.9 54.25 298.75 34.25 311.2 24.25 319.7 18.75 L330.25 15.1 Q343.5 10.85 357.0 7.85 400.1 -1.85 429.2 4.2 467.65 12.2 500.1 40.15"/><path fill="#d4c79f" d="M343.35 81.65 Q349.15 78.75 352.55 79.25 363.05 79.65 376.5 89.2 380.15 91.75 390.2 99.6 400.3 107.5 407.35 112.5 423.6 124.05 443.7 124.25 453.7 124.35 460.5 122.15 459.55 123.85 453.0 130.8 456.95 132.0 468.0 137.4 473.5 140.1 478.2 142.55 L467.6 145.4 459.35 147.55 Q461.75 148.6 469.85 155.7 L477.45 162.55 467.4 163.3 Q472.6 170.65 477.95 181.95 480.6 187.6 482.25 191.8 L476.4 191.0 471.85 190.05 476.0 198.9 479.75 206.6 470.9 204.9 Q472.7 208.05 476.0 220.35 L478.95 232.05 463.75 225.3 Q461.35 234.2 455.0 246.5 L449.15 257.05 439.5 242.25 432.2 251.45 427.6 243.0 415.85 255.7 412.0 246.85 Q407.65 255.25 399.75 260.85 L392.75 264.75 Q392.5 261.65 390.1 254.9 L387.75 248.75 Q385.7 251.3 380.55 255.45 L375.8 259.15 375.05 243.75 Q367.0 253.15 357.2 259.8 353.15 262.2 349.05 264.55 L347.15 252.05 341.15 259.95 339.45 251.85 328.85 269.75 303.65 251.85 301.9 257.6 Q301.05 256.9 299.0 253.6 L297.1 250.5 287.85 270.9 Q279.9 264.2 273.0 250.2 L267.65 237.6 249.95 253.95 Q248.0 249.05 246.3 235.9 L244.95 223.75 Q243.0 225.05 236.2 231.25 L229.75 237.2 Q228.65 229.65 230.7 213.5 L233.0 198.9 226.65 202.75 227.75 195.55 228.55 191.2 220.3 195.05 Q222.1 190.5 228.9 180.3 L235.3 171.0 224.7 168.9 Q228.55 165.05 247.25 153.3 L238.95 150.05 Q241.5 147.25 251.9 140.25 L261.8 133.8 258.75 129.9 256.65 126.95 274.75 127.7 Q287.65 127.5 293.45 126.3 298.4 125.25 309.75 114.85 315.4 109.65 320.1 104.65 331.8 87.45 343.35 81.65"/><path fill="#f6c7ce" d="M339.05 109.35 Q348.1 113.95 357.05 126.9 365.9 139.7 366.9 151.65 367.7 161.2 364.15 164.55 361.95 166.6 347.5 165.3 L330.3 163.35 Q329.05 163.3 326.95 163.9 L322.75 165.1 Q316.5 166.6 309.0 164.75 300.85 162.75 302.25 149.05 302.85 142.9 308.05 124.05 310.7 114.45 317.55 109.45 321.0 106.95 323.9 106.35 332.7 106.1 339.05 109.35"/><path fill="#e5e3da" d="M511.05 59.8 Q536.2 83.2 534.2 105.3 533.05 117.6 525.55 127.4 518.7 136.4 507.4 142.15 496.65 147.6 484.05 149.15 471.5 150.65 460.0 147.95 L466.55 145.45 Q473.8 142.95 477.55 142.65 474.5 140.9 469.85 138.5 460.65 133.75 453.0 130.8 L455.8 127.7 Q458.75 124.2 459.5 121.9 455.7 124.0 448.8 124.75 435.0 126.3 419.5 119.5 404.0 112.75 391.2 102.8 L381.45 94.2 Q377.05 90.3 371.35 86.55 359.9 79.1 353.25 80.0 345.5 81.05 337.0 87.65 328.9 93.9 321.45 104.1 313.2 115.5 300.7 122.45 286.0 130.6 272.3 127.95 L256.65 126.95 261.8 133.8 Q247.05 143.6 242.2 147.45 235.2 143.25 229.25 135.65 217.35 120.4 222.45 103.4 224.6 94.4 233.85 85.15 237.45 81.5 244.85 75.9 L260.85 61.25 Q278.65 44.45 287.5 33.75 296.4 23.05 301.15 19.65 303.5 17.95 304.1 18.35 L311.3 17.0 Q320.55 16.2 331.1 19.05 343.8 22.5 367.95 21.55 392.3 20.6 407.0 15.95 421.75 11.25 436.55 14.35 451.2 17.45 468.4 28.7 L488.8 42.15 Q502.05 51.4 511.05 59.8"/><path fill="#00b8ee" d="M443.55 46.05 Q460.6 54.7 477.65 69.5 495.95 85.45 496.7 94.0 497.5 102.9 485.05 113.25 472.95 123.35 457.0 127.75 L459.7 122.8 Q453.5 124.2 444.8 124.2 427.4 124.2 415.05 117.3 402.8 110.5 390.1 100.75 L375.85 89.35 Q368.75 84.05 364.35 82.1 355.7 78.3 347.9 80.6 340.2 82.85 333.25 89.5 332.35 90.4 324.6 99.25 L318.65 106.5 Q313.1 112.95 307.4 117.45 289.7 131.3 270.85 126.9 253.4 122.8 254.0 107.7 254.35 98.15 261.55 85.8 265.15 79.65 277.0 67.85 282.95 61.95 288.15 57.3 L291.65 54.8 Q296.05 51.9 300.45 49.75 314.5 42.9 323.2 46.35 327.7 48.1 330.6 50.95 L334.65 55.8 Q339.25 61.45 349.8 62.25 L372.0 61.6 Q379.85 60.1 389.3 54.8 404.65 46.25 413.15 43.85 429.85 39.1 443.55 46.05"/><path fill="#e5e3da" d="M22.6 175.15 Q26.55 166.85 29.75 163.35 L32.15 161.55 33.4 162.3 Q34.65 163.55 34.45 165.9 34.05 170.85 34.9 185.25 36.15 206.95 40.0 227.35 52.0 291.2 84.1 318.05 108.6 344.55 132.7 343.85 153.05 343.25 168.7 324.1 182.0 304.75 188.35 296.4 194.8 287.9 201.0 283.25 209.65 276.65 215.75 279.35 L223.0 302.1 Q231.6 326.8 238.3 336.55 L231.75 349.1 Q223.25 364.25 213.45 377.35 182.1 419.2 149.65 424.6 104.85 435.7 67.3 408.95 30.8 382.95 11.65 329.05 -4.9 284.1 5.0 230.65 10.65 200.05 22.6 175.15"/><path fill="#e5e3da" d="M492.9 158.9 Q495.85 158.25 501.1 163.95 503.7 166.8 505.75 169.8 527.35 202.7 542.3 264.25 547.8 286.75 551.15 308.25 554.05 326.7 554.05 334.75 554.05 368.15 547.55 394.05 536.2 439.3 508.5 438.6 479.4 437.9 466.05 391.1 460.75 372.65 458.95 350.15 457.4 330.0 458.95 313.0 461.35 286.8 475.15 279.55 482.05 275.9 488.45 277.5 489.6 266.5 489.7 223.3 L489.7 171.3 Q489.85 161.95 491.4 159.5 492.15 158.25 492.9 158.9"/><path fill="#e5e3da" d="M251.9 453.4 L261.0 446.4 275.25 455.65 280.55 443.0 299.75 451.4 Q301.45 460.6 292.0 463.75 L285.3 465.0 282.2 465.05 Q273.95 466.85 265.4 467.3 260.05 467.6 256.8 465.95 L254.6 464.3 Q254.3 465.0 252.6 465.6 249.25 466.85 242.3 466.55 235.35 466.25 233.05 464.45 232.3 463.85 232.15 463.2 L232.1 462.65 Q228.05 462.55 224.15 461.1 L221.0 459.65 220.4 441.95 224.9 441.35 222.85 451.95 244.5 443.05 251.9 453.4"/><path fill="#e5e3da" d="M406.8 440.0 L411.6 441.2 412.35 446.25 Q412.8 451.6 411.3 453.2 409.8 454.8 404.55 455.9 L399.6 456.65 Q394.45 459.55 386.55 458.3 L379.65 456.5 Q370.95 458.45 365.7 456.65 364.1 456.05 363.0 455.15 L362.25 454.4 Q359.05 454.95 355.1 453.85 L351.8 452.6 350.85 441.2 355.35 439.85 354.75 445.1 366.0 441.95 373.95 450.65 380.55 442.55 391.55 451.0 394.35 443.6 405.9 447.65 406.8 440.0"/><path fill="#e5e3da" d="M486.0 467.8 L497.7 464.15 507.1 475.7 517.2 463.1 529.85 472.7 533.1 465.2 546.45 470.6 546.75 466.1 560.05 470.35 558.85 458.05 562.95 457.1 563.35 463.1 Q563.55 469.65 562.5 472.55 561.45 475.45 555.5 478.1 L549.75 480.2 Q548.5 482.6 542.95 484.35 538.1 485.85 532.2 486.2 527.8 486.5 524.4 485.15 L521.85 483.8 Q515.8 486.7 508.0 486.8 L496.35 486.05 Q492.3 485.75 490.4 483.65 L489.3 481.55 Q480.6 482.0 476.35 479.95 475.0 479.3 474.3 478.5 L473.85 477.8 474.0 465.05 485.7 462.95 486.0 467.8"/><path fill="#e5e3da" d="M578.1 441.05 L579.75 441.35 Q580.7 450.75 576.25 454.7 574.9 455.95 573.15 456.5 L571.65 456.8 Q570.9 460.1 567.0 461.45 L563.25 462.2 563.4 458.15 569.7 456.65 564.9 448.25 568.15 445.3 575.8 448.3 578.1 441.05"/><path fill="#0d131a" d="M549.65 467.7 L560.05 470.35 558.85 458.05 563.4 458.15 563.4 463.45 Q563.3 469.4 562.5 472.55 561.7 475.7 555.6 478.55 L549.65 480.75 549.65 467.7"/><path fill="#0d131a" d="M578.6 440.2 L580.0 440.75 Q580.65 451.3 576.2 455.1 574.85 456.3 573.1 456.65 L571.65 456.8 571.95 446.45 575.95 448.95 578.6 440.2"/><path fill="#c1bfb8" d="M239.35 337.9 Q228.85 358.7 210.1 380.25 172.65 423.25 131.6 426.8 100.4 429.5 72.45 411.05 63.75 405.25 56.35 398.1 L50.75 392.05 Q69.8 404.75 91.9 410.5 114.2 416.35 134.35 413.7 161.55 410.1 191.5 377.35 213.7 353.1 230.75 321.4 L239.35 337.9"/><path fill="#c1bfb8" d="M529.75 415.65 Q540.05 404.15 548.8 381.35 545.25 405.25 535.4 420.7 524.7 437.55 509.95 438.35 486.95 439.9 474.85 412.55 465.45 391.3 461.1 347.4 468.55 384.8 479.65 404.85 492.5 428.15 509.6 426.8 520.15 426.3 529.75 415.65"/><path fill="#c1bfb8" d="M482.55 358.4 Q479.4 357.95 479.0 355.2 L479.25 352.6 Q484.55 342.0 488.5 296.55 L491.4 253.2 Q494.1 269.6 495.1 293.0 496.3 321.05 493.7 338.65 492.35 347.95 489.2 353.5 486.05 358.95 482.55 358.4"/><path fill="#6a4504" d="M463.7 390.15 Q462.25 395.0 461.5 400.2 459.2 416.85 465.3 430.9 454.8 435.35 433.65 436.25 391.4 438.1 338.35 420.4 277.75 400.7 242.55 343.85 231.55 326.15 224.45 306.8 L219.5 291.0 222.75 295.3 Q227.15 300.75 232.8 306.45 250.95 324.75 275.1 338.8 352.35 383.9 460.45 370.25 L465.05 386.35 463.7 390.15"/><path fill="#6a4504" d="M417.05 437.15 L418.1 442.2 407.55 440.85 405.5 447.65 394.0 444.25 391.25 451.05 380.75 443.25 373.65 450.35 366.5 441.9 354.6 444.95 355.3 440.5 342.4 442.2 350.55 430.0 348.85 424.25 Q359.9 431.65 389.55 435.15 L417.05 437.15"/><path fill="#6a4504" d="M233.75 359.65 L229.7 354.5 238.45 336.5 Q254.25 367.05 284.2 390.6 299.2 402.4 311.05 408.05 L305.4 422.5 314.15 437.4 301.25 438.95 305.9 452.85 296.15 444.6 280.05 433.25 Q274.2 428.95 272.3 426.85 268.5 422.6 266.25 415.3 258.85 396.0 243.55 373.3 238.8 366.25 233.75 359.65"/><path fill="#6a4504" d="M466.7 393.45 Q468.95 401.3 471.95 408.3 481.6 430.6 495.3 435.6 509.05 440.65 515.9 438.8 519.15 437.95 519.9 436.2 L518.05 441.0 Q515.2 447.2 510.75 452.8 507.8 456.6 507.35 466.45 507.15 471.4 507.5 475.6 L497.9 464.05 486.0 467.7 486.0 463.3 468.15 465.85 469.95 457.1 464.3 457.65 Q458.75 458.05 459.35 457.6 L471.5 444.4 Q466.85 437.3 463.7 426.55 457.45 405.1 465.05 386.95 L466.7 393.45"/><path fill="#c1bfb8" d="M228.25 135.05 Q216.75 118.85 226.35 96.05 L225.35 100.6 Q224.45 106.7 225.5 112.6 228.9 131.65 250.85 140.85 L241.65 146.65 Q234.0 143.15 228.25 135.05"/><path fill="#c1bfb8" d="M530.3 120.05 Q521.45 137.9 500.2 145.75 483.7 151.15 469.6 149.9 465.2 149.5 461.55 148.5 L458.8 147.6 478.1 142.7 475.05 140.85 483.25 140.5 Q493.15 139.55 501.85 136.8 529.65 127.9 534.85 103.75 534.7 111.1 530.3 120.05"/><path fill="#c1bfb8" d="M333.3 50.45 Q346.6 55.55 359.15 54.75 L366.6 54.45 Q375.45 53.8 382.4 52.2 386.6 51.25 400.75 46.65 411.65 43.1 414.15 43.45 409.55 44.85 404.05 47.1 393.1 51.55 388.55 55.8 383.65 60.45 371.75 62.6 361.6 64.45 355.1 63.5 347.45 62.35 343.9 60.95 336.85 58.15 328.7 50.7 L322.5 45.15 325.4 46.85 Q329.15 48.85 333.3 50.45"/><path fill="#b7ad8a" d="M245.0 217.3 L245.15 224.7 230.2 236.8 Q232.65 231.4 239.1 223.8 242.3 220.0 245.0 217.3"/><path fill="#b7ad8a" d="M267.75 238.25 L250.4 253.05 Q252.2 249.95 255.2 245.85 261.15 237.7 267.0 232.85 L267.75 238.25"/><path fill="#b7ad8a" d="M387.95 248.9 L391.4 244.55 393.15 250.55 Q394.7 257.9 393.55 264.8 389.2 251.05 387.95 248.9"/><path fill="#b7ad8a" d="M413.75 242.05 L415.25 246.0 Q416.6 250.85 415.95 255.2 L411.95 246.9 413.75 242.05"/><path fill="#fbe4e7" d="M327.8 115.4 L323.15 115.45 Q320.45 115.6 317.0 117.55 310.05 121.4 306.35 130.25 309.25 120.2 312.95 114.85 318.05 107.4 325.85 106.2 346.65 106.2 359.4 131.75 365.8 144.55 368.05 157.3 357.5 128.1 339.3 118.85 333.6 115.95 327.8 115.4"/><path fill="#6a4504" d="M267.7 236.6 L271.1 245.8 256.45 258.4 Q255.85 257.15 255.05 253.9 L254.4 250.9 267.7 236.6"/><path fill="#6a4504" d="M289.7 265.45 L296.2 249.8 301.15 257.05 295.8 272.75 Q293.7 271.55 291.5 268.35 L289.7 265.45"/><path fill="#6a4504" d="M298.9 257.85 L299.65 252.5 301.15 257.05 303.85 250.95 307.3 254.75 304.25 262.8 298.9 257.85"/><path fill="#6a4504" d="M407.2 254.25 Q410.3 250.5 412.45 247.05 L414.4 253.95 Q409.1 261.85 402.8 266.5 L397.55 269.6 396.25 263.4 Q401.05 261.75 407.2 254.25"/><path fill="#6a4504" d="M430.35 248.75 Q428.7 251.65 424.2 255.85 L420.05 259.45 418.15 252.9 427.4 243.05 430.35 248.75"/><path fill="#6a4504" d="M358.9 265.85 L351.45 268.4 351.2 263.4 Q357.95 260.7 367.15 252.25 L374.95 244.3 375.55 253.5 Q367.9 261.65 358.9 265.85"/><path fill="#c1bfb8" d="M507.5 475.6 L506.9 486.5 500.25 487.15 Q493.05 486.85 490.0 482.05 L491.05 467.05 497.9 464.05 507.5 475.6"/><path fill="#c1bfb8" d="M486.15 462.65 L486.0 467.7 492.1 466.45 490.0 482.05 Q484.05 482.6 478.6 480.8 L474.35 478.9 474.55 465.4 486.15 462.65"/><path fill="#c1bfb8" d="M351.5 441.8 L355.3 440.5 353.95 445.55 365.9 442.25 373.65 450.35 380.45 442.55 391.55 450.75 394.25 443.85 399.9 446.0 399.15 457.2 Q392.7 459.55 385.6 458.1 L379.85 456.2 Q369.15 458.25 364.45 456.6 363.0 456.05 362.3 455.25 L361.9 454.5 Q358.05 455.05 354.2 453.65 L351.1 452.2 351.5 441.8"/><path fill="#0d131a" d="M406.65 440.4 L411.4 441.4 412.1 444.55 Q412.6 448.3 411.8 451.45 411.0 454.6 405.45 456.0 L400.0 456.8 400.0 446.4 405.5 447.65 406.65 440.4"/><path fill="#0d131a" d="M299.85 450.3 L300.1 450.5 299.3 456.95 Q298.45 462.15 290.2 463.95 L284.6 464.65 282.1 464.7 282.4 443.95 299.85 450.3"/><path fill="#c1bfb8" d="M280.45 443.65 L282.4 444.8 282.1 464.7 Q280.45 466.1 270.45 467.2 L270.2 452.25 275.45 455.3 280.45 443.65"/><path fill="#0d131a" d="M321.3 78.9 Q315.85 93.25 302.7 98.75 297.45 100.95 292.65 100.9 288.0 100.85 285.75 98.8 281.75 95.15 281.65 88.85 281.55 82.7 285.15 76.75 288.3 71.55 295.3 66.0 298.85 63.2 301.7 61.45 L310.35 68.25 Q319.35 75.65 321.3 78.9"/><path fill="#0d131a" d="M411.6 88.85 Q408.8 85.45 406.7 81.55 L405.2 78.3 420.0 68.25 Q436.35 58.3 444.4 58.7 450.3 64.05 453.7 71.8 456.6 78.4 456.35 83.2 455.95 90.0 452.45 94.75 446.55 102.8 433.35 101.25 420.55 99.7 411.6 88.85"/><path fill="#ffffff" d="M440.2 64.45 Q442.95 68.4 443.65 72.8 444.55 78.6 441.0 84.05 436.45 91.05 427.2 89.8 418.3 88.6 414.45 80.6 413.2 78.1 412.65 75.25 L412.35 72.85 Q415.25 70.2 426.0 65.1 431.35 62.55 436.15 60.5 437.85 61.1 440.2 64.45"/><path fill="#0d131a" d="M426.2 70.9 Q428.5 70.35 428.15 78.85 427.9 86.1 426.1 85.9 425.1 85.8 424.65 84.7 423.9 82.9 423.9 78.15 423.9 73.7 425.05 71.85 425.65 70.95 426.2 70.9"/><path fill="#ffffff" d="M295.85 87.6 Q293.25 83.6 294.35 78.15 295.75 71.45 301.0 67.35 303.65 65.3 306.0 64.6 L318.25 75.35 318.3 77.9 Q317.65 81.4 314.25 86.0 309.65 91.95 303.7 91.85 L300.05 91.2 298.65 90.55 Q297.15 89.65 295.85 87.6"/><path fill="#0d131a" d="M326.7 104.4 Q339.85 103.95 352.7 119.05 359.15 126.6 362.95 134.25 366.5 140.65 368.6 148.95 370.9 158.25 369.05 162.25 367.4 165.85 363.0 167.15 357.3 168.9 347.35 166.55 341.35 165.15 332.65 165.35 L320.25 166.4 317.6 166.8 Q308.3 168.0 303.6 162.85 300.25 159.2 300.7 149.65 301.2 139.05 306.4 124.9 311.25 111.8 318.8 106.95 322.1 104.85 326.7 104.4 M359.15 134.9 L358.75 134.15 Q352.95 123.8 347.2 117.75 337.45 107.5 326.75 107.35 323.65 107.25 320.05 109.45 312.95 113.8 308.7 125.5 303.75 139.05 303.5 149.5 303.3 157.95 305.85 160.9 309.4 164.95 317.3 163.9 L319.9 163.5 Q336.6 160.9 346.75 163.0 362.35 166.25 365.15 160.3 366.5 157.35 364.6 149.3 362.7 141.2 359.15 134.9"/><path fill="#0d131a" d="M315.65 135.6 Q315.95 134.45 316.4 133.2 317.05 131.45 317.4 131.55 317.7 131.65 317.6 132.6 L317.15 135.6 Q316.95 136.0 315.8 148.45 315.7 149.5 315.2 150.1 314.75 150.7 314.1 150.65 313.45 150.6 313.15 149.85 312.8 149.05 313.0 147.65 313.45 144.5 314.55 139.9 L315.65 135.6"/><path fill="#0d131a" d="M339.65 131.05 Q340.0 130.9 340.9 131.9 L342.05 133.4 345.4 138.5 Q348.7 144.2 349.65 148.85 349.85 149.9 349.6 150.6 349.4 151.35 348.8 151.5 348.05 151.7 347.45 150.95 346.95 150.3 346.8 149.55 346.05 145.2 343.4 139.4 L340.85 134.35 339.8 132.45 Q339.2 131.25 339.65 131.05"/><path fill="#0d131a" d="M497.45 88.2 Q499.4 91.55 499.4 95.25 499.4 100.85 495.1 106.8 492.8 110.0 490.3 112.15 487.25 115.2 479.15 120.25 466.35 128.2 455.0 130.35 454.4 130.45 454.75 128.85 455.05 127.25 455.65 127.1 466.6 124.15 477.2 116.7 482.5 112.95 485.7 109.7 L485.8 109.6 487.65 107.75 Q489.8 105.45 491.25 103.0 495.95 95.3 492.35 89.2 L492.3 89.05 Q488.7 80.95 468.15 65.05 447.1 48.7 434.6 45.0 416.05 39.55 391.35 55.7 381.75 62.0 371.9 64.25 363.5 66.15 353.1 65.35 345.1 64.8 339.3 61.3 335.1 58.8 328.8 52.25 325.0 48.35 320.15 46.95 L315.8 46.3 Q312.85 46.15 307.95 47.8 298.15 51.1 288.0 60.05 270.65 75.35 262.3 87.85 254.0 100.25 255.3 108.85 256.65 117.85 262.55 122.2 266.7 125.3 273.7 126.25 274.3 126.35 274.15 127.8 273.95 129.25 273.35 129.15 265.6 128.35 259.7 124.0 252.2 118.4 250.85 108.7 249.5 99.25 258.55 86.0 267.35 72.95 285.85 56.7 296.65 47.2 307.4 44.05 312.85 42.5 316.35 42.8 317.75 42.55 320.9 43.65 326.15 45.5 331.0 50.35 336.45 55.8 340.65 58.0 345.7 60.6 353.4 61.15 L371.95 60.4 Q381.95 58.6 389.7 53.3 402.4 44.65 414.5 41.5 426.9 38.25 437.0 41.25 450.15 45.15 472.2 62.55 493.6 79.5 497.45 88.2"/><path fill="#0d131a" d="M330.75 90.5 L333.35 87.55 Q339.45 80.85 347.4 78.6 351.45 77.4 354.85 77.6 L356.95 77.8 Q359.75 78.25 363.0 79.55 373.45 83.65 384.55 94.55 396.2 105.9 411.65 114.05 437.35 127.6 458.1 121.25 L459.7 120.9 Q461.45 120.7 461.9 121.5 462.6 122.85 460.5 124.95 454.85 131.1 451.0 134.05 450.25 134.65 449.3 135.1 L447.7 135.25 Q447.5 135.05 447.95 134.3 448.4 133.5 449.2 132.8 L457.25 124.45 Q439.2 129.25 417.55 120.25 399.15 112.6 382.65 97.25 371.9 87.2 362.05 83.55 358.95 82.4 356.3 82.0 L354.25 81.85 Q351.85 81.7 348.35 82.8 341.35 84.95 335.8 91.05 L333.2 94.0 Q319.8 109.05 314.0 114.4 300.6 126.9 290.65 128.95 L278.3 129.75 259.3 128.6 Q261.75 131.9 263.15 133.1 264.05 133.85 264.1 134.5 L263.15 135.4 Q256.65 139.15 250.1 143.35 243.7 147.45 241.0 149.65 243.4 150.35 246.45 151.7 L250.05 153.4 Q251.6 154.6 251.5 155.1 251.35 155.7 250.6 155.6 L249.1 155.1 245.3 153.8 Q241.7 152.6 238.55 151.75 237.35 151.35 237.25 150.85 237.1 150.35 237.75 149.5 239.0 147.85 247.1 142.3 253.6 137.85 259.9 133.95 258.1 132.05 255.1 127.7 254.3 126.35 254.7 125.85 255.25 125.3 256.45 125.45 L277.25 126.15 Q285.85 126.1 290.85 125.05 298.95 123.35 312.15 110.55 317.45 105.45 330.75 90.5"/><path fill="#0d131a" d="M232.6 171.55 L224.9 171.15 Q223.75 171.15 223.35 170.4 223.15 169.9 224.15 168.6 227.0 165.25 236.85 158.6 241.8 155.25 246.65 152.3 247.15 152.0 247.85 153.3 248.5 154.6 248.15 154.8 244.4 156.95 239.9 159.7 231.0 165.2 227.0 168.55 L233.05 169.25 237.25 170.05 Q239.05 170.45 239.05 171.25 239.05 171.8 237.4 171.8 L232.6 171.55"/><path fill="#0d131a" d="M234.25 170.1 Q234.65 169.65 235.9 169.9 237.15 170.15 237.15 170.55 237.15 171.1 236.8 171.45 L231.35 178.75 Q225.3 187.2 222.1 193.45 L227.75 190.25 Q229.0 189.65 229.7 190.0 230.3 190.25 229.75 192.15 L228.35 200.85 232.0 197.9 Q233.75 196.6 234.4 196.95 234.9 197.25 234.2 199.75 L232.5 209.75 Q230.8 221.45 230.8 230.8 L230.8 235.05 244.4 221.55 Q244.8 221.15 245.0 223.05 245.2 224.95 244.75 225.4 L231.35 237.65 Q230.25 238.55 229.4 238.25 228.7 237.95 228.55 236.4 L228.15 229.75 Q228.15 217.65 231.25 202.0 L228.15 204.25 Q226.55 205.1 225.95 204.75 225.65 204.6 225.55 203.65 L225.55 202.65 226.15 198.15 227.0 193.35 221.75 196.1 220.05 196.75 218.8 196.6 Q218.25 196.1 218.9 194.25 221.75 187.35 228.1 178.3 231.3 173.7 234.25 170.1"/><path fill="#0d131a" d="M245.1 217.1 Q245.65 217.05 246.05 218.7 L246.35 222.3 246.95 232.7 Q248.05 244.45 250.55 252.2 L266.6 236.2 Q267.05 235.75 267.55 237.3 268.0 238.9 267.55 239.3 L251.25 254.9 Q250.35 255.65 249.85 255.55 249.25 255.45 248.9 254.35 245.8 246.4 244.55 233.8 L243.85 222.1 Q243.85 220.8 244.2 219.15 244.55 217.1 245.1 217.1"/><path fill="#0d131a" d="M373.65 243.15 Q374.8 241.85 375.45 242.1 376.05 242.3 376.2 244.0 L377.05 257.0 Q385.4 250.25 388.25 246.9 L389.8 245.1 Q391.05 243.75 391.5 244.05 391.9 244.4 391.15 245.9 L389.95 247.85 Q387.65 251.2 382.4 255.65 L377.35 259.7 Q376.25 260.65 375.45 260.25 374.8 259.9 374.7 257.9 L373.85 247.0 Q366.2 255.1 357.5 261.05 352.15 264.75 349.9 265.65 L348.45 266.0 Q348.0 265.75 347.85 264.55 L346.35 255.2 342.35 260.0 Q341.5 261.1 340.8 261.0 340.2 260.9 339.8 259.5 L338.7 255.3 329.9 270.35 329.1 271.0 328.0 270.9 Q326.25 270.05 317.15 263.35 L304.65 254.1 303.45 257.3 Q302.95 258.85 302.15 258.9 301.6 259.0 300.35 257.4 L297.15 252.65 Q294.15 258.55 289.2 271.35 288.75 272.4 288.2 272.5 287.6 272.65 286.8 271.85 276.85 261.85 270.75 248.65 268.8 244.45 267.45 240.4 L266.4 236.8 266.2 234.35 Q266.2 232.45 266.85 232.3 267.75 232.15 268.9 236.65 L272.85 247.2 Q278.55 259.45 287.3 268.8 293.85 252.0 295.9 249.3 296.75 248.15 297.25 248.2 297.65 248.2 298.35 249.45 L299.35 251.6 Q300.5 254.05 301.55 255.6 L302.3 253.15 302.65 251.7 Q303.05 250.45 303.45 250.35 303.85 250.2 304.85 251.05 L316.95 260.1 328.4 268.35 337.95 251.45 Q338.9 249.85 339.6 249.95 340.3 250.0 340.6 251.8 L340.9 253.75 341.65 257.15 346.15 251.2 347.0 250.05 Q347.65 249.3 348.0 249.4 348.4 249.5 348.55 250.5 L348.7 251.9 349.15 256.55 349.9 263.3 Q353.8 261.2 359.55 256.6 367.15 250.5 373.65 243.15"/><path fill="#0d131a" d="M411.75 245.05 Q413.5 241.35 414.2 241.7 414.7 241.95 414.3 243.6 L413.55 245.75 Q409.4 254.55 401.9 260.8 L394.7 265.55 Q393.7 266.1 393.1 265.95 392.5 265.8 392.25 265.35 391.95 264.8 391.75 263.55 391.4 261.25 389.75 256.3 L387.1 249.15 Q386.85 248.6 388.0 247.85 389.2 247.05 389.45 247.6 L391.5 253.95 394.0 263.5 Q399.15 260.1 402.25 257.3 408.2 251.9 411.75 245.05"/><path fill="#0d131a" d="M452.3 132.7 Q451.85 132.55 452.3 131.15 452.75 129.75 453.3 129.95 L464.55 134.3 Q475.7 138.9 478.55 141.25 479.9 142.4 479.85 142.95 479.85 143.55 477.9 143.85 473.05 144.6 462.0 147.9 474.3 156.6 478.15 161.55 479.3 162.95 479.15 163.5 479.05 164.0 477.9 164.1 L469.9 164.65 Q473.95 171.15 477.5 177.8 482.7 187.45 483.6 191.65 L483.65 193.1 Q483.25 193.65 482.05 193.4 L471.1 191.4 Q470.5 191.3 470.6 189.75 470.65 188.25 471.25 188.35 L475.0 189.3 480.9 190.7 Q479.0 185.35 472.4 174.25 L466.1 164.05 Q465.6 163.2 465.75 162.6 L466.05 162.2 467.55 162.0 475.6 161.9 Q472.2 158.65 464.8 153.35 L458.05 148.7 Q457.05 148.15 457.05 147.45 L457.15 147.1 Q457.35 146.65 458.1 146.25 459.75 145.4 465.65 144.05 471.35 142.75 475.7 142.15 470.4 139.4 452.3 132.7"/><path fill="#0d131a" d="M469.1 186.65 Q469.95 186.2 471.2 188.15 L475.5 195.55 Q479.75 203.1 480.55 205.95 480.95 207.1 480.55 207.5 L478.3 207.65 472.85 206.8 477.1 219.1 Q479.85 227.85 480.3 231.95 480.4 233.25 479.9 233.55 479.5 233.75 477.35 232.9 L464.65 227.2 Q461.15 239.3 450.55 256.95 449.9 258.05 449.15 258.05 448.5 258.05 447.75 256.95 L439.35 244.0 433.3 251.9 Q432.6 252.8 432.05 252.75 431.35 252.7 430.9 251.7 L427.05 244.7 Q421.75 251.15 416.85 256.05 415.95 256.95 415.45 256.85 415.0 256.75 414.45 255.55 L411.1 247.4 Q410.9 246.85 412.0 245.95 413.1 245.05 413.3 245.6 L416.1 252.8 426.15 242.35 Q426.8 241.5 427.55 241.6 428.05 241.65 428.6 242.55 L432.25 249.3 438.25 241.3 Q439.0 240.45 439.6 240.5 440.05 240.5 440.65 241.45 L449.0 255.3 Q455.95 242.9 459.8 232.7 L462.25 224.85 Q462.5 223.8 462.95 223.55 L464.3 223.8 469.7 226.65 477.8 230.8 Q476.65 225.4 472.85 214.95 L469.2 205.45 Q468.7 204.2 469.1 203.75 469.55 203.2 470.85 203.45 L477.55 204.9 472.7 194.8 469.55 188.75 469.1 187.7 Q468.8 186.85 469.1 186.65"/><path fill="#0d131a" d="M487.15 38.45 Q516.95 58.75 528.6 77.45 535.7 88.5 536.5 101.0 537.2 112.2 532.9 120.25 530.55 125.45 524.6 131.65 512.75 144.0 494.7 148.9 480.85 152.3 469.0 150.85 465.2 150.4 462.05 149.45 L459.4 148.55 Q458.85 148.3 459.5 147.35 460.1 146.45 460.65 146.7 L462.95 147.35 Q465.95 148.05 469.5 148.35 480.8 149.3 493.9 146.1 518.75 137.35 528.6 119.0 531.1 114.45 531.8 107.2 533.25 92.7 524.55 79.15 513.3 61.15 482.8 40.35 457.15 22.85 440.45 17.1 430.9 13.8 416.1 16.1 411.05 16.9 393.75 21.2 L388.25 22.5 Q378.7 24.6 364.65 24.45 349.3 24.3 335.05 21.35 314.25 17.1 307.95 18.8 306.15 18.95 303.0 20.85 296.75 24.55 289.9 33.1 281.55 43.5 267.3 57.6 253.9 70.8 244.15 78.6 L237.8 84.1 Q233.2 88.35 230.15 92.6 221.25 105.1 224.2 119.8 226.1 130.2 234.6 138.95 238.9 143.35 242.9 145.65 243.4 146.0 242.7 147.25 242.0 148.5 241.45 148.2 235.7 145.05 230.25 139.25 219.5 127.8 219.0 113.45 218.65 103.2 224.75 93.15 230.8 83.2 241.85 75.5 249.3 70.35 263.9 56.05 279.05 41.15 287.45 30.45 297.8 17.25 307.65 15.45 L315.05 14.85 Q323.8 14.95 335.55 17.7 347.7 20.55 364.25 20.35 378.7 20.15 388.6 17.95 L394.0 16.65 Q410.05 12.75 416.5 11.9 431.15 10.05 441.25 13.7 461.75 21.1 487.15 38.45"/><path fill="#0d131a" d="M533.55 73.9 Q553.2 101.3 565.4 132.1 579.7 168.4 589.1 198.2 607.25 255.75 605.45 282.1 603.8 306.1 596.5 325.1 592.85 334.65 589.15 339.9 586.9 343.0 585.75 342.35 585.0 341.95 586.65 338.45 589.45 333.7 592.55 324.35 598.75 305.65 600.35 282.2 602.15 256.25 584.25 199.1 574.6 168.35 560.75 133.35 545.2 94.0 521.35 64.85 493.05 30.25 456.35 14.45 418.7 -1.75 367.85 6.65 351.9 9.25 336.5 14.05 L324.0 18.45 Q323.45 18.7 322.85 17.35 322.3 16.05 322.85 15.8 323.05 15.7 335.8 11.15 351.75 6.05 368.25 3.15 420.75 -5.9 459.15 10.6 501.1 28.65 533.55 73.9"/><path fill="#0d131a" d="M543.7 214.1 Q544.3 213.9 545.05 215.3 545.8 216.65 546.35 218.9 L548.05 225.65 Q549.9 234.05 551.1 242.9 554.85 271.15 550.3 293.85 550.2 294.45 548.1 292.85 546.0 291.2 546.1 290.6 550.55 268.4 547.8 241.85 546.95 233.55 545.45 225.75 L544.1 219.5 Q543.05 214.3 543.7 214.1"/><path fill="#0d131a" d="M221.55 120.8 Q221.85 120.3 223.1 121.05 224.35 121.85 224.05 122.35 216.1 135.45 209.85 155.45 197.4 195.3 204.95 231.45 L205.3 233.8 Q205.45 235.3 204.95 235.45 203.65 235.6 202.85 232.4 195.55 200.5 200.95 171.95 205.8 146.25 221.55 120.8"/><path fill="#0d131a" d="M212.0 260.35 Q213.15 260.15 214.3 267.15 L217.85 282.45 Q222.9 300.9 231.0 318.5 256.75 374.5 302.9 401.45 341.35 423.9 383.45 431.15 425.5 438.45 465.2 429.5 465.8 429.4 466.15 431.05 466.45 432.75 465.85 432.9 426.0 441.85 384.05 435.1 341.0 428.2 302.3 405.75 254.4 377.95 228.35 319.75 220.2 301.5 215.15 282.3 L211.7 266.4 Q211.4 264.8 211.45 262.8 211.45 260.45 212.0 260.35"/><path fill="#0d131a" d="M24.6 168.8 L27.3 164.05 Q30.3 159.8 33.65 161.3 36.5 162.55 36.15 166.95 L36.2 179.3 Q36.75 194.85 39.05 210.6 46.5 261.1 69.2 294.7 93.35 330.5 116.95 340.2 130.7 345.8 142.7 342.0 153.1 339.35 168.05 321.35 177.0 310.65 189.1 292.15 196.4 281.0 206.35 277.7 211.4 276.05 215.35 276.7 215.95 276.8 216.25 278.7 216.5 280.55 215.9 280.45 212.4 279.85 207.85 281.35 198.85 284.25 192.25 294.35 L183.25 308.35 Q177.15 317.7 172.05 324.15 157.35 342.6 144.0 346.15 127.35 350.35 111.95 343.4 89.3 333.2 66.25 299.0 43.2 264.8 36.05 212.15 33.8 195.65 33.4 179.25 L33.5 165.8 Q33.75 163.55 32.65 163.2 31.9 162.95 30.95 164.0 L29.75 165.65 27.0 170.6 Q23.75 176.85 20.75 184.05 11.15 206.95 7.65 230.55 2.35 266.15 5.75 293.45 10.7 332.85 33.55 368.85 58.45 408.6 97.25 420.8 109.4 424.6 121.55 425.2 127.65 425.5 131.55 425.0 L141.85 423.5 Q154.45 420.65 167.35 413.65 208.4 391.45 237.35 336.6 237.6 336.05 239.25 336.85 240.9 337.6 240.65 338.15 219.0 383.4 186.35 407.8 158.65 428.55 130.25 429.75 102.35 430.95 76.0 416.45 48.0 401.05 29.7 371.85 6.45 335.15 1.4 292.5 -2.35 260.9 4.05 227.7 8.6 204.0 18.35 181.8 21.4 174.8 24.6 168.8"/><path fill="#0d131a" d="M492.2 157.65 Q494.15 157.1 497.15 159.0 502.6 162.45 509.35 173.2 514.9 181.5 522.85 200.0 532.6 222.65 540.05 247.9 560.6 317.95 554.2 375.0 547.35 418.05 527.25 433.65 520.85 438.6 513.8 440.15 L507.45 440.75 Q493.5 440.0 482.65 428.35 471.15 416.1 464.55 393.3 457.35 368.4 456.65 335.1 455.9 301.9 462.2 290.2 466.7 281.95 475.15 278.0 480.95 275.3 486.05 275.35 487.35 249.65 488.1 206.05 L488.55 167.05 Q488.55 158.7 492.2 157.65 M496.8 162.0 Q495.45 160.9 494.35 160.5 L493.55 160.35 Q492.75 160.55 492.35 161.3 491.35 163.25 491.5 168.8 L491.55 176.55 491.75 219.2 Q491.7 253.45 490.4 279.0 L488.8 306.85 Q486.3 337.55 481.8 351.9 L480.65 354.75 Q479.85 356.15 479.35 355.9 478.5 355.55 478.8 352.25 L479.25 349.0 Q481.6 338.2 483.2 319.9 484.35 306.25 485.75 279.7 480.65 280.1 476.95 281.85 470.35 284.95 466.35 292.3 460.35 303.35 461.2 335.9 462.1 368.45 469.05 392.45 475.4 414.5 484.95 425.4 494.2 435.95 506.9 436.65 L512.25 436.15 Q518.65 434.7 524.55 430.05 543.25 415.2 549.75 374.15 556.1 317.75 536.2 248.35 529.05 223.5 519.7 201.05 512.1 182.95 506.85 174.8 501.2 165.5 496.8 162.0"/><path fill="#0d131a" d="M203.8 389.2 Q205.8 387.85 205.95 388.35 L210.45 401.1 Q216.05 414.85 221.65 421.15 L222.3 422.4 Q222.3 423.1 221.25 423.65 L217.1 425.4 Q213.4 426.95 211.6 428.0 212.95 428.25 216.8 428.0 217.35 428.1 217.15 429.55 216.95 431.0 216.35 430.9 L209.65 429.7 Q208.4 429.5 208.3 428.75 208.2 428.2 209.15 427.4 214.15 423.55 217.9 421.65 211.75 415.0 206.3 402.65 203.0 395.2 201.8 390.7 L203.8 389.2"/><path fill="#0d131a" d="M216.9 428.0 Q217.6 427.4 218.9 426.7 220.55 425.85 221.0 426.1 221.3 426.3 221.0 426.85 L220.4 427.6 215.35 432.6 Q209.85 438.15 207.3 441.4 L224.65 440.4 Q225.25 440.35 225.7 440.8 226.15 441.2 226.2 441.8 226.2 442.4 225.8 442.85 225.4 443.3 224.75 443.3 L205.3 444.05 Q203.95 444.05 203.65 443.55 203.3 443.0 204.0 441.85 206.3 437.75 211.65 432.65 L216.9 428.0"/><path fill="#0d131a" d="M244.05 442.65 Q244.6 442.85 244.85 443.4 245.1 443.95 244.85 444.55 L244.05 445.35 223.5 453.85 Q222.7 454.15 222.0 453.6 221.35 453.05 221.5 452.15 L225.25 437.9 Q225.4 437.1 225.8 436.45 226.25 435.6 226.75 435.75 227.5 435.9 227.15 437.95 L224.5 450.45 242.95 442.65 Q243.5 442.4 244.05 442.65"/><path fill="#0d131a" d="M299.85 438.35 L300.7 438.3 305.4 438.15 312.5 437.7 306.95 430.05 302.85 424.6 Q302.65 424.35 303.9 422.85 305.15 421.3 305.45 421.75 L314.85 437.4 Q315.45 438.35 315.2 439.0 314.95 439.65 313.75 439.75 L302.85 441.0 306.85 452.35 Q307.35 453.8 306.75 454.2 306.15 454.6 304.95 454.2 L281.15 445.15 276.7 455.85 Q276.4 456.65 275.8 456.85 275.3 457.05 274.6 456.55 L260.95 448.25 252.9 454.7 Q252.45 455.1 251.8 455.0 251.15 454.9 250.8 454.4 L242.65 441.65 Q241.15 439.2 241.85 438.7 242.6 438.2 244.15 440.45 L250.05 448.65 252.35 451.75 259.95 445.3 261.6 445.2 267.35 449.2 274.9 454.25 277.3 447.6 278.95 442.7 279.75 441.95 280.85 441.9 303.95 451.3 301.25 444.4 299.5 440.2 Q299.05 438.85 299.15 438.65 299.3 438.4 299.85 438.35"/><path fill="#0d131a" d="M309.45 406.9 Q309.7 406.35 311.4 407.1 313.05 407.85 312.8 408.4 L309.05 415.75 303.35 426.4 Q301.7 429.0 300.85 428.65 300.05 428.3 301.2 425.4 L309.45 406.9"/><path fill="#0d131a" d="M340.6 443.85 Q340.35 443.25 341.1 442.05 L348.9 430.5 348.25 426.25 Q348.25 425.7 349.65 425.55 351.1 425.4 351.2 426.0 L351.9 430.6 351.9 430.85 351.65 431.65 344.6 441.5 354.7 439.2 Q355.3 439.15 355.35 440.55 355.4 442.0 354.8 442.1 L342.65 444.1 Q340.85 444.4 340.6 443.85"/><path fill="#0d131a" d="M405.65 440.8 Q405.8 439.45 406.0 439.3 L407.1 439.15 416.6 440.8 416.15 437.85 Q416.05 437.7 417.6 437.3 L419.25 437.45 419.85 441.8 Q419.95 443.0 419.55 443.45 L418.2 443.6 408.0 441.75 407.15 447.7 Q407.05 448.4 406.5 448.7 L405.3 448.9 395.2 446.05 392.85 451.25 Q392.45 452.3 391.95 452.4 391.6 452.5 390.7 451.85 L380.75 444.8 374.9 451.3 Q374.3 452.0 373.8 452.0 L372.75 451.3 365.6 443.85 354.85 447.1 354.1 447.4 353.45 447.25 Q353.05 446.9 353.25 445.85 L354.95 438.35 Q355.2 437.15 355.7 436.25 356.25 435.15 356.75 435.25 357.2 435.35 357.2 436.4 L357.15 437.95 356.95 440.05 356.3 443.85 365.55 440.8 Q366.45 440.5 367.1 441.15 L369.85 444.55 373.75 449.15 377.15 444.9 379.45 441.9 Q379.85 441.5 380.4 441.45 380.95 441.35 381.4 441.7 L385.4 444.9 391.05 449.3 393.2 443.75 Q393.7 442.6 394.75 442.9 L398.95 444.5 404.95 446.55 405.65 440.8"/><path fill="#0d131a" d="M463.45 382.65 Q463.6 382.1 464.15 381.8 L465.25 381.65 Q466.3 381.95 466.3 383.05 L466.25 383.5 464.95 389.55 Q463.7 397.05 463.7 405.0 463.7 426.65 472.85 444.75 L473.0 445.4 Q473.0 446.0 472.65 446.4 L462.4 456.9 470.0 455.65 Q470.6 455.6 470.75 457.05 470.9 458.5 470.3 458.55 L460.0 459.6 Q458.7 459.7 458.25 458.9 457.9 458.2 458.8 457.15 L469.8 445.15 Q458.85 422.8 458.85 405.85 458.85 397.65 461.15 389.4 L463.45 382.65"/><path fill="#0d131a" d="M589.9 331.9 Q589.7 331.35 591.05 330.8 L592.6 330.85 596.1 340.25 Q599.75 351.8 600.9 363.95 604.7 402.5 582.8 432.25 L581.2 433.75 579.75 434.0 Q579.35 433.7 579.75 432.6 580.1 431.75 580.6 431.0 599.4 402.95 596.6 364.85 595.7 352.9 592.75 341.3 L589.9 331.9"/><path fill="#0d131a" d="M486.7 463.0 Q486.9 464.45 486.3 464.55 L468.6 467.4 466.95 467.2 Q466.7 466.9 466.95 465.55 L469.85 455.65 470.7 453.8 Q471.3 452.65 471.8 452.8 472.25 452.95 472.15 453.8 L471.8 455.4 469.15 465.15 485.85 461.65 Q486.45 461.6 486.7 463.0"/><path fill="#0d131a" d="M486.15 459.25 Q486.7 459.25 487.0 460.7 L487.25 463.2 487.25 466.35 496.6 463.15 497.7 463.25 Q498.25 463.5 498.45 464.05 498.65 464.65 498.35 465.2 L497.5 465.9 486.55 469.45 485.0 469.5 Q484.6 469.2 484.6 468.05 L484.95 462.8 Q484.95 461.9 485.25 460.75 485.65 459.25 486.15 459.25"/><path fill="#0d131a" d="M516.1 462.55 Q516.5 462.1 517.65 463.0 518.75 463.85 518.4 464.35 L508.5 477.1 507.5 477.8 Q506.8 477.8 506.15 477.0 L496.05 464.0 Q495.45 463.25 495.25 462.4 495.0 461.5 495.45 461.15 496.15 460.6 498.2 463.1 L507.3 474.3 516.1 462.55"/><path fill="#0d131a" d="M563.4 287.55 Q563.95 287.25 565.05 288.65 566.15 290.05 567.25 292.55 L570.0 299.3 Q573.2 307.75 575.85 317.1 584.25 346.9 584.25 375.8 584.25 393.85 579.75 410.95 574.95 429.25 565.3 445.05 L571.3 456.4 571.45 457.1 571.0 458.1 570.2 458.55 560.55 459.8 561.2 470.55 Q561.2 471.25 560.65 471.7 560.0 472.2 559.3 471.95 L548.3 468.55 548.1 470.65 Q548.0 471.45 547.4 471.75 L546.15 471.9 533.55 467.15 530.95 472.95 Q530.55 473.8 530.1 473.9 529.5 474.05 528.75 473.5 L515.35 462.95 514.1 461.65 Q513.55 460.95 513.85 460.5 514.4 459.75 516.6 461.45 522.4 465.5 529.15 470.45 L531.5 464.95 Q531.75 464.45 532.25 464.25 L533.3 464.2 545.35 468.55 545.45 466.55 Q545.6 465.35 545.9 465.1 L547.4 465.25 558.7 469.05 558.05 462.75 557.55 458.5 Q557.55 457.95 557.9 457.55 558.3 457.15 558.85 457.05 L567.75 455.9 562.15 446.05 561.95 445.35 Q561.95 445.0 562.4 444.25 571.95 428.85 576.45 410.4 580.5 393.6 580.1 375.35 579.45 345.25 571.95 315.95 569.65 306.85 566.85 298.7 L564.55 292.2 563.75 289.85 Q563.05 287.75 563.4 287.55"/><path fill="#0d131a" d="M583.15 428.25 Q583.75 428.2 584.2 428.6 585.7 429.8 588.4 434.2 L591.15 439.05 591.2 440.3 Q590.9 440.9 590.25 441.15 586.65 442.1 579.35 441.95 L577.25 449.05 576.7 449.95 575.5 449.85 568.5 447.1 566.35 449.0 565.3 449.35 Q564.7 449.3 564.3 448.85 563.9 448.4 563.95 447.8 564.0 447.2 564.45 446.8 L567.25 444.3 Q568.0 443.75 568.8 444.05 L575.3 446.9 576.7 440.15 Q576.8 439.65 577.25 439.3 577.7 438.95 578.2 439.0 L581.85 439.2 588.3 439.0 585.1 434.15 582.35 430.85 Q581.8 430.4 581.8 429.7 581.8 429.15 582.15 428.8 582.5 428.3 583.15 428.25"/><path fill="#0d131a" d="M218.95 441.85 L221.05 441.7 Q223.0 442.05 222.95 442.25 L222.6 445.9 Q222.2 450.25 222.2 453.95 222.2 456.35 222.5 458.65 224.4 460.3 231.85 461.15 232.45 461.2 232.35 462.4 232.25 463.65 231.6 463.6 220.2 463.0 219.6 459.75 218.85 454.8 218.8 448.05 218.75 442.65 218.95 441.85"/><path fill="#0d131a" d="M248.4 464.55 L255.15 463.5 Q255.7 463.35 256.0 464.6 256.25 465.85 255.7 466.05 252.55 467.1 247.75 467.8 L238.0 468.2 Q234.0 467.7 232.15 465.55 231.15 464.4 231.0 463.2 L230.6 448.95 Q230.6 448.35 232.35 448.35 234.1 448.35 234.1 448.95 L234.2 462.55 234.9 463.65 Q235.95 464.5 238.8 464.85 L248.4 464.55"/><path fill="#0d131a" d="M280.35 444.3 Q280.35 443.65 282.05 443.85 283.7 444.0 283.7 444.6 L283.75 465.15 Q283.75 466.2 282.75 466.55 269.9 470.55 259.05 468.7 255.65 468.15 254.4 466.2 253.75 465.2 253.75 463.95 L253.6 451.85 Q253.65 451.35 255.15 450.95 L256.7 450.65 256.75 456.35 256.65 463.35 257.2 464.15 Q257.95 464.9 259.65 465.1 272.3 466.45 280.85 464.0 L280.35 444.3"/><path fill="#0d131a" d="M282.2 466.6 Q281.6 466.55 281.55 465.3 281.45 464.05 282.05 464.05 L287.25 463.6 Q293.0 462.55 296.15 459.95 297.55 458.85 297.7 456.25 L297.7 451.1 Q297.65 450.5 299.55 450.45 301.4 450.4 301.45 451.0 L301.1 456.25 Q300.9 460.25 298.45 462.25 294.75 465.25 288.25 466.25 L282.2 466.6"/><path fill="#0d131a" d="M349.85 441.15 Q349.9 440.55 351.5 440.55 353.1 440.5 353.1 441.1 L352.9 451.7 Q353.35 452.25 354.7 452.65 L361.3 453.25 Q361.9 453.25 362.25 454.65 362.55 456.0 361.95 456.05 355.0 456.3 351.95 454.6 350.1 453.55 349.95 452.05 L349.85 441.15"/><path fill="#0d131a" d="M361.2 443.9 Q361.25 443.3 362.8 443.3 364.35 443.3 364.35 443.85 L363.9 453.95 Q364.9 455.55 367.45 455.8 373.0 456.45 378.8 455.1 379.35 454.95 379.7 456.3 380.0 457.65 379.4 457.75 372.65 459.4 367.1 458.7 364.1 458.35 362.3 456.6 L361.05 454.75 361.2 443.9"/><path fill="#0d131a" d="M378.55 443.4 Q378.55 442.8 380.15 442.8 381.75 442.8 381.75 443.4 L381.45 455.7 Q382.45 456.45 384.9 456.8 L391.15 457.1 Q395.15 457.0 398.1 456.2 L397.95 445.7 Q397.95 445.15 399.5 445.25 401.05 445.4 401.1 446.0 L401.05 457.2 Q401.15 458.35 400.2 458.65 396.9 459.85 391.85 460.0 L384.5 459.7 Q380.05 459.1 378.75 457.1 378.6 456.9 378.55 443.4"/><path fill="#0d131a" d="M410.4 441.6 L413.35 441.5 413.55 450.15 413.25 452.75 Q412.65 454.55 410.85 455.7 408.2 457.4 404.0 458.05 L400.15 458.4 Q399.55 458.45 399.45 457.15 399.35 455.9 399.95 455.8 L404.4 455.1 Q407.7 454.35 409.2 453.3 410.15 452.65 410.45 451.75 L410.65 450.1 410.4 441.6"/><path fill="#0d131a" d="M570.6 447.3 Q570.65 446.7 572.05 446.75 573.5 446.8 573.45 447.4 L572.65 458.05 Q571.45 461.15 567.35 462.45 L563.3 463.15 Q562.7 463.25 562.6 462.0 562.5 460.75 563.05 460.7 564.85 460.6 566.75 459.85 569.45 458.8 570.15 457.15 L570.6 447.3"/><path fill="#0d131a" d="M578.6 440.75 Q578.6 440.15 580.0 440.15 581.4 440.1 581.45 440.75 581.55 444.0 580.8 448.95 580.0 453.9 576.15 456.4 572.4 458.0 572.25 458.0 571.65 458.1 571.35 456.95 571.05 455.75 571.65 455.6 L574.5 454.2 Q577.3 452.2 577.9 448.6 578.7 443.8 578.6 440.75"/><path fill="#0d131a" d="M489.5 480.75 Q490.1 480.8 490.1 482.05 490.1 483.25 489.5 483.3 476.55 483.7 473.45 479.95 472.5 478.8 472.5 475.85 L472.55 465.45 Q472.6 464.85 474.25 464.95 475.95 465.05 475.95 465.6 L475.7 469.15 475.45 475.85 475.5 477.75 475.45 477.8 477.75 479.25 Q481.55 480.65 489.5 480.75"/><path fill="#0d131a" d="M489.45 466.55 Q489.55 465.95 491.2 466.2 492.85 466.4 492.75 467.0 491.15 479.05 491.4 481.6 491.55 482.7 491.95 483.25 492.25 483.55 492.9 483.9 496.05 485.25 503.4 485.65 513.95 486.25 521.2 482.75 L522.35 482.7 Q522.9 482.9 523.15 483.45 L523.2 484.55 Q523.0 485.15 522.45 485.4 514.25 489.35 502.7 488.55 494.6 488.0 491.6 486.55 490.4 485.95 489.85 485.25 488.75 484.05 488.5 481.95 488.3 480.05 488.8 473.65 L489.45 466.55"/><path fill="#0d131a" d="M520.95 466.65 L522.6 466.55 Q524.2 467.1 524.2 467.65 L523.55 482.8 Q523.8 483.75 524.85 484.1 L532.95 484.75 Q540.9 484.4 547.0 480.95 548.0 480.3 548.1 478.2 L547.95 472.0 547.7 467.55 Q547.7 466.95 549.35 467.0 551.0 467.05 551.0 467.65 L551.05 472.2 551.0 478.4 Q550.9 480.8 549.7 482.35 L548.4 483.5 Q541.7 487.35 532.95 487.6 L523.9 486.85 Q521.95 486.4 521.1 484.6 L520.6 482.85 520.95 466.65"/><path fill="#0d131a" d="M561.35 458.45 Q561.15 457.85 562.55 457.4 L564.1 457.5 Q564.7 459.35 564.4 468.2 564.35 470.1 563.9 472.15 563.3 475.15 562.2 476.2 559.2 479.05 554.3 480.7 L549.8 481.8 548.7 481.55 Q548.2 481.2 548.1 480.65 548.05 480.05 548.35 479.55 548.7 479.05 549.3 478.95 L553.5 477.9 Q558.15 476.35 560.35 473.75 561.25 472.75 561.5 468.1 L561.6 462.1 561.35 458.45"/><path fill="#0d131a" d="M200.0 218.75 Q200.4 218.3 201.0 218.25 201.6 218.25 202.05 218.65 202.5 219.05 202.55 219.65 202.55 220.25 202.15 220.7 L199.55 224.65 Q196.65 229.9 194.7 236.85 188.45 258.9 194.1 289.55 194.2 290.15 192.05 291.75 189.9 293.35 189.8 292.75 183.95 261.05 191.15 237.1 193.4 229.45 196.8 223.55 198.75 220.1 200.0 218.75"/><path fill="#0d131a" d="M308.2 73.0 Q310.2 72.5 309.9 80.35 309.7 87.05 308.1 86.85 307.25 86.75 306.85 85.75 306.2 84.15 306.2 79.75 306.2 75.6 307.2 73.9 307.7 73.05 308.2 73.0"/><path fill="#0d131a" d="M308.2 94.0 Q316.35 88.3 320.2 78.75 318.45 76.25 311.4 71.1 L301.2 63.8 Q290.4 70.85 286.4 77.5 283.1 82.9 283.1 88.5 283.1 94.4 286.75 97.75 288.2 99.05 291.3 99.35 L297.95 98.8 Q303.2 97.5 308.2 94.0 M293.75 65.15 Q297.1 62.35 300.05 60.45 L301.7 60.55 Q308.45 64.45 314.5 69.3 320.9 74.4 322.8 77.7 323.15 78.2 322.9 78.95 319.7 87.5 313.2 93.55 306.65 99.7 298.6 101.6 294.25 102.65 290.55 102.2 286.8 101.75 284.75 99.9 280.4 95.9 280.15 89.25 279.95 82.55 283.9 76.0 287.15 70.65 293.75 65.15"/><path fill="#0d131a" d="M422.35 64.85 Q438.1 56.95 444.45 57.25 444.95 57.25 445.4 57.6 451.6 63.25 455.1 71.4 458.05 78.25 457.8 83.25 457.6 86.85 456.45 90.25 454.65 95.45 450.85 98.6 444.35 104.05 433.2 102.7 419.9 101.15 410.7 90.15 407.75 86.65 405.6 82.55 404.35 80.25 403.85 78.8 403.45 77.8 404.15 76.8 407.15 72.5 422.35 64.85 M444.5 60.6 Q437.35 60.6 423.05 68.2 412.8 73.65 406.5 78.35 409.25 84.5 414.4 89.85 422.7 98.5 433.55 99.8 443.5 101.0 448.95 96.4 452.15 93.7 453.75 89.15 454.7 86.25 454.9 83.1 L454.9 82.55 Q454.9 77.95 452.6 72.35 449.75 65.5 444.5 60.6"/></g></svg>