<?xml version='1.0' encoding='utf-8'?>
<svg xmlns="http://www.w3.org/2000/svg" version="1.1" width="227px" height="177px" viewBox="-1.1 -1.2 227.1 177.3"><g><path fill="#00b8ee" d="M122.75 25.0 Q127.05 24.15 129.95 28.1 138.85 40.25 141.15 55.05 143.15 68.0 139.8 79.15 136.6 89.65 125.55 100.15 113.9 111.3 98.45 117.45 105.95 119.75 109.5 125.35 112.4 129.95 112.2 135.8 113.7 140.05 120.15 149.7 121.05 151.05 120.75 151.8 120.5 152.35 119.45 152.75 117.75 153.45 112.6 154.1 L102.65 154.75 Q94.25 158.7 85.85 157.05 80.35 155.95 75.9 152.85 69.05 148.2 66.0 139.45 63.55 132.4 64.2 125.3 48.8 131.8 34.2 126.05 18.05 119.7 12.45 101.0 7.4 84.1 16.2 63.45 24.5 43.9 40.15 31.95 33.45 30.85 29.35 27.45 26.05 24.75 25.65 21.9 24.65 15.5 31.6 9.25 39.45 2.1 52.4 1.25 64.95 0.4 72.9 5.55 79.25 9.7 79.75 14.8 80.1 18.8 77.5 22.1 74.85 25.5 69.45 27.75 80.55 31.25 90.3 37.65 101.7 45.15 109.9 55.8 111.45 51.45 113.7 43.3 L117.0 30.9 Q118.4 25.9 122.75 25.0"/><path fill="#00b8ee" d="M112.45 48.1 L76.25 23.55 Q78.95 20.5 79.6 17.35 101.85 31.1 115.5 37.7 L112.45 48.1"/><path fill="#00b8ee" d="M221.1 96.8 Q218.8 101.8 208.95 99.5 198.0 97.0 178.8 88.15 158.1 78.65 141.65 67.95 142.35 60.05 139.65 48.65 155.25 55.4 175.9 60.8 196.85 66.35 212.45 67.7 220.15 68.4 223.0 74.6 226.0 81.1 218.3 85.8 223.15 92.25 221.1 96.8"/><path fill="#00b8ee" d="M64.2 125.3 Q64.0 129.2 64.65 133.75 65.3 138.6 66.5 140.7 58.35 155.4 54.65 160.0 47.0 169.5 36.6 172.1 25.7 174.85 16.0 170.5 7.8 166.8 2.8 159.4 -0.4 154.7 1.95 151.9 3.65 149.85 8.3 149.0 22.75 146.25 39.35 139.0 54.85 132.25 64.2 125.3"/><path fill="#ed8599" d="M53.3 106.45 L58.5 103.0 63.0 99.3 Q66.15 105.05 66.65 111.35 67.1 117.15 65.25 118.7 63.65 120.0 58.95 118.7 54.55 117.45 51.35 115.15 50.9 110.9 53.3 106.45"/><path fill="#922f00" d="M53.2 106.6 Q52.0 108.5 51.45 111.15 51.0 113.4 51.15 115.05 46.8 112.45 45.2 109.9 48.9 109.05 53.2 106.6"/><path fill="#00a4e3" d="M16.9 98.6 Q15.3 92.75 17.65 91.8 20.55 90.65 24.75 95.0 28.05 98.45 30.45 103.2 32.8 107.85 33.8 111.65 35.2 117.0 33.0 118.3 30.5 119.8 26.3 115.3 23.3 112.1 20.65 107.45 18.2 103.25 16.9 98.6"/><path fill="#00a4e3" d="M28.2 82.25 Q24.75 82.1 23.2 78.65 22.1 76.2 22.2 73.05 22.25 70.25 23.6 67.55 25.2 64.25 27.55 64.4 30.5 64.6 32.2 67.95 33.65 70.75 33.5 74.15 33.35 77.25 31.9 79.7 30.3 82.3 28.2 82.25"/><path fill="#00a4e3" d="M57.4 52.3 Q59.45 55.0 59.1 58.8 58.8 62.55 55.95 65.35 53.3 68.0 50.4 67.9 47.6 67.8 45.65 64.8 43.65 61.9 43.85 58.25 44.0 54.45 46.5 51.5 49.15 48.45 52.25 49.05 55.5 49.7 57.4 52.3"/><path fill="#00a4e3" d="M84.55 64.65 Q88.0 68.35 90.4 74.35 92.5 79.8 91.7 86.0 90.7 93.2 85.85 95.25 80.8 97.4 76.0 93.15 71.55 89.3 69.2 82.0 66.9 74.75 68.2 68.6 69.65 62.0 74.7 60.85 79.9 59.7 84.55 64.65"/><path fill="#515457" d="M20.3 97.6 Q19.75 95.15 20.85 94.15 21.7 93.3 23.2 93.6 27.05 97.1 30.3 103.15 33.15 108.4 34.0 112.45 33.75 114.15 32.35 114.3 31.25 114.45 29.8 113.6 25.9 111.3 23.1 105.65 21.15 101.7 20.3 97.6"/><path fill="#515457" d="M81.7 68.8 Q84.15 72.45 85.25 77.1 86.3 81.65 85.85 85.5 85.2 90.55 81.95 91.2 78.65 91.9 75.75 87.6 73.4 84.2 72.05 79.0 70.85 74.45 71.6 70.3 72.45 65.85 75.25 65.05 78.6 64.1 81.7 68.8"/><path fill="#e85377" d="M72.65 134.5 Q76.5 135.5 80.25 140.3 83.95 144.9 84.35 148.8 84.7 152.3 82.95 153.6 81.6 154.6 78.8 154.35 71.8 151.75 66.9 141.9 66.0 137.2 67.85 135.3 69.5 133.65 72.65 134.5"/><path fill="#00a0cf" d="M133.3 91.2 Q118.95 111.75 82.3 122.75 110.9 110.85 125.4 90.15 140.45 68.55 137.2 41.45 148.0 70.05 133.3 91.2"/><path fill="#00a0cf" d="M66.6 141.25 Q58.1 156.9 51.65 163.7 46.4 169.2 39.95 171.2 30.5 174.05 21.25 172.1 8.95 169.55 2.4 158.75 6.15 162.9 12.95 164.6 20.2 166.45 28.6 164.8 49.25 160.75 65.6 138.85 L66.6 141.25"/><path fill="#00a0cf" d="M80.6 154.6 Q89.9 155.0 97.65 152.05 107.25 148.35 111.75 140.25 L112.35 136.15 Q114.05 139.7 116.6 144.05 L120.4 149.95 Q121.9 152.1 118.4 152.85 L110.9 154.0 102.5 154.4 Q98.55 157.05 92.65 157.35 86.75 157.6 80.2 155.45 L80.6 154.6"/><path fill="#00a0cf" d="M40.55 32.05 Q34.55 31.85 29.8 27.9 25.15 24.05 26.0 20.35 28.2 24.4 32.55 26.8 37.3 29.45 43.55 29.6 L40.55 32.05"/><path fill="#00a0cf" d="M63.7 26.7 Q67.6 26.0 72.15 23.1 77.4 19.75 79.45 15.65 79.05 19.75 77.25 22.2 74.9 25.35 69.15 27.8 L63.7 26.7"/><path fill="#00a0cf" d="M221.05 96.8 Q218.25 101.9 208.15 99.3 195.9 96.15 177.5 87.4 160.35 79.2 141.65 68.0 L141.6 63.25 Q156.95 72.8 176.15 81.8 199.05 92.55 210.3 93.9 213.8 94.35 216.05 92.75 218.8 90.75 217.85 86.35 223.7 91.95 221.05 96.8"/><path fill="#00a0cf" d="M113.2 45.15 L112.2 47.85 Q106.0 44.1 94.95 36.55 L76.1 23.55 77.4 22.2 Q83.6 26.65 95.85 34.35 L113.2 45.15"/><path fill="#7dccf3" d="M41.7 48.75 Q39.4 51.3 36.8 52.25 34.2 53.2 32.8 51.95 31.4 50.7 32.05 48.05 32.65 45.35 34.9 42.75 37.2 40.2 39.8 39.25 42.4 38.3 43.8 39.55 45.2 40.8 44.55 43.5 43.95 46.15 41.7 48.75"/><path fill="#7dccf3" d="M44.1 17.05 Q41.0 18.2 38.35 17.9 35.7 17.55 35.05 15.9 34.4 14.25 36.2 12.25 37.95 10.25 41.05 9.05 44.15 7.85 46.8 8.2 49.45 8.5 50.1 10.15 50.75 11.8 49.0 13.85 47.2 15.85 44.1 17.05"/><path fill="#bae2f8" d="M37.0 48.3 Q36.3 49.3 35.4 49.7 34.5 50.1 33.95 49.7 33.4 49.3 33.5 48.3 33.6 47.3 34.3 46.35 35.0 45.35 35.9 44.95 36.8 44.55 37.35 44.95 37.9 45.35 37.8 46.35 37.7 47.35 37.0 48.3"/><path fill="#f3b1b9" d="M74.55 138.35 Q75.2 139.45 75.05 140.6 74.9 141.7 74.05 142.2 L72.15 142.3 Q71.1 141.85 70.45 140.75 69.8 139.7 69.95 138.5 70.05 137.4 70.9 136.85 L72.85 136.8 Q73.9 137.25 74.55 138.35"/><path fill="#00a0cf" d="M64.35 122.25 L64.2 125.3 Q40.95 134.3 24.2 120.55 18.15 115.55 14.55 106.0 11.4 97.7 11.4 89.95 14.0 96.6 18.45 102.55 22.15 111.75 27.4 116.3 30.3 118.8 32.0 118.75 33.6 118.7 34.0 116.35 47.6 124.05 64.35 122.25"/><path fill="#008fc5" d="M27.4 116.3 Q22.15 111.75 18.45 102.55 24.9 111.25 34.0 116.35 33.6 118.7 32.0 118.75 30.3 118.8 27.4 116.3"/><path fill="#0d131a" d="M25.1 99.75 Q25.4 99.55 26.45 100.7 27.5 101.9 28.35 103.55 29.65 106.15 30.05 107.8 30.4 109.2 30.05 109.3 29.75 109.45 28.75 108.3 27.6 106.95 26.3 104.55 25.45 102.95 25.1 101.4 24.75 100.0 25.1 99.75"/><path fill="#0d131a" d="M81.75 83.4 Q81.45 85.65 80.35 85.85 79.25 86.1 78.0 84.3 76.8 82.5 76.1 79.65 75.45 76.9 75.75 74.45 76.05 72.05 76.95 71.85 78.0 71.6 79.3 73.5 80.65 75.5 81.3 78.4 82.0 81.2 81.75 83.4"/><path fill="#0d131a" d="M110.45 55.15 L109.2 57.6 Q103.0 47.55 89.8 38.6 76.45 29.5 64.8 27.5 63.25 27.25 63.35 26.75 63.4 26.25 64.95 26.45 76.7 27.85 91.0 37.0 105.05 45.95 110.45 55.15"/><path fill="#0d131a" d="M42.35 30.0 Q43.7 29.15 44.0 29.5 44.25 29.85 43.0 30.85 27.75 42.4 19.85 57.85 11.95 73.3 12.3 90.75 12.5 99.95 16.3 107.9 20.15 115.95 26.9 121.0 42.35 132.6 64.35 124.55 L64.4 125.85 Q42.15 135.05 25.55 122.85 18.3 117.5 14.1 108.95 9.9 100.5 9.7 90.75 9.3 72.9 18.0 56.55 26.85 39.85 42.35 30.0"/><path fill="#0d131a" d="M69.9 28.15 L67.8 27.5 Q72.5 26.0 75.5 22.9 79.15 19.1 78.5 14.5 77.75 9.0 70.8 5.4 62.65 1.15 50.2 2.65 39.35 3.9 32.45 9.55 25.85 15.0 26.75 21.15 27.4 25.25 32.45 28.45 37.2 31.35 41.45 31.2 L39.75 32.5 Q35.65 32.6 30.9 29.6 25.6 26.25 24.85 21.9 23.6 14.7 30.45 8.45 37.7 1.85 49.95 0.35 63.1 -1.2 71.9 3.5 79.55 7.6 80.45 14.0 81.1 18.7 77.6 22.85 74.55 26.5 69.9 28.15"/><path fill="#0d131a" d="M24.3 67.65 Q22.85 70.05 22.85 73.45 22.85 76.8 24.3 79.2 25.75 81.6 27.75 81.6 29.8 81.6 31.2 79.2 32.65 76.8 32.65 73.45 32.65 70.05 31.2 67.65 29.75 65.25 27.75 65.25 25.75 65.25 24.3 67.65 M21.3 73.4 Q21.35 69.6 23.1 66.85 25.0 63.9 27.85 63.9 30.55 63.9 32.4 66.55 34.3 69.25 34.25 73.5 34.2 77.4 32.3 80.15 30.45 83.0 27.8 82.9 25.1 82.85 23.2 80.15 21.25 77.4 21.3 73.4"/><path fill="#0d131a" d="M23.5 93.9 L22.3 93.15 Q23.05 88.0 24.95 81.1 L26.1 81.85 Q24.35 87.5 23.5 93.9"/><path fill="#0d131a" d="M58.15 59.4 Q58.65 55.8 56.85 53.0 55.15 50.25 52.45 49.9 49.65 49.55 47.35 51.85 45.05 54.1 44.6 57.5 44.1 61.3 45.75 64.1 47.35 66.85 50.1 67.2 52.9 67.55 55.2 65.5 57.6 63.25 58.15 59.4 M58.45 52.95 Q60.2 56.25 59.7 59.8 59.15 64.0 56.35 66.45 53.55 68.85 49.95 68.45 46.65 68.1 44.65 64.9 42.6 61.55 43.25 57.25 43.85 53.35 46.65 50.8 49.4 48.3 52.65 48.65 56.45 49.1 58.45 52.95"/><path fill="#0d131a" d="M69.1 67.45 L68.5 68.7 Q63.55 65.75 57.65 63.0 L58.2 61.8 Q64.35 64.65 69.1 67.45"/><path fill="#0d131a" d="M64.75 118.15 Q66.45 117.0 65.8 110.65 65.15 104.25 62.85 100.3 57.15 105.3 52.8 107.65 49.6 109.4 46.1 110.35 51.95 115.5 57.9 117.55 62.95 119.35 64.75 118.15 M62.45 98.85 Q62.75 98.55 63.2 98.6 63.65 98.65 63.9 99.15 67.1 104.95 67.5 111.7 67.9 118.1 65.65 119.5 63.1 121.1 57.3 119.05 50.65 116.75 44.75 110.7 L41.35 111.25 Q40.25 111.4 40.2 111.0 40.15 110.6 41.25 110.35 47.1 109.15 52.3 106.35 57.35 103.6 62.45 98.85"/><path fill="#0d131a" d="M51.85 115.6 L50.8 114.65 Q50.45 112.4 51.1 110.25 51.75 108.1 53.1 106.85 L54.8 105.8 Q52.9 107.6 52.15 110.5 51.4 113.1 51.85 115.6"/><path fill="#0d131a" d="M66.4 139.55 L67.15 140.95 Q60.05 155.4 54.3 162.3 48.6 169.05 41.1 172.05 30.9 176.1 19.35 172.75 7.6 169.3 2.05 160.25 -1.1 155.1 0.55 152.0 2.1 149.15 7.45 148.2 20.15 145.9 35.85 139.55 52.4 132.9 63.15 125.3 L64.55 126.05 Q53.4 133.95 36.8 140.95 20.45 147.85 7.95 150.15 3.75 150.9 2.6 152.95 1.3 155.25 3.8 159.35 8.85 167.55 19.65 170.6 30.4 173.65 40.2 169.75 47.5 166.85 53.1 160.45 58.75 153.9 66.4 139.55"/><path fill="#0d131a" d="M65.5 140.9 Q62.6 132.95 63.8 123.05 64.0 121.65 64.45 121.65 64.95 121.7 64.9 123.1 64.05 139.25 72.65 148.8 77.75 154.45 86.0 155.9 94.35 157.45 102.15 154.0 L115.15 152.8 Q119.7 152.05 119.85 151.3 L116.3 145.35 Q112.5 139.35 112.1 136.5 L112.15 132.5 Q112.95 137.15 117.8 144.5 122.2 151.1 121.95 151.85 120.9 155.05 102.95 155.4 95.25 159.45 85.65 157.8 76.3 156.15 70.9 150.2 67.4 146.35 65.5 140.9"/><path fill="#0d131a" d="M96.4 118.0 L98.65 116.9 Q106.6 118.4 110.15 124.2 113.65 129.9 112.6 139.15 112.4 141.0 111.95 140.95 111.5 140.95 111.55 139.1 112.05 130.3 108.2 125.15 104.55 120.2 96.4 118.0"/><path fill="#0d131a" d="M122.15 23.95 Q126.9 22.75 130.9 27.85 139.6 38.95 142.2 54.85 144.7 70.3 140.15 81.4 134.5 95.35 119.55 106.65 103.9 118.4 83.15 123.25 L81.4 123.15 Q81.25 122.7 82.85 122.25 103.0 116.25 117.85 105.0 132.5 93.85 137.9 80.65 142.3 69.95 139.9 55.05 137.5 40.0 129.55 29.3 126.4 25.1 122.6 26.25 118.75 27.35 117.45 32.9 105.15 85.35 77.5 119.1 76.4 120.45 75.85 120.05 75.3 119.65 76.35 118.3 102.45 85.9 115.5 32.3 117.2 25.15 122.15 23.95"/><path fill="#0d131a" d="M115.5 36.85 L114.95 38.85 Q107.6 35.15 97.95 29.5 L79.0 18.2 79.75 16.8 Q98.5 28.25 115.5 36.85"/><path fill="#0d131a" d="M112.75 47.8 L112.05 49.95 93.15 36.75 75.6 24.2 76.55 23.1 Q89.6 32.25 112.75 47.8"/><path fill="#0d131a" d="M214.7 66.95 Q218.65 67.4 221.4 69.85 224.0 72.1 224.8 75.35 225.65 78.6 224.35 81.55 222.95 84.7 219.4 86.45 225.5 93.2 221.7 98.35 217.95 103.45 208.8 100.95 189.55 95.6 170.5 85.9 160.8 81.0 141.55 69.35 L141.65 66.1 Q162.45 78.7 178.5 86.45 195.55 94.75 209.2 98.55 216.9 100.65 219.5 96.7 222.05 92.8 217.7 87.05 216.65 85.65 218.2 84.9 223.75 82.1 222.35 76.15 221.0 70.15 214.4 69.4 194.85 67.15 176.2 62.2 158.45 57.45 139.8 49.85 L139.1 47.4 Q157.55 55.15 176.15 59.95 194.4 64.65 214.7 66.95"/><path fill="#0d131a" d="M68.4 143.65 L66.45 140.15 Q66.0 138.25 66.5 136.55 67.0 134.9 68.15 134.15 70.45 132.6 74.0 134.15 77.85 135.8 81.35 140.4 84.4 144.35 85.0 148.4 85.6 152.5 83.3 154.2 82.35 154.95 80.75 154.95 79.2 154.95 77.75 154.2 L76.15 152.2 Q78.1 153.35 79.75 153.65 81.45 153.9 82.4 153.15 84.1 151.85 83.4 148.3 82.7 144.75 80.05 141.2 77.05 137.3 73.55 135.7 70.4 134.3 68.95 135.35 67.65 136.25 67.45 138.55 67.2 141.1 68.4 143.65"/><path fill="#7dccf3" d="M124.05 35.65 Q123.7 37.7 122.65 39.0 121.6 40.35 120.55 40.1 119.45 39.9 118.95 38.3 118.5 36.7 118.85 34.65 119.25 32.6 120.25 31.3 121.25 30.0 122.35 30.2 123.45 30.4 123.95 32.0 124.45 33.6 124.05 35.65"/><path fill="#bae2f8" d="M122.5 34.3 L121.8 35.95 Q121.35 36.6 120.8 36.5 120.3 36.4 120.1 35.65 119.85 34.85 120.0 33.85 120.2 32.85 120.7 32.25 121.2 31.6 121.7 31.7 122.2 31.8 122.45 32.55 122.7 33.3 122.5 34.3"/><path fill="#ffffff" d="M20.6 96.05 Q20.55 94.6 21.35 94.1 22.2 93.6 23.45 94.35 24.6 95.05 25.65 96.6 26.75 98.25 26.8 99.55 26.8 100.8 26.0 101.3 L23.9 101.25 Q22.55 100.65 21.75 99.3 20.7 97.5 20.6 96.05"/><path fill="#0d131a" d="M19.6 96.95 Q19.35 94.7 20.55 93.7 21.5 92.95 22.55 93.15 L24.0 94.45 21.65 94.3 Q20.65 94.95 20.8 96.85 21.05 100.0 23.95 105.4 27.1 111.45 30.25 113.3 31.8 114.25 32.7 113.75 33.65 113.25 33.5 111.35 L34.1 113.1 Q33.85 114.75 32.4 115.05 31.05 115.35 29.6 114.35 25.95 111.85 22.9 106.25 20.1 101.1 19.6 96.95"/><path fill="#ffffff" d="M75.5 65.8 Q77.1 65.35 78.5 66.6 79.75 67.7 80.2 69.45 80.65 71.3 80.05 72.75 79.4 74.3 77.9 74.65 76.3 75.05 74.9 74.0 73.5 73.0 73.05 71.3 72.55 69.35 73.25 67.8 73.95 66.25 75.5 65.8"/><path fill="#0d131a" d="M81.9 90.7 Q84.35 89.95 84.95 85.4 85.5 81.3 84.35 76.7 83.1 71.7 80.5 68.45 77.85 65.25 75.5 65.8 73.15 66.4 72.35 70.45 71.55 74.55 72.8 79.55 74.15 85.05 77.0 88.3 79.65 91.35 81.9 90.7 M85.7 76.35 Q87.2 82.55 86.15 86.8 85.15 90.9 82.2 91.75 79.15 92.65 76.15 89.35 73.05 86.0 71.55 79.85 70.1 73.9 71.15 69.6 72.2 65.3 75.25 64.55 78.25 63.85 81.2 67.1 84.2 70.45 85.7 76.35"/><path fill="#0d131a" d="M84.7 95.25 Q88.6 94.1 90.25 88.4 91.95 82.4 89.85 75.3 87.8 68.3 83.15 64.3 78.65 60.45 74.55 61.7 70.5 62.9 69.05 68.45 67.6 74.2 69.7 81.35 71.9 88.75 76.1 92.65 80.3 96.5 84.7 95.25 M84.1 63.1 Q89.2 67.3 91.45 74.8 93.85 82.85 91.7 89.15 89.7 95.05 85.0 96.3 79.8 97.7 75.2 93.8 70.6 89.85 68.25 81.9 65.9 74.05 67.6 67.95 69.3 61.9 74.1 60.4 79.0 58.9 84.1 63.1"/><path fill="#0d131a" d="M22.75 94.15 Q19.65 91.45 18.15 92.3 16.65 93.15 17.45 97.4 18.3 102.0 21.35 107.4 24.45 112.8 27.9 115.95 31.15 118.85 32.65 118.0 34.15 117.15 33.35 112.85 32.5 108.3 29.4 102.85 26.2 97.15 22.75 94.15 M16.05 97.6 Q15.05 92.45 17.5 91.15 19.6 90.05 23.3 92.9 27.3 96.0 30.7 102.05 33.7 107.35 34.55 112.3 35.45 117.6 33.2 119.0 31.05 120.35 27.05 116.85 23.15 113.5 20.05 107.9 16.9 102.25 16.05 97.6"/></g></svg>