<?xml version='1.0' encoding='utf-8'?>
<svg xmlns="http://www.w3.org/2000/svg" version="1.1" width="155px" height="212px" viewBox="-0.95 -0.05 155.1 212.1"><g><path fill="#d28444" d="M148.15 48.1 Q141.0 70.4 132.65 78.8 136.75 78.5 140.15 78.95 144.5 79.45 144.65 81.0 144.95 83.45 136.45 87.7 127.8 92.0 119.8 93.25 121.55 103.2 117.9 115.1 113.45 129.55 103.05 135.45 L14.5 57.45 Q13.2 55.4 13.15 53.5 13.1 51.85 13.85 51.2 14.6 50.55 18.05 51.6 21.8 52.75 24.5 54.75 21.5 39.45 30.65 19.75 34.35 11.75 38.7 6.55 43.0 1.3 45.95 1.3 48.5 1.3 51.45 6.6 54.25 11.6 56.45 19.6 61.65 38.2 59.25 50.8 65.55 50.0 74.95 51.5 84.95 53.05 90.5 56.05 102.85 37.45 126.05 28.35 134.85 24.9 142.55 23.95 149.7 23.1 152.0 24.7 153.25 25.6 152.1 32.45 151.0 39.2 148.15 48.1"/><path fill="#d28444" d="M30.4 166.5 L29.8 166.6 Q31.55 172.25 26.35 174.25 L22.3 174.45 Q20.15 173.85 19.35 172.0 16.4 171.9 13.5 169.4 10.25 166.55 9.5 162.35 8.7 157.75 10.35 154.05 12.05 150.2 15.05 150.75 15.9 149.8 17.65 149.55 L20.15 149.7 Q22.05 146.9 25.25 147.8 28.25 148.65 29.45 151.5 30.8 150.9 34.75 149.8 L41.3 139.1 89.7 131.5 103.75 146.0 Q106.0 147.15 108.2 149.0 L111.35 152.15 Q119.55 156.7 124.85 171.0 128.7 181.4 130.45 194.9 134.2 194.75 135.05 197.35 135.75 199.45 134.45 201.65 135.45 205.05 134.1 207.1 133.05 208.7 131.65 208.65 131.15 210.15 129.35 210.5 127.8 210.85 126.7 210.2 L123.0 210.0 Q121.25 209.15 121.15 207.6 119.85 207.05 119.1 205.95 115.6 206.55 114.0 204.5 112.45 202.45 114.45 200.55 112.95 197.35 110.35 193.65 107.7 189.85 105.35 187.55 91.55 189.3 76.6 185.45 58.15 180.7 51.5 169.5 46.25 169.9 41.1 169.4 34.05 168.75 30.4 166.5"/><path fill="#d28444" d="M138.0 147.65 Q133.85 155.1 129.15 157.85 L131.6 158.15 Q132.9 158.55 133.0 159.2 133.2 160.9 129.9 162.65 126.35 164.45 122.05 164.4 121.1 162.3 119.05 159.55 116.95 156.7 115.3 155.5 119.65 146.45 129.4 141.15 133.15 139.15 136.4 138.45 L140.3 138.65 Q142.05 140.4 138.0 147.65"/><path fill="#e1b47d" d="M84.4 31.25 Q88.9 29.5 90.15 30.5 92.75 32.6 89.4 43.95 86.35 54.35 81.25 63.5 88.1 56.35 102.9 52.95 108.75 51.6 113.3 51.5 117.8 51.45 118.55 52.7 119.95 55.0 114.55 62.05 109.8 68.25 104.25 72.85 110.85 71.4 119.85 71.5 130.55 71.55 131.3 74.5 132.2 78.15 122.3 84.25 115.3 88.55 106.65 92.1 L111.2 92.55 Q113.6 93.15 113.65 94.35 113.7 95.6 112.0 97.2 110.45 98.6 107.95 100.0 111.3 100.15 114.15 101.0 117.75 102.1 117.8 103.7 117.85 105.35 112.95 107.85 108.9 109.95 103.7 111.6 112.9 111.85 119.7 115.15 125.55 117.95 125.4 120.2 125.25 123.45 115.85 126.3 107.4 128.8 100.75 128.75 102.6 132.5 103.75 138.1 105.0 144.5 103.55 145.95 101.8 147.7 95.85 144.95 91.05 142.7 85.6 138.65 86.05 144.65 84.35 145.3 82.15 146.15 78.45 142.65 78.9 146.5 78.1 150.7 77.25 155.4 75.45 155.95 73.6 156.55 69.35 152.55 65.6 149.05 62.35 144.4 61.95 146.45 60.1 149.85 58.0 153.65 56.6 153.65 55.05 153.65 52.8 151.15 50.65 148.75 48.9 145.25 46.05 148.05 42.25 150.25 37.9 152.8 36.3 152.05 33.35 150.65 35.05 138.7 32.15 140.35 27.95 141.55 23.1 142.9 21.95 141.85 20.6 140.7 21.5 136.45 22.45 132.05 25.15 128.55 21.0 131.05 14.9 131.85 8.8 132.6 7.9 130.75 7.1 128.95 10.75 123.95 14.2 119.3 19.0 115.05 10.9 112.9 5.5 107.7 0.5 102.85 1.25 99.2 1.75 96.95 7.35 96.75 11.85 96.6 17.75 97.75 14.8 95.6 12.75 93.25 10.4 90.45 10.8 88.95 11.2 87.45 14.2 87.0 16.6 86.65 20.1 87.1 15.6 83.1 16.45 81.15 17.3 79.15 23.5 80.5 18.35 76.75 12.25 70.45 4.7 62.6 5.7 60.2 7.8 55.45 21.1 58.3 34.15 61.1 38.9 66.45 37.3 58.7 38.45 45.8 39.7 31.55 43.55 30.9 47.75 30.2 52.6 41.4 56.9 51.35 57.6 59.25 60.6 46.5 74.4 36.7 79.6 33.05 84.4 31.25"/><path fill="#00568b" d="M14.75 159.25 Q16.2 158.6 17.95 159.55 19.55 160.4 20.5 162.05 21.25 163.4 21.15 165.15 21.0 167.2 19.55 168.1 17.95 169.1 16.0 168.35 14.05 167.55 13.1 165.45 12.35 163.85 12.85 161.9 13.35 159.85 14.75 159.25"/><path fill="#ffffff" d="M32.2 89.7 Q33.7 83.8 36.7 80.6 39.8 77.3 43.45 78.1 46.75 78.85 47.6 83.95 48.35 88.25 47.25 94.35 46.1 101.0 42.9 105.2 39.4 109.75 35.35 108.55 31.65 107.45 31.05 101.4 30.55 96.35 32.2 89.7"/><path fill="#ffffff" d="M86.8 85.4 Q90.3 86.35 91.15 91.65 91.9 96.2 90.6 103.25 89.4 109.65 85.3 113.9 81.25 118.1 77.3 117.05 74.05 116.2 73.05 110.85 72.2 106.1 73.3 99.55 74.5 92.3 78.15 88.25 82.0 84.05 86.8 85.4"/><path fill="#e60021" d="M59.35 108.6 Q59.1 109.9 56.15 110.55 L51.85 110.8 Q50.35 110.5 48.95 108.95 47.4 107.3 47.7 105.75 48.15 103.7 54.0 104.85 59.85 106.0 59.35 108.6"/><path fill="#ee869a" d="M46.5 127.9 Q47.2 123.55 51.15 120.4 54.8 117.45 59.1 117.1 65.3 118.65 69.9 120.2 70.55 126.65 65.45 131.75 60.8 136.45 56.3 135.85 53.7 135.55 50.95 133.3 48.3 131.1 46.5 127.9"/><path fill="#933000" d="M46.65 127.9 Q43.4 120.0 44.2 114.15 49.95 114.9 59.25 117.1 54.15 117.65 50.45 121.3 47.25 124.4 46.65 127.9"/><path fill="#00568b" d="M91.4 142.5 Q94.65 144.7 98.1 145.85 101.65 147.05 103.55 146.4 L112.1 146.95 Q117.1 147.65 119.4 148.8 118.2 149.85 115.95 150.9 113.7 151.9 111.55 152.35 L112.95 154.5 113.8 156.95 Q111.75 157.0 108.45 155.85 104.9 154.55 102.15 152.6 102.35 156.0 101.9 159.3 98.35 157.25 95.1 152.05 91.85 146.85 91.4 142.5"/><path fill="#bd986a" d="M43.0 31.1 Q46.8 29.3 51.6 39.25 56.15 48.6 57.65 59.45 57.05 61.65 57.05 64.1 57.05 65.55 55.7 64.8 54.35 64.05 54.35 62.3 54.35 56.25 51.5 46.6 47.95 34.7 43.0 31.1"/><path fill="#bd986a" d="M6.05 59.7 Q8.9 64.4 15.2 69.95 21.4 75.4 27.7 78.8 29.3 79.65 29.25 81.2 29.2 82.75 28.05 82.25 25.5 81.15 23.3 80.55 16.75 75.4 12.2 70.55 5.45 63.35 6.05 59.7"/><path fill="#bd986a" d="M17.0 80.7 Q18.0 82.8 20.2 84.55 21.85 85.85 23.6 86.6 25.1 87.25 24.7 88.45 24.25 89.65 23.05 89.05 20.65 87.9 18.35 85.35 15.55 82.25 17.0 80.7"/><path fill="#bd986a" d="M11.15 88.2 Q12.95 90.9 16.95 94.1 20.8 97.25 23.6 98.35 25.25 99.0 24.85 100.4 24.5 101.75 22.95 101.15 19.95 100.0 15.55 95.95 10.2 91.1 11.15 88.2"/><path fill="#bd986a" d="M7.3 108.95 Q-0.3 102.7 1.6 98.65 3.75 103.45 10.15 107.65 15.75 111.25 20.15 111.95 L20.95 112.5 Q21.4 113.0 21.45 113.55 L19.4 115.05 Q14.5 114.9 7.3 108.95"/><path fill="#bd986a" d="M7.6 130.2 Q12.0 130.6 17.45 128.85 23.15 127.05 26.1 124.15 L27.9 124.2 Q28.9 125.0 28.0 125.75 26.8 126.7 25.3 128.35 20.45 131.1 14.9 131.95 8.65 132.95 7.6 130.2"/><path fill="#bd986a" d="M35.5 135.85 L35.0 138.55 Q32.0 140.3 27.8 141.5 23.55 142.7 22.0 142.2 21.5 142.05 21.35 141.05 21.2 140.15 21.35 139.3 23.0 139.95 27.35 138.25 31.6 136.6 33.3 134.75 34.0 134.0 34.8 134.4 35.65 134.8 35.5 135.85"/><path fill="#bd986a" d="M62.8 141.5 Q62.05 145.65 60.55 149.2 58.75 153.55 56.95 153.7 55.15 153.8 52.2 150.4 49.55 147.45 48.85 145.45 46.35 147.85 42.0 150.35 37.35 153.0 36.25 152.25 35.6 151.8 34.95 149.15 34.25 146.35 34.55 144.35 35.1 146.15 36.4 147.05 37.6 147.95 38.95 147.7 40.95 147.4 43.55 146.2 46.45 144.8 48.15 143.05 49.6 141.55 50.6 141.8 51.5 142.05 51.8 143.6 52.1 145.35 53.15 146.8 54.4 148.5 55.95 148.65 57.3 148.7 59.7 146.05 62.0 143.55 62.8 141.5"/><path fill="#bd986a" d="M78.4 142.15 L78.1 139.45 Q78.75 140.4 80.35 141.0 L82.7 141.3 Q83.45 141.1 84.15 139.55 84.95 137.85 85.05 135.4 85.7 138.15 85.6 141.5 85.45 145.05 84.45 145.45 83.15 145.9 81.0 144.5 79.2 143.35 78.4 142.15"/><path fill="#bd986a" d="M77.75 139.5 Q78.95 143.3 78.25 149.1 77.5 155.3 75.2 155.95 73.2 156.6 68.65 152.2 64.45 148.15 62.25 144.2 L63.1 141.3 Q65.35 145.25 69.35 149.0 73.15 152.55 74.25 152.2 75.15 151.95 76.55 147.0 78.0 142.0 77.75 139.5"/><path fill="#bd986a" d="M85.15 135.15 Q88.5 138.05 94.05 140.75 99.5 143.45 100.5 142.75 101.8 141.85 100.2 136.0 98.7 130.4 97.0 128.4 L100.5 128.65 Q102.8 132.9 103.8 138.7 104.8 144.65 103.3 146.05 101.8 147.5 95.5 144.75 89.2 141.95 85.55 138.3 L85.15 135.15"/><path fill="#bd986a" d="M114.55 126.85 Q105.25 129.4 97.45 128.65 95.8 128.55 95.85 126.9 95.95 125.3 98.0 125.45 103.2 125.85 112.2 124.05 122.0 122.1 125.05 119.4 125.05 123.95 114.55 126.85"/><path fill="#bd986a" d="M99.75 109.3 Q104.45 108.9 109.85 106.9 115.6 104.8 117.3 102.55 119.05 104.9 113.25 108.0 109.35 110.05 104.25 111.6 L99.4 112.1 Q97.85 112.45 97.85 110.95 97.9 109.45 99.75 109.3"/><path fill="#bd986a" d="M108.55 96.95 Q111.95 95.2 113.4 93.7 114.05 96.0 110.15 98.9 106.85 101.3 103.4 102.35 102.1 102.75 101.9 101.2 101.7 99.6 103.05 99.25 105.35 98.65 108.55 96.95"/><path fill="#bd986a" d="M106.05 92.15 L103.95 92.55 101.3 93.2 Q99.7 93.55 99.7 91.9 99.7 90.25 101.6 90.0 107.8 89.25 118.55 83.15 129.1 77.2 130.75 73.75 133.0 76.65 124.55 82.65 116.6 88.35 106.05 92.15"/><path fill="#bd986a" d="M117.7 52.45 Q119.65 54.5 114.2 62.15 109.2 69.05 104.15 73.0 102.45 73.3 98.3 74.7 96.95 75.2 96.85 73.7 96.8 72.2 98.1 71.8 101.85 70.7 108.8 63.9 115.9 56.95 117.7 52.45"/><path fill="#bd986a" d="M89.5 30.3 Q93.0 31.5 89.5 44.0 86.35 55.2 81.6 63.5 79.85 65.05 76.45 70.0 L74.7 69.95 Q73.6 68.95 74.35 67.9 78.4 62.45 84.1 48.7 89.95 34.5 89.5 30.3"/><path fill="#c7001a" d="M48.2 105.2 Q49.1 108.2 52.9 108.95 L59.4 108.6 Q58.35 109.95 56.1 110.6 L51.9 110.8 Q49.9 110.2 48.7 108.55 47.5 106.85 48.2 105.2"/><path fill="#cf7487" d="M49.25 122.3 Q53.0 118.25 59.0 117.15 L64.2 118.45 69.95 120.3 Q70.15 123.2 68.7 126.75 67.1 130.55 64.7 132.4 63.9 127.25 58.8 124.1 53.9 121.05 49.25 122.3"/><path fill="#004370" d="M91.5 142.7 Q94.45 144.55 97.7 145.8 99.8 148.05 105.2 151.6 110.3 154.9 114.1 156.6 111.8 157.15 108.0 155.65 104.9 154.45 101.75 152.4 102.5 155.6 102.1 159.55 98.15 156.6 95.1 151.95 91.8 146.9 91.5 142.7"/><path fill="#004370" d="M109.0 149.5 L113.55 149.1 118.45 148.95 Q117.55 149.8 115.3 151.0 112.95 152.25 111.65 152.5 L109.0 149.5"/><path fill="#004370" d="M21.1 164.7 Q20.9 168.4 17.7 168.65 14.5 168.95 13.05 165.4 L17.15 165.8 Q19.2 165.6 21.1 164.7"/><path fill="#ac6c36" d="M41.05 15.45 Q42.5 17.0 43.2 22.6 43.8 27.25 43.55 30.65 41.85 31.35 40.0 36.25 41.1 31.7 41.3 25.1 41.45 19.9 41.05 15.45"/><path fill="#ac6c36" d="M13.75 51.45 Q14.95 55.65 20.8 58.0 L14.3 57.35 Q13.45 56.1 13.25 54.45 13.0 52.55 13.75 51.45"/><path fill="#ac6c36" d="M126.25 47.6 Q120.1 55.25 112.1 71.05 L104.1 72.55 109.0 68.6 Q112.45 65.6 115.85 60.0 119.4 54.25 118.45 52.75 118.1 52.15 116.8 51.85 L113.95 51.65 Q116.7 47.8 124.6 42.95 132.85 37.9 138.2 37.15 131.3 41.35 126.25 47.6"/><path fill="#ac6c36" d="M113.6 94.2 Q113.25 93.4 111.15 92.8 108.85 92.1 106.05 92.15 110.4 90.75 115.45 88.15 122.15 88.15 131.2 85.8 140.9 83.25 144.55 80.05 144.9 84.35 132.0 89.45 120.25 94.1 113.6 94.2"/><path fill="#ac6c36" d="M111.55 97.35 Q113.25 95.6 113.6 94.2 L119.95 93.4 Q120.65 97.6 120.2 103.7 119.75 110.25 118.3 114.8 116.25 113.7 111.8 112.7 L103.6 111.5 Q108.3 110.3 112.75 108.05 117.8 105.5 117.7 103.8 117.6 102.55 114.2 101.35 111.35 100.35 107.95 99.9 109.75 99.3 111.55 97.35"/><path fill="#ac6c36" d="M111.5 127.8 Q107.45 132.85 103.2 135.4 101.6 130.35 100.5 128.65 L111.5 127.8"/><path fill="#ac6c36" d="M108.85 68.45 L111.4 71.6 104.75 72.5 108.85 68.45"/><path fill="#ac6c36" d="M137.2 148.7 Q133.35 155.05 129.3 157.9 127.9 158.0 125.85 158.7 124.75 159.1 124.55 157.9 124.35 156.7 125.55 156.35 129.5 155.0 134.1 149.35 138.65 143.75 140.1 138.65 141.35 141.9 137.2 148.7"/><path fill="#ac6c36" d="M132.75 158.95 Q133.55 160.95 128.9 162.85 124.7 164.55 121.95 164.4 L120.7 161.8 126.95 161.45 Q131.0 160.6 132.75 158.95"/><path fill="#ac6c36" d="M45.5 150.7 Q48.35 164.6 67.7 175.2 85.75 185.05 101.6 184.05 103.7 185.7 105.15 187.3 95.8 189.15 85.45 187.7 74.85 186.25 66.1 181.7 45.5 171.0 45.5 150.7"/><path fill="#ac6c36" d="M80.5 190.5 Q77.85 187.95 76.3 185.8 80.3 187.15 88.7 187.75 96.15 188.3 100.65 187.9 101.2 189.2 101.95 192.2 104.25 192.2 105.0 194.4 105.7 196.35 104.75 198.0 105.3 200.8 104.45 203.2 103.65 205.55 102.35 205.1 101.45 206.8 99.5 207.05 97.75 207.3 96.45 206.35 93.95 207.25 92.05 205.1 90.45 203.3 90.4 201.2 87.25 202.0 85.65 200.05 84.0 198.0 85.65 194.7 83.35 193.25 80.5 190.5"/><path fill="#ac6c36" d="M110.0 190.25 Q113.7 194.05 116.6 198.2 117.05 198.8 117.0 199.65 116.9 200.55 116.3 200.65 115.7 201.9 116.9 203.15 118.15 204.45 119.75 203.85 120.85 203.5 121.2 204.5 121.75 206.25 124.85 205.35 128.0 204.4 128.3 202.0 128.45 200.85 129.75 201.1 131.65 201.5 133.15 199.6 134.7 197.6 133.55 195.5 135.1 196.3 135.35 198.3 135.6 200.25 134.5 201.5 135.2 203.8 134.5 206.2 133.75 208.8 132.0 208.6 131.2 210.15 129.45 210.65 127.75 211.1 126.75 210.35 L123.65 210.15 Q121.6 209.4 121.1 207.7 119.65 206.65 119.25 205.75 115.75 206.7 114.15 204.8 112.6 202.95 114.35 200.65 112.2 196.7 109.25 192.6 105.05 186.6 101.6 184.05 105.1 185.25 110.0 190.25"/><path fill="#ac6c36" d="M33.0 160.3 Q36.5 161.4 40.55 161.5 L47.35 160.95 Q49.15 166.45 51.6 169.5 47.35 170.05 41.0 169.35 33.35 168.55 30.25 166.35 33.45 162.75 33.0 160.3"/><path fill="#ac6c36" d="M33.25 159.5 Q33.6 161.9 32.55 163.85 31.6 165.65 29.7 166.65 30.3 173.2 25.45 174.35 L21.75 174.1 Q19.95 173.4 19.35 172.05 22.1 172.05 24.65 169.2 27.1 166.45 27.6 162.95 29.3 163.05 30.95 162.05 32.6 161.05 33.25 159.5"/><path fill="#ac6c36" d="M27.45 159.95 Q27.95 163.8 25.75 167.7 23.3 171.9 19.65 172.0 15.6 172.1 12.55 168.45 9.5 164.8 9.55 160.1 L10.85 163.55 Q11.55 164.9 13.05 165.4 14.5 168.95 17.7 168.65 20.9 168.4 21.1 164.7 L24.8 162.7 Q27.0 161.3 27.45 159.95"/><path fill="#ac6c36" d="M45.65 1.3 Q52.45 3.3 57.15 23.35 61.65 42.45 59.05 50.65 L55.7 50.65 Q56.9 40.55 53.9 24.85 50.8 8.3 45.65 1.3"/><path fill="#0f141b" d="M119.45 52.15 Q120.75 54.7 115.75 61.75 110.9 68.6 105.25 72.7 L101.85 73.35 Q106.95 70.15 112.75 62.55 118.45 55.1 117.45 53.4 116.8 52.55 112.05 52.7 106.75 52.9 100.85 54.4 84.2 58.7 77.0 69.65 76.2 70.9 75.7 70.55 75.2 70.25 75.95 69.0 83.4 56.65 101.25 52.2 107.85 50.5 113.45 50.6 118.7 50.7 119.45 52.15"/><path fill="#0f141b" d="M102.15 92.4 Q109.7 90.9 120.1 84.5 130.7 77.95 130.25 74.75 129.95 72.6 119.5 72.35 108.25 72.1 98.95 74.9 97.7 75.3 97.5 74.75 97.3 74.25 98.5 73.7 106.5 70.35 119.15 70.55 131.9 70.75 132.4 74.45 133.0 78.3 123.75 84.4 115.25 89.95 106.8 92.45 L102.15 92.4"/><path fill="#0f141b" d="M90.75 42.65 Q88.05 53.65 82.25 62.65 L79.3 65.25 Q84.4 57.05 88.1 44.7 91.65 32.6 89.65 31.5 88.2 30.75 83.5 32.8 78.4 35.0 73.25 39.0 59.25 49.85 57.55 63.35 57.4 64.65 56.8 64.6 56.25 64.55 56.3 63.25 57.15 48.7 71.65 37.45 77.2 33.15 82.8 31.0 88.1 29.0 90.25 30.05 93.45 31.6 90.75 42.65"/><path fill="#0f141b" d="M43.65 31.85 Q41.2 32.3 39.4 44.5 37.5 57.55 39.75 67.15 L38.15 65.6 Q35.9 55.9 37.9 42.9 39.85 29.95 43.5 29.6 47.3 29.2 51.85 37.9 56.55 46.9 57.8 57.9 L56.95 61.3 Q56.1 50.85 51.35 40.9 46.8 31.3 43.65 31.85"/><path fill="#0f141b" d="M21.25 59.15 Q15.8 57.95 11.75 58.25 7.5 58.55 6.7 60.3 5.8 62.3 13.0 70.0 19.9 77.4 25.5 81.05 L22.4 80.45 Q16.75 76.8 10.5 70.05 3.4 62.4 4.65 59.55 5.75 57.1 10.45 56.55 14.9 56.0 20.95 57.25 35.1 60.2 40.8 67.75 41.4 68.55 40.9 68.9 40.45 69.25 39.8 68.5 34.4 61.95 21.25 59.15"/><path fill="#0f141b" d="M15.2 80.55 Q16.2 78.45 20.4 79.15 23.65 79.7 27.7 81.55 28.65 81.95 28.55 82.4 L27.45 82.45 Q23.65 81.1 20.55 80.95 17.7 80.8 17.35 81.6 16.95 82.5 18.65 84.45 20.4 86.45 23.0 88.05 24.1 88.7 23.8 89.1 L22.4 89.0 Q19.15 87.55 16.85 85.05 14.4 82.35 15.2 80.55"/><path fill="#0f141b" d="M22.3 88.65 Q19.05 87.45 15.4 87.75 12.05 88.05 11.75 89.1 11.35 90.5 15.2 94.4 19.15 98.4 23.1 100.25 24.15 100.75 23.85 101.3 L22.6 101.4 Q17.75 99.35 13.4 95.0 9.0 90.65 9.65 88.5 10.1 86.8 13.6 86.25 L20.0 86.55 22.3 88.65"/><path fill="#0f141b" d="M17.65 97.3 L20.45 99.5 Q14.95 97.45 8.7 97.55 2.6 97.6 2.15 99.45 1.25 103.1 7.7 108.4 14.0 113.6 20.1 114.55 L18.5 115.6 Q11.9 114.35 5.6 108.9 -0.95 103.2 0.1 98.85 0.7 96.4 6.25 95.9 11.8 95.45 17.65 97.3"/><path fill="#0f141b" d="M21.7 113.55 Q22.0 114.0 21.1 114.55 16.6 117.5 12.35 123.2 8.25 128.65 8.9 130.3 9.6 132.15 16.1 130.85 22.65 129.55 26.25 126.75 L24.65 129.25 Q20.75 131.95 14.5 132.85 7.9 133.75 6.85 131.15 5.85 128.65 10.75 122.5 15.5 116.55 20.45 113.65 L21.7 113.55"/><path fill="#0f141b" d="M22.9 135.05 Q21.4 139.85 22.4 141.0 L26.8 140.85 Q31.05 139.9 35.1 137.8 L34.95 139.5 Q31.05 141.7 26.4 142.8 L20.75 142.65 Q19.3 140.75 20.95 135.2 22.75 129.0 27.1 125.5 28.0 124.8 28.35 125.25 28.75 125.7 27.9 126.5 24.55 129.65 22.9 135.05"/><path fill="#0f141b" d="M50.4 144.25 Q47.4 148.5 42.3 151.35 37.4 154.15 35.45 153.05 33.55 152.0 33.5 146.55 33.5 141.75 34.75 136.5 35.05 135.2 35.6 135.3 36.15 135.35 35.95 136.65 35.3 141.55 35.5 146.2 35.7 150.6 36.45 151.05 37.95 151.9 42.45 149.25 47.0 146.6 49.45 143.45 50.15 142.5 50.65 142.9 51.1 143.3 50.4 144.25"/><path fill="#0f141b" d="M63.3 142.35 Q62.65 146.7 60.75 150.55 58.7 154.8 56.65 154.85 54.8 154.9 52.25 152.05 49.9 149.45 48.3 145.95 L49.5 144.65 Q50.9 147.8 53.25 150.3 55.45 152.6 56.7 152.6 57.65 152.6 59.5 149.15 61.35 145.65 62.25 142.05 62.55 140.8 63.05 140.95 63.55 141.1 63.3 142.35"/><path fill="#0f141b" d="M78.75 140.2 Q79.85 145.35 78.95 150.7 78.0 156.45 75.4 157.1 73.1 157.7 68.45 153.15 64.25 149.1 62.05 145.05 L62.7 143.35 Q64.6 147.05 68.8 151.15 73.2 155.4 75.0 155.0 76.35 154.75 77.25 150.15 78.1 145.35 77.5 140.4 77.35 139.3 77.9 139.2 78.5 139.1 78.75 140.2"/><path fill="#0f141b" d="M78.45 140.8 Q79.65 142.6 81.55 143.8 83.3 144.95 84.0 144.6 84.55 144.3 84.8 141.6 85.0 138.85 84.65 136.1 84.55 135.1 85.1 135.0 85.7 134.95 85.9 135.95 86.55 139.3 86.5 142.2 86.4 146.1 84.85 146.8 83.9 147.25 81.95 146.3 79.95 145.3 78.55 143.5 L78.45 140.8"/><path fill="#0f141b" d="M85.55 139.2 L85.45 137.3 Q88.95 140.6 95.15 143.55 101.5 146.5 102.65 145.25 103.85 143.95 102.7 137.9 101.6 132.15 99.7 128.6 L101.3 128.6 Q103.45 132.4 104.65 138.5 105.95 145.1 104.25 146.9 102.55 148.7 96.1 146.0 89.85 143.3 85.55 139.2"/><path fill="#0f141b" d="M97.75 129.1 Q96.65 128.95 96.7 128.35 96.75 127.8 97.85 127.85 107.3 128.4 116.05 125.45 124.05 122.75 124.25 120.1 124.4 117.75 116.35 114.9 107.75 111.85 99.75 112.45 98.5 112.55 98.45 112.0 98.4 111.45 99.65 111.2 107.9 109.75 117.5 113.3 126.75 116.7 126.5 120.35 126.25 123.95 116.9 127.1 107.1 130.35 97.75 129.1"/><path fill="#0f141b" d="M107.25 99.8 Q111.15 99.25 115.1 100.55 119.15 101.9 119.1 103.9 119.1 105.7 114.7 108.25 110.2 110.8 105.2 111.7 L100.55 111.35 Q106.15 110.35 111.65 107.65 116.75 105.1 116.7 103.85 116.6 102.55 112.5 101.6 L104.9 101.3 107.25 99.8"/><path fill="#0f141b" d="M112.9 97.85 Q109.9 100.55 103.7 102.45 102.7 102.75 102.45 102.2 102.25 101.65 103.3 101.25 107.6 99.5 110.3 97.45 112.7 95.6 112.55 94.65 112.35 93.6 109.15 93.2 L101.6 93.45 Q100.6 93.65 100.5 93.1 100.35 92.55 101.35 92.25 105.5 90.9 110.0 91.5 114.55 92.1 114.9 94.1 115.2 95.75 112.9 97.85"/><path fill="#0f141b" d="M90.25 57.35 L85.15 55.35 86.2 52.95 Q90.0 54.3 93.25 55.85 L90.25 57.35"/><path fill="#0f141b" d="M121.15 93.2 Q122.55 104.75 119.35 115.15 L117.0 114.35 Q119.95 104.3 118.7 93.7 L121.15 93.2"/><path fill="#0f141b" d="M113.5 127.35 Q109.05 133.45 103.1 136.75 L102.6 134.7 Q106.8 132.05 110.1 127.9 L113.5 127.35"/><path fill="#0f141b" d="M55.35 50.1 L61.9 49.4 60.8 51.6 55.85 52.05 55.35 50.1"/><path fill="#0f141b" d="M113.6 93.2 Q120.15 93.1 131.85 88.4 143.75 83.7 143.55 81.0 143.5 80.05 139.2 79.65 L131.45 79.95 132.9 78.1 Q137.2 77.35 141.4 78.1 145.9 78.95 146.0 80.9 146.15 84.7 133.75 89.95 121.95 94.95 113.7 95.4 L113.75 95.0 113.6 93.2"/><path fill="#0f141b" d="M125.25 43.5 Q119.0 47.3 114.65 51.85 L111.9 51.85 Q116.9 46.3 124.35 41.95 131.35 37.8 137.25 36.55 L138.8 36.7 Q138.9 37.15 137.5 37.65 131.3 39.75 125.25 43.5"/><path fill="#0f141b" d="M45.8 2.3 Q43.75 2.3 39.65 7.25 35.35 12.55 31.7 20.05 22.05 40.0 25.65 56.4 25.9 57.65 25.35 57.8 24.85 57.9 24.45 56.75 19.2 40.4 29.6 19.2 33.6 11.05 38.45 5.4 43.15 -0.05 45.9 0.0 48.1 0.05 51.05 4.45 54.05 8.95 56.5 16.05 62.55 33.6 60.45 50.7 L58.1 50.75 Q60.1 34.6 54.35 17.4 52.15 10.9 49.55 6.45 47.15 2.3 45.8 2.3"/><path fill="#0f141b" d="M24.8 56.25 Q22.75 54.0 18.85 52.7 15.4 51.5 14.5 52.1 13.8 52.6 14.1 54.1 14.4 55.7 15.65 57.35 L13.7 57.5 Q12.45 55.55 12.2 53.45 11.95 51.3 13.0 50.4 14.15 49.35 18.25 50.65 22.4 51.95 24.55 54.1 L24.8 56.25"/><path fill="#0f141b" d="M42.6 30.95 Q43.25 23.2 41.2 16.05 40.9 14.9 41.35 14.75 41.85 14.6 42.25 15.7 43.5 18.7 44.15 23.05 44.9 27.5 44.55 30.8 L42.6 30.95"/><path fill="#0f141b" d="M128.75 28.45 Q106.05 36.3 91.5 56.7 L89.25 55.65 Q104.4 34.4 127.9 26.2 136.4 23.25 143.9 22.7 150.45 22.3 152.35 23.7 154.15 25.05 153.45 31.75 152.7 38.35 149.9 47.15 142.95 68.8 131.95 80.35 131.05 81.25 130.65 80.9 130.2 80.55 131.0 79.5 141.55 66.25 147.9 45.7 150.3 37.85 151.2 31.85 152.0 26.2 151.0 25.5 L143.75 25.1 Q136.6 25.75 128.75 28.45"/><path fill="#0f141b" d="M35.75 80.4 Q39.25 76.45 43.55 77.5 46.8 78.25 48.2 83.15 49.75 88.7 47.6 96.65 45.5 104.6 41.65 107.8 38.05 110.8 34.05 109.05 30.7 107.55 29.9 102.0 29.25 97.25 30.6 91.45 32.3 84.2 35.75 80.4 M32.35 91.95 Q31.0 97.9 31.5 101.95 32.0 106.2 34.5 107.6 37.2 109.1 40.25 106.6 44.0 103.65 46.0 96.0 47.85 89.05 46.9 84.0 46.05 79.5 43.6 78.75 40.3 77.7 37.25 81.05 34.0 84.65 32.35 91.95"/><path fill="#0f141b" d="M91.95 91.15 Q93.4 96.4 91.4 104.3 89.55 111.6 85.7 115.25 81.85 118.9 77.3 117.5 73.55 116.3 72.0 111.4 70.3 106.1 72.1 98.55 74.0 90.5 78.5 86.8 82.4 83.5 86.35 84.8 90.55 86.15 91.95 91.15 M86.6 86.15 Q83.0 84.95 79.3 88.55 75.5 92.25 73.9 98.9 72.3 105.75 73.5 110.75 74.6 115.45 77.6 116.35 80.85 117.3 84.35 113.9 88.2 110.2 90.0 103.2 91.7 96.8 90.6 91.85 89.55 87.1 86.6 86.15"/><path fill="#0f141b" d="M83.15 87.85 Q86.5 85.05 88.95 86.55 93.7 89.5 90.4 103.5 89.05 109.3 86.15 112.9 83.1 116.65 80.35 115.45 77.85 114.35 76.95 110.45 75.9 106.05 77.3 99.5 79.05 91.25 83.15 87.85"/><path fill="#0f141b" d="M56.95 111.1 L51.7 111.35 Q49.2 110.75 47.8 108.7 46.5 106.85 47.05 105.25 47.9 102.85 54.15 104.1 60.5 105.35 60.2 108.45 60.05 110.2 56.95 111.1 M53.8 105.55 Q48.8 104.5 48.45 105.85 48.15 107.05 49.35 108.45 50.5 109.85 51.9 110.15 L56.3 109.9 Q58.6 109.2 58.7 108.35 58.9 106.6 53.8 105.55"/><path fill="#0f141b" d="M70.35 120.9 Q71.0 127.0 66.85 132.1 62.5 137.4 56.5 136.7 50.3 136.0 46.55 129.15 42.95 122.6 43.7 114.5 43.75 113.7 44.55 113.75 48.5 114.0 56.4 115.85 64.3 117.65 68.95 119.4 L70.1 120.0 70.35 120.9 M44.95 115.1 Q44.45 122.45 48.0 128.5 51.55 134.6 56.7 135.05 61.8 135.55 65.75 130.4 69.4 125.65 69.05 120.7 65.25 119.4 57.55 117.55 49.1 115.5 44.95 115.1"/><path fill="#0f141b" d="M46.5 127.0 Q47.35 122.55 50.75 119.8 54.3 116.95 59.3 117.15 L62.25 118.05 Q56.75 117.45 52.1 120.85 47.5 124.2 47.5 128.75 L46.5 127.0"/><path fill="#0f141b" d="M77.45 184.9 Q89.85 188.1 104.75 186.7 L105.95 188.3 Q92.05 189.9 79.7 187.35 65.05 184.35 55.95 176.0 44.2 165.2 44.5 148.75 L46.25 147.55 Q46.1 155.6 48.9 162.45 51.7 169.3 57.25 174.4 65.15 181.65 77.45 184.9"/><path fill="#0f141b" d="M28.7 151.0 Q31.6 149.8 34.85 148.95 L35.15 150.9 Q32.1 151.5 29.2 152.6 L28.7 151.0"/><path fill="#0f141b" d="M20.15 171.85 Q22.1 175.0 25.9 173.45 29.85 171.85 28.85 166.75 L30.45 166.2 Q32.35 173.2 26.4 175.15 L21.7 175.05 Q19.2 174.15 18.25 171.8 L20.15 171.85"/><path fill="#0f141b" d="M29.6 155.1 Q34.25 155.6 34.2 160.95 34.1 166.35 28.8 167.4 27.95 167.55 27.85 167.0 27.7 166.45 28.5 166.2 32.1 165.0 32.25 161.05 32.35 157.15 29.2 156.55 L29.6 155.1"/><path fill="#0f141b" d="M27.05 147.7 Q32.25 150.85 29.7 157.0 29.25 158.0 28.8 157.85 28.3 157.7 28.6 156.6 29.95 151.35 26.2 149.15 24.75 148.3 23.2 148.6 21.65 148.9 20.9 150.35 L19.25 149.45 Q20.4 147.2 22.75 146.8 24.9 146.4 27.05 147.7"/><path fill="#0f141b" d="M22.9 151.85 Q21.55 151.9 20.65 153.15 19.65 154.5 19.55 156.7 19.5 157.65 19.1 157.65 18.65 157.65 18.6 156.7 18.4 153.85 19.85 151.9 21.1 150.15 22.85 150.05 25.0 149.95 26.6 152.85 28.35 156.0 28.35 160.95 28.35 165.15 26.45 168.3 24.45 171.55 21.05 172.35 17.6 173.2 14.05 170.9 10.1 168.3 8.85 163.05 7.5 157.35 9.8 153.25 12.05 149.3 16.05 149.55 L14.65 151.3 Q12.3 151.6 11.05 154.8 9.65 158.3 10.7 162.7 11.7 166.8 14.65 169.3 17.65 171.75 20.75 171.05 23.25 170.45 24.95 167.5 26.55 164.6 26.55 160.9 26.55 156.65 25.35 154.05 24.25 151.8 22.9 151.85"/><path fill="#0f141b" d="M21.25 151.55 Q19.05 149.3 16.45 150.7 13.75 152.2 14.2 156.25 14.3 157.2 13.9 157.3 13.5 157.4 13.25 156.45 11.85 150.9 16.15 149.0 20.3 147.1 22.9 150.8 L21.25 151.55"/><path fill="#0f141b" d="M21.75 165.25 Q21.45 167.3 20.05 168.35 18.3 169.65 16.1 169.1 13.9 168.5 12.75 166.5 11.5 164.3 11.95 162.05 12.4 159.9 14.1 159.05 L17.95 158.85 Q19.7 159.5 20.85 161.25 22.05 163.05 21.75 165.25 M14.65 160.1 Q13.5 160.7 13.25 162.5 13.05 164.3 13.9 165.75 14.85 167.4 16.65 167.8 18.25 168.2 19.25 167.45 20.3 166.65 20.4 164.95 20.5 163.3 19.7 162.0 18.7 160.4 17.1 159.95 L14.65 160.1"/><path fill="#0f141b" d="M30.55 166.2 Q34.4 168.0 40.8 168.55 46.0 169.0 51.15 168.6 L52.1 170.55 41.25 170.25 Q33.7 169.3 29.3 167.0 L30.55 166.2"/><path fill="#0f141b" d="M76.65 184.9 Q82.35 191.7 87.45 195.25 88.45 195.95 88.1 196.4 L86.8 196.3 Q81.35 193.4 75.65 186.75 L76.65 184.9"/><path fill="#0f141b" d="M86.45 195.45 Q84.85 197.75 86.35 199.7 87.9 201.65 90.25 200.35 L90.95 201.85 Q87.55 203.75 85.1 200.95 82.55 198.1 85.15 194.5 L86.45 195.45"/><path fill="#0f141b" d="M93.0 203.7 Q90.75 202.8 89.6 200.3 89.1 199.2 89.55 198.95 90.0 198.7 90.55 199.75 91.45 201.45 93.2 202.0 94.8 202.5 96.45 201.95 99.4 200.95 99.45 198.3 99.45 197.25 99.9 197.15 100.35 197.0 100.5 198.05 100.75 199.85 99.85 201.45 98.85 203.1 96.95 203.75 94.95 204.45 93.0 203.7"/><path fill="#0f141b" d="M106.05 195.9 Q106.0 197.9 104.55 199.1 102.8 200.5 99.8 200.15 L100.05 198.8 Q104.35 199.2 104.5 196.0 104.55 194.75 103.7 193.8 102.8 192.75 101.4 192.8 100.45 192.85 100.4 192.3 100.35 191.75 101.3 191.6 103.45 191.25 104.85 192.65 106.1 193.95 106.05 195.9"/><path fill="#0f141b" d="M101.55 187.8 L102.85 192.15 101.05 192.3 Q100.55 190.05 99.7 188.0 L101.55 187.8"/><path fill="#0f141b" d="M104.1 198.1 L105.4 196.3 Q105.95 199.0 105.75 201.25 105.6 203.4 104.75 204.6 103.4 206.45 101.45 205.55 99.45 204.6 99.75 201.7 99.85 200.85 100.05 200.8 100.25 200.7 100.4 201.5 100.9 203.85 102.3 204.1 103.55 204.35 104.0 203.0 104.6 201.2 104.1 198.1"/><path fill="#0f141b" d="M103.15 205.5 Q101.3 208.5 98.05 207.95 94.65 207.35 94.2 203.2 L95.75 202.95 Q96.2 206.05 98.45 206.35 100.5 206.7 101.8 204.65 L103.15 205.5"/><path fill="#0f141b" d="M97.25 207.1 Q94.4 208.25 92.0 206.2 89.6 204.15 89.85 201.15 L91.4 201.95 Q91.6 203.85 93.1 205.05 94.6 206.25 96.25 205.6 L97.25 207.1"/><path fill="#0f141b" d="M109.75 191.8 Q112.8 195.95 115.1 200.1 L113.7 201.1 Q111.2 196.55 108.5 192.65 104.8 187.35 101.85 185.2 100.8 184.45 101.15 183.95 101.45 183.45 102.5 184.2 105.65 186.3 109.75 191.8"/><path fill="#0f141b" d="M115.95 199.6 Q116.8 199.55 116.85 200.1 116.9 200.65 116.05 200.85 114.45 201.2 114.25 202.45 114.05 203.6 115.3 204.6 116.05 205.2 117.2 205.25 L119.4 204.8 120.5 204.9 Q120.75 205.35 120.0 205.85 118.75 206.8 117.05 206.8 115.4 206.85 114.25 205.95 112.15 204.3 112.75 202.05 113.35 199.8 115.95 199.6"/><path fill="#0f141b" d="M124.85 208.6 L121.4 208.45 Q119.2 207.75 118.55 205.85 L119.75 205.2 Q120.45 206.45 121.75 206.9 123.0 207.3 124.5 206.9 128.5 205.95 128.85 202.85 128.95 202.0 129.5 201.85 130.0 201.75 130.1 202.6 130.3 204.8 128.85 206.45 127.4 208.0 124.85 208.6"/><path fill="#0f141b" d="M134.4 195.15 Q136.2 196.45 136.25 198.7 136.3 200.95 134.6 202.45 132.7 204.15 129.45 203.9 L129.4 202.55 Q134.75 202.05 134.45 198.45 134.35 197.0 133.05 196.15 131.55 195.2 129.3 195.5 128.3 195.6 128.25 195.05 128.15 194.45 129.1 194.25 132.4 193.65 134.4 195.15"/><path fill="#0f141b" d="M135.05 200.4 Q136.15 203.45 135.15 206.5 134.15 209.5 132.2 209.5 131.2 209.5 130.25 208.25 129.3 207.05 128.9 205.3 L129.75 203.7 Q130.1 205.5 130.8 206.65 131.55 207.8 132.25 207.75 133.15 207.7 133.7 206.0 134.3 204.15 133.8 202.05 L135.05 200.4"/><path fill="#0f141b" d="M132.6 208.9 Q131.4 211.6 128.35 211.5 125.15 211.4 124.2 207.9 L125.65 207.4 Q126.3 209.8 128.3 210.0 130.2 210.2 131.1 208.35 L132.6 208.9"/><path fill="#0f141b" d="M127.4 210.65 Q125.85 212.05 123.2 211.0 120.45 209.95 120.15 207.25 L121.85 207.65 Q122.55 209.5 123.9 210.05 125.15 210.55 126.35 209.7 L127.4 210.65"/><path fill="#0f141b" d="M110.75 150.65 Q126.85 159.25 131.05 194.75 L129.45 194.85 Q127.5 180.0 123.2 169.55 118.75 158.75 112.4 154.2 L110.75 150.65"/><path fill="#0f141b" d="M92.15 142.85 Q93.1 146.9 95.55 151.1 98.2 155.6 101.3 158.0 101.45 154.55 101.2 152.05 L102.9 153.15 Q103.15 155.55 102.9 159.75 L102.55 160.5 101.65 160.25 Q97.45 157.7 94.45 152.5 91.55 147.6 90.7 142.1 L92.15 142.85"/><path fill="#0f141b" d="M103.45 145.6 Q107.15 146.65 110.75 150.3 114.2 153.8 114.95 156.9 115.1 157.5 114.9 157.75 L113.95 158.0 Q111.2 158.0 107.1 156.25 102.85 154.45 100.4 152.05 99.6 151.25 99.95 150.8 100.35 150.4 101.2 151.1 103.5 153.0 106.85 154.4 110.05 155.75 112.7 156.0 111.65 153.25 108.65 150.45 105.6 147.55 102.65 146.75 L103.45 145.6"/><path fill="#0f141b" d="M119.5 147.85 Q120.75 148.55 119.65 149.6 118.45 150.75 116.35 151.75 L112.1 153.15 111.1 151.45 Q114.95 150.75 117.2 149.05 115.1 148.3 111.8 147.75 L105.6 147.15 103.15 145.75 112.2 146.15 Q117.7 146.9 119.5 147.85"/><path fill="#0f141b" d="M129.8 141.8 Q120.6 146.9 116.3 155.95 L114.6 154.75 Q119.0 145.35 129.15 140.35 132.95 138.45 136.4 137.8 139.6 137.2 140.7 137.85 142.65 139.15 139.35 146.6 135.85 154.65 130.15 157.85 L127.1 157.85 Q132.65 155.75 137.0 147.45 138.55 144.45 139.35 141.75 140.1 139.25 139.65 138.95 L136.2 139.15 Q133.15 139.95 129.8 141.8"/><path fill="#0f141b" d="M131.4 157.25 Q133.95 157.65 134.2 158.9 134.6 160.95 130.9 163.05 127.0 165.2 122.35 165.15 L121.6 163.8 Q124.8 164.2 128.65 162.3 132.3 160.45 131.9 159.25 131.75 158.65 130.1 158.55 L126.45 158.9 Q125.35 159.15 125.25 158.6 125.1 158.05 126.15 157.7 128.8 156.85 131.4 157.25"/><path fill="#0f141b" d="M34.6 92.4 Q36.55 84.85 39.8 81.5 42.65 78.55 45.45 79.7 47.55 80.6 47.9 85.45 48.2 90.1 46.75 95.45 44.95 101.9 42.25 105.25 39.65 108.4 37.2 107.55 34.7 106.75 34.0 101.75 33.35 97.15 34.6 92.4"/><path fill="#ffffff" d="M45.3 82.5 Q46.15 82.65 46.5 84.1 46.8 85.45 46.55 87.2 46.25 89.05 45.45 90.3 44.45 91.75 43.25 91.45 42.3 91.2 41.95 89.85 41.6 88.4 42.0 86.45 42.45 84.35 43.35 83.3 44.2 82.3 45.3 82.5"/><path fill="#ffffff" d="M87.6 89.8 Q88.55 90.1 88.8 91.6 89.05 93.05 88.55 95.2 88.05 97.45 87.0 98.7 85.95 99.85 84.95 99.6 83.95 99.35 83.65 97.7 83.3 96.0 83.9 93.75 84.45 91.8 85.5 90.65 86.55 89.5 87.6 89.8"/><path fill="#d28444" d="M71.8 164.9 Q73.75 162.35 75.75 160.65 79.15 157.8 89.0 164.8 93.0 167.6 95.15 170.35 97.55 173.3 96.4 174.6 93.8 177.55 86.85 180.75 80.95 183.45 77.0 184.3 76.8 186.0 75.0 188.0 73.2 189.95 72.0 190.05 72.35 195.1 67.85 196.75 63.45 198.4 61.0 194.95 58.1 195.0 54.8 192.6 50.65 189.6 50.0 184.85 49.2 179.25 51.5 175.25 53.65 171.6 56.6 171.85 57.55 170.8 59.35 170.6 60.25 168.15 63.45 167.95 66.4 167.75 69.05 169.3 70.0 167.3 71.8 164.9"/><path fill="#00568b" d="M64.35 185.9 Q64.7 187.6 63.8 189.1 62.8 190.85 60.5 191.3 58.55 191.7 57.0 190.75 55.35 189.75 55.0 187.75 54.7 185.9 55.85 184.35 57.0 182.7 58.9 182.5 60.75 182.3 62.4 183.3 64.0 184.3 64.35 185.9"/><path fill="#ac6c36" d="M76.8 184.2 Q77.25 182.2 76.65 179.35 80.4 179.25 86.85 177.45 93.25 175.7 96.45 173.9 93.55 177.3 86.95 180.65 80.8 183.7 76.8 184.2"/><path fill="#ac6c36" d="M76.65 179.35 Q77.8 183.15 76.25 186.2 74.85 188.8 71.9 190.15 72.1 194.75 67.85 196.75 63.6 198.7 61.2 194.8 64.85 194.4 67.5 191.2 69.7 188.55 70.35 185.45 72.05 185.15 73.9 183.55 75.95 181.7 76.65 179.35"/><path fill="#ac6c36" d="M57.2 190.75 Q58.6 191.65 60.35 191.35 64.3 190.8 64.2 186.9 69.7 183.25 70.05 179.9 71.65 184.2 69.1 189.2 66.3 194.5 61.2 194.8 56.0 195.1 52.55 190.4 49.25 185.9 49.8 180.45 50.5 184.05 51.8 185.95 53.1 187.9 55.35 188.55 55.95 190.0 57.2 190.75"/><path fill="#004370" d="M60.2 191.35 Q58.45 191.65 57.05 190.75 55.8 190.0 55.2 188.55 L59.9 188.7 Q62.3 188.25 64.35 186.9 64.4 188.6 63.35 189.8 62.25 191.05 60.2 191.35"/><path fill="#0f141b" d="M67.95 169.35 Q70.5 164.0 75.0 160.6 75.85 159.95 76.25 160.3 76.65 160.65 75.85 161.4 71.95 164.95 69.35 170.4 L67.95 169.35"/><path fill="#0f141b" d="M76.7 183.5 Q87.8 180.95 95.6 174.2 96.5 173.45 96.9 173.9 97.3 174.35 96.45 175.15 92.6 178.85 87.4 181.5 82.1 184.2 76.5 185.3 L76.7 183.5"/><path fill="#0f141b" d="M72.7 189.5 Q74.0 195.1 68.8 197.4 63.65 199.75 60.4 195.1 L61.85 194.7 Q64.4 197.45 68.0 195.65 71.55 193.9 71.0 190.0 L72.7 189.5"/><path fill="#0f141b" d="M71.05 173.9 Q74.0 173.8 75.95 176.2 77.7 178.4 77.85 181.65 78.0 185.0 76.45 187.45 74.65 190.2 71.3 190.65 70.4 190.8 70.3 190.25 70.25 189.7 71.1 189.45 76.4 188.1 76.15 182.0 76.1 179.45 74.8 177.7 73.4 175.8 71.15 175.7 L71.05 173.9"/><path fill="#0f141b" d="M58.3 170.65 Q59.4 168.4 61.85 167.55 64.2 166.75 66.65 167.5 72.6 169.35 71.9 176.0 71.8 177.05 71.3 177.0 70.75 176.95 70.8 175.9 70.8 170.8 66.45 169.2 62.3 167.7 60.25 170.7 L58.3 170.65"/><path fill="#0f141b" d="M55.8 172.75 Q53.5 173.15 52.0 175.75 50.25 178.75 50.75 183.35 51.3 188.45 54.45 191.4 57.3 194.1 61.1 194.1 64.3 194.1 67.1 190.7 69.95 187.2 69.75 183.3 69.55 178.55 68.1 175.85 66.8 173.3 65.1 173.5 63.95 173.65 63.1 175.45 62.25 177.35 62.5 179.5 62.6 180.25 62.15 180.35 61.75 180.45 61.55 179.75 60.85 177.25 61.9 174.7 62.95 172.1 64.75 171.9 67.25 171.6 69.15 174.4 71.2 177.55 71.4 183.25 71.55 187.8 68.35 191.65 65.15 195.5 61.15 195.55 56.6 195.65 53.3 192.6 49.7 189.3 49.0 183.45 48.35 177.7 51.3 173.95 53.95 170.6 57.15 171.1 L55.8 172.75"/><path fill="#0f141b" d="M60.25 169.9 Q62.7 170.15 64.6 172.35 L63.25 173.55 Q59.95 169.8 56.95 172.5 53.9 175.2 56.45 180.05 56.9 180.95 56.5 181.05 56.15 181.2 55.65 180.4 53.85 177.55 54.15 174.85 54.45 172.5 56.25 171.05 58.0 169.65 60.25 169.9"/><path fill="#0f141b" d="M54.25 187.15 Q54.15 184.95 55.6 183.5 57.05 182.05 59.45 181.95 61.8 181.85 63.4 183.25 65.05 184.7 65.05 187.05 65.05 189.2 63.55 190.55 62.05 191.95 59.7 191.95 57.4 191.95 55.95 190.7 54.35 189.4 54.25 187.15 M56.75 189.8 Q57.95 190.85 59.7 190.85 61.6 190.85 62.7 189.65 63.7 188.55 63.7 187.05 63.7 185.25 62.5 184.2 61.35 183.1 59.5 183.1 57.85 183.15 56.7 184.3 55.55 185.45 55.55 187.2 55.55 188.75 56.75 189.8"/></g></svg>