<?xml version='1.0' encoding='utf-8'?>
<svg xmlns="http://www.w3.org/2000/svg" version="1.1" width="200px" height="207px" viewBox="-1.35 -0.4 200.25 206.75"><g><path fill="#00a9db" d="M122.2 11.5 Q125.95 14.2 127.9 18.05 129.95 22.05 129.25 25.95 134.4 26.25 138.0 31.4 141.5 36.45 140.45 41.4 138.7 49.9 132.7 53.4 126.65 56.85 118.7 53.8 117.1 56.3 112.4 57.9 107.5 59.55 103.15 58.75 106.0 60.45 109.75 64.7 113.4 68.9 114.35 71.5 119.4 61.15 130.2 55.6 141.15 50.0 149.9 53.8 155.5 56.25 158.35 63.3 160.95 69.8 160.45 77.85 159.7 89.15 152.4 100.15 144.8 111.6 133.0 118.25 127.75 121.2 120.2 120.5 111.5 119.7 106.75 113.9 105.2 116.45 99.1 119.6 93.55 122.45 89.5 123.3 61.25 128.95 44.2 116.95 29.2 106.45 28.35 87.65 28.0 80.0 32.5 72.1 36.85 64.3 43.65 59.95 51.8 54.8 65.25 51.6 60.05 51.85 56.15 50.25 52.35 48.7 50.75 45.7 45.15 46.1 41.25 42.75 37.7 39.75 36.8 34.9 35.9 30.05 38.05 25.95 40.45 21.45 45.7 19.8 45.7 14.5 49.15 10.8 52.15 7.6 57.1 6.35 61.75 5.15 66.1 6.15 70.65 7.2 72.7 10.15 74.8 6.0 79.2 3.55 83.4 1.2 88.35 1.0 93.4 0.8 97.45 3.0 101.8 5.4 103.7 10.0 113.3 5.25 122.2 11.5"/><path fill="#00a9db" d="M7.05 84.0 Q5.75 71.9 9.35 62.05 13.4 50.9 22.0 49.0 27.6 47.8 34.75 52.05 41.35 56.0 42.95 60.3 30.05 69.6 28.55 85.05 27.0 101.45 40.1 114.0 26.95 119.9 17.15 108.85 8.8 99.4 7.05 84.0"/><path fill="#00a9db" d="M66.95 124.8 Q73.65 125.55 80.95 124.65 87.2 123.9 93.05 122.1 L102.9 130.45 Q100.85 130.1 99.05 131.7 97.3 133.25 97.45 134.95 L95.7 133.55 96.7 136.2 Q93.5 135.1 90.6 136.75 88.1 138.15 86.95 140.75 85.05 137.65 81.15 137.2 77.05 136.75 74.9 140.05 73.7 138.5 72.15 137.25 72.15 133.8 71.1 130.45 L64.55 140.55 Q64.55 138.25 62.7 136.55 60.95 134.9 58.95 135.05 L66.95 124.8"/><path fill="#00a9db" d="M168.35 146.2 Q166.1 141.95 167.5 137.4 169.0 132.55 173.9 130.7 179.7 128.5 184.8 132.3 190.3 136.4 187.85 144.05 192.8 144.05 195.55 148.4 197.95 152.2 197.35 156.45 196.25 163.85 189.15 165.75 182.55 167.5 178.3 163.6 175.6 167.95 171.85 171.95 171.95 169.4 170.25 168.05 168.55 166.75 166.5 167.5 L168.1 165.7 Q164.65 165.6 161.65 163.0 158.45 160.25 158.0 156.3 157.55 152.15 160.6 149.15 163.65 146.1 168.35 146.2"/><path fill="#bbe1e8" d="M36.3 66.35 Q28.45 73.8 28.8 88.1 29.15 101.9 36.4 109.9 33.7 111.15 30.2 110.75 25.95 110.25 22.65 107.3 18.45 103.45 18.45 98.1 18.4 92.6 23.0 90.8 14.6 85.8 14.0 74.6 13.8 70.1 15.0 66.1 16.15 62.25 18.05 60.5 21.8 57.1 27.15 58.8 32.55 60.45 36.3 66.35"/><path fill="#bbe1e8" d="M116.0 86.85 Q115.7 83.95 117.3 80.5 121.05 72.4 130.45 67.3 140.3 62.0 145.95 66.45 152.25 71.4 150.25 81.4 148.15 91.85 138.35 96.95 140.1 102.3 137.75 106.7 135.65 110.65 130.95 112.7 126.4 114.7 121.5 114.1 116.25 113.4 112.9 109.9 112.1 109.05 112.05 108.3 111.95 107.5 112.7 106.3 117.1 98.95 116.0 86.85"/><path fill="#fcd25b" d="M90.15 89.2 Q96.1 91.3 99.35 95.45 102.7 99.75 102.6 105.55 102.45 111.25 98.45 116.05 94.75 120.55 88.3 123.65 71.55 126.8 57.9 123.2 41.0 118.75 32.65 104.45 31.8 100.45 33.5 97.1 35.0 94.2 37.65 92.9 40.1 91.7 42.15 89.55 44.3 87.3 45.4 84.45 46.3 82.2 48.65 78.6 L53.05 71.7 Q55.5 67.55 60.4 67.65 65.25 67.75 68.2 71.7 73.75 79.05 78.75 83.0 83.65 86.9 90.15 89.2"/><path fill="#fcd25b" d="M50.6 142.15 Q53.75 142.25 55.85 139.5 L58.9 135.25 Q61.2 134.7 62.95 136.65 64.55 138.35 64.55 140.55 57.7 150.35 55.25 153.0 53.9 154.5 47.0 159.45 L35.8 167.15 Q35.75 169.2 36.35 172.85 36.65 174.7 34.5 176.0 32.45 177.15 30.1 176.85 27.85 176.5 26.25 173.95 23.5 178.4 17.45 180.35 11.25 182.35 6.25 180.15 2.3 178.4 1.25 173.4 0.25 168.45 2.75 163.15 7.55 153.2 21.35 147.3 34.8 141.55 50.6 142.15"/><path fill="#fcd25b" d="M72.15 137.25 L74.9 140.05 Q76.8 137.05 80.65 137.15 84.65 137.3 86.95 140.75 88.5 137.4 91.35 136.25 93.8 135.2 96.75 135.95 99.05 140.3 100.7 148.8 102.15 156.1 102.15 160.3 106.5 162.0 111.15 166.35 116.1 170.95 118.15 175.7 120.25 180.4 119.5 186.5 118.75 192.3 116.05 195.2 118.2 196.9 119.05 199.2 120.0 201.65 118.75 203.2 117.45 204.75 114.45 205.3 L108.15 205.15 Q105.8 204.7 105.1 201.9 104.4 199.15 105.9 197.0 106.7 195.75 106.4 194.1 L105.1 190.3 Q103.9 187.1 103.3 186.15 102.2 184.3 94.3 177.45 93.1 176.35 91.6 176.5 86.95 176.85 76.6 175.1 74.4 176.6 71.95 178.65 L68.85 181.5 Q68.05 182.45 68.55 185.5 69.05 188.7 70.6 190.7 72.85 193.7 71.15 196.05 69.25 198.7 62.75 199.6 59.15 200.1 56.4 198.9 53.85 197.75 53.75 196.05 53.65 194.6 55.5 192.95 57.15 191.45 58.95 190.85 56.2 188.9 54.5 186.0 52.45 182.6 52.25 178.55 52.05 174.65 55.85 169.3 60.2 163.15 66.75 160.65 70.15 159.4 70.5 158.05 71.55 153.8 72.0 147.45 72.35 141.9 72.15 137.25"/><path fill="#fcd25b" d="M166.75 167.4 Q169.3 167.15 170.8 168.6 172.1 169.9 172.05 171.75 165.3 180.1 149.4 183.6 132.85 187.25 119.7 182.25 119.4 177.6 117.35 174.3 136.65 179.0 148.65 176.9 159.1 175.05 166.75 167.4"/><path fill="#0094bf" d="M140.3 42.4 Q138.9 49.5 133.05 53.25 126.5 57.4 118.85 53.5 117.1 56.0 112.3 57.9 106.65 60.15 102.3 58.65 99.0 55.75 97.8 53.25 96.6 50.7 97.25 47.95 92.0 50.45 83.65 48.9 75.15 47.3 72.75 43.1 70.35 49.9 64.95 51.45 60.75 51.9 57.0 50.65 52.5 49.15 50.8 45.7 45.3 46.05 41.05 42.6 35.75 38.3 36.65 30.4 36.95 36.0 44.2 38.05 51.1 40.0 55.4 36.95 59.8 38.7 65.55 37.0 71.95 35.0 74.3 29.8 77.5 33.5 84.6 34.55 92.3 35.65 98.2 32.3 99.55 36.75 104.2 39.3 108.45 41.6 113.65 41.6 116.4 46.15 125.85 46.85 135.75 47.55 140.3 42.4"/><path fill="#0094bf" d="M50.6 33.0 Q54.5 35.3 61.7 33.65 69.15 31.85 72.35 27.35 L74.0 29.55 Q73.35 32.7 70.2 34.95 67.25 37.05 63.2 37.7 53.75 39.2 50.6 33.0"/><path fill="#0094bf" d="M86.85 34.7 Q75.95 34.2 72.35 27.35 75.75 30.55 86.75 31.2 97.25 31.8 101.35 29.7 97.5 35.15 86.85 34.7"/><path fill="#0094bf" d="M101.9 29.65 Q103.0 33.6 108.1 37.1 113.0 40.5 118.2 41.15 111.8 41.95 106.55 40.2 99.85 38.0 98.2 32.3 99.7 31.65 101.9 29.65"/><path fill="#0094bf" d="M124.9 120.2 Q113.25 121.25 106.75 113.75 104.6 116.4 99.6 119.35 93.8 122.75 89.3 123.1 95.15 120.35 99.35 114.85 101.75 114.0 103.0 113.4 L105.85 111.85 Q119.7 120.35 136.35 110.7 150.75 102.4 158.6 87.2 155.45 99.95 144.6 109.95 134.45 119.3 124.9 120.2"/><path fill="#0094bf" d="M6.75 79.3 Q7.5 86.0 11.9 94.9 16.85 104.9 21.5 106.15 24.1 109.3 28.05 110.35 L36.3 110.05 Q37.05 111.15 40.1 114.1 26.85 120.4 16.7 108.35 7.35 97.2 6.75 79.3"/><path fill="#d9b64f" d="M63.8 121.45 L84.3 120.75 Q94.25 118.9 99.35 114.85 98.4 116.4 95.35 119.1 92.05 122.05 89.7 123.0 69.55 128.5 51.65 120.95 44.15 117.8 38.9 112.95 33.9 108.3 32.3 103.45 35.25 111.2 44.35 116.0 52.45 120.25 63.8 121.45"/><path fill="#d9b64f" d="M56.05 139.35 L59.05 135.2 Q61.3 134.9 63.05 136.65 64.65 138.3 64.65 140.35 L59.2 148.1 Q55.2 153.15 52.95 155.05 55.4 151.9 56.3 146.8 57.15 141.95 56.05 139.35"/><path fill="#0094bf" d="M74.9 140.2 Q74.0 138.9 72.15 137.5 71.95 133.9 71.3 130.5 L64.65 140.35 Q64.6 138.55 63.25 136.95 61.6 135.05 59.05 135.2 L67.3 124.6 Q73.75 125.15 81.35 124.5 89.7 123.8 93.6 122.1 L99.05 126.8 Q97.7 127.8 96.8 129.85 95.85 131.9 96.05 133.75 L97.0 135.85 Q93.35 135.2 90.7 136.55 88.2 137.85 87.05 140.75 85.0 137.35 81.0 137.05 76.9 136.75 74.9 140.2"/><path fill="#d9b64f" d="M72.2 142.4 L72.15 137.5 Q74.0 138.9 74.9 140.2 76.9 136.75 81.0 137.05 85.0 137.35 87.05 140.75 88.2 137.85 90.7 136.55 93.35 135.2 97.0 135.85 L98.35 139.9 Q94.4 142.8 85.35 143.7 76.35 144.55 72.2 142.4"/><path fill="#d9b64f" d="M74.0 170.85 Q75.05 170.7 77.35 171.45 L84.95 172.7 91.95 172.95 Q95.4 172.45 97.2 174.25 L100.85 178.05 104.0 181.0 Q109.6 185.3 114.6 181.8 116.5 180.45 117.4 178.4 118.35 176.4 117.7 175.0 120.6 178.65 119.8 185.55 118.9 192.95 114.2 196.75 111.05 196.7 108.85 198.45 106.7 200.15 107.8 201.9 108.65 203.25 113.35 202.95 118.25 202.65 119.4 200.7 119.4 203.05 117.55 204.25 116.1 205.15 113.25 205.4 109.7 205.7 107.35 204.75 105.2 203.85 105.0 202.25 104.85 201.0 105.15 199.45 105.45 197.8 106.05 197.1 107.1 195.8 106.6 194.25 104.55 188.05 103.45 186.3 L99.3 181.95 94.55 177.6 Q93.3 176.65 91.15 176.65 80.65 176.25 76.9 174.85 74.25 176.7 71.8 178.75 69.3 180.8 68.65 181.7 67.95 182.6 68.5 185.45 69.05 188.3 70.25 189.9 71.6 191.7 71.8 193.5 72.0 195.55 70.4 196.6 67.0 198.9 62.7 199.6 57.65 200.35 54.8 198.05 53.9 197.35 53.8 196.15 53.7 194.95 54.5 193.9 56.35 196.15 60.95 196.5 65.4 196.8 66.8 194.95 67.65 193.75 65.8 192.6 63.8 191.35 60.85 192.0 56.85 190.15 54.1 185.3 50.9 179.7 52.95 175.15 52.3 178.95 56.05 180.5 59.6 182.0 62.45 180.15 65.95 177.95 71.5 172.25 72.8 171.0 74.0 170.85"/><path fill="#d9b64f" d="M25.45 172.2 L26.3 173.5 Q24.5 177.2 19.25 179.55 13.5 182.2 8.15 180.8 4.0 179.75 2.05 175.35 -0.2 170.35 2.35 164.25 1.6 169.15 3.65 172.4 5.55 175.35 9.25 176.25 12.9 177.1 17.0 175.6 21.4 174.1 24.9 170.4 25.0 171.35 25.45 172.2"/><path fill="#d9b64f" d="M25.4 168.65 Q25.95 171.25 27.5 172.95 28.95 174.55 30.55 174.45 33.25 174.3 34.3 172.65 35.5 170.85 35.65 166.2 35.65 168.75 36.15 172.45 36.25 175.3 33.85 176.1 29.45 177.6 27.25 175.25 25.3 173.2 25.4 168.65"/><path fill="#d9b64f" d="M170.75 168.7 Q171.85 169.75 172.15 171.55 166.1 177.2 158.05 180.85 148.9 184.95 140.0 185.0 142.15 182.95 143.4 180.3 150.65 180.5 158.15 177.15 165.0 174.1 170.75 168.7"/><path fill="#0094bf" d="M178.25 163.95 Q176.35 167.65 172.15 171.55 171.85 169.75 170.75 168.7 174.3 165.35 176.8 161.75 L178.25 163.95"/><path fill="#0094bf" d="M168.45 165.65 Q164.8 166.05 161.5 163.0 157.8 159.6 158.3 154.55 158.7 157.9 163.45 160.1 168.2 162.3 171.45 160.8 L169.9 163.4 168.45 165.65"/><path fill="#0094bf" d="M176.5 160.8 Q182.25 164.25 189.15 161.8 196.1 159.3 197.05 153.3 197.8 157.65 195.8 161.05 194.05 164.0 191.0 165.05 186.45 166.65 182.85 165.85 178.55 164.95 176.5 160.8"/><path fill="#0094bf" d="M167.5 138.05 Q168.5 142.35 174.7 143.95 179.75 145.3 184.9 144.2 178.75 145.75 176.85 150.85 172.95 151.25 169.65 147.7 165.95 143.7 167.5 138.05"/><path fill="#d9b64f" d="M118.8 177.1 L120.85 174.75 121.95 178.45 Q123.4 182.35 125.2 183.15 L121.9 182.65 119.8 182.1 119.45 179.4 Q119.15 177.45 118.8 177.1"/><path fill="#0d131a" d="M72.85 43.8 Q70.85 51.5 59.45 54.15 45.05 57.5 36.9 67.0 29.75 75.35 29.5 85.55 29.1 101.25 39.0 111.75 48.9 122.25 65.75 123.9 79.1 125.15 90.1 122.25 101.1 119.3 106.3 113.15 L107.2 114.4 Q100.7 122.0 86.75 124.65 76.5 126.6 65.65 125.6 46.55 123.75 36.2 111.25 27.2 100.3 27.55 85.5 27.85 75.05 35.6 66.15 44.35 56.05 59.15 52.6 64.9 51.25 67.65 49.2 70.1 47.35 71.9 43.5 72.3 42.65 72.7 42.75 73.1 42.85 72.85 43.8"/><path fill="#0d131a" d="M97.7 48.55 Q97.0 54.1 103.85 58.55 107.25 60.75 110.35 63.95 113.8 67.5 115.05 70.55 L113.8 72.5 Q112.9 69.5 109.5 65.55 106.3 61.85 102.95 59.65 99.15 57.2 97.5 54.3 95.9 51.35 96.7 48.35 97.0 47.35 97.4 47.45 97.8 47.55 97.7 48.55"/><path fill="#0d131a" d="M111.0 79.05 Q115.8 61.15 130.25 54.35 136.2 51.55 142.35 51.55 148.3 51.6 152.55 54.2 160.45 59.05 161.3 72.2 162.1 85.45 155.15 97.85 147.3 111.65 135.05 117.7 124.4 123.0 115.6 120.45 111.95 119.45 109.35 117.3 106.85 115.25 105.65 112.5 105.3 111.7 105.65 111.55 106.05 111.4 106.55 112.15 109.7 117.05 116.0 118.9 123.75 121.15 133.9 116.0 145.7 110.0 153.5 96.8 160.05 85.7 159.2 72.85 158.4 60.25 151.4 55.9 142.55 50.35 130.55 56.45 117.55 63.1 111.95 79.3 111.6 80.45 111.15 80.3 110.7 80.2 111.0 79.05"/><path fill="#0d131a" d="M115.95 81.65 Q121.65 70.45 131.0 65.85 139.75 61.55 145.95 65.5 149.0 67.45 150.45 71.75 151.85 76.0 151.2 80.9 149.6 92.6 139.15 97.15 140.95 100.75 139.3 105.2 137.55 109.95 132.7 112.85 128.1 115.6 122.1 115.1 115.5 114.6 111.85 110.2 110.55 108.6 111.4 107.1 116.95 98.2 115.1 85.85 114.85 83.8 115.95 81.65 M116.95 97.3 Q116.15 102.5 112.9 107.5 112.2 108.4 113.1 109.35 116.6 113.0 122.35 113.4 127.75 113.8 132.05 111.3 136.05 109.0 137.7 104.8 139.4 100.55 137.65 97.15 L137.5 96.65 137.9 96.3 Q147.6 92.25 149.35 81.15 150.05 76.55 148.9 72.6 147.75 68.6 145.1 66.85 139.25 63.0 130.8 67.85 122.4 72.65 117.3 82.5 116.5 84.05 116.65 85.8 117.6 92.75 116.95 97.3"/><path fill="#0d131a" d="M35.7 67.0 Q32.05 61.75 27.85 59.85 23.7 58.0 20.15 60.0 16.95 61.85 15.55 66.3 14.3 70.4 14.9 75.5 15.45 80.55 17.6 84.5 19.9 88.8 23.25 90.3 L23.75 90.85 23.25 91.4 Q21.05 92.35 20.0 94.45 18.95 96.45 19.2 99.15 19.8 105.15 25.35 108.25 30.7 111.3 35.95 109.2 L36.8 110.25 Q30.85 112.95 24.6 109.55 18.2 106.05 17.5 99.3 17.2 96.5 18.35 94.15 19.5 91.85 21.7 90.85 18.2 88.95 15.8 84.45 13.6 80.2 13.1 75.0 11.95 62.95 19.4 58.65 23.55 56.25 28.25 58.3 32.85 60.3 36.6 65.95 L35.7 67.0"/><path fill="#0d131a" d="M7.9 80.95 Q9.05 97.0 16.95 107.45 21.25 113.1 27.65 114.75 34.05 116.45 39.8 113.45 L40.75 114.6 Q35.35 117.85 28.0 116.35 20.2 114.75 15.5 108.65 7.35 97.85 6.05 81.0 4.7 63.2 12.8 53.5 18.95 46.15 28.15 48.1 37.25 50.05 43.75 59.85 L42.75 61.0 Q36.4 51.95 28.15 50.15 19.9 48.35 14.4 54.9 6.65 64.1 7.9 80.95"/><path fill="#0d131a" d="M80.1 104.75 Q80.65 103.95 81.05 104.15 81.45 104.35 81.0 105.2 78.6 109.9 70.6 110.45 62.7 111.05 57.3 107.25 L56.75 107.3 Q52.6 110.65 47.7 110.0 42.7 109.35 41.25 104.95 41.0 104.15 41.35 104.0 41.75 103.85 42.15 104.55 44.2 108.35 48.65 108.6 52.8 108.8 56.45 105.85 56.85 105.5 57.5 105.85 63.0 109.35 70.05 109.1 77.25 108.85 80.1 104.75"/><path fill="#0d131a" d="M57.75 93.2 Q57.75 93.85 56.3 93.8 54.85 93.75 54.85 93.1 54.85 92.45 56.3 92.5 57.75 92.55 57.75 93.2"/><path fill="#0d131a" d="M51.5 45.5 Q52.6 48.6 57.65 50.1 62.8 51.65 67.3 50.0 L64.25 51.95 Q59.95 52.85 55.5 50.95 50.95 49.0 50.0 45.8 L51.5 45.5"/><path fill="#0d131a" d="M45.55 20.55 Q41.0 21.9 38.8 26.85 36.4 32.25 38.95 38.35 40.85 42.85 46.25 44.4 51.85 46.0 56.75 43.05 L57.7 43.0 Q57.95 43.35 57.3 43.85 52.7 47.7 45.95 46.0 39.25 44.35 37.0 39.0 34.25 32.4 37.1 26.15 39.85 20.2 45.45 18.95 L45.55 20.55"/><path fill="#0d131a" d="M72.2 11.2 Q70.05 7.95 65.4 6.9 60.75 5.85 55.85 7.55 50.05 9.55 47.7 14.65 45.5 19.45 47.3 24.3 47.6 25.1 47.25 25.3 46.9 25.55 46.5 24.9 43.7 20.0 45.95 14.15 48.4 7.8 55.25 5.45 60.25 3.75 65.3 5.0 70.2 6.15 73.05 9.6 L72.2 11.2"/><path fill="#0d131a" d="M89.35 2.15 Q84.0 1.75 79.15 4.7 73.75 8.0 72.1 13.75 71.85 14.75 71.4 14.65 70.95 14.55 71.1 13.55 72.25 6.8 78.1 3.0 83.35 -0.4 89.5 0.05 95.95 0.55 100.2 4.15 104.5 7.75 105.15 13.45 105.25 14.4 104.85 14.5 104.45 14.55 104.15 13.65 102.4 8.25 98.95 5.5 95.35 2.6 89.35 2.15"/><path fill="#0d131a" d="M123.6 14.05 Q119.4 9.75 113.6 9.15 108.45 8.55 103.95 10.95 L103.35 9.45 Q108.15 6.75 114.1 7.3 120.65 7.95 125.1 12.5 129.3 16.75 130.0 22.4 130.75 28.45 127.05 33.35 126.5 34.05 126.15 33.8 125.8 33.55 126.25 32.75 129.0 27.35 128.05 22.3 127.2 17.7 123.6 14.05"/><path fill="#0d131a" d="M129.6 25.25 Q137.45 26.4 140.25 34.4 143.0 42.3 138.35 49.3 134.2 55.65 126.35 56.1 118.4 56.55 113.75 50.25 113.2 49.5 113.55 49.2 113.85 48.95 114.5 49.6 119.5 54.75 126.0 54.55 132.75 54.3 136.75 48.2 141.15 41.5 138.4 34.55 135.75 27.85 129.35 26.75 L129.6 25.25"/><path fill="#0d131a" d="M119.45 54.2 Q116.9 57.6 111.7 59.1 107.05 60.45 103.8 59.55 L101.3 57.15 Q106.1 59.1 111.55 57.4 116.05 55.95 118.0 53.4 L119.45 54.2"/><path fill="#0d131a" d="M74.9 30.5 Q71.75 37.25 63.3 38.45 54.85 39.65 50.5 33.9 49.95 33.2 50.3 32.9 50.6 32.6 51.25 33.25 55.8 37.95 63.05 36.85 70.5 35.7 73.65 29.15 L74.9 30.5"/><path fill="#0d131a" d="M86.0 35.6 Q76.25 34.8 72.35 28.0 71.95 27.3 72.3 27.05 72.7 26.8 73.2 27.45 77.4 32.9 86.3 33.65 95.25 34.4 100.85 29.65 101.55 29.05 101.9 29.4 102.2 29.75 101.55 30.4 95.7 36.3 86.0 35.6"/><path fill="#0d131a" d="M99.05 31.7 Q100.25 36.5 105.6 39.0 110.75 41.45 117.25 40.7 118.25 40.6 118.35 41.0 118.45 41.4 117.45 41.65 111.8 43.1 106.05 41.15 99.2 38.85 97.35 32.65 L99.05 31.7"/><path fill="#0d131a" d="M51.35 143.0 Q26.95 141.55 11.35 154.5 4.85 159.9 2.65 165.95 0.45 172.1 3.4 176.55 6.55 181.4 14.1 180.4 21.85 179.4 25.75 173.0 L26.85 174.45 Q22.75 181.2 14.2 182.2 5.65 183.2 1.95 177.45 -1.35 172.3 0.8 165.7 2.95 159.15 9.65 153.5 16.75 147.45 26.95 144.25 38.25 140.75 51.2 141.5 L52.55 141.45 53.4 140.8 66.4 124.6 67.7 124.85 54.55 141.95 Q53.5 143.2 51.35 143.0"/><path fill="#0d131a" d="M37.0 172.6 Q37.35 174.7 35.4 176.2 33.5 177.7 30.65 177.7 27.7 177.75 25.95 174.8 24.3 171.95 24.8 168.55 24.95 167.7 25.4 167.75 25.8 167.75 25.8 168.6 25.8 171.55 27.25 173.85 28.75 176.2 30.75 176.15 33.2 176.1 34.5 175.05 35.65 174.1 35.5 172.75 35.1 169.8 35.05 168.35 34.95 166.3 35.35 164.4 35.5 163.6 35.95 163.65 36.35 163.75 36.35 164.55 36.25 167.55 37.0 172.6"/><path fill="#0d131a" d="M71.3 131.35 L63.9 142.85 Q58.7 150.5 56.45 152.95 54.35 155.2 48.05 159.7 L35.85 168.0 35.7 165.9 47.4 158.05 Q53.35 153.9 55.3 151.8 57.7 149.2 63.25 141.2 68.5 133.65 70.8 129.7 L71.3 131.35"/><path fill="#0d131a" d="M64.1 141.05 Q64.0 138.4 62.45 136.95 60.85 135.5 58.5 136.0 L59.25 134.9 Q61.6 134.5 63.2 135.95 64.8 137.35 64.9 139.7 L64.1 141.05"/><path fill="#0d131a" d="M72.9 142.15 Q72.85 151.6 71.35 157.5 70.85 159.65 68.75 160.4 62.05 162.75 57.35 168.75 53.2 174.0 53.0 178.55 52.85 181.6 54.95 185.25 57.15 189.25 60.75 191.5 61.5 191.95 61.2 192.3 L60.25 192.35 Q56.2 190.5 53.5 186.25 50.95 182.15 51.2 178.5 51.6 172.75 56.3 167.2 61.15 161.5 68.25 159.0 69.6 158.45 69.85 157.1 71.2 150.9 71.45 142.0 71.7 132.0 69.95 129.2 69.45 128.4 69.85 128.15 70.3 127.85 70.8 128.65 72.95 131.75 72.9 142.15"/><path fill="#0d131a" d="M54.55 192.95 Q56.05 191.45 58.55 190.65 L59.75 191.65 Q57.6 192.05 55.95 193.55 54.4 194.95 54.4 196.0 54.45 197.3 56.45 198.2 58.4 199.1 61.15 199.1 63.4 199.1 66.15 198.2 69.25 197.15 70.45 195.7 71.35 194.6 71.2 193.3 71.05 192.3 70.3 191.45 68.45 189.4 67.75 185.7 67.05 182.1 68.15 181.0 70.75 178.4 76.4 174.7 L78.05 175.25 Q72.75 178.75 69.55 181.95 68.75 182.75 69.25 185.8 69.8 189.0 71.3 190.65 72.45 191.95 72.6 193.45 72.75 195.15 71.5 196.65 70.1 198.3 66.65 199.4 63.6 200.4 61.15 200.4 57.9 200.4 55.7 199.35 53.2 198.2 53.15 196.05 53.1 194.45 54.55 192.95"/><path fill="#0d131a" d="M60.8 197.5 Q60.8 199.1 62.0 199.1 L60.2 199.75 Q59.3 198.65 59.6 196.95 59.9 195.2 61.2 194.3 L62.0 194.15 Q62.25 194.45 61.7 194.95 60.8 195.95 60.8 197.5"/><path fill="#0d131a" d="M56.8 196.65 Q56.6 198.1 57.6 198.6 L55.7 198.5 Q55.2 197.1 55.75 195.75 56.25 194.45 57.6 193.6 L58.4 193.5 Q58.65 193.8 58.1 194.2 57.0 195.2 56.8 196.65"/><path fill="#0d131a" d="M75.2 173.75 Q77.8 174.9 83.45 175.45 L91.95 175.75 Q93.5 175.7 94.75 176.8 L99.9 181.6 Q103.45 185.1 104.0 185.95 L105.65 189.85 107.05 194.3 107.25 195.8 106.7 197.05 Q105.15 199.15 105.55 201.4 105.95 203.5 107.7 204.25 109.7 205.1 112.9 204.9 116.3 204.7 117.65 203.35 119.0 202.0 118.55 199.9 118.0 197.55 115.5 195.8 L116.25 194.95 Q119.35 196.85 119.95 199.8 120.5 202.65 118.55 204.45 116.85 206.0 112.7 206.2 109.0 206.35 107.1 205.55 104.6 204.45 104.2 201.6 103.85 198.9 105.6 196.45 106.1 195.75 105.8 194.6 L104.25 190.3 102.6 186.7 98.9 182.75 93.95 178.05 92.95 177.3 91.95 177.15 83.15 176.75 Q77.25 176.0 74.75 174.65 74.0 174.25 74.25 173.85 L75.2 173.75"/><path fill="#0d131a" d="M109.85 204.75 Q110.5 204.8 110.35 203.0 110.25 201.55 109.75 199.95 109.5 199.15 109.85 199.05 110.25 198.9 110.7 199.6 111.45 200.85 111.7 202.6 112.0 204.5 111.4 205.45 L109.85 204.75"/><path fill="#0d131a" d="M114.95 204.6 Q115.75 204.35 115.55 202.75 L114.75 199.65 Q114.45 198.9 114.8 198.7 115.15 198.55 115.65 199.2 116.5 200.4 116.75 202.05 117.05 203.55 116.75 204.85 L114.95 204.6"/><path fill="#0d131a" d="M96.6 134.25 Q98.95 138.65 100.95 146.6 103.0 154.7 102.9 159.4 108.9 162.35 112.85 166.55 115.25 169.05 117.9 173.45 121.45 179.1 120.35 186.85 119.25 194.6 114.55 196.95 L113.55 197.0 Q113.3 196.6 114.05 196.1 117.75 193.65 118.75 186.7 119.8 179.45 116.5 174.15 114.05 170.2 111.6 167.8 107.8 164.05 101.75 161.0 101.35 160.75 101.35 160.35 101.6 155.2 99.25 145.75 96.8 135.9 94.15 132.5 L96.6 134.25"/><path fill="#0d131a" d="M80.75 136.55 Q84.8 136.7 86.9 139.7 87.8 137.0 90.7 135.85 93.6 134.7 96.5 135.85 L96.95 136.85 91.4 137.0 Q88.6 138.15 87.7 140.45 L87.15 141.25 Q86.9 141.3 86.3 140.65 83.95 138.0 80.5 137.95 77.1 137.9 75.45 140.3 L75.0 140.7 74.55 140.3 Q73.7 139.2 72.15 138.25 L72.0 136.6 Q73.75 137.5 74.9 139.25 76.75 136.4 80.75 136.55"/><path fill="#0d131a" d="M178.8 163.95 Q170.8 178.95 151.4 184.05 134.15 188.55 119.85 183.3 L119.85 181.35 Q136.15 187.15 153.2 181.85 170.35 176.55 177.8 163.1 L178.8 163.95"/><path fill="#0d131a" d="M162.4 172.0 Q153.75 178.0 144.1 178.0 L144.6 176.3 Q153.7 176.2 161.7 170.7 168.45 166.05 171.4 160.0 171.9 159.0 172.3 159.2 172.7 159.35 172.3 160.4 170.15 166.65 162.4 172.0"/><path fill="#0d131a" d="M171.45 172.05 Q171.95 170.05 170.05 168.65 168.15 167.2 166.1 168.2 L167.15 167.1 Q169.3 166.5 170.95 167.8 172.55 169.1 172.35 171.1 L171.45 172.05"/><path fill="#0d131a" d="M168.9 147.25 Q165.05 146.75 162.3 148.7 159.4 150.75 159.05 154.7 158.75 158.85 161.6 161.9 164.5 165.0 168.95 165.05 L167.8 166.1 Q163.15 166.2 160.0 162.8 156.9 159.4 157.25 154.6 157.6 150.15 160.9 147.75 163.95 145.55 168.15 146.0 L168.9 147.25"/><path fill="#0d131a" d="M187.0 144.0 Q189.35 137.85 184.8 133.35 180.25 128.85 174.0 131.35 168.35 133.6 167.9 140.05 167.4 146.35 172.0 149.05 172.9 149.55 172.65 149.95 172.45 150.3 171.6 149.95 165.8 147.6 166.2 140.1 166.6 132.5 173.35 129.85 180.65 127.0 185.9 132.15 191.15 137.3 188.25 144.15 L187.0 144.0"/><path fill="#0d131a" d="M196.2 148.0 Q198.9 151.9 198.2 156.8 197.45 161.55 194.2 164.25 190.95 166.95 186.0 166.95 182.6 166.95 179.9 165.5 177.25 164.0 176.45 161.65 176.15 160.8 176.5 160.65 176.8 160.5 177.25 161.3 178.4 163.3 180.65 164.35 182.9 165.45 185.85 165.45 190.05 165.5 192.85 163.1 195.65 160.7 196.4 156.5 197.15 152.3 194.65 148.8 192.25 145.35 188.5 144.85 184.9 144.35 181.85 146.0 178.75 147.65 177.55 150.8 177.15 151.9 176.75 151.8 176.35 151.75 176.6 150.6 177.45 146.8 180.85 144.8 184.25 142.8 188.7 143.35 193.45 144.0 196.2 148.0"/><path fill="#0d131a" d="M102.35 98.55 Q104.85 103.9 103.0 110.1 101.8 114.2 98.35 117.6 94.95 120.9 89.85 123.1 L85.4 123.75 Q91.65 121.65 96.0 117.8 100.25 114.0 101.5 109.7 103.15 104.15 100.5 98.85 97.55 92.95 90.45 90.25 87.7 89.2 84.25 87.45 79.4 84.95 76.85 82.7 71.8 78.3 68.05 72.85 64.7 67.95 60.35 68.0 56.1 68.05 53.1 72.55 47.65 80.8 45.85 85.9 45.1 87.9 43.25 90.0 41.4 92.1 39.65 92.95 31.7 96.9 33.95 105.95 L31.8 102.8 Q31.4 99.15 33.1 96.4 34.75 93.65 38.75 91.55 40.5 90.65 42.15 89.0 43.95 87.2 44.6 85.45 46.6 80.0 52.0 71.8 55.95 65.85 61.1 66.35 65.7 66.75 69.55 72.0 L73.1 76.65 Q75.3 79.3 77.8 81.5 80.2 83.6 84.85 86.15 88.8 88.3 91.35 89.25 99.45 92.35 102.35 98.55"/><path fill="#fcd25b" d="M102.9 130.45 Q107.8 135.15 111.45 137.75 114.1 139.75 115.4 139.8 123.25 140.25 132.3 147.75 143.6 157.1 144.75 170.5 145.3 176.75 143.0 181.15 140.25 186.4 134.35 186.45 128.95 186.5 125.3 183.35 121.5 180.1 120.75 174.5 119.35 177.25 116.7 178.05 114.3 178.8 112.15 177.65 110.85 176.95 110.75 175.05 110.65 173.25 111.6 172.0 112.5 170.85 113.45 168.55 114.4 166.1 114.95 163.55 115.5 161.05 113.65 155.05 111.95 149.45 110.35 147.3 107.3 143.3 97.45 134.95 97.4 132.8 99.2 131.5 100.85 130.35 102.9 130.45"/><path fill="#ffffff" d="M38.4 96.4 Q35.2 96.35 34.0 90.7 33.1 86.4 33.55 80.3 33.85 75.55 36.85 70.6 39.95 65.5 42.75 65.85 46.1 66.25 47.1 71.0 47.85 74.75 47.3 81.8 46.85 86.95 44.5 91.4 41.85 96.45 38.4 96.4"/><path fill="#ffffff" d="M86.45 62.35 Q90.35 62.4 93.35 66.75 96.6 71.4 96.8 78.65 97.05 85.5 94.1 90.35 91.0 95.55 85.75 95.6 80.8 95.65 78.15 91.65 75.8 87.95 75.15 80.6 74.6 74.0 77.45 68.55 80.65 62.35 86.45 62.35"/><path fill="#d9b64f" d="M111.5 172.2 Q110.55 174.55 114.45 175.4 118.45 176.2 120.85 173.75 120.4 176.25 117.45 177.6 114.75 178.8 112.8 178.05 111.05 177.35 110.65 175.5 110.25 173.65 111.5 172.2"/><path fill="#d9b64f" d="M127.5 184.6 Q122.35 181.55 120.9 174.05 123.6 178.75 127.95 181.05 132.0 183.2 136.0 182.55 140.05 181.85 142.35 178.45 144.8 174.7 144.25 168.75 145.15 175.5 143.1 180.45 140.75 186.15 135.4 186.45 130.95 186.7 127.5 184.6"/><path fill="#0d131a" d="M93.35 121.9 Q107.95 132.95 112.35 137.0 L113.75 138.2 Q114.45 138.7 115.6 138.9 123.1 140.25 129.45 144.45 135.65 148.5 140.1 154.85 145.4 162.35 145.6 172.35 145.75 182.8 139.75 186.05 134.0 189.2 127.4 185.65 120.9 182.15 120.35 175.95 118.3 179.25 114.15 179.1 111.1 179.05 110.1 176.6 109.15 174.3 110.5 172.45 111.6 170.9 112.65 168.15 L114.05 163.6 Q114.55 161.2 113.1 156.0 111.8 151.2 110.1 148.3 108.85 146.1 102.4 140.25 96.7 135.15 90.1 129.9 89.15 129.15 89.45 128.75 89.75 128.4 90.7 129.1 95.8 132.8 102.15 138.25 109.9 144.95 111.5 147.7 113.25 150.75 114.6 155.85 116.05 161.3 115.5 163.85 L114.05 168.7 Q112.9 171.55 111.7 173.2 110.75 174.55 111.5 176.05 112.3 177.6 114.2 177.65 118.3 177.8 120.3 173.75 120.55 173.2 120.9 173.3 121.25 173.35 121.25 173.95 121.4 180.0 127.6 183.75 133.85 187.55 139.05 184.35 144.2 181.2 143.8 171.6 143.4 162.45 138.65 155.7 129.6 142.9 115.4 140.35 L113.15 139.6 111.55 138.35 101.6 130.0 Q95.3 124.85 92.0 122.45 L93.35 121.9"/><path fill="#0d131a" d="M103.65 131.1 Q101.1 130.75 99.4 132.25 97.75 133.7 98.2 135.5 L97.0 134.6 Q96.7 132.55 98.35 131.2 100.0 129.8 102.55 130.0 L103.65 131.1"/><path fill="#0d131a" d="M36.15 70.1 Q39.35 64.9 42.7 65.15 46.0 65.4 47.4 69.9 48.85 74.5 47.95 82.3 47.2 89.0 44.3 93.2 41.5 97.2 38.35 96.95 35.2 96.65 33.55 92.15 31.75 87.45 32.6 80.3 33.2 74.9 36.15 70.1 M38.4 95.6 Q41.0 95.75 43.2 92.35 45.55 88.6 46.3 82.15 47.15 74.7 46.0 70.45 44.95 66.6 42.6 66.45 39.95 66.3 37.25 71.25 34.8 75.8 34.25 80.45 33.5 86.95 34.75 91.3 35.95 95.5 38.4 95.6"/><path fill="#0d131a" d="M33.85 81.6 Q35.85 75.0 40.75 75.4 45.55 75.75 47.3 81.65 L47.2 84.05 Q44.8 76.85 40.55 76.6 36.25 76.35 33.65 83.6 L33.85 81.6"/><path fill="#0d131a" d="M84.95 96.25 Q80.15 96.1 77.2 91.4 74.05 86.4 74.35 78.15 74.65 70.55 78.1 65.95 81.5 61.35 86.6 61.7 91.45 62.05 94.65 67.1 97.8 72.1 97.7 79.1 97.55 87.15 94.15 91.8 90.7 96.45 84.95 96.25 M86.65 63.0 Q82.45 62.7 79.5 66.7 76.4 70.95 76.1 78.2 75.85 85.55 78.4 90.15 80.8 94.6 84.85 94.8 90.05 95.05 93.0 90.75 95.9 86.6 96.0 79.05 96.1 72.6 93.45 67.95 90.75 63.3 86.65 63.0"/><path fill="#0d131a" d="M95.75 85.7 Q93.6 76.85 86.15 76.05 78.7 75.3 75.5 83.55 L75.2 81.6 Q76.75 77.9 79.85 76.0 82.8 74.2 86.2 74.55 94.05 75.25 96.25 83.8 L95.75 85.7"/></g></svg>