<?xml version='1.0' encoding='utf-8'?>
<svg xmlns="http://www.w3.org/2000/svg" version="1.1" width="349px" height="278px" viewBox="-1.5 -6.0 349.05 277.8"><g><path fill="#b6aed2" d="M84.55 225.0 L87.3 237.65 74.3 250.5 Q63.4 261.3 62.3 260.75 61.1 260.15 66.0 245.9 70.6 232.7 72.5 229.1 L84.55 225.0"/><path fill="#595857" d="M70.5 241.95 Q69.9 240.1 69.45 236.3 71.5 230.85 72.25 229.45 L76.75 227.9 Q79.15 233.15 84.25 240.6 L75.05 249.7 Q71.85 246.35 70.5 241.95"/><path fill="#b6aed2" d="M37.95 171.15 Q45.05 161.7 48.0 158.5 L58.15 160.15 54.95 180.25 53.85 181.35 50.3 185.6 Q48.7 187.7 48.7 192.6 48.7 198.3 47.05 202.0 45.15 206.35 32.05 216.35 20.5 225.15 9.8 231.4 2.3 235.8 1.45 234.95 0.5 234.05 4.5 225.4 12.25 208.55 21.15 195.05 29.2 182.85 37.95 171.15"/><path fill="#595857" d="M21.15 195.05 L23.9 190.9 Q23.7 195.7 25.0 204.1 26.65 215.25 29.8 218.05 L19.0 225.65 Q16.9 221.55 15.5 215.35 14.25 209.95 14.2 206.45 17.5 200.7 21.15 195.05"/><path fill="#595857" d="M34.05 193.15 Q33.3 185.1 33.65 177.0 41.15 166.65 45.85 161.0 43.8 181.05 48.7 191.25 L48.55 196.1 Q48.3 199.2 47.05 202.0 45.7 205.1 38.7 211.0 35.2 205.7 34.05 193.15"/><path fill="#b6aed2" d="M160.25 255.85 L161.1 266.8 Q161.35 269.8 160.55 270.3 159.9 270.7 157.15 269.85 149.4 267.55 142.05 262.65 137.2 259.4 133.9 256.1 L146.6 251.05 160.25 255.85"/><path fill="#b6aed2" d="M253.45 227.05 Q245.9 231.8 235.85 232.55 233.15 232.8 225.05 232.35 L231.9 215.85 246.05 207.45 Q246.8 209.1 254.7 221.05 256.4 223.6 256.05 224.75 255.8 225.6 253.45 227.05"/><path fill="#b6aed2" d="M248.05 47.45 L256.85 44.7 259.95 44.5 Q260.95 45.15 260.65 48.35 259.45 62.65 253.7 72.15 L243.15 70.15 237.95 53.8 248.05 47.45"/><path fill="#b6aed2" d="M92.5 38.75 L86.2 57.3 69.7 62.9 Q66.65 58.25 60.0 51.35 57.5 48.75 57.35 47.75 57.0 45.75 60.75 43.4 65.6 40.4 76.25 39.2 84.85 38.25 92.5 38.75"/><path fill="#b6aed2" d="M330.55 79.3 Q321.0 91.9 308.05 105.6 293.45 121.0 282.6 131.4 267.05 146.35 263.65 146.65 262.4 146.75 262.0 139.1 261.7 132.05 262.3 127.35 262.75 123.8 264.2 122.1 265.0 121.2 267.0 120.2 L272.15 117.25 Q275.95 114.85 276.4 114.1 L279.65 104.85 Q282.6 96.1 283.6 94.85 286.15 91.65 291.25 87.8 295.5 84.6 304.9 78.45 324.6 65.6 337.65 57.65 343.7 53.95 344.7 54.5 345.85 55.1 342.25 61.7 338.1 69.35 330.55 79.3"/><path fill="#595857" d="M283.6 94.85 Q285.6 92.35 288.3 90.15 286.0 115.1 289.9 124.25 L279.85 134.05 Q277.25 130.05 276.5 123.4 276.0 119.1 276.35 114.2 L276.4 114.1 279.65 104.85 Q282.6 96.1 283.6 94.85"/><path fill="#595857" d="M301.05 81.0 L314.65 72.15 Q314.0 77.55 314.15 83.65 314.4 92.1 316.35 96.55 L304.9 108.9 Q301.55 104.35 300.9 94.35 300.45 88.25 301.05 81.0"/><path fill="#b6aed2" d="M250.25 64.9 Q256.45 76.8 256.85 87.05 264.55 94.2 269.0 102.9 273.75 112.25 274.35 122.75 275.55 142.9 269.3 157.9 264.35 169.8 256.0 176.1 250.25 209.35 228.75 228.8 212.55 243.5 192.35 247.05 L185.45 247.85 Q173.1 254.9 153.4 256.5 125.15 258.75 100.15 245.4 79.35 234.3 68.15 216.9 58.65 202.2 57.45 185.45 40.9 151.15 48.5 114.25 51.25 100.95 56.5 90.5 61.1 81.45 64.45 79.75 63.9 74.25 67.95 66.85 72.5 58.55 83.25 47.0 96.35 33.0 116.2 25.85 132.5 20.0 146.45 20.6 151.8 18.0 158.3 16.25 179.75 10.85 209.25 26.05 220.1 31.7 229.45 38.8 237.65 45.1 240.3 49.0 247.6 59.75 250.25 64.9"/><path fill="#b6aed2" d="M175.05 50.95 Q168.9 44.3 153.95 35.0 L151.95 33.45 Q151.55 32.55 152.2 29.8 154.7 18.65 155.7 7.15 156.0 4.1 157.0 3.6 158.05 3.05 160.7 5.0 171.55 13.1 176.0 26.0 180.5 38.95 178.75 49.95 178.35 52.65 177.3 52.65 176.6 52.6 175.05 50.95"/><path fill="#b6aed2" d="M92.4 215.3 Q93.5 215.65 93.6 216.6 93.7 217.45 92.95 218.2 87.75 223.5 80.65 233.9 79.4 235.7 78.55 235.6 78.0 235.55 76.85 234.2 70.35 226.6 67.6 216.15 65.7 208.9 65.8 201.2 65.85 197.7 67.15 198.05 L69.5 200.1 Q73.8 204.55 78.95 208.2 85.65 212.95 92.4 215.3"/><path fill="#b6aed2" d="M176.0 186.0 L188.25 201.95 Q189.15 203.15 188.75 204.1 188.45 204.85 187.15 205.6 173.9 213.05 160.65 213.8 151.5 214.3 143.55 211.65 140.9 210.8 140.85 209.95 140.8 209.1 143.35 207.8 151.1 203.9 159.9 196.5 L171.85 185.5 Q173.15 184.25 173.65 184.2 174.6 184.05 176.0 186.0"/><path fill="#595857" d="M167.2 137.6 Q163.55 148.4 156.65 158.6 149.4 169.4 140.2 176.85 118.35 194.65 95.7 186.95 73.1 179.3 66.9 151.4 64.25 139.7 65.15 126.5 66.0 114.1 69.7 103.2 73.4 92.35 80.3 81.95 87.65 70.9 96.85 63.25 118.85 44.9 141.25 52.45 163.6 60.05 169.9 88.75 172.55 100.7 171.65 114.15 170.85 126.8 167.2 137.6"/><path fill="#0f141b" d="M115.35 74.1 L125.35 82.25 Q136.55 91.0 142.65 94.3 L140.1 105.6 Q137.85 119.05 139.25 129.8 133.65 134.0 127.0 139.85 113.75 151.55 108.6 159.75 105.55 155.55 95.55 146.15 L86.15 137.65 88.4 104.75 Q94.7 98.9 105.65 85.9 L115.35 74.1"/><path fill="#fabe00" d="M139.25 92.3 L142.65 94.3 140.1 105.6 Q137.85 119.05 139.25 129.8 L131.65 135.9 Q122.85 143.25 116.7 149.7 108.6 145.35 106.55 133.95 104.8 124.05 108.1 114.4 111.6 104.05 119.9 97.1 129.5 89.05 139.25 92.3"/><path fill="#b6aed2" d="M125.65 93.35 Q132.55 90.1 139.25 92.3 L142.65 94.3 140.85 101.75 Q138.95 110.85 138.75 119.2 134.75 115.55 125.85 109.6 118.7 104.85 114.6 102.6 119.65 96.2 125.65 93.35"/><path fill="#0f141b" d="M132.4 114.05 L121.15 128.75 Q119.5 131.0 118.5 130.4 117.85 130.0 117.4 128.05 115.85 121.95 116.65 112.5 L117.75 104.3 123.85 108.2 Q130.35 112.45 132.4 114.05"/><path fill="#ba004f" d="M211.8 100.2 Q216.85 88.55 227.25 86.9 237.8 85.3 245.8 94.3 252.95 102.4 254.65 114.3 256.25 125.85 252.35 135.5 247.65 147.2 236.75 148.3 226.15 149.4 217.95 140.25 210.8 132.2 209.1 121.35 207.4 110.35 211.8 100.2"/><path fill="#ba004f" d="M224.85 196.0 Q230.45 203.3 225.85 214.15 221.9 223.5 213.5 230.0 205.05 236.5 195.0 237.9 183.3 239.6 177.7 232.25 174.05 227.55 174.75 221.1 175.35 215.45 179.1 209.35 L183.3 207.9 Q186.85 206.5 188.15 205.25 189.4 204.0 188.4 202.5 186.95 200.45 186.95 200.2 186.9 199.5 187.75 199.0 L189.1 198.25 Q197.55 191.75 207.6 190.3 219.25 188.7 224.85 196.0"/><path fill="#b6aed2" d="M207.6 223.15 Q203.35 226.4 198.4 227.3 192.65 228.3 190.0 224.9 187.4 221.5 189.85 216.2 191.95 211.65 196.25 208.35 200.5 205.1 205.5 204.2 211.25 203.2 213.85 206.6 216.45 210.0 214.0 215.3 211.85 219.9 207.6 223.15"/><path fill="#b6aed2" d="M239.35 105.4 Q242.3 109.25 243.2 114.9 244.05 120.65 242.45 125.55 240.45 131.55 235.4 132.35 230.3 133.15 226.6 128.35 223.55 124.4 222.65 118.75 221.8 113.1 223.55 108.15 225.65 102.25 230.65 101.45 235.7 100.65 239.35 105.4"/><path fill="#b6aed2" d="M100.15 245.4 L96.05 243.05 Q98.45 241.85 102.6 242.55 106.2 243.15 109.55 244.85 112.0 246.15 114.55 248.4 117.2 250.75 118.45 252.9 109.0 250.15 100.15 245.4"/><path fill="#ba004f" d="M109.55 244.85 Q106.2 243.15 102.6 242.55 98.45 241.85 96.05 243.05 90.7 239.9 86.25 236.4 89.8 231.2 99.05 231.7 106.8 232.1 114.55 235.85 121.3 239.1 126.3 244.4 132.05 250.4 132.15 255.9 124.9 254.85 118.45 252.9 117.2 250.75 114.55 248.4 112.0 246.15 109.55 244.85"/><path fill="#b6aed2" d="M219.5 31.95 Q220.6 34.15 220.65 36.05 220.75 37.95 219.85 39.15 217.8 41.85 212.75 40.75 208.35 39.8 204.5 36.85 200.6 33.95 198.5 30.05 196.0 25.55 198.0 22.8 L199.4 21.5 Q209.65 25.75 219.5 31.95"/><path fill="#ba004f" d="M219.85 39.15 Q220.75 37.95 220.65 36.05 220.6 34.15 219.5 31.95 228.0 37.25 234.3 42.8 235.15 47.0 233.15 50.3 229.4 56.6 218.2 55.35 208.5 54.25 199.4 48.8 190.25 43.3 184.75 35.35 178.3 26.1 182.1 19.7 182.9 18.4 184.8 16.8 192.05 18.5 199.4 21.5 L198.0 22.8 Q196.0 25.55 198.5 30.05 200.6 33.95 204.5 36.85 208.35 39.8 212.75 40.75 217.8 41.85 219.85 39.15"/><path fill="#b6aed2" d="M254.3 35.35 Q246.35 53.3 237.6 67.45 226.1 86.25 212.15 106.2 195.7 129.75 192.95 129.6 190.25 129.45 188.6 119.95 187.15 111.85 187.35 104.05 187.5 98.2 189.1 95.05 190.2 92.8 192.95 90.55 194.55 89.35 200.3 85.65 205.3 82.2 205.3 80.25 205.3 76.85 205.9 71.95 206.7 65.5 208.0 62.1 209.4 58.55 228.4 37.4 247.45 16.1 258.4 5.95 264.2 0.55 265.2 2.0 265.85 2.95 264.25 8.85 261.35 19.4 254.3 35.35"/><path fill="#595857" d="M215.25 52.45 Q214.05 62.35 214.25 72.65 214.55 89.6 219.05 96.1 212.7 105.6 207.35 112.95 204.65 108.45 203.2 98.2 201.85 88.8 202.6 83.95 205.3 81.75 205.3 80.25 205.3 76.85 205.9 71.95 206.7 65.5 208.0 62.1 208.75 60.25 215.25 52.45"/><path fill="#595857" d="M242.5 22.0 Q241.5 27.9 242.0 34.75 242.75 44.55 246.75 51.15 241.85 60.6 237.6 67.45 L234.45 72.55 Q230.05 67.7 228.8 54.75 228.15 48.2 228.4 37.35 L242.5 22.0"/><path fill="#9b94b4" d="M147.0 239.95 Q165.45 249.3 182.75 248.45 171.95 255.95 151.1 257.05 144.6 257.35 137.9 257.0 L132.45 256.6 Q129.95 240.05 104.6 232.45 95.25 229.65 89.6 233.05 86.8 234.8 85.85 237.05 L81.75 233.1 Q84.4 227.5 89.45 222.25 L94.0 218.1 Q101.9 222.6 111.4 225.6 119.6 228.15 132.0 230.4 L136.05 233.4 Q141.25 237.0 147.0 239.95"/><path fill="#9b94b4" d="M59.8 187.7 Q62.25 194.2 66.5 198.5 L66.05 199.3 Q65.6 200.7 65.6 203.6 65.6 208.3 66.25 214.45 59.5 204.75 57.6 190.85 57.0 186.55 56.95 182.3 L57.0 178.9 59.8 187.7"/><path fill="#9b94b4" d="M108.95 244.6 Q113.4 247.35 115.35 249.25 117.25 251.05 118.1 253.45 113.6 252.05 108.6 250.05 98.6 246.1 96.1 243.3 L100.3 242.6 Q105.2 242.3 108.95 244.6"/><path fill="#9a003f" d="M85.85 237.05 L87.2 235.45 Q89.1 233.7 91.75 232.7 100.35 229.5 113.65 235.35 125.1 239.85 129.7 248.65 132.05 253.05 132.05 256.55 L118.55 254.3 Q117.95 252.65 116.4 250.6 113.25 246.45 108.35 244.3 103.4 242.1 98.9 242.65 L95.4 243.65 89.4 239.65 85.85 237.05"/><path fill="#9b94b4" d="M255.4 177.35 Q253.55 199.9 238.0 219.95 220.25 242.95 194.05 247.5 170.5 251.55 146.75 239.7 139.3 236.0 132.75 231.15 L127.7 227.05 Q134.35 229.1 144.25 229.65 159.1 230.45 174.3 226.85 L175.1 228.65 Q176.2 230.8 177.7 232.6 182.55 238.35 189.75 238.2 199.2 238.1 207.5 233.95 217.0 229.2 222.95 220.0 228.2 211.8 228.3 204.9 228.35 202.75 227.85 201.0 L227.35 199.65 Q235.3 193.05 240.65 186.2 243.35 182.75 244.45 180.65 L248.7 180.1 Q253.35 179.2 255.4 177.35"/><path fill="#9a003f" d="M227.35 199.65 L227.85 204.2 Q227.9 209.8 225.5 214.85 221.85 222.65 216.1 228.1 208.15 235.6 196.65 238.05 185.9 240.3 179.05 233.8 176.9 231.75 175.35 229.1 L174.3 226.85 Q181.4 225.15 188.5 222.45 L189.4 224.0 Q190.7 225.8 192.5 226.7 198.35 229.7 207.45 223.25 213.05 219.15 214.55 213.55 L214.95 208.8 Q222.25 204.0 227.35 199.65"/><path fill="#9b94b4" d="M214.95 208.8 L215.1 210.15 Q215.2 211.85 214.65 213.7 213.0 219.5 206.1 224.1 197.9 229.15 192.4 226.3 190.65 225.4 189.4 223.85 L188.5 222.45 Q194.2 220.25 199.2 217.75 207.65 213.55 214.95 208.8"/><path fill="#9b94b4" d="M274.6 139.75 Q274.6 150.0 267.95 162.3 261.7 173.85 255.4 177.35 250.5 180.1 243.2 181.0 L236.85 181.3 Q247.0 177.5 255.85 162.45 260.0 155.4 263.55 146.1 L264.3 146.3 Q265.5 146.2 267.55 144.8 L274.6 139.75"/><path fill="#9b94b4" d="M68.65 238.45 L69.5 236.45 Q69.5 240.0 72.45 245.05 73.95 247.6 75.4 249.4 63.8 260.65 62.45 260.3 61.6 260.1 65.05 249.25 L68.65 238.45"/><path fill="#9b94b4" d="M81.6 232.4 L86.8 237.65 85.1 240.3 Q83.85 239.35 82.2 236.65 L80.75 234.1 81.6 232.4"/><path fill="#3f3b3a" d="M72.35 228.55 Q77.4 235.65 78.15 235.65 78.9 235.65 80.65 233.55 81.05 236.25 84.5 240.5 L75.85 249.35 Q72.35 246.95 70.6 241.45 L69.5 236.45 72.35 228.55"/><path fill="#9b94b4" d="M160.65 256.1 Q161.25 268.65 160.5 270.0 157.6 271.8 145.75 264.8 L134.45 257.45 143.75 257.95 Q154.3 258.05 160.65 256.1"/><path fill="#9b94b4" d="M255.2 225.55 Q254.7 226.55 252.95 227.8 249.5 230.25 243.55 231.55 237.6 232.85 230.7 232.95 L225.05 232.8 Q230.75 229.7 237.2 221.3 240.45 217.1 242.5 213.5 L246.6 217.9 Q251.4 222.85 255.2 225.55"/><path fill="#3f3b3a" d="M219.55 96.3 L207.2 112.85 204.75 107.65 216.4 91.85 219.55 96.3"/><path fill="#9b94b4" d="M235.05 72.6 L228.95 82.6 Q226.1 87.3 219.55 96.3 L216.4 91.85 Q223.6 81.7 231.85 69.05 L235.05 72.6"/><path fill="#3f3b3a" d="M245.05 48.3 L247.15 51.05 Q242.1 60.7 235.05 72.6 L231.85 69.05 245.05 48.3"/><path fill="#9b94b4" d="M245.05 48.3 L257.25 27.95 Q254.9 36.15 247.15 51.05 L245.05 48.3"/><path fill="#9b94b4" d="M207.2 112.85 Q195.1 128.45 193.6 129.3 192.15 130.1 190.9 127.45 L189.95 124.6 Q195.85 119.05 204.75 107.65 L207.2 112.85"/><path fill="#3f3b3a" d="M288.2 119.75 L290.05 124.55 279.7 134.35 277.5 129.35 288.2 119.75"/><path fill="#9b94b4" d="M290.05 124.55 L288.2 119.75 303.15 105.5 305.75 109.2 290.05 124.55"/><path fill="#3f3b3a" d="M315.2 93.45 L316.65 97.55 312.6 101.95 305.75 109.2 303.15 105.5 315.2 93.45"/><path fill="#9b94b4" d="M316.65 97.55 L315.2 93.45 335.6 72.3 Q325.6 87.25 316.65 97.55"/><path fill="#9b94b4" d="M279.7 134.35 Q270.1 143.2 267.55 144.8 263.95 147.0 262.65 144.5 L262.1 141.6 Q268.5 137.15 277.5 129.35 L279.7 134.35"/><path fill="#9b94b4" d="M260.75 49.75 Q260.45 53.85 259.25 58.4 257.4 65.75 254.0 72.15 L250.8 66.7 Q254.0 62.05 256.85 56.7 260.4 50.0 260.8 46.55 L260.75 49.75"/><path fill="#9b94b4" d="M57.55 48.15 L57.35 46.65 61.75 49.05 Q67.35 52.6 73.5 58.15 L70.0 63.55 Q62.25 54.15 59.65 51.6 58.05 50.0 57.55 48.15"/><path fill="#9b94b4" d="M19.2 226.05 L18.3 226.6 Q7.65 233.9 3.5 234.95 1.4 235.5 1.45 234.55 L17.45 222.45 19.2 226.05"/><path fill="#9b94b4" d="M48.8 191.25 L45.8 183.8 Q47.2 181.0 49.45 178.25 51.4 175.85 52.95 174.65 L55.05 180.5 52.3 183.7 Q49.45 187.4 49.0 189.85 L48.8 191.25"/><path fill="#3f3b3a" d="M43.5 197.05 Q44.05 195.05 44.05 189.85 44.05 187.2 45.8 183.8 L48.8 191.25 48.5 197.75 Q48.05 201.85 45.95 204.6 44.35 206.65 39.0 211.25 L36.45 207.05 38.9 204.6 Q42.55 200.45 43.5 197.05"/><path fill="#9b94b4" d="M39.0 211.25 L29.75 218.6 27.35 214.65 36.45 207.05 39.0 211.25"/><path fill="#3f3b3a" d="M29.75 218.6 Q23.4 223.4 19.2 226.05 L17.45 222.45 27.35 214.65 29.75 218.6"/><path fill="#9b94b4" d="M124.85 93.7 Q129.7 90.35 136.5 91.8 139.9 92.5 142.3 93.9 140.35 100.1 139.25 110.3 138.7 115.45 138.55 119.3 134.85 115.1 124.2 108.3 L114.35 102.4 116.7 100.05 Q120.0 97.05 124.85 93.7"/><path fill="#9b94b4" d="M58.35 171.55 L56.8 182.7 Q50.8 172.5 48.4 160.75 L47.4 152.65 Q48.05 155.05 50.5 159.95 54.4 167.75 58.35 171.55"/><path fill="#0f141b" d="M171.4 85.45 Q178.1 110.5 169.1 137.1 159.65 165.0 138.2 180.35 116.4 195.95 95.4 188.85 71.55 180.75 65.15 151.45 62.55 139.45 63.5 125.95 64.35 113.5 67.9 103.0 77.5 74.6 98.9 59.3 120.45 43.95 141.6 50.85 164.05 58.2 171.4 85.45 M166.4 136.0 Q170.2 124.8 170.8 112.1 171.45 99.1 168.55 87.45 161.9 60.4 140.95 53.3 131.75 50.2 121.25 52.3 111.0 54.35 101.2 61.1 79.85 75.75 70.45 103.5 61.65 129.6 68.3 153.7 75.3 179.2 95.95 186.2 105.4 189.4 115.9 187.25 126.2 185.2 135.95 178.4 157.0 163.75 166.4 136.0"/><path fill="#0f141b" d="M242.4 92.3 Q234.1 85.7 225.2 88.25 L225.7 86.4 Q234.2 83.8 243.25 90.3 253.9 97.95 256.15 114.1 257.9 126.85 253.6 136.7 248.5 148.25 236.8 149.5 224.3 150.8 215.2 139.45 206.25 128.15 207.4 113.0 L210.05 109.45 Q207.75 124.2 215.8 136.35 224.1 148.8 236.6 147.5 246.35 146.5 251.05 136.85 255.6 127.65 253.75 114.45 251.7 99.65 242.4 92.3"/><path fill="#0f141b" d="M224.15 196.55 Q219.1 190.0 208.1 191.1 196.85 192.2 187.35 200.8 L186.0 198.95 Q195.45 190.5 207.25 189.05 219.65 187.55 225.65 195.35 230.7 201.9 227.7 212.45 224.55 223.55 214.3 231.0 203.3 239.0 192.35 239.35 181.8 239.6 176.55 232.8 172.75 227.8 173.35 220.95 173.85 215.15 177.0 210.35 L180.05 209.4 Q176.05 214.25 175.5 220.75 174.9 227.35 178.3 231.75 183.8 238.9 195.15 237.1 204.8 235.6 212.95 229.35 223.65 221.15 226.1 210.55 228.15 201.7 224.15 196.55"/><path fill="#0f141b" d="M207.05 222.5 Q212.15 218.6 213.7 213.85 215.05 209.65 213.15 207.15 211.2 204.6 206.65 204.9 201.7 205.25 196.75 209.05 191.35 213.2 190.05 218.15 188.95 222.15 190.65 224.4 193.0 227.45 198.35 226.45 203.05 225.6 207.05 222.5 M207.15 203.2 Q212.25 203.2 214.5 206.1 216.95 209.3 215.25 214.65 213.5 220.2 208.35 224.2 204.0 227.55 198.55 228.35 192.25 229.25 189.3 225.45 186.85 222.25 188.55 216.95 190.35 211.5 195.55 207.5 201.2 203.15 207.15 203.2"/><path fill="#0f141b" d="M181.3 30.8 Q179.65 26.0 180.4 22.05 181.2 18.15 184.2 16.2 184.5 16.0 185.15 16.7 185.75 17.4 185.45 17.6 182.9 19.2 182.35 22.6 181.75 26.1 183.35 30.4 187.2 40.55 199.8 48.1 206.05 51.9 213.6 53.7 L211.95 55.5 Q204.45 53.55 198.4 49.9 185.15 42.0 181.3 30.8"/><path fill="#0f141b" d="M219.75 35.45 Q219.45 33.7 218.55 32.2 218.35 31.9 219.15 31.95 219.95 31.95 220.15 32.25 222.65 36.75 220.5 39.7 218.45 42.4 213.45 41.85 208.55 41.3 203.7 37.9 197.95 33.85 196.5 28.4 195.1 23.2 198.6 21.0 198.9 20.8 199.45 21.55 200.0 22.3 199.65 22.45 197.65 23.2 198.35 27.15 199.25 32.0 205.0 36.35 208.85 39.25 213.1 40.0 217.55 40.85 219.1 38.7 220.05 37.5 219.75 35.45"/><path fill="#0f141b" d="M85.45 235.65 Q88.9 230.4 98.15 230.6 106.5 230.75 115.1 234.95 123.8 239.2 128.8 245.45 133.2 251.1 133.05 255.95 133.05 256.3 132.15 256.25 131.2 256.2 131.25 255.85 131.4 251.05 126.0 245.3 121.0 239.95 114.15 236.65 106.85 233.1 99.25 232.6 90.2 231.95 87.15 236.6 L86.1 236.45 Q85.25 235.95 85.45 235.65"/><path fill="#0f141b" d="M95.7 242.75 Q97.65 241.3 101.6 241.4 105.95 241.55 110.1 243.65 112.8 245.05 115.25 247.45 118.0 250.1 118.75 252.45 118.85 252.8 118.2 253.1 L117.4 253.05 Q114.55 247.5 107.55 244.7 100.95 242.05 96.5 243.85 96.2 243.95 95.8 243.45 95.45 242.95 95.7 242.75"/><path fill="#0f141b" d="M230.8 102.35 Q226.6 103.0 224.55 108.3 222.65 113.15 223.5 118.65 224.3 123.95 227.1 127.7 230.5 132.3 235.25 131.55 239.9 130.85 241.7 125.1 243.2 120.4 242.35 115.05 241.25 108.05 237.55 104.65 234.4 101.8 230.8 102.35 M230.5 100.65 Q235.35 99.9 239.25 103.65 243.35 107.55 244.5 114.8 245.65 122.1 242.95 127.45 240.35 132.65 235.5 133.4 230.5 134.15 226.3 129.65 222.35 125.4 221.4 119.25 220.4 112.95 222.55 107.65 225.0 101.5 230.5 100.65"/><path fill="#0f141b" d="M115.45 75.65 Q110.7 81.65 103.15 90.2 L89.5 105.2 Q89.65 111.1 88.95 120.65 88.2 130.75 87.0 137.35 91.6 140.55 96.9 145.3 103.75 151.45 108.55 157.45 112.6 151.4 122.75 141.95 131.95 133.35 137.8 129.45 137.05 108.55 140.75 94.75 130.3 88.75 115.45 75.65 M115.0 72.05 Q115.15 71.85 115.85 72.95 118.8 75.95 127.85 82.9 137.85 90.5 143.0 93.3 143.65 93.65 143.4 94.3 141.55 100.4 140.5 113.15 139.5 125.1 140.1 129.75 L139.75 130.55 Q131.7 136.6 121.7 146.45 112.05 155.9 109.3 160.2 L108.6 160.4 107.9 160.25 Q104.05 154.95 96.5 148.15 91.9 143.95 84.5 138.05 84.4 137.95 84.55 137.75 L84.75 137.35 Q85.65 131.45 86.5 120.35 87.25 109.95 87.25 104.8 86.95 104.2 87.15 104.05 L102.25 87.3 Q111.5 76.75 115.0 72.05"/><path fill="#0f141b" d="M139.45 91.55 Q139.8 91.7 139.5 92.5 L138.95 93.15 Q132.3 90.95 125.6 94.25 119.85 97.1 115.1 103.3 110.85 108.75 108.85 114.7 105.75 124.0 107.3 133.55 109.2 144.85 117.25 149.05 117.55 149.25 117.05 150.0 116.5 150.7 116.2 150.6 107.2 146.5 104.95 134.2 103.05 123.75 106.4 113.9 110.9 100.65 121.4 94.15 131.25 88.05 139.45 91.55"/><path fill="#0f141b" d="M126.35 108.15 Q135.25 113.9 139.05 117.85 139.3 118.1 138.7 119.0 138.1 119.85 137.85 119.6 134.35 115.95 125.1 110.05 117.95 105.45 114.2 103.6 113.9 103.45 114.3 102.6 114.7 101.75 115.05 101.85 118.1 102.85 126.35 108.15"/><path fill="#0f141b" d="M234.3 73.8 L236.0 71.45 Q251.15 78.05 261.35 89.0 272.45 100.9 275.35 115.7 L272.85 117.2 Q270.3 102.4 259.4 90.7 249.45 80.05 234.3 73.8"/><path fill="#0f141b" d="M206.2 67.4 Q184.25 66.25 161.45 80.4 154.3 84.85 147.9 90.35 L142.8 95.05 Q142.6 95.3 141.9 94.65 141.2 94.0 141.4 93.75 150.3 83.25 166.6 74.5 187.4 63.35 206.6 64.35 L206.2 67.4"/><path fill="#0f141b" d="M230.9 180.2 Q245.35 180.8 251.5 177.9 258.35 174.6 263.95 166.2 271.05 155.45 273.0 140.05 L276.0 137.75 Q274.05 156.8 266.3 168.5 260.65 177.0 252.75 180.75 245.8 184.05 229.65 183.05 210.0 181.85 192.25 173.9 174.05 165.8 155.5 149.3 140.5 135.9 137.9 130.2 137.75 129.9 138.75 129.4 139.7 128.85 139.85 129.15 142.25 134.45 157.3 147.45 175.7 163.35 193.35 171.25 211.7 179.45 230.9 180.2"/><path fill="#0f141b" d="M255.0 176.5 Q255.05 176.15 256.25 176.3 257.45 176.45 257.35 176.8 252.8 208.8 233.1 228.15 216.35 244.55 192.45 248.9 176.75 251.8 158.5 246.05 136.9 239.2 120.95 222.25 107.8 208.3 105.7 186.8 104.25 172.05 107.75 159.5 107.85 159.15 108.75 159.05 109.65 158.95 109.6 159.3 107.0 172.25 108.2 185.35 110.25 207.0 122.85 220.4 138.45 236.95 159.35 243.5 176.7 248.95 192.2 246.25 213.75 242.5 230.15 226.5 249.65 207.5 255.0 176.5"/><path fill="#0f141b" d="M82.1 231.95 Q90.15 239.15 100.5 244.7 125.0 257.8 152.65 255.8 172.2 254.4 184.65 247.35 184.95 247.15 185.5 248.05 186.05 248.9 185.75 249.1 173.65 256.85 152.55 258.35 124.3 260.4 99.1 246.95 88.7 241.4 80.55 234.05 L82.1 231.95"/><path fill="#0f141b" d="M58.75 189.65 Q60.6 202.55 67.25 213.95 L69.4 221.75 Q60.3 209.3 57.0 195.1 53.85 181.7 56.5 169.6 59.65 155.15 70.9 145.25 79.55 137.65 86.05 136.85 86.4 136.8 86.5 137.65 86.6 138.5 86.25 138.55 80.9 139.2 72.9 146.45 62.25 156.1 59.25 169.9 57.25 179.0 58.75 189.65"/><path fill="#0f141b" d="M244.2 57.3 L245.8 54.2 Q251.45 62.35 254.55 70.75 257.75 79.5 257.65 87.05 257.65 87.4 256.8 87.4 256.0 87.45 255.95 87.1 255.7 81.05 252.5 73.05 249.35 65.15 244.2 57.3"/><path fill="#0f141b" d="M225.1 36.65 Q213.3 28.45 200.4 23.0 184.3 16.2 170.85 15.85 L169.45 13.4 Q183.5 13.25 200.15 20.0 213.7 25.5 226.45 34.4 L228.75 36.1 227.15 38.15 225.1 36.65"/><path fill="#0f141b" d="M154.2 18.4 Q132.65 25.55 122.8 46.45 116.8 59.3 116.15 74.2 116.15 74.55 115.15 74.5 114.2 74.45 114.15 74.1 113.7 58.8 120.7 44.1 131.1 22.15 154.45 15.8 L154.2 18.4"/><path fill="#0f141b" d="M147.25 19.35 Q147.65 19.35 147.0 20.4 L146.0 21.45 Q131.5 20.85 115.1 27.15 96.35 34.3 83.85 47.65 60.25 72.85 66.8 84.35 69.8 89.65 75.9 95.3 82.5 101.4 88.7 104.0 89.05 104.15 88.7 105.1 88.4 106.0 88.05 105.85 81.0 103.3 73.9 97.05 67.4 91.4 64.2 85.8 60.6 79.45 65.3 68.85 69.9 58.3 81.8 45.6 94.55 32.0 114.35 24.8 131.75 18.5 147.25 19.35"/><path fill="#0f141b" d="M63.95 77.75 Q64.25 77.55 64.4 79.1 64.55 80.6 64.25 80.8 61.75 82.3 57.55 90.55 52.45 100.7 49.65 113.1 41.6 148.9 57.3 183.0 57.45 183.35 57.0 184.45 L56.35 185.3 Q38.25 151.15 46.3 113.95 49.25 100.5 55.05 89.55 60.0 80.25 63.95 77.75"/><path fill="#0f141b" d="M93.2 36.85 Q93.55 36.9 92.85 38.2 92.15 39.5 91.8 39.45 L75.65 40.0 Q65.85 41.25 61.2 44.15 58.65 45.75 58.35 46.9 58.05 48.15 60.1 50.25 L64.7 55.4 Q68.95 60.3 70.4 62.45 70.6 62.75 69.8 63.65 69.0 64.5 68.8 64.2 66.8 61.25 58.05 51.7 55.0 48.4 55.2 46.65 55.4 44.5 60.05 42.2 66.25 39.15 76.4 37.65 L93.2 36.85"/><path fill="#0f141b" d="M177.95 39.7 Q177.25 32.95 175.15 26.35 173.15 19.95 168.35 13.9 164.45 8.9 160.15 5.75 158.15 4.25 157.6 4.25 156.7 4.35 156.55 7.25 L155.7 17.5 Q154.9 23.9 153.25 30.15 152.7 32.3 152.85 33.0 153.0 33.5 154.05 34.15 L165.1 41.35 Q171.4 45.85 175.55 50.25 176.8 51.6 177.2 51.6 177.7 51.55 177.95 49.75 178.55 45.7 177.95 39.7 M177.75 25.7 Q180.0 32.25 180.55 40.1 180.95 46.25 180.3 50.15 179.65 54.1 178.2 54.45 176.85 54.8 174.25 52.0 170.7 48.2 165.65 44.45 161.1 41.1 152.85 36.05 151.05 35.0 150.8 33.9 150.5 32.85 151.2 29.95 152.4 24.55 153.3 16.85 L154.3 5.65 Q154.65 2.0 156.05 1.4 157.5 0.8 160.6 3.1 173.15 12.4 177.75 25.7"/><path fill="#0f141b" d="M257.0 43.35 Q260.2 42.5 261.15 43.35 262.1 44.3 261.95 48.3 261.7 53.85 260.25 60.0 258.35 68.35 254.95 73.95 254.8 74.25 253.8 73.15 252.75 72.05 252.95 71.75 256.2 66.4 258.1 58.9 259.5 53.5 259.95 48.15 260.15 45.75 259.7 45.3 L257.2 45.4 Q249.6 47.8 248.35 48.3 247.95 48.45 248.85 46.9 249.75 45.35 250.4 45.15 L257.0 43.35"/><path fill="#0f141b" d="M91.55 218.65 L92.8 216.85 Q92.8 216.45 91.15 215.75 84.15 212.75 78.75 209.0 73.75 205.55 68.65 200.45 67.3 199.05 66.95 199.15 66.5 199.25 66.55 201.35 66.65 221.25 77.5 233.95 78.1 234.7 78.55 234.65 L79.95 233.45 91.55 218.65 M92.65 214.35 Q94.6 215.2 94.95 216.2 95.4 217.35 94.0 219.2 L88.0 226.65 Q83.35 232.45 81.75 234.85 80.15 237.1 78.7 237.2 77.2 237.3 75.2 235.05 63.55 221.75 64.65 200.9 64.85 196.85 66.1 196.55 67.1 196.35 69.6 198.8 79.7 208.5 92.65 214.35"/><path fill="#0f141b" d="M180.35 193.8 L175.3 186.55 Q174.5 185.35 174.15 185.25 173.7 185.1 172.7 186.1 166.0 193.3 159.85 198.5 157.15 200.8 152.1 203.95 147.0 207.15 143.4 208.75 142.0 209.4 141.9 209.85 141.85 210.4 143.5 210.95 154.2 214.45 166.5 212.3 176.75 210.5 186.7 204.9 187.8 204.25 187.95 203.65 188.1 203.15 187.55 202.5 183.6 198.15 180.35 193.8 M170.7 184.7 Q172.95 182.25 174.1 182.3 175.1 182.35 176.7 184.7 L183.15 193.3 189.75 201.45 Q192.35 204.35 188.8 206.6 177.45 213.6 164.9 215.05 153.0 216.45 141.95 212.7 138.7 211.6 138.85 210.1 138.95 208.75 141.8 207.3 151.15 202.6 157.9 197.1 163.2 192.8 170.7 184.7"/><path fill="#0f141b" d="M159.35 255.9 Q159.35 255.55 160.7 255.45 162.05 255.35 162.05 255.7 L162.45 266.9 Q162.6 270.45 161.65 271.3 L156.4 271.05 Q147.9 268.5 139.1 262.85 133.25 259.15 131.05 256.95 130.85 256.7 132.75 256.15 L134.95 255.9 Q137.7 258.65 141.65 261.4 149.15 266.65 157.4 269.1 L159.55 269.45 Q160.4 269.15 160.2 266.9 L159.35 255.9"/><path fill="#0f141b" d="M245.0 207.65 Q244.85 207.3 245.9 206.35 246.9 205.4 247.05 205.75 250.0 211.7 256.0 220.6 257.85 223.45 257.35 225.1 256.85 226.55 254.05 228.3 246.95 232.75 236.75 233.9 230.65 234.6 224.55 234.1 L225.95 231.4 Q232.3 231.95 237.15 231.5 246.15 230.55 252.95 226.3 255.0 225.0 255.15 224.35 255.35 223.55 253.95 221.5 L245.0 207.65"/><path fill="#0f141b" d="M253.05 35.45 Q259.7 20.2 263.4 8.65 265.15 3.15 264.65 2.7 263.95 2.05 259.05 6.75 245.05 20.0 232.7 33.65 221.9 45.75 214.45 54.95 212.35 57.6 210.6 60.2 L208.85 63.1 Q207.0 67.35 206.8 76.25 206.65 80.75 206.1 81.9 205.35 83.45 201.85 85.8 194.3 90.6 193.45 91.3 190.85 93.35 189.8 95.5 188.35 98.5 188.2 104.1 188.0 111.45 189.7 119.9 191.35 128.05 192.8 128.05 194.15 128.05 199.5 121.55 204.35 115.55 211.45 105.5 225.7 85.3 236.85 67.05 244.95 53.9 253.05 35.45 M266.0 8.25 Q262.9 19.45 255.6 36.25 247.45 54.9 239.05 68.6 230.5 82.5 215.8 103.3 196.45 130.7 192.9 130.5 189.35 130.3 187.2 120.3 185.45 112.15 185.65 105.25 185.85 98.8 187.1 95.2 188.3 91.85 190.8 89.9 L201.85 83.0 Q203.8 81.7 204.2 80.5 L204.45 76.75 Q204.7 66.15 206.85 61.75 211.0 53.15 232.95 29.9 249.7 12.15 258.35 4.35 269.9 -6.0 266.0 8.25"/><path fill="#0f141b" d="M341.5 61.3 Q344.8 55.95 343.9 55.5 343.15 55.05 338.05 58.25 L312.5 74.35 Q288.6 89.95 284.25 95.4 282.95 97.0 281.3 102.35 L279.2 109.65 Q277.8 114.45 277.2 115.2 276.45 116.2 271.65 118.85 266.85 121.5 265.55 122.65 263.5 124.5 263.1 127.5 262.75 130.25 262.75 134.85 262.75 139.0 263.6 144.1 263.8 145.05 264.15 145.15 264.5 145.2 265.6 144.5 270.75 141.05 281.05 131.5 293.05 120.35 307.4 105.05 321.15 90.35 331.15 76.8 336.1 70.05 341.5 61.3 M336.85 56.45 Q344.5 51.85 346.05 53.45 347.55 55.0 343.7 62.15 340.1 68.7 333.4 77.85 323.3 91.65 309.2 106.95 298.2 118.8 285.9 130.4 271.95 143.55 266.05 146.85 263.9 148.1 263.05 147.6 262.25 147.15 261.65 144.7 260.9 141.5 260.65 135.7 260.5 130.4 260.85 127.7 261.3 123.95 262.95 121.8 264.0 120.45 266.2 119.15 267.1 118.6 272.15 115.95 274.95 114.5 275.65 113.45 276.55 111.85 278.8 103.1 280.8 95.1 283.1 92.35 287.85 86.65 336.85 56.45"/><path fill="#0f141b" d="M247.5 50.9 Q247.7 51.2 246.95 51.65 246.25 52.1 246.05 51.8 241.0 43.95 240.85 32.6 240.8 29.0 241.25 25.45 L241.75 22.3 Q241.85 21.95 242.65 21.75 243.45 21.55 243.35 21.9 242.55 26.25 242.95 33.5 243.6 44.4 247.5 50.9"/><path fill="#0f141b" d="M227.45 38.0 L229.15 36.85 Q228.45 46.05 229.5 55.1 230.85 67.45 235.05 72.1 235.3 72.35 234.7 72.95 234.05 73.5 233.8 73.25 229.0 68.0 227.5 56.65 226.25 47.3 227.45 38.0"/><path fill="#0f141b" d="M214.3 53.0 Q214.4 52.65 215.2 52.25 L215.95 52.2 Q214.85 59.65 215.2 72.45 215.65 89.75 219.65 95.5 219.85 95.8 219.15 96.3 L218.25 96.45 Q213.15 88.55 213.0 71.85 212.9 62.35 214.3 53.0"/><path fill="#0f141b" d="M202.65 83.65 Q203.5 83.55 203.4 83.9 202.55 86.65 203.7 96.45 205.0 107.6 208.0 112.6 208.2 112.9 207.5 113.35 L206.6 113.5 Q203.4 108.45 202.05 99.6 200.7 91.1 201.8 84.1 201.85 83.75 202.65 83.65"/><path fill="#0f141b" d="M275.75 114.75 Q275.8 114.4 276.55 114.15 277.3 113.9 277.25 114.25 L277.15 121.65 Q277.65 129.65 280.45 133.4 280.65 133.65 279.95 134.2 279.3 134.7 279.1 134.4 275.6 129.55 275.2 123.25 275.1 121.25 275.75 114.75"/><path fill="#0f141b" d="M287.3 91.6 L289.2 90.0 Q287.65 101.45 288.4 111.8 289.05 120.5 290.85 124.35 291.0 124.65 290.25 125.0 L289.3 125.05 Q286.0 117.95 286.15 106.4 286.2 103.75 287.3 91.6"/><path fill="#0f141b" d="M300.2 81.75 Q300.25 81.4 301.1 80.85 302.0 80.3 301.95 80.65 301.3 86.7 301.95 94.7 302.75 104.55 305.3 107.8 305.55 108.05 305.0 108.8 304.45 109.5 304.2 109.25 300.15 104.2 299.75 92.55 L300.2 81.75"/><path fill="#0f141b" d="M313.65 72.45 Q313.75 72.1 314.55 71.95 315.35 71.75 315.25 72.1 314.7 74.45 314.85 82.8 315.05 92.7 316.8 95.55 317.0 95.85 316.35 96.7 315.7 97.5 315.55 97.2 313.05 92.4 312.75 83.95 312.5 76.9 313.65 72.45"/><path fill="#0f141b" d="M38.8 171.5 Q30.05 183.15 21.85 195.55 17.2 202.6 12.45 211.45 8.35 219.0 5.25 225.75 2.15 232.5 2.8 233.35 3.45 234.15 9.35 230.7 20.15 224.4 31.8 215.5 44.5 205.75 46.25 201.7 47.3 199.35 47.6 196.8 L47.8 192.6 Q47.8 190.0 48.05 188.7 48.4 186.65 49.6 185.1 L53.2 180.8 54.35 179.65 Q54.6 179.45 55.6 180.55 56.6 181.65 56.35 181.85 L55.05 182.85 Q53.35 184.3 51.4 186.8 50.4 188.05 50.1 189.6 49.85 190.75 49.85 193.0 L49.75 197.55 Q49.45 200.5 48.2 202.9 45.0 209.1 31.75 218.85 22.35 225.7 10.3 232.8 2.5 237.35 0.75 236.35 -1.5 235.05 3.35 224.55 11.8 206.1 20.1 193.55 28.15 181.3 37.25 169.45 43.85 160.85 47.2 157.2 47.45 156.95 48.1 157.95 48.75 158.95 48.6 159.15 45.75 162.2 38.8 171.5"/><path fill="#0f141b" d="M86.75 237.0 Q87.05 236.8 88.0 237.6 88.95 238.35 88.7 238.6 L77.1 249.6 Q65.9 260.2 64.6 261.0 60.4 263.55 61.1 258.65 61.75 253.9 65.95 241.65 69.95 229.95 71.6 227.3 71.75 227.05 72.55 228.2 L73.25 229.5 Q71.7 232.45 67.2 245.45 62.55 258.85 63.2 259.3 63.55 259.55 74.8 248.65 L86.75 237.0"/><path fill="#0f141b" d="M44.85 161.55 L46.4 161.35 Q44.3 180.3 49.3 190.4 49.5 190.75 48.85 191.35 48.25 191.95 48.05 191.65 41.85 180.35 44.85 161.55"/><path fill="#0f141b" d="M32.65 177.8 Q32.65 177.45 33.4 177.25 34.2 177.05 34.15 177.4 33.75 180.6 34.7 191.35 35.95 205.25 39.05 210.2 39.25 210.5 38.6 210.95 L37.8 211.05 Q33.6 204.8 32.65 191.6 32.05 183.3 32.65 177.8"/><path fill="#0f141b" d="M22.9 190.65 Q22.95 190.3 23.75 190.3 24.55 190.35 24.5 190.7 24.1 194.75 25.3 203.3 26.9 214.45 30.25 217.8 30.5 218.05 30.0 218.6 29.5 219.15 29.25 218.9 25.0 215.7 23.45 205.3 22.3 197.55 22.9 190.65"/><path fill="#0f141b" d="M13.9 205.85 Q14.0 205.5 14.6 205.55 15.25 205.6 15.25 205.95 15.15 211.3 16.45 216.95 17.75 222.85 19.7 225.1 19.95 225.35 19.35 225.85 18.75 226.35 18.5 226.1 15.45 223.25 14.2 215.5 13.1 208.85 13.9 205.85"/><path fill="#0f141b" d="M68.75 236.5 Q68.75 236.15 69.45 236.1 70.1 236.05 70.1 236.4 70.1 238.3 71.25 241.65 72.85 246.15 75.4 248.45 75.65 248.7 75.15 249.2 74.65 249.75 74.35 249.55 71.25 247.4 69.8 243.05 68.8 240.05 68.75 236.5"/><path fill="#0f141b" d="M81.05 234.0 Q81.5 235.35 82.85 237.3 L84.55 239.45 Q85.05 239.85 84.6 240.55 84.15 241.25 83.55 240.8 82.6 240.0 81.35 238.2 80.05 236.3 79.6 234.9 79.5 234.55 80.2 234.1 L81.05 234.0"/></g></svg>