<?xml version='1.0' encoding='utf-8'?>
<svg xmlns="http://www.w3.org/2000/svg" version="1.1" width="135px" height="185px" viewBox="-0.15 -0.05 135.05 185.05"><g><path fill="#009844" d="M61.25 36.3 Q63.3 16.75 73.7 3.15 75.35 1.0 76.4 1.05 77.5 1.05 78.4 3.45 86.6 25.55 85.55 44.3 84.55 63.1 74.8 69.55 73.5 69.3 72.8 69.55 72.25 69.65 70.95 70.7 L69.75 71.65 Q58.95 58.05 61.25 36.3"/><path fill="#009844" d="M15.6 37.1 Q16.55 35.3 36.25 40.95 56.4 46.7 61.5 51.05 62.85 62.1 68.6 70.15 63.6 66.35 58.3 65.5 55.3 65.0 48.45 65.45 L41.35 66.6 Q31.8 61.55 22.7 50.0 14.35 39.45 15.6 37.1"/><path fill="#d9e14a" d="M104.15 96.95 Q104.55 92.65 103.3 88.7 101.55 83.15 90.85 76.75 82.45 71.7 75.5 69.55 91.4 69.7 104.15 76.75 114.7 82.6 121.85 92.3 131.65 105.55 127.5 120.15 123.35 134.7 108.4 140.05 110.1 139.15 112.3 135.45 115.0 130.9 115.85 125.55 118.25 110.15 104.15 96.95"/><path fill="#ffffff" d="M64.5 130.3 Q60.15 118.2 63.5 105.6 67.0 111.45 74.65 114.95 82.5 118.5 89.35 116.95 93.25 116.1 97.9 110.65 103.35 104.25 104.15 96.95 117.35 109.35 116.35 123.65 115.9 129.45 113.05 134.3 110.4 138.85 106.45 141.15 101.85 143.85 94.7 145.3 87.85 146.7 82.9 146.15 69.6 144.55 64.5 130.3"/><path fill="#009844" d="M24.55 84.9 Q16.15 84.5 9.1 82.6 2.85 80.9 1.45 79.2 -0.05 77.35 21.65 71.45 42.35 65.8 48.45 65.45 L60.55 65.9 Q64.45 66.95 69.75 71.65 66.95 73.3 64.5 75.3 47.65 85.95 24.55 84.9"/><path fill="#d9e14a" d="M68.55 153.9 Q70.95 155.9 76.7 154.65 81.85 153.45 84.0 151.45 85.0 155.4 88.45 157.35 91.6 159.1 95.5 158.5 99.4 157.95 102.0 155.3 104.9 152.35 104.9 147.95 109.2 150.3 114.8 149.25 120.35 148.25 119.3 145.55 122.9 146.95 129.75 148.55 134.55 150.15 133.55 153.35 132.7 156.1 129.5 157.5 126.25 158.9 122.35 158.2 125.25 163.3 121.3 168.35 117.35 173.45 111.1 171.9 110.35 177.25 106.5 180.25 103.1 182.9 98.1 183.15 93.4 183.4 89.3 181.45 85.05 179.45 83.45 175.95 81.0 177.55 78.2 177.6 75.4 177.65 72.6 176.15 69.05 174.25 67.95 170.25 66.85 166.5 68.35 162.85 63.4 162.85 59.9 160.15 56.25 157.35 57.75 154.15 58.25 153.1 61.95 152.2 L68.1 150.65 Q66.9 152.55 68.55 153.9"/><path fill="#d9e14a" d="M53.6 87.9 Q61.1 75.7 69.95 71.95 63.9 80.05 61.95 92.15 60.15 103.6 63.5 105.6 60.15 118.2 64.5 130.3 69.6 144.55 82.9 146.15 61.65 146.55 51.9 136.45 43.65 127.8 44.85 113.2 45.95 100.25 53.6 87.9"/><path fill="#009844" d="M76.7 154.65 Q70.95 155.9 68.55 153.9 66.35 152.05 69.4 149.2 71.5 147.25 74.6 145.85 85.3 146.9 92.05 145.85 98.85 144.8 108.1 140.55 111.25 140.65 114.9 142.25 118.7 143.85 119.3 145.55 120.3 148.2 114.6 149.15 108.9 150.1 104.9 147.95 104.9 152.35 102.0 155.3 99.4 157.95 95.5 158.5 91.6 159.1 88.45 157.35 85.0 155.4 84.0 151.45 81.85 153.45 76.7 154.65"/><path fill="#d9e14a" d="M88.6 75.3 Q101.35 82.5 103.3 88.7 106.1 97.55 100.6 107.0 95.6 115.55 89.35 116.95 81.15 118.8 72.15 113.55 63.45 108.45 61.95 101.75 60.45 95.2 64.6 82.9 68.8 70.6 72.8 69.55 76.6 68.55 88.6 75.3"/><path fill="#c6000d" d="M73.05 130.75 Q71.7 124.45 73.6 124.1 75.55 123.65 77.1 129.75 77.8 132.6 77.65 134.45 77.55 136.3 76.7 136.5 75.75 136.75 74.65 135.1 73.6 133.4 73.05 130.75"/><path fill="#c6000d" d="M104.2 123.0 Q103.55 120.05 103.75 118.3 103.95 116.7 104.85 116.55 105.9 116.35 106.8 117.9 107.7 119.35 108.15 121.95 108.75 125.0 108.5 126.8 108.3 128.5 107.45 128.7 105.55 129.15 104.2 123.0"/><path fill="#ffffff" d="M73.5 126.75 Q73.3 125.2 73.95 125.15 74.65 125.0 74.85 126.5 75.1 128.0 74.45 128.15 73.75 128.25 73.5 126.75"/><path fill="#ffffff" d="M104.85 119.55 Q104.5 118.05 105.15 117.9 105.8 117.75 106.15 119.25 106.55 120.75 105.85 120.9 105.15 121.1 104.85 119.55"/><path fill="#00863c" d="M64.65 63.05 Q70.75 62.25 76.0 59.1 81.35 55.85 84.85 50.8 82.55 64.45 74.8 69.55 73.5 69.3 72.8 69.55 72.25 69.65 70.95 70.7 L69.75 71.65 Q66.7 67.9 64.65 63.05"/><path fill="#00863c" d="M62.0 54.35 Q63.85 63.45 68.6 70.15 63.6 66.35 58.3 65.5 55.3 65.0 48.45 65.45 L41.35 66.6 36.7 63.65 Q44.55 64.05 51.0 61.9 58.2 59.5 62.0 54.35"/><path fill="#bbc340" d="M108.4 140.05 Q109.55 139.45 111.1 137.3 112.85 134.9 114.2 131.8 121.05 129.85 126.55 122.55 123.95 128.75 119.85 132.9 115.25 137.6 108.4 140.05"/><path fill="#dbdcdc" d="M77.9 145.1 Q75.35 144.35 73.4 142.75 85.35 144.05 95.75 141.3 107.0 138.35 114.65 131.1 112.65 137.8 106.45 141.15 101.65 143.8 94.95 145.25 88.3 146.7 83.45 146.15 L77.9 145.1"/><path fill="#00863c" d="M62.5 66.6 Q65.4 67.8 69.75 71.65 66.95 73.3 64.5 75.3 55.45 81.05 44.1 83.4 34.55 85.4 24.3 84.85 35.1 83.4 44.95 78.75 54.9 74.0 62.5 66.6"/><path fill="#bbc340" d="M84.0 176.3 Q89.85 180.05 98.25 178.4 106.8 176.7 111.6 170.6 111.05 175.95 107.35 179.35 104.0 182.45 99.1 183.15 94.3 183.85 90.15 182.1 85.8 180.25 84.0 176.3"/><path fill="#bbc340" d="M111.5 168.5 Q114.8 168.95 118.35 166.45 122.0 163.85 123.1 160.05 124.5 164.95 120.95 168.95 117.2 173.25 111.15 172.0 111.6 171.7 111.6 170.7 L111.5 168.5"/><path fill="#bbc340" d="M72.6 176.15 Q70.3 174.95 68.95 172.65 67.75 170.55 67.55 168.0 69.45 172.15 75.7 173.7 82.1 175.25 87.15 172.35 83.5 176.8 79.1 177.4 75.8 177.85 72.6 176.15"/><path fill="#bbc340" d="M61.25 142.9 Q68.3 144.1 73.4 142.75 75.35 144.35 77.9 145.1 L83.45 146.15 70.95 145.7 Q65.8 145.0 61.25 142.9"/><path fill="#00863c" d="M74.2 146.0 L74.6 145.85 Q85.3 146.9 92.05 145.85 98.85 144.8 108.1 140.55 L111.8 141.15 Q103.25 147.35 93.6 148.85 83.05 150.5 74.2 146.0"/><path fill="#bbc340" d="M121.05 156.75 L119.65 155.1 Q123.65 156.1 126.0 156.2 130.4 156.3 133.25 153.95 130.55 159.4 122.1 158.25 L121.05 156.75"/><path fill="#0f141b" d="M69.2 71.55 Q69.4 71.45 69.4 72.1 L69.3 72.9 Q56.45 80.85 49.9 96.2 43.35 111.6 47.2 124.9 50.15 134.9 58.6 140.2 67.1 145.55 80.15 145.6 81.85 145.6 82.75 146.15 83.7 146.7 82.2 146.75 64.85 147.7 54.8 139.9 47.8 134.45 45.25 125.7 41.25 112.0 48.5 95.75 55.7 79.6 69.2 71.55"/><path fill="#0f141b" d="M104.15 97.55 Q103.95 97.4 104.35 96.95 104.75 96.5 104.95 96.7 117.75 108.8 117.25 122.95 116.75 135.8 106.75 141.65 102.85 143.9 96.4 145.5 89.0 147.35 83.35 146.8 69.35 145.4 63.95 131.25 59.25 118.95 63.0 105.2 L63.5 105.7 Q63.85 106.4 63.8 106.75 61.05 118.75 65.3 130.35 70.45 144.3 83.45 145.6 88.95 146.15 96.1 144.4 102.4 142.8 106.15 140.6 109.75 138.5 112.3 134.0 114.95 129.25 115.4 123.5 116.45 109.3 104.15 97.55"/><path fill="#0f141b" d="M76.1 69.55 Q75.85 69.55 75.9 68.95 75.95 68.35 76.2 68.4 99.3 70.35 114.05 82.5 127.15 93.3 129.15 107.55 130.8 118.9 124.55 128.2 118.4 137.35 106.4 141.95 105.05 142.5 104.85 141.95 104.6 141.35 106.0 140.85 117.5 136.45 123.25 127.5 129.0 118.5 127.4 107.45 125.4 93.55 112.9 83.25 98.7 71.5 76.1 69.55"/><path fill="#0f141b" d="M102.75 88.9 Q100.8 82.75 88.2 75.7 76.5 69.2 72.95 70.1 68.9 71.2 65.0 83.65 61.2 95.8 62.5 101.6 63.15 104.55 65.5 107.4 67.8 110.25 71.35 112.5 75.65 115.2 80.45 116.25 85.25 117.3 89.25 116.4 91.6 115.85 94.75 113.0 98.25 109.95 100.5 105.95 105.45 97.4 102.75 88.9 M89.15 74.55 Q102.15 81.7 104.2 88.35 107.05 97.35 101.9 106.35 99.45 110.6 95.6 113.9 92.1 116.95 89.5 117.55 85.2 118.55 80.05 117.5 74.85 116.45 70.4 113.6 66.65 111.25 64.2 108.2 61.7 105.15 61.0 101.95 59.5 95.25 64.0 82.65 68.45 70.1 72.65 68.95 76.95 67.8 89.15 74.55"/><path fill="#0f141b" d="M22.05 71.9 Q3.4 77.05 2.05 78.95 3.7 80.7 10.1 82.3 17.35 84.1 25.9 84.35 49.25 85.0 65.65 73.85 67.15 72.85 67.5 73.3 67.8 73.8 66.35 74.8 48.95 86.65 24.55 85.65 15.7 85.3 8.25 83.3 1.7 81.5 0.25 79.75 -0.15 79.35 0.1 78.75 1.05 76.55 20.2 71.05 39.55 65.5 50.45 64.45 L58.7 64.7 Q63.7 65.8 68.55 69.7 68.75 69.85 68.55 70.45 L68.2 70.9 Q63.55 67.15 59.0 66.15 L50.5 65.9 Q41.15 66.65 22.05 71.9"/><path fill="#0f141b" d="M23.95 80.7 Q20.95 80.55 20.2 80.1 19.45 79.65 22.5 79.8 37.1 80.5 50.0 77.95 62.85 75.45 68.6 70.85 68.8 70.7 69.2 71.2 69.55 71.65 69.35 71.8 63.4 76.6 51.2 79.0 39.05 81.4 23.95 80.7"/><path fill="#0f141b" d="M16.1 36.25 Q20.9 35.6 38.7 40.85 57.25 46.3 61.25 50.35 61.45 50.55 61.45 51.4 61.5 52.3 61.3 52.1 57.6 48.3 39.45 42.75 22.7 37.6 17.0 37.4 16.35 37.35 16.2 37.65 16.05 37.9 16.25 38.55 17.8 43.45 24.95 51.85 33.35 61.65 41.85 66.0 L41.35 66.6 40.45 67.0 Q31.85 62.55 23.6 52.5 16.75 44.1 15.15 38.9 14.65 37.35 14.85 36.9 15.0 36.4 16.1 36.25"/><path fill="#0f141b" d="M23.9 42.7 Q21.95 41.15 21.05 39.9 20.15 38.65 22.1 40.2 26.1 43.35 42.3 52.85 59.5 62.95 65.5 65.25 65.75 65.35 65.8 66.05 65.9 66.75 65.65 66.65 59.4 64.2 43.2 54.8 28.05 45.95 23.9 42.7"/><path fill="#0f141b" d="M76.6 0.0 Q77.65 0.05 78.95 3.25 85.0 18.0 86.25 36.1 88.0 61.55 75.2 70.0 L74.75 70.1 74.4 69.85 74.3 69.4 74.55 69.05 Q86.4 61.2 84.55 35.8 83.3 18.45 77.85 3.65 77.1 1.65 76.4 1.6 75.7 1.6 74.15 3.55 70.25 8.6 67.1 16.85 63.7 25.75 62.4 35.05 59.2 58.35 70.2 71.6 70.55 72.0 70.1 72.45 69.65 72.85 69.25 72.35 58.15 59.0 60.4 36.6 62.5 16.15 73.25 2.8 75.55 -0.05 76.6 0.0"/><path fill="#0f141b" d="M75.85 12.75 Q75.2 10.6 75.85 11.3 76.5 12.0 77.15 14.15 80.45 25.45 78.85 45.2 77.3 64.3 73.3 69.45 73.15 69.65 72.45 69.45 71.75 69.3 71.95 69.15 75.7 66.1 77.45 45.75 79.3 24.55 75.85 12.75"/><path fill="#0f141b" d="M73.6 145.65 Q73.8 145.55 74.55 146.0 75.25 146.45 75.0 146.55 71.0 148.2 69.2 150.15 67.4 152.15 68.9 153.45 71.15 155.3 76.65 154.05 81.6 152.9 83.6 151.0 83.9 150.75 84.2 150.85 84.5 150.9 84.6 151.3 85.6 155.1 88.85 156.9 91.85 158.5 95.5 157.9 99.15 157.25 101.55 154.7 104.2 151.9 104.05 147.8 L104.65 147.7 Q105.2 147.85 105.2 148.1 105.35 152.55 102.5 155.6 99.95 158.35 95.95 159.05 92.0 159.75 88.65 158.15 85.0 156.35 83.65 152.45 80.7 154.5 76.05 155.4 70.6 156.4 68.15 154.35 65.95 152.5 67.4 150.05 68.9 147.55 73.6 145.65"/><path fill="#0f141b" d="M107.9 141.35 Q107.65 141.35 107.7 140.75 107.7 140.15 107.95 140.15 110.8 140.25 114.4 141.5 118.2 142.9 119.65 144.5 120.8 145.8 120.2 147.1 119.6 148.35 117.7 149.2 114.9 150.55 111.25 150.35 107.25 150.15 104.35 148.15 103.0 147.25 102.95 146.6 102.95 145.95 104.25 146.9 106.9 148.7 110.8 148.9 114.4 149.1 117.0 147.9 119.7 146.7 118.4 145.15 117.2 143.8 113.9 142.6 110.6 141.45 107.9 141.35"/><path fill="#0f141b" d="M67.8 150.15 L68.25 150.65 Q68.4 151.2 68.2 151.3 L63.9 152.4 Q58.75 153.5 58.3 154.4 57.25 156.55 59.25 158.8 61.35 161.0 65.15 161.9 69.2 162.85 72.6 161.5 L74.1 161.4 Q73.85 162.05 72.0 162.75 68.3 164.2 64.2 163.2 60.4 162.3 58.1 159.8 55.5 156.95 56.9 154.0 57.35 153.05 59.35 152.35 60.7 151.85 63.65 151.25 L67.8 150.15"/><path fill="#0f141b" d="M67.5 162.85 L68.45 162.7 Q69.3 162.8 69.2 163.0 67.75 166.4 68.55 169.9 69.45 173.8 72.9 175.65 76.75 177.75 80.75 176.5 84.9 175.2 87.2 170.9 88.15 169.2 88.25 169.9 88.35 170.6 87.5 172.4 85.15 176.95 80.25 178.05 75.85 179.0 72.0 176.9 68.1 174.8 66.95 170.55 65.9 166.6 67.5 162.85"/><path fill="#0f141b" d="M110.25 166.35 Q109.9 164.6 110.4 164.75 110.9 164.95 111.25 166.7 112.75 173.9 109.0 178.75 104.15 185.0 94.85 183.9 85.7 182.85 83.0 176.3 82.9 176.1 83.45 175.85 L84.05 175.8 Q86.6 181.55 94.95 182.5 103.55 183.45 108.0 177.65 111.65 173.0 110.25 166.35"/><path fill="#0f141b" d="M118.9 155.4 Q117.5 154.45 118.0 154.3 118.5 154.2 119.9 155.15 123.3 157.5 124.0 161.0 124.65 164.25 123.0 167.3 121.35 170.4 118.2 171.85 114.85 173.45 111.05 172.4 110.85 172.35 111.0 171.75 L111.35 171.25 Q114.65 172.15 117.6 170.65 120.3 169.25 121.7 166.4 123.15 163.55 122.5 160.65 121.85 157.45 118.9 155.4"/><path fill="#0f141b" d="M119.45 146.2 Q119.25 146.1 119.45 145.55 119.65 145.05 119.9 145.1 122.35 146.15 126.8 147.2 132.0 148.45 133.45 149.75 134.9 151.0 134.1 153.55 133.15 156.65 129.75 158.1 126.4 159.55 122.25 158.7 122.05 158.65 122.15 158.05 122.3 157.45 122.5 157.5 126.2 158.35 129.15 157.1 132.15 155.85 132.95 153.15 133.5 151.5 132.15 150.45 130.75 149.4 126.55 148.35 121.7 147.15 119.45 146.2"/><path fill="#0f141b" d="M73.7 124.55 Q73.2 124.6 73.05 125.6 72.75 127.15 73.5 130.65 74.05 133.3 74.95 134.85 75.8 136.3 76.6 136.1 77.15 135.95 77.25 134.45 77.35 132.6 76.65 129.85 75.2 124.15 73.7 124.55 M76.05 125.35 Q76.75 126.75 77.5 129.65 78.3 132.8 78.1 134.75 77.9 136.7 76.8 136.95 75.85 137.2 74.65 135.7 73.25 133.9 72.6 130.85 72.1 128.4 72.15 126.45 72.3 123.9 73.5 123.65 74.95 123.35 76.05 125.35"/><path fill="#0f141b" d="M106.5 118.25 Q105.75 116.85 104.9 117.0 104.35 117.1 104.15 118.35 103.95 119.95 104.6 122.9 105.25 125.65 106.05 127.1 106.75 128.4 107.35 128.25 107.85 128.15 108.05 126.85 108.3 125.15 107.75 122.05 107.3 119.65 106.5 118.25 M104.75 116.1 Q106.0 115.9 107.0 117.45 107.95 119.0 108.5 121.95 109.75 128.65 107.55 129.15 106.6 129.35 105.55 127.8 104.45 126.1 103.75 123.1 103.15 120.35 103.45 118.25 103.8 116.25 104.75 116.1"/></g></svg>