<?xml version='1.0' encoding='utf-8'?>
<svg xmlns="http://www.w3.org/2000/svg" version="1.1" width="198px" height="296px" viewBox="-0.3 -0.05 197.5 295.85"><g><path fill="#a7d081" d="M164.9 125.2 Q168.5 127.9 168.4 130.8 168.3 133.4 165.4 135.6 162.65 137.7 158.5 138.65 L150.25 139.0 Q137.55 136.95 126.15 119.7 116.85 105.65 113.65 91.4 L118.1 87.9 Q123.95 95.85 132.25 101.75 137.35 107.6 150.1 115.85 L164.9 125.2"/><path fill="#009144" d="M172.5 106.85 Q173.45 115.1 172.65 115.75 161.85 116.9 145.85 109.65 127.6 101.35 118.1 87.9 121.05 85.3 123.65 81.9 128.95 89.95 141.35 95.3 153.75 100.7 161.25 98.2 164.9 97.0 168.4 92.45 171.45 97.5 172.5 106.85"/><path fill="#ffffff" d="M95.3 17.9 Q95.05 18.95 94.35 19.45 93.5 20.0 91.7 20.05 L77.2 20.85 70.35 21.15 Q69.95 20.3 74.25 18.05 78.1 16.0 80.75 15.2 88.85 15.1 95.3 17.9"/><path fill="#f2984f" d="M135.1 33.6 Q140.6 33.4 145.85 36.5 150.35 39.2 152.35 42.75 142.15 36.5 128.4 40.65 131.6 36.7 135.1 33.6"/><path fill="#a7d081" d="M122.4 113.3 Q126.05 119.7 130.35 124.95 134.85 130.4 139.45 133.9 143.0 141.0 146.7 159.6 150.1 176.9 150.3 185.85 146.5 183.3 142.35 180.9 133.05 172.85 122.15 167.2 120.55 150.05 113.0 136.1 116.3 136.2 118.85 135.35 121.4 134.5 122.7 132.9 121.6 130.05 116.6 127.95 111.35 125.75 105.5 126.15 110.95 124.0 115.25 120.7 119.7 117.4 122.4 113.3"/><path fill="#fcd13f" d="M120.25 19.8 Q117.4 23.4 116.6 25.25 115.35 22.75 113.4 20.65 115.4 12.9 116.55 11.25 L118.5 15.3 120.25 19.8"/><path fill="#fcd13f" d="M127.2 29.95 L127.1 24.5 Q128.65 23.35 132.6 21.4 135.9 19.8 137.75 19.1 L135.2 27.8 Q129.5 27.5 127.2 29.95"/><path fill="#ffffff" d="M150.4 41.65 Q155.0 43.95 159.05 48.85 164.8 55.8 167.3 66.05 164.5 61.95 158.95 56.05 153.75 50.5 150.7 48.1 148.45 46.3 148.45 44.3 148.4 42.4 150.4 41.65"/><path fill="#ffffff" d="M92.2 93.05 Q95.35 95.65 98.75 96.45 101.35 97.05 105.3 95.75 109.4 94.35 113.65 91.4 116.1 102.2 122.4 113.3 113.5 126.8 94.15 128.8 85.55 129.7 77.5 127.7 69.2 125.6 63.55 120.95 64.85 113.8 64.95 106.55 72.85 103.5 80.75 99.6 88.9 95.6 92.2 93.05"/><path fill="#fcd13f" d="M74.25 138.65 Q67.25 139.3 64.65 136.55 65.55 134.2 69.9 131.35 74.2 128.6 77.55 128.05 84.35 129.85 91.85 129.3 98.85 128.75 105.5 126.15 111.35 125.75 116.6 127.95 121.6 130.05 122.7 132.9 120.05 136.15 113.75 136.1 108.45 136.0 103.5 133.9 107.05 140.2 103.2 146.7 99.8 152.35 94.7 153.6 87.95 152.0 84.8 147.35 81.65 142.7 83.3 136.55 79.6 138.15 74.25 138.65"/><path fill="#ffffff" d="M94.7 153.6 Q97.8 152.85 100.6 150.0 100.55 155.5 97.7 163.65 L95.5 160.95 Q94.1 159.4 93.65 159.4 93.15 159.4 91.2 161.45 L88.0 165.2 Q86.7 158.55 86.65 149.4 89.8 152.5 94.7 153.6"/><path fill="#009144" d="M65.45 180.2 Q64.55 157.7 77.05 138.3 80.7 137.65 83.3 136.55 82.3 140.25 83.2 143.65 84.1 146.95 86.65 149.4 86.7 155.9 87.8 162.65 89.2 171.65 91.9 176.2 93.7 179.25 98.5 184.7 103.0 189.75 105.2 193.9 108.95 200.95 106.4 207.4 104.0 213.35 97.65 215.85 93.35 217.55 88.65 216.85 83.6 216.1 79.2 212.6 66.3 202.25 65.45 180.2"/><path fill="#a7d081" d="M88.65 216.85 Q93.35 217.55 97.65 215.85 106.35 217.3 112.75 209.8 118.8 202.85 121.25 190.1 133.35 205.25 137.0 223.6 141.15 244.55 131.85 261.0 126.95 269.65 117.95 274.75 109.65 279.5 99.7 280.25 L97.6 277.8 96.35 276.95 95.35 277.85 93.5 280.25 Q84.5 279.65 76.4 275.65 68.4 271.75 61.8 264.75 48.6 250.65 50.95 228.15 53.1 208.05 66.2 189.45 68.95 204.35 79.2 212.6 83.6 216.1 88.65 216.85"/><path fill="#009144" d="M104.7 142.55 Q105.75 137.9 103.5 133.9 108.25 135.95 113.0 136.1 120.2 149.45 122.15 164.8 123.9 178.8 121.05 191.3 118.25 203.4 112.1 210.15 105.65 217.15 97.65 215.85 104.0 213.35 106.4 207.4 108.95 200.95 105.2 193.9 103.05 189.85 98.45 184.7 93.7 179.45 91.9 176.2 100.4 161.95 100.6 150.0 103.75 146.75 104.7 142.55"/><path fill="#fcd13f" d="M113.2 278.9 L114.6 276.45 Q116.95 275.35 119.1 274.05 122.95 276.15 127.95 276.65 133.0 277.2 138.3 276.0 140.7 273.1 143.65 270.95 146.35 268.9 146.9 269.35 148.6 272.55 147.85 277.15 147.2 281.45 145.05 283.7 139.7 289.35 130.85 288.95 120.5 288.5 113.2 278.9"/><path fill="#a7d081" d="M93.65 159.4 Q94.1 159.4 95.5 160.95 L97.7 163.65 Q95.25 170.55 91.9 176.2 89.3 171.55 88.0 165.2 L91.2 161.45 Q93.15 159.4 93.65 159.4"/><path fill="#fcd13f" d="M99.7 280.25 Q107.6 279.65 114.6 276.45 111.45 282.6 106.65 288.1 100.6 294.9 96.2 294.9 91.8 294.9 85.35 288.5 78.9 282.1 77.3 276.1 85.1 279.7 93.5 280.25 L95.35 277.85 96.35 276.95 97.6 277.8 99.7 280.25"/><path fill="#a7d081" d="M122.15 167.2 Q143.55 178.45 156.8 196.3 174.45 219.95 167.9 245.4 165.0 256.6 160.2 262.65 156.2 267.75 148.05 272.25 147.75 270.1 146.9 269.35 146.35 268.9 143.65 270.95 140.7 273.1 138.3 276.0 133.0 277.2 127.95 276.65 122.95 276.15 119.1 274.05 127.25 268.95 131.85 261.0 141.15 244.55 137.0 223.6 133.35 205.25 121.25 190.1 123.35 179.25 122.15 167.2"/><path fill="#009144" d="M195.05 261.35 Q191.9 264.5 181.55 266.2 169.2 268.3 156.65 265.75 163.9 258.5 167.3 248.7 170.85 238.6 169.7 227.5 167.05 202.2 142.35 180.9 162.85 192.4 178.45 215.35 194.9 239.5 195.05 261.35"/><path fill="#f2984f" d="M95.3 17.9 Q99.7 19.8 103.15 23.5 106.65 27.3 108.25 31.95 101.95 31.85 96.1 34.8 89.9 37.95 85.4 44.0 80.9 50.15 80.35 59.75 67.0 60.0 54.45 52.9 42.7 46.25 42.15 39.9 41.75 35.15 45.3 28.1 49.05 20.6 53.15 19.8 54.0 19.8 55.5 24.1 60.15 19.9 67.0 17.55 73.6 15.25 80.75 15.2 78.1 16.0 74.25 18.05 69.95 20.3 70.35 21.15 L77.2 20.85 91.7 20.05 Q93.5 20.0 94.35 19.45 95.05 18.95 95.3 17.9"/><path fill="#f2984f" d="M107.25 20.5 Q108.1 23.35 108.5 26.45 108.95 29.8 108.65 31.95 L108.25 31.95 Q105.7 24.5 99.95 20.45 96.15 17.7 90.35 16.25 93.75 15.6 99.05 16.95 104.2 18.3 107.25 20.5"/><path fill="#fcd13f" d="M127.2 29.95 Q129.3 27.8 134.35 27.65 139.5 27.5 141.85 29.85 139.1 29.75 133.45 35.2 129.25 39.3 127.45 41.9 124.25 37.3 119.2 34.7 114.3 32.15 108.65 31.95 109.15 28.1 108.0 22.7 106.7 16.95 104.6 15.35 108.65 15.65 112.25 19.2 114.8 21.75 116.6 25.25 117.65 22.85 120.8 19.05 124.05 15.1 126.25 13.75 L127.2 14.1 127.2 29.95"/><path fill="#f2984f" d="M172.05 81.7 Q172.95 83.05 171.85 86.25 170.75 89.35 168.4 92.45 164.9 97.0 161.25 98.2 153.75 100.7 141.35 95.3 128.95 89.95 123.65 81.9 131.25 72.0 132.1 60.65 132.95 49.8 127.45 41.9 L128.4 40.65 Q140.85 36.9 150.4 41.65 148.4 42.4 148.45 44.3 148.45 46.3 150.7 48.1 153.75 50.5 158.95 56.05 164.5 61.95 167.3 66.05 169.1 73.55 169.1 81.7 171.55 80.95 172.05 81.7"/><path fill="#a7d081" d="M84.2 81.6 Q87.4 89.0 92.2 93.05 86.95 97.1 74.8 102.75 59.35 109.95 49.9 110.55 47.3 109.65 45.35 104.3 43.45 99.05 42.85 91.65 41.55 73.9 48.1 62.0 64.5 67.45 80.4 66.3 81.1 74.45 84.2 81.6"/><path fill="#009144" d="M45.0 28.3 Q41.7 35.05 42.15 39.9 42.7 46.25 54.45 52.9 67.0 60.0 80.35 59.75 80.15 62.65 80.4 66.3 61.25 67.7 42.25 60.4 23.5 53.2 15.9 41.9 15.95 40.55 25.15 35.6 35.8 29.85 45.0 28.3"/><path fill="#a7d081" d="M51.65 110.65 Q55.7 110.2 64.95 106.55 64.7 121.9 60.4 133.65 54.7 149.0 42.45 156.35 39.1 158.35 35.1 158.55 31.35 158.75 28.5 157.3 25.55 155.8 24.85 153.15 24.1 150.25 26.4 146.85 27.9 144.6 32.1 139.95 L39.8 131.3 Q49.7 119.55 51.65 110.65"/><path fill="#a7d081" d="M57.7 139.05 Q61.7 131.05 63.55 120.95 69.8 126.0 77.55 128.05 74.2 128.6 69.9 131.35 65.55 134.2 64.65 136.55 66.25 138.25 69.9 138.65 L77.05 138.3 Q73.0 144.65 70.15 152.3 67.3 160.0 66.05 168.05 58.05 171.65 50.2 177.35 56.4 147.4 57.7 139.05"/><path fill="#fcd13f" d="M53.5 273.6 Q54.45 274.3 56.45 276.15 64.8 276.75 73.3 274.0 75.15 275.05 77.3 276.1 78.05 278.85 80.3 282.25 76.15 289.45 66.0 291.0 56.35 292.45 50.5 287.95 47.6 285.7 47.85 281.2 48.15 276.75 51.3 272.65 52.0 272.5 53.5 273.6"/><path fill="#a7d081" d="M47.9 179.0 Q56.85 172.2 66.05 168.05 64.3 179.55 66.2 189.45 47.5 216.05 50.35 239.75 53.05 262.05 73.3 274.0 64.8 276.75 56.45 276.15 54.45 274.3 53.5 273.6 52.0 272.5 51.3 272.65 50.4 272.9 49.35 274.9 39.5 272.3 32.45 265.35 25.6 258.6 21.85 248.3 12.1 221.3 30.3 196.65 37.35 187.05 47.9 179.0"/><path fill="#009144" d="M21.85 248.3 Q25.6 258.6 32.9 265.6 21.65 268.6 10.65 268.2 1.15 267.85 0.95 266.25 0.25 260.75 1.15 252.3 2.35 240.95 6.25 229.95 17.2 198.75 45.55 181.0 29.75 194.15 23.0 210.4 15.05 229.4 21.85 248.3"/><path fill="#f2984f" d="M85.4 44.0 Q91.15 36.25 99.45 33.4 107.25 30.7 114.9 32.95 122.65 35.2 127.25 41.65 132.3 48.6 132.05 58.35 131.65 75.05 118.9 87.4 113.7 92.4 108.05 94.9 102.5 97.35 98.75 96.45 93.15 95.15 88.5 89.0 84.1 83.2 81.85 74.95 79.55 66.5 80.3 58.5 81.1 49.8 85.4 44.0"/><path fill="#f2984f" d="M97.7 12.9 Q96.1 10.95 96.35 8.5 96.55 6.05 98.4 4.55 100.25 3.1 102.7 3.4 105.15 3.75 106.75 5.7 108.35 7.65 108.15 10.1 107.95 12.55 106.1 14.05 104.2 15.5 101.75 15.2 99.3 14.85 97.7 12.9"/><path fill="#ffffff" d="M88.05 29.45 Q87.1 28.35 87.2 27.0 87.3 25.65 88.45 24.8 89.6 23.95 91.1 24.15 92.55 24.3 93.55 25.4 94.55 26.55 94.4 27.9 94.3 29.3 93.15 30.1 92.05 30.95 90.55 30.75 89.05 30.55 88.05 29.45"/><path fill="#f2984f" d="M111.05 5.95 Q111.05 3.65 112.55 2.05 114.05 0.45 116.2 0.45 118.35 0.45 119.85 2.05 121.35 3.65 121.35 5.95 121.35 8.2 119.85 9.85 118.35 11.45 116.2 11.45 114.05 11.45 112.55 9.85 111.05 8.2 111.05 5.95"/><path fill="#f2984f" d="M123.55 8.4 Q123.55 5.75 125.35 3.9 127.15 2.05 129.75 2.05 132.3 2.05 134.15 3.9 135.95 5.8 135.95 8.4 135.95 11.05 134.15 12.95 132.3 14.8 129.75 14.8 127.15 14.8 125.35 12.95 123.55 11.05 123.55 8.4"/><path fill="#f2984f" d="M136.6 15.6 Q136.6 13.45 138.1 11.95 139.6 10.45 141.7 10.45 143.8 10.45 145.3 11.95 146.75 13.45 146.75 15.6 146.75 17.75 145.3 19.25 143.8 20.75 141.7 20.75 139.6 20.75 138.1 19.25 136.6 17.75 136.6 15.6"/><path fill="#f2984f" d="M141.75 27.5 Q141.75 24.95 143.55 23.15 145.35 21.35 147.95 21.35 150.5 21.35 152.35 23.15 154.15 24.95 154.15 27.5 154.15 30.05 152.35 31.85 150.5 33.65 147.95 33.65 145.35 33.65 143.55 31.85 141.75 30.05 141.75 27.5"/><path fill="#ffffff" d="M144.1 59.0 Q143.1 57.8 143.0 56.25 142.95 54.65 143.9 53.7 144.9 52.75 146.45 52.9 147.95 53.1 149.0 54.35 150.0 55.6 149.95 57.15 149.9 58.65 148.9 59.65 148.1 60.45 146.55 60.25 144.95 60.0 144.1 59.0"/><path fill="#ffffff" d="M112.25 39.45 Q113.15 36.65 115.85 37.5 118.55 38.35 118.55 41.95 118.55 45.05 115.3 52.85 112.45 59.7 109.95 63.8 109.45 64.6 108.85 64.5 108.2 64.35 108.35 63.3 108.9 58.2 110.1 50.7 111.45 41.95 112.25 39.45"/><path fill="#ffffff" d="M122.35 49.3 Q123.15 48.05 124.45 48.05 125.8 48.05 126.75 49.3 127.7 50.6 127.7 52.35 127.7 54.1 126.75 55.35 125.8 56.6 124.45 56.6 123.15 56.6 122.35 55.35 121.55 54.1 121.55 52.3 121.55 50.5 122.35 49.3"/><path fill="#ffffff" d="M98.95 42.85 Q99.85 41.45 101.4 40.9 L104.2 40.85 Q105.45 41.3 105.65 42.75 105.8 44.2 104.8 45.65 103.8 47.05 102.45 47.65 L99.8 47.7 Q98.55 47.1 98.3 45.65 98.0 44.2 98.95 42.85"/><path fill="#90b571" d="M168.4 130.7 Q168.35 134.7 162.3 137.4 156.4 140.0 150.25 139.0 140.55 137.4 131.25 126.5 138.75 132.25 149.2 133.3 159.2 134.3 168.4 130.7"/><path fill="#00803b" d="M138.75 98.1 Q132.35 95.7 129.8 94.9 L123.75 94.65 Q120.35 91.15 118.1 87.9 121.05 85.3 123.65 81.9 127.4 87.65 137.3 93.05 149.45 99.65 160.75 98.7 152.15 102.75 138.75 98.1"/><path fill="#90b571" d="M122.4 113.3 Q126.05 119.7 130.35 124.95 134.85 130.4 139.45 133.9 140.55 136.05 143.05 143.0 145.6 150.15 146.6 153.85 141.3 147.75 130.9 144.0 120.9 140.35 116.05 142.2 L113.0 136.1 Q116.3 136.2 118.85 135.35 121.4 134.5 122.7 132.9 121.6 130.05 116.6 127.95 111.35 125.75 105.5 126.15 110.95 124.0 115.25 120.7 119.7 117.4 122.4 113.3"/><path fill="#ffffff" d="M94.7 153.6 Q97.8 152.85 100.6 150.0 100.55 155.5 97.7 163.65 L95.5 160.95 Q94.1 159.4 93.65 159.4 93.15 159.4 91.2 161.45 L88.0 165.2 Q86.7 158.55 86.65 149.4 89.8 152.5 94.7 153.6"/><path fill="#90b571" d="M117.95 274.75 Q109.65 279.5 99.7 280.25 L97.6 277.8 96.35 276.95 95.35 277.85 93.5 280.25 Q84.5 279.65 76.4 275.65 68.4 271.75 61.8 264.75 56.25 258.85 53.45 251.2 69.95 264.4 94.25 261.9 115.25 259.7 137.15 246.6 135.55 254.35 131.85 261.0 126.95 269.65 117.95 274.75"/><path fill="#d9b536" d="M113.2 278.9 L114.6 276.45 Q116.95 275.35 119.1 274.05 L121.4 275.25 123.95 276.0 Q125.05 281.7 131.1 284.2 135.75 286.1 142.45 285.8 136.35 289.85 128.7 288.75 119.7 287.4 113.2 278.9"/><path fill="#d9b536" d="M85.6 288.75 Q91.5 290.2 96.85 289.95 102.75 289.65 107.3 287.3 100.8 294.9 96.2 294.9 94.1 294.9 91.2 293.2 88.45 291.55 85.6 288.75"/><path fill="#90b571" d="M133.6 257.55 Q142.75 258.35 152.1 254.75 161.15 251.25 168.15 244.45 166.05 253.2 162.9 258.45 157.85 266.8 148.05 272.25 147.75 270.1 146.9 269.35 146.35 268.9 143.65 270.95 140.7 273.1 138.3 276.0 133.0 277.2 127.95 276.65 122.95 276.15 119.1 274.05 125.15 270.25 129.2 265.0 131.55 261.9 133.6 257.55"/><path fill="#00803b" d="M166.6 250.65 Q168.25 256.6 177.6 259.9 185.8 262.8 194.15 262.1 189.7 265.05 180.05 266.4 168.35 268.1 156.65 265.75 163.15 259.15 166.6 250.65"/><path fill="#90b571" d="M42.5 148.25 Q51.3 145.1 58.05 139.0 52.45 150.3 42.45 156.35 36.55 159.9 30.35 158.05 24.15 156.15 24.7 151.0 33.75 151.4 42.5 148.25"/><path fill="#90b571" d="M64.65 136.55 Q66.25 138.25 69.9 138.65 L77.05 138.3 74.05 143.5 Q63.95 144.55 55.25 152.25 L57.7 139.05 Q61.7 131.05 63.55 120.95 69.8 126.0 77.55 128.05 74.2 128.6 69.9 131.35 65.55 134.2 64.65 136.55"/><path fill="#d9b536" d="M77.3 276.1 Q78.05 278.85 80.3 282.25 76.15 289.45 66.0 291.0 56.35 292.45 50.5 287.95 49.45 287.15 48.8 285.95 56.45 286.7 62.7 284.1 70.1 281.05 70.3 274.85 L73.3 274.0 Q75.15 275.05 77.3 276.1"/><path fill="#90b571" d="M33.7 266.5 Q27.2 260.7 23.3 251.85 30.85 257.6 40.1 259.95 49.35 262.35 58.65 260.95 64.45 268.8 73.3 274.0 64.8 276.75 56.45 276.15 54.45 274.3 53.5 273.6 52.0 272.5 51.3 272.65 50.4 272.9 49.35 274.9 40.4 272.5 33.7 266.5"/><path fill="#00803b" d="M0.95 266.25 Q10.4 263.95 14.65 261.35 21.7 257.05 22.25 249.35 26.0 259.05 32.9 265.6 21.65 268.6 10.65 268.2 1.15 267.85 0.95 266.25"/><path fill="#d18344" d="M96.55 10.75 Q98.5 13.35 102.5 12.9 106.85 12.4 107.9 7.85 108.45 9.55 107.95 11.25 107.45 12.95 106.1 14.05 103.35 16.25 100.2 14.75 97.35 13.4 96.55 10.75"/><path fill="#ffffff" d="M88.05 29.45 Q87.1 28.35 87.2 27.0 87.3 25.65 88.45 24.8 89.6 23.95 91.1 24.15 92.55 24.3 93.55 25.4 94.55 26.55 94.4 27.9 94.3 29.3 93.15 30.1 92.05 30.95 90.55 30.75 89.05 30.55 88.05 29.45"/><path fill="#d18344" d="M111.5 8.25 Q113.6 9.9 117.0 9.1 120.4 8.35 121.35 6.05 121.3 8.3 119.8 9.9 118.3 11.45 116.2 11.45 114.65 11.45 113.4 10.55 112.15 9.7 111.5 8.25"/><path fill="#d18344" d="M129.75 14.8 Q128.35 14.8 126.85 14.0 125.0 13.0 124.05 11.35 127.3 12.85 130.5 12.35 133.5 11.8 135.85 9.55 135.45 11.8 133.75 13.3 132.0 14.8 129.75 14.8"/><path fill="#d18344" d="M136.8 16.9 Q139.15 18.3 142.0 18.3 144.85 18.3 146.6 16.9 146.15 18.6 144.8 19.65 143.45 20.75 141.7 20.75 139.95 20.75 138.6 19.65 137.2 18.55 136.8 16.9"/><path fill="#d18344" d="M141.95 28.8 Q144.5 31.1 148.3 31.15 151.65 31.15 153.8 29.55 153.15 31.35 151.55 32.5 149.95 33.65 147.95 33.65 146.3 33.65 144.6 32.45 142.7 31.05 141.95 28.8"/><path fill="#d9b536" d="M75.25 128.9 L77.55 128.05 84.55 129.1 Q89.15 129.5 92.4 129.2 L99.95 127.9 Q103.95 126.95 106.5 125.8 L107.5 125.9 Q108.6 126.05 109.15 126.35 102.35 132.0 92.3 132.95 81.85 133.9 75.25 128.9"/><path fill="#0f141b" d="M63.25 121.3 Q63.05 121.15 63.45 120.7 63.8 120.25 64.0 120.4 76.95 131.35 96.85 127.75 105.3 126.25 112.0 122.25 118.75 118.25 121.45 113.05 L122.05 113.1 Q122.55 113.4 122.45 113.6 119.9 118.85 113.35 123.1 106.7 127.4 98.25 129.15 78.0 133.3 63.25 121.3"/><path fill="#0f141b" d="M91.5 92.45 Q91.7 92.3 92.3 93.2 92.95 94.05 92.75 94.2 87.25 98.65 70.45 105.55 53.2 112.65 49.65 111.4 46.75 110.35 44.55 104.8 42.4 99.4 41.7 91.85 40.1 73.75 47.05 61.9 L48.05 61.95 Q48.9 62.25 48.75 62.45 42.15 73.8 43.5 91.5 44.05 98.75 45.85 103.95 47.7 109.2 50.05 110.0 53.05 111.05 69.65 103.9 86.0 96.9 91.5 92.45"/><path fill="#0f141b" d="M45.2 27.25 Q45.45 27.2 45.4 28.05 L45.1 28.9 Q36.2 30.25 25.95 35.75 17.75 40.15 16.5 42.05 17.2 44.0 22.3 47.95 28.2 52.55 36.05 56.4 57.9 67.1 80.1 65.4 80.35 65.4 80.35 66.1 80.4 66.8 80.15 66.85 56.95 69.15 34.0 57.35 25.65 53.05 19.85 48.15 14.65 43.75 14.8 41.95 14.9 40.2 24.75 34.8 35.9 28.65 45.2 27.25"/><path fill="#0f141b" d="M53.3 18.75 Q54.7 18.45 56.45 24.65 58.1 30.4 58.35 35.05 58.45 36.55 58.0 36.85 57.6 37.2 57.5 35.65 57.3 32.15 55.65 26.5 54.05 21.0 53.1 20.4 49.4 21.3 45.8 28.1 42.3 34.85 42.7 39.85 43.25 46.05 54.75 52.5 67.05 59.4 80.1 58.95 80.35 58.95 80.2 59.75 80.1 60.55 79.85 60.55 66.1 61.0 53.6 53.5 42.15 46.6 41.55 39.95 41.1 34.5 45.0 27.15 49.0 19.6 53.3 18.75"/><path fill="#0f141b" d="M84.9 14.15 Q93.35 15.0 99.45 19.1 106.15 23.6 108.6 31.1 L108.15 31.5 107.5 31.45 Q105.2 24.35 98.5 20.25 92.5 16.55 84.05 15.95 76.1 15.4 68.4 17.7 60.6 20.05 55.8 24.55 55.6 24.75 55.4 24.1 55.15 23.5 55.3 23.3 60.7 18.2 68.85 15.75 76.75 13.35 84.9 14.15"/><path fill="#0f141b" d="M90.5 15.75 Q94.05 15.15 99.15 16.4 104.5 17.7 107.45 20.2 L107.5 21.1 107.2 21.65 Q104.9 19.7 100.55 18.25 96.1 16.7 92.7 16.75 L91.25 16.3 90.5 15.75"/><path fill="#0f141b" d="M126.1 13.35 Q126.3 13.25 126.55 13.65 126.75 14.1 126.55 14.25 124.6 15.45 121.25 19.45 118.05 23.35 117.15 25.45 L116.7 25.85 Q116.3 25.9 116.1 25.5 114.45 22.35 111.8 19.8 108.85 17.0 106.0 16.2 107.95 19.35 108.85 24.8 109.6 29.5 109.2 32.05 109.2 32.3 108.5 32.2 107.75 32.15 107.8 31.9 108.35 28.25 107.1 22.6 105.8 17.0 104.25 15.8 103.55 15.25 103.9 14.95 L104.65 14.75 Q107.95 15.0 111.4 17.7 114.6 20.2 116.6 23.65 118.0 21.2 121.05 17.9 124.1 14.6 126.1 13.35"/><path fill="#0f141b" d="M126.6 14.15 Q126.6 13.85 127.2 13.9 127.8 14.0 127.8 14.55 L127.95 28.4 Q130.6 26.6 135.15 27.05 139.55 27.45 142.25 29.45 L142.3 30.0 142.05 30.35 Q139.6 30.25 134.5 35.15 129.95 39.55 128.1 42.9 127.9 43.15 126.95 41.5 128.95 38.8 132.3 35.45 137.25 30.55 140.35 29.55 137.7 28.25 133.75 28.35 129.45 28.45 127.6 30.35 127.2 30.75 126.9 30.6 L126.6 30.0 126.6 21.95 126.6 14.15"/><path fill="#0f141b" d="M137.55 18.55 L138.0 18.85 138.3 19.3 Q136.05 26.0 136.0 27.8 L134.5 27.55 136.8 20.1 Q134.25 21.2 131.55 22.65 128.25 24.35 127.45 25.2 127.25 25.4 127.1 24.6 126.95 23.8 127.1 23.7 128.55 22.5 132.45 20.7 135.35 19.35 137.55 18.55"/><path fill="#0f141b" d="M115.8 11.3 L116.55 11.2 117.3 11.4 119.4 16.25 120.65 20.05 Q120.65 20.3 120.05 20.3 119.5 20.3 119.45 20.05 L118.45 16.95 116.55 12.45 Q116.05 13.65 114.15 21.0 L113.0 19.65 Q114.55 13.65 115.8 11.3"/><path fill="#0f141b" d="M106.3 6.05 Q104.85 4.3 102.65 4.0 100.45 3.7 98.75 5.05 97.15 6.3 96.9 8.4 96.65 10.7 98.15 12.55 99.6 14.3 101.85 14.6 104.05 14.9 105.7 13.55 107.3 12.3 107.55 10.2 107.8 7.9 106.3 6.05 M102.75 2.85 Q105.45 3.2 107.2 5.35 108.75 7.2 108.55 10.1 108.35 13.0 106.45 14.5 104.4 16.1 101.7 15.75 99.0 15.4 97.25 13.25 95.7 11.3 95.8 8.6 95.95 5.75 98.0 4.1 100.05 2.5 102.75 2.85"/><path fill="#0f141b" d="M116.25 12.0 Q113.85 12.0 112.15 10.25 110.45 8.45 110.45 5.95 110.45 3.45 112.2 1.7 113.9 -0.05 116.3 0.0 118.65 0.05 120.35 1.85 122.0 3.6 122.0 6.1 121.95 8.55 120.3 10.25 118.6 12.0 116.25 12.0 M120.75 5.95 Q120.75 3.95 119.4 2.5 118.1 1.05 116.2 1.05 114.3 1.05 112.95 2.5 111.6 3.9 111.6 5.95 111.6 8.0 112.95 9.4 114.3 10.85 116.2 10.85 118.1 10.85 119.4 9.4 120.75 8.0 120.75 5.95"/><path fill="#0f141b" d="M135.35 8.4 Q135.35 6.05 133.7 4.35 132.05 2.65 129.75 2.65 127.45 2.65 125.75 4.35 124.1 6.05 124.1 8.4 124.1 10.8 125.75 12.5 127.4 14.2 129.75 14.2 132.05 14.2 133.7 12.5 135.35 10.8 135.35 8.4 M134.55 3.5 Q136.6 5.6 136.65 8.5 136.7 11.4 134.65 13.5 132.65 15.55 129.8 15.5 126.95 15.45 124.95 13.35 122.95 11.25 122.95 8.35 122.95 5.5 124.9 3.5 126.9 1.45 129.7 1.45 132.5 1.45 134.55 3.5"/><path fill="#0f141b" d="M146.2 15.6 Q146.2 13.7 144.85 12.35 143.55 11.0 141.7 11.0 139.85 11.0 138.5 12.35 137.2 13.7 137.2 15.6 137.2 17.5 138.5 18.8 139.85 20.15 141.7 20.15 143.55 20.15 144.85 18.8 146.2 17.45 146.2 15.6 M145.6 19.8 Q144.05 21.2 141.8 21.2 139.55 21.2 137.9 19.8 136.15 18.25 136.05 15.6 136.0 13.25 137.65 11.55 139.35 9.85 141.7 9.85 144.05 9.85 145.7 11.55 147.35 13.25 147.35 15.6 147.35 18.25 145.6 19.8"/><path fill="#0f141b" d="M147.95 21.9 Q145.6 21.9 143.95 23.55 142.3 25.2 142.3 27.5 142.3 29.8 143.95 31.45 145.6 33.1 147.95 33.1 150.3 33.1 151.9 31.45 153.55 29.85 153.55 27.5 153.55 25.2 151.9 23.55 150.3 21.9 147.95 21.9 M143.0 22.75 Q144.9 20.75 147.7 20.75 150.55 20.75 152.6 22.75 154.7 24.75 154.7 27.5 154.7 30.3 152.85 32.35 150.9 34.4 148.15 34.4 145.35 34.4 143.25 32.35 141.15 30.3 141.15 27.5 141.15 24.7 143.0 22.75"/><path fill="#0f141b" d="M115.7 33.8 Q107.7 31.05 99.55 33.95 91.45 36.8 85.9 44.35 81.5 50.3 80.95 60.0 80.35 69.7 83.8 79.1 86.35 86.05 90.3 90.45 94.25 94.8 98.9 95.9 101.75 96.55 106.2 94.8 110.7 93.1 115.15 89.6 120.9 85.15 124.95 79.0 131.2 69.55 131.45 58.35 131.7 49.6 127.45 43.0 123.2 36.4 115.7 33.8 M84.3 43.65 Q90.05 35.85 98.9 32.85 107.65 29.85 116.1 32.7 123.95 35.4 128.55 42.55 133.2 49.7 132.95 58.85 132.7 70.35 126.2 79.95 122.15 85.95 116.1 90.65 111.45 94.2 106.55 96.0 101.7 97.7 98.6 97.0 93.65 95.85 89.45 91.3 85.15 86.75 82.5 79.6 79.15 70.45 79.25 61.15 79.35 50.4 84.3 43.65"/><path fill="#0f141b" d="M166.7 61.15 Q169.85 70.65 169.7 81.45 169.7 81.7 169.15 81.65 168.55 81.65 168.55 81.4 168.65 69.8 164.55 59.7 160.4 49.65 153.4 44.45 142.9 36.75 128.45 41.3 128.25 41.35 128.45 40.7 L128.85 39.95 Q136.2 37.8 142.8 38.65 149.55 39.5 154.8 43.4 162.8 49.35 166.7 61.15"/><path fill="#0f141b" d="M134.9 33.2 Q141.3 32.7 146.45 35.8 150.7 38.45 153.0 42.75 L152.2 42.5 150.95 41.65 Q148.5 38.4 144.55 36.35 139.9 33.95 135.0 34.35 134.75 34.4 134.7 33.8 134.65 33.25 134.9 33.2"/><path fill="#0f141b" d="M169.75 80.65 Q171.9 80.1 172.7 81.25 173.7 82.7 172.45 86.35 171.15 90.15 168.1 93.75 164.8 97.65 161.4 98.75 153.5 101.35 141.05 96.2 128.5 90.95 123.35 82.7 123.2 82.5 123.7 81.9 124.2 81.3 124.3 81.5 129.3 89.4 141.5 94.75 153.65 100.1 161.05 97.65 164.2 96.6 167.3 92.95 170.15 89.55 171.35 85.95 172.25 83.35 171.8 82.45 171.4 81.65 169.75 82.1 167.25 82.8 162.6 85.35 L157.55 88.35 Q156.2 89.4 156.45 88.65 156.7 87.85 158.1 86.8 159.3 85.85 162.6 83.95 167.05 81.4 169.75 80.65"/><path fill="#0f141b" d="M167.95 92.8 L168.45 91.85 Q168.95 91.0 169.1 91.15 171.85 95.85 173.0 105.9 174.1 115.2 173.0 116.2 172.45 116.75 166.65 116.1 159.45 115.35 152.1 113.0 129.6 105.95 117.8 88.75 117.65 88.55 118.1 88.0 118.5 87.4 118.65 87.6 130.0 103.15 150.75 110.75 157.8 113.3 164.8 114.5 L172.2 115.25 Q172.65 112.95 171.8 106.25 170.75 97.6 167.95 92.8"/><path fill="#0f141b" d="M167.45 132.25 Q168.9 128.9 164.55 125.65 L157.9 121.5 Q148.8 116.05 143.2 112.1 134.4 105.95 130.9 101.45 L133.15 102.25 135.85 103.6 Q142.55 110.95 158.5 120.5 L165.5 124.85 Q170.55 128.65 168.8 132.85 167.3 136.45 161.5 138.7 155.7 140.95 150.15 140.05 138.5 138.15 127.3 122.95 116.75 108.55 113.05 91.7 L113.55 91.35 114.2 91.45 Q117.6 106.95 128.25 121.4 139.45 136.7 150.35 138.45 155.5 139.3 160.8 137.35 166.1 135.45 167.45 132.25"/><path fill="#0f141b" d="M118.1 88.75 L118.95 89.05 120.05 90.1 Q123.2 96.6 127.2 102.95 131.65 110.0 134.45 112.25 135.9 113.45 135.5 113.65 135.1 113.85 133.05 112.35 130.45 110.35 126.05 103.45 121.45 96.35 118.1 88.75"/><path fill="#0f141b" d="M64.3 106.5 Q64.3 106.25 65.1 106.1 L65.9 106.15 Q65.9 121.15 60.6 134.35 54.4 149.8 42.75 156.8 38.25 159.5 32.95 159.35 27.9 159.15 25.45 156.6 21.95 152.9 24.75 147.65 26.25 144.85 32.25 138.25 40.6 129.1 43.55 125.25 49.75 117.05 51.05 110.5 L51.65 110.4 52.15 110.75 Q50.85 117.5 45.05 125.6 41.7 130.25 34.1 138.6 28.55 144.75 26.8 147.9 24.2 152.6 26.7 155.25 28.95 157.65 33.35 157.95 38.05 158.3 42.15 155.85 53.5 149.0 59.35 134.05 64.3 121.4 64.3 106.5"/><path fill="#0f141b" d="M55.6 109.6 Q55.6 109.35 56.2 109.35 56.75 109.35 56.75 109.6 56.9 113.65 53.85 120.6 51.05 126.9 48.05 130.6 L45.65 132.95 Q45.0 133.15 46.75 131.05 49.75 127.4 52.65 120.5 55.7 113.3 55.6 109.6"/><path fill="#0f141b" d="M56.8 140.55 Q56.85 140.15 57.7 139.3 L58.5 138.7 Q57.95 143.75 51.25 176.75 L50.0 177.8 Q48.75 178.65 48.8 178.4 55.8 147.15 56.8 140.55"/><path fill="#0f141b" d="M138.85 134.2 L139.55 134.1 Q140.35 134.25 140.45 134.45 144.7 142.15 148.05 160.65 151.0 176.95 151.0 186.55 151.0 186.8 150.1 186.1 149.15 185.4 149.15 185.15 149.15 176.5 146.0 159.55 142.5 140.9 138.85 134.2"/><path fill="#0f141b" d="M77.35 127.5 L77.95 128.0 Q78.4 128.55 78.15 128.55 75.15 128.85 70.85 131.5 66.55 134.15 65.4 136.4 67.8 138.5 73.65 138.1 78.85 137.8 83.1 135.9 83.35 135.8 83.55 136.3 83.8 136.85 83.55 136.95 79.3 139.3 73.05 139.55 66.25 139.9 63.75 137.2 63.5 136.95 63.65 136.6 64.6 134.1 69.3 131.05 73.85 128.15 77.35 127.5"/><path fill="#0f141b" d="M84.7 133.1 Q85.3 133.0 84.75 134.15 83.45 137.05 83.4 140.15 83.35 143.2 84.55 145.65 87.35 151.2 94.7 153.0 97.8 152.15 100.4 149.4 103.0 146.6 103.95 143.1 105.85 136.4 100.9 131.45 99.75 130.3 100.25 130.25 100.8 130.15 102.0 131.35 107.2 136.65 105.2 143.95 103.8 149.05 99.75 151.95 97.25 153.7 94.9 154.15 93.5 154.45 89.85 152.6 85.2 150.3 83.35 146.5 80.6 141.05 83.6 134.4 84.15 133.15 84.7 133.1"/><path fill="#0f141b" d="M123.75 132.8 L123.65 133.4 Q120.95 136.7 115.35 136.95 109.8 137.15 103.55 134.4 103.4 134.35 103.15 133.55 102.85 132.7 103.05 132.8 108.95 135.8 114.6 135.55 119.65 135.3 122.0 132.75 120.65 130.1 115.85 128.25 110.75 126.3 105.25 126.75 105.05 126.75 105.0 126.2 104.95 125.6 105.15 125.6 111.3 125.1 117.05 127.45 122.55 129.7 123.75 132.8"/><path fill="#0f141b" d="M76.3 138.1 L77.15 138.15 Q77.8 138.4 77.65 138.6 66.25 156.0 66.2 177.95 66.15 201.1 79.6 212.15 84.75 216.4 90.8 216.55 96.3 216.7 100.7 213.55 105.1 210.35 106.35 205.35 107.75 199.85 104.7 194.2 102.45 190.05 97.6 184.7 91.85 178.2 89.75 173.05 86.2 164.5 86.05 149.4 86.05 149.2 87.05 149.65 L88.0 150.3 Q87.55 164.35 90.85 172.6 92.9 177.65 98.5 183.9 L102.35 188.3 Q104.6 191.0 106.05 193.7 109.4 199.95 107.85 205.9 106.4 211.3 101.45 214.65 96.55 218.0 90.5 217.8 83.9 217.6 78.5 213.15 64.1 201.3 64.45 177.45 64.8 155.6 76.3 138.1"/><path fill="#0f141b" d="M78.25 157.15 Q77.25 168.75 79.65 180.05 82.1 192.0 87.65 200.3 93.75 209.4 102.5 212.25 102.75 212.35 102.55 212.9 L102.15 213.35 Q93.25 210.45 87.0 201.1 81.3 192.65 78.7 180.45 76.2 168.85 77.15 157.05 78.1 145.05 82.25 136.6 L82.9 136.65 Q83.4 136.9 83.3 137.1 79.2 145.4 78.25 157.15"/><path fill="#0f141b" d="M99.85 150.5 Q99.8 150.25 100.4 150.2 100.95 150.1 101.0 150.35 101.45 154.25 98.75 162.65 96.05 171.1 92.6 176.6 92.45 176.8 91.85 176.05 91.25 175.3 91.4 175.1 94.85 170.5 97.6 162.05 100.25 154.05 99.85 150.5"/><path fill="#0f141b" d="M106.3 135.35 Q106.15 135.15 106.65 134.85 L107.3 134.75 Q112.1 142.95 111.6 162.85 111.05 183.75 104.55 192.9 104.4 193.15 104.15 192.8 103.9 192.45 104.05 192.2 110.25 183.45 110.6 162.8 110.9 143.25 106.3 135.35"/><path fill="#0f141b" d="M112.55 136.45 Q112.45 136.25 112.95 136.0 113.45 135.7 113.55 135.9 123.4 154.0 123.25 176.1 123.1 196.9 114.7 208.55 111.2 213.45 107.2 215.35 103.05 217.35 97.8 216.45 97.6 216.4 97.7 215.85 97.8 215.25 98.0 215.3 106.85 216.9 113.35 207.85 121.65 196.35 121.9 176.0 122.2 154.25 112.55 136.45"/><path fill="#0f141b" d="M120.65 190.3 Q120.5 190.1 121.0 189.75 121.45 189.35 121.6 189.55 134.05 205.15 137.95 223.45 142.4 244.5 133.05 261.0 128.6 268.9 120.15 274.2 111.7 279.45 101.85 280.6 L100.25 280.75 99.65 279.65 101.7 279.45 Q111.25 278.35 119.15 273.35 127.0 268.35 131.3 260.7 140.5 244.4 136.4 223.7 132.8 205.4 120.65 190.3"/><path fill="#0f141b" d="M66.0 188.7 L66.65 188.8 Q67.1 189.15 66.95 189.35 54.0 207.6 51.6 227.5 48.9 250.15 62.25 264.35 68.7 271.2 76.8 275.2 84.85 279.1 93.6 279.7 L93.05 280.8 Q84.15 280.1 75.8 276.05 67.45 271.95 60.85 265.0 47.1 250.35 49.5 228.6 51.6 208.9 66.0 188.7"/><path fill="#0f141b" d="M66.25 167.1 Q66.5 167.05 66.4 167.95 66.35 168.85 66.1 168.95 55.25 173.75 45.75 181.6 36.25 189.5 29.8 199.05 22.9 209.2 20.5 220.0 17.4 234.15 22.4 248.1 26.15 258.5 33.75 265.3 40.65 271.55 49.85 274.05 49.45 274.7 49.3 275.45 39.75 273.0 32.65 266.75 24.75 259.85 20.9 249.15 15.75 234.9 18.7 220.25 21.05 208.75 27.9 198.6 34.4 189.0 44.85 180.45 55.15 172.05 66.25 167.1"/><path fill="#0f141b" d="M73.35 273.65 Q73.6 273.6 74.0 274.2 74.4 274.75 74.15 274.85 65.7 277.5 56.7 276.7 L55.6 275.2 Q64.8 276.35 73.35 273.65"/><path fill="#0f141b" d="M118.4 274.75 Q118.2 274.65 118.85 274.1 119.5 273.6 119.7 273.7 123.45 275.6 128.45 276.05 133.7 276.45 139.15 275.15 L137.65 277.15 126.95 277.45 Q121.95 276.8 118.4 274.75"/><path fill="#0f141b" d="M121.95 167.9 Q121.75 167.8 121.9 166.9 122.0 166.0 122.2 166.1 146.25 178.65 159.85 199.15 175.25 222.35 169.25 245.7 166.6 256.0 160.7 263.35 155.45 269.9 148.1 273.6 148.3 272.45 148.05 271.7 154.75 268.0 159.5 261.8 164.85 254.85 167.35 245.25 173.25 222.3 158.55 199.95 145.55 180.25 121.95 167.9"/><path fill="#0f141b" d="M93.65 158.5 Q94.45 158.5 96.25 160.7 L98.2 163.45 Q98.3 163.65 97.8 163.95 L97.2 164.05 95.35 161.6 93.65 160.0 Q93.1 160.3 91.35 162.3 89.5 164.45 88.6 165.95 L88.0 165.85 87.6 165.35 Q88.55 163.75 90.45 161.4 92.8 158.5 93.65 158.5"/><path fill="#0f141b" d="M48.65 177.95 L48.05 179.05 47.05 180.35 Q29.85 191.35 18.7 207.25 10.2 219.35 5.8 233.45 2.75 243.0 1.7 253.9 0.85 262.65 1.5 266.05 2.8 267.5 11.55 267.7 22.2 267.9 33.0 264.95 33.25 264.9 33.55 265.6 33.85 266.35 33.6 266.4 22.9 269.3 12.15 268.95 3.6 268.7 1.05 267.15 L0.4 266.4 Q-0.3 263.15 0.1 255.5 0.75 244.0 4.35 232.7 15.65 196.95 48.65 177.95"/><path fill="#0f141b" d="M143.7 182.5 L141.75 179.65 Q172.3 197.0 187.7 230.4 192.8 241.45 195.2 252.15 197.2 260.85 196.35 261.8 193.95 264.35 183.1 266.45 169.4 269.05 156.7 266.2 156.45 266.15 157.0 265.5 L157.7 264.95 Q169.85 267.65 182.4 265.3 192.2 263.45 194.6 261.0 195.25 259.15 193.15 250.85 190.6 240.65 185.6 230.05 170.85 198.9 143.7 182.5"/><path fill="#0f141b" d="M85.6 287.55 Q91.85 294.35 96.2 294.35 99.65 294.35 105.7 287.95 111.3 281.95 113.8 276.5 113.9 276.3 115.1 275.95 L116.25 275.85 Q112.95 282.7 106.85 289.0 100.3 295.8 96.15 295.8 91.35 295.8 84.65 288.8 78.2 282.05 76.75 276.2 76.7 275.95 77.6 276.0 78.55 276.0 78.6 276.25 79.7 281.1 85.6 287.55"/><path fill="#0f141b" d="M90.55 284.8 Q91.85 281.5 93.7 278.6 95.5 275.85 96.25 275.85 97.25 275.85 99.3 278.4 101.65 281.35 102.95 285.2 103.3 286.25 103.05 286.9 102.75 287.6 102.4 286.55 101.2 283.15 99.0 280.25 97.3 278.05 96.45 277.6 95.65 278.2 94.15 280.35 92.2 283.1 91.1 286.0 90.6 287.3 90.3 286.7 90.05 286.05 90.55 284.8"/><path fill="#0f141b" d="M112.7 279.95 Q112.55 279.75 113.05 279.0 113.5 278.3 113.65 278.5 120.4 287.8 130.85 288.15 139.7 288.45 144.6 283.3 146.85 280.95 147.4 276.0 147.95 271.25 146.6 269.9 145.4 270.0 142.05 272.95 138.25 276.3 136.45 279.75 135.55 281.4 135.4 280.7 135.2 280.0 136.1 278.3 138.05 274.7 141.5 271.45 144.7 268.45 146.4 268.15 L147.25 268.3 Q149.1 269.85 148.7 275.6 148.35 281.55 145.75 284.4 140.9 289.8 131.4 289.85 120.05 289.85 112.7 279.95"/><path fill="#0f141b" d="M55.5 274.65 L59.45 278.3 Q60.6 279.2 60.6 279.8 60.55 280.4 59.4 279.5 L55.35 276.0 Q51.9 273.1 51.4 273.2 49.9 273.55 48.65 278.85 47.3 284.75 50.85 287.5 56.65 292.0 66.3 290.2 76.25 288.35 79.75 281.45 L80.3 281.8 Q80.75 282.35 80.65 282.55 77.05 289.65 66.75 291.65 56.55 293.6 50.05 288.6 46.15 285.55 47.55 278.7 48.8 272.3 51.15 271.75 52.05 271.55 55.5 274.65"/><path fill="#f2984f" d="M71.85 107.95 Q72.4 106.85 73.05 106.75 73.65 106.65 74.5 107.5 76.0 108.9 77.35 111.45 78.85 114.3 79.3 117.1 79.8 119.8 78.95 121.8 78.05 123.95 75.9 124.25 73.8 124.5 72.2 122.75 70.7 121.15 70.35 118.7 69.95 116.2 70.45 112.9 70.9 109.85 71.85 107.95"/><path fill="#0f141b" d="M74.1 107.9 Q73.4 107.25 73.05 107.35 72.75 107.4 72.35 108.2 71.45 110.1 71.0 113.1 70.5 116.35 70.9 118.65 71.25 120.8 72.55 122.3 73.95 123.9 75.8 123.65 77.45 123.45 78.25 121.9 79.25 120.15 78.75 117.2 78.35 114.5 76.9 111.75 75.6 109.3 74.1 107.9 M72.8 106.35 Q73.6 106.15 74.8 107.3 76.45 108.85 77.85 111.3 79.55 114.2 80.0 117.0 80.55 120.35 79.35 122.5 78.2 124.55 75.95 124.8 73.55 125.15 71.75 123.3 70.1 121.6 69.65 118.9 69.25 116.4 69.85 113.0 70.4 109.95 71.4 107.85 72.05 106.5 72.8 106.35"/><path fill="#f2984f" d="M112.75 104.4 Q114.7 107.1 115.4 109.7 116.1 112.4 115.4 114.4 114.65 116.6 112.5 117.1 110.45 117.6 108.7 116.0 107.1 114.6 106.5 112.2 105.9 109.75 106.15 106.45 106.4 103.45 107.15 101.5 107.6 100.4 108.05 100.25 108.5 100.15 109.4 100.85 111.1 102.15 112.75 104.4"/><path fill="#0f141b" d="M114.85 109.85 Q114.15 107.3 112.2 104.65 110.6 102.5 109.05 101.3 108.1 100.6 107.7 101.75 106.95 103.6 106.75 106.6 106.5 109.8 107.1 112.05 107.65 114.2 109.05 115.55 110.6 117.0 112.4 116.55 114.0 116.2 114.75 114.5 115.55 112.6 114.85 109.85 M113.1 104.05 Q115.2 106.85 115.95 109.55 116.85 112.95 115.95 115.05 115.1 117.1 112.65 117.7 110.3 118.25 108.35 116.6 106.55 115.05 105.9 112.45 105.4 110.4 105.6 107.25 105.8 103.8 106.75 101.3 107.2 100.2 107.8 99.95 108.55 99.7 109.7 100.6 111.4 101.9 113.1 104.05"/><path fill="#ffffff" d="M72.9 116.6 Q72.7 115.65 73.1 114.9 73.5 114.1 74.2 114.0 74.9 113.9 75.5 114.5 76.1 115.05 76.3 116.0 76.5 116.95 76.1 117.7 75.7 118.5 75.0 118.6 74.3 118.7 73.7 118.15 73.1 117.55 72.9 116.6"/><path fill="#ffffff" d="M108.75 109.9 Q108.55 108.9 108.85 108.1 109.2 107.3 109.9 107.15 110.6 106.95 111.25 107.55 111.9 108.1 112.15 109.05 112.4 110.05 112.05 110.85 111.7 111.65 111.0 111.8 110.3 112.0 109.65 111.4 109.0 110.85 108.75 109.9"/><path fill="#0f141b" d="M90.9 80.6 Q90.8 80.0 91.9 78.9 94.5 76.3 98.65 73.6 103.6 70.35 105.5 70.8 107.3 71.25 109.25 77.4 110.9 82.65 111.0 85.25 111.05 86.6 110.6 87.05 110.2 87.5 110.15 86.2 110.05 83.7 108.15 78.25 106.15 72.6 105.1 72.3 103.7 71.95 99.0 74.9 94.65 77.65 92.1 80.15 91.0 81.25 90.9 80.6"/></g></svg>