<?xml version='1.0' encoding='utf-8'?>
<svg xmlns="http://www.w3.org/2000/svg" version="1.1" width="230px" height="178px" viewBox="-0.2 -0.5 230.4 177.7"><g><path fill="#525557" d="M164.65 59.8 Q165.05 67.65 162.2 72.15 159.6 76.3 155.6 75.7 154.75 81.4 151.05 86.85 146.55 93.45 139.85 96.0 133.35 98.55 126.75 98.5 119.6 98.4 110.45 95.3 101.7 92.3 94.65 87.05 88.55 82.5 86.5 78.55 84.85 75.35 85.25 73.4 85.6 71.85 87.45 70.6 L90.55 68.45 Q91.7 67.25 91.95 65.0 93.9 46.8 99.65 31.95 106.7 13.65 118.1 5.35 123.95 1.1 127.85 0.75 130.65 0.5 131.7 2.2 132.2 2.95 132.05 4.1 L131.2 7.15 Q130.65 8.95 130.25 11.3 129.65 14.95 130.2 17.1 130.8 19.4 132.05 20.25 132.8 20.8 135.9 21.9 149.95 26.85 156.9 35.9 163.95 45.1 164.65 59.8"/><path fill="#525557" d="M118.25 82.65 Q104.5 106.7 78.7 122.55 53.45 138.05 29.85 137.8 17.4 137.7 9.8 132.65 1.65 127.3 1.15 117.45 0.95 112.3 2.6 108.25 4.3 102.75 7.6 99.1 10.5 95.85 14.45 94.3 19.05 91.2 24.25 91.1 29.05 91.0 33.05 93.5 37.0 95.9 38.8 99.85 40.7 104.1 39.5 108.7 60.8 108.45 80.05 102.1 102.25 94.75 114.0 81.35 L118.25 82.65"/><path fill="#525557" d="M206.9 90.05 L212.1 90.35 Q214.95 91.1 217.0 92.9 L218.7 93.3 Q224.05 94.85 226.7 99.9 229.1 104.45 228.4 109.9 226.65 123.45 212.45 126.9 198.35 130.35 179.65 122.2 170.25 118.15 160.3 110.1 149.9 101.65 144.1 93.0 L148.1 89.7 Q155.9 98.1 169.8 104.15 184.6 110.65 197.2 110.1 195.4 109.15 194.2 107.45 192.95 105.8 192.55 103.85 191.05 96.8 195.75 92.4 200.4 88.1 206.9 90.05"/><path fill="#525557" d="M120.45 97.1 L120.3 102.3 120.3 108.45 120.65 115.3 Q121.35 123.65 123.1 131.25 128.65 155.65 142.5 163.65 144.9 160.9 148.35 160.5 150.85 160.2 153.0 161.8 155.15 163.4 155.5 165.8 156.05 169.85 153.5 172.75 151.1 175.45 147.6 175.7 140.3 176.25 131.05 167.25 120.95 157.45 115.9 142.55 111.25 128.8 110.05 113.45 109.25 103.15 110.05 94.7 L120.45 97.1"/><path fill="#e7380e" d="M122.7 32.55 Q128.1 32.55 131.7 38.2 135.35 43.95 135.35 52.7 135.35 61.6 131.6 67.3 127.95 72.8 122.7 72.8 117.9 72.8 114.35 68.1 114.6 69.9 114.1 71.2 113.6 72.5 112.45 72.95 110.95 73.6 109.25 72.45 107.45 71.25 106.4 68.7 105.35 66.2 105.7 64.1 106.05 62.1 107.6 61.4 109.5 60.65 111.5 62.5 110.05 57.9 110.05 52.7 110.05 43.8 113.7 38.15 117.25 32.55 122.7 32.55"/><path fill="#ffe792" d="M166.4 131.05 Q167.4 142.85 164.2 152.65 161.2 161.75 155.5 166.35 155.5 165.0 154.7 163.6 153.1 160.75 149.3 160.45 144.7 160.1 141.95 164.5 140.6 166.75 140.15 169.0 130.2 166.45 123.55 156.0 116.9 145.55 116.1 131.15 115.3 115.8 122.1 105.5 128.55 95.65 138.15 95.65 148.05 95.65 156.5 106.05 165.15 116.65 166.4 131.05"/><path fill="#38383a" d="M110.15 95.35 L114.7 88.9 Q126.1 93.6 136.9 91.4 148.0 89.1 153.7 80.35 153.85 82.0 151.9 85.6 149.85 89.5 147.05 92.2 L143.6 94.75 141.35 96.1 Q137.7 94.7 132.7 96.6 L128.45 98.8 Q119.65 98.9 110.15 95.35"/><path fill="#38383a" d="M101.55 91.55 Q89.2 85.1 86.15 78.2 85.2 76.05 85.3 74.1 L85.6 72.6 Q86.7 74.9 93.15 79.2 100.55 84.2 108.65 87.1 L101.55 91.55"/><path fill="#38383a" d="M153.85 169.25 L155.55 167.8 Q155.55 172.2 151.85 174.5 147.55 177.2 140.9 174.45 134.9 171.95 130.0 166.25 L126.3 161.0 Q130.95 165.55 136.05 167.7 138.65 168.8 140.25 168.95 L140.75 167.35 141.1 166.5 Q141.75 167.65 143.65 168.8 146.05 170.2 149.05 170.45 151.65 170.65 153.85 169.25"/><path fill="#38383a" d="M228.8 108.5 Q228.8 116.1 222.45 121.85 214.55 129.0 200.75 128.1 187.95 127.25 172.8 119.3 168.1 116.8 163.65 113.9 L160.2 111.5 Q157.5 106.7 153.15 102.75 L149.4 99.7 Q147.85 98.25 146.3 95.8 L145.05 93.7 146.55 92.35 Q152.0 99.25 164.5 108.15 183.5 121.65 200.4 122.9 217.0 124.15 224.55 116.45 228.35 112.6 228.8 108.5"/><path fill="#38383a" d="M196.95 102.25 Q196.4 104.65 198.45 108.15 L200.65 111.15 Q195.2 110.3 192.85 105.55 191.7 103.2 192.0 100.1 L192.55 97.5 Q192.5 99.35 193.65 100.65 194.9 102.05 196.95 102.25"/><path fill="#38383a" d="M206.5 113.05 Q203.8 112.6 202.15 111.7 200.25 110.6 198.25 108.2 196.55 106.1 196.7 102.35 L197.25 99.0 Q197.3 101.45 199.15 102.9 201.0 104.25 203.7 104.05 L203.7 107.45 Q204.2 111.25 206.5 113.05"/><path fill="#38383a" d="M215.4 107.1 L215.45 110.35 Q215.55 113.2 214.45 114.05 212.95 115.3 210.5 114.9 207.7 114.4 205.55 111.75 203.6 109.4 203.65 105.5 L204.0 102.85 Q203.85 105.55 206.75 107.05 210.25 108.9 215.4 107.1"/><path fill="#38383a" d="M73.8 125.95 Q61.3 132.65 48.45 135.8 36.15 138.8 26.1 137.9 9.8 136.45 3.9 126.75 2.05 123.75 1.45 120.25 L1.2 117.4 Q1.45 119.35 3.95 122.0 6.85 125.1 11.35 127.45 23.35 133.75 39.2 131.3 60.55 128.05 77.5 118.3 98.0 106.55 118.2 82.3 103.05 110.15 73.8 125.95"/><path fill="#38383a" d="M33.95 97.45 L35.75 98.7 Q37.75 100.85 38.6 105.2 39.6 110.05 37.45 114.55 36.4 116.8 35.1 118.05 35.7 114.65 34.7 110.55 L33.55 107.15 Q34.65 104.35 34.65 101.35 34.7 98.6 33.95 97.45"/><path fill="#38383a" d="M38.5 98.9 Q41.1 104.0 39.15 109.5 39.3 104.95 38.05 102.4 L36.8 100.7 Q37.0 99.1 36.6 97.3 L36.05 95.6 38.5 98.9"/><path fill="#38383a" d="M32.15 104.3 Q36.3 110.35 35.25 117.65 34.2 124.95 29.05 125.8 24.75 126.55 22.35 123.3 L20.85 119.85 Q27.9 118.3 30.75 111.15 31.6 108.9 31.95 106.4 L32.15 104.3"/><path fill="#dbc77f" d="M163.05 153.45 Q165.0 150.4 165.75 147.75 164.7 154.65 160.2 161.2 157.95 164.45 155.9 166.35 155.9 165.05 154.65 163.25 L153.4 161.75 Q159.2 159.55 163.05 153.45"/><path fill="#dbc77f" d="M118.2 139.15 Q120.1 143.9 122.95 148.1 131.3 160.5 143.55 162.6 L142.15 164.15 Q140.65 166.25 140.25 168.95 126.15 164.65 119.95 148.9 118.0 143.95 117.1 138.45 L116.6 134.25 Q116.85 135.85 118.2 139.15"/><path fill="#38383a" d="M110.15 95.35 Q112.75 96.75 116.95 97.6 L120.65 98.2 120.4 108.1 Q120.2 109.35 118.05 114.05 113.9 112.7 111.45 108.85 L109.8 105.25 110.15 95.35"/><path fill="#0f141b" d="M131.2 38.7 Q127.75 33.0 122.65 33.0 117.5 33.0 114.1 38.6 110.7 44.2 110.7 52.7 110.7 57.9 112.15 62.25 112.5 63.35 112.1 63.4 L111.15 62.8 Q110.5 62.05 109.5 61.8 L107.85 61.85 Q106.55 62.4 106.3 64.3 106.0 66.25 106.95 68.5 108.0 70.9 109.6 72.0 111.05 73.0 112.25 72.5 113.15 72.1 113.6 70.9 114.1 69.7 113.85 68.2 113.7 67.05 114.1 67.05 L114.9 67.7 Q118.5 72.45 122.6 72.45 127.7 72.45 131.2 66.7 134.65 61.0 134.65 52.7 134.65 44.35 131.2 38.7 M122.7 31.85 Q128.5 31.85 132.4 37.75 136.3 43.65 136.3 52.65 136.3 61.55 132.35 67.55 128.45 73.5 122.7 73.5 118.5 73.5 115.05 69.9 114.7 72.75 112.75 73.6 111.0 74.35 108.75 72.95 106.5 71.6 105.45 69.1 104.3 66.35 104.9 63.95 105.45 61.6 107.3 60.8 L110.35 60.9 Q109.15 56.2 109.15 52.65 109.15 43.65 113.0 37.75 116.85 31.85 122.7 31.85"/><path fill="#0f141b" d="M124.35 49.0 Q124.9 50.0 124.9 51.65 124.9 53.4 124.3 54.35 123.75 55.25 122.95 55.25 122.15 55.25 121.6 54.3 121.05 53.25 121.05 51.65 121.05 49.95 121.6 48.95 122.1 48.0 122.95 48.0 123.8 48.0 124.35 49.0"/><path fill="#0f141b" d="M108.9 96.1 L110.65 94.65 Q121.6 98.4 129.9 97.7 L127.1 99.7 Q119.6 99.75 110.15 96.55 L108.9 96.1 M166.05 59.6 Q166.3 65.05 164.55 69.4 162.85 73.6 160.0 75.4 158.25 76.5 156.2 76.4 155.25 81.65 152.05 86.8 148.15 93.2 142.35 96.2 L139.05 95.6 139.6 95.35 Q145.95 92.9 150.3 86.65 153.85 81.6 154.8 76.25 L153.05 75.55 Q151.95 74.95 150.9 74.85 L149.3 75.05 148.4 75.2 Q148.2 75.0 148.85 74.45 149.65 73.75 150.95 73.7 152.3 73.65 153.7 74.3 156.75 75.8 159.25 74.25 161.7 72.7 163.0 68.85 164.25 65.05 164.0 59.8 163.3 45.4 156.5 36.45 149.7 27.45 135.7 22.55 L135.05 22.35 Q132.3 21.4 131.45 20.7 130.15 19.65 129.55 17.25 128.95 15.0 129.55 11.3 129.95 8.7 130.55 6.95 L131.35 4.1 Q131.45 3.15 131.1 2.6 130.75 1.75 129.35 1.5 125.5 0.85 118.5 5.95 106.1 15.0 98.95 35.75 94.35 49.2 92.6 65.1 92.35 67.3 91.25 68.6 L88.55 70.65 87.75 71.15 Q86.15 72.2 85.85 73.4 85.4 75.15 87.0 78.25 88.4 80.9 92.15 84.25 96.65 88.2 102.55 91.25 L100.9 92.4 Q95.4 89.35 91.2 85.55 87.3 82.05 85.75 79.1 84.1 75.9 84.45 73.65 84.8 71.45 87.1 70.0 L87.9 69.5 Q89.45 68.55 90.05 67.4 90.65 66.3 90.85 64.25 92.55 47.35 97.4 33.8 104.5 13.95 117.4 4.55 122.55 0.8 126.85 0.1 130.85 -0.5 132.35 1.8 133.0 2.8 132.9 3.95 L132.2 7.45 Q130.6 13.6 131.45 16.9 131.95 18.8 133.15 19.65 L136.65 21.15 137.3 21.35 Q151.5 26.35 158.45 35.65 165.35 44.85 166.05 59.6"/><path fill="#0f141b" d="M169.9 103.65 Q184.4 110.05 196.8 109.5 197.1 109.45 197.3 110.15 197.5 110.8 197.2 110.8 183.7 111.75 168.95 105.1 155.9 99.25 147.95 90.6 147.75 90.4 148.3 89.9 148.8 89.45 149.0 89.65 156.4 97.75 169.9 103.65"/><path fill="#0f141b" d="M146.9 98.0 L144.1 94.2 Q143.9 94.0 144.5 93.6 145.05 93.2 145.2 93.45 147.6 96.9 150.8 100.35 L146.9 98.0"/><path fill="#0f141b" d="M218.5 93.95 Q213.6 92.5 209.7 94.9 205.45 97.5 204.5 103.4 204.15 105.55 204.65 107.75 205.15 110.05 206.4 111.75 207.7 113.6 210.0 114.2 212.35 114.8 213.7 113.5 215.0 112.2 214.75 109.25 214.5 106.55 216.15 105.2 217.35 104.15 218.65 104.3 220.1 104.45 220.95 105.5 221.8 106.55 221.75 108.2 221.7 109.05 221.35 109.05 220.95 109.1 220.9 108.25 220.85 107.15 220.15 106.45 219.5 105.75 218.55 105.7 217.7 105.65 216.9 106.45 216.0 107.45 216.15 109.15 216.45 112.75 214.65 114.5 212.9 116.15 210.15 115.7 207.2 115.2 205.25 112.55 203.85 110.6 203.2 108.1 202.5 105.5 202.85 103.15 203.85 96.6 208.95 93.45 213.35 90.75 219.0 92.35 224.8 94.05 227.65 99.6 230.2 104.5 229.5 110.05 228.85 115.0 226.15 119.0 223.45 122.95 219.25 125.35 212.15 129.4 201.45 128.85 190.7 128.3 179.1 123.25 169.95 119.3 160.2 111.25 L156.8 106.25 Q162.2 111.1 168.2 115.05 174.3 119.15 179.9 121.55 191.25 126.45 201.45 127.05 211.7 127.65 218.5 123.8 226.45 119.3 227.7 109.8 228.35 104.75 226.2 100.4 223.7 95.45 218.5 93.95"/><path fill="#0f141b" d="M117.85 82.35 Q118.4 81.45 118.75 81.75 119.15 82.05 118.65 83.0 112.3 95.0 102.1 105.5 92.05 115.85 79.4 123.65 67.2 131.15 54.2 135.2 41.25 139.15 29.7 139.05 16.45 138.95 8.5 133.15 0.55 127.4 0.0 117.65 -0.2 112.85 1.5 108.35 3.2 103.95 6.35 101.0 9.35 98.15 13.5 96.9 17.6 95.65 22.0 96.2 28.45 97.0 32.5 102.6 36.1 107.7 36.2 114.05 36.25 120.0 34.0 123.35 31.95 126.4 28.6 126.7 24.45 127.1 22.15 124.75 20.75 123.35 19.85 120.6 19.3 118.85 18.35 117.9 L17.0 117.15 Q15.55 116.95 14.45 118.4 13.65 119.5 13.15 121.2 12.95 122.0 12.6 121.8 12.25 121.6 12.35 120.75 12.7 118.45 13.9 117.05 15.2 115.5 17.15 115.75 20.15 116.2 21.3 119.9 22.15 122.65 23.3 123.75 25.05 125.4 28.3 125.1 30.85 124.85 32.4 122.3 34.2 119.4 34.15 114.35 34.05 108.35 31.05 103.8 27.65 98.65 21.8 97.95 17.75 97.45 14.0 98.65 10.2 99.85 7.4 102.5 4.5 105.2 3.05 109.05 1.65 112.9 1.85 117.45 2.35 126.55 9.75 131.8 17.2 137.0 29.9 137.1 41.2 137.2 53.7 133.3 66.2 129.4 78.35 121.95 90.6 114.45 100.8 104.15 110.8 94.1 117.85 82.35"/><path fill="#0f141b" d="M113.7 81.0 Q114.5 80.1 114.85 80.45 115.15 80.75 114.35 81.65 102.2 95.85 80.3 103.3 60.75 109.9 39.45 109.45 39.15 109.45 39.15 108.75 39.15 108.05 39.4 108.05 60.0 107.85 79.0 101.7 101.45 94.45 113.7 81.0"/><path fill="#0f141b" d="M14.4 93.25 Q19.9 91.2 25.9 92.35 30.5 93.15 34.05 96.2 37.55 99.25 39.0 103.5 40.4 107.45 39.3 111.8 38.25 116.1 35.2 119.15 35.0 119.35 34.85 118.6 34.7 117.9 34.9 117.65 37.25 115.0 37.9 111.3 38.55 107.6 37.3 103.95 35.95 100.05 32.9 97.5 29.85 94.95 25.6 94.15 19.45 93.05 14.55 94.95 6.75 97.9 3.15 107.95 L2.6 108.0 Q2.05 107.75 2.15 107.5 5.5 96.55 14.4 93.25"/><path fill="#0f141b" d="M14.05 93.7 Q19.55 90.0 25.75 90.25 31.35 90.5 35.35 93.7 39.15 96.75 40.2 101.4 41.2 105.95 39.35 110.6 L38.7 110.65 Q38.2 110.4 38.3 110.15 39.95 106.05 38.85 102.0 37.8 97.95 34.25 95.15 30.55 92.2 25.8 91.65 20.0 91.0 14.8 94.55 14.55 94.75 14.2 94.3 13.8 93.9 14.05 93.7"/><path fill="#0f141b" d="M207.8 89.05 Q212.85 88.45 217.25 92.25 217.5 92.45 217.05 92.95 216.6 93.5 216.35 93.3 212.75 90.15 208.05 90.7 203.0 91.15 200.1 95.2 198.2 97.85 197.7 101.0 197.25 104.2 198.4 106.9 200.4 111.65 206.2 112.45 L206.7 113.15 Q206.9 113.85 206.6 113.8 203.2 113.4 200.55 111.7 197.85 109.95 196.75 107.3 195.45 104.3 196.0 100.6 196.5 97.0 198.65 94.05 200.2 91.95 202.7 90.65 205.05 89.35 207.8 89.05"/><path fill="#0f141b" d="M195.15 91.55 Q197.4 89.5 200.7 88.95 203.85 88.4 207.1 89.4 207.35 89.5 207.15 90.15 206.95 90.85 206.7 90.75 L201.1 90.45 Q198.35 91.0 196.3 92.85 194.15 94.85 193.35 97.7 192.6 100.5 193.25 103.7 193.8 106.45 195.8 108.3 197.8 110.2 200.45 110.5 L201.15 111.2 Q201.55 111.9 201.25 111.9 197.6 111.65 194.9 109.35 192.2 107.1 191.5 103.9 190.75 100.35 191.75 97.05 192.7 93.75 195.15 91.55"/><path fill="#0f141b" d="M109.3 95.6 Q109.35 95.3 110.0 95.35 110.7 95.4 110.65 95.7 109.9 104.2 110.7 113.75 111.9 128.6 116.55 142.3 121.45 156.7 131.15 166.4 140.25 175.5 147.55 175.0 151.25 174.8 153.3 172.15 155.35 169.55 154.8 165.9 154.5 163.75 152.6 162.35 150.65 160.95 148.4 161.15 145.55 161.5 143.5 163.6 141.1 166.0 140.5 170.15 140.4 170.95 140.0 170.9 139.55 170.9 139.6 170.1 139.8 165.4 142.55 162.6 144.9 160.2 148.25 159.8 151.05 159.5 153.4 161.25 155.8 163.05 156.2 165.7 156.8 170.1 154.45 173.2 152.05 176.35 147.7 176.65 140.0 177.2 130.25 167.8 119.8 157.7 114.75 142.95 107.2 120.75 109.3 95.6"/><path fill="#0f141b" d="M119.8 98.3 Q119.8 98.0 120.5 98.0 121.15 98.0 121.15 98.3 L121.1 102.4 Q121.05 106.75 121.15 107.95 121.15 108.25 120.4 108.5 119.65 108.75 119.6 108.5 L119.65 102.65 119.8 98.3"/><path fill="#0f141b" d="M167.6 130.85 L167.85 136.45 Q167.85 145.15 165.35 152.6 163.05 159.5 159.05 164.1 157.65 165.85 155.45 167.5 L155.35 165.55 Q158.95 162.55 161.75 156.7 167.0 145.8 165.7 131.1 164.5 117.2 156.25 106.8 147.95 96.35 138.15 96.35 131.15 96.35 125.55 102.25 120.9 107.1 118.65 114.7 116.35 122.2 116.8 131.15 117.35 141.05 120.95 149.5 124.55 158.0 130.45 163.05 135.1 167.0 140.35 168.35 L140.15 169.95 Q133.75 168.45 128.95 164.25 122.75 158.95 119.05 150.2 115.35 141.5 114.8 131.1 114.3 122.1 117.0 114.05 119.6 106.25 124.55 101.05 130.45 94.75 138.15 94.75 148.5 94.75 157.4 105.6 166.35 116.5 167.6 130.85"/><path fill="#0f141b" d="M132.0 154.3 Q149.7 150.9 161.05 153.95 161.7 154.15 161.6 154.5 161.5 154.9 160.85 154.75 151.2 152.65 132.15 155.1 131.45 155.2 131.35 154.85 131.3 154.45 132.0 154.3"/><path fill="#0f141b" d="M148.9 146.1 Q148.9 145.85 149.5 145.85 150.05 145.85 150.05 146.1 L150.2 153.15 149.05 153.2 148.9 146.1"/><path fill="#0f141b" d="M131.1 120.9 Q128.65 121.3 126.7 122.15 124.7 123.05 123.9 124.15 123.25 125.15 123.45 126.1 123.75 127.95 126.8 128.75 L133.1 129.1 136.3 128.5 Q139.25 127.65 140.5 126.15 141.3 125.2 141.25 124.2 141.15 123.0 139.75 122.05 138.3 121.1 135.9 120.8 133.65 120.55 131.1 120.9 M163.3 125.3 Q163.6 124.45 162.9 123.35 161.5 121.15 157.95 120.55 154.8 120.0 152.95 121.5 152.05 122.25 152.05 123.2 152.15 126.5 157.2 127.5 L161.1 127.3 Q162.9 126.65 163.3 125.3 M163.05 122.0 Q164.65 123.9 164.15 125.6 163.65 127.4 161.6 128.25 159.6 129.15 157.0 128.65 153.95 128.05 152.5 126.65 L153.65 133.6 154.7 140.7 Q154.7 143.35 153.4 144.9 152.1 146.45 149.75 146.5 146.55 146.6 144.3 144.55 142.6 143.0 142.25 141.2 L142.05 138.9 142.05 136.15 Q142.15 129.3 141.75 126.35 140.45 128.35 137.2 129.6 L133.25 130.6 Q129.25 131.0 126.2 130.0 122.75 128.85 122.3 126.3 122.0 124.8 122.95 123.35 124.05 121.85 126.45 120.75 128.6 119.8 130.95 119.45 135.2 118.85 138.5 120.0 142.15 121.3 142.65 124.15 143.15 126.05 143.35 129.8 L143.55 136.05 143.85 140.75 Q144.4 142.95 145.9 144.15 147.4 145.3 149.7 145.25 151.3 145.2 152.3 143.9 153.35 142.6 153.25 140.6 L150.9 123.35 Q150.85 121.6 152.95 120.3 155.15 118.95 158.15 119.45 161.3 119.95 163.05 122.0"/></g></svg>