<?xml version='1.0' encoding='utf-8'?>
<svg xmlns="http://www.w3.org/2000/svg" version="1.1" width="581px" height="425px" viewBox="-0.6 -1.85 580.85 424.7"><g><path fill="#525557" d="M502.7 47.3 Q492.2 49.0 488.3 50.2 483.55 51.65 480.15 54.65 477.1 57.35 474.3 63.7 471.75 69.5 471.0 74.3 476.35 68.95 481.3 65.75 489.55 60.35 502.15 56.2 514.75 52.1 527.2 51.1 535.95 50.4 542.2 51.25 546.7 51.85 552.2 55.75 557.9 59.8 559.2 63.8 560.5 67.6 559.6 70.6 558.9 73.05 556.6 75.3 553.9 78.1 550.85 78.7 545.5 79.75 534.1 77.15 520.25 74.0 508.75 74.9 497.45 75.85 490.1 80.55 L500.35 79.85 Q512.65 79.55 523.0 81.6 533.15 83.6 538.7 86.6 540.55 87.55 543.75 90.3 546.45 92.6 548.85 98.2 552.2 105.85 548.35 110.1 544.9 113.8 543.4 114.4 539.0 116.05 531.2 112.0 521.7 107.05 512.6 105.05 501.6 102.55 492.05 104.65 496.3 105.0 503.3 107.2 513.7 110.5 519.4 115.6 526.65 122.1 529.25 127.8 532.25 134.25 528.3 137.8 524.3 141.45 521.0 141.85 517.95 142.15 514.6 139.75 L499.65 128.65 Q497.0 126.75 494.35 126.55 489.15 126.1 482.05 130.55 470.25 138.0 459.75 142.95 447.85 148.25 439.35 152.5 433.75 155.3 422.45 161.75 410.85 168.3 407.5 170.6 397.05 177.85 398.1 182.4 398.7 184.95 402.75 187.6 L408.95 191.35 Q412.7 193.9 413.9 195.3 416.35 198.15 415.7 201.95 414.65 208.25 412.15 211.7 408.0 217.4 398.6 219.3 389.85 221.1 383.2 218.95 376.1 215.75 371.35 214.5 347.35 208.05 338.75 214.45 336.7 216.0 335.65 218.05 334.05 221.15 333.2 227.45 332.15 235.7 331.25 245.65 330.2 257.1 330.35 260.25 330.45 263.1 330.0 271.45 L329.35 283.15 329.05 290.0 Q329.35 292.95 332.0 293.75 340.4 296.2 342.1 297.0 350.45 300.7 357.55 308.45 362.35 313.65 364.15 318.8 366.45 325.3 364.8 333.3 L362.2 346.35 Q362.05 351.15 367.0 354.5 372.25 358.1 379.25 359.35 L388.45 359.1 Q391.6 357.5 393.95 353.5 396.75 348.6 395.65 343.65 394.9 340.35 393.7 338.1 392.4 335.75 390.15 333.8 383.6 328.3 381.6 326.15 375.55 319.7 374.95 314.0 374.25 307.7 379.35 302.3 385.1 296.35 395.45 294.95 405.05 293.7 415.15 294.85 419.75 295.35 431.1 297.6 441.85 299.75 448.85 299.95 460.05 300.2 464.65 295.95 469.1 291.75 471.5 284.7 472.65 281.4 473.55 276.15 L474.45 267.55 Q475.1 260.55 475.7 258.55 476.85 254.85 480.0 252.05 483.9 248.65 489.0 248.65 494.25 248.65 497.55 253.2 500.55 257.3 500.55 262.65 500.55 271.75 499.3 277.55 496.95 288.25 490.45 292.3 L493.55 290.65 Q497.7 288.75 502.9 287.4 519.5 283.15 540.35 286.3 560.8 289.35 569.7 295.6 575.75 299.85 578.2 307.75 579.15 310.95 578.0 314.2 576.5 318.4 571.7 319.55 566.9 320.7 563.25 320.3 557.85 319.7 549.5 315.95 540.95 312.1 530.85 310.6 L515.5 310.15 Q524.45 309.8 538.8 316.9 552.35 323.6 557.95 330.15 563.0 336.05 565.6 343.45 568.05 350.4 567.1 354.75 566.15 359.15 561.75 362.4 557.15 365.85 552.65 364.65 548.9 363.65 544.9 356.05 L538.4 344.15 Q530.8 334.1 521.3 330.3 518.35 329.1 515.55 328.7 L513.35 328.5 Q518.05 330.15 522.75 333.65 529.7 338.8 534.3 346.55 538.9 354.3 539.55 363.75 540.0 370.3 538.65 375.5 537.8 378.75 535.55 381.0 533.55 383.05 531.4 383.45 526.45 384.35 523.85 379.0 521.05 370.95 518.9 365.85 516.05 359.25 511.45 353.8 508.15 349.95 505.6 348.25 509.6 355.05 511.15 363.9 512.4 371.0 510.05 377.7 507.45 384.95 502.5 385.15 497.8 385.3 495.25 381.55 493.35 378.7 493.1 374.55 492.45 364.15 489.7 357.9 484.25 345.55 462.0 335.95 459.7 334.95 451.7 329.9 444.05 325.1 435.2 321.5 424.9 317.25 415.35 317.15 405.8 317.0 401.45 321.0 398.15 324.05 402.15 332.9 L405.95 341.0 Q408.1 345.95 408.7 349.7 410.05 358.2 404.65 363.1 399.75 367.6 389.65 368.75 381.15 369.7 373.95 366.75 369.9 365.05 362.4 359.85 357.8 356.6 356.9 349.85 L356.85 340.3 Q356.85 329.95 356.55 328.05 354.95 318.25 347.95 312.55 340.75 306.8 335.3 305.8 332.4 305.3 329.1 306.3 327.25 306.9 326.2 311.25 325.05 316.0 326.25 320.75 L328.45 330.1 Q329.6 334.8 330.8 336.9 332.7 340.25 333.55 341.3 335.15 343.25 337.55 344.4 340.9 345.95 342.75 347.95 345.3 350.7 345.75 354.75 L346.9 364.3 Q346.95 370.65 343.85 378.9 340.5 387.75 336.55 390.5 334.0 392.3 324.55 394.55 310.95 397.8 280.2 403.7 L265.4 406.55 Q253.9 408.3 246.4 407.55 L232.3 406.15 Q226.2 404.9 220.85 400.35 215.5 395.8 214.1 389.25 213.75 387.5 213.15 376.2 212.75 368.05 211.3 359.0 209.7 348.75 207.85 344.9 205.35 339.65 203.45 337.65 200.25 334.25 193.6 331.85 184.75 328.65 169.75 331.8 155.05 334.9 149.0 340.8 143.3 346.3 142.75 352.55 142.35 356.6 144.45 364.15 145.55 368.15 148.05 375.15 149.7 381.05 148.05 385.4 146.3 390.0 137.7 390.55 131.3 391.0 123.95 389.25 118.45 387.95 114.8 383.65 111.1 379.2 110.2 372.6 109.4 366.8 104.6 362.45 100.9 359.05 98.5 358.8 94.9 368.15 100.05 380.55 102.75 387.05 108.25 394.65 111.8 399.55 111.15 402.75 110.25 407.35 108.95 408.9 107.55 410.5 104.15 410.7 99.6 410.95 97.3 410.6 93.45 410.0 90.4 407.55 L90.4 410.0 Q89.95 416.85 86.45 419.8 83.85 422.05 79.8 421.8 76.0 421.6 72.6 416.75 68.4 410.8 65.1 398.15 61.95 386.2 63.65 372.7 64.7 364.15 67.55 355.75 60.55 365.7 59.65 382.5 59.4 386.7 59.25 393.9 59.0 399.45 57.85 401.55 55.05 406.65 48.25 406.05 42.3 405.5 38.6 402.0 34.85 398.5 33.9 391.4 32.7 382.35 36.65 369.7 40.55 357.3 47.85 347.3 52.9 340.35 60.25 333.95 49.35 338.4 41.4 347.85 36.35 353.9 31.85 363.2 28.8 369.4 26.25 371.8 23.4 374.5 18.8 375.0 14.45 375.55 10.3 372.55 6.7 369.9 5.05 366.1 1.15 356.7 7.7 346.55 16.05 333.65 32.8 322.95 45.85 314.55 70.4 308.95 77.35 307.35 80.75 306.15 85.95 304.25 90.2 301.0 93.9 298.1 99.2 289.75 L106.1 279.05 Q112.05 271.85 118.9 272.7 123.85 273.35 129.95 278.55 134.35 282.35 133.85 288.4 133.45 293.1 130.2 298.6 127.9 302.45 122.35 307.3 L111.4 316.2 Q106.3 320.35 107.8 324.45 108.75 327.05 112.85 330.15 115.4 332.05 115.55 334.4 L114.75 340.05 Q114.0 345.2 114.15 346.9 114.55 350.95 117.9 356.7 121.5 362.8 125.05 365.2 128.2 367.35 130.95 366.35 133.25 365.55 133.35 363.05 133.45 361.0 132.15 358.85 129.9 355.15 129.25 353.45 127.65 349.15 128.75 345.1 130.2 339.85 133.95 336.4 138.65 332.05 149.25 328.0 159.05 324.25 172.75 323.6 181.05 323.2 189.05 323.9 192.95 324.2 195.2 324.0 199.75 323.55 200.85 321.25 202.25 318.25 196.05 307.5 L190.85 299.05 Q187.2 293.2 185.65 289.9 183.6 285.6 181.9 280.9 180.15 275.95 179.65 272.8 177.05 257.7 175.05 253.75 174.0 251.65 171.7 244.7 L168.3 234.45 Q167.15 231.1 165.5 229.8 164.65 229.15 161.8 228.2 L156.8 227.3 Q153.6 226.75 152.2 225.6 148.55 222.55 146.9 219.0 145.85 216.65 144.0 216.4 141.75 216.15 136.1 218.2 122.45 223.2 109.4 239.1 102.7 247.25 95.55 248.05 90.55 248.65 80.55 245.15 72.05 242.2 64.2 234.2 56.35 226.2 49.6 213.7 43.35 202.1 42.25 195.3 41.35 189.75 43.8 186.2 45.75 183.35 50.7 183.5 54.45 183.6 58.35 185.15 61.45 186.35 64.45 186.6 67.65 186.9 69.2 185.95 70.9 184.85 71.3 181.95 71.75 178.75 70.25 175.35 L66.4 165.4 Q63.5 158.35 60.7 155.25 52.4 145.95 43.55 134.65 39.8 129.9 30.7 122.65 21.15 115.0 12.35 110.05 3.85 105.25 1.45 98.55 -0.6 92.75 2.3 87.8 4.6 83.85 7.05 82.6 8.65 81.75 11.8 81.75 16.7 81.75 29.25 93.35 34.35 98.15 37.2 99.9 39.2 101.15 41.95 101.85 36.9 98.7 28.6 86.15 21.1 74.75 16.3 64.3 12.15 55.2 11.6 48.7 11.15 42.85 13.65 38.65 16.05 34.7 21.25 33.65 26.45 32.6 30.05 35.2 37.45 40.55 42.75 56.6 45.5 65.1 50.35 74.1 54.85 82.5 55.95 82.25 57.0 82.05 52.6 68.6 48.1 54.85 41.7 38.9 38.05 29.85 38.8 23.1 39.35 18.3 42.75 12.7 45.5 8.2 49.7 5.85 53.85 3.55 57.3 4.55 61.7 5.8 64.25 8.95 68.7 14.3 70.25 26.2 71.15 33.2 72.1 48.1 72.7 57.45 74.2 60.85 75.85 64.65 77.85 66.55 L79.5 67.7 Q79.35 64.6 79.45 60.0 79.65 50.85 80.8 43.4 81.95 32.65 82.7 27.85 84.05 19.85 88.2 12.7 96.7 -1.85 106.45 1.6 111.8 3.45 115.15 9.5 119.35 17.15 115.45 25.95 114.2 28.85 110.2 36.1 106.45 42.95 104.6 47.35 98.6 61.9 100.9 77.5 101.95 74.0 104.8 69.7 110.5 61.1 119.4 57.15 130.0 52.45 139.0 53.65 147.9 54.8 149.3 60.85 150.2 64.55 147.7 69.25 144.4 75.4 136.1 80.15 120.45 89.15 115.85 92.5 104.05 101.15 98.55 111.6 93.1 122.0 91.25 138.15 90.35 146.2 90.35 158.7 90.35 162.8 91.25 174.45 91.8 185.6 90.35 192.0 88.65 199.6 85.6 202.05 82.9 204.25 77.65 203.4 72.4 202.55 70.7 204.95 68.75 207.65 70.25 215.8 71.8 224.25 79.1 230.9 86.3 237.45 92.7 236.45 97.85 235.65 105.1 228.4 113.1 219.7 117.05 216.35 127.3 207.65 137.95 205.5 141.15 204.85 142.0 203.05 142.5 202.0 142.25 199.7 L141.1 193.05 139.35 183.8 Q138.75 180.35 140.45 171.6 L143.45 157.05 Q146.65 140.75 147.75 136.0 151.45 120.05 155.3 112.2 159.6 103.35 168.15 95.95 176.25 89.0 182.5 87.85 187.3 87.0 192.15 88.7 L196.5 90.25 199.35 87.45 201.8 84.45 Q202.65 83.2 202.05 80.7 200.95 77.0 200.35 74.1 199.4 70.45 199.15 68.85 198.65 66.1 199.65 64.45 201.95 60.6 222.05 57.45 231.45 56.0 240.4 56.35 247.2 56.6 251.7 57.7 266.65 61.45 268.6 66.4 270.75 71.7 271.75 80.15 272.05 82.25 272.85 83.4 274.2 85.3 277.5 85.9 L283.6 87.5 287.9 89.05 291.95 89.5 295.6 89.05 300.7 88.85 Q304.85 89.35 308.85 92.45 316.05 97.95 320.1 101.4 326.8 107.2 328.2 110.2 330.35 114.8 336.1 130.3 338.95 137.4 340.45 143.05 L343.65 153.2 Q346.25 161.95 346.7 168.4 L347.25 180.8 347.2 187.9 Q347.2 196.35 349.4 198.5 350.6 199.75 352.3 200.15 L356.15 200.7 Q359.6 201.2 364.1 202.4 370.15 204.0 373.0 205.75 377.35 208.4 380.35 209.15 384.85 210.3 388.2 208.15 392.75 205.35 392.95 202.1 393.1 199.95 390.6 197.4 388.05 194.9 382.1 191.25 376.95 188.1 374.95 182.75 373.7 179.25 373.95 176.1 375.0 163.6 396.25 149.7 404.85 144.0 424.95 134.2 432.05 130.75 433.75 125.4 435.2 120.9 432.8 115.35 430.3 109.75 426.45 104.45 421.75 98.0 415.75 93.1 409.15 87.7 407.1 85.15 404.95 82.45 405.3 79.75 405.95 75.2 410.25 71.3 415.1 66.9 422.05 66.15 430.1 65.3 437.5 71.1 446.15 77.8 447.95 90.25 L448.45 74.6 Q448.6 67.35 449.55 62.5 450.65 56.65 458.25 45.55 465.3 35.35 469.95 31.6 475.8 26.85 483.0 22.55 492.7 16.7 498.75 15.65 505.7 14.45 513.5 17.7 521.4 21.0 522.55 25.85 523.85 31.25 518.1 38.25 511.85 45.85 502.7 47.3"/><path fill="#ffe792" d="M267.5 89.5 Q273.2 90.75 279.7 94.0 290.5 99.4 296.1 107.4 294.35 115.4 282.95 125.45 L237.45 126.7 Q229.7 124.4 219.55 118.05 211.15 112.8 205.0 107.4 L196.0 99.15 Q199.3 95.5 202.6 93.3 207.25 90.2 213.1 88.8 222.3 86.6 230.65 90.05 240.65 94.2 245.95 105.55 L246.9 107.85 266.15 103.25 Q267.3 96.8 267.5 89.5"/><path fill="#0086bb" d="M246.4 63.65 Q255.5 64.4 260.15 67.4 264.4 70.15 266.25 75.85 267.9 80.75 267.55 90.1 267.3 97.25 266.25 103.25 L247.0 107.9 246.05 105.55 Q240.75 94.2 230.75 90.05 222.4 86.6 213.2 88.8 L210.6 89.5 Q210.35 83.2 208.45 74.2 207.2 68.15 208.25 67.2 210.35 65.25 223.65 64.05 236.8 62.85 246.4 63.65"/><path fill="#ffe792" d="M325.4 385.5 Q321.15 388.15 314.2 390.1 305.95 392.45 293.75 394.7 283.4 396.6 274.0 397.75 259.35 399.6 248.6 399.3 234.3 398.85 228.75 394.65 223.35 390.55 221.65 380.4 221.1 377.4 219.75 357.95 218.95 345.65 215.1 332.9 211.8 322.05 203.35 301.75 L182.35 252.45 169.25 222.15 255.15 162.0 324.25 199.35 Q324.5 201.9 323.2 226.8 L321.25 265.05 Q319.85 299.3 321.4 322.0 322.6 339.7 325.15 346.25 326.35 349.35 331.25 353.4 335.6 357.05 336.45 361.45 337.25 365.55 336.35 369.9 335.4 374.35 332.85 378.3 329.95 382.7 325.4 385.5"/><path fill="#525557" d="M331.85 379.7 Q321.55 383.9 300.35 387.7 282.15 390.95 268.3 391.95 L247.7 392.55 Q238.5 392.0 234.3 388.9 230.35 386.0 228.3 374.75 227.7 371.65 225.6 353.05 223.35 333.05 213.65 310.1 L194.65 262.7 176.3 217.1 Q179.8 215.4 183.55 214.4 L200.45 257.8 219.5 307.3 225.4 323.7 Q228.85 334.1 230.05 341.55 L233.3 364.45 Q235.75 379.45 239.0 382.8 242.65 386.6 250.65 387.65 257.4 388.5 269.45 387.5 281.55 386.55 304.6 382.55 329.0 378.3 334.3 375.8 L332.85 378.25 331.85 379.7"/><path fill="#0086bb" d="M286.8 225.4 Q289.15 223.2 290.0 221.7 L292.5 225.15 Q294.95 229.5 294.75 234.05 290.35 240.0 283.7 243.8 278.05 247.05 272.5 247.9 262.05 249.55 252.4 245.7 247.0 243.5 242.45 239.85 241.85 235.25 244.8 230.55 246.3 228.2 247.9 226.75 249.2 227.7 251.85 228.95 256.1 230.9 259.85 231.45 L266.4 232.1 Q274.25 232.15 280.95 229.3 283.75 228.25 286.8 225.4"/><path fill="#525557" d="M236.8 127.15 L282.35 126.0 288.8 126.75 Q294.1 128.2 297.65 132.5 301.8 137.5 302.1 144.25 302.4 150.9 298.8 155.65 295.8 159.6 291.3 163.3 L285.8 167.5 Q284.7 168.4 284.25 169.05 283.65 169.95 283.45 171.15 274.0 176.6 257.6 175.5 251.7 175.1 246.55 173.95 242.0 172.95 241.15 172.15 L240.8 171.55 Q234.65 168.6 229.3 165.6 218.8 159.8 215.15 152.8 210.05 143.05 216.35 134.75 222.95 126.05 236.8 127.15"/><path fill="#ffffff" d="M245.25 193.3 L243.8 181.05 Q242.8 174.35 241.7 172.3 242.6 173.1 247.1 174.1 L258.05 175.6 Q274.35 176.65 283.8 171.2 283.6 172.6 284.0 175.75 L285.6 189.25 Q284.75 191.55 282.35 193.8 277.55 198.35 269.05 199.55 260.45 200.75 252.5 197.6 247.15 195.45 245.25 193.3"/><path fill="#0086bb" d="M252.55 197.6 Q260.45 200.75 269.1 199.5 277.55 198.3 282.35 193.7 284.8 191.35 285.65 189.0 L286.9 199.35 Q286.4 200.05 282.9 202.45 L278.15 205.55 279.05 212.35 280.2 221.95 280.6 228.3 Q280.6 232.5 279.15 234.6 277.0 237.7 273.4 238.7 270.15 239.6 266.55 238.65 262.9 237.7 260.75 234.45 259.2 232.1 258.7 229.05 L255.45 206.8 Q253.05 206.3 249.95 204.9 247.3 203.75 246.35 203.0 L245.3 193.3 Q247.3 195.5 252.55 197.6"/><path fill="#ffe792" d="M278.85 210.8 L280.05 220.7 260.9 222.3 258.05 224.65 256.65 215.4 259.85 212.55 278.85 210.8"/><path fill="#0086bb" d="M176.8 98.45 Q182.7 94.0 188.65 94.5 191.0 94.7 194.55 97.85 L205.0 107.4 Q211.15 112.8 219.55 118.05 229.7 124.4 237.45 126.7 L236.8 127.15 Q222.95 126.05 216.35 134.75 210.05 143.05 215.15 152.8 218.8 159.8 229.3 165.6 234.65 168.6 240.8 171.55 242.4 173.0 243.8 183.25 L245.6 199.3 Q246.65 208.25 247.0 216.55 247.55 228.4 246.15 232.95 244.6 238.0 241.45 239.9 238.5 241.65 232.0 241.95 222.8 242.4 219.2 234.5 218.4 232.8 216.3 224.55 L213.65 214.6 Q213.05 212.75 208.45 212.15 L192.0 212.65 Q176.3 214.6 169.05 222.1 L163.8 221.4 Q158.25 220.2 156.85 217.65 149.8 204.8 149.35 176.95 148.8 146.05 158.3 125.2 167.2 105.7 176.8 98.45"/><path fill="#0086bb" d="M337.05 200.45 Q336.6 202.4 330.15 204.25 L323.75 205.7 323.55 202.55 323.25 200.75 Q316.05 202.1 315.45 203.3 315.15 203.9 315.5 210.55 L315.8 222.45 Q315.55 235.1 306.85 236.6 302.4 237.35 299.05 236.45 296.9 235.85 294.75 234.3 292.8 232.9 291.35 229.3 290.25 226.55 289.6 223.0 288.95 219.5 286.5 199.1 L283.65 175.75 Q283.1 171.95 283.65 170.3 284.05 168.9 285.8 167.5 L291.3 163.3 Q295.8 159.6 298.8 155.65 302.4 150.9 302.1 144.25 301.8 137.5 297.65 132.5 294.1 128.2 288.8 126.75 L282.35 126.0 282.95 125.45 Q294.2 115.6 296.1 107.5 292.9 103.0 288.2 99.2 L292.35 96.45 Q295.2 94.7 296.55 94.7 299.75 94.7 305.6 99.6 314.55 107.05 323.05 122.3 332.55 139.2 336.5 163.75 340.15 186.45 337.05 200.45"/><path fill="#ffe792" d="M246.15 232.95 Q244.6 238.0 241.45 239.9 238.5 241.65 232.0 241.95 222.8 242.4 219.2 234.5 218.35 232.7 216.1 223.85 L221.55 220.65 247.1 218.35 Q247.45 228.7 246.15 232.95"/><path fill="#ffe792" d="M315.8 222.45 Q315.55 235.1 306.85 236.6 302.4 237.35 299.05 236.45 296.9 235.85 294.75 234.3 292.8 232.9 291.35 229.3 290.25 226.55 289.6 223.0 L288.85 217.9 293.65 214.45 302.8 214.0 Q312.55 213.55 315.65 213.65 L315.8 222.45"/><path fill="#ffe792" d="M163.45 131.85 Q172.6 133.2 183.35 140.95 197.45 151.05 212.6 159.4 229.9 168.85 240.8 171.55 242.45 173.05 243.95 185.45 221.85 182.4 203.0 175.6 196.55 173.3 188.1 169.65 L174.7 163.9 Q163.45 159.25 156.1 159.5 152.0 159.6 149.8 161.2 151.1 144.95 155.5 132.35 157.95 131.05 163.45 131.85"/><path fill="#ffe792" d="M324.5 164.25 Q311.45 174.3 290.1 180.15 L284.75 184.5 283.65 175.75 Q283.1 171.95 283.65 170.3 284.05 168.9 285.8 167.5 303.45 160.6 315.8 145.4 323.55 135.95 326.15 128.4 331.4 139.9 334.45 153.4 332.95 157.75 324.5 164.25"/><path fill="#ffe792" d="M282.6 122.55 Q282.6 132.4 276.2 138.6 270.0 144.55 260.6 144.55 250.95 144.55 244.75 138.15 238.65 131.85 238.65 122.55 238.65 113.05 245.2 106.7 251.6 100.6 260.6 100.6 269.95 100.6 276.2 106.7 282.6 112.95 282.6 122.55"/><path fill="#e7380e" d="M239.35 142.65 Q244.05 142.45 247.35 144.8 254.35 149.8 252.45 158.9 256.1 164.35 255.85 164.95 255.65 165.55 249.3 162.5 247.15 164.0 243.6 163.9 239.2 163.75 235.45 160.8 231.3 157.5 230.95 152.0 L231.45 147.2 228.85 143.85 Q227.1 141.2 227.45 140.8 227.75 140.45 231.6 141.85 L235.35 143.35 239.35 142.65"/><path fill="#e7380e" d="M284.25 141.35 Q286.4 140.65 288.4 140.8 294.95 136.5 295.15 136.75 295.35 137.05 293.3 143.9 294.6 145.7 294.85 148.7 295.3 153.05 292.6 156.7 289.8 160.6 285.65 161.35 L281.25 161.15 Q276.4 164.8 276.15 164.55 276.0 164.4 276.65 161.35 L277.35 158.35 Q275.8 155.3 276.0 151.85 276.2 148.0 278.55 145.15 280.8 142.35 284.25 141.35"/><path fill="#006c95" d="M159.05 219.4 L157.75 218.2 157.55 217.65 160.2 215.75 Q163.75 213.5 168.4 211.6 183.35 205.6 203.7 205.7 L211.45 205.3 Q219.3 205.7 220.05 209.4 L222.1 220.7 216.5 223.5 Q216.0 221.9 215.2 217.15 214.7 214.15 213.65 213.5 211.4 212.35 207.9 212.15 204.0 211.9 193.0 212.45 183.55 212.9 175.65 217.4 171.7 219.6 169.65 221.75 162.1 221.3 159.05 219.4"/><path fill="#dbc77f" d="M245.75 234.9 Q244.95 236.9 243.75 238.1 241.5 240.35 235.75 241.15 229.35 242.05 224.8 239.95 220.7 238.05 218.2 230.65 L216.55 223.6 216.5 223.5 222.1 220.7 Q224.15 231.15 226.5 233.7 L228.3 235.35 Q230.6 237.05 233.05 237.35 236.75 237.75 239.25 237.45 242.85 236.95 245.75 234.9"/><path fill="#dbc77f" d="M289.6 166.25 L291.05 180.0 285.3 184.6 284.0 173.15 Q283.6 169.35 286.55 167.4 288.05 166.45 289.6 166.25"/><path fill="#006c95" d="M285.3 184.6 L291.05 180.0 294.75 214.3 289.2 217.9 285.3 184.6"/><path fill="#dbc77f" d="M294.75 214.3 L295.5 220.35 Q296.3 225.2 297.8 227.9 300.0 231.8 304.0 232.0 308.95 232.2 310.8 231.95 313.2 231.6 314.95 230.1 314.5 231.8 313.05 233.5 310.1 236.95 304.95 237.05 300.65 237.15 297.65 235.4 295.4 234.05 292.8 230.9 290.85 228.45 289.2 217.9 L294.75 214.3"/><path fill="#006c95" d="M332.5 203.85 Q326.9 206.2 323.9 206.1 L324.15 200.65 329.5 199.85 Q335.25 199.45 337.5 201.45 L332.5 203.85"/><path fill="#006c95" d="M259.95 209.2 L260.4 212.6 256.7 215.8 255.6 206.1 258.0 206.55 Q259.0 206.7 259.35 207.25 L259.95 209.2"/><path fill="#dbc77f" d="M260.4 212.6 L261.65 222.05 258.1 225.2 256.7 215.8 260.4 212.6"/><path fill="#006c95" d="M259.6 232.0 Q258.75 228.9 258.1 225.2 L261.65 222.05 262.3 226.9 263.3 230.8 Q265.0 234.8 268.7 235.3 272.65 235.85 275.5 235.35 277.55 234.95 279.75 233.85 L278.4 235.75 Q276.55 237.75 274.3 238.5 270.7 239.7 266.45 238.5 261.15 236.95 259.6 232.0"/><path fill="#006c95" d="M302.05 126.6 Q313.3 132.9 307.3 148.95 303.75 158.1 296.35 162.4 294.05 163.75 291.6 164.45 L289.65 164.9 Q300.0 156.8 302.05 149.65 303.55 144.4 300.75 136.35 298.7 130.5 292.4 127.8 290.05 126.8 284.8 125.85 L289.9 124.25 Q296.2 123.3 302.05 126.6"/><path fill="#006c95" d="M207.45 132.25 L210.05 128.65 Q213.7 124.8 218.9 123.6 224.05 122.45 231.85 124.6 235.75 125.7 238.6 127.0 223.6 126.5 217.3 134.25 212.25 140.5 214.2 149.15 215.5 155.0 223.3 161.2 227.25 164.3 230.9 166.2 L236.15 169.4 Q230.85 167.85 224.05 164.65 L218.3 161.7 Q207.8 154.45 205.9 144.75 204.55 137.8 207.45 132.25"/><path fill="#006c95" d="M295.65 95.25 L297.1 100.05 Q297.65 103.55 296.4 107.1 L293.65 103.35 Q290.45 99.45 288.35 98.65 L295.65 95.25"/><path fill="#006c95" d="M208.75 67.45 Q220.3 64.0 235.05 77.6 240.9 83.0 244.65 94.1 246.55 99.65 247.25 104.1 L246.5 105.4 Q238.15 89.55 223.65 87.9 L214.5 88.4 210.8 89.45 Q211.4 84.35 208.75 72.35 208.15 69.65 208.4 68.3 L208.75 67.45"/><path fill="#dbc77f" d="M238.6 122.3 Q239.15 126.55 244.6 131.9 251.2 138.35 259.8 139.35 266.6 140.15 272.05 138.3 276.9 136.7 280.1 133.2 279.15 135.35 276.95 137.75 272.55 142.55 266.4 143.9 260.25 145.2 255.15 143.9 249.65 142.55 244.6 138.05 240.25 134.2 239.0 127.85 L238.6 122.3"/><path fill="#dbc77f" d="M337.2 362.2 L337.3 364.6 Q337.3 367.5 336.65 370.4 334.65 379.55 327.2 384.35 322.25 388.2 308.4 391.9 293.5 395.85 275.2 397.6 L244.45 398.55 Q232.7 397.65 227.75 393.75 223.45 390.35 221.25 376.65 219.7 367.25 219.7 359.55 219.7 353.5 218.1 345.5 215.65 333.35 209.95 319.4 L170.1 222.1 Q176.65 215.3 188.0 213.3 L198.1 212.6 215.75 257.2 Q234.1 304.15 237.7 315.75 240.65 325.35 242.05 335.1 L243.45 348.4 243.8 355.15 Q244.05 359.75 244.75 362.7 246.8 371.5 254.25 372.8 267.05 375.05 294.85 370.95 318.65 367.45 337.2 362.2"/><path fill="#006c95" d="M179.2 97.15 Q185.9 92.7 191.2 95.3 193.85 96.6 195.15 98.8 192.4 101.95 188.7 108.15 181.3 120.6 176.7 136.0 166.25 130.1 155.1 132.45 159.45 120.0 166.75 109.95 173.05 101.25 179.2 97.15"/><path fill="#006c95" d="M149.8 161.45 L149.85 160.85 Q158.0 157.7 171.4 162.6 168.9 185.25 172.65 210.05 167.55 211.5 162.05 214.7 L157.55 217.65 Q153.45 210.7 151.6 198.75 149.35 184.6 149.8 161.45"/><path fill="#dbc77f" d="M176.7 136.0 Q172.95 148.6 171.4 162.6 158.0 157.7 149.85 160.85 150.2 146.4 155.1 132.45 166.25 130.1 176.7 136.0"/><path fill="#38383a" d="M334.45 376.1 Q333.35 378.1 331.15 380.3 325.1 382.9 304.7 386.95 284.4 391.0 271.5 392.15 258.95 393.25 249.3 392.55 240.05 391.9 235.5 389.7 231.7 387.85 229.5 380.55 228.25 376.4 227.4 369.55 L225.75 355.6 Q224.4 344.55 223.45 339.5 222.35 333.75 217.0 318.6 211.95 304.45 208.55 296.95 205.95 291.15 191.65 255.2 L176.5 216.9 184.2 214.25 196.65 247.05 Q209.8 281.55 213.35 289.9 217.15 298.8 223.2 315.95 228.45 330.85 229.6 334.9 230.5 338.1 231.85 347.1 233.3 356.7 233.75 363.4 234.2 369.3 236.45 376.15 237.55 379.6 238.6 381.85 243.95 386.75 251.95 387.5 L278.5 386.45 Q294.15 385.1 315.85 380.45 326.7 378.15 334.45 376.1"/><path fill="#525557" d="M110.3 372.4 Q108.85 365.95 103.9 361.9 L99.2 359.15 Q99.3 358.3 100.45 356.1 L101.55 354.1 Q105.15 355.65 108.05 358.35 112.4 362.4 114.0 368.25 116.15 376.1 120.5 380.35 126.0 385.75 135.4 385.75 L143.45 385.3 Q147.95 384.0 149.4 378.7 L149.6 381.0 Q149.55 383.8 148.3 386.1 146.65 390.1 138.8 390.85 L125.2 390.1 Q113.8 388.05 110.3 372.4"/><path fill="#525557" d="M148.6 342.25 L144.85 347.2 Q142.8 350.3 142.4 353.05 142.75 347.7 143.55 345.4 145.5 339.75 151.85 335.0 155.65 332.15 163.3 330.05 171.4 327.85 179.6 327.75 200.8 327.5 206.45 340.7 204.65 337.65 200.25 334.95 191.4 329.55 178.45 331.15 164.95 332.85 156.25 336.85 150.3 339.65 148.6 342.25"/><path fill="#525557" d="M82.0 368.7 Q82.0 371.0 85.2 380.95 88.25 390.35 91.2 397.6 92.35 400.45 95.85 402.3 98.8 403.8 102.15 404.1 105.6 404.35 107.45 404.0 110.0 403.5 111.7 401.6 L110.65 405.65 Q109.25 409.8 107.55 410.4 L98.9 410.7 Q92.15 409.75 90.75 405.9 L85.55 392.1 Q83.9 387.5 82.8 381.55 81.25 373.6 82.0 368.7"/><path fill="#525557" d="M64.3 390.25 Q63.15 380.15 64.6 370.4 L66.05 364.0 Q65.45 367.5 66.0 375.7 66.8 387.5 69.7 395.9 72.9 405.3 75.2 409.3 77.45 413.15 80.15 414.1 83.4 415.2 85.35 415.2 88.8 415.2 90.6 412.4 L90.5 413.35 89.7 415.9 Q88.85 417.9 87.4 419.35 85.55 421.15 83.35 421.45 L78.7 421.25 Q76.3 420.55 74.3 418.1 71.2 414.35 68.9 408.9 65.55 400.95 64.3 390.25"/><path fill="#525557" d="M34.15 385.15 Q33.65 378.05 37.7 367.05 L41.65 357.95 Q39.3 363.65 38.7 375.4 37.95 389.55 42.15 393.15 46.3 396.7 51.9 396.85 55.85 397.0 59.05 395.6 L59.35 396.95 Q59.4 398.9 58.15 401.75 56.75 405.05 51.65 405.65 47.05 406.15 42.15 404.4 37.9 402.9 36.2 398.25 34.75 394.4 34.15 385.15"/><path fill="#525557" d="M32.7 363.75 L29.85 368.45 Q26.0 373.45 20.95 374.75 14.95 376.25 10.45 372.6 6.05 368.95 4.45 361.4 3.15 355.2 6.8 347.95 L10.75 342.0 Q8.8 345.65 9.3 351.2 9.8 357.2 13.1 360.35 16.6 363.65 22.1 364.6 27.55 365.55 32.7 363.75"/><path fill="#525557" d="M134.3 289.75 L133.1 293.55 Q131.55 297.95 129.6 300.4 127.65 302.8 120.45 309.2 L109.95 318.45 Q106.85 321.25 108.6 325.1 109.5 327.05 111.0 328.4 106.45 325.65 105.2 322.8 104.15 320.5 105.25 317.65 107.1 312.8 115.7 306.15 L126.75 297.5 Q133.55 291.95 134.3 289.75"/><path fill="#525557" d="M122.4 226.9 Q119.9 228.75 114.65 234.15 109.55 239.35 107.55 242.0 104.95 245.55 100.9 247.4 95.25 250.0 88.45 248.3 74.05 244.65 63.65 233.75 59.7 229.65 56.0 223.7 L53.3 218.9 Q55.55 222.7 64.1 230.0 73.65 238.1 79.6 240.3 87.95 243.35 93.1 243.4 100.8 243.5 105.55 237.75 113.8 227.85 124.6 220.9 139.35 211.3 146.65 217.5 L141.1 217.25 Q133.35 218.7 122.4 226.9"/><path fill="#525557" d="M84.2 197.1 Q89.45 192.4 91.85 184.7 91.4 194.25 88.6 198.8 85.4 204.1 78.75 203.5 72.9 202.95 70.8 206.2 69.75 207.8 69.9 209.5 68.6 205.05 72.15 202.5 74.7 200.65 77.6 200.65 80.25 200.65 84.2 197.1"/><path fill="#525557" d="M1.5 92.2 Q1.5 96.25 15.3 104.95 L28.4 113.2 Q37.35 118.95 40.45 121.75 43.3 124.35 47.7 130.2 L53.95 138.4 63.5 149.25 Q68.85 155.85 69.9 159.55 L73.3 172.55 Q74.7 181.75 70.4 184.95 L71.25 183.1 Q71.95 180.8 71.45 178.65 L68.9 170.75 66.75 164.8 63.6 159.55 Q59.9 153.65 56.85 150.3 L47.05 138.75 Q40.4 130.7 39.15 129.6 37.0 127.7 29.85 122.1 L18.95 114.05 Q13.25 110.9 10.0 108.6 4.05 104.4 2.45 99.85 0.85 95.35 1.0 93.35 L1.5 92.2"/><path fill="#525557" d="M42.2 13.85 Q41.15 16.95 41.55 23.35 42.0 30.95 44.4 37.6 L52.9 60.9 Q58.45 77.6 56.85 81.7 L52.2 66.6 Q50.5 60.5 41.5 38.7 37.3 28.55 39.3 20.2 40.35 16.0 42.2 13.85"/><path fill="#525557" d="M13.15 41.3 Q12.55 43.6 17.75 55.8 22.35 66.65 28.45 78.25 33.0 86.8 39.1 95.45 L44.3 102.4 Q43.0 102.2 40.7 100.4 36.1 96.8 31.05 88.95 16.7 66.85 13.35 55.9 11.3 50.1 12.05 45.1 L13.15 41.3"/><path fill="#525557" d="M488.35 128.3 Q483.15 130.25 476.85 134.15 471.95 137.2 456.8 144.4 440.35 152.15 438.05 153.45 L421.75 162.65 Q410.25 169.3 407.9 170.95 402.65 173.8 400.1 178.75 L398.6 183.15 Q396.7 179.4 400.8 173.4 405.45 166.65 416.75 158.75 424.9 153.05 446.3 142.6 467.8 132.1 475.1 127.05 479.65 123.9 485.7 122.3 491.0 120.9 494.25 121.35 497.6 121.8 501.55 123.45 506.4 125.5 510.6 128.85 515.6 132.85 519.95 134.85 525.85 137.55 529.85 136.25 528.55 138.6 525.9 140.15 520.7 143.25 514.15 139.25 510.3 136.9 503.0 131.25 497.65 127.1 495.85 126.8 493.3 126.4 488.35 128.3"/><path fill="#525557" d="M413.75 205.55 Q416.05 202.0 417.0 198.8 L416.75 201.0 Q416.35 203.7 415.5 206.2 412.75 214.25 406.55 217.35 402.25 219.5 396.1 220.3 L387.2 220.0 Q375.7 216.0 362.25 213.1 351.35 210.7 343.0 213.0 340.4 213.75 338.35 214.85 L336.85 215.8 Q339.4 212.0 345.95 209.65 353.55 206.9 361.5 208.45 375.05 211.05 383.5 214.0 389.0 215.9 392.75 215.9 396.1 215.9 402.6 214.25 409.15 212.65 413.75 205.55"/><path fill="#525557" d="M522.65 29.95 Q522.5 32.6 520.65 35.9 517.0 42.5 508.45 45.8 503.55 48.05 497.1 48.45 491.0 48.75 485.35 51.65 478.55 55.15 474.05 66.15 471.75 71.65 470.85 76.45 470.6 75.15 470.85 72.35 471.35 66.75 473.95 59.45 477.45 49.65 486.4 45.65 491.35 43.45 500.95 42.5 507.3 41.85 513.7 38.3 520.45 34.55 522.65 29.95"/><path fill="#525557" d="M522.65 75.6 Q509.45 74.25 498.7 77.15 495.4 78.05 492.7 79.3 L490.65 80.35 Q495.65 75.65 500.4 73.85 507.9 71.0 521.55 71.15 531.7 71.3 546.05 73.15 556.4 73.8 561.0 69.25 560.2 71.6 558.35 74.05 554.7 78.9 549.65 79.25 L541.5 78.9 Q533.05 76.7 522.65 75.6"/><path fill="#525557" d="M551.3 104.05 Q550.8 106.5 549.5 108.95 546.95 113.85 543.25 114.05 540.05 115.55 534.05 113.1 525.3 108.9 518.2 106.25 509.35 102.95 498.7 103.7 L489.8 105.15 493.1 103.15 Q495.75 101.55 498.35 100.7 506.45 97.95 517.35 100.4 526.0 102.35 538.0 106.5 546.65 108.7 551.3 104.05"/><path fill="#525557" d="M346.8 307.95 Q353.45 311.4 356.9 317.95 359.6 323.1 359.75 328.6 L359.6 343.75 Q360.1 355.0 364.5 357.85 374.1 364.1 382.95 365.5 392.85 367.05 400.2 362.2 407.0 357.75 408.25 355.95 409.15 354.65 409.85 351.35 L408.8 356.95 Q406.6 363.1 400.9 366.05 394.5 369.4 387.35 369.15 381.4 368.95 373.05 366.05 366.45 363.75 362.65 359.85 360.7 357.85 358.35 353.65 357.2 351.55 357.35 344.3 L357.5 333.0 Q357.15 327.15 355.55 323.3 353.1 317.6 346.65 311.8 340.6 306.45 334.2 305.7 332.15 305.5 330.35 305.75 L328.95 306.05 Q333.1 304.4 335.85 304.45 340.2 304.5 346.8 307.95"/><path fill="#525557" d="M404.45 319.05 Q402.35 320.05 401.1 321.55 L400.2 322.85 Q401.45 319.15 407.05 316.35 413.65 313.1 421.9 313.9 430.15 314.75 440.2 318.55 448.4 321.6 454.1 325.1 457.45 327.15 465.4 330.8 474.15 334.85 477.4 336.65 483.35 340.0 488.25 345.75 493.75 352.2 495.25 358.9 496.3 363.45 497.6 371.35 498.85 377.2 500.8 378.55 503.0 380.05 505.55 380.05 508.15 380.1 509.8 378.5 509.5 380.6 508.05 382.4 505.15 386.0 499.45 384.45 495.75 383.45 494.15 379.0 493.15 376.2 493.15 372.75 493.15 369.85 492.2 365.45 490.95 359.65 488.8 356.1 486.5 352.4 481.1 347.8 476.55 343.9 472.5 341.55 L463.35 337.0 Q456.6 333.75 453.25 331.4 448.15 327.9 440.2 324.25 430.8 320.0 422.95 318.3 411.05 315.75 404.45 319.05"/><path fill="#525557" d="M523.25 376.0 Q520.9 368.35 518.9 364.15 515.95 357.9 511.4 353.4 L507.5 350.15 503.5 345.05 Q512.75 349.45 518.75 357.2 522.35 361.8 524.6 366.85 525.9 369.85 527.1 373.95 528.05 377.3 530.55 379.35 533.6 381.8 537.3 380.35 535.85 381.8 533.8 382.7 529.65 384.6 526.6 382.2 524.75 380.85 523.25 376.0"/><path fill="#525557" d="M521.0 330.1 L513.8 327.9 522.85 328.4 Q530.4 330.1 536.95 336.5 542.6 342.05 545.5 347.7 548.55 353.6 550.75 355.9 559.0 364.45 565.35 358.9 L565.1 359.75 Q564.45 360.85 562.5 362.4 559.7 364.6 556.6 364.9 552.7 365.3 549.35 362.55 547.25 360.85 544.45 354.5 541.15 347.1 535.7 340.85 529.45 333.75 521.0 330.1"/><path fill="#525557" d="M514.85 310.3 Q517.1 307.95 524.35 307.35 533.9 306.6 545.7 310.4 559.6 314.9 567.0 315.55 575.05 316.2 579.1 312.7 578.5 316.15 575.05 318.45 568.2 323.05 553.9 317.4 539.45 311.2 525.7 310.1 521.4 309.8 517.7 310.0 L514.85 310.3"/><path fill="#fff4cc" d="M333.85 356.3 Q335.25 355.95 336.55 358.75 337.8 361.55 336.95 362.25 L335.3 363.1 Q327.95 365.0 317.2 367.2 295.7 371.6 277.9 373.4 L261.35 374.2 Q256.45 373.9 251.35 371.85 248.6 370.75 247.4 369.3 246.3 367.95 246.15 365.75 255.0 368.45 277.55 366.15 295.05 364.35 316.1 360.2 L333.85 356.3"/><path fill="#91d1db" d="M198.7 101.75 Q184.85 115.85 178.85 137.75 L175.8 135.4 Q174.05 134.2 172.3 133.95 178.8 111.5 193.35 96.55 L198.7 101.75"/><path fill="#fff4cc" d="M172.3 133.95 Q174.05 134.2 175.8 135.4 L178.85 137.75 Q175.65 149.45 174.85 162.9 173.35 161.85 171.45 161.45 L167.65 161.1 Q168.7 146.5 172.3 133.95"/><path fill="#91d1db" d="M167.65 161.1 L171.45 161.45 Q173.35 161.85 174.85 162.9 173.5 183.6 177.6 208.6 L170.35 210.8 Q165.95 183.85 167.65 161.1"/><path fill="#91d1db" d="M265.15 72.35 Q265.8 72.55 267.15 75.9 268.55 79.25 267.2 78.9 251.2 74.35 235.3 77.5 232.6 74.1 228.7 71.6 229.3 71.2 229.75 71.15 247.4 66.7 265.15 72.35"/><path fill="#fff4cc" d="M272.85 109.9 Q272.2 110.9 270.8 111.05 269.4 111.2 268.05 110.35 266.65 109.55 266.15 108.2 265.65 106.85 266.3 105.8 266.95 104.8 268.35 104.65 269.8 104.5 271.15 105.35 272.5 106.2 273.0 107.5 273.5 108.85 272.85 109.9"/><path fill="#0f141b" d="M324.85 200.0 Q325.15 202.95 324.95 219.6 324.75 237.6 324.1 251.9 L323.55 264.8 Q321.9 303.85 323.6 327.1 324.6 341.1 326.35 345.75 327.1 347.75 328.6 349.4 L331.55 352.05 335.55 355.4 Q337.7 357.65 338.3 360.75 339.15 365.05 338.15 369.65 337.15 374.2 334.55 378.2 328.45 387.55 314.65 391.55 299.85 395.7 274.85 398.8 260.15 400.65 248.75 400.15 234.3 399.55 228.55 395.2 223.8 391.55 221.65 384.15 220.0 378.5 219.25 367.6 L218.25 353.6 Q217.05 343.05 212.95 330.55 209.65 320.35 201.75 301.45 L169.0 222.85 162.6 222.15 Q157.6 221.1 156.2 218.6 152.65 212.05 150.35 200.1 147.9 187.45 147.9 174.05 147.9 160.55 150.05 148.25 152.4 134.75 157.05 124.5 163.3 110.9 170.6 102.95 177.7 95.25 184.85 93.8 L189.55 93.7 Q191.8 94.15 194.25 96.0 L200.0 101.1 Q205.25 106.05 211.95 111.25 216.7 114.95 223.75 119.05 232.35 124.0 238.25 125.75 238.65 125.85 238.85 126.8 239.05 127.7 238.65 127.6 223.4 123.05 210.55 113.4 205.65 109.7 198.3 102.9 L193.0 97.7 Q190.9 95.8 188.9 95.4 L185.4 95.5 Q178.9 96.8 172.4 104.35 165.85 112.0 159.7 125.5 150.2 146.3 150.85 177.3 151.15 190.1 153.2 201.1 155.25 211.7 158.2 217.1 159.25 219.05 163.55 220.2 166.55 221.0 169.65 221.1 170.25 221.1 170.4 221.65 L183.5 252.05 204.2 300.9 Q212.25 320.3 215.45 330.15 219.5 342.55 220.65 353.35 221.2 358.85 221.6 367.45 222.25 378.3 223.55 383.35 225.4 390.5 229.65 393.75 235.2 398.0 250.2 398.25 L274.3 396.7 294.4 393.6 Q306.3 391.4 314.35 389.1 321.35 387.1 325.55 384.45 329.8 381.75 332.45 377.65 334.9 373.95 335.8 369.7 336.75 365.45 336.0 361.45 335.45 358.65 333.85 356.6 332.85 355.35 330.45 353.4 L327.25 350.5 Q325.6 348.7 324.7 346.4 321.95 339.35 320.8 320.35 319.35 297.75 320.75 264.85 L321.3 251.9 Q323.4 203.8 323.1 200.15 323.05 199.8 323.95 199.7 324.8 199.65 324.85 200.0"/><path fill="#0f141b" d="M296.2 101.45 Q296.1 99.6 296.7 99.6 297.3 99.6 297.6 101.4 298.45 106.4 296.35 111.15 293.35 117.9 284.1 126.0 283.8 126.25 283.2 125.6 282.65 124.9 282.9 124.65 292.4 116.3 295.15 109.55 296.45 106.3 296.2 101.45"/><path fill="#0f141b" d="M325.4 121.65 Q334.6 138.2 338.3 163.0 341.7 186.05 338.45 200.6 337.95 202.85 332.2 205.1 327.95 206.7 324.15 207.4 323.8 207.45 323.8 206.1 323.85 204.8 324.2 204.75 328.8 204.0 332.5 202.7 336.5 201.3 336.75 200.2 339.85 186.15 336.05 163.25 332.05 139.05 322.85 122.65 314.75 108.1 306.1 100.6 300.2 95.5 297.1 95.5 296.1 95.5 293.65 97.05 L289.85 99.55 287.65 97.85 Q289.9 96.3 292.75 95.05 295.65 93.75 297.1 93.75 301.1 93.75 307.65 99.1 317.05 106.7 325.4 121.65"/><path fill="#0f141b" d="M213.5 86.95 Q222.9 84.7 231.65 88.7 241.8 93.3 247.3 105.05 247.45 105.4 246.75 105.9 246.05 106.45 245.9 106.1 240.75 95.1 231.05 90.95 222.85 87.4 213.9 89.55 208.35 90.9 203.95 93.95 200.85 96.1 197.45 99.8 197.2 100.05 196.65 99.3 196.1 98.5 196.3 98.2 199.0 94.55 202.75 91.85 207.55 88.4 213.5 86.95"/><path fill="#0f141b" d="M268.55 90.6 Q268.2 90.55 268.3 89.5 268.4 88.5 268.75 88.55 275.8 90.05 280.1 92.0 291.2 96.95 297.15 106.7 297.35 107.0 296.8 107.75 296.2 108.55 296.0 108.2 290.35 100.1 279.6 94.75 273.45 91.7 268.55 90.6"/><path fill="#0f141b" d="M246.8 61.9 Q255.85 62.65 260.85 65.8 265.8 68.9 267.85 75.1 269.55 80.15 269.25 89.05 269.05 95.25 268.0 101.4 267.95 101.8 267.05 101.65 266.15 101.5 266.2 101.1 267.2 95.65 267.35 89.3 267.55 80.95 265.9 76.05 264.15 70.8 260.45 68.3 256.0 65.25 246.8 64.45 237.0 63.65 223.9 64.85 211.15 66.05 209.35 67.75 208.95 68.1 209.15 69.6 L209.85 73.05 Q211.9 81.1 212.15 88.3 212.15 88.65 211.0 89.05 209.85 89.45 209.9 89.05 209.95 81.4 208.15 73.45 207.35 70.15 207.3 69.05 207.2 67.3 208.15 66.45 210.55 64.2 223.95 62.65 L246.8 61.9"/><path fill="#0f141b" d="M209.95 66.25 Q221.7 65.8 230.5 72.1 243.3 81.35 248.05 103.9 248.15 104.3 247.4 104.6 L246.55 104.55 Q242.75 86.45 232.75 76.7 222.85 67.0 209.05 67.55 L209.95 66.25"/><path fill="#0f141b" d="M332.05 379.1 Q332.4 379.0 332.15 379.75 331.95 380.55 331.6 380.7 321.45 384.85 301.55 388.6 283.5 392.05 269.45 393.05 255.55 394.1 247.55 393.4 238.4 392.65 234.1 389.5 230.3 386.7 228.15 377.75 226.65 371.55 225.25 358.5 223.8 344.95 221.2 334.95 218.6 325.1 212.75 310.45 L193.85 262.85 175.9 217.45 Q175.75 217.1 176.6 216.8 177.4 216.45 177.55 216.8 L195.75 262.2 214.85 309.65 Q220.5 323.2 222.85 332.35 225.35 341.9 227.45 358.5 229.5 374.4 230.2 377.55 231.9 385.65 235.15 388.05 239.1 390.95 248.0 391.6 255.65 392.1 269.4 391.05 283.85 390.0 301.75 386.8 322.15 383.15 332.05 379.1"/><path fill="#0f141b" d="M334.5 374.9 Q334.85 374.75 334.8 375.55 334.8 376.3 334.45 376.45 328.85 379.1 305.7 383.3 282.75 387.45 269.9 388.25 257.2 389.05 250.8 388.3 242.5 387.3 238.7 383.3 236.05 380.55 234.05 371.2 232.7 365.0 231.15 353.15 230.25 343.4 228.9 338.15 227.95 334.4 224.65 324.0 L220.3 310.9 194.05 242.9 183.15 214.85 Q183.05 214.5 183.85 214.2 L184.85 214.25 189.75 226.3 195.8 241.65 222.6 309.95 226.65 322.1 Q229.8 331.95 231.15 337.55 232.45 342.95 233.3 352.4 234.35 361.35 235.7 368.45 237.85 379.85 240.0 382.1 243.5 385.75 251.4 386.65 257.85 387.4 269.75 386.5 281.9 385.5 304.95 381.55 329.4 377.3 334.5 374.9"/><path fill="#0f141b" d="M249.05 244.8 Q249.0 244.45 250.2 244.6 251.4 244.75 251.45 245.1 252.85 253.4 265.75 320.85 L268.9 335.45 Q271.55 346.85 273.25 349.75 274.2 351.4 277.0 355.15 L282.45 362.85 Q285.1 367.25 284.85 370.5 284.5 375.3 283.3 379.75 282.2 383.65 280.85 386.0 280.65 386.35 279.65 386.35 278.65 386.35 278.85 386.0 280.05 383.9 281.1 379.9 282.2 375.6 282.55 370.9 282.75 368.0 280.35 363.8 L275.25 356.35 271.4 350.8 Q269.6 347.75 266.75 335.35 L263.7 321.2 Q250.45 253.05 249.05 244.8"/><path fill="#0f141b" d="M286.75 242.3 Q286.7 241.95 287.75 241.25 288.8 240.6 288.85 240.95 289.05 243.85 292.6 278.55 L296.05 314.3 Q296.2 318.85 298.25 330.35 300.6 343.55 302.65 347.55 304.0 350.2 307.2 354.05 L311.5 359.35 Q314.75 363.85 315.05 368.15 315.4 373.5 311.65 380.8 311.45 381.15 310.35 381.35 L309.4 381.25 Q313.8 374.0 312.75 367.05 312.1 363.0 310.2 360.55 L305.7 355.15 Q302.4 351.2 300.95 348.4 298.8 344.25 296.3 331.15 294.2 320.05 293.8 314.3 L290.35 278.75 286.75 242.3"/><path fill="#0f141b" d="M257.55 284.25 Q257.95 284.2 258.0 285.1 258.1 286.0 257.7 286.0 L228.5 289.3 Q227.35 289.55 223.2 293.9 219.4 297.85 217.8 300.1 217.6 300.4 216.95 299.7 216.35 299.0 216.55 298.7 218.4 296.05 221.85 292.2 226.3 287.2 227.95 286.85 L257.55 284.25"/><path fill="#0f141b" d="M292.0 281.2 L307.6 280.3 321.25 280.75 Q321.6 280.85 321.3 281.7 321.0 282.55 320.65 282.45 319.45 282.05 306.85 282.4 L292.2 282.95 Q291.85 283.0 291.75 282.15 291.65 281.3 292.0 281.2"/><path fill="#0f141b" d="M245.35 366.95 Q244.75 365.25 245.35 365.0 245.95 364.75 246.6 366.4 248.5 370.9 255.55 372.55 260.0 373.6 268.6 373.7 270.35 373.7 270.4 374.35 270.45 375.0 268.7 375.15 L254.75 374.5 Q247.4 372.7 245.35 366.95"/><path fill="#0f141b" d="M199.25 217.0 Q198.8 215.2 199.4 215.25 200.0 215.25 200.6 216.5 201.9 219.1 209.2 237.3 216.85 256.45 217.65 259.65 218.15 261.5 217.45 261.65 216.75 261.75 216.0 260.0 200.9 223.6 199.25 217.0"/><path fill="#0f141b" d="M215.05 134.75 Q218.15 130.05 224.2 127.75 230.05 125.6 237.45 126.15 237.8 126.2 238.5 127.0 239.25 127.8 238.9 127.8 232.05 127.25 226.05 129.45 219.9 131.7 217.05 136.0 214.7 139.6 214.55 143.9 214.4 148.2 216.55 152.3 219.35 157.65 226.15 162.2 230.1 164.85 237.15 168.15 241.55 170.25 242.25 170.9 243.3 171.8 244.1 175.0 245.4 179.95 246.45 188.85 L247.5 198.95 Q248.3 207.1 248.6 214.45 249.1 228.15 247.6 233.15 245.95 238.65 242.35 240.7 239.25 242.45 232.6 242.75 222.9 243.2 218.65 234.9 217.75 233.1 216.1 226.35 L213.8 216.6 213.15 214.5 Q212.75 213.9 211.25 213.4 203.8 211.15 190.4 213.85 176.15 216.65 170.3 222.55 170.05 222.8 169.4 222.2 168.75 221.55 169.0 221.3 176.25 214.05 190.7 211.35 203.55 209.0 211.7 211.45 213.95 212.1 214.7 213.1 215.3 213.8 215.85 216.15 L218.45 226.4 Q220.15 233.2 220.55 234.05 224.0 241.35 232.55 240.95 239.0 240.7 241.75 238.95 244.5 237.25 245.9 232.6 247.0 228.9 246.45 214.9 246.0 204.5 245.35 198.95 243.5 182.3 242.0 175.6 241.4 172.9 240.6 172.15 239.9 171.45 236.4 169.8 228.65 166.1 224.8 163.55 217.45 158.75 214.5 153.1 212.15 148.6 212.25 143.7 212.4 138.75 215.05 134.75"/><path fill="#0f141b" d="M333.55 199.15 Q334.95 199.25 334.95 199.8 335.0 200.4 333.6 200.45 L324.75 201.45 Q320.8 202.15 318.35 202.95 L317.15 203.45 Q316.8 203.8 316.8 204.85 L317.2 212.75 317.55 222.15 Q317.0 235.75 307.55 237.4 303.0 238.2 299.55 237.25 297.1 236.6 294.8 234.95 292.6 233.3 290.95 229.25 289.7 226.25 289.1 222.9 288.6 220.25 283.35 175.8 282.9 171.8 283.45 169.95 283.95 168.3 285.8 166.75 L291.7 162.0 Q296.35 158.1 298.65 155.0 302.1 150.45 301.8 144.1 301.45 137.75 297.55 133.0 294.25 128.95 289.35 127.55 286.75 126.8 283.1 126.8 L283.05 125.05 290.15 125.85 Q296.0 127.35 299.6 131.75 303.85 136.85 304.05 143.95 304.2 150.9 300.35 156.0 297.8 159.35 292.8 163.6 289.05 166.75 286.9 168.1 284.5 169.7 285.15 175.55 285.6 180.1 288.0 199.6 290.55 220.1 291.05 222.75 291.6 225.7 292.55 228.25 293.95 232.1 295.85 233.5 297.9 235.0 300.15 235.55 303.15 236.35 307.25 235.65 311.3 234.95 313.35 231.7 315.35 228.4 315.5 222.3 L315.2 210.85 Q314.8 203.65 315.2 202.8 315.95 201.35 321.55 200.1 327.6 198.7 333.55 199.15"/><path fill="#0f141b" d="M158.15 218.35 L156.9 216.55 Q160.8 213.75 163.25 212.5 168.85 209.6 176.05 208.1 L178.65 208.2 Q178.8 208.75 176.4 209.45 169.45 211.55 164.2 214.45 161.6 215.85 158.15 218.35"/><path fill="#0f141b" d="M216.6 205.0 Q218.6 205.35 219.65 206.35 220.65 207.25 221.05 209.05 222.2 214.05 224.15 225.7 224.55 228.1 226.1 231.1 228.55 235.75 231.95 236.6 233.8 237.05 233.75 237.6 233.65 238.15 231.75 237.9 224.95 236.85 222.4 226.3 L219.15 209.75 Q218.85 208.4 218.2 207.8 217.6 207.3 216.3 207.0 L205.7 206.35 197.3 206.6 Q195.25 206.7 195.05 206.25 194.85 205.8 197.15 205.2 L205.6 204.5 216.6 205.0"/><path fill="#0f141b" d="M289.4 173.0 Q289.35 171.5 289.9 171.45 290.4 171.4 290.6 172.9 L295.2 212.15 Q296.95 229.85 301.45 230.9 302.85 231.2 302.7 231.8 302.55 232.45 301.2 232.1 297.55 231.25 295.6 224.85 294.35 220.8 293.4 212.15 289.6 179.95 289.4 173.0"/><path fill="#0f141b" d="M247.65 217.5 Q247.95 217.45 248.05 218.2 248.1 218.95 247.8 219.0 L222.35 221.25 217.15 224.2 Q216.9 224.35 216.55 223.7 216.2 223.05 216.45 222.9 L221.75 219.9 222.05 219.8 247.65 217.5"/><path fill="#0f141b" d="M316.1 213.3 Q316.05 214.05 315.75 214.05 L294.45 215.1 289.3 218.6 Q289.05 218.8 288.9 218.05 288.75 217.3 289.0 217.1 L293.9 213.4 302.85 212.85 Q312.35 212.35 315.8 212.55 316.1 212.55 316.1 213.3"/><path fill="#0f141b" d="M171.65 161.1 Q173.7 161.8 178.95 164.0 L185.05 166.6 Q192.7 170.3 204.5 174.5 226.3 182.35 244.65 184.65 244.95 184.7 244.85 185.4 244.75 186.15 244.45 186.1 225.35 183.5 209.1 178.2 199.4 175.05 184.2 168.4 175.55 164.5 171.1 163.0 163.65 160.5 157.3 160.5 152.5 160.5 150.95 161.6 150.75 161.8 150.3 161.15 149.85 160.55 150.1 160.4 152.4 158.8 156.4 158.5 162.65 158.05 171.65 161.1"/><path fill="#0f141b" d="M163.4 130.7 Q173.15 131.45 184.7 139.75 199.05 150.1 213.55 158.3 230.85 168.05 241.55 170.7 241.85 170.8 241.7 171.5 241.5 172.25 241.2 172.15 230.2 169.4 212.75 159.85 197.5 151.5 183.5 141.45 172.55 133.6 163.25 132.5 160.3 132.15 157.9 132.55 L156.0 133.0 Q155.75 133.15 155.65 132.5 155.6 131.85 155.85 131.7 L157.8 131.05 163.4 130.7"/><path fill="#0f141b" d="M326.0 128.05 L326.8 128.0 Q327.5 128.25 327.4 128.55 323.4 140.15 313.4 150.5 301.95 162.4 286.3 168.2 286.0 168.3 285.9 167.6 285.8 166.85 286.1 166.75 304.75 159.4 317.2 143.1 323.45 134.9 326.0 128.05"/><path fill="#0f141b" d="M334.3 152.9 Q334.4 152.65 334.9 153.25 L335.35 154.0 Q333.05 158.6 326.35 164.2 313.0 175.35 291.05 180.75 L285.55 185.2 Q285.35 185.4 285.1 184.65 284.85 183.95 285.05 183.75 L290.45 179.35 Q310.8 173.75 323.8 164.1 332.7 157.45 334.3 152.9"/><path fill="#0f141b" d="M284.6 124.65 Q287.95 123.75 290.6 123.6 295.3 123.25 299.7 124.65 306.0 126.6 308.75 132.3 311.2 137.25 310.25 143.2 309.2 149.6 304.7 155.55 301.3 159.95 297.0 163.0 L295.6 163.2 294.7 163.1 Q298.85 160.2 302.5 155.45 307.25 149.3 308.2 143.2 309.05 137.75 306.85 133.25 304.3 128.1 298.6 126.35 291.65 124.1 284.9 125.9 L284.6 124.65"/><path fill="#0f141b" d="M205.1 134.45 Q207.2 128.6 212.7 125.05 217.85 121.75 224.65 122.35 227.8 122.65 235.0 124.75 L234.6 126.15 Q228.35 124.35 224.9 124.2 218.95 123.9 214.1 127.0 209.1 130.25 207.4 135.8 205.95 140.4 207.1 145.15 208.05 149.25 212.6 155.0 217.45 161.2 221.8 163.1 L218.65 162.15 Q213.85 160.05 209.7 154.7 205.8 149.65 204.5 144.5 203.25 139.55 205.1 134.45"/><path fill="#0f141b" d="M293.85 233.45 Q294.05 233.15 294.75 233.7 295.45 234.2 295.25 234.5 285.55 247.75 270.65 249.65 255.3 251.6 241.7 240.5 241.4 240.25 241.95 239.55 242.55 238.85 242.8 239.1 247.45 242.9 253.3 245.1 262.4 248.5 272.2 247.0 277.5 246.15 282.95 243.05 289.55 239.3 293.85 233.45"/><path fill="#0f141b" d="M286.0 199.1 Q286.2 198.85 286.9 199.4 287.55 200.0 287.45 200.15 L284.6 202.8 Q282.1 204.65 279.6 205.75 L281.45 223.45 Q282.45 231.6 280.1 235.0 278.0 238.15 274.4 239.3 270.75 240.5 266.55 239.4 262.35 238.3 259.9 234.25 258.4 231.75 257.9 228.85 L256.2 217.4 254.85 207.4 Q250.35 206.75 246.0 203.65 245.85 203.5 246.35 202.75 246.8 202.0 247.1 202.2 L250.6 204.05 Q253.55 205.35 255.85 205.85 256.4 205.95 256.55 206.6 L257.95 216.65 Q259.4 226.9 259.8 228.8 260.5 231.85 261.5 233.6 263.4 236.9 267.0 237.8 270.65 238.75 273.75 237.8 276.8 236.8 278.65 234.15 279.75 232.5 279.85 228.7 L279.65 223.6 277.5 205.55 Q277.4 204.95 277.95 204.65 L282.5 201.75 286.0 199.1"/><path fill="#0f141b" d="M259.1 209.35 Q258.95 207.75 259.6 207.7 260.2 207.65 260.4 209.25 260.6 211.3 261.55 217.6 L262.95 226.3 Q263.55 229.85 264.45 231.65 265.85 234.35 268.45 234.85 269.75 235.1 269.75 235.55 269.75 236.05 268.45 235.95 264.55 235.65 262.85 232.05 262.25 230.85 261.4 226.6 260.65 222.65 259.1 209.35"/><path fill="#0f141b" d="M247.25 227.25 Q247.0 227.05 247.5 226.5 247.95 225.9 248.2 226.1 249.05 226.85 252.05 228.25 256.15 230.15 259.75 230.7 260.05 230.75 260.1 231.75 260.1 232.75 259.8 232.7 255.95 232.15 251.5 229.85 L247.25 227.25"/><path fill="#0f141b" d="M289.15 221.25 L289.95 221.35 Q290.6 221.75 290.45 222.0 289.35 223.8 287.2 226.05 284.05 229.35 281.1 230.45 280.8 230.55 280.5 229.6 280.25 228.65 280.5 228.55 283.2 227.55 286.15 224.75 288.45 222.55 289.15 221.25"/><path fill="#0f141b" d="M279.05 210.65 Q279.1 211.4 278.8 211.45 L260.35 213.15 257.55 215.65 Q257.35 215.85 256.85 215.3 256.35 214.75 256.55 214.55 L259.55 211.85 260.0 211.65 278.65 209.95 Q279.0 209.9 279.05 210.65"/><path fill="#0f141b" d="M280.65 220.45 Q280.7 221.15 280.4 221.2 L261.45 222.9 258.95 225.0 Q258.7 225.2 258.2 224.65 257.75 224.1 257.95 223.85 L260.65 221.6 Q260.8 221.45 261.05 221.45 L280.3 219.7 Q280.6 219.7 280.65 220.45"/><path fill="#0f141b" d="M245.25 193.65 Q245.05 193.4 245.45 192.85 245.9 192.35 246.1 192.6 248.1 194.8 253.25 196.8 260.9 199.75 269.15 198.55 276.45 197.5 281.0 193.9 284.0 191.5 285.2 188.65 285.35 188.3 285.9 188.85 286.45 189.35 286.3 189.7 284.8 193.1 281.95 195.6 277.25 199.65 269.4 200.8 260.7 202.05 252.7 198.5 247.7 196.25 245.25 193.65"/><path fill="#0f141b" d="M241.8 172.8 Q241.5 172.6 241.75 171.9 242.0 171.2 242.3 171.4 245.7 173.5 258.3 174.4 274.3 175.55 283.45 170.3 283.8 170.1 284.2 170.9 284.65 171.65 284.35 171.85 275.1 177.6 259.5 176.85 246.05 176.15 241.8 172.8"/><path fill="#0f141b" d="M256.5 174.9 L261.45 183.4 Q266.85 192.7 269.05 197.0 L276.0 174.0 Q276.05 173.8 276.65 173.7 L277.35 173.85 285.75 189.65 285.25 190.65 Q284.6 191.35 284.45 191.1 L276.9 176.15 Q275.65 182.05 270.0 199.65 L269.35 199.9 268.65 199.8 Q258.25 181.65 255.85 176.75 L246.2 193.3 Q246.05 193.55 245.35 192.7 244.65 191.85 244.85 191.6 L255.25 174.85 255.9 174.75 256.5 174.9"/><path fill="#0f141b" d="M244.2 106.55 Q251.0 99.95 260.6 99.95 270.55 99.95 277.2 106.3 283.95 112.7 283.95 122.5 283.95 132.3 277.2 138.9 270.5 145.4 260.6 145.4 250.85 145.4 244.1 138.9 237.35 132.35 237.35 122.7 237.35 113.2 244.2 106.55 M281.85 122.7 Q281.85 113.45 275.85 107.45 269.85 101.45 260.6 101.45 251.65 101.45 245.5 107.6 239.35 113.75 239.35 122.7 239.35 131.9 245.35 137.9 251.35 143.9 260.6 143.9 270.0 143.9 275.9 138.0 281.85 132.05 281.85 122.7"/><path fill="#0f141b" d="M245.3 120.2 Q245.35 121.05 246.1 121.65 247.0 122.35 248.8 122.6 250.45 122.85 251.9 122.6 256.1 121.9 258.0 119.95 259.0 119.0 259.1 118.15 258.75 117.4 258.05 116.95 255.8 115.55 251.45 116.35 245.1 117.45 245.3 120.2 M268.3 118.1 L268.35 118.9 Q270.05 120.65 273.3 120.8 276.6 121.1 277.9 120.15 278.5 119.65 278.55 119.0 278.65 117.8 276.95 116.85 275.5 116.1 273.75 115.85 L270.6 115.95 Q268.85 116.3 268.5 116.9 L268.3 118.1 M267.6 116.15 Q268.2 115.1 270.25 114.65 L273.75 114.5 Q275.95 114.75 277.65 115.9 279.7 117.25 279.5 119.1 279.45 120.3 278.4 121.1 276.9 122.2 273.4 122.05 270.3 121.75 268.5 120.3 L269.2 123.9 269.5 126.65 Q269.5 128.7 268.55 129.95 267.6 131.25 265.5 131.4 263.3 131.55 262.05 130.45 261.0 129.55 260.6 127.55 260.3 126.15 260.1 123.05 L259.7 119.65 Q258.4 121.6 255.55 122.75 253.7 123.55 252.05 123.75 L248.9 123.8 Q246.8 123.55 245.6 122.6 244.4 121.65 244.35 120.3 244.0 116.4 251.3 115.0 L254.95 114.9 Q257.5 115.1 258.9 116.1 260.35 117.2 261.0 118.9 261.5 120.25 261.6 122.7 L261.85 126.9 Q262.05 128.9 262.85 129.6 263.75 130.35 265.4 130.2 266.95 130.15 267.6 129.25 268.6 128.0 267.85 123.85 L267.55 122.45 Q266.65 117.75 267.6 116.15"/><path fill="#0f141b" d="M255.7 137.4 L261.85 136.15 Q268.9 135.15 273.5 136.45 274.55 136.75 274.5 137.15 274.4 137.55 273.35 137.35 267.65 136.3 255.95 138.4 255.1 138.55 254.95 138.1 254.85 137.65 255.7 137.4"/><path fill="#0f141b" d="M264.85 130.8 Q264.85 130.6 265.45 130.6 L266.05 130.8 266.05 136.15 Q266.05 136.75 265.45 136.75 264.85 136.75 264.85 136.15 L264.85 130.8"/><path fill="#0f141b" d="M230.65 142.25 Q228.1 141.15 227.95 141.35 227.8 141.55 229.5 143.85 L231.95 146.8 Q232.3 147.1 232.15 147.55 231.65 149.05 231.65 151.25 231.65 156.9 235.9 160.35 239.5 163.2 243.7 163.3 246.9 163.35 248.9 162.0 L249.6 161.95 252.95 163.65 Q254.9 164.6 255.05 164.45 255.2 164.3 253.95 162.45 L251.85 159.4 251.75 158.85 252.1 155.4 Q252.1 149.2 246.9 145.5 243.8 143.3 239.4 143.5 L235.6 144.15 235.05 144.15 230.65 142.25 M230.65 147.5 Q227.7 144.2 226.9 142.0 226.0 139.7 228.55 140.2 230.65 140.65 235.35 142.65 237.8 141.85 240.35 141.8 244.95 141.65 248.25 143.95 253.75 147.9 253.75 155.3 L253.2 158.8 256.1 163.55 Q256.8 164.95 256.4 165.5 L254.75 165.7 Q253.35 165.35 249.3 163.45 246.75 165.0 243.05 164.9 238.4 164.75 234.65 161.75 230.1 158.2 230.1 151.3 230.1 149.3 230.65 147.5"/><path fill="#0f141b" d="M245.2 153.1 Q245.2 154.0 244.85 154.55 L244.0 155.05 Q243.5 155.05 243.15 154.55 242.8 154.0 242.8 153.1 242.8 151.2 244.05 151.2 245.2 151.2 245.2 153.1"/><path fill="#0f141b" d="M282.85 150.8 Q282.85 148.9 284.05 148.9 285.2 148.9 285.2 150.8 285.2 151.65 284.85 152.25 L284.05 152.75 283.2 152.25 Q282.85 151.7 282.85 150.8"/><path fill="#0f141b" d="M295.7 136.3 Q295.95 136.65 295.75 137.7 L294.05 143.9 Q295.85 146.75 295.85 149.9 295.85 154.25 293.55 157.5 290.7 161.35 286.35 162.2 L281.4 162.05 277.7 164.7 Q274.8 166.6 275.5 163.35 L276.55 158.5 Q275.05 155.3 275.05 152.35 275.05 147.85 277.75 144.5 281.45 139.95 288.2 140.15 292.85 137.1 293.95 136.55 295.3 135.85 295.7 136.3 M288.8 141.5 L288.35 141.65 284.45 142.15 Q281.25 143.15 279.1 145.7 276.7 148.65 276.7 152.6 276.7 155.55 278.0 158.15 L278.05 158.65 277.1 161.9 Q276.5 163.85 276.6 163.95 L280.75 160.65 281.45 160.55 285.1 160.75 Q289.2 160.2 292.0 156.4 294.2 153.4 294.2 149.9 294.2 146.6 292.65 144.4 292.45 144.15 292.55 143.8 L294.0 139.9 294.75 137.45 Q294.6 137.35 292.4 138.95 L288.8 141.5"/><path fill="#0f141b" d="M59.6 333.75 L61.0 333.65 Q62.15 333.8 61.85 334.05 54.3 340.65 49.1 347.7 41.65 357.8 37.85 369.9 33.55 383.7 35.45 392.9 36.55 398.45 39.55 401.3 41.55 403.2 44.9 404.3 48.55 405.5 51.65 405.0 55.65 404.3 57.45 401.05 58.3 399.55 58.6 396.25 L58.9 389.3 Q59.1 376.95 60.95 369.35 63.95 357.05 71.85 350.0 73.0 348.95 73.4 349.35 73.8 349.75 72.7 350.85 65.5 358.4 62.95 370.25 61.45 377.1 61.25 389.5 61.1 398.15 59.0 401.9 56.75 406.0 51.95 406.75 48.4 407.35 44.2 406.05 40.25 404.85 38.0 402.75 34.7 399.6 33.35 393.4 31.15 383.3 35.6 368.9 39.45 356.6 46.8 346.95 51.6 340.7 59.6 333.75"/><path fill="#0f141b" d="M67.05 356.1 Q67.15 355.75 68.15 355.2 69.15 354.7 69.0 355.05 65.35 365.7 64.7 376.9 64.1 388.05 66.6 397.6 70.05 410.65 74.25 416.5 77.2 420.65 80.25 420.85 83.95 421.05 86.35 419.0 89.45 416.3 89.9 409.85 90.05 407.35 89.2 404.45 L87.0 398.6 Q83.7 390.9 82.4 385.4 80.15 375.8 80.9 364.6 81.0 362.9 81.7 362.9 82.35 362.9 82.3 364.6 82.0 375.8 84.65 385.4 85.8 389.5 89.5 398.35 91.1 402.05 91.7 404.4 92.45 407.35 92.25 410.2 91.7 417.8 87.35 420.8 84.4 422.85 80.15 422.6 75.5 422.35 71.55 416.2 67.5 410.0 64.4 398.25 59.25 378.65 67.05 356.1"/><path fill="#0f141b" d="M102.2 352.6 Q102.65 352.9 101.8 354.4 98.6 360.05 98.65 366.4 98.65 372.65 101.8 380.25 103.55 384.5 105.95 388.35 L109.6 393.7 Q111.6 396.55 112.2 398.25 112.9 400.3 112.4 402.85 111.45 407.6 109.75 409.5 107.95 411.6 104.1 411.8 L97.35 411.35 Q93.8 410.5 90.45 407.9 90.15 407.7 90.6 407.15 91.05 406.6 91.35 406.8 94.25 409.1 97.85 409.65 100.05 410.0 104.5 409.75 107.45 409.6 108.65 408.25 109.8 406.85 110.65 402.5 111.05 400.6 110.2 398.7 109.6 397.45 107.45 394.5 L103.75 389.05 Q101.4 385.25 99.6 380.85 96.35 372.95 96.65 366.0 96.9 359.0 100.75 353.7 101.75 352.3 102.2 352.6"/><path fill="#0f141b" d="M403.2 336.3 Q400.1 329.9 399.55 327.15 398.55 322.7 401.25 320.3 405.75 316.15 415.55 316.25 425.35 316.3 435.9 320.6 442.2 323.15 447.35 326.0 L454.9 330.6 Q456.6 331.7 460.8 333.85 L466.55 336.8 Q477.15 342.35 483.55 348.1 488.85 352.9 490.9 357.45 492.6 361.4 493.6 367.6 L494.35 374.4 Q494.55 377.55 495.8 380.05 498.05 384.35 502.85 384.2 505.3 384.1 507.2 381.7 509.5 378.9 510.5 373.8 511.5 368.75 510.65 364.0 509.5 357.35 506.6 351.35 504.9 347.75 503.55 346.05 502.7 344.9 503.2 344.65 503.7 344.45 504.65 345.55 511.25 353.15 513.1 363.65 514.0 368.75 512.85 374.25 511.7 379.6 509.1 382.8 507.9 384.25 506.2 385.1 504.55 385.9 502.9 385.95 497.95 386.1 494.95 382.35 492.4 379.1 492.15 374.45 492.05 372.1 491.4 368.15 490.35 361.95 488.65 358.1 485.1 349.95 465.6 339.25 L459.85 336.4 Q455.95 334.55 453.95 333.2 L446.75 328.55 Q441.1 325.1 435.2 322.7 424.95 318.55 415.85 318.2 406.55 317.85 402.45 321.6 400.45 323.4 401.6 327.25 402.1 329.05 405.15 335.4 L408.5 342.35 Q410.4 346.65 410.9 349.75 412.1 357.15 408.4 362.05 403.2 368.85 391.05 370.15 381.25 371.3 371.75 366.8 364.05 363.15 360.1 358.6 355.75 353.55 356.25 342.45 L356.4 338.2 Q356.7 331.45 355.55 326.75 353.55 318.8 347.4 313.85 339.35 307.4 334.95 306.8 331.0 306.3 329.4 307.55 328.25 308.45 327.75 311.5 327.15 315.25 327.9 320.65 328.05 321.85 329.15 326.2 331.1 334.45 332.3 336.35 L334.5 340.0 Q336.3 342.6 338.3 343.5 343.5 345.95 345.7 348.65 347.3 350.75 347.95 354.15 L348.75 360.55 Q349.65 369.25 346.0 378.9 342.9 387.15 338.65 390.65 335.35 393.3 328.1 395.15 L322.2 396.55 284.35 404.8 274.45 406.8 Q259.9 409.6 250.3 409.25 L239.2 408.35 Q233.05 407.85 229.45 406.65 224.6 405.1 220.25 401.35 215.45 397.3 213.7 392.75 212.3 389.25 212.05 383.1 L211.95 374.5 Q211.45 367.0 208.25 350.1 207.9 348.0 206.9 345.2 L205.15 341.2 Q203.5 338.3 201.2 336.6 198.6 334.65 193.45 332.8 184.85 329.7 170.25 333.3 156.3 336.75 150.45 342.45 144.85 347.9 144.2 353.4 143.75 356.85 145.65 363.85 L148.05 370.45 Q149.9 375.7 150.35 378.4 151.05 382.8 149.65 386.45 147.8 391.45 138.75 392.1 131.85 392.65 123.95 390.75 118.15 389.4 114.15 384.5 110.2 379.65 109.25 372.8 108.5 367.3 104.15 363.1 100.9 359.95 98.9 359.65 98.55 359.6 98.65 358.75 98.75 357.85 99.1 357.9 101.95 358.25 105.75 361.8 110.65 366.35 111.45 372.4 112.3 378.6 115.75 382.85 119.2 387.05 124.5 388.3 131.6 389.95 137.75 389.6 146.0 389.2 147.6 385.0 148.8 381.75 148.15 377.85 147.75 375.5 145.95 370.4 L143.95 364.35 Q141.85 356.65 142.15 352.65 142.7 345.9 148.75 340.05 154.9 334.1 169.7 330.9 185.05 327.6 194.3 330.95 199.5 332.8 202.55 335.15 205.05 337.1 206.8 340.05 209.25 344.3 210.5 349.7 211.7 354.9 212.75 361.4 213.9 368.55 214.25 373.7 L214.6 381.3 Q214.85 387.7 215.9 391.05 217.5 395.9 221.8 399.6 225.95 403.1 230.25 404.5 233.3 405.5 239.3 406.0 L250.3 406.85 Q259.2 407.1 273.95 404.1 L284.05 402.05 321.6 394.35 327.75 392.9 Q334.65 391.25 337.2 389.1 340.4 386.4 343.35 378.5 346.85 369.35 346.1 360.75 L345.25 354.8 Q344.6 351.35 342.35 348.75 340.4 346.45 337.55 345.15 335.25 344.05 332.95 341.1 L330.4 337.3 Q329.0 335.05 326.95 326.05 L325.75 320.9 Q325.05 315.95 325.5 312.2 325.9 308.7 327.25 306.9 328.2 305.55 330.7 304.95 338.2 303.25 348.85 311.8 355.45 317.1 357.45 325.85 358.5 330.7 358.2 338.25 L358.05 342.5 Q357.6 352.6 361.45 357.4 362.6 358.9 366.65 361.4 370.25 363.65 372.7 364.7 382.0 368.65 389.9 367.8 401.6 366.45 406.0 360.7 409.25 356.4 408.2 349.75 407.7 346.7 406.15 342.85 L403.2 336.3"/><path fill="#0f141b" d="M540.45 316.15 Q553.95 322.45 559.45 328.85 564.7 335.05 567.4 342.9 569.8 350.15 568.85 354.65 568.3 357.15 566.2 359.75 564.15 362.25 561.5 363.85 556.6 366.8 552.8 365.75 549.8 364.95 546.9 361.2 544.75 358.4 542.2 353.2 539.4 347.5 537.7 345.25 533.25 339.4 528.55 335.55 524.4 332.25 520.55 330.8 530.35 336.7 535.7 345.8 540.9 354.55 540.9 366.5 540.9 371.9 539.9 375.65 539.0 379.15 536.55 381.6 534.35 383.8 531.95 384.25 527.45 385.05 524.85 381.75 523.25 379.65 521.05 373.15 L518.45 366.15 Q515.65 359.65 511.2 354.2 507.95 350.25 505.5 348.6 505.2 348.4 505.45 347.75 505.7 347.1 506.0 347.3 515.8 353.9 520.25 364.25 521.3 366.75 522.95 372.15 525.2 378.7 526.4 380.4 528.25 383.1 531.65 382.5 533.5 382.2 535.2 380.2 537.05 378.05 537.85 375.05 538.95 371.0 538.75 365.6 538.45 355.7 533.5 347.3 528.8 339.3 522.0 334.0 517.5 330.5 513.4 328.95 512.45 328.55 512.4 328.1 512.35 327.55 513.7 327.5 L516.2 327.65 Q519.1 328.0 522.15 329.2 531.65 332.85 539.4 343.05 L541.8 347.05 544.15 351.8 Q546.85 357.25 548.3 359.4 550.8 363.05 553.25 363.7 556.7 364.7 560.55 362.35 562.85 360.95 564.5 358.8 566.1 356.7 566.6 354.5 567.5 350.4 565.15 343.75 562.6 336.5 557.65 330.7 552.3 324.4 538.7 317.65 524.2 310.5 515.4 310.8 515.05 310.85 515.6 310.3 516.2 309.8 516.55 309.8 526.1 309.45 540.45 316.15"/><path fill="#0f141b" d="M488.3 49.45 Q492.25 48.2 502.95 46.5 507.85 45.7 512.2 42.85 516.55 40.0 519.4 35.7 521.1 33.15 521.75 30.45 522.3 28.0 521.8 25.95 520.7 21.45 513.4 18.3 506.05 15.15 499.25 16.3 493.15 17.35 483.3 23.35 476.3 27.65 470.8 32.1 466.25 35.8 459.3 45.85 451.75 56.8 450.65 62.55 449.7 67.75 449.5 77.6 449.45 82.2 448.8 92.9 448.8 93.35 447.75 89.65 L447.7 82.55 447.5 76.55 447.7 68.55 Q447.95 64.3 448.55 60.85 449.65 54.95 457.3 44.2 464.25 34.45 469.0 30.6 474.55 26.1 482.1 21.6 492.5 15.35 498.8 14.25 506.2 13.0 513.55 15.95 521.6 19.15 523.5 25.45 524.2 27.7 523.5 31.1 522.8 34.65 520.9 37.5 517.8 42.1 513.3 45.2 508.7 48.35 503.6 49.15 493.0 50.85 489.25 51.95 484.4 53.35 481.15 56.2 478.0 59.0 475.25 65.45 473.1 70.5 471.85 75.8 471.5 77.35 470.85 77.55 470.2 77.75 470.35 75.75 470.75 71.2 473.5 64.5 476.55 57.1 480.05 54.0 483.5 50.95 488.3 49.45"/><path fill="#0f141b" d="M494.0 79.4 Q510.5 77.3 523.9 79.9 533.65 81.85 539.25 84.65 544.75 87.35 547.9 92.0 549.45 94.35 550.55 97.25 551.75 100.55 551.95 103.45 552.1 105.8 550.85 108.6 549.35 111.75 546.5 113.85 544.0 115.65 541.75 115.9 537.35 116.5 530.9 113.15 520.95 108.0 512.15 106.0 500.25 103.25 489.5 105.9 L487.65 105.75 Q487.4 105.25 488.95 104.7 509.75 98.1 531.4 110.15 537.7 113.65 540.85 113.45 542.95 113.35 545.25 112.0 548.05 110.35 549.2 107.8 550.05 106.0 550.0 103.8 549.7 99.1 545.8 93.5 542.85 89.15 537.85 86.7 532.55 84.15 523.25 82.3 513.1 80.3 500.9 80.55 L490.6 81.2 Q489.25 81.4 489.4 80.75 489.5 80.25 490.1 79.85 497.65 74.95 509.15 74.05 520.65 73.15 534.65 76.35 547.65 79.35 552.75 77.4 554.85 76.6 557.0 74.05 559.2 71.4 559.5 69.15 559.8 66.85 558.9 63.95 557.65 60.2 552.15 56.25 546.85 52.5 542.5 51.9 537.05 51.15 529.45 51.6 516.25 52.4 502.75 56.85 490.1 61.0 481.6 66.65 476.7 69.9 471.45 75.15 471.25 75.4 471.2 74.4 471.15 73.45 471.35 73.2 477.05 67.4 481.55 64.35 490.2 58.35 503.0 54.1 516.65 49.6 530.0 49.05 L543.05 49.55 Q547.85 50.2 553.2 54.1 558.85 58.2 560.6 62.9 561.75 65.95 561.35 69.25 560.95 72.25 558.4 75.3 556.0 78.15 553.35 79.4 547.4 82.15 533.75 79.05 507.35 73.0 494.0 79.4"/><path fill="#0f141b" d="M528.05 122.3 Q532.1 128.25 532.15 132.65 532.15 136.0 529.15 138.8 525.05 142.55 521.4 143.05 517.85 143.55 514.1 141.0 L508.15 136.65 504.15 133.6 Q501.7 131.65 499.95 130.45 496.7 128.15 494.95 127.75 490.75 126.8 482.65 131.85 L466.45 141.6 Q460.35 145.0 453.95 147.9 446.05 151.4 440.05 154.45 433.1 157.95 423.25 163.2 411.75 169.35 408.75 171.4 404.75 174.2 402.95 175.9 399.05 179.55 399.65 182.15 400.35 185.1 408.0 188.8 412.75 191.15 414.35 192.65 418.35 196.35 417.75 202.0 417.15 208.0 414.05 212.3 409.35 218.9 399.3 220.95 L387.1 221.35 Q384.25 220.8 378.75 218.45 376.45 217.5 371.4 216.15 359.2 212.85 351.7 212.5 343.65 212.1 339.65 215.1 337.9 216.4 337.0 218.35 335.55 221.4 334.8 227.7 334.0 234.6 333.4 245.75 332.95 253.7 332.85 259.3 332.7 269.6 332.05 276.25 L331.05 285.3 Q330.3 292.0 332.65 292.85 L336.4 293.8 Q342.7 295.55 346.5 297.4 353.5 300.9 359.25 307.1 363.85 312.15 365.75 317.55 368.25 324.65 366.55 333.3 L365.3 338.75 Q363.9 345.55 363.95 347.1 364.1 351.15 367.85 353.7 372.9 357.1 379.65 358.4 385.8 359.55 388.4 358.25 391.3 356.75 393.5 353.05 396.2 348.45 395.15 343.8 394.15 339.25 390.95 335.95 389.9 334.85 386.7 332.25 381.7 328.15 378.9 324.7 374.5 319.3 373.95 314.25 373.2 307.5 378.8 301.3 385.05 294.4 395.6 293.05 403.8 291.95 412.25 292.8 417.45 293.3 426.15 295.05 L435.35 296.9 Q457.8 301.35 464.4 295.2 469.4 290.6 471.35 279.9 L472.85 269.9 Q473.1 267.6 473.85 263.5 474.65 258.8 475.1 257.25 476.2 253.6 479.65 250.9 483.75 247.7 489.35 247.7 495.0 247.7 498.95 252.55 502.7 257.1 502.7 262.85 502.7 268.95 501.5 274.9 499.75 283.6 495.8 288.8 516.1 280.55 541.05 284.35 561.7 287.45 570.9 294.25 577.15 298.85 579.7 307.15 580.25 308.9 580.0 311.25 579.7 313.85 578.5 315.95 576.3 319.95 572.3 320.85 567.1 322.05 563.4 321.7 557.85 321.2 549.6 317.45 541.05 313.6 531.4 311.85 522.4 310.2 516.0 310.95 514.0 311.2 513.95 310.6 513.9 309.95 515.9 309.6 523.05 308.5 531.6 309.65 541.25 310.9 549.8 314.8 557.95 318.45 563.15 319.15 L571.85 318.6 Q575.4 317.75 577.0 315.05 578.0 313.3 578.1 311.05 578.15 309.3 577.7 307.95 575.4 300.35 569.35 296.2 560.65 290.15 540.6 287.1 520.2 284.05 503.8 288.2 498.6 289.5 494.5 291.35 L491.3 293.0 491.25 293.0 Q489.85 293.9 489.4 293.15 488.95 292.35 490.3 291.5 L490.35 291.5 Q495.9 287.8 498.4 277.25 500.05 270.25 500.05 262.6 500.05 257.45 497.2 253.65 494.15 249.5 489.35 249.5 484.5 249.5 481.2 252.45 478.55 254.85 477.35 258.55 476.75 260.5 476.1 264.95 L475.4 270.6 Q475.0 276.05 473.95 280.75 471.75 290.75 465.6 296.5 461.3 300.5 452.55 300.9 445.5 301.15 434.9 299.1 L425.75 297.3 Q417.9 295.75 412.1 295.35 403.9 294.7 395.9 295.8 386.1 297.1 380.55 302.75 375.55 307.85 376.2 313.85 377.0 321.2 387.9 330.4 L390.05 332.15 392.45 334.35 Q393.9 335.8 395.2 338.15 396.75 340.95 397.35 343.75 398.55 349.1 395.55 353.95 393.1 357.9 389.2 359.85 386.1 361.4 379.55 360.4 372.15 359.25 366.85 355.35 362.55 352.15 362.05 347.25 361.75 344.3 363.1 338.4 L364.3 333.05 Q365.8 324.6 363.45 318.35 361.8 313.85 357.3 309.0 347.85 298.7 335.8 295.5 L332.15 294.55 Q329.55 293.95 328.85 290.35 328.65 289.25 328.65 285.65 L329.15 277.25 329.6 269.5 329.8 260.2 Q329.65 256.95 330.75 245.3 331.65 235.4 332.7 227.25 333.5 220.85 335.15 217.65 336.3 215.4 338.6 213.65 347.6 206.95 371.95 213.55 374.9 214.35 379.2 216.2 384.25 218.35 387.3 218.85 L398.8 218.35 Q407.6 216.55 411.5 211.55 414.2 208.1 415.2 201.7 415.9 197.55 411.85 194.1 L406.05 190.3 401.3 187.15 Q398.15 184.75 397.65 182.55 396.35 177.25 407.4 169.8 410.9 167.4 422.55 160.8 434.0 154.3 439.35 151.65 L453.25 145.05 465.8 139.1 Q473.05 135.3 481.9 129.75 489.2 125.15 494.7 125.55 497.65 125.75 500.4 127.75 L500.5 127.85 515.45 138.95 Q518.45 141.15 521.05 140.95 524.15 140.7 528.1 137.1 530.05 135.3 530.0 132.65 530.0 129.45 527.15 125.1 524.35 120.8 519.2 116.2 513.7 111.3 503.25 108.0 496.45 105.85 491.8 105.3 491.45 105.25 492.65 104.45 493.9 103.65 494.25 103.7 L503.8 105.5 Q514.5 108.4 520.75 114.0 524.85 117.7 528.05 122.3"/><path fill="#0f141b" d="M437.9 72.5 Q434.45 69.55 430.35 68.1 426.2 66.6 422.5 67.0 415.7 67.7 411.05 72.0 407.1 75.7 406.55 79.85 406.2 82.1 408.2 84.55 410.15 86.95 416.7 92.35 424.3 98.6 428.95 105.15 431.75 109.1 434.15 114.45 435.6 117.7 435.75 120.9 435.85 124.15 434.6 126.6 433.05 129.55 428.25 132.7 L418.45 138.45 409.05 143.3 Q401.05 147.55 395.2 151.55 377.0 164.0 375.65 176.15 375.35 178.9 376.15 181.75 377.75 187.25 382.95 190.4 389.2 194.2 391.8 196.95 394.4 199.6 394.25 202.1 393.9 206.0 389.55 208.8 383.35 212.85 372.9 206.45 370.35 204.85 364.05 203.2 359.3 201.9 356.35 201.5 L352.2 200.75 Q350.25 200.25 349.1 199.1 346.85 196.8 346.7 187.85 346.8 176.9 346.2 168.35 345.85 163.4 343.25 154.05 L339.95 143.2 Q339.2 140.45 335.65 130.55 334.25 126.55 326.75 110.8 325.35 107.8 319.25 102.0 314.3 97.35 308.7 93.05 303.55 89.1 298.0 89.65 L294.1 90.15 287.95 89.8 Q282.0 87.55 277.75 86.7 273.95 86.0 272.4 83.7 271.5 82.45 271.2 80.15 L270.35 74.7 Q269.35 69.75 268.15 66.65 266.4 62.15 251.9 58.5 247.15 57.3 240.05 57.15 231.45 56.9 222.6 58.3 211.25 60.05 205.55 62.1 201.6 63.5 200.8 64.85 200.1 66.0 200.3 67.95 200.4 69.2 201.0 71.35 L202.75 78.4 203.45 81.25 Q203.75 83.5 202.9 84.9 L200.8 87.9 Q198.85 90.2 197.3 91.0 L196.2 91.05 194.6 90.4 Q191.8 89.2 189.95 88.8 186.5 88.05 183.05 88.65 177.0 89.75 169.05 96.6 160.65 103.9 156.45 112.5 153.1 119.35 149.0 136.75 146.95 145.55 145.3 154.1 L143.35 163.0 Q142.55 166.3 141.6 172.4 140.2 180.9 140.6 183.6 141.15 187.3 142.05 191.35 L142.8 195.4 143.5 199.55 Q143.85 201.85 143.25 203.25 142.2 205.55 138.5 206.3 128.1 208.4 118.0 216.95 115.7 218.85 110.45 224.45 104.8 230.4 102.05 232.65 97.25 236.6 93.25 237.25 86.45 238.3 78.9 231.45 71.35 224.6 69.75 215.9 68.85 211.1 69.1 208.2 69.35 205.25 70.8 203.75 72.95 201.6 78.15 202.45 82.95 203.2 85.35 201.3 88.2 199.05 89.85 191.75 90.9 186.95 90.85 179.75 90.85 175.45 90.25 167.55 L89.95 158.95 89.9 150.65 Q90.6 125.45 98.1 111.15 102.95 101.95 112.4 94.25 118.75 89.1 129.75 82.85 L137.1 78.4 Q141.65 75.5 142.9 74.3 146.75 70.65 148.25 66.65 149.4 63.45 148.8 61.0 148.05 57.7 144.45 55.95 140.15 53.8 133.55 54.35 126.95 54.85 120.15 57.9 111.6 61.7 106.05 70.05 103.25 74.2 102.15 77.7 101.75 78.95 101.15 78.75 100.55 78.55 100.4 77.55 98.5 64.6 102.05 52.8 104.15 45.85 110.4 34.5 L115.0 25.5 Q118.3 17.95 115.4 11.3 114.0 8.0 111.3 5.45 108.95 3.25 106.55 2.4 97.45 -0.8 89.35 13.1 86.1 18.7 84.7 24.4 83.85 27.85 83.1 35.15 L82.05 43.45 Q80.95 50.75 80.75 59.9 L80.75 67.6 Q80.8 68.4 80.3 68.55 L79.6 68.5 Q78.7 68.2 77.6 67.15 75.5 65.1 73.75 61.15 72.7 58.7 72.2 54.6 71.85 52.1 71.45 45.5 70.8 34.35 69.75 26.25 68.2 14.5 63.9 9.35 61.55 6.5 57.4 5.3 54.2 4.4 50.35 6.65 46.45 8.85 43.85 13.1 40.55 18.5 40.05 23.05 39.3 29.55 42.9 38.5 48.6 52.65 53.0 65.85 58.05 80.95 57.2 82.55 L56.5 83.05 Q54.55 83.45 49.4 73.55 44.8 64.55 42.25 56.85 37.1 41.1 29.9 35.85 26.65 33.5 21.75 34.45 16.9 35.5 14.8 39.05 12.3 43.25 12.95 49.3 13.6 55.35 17.5 63.85 22.15 74.05 29.55 85.3 37.85 97.9 42.8 101.0 43.1 101.2 42.3 101.6 41.55 102.0 41.2 101.8 35.95 98.5 27.65 86.25 20.05 75.05 15.3 64.75 7.5 47.7 13.25 38.1 15.85 33.9 21.4 32.7 24.05 32.15 26.9 32.65 29.8 33.1 31.6 34.45 39.4 40.1 44.5 55.65 46.8 62.75 50.15 70.15 53.35 77.25 55.4 80.05 53.75 72.35 40.55 39.7 37.5 32.1 37.5 26.0 37.5 19.5 42.0 12.15 44.85 7.45 49.5 4.95 54.1 2.5 57.9 3.6 63.25 5.1 66.25 8.8 70.7 14.2 72.2 25.55 73.25 33.8 73.9 44.95 L74.45 54.0 Q74.8 58.35 75.75 60.5 77.6 64.65 78.95 65.95 L78.9 63.4 78.85 54.4 Q78.95 48.0 79.7 43.2 L80.7 35.0 Q81.5 27.6 82.35 24.1 83.75 18.2 87.15 12.35 91.5 4.85 96.7 1.85 101.9 -1.15 107.15 0.7 110.05 1.75 112.75 4.0 116.1 6.75 117.65 10.3 119.3 14.0 119.3 16.95 119.3 21.85 117.3 26.25 L115.05 30.65 112.5 35.2 Q106.95 45.35 105.15 49.95 101.5 59.25 101.5 68.55 101.5 71.15 101.8 73.85 103.75 68.7 107.5 64.3 112.4 58.55 119.35 55.45 126.3 52.4 133.55 52.2 140.45 52.0 145.25 54.35 149.55 56.45 150.55 60.6 151.4 64.0 150.1 67.75 148.5 72.6 143.6 76.95 140.25 79.9 137.4 81.85 L131.45 85.5 Q120.95 91.65 116.4 95.05 105.3 103.35 100.7 112.1 96.35 120.35 94.15 131.9 92.4 141.2 92.3 150.5 L92.45 158.8 92.75 167.35 Q93.25 174.15 93.1 180.6 92.9 188.55 91.75 193.7 90.1 201.0 86.9 203.25 84.05 205.2 77.9 204.2 74.25 203.6 72.4 205.55 71.4 206.55 71.4 209.0 71.45 210.95 72.25 215.35 73.75 223.35 80.3 229.65 86.9 236.05 92.9 235.1 96.45 234.55 101.05 230.35 L109.05 222.0 Q114.45 216.35 116.75 214.4 122.8 209.25 129.05 206.8 132.1 205.65 137.9 204.45 140.6 203.9 141.2 202.7 141.55 202.0 141.3 199.95 L139.65 191.65 138.15 183.95 Q137.4 178.7 140.85 162.6 L142.8 153.05 Q148.55 122.8 154.1 111.4 158.6 102.25 167.3 94.75 175.5 87.75 181.95 86.6 187.9 85.5 195.3 88.8 L196.65 89.1 198.1 87.85 200.95 84.6 Q201.8 83.45 201.8 82.55 201.8 81.55 201.05 78.85 L198.95 71.7 Q197.35 66.25 198.85 63.75 200.15 61.55 206.2 59.45 212.55 57.3 222.65 55.7 231.6 54.3 240.3 54.75 247.1 55.05 252.25 56.35 267.75 60.25 269.95 65.65 271.2 68.8 272.15 74.15 L273.0 79.95 Q273.2 81.9 273.9 82.85 275.05 84.45 278.05 84.95 282.7 85.75 288.55 88.15 L291.1 88.4 293.8 88.05 298.0 87.55 Q304.15 86.6 310.75 91.45 316.5 95.65 321.3 99.95 327.8 105.85 329.4 109.25 335.9 122.85 338.35 129.05 L342.7 141.95 Q343.75 144.65 345.8 152.85 348.25 162.85 348.6 168.15 349.0 173.55 349.0 179.2 L348.95 187.7 Q348.95 191.0 349.35 193.9 349.8 196.95 350.4 197.55 351.25 198.4 353.35 198.8 L356.9 199.3 Q369.05 201.15 374.1 204.2 383.9 210.25 388.1 207.35 392.3 204.4 392.45 202.0 392.55 200.25 389.7 197.8 387.25 195.75 381.2 192.05 375.4 188.5 373.45 182.35 372.45 179.25 372.6 176.1 373.2 164.15 389.0 152.6 396.35 147.25 417.55 136.25 430.2 129.85 432.35 125.8 433.65 123.25 433.3 120.8 433.05 119.3 431.55 115.85 429.45 111.05 425.75 105.9 420.7 98.85 414.25 93.6 407.95 88.45 405.9 85.15 404.15 82.3 404.6 79.05 405.3 73.95 409.8 69.7 414.8 65.0 421.75 64.25 426.0 63.8 430.7 65.3 435.65 66.85 439.25 70.0 443.3 73.55 445.8 79.0 449.0 85.95 449.1 95.0 449.1 97.0 448.45 97.05 447.8 97.15 447.7 95.2 447.15 80.65 437.9 72.5"/><path fill="#0f141b" d="M1.9 87.3 Q4.35 83.15 7.1 81.6 9.2 80.4 12.45 80.4 17.75 80.4 30.05 91.85 35.05 96.45 38.3 98.6 40.95 100.35 43.6 101.15 45.35 101.7 45.1 102.35 44.8 102.95 43.3 102.6 39.85 101.7 37.6 100.5 33.95 98.55 29.0 93.95 23.15 88.5 18.75 85.55 14.35 82.55 12.15 82.55 9.3 82.55 7.9 83.25 5.65 84.4 3.4 88.2 1.05 92.3 2.35 97.1 4.2 104.15 13.15 109.2 22.3 114.4 31.9 122.05 40.9 129.3 44.6 134.0 53.7 145.6 61.75 154.6 64.0 157.1 66.2 161.85 L69.6 170.25 71.4 174.9 Q73.05 178.65 72.55 182.15 72.0 185.35 70.05 186.6 68.2 187.75 64.65 187.45 61.5 187.15 58.4 185.9 54.9 184.5 51.35 184.45 46.8 184.35 45.05 186.9 42.85 190.05 43.5 194.8 44.45 201.5 50.75 213.2 57.4 225.55 65.2 233.45 72.95 241.35 81.2 244.25 91.0 247.65 95.75 247.1 102.55 246.3 109.05 238.45 122.4 222.3 136.15 217.3 141.9 215.15 144.35 215.45 146.8 215.7 148.1 218.55 149.55 221.75 153.15 224.85 154.0 225.55 155.65 225.95 L158.7 226.5 Q163.5 227.45 165.4 228.35 166.55 228.9 167.7 230.45 168.95 232.1 169.5 234.1 L172.7 243.75 Q175.35 251.55 176.2 253.25 177.4 255.6 178.95 262.7 L180.9 272.55 Q181.4 275.55 183.05 280.3 184.7 284.95 186.85 289.45 188.9 293.65 193.85 301.55 L197.15 307.0 Q203.65 318.15 202.05 321.55 200.5 324.85 193.5 324.95 L186.4 324.5 Q177.8 324.0 169.85 324.6 158.35 325.55 149.95 328.75 139.75 332.65 135.2 336.75 131.4 340.15 130.0 345.3 128.6 350.45 132.05 356.35 L134.05 359.95 Q135.3 362.75 134.2 364.85 133.35 366.45 131.6 367.1 128.95 368.05 126.0 366.5 121.7 364.25 117.5 357.05 114.55 352.0 113.85 348.3 113.35 345.65 113.9 342.25 L114.85 336.4 Q115.15 334.4 114.85 333.35 114.4 332.1 112.7 330.8 107.0 326.6 106.95 322.65 106.9 320.85 108.2 318.8 109.4 316.8 111.2 315.4 L120.3 307.85 Q127.95 301.15 129.8 298.05 132.7 293.2 133.3 288.95 134.1 282.9 129.75 279.2 122.6 273.0 116.85 273.5 111.7 273.95 107.15 279.55 106.05 280.9 102.9 286.0 L97.35 294.65 Q93.9 299.45 91.1 301.65 86.7 305.05 81.2 307.0 77.8 308.25 71.0 309.75 61.5 311.9 53.2 314.7 41.2 318.75 33.65 323.6 17.1 334.2 8.85 347.0 2.5 356.7 6.25 365.7 7.7 369.1 11.0 371.6 14.9 374.55 19.1 374.05 23.3 373.55 25.85 371.2 28.45 368.85 31.4 362.75 36.85 351.5 42.9 344.9 51.8 335.25 64.3 331.95 L66.5 332.1 Q66.75 332.75 64.75 333.35 52.85 337.1 44.6 346.55 39.25 352.7 33.8 363.85 30.95 369.8 27.85 372.55 24.5 375.45 19.4 376.05 14.85 376.6 10.35 373.6 6.2 370.8 4.45 366.65 2.7 362.55 3.0 357.4 3.4 350.9 7.25 345.0 11.6 338.25 17.65 332.5 23.75 326.7 32.35 321.15 39.95 316.3 52.4 312.4 59.2 310.25 70.6 307.65 L80.6 305.15 Q85.9 303.4 90.0 300.2 92.55 298.25 95.55 293.55 L100.55 285.15 Q103.55 280.2 104.9 278.5 107.45 275.45 110.6 273.55 113.7 271.65 116.6 271.4 120.4 271.05 124.65 273.35 127.4 274.8 130.9 277.8 135.95 282.1 135.35 289.0 134.95 294.1 131.85 299.25 129.85 302.55 122.15 309.15 L112.75 316.7 Q108.6 319.7 108.7 322.6 108.75 324.35 110.75 326.4 L114.5 329.45 Q116.65 331.05 117.1 332.7 117.4 333.8 116.95 336.2 L116.25 339.35 115.65 342.55 Q115.3 345.35 115.95 347.8 116.75 350.8 119.55 355.6 122.85 361.25 125.55 363.7 128.5 366.35 131.0 365.45 133.8 364.4 132.4 360.7 L130.5 357.25 Q128.65 354.4 127.9 352.1 126.75 348.6 127.7 345.15 129.3 339.3 133.3 335.3 138.35 330.25 148.85 326.25 157.5 323.0 169.45 322.2 177.6 321.65 186.55 322.35 L193.5 322.75 198.15 322.3 Q199.9 321.85 200.4 320.8 201.35 318.8 195.2 308.15 L191.6 302.4 187.9 296.3 184.05 289.85 Q182.6 287.05 180.85 282.3 178.75 276.85 178.05 273.35 L176.15 262.9 Q174.85 256.25 173.95 254.4 173.05 252.65 170.5 244.6 L167.7 235.35 Q167.3 233.9 166.3 232.3 165.25 230.6 164.45 230.25 162.8 229.4 158.5 228.7 L154.85 228.0 Q152.85 227.5 151.7 226.55 L149.55 224.15 Q147.5 221.55 146.5 219.3 145.7 217.55 144.4 217.45 142.5 217.3 136.8 219.4 124.4 223.95 110.8 240.45 103.9 248.8 96.35 249.75 90.8 250.4 80.45 246.8 71.7 243.75 63.65 235.85 55.3 227.7 48.6 215.25 42.0 203.05 41.3 195.15 40.8 189.45 43.45 185.6 45.65 182.4 50.85 182.25 55.05 182.05 59.0 183.65 61.9 184.8 64.65 185.0 67.4 185.25 68.7 184.4 70.0 183.55 70.3 181.3 70.6 178.65 69.2 175.5 L67.3 170.7 64.35 162.65 Q62.45 158.05 60.45 155.8 L51.7 146.05 Q45.75 139.35 42.75 135.5 39.2 130.95 30.25 123.85 20.85 116.4 12.0 111.45 2.6 106.1 0.45 98.0 -0.3 95.35 0.15 92.45 0.55 89.6 1.9 87.3"/></g></svg>