<?xml version='1.0' encoding='utf-8'?>
<svg xmlns="http://www.w3.org/2000/svg" version="1.1" width="426px" height="258px" viewBox="-0.45 0.0 425.65 257.55"><g><path fill="#9f8c55" d="M411.3 96.95 Q410.05 99.65 407.35 110.0 403.95 120.25 398.2 125.7 392.4 131.25 380.45 133.8 L367.5 135.85 Q361.85 137.3 359.2 138.85 351.7 143.25 343.85 154.1 335.4 165.85 326.75 169.15 320.25 171.65 310.05 170.1 302.6 168.9 304.2 160.6 304.75 157.75 306.3 154.65 307.55 152.1 308.35 151.35 313.7 146.5 318.75 138.7 324.4 129.9 327.9 120.0 L332.0 108.3 Q335.15 100.95 340.1 95.55 353.8 80.8 386.55 75.6 L392.15 75.15 404.5 74.75 Q422.6 74.95 423.25 80.25 L418.2 86.6 Q412.85 93.6 411.3 96.95"/><path fill="#867747" d="M405.15 98.2 Q405.5 87.05 412.5 82.6 416.8 79.85 423.15 79.85 L423.25 80.25 418.2 86.6 Q412.85 93.6 411.3 96.95 410.05 99.65 407.35 110.0 403.95 120.25 398.2 125.7 392.4 131.25 380.45 133.8 L367.5 135.85 Q361.85 137.3 359.2 138.85 351.7 143.25 343.85 154.1 335.4 165.85 326.75 169.15 320.25 171.65 310.05 170.1 303.7 169.05 303.95 162.8 L316.4 156.95 324.2 154.95 Q332.45 152.55 334.8 150.35 335.95 149.3 338.25 145.8 340.65 142.1 342.7 140.05 349.9 133.0 365.0 131.85 373.75 131.2 383.35 127.65 393.1 124.1 397.8 119.7 399.85 117.85 402.2 111.75 404.95 104.65 405.15 98.2"/><path fill="#0d6f6b" d="M190.6 32.75 Q194.1 46.6 195.15 59.2 196.3 73.2 193.95 81.2 192.65 85.6 189.15 88.2 185.7 90.75 184.05 88.95 175.35 79.2 170.8 63.65 166.9 50.3 166.65 35.05 166.4 21.45 168.95 11.55 171.5 1.8 175.2 1.55 178.65 1.35 183.1 10.65 187.25 19.35 190.6 32.75"/><path fill="#005854" d="M166.65 36.1 Q166.3 22.75 168.7 12.65 171.05 2.75 174.65 1.7 174.9 26.7 177.9 46.05 181.5 69.3 189.45 87.95 187.85 89.25 186.4 89.55 184.9 89.85 184.05 88.95 175.5 79.4 170.95 64.2 167.05 51.1 166.65 36.1"/><path fill="#9f8c55" d="M130.75 206.65 Q132.6 210.0 133.25 213.4 134.0 216.9 132.95 218.3 131.05 220.95 127.2 224.8 L115.75 235.65 Q108.45 242.5 98.35 245.55 87.95 248.65 81.5 245.5 76.05 242.8 69.1 242.9 L63.25 243.5 Q54.7 249.35 45.9 252.35 38.8 254.7 29.9 255.65 23.35 256.3 13.8 253.25 9.0 251.75 5.5 250.1 1.85 247.3 1.9 245.35 1.9 241.95 11.8 240.45 21.65 238.95 32.1 229.05 34.9 226.4 48.95 210.3 56.25 202.0 70.6 201.35 82.25 200.8 96.25 205.25 106.5 208.5 113.45 206.2 115.65 205.45 121.45 201.4 126.0 198.2 130.75 206.65"/><path fill="#0d6f6b" d="M192.1 82.0 Q198.4 78.25 209.55 78.25 220.9 78.25 229.95 84.1 239.0 89.9 247.7 102.85 255.05 113.8 260.25 119.8 265.4 125.8 269.2 127.75 280.5 133.55 286.15 138.6 291.8 143.65 294.1 150.1 L294.6 150.5 295.3 150.95 301.45 144.85 Q307.55 138.75 308.2 139.0 309.25 139.5 308.3 156.65 L316.4 156.95 313.1 164.55 Q309.75 172.0 309.75 172.3 309.8 172.75 312.9 174.7 315.95 176.6 315.8 177.05 315.5 177.9 300.95 177.15 L300.85 178.7 Q302.05 189.5 296.0 198.45 286.85 211.8 278.15 218.7 269.45 225.65 259.85 227.2 254.75 228.05 217.7 228.05 L211.85 228.65 205.85 229.8 200.25 231.75 Q196.5 233.1 193.95 233.55 186.25 235.1 170.05 233.6 157.9 232.5 147.4 226.4 144.1 224.5 141.35 222.35 L139.3 220.55 Q134.8 227.9 133.85 227.65 133.25 227.55 132.85 222.65 L132.25 217.45 124.35 218.3 Q116.4 218.85 115.85 217.4 115.6 216.75 120.15 211.25 L124.75 205.65 119.1 199.45 Q113.55 193.45 113.7 193.2 114.0 192.5 120.1 194.1 L126.3 195.7 Q126.1 194.7 126.35 192.7 126.8 188.55 129.9 182.65 133.05 176.65 134.05 172.3 134.85 168.7 135.8 158.15 138.0 132.4 151.65 121.25 158.5 115.65 164.85 115.2 168.6 111.6 173.5 105.05 177.7 99.5 179.9 95.75 185.8 85.7 192.1 82.0"/><path fill="#0d6f6b" d="M291.85 91.9 Q260.5 105.05 230.7 102.3 221.95 101.5 222.8 97.5 223.25 95.1 226.7 92.3 247.95 74.8 284.5 69.8 298.55 67.9 308.8 68.85 318.8 69.8 319.05 72.8 319.3 75.75 311.8 81.15 303.9 86.85 291.85 91.9"/><path fill="#0d6f6b" d="M170.05 233.6 Q171.6 231.85 176.3 230.05 181.0 228.3 185.65 227.65 197.75 226.0 194.55 233.35 190.95 241.6 178.35 249.15 165.75 256.75 161.85 252.85 158.5 249.55 162.85 242.55 164.4 240.1 170.05 233.6"/><path fill="#0d6f6b" d="M266.75 225.7 Q273.45 228.65 277.45 231.75 284.1 236.9 281.05 241.05 279.3 243.4 273.05 243.4 267.05 243.4 260.15 241.35 252.9 239.25 248.5 235.9 243.45 232.15 244.0 228.0 245.55 216.35 266.75 225.7"/><path fill="#ffffff" d="M167.1 186.35 Q163.65 189.8 159.75 189.75 156.05 189.65 152.2 185.2 147.05 179.25 147.2 169.25 147.35 158.95 151.75 153.0 155.2 148.35 159.55 147.8 163.35 147.35 167.9 152.3 173.95 158.75 173.1 169.95 172.25 181.15 167.1 186.35"/><path fill="#ffffff" d="M249.7 128.05 Q253.6 126.7 258.25 128.8 264.95 131.8 269.7 141.3 274.5 150.95 272.3 158.4 270.55 164.15 266.3 166.05 262.5 167.8 257.15 165.15 250.6 161.85 246.45 153.3 242.25 144.7 244.1 136.5 245.75 129.4 249.7 128.05"/><path fill="#ed848c" d="M369.0 127.5 Q360.35 124.35 360.0 120.95 359.75 118.7 360.35 115.45 360.9 112.7 361.55 111.55 363.05 109.05 366.15 106.5 370.95 102.6 375.25 103.6 380.75 106.05 380.75 107.5 L380.1 113.85 Q379.3 119.45 378.25 121.15 377.2 122.9 373.35 125.3 369.9 127.5 369.0 127.5"/><path fill="#009fd9" d="M371.35 77.35 Q372.35 76.7 376.85 76.65 L381.95 76.95 383.9 78.8 Q385.85 80.8 385.85 81.6 385.85 82.75 380.2 86.6 374.35 90.65 372.05 90.3 368.3 88.15 367.45 86.55 366.95 85.65 368.6 81.8 370.25 78.0 371.35 77.35"/><path fill="#ed848c" d="M87.55 234.3 L76.55 234.85 69.1 232.0 Q68.6 230.95 68.25 227.6 67.8 223.9 68.4 223.3 69.5 222.2 76.25 220.25 83.85 218.0 86.85 219.05 L89.35 222.5 Q91.8 226.45 91.45 228.8 L90.35 231.3 Q89.0 233.85 87.55 234.3"/><path fill="#009fd9" d="M42.6 230.5 Q41.15 234.05 40.2 234.3 39.1 234.6 36.5 233.65 33.7 232.55 33.1 231.1 32.4 229.7 33.8 226.4 35.45 222.4 39.15 222.05 L41.3 222.65 Q43.55 223.5 43.75 225.05 44.0 226.85 42.6 230.5"/><path fill="#005854" d="M313.1 164.55 Q309.75 172.0 309.75 172.3 309.8 172.75 312.9 174.7 315.95 176.6 315.8 177.05 315.5 177.9 300.95 177.15 L300.85 178.7 Q302.05 189.5 296.0 198.45 286.85 211.8 278.15 218.7 269.45 225.65 259.85 227.2 254.75 228.05 217.7 228.05 L211.85 228.65 205.85 229.8 200.25 231.75 Q196.5 233.1 193.95 233.55 186.25 235.1 170.05 233.6 157.9 232.5 147.4 226.4 144.1 224.5 141.35 222.35 L139.3 220.55 Q134.8 227.9 133.85 227.65 133.25 227.55 132.85 222.65 L132.25 217.45 124.15 218.2 Q115.95 218.65 115.15 217.3 124.05 216.1 134.15 213.05 L136.5 217.7 Q155.75 229.05 179.95 225.65 186.95 224.65 196.05 222.05 204.2 219.75 205.55 219.7 L213.75 219.85 Q220.8 220.05 226.75 219.75 245.95 218.8 263.5 212.7 281.0 206.6 291.9 186.95 297.35 177.15 299.3 168.55 303.05 166.8 307.95 163.25 L315.9 156.8 316.4 156.95 313.1 164.55"/><path fill="#005854" d="M319.0 72.55 L319.05 72.8 Q319.3 75.75 312.5 80.9 305.25 86.4 293.9 91.25 264.5 103.95 233.3 102.65 229.4 102.5 227.3 101.3 225.6 100.35 225.35 98.9 242.45 96.75 273.6 88.0 304.95 79.2 319.0 72.55"/><path fill="#ce737b" d="M380.0 106.4 Q380.75 107.05 380.75 107.5 L380.1 113.85 Q379.3 119.45 378.25 121.15 377.2 122.9 373.35 125.3 369.9 127.5 369.0 127.5 360.35 124.35 360.0 120.95 L359.95 120.6 Q362.55 122.25 365.75 122.9 L368.95 123.2 Q369.75 123.05 372.0 121.45 374.35 119.8 375.55 118.45 376.3 117.65 377.75 113.8 379.25 109.75 380.0 106.4"/><path fill="#008cbe" d="M366.9 84.9 Q372.05 87.75 372.7 87.7 374.2 87.6 378.05 84.7 382.45 81.35 383.55 78.45 385.9 81.0 385.85 81.6 378.9 89.8 372.05 90.3 371.0 89.95 369.85 89.1 367.55 87.4 366.9 84.9"/><path fill="#867747" d="M127.6 218.6 L132.25 217.45 132.55 219.1 126.15 225.85 Q118.75 233.5 113.8 237.7 108.8 242.0 98.45 245.35 87.15 249.0 83.15 246.3 79.55 243.85 72.1 242.95 L65.4 242.6 Q71.4 239.45 78.9 239.8 L85.7 240.3 Q90.0 240.6 93.65 240.3 100.05 239.75 108.9 231.2 114.2 226.0 120.05 218.2 122.45 219.45 127.6 218.6"/><path fill="#867747" d="M9.0 251.25 Q2.65 248.25 2.0 245.85 8.45 245.95 16.8 249.1 24.7 252.1 30.0 251.85 L44.15 250.55 Q49.95 249.65 56.0 247.85 51.75 250.2 45.85 252.35 34.0 256.65 25.55 255.7 16.3 254.65 9.0 251.25"/><path fill="#ce737b" d="M86.65 231.35 Q87.15 231.1 88.05 229.35 89.0 227.55 89.0 226.8 L88.7 223.6 88.2 220.85 90.0 223.75 Q91.75 226.9 91.55 228.1 L90.5 230.8 Q89.1 233.65 87.4 234.7 77.5 235.45 75.9 234.85 74.65 234.7 73.2 234.15 70.25 233.15 69.15 231.35 L77.05 232.45 82.0 232.05 86.65 231.35"/><path fill="#008cbe" d="M42.7 229.25 Q41.35 233.5 39.8 233.85 L36.8 233.4 Q33.65 232.5 32.75 230.1 38.15 231.8 38.75 231.6 39.8 231.3 43.75 225.05 L42.7 229.25"/><path fill="#005854" d="M252.3 237.65 L246.65 234.6 Q244.25 233.25 243.95 230.65 L244.15 228.35 Q247.95 229.1 257.55 227.4 L266.4 225.55 Q268.3 226.05 279.5 233.2 276.85 231.65 274.3 231.05 L268.65 230.7 Q262.85 231.1 261.95 234.95 261.0 238.9 266.25 242.3 259.3 240.95 252.3 237.65"/><path fill="#005854" d="M168.55 235.7 L170.35 233.95 170.35 233.75 184.3 234.2 194.3 233.3 Q188.75 242.95 179.2 248.5 174.45 251.3 170.75 252.15 180.2 247.55 179.55 242.55 179.1 238.75 174.65 237.1 171.5 235.95 168.55 235.7"/><path fill="#dbdcdc" d="M250.15 158.85 Q259.9 164.85 265.0 163.85 268.35 163.2 269.95 157.9 271.3 153.35 271.15 146.05 L271.8 148.55 Q272.4 151.55 272.4 154.35 272.45 163.2 266.3 166.05 264.15 166.95 261.05 166.45 254.85 165.55 250.15 158.85"/><path fill="#dbdcdc" d="M171.15 179.8 Q167.95 188.75 160.3 189.7 158.65 189.75 156.55 188.8 152.4 187.0 150.3 182.2 151.15 183.35 153.9 185.1 157.05 187.1 158.8 187.05 162.7 186.85 166.3 183.35 170.75 179.0 172.8 171.05 L172.55 173.75 Q172.15 177.0 171.15 179.8"/><path fill="#005854" d="M183.5 173.35 Q188.05 165.8 193.55 161.5 199.35 157.0 206.8 155.7 220.6 153.25 231.25 157.9 234.95 159.55 237.55 161.7 239.65 163.45 239.8 164.35 240.1 165.95 238.85 171.95 237.6 178.2 236.65 178.2 235.3 178.2 222.15 169.55 222.0 170.3 217.7 176.0 213.3 181.85 212.5 181.85 211.3 181.85 201.8 172.2 192.15 184.35 191.0 184.55 189.8 184.7 183.5 173.35"/><path fill="#ffffff" d="M190.35 164.75 Q198.5 156.65 207.6 155.2 217.3 153.65 226.65 156.4 233.9 158.5 237.1 161.6 236.5 174.8 234.4 177.1 L227.7 172.85 220.55 168.6 211.1 180.15 199.8 170.8 189.7 182.7 Q184.2 174.9 184.05 172.55 186.3 168.8 190.35 164.75"/><path fill="#dbdcdc" d="M236.05 161.55 L237.3 162.2 Q238.1 164.75 236.3 171.2 L234.4 177.1 Q233.7 177.05 221.45 168.55 223.2 169.2 232.95 173.8 233.3 173.4 234.5 168.45 L236.05 161.55"/><path fill="#dbdcdc" d="M220.05 168.45 L211.1 180.15 200.3 170.3 Q202.0 171.05 206.4 174.0 L210.7 176.8 214.8 173.0 Q218.95 168.9 220.05 168.45"/><path fill="#dbdcdc" d="M199.05 170.45 Q199.45 170.7 194.85 176.7 190.25 182.7 189.7 182.7 188.95 182.65 184.2 173.55 L185.2 172.05 Q185.45 172.8 187.45 176.15 189.5 179.7 189.8 179.55 190.45 179.3 199.05 170.45"/><path fill="#0f141b" d="M169.0 113.2 Q172.8 112.65 172.95 113.15 173.05 113.7 169.3 114.55 154.35 118.05 145.8 129.4 137.1 140.85 136.65 158.2 136.45 167.65 135.2 172.45 134.2 176.55 130.7 183.1 127.75 188.75 127.35 192.2 127.05 195.1 128.5 200.05 129.05 202.05 128.75 202.25 128.4 202.45 127.45 200.6 124.85 195.4 125.15 191.6 125.45 188.05 128.65 182.0 132.1 175.4 133.0 171.9 134.15 167.55 134.35 158.15 134.85 138.35 143.8 126.85 152.65 115.45 169.0 113.2"/><path fill="#0f141b" d="M307.75 141.1 Q307.45 141.0 302.2 145.95 L295.6 152.45 Q295.4 152.7 294.9 151.8 294.45 150.9 294.65 150.65 295.95 148.8 299.7 144.8 303.7 140.5 305.9 138.75 309.7 135.6 309.95 140.85 310.1 143.5 309.1 155.8 L315.1 155.45 Q317.4 155.5 317.75 156.15 318.15 156.8 317.05 159.25 L313.6 165.8 Q310.5 171.7 310.55 172.2 L312.8 173.65 315.35 175.1 Q317.85 176.5 317.7 177.35 317.55 178.15 315.05 178.7 312.05 179.3 300.7 178.4 300.35 178.4 300.3 177.3 300.2 176.15 300.55 176.2 303.85 176.6 308.8 176.35 L313.3 175.9 309.1 173.2 Q308.6 172.85 308.75 172.3 309.1 170.6 312.3 163.9 L315.4 157.5 312.35 157.35 308.35 157.5 Q307.45 157.55 307.45 156.65 307.95 141.2 307.75 141.1"/><path fill="#0f141b" d="M253.25 136.15 Q253.85 135.95 254.45 136.5 255.1 137.0 255.35 137.85 255.6 138.6 255.35 139.3 L254.5 140.15 Q253.95 140.3 253.35 139.8 252.7 139.3 252.45 138.4 252.25 137.6 252.45 136.95 252.7 136.3 253.25 136.15"/><path fill="#0f141b" d="M132.1 217.55 Q132.25 217.3 132.6 218.35 L132.85 219.55 Q130.2 223.65 122.5 231.1 114.45 238.95 108.85 242.55 101.45 247.25 93.75 248.1 86.55 248.9 80.8 246.25 73.35 242.65 63.05 244.25 62.7 244.3 63.25 243.35 63.85 242.4 64.2 242.35 74.95 240.85 81.25 243.85 86.45 246.3 93.4 245.5 100.8 244.6 107.65 240.25 113.35 236.6 121.75 228.85 130.3 221.0 132.1 217.55"/><path fill="#0f141b" d="M86.45 219.95 L86.3 219.85 Q83.45 219.05 76.55 220.9 69.6 222.75 69.0 224.15 68.7 224.85 69.1 228.0 69.5 231.05 69.75 231.3 70.2 231.8 72.55 232.6 L76.4 233.55 82.25 233.85 87.15 233.35 Q88.15 232.9 89.4 231.3 90.7 229.65 90.8 228.6 91.0 226.45 89.15 223.25 87.45 220.4 86.45 219.95 M87.0 218.3 Q88.65 218.85 90.5 222.5 92.4 226.2 92.2 228.6 92.05 230.5 90.5 232.8 89.0 235.0 87.75 235.55 L81.9 236.05 76.15 235.8 Q74.7 235.6 71.9 234.3 68.9 232.9 68.5 232.05 67.9 230.8 67.6 227.75 67.25 224.45 67.85 223.3 69.0 220.9 76.25 219.0 83.45 217.1 87.0 218.3"/><path fill="#0f141b" d="M161.25 253.65 Q158.5 251.5 159.35 247.9 161.25 239.45 170.3 233.25 170.5 233.15 171.35 233.6 172.25 234.05 171.95 234.2 167.25 237.3 164.7 241.0 162.55 244.15 161.55 248.25 160.9 251.0 162.75 252.0 L167.25 252.15 Q175.1 249.95 183.05 244.55 191.95 238.45 193.25 232.95 193.35 232.6 194.3 232.8 195.3 233.0 195.2 233.35 193.7 239.45 184.4 246.25 176.0 252.35 168.0 254.65 164.0 255.8 161.25 253.65"/><path fill="#0f141b" d="M167.8 183.95 Q171.7 178.45 171.9 169.75 172.2 160.45 168.5 154.45 165.1 148.8 160.1 148.75 155.75 148.7 152.1 154.2 148.1 160.3 148.1 169.4 148.05 178.45 152.25 184.2 155.7 188.95 159.5 188.95 164.25 188.9 167.8 183.95 M174.2 169.75 Q173.9 178.85 169.55 184.75 165.3 190.45 159.45 190.35 154.85 190.3 150.75 185.05 145.9 178.8 145.85 169.1 145.9 159.0 150.8 152.6 155.05 147.05 160.1 147.05 166.35 147.05 170.45 153.9 174.4 160.5 174.2 169.75"/><path fill="#0f141b" d="M159.85 157.1 Q160.4 157.1 160.85 157.7 161.3 158.35 161.3 159.45 161.3 160.25 160.85 160.85 L159.8 161.4 Q159.25 161.4 158.8 160.8 158.35 160.15 158.35 159.3 158.35 158.3 158.8 157.7 159.25 157.1 159.85 157.1"/><path fill="#0f141b" d="M165.0 32.9 Q165.0 19.2 168.1 9.5 171.15 0.0 175.35 0.0 178.6 0.1 183.1 8.0 187.7 16.05 191.25 28.05 200.2 58.35 194.5 82.35 L193.3 82.5 Q192.2 82.3 192.3 81.95 197.1 61.65 188.65 31.1 185.4 19.3 181.4 10.95 177.5 2.85 175.25 2.85 172.25 2.85 170.0 12.05 167.65 21.65 167.9 34.55 168.5 68.75 185.25 88.4 185.45 88.65 184.5 89.3 183.55 89.9 183.4 89.75 173.85 78.55 169.1 62.25 165.0 48.25 165.0 32.9"/><path fill="#0f141b" d="M199.85 169.95 Q200.35 170.0 201.65 170.9 L206.6 175.15 211.0 178.95 214.85 174.15 219.25 168.55 Q219.95 167.75 220.45 167.75 L222.5 168.55 233.6 175.6 Q237.55 164.8 235.95 161.4 L236.65 161.35 Q237.5 161.6 237.6 161.95 238.6 164.15 237.85 169.3 237.15 174.25 235.7 176.95 235.15 177.95 234.5 178.0 233.9 178.05 232.7 177.2 L226.55 173.0 220.7 169.25 Q220.3 169.35 216.5 174.75 L212.4 180.5 211.2 181.45 Q210.7 181.45 209.6 180.5 200.6 171.7 199.75 171.7 199.25 171.7 195.65 176.6 L190.5 183.45 Q190.0 184.1 189.65 184.0 L188.65 183.2 Q187.3 181.6 185.6 178.7 183.75 175.5 183.3 173.7 183.25 173.45 184.05 172.7 184.9 172.0 184.95 172.3 185.25 173.7 187.35 177.7 189.4 181.55 189.7 181.55 L193.55 176.55 Q197.5 171.35 198.3 170.7 199.3 169.9 199.85 169.95"/><path fill="#0f141b" d="M200.75 84.55 Q200.6 83.35 201.45 81.65 202.3 79.95 203.65 78.95 L205.25 78.75 206.2 78.95 Q204.35 79.75 203.15 81.4 201.85 83.05 202.15 84.55 202.3 85.15 205.15 90.5 207.85 95.6 207.8 96.1 207.75 96.7 203.05 104.15 198.35 111.6 198.3 112.1 198.25 112.75 202.05 118.95 205.8 125.1 205.8 125.55 205.8 126.4 202.2 132.4 L198.6 138.75 Q198.6 139.35 200.8 142.85 203.15 146.6 204.8 148.45 206.05 149.9 205.75 150.2 205.45 150.55 204.05 149.25 202.1 147.4 199.5 143.65 196.95 139.9 196.85 138.75 196.8 138.1 200.6 132.0 L204.4 125.6 200.5 119.4 Q196.55 113.3 196.6 112.1 196.65 111.05 201.55 103.6 L206.35 95.95 203.65 90.8 Q200.85 85.55 200.75 84.55"/><path fill="#0f141b" d="M204.0 193.8 Q206.55 190.65 208.8 188.7 210.2 187.45 210.5 187.7 210.75 187.9 209.6 189.3 203.15 196.95 203.2 197.75 203.25 198.4 205.8 201.6 L209.25 205.65 Q209.8 206.1 209.35 206.7 L206.45 211.3 Q204.15 215.1 204.15 216.2 204.15 217.15 207.3 220.75 211.1 225.1 215.55 227.75 215.85 227.95 214.35 228.15 L212.65 228.2 Q208.8 225.8 205.6 221.65 202.75 217.95 202.6 216.2 202.6 214.7 205.35 210.45 L208.15 206.35 204.85 202.75 Q201.55 199.0 201.5 197.75 201.45 196.95 204.0 193.8"/><path fill="#0f141b" d="M121.7 201.15 Q122.3 201.75 122.05 202.0 117.65 206.4 111.9 207.55 106.1 208.75 97.7 206.9 81.8 203.4 76.05 202.95 68.5 202.3 60.25 204.65 54.75 206.15 48.95 211.55 44.75 215.5 39.8 222.1 L37.5 222.4 37.95 221.75 Q43.7 213.95 47.45 210.2 53.75 203.85 59.8 202.15 68.15 199.75 75.8 200.45 81.15 200.95 98.1 204.7 106.6 206.6 111.9 205.6 116.95 204.65 120.85 200.8 121.1 200.55 121.7 201.15"/><path fill="#0f141b" d="M59.55 246.85 Q50.6 252.5 45.2 254.1 33.4 257.55 24.45 256.65 15.9 255.8 4.25 250.3 -0.45 248.15 0.05 244.7 0.6 241.3 5.75 240.55 12.0 239.5 16.8 237.7 26.1 234.2 33.0 227.45 L32.85 230.0 Q21.75 240.15 6.0 242.8 3.1 243.3 2.95 245.2 2.8 247.05 5.25 248.2 16.35 253.45 24.95 254.05 33.3 254.7 44.7 251.35 49.3 250.0 58.8 244.8 67.05 240.2 70.65 239.9 L73.65 240.0 Q73.7 240.35 70.8 240.95 68.05 241.5 59.55 246.85"/><path fill="#0f141b" d="M257.9 241.5 Q247.6 238.05 243.95 233.1 243.05 231.9 243.0 230.35 242.95 229.0 243.45 227.9 243.5 227.7 244.55 227.9 245.6 228.1 245.4 228.35 244.95 228.95 245.0 230.1 245.0 231.3 245.6 232.1 248.5 236.25 258.2 239.3 267.75 242.3 275.45 241.75 279.1 241.5 280.05 240.25 280.95 239.1 280.0 236.5 279.1 233.9 274.05 230.7 269.65 227.85 264.65 226.1 264.35 226.0 265.0 225.35 L265.85 224.75 Q280.05 230.25 282.15 235.65 283.5 239.5 281.9 241.7 280.25 243.95 275.55 244.3 267.7 244.85 257.9 241.5"/><path fill="#0f141b" d="M420.0 75.95 Q424.35 77.35 424.8 79.35 425.2 80.9 423.15 83.15 414.0 93.75 412.1 96.85 411.55 97.7 408.4 110.05 405.6 121.1 401.65 124.45 395.0 130.05 388.4 132.55 382.1 134.95 370.7 136.35 362.15 137.45 356.9 141.2 353.6 143.5 348.45 149.95 340.4 161.7 336.25 165.65 329.55 172.0 317.15 172.0 L310.7 171.4 Q310.35 171.35 310.5 170.2 310.65 169.1 311.0 169.15 L317.15 169.75 Q327.7 169.75 335.8 161.6 340.25 157.05 346.65 148.2 352.65 141.8 355.5 139.75 361.8 135.2 370.45 134.1 381.25 132.75 387.5 130.15 393.1 127.8 399.7 122.3 403.25 119.3 406.25 108.8 409.75 96.55 410.45 95.35 412.0 92.8 415.85 87.8 L420.75 81.75 Q421.8 80.6 421.65 79.6 421.45 78.45 419.55 77.85 412.75 75.95 403.8 75.9 394.1 75.8 383.4 77.9 L381.4 76.75 376.5 76.35 Q389.25 73.15 401.05 73.2 411.8 73.25 420.0 75.95"/><path fill="#0f141b" d="M369.0 81.65 Q350.7 87.7 343.15 94.65 334.75 102.35 329.3 119.75 326.1 130.05 318.2 141.4 312.1 150.25 308.75 152.8 L308.3 151.85 Q307.9 150.85 308.15 150.65 310.9 148.65 316.7 139.9 324.05 128.85 327.1 118.95 332.8 100.4 341.4 92.3 349.35 84.8 368.5 78.65 L370.3 78.05 369.0 81.65"/><path fill="#0f141b" d="M250.25 128.95 Q246.05 130.55 244.85 136.95 243.65 143.55 246.65 151.05 249.9 159.25 256.1 163.45 261.7 167.25 265.65 165.65 270.75 163.55 271.55 156.6 272.35 149.85 268.9 141.95 265.3 133.75 259.6 130.3 254.55 127.2 250.25 128.95 M249.65 127.35 Q254.75 125.3 260.65 128.65 267.2 132.3 271.0 141.0 274.65 149.2 273.45 156.7 272.2 164.5 266.3 166.95 261.55 168.9 255.25 165.15 248.15 160.95 244.5 151.95 241.3 144.0 242.9 136.65 244.5 129.45 249.65 127.35"/><path fill="#0f141b" d="M320.6 72.7 Q321.0 75.1 314.8 80.4 307.75 86.4 297.0 91.5 267.2 105.65 231.7 102.7 230.35 102.6 230.4 102.2 230.4 101.85 231.75 101.85 265.4 102.35 293.7 89.5 303.9 84.85 310.6 79.7 316.5 75.15 316.15 73.25 315.6 70.45 305.95 70.0 296.25 69.6 282.65 71.85 248.1 77.55 227.35 92.5 226.55 93.1 226.3 92.75 226.1 92.4 226.85 91.7 237.4 82.25 254.05 76.05 268.25 70.75 284.5 68.7 298.95 66.8 309.55 68.05 320.05 69.25 320.6 72.7"/><path fill="#0f141b" d="M300.45 170.75 Q302.8 179.45 301.95 186.5 301.1 193.45 297.15 199.25 288.55 211.8 280.3 218.75 270.65 226.85 260.05 228.6 L232.9 229.6 Q214.8 229.1 212.7 229.45 L205.0 231.55 Q198.55 233.4 194.25 234.25 188.1 235.45 181.7 235.7 L169.75 235.0 Q154.95 232.1 146.95 227.7 138.8 223.15 134.7 215.4 133.25 212.65 133.6 212.35 133.9 212.1 135.7 214.55 140.95 221.7 148.25 225.55 155.95 229.6 170.4 232.5 L181.65 233.45 Q188.2 233.45 193.9 232.3 L204.5 229.6 Q210.65 227.8 212.35 227.5 214.5 227.15 232.5 227.2 L259.5 225.8 Q269.7 224.15 278.7 216.7 286.55 210.25 294.9 198.0 298.45 192.8 299.45 186.65 300.55 180.1 299.1 170.95 298.6 167.65 299.1 167.6 299.65 167.5 300.45 170.75"/><path fill="#0f141b" d="M190.75 84.75 Q185.95 88.2 180.95 95.95 L174.7 105.0 Q169.6 112.0 167.2 114.35 L164.75 114.95 162.75 115.2 Q166.6 111.85 172.0 104.75 176.35 99.0 178.65 95.05 184.1 85.85 189.85 81.85 195.85 77.75 205.2 77.0 213.75 76.3 220.8 78.35 228.5 80.55 235.35 86.35 L232.7 88.0 Q220.45 78.55 205.3 79.85 196.5 80.6 190.75 84.75"/><path fill="#0f141b" d="M245.8 102.3 L248.85 102.05 Q262.75 122.85 269.85 126.5 284.0 133.75 289.95 140.4 295.4 146.55 297.15 156.2 297.55 158.25 297.1 158.4 296.7 158.6 296.1 156.7 293.1 147.4 287.05 141.35 281.35 135.65 268.45 128.55 260.5 124.1 246.3 103.0 L245.8 102.3"/><path fill="#0f141b" d="M41.7 229.6 Q43.2 226.5 43.1 225.25 43.15 224.3 41.3 223.5 39.55 222.75 38.45 222.9 36.3 223.15 34.55 226.3 32.9 229.35 33.75 230.75 34.35 231.75 36.45 232.55 38.45 233.25 39.45 232.95 40.25 232.65 41.7 229.6 M42.9 222.55 Q44.75 223.75 44.75 225.45 44.7 227.9 43.25 231.1 41.75 234.35 40.3 235.0 38.65 235.7 35.7 234.15 32.7 232.6 32.25 230.9 31.6 228.45 33.65 225.05 35.85 221.45 38.65 221.4 41.1 221.45 42.9 222.55"/><path fill="#0f141b" d="M191.25 165.2 Q182.75 173.55 177.65 190.0 177.2 191.35 176.9 191.15 176.55 190.95 176.85 189.45 180.2 173.25 189.35 163.9 199.5 153.5 215.1 153.5 226.25 153.5 236.35 159.85 246.3 166.15 252.45 176.85 253.2 178.15 252.9 178.45 252.6 178.75 251.7 177.6 234.75 155.8 215.1 155.8 200.75 155.8 191.25 165.2"/><path fill="#0f141b" d="M114.1 195.95 Q111.95 194.0 112.25 192.8 112.5 191.5 115.35 191.7 118.15 191.85 126.65 194.95 L126.8 196.25 Q126.7 197.45 126.4 197.3 124.9 196.45 120.5 195.55 L116.2 194.9 120.7 199.65 Q125.35 204.5 125.45 205.65 125.5 206.2 121.3 211.4 117.15 216.55 117.35 216.85 L122.65 217.35 132.2 216.6 133.0 216.6 133.25 217.35 133.45 221.4 133.75 225.7 Q137.95 220.5 139.2 219.6 139.5 219.4 140.05 220.2 140.55 221.05 140.3 221.25 139.4 222.0 137.65 224.45 136.2 226.45 135.3 228.0 134.3 229.75 133.3 229.3 132.35 228.8 132.25 226.8 L131.6 218.45 126.0 219.0 Q119.7 219.5 116.45 219.0 114.6 218.7 114.35 218.0 114.1 217.3 115.4 215.5 117.2 213.05 123.65 205.6 123.25 204.6 119.4 200.9 L114.1 195.95"/><path fill="#0f141b" d="M379.6 107.35 Q378.95 106.45 377.4 105.45 375.8 104.45 374.6 104.3 371.8 103.95 368.1 106.1 364.0 108.5 362.0 112.25 361.55 113.2 361.2 116.65 360.9 120.0 361.15 120.75 361.85 122.55 364.35 124.45 366.9 126.3 368.75 126.3 369.5 126.3 372.8 124.1 L376.85 120.95 Q378.2 119.5 379.2 113.8 380.2 108.25 379.6 107.35 M378.9 104.45 Q381.05 106.05 381.25 106.9 381.7 108.9 381.2 114.45 380.6 120.6 379.3 122.2 378.1 123.6 374.15 126.05 370.05 128.55 368.8 128.55 366.15 128.55 363.0 126.25 360.0 124.05 359.15 121.8 358.75 120.8 359.4 116.5 360.0 112.35 360.55 111.4 362.65 107.9 366.7 105.3 370.9 102.6 374.6 102.6 376.5 102.65 378.9 104.45"/><path fill="#0f141b" d="M379.45 85.6 Q384.7 82.2 384.65 81.3 384.65 80.8 383.4 79.35 382.1 77.85 381.4 77.65 L376.65 77.55 371.75 78.1 Q371.1 78.55 369.7 81.4 368.25 84.4 368.3 85.65 368.35 86.25 370.0 87.6 371.65 88.95 372.4 88.95 374.1 89.0 379.45 85.6 M376.85 75.95 Q380.8 75.65 382.0 76.05 383.5 76.7 385.3 78.7 387.1 80.7 386.9 81.6 386.4 84.25 381.0 87.65 375.85 90.9 372.4 91.2 371.0 91.35 368.45 89.4 365.75 87.35 365.75 85.65 365.8 84.15 367.65 80.9 369.65 77.45 371.2 76.8 372.95 76.2 376.85 75.95"/></g></svg>