<?xml version='1.0' encoding='utf-8'?>
<svg xmlns="http://www.w3.org/2000/svg" version="1.1" width="187px" height="234px" viewBox="-0.3 -0.15 187.1 234.35"><g><path fill="#4b516d" d="M179.95 89.9 Q182.35 98.55 182.85 111.5 183.3 123.4 182.0 133.8 180.7 144.75 176.85 153.15 172.95 161.65 167.6 164.9 167.95 168.4 169.85 173.4 L171.3 176.5 172.85 180.0 Q174.5 185.5 173.95 194.0 173.35 203.75 170.15 209.9 167.3 215.3 163.2 216.6 159.75 217.7 158.6 216.6 157.5 215.45 157.45 210.95 L157.45 205.2 Q157.35 201.45 156.75 199.35 156.25 197.4 154.15 195.65 L149.55 192.35 135.2 202.65 Q134.6 218.1 130.0 226.6 126.4 233.25 122.25 233.25 119.45 233.25 117.5 229.55 116.75 228.2 115.45 224.15 L113.45 216.8 111.1 208.7 85.1 203.1 Q82.7 208.3 78.7 212.95 74.75 217.5 70.45 220.25 67.1 222.4 63.45 223.35 L57.6 223.1 Q55.95 221.85 56.8 218.25 57.2 216.55 59.05 211.8 65.65 194.75 66.8 186.3 L112.55 138.55 144.6 120.05 Q148.45 118.1 152.2 118.55 154.75 112.0 158.5 105.35 163.45 96.55 166.1 96.65 167.5 96.75 168.1 99.5 171.55 91.1 174.55 87.75 176.75 85.35 177.8 85.7 178.9 86.1 179.95 89.9"/><path fill="#b4153a" d="M174.05 192.25 L173.95 194.0 Q173.35 203.75 170.15 209.9 167.3 215.3 163.2 216.6 159.75 217.7 158.6 216.6 157.5 215.45 157.45 210.95 L157.45 205.2 Q157.35 201.45 156.75 199.35 L156.15 197.9 Q159.15 199.95 164.0 199.5 170.6 198.8 174.05 192.25"/><path fill="#b4153a" d="M134.65 210.0 Q133.25 221.7 129.1 228.1 125.75 233.25 122.25 233.25 119.45 233.25 117.5 229.55 116.75 228.2 115.45 224.15 L112.35 212.7 Q115.65 214.35 121.25 214.4 129.15 214.45 134.65 210.0"/><path fill="#b4153a" d="M63.55 199.3 Q64.65 202.9 69.15 205.4 75.25 208.8 83.45 206.3 80.9 210.6 77.45 214.3 74.05 217.95 70.45 220.25 67.1 222.4 63.45 223.35 L57.6 223.1 Q55.95 221.85 56.8 218.25 57.2 216.55 59.05 211.8 L63.55 199.3"/><path fill="#1d2d4e" d="M182.75 132.5 Q177.8 138.7 171.35 151.6 168.55 157.2 165.25 165.45 163.95 168.65 162.4 170.1 L166.6 166.5 Q163.4 176.5 155.9 185.95 147.35 196.75 137.05 201.45 L133.9 202.65 Q121.05 210.55 102.85 208.15 85.0 205.8 72.6 195.0 67.45 190.45 66.2 184.15 62.95 188.05 62.1 192.4 61.7 194.6 61.7 196.1 60.9 196.65 58.45 193.85 55.5 190.5 55.65 185.25 55.8 180.15 59.6 177.0 L63.35 174.85 Q61.45 174.05 60.2 172.25 59.25 170.9 59.1 169.85 L102.6 148.5 158.8 134.8 Q163.3 132.8 172.2 130.85 181.75 128.75 185.75 129.25 185.15 129.6 182.75 132.5"/><path fill="#b4153a" d="M116.0 50.45 Q114.75 61.35 110.9 72.35 103.25 94.4 90.3 94.95 77.35 95.5 66.95 78.7 63.75 73.45 61.15 67.1 L59.2 61.8 Q56.65 54.95 58.1 48.9 59.3 43.75 64.5 35.55 68.85 28.65 68.7 21.5 68.65 18.0 67.95 15.7 68.4 15.4 71.35 18.1 74.9 21.4 76.9 25.7 77.05 15.35 71.65 7.1 70.05 4.6 68.0 2.45 L66.35 0.75 Q77.65 1.8 89.45 8.65 113.05 22.35 116.0 50.45"/><path fill="#4b516d" d="M153.85 32.65 Q156.95 47.2 154.35 70.0 151.55 94.3 143.8 111.3 145.3 116.7 145.55 125.5 L160.35 124.5 Q167.65 124.35 167.9 125.25 168.5 127.65 159.4 134.95 150.4 142.15 146.65 142.55 L152.7 143.2 Q158.75 144.2 158.75 145.65 158.75 147.05 151.4 150.5 143.7 153.8 143.05 154.2 139.3 161.45 133.45 166.3 124.3 173.9 109.7 176.45 95.25 178.95 78.8 175.6 68.05 173.4 59.3 169.55 54.15 171.15 44.3 172.2 L33.45 171.9 Q32.75 170.2 41.3 164.35 L49.95 158.85 Q41.1 159.55 28.35 159.0 13.9 158.35 13.55 156.4 13.2 154.65 24.05 150.0 32.6 146.25 42.0 143.15 L41.95 143.05 Q40.35 138.0 40.25 133.45 22.0 118.2 10.75 92.85 2.05 73.25 1.05 58.2 0.7 53.1 2.2 51.7 3.5 50.45 8.25 50.65 16.05 51.0 30.1 55.1 43.05 58.85 51.4 62.7 51.9 57.45 54.2 52.95 55.7 49.9 58.8 46.05 57.45 50.65 57.5 53.85 57.55 57.25 59.1 61.6 60.7 56.4 64.55 52.1 69.05 47.05 76.2 43.75 L75.9 47.5 Q75.75 52.15 76.4 56.7 78.4 71.15 87.5 78.7 84.85 72.95 85.8 66.6 86.8 60.25 91.55 52.6 96.35 44.95 97.35 40.8 98.5 35.95 96.6 29.0 L99.05 30.4 104.8 34.55 Q113.45 41.8 116.0 50.4 114.75 38.55 109.65 29.1 111.95 30.95 114.5 34.65 117.85 39.4 119.9 45.0 124.2 40.45 131.75 35.55 139.75 30.35 145.65 28.65 150.1 27.35 151.65 28.2 153.05 28.9 153.85 32.65"/><path fill="#b4153a" d="M96.5 104.7 Q97.8 107.6 97.5 110.5 97.2 113.85 94.7 114.95 92.2 116.05 89.5 114.05 87.15 112.35 85.9 109.45 84.6 106.6 84.85 103.7 85.2 100.35 87.7 99.25 90.2 98.15 92.9 100.15 95.2 101.85 96.5 104.7"/><path fill="#b4153a" d="M118.65 96.5 Q120.4 98.7 121.15 101.75 121.85 104.8 121.25 107.55 120.5 110.75 118.25 111.25 115.95 111.75 113.9 109.25 112.15 107.05 111.4 104.0 110.7 100.9 111.3 98.2 112.05 95.0 114.3 94.5 116.6 94.0 118.65 96.5"/><path fill="#ffffff" d="M141.6 118.95 Q142.9 126.95 142.1 133.6 141.15 141.4 137.6 142.0 134.1 142.55 130.7 135.45 127.8 129.35 126.5 121.4 125.25 113.45 126.05 106.8 127.0 99.0 130.55 98.4 134.05 97.85 137.45 104.95 140.3 111.0 141.6 118.95"/><path fill="#00acdc" d="M127.8 127.35 Q127.6 126.55 131.15 120.8 L134.7 115.2 Q135.75 118.25 136.35 121.75 137.2 127.2 136.7 131.7 136.05 137.0 133.65 137.4 132.45 137.55 131.25 136.35 128.85 131.4 127.8 127.35"/><path fill="#ffffff" d="M129.25 124.9 L131.3 120.95 Q132.45 122.5 132.65 126.55 132.9 130.6 131.85 130.75 131.05 130.9 130.25 128.9 129.5 127.1 129.25 124.9"/><path fill="#ffffff" d="M80.65 113.55 Q85.55 119.4 87.65 127.7 89.75 136.0 88.3 143.5 86.55 152.2 80.5 153.75 74.4 155.3 68.7 148.5 63.85 142.65 61.7 134.35 59.6 126.05 61.05 118.55 62.8 109.85 68.85 108.3 74.95 106.75 80.65 113.55"/><path fill="#00acdc" d="M80.25 129.4 Q86.45 130.8 88.45 131.75 L88.8 135.3 Q89.0 139.65 88.35 143.6 87.45 146.45 85.35 146.95 82.35 147.7 79.3 143.4 76.7 139.7 75.4 134.55 74.6 131.45 74.45 128.15 L80.25 129.4"/><path fill="#ffffff" d="M85.1 139.85 Q83.65 140.15 82.5 136.6 81.35 133.05 81.9 130.05 L83.25 130.25 85.15 130.75 Q86.25 132.6 86.15 136.2 86.05 139.7 85.1 139.85"/><path fill="#b4153a" d="M72.75 127.8 Q64.4 126.3 60.5 126.25 60.25 119.55 62.15 114.9 64.3 109.45 68.85 108.3 74.95 106.75 80.65 113.55 85.55 119.4 87.65 127.7 L88.45 131.75 Q82.6 129.55 72.75 127.8"/><path fill="#b4153a" d="M135.35 101.35 Q137.5 104.3 139.25 109.45 136.95 111.8 133.5 117.0 129.5 123.05 127.85 127.4 127.05 124.55 126.5 121.4 125.25 113.45 126.05 106.8 127.0 99.0 130.55 98.4 132.95 98.0 135.35 101.35"/><path fill="#1d2d4e" d="M123.15 67.05 Q127.6 61.1 133.05 56.8 137.9 53.0 142.0 51.55 142.95 52.2 143.5 55.9 144.1 60.05 143.75 65.55 142.7 80.4 135.55 94.7 133.5 91.0 127.3 85.85 122.3 81.7 119.5 80.25 121.35 77.0 123.15 67.05"/><path fill="#1d2d4e" d="M29.05 95.85 Q22.05 82.15 22.05 72.25 31.85 73.45 41.65 77.45 52.0 81.65 57.2 86.95 46.75 99.85 42.8 114.3 35.75 109.0 29.05 95.85"/><path fill="#0e1d3b" d="M71.7 187.95 Q76.4 191.95 81.95 195.1 98.05 204.1 114.1 201.9 L119.95 203.7 130.75 204.1 Q121.3 209.45 107.4 208.8 95.95 208.3 87.45 204.6 74.15 198.9 68.75 190.85 67.1 188.35 66.4 185.9 L66.05 183.95 66.95 183.05 Q68.05 184.8 71.7 187.95"/><path fill="#0e1d3b" d="M118.3 203.3 Q114.4 202.35 110.95 200.45 L108.25 198.75 Q112.2 199.75 118.1 199.6 125.95 199.4 133.45 196.9 154.5 190.0 165.85 168.05 164.3 173.05 160.65 179.4 153.3 192.1 142.65 198.95 130.75 206.4 118.3 203.3"/><path fill="#0e1d3b" d="M180.15 135.95 Q174.55 143.65 169.15 155.25 165.85 162.4 163.45 169.15 159.6 173.3 153.95 176.1 151.1 177.5 149.05 178.1 155.3 173.6 162.75 160.4 170.5 146.6 176.05 139.5 179.6 134.9 184.65 130.6 182.95 132.1 180.15 135.95"/><path fill="#383d54" d="M176.75 141.4 Q179.85 136.3 182.3 133.05 181.15 141.4 178.7 149.4 175.85 157.3 171.4 161.9 169.2 164.2 167.55 164.9 167.15 164.4 166.9 163.2 166.65 161.8 166.95 161.0 170.45 151.65 176.75 141.4"/><path fill="#383d54" d="M179.75 129.3 Q183.0 121.95 183.2 119.55 L183.2 122.2 182.75 129.35 179.75 129.3"/><path fill="#383d54" d="M158.15 183.7 Q159.75 185.75 160.7 190.15 161.7 194.55 161.65 199.6 159.05 199.25 155.75 197.95 154.05 195.8 150.1 193.2 L154.25 188.8 Q156.5 186.15 157.7 183.75 L158.15 183.7"/><path fill="#90072b" d="M161.65 217.35 Q157.45 217.6 157.05 211.1 157.4 203.35 157.1 201.0 156.95 199.5 155.75 197.95 159.05 199.25 161.65 199.6 L161.4 204.45 Q160.25 213.9 161.65 217.35"/><path fill="#383d54" d="M69.15 195.4 Q68.2 191.5 66.7 188.0 68.85 191.6 72.4 195.0 77.7 200.0 85.2 203.5 L84.85 204.3 83.65 206.6 Q79.2 207.6 75.35 207.2 72.4 206.9 70.2 205.85 70.45 200.95 69.15 195.4"/><path fill="#90072b" d="M60.0 223.75 Q69.55 217.6 70.2 205.85 72.4 206.9 75.35 207.2 79.2 207.6 83.65 206.6 80.65 211.6 76.0 216.45 71.5 221.15 65.3 222.9 L60.0 223.75"/><path fill="#383d54" d="M135.25 202.35 L135.15 204.75 134.7 210.4 Q128.3 214.45 121.6 214.55 118.1 210.8 111.9 208.85 L119.6 207.75 Q128.65 205.9 135.25 202.35"/><path fill="#90072b" d="M123.55 233.3 Q128.35 221.65 121.6 214.55 128.3 214.45 134.7 210.4 134.15 215.7 133.35 218.65 131.3 226.1 127.25 230.45 125.2 232.6 123.55 233.3"/><path fill="#061922" d="M40.6 127.2 Q41.1 127.25 41.0 128.8 40.75 132.35 40.9 134.65 41.15 138.55 42.55 142.8 42.65 143.05 41.75 143.3 L40.75 143.35 Q38.45 135.4 39.75 128.75 40.05 127.2 40.6 127.2"/><path fill="#061922" d="M137.55 98.5 Q136.9 97.4 137.3 97.2 137.65 96.95 138.35 97.95 142.25 103.3 144.25 110.4 146.45 117.95 146.1 126.55 146.05 128.1 145.55 128.1 145.0 128.1 144.95 126.55 144.75 118.05 143.2 111.95 141.5 105.15 137.55 98.5"/><path fill="#061922" d="M22.7 72.75 Q24.0 82.9 29.3 94.2 35.2 106.75 42.6 112.6 45.7 98.1 56.35 86.95 51.2 81.9 41.75 77.9 32.3 73.95 22.7 72.75 M20.15 72.5 Q18.8 72.4 18.8 71.8 18.75 71.2 20.15 71.25 31.45 71.5 42.15 76.1 51.95 80.3 57.65 86.45 58.05 86.85 57.7 87.3 47.35 99.8 43.35 114.35 43.15 115.1 42.85 115.0 L42.35 114.7 Q34.75 109.65 28.05 95.45 21.8 82.25 21.25 72.6 L20.15 72.5"/><path fill="#061922" d="M119.75 81.25 Q119.55 81.1 119.8 80.55 120.05 80.0 120.3 80.1 123.0 81.5 127.6 85.15 133.2 89.7 135.6 93.35 139.75 84.8 141.65 75.65 143.15 68.4 143.15 61.5 143.15 57.65 142.65 54.85 142.2 52.4 141.65 52.0 141.5 51.9 141.8 51.5 142.1 51.15 142.3 51.3 143.5 52.1 144.2 55.9 144.95 60.05 144.65 65.75 143.8 80.6 136.5 95.2 136.15 95.85 135.8 95.75 L134.95 94.95 Q132.05 91.5 126.45 86.65 121.7 82.5 119.75 81.25"/><path fill="#061922" d="M144.5 50.3 Q146.1 50.1 146.15 50.55 146.15 50.95 144.6 51.3 140.65 52.2 135.6 55.65 128.95 60.2 123.65 67.35 123.45 67.55 123.15 66.65 122.85 65.75 123.0 65.5 128.05 58.7 134.55 54.45 140.1 50.8 144.5 50.3"/><path fill="#061922" d="M8.25 49.5 Q16.8 49.9 29.0 53.1 41.9 56.45 51.15 61.05 51.4 61.15 51.25 62.05 51.15 62.95 50.9 62.85 42.7 59.05 29.7 55.4 15.95 51.55 8.2 51.2 4.0 51.0 2.75 52.3 1.5 53.55 1.8 58.35 2.8 73.05 11.3 92.35 22.35 117.45 40.25 132.7 40.5 132.85 40.2 133.75 39.9 134.65 39.65 134.5 19.95 118.75 9.0 93.0 1.15 74.55 0.05 58.45 -0.3 52.95 1.4 51.25 3.35 49.3 8.25 49.5"/><path fill="#061922" d="M137.1 30.75 Q148.7 25.25 152.15 27.3 154.95 29.0 156.15 38.2 157.35 47.25 156.5 60.05 154.5 90.95 144.05 113.2 143.95 113.35 143.6 111.85 143.2 110.35 143.35 110.0 153.2 87.25 154.55 57.6 155.1 46.2 154.1 37.75 153.15 29.75 151.4 28.7 148.9 27.2 138.75 32.2 127.55 37.65 120.35 45.35 120.15 45.55 119.65 44.6 119.15 43.7 119.3 43.5 125.05 36.4 137.1 30.75"/><path fill="#061922" d="M44.55 141.55 L46.75 141.75 Q46.9 142.2 44.9 142.8 38.25 144.8 28.8 148.65 19.4 152.5 15.55 154.8 13.7 155.85 13.75 156.2 13.8 156.5 15.8 156.95 L28.9 158.1 Q41.5 158.7 49.9 157.8 51.5 157.65 51.35 158.25 L50.25 159.3 Q41.75 164.7 35.45 170.2 L34.4 171.25 35.7 171.5 46.05 170.9 Q54.45 169.95 60.3 168.15 62.2 167.6 62.5 168.15 62.8 168.75 60.95 169.5 54.55 172.1 46.25 173.0 39.7 173.7 35.05 173.15 32.65 172.9 32.35 172.15 32.0 171.35 33.75 169.35 35.6 167.25 39.15 164.65 42.95 161.85 47.4 159.5 L29.2 160.1 Q19.8 159.65 15.6 158.65 12.2 157.8 12.0 156.5 11.8 155.2 14.85 153.2 20.4 149.55 29.9 145.9 38.95 142.4 44.55 141.55"/><path fill="#061922" d="M67.4 16.5 Q67.05 14.9 67.7 14.9 68.05 14.85 68.9 15.35 73.05 17.9 75.95 22.3 79.95 28.5 79.5 36.3 79.45 37.85 78.95 37.85 78.45 37.9 78.35 36.4 77.75 28.25 74.2 22.5 71.85 18.65 68.7 16.55 69.6 20.65 69.25 24.2 68.65 29.95 65.0 35.75 61.45 41.45 59.95 45.1 58.15 49.4 58.15 53.3 58.15 56.8 59.6 60.7 58.6 62.5 58.45 62.2 55.6 55.6 56.9 49.1 58.1 43.25 63.2 35.15 66.9 29.3 67.65 23.3 68.1 19.55 67.4 16.5"/><path fill="#061922" d="M87.5 77.9 L87.7 78.9 Q87.7 79.75 87.5 79.6 79.3 73.25 76.4 62.6 74.0 54.05 75.45 44.85 66.85 49.05 62.4 55.55 57.45 62.85 59.3 72.45 59.65 74.2 59.2 74.4 58.8 74.6 58.3 72.9 55.45 62.9 61.1 54.5 65.8 47.7 75.9 43.05 77.0 42.6 76.8 43.75 L76.5 47.45 Q76.35 52.0 76.95 56.35 78.8 70.3 87.5 77.9"/><path fill="#061922" d="M96.15 28.15 L96.85 28.35 Q99.45 29.05 103.85 32.25 111.0 37.5 114.55 45.15 112.05 32.05 104.35 22.25 98.4 14.6 89.75 9.5 79.6 3.4 68.6 1.7 74.25 6.95 76.45 13.3 78.35 18.95 78.3 28.05 L77.3 26.6 76.25 24.8 Q76.4 11.2 66.35 1.6 L65.45 0.55 Q65.15 -0.15 67.1 0.05 78.65 0.85 90.4 7.5 113.9 20.8 116.6 50.25 116.7 51.55 116.25 51.65 115.8 51.7 115.35 50.5 112.7 43.1 106.3 36.85 102.25 32.9 97.55 30.15 99.3 35.45 98.4 39.8 97.35 44.8 92.2 53.05 86.15 62.7 86.15 69.9 86.15 76.5 90.65 82.65 91.4 83.7 91.05 83.9 90.7 84.15 89.8 83.1 83.95 76.45 84.3 68.8 84.6 61.65 90.55 52.1 95.5 44.2 96.55 40.35 97.75 35.7 95.95 29.05 95.75 28.2 96.15 28.15"/><path fill="#061922" d="M58.85 44.65 Q59.05 44.45 59.25 45.3 59.45 46.15 59.25 46.35 54.9 51.85 53.3 56.45 50.95 63.2 52.35 72.1 53.7 80.6 59.4 87.35 62.35 90.9 67.15 94.35 68.45 95.25 68.25 95.65 L66.6 95.5 Q62.6 93.9 58.0 88.65 51.75 81.5 50.3 72.5 47.75 56.3 58.85 44.65"/><path fill="#061922" d="M109.75 29.7 Q109.55 29.55 109.55 28.65 109.55 27.7 109.75 27.9 112.8 30.3 116.4 35.55 121.0 42.2 122.9 49.0 125.2 57.4 124.35 66.2 123.25 77.55 116.9 86.3 115.95 87.6 115.5 87.3 115.0 87.0 115.85 85.65 126.05 69.35 120.75 49.9 118.85 42.9 115.25 36.8 112.25 31.7 109.75 29.7"/><path fill="#061922" d="M57.75 170.0 L58.7 169.7 Q59.65 169.5 59.7 169.7 59.8 170.6 60.65 171.8 61.8 173.4 63.55 174.15 64.45 174.55 64.4 174.85 L63.5 175.35 Q62.55 175.6 61.15 176.5 58.65 178.1 57.4 180.5 55.45 184.25 56.6 188.85 57.2 191.4 58.9 193.4 60.1 194.85 61.3 195.5 60.6 192.0 61.9 188.4 63.7 183.4 69.0 180.1 70.25 179.35 70.6 179.75 70.9 180.1 69.8 181.05 62.4 187.4 62.4 195.3 62.4 196.7 62.0 196.85 61.7 196.95 60.4 196.2 56.2 193.95 54.8 189.3 53.4 184.8 55.6 180.3 57.35 176.8 61.85 174.65 60.3 173.9 59.0 172.3 57.85 170.85 57.75 170.0"/><path fill="#061922" d="M65.55 184.2 Q65.55 183.95 66.15 183.8 66.75 183.7 66.8 183.95 67.1 187.05 68.8 189.7 70.25 191.95 73.0 194.4 85.25 205.1 102.85 207.45 120.45 209.8 133.1 202.4 L134.4 202.35 Q135.4 202.45 135.2 202.6 120.85 212.0 102.3 209.5 84.8 207.15 71.75 195.75 65.9 190.65 65.55 184.2"/><path fill="#061922" d="M166.1 166.0 Q166.9 165.1 167.2 165.5 167.45 165.8 167.2 166.6 163.8 177.1 156.65 186.6 148.2 197.8 137.9 202.45 128.2 206.85 117.55 204.0 109.15 201.7 104.75 196.95 103.7 195.85 104.1 195.4 104.55 195.0 105.65 196.05 L108.1 197.95 Q111.25 200.05 114.75 201.4 125.9 205.7 136.75 200.75 146.25 196.45 154.55 186.55 161.8 177.85 165.65 168.15 161.35 172.65 156.3 175.7 148.75 180.35 141.25 180.6 140.05 180.65 139.95 180.2 139.85 179.75 141.0 179.6 150.0 178.3 158.9 172.05 163.4 168.95 166.1 166.0"/><path fill="#061922" d="M145.2 118.25 Q148.6 117.0 152.25 117.8 152.5 117.9 152.4 118.5 152.35 119.1 152.1 119.1 148.8 118.7 145.4 120.25 145.25 120.35 145.15 119.35 145.0 118.3 145.2 118.25"/><path fill="#061922" d="M166.1 95.95 Q167.7 96.05 168.7 98.75 170.45 103.35 169.5 114.2 169.3 116.45 168.7 116.55 168.15 116.6 168.2 114.4 168.4 105.4 167.55 100.85 166.9 97.45 165.95 97.4 163.6 97.35 158.55 106.55 154.25 114.45 152.4 120.15 151.85 121.8 151.35 121.65 150.85 121.45 151.2 119.75 152.65 113.05 157.3 104.9 162.45 95.8 166.1 95.95"/><path fill="#061922" d="M168.0 98.95 L167.45 97.75 Q168.2 95.55 169.7 92.8 171.6 89.4 173.75 87.05 175.95 84.5 177.8 85.0 179.7 85.45 180.85 89.65 183.0 97.45 183.75 108.85 184.45 119.4 183.75 129.15 L181.8 129.1 Q182.6 119.2 182.05 108.95 181.45 97.6 179.35 90.0 L178.45 87.3 177.5 86.2 Q176.9 86.05 176.1 86.75 L174.8 88.1 Q171.95 91.55 168.65 99.65 L168.0 98.95"/><path fill="#061922" d="M181.3 134.35 L183.5 131.75 183.3 133.7 Q181.95 144.85 177.6 153.7 173.4 162.35 167.85 165.7 167.6 165.8 167.35 165.1 167.05 164.4 167.25 164.25 172.3 161.2 176.1 153.1 179.9 144.95 181.3 134.35"/><path fill="#061922" d="M65.6 184.9 L66.45 185.6 67.25 186.85 Q66.7 192.85 60.6 209.4 L58.1 216.1 Q57.4 218.1 57.4 219.65 57.4 221.45 58.35 222.2 59.85 223.35 63.45 222.5 66.8 221.7 70.05 219.65 74.4 216.9 78.25 212.35 82.15 207.8 84.5 202.75 L85.55 202.9 86.4 203.45 Q83.95 208.75 79.9 213.5 75.75 218.35 71.3 221.1 67.6 223.4 63.6 224.25 59.1 225.15 57.15 223.5 55.65 222.2 55.6 220.05 55.55 218.3 56.45 215.5 57.65 212.1 59.0 208.75 L62.0 199.6 Q64.75 190.5 65.6 184.9"/><path fill="#061922" d="M134.55 202.55 Q134.55 202.3 135.55 202.25 L136.5 202.45 Q135.8 218.3 130.85 227.1 126.85 234.2 122.2 234.2 118.0 234.2 115.75 228.3 113.55 222.5 112.7 218.7 L111.35 213.45 109.9 208.75 Q109.8 208.5 110.7 208.3 L111.7 208.4 Q113.05 211.95 114.55 218.45 114.95 220.45 115.9 223.5 L117.35 227.65 Q119.25 232.55 122.2 232.55 126.15 232.55 129.65 225.75 133.95 217.35 134.55 202.55"/><path fill="#061922" d="M166.7 160.5 Q166.7 160.25 167.55 159.25 168.35 158.3 168.35 158.55 167.9 161.95 169.0 166.5 169.8 169.7 171.05 172.55 174.2 179.9 174.6 181.55 175.75 186.05 175.2 194.0 174.6 203.35 171.45 209.75 168.3 216.1 163.65 217.55 160.4 218.6 158.45 217.2 157.25 216.3 156.8 214.55 156.4 212.85 156.3 208.65 L156.05 203.2 Q155.9 201.55 155.35 199.65 154.9 198.15 152.9 196.6 L148.75 193.8 151.05 192.5 155.05 195.5 Q156.8 197.2 157.35 199.1 158.3 202.5 158.05 208.55 157.8 214.7 159.35 215.85 160.55 216.7 163.0 215.9 166.75 214.7 169.45 209.65 172.7 203.65 173.3 193.85 173.75 186.95 172.4 182.05 L169.25 173.55 Q168.15 170.55 167.4 167.25 166.45 163.0 166.7 160.5"/><path fill="#061922" d="M173.75 191.55 Q173.85 191.35 174.15 192.0 174.45 192.65 174.35 192.85 172.45 196.4 169.65 198.4 167.4 199.95 164.9 200.35 162.05 200.8 159.05 199.85 156.75 199.1 155.9 198.25 L155.7 197.4 Q155.65 196.7 155.85 196.9 156.5 197.55 159.0 198.3 L164.65 198.8 Q167.35 198.4 169.8 196.4 172.15 194.5 173.75 191.55"/><path fill="#061922" d="M134.3 209.35 Q134.55 209.2 134.95 209.7 135.3 210.15 135.1 210.35 129.05 215.3 121.8 215.4 116.55 215.45 112.05 213.2 111.85 213.1 112.1 212.5 112.4 211.95 112.6 212.05 115.65 213.55 121.0 213.65 128.85 213.8 134.3 209.35"/><path fill="#061922" d="M83.4 205.55 L83.85 206.1 Q84.05 206.65 83.8 206.75 79.05 208.25 74.9 207.95 71.55 207.7 69.0 206.4 66.65 205.15 64.9 202.9 63.45 201.1 62.9 199.35 62.8 199.1 63.35 198.8 L63.95 198.7 Q64.4 200.0 65.75 201.7 67.5 203.75 69.75 204.95 75.6 208.05 83.4 205.55"/><path fill="#061922" d="M173.65 129.25 Q181.25 127.9 185.8 128.5 186.8 128.65 186.7 129.1 L185.95 129.95 Q180.25 134.95 171.85 151.8 168.9 157.65 166.25 164.4 L164.45 168.5 Q163.55 170.05 162.1 171.05 L161.5 170.9 Q161.15 170.55 161.3 170.45 162.45 169.7 163.2 168.0 L164.8 163.8 Q165.9 160.75 166.75 158.65 168.25 154.75 170.15 150.95 177.95 135.3 184.8 129.55 180.15 129.65 171.45 131.65 163.05 133.55 159.0 135.3 L161.45 132.9 Q165.8 130.6 173.65 129.25"/><path fill="#061922" d="M165.4 123.8 Q169.0 124.05 168.85 125.75 168.8 126.4 167.3 128.45 165.05 131.65 159.95 135.75 154.4 140.2 150.0 142.0 153.8 142.4 156.85 143.4 159.3 144.3 159.45 145.45 159.55 146.55 157.4 148.05 L151.7 151.2 Q147.2 153.35 143.5 154.55 139.65 161.9 134.75 166.5 125.2 175.4 109.85 178.1 94.65 180.75 77.75 176.8 65.85 174.05 59.15 170.05 58.95 169.9 59.65 169.55 L60.55 169.3 Q68.75 172.95 78.55 174.95 94.7 178.3 109.55 175.7 133.25 171.55 142.25 154.15 L142.75 153.5 143.45 153.15 Q154.75 148.2 156.95 146.7 158.15 145.85 158.2 145.6 158.2 145.25 156.65 144.7 152.95 143.45 146.6 143.1 145.2 143.05 145.2 142.5 145.2 141.95 146.6 141.85 149.35 141.55 156.35 136.3 163.15 131.2 166.35 127.25 L167.45 125.8 Q167.45 125.25 165.4 125.15 162.65 125.0 157.5 125.25 L145.4 126.2 Q145.15 126.25 145.0 125.45 144.9 124.65 145.15 124.6 L155.15 123.85 Q161.65 123.55 165.4 123.8"/><path fill="#061922" d="M124.95 145.95 L124.45 146.6 Q123.7 147.05 122.45 147.35 L120.35 147.55 Q119.6 147.45 119.55 147.15 119.45 146.85 120.05 146.45 120.75 146.05 122.05 145.75 L124.2 145.55 Q124.9 145.65 124.95 145.95"/><path fill="#061922" d="M96.95 108.8 Q96.75 106.1 95.45 103.7 93.8 100.65 91.0 99.6 L87.85 99.65 Q86.35 100.3 85.75 101.95 85.15 103.5 85.4 105.65 85.6 107.5 86.35 109.15 87.1 110.8 88.35 112.2 89.8 113.8 91.35 114.4 L94.45 114.35 Q97.25 113.15 96.95 108.8 M87.7 98.35 L91.75 98.45 Q93.55 99.15 95.2 100.95 96.5 102.45 97.35 104.25 98.45 106.7 98.45 109.3 98.45 113.6 95.7 115.15 93.35 116.5 90.65 115.45 88.85 114.75 87.2 112.95 85.9 111.45 85.05 109.65 84.25 107.85 84.05 105.9 83.8 103.45 84.5 101.65 85.45 99.15 87.7 98.35"/><path fill="#061922" d="M116.7 95.35 Q115.6 94.7 114.4 94.9 113.25 95.2 112.55 96.35 111.7 97.65 111.6 99.95 111.5 101.9 111.9 103.8 112.35 105.7 113.35 107.4 114.45 109.35 115.8 110.2 116.9 110.85 118.1 110.65 119.7 110.25 120.45 108.2 121.05 106.4 120.9 104.0 L120.45 101.4 119.65 99.1 Q118.45 96.45 116.7 95.35 M111.35 95.95 Q112.55 94.05 114.35 93.75 115.95 93.5 117.6 94.5 119.15 95.5 120.4 97.55 121.45 99.4 121.95 101.5 122.35 103.1 122.35 104.8 122.35 107.15 121.4 109.0 120.25 111.35 118.25 111.8 116.55 112.15 114.9 111.15 113.35 110.15 112.15 108.05 111.05 106.15 110.55 104.05 110.05 102.0 110.2 99.9 110.4 97.5 111.35 95.95"/><path fill="#061922" d="M126.45 109.3 Q126.1 115.0 127.1 121.25 128.1 127.4 130.25 132.8 132.6 138.7 135.2 140.6 137.65 142.35 139.45 139.9 141.35 137.3 141.65 130.95 141.95 125.15 140.95 119.0 139.95 112.8 137.85 107.45 135.5 101.5 132.9 99.6 131.8 98.85 130.75 98.95 129.55 99.1 128.65 100.3 126.8 102.9 126.45 109.3 M130.5 97.65 Q132.15 97.5 133.65 98.6 137.25 101.2 139.5 107.1 143.25 116.8 143.35 127.8 143.35 131.75 142.6 135.2 141.85 138.75 140.5 140.65 137.9 144.2 134.2 141.65 131.3 139.55 128.75 133.3 126.45 127.7 125.45 121.45 124.45 115.25 124.85 109.2 125.3 102.5 127.4 99.6 128.65 97.85 130.5 97.65"/><path fill="#061922" d="M134.2 115.25 Q134.15 115.05 134.9 114.5 135.65 113.95 135.7 114.15 136.7 117.15 137.35 121.1 138.4 127.6 137.5 132.35 136.5 137.35 133.75 137.8 132.25 138.05 130.85 136.65 130.7 136.5 131.1 136.15 131.45 135.75 131.6 135.9 132.55 136.9 133.55 136.75 135.55 136.45 136.15 131.65 136.7 127.2 135.8 121.75 135.25 118.3 134.2 115.25"/><path fill="#061922" d="M69.55 108.6 Q66.25 109.2 64.05 112.45 61.5 116.2 61.15 122.75 60.85 128.55 62.25 134.1 63.65 139.45 66.5 144.2 69.7 149.6 73.55 151.9 77.3 154.1 80.9 152.85 84.55 151.6 86.45 147.15 88.1 143.25 88.15 137.55 88.2 132.45 87.0 127.75 85.65 122.4 82.8 117.65 79.6 112.25 75.75 109.95 72.6 108.05 69.55 108.6 M63.0 111.25 Q66.0 107.25 70.05 107.0 73.25 106.8 76.6 108.8 79.15 110.35 81.5 112.95 83.85 115.6 85.45 118.75 89.7 126.85 89.9 136.0 90.05 143.0 87.7 147.9 85.1 153.35 80.8 154.5 76.95 155.55 72.6 153.0 68.5 150.55 65.05 145.0 62.0 140.0 60.55 134.5 59.05 128.5 59.5 122.25 60.0 115.2 63.0 111.25"/><path fill="#061922" d="M73.2 127.9 L74.1 127.75 Q74.95 127.85 74.95 128.05 75.2 134.9 78.75 141.05 82.2 147.1 85.2 146.35 86.95 145.9 87.85 143.35 L88.45 143.3 88.85 143.7 Q87.7 147.0 85.45 147.6 81.45 148.65 77.45 142.4 73.35 136.0 73.2 127.9"/><path fill="#061922" d="M60.35 126.8 Q60.1 126.8 60.1 126.15 60.1 125.55 60.35 125.5 64.7 124.95 73.4 126.6 82.3 128.35 88.75 131.1 89.0 131.2 88.8 131.75 L88.3 132.25 Q82.45 130.05 72.55 128.3 64.05 126.8 60.35 126.8"/><path fill="#061922" d="M138.9 108.75 Q139.1 108.6 139.5 109.05 139.95 109.45 139.75 109.65 137.45 112.0 134.0 117.15 130.05 123.15 128.4 127.45 128.35 127.7 127.75 127.45 L127.25 127.0 Q128.95 121.7 133.0 115.75 136.35 110.9 138.9 108.75"/><path fill="#061922" d="M128.0 141.25 Q129.25 141.5 129.2 141.95 129.1 142.35 127.85 142.15 120.95 141.2 115.1 143.15 111.75 144.3 108.05 146.85 107.0 147.6 106.65 147.45 106.25 147.25 107.4 146.05 109.7 143.6 114.35 142.0 120.8 139.8 128.0 141.25"/><path fill="#061922" d="M107.6 169.35 Q96.95 169.0 91.5 166.15 88.05 164.3 87.55 162.25 87.35 161.4 87.6 161.3 87.85 161.2 88.35 162.05 89.4 163.85 92.7 165.2 97.95 167.3 107.7 167.65 118.05 168.0 123.9 164.45 126.85 162.65 127.7 160.75 128.05 159.75 128.45 159.95 128.8 160.15 128.5 161.15 127.6 164.05 123.25 166.4 117.25 169.7 107.6 169.35"/></g></svg>