<?xml version='1.0' encoding='utf-8'?>
<svg xmlns="http://www.w3.org/2000/svg" version="1.1" width="227px" height="196px" viewBox="-2.95 -2.2 226.5 196.25"><g><path fill="#c9c9c4" d="M193.5 31.05 Q193.65 24.55 194.2 22.6 194.85 20.35 196.85 20.3 203.95 20.2 211.5 33.95 219.25 48.1 220.15 64.0 220.95 77.55 217.3 92.05 215.5 99.35 213.55 103.9 L214.9 103.85 Q216.55 104.0 218.15 105.15 220.55 106.75 217.5 114.35 214.0 123.05 205.5 131.8 197.75 139.85 181.7 147.65 L167.2 153.9 Q172.1 153.9 179.25 156.5 182.95 157.85 182.2 161.3 181.3 165.6 172.8 170.15 164.9 174.45 151.0 175.2 L138.7 175.15 141.15 177.3 Q141.9 178.25 141.9 179.6 141.9 181.4 138.85 182.4 135.1 183.55 128.25 182.6 121.95 181.75 115.55 178.55 L110.4 175.55 110.0 164.15 Q117.1 162.2 126.1 157.15 133.7 152.9 139.9 148.1 168.95 125.3 181.05 92.7 188.7 72.1 191.65 53.0 193.2 42.85 193.5 31.05"/><path fill="#ffffff" d="M211.6 33.55 Q215.2 39.2 217.55 49.8 218.7 55.1 219.15 59.25 216.75 62.2 213.95 62.7 211.25 63.15 208.9 61.2 L208.4 60.95 Q208.15 60.9 207.8 61.3 202.9 67.25 198.2 68.15 193.8 68.95 189.95 65.35 192.6 47.05 193.35 35.3 L194.15 23.6 Q194.65 20.65 196.85 20.3 199.35 19.9 203.3 23.35 207.4 26.95 211.6 33.55"/><path fill="#9f9f9b" d="M112.0 172.8 Q115.45 175.45 121.75 178.0 131.3 181.9 139.85 181.45 L137.1 182.3 Q133.2 183.0 127.4 182.05 121.65 181.1 115.45 178.25 L110.4 175.55 112.0 172.8"/><path fill="#9f9f9b" d="M175.7 167.9 Q168.85 172.25 160.5 173.95 152.15 175.7 144.9 175.7 L139.3 175.35 131.9 170.4 Q137.35 172.5 150.2 172.2 168.4 171.75 180.9 163.95 179.15 165.75 175.7 167.9"/><path fill="#9f9f9b" d="M203.15 133.65 Q198.4 138.6 182.35 146.75 L167.2 153.9 156.7 154.55 150.35 155.55 Q160.75 153.6 176.65 146.8 190.8 140.75 203.15 133.65"/><path fill="#0f141b" d="M196.5 21.05 Q195.45 21.5 195.0 23.5 194.6 25.25 194.5 28.8 194.1 53.5 188.95 73.95 183.7 95.0 173.15 112.75 162.2 131.2 145.5 144.9 129.45 158.05 109.85 165.45 109.5 165.55 109.2 164.75 108.9 163.95 109.25 163.85 128.25 156.7 144.0 143.25 159.85 129.75 170.85 111.25 181.25 93.7 186.7 72.45 192.0 51.85 192.4 28.6 192.5 24.3 193.35 22.2 194.15 20.15 195.85 19.45 199.8 17.95 206.6 25.35 218.45 38.35 220.95 59.75 223.55 82.1 214.55 104.3 214.4 104.6 213.6 104.3 212.85 104.05 212.95 103.7 220.6 81.9 218.35 60.35 216.15 38.8 204.95 26.5 199.1 20.1 196.5 21.05"/><path fill="#0f141b" d="M209.35 103.65 Q216.0 101.7 218.55 104.5 221.25 107.45 218.05 115.45 213.25 127.45 199.4 138.1 184.55 149.55 165.1 154.75 164.75 154.85 164.5 154.3 164.2 153.75 164.55 153.65 182.25 148.05 197.05 136.85 211.85 125.65 216.25 114.55 219.05 107.5 217.3 105.65 215.75 103.95 209.9 105.65 201.75 108.1 191.35 116.45 180.4 125.3 173.95 135.35 172.95 136.9 172.3 136.65 171.6 136.45 172.55 134.8 179.6 122.1 190.7 113.5 199.8 106.45 209.35 103.65"/><path fill="#0f141b" d="M173.85 153.65 Q178.0 154.35 180.45 156.0 182.75 157.55 183.15 159.7 183.5 161.65 181.8 164.1 179.7 167.25 174.75 170.05 167.85 173.95 159.05 175.55 149.35 177.25 139.4 175.75 139.05 175.7 139.1 175.05 139.15 174.4 139.5 174.4 149.8 174.8 158.9 173.1 168.0 171.35 174.3 167.8 178.0 165.7 179.9 163.65 181.75 161.6 181.45 160.0 181.2 158.55 179.1 157.4 177.0 156.25 173.45 155.65 166.55 154.5 157.5 155.8 148.4 157.15 141.35 160.35 139.7 161.1 139.45 160.65 139.2 160.2 140.8 159.3 148.3 154.95 157.7 153.55 166.15 152.3 173.85 153.65"/><path fill="#0f141b" d="M109.7 176.05 Q109.4 175.85 109.9 175.15 110.4 174.45 110.7 174.65 116.7 178.85 126.7 180.7 136.05 182.45 139.95 180.85 141.2 180.35 141.35 179.6 141.5 178.8 140.5 177.5 138.6 174.95 132.3 171.9 128.45 170.05 124.3 168.55 123.15 168.2 123.25 167.9 L124.6 167.7 Q127.25 167.95 132.4 170.25 138.55 173.05 141.35 176.25 143.05 178.2 142.65 179.9 142.25 181.55 140.0 182.45 135.1 184.45 126.3 182.95 116.5 181.25 109.7 176.05"/><path fill="#c9c9c4" d="M175.8 35.35 Q175.8 47.45 172.5 60.35 168.65 75.3 161.7 85.05 156.4 92.4 150.75 96.5 144.3 101.2 133.7 104.65 134.05 110.1 131.95 116.45 130.9 119.65 129.75 121.75 134.25 122.35 133.0 127.7 132.0 132.05 127.85 137.8 125.0 141.75 118.4 145.9 115.1 148.0 112.35 149.25 L114.25 157.95 Q116.4 167.15 116.6 171.7 116.8 176.55 115.45 180.0 114.75 181.7 114.05 182.45 L116.0 184.5 Q117.15 186.1 117.55 187.55 118.1 189.55 116.5 191.45 114.6 193.8 110.75 193.15 107.15 192.55 104.45 189.35 L102.45 186.25 88.45 185.95 78.1 185.75 71.1 185.7 Q69.5 188.2 67.5 189.85 65.3 191.7 63.15 192.1 L57.9 191.75 Q54.9 190.65 54.1 187.65 53.4 184.85 55.8 182.2 L58.35 180.1 Q57.05 177.75 56.75 175.5 56.55 174.0 56.75 170.4 57.05 165.25 60.2 157.45 L63.35 150.65 Q57.4 152.25 51.65 152.45 39.7 152.85 38.35 148.2 37.55 145.45 39.65 143.3 41.75 141.2 48.35 138.1 53.9 135.5 61.45 134.35 L67.9 133.75 Q49.3 130.3 44.55 117.4 43.1 113.35 43.15 108.85 L43.55 105.15 Q19.45 103.3 8.45 75.15 1.1 56.25 1.35 33.7 1.5 20.8 5.45 11.65 9.0 3.35 13.85 1.7 16.25 0.7 20.6 1.1 29.3 1.95 39.1 9.0 50.55 17.2 59.95 32.15 68.85 46.35 71.3 59.05 76.1 56.4 82.05 55.45 87.8 54.5 92.8 55.3 93.45 48.6 92.3 42.3 91.15 35.75 88.3 31.1 86.0 27.25 86.85 25.65 87.75 24.0 92.15 24.55 96.4 25.1 100.65 28.95 105.4 33.25 106.75 39.05 107.95 44.25 106.5 51.45 105.75 55.1 104.8 57.65 106.6 57.85 111.9 61.25 115.7 39.2 130.0 24.2 139.4 14.3 150.95 9.05 160.9 4.55 165.9 5.8 170.05 6.8 172.95 15.7 175.8 24.4 175.8 35.35"/><path fill="#ffffff" d="M175.2 29.85 L173.85 31.35 Q172.35 32.35 170.6 32.2 168.3 32.05 166.8 30.05 166.3 29.3 165.65 29.95 164.25 31.4 162.25 32.15 159.35 33.15 156.1 32.2 152.4 31.15 150.95 27.5 150.0 25.2 150.15 22.45 L149.95 21.85 149.25 21.75 Q145.35 22.15 143.2 21.0 141.4 20.05 141.05 17.95 140.75 16.35 141.25 15.0 L150.95 9.1 Q161.6 3.6 166.6 5.8 171.6 8.0 173.9 19.15 175.05 24.7 175.2 29.85"/><path fill="#ffffff" d="M35.6 14.5 Q35.3 14.65 35.4 15.35 35.7 17.25 34.6 18.8 33.35 20.6 30.1 19.95 L29.25 20.0 Q29.0 20.15 28.8 20.9 27.55 25.95 23.3 28.1 18.75 30.4 12.9 27.75 11.65 27.15 11.25 28.0 8.45 33.6 5.35 35.05 3.25 36.05 1.6 35.1 1.65 27.85 3.1 20.1 6.0 4.65 12.85 2.3 20.65 -0.35 31.75 5.25 37.3 8.05 41.25 11.4 39.95 14.4 36.35 14.4 L35.6 14.5"/><path fill="#f19db5" d="M35.4 42.95 Q39.55 47.05 42.25 50.6 L40.05 50.2 Q37.5 50.2 35.9 52.0 34.05 54.1 34.05 58.75 34.05 63.3 35.85 66.95 L39.2 73.25 Q41.05 76.15 43.25 77.9 38.8 76.6 36.0 77.95 L34.1 79.55 Q28.8 74.75 26.65 67.9 25.15 63.1 24.9 55.8 24.5 45.55 31.85 39.55 L35.4 42.95"/><path fill="#f19db5" d="M148.3 42.95 Q150.55 44.55 152.2 48.1 154.6 53.4 154.25 60.95 153.95 68.2 149.65 75.35 L145.45 81.0 Q144.65 77.15 139.15 77.65 L133.75 78.95 Q137.9 75.75 141.45 67.95 145.05 60.05 144.0 55.95 143.15 52.5 140.25 51.85 L137.5 51.95 Q140.15 48.35 144.5 45.3 L148.3 42.95"/><path fill="#f19db5" d="M126.25 126.15 Q128.9 127.0 129.4 129.55 129.7 130.75 128.8 132.05 127.65 133.7 125.5 133.15 123.45 132.6 122.95 130.8 L122.8 129.05 126.25 126.15"/><path fill="#933000" d="M95.1 114.65 L102.35 114.3 Q101.65 118.15 100.2 121.55 L98.85 124.2 Q98.8 121.0 96.95 117.5 L95.1 114.65"/><path fill="#ee869a" d="M81.25 113.7 L95.05 114.4 Q97.1 116.2 98.2 120.35 98.75 122.45 98.9 124.15 96.35 131.75 91.6 132.25 87.2 132.75 83.6 125.45 80.2 118.6 81.25 113.7"/><path fill="#9f9f9b" d="M56.3 169.2 Q57.05 172.1 66.4 175.25 76.55 178.75 87.45 178.9 98.35 179.1 106.3 176.5 113.05 174.35 116.55 170.65 L116.25 176.65 Q115.0 183.05 110.15 185.0 105.4 186.95 99.2 186.7 L85.2 186.0 Q71.8 185.9 69.5 185.65 62.25 184.95 59.75 181.95 57.4 179.1 56.6 173.85 L56.3 169.2"/><path fill="#9f9f9b" d="M58.35 180.1 Q63.65 178.05 67.9 181.8 70.0 183.7 71.05 186.0 68.25 191.25 62.2 191.95 56.4 192.65 54.6 188.9 53.15 185.9 54.85 183.55 L58.35 180.1"/><path fill="#9f9f9b" d="M102.45 186.25 Q105.6 187.1 110.15 184.55 L114.1 181.85 Q117.6 184.45 117.45 188.35 117.35 192.35 113.2 193.05 109.35 193.7 106.25 191.3 103.95 189.45 102.45 186.25"/><path fill="#9f9f9b" d="M38.5 147.05 Q39.3 148.6 46.15 149.7 55.3 151.15 67.25 148.85 64.95 149.95 61.25 150.9 53.8 152.75 46.65 152.05 39.55 151.35 38.3 149.15 37.9 148.45 38.15 147.7 L38.5 147.05"/><path fill="#9f9f9b" d="M20.15 94.35 Q9.05 83.1 4.85 63.1 8.3 77.3 21.7 89.95 33.9 101.45 46.2 105.25 31.3 105.7 20.15 94.35"/><path fill="#9f9f9b" d="M170.85 67.7 Q170.05 70.7 167.9 75.1 163.6 84.0 156.85 91.2 150.1 98.4 141.1 102.0 138.3 103.1 135.6 103.7 L133.45 104.1 133.2 98.8 Q143.9 98.5 157.6 84.75 162.45 79.85 166.55 74.4 170.05 69.7 170.85 67.7"/><path fill="#d1889e" d="M32.2 39.7 Q35.1 41.8 38.8 46.45 L41.95 50.7 39.2 50.4 Q37.55 50.55 36.4 51.45 32.6 54.5 34.5 63.25 35.45 67.65 37.15 71.45 30.15 64.9 25.2 56.95 25.4 44.45 32.2 39.7"/><path fill="#9f9f9b" d="M19.75 45.35 Q18.3 40.55 18.75 37.85 19.1 35.85 20.2 35.7 23.0 35.35 25.35 36.15 27.2 36.75 31.2 39.05 L32.2 39.7 Q25.4 44.45 25.2 56.95 21.45 50.85 19.75 45.35"/><path fill="#d1889e" d="M139.9 48.8 Q143.6 45.35 147.95 43.35 154.35 46.95 154.15 60.3 147.65 72.1 136.9 75.55 L139.75 71.15 Q142.8 65.9 143.8 61.5 145.0 56.25 143.05 53.45 141.15 50.65 137.05 51.85 L139.9 48.8"/><path fill="#9f9f9b" d="M154.9 41.2 Q156.35 41.0 157.35 42.05 158.65 43.35 158.7 46.3 158.75 48.5 157.65 52.1 156.4 56.3 154.15 60.3 154.35 46.95 147.95 43.35 151.4 41.75 154.9 41.2"/><path fill="#cf7487" d="M81.25 113.7 L86.85 114.3 Q89.35 114.6 95.05 114.4 96.95 115.5 98.0 119.6 98.55 121.65 98.7 123.45 L97.8 125.75 Q95.25 122.2 88.05 119.55 L81.35 117.6 Q80.9 115.55 81.05 114.4 L81.25 113.7"/><path fill="#0f141b" d="M91.4 54.1 L93.45 54.2 93.05 56.25 91.3 56.2 Q80.3 56.05 72.0 59.6 L72.1 58.55 71.7 57.5 Q80.8 53.95 91.4 54.1"/><path fill="#0f141b" d="M68.55 132.8 Q70.95 133.15 71.05 133.75 71.2 134.35 67.95 134.2 62.5 133.95 56.9 131.7 51.05 129.35 47.95 125.9 41.0 118.2 41.9 104.85 L44.7 104.85 Q43.75 117.55 49.7 124.15 55.65 130.7 68.55 132.8"/><path fill="#0f141b" d="M104.6 58.7 L105.5 56.8 Q117.25 61.25 124.8 72.05 132.6 83.15 134.2 98.65 136.1 116.4 127.8 125.6 119.75 134.5 100.85 136.05 L102.35 133.9 Q119.05 132.15 126.0 124.35 129.85 120.1 131.3 113.95 132.75 107.7 131.8 98.95 130.25 84.05 122.8 73.3 115.6 62.95 104.6 58.7"/><path fill="#4e5144" d="M65.2 89.1 Q67.9 84.7 71.55 85.2 75.05 85.7 76.25 90.9 77.35 95.7 77.05 103.6 76.7 111.45 75.4 113.15 73.65 115.45 68.05 115.0 62.5 114.5 60.95 112.05 59.45 109.6 60.45 102.7 61.6 95.05 65.2 89.1"/><path fill="#4e5144" d="M109.6 97.9 Q110.35 85.7 115.0 85.45 118.3 85.3 120.75 89.95 123.4 94.9 124.5 101.7 125.55 108.15 124.5 111.15 123.35 114.5 118.1 114.8 113.05 115.1 111.25 112.6 108.95 109.4 109.6 97.9"/><path fill="#ffffff" d="M72.05 86.8 Q73.2 86.9 73.8 88.15 74.5 89.5 74.35 91.8 74.25 94.1 73.35 95.5 72.5 96.9 71.25 96.8 70.0 96.7 69.4 95.35 68.8 93.9 69.0 91.25 69.15 89.1 70.1 87.85 70.9 86.75 72.05 86.8"/><path fill="#ffffff" d="M115.35 86.95 Q116.5 86.75 117.35 88.0 118.25 89.2 118.65 91.55 119.05 93.75 118.3 95.35 117.65 96.75 116.7 96.9 115.6 97.05 114.7 96.15 113.6 95.1 113.3 92.9 113.0 90.5 113.65 88.75 114.25 87.15 115.35 86.95"/><path fill="#0f141b" d="M96.7 108.0 Q98.1 108.0 98.1 108.75 L97.7 109.25 96.7 109.5 Q95.05 109.5 95.05 108.75 L95.45 108.25 96.7 108.0"/><path fill="#0f141b" d="M88.2 23.35 L93.2 23.65 Q98.0 24.9 101.85 28.7 105.5 32.2 107.35 37.0 111.7 48.25 103.1 61.55 102.9 61.85 101.85 61.9 100.8 61.9 101.0 61.6 105.0 55.4 106.15 49.1 107.3 42.75 105.3 37.6 103.55 33.1 100.35 30.0 96.9 26.7 92.4 25.5 88.25 24.4 87.3 25.75 86.5 26.85 88.7 30.15 93.0 36.4 93.75 47.05 94.5 57.9 91.0 65.95 90.5 67.05 89.9 66.8 89.3 66.5 89.65 65.35 92.3 57.6 91.8 48.0 91.2 37.65 87.0 30.85 84.5 26.75 85.9 24.75 86.6 23.75 88.2 23.35"/><path fill="#0f141b" d="M105.65 59.8 Q108.25 59.7 109.25 61.05 110.3 62.45 109.5 64.75 108.7 67.2 106.2 69.3 104.45 70.75 102.1 71.35 L99.85 71.65 Q98.7 71.65 98.65 71.25 98.6 70.8 99.7 70.55 102.4 70.0 105.3 67.7 107.15 66.2 107.9 64.4 108.65 62.75 108.1 61.85 107.7 61.1 105.6 61.3 103.2 61.45 100.95 62.95 99.15 64.15 98.7 63.6 98.25 63.1 100.15 61.8 102.85 59.95 105.65 59.8"/><path fill="#0f141b" d="M85.25 126.25 Q88.3 131.4 91.8 131.75 94.5 132.0 97.35 126.5 99.7 121.85 101.45 114.95 93.1 116.25 81.9 114.7 82.2 121.0 85.25 126.25 M105.75 114.35 L103.3 114.75 Q101.7 121.9 99.0 126.9 95.5 133.35 91.6 133.05 86.9 132.7 83.4 126.7 80.0 120.8 80.15 113.7 80.15 112.75 81.15 112.85 L93.05 113.6 105.4 113.15 Q106.5 113.05 106.65 113.6 106.75 114.1 105.75 114.35"/><path fill="#0f141b" d="M94.8 115.2 Q94.55 114.95 94.95 114.55 95.35 114.15 95.65 114.35 97.4 115.7 98.45 118.3 99.55 121.0 99.45 123.85 L98.7 125.0 98.0 125.4 Q98.1 122.8 97.15 119.7 96.2 116.5 94.8 115.2"/><path fill="#0f141b" d="M167.25 5.25 Q169.7 6.55 171.7 10.2 173.8 14.0 175.1 19.75 178.85 36.3 175.5 54.2 172.15 71.85 162.9 85.35 157.1 93.8 149.45 98.95 141.95 103.95 133.4 105.25 133.05 105.35 132.85 104.45 132.7 103.6 133.05 103.5 141.15 102.3 148.25 97.4 155.35 92.45 161.0 84.2 170.0 71.05 173.15 53.4 176.25 35.8 172.55 19.45 170.25 9.15 166.35 7.0 164.55 6.05 161.9 6.4 159.3 6.7 155.05 8.35 139.75 14.3 127.75 29.2 115.75 44.1 112.65 61.05 112.6 61.4 111.6 61.25 110.6 61.1 110.65 60.75 113.95 42.3 126.25 27.15 138.2 12.5 154.15 6.3 162.9 2.9 167.25 5.25"/><path fill="#0f141b" d="M31.75 6.15 Q25.65 2.95 21.2 2.15 16.75 1.35 13.5 2.85 7.35 5.65 4.4 18.35 -0.5 39.6 5.7 63.0 11.95 86.45 25.45 97.35 29.75 100.85 34.3 102.55 38.55 104.1 44.2 104.5 47.4 104.75 47.2 105.6 46.95 106.4 43.7 106.2 38.35 105.95 33.2 104.2 27.85 102.35 23.65 99.2 10.25 89.2 3.65 64.75 -2.95 40.2 2.05 18.5 5.35 4.4 12.5 1.1 19.7 -2.2 32.65 4.3 47.5 11.65 58.8 27.55 69.65 42.7 72.35 58.45 72.9 61.9 72.0 62.2 71.1 62.5 70.55 59.15 68.05 45.05 57.3 29.8 45.85 13.45 31.75 6.15"/><path fill="#0f141b" d="M157.75 40.2 Q159.0 40.25 159.05 40.8 159.15 41.4 157.9 41.45 152.7 41.65 147.6 44.55 142.9 47.25 138.7 52.0 137.85 52.95 135.9 53.3 L134.1 53.35 Q138.7 47.05 144.65 43.65 150.85 40.15 157.75 40.2"/><path fill="#0f141b" d="M37.1 51.6 Q35.9 52.25 35.35 54.55 34.85 56.75 35.15 59.8 35.9 66.7 40.05 72.75 44.7 79.45 51.2 81.3 52.35 81.65 52.25 82.25 52.1 82.8 50.95 82.55 43.3 80.75 38.4 74.0 34.15 68.0 33.3 60.35 32.9 56.75 33.75 54.05 34.6 51.35 36.4 50.4 38.3 49.35 40.95 49.7 43.65 50.05 46.15 51.65 51.6 55.1 55.05 61.75 58.8 69.0 58.3 77.0 58.25 78.15 57.6 78.05 56.95 78.0 57.0 76.85 57.3 69.95 53.35 62.8 49.7 56.2 44.7 53.05 39.95 50.1 37.1 51.6"/><path fill="#0f141b" d="M37.1 78.25 Q34.9 78.85 34.1 80.75 33.6 81.9 34.0 83.5 34.4 85.1 35.55 86.65 37.7 89.5 41.5 90.6 L49.65 90.85 Q50.8 90.65 50.9 91.2 51.05 91.8 49.9 92.1 45.1 93.35 40.95 92.15 36.85 90.9 34.4 87.65 32.9 85.75 32.55 83.6 32.15 81.55 32.9 80.0 34.2 77.45 36.95 76.85 40.5 76.1 44.25 78.1 44.55 78.3 44.4 78.8 44.25 79.3 43.95 79.1 42.65 78.35 40.5 78.15 L37.1 78.25"/><path fill="#0f141b" d="M19.05 35.15 Q22.7 34.05 27.2 35.7 35.45 38.75 43.05 50.35 43.25 50.65 42.55 51.15 41.85 51.65 41.65 51.35 33.8 40.5 26.5 37.25 22.3 35.35 19.4 36.2 18.3 36.5 18.1 36.0 17.95 35.45 19.05 35.15"/><path fill="#0f141b" d="M31.25 39.2 Q31.6 39.05 32.1 39.65 32.6 40.2 32.25 40.35 29.9 41.55 28.2 45.0 26.45 48.55 26.05 53.25 25.4 60.6 27.5 67.75 29.8 75.65 34.5 79.2 34.8 79.4 34.35 79.95 33.85 80.45 33.55 80.25 28.4 76.4 25.7 68.55 23.15 61.1 23.8 53.6 24.25 48.5 26.4 44.45 28.45 40.65 31.25 39.2"/><path fill="#0f141b" d="M143.65 52.75 Q145.6 55.1 145.1 60.3 144.55 66.15 140.95 71.85 138.95 75.05 135.95 77.6 L129.4 82.15 128.65 81.55 Q128.2 80.85 128.55 80.65 132.45 78.4 135.15 75.55 137.15 73.5 138.85 70.75 142.25 65.35 143.05 60.15 143.75 55.6 142.35 53.9 140.8 52.15 137.85 52.9 133.6 53.9 129.55 58.7 125.05 63.95 123.3 71.2 123.25 71.6 122.4 71.4 121.6 71.2 121.65 70.8 123.5 62.3 128.2 56.8 132.2 52.1 137.1 50.9 L140.85 51.0 Q142.55 51.5 143.65 52.75"/><path fill="#0f141b" d="M128.5 81.1 Q129.75 79.85 133.9 78.2 139.2 76.1 142.5 76.95 144.6 77.55 145.55 79.25 147.0 81.75 144.6 85.35 142.6 88.5 139.45 90.3 135.85 92.3 131.55 92.1 131.2 92.05 131.3 91.45 131.35 90.8 131.7 90.8 134.75 91.05 138.35 88.85 141.7 86.75 143.45 84.0 146.25 79.65 142.15 78.5 139.35 77.75 134.15 79.85 L129.4 82.15 Q129.1 82.3 128.65 81.85 128.25 81.35 128.5 81.1"/><path fill="#0f141b" d="M148.25 43.95 Q148.0 43.75 148.3 43.3 148.65 42.85 148.9 43.05 152.7 45.9 154.3 51.1 156.0 56.6 154.95 63.75 153.3 75.8 145.1 82.45 144.9 82.65 144.8 81.55 144.7 80.5 145.05 80.1 151.7 73.45 153.15 63.6 154.1 56.8 152.8 51.6 151.5 46.4 148.25 43.95"/><path fill="#0f141b" d="M66.65 132.95 Q67.05 132.95 67.65 133.55 68.3 134.15 67.95 134.2 61.85 134.65 54.45 137.0 46.55 139.5 42.2 142.7 40.45 143.95 39.6 145.35 38.8 146.7 39.1 147.85 39.8 150.5 45.65 151.15 54.3 152.05 66.25 148.75 L68.0 148.8 Q68.3 149.25 66.9 149.9 61.65 152.3 55.45 153.05 50.45 153.65 45.5 153.1 41.5 152.65 39.3 151.0 37.85 149.8 37.45 148.3 37.0 146.55 38.0 144.5 39.0 142.35 41.2 140.75 45.8 137.35 52.85 135.25 59.7 133.2 66.65 132.95"/><path fill="#0f141b" d="M128.55 122.1 Q128.4 121.4 128.75 121.3 131.65 120.75 133.0 122.25 134.1 123.55 134.25 125.5 134.4 127.65 133.45 130.1 130.9 136.8 124.6 142.5 117.55 148.9 108.55 151.35 L106.85 151.25 Q106.6 150.8 108.0 150.25 115.85 147.2 122.6 141.3 129.35 135.35 131.6 129.5 133.2 125.15 131.7 123.35 130.75 122.25 129.0 122.7 128.65 122.8 128.55 122.1"/><path fill="#0f141b" d="M73.55 186.8 L68.5 186.1 Q66.55 185.5 67.05 184.95 67.55 184.4 69.6 184.65 L73.65 184.7 Q80.25 184.6 95.15 185.0 L104.6 185.3 Q106.1 185.35 106.5 185.85 106.9 186.35 105.5 186.7 L99.95 187.25 95.35 187.1 Q80.35 186.7 73.55 186.8"/><path fill="#0f141b" d="M111.4 149.35 L112.8 149.0 116.4 163.95 Q118.1 172.4 117.1 177.4 116.25 181.5 113.55 183.3 112.3 184.15 111.95 183.75 111.7 183.35 112.45 182.4 114.05 180.6 114.7 177.25 115.75 172.3 114.5 164.1 113.75 159.45 111.4 149.35"/><path fill="#0f141b" d="M63.55 150.2 Q64.2 150.75 64.0 151.05 62.0 153.6 60.1 159.1 57.75 165.9 57.75 172.05 57.75 177.25 60.15 180.7 61.3 182.35 60.9 182.85 60.5 183.3 58.85 181.8 55.55 178.7 55.55 172.6 55.55 166.25 58.3 158.75 60.45 152.8 62.65 149.95 62.9 149.7 63.55 150.2"/><path fill="#0f141b" d="M55.3 181.8 Q56.95 180.15 59.1 179.7 59.45 179.6 59.6 180.25 59.8 180.95 59.45 181.0 58.1 181.3 56.75 182.55 54.75 184.4 54.95 186.9 55.1 188.8 56.6 189.9 57.75 190.75 59.35 191.1 L62.1 191.15 Q67.1 190.3 70.85 185.0 L71.6 185.1 Q72.15 185.5 71.95 185.8 69.0 191.9 62.85 192.9 58.55 193.55 55.55 191.25 53.5 189.65 53.25 187.05 53.0 183.95 55.3 181.8"/><path fill="#0f141b" d="M113.3 182.15 Q113.0 181.95 113.5 181.45 113.95 181.0 114.25 181.2 116.25 182.8 117.4 184.9 118.6 187.05 118.4 188.9 118.1 191.55 115.95 193.0 114.65 193.85 112.8 194.05 L108.9 193.7 Q103.65 192.15 101.6 186.2 101.55 185.85 102.2 185.65 L103.0 185.75 Q103.45 187.25 104.9 188.85 106.9 191.1 109.7 191.9 112.95 192.9 115.0 191.55 116.45 190.6 116.7 188.7 116.9 187.35 116.0 185.5 115.05 183.55 113.3 182.15"/><path fill="#0f141b" d="M110.5 190.05 Q110.05 189.15 110.45 188.9 110.8 188.65 111.4 189.4 113.0 191.3 113.65 192.7 113.8 193.0 113.05 193.4 L112.1 193.45 110.5 190.05"/><path fill="#0f141b" d="M114.4 187.75 Q113.95 187.1 114.2 186.8 114.5 186.55 115.05 187.0 L116.45 188.35 117.5 189.85 Q117.6 190.2 117.0 190.8 116.35 191.4 116.25 191.05 115.2 188.8 114.4 187.75"/><path fill="#0f141b" d="M56.95 185.45 L58.05 185.4 Q58.2 185.8 57.45 186.5 56.15 187.75 55.2 189.0 55.0 189.3 54.55 188.65 54.05 187.95 54.25 187.65 55.1 186.5 56.95 185.45"/><path fill="#0f141b" d="M60.7 188.35 Q61.55 187.6 61.85 188.0 62.15 188.35 61.55 189.2 L59.6 192.2 58.7 192.1 Q57.95 191.75 58.1 191.4 L59.05 190.05 60.7 188.35"/><path fill="#0f141b" d="M96.0 131.1 Q97.65 129.65 99.9 128.85 L103.85 128.95 Q104.5 129.5 104.45 130.55 104.35 132.45 102.6 134.95 100.75 137.6 98.4 138.85 L97.1 138.9 Q96.7 138.4 97.65 137.85 99.15 136.9 100.9 134.45 102.5 132.25 103.1 130.65 103.3 130.15 102.9 129.85 L101.95 129.7 Q100.95 129.95 99.45 130.8 98.05 131.6 97.1 132.4 94.05 135.05 92.45 137.9 91.85 139.05 91.35 138.8 90.85 138.5 91.4 137.35 92.4 135.15 93.65 133.55 94.55 132.4 96.0 131.1"/><path fill="#0f141b" d="M98.2 138.05 Q98.85 137.3 99.2 137.25 L105.25 137.55 Q110.5 138.15 112.2 139.7 113.05 140.45 113.05 141.4 113.15 142.75 111.85 143.85 109.85 145.55 106.15 146.15 L99.25 145.95 98.3 145.35 Q97.65 144.85 98.0 144.9 L105.1 144.7 Q109.6 143.95 111.15 142.6 112.15 141.7 111.45 141.05 110.2 139.9 104.9 139.25 L97.9 138.85 Q97.55 138.85 98.2 138.05"/><path fill="#0f141b" d="M97.5 145.9 Q96.75 145.55 96.95 145.0 97.15 144.5 97.95 144.7 100.05 145.35 101.8 146.6 103.65 148.0 104.2 149.5 104.65 150.85 104.0 151.85 103.25 152.9 101.6 152.8 99.55 152.65 97.35 151.15 95.1 149.6 94.2 147.75 93.7 146.65 94.2 146.45 94.65 146.25 95.3 147.25 96.15 148.45 98.3 149.85 100.5 151.25 102.0 151.35 103.3 151.45 102.9 150.3 102.55 149.3 100.9 148.0 99.35 146.75 97.5 145.9"/><path fill="#0f141b" d="M42.25 147.55 Q43.05 147.15 43.3 147.55 43.6 147.9 42.85 148.55 L40.4 150.7 Q40.15 150.95 39.55 150.35 38.95 149.75 39.2 149.5 39.75 148.85 42.25 147.55"/><path fill="#0f141b" d="M41.25 144.15 L42.3 144.3 Q42.5 144.65 41.65 145.2 L38.5 147.2 Q38.25 147.45 38.2 146.45 38.15 145.5 38.4 145.25 39.1 144.7 41.25 144.15"/><path fill="#0f141b" d="M130.85 121.65 Q131.1 121.45 131.6 122.05 132.05 122.7 131.8 122.9 L129.75 124.6 Q129.15 125.1 128.75 124.85 128.3 124.55 128.8 124.0 L130.85 121.65"/><path fill="#0f141b" d="M132.45 125.0 Q132.75 124.8 133.2 125.55 133.6 126.25 133.35 126.45 L131.5 127.45 130.3 127.5 Q129.95 127.1 130.65 126.45 L132.45 125.0"/><path fill="#0f141b" d="M129.25 127.15 Q130.1 128.25 130.15 129.65 130.2 131.35 128.95 132.7 127.8 133.9 125.95 133.8 124.4 133.65 123.55 132.85 121.75 131.2 122.55 128.45 122.65 128.1 123.15 128.3 123.65 128.5 123.55 128.85 123.05 130.7 124.25 131.8 124.75 132.3 125.8 132.4 127.1 132.55 127.9 131.7 129.6 129.9 128.25 127.9 127.9 127.35 127.2 127.05 L125.85 126.95 Q125.5 127.0 125.35 126.45 125.2 125.95 125.55 125.85 127.8 125.5 129.25 127.15"/><path fill="#0f141b" d="M75.15 89.65 Q73.95 86.1 71.45 85.75 69.1 85.45 66.65 88.6 64.0 91.95 62.3 98.05 61.05 102.55 60.9 106.45 60.7 110.2 61.55 111.55 62.65 113.3 67.95 113.8 73.35 114.35 74.7 112.6 75.4 111.7 75.85 108.25 76.35 104.75 76.35 100.65 76.35 93.25 75.15 89.65 M60.45 97.95 Q62.3 91.2 65.3 87.75 68.2 84.35 71.5 84.8 74.6 85.2 76.1 88.8 77.7 92.5 77.9 100.2 78.0 104.65 77.4 108.35 76.85 112.15 75.85 113.45 74.05 115.8 68.05 115.4 62.05 115.0 60.35 112.3 59.3 110.55 59.25 106.65 59.25 102.5 60.45 97.95"/><path fill="#0f141b" d="M119.65 89.6 Q117.35 86.2 115.05 86.3 113.2 86.4 111.9 90.05 110.55 93.75 110.4 99.7 110.25 104.25 110.8 107.95 111.25 111.2 111.95 112.15 113.15 113.8 117.5 113.7 121.85 113.6 123.3 111.85 124.0 111.0 124.15 107.55 124.3 103.4 123.3 98.9 122.0 93.15 119.65 89.6 M114.95 85.05 Q117.8 84.9 120.65 88.95 123.6 93.05 125.0 99.45 126.6 106.75 125.0 111.25 124.25 114.5 118.45 115.1 112.7 115.65 110.65 113.0 109.95 112.0 109.35 108.05 108.7 103.75 108.8 99.6 109.0 93.3 110.7 89.25 112.4 85.15 114.95 85.05"/></g></svg>