<?xml version='1.0' encoding='utf-8'?>
<svg xmlns="http://www.w3.org/2000/svg" version="1.1" width="158px" height="226px" viewBox="-0.75 -0.75 157.5 225.6"><g><path fill="#3f3b3a" d="M33.05 171.65 Q29.9 169.55 30.5 167.45 31.05 165.5 33.65 165.25 38.65 164.8 42.75 163.4 48.15 161.55 53.05 157.85 53.55 164.0 56.2 167.8 55.0 171.4 54.25 174.6 L44.5 174.95 Q37.3 174.45 33.05 171.65"/><path fill="#ffffff" d="M147.4 32.25 Q151.7 34.95 153.65 42.15 155.55 49.0 154.75 57.6 153.9 66.45 150.5 74.05 146.8 82.3 140.95 86.8 136.0 73.55 125.8 64.85 118.8 58.85 108.85 54.75 108.05 47.45 112.25 38.8 116.45 30.2 120.55 30.45 123.75 30.6 126.0 35.75 127.85 40.05 128.0 44.45 132.35 37.55 137.95 33.85 143.85 30.0 147.4 32.25"/><path fill="#3f3b3a" d="M52.7 188.85 Q54.3 191.15 58.3 195.4 L63.0 200.0 Q63.95 198.25 67.2 194.4 L71.15 190.0 Q75.15 194.6 83.75 200.25 L89.95 194.8 Q93.55 191.35 95.0 189.5 95.85 190.8 99.15 194.2 L104.15 199.1 Q105.95 197.7 108.95 194.2 L112.75 189.35 Q113.85 190.1 115.1 191.6 116.45 193.2 117.05 194.6 115.95 205.85 109.8 215.05 104.75 222.6 101.85 222.8 98.9 222.95 95.45 217.75 91.8 212.25 90.4 204.75 L79.25 205.25 Q79.75 211.1 77.75 217.3 75.65 223.85 72.75 223.9 67.1 224.05 60.55 214.55 53.0 203.55 52.7 188.85"/><path fill="#ffffff" d="M27.55 48.95 Q27.55 45.25 28.1 42.65 29.2 37.35 32.8 37.3 36.45 37.25 41.15 42.65 44.25 46.25 46.5 51.2 48.95 56.55 49.4 61.2 39.4 67.9 33.25 76.2 26.1 85.9 23.7 98.4 13.05 93.95 6.85 81.75 1.5 71.25 1.35 59.8 1.15 39.25 16.85 46.05 23.05 48.8 28.15 55.5 27.5 52.95 27.55 48.95"/><path fill="#3f3b3a" d="M71.3 186.15 L66.8 181.25 Q63.4 177.45 62.3 175.65 55.4 180.05 52.7 185.95 53.0 177.1 56.2 167.8 60.25 173.5 68.3 172.25 77.45 170.75 83.25 160.0 90.4 171.1 100.25 172.25 104.3 172.7 107.35 171.1 110.35 169.5 111.2 166.45 112.65 168.55 113.9 172.1 L115.5 177.4 Q113.45 181.35 112.8 184.4 111.15 181.95 108.7 179.3 106.4 176.75 104.55 175.4 102.85 176.6 99.7 180.25 L94.85 186.15 Q93.75 184.5 90.5 181.3 86.75 177.65 83.3 175.15 74.7 181.7 71.3 186.15"/><path fill="#ffffff" d="M71.15 190.0 L67.2 194.4 Q63.95 198.25 63.0 200.0 L58.3 195.4 Q54.3 191.15 52.7 188.85 L52.7 185.95 Q55.4 180.05 62.3 175.65 63.4 177.45 66.8 181.25 L71.3 186.15 Q74.7 181.7 83.3 175.15 86.75 177.65 90.5 181.3 93.75 184.5 94.85 186.15 L99.7 180.25 Q102.85 176.6 104.55 175.4 106.4 176.75 108.7 179.3 111.15 181.95 112.8 184.4 113.45 181.35 115.5 177.4 117.85 186.05 117.05 194.6 116.45 193.2 115.1 191.6 113.85 190.1 112.75 189.35 L108.95 194.2 Q105.95 197.7 104.15 199.1 L99.15 194.2 Q95.85 190.8 95.0 189.5 93.55 191.35 89.95 194.8 L83.75 200.25 Q75.15 194.6 71.15 190.0"/><path fill="#cfa7cd" d="M81.15 83.75 Q82.95 80.45 85.4 73.5 87.85 66.45 88.2 63.55 91.95 65.65 99.25 69.3 106.45 72.85 109.2 74.0 108.9 70.45 106.55 65.3 104.2 60.15 101.4 57.0 L108.55 57.45 116.7 58.65 Q141.95 73.55 143.8 99.8 144.7 112.25 139.05 123.35 133.6 134.05 123.1 141.6 120.85 138.8 118.65 138.65 116.2 138.45 116.35 145.8 L113.25 147.35 Q112.45 142.8 110.7 139.7 108.8 136.3 106.2 135.45 100.25 133.45 93.5 138.7 86.65 144.05 83.35 153.8 L82.85 153.8 Q79.0 143.95 72.75 138.95 66.85 134.25 61.15 135.6 58.7 136.2 56.6 139.85 54.6 143.3 53.65 148.3 40.6 143.15 32.75 134.35 23.85 124.4 22.9 111.0 22.1 100.0 25.15 91.05 29.1 79.55 40.0 68.85 43.2 66.8 49.0 64.45 54.55 62.2 56.0 62.2 54.55 65.0 53.4 70.55 52.3 75.65 52.55 77.3 55.55 76.0 62.0 71.55 L69.2 66.7 Q70.45 70.15 74.75 76.05 78.65 81.45 81.15 83.75"/><path fill="#3f3b3a" d="M116.7 58.65 L108.55 57.45 101.4 57.0 Q104.2 60.15 106.55 65.3 108.9 70.45 109.2 74.0 106.45 72.85 99.25 69.3 91.95 65.65 88.2 63.55 87.85 66.45 85.4 73.5 82.95 80.45 81.15 83.75 78.65 81.45 74.75 76.05 70.45 70.15 69.2 66.7 L62.0 71.55 Q55.55 76.0 52.55 77.3 52.3 75.65 53.4 70.55 54.55 65.0 56.0 62.2 54.55 62.2 49.0 64.45 43.2 66.8 40.0 68.85 54.55 54.55 75.3 51.1 97.65 47.4 116.7 58.65"/><path fill="#3f3b3a" d="M116.4 147.65 Q116.25 145.15 116.45 142.9 116.85 138.5 118.65 138.65 121.75 138.85 124.95 144.15 128.55 150.1 128.4 157.25 128.35 160.9 122.0 164.7 117.1 167.65 112.3 168.8 L111.2 166.45 Q112.9 163.15 113.5 158.55 114.1 154.1 113.55 149.55 116.4 148.85 116.4 147.65"/><path fill="#ffffff" d="M55.9 141.55 Q58.3 136.3 61.15 135.6 66.85 134.25 72.9 139.1 79.3 144.25 83.15 154.15 87.15 143.45 93.8 138.3 100.15 133.4 106.2 135.45 109.45 136.55 111.5 141.3 113.4 145.7 113.75 151.7 114.05 157.75 112.6 162.75 111.05 168.25 107.85 170.65 102.5 174.65 94.7 170.6 87.8 167.05 83.25 160.0 79.2 167.45 73.55 170.55 68.15 173.5 62.15 172.0 56.8 170.65 54.45 164.95 52.45 160.05 53.05 153.05 53.55 146.65 55.9 141.55"/><path fill="#3f3b3a" d="M86.15 14.5 Q89.4 29.45 81.9 50.35 L71.9 51.1 Q60.2 35.45 60.1 18.7 60.05 11.25 62.8 6.5 65.65 1.55 70.85 0.9 82.9 -0.55 86.15 14.5"/><path fill="#ee869a" d="M79.65 134.65 Q79.75 132.0 79.3 128.85 81.85 129.35 85.15 128.85 88.35 128.35 90.35 127.25 L91.2 133.4 Q89.95 133.1 89.15 134.35 87.7 136.4 85.7 136.45 84.05 136.45 81.6 135.0 80.5 134.4 79.65 134.65"/><path fill="#e60013" d="M76.55 127.8 Q74.85 126.5 75.7 125.0 76.55 123.5 78.3 124.4 80.4 125.4 83.4 125.1 86.6 124.75 88.6 123.1 90.15 121.8 91.65 123.25 93.15 124.7 91.55 126.4 89.55 128.45 84.4 129.05 79.0 129.7 76.55 127.8"/><path fill="#e60013" d="M79.85 138.5 Q77.7 137.0 78.8 135.5 79.95 134.0 81.6 135.0 84.05 136.45 85.7 136.45 87.7 136.4 89.15 134.35 90.15 132.9 91.65 133.75 93.2 134.6 92.2 136.45 90.65 139.25 86.95 140.0 83.05 140.8 79.85 138.5"/><path fill="#ffffff" d="M110.3 86.7 Q116.05 86.65 119.95 91.8 123.95 97.05 124.45 105.75 124.9 113.1 121.75 119.2 118.3 125.8 112.6 126.0 106.75 126.2 103.15 120.85 99.75 115.8 99.25 107.4 98.7 98.7 101.55 92.95 104.55 86.75 110.3 86.7"/><path fill="#00a0da" d="M107.75 93.45 Q111.05 92.65 113.4 96.95 115.6 100.85 116.05 106.85 116.45 112.6 115.0 116.5 113.65 120.2 111.3 120.45 108.6 120.8 106.35 117.6 103.9 114.15 103.25 108.1 102.65 102.4 103.8 98.35 105.0 94.05 107.75 93.45"/><path fill="#ffffff" d="M106.3 96.1 Q106.9 94.3 108.05 94.2 109.2 94.15 110.15 95.75 111.15 97.4 111.35 99.9 111.6 102.45 111.05 104.3 110.45 106.15 109.35 106.25 108.2 106.35 107.2 104.65 106.2 102.9 105.95 100.4 105.7 97.9 106.3 96.1"/><path fill="#dcdddd" d="M135.0 75.15 Q147.0 71.7 154.05 62.5 152.6 70.1 149.45 76.25 145.95 82.95 140.95 86.8 138.65 80.55 135.0 75.15"/><path fill="#2f2825" d="M52.7 188.85 Q54.3 191.15 58.3 195.4 L63.0 200.0 Q64.1 198.05 67.35 194.15 L77.25 195.7 83.75 200.25 88.2 196.2 Q94.35 196.15 99.95 194.85 L104.15 199.1 109.05 193.85 112.75 189.35 114.8 191.55 Q116.65 193.7 117.05 194.6 115.95 205.85 109.8 215.05 104.75 222.6 101.85 222.8 98.9 222.95 95.45 217.75 91.8 212.25 90.4 204.75 L79.25 205.25 Q79.75 211.1 77.75 217.3 75.65 223.85 72.75 223.9 67.1 224.05 60.55 214.55 53.0 203.55 52.7 188.85"/><path fill="#dcdddd" d="M2.55 69.7 Q7.45 75.6 14.4 79.1 21.15 82.5 28.9 83.2 25.25 90.35 23.7 98.4 15.35 94.95 9.65 86.55 4.65 79.25 2.55 69.7"/><path fill="#dcdddd" d="M52.7 188.85 L52.7 188.4 Q59.75 191.95 67.65 193.9 64.0 198.15 63.0 200.0 L58.3 195.4 Q54.3 191.15 52.7 188.85"/><path fill="#dcdddd" d="M117.05 194.6 Q116.2 192.6 114.0 190.4 L117.2 188.95 117.05 194.6"/><path fill="#dcdddd" d="M99.65 194.75 Q105.5 193.65 111.05 191.6 106.9 197.0 104.15 199.1 102.5 197.7 99.65 194.75"/><path fill="#dcdddd" d="M77.3 195.6 L88.7 196.0 83.75 200.25 Q80.35 198.0 77.3 195.6"/><path fill="#b491b2" d="M135.5 129.15 Q130.55 136.2 123.1 141.6 120.85 138.8 118.65 138.65 116.2 138.45 116.35 145.8 L113.25 147.35 Q112.5 142.8 110.65 139.6 123.35 135.85 135.5 129.15"/><path fill="#b491b2" d="M55.65 141.65 Q54.3 144.75 53.65 148.3 37.2 141.75 29.2 129.8 41.3 138.0 55.65 141.65"/><path fill="#b491b2" d="M83.35 153.8 L82.85 153.8 Q80.85 148.5 77.85 144.45 L88.4 144.0 Q85.2 148.35 83.35 153.8"/><path fill="#0f141b" d="M116.8 144.5 Q117.2 145.25 116.85 146.45 L113.65 148.1 113.25 146.4 116.8 144.5"/><path fill="#0f141b" d="M103.0 51.8 Q114.4 55.05 123.85 61.95 144.35 77.0 145.95 99.7 146.85 112.75 140.2 124.4 134.4 134.6 123.85 142.1 L122.7 140.75 Q132.4 133.55 137.75 123.7 143.85 112.5 142.95 99.85 141.45 78.1 122.15 63.5 103.1 49.05 79.75 51.25 55.4 53.6 38.8 71.3 22.2 88.95 23.75 110.95 24.75 125.05 34.7 135.2 42.3 142.9 54.15 147.55 L54.05 149.35 Q41.2 144.45 33.0 136.75 21.6 126.1 20.6 111.35 19.0 88.85 36.8 70.35 54.45 51.95 79.55 49.55 91.25 48.45 103.0 51.8"/><path fill="#0f141b" d="M5.35 44.75 Q10.85 41.15 19.2 45.7 28.6 50.85 33.65 63.4 34.45 65.4 34.1 66.45 33.7 67.5 32.9 65.5 27.85 53.6 18.85 48.1 10.85 43.15 6.3 46.15 3.25 48.15 2.5 55.15 1.7 62.15 3.65 70.4 5.8 79.5 10.6 86.4 16.1 94.35 24.1 97.65 24.45 97.8 24.1 98.6 23.8 99.35 23.5 99.25 14.4 95.95 8.35 87.7 3.15 80.5 1.1 70.9 -0.75 62.2 0.5 54.65 1.75 47.15 5.35 44.75"/><path fill="#0f141b" d="M32.1 38.25 Q29.05 39.0 28.45 45.8 27.95 51.7 29.25 55.45 L28.35 55.4 Q27.35 55.0 27.25 54.65 25.65 49.95 26.65 44.1 27.8 37.6 31.65 36.6 37.3 35.15 44.0 43.7 50.85 52.4 50.1 61.1 50.1 61.45 49.25 61.5 48.45 61.55 48.4 61.2 48.05 53.65 42.15 45.4 36.25 37.2 32.1 38.25"/><path fill="#0f141b" d="M83.3 5.1 Q88.6 11.7 88.35 23.8 88.15 35.5 82.75 50.65 L81.8 50.7 Q81.0 50.4 81.1 50.05 86.05 36.25 86.15 24.1 86.25 11.9 81.5 5.95 77.55 1.0 71.3 1.95 65.1 2.85 62.7 8.55 59.65 15.7 62.0 27.25 64.65 39.95 72.8 50.9 73.05 51.2 72.25 51.55 L71.2 51.6 Q62.3 39.65 59.6 27.6 57.1 16.3 60.65 8.0 63.65 1.0 71.2 0.1 78.65 -0.75 83.3 5.1"/><path fill="#0f141b" d="M133.55 35.9 Q137.45 32.4 141.25 31.15 145.2 29.85 147.85 31.5 151.4 33.75 153.7 39.05 156.05 44.5 156.3 51.35 156.75 61.85 153.35 71.55 149.45 82.7 141.9 87.65 141.6 87.85 140.8 87.15 140.0 86.45 140.3 86.25 147.4 80.85 151.15 70.0 154.45 60.45 154.05 50.75 153.8 44.35 151.9 39.6 150.05 34.9 146.95 32.95 142.35 30.05 134.05 38.35 125.55 46.85 124.1 56.6 123.85 58.5 123.25 57.65 122.7 56.75 123.0 54.9 124.65 44.0 133.55 35.9"/><path fill="#0f141b" d="M127.05 35.3 Q129.1 39.8 129.0 44.0 L127.95 44.7 126.9 44.65 Q127.0 40.55 125.3 36.35 123.4 31.45 120.55 31.3 116.95 31.1 112.9 39.3 108.7 47.7 109.75 54.4 109.8 54.75 108.95 54.9 108.15 55.05 108.05 54.7 106.35 46.8 111.2 37.9 115.85 29.3 120.6 29.6 124.6 29.8 127.05 35.3"/><path fill="#0f141b" d="M101.5 56.5 Q105.9 60.55 108.65 68.3 111.35 75.85 108.85 74.8 L99.65 70.45 88.85 64.85 Q88.1 68.6 85.9 75.05 83.55 81.8 81.9 84.75 81.4 85.7 80.6 85.0 78.35 82.95 74.55 77.5 70.5 71.75 68.8 67.9 58.0 75.95 53.7 78.3 52.25 79.1 51.75 79.0 51.25 78.85 51.25 77.55 51.25 75.5 52.3 70.95 53.35 66.35 54.55 63.35 51.95 64.1 46.65 66.65 41.2 69.25 38.8 71.0 38.45 71.3 39.55 69.4 40.65 67.6 41.1 67.35 50.1 62.9 54.1 61.85 57.65 60.85 56.75 62.6 55.55 64.9 54.5 69.35 53.55 73.35 53.4 75.95 56.55 74.3 68.8 65.9 L69.5 65.75 70.0 66.4 Q71.15 69.5 74.9 74.8 78.25 79.5 80.95 82.3 82.75 78.65 84.9 72.35 87.05 66.05 87.35 63.45 87.45 62.75 87.75 62.6 88.0 62.45 88.65 62.8 92.05 64.7 98.3 67.85 L108.1 72.6 Q107.35 68.6 104.85 63.8 102.35 58.9 99.75 56.5 98.45 55.3 99.3 55.3 100.1 55.25 101.5 56.5"/><path fill="#0f141b" d="M115.9 57.8 Q116.35 57.9 117.05 58.95 117.75 59.95 117.35 59.85 113.9 59.0 108.85 58.35 L101.45 57.8 Q101.05 57.8 100.85 57.1 100.65 56.45 101.0 56.4 L107.7 56.65 115.9 57.8"/><path fill="#0f141b" d="M55.5 167.2 Q55.6 166.9 56.25 167.6 L56.85 168.5 Q51.4 184.55 54.9 199.25 57.0 208.15 61.75 214.8 64.7 218.85 67.9 221.1 70.75 223.15 72.7 223.05 74.75 223.0 76.75 217.65 78.8 212.05 78.45 206.1 78.3 204.3 79.9 204.45 87.45 205.15 91.95 203.4 93.4 202.85 92.95 203.75 92.5 204.65 91.05 205.15 88.8 206.05 86.6 206.25 84.45 206.45 80.65 206.15 80.95 212.05 78.55 218.2 76.0 224.7 72.75 224.8 70.05 224.85 66.15 222.15 62.1 219.4 59.1 215.3 53.75 207.9 51.95 198.95 48.95 184.35 55.5 167.2"/><path fill="#0f141b" d="M111.55 168.0 Q110.7 166.25 111.65 166.55 112.65 166.9 113.5 168.65 120.2 182.6 118.1 196.55 116.8 205.4 112.0 213.6 109.65 217.6 106.5 220.65 103.55 223.55 101.9 223.65 98.45 223.85 94.55 218.65 90.35 213.0 89.0 204.9 88.95 204.55 90.05 204.4 91.2 204.25 91.25 204.6 92.5 212.05 96.1 217.35 99.25 222.1 101.8 221.95 102.6 221.9 104.7 219.7 107.35 217.0 109.75 212.8 114.4 204.8 115.85 195.65 118.05 181.45 111.55 168.0"/><path fill="#0f141b" d="M32.55 172.35 Q29.0 169.95 29.65 167.25 29.95 166.1 31.05 165.3 32.1 164.55 33.6 164.4 44.6 163.45 52.95 156.2 L53.0 158.95 Q48.05 162.6 42.55 164.4 38.6 165.7 33.75 166.1 32.8 166.2 32.15 166.6 31.45 167.05 31.3 167.7 30.9 169.25 33.5 170.9 37.7 173.7 45.2 174.1 L54.7 173.7 53.4 176.0 Q48.45 176.6 43.5 176.0 36.85 175.2 32.55 172.35"/><path fill="#0f141b" d="M115.55 145.7 Q115.2 141.95 116.0 139.9 116.8 137.75 118.7 137.8 122.75 137.9 126.4 144.75 129.95 151.35 129.85 157.55 129.75 161.65 122.95 165.2 118.2 167.7 112.95 168.85 112.7 168.95 112.55 168.1 112.35 167.25 112.6 167.2 117.2 166.15 121.65 163.7 127.5 160.5 127.55 157.25 127.65 151.6 124.65 145.7 121.65 139.75 118.6 139.5 117.0 139.35 117.25 145.65 117.3 147.45 116.7 148.1 116.1 148.8 113.8 149.45 113.45 149.55 113.3 148.7 113.15 147.85 113.5 147.75 115.05 147.5 115.4 146.95 L115.55 145.7"/><path fill="#0f141b" d="M53.25 186.8 Q53.1 187.1 52.7 186.0 52.3 184.85 52.5 184.45 54.5 180.75 58.45 177.35 62.05 174.25 62.6 174.9 L71.25 184.85 Q75.25 180.15 82.8 174.45 83.35 174.1 83.8 174.45 L90.25 179.85 Q93.15 182.6 94.9 184.75 L94.95 184.7 Q101.55 176.45 104.05 174.7 104.55 174.35 105.05 174.7 108.6 177.35 112.4 182.45 113.25 179.45 115.05 175.9 115.2 175.55 115.85 176.2 116.55 176.8 116.35 177.15 114.45 180.95 113.35 184.95 113.1 185.75 111.25 183.5 107.8 179.25 104.55 176.25 102.2 178.15 95.5 186.65 L94.15 186.6 Q93.3 185.25 90.15 182.3 86.8 179.2 83.3 176.55 74.45 183.45 71.75 186.9 L71.1 187.4 70.45 186.95 Q64.0 179.6 62.05 176.85 55.6 181.25 53.25 186.8"/><path fill="#0f141b" d="M52.7 187.95 Q53.15 187.35 53.35 187.65 54.25 189.15 57.8 193.25 L62.8 198.7 Q64.2 196.65 67.1 193.25 L70.6 189.4 71.15 189.0 Q71.4 189.0 71.8 189.45 75.6 193.8 83.7 199.2 L89.7 193.9 94.3 189.0 95.7 189.05 99.4 193.2 104.15 197.95 Q105.95 196.45 108.55 193.45 L112.1 188.9 Q112.75 187.95 115.25 190.75 117.6 193.4 117.7 194.2 117.8 194.55 117.0 195.3 116.25 196.05 116.15 195.7 115.9 194.55 114.85 192.95 L112.9 190.6 Q107.85 197.4 104.65 199.75 104.15 200.2 103.6 199.75 L99.3 195.6 94.95 190.85 88.8 197.1 Q84.35 201.3 83.8 201.3 83.0 201.35 78.55 197.85 73.95 194.2 71.15 191.25 68.65 193.6 65.45 197.8 63.0 201.05 62.8 200.9 61.25 199.75 57.6 195.8 53.3 191.15 52.35 188.85 52.2 188.5 52.7 187.95"/><path fill="#0f141b" d="M68.15 117.35 Q69.0 118.65 68.6 119.45 68.25 120.25 67.4 118.95 64.15 113.7 60.65 111.15 57.15 108.55 54.0 109.15 50.9 109.7 48.6 113.2 46.35 116.65 45.25 122.4 45.0 123.75 44.3 123.25 43.6 122.75 43.8 121.35 44.6 115.4 47.2 111.65 49.75 107.95 53.4 107.25 61.05 105.9 68.15 117.35"/><path fill="#0f141b" d="M43.65 107.85 Q42.75 106.6 42.95 106.0 43.15 105.45 44.15 106.55 L46.65 108.65 49.35 110.4 Q49.7 110.55 49.3 111.35 48.95 112.1 48.6 111.95 L46.0 110.2 Q44.4 108.9 43.65 107.85"/><path fill="#0f141b" d="M41.2 112.85 Q43.2 113.9 46.55 114.15 46.9 114.2 46.8 115.05 46.75 115.9 46.4 115.85 43.65 115.65 41.5 114.4 40.15 113.6 40.0 112.85 39.8 112.1 41.2 112.85"/><path fill="#0f141b" d="M42.1 120.25 L44.55 120.15 Q44.9 120.1 44.95 120.95 45.05 121.8 44.7 121.85 L40.05 121.35 Q38.35 120.9 38.15 120.35 37.9 119.75 39.65 120.05 L42.1 120.25"/><path fill="#0f141b" d="M77.9 125.15 Q76.95 124.7 76.45 125.4 75.9 126.25 77.05 127.1 79.1 128.7 84.2 128.15 89.2 127.6 90.9 125.8 91.5 125.2 91.5 124.5 L91.3 123.75 Q90.9 123.35 90.3 123.35 89.65 123.35 89.15 123.75 86.9 125.6 83.45 125.95 80.15 126.3 77.9 125.15 M76.05 128.25 Q73.95 126.65 75.2 124.6 76.45 122.5 78.7 123.65 80.95 124.8 83.5 124.5 86.2 124.15 88.4 122.3 90.6 120.5 92.4 122.65 94.2 124.85 92.15 126.95 90.05 129.2 84.4 129.7 78.7 130.25 76.05 128.25"/><path fill="#0f141b" d="M79.5 135.75 Q79.25 136.15 79.45 136.7 79.65 137.35 80.35 137.8 83.2 139.85 86.8 139.15 90.15 138.45 91.45 136.05 92.1 134.85 91.25 134.3 90.5 133.9 89.85 134.85 88.05 137.4 85.5 137.3 83.7 137.25 81.15 135.75 79.95 135.05 79.5 135.75 M79.35 139.2 Q78.0 138.25 77.65 136.95 77.25 135.7 77.85 134.8 79.15 132.8 81.45 134.2 86.4 137.1 88.75 133.75 90.2 131.7 92.15 132.85 93.05 133.4 93.3 134.5 93.6 135.65 92.95 136.85 91.3 139.85 87.0 140.65 82.6 141.5 79.35 139.2"/><path fill="#0f141b" d="M78.5 129.15 Q78.35 128.8 79.15 128.55 L80.1 128.6 Q80.45 129.75 80.45 134.6 80.45 134.95 79.6 134.95 78.7 134.95 78.75 134.6 79.2 131.0 78.5 129.15"/><path fill="#0f141b" d="M89.6 127.25 Q89.55 126.9 90.45 126.8 91.3 126.65 91.3 127.0 L91.7 130.8 92.05 133.5 Q92.05 133.85 91.2 133.85 90.35 133.85 90.35 133.5 L89.6 127.25"/><path fill="#0f141b" d="M119.5 92.55 Q115.8 87.5 110.3 87.55 105.4 87.6 102.5 93.1 99.6 98.7 100.1 107.35 100.55 114.85 103.4 119.65 106.75 125.35 112.55 125.15 117.3 125.05 120.6 119.6 124.05 113.9 123.6 105.8 123.15 97.55 119.5 92.55 M110.3 85.85 Q116.55 85.8 120.8 91.4 125.05 97.05 125.55 106.0 126.1 115.25 122.0 121.35 118.2 127.05 112.55 127.25 106.6 127.45 102.75 122.05 98.95 116.7 98.4 107.45 97.8 97.5 101.45 91.45 104.85 85.9 110.3 85.85"/><path fill="#0f141b" d="M112.45 97.05 Q110.35 93.7 107.9 94.25 105.3 94.9 104.35 99.95 103.65 103.8 104.1 108.0 104.7 113.85 107.1 117.1 109.15 119.85 111.2 119.6 113.1 119.35 114.3 116.0 115.6 112.35 115.2 106.9 114.75 100.65 112.45 97.05 M108.0 92.65 Q110.95 92.4 113.5 95.85 116.4 99.85 116.9 106.8 117.35 112.8 115.9 116.8 114.4 120.85 111.55 121.2 108.65 121.6 106.15 118.65 103.1 115.1 102.35 108.2 101.7 102.45 103.35 97.75 105.0 92.95 108.0 92.65"/><path fill="#0f141b" d="M127.55 90.75 L128.9 90.7 Q128.7 91.5 127.15 92.6 L124.5 94.3 122.25 95.55 Q121.95 95.7 121.65 94.9 121.3 94.1 121.65 94.0 L127.55 90.75"/><path fill="#0f141b" d="M130.0 101.8 Q131.8 101.45 131.7 102.05 131.55 102.65 129.75 103.4 L124.6 105.1 Q124.25 105.2 124.0 104.4 123.75 103.55 124.1 103.45 L130.0 101.8"/><path fill="#0f141b" d="M124.15 113.25 Q123.8 113.25 123.8 112.4 123.8 111.5 124.15 111.5 125.6 111.5 129.05 112.4 130.8 112.95 131.0 113.65 131.15 114.4 129.45 114.0 126.25 113.25 124.15 113.25"/><path fill="#0f141b" d="M72.55 139.8 Q66.85 135.1 61.35 136.4 58.45 137.1 56.3 142.15 54.25 147.05 53.95 153.25 53.6 159.9 55.5 164.6 57.7 170.0 62.35 171.15 68.0 172.6 73.2 169.75 78.35 166.9 82.1 160.35 82.75 159.25 83.25 159.3 83.8 159.3 84.65 160.5 89.55 167.5 96.45 170.3 103.2 173.05 107.35 169.95 113.55 165.35 112.75 151.75 112.45 146.0 110.65 141.8 108.75 137.25 105.9 136.25 100.7 134.5 94.4 139.2 87.75 144.2 84.45 153.25 83.85 154.9 83.05 154.85 82.35 154.8 81.8 153.35 78.2 144.5 72.55 139.8 M54.85 140.85 Q57.5 135.25 61.0 134.4 67.0 133.0 73.1 138.0 79.15 142.9 83.05 152.15 86.8 142.4 94.05 137.3 100.95 132.45 106.8 134.45 110.7 135.75 112.95 140.85 115.05 145.5 115.2 151.9 115.3 158.15 113.6 163.5 111.75 169.2 108.4 171.7 103.25 175.5 95.7 172.2 88.65 169.05 83.35 161.55 79.25 168.45 73.4 171.5 67.5 174.55 61.3 173.0 56.0 171.7 53.55 165.7 51.4 160.5 51.9 153.15 52.35 146.25 54.85 140.85"/></g></svg>