<?xml version='1.0' encoding='utf-8'?>
<svg xmlns="http://www.w3.org/2000/svg" version="1.1" width="189px" height="217px" viewBox="-0.45 -1.95 188.7 217.1"><g><path fill="#44af35" d="M181.3 186.95 Q175.5 197.5 162.2 198.45 152.5 199.1 145.75 195.75 139.45 201.55 130.65 204.9 123.5 207.65 112.75 209.4 100.75 211.4 89.1 210.6 76.3 209.75 67.8 205.75 60.15 210.9 54.1 212.2 47.6 213.6 40.35 211.2 32.65 208.7 29.05 200.55 26.7 195.15 26.45 188.4 26.35 186.35 26.05 185.75 25.75 185.05 24.0 183.4 15.95 175.8 10.4 163.5 1.6 144.0 2.2 118.1 2.75 93.9 13.6 72.8 23.55 53.45 38.5 43.15 40.65 24.7 52.7 13.4 63.5 3.25 77.55 2.55 91.5 1.9 102.3 7.4 114.7 13.75 122.5 28.05 123.45 29.85 124.45 30.6 125.75 31.55 128.55 32.2 141.15 35.05 152.55 43.8 170.35 57.55 180.4 82.95 187.65 101.25 185.5 127.65 183.95 146.45 180.5 154.6 184.35 160.2 185.05 168.6 185.9 178.55 181.3 186.95"/><path fill="#d6e6ae" d="M120.0 56.4 Q132.95 60.55 142.35 70.1 153.05 81.0 155.15 95.55 157.25 110.2 149.45 123.55 142.5 135.5 131.0 141.5 L131.35 144.8 Q131.2 148.8 128.9 152.1 127.1 154.75 124.95 155.9 119.1 172.3 113.1 182.3 108.0 190.9 105.0 191.55 102.4 192.1 98.75 189.45 95.05 186.8 89.05 180.05 82.5 172.7 71.1 153.1 70.25 151.7 69.85 151.45 L68.1 151.15 Q60.25 150.1 54.3 147.7 46.85 144.7 41.2 139.2 32.9 131.05 30.85 117.15 28.7 102.7 34.75 89.6 40.35 77.35 51.05 68.4 59.5 61.35 69.65 57.4 79.2 53.75 93.5 53.3 108.6 52.8 120.0 56.4"/><path fill="#d6e6ae" d="M95.6 21.4 Q101.55 25.9 101.8 29.65 102.15 34.6 94.6 38.3 90.1 40.5 85.3 41.45 L72.9 42.4 Q66.45 42.05 64.85 39.45 63.65 37.5 64.05 34.1 64.45 30.6 66.35 27.15 71.1 18.55 80.35 17.3 88.55 16.05 95.6 21.4"/><path fill="#ed8599" d="M106.5 86.6 Q107.4 86.6 114.25 93.25 121.25 100.0 121.25 101.55 121.25 103.2 116.6 111.1 111.95 119.0 111.0 119.0 110.05 119.0 102.1 113.3 94.15 107.6 93.8 106.55 93.45 105.5 99.6 96.0 105.7 86.6 106.5 86.6"/><path fill="#b9c897" d="M81.75 30.05 L94.4 29.4 Q100.9 29.85 101.5 32.0 100.15 35.9 93.35 38.85 89.2 40.7 85.3 41.45 L73.9 42.45 Q67.9 42.3 65.6 40.3 64.9 37.15 71.2 33.75 76.45 30.95 81.75 30.05"/><path fill="#b9c897" d="M76.25 162.05 L71.1 153.1 Q70.25 151.7 69.85 151.45 L68.1 151.15 Q54.15 149.3 44.85 143.0 34.25 135.75 31.4 123.65 43.45 131.5 66.15 133.95 87.05 136.15 108.9 133.15 142.75 128.5 154.1 112.15 151.3 122.4 145.2 129.95 139.4 137.15 131.0 141.5 L131.35 144.8 Q131.2 148.8 128.9 152.1 127.1 154.75 124.95 155.9 L120.45 167.7 Q108.9 162.05 98.35 164.7 90.55 166.65 83.0 173.35 80.65 169.7 76.25 162.05"/><path fill="#0f141b" d="M78.25 106.6 Q79.2 110.9 78.3 114.7 77.25 119.05 74.2 119.6 71.1 120.15 68.45 116.85 66.15 113.95 65.1 109.45 64.05 104.95 64.95 101.3 66.0 97.2 69.15 96.45 72.25 95.7 74.95 99.2 77.25 102.2 78.25 106.6"/><path fill="#0f141b" d="M141.95 95.1 Q142.7 99.75 141.75 103.4 140.65 107.6 137.75 107.8 134.8 108.0 132.5 104.65 130.45 101.65 129.65 97.15 128.85 92.5 129.8 89.0 130.9 85.0 133.9 84.45 136.9 83.95 139.2 87.45 141.2 90.45 141.95 95.1"/><path fill="#0f141b" d="M85.4 53.85 Q85.05 53.65 85.65 53.2 86.25 52.75 86.6 52.9 93.7 56.45 99.1 64.9 104.75 73.8 107.25 86.15 107.35 86.55 106.45 86.8 L105.45 86.65 Q101.85 73.45 95.75 64.25 90.6 56.45 85.4 53.85"/><path fill="#0f141b" d="M106.65 87.4 Q106.05 87.5 100.25 96.3 94.4 105.2 94.6 106.1 94.85 107.0 102.45 112.6 110.0 118.1 110.75 118.1 111.45 118.1 115.85 110.35 120.25 102.55 120.15 101.4 120.05 100.3 113.6 93.75 107.25 87.3 106.65 87.4 M98.1 95.4 Q104.65 85.7 106.35 85.5 108.05 85.25 115.3 92.25 122.55 99.25 122.55 101.25 122.55 103.05 117.9 111.15 113.05 119.65 111.0 120.0 109.35 120.3 100.9 114.25 92.6 108.3 92.1 106.8 91.55 105.15 98.1 95.4"/><path fill="#0f141b" d="M80.85 152.0 Q80.25 151.95 80.45 150.85 81.65 144.2 85.1 140.2 87.4 137.6 90.35 136.45 94.15 135.0 97.3 137.0 100.3 138.9 100.6 143.6 100.8 147.45 98.7 151.35 96.65 155.15 92.9 158.2 92.0 158.95 91.6 158.55 91.15 158.1 91.95 157.2 95.2 153.5 96.7 150.75 98.65 147.2 98.5 144.0 98.25 140.25 96.05 138.9 93.8 137.4 90.8 138.5 87.9 139.65 85.55 142.85 83.2 146.15 81.8 151.05 81.5 152.1 80.85 152.0"/><path fill="#0f141b" d="M154.05 95.5 Q150.95 74.15 130.3 62.45 109.15 50.5 80.8 55.25 69.7 57.15 59.55 63.3 49.55 69.45 42.45 78.5 26.7 98.75 32.4 121.55 35.0 131.95 41.7 138.35 47.55 143.9 56.85 147.2 62.55 149.3 68.05 150.05 70.0 150.3 71.0 151.2 L72.0 152.55 78.55 163.45 Q85.55 174.7 89.6 179.25 95.35 185.7 98.85 188.3 102.4 190.95 104.7 190.45 107.3 189.9 112.1 181.85 118.0 171.95 123.95 155.4 124.0 155.1 124.4 154.9 126.4 153.85 127.95 151.35 129.9 148.25 129.85 144.6 129.8 140.55 128.0 137.3 126.2 133.95 123.95 133.85 121.5 133.7 119.65 136.25 117.8 138.75 117.3 142.5 116.85 146.4 118.05 150.1 118.4 151.15 117.9 151.35 117.45 151.55 117.0 150.5 115.2 146.1 115.6 141.95 115.95 138.05 118.15 135.15 120.8 131.6 123.95 131.95 127.0 132.35 129.1 135.1 130.7 137.2 131.35 140.0 142.85 134.15 149.45 120.5 155.75 107.45 154.05 95.5 M131.85 59.9 Q153.45 72.05 156.75 95.0 158.85 109.55 150.45 124.15 142.55 137.85 131.85 141.65 132.6 145.45 131.4 149.1 129.9 153.6 125.6 156.35 120.75 172.85 114.15 183.15 108.8 191.45 105.05 192.25 98.8 193.6 87.25 180.65 83.1 176.0 77.75 167.3 73.5 160.4 70.6 154.55 L69.6 152.6 Q69.1 152.0 67.7 151.9 51.2 150.75 40.5 140.85 30.35 131.4 28.6 117.3 25.85 95.45 40.7 76.5 56.0 56.9 81.1 52.65 110.2 47.7 131.85 59.9"/><path fill="#0f141b" d="M95.45 22.4 Q92.75 20.25 89.6 19.05 85.05 17.35 80.3 18.05 74.7 18.8 70.65 22.7 68.0 25.15 66.45 28.5 65.05 31.45 64.8 34.2 64.6 36.9 65.55 38.5 67.1 40.9 72.4 41.45 77.85 42.0 85.0 40.35 90.3 39.1 94.3 37.15 101.4 33.7 100.75 29.55 100.55 28.4 99.35 26.55 97.8 24.3 95.45 22.4 M90.3 16.95 Q93.8 18.3 96.85 20.75 99.25 22.65 100.9 25.25 102.5 27.7 102.6 29.4 103.05 34.85 96.1 38.7 92.2 40.9 85.25 42.7 79.95 44.05 74.0 43.75 66.1 43.4 63.9 39.75 62.6 37.7 62.6 34.95 62.6 31.6 64.6 27.35 66.35 23.65 69.3 20.85 73.85 16.5 80.05 15.7 85.2 14.95 90.3 16.95"/><path fill="#0f141b" d="M180.9 154.0 Q180.75 154.35 180.0 153.7 179.2 153.05 179.35 152.7 184.75 139.65 184.8 118.5 184.9 97.05 179.4 83.1 169.55 58.25 152.1 45.0 141.75 37.1 128.1 33.3 125.1 32.5 123.55 31.3 122.2 30.3 121.1 28.35 113.4 14.15 100.2 7.65 87.65 1.45 73.65 3.75 61.05 5.75 51.8 15.3 41.3 26.1 39.25 43.1 L38.85 43.75 Q24.65 53.55 14.8 72.3 3.6 93.5 3.0 117.95 2.4 143.4 10.9 162.5 16.3 174.65 24.5 182.55 26.4 184.35 27.0 186.3 L27.25 188.65 Q27.6 195.15 29.85 200.15 33.3 207.8 40.45 210.15 47.3 212.4 53.35 211.2 59.45 210.0 67.15 204.8 L68.05 204.75 Q77.25 208.65 90.2 209.75 L112.6 209.0 Q126.3 206.75 135.4 201.7 145.6 196.05 152.75 185.55 153.8 184.0 154.25 184.4 154.75 184.8 153.9 186.5 148.75 197.3 137.25 203.7 127.55 209.1 112.85 211.55 L90.25 212.35 Q77.05 211.3 67.85 207.15 61.65 212.15 53.9 213.65 46.4 215.15 39.5 212.9 25.65 208.35 24.95 188.85 L24.75 186.95 Q24.3 185.4 22.7 183.9 11.0 172.85 5.2 155.75 -0.45 139.05 0.05 118.2 0.65 94.35 11.7 72.65 22.1 52.35 36.9 42.65 38.2 25.2 49.5 13.45 59.3 3.2 72.6 0.75 87.05 -1.95 100.6 4.45 115.55 11.55 123.4 27.4 124.25 29.1 125.15 29.85 126.3 30.8 128.9 31.5 146.05 36.0 158.2 46.4 173.2 59.25 182.25 82.15 188.25 97.3 187.75 119.35 187.25 141.1 180.9 154.0"/><path fill="#0f141b" d="M32.35 176.4 Q31.2 178.05 30.5 177.55 29.75 177.0 30.85 175.3 36.3 166.6 46.0 162.65 55.5 158.75 62.55 161.9 69.1 164.9 70.25 177.5 71.4 190.35 65.6 200.85 64.8 202.25 64.15 202.0 63.5 201.8 64.15 200.3 68.15 190.95 67.5 179.4 66.8 167.35 61.35 164.9 55.5 162.25 47.05 165.3 38.0 168.55 32.35 176.4"/><path fill="#0f141b" d="M183.25 156.2 Q186.3 162.3 186.5 170.35 186.7 179.85 182.4 187.65 176.45 198.55 163.05 199.8 152.2 200.85 145.55 196.5 145.2 196.3 145.65 195.45 146.05 194.65 146.4 194.8 153.15 198.15 162.5 197.35 174.95 196.2 180.3 186.35 184.35 178.95 184.1 170.35 183.9 163.15 181.0 157.35 179.7 154.8 178.55 153.5 177.25 152.05 175.7 151.65 170.1 150.35 166.45 157.6 165.3 159.75 162.35 168.45 160.5 173.9 157.55 177.4 156.35 178.75 155.8 178.6 155.25 178.45 156.05 176.9 L158.25 172.15 159.95 167.55 161.95 161.7 Q163.15 158.4 164.65 155.7 168.85 148.3 175.6 149.55 180.4 150.45 183.25 156.2"/><path fill="#ffffff" d="M38.5 63.3 Q43.35 61.8 46.3 64.0 50.0 66.8 49.2 72.4 48.5 77.2 45.3 81.4 42.2 85.45 37.55 87.35 32.25 89.55 28.8 86.85 25.9 84.65 26.0 79.55 26.1 74.15 29.75 69.5 33.45 64.85 38.5 63.3"/></g></svg>