<?xml version='1.0' encoding='utf-8'?>
<svg xmlns="http://www.w3.org/2000/svg" version="1.1" width="166px" height="283px" viewBox="-0.25 -0.15 166.25 283.1"><g><path fill="#a4725d" d="M161.15 25.8 Q158.3 30.85 154.45 35.75 L102.85 68.25 Q110.4 82.75 103.25 100.4 99.3 110.25 90.1 121.6 85.5 127.3 85.05 132.8 84.65 137.8 87.7 142.35 93.15 150.45 96.95 158.2 102.1 168.75 102.85 176.25 97.3 175.05 90.0 168.4 84.15 163.05 80.2 157.35 73.5 172.6 60.25 180.6 54.15 184.25 48.9 184.55 43.25 184.9 39.8 181.25 L40.3 177.3 Q33.65 177.95 30.6 169.55 28.2 163.0 29.05 157.5 25.55 161.1 20.15 162.95 15.35 164.55 12.7 163.85 13.75 157.55 17.1 152.2 21.3 145.5 27.95 142.75 35.7 139.5 43.25 141.4 48.85 142.8 51.8 145.85 58.15 143.45 60.7 138.25 63.45 132.75 61.05 125.85 77.9 127.05 88.85 111.75 93.45 105.3 94.3 97.15 95.0 90.8 93.35 83.0 92.8 80.5 91.65 79.3 90.65 78.3 88.35 77.5 82.05 75.3 76.65 69.7 71.9 64.8 70.6 60.6 60.45 66.8 50.9 67.15 41.65 67.45 40.7 62.25 46.9 55.65 52.7 53.0 L99.85 45.6 Q102.2 41.65 106.05 36.8 110.3 31.4 113.1 29.1 121.35 22.4 137.85 18.7 152.4 15.45 165.2 16.0 164.45 20.05 161.15 25.8"/><path fill="#fff1ad" d="M88.85 77.6 Q91.3 78.1 92.3 79.85 92.75 80.55 93.35 83.0 97.2 98.55 89.15 111.0 81.05 123.4 65.35 126.0 58.25 127.15 49.95 122.7 43.0 118.95 37.2 112.6 29.0 103.6 25.9 91.4 23.1 80.45 26.05 77.6 26.95 76.75 29.2 76.35 L33.55 76.1 Q34.35 72.45 36.75 68.25 38.85 64.6 41.05 62.25 42.4 68.8 54.75 66.75 59.6 65.95 64.25 64.0 68.8 62.1 70.7 60.1 72.7 66.7 79.5 72.3 85.0 76.85 88.85 77.6"/><path fill="#595857" d="M74.4 76.05 Q77.1 76.65 78.0 80.7 78.8 84.25 78.05 89.55 77.35 94.7 74.45 98.5 71.4 102.45 68.05 101.85 64.8 101.25 63.9 97.0 63.15 93.4 64.1 87.75 65.0 81.75 68.0 78.5 70.9 75.3 74.4 76.05"/><path fill="#a4725d" d="M51.45 0.65 Q55.5 3.65 60.65 11.2 66.1 19.15 67.85 25.2 L60.3 24.15 Q59.7 26.3 60.25 30.3 60.9 34.75 62.6 37.25 59.95 37.05 55.6 37.4 50.75 37.75 48.2 38.55 44.4 29.45 46.3 17.65 47.55 9.5 51.45 0.65"/><path fill="#a4725d" d="M6.7 101.05 Q9.3 103.3 15.6 110.2 L24.35 120.2 Q28.85 125.8 29.55 132.7 30.15 138.85 27.55 143.2 25.05 144.2 22.75 145.95 20.45 147.7 19.1 149.55 11.8 148.95 5.85 141.3 0.7 134.65 0.4 129.0 L3.4 128.65 Q1.45 120.0 2.75 111.55 3.9 104.0 6.7 101.05"/><path fill="#fff1ad" d="M60.5 188.9 Q73.75 182.95 81.25 168.5 84.4 173.15 90.05 177.1 96.75 181.8 103.0 182.3 102.95 187.15 97.2 223.1 95.7 232.5 95.7 240.75 L95.9 252.85 Q96.1 262.3 96.45 265.25 94.65 265.95 91.05 265.35 87.0 264.7 84.5 262.8 L83.0 251.65 81.35 241.8 Q79.9 235.35 79.55 219.75 79.2 205.45 79.85 200.65 75.15 202.2 68.6 203.0 L66.15 220.15 Q65.0 228.15 64.35 237.05 64.0 241.5 62.1 252.35 60.35 262.7 59.05 268.15 56.7 269.8 53.0 269.6 49.2 269.35 47.25 267.15 L48.4 251.2 Q48.9 241.2 48.75 237.65 48.5 233.0 47.6 226.55 46.45 218.7 44.9 213.5 42.2 204.2 41.45 201.05 39.65 193.6 39.65 188.4 47.65 194.65 60.5 188.9"/><path fill="#595857" d="M35.5 76.6 Q34.85 80.75 31.3 83.7 28.05 86.4 25.1 86.3 24.7 83.75 24.8 81.65 24.9 78.9 25.9 77.8 27.0 76.65 29.95 76.3 L35.5 76.6"/><path fill="#595857" d="M9.35 254.75 Q10.95 256.45 13.5 257.35 16.25 258.3 18.45 257.7 L18.15 265.35 Q18.1 267.1 16.95 267.7 L14.6 267.75 Q11.65 266.95 10.45 266.0 8.8 264.65 8.85 262.4 8.95 258.45 9.35 254.75"/><path fill="#595857" d="M59.15 267.95 Q58.5 271.6 57.7 278.4 57.5 280.25 55.9 281.25 54.35 282.2 51.7 282.15 49.1 282.1 47.7 280.65 46.4 279.3 46.55 277.05 L47.3 267.0 Q49.7 269.55 53.6 269.6 57.1 269.7 59.15 267.95"/><path fill="#595857" d="M96.45 265.25 Q96.5 268.6 97.6 273.75 98.15 276.7 95.2 276.35 92.3 275.95 89.4 274.85 86.55 273.8 85.45 269.75 85.0 267.85 84.5 262.8 87.0 264.85 91.15 265.4 L96.45 265.25"/><path fill="#ffe45f" d="M153.25 37.5 Q148.3 46.55 140.6 53.0 135.2 57.45 123.5 62.35 109.0 68.35 98.85 68.0 101.65 62.15 109.15 52.9 116.7 43.65 122.15 39.35 131.45 32.0 138.85 28.75 147.3 25.0 158.35 24.15 157.0 30.65 153.25 37.5"/><path fill="#ffe45f" d="M90.35 30.65 Q95.4 29.75 101.25 32.8 101.7 36.2 100.3 39.8 99.1 42.8 97.25 44.75 L99.85 45.6 Q97.9 48.65 95.6 53.6 93.65 57.8 92.85 60.25 90.05 64.4 85.5 67.3 78.65 66.85 74.75 62.05 71.45 57.95 71.85 53.5 63.5 57.5 55.25 54.3 46.45 50.9 43.0 41.0 46.55 38.7 52.65 37.65 L62.6 37.25 Q60.95 34.7 60.25 30.25 59.75 26.75 60.0 24.15 65.55 24.5 75.1 27.4 80.75 29.15 80.75 37.75 84.55 31.65 90.35 30.65"/><path fill="#ffe45f" d="M45.5 162.25 Q44.25 164.6 42.45 169.15 41.6 168.6 41.3 167.0 41.0 165.45 41.4 164.35 41.85 163.25 43.0 162.65 44.25 161.95 45.5 162.25"/><path fill="#ffe45f" d="M34.85 158.85 Q35.65 158.9 36.1 160.0 36.55 160.95 36.5 162.05 36.45 163.1 35.95 163.95 35.35 164.9 34.5 164.9 33.7 164.9 33.2 163.75 32.8 162.75 32.8 161.55 32.8 160.45 33.3 159.7 33.85 158.8 34.85 158.85"/><path fill="#ffe45f" d="M34.6 149.0 Q35.2 150.25 35.25 152.4 35.25 154.5 34.65 155.45 34.05 156.35 32.8 156.45 30.7 156.45 30.5 152.0 30.4 150.4 30.95 149.25 31.6 147.9 32.85 147.85 33.95 147.8 34.6 149.0"/><path fill="#ffe45f" d="M29.1 157.3 Q28.35 163.75 30.95 170.35 34.15 178.35 40.3 177.1 L39.8 182.3 Q35.75 183.95 30.8 179.45 25.1 174.3 25.5 165.1 23.1 167.3 19.85 168.45 15.85 169.9 11.65 169.3 11.9 166.55 12.55 164.15 16.45 164.4 20.7 162.9 25.95 161.05 29.1 157.3"/><path fill="#ffe45f" d="M39.8 181.25 Q47.15 188.75 60.25 180.7 73.0 172.8 80.2 157.35 84.65 163.3 90.15 168.4 97.65 175.35 102.85 176.25 103.25 179.6 103.0 182.3 98.5 181.7 92.95 178.75 85.45 174.75 81.25 168.5 79.3 173.9 74.45 179.05 69.65 184.2 63.6 187.5 49.4 195.25 39.65 188.6 39.65 182.75 39.8 181.25"/><path fill="#ffffff" d="M73.35 77.3 Q74.4 77.55 74.85 78.9 75.3 80.3 74.95 82.15 74.6 83.95 73.65 85.0 72.65 86.05 71.45 85.8 70.25 85.55 69.8 84.15 69.3 82.7 69.8 80.7 70.25 78.85 71.3 77.95 72.25 77.1 73.35 77.3"/><path fill="#dcc552" d="M124.45 37.25 Q132.55 30.4 142.85 27.0 151.0 24.3 158.55 24.3 L158.2 25.9 Q140.85 30.75 127.0 42.6 114.7 53.1 106.95 67.35 L102.9 68.05 98.95 68.25 Q100.9 62.8 109.6 52.45 117.6 43.0 124.45 37.25"/><path fill="#dcc552" d="M49.5 50.85 Q44.2 46.6 43.45 40.65 47.4 47.45 58.25 50.35 68.75 53.1 75.15 49.8 73.9 52.95 69.65 54.55 65.4 56.1 60.1 55.4 54.2 54.6 49.5 50.85"/><path fill="#dcc552" d="M85.45 67.4 Q80.75 67.1 76.95 64.2 71.75 60.3 71.9 53.45 L74.8 50.6 Q73.9 54.8 77.2 59.65 80.5 64.55 84.75 65.1 88.85 63.7 90.0 59.4 91.2 55.0 88.1 51.2 92.9 53.8 92.1 59.15 91.25 64.6 85.45 67.4"/><path fill="#dcc552" d="M89.7 51.8 Q92.4 52.25 95.25 54.05 L92.65 60.45 Q92.65 57.95 91.9 55.65 91.1 53.25 89.7 51.8"/><path fill="#dcc552" d="M100.55 32.3 Q101.75 35.3 100.45 39.25 99.25 42.75 97.0 44.75 L92.85 44.35 Q95.15 43.3 97.5 39.6 99.8 35.95 100.55 32.3"/><path fill="#dcc552" d="M60.55 24.15 Q61.3 27.6 63.15 31.55 65.35 36.3 67.85 38.7 66.05 37.85 62.65 37.4 61.1 34.8 60.45 31.15 59.75 27.2 60.55 24.15"/><path fill="#815948" d="M85.45 67.4 Q86.6 67.05 88.45 65.7 L91.15 63.25 Q89.85 67.4 85.15 69.55 79.7 69.8 75.2 66.3 70.55 62.65 69.65 56.95 64.85 59.25 59.1 58.4 53.8 57.6 50.05 54.65 L52.8 53.0 Q57.45 55.9 63.5 55.6 68.4 55.4 71.9 53.45 72.2 65.25 85.45 67.4"/><path fill="#815948" d="M46.35 16.9 Q46.8 22.8 48.8 28.7 50.9 34.8 53.5 37.45 50.9 37.65 48.55 38.6 46.8 36.2 45.95 29.15 45.05 21.6 46.35 16.9"/><path fill="#815948" d="M74.9 123.6 Q83.85 119.7 88.6 111.75 88.2 116.85 85.8 122.55 83.35 128.45 79.7 132.7 70.75 143.1 61.7 136.75 62.25 134.35 62.1 131.45 61.95 128.0 60.8 125.8 67.15 126.9 74.9 123.6"/><path fill="#dcd096" d="M78.1 197.65 L90.1 196.55 Q87.4 198.3 80.55 200.4 73.25 202.65 68.5 202.9 68.75 199.8 68.05 196.15 71.05 197.6 78.1 197.65"/><path fill="#dcd096" d="M36.75 201.05 Q36.9 206.15 35.55 211.75 34.1 217.75 31.7 220.75 27.8 225.6 24.3 234.05 19.6 245.35 18.4 257.8 15.55 258.2 13.05 257.05 11.95 256.55 9.65 254.8 10.75 234.55 11.45 228.75 12.35 221.05 14.45 218.35 16.55 215.55 16.1 211.35 22.75 213.95 28.1 211.7 34.0 209.2 36.75 201.05"/><path fill="#dcd096" d="M45.45 216.0 Q47.95 227.15 48.3 230.25 L48.7 236.05 48.7 242.25 Q47.55 239.9 45.8 234.15 44.2 229.05 43.9 227.4 43.7 226.15 44.25 222.3 44.75 218.55 45.45 216.0"/><path fill="#dcd096" d="M34.6 181.95 Q37.05 183.0 39.7 182.35 39.1 190.6 40.7 197.35 L36.7 194.6 Q36.5 192.05 35.9 189.1 35.2 185.8 34.45 184.1 L34.6 181.95"/><path fill="#815948" d="M40.3 177.35 Q38.1 177.9 35.95 176.8 37.95 171.35 41.15 167.0 41.5 168.1 42.4 169.0 41.0 173.1 40.3 177.35"/><path fill="#dcc552" d="M35.95 176.8 Q38.1 177.9 40.3 177.35 L39.7 182.35 Q37.05 183.0 34.6 181.95 34.95 179.5 35.95 176.8"/><path fill="#dcc552" d="M42.4 169.0 Q41.5 168.1 41.15 167.0 43.55 163.7 45.8 162.0 43.95 164.6 42.4 169.0"/><path fill="#dcd096" d="M63.05 243.3 Q60.6 262.95 59.25 268.05 51.75 271.6 47.5 266.8 L48.2 247.5 Q48.7 230.7 47.9 227.5 49.1 230.05 51.6 231.15 54.05 232.25 56.85 231.55 63.5 229.8 66.1 220.4 65.65 222.55 63.05 243.3"/><path fill="#dcd096" d="M95.7 243.2 Q95.4 257.45 96.35 265.65 93.75 266.25 90.55 265.55 87.15 264.85 84.6 263.0 79.95 234.1 79.7 230.85 79.4 227.1 79.4 216.1 79.35 204.55 79.7 200.85 85.85 198.7 88.2 197.55 83.1 208.7 84.7 219.75 86.45 232.05 96.5 227.0 95.95 233.0 95.7 243.2"/><path fill="#815948" d="M6.75 101.4 Q3.55 113.35 7.15 126.0 11.3 140.4 22.4 145.8 19.85 148.5 19.15 149.55 13.05 148.75 7.6 143.25 1.55 137.2 0.4 128.9 L2.55 131.05 Q3.9 132.15 5.0 132.65 2.3 127.85 2.3 117.85 2.25 106.6 6.75 101.4"/><path fill="#3e3a39" d="M62.25 252.2 L63.1 258.25 63.55 262.75 Q63.6 264.35 62.95 264.85 62.25 265.4 59.75 265.5 L62.25 252.2"/><path fill="#dcd096" d="M77.85 121.9 Q71.05 125.7 63.55 126.1 57.35 126.4 49.1 122.05 41.1 117.8 37.45 112.55 49.3 121.9 64.05 121.75 78.65 121.55 88.35 112.05 84.75 118.0 77.85 121.9"/><path fill="#0f141b" d="M96.5 264.7 L96.6 266.1 Q93.6 266.7 90.5 266.15 87.05 265.55 84.7 263.65 L84.6 262.15 Q86.85 263.85 90.15 264.55 L96.5 264.7"/><path fill="#0f141b" d="M59.15 267.25 L59.05 268.8 Q56.4 270.7 52.95 270.45 49.4 270.15 47.4 267.85 L47.55 266.45 Q49.75 268.55 53.2 268.8 56.7 269.05 59.15 267.25"/><path fill="#0f141b" d="M29.5 157.15 Q29.05 166.85 32.8 172.65 36.2 178.0 40.25 176.35 L40.2 178.1 Q35.85 179.5 32.1 174.25 28.0 168.55 28.25 159.15 25.55 161.9 20.75 163.65 15.95 165.4 12.25 165.0 L12.45 163.25 Q16.25 163.7 21.25 161.75 26.25 159.8 28.6 156.9 29.55 155.7 29.5 157.15"/><path fill="#0f141b" d="M33.0 156.85 Q31.65 156.9 30.75 155.5 29.85 154.1 29.85 151.75 29.85 150.0 30.75 148.65 31.65 147.3 32.95 147.3 34.2 147.25 35.1 148.8 35.95 150.25 35.95 152.2 35.95 154.2 35.1 155.5 34.25 156.85 33.0 156.85 M31.55 149.35 Q31.05 150.45 31.15 152.15 31.2 155.85 32.95 155.85 33.75 155.85 34.25 154.85 34.75 153.85 34.7 152.15 34.7 150.45 34.2 149.35 33.7 148.25 32.95 148.25 32.05 148.2 31.55 149.35"/><path fill="#0f141b" d="M35.6 160.0 Q35.25 159.35 34.7 159.35 33.4 159.35 33.3 161.75 33.25 163.15 33.75 163.9 34.1 164.5 34.6 164.45 35.85 164.45 35.9 161.9 35.95 160.7 35.6 160.0 M34.7 158.45 Q35.75 158.5 36.4 159.55 37.05 160.6 36.95 161.95 36.9 163.55 36.3 164.5 35.65 165.45 34.55 165.45 33.45 165.45 32.75 164.25 32.1 163.1 32.15 161.55 32.2 160.15 33.0 159.25 33.75 158.45 34.7 158.45"/><path fill="#0f141b" d="M58.35 111.5 Q58.55 110.8 59.0 110.8 59.35 110.85 59.45 111.45 59.9 114.65 54.25 115.85 48.7 117.0 46.3 114.7 45.75 114.15 46.0 113.8 46.3 113.45 47.0 113.8 49.5 114.95 53.55 114.2 57.7 113.45 58.35 111.5"/><path fill="#0f141b" d="M151.1 38.85 Q146.5 46.0 140.95 51.1 134.95 56.55 121.6 62.0 108.15 67.45 100.0 67.6 103.5 60.85 111.2 51.85 118.05 43.85 123.1 39.75 132.0 32.55 139.3 29.4 146.85 26.15 157.5 25.1 155.8 31.55 151.1 38.85"/><path fill="#0f141b" d="M60.0 126.0 L61.65 125.95 Q65.2 134.7 59.8 141.2 54.55 147.6 43.65 148.5 42.25 148.6 42.2 148.1 42.1 147.65 43.45 147.4 53.9 145.7 58.55 139.65 63.1 133.65 60.0 126.0"/><path fill="#0f141b" d="M18.45 257.1 L18.4 258.35 13.75 258.25 Q11.1 257.4 9.5 255.4 L9.7 254.25 Q11.5 255.95 14.1 256.8 L18.45 257.1"/><path fill="#595857" d="M35.5 76.6 Q34.85 80.75 31.3 83.7 28.05 86.4 25.1 86.3 24.7 83.75 24.8 81.65 24.9 78.9 25.9 77.8 27.0 76.65 29.95 76.3 L35.5 76.6"/><path fill="#595857" d="M9.35 254.75 Q10.95 256.45 13.5 257.35 16.25 258.3 18.45 257.7 L18.15 265.35 Q18.1 267.1 16.95 267.7 L14.6 267.75 Q11.65 266.95 10.45 266.0 8.8 264.65 8.85 262.4 8.95 258.45 9.35 254.75"/><path fill="#595857" d="M59.15 267.95 Q58.5 271.6 57.7 278.4 57.5 280.25 55.9 281.25 54.35 282.2 51.7 282.15 49.1 282.1 47.7 280.65 46.4 279.3 46.55 277.05 L47.3 267.0 Q49.7 269.55 53.6 269.6 57.1 269.7 59.15 267.95"/><path fill="#595857" d="M96.45 265.25 Q96.5 268.6 97.6 273.75 98.15 276.7 95.2 276.35 92.3 275.95 89.4 274.85 86.55 273.8 85.45 269.75 85.0 267.85 84.5 262.8 87.0 264.85 91.15 265.4 L96.45 265.25"/><path fill="#ffe45f" d="M153.25 37.5 Q148.3 46.55 140.6 53.0 135.2 57.45 123.5 62.35 109.0 68.35 98.85 68.0 101.65 62.15 109.15 52.9 116.7 43.65 122.15 39.35 131.45 32.0 138.85 28.75 147.3 25.0 158.35 24.15 157.0 30.65 153.25 37.5"/><path fill="#ffe45f" d="M90.35 30.65 Q95.4 29.75 101.25 32.8 101.7 36.2 100.3 39.8 99.1 42.8 97.25 44.75 L99.85 45.6 Q97.9 48.65 95.6 53.6 93.65 57.8 92.85 60.25 90.05 64.4 85.5 67.3 78.65 66.85 74.75 62.05 71.45 57.95 71.85 53.5 63.5 57.5 55.25 54.3 46.45 50.9 43.0 41.0 46.55 38.7 52.65 37.65 L62.6 37.25 Q60.95 34.7 60.25 30.25 59.75 26.75 60.0 24.15 65.55 24.5 75.1 27.4 80.75 29.15 80.75 37.75 84.55 31.65 90.35 30.65"/><path fill="#dcc552" d="M124.45 37.25 Q132.55 30.4 142.85 27.0 151.0 24.3 158.55 24.3 L158.2 25.9 Q140.85 30.75 127.0 42.6 114.7 53.1 106.95 67.35 L102.9 68.05 98.95 68.25 Q100.9 62.8 109.6 52.45 117.6 43.0 124.45 37.25"/><path fill="#dcc552" d="M49.5 50.85 Q44.2 46.6 43.45 40.65 47.4 47.45 58.25 50.35 68.75 53.1 75.15 49.8 73.9 52.95 69.65 54.55 65.4 56.1 60.1 55.4 54.2 54.6 49.5 50.85"/><path fill="#dcc552" d="M85.45 67.4 Q80.75 67.1 76.95 64.2 71.75 60.3 71.9 53.45 L74.8 50.6 Q73.9 54.8 77.2 59.65 80.5 64.55 84.75 65.1 88.85 63.7 90.0 59.4 91.2 55.0 88.1 51.2 92.9 53.8 92.1 59.15 91.25 64.6 85.45 67.4"/><path fill="#dcc552" d="M89.7 51.8 Q92.4 52.25 95.25 54.05 L92.65 60.45 Q92.65 57.95 91.9 55.65 91.1 53.25 89.7 51.8"/><path fill="#dcc552" d="M100.55 32.3 Q101.75 35.3 100.45 39.25 99.25 42.75 97.0 44.75 L92.85 44.35 Q95.15 43.3 97.5 39.6 99.8 35.95 100.55 32.3"/><path fill="#dcc552" d="M60.55 24.15 Q61.3 27.6 63.15 31.55 65.35 36.3 67.85 38.7 66.05 37.85 62.65 37.4 61.1 34.8 60.45 31.15 59.75 27.2 60.55 24.15"/><path fill="#815948" d="M85.45 67.4 Q86.6 67.05 88.45 65.7 L91.15 63.25 Q89.85 67.4 85.15 69.55 79.7 69.8 75.2 66.3 70.55 62.65 69.65 56.95 64.85 59.25 59.1 58.4 53.8 57.6 50.05 54.65 L52.8 53.0 Q57.45 55.9 63.5 55.6 68.4 55.4 71.9 53.45 72.2 65.25 85.45 67.4"/><path fill="#815948" d="M46.35 16.9 Q46.8 22.8 48.8 28.7 50.9 34.8 53.5 37.45 50.9 37.65 48.55 38.6 46.8 36.2 45.95 29.15 45.05 21.6 46.35 16.9"/><path fill="#dcd096" d="M36.75 201.05 Q36.9 206.15 35.55 211.75 34.1 217.75 31.7 220.75 27.8 225.6 24.3 234.05 19.6 245.35 18.4 257.8 15.55 258.2 13.05 257.05 11.95 256.55 9.65 254.8 10.75 234.55 11.45 228.75 12.35 221.05 14.45 218.35 16.55 215.55 16.1 211.35 22.75 213.95 28.1 211.7 34.0 209.2 36.75 201.05"/><path fill="#dcd096" d="M34.6 181.95 Q37.05 183.0 39.7 182.35 39.1 190.6 40.7 197.35 L36.7 194.6 Q36.5 192.05 35.9 189.1 35.2 185.8 34.45 184.1 L34.6 181.95"/><path fill="#dcd096" d="M63.05 243.3 Q60.6 262.95 59.25 268.05 51.75 271.6 47.5 266.8 L48.2 247.5 Q48.7 230.7 47.9 227.5 49.1 230.05 51.6 231.15 54.05 232.25 56.85 231.55 63.5 229.8 66.1 220.4 65.65 222.55 63.05 243.3"/><path fill="#dcd096" d="M95.7 243.2 Q95.4 257.45 96.35 265.65 93.75 266.25 90.55 265.55 87.15 264.85 84.6 263.0 79.95 234.1 79.7 230.85 79.4 227.1 79.4 216.1 79.35 204.55 79.7 200.85 85.85 198.7 88.2 197.55 83.1 208.7 84.7 219.75 86.45 232.05 96.5 227.0 95.95 233.0 95.7 243.2"/><path fill="#dcd096" d="M77.85 121.9 Q71.05 125.7 63.55 126.1 57.35 126.4 49.1 122.05 41.1 117.8 37.45 112.55 49.3 121.9 64.05 121.75 78.65 121.55 88.35 112.05 84.75 118.0 77.85 121.9"/><path fill="#0f141b" d="M96.5 264.7 L96.6 266.1 Q93.6 266.7 90.5 266.15 87.05 265.55 84.7 263.65 L84.6 262.15 Q86.85 263.85 90.15 264.55 L96.5 264.7"/><path fill="#0f141b" d="M59.15 267.25 L59.05 268.8 Q56.4 270.7 52.95 270.45 49.4 270.15 47.4 267.85 L47.55 266.45 Q49.75 268.55 53.2 268.8 56.7 269.05 59.15 267.25"/><path fill="#0f141b" d="M151.1 38.85 Q146.5 46.0 140.95 51.1 134.95 56.55 121.6 62.0 108.15 67.45 100.0 67.6 103.5 60.85 111.2 51.85 118.05 43.85 123.1 39.75 132.0 32.55 139.3 29.4 146.85 26.15 157.5 25.1 155.8 31.55 151.1 38.85"/><path fill="#0f141b" d="M18.45 257.1 L18.4 258.35 13.75 258.25 Q11.1 257.4 9.5 255.4 L9.7 254.25 Q11.5 255.95 14.1 256.8 L18.45 257.1"/><path fill="#fff1ad" d="M39.8 182.3 Q39.35 184.95 39.6 189.8 39.85 194.5 40.55 197.0 L36.8 194.8 Q37.15 198.95 36.45 204.9 35.9 210.05 34.9 213.75 34.15 216.55 32.25 219.7 L28.8 224.75 Q25.7 229.1 22.65 238.65 19.35 248.95 18.65 257.75 14.1 258.6 9.5 255.0 L11.3 229.4 Q11.55 225.9 12.65 222.5 13.5 219.75 14.55 218.15 16.15 215.8 16.15 212.75 16.15 208.6 15.25 200.85 14.3 192.9 13.25 188.75 12.2 184.6 11.75 178.95 11.35 173.6 11.65 169.3 15.65 169.8 19.55 168.55 23.25 167.3 25.55 164.9 24.2 172.25 29.9 178.35 35.25 184.1 39.8 182.3"/><path fill="#595857" d="M35.5 76.6 Q34.85 80.75 31.3 83.7 28.05 86.4 25.1 86.3 24.7 83.75 24.8 81.65 24.9 78.9 25.9 77.8 27.0 76.65 29.95 76.3 L35.5 76.6"/><path fill="#3e3a39" d="M9.35 254.75 Q10.95 256.45 13.5 257.35 16.25 258.3 18.45 257.7 L18.15 265.35 Q18.1 267.1 16.95 267.7 L14.6 267.75 Q11.65 266.95 10.45 266.0 8.8 264.65 8.85 262.4 8.95 258.45 9.35 254.75"/><path fill="#3e3a39" d="M59.15 267.95 Q58.5 271.6 57.7 278.4 57.5 280.25 55.9 281.25 54.35 282.2 51.7 282.15 49.1 282.1 47.7 280.65 46.4 279.3 46.55 277.05 L47.3 267.0 Q49.7 269.55 53.6 269.6 57.1 269.7 59.15 267.95"/><path fill="#3e3a39" d="M96.45 265.25 Q96.5 268.6 97.6 273.75 98.15 276.7 95.2 276.35 92.3 275.95 89.4 274.85 86.55 273.8 85.45 269.75 85.0 267.85 84.5 262.8 87.0 264.85 91.15 265.4 L96.45 265.25"/><path fill="#ffe45f" d="M153.25 37.5 Q148.3 46.55 140.6 53.0 135.2 57.45 123.5 62.35 109.0 68.35 98.85 68.0 101.65 62.15 109.15 52.9 116.7 43.65 122.15 39.35 131.45 32.0 138.85 28.75 147.3 25.0 158.35 24.15 157.0 30.65 153.25 37.5"/><path fill="#ffe45f" d="M90.35 30.65 Q95.4 29.75 101.25 32.8 101.7 36.2 100.3 39.8 99.1 42.8 97.25 44.75 L99.85 45.6 Q97.9 48.65 95.6 53.6 93.65 57.8 92.85 60.25 90.05 64.4 85.5 67.3 78.65 66.85 74.75 62.05 71.45 57.95 71.85 53.5 63.5 57.5 55.25 54.3 46.45 50.9 43.0 41.0 46.55 38.7 52.65 37.65 L62.6 37.25 Q60.95 34.7 60.25 30.25 59.75 26.75 60.0 24.15 65.55 24.5 75.1 27.4 80.75 29.15 80.75 37.75 84.55 31.65 90.35 30.65"/><path fill="#dcc552" d="M124.45 37.25 Q132.55 30.4 142.85 27.0 151.0 24.3 158.55 24.3 L158.2 25.9 Q140.85 30.75 127.0 42.6 114.7 53.1 106.95 67.35 L102.9 68.05 98.95 68.25 Q100.9 62.8 109.6 52.45 117.6 43.0 124.45 37.25"/><path fill="#dcc552" d="M49.5 50.85 Q44.2 46.6 43.45 40.65 47.4 47.45 58.25 50.35 68.75 53.1 75.15 49.8 73.9 52.95 69.65 54.55 65.4 56.1 60.1 55.4 54.2 54.6 49.5 50.85"/><path fill="#dcc552" d="M85.45 67.4 Q80.75 67.1 76.95 64.2 71.75 60.3 71.9 53.45 L74.8 50.6 Q73.9 54.8 77.2 59.65 80.5 64.55 84.75 65.1 88.85 63.7 90.0 59.4 91.2 55.0 88.1 51.2 92.9 53.8 92.1 59.15 91.25 64.6 85.45 67.4"/><path fill="#dcc552" d="M89.7 51.8 Q92.4 52.25 95.25 54.05 L92.65 60.45 Q92.65 57.95 91.9 55.65 91.1 53.25 89.7 51.8"/><path fill="#dcc552" d="M100.55 32.3 Q101.75 35.3 100.45 39.25 99.25 42.75 97.0 44.75 L92.85 44.35 Q95.15 43.3 97.5 39.6 99.8 35.95 100.55 32.3"/><path fill="#dcc552" d="M60.55 24.15 Q61.3 27.6 63.15 31.55 65.35 36.3 67.85 38.7 66.05 37.85 62.65 37.4 61.1 34.8 60.45 31.15 59.75 27.2 60.55 24.15"/><path fill="#815948" d="M46.35 16.9 Q46.8 22.8 48.8 28.7 50.9 34.8 53.5 37.45 50.9 37.65 48.55 38.6 46.8 36.2 45.95 29.15 45.05 21.6 46.35 16.9"/><path fill="#dcd096" d="M36.75 201.05 Q36.9 206.15 35.55 211.75 34.1 217.75 31.7 220.75 27.8 225.6 24.3 234.05 19.6 245.35 18.4 257.8 15.55 258.2 13.05 257.05 11.95 256.55 9.65 254.8 10.75 234.55 11.45 228.75 12.35 221.05 14.45 218.35 16.55 215.55 16.1 211.35 22.75 213.95 28.1 211.7 34.0 209.2 36.75 201.05"/><path fill="#dcd096" d="M34.6 181.95 Q37.05 183.0 39.7 182.35 39.1 190.6 40.7 197.35 L36.7 194.6 Q36.5 192.05 35.9 189.1 35.2 185.8 34.45 184.1 L34.6 181.95"/><path fill="#dcd096" d="M63.05 243.3 Q60.6 262.95 59.25 268.05 51.75 271.6 47.5 266.8 L48.2 247.5 Q48.7 230.7 47.9 227.5 49.1 230.05 51.6 231.15 54.05 232.25 56.85 231.55 63.5 229.8 66.1 220.4 65.65 222.55 63.05 243.3"/><path fill="#dcd096" d="M95.7 243.2 Q95.4 257.45 96.35 265.65 93.75 266.25 90.55 265.55 87.15 264.85 84.6 263.0 79.95 234.1 79.7 230.85 79.4 227.1 79.4 216.1 79.35 204.55 79.7 200.85 85.85 198.7 88.2 197.55 83.1 208.7 84.7 219.75 86.45 232.05 96.5 227.0 95.95 233.0 95.7 243.2"/><path fill="#dcd096" d="M77.85 121.9 Q71.05 125.7 63.55 126.1 57.35 126.4 49.1 122.05 41.1 117.8 37.45 112.55 49.3 121.9 64.05 121.75 78.65 121.55 88.35 112.05 84.75 118.0 77.85 121.9"/><path fill="#0f141b" d="M96.5 264.7 L96.6 266.1 Q93.6 266.7 90.5 266.15 87.05 265.55 84.7 263.65 L84.6 262.15 Q86.85 263.85 90.15 264.55 L96.5 264.7"/><path fill="#0f141b" d="M36.6 195.5 L36.7 193.0 40.25 195.8 40.85 198.6 Q38.8 197.35 36.6 195.5"/><path fill="#0f141b" d="M89.2 196.45 Q90.3 196.0 90.55 196.45 90.8 196.95 89.75 197.5 79.35 202.9 68.4 204.0 L68.4 202.0 Q78.9 201.0 89.2 196.45"/><path fill="#0f141b" d="M45.65 160.85 Q46.4 159.7 46.75 159.95 47.15 160.2 46.5 161.45 35.75 181.3 44.3 208.25 46.15 214.15 47.75 222.25 49.65 231.95 49.6 237.65 L48.6 258.35 47.3 277.65 Q47.15 279.45 48.5 280.45 49.85 281.45 52.15 281.5 54.45 281.5 55.65 280.45 56.85 279.4 57.05 277.25 57.85 269.45 61.5 251.45 L63.05 241.75 63.85 232.65 Q64.4 224.65 66.35 213.8 68.25 203.55 67.6 197.2 67.5 195.85 68.05 195.8 68.55 195.7 68.75 197.05 69.8 204.35 68.0 214.1 66.05 224.95 65.5 232.8 L64.7 241.95 63.1 251.8 Q59.15 271.05 58.5 277.45 58.15 280.25 56.65 281.55 55.2 282.85 52.2 282.9 49.25 282.95 47.55 281.7 45.55 280.15 45.75 277.55 L47.05 257.75 47.9 237.6 Q47.9 232.45 46.05 222.9 44.4 214.35 42.65 208.75 33.55 179.95 45.65 160.85"/><path fill="#0f141b" d="M59.15 267.25 L59.05 268.8 Q56.4 270.7 52.95 270.45 49.4 270.15 47.4 267.85 L47.55 266.45 Q49.75 268.55 53.2 268.8 56.7 269.05 59.15 267.25"/><path fill="#0f141b" d="M44.8 214.15 L45.9 217.15 Q44.75 224.05 44.9 226.95 45.05 229.65 48.75 240.95 L48.35 244.75 Q46.8 240.25 45.2 235.05 43.25 228.55 43.2 227.0 43.1 222.35 44.8 214.15"/><path fill="#0f141b" d="M62.75 250.35 Q64.15 259.55 64.15 263.6 64.15 264.7 63.7 265.2 63.15 265.75 61.7 265.95 L59.65 266.0 59.65 264.6 61.7 264.55 Q62.7 264.55 62.7 263.6 62.7 259.95 61.8 253.95 L62.75 250.35"/><path fill="#0f141b" d="M52.55 145.3 L50.7 146.2 Q45.4 141.35 36.35 141.9 27.4 142.5 22.0 147.9 15.35 154.55 13.25 164.9 11.1 175.4 14.0 187.7 16.3 197.6 16.9 212.95 16.95 214.85 16.65 216.0 L15.4 218.3 Q12.6 222.3 12.25 228.75 L9.65 262.25 Q9.6 264.05 10.5 264.95 11.3 265.75 13.1 266.55 14.8 267.25 15.55 267.25 L16.7 266.9 Q17.4 266.45 17.4 265.55 17.4 252.85 21.8 238.9 25.9 225.8 31.05 220.05 34.75 215.95 35.85 204.15 36.95 192.15 34.15 184.7 33.7 183.5 34.15 183.3 34.55 183.1 35.05 184.25 38.45 192.15 37.7 203.85 36.95 215.9 32.4 221.2 27.35 227.1 23.25 239.6 18.75 253.3 18.75 265.6 18.75 268.7 16.0 268.7 14.4 268.7 12.55 267.9 10.65 267.1 9.2 265.7 8.0 264.5 8.15 262.15 L10.55 228.65 Q10.75 225.4 11.95 222.15 13.0 219.2 14.6 216.95 L15.35 215.3 15.5 212.55 Q14.95 199.0 12.3 188.0 9.35 175.35 11.55 164.4 13.8 153.4 20.7 146.6 27.2 140.25 37.15 140.0 46.9 139.75 52.55 145.3"/><path fill="#0f141b" d="M25.1 164.45 Q25.9 163.55 25.9 164.95 25.65 171.95 30.45 177.55 35.15 183.05 39.45 181.45 L39.5 183.25 Q34.8 184.65 29.85 179.2 24.65 173.5 24.95 166.0 18.85 171.35 11.5 170.25 L11.7 168.45 Q15.45 169.0 19.25 167.8 22.85 166.7 25.1 164.45"/><path fill="#0f141b" d="M39.65 181.95 L40.0 180.25 Q47.0 187.75 60.2 179.6 72.75 171.85 79.0 158.2 79.55 156.95 80.1 156.9 80.6 156.85 81.45 158.0 87.3 165.75 93.5 170.6 98.9 174.8 102.7 175.5 L102.7 176.85 Q93.15 175.95 80.3 158.9 73.6 173.8 60.5 181.6 54.4 185.25 49.05 185.5 43.3 185.75 39.65 181.95"/><path fill="#0f141b" d="M39.7 188.9 L39.7 187.3 Q48.6 194.05 62.3 187.0 75.3 180.25 80.6 168.05 80.95 167.3 81.2 167.3 L81.9 168.0 Q85.35 173.35 91.85 177.25 97.8 180.9 102.95 181.4 L102.95 183.2 Q97.6 182.75 91.75 179.15 85.4 175.35 81.45 169.55 75.8 182.3 61.95 189.15 47.7 196.15 39.7 188.9"/><path fill="#0f141b" d="M40.65 164.2 Q41.4 162.4 43.15 161.85 L45.8 162.0 45.2 162.95 43.45 163.0 Q42.5 163.55 41.95 164.85 41.5 165.95 41.8 167.1 42.15 168.2 42.85 168.55 L42.35 169.5 Q41.2 169.05 40.6 167.55 40.0 165.9 40.65 164.2"/><path fill="#0f141b" d="M6.35 143.15 Q1.45 137.55 0.05 129.75 -0.25 128.35 1.0 128.2 L3.4 128.5 3.65 129.7 1.2 129.65 Q2.65 136.9 7.9 142.3 13.0 147.5 19.5 148.7 L18.3 150.3 Q11.35 148.85 6.35 143.15"/><path fill="#0f141b" d="M89.25 76.9 Q91.35 77.4 92.4 78.55 93.5 79.8 94.2 82.55 99.05 101.85 87.2 115.5 82.2 121.2 75.35 124.3 68.65 127.3 62.15 126.9 47.15 126.0 35.35 112.0 23.35 97.8 23.95 80.85 24.05 78.5 25.1 77.3 26.2 76.05 28.75 75.6 L37.5 76.05 Q43.2 77.15 46.35 79.15 47.35 79.8 47.1 80.2 L45.8 80.15 Q42.35 78.55 37.15 77.65 L29.0 77.25 Q26.0 77.75 25.85 81.05 25.2 96.55 36.7 110.45 48.2 124.4 62.25 125.1 68.55 125.4 74.95 122.45 81.45 119.45 86.15 113.9 97.25 100.85 92.7 82.9 92.1 80.5 91.45 79.75 90.8 79.0 89.05 78.55 83.4 77.15 78.15 72.5 72.65 67.6 70.25 61.2 65.4 64.7 59.7 66.6 54.15 68.45 49.3 68.35 46.05 68.25 43.85 67.2 41.05 65.9 40.55 63.25 L41.6 61.75 Q41.9 66.05 49.35 66.3 54.1 66.4 59.6 64.75 65.8 62.9 70.4 59.45 71.0 59.0 71.25 59.75 72.8 65.1 78.55 70.5 84.2 75.75 89.25 76.9"/><path fill="#0f141b" d="M25.35 86.75 L25.15 85.55 Q27.95 85.35 30.85 82.95 34.15 80.2 34.75 76.65 L36.05 76.8 Q35.65 81.15 31.85 84.2 28.45 86.9 25.35 86.75"/><path fill="#0f141b" d="M76.95 81.5 Q76.05 77.75 73.9 77.1 71.15 76.2 68.7 78.9 66.0 81.85 64.95 87.9 64.0 93.4 65.15 97.2 66.15 100.5 68.15 101.05 70.55 101.75 73.15 98.7 75.95 95.45 76.95 90.1 77.9 85.35 76.95 81.5 M74.55 75.3 Q77.2 75.95 78.5 80.45 79.8 85.0 78.75 90.3 77.45 96.95 73.75 100.25 70.75 102.9 68.1 102.35 65.45 101.8 63.95 98.1 62.2 93.8 63.25 87.6 64.4 80.95 67.75 77.55 70.9 74.4 74.55 75.3"/><path fill="#0f141b" d="M81.6 97.5 Q79.7 101.3 76.6 102.05 L75.15 102.15 Q74.9 102.0 76.05 101.45 81.75 98.8 81.85 89.4 81.95 79.8 75.55 77.05 74.35 76.5 72.75 76.45 70.9 76.4 69.5 77.15 L69.35 76.25 Q72.5 74.35 75.8 75.45 79.7 76.7 81.8 80.8 83.65 84.5 83.55 89.3 83.45 93.95 81.6 97.5"/><path fill="#0f141b" d="M43.05 39.7 Q47.55 37.4 53.85 36.6 60.8 35.65 66.1 37.2 71.85 38.85 74.45 43.85 75.05 45.05 74.6 45.3 74.15 45.5 73.45 44.35 72.2 42.4 70.35 41.2 68.55 40.05 65.65 39.2 60.35 37.65 53.95 38.4 47.9 39.05 43.9 41.3 45.45 46.2 49.85 49.95 53.9 53.35 58.25 54.15 63.1 55.0 67.05 54.3 71.95 53.35 74.2 50.2 74.9 49.2 75.35 49.45 75.75 49.7 75.15 50.75 73.05 54.6 67.6 56.0 L57.85 56.3 Q53.45 55.45 48.9 51.5 44.0 47.25 42.15 42.05 41.8 41.1 42.0 40.65 42.2 40.15 43.05 39.7"/><path fill="#0f141b" d="M85.3 66.4 Q91.15 63.3 91.45 58.2 91.7 53.25 87.05 51.3 85.65 50.75 85.9 50.15 86.1 49.5 87.55 50.0 93.45 51.95 93.1 58.3 92.75 64.85 85.6 68.2 L85.25 68.25 Q78.2 67.1 74.45 63.1 70.8 59.25 71.15 53.85 L72.75 52.8 Q72.1 57.7 75.4 61.45 78.85 65.35 85.3 66.4"/><path fill="#0f141b" d="M100.35 44.95 L99.45 46.5 Q97.05 45.15 93.6 45.4 90.1 45.6 87.6 47.25 86.05 48.25 85.65 47.65 85.25 47.0 86.8 45.9 89.55 44.05 93.6 43.75 97.7 43.45 100.35 44.95"/><path fill="#0f141b" d="M97.45 45.0 L95.9 44.4 Q98.5 42.05 99.6 38.75 100.45 36.05 100.2 33.25 93.4 30.3 88.3 32.15 83.3 34.0 80.7 40.15 L80.65 37.15 Q83.65 31.35 89.2 30.0 94.65 28.65 101.75 31.8 L102.05 32.25 Q102.45 35.8 101.2 39.3 99.9 42.75 97.45 45.0"/><path fill="#0f141b" d="M81.35 33.8 Q82.1 37.55 81.3 40.8 80.95 42.4 80.3 42.35 79.7 42.3 79.85 40.65 80.25 36.75 79.45 33.7 78.6 30.25 76.5 29.1 74.2 27.85 69.5 26.55 64.8 25.25 61.15 24.85 60.55 24.8 60.55 25.3 60.5 27.8 61.35 31.25 62.3 35.2 63.8 37.55 L61.4 37.4 Q60.0 34.95 59.4 31.0 58.85 27.8 59.0 24.75 59.1 23.7 59.45 23.4 L60.85 23.25 69.75 24.85 Q75.1 26.15 77.45 27.45 80.45 29.1 81.35 33.8"/><path fill="#0f141b" d="M51.8 1.8 Q47.55 12.6 46.85 20.6 46.0 29.85 49.45 38.3 L47.55 38.9 Q43.55 29.15 45.15 18.4 46.1 11.7 50.15 1.6 50.7 0.2 51.3 0.0 51.85 -0.15 52.8 0.75 58.55 6.05 62.8 12.55 67.0 19.05 68.9 25.45 L66.85 25.1 Q65.05 19.35 60.95 12.9 56.7 6.3 51.8 1.8"/><path fill="#0f141b" d="M163.95 17.45 L163.9 17.0 163.4 16.9 Q150.15 16.85 138.9 19.25 124.55 22.35 114.8 29.1 108.25 33.65 101.1 45.35 94.45 56.15 92.0 64.75 91.65 66.05 91.1 65.95 90.55 65.8 90.9 64.45 92.95 55.4 99.65 44.1 106.75 32.15 113.6 27.35 130.75 15.45 162.75 15.35 165.0 15.3 165.5 15.85 166.0 16.4 165.45 18.15 164.15 22.55 160.35 28.7 156.9 34.3 152.65 39.55 L154.6 34.2 Q162.25 23.45 163.95 17.45"/><path fill="#0f141b" d="M151.1 38.85 Q155.8 31.55 157.5 25.1 146.85 26.15 139.3 29.4 132.0 32.55 123.1 39.75 118.05 43.85 111.2 51.85 103.5 60.85 100.0 67.6 108.15 67.45 121.6 62.0 134.95 56.55 140.95 51.1 146.5 46.0 151.1 38.85 M156.8 23.7 L158.9 23.95 Q159.25 24.35 158.75 26.0 156.85 32.75 152.3 40.2 147.7 47.8 142.35 52.7 136.3 58.25 122.6 63.5 108.95 68.8 100.0 69.0 98.7 69.05 98.4 68.6 98.1 68.15 98.7 66.95 102.45 59.65 110.05 50.45 116.85 42.2 121.85 38.15 130.55 31.1 138.5 27.85 146.35 24.6 156.8 23.7"/><path fill="#0f141b" d="M18.45 257.1 L18.4 258.35 13.75 258.25 Q11.1 257.4 9.5 255.4 L9.7 254.25 Q11.5 255.95 14.1 256.8 L18.45 257.1"/><path fill="#0f141b" d="M101.35 68.2 L103.45 67.95 Q109.0 79.05 106.95 91.2 105.85 98.1 101.65 106.15 97.55 114.1 91.2 121.65 82.2 132.55 88.25 141.6 100.0 158.95 102.65 169.75 104.9 178.75 103.5 189.85 L99.9 212.15 Q96.8 231.4 96.7 234.75 96.45 243.25 96.7 253.6 97.1 267.2 98.3 273.6 99.05 277.8 94.85 277.25 91.15 276.65 88.6 275.3 86.8 274.3 85.95 273.1 84.95 271.65 84.6 269.25 82.5 254.65 80.0 240.95 77.65 228.25 78.95 201.2 L80.5 200.75 Q80.15 208.35 80.25 217.25 80.4 232.05 81.95 240.65 L84.1 254.1 86.2 269.05 Q86.5 271.05 87.15 272.1 87.85 273.25 89.3 274.05 91.35 275.15 95.05 275.7 96.35 275.9 96.75 275.4 97.05 275.0 96.85 273.8 95.6 267.3 95.1 253.65 94.65 242.7 94.85 234.65 94.95 231.2 97.85 211.95 L101.3 189.6 Q102.05 183.95 101.85 179.4 101.7 174.7 100.55 170.1 97.85 159.25 86.55 142.6 83.35 137.85 84.15 132.05 85.0 126.25 89.8 120.45 95.9 113.1 99.8 105.3 103.65 97.6 104.75 90.75 106.8 78.3 101.35 68.2"/><path fill="#0f141b" d="M34.3 76.35 L32.8 76.15 Q37.0 59.75 51.9 52.5 L53.65 53.7 Q46.5 56.9 41.3 63.3 36.7 69.0 34.3 76.35"/><path fill="#0f141b" d="M6.45 102.35 Q3.45 107.3 3.1 117.0 2.8 126.55 5.3 131.8 5.85 132.95 5.4 133.25 5.0 133.55 4.3 132.35 1.1 126.95 1.35 117.2 1.6 107.35 5.3 101.75 6.05 100.65 6.55 100.55 L8.05 101.45 Q24.05 116.85 27.95 124.35 30.65 129.6 30.8 134.3 30.95 139.0 28.5 142.75 L26.25 143.4 Q28.95 139.8 28.9 134.9 28.9 130.15 26.4 125.0 23.0 118.05 7.05 102.25 6.75 101.95 6.45 102.35"/></g></svg>