<?xml version='1.0' encoding='utf-8'?>
<svg xmlns="http://www.w3.org/2000/svg" version="1.1" width="163px" height="256px" viewBox="-2.35 -0.15 162.5 256.15"><g><path fill="#fac03e" d="M26.45 188.4 Q32.75 163.8 51.9 151.2 65.2 171.9 86.15 173.55 95.5 174.25 104.35 170.7 113.2 167.15 119.95 160.0 127.15 176.3 122.55 198.4 118.1 219.65 105.85 232.95 87.1 244.95 65.15 242.8 46.05 240.9 30.7 229.5 25.7 221.25 24.65 210.25 23.6 199.55 26.45 188.4"/><path fill="#0081cc" d="M128.75 12.05 Q132.3 16.45 132.5 21.75 132.75 27.1 129.5 31.7 126.05 36.6 119.45 39.25 117.4 40.1 116.25 45.7 114.95 52.15 115.9 61.3 116.8 69.6 122.85 81.0 L134.45 102.55 Q141.25 116.8 143.6 131.25 146.6 149.9 143.0 172.35 139.9 191.85 130.05 207.85 120.3 223.75 105.85 232.95 118.1 219.65 122.55 198.4 127.15 176.3 119.95 160.0 125.75 153.85 129.25 145.7 132.75 137.6 133.5 128.5 135.3 106.2 122.45 91.15 110.7 77.4 93.75 76.6 77.0 75.85 62.35 87.0 45.55 99.8 43.9 121.05 43.25 128.95 45.45 136.9 47.5 144.4 51.9 151.2 32.75 163.8 26.45 188.4 23.6 199.55 24.65 210.25 25.7 221.25 30.7 229.5 16.1 218.7 8.7 201.7 0.65 183.25 2.5 160.25 4.3 136.8 14.9 118.3 25.3 100.15 46.9 82.05 L64.05 67.6 Q72.7 59.75 77.45 52.5 81.85 45.75 83.5 40.55 85.6 33.8 82.4 31.4 76.6 27.05 75.3 21.55 74.15 16.65 76.7 11.8 79.05 7.25 83.85 4.25 88.7 1.2 94.1 0.95 98.45 0.75 99.25 1.5 99.95 2.25 98.55 5.15 95.75 11.0 98.9 14.8 101.6 18.1 106.95 18.5 112.25 18.9 115.15 16.25 118.4 13.25 115.75 8.15 114.6 5.95 115.2 5.1 115.8 4.2 118.5 5.15 125.0 7.4 128.75 12.05"/><path fill="#933000" d="M65.7 146.0 Q67.6 140.4 71.75 136.1 72.65 137.8 75.3 140.9 77.8 143.85 78.2 143.85 79.1 142.85 80.4 137.6 81.65 132.4 81.6 129.9 87.7 127.8 93.85 128.95 100.3 130.1 104.4 134.45 103.8 137.05 103.35 141.45 102.85 146.5 103.4 147.55 104.7 147.45 109.75 144.0 111.55 150.3 110.05 156.65 108.5 163.25 103.9 167.7 99.55 157.0 88.25 150.85 77.45 145.05 65.7 146.0"/><path fill="#ffffff" d="M103.4 147.55 Q102.85 146.5 103.35 141.45 103.8 137.05 104.4 134.45 108.25 138.55 109.75 144.0 104.7 147.45 103.4 147.55"/><path fill="#7ecef4" d="M94.0 76.6 Q107.05 77.35 117.0 85.75 116.05 91.95 109.3 99.6 102.35 107.35 97.35 107.25 91.15 107.1 83.5 98.35 75.8 89.55 73.7 80.1 83.7 76.0 94.0 76.6"/><path fill="#ffffff" d="M78.2 143.85 Q77.8 143.85 75.3 140.9 72.65 137.8 71.75 136.1 75.95 131.75 81.6 129.9 81.65 132.4 80.4 137.6 79.1 142.85 78.2 143.85"/><path fill="#ee869a" d="M72.4 169.75 Q67.35 165.7 65.55 159.15 63.7 152.6 65.85 146.05 79.2 145.5 89.25 151.1 99.5 156.8 103.9 167.7 100.05 171.35 94.3 173.1 82.45 174.55 72.4 169.75"/><path fill="#515557" d="M53.35 95.85 Q61.35 85.2 73.7 80.1 75.8 89.55 83.5 98.35 91.15 107.1 97.35 107.25 102.35 107.35 109.3 99.6 116.05 91.95 117.0 85.75 125.6 93.0 130.05 104.3 134.5 115.75 133.5 128.5 132.1 145.75 121.8 158.05 110.95 171.05 94.3 173.1 108.6 168.85 110.5 153.95 111.65 144.95 107.05 137.75 102.6 130.85 95.5 129.2 85.4 126.85 76.95 132.0 69.1 136.75 66.0 145.55 60.8 160.4 72.4 169.75 60.05 163.85 51.75 150.85 42.65 136.55 43.9 121.05 45.0 107.0 53.35 95.85"/><path fill="#fac03e" d="M60.95 95.1 Q63.85 91.05 67.05 93.5 71.1 96.65 77.75 105.2 85.25 114.75 85.1 118.25 85.0 120.55 82.6 122.85 80.25 125.1 76.65 126.45 67.95 129.6 61.1 125.0 54.75 120.7 55.25 111.05 55.7 102.3 60.95 95.1"/><path fill="#fac03e" d="M126.9 106.65 Q128.45 114.65 126.25 121.15 124.0 127.85 118.75 129.9 112.35 132.4 106.85 128.25 101.7 124.4 102.85 119.85 103.75 116.55 109.8 110.6 116.0 104.55 120.9 102.35 123.5 101.15 124.85 102.1 126.2 103.1 126.9 106.65"/><path fill="#f3993a" d="M113.4 125.05 Q112.05 124.85 111.4 122.45 110.8 120.05 111.2 116.75 111.6 113.45 112.85 111.3 114.05 109.15 115.4 109.35 116.7 109.55 117.35 111.95 118.0 114.4 117.55 117.65 117.15 120.9 115.95 123.1 114.7 125.25 113.4 125.05"/><path fill="#515557" d="M31.35 231.15 Q22.6 235.05 17.0 236.35 9.45 238.15 6.6 235.7 3.25 232.75 5.35 222.25 7.2 213.15 10.85 206.7 12.8 210.45 20.0 219.0 27.0 227.3 31.35 231.15"/><path fill="#515557" d="M87.55 241.8 Q92.5 240.25 98.65 237.2 110.95 231.2 117.1 224.05 118.85 229.35 115.05 241.25 111.15 253.65 106.35 254.4 101.9 255.15 95.95 250.4 91.8 247.1 87.55 241.8"/><path fill="#515557" d="M32.35 185.8 Q22.6 181.05 21.3 175.85 18.95 166.65 24.45 160.5 29.65 154.75 36.55 156.4 42.85 157.9 46.75 171.7 48.35 177.35 48.35 181.9 48.3 186.7 46.35 187.9 42.1 190.5 32.35 185.8"/><path fill="#515557" d="M145.8 146.55 Q155.8 144.2 157.45 146.95 160.15 151.45 154.6 161.85 148.7 172.85 139.8 177.05 137.6 178.1 135.2 175.85 132.95 173.7 131.5 169.65 128.0 159.8 132.6 153.25 135.65 148.95 145.8 146.55"/><path fill="#f3993a" d="M68.35 120.35 Q66.9 120.15 66.3 117.45 65.7 114.8 66.25 111.1 66.85 107.45 68.25 105.05 69.7 102.7 71.15 102.9 72.6 103.1 73.25 105.8 73.85 108.45 73.25 112.1 72.7 115.8 71.25 118.2 69.85 120.6 68.35 120.35"/><path fill="#d7a635" d="M120.7 205.55 Q115.65 222.35 105.85 232.95 87.1 244.95 65.15 242.8 46.05 240.9 30.7 229.5 24.15 218.75 24.4 203.55 48.2 213.5 73.0 214.25 98.8 214.95 120.7 205.55"/><path fill="#0071b2" d="M30.7 229.5 Q22.1 223.2 15.9 214.4 9.4 205.3 5.9 194.15 14.85 199.55 24.4 203.55 24.15 218.75 30.7 229.5"/><path fill="#0071b2" d="M105.85 232.95 Q115.65 222.35 120.7 205.55 128.6 202.15 135.45 197.7 130.35 208.9 122.85 217.9 115.25 226.95 105.85 232.95"/><path fill="#6a1b00" d="M77.3 146.8 Q71.4 145.5 65.7 146.0 67.6 140.4 71.75 136.1 72.65 137.8 75.3 140.9 77.8 143.85 78.2 143.85 79.1 142.85 80.4 137.6 81.65 132.4 81.6 129.9 87.7 127.8 93.85 128.95 100.3 130.1 104.4 134.45 103.8 137.05 103.35 141.45 102.85 146.5 103.4 147.55 104.7 147.45 109.75 144.0 L110.55 148.0 Q99.25 148.1 88.35 150.95 83.15 148.1 77.3 146.8"/><path fill="#cf7487" d="M80.1 153.45 Q73.1 155.95 65.8 160.0 63.55 152.95 65.85 146.05 78.85 145.5 88.7 150.85 L80.1 153.45"/><path fill="#38393a" d="M25.85 225.95 L31.35 231.15 Q22.6 235.05 17.0 236.35 9.45 238.15 6.6 235.7 L5.05 234.25 Q4.6 233.55 4.6 231.55 8.9 235.15 16.9 232.35 24.3 229.75 25.85 225.95"/><path fill="#38393a" d="M117.1 224.05 Q117.75 226.0 117.45 229.85 117.15 233.5 116.05 237.9 109.2 237.9 102.95 239.85 96.45 241.9 91.1 245.9 L87.55 241.8 Q92.5 240.25 98.65 237.2 110.95 231.2 117.1 224.05"/><path fill="#38393a" d="M22.55 178.35 Q29.8 182.35 36.3 183.75 44.0 185.45 48.3 182.9 48.05 186.9 46.35 187.9 42.7 190.15 34.25 186.65 26.05 183.2 22.55 178.35"/><path fill="#38393a" d="M133.85 173.3 Q140.7 171.85 146.05 168.25 151.5 164.6 156.3 158.2 153.95 164.0 149.8 168.95 145.15 174.55 139.8 177.05 138.05 177.9 136.4 176.5 135.45 175.7 133.85 173.3"/><path fill="#0f141b" d="M128.45 31.7 Q131.8 27.3 131.65 22.0 131.55 16.7 127.95 12.35 124.35 8.05 118.25 5.95 116.3 5.3 115.95 5.55 115.55 5.9 116.5 7.75 118.3 11.15 117.55 13.9 117.05 15.8 115.45 17.1 112.6 19.5 107.75 19.4 102.9 19.25 99.7 16.75 97.5 15.1 96.75 12.65 95.7 9.2 97.8 4.75 98.85 2.6 98.25 2.1 L94.15 1.8 Q88.2 2.05 83.1 5.75 78.0 9.45 76.35 14.7 75.05 19.05 76.75 23.2 78.45 27.35 82.95 30.7 86.8 33.6 84.05 41.55 82.3 46.65 78.15 53.0 73.85 59.55 67.35 65.65 L47.45 82.75 Q26.65 100.2 16.05 118.55 5.15 137.5 3.35 160.3 0.85 192.1 17.0 214.4 32.0 235.15 57.45 240.75 71.3 243.8 85.0 240.65 98.45 237.55 109.95 228.95 134.55 210.55 141.4 176.45 L144.55 174.65 Q138.25 210.85 113.1 230.15 101.2 239.25 86.95 242.45 72.35 245.75 57.05 242.4 30.4 236.55 15.1 217.1 -2.35 195.0 0.35 161.05 2.2 137.7 12.95 118.6 23.6 99.8 44.7 81.95 L63.55 66.15 Q72.8 58.0 76.7 52.05 80.85 45.7 82.35 40.25 83.95 34.15 81.2 32.05 75.25 27.6 73.85 22.15 72.85 18.35 74.1 14.45 75.85 8.7 81.7 4.5 87.55 0.35 94.05 0.1 99.75 -0.15 100.55 0.7 101.3 1.5 99.35 5.5 96.45 11.5 101.2 15.2 104.0 17.35 107.95 17.6 112.0 17.8 114.35 15.8 117.45 13.3 115.0 8.55 113.05 4.85 113.75 3.9 114.55 2.85 118.8 4.35 125.45 6.6 129.7 11.5 133.95 16.45 134.1 22.3 134.25 28.2 130.55 33.3 126.8 38.45 120.35 41.05 118.6 41.8 117.35 46.4 115.8 52.35 116.75 61.2 117.4 67.2 120.9 74.7 122.5 78.05 128.35 88.35 136.75 103.25 140.2 112.4 146.15 128.25 146.7 145.9 145.4 145.95 144.05 146.65 143.7 128.75 137.85 112.8 134.4 103.35 126.05 88.6 120.85 79.4 118.9 75.0 115.7 67.75 115.05 61.4 114.05 52.0 115.45 45.45 116.65 39.45 119.1 38.45 125.15 36.05 128.45 31.7"/><path fill="#0f141b" d="M122.8 93.1 Q111.4 78.3 93.7 77.45 74.65 76.6 60.45 89.25 46.25 101.9 44.75 121.1 43.2 140.15 56.55 156.05 62.5 163.1 69.95 167.45 77.55 171.8 85.0 172.4 103.5 173.9 117.2 161.45 131.0 148.85 132.65 128.45 134.25 108.0 122.8 93.1 M93.8 75.75 Q112.95 76.65 124.7 91.75 136.45 106.95 134.7 128.7 133.1 148.85 119.45 162.25 104.9 176.45 84.35 174.8 76.65 174.2 68.75 169.65 61.0 165.15 54.85 157.85 40.9 141.3 42.45 121.7 44.1 101.4 59.75 87.95 74.85 74.9 93.8 75.75"/><path fill="#0f141b" d="M27.1 182.25 L28.95 183.85 Q24.7 196.35 25.4 208.5 26.2 221.3 32.35 230.5 30.55 229.45 29.1 228.4 23.25 218.6 22.95 206.0 22.65 194.3 27.1 182.25"/><path fill="#0f141b" d="M51.65 150.35 Q51.95 150.15 52.4 150.9 52.85 151.6 52.55 151.8 46.85 155.55 42.2 160.8 L41.4 160.15 40.55 159.5 Q44.9 154.7 51.65 150.35"/><path fill="#0f141b" d="M119.3 160.7 L119.85 159.8 Q120.45 159.1 120.6 159.4 128.1 176.1 124.2 198.45 120.15 221.5 106.6 233.05 106.35 233.3 104.65 233.75 L103.2 233.95 Q116.5 221.8 121.45 199.55 126.4 177.15 119.3 160.7"/><path fill="#0f141b" d="M48.6 180.3 Q48.15 179.85 47.85 178.4 47.5 176.85 47.8 177.2 53.95 183.6 64.65 187.4 74.7 191.0 86.35 191.4 98.0 191.8 107.8 188.9 118.25 185.8 123.95 179.7 124.15 179.45 124.6 180.55 125.05 181.6 124.85 181.8 118.75 187.8 108.4 190.85 98.7 193.65 87.3 193.35 76.0 193.0 65.9 189.7 55.35 186.25 48.6 180.3"/><path fill="#0f141b" d="M96.15 221.3 Q109.85 217.9 119.1 209.55 119.35 209.35 119.1 210.7 118.85 212.1 118.6 212.3 110.0 219.7 96.95 223.0 84.2 226.25 70.45 224.85 56.2 223.45 44.5 217.4 31.85 210.85 24.6 200.05 24.4 199.8 24.8 198.3 25.15 196.8 25.35 197.1 31.55 207.55 43.6 214.4 55.0 220.85 69.1 222.7 83.15 224.55 96.15 221.3"/><path fill="#0f141b" d="M10.45 204.7 Q10.65 204.4 11.25 205.85 L11.7 207.6 Q8.1 214.5 6.35 223.0 4.35 232.6 7.15 235.05 9.7 237.3 17.05 235.35 22.3 233.95 31.0 230.1 31.35 230.0 32.15 230.8 32.95 231.6 32.6 231.75 11.6 241.15 6.05 236.35 2.35 233.1 4.75 221.3 6.75 211.3 10.45 204.7"/><path fill="#0f141b" d="M116.15 225.8 Q116.2 225.35 117.4 224.25 118.6 223.1 118.6 223.45 118.3 232.95 115.4 242.5 111.8 254.4 106.5 255.25 101.75 256.0 95.0 251.2 89.7 247.45 85.6 242.3 85.4 242.05 86.7 241.5 88.0 241.0 88.2 241.25 92.1 246.1 96.0 249.3 102.0 254.25 106.2 253.6 110.1 253.0 113.05 243.65 115.6 235.5 116.15 225.8"/><path fill="#0f141b" d="M22.15 175.65 Q23.3 180.3 32.75 184.9 42.15 189.5 45.9 187.2 47.6 186.15 47.5 181.55 47.45 177.25 45.9 171.85 42.15 158.65 36.35 157.25 30.15 155.8 25.2 161.2 19.95 167.0 22.15 175.65 M20.2 176.7 Q17.65 167.5 23.65 160.4 29.45 153.5 37.1 155.3 43.9 156.95 47.8 171.7 49.4 177.75 49.25 182.55 49.15 187.7 47.1 188.95 42.5 191.8 32.15 187.1 21.8 182.4 20.2 176.7"/><path fill="#0f141b" d="M157.25 148.4 Q156.6 146.6 153.55 146.5 148.8 146.35 142.4 148.45 135.45 150.7 133.3 153.75 130.25 158.1 131.2 164.8 132.05 170.85 135.1 174.5 137.45 177.25 139.4 176.3 145.2 173.55 150.1 167.15 154.6 161.3 156.45 155.2 157.95 150.3 157.25 148.4 M153.6 144.8 Q158.05 144.95 159.0 147.05 160.0 149.3 158.1 155.7 156.1 162.25 151.6 168.45 146.35 175.7 140.1 178.65 137.15 180.0 133.9 176.1 130.5 172.05 129.65 165.0 128.65 157.15 132.1 152.3 134.55 148.85 141.8 146.6 148.3 144.6 153.6 144.8"/><path fill="#0f141b" d="M108.75 98.85 Q115.3 91.4 116.2 85.6 116.25 85.25 117.25 85.6 118.25 85.95 118.2 86.3 117.45 93.35 110.05 100.9 102.75 108.3 97.1 108.2 90.5 108.0 82.65 99.15 74.85 90.25 72.85 80.55 72.8 80.2 73.6 79.75 74.4 79.25 74.45 79.6 76.35 88.65 83.85 97.45 91.4 106.25 97.4 106.4 102.05 106.5 108.75 98.85"/><path fill="#0f141b" d="M64.6 145.55 Q68.2 135.2 77.85 130.5 86.55 126.25 95.7 128.35 103.5 130.2 108.2 137.8 112.9 145.45 111.7 154.45 110.1 167.2 98.3 172.25 96.4 173.1 90.85 172.95 98.8 171.45 103.7 166.55 108.65 161.55 109.65 153.85 110.75 145.65 106.55 138.65 102.3 131.65 95.3 130.0 86.75 128.0 78.9 131.9 70.15 136.15 66.8 145.85 64.0 153.75 66.8 160.65 69.55 167.55 76.85 170.8 71.1 169.35 69.55 167.85 65.15 163.7 63.8 158.0 62.35 151.95 64.6 145.55"/><path fill="#0f141b" d="M71.7 135.9 Q72.55 135.4 72.6 135.65 72.85 136.65 74.95 139.3 L78.0 142.85 Q78.85 141.15 79.9 137.05 80.95 132.75 80.95 130.6 L81.65 130.1 82.35 130.0 Q82.6 132.75 80.95 138.8 79.25 144.9 78.2 144.55 77.25 144.25 74.3 141.1 71.3 137.85 70.95 136.7 70.9 136.4 71.7 135.9"/><path fill="#0f141b" d="M103.8 134.5 Q103.85 134.25 104.5 134.5 105.15 134.75 105.15 134.85 104.45 137.35 104.05 141.55 103.7 145.4 103.9 146.65 L109.45 143.4 Q109.7 143.25 110.1 143.85 110.5 144.5 110.25 144.6 109.9 144.75 106.5 146.95 103.3 148.95 103.05 148.6 102.15 146.95 102.7 141.35 103.1 136.85 103.8 134.5"/><path fill="#0f141b" d="M66.55 94.2 Q64.05 92.25 61.65 95.6 56.1 103.2 56.15 112.0 56.2 120.65 61.6 124.3 68.0 128.65 76.3 125.6 79.7 124.4 81.9 122.3 84.2 120.25 84.25 118.25 84.35 115.05 77.1 105.75 70.5 97.25 66.55 94.2 M60.25 94.6 Q62.15 92.05 63.8 91.65 65.5 91.2 67.6 92.85 71.65 96.0 78.45 104.7 86.1 114.55 85.95 118.3 85.85 120.9 83.2 123.4 80.65 125.85 76.75 127.25 67.3 130.65 60.2 125.85 53.9 121.65 54.2 111.9 54.45 102.6 60.25 94.6"/><path fill="#0f141b" d="M72.5 106.1 Q71.95 103.75 71.05 103.6 70.0 103.45 68.8 105.55 67.5 107.8 66.95 111.2 66.5 114.2 66.9 116.8 67.35 119.45 68.45 119.65 69.5 119.8 70.75 117.7 72.0 115.4 72.55 112.0 73.05 108.7 72.5 106.1 M71.25 102.2 Q72.9 102.4 73.75 105.05 74.65 107.95 73.95 112.25 73.35 116.0 71.8 118.55 70.1 121.4 68.15 121.1 66.45 120.85 65.65 118.25 64.7 115.4 65.4 111.2 66.0 107.4 67.6 104.8 69.3 101.9 71.25 102.2"/><path fill="#0f141b" d="M125.4 120.9 Q127.55 114.6 126.05 106.8 125.45 103.75 124.25 102.95 L121.25 103.1 Q116.45 105.25 110.4 111.25 104.5 117.05 103.7 120.1 102.65 124.1 107.4 127.65 112.45 131.45 118.4 129.1 123.25 127.25 125.4 120.9 M125.3 101.3 Q127.2 102.45 128.05 106.8 129.7 115.35 127.3 122.05 124.85 128.7 119.35 130.85 112.55 133.55 106.5 129.1 100.7 124.8 102.05 119.65 102.95 116.1 109.2 109.95 115.5 103.85 120.55 101.55 123.55 100.2 125.3 101.3"/><path fill="#0f141b" d="M115.4 122.7 Q116.45 120.7 116.85 117.55 117.25 114.55 116.7 112.3 116.2 110.15 115.3 110.05 114.45 109.95 113.45 111.8 112.3 113.9 111.9 116.85 111.55 119.9 112.05 122.1 112.55 124.2 113.5 124.35 114.4 124.45 115.4 122.7 M112.55 110.5 Q113.95 108.45 115.5 108.65 117.35 108.9 118.1 112.25 118.7 115.1 118.3 118.35 117.8 122.0 116.45 124.05 115.15 126.0 113.5 125.8 111.65 125.55 110.85 122.7 110.05 120.05 110.5 116.65 111.0 112.8 112.55 110.5"/><path fill="#0f141b" d="M65.7 147.3 Q65.35 147.35 65.8 146.25 66.25 145.2 66.6 145.2 79.4 144.5 89.8 150.55 100.1 156.6 104.1 167.05 104.2 167.4 103.45 168.0 102.7 168.65 102.6 168.3 98.85 157.85 88.45 151.95 78.05 146.1 65.7 147.3"/></g></svg>