<?xml version='1.0' encoding='utf-8'?>
<svg xmlns="http://www.w3.org/2000/svg" version="1.1" width="302px" height="337px" viewBox="-0.65 -0.2 301.9 336.85"><g><path fill="#dcd5cb" d="M279.2 210.8 Q272.75 212.2 268.35 208.35 265.0 205.4 264.05 201.25 269.75 201.85 276.1 200.2 282.6 198.55 287.2 195.15 288.0 199.1 286.65 203.5 284.8 209.6 279.2 210.8"/><path fill="#dcd5cb" d="M240.55 182.1 Q240.05 179.4 242.35 171.6 244.5 164.45 246.45 160.75 L247.55 170.0 Q249.1 177.15 256.8 179.65 263.8 181.9 272.05 179.45 277.8 177.7 281.2 172.65 284.35 168.1 284.65 162.3 284.5 159.85 282.45 152.55 286.55 155.45 291.4 160.25 296.8 165.6 297.3 167.85 299.85 179.95 292.55 189.45 286.25 197.6 276.25 200.25 263.5 203.6 252.8 197.9 242.5 192.35 240.55 182.1"/><path fill="#ca0537" d="M244.5 35.95 Q263.65 52.15 270.6 74.95 277.05 96.25 270.4 113.45 L244.5 35.95"/><path fill="#ca0537" d="M133.65 294.7 Q145.0 294.6 156.15 291.4 167.0 288.25 176.6 282.5 170.05 301.0 158.9 314.7 151.55 323.65 140.6 332.05 135.65 335.8 133.35 335.1 131.1 334.4 131.85 329.4 132.75 323.65 133.5 313.0 134.4 299.95 133.65 294.7"/><path fill="#ca0537" d="M38.55 141.35 Q36.2 144.45 33.45 144.95 7.6 119.75 1.7 113.55 0.45 112.25 0.95 111.5 1.4 110.75 2.8 111.5 10.3 115.75 40.5 135.55 41.0 138.2 38.55 141.35"/><path fill="#dcd5cb" d="M190.15 63.9 Q205.75 69.5 217.05 82.2 228.5 95.05 232.25 111.55 224.45 112.85 217.85 117.3 211.25 121.75 209.6 126.7 195.3 118.0 179.0 119.75 161.85 121.55 146.0 134.7 154.35 115.9 144.75 100.9 134.65 85.15 108.8 81.1 116.2 79.65 123.1 80.3 138.65 65.6 157.0 61.65 173.8 58.05 190.15 63.9"/><path fill="#dcd5cb" d="M33.45 144.95 Q36.2 144.45 38.55 141.35 41.0 138.2 40.5 135.55 L66.65 152.8 Q67.4 156.7 63.8 161.75 60.4 166.45 56.85 167.6 L33.45 144.95"/><path fill="#ca0537" d="M56.85 167.6 Q60.4 166.45 63.8 161.75 67.4 156.7 66.65 152.8 L94.8 171.3 Q95.9 178.45 91.7 185.1 87.9 191.0 83.1 192.4 74.65 184.7 56.85 167.6"/><path fill="#dcd5cb" d="M94.8 171.3 Q113.4 183.4 119.4 186.85 103.35 188.55 91.25 199.7 L83.1 192.4 Q87.9 191.0 91.7 185.1 95.9 178.45 94.8 171.3"/><path fill="#ca0537" d="M217.05 82.2 Q205.75 69.5 190.15 63.9 173.8 58.05 157.0 61.65 138.65 65.6 123.1 80.3 114.45 79.5 104.95 82.25 95.85 84.85 89.6 89.65 83.05 94.65 82.5 100.05 81.85 106.1 89.0 111.0 80.0 115.35 71.05 113.5 60.05 111.25 56.25 99.65 52.2 87.15 58.35 72.4 64.35 57.95 78.55 45.0 93.25 31.6 113.05 23.05 134.45 13.85 157.95 12.15 180.65 10.5 200.2 14.75 218.0 18.65 232.5 27.35 L241.2 111.35 Q236.95 110.75 232.25 111.55 228.5 95.05 217.05 82.2"/><path fill="#0081cc" d="M210.7 224.9 Q210.0 229.55 206.25 236.4 203.25 241.9 200.2 245.65 196.7 232.3 185.65 222.0 L188.75 215.9 191.35 209.35 Q195.35 215.45 200.4 219.55 205.5 223.65 210.7 224.9"/><path fill="#dcd5cb" d="M183.75 119.95 Q201.25 119.85 214.55 130.15 207.4 132.15 201.8 136.95 196.25 141.75 191.1 150.35 180.7 155.85 152.45 167.15 121.6 179.5 115.95 179.45 116.35 168.4 127.25 150.7 138.35 132.85 148.45 127.5 147.6 130.9 146.0 134.7 163.7 120.05 183.75 119.95"/><path fill="#dcd5cb" d="M122.35 186.65 Q131.55 186.3 139.75 191.1 149.05 196.6 152.65 206.75 170.6 208.75 184.8 221.0 201.85 235.7 201.75 257.8 190.7 276.75 169.6 286.6 151.05 295.25 130.65 294.65 107.45 294.05 90.8 279.6 72.85 264.05 73.3 240.45 73.7 218.3 88.45 202.65 102.75 187.45 122.35 186.65"/><path fill="#dcd5cb" d="M209.4 132.2 Q216.15 128.55 223.8 128.95 235.4 129.55 244.25 140.1 L246.2 158.4 243.15 163.55 239.85 169.35 240.8 177.2 Q239.7 183.15 240.85 186.15 236.9 185.5 234.55 184.0 234.3 175.9 231.25 170.2 228.05 164.15 223.0 163.25 216.85 162.15 211.3 168.1 205.65 174.2 204.5 183.65 203.3 193.1 207.25 200.8 211.1 208.35 217.25 209.35 221.6 210.05 225.25 207.8 228.8 205.6 231.15 200.95 L238.15 201.5 Q235.0 211.9 229.15 218.3 223.1 224.9 215.7 225.35 211.3 225.6 205.95 222.9 200.25 220.0 195.4 214.7 183.55 201.8 183.0 182.85 182.6 168.5 188.7 155.15 195.8 139.5 209.4 132.2"/><path fill="#dcd5cb" d="M287.5 199.05 Q293.7 203.35 292.95 221.3 292.7 227.5 289.3 252.95 288.95 255.65 287.75 256.0 286.5 256.35 284.85 254.1 274.25 240.0 268.1 227.45 261.2 213.35 263.0 207.0 263.55 205.1 264.85 204.0 266.6 208.4 270.35 210.2 274.05 211.95 279.2 210.8 283.2 209.95 285.4 206.4 287.4 203.3 287.5 199.05"/><path fill="#515557" d="M136.65 181.65 Q136.05 185.65 136.05 188.95 131.85 187.2 126.9 186.75 132.9 183.95 136.65 181.65"/><path fill="#fac03e" d="M183.55 172.25 Q182.2 182.15 183.85 190.8 185.65 200.55 191.35 209.35 L188.75 215.9 185.65 222.0 Q178.8 215.65 170.15 211.7 161.6 207.75 152.65 206.75 150.1 199.45 144.5 194.35 145.35 190.0 150.1 184.3 154.4 179.1 158.25 176.9 175.0 177.25 183.55 172.25"/><path fill="#515557" d="M168.0 160.6 Q186.1 153.0 191.1 150.35 185.15 160.35 183.55 172.25 174.65 177.45 157.2 176.9 145.55 176.55 134.05 174.05 148.45 168.8 168.0 160.6"/><path fill="#dcd5cb" d="M138.9 175.0 Q148.95 176.75 158.25 176.9 154.4 179.1 150.1 184.3 145.35 190.0 144.5 194.35 140.75 190.9 136.05 188.95 136.05 185.65 136.65 181.7 137.45 176.35 138.9 175.0"/><path fill="#dcd5cb" d="M223.0 163.25 Q228.05 164.15 231.25 170.2 234.3 175.9 234.55 184.0 233.9 183.75 231.0 180.05 228.35 176.6 226.05 176.4 222.25 176.1 219.6 179.35 216.95 182.65 217.15 187.7 217.5 196.4 222.95 199.55 226.65 201.7 231.15 200.95 228.8 205.6 225.25 207.8 221.6 210.05 217.25 209.35 211.1 208.35 207.25 200.8 203.3 193.1 204.5 183.65 205.65 174.2 211.3 168.1 216.85 162.15 223.0 163.25"/><path fill="#515557" d="M220.4 197.25 Q217.35 193.55 217.15 187.7 216.95 182.65 219.6 179.35 222.25 176.1 226.05 176.4 228.5 176.6 230.7 179.35 L233.65 183.35 Q235.35 184.95 237.85 185.65 L241.9 186.35 Q244.5 192.3 250.35 196.3 256.4 200.5 264.05 201.25 L264.85 204.0 Q263.55 205.1 263.0 207.0 257.05 204.3 245.35 202.4 234.85 200.75 228.8 200.95 223.65 201.15 220.4 197.25"/><path fill="#ca0537" d="M250.05 87.85 Q258.1 85.8 259.3 79.8 L266.4 101.25 270.65 114.25 Q269.7 118.25 266.3 121.5 263.05 124.65 258.65 126.05 248.3 129.3 242.2 121.15 L238.5 85.75 Q242.1 89.85 250.05 87.85"/><path fill="#dcd5cb" d="M270.65 114.25 L279.05 140.8 Q277.5 146.25 273.45 150.15 269.55 153.85 264.4 155.2 252.7 158.2 245.1 148.15 L242.2 121.15 Q248.3 129.3 258.65 126.05 263.05 124.65 266.3 121.5 269.7 118.25 270.65 114.25"/><path fill="#ca0537" d="M281.2 172.65 Q277.8 177.7 272.05 179.45 263.8 181.9 256.8 179.65 249.1 177.15 247.55 170.0 247.2 168.5 245.1 148.15 252.7 158.2 264.4 155.2 269.55 153.85 273.45 150.15 277.5 146.25 279.05 140.8 L282.3 152.7 284.65 162.3 Q284.35 168.1 281.2 172.65"/><path fill="#dcd5cb" d="M259.3 79.8 Q258.1 85.8 250.05 87.85 242.1 89.85 238.5 85.75 L234.35 45.45 Q236.15 48.15 240.85 47.45 245.7 46.75 247.0 43.2 L259.3 79.8"/><path fill="#ca0537" d="M240.85 47.45 Q236.15 48.15 234.35 45.45 L232.05 22.95 230.15 3.45 Q229.95 0.75 231.15 0.55 232.35 0.3 233.2 2.85 L247.0 43.2 Q245.7 46.75 240.85 47.45"/><path fill="#fac03e" d="M172.6 167.5 Q164.5 170.3 155.95 165.45 L181.55 154.9 Q181.2 164.55 172.6 167.5"/><path fill="#515557" d="M139.0 142.45 Q144.55 138.5 144.55 140.5 144.55 142.7 136.1 154.1 127.45 165.8 124.45 166.9 122.9 167.5 125.15 161.15 127.45 154.7 130.3 150.8 133.45 146.45 139.0 142.45"/><path fill="#515557" d="M148.75 147.85 Q152.4 143.65 157.0 141.2 161.2 138.95 160.75 140.15 159.25 144.0 152.7 151.95 145.85 160.2 142.55 161.65 140.6 162.5 143.15 156.95 145.7 151.4 148.75 147.85"/><path fill="#ffffff" d="M173.4 174.85 Q174.7 177.05 172.8 178.35 170.85 179.7 167.6 178.1 166.45 177.6 164.15 174.25 161.85 170.95 162.35 170.95 164.2 170.95 168.2 172.2 172.65 173.55 173.4 174.85"/><path fill="#f3993a" d="M165.1 161.65 L172.2 158.7 Q172.4 165.9 169.75 166.25 168.45 166.45 167.15 165.05 166.0 163.8 165.1 161.65"/><path fill="#ab002c" d="M133.65 294.7 Q145.0 294.6 156.15 291.4 167.0 288.25 176.6 282.5 174.05 289.7 171.3 295.2 163.3 301.3 153.5 304.9 144.0 308.35 133.7 309.15 134.25 298.9 133.65 294.7"/><path fill="#b4afa7" d="M123.1 80.3 Q135.5 81.45 143.9 87.55 151.6 93.15 154.6 101.8 157.5 110.1 155.3 118.85 153.05 127.85 146.0 134.7 154.35 115.9 144.75 100.9 134.65 85.15 108.8 81.1 116.2 79.65 123.1 80.3"/><path fill="#0071b2" d="M205.75 223.0 Q208.2 224.3 210.7 224.9 210.0 229.55 206.25 236.4 203.25 241.9 200.2 245.65 197.95 237.05 192.45 229.6 199.75 227.75 205.75 223.0"/><path fill="#b4afa7" d="M130.65 294.65 Q115.5 294.25 102.25 287.35 88.5 280.2 80.85 268.1 112.3 275.95 143.0 266.25 174.95 256.15 193.5 230.6 201.8 242.6 201.75 257.8 190.7 276.75 169.6 286.6 151.05 295.25 130.65 294.65"/><path fill="#b4afa7" d="M206.3 198.75 Q208.1 203.15 210.95 205.95 213.85 208.8 217.25 209.35 221.6 210.05 225.25 207.8 228.8 205.6 231.15 200.95 L238.15 201.5 Q235.0 211.9 229.15 218.3 223.1 224.9 215.7 225.35 206.9 225.9 197.25 216.6 186.3 206.05 183.7 190.05 187.75 195.85 195.2 198.4 202.1 200.75 206.3 198.75"/><path fill="#b4afa7" d="M284.65 232.4 Q289.75 228.65 292.85 223.05 292.5 229.2 291.3 238.3 L289.3 252.95 Q288.95 255.65 287.75 256.0 286.5 256.35 284.85 254.1 278.4 245.5 273.45 237.2 279.45 236.2 284.65 232.4"/><path fill="#38393a" d="M191.1 150.35 L188.6 155.05 Q163.05 166.25 137.7 174.75 L134.05 174.05 Q148.45 168.8 168.0 160.6 186.1 153.0 191.1 150.35"/><path fill="#b4afa7" d="M206.3 198.75 Q210.35 201.0 214.8 200.75 218.8 200.55 221.5 198.55 223.65 200.4 226.75 200.9 229.0 201.3 231.15 200.95 228.8 205.6 225.25 207.8 221.6 210.05 217.25 209.35 213.85 208.8 210.95 205.95 208.1 203.15 206.3 198.75"/><path fill="#d7a635" d="M181.55 154.9 Q181.5 156.75 181.1 158.3 169.75 163.1 159.35 167.0 L155.95 165.45 181.55 154.9"/><path fill="#d28431" d="M172.2 158.7 L172.1 162.0 166.5 164.25 165.1 161.65 172.2 158.7"/><path fill="#b4afa7" d="M154.25 216.25 Q153.95 235.6 143.55 243.6 139.0 247.1 131.65 244.55 123.8 241.8 122.4 234.7 129.2 241.3 139.7 235.3 150.25 229.3 154.25 216.25"/><path fill="#b4afa7" d="M227.55 112.2 Q221.2 114.45 215.85 118.85 211.05 122.85 209.55 126.4 209.35 125.75 205.85 123.95 203.1 122.6 200.25 121.4 205.55 115.85 211.9 113.95 217.1 112.35 227.55 112.2"/><path fill="#0f141b" d="M215.2 129.3 Q215.45 129.55 214.5 130.25 213.55 131.0 213.3 130.75 199.65 119.75 181.6 120.75 163.6 121.75 147.65 134.4 146.15 135.6 145.55 135.3 144.95 135.0 145.7 133.2 153.4 114.5 143.05 100.35 132.2 85.5 105.5 82.2 105.05 82.15 107.45 81.3 109.85 80.4 110.45 80.5 135.0 84.75 145.05 99.75 154.5 113.95 147.85 132.15 164.3 119.7 182.65 118.75 201.4 117.75 215.2 129.3"/><path fill="#0f141b" d="M241.45 110.55 Q242.0 112.35 241.55 112.3 231.95 110.6 221.75 116.35 212.15 121.8 210.8 128.3 210.75 128.65 209.7 127.9 208.7 127.15 208.75 126.8 210.2 119.8 220.4 114.45 230.95 108.9 241.45 110.55"/><path fill="#0f141b" d="M190.9 62.85 Q206.75 68.55 218.2 81.5 229.7 94.55 233.25 110.9 233.35 111.25 232.2 111.6 231.1 111.95 231.0 111.6 227.6 95.95 216.6 83.35 205.65 70.8 190.5 65.05 174.45 58.95 157.9 62.3 139.7 65.95 124.05 80.55 L122.75 80.65 Q121.65 80.5 121.9 80.25 138.05 64.7 156.95 60.55 174.15 56.75 190.9 62.85"/><path fill="#0f141b" d="M232.4 26.3 L232.45 28.3 Q214.25 17.2 190.05 13.85 166.75 10.6 142.6 15.2 118.15 19.85 98.25 31.45 77.15 43.7 65.15 61.6 54.25 77.85 55.85 93.2 57.35 107.2 67.5 111.55 72.15 113.55 77.95 113.05 82.8 112.7 87.35 110.75 82.75 107.1 82.05 102.7 81.4 98.85 83.8 94.85 86.5 90.35 92.4 86.6 98.4 82.8 106.0 80.8 123.85 76.2 138.55 83.85 142.9 86.1 145.75 88.4 148.5 90.65 150.95 93.8 152.25 95.45 152.2 96.45 152.15 97.4 150.85 95.75 146.3 89.8 137.75 85.35 124.05 78.2 106.75 82.5 90.8 86.45 85.25 95.75 82.9 99.7 84.35 103.65 85.75 107.4 90.4 110.55 91.4 111.25 89.25 112.35 87.15 113.45 83.45 114.15 73.75 116.05 66.85 113.1 55.55 108.3 53.95 92.8 52.25 76.4 63.55 59.55 75.9 41.2 97.35 28.85 117.45 17.3 142.2 12.9 166.4 8.55 189.95 11.95 214.15 15.4 232.4 26.3"/><path fill="#0f141b" d="M244.75 37.25 L244.4 34.4 Q262.75 49.55 270.75 70.8 279.7 94.4 271.3 115.55 271.2 115.9 270.55 114.1 269.95 112.3 270.1 111.9 276.8 92.95 268.25 70.85 260.65 51.05 244.75 37.25"/><path fill="#0f141b" d="M155.45 105.25 Q154.95 103.5 155.6 103.6 156.25 103.7 156.65 105.45 157.1 107.3 157.05 108.85 L156.8 111.5 Q156.55 113.15 156.1 113.5 155.65 113.85 155.85 112.2 156.25 108.2 155.45 105.25"/><path fill="#0f141b" d="M153.85 121.1 Q154.65 119.0 154.8 120.0 154.95 121.0 154.15 123.15 L152.35 127.55 149.8 132.05 148.55 132.4 147.65 132.3 Q151.55 127.45 153.85 121.1"/><path fill="#0f141b" d="M151.75 24.4 L156.3 24.65 Q157.35 25.15 154.05 25.4 145.15 26.0 135.65 28.7 L133.0 28.65 Q133.2 27.85 136.2 27.05 143.85 25.05 151.75 24.4"/><path fill="#0f141b" d="M95.4 46.6 Q97.5 45.3 98.8 45.0 100.1 44.65 98.05 45.95 84.4 54.6 75.7 65.45 63.3 80.8 64.85 96.6 65.0 98.0 64.5 97.4 63.95 96.85 63.8 95.45 62.15 79.65 74.65 64.5 82.85 54.55 95.4 46.6"/><path fill="#0f141b" d="M68.45 108.55 Q67.2 106.85 67.15 105.85 67.15 104.85 68.4 106.6 72.8 112.75 81.7 112.95 L81.0 113.5 79.65 114.0 Q76.3 113.8 73.45 112.5 70.25 111.05 68.45 108.55"/><path fill="#0f141b" d="M191.3 149.3 Q191.6 149.1 191.55 150.1 191.5 151.1 191.25 151.25 180.4 157.3 149.3 169.4 117.05 181.9 115.3 180.0 114.2 178.8 116.05 172.3 118.0 165.3 122.1 157.15 133.1 135.2 148.3 125.8 148.6 125.6 148.35 127.1 L147.9 128.8 Q138.4 134.45 128.1 151.0 117.8 167.55 116.9 178.5 124.0 177.5 155.5 164.8 185.15 152.85 191.3 149.3"/><path fill="#0f141b" d="M171.7 99.65 Q173.4 110.05 173.0 121.4 L172.3 121.65 Q171.55 121.6 171.6 121.3 172.25 111.2 170.1 99.3 167.45 84.55 161.8 78.8 160.2 77.1 161.05 77.45 161.95 77.8 163.55 79.45 169.3 85.35 171.7 99.65"/><path fill="#0f141b" d="M197.65 84.4 Q198.95 82.15 199.5 82.05 200.1 81.95 198.8 84.4 195.85 90.15 192.85 102.55 189.95 114.55 189.95 120.1 189.95 120.4 189.25 120.4 188.55 120.4 188.55 120.1 188.55 113.95 191.45 102.15 194.5 89.75 197.65 84.4"/><path fill="#0f141b" d="M213.55 101.4 Q215.15 99.9 216.0 99.8 216.9 99.7 215.3 101.2 211.65 104.65 207.75 111.7 203.7 119.05 203.25 123.7 203.25 123.95 202.55 123.9 201.8 123.85 201.85 123.55 202.35 118.6 206.15 111.65 209.7 105.0 213.55 101.4"/><path fill="#0f141b" d="M183.05 171.25 Q183.35 171.05 183.85 171.75 184.3 172.45 184.0 172.65 180.0 175.4 173.7 176.7 173.95 175.65 173.6 174.65 179.55 173.45 183.05 171.25"/><path fill="#0f141b" d="M165.25 175.7 Q165.6 177.0 167.0 177.85 159.35 178.45 149.7 177.45 141.75 176.55 133.85 174.75 133.55 174.7 134.25 173.95 134.95 173.25 135.2 173.3 141.85 174.75 149.55 175.4 158.0 176.15 165.25 175.7"/><path fill="#0f141b" d="M138.55 174.15 Q138.8 173.95 139.3 174.65 139.8 175.3 139.55 175.5 138.45 176.35 137.6 181.1 136.85 185.4 136.9 189.2 L136.05 189.15 135.2 188.45 Q135.3 184.35 136.0 180.55 136.95 175.35 138.55 174.15"/><path fill="#0f141b" d="M156.85 176.8 L158.5 176.85 Q159.7 177.15 159.35 177.3 155.8 178.95 151.0 184.85 146.0 190.9 145.65 194.35 145.6 194.7 144.7 194.1 143.8 193.55 143.85 193.2 144.2 189.8 148.6 184.5 152.6 179.75 156.85 176.8"/><path fill="#0f141b" d="M183.5 189.75 Q183.85 189.7 184.0 190.7 184.15 191.75 183.8 191.8 171.2 194.5 161.4 193.35 149.5 191.9 149.0 184.95 149.0 184.6 149.85 184.55 150.7 184.45 150.7 184.8 151.1 190.2 161.9 191.35 171.5 192.35 183.5 189.75"/><path fill="#0f141b" d="M136.15 180.85 Q136.45 180.65 136.6 181.55 136.8 182.5 136.6 182.6 L131.5 185.5 127.3 187.45 Q126.95 187.55 126.35 186.85 125.75 186.15 126.1 186.05 126.8 185.85 130.8 183.85 135.1 181.65 136.15 180.85"/><path fill="#0f141b" d="M188.3 203.7 Q188.65 203.6 188.95 204.35 189.3 205.15 188.95 205.3 182.45 208.0 177.7 209.25 172.0 210.7 166.55 210.7 166.2 210.7 164.8 209.9 163.45 209.1 163.8 209.1 169.05 209.2 175.85 207.65 182.45 206.2 188.3 203.7"/><path fill="#0f141b" d="M190.3 208.6 L191.2 208.5 Q192.0 208.7 191.9 209.05 189.35 219.2 187.15 222.3 L185.85 222.15 Q184.75 221.65 184.95 221.35 186.1 219.65 187.9 215.35 189.6 211.25 190.3 208.6"/><path fill="#0f141b" d="M209.9 225.05 Q209.95 224.7 210.8 224.8 211.65 224.9 211.6 225.25 210.95 230.55 207.1 237.75 203.95 243.6 201.3 246.55 201.1 246.8 200.2 245.85 199.35 244.9 199.55 244.65 202.55 241.25 205.35 236.55 209.3 229.95 209.9 225.05"/><path fill="#0f141b" d="M180.85 154.85 Q180.85 154.55 181.8 154.4 L182.7 154.5 Q182.35 164.5 173.0 167.85 164.2 170.95 155.6 166.05 155.35 165.9 155.75 165.3 156.1 164.65 156.35 164.8 164.85 169.7 172.65 166.65 180.5 163.55 180.85 154.85"/><path fill="#0f141b" d="M226.4 130.25 Q217.6 128.7 209.8 132.95 198.75 138.9 191.55 151.4 183.35 165.6 183.85 182.8 184.3 199.5 194.95 212.65 205.1 225.15 215.65 224.5 222.3 224.1 228.2 217.65 234.1 211.3 237.3 201.05 L239.2 201.55 Q236.05 212.4 230.3 219.05 224.0 226.3 215.95 226.8 204.5 227.5 194.1 215.35 182.7 202.05 182.15 182.85 181.65 165.1 190.0 150.2 197.5 136.9 208.8 130.8 216.75 126.5 226.0 128.15 236.25 129.9 243.75 138.5 244.0 138.8 243.8 139.9 243.6 141.0 243.35 140.7 236.35 131.95 226.4 130.25"/><path fill="#0f141b" d="M240.7 169.5 L241.4 174.4 239.95 177.05 Q239.65 173.1 239.0 169.5 L241.95 164.05 Q244.95 158.7 245.85 157.45 246.05 157.15 246.4 158.2 246.7 159.25 246.45 159.65 L240.7 169.5"/><path fill="#0f141b" d="M230.3 170.1 Q227.3 164.9 222.85 164.1 217.75 163.2 212.45 168.45 206.5 174.3 205.35 183.75 204.4 191.45 207.8 199.2 211.45 207.6 217.4 208.5 221.45 209.15 224.8 207.0 227.75 205.1 229.95 201.15 L231.8 201.3 Q229.15 206.3 225.4 208.85 221.5 211.5 217.2 210.8 210.65 209.75 206.55 201.45 202.45 193.2 203.65 183.55 204.9 173.45 211.3 166.9 217.25 160.75 223.3 161.8 228.6 162.75 232.0 169.2 235.25 175.45 235.4 184.15 L233.65 182.65 Q233.2 175.25 230.3 170.1"/><path fill="#0f141b" d="M216.3 187.75 Q216.1 182.15 219.1 178.45 222.05 174.9 226.05 175.2 228.15 175.4 230.0 177.25 L232.7 180.75 Q234.1 182.75 236.7 184.1 239.3 185.5 242.0 185.65 242.35 185.7 242.3 186.55 242.25 187.4 241.9 187.35 238.85 187.15 235.85 185.55 232.85 183.95 231.3 181.7 L229.05 178.8 Q227.6 177.4 226.0 177.25 223.0 177.0 220.45 180.1 217.8 183.3 218.0 187.65 218.2 192.95 220.8 196.35 223.75 200.3 228.8 200.1 234.8 199.9 245.7 201.65 257.9 203.6 263.3 206.3 263.65 206.5 263.25 207.25 262.85 208.0 262.55 207.85 257.25 205.2 245.5 203.5 234.3 201.85 228.55 202.55 223.45 203.15 219.9 198.65 216.55 194.35 216.3 187.75"/><path fill="#0f141b" d="M285.85 196.05 Q285.8 195.7 286.9 195.1 288.0 194.55 288.05 194.9 289.05 199.3 287.2 204.3 284.95 210.45 279.4 211.65 273.4 212.95 268.75 210.2 263.85 207.35 262.55 201.2 262.5 200.85 263.6 200.7 264.75 200.55 264.8 200.9 266.1 206.9 270.35 209.15 274.0 211.05 279.05 209.95 283.3 209.05 285.2 204.9 287.0 200.95 285.85 196.05"/><path fill="#0f141b" d="M286.55 199.35 Q286.25 199.15 286.65 198.4 287.05 197.65 287.35 197.85 294.9 202.1 293.9 222.8 293.55 229.8 292.15 239.6 L290.15 253.05 Q289.75 256.25 287.9 256.75 286.1 257.2 284.15 254.6 273.95 240.95 267.65 228.85 260.3 214.75 261.3 208.05 261.5 206.75 262.4 205.35 263.25 204.1 264.15 203.4 264.45 203.2 264.95 203.9 265.4 204.6 265.15 204.8 263.95 205.65 263.65 207.65 262.7 213.6 269.0 226.75 275.25 239.9 285.55 253.6 286.55 254.9 287.35 254.8 288.2 254.7 288.5 252.8 291.3 231.6 291.65 225.5 292.85 202.9 286.55 199.35"/><path fill="#0f141b" d="M145.35 196.6 Q136.25 186.95 122.4 187.5 102.5 188.35 88.55 203.7 74.55 219.05 74.15 240.5 73.7 263.65 91.55 279.0 108.05 293.2 130.65 293.8 151.9 294.4 171.5 284.25 191.1 274.15 200.9 257.55 200.9 237.7 186.3 223.8 173.4 211.5 154.75 208.35 156.0 212.9 155.7 219.1 155.35 225.75 153.3 231.5 148.1 246.0 136.05 246.55 127.0 246.95 122.25 237.4 117.65 228.15 121.45 219.5 123.4 215.05 126.55 212.85 129.8 210.65 133.45 211.3 137.55 212.05 139.8 216.9 141.95 221.5 141.05 226.35 140.4 229.95 138.3 232.05 136.65 233.75 134.45 234.25 L132.1 234.15 Q130.95 233.75 130.3 233.0 129.45 231.9 129.75 231.3 130.0 230.7 130.8 231.85 131.8 233.25 133.75 232.85 135.5 232.5 136.95 230.8 138.55 228.9 139.1 225.95 139.85 221.6 138.4 217.9 136.85 213.95 133.6 213.35 130.1 212.75 127.1 215.1 124.6 217.1 123.1 220.45 119.35 228.85 124.25 236.95 128.9 244.65 136.0 244.35 144.0 244.0 148.75 236.4 153.55 228.85 153.55 216.6 153.55 205.3 145.35 196.6 M122.35 185.8 Q134.55 185.3 143.9 192.65 151.4 198.6 154.2 206.55 173.1 208.65 186.95 220.6 203.4 234.85 203.05 256.8 203.0 259.55 198.15 265.75 192.45 273.0 183.95 279.35 160.15 297.1 130.3 296.3 105.95 295.65 89.45 281.75 71.1 266.3 71.55 240.8 72.0 218.75 86.9 202.65 101.7 186.65 122.35 185.8"/><path fill="#0f141b" d="M131.8 295.05 Q131.75 294.7 133.05 294.3 L134.4 294.25 Q135.25 299.2 134.35 312.55 133.65 323.55 132.7 329.55 132.15 333.05 133.85 333.8 135.75 334.65 140.1 331.35 150.7 323.25 157.15 315.6 168.65 301.9 175.4 282.5 175.5 282.15 177.1 281.95 L178.55 282.05 Q172.3 300.15 161.8 313.4 154.05 323.15 142.05 332.3 136.35 336.65 133.25 335.95 130.1 335.2 131.0 329.3 131.9 323.35 132.2 311.05 132.45 298.9 131.8 295.05"/><path fill="#0f141b" d="M0.25 110.95 Q1.2 109.6 3.2 110.75 6.35 112.5 56.5 145.3 107.5 178.6 120.55 186.2 120.9 186.4 119.75 187.05 118.6 187.7 118.3 187.55 113.85 185.35 61.55 150.85 7.25 115.1 2.75 112.45 L2.1 112.35 Q1.85 112.45 2.3 112.95 9.85 120.9 44.95 154.9 83.6 192.4 91.8 198.9 L91.5 199.95 Q91.0 200.9 90.75 200.7 82.6 194.25 43.8 156.4 9.5 122.95 1.05 114.15 -0.65 112.35 0.25 110.95"/><path fill="#0f141b" d="M40.5 135.5 Q41.4 135.8 41.45 136.05 41.6 139.0 39.05 142.3 36.3 145.9 33.2 145.5 32.85 145.45 32.9 144.65 32.95 143.8 33.3 143.8 35.5 143.9 37.85 141.15 40.3 138.25 39.65 135.55 L40.5 135.5"/><path fill="#0f141b" d="M65.5 153.05 Q65.4 152.7 66.35 152.65 67.3 152.6 67.4 152.95 68.4 156.35 64.7 162.05 60.9 167.85 56.9 168.45 56.55 168.55 56.3 167.55 56.0 166.6 56.35 166.5 59.75 166.05 63.1 161.35 66.55 156.55 65.5 153.05"/><path fill="#0f141b" d="M93.6 171.45 Q93.55 171.1 94.5 171.2 95.45 171.3 95.5 171.65 96.7 179.5 91.75 186.35 87.65 192.1 83.3 193.1 82.95 193.2 82.75 192.35 82.6 191.55 82.95 191.45 86.95 190.5 90.65 185.0 95.0 178.45 93.6 171.45"/><path fill="#0f141b" d="M143.6 140.85 Q141.9 141.25 137.9 144.4 133.45 147.9 131.0 151.3 128.8 154.25 126.8 159.2 125.0 163.65 124.8 165.75 128.0 163.65 135.5 153.55 142.75 143.75 143.6 140.85 M137.65 142.65 Q143.1 138.7 144.8 139.5 147.3 140.6 136.4 155.05 125.45 169.55 123.85 167.45 122.85 166.05 125.0 159.8 127.1 153.75 129.6 150.3 132.4 146.45 137.65 142.65"/><path fill="#0f141b" d="M159.4 141.0 Q157.45 141.75 155.1 143.35 151.95 145.5 149.4 148.4 147.15 151.0 145.05 155.1 143.1 158.8 142.75 160.6 145.9 158.8 151.7 151.85 157.2 145.25 159.4 141.0 M148.1 147.3 Q151.5 143.4 156.1 140.95 160.4 138.65 161.55 139.5 163.15 140.75 153.1 152.35 143.05 163.95 141.55 162.35 140.35 161.15 143.05 155.5 145.5 150.3 148.1 147.3"/><path fill="#0f141b" d="M172.7 175.25 Q172.2 174.4 169.0 173.35 166.2 172.4 163.65 171.95 164.5 173.45 165.85 175.15 167.3 177.05 167.95 177.35 170.9 178.8 172.25 177.55 173.45 176.5 172.7 175.25 M167.7 178.95 Q166.55 178.4 163.8 174.85 161.1 171.3 161.45 170.8 162.3 169.8 167.95 171.55 173.5 173.25 174.15 174.4 174.65 175.2 174.6 176.45 174.6 177.75 173.9 178.5 171.75 180.85 167.7 178.95"/><path fill="#0f141b" d="M171.45 158.7 Q171.45 158.45 172.15 158.4 172.85 158.4 172.9 158.65 173.15 166.1 169.95 166.95 166.85 167.75 164.45 161.9 164.35 161.65 165.0 161.35 L165.75 161.4 Q167.8 166.35 169.75 165.5 171.7 164.6 171.45 158.7"/><path fill="#0f141b" d="M239.05 182.4 Q238.35 178.7 241.45 170.15 243.9 163.25 246.1 159.65 246.3 159.35 246.6 160.55 246.85 161.8 246.6 162.3 244.45 166.85 242.8 172.45 240.85 179.15 241.4 181.95 243.3 192.1 253.7 197.35 264.05 202.6 276.0 199.45 287.35 196.45 293.05 187.7 298.75 178.95 296.45 168.05 296.05 166.0 291.15 161.05 286.6 156.45 282.8 153.85 282.55 153.7 282.55 152.7 282.55 151.65 282.85 151.85 286.75 154.25 292.0 159.15 298.0 164.75 298.55 167.4 301.25 180.1 294.4 189.5 288.15 198.0 276.45 201.1 263.65 204.5 252.4 198.85 241.1 193.25 239.05 182.4"/><path fill="#0f141b" d="M232.4 3.1 Q232.05 2.35 231.5 2.5 230.9 2.6 230.95 3.35 231.75 13.05 239.8 90.3 247.9 167.75 248.35 169.8 249.75 176.45 257.25 178.8 264.05 181.0 271.8 178.6 277.55 176.9 280.8 171.75 283.5 167.45 283.8 162.3 283.6 157.55 259.4 83.55 235.95 11.7 232.4 3.1 M229.3 3.5 Q229.0 0.2 230.9 0.0 232.75 -0.2 234.0 2.6 236.85 9.0 260.9 81.7 285.6 156.45 285.8 161.3 285.5 169.8 279.85 175.35 274.8 180.3 267.2 181.5 259.85 182.7 254.0 179.95 247.7 177.0 246.3 170.8 L238.2 91.95 229.3 3.5"/><path fill="#0f141b" d="M246.05 42.05 Q246.1 41.7 246.7 42.65 247.3 43.55 247.2 43.8 245.95 47.05 241.5 48.15 237.0 49.25 234.3 46.8 234.0 46.5 234.35 45.45 234.7 44.35 234.85 44.7 236.1 47.45 240.75 46.45 245.45 45.4 246.05 42.05"/><path fill="#0f141b" d="M242.4 122.7 Q242.2 122.45 242.3 121.25 242.45 120.0 242.65 120.3 245.4 124.2 249.9 125.35 L258.45 125.05 Q262.75 123.7 265.8 120.6 269.0 117.35 269.55 113.3 269.65 112.95 270.45 113.05 271.3 113.2 271.25 113.55 270.7 117.7 267.45 121.4 264.3 124.95 259.85 126.7 249.25 130.95 242.4 122.7"/><path fill="#0f141b" d="M278.0 139.5 Q278.1 139.15 278.75 139.95 279.45 140.75 279.35 141.05 277.9 146.5 273.9 150.5 270.1 154.35 265.0 155.85 253.35 159.2 245.25 149.7 244.95 149.4 245.15 148.2 245.3 147.0 245.5 147.3 249.3 152.45 254.55 154.25 259.45 155.95 264.5 154.5 269.45 153.05 273.05 149.15 276.85 145.1 278.0 139.5"/><path fill="#0f141b" d="M258.15 79.1 Q258.15 78.75 258.95 79.6 259.7 80.45 259.65 80.8 258.2 86.9 250.35 88.8 242.85 90.55 238.75 87.15 238.45 86.9 238.55 85.75 238.7 84.65 238.95 84.95 240.35 86.85 243.55 87.4 L249.85 87.1 Q257.85 85.15 258.15 79.1"/></g></svg>