<?xml version='1.0' encoding='utf-8'?>
<svg xmlns="http://www.w3.org/2000/svg" version="1.1" width="390px" height="421px" viewBox="-0.25 -0.2 389.6 420.9"><g><path fill="#cbbd00" d="M328.1 26.95 Q335.85 24.65 340.75 24.15 342.85 23.9 343.65 24.75 344.3 25.45 344.2 27.15 344.05 32.75 344.35 35.75 344.55 38.5 346.35 39.7 353.15 43.8 354.7 44.35 356.5 45.05 357.15 46.05 357.7 46.85 357.7 48.2 L357.65 55.15 Q357.75 56.9 358.75 58.85 359.75 60.75 361.2 62.05 L372.55 71.2 363.55 83.0 Q361.6 84.4 356.55 86.55 352.0 88.5 349.7 89.1 L311.45 97.6 303.4 103.4 Q298.65 106.7 297.3 107.0 287.4 116.35 283.95 120.25 L283.9 124.45 283.5 127.45 282.4 129.2 280.55 131.35 Q281.15 137.95 279.6 140.55 279.05 142.3 276.75 146.45 274.9 149.8 273.65 154.3 272.35 158.95 272.15 163.05 272.1 164.85 271.25 166.2 L269.0 168.75 Q269.65 175.3 269.8 184.8 269.9 193.45 269.5 196.9 269.1 200.0 266.25 204.6 263.3 209.2 260.5 211.05 260.75 218.35 265.3 239.1 269.9 259.9 270.1 265.5 271.65 276.85 266.25 289.8 260.75 302.95 250.0 312.85 239.95 322.15 223.2 327.25 208.75 331.7 196.35 331.25 190.65 332.7 179.7 333.0 L162.8 332.5 Q173.4 324.6 180.2 313.15 187.9 300.2 189.9 283.9 192.3 264.15 184.1 249.65 176.55 236.3 165.0 234.8 168.4 256.9 151.8 286.8 145.6 297.9 137.6 308.3 130.95 317.0 125.7 321.8 122.25 325.0 119.85 324.0 117.75 323.1 115.0 318.05 103.8 313.05 83.5 296.95 67.25 284.0 57.25 274.15 55.4 272.35 53.95 269.95 53.0 268.4 51.4 265.0 47.85 262.55 45.35 259.75 43.25 257.35 41.2 253.85 35.1 243.55 25.05 223.5 14.35 202.2 13.5 197.9 12.7 193.65 12.55 182.55 12.4 172.55 12.8 166.75 13.2 160.6 15.65 153.45 18.7 144.65 23.4 139.35 26.35 151.1 31.25 163.25 37.15 178.0 43.1 185.6 44.95 186.55 47.35 189.4 55.4 198.65 66.5 208.45 79.45 219.9 87.5 223.6 90.45 223.1 94.35 225.15 96.15 226.1 104.65 229.0 L115.95 232.7 123.1 233.95 130.1 235.05 Q131.35 234.0 133.85 234.05 149.2 234.4 159.45 227.3 170.1 219.9 173.85 205.55 171.35 176.6 184.95 149.25 180.7 151.5 174.3 153.25 168.5 154.85 165.0 154.95 161.85 153.75 157.95 154.0 158.25 151.55 160.9 149.25 164.0 146.55 172.05 141.35 179.9 136.25 183.9 134.3 184.65 125.15 188.8 112.95 193.1 100.25 197.6 95.0 198.55 95.95 200.95 100.05 L205.0 107.5 Q207.9 101.95 212.9 94.8 217.35 88.45 220.95 84.25 221.7 76.35 225.35 67.75 228.8 59.65 232.15 56.65 233.35 60.4 236.2 65.1 238.9 69.55 241.5 72.2 242.8 69.6 245.55 65.35 248.05 59.25 251.85 53.5 255.35 48.2 258.85 44.7 L263.4 50.85 267.45 56.25 Q272.0 51.8 278.7 47.4 284.4 43.65 288.35 42.0 289.65 40.35 298.0 36.5 304.85 33.35 309.1 31.85 L311.9 31.6 315.1 32.1 Q319.45 29.45 328.1 26.95"/><path fill="#595649" d="M334.6 42.45 Q339.4 47.65 353.0 63.6 354.7 65.6 356.9 66.2 L363.6 68.0 Q369.2 69.65 371.5 70.55 376.2 74.25 376.9 79.5 377.55 84.25 375.05 92.35 374.8 93.15 374.2 93.25 373.5 93.4 372.85 92.5 365.9 83.25 362.25 81.95 353.65 78.9 349.0 80.7 337.9 72.3 329.05 64.9 326.6 59.35 327.05 52.55 327.45 45.85 330.35 42.7 332.5 40.25 334.6 42.45"/><path fill="#0d131a" d="M341.75 58.1 Q345.45 62.3 350.2 65.6 346.35 67.35 342.0 66.8 337.3 66.15 334.75 63.05 332.05 59.65 332.15 55.35 332.3 51.25 334.75 48.4 338.35 54.3 341.75 58.1"/><path fill="#b50029" d="M338.45 54.65 Q340.0 56.65 342.9 59.5 345.75 62.3 347.4 63.5 345.6 65.15 343.05 65.2 340.55 65.3 338.85 63.9 336.95 62.35 336.8 59.45 336.65 56.45 338.45 54.65"/><path fill="#cbbd00" d="M279.95 240.75 Q291.05 247.0 293.75 252.25 301.1 255.35 306.9 261.9 313.15 268.95 313.15 275.5 315.95 281.5 317.05 289.35 318.35 298.85 316.0 305.75 315.9 289.35 298.1 269.25 290.45 260.7 282.15 254.8 273.65 248.75 267.25 247.55 L264.3 234.65 Q269.45 234.75 279.95 240.75"/><path fill="#cbbd00" d="M272.75 158.3 Q276.55 162.95 278.5 166.2 279.35 167.6 279.35 168.6 279.35 169.65 278.4 170.8 L274.4 175.5 269.75 180.45 269.5 174.65 268.95 168.9 Q271.25 166.95 271.7 165.5 L272.15 161.95 Q272.3 159.35 272.75 158.3"/><path fill="#cbbd00" d="M356.15 193.75 Q361.2 195.7 363.0 200.45 361.55 202.65 361.25 205.5 360.95 208.6 362.15 211.85 357.8 215.45 352.7 216.05 347.3 216.7 342.8 213.8 341.65 215.4 339.0 215.9 336.1 216.45 332.8 215.25 329.15 213.9 323.55 213.45 L313.95 213.95 309.35 214.8 303.95 214.3 Q301.3 216.75 297.9 216.7 293.85 216.65 291.5 216.0 288.95 215.25 287.35 213.5 L282.65 214.1 Q279.9 214.1 278.7 212.8 277.0 210.9 274.15 209.1 270.45 206.75 265.8 205.25 268.9 199.95 269.6 194.55 270.15 190.45 269.75 180.45 278.6 188.75 284.2 190.55 L287.8 191.55 Q290.25 192.3 291.2 193.3 L296.5 193.0 Q299.9 193.55 301.75 196.05 306.35 193.5 312.35 193.85 L326.8 192.7 341.95 190.6 345.8 190.05 Q348.25 190.25 349.0 192.9 352.4 192.35 356.15 193.75"/><path fill="#595649" d="M289.25 22.65 Q293.45 23.55 298.45 25.85 304.45 28.5 308.5 31.85 L302.85 34.45 296.8 28.7 Q292.55 24.95 289.25 22.65"/><path fill="#595649" d="M211.4 196.45 Q208.95 192.45 209.25 187.0 209.55 182.1 211.75 178.55 213.95 174.95 221.2 170.2 227.45 166.1 233.35 163.65 239.1 166.75 246.0 175.45 251.55 182.55 254.1 187.95 255.15 190.2 256.35 190.15 257.5 190.1 258.25 188.2 259.9 184.0 263.45 177.65 266.75 171.8 268.95 168.9 269.7 177.0 269.9 184.45 270.15 193.05 269.5 196.9 268.35 203.65 260.5 211.05 260.5 216.0 265.15 237.7 269.9 259.9 270.1 265.5 267.55 256.35 261.25 249.55 255.85 243.7 252.2 243.55 245.1 243.3 226.05 254.75 210.8 263.95 197.6 274.3 208.55 258.85 211.9 239.3 215.15 220.3 211.4 196.45"/><path fill="#595649" d="M1.15 84.2 Q4.65 84.3 9.2 89.2 12.65 92.95 15.3 97.75 19.65 105.55 23.75 124.05 27.6 141.3 29.15 157.85 25.0 145.8 23.4 139.35 15.6 149.05 13.5 163.55 12.3 171.8 12.6 191.15 7.85 183.0 6.4 156.45 5.5 140.35 5.95 121.85 6.15 115.3 4.65 103.7 3.2 92.15 1.15 84.2"/><path fill="#595649" d="M80.7 392.85 L77.8 393.2 Q75.85 393.15 74.85 392.3 L74.55 377.5 Q74.85 376.45 75.9 376.0 L78.35 375.65 88.1 374.05 Q92.75 373.15 98.85 368.05 104.5 363.35 109.5 356.75 117.5 346.05 117.5 322.15 120.2 326.3 125.2 322.0 141.9 307.5 154.7 280.95 168.4 252.55 165.0 234.35 181.45 238.8 187.5 257.7 193.1 275.4 187.5 297.1 183.3 313.5 168.2 327.6 154.65 340.2 143.6 341.95 138.75 349.65 141.55 359.9 144.35 370.2 152.8 375.8 L154.8 377.3 Q155.65 378.15 155.75 379.25 L148.65 393.7 Q146.1 393.75 142.75 392.6 139.75 391.55 137.1 389.95 L124.65 390.35 122.1 390.75 Q120.7 391.15 119.3 392.4 L114.25 396.3 107.5 400.8 Q103.3 403.4 100.85 403.55 L91.3 390.55 85.35 391.6 80.7 392.85"/><path fill="#595649" d="M324.55 348.25 L325.9 363.05 Q322.75 365.0 316.05 361.15 313.5 359.7 310.15 359.3 307.5 359.0 305.1 359.35 306.0 360.0 309.45 360.8 312.3 361.45 313.0 362.8 L310.3 377.05 Q308.5 378.05 305.3 377.1 302.6 376.3 300.95 374.9 295.25 370.15 290.8 367.05 282.35 364.55 276.7 364.7 277.0 365.85 276.75 367.7 276.5 369.6 275.95 370.4 L263.9 373.95 Q262.15 373.8 260.65 371.6 259.65 370.05 259.05 368.15 258.5 366.15 256.45 362.15 255.05 359.35 255.65 356.05 256.25 352.7 258.7 349.65 260.9 346.9 261.9 341.8 262.6 338.2 262.6 334.4 262.6 331.95 259.9 328.0 257.65 324.7 254.1 321.2 257.95 322.3 262.15 322.6 L266.95 322.25 Q270.15 319.45 270.85 310.25 271.65 299.15 266.95 288.0 268.9 281.8 269.75 276.1 270.6 270.15 269.95 266.45 270.05 262.35 269.2 256.55 268.4 251.15 267.25 247.55 276.9 250.45 286.65 258.05 296.15 265.45 303.4 275.4 310.85 285.65 314.05 296.0 317.5 307.15 315.2 316.3 313.3 324.0 307.0 327.75 301.9 330.8 296.15 330.4 L289.7 330.95 289.7 336.55 Q297.15 341.8 303.8 344.1 310.9 346.55 318.4 346.2 323.45 345.95 324.55 348.25"/><path fill="#b50029" d="M318.6 30.35 L314.95 32.4 Q311.05 31.1 308.5 31.85 304.05 28.4 298.25 25.8 293.2 23.55 289.7 22.95 L274.25 11.85 258.6 1.0 Q267.4 2.05 289.7 13.6 308.7 23.4 318.6 30.35"/><path fill="#b50029" d="M376.6 87.2 Q379.95 90.75 383.1 96.65 387.2 104.3 388.35 111.8 L381.65 102.2 Q377.45 96.35 374.75 93.45 L376.6 87.2"/><path fill="#b50029" d="M365.05 200.9 Q368.45 203.05 372.2 207.85 375.9 212.5 376.8 215.65 373.0 213.5 364.45 212.55 L362.7 212.2 Q361.9 211.75 361.55 210.1 360.65 206.1 362.3 201.85 363.15 199.75 365.05 200.9"/><path fill="#b50029" d="M360.75 213.1 L361.65 219.2 362.35 225.2 356.65 221.2 Q352.45 218.0 350.75 216.1 352.7 216.3 355.65 215.4 358.6 214.5 360.75 213.1"/><path fill="#b50029" d="M69.65 393.25 L45.2 394.8 Q50.6 389.2 59.35 384.2 65.9 380.45 72.6 377.9 75.95 376.65 77.9 377.85 79.6 378.85 79.65 381.2 79.8 385.0 78.15 389.1 76.6 392.85 69.65 393.25"/><path fill="#b50029" d="M90.9 391.2 Q94.8 387.45 98.2 387.55 101.9 387.65 103.2 392.45 104.5 397.35 102.75 400.8 101.2 403.75 97.15 406.0 L86.2 412.0 Q77.25 416.95 72.9 419.9 74.85 412.75 81.15 403.4 86.3 395.65 90.9 391.2"/><path fill="#b50029" d="M150.4 395.05 Q146.5 393.3 146.15 387.0 145.75 380.55 149.85 378.95 155.5 376.7 161.35 385.3 166.3 392.65 169.35 404.2 162.2 400.4 150.4 395.05"/><path fill="#b50029" d="M276.0 371.9 Q276.2 376.9 275.3 382.85 274.55 388.25 273.25 392.35 271.7 390.2 268.7 384.45 266.0 379.35 264.2 375.3 262.6 371.8 264.1 367.9 265.55 364.1 268.6 363.55 271.65 363.05 273.75 365.4 275.85 367.8 276.0 371.9"/><path fill="#b50029" d="M327.05 373.3 Q333.0 380.05 336.45 386.9 318.8 380.3 314.05 378.85 306.6 376.55 307.3 366.55 307.45 364.6 308.55 363.6 309.65 362.55 311.5 362.85 318.8 363.95 327.05 373.3"/><path fill="#b50029" d="M350.15 367.4 Q346.55 366.45 339.05 365.25 L327.45 363.6 Q323.0 363.05 320.85 356.55 318.7 350.0 322.65 348.5 326.25 347.15 336.8 355.1 346.0 362.1 350.15 367.4"/><path fill="#ffffff" d="M338.25 56.5 Q338.55 56.2 339.0 56.3 339.45 56.35 339.8 56.7 L340.3 57.7 Q340.35 58.2 340.0 58.5 L339.2 58.65 Q338.75 58.5 338.4 58.15 L338.0 57.3 Q337.95 56.8 338.25 56.5"/><path fill="#0d131a" d="M343.15 59.3 Q343.6 59.8 343.55 60.6 343.5 61.5 342.75 62.25 342.05 62.95 341.25 63.0 340.4 63.05 339.85 62.5 339.35 61.95 339.45 61.1 339.55 60.25 340.2 59.55 340.85 58.85 341.75 58.8 342.6 58.75 343.15 59.3"/><path fill="#3e392d" d="M274.7 295.6 Q279.45 302.1 285.9 307.3 301.25 319.65 314.75 316.8 312.7 323.45 308.05 327.05 303.5 330.55 298.0 330.15 L293.9 330.3 289.85 331.0 289.75 336.55 284.8 337.15 Q280.65 337.5 278.6 337.1 L273.5 337.35 Q270.75 338.15 269.6 339.75 268.3 341.55 265.15 344.3 261.7 347.25 259.65 348.1 261.55 344.95 262.35 339.75 263.05 335.3 262.6 333.5 262.1 331.5 259.6 327.45 256.5 322.55 253.75 320.95 248.6 319.45 244.45 317.5 253.2 310.5 259.45 302.2 266.95 292.3 268.45 283.35 270.0 289.1 274.7 295.6"/><path fill="#9f9500" d="M257.9 304.5 Q265.6 295.05 267.15 287.3 271.35 296.05 271.0 308.25 270.65 319.75 267.15 322.0 264.8 323.55 256.15 321.5 248.4 319.7 244.15 317.4 251.15 312.85 257.9 304.5"/><path fill="#3e392d" d="M257.2 363.05 Q258.2 364.65 260.0 366.3 262.7 368.7 264.0 368.05 263.3 371.2 263.75 373.65 262.7 373.5 261.35 371.85 260.1 370.4 259.75 369.15 258.6 365.85 257.2 363.05"/><path fill="#3e392d" d="M272.95 364.2 Q273.7 363.5 274.0 361.9 274.35 360.2 274.15 358.1 L276.35 364.05 Q277.55 368.25 275.85 370.05 275.75 368.8 274.95 367.1 274.05 365.3 272.95 364.2"/><path fill="#3e392d" d="M273.8 355.5 Q275.55 357.7 278.8 359.9 281.85 361.95 284.35 362.8 L289.95 366.4 283.35 365.35 276.8 364.85 275.15 360.7 Q273.85 357.25 273.8 355.5"/><path fill="#3e392d" d="M284.85 363.1 Q288.75 363.55 297.65 368.15 305.8 372.4 307.25 372.1 308.2 375.35 310.25 376.75 307.2 378.75 302.2 375.55 L294.55 370.0 284.85 363.1"/><path fill="#3e392d" d="M296.45 352.6 Q300.1 352.75 306.1 354.25 311.3 355.55 313.8 356.65 317.5 358.35 321.35 358.25 323.2 361.3 325.75 362.9 324.15 364.0 321.25 363.45 318.9 362.95 316.85 361.7 314.65 360.35 311.9 359.65 L305.2 359.4 Q300.1 356.6 296.45 352.6"/><path fill="#3e392d" d="M137.75 307.05 Q153.25 308.1 169.8 300.35 186.85 292.45 190.05 281.8 188.8 302.35 174.95 320.2 161.15 338.05 143.6 341.95 140.25 346.85 140.4 353.7 140.45 359.85 143.15 364.95 L135.1 365.2 Q130.5 366.25 127.9 368.25 125.2 370.3 122.1 370.05 118.85 369.8 118.55 366.95 118.25 363.8 116.05 359.9 113.65 355.7 111.2 354.85 114.65 348.6 116.4 338.45 118.1 328.85 117.35 321.8 118.8 324.45 120.95 324.45 123.2 324.45 125.85 321.65 L133.2 313.85 Q135.65 311.0 137.75 307.05"/><path fill="#3e392d" d="M79.25 385.85 L85.85 386.15 Q89.4 385.85 91.05 385.2 L98.7 382.9 Q105.3 380.8 107.45 378.95 106.2 381.2 100.8 384.25 95.4 387.35 95.15 387.75 L92.1 390.1 81.45 392.6 Q76.6 394.15 75.0 392.2 78.85 389.6 79.25 385.85"/><path fill="#3e392d" d="M118.95 386.6 Q120.5 385.9 123.0 385.95 128.5 386.15 129.95 383.95 131.0 382.5 132.7 382.5 134.2 382.5 135.25 383.55 137.35 385.65 140.4 387.25 143.2 388.7 146.15 389.4 146.55 390.8 148.15 393.3 146.05 393.4 142.5 392.3 139.0 391.2 136.6 389.75 L124.9 390.2 Q122.0 390.55 119.35 392.6 L113.35 396.95 Q108.4 400.4 106.85 401.3 102.95 403.55 100.85 403.55 102.4 401.6 102.95 399.85 L103.55 396.45 Q106.95 395.45 110.35 393.45 113.75 391.45 115.35 389.5 117.1 387.35 118.95 386.6"/><path fill="#8f001a" d="M364.75 212.45 Q362.95 212.55 362.2 211.6 361.0 210.15 361.4 206.2 364.95 207.45 368.5 209.4 373.2 212.0 376.15 214.95 L369.7 213.25 364.75 212.45"/><path fill="#8f001a" d="M357.9 214.7 Q360.35 219.5 361.75 224.9 L356.05 220.6 350.75 216.1 Q354.2 216.1 357.9 214.7"/><path fill="#8f001a" d="M45.15 394.75 Q52.65 392.1 62.8 389.1 74.45 385.65 79.55 384.8 79.1 388.25 77.2 390.45 75.0 393.0 71.35 393.15 L45.15 394.75"/><path fill="#8f001a" d="M102.6 400.4 Q101.1 404.15 97.75 405.75 94.5 407.4 86.45 411.95 78.55 416.4 73.25 419.6 78.05 413.0 87.8 404.0 97.65 394.85 103.25 391.85 104.05 396.65 102.6 400.4"/><path fill="#8f001a" d="M147.25 381.65 Q151.8 384.0 159.1 391.45 166.3 398.8 169.0 403.7 165.45 401.9 159.25 399.05 L151.0 395.4 Q148.25 394.25 146.9 390.4 145.35 386.05 147.25 381.65"/><path fill="#8f001a" d="M273.5 365.2 Q276.3 367.6 275.8 377.3 275.4 385.6 273.35 392.25 268.95 385.95 266.2 380.0 262.4 371.7 264.3 368.45 265.4 373.25 267.45 377.4 269.5 381.5 272.1 384.3 273.75 380.35 274.1 374.5 274.4 369.15 273.5 365.2"/><path fill="#8f001a" d="M307.45 371.55 Q316.4 374.0 323.5 377.7 330.65 381.4 336.85 386.9 L323.6 382.1 Q315.7 379.15 313.9 378.75 311.65 378.2 309.8 376.05 308.05 374.05 307.45 371.55"/><path fill="#8f001a" d="M329.3 363.85 Q326.35 363.55 323.9 361.75 321.35 359.9 320.85 357.5 327.05 357.95 335.45 360.8 343.75 363.6 349.0 366.95 332.55 364.15 329.3 363.85"/><path fill="#9f9500" d="M328.35 64.9 Q327.5 66.25 326.5 66.55 325.15 66.95 321.4 66.0 317.9 65.1 315.55 63.95 313.05 62.9 309.9 60.4 307.25 58.25 306.0 56.7 L308.0 56.9 Q309.45 56.8 310.55 56.25 313.15 58.35 318.5 60.95 323.9 63.6 328.35 64.9"/><path fill="#3e392d" d="M368.9 87.75 Q365.6 84.2 364.0 82.9 367.05 85.05 371.25 84.85 375.75 84.65 376.85 81.5 376.85 84.5 376.45 87.35 376.05 90.35 375.4 91.8 374.1 94.5 372.75 92.3 L368.9 87.75"/><path fill="#9f9500" d="M348.8 80.35 Q352.1 79.6 356.55 80.35 360.75 81.05 363.4 82.65 360.95 84.7 356.85 86.5 353.2 88.15 349.65 89.0 349.05 87.25 348.85 84.45 348.65 82.15 348.8 80.35"/><path fill="#9f9500" d="M232.0 56.5 Q232.95 60.2 236.1 65.45 238.85 70.0 241.3 72.7 240.2 74.55 238.45 79.4 236.35 79.2 233.5 79.95 230.45 80.8 228.15 82.3 228.1 77.9 229.5 68.7 230.85 60.0 232.0 56.5"/><path fill="#9f9500" d="M202.2 113.0 Q200.6 116.45 200.1 118.5 L199.15 107.95 197.7 94.95 Q201.95 100.95 205.0 107.65 203.55 110.15 202.2 113.0"/><path fill="#9f9500" d="M199.35 126.55 L201.75 123.55 Q205.3 134.2 214.35 145.45 222.8 155.9 233.25 163.55 L228.45 165.7 Q220.35 159.9 212.35 150.1 202.15 137.7 199.35 126.55"/><path fill="#9f9500" d="M191.35 138.1 Q187.75 144.2 185.3 148.95 182.15 150.85 175.4 152.85 168.7 154.8 164.75 155.0 L161.5 154.2 Q159.5 153.95 158.1 154.15 158.0 152.7 159.15 151.05 160.3 149.3 162.4 147.9 168.0 145.15 176.25 142.4 183.95 139.85 191.35 138.1"/><path fill="#9f9500" d="M272.4 163.65 Q276.35 169.75 277.1 172.1 273.6 176.75 269.8 179.85 269.55 173.1 269.1 168.7 L271.05 166.6 Q272.15 165.15 272.4 163.65"/><path fill="#9f9500" d="M253.55 263.4 Q260.75 257.0 260.85 249.6 L266.15 258.0 Q269.75 264.05 270.05 266.45 271.05 274.7 267.85 284.9 263.85 297.75 254.2 308.45 244.6 319.25 227.55 325.7 211.4 331.8 196.1 331.4 190.55 333.05 179.35 333.25 L163.0 332.4 Q174.5 325.45 182.45 309.2 189.05 295.65 189.8 284.6 L195.4 277.9 Q203.65 279.55 214.85 278.25 226.05 277.0 236.25 273.2 247.15 269.15 253.55 263.4"/><path fill="#3e392d" d="M255.95 218.15 Q252.9 205.1 249.0 205.0 250.2 203.55 253.6 205.15 257.35 206.95 260.55 211.3 260.8 216.25 262.95 228.05 264.9 238.55 266.25 243.55 267.45 247.95 268.5 254.1 269.6 260.6 269.9 265.7 267.65 257.05 260.45 248.6 258.35 228.55 255.95 218.15"/><path fill="#9f9500" d="M12.55 177.55 Q15.85 193.35 23.45 206.5 31.4 220.25 41.95 227.45 50.15 240.7 63.8 250.55 78.45 261.1 92.35 262.2 96.3 264.5 103.15 265.3 L113.7 264.9 Q109.55 271.6 108.85 280.8 108.2 289.75 111.05 296.35 110.35 300.5 111.05 306.05 111.95 312.6 114.5 317.25 103.65 312.2 84.2 297.1 70.4 286.3 59.45 276.35 56.6 273.75 55.1 271.8 53.1 269.2 51.6 265.5 L47.0 261.75 Q44.75 259.6 43.25 257.15 36.2 245.6 27.05 228.0 18.15 210.85 15.1 203.2 13.35 198.85 12.65 192.4 11.85 185.35 12.55 177.55"/><path fill="#9f9500" d="M125.1 322.15 Q122.5 324.15 120.75 324.25 118.85 324.3 117.4 322.3 112.55 315.7 111.0 307.65 109.5 300.0 111.2 292.95 117.0 307.55 138.25 307.05 L131.1 316.2 Q127.7 320.15 125.1 322.15"/><path fill="#9f9500" d="M270.05 185.35 Q272.95 195.5 277.25 200.95 278.35 202.4 279.8 202.9 L283.35 203.2 Q283.7 209.85 286.8 213.45 284.5 214.2 282.5 214.25 279.65 214.35 278.65 212.85 277.55 211.3 273.1 208.8 269.1 206.55 265.9 205.45 268.6 200.25 269.4 196.45 270.15 192.8 270.05 185.35"/><path fill="#9f9500" d="M284.75 209.9 Q282.45 205.35 284.2 201.55 285.6 205.35 290.65 207.35 295.75 209.35 298.5 207.1 298.5 209.45 300.25 211.4 301.8 213.2 304.35 214.15 300.6 216.9 298.25 216.9 292.25 216.9 290.45 215.95 286.8 213.95 284.75 209.9"/><path fill="#9f9500" d="M324.8 213.65 Q318.55 212.9 315.05 213.75 307.25 215.65 303.35 213.9 299.1 212.05 298.05 205.45 300.15 208.1 303.45 209.25 L310.5 209.55 Q316.6 207.9 319.45 207.6 L326.65 208.15 Q330.15 208.9 333.35 208.2 336.4 207.55 338.55 205.75 339.0 210.8 342.95 213.75 341.85 215.4 339.2 215.8 L334.55 215.5 Q329.85 214.2 324.8 213.65"/><path fill="#9f9500" d="M338.6 202.35 Q340.15 207.65 348.4 208.95 356.75 210.25 361.0 205.45 361.0 209.6 361.95 212.05 359.05 214.45 354.55 215.55 L347.45 215.95 Q343.25 214.95 340.8 211.75 337.95 208.0 338.6 202.35"/><path fill="#3e392d" d="M242.45 177.7 Q235.1 169.65 227.9 165.9 L233.25 163.55 Q239.0 167.45 245.05 174.65 251.2 181.95 254.25 188.55 254.95 190.05 255.95 190.15 257.05 190.3 257.95 188.65 L262.95 179.0 Q266.85 171.5 269.1 168.7 269.6 174.4 269.75 183.45 269.85 193.35 269.3 196.9 268.85 199.75 266.5 203.85 264.45 207.5 262.35 209.65 261.5 210.5 260.25 210.35 259.15 210.15 258.7 209.4 L256.95 207.25 Q255.75 206.1 254.7 205.45 255.4 203.25 254.75 198.9 254.05 194.5 252.5 191.55 248.95 184.75 242.45 177.7"/><path fill="#9f9500" d="M259.1 54.45 Q258.95 48.6 259.7 45.45 265.2 53.65 267.3 56.05 265.4 55.05 263.0 54.6 L259.1 54.45"/><path fill="#3e392d" d="M5.95 139.0 Q6.15 131.05 5.95 121.9 5.6 108.35 4.4 101.4 6.35 104.95 7.5 111.3 8.15 115.2 8.9 123.4 L10.5 148.75 Q11.8 169.05 12.55 171.9 11.65 176.1 11.95 188.7 8.3 180.65 6.75 161.45 5.7 148.45 5.95 139.0"/><path fill="#9f9500" d="M255.75 98.0 L259.3 96.4 263.6 94.25 Q268.85 89.35 276.8 86.1 282.65 83.65 291.4 81.65 298.15 88.55 311.35 97.55 L297.2 107.5 Q295.15 108.7 283.8 119.9 283.7 120.1 283.95 122.85 284.15 125.75 283.8 127.3 283.6 128.25 282.75 129.3 281.8 130.5 280.4 131.1 280.7 132.25 280.8 135.4 280.85 139.25 280.1 140.3 278.55 142.5 276.9 145.65 275.15 148.95 274.3 151.35 270.8 154.85 267.7 160.95 265.25 165.6 263.0 165.5 260.45 165.35 256.65 159.15 251.05 149.95 247.9 138.9 L243.85 123.3 Q243.0 120.05 246.9 112.65 249.25 108.1 255.75 98.0"/><path fill="#0d131a" d="M285.75 45.15 Q286.65 41.0 290.1 39.25 292.85 37.8 299.25 34.8 306.65 31.35 309.05 30.55 L311.3 30.2 Q312.1 30.25 313.5 30.85 L316.05 32.0 314.35 32.95 311.25 32.25 309.4 32.5 Q307.1 33.3 300.0 36.8 L291.2 41.25 Q289.6 42.1 288.95 42.85 288.2 43.8 287.8 45.65 285.0 58.85 286.0 73.45 287.5 94.1 297.1 105.7 297.55 106.3 298.35 105.85 L304.45 101.55 311.0 96.9 312.75 98.3 305.7 103.0 298.75 107.5 297.35 107.95 Q296.65 107.85 295.9 107.0 287.1 97.1 284.4 79.75 281.75 62.9 285.75 45.15"/><path fill="#0d131a" d="M289.1 40.55 L287.5 43.65 Q282.7 45.5 276.45 50.1 270.7 54.25 266.35 58.75 261.85 63.3 260.6 73.5 259.4 83.65 262.5 89.85 270.3 105.55 273.3 113.85 L275.25 120.25 Q276.05 123.6 276.2 127.35 279.85 122.65 286.55 116.0 291.85 110.7 296.4 106.75 L298.9 107.2 Q294.8 110.5 287.95 117.35 281.55 123.7 276.4 129.55 L275.35 130.2 Q274.95 130.05 274.85 129.15 273.95 121.05 271.5 114.4 268.9 107.25 260.6 90.55 257.15 83.65 258.25 73.4 259.35 62.65 264.75 57.15 269.35 52.45 276.25 47.65 283.75 42.4 289.1 40.55"/><path fill="#0d131a" d="M309.0 31.6 L310.75 31.55 Q306.75 35.35 305.75 42.45 304.8 49.1 306.75 56.25 307.35 58.35 315.05 63.1 316.3 63.85 316.1 64.2 315.9 64.55 314.6 63.9 311.5 62.4 308.9 60.45 306.05 58.3 305.55 56.7 303.15 49.1 304.1 42.3 305.05 35.55 309.0 31.6"/><path fill="#0d131a" d="M304.0 33.8 L302.05 34.9 Q294.45 27.55 279.65 16.65 267.75 7.95 257.65 1.55 256.45 0.8 256.65 0.3 256.85 -0.2 258.25 0.1 268.85 2.2 291.7 13.75 312.4 24.2 319.8 29.95 L317.3 31.15 Q309.85 25.5 292.85 16.35 273.4 5.9 262.15 2.7 292.0 22.05 304.0 33.8"/><path fill="#0d131a" d="M309.8 31.4 L308.05 32.4 300.0 27.4 Q294.6 24.5 290.05 23.2 L287.95 21.4 Q294.6 22.8 299.65 25.2 304.15 27.3 309.8 31.4"/><path fill="#0d131a" d="M373.75 94.2 L375.25 92.6 Q382.3 100.9 388.0 110.85 385.9 104.1 382.45 97.75 379.4 92.25 375.95 88.0 L376.6 85.25 Q380.75 90.4 384.25 97.4 387.9 104.7 389.0 110.4 389.35 112.4 388.9 112.7 388.4 113.05 387.05 111.15 380.6 102.05 373.75 94.2"/><path fill="#0d131a" d="M363.1 82.1 L364.3 83.4 Q361.9 85.4 357.8 87.25 353.45 89.3 349.8 89.85 L349.35 88.2 Q358.35 85.6 363.1 82.1"/><path fill="#0d131a" d="M258.5 43.15 L259.85 45.4 Q253.75 51.45 248.25 61.5 L243.35 68.45 Q245.35 62.3 249.8 54.9 254.2 47.55 258.5 43.15"/><path fill="#0d131a" d="M252.15 57.95 Q240.45 71.75 236.35 89.8 234.7 97.0 235.1 102.5 235.55 109.35 239.1 114.6 243.05 120.45 247.95 127.15 L256.05 137.65 Q262.4 145.4 264.3 149.7 267.6 144.55 272.55 138.45 277.95 131.8 281.5 128.75 282.55 127.85 282.7 126.5 L283.25 120.85 284.85 118.95 284.8 123.0 284.6 127.0 Q284.4 128.75 283.0 129.95 279.5 133.0 273.8 139.9 268.8 145.95 264.75 151.75 263.85 152.95 263.25 151.65 261.95 148.45 259.55 145.1 258.4 143.45 254.65 138.95 251.35 134.95 246.4 128.35 241.2 121.3 237.4 115.65 230.6 105.6 234.4 89.35 238.9 69.25 251.35 57.25 252.15 56.5 252.5 56.85 252.8 57.2 252.15 57.95"/><path fill="#0d131a" d="M258.3 54.45 Q259.0 53.7 259.35 53.95 259.7 54.2 259.15 55.05 254.2 62.8 253.15 66.6 252.7 68.4 252.85 75.95 252.95 82.45 253.3 86.2 253.6 89.9 255.9 94.4 257.85 98.35 264.45 109.55 266.95 113.7 269.7 120.45 272.5 127.4 273.85 132.95 274.15 134.2 273.7 134.3 273.25 134.45 272.85 133.25 268.35 119.7 262.8 110.5 257.45 101.65 254.15 95.15 251.7 90.25 251.35 86.35 251.0 82.05 250.8 75.75 250.55 67.85 251.05 66.05 251.5 64.25 253.6 60.8 255.9 56.9 258.3 54.45"/><path fill="#0d131a" d="M231.75 58.05 Q228.05 62.7 225.0 70.7 222.35 77.7 221.45 83.55 L219.95 85.45 Q221.45 66.9 231.35 55.8 232.3 54.7 232.8 55.95 234.3 60.0 236.6 64.2 239.3 69.2 241.65 71.65 L240.85 73.1 Q237.25 69.35 235.2 65.9 233.25 62.6 231.75 58.05"/><path fill="#0d131a" d="M231.1 57.2 L232.5 57.45 Q231.05 62.45 230.0 69.55 229.1 75.5 228.7 81.2 228.6 82.55 228.1 82.55 227.6 82.5 227.6 81.15 227.75 75.95 228.55 69.85 229.55 62.4 231.1 57.2"/><path fill="#0d131a" d="M281.3 138.9 Q281.05 140.65 279.65 141.65 274.6 145.1 270.9 148.8 270.05 149.65 269.7 149.35 269.35 149.05 270.1 148.1 273.6 143.85 278.4 140.2 279.45 139.45 279.5 138.25 L279.6 131.7 281.5 130.0 Q281.75 135.3 281.3 138.9"/><path fill="#0d131a" d="M223.05 83.0 Q217.75 88.9 211.25 99.1 205.1 108.8 202.45 115.15 201.6 117.25 201.65 118.5 201.7 119.75 202.8 123.15 205.75 132.05 213.2 142.25 220.7 152.5 228.75 158.6 239.25 166.55 244.9 172.55 251.75 179.9 255.6 188.45 255.85 189.0 256.3 188.9 L257.15 188.05 259.35 183.55 261.55 178.95 Q263.95 174.55 265.45 172.25 267.55 169.1 270.05 166.55 271.3 165.3 271.25 163.8 271.2 159.2 272.65 153.95 274.2 148.55 276.75 144.55 L278.6 140.95 281.15 139.35 Q280.5 142.25 278.6 145.3 276.05 149.3 274.5 154.4 272.9 159.6 272.95 163.9 273.0 164.95 272.65 165.8 L271.1 167.95 Q268.95 170.15 267.1 173.0 265.75 175.15 263.15 180.0 L260.7 185.1 258.4 189.7 Q255.75 193.95 253.65 189.3 249.95 181.05 243.0 173.85 237.65 168.35 226.9 160.2 218.25 153.6 210.8 143.5 203.35 133.35 200.3 123.9 199.05 120.2 199.0 118.45 198.95 116.75 200.05 114.15 202.95 107.3 209.3 97.85 216.4 87.3 222.3 82.2 223.3 81.4 223.6 81.7 223.9 82.05 223.05 83.0"/><path fill="#0d131a" d="M196.8 94.1 L198.35 94.05 Q201.8 98.85 205.5 106.6 L204.35 108.15 Q200.8 100.95 197.6 96.4 193.5 101.85 189.8 113.5 186.35 124.25 185.1 134.05 L183.1 134.75 Q184.2 123.7 188.25 111.65 192.3 99.6 196.8 94.1"/><path fill="#0d131a" d="M196.9 95.15 L198.45 95.3 Q199.9 103.55 200.0 112.1 200.05 113.25 199.55 113.25 199.05 113.3 198.95 112.15 198.5 105.6 196.9 95.15"/><path fill="#0d131a" d="M124.25 232.85 Q128.0 233.1 131.3 234.3 134.9 235.6 137.15 237.75 L135.65 238.8 Q133.25 236.95 130.3 236.1 127.9 235.4 124.1 235.15 117.85 234.7 107.65 231.4 99.45 228.7 92.15 225.45 90.45 224.7 88.4 224.7 L86.6 222.7 Q89.85 222.05 92.65 223.25 100.7 226.95 108.35 229.4 117.65 232.4 124.25 232.85"/><path fill="#0d131a" d="M186.8 143.8 Q194.85 129.05 201.25 121.85 L202.1 124.3 Q195.85 131.5 188.4 145.5 181.65 158.3 178.95 166.8 174.55 180.7 174.55 203.95 174.55 205.35 175.85 207.35 179.7 213.1 191.7 219.4 203.95 225.85 213.55 226.75 L213.35 228.4 Q202.25 227.4 190.05 221.1 178.4 215.1 173.65 208.6 172.2 206.65 172.2 204.0 172.2 180.25 176.7 166.0 179.35 157.5 186.8 143.8"/><path fill="#0d131a" d="M248.0 243.25 L253.15 242.8 Q255.4 243.15 257.75 244.85 262.15 248.05 266.75 255.45 271.75 263.55 271.55 268.6 270.55 297.65 249.2 315.05 229.8 330.85 199.4 333.05 195.25 333.3 193.5 331.25 186.1 322.9 177.2 317.2 L178.55 315.3 Q187.7 321.1 195.3 328.9 196.8 330.4 199.35 330.15 231.0 327.9 249.55 311.55 268.05 295.15 269.0 268.55 269.2 263.75 264.7 256.25 260.5 249.2 256.4 246.25 254.5 244.85 252.75 244.55 L248.55 244.95 Q240.05 247.35 225.15 256.35 209.3 265.95 195.85 277.35 L198.55 272.55 Q211.85 261.65 226.25 253.3 239.4 245.7 248.0 243.25"/><path fill="#0d131a" d="M130.75 235.25 L128.8 234.45 Q130.45 232.8 133.35 233.05 148.2 234.3 159.6 225.8 170.9 217.4 172.85 203.95 L174.65 207.4 Q172.5 220.4 160.4 228.4 148.35 236.35 133.3 234.85 L130.75 235.25"/><path fill="#0d131a" d="M208.2 190.35 Q207.25 183.9 210.15 178.95 212.6 174.7 218.75 170.3 225.0 165.75 232.55 162.95 L234.4 164.45 Q226.9 167.3 220.6 171.75 214.4 176.1 212.1 180.05 209.55 184.45 210.55 190.3 211.5 196.05 215.5 200.5 219.9 205.35 224.35 206.65 228.8 207.9 234.6 206.0 245.9 202.25 252.3 203.75 256.85 204.85 259.8 209.15 260.4 210.0 261.65 208.85 263.75 206.8 265.9 203.05 268.1 199.15 268.45 196.6 269.05 192.2 268.85 182.8 268.65 174.6 268.1 169.85 L269.4 168.4 Q270.15 174.45 270.55 182.5 270.95 192.3 270.3 197.0 269.85 200.1 267.2 204.4 264.65 208.5 261.95 210.7 260.8 211.7 260.05 211.7 259.4 211.75 258.9 211.0 255.7 206.35 251.25 205.5 245.7 204.35 235.05 207.9 228.85 209.95 224.25 208.9 218.85 207.6 213.7 201.9 209.2 196.85 208.2 190.35"/><path fill="#0d131a" d="M202.4 179.0 Q200.55 180.4 198.8 181.1 L195.25 181.95 193.95 181.85 Q193.8 181.55 194.9 181.2 198.4 180.1 201.6 177.7 202.6 176.9 203.05 177.55 203.5 178.2 202.4 179.0"/><path fill="#0d131a" d="M176.7 137.35 Q186.0 131.95 193.0 129.8 L194.25 129.9 Q194.45 130.35 193.35 130.8 186.2 133.7 177.7 138.85 168.7 144.25 161.25 150.25 159.25 151.9 159.1 154.05 L156.65 154.3 Q157.1 150.95 159.65 148.9 167.4 142.65 176.7 137.35"/><path fill="#0d131a" d="M369.45 212.45 Q372.9 213.2 375.7 214.35 373.8 210.4 370.1 206.5 366.8 203.0 364.05 201.5 363.5 201.15 363.2 201.8 362.15 203.8 362.0 206.45 361.8 208.9 362.45 210.6 362.85 211.6 363.6 211.6 L369.45 212.45 M376.8 213.45 Q377.7 215.35 377.25 215.9 L375.25 215.75 Q369.85 213.75 363.1 213.3 361.45 213.25 360.65 211.2 359.85 209.05 360.3 205.7 360.7 202.35 362.0 200.5 363.05 199.05 364.45 199.75 367.6 201.3 370.95 204.9 374.55 208.75 376.8 213.45"/><path fill="#0d131a" d="M341.2 195.3 Q345.4 191.7 351.85 191.8 356.0 191.85 359.25 194.1 362.35 196.3 364.0 200.1 L362.4 201.05 Q360.85 197.5 358.1 195.65 355.4 193.8 351.8 193.8 346.55 193.8 343.2 196.55 339.65 199.45 339.65 204.15 339.65 209.2 342.9 212.2 345.85 214.95 350.25 215.05 352.95 215.15 356.2 214.1 359.8 212.95 361.55 211.1 L362.7 212.65 Q360.75 214.7 356.65 216.05 352.95 217.3 350.05 217.2 344.05 217.0 340.6 213.55 337.1 210.0 337.1 204.0 337.1 198.8 341.2 195.3"/><path fill="#0d131a" d="M349.6 216.25 L351.45 215.85 Q356.4 220.4 361.45 223.8 361.1 220.35 359.8 213.7 L361.35 212.6 362.95 223.85 Q363.15 225.6 362.6 225.9 362.05 226.2 360.4 225.05 354.3 220.9 349.6 216.25"/><path fill="#0d131a" d="M327.95 191.8 L343.6 189.4 Q346.1 188.9 347.9 189.9 349.6 190.85 349.95 192.8 L348.25 193.05 Q347.9 191.75 346.95 191.35 L343.85 191.25 327.85 193.6 311.25 194.9 Q305.35 194.9 302.15 197.35 298.9 199.8 298.9 204.35 298.9 208.95 302.0 211.75 305.5 214.9 311.1 213.5 316.65 212.1 322.55 212.5 327.35 212.8 334.15 214.5 L339.35 214.85 Q341.75 214.45 342.45 213.2 L343.8 214.2 Q342.5 216.25 339.55 216.85 L333.8 216.5 Q327.55 214.8 322.95 214.45 317.15 214.0 311.55 215.4 304.8 217.1 300.4 213.1 296.6 209.6 296.6 204.25 296.6 199.0 300.2 195.95 304.1 192.7 311.3 192.9 L327.95 191.8"/><path fill="#0d131a" d="M286.4 195.2 Q289.8 191.75 295.1 191.9 300.4 192.1 302.9 195.75 L301.35 196.8 Q299.2 193.95 295.15 193.9 290.95 193.85 287.9 196.9 283.95 200.9 284.8 206.35 285.65 211.85 290.75 214.65 291.95 215.3 294.65 215.6 297.4 215.9 299.75 215.6 302.1 215.35 303.45 213.6 L305.2 214.6 Q304.4 215.7 302.9 216.55 301.4 217.4 299.95 217.6 297.25 217.95 294.2 217.7 291.1 217.4 289.65 216.65 283.45 213.25 282.65 206.4 281.85 199.8 286.4 195.2"/><path fill="#0d131a" d="M286.7 212.8 L287.9 214.2 284.5 215.05 281.5 215.3 Q279.25 215.15 277.8 213.45 275.85 211.1 271.85 209.35 269.25 208.15 264.85 206.9 L265.95 204.6 Q269.85 205.7 273.5 207.65 277.4 209.75 279.35 212.0 L280.4 213.0 281.65 213.3 286.7 212.8"/><path fill="#0d131a" d="M277.35 187.95 Q272.95 184.9 269.45 181.2 L271.1 179.35 Q280.25 189.05 286.5 190.45 L289.85 191.25 Q291.85 191.85 292.85 192.7 L290.75 193.85 Q289.3 192.9 286.0 192.2 282.3 191.35 277.35 187.95"/><path fill="#0d131a" d="M280.6 168.5 Q280.7 169.9 279.5 171.3 L275.35 176.1 269.85 181.95 269.65 178.9 277.4 170.35 Q278.25 169.35 278.3 168.65 278.35 167.95 277.75 166.9 L275.25 163.3 272.5 159.5 272.95 157.35 Q278.15 163.65 279.55 165.85 280.55 167.4 280.6 168.5"/><path fill="#0d131a" d="M43.6 187.05 L43.05 184.55 Q44.05 184.75 45.45 185.85 46.7 186.8 47.55 187.9 53.2 195.2 65.4 206.25 78.85 218.4 85.35 221.15 89.15 222.75 90.9 225.85 93.55 230.55 100.0 239.95 101.9 242.6 100.1 245.45 90.75 260.25 93.1 277.7 95.0 292.1 103.9 304.35 107.7 309.6 113.35 313.95 L114.2 317.55 Q110.75 315.25 107.45 312.1 104.1 309.0 101.85 305.9 92.6 293.25 90.75 277.85 88.6 259.8 98.2 244.5 99.4 242.65 98.25 241.0 91.2 230.95 89.1 227.2 87.7 224.8 84.3 223.4 77.3 220.45 66.1 210.5 54.75 200.45 46.3 189.6 45.0 187.95 43.6 187.05"/><path fill="#0d131a" d="M195.65 330.45 L201.05 332.2 Q192.4 334.1 180.65 334.5 L160.5 333.75 163.2 331.45 Q178.55 332.85 195.65 330.45"/><path fill="#0d131a" d="M0.05 83.85 Q-0.25 82.5 1.3 82.95 7.85 84.85 13.65 93.5 18.9 101.3 22.1 112.35 23.95 118.75 26.7 133.7 29.7 149.9 31.15 162.7 L27.55 153.4 Q25.7 140.65 23.55 129.45 21.45 118.65 19.75 113.0 13.0 90.35 2.0 84.85 4.95 95.45 6.3 109.1 7.6 122.1 7.15 134.1 6.6 147.3 8.1 162.75 9.65 178.75 12.7 189.55 L13.05 196.55 Q8.65 187.9 6.4 168.95 4.45 152.05 4.85 133.95 5.1 120.75 4.3 110.5 3.25 96.9 0.05 83.85"/><path fill="#0d131a" d="M213.1 198.85 Q217.5 224.7 211.75 246.3 205.95 267.9 189.25 287.9 L189.7 283.0 Q205.05 263.85 209.9 242.2 214.6 221.1 209.9 194.75 L213.1 198.85"/><path fill="#0d131a" d="M259.2 210.55 L261.6 210.45 Q261.85 216.05 263.55 224.8 L266.85 240.55 269.95 254.15 Q271.7 262.95 271.0 268.2 L268.75 262.25 Q268.55 258.4 267.05 252.2 L264.45 241.0 261.25 225.05 Q259.4 215.75 259.2 210.55"/><path fill="#0d131a" d="M117.05 260.7 L114.35 263.9 Q116.8 247.3 133.0 238.5 147.3 230.75 162.45 232.95 178.8 235.3 186.85 251.55 195.65 269.4 189.05 295.6 184.65 313.1 171.4 326.55 158.55 339.6 143.0 343.25 L144.55 340.8 Q157.5 337.15 169.4 324.7 182.25 311.3 186.35 294.95 192.3 271.15 184.45 253.75 177.05 237.5 162.15 235.35 147.9 233.3 134.1 240.8 120.0 248.5 117.05 260.7"/><path fill="#0d131a" d="M107.85 277.2 Q109.2 267.75 114.6 261.05 123.2 250.55 139.75 246.65 156.15 242.8 165.3 248.85 L164.75 250.9 Q156.45 245.25 141.1 248.7 125.25 252.3 116.7 262.8 111.8 268.85 110.35 277.15 108.85 285.55 111.2 294.9 L110.35 298.0 Q106.4 287.45 107.85 277.2"/><path fill="#0d131a" d="M74.25 377.6 L72.2 378.1 Q72.65 376.85 74.0 375.95 75.45 375.0 77.35 374.8 L87.8 373.1 Q89.8 372.7 92.15 371.35 L95.65 369.05 Q107.2 361.05 112.15 349.3 117.0 337.75 116.1 321.05 L118.6 322.95 Q119.3 339.5 113.95 351.2 108.7 362.75 96.85 370.95 91.85 374.35 88.15 375.15 L77.5 376.55 Q75.3 376.7 74.25 377.6"/><path fill="#0d131a" d="M47.2 394.0 L59.1 393.0 71.2 392.15 Q75.05 391.85 76.8 389.4 78.55 386.85 78.75 381.35 78.8 379.5 77.5 378.75 75.9 377.8 72.9 378.75 67.3 380.5 59.7 384.9 51.65 389.6 47.2 394.0 M47.1 395.6 Q43.0 395.85 46.0 392.95 50.75 388.25 58.75 383.45 66.6 378.8 72.55 376.95 L78.65 377.15 Q80.8 378.45 80.75 381.35 80.7 387.75 78.25 390.85 75.95 393.7 71.25 394.0 L47.1 395.6"/><path fill="#0d131a" d="M80.45 393.8 L76.7 394.05 Q74.8 393.75 73.55 392.75 L75.35 391.95 Q77.2 393.0 80.15 392.05 86.3 390.15 93.35 388.9 L91.25 391.2 Q86.7 391.9 80.45 393.8"/><path fill="#0d131a" d="M100.75 390.15 Q99.6 388.75 97.5 388.7 95.2 388.7 93.15 390.45 87.95 395.0 82.45 403.05 76.85 411.2 74.15 418.35 84.2 411.55 97.9 404.45 101.65 402.5 102.25 397.4 102.85 392.8 100.75 390.15 M92.1 388.85 Q94.75 386.6 97.6 386.5 100.5 386.4 102.25 388.6 105.3 392.15 104.55 397.75 103.7 403.7 98.9 406.1 87.15 411.9 75.0 419.45 72.95 420.7 72.4 420.3 71.95 419.95 72.65 418.05 75.5 410.25 80.95 402.05 86.5 393.6 92.1 388.85"/><path fill="#0d131a" d="M95.35 388.4 L93.05 389.3 Q93.65 386.8 97.25 385.2 101.9 383.1 104.75 380.7 108.55 377.5 110.0 373.3 110.4 372.2 110.8 372.35 111.25 372.45 111.05 373.6 110.1 378.2 106.0 381.85 102.65 384.85 97.75 386.7 96.05 387.35 95.35 388.4"/><path fill="#0d131a" d="M119.0 391.45 Q120.25 390.35 121.4 389.95 L123.95 389.4 Q128.0 388.9 135.7 389.1 L138.6 390.85 130.65 390.9 124.05 391.25 121.95 391.75 Q121.15 392.05 120.05 393.0 L112.85 398.45 105.55 403.1 Q104.45 403.75 102.75 404.2 L99.8 404.65 101.1 402.75 Q102.7 402.55 104.75 401.35 107.5 399.85 111.95 396.75 116.5 393.6 119.0 391.45"/><path fill="#0d131a" d="M148.1 392.6 L149.85 394.8 144.4 394.2 Q141.45 393.4 138.45 391.8 135.2 390.1 133.55 388.4 132.75 387.6 133.0 387.2 133.3 386.8 134.25 387.45 138.1 390.25 144.75 392.2 L148.1 392.6"/><path fill="#0d131a" d="M156.7 381.15 Q154.45 379.25 152.0 379.35 149.85 379.45 148.9 380.85 146.75 384.25 147.3 388.5 147.85 392.85 150.9 394.2 163.95 400.05 168.2 402.55 166.6 396.8 163.35 390.6 159.8 383.75 156.7 381.15 M150.1 395.85 Q146.0 393.9 145.3 388.55 144.65 383.55 147.3 379.6 148.85 377.3 151.95 377.25 155.05 377.25 157.8 379.55 161.05 382.3 164.6 389.05 168.05 395.6 169.75 402.0 170.4 404.25 169.75 404.6 169.15 404.95 166.9 403.75 163.35 401.85 150.1 395.85"/><path fill="#0d131a" d="M141.45 343.9 Q143.4 339.5 147.15 337.8 148.55 337.15 148.8 337.6 149.05 338.05 147.75 338.95 141.8 343.2 141.8 354.95 141.8 360.9 146.0 367.3 149.75 373.0 154.55 376.0 156.8 377.4 157.6 380.55 L155.7 379.35 Q155.1 378.4 153.6 377.45 147.9 374.05 144.15 368.45 139.8 362.05 139.6 354.9 139.45 348.35 141.45 343.9"/><path fill="#0d131a" d="M267.4 248.1 L267.1 246.25 Q284.7 251.7 300.2 269.6 315.25 286.9 317.0 302.25 318.65 316.5 312.55 324.3 306.85 331.65 296.05 331.3 290.05 331.05 287.3 332.55 L286.25 332.65 Q286.0 332.4 286.45 331.9 287.75 330.45 290.8 329.8 L296.15 329.3 Q306.0 329.55 310.85 322.75 315.85 315.75 314.4 302.65 312.7 287.95 298.1 270.95 283.45 253.8 267.4 248.1"/><path fill="#0d131a" d="M266.25 289.1 L267.45 286.7 Q271.2 294.15 271.8 303.85 272.45 313.9 269.2 320.8 268.4 322.55 267.45 323.1 266.5 323.65 264.4 323.7 260.35 323.8 254.25 322.15 248.6 320.55 243.2 318.05 L244.7 316.55 Q256.55 322.0 264.4 322.3 265.7 322.35 266.45 321.8 267.15 321.3 267.75 320.05 270.6 313.85 270.0 304.6 269.4 296.05 266.25 289.1"/><path fill="#0d131a" d="M261.55 334.9 Q261.5 332.0 258.6 328.0 255.75 324.1 251.25 320.55 L255.3 321.0 Q259.35 324.5 261.6 328.2 263.75 331.75 263.8 334.85 264.05 344.5 258.65 351.8 254.95 356.8 257.3 361.7 L259.0 365.25 260.35 368.6 Q260.9 370.4 261.75 371.5 262.5 372.45 263.8 373.25 L264.15 375.1 Q262.5 374.55 261.0 373.0 259.35 371.35 258.65 369.2 258.25 367.9 255.55 362.5 254.15 359.7 254.5 356.5 254.85 353.3 256.85 350.6 261.7 344.1 261.55 334.9"/><path fill="#0d131a" d="M269.15 364.4 Q266.45 364.7 265.15 368.25 263.8 372.05 265.6 376.25 268.35 382.75 273.0 390.5 274.95 382.45 275.05 373.3 275.1 368.9 273.25 366.4 271.55 364.15 269.15 364.4 M263.5 366.95 Q265.3 362.75 268.9 362.35 272.35 362.05 274.55 364.75 276.9 367.7 276.85 373.3 276.8 381.7 274.35 391.35 273.95 393.0 273.4 393.15 272.75 393.25 271.8 391.75 266.8 383.9 263.85 376.9 261.6 371.5 263.5 366.95"/><path fill="#0d131a" d="M276.2 361.35 Q277.7 364.35 277.65 367.35 277.6 370.4 275.95 371.75 L275.45 369.35 Q276.15 367.9 275.9 366.0 275.65 364.35 274.6 361.8 274.1 360.65 273.7 358.9 273.3 357.15 273.3 356.0 273.25 354.8 273.7 354.8 274.15 354.85 274.35 356.0 274.85 358.85 276.2 361.35"/><path fill="#0d131a" d="M276.55 365.6 L276.4 363.95 Q283.1 364.05 289.0 365.75 L292.35 368.4 Q288.95 367.05 284.0 366.3 L276.55 365.6"/><path fill="#0d131a" d="M335.65 386.15 Q331.9 379.85 327.4 374.8 320.35 366.75 313.15 364.0 L309.85 363.8 Q308.6 364.3 308.3 365.75 307.55 369.6 308.9 373.0 310.35 376.65 313.6 377.65 317.0 378.7 323.8 381.3 331.2 384.1 335.65 386.15 M336.5 385.3 Q337.2 386.55 336.95 387.15 L335.2 387.2 Q331.05 385.55 323.25 382.85 L313.0 379.4 Q308.85 378.1 307.0 373.8 305.25 369.8 306.25 365.2 306.7 363.05 308.55 362.15 310.7 361.1 313.7 362.25 326.85 367.35 336.5 385.3"/><path fill="#0d131a" d="M314.65 363.4 L312.1 362.8 Q311.3 362.1 309.0 361.55 304.4 360.35 300.15 357.05 295.8 353.65 293.3 349.1 292.6 347.9 293.0 347.6 293.4 347.35 294.15 348.5 297.05 352.9 301.15 355.95 305.1 358.9 309.45 360.05 313.55 361.15 314.65 363.4"/><path fill="#0d131a" d="M291.5 366.7 L297.5 371.05 Q304.65 376.85 307.45 377.3 309.35 377.65 310.35 376.85 L311.65 378.45 Q309.9 379.6 307.25 379.15 304.15 378.7 296.4 372.55 288.6 366.3 284.65 363.75 283.7 363.15 283.95 362.75 L285.2 362.85 Q287.4 363.9 291.5 366.7"/><path fill="#0d131a" d="M328.2 362.9 L338.55 364.35 Q343.85 365.3 348.1 366.4 344.3 361.9 336.9 356.35 329.8 351.05 325.95 349.55 324.05 348.8 323.2 349.15 322.4 349.45 321.8 351.0 320.5 354.3 322.45 358.25 324.45 362.45 328.2 362.9 M326.55 347.8 Q331.8 349.75 338.35 354.9 344.9 360.05 349.35 365.7 351.65 368.55 348.15 367.85 336.6 365.35 328.05 364.6 323.35 364.15 320.8 359.25 318.25 354.5 320.0 350.1 321.6 346.0 326.55 347.8"/><path fill="#0d131a" d="M297.8 342.35 Q292.95 339.95 291.85 339.0 290.5 337.9 289.85 337.65 289.25 337.4 288.4 337.65 L284.05 337.95 Q283.15 337.8 283.25 337.35 283.3 336.95 284.2 336.9 286.2 336.75 288.3 336.0 289.4 335.65 290.4 336.0 L292.85 337.65 Q293.8 338.5 298.6 340.65 L305.7 343.65 Q308.65 344.75 312.6 345.2 316.35 345.65 318.85 345.25 321.05 344.95 323.1 345.9 325.1 346.8 325.8 348.35 L323.75 348.05 Q321.95 346.6 319.1 347.0 316.35 347.35 312.35 347.05 307.95 346.65 304.95 345.55 302.4 344.6 297.8 342.35"/><path fill="#0d131a" d="M288.8 331.0 L291.2 330.75 Q290.9 334.0 291.1 336.9 L288.7 336.75 Q288.55 334.85 288.8 331.0"/><path fill="#0d131a" d="M325.3 362.6 L326.9 363.5 Q324.2 365.55 321.1 364.7 320.05 364.4 314.85 361.7 311.25 359.8 306.0 359.9 L303.9 358.25 310.85 358.65 Q314.5 359.3 316.8 360.65 320.25 362.7 322.85 363.0 L325.3 362.6"/><path fill="#0d131a" d="M300.75 272.8 L299.25 271.1 Q303.35 270.15 307.45 271.1 311.75 272.15 313.7 274.8 318.35 281.2 318.85 291.9 319.25 301.85 316.05 309.8 L315.9 304.45 Q317.35 297.1 316.2 288.75 315.05 280.3 312.05 276.3 310.5 274.25 307.25 273.2 303.9 272.15 300.75 272.8"/><path fill="#0d131a" d="M276.65 251.95 L273.8 250.15 Q279.9 249.0 286.2 249.85 292.65 250.7 298.25 253.45 303.25 255.95 307.75 261.3 312.35 266.75 313.85 272.25 L314.15 274.6 313.85 276.95 312.3 275.0 Q312.4 273.65 312.1 272.55 310.6 267.85 306.1 262.65 301.65 257.5 297.2 255.3 292.6 253.05 286.6 252.15 280.75 251.2 276.65 251.95"/><path fill="#0d131a" d="M264.55 235.9 L264.2 234.15 Q272.85 234.8 281.25 239.7 290.35 244.95 296.7 253.75 L293.65 252.8 Q288.15 246.1 279.2 241.15 270.85 236.5 264.55 235.9"/><path fill="#0d131a" d="M333.75 47.55 Q333.1 46.25 333.5 46.0 333.9 45.8 334.7 47.05 338.7 53.4 342.6 57.7 346.65 62.15 351.45 65.35 352.5 66.0 352.25 66.4 352.05 66.8 350.95 66.25 346.05 63.9 341.55 59.0 337.05 54.1 333.75 47.55"/><path fill="#0d131a" d="M369.15 75.25 Q370.35 76.55 370.35 78.4 370.35 79.0 370.0 79.05 369.6 79.05 369.45 78.5 369.3 77.7 368.15 76.4 367.45 75.7 368.0 75.15 L369.15 75.25"/><path fill="#0d131a" d="M39.85 183.35 Q34.75 176.7 29.7 162.95 25.65 151.95 23.05 140.7 17.05 149.35 14.8 164.85 12.8 178.25 14.05 192.85 14.5 198.2 15.9 201.8 19.3 210.7 30.05 231.35 41.85 254.05 47.1 260.3 L48.9 262.25 Q42.8 247.75 41.1 234.8 38.95 218.45 44.4 209.1 45.45 207.25 44.9 204.95 43.0 197.5 43.25 189.85 43.3 188.2 42.4 186.75 L39.85 183.35 M22.65 138.25 Q23.2 137.55 23.6 137.6 24.0 137.65 24.2 138.45 26.7 149.75 31.75 162.65 37.25 176.8 42.05 182.5 L44.6 185.9 Q45.6 187.75 45.55 189.75 45.4 193.3 45.85 197.8 46.25 202.1 46.95 204.7 47.4 206.45 47.2 207.65 47.05 208.65 46.3 210.0 40.9 219.6 43.85 236.8 46.35 251.1 53.8 267.35 55.2 270.45 58.05 273.2 70.85 285.45 83.8 295.7 100.05 308.55 114.5 316.55 L115.55 319.95 Q87.75 304.8 56.2 275.05 53.55 272.5 51.5 268.1 L50.85 266.7 47.65 264.45 45.0 262.1 Q39.7 255.85 27.8 232.65 17.05 211.75 13.55 202.6 12.15 199.0 11.55 192.95 10.05 176.85 12.75 162.7 15.6 147.7 22.65 138.25"/><path fill="#0d131a" d="M155.95 275.8 L156.7 273.9 Q161.0 262.85 163.05 253.85 166.1 240.75 163.7 234.35 L165.75 234.5 Q168.1 241.45 165.35 254.6 163.35 264.35 159.25 274.8 154.1 288.0 142.45 303.7 132.5 317.05 124.45 324.0 121.1 326.9 118.1 324.15 111.5 318.2 109.55 306.6 107.35 293.6 114.2 285.0 120.55 277.1 133.6 274.15 146.5 271.2 155.95 275.8 M155.15 277.7 Q146.8 273.7 134.85 276.35 122.4 279.15 116.4 286.6 110.6 293.9 111.9 305.35 113.1 316.0 119.25 322.75 119.95 323.45 121.2 323.4 122.45 323.35 123.45 322.5 131.05 315.9 140.85 302.1 150.1 289.0 155.15 277.7"/><path fill="#0d131a" d="M327.55 27.9 Q318.65 30.6 314.6 33.55 311.45 35.85 310.65 42.6 310.0 48.55 311.3 55.7 311.5 56.7 317.0 59.45 322.75 62.3 329.2 64.45 L328.05 65.55 Q322.15 63.8 316.45 61.05 310.0 58.0 309.7 56.25 308.0 46.85 309.15 40.5 310.25 34.55 313.65 32.15 319.15 28.2 328.1 25.7 335.15 23.75 341.45 23.3 343.55 23.15 344.45 24.1 345.25 24.95 345.2 26.8 L345.0 31.55 Q344.95 34.55 345.35 37.0 345.5 38.1 347.95 39.65 350.65 41.5 356.05 44.15 357.35 44.75 357.9 45.6 358.35 46.4 358.45 47.95 L358.5 54.9 Q358.6 57.15 359.35 58.55 360.1 59.95 362.2 61.7 L373.4 71.15 Q377.25 74.3 377.8 79.4 378.4 84.6 375.6 92.85 375.05 94.45 374.25 94.6 373.4 94.75 372.4 93.2 370.3 90.05 366.95 86.8 363.55 83.35 361.5 82.45 359.4 81.45 355.25 81.0 350.75 80.5 349.0 81.45 L348.55 80.25 Q350.55 79.15 355.4 79.45 359.8 79.75 362.1 80.75 364.35 81.75 368.0 85.5 371.55 89.15 373.45 92.25 L374.0 92.65 Q374.3 92.65 374.4 92.15 376.8 83.4 375.95 78.85 375.3 75.25 372.1 72.6 L360.85 63.05 Q358.65 61.2 357.7 59.3 356.8 57.45 356.8 54.9 L357.05 48.2 Q357.05 46.95 356.7 46.35 356.4 45.85 355.6 45.5 L346.85 41.1 Q345.5 40.2 344.85 39.3 344.25 38.5 344.0 37.25 343.0 32.8 343.3 26.9 343.4 25.7 342.95 25.3 L341.3 25.0 Q335.7 25.4 327.55 27.9"/><path fill="#0d131a" d="M329.85 41.85 Q332.6 38.55 335.55 41.9 L344.9 52.8 354.5 64.15 Q355.2 65.1 356.6 65.45 365.05 67.25 370.05 69.3 L372.7 72.05 Q369.4 70.5 363.9 68.9 L356.0 66.95 Q354.35 66.55 353.1 65.15 L334.35 43.15 Q332.6 41.15 331.25 42.7 328.0 46.7 327.75 52.8 327.45 58.8 330.1 65.05 L328.65 65.1 Q322.55 50.65 329.85 41.85"/><path fill="#0d131a" d="M223.6 97.35 Q224.15 91.75 225.4 87.8 225.75 86.65 226.25 86.8 226.7 86.95 226.45 87.95 225.45 92.3 225.25 97.75 225.05 102.15 225.35 105.7 L225.65 109.75 Q225.9 112.0 226.25 113.2 227.25 116.55 229.2 118.5 L252.85 142.3 258.05 148.2 263.35 155.15 264.9 153.85 Q265.65 153.25 265.95 153.5 266.25 153.7 265.75 154.6 L263.85 157.25 263.2 157.55 Q262.75 157.55 262.5 157.1 L257.15 150.0 251.65 143.6 227.75 119.8 Q226.55 118.6 225.6 116.7 224.7 115.0 224.3 113.35 223.55 110.1 223.35 105.95 223.15 102.1 223.6 97.35"/><path fill="#595649" d="M330.8 66.05 L339.15 72.85 347.9 79.75 Q349.1 80.6 348.85 82.25 348.35 86.15 350.05 91.1 351.55 95.5 354.4 99.7 345.35 100.5 331.85 93.65 322.5 88.9 312.4 81.3 303.15 74.3 291.8 62.2 277.95 47.45 274.85 38.6 279.75 43.3 291.45 51.8 303.95 60.85 311.0 64.55 317.6 68.0 322.0 67.9 324.9 67.85 327.5 65.95 L330.8 66.05"/><path fill="#b50029" d="M384.3 119.55 Q365.6 121.25 342.65 113.05 316.05 103.5 292.7 83.3 277.45 70.1 262.0 48.75 243.55 23.25 238.95 3.75 247.35 14.25 259.1 25.0 L274.85 38.6 Q277.4 46.0 286.65 56.8 295.75 67.45 307.8 77.35 320.6 87.85 332.35 93.8 345.45 100.4 354.4 99.7 359.1 106.35 367.65 112.2 376.65 118.3 384.3 119.55"/><path fill="#cbbd00" d="M187.2 147.95 Q193.5 143.55 200.25 146.2 203.35 147.45 204.85 152.1 206.2 156.45 205.75 162.2 205.05 169.85 200.55 174.6 196.1 179.25 190.5 178.5 L183.05 177.85 174.3 178.15 164.65 179.15 Q159.4 181.6 154.3 180.6 148.7 179.45 146.3 174.5 141.35 176.15 136.55 173.55 133.5 171.9 124.55 166.35 L112.2 158.55 Q109.35 156.7 108.2 153.65 107.5 151.75 107.2 148.15 104.2 146.3 102.45 142.15 100.95 138.65 100.85 135.05 L104.5 135.5 Q106.85 135.25 108.45 133.65 110.1 132.0 109.85 129.25 109.6 126.75 107.95 124.55 L110.05 120.7 Q113.75 122.6 117.5 120.95 121.1 119.4 120.8 116.7 122.45 117.2 124.4 120.4 127.25 125.05 128.4 126.35 129.65 127.8 130.65 130.0 131.7 132.4 131.85 134.5 134.3 134.95 135.5 136.35 136.4 137.35 136.75 139.15 137.7 143.3 141.9 146.95 145.25 149.9 149.2 151.45 152.9 152.9 154.7 155.0 157.1 154.0 160.1 154.15 162.75 154.25 164.45 155.1 169.35 154.8 176.6 152.55 183.8 150.25 187.2 147.95"/><path fill="#b50029" d="M125.15 122.0 L131.2 119.75 Q135.25 118.0 137.15 116.85 136.8 120.2 135.2 124.6 133.5 129.3 131.4 132.1 130.5 129.05 128.5 126.4 L125.15 122.0"/><path fill="#b50029" d="M119.45 114.15 Q122.75 119.35 116.4 121.45 L111.1 121.25 Q109.2 120.2 108.35 117.7 106.8 113.2 107.1 107.1 107.35 100.2 110.0 94.55 114.3 106.15 119.45 114.15"/><path fill="#b50029" d="M88.25 114.15 Q91.95 116.45 97.6 119.45 L105.85 123.6 Q111.15 125.95 109.45 131.8 108.75 134.2 106.05 135.15 103.5 136.1 101.2 135.1 97.8 133.65 93.35 125.7 89.65 119.1 88.25 114.15"/><path fill="#b50029" d="M357.3 183.6 Q357.1 185.85 357.2 190.35 L357.4 196.25 Q357.45 198.0 355.85 198.85 354.45 199.6 352.6 199.3 350.15 198.9 349.25 197.95 348.45 197.15 348.55 195.5 348.8 193.05 351.9 189.05 354.65 185.5 357.3 183.6"/><path fill="#8f001a" d="M384.45 119.65 Q353.15 121.95 318.0 101.45 283.8 81.4 262.9 49.95 288.6 79.0 316.9 94.85 342.4 109.05 362.45 108.8 373.55 116.7 384.45 119.65"/><path fill="#8f001a" d="M136.85 117.0 Q136.8 120.75 134.95 125.3 133.25 129.4 131.15 131.8 130.6 129.2 128.45 126.05 130.85 124.85 133.1 122.45 135.45 119.95 136.85 117.0"/><path fill="#8f001a" d="M108.25 99.4 Q108.45 104.85 109.35 109.9 110.25 114.85 111.3 116.45 112.5 118.35 115.45 117.55 118.35 116.75 119.15 114.2 120.65 115.55 120.5 117.65 120.25 120.15 117.0 121.2 L111.05 121.0 Q108.75 119.75 108.15 117.2 107.4 114.15 107.3 109.35 107.1 103.3 108.25 99.4"/><path fill="#8f001a" d="M88.2 114.1 Q91.4 119.5 94.75 123.65 98.3 128.05 101.15 129.95 103.25 131.35 105.8 130.9 108.2 130.45 109.45 128.75 110.6 131.6 107.8 134.2 104.75 137.05 100.6 134.7 97.9 133.15 93.75 126.45 89.45 119.5 88.2 114.1"/><path fill="#9f9500" d="M130.55 141.05 Q127.85 147.95 121.25 149.5 112.7 151.5 106.95 147.75 100.9 143.75 100.85 135.1 102.65 135.9 104.6 135.65 106.5 135.4 108.0 134.2 110.95 137.35 118.85 136.75 127.5 136.1 130.4 130.4 133.0 134.75 130.55 141.05"/><path fill="#9f9500" d="M116.5 150.45 Q117.35 154.95 121.0 157.4 124.1 159.45 128.9 162.15 134.4 165.2 137.75 166.6 142.85 168.7 148.7 166.15 154.95 163.4 155.7 157.3 157.2 167.35 150.45 172.65 143.85 177.85 136.45 173.55 L124.6 166.3 113.9 159.65 Q110.8 157.8 109.45 156.0 107.2 152.95 107.2 147.95 108.9 149.1 111.25 149.8 L116.5 150.45"/><path fill="#9f9500" d="M167.65 176.4 Q163.5 181.2 158.3 181.0 148.8 180.75 146.25 174.65 148.7 173.7 151.05 171.65 153.8 169.2 154.85 166.5 156.85 168.95 162.2 169.35 167.8 169.7 171.15 166.95 171.6 171.75 167.65 176.4"/><path fill="#9f9500" d="M170.8 170.25 L178.5 169.75 186.6 170.4 Q191.6 171.65 197.2 169.0 203.55 166.0 205.6 159.75 205.6 166.9 202.05 172.85 197.35 180.7 189.2 178.4 183.85 176.9 175.4 178.05 L164.55 179.1 Q166.8 177.35 168.2 175.4 169.8 173.25 170.8 170.25"/><path fill="#8f001a" d="M357.2 184.25 L357.4 189.8 357.6 195.65 Q357.6 197.6 355.7 198.6 354.0 199.45 351.85 199.1 349.8 198.75 349.0 197.0 348.15 195.2 349.35 193.45 349.75 195.65 352.65 195.8 355.5 195.9 355.65 194.55 L356.05 189.8 Q356.45 185.9 357.2 184.25"/><path fill="#0d131a" d="M329.35 66.3 L328.4 66.35 Q326.35 68.4 322.7 68.75 319.0 69.1 314.95 67.55 300.0 61.7 275.15 40.85 252.2 21.55 240.15 6.3 246.65 26.5 264.8 50.75 282.75 74.7 302.1 89.3 341.75 118.65 380.1 119.05 364.25 113.75 355.25 102.65 346.7 92.05 348.35 81.75 348.5 81.05 347.9 80.7 L329.35 66.3 M330.2 64.6 L339.0 71.85 348.65 79.5 349.65 80.65 Q349.9 81.15 349.8 82.05 349.05 92.0 357.8 102.35 367.1 113.4 381.85 118.0 385.35 119.1 385.35 119.6 385.3 120.15 381.6 120.3 363.4 121.2 344.35 114.75 322.75 107.45 300.75 90.95 279.95 75.35 262.7 52.05 244.85 27.85 238.35 5.35 237.55 2.45 238.3 2.45 238.95 2.4 240.45 4.25 251.6 17.5 274.25 37.0 301.25 60.3 315.8 65.85 319.8 67.35 322.65 67.15 325.5 66.95 327.45 65.0 328.95 63.5 330.2 64.6"/><path fill="#0d131a" d="M354.45 99.0 L355.5 100.45 Q345.75 101.4 332.45 95.0 320.55 89.25 307.7 78.6 295.75 68.65 286.35 57.3 276.9 45.9 273.35 37.1 L275.2 38.4 Q279.15 46.4 288.45 57.0 297.9 67.75 309.3 77.2 336.95 100.0 354.45 99.0"/><path fill="#0d131a" d="M349.65 194.5 Q348.95 196.05 349.8 197.1 350.65 198.25 353.0 198.45 354.7 198.65 355.7 197.9 356.65 197.1 356.55 195.5 356.15 190.75 356.9 184.65 352.35 188.6 349.65 194.5 M355.95 183.9 Q357.25 182.9 357.7 183.2 358.1 183.45 358.05 185.0 357.9 188.55 358.35 195.65 358.45 198.05 356.95 199.4 355.45 200.7 352.8 200.4 349.75 200.1 348.35 198.25 346.9 196.35 348.05 193.8 350.85 187.8 355.95 183.9"/><path fill="#0d131a" d="M123.35 117.4 Q124.7 118.75 125.45 120.3 L127.6 123.55 130.2 127.15 Q133.2 131.4 132.4 137.7 131.55 144.35 126.65 148.35 122.9 151.45 116.85 151.7 109.85 151.95 105.0 147.55 102.35 145.15 101.0 141.5 99.75 138.0 100.0 134.5 L101.75 135.2 Q101.85 138.15 103.0 140.95 104.25 144.0 106.55 146.1 110.5 149.7 116.5 149.45 121.8 149.2 125.2 146.45 129.7 142.8 130.45 137.25 131.15 132.05 128.4 128.2 125.0 123.7 123.75 121.2 122.45 118.6 120.25 117.35 L120.25 115.25 Q121.85 115.8 123.35 117.4"/><path fill="#0d131a" d="M108.1 125.2 L106.75 124.1 Q108.85 122.3 109.1 119.5 L110.65 120.75 Q110.15 123.5 108.1 125.2"/><path fill="#0d131a" d="M113.05 120.8 Q115.65 121.2 118.05 119.8 119.4 119.0 119.6 117.7 119.85 116.3 118.65 114.55 116.25 111.15 113.9 106.1 111.3 100.65 110.0 96.0 108.2 100.4 108.1 107.3 108.0 113.9 109.5 118.2 110.25 120.4 113.05 120.8 M108.75 95.3 Q110.0 92.25 111.15 95.45 112.65 100.0 115.5 105.45 118.0 110.3 120.35 113.65 122.05 116.05 121.7 118.05 121.4 120.05 119.0 121.45 116.05 123.15 112.65 122.6 108.85 121.95 107.75 118.75 105.85 113.35 106.3 106.45 106.7 100.15 108.75 95.3"/><path fill="#0d131a" d="M93.8 125.2 Q96.7 130.05 99.75 133.0 101.95 135.1 104.7 134.6 107.2 134.1 108.15 132.25 109.25 130.2 108.55 127.95 107.9 125.7 105.95 124.7 96.7 120.2 89.05 115.2 90.8 120.25 93.8 125.2 M87.7 115.5 Q86.65 112.2 89.45 113.9 94.75 117.15 106.75 123.15 109.8 124.6 110.55 127.8 111.2 130.65 109.85 133.2 108.3 136.2 104.75 136.55 101.2 136.9 98.6 134.4 95.45 131.4 92.4 126.1 89.5 121.0 87.7 115.5"/><path fill="#0d131a" d="M125.9 122.65 L124.8 121.3 Q131.3 118.95 135.3 116.9 137.0 116.05 137.55 116.4 138.05 116.75 137.85 118.3 137.3 122.2 135.65 126.1 133.85 130.25 131.4 133.05 L130.95 131.2 Q135.25 123.9 136.15 118.2 132.45 120.25 125.9 122.65"/><path fill="#0d131a" d="M144.5 147.85 Q147.4 149.9 149.8 150.6 154.9 152.15 156.5 156.6 158.05 161.05 155.8 167.1 153.9 172.35 148.3 175.0 142.25 177.85 136.4 174.9 132.0 172.65 112.1 159.8 105.95 155.9 106.5 147.45 L108.0 148.2 Q107.85 154.7 113.1 158.0 134.15 171.3 137.2 172.8 142.2 175.35 147.3 173.0 152.05 170.85 153.75 166.2 155.8 160.7 154.35 157.0 153.05 153.65 149.1 152.45 146.6 151.65 143.4 149.35 140.4 147.2 138.8 145.2 136.4 142.25 135.4 137.95 135.1 136.55 133.6 135.9 L131.6 135.05 131.65 133.4 134.25 134.35 Q136.6 135.0 137.2 137.4 138.05 141.2 140.25 143.95 141.8 145.9 144.5 147.85"/><path fill="#0d131a" d="M186.7 147.05 Q192.5 143.3 197.7 144.2 202.8 145.05 205.4 149.95 207.65 154.3 206.85 161.85 206.0 169.95 202.05 174.8 197.45 180.55 190.1 179.5 L181.35 178.75 173.5 179.15 168.55 179.75 Q165.35 180.0 163.55 179.85 L165.45 178.3 173.35 177.35 181.8 176.8 190.35 177.4 Q193.5 177.85 195.8 176.85 198.1 175.9 200.2 173.3 203.35 169.4 204.35 162.15 205.4 154.9 203.35 150.85 201.35 146.9 196.95 146.2 192.45 145.5 187.55 148.65 183.35 151.35 177.45 153.3 171.65 155.15 166.1 155.65 L163.9 154.2 Q169.45 153.8 175.9 151.85 182.4 149.8 186.7 147.05"/><path fill="#0d131a" d="M165.55 177.0 Q169.2 173.6 170.05 168.25 170.95 162.6 167.8 158.55 165.7 155.85 161.4 155.2 157.5 154.6 154.95 156.0 L154.05 154.3 Q157.3 152.55 161.95 153.15 167.1 153.8 169.8 157.2 173.3 161.65 172.6 167.9 171.9 174.25 167.2 178.6 162.7 182.75 155.5 181.85 147.9 180.85 145.3 174.65 L147.0 174.05 Q149.3 178.9 155.5 179.8 161.6 180.65 165.55 177.0"/></g></svg>