<?xml version='1.0' encoding='utf-8'?>
<svg xmlns="http://www.w3.org/2000/svg" version="1.1" width="586px" height="523px" viewBox="-0.1 -0.25 585.7 522.55"><g><path fill="#6bb5b6" d="M423.2 272.4 Q425.8 275.95 424.0 278.6 419.25 285.85 406.15 297.0 392.9 308.4 382.25 314.25 384.05 320.6 384.3 328.25 384.55 335.8 383.05 339.1 385.1 341.55 386.1 356.1 392.05 360.1 398.75 365.8 406.05 372.1 408.1 375.2 410.1 378.45 412.6 395.95 L424.9 449.65 439.3 464.75 451.4 477.7 Q453.2 479.75 453.9 481.65 454.6 483.35 454.6 485.6 454.6 494.15 453.45 503.25 453.2 505.3 451.85 506.45 450.7 507.4 448.2 508.05 440.65 510.2 391.75 519.8 L386.3 519.95 Q384.65 519.5 382.95 517.9 375.8 511.55 327.35 474.7 325.75 473.45 325.05 472.05 324.4 470.7 324.2 468.6 323.9 464.6 323.95 457.9 323.95 450.9 324.35 445.8 L333.35 396.9 Q333.35 382.95 333.85 377.6 334.1 375.15 337.55 370.4 L342.3 363.8 Q343.6 361.35 342.5 354.5 341.4 348.0 339.75 345.25 336.75 340.45 325.85 333.5 311.6 335.35 299.45 335.65 283.85 335.9 269.3 333.7 258.1 339.05 256.15 340.25 252.4 342.5 251.85 345.6 251.5 347.45 251.05 351.95 L250.7 357.9 Q250.5 361.7 252.45 364.1 L257.15 370.05 Q260.7 374.65 261.45 376.05 262.7 378.35 262.3 392.4 L270.55 444.65 270.3 467.45 Q270.3 471.3 266.15 473.3 252.05 480.4 181.35 508.9 176.75 510.75 172.4 509.65 157.3 506.1 128.1 498.45 126.1 497.95 125.3 496.5 124.5 495.35 124.3 493.0 123.7 483.35 123.7 477.4 123.7 475.35 124.45 474.0 125.1 472.85 126.9 471.35 L167.55 440.85 186.5 385.7 Q189.6 371.2 191.75 367.9 193.45 365.45 200.9 359.65 208.15 353.9 212.15 351.65 212.55 348.65 213.7 344.25 214.85 339.85 215.85 337.7 214.05 331.2 213.4 316.95 194.65 307.9 178.85 281.0 176.7 277.25 179.7 273.0 183.55 267.55 191.9 257.1 200.6 246.1 207.1 238.65 194.4 226.3 186.95 201.85 180.0 178.9 180.75 156.65 L168.75 157.85 Q166.15 163.6 159.85 171.8 154.35 178.9 150.0 183.15 149.35 187.75 147.55 193.55 145.9 199.05 144.15 202.75 L103.0 240.35 Q94.85 245.2 67.35 259.8 66.25 260.35 64.55 260.15 63.1 260.05 62.45 259.45 59.7 267.55 53.4 289.3 52.85 291.2 51.85 291.65 51.1 292.1 49.55 291.65 48.85 295.9 46.3 297.25 44.1 298.35 40.9 297.25 39.1 301.15 34.15 299.35 28.25 297.05 19.05 290.75 12.35 288.15 6.55 284.25 3.15 282.0 2.25 275.9 1.45 270.55 1.45 253.25 1.35 240.6 1.75 228.4 1.95 222.3 3.5 217.55 5.0 212.8 8.1 208.55 L51.3 167.0 103.15 144.85 Q108.45 144.25 116.75 145.95 123.25 147.2 128.0 149.0 128.8 146.2 131.7 143.0 134.85 139.5 138.05 138.35 138.55 135.45 138.9 129.5 L139.1 120.9 Q139.0 119.0 138.5 117.75 137.85 116.4 136.2 114.7 134.4 112.9 131.55 108.95 128.7 104.85 127.2 102.05 126.5 100.6 126.3 99.75 126.1 98.5 126.75 97.05 128.35 93.2 133.9 83.75 138.35 75.9 141.25 71.5 143.05 68.65 146.2 67.65 150.45 66.35 152.15 64.8 153.4 63.7 154.6 63.7 155.7 63.65 157.05 64.45 161.65 66.85 168.6 67.4 175.45 67.95 177.65 66.05 179.85 64.15 182.1 65.45 187.15 68.45 194.8 75.85 201.95 82.7 205.75 87.9 213.4 76.5 226.95 65.05 239.95 53.95 249.8 50.05 250.85 42.8 253.65 30.6 254.25 28.1 258.95 24.25 262.85 21.05 266.7 18.95 263.95 16.55 258.4 11.15 L251.65 4.5 Q249.0 2.0 252.45 1.75 259.6 1.35 275.65 1.2 290.85 1.15 298.25 1.4 300.5 1.5 301.1 2.35 301.65 3.15 301.05 4.8 299.95 7.95 297.9 15.0 301.45 16.1 306.95 18.95 312.85 21.9 314.6 23.7 315.45 24.5 317.4 31.65 L320.35 43.4 Q345.15 44.0 369.15 64.05 392.35 83.55 404.45 112.25 416.05 139.95 412.85 172.5 409.4 207.4 389.8 230.95 L406.45 251.35 423.2 272.4"/><path fill="#007b95" d="M64.65 183.15 L46.55 197.85 Q32.5 209.15 26.6 214.4 24.35 216.25 21.9 215.2 L10.05 209.2 Q8.1 208.25 7.35 206.6 4.85 201.55 3.8 198.75 L3.35 196.9 Q3.3 195.9 3.95 195.35 9.75 189.7 21.85 179.6 32.85 170.4 39.15 165.7 41.35 164.1 43.45 164.75 L62.7 170.5 Q65.0 171.35 65.2 173.25 L65.9 180.15 Q66.1 182.0 64.65 183.15"/><path fill="#007b95" d="M286.6 8.2 Q285.2 8.85 284.75 9.75 284.45 10.4 284.5 11.6 284.75 17.45 284.95 19.1 285.25 21.9 282.25 21.5 278.85 21.0 269.2 21.2 L260.25 12.9 251.65 4.5 Q250.5 3.35 250.75 2.55 251.05 1.85 252.45 1.75 260.75 1.15 277.7 1.15 295.45 1.1 300.55 1.8 L286.6 8.2"/><path fill="#007b95" d="M321.4 48.2 Q322.6 51.65 322.7 54.05 322.7 56.65 321.25 59.6 318.3 65.85 307.6 70.85 297.25 75.65 285.7 76.6 273.2 77.65 261.35 72.85 248.45 67.65 248.8 59.75 249.05 54.55 250.7 45.1 252.3 35.75 253.9 30.15 257.8 33.9 266.1 36.85 272.8 39.25 278.65 40.05 L280.4 40.0 Q281.05 39.7 281.15 38.85 L281.2 34.4 Q281.2 33.2 281.55 32.85 281.85 32.6 282.9 32.85 L291.55 34.6 301.75 36.3 Q303.75 36.65 304.5 39.1 L307.3 49.85 Q307.65 51.15 308.35 51.65 309.2 52.25 310.8 52.1 312.5 52.05 315.8 50.75 319.15 49.55 321.4 48.2"/><path fill="#fad47b" d="M274.1 49.1 L274.25 57.7 Q274.25 63.7 273.95 66.1 273.7 68.45 271.2 68.0 L266.2 67.0 Q264.8 66.7 264.8 64.6 264.8 61.35 265.5 47.0 265.55 45.05 267.7 45.5 L272.55 46.7 Q273.9 47.0 274.1 49.1"/><path fill="#fad47b" d="M283.6 48.6 Q283.65 46.8 285.5 46.9 L289.75 47.05 Q290.7 46.9 291.1 47.5 291.5 47.95 291.6 49.1 L292.7 57.55 Q293.05 59.7 294.95 59.7 296.65 59.6 299.25 58.7 L300.8 58.65 301.45 59.95 Q302.1 62.1 302.35 64.8 302.6 66.7 300.95 67.4 299.05 68.1 294.1 68.85 L286.4 69.55 Q285.15 69.5 284.7 69.1 284.2 68.75 284.05 67.6 283.8 65.25 283.65 58.8 283.45 52.05 283.6 48.6"/><path fill="#007b95" d="M379.1 83.8 Q378.05 92.2 376.8 96.9 375.7 100.8 377.8 106.2 379.85 111.3 386.45 121.5 391.55 129.3 396.75 136.35 394.0 143.25 388.4 158.85 L386.9 161.4 Q385.95 162.35 384.5 162.5 L374.55 162.8 Q371.65 163.05 370.7 166.35 L363.05 191.9 Q361.5 197.1 358.55 198.25 355.2 199.5 349.3 200.75 L338.9 202.3 Q336.55 202.45 335.2 203.25 333.7 204.05 332.7 205.95 328.8 213.05 318.75 229.55 306.05 231.6 291.5 231.9 L268.0 231.05 262.3 222.8 Q258.55 217.25 257.05 214.4 255.7 212.15 252.3 211.75 L247.4 211.5 Q245.2 211.5 244.0 209.15 L240.9 202.3 227.3 190.9 Q226.75 189.0 225.4 185.8 L223.15 180.25 Q222.55 178.7 221.8 177.9 220.9 176.95 219.3 176.4 L214.15 175.0 209.05 173.85 Q206.0 173.25 204.8 170.2 L196.3 151.6 185.95 129.25 Q186.75 125.25 188.8 118.55 193.05 132.15 203.0 144.9 212.05 156.6 218.65 158.95 220.7 159.75 228.6 156.2 L259.75 136.45 Q269.15 126.7 272.1 123.9 297.9 127.25 327.25 118.15 361.9 107.3 379.1 83.8"/><path fill="#007b95" d="M211.55 67.7 Q213.85 70.6 213.2 78.75 211.25 80.85 205.75 87.9 201.95 82.85 195.55 76.5 188.5 69.55 183.3 66.25 181.35 65.0 180.15 65.05 179.05 65.05 177.65 66.05 174.65 68.1 168.35 67.6 162.35 67.0 156.75 64.45 153.85 63.0 151.45 65.2 149.65 66.85 145.7 68.0 143.3 68.65 141.25 71.5 139.1 74.4 133.8 83.8 129.05 92.35 127.1 96.65 126.0 98.95 126.9 101.35 128.1 104.35 131.45 109.05 134.4 113.05 136.65 115.3 139.0 117.7 139.35 120.6 139.6 123.65 139.15 129.3 138.75 134.45 138.05 138.35 L134.5 140.2 Q129.85 136.95 123.3 131.7 115.9 125.65 113.75 123.0 111.6 120.4 109.5 108.5 107.5 97.4 107.9 94.0 108.15 91.45 112.0 82.65 115.55 74.7 119.0 68.15 109.95 52.45 86.45 17.25 89.4 14.45 92.15 12.75 99.05 13.85 123.25 19.65 148.2 25.6 151.2 27.1 153.45 28.15 157.45 33.25 L162.8 40.75 166.65 40.55 Q171.05 41.0 189.8 52.45 208.3 63.7 211.55 67.7"/><path fill="#fad47b" d="M145.1 104.05 Q143.1 101.9 144.3 99.85 L151.6 87.3 Q156.4 79.5 159.6 76.05 161.35 74.1 162.75 74.05 164.15 73.95 166.65 75.45 172.2 79.0 186.0 89.15 188.6 91.0 187.1 94.35 183.75 101.95 179.25 108.65 178.05 110.5 175.9 109.4 170.6 106.8 163.8 100.9 162.75 100.0 162.55 99.45 162.3 98.9 162.8 98.2 L165.35 95.05 Q166.55 93.65 167.85 95.15 170.8 98.7 172.95 99.9 174.75 101.05 175.7 99.35 177.25 96.7 177.95 93.45 L178.1 91.6 Q177.95 90.7 177.0 89.9 171.85 85.95 164.9 82.4 L163.4 82.35 Q162.55 82.6 162.05 83.3 160.05 85.85 157.2 90.85 154.5 95.7 152.8 99.4 152.0 101.45 154.15 103.65 158.6 107.6 170.15 116.35 L171.25 117.35 Q171.6 118.0 171.55 119.0 171.35 121.55 170.8 123.1 170.15 124.65 167.95 123.3 156.65 115.75 145.1 104.05"/><path fill="#fad47b" d="M39.5 169.7 Q40.5 168.8 42.1 169.55 L51.4 174.25 Q52.25 174.7 52.25 175.4 52.25 176.05 51.6 176.65 L42.0 184.9 30.45 194.05 29.4 194.65 28.2 194.4 Q25.8 193.1 24.1 191.25 23.3 190.45 24.45 189.3 26.9 186.6 38.05 177.7 L39.55 177.65 Q40.25 178.1 40.55 178.45 40.95 178.85 40.1 179.55 L28.55 189.0 Q28.0 189.5 28.4 190.3 L29.3 191.1 Q29.8 191.6 30.95 190.7 L45.85 177.65 Q46.85 176.6 45.95 175.95 43.05 174.0 40.75 173.15 L39.85 172.95 Q39.35 172.95 38.8 173.4 35.55 175.85 18.75 190.6 17.75 191.5 18.75 192.15 20.6 193.4 24.1 194.9 25.15 195.55 24.65 196.3 L23.2 198.3 Q22.3 199.2 21.4 198.55 14.9 194.85 13.55 193.6 12.6 192.8 13.75 191.5 19.25 185.55 39.5 169.7"/><path fill="#fad47b" d="M350.55 108.15 Q351.3 116.4 351.0 121.3 350.8 124.3 347.95 124.8 343.4 125.7 334.95 128.15 332.2 128.95 331.6 130.55 330.65 133.2 328.85 139.4 326.9 145.65 326.6 147.4 326.0 150.5 322.25 150.5 L281.8 153.8 275.15 147.55 Q283.3 137.35 285.4 136.2 L298.25 136.65 316.0 138.75 Q319.55 139.25 320.5 136.2 324.1 124.9 325.5 123.45 326.15 122.85 333.25 121.75 340.7 120.6 341.8 119.95 343.3 119.05 343.8 111.45 L350.55 108.15"/><path fill="#fad47b" d="M221.55 190.45 L223.85 190.55 234.5 192.5 Q236.15 192.9 237.05 192.5 237.95 192.2 239.0 190.9 240.65 188.85 242.65 184.75 L251.05 192.2 Q248.9 195.0 244.85 198.75 240.8 202.4 239.7 202.55 238.7 202.75 233.65 201.0 229.0 199.4 227.45 198.55 226.3 197.9 225.8 198.15 L224.75 199.05 Q223.55 200.15 219.5 206.6 215.7 212.6 213.5 216.7 L210.2 214.65 Q211.55 209.55 215.0 201.85 217.75 195.55 219.8 192.05 220.5 190.8 221.55 190.45"/><path fill="#d29660" d="M265.25 139.85 Q273.95 146.65 286.95 158.2 298.4 168.45 308.45 178.2 314.2 183.85 314.85 192.6 315.45 200.95 311.05 207.75 305.6 216.2 296.2 218.9 287.0 221.45 280.7 216.85 273.25 211.3 257.85 198.05 242.85 185.1 236.1 178.45 229.35 171.85 229.0 161.4 228.6 151.4 234.05 144.95 240.2 137.8 250.1 136.5 259.4 135.3 265.25 139.85"/><path fill="#d29660" d="M96.45 178.15 Q86.5 170.25 75.15 167.15 62.9 163.95 51.3 167.0 L43.8 164.85 Q41.35 164.2 39.15 165.7 36.2 167.7 29.6 172.95 29.45 171.2 30.0 169.35 30.55 167.3 31.8 165.95 33.75 163.7 39.3 158.55 44.8 153.3 48.15 150.55 60.7 140.2 80.3 140.3 101.9 140.35 120.35 153.95 133.95 163.95 141.15 185.6 148.6 208.05 139.9 217.95 136.7 221.55 128.3 228.4 121.45 234.0 114.55 239.0 111.6 241.1 108.35 241.5 105.05 241.8 103.0 240.35 L105.45 238.15 108.1 235.15 Q109.35 233.35 112.3 230.15 115.2 227.0 117.2 225.25 118.95 223.7 119.45 222.05 119.75 220.8 119.5 218.6 118.55 207.3 112.25 196.45 106.15 185.9 96.45 178.15"/><path fill="#d29660" d="M167.55 440.85 Q165.2 439.35 164.35 437.35 163.65 435.6 164.05 432.9 164.75 427.65 166.35 418.85 168.2 408.8 169.9 401.45 171.5 394.3 176.45 390.25 179.95 387.3 186.65 385.1 185.8 389.15 185.15 394.85 184.75 399.35 186.75 400.65 197.35 408.0 220.7 408.7 243.35 409.45 258.1 403.55 263.3 401.4 262.3 392.4 268.4 392.95 272.1 396.55 275.3 399.65 275.5 403.85 275.65 407.2 275.2 420.65 L274.55 436.95 Q274.4 440.05 273.45 441.75 272.55 443.3 270.55 444.65 263.4 449.35 250.3 452.0 237.35 454.6 222.4 454.5 187.6 454.2 167.55 440.85"/><path fill="#d29660" d="M420.85 399.6 Q424.9 403.35 425.6 407.25 426.5 412.25 427.6 423.75 L429.0 440.05 Q429.35 445.35 425.8 448.65 419.7 454.5 408.05 457.95 396.55 461.4 382.5 461.75 350.6 462.55 327.8 448.75 320.8 444.55 320.0 435.75 319.6 432.3 320.0 423.05 L320.65 408.7 Q320.9 403.4 325.05 400.05 328.65 397.1 333.35 396.9 333.45 401.85 334.05 404.05 334.95 407.2 337.45 408.9 346.85 415.7 369.2 417.05 393.2 418.5 408.35 410.95 414.95 407.75 412.6 395.95 416.65 395.7 420.85 399.6"/><path fill="#00667c" d="M321.65 48.6 L322.55 52.6 Q323.65 58.0 317.85 63.9 313.0 69.0 306.4 71.7 305.65 66.05 303.9 56.9 302.15 47.75 300.8 42.75 299.9 39.2 302.7 36.5 304.0 37.15 304.4 38.65 306.4 47.0 307.6 50.3 308.45 52.5 311.0 52.1 L316.0 50.85 Q319.1 49.8 321.65 48.6"/><path fill="#5c9e9f" d="M313.65 22.85 Q315.55 24.5 316.15 26.55 319.9 40.8 321.65 48.6 319.1 49.8 316.0 50.85 L311.0 52.1 Q308.45 52.5 307.6 50.3 306.4 47.0 304.4 38.65 304.0 37.15 302.7 36.5 L308.25 30.6 Q312.05 26.1 313.65 22.85"/><path fill="#5c9e9f" d="M322.85 54.7 Q322.3 50.1 320.25 43.05 333.45 42.75 352.65 53.15 371.15 63.3 380.55 75.15 L380.05 80.3 Q368.75 68.75 350.2 60.45 331.75 52.25 322.85 54.7"/><path fill="#5c9e9f" d="M297.4 238.65 Q339.25 236.15 371.0 215.55 405.8 192.95 414.2 156.7 414.0 181.95 405.2 203.8 396.65 225.2 380.9 241.1 347.95 274.4 297.25 274.9 247.75 275.45 216.6 248.3 184.4 220.25 181.9 170.85 189.7 206.0 224.05 224.4 255.55 241.25 297.4 238.65"/><path fill="#00667c" d="M376.15 103.65 Q380.0 111.4 385.55 120.2 391.35 129.25 397.0 136.1 394.6 141.8 392.45 147.65 387.3 139.3 382.25 125.5 377.1 111.75 376.15 103.65"/><path fill="#5c9e9f" d="M397.55 153.75 Q395.45 152.55 392.45 147.65 394.6 141.8 397.0 136.1 401.35 141.5 404.75 144.45 406.45 145.85 408.95 146.4 L413.1 146.9 Q413.5 148.9 413.6 153.05 L413.75 159.4 Q410.0 158.95 404.7 156.95 399.95 155.25 397.55 153.75"/><path fill="#5c9e9f" d="M389.55 230.65 L394.15 235.75 Q378.65 260.95 350.45 274.15 324.75 286.15 294.2 285.95 264.75 285.75 240.35 274.4 215.0 262.65 203.75 242.7 L207.1 238.65 Q222.05 256.45 247.1 266.05 271.15 275.3 298.35 274.75 326.2 274.15 349.65 263.35 374.85 251.75 389.55 230.65"/><path fill="#5c9e9f" d="M253.2 342.2 Q252.15 343.65 251.4 349.95 250.75 355.05 250.75 358.2 250.75 360.6 251.05 361.75 251.4 363.05 252.45 364.2 L256.6 369.3 260.5 374.7 Q261.9 376.85 261.9 380.55 L262.15 388.4 262.55 396.4 Q262.7 398.9 261.2 400.95 259.75 402.8 257.3 403.8 L250.85 405.85 243.3 407.45 Q245.65 399.75 246.65 393.95 247.6 388.2 247.8 380.5 248.0 377.15 245.35 372.9 242.9 369.0 239.65 366.55 233.85 369.5 229.25 371.25 223.55 373.3 221.8 372.65 220.0 372.0 215.9 366.05 212.0 360.35 211.6 358.4 211.35 356.8 212.05 352.75 212.75 349.05 213.7 345.95 215.2 349.8 218.9 353.75 222.5 357.4 225.0 358.05 229.2 359.05 233.95 359.0 241.1 359.0 245.3 356.25 247.9 354.55 247.8 350.65 247.75 347.0 245.5 344.05 242.6 340.3 237.2 336.15 231.6 331.85 229.35 331.8 227.75 331.7 223.55 333.6 219.1 335.45 216.3 337.5 216.35 333.85 217.2 328.25 217.95 322.85 218.8 319.6 228.75 324.7 244.0 328.95 257.6 332.75 268.35 334.05 263.65 336.0 259.4 338.2 254.0 340.95 253.2 342.2"/><path fill="#5c9e9f" d="M179.25 498.75 L179.4 489.9 Q179.4 488.05 180.35 486.7 181.2 485.5 183.25 484.15 L203.45 469.45 222.85 454.6 Q236.9 454.1 247.9 452.3 263.85 449.75 270.65 445.0 L270.2 466.6 Q270.2 470.95 266.35 473.05 258.5 477.25 224.5 491.3 195.3 503.5 179.4 509.6 179.2 506.35 179.25 498.75"/><path fill="#ac7b4d" d="M261.5 412.65 Q270.9 409.3 275.3 404.35 275.45 409.95 275.2 420.45 274.95 431.9 274.5 437.75 274.15 442.2 269.85 445.3 265.8 448.05 254.8 450.7 244.45 453.15 236.35 453.65 237.65 445.9 237.9 435.05 238.15 424.75 237.35 416.7 251.0 416.3 261.5 412.65"/><path fill="#ac7b4d" d="M262.5 392.4 Q268.5 393.25 272.0 396.4 275.4 399.5 275.45 404.05 270.95 409.95 258.05 413.4 247.1 416.35 235.55 416.5 238.25 415.8 240.6 413.15 242.9 410.5 243.6 407.55 249.2 406.8 257.75 403.4 260.75 402.2 261.8 399.5 262.75 397.05 262.5 392.4"/><path fill="#5c9e9f" d="M345.0 344.4 Q343.2 346.35 344.1 349.55 345.1 353.15 348.75 355.2 353.1 357.75 360.5 360.1 368.35 362.45 372.05 362.0 374.85 361.6 379.05 358.05 383.4 354.25 385.4 350.0 386.15 354.05 386.1 356.15 385.9 359.75 382.0 365.35 378.2 370.95 375.55 371.65 373.3 372.25 366.65 370.6 361.05 369.15 357.15 367.45 354.4 369.75 351.5 373.25 348.75 376.55 348.3 377.9 347.25 380.95 348.4 393.6 349.55 406.55 351.75 415.15 334.3 410.7 333.7 401.45 333.2 394.35 333.7 379.95 333.8 376.9 334.8 374.6 335.7 372.55 337.9 369.7 L341.6 364.55 Q343.35 361.7 343.15 359.3 342.9 355.8 342.0 351.55 340.7 345.65 339.0 343.8 336.95 341.55 332.55 338.15 328.05 334.65 325.45 333.4 336.6 332.35 352.4 327.4 367.9 322.45 376.45 317.35 381.55 324.8 383.15 338.75 379.1 335.7 373.75 332.7 368.05 329.45 366.5 329.65 364.2 329.9 356.45 335.2 348.6 340.55 345.0 344.4"/><path fill="#ac7b4d" d="M334.35 403.95 Q335.3 407.25 337.4 408.8 342.15 412.45 351.75 415.15 352.35 417.95 353.85 420.65 355.75 424.0 358.35 425.6 344.3 424.0 334.95 419.3 323.0 413.2 322.25 403.35 324.2 400.85 327.05 399.15 330.25 397.3 333.65 397.05 333.4 400.9 334.35 403.95"/><path fill="#ac7b4d" d="M356.65 425.1 Q356.1 431.95 356.8 442.2 357.6 453.5 359.4 459.75 350.4 458.7 340.9 455.2 330.5 451.4 325.4 446.6 319.9 441.5 319.9 434.85 319.9 427.0 320.3 419.0 320.9 406.5 322.1 403.0 322.25 411.8 333.15 418.15 343.0 423.95 356.65 425.1"/><path fill="#5c9e9f" d="M425.8 488.25 Q431.25 487.7 439.2 485.8 447.0 483.85 449.15 482.65 451.4 481.45 452.75 481.3 454.25 481.25 454.45 482.4 454.7 484.2 454.25 492.75 L453.55 503.2 Q453.2 506.95 448.8 508.0 L419.7 514.25 391.75 519.95 Q388.65 520.6 386.65 519.95 385.1 519.5 382.7 517.55 330.65 477.15 327.1 474.55 324.1 472.45 323.9 468.3 323.7 464.0 323.75 457.25 323.85 449.8 324.15 445.6 328.15 449.6 336.55 453.5 344.9 457.45 351.6 458.5 356.7 463.7 372.4 477.6 L391.4 494.15 Q393.6 496.15 396.5 494.95 401.7 493.0 409.1 491.2 417.9 489.0 425.8 488.25"/><path fill="#ac7b4d" d="M311.05 181.75 Q315.5 188.15 314.65 196.45 313.9 204.0 309.35 209.6 303.15 217.15 294.75 219.3 286.55 221.25 280.9 217.15 274.6 212.4 270.05 208.25 282.1 216.6 291.35 215.0 299.15 213.7 304.25 205.55 308.2 199.45 307.6 192.0 307.15 185.15 303.6 181.5 L311.05 181.75"/><path fill="#00667c" d="M123.7 60.45 L119.2 68.35 Q114.45 60.2 102.65 41.85 91.65 24.85 86.25 17.0 L89.1 15.15 Q96.6 24.5 106.5 37.4 117.15 51.35 123.7 60.45"/><path fill="#00667c" d="M118.65 90.6 Q123.5 96.35 126.65 97.3 125.75 99.75 127.15 102.05 132.3 110.75 136.0 114.5 138.05 116.5 138.75 118.35 139.2 119.55 139.25 121.5 L138.95 129.25 138.0 138.55 Q135.25 139.85 134.35 140.55 L122.6 131.1 Q114.9 124.65 113.65 122.85 112.05 120.45 109.75 109.1 107.4 97.6 107.95 94.25 108.85 89.45 112.9 80.3 113.65 84.7 118.65 90.6"/><path fill="#5c9e9f" d="M126.25 99.4 Q126.1 98.45 126.65 97.3 L128.7 92.45 Q130.3 98.45 136.85 106.0 143.2 113.35 151.9 119.55 172.5 134.3 185.2 130.4 183.7 135.15 182.25 144.25 180.8 153.3 181.05 156.4 L174.75 157.3 168.9 157.8 Q165.5 163.6 159.75 171.55 153.6 179.9 149.65 183.8 147.75 194.6 144.2 201.9 143.7 195.35 141.9 188.4 140.05 181.4 137.35 176.1 141.05 175.85 144.3 173.55 147.75 170.95 149.5 166.85 L150.1 165.75 151.2 165.05 Q157.95 162.6 162.8 155.9 167.4 149.55 166.95 144.25 164.75 140.3 161.65 136.95 160.3 135.55 156.9 134.7 L150.95 134.45 Q143.2 136.25 138.45 138.3 138.9 134.9 139.15 128.8 139.35 122.9 139.1 120.9 L138.55 117.7 Q138.1 116.3 136.75 115.2 135.1 113.9 131.75 109.3 128.15 104.4 126.9 101.4 126.3 100.1 126.25 99.4"/><path fill="#ac7b4d" d="M70.75 166.55 Q60.25 164.75 51.2 167.0 48.9 166.15 44.3 164.95 41.0 164.1 39.05 165.65 L34.35 169.15 29.65 172.9 Q29.35 172.05 29.3 170.85 29.3 169.55 29.6 168.7 54.5 155.3 80.85 163.85 108.4 172.75 120.8 201.0 121.3 202.2 121.95 202.4 L123.35 202.1 Q139.1 192.95 141.05 186.45 143.75 193.7 144.3 202.2 144.85 212.95 140.55 217.35 135.8 222.35 127.45 229.1 120.55 234.75 114.8 238.75 112.05 240.7 108.85 241.25 105.65 241.75 102.8 240.6 105.45 238.45 110.4 232.75 L117.0 225.1 Q118.05 224.1 118.75 222.15 119.55 220.05 119.3 218.3 114.5 188.6 91.45 174.35 81.75 168.4 70.75 166.55"/><path fill="#00667c" d="M63.4 184.25 L27.15 213.75 24.25 215.7 Q23.0 216.05 21.0 215.1 9.6 209.65 8.15 208.3 7.2 207.4 5.4 203.15 3.6 198.85 3.35 196.75 L12.35 201.65 Q17.2 204.2 19.35 205.15 21.15 206.0 22.15 205.95 23.65 205.85 25.35 204.2 30.1 199.6 43.25 188.3 59.1 174.6 64.4 171.35 64.85 172.45 65.3 175.2 L65.75 179.6 Q65.75 181.4 65.3 182.25 64.9 183.1 63.4 184.25"/><path fill="#5c9e9f" d="M103.8 239.8 Q102.3 241.3 86.5 249.9 71.25 258.25 68.4 259.4 63.95 261.2 61.1 258.3 57.3 254.25 54.7 250.75 82.85 235.6 100.15 222.1 103.1 219.8 104.45 217.3 105.85 214.75 105.7 211.5 105.4 203.15 102.05 193.4 98.35 182.25 92.4 175.25 104.85 183.45 112.05 196.3 117.9 206.75 119.3 218.3 119.85 222.6 116.3 225.9 115.35 226.85 110.15 232.75 L103.8 239.8"/><path fill="#5c9e9f" d="M51.15 244.65 Q51.15 246.25 55.25 251.45 58.6 255.65 62.4 259.6 60.1 266.3 53.35 289.35 52.85 290.95 51.8 291.6 L49.25 291.65 Q45.45 290.05 42.65 289.85 41.2 289.75 39.85 288.8 38.4 287.7 38.0 286.15 36.4 279.95 33.9 263.95 31.2 247.35 31.25 242.5 33.75 244.25 40.55 245.0 L51.15 244.65"/><path fill="#5c9e9f" d="M37.7 285.0 Q38.65 287.95 40.0 288.9 40.7 289.4 42.45 289.55 L45.85 290.3 Q48.1 290.95 49.75 291.75 49.0 295.25 46.55 296.95 44.05 298.6 41.0 297.4 37.45 295.95 33.65 293.85 29.2 291.4 28.3 290.0 27.05 288.0 22.3 275.65 18.45 265.6 15.5 257.25 19.35 257.8 24.35 254.65 29.8 251.2 31.05 246.35 31.95 254.05 34.3 267.65 36.65 281.8 37.7 285.0"/><path fill="#5c9e9f" d="M1.35 255.55 Q3.2 259.05 7.85 260.05 11.95 260.85 16.0 259.25 17.3 263.95 21.75 275.45 26.65 288.0 28.3 290.0 29.15 290.95 33.95 293.7 38.65 296.4 41.0 297.4 39.8 299.2 38.5 299.8 37.0 300.55 34.9 299.8 32.4 299.0 27.3 296.1 21.65 292.95 19.65 290.95 16.05 287.35 10.15 275.95 4.25 264.5 1.35 255.55"/><path fill="#5c9e9f" d="M2.7 278.65 Q4.95 278.4 6.35 276.35 7.9 274.1 7.5 270.95 9.3 275.05 12.45 280.55 15.85 286.65 18.75 290.4 12.45 287.8 9.15 285.75 3.5 282.3 2.7 278.65"/><path fill="#0f141b" d="M296.5 23.8 Q296.1 25.3 295.45 25.15 294.85 24.95 295.1 23.5 297.65 10.8 299.85 4.3 300.2 2.9 299.0 2.75 294.65 2.45 277.5 2.45 260.05 2.45 252.3 2.75 251.25 2.9 252.05 3.65 L264.2 15.4 276.9 26.95 Q278.25 28.1 277.75 28.55 277.25 29.05 275.95 28.05 270.75 23.95 262.55 16.45 L250.4 5.0 Q248.5 3.1 248.95 1.95 249.4 0.9 251.85 0.75 260.25 0.4 274.85 0.15 293.35 -0.25 299.4 0.2 301.35 0.4 302.2 1.75 303.0 3.0 302.4 4.6 299.45 12.9 296.5 23.8"/><path fill="#0f141b" d="M301.1 2.9 Q288.1 8.3 286.1 9.3 285.2 9.8 285.25 11.6 L286.05 19.4 Q286.15 21.1 285.45 21.8 284.75 22.6 282.95 22.45 L270.25 22.1 268.6 20.4 Q273.65 20.0 282.85 20.65 284.3 20.9 284.1 19.4 283.6 14.65 283.45 11.8 283.4 9.9 283.65 9.25 284.0 8.4 285.2 7.75 286.55 7.05 299.7 1.35 L301.1 2.9"/><path fill="#0f141b" d="M314.0 24.75 Q312.8 22.85 306.85 19.9 302.25 17.65 297.85 16.05 L298.3 14.3 Q313.55 20.15 315.8 23.75 316.95 25.55 320.0 36.85 322.5 46.45 323.9 53.2 325.4 60.25 315.7 67.65 305.05 75.75 288.15 77.65 275.3 79.15 262.35 74.55 248.8 69.75 247.55 62.2 247.0 59.25 249.2 46.7 251.25 35.15 252.8 30.15 253.7 27.35 258.25 23.6 262.1 20.45 266.45 18.25 L267.7 19.65 Q263.0 22.1 259.3 25.2 255.45 28.5 254.7 30.85 253.25 35.75 251.5 47.25 249.7 59.05 250.15 61.85 251.15 67.5 262.75 71.95 275.0 76.6 287.95 75.1 304.0 73.2 313.95 65.8 322.7 59.3 321.45 53.5 L317.65 37.2 Q315.0 26.3 314.0 24.75"/><path fill="#0f141b" d="M312.2 26.95 Q310.85 29.9 307.35 32.9 306.4 33.7 305.85 33.3 305.35 32.85 306.3 31.9 308.8 29.45 311.0 26.2 311.7 25.1 312.3 25.4 312.8 25.75 312.2 26.95"/><path fill="#0f141b" d="M316.35 51.8 Q313.1 52.9 310.25 53.25 307.35 53.6 306.7 51.35 304.85 45.45 303.3 38.5 303.15 37.8 302.8 37.55 302.45 37.3 301.7 37.15 289.75 35.4 282.55 33.75 282.0 33.55 282.0 34.0 L282.1 39.25 Q281.95 41.5 279.55 41.25 273.8 40.55 266.6 38.2 257.35 35.25 253.55 31.65 L254.35 29.2 Q257.15 32.6 266.0 35.7 273.35 38.25 279.35 39.0 279.75 39.1 279.9 38.45 280.2 36.45 280.15 33.75 280.15 31.1 282.7 31.75 291.0 33.75 302.15 35.35 303.5 35.5 304.2 36.05 304.9 36.7 305.25 38.05 306.2 42.75 308.7 50.45 308.9 51.1 309.15 51.2 L310.1 51.25 Q312.85 50.95 316.15 49.8 319.4 48.65 321.2 47.35 L321.65 49.35 Q319.65 50.65 316.35 51.8"/><path fill="#0f141b" d="M284.55 57.65 Q284.8 64.0 285.15 67.85 285.2 68.55 285.95 68.55 L293.05 67.85 Q297.95 67.15 300.95 66.25 301.3 66.15 301.25 65.4 L300.35 59.8 Q300.2 59.45 299.7 59.6 L294.65 60.7 Q292.35 60.9 291.95 59.0 291.0 52.75 290.7 49.15 290.65 48.0 289.75 48.0 L285.15 47.85 Q284.45 47.85 284.45 48.7 284.3 51.1 284.55 57.65 M285.05 45.95 L290.15 46.1 Q291.45 46.1 291.95 46.65 292.45 47.25 292.5 48.6 292.8 52.3 293.85 58.15 294.0 58.9 294.7 58.7 L299.45 57.5 Q301.7 56.8 302.25 59.1 L303.55 65.6 Q303.7 67.7 301.75 68.3 L293.3 70.0 285.65 70.8 Q283.1 70.8 282.9 68.3 282.05 55.0 282.5 48.25 282.7 45.75 285.05 45.95"/><path fill="#0f141b" d="M274.85 48.7 Q275.4 59.8 274.85 66.85 274.7 69.75 272.05 69.3 L265.7 67.95 Q264.3 67.7 263.85 67.05 263.45 66.4 263.6 64.9 L264.6 46.65 Q264.8 43.75 267.55 44.55 L272.8 45.9 Q274.85 46.35 274.85 48.7 M266.45 47.05 L265.8 64.7 Q265.8 65.4 265.95 65.6 266.1 65.8 266.55 65.9 L271.85 67.0 Q272.7 67.2 272.75 66.25 273.4 57.05 273.15 48.75 273.15 47.85 272.25 47.6 L267.35 46.45 Q266.45 46.25 266.45 47.05"/><path fill="#0f141b" d="M352.85 51.8 Q369.35 60.7 382.9 75.65 413.25 109.15 414.95 153.25 416.05 180.65 406.95 204.2 398.35 226.4 381.65 242.95 365.55 259.0 344.05 267.65 322.55 276.35 298.95 276.35 242.65 276.35 211.25 245.8 180.2 215.5 179.45 160.9 178.95 126.4 201.15 92.75 222.1 60.75 249.9 48.85 L249.6 51.6 Q223.3 63.65 203.3 94.55 182.1 127.4 182.35 161.1 182.65 214.45 213.65 244.1 244.4 273.5 298.85 273.5 321.55 273.5 342.3 265.1 363.15 256.65 378.95 241.05 395.35 224.8 403.85 203.15 412.9 180.05 412.05 153.3 410.8 110.75 381.4 77.8 368.3 63.15 352.35 54.3 336.2 45.35 320.55 44.2 L320.2 41.8 Q336.35 42.8 352.85 51.8"/><path fill="#0f141b" d="M320.25 42.6 Q329.8 44.0 333.0 52.15 336.35 60.6 329.4 68.45 315.55 84.25 289.95 86.55 265.3 88.8 249.25 77.5 241.7 72.15 240.3 64.8 238.95 58.1 243.05 53.5 L248.35 51.0 Q242.0 54.8 242.4 62.25 242.85 69.95 250.7 75.45 265.65 86.05 289.35 84.0 314.25 81.8 327.45 66.8 333.35 60.0 331.0 53.35 328.7 46.85 320.55 44.75 L320.25 42.6"/><path fill="#0f141b" d="M375.5 70.2 Q374.35 85.65 351.1 99.0 327.9 112.35 295.2 116.2 266.0 119.6 239.6 109.2 211.55 98.2 212.15 80.1 L213.95 78.3 Q213.35 96.25 240.55 106.9 266.1 116.9 295.0 113.5 327.35 109.65 350.55 96.35 373.55 83.05 373.55 68.4 L375.5 70.2"/><path fill="#0f141b" d="M379.05 85.1 Q368.9 100.75 346.3 111.8 323.45 122.95 296.3 125.25 266.15 127.85 239.45 119.0 209.15 108.9 205.1 89.5 L206.7 87.4 Q210.2 105.95 238.5 115.95 264.65 125.2 296.2 122.55 324.05 120.2 347.05 108.6 370.05 96.95 379.4 80.65 L379.05 85.1"/><path fill="#0f141b" d="M308.2 229.6 Q342.0 225.85 369.35 211.3 396.65 196.7 412.4 174.0 L412.15 177.95 Q396.85 200.05 369.4 214.4 342.0 228.8 308.3 232.3 276.5 235.7 246.95 229.4 210.1 221.6 186.55 199.9 L186.0 196.55 Q206.8 215.95 239.9 224.8 272.6 233.55 308.2 229.6"/><path fill="#0f141b" d="M301.2 242.25 Q334.6 240.15 362.6 227.35 391.05 214.4 408.35 192.85 L407.65 196.8 Q390.15 217.75 362.2 230.3 334.4 242.9 301.3 244.95 273.6 246.6 247.45 240.85 215.45 233.7 192.65 216.45 L191.55 212.95 Q211.4 228.8 240.75 236.55 269.65 244.25 301.2 242.25"/><path fill="#0f141b" d="M393.1 226.6 Q376.45 244.9 353.6 255.6 331.65 265.85 306.65 267.95 281.75 270.0 257.2 263.7 232.05 257.2 210.55 242.85 L207.4 238.1 Q229.05 253.5 254.8 260.5 279.95 267.3 305.65 265.15 331.6 263.0 354.45 252.0 378.25 240.6 395.7 220.9 L393.1 226.6"/><path fill="#0f141b" d="M308.95 177.4 Q315.05 183.3 315.8 192.0 316.6 200.8 311.7 208.35 305.6 217.85 295.6 220.3 286.35 222.5 279.9 217.75 272.35 212.2 256.85 198.8 241.7 185.8 235.1 179.3 227.55 172.0 227.3 161.2 227.0 151.15 232.9 144.25 239.4 136.7 249.2 135.15 258.9 133.65 265.7 138.95 274.5 145.8 287.45 157.4 299.15 167.8 308.95 177.4 M264.35 140.75 Q258.5 136.25 249.65 137.6 240.55 138.95 234.85 145.6 229.5 151.85 229.75 161.15 230.0 171.1 236.7 177.65 243.25 184.1 258.25 197.1 273.65 210.45 281.1 215.9 287.2 220.45 296.0 217.75 304.8 215.05 309.9 207.1 314.25 200.3 313.55 192.25 312.85 184.3 307.4 179.0 297.65 169.5 286.05 159.1 273.15 147.55 264.35 140.75"/><path fill="#0f141b" d="M247.9 151.2 Q251.65 151.2 254.1 153.9 256.45 156.45 256.45 160.2 256.45 164.05 253.75 166.4 251.2 168.6 247.35 168.6 243.45 168.6 240.9 165.7 238.6 163.0 238.75 159.45 238.85 156.05 241.3 153.7 243.85 151.15 247.9 151.2 M243.25 154.85 Q241.3 156.65 241.2 159.45 241.1 162.35 242.8 164.35 244.5 166.4 247.4 166.45 250.35 166.6 252.2 164.75 254.0 162.95 254.0 160.1 254.0 157.25 252.35 155.25 250.6 153.3 247.9 153.2 245.15 153.1 243.25 154.85"/><path fill="#0f141b" d="M293.65 188.4 Q296.1 191.15 296.1 194.75 296.1 199.25 293.4 201.95 291.0 204.45 287.25 204.45 282.85 204.45 280.2 201.7 277.7 199.15 277.55 194.9 277.45 191.0 280.05 188.35 282.85 185.6 287.25 185.6 291.05 185.55 293.65 188.4 M287.25 187.65 Q283.75 187.65 281.65 189.75 279.7 191.75 279.9 194.85 280.0 198.35 282.0 200.35 283.9 202.35 287.3 202.35 289.8 202.35 291.7 200.4 293.75 198.3 293.75 194.7 293.75 191.7 291.75 189.65 289.8 187.65 287.25 187.65"/><path fill="#0f141b" d="M303.95 180.65 Q309.25 186.6 308.95 194.7 308.65 202.0 303.9 208.35 299.45 214.35 292.5 215.9 286.55 217.25 282.5 214.85 281.4 214.2 281.65 213.65 L283.15 213.55 Q288.5 215.7 294.05 213.3 298.8 211.3 302.15 206.9 306.4 201.2 306.65 194.3 306.85 187.15 302.4 182.2 296.65 175.6 283.75 163.85 270.45 151.75 258.25 142.1 256.75 140.95 257.3 140.35 257.75 139.75 259.2 140.95 271.55 150.55 284.95 162.5 298.25 174.3 303.95 180.65"/><path fill="#0f141b" d="M273.85 124.0 Q265.7 131.35 260.45 137.45 L257.8 136.75 Q263.4 130.2 270.55 123.8 L273.85 124.0"/><path fill="#0f141b" d="M229.1 157.4 L221.65 160.0 218.65 160.5 Q217.35 160.35 215.7 159.2 197.55 146.4 188.5 120.9 L189.65 117.65 Q194.1 130.6 201.0 140.6 208.0 150.75 217.0 157.05 217.95 157.7 218.8 157.75 L221.05 157.4 Q225.9 155.95 229.3 154.6 L229.1 157.4"/><path fill="#0f141b" d="M224.1 179.7 L228.65 191.55 226.35 191.1 222.2 180.4 221.05 178.3 Q220.6 177.75 219.8 177.55 L208.25 175.0 Q206.55 174.7 205.65 173.8 204.85 173.1 204.15 171.4 188.95 139.0 185.4 130.2 L186.4 126.75 Q188.5 132.35 197.2 150.8 L206.45 170.25 207.4 171.8 Q207.85 172.25 208.85 172.45 212.1 173.0 220.6 175.6 222.0 176.05 222.7 176.95 223.35 177.7 224.1 179.7"/><path fill="#0f141b" d="M243.45 185.45 Q241.35 189.65 239.5 191.95 L237.65 193.5 235.0 193.7 223.3 191.55 221.75 191.7 Q221.15 192.0 220.6 192.95 218.55 196.45 215.9 202.45 213.05 208.9 211.15 215.0 L209.1 214.0 Q211.2 207.6 214.05 201.2 216.65 195.2 218.8 191.75 219.85 189.95 220.65 189.5 L223.3 189.45 235.0 191.7 236.75 191.6 237.9 190.6 Q239.65 188.35 241.95 184.2 L243.45 185.45"/><path fill="#0f141b" d="M251.95 193.05 L242.6 202.2 Q241.3 203.3 240.35 203.55 L238.25 203.5 Q233.15 202.2 226.85 199.25 226.15 199.0 225.65 199.7 L220.0 208.2 214.6 216.85 212.7 215.8 Q218.7 205.75 223.8 198.15 224.6 196.95 225.45 196.7 226.3 196.45 227.55 197.1 233.75 200.2 238.7 201.5 240.1 201.85 241.35 200.6 L250.25 191.6 251.95 193.05"/><path fill="#0f141b" d="M241.8 201.75 L245.2 209.45 Q245.65 210.5 247.4 210.5 250.8 210.35 254.0 210.6 256.5 210.9 258.1 213.85 263.25 222.8 269.35 231.2 L266.65 231.15 Q260.05 221.9 256.15 215.1 255.1 213.3 253.55 213.0 L247.4 212.6 Q245.65 212.6 244.75 212.1 243.85 211.65 243.3 210.35 L240.0 202.6 241.8 201.75"/><path fill="#0f141b" d="M326.4 124.1 Q325.95 124.45 325.65 125.2 323.6 130.0 321.4 137.25 320.35 140.65 316.8 140.15 299.15 137.6 287.45 136.95 L285.9 137.1 Q285.45 137.2 284.9 137.8 279.8 143.0 275.65 148.45 L273.9 147.2 Q278.25 141.65 283.4 136.35 284.35 135.35 285.15 135.1 L287.6 134.9 Q300.95 135.65 316.95 137.7 318.55 137.95 319.0 136.55 320.55 131.3 323.5 124.35 324.55 122.1 327.05 121.65 L340.05 119.45 341.25 119.05 341.75 118.25 Q342.55 115.9 342.9 112.0 L344.95 111.15 Q344.7 115.7 343.65 119.05 343.3 120.2 342.65 120.7 L340.6 121.35 327.5 123.75 Q326.7 123.85 326.4 124.1"/><path fill="#0f141b" d="M349.0 125.65 Q344.75 126.4 334.25 129.35 333.2 129.7 332.7 130.9 330.25 137.0 327.7 147.9 327.15 149.85 326.25 150.75 325.3 151.65 323.6 151.7 L282.85 154.8 280.6 152.85 302.35 150.7 322.6 149.15 Q324.6 149.1 325.05 147.3 325.95 143.7 327.9 138.1 329.5 133.3 330.85 130.1 331.35 128.75 331.9 128.2 332.45 127.65 333.6 127.3 344.75 124.3 348.35 123.75 349.65 123.55 349.7 121.65 349.9 116.6 349.5 108.7 L351.45 107.75 Q352.0 116.8 351.8 121.8 351.7 125.25 349.0 125.65"/><path fill="#0f141b" d="M397.55 137.15 Q390.9 154.25 389.05 160.3 388.5 161.9 387.7 162.6 386.8 163.3 385.0 163.4 L374.0 163.95 Q373.05 164.05 372.65 164.35 372.2 164.75 371.85 165.75 370.3 170.45 363.45 194.75 362.65 197.15 361.95 197.9 361.1 198.8 358.85 199.5 347.05 203.1 338.8 203.45 336.85 203.55 335.9 204.05 335.0 204.6 334.15 206.0 330.0 213.5 320.1 229.3 L317.15 229.85 Q324.85 217.75 332.0 204.6 333.1 202.6 334.75 201.75 336.15 201.0 338.6 200.85 L349.0 199.45 357.85 197.2 Q359.25 196.8 359.9 196.05 360.5 195.4 360.95 194.0 368.35 169.6 370.0 164.85 370.5 163.2 371.25 162.6 372.05 162.05 373.9 161.9 L384.75 161.4 386.3 161.0 Q386.75 160.7 387.05 159.65 389.55 151.7 395.95 135.3 L397.55 137.15"/><path fill="#0f141b" d="M422.85 274.75 L406.5 253.7 Q395.9 240.4 388.7 231.8 L390.5 229.75 408.75 251.9 425.55 273.25 Q428.0 276.45 425.5 279.55 402.7 307.5 370.75 322.15 338.7 336.8 298.8 337.45 259.0 338.0 228.6 326.0 191.45 311.35 176.7 280.45 175.9 278.85 176.1 277.05 176.25 275.3 177.2 273.95 179.55 270.55 190.3 257.1 201.0 243.55 206.0 237.65 L208.15 239.75 Q202.75 246.1 193.35 258.0 183.5 270.55 180.15 275.5 179.45 276.55 179.5 277.35 L180.0 278.9 Q193.45 306.15 224.3 320.3 254.9 334.3 298.85 333.6 338.6 332.95 369.4 319.05 400.25 305.1 422.8 277.5 L423.45 276.2 Q423.5 275.55 422.85 274.75"/><path fill="#0f141b" d="M377.55 316.7 Q373.1 306.25 364.65 288.2 356.65 271.05 351.9 261.85 L353.8 260.85 Q358.85 270.3 366.7 286.55 375.75 305.3 379.85 315.4 L377.55 316.7"/><path fill="#0f141b" d="M298.25 274.8 L297.25 335.5 294.4 335.5 Q294.45 325.1 295.1 304.05 295.6 284.85 296.05 274.8 L298.25 274.8"/><path fill="#0f141b" d="M239.6 262.9 Q230.35 282.0 217.7 318.55 L215.3 317.4 Q227.05 282.8 237.65 261.95 L239.6 262.9"/><path fill="#0f141b" d="M235.45 336.25 Q230.8 332.8 229.0 332.8 227.15 332.8 222.5 335.25 217.95 337.7 216.9 339.05 215.9 340.4 214.3 348.4 212.6 356.6 213.15 358.55 213.65 360.6 216.9 365.55 220.3 370.6 221.8 371.35 223.3 372.15 230.8 369.45 237.95 366.9 243.25 363.95 244.5 363.2 244.9 363.8 245.2 364.45 244.0 365.15 238.35 368.6 231.0 371.5 222.85 374.6 220.85 373.5 218.7 372.35 214.95 367.0 211.15 361.8 210.5 359.25 209.95 357.0 211.65 347.9 213.4 338.9 214.55 337.35 215.75 335.75 221.2 333.2 226.75 330.5 229.0 330.5 231.35 330.5 236.9 334.85 241.65 338.7 245.3 342.9 246.5 344.25 246.0 344.7 245.55 345.2 244.25 343.9 240.1 339.6 235.45 336.25"/><path fill="#0f141b" d="M214.85 317.2 Q214.55 321.25 215.15 327.05 215.65 332.35 216.75 337.3 L214.85 339.3 Q213.6 334.3 212.9 327.15 212.15 320.3 212.45 315.75 L214.85 317.2"/><path fill="#0f141b" d="M193.0 368.7 Q191.2 371.35 188.8 381.6 186.5 391.6 186.3 397.05 186.25 398.05 186.9 398.9 L189.05 400.7 Q199.1 406.95 223.15 407.45 247.15 407.9 257.35 402.2 L260.25 399.85 Q260.95 398.9 260.95 397.45 L260.7 379.85 Q260.6 378.0 260.3 377.15 260.05 376.3 259.15 375.1 253.75 367.5 252.2 365.75 250.7 364.0 250.1 362.6 249.4 361.1 249.45 359.3 249.65 350.9 251.05 344.3 251.45 342.55 252.2 341.55 253.0 340.5 254.45 339.65 260.55 336.25 267.1 333.6 L272.1 334.3 Q264.1 337.35 255.75 342.0 253.9 343.0 253.45 345.05 252.4 349.8 252.1 359.25 252.1 360.85 252.45 361.8 252.9 362.75 254.2 364.25 L261.35 373.35 263.0 376.05 263.45 379.65 263.75 397.45 Q263.75 401.9 258.7 404.5 247.35 410.4 223.6 410.15 199.4 409.8 188.05 403.15 183.4 400.4 183.6 397.05 183.8 391.65 186.2 381.15 188.7 370.1 190.65 367.15 192.55 364.4 200.15 358.5 206.65 353.4 212.55 349.6 L212.25 352.85 Q206.85 356.25 201.05 361.0 194.8 366.05 193.0 368.7"/><path fill="#0f141b" d="M208.9 397.6 Q208.9 388.4 212.6 382.4 213.45 381.2 213.95 381.5 214.55 381.75 213.95 383.1 211.0 389.6 210.4 397.7 210.25 399.35 209.6 399.35 208.95 399.3 208.9 397.6"/><path fill="#0f141b" d="M186.55 386.65 Q173.35 390.7 171.4 401.0 L168.1 417.9 Q165.7 430.4 165.35 434.7 165.25 435.8 165.5 436.55 165.85 437.35 166.85 438.45 172.2 444.3 190.3 448.95 206.85 453.2 219.8 453.3 239.0 453.45 255.35 449.4 272.2 445.15 272.8 439.65 273.7 432.65 273.95 403.7 274.05 400.1 271.1 397.35 267.95 394.4 262.55 393.65 L262.5 391.35 Q268.7 391.95 272.7 395.3 276.75 398.7 276.75 403.6 276.5 433.0 275.7 440.05 274.85 447.3 256.9 451.85 240.55 456.1 219.7 455.95 205.75 455.9 189.05 451.45 170.85 446.5 164.5 440.0 162.3 437.75 162.65 434.6 163.15 429.0 168.65 400.5 169.9 394.15 174.55 390.0 179.2 385.8 186.75 384.2 L186.55 386.65"/><path fill="#0f141b" d="M168.85 441.65 L147.1 458.05 Q130.2 470.9 126.75 473.15 125.4 474.05 125.3 476.25 125.2 480.4 125.75 493.95 125.75 495.25 126.05 495.8 126.35 496.4 127.2 496.6 L151.85 503.1 172.85 508.45 177.45 508.65 Q179.25 508.4 182.2 507.25 200.25 500.25 228.85 488.1 257.6 476.0 266.1 471.75 267.6 470.95 268.15 470.25 268.65 469.55 268.7 468.15 268.95 457.6 269.55 445.3 270.75 444.45 271.9 443.55 271.65 450.05 271.45 468.2 271.45 470.35 270.55 471.7 269.6 473.05 267.5 474.1 258.45 478.65 229.05 491.05 200.95 502.95 183.25 509.8 179.55 511.2 177.5 511.45 L172.5 511.15 151.2 505.8 126.3 499.25 Q122.95 498.35 122.95 494.25 122.5 480.35 122.65 476.15 122.65 474.25 123.1 473.2 123.7 471.95 125.15 470.95 128.6 468.8 145.45 456.15 L166.85 440.1 168.85 441.65"/><path fill="#0f141b" d="M202.6 469.1 L221.8 454.5 225.7 454.5 Q197.65 475.45 184.25 484.4 182.85 485.35 182.4 484.85 181.95 484.25 183.4 483.25 L202.6 469.1"/><path fill="#0f141b" d="M178.4 504.9 Q178.25 497.15 178.6 488.75 178.65 487.1 179.3 487.1 179.95 487.1 180.0 488.75 180.3 496.05 179.9 505.0 179.85 506.45 179.2 506.45 178.5 506.45 178.4 504.9"/><path fill="#0f141b" d="M152.5 478.65 Q169.95 484.3 172.2 484.4 173.95 484.45 173.95 485.15 173.85 485.85 172.2 485.85 L172.15 485.85 Q168.6 486.05 152.0 480.55 135.3 475.1 132.8 475.2 131.2 475.4 131.2 474.7 131.2 474.05 132.8 473.75 135.8 473.2 152.5 478.65"/><path fill="#0f141b" d="M206.9 414.05 Q228.75 417.25 248.95 414.1 270.75 410.7 275.2 401.8 L275.45 405.25 Q269.8 413.75 247.65 416.85 227.3 419.75 206.6 416.7 191.4 414.45 181.95 409.45 172.65 404.4 170.8 397.7 L172.2 394.8 Q173.1 401.6 182.35 406.65 191.5 411.8 206.9 414.05"/><path fill="#0f141b" d="M182.0 422.8 Q192.45 427.85 208.75 429.7 230.6 432.3 249.9 428.4 269.55 424.55 275.15 416.3 L275.2 419.5 Q268.2 428.05 246.85 431.45 227.85 434.45 208.6 432.2 192.75 430.4 182.15 425.45 171.5 420.55 167.75 413.3 L168.3 409.7 Q171.3 417.6 182.0 422.8"/><path fill="#0f141b" d="M182.1 430.85 Q193.65 435.5 209.5 437.1 229.0 439.0 247.0 435.8 267.25 432.2 275.15 423.7 L275.05 426.7 Q266.35 435.25 245.65 438.5 228.0 441.3 209.3 439.55 193.35 437.9 182.1 433.5 170.7 429.15 165.95 422.65 L166.4 419.85 Q170.6 426.25 182.1 430.85"/><path fill="#0f141b" d="M348.1 364.7 Q346.7 364.05 346.95 363.4 347.2 362.75 348.65 363.4 354.2 365.75 363.6 368.35 373.5 371.2 375.15 370.8 376.95 370.4 380.55 365.4 384.1 360.45 384.4 358.1 384.75 355.5 383.95 348.85 383.2 341.85 382.15 340.4 381.1 338.7 374.85 334.8 368.5 330.75 366.65 330.75 364.6 330.75 357.1 335.9 350.35 340.45 346.25 344.15 345.0 345.25 344.55 344.8 344.1 344.3 345.25 343.05 349.1 339.1 356.3 334.05 364.05 328.45 366.65 328.4 368.9 328.3 376.15 332.7 383.3 337.0 384.6 338.95 385.85 340.7 386.65 348.4 387.45 355.65 387.05 358.5 386.65 361.5 382.55 366.95 378.4 372.55 375.7 373.1 373.1 373.6 363.25 370.5 354.05 367.6 348.1 364.7"/><path fill="#0f141b" d="M383.0 313.55 Q384.95 320.05 385.4 327.8 385.95 336.6 383.85 340.1 L382.15 338.45 Q383.75 335.55 383.2 327.85 382.6 321.0 380.9 315.1 L383.0 313.55"/><path fill="#0f141b" d="M342.05 347.25 Q343.1 350.35 343.75 354.0 344.5 358.05 344.35 360.65 L344.0 363.1 342.75 365.4 336.35 374.6 Q335.0 376.65 334.95 379.0 334.35 395.8 335.05 402.9 335.75 410.0 351.5 413.6 366.0 416.95 384.2 415.55 396.2 414.65 403.4 411.95 412.15 408.65 411.8 403.2 411.45 396.55 410.2 388.65 408.85 379.85 407.45 377.1 405.8 373.7 398.55 367.25 391.8 361.3 385.95 357.6 L385.85 354.5 Q391.55 358.1 399.2 364.5 407.95 371.95 409.9 375.75 411.45 378.8 412.85 388.5 414.0 396.4 414.45 403.15 414.9 409.5 406.75 413.4 399.05 417.15 384.5 418.3 366.2 419.7 351.05 416.25 333.25 412.1 332.35 403.15 331.65 395.95 332.25 378.8 332.3 377.0 332.7 375.75 333.0 374.65 333.9 373.25 L337.2 368.75 340.65 364.2 Q341.55 362.95 341.7 360.55 341.85 358.1 341.25 354.35 340.65 350.85 339.7 347.95 339.0 345.85 337.4 343.95 336.15 342.55 331.35 338.9 L323.75 333.4 327.3 332.8 Q336.55 339.1 339.1 342.05 341.1 344.55 342.05 347.25"/><path fill="#0f141b" d="M382.9 405.2 Q382.8 397.05 379.4 386.35 378.9 384.7 379.45 384.55 380.05 384.35 380.75 385.9 382.5 389.65 383.5 394.8 384.65 400.55 384.3 405.2 384.2 407.0 383.5 407.0 382.9 407.0 382.9 405.2"/><path fill="#0f141b" d="M420.4 400.85 Q417.0 397.35 412.85 397.25 L412.65 394.85 Q417.85 394.95 422.2 399.15 426.6 403.45 427.5 409.6 L429.15 425.0 430.5 442.05 Q430.6 443.95 429.85 445.6 429.15 447.15 427.4 449.0 422.65 454.2 411.65 458.05 399.05 462.45 383.65 462.8 357.9 463.45 339.0 456.35 319.35 448.95 318.55 437.2 318.05 430.3 318.5 420.85 318.9 413.1 319.65 406.35 320.1 402.5 324.35 399.35 328.4 396.35 333.2 395.75 L333.4 398.05 Q329.15 398.6 326.0 401.0 322.75 403.55 322.35 406.65 321.6 412.55 321.35 420.9 321.0 429.75 321.4 437.1 321.95 446.9 340.95 453.9 359.9 460.9 383.65 460.15 398.8 459.6 410.45 455.7 420.75 452.15 425.3 447.25 427.75 444.65 427.65 442.15 L426.4 425.3 424.65 409.95 Q423.9 404.5 420.4 400.85"/><path fill="#0f141b" d="M425.35 406.35 Q424.65 413.85 415.4 419.2 400.15 427.85 373.45 427.8 346.35 427.7 331.3 418.55 321.95 412.85 321.4 404.75 L323.5 402.0 Q323.3 406.15 325.65 409.8 327.95 413.65 332.65 416.5 346.75 425.0 373.1 425.15 399.5 425.3 414.15 416.85 423.65 411.5 423.5 403.15 L425.35 406.35"/><path fill="#0f141b" d="M427.8 425.55 Q423.2 431.7 411.8 436.05 400.6 440.3 385.85 441.6 368.55 443.1 352.25 439.65 332.05 435.3 319.9 424.15 L320.05 421.3 Q330.65 431.5 348.1 436.2 365.5 440.85 385.75 439.1 400.4 437.85 411.65 433.55 423.2 429.15 427.5 422.7 L427.8 425.55"/><path fill="#0f141b" d="M428.5 433.95 Q419.65 441.5 403.9 445.05 390.9 447.95 375.6 447.75 358.75 447.55 344.1 443.25 329.35 438.9 319.85 431.2 L319.8 428.35 Q329.3 436.5 344.95 441.0 359.2 445.05 375.6 445.3 392.0 445.55 405.9 441.95 420.35 438.25 428.25 431.4 L428.5 433.95"/><path fill="#0f141b" d="M425.4 448.7 L453.4 477.9 Q454.8 479.4 455.25 480.4 455.85 481.7 455.85 483.85 455.85 487.1 454.7 503.45 454.5 505.9 453.6 507.1 452.55 508.45 450.05 509.1 436.1 512.9 390.45 521.4 385.85 522.3 382.35 519.35 377.75 515.5 355.4 498.2 L324.95 474.7 Q322.8 473.1 322.7 468.65 322.3 457.3 323.0 444.35 L325.25 446.5 Q325.0 451.8 325.05 457.05 L325.45 468.6 Q325.5 470.5 325.85 471.35 326.1 472.15 326.9 472.75 L357.1 496.05 384.05 517.1 Q386.8 519.35 390.15 518.8 434.2 510.45 449.35 506.4 450.95 506.0 451.5 505.3 451.85 504.8 452.0 503.2 453.2 488.35 453.2 483.8 453.2 482.5 452.85 481.65 L451.3 479.5 Q436.6 463.65 423.8 450.5 L425.4 448.7"/><path fill="#0f141b" d="M352.8 458.6 Q358.1 463.85 371.9 476.15 385.95 488.75 391.8 493.45 393.15 494.6 392.7 495.1 392.2 495.55 390.85 494.6 383.75 489.2 369.2 476.5 355.45 464.5 348.4 457.75 L352.8 458.6"/><path fill="#0f141b" d="M394.05 500.05 Q393.6 509.35 390.65 515.05 390.0 516.35 389.4 516.1 388.8 515.85 389.35 514.4 391.45 509.6 392.55 499.8 392.75 498.35 393.4 498.5 394.1 498.65 394.05 500.05"/><path fill="#0f141b" d="M422.75 489.9 Q408.85 491.45 397.0 495.4 L395.15 495.3 Q394.95 494.7 396.55 494.0 407.2 489.5 422.55 487.55 440.4 485.3 449.1 482.05 450.5 481.65 450.75 482.2 451.05 482.8 449.7 483.4 440.8 487.7 422.75 489.9"/><path fill="#0f141b" d="M210.3 68.4 Q203.95 62.65 186.9 52.3 169.7 41.9 166.5 41.95 161.85 42.05 147.15 48.2 132.3 54.35 127.8 58.25 123.5 62.0 116.35 76.55 109.7 90.3 109.15 94.8 108.8 98.7 111.25 109.8 113.55 120.5 114.9 122.25 116.1 123.85 123.5 130.1 130.85 136.25 135.4 139.6 L133.05 141.25 121.15 131.9 Q113.75 125.65 112.45 124.0 110.9 121.85 108.55 110.3 106.1 98.55 106.6 94.55 107.3 89.2 114.05 75.0 121.25 59.85 125.8 55.95 130.5 51.9 146.05 45.5 161.3 39.2 166.35 38.95 170.15 38.85 188.15 49.85 205.8 60.65 212.1 66.6 213.5 67.9 214.15 71.7 214.7 75.0 214.4 78.25 L211.8 80.1 Q212.3 77.05 211.85 73.35 211.4 69.5 210.3 68.4"/><path fill="#0f141b" d="M126.45 148.9 Q129.95 141.9 133.75 139.5 136.15 137.95 140.8 136.35 145.7 134.7 150.45 133.85 152.0 133.6 152.15 134.3 152.3 134.95 150.75 135.35 140.7 137.6 135.05 141.4 131.9 143.35 129.05 149.8 L126.45 148.9"/><path fill="#0f141b" d="M133.1 82.9 Q137.55 75.1 140.45 70.7 142.6 67.65 145.95 66.7 149.6 65.5 151.35 64.05 154.15 61.65 157.05 63.15 162.55 65.95 168.85 66.4 175.0 66.8 177.6 64.6 179.85 62.7 183.1 64.9 196.4 73.75 206.8 87.15 L205.1 89.25 Q193.95 74.3 182.0 66.75 180.0 65.45 178.8 66.4 175.8 68.75 168.9 68.45 161.8 68.2 156.3 65.45 155.1 64.9 154.3 65.0 153.4 65.15 152.45 65.95 150.3 67.7 146.5 68.8 144.9 69.3 144.1 69.9 143.3 70.45 142.3 71.85 139.0 76.7 134.9 83.8 130.3 91.75 127.35 98.1 126.75 99.35 127.9 101.45 132.1 109.2 138.05 114.8 139.4 116.15 140.0 117.5 140.45 118.8 140.5 120.95 140.9 129.5 139.45 138.1 L136.85 139.2 Q138.3 129.55 137.9 120.95 L137.65 118.4 Q137.4 117.55 136.4 116.65 134.0 114.35 131.2 110.4 128.3 106.35 126.2 102.15 124.75 99.55 125.55 97.6 128.3 91.5 133.1 82.9"/><path fill="#0f141b" d="M168.85 149.8 Q166.2 144.2 161.4 137.65 160.45 136.45 160.95 136.05 161.5 135.65 162.55 136.8 167.25 141.5 170.2 149.2 170.7 150.6 170.15 150.8 169.5 151.05 168.85 149.8"/><path fill="#0f141b" d="M150.7 86.3 Q155.5 78.75 158.65 75.35 160.65 73.2 162.5 73.1 164.25 73.05 166.95 74.65 172.7 78.25 186.45 88.1 189.8 90.5 187.85 94.8 184.95 101.4 179.75 109.2 178.05 111.65 175.35 110.3 170.15 107.75 162.9 101.6 160.4 99.55 161.75 97.65 L164.45 94.4 Q166.35 92.1 168.2 94.4 171.05 97.95 173.1 99.0 174.2 99.75 174.7 98.75 176.55 95.55 176.95 93.35 177.35 91.4 176.0 90.35 172.15 87.2 164.5 83.35 163.35 82.8 162.35 84.0 160.45 86.45 157.95 91.05 155.5 95.45 153.7 99.55 153.0 101.2 154.85 102.85 161.75 109.2 170.65 115.7 L172.05 117.1 Q172.4 117.75 172.25 119.05 172.15 121.5 171.3 123.6 170.85 124.75 169.75 124.9 168.65 124.95 167.25 124.0 154.95 115.95 144.0 104.8 142.6 103.3 142.4 101.9 142.3 100.7 143.1 99.2 146.8 92.45 150.7 86.3 M151.6 98.95 Q153.25 95.3 156.1 90.4 159.05 85.35 161.05 82.65 161.85 81.65 163.0 81.35 L165.2 81.65 Q172.85 85.35 177.4 88.95 179.5 90.6 178.85 93.65 178.15 97.1 176.5 99.85 175.8 101.0 174.7 101.25 173.55 101.5 172.25 100.8 169.9 99.4 167.0 95.9 166.35 95.1 165.65 95.8 L163.55 98.45 Q163.0 99.2 164.25 100.25 170.8 105.9 176.05 108.5 177.45 109.15 178.3 108.0 182.85 101.25 186.0 93.95 187.1 91.05 184.9 89.45 171.15 79.5 165.95 76.3 164.0 75.0 162.7 75.1 161.4 75.15 159.95 76.7 157.05 79.85 152.3 87.6 L145.05 100.2 Q144.3 101.45 145.9 103.4 155.85 114.35 168.15 122.3 L169.8 122.4 Q170.35 120.95 170.35 119.05 170.35 118.25 170.05 117.8 L169.1 116.85 Q157.0 107.95 153.2 104.55 150.3 101.9 151.6 98.95"/><path fill="#0f141b" d="M161.6 41.5 Q151.9 28.75 150.5 28.3 144.75 26.45 124.0 21.3 103.4 16.25 92.25 13.95 90.95 13.55 89.0 15.0 87.1 16.5 87.75 17.45 113.45 55.65 119.9 66.8 L118.15 69.35 Q114.0 62.0 100.5 40.95 L85.7 18.25 Q84.25 16.1 87.1 13.6 89.8 11.25 92.05 11.7 104.6 14.25 124.3 18.85 145.95 23.85 151.4 25.65 152.7 26.05 157.0 31.2 160.75 35.7 164.5 40.9 L161.6 41.5"/><path fill="#0f141b" d="M123.5 61.8 L106.95 39.55 Q105.95 38.2 106.55 37.8 107.05 37.35 108.1 38.65 L124.7 59.75 123.5 61.8"/><path fill="#0f141b" d="M49.9 147.8 Q61.7 139.05 79.7 139.15 100.45 139.15 119.2 151.65 135.05 162.3 142.3 184.95 145.35 194.65 145.5 203.25 145.6 211.95 142.65 216.7 140.35 220.45 130.6 228.4 123.15 234.5 114.65 240.5 111.7 242.65 107.85 242.7 104.3 242.75 101.65 241.3 L103.6 239.65 Q105.5 240.6 108.0 240.35 110.7 240.0 113.35 238.15 122.8 231.55 130.1 225.45 138.55 218.45 140.55 215.1 143.2 210.8 142.95 202.6 142.65 194.6 139.7 185.4 132.65 163.85 117.85 153.95 99.75 141.8 80.6 141.5 63.4 141.25 51.4 150.1 47.5 153.05 40.45 159.65 L32.3 167.45 Q30.1 169.4 30.45 172.65 L28.4 174.1 Q27.35 168.6 30.35 165.75 L38.95 157.5 Q46.3 150.4 49.9 147.8"/><path fill="#0f141b" d="M105.65 146.0 L100.5 143.35 Q110.6 142.9 121.15 145.8 131.3 148.55 136.6 152.8 137.9 153.95 137.55 154.4 137.15 154.9 135.75 154.0 130.3 150.6 122.2 148.5 114.2 146.4 105.65 146.0"/><path fill="#0f141b" d="M149.75 190.0 Q147.5 200.1 144.2 207.0 L143.85 200.65 Q149.1 187.3 150.55 171.75 150.75 170.0 151.4 170.05 152.1 170.1 152.05 171.85 151.9 180.05 149.75 190.0"/><path fill="#0f141b" d="M160.65 172.9 Q154.95 180.5 149.55 186.1 L149.85 181.6 Q155.05 176.05 159.75 169.7 164.9 162.7 167.45 157.3 167.7 156.6 168.55 156.6 L181.05 155.15 181.05 157.75 169.5 159.0 Q166.75 164.75 160.65 172.9"/><path fill="#0f141b" d="M66.2 173.15 L66.9 180.15 Q67.0 181.6 66.65 182.4 66.3 183.15 65.15 184.1 L47.55 198.45 Q30.95 211.95 27.05 215.45 24.4 217.8 21.2 216.4 L9.4 210.35 Q6.95 209.1 6.1 207.4 L4.3 203.7 2.45 199.2 Q1.3 195.8 2.95 194.15 8.8 188.55 20.95 178.6 31.8 169.6 38.35 164.8 39.85 163.7 41.1 163.45 L43.8 163.65 62.85 169.5 Q65.9 170.45 66.2 173.15 M64.0 173.55 Q63.8 172.0 62.35 171.55 L43.25 165.75 Q41.35 165.2 39.35 166.6 33.25 171.15 22.55 180.25 11.1 189.85 5.2 195.6 4.1 196.65 4.85 198.7 5.65 201.2 8.1 206.05 8.75 207.45 10.35 208.3 L22.1 214.0 Q24.0 214.85 25.75 213.3 L46.15 196.55 63.65 182.5 64.55 181.4 Q64.85 180.95 64.7 180.2 L64.0 173.55"/><path fill="#0f141b" d="M61.5 174.15 Q52.1 181.5 25.1 205.75 22.6 207.9 19.2 206.45 16.5 205.3 11.7 202.8 L3.35 198.05 3.6 195.6 11.8 200.2 19.9 204.15 Q22.2 205.1 23.8 203.7 L42.1 188.1 Q54.8 177.45 60.6 173.0 61.8 172.1 62.25 172.65 62.7 173.2 61.5 174.15"/><path fill="#0f141b" d="M23.95 188.85 Q26.65 185.85 37.6 177.1 L39.95 177.05 41.15 177.95 Q42.05 179.0 40.55 180.2 L29.15 189.45 Q28.9 189.65 29.0 189.95 L29.45 190.35 30.45 190.2 45.15 177.45 Q45.75 176.8 44.95 176.2 43.8 175.4 40.55 174.05 39.65 173.7 39.1 174.25 35.5 176.95 19.15 191.05 18.9 191.45 19.2 191.7 20.25 192.35 24.6 194.4 25.55 194.85 25.75 195.4 25.9 195.85 25.3 196.75 L23.55 199.05 Q22.5 200.3 21.05 199.4 16.05 196.5 13.1 194.2 12.2 193.5 12.25 192.6 12.25 191.75 13.05 190.9 18.1 185.45 39.05 168.9 40.45 167.75 42.35 168.65 46.95 170.85 51.85 173.65 54.65 175.05 52.3 177.2 L42.65 185.45 30.9 194.7 Q29.2 195.85 27.8 195.1 25.55 193.85 23.75 191.9 23.0 191.1 23.05 190.45 23.05 189.85 23.95 188.85 M39.95 170.25 Q18.35 187.4 14.15 191.95 13.9 192.2 13.9 192.6 13.9 192.95 14.05 193.1 17.2 195.55 21.75 198.0 L22.6 197.85 23.95 196.2 Q24.2 195.85 23.75 195.6 19.5 193.6 18.35 192.8 16.55 191.6 18.25 190.1 34.6 175.65 38.4 172.9 39.6 171.9 41.1 172.5 43.9 173.65 46.35 175.45 47.25 176.1 47.25 176.65 47.25 177.3 46.35 178.15 L31.15 191.45 Q29.8 192.6 28.75 191.7 L27.8 190.7 Q26.9 189.5 28.05 188.5 L39.95 179.25 Q40.25 178.9 40.0 178.55 L38.95 177.95 Q38.6 177.85 38.05 178.2 29.0 185.45 25.0 189.85 24.35 190.55 25.0 191.15 26.4 192.7 28.4 193.8 L29.15 194.0 30.05 193.5 41.55 184.35 51.1 176.15 Q52.0 175.4 51.05 174.95 46.75 172.65 41.8 170.25 40.65 169.75 39.95 170.25"/><path fill="#0f141b" d="M44.75 153.5 Q63.5 146.5 81.6 149.7 99.85 153.0 114.1 166.1 127.15 178.0 132.6 194.05 138.0 209.8 134.25 223.7 L131.75 225.85 Q136.15 211.25 130.8 195.4 125.55 179.8 112.65 168.05 98.2 155.0 79.25 151.95 60.15 148.9 41.8 156.95 L44.75 153.5"/><path fill="#0f141b" d="M37.8 160.1 Q59.1 150.3 80.3 154.9 98.35 158.9 111.5 171.65 124.15 184.0 128.3 200.1 132.4 216.05 126.65 229.85 L123.95 231.15 Q130.3 217.6 126.35 201.75 122.5 185.9 109.75 173.55 96.0 160.1 77.75 156.7 56.55 152.75 34.85 163.7 L37.8 160.1"/><path fill="#0f141b" d="M96.85 176.85 Q107.1 184.7 113.65 196.35 120.3 208.05 121.0 219.75 121.1 221.9 120.6 223.2 120.1 224.6 118.6 225.9 114.9 229.25 108.15 237.2 104.85 240.85 100.75 243.15 74.0 258.1 69.15 260.35 63.8 262.85 61.0 259.95 55.1 253.4 52.1 249.4 50.2 246.7 49.95 244.65 49.55 242.2 50.95 238.9 52.4 235.85 59.9 225.5 67.85 214.55 72.45 209.8 L75.25 210.5 Q70.65 215.25 62.35 226.4 54.3 237.2 53.1 239.95 52.05 242.25 52.25 244.0 52.5 245.7 54.1 247.95 56.8 251.75 62.4 257.9 63.4 259.0 64.75 259.0 66.1 259.05 68.25 258.1 72.9 255.85 99.75 240.85 102.95 239.1 106.15 235.4 L110.45 230.3 116.3 223.95 117.6 222.3 Q117.9 221.45 117.85 219.85 117.2 208.5 111.15 197.65 105.2 186.95 95.2 179.1 86.65 172.5 78.2 169.6 66.3 165.5 52.95 167.75 L49.0 166.2 Q62.35 162.85 74.45 165.75 85.95 168.45 96.85 176.85"/><path fill="#0f141b" d="M21.5 215.3 Q9.15 223.2 1.55 234.1 L1.5 230.15 Q8.5 220.7 18.8 213.95 L21.5 215.3"/><path fill="#0f141b" d="M37.6 204.85 Q48.4 201.45 57.45 202.1 66.95 202.75 71.95 207.6 73.05 208.7 73.95 208.9 L76.9 208.7 Q88.95 206.6 98.6 205.6 L102.3 204.85 Q103.7 204.35 105.0 203.25 108.6 200.15 112.0 196.45 L113.15 198.6 Q110.15 202.4 106.6 205.3 104.75 206.85 103.4 207.4 101.6 208.2 98.8 208.45 90.8 209.1 77.3 211.4 L73.55 211.6 Q71.8 211.25 70.15 209.6 64.95 204.5 54.45 204.6 44.15 204.65 32.55 209.55 L37.6 204.85"/><path fill="#0f141b" d="M9.5 209.15 Q4.5 216.45 3.55 222.45 2.7 227.75 2.6 246.6 2.5 265.75 3.35 274.65 3.6 277.5 3.95 278.85 4.5 280.8 5.8 282.0 10.75 286.35 18.35 289.35 L20.85 292.55 Q17.1 291.75 11.8 288.9 6.95 286.2 4.05 283.65 2.45 282.3 1.7 279.6 1.15 277.85 0.85 274.8 0.0 265.25 -0.05 246.45 -0.1 227.35 0.7 222.1 1.7 216.0 7.15 207.2 L9.5 209.15"/><path fill="#0f141b" d="M1.35 259.95 L1.45 254.05 Q5.85 264.85 11.2 275.35 18.05 288.85 21.2 290.95 30.2 297.15 35.0 298.6 39.3 299.95 39.75 296.95 L41.8 297.5 Q41.45 299.8 39.4 300.8 37.3 301.75 34.5 300.8 28.95 298.9 19.9 292.95 16.05 290.4 9.85 278.6 4.9 269.1 1.35 259.95"/><path fill="#0f141b" d="M16.2 240.4 Q16.1 255.35 16.9 258.25 17.9 262.1 22.85 274.85 28.05 288.15 29.2 289.35 30.45 290.65 34.75 293.1 38.7 295.35 41.1 296.25 47.5 298.45 48.55 291.2 L50.6 292.0 Q49.95 296.4 47.25 298.1 44.55 299.8 40.45 298.35 38.05 297.45 33.7 295.0 28.85 292.3 27.5 290.85 26.15 289.35 20.6 275.65 15.4 262.55 14.45 258.95 13.6 255.75 13.5 241.7 13.35 228.05 13.95 219.1 L16.95 216.65 Q16.3 226.3 16.2 240.4"/><path fill="#0f141b" d="M32.35 243.6 Q32.05 247.35 34.75 263.7 37.15 278.3 38.6 284.1 39.1 286.2 39.75 287.2 40.5 288.25 41.8 288.45 45.2 288.85 49.5 290.5 51.55 291.4 52.05 289.8 58.3 267.55 61.35 259.15 L63.75 260.1 Q59.8 270.55 54.1 290.5 53.6 292.45 52.1 292.95 L48.85 292.65 Q45.2 291.1 41.55 290.7 39.55 290.5 38.35 289.25 37.05 287.9 36.25 284.75 34.75 278.7 32.3 264.0 29.45 247.4 29.8 243.5 30.1 239.1 33.9 226.8 37.7 214.35 41.6 205.1 L45.0 204.45 Q40.95 213.95 36.85 226.45 32.7 239.3 32.35 243.6"/><path fill="#6bb5b6" d="M521.35 2.55 Q522.5 2.55 524.85 5.05 525.45 5.7 525.35 7.05 525.3 8.4 524.65 9.35 519.7 16.75 508.6 31.9 496.55 48.2 491.5 54.05 494.65 57.25 498.05 61.85 501.55 66.7 502.6 69.45 503.8 72.3 504.1 82.7 504.35 93.2 503.4 98.75 502.75 102.3 495.8 112.7 489.4 122.25 484.25 128.15 485.15 130.35 488.95 134.9 492.1 138.75 494.55 141.1 L504.8 141.95 Q506.05 142.1 508.9 143.8 L513.55 147.0 Q533.5 149.0 550.35 164.85 567.75 181.25 571.75 203.45 L575.2 205.35 Q577.7 206.75 578.35 209.2 579.9 215.0 582.05 231.5 584.4 248.65 584.45 256.05 584.5 258.8 581.35 261.5 L575.9 265.05 Q575.8 270.3 573.2 279.35 570.95 287.1 568.55 292.45 566.6 296.7 559.75 304.55 553.3 311.9 550.55 313.6 547.05 315.85 530.05 321.45 527.45 322.3 525.85 320.7 L523.15 316.5 515.6 318.8 509.3 319.9 Q507.8 319.9 505.0 315.85 503.15 313.25 501.35 309.9 497.5 311.1 496.15 308.8 495.05 307.05 492.6 298.0 488.9 298.55 488.1 295.2 L485.75 288.8 Q484.35 285.05 486.5 281.1 L493.15 268.05 479.95 267.3 Q476.7 266.95 475.55 263.1 475.05 261.25 474.6 255.35 459.0 239.7 454.0 224.65 449.75 211.95 451.85 194.9 448.2 191.35 448.8 181.7 449.3 173.2 452.05 167.3 450.0 161.45 444.25 150.25 L424.4 148.75 Q410.2 146.95 404.65 144.15 400.35 142.0 390.7 127.75 382.5 115.7 378.25 107.3 377.1 105.05 376.7 102.05 376.35 99.2 376.8 97.05 L379.1 83.1 Q380.65 72.85 380.65 70.9 380.65 69.05 381.4 67.5 381.85 66.55 383.25 64.8 386.8 60.65 405.65 45.2 L427.8 27.2 Q429.55 25.75 431.35 25.3 L435.25 25.05 442.05 25.8 449.95 26.75 Q454.6 27.2 458.15 24.5 467.15 17.65 470.55 14.45 473.6 11.6 479.0 10.25 L500.2 5.85 Q517.45 2.55 521.35 2.55"/><path fill="#fad47b" d="M427.95 61.2 Q428.9 60.6 429.65 60.65 430.3 60.65 431.0 61.2 434.4 64.05 443.25 73.95 450.85 82.4 455.45 88.1 456.5 89.4 455.2 91.2 439.4 111.6 431.8 118.0 431.25 118.45 430.55 118.4 429.85 118.4 429.35 117.8 428.0 116.55 426.7 114.55 426.3 113.9 426.6 113.25 L427.35 112.3 437.4 101.4 445.1 92.1 Q445.7 91.4 445.7 90.75 445.7 90.15 445.05 89.35 L436.5 78.95 Q430.8 72.3 427.5 69.3 427.05 68.85 426.25 68.8 425.5 68.75 424.8 69.3 L417.65 76.15 410.35 83.9 Q409.7 84.7 410.75 86.1 412.65 88.9 416.3 93.05 L422.4 99.9 Q423.75 101.4 425.1 100.05 L430.9 93.65 Q431.85 92.65 430.8 91.6 L428.05 88.5 425.05 84.95 Q423.9 83.8 424.8 82.9 L428.95 79.0 Q430.15 78.1 431.45 79.4 433.5 81.45 438.85 88.95 439.55 89.85 438.65 91.2 L431.4 99.85 423.5 108.35 420.75 108.4 Q418.45 106.1 411.9 98.5 405.1 90.75 402.65 87.45 401.75 86.2 402.75 84.7 407.0 78.55 415.3 71.1 422.4 64.7 427.95 61.2"/><path fill="#fad47b" d="M569.9 213.1 Q565.45 211.0 561.3 209.45 559.75 208.9 559.85 210.25 560.0 216.45 561.15 230.25 561.2 231.15 561.4 231.55 L562.25 232.1 564.85 232.65 Q565.95 232.8 565.95 231.55 L565.45 219.05 Q565.4 217.6 566.55 218.25 L568.6 219.55 Q569.25 219.9 569.45 221.85 570.25 229.5 570.25 237.65 570.25 238.45 569.7 238.85 569.15 239.2 568.25 238.85 L563.95 237.25 Q561.3 236.2 558.85 234.95 558.05 234.6 557.8 234.15 557.5 233.65 557.5 232.65 L556.65 218.95 Q555.8 207.9 555.9 204.8 555.95 203.3 557.55 203.75 559.95 204.5 565.15 207.15 L572.65 211.05 Q574.1 211.75 574.55 213.85 575.6 218.9 576.7 229.85 577.95 242.4 577.65 248.65 577.5 250.35 575.95 249.75 L569.05 247.6 Q563.85 245.85 560.55 244.25 559.35 243.65 559.35 242.75 L559.55 240.35 Q559.6 239.8 560.0 239.65 L561.2 239.75 566.85 242.4 572.85 244.55 574.1 244.45 574.25 243.35 Q574.25 234.7 572.05 216.6 571.8 214.0 569.9 213.1"/><path fill="#d29660" d="M516.95 172.55 Q497.0 172.55 482.75 186.3 470.75 197.85 468.95 211.2 468.7 213.2 470.85 229.5 L474.25 254.7 Q459.65 240.7 453.4 223.4 451.35 217.7 451.35 207.75 451.4 195.9 454.8 185.1 464.25 155.35 493.85 148.2 508.1 144.7 522.85 149.0 536.0 152.95 547.55 162.4 558.25 171.2 564.75 182.4 571.25 193.5 571.25 203.05 L566.35 200.3 Q560.4 188.35 544.1 180.05 529.45 172.55 516.95 172.55"/><path fill="#5c9e9f" d="M524.1 4.25 Q524.55 4.7 524.9 6.6 525.3 8.55 524.9 9.05 501.35 42.7 491.05 53.5 L486.45 48.5 481.45 44.0 Q487.85 38.85 502.95 23.25 517.05 8.75 522.05 2.65 L524.1 4.25"/><path fill="#5c9e9f" d="M466.6 123.1 Q458.45 122.7 454.5 124.55 451.6 125.9 447.35 132.35 444.6 136.65 442.3 141.25 441.15 143.75 441.8 145.85 442.15 147.15 444.25 150.25 436.15 150.35 421.9 148.25 407.95 146.2 404.75 144.45 401.6 142.8 391.85 129.2 382.05 115.6 378.75 108.4 377.35 105.3 376.9 103.7 376.35 101.45 376.8 100.05 381.85 108.2 391.4 115.75 400.9 123.3 410.8 127.0 416.5 129.1 432.1 124.75 447.45 120.45 453.8 115.2 456.75 112.75 460.35 108.7 464.45 104.1 466.8 100.25 468.8 97.1 469.75 89.7 L470.85 77.25 Q473.95 73.4 486.25 71.35 498.45 69.25 503.05 71.7 504.25 78.7 504.25 86.25 504.25 94.0 503.05 99.1 501.9 103.95 495.05 114.25 488.45 124.05 484.0 127.95 483.3 126.8 481.95 125.9 480.55 125.05 479.05 124.75 472.9 123.4 466.6 123.1"/><path fill="#5c9e9f" d="M461.7 157.95 Q462.45 162.85 464.4 165.3 460.4 171.1 457.0 179.0 452.9 188.5 452.4 195.45 448.8 193.8 448.8 184.2 448.8 174.8 452.0 167.5 450.3 163.05 447.65 157.25 444.55 150.6 442.35 147.35 440.7 144.85 442.3 141.25 448.65 127.65 454.75 125.05 454.95 128.4 457.2 135.75 459.45 142.9 461.15 146.05 462.45 148.25 462.0 149.8 461.0 153.05 461.7 157.95"/><path fill="#ac7b4d" d="M483.55 185.4 Q472.15 196.25 469.15 211.4 468.8 212.8 471.05 229.75 L474.25 254.7 Q460.9 243.05 455.15 228.25 447.1 207.9 454.6 184.1 455.9 187.65 459.7 192.4 463.2 196.75 466.15 198.95 L467.05 199.05 Q467.65 198.95 467.95 198.25 475.55 181.85 490.0 174.0 503.05 166.8 519.3 167.75 534.7 168.65 548.55 176.6 562.65 184.7 570.4 197.6 571.3 200.5 571.3 202.75 L566.65 200.5 Q560.0 189.55 545.95 181.3 530.65 172.35 516.1 172.55 496.9 172.8 483.55 185.4"/><path fill="#5c9e9f" d="M569.5 252.9 Q578.85 256.05 584.55 257.35 583.95 258.7 581.8 260.8 579.75 262.8 577.7 264.1 576.35 264.95 575.35 265.1 L571.85 264.65 Q546.05 257.25 544.8 254.25 547.3 250.65 551.45 247.25 L555.3 247.35 Q558.9 249.45 569.5 252.9"/><path fill="#5c9e9f" d="M522.7 275.0 Q520.35 280.55 517.7 283.15 513.8 287.05 506.6 291.5 498.75 296.35 493.7 297.55 491.9 298.0 490.45 297.5 488.85 296.85 488.25 295.2 487.5 292.45 485.55 288.1 484.35 285.1 486.3 281.55 L489.65 275.05 493.0 268.0 Q496.55 268.25 499.6 267.35 503.2 266.3 504.75 264.0 506.75 266.5 514.1 266.45 521.7 266.4 526.9 263.5 L522.7 275.0"/><path fill="#5c9e9f" d="M472.7 200.55 Q476.1 193.35 479.7 189.9 474.0 201.7 474.9 213.9 475.4 220.9 477.55 235.85 479.45 249.5 481.4 260.6 481.7 262.35 483.25 262.4 L492.1 262.65 500.1 262.55 Q503.4 262.2 505.0 259.6 505.0 266.6 498.5 267.5 L489.1 267.85 479.6 267.05 Q477.3 266.6 476.3 265.3 475.5 264.2 475.2 261.85 L471.35 233.45 Q468.8 214.4 469.15 211.4 469.5 207.35 472.7 200.55"/><path fill="#5c9e9f" d="M530.85 295.15 Q526.3 298.9 514.8 304.4 503.95 309.5 499.75 310.3 497.1 310.85 495.8 308.25 493.5 303.05 492.3 297.9 496.25 297.5 506.45 291.35 517.2 284.85 519.9 280.65 521.5 283.65 527.4 284.95 533.75 286.35 539.25 284.3 L534.95 290.4 Q532.6 293.7 530.85 295.15"/><path fill="#5c9e9f" d="M527.2 314.9 Q517.0 319.05 511.8 319.85 507.9 320.4 506.15 318.0 504.3 315.3 501.75 309.65 508.2 307.7 517.05 303.35 527.35 298.35 531.65 294.25 533.9 296.3 540.35 297.25 546.95 298.3 551.0 297.0 L546.4 303.1 Q543.7 306.45 541.7 307.8 537.1 310.85 527.2 314.9"/><path fill="#5c9e9f" d="M542.95 307.2 Q544.8 308.5 550.55 307.6 556.4 306.7 559.85 304.45 L555.05 310.15 Q552.7 312.55 550.1 313.75 L539.7 317.9 530.4 321.2 Q527.9 321.95 526.25 320.7 525.1 319.8 523.1 316.5 538.05 310.9 542.95 307.2"/><path fill="#5c9e9f" d="M576.3 265.1 L574.5 274.9 560.7 270.45 Q557.95 263.25 554.95 259.35 L567.0 263.0 Q574.55 265.1 576.3 265.1"/><path fill="#0f141b" d="M487.3 184.5 Q495.65 185.55 503.05 193.75 510.9 202.4 512.75 213.0 513.75 218.45 511.35 234.75 509.3 248.65 506.15 262.6 504.95 267.95 498.15 268.75 L488.75 269.15 479.2 268.4 Q474.7 267.65 474.15 262.75 L470.6 237.25 Q467.35 213.45 467.5 211.75 468.95 199.7 478.75 188.35 491.05 174.1 509.95 171.6 527.35 169.25 545.45 179.1 562.35 188.35 569.0 201.5 L565.0 199.95 Q557.9 188.75 541.4 180.7 524.3 172.5 510.25 174.35 497.25 176.15 487.3 184.5 M500.5 195.65 Q492.8 187.4 484.35 187.2 L481.0 190.7 Q471.55 201.75 470.45 211.85 470.3 213.4 473.3 237.05 L476.55 262.45 Q476.95 265.6 479.6 266.0 488.75 267.35 497.9 266.45 503.15 265.85 503.9 262.1 507.7 243.5 509.3 230.45 510.85 217.95 510.0 213.65 508.15 203.75 500.5 195.65"/><path fill="#0f141b" d="M521.15 3.65 Q519.65 3.2 502.9 6.4 487.05 9.45 478.55 11.6 474.6 12.7 470.6 16.1 464.4 21.55 457.7 26.55 456.25 27.7 454.55 28.15 L450.6 28.45 433.7 26.4 431.4 26.65 Q430.55 26.95 428.7 28.35 420.95 34.4 405.9 47.05 391.3 59.45 385.25 65.0 L383.05 67.4 Q382.25 68.45 382.15 69.7 382.05 74.5 380.35 85.1 L377.95 98.65 Q377.5 100.9 377.85 102.7 378.2 104.05 379.3 106.35 383.95 116.2 392.7 128.55 402.0 141.9 406.25 143.6 410.6 145.4 423.1 147.2 L443.65 149.2 444.75 151.6 423.35 149.95 Q410.55 148.35 405.25 146.1 400.05 143.9 390.2 129.75 381.45 117.35 376.8 107.55 375.5 104.85 375.1 103.0 374.75 100.8 375.15 98.2 L377.6 83.75 Q379.2 73.2 379.15 69.65 379.15 66.7 383.15 63.0 388.95 57.65 404.1 44.9 419.15 32.35 427.15 26.1 429.35 24.45 430.55 23.95 431.85 23.4 433.7 23.5 L442.15 24.5 450.7 25.55 454.0 25.4 Q455.15 25.15 456.25 24.3 461.3 20.6 468.85 14.1 471.2 12.05 472.9 11.1 474.9 10.1 477.9 9.3 484.45 7.75 500.4 4.7 520.2 0.9 521.8 1.55 523.85 2.45 525.2 3.9 526.25 5.05 525.85 7.1 525.55 8.9 524.55 10.25 517.7 21.1 508.35 34.2 498.4 48.15 492.35 55.0 L490.55 52.8 Q496.8 45.8 507.25 31.5 516.85 18.3 522.75 9.1 523.75 7.65 523.8 6.6 523.85 5.65 523.15 4.8 522.5 4.05 521.15 3.65"/><path fill="#0f141b" d="M495.9 57.35 Q502.45 65.65 503.7 68.85 505.2 72.5 505.5 83.6 505.85 94.8 504.6 99.45 503.45 103.9 496.85 113.8 490.95 122.65 485.1 129.45 L483.5 127.05 Q489.15 120.45 494.6 112.3 500.7 103.2 501.8 99.0 503.0 94.55 502.8 83.8 502.6 73.1 501.3 69.7 500.05 66.7 493.95 58.9 488.4 51.85 485.1 48.65 481.05 44.8 476.5 41.6 470.85 37.6 465.8 35.7 464.25 35.1 464.45 34.45 L466.3 34.35 Q471.5 35.85 477.55 39.65 482.75 42.95 486.45 46.45 489.85 49.6 495.9 57.35"/><path fill="#0f141b" d="M457.4 56.15 Q466.5 66.75 469.95 72.25 471.9 75.35 471.75 78.95 471.25 89.35 469.65 95.35 468.7 99.15 467.4 101.5 466.3 103.6 464.25 105.7 L455.8 115.25 Q454.3 116.8 454.35 118.9 454.35 121.05 455.8 124.5 L453.35 125.7 Q451.75 121.85 451.8 118.65 451.95 115.5 453.7 113.65 L462.6 104.05 465.45 100.3 Q466.6 98.25 467.5 94.7 469.2 88.35 469.5 78.85 469.55 76.15 467.9 73.5 464.4 67.85 455.2 57.3 445.85 46.45 443.9 46.15 441.65 45.75 435.95 46.1 L426.25 47.05 Q423.35 47.6 419.2 50.9 415.75 53.7 392.7 76.9 390.6 79.0 387.55 78.6 L380.1 78.3 380.1 75.55 387.7 76.05 Q389.8 76.3 391.3 74.75 L406.25 60.05 Q414.95 51.7 418.1 49.2 422.4 45.7 425.95 45.05 L435.95 43.85 Q442.0 43.3 444.3 43.7 447.05 44.15 457.4 56.15"/><path fill="#0f141b" d="M485.0 40.3 Q493.05 32.9 503.7 21.55 504.8 20.35 505.3 20.85 505.75 21.3 504.75 22.6 496.2 32.8 486.0 41.4 484.9 42.3 484.4 41.85 483.9 41.35 485.0 40.3"/><path fill="#0f141b" d="M518.65 5.95 Q519.55 4.95 520.1 5.45 520.6 5.9 519.7 6.95 514.6 13.1 509.5 17.6 508.45 18.55 507.95 18.1 507.35 17.65 508.45 16.55 L518.65 5.95"/><path fill="#0f141b" d="M431.7 60.45 Q435.25 63.4 444.15 73.35 452.1 82.1 456.3 87.35 457.3 88.55 457.25 89.5 457.2 90.4 456.1 91.95 452.65 96.75 445.9 104.65 437.35 114.55 432.4 118.7 430.6 120.25 428.9 118.55 427.1 116.75 426.0 115.05 424.95 113.45 426.75 111.65 431.15 107.35 436.45 101.25 441.8 95.25 444.15 91.95 445.05 90.8 444.1 89.65 433.2 75.55 427.1 70.1 L425.35 70.15 418.5 76.7 411.55 84.0 Q411.0 84.7 411.65 85.6 414.65 89.8 423.05 99.0 423.9 100.05 424.8 99.15 L430.15 93.1 Q430.6 92.55 430.1 92.05 L424.45 85.6 Q422.85 83.7 424.1 82.25 426.7 79.5 428.5 78.15 429.45 77.45 430.35 77.5 431.2 77.6 432.15 78.55 435.45 82.0 439.6 88.25 440.3 89.25 440.3 89.95 440.3 90.75 439.55 91.75 437.85 94.2 432.3 100.45 L424.25 109.05 Q423.35 109.95 422.2 109.95 421.1 109.95 420.2 109.1 L411.3 99.2 402.0 88.25 Q400.5 86.25 402.15 84.05 406.35 77.9 414.6 70.45 421.75 64.05 427.55 60.4 429.8 58.9 431.7 60.45 M428.5 62.0 Q423.05 65.45 415.95 71.85 407.85 79.2 403.65 85.15 402.95 86.2 403.75 87.1 406.1 90.3 412.65 97.85 419.0 105.2 421.4 107.55 421.7 107.9 422.3 107.95 422.8 107.95 423.1 107.55 L430.95 99.15 437.95 90.75 Q438.6 89.9 438.05 89.15 434.75 83.75 431.05 79.9 430.3 79.05 429.45 79.75 427.55 81.25 425.85 83.15 425.25 83.8 426.0 84.6 L431.7 91.05 Q433.2 92.65 431.8 94.2 L425.8 100.75 Q423.75 102.85 421.75 100.7 412.6 90.25 410.1 86.7 408.55 84.5 409.75 83.1 L417.1 75.45 424.4 68.55 Q426.25 66.85 428.25 68.6 431.7 71.75 437.5 78.4 442.45 84.05 446.1 88.8 447.7 90.8 446.1 92.8 L438.15 102.15 428.05 113.0 Q427.35 113.7 427.75 114.15 L430.05 117.2 431.45 117.1 Q436.4 113.0 444.35 103.45 450.95 95.55 454.35 90.55 455.15 89.4 454.45 88.5 449.8 82.7 442.7 74.65 434.0 64.75 430.6 62.0 429.65 61.2 428.5 62.0"/><path fill="#0f141b" d="M466.8 121.6 Q474.0 121.95 480.85 123.9 483.45 124.65 485.15 127.45 489.85 135.4 497.1 141.4 L493.6 141.4 Q486.9 135.2 483.2 128.95 L481.85 127.15 Q481.25 126.6 480.3 126.35 473.7 124.45 467.0 124.2 460.45 123.9 456.5 125.4 452.85 126.8 448.45 133.05 445.2 137.8 442.8 143.1 442.0 144.8 443.2 146.7 445.95 150.85 448.55 156.0 451.35 161.6 452.75 165.95 L451.3 170.4 Q449.95 165.65 447.05 158.95 443.95 151.7 441.4 147.8 440.55 146.5 440.4 145.05 440.2 143.5 440.75 142.25 444.15 135.0 446.3 131.7 450.7 124.7 455.5 122.9 459.7 121.35 466.8 121.6"/><path fill="#0f141b" d="M511.6 145.85 Q526.7 147.15 540.25 155.5 553.25 163.5 561.9 176.2 570.8 189.1 572.9 203.6 L570.15 202.65 Q567.8 189.5 559.5 177.5 551.2 165.5 539.0 157.8 526.1 149.65 511.8 148.35 496.1 146.9 480.95 154.1 466.55 160.9 458.6 178.85 450.65 196.9 453.2 216.65 454.45 225.85 461.35 237.1 467.15 246.6 474.45 253.95 L474.75 258.0 Q466.05 249.4 459.65 239.25 451.95 227.05 450.6 216.95 447.8 196.25 455.9 177.85 464.2 159.1 479.85 151.7 495.25 144.45 511.6 145.85"/><path fill="#0f141b" d="M518.6 153.9 Q538.1 155.1 551.25 165.4 L558.35 174.3 Q545.9 160.05 523.95 156.9 503.05 154.0 486.7 162.4 469.7 171.15 462.4 191.45 454.6 212.8 461.1 238.15 L458.1 233.8 Q452.95 209.7 460.35 189.75 467.8 169.35 485.7 160.1 500.05 152.65 518.6 153.9"/><path fill="#0f141b" d="M462.4 240.7 Q456.25 216.15 465.15 193.4 474.15 170.65 492.95 163.15 515.35 154.25 537.1 162.55 559.4 171.1 569.3 193.6 L570.65 199.7 Q559.75 174.85 537.8 165.75 516.8 156.95 493.85 165.5 475.55 172.35 466.95 195.8 458.35 219.2 465.15 244.05 L462.4 240.7"/><path fill="#0f141b" d="M552.7 192.4 Q566.05 198.7 576.7 205.05 L578.55 206.75 Q579.1 207.65 579.65 210.0 581.1 216.65 583.1 231.2 585.2 246.8 585.6 255.5 L585.4 258.5 Q585.0 259.85 583.8 261.05 581.9 263.0 578.1 265.25 576.75 266.05 575.45 266.2 L572.2 265.75 559.85 262.15 Q549.45 258.95 547.3 257.8 544.7 256.5 543.55 254.3 542.6 252.6 542.35 249.7 L540.05 224.55 Q538.5 206.25 538.1 198.6 538.05 195.85 540.5 194.7 544.55 192.8 547.55 191.75 549.8 191.05 552.7 192.4 M548.05 193.95 Q545.75 194.65 541.4 196.5 L540.4 197.25 540.3 198.6 Q541.0 212.05 544.7 249.45 544.9 251.95 545.55 253.1 546.35 254.6 548.3 255.6 550.45 256.7 560.3 259.85 L572.65 263.55 575.15 263.9 577.0 263.25 Q580.25 261.25 581.8 259.7 582.8 258.75 583.05 257.85 L583.15 255.55 Q582.8 246.7 580.9 231.5 579.05 216.85 577.65 210.5 577.25 208.7 576.85 208.0 L575.65 206.95 Q564.55 200.3 552.05 194.3 550.75 193.75 549.8 193.7 L548.05 193.95"/><path fill="#0f141b" d="M553.45 244.1 Q553.6 245.8 552.8 245.85 552.1 245.9 551.95 244.25 549.65 219.4 549.3 197.45 549.2 195.65 549.9 195.65 550.7 195.6 550.75 197.4 551.15 207.85 553.45 244.1"/><path fill="#0f141b" d="M555.4 246.95 Q571.75 252.95 581.05 255.75 582.4 256.2 582.25 256.8 582.15 257.55 580.65 257.15 574.9 255.6 567.65 253.15 560.1 250.6 554.85 248.35 553.4 247.7 553.6 247.05 L555.4 246.95"/><path fill="#0f141b" d="M557.7 203.15 Q560.25 204.0 565.45 206.4 570.45 208.7 573.0 210.15 574.9 211.15 575.35 213.3 576.35 218.2 577.45 229.55 578.65 242.4 578.35 248.8 578.15 251.5 575.65 250.65 L568.0 248.15 Q562.55 246.3 560.0 245.1 L558.95 244.45 Q558.45 243.9 558.45 243.05 L558.7 240.4 Q558.95 237.9 561.45 239.25 L566.95 241.8 572.55 243.9 Q573.45 244.2 573.45 243.35 573.4 239.2 572.65 230.5 L571.25 216.8 Q570.95 214.6 569.5 213.85 565.4 211.95 561.35 210.45 560.55 210.15 560.55 210.9 560.7 217.8 561.8 230.25 561.85 231.35 562.3 231.55 L564.55 232.0 Q565.15 232.1 565.15 231.4 L564.6 219.15 Q564.55 217.8 565.2 217.5 565.75 217.15 566.8 217.75 L568.9 219.05 Q569.5 219.4 569.75 220.05 L570.05 221.85 Q571.1 230.6 571.1 237.95 571.1 241.1 567.95 239.9 563.2 238.15 558.4 235.7 556.65 234.9 556.65 232.75 L555.8 219.15 Q555.0 206.65 555.05 204.85 555.2 202.3 557.7 203.15 M556.9 204.8 Q556.65 204.95 556.65 205.3 L557.35 219.35 558.15 232.75 558.35 233.9 559.05 234.45 Q561.75 235.75 568.45 238.3 569.45 238.65 569.45 237.75 569.45 229.4 568.6 222.05 568.45 220.65 568.1 220.2 L566.55 219.15 Q565.9 218.85 565.9 219.55 L566.6 231.65 Q566.6 233.85 564.6 233.45 L562.0 232.95 Q560.45 232.55 560.3 230.4 559.25 217.35 558.95 210.35 558.95 207.9 561.45 208.9 566.65 210.9 570.05 212.55 572.3 213.65 572.7 216.6 575.1 237.25 575.1 243.75 575.1 245.15 574.55 245.55 L572.55 245.6 Q570.6 245.0 566.55 243.3 562.8 241.6 560.75 240.5 L560.3 240.5 560.1 240.85 Q559.95 241.75 559.95 242.85 559.95 243.3 560.75 243.65 564.8 245.65 576.05 249.2 576.7 249.4 576.8 248.75 577.15 242.4 575.85 229.85 574.75 219.05 573.75 214.1 573.45 212.55 572.2 211.75 569.25 210.1 564.85 208.0 559.85 205.55 557.55 204.8 557.15 204.65 556.9 204.8"/><path fill="#0f141b" d="M557.0 260.15 Q562.2 268.95 565.3 277.25 568.6 285.85 569.05 292.2 L566.8 295.6 Q566.95 288.85 563.1 278.7 559.3 268.9 552.85 258.6 L557.0 260.15"/><path fill="#0f141b" d="M511.5 223.25 Q518.4 222.05 527.0 227.05 534.7 231.6 542.85 240.65 L542.95 245.0 Q534.85 235.45 527.0 230.4 518.3 224.85 511.2 225.9 L511.5 223.25"/><path fill="#0f141b" d="M577.7 264.45 Q574.45 283.85 569.95 292.7 568.1 296.4 561.4 304.3 553.9 313.3 550.2 314.9 L539.0 319.4 Q531.8 322.1 529.6 322.6 526.55 323.3 524.85 321.15 523.15 319.05 521.95 316.75 L524.0 316.1 Q525.15 318.1 526.45 319.65 L527.5 320.5 529.2 320.4 Q531.35 319.9 538.45 317.3 545.6 314.6 549.35 312.9 552.7 311.45 559.6 302.95 565.9 295.25 567.8 291.4 571.55 283.85 574.75 265.1 L577.7 264.45"/><path fill="#0f141b" d="M564.75 280.2 Q559.65 288.2 552.8 297.15 544.9 307.4 541.5 309.45 537.35 312.1 527.8 315.85 517.45 319.95 511.8 320.85 508.15 321.45 506.35 319.6 503.0 316.05 500.4 310.15 L502.45 309.4 Q504.7 314.5 507.75 317.9 L509.35 318.8 511.55 318.7 Q516.85 317.85 527.05 313.6 536.25 309.85 540.4 307.2 543.5 305.3 551.35 294.7 558.2 285.45 563.65 276.6 L564.75 280.2"/><path fill="#0f141b" d="M555.95 261.5 Q550.5 270.35 544.0 280.0 535.35 292.85 532.35 295.45 528.3 299.05 517.2 304.5 506.1 309.95 500.3 311.25 L497.15 311.35 Q496.0 311.0 495.25 309.65 492.85 305.4 491.35 298.1 L493.45 297.65 Q494.85 304.55 497.1 308.4 497.5 309.15 498.0 309.25 L499.85 309.15 Q505.4 307.9 516.05 302.5 526.65 297.2 530.55 293.65 533.45 291.1 542.35 277.55 L554.3 258.7 555.95 261.5"/><path fill="#0f141b" d="M537.9 237.55 Q529.45 258.75 525.35 271.4 523.75 276.35 522.05 279.35 519.9 283.4 516.85 285.7 513.15 288.55 506.8 292.45 498.95 297.2 494.85 298.55 492.15 299.45 490.25 299.0 488.1 298.55 487.5 296.7 L484.7 289.6 Q483.0 285.3 485.0 281.85 487.5 277.55 491.95 268.0 L494.8 267.95 Q492.05 274.0 486.9 282.8 485.35 285.55 486.75 288.9 L489.45 295.65 Q490.25 297.55 494.2 296.3 498.0 295.0 505.2 290.65 L515.35 283.8 Q517.9 281.8 519.7 278.5 521.05 275.95 522.85 270.6 528.7 252.5 535.55 235.6 L537.9 237.55"/><path fill="#0f141b" d="M450.9 176.15 Q448.55 188.95 452.65 194.5 L452.0 198.05 Q445.45 191.75 448.25 176.65 450.6 164.35 456.25 155.5 457.1 154.1 457.65 154.4 458.15 154.7 457.45 156.2 452.75 165.85 450.9 176.15"/><path fill="#0f141b" d="M512.1 147.35 L508.9 145.15 Q507.1 144.15 504.75 143.35 502.45 142.6 495.25 142.15 L480.95 141.7 Q479.05 141.7 479.0 141.0 479.0 140.35 480.95 140.2 487.35 139.85 495.05 140.1 503.0 140.3 505.3 141.05 511.95 143.25 516.85 147.8 L512.1 147.35"/></g></svg>