<?xml version='1.0' encoding='utf-8'?>
<svg xmlns="http://www.w3.org/2000/svg" version="1.1" width="301px" height="403px" viewBox="-0.45 -1.85 300.6 403.3"><g><path fill="#ffffff" d="M193.15 198.0 Q194.35 195.0 198.75 194.4 L206.35 193.85 212.6 194.15 Q214.0 194.95 216.55 199.25 L221.6 197.15 Q223.35 196.35 224.8 197.15 226.1 197.9 226.75 199.75 227.15 200.9 229.5 201.75 231.5 202.5 233.0 202.5 235.2 202.5 236.05 204.6 236.65 206.25 236.5 209.55 236.45 211.75 238.75 212.8 L243.2 212.9 249.1 210.15 Q253.95 207.75 256.85 206.15 262.15 203.15 266.05 205.9 271.2 209.5 281.2 221.7 282.45 223.15 282.45 226.55 L282.1 231.75 Q281.9 233.85 283.85 235.75 285.85 237.8 288.45 237.85 292.35 237.9 295.2 239.85 297.85 241.7 298.15 244.0 298.95 250.6 298.55 268.35 298.45 270.5 297.9 271.55 297.2 272.8 295.5 273.65 292.5 275.15 290.2 276.95 290.3 279.05 289.65 282.35 288.95 285.8 287.9 288.35 287.0 290.45 281.45 296.15 278.5 299.2 279.75 303.0 280.5 305.35 280.2 306.5 279.85 307.75 278.0 309.15 275.2 311.5 251.2 327.75 L252.85 334.2 254.05 340.75 Q258.15 340.25 259.6 342.45 260.3 343.65 260.1 347.0 L259.45 351.85 Q259.2 353.25 257.55 355.65 L254.55 359.4 Q259.85 365.25 261.85 368.8 L269.05 367.8 Q270.25 367.75 271.05 368.45 271.85 369.15 272.05 370.25 272.3 371.65 272.15 377.75 272.1 379.4 271.6 380.3 271.05 381.35 269.55 382.45 267.6 383.7 265.7 385.65 263.55 387.9 263.65 389.05 263.75 390.7 270.3 393.75 271.35 394.3 271.55 395.1 271.75 395.75 271.25 396.3 L270.45 397.4 Q270.0 398.15 269.85 399.05 269.7 400.0 268.85 400.5 L267.45 400.85 262.95 400.65 Q261.65 400.65 260.5 399.65 259.55 398.7 258.9 397.35 L256.95 392.8 Q255.55 390.05 254.05 388.45 251.95 386.35 253.05 383.85 255.3 379.55 255.25 376.65 255.2 374.7 251.75 371.1 248.3 367.65 247.05 367.8 245.55 368.0 242.5 370.4 239.3 372.95 238.5 373.15 237.5 373.45 232.6 370.0 227.6 366.45 227.3 364.95 227.15 364.1 229.25 360.95 231.2 358.15 233.15 355.9 L229.6 351.4 226.0 347.75 Q225.35 347.3 223.4 347.1 L219.5 347.4 215.15 347.9 Q212.4 347.65 210.2 346.4 208.8 345.55 204.3 341.5 L196.4 334.3 Q194.4 335.35 192.85 337.2 191.5 338.75 188.2 340.85 184.6 343.0 181.85 343.95 178.15 345.1 175.05 344.65 172.05 344.2 170.45 342.45 L167.75 339.35 Q165.8 337.2 164.6 336.55 163.1 335.7 160.4 335.35 157.7 335.05 156.65 335.7 156.25 335.95 154.5 338.85 152.75 341.65 151.0 342.45 L146.6 342.35 Q144.25 341.75 141.9 340.5 138.45 338.75 133.4 339.15 132.75 339.2 131.65 337.55 L129.75 334.5 120.9 333.5 Q115.95 333.2 111.75 333.4 109.5 333.5 106.75 331.65 L102.35 328.3 Q98.6 325.3 94.55 327.75 93.05 328.65 90.95 328.7 L87.55 328.2 Q84.6 327.15 78.6 323.7 72.05 319.85 69.3 317.3 68.85 316.9 68.3 312.0 67.75 307.25 66.65 306.6 65.6 305.9 61.4 306.65 L55.7 307.75 Q54.8 307.8 48.8 303.05 43.1 298.55 41.4 296.75 40.2 295.45 37.5 285.95 35.05 277.35 34.8 274.95 34.65 273.4 35.75 270.7 36.4 269.05 38.1 265.9 40.15 262.2 37.75 257.1 34.7 250.65 36.75 244.75 L132.45 210.2 138.4 208.8 Q141.1 208.4 142.25 208.8 L144.5 210.35 146.65 212.85 Q148.5 215.45 150.3 215.5 L156.4 214.8 Q157.8 214.6 158.7 213.85 159.55 213.25 160.4 211.9 161.2 210.6 162.35 209.95 163.5 209.3 165.7 209.1 L173.65 208.7 Q177.05 208.7 178.1 211.25 178.65 212.6 179.55 213.05 L181.75 213.25 Q188.05 211.95 189.55 207.85 191.6 201.75 193.15 198.0"/><path fill="#ffffff" d="M250.15 7.1 L268.5 6.15 Q271.65 6.2 274.7 14.7 277.55 22.65 278.7 33.45 280.1 45.95 279.55 52.5 278.9 59.85 275.75 61.5 272.55 63.25 256.55 69.2 241.5 74.75 233.7 77.3 L132.45 81.15 Q125.95 79.15 114.7 74.7 104.1 70.6 101.0 68.9 96.2 66.35 94.35 61.5 90.75 51.95 93.75 38.0 96.45 25.6 102.5 16.5 104.65 13.35 109.4 13.05 114.5 12.8 147.0 12.8 160.65 2.6 179.3 1.05 197.15 -0.35 210.35 6.6 214.75 8.8 219.4 9.3 L230.25 8.85 250.15 7.1"/><path fill="#e39a5a" d="M212.85 34.3 Q218.35 30.15 225.3 27.25 233.3 23.85 235.55 25.9 238.0 28.15 233.3 37.75 228.9 46.75 224.05 51.35 L225.95 58.7 Q231.5 64.6 232.85 72.25 233.95 78.25 232.4 84.6 239.7 85.05 245.6 88.3 253.4 92.55 258.3 101.3 262.85 109.4 257.25 124.05 251.4 139.2 240.05 145.6 237.1 150.2 231.25 157.8 L221.15 170.3 Q216.25 175.8 214.3 180.4 212.05 185.7 211.6 194.0 209.05 193.85 205.25 194.0 L198.75 194.4 Q194.95 194.75 193.5 197.7 191.65 201.4 189.55 207.85 188.9 209.95 186.1 211.45 184.15 212.4 181.6 212.95 180.1 213.35 179.15 212.5 178.6 212.05 178.05 210.85 177.7 210.0 176.55 209.45 175.55 208.9 174.4 208.9 168.2 208.6 166.15 208.8 164.7 208.95 163.0 209.7 161.3 210.4 160.85 211.05 L159.65 212.7 Q158.6 213.95 157.4 214.5 156.0 215.15 153.0 215.15 L148.65 214.7 Q147.5 214.35 146.25 212.75 L144.3 210.1 Q142.7 208.2 137.95 208.7 138.25 205.25 138.0 196.9 137.75 188.9 137.35 185.7 136.75 180.9 131.65 174.35 129.0 176.05 123.2 176.85 L113.75 177.2 Q109.6 176.8 103.05 172.9 95.25 168.2 94.1 163.2 92.5 156.55 96.2 145.2 100.0 133.3 106.25 127.65 L107.85 126.0 Q108.5 125.1 108.65 123.7 109.65 113.95 118.9 105.35 128.45 96.45 138.45 97.25 132.8 92.65 132.25 86.05 131.8 80.75 133.45 74.9 135.3 68.75 138.45 66.3 L139.4 56.5 Q135.9 53.3 132.2 45.0 128.45 36.6 130.05 35.55 132.1 34.2 139.4 36.35 146.2 38.4 151.3 41.45 153.3 32.3 161.2 25.3 170.95 16.6 185.0 16.95 194.75 17.15 203.1 22.8 210.55 27.85 212.85 34.3"/><path fill="#ffffff" d="M177.15 45.75 Q177.7 44.15 178.9 44.15 180.15 44.1 180.6 45.65 L181.65 47.85 183.35 50.3 Q186.6 54.05 193.15 54.1 199.9 54.15 202.25 49.75 L231.05 52.25 Q228.75 57.6 218.85 65.8 210.05 73.15 204.8 75.5 206.45 71.3 207.05 62.05 204.2 66.4 194.9 75.35 196.1 71.7 196.35 65.7 196.5 60.15 195.9 59.15 195.45 58.45 191.4 58.15 187.7 57.85 186.75 58.15 186.3 58.3 183.35 61.3 180.4 64.25 180.05 64.25 179.6 64.25 177.0 62.05 L173.35 59.1 Q172.35 58.35 168.75 59.15 165.5 59.9 164.6 60.75 163.9 61.35 164.95 67.0 165.8 71.6 167.05 76.1 L160.05 70.45 152.6 63.75 Q153.75 68.0 154.4 76.5 147.9 74.9 141.7 69.35 135.9 64.25 133.05 58.45 140.2 56.05 158.7 53.1 161.0 56.0 165.65 55.55 170.0 55.1 174.4 51.95 175.65 50.3 177.15 45.75"/><path fill="#f8d154" d="M169.15 43.85 Q173.7 45.65 177.1 46.0 176.4 48.55 174.25 51.95 170.35 55.1 165.8 55.45 161.15 55.85 158.7 53.1 156.05 50.05 156.8 46.15 157.7 41.9 162.45 40.0 164.25 41.9 169.15 43.85"/><path fill="#f8d154" d="M181.05 46.25 Q184.1 46.4 187.6 44.0 L198.1 37.4 Q203.35 39.3 203.65 44.2 203.9 48.7 200.55 51.6 197.55 54.2 192.75 53.9 187.95 53.6 183.55 50.6 182.3 49.05 181.05 46.25"/><path fill="#ffffff" d="M166.15 46.8 Q168.55 46.55 168.65 48.85 168.7 49.9 167.95 50.7 167.25 51.4 166.3 51.4 165.45 51.4 164.75 50.8 164.0 50.15 163.95 49.2 163.9 48.25 164.5 47.6 165.1 46.9 166.15 46.8"/><path fill="#ffffff" d="M193.4 45.5 Q195.3 45.6 195.45 47.55 195.5 48.55 194.85 49.15 194.2 49.75 193.2 49.85 192.2 49.9 191.6 49.25 191.0 48.65 191.0 47.65 191.0 46.6 191.7 46.05 192.35 45.45 193.4 45.5"/><path fill="#6f6453" d="M95.65 30.05 Q91.8 40.45 91.9 48.5 92.0 54.2 94.5 61.9 78.85 67.0 66.85 87.7 55.8 106.75 56.2 122.25 59.6 122.6 62.6 123.65 65.4 124.7 66.35 125.8 68.8 128.7 72.25 137.5 75.8 146.25 76.55 151.4 77.45 157.5 76.2 162.25 74.5 168.55 68.65 175.2 72.05 182.2 78.45 189.85 84.05 196.55 89.95 201.4 101.0 193.55 105.35 191.5 109.95 189.4 121.35 196.55 132.7 203.65 132.7 208.65 L131.3 221.95 Q130.0 233.3 130.3 234.4 131.1 237.5 140.55 242.8 149.75 247.95 152.25 247.4 153.15 247.2 161.95 237.95 L173.5 226.0 Q175.6 224.05 181.55 223.75 187.4 223.5 194.05 224.95 210.55 228.65 212.65 237.45 213.5 240.9 208.9 252.95 205.0 263.05 202.2 267.8 199.2 272.95 202.05 283.0 202.9 285.85 205.3 289.5 L211.25 298.05 Q214.15 302.2 212.2 308.65 210.4 314.7 205.15 320.2 199.7 326.0 193.0 328.5 185.55 331.3 178.7 329.05 174.15 327.55 167.35 321.45 L156.85 311.05 Q151.55 310.2 141.3 306.3 132.1 302.85 126.0 299.7 125.2 300.6 121.0 302.65 L115.35 305.35 Q113.8 306.15 111.9 306.2 110.15 306.2 108.75 305.6 103.55 303.35 97.3 299.65 89.75 295.2 85.55 291.2 83.05 288.8 83.85 283.75 84.7 278.35 84.65 271.6 76.55 265.35 56.95 245.5 L49.15 246.5 40.3 246.1 Q35.75 245.35 28.75 237.15 21.4 228.55 21.4 222.55 21.4 220.4 24.05 214.7 26.2 210.1 28.65 206.1 23.7 197.6 18.45 183.0 13.05 168.0 10.7 155.85 8.85 155.3 7.1 153.7 5.25 152.1 4.1 150.0 2.55 147.3 1.75 133.65 0.95 120.4 1.9 118.0 2.5 116.55 4.5 114.95 6.3 113.5 8.7 112.45 10.8 98.15 17.65 84.0 24.75 69.25 35.7 57.7 61.0 30.75 95.65 30.05"/><path fill="#bf899d" d="M77.7 68.2 L74.35 71.8 Q72.2 74.2 71.0 76.35 69.55 78.85 66.85 81.15 64.25 83.35 61.75 84.25 58.85 85.25 55.3 83.85 51.4 82.25 51.6 79.15 51.9 75.4 59.2 68.3 66.55 61.15 72.45 58.85 76.9 57.1 78.65 61.3 80.25 65.35 77.7 68.2"/><path fill="#bf899d" d="M67.15 127.1 Q69.3 130.1 72.85 139.55 76.35 148.9 76.35 151.45 76.4 157.3 70.8 157.8 65.55 158.25 62.4 154.7 60.15 152.1 56.75 143.4 53.65 135.45 52.9 131.35 52.5 129.05 53.9 126.9 55.25 124.95 57.65 124.05 63.4 121.8 67.15 127.1"/><path fill="#bf899d" d="M102.15 193.65 L105.05 191.7 111.25 191.85 Q116.15 193.15 121.65 196.65 126.45 199.7 129.8 203.45 133.55 207.65 132.5 209.85 131.15 212.65 127.9 213.6 L122.1 213.35 Q119.5 212.3 113.45 208.8 107.55 205.35 105.4 203.65 102.05 200.95 102.15 193.65"/><path fill="#bf899d" d="M209.75 232.15 Q212.25 234.15 212.55 238.15 212.75 241.2 211.75 244.2 208.05 248.0 198.65 250.55 189.55 252.95 183.1 252.15 180.9 251.9 177.6 248.9 174.6 246.2 173.15 243.9 172.0 242.05 172.45 235.85 172.8 230.75 173.9 225.5 181.05 222.25 192.7 224.75 203.45 227.1 209.75 232.15"/><path fill="#bf899d" d="M119.05 105.0 Q126.2 98.7 133.65 97.6 134.85 103.2 129.55 107.5 125.25 110.95 119.6 112.05 117.4 112.45 115.95 114.6 114.7 116.45 114.25 119.15 113.95 120.7 113.1 120.8 112.3 120.9 111.65 119.9 111.15 119.15 110.4 117.0 112.3 110.95 119.05 105.0"/><path fill="#bf899d" d="M172.7 119.1 Q175.2 119.3 175.2 120.65 175.15 121.95 173.1 123.0 168.45 125.35 163.45 129.65 161.3 131.5 158.85 130.8 156.6 130.2 156.25 128.45 155.65 125.35 159.85 122.25 164.8 118.55 172.7 119.1"/><path fill="#bf899d" d="M184.05 143.8 Q186.95 138.6 194.9 138.45 199.2 138.35 202.45 140.9 206.0 143.65 206.4 148.4 206.9 153.75 203.3 157.3 199.3 161.2 191.5 161.5 182.0 161.9 176.25 156.05 171.25 151.0 170.1 142.6 169.9 141.05 170.7 140.75 171.5 140.45 172.7 141.5 176.45 144.95 180.85 145.35 L182.8 145.15 Q183.5 144.8 184.05 143.8"/><path fill="#bf899d" d="M219.35 143.6 Q218.35 142.7 218.35 139.8 218.35 136.9 219.35 136.15 220.4 135.45 222.95 135.9 225.5 136.35 226.4 137.55 227.2 138.7 226.9 140.55 226.6 142.35 225.65 143.05 224.8 143.7 222.6 144.0 220.2 144.35 219.35 143.6"/><path fill="#bf899d" d="M221.8 120.15 L214.65 121.8 206.85 122.25 Q204.3 122.1 203.95 119.4 203.55 116.85 205.1 115.75 207.7 114.0 214.05 114.2 219.75 114.35 221.9 115.45 223.85 116.45 223.9 117.9 223.9 119.45 221.8 120.15"/><path fill="#bf899d" d="M235.95 96.65 Q236.6 88.85 244.9 87.9 252.95 92.6 256.65 98.65 260.4 104.85 259.9 113.05 257.05 118.45 248.7 119.15 241.4 119.75 237.25 117.0 235.85 116.05 236.2 115.15 236.45 114.35 237.4 114.3 238.75 114.25 240.65 112.95 242.9 111.5 240.8 109.4 235.45 103.85 235.95 96.65"/><path fill="#bf899d" d="M130.15 150.35 Q132.45 149.0 133.6 149.2 134.55 149.4 135.2 151.55 135.9 153.85 135.0 154.55 134.05 155.35 131.0 154.6 127.95 153.75 127.9 152.6 127.85 151.7 130.15 150.35"/><path fill="#bf899d" d="M125.65 138.7 Q127.15 140.05 127.2 141.35 127.3 143.75 123.4 149.4 119.6 154.8 117.35 155.85 116.0 156.45 114.05 155.2 111.9 153.9 112.1 152.25 112.3 150.5 117.05 144.45 121.7 138.4 123.15 137.8 124.2 137.4 125.65 138.7"/><path fill="#bf899d" d="M98.8 149.6 Q99.75 152.2 99.8 156.4 99.9 160.25 99.25 163.45 98.55 166.85 97.15 168.7 94.45 166.0 93.8 161.9 92.75 156.15 95.4 146.85 97.6 146.4 98.8 149.6"/><path fill="#bf899d" d="M168.4 180.5 Q170.8 187.95 171.3 192.5 171.6 195.0 169.9 196.85 168.35 198.55 165.9 199.05 163.5 199.6 161.55 198.7 159.5 197.7 159.1 195.35 158.5 191.45 160.85 182.05 163.2 172.85 164.6 172.75 165.85 172.7 168.4 180.5"/><path fill="#505558" d="M196.45 63.3 L196.05 69.2 Q190.95 76.55 187.5 79.8 187.0 77.75 185.9 75.05 184.6 71.9 183.9 71.4 L179.35 71.1 Q176.2 71.5 175.55 72.15 174.55 73.15 174.45 80.05 L170.1 75.5 165.45 70.05 Q164.95 68.2 164.6 65.3 164.15 62.0 164.6 61.05 165.05 60.1 168.25 59.25 L172.95 58.85 Q173.6 59.0 176.6 61.65 179.55 64.25 180.05 64.25 L183.1 61.7 186.45 58.5 Q187.3 57.85 191.15 58.15 194.9 58.45 195.9 59.15 196.55 59.6 196.45 63.3"/><path fill="#5e5546" d="M7.85 130.45 Q12.95 158.85 28.4 185.75 42.65 210.5 64.35 231.95 84.75 252.0 109.1 266.55 132.65 280.75 155.9 287.35 160.5 288.6 164.9 291.9 169.35 295.3 172.75 300.15 176.4 305.4 180.85 306.0 184.65 306.5 188.25 303.7 191.45 301.2 192.85 297.4 194.2 293.45 192.6 290.9 188.3 284.0 187.1 278.0 185.9 272.0 187.9 267.35 L190.9 259.55 Q192.0 255.85 192.1 252.05 205.75 249.9 211.7 244.55 208.1 257.2 202.5 267.0 200.15 271.0 200.45 273.8 201.15 282.2 203.5 286.55 205.55 290.4 210.75 297.1 214.35 301.8 212.6 308.0 210.95 313.8 204.25 321.25 199.8 326.25 192.2 328.65 184.3 331.2 178.6 328.9 174.2 327.1 168.25 322.25 161.9 317.1 156.95 311.05 151.3 309.9 141.35 306.2 131.75 302.65 126.05 299.65 124.5 300.8 120.75 302.65 L115.75 305.2 Q114.0 306.2 112.4 306.3 110.65 306.4 108.4 305.4 103.05 303.1 95.75 298.55 88.35 293.95 85.65 291.25 83.85 289.45 83.65 287.5 83.55 286.6 83.9 283.55 84.9 275.05 84.5 271.45 79.3 267.25 70.05 258.4 61.2 249.95 56.9 245.2 L47.45 246.4 Q41.85 246.65 39.2 245.65 34.7 244.1 29.2 237.8 23.95 231.75 23.5 228.05 22.9 225.4 25.65 221.0 28.1 216.95 32.5 212.6 26.4 204.15 19.5 185.95 12.7 168.1 10.45 155.25 8.2 154.55 6.0 152.15 3.3 149.25 2.8 145.8 1.95 140.15 1.65 134.2 3.35 134.35 5.15 133.4 7.25 132.35 7.85 130.45"/><path fill="#5e5546" d="M139.25 243.6 Q132.9 241.4 123.9 236.5 114.7 231.55 110.45 228.0 108.95 226.8 109.2 225.75 109.45 224.8 111.3 224.25 114.45 223.35 117.85 220.05 121.55 216.55 122.25 213.3 L128.0 213.45 Q130.95 212.45 132.7 209.55 131.9 214.8 131.0 223.7 130.1 233.55 130.55 234.65 131.15 236.1 134.0 239.1 137.05 242.4 139.25 243.6"/><path fill="#5e5546" d="M62.3 154.65 Q65.7 158.4 70.7 157.85 75.65 157.35 76.6 152.95 77.15 158.15 75.85 163.65 75.35 165.75 73.35 168.9 L68.95 175.4 Q69.6 177.75 71.5 181.1 L75.6 187.9 Q71.25 184.75 65.85 178.8 64.9 179.95 63.7 180.05 62.7 180.15 61.9 179.45 59.55 177.3 55.55 171.05 51.55 164.9 50.1 161.2 49.0 158.35 52.0 158.8 54.15 159.1 57.6 157.8 61.1 156.4 62.3 154.65"/><path fill="#5e5546" d="M84.75 47.2 Q89.9 45.7 92.8 45.35 92.4 52.15 92.5 54.1 92.75 57.8 94.5 61.9 81.1 65.9 68.9 84.3 56.25 103.45 56.15 122.1 L45.1 121.15 Q43.5 114.35 43.9 105.15 44.3 96.3 46.25 91.0 44.6 91.1 44.3 90.0 44.0 88.85 45.75 87.85 47.9 86.65 49.5 84.25 51.25 81.55 51.45 78.75 51.6 81.95 54.35 83.35 56.4 84.35 59.65 84.3 62.65 84.25 65.9 81.8 68.7 79.75 70.05 77.35 71.15 75.65 73.65 72.6 L77.0 68.75 78.7 66.65 Q79.3 65.55 79.3 64.0 79.3 62.35 78.65 59.35 78.0 56.35 77.1 54.0 76.45 52.1 76.65 51.1 76.9 50.1 78.15 49.5 80.15 48.6 84.75 47.2"/><path fill="#c3854e" d="M188.8 92.55 Q185.5 97.15 183.3 101.8 180.55 107.65 180.4 111.95 L176.55 111.75 Q176.2 108.7 174.45 104.25 172.15 98.4 168.75 94.1 173.75 99.5 179.1 98.85 184.05 98.25 188.8 92.55"/><path fill="#c3854e" d="M215.4 68.45 Q220.55 64.95 226.15 58.75 231.25 63.7 232.8 71.6 234.15 78.45 232.6 84.75 222.8 84.3 214.2 91.2 205.85 97.8 205.85 105.25 201.35 105.9 196.65 108.65 192.7 110.9 189.55 114.1 188.15 113.5 184.9 112.85 L180.4 111.95 Q181.1 106.9 182.8 103.35 197.05 101.9 207.9 90.8 219.1 79.35 215.4 68.45"/><path fill="#c3854e" d="M130.6 131.85 L130.15 133.45 Q127.0 133.05 123.15 133.5 119.75 133.9 117.15 134.85 120.05 133.45 120.3 132.1 120.5 130.7 118.05 130.0 L104.25 129.5 Q106.0 127.15 107.7 125.9 108.2 125.55 108.65 123.6 L109.4 120.05 Q110.2 124.9 114.65 125.2 118.8 125.5 123.55 127.7 127.5 129.5 130.6 131.85"/><path fill="#dadbdf" d="M111.95 42.2 Q123.65 45.35 133.05 47.0 136.1 52.55 139.4 56.5 L133.2 58.4 135.3 62.05 Q136.7 64.25 138.25 66.05 136.1 68.85 134.5 72.7 132.55 77.25 132.45 81.2 127.0 79.45 115.65 75.0 102.7 70.0 99.05 67.95 94.5 65.4 93.1 55.1 91.75 45.05 94.35 36.5 100.0 38.95 111.95 42.2"/><path fill="#dadbdf" d="M279.8 48.9 Q279.85 59.6 276.45 61.25 272.9 63.0 255.75 69.35 L233.8 77.25 Q233.4 72.6 231.55 67.5 229.3 61.45 226.15 58.75 228.65 56.25 230.85 52.3 L223.95 51.45 Q226.1 49.45 228.4 46.1 L231.75 40.4 Q240.1 38.8 250.05 36.3 261.4 33.45 267.45 31.2 266.7 22.6 266.9 16.0 267.25 6.75 269.65 6.35 271.75 6.05 274.55 14.2 277.3 22.05 278.3 30.4 279.8 42.65 279.8 48.9"/><path fill="#5e5546" d="M234.55 173.45 Q235.1 172.65 234.2 167.0 L232.15 156.65 Q234.05 154.5 235.8 151.8 L239.25 146.3 Q247.7 140.05 250.75 136.1 L254.5 136.3 Q257.1 136.65 257.55 137.25 258.8 139.0 260.05 147.1 261.15 154.8 260.95 158.9 260.9 160.05 258.05 162.1 L252.55 165.55 Q253.35 172.9 252.6 188.65 251.85 203.05 250.75 209.15 L246.7 211.25 242.95 213.0 Q240.4 214.15 238.35 212.55 236.3 211.05 236.7 208.5 237.55 203.15 236.85 200.8 236.6 199.95 234.1 198.75 L229.9 196.9 Q228.45 196.2 227.65 189.15 226.95 182.6 227.5 180.8 227.8 179.7 230.95 176.85 L234.55 173.45"/><path fill="#c3854e" d="M142.9 141.3 Q145.6 144.3 152.05 149.0 L162.05 156.1 Q155.2 161.15 143.0 168.3 130.8 175.4 127.75 176.15 L119.9 177.2 Q115.1 177.55 113.2 177.15 108.9 176.35 104.45 173.8 100.4 171.5 97.45 168.55 99.15 166.05 99.6 161.95 102.9 164.45 106.85 166.35 110.75 168.25 113.75 168.75 116.85 169.25 121.0 168.7 125.2 168.15 128.25 166.8 133.2 164.7 138.2 161.85 144.8 158.2 145.95 156.25 149.75 150.1 142.9 141.3"/><path fill="#9b7182" d="M93.7 155.5 Q95.05 158.5 99.6 161.95 99.15 166.05 97.45 168.55 94.25 165.25 93.95 163.0 93.55 159.8 93.7 155.5"/><path fill="#9b7182" d="M190.75 161.5 Q184.7 161.75 179.7 158.7 174.85 155.7 172.25 150.35 183.85 155.15 192.85 155.0 198.7 154.85 205.9 152.75 204.65 156.65 200.6 159.0 196.6 161.25 190.75 161.5"/><path fill="#c3854e" d="M227.35 142.1 Q237.75 134.5 241.3 125.9 241.0 132.3 240.25 134.9 244.85 133.35 249.25 128.6 254.1 123.4 256.6 116.5 258.1 115.5 259.75 113.95 258.7 125.8 250.85 135.9 242.85 146.1 231.55 149.75 224.5 156.8 213.3 163.25 201.3 170.1 194.9 169.9 185.05 169.6 167.2 159.2 151.1 149.85 142.9 141.3 139.8 138.1 137.45 136.5 134.05 134.2 130.4 133.65 130.4 131.55 131.25 129.65 138.95 128.45 146.95 135.1 158.55 144.8 172.25 150.35 174.85 155.7 179.7 158.7 184.7 161.75 190.75 161.5 196.6 161.25 200.6 159.0 204.65 156.65 205.9 152.75 217.55 149.25 227.35 142.1"/><path fill="#9b7182" d="M258.75 102.6 Q260.25 107.9 259.75 113.95 258.1 115.5 256.6 116.5 259.0 109.75 258.75 102.6"/><path fill="#c3854e" d="M231.55 149.75 L239.25 146.3 Q236.35 152.25 226.75 163.45 216.9 175.0 215.95 176.7 210.2 180.8 197.2 183.8 184.55 186.7 170.55 187.3 169.45 182.5 167.45 177.55 165.45 172.6 164.6 172.65 163.8 172.7 162.25 177.55 160.75 182.05 159.7 187.4 143.9 186.85 136.0 182.55 134.55 178.1 131.45 174.35 139.85 170.25 147.9 165.55 157.4 160.0 162.05 156.1 170.75 161.55 178.65 165.15 189.4 170.05 195.45 169.9 201.95 169.65 213.9 162.85 225.15 156.35 231.55 149.75"/><path fill="#9b7182" d="M167.45 177.55 Q169.45 182.5 170.55 187.3 165.6 187.55 159.7 187.4 160.75 182.05 162.25 177.55 163.8 172.7 164.6 172.65 165.45 172.6 167.45 177.55"/><path fill="#c3854e" d="M129.95 35.45 Q131.85 41.15 136.25 46.7 140.95 52.6 146.2 55.3 L139.85 56.55 Q136.6 54.1 133.15 47.4 129.5 40.05 129.95 35.45"/><path fill="#c3854e" d="M235.35 25.55 Q237.5 28.9 232.8 38.65 228.45 47.7 223.95 51.45 L217.5 50.95 Q224.2 47.0 229.75 38.3 234.55 30.8 235.35 25.55"/><path fill="#dadbdf" d="M133.4 59.05 Q137.05 63.25 142.25 66.7 148.35 70.85 153.85 71.9 L154.75 76.65 Q149.4 75.75 143.15 70.75 136.85 65.6 133.4 59.05"/><path fill="#dadbdf" d="M167.3 76.15 Q164.15 74.1 159.4 70.0 154.25 65.65 152.35 63.2 155.45 65.2 159.2 67.0 163.0 68.8 165.4 69.5 L167.3 76.15"/><path fill="#dadbdf" d="M194.85 75.45 Q195.85 72.05 196.1 68.25 200.7 67.05 207.25 61.4 204.05 67.0 194.85 75.45"/><path fill="#dadbdf" d="M206.45 68.95 Q211.45 67.25 218.95 62.35 226.75 57.25 230.2 53.2 227.35 58.2 219.85 64.9 211.8 72.15 204.65 75.5 L205.7 72.3 206.45 68.95"/><path fill="#dadbdf" d="M96.95 299.5 Q103.55 303.55 108.4 305.4 112.6 307.05 115.45 305.35 L120.75 302.7 Q124.7 300.8 126.05 299.65 145.4 308.85 156.95 311.05 174.5 330.65 185.25 330.2 191.45 330.0 197.6 326.3 203.3 322.95 207.45 317.55 211.55 312.3 212.75 307.2 214.0 301.75 211.5 298.45 L206.8 292.05 Q203.25 286.8 202.15 283.25 L203.65 279.25 Q204.4 277.05 205.35 276.45 206.75 275.65 211.75 275.45 216.75 275.3 217.45 276.1 219.25 278.15 221.55 277.95 223.8 277.75 225.15 275.6 L228.9 270.2 Q232.05 266.15 234.25 265.95 238.1 265.55 245.8 265.8 255.15 266.1 257.7 267.4 262.15 269.6 264.2 275.75 264.65 277.35 269.55 277.3 274.5 277.3 275.0 275.6 275.8 273.1 278.75 270.0 281.65 266.85 283.4 266.7 287.45 266.3 291.45 264.45 296.55 262.0 298.45 258.1 L298.8 267.55 Q298.65 272.0 296.55 273.05 292.35 275.1 290.4 276.75 L289.45 283.9 Q288.85 286.95 287.6 288.75 L281.2 296.5 Q278.7 299.3 279.7 302.8 L280.25 306.0 Q280.1 307.75 278.4 309.0 L264.5 318.55 Q254.2 325.55 251.2 327.85 L253.05 334.7 Q254.1 338.8 254.1 340.75 L256.85 341.05 Q257.75 344.55 257.3 349.65 256.8 355.6 254.55 359.0 L258.3 363.95 261.75 368.75 266.4 368.2 Q267.4 370.3 268.3 374.0 269.05 377.25 269.05 378.5 269.05 381.95 265.5 385.5 264.7 386.3 264.15 387.35 263.45 388.45 263.5 389.1 263.65 390.5 265.65 391.35 265.4 392.45 265.9 394.5 266.4 396.35 266.15 397.0 L265.15 398.8 Q264.55 399.85 264.55 400.7 260.25 400.85 259.2 397.65 258.5 395.5 256.85 392.35 255.2 389.3 254.2 388.2 252.25 386.1 253.25 383.75 255.65 378.2 255.05 376.1 254.55 374.45 251.7 371.15 248.6 367.65 247.2 367.7 245.0 367.8 238.5 373.5 235.95 372.6 231.6 369.3 227.15 365.95 227.05 364.9 227.0 363.9 229.45 360.45 231.85 357.15 233.4 355.9 L229.1 350.7 Q226.6 347.75 225.95 347.55 L223.2 347.1 219.8 347.35 Q213.35 349.15 209.4 345.7 L196.55 334.1 Q195.55 334.45 194.5 335.35 L192.2 337.6 Q186.2 343.15 179.9 344.6 L174.15 344.45 Q171.35 343.55 169.8 341.5 165.95 336.55 163.3 335.85 L159.7 335.3 156.75 335.65 Q156.1 335.95 155.05 337.8 L153.3 340.8 Q150.15 345.05 143.05 341.15 138.75 338.75 133.35 339.2 131.05 337.05 130.05 334.5 L120.75 333.65 113.15 333.35 Q108.9 333.55 103.05 328.95 98.75 325.3 95.15 327.6 93.5 328.65 91.3 328.85 88.9 329.0 87.15 328.05 L76.85 322.25 Q69.6 318.15 69.15 317.15 69.0 316.8 68.4 311.8 67.85 307.4 66.65 306.6 65.6 305.85 61.35 306.7 L55.8 307.55 Q54.05 307.2 48.55 303.0 42.95 298.7 41.6 296.5 40.1 294.05 37.25 285.05 34.25 275.7 34.8 274.05 L37.5 267.4 Q39.3 263.05 39.2 261.9 39.0 258.95 36.55 254.35 35.75 252.7 35.8 249.75 35.9 246.7 36.8 244.55 39.5 246.1 44.8 246.35 L57.15 245.5 Q76.75 265.25 84.5 271.45 84.7 279.65 83.75 283.9 83.2 286.5 83.9 288.55 84.65 290.6 86.9 292.5 90.95 295.85 96.95 299.5"/><path fill="#9b7182" d="M77.25 68.5 L70.5 77.2 Q68.7 79.45 66.5 81.3 63.55 83.75 60.9 84.5 57.6 84.6 55.0 83.55 51.75 82.25 51.6 79.8 51.55 78.5 52.2 76.8 53.05 74.7 54.6 73.2 54.7 76.3 59.2 77.0 63.7 77.7 65.95 75.2 70.45 70.45 75.65 66.95 77.0 66.1 77.75 64.5 78.6 63.0 78.45 61.45 80.55 64.6 77.25 68.5"/><path fill="#0d161f" d="M177.05 46.6 Q173.2 46.6 168.4 44.5 163.8 42.55 161.1 39.9 160.65 39.4 160.25 39.45 159.9 39.45 159.2 39.95 L155.0 43.2 Q154.15 43.85 153.8 43.5 153.45 43.1 154.15 42.4 156.1 40.3 158.45 38.6 160.5 37.2 162.15 38.8 164.7 41.15 169.3 43.0 174.15 44.9 177.85 44.8 L177.05 46.6"/><path fill="#0d161f" d="M177.25 46.65 L175.4 50.95 172.1 56.15 Q171.55 56.9 171.15 56.6 170.7 56.3 171.2 55.45 L174.0 50.3 175.75 46.1 Q176.2 44.85 177.1 44.0 178.0 43.3 178.85 43.3 179.7 43.3 180.7 44.0 181.7 44.85 182.35 46.2 184.6 51.05 187.25 54.1 188.1 55.05 187.75 55.4 187.3 55.8 186.45 54.95 183.45 51.9 180.9 46.6 180.25 45.25 178.95 45.25 178.55 45.25 178.1 45.6 177.55 45.95 177.25 46.65"/><path fill="#0d161f" d="M206.9 40.5 Q206.5 40.8 205.7 39.9 204.1 38.0 202.15 37.6 200.35 37.2 198.45 38.15 195.3 39.8 188.5 44.45 184.05 47.55 181.1 46.95 L180.15 45.05 183.9 44.9 Q185.35 44.45 187.2 43.15 L192.5 39.85 197.85 36.8 Q199.95 35.75 202.2 36.2 204.85 36.7 206.6 39.15 207.3 40.15 206.9 40.5"/><path fill="#0d161f" d="M174.85 45.65 Q175.1 41.95 174.4 39.25 174.1 38.0 174.5 37.85 175.0 37.7 175.35 38.95 176.55 42.6 176.6 45.75 L174.85 45.65"/><path fill="#0d161f" d="M181.7 46.35 Q181.4 44.75 181.65 42.6 181.95 40.2 182.8 38.4 183.15 37.5 183.55 37.65 183.95 37.75 183.7 38.65 182.75 41.6 183.45 46.0 L181.7 46.35"/><path fill="#0d161f" d="M165.85 56.3 Q160.45 56.8 157.75 53.7 154.95 50.5 156.05 46.2 157.15 41.75 161.65 39.45 L163.15 40.6 Q159.05 42.4 157.9 45.95 156.75 49.45 159.15 52.45 161.95 55.95 168.05 54.2 173.5 52.65 176.0 49.05 L174.1 52.7 Q170.95 55.85 165.85 56.3"/><path fill="#0d161f" d="M204.6 44.85 Q204.7 50.0 200.0 53.25 197.05 55.35 192.25 54.85 187.6 54.45 184.3 51.95 L182.1 48.25 Q185.15 51.75 190.45 52.9 195.8 53.95 199.1 51.65 203.2 48.8 202.6 44.25 202.1 39.7 197.45 37.85 L199.5 37.0 Q204.45 39.7 204.6 44.85"/><path fill="#0d161f" d="M169.25 49.05 Q169.25 50.3 168.5 51.05 167.75 51.8 166.35 51.8 165.05 51.8 164.15 51.0 163.35 50.15 163.4 48.85 163.45 47.8 164.25 46.95 165.15 46.1 166.3 46.15 167.65 46.15 168.45 47.0 169.25 47.85 169.25 49.05 M166.4 47.4 Q165.65 47.4 165.2 47.85 164.75 48.25 164.7 48.95 164.65 49.7 165.15 50.3 165.6 50.8 166.2 50.8 167.0 50.8 167.55 50.3 L168.0 49.1 Q168.0 48.45 167.6 47.95 167.15 47.4 166.4 47.4"/><path fill="#0d161f" d="M193.25 44.8 Q194.45 44.75 195.3 45.6 196.05 46.4 196.05 47.6 196.1 48.9 195.15 49.65 194.35 50.35 193.25 50.35 191.95 50.4 191.1 49.5 190.3 48.75 190.3 47.65 190.3 46.5 191.1 45.7 191.95 44.85 193.25 44.8 M192.0 46.55 Q191.6 47.05 191.6 47.7 191.6 48.35 192.0 48.8 192.4 49.3 193.1 49.3 193.8 49.3 194.25 48.85 194.75 48.4 194.7 47.65 194.7 46.95 194.3 46.5 193.9 46.05 193.25 46.05 192.45 46.05 192.0 46.55"/><path fill="#0d161f" d="M191.45 58.95 Q188.15 58.65 187.25 58.9 186.75 59.05 183.75 62.3 180.9 65.5 180.05 65.45 179.55 65.45 176.6 62.8 173.5 59.95 172.85 59.65 L169.05 60.05 Q165.85 60.7 165.3 61.4 164.75 62.1 165.55 66.35 166.3 70.45 168.05 76.15 168.4 77.25 167.95 77.45 167.55 77.65 166.65 77.0 160.3 72.4 153.75 65.65 L155.65 76.6 Q155.8 78.05 154.3 77.6 147.7 75.8 141.35 70.35 135.2 64.95 132.35 58.75 132.1 58.25 132.2 58.05 132.3 57.85 132.8 57.65 136.3 56.45 144.75 54.7 153.55 52.9 158.3 52.5 L159.85 54.15 Q155.75 54.35 146.75 56.05 138.25 57.7 134.2 58.9 136.95 64.05 141.9 68.4 147.35 73.25 153.55 75.35 153.2 70.9 152.05 63.7 151.95 63.0 152.25 62.85 152.55 62.75 153.0 63.2 158.25 68.1 165.7 74.05 162.4 62.25 163.85 60.25 164.7 59.15 168.55 58.45 L173.25 58.15 176.9 60.95 Q179.65 63.25 180.05 63.25 180.4 63.25 183.15 60.5 186.05 57.7 186.8 57.4 188.15 56.95 191.85 57.3 195.5 57.65 196.25 58.2 197.35 59.1 197.25 64.1 197.15 68.65 196.25 73.0 204.05 65.9 206.6 61.5 207.0 60.9 207.35 61.0 207.7 61.1 207.65 61.85 207.25 69.95 206.2 73.8 211.65 70.95 219.2 64.25 226.8 57.6 229.75 52.95 L201.5 50.8 202.45 49.05 231.15 51.5 Q231.8 51.55 231.9 51.85 L231.75 52.65 Q229.0 58.05 220.0 66.0 211.3 73.75 205.5 76.25 L204.1 76.35 Q203.7 76.0 204.05 75.0 205.6 70.8 206.15 64.5 201.65 70.7 195.55 75.85 194.5 76.7 194.1 76.45 193.7 76.25 194.05 75.0 195.25 71.05 195.65 65.55 196.0 60.15 195.25 59.55 L191.45 58.95"/><path fill="#0d161f" d="M195.95 70.7 Q192.45 76.1 188.2 80.25 L187.15 80.9 186.7 80.05 185.15 75.15 Q184.1 72.55 183.45 71.95 L180.25 71.75 Q177.55 72.0 176.1 72.7 175.35 73.15 175.35 80.25 175.4 81.15 175.0 81.3 174.6 81.45 174.0 80.8 168.5 75.25 165.65 70.85 L164.9 67.15 Q167.75 72.15 173.9 78.35 173.95 75.5 174.15 74.15 174.5 71.65 175.5 71.3 177.4 70.6 180.55 70.35 183.95 70.05 184.5 70.9 185.85 72.7 187.8 78.4 192.1 74.0 196.35 66.75 L195.95 70.7"/><path fill="#0d161f" d="M214.1 39.45 Q211.05 28.75 201.95 23.05 192.8 17.25 179.9 18.2 168.7 19.0 160.3 27.7 152.0 36.25 150.95 47.65 150.9 48.85 150.35 48.85 149.8 48.8 149.85 47.6 150.0 35.6 159.05 26.2 168.0 16.9 179.75 16.0 193.25 15.05 202.9 21.3 212.5 27.6 215.2 39.2 215.5 40.55 215.0 40.65 214.5 40.75 214.1 39.45"/><path fill="#0d161f" d="M133.1 45.35 Q136.95 53.65 140.85 56.4 L138.5 56.85 Q134.8 53.55 131.05 45.1 127.3 36.25 129.4 34.55 131.45 32.8 139.95 35.6 147.5 38.05 151.5 40.8 L151.0 42.75 Q147.5 40.1 139.95 37.5 132.25 34.85 130.85 36.0 129.4 37.3 133.1 45.35"/><path fill="#0d161f" d="M147.15 49.05 Q145.15 46.8 141.85 44.2 138.4 41.5 135.25 39.8 134.15 39.2 134.4 38.75 134.7 38.25 135.8 38.75 139.0 40.1 142.55 42.9 146.1 45.65 148.05 48.35 148.75 49.35 148.35 49.65 147.9 50.0 147.15 49.05"/><path fill="#0d161f" d="M234.7 37.1 Q230.4 46.8 224.8 51.75 L222.2 51.45 Q227.6 47.45 232.3 37.65 236.75 28.3 235.05 26.6 233.55 25.05 226.3 27.85 218.85 30.75 213.5 35.2 L212.75 33.45 Q218.45 28.75 226.45 25.85 234.65 22.85 236.75 25.0 239.05 27.35 234.7 37.1"/><path fill="#0d161f" d="M218.25 40.8 Q219.85 37.75 222.65 34.6 225.4 31.45 228.5 29.2 229.5 28.5 229.8 28.9 230.15 29.3 229.25 30.15 222.6 36.0 219.25 41.35 218.55 42.45 218.05 42.25 217.6 41.95 218.25 40.8"/><path fill="#0d161f" d="M137.8 65.4 L139.2 66.85 Q135.65 70.3 134.25 76.4 133.05 81.35 133.45 86.95 133.6 89.4 134.95 91.9 136.15 94.15 137.75 95.45 141.55 98.55 143.2 102.55 143.7 103.9 143.25 104.1 142.8 104.3 142.15 103.05 140.25 99.4 136.55 96.75 134.6 95.35 132.8 92.45 130.85 89.25 130.65 86.55 130.3 81.2 132.05 75.5 134.0 69.1 137.8 65.4"/><path fill="#0d161f" d="M231.4 84.7 Q233.35 77.7 231.35 70.15 229.5 63.2 225.25 59.25 L226.6 57.9 Q232.0 62.4 233.95 69.5 235.9 76.7 233.8 84.75 L231.4 84.7"/><path fill="#0d161f" d="M277.5 61.55 Q276.55 63.55 233.55 79.15 L233.4 76.35 Q242.8 73.3 258.25 67.55 274.9 61.4 275.75 60.55 276.25 59.95 276.05 57.35 L275.2 52.3 Q274.95 51.15 275.5 51.05 276.0 50.9 276.35 52.05 278.5 59.35 277.5 61.55"/><path fill="#0d161f" d="M269.6 5.5 Q272.4 5.2 275.55 14.7 278.15 22.65 279.35 31.35 281.15 44.35 280.35 53.1 279.6 61.6 276.65 62.05 273.95 62.45 270.55 51.95 267.45 42.5 266.3 33.0 265.1 22.9 265.9 14.7 266.8 5.8 269.6 5.5 M269.75 7.2 Q268.05 7.25 267.8 16.0 267.55 24.2 268.6 33.1 269.8 42.9 272.65 52.0 275.25 60.3 276.5 60.35 278.25 60.15 278.45 50.8 278.7 41.5 277.3 31.6 275.9 22.25 273.55 14.65 271.2 7.15 269.75 7.2"/><path fill="#0d161f" d="M279.35 41.95 Q278.05 40.9 276.15 40.6 275.25 40.45 275.3 39.95 275.4 39.4 276.25 39.4 278.0 39.4 279.45 40.1 L279.35 41.95"/><path fill="#0d161f" d="M276.1 20.65 Q274.8 21.6 273.8 23.05 273.25 23.9 272.85 23.7 272.4 23.5 272.8 22.55 273.75 20.35 275.5 18.65 L276.1 20.65"/><path fill="#0d161f" d="M251.85 7.8 L229.0 9.95 Q218.05 11.4 210.3 7.7 195.65 0.45 177.15 2.35 158.35 4.3 145.85 14.8 144.65 15.8 144.3 15.4 143.85 15.0 145.1 13.85 157.1 2.9 176.35 0.55 195.75 -1.85 211.2 5.95 214.9 7.85 218.75 8.3 L227.9 8.0 251.45 5.9 Q268.95 4.75 270.35 5.7 271.05 6.2 271.25 9.05 L271.2 13.95 Q271.15 15.2 270.6 15.2 270.05 15.2 270.1 13.95 270.1 11.45 269.75 9.5 269.45 7.6 269.0 7.3 L251.85 7.8"/><path fill="#0d161f" d="M269.8 22.8 Q269.45 23.15 268.8 22.6 267.65 21.4 266.55 20.95 260.2 21.2 252.45 22.85 251.25 23.1 251.15 22.55 251.0 22.05 252.2 21.7 259.6 19.75 266.9 19.05 267.05 19.0 267.35 19.25 L269.65 21.7 Q270.1 22.45 269.8 22.8"/><path fill="#0d161f" d="M254.35 43.95 Q253.2 44.2 253.1 43.7 253.0 43.15 254.1 42.85 260.5 40.9 268.8 39.9 L268.95 41.65 Q262.35 42.2 254.35 43.95"/><path fill="#0d161f" d="M125.95 13.7 Q113.0 13.8 108.15 14.15 104.1 14.45 100.3 21.9 96.75 28.8 94.95 38.65 93.1 48.75 94.25 56.45 95.45 65.05 100.05 67.3 107.6 71.05 117.25 74.8 125.35 78.0 132.45 80.25 L132.45 82.85 Q112.35 75.6 99.25 69.2 93.9 66.6 92.25 57.35 90.85 49.1 92.65 38.5 94.5 28.05 98.6 20.75 102.95 12.85 108.05 12.45 L126.85 11.75 Q140.65 11.4 148.35 11.75 L146.1 13.75 Q138.1 13.6 125.95 13.7"/><path fill="#0d161f" d="M108.75 32.95 Q102.7 31.05 95.75 30.3 L96.1 28.6 Q103.8 29.8 109.1 31.85 110.15 32.35 110.0 32.8 109.8 33.3 108.75 32.95"/><path fill="#0d161f" d="M92.85 45.7 Q100.05 48.55 109.3 51.15 110.4 51.45 110.35 52.0 110.25 52.55 109.15 52.25 100.0 50.05 92.85 47.6 L92.85 45.7"/><path fill="#0d161f" d="M95.4 31.3 Q77.65 32.0 61.6 39.8 45.9 47.45 33.95 60.85 21.95 74.4 15.5 91.95 8.75 110.2 9.1 130.55 9.4 152.1 17.8 177.8 25.35 200.65 35.3 215.85 36.15 217.15 35.7 217.4 35.25 217.7 34.3 216.5 23.6 202.4 15.2 177.8 6.15 151.55 5.8 130.05 5.45 109.9 12.55 91.25 19.4 73.3 32.1 59.2 44.75 45.2 61.05 37.4 77.95 29.3 96.2 29.2 L95.4 31.3"/><path fill="#0d161f" d="M93.4 279.1 Q83.45 272.5 72.8 262.65 61.85 252.55 53.75 242.3 52.85 241.2 53.25 240.8 53.65 240.45 54.6 241.55 63.35 250.9 74.1 260.9 84.65 270.7 94.05 278.15 95.5 279.35 95.2 279.75 94.9 280.15 93.4 279.1"/><path fill="#0d161f" d="M118.75 294.95 Q139.85 306.35 156.1 309.8 L158.6 312.8 Q150.55 311.2 140.4 307.15 128.65 302.5 118.15 296.0 116.9 295.2 117.15 294.7 117.4 294.25 118.75 294.95"/><path fill="#0d161f" d="M122.2 195.55 Q127.1 198.7 130.35 202.25 133.75 206.0 133.65 208.4 L132.35 221.65 Q131.25 231.9 131.35 233.85 131.55 236.7 141.15 241.9 150.6 246.95 152.05 246.05 153.25 245.35 161.4 236.75 170.4 227.2 171.95 225.75 175.35 222.75 182.55 222.4 189.25 222.1 196.65 224.15 204.15 226.25 208.9 229.9 214.1 233.9 213.95 238.45 213.8 244.05 209.7 254.1 207.2 260.2 202.1 270.55 200.55 273.85 203.4 283.2 204.55 287.05 208.3 292.15 L213.4 299.2 Q215.65 303.15 213.45 309.7 211.25 316.15 206.0 321.75 200.35 327.85 193.45 330.2 185.55 332.9 178.0 329.9 172.45 327.7 165.15 320.85 159.1 315.2 155.15 309.7 154.3 308.6 154.75 308.25 155.1 307.95 156.0 308.95 161.5 315.1 167.55 320.3 174.3 326.1 178.75 327.85 185.0 330.3 191.85 328.0 198.05 325.9 203.35 320.65 208.3 315.7 210.6 310.0 212.9 304.15 211.2 300.35 210.75 299.3 206.3 293.35 202.35 288.1 201.2 283.75 L199.5 276.5 Q198.85 271.9 200.0 269.55 204.95 260.0 207.6 253.5 211.6 243.85 211.75 238.4 211.85 234.95 207.0 231.6 202.6 228.55 195.75 226.6 188.85 224.6 182.85 224.75 176.3 224.85 173.4 227.5 171.55 229.15 162.85 238.35 L152.9 248.4 Q150.9 250.0 140.35 244.3 129.55 238.45 129.15 234.65 129.05 233.55 130.15 222.9 L131.65 208.7 Q131.95 204.5 120.9 197.4 109.7 190.25 105.2 192.75 95.2 198.15 85.8 205.9 84.65 206.8 84.25 206.4 83.9 206.05 84.95 205.0 90.45 200.05 94.45 197.15 98.55 194.2 104.4 190.9 110.1 187.7 122.2 195.55"/><path fill="#0d161f" d="M69.4 174.15 Q71.35 180.05 78.95 188.95 85.65 196.75 91.1 200.9 L89.2 202.2 Q83.55 197.45 77.65 190.8 70.0 182.0 67.8 176.0 L69.4 174.15"/><path fill="#0d161f" d="M77.35 151.6 Q77.75 154.1 77.65 157.8 77.5 161.65 76.9 163.7 76.1 166.6 73.0 171.05 70.1 175.15 67.0 178.25 66.1 179.15 65.75 178.9 65.35 178.65 66.05 177.6 L70.7 171.2 Q74.05 166.35 74.9 163.3 75.85 160.0 75.7 155.0 L77.35 151.6"/><path fill="#0d161f" d="M66.75 124.95 Q69.55 128.05 73.2 137.35 76.35 145.6 77.25 150.5 78.45 157.2 71.45 158.7 L65.65 158.4 Q62.6 157.45 60.9 155.1 58.0 151.15 55.1 143.7 52.25 136.75 51.35 131.65 50.15 125.1 56.95 123.15 L62.45 122.85 Q65.35 123.35 66.75 124.95 M57.65 142.9 Q60.7 150.7 63.05 153.9 65.7 157.5 70.95 156.8 76.45 156.2 75.35 150.7 74.45 146.45 71.2 138.0 67.5 128.6 65.4 126.45 62.4 123.35 57.75 125.05 52.95 126.8 53.85 131.2 54.75 135.65 57.65 142.9"/><path fill="#0d161f" d="M60.1 123.95 Q54.1 122.15 46.25 121.8 44.9 121.75 44.95 121.2 44.95 120.7 46.3 120.65 L56.95 121.45 Q62.65 122.4 65.3 123.95 L60.1 123.95"/><path fill="#0d161f" d="M94.65 62.5 Q79.7 68.3 68.95 85.85 58.2 103.45 58.2 122.3 L55.0 122.15 Q55.0 103.25 66.9 84.95 78.6 67.1 94.15 60.9 L94.65 62.5"/><path fill="#0d161f" d="M78.95 68.15 Q73.65 74.15 72.55 75.8 71.0 78.2 69.05 80.2 66.05 83.45 63.05 84.7 58.75 86.6 53.85 84.1 48.5 81.4 51.7 75.65 54.75 70.15 62.65 63.85 70.75 57.3 74.9 57.3 78.1 57.3 79.65 61.45 81.2 65.6 78.95 68.15 M78.1 62.2 Q77.1 59.25 74.95 59.2 71.35 59.15 63.8 65.25 56.3 71.25 53.3 76.55 50.9 80.85 55.15 82.7 L62.4 82.9 Q67.05 80.9 71.0 74.7 72.4 72.55 77.45 66.85 79.0 65.15 78.1 62.2"/><path fill="#0d161f" d="M63.7 84.35 Q56.05 88.6 47.05 90.95 L45.6 90.8 Q45.45 90.25 46.7 89.8 54.0 87.3 59.7 84.15 L63.7 84.35"/><path fill="#0d161f" d="M78.2 60.75 Q78.05 57.15 77.1 54.25 76.75 53.15 77.25 53.0 77.7 52.8 78.2 53.85 79.05 55.9 79.6 59.0 80.1 61.9 80.2 64.4 L78.2 60.75"/><path fill="#0d161f" d="M85.6 62.15 Q81.05 65.2 78.15 68.25 L79.1 64.85 Q81.7 62.3 85.8 59.8 89.9 57.25 92.9 56.45 L93.45 58.25 Q90.2 59.1 85.6 62.15"/><path fill="#0d161f" d="M4.8 149.1 Q5.65 151.05 7.5 152.65 9.05 153.95 10.75 154.65 L11.2 157.3 Q5.25 154.75 3.1 149.8 0.75 144.4 0.15 132.45 -0.45 120.7 1.2 117.2 2.1 115.45 4.55 113.5 6.85 111.75 9.55 110.45 L9.25 113.3 Q7.35 114.05 5.4 115.5 3.6 116.95 3.0 118.1 1.85 120.45 2.5 132.75 3.1 145.3 4.8 149.1"/><path fill="#0d161f" d="M58.1 246.55 L48.7 247.4 40.0 246.9 Q33.45 245.55 26.65 236.95 19.9 228.35 20.35 222.15 20.5 220.35 23.05 214.7 25.55 209.2 28.1 204.95 L29.25 207.2 Q26.9 210.85 24.7 215.6 22.45 220.45 22.35 222.3 22.0 227.45 28.55 235.6 35.1 243.85 40.5 245.0 L48.35 245.4 56.65 244.65 58.1 246.55"/><path fill="#0d161f" d="M96.85 298.4 Q102.65 301.85 108.8 304.55 110.65 305.4 112.0 305.45 113.4 305.45 114.75 304.6 L119.95 302.05 Q123.4 300.4 125.15 298.9 L127.55 300.35 Q125.7 301.65 121.25 303.65 116.5 305.75 115.5 306.35 112.25 308.35 108.05 306.35 L97.35 300.9 Q88.25 295.7 84.3 291.0 82.0 288.35 82.75 284.75 83.25 282.6 83.5 278.7 83.8 273.85 83.35 270.25 L85.6 272.25 Q85.7 275.25 85.3 279.4 L84.55 284.95 Q84.0 287.75 85.85 289.9 89.0 293.7 96.85 298.4"/><path fill="#0d161f" d="M37.85 245.0 Q36.7 247.25 36.8 249.95 36.85 252.6 38.05 255.1 39.95 259.1 40.1 261.45 40.2 263.75 38.7 266.9 L36.7 271.15 Q35.8 273.45 35.8 274.8 35.8 276.5 38.6 285.65 41.4 294.95 42.5 296.3 43.8 298.05 49.4 302.3 55.05 306.7 56.05 306.65 L61.5 305.8 Q66.05 305.15 67.1 305.8 68.35 306.55 69.1 311.2 69.95 316.3 70.25 316.7 70.65 317.35 77.7 321.6 L87.5 327.1 Q89.1 327.85 91.05 327.85 93.0 327.85 94.35 327.0 96.5 325.6 98.75 325.75 101.1 325.9 102.85 327.7 104.6 329.4 107.25 330.95 110.25 332.65 112.0 332.5 118.4 331.85 129.5 333.6 L130.6 336.5 120.65 334.95 111.75 334.45 Q109.65 334.6 106.2 332.65 103.2 331.05 101.45 329.25 100.0 327.8 98.05 327.75 96.35 327.65 94.8 328.7 93.1 329.8 90.8 330.1 88.2 330.4 86.4 329.5 83.2 327.95 76.15 323.8 68.4 319.25 68.0 318.45 67.65 317.8 66.95 312.7 66.4 308.05 65.65 307.6 L60.65 307.85 55.95 308.75 Q54.5 308.75 48.1 304.2 41.8 299.75 40.5 298.1 38.6 295.65 36.05 287.3 33.5 278.9 33.5 275.3 33.5 273.8 34.75 271.05 L36.95 266.2 Q38.25 263.55 38.1 261.75 37.95 259.85 36.05 255.85 34.8 253.2 34.85 249.9 34.9 246.7 36.1 244.2 L37.85 245.0"/><path fill="#0d161f" d="M142.65 339.8 Q144.85 341.1 147.3 341.7 L150.95 341.9 Q151.95 341.6 153.55 338.45 155.3 335.15 155.9 334.8 L160.4 334.5 Q163.6 334.85 165.0 335.6 L168.25 338.0 171.6 341.3 Q172.9 342.75 175.55 343.25 178.45 343.75 181.6 342.75 184.75 341.85 188.0 339.85 191.05 337.95 192.7 336.05 194.45 333.95 196.65 333.25 198.3 332.7 201.5 332.65 207.4 332.55 211.9 331.5 213.1 331.25 213.2 331.75 213.35 332.25 212.15 332.6 L207.0 333.7 201.5 334.1 Q198.7 334.1 197.1 334.75 195.45 335.4 193.9 337.25 192.0 339.4 188.55 341.75 184.65 344.3 181.4 345.25 178.3 346.2 175.45 345.85 171.9 345.4 169.9 343.05 165.5 337.95 164.25 337.3 163.1 336.7 160.65 336.6 158.2 336.5 157.45 337.0 L155.15 340.45 Q153.15 343.55 151.5 344.0 149.8 344.45 147.0 343.95 144.05 343.4 141.8 342.05 140.25 341.15 137.45 340.8 L133.5 340.7 Q132.5 340.8 130.95 338.25 129.9 336.45 128.0 332.35 127.5 331.3 127.95 331.0 128.4 330.75 129.05 331.75 132.5 337.9 133.6 338.45 135.25 338.15 137.9 338.45 140.9 338.85 142.65 339.8"/><path fill="#0d161f" d="M199.75 192.85 L207.9 192.35 Q212.3 192.25 213.25 193.05 215.95 195.3 217.3 197.6 L219.15 197.2 221.1 196.55 225.3 196.45 Q227.4 197.35 228.05 199.35 228.45 200.45 230.05 201.0 L234.35 201.75 Q238.15 202.1 238.0 209.65 238.0 211.25 239.6 212.05 L242.7 212.1 Q252.65 207.55 257.5 204.65 261.85 202.0 266.5 204.8 270.1 207.0 276.65 214.25 282.7 220.9 283.6 222.85 284.3 224.45 283.95 227.9 L283.4 231.8 Q283.2 233.45 284.8 234.95 286.35 236.4 288.3 236.4 291.95 236.4 296.35 238.95 297.9 239.8 298.85 241.3 300.0 242.95 300.1 245.05 L300.15 256.3 299.7 270.0 Q299.55 272.75 296.2 274.2 L293.65 275.7 291.4 277.5 Q291.95 283.95 289.35 288.7 287.95 291.3 284.65 294.5 L280.95 298.15 Q279.8 300.15 281.3 304.05 282.65 307.6 279.7 309.8 L266.5 318.55 252.1 328.25 Q254.55 335.0 255.2 339.7 L258.55 340.2 Q260.4 340.85 260.95 341.75 261.6 342.8 261.35 346.8 261.15 350.4 260.6 352.15 259.85 354.45 256.1 359.15 260.05 363.35 262.7 367.75 L268.85 367.05 Q270.4 366.95 271.6 367.7 273.15 368.65 273.4 370.65 273.65 373.6 273.35 379.3 273.25 380.55 272.8 381.35 272.25 382.35 270.9 383.25 L266.75 386.15 Q264.45 387.95 264.5 388.9 264.55 389.6 266.2 390.75 268.0 392.0 270.7 393.05 272.25 393.6 272.5 394.8 272.8 396.0 271.4 397.4 270.9 397.95 270.5 399.3 270.2 400.65 269.7 401.0 L266.25 401.45 262.35 401.25 Q260.75 401.3 259.5 400.35 258.1 399.2 257.55 397.2 257.2 395.65 255.55 392.65 253.95 389.6 252.7 388.35 251.4 387.05 251.4 385.55 251.4 384.65 252.0 383.15 254.5 378.0 254.4 376.7 254.3 375.45 251.6 372.3 248.7 369.05 247.25 368.85 245.95 368.6 242.45 371.4 L238.85 374.2 Q235.95 374.6 230.85 370.45 226.1 366.6 226.1 365.05 226.1 363.85 227.95 361.1 229.8 358.25 231.95 356.3 L228.1 351.65 Q225.6 348.85 225.1 348.6 224.55 348.2 222.45 348.15 220.2 348.1 219.15 348.6 216.85 349.45 214.35 349.3 211.75 349.1 209.5 347.85 207.6 346.85 202.35 341.6 L195.3 334.8 197.55 333.7 Q199.2 335.0 204.65 340.25 209.25 344.8 210.95 345.8 215.15 348.25 219.3 346.65 L223.05 346.3 226.3 346.9 230.1 350.75 234.1 355.65 Q234.55 356.3 234.1 356.7 232.0 358.55 230.0 361.35 228.1 364.0 228.1 364.9 228.4 366.0 232.95 369.4 237.5 372.7 238.45 372.45 L242.15 369.45 Q245.75 366.6 247.45 366.75 249.4 366.9 252.8 371.05 256.0 374.95 256.15 376.5 256.35 378.65 254.15 383.85 253.5 385.15 253.5 385.7 253.5 386.55 254.55 387.55 255.85 388.9 257.6 392.1 259.3 395.15 259.7 396.85 260.1 398.3 261.05 399.1 261.9 399.85 262.9 399.85 L266.0 400.05 268.55 399.8 269.3 398.5 Q269.65 397.3 270.2 396.5 271.3 395.0 270.05 394.5 266.55 393.05 264.6 391.55 262.65 390.2 262.65 389.1 262.6 387.55 265.0 385.1 266.85 383.2 269.4 381.45 271.3 380.2 271.35 379.0 271.55 373.2 271.2 370.55 271.1 369.4 270.65 369.0 270.2 368.55 268.9 368.6 L261.8 369.55 Q261.3 369.65 261.15 369.3 258.4 364.5 253.75 359.85 253.45 359.45 253.7 359.15 L256.55 355.45 258.45 351.85 Q259.0 350.3 259.2 347.1 259.4 343.8 258.9 343.0 258.5 342.3 256.85 341.85 L253.8 341.55 Q253.2 341.6 253.15 341.05 L251.95 334.15 250.2 328.05 Q250.05 327.6 250.35 327.35 L277.95 308.1 Q279.05 307.3 279.3 306.45 279.65 305.6 279.15 304.45 278.55 302.9 278.55 301.05 278.55 298.85 279.5 297.35 L283.2 292.9 Q286.45 289.1 287.1 287.75 289.3 282.7 289.3 276.75 289.3 276.45 289.55 276.3 291.9 274.35 295.3 272.7 297.2 271.8 297.35 269.8 297.6 264.9 297.45 256.2 L297.1 245.05 296.75 242.7 Q296.4 242.0 295.25 241.3 291.2 238.85 288.15 238.85 285.4 238.9 283.05 236.55 280.7 234.15 281.15 231.65 282.05 226.25 281.0 224.05 280.15 222.1 274.6 215.85 268.45 208.9 265.1 206.85 261.45 204.6 258.3 206.3 250.3 210.6 243.35 213.9 240.95 215.05 238.3 213.8 235.55 212.5 235.55 209.85 235.55 207.05 235.25 205.75 234.75 203.65 233.3 203.5 230.95 203.3 229.05 202.55 226.45 201.6 225.95 200.0 224.7 196.4 221.8 198.05 219.0 199.5 216.45 200.1 216.05 200.25 215.85 199.8 L214.2 197.3 212.35 195.2 207.4 194.85 199.75 195.2 Q197.35 195.45 196.2 196.1 194.65 196.9 193.8 198.95 191.55 203.95 190.5 207.9 189.55 211.1 186.25 212.55 179.2 215.55 178.05 212.6 177.45 211.1 176.45 210.45 175.65 209.95 174.2 209.9 L169.8 209.8 165.85 209.9 Q164.2 210.05 162.95 210.75 161.4 211.45 160.85 212.65 159.4 215.75 154.85 216.2 L150.55 216.35 Q147.95 216.15 146.75 214.75 L144.8 212.4 142.4 210.0 138.25 209.85 Q135.25 210.3 132.45 211.35 L132.6 209.25 Q135.4 208.25 138.45 207.8 L143.35 208.1 Q144.35 208.7 146.05 210.75 L148.0 213.2 Q149.0 214.25 151.0 214.4 L154.7 214.25 Q156.6 214.05 157.7 213.5 158.8 212.9 159.35 211.75 160.15 210.15 162.1 208.9 163.95 207.65 165.8 207.45 168.2 207.2 174.1 207.3 175.8 207.3 176.95 207.95 178.6 208.9 179.7 211.3 180.15 212.1 182.2 211.6 183.85 211.25 185.8 210.3 188.2 209.25 188.9 206.8 189.7 203.9 192.2 198.3 193.55 195.3 195.1 194.15 196.65 193.1 199.75 192.85"/><path fill="#0d161f" d="M138.75 189.3 Q139.25 203.05 139.0 208.85 L137.0 209.2 Q137.2 202.85 136.2 189.25 135.85 184.85 134.45 181.9 133.55 180.2 130.1 175.35 L132.45 173.6 Q135.65 177.6 137.15 181.3 138.55 184.9 138.75 189.3"/><path fill="#0d161f" d="M243.3 143.2 Q239.65 149.35 232.1 159.05 225.3 167.85 221.05 172.45 217.5 176.2 215.3 181.2 212.45 187.55 212.55 194.3 L210.3 194.25 Q210.15 187.15 212.9 180.45 215.2 174.85 218.7 171.15 222.8 166.75 229.0 159.05 235.6 150.8 239.25 145.35 L243.3 143.2"/><path fill="#0d161f" d="M261.3 148.25 Q262.65 157.0 261.75 159.65 261.2 161.15 258.25 163.05 L251.45 166.8 Q250.2 167.5 249.85 167.05 249.55 166.65 250.8 165.85 L256.95 161.95 Q259.55 160.15 260.0 158.95 260.55 157.6 259.3 148.6 258.05 139.75 257.25 138.25 256.3 136.5 249.0 137.05 L250.25 135.35 Q257.35 134.9 258.7 137.45 260.05 139.9 261.3 148.25"/><path fill="#0d161f" d="M253.95 187.45 Q253.4 201.8 252.0 208.75 L249.55 209.8 Q251.05 203.4 251.75 188.25 252.4 173.3 251.6 165.85 L253.45 165.05 Q254.4 173.2 253.95 187.45"/><path fill="#0d161f" d="M236.5 144.75 Q232.3 152.15 219.2 161.0 205.6 170.2 196.05 171.35 187.65 172.4 169.1 161.75 151.4 151.6 140.8 140.65 135.15 134.75 127.3 134.25 120.2 133.75 113.4 137.6 L112.1 137.75 Q111.8 137.35 112.75 136.65 118.95 132.0 127.25 132.3 136.25 132.6 142.25 139.0 151.65 149.25 169.1 159.2 187.4 169.75 195.95 168.65 204.95 167.55 217.8 159.4 230.35 151.5 235.5 144.1 236.45 142.8 236.85 143.05 237.3 143.3 236.5 144.75"/><path fill="#0d161f" d="M242.15 84.9 Q250.8 88.25 257.4 97.1 260.95 102.0 261.1 109.8 261.25 117.6 257.9 125.7 249.9 145.05 229.9 151.3 L233.1 147.95 Q249.95 141.3 256.25 124.15 258.9 116.95 258.65 109.95 258.35 103.05 255.3 98.7 249.65 90.65 241.4 87.4 234.15 84.65 226.8 86.2 218.65 87.85 212.6 93.75 206.85 99.35 207.0 104.5 L204.65 104.95 Q204.7 99.1 210.45 92.95 216.9 86.15 226.65 83.9 234.55 82.05 242.15 84.9"/><path fill="#0d161f" d="M139.0 98.15 Q129.1 97.8 120.2 105.4 111.35 113.1 109.65 123.6 109.25 126.25 107.65 127.65 101.8 132.65 97.7 143.55 93.5 155.05 95.2 163.15 96.1 167.35 102.65 171.45 108.3 175.05 113.3 176.0 115.4 176.4 120.4 176.0 L127.6 175.05 Q130.65 174.25 143.1 167.25 156.0 160.0 161.6 155.6 L163.5 156.8 Q157.7 161.35 144.25 169.2 130.95 176.9 127.8 177.7 L120.0 178.75 Q115.1 179.1 112.9 178.75 107.8 177.85 101.45 173.35 94.2 168.35 93.05 163.5 91.05 154.8 95.2 143.35 99.25 132.35 106.2 126.15 L107.2 125.05 107.7 123.25 Q109.55 111.6 117.75 104.0 126.0 96.35 137.3 96.15 L139.0 98.15"/><path fill="#0d161f" d="M231.3 109.4 Q218.65 103.15 205.05 106.45 192.3 109.5 187.75 118.3 187.0 119.7 186.5 119.55 186.0 119.35 186.65 117.85 191.2 107.25 205.45 104.1 219.95 100.8 231.85 108.35 232.85 109.05 232.6 109.5 L231.3 109.4"/><path fill="#0d161f" d="M189.15 114.7 Q167.05 109.3 149.45 115.85 141.7 118.8 136.85 123.5 132.05 128.25 131.25 133.85 L129.25 133.5 Q132.2 119.75 148.65 113.55 166.3 106.95 190.2 113.1 L189.15 114.7"/><path fill="#0d161f" d="M168.8 93.75 Q172.1 96.9 174.65 102.4 177.0 107.6 177.5 112.1 L174.9 111.55 Q174.5 107.1 172.65 102.55 170.8 98.05 167.9 94.45 167.15 93.55 167.55 93.25 167.95 92.9 168.8 93.75"/><path fill="#0d161f" d="M190.7 91.95 Q187.3 95.9 184.9 101.1 182.1 107.05 181.9 112.2 L179.55 112.05 Q179.75 106.4 183.1 100.05 186.1 94.35 189.85 91.15 190.9 90.25 191.25 90.55 191.55 90.95 190.7 91.95"/><path fill="#0d161f" d="M144.35 179.45 Q145.55 174.75 148.55 171.65 149.2 170.9 149.7 171.15 150.1 171.4 149.55 172.3 147.2 175.85 145.4 179.95 145.0 180.9 144.5 180.7 144.0 180.55 144.35 179.45"/><path fill="#0d161f" d="M194.15 188.85 Q193.4 184.05 190.2 178.05 189.65 177.05 190.05 176.8 190.55 176.55 191.2 177.5 193.0 179.85 194.1 182.8 195.3 185.9 195.35 188.75 195.35 190.2 194.85 190.2 194.4 190.25 194.15 188.85"/><path fill="#0d161f" d="M165.85 199.95 Q163.25 200.3 161.2 199.3 158.95 198.25 158.45 195.9 157.3 190.75 160.2 181.05 162.9 171.8 164.6 171.8 166.4 171.8 169.35 180.35 172.35 188.75 172.25 193.0 172.1 198.95 165.85 199.95 M167.85 181.55 Q165.35 173.6 164.65 173.7 163.8 173.8 161.6 182.35 159.2 191.55 160.15 195.6 160.9 199.1 165.6 198.25 170.3 197.3 170.4 192.9 170.45 189.7 167.85 181.55"/><path fill="#0d161f" d="M170.9 143.1 Q172.35 152.4 178.9 157.1 184.5 161.0 191.8 160.6 198.5 160.3 202.3 157.0 205.9 153.75 205.6 149.0 205.25 144.25 201.85 141.6 198.9 139.4 194.5 139.4 187.45 139.4 184.55 144.6 183.75 146.1 182.05 146.15 179.25 146.2 176.55 145.1 173.85 143.95 172.25 142.1 171.5 141.3 171.1 141.45 170.7 141.7 170.9 143.1 M170.4 139.9 Q171.6 139.35 173.3 141.05 176.85 144.65 181.9 144.65 L182.7 144.5 183.3 143.65 Q186.5 137.8 194.5 137.65 199.7 137.55 203.35 140.5 207.1 143.6 207.45 148.95 207.8 154.7 203.35 158.45 198.95 162.1 191.85 162.4 183.6 162.8 177.6 158.3 170.85 153.2 169.4 143.3 169.0 140.45 170.4 139.9"/><path fill="#0d161f" d="M237.45 140.15 Q238.7 137.4 239.7 132.4 240.6 127.65 240.85 123.65 240.95 122.3 241.45 122.35 241.95 122.35 242.0 123.7 242.25 128.0 241.25 133.0 240.2 137.95 238.5 140.65 237.85 141.7 237.4 141.45 236.95 141.25 237.45 140.15"/><path fill="#0d161f" d="M236.65 99.15 Q236.8 102.2 238.5 105.15 239.7 107.15 241.9 109.5 243.1 110.85 242.25 112.35 241.65 113.3 240.25 114.15 238.9 114.85 237.8 114.95 236.4 115.05 237.4 116.05 240.25 118.95 248.25 118.25 257.1 117.5 259.45 111.75 L259.2 115.25 Q255.75 120.15 247.2 120.15 239.45 120.15 236.4 117.1 235.0 115.7 235.45 114.65 235.8 113.55 237.55 113.4 L239.4 112.85 240.9 111.6 Q241.35 111.1 240.65 110.4 235.25 105.0 234.85 99.3 234.5 93.9 237.35 90.45 240.2 87.1 244.55 87.5 L246.8 89.45 Q241.85 88.45 239.0 91.8 236.4 94.7 236.65 99.15"/><path fill="#0d161f" d="M206.95 123.1 Q203.75 123.05 203.05 119.75 202.35 116.4 205.25 114.7 207.55 113.4 213.25 113.4 218.95 113.35 222.05 114.75 224.55 115.85 224.6 117.8 224.65 119.7 222.5 120.7 219.95 121.95 214.75 122.6 L206.95 123.1 M214.65 120.95 Q219.6 120.4 221.8 119.3 223.1 118.6 223.05 117.7 222.95 116.8 221.5 116.1 218.8 114.95 213.6 114.95 208.25 114.9 206.05 116.2 204.5 117.1 204.8 119.2 205.05 121.3 206.95 121.35 L214.65 120.95"/><path fill="#0d161f" d="M223.2 135.15 Q226.45 135.75 227.25 137.55 228.05 139.35 227.5 141.45 227.0 143.65 225.4 144.3 223.85 144.9 221.8 144.95 219.45 145.05 218.65 144.05 217.65 142.95 217.45 140.45 217.25 137.6 218.55 136.05 219.85 134.45 223.2 135.15 M219.6 137.1 Q218.8 138.1 219.0 140.25 219.15 142.2 219.9 142.95 220.35 143.4 221.95 143.3 223.45 143.15 224.8 142.6 225.65 142.25 226.1 140.9 226.5 139.5 226.0 138.25 225.4 137.0 222.95 136.45 220.4 136.0 219.6 137.1"/><path fill="#0d161f" d="M168.1 127.05 Q165.6 128.85 163.6 130.7 161.6 132.55 158.25 131.5 154.8 130.35 155.4 127.35 156.3 123.05 160.95 120.5 165.65 117.95 172.15 118.2 175.85 118.35 176.05 120.4 176.25 122.4 173.2 123.9 170.95 124.95 168.1 127.05 M172.05 119.8 Q166.7 119.55 162.55 121.55 157.95 123.7 157.15 127.65 156.7 129.45 159.05 130.05 161.3 130.6 162.65 129.4 167.75 124.75 172.35 122.45 174.25 121.5 174.15 120.65 174.05 119.9 172.05 119.8"/><path fill="#0d161f" d="M134.45 97.55 Q135.25 101.55 133.15 104.9 131.25 107.8 127.65 109.95 123.9 112.2 119.35 112.95 115.85 113.65 114.75 120.05 114.55 121.6 113.3 121.85 112.1 122.15 111.3 120.85 110.55 119.65 110.0 118.1 L110.85 115.85 Q111.5 118.4 112.35 119.75 112.65 120.25 113.0 120.1 113.3 120.0 113.4 119.45 114.6 112.45 119.0 111.45 123.4 110.5 126.75 108.6 130.0 106.65 131.7 104.0 133.5 101.2 132.65 97.85 L134.45 97.55"/><path fill="#0d161f" d="M127.95 141.45 Q127.8 144.45 123.5 150.45 119.5 156.15 117.65 156.8 115.95 157.45 113.65 155.95 111.2 154.45 111.35 152.25 111.5 150.35 116.4 143.95 121.15 137.85 122.75 137.1 124.2 136.4 126.1 138.15 128.05 139.85 127.95 141.45 M125.4 139.45 Q124.25 138.2 123.25 138.55 122.2 139.0 117.75 144.8 113.15 150.75 113.0 152.35 112.9 153.55 114.55 154.6 116.05 155.5 117.05 155.15 118.45 154.65 122.2 149.6 126.25 144.1 126.45 141.4 126.5 140.6 125.4 139.45"/><path fill="#0d161f" d="M133.65 148.3 Q135.45 148.7 136.1 151.75 136.85 154.85 135.2 155.5 L130.8 155.25 Q127.4 154.45 127.1 152.85 126.8 151.4 129.65 149.7 132.35 148.0 133.65 148.3 M130.35 150.8 Q128.4 151.95 128.55 152.6 128.7 153.35 131.15 153.9 L134.55 154.05 Q135.15 153.8 134.7 152.0 134.2 150.1 133.3 149.9 132.35 149.7 130.35 150.8"/><path fill="#0d161f" d="M99.75 148.9 Q101.1 152.65 100.6 159.55 100.1 166.8 97.85 169.15 L96.65 168.0 Q98.5 166.3 98.9 159.55 99.3 152.95 98.05 149.5 97.55 148.0 96.65 147.8 95.9 147.65 95.2 148.4 L95.65 146.2 97.7 146.1 Q99.05 146.85 99.75 148.9"/><path fill="#0d161f" d="M103.55 198.35 Q104.2 201.25 105.55 202.5 L113.25 207.55 Q119.5 211.35 121.8 212.2 125.5 213.65 128.45 212.25 131.3 210.9 132.55 207.3 L132.55 211.0 Q130.65 214.2 127.4 215.05 124.35 215.95 120.7 214.5 118.35 213.6 112.2 209.85 L103.9 204.4 Q102.25 203.15 101.65 199.5 101.1 196.6 101.4 194.05 L103.2 193.1 Q102.9 195.7 103.55 198.35"/><path fill="#0d161f" d="M211.9 244.95 Q208.35 249.45 198.45 252.2 189.35 254.65 183.8 253.7 180.95 253.2 177.25 250.25 173.85 247.55 172.4 244.95 171.15 242.75 171.4 236.2 171.6 229.5 173.15 226.05 L175.7 224.9 Q174.05 227.4 173.5 234.6 173.0 241.75 174.2 243.85 175.55 246.15 178.3 248.35 181.2 250.6 183.75 251.0 190.65 252.2 200.2 249.3 210.8 246.05 212.55 240.8 L211.9 244.95"/><path fill="#0d161f" d="M238.05 320.5 Q238.5 320.75 238.1 321.8 235.65 328.3 232.95 330.4 231.4 331.75 227.8 332.15 224.55 332.55 221.3 332.05 219.85 331.85 219.85 331.4 219.85 330.95 221.3 330.9 229.25 330.9 231.8 328.85 234.45 326.75 237.1 321.25 237.6 320.2 238.05 320.5"/><path fill="#0d161f" d="M268.85 40.4 L270.75 39.8 Q271.35 39.5 271.6 39.95 271.85 40.35 271.2 40.85 L269.3 42.2 268.85 40.4"/><path fill="#0d161f" d="M235.7 173.45 Q235.5 174.45 232.05 177.2 228.6 180.0 228.4 180.95 227.85 183.2 228.65 189.35 229.45 195.55 230.3 196.25 230.75 196.6 234.35 198.05 237.8 199.55 238.0 200.85 238.25 202.55 237.95 205.7 237.6 208.85 236.85 211.0 L236.1 206.7 Q236.5 203.0 236.2 201.3 236.05 200.65 232.8 199.3 L229.0 197.55 Q226.95 195.85 226.4 189.3 225.9 183.75 226.6 180.65 226.95 179.2 230.3 176.35 233.7 173.5 233.8 172.85 234.2 170.35 231.25 157.75 L232.8 155.7 235.05 166.35 Q236.05 172.1 235.7 173.45"/><path fill="#bf899d" d="M150.4 21.1 Q159.15 23.7 164.25 27.9 167.2 30.4 163.15 34.35 159.05 38.3 156.6 36.05 155.15 34.75 152.85 28.95 150.65 23.45 150.4 21.1"/><path fill="#bf899d" d="M178.9 6.1 Q181.55 8.95 183.4 12.9 185.3 16.85 186.0 21.05 186.55 24.25 180.3 24.75 174.0 25.2 173.95 21.6 173.8 13.8 178.9 6.1"/><path fill="#bf899d" d="M209.3 16.95 Q209.3 20.25 208.15 24.8 207.15 28.6 206.0 31.15 205.2 32.9 203.1 32.9 201.15 32.85 199.1 31.5 197.0 30.2 196.25 28.5 195.35 26.55 196.6 25.15 198.7 22.75 202.4 20.4 205.9 18.2 209.3 16.95"/><path fill="#9b7182" d="M150.35 21.35 Q152.0 24.45 155.6 28.5 159.15 32.6 162.25 34.9 158.25 37.95 156.15 35.4 154.9 33.75 153.25 29.85 151.55 25.8 150.35 21.35"/><path fill="#9b7182" d="M179.6 6.7 Q181.75 9.6 183.55 13.55 185.25 17.3 185.85 20.15 186.35 22.5 184.3 23.65 182.8 24.5 180.6 24.5 182.5 17.7 179.6 6.7"/><path fill="#9b7182" d="M206.35 30.45 Q205.55 32.45 203.35 32.55 201.3 32.6 198.95 31.1 201.9 28.55 204.75 24.95 207.8 21.0 209.45 17.55 208.0 26.25 206.35 30.45"/><path fill="#0d161f" d="M206.85 31.4 Q206.0 33.5 203.6 33.65 201.4 33.8 198.95 32.5 196.55 31.1 195.45 29.2 194.2 27.1 195.45 25.3 196.65 23.45 202.7 19.5 208.9 15.45 209.9 16.05 210.8 16.6 209.6 22.2 208.5 27.35 206.85 31.4 M208.9 17.6 Q208.55 17.3 203.55 20.7 198.2 24.25 196.95 26.25 195.5 28.55 199.85 30.85 204.25 33.15 205.25 30.6 207.0 26.25 208.2 22.05 209.3 17.9 208.9 17.6"/><path fill="#0d161f" d="M183.25 11.2 Q186.05 17.1 186.85 21.0 187.25 22.85 185.25 24.15 183.35 25.35 180.5 25.6 177.6 25.8 175.5 24.9 173.1 23.85 173.0 21.8 172.8 17.9 175.2 11.5 177.55 5.35 178.95 5.2 180.3 5.05 183.25 11.2 M178.95 7.0 Q178.3 7.0 176.5 12.25 174.55 17.95 174.85 21.6 175.0 24.1 180.2 23.7 185.4 23.35 185.1 21.3 184.35 16.8 181.95 11.65 179.75 7.0 178.95 7.0"/><path fill="#0d161f" d="M151.25 22.15 Q150.85 22.45 152.85 27.15 154.95 32.0 156.85 35.0 158.35 37.3 162.2 34.0 165.95 30.8 163.8 28.75 161.65 26.7 156.55 24.15 151.75 21.8 151.25 22.15 M155.95 22.05 Q161.9 24.6 165.0 27.5 166.7 29.15 166.05 31.6 165.45 33.75 163.25 35.55 161.1 37.35 158.9 37.6 156.5 37.9 155.4 36.0 152.4 30.9 150.6 25.45 149.05 20.7 149.65 20.25 150.5 19.7 155.95 22.05"/></g></svg>