<?xml version="1.0" encoding="UTF-8"?>
<!-- Created with Inkscape (http://www.inkscape.org/) -->
<svg version="1.1" viewBox="0 0 209.99 320.57" xmlns="http://www.w3.org/2000/svg">
 <g stroke-width="13.755">
  <path d="m68.33 161.66c0.15596-5.103-0.23394-9.6971-1.3217-12.984-3.7274 2.0781-8.5964 8.4315-10.357 15.006-5.1443-3.6182-12.764-7.7714-17.867-7.6065 1.1541 2.7917 2.7488 6.1896 5.9833 9.4772-4.3329 0.31193-6.96 1.0449-9.5458 2.2419 1.3763 1.7038 3.1776 3.0139 5.5981 4.0027-19.518 15.79-22.214 48.54-7.2349 74.867 1.5557 2.7254 2.6552 5.3919 3.357 7.964 4.5251 4.6768 6.822 10.481 6.5194 14.676 1.622-2.9008 3.2595-5.048 4.2366-4.7594 0.96304 0.31191 1.774 3.7157 0.7408 9.216 6.1623-4.6768 16.712-11.733 18.198-11.141 1.4855 0.59264-2.008 13.961-8.5418 20.206 7.4965 1.1814 14.181-2.9008 14.855-2.3121 0.47956 0.42499-0.57704 3.205-2.5304 6.4649 6.5335-3.8249 12.627-9.0234 17.523-15.543l20.068-33.658 0.117-53.368c-7.5651-17.51-21.375-25.158-39.792-22.75" fill="#ffe55f"/>
  <path d="m191.15 195.58c-1.8559 6.4649-4.2366 13.879-12.462 20.893 1.5401 1.2087 4.4565 2.6396 7.1663 3.6572-2.9281 1.6103-8.6241 2.8462-16.231 2.8462-4.0163 9.6558-8.7617 23.094-10.66 30.04-1.8988 6.946-2.4914 13.37-0.23394 21.402 2.2692 8.0467 5.2269 15.474 9.7934 22.874 0.90845 1.4855 2.0626 2.0781 3.7547 2.3121 6.0933 0.81098 8.2252 6.1896 7.3998 8.7064-0.82658 2.5187-7.6887 3.548-15.942 2.2419-3.1231-0.47956-5.2266-2.6006-5.873-5.6394-2.4056-11.403-6.8224-25.556-12.049-34.91-1.0449-1.8715-1.0878-2.7488-0.65893-4.1126 3.5091-11.238-1.4309-22.626-12.008-31.017-10.22 6.2999-26.079 21.059-30.467 29.105-4.3875 8.033-9.6971 27.221-10.88 40.04-0.15595 1.388 0.19496 2.546 1.3491 3.5208 3.1231 2.6825 2.3238 9.147-0.99034 10.852-3.5091 1.8169-9.8074 1.9807-12.654 0.27294-2.8618-1.6922-2.8891-9.4222-0.117-11.623 1.3061-1.0332 1.9963-2.0509 2.5148-3.989 2.9008-10.907 4.7595-22.778 6.2999-33.603 0.38989-2.5577 1.1697-4.3052 2.4212-7.015 9.0093-19.614-2.971-38.046-18.349-40.191 0.19494-1.4153 2.2302-2.9983 8.2529-2.6669-7.5515-4.3052-11.76-9.972-14.608-24.58z" fill="#595757"/>
  <path d="m163.46 85.629c11.348-27.826 11.815-76.985 8.6381-77.714-3.5208-0.79928-28.459 33.424-31.498 56.449-3.4389-1.1151-9.5735-1.9807-14.071-1.8715-9.7525-37.605-40.645-63.189-44.167-61.937-3.0685 1.0995-13.92 60.067 8.7617 88.016l-1.8559 3.0685 25.763 19.298 46.147 11.031c-0.15596-1.7467 1.0176-3.357 4.5251-3.7274-2.6279-0.50686-3.7976-0.94745-5.3369-1.8988 3.9477-2.7098 10.743-10.014 10.963-16.519 2.0509-5.1856 2.3667-11.141 1.9261-15.227-2.1873 3.1504-6.052 5.0757-9.2846 3.4233z" fill="#ffe55f"/>
  <path d="m156.06 73.542c2.4641 7.785 3.548 16.396 2.6825 25.268-0.31192 3.2322-1.7038 6.8633-4.6491 9.917 0.97865 2.5187 2.7371 5.8044 6.4099 7.6751 4.814-3.5091 10.137-9.3119 11.017-16.712 1.8559-4.3875 2.3511-10.467 1.8286-14.827-2.4914 3.3141-5.997 5.0066-9.2842 3.4233-1.4855-6.0247-4.4429-11.402-8.0053-14.745" fill="#fff"/>
  <path d="m140.46 128.13c-2.6825-0.15595-4.4428-0.31192-6.5198-0.88116-1.0995 4.5528 1.0605 9.9447 5.6944 10.302 8.9957 0.7135 13.535-3.8912 14.415-8.8167-5.1993 0.93574-10.358 0.31191-13.59-0.60434m25.763-3.8366c-2.0898 1.8715-4.4978 2.7371-6.5198 3.1776 2.2419 5.9693 0.81097 14.085-1.7623 18.308 2.0236-0.7135 3.5091-2.0782 4.993-3.8366 1.2516 12.709-7.785 17.427-16.891 18.088l-41.485-3.6182-1.4153 2.6825c-9.0507-2.2419-13.603-9.9724-13.713-17.757 1.5401 2.1444 3.6728 3.2868 5.3229 3.6182-4.2226-9.4772-0.7135-18.954 3.8366-22.737 3.0685 12.435 9.4218 14.14 15.777 14.731 3.3297 0.31192 4.4015-0.39769 5.763-2.1873 1.0332-1.3607 1.3607-3.9477 1.7467-7.07 0.19495-1.583-0.772-2.6279-3.01-3.1776-20.962-5.117-39.187-16.547-41.099-25.818-3.7274-4.0027-4.938-8.9267-4.8831-14.951 6.6025 6.8637 17.468 10.096 27.014 8.4865 0.49516-1.3061 1.3217-2.4602 2.6396-3.8912 2.5148-6.2999 6.1346-10.632 12.09-13.92 13.452 2.0509 18.926 13.892 21.416 23.672 1.6376 6.5058 4.1539 9.6558 6.5748 10.316 5.5431 7.1526 12.352 10.151 19.284 11.76z" fill="#fff"/>
  <path d="m144.36 165.17-18.706-10.742-10.674 6.8637c-0.0779 14.979-6.3545 28.211-17.826 30.192-13.59 2.3238-22.324 4.9517-32.448-7.9776-1.0995 11.169 4.2502 29.545 34.937 29.38-3.1231 1.7896-7.84 3.8795-11.402 4.3742 3.782 0.27292 7.1936 0.88117 11.128 2.5733 6.5194 2.7917 19.559 0.49518 24.332-4.8281-1.4309 3.3414-2.5733 5.7634-4.9376 8.7204 7.5098 0.0389 14.085-3.6182 19.023-11.402 1.9105 5.2679 7.8954 9.6971 15.405 8.2252-2.199-2.2575-4.0023-4.3875-5.9829-6.6848 12.998 6.96 22.09 4.7591 25.652-1.9807-2.4057-0.99033-6.2446-3.0685-9.092-4.5528 27.853 2.5187 30.412-10.949 27.785-27.564-8.0603 11.128-21.43 14.085-29.49 10.632-10.124-4.3329-16.231-12.104-17.702-25.226" fill="#ffe55f"/>
 </g>
 <g fill="#ea5520" stroke-width="13.755">
  <path d="m73.079 280.65c-0.67399-0.59146-7.3589 3.4937-14.855 2.2971 6.5336-6.231 10.027-19.601 8.5418-20.206-1.4855-0.59146-12.036 6.4648-18.198 11.141 1.0316-5.4882 0.22008-8.9132-0.74276-9.202-0.9766-0.30261-2.5997 1.8569-4.2365 4.7454 0.30261-4.1815-1.9945-9.9998-6.5198-14.663 3.7001 13.645-4.4566 24.442-22.544 24.442 0.66024 3.8101 7.015 8.5418 14.621 8.2529-1.458 0.93533-2.6684 1.4855-3.8239 1.6506 10.151 8.4593 29.037 7.4689 45.226-1.9945 1.9532-3.2737 3.0123-6.0384 2.5309-6.4648"/>
  <path d="m125.33 99.741c-1.403 3.8651-1.6368 12.476 2.2971 12.778 3.645 0.2751 4.5666-4.7592 3.645-10.316z"/>
  <path d="m159.25 102.86c-1.3892 1.0729-2.4071 1.967-3.1224 2.5997-1.5268 2.2145-1.0591 5.6945 0.055 5.8871 1.403 0.24759 3.3424-3.7551 3.0673-8.4868"/>
 </g>
 <path d="m126.81 101.22c-0.35091-0.0389-0.89285 0.47956-1.1151 1.735-0.19496 1.1814 0.0277 2.0353 0.38989 2.1054 0.45228 0.117 0.96304-0.31192 1.1541-1.8013 0.15596-1.236-0.0779-1.9807-0.42499-2.0353" fill="#fff" stroke-width="13.755"/>
 <path d="m151.38 158.93c0.99033 12.159 3.7274 22.173 10.563 31.044-8.3765-3.8249-17.138-9.683-17.688-25.24 0.88115-1.583 1.3217-2.9593 1.4309-4.4288 1.9105-0.38991 3.6182-0.77201 5.6948-1.3763" fill="#fff" stroke-width="13.755"/>
 <g fill="#ea5520" stroke-width="13.755">
  <path d="m170.16 121.58c1.1417-1.1692 0.90782-2.4621-0.56395-2.5309-1.4718-0.0688-2.9986-0.19257-4.2228-0.49518-2.5447 0.66024-4.264 2.0632-3.9614 3.6175 0.28885 1.5543 2.916 2.5034 5.5982 2.132 1.3342-0.90782 2.1733-1.7194 3.1499-2.7235"/>
  <path d="m110.9 49.054c-16.547-10.578-29.738-10.976-30.467-9.092-0.60522 1.5268 4.9243 5.3644 6.96 8.2117-8.0053-3.6726-15.791-4.4291-27.138-3.5075-11.334 0.93533-19.477-0.82529-24.195-8.8169-8.5555-14.47-24.635-23.383-34.717-17.317-0.1513 1.1692 6.7949 2.4071 10.811 6.7949-4.154-1.6781-10.371-2.3383-10.591-0.88031-0.22008 1.458 12.091 6.0522 14.828 24.332 3.0261 20.165 20.454 33.851 51.526 31.279 15.158-1.2517 27.193 1.1829 34.814 8.2942 1.9394-6.6161 8.3767-13.191 15.089-14.952-0.86656-5.9834-3.0261-16.547-6.9187-24.346"/>
  <path d="m163.15 36.577c4.3053-3.1361 8.1154-5.6945 9.3533-4.6079 1.2379 1.1004-1.6093 8.9132-4.7454 13.672 2.4071-0.50893 5.3231-1.0316 6.0659 0.13755 11.912-31.856 31.678-38.981 32.737-37.922 0.86656 0.88031-2.2696 4.8967-4.6767 10.014 3.1361-1.1004 6.8637-0.89407 7.3038 0.28885 0.72901 1.9807-8.9132 7.1663-11.031 17.18-1.8844 8.8719-2.6272 14.099-3.37 22.572-1.2379 14.346-7.8265 25.337-21.912 23.535-2.861-0.37138-7.7578-0.79778-11.403-0.50893-0.94908-1.8294-2.9298-5.3369-5.7083-7.9641 0.81154-8.4868 4.3878-26.162 7.3864-36.395"/>
 </g>
 <g stroke-width="13.755">
  <path d="m58.263 159.79c-3.9477-11.031-9.4634-25.694-10.082-33.975-0.22008-2.9298-0.44016-5.1994-0.22008-8.2667s0.22008-18.624-0.59146-20.742c-0.79778-2.132-2.6272-4.099-3.9339-3.7276-1.3205 0.35763-1.1692 1.3067-1.1692 2.4071 0 4.828 0.20632 12.861 0.5777 18.707-3.0673-6.9462-10.591-21.705-12.132-22.943-1.5268-1.2517-4.8142-1.6093-5.557-0.81154-0.72901 0.81154-1.458 3.59-0.13755 6.6574 1.3067 3.0673 4.4566 12.049 5.3369 14.979 0.86656 2.916 2.187 4.2365 3.9339 6.1347 1.7606 1.8982 3.8926 5.2131 4.828 7.5239 2.7785 6.8774 10.963 25.969 11.334 34.002 2.4621 1.5956 4.5391 2.7372 6.0797 3.9476 0.60522-1.7056 1.0591-2.6272 1.7331-3.8926" fill="#864c16"/>
  <path d="m156.91 105.2c-0.26134-0.0413-0.64648 0.34387-0.81154 1.2654-0.1513 0.86656 0.0138 1.4718 0.2751 1.5406 0.2751 0.055 0.72901-0.35763 0.8528-1.3205 0.1238-0.90782-0.055-1.4443-0.31636-1.4855" fill="#fff"/>
  <path d="m85.946 104.81c13.067 11.719 39.724 20.784 49.174 20.715 1.1554 0.88031 3.1224 2.132 4.1677 2.5722-1.6368-0.11004-4.1127-0.38513-5.1994-0.53644-1.3205 5.1994 1.4718 9.4221 5.1443 9.9173-1.0454 1.4718-2.6822 2.7372-4.7042 3.2874-2.0357 0.55019-9.6559-0.60522-13.714-7.015 0.88031-3.2874 1.3205-4.6629 1.2654-6.2447-0.055-1.5956-0.71525-2.5446-3.5625-3.0811-14.8-2.7372-39.848-16.107-40.714-25.749 2.9573 4.0439 5.8046 5.1168 8.1429 6.1347" fill="#dcdddd"/>
  <path d="m76.588 86.874c0.38514 5.4194 3.4525 12.159 10.316 18.266-8.7756-3.9752-14.044-10.22-13.81-21.059 1.458 1.3755 1.513 1.5681 3.4937 2.7922" fill="#dcdddd"/>
  <path d="m170.94 119.63c-2.4346 1.6643-5.2131 3.0673-8.1566 4.1402 0.99035 0.53644 2.3934 0.8253 4.374 0.72901 2.2833-1.5268 3.7138-3.2186 3.7826-4.8692" fill="#cb4819"/>
 </g>
 <g fill="#dcdddd" stroke-width="13.755">
  <path d="m168.6 105.2c-2.7097 4.0164-5.4057 7.0838-9.7935 9.9448 0.79778 0.64648 0.75652 0.74276 1.6231 1.403 3.6175-2.2008 9.9861-8.6656 10.522-15.02-1.4168 2.5172-1.7606 3.0123-2.3521 3.6726"/>
  <path d="m97.642 131.32c-0.38514-3.8101-2.4484-3.9339-4.0027 0.67399-0.99035 2.8885-0.99035 8.6793 1.2792 13.535l-2.0632-0.78403-3.1224-2.5722c0.19257 6.9187 4.7317 14.787 13.604 17.07l1.4305-2.4896c-4.099-4.1815-6.286-9.3121-6.9462-13.494 1.3755 1.2379 2.5859 2.1733 4.4978 2.8473-3.8789-4.993-4.0577-8.6793-4.6767-14.787"/>
  <path d="m148.72 159.79c0.46767 10.399 2.0632 18.211 8.8031 28.211-4.7317-2.6684-12.008-8.3355-13.342-22.943 0.86655-1.9945 1.1416-2.861 1.3342-4.4703z"/>
 </g>
 <g fill="#dcc653" stroke-width="13.755">
  <path d="m114.41 171.09c6.2035 7.7853 21.554 10.151 30.838 0.50893l-0.77028-6.231c-2.0082 3.7551-9.2433 9.7385-15.598 10.77 0.1513-4.828 0.0413-9.6147-2.3521-14.346-3.425 0.89407-7.8128 0.96285-11.458 0.23384 0 3.1499-0.20632 5.5845-0.66023 9.0645"/>
  <path d="m89.844 13.573c-2.4896 1.6919-5.7358 14.883-5.8458 25.364 9.6559 1.2104 18.693 4.8692 27.07 10.55-5.9834-13.741-14.209-27.95-21.224-35.914"/>
  <path d="m170.55 45.155c0.16506-1.8432 0.24759-3.7551 0.2751-5.7083-1.3755 2.6547-2.2971 4.6354-3.4525 6.4373 1.2654-0.38514 2.242-0.52269 3.1774-0.72901"/>
  <path d="m170.55 31.898c-0.28885-4.3878-0.96284-8.9132-1.6918-12.778-1.8569 4.9243-4.0577 11.719-5.7496 17.868 2.6822-2.3658 5.2956-4.3053 7.4414-5.0893"/>
  <path d="m146.77 45.935c0.5502 7.125 5.2681 14.47 10.082 18.088-0.44016 3.0673-0.88032 6.0246-1.2104 8.8719-4.4841-3.5075-8.6518-6.7949-14.897-8.4317 1.1967-7.6752 2.8473-12.393 6.0246-18.528"/>
  <path d="m161.2 81.026c1.2517-0.05502 2.4896-0.11004 3.7413 0-0.4264 1.3755-1.0041 2.8748-1.7469 4.4291-0.63273-1.9394-0.96284-2.861-1.9945-4.4291"/>
 </g>
 <g fill="#cb4819" stroke-width="13.755">
  <path d="m194.73 54.123c0 19.835-8.0054 29.05-22.984 27.29-5.048-0.59146-7.1801-0.52269-10.302-0.30261-1.5268-2.7647-3.5763-5.612-5.7358-8.0191 0.33012-2.861 1.0591-7.2351 1.348-9.5734 13.342 8.473 33.837 0.24759 37.675-9.3946"/>
  <path d="m172.11 31.898c-1.4855 3.8651-3.2324 7.1938-5.7495 11.362-1.1279 1.8569-0.71526 3.6313 1.0041 3.1636 3.0261-4.8967 6.286-13.273 4.7454-14.525"/>
  <path d="m173.28 45.545c-2.9023 3.7551-4.099 5.0893-7.18 7.3726-1.6368 1.2104-0.19257 3.9752 1.7331 2.1183 2.696-2.5997 6.5611-8.1429 5.4469-9.4909"/>
  <path d="m80.097 40.086c4.9793 1.7469 9.9723 6.1897 13.521 11.169-1.8019-0.71525-3.7138-1.1967-5.7495-1.5818-2.4071-3.8926-7.5514-7.5102-7.7715-9.5872"/>
  <path d="m81.267 49.834c6.8499 5.9696 12.462 10.935 19.683 16.024 3.0123 2.1183 3.6588 6.5336 0.19257 3.8514-7.4964-5.8046-19.931-17.579-19.876-19.876"/>
  <path d="m18.883 57.242c2.6272 3.1774 12.998 10.344 35.034 10.412 25.515 0.06878 41.443-0.94909 55.473 10.165-2.2008 2.1183-5.1994 5.8458-6.6574 10.44-7.4552-7.3726-19.793-8.9819-34.126-8.2529-34.126 1.7331-45.24-10.88-49.724-22.764"/>
 </g>
 <path d="m98.352 92.647c0.47958-0.03895 0.94746-0.117 1.4153-0.19494 0.49517-1.3062 1.3062-2.4486 2.6006-3.8522-2.9281-2.6123-7.2762-5.7085-12.861-7.0977 0.31192 2.6396 0.77199 4.4429 1.5284 7.084-0.65893 1.5674-1.3218 2.394-1.8988 3.5481 2.5031 0.49516 5.7498 0.78369 9.216 0.51076" fill="#DCC653" stroke-width="13.755"/>
 <g fill="#3e3a39" stroke-width="13.755">
  <path d="m192 195.27c-2.0082 8.7756-9.3258 14.25-27.95 12.572 2.8473 1.4855 6.6849 3.5625 9.092 4.5529-3.5625 6.7399-12.654 8.9269-25.653 1.967 1.9807 2.3108 3.7826 4.4428 5.9834 6.6849-7.5102 1.4855-13.494-2.9573-15.405-8.2117-4.938 7.7715-11.513 11.444-19.023 11.389 2.3658-2.9573 3.5075-5.3644 4.938-8.7068-4.773 5.3094-17.813 7.6202-24.332 4.828-3.9339-1.6918-7.3451-2.3108-11.128-2.5859 3.5625-0.49518 8.2804-2.5722 11.403-4.3603-22.792 0.11004-31.609-9.9998-34.181-19.78h-0.02751c2.022 10.124 6.2447 21.471 15.474 26.506-4.5391-0.49518-7.7715 0.48142-8.5831 2.4209 20.825 4.7042 23.177 22.132 20.495 35.749-0.06878 3.9752 3.6588 7.2076 10.701 5.5157 6.5611-9.2433 18.239-21.733 29.903-28.61 7.0563 5.7496 13.865 15.227 13.136 23.26 2.9986 2.4209 8.1842 1.6231 12.641-5.1168 3.2462-10.77 7.4552-22.613 10.935-29.738 6.0109-0.16506 12.407-0.81154 15.887-2.916-3.0811-1.293-4.2915-2.022-6.96-3.7276 5.612-4.7454 11.086-11.719 12.654-21.691"/>
  <path d="m77.758 311.85c1.8844 4.1402 14.663 4.8692 17.606-0.1513 0 3.8651-0.63272 5.2681-3.0949 6.6574-2.4621 1.403-8.7068 2.1045-11.857 0.57771-2.806-1.348-3.2874-4.2915-2.6547-7.0838"/>
  <path d="m157.69 300.93c1.3755 4.0027 4.209 5.1443 8.1842 5.7083 6.2722 0.89407 12.861 0.22008 12.668-2.2283 2.1045 3.0536 1.1967 5.2131-1.3067 5.777-4.883 1.1004-9.986 0.93533-14.14 0.1238-4.1402-0.79779-4.8417-2.9711-5.4057-9.3808"/>
 </g>
 <g stroke-width="13.755">
  <path d="m24.341 215.15c11.568 22.407 42.406 28.074 65.088 18.143 4.8005 7.3038 6.3685 18.817 1.6781 28.445-1.5268 3.1361-2.5722 6.2585-3.0536 10.179-4.2365 5.1994-11.293 11.857-18.17 15.777 1.9119-2.4071 3.7826-6.0934 3.2049-6.7261-0.89407-0.96284-7.854 3.37-14.828 1.9257 6.1347-6.1484 10.371-18.61 8.2529-20.11-1.2379-0.88031-10.674 5.8458-17.826 11.183 0.5777-4.828 0.50893-9.5046-1.0316-9.4221-1.5268 0.0688-2.6272 2.0357-4.0164 4.8967 0-5.4882-2.1183-10.234-6.4235-14.113-1.3205-3.7964-2.2008-6.2035-4.0302-9.3533-5.4607-9.3946-9.0645-22.517-8.8444-30.825" fill="#dcc653"/>
  <path d="m69.96 287.67c1.9257-2.4071 3.7826-6.0934 3.2049-6.7261-0.88031-0.96284-7.854 3.37-14.814 1.9257 6.1209-6.1484 10.357-18.61 8.2392-20.11-1.2379-0.88031-10.66 5.8458-17.826 11.183 0.57771-4.828 0.50893-9.5046-1.0179-9.4221-1.5405 0.0688-2.6409 2.0357-4.0302 4.8967 0-5.4882-2.1183-10.234-6.4235-14.113 3.3562 15.502-7.3038 24.704-22.503 24.195 2.4759 6.4235 9.0645 7.8816 14.594 8.0191-1.4443 0.88031-2.4209 1.3755-3.9064 1.6368 9.9861 9.2846 31.251 6.1347 44.483-1.4855" fill="#cb4819"/>
  <path d="m36.428 114.95c2.6134 2.7235 4.8142 7.0288 6.4373 11.031 5.3231 13.232 9.711 26.272 10.976 35.969-1.2104-0.86656-2.5309-1.5268-3.4525-2.132-1.3205-9.7522-7.4552-25.639-11.183-33.438-1.8156-3.7826-3.7826-6.8499-5.5982-8.6518-1.8019-1.8156-2.5722-2.9023-3.3975-5.9146-0.81154-3.0261-2.077-6.1759-3.2874-9.3533 2.9986 4.5254 8.363 11.293 9.5046 12.489" fill="#6a3906"/>
  <path d="m44.226 93.503c-0.1513 5.0618 0.01376 16.313 0.5777 21.306 0.22008 1.967-0.90782 2.7372-1.6093 1.3892-0.81154-1.5818-0.88031-16.231-0.88031-20.784 0-2.022 0.64648-2.6822 1.9119-1.9119" fill="#6a3906"/>
  <path d="m35.648 167.58c2.6547 1.293 4.7317 1.7744 7.4414 2.5309 2.4759 0.7015 1.1554 3.4525-1.1417 2.4621-2.7235-1.1829-5.4057-3.5213-6.2997-4.993" fill="#dcc653"/>
  <path d="m39.547 156.28c2.4484 3.5763 4.7454 6.1347 7.8128 9.2433 1.3892 1.403-0.52269 3.1224-2.4071 0.94908-2.5859-2.9986-5.6945-8.0053-5.4057-10.192" fill="#dcc653"/>
 </g>
 <g fill="#0d131a" stroke-width="13.755">
  <path d="m157.69 104.81c-0.22008-0.0413-0.50893 0.57771-0.71525 1.6506-0.19257 1.0316-0.19257 1.8294 0 1.8707 0.20632 0.055 0.49517-0.64648 0.7015-1.7194 0.19256-1.0454 0.20632-1.7606 0.0137-1.8019"/>
  <path d="m157.3 104.03c2.2696-1.9945 4.099-3.7001 5.5845-5.6533 0.48142-0.64648 0.66023-0.5502 0.7015 0.1513 0.3026 4.993-1.6781 10.426-4.8417 12.379-0.16506 0.11004-0.20632 0-0.055-0.15131 2.4621-2.5722 3.4525-7.1113 3.5763-9.9035-1.6093 1.967-3.5625 3.4662-6.0659 5.2819 0.5777-0.99035 0.77027-1.3617 1.1004-2.1045"/>
  <path d="m128.05 104.03c-0.33012-0.0275-0.59146 0.79778-0.67399 2.132-0.0825 1.3892 0.0963 2.2558 0.39889 2.2696 0.31636 0 0.56395-0.79779 0.66024-2.1733 0.0825-1.1829-0.055-2.2008-0.38514-2.2283"/>
  <path d="m137.8 104.03c-6.96-2.5034-11.045-4.264-20.247-8.3767-0.59146-0.26134-0.7015-0.16506-0.61897 0.5502 0.53644 4.3053 1.7881 9.092 4.6354 12.407 0.19257 0.23383 0.39889 0.11004 0.2751-0.19257-1.6093-3.9064-1.9807-6.7399-1.8432-9.9448 6.1209 2.9298 11.417 5.0343 19.298 7.9641-0.74276-0.92158-0.99035-1.403-1.4993-2.4071"/>
  <path d="m156.52 105.98c-0.93533 2.3383-0.56395 5.1031 0.16506 5.0618 0.79778-0.055 2.4896-3.4525 2.3796-7.634l1.1829-0.90783c0.38513 5.2131-1.7881 9.6009-3.6175 9.6147-1.2104 0-2.1458-1.5543-1.7469-4.1402z"/>
  <path d="m131.95 102.47c0.96284 5.9284-0.75652 10.674-4.0439 10.674-3.7688 0-5.8458-7.1663-3.1224-13.384l1.2242 0.44015c-2.3796 5.557-0.77028 11.747 1.8707 11.678 2.1595-0.0413 3.7551-4.2503 2.6547-9.876z"/>
  <path d="m131.17 121.97c-0.78403-1.967-0.17881-2.2008 0.92158-0.38514 5.8321 9.5872 27.18 9.3258 36.959-0.34387 1.4168-1.403 1.3205-1.6506-0.77027-1.6506-6.6711 0-12.586-4.1265-14.938-10.385-0.16506-0.46767-0.1238-0.7015 0.27509-1.1004 2.7922-2.7097 4.3328-7.125 4.6354-11.719 0.16506-2.5171 0.66024-2.5171 0.79779 0 0.27509 5.2544-1.4993 9.4221-4.3741 12.517 2.1045 5.557 7.5514 9.1057 13.604 9.1057 3.5212 0 4.264 1.8156 1.8982 4.319-9.8347 10.412-34.69 10.495-39.009-0.35763"/>
  <path d="m166.26 124.69c-3.2599 0.57771-5.777-0.60522-5.8183-2.8198-0.055-2.2008 2.1045-3.3562 4.6904-3.4938l3.8651 0.67399c-5.9834 0.0963-7.015 1.8432-6.9875 2.806 0.0413 1.1554 2.0632 2.4896 6.1897 1.3342z"/>
  <path d="m160.42 127.42c1.7606 8.0741 0.94909 14.814-2.4484 18.707l-1.7606 0.37139c3.6313-4.5391 4.3328-10.88 2.5997-18.748z"/>
  <path d="m145.6 159.79c13.741-2.7097 16.478-7.9641 16.547-16.258-1.7194 2.2971-3.9752 3.0948-6.6161 3.2049-2.1733 0.0825-2.1458-0.89407 0.055-1.0041 2.2696-0.11004 4.1677-1.1967 6.176-4.1127 0.96284-1.4168 1.7881-1.5406 1.9257 0.81154 0.57771 10.302-2.8748 15.804-18.377 18.748z"/>
  <path d="m153.4 128.98c-1.9807 6.0797-6.6161 8.7068-14.113 8.0191-3.7001-0.33012-5.4332-3.9339-4.8142-8.6243 2.3383 0.38514 5.9008 0.66024 8.6931 0.8253l-4.9793-1.8844c-1.7606-0.15131-2.6547-0.24759-3.8651-0.46767-0.97659-0.16506-1.2517 0.0275-1.3342 0.99035-0.22008 2.3658 0.75652 7.1801 2.187 11.348 0.77027 2.2971 1.5543 2.132 0.94909-0.26134-0.16506-0.68775-0.33012-1.2654-0.48143-1.8019 0.90783 0.72901 2.0632 1.1967 3.5075 1.3342 8.3217 0.75652 13.961-2.3658 15.736-9.7385z"/>
  <path d="m87.505 49.834c-1.9945-3.4662-8.8444-7.4552-8.473-10.014 0.45391-3.2186 17.097-1.6368 31.169 8.6243l0.90782 2.0495c-15.529-10.743-30.054-10.935-30.219-10.165-0.13755 0.72901 6.5748 6.0384 8.2942 9.6147z"/>
  <path d="m100.76 69.719c-8.9682-6.5748-22.022-18.156-20.77-20.137 1.0454-1.6231 8.0053-1.1279 13.205 1.1417 2.4209 1.0454 2.132 1.8294-0.30261 0.94909-4.7179-1.7194-10.646-1.6506-10.894-1.2792-0.37138 0.59146 10.784 11.733 19.381 18.542 1.8844 1.4993 1.1967 2.1183-0.61897 0.78403"/>
  <path d="m103.1 159.79c-9.1195-1.8707-14.291-9.6697-14.374-18.156-0.01376-1.9532 0.52269-1.8569 1.5956-0.39889 1.2654 1.7056 2.4759 2.6134 4.2365 3.37l0.81154 1.7056c-2.1595-0.56395-3.3562-1.1142-4.9243-2.7647 0.92158 6.7399 5.1031 13.301 13.26 15.103z"/>
  <path d="m101.15 145.75c-3.2324-3.7001-4.3053-7.854-4.4428-13.81-0.04126-2.2558 0.79778-2.2558 1.0041-0.0138 0.52269 6.0522 2.2971 10.55 6.2172 14.511z"/>
  <path d="m115.97 161.74c0.11004 16.698-7.4964 27.95-18.679 30.467-16.368 3.7001-23.906 2.4759-31.994-6.6849 0.74276 16.066 11.169 26.891 34.786 26.671l-1.6506 1.1417c-21.664 1.0591-35.295-10.591-34.676-29.092 0.08253-2.2696 0.7015-2.3246 2.1045-0.66023 7.9091 9.5046 14.649 10.784 31.045 7.0563 10.179-2.3108 16.891-12.985 17.276-29.229z"/>
  <path d="m163.15 206.96c21.691 1.7056 27.771-4.8142 28.39-18.046l1.458-5.4607c1.3892 19.958-7.0425 26.533-27.606 24.883z"/>
  <path d="m160.42 189.81c-7.07-9.9173-9.0094-19.133-9.9723-30.632l1.8019-0.44016c0.9766 11.774 3.3562 21.251 10.853 31.953z"/>
  <path d="m179.13 215.93c2.5722 1.5406 3.7276 2.1595 6.5198 3.2324 1.4855 0.56395 1.6093 1.1554-0.13755 1.9532-3.645 1.6644-8.7894 2.5997-15.254 2.5997-3.2462 8.3492-8.0053 21.32-10.179 29.532-2.2696 8.6243-2.132 15.378 0.22008 22.806 2.7235 8.5693 4.8967 14.842 9.2295 21.114 0.66023 0.9766 1.2242 1.458 2.7372 1.6093 4.5941 0.48143 8.5418 4.5666 8.473 8.7206-0.0275 1.9807-1.2379 3.2324-4.4566 3.8101-2.806 0.49518-8.6243 0.5502-12.008 0.0825-3.6588-0.49518-6.1209-1.7469-6.9325-5.6533-2.2145-10.646-5.3506-22.228-12.654-35.818-0.75652-1.403-0.81154-2.1733-0.52269-3.4387 2.0908-8.9544 3.2324-17.868-11.678-31.155l1.5818-1.0316c15.185 13.439 14.223 23.521 11.87 32.379-0.23384 0.8528-0.17882 1.4168 0.44015 2.5722 7.3726 13.7 10.371 25.419 12.599 36.134 0.5502 2.6272 2.5584 3.9339 5.5707 4.3466 3.2737 0.44016 8.6656 0.55019 11.417 0 2.4209-0.49518 3.0811-1.1142 3.0811-2.4071-0.0825-3.3149-3.0123-6.6574-6.8774-7.0425-2.0082-0.20633-3.1774-1.2379-3.8514-2.2283-4.4016-6.3823-7.0012-12.682-9.931-21.664-2.8473-8.7206-2.5722-14.993-0.33011-23.452 2.2145-8.418 7.3864-22.118 10.715-29.834 0.26134-0.63273 0.45391-0.78403 1.1416-0.79779 6.4648-0.13754 10.853-0.83904 14.154-2.1733-2.3658-1.0179-3.5075-1.5681-6.2035-3.3424z"/>
  <path d="m172.89 96.232c-0.16506 9.4634-5.8183 16.808-11.705 20.674l-1.3755-0.88031c5.1306-3.7138 8.3492-7.3176 10.454-13.452z"/>
  <path d="m171.72 45.155c2.077-19.119 1.2792-35.268 0.055-35.721-1.2379-0.45391-24.277 25.144-30.274 55.322l-1.6231-0.38514c5.7908-30.302 29.546-57.853 32.585-57.069 2.132 0.53644 3.0811 18.156 1.1004 38.115z"/>
  <path d="m166.26 81.026c-0.75652 2.1045-1.5681 4.1265-2.4346 6.0109l-0.79778-2.4484c0.49518-1.1967 0.96284-2.4209 1.4168-3.6863z"/>
  <path d="m163.54 35.798c3.3975-3.2462 8.0329-5.9146 9.4909-4.5116 1.1967 1.1554-0.77028 7.7853-4.2503 13.535 2.3383-0.50893 5.1994-0.61897 5.6808 0.1513 0.81154 1.2379-1.3892 5.4057-6.1622 9.6422-1.4993 1.3342-2.1733 0.92158-0.74276-0.66024 4.3465-4.8142 5.612-7.3589 5.2406-7.8816-0.22008-0.30261-2.0632-0.34387-4.5254 0.23383-1.4993 0.35763-1.6368-0.19257-1.1004-1.1692 3.8376-6.9187 5.048-12.228 4.6492-12.544-0.50893-0.39889-4.0714 1.1554-8.9407 5.612z"/>
  <path d="m172.89 45.155c11.362-30.137 32.489-40.151 34.607-38.074 1.6506 1.6231-3.2599 7.125-6.4235 13.411-0.96284 1.9257-1.7194 1.513-0.88031-0.46767 2.7372-6.3685 6.0797-11.045 5.667-11.348-1.0591-0.79778-20.825 8.7068-31.815 38.555z"/>
  <path d="m160.81 80.246c3.4112-0.26134 6.5748-0.11004 11.513 0.44016 11.678 1.293 19.023-4.8005 20.784-21.224 1.0041-9.3808 1.7331-15.295 3.4525-22.448 3.0261-12.531 11.169-16.698 11.279-18.555 0.0275-0.37138-3.5075-0.94909-7.015 1.0591l0.99035-2.3658c3.8101-1.5543 8.2392-0.26134 8.2529 1.2104 0.0138 2.3108-9.147 6.7674-11.857 19.051-1.6643 7.4964-2.2145 12.943-3.0536 22.338-1.8432 17.881-10.811 24.057-23.108 22.737-4.1677-0.44016-7.4001-0.75652-10.426-0.56395z"/>
  <path d="m68.4 160.96c18.514-2.4209 32.118 5.2269 40.343 22.874l-1.2104 1.3755c-8.4868-17.372-20.99-24.718-39.188-22.641z"/>
  <path d="m44.616 166.41c-3.0398-3.2462-4.4291-5.2406-6.2035-9.0645-0.75652-1.6093-0.81154-2.077 1.0179-1.8982 5.9146 0.56395 11.733 3.7964 16.85 7.3451 2.5447-7.1525 6.0934-11.595 9.4634-14.25 1.403-1.1142 1.8982-0.99036 2.2971 0.61897 0.96284 3.8514 1.1829 7.2901 0.74276 12.668-0.12379 1.4855-0.99035 1.4855-0.99035 0-0.04126-5.2131-0.41265-8.6518-1.2517-11.829-3.2186 2.187-6.7124 6.6849-9.1332 13.342-0.34387 0.96284-0.64648 1.2379-1.4993 0.68774-5.3231-3.4387-10.619-6.5336-15.873-6.9737 1.3342 3.2186 2.7372 5.4469 5.3919 8.7756 1.4718 1.8569 0.72901 2.2283-0.81154 0.57771"/>
  <path d="m45.396 166.41c-3.7276 0.0138-6.0797 0.57771-8.9544 1.7744 1.403 1.513 2.9298 2.2558 5.5157 3.5763 1.6643 0.85281 1.1967 1.458-0.38514 0.92158-2.9711-1.0041-4.2915-1.8294-6.341-3.6726-1.2792-1.1279-0.96284-1.6781 0.5502-2.2145 2.9573-1.0729 5.5982-1.5681 8.7344-1.513z"/>
  <path d="m87.895 273.25c-22.654 26.877-51.98 25.24-62.543 16.905-1.6919-1.3342-1.2792-1.7744 0.37138-1.9945 1.2379-0.16506 2.1183-0.46766 3.1086-1.1141l2.3934 0.0825c-1.3892 1.1279-2.751 1.7744-4.4153 2.2696 10.646 7.5927 38.789 8.0054 61.374-19.051z"/>
  <path d="m66.84 288.84c3.7276-3.1361 5.7358-7.1388 5.557-7.3038-0.44016-0.39889-4.6492 2.806-13.562 2.022-1.8294-0.16506-1.8156-0.52268-0.57771-1.7331 5.9834-5.8871 8.418-17.909 7.9228-18.253-0.48142-0.33011-10.715 6.1897-16.465 10.385-1.6231 1.1829-1.8432 0.75652-1.5956-0.90783 0.52269-3.3424 0.26134-7.5102-0.41265-7.689-0.81154-0.23383-2.1733 1.6093-3.3424 3.8651-1.0041 1.9532-1.4305 1.7194-1.3342-0.3026 0.22008-4.8005-2.1733-8.4455-5.8183-12.971l-0.94909-3.5075c4.4016 5.1031 7.9503 9.7247 8.0466 14.676 1.0454-2.2008 2.4209-3.9477 3.8651-3.6313 1.5268 0.33012 2.0907 5.0618 1.2517 9.1195 5.6258-4.6216 16.492-11.912 18.074-10.921 1.5543 0.96285-1.4855 14.759-8.0053 20.715 8.6243 0.37138 13.15-3.7551 14.621-2.5859 1.0866 0.88031-0.75652 4.5254-3.9889 7.4827z"/>
  <path d="m50.075 130.93c1.2379 6.0934 3.9201 15.392 8.6931 28.294l-0.74276 1.5818c-5.2681-13.246-8.2117-23.301-9.4909-29.587-0.86656-4.2915-1.5268-7.3864-1.2379-12.049s0.31636-19.298-0.28885-21.815c-0.49518-2.0907-2.242-3.5075-3.1774-3.3975-0.67399 0.08253-0.67399 1.0179-0.66024 1.6093 0.06877 5.8871 0.13755 12.228 0.57771 20.013l-1.3755-2.4759c-0.39889-5.9971-0.39889-11.485-0.48142-17.648-0.02751-1.8844 0.52269-2.7097 1.7194-2.8473 1.6643-0.20632 4.0714 1.6643 4.7317 4.3465 0.75652 3.1224 0.82529 17.414 0.52269 22.242-0.2751 4.5529 0.35763 7.5102 1.2104 11.733"/>
  <path d="m50.075 159.79c-1.8432-12.434-7.5789-23.686-10.811-31.911-1.6506-4.209-2.696-6.2172-6.4786-10.302-1.6093-1.7331-2.3658-3.7413-2.9986-5.7496-1.4443-4.5529-2.8748-8.4042-4.209-11.705-2.0082-5.0068-1.7331-8.7344-0.81154-9.9035 0.96284-1.2242 5.3507-1.2242 7.0288 0.9766 2.5584 3.3287 9.092 16.63 12.022 23.658 0.90782 2.1733 0.05502 2.5997-0.90782 0.39889-2.8748-6.5061-9.8485-20.261-12.008-23.067-0.94909-1.2242-4.5116-1.8294-5.1031-1.0729-0.60522 0.77027-0.82529 3.5213 1.0729 8.5005 1.3205 3.48 3.0673 7.5377 4.4153 11.788 0.61897 1.967 1.1829 3.5625 2.6547 5.1443 3.8926 4.209 5.3231 6.4786 6.96 10.853 2.9435 7.9366 8.8994 19.807 10.715 33.122z"/>
  <path d="m25.901 99.741c2.2971-0.77027 4.8005-3.7551 4.2228-8.8719l1.1141 1.1004c0.35763 4.9518-1.8294 7.854-5.0068 8.9544z"/>
  <path d="m83.216 319.64c-0.4264-2.5172-0.39889-5.557-0.1513-9.2708 0.13755-1.8982 1.0454-1.8569 0.99035 0.0413-0.08253 3.7964 0.05502 6.7536 0.5502 9.257z"/>
  <path d="m88.675 319.25c0.33012-3.4112 0.33012-5.9559-0.01376-9.5046-0.1513-1.6093 0.74276-1.6918 0.99035-0.0825 0.5502 3.4662 0.67399 6.0109 0.44016 9.3946z"/>
  <path d="m167.82 310.68c0.90782-3.425 0.11004-6.5748-1.8844-8.0741-1.0454-0.78403-0.82529-1.458 0.37138-0.92158 2.5034 1.1417 3.9477 5.2406 2.9986 9.1608z"/>
  <path d="m174.45 310.68c0.90782-2.8748 0.52269-6.1897-1.7606-7.9228-1.3342-1.0179-1.0316-1.6368 0.48143-0.86656 2.8335 1.4305 3.6038 5.8046 2.8335 8.7068z"/>
  <path d="m65.281 189.42c0.61897 3.1499 5.7908 7.2901 12.448 9.9723 1.9119 0.77027 1.7744 1.6231-0.34387 0.93533-6.4923-2.1182-9.7522-4.1265-11.609-6.8362z"/>
  <path d="m142.09 109.1c-4.6216-0.93533-5.7495-6.341-6.6711-11.76-0.53644-3.1224-0.2751-3.2462 0.61897-0.19257 1.6231 5.5432 3.2599 9.3396 6.3548 10.99 1.4993 0.78403 1.3205 1.293-0.30261 0.96284"/>
  <path d="m149.89 103.64c0.22008-5.0205-0.16506-8.2942-1.7606-13.947-0.60521-2.1595-0.20632-2.3383 0.67399-0.28885 2.4484 5.6808 2.8198 9.4771 2.0357 14.25-0.39889 2.3934-1.0591 2.4209-0.94909-0.0138"/>
  <path d="m126.5 61.921c20.866-0.19257 36.657 11.65 38.679 29.119 0.3026 2.5309-0.45392 2.5997-0.9766 0.13755-3.535-16.588-17.07-27.262-37.193-27.441z"/>
  <path d="m123.38 215.93c-6.286 5.7633-16.024 7.18-24.374 4.2778-4.1677-1.458-5.7908-1.8569-9.931-2.2008-2.4896-0.19257-2.4896-1.1004-0.08253-1.6781 6.1759-1.4718 8.528-2.6684 12.256-5.4469 1.8019-1.348 2.2833-0.63272 0.56395 0.81154-3.4662 2.916-5.7083 4.209-10.206 5.3507 2.3934 0.19256 3.7688 0.56395 7.9503 1.9257 9.0645 2.9298 19.725 0.0688 24.773-5.5982z"/>
  <path d="m119.48 224.51c-1.8019-0.0413-1.9257-0.44016-0.99035-1.7881 2.5171-3.645 3.9064-5.6258 5.8183-10.371 0.8528-2.1045 1.6093-1.8294 0.93533 0.34387-1.4855 4.8005-2.6272 7.0975-4.883 10.165 6.6024-0.13755 11.499-3.5763 16.698-10.412 0.66024-0.86656 0.92158-0.90782 1.4993 0.0413 3.2049 5.3782 6.3135 7.4414 13.218 7.4964-2.6822-2.7097-4.0714-4.2915-6.0797-7.6064-1.403-2.3108-0.78402-2.7785 0.79779-0.59147 1.9945 2.7785 3.645 4.8005 7.2626 8.0466 1.3342 1.1967 0.75652 1.6781-0.72901 1.7469-7.744 0.38513-12.407-1.8432-15.282-7.9228-5.0205 7.6202-10.756 11.004-18.266 10.853"/>
  <path d="m146.38 212.42c11.815 6.5061 20.206 6.2585 25.405-0.16506-3.3149-1.5406-5.2819-2.6272-8.8031-4.8142-1.9669-1.2104-1.4855-2.0357 0.56396-0.94909 3.4387 1.8156 5.9284 2.9711 9.4771 4.5391 1.1141 0.49517 1.1554 0.92157 0.4264 1.9257-5.5845 7.744-15.667 7.2076-25.378 1.7744z"/>
  <path d="m145.21 163.29c0.96284 13.631 5.6395 20.715 16.107 25.735 7.6752 3.6726 20.096 2.4209 29.284-9.3396 1.0866-1.3892 1.6093-1.348 1.9394 0.5502 1.7056 10.082-1.9119 15.859-9.4909 18.156-2.1595 0.64648-2.5584 0.0825-0.31636-0.94908 6.6574-3.0398 9.3671-7.2351 8.4455-16.038-9.4909 11.527-22.558 12.71-30.467 9.1608-11.196-5.0343-15.846-12.407-17.07-24.497z"/>
  <path d="m192.39 194.1c-1.7331 11.183-7.7578 20.178-16.162 24.608-1.9394 1.0179-2.4621 0.49518-0.50893-0.86656 7.1113-4.938 11.1-10.412 13.741-18.528z"/>
  <path d="m66.84 196.83c2.7372 10.192 7.3451 18.693 13.356 21.843 2.187 1.1554 1.8569 1.4168-0.06877 1.3892-3.5625-0.0275-5.7358 0.63273-6.5061 1.5818 14.209 2.5859 27.579 20.371 17.758 41.595-1.1967 2.5584-1.8156 4.5116-2.187 7.125-2.2283 15.419-3.6588 22.269-6.4648 33.232-0.49518 1.9532-1.0041 2.8198-2.5584 3.8101-2.5997 1.6781-2.4346 8.7894-0.52269 10.179 2.4621 1.7881 7.854 1.8156 11.733 0.33011 3.1636-1.2242 3.8789-7.5927 1.6231-9.4496-1.4443-1.1692-2.0907-2.4071-1.8707-4.5254 1.0866-10.316 5.4057-31.678 10.908-40.701 5.5432-9.092 25.281-28.335 35.446-31.004 2.3521-0.61897 2.7647 0.22008 0.46766 1.0179-9.6697 3.37-28.94 22.365-34.277 31.114-4.9518 8.1154-9.3258 28.266-10.921 39.545-0.24759 1.7606 0.17881 2.3246 1.3205 3.2874 2.861 2.4346 3.1224 10.151-2.0082 12.242-4.2778 1.7331-10.454 1.5956-13.218-0.35763-3.3699-2.3658-3.1774-10.412 0.33012-12.82 1.0041-0.7015 1.5268-1.6506 1.8844-3.1361 2.5034-10.701 4.0302-18.129 6.1484-33.039 0.4264-3.0536 1.1417-5.0068 2.2145-7.3589 9.4359-20.591-2.9848-37.179-16.355-39.669-1.8982-0.34387-2.0357-1.0316-1.1004-2.1458 1.0866-1.293 3.535-2.1183 6.2447-1.9394-5.9008-2.806-12.641-14.8-14.539-30.522z"/>
  <path d="m163.93 87.264c3.1911 1.4718 5.9421 0.56395 8.4042-2.4484 1.2379-1.513 2.0632-1.5268 2.1182 1.1279 0.23384 10.853-2.077 16.753-6.96 20.797-1.513 1.2654-2.1045 0.78403-0.66024-0.74277 4.1677-4.3878 5.9834-9.8072 6.0797-19.436-2.4759 2.9848-5.7633 3.6313-8.5143 2.5584z"/>
  <path d="m41.887 172.26c-19.532 15.488-21.994 47.454-7.6615 73.823 13.714 25.268-6.5886 35.061-18.5 34.057 2.3658 4.2365 11.609 9.5596 22.173 4.374 2.3246-1.1554 2.7235-0.45391 0.48142 0.86656-10.743 6.286-21.925 1.1004-24.264-5.1443-0.56395-1.5406-0.17881-1.6781 1.3205-1.6231 11.76 0.34388 30.288-8.4868 17.276-31.746-15.35-27.441-11.994-60.109 7.634-75.226z"/>
  <path d="m173.28 46.325c1.7469-0.12379 3.5488-0.78403 5.048-2.3796 1.4718-1.5543 1.9119-1.2379 0.79778 0.59146-1.2104 1.9945-3.6588 3.2049-6.5611 3.3562z"/>
  <path d="m86.725 81.026c1.3342 2.5859 2.8748 5.0343 4.6216 7.2763 0.28885 0.35763 0.34387 0.71525 0.11004 1.1554-0.41265 0.75652-0.92158 1.7331-1.403 2.9435l-1.7194-0.35763c0.44016-1.0866 0.89407-1.9945 1.4718-3.1224-2.022-2.4759-3.7826-5.1993-5.3094-8.1154z"/>
  <path d="m76.198 45.155c-1.0041-23.383 3.6863-44.401 5.6808-45.02 5.1856-1.6093 40.123 29.284 46.725 68.967 0.52268 3.1636-0.31636 3.3287-0.9766 0.19257-8.5555-40.453-41.664-67.839-44.745-66.973-1.1967 0.34387-6.0109 20.619-4.319 43.314z"/>
  <path d="m88.285 49.834c-9.0507-4.2365-16.547-4.7042-28.101-3.9752-13.191 0.83905-20.77-2.3246-24.704-8.8444-14.883-24.731-33.136-18.734-33.136-17.964 0 0.38514 9.3946 2.7922 12.93 9.5184 1.1417 2.187 0.41265 2.6272-0.8528 0.50893-3.8651-6.4648-13.961-7.8953-14.223-9.876-0.44016-3.3287 20.825-9.202 36.561 17.015 3.7001 6.1347 10.743 8.7206 23.356 7.9228 10.935-0.68774 18.445-0.46767 26.258 3.1086z"/>
  <path d="m95.303 108.71c-14.965-3.0261-23.631-10.853-23.411-24.016 0.04126-2.3246 0.4264-2.3383 2.0357-0.92158 7.5789 6.6161 14.897 8.4868 24.731 8.3217 2.5447-0.04126 2.6272 0.68774 0.08253 0.99035-9.6972 1.1554-18.184-0.88031-24.979-7.1801 0.63272 11.568 7.6202 17.482 21.788 21.843 2.8748 0.88031 2.4759 1.513-0.24759 0.96284"/>
  <path d="m154.57 72.058c1.9119-15.268 7.3176-37.743 13.837-53.699 1.0591-2.5997 1.8294-2.3383 0.93533 0.31636-5.3919 15.997-10.99 38.184-13.067 54.868z"/>
  <path d="m13.814 27.22c-5.0205-2.7785-11.32-2.7922-11.362-2.3796-0.068774 0.81154 10.784 4.6767 14.429 23.191 4.3328 21.953 20.082 32.668 48.692 31.334 19.381-0.92158 28.225 0.53644 36.602 7.6615 3.2324-8.2117 9.1608-11.884 14.443-13.865-2.4071-20.426-17.084-46.34-29.298-61.732-1.5956-2.0082-0.9766-2.5447 0.75652-0.64648 13.191 14.443 27.964 41.32 30.123 62.296 0.0688 0.7015 0 1.0041-0.72901 1.2792-4.9655 1.8156-10.522 5.3369-14.071 14.044-0.37138 0.92158-0.78403 1.1417-1.6643 0.45391-8.7068-6.9737-16.327-8.5693-36.052-7.634-24.759 1.1692-45.102-6.0522-50.315-32.943-3.7276-19.229-15.543-21.609-15.295-23.686 0.26134-2.0632 6.905-1.9532 11.623 0.28885z"/>
  <path d="m78.148 98.571c3.3699 9.986 22.654 21.155 40.811 25.405 3.1499 0.729 4.099 1.9807 3.7964 4.6354-0.70149 6.396-2.3383 9.3946-7.4139 9.3946-8.6518 0-15.02-4.1952-17.097-13.851-4.1265 4.3878-6.7949 13.411-2.3521 22.187 1.2654 2.4896 0.53644 2.806-0.8528 0.50893-5.4194-8.9269-2.5722-19.518 2.696-24.484 1.0591-1.0041 1.513-0.8528 1.7881 0.44016 1.9119 8.9407 7.2763 13.659 15.791 13.755 3.5075 0.0413 5.1306-1.7469 5.8458-8.1016 0.19257-1.7331-0.0825-2.3658-2.5309-2.8885-18.844-4.0164-42.516-17.317-42.434-29.27z"/>
 </g>
 <path d="m108.88 146.06c-3.9613 1.2672-7.5238 0.92015-11.596-2.6396 4.1676 17.496 17.826 20.756 28.926 18.445 1.8559 4.2912 3.2166 8.8994 1.8169 14.181 19.257-4.3738 22.585-20.027 11.265-31.127-4.3602-4.2639-19.628-2.2965-30.411 1.1424" fill="#fff" stroke-width="13.755"/>
 <path d="m112.39 161.27c-3.2868-1.3217-5.9284-2.8891-8.019-4.6768-5.3509 9.6834-8.7621 17.4-10.949 24.126-2.199 6.7261-5.9833 24.222-8.6378 35.693-0.57704 2.4875-1.4738 4.6355-2.6123 6.3822-1.8559 2.8462-3.0685 5.1029-2.8462 7.07 0.23394 1.9807 1.8715 3.0685 4.2779 3.3414 0.7408 2.2965 4.4429 4.099 7.3862 1.2087 0.27294-0.27294-0.15595-1.2945-0.60434-1.5401-1.3217-0.7564-2.2146-2.1171-1.8559-4.3738 1.7077 3.8912 7.3452 4.5115 9.0506-0.96304 0.15595-0.52245-0.49518-1.1424-0.96304-1.0605-2.4602 0.44059-5.2542-2.8462-3.9754-8.019 2.8072-11.224 6.2309-25.254 9.2296-34.181 2.9983-8.913 6.4372-16.588 10.523-23.012" fill="#fff" stroke-width="13.755"/>
 <g fill="#dcdddd" stroke-width="13.755">
  <path d="m101.93 162.13c2.3521 1.8156 3.1636 4.0164 1.7606 7.3726-1.4993 3.6313-2.187 5.1031-3.8101 9.9448-3.7413 11.238-6.5748 23.892-9.7522 38.582-0.56395 2.6134 1.1279 5.3369 3.5075 7.6752-0.90782-2.5584-1.4305-4.4153-0.83905-7.1938 0.5777-2.7785 7.4964-30.288 10.454-37.964s4.8555-12.283 9.2433-19.518c-2.751-1.0179-5.667-2.8473-7.854-4.6767z"/>
  <path d="m88.285 226.07c1.8844 3.0948 7.3176 3.4387 9.3946 0.12379 0.20632 2.7785-1.6643 5.048-4.7179 5.0068-3.0398-0.0275-4.5804-2.3246-4.6767-5.1306"/>
  <path d="m87.115 235.82c-1.8569-0.16506-3.8926-1.4168-4.264-7.9503 0.9766 4.2915 5.1031 6.451 8.0604 5.0893l1.2517 0.4264c-1.0454 1.2654-2.4209 2.6684-5.048 2.4346"/>
  <path d="m79.707 228.02c0.66024 1.4855 1.5956 2.3246 2.9573 2.4759 0.1513 0.8528 0.33012 1.5956 0.93533 2.9573-2.6547-0.35762-4.9793-2.1045-3.8926-5.4332"/>
  <path d="m141.7 147.31c5.3094 10.357-1.967 20.495-7.18 18.473-0.49518 3.1224-2.9023 7.6752-5.5845 9.8623 14.03-3.2874 22.902-15.626 12.765-28.335"/>
  <path d="m127.27 163.29c2.3521 3.6175 6.4098 3.4525 7.5102 0.5502-0.2751 4.8692-2.1458 9.147-6.2447 11.994 0.92158-3.3975 0.44016-8.1566-1.2654-12.544"/>
 </g>
 <g fill="#0d131a" stroke-width="13.755">
  <path d="m128.76 174.53c3.8366-3.9477 5.1856-7.3039 5.3092-12.709 0.0389-2.0781 0.89287-2.0898 0.99033-0.0133 0.27294 5.3782-0.82658 9.2569-4.2226 12.544 16.189-6.4645 17.015-18.472 9.4218-27.922-2.199-2.7371-1.6922-3.1894 0.7408-0.64723 9.3809 9.7798 8.3219 24.58-11.54 30.426-2.4057 0.71352-2.394 0.078-0.70182-1.6765"/>
  <path d="m113.17 161.27c-4.6355 7.7441-7.0563 13.205-9.6144 20.646-2.7644 8.0467-6.9737 23.562-10.371 36.959-0.77199 3.0529 0.83828 6.9873 2.9164 6.8637 1.9105-0.117 2.7254 0.27292 2.0898 2.1873-1.774 5.3505-8.6927 5.9007-10.632-0.82658-0.59264-2.0353 0.27294-2.2848 0.94744-0.27293 1.8559 5.5295 7.6888 4.6628 8.5414-0.0389-3.6299 1.4582-6.1759-4.044-5.1856-8.1839 3.1776-13.26 7.1663-29.133 9.9037-37.234 2.6006-7.6474 5.3919-13.7 9.7107-20.673z"/>
  <path d="m89.385 229.5c-0.03895 1.2672 0.42498 2.1873 1.349 2.6942 1.8286 1.0332 1.8442 1.8715 0.15596 3.0802-3.4818 2.4485-8.0876 1.4309-8.8857-6.2859-0.31192-3.2322 0.41329-3.3414 0.99034-0.15597 1.1697 6.4649 4.6905 7.6338 7.8817 4.7727-2.199-0.49516-3.2166-2.9164-2.6006-6.1069z"/>
  <path d="m84.316 234.18c-5.5708-0.86556-7.3312-4.2916-3.5091-10.192 1.2516-1.9378 2.7254-4.099 3.5753-8.2942 3.396-16.52 7.015-31.127 9.0234-37.055 1.9261-5.7081 5.6394-13.589 10.88-22.833l1.2516 1.2087c-4.8141 8.6245-8.4592 16.506-10.371 22.132-1.9924 5.887-5.9143 20.398-9.4218 36.835-0.93574 4.3742-2.394 6.6988-3.7001 8.6931-3.2595 5.0343-1.6103 7.0973 1.4699 7.6751z"/>
  <path d="m126.42 162.44c-14.662 3.3141-26.973-4.6905-29.683-18.363-0.41327-2.008 0.0781-2.1717 1.583-0.94745 3.4389 2.78 6.1896 3.4662 9.4495 2.7488 1.8286-0.38989 2.0781 0.45228 0.27292 0.96304-3.6026 1.0176-6.176 0.71352-9.3945-1.5401 3.3687 11.072 12.861 18.803 27.221 16.065z"/>
  <path d="m127.59 176.48c1.0605-6.7534-0.0389-11.141-2.4642-15.777-0.96304-1.8442-0.19494-2.2419 0.89287-0.45228 2.7371 4.5805 4.2639 9.3668 2.9866 15.543z"/>
 </g>
</svg>
