<?xml version="1.0" encoding="UTF-8"?>
<!-- Created with Inkscape (http://www.inkscape.org/) -->
<svg version="1.1" viewBox="0 0 332.52 329.96" xmlns="http://www.w3.org/2000/svg">
 <g transform="translate(1.5848e-6 1)">
  <path d="m117.62 199.39c-5.0806 28.863-10.319 69.494-7.5924 94.281 2.1115 19.161 14.381 32.178 34.216 33.355 23.739 1.4077 55.788-14.912 71.13-34.431 7.4635-9.5014 8.6689-16.821 3.6616-28.733-6.9464-16.491-21.729-35.034-41.134-56.764-12.716-9.9029-41.177-31.303-51.123-38.895-1.1636 8.7694-3.4744 22.763-9.1572 31.188" fill="#0f141b"/>
  <path d="m215.51 256.55c-7.8223-14.625-21.012-30.872-37.603-49.444-12.73-9.9033-41.177-31.303-51.123-38.895-1.1636 8.7694-3.4744 22.763-9.1572 31.188-5.0949 28.863-10.319 69.494-7.592 94.281 0.12206 1.1066 0.28479 2.1807 0.47194 3.2425 26.236 26.165 97.022 0.8625 105-40.373" fill="#eeefef"/>
  <path d="m196.23 228.54-23.165 32.723c2.1115 5.7124 4.2629 11.353 6.4586 16.333 13.822-8.97 24.155-21.428 28.849-32.766-3.5151-5.21-7.5924-10.635-12.142-16.29" fill="#33a1db"/>
  <path d="m196.23 228.54-3.6616 5.1811c5.1811 3.5151 10.405 7.3488 15.644 11.482 0.0406-0.12207 0.12207-0.24409 0.16274-0.36615-3.5151-5.21-7.5924-10.635-12.142-16.29" fill="#2b8dbf"/>
  <path d="m329.27 86.633c-0.73231-2.0545-2.2091-2.9293-4.9228-2.6119-46.33 5.3679-107 22.404-162.84 55.142l-33.757 19.591c-0.0814 2.5834-0.28479 7.1474-0.64688 10.075 16.017 11.453 45.282 33.484 71.819 55.903 14.08 11.898 38.924 21.945 56.534 16.175 57.625-18.902 55.128-85.669 31.317-106.87 4.5643-0.12208 8.9562-0.16275 13.836-0.20343 4.6791-0.0151 6.4297-1.6518 6.9753-6.0855 0.71604-5.8556 0.61839-11.826 0.44345-18.141-0.0406-1.2205 0.58992-1.6233 1.4931-1.7372 5.8556-0.78928 12.085-1.3507 16.491-1.8389 2.0505-0.24411 3.6168-1.192 4.105-2.9008 1.5907-5.5399 0.96012-11.511-0.84623-16.52" fill="#0f141b"/>
  <path d="m285.04 134.08c-0.20343-7.0326-0.51669-12.745-0.93167-19.003-0.16274-2.5387 0.87471-4.0318 2.913-4.3629 4.363-0.70382 10.061-1.5216 14.797-1.8104 2.1969-0.12207 2.498-1.0456 2.1522-3.3564-0.83402-5.5257-2.0383-12.114-3.6005-17.912-42.21 7.7934-92.214 24.184-138.86 51.525l-33.757 19.591c-0.0814 2.5834-0.28479 7.1474-0.64688 10.061 16.018 11.453 45.282 33.484 71.82 55.917 6.8028 5.7413 16.103 11.051 25.892 14.352 39.498-6.0709 73.412-61.945 60.222-105" fill="#eeefef"/>
  <path d="m137.97 152.82-10.219 5.9277c-0.0814 2.5834-0.28479 7.1474-0.64688 10.075 16.017 11.453 45.282 33.484 71.819 55.903 6.8032 5.7409 16.104 11.051 25.892 14.352 18.816-2.8845 36.369-17.093 48.167-35.823-38.321-28.59-89.128-46.086-135.01-50.434" fill="#c9c9ca"/>
  <path d="m79.252 158.83c-18.127-0.58993-29.494 0.32546-41.105 3.0879-9.7023 2.3271-21.256 11.252-27.772 24.729-11.295 23.395-11.252 55.386-3.214 68.332 5.2962 8.5396 16.922 11.611 24.342 6.2434 25.792-18.658 44.277-39.972 62.562-60.897-0.0814-15.314 5.1237-22.103 19.577-36.297-10.506-1.8511-22.261-3.4459-34.388-5.1958" fill="#0f141b"/>
  <path d="m30.751 164.8c-27.054 38.149-21.672 84.521 3.214 94.583 24.499-18.213 42.411-38.809 60.094-59.06-0.0814-15.314 5.1237-22.103 19.577-36.297-10.492-1.8511-22.261-3.4581-34.389-5.1958-18.127-0.58991-29.494 0.32546-41.105 3.0879-2.3841 0.57364-4.88 1.55-7.3915 2.8845" fill="#eeefef"/>
  <path d="m113.64 164.03c-10.506-1.8511-22.26-3.4459-34.388-5.1958-18.127-0.58992-29.494 0.32547-41.105 3.0879-2.3841 0.57364-4.8939 1.5501-7.3915 2.8845-0.12206 0.16273-0.2441 0.36615-0.36616 0.53296 24.528 4.1481 47.205 13.836 63.696 32.824 0.41498-13.807 5.7983-20.625 19.548-34.13" fill="#c9c9ca"/>
  <path d="m29.738 199.76c4.88-2.4817 8.7837-4.4492 13.075-6.315l17.424-34.575c-4.7222 0.24409-8.9847 0.64687-13.061 1.2775-9.5298 11.31-15.372 25.648-17.438 39.613" fill="#33a1db"/>
  <path d="m41.654 167.68c4.1762 1.0496 8.2812 2.2661 12.271 3.7022l6.315-12.516c-4.7218 0.2441-8.9842 0.64687-13.06 1.2775-2.0098 2.3841-3.8487 4.9085-5.5257 7.5351" fill="#2b8dbf"/>
  <path d="m131.1 113.5c3.4297-31.504-4.2055-82.813-14.955-110.9-0.8625-2.2254-2.5834-2.5102-4.1766-1.7494-4.808 2.2946-7.664 3.6616-13.032 6.9179-1.4484 0.87471-1.7209 1.9813-0.89098 4.2913 1.664 4.6071 3.0269 8.7548 4.5497 13.706-5.9561 2.856-9.8744 4.8369-13.951 7.6209-1.965 1.3507-2.0952 3.4744-0.8747 5.7987 2.2824 4.3772 4.1909 8.1091 6.6453 13.132-27.356-16.118-81.163 24.284-62.505 78.307 6.4012 18.5 24.887 25.189 44.937 27.973 10.764 1.4931 27.083 3.747 36.785 5.4252 3.1734-2.6851 5.2674-4.6217 9.3577-7.7072z" fill="#0f141b"/>
  <path d="m106.25 27.706c-1.0496 0.45973-1.249 1.0334-0.80554 2.1969 1.7372 4.5208 3.5029 9.745 4.3056 13.147 0.43125 1.8226-0.56144 3.6453-3.0269 4.5066-4.6359 1.6233-8.1807 2.7421-12.3 4.7649-50.463 11.037-61.888 59.993-51.611 93.865 8.7979 7.1905 21.098 10.606 34.044 12.4 10.764 1.4931 27.083 3.747 36.785 5.4395 3.1571-2.6852 5.2674-4.6213 9.3577-7.7072l8.1091-42.813c2.7136-24.93-1.5053-62.247-8.7121-90.65-5.0375 1.0049-11.08 2.6404-16.146 4.8512" fill="#eeefef"/>
  <path d="m76.858 158.59c10.764 1.4931 27.083 3.747 36.785 5.4394 3.1571-2.6852 5.2531-4.6355 9.3577-7.7072l2.6119-13.793c-29.078-24.973-57.022-41.019-81.034-48.77-6.6311 17.123-6.6164 36.441-1.7779 52.429 8.8122 7.1762 21.112 10.606 34.058 12.4" fill="#c9c9ca"/>
  <path d="m59.32 93.418c-11.553 17.926-11.999 39.742-3.4744 60.108 6.4443 2.4817 13.621 4.048 21.012 5.0664 10.764 1.4931 27.083 3.747 36.785 5.4399 3.1571-2.6852 5.2531-4.6359 9.3577-7.7072l8.1091-42.828c1.7087-15.774 0.64688-36.498-2.1807-56.807z" fill="#e60020"/>
  <path d="m127.75 158.75c-0.0814 13.161-3.3564 25.633-7.6213 36.269-3.4866 8.7121-15.831 17.969-25.045 18.098-1.4361-10.549-1.4768-20.997 0.98862-27.097 2.7421-6.7312 12.171-18.715 26.925-29.709 1.3222 0.8625 2.6973 1.7087 4.7507 2.441" fill="#c9c8c3"/>
  <path d="m120.13 195.03c1.5216-3.804 2.913-7.8508 4.0908-12.085-7.0184 2.3271-17.036-1.3629-19.993-9.2141-4.0904 4.8223-6.8605 9.1279-8.1523 12.286-2.4695 6.0998-2.4248 16.562-0.98862 27.111 9.2141-0.16273 21.557-9.3862 25.045-18.098" fill="#72706d"/>
  <path d="m59.769 237.37-16.606-24.945c-5.5831 2.6973-9.3004 4.7938-13.663 7.7218 1.7942 12.975 7.5636 23.796 17.381 28.949 4.507-3.8446 8.7837-7.7646 12.889-11.726" fill="#33a1db"/>
  <path d="m109.35 283.14c17.697 8.3964 34.977 8.4964 50.133 3.8731-2.1969-6.5591-3.8446-11.439-5.4683-16.678l-44.349-5.9993c-0.36616 6.6164-0.47193 12.96-0.32547 18.802" fill="#33a1db"/>
  <path d="m113.64 164.03c-10.506-1.8511-22.26-3.4459-34.388-5.1958-8.4969-0.28479-15.486-0.20342-21.73 0.20341-22.203 23.509-19.619 66.839-0.77706 81.206 13.764-12.931 25.591-26.495 37.316-39.914-0.0814-15.314 5.1241-22.103 19.577-36.297" fill="#e60020"/>
  <path d="m199.61 232.81c-6.2723-8.066-13.577-16.606-21.701-25.705-12.731-9.9033-41.177-31.317-51.124-38.895-1.1636 8.769-3.4744 22.763-9.171 31.188-3.5883 20.424-7.2625 46.732-8.138 69.15 31.561 17.912 77.331-6.9037 90.133-35.738" fill="#e60020"/>
  <path d="m98.093 97.337c2.1807 4.2771 4.1624 8.1523 5.9708 12.185 3.7755-2.2254 6.7885-3.7877 9.745-5.3536-1.1636-4.5639-2.2539-8.468-3.804-12.831l-7.0758-1.4199z" fill="#33a1db"/>
  <path d="m80.963 92.861c2.6973 3.5883 5.4252 7.4057 8.0807 11.267 10.376-8.1523 22.303-13.893 31.676-16.405-1.3792-5.6836-2.1522-9.0278-3.1286-13.75l-21.17 2.9415z" fill="#ffe100"/>
  <path d="m128.92 56.693c-35.695 4.8943-58.214 18.945-69.695 36.857 2.9862 3.3157 6.5159 7.1189 9.9318 10.879 13.276-14.869 38.45-29.581 61.486-33.039-0.45973-4.8796-1.0334-9.8024-1.7209-14.697" fill="#33a1db"/>
  <path d="m265.85 95.574c-33.628 9.1856-69.896 23.395-104.34 43.588l-33.757 19.591c-0.0814 2.5834-0.28479 7.1474-0.64688 10.075 16.017 11.453 45.282 33.484 71.819 55.903 3.0432 2.5672 6.6022 5.0375 10.463 7.291 26.05-10.291 42.871-24.572 52.645-41.837z" fill="#e60020"/>
  <path d="m243.24 154.91c-4.808-0.0814-9.6592 0.0151-14.525 0.28479 0.28478-5.913 0.0814-11.18-0.32548-16.649 4.5208-0.84623 9.3004-1.5623 14.309-2.2946l3.8894 8.3243z" fill="#33a1db"/>
  <path d="m257.26 115.8c-5.5977 1.1351-11.64 2.0952-16.993 2.9008 2.9577 14.941 4.0603 33.14 0.0406 50.75 5.1953 0.77301 10.133 1.9528 15.802 3.1734l8.568-29.939z" fill="#ffe100"/>
  <path d="m251.64 99.725c10.133 30.628 10.506 65.461-2.6404 87.636 3.8446 0.78928 8.4964 1.8064 12.989 2.8845 0.0151-0.0151 0.0289-0.0406 0.0406-0.0814 14.639-25.863 13.491-58.472 3.8162-94.597-4.6933 1.2775-9.4293 2.6689-14.209 4.1477" fill="#33a1db"/>
  <path d="m127.75 158.75c-2.0505-0.73231-3.4297-1.5785-4.7507-2.441-1.4077 1.0618-2.7543 2.1237-4.0761 3.1856 0.773 3.5598 4.7938 5.483 8.6401 4.2771 0.12206-1.664 0.16274-3.3442 0.20342-5.0233" fill="#595653"/>
  <path d="m111.03 166.48c0.97642 4.0318 7.291 8.5684 15.027 8.5684 0.67535-3.6005 1.2042-7.09 1.5053-11.281-3.1734 0.60214-6.9321 0.20343-8.6405-4.2771-2.9008 2.3841-5.0664 4.2625-7.8935 6.9895" fill="#9f9f9a"/>
  <path d="m99.159 180.57c-2.3841 10.305 0.65908 21.701 2.0383 22.404 1.7372 0.89098 14.137-3.2303 19.935-10.922-3.8162 12.3-17.309 21.026-25.892 21.156-1.664-9.0851-2.6119-24.126 3.9179-32.638" fill="#595653"/>
  <g fill="#c70018">
   <path d="m76.858 158.59c10.764 1.4931 27.083 3.747 36.785 5.4394 3.1571-2.6852 5.2531-4.6355 9.3577-7.7072l2.6119-13.793c-24.356-20.926-47.922-35.579-69.049-44.349-8.7983 16.95-8.4969 36.742-0.70383 55.343 6.4297 2.4817 13.606 4.048 20.997 5.0664"/>
   <path d="m94.094 198.16c0.41498-13.821 5.7983-20.639 19.548-34.13-10.506-1.8674-22.261-3.4581-34.388-5.2096-8.4969-0.28478-15.486-0.20341-21.73 0.20343-3.1123 3.2995-5.712 6.9895-7.8793 10.922 16.993 5.3963 32.379 14.309 44.449 28.217"/>
   <path d="m137.97 152.82-10.219 5.9277c-0.0814 2.5834-0.28479 7.1474-0.64688 10.075 16.017 11.453 45.282 33.484 71.819 55.903 3.0432 2.5672 6.6022 5.0375 10.463 7.291 24.069-9.5156 40.244-22.419 50.276-37.948-36.326-23.165-80.948-37.388-121.69-41.249"/>
   <path d="m126.78 168.21c-1.1636 8.7694-3.4744 22.763-9.1567 31.188-0.36616 1.9935-0.70383 4.0603-1.0619 6.1714 23.366-0.40686 51.741 10.75 80.876 31.547 0.80555-1.4199 1.5378-2.856 2.1685-4.306-6.258-8.066-13.577-16.606-21.701-25.705-12.717-9.9033-41.177-31.303-51.123-38.895"/>
  </g>
  <g fill="#0f141b">
   <path d="m128.57 159.02c-0.12206 11.669-2.3963 24.069-7.363 36.484-3.6738 9.1856-16.433 18.414-25.949 18.486-0.73231 0.0151-1.0049-0.24409-1.1066-0.87469-1.5623-10.377-1.9366-20.797 0.78927-27.514 2.8438-6.9895 12.601-18.83 27.298-29.824l1.5216 0.96015c-14.367 10.778-23.925 22.949-26.638 29.623-2.14 5.2816-2.6119 16.319-1.2612 25.877 8.3817-0.64688 19.864-9.2288 23.237-17.682 4.9801-12.444 7.6925-24.6 7.7357-36.254z"/>
   <path d="m127.58 164.57c-4.2629 1.2775-8.3532-0.93166-9.2719-4.5354l1.2775-1.1636c0.60212 3.0554 4.1193 5.3821 8.0233 4.0904z"/>
   <path d="m123.94 183.94c-7.291 2.1522-17.18-1.607-20.395-9.4582l1.2612-1.4931c2.6851 7.4057 12.185 11.525 19.591 9.0136z"/>
   <path d="m109.07 164.42c-7.5636-1.306-21.887-3.1286-32.408-4.5208-22.433-2.9577-40.33-11.625-46.272-28.834-18.615-54.008 33.083-94.022 61.586-81.163-1.965-4.0033-3.328-6.2149-5.4106-10.162-1.5623-2.9984-1.2205-5.6693 1.2042-7.3341 4.1335-2.8397 7.9082-4.9374 13.204-7.4777-1.4768-4.6644-2.6973-7.7503-4.3918-12.228-1.0171-2.6973-0.97642-4.7075 1.4931-6.2149 5.3536-3.2425 8.6832-4.7218 13.42-6.9895 2.3841-1.1351 4.7507-0.36616 5.8988 2.5834 11.611 29.81 18.271 80.144 14.927 111.19l-2.5834 0.16274c3.214-29.91-3.5314-80.589-14.812-110.07-0.56144-1.4768-1.306-1.8959-2.7991-1.192-4.6929 2.2539-6.9753 3.4866-12.271 6.7023-0.81775 0.50448-0.96014 1.3792-0.36616 3.0147 1.6355 4.5208 2.555 7.3772 4.3487 13.204 0.32547 1.0496 0.28479 1.5501-0.8625 2.0952-5.4683 2.6282-9.3004 4.3202-13.491 7.1905-2.0098 1.3792-1.3507 2.9292-0.56144 4.4492 2.3841 4.5355 4.1766 7.865 6.6307 13.047l-3.1123 0.98862c-25.475-13.075-77.072 24.514-59.146 77.23 5.6689 16.692 22.763 24.499 43.789 27.284 10.19 1.3629 23.337 3.328 31.073 4.6213z"/>
   <path d="m88.679 208.59c-13.822 15.73-30.312 34.288-56.319 53.779-7.9944 5.985-20.825 2.5265-26.437-6.5159-8.2096-13.219-8.5396-45.641 3.1734-69.882 6.2576-12.96 17.61-22.792 28.748-25.447 10.291-2.4533 19.835-3.1001 34.604-2.8845l12.372 2.3678c-20.71-0.89098-33.843 0.36617-46.258 3.328-12.171 2.9008-22.361 14.481-26.968 24.012-11.023 22.806-11.152 54.008-3.2588 66.825 5.1669 8.3675 15.658 10.664 22.318 5.8414 26.179-18.931 42.498-37.245 60.783-57.668z"/>
   <path d="m41.307 144.9c-9.7312-33.542 2.3231-82.885 52.702-93.578 3.5436-1.7372 8.5685-3.5151 12.228-4.7938 2.498-0.8625 2.6567-1.8226 2.2946-3.3564-0.74452-3.1123-2.3271-7.7214-4.2197-12.673-0.78927-2.0505-0.28479-3.1856 1.3914-3.9341 5.8703-2.5712 12.587-4.1766 16.405-4.9374l0.60212 2.4126c-3.747 0.74452-9.817 2.0667-15.615 4.5928-0.48821 0.20342-0.64688 0.6184-0.40684 1.249 1.7372 4.7218 3.3849 9.5445 4.1481 12.846 0.52889 2.3556 0.0143 4.5639-3.8609 5.8988-3.804 1.3222-8.6543 2.8113-12.156 4.535-0.0407 0.0146-0.0814 0.0289-0.12206 0.0407-48.382 10.506-61.399 58.888-50.578 93.908z"/>
   <path d="m116.17 118.99c-4.4203-21.643-11.826-43-22.921-66.408l2.2946-0.70383c11.037 23.323 18.127 44.191 22.576 65.749z"/>
   <path d="m113.26 155.43c-17.294-20.194-49.774-55.659-64.198-71.159l1.3792-2.2824c16.161 17.51 47.693 52.372 65.892 73.915z"/>
   <path d="m33.041 260.2c-24.413-8.7548-31.03-56.175-4.2771-94.295l3.804-1.9935c-27.973 38.565-21.859 85.296 2.4126 94.769z"/>
   <path d="m103.15 175.17c-24.615 10.104-70.155 31.618-90.377 44.808l-0.0406-2.9862c18.801-12.242 65.318-33.843 92.372-44.435z"/>
   <path d="m285 132.66c5.411-0.2441 10.535-0.40684 15.673-0.43125 4.1335-0.0151 4.9801-1.1636 5.411-4.6791 0.71605-5.8272 0.68756-11.597 0.32547-17.84-0.0814-1.9366 0.74453-3.1449 2.9293-3.4174 6.0282-0.73232 12.056-1.306 16.491-1.8064 1.5948-0.20341 2.4532-0.41498 2.8275-1.8226 1.3507-5.0517 1.0618-9.9318-0.90318-15.371-0.60212-1.6925-1.4646-1.965-3.4744-1.7372-54.525 6.3154-112.7 26.567-162.68 54.97l-0.16274-2.8438c49.372-29.451 108.19-48.841 162.67-55.142 3.7307-0.43125 5.5399 0.80554 6.5591 3.6168 2.1807 5.9993 2.4126 12.027 0.83403 17.438-0.6306 2.1969-2.6282 3.6168-5.4252 3.8894-4.5497 0.45973-9.7454 1.0334-15.888 1.7779-0.48821 0.0406-0.76078 0.40684-0.74451 0.94794 0.20341 6.2287 0.24409 11.869-0.48821 17.797-0.6184 5.0379-2.6119 7.2478-8.3528 7.2767-5.1384 0.0285-9.7597 0.0814-15.185 0.40685z"/>
   <path d="m129.26 163.82c28.188-10.09 109.12-34.805 155.74-31.159l0.41498 3.0269c-44.923-4.4638-126.24 19.534-154.27 29.666z"/>
   <path d="m131.64 170.73c9.4293 6.8317 37.158 26.939 68.232 52.817 14.065 11.726 37.675 21.399 55.271 15.615 57.252-18.83 53.133-84.464 29.724-105.27l3.6616 0.0814c24.098 22.418 25.561 89.43-32.695 108.73-17.582 5.8272-43.875-4.808-57.783-16.735-30.657-26.279-58.156-46.473-67.629-53.247z"/>
   <path d="m277.28 195.76c-31.991-9.5876-107.43-21.442-145.15-26.939l-0.36616-2.2946c38.866 5.6836 114.58 16.706 146.85 26.48z"/>
   <path d="m222.86 238.4c38.938-5.411 74.346-60.553 60.998-104.11-0.0151-0.0406-0.0289-0.0814-0.0289-0.16273-0.20341-7.5493-0.70382-13.606-1.0618-19.017-0.20342-2.856 1.5948-5.1526 3.9911-5.5399 6.2291-0.98861 10.477-1.5948 14.252-1.8064 1.7087-0.0814 1.8389-0.57364 1.5948-2.2254-0.71603-4.808-1.8674-11.54-3.5436-17.711l2.555-0.41496c1.664 6.2002 2.8723 13.103 3.6005 17.912 0.40683 2.6567-0.20343 4.5928-3.4744 4.7796-3.7307 0.20341-8.3675 0.74451-14.553 1.7372-1.7209 0.28478-2.0505 1.1066-1.9081 3.2873 0.36617 5.3967 0.58993 11.353 0.78927 18.888 13.449 44.162-20.079 98.716-59.232 105.71z"/>
   <path d="m119.09 197.68c-3.271 18.443-10.793 67.112-7.6356 95.874 2.0667 18.715 13.979 30.886 32.939 32.006 22.218 1.3222 54.353-14.396 69.767-34.001 6.9032-8.7979 8.3675-15.572 3.4866-27.169-7.1189-16.907-23.409-37.273-44.034-60.222l10.104 7.7214c17.912 20.309 30.14 36.053 36.671 51.582 4.9228 11.712 4.0761 20.108-3.8609 30.198-16.104 20.495-49.057 36.584-72.466 35.206-15.917-0.94793-32.795-10.377-35.522-35.135-3.0432-27.657 3.9748-72.178 7.4488-92.243z"/>
   <path d="m216.23 257.88c-8.3097 40.876-78.565 66.351-105.4 40.747l-0.57364-3.3158c26.093 26.739 97.137 1.0212 104.54-40.172z"/>
   <path d="m175.13 299.88c-11.798-32.322-34.46-90.693-48.152-125.68l1.8064-0.44344c14.108 34.589 36.627 92.759 48.54 125.11z"/>
  </g>
  <path d="m108.16 130.53c3.8162-15.386 26.236-22.174 39.943-13.663 18.17 11.267 15.214 34.575 7.5351 40.976-6.114 5.0806-20.524 5.0233-30.972-0.6184-11.783-6.3581-18.443-18.902-16.505-26.696" fill="#72706d"/>
  <path d="m124.67 157.22c10.448 5.6404 24.858 5.6978 30.973 0.61841 0.0407-0.0406 0.12206-0.12207 0.16274-0.16275-18.63-1.8226-39.225-15.013-47.909-25.676-0.8625 7.8219 5.6836 19.261 16.764 25.231" fill="#c9c8c3"/>
  <path d="m111.18 123.54c8.6974-5.4826 14.022-6.5876 16.663-4.7649 3.2995 2.2661 2.2376 11.424-6.2002 25.389-5.0806-3.5883-9.745-7.1616-13.907-12.314 0.54517-2.7258 1.5216-5.5831 3.4459-8.3101" fill="#0f141b"/>
  <path d="m132.18 150.16c8.9415-12.257 16.678-20.079 21.83-18.443 4.7507 1.5216 6.7312 9.817 6.4012 18.457-1.0212 2.555-2.5143 5.4826-4.6075 7.5351-6.0566-0.67536-15.314-3.0269-23.624-7.5493" fill="#0f141b"/>
  <g fill="#fff">
   <path d="m109.88 128.61c1.0049 0.81775 2.14 1.7494 3.8894 3.1734 1.5948-2.1522 2.9984-4.0318 4.2482-5.7409-1.4361-0.97641-3.2303-2.2091-4.5497-3.0432-1.3344 1.9813-2.1685 3.4012-3.5883 5.612"/>
   <path d="m121.37 120.85c-1.3222 1.6355-2.498 3.2588-3.6738 4.8796 1.4361 0.97641 3.1734 2.2376 4.6071 3.2873 1.2612-1.664 2.5997-3.5029 3.7022-4.9659-1.8226-1.4484-3.1571-2.1807-4.6359-3.2018"/>
   <path d="m122.19 128.78c-1.6518 2.1807-3.4297 4.4492-4.3487 5.7698 0.773 0.58993 2.6851 1.8796 4.4492 2.9577 1.2042-1.5948 2.5672-3.4012 4.105-5.5257-1.2612-0.98862-2.8438-2.2092-4.2055-3.2018"/>
   <path d="m139.6 146.98c1.6355 0.44346 3.4581 0.97641 5.3678 1.607 1.0618-1.9244 2.3108-4.2771 3.2588-5.9704-1.7087-0.57364-3.5151-1.1758-5.2531-1.5948-1.2205 1.8064-2.2824 3.8162-3.3727 5.9562"/>
   <path d="m153.55 144.59c-1.4361 2.1807-2.4817 4.3487-3.2303 6.1571 1.8226 0.53295 3.5598 1.2612 5.3101 1.9935 0.89098-1.7087 1.8674-4.1624 2.5672-6.2291-1.5053-0.81775-2.9292-1.4077-4.6502-1.9244"/>
   <path d="m150.76 137.67c-1.1188 1.8959-2.3841 4.1046-3.2873 5.7124 1.8226 0.67535 3.7755 1.3059 5.6262 2.0667 0.93166-1.7657 2.4695-3.8609 3.2873-5.3394-1.664-0.90319-3.747-1.8226-5.6262-2.441"/>
  </g>
  <path d="m121.44 147.95c2.9008 2.0789 7.2336 4.4061 10.606 5.8272-1.0781 2.4532-3.5721 4.0481-5.5688 3.3605-1.9935-0.68755-4.8796-4.9085-5.0375-9.1856" fill="#ed8599"/>
  <path d="m122.31 152.14c1.306-0.51668 2.3556-0.93166 4.2767-1.0049-1.965-1.0496-3.9057-2.1237-5.1522-3.1856 0.28479 1.8959 0.41498 2.5997 0.87471 4.1909" fill="#922f00"/>
  <path d="m182.64 34.35c2.2946 1.607 0.16274 8.8553-3.7592 14.123-4.8654 6.5017-9.2715 8.841-11.869 7.8077-2.441-0.94794-2.0952-8.8264 2.1522-14.338 4.8796-6.315 11.424-9.0278 13.477-7.5924" fill="#d5c9a1"/>
  <path d="m178.87 48.475c3.9341-5.2674 6.057-12.529 3.7592-14.123-2.022-1.4199-8.4964 1.2327-13.362 7.4488 5.8557-1.7657 10.219 1.2612 8.7979 7.7072 0.2848-0.32547 0.52889-0.67535 0.80554-1.0334" fill="#0f141b"/>
  <path d="m217.61 58.191c-1.2205-1.2897-7.5204-1.8796-13.965 5.2531-5.21 5.7694-6.8174 10.836-5.1238 12.673 1.2612 1.3507 7.4631 1.3344 13.778-4.363 6.0281-5.4541 6.7316-12.071 5.3105-13.563" fill="#d5c9a1"/>
  <g fill="#0f141b">
   <path d="m211.24 72.644c0.32547-0.28479 0.70384-0.57364 1.0496-0.89098 6.0282-5.4541 6.7312-12.071 5.3105-13.563-1.192-1.2775-7.3341-1.8511-13.678 4.9659 4.7938-1.607 8.9846 2.2376 7.3198 9.4871"/>
   <path d="m115.75 155.83c-2.8275-1.1473-5.8561-0.20341-7.1762 2.9577-1.2775 3.0432 0.0407 6.4301 2.8397 7.4203 3.0432 1.0619 5.8556-0.67535 7.018-3.3442 1.4077-3.214-0.40684-6.114-2.6851-7.0326"/>
   <path d="m131.02 165.24c-1.9528-2.3678-5.7124-2.3108-7.9802-0.2441-2.14 1.9244-2.2254 4.9516-0.84623 7.09 1.6802 2.5834 5.5257 2.8845 7.9944 0.77299 2.14-1.8226 2.6404-5.4252 0.83402-7.6067"/>
  </g>
  <path d="m105.75 179.42c-0.6184-1.0903-9.6161-2.1115-17.079 1.3344-7.4346 3.4459-13.534 9.0131-13.248 10.162 0.28479 1.1473 8.7263 1.4362 16.807-1.8674 10.004-4.0757 13.979-8.8264 13.52-9.6303" fill="#d5c9a1"/>
  <path d="m75.425 190.92c0.28479 1.1351 8.5253 1.4199 16.519-1.7494 2.6689-3.9057 1.5501-7.6209-3.0879-8.4822-0.0814 0.015-0.12206 0.0406-0.20342 0.0814-7.4346 3.4459-13.534 9.0136-13.247 10.162" fill="#0f141b"/>
  <path d="m116.74 186.74c-0.90319-0.93166-9.5013 2.0098-16.548 7.492-7.9659 6.1714-12.717 14.008-11.453 15.515 1.0496 1.249 11.611-3.3442 17.639-8.6974 6.8032-6.0424 11.31-13.348 10.363-14.309" fill="#d5c9a1"/>
  <path d="m106.06 201.31c2.1115-4.3776-0.54517-8.0375-5.21-7.5782-0.2441 0.16274-0.44346 0.32547-0.65908 0.48821-7.9655 6.186-12.73 14.022-11.453 15.529 1.0334 1.2205 11.252-3.2018 17.323-8.4391" fill="#0f141b"/>
  <g fill="#b8ae8c">
   <path d="m176.63 42.809c-1.7942 4.8369-5.9273 10.319-9.7308 13.233 1.2775 1.1066 6.1286 0.47194 11.18-6.6449 0.4882-2.4695 0.20342-5.2389-1.4484-6.588"/>
   <path d="m210.83 65.936c-2.498 4.1477-7.5924 8.3386-12.472 10.018 1.9081 1.5379 7.6929 1.0212 12.888-3.2873 0.48821-2.3556 0.63061-4.3056-0.41497-6.7312"/>
   <path d="m93.206 184.24c3.1449-0.78927 9.1856-2.9292 12.587-4.8512-0.32547 1.9528-5.5831 6.5448-13.822 9.8602 1.0496-1.7209 1.607-3.2873 1.2327-5.009"/>
   <path d="m106.31 195.99c3.6331-2.6567 7.7788-6.2434 10.42-9.3577 0.74452 1.5501-3.9626 8.9989-10.649 14.711 0.65908-1.8511 0.84623-3.7185 0.2441-5.3536"/>
  </g>
  <path d="m130.23 156.26c6.6311 2.4817 14.883 3.389 25.131 1.6803-5.5257 4.2051-19.161 5.1237-29.81-0.24411-10.649-5.3825-16.319-13.291-17.984-25.748 2.3393 6.7312 6.8601 14.654 14.697 20.151 0.91946 1.8796 2.2254 4.1624 3.7755 4.8227 1.5623 0.65907 2.8723 0.16272 4.1909-0.64689" fill="#9f9f9a"/>
  <g fill="#0f141b">
   <path d="m109.22 130.8c-2.1237 8.5827 6.6884 20.754 15.845 25.691 9.4297 5.081 23.509 5.4541 29.695 0.28478 7.4631-6.2145 10.104-28.303-7.1762-39.024-13.376-8.2959-34.862-1.1066-38.364 13.032m15.027 27.198c-12.444-6.7169-19.232-19.576-17.209-27.743 4.0761-16.419 27.786-22.834 41.622-14.252 18.787 11.654 15.859 36.168 7.7356 42.913-5.6547 4.7075-19.993 5.6404-32.149-0.91946"/>
   <path d="m154.63 158.61c-18.285-2.5387-38.378-15.142-46.818-25.519l0.28479-2.083c8.8984 11.137 29.91 23.782 48.181 26.193z"/>
   <path d="m121 143.69c8.8264-14.639 8.7837-22.634 6.4155-24.27-2.2539-1.5623-7.3199-0.70382-16.936 5.6262l2.6851-3.6738c7.0758-4.1766 12.286-5.2385 15.128-3.271 3.4744 2.3963 3.1449 12.042-5.9561 26.437z"/>
   <path d="m118.7 134.41c1.0781 0.78926 2.2254 1.4931 3.4744 2.2091 1.0334-1.4077 2.1685-2.9008 3.3564-4.5212-0.90318-0.77301-1.9935-1.6233-3.214-2.4533-1.3914 1.8674-2.6973 3.4744-3.6168 4.7649m8.0375-1.8674c-1.3629 1.8674-2.6973 3.7592-3.7755 5.2385-0.36616 0.50041-0.773 0.4882-1.249 0.20341-1.7209-1.0781-2.8275-1.7779-4.2055-2.7706-0.47193-0.32547-0.56144-0.70383-0.16274-1.2042 1.1636-1.4931 2.5712-3.2588 3.8894-4.9944-1.0049-0.68755-2.0098-1.5216-3.0147-2.1969-1.5379 1.9651-2.4695 3.4297-3.6168 5.2963-0.32547 0.53295-0.73231 0.57364-1.3222 0.16272-1.4931-1.1188-2.4695-1.9244-3.6738-2.9414-0.50448-0.41498-0.54516-0.84623-0.20342-1.3629 1.4199-2.2376 2.0952-3.1733 3.4175-5.138 0.36616-0.57364 0.74452-0.53296 1.2327-0.2441 1.1066 0.70382 2.1807 1.4077 3.4581 2.3231 1.1473-1.6355 2.1969-3.1123 3.214-4.3918 0.43125-0.54516 0.64688-0.54516 1.2775-0.16272 1.4199 0.8625 2.7421 1.7657 4.3345 2.9699 0.52889 0.40684 0.51669 0.77299 0.16274 1.2897-0.90318 1.249-1.9081 2.6241-3.2018 4.1762 1.3507 0.91946 2.2539 1.6233 3.3727 2.5428 0.44346 0.36615 0.43125 0.74451 0.0814 1.2042m-1.607-8.3817c-1.2042-0.90319-2.5712-1.8389-3.6453-2.4695-1.0049 1.2775-2.0545 2.6974-2.913 3.8772 1.1188 0.76078 2.498 1.7779 3.6005 2.5712 1.1066-1.3792 2.0952-2.7543 2.9577-3.9748m-7.9944 2.0383c-1.2327-0.93166-2.2824-1.6355-3.4866-2.3515-1.0781 1.607-1.8511 2.9293-2.9415 4.6355 1.2327 1.0903 2.1115 1.7372 3.0554 2.498 1.0496-1.6233 2.1685-3.1164 3.3727-4.7796"/>
   <path d="m159.45 151.77c0.80554-8.0949-0.89098-17.725-5.6689-19.246-4.2771-1.3629-10.98 4.6355-20.969 18.098l-1.3792-0.7608c10.52-14.611 17.682-20.481 22.863-18.888 4.88 1.5053 6.7889 8.841 6.961 16.003z"/>
   <path d="m148.47 142.96c1.5053 0.50449 2.856 0.96014 4.4638 1.6925 0.73231-1.3792 1.9244-3.0879 2.5997-4.2914-1.3792-0.70384-3.1001-1.4484-4.4923-1.9366-0.97642 1.5501-1.7779 3.0716-2.5672 4.5354m10.348 4.0904c-0.68756 1.9935-1.4199 4.0196-2.3678 5.8272-0.28478 0.50042-0.64687 0.74453-1.3344 0.48822-1.6802-0.67536-3.2018-1.2897-4.8796-1.9366-0.65908-0.24409-0.81775-0.43123-0.54517-1.1066 0.57365-1.3792 1.0741-2.4126 2.2376-4.6075-1.2775-0.60212-2.4248-0.98862-3.7755-1.4199-0.74452 1.3914-1.7209 3.1734-2.4532 4.4781-0.28478 0.50042-0.45972 0.68756-1.1473 0.44346-1.7209-0.60213-3.0432-1.0212-4.8227-1.4484-0.84623-0.20343-1.0903-0.63061-0.65908-1.4484 1.0619-2.0383 2.0098-3.6453 3.2588-5.4968 0.32548-0.45973 0.6306-0.47194 1.4199-0.28478 1.1758 0.24409 2.3108 0.6306 3.9179 1.1758 0.76079-1.4199 1.4931-2.7991 2.3678-4.2629 0.28479-0.48821 0.52889-0.64688 1.192-0.41498 1.8389 0.60212 3.5436 1.3914 5.3394 2.3393 0.52889 0.28478 0.65908 0.70384 0.32547 1.306-0.67535 1.1351-1.2327 1.965-2.1522 3.572 1.2612 0.50041 2.2946 0.96014 3.5436 1.5786 0.54517 0.28478 0.76079 0.58991 0.54517 1.2327m-7.6502 3.2588c1.4362 0.48821 2.6851 1.0618 4.2055 1.664 0.76079-1.4768 1.5948-3.4582 2.1684-5.0806-1.2205-0.68757-2.2376-1.1758-3.8446-1.7372-1.1351 1.9366-1.9366 3.8162-2.5265 5.1522m-10.649-3.6738c1.5501 0.41498 2.5387 0.71605 4.1477 1.1636 0.81775-1.5094 2.0098-3.4459 2.7706-4.7938-1.3182-0.48821-2.8682-1.0049-4.162-1.2775-1.1188 1.607-1.9813 3.3727-2.7543 4.9085"/>
   <path d="m122.34 149.44c0.58992 3.4581 2.8113 6.5733 4.3345 7.1046 1.2327 0.43125 3.0879-0.32548 4.2629-2.3963-3.4012-1.5664-6.186-2.97-8.5973-4.7076m3.9179 8.2812c-2.5712-0.76078-5.3105-4.9516-5.4537-9.745-0.0289-0.97643 0.2441-1.0496 0.98862-0.53297 3.1123 2.1522 6.8028 4.0761 10.362 5.5115 0.6306 0.28479 0.84623 0.53295 0.51669 1.2775-1.2775 2.9292-4.0196 4.2051-6.4155 3.4866"/>
   <path d="m169.96 42.575c-3.9748 5.1526-4.3918 12.085-2.5834 12.802 2.079 0.81775 5.7556-0.97642 10.721-7.6067 4.2625-5.6982 5.3963-11.683 4.0761-12.616-1.3629-0.94794-7.1478 0.8625-12.214 7.4204m-3.4175 14.481c-2.9414-1.1473-3.0554-9.5013 1.8064-15.802 4.8943-6.315 12.272-9.4151 14.912-7.5636 2.5834 1.7942 1.0618 9.2719-3.572 15.472-5.784 7.7357-10.621 8.8838-13.147 7.8935"/>
   <path d="m176.96 50.848c1.8674-6.889-2.14-10.162-8.4537-7.9513l1.5053-2.1522c5.9993-1.5053 9.8459 1.8796 8.9704 7.6071z"/>
   <path d="m204.33 64.118c-5.1384 5.5973-6.2291 10.348-5.2674 11.381 1.2205 1.192 7.3772 0.16274 12.616-4.5782 5.784-5.2242 6.4297-10.908 5.2816-12.128-1.1188-1.192-6.6596-1.1636-12.63 5.3247m-6.4586 12.63c-2.0505-2.1969-0.16274-8.267 5.0232-13.993 6.4155-7.0904 13.635-7.0184 15.372-5.1815 1.8389 1.9528 0.83402 9.3435-5.3247 14.912-6.3585 5.7409-13.405 6.0424-15.07 4.2625"/>
   <path d="m210.29 73.461c1.965-7.8939-2.2824-11.611-7.5066-9.042l1.9081-2.2376c4.8658-1.2612 9.0135 3.1001 7.3772 9.8313z"/>
   <path d="m167.93 56.533c-14.984 25.016-23.897 43.904-30.226 64.299-0.51669 1.664-2.022 1.2897-1.5501-0.41498 5.7983-20.524 15.113-39.799 30.226-64.557z"/>
   <path d="m199.12 76.52c-13.692 13.176-29.523 29.006-51.08 50.42-1.2327 1.2205-2.3393 0.20341-1.0496-1.1473 21.012-21.916 36.627-37.029 50.994-50.521z"/>
   <path d="m109.47 159.09c-1.1066 2.6404-0.0143 5.5688 2.2539 6.3723 2.14 0.74453 4.6359-0.32546 5.7983-2.9862 0.97642-2.2254 0.36616-4.9663-2.079-5.9419-2.4126-0.96015-4.9085 0-5.9704 2.555m1.6925 7.8076c-3.6168-1.2775-4.88-5.3105-3.5436-8.4964 1.2042-2.8723 4.5355-4.8227 8.4248-3.2873 3.0554 1.2042 4.736 4.7364 3.2588 8.1523-1.5623 3.572-5.1669 4.6787-8.138 3.6331"/>
   <path d="m123.77 165.69c-1.7209 1.5501-1.965 4.2914-0.90318 5.9277 1.1066 1.7087 4.2051 2.4695 6.6018 0.41498 1.9528-1.664 2.3393-4.6502 0.93166-6.3439-1.3792-1.6518-4.4492-1.965-6.6307 0m-2.2539 6.7885c-1.8064-2.7828-1.2612-6.315 0.8625-8.2092 2.4532-2.2091 6.8605-2.2946 9.2572 0.4882 2.3393 2.7136 1.4361 6.9037-0.80554 8.8268-2.8275 2.4248-7.3341 1.965-9.3146-1.1066"/>
   <path d="m76.345 190.59c0.2441 0.64687 7.8939 0.6306 15.615-2.5265 9.0278-3.69 13.104-7.7646 12.874-8.3244-0.2441-0.58992-7.664-1.7372-15.744 1.9935-7.3919 3.4174-12.96 8.2955-12.745 8.8553m-1.8226 0.6306c-0.47193-1.8959 7.0184-8.2523 13.721-11.352 6.6164-3.0716 17.252-2.7258 18.328-0.80555 0.773 1.3914-3.4459 6.6022-14.051 10.937-8.0945 3.2995-17.553 2.9699-17.998 1.2205"/>
   <path d="m90.875 189.42c2.8723-3.69 2.0098-7.6067-2.9415-8.2096l2.0383-1.0171c4.306 1.0618 5.2962 4.9663 3.1449 8.4968z"/>
   <path d="m89.467 209.14c0.57364 0.6306 10.205-3.4744 16.305-8.8842 6.76-5.9992 10.649-12.386 10.19-12.831-0.6184-0.6306-8.6258 2.5387-15.156 7.6067-7.7792 6.0424-11.999 13.376-11.339 14.108m-1.5216 1.2043c-1.2327-1.4646 1.9366-9.3862 11.683-16.95 7.0469-5.4826 16.505-8.6543 17.883-7.2621 1.1758 1.2042-1.965 8.066-10.492 15.658-6.4301 5.712-17.424 10.52-19.075 8.5538"/>
   <path d="m104.77 202.27c2.9008-4.6644 0.0407-8.5685-4.8512-7.6929l2.022-1.664c4.0761 0.0406 6.5733 3.3605 5.2242 7.5204z"/>
   <path d="m122.23 151.68c1.1066-0.70382 2.3678-1.0049 3.747-0.90317l3.5151 1.8226c-3.332-1.1758-5.5399-0.52889-6.7601 0.32548z"/>
  </g>
 </g>
</svg>
