<?xml version="1.0" encoding="UTF-8"?>
<!-- Created with Inkscape (http://www.inkscape.org/) -->
<svg version="1.1" viewBox="0 0 246.84 261.46" xmlns="http://www.w3.org/2000/svg">
 <path d="m146.42 195.49c3.4249 20.17 6.8403 36.405 15.678 53.233 4.5763 8.7291 13.753 9.8911 20.484 6.574 17.397-8.5352 35.364-30.617 41.393-49.044 4.1768-12.736 0.47359-22.458-8.4989-28.935-11.986-8.6564-26.017-12.906-47.059-17.603-5.9686-0.45986-15.036-1.1016-20.811-1.2217 2.2513 7.0946 4.0921 16.647 4.2613 20.012 0.24023 5.0605-2.1414 11.259-5.448 16.986" fill="#0f141b"/>
 <path d="m161.62 247.81c19.722 4.5035 62.652-50.945 54.637-69.879-0.27453-0.20591-0.52162-0.41181-0.78587-0.60399-11.986-8.6564-26.029-12.906-47.059-17.603-5.9686-0.45986-15.048-1.1016-20.811-1.2217 2.2513 7.0946 4.0921 16.647 4.2492 20.012 0.24023 5.0605-2.1414 11.271-5.4356 16.986 3.3529 19.794 6.7311 35.811 15.206 52.313" fill="#E60044"/>
 <path d="m216.78 179.52c-0.13727-0.55594-0.30887-1.0879-0.52164-1.5855-0.27453-0.20592-0.52162-0.41183-0.78587-0.60401-11.986-8.6564-26.029-12.906-47.058-17.603-5.9686-0.47359-15.049-1.1016-20.811-1.2217 2.2513 7.0946 4.0921 16.647 4.2496 20.012 0.13726 2.4469-0.38779 5.1697-1.3075 7.9782 14.516-10.339 34.322-13.463 66.235-6.9734" fill="#C6003A"/>
 <path d="m208.28 172.78c-4.1405-2.2753-8.5836-4.2009-13.499-5.9322l-9.1042 25.618c3.4503 3.7286 6.937 7.7844 10.387 11.525 6.7435-9.8668 11.646-20.835 12.215-31.211" fill="#E2C7AA"/>
 <path d="m208.28 172.78c-4.1405-2.2753-8.5836-4.2009-13.499-5.9322l-3.3288 9.3705c4.9881 0.20592 10.388 0.75157 16.211 1.6576 0.30887-1.7056 0.52164-3.4146 0.61774-5.0969" fill="#BEA890"/>
 <path d="m132.6 191.47c-7.6512 26.453-16.61 47.506-30.097 61.139-8.7652 8.8619-17.155 9.213-26.877 5.6052-12.712-4.6971-33.33-26.199-36.514-53.317-1.1977-10.182 0.10301-17.7 8.4748-25.158 7.9179-7.0582 24.649-12.349 50.255-17.034 17.591-1.9356 29.286-2.9411 40.303-3.5595-3.5111 7.5788-6.9978 17.724-7.1793 22.095-0.13727 3.3186 0.34319 5.5811 1.6335 10.23" fill="#0f141b"/>
 <path d="m104.53 250.46c12.373-13.656 20.823-33.874 28.076-58.983-1.3075-4.6611-1.7811-6.925-1.6335-10.23 0.2059-4.3828 3.6682-14.516 7.1793-22.095-11.017 0.61772-22.7 1.6095-40.303 3.5595-22.664 4.1405-38.366 8.7652-47.167 14.673-12.191 32.155 25.908 77.834 53.85 73.076" fill="#E60044"/>
 <path d="m138.14 159.15c-11.005 0.61772-22.7 1.6095-40.291 3.5595-22.676 4.1405-38.378 8.7652-47.18 14.673-1.1393 3.0028-1.8394 6.1381-2.1414 9.3345 30.715-8.063 61.526-7.5428 83.693 3.3666-1.0158-3.753-1.3796-5.8718-1.2595-8.8379 0.20591-4.3828 3.6683-14.516 7.179-22.095" fill="#C6003A"/>
 <path d="m73.225 168.18c-5.0969 1.4173-9.5641 2.893-13.39 4.4795-2.0213 12.107 1.2972 26.283 8.632 38.717 4.2252-3.7894 7.0702-6.2469 11.671-10.46z" fill="#E2C7AA"/>
 <path d="m73.225 168.18c-5.0969 1.4173-9.5641 2.893-13.39 4.4795-0.61772 3.6926-0.72755 7.5788-0.38779 11.55 5.6055-1.0879 11.175-1.8875 16.659-2.3851z" fill="#BEA890"/>
 <path d="m240.5 88.889c-6.5132-13.608-18.003-22.712-30.533-21.574 4.5156-4.3827 9.213-8.7652 14.092-13.16 2.0351-1.8291 2.3474-3.8621 1.5992-5.8838-1.4276-3.8134-2.313-6.1017-4.0801-10.351-0.61772-1.4654-0.64174-2.1929 0.34318-3.0749 3.1229-2.8587 5.6052-5.2665 8.4261-8.0026 1.4517-1.4036 1.5134-3.147 0.79961-4.5399-2.265-4.4068-3.7046-7.2034-6.0046-11.356-0.60399-1.0776-1.5512-0.93345-2.3233-0.20591-27.022 25.678-53.088 62.289-68.56 106.34l-8.293 35.642c0.76187 2.241 1.1497 3.8498 1.6473 5.7747 12.349 0.42212 26.671 1.8292 40.254 3.8742 14.286 2.1552 26.635-0.17158 35.981-6.5012 22.894-15.509 26.308-46.865 16.671-66.986" fill="#0f141b"/>
 <path d="m213.54 67.3-1.8635-0.06859c-0.56967 0.01284-1.1256 0.0244-1.7056 0.06859 0.0686-0.03429 0.103-0.10301 0.17159-0.17159h-0.17159l2.313-2.2753c-2.5189-3.4146-4.6487-6.7311-6.925-10.411-1.0398-1.6816-0.72753-2.9067 0.0343-3.8378 2.0454-2.4469 3.8865-4.1892 6.005-6.2713 1.4757-1.4276 1.9252-2.845 0.93345-4.5039-2.1174-3.5715-4.7582-7.3001-7.2521-10.448-20.327 23.62-38.79 53.402-50.824 87.676l-8.305 35.642c0.77558 2.241 1.1634 3.8498 1.6576 5.775 12.337 0.42211 26.671 1.8292 40.254 3.8738 9.7216 1.4654 18.56 0.84765 26.15-1.6953 24.189-35.908 22.046-67.204-0.47359-93.379" fill="#CF6307"/>
 <path d="m187.86 162.38c9.7216 1.4654 18.56 0.84765 26.15-1.6953 10.606-15.751 16.15-30.605 17.131-44.528-32.324 0.37408-57.627 8.9711-81.514 20.763l-3.6803 15.811c0.77558 2.241 1.1634 3.8498 1.6576 5.7747 12.337 0.42211 26.671 1.8292 40.254 3.8742" fill="#AF5201"/>
 <path d="m128.44 125.15c-20.448-42.567-57.325-93.16-105.98-123.52-1.8635-1.1634-2.8587-0.34317-3.753 1.1394-1.9252 3.147-4.0557 6.4648-7.0946 11.368-1.1737 1.8875-0.49761 3.777 1.4757 5.0362 4.0921 2.615 6.7675 4.2012 10.387 6.9734 1.3453 1.0295 1.8154 1.9596 0.71381 4.0437-1.6576 3.147-3.7046 6.9734-5.2541 10.073-0.85795 1.7056-0.85795 3.4867 0.9815 4.8066 7.4216 5.2905 14.831 10.327 25.896 18.305-15.884-5.5328-28.983 1.3556-36.72 13.874-19.019 30.715 1.1874 72.095 15.666 81.926 12.131 8.2446 19.976 9.443 35.787 7.7724 32.627-3.4503 59.068-6.7919 77.615-7.7967 0.96777-2.2272 1.8154-4.0437 3.0749-6.8283z" fill="#0f141b"/>
 <path d="m60.538 166.94c32.627-3.4503 59.068-6.7919 77.616-7.7967 0.95746-2.2169 1.8154-4.0437 3.0646-6.8283l-12.785-27.167c-17.204-35.812-46.041-77.301-83.741-107.65-3.147 4.4068-5.8475 8.5472-8.4989 12.978-0.9815 1.6232-0.71382 2.3851 0.52164 3.3769 3.3048 2.6631 5.6052 4.4555 8.8256 7.143 1.8394 1.5237 2.011 2.639 0.52164 5.1937-2.3233 3.9953-4.6611 8.039-7.0582 12.264 0.27455 0.2059 0.5937 0.45986 0.91972 0.71381 1.8532 1.3075 3.8018 2.7111 5.8838 4.2012-1.963-0.6795-3.8862-1.1737-5.7627-1.4894-1.0913-0.13727-2.2032-0.24022-3.4146-0.27454-30.569 33.33-16.743 86.671 4.4432 105.15 5.5084 1.1634 11.465 1.0536 19.467 0.20591" fill="#CF6307"/>
 <path d="m41.067 166.73c5.5087 1.1634 11.465 1.0536 19.468 0.20592 32.627-3.4503 59.068-6.7799 77.616-7.7847 0.96776-2.2272 1.8154-4.0437 3.0749-6.8403l-5.1089-10.848c-44.346-17.034-84.577-23.898-116.82-23.087 2.0351 20.351 10.932 38.91 21.768 48.354" fill="#AF5201"/>
 <path d="m41.681 81.532c4.625 2.9308 9.2374 5.8958 13.778 8.8379 7.8935 5.1333 15.533 10.169 22.542 14.758 1.5134-4.5276 2.8072-7.9782 4.3824-11.211-6.5132-5.9562-13.45-12.07-20.121-17.615-4.4555-3.6926-8.7895-7.143-12.797-10.121l14.128-9.3465 5.9082-16.574v-0.01156c-7.7727-8.039-16.041-15.702-24.806-22.748-3.147 4.3948-5.8478 8.5472-8.5112 12.966-0.96777 1.6335-0.71381 2.3851 0.52164 3.3769 3.3186 2.6631 5.6055 4.4552 8.8379 7.143 1.8394 1.5374 2.011 2.6528 0.52162 5.2057-2.3371 3.9833-4.6731 8.039-7.0582 12.252 0.27455 0.24023 0.5937 0.47359 0.91973 0.71382 1.8394 1.3212 3.8014 2.7111 5.8838 4.2129-1.9733-0.67607-3.8862-1.1737-5.7627-1.4894-1.1016-0.13727-2.2032-0.24023-3.4146-0.30885-30.569 33.33-16.756 86.684 4.4308 105.15 4.4311 0.93345 9.165 1.0398 14.988 0.61773-13.305-17.131-20.46-35.133-20.714-53.741l7.5544-13.426z" fill="#E60044"/>
 <path d="m216.68 117.83c-0.35005 14.431-5.6172 29.25-16.114 45.254 4.8062-0.24023 9.3098-1.0158 13.438-2.3988 24.189-35.908 22.046-67.216-0.47359-93.378l-1.8635-0.06859c-0.56968 0.01156-1.1394 0.03429-1.7056 0.06859 0.0343-0.03429 0.103-0.10301 0.17159-0.13728l-0.17159-0.01284 2.313-2.265c-2.5052-3.4146-4.6491-6.7311-6.925-10.412-1.0398-1.6953-0.72754-2.9067 0.0686-3.8378 2.0454-2.4572 3.8862-4.2009 6.005-6.2713 1.4757-1.4276 1.9252-2.845 0.93345-4.5035-2.1174-3.5715-4.7578-7.3125-7.2517-10.448-6.4044 7.4336-12.615 15.472-18.499 24.068 0.0116 0.01156 0.024 0.02402 0.024 0.02402l4.2736 12.712 12.01 8.0994c-3.3048 3.3529-6.8766 7.1913-10.448 11.186-5.7507 6.4408-11.489 13.281-16.005 19.141 1.4516 2.3714 3.1229 5.0726 4.6367 7.8691 4.7702-4.7578 10.787-10.073 17.094-15.182 4.0317-3.2568 8.1721-6.4408 12.203-9.3342l-1.9493 16.525z" fill="#E60044"/>
 <path d="m216.7 117.82c0.52163-21.453-9.8304-42.022-30.097-64.311-2.8312 4.1405-5.6055 8.4021-8.2689 12.797 12.772 12.215 23.765 35.981 27.639 56.284 3.5475-1.6232 6.901-3.1229 10.726-4.7699" fill="#E2C7AA"/>
 <path d="m69.498 40.254c-23.632 25.109-34.48 49.722-34.165 73.354 5.7747 2.0591 9.6852 3.5471 15.182 5.5328 0.10301-22.918 7.0098-41.042 29.782-67.107-3.4747-3.995-7.0822-7.9299-10.799-11.78" fill="#E2C7AA"/>
 <g fill="#094">
  <path d="m45.478 63.266c9.9275 7.4576 19.153 15.061 27.058 21.913 2.1312-4.298 4.5399-8.3173 7.2641-11.889-8.5592-9.201-21.416-21.053-34.262-32.3 1.8394 1.5375 2.011 2.6528 0.52164 5.1937-2.3233 3.9953-4.6611 8.051-7.0582 12.264z"/>
  <path d="m28.159 73.158c-3.1607 5.4964-5.4356 11.307-6.9491 17.252 10.714 5.5448 27.845 13.971 42.131 21.114 1.0776-4.5035 2.3714-9.0315 3.8862-13.463-12.397-8.1354-25.993-16.998-39.068-24.903"/>
  <path d="m212.24 64.861c-2.5052-3.4146-4.6367-6.7191-6.9127-10.4-1.0398-1.6816-0.72753-2.893 0.0686-3.8254-9.8064 10.654-20.799 23.874-27.773 35.957 2.1071 2.6871 4.1525 5.6899 6.0654 8.8619 8.3417-10.085 19.383-22.143 28.559-30.593"/>
  <path d="m222.54 79.901c-9.9395 5.9202-23.075 15.884-33.632 25.267 1.5992 3.3186 3.0131 6.6948 4.2372 10.024 13.366-7.3125 25.823-14.419 36.053-19.431-1.4757-5.46-3.7046-10.738-6.6587-15.86"/>
 </g>
 <path d="m119.51 227.3-29.274-13.451c-4.2616 4.1164-7.8451 7.494-11.489 10.993 8.5836 8.7892 19.637 15.278 32.349 17.252 3.0509-4.4552 5.8234-9.4066 8.4141-14.794" fill="#E2C7AA"/>
 <path d="m151.34 219.96c1.4654 5.787 3.1847 11.356 5.3512 16.877 6.586-0.64175 17.555-7.9903 27.7-18.523-3.0509-3.9589-6.017-7.8691-9.177-12.167z" fill="#E2C7AA"/>
 <path d="m132.6 191.47c-1.3075-4.6491-1.7777-6.913-1.6335-10.23 0.17159-4.3704 3.6682-14.516 7.1793-22.095-11.017 0.61774-22.712 1.6232-40.303 3.5595-10.63 1.9493-19.722 4.0073-27.288 6.2349-3.3288 16.259 14.491 52.979 46.986 62.277 5.8594-11.223 10.678-24.588 15.06-39.746" fill="#CF6307"/>
 <path d="m152.38 223.91c16.586-4.7215 42.652-37.627 44.928-56.138-8.0994-3.0749-17.458-5.4964-28.911-8.063-5.9566-0.45986-15.036-1.0913-20.811-1.2114 2.2513 7.0946 4.1044 16.647 4.2616 20.012 0.24023 5.0485-2.1414 11.259-5.448 16.986 1.7571 10.291 3.5111 19.564 5.9806 28.414" fill="#CF6307"/>
 <path d="m145.96 152.78c3.5958 12.276 7.1189 23.959 5.3512 30.836-2.2993 8.9103-6.2589 15.46-12.869 20.484-4.1164-7.1189-7.5304-14.371-7.4576-21.78 0.0686-7.4456 4.6611-17.918 10.169-30.146 1.4276 0.37407 2.8827 0.5937 4.8062 0.604" fill="#C9C8C3"/>
 <path d="m151.32 183.61c0.83394-3.2568 0.48389-7.6028-0.4976-12.567-4.6974 5.0122-13.656 3.0886-16.961-1.4757-1.7434 4.8546-2.8347 9.1526-2.869 12.748-0.0686 7.4092 3.3426 14.661 7.4576 21.78 6.6224-5.0365 10.569-11.574 12.869-20.484" fill="#72706D"/>
 <path d="m147.38 157.63c-0.45987-1.5992-0.94375-3.219-1.4173-4.8546-1.9252 0-3.3769-0.2059-4.8062-0.59369-0.73784 1.6335-1.4517 3.2328-2.1414 4.7942 1.9733 1.5134 5.7994 2.1792 8.3657 0.65204" fill="#595653"/>
 <path d="m41.067 166.73c4.4191 0.93345 9.1526 1.0398 14.988 0.60401-12.106-15.581-19.116-31.889-20.46-48.729-5.6295-0.27454-11.065-0.36377-16.296-0.24023 2.0351 20.351 10.932 38.91 21.768 48.354" fill="#C6003A"/>
 <path d="m214 160.68c10.606-15.751 16.15-30.605 17.131-44.54-5.1693 0.0686-10.157 0.35005-15 0.80991l0.54565 0.87168c-0.35004 14.431-5.6175 29.25-16.114 45.254 4.8062-0.24023 9.3101-1.0158 13.438-2.3988" fill="#C6003A"/>
 <path d="m205.08 118.37c0.34319 1.4173 0.62802 2.8312 0.8957 4.2252 3.5471-1.6335 6.9007-3.1229 10.738-4.7822v-0.91973c-3.9829 0.36378-7.8571 0.86138-11.634 1.4757" fill="#BEA890"/>
 <path d="m138.14 159.15c-11.005 0.61772-22.7 1.6095-40.291 3.5595-10.642 1.9355-19.722 3.995-27.3 6.2349-0.73784 3.6199-0.42555 8.2566 0.85795 13.365 22.676-2.7489 44.177-0.41181 60.812 7.7727-1.0158-3.753-1.3796-5.8718-1.2595-8.8379 0.2059-4.3828 3.6682-14.516 7.179-22.095" fill="#AF5201"/>
 <path d="m168.42 159.72c-5.9686-0.45986-15.036-1.0913-20.811-1.2217 2.2513 7.0946 4.1041 16.647 4.2616 20.012 0.10301 2.4572-0.38779 5.1817-1.3075 7.9903 10.884-7.7603 24.734-11.453 44.443-10.085 1.1874-3.0886 1.9973-6.005 2.3233-8.632-8.0994-3.0749-17.47-5.5084-28.911-8.063" fill="#AF5201"/>
 <path d="m135.98 164.55c2.6047 3.0989 9.746 3.2808 13.56 1.0638-0.77558-2.5052-1.5615-5.6295-2.1552-7.9903-2.0591 1.1874-5.2541 1.5375-8.3777-0.65204-0.86138 2.1689-1.7571 4.4191-3.0268 7.5788" fill="#9F9F9A"/>
 <path d="m131 180.97c1.5855 6.017 7.5064 13.245 8.8015 13.245 1.2972 0 10.533-8.5232 11.937-13.584-1.8051 9.5521-6.1138 18.039-13.087 23.136-3.5835-5.6055-7.9782-14.189-7.6516-22.797" fill="#595653"/>
 <g fill="#0f141b">
  <path d="m146.6 152.79c3.5354 12.022 7.3852 24.165 5.6175 31.017-2.3714 9.201-6.4768 15.763-13.196 20.726-0.53194 0.39809-0.87168 0.43584-1.2698-0.27455-4.0313-6.937-7.7119-14.153-7.6392-21.973 0.0686-7.6636 5.0726-18.62 10.315-30.23l1.4414 0.27455c-5.2421 11.586-9.9155 22.458-9.9879 29.964-0.0686 7.3849 3.3186 14.177 6.7795 20.714 6.0777-5.1937 9.4553-10.848 11.719-19.613 1.6953-6.586-1.6095-18.765-5.0969-30.654z"/>
  <path d="m139.2 156.34c1.7296 1.4276 5.5207 2.241 8.0026 0.66577l0.30887 1.2458c-2.3714 1.4997-6.4768 1.2835-8.7168-0.62803z"/>
  <path d="m150.96 171.88c-4.5156 4.8062-13.777 3.3769-17.385-1.5374l0.56968-1.4894c3.1367 4.2372 11.768 6.5376 16.526 1.4276z"/>
  <path d="m135.56 160.24c-18.39 1.1874-42.954 4.4552-74.891 7.8571-16.114 1.7193-24.249 0.41181-36.925-7.8087-15.388-9.9879-34.94-53.329-15.835-83.802 8.7408-13.947 21.538-18.123 32.906-15.388-8.6564-6.2105-14.213-9.7336-21.683-15.036-1.8291-1.2938-2.4469-4.0073-1.3453-6.1985 1.2698-2.5533 3.8985-7.2517 5.3392-9.9759 0.96777-1.8291 0.84765-2.0453-0.35004-2.9651-2.9548-2.2753-6.1745-4.0437-10.339-6.7071-2.289-1.4517-3.2431-4.5763-1.963-6.6344 3.219-5.1697 5.2424-8.3173 7.1553-11.417 1.3933-2.241 3.195-2.8347 5.5931-1.3556 42.192 25.981 81.587 71.829 105.78 123.35l-1.3796 1.8154c-24.976-50.751-63.632-96.454-105.57-123.23-1.1874-0.76187-1.7571-0.64175-2.6871 0.87167-1.8635 3.0269-3.7166 5.9809-6.8403 10.993-0.99178 1.5992-0.5937 2.5189 1.2354 3.7046 4.0193 2.591 7.2637 4.7215 10.254 7.0218 1.4516 1.1153 2.289 2.941 1.0295 5.3148-1.4414 2.7111-3.8378 7.3729-5.1093 9.9272-0.88541 1.7571-0.55596 2.7592 0.8854 3.7894 7.506 5.3632 14.637 10.375 25.714 18.318l-1.2217 1.8291c-13.015-4.8066-26.756-0.20591-35.121 13.305-18.087 29.213 0.87167 70.4 15.363 80.243 11.465 7.7967 19.504 9.4917 34.928 7.724 32.046-3.6682 56.78-6.2833 75.557-7.4092z"/>
  <path d="m38.249 57.99c2.2993-4.0677 4.5643-8.0387 7.0222-12.24 1.4276-2.4469 1.2354-2.7351-0.35004-4.0557-2.3474-1.9596-5.3025-4.2372-8.7892-7.0098-1.7674-1.3933-1.9973-2.8072-0.8099-4.7942 2.7592-4.5883 5.4964-8.7772 8.5472-13.039l1.6576 1.3075c-3.0269 4.2252-5.7383 8.1238-8.4625 12.676-0.76186 1.2698-0.65204 1.5752 0.35004 2.3851 3.2568 2.615 6.2833 5.0725 8.632 7.0338 2.0591 1.7056 2.2993 3.6926 0.71382 6.3924-2.4709 4.2252-4.7942 8.2202-7.1066 12.312z"/>
  <path d="m39.609 166.46c-20.472-18.208-34.806-71.138-4.0917-105.01l2.2272 0.13727c-31.538 34.94-15.375 88.306 4.6003 105.36z"/>
  <path d="m140 154.78c-29.77-34.77-66.042-69.129-94.698-90.267l0.06859-1.3693 1.1634-0.44956c28.886 21.199 64.565 55.376 94.117 90.727z"/>
  <path d="m138.88 157.3c-32.191-15.617-89.093-38.281-119.95-47.712l-0.02402-2.5292c30.823 9.3829 88.221 32.688 120.51 48.983z"/>
  <path d="m133.02 193.09c-8.3533 28.802-17.736 48.245-29.782 60.424-8.7288 8.8139-17.76 9.516-27.918 5.8838-13.874-4.9758-34.504-27.639-37.652-54.371-1.1153-9.5157-0.03429-18.027 9.213-26.259 6.344-5.6536 18.777-10.593 41.647-15.254l16.55-0.96777c-28.741 4.4795-48.003 10.533-56.671 18.257-7.7483 6.9007-9.0798 14.225-7.9178 24.08 2.9651 25.218 21.986 47.083 35.642 52.337 10.327 3.9713 18.208 1.9973 25.497-5.3632 12.119-12.24 21.514-31.09 30.485-61.707z"/>
  <path d="m103.82 251.39c-27.978 4.5643-66.03-40.715-54.334-73.148l2.2272-1.5134c-12.627 32.543 26.513 78.342 53.645 72.797z"/>
  <path d="m62.236 227.36c21.562-20.63 53.39-51.078 73.415-66.042l0.45987 1.4173c-19.516 15.17-51.235 45.618-72.688 66.139z"/>
  <path d="m162.9 123.81c12.712-22.095 31.695-44.673 60.352-70.485 1.7434-1.5855 2.0694-2.6768 1.3075-4.6974-1.4517-3.8622-2.2169-6.029-3.9589-10.218-0.75156-1.8154-0.76186-3.0749 0.71382-4.4311 3.0268-2.7592 5.4356-5.1817 8.1962-7.8571 0.99179-0.96777 1.2114-1.7434 0.36377-3.3906-2.2032-4.2736-3.0612-6.3076-5.3388-10.424-0.49762-0.90942-0.79962-0.94374-1.5134-0.24022-29.238 28.596-53.523 65.618-67.954 105.67l-1.9115-0.83735c14.044-40.654 37.942-77.846 68.947-107.01 1.4997-1.4173 3.0749-1.1634 4.0677 0.61772 2.2753 4.1164 3.7166 6.937 5.9202 11.223 1.1119 2.1552 0.8957 4.2009-0.95746 6.005-2.7592 2.6768-5.2905 4.8426-8.3293 7.6272-0.73784 0.67607-0.82363 1.0295-0.24022 2.4091 1.7434 4.2009 2.6288 6.2833 4.0801 10.145 0.9815 2.6253 0.6795 4.8426-1.8875 7.167-28.729 25.872-48.173 47.857-60.824 69.964z"/>
  <path d="m211.72 65.632c-2.7489-3.741-5.0242-7.3729-7.0702-10.69-1.1256-1.8051-1.1737-3.3906 0.0686-4.879 1.8772-2.241 4.1161-4.5763 6.041-6.4528 1.4036-1.3693 1.4173-1.9493 0.61773-3.3048-1.963-3.2945-4.3824-6.7675-7.0094-10.073l1.3796-1.5855c2.6871 3.3769 5.3632 7.3125 7.3729 10.678 1.1977 2.035 0.96777 3.7774-1.1119 5.799-1.9012 1.8532-4.1041 3.8381-5.9322 6.0413-0.50791 0.5937-1.0055 1.2217 0.0343 2.893 2.011 3.2568 4.1405 6.6831 6.8399 10.363z"/>
  <path d="m154.12 157.9c11.95 0.5937 22.966 1.7674 33.971 3.425 11.84 1.7811 24.964 0.0343 34.843-6.6347 22.397-15.157 25.739-45.63 16.296-65.363-6.949-14.516-18.62-22.228-30.569-20.848l2.5189-2.337c11.961-0.76185 23.608 7.8935 30.509 22.313 9.9999 20.896 6.0046 53.039-17.119 68.693-10.811 7.3245-24.335 8.3173-36.901 6.4164-10.811-1.6232-21.707-3.2431-32.64-3.6803z"/>
  <path d="m146.68 155.22c15.4-11.562 45.4-29.407 84.637-44.504l-0.0686 2.4709c-38.196 14.867-68.245 31.55-84.141 43.39z"/>
  <path d="m212.76 161.09c23.656-35.412 23.293-66.235-0.45987-93.923l2.313 0.13726c23.414 27.409 23.741 58.899 0.61772 92.979z"/>
  <path d="m147.06 194.41c3.3769 19.952 7.1309 36.962 16.054 53.959 3.5715 6.7919 11.441 9.6128 18.971 5.8838 17.094-8.4625 34.298-29.407 40.509-48.354 3.8501-11.756 1.2835-20.835-7.9055-27.482-11.804-8.5229-27.639-13.499-50.896-18.644l12.531 0.83392c18.789 4.4555 29.395 8.1965 39.952 15.824 10.291 7.4333 13.075 17.845 8.9834 30.351-6.4288 19.613-24.855 41.102-42.24 49.649-7.2881 3.5835-17.058 2.289-22.034-7.2034-8.8259-16.804-12.203-34.129-15.315-52.652z"/>
  <path d="m161.18 246.93c19.238 4.6007 62.797-51.175 53.79-69.904l2.313 1.6232c7.0218 20.376-35.133 74.069-55.182 70.073z"/>
  <path d="m152.1 165.11c17.93 18.596 35.267 40.86 46.95 56.95l-1.2595 1.5512c-11.792-16.259-29.226-39.141-47.652-58.451z"/>
 </g>
 <path d="m116.85 45.187c-1.3556 0.78588-1.6232 7.4336 1.8292 12.797 3.0646 4.7458 8.4021 7.6512 10.073 6.8159 1.7674-0.8854 1.8635-7.5304-1.1977-12.615-3.4249-5.6903-8.4385-8.3173-10.702-6.9978" fill="#D5C9A1"/>
 <path d="m127.28 51.766c-3.4146-5.3876-8.2322-7.8695-10.436-6.574-1.3556 0.78588-1.6232 7.4336 1.8394 12.797 0.0343 0.06859 0.0686 0.13727 0.13728 0.20591 0.10301-5.0729 4.0801-7.47 8.4625-6.4288" fill="#0f141b"/>
 <path d="m152 44.625c-1.6335 0.39808-2.6871 6.4288-1.1256 11.792 1.7193 5.8838 4.8426 8.7652 6.5496 8.4625 1.5992-0.27455 3.6079-6.7679 2.3233-11.199-1.7193-5.9322-5.4116-9.6248-7.7483-9.0558" fill="#D5C9A1"/>
 <g fill="#0f141b">
  <path d="m152 44.625c-1.6095 0.38779-2.6631 6.2953-1.1634 11.61 1.5615-3.438 5.3148-4.7942 8.9347-2.4709-0.0129-0.0244-0.0129-0.06858-0.0244-0.06858-1.7193-5.9322-5.4116-9.6248-7.7483-9.0558"/>
  <path d="m141 156.3c-2.5292-0.73784-4.7699 0.9815-5.2784 3.0509-0.61772 2.4812 0.8957 4.9638 3.1607 5.3632 2.0213 0.35004 3.9105-1.0536 4.5279-3.4146 0.59371-2.2993-0.68979-4.4915-2.4091-5.0001"/>
  <path d="m150.84 156.3c-2.5533 0.0686-4.2372 1.987-4.2736 4.1648-0.0343 2.4709 1.7914 4.7455 4.3828 4.7455 2.4709 0 4.2009-1.5992 4.1645-4.2736-0.0343-2.4091-1.9012-4.7095-4.2736-4.6367"/>
 </g>
 <path d="m139.24 175.85c1.1874 0.10301 3.7774 5.2784 3.7774 13.317 0 11.537-3.1847 16.271-4.1041 16.271-0.90943 0-3.0131-5.8718-3.0749-15.896-0.0343-7.4456 2.2169-13.801 3.4009-13.693" fill="#D5C9A1"/>
 <path d="m135.84 189.99c0.10301 9.746 2.1655 15.46 3.0646 15.46 0.91972 0 4.0921-4.7458 4.0921-16.284v-0.13727c-2.1071-3.8254-5.5451-3.6075-7.1553 0.94374" fill="#0f141b"/>
 <path d="m148.18 174.99c0.85796-0.1716 4.9881 4.9394 7.1189 12.506 2.313 8.2446 2.7248 15.872 1.1874 16.284-1.2457 0.30886-5.8838-6.7435-7.9782-14.347-1.963-7.0822-1.5237-14.225-0.34318-14.443" fill="#D5C9A1"/>
 <path d="m148.5 189.44c2.1071 7.6028 6.7435 14.661 7.9783 14.334 1.5512-0.39808 1.1256-8.0266-1.1874-16.271-0.13727-0.52163-0.30886-1.0295-0.47359-1.5272-2.6528-1.8635-5.6295-0.34317-6.4888 2.7832 0.0343 0.24023 0.10301 0.44957 0.17158 0.6795" fill="#0f141b"/>
 <path d="m124.22 137.47c-0.0686-9.8668 7.9058-21.053 21.417-21.634 12.228-0.52164 22.143 10.642 23.075 20.557 0.8099 8.632-12.567 16.078-21.065 16.38-10.92 0.41182-23.354-6.1017-23.427-15.303" fill="#72706D"/>
 <path d="m167.82 141.04c-14.927 0.71382-28.16 0.24023-43.039-0.30885 2.543 7.4336 13.281 12.409 22.87 12.046 6.925-0.24023 17.082-5.2421 20.169-11.743" fill="#C9C8C3"/>
 <path d="m158.46 144.23c-3.0268 0.38779-6.8643 0.34318-9.2494-0.0686-0.8957 2.7111-0.65206 6.0534 1.5272 6.4044 2.7111 0.44956 5.9322-2.7249 7.7239-6.344" fill="#ED8599"/>
 <path d="m149.2 144.09c-0.20591 0.5937-0.38779 1.3556-0.50791 2.2513 2.3233-0.13727 4.5883 0.27454 6.6344 2.3714 1.1153-1.1977 2.4949-2.9651 3.0989-4.5399-2.7111 0.43583-5.8718 0.49761-9.2254-0.0686" fill="#922F00"/>
 <path d="m150.46 141.37c0.0244-8.6564-7.2034-19.867-11.876-20.182-3.8258-0.24023-12.845 7.6999-11.187 19.613 6.2473 0.35005 15.279 0.60401 23.063 0.56969" fill="#0f141b"/>
 <path d="m167.82 141.04c-2.9068 0.20591-4.7095 0.20591-7.506 0.24023-0.79961-5.8958-0.6795-11.138-0.17159-16.138 0.20591-1.963 0.87168-2.639 2.289-1.8875 5.8958 6.925 7.3488 13.257 5.3752 17.773" fill="#0f141b"/>
 <g fill="#fff">
  <path d="m130.8 131.11c0.0686 1.9012 0.20591 3.6199 0.34318 5.5207 1.2972-0.0343 2.5292-0.0686 4.3948-0.17158-0.0244-1.9252-0.0686-3.8378 0.0116-5.3996-1.5374-0.0343-3.1367-0.0116-4.7338 0.0343"/>
  <path d="m140.32 126.4c-1.9012-0.0686-3.6803-0.13728-4.7578-0.0686-0.20591 1.6335-0.30887 3.4867-0.36378 5.0242 1.5855 0.0343 3.5595 0.13727 5.1089 0.20591-0.0343-1.5992-0.024-3.5595 0.0116-5.1333"/>
  <path d="m145.5 136.48c-0.103-1.8635-0.27455-3.6442-0.41181-5.0849-1.3315-0.10301-3.4009-0.17159-5.1817-0.24023 0.0343 1.5374 0.17159 3.5351 0.27455 5.1573 1.5752 0 3.7894 0.10301 5.3025 0.17158"/>
  <path d="m162.02 131.86c0.37406 1.5134 0.87168 3.5471 1.2595 4.9758 1.2114-0.30886 2.543-0.64174 3.5595-0.99178-0.3981-1.5477-1.0913-3.4867-1.6713-4.8183-0.98149 0.30887-2.2993 0.64175-3.147 0.83393"/>
  <path d="m167.26 130.73c-0.79961 0.27454-1.6576 0.54565-2.3611 0.76185-0.6795-1.5615-1.5615-3.1229-2.3851-4.2616 0.54566-0.30886 1.4517-0.68978 2.3233-0.96776 0.94374 1.4276 1.5752 2.567 2.4194 4.4672"/>
 </g>
 <g fill="#B8AE8C">
  <path d="m120.87 53.238c1.3315 4.0193 5.2788 9.0558 8.1601 11.465-1.8051 0.78588-6.0413-0.86138-10.206-6.5012 0.10301-1.987 0.56967-3.5231 2.0454-4.9638"/>
  <path d="m153.96 52.988c0.20591 4.1285 1.4414 8.7895 3.3769 11.889-2.7008 0.13726-5.2785-4.2373-6.6103-8.7652 0.8957-1.4414 1.9012-2.5189 3.2328-3.1229"/>
  <path d="m139.22 175.92c-0.20591 3.0268-0.42211 7.4336-0.30887 10.557-1.3178 0.60399-2.3851 1.4654-3.0268 3.4503-0.10301-5.4356 1.3556-13.257 3.3426-14.007"/>
  <path d="m148.18 175.07c0.45987 3.1229 1.3933 7.1793 2.591 10.557-1.1977 0.60399-1.8394 1.5615-2.4091 3.0646-1.2114-4.6974-1.9252-12.519-0.17159-13.62"/>
 </g>
 <path d="m155.26 148.85c4.0197-1.1256 7.9422-3.195 11.453-6.4164-4.9878 6.3921-13.269 10.69-22.095 10.206-11.041-0.60399-18.511-7.4093-19.818-12.482 5.3632 6.1985 14.976 10.375 24.734 9.6852 1.0913 1.0879 2.6871 1.2938 5.7263-0.99179" fill="#9F9F9A"/>
 <g fill="#0f141b">
  <path d="m145.66 116.68c-12.76 0.54567-20.642 11.295-20.569 20.763 0.0686 7.9299 11.356 15.134 22.579 14.722 8.3897-0.30885 20.884-7.8571 20.145-15.702-0.94375-9.9879-11.283-20.242-22.155-19.782m-22.409 20.775c-0.10301-11.526 9.7096-21.913 22.373-22.446 12.784-0.54565 22.99 10.981 23.971 21.332 0.85794 9.1406-12.409 16.647-21.901 17.094-11.646 0.54565-24.371-6.3801-24.443-15.981"/>
  <path d="m167.54 141.69c-14.746 0.66577-27.397 0.42554-42.506-0.30887l-0.47359-1.2698c15.291 0.53192 28.439 0.98149 43.548 0.24023z"/>
  <path d="m126.78 140.84c-1.8154-12.07 7.5668-20.618 11.865-20.303 4.9274 0.34317 12.445 11.61 12.421 20.86l-1.2458 0.0116c-0.0686-8.1718-6.7799-19.262-11.259-19.564-3.3048-0.17159-12.083 7.2881-10.557 18.959z"/>
  <path d="m144.98 135.96c-0.0686-1.4036-0.24023-2.9788-0.34318-4.1161-1.1016-0.0686-2.8106-0.10301-4.2252-0.17158 0.0343 1.1634 0.17159 2.8209 0.24023 4.1528 1.1634 0.0116 3.219 0.0686 4.334 0.13728m1.0776 0.36376c0.0244 0.53194-0.20591 0.76187-0.75156 0.73784-1.2458-0.0686-3.6078-0.17158-4.867-0.17158-0.62803 0-0.79962-0.24023-0.83394-0.77559-0.0686-1.4173-0.13727-2.8587-0.17159-4.1405-1.1119-0.0343-2.313-0.10301-3.438-0.13728-0.0244 1.2355 0.0343 2.6391 0.0686 4.4068 0 0.5937-0.20591 0.76186-0.71381 0.78589-1.6713 0.0686-2.8209 0.13727-4.1044 0.13727-0.53193 0.0116-0.66576-0.17159-0.70352-0.7756-0.0686-1.4414-0.17158-3.8014-0.24022-5.0969-0.0244-0.55595 0.17159-0.67607 0.73784-0.70352 1.1496-0.0686 2.3851-0.0686 3.6926-0.0343 0.0343-1.6713 0.10301-2.6253 0.20592-4.1768 0.0343-0.53192 0.24023-0.66577 0.76185-0.68979 1.1634-0.0343 2.7969 0.0244 4.3828 0.0686 0.61772 0.0244 0.7996 0.27454 0.78587 0.77558-0.0343 1.5134-0.103 2.4709-0.103 4.1525 1.5134 0.0686 2.9308 0.13727 4.0677 0.17159 0.49762 0.0244 0.6898 0.24023 0.73784 0.73784 0.13727 1.3933 0.35004 2.941 0.44957 4.7095m-10.315-5.472c1.2595 0.0343 2.8347 0.103 4.0681 0.17159-0.0343-1.6232-0.0116-2.941 0.0116-4.1528-1.2354-0.0343-2.869-0.0686-3.8258-0.0686-0.13728 1.3315-0.20591 2.4572-0.24023 4.0557m-4.346 0.76186c0.0343 1.1497 0.13726 3.2945 0.2059 4.5039 0.99179-0.0128 2.0694-0.0343 3.4383-0.13726-0.0116-1.6713-0.0343-3.2568 0-4.4432-1.2114-0.0343-2.4572 0.0116-3.6319 0.0686"/>
  <path d="m162.96 124.31c-1.4997-1.1256-1.9973-0.61774-2.1552 0.91971-0.55596 5.424-0.52164 10.605 0.10301 16.053l-1.2595-0.0343c-0.68979-5.2424-0.77558-10.726-0.20591-16.15 0.20591-1.9973 1.0158-2.7832 2.1792-2.6631z"/>
  <path d="m167.34 135.53c0.13727 0.44957 0.0244 0.76185-0.45986 0.91972-1.2217 0.37407-1.9733 0.56968-3.3048 0.88541-0.61772 0.13727-0.78587-0.0343-0.91971-0.57998-0.24023-0.95747-0.80991-3.5471-1.0673-4.5763-0.13727-0.54567-0.0686-0.73784 0.49761-0.86139 0.52164-0.13726 1.1977-0.27454 1.9493-0.48388-0.62802-1.2217-1.2595-2.241-1.9115-3.147-0.34319-0.44957-0.24023-0.73783 0.2059-0.99179 0.47359-0.27454 1.3212-0.61773 2.1655-0.90943l0.61773 0.90943c-0.62803 0.20591-1.4414 0.48389-1.8772 0.71381 0.64175 0.96777 1.3796 2.2513 1.9355 3.4867 0.54566-0.17158 1.3178-0.43583 1.9012-0.61773l0.37406 0.8957c-0.45986 0.1716-0.9918 0.34319-1.4894 0.49762 0.52163 1.2354 1.0398 2.639 1.3693 3.8621m-4.7335-3.3186c0.20591 0.86138 0.79961 3.2087 1.0158 4.0193 0.79962-0.20591 1.9115-0.47358 2.6253-0.70351-0.34319-1.1737-0.8957-2.8072-1.3693-3.9226-0.72755 0.20591-1.7296 0.47359-2.2753 0.60401"/>
  <path d="m149.62 144.8c-0.76185 2.7111-0.0686 5.0849 1.1977 5.2905 2.1689 0.35004 4.7942-1.7674 6.7795-5.2784-2.1792 0.34317-5.7867 0.27454-7.9782-0.0116m1.0398 6.2592c-2.567-0.42211-3.1229-3.3906-2.1071-6.9614 0.13728-0.50791 0.37408-0.54566 0.87168-0.47359 2.3611 0.38779 5.9202 0.42555 8.7532 0.13727 0.75156-0.0686 1.0158 0.13728 0.61772 0.91973-2.3851 4.6851-5.7023 6.7919-8.1358 6.3924"/>
  <path d="m117.22 45.741c-0.96778 0.68979-1.3075 6.5012 2.0453 11.695 2.917 4.5279 8.0026 7.3609 9.2134 6.7678 1.2938-0.65548 1.4173-6.5983-1.6232-11.647-3.4991-5.7991-8.1117-7.9055-9.6372-6.8159m0.82363 12.676c-3.4744-5.3876-3.4146-12.76-1.5512-13.85 2.5052-1.4654 7.9419 1.0295 11.683 7.2397 3.3769 5.5935 2.9788 12.579 0.88541 13.62-1.8875 0.95747-7.5544-1.6335-11.017-7.0098"/>
  <path d="m118.2 57.347c0.41182-4.7095 4.0073-7.2517 8.6807-6.3197l0.8099 1.4414c-4.7458-1.3796-8.4141 1.6232-8.1841 6.5136z"/>
  <path d="m152.2 45.229c-1.1874 0.34319-2.1312 5.787-0.62802 10.92 1.8051 6.1865 4.6611 8.3657 5.6779 8.063 1.4173-0.41182 2.9651-6.1261 1.7571-10.291-1.8394-6.3801-5.3756-9.0919-6.8042-8.6924m-2.1414 11.405c-1.4997-5.1697-0.53194-12.095 1.7914-12.664 2.615-0.62802 6.7799 3.3289 8.5716 9.5281 1.2217 4.2372-0.38779 11.586-2.869 12.022-1.7811 0.30887-5.5931-2.3611-7.494-8.8863"/>
  <path d="m159.94 54.622c-3.7286-2.6871-7.4576-1.1153-8.9103 2.6253l-0.45986-1.8394c1.8051-3.6682 5.5935-4.4552 8.9591-2.4709z"/>
  <path d="m129.12 64.527c8.608 14.843 16.949 40.896 20.339 55.134 0.38779 1.6473-0.73783 1.8532-1.1874 0.27453-3.9953-14.153-12.046-40.134-20.424-54.952z"/>
  <path d="m157.72 64.863c3.6686 20.533 3.147 40.775-1.4173 54.686-0.53194 1.6576-1.6816 1.3796-1.1874-0.35004 4.0921-14.286 4.6487-34.008 1.2595-54.504z"/>
  <path d="m136.44 159.55c-0.49762 1.9973 0.71381 4.2616 2.5292 4.5763 1.5752 0.27454 3.171-0.8957 3.7046-3.0028 0.56969-2.2032-0.56967-3.8618-1.8394-4.2252-2.1552-0.62802-3.8982 0.65204-4.3948 2.6528m2.3474 5.7507c-2.8827-0.41181-4.5156-3.4383-3.8498-6.1501 0.55594-2.2272 3.1126-4.3464 6.2349-3.4383 2.313 0.6795 3.6683 3.1607 2.9891 5.787-0.8099 3.1367-3.2328 4.1161-5.3756 3.8014"/>
  <path d="m150.86 156.95c-2.0591 0.0244-3.4744 1.6953-3.5107 3.5231-0.0343 2.1929 1.5855 4.1405 3.5835 4.1405 2.0934 0 3.4146-1.5615 3.3906-3.6926-0.0343-2.4812-1.7571-3.9953-3.4627-3.9709m-0.024-1.2595c2.9891-0.0343 5.0122 2.6047 5.0485 5.2664 0.0343 2.9788-1.9355 4.879-4.9518 4.879-3.2328 0-5.2664-2.6768-5.2181-5.3632 0.0343-1.9355 1.5512-4.7215 5.1213-4.7822"/>
  <path d="m139.24 176.65c-0.49761-0.0244-2.7008 5.3028-2.6631 12.918 0.0343 9.4193 1.8051 15.109 2.3474 15.134 0.70352 0.0116 3.2945-4.8913 3.2945-15.521 0-8.1238-2.3954-12.494-2.9788-12.531m-0.35004 29.48c-2.0831 0-3.8498-8.7772-3.8862-16.586-0.0343-7.8331 2.519-14.443 4.1648-14.443 1.8532 0.17158 4.6367 5.7507 4.6367 14.08 0 11.126-3.1366 16.949-4.9154 16.949"/>
  <path d="m143 190.26c-2.0694-4.6127-5.7991-4.0921-7.155 1.7914l-0.0343-3.4249c1.4276-3.4867 5.0485-4.2012 7.2157-0.65205z"/>
  <path d="m148.36 175.78c-0.4976 0.17158-1.0536 6.356 0.90943 13.475 1.987 7.155 6.332 14.008 7.0582 13.85 0.62802-0.13727 0.84765-5.9442-1.8154-15.4-2.2032-7.8695-5.7387-12.083-6.1505-11.925m-0.604 13.862c-1.8772-6.7555-1.6953-15.012 0.27455-15.376 1.4654-0.27453 5.787 5.0969 8.0146 13.027 2.845 10.133 2.3851 16.841 0.604 17.204-1.6816 0.34317-6.4044-5.8111-8.8983-14.855"/>
  <path d="m148.06 187.78c0.93344-3.0028 3.7774-4.2616 6.5376-2.6253l0.65204 1.9252c-2.6494-2.4812-5.9926-0.86138-6.5616 2.9308z"/>
  <path d="m154.92 148.95c-1.5512-1.6953-4.2372-2.4949-6.2349-2.0454l0.0686-0.7996c2.2169-0.49761 5.2905 0.34317 6.7555 2.2753z"/>
 </g>
</svg>
