<?xml version="1.0" encoding="UTF-8"?>
<!-- Created with Inkscape (http://www.inkscape.org/) -->
<svg version="1.1" viewBox="0 0 272.49 262.64" xmlns="http://www.w3.org/2000/svg">
 <path d="m191.58 69.833c6.4596-6.2696 13.806-14.682 13.806-17.185 0-6.9478-56.772-51.386-69.141-51.386-12.381 0-69.141 44.438-69.141 51.386 0 2.5033 7.3392 10.916 13.803 17.185z" fill="#fff"/>
 <path d="m136.25 170.47c75.093 0 92.259-10.583 93.146-36.072 1.3369-38.289-67.812-106.43-93.135-106.43s-94.495 68.137-93.162 106.43c0.88345 25.489 18.053 36.072 93.15 36.072" fill="#fff"/>
 <path d="m211.35 147.16c-3.871 1.55-8.366 2.9218-13.628 4.0726-14.182 3.1001-33.852 4.6151-61.623 3.8207v15.418h0.15158c74.984 0 92.209-10.551 93.142-35.964-3.8866 4.8515-9.4123 9.1954-18.042 12.652" fill="#dcdddd"/>
 <path d="m61.145 147.16c3.875 1.55 8.3738 2.9218 13.636 4.0726 14.171 3.1001 33.844 4.6151 61.624 3.8207v15.418h-0.15488c-74.992 0-92.212-10.551-93.146-35.964 3.8866 4.8515 9.4123 9.1954 18.042 12.652" fill="#dcdddd"/>
 <path d="m193.66 146.09-1.705-0.1099c-16.174-15.155-38.331-20.223-55.695-20.223-17.348 0-39.559 5.0684-55.726 20.223l-1.7089 0.1099c-19.297 38.319-12.431 66.545 24.052 83.645 10.92 8.5017 19.177 12.462 23.447 25.815 1.3447-3.4487 2.4994-7.2579 3.2627-11.106 2.7125 5.1032 5.08 10.776 6.6417 17.437h0.022c1.5616-6.6611 3.9292-12.334 6.6417-17.437 0.7634 3.8478 1.9182 7.6569 3.2589 11.106 4.274-13.353 12.528-17.313 23.444-25.815 36.494-17.1 43.365-45.325 24.06-83.645" fill="#3497ce"/>
 <path d="m168.16 127.44c10.427-0.0549 18.716 9.0053 19.251 18.72 0.63928 11.489-8.273 19.712-18.329 20.037-12.001 0.37566-19.964-8.5056-19.964-19.111 0-10.571 6.8005-19.592 19.042-19.646" fill="#fff"/>
 <path d="m104.34 127.44c-10.424-0.0549-18.716 9.0053-19.255 18.72-0.63554 11.489 8.2808 19.712 18.336 20.037 11.993 0.37566 19.96-8.5056 19.96-19.111 0-10.571-6.8005-19.592-19.042-19.646" fill="#fff"/>
 <path d="m167.57 130.6c7.0408 0 13.562 6.2155 13.582 13.88 0.022 8.0212-6.0062 13.713-12.919 13.752-8.5598 0.044-13.617-6.0488-13.799-13.268-0.17464-7.0873 4.9599-14.365 13.136-14.365" fill="#515457"/>
 <path d="m104.93 130.6c-7.0408 0-13.562 6.2155-13.582 13.88-0.033 8.0212 6.0024 13.713 12.911 13.752 8.5675 0.044 13.628-6.0488 13.803-13.268 0.17795-7.0873-4.9599-14.365-13.132-14.365" fill="#515457"/>
 <path d="m165.14 135.41c2.2786-0.17473 4.4368 1.5423 4.5725 3.9447 0.12741 2.2553-1.5423 4.433-3.8672 4.6229-2.5343 0.21314-4.4949-1.6275-4.557-4.0106-0.0549-2.3095 1.4183-4.3671 3.8517-4.557" fill="#fff"/>
 <path d="m107.35 135.41c-2.2784-0.17473-4.4368 1.5423-4.5763 3.9447-0.12413 2.2553 1.5422 4.433 3.871 4.6229 2.5304 0.21314 4.4911-1.6275 4.557-4.0106 0.0549-2.3095-1.4221-4.3671-3.8517-4.557" fill="#fff"/>
 <path d="m136.23 133.08c3.7355 0 7.3973 4.8553 7.3973 12.849 0 8.8542-4.03 12.516-7.3546 12.516-3.9447 0-7.591-4.681-7.591-12.361 0-8.0483 3.2394-13.004 7.5484-13.004" fill="#e3adc1"/>
 <path d="m204.01 187.58c-3.2007 10.962-8.2537 16.751-16.507 22.242 2.0227-5.0414 2.6155-8.0173 2.5265-10.536-6.2969 18.17-27.598 27.4-35.088 26.268 2.5226-3.8594 4.7508-8.0172 6.3783-11.276-17.437 21.816-32.352 22.037-50.107 0 1.5809 3.1077 3.6579 7.2734 6.0837 11.276-6.8975 0.86446-26.551-6.0682-34.859-26.195 0.52702 4.3787 0.96869 6.4556 2.8985 10.462-9.1255-3.5612-14.961-14.988-16.794-21.564 1.6856 17.526 12.892 31.43 34.34 41.478 10.92 8.5017 19.177 12.462 23.447 25.815 1.3447-3.4487 2.4994-7.2579 3.2627-11.106 2.7125 5.1032 5.08 10.776 6.6417 17.437h0.022c1.5616-6.6611 3.9292-12.334 6.6417-17.437 0.7634 3.8478 1.9182 7.6569 3.2589 11.106 4.274-13.353 12.528-17.313 23.444-25.815 21.731-10.183 32.949-24.308 34.406-42.156" fill="#2980af"/>
 <path d="m143.38 149.49c-0.91498 6.2891-4.274 8.9629-7.1106 8.9629-3.3325 0-6.4634-3.3558-7.343-9.0441 3.4254 6.5991 11.078 6.6455 14.454 0.0768" fill="#c596a8"/>
 <g fill="#0d131a">
  <path d="m202.91 176.48c1.0457 8.308 0.0769 15.884-2.4529 22.653-4.3476 11.652-13.884 21.316-28.888 28.822-2.3444 1.1742-3.1232 2.3172-4.3361 3.4448 16.631-7.2694 29.473-14.729 35.781-31.612 2.4915-6.6688 2.7745-13.57 1.674-22.258-0.58546-0.30647-1.271-0.64367-1.7787-1.0501"/>
  <path d="m186.88 178.34c-1.8678-3.3558-3.6502-3.6231-2.0421-0.74032 7.219 12.896 6.4286 31.817-8.7496 45.705-12.908 11.807-23.622 12.95-29.946 29.76-1.1702-3.2859-2.0577-6.3239-2.6388-9.4742-0.33721 0.70957-1.3447 1.6779-1.7592 2.3057 1.0303 3.561 1.8095 5.5605 2.8055 7.7963 1.4996 3.3907 2.2203 3.2008 3.4294 0.0659 5.669-14.717 18.305-18.724 29.636-29.089 14.973-13.702 17.395-31.701 9.265-46.333"/>
  <path d="m69.58 176.48c-1.0501 8.308-0.0813 15.884 2.4528 22.653 4.3516 11.652 13.888 21.316 28.888 28.822 2.3482 1.1742 3.1271 2.3172 4.3361 3.4448-16.627-7.2694-29.473-14.729-35.778-31.612-2.4955-6.6688-2.7745-13.57-1.6701-22.258 0.57732-0.30647 1.2632-0.64367 1.7709-1.0501"/>
  <path d="m85.618 178.34c1.8717-3.3558 3.6619-3.6231 2.0421-0.74032-7.2113 12.896-6.4286 31.817 8.7574 45.705 12.904 11.807 23.61 12.95 29.942 29.76 1.1664-3.2859 2.0499-6.3239 2.635-9.4742 0.33282 0.70957 1.3446 1.6779 1.7669 2.3057-1.038 3.561-1.8173 5.5605-2.8093 7.7963-1.4996 3.3907-2.2203 3.2008-3.4332 0.0659-5.6613-14.717-18.301-18.724-29.628-29.089-14.95-13.671-17.426-31.655-9.2728-46.333"/>
  <path d="m134.13 258.63c-3.2821-11.299-8.3002-19.243-13.911-27.109-12.295-17.216-17.573-30.663-10.013-52.11 1.3602-3.8555 3.4526-5.0994 2.3134-1.7902-8.8387 25.722-0.21309 38.234 9.4627 52.676 5.5257 8.2653 10.978 16.79 14.268 28.578 3.2822-11.788 8.742-20.313 14.268-28.578 9.6409-14.388 18.255-26.869 9.548-52.42-1.2245-3.5959 0.66234-2.8326 2.1544 1.3214 7.9088 21.963 2.5769 34.204-9.8114 52.203-5.4909 7.9669-10.9 15.953-14.175 27.26-1.5268 5.235-2.5265 5.3862-4.1037-0.0328"/>
  <path d="m168.23 128.06c-12.098 0-18.236 9.6602-18.236 19.022 8e-3 10.466 7.626 18.36 18.344 18.36 10.245 0 18.77-8.7302 18.189-19.239-0.57777-10.319-9.1798-18.142-18.298-18.142m-20.123 19.022c0-11.962 8.3892-20.231 20.041-20.282 10.304 0 19.557 8.7769 20.142 19.313 0.68212 12.241-8.1141 20.719-19.952 20.719-11.915 0-20.231-8.4202-20.231-19.751"/>
  <path d="m155.19 144.94c0.18563 7.7462 5.6574 12.532 12.783 12.532 7.1454 0 12.315-6.0953 12.295-12.993-0.022-6.9942-6.1651-13.248-12.702-13.248-7.3275 0-12.539 7.219-12.377 13.71m-1.767 0.044c-0.2131-8.6257 6.7966-15.016 14.144-15.016 7.6182 0 14.574 6.7076 14.597 14.504 0.022 8.8505-6.4091 14.512-14.031 14.512-8.3506 0-14.492-5.3552-14.709-14"/>
  <path d="m85.966 146.2c-0.57733 10.509 7.9475 19.243 18.185 19.243 10.722 0 18.344-7.8933 18.348-18.363 0-9.3619-6.1301-19.022-18.239-19.022-9.11 0-17.72 7.8236-18.294 18.143m18.185 20.63c-11.838 0-20.626-8.4746-19.948-20.72 0.58512-10.532 9.8385-19.313 20.142-19.313 11.656 0.0549 20.045 8.3235 20.045 20.282-8e-3 11.33-8.3234 19.751-20.239 19.751"/>
  <path d="m104.93 131.23c-6.5331 0-12.683 6.2542-12.698 13.249-0.022 6.8974 5.1536 12.993 12.288 12.993 7.126 0 12.597-4.7856 12.787-12.532 0.15928-6.4905-5.0491-13.71-12.377-13.71m-0.56568 27.756c-7.6221 0-14.055-5.6613-14.027-14.512 0.022-7.7964 6.9749-14.504 14.593-14.504 7.3547 0 14.357 6.3898 14.144 15.015-0.21309 8.6451-6.3627 14-14.709 14"/>
  <path d="m129.56 146.09c0 7.5368 3.3944 11.73 6.7036 11.73 2.6583 0 6.475-3.2511 6.475-11.881 0-7.5639-3.2666-12.222-6.5138-12.222-3.2471 0-6.6648 5.1653-6.6648 12.373m6.7036 12.989c-4.1811 0-8.4745-4.4716-8.4745-12.989 0-7.8158 3.5687-13.504 8.4357-13.504 3.9486 0 8.2808 4.5182 8.2808 13.353 0 9.1217-4.0571 13.14-8.2421 13.14"/>
  <path d="m132.35 142.88c-0.38335-2.356 0.58106-3.069 1.038-0.74034 0.70518 3.5767 5.0374 3.8052 5.7504-0.33281 0.39104-2.2862 1.3524-1.2206 0.96441 1.1121-0.7634 4.6577-6.9827 4.6577-7.7538-0.044"/>
 </g>
 <path d="m136.25 42.81c-18.852 0-82.312 60.941-78.952 93.48 0.45727 4.4058 2.4645 12.14 11.575 19.134l11.668-9.4471c16.166-15.151 38.378-20.223 55.73-20.223 17.36 0 39.517 5.0724 55.691 20.223l10.955 9.9858c9.7145-7.1337 11.819-15.155 12.284-19.673 3.3596-32.538-60.097-93.48-78.948-93.48" fill="#e3adc1"/>
 <g fill="#fff798">
  <path d="m149.41 98.24c-1.2866-9.1487 3.4603-15.643 9.5362-15.934 6.7735-0.32512 12.601 5.1576 14.151 12.71 1.8754 9.114-3.0496 16.085-9.2651 16.763-7.3663 0.79415-13.326-5.7272-14.422-13.539"/>
  <path d="m194.64 119.3c-1.5267-5.7892-1.705-12.466 0.67772-13.326 1.6119-0.58875 5.022 1.3602 8.0405 10.025 2.5343 7.2733 1.5306 12.652-0.24055 13.624-2.9566 1.6314-6.9362-4.4368-8.4784-10.323"/>
  <path d="m77.856 119.3c1.5306-5.7892 1.705-12.466-0.68201-13.326-1.6081-0.58875-5.0181 1.3602-8.0405 10.025-2.5381 7.2733-1.5267 12.652 0.24022 13.624 2.9605 1.6314 6.9362-4.4368 8.4823-10.323"/>
  <path d="m123.1 98.24c1.2788-9.1487-3.472-15.643-9.5402-15.934-6.7734-0.32512-12.609 5.1576-14.155 12.71-1.8716 9.114 3.0535 16.085 9.2612 16.763 7.3741 0.79415 13.334-5.7272 14.434-13.539"/>
 </g>
 <path d="m202.91 155.96c3.937-2.8868 6.6233-5.9217 8.4601-8.8085-3.871 1.55-8.3904 2.9224-13.652 4.0734z" fill="#c596a8"/>
 <path d="m69.58 155.96c-3.9331-2.8868-6.6146-5.9171-8.4475-8.8039 3.875 1.55 8.3855 2.9178 13.648 4.0688z" fill="#c596a8"/>
 <g fill="#0d131a">
  <path d="m191.86 146.87c-19.293-18.061-45.43-20.103-55.598-20.103-10.172 0-36.262 1.9298-55.555 20.003-0.30228 0.27899-0.99198-1.0534-0.69365-1.3407 19.685-18.437 45.899-20.932 56.249-20.932 10.346 0 36.521 2.4954 56.206 20.932 0.30976 0.28669-0.46133 1.581-0.60852 1.4415"/>
  <path d="m62.054 163.4c-13.307-5.4637-20.216-14.485-20.719-28.973-0.74791-21.409 20.088-50.886 39.827-71.334 20.735-21.459 43.473-36.006 55.098-36.006 11.617 0 34.352 14.535 55.067 35.983 19.751 20.448 40.582 49.933 39.838 71.357-0.50418 14.465-7.3895 23.474-20.646 28.946-0.38334 0.15475-0.9688-1.7477-0.58106-1.9027 12.625-5.2157 17.968-13.31 18.449-27.101 0.72825-20.94-19.882-50.018-39.412-70.245-20.448-21.169-41.481-34.642-52.715-34.642-11.237 0-32.29 13.481-52.746 34.665-19.53 20.223-40.137 49.289-39.401 70.222 0.48045 13.81 5.8396 21.924 18.518 27.132 0.38752 0.15919-0.48044 1.9452-0.57733 1.8987"/>
  <path d="m176.42 23.498c-14.76-11.237-33.441-23.498-40.172-23.498-6.7346 0-25.164 11.869-39.928 23.102-11.23 8.5443-30.98 24.893-30.98 29.547 0 2.7861 7.5368 10.904 12.532 15.984 0.37203-0.32953 0.93002-1.004 1.4957-1.3988-6.5061-6.5719-11.001-12.861-11.001-14.585 0-2.5265 11.086-13.578 29.632-27.694 18.301-13.93 33.007-22.936 38.25-22.936 5.2352 0 19.944 9.0055 38.25 22.936 18.546 14.116 29.628 25.168 29.628 27.694 0 1.7051-4.3902 7.8778-10.796 14.372 0.29877 0.38334 0.86775 1.2826 1.24 1.67 4.9871-5.0839 12.59-13.245 12.59-16.042 0-4.6538-19.514-20.603-30.74-29.151"/>
  <path d="m135.37 27.971-0.12742-26.71c0-0.4141 2.0189-0.4141 2.0189 0l-0.1241 26.71c0 0.4141-1.767 0.4141-1.767 0"/>
 </g>
 <path d="m257.56 207.43c-7.6917-7.5717-40.889-20.262-52.467-57.547-3.9874-5.2971-8.8387-7.8352-13.287-7.6919 1.7399 27.803 32.484 77.344 41.326 88.458 7.7926 7.0525 32.329 14.105 38.06 13.818-2.1429-12.121-11.365-34.809-13.632-37.037" fill="#fff"/>
 <path d="m67.397 149.88c-11.575 37.285-44.771 49.971-52.467 57.547-2.263 2.2281-11.489 24.912-13.632 37.033 5.7311 0.2867 30.267-6.7657 38.064-13.814 8.8388-11.113 39.587-60.659 41.326-88.458-4.4446-0.1472-9.3038 2.3948-13.291 7.6919" fill="#fff"/>
 <path d="m271.19 244.46c-20.22-8.3739-27.756-12.95-33.58-18.763-12.543-12.539-29.756-40.544-43.771-71.718 7.3237 28.225 31.6 66.994 39.296 76.666 7.7888 7.0486 32.325 14.101 38.056 13.814" fill="#dcdddd"/>
 <path d="m1.2991 244.46c13.903-5.9248 27.396-12.578 33.58-18.763 12.543-12.539 29.767-40.544 43.772-71.718-7.3237 28.225-31.596 66.994-39.292 76.666-7.7964 7.0486-32.333 14.101-38.06 13.814" fill="#dcdddd"/>
 <path d="m271.7 240.69c-2.9876-12.353-10.617-32.627-12.977-34.944-1.802-1.7786-5.3901-3.7664-9.2883-6.2891-12.942-8.3699-33.968-20.991-42.977-48.956-1.9685-6.1108-4.0106-6.7696-2.3095-1.1121 8.866 29.543 30.98 43.837 44.337 52.482 3.8246 2.4684 6.8471 4.4252 8.552 6.0915 1.8909 1.8677 10.753 22.994 13.248 35.731-6.7036-0.36798-29.12-6.8586-36.599-13.57-9.3231-11.749-38.374-59.209-41.016-86.547-0.57777-6.041-2.2514-6.8509-1.8678-1.2167 1.8754 27.532 33.453 82.06 41.764 90.376 5.669 5.2234 24.691 11.559 34.925 12.88 6.0992 0.79085 5.3746-0.13499 4.2082-4.9251" fill="#0d131a"/>
 <path d="m0.78811 240.69c2.9954-12.353 10.625-32.371 12.981-34.693 1.8057-1.7709 5.3939-3.7665 9.2883-6.2851 12.946-8.3739 33.972-21.247 42.981-49.212 1.9685-6.1108 4.0067-6.7696 2.3095-1.1121-8.8659 29.543-30.984 43.837-44.345 52.482-3.8246 2.4684-6.8432 4.4252-8.5443 6.0915-1.891 1.8677-10.753 22.994-13.248 35.731 6.6959-0.36798 29.116-6.8586 36.595-13.57 9.327-11.749 38.374-59.209 41.016-86.547 0.58128-6.041 2.2514-6.8509 1.8639-1.2167-1.8716 27.532-33.449 82.06-41.757 90.376-5.6768 5.2234-24.687 11.559-34.929 12.88-6.0992 0.79085-5.3746-0.13499-4.2121-4.9251" fill="#0d131a"/>
</svg>
