<?xml version="1.0" encoding="UTF-8"?>
<!-- Created with Inkscape (http://www.inkscape.org/) -->
<svg version="1.1" viewBox="0 0 467.18 324.07" xmlns="http://www.w3.org/2000/svg">
 <g fill="#57c3ea">
  <path d="m181.01 291.09c0.87335 12.85 2.3574 23.721 3.9053 31.261 11.097-17.735 26.101-39.753 35.544-45.89 6.6602-4.3313 32.138-10.621 49.998-12.199 17.234-1.4769 19.363-2.755 30.009-11.373 49.296-39.927 51.5-72.04 32.062-108.74-1.3278-2.5065-3.7845-5.5597-6.5111-7.0863-19.413-11.021-61.921-18.737-95.036-6.4614-41.957 5.6094-73.643 61.971-71.314 103.23 1.0296 18.336 1.7538 37.398-29.407 68.709 6.9869-0.56804 17.735-4.5869 25.926-10.019-1.7751 6.6602-3.4295 13.301-3.7562 17.96 9.6439-4.9845 19.062-10.972 28.581-19.388"/>
  <path d="m354.24 172.81c1.2284 8.9927 0.93016 25.925-3.3798 41.255 3.4792 6.5395 8.5916 16.633 10.32 21.943l3.6851-0.28402c8.767-30.234 3.0532-56.259-10.621-62.897"/>
  <path d="m372.2 181.08c5.8082 11.648 9.193 30.535 2.3574 50.448 16.457-0.72426 21.667 0.80235 17.86 0.42602 6.6389-14.203 3.5857-35.845-10.921-50.123-3.1526-0.49704-6.0354-0.72425-9.2931-0.72425"/>
  <path d="m402.94 205.89c1.129 7.1388 0.071 16.232-2.755 22.669 4.0828 0.28402 8.6675 0.49703 13.877-0.21302 0.42603-7.665-2.6556-18.887-11.121-22.469"/>
  <path d="m379.58 249.5c-0.42604 2.9822 0.35502 4.3313 3.181 6.362 7.54 5.4603 13.977 11.723 19.789 18.385 2.5065 2.8544 3.9053 2.4781 4.1325-1.626 0.75265-13-11.147-36.571-15.054-37.148-3.9337-0.56802-11.022 6.8662-12.049 14.028"/>
 </g>
 <path d="m416.57 211.09c3.5076-9.2682 6.9869-15.004 12.875-23.797 2.329-3.5076 1.7751-5.4603-2.8828-6.362-6.4614-1.2284-18.386 0.21302-21.943 2.9538-1.4769 1.1503-2.8828 8.0413-3.0035 14.629 5.7869 2.5562 10.195 5.162 14.954 12.574" fill="#595757"/>
 <path d="m416.42 211.51c13.802-13.376 28.856-28.13 32.965-28.456 8.1158-0.63904 19.313 24.598 15.404 28.581-4.2816 4.3597-32.513 8.7172-46.09 10.12-0.28401-2.6556-0.92305-7.0366-2.2792-10.245" fill="#595757"/>
 <path d="m364.98 248.45c7.6145 7.89 11.974 24.798 11.423 35.544-0.21302 3.884-2.329 6.2839-7.0153-0.14195 0-8.5667-1.5266-25.675-4.4094-35.419" fill="#57C3EA"/>
 <path d="m385.01 238.56c-6.0851 0.71005-12.925 4.8851-17.509 10.095-1.0793 1.2-0.35502 2.7266 1.9526 2.4568 3.181-0.35503 6.9372-0.42603 10.044 0.14209 0.42602-4.4307 1.8532-9.1433 5.51-12.7" fill="#fff"/>
 <g fill="#595757">
  <path d="m329.44 138.77c9.2682 15.13 19.513 42.258 10.595 65.528 4.1822 3.0532 7.5151 5.8579 10.496 9.8938 11.798-40.253-0.28402-65.177-21.091-75.422"/>
  <path d="m352.88 166.33 0.95147 5.7869c14.704 8.4162 18.11 33.942 11.021 63.599 6.1348-1.1503 9.1426-1.981 10.345-5.8579 7.6153-25.023-0.35502-61.42-22.318-63.524"/>
  <path d="m381.67 182.25c10.144 10.07 18.887 28.481 10.746 49.672 2.9822 0.21302 6.0851 0.071 7.5648-3.0035 9.1177-19.237-0.90176-44.837-18.311-46.666"/>
  <path d="m401 198.61 1.8319 6.9869c7.4399 4.1325 11.172 12.424 11.247 22.745 2.8544 0 4.381-0.77395 4.6082-3.9337 0.85205-12.674-7.6146-23.696-17.684-25.8"/>
  <path d="m161.93 181.9c-4.7857-8.4914-13.902-19.313-21.492-24.022-5.3609-3.3585-6.8165-4.9348-14.879-3.4792-8.0661 1.4556-11.473 2.2295-18.286 4.2106 33.465 20.114 48.846 62.822 39.151 121.29l1.555 1.0793c7.0863-12.124 12.424-23.647 11.974-37.824-0.42602-14.178 1.1787-29.407 3.5573-37.824-0.75264-5.4602-1.5266-15.08-1.5763-23.421"/>
 </g>
 <path d="m177.48 171.33c-6.788-10.621-22.344-16.081-36.07-13.451 9.8192 7.7899 19.488 20.114 25.274 34.693 3.0035-7.665 6.3904-14.579 10.796-21.242" fill="#57C3EA"/>
 <path d="m146.8 280.53c9.3932-57.337-5.162-101.07-39.001-122.04-55.108 16.482-103.65 65.904-106.53 115.75-0.42602 7.54 3.2591 7.8908 9.318 3.7846 36.772-25.049 86.87-17.283 116.13-4.2106 8.3161 3.7064 13.151 5.233 20.089 6.71" fill="#57C3EA"/>
 <path d="m101.37 265.68c-3.6851 11.297-16.156 19.939-27.028 22.519-3.1029 0.75265-4.31 3.3585 0 4.807 15.731 5.3324 45.765 1.6047 59.165-16.457-9.543-4.2319-20.765-7.9908-32.137-10.872" fill="#FDD23E"/>
 <path d="m212.95 231.09c8.4914 20.565 30.234 27.353 47.318 16.833 16.858-10.396 17.534-32.213 7.9404-45.188-13.777 8.216-40.404 22.393-55.258 28.355" fill="#FDD23E"/>
 <path d="m49.38 204.28c-1.3775-1.3775-5.936 0.56804-9.4436 4.4307-3.884 4.2603-5.3609 8.4914-4.1325 9.7191 1.129 1.1006 5.0129 0.213 9.7447-4.807 4.0047-4.2319 5.2117-7.966 3.8342-9.3435" fill="#BAE3F9"/>
 <path d="m192.45 164.63c-1.2994-0.49704-3.4295 0.82366-4.9064 4.4875-1.4556 3.607-1.1006 7.1637 0.0498 7.5897 1.5266 0.56804 3.6567-1.6544 5.0129-5.4602 1.1503-3.3088 0.90176-6.1845-0.1421-6.6105" fill="#BAE3F9"/>
 <g fill="#dcdddd">
  <path d="m288.17 261.44c3.2591 4.7573 10.646 8.5163 23.897 1.2497-0.75264-5.51-1.7538-12.649-0.63904-19.288-5.6094 6.1348-15.756 14.528-23.27 18.035"/>
  <path d="m361.63 236.01c1.1006 3.7561 3.4295 11.848 4.2106 15.956 3.7562-7.0863 11.422-11.974 19.613-13.301 3.884-3.5289 7.0863-4.6579 10.421 0.71005 3.9834-2.1018 10.295-5.7585 12.299-10.095l-8.1911-0.35502c-1.0012 2.1018-2.329 3.0816-6.4401 2.755-5.865-0.42602-14.479-0.21302-18.987-0.14194-1.1787 1.9313-4.5088 3.4792-12.925 4.4875"/>
  <path d="m368.28 247.87c2.9822-2.1018 8.4162-3.6567 12.9-3.8059-1.3775 2.5278-1.6757 4.3313-1.6047 6.788-4.0828-0.14194-7.3895 0.0504-9.7191 0.28402-4.1325 0.42602-3.6851-1.2781-1.5763-3.2804"/>
 </g>
 <path d="m330.38 221.83c-9.9698 12.299-7.3142 15.856-36.146 35.845-4.4307 3.0816-11.072 5.3112-17.584 5.9147 15.981-13.502 20.265-25.023 22.92-45.639 8.642 3.6568 17.51 5.1124 30.81 3.884" fill="#4BAACB"/>
 <path d="m356.35 223.85c2.0023 4.0615 3.7561 8.4162 5.0129 12.5 1.3278-0.14194 2.5065-0.35502 3.6568-0.56802 1.0509-3.9337 1.8532-7.8652 2.4284-11.697-3.7348 0.14209-7.54 0.0249-11.097-0.28401" fill="#4BAACB"/>
 <path d="m367.46 224.11c-0.56803 3.8342-1.4059 7.7651-2.4568 11.698 2.1301-0.42603 4.0331-0.97986 5.8366-1.555 2.7834-0.87337 3.9337-2.5065 4.9561-5.6875 0.42604-1.4272 0.88047-3.2591 1.2284-5.3324-2.9041 0.49703-6.1845 0.77395-9.5686 0.87335" fill="#3E3A39"/>
 <path d="m395.11 222.3c-0.42604 3.3301-1.2284 6.6105-2.5278 9.619 4.2816 0.42602 6.0851-0.56804 7.6145-3.7846 0.90176-1.8532 1.5763-3.8058 2.0804-5.7869-2.0023 0.0498-4.4804 0.0249-7.1637-0.0504" fill="#3E3A39"/>
 <path d="m374.55 231.52c7.1637-0.28402 13.677-0.0504 17.985 0.42602 1.3278-3.0035 2.1017-6.3123 2.5562-9.6183-6.8875-0.21301-14.829-0.72425-17.91-1.0012-0.56802 3.7348-1.4769 7.1885-2.6272 10.22" fill="#4BAACB"/>
 <path d="m399.97 228.92c4.0331 0.87337 10.521 0.28402 14.178-0.071-0.071-5.162-0.82365-9.1681-2.1301-12.625-3.4579 0.75265-6.788 1.2781-8.7172 1.2994-0.35503 3.6567-1.2781 7.7651-3.3301 11.423" fill="#4BAACB"/>
 <g fill="#3e3a39">
  <path d="m412.01 216.21c1.3278 3.4579 2.0307 7.4392 2.1514 12.6 3.6567-0.35502 4.7857-1.6047 4.736-5.3112-0.0498-2.8544-0.42602-5.7869-1.2497-8.7172-1.7538 0.49703-3.7064 1.0012-5.6378 1.4272"/>
  <path d="m416.72 211.84c1.3562-7.7899 8.4666-17.835 13.2-25.625 1.8319-3.0035 0.49704-5.0129-2.8047-4.8354 1.129 1.2497 0.63905 3.181-1.555 5.7585-3.2094 3.8058-5.2614 6.7383-8.3161 12.199-0.77395 1.3491-1.5053 1.5053-2.9822 1.3278-4.9348-0.49704-9.1177-2.9822-12.149-6.4898l-0.42602 4.5088c6.6886 2.6769 10.771 5.4602 15.054 13.151"/>
  <path d="m418.64 221.78c10.495-1.0012 31.261-4.5088 40.429-7.339 7.2141-2.2296 7.8908-5.7869 5.0626-12.675 0 5.3111-0.75264 5.2117-6.2129 7.4896-6.788 2.8331-15.982 5.4887-26.226 6.5608-7.065 0.75265-11.447-1.5053-10.721-8.0406l-4.4094 3.7064c1.4556 3.6354 1.6757 6.0354 2.0804 10.295"/>
 </g>
 <g fill="#4baacb">
  <path d="m152.7 310.58c12.224-11.672 20.565-20.69 28.205-32.238 0 3.3301 0 8.0654 0.14194 13.076-8.6164 7.3639-18.887 14.853-28.33 19.162"/>
  <path d="m130.76 302.1c7.9156-3.7562 20.565-12.649 29.032-21.542-1.2497 3.7561-2.5065 8.1911-3.7561 12.374-6.9372 4.4307-16.657 8.8926-25.274 9.1681"/>
  <path d="m146.66 219.8c-54.081-3.0816-124.07 27.654-143.6 60.643 1.9029 0.49704 3.7348-0.21302 7.5393-2.7337 28.656-18.762 70.212-20.966 106.08-7.5897 11.272 4.1822 20.765 8.5667 30.384 10.195 3.884-26.978 3.2804-41.756-0.42602-60.518"/>
 </g>
 <path d="m159.91 238.54c-0.56804-7.9653-0.28402-12.098 0.77395-17.109-3.9834-0.56805-8.5667-1.3278-14.028-1.626 3.11 18.01 5.1123 33.265 0.42604 60.518 0.49702 0.071 1.0296 0.21302 1.555 0.28402 11.522-18.987 12.023-31.336 11.297-42.057" fill="#3E3A39"/>
 <path d="m111.93 268.56c-8.7172 11.672-24.673 19.939-39.151 20.39-1.9313 0.72425-2.5278 2.2792 1.9313 3.9834 13.426 5.1834 45.339 1.3278 58.79-16.106-8.2664-3.6851-14.027-6.0638-21.567-8.2664" fill="#DAB636"/>
 <g fill="#4baacb">
  <path d="m275.99 263.6c-21.267 1.9313-48.57 8.3409-53.53 11.898-10.946 7.8403-27.629 30.284-37.673 47.142 2.052-13.602 17.86-41.882 31.461-53.354 13.627-11.497 24.748-15.28 51.375-22.293 11.272-2.9822 27.704-16.758 31.712-33.816-0.071 20.765-5.7372 38.575-23.346 50.423"/>
  <path d="m396.21 240.83c-3.3301 3.4295-4.2319 8.5163-1.1787 12.9 4.7857 6.8662 8.7421 15.054 9.8192 22.168-1.4556-0.21302-10.17-12.625-21.392-19.614-3.2094-1.981-4.2106-3.6567-3.5573-7.3142 1.5053-8.1911 7.5897-13.776 11.423-13.501 1.6544 0.071 3.4295 2.6556 4.8851 5.3608"/>
  <path d="m367.17 258.4c3.6568 5.8579 7.0863 18.611 7.6401 29.483-1.1006 0.56805-4.5372-2.4568-5.8579-4.7573 0.56804-7.89-0.14194-15.981-1.7822-24.723"/>
 </g>
 <g fill="#0d131a">
  <path d="m244.76 215.91c0.80235 4.807 3.3301 6.6389 4.9632 6.3336 2.1798-0.42604 3.607-4.0828 1.7822-9.9442-2.3289 1.2781-4.4875 2.329-6.7383 3.607"/>
  <path d="m156.02 294.3c-7.4143 4.5372-14.854 7.8652-23.02 9.3684-5.3893 0.97987-5.6591-0.71004-2.755-3.3088 14.729-13.401 29.082-34.918 28.055-57.487-2.7266-60.093 33.34-111.17 74.746-113.9 31.186-2.0804 54.732 17.86 63.725 52.127 9.7191 37.072 3.4082 68.834-18.762 82.36l-6.788 0.72425c24.122-11.698 32.664-42.408 22.244-82.11-9.4685-36.121-33.39-51.275-60.092-49.522-36.121 2.4071-74.646 48.77-71.84 110.24 1.0012 21.993-13.627 45.038-28.53 58.364 7.9156-1.7751 14.478-4.7573 23.797-10.695z"/>
  <path d="m296.23 186.55c-33.866 24.122-74.896 44.462-113.67 57.537-11.748 3.9834-18.711 3.3798-22.694-4.0331l0.42602-4.381c3.0319 8.4666 9.0176 9.9442 21.592 5.7585 38.325-12.675 79.58-34.017 113.37-58.389z"/>
  <path d="m211.47 218.18c-0.92306-27.479 32.764-40.253 52.628-20.941 3.0319 2.9325 2.0307 4.1112-1.2994 1.5266-20.29-15.706-47.342-5.2828-49.321 19.388-0.35502 4.0615-1.8816 4.0828-2.0023 0.0249"/>
  <path d="m269.77 202.1c10.521 16.056 8.0406 37.949-8.4162 47.543-18.135 10.546-42.082 3.3301-50.323-17.835l3.0035-1.3278c7.9404 18.661 28.53 26 45.439 15.956 14.779-8.8174 16.758-29.182 7.5144-42.684z"/>
  <path d="m181.36 293.02c-9.4436 7.9156-15.33 11.798-25.675 17.91-4.1609 2.4568-5.0342 1.4556-4.381-2.3574 2.5065-14.453 4.736-21.441 9.5686-34.066 1.4059-3.6567 3.1526-3.1029 1.9313 0.56804-4.4804 13.401-6.0851 19.864-8.5163 33.24 10.896-6.5111 16.257-10.195 26.877-19.137z"/>
  <path d="m219.86 131.5c34.142-12.374 77.201-11.423 104.5 2.6556 4.8354 2.4781 7.114 4.7076 10.245 10.821 21.267 41.281 10.621 77.526-39.151 114.3-5.5881 4.1325-11.322 5.1336-24.297 6.4614-13.401 1.3491-24.247 3.2591-42.032 8.7918-6.9656 2.1514-7.8403 2.8544-13.852 9.1426-11.297 11.824-22.744 29.207-27.879 37.373-2.755 4.4307-3.955 4.0331-4.8354-1.4769-2.2793-14.153-2.7266-21.693-2.6556-39.427 0-4.1325 1.8816-4.1822 2.0023-0.0497 0.49704 16.883 1.4059 25.023 3.5786 38.676 5.9147-9.2931 17.008-26.226 27.479-37.173 5.7869-6.0354 8.7421-7.9902 15.33-10.019 16.232-4.9632 29.182-7.7651 42.733-9.1426 13.903-1.4059 17.259-2.6272 21.893-5.9644 49.772-35.595 60.493-70.212 39.202-110.42-2.4781-4.6863-4.6082-6.2342-9.4685-8.8422-25.099-13.426-64.776-14.278-91.228-5.7869z"/>
  <path d="m349.5 212.63c9.619-39.427 1.0012-59.065-19.613-71.815l-5.6378-6.7383c28.932 14.728 39.352 35.72 27.579 82.211z"/>
  <path d="m312.87 263.9c-10.671 6.8165-22.168 5.9147-26.376-2.0804l2.6556-1.2497c3.3088 5.1124 12.424 7.3142 22.995 0.21302z"/>
  <path d="m351.88 164.32c5.5881 0.49704 11.046 2.7834 15.956 8.1911 11.873 13.125 15.279 35.744 8.9423 58.013-0.56804 2.0804-1.981 4.0331-4.1325 4.7857-3.955 1.3775-7.3639 2.0804-10.796 2.3786l-0.87336-2.9538c3.4295-0.28402 6.4614-0.92307 10.495-2.3076 1.2-0.42604 1.7538-1.0012 2.2792-2.8828 7.3646-25.8 0.56802-44.962-8.3409-54.857-4.0615-4.4591-7.3142-6.362-12.525-7.114z"/>
  <path d="m363.46 236.09c7.665-28.08 4.0615-52.803-9.6438-62.897l-0.071-3.181c15.981 9.4685 20.365 36.121 12.574 65.553z"/>
  <path d="m375.37 230.07c7.0153-0.14195 12.549 0 19.638 0.49704 1.9029 0.14194 2.9041-0.71005 3.7845-2.6059 7.3639-16.382 0.97988-35.244-9.4685-41.43-3.7064-2.2012-8.8422-3.4295-16.758-3.8556l-1.9313-3.3798c8.992 0.35502 16.106 1.9313 20.314 4.4307 11.372 6.7667 18.686 28.08 10.57 45.64-1.3775 3.0035-3.5786 4.381-6.5111 4.1609-7.5897-0.56804-13.201-0.75264-21.417-0.49702z"/>
  <path d="m391.18 231.99c7.4392-16.683 1.7822-40.479-13-50.523l4.3597 0.63904c13.076 10.421 18.211 33.065 10.996 50.023z"/>
  <path d="m400.62 227.27c5.5881 0.35502 9.5189 0.35502 14.353-0.35502 1.8319-0.28402 2.2296-0.92307 2.2296-2.7053 0-12.123-5.1123-19.738-15.881-23.846l-1.2781-3.7846c13.225 3.9053 20.565 13.827 20.139 27.879-0.071 3.4082-0.97986 4.807-4.8354 5.3892-5.2828 0.77395-11.848 0.95145-16.056 0.56802z"/>
  <path d="m412.81 228.55c-0.0504-10.32-3.5289-18.06-9.9698-21.542l-0.35502-2.9822c8.2664 3.4579 13.076 13.051 12.9 24.472z"/>
  <path d="m415.41 210.49c3.7064-9.4436 6.5892-15.004 12.625-23.872 0.87336-1.2497 1.2497-2.1301 1.0012-2.7834-0.72423-1.8816-19.788-1.3988-23.22 1.2284-1.0296 0.80235-2.7053 7.0153-2.7337 14.203l-2.8331-0.75266c0.14194-5.6875 1.3278-14.353 3.4082-15.956 3.4792-2.6556 26.251-5.0058 28.581-0.21302 0.71006 1.4769 0.28402 3.4295-1.4769 5.8153-6.6389 9.3179-9.5934 14.478-13.501 25.048z"/>
  <path d="m418.51 220.24c16.532-1.7041 41.406-6.0141 45.063-9.744 3.0816-3.1597-8.6924-26.451-13.902-26.026-4.4875 0.35502-14.929 10.145-32.639 28.606l-1.4769-2.5065c17.76-18.386 28.28-28.606 33.691-29.107 9.6687-0.92306 21.918 25.9 16.683 31.236-5.0129 5.1336-30.284 8.5667-47.117 10.496z"/>
  <path d="m379.73 252.6c-3.9053-0.56803-6.8662-0.71005-11.072-0.14194-3.4792 0.42602-4.2603-2.1514-2.1514-4.5798 5.2614-6.0354 13.001-10.345 20.54-11.447l-2.4284 3.5573c-5.8579 1.129-10.971 3.955-15.756 9.068-0.72426 0.80235-0.75266 1.129 0.56802 0.90177 3.0816-0.49704 6.362-0.63904 10.195-0.21302z"/>
  <path d="m381.06 249.64c-0.35503 2.5065-0.0249 3.2094 2.5775 5.0839 7.9149 5.7869 13.827 11.172 19.813 18.687 1.3278 1.6544 1.8816 1.4272 2.0023-0.72424 0.72426-12.901-11.347-35.094-14.203-35.595-3.2591-0.56803-9.193 5.6591-10.195 12.549m20.891 25.751c-6.8874-8.5419-12.55-12.975-20.064-18.361-2.8544-2.052-4.31-4.1325-3.7846-7.7651 1.1787-8.0661 8.3913-16.107 13.752-15.205 5.7585 0.95147 16.908 25.926 16.031 38.751-0.35502 5.4887-3.0816 6.1348-5.936 2.5775"/>
  <path d="m369.08 280.83c1.2994 2.1798 2.5065 3.884 3.2804 4.5869 1.8532 1.626 2.1514 1.4769 2.3787-0.63904 1.129-11.097-3.9337-26.201-9.3187-33.591l-0.92306-5.2118c8.5667 6.1845 14.754 29.508 12.9 39.528-0.82366 4.4307-2.8047 5.2615-6.1632 2.2793-0.28403-0.28402-1.2781-1.0509-2.3077-2.4284z"/>
  <path d="m410.17 229.18c-3.9053 5.2118-8.0157 8.5419-13.827 11.222l-1.5266-2.2011c5.1833-2.4071 8.5667-4.9632 11.648-9.1681z"/>
  <path d="m147.16 282.17c-6.0354-0.56804-10.595-2.052-17.809-5.1336-44.437-19.012-87.571-18.26-118.56 2.5278-8.0157 5.3892-11.047 3.4579-10.771-4.8851 1.8816-56.385 62.973-113.4 126.12-121.89 5.9857-0.80235 9.744 0 14.979 3.3301 8.8671 5.6378 16.382 13.502 20.991 22.219l-0.14194 8.0157c-6.1348-12.424-13.025-20.766-22.844-27.028-4.4591-2.8331-7.7906-3.4579-12.85-2.755-59.265 7.9404-121.36 63.875-123.16 118.16-0.14194 5.2615 0.93018 5.5881 6.1348 2.0804 31.562-21.166 76.023-22.67 121.14-3.3798 7.4896 3.2094 13.602 5.0839 18.811 5.3892z"/>
  <path d="m176.32 173.14c-7.7899-10.57-19.288-15.555-33.891-13.626l-3.8342-3.0816c18.586-2.9538 31.085 1.8319 39.702 13z"/>
  <path d="m145.32 280.23c9.068-56.06-6.4401-102.5-40.179-121.16l3.9834-1.0296c33.54 19.137 48.594 67.457 39.076 122.41z"/>
  <path d="m135.6 277.72c-15.981 19.563-48.52 22.544-62.522 16.407-4.9561-2.1514-5.3325-5.0342 0.28401-7.0366 11.197-3.9834 20.841-9.5686 26.276-21.943l3.8058 1.2284c-5.6591 13.276-16.832 20.29-29.057 23.37-1.9029 0.49704-1.8319 1.1006-0.42602 1.626 13.752 5.0342 43.31 1.626 57.763-15.48z"/>
 </g>
 <path d="m312.43 261.91c0.77395 3.5289 1.7538 6.1845 4.736 8.7172 15.205 12.85 29.784 27.578 42.258 44.511 2.0804 2.8047 4.3313 1.7751 5.1621-1.1503 13.602-47.643-7.065-97.64-20.966-107.18-8.9175-6.1135-16.282-3.884-20.54 2.8047-8.4162 13.176-14.253 35.87-10.646 52.302" fill="#57C3EA"/>
 <path d="m163.07 205.2c-5.0129-55.709 6.5111-99.394 19.288-123.12 13.751-25.55 44.988-51.651 75.773-58.264 4.6082-1.0012 4.9348 0.28402 0.90176 2.4568-27.328 14.628-50.023 32.889-64.927 60.618-15.03 27.955-25.149 69.16-28.856 118.13-0.49702 6.4898-1.5763 7.0153-2.1798 0.14194" fill="#FDD23E"/>
 <path d="m201.84 206.48c4.6082-48.745 24.823-96.113 47.342-124.97 29.708-38.049 54.456-62.923 94.735-78.528 4.7573-1.8532 5.2828-0.63904 1.129 2.1798-35.544 23.997-54.381 44.261-83.588 84.439-21.968 30.184-42.658 70.212-56.811 117.28-1.7538 5.8366-3.3798 5.7088-2.8047-0.42603" fill="#FDD23E"/>
 <path d="m355.87 223.19c-4.0331-7.9653-8.4162-13.751-12.274-16.382-8.8926-6.1135-16.256-3.884-20.54 2.8047-8.3913 13.151-14.228 35.87-10.621 52.302 0.77395 3.5289 1.7538 6.1845 4.736 8.7172 2.2792 1.9313 4.5372 3.9053 6.7596 5.9147-5.5881-21.267-3.0319-42.458 6.1845-54.407 6.3123-8.1655 16.107-7.7395 25.751 1.0509" fill="#595757"/>
 <path d="m321.3 250.75c-0.71005 8.642 1.3278 18.186 2.9538 25.775 12.674 11.297 16.332 16.332 21.191 21.442 1.626 1.6757 11.046 14.278 12.199 14.403-9.3179-26.376-18.16-38.776-36.346-61.62" fill="#4BAACB"/>
 <path d="m349.92 263.59c-0.90176 0.071-1.8816 2.4071-1.2781 6.7596 0.56804 4.0828 2.2012 6.4614 3.3585 6.2839 0.92306-0.14195 1.555-2.5562 0.87335-7.1892-0.56804-3.884-1.8816-5.9644-2.9538-5.8579" fill="#BAE3F9"/>
 <path d="m164.61 209.09c-1.7751-43.66 6.3123-89.024 19.714-117.23 13.076-27.504 32.864-50.448 78.252-68.258-32.814 19.488-57.637 36.997-72.266 70.011-14.628 33.04-21.041 71.139-25.7 115.48" fill="#DAB636"/>
 <path d="m202.06 213.74c8.4162-43.435 21.993-82.937 41.431-111.69 25.951-38.35 60.593-81.158 106.18-100.4-50.323 32.563-78.228 72.767-97.741 102.37-23.947 36.346-41.907 82.235-49.872 109.71" fill="#DAB636"/>
 <path d="m320.85 251.64c-3.3301-2.8828-5.5384-4.6579-9.5189-6.8661-1.3775 1.4059-2.1301 19.488 7.0153 26.727 1.8532 1.5053 3.8556 3.181 5.8863 5.0129-2.5065-12.475-3.8342-19.789-3.3798-24.874" fill="#3E3A39"/>
 <g fill="#0d131a">
  <path d="m259.02 24.813c-31.912 6.8661-61.871 33.315-75.246 58.188-19.063 35.419-22.97 82.461-19.589 120.94 4.4804-48.995 13.026-89.875 28.23-118.18 13.752-25.575 33.966-43.786 66.605-60.944m-96.964 179.3c-3.2804-37.498-2.4284-83.713 18.837-123.24 14.453-26.828 46.515-52.979 78.929-58.465 7.5648-1.2781 7.8155 0.49704 1.2 4.2106-31.812 17.86-51.325 34.693-65.603 61.244-16.282 30.284-23.797 69.736-29.157 116.03-1.1787 10.32-3.3088 10.57-4.2106 0.213"/>
  <path d="m344.93 3.875c-41.005 15.63-63.975 39.753-94.384 78.704-25.775 33.014-44.061 79.881-47.592 125.82 16.482-56.911 39.301-95.361 56.936-119.68 31.937-44.061 48.695-61.27 85.041-84.841m-144.31 204.4c1.5763-40.93 19.613-91.905 46.992-127.77 31.712-41.531 58.188-64.476 98.016-79.305 7.339-2.7337 8.1407-0.49704 1.5266 3.9052-35.394 23.37-52.453 41.531-84.214 85.667-18.336 25.499-40.053 62.848-57.713 118.36-2.8331 8.8671-4.9632 8.4914-4.6082-0.85206"/>
  <path d="m324.62 210.64c-7.9909 12.5-13.952 33.565-10.746 50.749 0.71004 3.5573 1.7538 5.6094 4.4307 7.8652 16.683 14.102 30.76 28.856 42.107 45.013 1.5763 2.2508 2.1017 2.2296 2.9325-0.63905 12.475-42.132-4.6366-94.409-20.59-105.36-8.7172-5.9857-13.451-4.9845-18.135 2.3574m33.791 105.36c-11.372-15.43-24.598-29.457-42.333-43.96-3.1313-2.5775-4.7857-6.0851-5.6378-9.9698-3.4579-15.755 1.8035-38.299 11.422-53.379 5.4887-8.5667 12.951-10.37 22.719-3.0532 15.856 11.849 34.993 63.524 21.166 108.84-1.7254 5.6875-4.4307 5.4602-7.339 1.5266"/>
  <path d="m323.44 276.17c-5.5384-14.178-6.362-36.046 4.736-53.93 6.5395-10.57 18.412-10.22 26.302-1.626l3.2804 10.32c-6.0851-14.753-20.089-18.16-27.003-6.9869-11.572 18.661-8.8671 41.656-3.2591 55.483z"/>
 </g>
</svg>
