<?xml version="1.0" encoding="UTF-8"?>
<svg version="1.1" viewBox="0 0 228.21 340.75" xmlns="http://www.w3.org/2000/svg">
 <path transform="matrix(1.4096 0 0 1.4096 -1.7669 -31.803)" d="m46.581 205.35c0.078 18.627 15.226 38.1 14.994 48.616-0.043 1.926-1.533 3.925-1 5.333 1.076 2.869 15.561 2.788 17.931 0.773 3.461-2.942 4.969-14.529 3.092-25.2-4.132-10.655-27.073-33.266-35.013-29.525" fill="#7ECEF4" data-name="Path 11947"/>
 <path transform="matrix(1.4096 0 0 1.4096 -1.7669 -31.803)" d="m81.594 234.87c-3.068-7.912-16.508-22.414-26.475-27.826 6.4 19.635 15.322 42.018 14.1 46.446-0.609 2.2-4.947 5.015-8.605 5.878 1.3 2.792 15.543 2.7 17.892 0.7 3.461-2.942 4.968-14.529 3.092-25.2" fill="#6DB3D4" data-name="Path 11948"/>
 <path transform="matrix(1.4096 0 0 1.4096 -1.7669 -31.803)" d="m158.6 170.06c-5.623 5.408-14.759 8.312-19.5 7.885-8.58-0.773-17.777-15.149-38.491-15.149-10.218 0-19.128 2.791-23.636 6.182-5.815-19.09-8.2-48.339-6.2-56.077 0.961-3.709 3.161-5.091 7.555-5.22 30.023-0.883 41.266-27.038 32.007-43.407-6.465-11.429-23-15.694-38.2-10.166a25.852 25.852 0 0 1 13.853 11.27c-6.325-8.4-18.819-9.938-28.458-2.349-10.512 8.277-12.932 22.583-10.519 46.85 2.5 25.113 2.387 42.918-1.923 61.976-8.5 37.568 14.091 67.155 50.276 66.76a51.975 51.975 0 0 0 26.214-6.957c2.01 17.626-1.7 23.651-0.024 25.779 1.155 1.47 12.1 1.294 14.453-0.541 4.019-3.134 9.418-24.218 11.384-42.617 12-13.473 15.245-30.926 15.245-43.464 0-5.383-1.4-3.289-4.032-0.756" fill="#7ECEF4" data-name="Path 11949"/>
 <path transform="matrix(1.4096 0 0 1.4096 -1.7669 -31.803)" d="m62.998 107.05c-0.9 0.763 1.875 10.5 7.1 12.952a33.559 33.559 0 0 1 0.683-7.1c0.854-3.3 2.691-4.752 6.173-5.126-8.765 0.176-12.678-1.8-13.953-0.725" fill="#6DB3D4" data-name="Path 11950"/>
 <path transform="matrix(1.4096 0 0 1.4096 -1.7669 -31.803)" d="m102.02 226.39c-39.661 1.977-56.816-8.248-58.719-39.491-0.216 30.124 20.868 52.063 52.06 51.723a51.981 51.981 0 0 0 26.214-6.957 90.038 90.038 0 0 1 0.614 10.1c1.6-2.253 3.907-4.4 5.546-4.189 3.3 0.43 6.1 15.4 5.141 16.9a10.438 10.438 0 0 1-6.027 3.94c3.555 0.047 7.794-0.459 9.156-1.521 4.019-3.134 9.419-24.218 11.384-42.617 12-13.473 15.245-30.926 15.245-43.463v-0.5c-8.03 32.727-30.9 54.586-60.609 56.067" fill="#6DB3D4" data-name="Path 11951"/>
 <path transform="matrix(1.4096 0 0 1.4096 -1.7669 -31.803)" d="m126.35 248.17c-1.928-0.055-8.34 6.99-7.961 8.657 0.386 1.7 9.971 2.473 10.975 0.85s-0.309-9.429-3.014-9.507" fill="#fff" data-name="Path 11952"/>
 <path transform="matrix(1.4096 0 0 1.4096 -1.7669 -31.803)" d="m118.47 257.01c1.028 1.564 9.92 2.219 10.886 0.658a3.748 3.748 0 0 0 0.334-1.745 34.9 34.9 0 0 1-11.221 1.087" fill="#dcdddd" data-name="Path 11953"/>
 <path transform="matrix(1.4096 0 0 1.4096 -1.7669 -31.803)" d="m130.52 209.79c0.95-0.059 8.938-13.374 8.811-15.149-0.238-3.337-9.755-15.149-11.671-15.149-1.314 0-9.97 14.531-9.816 15.767 0.268 2.147 11.058 14.632 12.676 14.531" fill="#00a5e3" data-name="Path 11954"/>
 <path transform="matrix(1.4096 0 0 1.4096 -1.7669 -31.803)" d="m134.1 194.96c-1.272 0.164-12.156 0.6-16.114 0.749 1.294 3.04 11.006 14.176 12.534 14.081 0.884-0.056 7.851-11.571 8.72-14.611-1.147-0.061-3.943-0.134-5.141-0.219" fill="#0090c6" data-name="Path 11955"/>
 <path transform="matrix(1.4096 0 0 1.4096 -1.7669 -31.803)" d="m132.4 222.74c-0.171-2.87-0.932-4.987-1.492-4.987-1.495 0-7.958 15.989-31.149 16.076-20.636 0.077-30.143-17.854-32.539-18.009-1.094-0.071-3.039 8.725-3.675 13.444 8.52 6.073 19.365 9.49 31.821 9.354 16.913-0.185 29.313-7.125 37.033-15.879" fill="#fff" data-name="Path 11956"/>
 <path transform="matrix(1.4096 0 0 1.4096 -1.7669 -31.803)" d="m63.543 229.26c8.52 6.073 19.365 9.49 31.822 9.354 16.913-0.184 29.313-7.124 37.033-15.879-0.171-2.871-0.931-4.987-1.492-4.987-1.495 0-7.958 15.99-31.149 16.077a34.34 34.34 0 0 1-22.269-8.219 55.73 55.73 0 0 1-12.665-3.254c-0.546 2.4-1.022 4.989-1.28 6.909" fill="#dcdddd" data-name="Path 11957"/>
 <path transform="matrix(1.4096 0 0 1.4096 -1.7669 -31.803)" d="m114.91 221.81c1.624 18.51-4.221 36.9-8.27 40.346-2.37 2.014-16.933 2.019-18.009-0.85-0.528-1.407 0.771-3.137 1.159-5.024 1.623-7.884-0.231-23.573-4.869-34.549 0.948-9.769 22.359-9.192 29.989 0.078" fill="#7ECEF4" data-name="Path 11958"/>
 <path transform="matrix(1.4096 0 0 1.4096 -1.7669 -31.803)" d="m114.29 224.23c0 15.224-6.114 32.89-9.193 34.8-4.372 2.707-12.449 3.123-16.481 2.249 0 0.01 5e-3 0.02 9e-3 0.029 1.076 2.869 15.639 2.865 18.009 0.85 4.039-3.433 9.862-21.741 8.281-40.2-0.348-0.237-0.624 0.314-0.624 2.277" fill="#6DB3D4" data-name="Path 11959"/>
 <path transform="matrix(1.4096 0 0 1.4096 -1.7669 -31.803)" d="m134.3 194.53c0.68-1.3-1.828-8.258-6.372-14.976a0.835 0.835 0 0 0-0.269-0.062c-0.2 0-0.557 0.327-1.024 0.88l-6.618 10.271c-1.3 2.325-2.225 4.206-2.174 4.617a1.948 1.948 0 0 0 0.165 0.509c9.759 0.406 15.806-0.31 16.293-1.239" fill="#a0d2f2" data-name="Path 11960"/>
 <g fill="#0d131a" stroke-width="1.4096">
  <path d="m205.78 272.19c16.185-17.668 22.425-41.468 22.425-63.323 0-7.1058-2.1229-6.2318-5.7413-2.6261a44.025 44.025 0 0 1-12.313 8.3166c-11.735 5.4974-17.445 5.2804-30.157-3.4014-16.809-11.48-27.797-14.587-40.058-14.587-14.529 0-27.727 4.5347-33.516 8.7959 0.0409 0.35099 0.51873 1.7098 0.61318 2.0834 4.6066-3.6269 17.761-8.7127 32.903-8.7127 12.894 0 23.556 3.3633 39.169 13.758 13.652 9.0891 19.67 9.4006 31.684 3.7044a47.644 47.644 0 0 0 12.827-9.0764c2.4442-2.4344 3.1786-2.9714 3.1786 1.6351 0 11.258-2.1144 38.276-20.684 59.705z" data-name="Path 11961"/>
  <path d="m65.454 263.24c0.28192 5.4735 2.2821 15.348 12.051 37.156 4.9251 10.995 7.1509 17.586 7.8402 20.957 0.84576 4.109 0.7048 5.3847-0.40314 8.6493-1.0276 3.0137-0.6019 4.0441 2.5697 4.8378a43.951 43.951 0 0 0 11.956 0.96135c8.2447-0.42288 10.162-2.003 11.956-7.6964 1.9946-6.3305 2.7684-15.972 1.5139-25.562a11.934 11.934 0 0 1 1.6394 0.14096c1.2334 9.7262 0.83448 19.564-1.2292 26.11-2.1581 6.8464-3.8947 8.5126-13.673 9.0017a49.877 49.877 0 0 1-12.643-1.0304c-4.7306-1.2193-5.4058-3.118-3.6058-7.289 1.2052-2.7924 0.96135-4.5784 0.28192-7.7387-0.69352-3.1998-2.4189-8.8312-7.8867-20.655-10.844-23.447-13.321-34.551-13.042-43.888 0.28192 0.68507 2.2314 5.3692 2.6782 6.0472" data-name="Path 11962"/>
  <path d="m168.39 324.37a108.21 108.21 0 0 0 0.48913-29.038l1.5139-0.90919a111.86 111.86 0 0 1 0.26923 27.549z" data-name="Path 11963"/>
  <path d="m177.51 333.28c5.0252 0.0902 11.078-0.7048 12.978-2.1933 6.6054-5.1493 15.537-41.207 16.881-70.944 0.0775-1.7-0.93315-1.7733-1.053-0.0747-1.9551 27.708-10.774 64.591-16.993 69.44-1.4674 1.1432-5.0675 1.7817-8.9425 1.9481z" data-name="Path 11964"/>
  <path d="m176.27 317.38c4.3824 0.062 6.7365 11.87 5.014 14.653-1.6351 2.6416-16.375 1.6788-17.141-1.6915-0.64841-2.8488 8.8368-13.006 12.123-12.958m0.0296 1.2602c-2.5218-0.0352-10.679 9.3569-10.259 11.305 0.74004 1.7747 12.901 2.4668 13.793 1.0248 1.5097-2.44-0.90214-12.293-3.5353-12.33" data-name="Path 11965"/>
  <path d="m126.66 339.71c-4.8138-1.2489-5.5933-3.0194-3.7171-7.788 3.383-8.5986 1.669-32.448-5.5299-50.887-0.7189-1.8325 0.16492-2.3329 0.97403-0.53142 8.0559 17.941 10.045 42.907 6.4151 52.124-1.3744 3.4958-1.1488 4.2161 2.3893 5.1338a47.423 47.423 0 0 0 16.946 0.34958c3.4436-0.58217 4.2161-1.0516 6.0007-4.0188 6.2572-10.392 11.136-32.212 9.5106-53.142-0.10431-1.3476 0.89369-1.5054 1.0318-0.16069 2.1144 20.624-2.4569 44.268-9.0524 54.692-2.0876 3.2985-2.8474 3.9257-7.2425 4.663a49.419 49.419 0 0 1-17.723-0.43556" data-name="Path 11966"/>
  <path d="m182.28 264.65c-2.6331 0.0817-18.556-17.246-19.062-21.295-0.18607-1.4942 12.168-22.854 14.918-22.854 3.3689 0 17.043 17.197 17.383 21.943 0.21144 2.9686-11.385 22.149-13.239 22.207m-0.0662-1.528m-3.9328-41.174c-1.3997 0.0493-12.516 19.07-12.708 21.406 0.38341 3.0165 14.691 19.684 16.492 19.734 0.98672 0.024 11.774-18.626 11.674-20.469-0.33689-4.7095-14.062-20.721-15.462-20.666" data-name="Path 11967"/>
  <path d="m181.64 263.71a56.748 56.748 0 0 0 5.9852-15.866c0.50463-2.2215 1.2954-2.0256 0.95289 0.28192a50.575 50.575 0 0 1-4.0174 13.479c-1.3081 1.7832-2.1426 2.3385-2.9207 2.1144" data-name="Path 11968"/>
  <path d="m187.3 236.91a70.644 70.644 0 0 0-7.4624-15.133c-1.2404-0.96134-1.8325-0.80347-2.1581-0.35099a99.251 99.251 0 0 1 8.6676 15.921c0.79783 1.8184 1.6718 1.793 0.95289-0.43697" data-name="Path 11969"/>
  <path d="m84.568 287.95a74.951 74.951 0 0 0 39.765 15.2l0.3228 2.23c-16.217-1.2489-30.074-6.9747-40.596-16.01-2.0918-1.7958-1.6478-3.1223 0.52296-1.4195" data-name="Path 11970"/>
  <path d="m190.38 276c-6.2727 10.528-16.931 19.238-30.219 24.44l0.25373-2.3512a66.864 66.864 0 0 0 28.995-22.836c1.4575-1.989 2.199-1.3152 0.97122 0.74709" data-name="Path 11971"/>
  <path d="m193.43 270.7a38.543 38.543 0 0 0 3.7538-9.5853c0.40738-1.6647-0.50886-1.9283-1.0163-0.29038-1.0008 3.2238-2.2892 6.0697-3.6325 9.3541-0.60331 1.4744 0.10149 1.9326 0.89651 0.52296" data-name="Path 11972"/>
  <path d="m122.59 295.84c-8.0643-2.6782-18.832-9.5853-29.538-22.819-0.91342 0.64137-3.4831 9.3034-4.2542 19.247a10.696 10.696 0 0 1-1.9142-1.6309c0.95148-7.9938 3.2068-15.737 4.8081-18.476 1.1925-2.0397 1.7676-1.3109 2.612-0.31716 10.79 12.686 18.493 18.239 28.041 21.99z" data-name="Path 11973"/>
  <path d="m160.56 294.55a48.823 48.823 0 0 0 22.17-18.588 18.018 18.018 0 0 1 1.3744 7.2059 7.3201 7.3201 0 0 0 1.5252-1.5506 17.573 17.573 0 0 0-1.9227-6.7943c-0.52578-0.86972-1.0558-1.084-1.7916-0.0804-6.4687 8.8199-13.34 14.66-21.334 18.108z" data-name="Path 11974"/>
 </g>
 <path transform="matrix(1.4096 0 0 1.4096 -1.7669 -31.803)" d="m70.517 80.547c6.891-2.513 12.534-8.781 11.858-18.762-6.776-5.058-16.8-5.085-24.845 1.247a26.172 26.172 0 0 0-8.162 10.982c2.595 6.547 11.868 9.918 21.149 6.534" fill="#fff" data-name="Path 11975"/>
 <path transform="matrix(1.4096 0 0 1.4096 -1.7669 -31.803)" d="m52.126 68.841a28.158 28.158 0 0 0-2.758 5.173c2.595 6.547 11.868 9.918 21.149 6.534a20.126 20.126 0 0 0 1.907-0.809c-9.029 3.433-18.99-1.571-20.3-10.9" fill="#0d131a" data-name="Path 11976"/>
 <path transform="matrix(1.4096 0 0 1.4096 -1.7669 -31.803)" d="m85.989 65.379a17.916 17.916 0 0 0-3.614-3.583 21.882 21.882 0 0 1-0.2 4.861c3.548-0.958 4.7-0.128 3.811-1.278" fill="#0d131a" data-name="Path 11977"/>
 <path transform="matrix(1.4096 0 0 1.4096 -1.7669 -31.803)" d="m82.375 61.785c-5.609-4.188-13.445-4.923-20.539-1.461-1.727 9.606 5.536 18.6 14.333 17 4.019-3.331 6.682-8.509 6.206-15.537" fill="#0087BB" data-name="Path 11978"/>
 <path transform="matrix(1.4096 0 0 1.4096 -1.7669 -31.803)" d="m79.79 67.719c-1.153 1.119-3.675 0.864-6.122-1.682-2.423-2.521-2.835-5.505-1.5-6.573 1.4-1.123 3.784-0.394 5.915 1.875 2.315 2.465 2.67 5.446 1.708 6.38" fill="#fff" data-name="Path 11979"/>
 <path transform="matrix(1.4096,0,0,1.4096,-1.7669,-31.803)" d="m76.169 77.322a17.046 17.046 0 0 0 3.573-4.076 6.084 6.084 0 0 0-3.279-3.721 0.63 0.63 0 0 0-0.838 0.552c-0.3 2.962-3.224 4-6.14 2.459a0.57 0.57 0 0 0-0.712 0.11 3.622 3.622 0 0 0-0.205 3.36 11.1 11.1 0 0 0 7.6 1.316" fill="#81BFDD" data-name="Path 11980"/>
 <path transform="matrix(1.4096,0,0,1.4096,-1.7669,-31.803)" d="m90.456 52.033c-1.773-3.393-3.592-9.346-6.411-14.734-5.048-9.655-9.257-14.691-13.24-13.806s-4.785 11.733 0.286 26.592c-5.907-6.976-8.4-6.416-7.744 2.114a39.476 39.476 0 0 1 8.787 1.91 38.714 38.714 0 0 1 18.321-2.077" fill="#FFFBC7" data-name="Path 11981"/>
 <path transform="matrix(1.4096,0,0,1.4096,-1.7669,-31.803)" d="m88.688 48.038a116.67 116.67 0 0 0-4.643-10.739c-5.048-9.655-9.259-14.691-13.237-13.806s-4.785 11.733 0.285 26.592c-5.56-7.758-10.548-6.78-8.239 2.066a48.967 48.967 0 0 1 7.283 1.328c5.668-5.169 13.136-6.9 18.552-5.441" fill="#FADBDA" data-name="Path 11982"/>
 <path transform="matrix(1.4096,0,0,1.4096,-1.7669,-31.803)" d="m57.53 63.032c9.639-7.589 22.133-6.051 28.458 2.348a25.853 25.853 0 0 0-13.853-11.27c-4.949-1.744-11.2-2.525-19.322-2.213-10.636 0.409-20.316-0.144-27.611-1.7-18.045-3.842-21.756-2.449-22.859 0.795-1.813 5.334 4.828 16 24.273 20.613-9.74 2.1-14.722 5.85-14.2 8.582 0.448 2.353 3.336 4.737 18.822 4.371-6.4 7.248-6.583 11.261-5.7 12.49 1.5 2.072 7.466 1.34 14.145-4.187-1.194 8.144 1.572 10.551 6.5 4.234-0.37-16.7 2.834-27.36 11.348-34.064" fill="#FFFBC7" data-name="Path 11983"/>
 <path transform="matrix(1.4096,0,0,1.4096,-1.7669,-31.803)" d="m37.596 51.773a85.819 85.819 0 0 1-12.395-1.574c-18.044-3.844-21.755-2.451-22.858 0.792-1.813 5.334 4.828 16 24.273 20.613-9.74 2.1-14.722 5.85-14.2 8.582 0.448 2.353 3.336 4.736 18.822 4.37-6.4 7.249-6.583 11.261-5.7 12.49 1.433 1.984 6.967 1.386 13.3-3.517-10.437-10.424-10.829-28.958-1.242-41.756" fill="#FADBDA" data-name="Path 11984"/>
 <g fill="#0d131a" stroke-width="1.4096">
  <path d="m67.265 73.666c0.16492-0.7189 0.77669-2.1976 1.0022-2.8065 2.9024 9.9208 16.557 14.498 29.005 9.9588 11.136-4.0596 17.262-13.673 16.246-25.978a8.6253 8.6253 0 0 1 1.6746 0.98672c0.6315 12.545-5.6032 22.535-17.118 26.734-13.294 4.8462-26.515 0.53283-30.811-8.8889" data-name="Path 11985"/>
  <path d="m114.2 61.293a16.449 16.449 0 0 1 4.7306-0.58216c-0.52014-1.2841 0.62586-1.208 0.89792-0.85563 0.58075 0.74991 0.7048 1.5618 0.54833 1.7662-0.66533 0.84576-1.1545 0-6.3108 1.3659 0.0691-0.35804 0.0691-1.2686 0.13391-1.6915" data-name="Path 11986"/>
  <path d="m84.36 53.61a14.773 14.773 0 0 1 2.1144-0.84576c-2.7826 14.164 8.1348 26.598 20.149 23.436a6.3954 6.3954 0 0 1-2.0651 1.8973c-12.224 1.1375-22.391-10.727-20.191-24.49" data-name="Path 11987"/>
  <path d="m92.028 82.926c-10.492-0.019735-19.452-6.573-21.199-16.633a9.5261 9.5261 0 0 1 1.6915-2.3963c1.2912 14.145 16.774 21.916 30.315 14.681a20.242 20.242 0 0 1-10.803 4.3486" data-name="Path 11988"/>
  <path d="m133.53 71.736c-0.6019-0.64701-0.11136-1.1277 0.59203-0.59203 4.7024 3.548 11.949 3.0123 14.974-1.8184 0.48208-0.77105 1.1277-0.53847 0.76118 0.29602-2.8911 6.6886-12.046 6.721-16.326 2.1144" data-name="Path 11989"/>
  <path d="m112.67 222.31c-13.477-22.421-19.357-81.145-15.621-95.55 1.5167-5.847 3.7594-7.5625 11.136-7.7796 35.418-1.0431 54.35-28.801 47.456-52.719-5.7526-19.956-30.024-29.743-54.447-21.379-0.56384-0.20016-1.762-0.62445-2.3146-0.87113 25.38-9.636 52.375-0.74004 58.965 21.37 7.1594 24.018-11.174 54.817-49.391 55.752-5.6736 0.14096-8.0347 1.7296-9.2554 6.4376-3.2195 12.416 1.1911 67.363 14.316 94.144 1.0262 2.0918 0.34394 2.5697-0.84576 0.60049" data-name="Path 11990"/>
  <path d="m126.74 41.715a81.458 81.458 0 0 1-3.7199-8.5365c-9.715-24.509-18.202-34.892-25.357-32.949-7.4385 2.0185-8.0756 17.803 1.2334 41.442 0.69775 1.7747 1.7254 1.4096 1.1178-0.39892-8.101-24.104-6.4405-37.44-1.786-38.717 4.9632-1.3603 13.204 5.7427 23.299 31.21 1.1615 2.932 2.2004 5.5524 3.2421 7.6245z" data-name="Path 11991"/>
  <path d="m76.13 279.89a73.967 73.967 0 0 1-14.954-36.444c-4.0554-30.965 12.634-45.024 4.2514-120.43-3.9469-35.457 0.66956-54.257 14.519-65.16 12.747-10.035 29.652-8.8114 39.029 2.9362 1.1009 1.38 1.9452 0.8669 1.0445-0.64701-8.9439-15.042-22.658-20.546-47.363-19.593-15.287 0.58639-28.712-0.090214-38.733-2.378-25.932-5.9316-31.882-3.2097-33.502 1.5365-2.8375 8.3462 8.1855 25.59 40.385 31.132 2.3611 0.40596 2.619-0.83871 0.27064-1.3194-31.022-6.3531-40.938-21.56-38.4-29.017 1.2686-3.7538 6.7026-5.9203 30.92-0.76259 10.183 2.1694 23.712 3.0053 39.119 2.409 19.593-0.75414 31.998 3.2421 40.017 11.064-9.8982-5.9936-23.371-5.3396-34.08 3.0927-14.338 11.289-18.769 30.765-15.164 66.886 7.9826 79.969-9.1624 86.936-4.7489 120.44a68.562 68.562 0 0 0 16.502 36.923c2.2554 2.4837 2.853 1.7944 0.89651-0.67238" data-name="Path 11992"/>
  <path d="m14.718 81.437c-0.77246-4.0582 5.0139-9.6022 19.851-12.87 0.96135 0.31152 2.409 0.74568 3.0081 1.0065-15.778 3.0546-21.324 8.6493-20.797 11.418 0.50464 2.6486 3.7805 5.9401 26.071 5.8428 1.8593-0.0085 1.9481 0.94161 0.09726 1.0318-20.178 0.98672-27.314-1.6224-28.231-6.432" data-name="Path 11993"/>
  <path d="m55.583 110.89c-1.6168-0.65688-3.1364-2.9827-2.3047-10.193-10.096 7.6866-17.674 7.7937-19.832 4.8039-1.7169-2.3752-0.64983-8.4393 7.836-18.218a10.893 10.893 0 0 1 1.8564 0.3228c-9.1398 10.397-8.9199 15.679-8.07 16.856 1.6267 2.2554 9.5106 1.4279 18.584-5.7963 0.7203-0.57371 1.3307-0.54692 1.1784 0.49054-0.88946 6.0613 0.32139 9.402 1.473 9.8672s3.8524-0.89651 7.2693-5.6215c-0.05074 0.61318-0.19875 2.0862-0.21708 2.9136-3.6495 4.5389-6.1487 5.231-7.7711 4.5713" data-name="Path 11994"/>
  <path d="m85.764 41.648c-2.5641-4.9731-1.0699-10.114 2.2173-11.196 2.9602-0.97685 5.7794 1.8508 9.8968 6.463 0.29884 0.95289 0.96417 3.1885 1.1277 3.8242-5.7723-7.1185-8.5154-8.9707-10.363-8.2969-2.6472 0.96417-3.2745 4.6376-1.473 9.3922z" data-name="Path 11995"/>
 </g>
</svg>
