<?xml version="1.0" encoding="UTF-8"?>
<!-- Created with Inkscape (http://www.inkscape.org/) -->
<svg version="1.1" viewBox="0 0 356.39 282.75" xmlns="http://www.w3.org/2000/svg">
 <path d="m213.51 65.239c-0.54623-5.991-3.7003-10.59-4.5637-13.233-2.414-7.4887-7.101-23.876-7.5592-36.192-0.44051-11.647 2.1497-14.555 7.4711-14.731 6.2729-0.21145 7.2596 6.3081 7.0658 10.132 4.3875 0.45813 9.3565 1.2158 10.326 2.1849 0.96912 0.9515 2.1673 1.9206 1.4449 6.9953-0.72244 5.0747-1.1101 7.7001-3.5241 7.9468-1.4625 0.14096-4.6518 0.03524-7.8059-0.19382 0.0881 1.4977-0.0176 3.4712 0.10572 5.0218 3.577 0.10572 6.361 0.82816 6.9777 1.6916 0.49338 0.70482 2.414 13.039 1.674 13.762-0.54624 0.54623-3.1541 0.9515-5.3566 1.2334 2.3435 4.5461 4.317 10.96 5.5328 16.634 13.004-5.9381 31.223-3.3655 49.038 7.5944 0 0 12.158 7.612 16.387 12.722 15.471 14.784 26.73 42.553 26.73 65.46 0 24.034-10.044 49.355-30.589 65.566 0 0-7.013 5.6562-11.524 8.0173-16.176 9.8675-35.558 15.4-55.839 15.4-20.686 0-40.139-5.6209-56.262-16.228-3.3303-2.2554-12.017-9.8498-12.017-9.8498-28.475-30.501-31.012-52.227-30.237-70.499 0.19382-2.1849 0.19382-5.6209 0.19382-5.6209 8.2992-48.826 61.707-89.759 92.331-73.812m13.233 13.268c-0.10572 2.9426 0.22907 3.577 1.1453 4.9161 1.9559 2.8898 8.1759 6.8015 11.541 9.6384 12.422 10.449 19.576 21.638 19.576 35.946 0 19.77-18.59 33.867-37.391 33.849-23.136-0.0176-39.065-14.343-39.065-36.175 0-11.295 5.4976-22.889 17.321-32.069 6.2024-4.828 10.59-8.3345 13.145-10.942 1.3392-1.3744 1.4272-2.925 1.3215-4.0527-0.38765-4.0351-6.1495-7.2773-15.33-7.2773-6.9601 0-16.317 3.1893-24.44 7.894-21.25 12.281-35.893 32.245-40.421 54.13 0 0-1.5682 3.1364-1.4449 6.6253-1.762 15.947 1.0044 42.324 21.832 63.205 0 0 7.0306 7.6473 10.502 10.326 10.361 10.079 28.387 16.035 54.747 16.035 20.669 0 39.435-6.3962 54.183-16.775 5.1628-3.3479 11.506-9.4798 11.506-9.4798 13.497-13.55 21.109-32.14 21.109-52.068 0-22.625-7.7178-40.562-24.052-57.319-2.3788-2.8545-15.295-12.898-15.295-12.898-13.726-9.3036-30.342-11.735-40.492-3.5065" fill="#EEF4F7"/>
 <path d="m232.67 108.24c0.66958 5.5504-0.98675 8.1935-2.4845 8.4226-1.5506 0.22907-3.9822-3.0483-4.6518-7.5416-0.72244-4.828-0.0529-8.2111 2.2907-8.5459 1.9735-0.29955 4.2289 2.5726 4.8456 7.6649" fill="#EE869A"/>
 <path d="m225.76 163.5c2.9426 4.5285 10.114 14.889 9.6384 24.968-0.44051 9.6736-7.3477 13.004-12.211 13.356-4.8456 0.33479-13.356-1.392-15.823-11.647-2.6783-11.171 6.3258-21.814 9.8322-27.03z" fill="#EE869A"/>
 <path d="m224.67 170.82c-1.4449 0.26431-5.3742 6.9953-4.4051 12.229 0.81054 4.4756 3.806 4.8104 5.4095 4.7223 1.4977-0.0705 4.5285-1.2334 4.1408-6.5372-0.4229-5.6914-4.8104-10.467-5.1452-10.414" fill="#EEF4F7"/>
 <path d="m182.61 234.92c-1.2863 10.995-6.4667 19.7-13.339 20.299-4.1232 0.35241-8.405-2.3612-11.612-7.101-7.9821 9.0745-28.246 32.157-29.461 33.232-1.4801 1.3215-5.3919-0.0176-7.894-2.8898-2.5021-2.8721-1.9383-7.3125-0.0881-9.3388 0.45813-0.51099 1.5506-1.7444 4.5285-4.687-1.0044-4.5813-2.925-13.127-2.925-13.638 0-0.6872 14.96-17.127 15.418-17.127 0.29955 0 2.3259 7.9997 3.5593 13.392 5.709-6.2553 10.978-12.264 11.718-13.004-0.45813-2.0792-1.1101-4.5461-1.3039-6.731-1.2863-15.013 3.9646-29.409 13.057-30.201 8.4402-0.74006 16.017 10.608 18.114 24.457 0 0 0.22907 2.8369-0.0529 3.3655-13.603-5.2685-17.85-11.295-17.85-11.295-1.1453 2.6783-1.6387 7.4358-1.2158 12.299 0.35241 4.0175 1.2158 7.6473 2.4316 10.202 4.317-0.56385 5.8148-5.0042 5.8148-6.2729 0 0 8.6516 4.2994 11.101 5.0394" fill="#3E3A39"/>
 <path d="m285.33 236.4c1.7973 1.2334 46.536 34.113 48.086 35.029 1.533 0.93388 4.8104-1.3215 6.502-4.9514 1.392-2.9602 1.2158-7.0658-0.35241-8.1583-2.1673-1.4977-4.3699-3.0483-4.3699-3.0483 1.6563-4.687 5.2509-15.066 4.8104-15.488-0.56386-0.56386-15.295 4.6694-15.295 4.6694s-5.8324-17.021-6.9953-17.18c-0.89865-0.10572-3.5946 8.8102-4.687 13.18 0 0-25.056-17.303-26.589-18.237 0.81054-17.55-4.687-34.166-11.682-34.166-3.3303 0-6.8896 4.2113-10.378 16.035-0.33479 1.1277-1.3039 1.8325-2.9426 1.5154-1.6211-0.31717-3.7003-0.81055-4.7752 1.1277-1.0748 1.9559-2.7664 10.819 1.3039 16.017 0 0 7.9644-3.295 10.625-5.4447-0.89865-2.7312 1.5858-5.7266 3.0131-5.7266 2.3964-0.0176 3.8236 5.3214 3.8413 11.224 0 5.9029-1.0396 10.713-3.436 10.713-1.2334 0-3.0836-1.9559-3.806-3.6827l-6.2905 2.9074c1.0396 12.969 6.9601 21.99 13.215 21.973 4.5461 0 8.7221-8.5459 10.202-18.308" fill="#CF7240"/>
 <path d="m113.28 160.08c2.3611-0.65196 4.8985-1.533 7.5063-2.6254-0.47575-4.4932-0.35241-5.5328-0.35241-5.5328-3.4536 1.533-7.1187 3.2422-9.5327 3.7708z" fill="#FFE893"/>
 <path d="m108.31 151.13c5.4271 10.555 10.784 21.109 10.766 21.374-0.0352 0.54623-1.6563 4.5461-2.0968 5.1276-0.44051 0.56386-17.515 9.1979-19.523 9.8675-1.9911 0.66958-3.9117 1.6035-12.141 0.93389-8.2464-0.66958-21.409-2.3612-21.409-2.3612s-35.029 16.017-38.483 17.356c-2.5726 0.98675-4.6342 2.1673-11.083 1.2863-6.4491-0.89865-12.387-3.577-12.722-3.7179-0.33479-0.15859-1.1453-1.9206-0.93388-2.2554 0.21144-0.33479 7.1715-11.559 9.6208-13.55 2.4316-2.0087 4.8809-4.6694 10.22-6.9072 5.339-2.2202 36.263-16.687 36.263-16.687s9.3036-14.396 12.845-18.131c1.7444-1.8502 4.1937-3.9822 8.6164-5.8148 5.4271-2.2378 18.378-7.9997 18.801-7.8587 0.19383 0.0529 6.6077 12.352 11.259 21.338" fill="#FFE893"/>
 <g fill="#dfa04f">
  <path d="m115.01 165.07s-13.145 6.731-16.14 7.753c-2.9955 1.022-6.4491 2.044-10.748 2.3259-6.5548 0.40527-25.003-3.9998-25.003-3.9998 8.5812-14.695 9.8322-15.418 13.162-19.171 1.3744-1.5506 4.458-4.3522 7.242-5.7971 1.903-1.0044 17.603-7.7882 17.603-7.7882z"/>
  <path d="m48.099 167.81c2.4316 0 4.3346 1.8325 4.3346 3.7708 0 2.3964-1.6916 4.1584-3.9117 4.1584-2.8898 0-4.2994-1.8502-4.2994-3.7884 0-2.0087 1.5858-4.1408 3.8765-4.1408"/>
  <path d="m37.686 172.37c2.784 0 4.3346 2.4316 4.3346 4.5108 0 2.6607-2.273 4.0527-4.1937 4.0527-2.5021 0-4.3875-2.1145-4.3875-4.0527 0-2.8369 2.1145-4.5108 4.2465-4.5108"/>
  <path d="m48.49 179.76c2.555 0 3.947 2.0616 3.947 3.947 0 2.7488-1.6387 4.2289-3.9646 4.2289-2.3964 0-4.1056-1.6916-4.1056-3.9118 0-2.1497 1.4801-4.2642 4.1232-4.2642"/>
  <path d="m26.949 189.04c2.5726 0 3.9646 2.4492 3.9646 4.1056 0 2.3964-1.533 3.9998-4.0527 3.9998-2.2026 0-3.7884-1.9735-3.7884-3.6298 0-2.5197 2.0968-4.4756 3.8765-4.4756"/>
 </g>
 <g fill="#3e3a39">
  <path d="m216.04 128c0 4.2465-1.6916 7.0658-4.0175 7.0658-2.3964 0-4.1408-2.8721-4.1408-7.1363 0-4.5461 2.3612-7.1363 4.1408-7.1363 2.5902 0 4.0175 3.3303 4.0175 7.2068"/>
  <path d="m249.82 126.39c0 3.8236-1.4801 6.22-3.3126 6.22-2.1849 0-3.5946-2.2907-3.5946-6.22 0-4.1937 1.9559-6.3258 3.6122-6.3258 2.3788 0 3.295 2.7488 3.295 6.3258"/>
  <path d="m235.96 132.85c0-2.8016-2.3083-5.3566-5.339-5.3566-3.0483 0-5.3566 2.5902-5.3566 5.3566 0 2.1321 1.3568 4.1232 3.3655 4.9514-2.0968 4.5989-5.4624 11.964-5.2509 12.422 0.22906 0.52861 8.5988 1.9559 11.753-1.3392 0.58147-0.59909-1.8149-7.383-2.784-10.995 2.1321-0.75768 3.6122-2.8016 3.6122-5.0394"/>
  <path d="m306.55 109.15c3.2598-3.2069 6.0438-5.0747 6.6077-6.5548 0.82817-2.1849 1.7797-12.123 1.8149-20.352l-10.484-13.268c-5.2861-1.022-22.695-1.022-24.581-0.24669-1.0748 0.45813-16.07 16.739-16.387 17.99s-0.96912 6.4138-0.49337 8.1054c0.65196 2.2554 21.426 27.523 22.36 28.175 0.93389 0.66957 4.1408 1.7092 5.1276 1.4096 0.35241-0.10572 4.176-3.5946 7.7354-6.9601-2.8369-7.242-9.3741-14.29-9.3741-14.29l-1.2863 1.3744s-7.6649-8.7926-7.3654-9.6032c0.29955-0.82816 10.608-10.467 11.242-10.343 0.65196 0.10572 7.1539 10.008 7.1539 10.008l-0.84578 0.89864s7.1892 8.8807 8.775 13.656"/>
 </g>
 <path d="m340.13 31.699c0.52861-0.66958 14.748-2.6959 15.154-2.2202 0.38765 0.49337-2.9955 15.629-3.9646 16.669-0.98675 1.022-38.395 37.32-39.135 37.267-0.74006-0.07048-7.8059-9.4798-7.9292-10.026-0.12334-0.52861 0.22907-4.4227 0.22907-4.4227s10.731-10.431 11.083-10.854c0.33479-0.44051 8.7574 2.1849 8.7574 2.1849s1.7973-14.466 2.2907-14.854c0.49338-0.38765 12.088 0.15858 12.088 0.15858s0.89865-13.233 1.4273-13.903" fill="#dddcd6"/>
 <path d="m132.66 150.02c7.0129-4.828 11.559-10.167 10.132-13.092-1.9383-3.9822-13.585-1.8502-25.744 4.0527-9.5503 4.6518-17.532 10.167-19.224 14.449-0.84578 2.1673 1.4096 3.3655 3.7532 2.6959 2.273-0.65195 3.6474-2.5726 4.7223-3.806 1.2863-1.4449 5.6738-5.6386 12.775-9.0922 6.0438-2.925 15.4-5.3742 15.982-4.0527 0.26431 0.61671-0.0705 1.7268-2.3964 3.1893 0 0-0.63434 3.6474 0 5.6562" fill="#FFE893"/>
 <g fill="#fff">
  <path d="m223.34 175.64c-0.91626 0-1.7797 1.3215-1.7797 2.8193 0 1.4801 0.89865 2.7136 1.7444 2.7136 0.89864 0 1.6387-1.3039 1.6387-2.7136 0-1.4096-0.75768-2.8193-1.6035-2.8193"/>
  <path d="m210.78 96.202c-0.5991-0.6872-2.9426-0.19382-5.339 1.7797-2.2554 1.8501-2.8017 4.7223-2.0616 5.5504 0.75768 0.86341 4.1937 0.0176 5.9557-1.8678 1.9206-2.0264 2.2026-4.5989 1.4449-5.4623"/>
  <path d="m190.35 66.774c-0.38765-0.98675-2.9426-1.4801-5.5857-0.37003-2.6431 1.1101-4.1232 3.6298-3.577 4.7399 0.56386 1.0925 3.7003 0.66958 5.6562-0.19383 2.6783-1.163 3.9294-3.1012 3.5065-4.176"/>
  <path d="m206.51 5.2154c0 1.1982 1.022 2.2554 3.0483 2.2554 1.6035 0 2.6254-1.022 2.6254-2.3083 0-1.0044-0.93388-2.0616-2.6783-2.0616-1.6563 0-2.9955 1.1277-2.9955 2.1145"/>
 </g>
 <g fill="#cbd0d3">
  <path d="m275.34 225.86c-16.176 9.8498-35.558 15.383-55.839 15.383-20.686 0-40.139-5.6209-56.262-16.228-1.2334-8.1759 1.7973-10.484 1.7973-10.484 10.361 10.061 28.387 16.035 54.729 16.035 20.669 0 39.452-6.3962 54.201-16.775 0 0 2.5021 4.4932 1.3744 12.07"/>
  <path d="m286.86 217.84c6.1672-4.8632 11.365-10.555 15.647-16.775-4.4404 1.0925-8.123-1.2158-9.4798-5.7619-2.2554 3.1893-4.7751 6.2024-7.5416 8.9864 0 0 1.3744 11.471 1.3744 13.55"/>
  <path d="m151.21 215.17c-12.757-13.656-20.281-25.55-24.669-36.175 2.4316 1.4273 6.9248 1.2863 10.097-3.4184 3.3655 9.7265 8.9688 19.682 17.885 28.633 0 0-3.2598 7.8764-3.3126 10.96"/>
  <path d="m183.17 135.74s2.5902 25.426 39.065 27.083c28.651 1.3039 36.192-25.268 36.192-25.268-34.378 29.69-71.099 0.79292-74.728-2.8545"/>
 </g>
 <path d="m235.47 191.49c-14.502 11.207-28.58-3.5241-28.792-6.3786 0 0-1.4449 13.744 13.18 16.704 12.969 2.6431 15.612-10.326 15.612-10.326" fill="#CF7487"/>
 <path d="m228.21 167.96c-5.2685 4.6166-14.29 0.21145-14.29 0.21145l3.295-4.828 8.5812-0.44051z" fill="#CF7487"/>
 <g fill="#2f2725">
  <path d="m171.2 229.9c-1.0748 6.4667-5.3919 5.7795-5.3919 5.7795s2.0792 4.2994 4.317 4.458c2.7136 0.19383 3.9294-3.3831 4.1937-7.8587z"/>
  <path d="m173.2 220.74c-1.8501-7.3125-5.3919-9.3917-6.3081-9.0041 0 0-1.6916 0.29955-2.1497 2.4669 0 0 6.0791 5.3038 7.4535 6.1495z"/>
  <path d="m118.99 271.48c-0.63434 1.3568-2.0616 3.9998 1.9206 7.6473 3.9998 3.6651 6.6605 3.3303 7.5239 1.9382 0.88102-1.392 1.3392-4.3346-1.9206-7.383-3.2598-3.066-6.731-3.9294-7.5239-2.2026"/>
  <path d="m161.91 238.22-33.338 37.532s0.9515 2.414 0.74006 4.4051c0 0 30.078-33.867 31.646-35.752 1.5858-1.8854 0.9515-6.1848 0.9515-6.1848"/>
  <path d="m181.41 241.16s-4.4051 7.8587-10.061 9.2331c-5.6562 1.3568-9.4446-4.5108-10.061-5.8852l-3.0483 3.9822s4.7223 8.1759 11.947 7.0306c7.242-1.1453 11.224-14.361 11.224-14.361"/>
 </g>
 <path d="m302.37 101.23c-7.5592-1.1982-8.8807 5.8852-8.8807 5.8852s-9.938-12.317-11.489-13.515l7.0834-7.5592s12.317 13.268 13.286 15.189" fill="#CBD0D3"/>
 <path d="m291.57 105.85c-1.2158 0.93388-2.044 1.5858-2.044 1.5858l-2.784-3.7003 2.3259-1.7092z" fill="#2F2725"/>
 <g fill="#aa5c31">
  <path d="m332.87 266.79-52.456-38.325s-1.6739 2.925 1.674 5.4447 50.888 36.968 50.888 36.968z"/>
  <path d="m338.74 258.83c-1.163 0.0352-4.1937 2.0968-5.0218 5.0218-0.84579 2.9426-1.9911 7.2244 0.82816 7.753 2.8369 0.52861 5.1452-3.6651 5.9733-5.7619 0.84578-2.0968 1.3568-7.1187-1.7797-7.013"/>
  <path d="m275.48 214.21c-1.2687-4.687-3.5593-6.1143-5.0394-5.709-1.9206 0.52861-4.687 2.273-5.4271 10.132l2.414-1.4801s0.31717-5.5328 3.4536-5.6386c1.2334-0.0529 2.1849 1.4096 2.8721 3.1717 1.0748 2.7488 2.4669 2.2378 1.7268-0.47575"/>
  <path d="m282.19 234.96s-0.84578 7.3125-4.2113 13.321c-3.8765 6.9248-12.546-1.6739-14.114-6.731 0 0 4.6166 13.938 11.524 13.515s9.8322-16.757 9.8322-17.391z"/>
 </g>
 <g fill="#dcc87f">
  <path d="m2.798 200.23s15.347 1.3215 17.797 0.56385c2.4669-0.75768 43.364-19.03 43.364-19.03s25.003 4.3523 30.395 2.3611c5.4095-1.9735 24.633-11.647 24.633-11.647l-2.3788 5.8852-19.788 9.3741s-2.7488 1.4096-7.2949 0.93388c-4.5461-0.47575-25.655-2.8369-25.655-2.8369l-40.051 18.096s-2.6607 1.4977-6.6253 0.93388c-3.9822-0.56385-14.59-3.7884-14.59-3.7884z"/>
  <path d="m110.74 155.88 2.2026 4.4051 7.5416-2.4316 0.10572-5.7971z"/>
  <path d="m138.76 145.17c-3.6651 0.56385-4.1408-2.0616-4.1408-2.0616l-1.5154 1.7444-0.0705 5.0042s3.2598-2.1321 5.7267-4.687"/>
 </g>
 <g fill="#cbd0d3">
  <path d="m227.34 13.649c0 0.51099-1.022-1.2687-1.1982-0.40527-0.6872 3.2422-1.392 11.894-2.4492 12.528-1.3392 0.81054-10.132 0-11.066-0.12334-0.93388-0.14096-2.9426 0.26431-1.6035 1.4625 1.3215 1.1982 13.744 2.1321 15.206 0.93388 1.4625-1.1982 1.1101-14.396 1.1101-14.396"/>
  <path d="m221.02 33.514c0.40527 3.2069 2.0087 10.414 1.3392 12.669-0.33479 1.1453-2.414 1.6035-3.9998 1.8678-1.6035 0.28193-4.6694 2.0087-1.8678 2.0087s7.5944-0.52861 8.5283-1.4625c0.66957-0.66958 0.1762-8.7045-0.93389-12.81-0.45813-1.6916-3.066-2.273-3.066-2.273"/>
  <path d="m227.49 73.68s15.365-6.502 35.311 3.9822c0 0-22.167-8.7045-36.192 0.5991z"/>
  <path d="m229.59 183.28c-0.81054 0.81054-1.9382 1.8502-3.947 2.0087-2.0087 0.15859-4.9866-0.96912-5.4624-2.5726 0 0 0.88102 4.9866 5.4624 4.9866 4.1056 0 3.947-4.4227 3.947-4.4227"/>
 </g>
 <path d="m232.97 110.63c-0.96913 1.533-1.3744 2.414-3.066 2.6607-1.6916 0.22907-3.7003-1.533-3.9294-2.8193 0 0 1.5154 6.7486 4.4227 6.2729 2.8898-0.47575 2.5726-6.1143 2.5726-6.1143" fill="#CF7487"/>
 <g fill="#0d131a">
  <path d="m215.01 33.292c-0.12334-1.5506-0.22907-3.1012-0.31717-4.6342-0.0529-0.81054 2.8898-0.96912 2.9426-0.15858 0.0881 1.4977 0.1762 3.0131 0.31717 4.5461 0.0705 0.81054-2.8721 1.022-2.9426 0.24669"/>
  <path d="m208.03 22.985c-0.24669-2.3435-0.54623-6.0967 0.14096-9.2331 0.37003-1.7797 1.2687-1.5682 1.2158 0.24669-0.0529 2.7664-0.0529 6.5724 0 9.0393 0.0529 2.8721-1.0572 2.784-1.3568-0.05286"/>
  <path d="m212.61 65.59c-1.3744-4.1232-3.577-9.7265-4.8456-13.127-7.2068-19.206-10.748-43.628-4.7751-50.042 2.8369-3.066 8.123-3.2598 11.101-0.35241 2.3259 2.2554 2.784 6.1319 2.8369 8.4226 8.3697 0.95151 9.3565 1.4096 10.502 2.273 1.1277 0.84578 2.4669 2.6607 1.7268 7.8411-0.63434 4.4404-1.0044 8.8279-4.8456 9.1979-2.3964 0.24669-8.5283-0.56386-12.458-1.6739-1.903-0.52861-1.8502-1.6739 0.12334-1.4625 4.0527 0.42289 10.273 0.81054 12.229 0.5991 1.1101-0.10572 1.2687-1.7268 2.0264-7.0834 0.5991-4.1408-0.0705-5.0042-0.91626-5.6209-0.84579-0.63434-3.0307-1.2158-9.5503-1.8854-1.2687-0.12334-1.4096 0.03524-1.3215-1.533 0.0705-1.1982 0.10572-5.2333-1.9559-7.3301-1.903-1.9383-6.0967-1.4449-7.612 0.19383-4.599 4.9337-1.2863 26.484 5.48 47.54 1.4273 4.4756 3.6474 10.255 4.317 14.484 0.14097 0.81054-1.8149 0.28193-2.0616-0.44051"/>
  <path d="m217.5 49.205c2.6254-0.40527 5.8852-1.1101 6.3258-1.5682 0.44051-0.45813-1.3392-11.436-1.6563-11.964-0.29954-0.52861-3.2598-1.5858-9.2155-1.6387-1.903-0.01762-1.8678-1.3744 0-1.6035 4.6694-0.54623 10.273-0.42289 11.682 1.5858 0.54623 0.75768 1.1453 4.5108 1.5682 7.5239 0.98675 7.1187 0.47575 7.612-0.0529 8.1407-0.84578 0.82816-4.2818 1.3039-8.8983 1.0044-1.8149-0.12334-2.3611-1.0748 0.24669-1.4801"/>
  <path d="m158.64 235.63c-1.4801-0.8634-2.0616-1.1982-3.4184-1.6211-0.93388-0.28193-0.72244-1.2334 0.24669-1.1101 1.4449 0.1762 2.9602 0.89864 3.7884 1.8325 0.96913 1.1101 0.42289 1.5154-0.61672 0.89864"/>
  <path d="m165.25 256.18c-2.8721-1.1101-5.6914-3.577-8.0878-6.8367-0.37003-0.49337 1.4096-1.8149 1.7797-1.3215 3.1012 4.2289 6.731 6.3786 10.237 6.0967 5.9029-0.511 10.819-8.0349 12.246-18.713 0.0881-0.5991 1.8149-0.19382 1.7444 0.42289-0.88102 9.1626-4.3523 16.334-9.1626 19.4-2.6431 1.6916-6.0262 2.0087-8.7574 0.95151"/>
  <path d="m139.98 246.31c3.1364-3.436 6.1319-6.7839 8.3169-9.2331 1.4801-1.6563 2.8017-2.9955 2.9955-3.3479-0.61672-1.9911-1.4096-5.339-1.4801-10.889-0.0881-6.7134 1.1453-12.74 2.7488-16.616 2.5902-6.3258 6.872-10.22 11.594-10.625 8.7045-0.75768 16.951 10.625 18.783 26.061 0.35241 2.8193-0.75768 2.925-1.2511 0.12334-2.4316-13.568-9.9379-24.211-17.339-23.559-3.8589 0.33479-7.2244 3.5593-9.4974 9.0922-1.4625 3.5593-2.6959 9.3212-2.7136 15.453 0 3.2598 0.33479 6.6077 1.163 9.797l0.28193 1.251c0.0705 0.37003-0.0352 0.75768-0.29955 1.022-0.31717 0.31717-1.6563 1.8149-3.3479 3.7003-2.1849 2.4669-5.1804 5.8324-8.3169 9.2684-0.22907 0.22907-2.044-1.0396-1.6387-1.4977"/>
  <path d="m168.98 240.58c-4.0879-1.3039-6.2553-8.0702-6.8191-14.537-0.45813-5.3742 0.0881-11.964 2.3435-14.572 0.7753-0.88102 1.5682-1.0925 2.1145-1.1277 0.79292-0.0352 2.3788 0.17621 3.7179 2.6607 0.72244 1.3568 0.10572 1.762-0.96913 0.66958-1.0044-1.0396-2.0968-2.0087-3.1893-0.75768-1.2863 1.4977-2.3611 6.5372-1.8149 12.933 0.66958 7.7882 3.1012 12.475 5.1628 13.074 0.82816 0.22906 1.3215 0.10572 1.6739-0.15859 0.9515-0.7753 0.93388-0.10572 0.75768 0.54624-0.19382 0.68719-1.1806 1.8502-2.9779 1.2687"/>
  <path d="m271.69 255.64c-5.0747-2.5374-9.9379-11.171-10.819-22.043-0.0352-0.61672 1.7797-0.63434 1.8678-0.0352 1.392 9.8675 5.9557 17.374 9.9908 19.4 1.5682 0.79292 3.0131 0.98675 4.5989-0.28193 2.925-2.3259 5.7443-8.8102 6.9072-16.458 0.0881-0.5991 1.7092-0.31717 1.674 0.29954-0.511 7.4006-3.4889 15.841-7.4711 18.766-1.9911 1.4625-4.1584 1.6387-6.7486 0.35241"/>
  <path d="m267.89 230.75c-0.21145-0.56385 1.4273-1.2334 1.6916-0.6872 1.533 3.0836 3.2598 2.9426 3.9822 0 0.42289-1.7973 0.7753-4.2818 0.75768-7.2596 0-2.8721-0.33479-5.5504-0.96913-7.5063-1.3215-4.176-2.9602-2.9426-4.1056 1.2863-0.15859 0.59909-2.1849 1.163-2.1145 0.54623 0.61672-5.4447 3.4008-6.872 4.5461-6.8544 4.2289 0.12334 5.0923 8.634 5.1099 12.528 0 3.2069-0.29955 5.9205-0.86341 7.894-1.4977 5.1452-6.0438 5.2333-8.0349 0.0529"/>
  <path d="m212.12 121.33c-1.7797 0.0352-3.4888 2.3435-3.4888 6.6077 0 3.7003 1.4625 6.6429 3.436 6.6429 1.8854 0 3.2422-2.9074 3.2422-6.5724 0-3.1188-1.163-6.7134-3.1893-6.6782m-0.0881 14.466c-2.8721 0-4.8809-3.2245-4.8809-7.8587 0-4.8632 2.5374-7.8763 4.8809-7.8763 2.8545 0 4.7575 3.1893 4.7575 7.9468 0 4.5813-1.9559 7.7882-4.7575 7.7882"/>
  <path d="m228.08 100.89c-2.2907 0.28193-2.044 5.5328-1.6739 8.1054 0.44051 2.9779 1.6563 5.48 2.6254 6.6253 0.81054 0.96913 1.5858 0.8634 2.1321-0.19383 0.5991-1.1806 1.0396-3.665 0.63434-7.0834-0.58148-4.7575-2.5374-7.4535-3.7179-7.4535m0.29955 16.035c-1.6916-1.2687-3.2246-4.2642-3.7179-7.6649-0.45813-3.1541-0.29955-9.0745 3.0307-9.5679 2.7488-0.38765 5.2333 3.2069 5.8676 8.4402 0.49338 4.1056-0.14096 6.8367-1.2687 8.2816-0.93388 1.1806-2.5726 1.5154-3.9117 0.51099"/>
  <path d="m220.28 101.02c-11.911 3.4712-20.175 16.581-20.264 26.695-0.0529 8.2288 2.6254 15.506 7.5592 20.457 4.5813 4.6342 11.066 7.0834 18.748 7.0834 7.1187 0 14.167-3.0836 19.312-8.4402 5.0394-5.2685 7.7706-12.229 7.4711-19.083-0.45813-11.136-7.3654-21.374-17.021-25.567 0.88102 2.4845 1.4977 5.1628 1.8502 7.9292 0.84578 6.8191-2.0264 12.387-6.6782 12.969-4.7399 0.5991-8.6516-2.8369-10.255-8.9336-0.72244-2.784-1.4273-6.7486-0.72244-13.11m6.0438 55.998c-18.272 0-28.915-12.475-28.792-28.739 0.0881-12.246 10.114-26.219 23.594-29.303 1.3039-0.29955 1.1453 0.44051 1.0748 0.98675-0.93388 6.8191-0.21144 10.907 0.52861 13.709 1.3568 5.2685 4.4756 8.1054 8.2992 7.6473 3.6122-0.45814 5.8676-5.2861 5.1452-11.013-0.33479-2.6959-0.84578-6.0614-2.5021-10.907-0.49337-1.4449 0.33479-1.9735 1.0044-0.5991 0.17621 0.37003 0.47575 1.022 0.65196 1.392 11.083 3.9998 19.471 15.206 19.999 27.629 0.65195 15.418-11.7 29.197-29.003 29.197"/>
  <path d="m246.52 120.51c-1.163 0-2.8721 2.0616-2.8721 5.8676 0 3.3831 1.022 5.8852 2.784 5.8852 1.2334 0 2.6431-2.3259 2.6431-5.8852 0-2.0792-0.31717-5.8676-2.555-5.8676m-0.0176 12.828c-2.6607 0-4.3346-2.6607-4.3346-6.9601 0-4.5813 2.2378-7.0482 4.3523-7.0482 1.4977 0 4.088 1.392 4.0351 7.0482-0.0529 4.1056-1.674 6.9601-4.0527 6.9601"/>
  <path d="m224.9 150.11c1.8678 0.21145 6.7663 0.38765 9.0041-0.84578 0.98674-0.54624 0.93388-0.82816 0.74006-1.6211-0.35241-1.4449-1.3392-3.9646-1.8854-5.7443-0.42289-1.392-0.82816-2.7488-1.1101-3.8236-0.14097-0.52861-0.14097-0.66958 0.45813-0.88102 1.8325-0.65196 3.1188-2.4316 3.1188-4.3346 0-2.5021-2.1144-4.969-4.6166-4.969-2.7664 0-4.6166 2.7312-4.6166 4.969 0 1.7973 1.1982 3.5593 2.925 4.2642 0.84578 0.35241 0.51099 0.56385 0.29954 1.1806-0.19382 0.52861-3.5065 7.4711-4.7928 10.519-0.49338 1.2158-0.24669 1.1982 0.47575 1.2863m-1.3039 1.0396c-0.79293-0.26431-1.0748-0.44051-0.6872-1.6387 0.7753-2.4316 3.436-8.634 5.1099-11.559-2.273-0.96913-3.4888-2.925-3.4888-5.0923 0-3.3126 2.784-6.0967 6.0791-6.0967 3.3655 0 6.0791 2.7312 6.0791 6.0967 0 2.3259-1.5682 4.5285-3.7179 5.2509 0.74006 2.0264 2.8545 8.7398 2.925 10.008 0.0705 0.98674-0.0705 1.251-0.91626 1.8854-2.8369 2.1144-8.6693 2.0264-11.383 1.1453"/>
  <path d="m205.63 190.4c-2.5021-10.396 4.9514-20.07 9.0922-25.884 0.54623-0.75768 1.0396-1.4449 1.4449-2.0616 0.38765-0.58147 2.4669 0.82816 2.0792 1.392-0.42289 0.63433-0.93388 1.3392-1.4801 2.1144-3.8941 5.48-10.414 14.643-8.1759 23.911 2.5726 10.678 11.788 11.066 14.554 10.872 4.8456-0.33479 10.484-3.9117 11.013-12.334 0.5991-9.7441-4.4756-17.497-9.6384-24.581l2.784-0.26431c3.1893 4.8632 10.273 14.572 9.8146 24.545-0.47575 10.061-7.9468 14.995-13.832 15.365-7.0834 0.45813-15.4-3.7179-17.656-13.074"/>
  <path d="m224.58 171.31c-0.70482-0.0176-4.458 6.9072-3.5946 11.612 0.511 2.7664 1.9206 4.1232 4.3346 4.1232 1.251 0 4.1408-0.84579 3.7532-5.7619-0.37003-4.6694-3.7884-9.9556-4.4932-9.9732m0.74006 17.215c-2.0087 0.0352-4.969-0.93389-5.7795-5.339-1.0396-5.6209 2.7312-11.224 3.7355-12.281 1.0044-1.022 1.4272-0.98675 2.273-0.24669 1.762 1.5506 4.6694 6.0086 5.0042 10.519 0.31717 4.4227-1.8854 7.2772-5.2333 7.3477"/>
  <path d="m165.71 235.19c3.8765-1.022 4.687-4.828 4.687-5.5328 0-0.59909 1.5506-0.37003 1.5506 0.22907 0 1.9735-0.8634 6.0967-5.6738 6.6429-0.0881 0-1.163-1.1806-0.56386-1.3392"/>
  <path d="m161.88 237.28c-0.89864-1.0748-1.6035-0.65196-0.93388 0.58148 1.0396 1.9382 0.1762 4.4227-0.96912 5.9557-0.38765 0.52862-3.2069 3.6474-7.0658 8.0173-6.6605 7.5944-18.008 20.528-23.065 26.149-0.45813-2.1321-1.2687-3.4008-2.7664-4.8456-1.3039-1.2687-3.1012-2.1497-4.5285-2.4316-1.3744-0.2643-1.7797 0.14097-0.51099 0.72244 1.1982 0.54624 2.6431 1.4096 3.7355 2.4492 1.7797 1.7268 2.5902 3.7532 2.414 5.198-0.14096 1.3039-1.3392 1.7268-2.0968 1.6739-1.3568-0.0881-3.2598-1.0748-4.969-3.0131-2.1673-2.5021-2.1145-5.7619-0.0705-7.9116 0.45813-0.47575 1.5506-1.6916 3.7884-3.9117 0.29955-0.31717-0.14096-2.9955-0.56385-2.555-2.9426 2.8898-4.3523 4.3875-4.8809 5.0218-2.7664 3.2422-2.8017 7.5239 0.0705 10.801 1.8325 2.1144 4.7047 3.4888 6.9425 3.5593 1.0396 0.0352 2.1673-0.35241 3.0307-1.2158 0.65196-0.65196 12.722-14.114 25.127-28.228 3.7003-4.2113 6.4491-7.3301 7.101-8.1935 1.3744-1.8502 2.3435-5.2685 0.21145-7.8235"/>
  <path d="m124.54 267.02c-0.44051-1.4625-2.8369-11.594-3.5946-15.066-0.29955-1.3392-0.44051-1.3392 0.54623-2.6431 0.91626-1.1806 2.8545-3.4536 7.0482-8.0878 3.5065-3.8765 5.4976-6.0262 6.6958-7.2068 2.5021-2.5021 2.9602-1.1453 3.4536 0.44051 1.3744 4.3346 4.3875 16.651 4.1937 17.585-0.0881 0.47576-5.4623 5.8852-9.6384 10.502-2.2026 2.4316-3.1364 1.4449-1.022-1.0572 2.0968-2.4845 7.3654-8.4931 8.4402-9.9203-0.33479-2.0087-3.4712-16.546-3.7003-16.598-0.24669-0.0705-14.167 15.647-14.237 15.999-0.0705 0.33478 2.9074 14.607 3.0836 15.418 0.47575 2.273-0.61672 2.7664-1.2687 0.63434"/>
  <path d="m339.15 266.17c-0.79292 1.6739-1.7797 2.9955-2.9602 3.7532-1.0748 0.6872-2.6078 0.81054-2.6607-1.4977-0.0352-1.3744 0.28193-3.3655 1.0396-4.969 0.58147-1.251 1.3744-2.414 2.6254-3.4536 1.6739-1.392 2.5021 0.0352 2.6607 0.89864 0.26431 1.4096 0.12334 3.4888-0.70482 5.2685m1.0396-8.7574c-1.4096-1.022-4.2818-2.9779-4.2818-2.9779l-0.74006 2.1849 2.2378 1.5506c-1.7092 0.63434-3.3831 2.5726-4.3875 4.6166-0.93389 1.903-1.392 3.8413-1.3744 6.0086-0.47575-0.28193-22.114-16.176-33.179-24.299-9.004-6.6253-15.77-11.541-16.81-12.334-1.251-0.9515-1.2334-3.3303 0.19382-6.3258 0.45814-0.98674 1.2511-1.6387 2.1673-2.0264 1.4625-0.61672 2.925 0.0529 3.8941 0.70482 4.9337 3.3479 17.409 11.947 24.492 16.845 0.19383 0.12335 1.762-1.4801 1.2511-1.8149-0.95151-0.66958-22.589-15.647-26.554-18.272 1.1277-14.378-2.044-27.03-7.1539-32.386-2.5902-2.7136-5.8852-3.1188-8.3521-1.3568-2.9955 2.1321-5.9028 8.0526-8.2816 16.246-0.12334 0.47575-0.44051 0.96913-1.8854 0.6872-1.4272-0.28193-4.3346-0.84578-5.7443 1.7268-1.2687 2.3259-3.7355 11.365 1.3568 15.206 1.6916 1.2687 2.5021 0.38765 1.0572-1.163-2.9955-3.1541-1.3568-11.33-0.47576-12.969 0.54624-1.0044 1.5154-0.98674 3.3831-0.63433 1.8854 0.37003 3.7884-0.0705 4.4404-2.2378 2.6959-9.0922 5.198-13.004 7.2244-14.466 1.7444-1.2687 3.9118-0.68719 5.5504 1.022 4.6166 4.828 7.5592 17.444 7.1363 30.237-2.0792-0.28193-4.6166 1.251-5.6738 3.5241-1.9206 4.1232-1.5682 7.7002 0.72244 9.2684 0.65195 0.45813 8.3345 6.5372 16.969 12.881 19.647 14.449 30.36 22.078 35.153 25.268 1.0396 0.6872 2.3964 0.56385 2.8017 0.44051 2.0792-0.63434 4.317-2.8898 5.6033-5.6209 1.4977-3.2069 1.392-8.0173-0.74006-9.5327"/>
  <path d="m333.72 257.28c1.8502-5.9029 5.4447-15.735 4.9866-16.228-0.47575-0.49337-8.3521 2.555-13.638 4.4404-0.96912 0.33479-1.163 0-1.4096-0.6872-2.1144-6.1495-5.2156-15.488-5.9205-15.524-0.70482-0.0176-2.3612 8.0526-4.2465 13.814-0.56386 1.7092-1.6916 1.4625-1.3392-0.33478 1.5682-7.8235 2.7136-11.788 3.6298-14.29 1.4096-3.9118 2.7136-2.555 4.0175 0.0705 1.0748 2.1497 2.7664 6.3434 5.5857 14.484 6.872-2.4316 10.572-3.577 12.616-4.0703 3.2246-0.75768 3.4184 0.19382 2.8193 2.7488-0.54624 2.3788-2.1321 6.9777-5.9029 16.087-0.63434 1.4977-1.7268 1.1806-1.1982-0.51099"/>
  <path d="m329.11 256.73c-1.7268-1.0925-9.6032-6.2905-11.295-7.8411-1.6916-1.5506-0.54623-1.7973 0.79292-0.91626 1.3392 0.88102 9.4446 6.2553 11.101 7.7354 1.6387 1.4977 1.1277 2.1145-0.5991 1.022"/>
  <path d="m112.98 159.02c2.3611-0.65196 4.8456-1.5154 7.383-2.5726 0.56386-0.22906 1.4096 1.7973 0.84578 2.044-2.6078 1.0925-5.1804 1.9911-7.6473 2.6607-0.0881 0.0176-1.163-1.9735-0.58148-2.1321"/>
  <path d="m97.602 157.98c-0.7753-0.84578-0.95151-2.0264-0.47575-3.2246 2.3788-6.0438 14.29-12.792 19.435-15.295 11.647-5.6562 24.739-8.1583 27.224-3.0131 1.9559 3.9998-4.1408 10.114-10.502 14.484-0.49337 0.33479-1.7444-1.4801-1.2511-1.8325 7.5239-5.1628 11.136-9.9203 10.255-11.718-1.3392-2.7664-12.105-1.903-24.739 4.2289-10.097 4.9161-16.88 10.361-18.308 13.991-0.49337 1.2863 0.72244 1.8325 2.0264 1.4625 1.6563-0.47576 2.4845-1.6211 3.7355-2.925 1.2687-1.3215 5.3038-5.8852 13.603-9.9027 3.8941-1.903 10.396-4.088 14.184-4.4756 1.8854-0.19383 2.8898 0.22906 3.2774 0.96912 0.45813 0.84579 0.45813 2.5021-2.8193 4.5637-0.51099 0.33479-1.6916-1.533-1.1806-1.8678 0.52861-0.33479 0.91626-0.61672 1.1982-0.86341 0.44051-0.38765 0.8634-0.75768-0.26431-0.61671-2.7488 0.35241-8.6693 2.2907-13.321 4.5461-6.4315 3.1188-11.066 6.7663-13.004 8.9336-0.91626 1.022-2.273 2.6254-4.5637 3.295-0.93388 0.26431-3.2598 0.63434-4.5108-0.74006"/>
  <path d="m110.66 154.62c2.1321-0.37003 9.3388-3.7179 9.3388-3.7179 0.56386-0.22906 1.4449 1.7797 0.89864 2.0264 0 0-7.2244 3.3831-9.7617 3.8589-0.0881 0-1.0748-2.0616-0.47575-2.1673"/>
  <path d="m14.131 205.75c-6.502-0.89864-11.982-4.0175-12.845-4.4227-0.82816-0.40527-1.7973-2.273-0.96912-3.6298 0.29955-0.47576 6.5196-10.872 9.0393-13.233 2.6254-2.4669 6.0262-5.2157 10.608-7.1187 4.9161-2.044 32.21-14.977 35.787-16.651 1.4977-2.2907 9.656-14.643 12.969-18.131 1.7268-1.8325 4.3346-4.1584 9.145-6.1319 1.8854-0.79292 15.347-6.3786 16.986-7.013 2.9955-1.1806 2.7664-0.89864 3.947 1.1453 1.1806 2.0616 3.436 6.3962 8.2288 15.665 0.37003 0.72243-1.9206 1.9206-2.2907 1.1982-4.7575-9.1803-7.9292-15.629-8.3521-15.876-0.42289-0.22907-15.682 6.6782-17.585 7.4711-4.2818 1.762-6.5724 3.8413-8.1054 5.4623-3.4008 3.5946-12.581 17.779-12.669 17.92-0.14096 0.22907-0.37003 0.42289-0.61672 0.54624-1.2511 0.58147-31.012 14.484-36.316 16.704-4.1408 1.7268-7.2773 4.2113-9.8675 6.6782-1.533 1.4625-6.8896 8.4226-9.6208 12.828 0.07048 0.21144 0.19382 0.49337 0.29955 0.66957 1.3568 0.58148 7.101 2.6607 12.634 3.4184 5.48 0.75768 8.0702-0.28192 9.656-0.91626 1.5682-0.63434 38.747-17.444 39.1-17.603 0.24669-0.10572 0.52861-0.14096 0.79292-0.12334 0.14096 0.0176 13.233 1.7092 21.338 2.3611 7.3301 0.58148 8.8807-0.0352 11.119-0.72244 2.2378-0.66957 17.339-8.3521 19.347-9.6384 0.35241-0.66958 1.3215-3.0307 1.6387-3.9998-0.82816-1.8149-4.828-9.7265-9.8498-19.488-0.22907-0.42289 1.903-1.9559 2.044-1.674 10.555 20.51 10.097 20.916 10.079 21.426-0.0881 1.5154-1.1806 4.5461-2.0792 5.7619-0.96913 1.3215-18.449 9.6208-19.964 10.237-1.4977 0.63434-4.4051 1.5682-12.334 0.93389-6.872-0.56386-17.268-2.3083-20.51-2.784-0.35241-0.0529-0.63434-0.0529-1.0044 0.12335-5.5504 2.5374-37.232 16.916-38.624 17.515-4.176 1.7797-7.7706 1.5682-11.154 1.0925"/>
  <path d="m2.233 200.4c-0.40527-0.0529-0.54623-1.163-0.1762-1.1806 0.84578 0.0352 15.876 1.4096 17.233 1.1277 2.2202-0.47575 4.9161-1.4096 7.8059-2.6959 2.784-1.2334 30.906-13.991 35.946-16.299 1.022-0.45814 1.2687-0.38765 2.0792-0.24669 8.1759 1.4273 19.576 2.4316 24.158 2.555 2.0968 0.0529 5.0923 0.19382 8.1054-1.0748 3.4536-1.4449 20.739-10.502 20.915-10.59 0.35241-0.19383 1.0396 1.1101 0.6872 1.3039-0.72244 0.37003-17.515 9.1626-21.021 10.643-3.3303 1.392-5.6562 1.2511-8.7221 1.1982-3.8236-0.0705-16.704-1.1982-24.316-2.5726-0.56386-0.10572-0.6872-0.12334-1.1806 0.10572-4.8104 2.1673-33.25 15.083-36.051 16.334-2.9779 1.3215-5.7619 2.5021-8.1054 2.7664-2.6431 0.31716-16.14-1.1982-17.356-1.3744"/>
  <path d="m0.932 198.91c6.22-3.1893 61.672-28.334 61.672-28.334 7.5768-12.969 9.3741-15.154 12.07-18.167 1.1982-1.3392 4.8456-5.0923 8.4931-6.8896 1.9383-0.95151 17.004-7.5416 17.656-7.8235 0.37003-0.15858 0.95151 1.1982 0.58148 1.3568-0.15858 0.0705-15.682 6.8015-17.55 7.7706-2.7312 1.4273-6.8367 5.3919-8.0702 6.8015-2.6254 2.9602-4.4227 4.8632-12.035 17.885-0.07048 0.14096-0.1762 0.22906-0.31717 0.29954 0 0-52.773 24.457-61.989 28.281-0.70482 0.28193-1.3744-0.74006-0.51099-1.1806"/>
  <path d="m62.95 171.86c-0.38765-0.0881-0.05286-1.533 0.33479-1.4273 0.19382 0.0352 18.413 4.3523 24.774 3.9646 4.1761-0.26431 7.5592-1.2511 10.572-2.2907 2.9074-0.98675 15.911-7.6297 16.035-7.7002 0.37003-0.1762 1.0396 1.1277 0.66958 1.3215-0.52861 0.2643-13.215 6.7486-16.228 7.7882-3.1188 1.0572-6.9425 2.414-11.295 2.4845-6.6958 0.12334-24.14-3.9646-24.862-4.1408"/>
  <path d="m284.75 123.91c-2.1145-1.8149-19.911-22.149-22.783-28.792-0.84578-1.9383 0.10572-7.5239 0.47575-8.6693 1.1806-3.577 15.136-17.744 17.039-18.731 3.1012-1.6211 19.858-0.89864 25.18 0.49337 0.58147 0.15858 0.21144 1.9559-0.38765 1.8501-5.2685-1.022-22.325-0.93388-23.946-0.29955-1.4977 1.022-15.013 15.823-15.77 17.356-0.31717 1.1982-0.84579 6.0438-0.45814 7.4006 0.84579 2.3259 20.775 26.536 21.99 27.629 0.70481 0.49338 3.2598 1.2511 4.0175 1.2158 0.52862-0.38765 3.5065-3.0484 7.4358-6.7663 1.0925-1.0396 2.5374 0.70482 1.4449 1.7444-6.4315 6.0791-7.8235 7.0482-8.1583 7.1187-1.762 0.42289-5.3214-0.89864-6.0791-1.5506"/>
  <path d="m306.58 107.81c1.0925-1.0925 4.9514-4.2642 5.5504-5.6209 0.81054-1.8678 1.6916-11.682 1.7268-19.946 0.0176-0.61672 1.7268-1.2687 1.7444-0.65196 0.37003 8.7398-0.33479 19.03-1.4096 21.391-1.022 2.273-5.198 5.9205-6.2729 6.9777-0.22907 0.21144-1.7797-1.7268-1.3392-2.1497"/>
  <path d="m305.34 73.079c0.12334 0.47575 6.4843 8.8807 6.872 8.916 0.38765 0.05286 36.228-34.448 38.307-36.615 0.70482-1.1101 4.7047-15.365 4.5108-15.647-0.19382-0.26431-14.044 1.9911-14.378 2.3964-0.31716 0.38765-0.47575 8.0526-0.84578 13.533-0.0352 0.5991-0.58147 1.0572-1.1453 1.0396-0.0705 0-11.083-0.96912-11.471-0.56386-0.40527 0.38765-1.0572 8.5107-1.7797 14.29-0.10572 0.8634-0.81054 1.1101-1.4273 0.91626-3.1364-0.96913-7.4358-2.1849-7.9292-2.1497-0.49337 0.01762-10.361 9.7265-10.502 10.273-0.12335 0.56386-0.33479 3.1364-0.21145 3.6122m5.2685 10.361c-2.7136-2.7312-7.3477-9.4093-7.4182-9.797-0.22906-1.0925 0.24669-5.1804 0.52862-5.4623 0.6872-0.66958 10.414-10.748 11.7-11.154 1.1277-0.37003 5.709 1.1453 7.9644 1.8149 1.4272-11.577 1.9911-13.726 2.5373-14.255 0.72244-0.74006 9.797-0.22907 11.753-0.14096 0.75768-11.876 1.3568-13.145 1.6035-13.444 1.0572-1.3392 14.414-2.6959 15.453-2.6959 0.24668 0 1.7973-0.22907 1.6563 1.8325-0.0881 1.1101-0.47575 3.2774-1.4977 7.7178-1.8678 8.1054-2.555 8.8102-2.784 9.0393-0.52862 0.58148-10.396 10.167-19.664 19.065-12.916 12.405-17.321 16.528-19.03 17.885-1.1277 0.89864-1.6211 0.79292-2.8016-0.40527"/>
  <path d="m307.59 77.174 47.399-48.174c0.28193-0.29955 1.1453 0.54623 0.86341 0.84578l-47.258 48.474c-0.15859 0.14096-1.2863-0.84578-1.0044-1.1453"/>
  <path d="m289.57 108.55c-5.5857-6.0967-8.6516-9.8498-9.9732-11.841-1.1101-1.7092-0.74006-1.9559 0.12334-2.9602 2.0968-2.414 8.6516-8.3873 10.202-9.4974 1.5858-1.1453 1.9735-0.89864 3.1188 0.52861 1.022 1.2863 5.1099 7.0129 8.1583 12.07 0.82816 1.3744-0.0881 2.0792-1.022 0.79292-2.9779-4.0527-7.8059-10.149-8.9512-11.612-2.1497 1.6739-8.4931 7.612-10.114 9.4446 1.0396 1.6563 5.5328 6.8015 9.427 12.317 0.9515 1.3392-0.0529 1.762-0.96913 0.75768"/>
  <path d="m285.59 102.9 2.0616-1.9206c0.4229-0.45813 2.044 1.0572 1.6211 1.4977l-2.0616 1.9383c-0.22906 0.22907-2.044-1.0748-1.6211-1.5154"/>
  <path d="m288.6 106.49 1.2863-1.3744c0.4229-0.45813 2.044 1.0572 1.6211 1.4977l-1.2863 1.392c-0.22906 0.22907-2.044-1.0748-1.6211-1.5154"/>
  <path d="m48.06 168.25c-1.9383 0-3.2422 2.0264-3.2422 3.7003 0 1.4625 1.0925 3.3655 3.8236 3.3655 1.9206 0 3.2069-1.674 3.2069-3.7355 0-1.5154-1.5858-3.3303-3.7884-3.3303m0.45813 8.0702c-3.3479 0-4.8809-2.273-4.8809-4.3699 0-2.2907 1.7973-4.7399 4.458-4.7399 2.6783 0 4.9161 2.0087 4.9161 4.3699 0 2.6959-1.9206 4.7399-4.4932 4.7399"/>
  <path d="m37.686 172.96c-1.762 0-3.6474 1.3744-3.6474 3.9294 0 1.6387 1.6211 3.4536 3.7884 3.4536 1.4977 0 3.5946-1.0748 3.5946-3.4536 0-1.8854-1.4273-3.9294-3.7355-3.9294m0.14096 8.5636c-2.8545 0-5.0923-2.4669-5.0923-4.6518 0-3.1893 2.5726-5.0923 4.9514-5.0923 3.0307 0 5.1099 2.6431 5.1099 5.0923 0 2.9074-2.6254 4.6518-4.969 4.6518"/>
  <path d="m48.591 180.27c-2.3259 0-3.6298 1.9206-3.6298 3.7532 0 1.9206 1.4801 3.3303 3.5065 3.3303 2.1497 0 3.3655-1.3392 3.3655-3.6474 0-1.6211-1.0748-3.436-3.2422-3.436m-0.12334 8.264c-2.6783 0-4.687-1.9382-4.687-4.5108 0-2.3611 1.6563-4.8456 4.7047-4.8456 2.8369 0 4.6518 2.273 4.6518 4.4932 0 2.925-1.903 4.8632-4.6694 4.8632"/>
  <path d="m26.949 189.64c-1.4801 0-3.2774 1.7268-3.2774 3.8765 0 1.4096 1.392 3.0483 3.1893 3.0483 2.1321 0 3.4536-1.3039 3.4536-3.4184 0-1.4273-1.1982-3.5065-3.3655-3.5065m-0.0881 8.1054c-2.5021 0-4.3699-2.2378-4.3699-4.2289 0-2.8545 2.3964-5.0571 4.458-5.0571 2.925 0 4.7223 2.2378 4.687 4.7575-0.05286 2.7488-2.0087 4.5285-4.7751 4.5285"/>
  <path d="m273.55 75.341c-17.198-10.59-34.131-13.568-46.624-8.2111 0.10572 0.45813 0.15858 0.79292 0.1762 1.0925 0.26431 2.3788-0.9515 2.5902-1.533 0.22907-1.7268-6.9425-4.3522-13.374-6.6605-17.867-0.37002-0.72244 2.0792-1.4273 2.4492-0.70482 2.3788 4.5989 4.1232 10.502 5.1099 14.748 11.682-5.7443 31.505-3.2774 48.632 8.4226 0.66958 0.45813-1.3039 2.4316-1.5506 2.2907m-153.91 63.398c5.9733-35.135 33.726-64.579 57.989-74.323 15.541-6.2376 28.034-5.2685 38.325 1.6916 2.4492 1.6563 1.5682 2.7136-1.0396 1.3039-9.656-5.2333-22.572-6.0967-36.562-0.12334-22.924 9.8146-49.073 37.021-55.434 70.376-0.10572 0.54623-3.4184 1.8854-3.2774 1.0748m101.97 25.373c-23.47 0.22906-40.615-14.59-40.615-37.073 0-12.475 5.6562-24.175 17.867-33.937 6.502-5.198 11.383-8.2816 13.797-10.748 0.75768-0.75768 1.0396-1.6563 0.91626-2.8721-0.29954-2.9602-5.85-5.6738-14.572-5.6738-12.405 0-53.46 15.753-63.857 60.861-0.1762 0.79292-3.0307 0.61672-2.8545-0.17621 8.1054-39.188 45.937-63.627 66.711-63.627 9.5327 0 16.299 3.4536 16.81 8.6164 0.19383 2.0792-0.38765 3.8413-1.7444 5.2157-2.5374 2.5902-5.6738 4.2465-13.004 10.237-10.608 8.6517-17.039 20.211-17.039 31.752 0 20.739 15.136 34.695 37.602 34.695 9.4974 0 19.858-4.1056 26.748-10.978 5.991-5.9733 9.145-13.374 9.145-21.391 0-12.81-5.5328-23.435-18.59-34.818-2.5726-2.2202-9.656-6.5724-11.735-9.656-1.1453-1.7092-1.8325-4.1408-0.96912-10.132 0.40527-2.8017 1.8502-2.5373 1.8502 0.29955v1.0396c10.29-6.3434 25.937-4.4756 39.981 5.0395 0.6872 0.45813-0.98674 2.9074-1.6563 2.4492-13.762-9.3388-28.774-11.224-38.078-5.1452 0.0705 2.7664 0.42289 3.8941 0.7753 4.5108 1.9206 3.2598 7.753 6.3434 12.863 10.819 13.533 11.841 18.484 21.832 18.484 35.593 0 8.8102-3.1893 16.88-9.7441 23.418-7.4182 7.4006-18.008 11.577-29.091 11.682m-68.121 41.126c-24.528-24.581-23.664-55.099-22.678-63.998 0.0881-0.81054 2.9955-0.89864 2.9074-0.0881-0.93388 8.5636-1.7444 38.342 21.867 62.006 0.56386 0.58148-1.8149 2.3788-2.0968 2.0792m130.94-1.9911c13.339-13.392 20.686-31.523 20.686-51.011 0-22.167-7.5768-40.791-23.929-57.584-0.56385-0.58148 1.1982-2.0792 1.7797-1.5154 16.916 16.581 25.426 36.703 25.426 59.381 0 20.281-7.9821 38.853-21.867 52.809-0.28192 0.29955-2.6607-1.4977-2.0968-2.0792m-133.9 13.762c-28.122-29.285-31.875-53.055-31.065-72.314 0.0352-0.81054 3.0307-0.7753 2.9955 0.0352-0.79292 18.625 2.273 39.91 29.831 69.425 0.56386 0.5991-1.4625 3.1541-1.762 2.8545m135.41-0.33479c18.819-14.836 30.254-38.924 30.254-64.403 0-22.783-11.929-50.535-27.153-65.072-0.58148-0.56386 1.2687-2.3083 1.8502-1.7444 15.753 15.048 28.422 43.346 28.422 66.852 0 26.395-12.951 51.822-32.457 67.204-0.26431 0.21145-1.5506-2.3259-0.91626-2.8369m-65.953 15.823c-25.779 0-44.738-6.0086-55.98-16.916-0.58148-0.56386 1.4801-2.6783 2.0616-2.1145 10.519 10.22 29.091 15.841 53.707 15.841 19.559 0 38.007-5.9381 53.337-16.722 0.66958-0.47575 2.3611 1.9382 1.6916 2.3964-15.823 11.154-34.659 17.515-54.817 17.515m-0.22906 10.378c-20.951 0-40.386-5.4447-56.756-16.211-0.6872-0.45813 0.37003-3.3303 1.0572-2.8721 15.894 10.449 35.065 15.982 55.434 15.982 19.735 0 38.783-5.2509 55.082-15.171 0.70482-0.42289 2.2202 2.0968 1.533 2.5197-16.775 10.202-36.087 15.753-56.35 15.753"/>
 </g>
</svg>
