<?xml version="1.0" encoding="UTF-8"?>
<!-- Created with Inkscape (http://www.inkscape.org/) -->
<svg version="1.1" viewBox="0 0 469.14 372.41" xmlns="http://www.w3.org/2000/svg">
 <path d="m427.98 198.79c5.9627-4.4031 9.0436-6.9741 11.758-10.048s6.4695-6.3702 9.7247-7.94c3.2436-1.5816 7.3283-5.1781 7.7945-8.2457 4.521-3.4584 7.7307-5.9571 10.688-8.3483-4.686-4.7-13.913-11.634-20.591-18.245-2.0819 0.86957-3.5083 1.265-5.7564 1.6947-0.13504-2.4087-0.1498-4.0124-0.0403-5.8073-6.7854-2.7774-14.227-7.1877-19.286-12.15-1.9891-4.5905 4.265-17.311 8.1056-29.217 0.7942-2.4629-0.35838-2.9303-2.253-3.6588-4.6954-1.8029-10.168-5.5972-12.564-13.932-4.7807-0.87768-11.602-2.3619-18.491-6.1385 0.57645-2.3316 0.74515-3.6897 0.84573-5.1642 0.51544-2.276 1.0692-3.7952 0.76749-4.4907-0.30208-0.68409-2.7427-2.7333-5.012-4.5259-0.14549-1.6073-0.16376-3.0852-0.175-4.8147-8.0136-0.53264-21.222-1.588-25.326-2.8706-3.8791-1.219-7.1896-1.9297-10.482-1.1626-3.3044 0.77822-9.7748 0.78104-13.785-0.44161-4.0098-1.2226-8.6461-2.5887-12.373-2.4407-3.7266 0.13659-16.083 0.93727-22.896 1.297 0.12658-1.5539 0.23032-3.5666 0.40816-5.6803-5.2947-1.2127-11.935-2.7835-19.109-4.4265-5.1049 0.08671-11.643-0.04978-13.55-0.33199-1.9189-0.28254-7.1912-1.8725-10.109-3.4312-1.4648-0.78522-2.7218-0.92334-5.4211-0.51762-14.249 2.1451-27.636 1.9321-35.929-1.792-2.0909-0.9401-3.6372-0.93741-5.006-0.04796s-3.8239 0.63776-5.9623-0.30366c-2.1385-0.94143-3.2425-1.018-4.8452-0.27253-1.6146 0.74517-4.8031 1.206-7.3002 1.1822-2.4971-0.02382-5.5408 0.36085-9.223 1.0369 0.16503-2.0797 0.20396-5.1821 0.25916-7.1617 0.0271-0.97267-0.83374-1.2372-2.9352-1.7996-2.1011-0.57391-8.8411-2.4224-12.104-2.6966-3.2629-0.28566-4.8372-0.55859-7.7507-1.43-2.9138-0.85998-8.9823-2.0484-11.673-2.3639-2.6796-0.30375-4.9597-1.2835-7.4785-2.6592-7.4859-4.1024-27.832-14.484-38.587-18.678-4.0788 4.6618-9.6375 12.065-12.474 16.097-1.1519 1.6399-1.5992 2.326-3.3663 3.4219-2.3603 1.4688-6.1403 6.0816-6.1895 7.8438-0.11103 3.9822-5.2421 8.42-8.1562 13.114-0.03606 1.2931 0.02808 2.4057-0.0054 3.6072-2.0431 0.75613-4.0272 2.3843-8.5579 3.6322-3.5957 0.98769-7.0046 1.6714-9.2157 2.0564-2.2111 0.38498-4.8426 1.3423-4.9703 2.0831-0.12738 0.72938 0.14876 1.9166 0.28252 2.6647 0.13408 0.73667 0.06166 1.6279-0.77753 2.2916-0.83919 0.66372-1.5832 1.7538-2.1223 2.7466-0.91576 1.7037-2.6934 3.1773-4.3485 3.6694-0.27893 2.7522 0.09619 7.6412-0.32193 9.8398-5.1765 2.2262-12.237 5.9116-15.632 8.2333-3.3832 2.322-12.372 7.3393-12.607 8.5124-0.57765 2.8011 6.5663 23.007 17.893 41.211-2.932 4.9113-6.0239 12.143-7.0772 15.366-1.053 3.2116-2.1872 13.178-2.0028 16.802 0.71739 4.1313-0.69051 5.5693-5.0051 6.7431-1.2228 0.34383-2.0665 0.74402-2.6884 2.1467-3.2508 7.3875-9.3955 23.009-10.79 28.238-0.82364 3.092-1.9506 7.252-3.4129 9.7879-3.5363 6.1084-7.6138 12.431-9.1217 16.603-0.83696 2.29-0.71078 3.7364 0.12586 4.8706 0.82476 1.1338 1.3019 1.9373 2.1034 2.6239 0.65053 0.55638 1.24 0.7446 1.8671-0.41748 2.8729 0.19464 5.0577 1.6069 6.352 4.2426-0.13281 0.92391-0.18824 1.6324-0.16854 2.2056 4.3942 5.3561 14.984 7.7585 25.863 6.6303 0.85889-0.0906 1.7466-0.7873 2.2511-1.3916 1.2669-1.4992 4.0084-2.9917 7.3973-0.82443 0.43966 1.2949 1.2994 2.4526 3.1791 2.4363 9.3988-0.093 14.586-3.9794 18.056-3.8827 0.10896-1.3483 0.09405-2.0931-0.01188-3.413 1.8839-1.4477 2.9071-2.3124 4.4937-3.3332 0.95246-11.551 0.42746-29.408 0.94991-31.936 1.1123-5.34 5.1061-16.337 6.503-19.516 0.62192-1.4027 1.3454-2.1842 2.4698-3.2637 1.1247-1.0909 4.2787-4.1523 5.5714-6.5784 1.7749 2.8896 4.9178 7.4779 6.7656 10.312 4.5072 1.729 12.888 4.8714 15.338 6.6003 2.4611 1.7406 10.917 9.0194 15.532 13.717-3.0858 7.0142-9.7532 25.174-9.4598 26.168 0.29345 0.99306 6.3508 11.537 9.5056 15.702-0.20148 2.9605-1.6078 6.0476-6.2665 8.4716-1.2314 0.65279-1.6816 1.4419-1.8772 2.9137-1.0556 7.9984-1.8519 12.672-2.3651 18.28-1.011 11.092-3.1762 21.773-4.9768 28.766-1.7888 6.9931-4.8725 18.199-4.833 21.475 0.0876 6.2438 3.4644 16.095 4.4811 16.742 1.0049 0.64643 3.2546 0.58319 5.9472 0.41773-1.3936 3.9121-2.6232 9.1915-2.2607 11.973 5.9222 3.8756 15.687 7.2857 20.809 8.3103 2.1766 0.42715 3.7305-0.2739 4.3946-1.057 4.4306-2.3501 8.0559-3.5431 10.3-3.4118 2.2327 0.11974 8.7717 2.7755 13.859 6.7423 8.6881-1.0518 26.326-3.5948 33.65-10.731-0.53066-1.87-1.0092-3.0515-1.6024-4.8087 0.26673-2.741 1.3234-4.8073 2.4453-5.3715 1.5558-0.76972 6.8416-0.51927 12.342 1.4092 1.8728 0.65917 2.667 0.32629 3.8144-1.1534 1.1477-1.4911 2.3718-3.5871 2.9875-5.1961 0.62733-1.5972 0.57533-3.1447-0.49717-4.7779-7.1759-10.954-14.575-25.429-16.169-33.524-1.6056-8.107-3.1215-27.538-4.0588-34.023-0.31842-2.2306-1.0702-2.9959-2.1072-3.7692-1.0373-0.76185-4.3414-2.984-4.39-3.7985-0.0371-0.80268 1.1706-2.7388 1.7823-3.7753l1.2173-0.1493c1.7904-1.9313 3.8827-3.6022 5.1429-4.8611 2.9344 2.6814 6.5634 6.0464 7.6568 6.0769 1.0815 0.0301 3.69-3.516 5.4516-4.8411 2.6239-1.9653 6.4399-3.1759 9.4556-5.5426 4.8524-3.8271 17.786-12.101 24.886-15.923 1.8971 1.9196 3.9606 3.8438 5.4541 6.5881 1.4816 2.744 4.4593 8.5645 5.842 9.7368 4.9969 4.2162 16.435 11.624 17.492 11.653 1.0577 0.0295 10.817-6.604 14.102-8.8142 1.5028-1.0002 2.5069-2.461 2.7958-3.4378 6.5417-5.1199 33.309-25.812 36.994-27.851 3.6723-2.0277 12.933-5.2624 16.954-6.1466 3.2622 5.0039 7.469 13.241 8.6555 13.342 1.1744 0.11287 5.0355-5.7001 6.8084-8.2847 1.6693 6.6772 9.8889 24.989 9.9441 28.129 0.0552 3.1394-0.80475 13.079-2.6493 20.792 5.0664 11.96 18.108 16.881 27.732 15.947 1.6699-0.17102 3.6939 0.18312 4.5923 1.6626 0.78465 1.2931 1.7164 2.4299 2.5735 3.2554 5.4184 1.4681 9.1307 1.8464 11.65 1.9166 2.5315 0.0706 5.4073 0.58595 6.9945 1.2486 4.538 1.9016 11.566 2.361 10.353-2.3224 1.5825-2.1547 3.8215-4.8178 5.0684-4.7487 1.4959 0.0989 4.1494 1.7648 7.0442 3.7351 5.2544-2.8883 9.8838-7.2484 12.528-11.217l-0.88999-3.0596c0.97423-1.6677 1.7815-2.8935 2.502-4.4194-3.4219-7.3789-8.2833-16.882-12.721-24.942-5.0221-16.963-10.213-33.427-12.923-42.011-1.0596-3.3735-2.3666-4.704-4.4683-5.2551" fill="#d3edfb"/>
 <path d="m157.04 313.22c-6.9047 11.74-14.523 36.7-17.498 51.264 3.3804-1.7953 7.0984-3.3293 9.83-3.1844 3.242 0.1825 7.2064 2.1821 14.173 6.5678-2.9334-14.236-6.3707-35.141-6.5048-54.647" fill="#a688bd"/>
 <path d="m308.63 52.144c0.14598-2.252 0.2486-3.3714 0.40816-5.6803-5.2596 0.9413-18.02 0.87181-22.593 1.5116-2.9611 0.40988-7.8323 0.2168-9.4316-0.01103s-2.6731-0.10888-3.7301 0.26246c-2.4622 0.85896-6.7456 0.48759-10.717 0.0104-4.0537 2.9103-13.471 4.9381-25.391 4.6058-2.5671-0.07158-4.9543 0.22833-6.6999 0.9813-1.7575 0.75264-4.0209 1.3079-6.9598 0.9168-2.9388-0.39114-4.9492 0.04524-7.0004 0.23999-8.4794 0.81716-28.922 1.9993-34.572 2.4373-2.956 0.22678-3.7387 0.57143-6.1226 1.1806-2.3961 0.62031-4.1245 0.75536-6.1841 0.8239-2.0593 0.0571-3.9832 0.38138-5.6692 0.70084-4.7714 0.92055-10.284 0.69814-12.433-0.27795-3.0418-1.3903-6.8055-2.0564-17.696-0.06968-3.8136 0.69531-11.395 1.297-14.717 1.0097-3.3345-0.2762-8.2772-0.0361-12.264 0.45971-3.9986 0.50692-15.677 1.2922-20.823 1.1487-2.8761-0.08019-4.0344-1.6242-6.9678-0.9272-5.6151 1.3208-11.856 2.0629-14.93 1.8054-2.2427-0.18851-4.7995-0.20253-6.1751 0.5035-1.3637 0.70636-3.3607 0.66213-5.5488 0.2232-0.42514 2.4503 0.29273 7.4176-0.33381 9.8394 13.101 0.20496 26.291-1.4543 35.699-2.7495 9.7307-1.332 24.249-2.038 28.609-2.2829 4.3722-0.25601 25.374-3.5527 32.665-4.8382 10.916 1.7931 23.479 4.2391 29.223 5.5788 13.093-2.9102 32.312-6.268 41.05-6.952 8.7374-0.684 20.149-2.5875 24.985-3.6895 4.8478-1.1017 11.737-2.0433 17.952-1.8471 17.623 0.56007 37.013-1.2584 46.369-4.9141" fill="#b0b8d6"/>
 <path d="m275.86 47.853c-0.99801-0.03928-1.7869 0.09905-2.5677 0.37504-2.4622 0.85896-6.7456 0.48759-10.717 0.0104-4.0538 2.9103-13.471 4.9381-25.403 4.6055-2.5552-0.07125-4.9424 0.22866-6.6999 0.9813-1.7456 0.75297-4.0091 1.3083-6.9479 0.91713-2.3937-0.31869-4.1722-0.09343-5.8549 0.1116 0.10098 2.3505 0.0725 4.6515-0.0775 7.8997 0.60836-0.0632 1.1926-0.11562 1.7409-0.1576 8.7374-0.684 20.149-2.5875 24.985-3.6895 4.8478-1.1017 11.737-2.0433 17.952-1.8471 4.4327 0.13505 8.9765 0.12431 13.441-0.02606-9e-3 -3.0923 0.0765-6.5828 0.14893-9.1804" fill="#aba2cb"/>
 <path d="m192.58 37.562c0.17205-2.3314 0.29824-4.2976 0.24759-7.1735-1.4548 1.4138-10.808 1.5653-15.757 1.6335-1.5466 0.01414-3.4025 0.0311-5.2109 0.47312-1.8083 0.44202-4.253 0.67161-6.6283 0.54812-5.3093-0.26255-11.68 0.01789-16.369 0.53992-4.4384 0.49466-10.198 0.17374-13.852-0.14574-4.0935-0.35463-8.1375-0.35286-13.362 1.0475-11.66 3.122-32.187 7.7488-39.459 7.0537-0.08878 1.0511-0.09341 2.0702-0.08064 3.3188 1.3426-0.37484 3.5278-0.25665 4.4035 0.32891 0.88793 0.57446 2.1602 0.58702 3.516 0.59047 12.63 0.04295 42.367-2.5864 48.77-3.1523 4.2447-0.37409 5.7235-0.51609 7.513-0.28296s3.8471 0.23324 6.294-0.07645c6.7558-0.85377 29.249-3.479 39.976-4.703" fill="#b0b8d6"/>
 <path d="m171.86 32.49c-1.8083 0.44202-4.2533 0.68305-6.6168 0.55989-5.3209-0.27433-11.68 0.0064-16.381 0.52815-2.9708 0.32944-6.5381 0.29869-9.6738 0.14255 0.31052 2.9404 0.61585 5.6401 0.81335 8.7949 3.3386-0.29628 4.7088-0.38405 6.3088-0.17911 1.7895 0.23313 3.8468 0.24469 6.2937-0.06501 4.4165-0.56398 15.55-1.8797 25.741-3.0615 0.14407-2.607-0.0922-5.2247-0.78639-7.2023-0.16671 0.0068-0.33309 0.0022-0.48791 0.0093-1.5466 0.01414-3.4025 0.0311-5.2109 0.47312" fill="#aba2cb"/>
 <path d="m353.48 156c-4.9371 2.5994-16.025 8.6804-22.598 11.509 7.0453 4.5482 17.408 7.4253 26.301 12.678 8.8272-4.3347 17.449-9.8432 24.448-14.275-9.1284-3.6329-18.093-6.7573-28.15-9.9122" fill="#a688bd"/>
 <path d="m396.95 76.674c0.30208-1.0223 0.72721-3.4726 0.96235-5.0808-1.7282 0.9825-3.9063 1.0363-5.7485 0.98492-1.8421-0.05136-2.9612-0.01386-4.572 0.17028-1.6105 0.17268-3.7774 0.24969-5.2457-0.40966-2.878-1.2942-7.78-0.37725-19.72 0.41215-1.5848 0.10469-4.3514-0.06406-5.1754-0.37334-1.4831-0.55669-4.3226-0.67022-7.0059-0.41293-5.6885 0.53997-13.77 0.74981-17.416 0.10992-3.5154-0.61336-9.8092-0.54835-14.974 0.3956-9.5158 1.7273-29.887 5.8776-35.889 7.0043-5.9906 1.1385-28.16 2.3642-35.593 1.9164-11.684 2.6976-42.058 8.9738-49.725 9.6648-4.6863 0.43049-37.621 1.2987-52.328 1.9422-3.2673 2.0046-8.5446 2.7278-13.443 3.5189-16.046 2.5874-30.536 6.1229-35.244 10.309 1.2379 8.4976 2.9268 18.313 3.6398 23.452 0.2676 1.9199 1.1649 4.2926 2.5869 6.1875 4.2086 5.6143 15.908 20.702 19.245 27.712-0.20379-4.2086-5.2985-16.433-9.0659-24.646-1.625-3.5725-2.2402-7.1054-2.5069-11.19-0.26673-4.0844-1.2485-14.945-1.4873-17.895-0.0982-1.1708 0.11566-1.5886 1.3927-1.7477 2.3753-0.30024 5.7523-1.1222 8.3474-2.4814 2.342-1.2402 4.0742-1.5126 7.5098-1.8749 3.424-0.37407 13.52-1.9936 18.195-2.4588 4.6876-0.47626 7.4198-0.35427 9.3359 0.0313 1.9164 0.37409 6.1168 0.30798 10.061-0.37225 17.94-3.1186 34.988-3.7083 41.71-3.3262 5.73-2.0276 17.196-4.1586 23.194-6.8658 15.236-0.42264 48.013-5.4409 57.604-6.0324 12.462-0.76337 29.447-2.4543 35.3-5.4976 7.2395 0.56832 20.339 0.0059 26.498-2.4792 10.665 1.8434 29.969 1.8319 49.557-0.66817" fill="#b0b8d6"/>
 <path d="m337.71 193.59c-13.08-17.6-23.545-35.161-33.101-48.208-4.3817 12.967-8.8311 26.655-12.122 38.049 2.4865 14.052 11.721 31.808 20.993 54.604 7.1039-13.338 17.726-32.121 24.23-44.445" fill="#fff"/>
 <g fill="#a688bd">
  <path d="m397.83 257.84c-0.72235 7.1374-3.4353 20.827-7.9929 27.308 3.8491 0.16455 7.6543-0.23322 8.6296 0.19479 1.2339 0.53829 2.8965 2.3368 4.5977 4.8808-0.33054-8.6211-2.2302-20.687-5.2344-32.383"/>
  <path d="m429.15 260.92c1.3881 4.3905 2.1266 11.179 1.9594 15.469-0.16784 4.3127-0.26381 11.17 0.7434 14.29 1.5285-2.3508 3.8327-4.7946 5.1281-4.7585 1.2954 0.0362 3.4976 1.2542 6.6599 3.4381-5.4156-7.1138-9.9742-18.945-14.491-28.439"/>
  <path d="m125.26 309.75c-3.8303 8.9747-11.914 27.176-14.823 35.512 2.6092 0.26745 4.0454 0.37619 5.9764 0.22386 3.1483-9.2571 7.377-24.84 8.8464-35.736"/>
  <path d="m188.07 308.78c-0.74348 14.294 3.0098 32.825 7.2616 43.285 0.61338-2.3764 1.2645-3.973 2.4724-4.6378 2.5129-1.3958 7.5791-0.52161 13.109 1.2244-8.5185-10.579-17.667-28-22.843-39.872"/>
 </g>
 <path d="m126.14 248.12c0.24017 2.9041-1.5863 6.1284-6.4109 8.96 1.8839 1.5413 3.2274 2.8385 5.6745 3.8 3.6701 1.4651 6.0324 4.1879 11.779 5.4017 4.5999 0.96425 12.309 2.6221 17.067 4.3008 11.805-0.23201 23.821-0.75589 27.621-1.3943 3.8001-0.63842 12.135-2.685 13.592-2.026-3.2064-2.3111-5.462-4.1719-5.4447-4.7899 0.0172-0.61793 0.63587-2.3299 1.835-3.957-8.0764 0.0153-20.919 0.34435-28.439 0.86761-10.619-3.0675-28.185-8.2526-37.274-11.163" fill="#b0b8d6"/>
 <g fill="#a688bd">
  <path d="m32.761 164.05c0.34434 3.4338-0.71524 5.603-5.1304 6.5449 3.6618 0.0563 3.9594 9.4323 23.137 17.789 5.3938 2.3492 21.447 2.8998 27.672-2.8129-9.616-0.22229-23.313-1.6692-26.777-3.2661-3.4642-1.5968-14.912-11.616-18.902-18.255"/>
  <path d="m18.864 212.4c-4.4201 1.9725-9.8934 14.417-12.869 22.179 2.4396-0.0465 4.0658 1.3502 6.2361 4.1363-0.035-10.262 6.0284-20.835 6.6331-26.315"/>
  <path d="m44.947 215.6c-3.3914 6.456-5.314 22.515-5.3682 31.286 2.2608-2.5938 4.5904-3.3878 7.8699-1.5671-2.3383-7.8526-3.8266-18.888-2.5017-29.719"/>
  <path d="m67.681 216.91c0.10393 7.7903 0.1695 14.824 0.94878 23.56 2.0262-1.4323 3.3982-2.4361 4.6482-3.3289-2.1033-5.1892-5.0172-13.298-5.597-20.231"/>
 </g>
 <path d="m428.46 198.74c4.6438 1.9504 5.5383 5.2735-7.3873 14.544 3.5736-5.7409 5.4916-9.2604 7.3873-14.544" fill="#b0b8d6"/>
 <path d="m425.8 205.05c-1.2477 2.519-2.7213 5.0317-4.7257 8.2397 2.4999-1.7855 4.4706-3.3568 6.0076-4.734-0.44285-1.1804-0.87381-2.3606-1.282-3.5057" fill="#aba2cb"/>
 <path d="m392.49 223.45c4.5662-0.38802 10.29-1.763 14.276-3.1063-2.4037-3.8004-4.9238-8.5431-7.454-10.366-1.7045 3.9721-3.4884 8.2284-6.8222 13.472" fill="#a688bd"/>
 <path d="m361.28 219.22c4.2833 1.654 6.6832 2.6027 11.581 3.5409-2.2577-3.0634-4.2407-5.7412-6.8746-8.9639-1.7166 1.418-3.2827 3.4128-4.7066 5.423" fill="#b0b8d6"/>
 <path d="m367.75 216c0.079 1.8574 0.13336 3.7485 0.15362 5.5814 1.4394 0.41805 2.9989 0.79365 4.951 1.1687-1.7192-2.3269-3.2897-4.4435-5.1046-6.7501" fill="#aba2cb"/>
 <path d="m357.39 157.24c-4.2822 2.1481-7.3118 4.1594-10.558 7.1151 3.4516 2.902 13.778 8.8014 15.939 8.9189 2.1733 0.11735 12.248-5.4532 15.473-7.6308l-0.5136-1.629c-6.1506-2.084-13.335-4.6091-20.34-6.7741" fill="#fabe00"/>
 <path d="m441.6 147.57c-0.062-2.0402-0.1376-4.0235-0.3827-5.897-6.3122 2.8588-42.609 8.718-47.132 12.669 2.7723 6.7882 7.1203 15.934 10.033 21.958-0.61185-8.3427-1.3681-15.773-2.0341-20.04 4.8785-3.4828 25.763-5.9811 39.516-8.6897" fill="#b0b8d6"/>
 <path d="m101.49 45.409c6.1106-0.32206 13.011-0.80534 19.28-1.2833-0.30278-2.7913-0.61242-6.1897-0.75432-9.2056-5.547 1.4372-12.659 3.1285-19.368 4.4416 0.33413 2.0936 0.63643 4.0489 0.84238 6.0473" fill="#aba2cb"/>
 <g fill="#a688bd">
  <path d="m104.92 45.218c3.6932-0.21768 7.5541-0.4765 11.332-0.76052-0.24272-2.8125-0.69298-5.8599-1.0166-8.3311-3.3651 0.82234-7.0402 1.6704-10.713 2.4498 0.26793 1.9085 0.46462 4.2388 0.39762 6.6418"/>
  <path d="m171.89 32.485c-0.0119-3.31e-4 -0.0238-6.63e-4 -0.0241 0.01078-1.8083 0.44202-4.253 0.67161-6.6283 0.54812-5.3212-0.26288-11.68 0.01789-16.369 0.53992-1.1213 0.11761-2.3367 0.19824-3.5747 0.23244 0.33014 3.0898 0.53976 5.8098 0.67934 8.482 0.11853 0.01479 0.22517 0.02918 0.3437 0.04394 1.7895 0.23313 3.8353 0.23291 6.2822-0.07679 3.5807-0.44986 11.576-1.4065 19.905-2.3767-0.0428-2.3031-0.25564-4.9086-0.61426-7.4037"/>
  <path d="m191.77 66.791c-0.8344-2.9206-1.3002-6.6899-1.6856-9.9301-3.539 0.23343-6.4822 0.42622-8.139 0.55181-2.956 0.22678-3.7387 0.57143-6.1348 1.1917-2.3839 0.6092-4.1242 0.74391-6.1719 0.81279-2.0596 0.06855-3.9951 0.38105-5.6695 0.71228-4.7714 0.92055-10.284 0.68669-12.433-0.28939-3.0421-1.3789-6.8174-2.0568-17.709-0.05857-3.8017 0.69564-11.383 1.2859-14.717 1.0097-3.3226-0.27587-8.265-0.04721-12.264 0.45971-3.9867 0.50725-15.677 1.2922-20.811 1.149-2.2106-0.06163-3.4098-0.98833-5.1672-1.0946 0.82356 3.3097 1.5717 7.1899 1.0732 10.566 2.065-0.26308 4.023-0.52914 5.8378-0.7763 9.7188-1.3323 24.237-2.0383 28.61-2.2944 4.3719-0.24457 25.374-3.5527 32.653-4.827 10.928 1.782 23.491 4.2395 29.223 5.5674 4.0811-0.90544 8.7461-1.8519 13.505-2.7499"/>
 </g>
 <path d="m87.782 71.094c2.4835-0.34303 5.287-0.64278 8.1489-0.90655-0.55906-2.5579-0.90547-5.0641-1.2757-7.9947-3.3232 0.17074-6.5134 0.26502-8.617 0.20637-2.2106-0.06163-3.4098-0.98833-5.1672-1.0946 0.81167 3.3094 1.5717 7.1899 1.0732 10.566 2.065-0.26308 4.023-0.52914 5.8378-0.7763" fill="#aba2cb"/>
 <path d="m262.32 48.401c-4.1822 2.8266-13.454 4.7668-25.149 4.4408-2.5671-0.07158-4.9424 0.22866-6.6999 0.9813-1.541 0.66706-3.4701 1.1744-5.9042 1.0264 0.0705 2.5901 0.079 4.8464-0.25018 7.2651 7.696-0.87336 16.038-2.3128 20-3.2101 4.8359-1.102 11.725-2.0437 17.94-1.8475 0.16639 0.0046 0.32089 0.0089 0.47539 0.01326-0.24368-2.7782-0.36284-6.1828-0.41245-8.6692" fill="#a688bd"/>
 <path d="m168.98 92.125c-9.0834 0.29644-18.345 0.59934-24.455 0.87563-3.2673 2.0046-8.5443 2.7164-13.443 3.5074-4.1219 0.66381-8.1388 1.3993-11.907 2.176 0.3492 1.9795 0.65222 4.3356 0.84956 6.643 1.5131-0.51896 3.0892-0.73841 5.4632-0.99288 3.4237-0.36262 13.531-1.9818 18.207-2.4584 4.6754-0.46515 7.4195-0.34283 9.3359 0.0313 1.9042 0.3852 6.1046 0.31909 10.06-0.36081 2.3306-0.40455 4.6481-0.76366 6.9289-1.0894-0.4852-2.6475-0.74618-5.2315-1.0404-8.3317" fill="#aba2cb"/>
 <path d="m160.76 92.397c-6.1906 0.20531-11.989 0.41011-16.24 0.60078-3.2673 2.0046-8.5446 2.7278-13.443 3.5189-1.1467 0.17416-2.2821 0.37155-3.4175 0.56893 0.37784 2.2322 0.63268 4.6099 0.55667 6.9096 4.4775-0.61954 11.716-1.7347 15.473-2.1109 4.6876-0.47626 7.4198-0.35427 9.3359 0.0313 1.822 0.34855 5.7002 0.31926 9.4871-0.27373-0.72297-3.0778-1.2596-6.0131-1.7523-9.2448" fill="#a688bd"/>
 <path d="m286.63 85.253c-0.92782-2.5568-0.87972-4.7084-0.0649-6.6325-1.818 0.36158-3.3369 0.66279-4.3891 0.8625-6.0022 1.1267-28.171 2.3638-35.592 1.905-11.684 2.6976-42.069 8.9735-49.725 9.6648-0.036 0.01045-0.0716 0.0095-0.1076 0.0199 0.42633 2.1992 0.8238 4.5809 1.159 7.0639 2.8558-0.04635 5.1981-0.0154 6.8963 0.07776 5.7296-2.0161 17.196-4.1586 23.182-6.8547 15.248-0.43375 48.013-5.4523 57.616-6.0435 0.33342-0.01362 0.67903-0.03833 1.0246-0.06305" fill="#aba2cb"/>
 <path d="m207.38 97.396c6.1158-1.7878 15.411-3.6931 20.602-6.0448 11.772-0.32454 33.969-3.3932 47.907-5.043-2e-3 -2.05 6e-3 -4.0653 0.0621-6.0678-9.0749 0.84637-23.639 1.4939-29.375 1.1507-8.7869 2.034-28.144 6.0751-40.456 8.2627 0.3654 2.6785 0.7205 5.2995 1.259 7.7423" fill="#a688bd"/>
 <path d="m370.99 72.118c-2.3246 0.18713-5.0666 0.41988-8.367 0.62561-1.5729 0.10502-4.3518-0.05262-5.1638-0.36156-1.4831-0.55669-4.3226-0.67022-7.0178-0.41326-5.6885 0.53997-13.77 0.73836-17.416 0.09848-2.7933-0.49016-7.3712-0.53763-11.738-0.06387-0.0435 2.4152-0.2464 4.9977-0.51697 7.876 0.0482-0.02155 0.0963-0.04313 0.13264-0.06502 7.2273 0.57943 20.326 0.01704 26.497-2.4678 5.6698 0.98263 13.781 1.4264 23.075 1.2618 0.0391-2.255 0.21692-4.3686 0.514-6.4904" fill="#aba2cb"/>
 <path d="m329.83 79.973c6.428-0.18724 13.503-0.98629 17.569-2.6251 2.3439 0.39746 5.1064 0.71498 8.1926 0.93845 0.0959-2.1618 0.11572-4.5776 0.0685-6.2967-1.4933-0.19052-3.3843-0.19746-5.2209-0.0196-5.6885 0.53997-13.77 0.73836-17.416 0.09848-0.74587-0.12386-1.6231-0.22849-2.5729-0.28933 0.0233 2.5774-0.17685 5.9158-0.62097 8.1938" fill="#a688bd"/>
 <path d="m418.21 147.32c-10.843 2.4004-21.774 4.97-24.127 7.0231 2.7726 6.7767 7.1203 15.934 10.033 21.958-0.61153-8.3541-1.3681-15.773-2.0338-20.052 2.8882-2.061 11.428-3.7812 20.775-5.4102-1.577-1.0288-3.2173-2.3458-4.6476-3.5194" fill="#aba2cb"/>
 <path d="m410.55 149.06c-7.9136 1.8522-14.674 3.725-16.466 5.2784 2.7723 6.7882 7.1203 15.934 10.045 21.959-0.62374-8.343-1.38-15.774-2.046-20.041 2.0995-1.4989 7.1553-2.8124 13.327-4.0374-1.6846-1.0089-3.3544-2.1205-4.8598-3.1588" fill="#a688bd"/>
 <path d="m389.84 285.15c3.8494 0.15315 7.6543-0.23322 8.6296 0.19479 1.2342 0.52686 2.8968 2.3254 4.5977 4.8808-0.10392-2.6712-0.36467-5.6904-0.75072-8.9077-2.4839-1.7756-5.091-2.5469-9.1887-2.7528-0.96282 2.5384-2.0616 4.8325-3.2879 6.5849" fill="#aba2cb"/>
 <path d="m431.85 290.68c1.5169-2.3626 3.8208-4.7949 5.1282-4.7585 1.2954 0.0362 3.4979 1.2427 6.6599 3.4381-1.7327-2.27-3.3685-5.0297-4.95-8.0285-3.6645-0.8122-5.8596-0.57565-7.6903 0.24366 0.0106 3.4588 0.19535 7.0714 0.85227 9.1052" fill="#aba2cb"/>
 <path d="m402.74 285.39c-2.9043-3.3334-5.4472-4.2746-10.593-4.441-0.71021 1.5835-1.4757 3.0166-2.3058 4.2073 3.8375 0.15277 7.6424-0.23353 8.6177 0.19446 1.2342 0.52685 2.9086 2.3257 4.5977 4.8808-0.053-1.5132-0.16216-3.1424-0.31699-4.8416" fill="#b0b8d6"/>
 <path d="m443.64 289.36c-1.1473-1.5093-2.2645-3.2468-3.3422-5.1206-3.7486-0.78019-6.5845-0.17217-9.1438 2.0355 0.12978 1.7443 0.34785 3.3079 0.69786 4.4056 1.5169-2.3626 3.8327-4.7946 5.1281-4.7585 1.2954 0.0362 3.4979 1.2427 6.6599 3.4381" fill="#b0b8d6"/>
 <g fill="#aba2cb">
  <path d="m116.42 345.49c0.77785-2.3031 1.6382-5.0047 2.4927-7.924-1.8283-0.11974-3.7963 0.0774-5.6981 0.45953-1.1243 2.7859-2.0978 5.2782-2.7707 7.2291 2.597 0.27855 4.0454 0.3762 5.9761 0.23536"/>
  <path d="m149.38 361.31c3.2423 0.1705 7.2067 2.1707 14.173 6.5678-1.0372-5.0334-2.1339-10.916-3.1344-17.265-5.9614-3.7507-10.757-3.2545-17.578 0.3688-1.3629 4.9436-2.492 9.6075-3.2908 13.513 3.3804-1.7953 7.0984-3.3293 9.83-3.1844"/>
  <path d="m192.21 342.59c0.95947 3.554 2.0233 6.7788 3.114 9.466 0.61306-2.3649 1.2645-3.973 2.4721-4.6264 2.5129-1.3958 7.5791-0.52163 13.109 1.2244-2.736-3.3974-5.5239-7.4948-8.2438-11.899-4.5955 0.15817-7.6405 1.8712-10.451 5.8354"/>
 </g>
 <path d="m163.55 367.87c-0.65007-3.1331-1.3143-6.6101-1.9725-10.305-7.0706-4.4916-12.846-4.687-20.444-0.0547-0.61657 2.4908-1.158 4.8463-1.5861 6.9759 3.3804-1.7953 7.0984-3.3293 9.83-3.1844 3.2423 0.1705 7.2064 2.1821 14.173 6.5678" fill="#b0b8d6"/>
 <path d="m193.31 346.36c0.64377 2.0793 1.3277 3.9994 2.0176 5.7021 0.62495-2.3646 1.2764-3.9726 2.4724-4.6378 2.5125-1.3844 7.5907-0.50984 13.108 1.2358-2.2185-2.7645-4.4717-5.9881-6.6945-9.4514-4.5836 0.1585-8.0103 3.1894-10.904 7.1512" fill="#b0b8d6"/>
 <path d="m182.17 258.55c-6.6409 0.14694-13.832 0.39308-18.742 0.74862-8.3769-2.4324-21.059-6.1643-30.517-9.062-0.92749 4.2572-1.4421 9.0641-1.2603 14.062 1.5005 0.78622 3.2528 1.4993 5.5348 1.9866 4.6118 0.96458 12.309 2.6221 17.067 4.3008 11.817-0.22021 23.821-0.75587 27.621-1.3829 0.0241-0.0108 0.036-0.0104 0.0597-0.01 1.2331-3.699 1.3384-7.4752 0.23729-10.644" fill="#aba2cb"/>
 <path d="m140.74 252.61c-0.72473 4.6637-0.98149 9.1801-0.92015 14.232 4.5517 0.98581 10.496 2.354 14.43 3.7463 7.8901-0.15792 15.855-0.43974 21.408-0.80025 0.26443-4.791-0.22764-8.0457-1.0958-11.036-4.1432 0.14787-8.0851 0.32427-11.136 0.53696-6.218-1.7996-14.807-4.318-22.686-6.6792" fill="#a688bd"/>
 <g fill="#eaf6fd">
  <path d="m163.82 22.942c-8.5374-0.08916-15.795-1.2878-18.548-2.3609-1.106-0.43166-2.936-0.91786-5.8928-1.0919-4.4767-0.26224-25.227-2.1463-38.332-4.3555-1.1987 2.0394-2.4134 4.2272-4.6064 5.2426-2.1811 1.0157-5.8047 5.9879-6.2605 7.8304 7.5393 1.3325 20.948 4.1686 31.079 6.3979 5.4465-1.2453 8.627-1.42 12.093-1.1745 6.7548 0.46318 12.109 0.39488 16.926-0.03196 4.8286-0.41506 12.168-0.42803 14.961-0.35016 2.7929 0.07788 4.6571-0.23662 6.6168-0.55989 1.9712-0.3115 5.9306-0.69354 9.6159-0.62515 5.0642 0.09539 11.2-0.28322 11.239-1.6907 0.036-1.2931-7.8092-3.1724-14.194-4.1062-4.9516-0.72211-10.585-2.1732-14.697-3.1239"/>
  <path d="m156.59 41.566c16.432 3.1723 46.021 9.2652 62.29 13.177 2.2873-0.13091 3.326-0.27373 4.6386 0.0034 1.3247 0.26598 4.5657 0.05858 6.3472-0.70483 1.7816-0.76342 3.9385-0.90942 7.9741-1.0374 11.785-0.34709 20.823-1.5838 24.363-4.8406 5.2468 0.79905 9.1607 0.77076 10.725 0.10436 1.5648-0.6664 2.1752-0.37453 3.3852-0.26063 5.4699 0.47317 11.246-0.21324 14.521-0.36242s14.643-0.47354 16.983-1.2214c-5.2668-1.3608-13.515-3.2856-17.694-4.4214-4.1554 0.15899-11.051 0.06978-13.394-0.37345-2.343-0.43179-8.2372-2.3254-9.9991-3.1189-1.7739-0.79384-3.4237-1.3437-6.2711-0.74745-11.126 2.3237-29.454 1.4234-35.136-1.6782-2.0148-1.1098-2.9775-1.1366-4.7385-0.2581-1.761 0.87851-4.6458 1.1073-6.8559-0.24842-2.2098-1.3671-3.2405-1.0867-5.0051-0.08229-1.7526 1.0047-4.3284 1.2421-7.0856 1.1652-2.7573-0.07688-4.557 0.05618-7.2617 0.65643-2.7167 0.59993-21.904 2.3897-37.787 4.2487"/>
  <path d="m393.61 62.483c-4e-3 -1.5805-0.0574-3.0593-0.10337-4.8242-6.7242-0.2791-20.8-1.3701-26.144-2.9506-3.8104-1.1255-6.0184-1.2787-9.5994-0.81735-3.5689 0.45019-9.2455 0.56676-13.356-0.464-4.11-1.0422-9.072-2.6693-12.345-2.5774-3.2737 0.10341-16.09 0.76529-23.5 1.2-8.2696 3.102-25.763 6.004-45.566 5.1198-5.6665-0.2496-10.978 0.43828-17.461 1.7463-0.62184 0.12009-1.2797 0.25062-1.9252 0.37004 16.38 3.3312 49.462 10.438 68.322 14.399 2.2718-0.42909 4.1608-0.77725 5.3804-1.0066 4.3519-0.80628 12.054-1.0496 15.419-0.58932 3.3532 0.45996 9.9925 0.37022 14.614 0.13262 4.6218-0.24905 8.2874-0.33008 10.292 0.28697 2.0051 0.6056 6.2867 0.18674 9.3282-0.11783 4.4483-0.42567 12.919-0.93387 14.731-0.23058 1.8124 0.69185 3.6244 0.97141 5.9508 0.71562 3.3762-0.36395 9.0426-0.11434 10.031-1.0144 0.6224-0.5667 1.3595-4.394 1.0995-4.8823-0.46399-0.84894-3.948-3.4426-5.1675-4.4958"/>
  <path d="m116.79 99.112c11.691-2.537 22.848-3.3826 27.425-5.8775 14.778-0.64154 32.829-1.3293 46.594-1.9074-26.914-5.1824-83.984-14.916-109.34-19.505-10.263 1.2141-20.875 2.155-29.177 2.1755-5.7411 2.4281-12.417 5.5287-15.226 7.7293-0.62016 0.4866-1.3601 1.0042-2.1598 1.5316 21.946 3.7727 60.081 11.364 81.888 15.854"/>
  <path d="m214.94 95.468c-4.48 1.1348-8.0102 1.9067-9.8403 2.7032-14.433-0.21919-29.259 1.2799-38.867 2.9016-3.7644 0.63942-8.0187 1.3568-11.657 0.87745-3.6503-0.46824-7.2089-0.38423-11.945 0.13648-1.0619 0.11927-2.3509 0.27801-3.7359 0.46844 28.226 4.6234 95.24 17.303 122.59 22.726 17.245-4.2031 54.417-9.4652 63.616-7.0901 3.5818-0.0605 8.0024-0.7732 12.774-1.6938-23.586-5.1125-91.782-16.359-122.93-21.029"/>
  <path d="m415.61 82.828c-5.8397-0.8614-12.953-2.9608-18.635-6.0738-14.485 1.6346-37.222 2.7528-49.583 0.74761-2.2923 0.73773-5.3067 1.3523-8.8396 1.792 22.604 4.0773 65.151 13.383 89.312 17.481-5.752-2.3019-10.534-6.9817-12.254-13.947"/>
  <path d="m402.67 151.19c13.154-3.3781 36.109-7.6509 38.494-9.5771-7.5679-2.8679-13.806-7.3592-17.995-11.106-2.8663-2.565-6.3082-3.2565-23.184-3.727 0.38541-0.17248 0.79556-0.37864 1.1941-0.59657-11.498-0.97335-30.422-4.7992-40.463-6.8313-9.015 1.684-17.451 3.075-20.528 3.7909-4.6039-0.39175-14.704-1.6124-16.039-1.4779-3.8525 0.38502-21.152 5.2851-33.513 8.7884 25.509 4.834 88.121 15.833 112.03 20.737"/>
  <path d="m447.35 146.07c-6.5702 2.3019-23.791 4.387-35.376 6.927 12.018 1.9498 40.6 7.465 54.553 9.5489-4.0222-3.7653-12.634-9.7315-19.178-16.476"/>
 </g>
 <path d="m328.27 142.19c3.0632-2.7891 6.2006-4.8316 9.7236-7.0467-5.9636-0.2579-22.359 1.2318-28.963 3.4526 3.0028 6.1991 8.6607 13.583 12.949 18.89 2.6738-6.3157 4.2047-9.6055 6.2902-15.296" fill="#a688bd"/>
 <path d="m337.99 135.14c-2.376-0.10059-6.401 0.0735-10.801 0.4547l3.7564 4.342c2.2247-1.7245 4.538-3.2175 7.0441-4.7967" fill="#b0b8d6"/>
 <path d="m330.95 139.94-3.7682-4.3423c-2.5635 0.22626-5.26 0.52899-7.8389 0.88081l7.7209 8.8959c0.38461-0.99705 0.78239-2.0396 1.2068-3.1844 0.87899-0.8115 1.7795-1.5422 2.6794-2.2501" fill="#aba2cb"/>
 <path d="m32.761 164.05c0.34434 3.4338-0.71524 5.603-5.1304 6.5449 1.9141 0.0305 2.9129 2.6007 6.1536 6.2412 1.3779-2.0688 3.1496-4.1838 4.6314-5.7114-2.3106-2.4464-4.3703-4.9317-5.6546-7.0747" fill="#b0b8d6"/>
 <path d="m38.419 171.12c-1.4818 1.5276-3.2535 3.6426-4.6317 5.7228 1.0268 1.1395 2.2646 2.3879 3.8221 3.691 1.3776-2.0573 3.1249-4.1501 4.606-5.6548-1.2867-1.204-2.5833-2.477-3.7964-3.7591" fill="#aba2cb"/>
 <path d="m68.813 185.04c-0.16902 1.3695-0.46422 2.9989-0.87764 4.6022 4.1794-0.5935 8.0803-1.859 10.509-4.0816-2.9715-0.0715-6.3205-0.25637-9.6315-0.52047" fill="#b0b8d6"/>
 <path d="m63.293 184.51c-0.15099 1.5762-0.51647 3.593-1.0467 5.548 1.8797-0.0163 3.8101-0.14571 5.685-0.41409 0.41341-1.6032 0.7205-3.2323 0.87764-4.6021-1.8749-0.15537-3.7373-0.33325-5.5159-0.53172" fill="#aba2cb"/>
 <path d="m51.664 182.3c-1.7613-0.81639-5.591-3.8091-9.451-7.421-1.4692 1.5051-3.2284 3.5975-4.606 5.6548 2.9871 2.4997 7.1453 5.2267 13.162 7.8452 2.362 1.0278 6.7556 1.7115 11.479 1.6714 0.52995-1.9435 0.88354-3.9607 1.0464-5.5365-5.3-0.59441-9.8334-1.385-11.63-2.2139" fill="#a688bd"/>
 <path d="m8.4571 228.54c-0.45752 1.0523-0.89064 2.0823-1.299 3.0787 1.6568 0.29813 3.7323 0.94006 5.5389 1.8379 0.18513-1.0942 0.41749-2.1757 0.6736-3.2565-1.6675-0.76797-3.4706-1.3679-4.9135-1.6601" fill="#aba2cb"/>
 <path d="m5.9971 234.58c2.4399-0.0579 4.0658 1.3502 6.2364 4.1248-0.0106-1.7524 0.16926-3.511 0.46733-5.2434-1.8066-0.89783-3.8821-1.5398-5.5386-1.8493-0.42155 1.0418-0.80616 2.0389-1.1651 2.9679" fill="#b0b8d6"/>
 <path d="m18.864 212.4c-3.3843 1.5089-7.3799 9.162-10.405 16.144 1.4429 0.29216 3.2463 0.88069 4.9135 1.6601 1.7836-7.2338 5.0606-13.853 5.4919-17.804" fill="#a688bd"/>
 <path d="m45.629 237.48c-1.1595-6.6172-1.6116-14.291-0.68636-21.881-2.4249 4.6392-4.1078 14.235-4.8743 22.528 1.7167-0.57054 3.6147-0.81538 5.5606-0.6466" fill="#a688bd"/>
 <path d="m46.346 241.06c-0.26521-1.1526-0.50538-2.3503-0.72082-3.5817-1.9459-0.16874-3.832 0.0764-5.5606 0.64659-0.11893 1.2793-0.21344 2.5364-0.29416 3.7252 1.9955-0.75744 4.2519-1.061 6.5756-0.79008" fill="#aba2cb"/>
 <path d="m39.772 241.85c-0.11048 1.8292-0.1821 3.545-0.18792 5.0336 2.2489-2.5942 4.5904-3.3878 7.8703-1.5785-0.40304-1.3282-0.76756-2.7584-1.1067-4.2452-2.3233-0.28238-4.5801 0.0326-6.5756 0.79008" fill="#b0b8d6"/>
 <path d="m67.681 216.91c0.08104 5.6252 0.13695 10.872 0.45154 16.652 1.0384-0.5551 2.1702-1.0503 3.2279-1.4446-1.6538-4.6727-3.2709-10.238-3.6794-15.208" fill="#a688bd"/>
 <path d="m68.304 236.31c0.09308 1.3539 0.19773 2.7196 0.32424 4.1547 2.0259-1.4208 3.4101-2.4358 4.6482-3.3289-0.3114-0.77596-0.64465-1.6213-0.98851-2.5126-1.2725 0.4226-2.6925 1.0129-3.9839 1.6869" fill="#b0b8d6"/>
 <path d="m71.365 232.12c-1.0695 0.3939-2.2014 0.88914-3.2398 1.4442 0.05831 0.89489 0.11598 1.8127 0.17332 2.7419 1.2914-0.674 2.7114-1.2643 3.9839-1.6869-0.29887-0.79852-0.60868-1.6317-0.91752-2.4992" fill="#aba2cb"/>
 <path d="m110.44 345.26c2.6092 0.26744 4.0454 0.37619 5.9761 0.23536 0.44045-1.2933 0.9085-2.7232 1.3785-4.2217-1.8787-0.0181-3.9646 0.14139-6.0174 0.39338-0.51272 1.3256-0.97471 2.5381-1.3372 3.593" fill="#b0b8d6"/>
 <path d="m113.22 338.02c-0.52333 1.2795-1.0094 2.5027-1.4454 3.6358 2.0525-0.24053 4.1387-0.4114 6.0174-0.39337 0.36595-1.1808 0.74507-2.4071 1.1258-3.6905-1.8399-0.13142-3.796 0.066-5.6978 0.4481" fill="#aba2cb"/>
 <path d="m361.87 158.72c-0.23834 4.2879 0.95134 6.4053 2.7556 6.5358 1.7095 0.11645 3.4656-1.0142 3.7589-4.2813-1.7542-0.64441-4.6055-1.6172-6.5145-2.2544" fill="#0d131a"/>
 <path d="m364.35 159.56c-0.0829 1.6926 0.29257 3.1575 0.93339 3.2097 0.64114 0.0407 1.0836-0.8974 1.198-2.4402-0.76389-0.3305-1.5888-0.60544-2.1314-0.76945" fill="#eaf6fd"/>
 <path d="m407.86 121.65c-2.1026 1.6134-4.8156 3.3586-7.8741 5.1286 2.8427-8.7e-4 5.836 0.13982 8.6145 0.30892-0.51273-2.0871-0.79692-3.412-0.74045-5.4375" fill="#a688bd"/>
 <g fill="#dcdddd">
  <path d="m6.8671 234.91c0.44109 2.0966 1.8239 5.399 2.4946 5.6581 0.6707 0.2591 1.5383 0.28339 2.4736 0.0118l0.12574-2.3785c-1.5515-1.9443-3.736-3.368-5.094-3.2913"/>
  <path d="m21.92 246.74c1.2259 2.5307 4.0032 7.0057 5.5483 7.0488 1.545 0.043 6.8212-3.1996 9.4321-5.9784-4.9539 0.2169-9.5094-0.20791-14.98-1.0704"/>
  <path d="m48.463 247.24c0.9763 2.5238 3.5024 4.919 5.1766 5.0229 1.6623 0.10313 4.7821-3.4397 5.4547-5.3792-4.339 0.77228-7.3764 0.92808-10.631 0.35635"/>
  <path d="m133.3 365.28c2.4699 2.2791 5.8056 3.7922 6.7033 3.5882 0.89742-0.19256 3.6313-3.1168 5.1317-6.5907-2.7131 0.89777-5.094 1.8277-6.106 2.7157-1.0849 0.94317-2.7885 1.0446-5.729 0.28689"/>
  <path d="m170.16 367.17c2.0401 2.3358 6.371 4.4149 7.5411 4.2528 1.1698-0.15061 3.2811-3.3556 4.3915-6.9205-4.6987 1.3005-7.4401 1.9341-11.933 2.6677"/>
  <path d="m197.35 347.55c2.9661 3.6786 6.3285 7.2194 6.9099 7.27 0.5814 0.0505 3.4956-3.7962 4.7019-6.534-3.3071-1.2603-9.0366-2.2332-11.612-0.73604"/>
  <path d="m411.45 291.77c2.0322 3.0456 6.4736 8.4145 7.5294 8.5126 1.0558 0.0982 3.9964-3.8395 5.4134-6.4569-4.3378-1.4036-7.2937-2.0357-12.943-2.0558"/>
  <path d="m438.16 286.39c2.5862 2.7977 7.4962 6.29 8.8369 5.9838 1.3288-0.3065 3.719-4.981 4.7526-8.3534-3.7213 2.931-6.6054 4.8433-7.7883 5.4631-1.5811-0.88008-3.9021-2.1015-5.8013-3.0935"/>
  <path d="m292.18 183.26c3.6333 5.7701 7.7075 12.365 9.7142 15.044 0.77977 1.041 1.6028 1.3846 2.9762 1.1824 3.0066 10.757 8.0747 29.909 8.8922 38.555-5.8691-13.883-17.428-35.289-21.583-54.781"/>
 </g>
 <g fill="#b7cdd9">
  <path d="m262.43 193.62c-0.75399-4.0979-25.27-15.1-29.693-16.448-1.2146-0.37742-3.7202 0.33146-4.4278 0.11704-4.3292-1.2888-8.1178-3.1924-11.577-5.8198 1.6946 6.197-5.1947 11.41-9.1434 10.556-3.9488-0.85448-8.6176-1.4771-11.872-2.0603l1.2252 2.1299c-0.0929 8.0253-0.0912 12.228 1.6192 15.299 1.71 3.0825 5.7879 9.1169 9.2353 11.744 0.75688 0.58225 4.519 1.3056 5.2708 2.0709 0.74021 0.75358 5.5156 2.2495 6.8128 1.7932 1.2854-0.4566 3.289-0.65268 5.2703-0.47147 1.9812 0.18118 6.9092-1.6626 9.7127-3.245 2.5681 2.1673 4.3095 4.1284 5.0881 6.0626 2.4242 0.50277 5.7504 0.65277 6.6208 1.8566 0.85882 1.1921 4.9883 4.9489 6.3905 5.4232 1.4022 0.47427 2.229 0.68056 3.1588 1.886 0.91823 1.1937 3.9463 3.0761 6.1702 3.9398-3.1314-11.826 0.848-29.133 0.13862-34.833m146.16-66.526c-0.20874-1.4717-0.40686-2.8973-0.74394-5.3116-4.4476-2.5862-15.425-8.1602-17.1-8.6535-1.6749-0.50478-4.2464 8e-3 -6.3617 0.79604-5.0596 1.8745-37.315 7.7891-44.302 9.2777-2.2154-0.31371-14.457-1.5025-15.942-1.5439-1.4856-0.0414-30.698 7.653-42.544 11.48 0.89304 2.0977 1.6415 4.2601 2.8974 7.4215-1.1005 3.2102-4.5551 13.638-4.8846 15.645-0.32919 1.9949 4.0095 30.242 4.8312 32.338 0.877 2.2462 7.5571 7.0934 12.46 10.414 2.8874 7.3526 10.767 25.048 14.835 34.449-5.6422 4.4235-14.879 11.507-20.577 15.803-0.0249 3.0226-16.066 12.275-16.823 12.128-1.5142-0.29416-12.554-7.8854-17.51-11.86-1.1867-0.94926-4.5254-7.9021-5.569-9.7177-1.0314-1.8267-1.9053-2.9047-3.2228-3.8576-1.3171-0.96433-1.7515-1.5949-2.4912-2.795-7.1002 3.8217-23.226 13.988-24.818 16.051-1.2707 1.6366-3.7277 2.7362-5.6125 3.3593-1.8732 0.63489-3.4507 1.759-4.7687 2.9591-1.3061 1.2004-3.7673 4.1551-4.5414 4.1908-0.76254 0.0474-5.0922-3.7837-7.4497-6.2544 1.5152-1.4465 3.0981-3.1889 4.0425-4.6399 0.93283-1.4628 4.6748-29.45 3.8647-32.817-0.98173-4.0356-25.497-26.592-31.586-29.167-1.9749-0.83381-28.021-0.47208-31.057 0.49686-1.428 0.45262-9.4556 5.5425-10.972 7.0348-1.5168 1.5037-3.9791 7.058-6.4363 12.429-4.5671-4.273-12.367-12.026-14.386-13.434-2.0062-1.4187-7.2093-3.7855-16.351-6.9492-4.9821-7.7316-14.38-20.465-16.503-22.379-2.1351-1.9148-18.794-11.461-27.014-15.698-2.4154-1.2469-3.2844-2.0728-4.322-4.1058-2.2204-4.4022-7.9163-15.967-11.393-22.649-4.8992-9.4242-11.623-23.354-12.605-30.791 3.4865 2.5021 9.6119 3.7838 17.462 5.0562 7.8506 1.261 13.573 3.3445 14.74 6.2744 9.8381 2.496 27.959 1.398 39.992 4.5392 0.63053 5.1137 1.9465 13.373 3.5881 23.176 0.43989 2.5661 1.2921 4.4222 3.067 7.3117 3.9257 6.3737 12.837 16.104 19.065 27.329-0.29847-5.5053-6.9712-19.147-9.0049-24.701-1.5246-4.1882-2.5456-7.24-2.9025-10.651-0.35718-3.3998-0.68676-12.055-1.4548-19.062 5.8224 2.762 8.8645 4.1408 14.592 6.9001 6.9326-0.36786 31.317 1.6977 43.286 7.1276 4.4867 2.0376 9.2159 4.3339 12.844 5.1794 3.6398 0.84587 11.82 0.51281 26.008-1.1301 14.2-1.6426 37.039-3.0442 54.143-2.1894 27.582-5.9762 55.47-10.123 65.994-7.4704 11.256-0.56798 27.378-5.8903 39.535-6.3644 2.6432-0.0981 4.3947-0.20958 6.9887-0.6755 11.272-2.0219 19.215-3.2205 22.579-1.8555 9.8832-1.6827 25.605-7.1422 36.348-9.3964-1.8874 4.9863-5.5378 16.039-7.0449 19.753-1.4955 3.726-1.4819 5.7992-1.3228 9.9035-1.8836-1.9764-8.1064-2.3217-13.543-2.7024"/>
  <path d="m279.68 155.84c3.4119 1.7671 5.5044 2.65 9.6964 4.164-1.4629-5.9729-3.2897-12.975-4.2236-17.445 3.7198 7.788 8.5292 18.298 12.389 24.899-1.8692 4.7577-3.8503 10.543-5.1527 15.878 0.85403 4.7764 2.9823 11.203 4.5188 15.815-3.7785-2.2698-11.408-8.4605-12.202-10.716-1.0686-3.0531-5.2727-29.304-5.0263-32.595"/>
  <path d="m371.47 187.6c5.7054-1.1464 15.434-3.2572 18.06-3.5734 9.4276-1.1228 18.965 0.19668 21.684-0.0482 2.719-0.2563 11.191-3.3641 15.026-3.9901 3.8235-0.62631 13.177-1.6482 15.799-1.8384 2.384-0.18548 4.3291-0.84127 5.7076-1.2266 2.9129-0.81204 7.9386-1.8973 9.4494-4.4662-0.16964 3.0873-3.3796 5.6089-6.9992 7.8785-3.6193 2.2582-7.4167 4.9352-9.6213 7.6451-2.1927 2.7102-7.0386 6.7322-11.712 10.106-4.2096 11.06-15.858 27.833-17.378 27.745-2.7904-0.16968-6.636-11.122-12.261-15.848-4.7088 11.046-14.58 27.651-16.776 27.51-2.1964-0.14141-9.862-16.995-16.538-23.709-4.0771 3.3219-10.314 14.566-12.099 14.596-1.773 0.0307-6.2731-11.764-10.337-14.89-4.0636-3.1366-7.2958-2.8145-14.822-3.345 3.0286-5.3896 6.6066-12.138 8.4869-15.59 6.8976 1.7384 13.302 2.8216 20.988 3.5971 4.8419-3.4495 8.0589-6.2113 13.342-10.553"/>
  <path d="m328.66 210.14c6.0137 0.16767 14.03 1.0439 16.387 4.7858-7.0896 2.1614-13.759 4.1743-17.131 6.531-3.3604 2.357-5.8747 4.2338-8.9877 6.6779 3.832-6.9018 6.4376-12.051 9.7314-17.995"/>
  <path d="m206.32 215.96c-1.6497-5.2452-27.901-27.828-31.233-29.031s-28.523-0.37155-31.278 0.33036c-1.641 0.41233-9.7989 5.9109-11.167 7.1897-3.859 3.6029-15.922 34.84-15.792 38.29 0.0539 1.4788 7.7205 13.179 9.2788 15.73 9.0698 2.7494 29.405 8.4126 36.943 10.661 8.5701-0.23058 22.544-1.0434 29.753-0.65918 3.0564-2.9725 8.9676-8.087 9.6836-9.4528 0.91672-1.738 4.3477-31.372 3.812-33.059"/>
  <path d="m115.74 281.61c1.6742 7.3531 6.4048 13.44 10.796 17.204 7.8075 9.6312 17.47 12.867 30.38 13.994 12.022 6.4849 21.128 10.942 32.282 15.719-0.7682-6.1482-1.241-14.785-1.1093-19.511 2.8023 5.7125 6.4775 13.82 9.8525 19.468 5.0434 0.83919 12.013 2.1444 15.724 3.8511-6.1486-10.261-12.173-21.972-13.47-30.082-1.2966-8.0984-3.0905-26.517-3.7759-33.076-0.20691-1.9641-1.2863-2.498-2.9783-1.9612-7.0681 2.2422-32.678 3.6124-39.249 3.3605-4.1909-2.4073-18.177-3.7248-23.934-7.1377-2.3403-1.3822-6.6727-2.9804-9.1663-5.2601-1.3458-1.2171-2.4315-1.5222-2.8381 0.68814-1.1905 6.4372-1.9456 15.177-2.5133 22.742"/>
  <path d="m24.85 173.68c0.02226 2.188 0.62263 5.8235 2.1935 8.3524 0.66802 9.7414 10.324 25.608 18.531 31.563 5.5443 6.3387 15.557 11.966 22.125 12.298-0.06644-3.1626-0.12842-6.4854 0.09723-9.0329 1.0982 8.3906 2.9352 15.45 5.4797 19.747 0.28572-7.6878 0.65813-24.031 0.53506-27.722-0.13464-3.7028 0.19319-4.3693 1.3202-8.1056 1.1152-3.7366 4.2585-12.387 5.5842-15.144l-2.1909 0.0878c-6.7152 4.9433-19.178 5.7181-27.936 2.462s-16.04-9.1279-20.68-16.323c-1.8693-2.9151-4.2022-0.72414-5.058 1.8173"/>
  <path d="m41.531 131.41c-2.8823 6.1152-6.3168 12.41-6.8553 15.086-0.55037 2.6759-2.5018 15.929-2.0833 17.555 0.41852 1.6264 14.18 16.13 19.005 17.971 5.3552 2.0274 19.779 3.8726 28.47 3.5766 0.89192-2.1281 6.9933-6.8136 8.5683-9.5526-3.4239-4.3213-7.1982-10.153-9.6668-12.054-3.3879-2.6254-20.864-12.297-27.354-15.856-1.7456-0.95337-2.9982-2.0992-3.7293-3.6083-0.71946-1.4974-4.8942-10.031-6.3543-13.118"/>
  <path d="m444.93 243.92c-2.4196 5.7273-9.7488 10.94-16.718 13.059-5.747 7.3294-16.123 14.301-26.413 19.087-1.3488-7.0806-2.4576-12.105-3.8513-17.148-1.336 6.5362-2.9129 14.463-4.6831 19.51-3.3251 1.9458-7.4096 3.4008-11.177 4.1318-6.2769-2.6716-11.626-7.9168-14.165-13.267 1.3414-6.7308 3.3674-17.966 2.5267-21.517-1.896-7.9318-8.4582-21.273-9.6129-28.062l0.50546-0.63867c3.9833 1.7487 7.4268 2.8067 11.06 3.4577 3.3283 4.7652 8.4467 14.86 10.038 14.961 1.6028 0.10193 7.5624-8.882 9.8714-13.628 3.9222-0.32582 9.7378-1.5837 14.467-3.5476 1.2811 2.2574 3.5308 5.6069 4.7112 5.5024 1.1682-0.0934 6.164-6.5047 9.6094-12.764 4.3066-2.594 10.14-7.0694 10.32-11.382 3.2975 8.429 10.911 34.397 13.511 42.245"/>
 </g>
 <g fill="#0d131a">
  <path d="m353.54 156.7c-5.4221 2.9294-15.568 8.4985-21.07 10.876 6.3228 4.0127 16.199 6.8304 24.752 11.925 8.4422-4.1736 16.286-9.0626 23.023-13.501-8.4702-3.3511-16.659-6.1447-26.704-9.2992m-0.64553-1.1632c0.48304-0.26138 0.63786-0.26852 1.0625-0.14215 10.447 3.2802 19.578 6.3635 28.354 9.8606 1.1294 0.44376 1.1558 0.77661 0.0301 1.4781-7.4068 4.5804-16.077 9.6868-24.651 13.903-0.43424 0.21694-0.64752 0.18809-1.0455-0.0406-8.5997-5.1069-19.085-7.85-26.33-12.484-0.87669-0.55123-0.90244-0.90696 0.0604-1.3153 6.4741-2.6939 16.991-8.3443 22.52-11.259"/>
  <path d="m358.15 157.52c-3.7504 1.8423-6.648 3.8114-10.408 6.8444 5.5038 4.3793 13.904 8.1063 15.282 8.1562 1.4612 0.0637 10.36-4.292 14.316-7.1019-0.31809-0.53565-0.52341-0.85059-1.1573-1.5783l2.0764 0.60759c0.27439 0.39703 0.43567 0.58476 0.62846 0.92224 0.23681 0.46468 0.22269 0.54445-0.25102 0.89772-3.5585 2.6378-13.736 7.6105-15.768 7.5539-2.1274-0.0593-11.236-4.3902-16.597-8.7998-0.76715-0.6398-0.64416-0.78525-0.0355-1.2836 3.7608-3.0674 6.7852-4.8955 10.441-6.7404z"/>
  <path d="m356.5 179.88c2.2664-1.9409 4.3939-4.4468 5.5222-6.9463l1.3719 0.27873c-1.1668 2.6014-2.474 4.6951-4.2147 6.1238z"/>
  <path d="m334.19 165.73c4.127-0.8469 7.0165-1.2473 12.685-1.9367l0.21162 1.3687c-5.6917 0.65439-10.486 1.5628-16.095 2.6433z"/>
 </g>
 <path d="m326.55 146.72c6.5182 9.8014 22.354 33.949 33.297 50.126 5.0088-3.8914 10.826-8.6307 15.731-12.204-8.8474-14.138-16.936-27.339-23.576-37.899-7.3421-1.1552-19.016-3.5192-23.402-4.8783-0.4076 0.1146-1.3504 3.2147-2.0503 4.8558" fill="#fff" opacity=".49517"/>
 <g fill="#0d131a">
  <path d="m318.81 166.15c2.8526 0.0682 10.109 0.44221 12.696 0.65177l0.11238 1.5148c-2.7621-0.32896-9.9604-0.66709-11.921-0.7446z"/>
  <path d="m398.91 165.45c-3.9049 0.13162-10.002 2.1032-17.89 1.345l-0.071-1.7198c8.0698 0.64873 13.942-0.92826 17.401-0.85471z"/>
  <path d="m310.2 139.03c2.9967 5.9928 7.6454 12.032 11.588 16.94 2.3771-5.9117 3.7299-8.359 5.8392-14.049 0.0254-0.0566 0.0625-0.11279 0.11143-0.15723 2.7458-2.5001 5.0312-4.2687 7.9581-6.008-4.46-0.01-18.689 1.3914-25.497 3.2744m27.486-4.6733c1.9247 0.0766 1.9059 0.75171 0.635 1.5408-3.8846 2.3882-6.2789 3.7988-9.5203 6.5828-1.9766 5.6251-3.472 8.4922-6.0905 14.958-0.35701 0.8604-0.78902 0.99724-1.457 0.21133-4.9962-5.9455-10.099-12.318-13.204-18.714-0.32647-0.66187-0.17523-0.96686 0.38813-1.1229 8.0317-2.2497 22.725-3.6838 29.249-3.4561"/>
  <path d="m281.9 132.62c8.4536 1.8161 19.812 3.9536 28.122 5.3649l-0.66236 1.5734c-8.3931-1.425-19.397-3.9306-27.781-5.676z"/>
  <path d="m404 177.65c-4.3755-8.585-8.3244-17.112-10.93-23.06-0.22366-0.51013-0.0859-0.75824 0.35119-1.0782 4.1157-3.0002 42.378-9.8124 45.767-11.905-7.6578-3.0536-12.778-7.1015-16.457-10.399-2.7037-2.423-5.6795-3.1931-22.585-3.8821-1.3664-0.0495-1.4613-0.48736-0.28994-1.1189 2.7043-1.4363 4.7941-3.0156 6.3411-4.3238-5.0737-2.7411-13.558-7.2836-15.27-7.7436-1.6643-0.45868-4.7452-0.0178-6.1742 0.46917-10.855 3.6941-38.192 7.7074-44.355 9.0472-0.19111 0.029-0.3456 0.0247-0.52325-3e-3 -4.116-0.40106-14.759-1.3277-15.546-1.2466-4.7965 0.54193-31.627 8.5775-41.515 11.256 2.7243 7.6572 9.3068 22.831 14.819 32.88l-0.60604 2.1132c-6.3819-11.275-13.645-27.201-16.512-35.309-0.2314-0.65921-0.0927-0.94165 0.5542-1.1068 10.115-2.7528 38.326-10.807 43.156-11.257 0.88234-0.0785 11.408 1.2342 15.928 1.6237 6.0211-1.3782 33.06-5.7662 44.225-9.486 1.7171-0.58199 5.4269-0.97099 7.0318-0.51397 1.7822 0.49632 10.776 5.5455 16.545 8.5235 0.70352 0.36318 0.74276 0.66203 0.15762 1.1725-1.792 1.5648-3.9349 2.9136-5.9515 4.0026 14.688 0.0431 18.563 0.9871 21.51 3.6231 3.7713 3.3804 10.174 7.9336 18.025 11.313 0.37616 0.15937 0.42792 0.43566 0.12283 0.71345-3.6236 3.2659-42.15 9.2919-46.725 12.566 2.3096 5.4698 6.032 14.014 8.9581 19.982z"/>
  <path d="m329.41 141.15c15.065 4.4511 47.913 7.9437 65.322 12.369l-0.55858 1.6908c-17.365-4.2748-50.62-7.7214-65.977-12.776z"/>
  <path d="m456.24 172.04c4.0884-3.2987 8.2375-6.2178 10.547-7.9858-2.6165-2.9932-12.354-9.5404-19.578-17.037-8.3284 3.0774-37.001 5.5189-44.152 9.4537 0.51184 4.2515 1.3112 13.974 1.9177 20.805l-1.3866 0.24764c-0.61417-6.98-1.7374-17.032-2.2418-21.123-0.0576-0.49404-0.0518-0.70001 0.51664-1.0392 6.8564-4.0346 36.557-7.0544 45.059-9.9781 0.6125-0.21197 0.76541-0.15044 1.1468 0.24957 7.7731 7.8781 17.851 14.572 20.694 17.984 0.52915 0.64462 0.53274 0.94246-0.13559 1.4506-2.7829 2.1212-6.9253 4.8-11.365 8.3294z"/>
  <path d="m467.5 164.84c-17.457-0.53257-51.013-4.7091-65.54-7.9656l1.1821-1.4444c14.581 3.0291 47.08 7.554 64.584 8.1337z"/>
  <path d="m433.05 175.08c3.7523-0.20457 7.9209-0.40901 10.184-0.10541 2.4409 0.33145 4.1587 0.15022 7.2087-0.88695 2.2573-0.7616 4.1704-1.1205 5.8329-1.0284-1.1196 2.6142-4.2152 5.2878-7.2002 6.9797-2.5742 1.4628-5.7268 3.6195-10.88 9.2705-4.3926 4.8248-13.078 10.893-20.742 16.176-1.7343 1.1999-1.1984 2.028 0.63068 0.84213 7.4251-4.809 17.035-11.195 21.315-15.828 5.1999-5.6268 8.0831-7.5048 10.597-8.9349 3.4083-1.9434 7.2058-4.6204 8.2238-9.1385 0.10848-0.47796-0.014-0.77912-0.71387-0.84444-2.0991-0.21887-4.981-0.0931-7.4911 0.77601-2.8701 0.98501-4.4241 1.2623-6.4249 0.9317-2.3918-0.38734-6.907-0.12385-10.539 0.0268-4.6918 0.20129-25.138 2.3339-32.434 3.8253-6.041 1.2402-13.404 2.5237-20.689 3.6032-0.23898 0.0391-0.38383 0.11527-0.56528 0.22473-6.8393 4.2756-11.874 9.0825-21.741 16.182-7.2328-0.80861-13.304-1.9055-20.104-3.2861l-0.72498 1.6861c6.895 1.4062 13.294 2.6725 20.717 3.4979 0.56887 0.0731 0.79852-0.0579 1.1261-0.28925 10.061-7.1977 15.007-12.259 21.818-16.375 7.2613-1.0687 14.317-2.4409 20.358-3.6696 7.0451-1.4183 27.569-3.377 32.239-3.6361"/>
  <path d="m293.36 183.54c2.8194 14.485 11.836 31.09 20.195 52.922 6.1302-12.117 16.861-30.989 23.032-42.864-13.08-17.623-22.967-34.561-31.726-46.738-3.9759 12.063-8.1032 25.289-11.501 36.681m19.477 54.803c-9.5888-22.954-19.42-40.2-21.708-54.544-0.0405-0.25307-0.0368-0.3904 0.0293-0.61759 3.3012-11.326 8.1945-24.725 12.811-37.996 0.34959-1.0209 0.65925-1.0352 1.3584-0.0881 9.5096 13 20.239 30.007 33.39 48.068 0.32097 0.43267 0.37656 0.57165 0.0375 1.215-6.2793 11.918-17.254 30.554-24.634 43.999-0.55102 0.99241-0.84908 1.0185-1.2836-0.0358"/>
  <path d="m300.96 197.62c-3.4481-4.7342-5.8713-8.2603-8.3284-12.703l0.21476-2.5822c2.417 4.6024 5.1388 8.9384 8.8517 14.837 1.1734 1.8536 0.51048 2.1672-0.73806 0.44896"/>
  <path d="m337.8 193.92c-9.5924 2.3436-20.564 4.2479-31.74 5.7801-2.1491 0.29508-2.4747-0.40111-0.13152-0.82822 10.939-1.9969 21.472-3.9592 30.992-6.2705z"/>
  <path d="m328.99 209.27c6.0702 0.27232 12.039 1.1831 15.119 3.3647 3.208 2.2539 8.4659 14.597 9.7501 14.61 1.8787 0.0181 7.1927-10.553 11.724-13.954l0.80514 0.98442c-4.46 3.4029-9.7753 15.302-12.689 15.29-2.3069-0.0185-7.5631-13.278-10.641-15.494-2.7865-2.0131-7.6587-2.5956-14.734-3.0677z"/>
  <path d="m382.53 238.79c-2.8266-0.14751-6.3425-11.835-19.811-27.888-1.3237-1.5829-0.59207-2.2267 0.81702-0.72159 13.884 14.805 17.313 26.181 19.015 26.148 1.2852-0.0214 10.63-13.95 16.252-26.619l1.0007 0.79519c-5.1575 12.637-15.172 28.402-17.274 28.286"/>
  <path d="m411.49 226.89c-3.5638-0.15655-7.4958-12.279-12.893-16.656-1.791-1.4585-1.222-2.2443 0.66602-0.85177 5.6756 4.1894 9.6757 15.146 12.24 15.321 1.104 0.0766 11.735-15.202 16.507-25.96l1.8676-1.2878c-4.8728 13.091-16.274 29.528-18.388 29.434"/>
  <path d="m407.19 221.2c-4.7083 1.6438-9.8695 2.897-15.31 3.4897l1.0786-1.9969c4.7862-0.59948 9.3134-1.7215 13.433-3.1527z"/>
  <path d="m421.84 211.73c5.1926-3.6573 8.3397-7.3258 8.6641-9.5728 0.11872-0.84414-0.70893-1.875-2.2332-2.6619l0.74851-1.2503c2.4182 1.1439 3.4798 2.7424 3.41 3.9659-0.1969 3.224-4.8596 8.3505-12.361 12.928z"/>
  <path d="m373.53 223.98c-4.2112-0.82744-8.4684-2.1372-12.709-4.0419l0.96171-1.6452c3.4317 1.4814 6.8384 2.5841 10.206 3.3652z"/>
  <path d="m389.89 228.18c3.6941 11.269 13.936 43.219 14.003 60.869 3.1911 1.154 7.3576 1.8771 10.576 2.0585 2.482 0.13801 4.9229 0.46936 7.2345 1.1751 6.9703 2.1183 9.9313 0.86095 9.3486-0.85019-1.8338-5.4679 0.55246-18.961-2.0963-26.341-1.2476-3.459-1.6157-6.8934-1.945-10.865-0.38469-4.5457-2.8587-13.501-12.325-31.905l1.2569-1.5682c9.8659 18.988 12.401 28.747 12.806 33.396 0.31906 3.914 0.49181 7.1025 1.7551 10.424 2.8036 7.3731 0.54933 20.824 2.3858 26.624 0.94041 2.9579-2.2615 5.6057-11.72 2.7309-2.2174-0.66878-4.394-1.0959-6.7947-1.1629-2.6622-0.0742-8.5636-0.85718-11.685-1.9406-0.65979-0.22454-0.8442-0.43581-0.83663-1.1342 0.0501-17.154-9.377-48.039-13.234-59.874z"/>
  <path d="m361.56 219.06c1.3212 7.2173 7.4236 19.561 9.567 28.004 1.1141 4.4057-0.77936 14.728-1.9459 22.014 4.6458 9.5546 14.975 14.504 20.378 14.803 3.303-4.9926 6.3335-15.57 7.7296-27.246l0.96872 3.2221c-1.1219 10.802-4.0064 20.834-7.2423 25.554-0.23537 0.33701-0.47626 0.44481-0.84469 0.43455-6.2476-0.31161-17.616-4.6597-23.069-15.977-0.15745-0.32506-0.1395-0.54213-0.0843-0.81545 1.4129-7.5877 3.4924-17.756 2.599-21.549-1.9596-8.2085-8.1389-19.501-9.5523-26.824z"/>
  <path d="m428.03 255.93c5.3911 11.831 10.946 25.9 16.091 32.48 4.9235-3.3899 7.5805-5.2627 11.495-10.009-4.222-10.676-11.27-32.632-14.652-43.983-2.479-8.3489-6.9781-23.167-9.8326-31.275l1.2332-1.5689c2.9675 7.893 7.5316 23.79 10.087 32.393 3.4256 11.513 10.746 33.51 14.914 43.991 0.22174 0.57878 0.28667 0.80963-0.16876 1.3581-4.1372 5.0495-7.3705 7.9712-12.621 11.558-0.63077 0.4405-1.1223 0.15194-1.4211-0.22285-5.3317-6.7107-10.519-20.311-14.679-29.807z"/>
  <path d="m455.27 274.51c0.41486-0.80153 1.4799-2.7416 1.8457-3.4872-3.8197-8.0428-9.4253-19.433-10.968-22.557l-2.2856-7.6106c3.9604 8.1154 11.15 21.566 15.031 29.542 0.25804 0.5569 0.3946 0.7783 0.0571 1.3644-0.94982 1.6455-2.1957 3.6721-2.9715 5.0477z"/>
  <path d="m439.72 286.86c4.5002 4.1108 6.4703 4.6925 7.0115 4.4786 0.58969-0.24695 2.4716-2.4734 4.1102-6.6421l2.3907-2.1321c-1.7501 6.0322-4.4426 10.458-5.7983 10.878-1.0436 0.31447-5.5014-1.9056-10.561-7.2802z"/>
  <path d="m431.64 289.5c1.6788-2.6215 3.9122-4.2312 5.0932-4.3586 1.8257-0.21248 4.957 2.2339 7.4204 4.3182l-0.64825 1.4936c-2.8354-2.3924-5.4697-4.321-6.6986-4.1835-0.93083 0.11146-2.974 2.1502-4.6504 5.1154z"/>
  <path d="m425.3 294.05c-2.3548 3.4043-5.1742 7.2652-6.4103 7.2307-1.2241-0.0341-4.8665-4.6249-8.7692-9.6924l2.1592 0.19767c2.8855 4.0085 5.9139 7.5858 6.663 7.5952 0.57047 0.0159 2.6305-2.6293 4.6323-5.7457z"/>
  <path d="m390.41 284.32c2.3725 0.22651 6.1293-0.1383 8.0206 0.28086 1.4661 0.31572 3.0182 2.2371 4.3975 4.3828l-0.81303 1.4317c-1.0754-1.5302-2.5026-4.0894-3.8617-4.4022-1.9148-0.4313-5.4856 0.0875-8.1067-0.18021z"/>
  <path d="m311.9 234.39c-8.7703 6.558-18.543 14.096-22.067 17.628l1.8218-3.9116c3.8962-3.6591 12.065-9.9704 19.572-15.602z"/>
  <path d="m319.66 226.28c4.1404-3.0339 7.1134-5.1498 7.4407-5.3697 4.7238-3.052 11.379-5.0079 17.507-6.8068l1.111 1.5312c-6.0679 1.7777-13.136 4.0199-17.751 7.0062-0.36356 0.24182-4.4173 3.1521-9.8087 7.1131z"/>
  <path d="m240.35 218.99c-0.85402-3.07-1.9098-6.1572-4.68-8.3301-4.9579-3.906-7.4508-7.0675-8.9286-12.079-0.5101-1.7549 0.12587-1.9548 0.82802-0.26319 1.8282 4.3913 4.1819 7.423 9.0004 11.211 2.9562 2.327 4.499 5.8629 5.3248 9.0925 1.0527 4.049 2.2961 7.6567 3.8877 12.431 0.70351 2.0695 1.3553 2.5801 3.3478 4.4909 2.5251 2.4295 6.7947 11.401 8.8508 13.588 2.1834 2.3169 15.381 11.022 16.391 11.062 1.0218 0.0399 13.895-8.1902 15.176-9.7692 1.8109-2.2399 3.3104-11.657 6.4312-16.941 1.662-2.8739 2.949-5.0941 4.7099-8.5264 0.91766-1.7724 1.7773-1.4621 1.0006 0.37146-1.3892 3.3282-2.3008 5.3068-4.2133 8.6319-3.1538 5.6152-4.4667 15.588-6.4054 17.721-1.3257 1.4747-15.461 11.044-16.816 11.006-1.343-0.0375-15.923-10.35-17.843-12.305-2.1975-2.2372-6.0022-10.818-8.2469-13.068-2.014-1.9915-3.3485-3.1854-4.1302-5.4403-1.2338-3.5273-2.7446-9.4901-3.6848-12.883"/>
  <path d="m297.58 200.76c-6.5979-4.8106-13.078-10.007-13.815-11.734-0.87117-2.0284-5.4837-31.119-5.1542-32.702 0.35719-1.7193 3.8173-11.494 5.291-16.996l1.037 2.4796c-1.0878 4.0351-4.002 13.001-4.3114 14.71-0.25412 1.4359 3.9642 29.737 4.7454 31.58 0.54725 1.275 6.1395 6.3209 11.454 10.237z"/>
  <path d="m116.87 107.71c-1.832 0.86508-4.8011 1.561-6.9933 1.6946-1.0128 0.0634-1.032 0.32624 0.049 0.80301 4.0061 1.7837 8.0055 3.384 12.829 5.7058 26.136 1.1181 36.176 4.032 43.18 7.0788 5.7931 2.5321 10.963 5.2529 14.487 5.5573 13.182 1.1577 47.49-5.8678 78.513-3.4339 15.574-4.4329 56.666-10.33 66.262-7.7035 10.225-0.29895 26.972-5.4321 39.905-5.9991 8.5389-0.39178 24.984-4.9149 29.274-2.6538 4.6311-0.15718 21.258-6.519 34.058-8.7274 1.9484-0.3465 2.0648-1.5343 0.17977-2.1823-6.8213-2.3432-11.897-7.5579-13.659-14.341-6.3838-0.96818-13.054-3.1812-18.209-5.9932-14.178 1.7119-36.921 2.6238-49.281 0.58424-5.8202 1.8533-15.554 2.876-26.168 2.5915-8.3541 2.7217-18.912 4.2711-32.11 4.991-12.948 0.70401-43.256 5.8827-60.831 6.5837-10.201 3.7009-19.487 4.8735-22.907 6.3585-0.16894 0.0869-0.3244 0.11693-0.57398 0.10997-15.689 0.02065-29.424 1.6418-38.566 3.1963-4.0034 0.67857-8.2971 1.5323-11.852 1.0552-3.4961-0.45249-6.7012-0.67928-11.746-0.17863-4.747 0.4746-13.424 1.9619-17.442 2.3194-3.7317 0.31968-6.6018 1.7284-8.3978 2.5831m-0.53545-1.6984c1.8561-0.87586 4.8874-2.0969 8.7859-2.4234 4.2081-0.34075 13.017-1.8702 17.49-2.341 5.1296-0.5441 8.5199-0.56409 12.1-0.14361 3.6872 0.42346 7.4655-0.28429 11.3-0.8645 9.2566-1.391 23.397-3.0238 38.874-2.7296 3.0245-1.4044 11.901-2.8175 22.628-6.6182 0.37225-0.12704 0.51582-0.1574 0.92086-0.18046 17.078-0.77212 47.185-5.59 60.73-6.3575 13.164-0.74382 23.078-2.2539 31.36-4.9662 0.33628-0.1166 0.50362-0.14628 0.91959-0.13469 10.601 0.29558 19.814-0.37516 25.539-2.2311 0.23993-0.07347 0.4426-0.09073 0.66777-0.06154 12.367 1.8221 34.39 0.69546 48.758-1.0226 0.48919-0.05508 0.74969-0.01346 1.1477 0.21523 5.0458 2.8892 11.527 5.0511 17.947 5.9974 0.56856 0.08457 0.70703 0.2373 0.84685 0.76799 1.8006 6.658 6.2278 11.259 12.849 13.528 3.3694 1.159 2.8239 4.5107-0.4044 5.1192-12.698 2.383-30.039 8.7707-34.618 8.7576-0.0713-2e-3 -0.13042-0.0151-0.18921-0.0396-4.3418-2.1137-20.302 2.1023-28.805 2.4836-13.064 0.59771-29.234 5.9072-39.854 6.3097-0.27366 4e-3 -0.45131-0.024-0.71116-0.0885-9.5545-2.4308-49.827 3.5122-65.201 7.63-0.15578 0.0415-0.32217 0.0369-0.42913 0.0338-30.246-1.7137-65.354 4.9803-78.722 3.6685-3.5465-0.35084-9.277-2.9957-15.024-5.4921-6.9454-3.0108-16.562-6.1992-42.626-7.3153-0.29678-0.02-0.44971-0.0812-0.6961-0.20264-4.798-2.3898-8.604-4.0992-12.774-5.9677-2.3964-1.0746-2.7084-3.1103 0.30613-3.3011 2.0612-0.12576 5.1722-1.2186 6.8837-2.0298"/>
  <path d="m260.16 125.63c-0.43806 10.592 1.1834 33.061 2.4942 46.198 1.36 13.506 1.2938 23.559 0.0532 35.205-1.3185 12.309-0.86153 20.235 1.7136 26.846 2.0648 5.2912 3.9997 10.121 6.6084 18.084 0.72346 2.2075-0.067 2.4031-0.82803 0.26321-2.669-7.5068-5.0901-13.243-6.9013-17.817-2.9893-7.5386-3.6315-15.218-2.3294-27.367 1.239-11.589 1.1741-21.634-0.17556-35.082-1.312-13.092-3.0228-35.345-2.5934-46.052z"/>
  <path d="m221.63 190.38c-1.2626-3.3448-4.678-8.3988-6.1472-25.24-0.16934-2.0317 0.62981-2.1125 0.87076-0.0902 2.1338 17.318 5.2319 20.954 6.1266 25.125 0.4517 2.1427-0.0744 2.2425-0.8502 0.20533"/>
  <path d="m181.42 129.59c3.2976 15.678 10.136 42.586 12.652 46.607 3.0746 4.907 5.6865 9.3431 7.7667 14.932 0.81853 2.2102 0.0512 2.4292-0.81678 0.28643-2.0824-5.0855-4.9764-9.6439-8.0281-14.516-2.7899-4.4525-9.9807-31.508-13.316-47.542z"/>
  <path d="m123.44 116.82c2.9489 16.665 5.9936 33.309 10.259 43.288 0.64752 1.5183 1.0822 2.1373 1.9416 2.8828 4.6933 4.0131 9.1103 8.1216 11.243 15.258 0.65246 2.1941-0.0413 2.335-0.83927 0.23999-2.4835-6.4824-6.5928-10.536-11.16-14.363-0.94129-0.79353-1.7342-1.7891-2.4489-3.4581-4.3331-10.107-7.858-27.441-10.839-44.244z"/>
  <path d="m393.27 114.26c0.11803-2.1153 0.1423-3.3973 0.0559-4.9915l1.4805 0.22451c0.0742 1.6054 0.0408 3.2306-0.11554 5.425z"/>
  <path d="m424.66 118.75c-1.6912 4.7741-2.4888 6.5041-1.5367 11.604l-1.6686-1.1574c-0.74396-3.6052 0.0463-6.3546 1.6833-10.89 1.9725-5.4763 4.4927-12.254 6.3248-17.815l1.9797-1.0442c-2.3171 7.1731-4.9102 14.006-6.7825 19.302"/>
  <path d="m102.79 138.63c-1.5486-2.0473-3.2235-4.2584-3.7508-7.1018-1.28-6.9871-2.8107-16.077-4.1084-24.988l1.6384-0.32078c1.382 9.3032 2.643 17.401 3.9739 25.122 0.44891 2.6694 1.8879 4.3815 3.3793 6.347 4.8296 6.376 16.426 21.724 18.603 28.118 0.64887 1.8962-0.0822 2.0934-0.82866 0.2861-2.2942-5.5953-14.1-21.11-18.907-27.462"/>
  <path d="m120.78 163.3c-0.67918-4.2218-6.0819-16.065-8.858-22.716-1.6604-4.0087-2.6036-7.7225-2.8947-11.785-0.48017-6.667-0.7146-11.483-1.7552-19.38l1.6168 0.88108c0.96904 6.6234 1.1875 12.012 1.649 18.495 0.2818 3.9703 1.1266 7.3722 2.7417 11.299 2.8523 6.9049 9.6198 21.844 8.6813 25.643z"/>
  <path d="m366.8 71.601c4.5681-0.45669 13.439-0.82775 15.204-0.13722 1.8705 0.73928 3.4159 0.77091 5.5621 0.57881 3.4937-0.31486 8.5062-0.07203 9.408-0.84853 0.47499-0.39903 1.1153-3.3129 0.87971-3.8234-0.3705-0.78907-3.336-3.208-4.6381-4.2864-0.25573-0.21327-0.27663-0.31692-0.27798-0.69487-2e-3 -1.2025-0.13862-2.7065-0.17453-3.9787-6.3551-0.29171-20.076-1.3041-25.562-2.923-3.846-1.1265-6.0602-1.486-9.3566-0.99381-3.583 0.52996-9.6078 0.7628-13.749-0.42917-3.7754-1.1016-8.798-2.2609-12.01-2.2359-3.2953 0.02264-15.931 0.62084-23.187 1.0484-8.2692 3.0905-26.092 5.8345-45.918 4.9611-5.132-0.22325-10.133 0.39315-17.429 1.8617-6.2675 1.2568-13.824 2.6837-23.218 3.4639-4.6854 0.39616-21.507 1.8167-43.716 7.038-0.32312 0.07115-0.39411 0.05772-0.68964-0.0078-10.132-2.2064-20.473-4.1553-29.138-5.1985-11.134 1.7624-26.302 4.4086-33.062 4.5866-6.523 0.18459-23.168 1.6559-29.96 2.5087-14.06 1.761-25.256 2.7543-33.297 2.7706-4.3572 1.8483-11.843 5.0064-14.872 7.4071-4.1349 3.2631-12.526 7.7473-12.543 8.3309-0.02234 0.80102 9.9526 3.507 14.797 4.2375 7.7349 1.1433 15.177 3.3892 16.548 6.6913 4.794 1.6797 25.886 1.0997 39.296 4.3137 16.193-9.569 40.445-9.1448 48.074-13.181 0.20491-0.09736 0.31315-0.14015 0.50363-0.14629 16.793-0.79151 38.32-1.6113 52.3-2.195 15.801-1.9186 42.31-7.7987 49.699-9.6082 0.15546-0.03002 0.39347-0.03484 0.53609-0.03086 12.747 0.55009 31.997-0.94018 38.915-2.488 7.2413-1.6304 26.926-5.4906 31.421-6.3043 4.3756-0.80561 12.183-0.9773 15.547-0.49413 3.4001 0.48417 9.9675 0.41534 14.626 0.1215 4.599-0.28404 8.7153-0.31815 10.626 0.25047 2.1346 0.65502 5.9437 0.11991 8.8538-0.16541m0.24279 1.5299c-2.9345 0.30755-7.8801 0.65064-9.7204 0.1069-2.0761-0.61903-5.2268-0.66108-9.9925-0.37023-4.67 0.27061-11.358 0.40479-14.769-0.13692-3.3866-0.54105-10.703-0.05793-15.125 0.68914-4.5054 0.76764-24.233 4.4548-31.451 6.0745-6.9776 1.5576-26.54 3.1423-39.359 2.6131-13.616 3.3308-40.202 8.5332-49.761 9.6867-14.23 0.58812-35.468 1.2786-52.345 2.1021-7.0725 4.1088-32.101 3.8003-48.437 13.377-0.10856 0.0542-0.22804 0.0738-0.33437 0.0479-13.388-2.721-35.414-2.7739-40.134-4.5432-0.11757-0.0491-0.21042-0.13184-0.25476-0.2476-1.0431-2.686-8.6562-5.2115-15.68-6.2548-5.5317-0.81845-16.716-3.2375-16.949-5.5573-0.1474-1.5387 9.644-6.3275 13.911-9.6212 2.9903-2.3101 10.058-5.8006 15.402-8.068 0.06006-0.02123 0.10792-0.03135 0.17923-0.02936 8.017-0.01696 19.24-0.70037 33.336-2.4603 6.8033-0.85244 23.482-2.2426 30.021-2.5642 6.6814-0.3176 22.076-3.0033 33.102-4.7344 0.0475 0.0013 0.0832 0.0024 0.13073 0.0037 8.6773 1.0436 19.315 3.4359 29.471 5.643 22.22-5.2095 39.315-7.0119 44.012-7.4077 9.3345-0.77042 16.737-2.2131 22.981-3.4705 7.3798-1.4777 12.469-1.8626 17.696-1.6367 19.708 0.88159 36.832-2.0193 45.078-5.1219 0.25244-0.09603 0.37193-0.1156 0.62214-0.13153 7.2557-0.43901 20.099-1.2147 23.418-1.2366 3.4857-0.02878 8.3167 1.6061 12.46 2.7409 4.1432 1.1347 8.227 0.98522 13.143 0.42371 3.4006-0.38617 5.7553-0.37778 10.026 0.88649 4.9902 1.4676 18.185 2.5799 25.729 2.8933 0.61769 0.02863 0.85251 0.13829 0.86807 0.8602 0.0374 1.215-0.0309 3.2401-0.0152 4.3857 1.1732 1.0061 4.9082 3.9847 5.2928 4.694 0.39587 0.73252-0.65748 5.2381-1.3181 5.8954-0.90596 0.92526-6.9968 0.53785-10.504 0.90959-2.3024 0.24501-4.3999-0.03106-6.4249-0.77464-1.9309-0.7066-9.8212-0.11351-14.306 0.33405"/>
  <path d="m396.19 76.833c0.44357-1.8314 0.63668-3.2117 0.80793-4.6614l1.7311-1.0855c-0.16148 1.9538-0.4888 3.8801-1.0232 5.9838z"/>
  <path d="m56.506 102.37c0.20962 2.72 6.1072 17.715 8.9163 27.023 0.79452 2.6447 2.2946 4.3012 3.4242 5.5924 2.052 2.3362 4.2988 5.3649 6.2984 9.5777 1.0112 2.1239 0.33868 2.3571-0.77179 0.3793-2.2325-3.9674-4.8933-7.0764-6.6815-9.0616-1.4994-1.6794-3.0213-3.4053-3.7689-6.0258-2.7967-9.7549-9.2656-23.884-9.1066-29.159z"/>
  <path d="m125.78 207.69c-4.0637-3.9841-12.446-12.188-14.956-13.873-2.429-1.6138-9.8128-4.6826-15.424-6.4996-0.35367-0.11289-0.48185-0.20813-0.70965-0.56949-4.9606-7.6508-13.289-19.931-16.241-22.418-2.6726-2.2618-21.404-12.553-28.035-15.749-1.9014-0.91191-2.6192-2.0428-3.5286-3.9806-3.9881-8.4024-9.2624-18.879-13.827-27.08-4.2359-7.6192-9.1217-18.807-10.326-26.799l2.0569 0.88189c1.2836 7.2849 5.6393 17.862 9.728 25.214 4.5643 8.2124 9.88 18.484 13.879 26.91 0.76382 1.6131 1.3923 2.5354 2.6714 3.1551 6.8542 3.2946 25.355 14.175 28.144 16.52 2.998 2.5343 11.877 14.692 16.872 22.39 5.6459 1.8409 13.221 4.8578 15.673 6.5066 2.5106 1.6733 10.532 9.1919 14.723 13.294z"/>
  <path d="m225.32 36.923c-2.5878-1.0341-3.3234-1.1004-4.7443-0.47584-2.0947 0.90356-5.1263 0.8534-6.8006-0.098-1.5333-0.8902-2.6222-1.0809-4.5612-0.21879-1.903 0.85165-5.1963 1.2294-7.1572 1.1747-1.7946-0.05004-4.8695 0.17343-7.562 0.76258-5.732 1.2488-22.696 2.2073-35.72 3.9399-4.226 0.55784-8.7173 1.2457-11.388 1.0453-2.4923-0.19546-6.1145 0.03565-11.721 0.62371-17.583 1.846-46.172 3.3851-48.654 2.4111-2.2824-0.89963-4.57-0.75728-6.1906 0.20531-4.2806 2.5146-12.358 4.282-16.658 4.9294-2.5086 0.38814-3.949 1.287-4.009 1.732-0.09077 0.69604 0.93076 2.8775-0.16814 4.3242-0.62973 0.82989-2.0888 1.9688-2.466 3.1264-0.49246 1.4521-1.4694 2.364-2.9044 3.0683 0.82938 0.11474 1.8913-0.0045 2.9358-0.35332 1.4164-0.4644 4.0856-0.64192 5.9715-0.45191 3.3451 0.32231 11.369-0.79386 13.609-1.3498 2.6354-0.6709 4.544-0.86963 5.7753-0.2398 1.161 0.59352 2.016 0.64026 4.7299 0.56706 3.1787-0.10606 13.816-0.69127 17.194-1.101 3.3058-0.40026 8.8809-0.71435 12.684-0.60831 3.719 0.13805 9.6629 0.24652 13.867-0.38065 11.454-1.7076 16.4-2.0851 19.701-0.5959 2.2197 1.0124 4.9144 1.2021 8.1322 0.97112 4.0998-0.29796 8.2256-1.0991 10.107-1.1612 2.0358-0.06921 4.8537-0.46018 6.6064-1.0412 1.6686-0.54898 4.2131-0.94757 8.3833-1.2092 8.8167-0.54436 29.277-1.5085 31.922-2.0646 2.6801-0.56659 4.9244-0.4353 7.3469-0.29904 2.4817 0.14931 4.4914-0.26414 7.0493-1.1433 2.3778-0.81551 4.2815-0.84259 7.4705-0.8911 11.34-0.1877 20.896-1.6505 23.669-4.253 0.25628-0.23335 0.37735-0.31014 0.76828-0.25343 3.102 0.51021 8.4469 0.77376 9.8399 0.29725 1.3207-0.44416 2.2094-0.75149 4.0812-0.48171 1.8129 0.24523 6.7736 0.21177 10.743-0.11273 8.774-0.71733 15.861-0.6686 18.31-1.0355-2.7301-0.62582-9.1047-1.9258-15.649-3.5513-4.865 0.01323-11.807-0.13452-14.15-0.57775-2.4252-0.46844-7.0017-1.8443-9.6442-3.0517-1.6325-0.74409-2.3909-0.8454-5.8531-0.38078-14.757 2.0049-26.884 1.392-34.894-1.7975m0.63573-1.471c7.858 3.1279 19.557 3.7061 34.147 1.7194 3.4863-0.4754 4.6735-0.39649 6.6231 0.49387 2.5368 1.1587 7.0067 2.9438 9.3375 3.3867 2.3545 0.44357 8.9695 0.37606 13.906 0.36482 0.036-0.01045 0.0713 2e-3 0.10666 0.01442 6.5899 1.684 12.894 2.9591 18.248 4.1849 2.0561 0.48105 1.8893 1.3468 0.0137 1.638-3.7034 0.58386-13.705 0.5226-21.073 1.1761-4.078 0.36728-9.1807 0.37389-10.982 0.12898-1.6588-0.22948-2.3175-0.06462-3.592 0.42664-1.3708 0.53438-7.3989 0.45792-10.19-0.12378-2.8704 3.1265-14.463 4.6814-24.351 4.8524-2.9988 0.05381-4.707-0.10834-7.1332 0.74018-2.6906 0.94421-4.9307 1.0879-7.5289 0.85512-2.385-0.20392-4.3967-0.1455-7.0627 0.34132-2.8211 0.5054-23.051 1.7279-31.848 2.3988-2.8844 0.21733-6.1022 0.44827-8.1068 1.1024-1.8366 0.60156-5.0592 1.0041-7.1431 1.0949-2.0246 0.09243-5.8969 0.7632-9.9977 1.0955-3.6238 0.28833-6.3712-0.14329-8.8145-1.2421-2.8891-1.3174-7.4916-0.90746-18.85 0.7914-4.2758 0.63662-11.092 0.6756-14.265 0.56424-3.3872-0.09444-8.5698 0.21914-12.366 0.73169-3.4144 0.4545-14.15 0.71632-17.34 0.8106-2.595 0.07652-4.2143-0.28928-5.2342-0.82161-0.77386-0.39949-2.3699-0.31802-5.1489 0.38323-2.4674 0.61833-10.512 1.608-13.881 1.3079-1.7676-0.16381-4.2637 0.20178-5.5831 0.60017-1.7036 0.5251-3.5354 0.53129-5.2279 0.23215-1.6096-0.28537-1.1604-1.0401-0.11271-1.5034 1.8783-0.81798 2.9368-1.6703 3.5779-3.3358 0.43567-1.1216 2.115-2.4834 2.7923-3.3119 0.61593-0.76156-0.5463-3.0157-0.39906-4.0308 0.14693-1.0037 2.9473-2.0479 5.5272-2.434 5.2317-0.7932 12.258-2.8304 15.983-5.0284 1.8503-1.0936 4.1379-1.236 7.4391-0.1934 2.688 0.85368 30.716-1.0675 48.092-2.736 5.6647-0.54063 9.3891-0.59712 11.941-0.4 2.5992 0.19844 6.9188-0.29953 11.086-0.87047 12.799-1.7389 29.969-3.2642 35.565-4.3221 2.7861-0.52928 5.9685-0.77265 7.9057-0.71864 1.8659 0.05203 4.8987-0.3673 6.633-1.1435 1.9753-0.88399 3.6051-0.89581 5.8731 0.51876 1.2394 0.76749 3.7631 0.68898 5.605-0.10712 1.5892-0.68862 3.1124-0.71486 5.8297 0.36868"/>
  <path d="m307.99 52.219c0.0581-2.0826 0.28918-4.401 0.43351-5.7368l1.3793 0.01556c-0.14267 1.2786-0.33659 3.5407-0.39311 5.5662z"/>
  <path d="m261.92 57.129c-0.26911-3.1454-0.37161-6.7212-0.41014-8.3256l1.5012-0.51929c0.0236 1.2833 0.26378 5.47 0.57215 8.9142z"/>
  <path d="m148.6 64.198c-0.53449-1.7327-1.0273-3.6818-1.5965-5.4499l1.4715 0.12119c0.61322 1.8952 1.2165 3.7215 1.7619 5.4888z"/>
  <path d="m51.372 74.33c0.52516-3.4782-0.39244-8.1075 0.17827-10.233l1.5935 0.01008c-0.5987 1.85 0.25915 6.4891-0.27598 9.8983z"/>
  <path d="m101.56 15.759c-1.8108 2.6636-2.762 3.9312-4.9379 5.1875-2.007 1.1694-5.7006 6.0939-5.6969 7.2392 0.0201 4.3981-5.3869 8.9198-7.414 12.516 9.7512 0.06575 25.529-3.5827 33.858-5.8127 4.242-1.13 10.584-2.4878 15.2-2.1071 8.2471 0.68803 13 0.41974 16.446 0.12643 6.5458-0.57332 11.462-0.73399 15.666-0.49081 4.3463 0.24719 6.674-0.47814 9.1321-0.76461 6.3832-0.71528 13.23-0.14646 17.552-1.1368 0.98157-0.22458 0.87038-0.50252 0.0214-0.76669-3.7616-1.1699-9.1729-2.466-14.055-3.106-6.1387-0.80102-11.039-2.9189-18.909-3.917-4.1363-0.5276-6.8183-2.0224-9.0157-3.4121-2.116-1.3187-29.074-14.759-36.976-17.579-3.6902 4.3749-9.0463 11.337-10.87 14.023m-1.1703-0.6854c1.8728-2.7535 7.2648-10.15 10.978-14.513 0.47978-0.57068 0.60213-0.69324 1.3557-0.42028 7.9504 2.7984 35.308 16.834 37.459 18.177 2.2208 1.4018 4.4891 2.8049 8.4237 3.3155 7.7153 0.99385 12.964 2.984 18.833 3.663 4.4697 0.51399 10.104 1.9308 14.29 3.2156 2.3584 0.72998 2.337 2.7793-7e-3 3.2293-4.2215 0.82136-11.395 0.46101-17.811 1.0609-2.6351 0.23573-4.9265 0.93913-9.2863 0.74886-4.1696-0.18496-9.0519 0.02246-15.55 0.59711-3.398 0.29463-8.562 0.36823-16.634-0.18895-4.7957-0.33985-10.575 0.89616-14.771 2.0733-8.5588 2.3839-25.479 6.4815-35.225 6.2097-1.1172-0.03115-1.319-0.47195-0.70503-1.5886 2.2425-4.0717 7.6355-8.0898 7.7962-12.575 0.0556-1.5674 4.1869-6.8346 6.3995-8.1243 2.0067-1.158 2.6675-2.2504 4.4536-4.8804"/>
  <path d="m191.88 37.854c0.11012-1.8178 0.25532-5.3181 0.28556-6.8289l1.3171-0.74201c-0.0122 1.7175-0.10856 5.1733-0.22669 7.2772z"/>
  <path d="m81.521 45.18c0.01196-1.2823-0.06086-2.5097-0.11629-3.5076l1.3159-0.27252c0.06732 0.9982 0.1029 2.2818 0.10314 3.553z"/>
  <path d="m246.29 234.05c-8.1257 4.3428-22.83 13.415-25.264 15.809-1.785 1.7368-4.7886 3.2448-6.3778 3.9334-3.7681 1.6242-7.8384 7.2596-8.8749 7.3223-1.1319 0.0715-5.6653-4.1318-8.2506-6.9638l1.3816-1.3472c2.6769 2.9605 6.2518 5.7056 6.7757 5.6859 0.61928-0.0286 4.0525-4.5709 7.976-6.2251 1.4321-0.60139 4.7551-2.0433 6.4424-3.6912 2.4703-2.4277 16.954-11.689 25.122-16.294z"/>
  <path d="m126.68 247.67c8.9272 2.7454 29.02 8.585 36.51 10.821 8.5145-0.36955 22.25-1.1432 29.319-0.86597 2.934-2.8499 8.1832-7.6852 8.9603-9.1065 0.92701-1.6805 4.2926-30.675 3.7919-32.338-1.5524-4.8989-27.071-27.278-30.486-28.507-3.3562-1.2044-28.149-0.15497-30.664 0.48491-1.4855 0.38231-9.3474 5.4997-10.715 6.7786-3.8712 3.614-15.407 34.705-15.455 37.693-0.0213 1.1904 7.2122 12.638 8.739 15.04m36.058 12.125c-7.6474-2.1486-27.817-7.7728-37.004-10.594-0.21233-0.0631-0.35176-0.18158-0.48863-0.39154-1.7087-2.7045-9.408-14.509-9.4507-15.964-0.1064-3.8623 12.359-35.443 16.095-38.923 1.3434-1.2566 9.9706-6.9482 11.732-7.403 3.0545-0.77374 28.437-1.6693 31.859-0.24547 4.0559 1.7049 30.119 24.202 31.768 29.447 0.57916 1.837-2.6247 31.855-3.6766 33.75-0.78894 1.421-6.9716 6.4592-10.126 9.5206-0.20778 0.20033-0.35263 0.27645-0.68541 0.26718-7.2093-0.37275-21.288 0.33408-29.419 0.6227-0.23802 5e-3 -0.40376-0.0227-0.60421-0.0856"/>
  <path d="m174.81 186.82c-5.8617 10.166-14.86 35.992-18.069 45.717-0.85778 2.6101-1.5086 2.4888-0.85092-0.1955 2.3995-9.7017 11.618-35.761 17.047-45.757z"/>
  <path d="m160.68 258.55c-4.3768-5.1266-5.9454-12.855-5.8768-18.728 0.0259-2.2095 0.77466-2.1886 0.86822 1e-3 0.26481 5.8594 2.3952 13.489 7.4903 19.299z"/>
  <path d="m157.1 314.5c-6.0694 12.497-13.982 36.909-16.239 48.344-0.77434 3.8836-2.5303 4.1552-5.1585 3.7155-7.1635-1.1617-16.574-4.9055-22.004-8.1146-0.40959-0.24045-0.61713-0.47528-0.63715-1.037-0.33062-7.3385 5.0978-17.746 9.2324-36.355 1.5928-7.2162 3.4669-18.124 3.4432-24.95-0.0322-10.789 3.0719-21.02 3.4924-33.113l1.426 0.89866c-0.12786 11.838-3.3593 21.516-3.4081 32.223-0.0373 6.8816-1.7713 17.884-3.2822 25.149-3.8318 18.411-8.9315 28.977-8.955 35.79 4.5118 2.4162 13.453 6.376 20.865 7.5904 2.0131 0.31952 2.5151 0.23045 3.0552-2.503 2.3667-11.936 10.165-35.676 17.938-50.839z"/>
  <path d="m186.43 268.49c1.0195 10.358 2.4234 29.969 2.3633 41.934-0.10673 21.744 6.5752 39.75 9.4179 46.575 0.17835 0.42869 0.19255 0.77265-0.24679 1.1727-6.4533 5.7866-23.21 9.9803-34.198 10.75-0.715 0.0488-0.95788-0.19849-1.1401-0.9136-3.9917-15.526-5.6914-30.495-6.029-45.69-0.35973-10.134-0.62087-16.978-1.9057-27.206-1.0426-8.2516-1.4609-14.15-1.5648-24.929l1.6405 0.45801c0.10959 10.573 0.65605 16.143 1.6655 24.302 1.2405 10.112 1.3594 17.365 1.7011 27.292 0.66435 14.139 2.7912 30.426 6.2109 44.71 10.513-0.81771 25.792-5.339 31.95-9.897-2.9307-7.0789-9.1729-24.649-9.072-46.611 0.0581-11.897-1.1012-31.318-2.1204-41.687z"/>
  <path d="m124.77 312.95c-3.9666 10.448-10.174 23.64-13.362 32.609-0.33453 0.90684-1.0826 0.86307-1.5951 0.0472-3.4161-5.4548-4.8911-12.276-4.7802-17.105 0.0889-4.0401 4.1216-17.716 5.8012-24.632 1.8811-7.7464 3.4904-17.688 4.0433-24.292 0.55093-6.5352 1.4923-13.85 2.7241-20.916 0.32695-1.9148 2.2949-2.5356 3.605-1.3195 2.7706 2.5852 5.2221 2.9628 9.3003 5.573 5.2113 3.3519 17.491 4.4386 23.99 6.8301 7.4668 0.0937 26.685-1.0997 31.277-1.9795 2.5705-0.47804 5.2599-0.95275 8.0935-1.4807 1.6619-0.30867 3.0432 0.48567 3.3352 2.3834 1.1639 7.7397 1.1223 15.629 2.9156 28.952 1.8901 14.116 10.607 29.109 17.453 39.527 1.0722 1.6446 1.3169 3.1059 0.83759 4.5126-0.90532 2.6087-2.7781 5.3623-4.8312 7.332-1.3569 1.3135-3.4865 0.91055-4.5397-0.56176-3.2052-4.487-13.489-19.57-21.114-38.312l0.10146-3.6389c7.7312 19.192 19.175 35.75 22.472 40.377 0.67537 0.94644 1.4138 0.90977 2.1232 0.20803 1.712-1.6815 3.0466-3.9004 3.7236-6.0001 0.29951-0.93071 0.19661-1.5062-0.59089-2.6962-6.8797-10.487-15.161-26.155-17.107-40.41-1.9753-14.473-2.2693-21.845-3.3691-28.896-0.15051-1.0005-0.32049-1.303-1.2279-1.1794-2.913 0.38832-5.1889 0.96617-8.1671 1.5588-4.9631 0.97247-24.772 2.012-31.561 1.9143-0.072 0.0209-0.26113-0.0189-0.37904-0.0563-6.6154-2.4749-18.967-3.9645-24.062-7.2215-4.2536-2.7182-6.6113-3.0474-9.512-5.6591-0.53394-0.47297-0.98843-0.38256-1.1588 0.609-1.2311 7.043-2.1793 14.174-2.7299 20.698-0.55348 6.6268-2.2055 16.819-4.0497 24.52-1.6144 6.7117-5.3334 20.224-5.4971 24.388-0.14828 4.0384 0.99146 9.6588 3.4406 14.388 3.445-10.085 11.869-26.398 15.325-36.895z"/>
  <path d="m210.92 349.71c-7.2132-2.7893-11.598-2.5107-12.936-1.4601-0.86296 0.66307-1.7555 2.8141-1.777 6.146l-1.1412-3.0094c0.23985-2.2036 0.99345-3.6369 1.9903-4.4108 1.6537-1.2938 6.6786-1.4972 12.835 0.81593z"/>
  <path d="m204.18 355.87c-0.9145-0.0483-3.9602-3.4315-7.2569-7.6232l1.2178-1.0196c2.5404 3.1629 5.3927 6.6551 6.1662 6.6423 0.59487-6e-3 2.6042-2.5384 3.9475-5.9252l1.3569 0.39285c-1.2974 3.4452-3.9706 7.608-5.4315 7.5329"/>
  <path d="m183.27 364.04c-1.8641 4.5746-3.8806 8.2174-5.3954 8.3699-1.2765 0.1362-5.688-2.0367-9.0079-4.9694l2.0309-0.32129c3.1175 2.5148 5.8955 3.5542 6.7059 3.4966 0.65621-0.0733 2.3813-2.6477 3.7943-5.9752z"/>
  <path d="m149.57 362.06c-2.7936-0.055-6.8025 1.677-10.27 4.0425l0.19359-2.2506c3.7709-2.1509 7.4337-3.4116 10.143-3.3131 3.2558 0.11368 10.048 3.4867 14.009 6.4602l-0.50363 1.8526c-3.7568-3.0479-10.683-6.7454-13.572-6.7916"/>
  <path d="m146.55 361.75c-2.2724 4.2884-4.7825 8.1465-6.5238 8.3155-1.5623 0.15113-4.8881-1.7167-8.3132-5.1447l2.8055 0.47904c2.2749 2.0217 4.3577 2.8242 5.348 2.7144 0.83512-0.0912 2.5365-2.2426 4.4175-5.7174z"/>
  <path d="m116.23 346.26c-1.9468 0.28928-4.7397 0.21141-5.5775-0.0296l0.0861-1.807c0.83456 0.35537 3.5083 0.44137 5.9192 0.14212z"/>
  <path d="m194.14 267.19c-1.2009-1.2932-4.5412-3.0698-4.9131-4.6605-0.20029-0.92174 0.76844-2.8187 1.6361-4.0771l1.8174 0.085c-1.2601 1.6827-2.04 3.2069-1.9201 3.5996 0.41301 1.3972 4.8753 3.457 5.8993 5.1232z"/>
  <path d="m118.65 257.01c4.7703-3.0163 7.1589-5.9272 6.7341-8.6074l1.5492 0.31806c0.31307 2.8488-1.9396 6.004-6.6342 8.8621z"/>
  <path d="m89.093 177.09c-1.9038 3.4398-6.5421 6.414-8.3969 8.9504-0.14868 0.21345-0.36452 0.27614-0.71077 0.32375-4.8951 0.66516-24.415-1.402-28.967-3.6592-3.2853-1.6147-13.795-10.325-18.895-17.636-0.19438-0.28027-0.22908-0.31559-0.25484-0.67133-0.32647-4.0746 1.2455-14.383 1.9019-17.022 0.94974-3.7756 5.0397-12.251 7.4075-16.548l0.85187 1.8675c-2.0614 3.9736-5.6113 11.422-6.4467 14.937-0.90348 3.8227-2.194 12.994-2.1583 16.408 5.0568 7.184 14.95 15.797 18.153 17.375 4.3524 2.1598 23.108 3.9196 27.964 3.3678 1.6502-2.4505 6.6106-5.8852 8.4457-9.4186z"/>
  <path d="m59.392 160.45c-1.4031 1.2664-1.9505 0.85032-0.58921-0.62339 1.6924-1.8309 3.6466-3.666 5.3353-4.9359l1.31 0.79237c-2.3853 1.5139-4.0306 2.9338-6.0561 4.767"/>
  <path d="m50.76 181.74c0.62287-8.2624 1.8455-12.866 3.6217-16.848 0.71053-1.5949 1.3678-1.2788 0.78671 0.3655-1.4832 4.1386-2.225 8.5613-2.904 17.131z"/>
  <path d="m18.848 212.99c-4.4664 3.208-9.5873 15.811-12.358 22.193-0.57278 1.3468-1.8499 1.5059-2.8696 0.5384-1.0316-0.96783-2.2042-1.9968-2.9024-2.9783-1.0413-1.472-0.83609-3.2871-0.10856-5.0648 1.787-4.3706 6.527-11.843 8.4796-15.327 2.0534-3.6876 3.3383-6.6865 4.3489-11.365 1.3922-6.4201 8.2149-22.045 11.024-28.529 1.3222-3.0552 4.6165-3.0435 5.9608-0.92174 4.968 7.8114 13.705 13.552 20.309 16.004 8.6764 3.208 20.664 2.4085 26.802-1.8981l2.3307 0.0192c-6.2057 5.4385-20.299 6.6832-29.647 3.2274-6.7455-2.5014-15.983-8.6338-21.065-16.62-0.76342-1.2008-2.2831-1.3005-3.2219 0.80343-2.8784 6.4016-9.6379 21.891-11.086 28.195-1.1236 4.893-2.2244 8.1147-4.3977 11.833-1.9854 3.3802-6.3046 10.692-8.1883 15.117-0.66203 1.5619-0.7473 2.4872-0.15314 3.3626 0.6397 0.94543 1.0975 1.5881 2.0475 2.4964 0.61395 0.58972 0.86575 0.51658 1.1836-0.21894 4.6513-10.692 9.5926-20.266 13.841-22.495z"/>
  <path d="m44.978 216.77c-2.5535 5.838-3.9295 15.946-4.5454 29.076-0.07195 1.7272-0.81893 2.4966-3.0718 2.6743-10.049 0.80776-20.568-0.32152-26.143-6.81-0.20787-0.22338-0.28724-0.36301-0.27607-0.76352 0.10593-3.7991 1.016-9.9922 2.4086-14.294 2.3165-7.1502 4.837-12.233 5.3153-17.442 0.5991-6.5568 4.3161-15.306 6.1396-22.263 1.5978-6.1166 3.1872-11.077 5.8774-13.716l1.1164 1.3367c-2.3864 2.4071-4.1028 6.8026-5.4697 12.742-1.6522 7.2145-5.5264 15.203-6.1341 22.069-0.43942 5.0954-2.7797 10.539-5.1199 17.688-1.3255 4.0285-2.0821 9.8365-2.2122 13.646 5.1298 5.8461 14.496 6.5081 24.342 6.1413 1.2501-0.0453 1.4088-0.18977 1.4641-1.322 0.34745-7.3425 1.9931-24.131 6.3899-31.67z"/>
  <path d="m74.566 187.92c-8.7217 21.023-5.8308 39.771-4.9615 55.942 0.03613 0.83701-0.27734 0.98859-0.89694 1.0286-3.3836 0.20342-8.5572 4.033-18.63 3.5575-1.6154-0.0793-2.529-0.58585-3.155-2.0234-5.8893-13.586-2.7297-41.166 2.7379-58.524l1.5307 0.55802c-5.4162 17.222-8.6615 41.902-2.8078 57.193 0.34354 0.90283 0.5514 1.1262 1.7392 1.1822 9.9071 0.448 14.742-3.6201 17.704-3.6177-0.86312-15.542-3.2232-35.408 4.7934-54.607z"/>
  <path d="m83.133 182.65c-4.476 8.6704-5.7912 12.756-7.3869 18.369-0.64106 2.0893-1.1437 3.9076-1.1343 6.1296 0.0093 6.4935-0.05241 15.104-0.58395 29.049-0.10234 2.3906-0.96984 2.7902-2.0451 0.40106-2.3416-5.1729-3.3975-9.1075-4.3156-16.279l0.52237-9.7769c0.56313 8.8109 1.7938 16.289 4.33 22.59 0.48999-12.881 0.66052-19.851 0.64234-26.024 0.0053-2.3246 0.48839-4.2924 1.1432-6.45 1.4441-5.2964 2.7712-9.3821 5.4821-15.319z"/>
  <path d="m68.488 239.8c1.4394-1.2883 2.9052-2.2438 4.4292-3.1518l0.44484 1.5355c-1.7658 1.0502-3.1947 1.9608-4.7481 3.4979z"/>
  <path d="m39.548 245.89c2.4637-3.0463 5.5114-2.7208 7.6416-1.4818l0.59464 2.1352c-3.1971-2.2192-5.7169-1.8543-7.9763 1.1175z"/>
  <path d="m60.36 246.51c-1.8216 3.4764-5.2476 6.4844-6.7229 6.5005-1.7727 0.0193-5.1823-3.1106-6.2997-6.1192l1.8978 0.61405c1.2647 2.4173 3.5507 4.0385 4.2898 3.979 0.84637-0.068 3.1263-1.6421 4.8731-4.5709z"/>
  <path d="m27.34 254.76c-1.7339-0.0942-4.4186-3.6275-6.2751-8.283l1.7828 0.47343c1.7475 3.8737 3.748 5.9221 4.6149 5.9692 0.97393 0.0497 5.5722-2.3412 8.7079-5.174l2.1768-8e-3c-2.8274 2.8643-9.333 7.1149-11.007 7.0224"/>
  <path d="m6.0371 234.24c2.1392-0.36408 4.0755 0.14796 6.1132 3.4228l-0.23857 2.1578c-2.7378-4.1876-4.5238-4.5466-6.9074-3.9488z"/>
  <path d="m11.837 241.34c-1.3372 0.1803-2.5619 0.16907-3.0059-0.1181-0.63092-0.40696-2.2694-3.9226-2.6184-6.3373l1.651 0.0804c0.36436 2.2891 1.658 4.524 1.9953 4.7968 0.36045 0.29635 1.2518 0.32121 2.1232 0.20804z"/>
  <path d="m26.789 170.19c4.9364-1.2939 5.5663-2.9827 5.074-5.8021l1.5516 1.0854c0.25333 2.8586-1.1157 4.607-4.696 5.4691z"/>
  <path d="m145.11 101.8c0.29736-2.1332-1.277-4.5362-1.1673-8.4727l1.4788-0.142c0.0427 3.5857 1.7062 6.6325 1.3555 8.5466z"/>
  <path d="m197.05 98.222c-0.30621-2.2417-0.56137-4.6079-1.0507-7.1066l1.6067-0.03536c0.48903 2.5102 0.80457 4.8437 1.0983 7.108z"/>
  <path d="m285.7 85.304c-0.8375-2.3825-0.69625-4.4628 0.037-6.4465l1.7341-0.34102c-0.91186 1.9901-0.94871 4.165-0.0309 6.6528z"/>
  <path d="m407.98 127.06c-0.54025-1.5267-0.69156-3.3518-0.73303-5.2769l1.2611-0.0106c0.0402 1.9709 0.22748 3.7855 0.76612 5.3695z"/>
  <path d="m440.98 147.69c-0.18027-2.0664-0.2089-4.0255-0.25134-5.9162l1.2883-0.13585c0.0315 1.8561 0.0373 3.7802 0.2073 5.789z"/>
 </g>
</svg>
