<?xml version="1.0" encoding="UTF-8"?>
<!-- Created with Inkscape (http://www.inkscape.org/) -->
<svg version="1.1" viewBox="0 0 281.13 415.7" xmlns="http://www.w3.org/2000/svg">
 <path d="m187.34 237.64c-6.3153 5.7297-15.958 10.093-24.293 8.0809-5.5769-1.3594-9.7361-0.91672-15.109 1.2319-18.318-3.9217-30.227-1.1718-45.921 13.81-8.3694 7.9874-22.18 6.9773-30.549 3.5141 1.0779 1.6289 2.9369 3.6838 4.8553 5.0504-1.985-0.0241-3.6159-0.0722-5.5682-0.32241 3.3188 4.1676 9.1841 6.901 14.235 7.6478-2.4446 1.9514-5.7379 3.1323-9.8037 3.0984 5.305 4.7872 16.798 5.7634 25.694 2.216-1.629 1.7901-4.6599 4.0659-8.5646 5.6955 7.8432 1.5616 19.251-2.8096 25.957-11.434 0.0241 2.4786-0.81567 4.9232-2.4785 6.7143 3.7771-0.91674 6.9347-3.3869 9.3114-8.76 2.3772-5.3731 6.0947-8.4034 10.228-8.8278-2.3099 6.8755-4.0319 14.82-4.8553 21.136-0.44996 3.5141-1.1381 5.772-3.0558 8.4628-2.6908 3.7603-6.2559 7.7667-10.356 11.485-1.7733 1.5953-2.453 3.3443-2.9369 5.5172-4.0998 18.462-7.5971 65.232-6.7395 75.13 0.35611 4.1337 3.5481 11.417 4.9826 11.366 0.91672-0.0241 3.7093-3.7774 4.4987-6.1202 0.77958-2.3436 0.81567-5.2795 0.0241-7.7836-0.78198-2.5127-1.0707-3.9386-0.9432-6.3493 0.55101-10.491 2.3171-42.102 9.0569-58.942 0.55101-1.3931 1.7661-2.3436 3.3869-2.7586 8.0129-2.0452 22.74-6.7566 24.811-8.9382 4.4309-4.6515 9.2522-10.712 13.42-17.817 0.12037 9.3201-1.2656 16.306-3.9046 22.732-1.0442 2.5464-1.2127 3.8452-1.1116 6.5189 0.19248 5.2119 1.3065 14.328 3.7774 21.492-0.21655-2.3002-0.3561-4.2526-0.21655-5.3731 1.9682 4.8553 7.8769 33.537 9.719 42.628 1.6049 7.9024 6.1284 16.153 8.2761 15.763 2.1462-0.38979 3.6159-11.06 2.818-13.106-0.34889-0.88305-1.8599-1.961-2.64-2.64-1.1453-1.001-1.8936-2.2401-2.1462-3.9554-1.3498-9.2183-5.4154-32.145-6.434-38.723-0.64485-4.1592-0.95043-13.615-0.26227-16.476 0.38978-1.6121 0.92635-2.7757 2.3002-3.7179 4.5921-3.1236 10.992-8.3949 12.554-10.254 1.5616-1.8599 1.9345-3.1405 2.3941-5.1267 1.6121-6.9859 4.5923-18.666 6.2049-24.327l2.538 0.0963c1.7565 7.7157 2.8946 18.81 2.7334 24.183-0.0963 3.268-0.28874 4.3459-1.0683 6.4934-1.3498 3.6924-1.2055 7.4443 0.92395 10.602 1.2223 1.807 2.3941 4.1 3.0303 6.0608-0.16843-3.2256-0.3489-6.3238-1.1213-7.5121-2.3436-3.5565-1.5784-8.7684 0.36574-11.434 1.588-2.1824 3.1065-4.779 3.8026-8.5988 0.90952-4.991 1.9514-17.842 2.0789-21.11 0.14429-3.7605 1.6386-3.6162 1.9008 0 0.49326 6.6885 1.3594 18.598 3.5057 23.869-0.32243-8.0131-0.0722-15.958 0.65447-22.4 5.0167-1.3065 7.5547-2.0885 10.356-3.7858-1.8238 9.8379-4.5155 24.005-7.3762 32.994 1.9514 0.48362 10.738-4.0149 16.993-24.718 0.63763-2.1054 2.1559-2.5382 1.8599 0.19248-0.28872 2.7331-0.82289 5.1522-2.1992 8.6919-1.4268 3.6924-2.4275 7.9111-2.7586 11.926 6.6717-15.542 11.595-26.755 15.168-34.36 3.9725-8.4712 3.7774-14.396 2.8691-21.433l-19.285-15.432z" fill="#515457"/>
 <path d="m240.46 122.86c-0.67131-2.139-5.6532-3.1491-8.9383-1.9514-1.6121 0.58468-3.9131 0.97688-5.4749 1.2223-0.66167-1.3667-1.807-3.4886-2.4275-3.3613-0.61115 0.14429-1.333 1.9273-1.9177 3.947l-2.7673 0.35611c-0.9432-2.4446-2.4446-4.7194-3.1236-4.7194-0.65447 0-1.8936 2.9285-2.1222 4.8469-1.6891-0.3561-4.2952-0.64484-5.5682-0.64484-2.4872 0-4.0914-0.70499-5.5685-1.8599-3.7093-2.9201-7.215-4.8892-12.664-6.1202l-27.247-5.7379-2.293 25.499 4.7364 2.6908c4.4987 2.4446 10.441 6.3238 13.581 8.8872 1.0779 0.88305 1.7661 1.1622 2.9285 1.0274 8.5985-0.97689 12.605 1.1285 16.119 5.9588 5.5259 14.591 10.67 40.71 4.0914 62.007-1.1044 1.1116-2.1824 2.3772-2.9114 3.7942-4.499-0.14445-8.1149-0.5847-10.067-1.1213-1.9514-0.54378-2.6992-1.3402-3.5141-2.7415-4.4138-7.5547-9.303-19.336-10.406-18.946-0.551 0.19249-0.51732 3.3866 0 6.9688-1.7902-2.903-4.1084-5.8654-4.6941-5.6024-0.7122 0.32242 6.1881 22.732 14.396 39.92 1.0442 2.1824 2.4013 3.1831 5.1014 3.5988 8.5477 1.3234 18.886 2.9879 24.667 4.2528 3.1239 0.68815 4.4903 2.0548 5.5175 4.5921 1.0274 2.538 1.6121 4.6854 2.1463 7.5716 3.5736-5.7126 8.4544-15.338 11.145-23.012 2.6823 6.3577 6.0521 15.143 6.1031 20.72-0.14429 1.4605-0.24542 2.1462-0.53416 3.0726 1.6554-2.0043 2.589-3.1236 3.217-4.4477 0.63763-1.3161 1.6049-1.9682 2.7418-2.589 4.3459-2.3436 11.62-5.4154 14.948-6.9349 3.319-1.511 5.5514-3.5226 7.2236-6.8416 5.8144-11.527 9.9142-26.509 9.1418-26.712-0.49327-0.14429-2.3171 2.5974-4.1424 5.5343 0.58468-2.2834 0.97688-5.7042 0.36573-5.7975-0.62078-0.0963-2.3845 2.9963-3.9809 5.2713-1.588 2.2834-4.4224 5.67-5.8909 6.9688-1.4678 1.3065-2.2401 1.5712-3.582 1.5952-3.9725 0.0963-8.8278 0.0241-11.4-0.21655-1.5952-0.16842-2.6484-0.9841-3.4802-2.1222-8.6327-11.722-19.582-37.654-24.557-58.229-0.49326-2.0212-0.49326-3.9725 0.16843-6.3151 0.65447-2.3436 2.1824-7.266 3.4037-10.441 3.5141-1.6121 5.3731-3.319 8.1062-6.4934 2.7418-3.1746 7.1811-7.3764 8.4544-8.4034 1.2728-1.0274 1.5616-1.9514 1.511-3.1746-0.0481-1.2223-0.28874-4.9826-0.53416-5.7636" fill="#005ead"/>
 <path d="m172.24 117.78c-2.9795-0.1925-5.8144-0.28874-7.8432-0.24062 2.7418 3.2172 9.3372 8.8362 16.119 12.35-6.2475-1.6723-12.325-1.9177-14.388-1.4172-1.6386 0.38979-3.6246 0.7459-5.441 0.67131 2.8096 2.3099 5.8315 4.1934 15.457 6.502-3.9046-0.0722-8.5648 0.39942-11.298 1.2127 0.99371 0.56785 1.5616 0.94321 2.9879 1.7661-4.9826-1.4172-11.417-2.852-17.257-3.5057-3.1662-0.3489-5.2119-1.6121-7.2321-3.217-1.1285-0.89989-2.3508-1.6987-3.633-2.4362-17.571 0.0722-43.239 4.3122-49.028 6.239-2.0789 0.69536-5.2711 0.78198-7.3254 0.49325-5.8315-0.83251-16.807-0.58468-22.57 0-2.64 0.2719-4.3969 0.1925-6.3492-0.58468-1.9514-0.77958-5.4665-1.7565-7.7159-2.2497-2.2497-0.48363-4.3033-1.4605-5.9587-2.3436-4.2439-2.2401-12.316-5.4751-18.861-7.2321-2.1294-0.56784-1.9514-1.4605-0.87342-1.9514 4.6599-2.1222 25.303 4.2016 32.824 7.13 1.7059 0.67132 3.6159 0.68816 5.8653 0.29596 7.1811-1.256 15.338-1.4677 21.976-1.5616 1.961-0.0241 3.4208-0.49325 5.67-0.9841 5.7891-1.256 11.349-2.1126 16.603-2.5719-3.4718-0.68814-7.9195-2.1824-12.206-2.9963-3.6159-0.67852-5.67-1.7565-7.5206-2.538-10.424-4.3885-26.483-9.9652-37.713-13.191-3.3019-0.9432-4.397-1.6554-8.1149-4.2016-11.849-8.1062-28.52-16.314-36.44-20.126-2.9453-1.4172-1.2993-3.5141 0.88305-2.8265 10.967 3.4292 22.859 9.5747 31.95 14.948 4.5242 2.6737 10.254 4.5921 14.455 5.6616 14.345 3.6753 31.653 8.989 44.156 12.8 4.2273 1.2897 6.6293 1.588 9.9228 1.3931-0.16844-0.12037-0.3128-0.25505-0.44033-0.41625-0.56062-0.70499-2.1487-1.5616-3.6162-2.0548-1.4677-0.48363-3.3188-1.7565-6.8413-4.7874-3.5141-3.0216-15.534-9.668-23.445-13.479-2.6821-1.2897-4.4903-2.538-6.7395-5.2711-11.697-14.243-37.807-38.791-51.973-50.616-2.4446-2.0284-0.88305-3.7093 1.0707-2.3436 14.965 10.475 42.501 32.043 57.253 47.483 1.4773 1.5447 2.6313 2.2665 4.2949 3.0305 13.471 6.12 22.511 11.612 35.574 17.426-0.72905-0.56784-1.357-1.256-1.8671-2.0885-3.4208-5.6703-7.13-11.238-12.113-15.44-2.6908-2.2666-5.3731-5.6616-8.2082-11.722-6.85-14.642-24.709-39.241-29.989-45.183-3.1323-3.5225-4.6941-6.1115-6.5444-8.938-1.8768-2.8606 0.28874-3.2425 1.6554-1.961 3.3274 3.132 5.6871 5.6532 8.5984 9.1842 3.2256 3.9131 5.3731 6.7482 10.067 11.434 4.6854 4.6857 9.4729 9.5749 13.182 15.44 3.9301 6.1962 5.6702 8.5901 13.097 18.36 6.6122 8.7003 16.51 15.831 21.102 17.392 5.8825 2.0043 14.557 4.397 19.633 5.3731 3.183 0.61116 5.1777 0.88305 9.1841 2.9283 13.386 6.8586 27.969 11.51 38.936 15.831 3.6417 1.4341 5.543 2.1487 7.0369 3.9557 3.0048 3.6498 5.5172 6.7395 9.7698 10.508 1.0611 0.93357 2.1487 1.41 4.0064 1.5616 1.3162 0.0963 3.0218 0.83252 4.6347 1.5616 1.3498 0.61115 2.9369 0.78198 7.0877 0.0482 2.2329-0.3994 4.8553-1.0876 8.624-2.0452 1.1212-0.28874 1.7228 0.27189 0.57746 0.88303-4.626 2.487-10.78 5.0334-14.965 6.6801-1.2127 0.47641-1.9105 0-2.3508-0.72905-1.7565-2.9369-7.7159-3.7603-10.449-3.0303-0.53416 0.14429-1.7565 0.21654-2.5635 0.21654 0.0722-1.5375-0.14429-2.6823-1.001-3.7771-3.0302-3.9131-7.3338-8.6495-8.7939-9.1844-0.78921-0.28874-5.3305-0.81567-10.356-1.2223-1.6458-1.3234-5.5937-4.5581-6.086-4.1082-0.48363 0.45716 0.44031 1.8671 1.8599 3.811" fill="#fffbc7"/>
 <path d="m63.223 128.49c-3.4037-6.9349-10.806-11.748-19.37-16.832-5.3986-3.2001-11.604-4.5752-12.325-6.2643-0.42348-1.0178 0.14429-1.3667 1.3763-0.70499 6.1029 3.2764 20.253 6.799 25.999 10.118 1.3667 0.78198 3.3443 1.6458 5.0165 2.9708 1.2319 0.97689 9.0992 8.7513 10.194 9.9313-4.5921 0.38979-7.8091 1.807-10.89 0.78198" fill="#00a0da"/>
 <path d="m47.534 98.025c-2.3941-6.5783-5.1185-11.374-8.5985-16.043-1.0683-1.434-15.763-14.914-18.157-16.722-1.9105-1.4437-0.67852-2.7331 0.78198-1.807 7.1811 4.5497 20.601 14.642 26.611 21.433 3.5055 3.9557 5.3221 7.5716 6.4426 10.212 1.1285 2.6313 1.8599 4.0998 3.5225 6.0095-4.0574-1.0779-7.181-1.807-10.602-3.0813" fill="#7b59a3"/>
 <path d="m55.872 69.719c-0.44031-2.3941-0.72905-3.9044-1.4172-8.1062-0.45716-2.8265-1.5375-5.6787-3.7095-10.16-4.6938-9.6767-12.529-25.134-15.78-32.587-0.94319-2.1463 0.40664-2.5803 1.6626-0.78198 2.9285 4.2018 10.305 15.194 13.522 20.228 3.6838 5.772 7.6478 12.359 11.434 19.489 2.038 3.8281 3.8113 7.9111 4.8892 12.995 1.0683 5.0759 1.511 7.2236 2.7331 10.984-4.2949-4.2442-9.6257-8.9382-13.335-12.062" fill="#e60012"/>
 <path d="m80.622 49.436c0.97688-5.2795 1.0009-11.119-1.3667-16.705-4.3969-10.356-9.5068-23.563-8.989-29.802 0.19249-2.3436 1.2488-3.081 2.0548-0.67852 3.1236 9.3795 14.26 29.505 17.579 40.447 0.68814 2.2497 1.3763 4.3036 1.5712 6.9349 0.48363 6.6462 0.87342 12.257 2.8775 19.2-4.7874-6.2557-9.4729-14.803-13.725-19.395" fill="#f3994f"/>
 <path d="m152.86 99.544c6.4765 0.29835 15.635 0.55099 19.15 2.2497 2.3844 1.1549 5.5937 4.6517 8.624 8.8704-7.8856-2.7673-19.336-6.9859-27.774-11.12" fill="#fff462"/>
 <path d="m187.1 113.38c-0.7459-1.807-1.1958-2.9963-1.5207-4.575-0.38979-1.9514-1.2295-3.8452-2.7331-5.5343-1.6819-1.9008-3.5228-4.5668-3.9725-7.6226-0.84936-5.7294-2.818-17.358-3.6162-22.502-0.58468-3.7774 1.7902-2.64 2.2497-0.49326 1.0779 5.0759 3.1236 15.669 7.2915 21.238 2.3508 3.1236 2.5464 5.5343 7.1045 10.873 1.4172 1.6626 2.2329 2.9622 2.8012 4.6344-0.0963-2.6992 0.16843-5.1269 0.97688-6.7821 0.97689-2.0211 1.434-3.1915 1.7565-4.8214 0.32243-1.6289 1.8672-5.1183 3.5141-7.3591 0.72185-0.97689 0.97688-1.8768 1.0443-4.1 0.0722-2.436 0.14429-5.1777 0.0241-7.4951-0.0963-1.6458-1.9177-8.4628-2.0548-10.16-0.12037-1.6891 1.2223-2.5551 1.9514-0.65447 2.4107 6.2557 4.0235 15.949 5.0165 22.927 0.33206 2.2834 0.25505 2.9285-0.38979 4.363-0.9071 2.0211-1.7829 5.806-1.6289 9.2522 0.0722 1.6121 0.0963 3.2338 0.0171 4.8722 1.41-3.7264 2.2738-5.6703 3.3104-8.1911 0.58468-1.434 1.2392-2.453 2.216-3.3274 4.7533-4.2271 7.0622-6.8671 11.264-9.8973 1.1718-0.84936 1.6987-1.6626 2.1487-2.9285 1.1116-3.1236 2.6397-9.2862 3.0981-12.342 0.33926-2.3267 1.6891-5.1438 2.6058-6.1878 0.90951-1.0443 1.9514-1.0707 1.5953 0.7459-0.97689 4.9487-2.7247 14.532-2.9964 21.56-0.0722 1.6891-0.31279 2.6143-1.3667 3.6498-2.4107 2.3436-4.3462 4.1763-7.5631 6.901-0.83973 0.71221-1.1958 1.3667-1.1718 2.3436 0.0481 1.7565-0.47641 3.6246-1.2897 4.9316 3.5649-1.7156 7.8769-2.5293 8.9212-2.2329 7.164-2.7331 19.243-9.5747 20.898-11.552 2.6061-3.132 7.7499-9.8547 10.941-15.118 1.1116-1.8166 1.8335-2.5293 2.9966-3.7093 5.6022-5.67 12.18-13.157 17.817-19.438 1.333-1.4846 3.183-1.0707 1.5279 1.333-4.363 6.3153-7.9792 10.432-15.236 19.014-1.434 1.6987-1.7901 2.3845-2.3508 3.7858-1.6891 4.2271-2.6484 6.7311-3.9046 10.22-0.58468 1.6289-1.2656 2.6058-2.7331 4.4987-4.0404 5.2117-5.2968 5.9843-6.7143 6.8584-2.7331 1.7059-8.8194 4.6515-10.695 6.0353-5.2711 3.9044-11.527 10.203-12.826 14.659-0.5101-1.179-1.3234-2.3171-1.8166-2.2834-0.48363 0.0241-1.5279 2.538-1.9778 4.0745l-2.7076 0.21656c-0.88305-2.2738-2.4788-4.7196-3.1239-4.7196-0.65447 0-1.6963 2.7333-2.1222 4.8553-1.7565-0.33206-4.2612-0.45716-5.7636-0.5847-2.6568-0.2406-3.5226-0.61115-5.1099-1.8599-3.548-2.801-8.2082-5.3392-12.928-6.1878z" fill="#fffbc7"/>
 <path d="m205.61 118.33c-1.3763-0.35612-1.5616-5.9332-0.93357-8.0807 1.2656-4.3459 5.2458-6.6972 6.5105-5.9758 0.94319 0.53416 1.1982 5.144 0.7122 6.6041-1.2055 3.7177-4.9826 7.7922-6.2898 7.4525" fill="#f7c8ce"/>
 <path d="m212.93 117.26c0.628 0.44994 3.7942-1.1622 7.945-5.3134 3.9046-3.9046 5.492-6.9859 4.9997-7.4527-0.80605-0.75552-8.6156 1.5616-10.492 3.1746-2.2064 1.884-3.9046 8.5561-2.453 9.5915" fill="#fff462"/>
 <path d="m224.19 95.011c-0.24544 3.1746-2.9285 7.4782-4.6431 10.305-0.64484 0.26227-1.3498 0.5847-2.7586 1.3835 0.80606-1.4773 1.2993-3.4039 1.2319-4.6347-0.0722-1.2391 0.29596-1.9273 1.1044-2.6398 0.81569-0.72183 3.1917-2.869 5.0675-4.414" fill="#ea5532"/>
 <path d="m207.11 93.996c0.44032 2.7078 0.67131 6.2983 0.5101 8.7515-1.0178 2.2834-1.9442 4.6092-2.6061 6.451-0.38259-5.9164-0.24062-9.8295 2.0957-15.203" fill="#8f82bc"/>
 <path d="m218.93 123.07c4.7194-0.29596 8.8786-1.3065 11.79-1.985 5.2711-1.2391 8.5901 0.0722 9.4389 1.5953 0.45717 0.81567 0.62079 2.3099 0.62079 3.8452-0.83974 0.25505-1.333 0.32241-2.4701-0.75552-1.1381-1.0707-3.0981-2.7925-4.1676-2.8265-1.0779-0.0241-4.7535 0.58468-7.2321 1.0106-3.4802 0.59431-5.8822 0.35612-7.9789-0.88303" fill="#fffbc7"/>
 <path d="m207.21 128.74c2.7331-0.0963 4.9061-2.139 9.2352-2.0789 1.588 0.0241 3.5652 0.96004 4.9826 2.7418-4.0574 1.3667-8.5985 2.0717-10.483 1.0948-1.5279-0.79883-2.2666-1.2488-3.7348-1.7565" fill="#fff"/>
 <path d="m211.32 130.43c-0.33205-1.1886 0.24061-2.7841 2.0211-2.9453 1.7902-0.16843 3.0813 0.72905 4.0404 2.7502-1.4605 0.49324-4.2694 0.99373-6.0605 0.19248" fill="#003e80"/>
 <path d="m211.88 129.53c0.21656 0.12037 0.72184 0.0241 0.98411-0.43309 0.28873-0.51732 0.19249-1.078-0.0722-1.2223-0.27911-0.16843-0.73868 8e-3 -0.99373 0.42347-0.29594 0.49326-0.21654 1.0611 0.0722 1.2295" fill="#fff"/>
 <g fill="#515457">
  <path d="m214.66 312.44c-0.30558-3.0726-1.4509-3.1576-2.538-0.77959-2.1487 4.6857-2.64 9.6683-2.8351 15.338-0.68815 19.54-1.1044 51.379 0.19249 62.431 0.78198 6.638 2.8606 13.301 5.178 16.9 1.2488 1.9345 2.1727 1.807 3.2254-0.29594 2.9285-5.8568 3.8113-9.5747 4.5923-14.651 0.78199-5.0844-1.1718-8.5985-2.538-10.067-1.3763-1.4605-1.5375-3.1236-1.665-4.8806-1.6626-23.054-2.0548-48.358-3.6159-63.993"/>
  <path d="m216.58 344c1.2391-8.1402 2.3772-12.113 4.2357-18.954 1.1285-4.1763 2.801-6.901 5.2116-9.2522 2.0789-2.0212 3.4802-1.5375 2.6058 1.8262-4.3969 16.9-7.7241 31.364-9.3795 54.325l-1.6963-7.7496c-0.38979-7.4953-0.7122-14.464-0.97688-20.194"/>
  <path d="m198.77 218.82c1.3498-2.3099 3.6754-4.6515 4.5242-4.626 0.85659 0.0171 3.3529 1.807 4.3799 3.3443-1.4774 1.2127-5.3815 1.3498-8.9041 1.2825"/>
 </g>
 <path d="m183.73 235.1c-5.4154 4.0574-12.223 7.58-21.433 10.466 5.5512 1.0876 12.953 1.7156 23.504-6.8076-0.72183-1.0876-1.3498-2.1727-2.0717-3.6585" fill="#005ead"/>
 <path d="m145.65 246.2c-13.31-5.6871-28.673-6.12-35.736 4.2442-3.5565 5.2287-5.4068 7.7583-8.3014 10.822 13.989-13.708 26.169-17.91 44.037-15.067" fill="#005ead"/>
 <g fill="#fffbc7">
  <path d="m112.24 401.64c-1.8262 0.21654-7.0367-6.9688-7.6818-13.479-1.7396-17.392 1.3835-45.276 7.7328-67.159-2.4446 14.557-5.2968 50.938-4.8724 66.276 0.12037 4.3969 3.7179 11.298 4.9487 11.171 0.72184-0.0722 1.8263-1.2993 3.0981-3.6753 0.0963 3.6075-0.9432 6.6038-3.2254 6.8668"/>
  <path d="m222.19 393.1c-1.1718 6.8415-4.4903 14.591-5.8654 14.591-1.3667 0-5.9248-8.6666-6.8332-18.275-0.91672-9.6002-1.4268-56.905 0.51732-70.699 0.56062-3.947 2.3339-8.3694 3.5651-8.4796 1.4004-0.12037 1.9947 12.198 2.2906 18.929 1.5616-7.8772 2.2834-9.9481 3.8536-13.216 2.8012-5.8399 1.8503-9.2946-0.80604-13.598-1.7829-2.8775-3.5567-7.6226-4.3207-13.216-0.76274-5.5853-1.2319-11.858-1.4437-14.863-0.28872-4.0914-1.6458-3.9217-1.8599 0.0482-0.46678 8.5985-1.2319 19.226-3.268 24.607-1.6891 4.4903-4.6683 5.7636-4.5326 10.763 0.0481 1.5183 0.4668 3.3019 1.2319 4.8724 0.76514 1.5616 1.3498 3.4292 1.3595 6.5615 0.0963 28.045 0.0963 48.375-0.19249 72.498-0.0963 7.631 6.9859 21.39 10.517 21.17 3.1917-0.19249 6.0608-10.288 5.7975-21.688"/>
  <path d="m220.35 304.84c1.434 3.633 1.1285 6.9859-0.63763 11.12-1.7661 4.134-3.6075 9.405-3.8707 13.7l0.72183 12.995c2.453-11.408 4.4138-19.022 5.7297-21.696 1.7902-3.633 4.9655-6.9094 6.1455-6.451 1.1718 0.4668 0 4.1508-1.6386 10.084 5.8825-2.7589 7.5716-8.2932 7.215-18.776-0.2719-7.8769 1.6386-14.073 2.9624-17.35 1.333-3.2766 2.257-7.1642 2.2064-8.9043-0.0481-1.7396-0.99373-2.216-1.6386-0.14429-4.4054 14.023-11.315 24.972-17.197 25.431"/>
  <path d="m222.04 257.19c5.0336-18.122 5.8738-41.049 4.5752-56.685 9.7019 14.269 15.05 32.833 12.834 53.086-1.8262-8.8533-4.0064-14.846-6.273-19.413-3.3019 8.3439-5.7465 14.693-11.136 23.012"/>
 </g>
 <path d="m196.02 116.57c-1.8407-5.4662-7.1387-9.4303-8.1743-9.1247-0.89988 0.26227-0.7892 4.0404-0.12037 6.3661 0.99373 0.27189 2.0211 0.67852 2.4275 1.0443 2.3339 0.43311 3.896 0.79884 5.8654 1.7156" fill="#8aa3d4"/>
 <path d="m200.56 119.12c0.9841-2.1896 1.9682-4.677 1.9273-6.8584-0.0481-2.1896-2.903-6.8331-3.7008-6.8331-0.96004 0-2.1727 3.2086-2.2834 6.8755-0.0481 1.4509 0.49326 3.8962 1.2223 5.1101 0.89989 0.50047 2.1655 1.2391 2.8351 1.7059" fill="#cfa7cd"/>
 <path d="m231.93 112.21c3.1662-0.84936 7.7667-2.1053 9.405-3.132 3.1065-1.9682 4.7025-2.3772 6.4256-8.0044-2.6908 1.6386-4.813 2.7841-7.1301 4.0148-3.4634 1.8407-6.3832 4.049-8.7005 7.1216" fill="#f9c270"/>
 <g fill="#ddd9ac">
  <path d="m89.623 120.66c-9.2267-5.2795-13.955-10.288-17.893-11.527-5.4239-1.7156-19.336-3.6924-28.919-7.894-5.9587-2.6145-24.777-16.781-26.28-17.605-2.8351-1.5616-8.0129-3.4208-11.086-4.5413-3.6924-1.3498-4.6431-0.91672-5.0336-0.04815-0.04815 0.63761 0.5847 1.5616 1.7565 2.1487 1.6458 0.82289 10.797 5.2713 21.492 10.907 10.33 5.441 14.863 10.228 19.379 12.147 3.0644 1.3065 13.887 4.21 19.871 6.2557 10.856 3.7095 18.861 7.1981 20.873 8.0723 1.9345 0.84936 3.6498 1.5183 5.8399 2.0885"/>
  <path d="m76.422 131.41c-2.9795 0.0481-11.824 3.7095-19.251 2.4785-16.739-2.7841-23.674-11.145-23.674-11.145-10.61-2.5974-13.089-0.9432-13.157 0.0168 0.14429 0.5847 1.2728 0.97689 2.7841 1.4172 4.9571 1.4437 12.63 4.4395 18.81 7.5292 2.1054 1.0442 4.4564 1.2127 7.6481 2.2666 2.504 0.8229 3.947 1.8407 7.4695 2.1992 4.5073 0.45957 9.4134-0.38979 13.802-0.48363 6.1539-0.14429 11.255 0.36573 12.554 0.56064 2.4446 0.3561 5.0504-0.14429 8.0129-0.83253 0.61116-0.14428 4.4138-1.1116 5.127-1.2728-10.458 0.29596-17.393-2.7841-20.126-2.7334"/>
  <path d="m144.66 121.02c2.5464 1.1886 4.7619 2.2497 6.4 3.0473 0.12038 0.0241 0.27191 0.0722 0.38981 0.12037-1.7902-1.1212-4.1169-2.1824-6.7906-3.1575"/>
  <path d="m160.86 129.25c1.4437 0.0963 3.1321-0.44994 5.0505-0.77236 4.0064-0.68814 8.4544 0.0481 13.725 0.92636-2.7841-1.4172-8.4457-4.9655-11.578-7.9618-0.67132 2.2329-5.4662 6.7143-11.425 5.5172 0.33926 4.5497-5.9588 7.1811-11.035 6.6548 1.7324 1.1453 3.1494 1.4509 5.5769 1.5447 2.852 0.12038 10.856 1.7829 15.559 2.852l-1.7059-1.1453c2.4872-0.78199 5.407-1.1381 12.138-1.1718-6.0524-1.0683-13.709-3.7008-16.306-6.4424"/>
  <path d="m104.46 113.42c0.7892 0.30557 1.6963 0.50047 2.6398 0.53416 9.3966 0.33204 26.449 3.005 37.56 7.0709-9.9904-4.6686-25.185-11.315-31.305-11.629-2.504-0.12037-5.3392 3.2935-8.8957 4.0235"/>
  <path d="m68.019 87.636c-14.167-12.894-44.572-44.648-46.796-46.405-9.7955-7.7328-11.196-8.4118-12.215-7.2321-0.12037 0.68816-0.26227 1.2728 1.434 2.64 3.9809 3.217 17.138 15.211 26.365 23.886 1.985 1.8768 19.973 19.981 25.736 26.848 1.4172 1.6891 3.7177 3.6498 6.3238 4.8214 7.4101 3.3358 19.794 10.619 24.752 14.523 0.75552 0.59431 1.5375 1.1718 2.2834 1.6963-8.9296-8.1743-21.042-17.265-27.884-20.779"/>
  <path d="m91.727 73.307c-2.538-4.3967-8.9467-13.08-15.89-22.604-5.0844-6.9688-16.807-25.983-16.807-25.983-8.4033-9.5747-9.2182-9.1586-9.8633-8.5475-0.83251 0.78198 3.3869 7.3423 6.2475 10.398 2.4446 2.6145 10.203 13.344 15.83 21.153 0.72907 1.0106 5.2372 7.8348 7.1811 11.043 4.2442 7.0028 8.8702 15.762 9.3285 16.756 1.7565 3.8452 4.4903 7.0961 7.0793 9.3795 2.8943 2.5464 7.3762 7.8177 9.6257 12.113-8.5648-13.938-11.858-22.188-12.732-23.708"/>
  <path d="m190.01 102.55c-1.434-1.5014-2.1463-3.0642-2.9285-4.7533-0.44994-0.97688-1.3931-2.504-1.8768-3.2764-0.0481 5.9587-1.7565 6.5444-5.3308 4.0572 0.782 1.7492 2.0043 3.4802 2.9285 4.499 1.2656 1.3931 2.1222 2.7755 2.5296 4.5666-0.0963-4.9742 1.7059-7.0877 8.6324 0.52695-1.0852-2.4275-2.5209-4.1169-3.9554-5.6192"/>
  <path d="m199.03 94.051c-1.333 3.0389-1.7228 6.1286-3.1236 8.047 2.9285-3.8113 6.5954-2.8351 8.938 6.4 0.0963-6.6633 0.57746-10.899 1.6722-13.157-2.9624 2.5548-5.7891 3.1405-7.4866-1.2897"/>
  <path d="m215.05 93.791c-1.4172 1.6121-3.6669 3.1746-5.4749 5.127 3.811-1.511 7.894 3.5907 4.8553 9.3201 0.92636-0.82288 1.807-1.434 2.6568-1.6386 0.68815-1.7396 1.0611-3.5141 1.0611-4.7364 0-1.2319 0.3898-1.9104 1.1213-2.5209 0.53416-0.44994 2.1655-1.961 2.8606-2.5721-4.3462 0.72905-8.4967-0.04815-7.0793-2.9793"/>
  <path d="m230.59 65.653c-0.72905-0.14429-3.0642 2.8351-3.6501 7.7838 0 0 2.2834 0.26227 2.2064 6.1794 0.39942-3.3103 0.88305-6.5273 1.4437-9.1757 0.5847-2.7841 0.88305-4.3459 0-4.7874"/>
  <path d="m241.66 96.494c-2.0212 1.1718-7.4866 4.134-9.4474 5.0167 2.0885 0.97689 2.801 5.6022-0.58468 10.424 1.8575-1.2488 3.7942-4.3801 6.6462-5.6703 1.7902-0.81567 3.6159-1.9177 5.2119-2.9285 3.9044-2.4785 6.4679-3.5055 9.1334-6.3577-3.8623 0.84936-8.3781 1.0443-10.958-0.48363"/>
  <path d="m218.93 123 2.7331-0.16843c0.29595-1.1044 0.92636-2.7925 1.4509-3.6498-1.807 1.3667-3.6669 1.8599-5.3986 1.2656 0.36573 0.69536 0.76515 1.5375 1.2151 2.5464"/>
  <path d="m207.17 122.55c2.3436 0.19249 5.0165 0.42348 6.451 0.65447 0.1925-0.66169 0.61116-1.7493 0.83974-2.4954-2.7334 1.1285-6.2985 1.6626-9.2778 1.3402 0.64484 0.26227 1.3065 0.44033 1.985 0.50048"/>
  <path d="m279.97 53.832c-0.96004-0.65447-4.626 3.8791-7.996 7.9789 1.3162 0 1.7902 0.91674 0.96005 3.5483 0.7122-0.8662 2.1559-2.9371 2.3941-3.268 1.9104-2.64 6.4-7.4272 4.6431-8.2592"/>
 </g>
 <g fill="#005197">
  <path d="m196.71 132.04c-3.7519-2.818-8.1488-5.3476-13.191-7.6308 2.4362 2.3508 5.178 5.0504 6.222 6.2304 1.0515 1.179 1.9441 1.6554 6.9688 1.4004"/>
  <path d="m164.54 117.6c3.3613 0.96726 6.5444 1.9778 9.5578 3.0473 2.216 3.217 3.998 6.1115 5.5598 8.4967-5.6958-2.7925-12.648-7.7328-15.118-11.544"/>
  <path d="m240.74 128.63c-0.96725 0.8229-2.3267 1.1622-3.7603 0.83973-1.4437-0.32241-2.6824 8e-3 -4.3714 1.6723-4.5582 4.499-8.1404 7.1897-15.177 11.4-2.293 1.3763-4.2355 2.0885-6.5783 1.8936-0.97688-0.0722-2.4107-0.86621-4.1679-2.2834-1.1958-0.96004-2.6058-1.5544-4.0998-1.884-5.2795-1.1718-7.6902-1.5616-13.131-2.852-1.5616-0.37294-2.3845-1.1212-3.2172-2.3941-3.9215-6.0011-12.07-17.248-16.119-21.051-0.40662 0.39942 4.626 7.631 9.719 15.533-4.9486-1.2656-9.2777-1.6987-11.968-1.3667-2.4275 0.29596-5.1099 1.4268-7.4782 0.87343 1.7661 1.6458 6.8671 4.4395 10.279 5.093 3.4037 0.66167 4.9655 1.357 6.2304 1.8936-5.3308-0.71221-9.0316 0-11.951 1.1886 4.9994 2.4191 10.211 6.0353 13.904 8.8449 1.1549 0.88305 1.8166 1.1549 3.081 0.93357 6.4513-1.1213 12.036 0.45957 15.822 5.9417 0.98412 2.538 2.3508 7.0283 2.9369 9.8634 4.8892 5.7634 12.996 4.3969 18.462-3.5225 1.0106-4.9148 2.9708-10.322 3.811-12.401 2.3508-1.1718 5.0507-3.3529 6.7737-5.2797 2.9369-3.2509 7.7498-8.0809 9.77-9.77 0.78198-0.65447 1.4774-1.9008 1.2319-3.166"/>
  <path d="m223.67 118.85c-0.16842 1.5375-0.21654 2.5211-0.21654 3.6585l-1.7829 0.33926c0.33204-1.434 1.357-3.6414 2.0043-3.998"/>
  <path d="m215.91 118.2c-0.3128 2.0115-0.40664 2.9879-0.56063 4.7451-0.0722 0.80606-0.86621 0.96004-1.8936 0.80606 0.42348-1.9441 1.3835-5.093 2.453-5.5514"/>
  <path d="m245.08 250.69c3.0302-1.6626 11.264-5.3389 15.016-6.8074 3.1662-1.2392 5.407-4.1679 7.1642-7.4866 3.8536-7.2915 9.3795-22.672 8.7939-25.991-2.4107 6.5105-7.3594 18.301-10.194 22.799-1.7059 2.7078-3.998 4.9997-6.1539 6.0521-4.2018 2.0548-17.851 6.9688-19.735 7.3594-0.21655 3.0728-0.58468 9.1079-1.2223 11.349 1.4172-1.706 2.8349-3.3698 3.4631-4.5411 0.63763-1.1718 1.5375-2.0043 2.8691-2.7334"/>
  <path d="m170.21 197.25c4.2949 9.3795 11.535 28.351 16.119 35.753 1.2728 2.0548 2.64 2.3508 5.178 2.7418 10.941 1.6554 21.102 3.0302 24.522 4.3969 3.4208 1.3667 7.5206 3.3529 8.8872 4.7874-0.78921 3.6159-2.1463 9.719-2.8775 12.164-2.1053-9.7277-4.2952-11.256-7.232-11.926-6.6378-1.511-17.723-3.497-24.913-4.3883-2.3436-0.29596-4.4393-1.985-5.857-5.1864-4.3033-9.668-14.218-33.52-13.827-38.341"/>
 </g>
 <path d="m228.19 246.35c-0.92635-0.44031-2.1463-0.83251-3.2764-1.6626-0.57748 3.1068-1.7902 9.2012-2.7334 12.232 1.3667-2.0789 4.3801-7.5716 6.0098-10.568" fill="#ddd9ac"/>
 <g fill="#38383a">
  <path d="m238.86 257.75c0.53416-3.7603 0.16843-6.765-0.75553-10.763-1.0009 0.91674-7.4951 0.40664-9.9397-0.73868-1.2897 3.0303-4.5668 8.989-6.1286 10.848l-0.58468-1.8262c-2.3267 8.6582-3.4631 13.148-4.1592 19.965 4.762-0.67132 7.2999-1.4509 10.627-3.7944-2.5464 11.205-5.2119 23.903-7.7583 32.824 0.43311 1.0683 1.8768 0.56784 5.1864-2.139 2.504-6.0692 4.6599-14.574 6.5444-22.477 2.4701-10.424 11.069-23.708 20.966-26.704-0.0722-2.0452-0.16843-4.4224-0.40664-5.772-2.7502 1.1622-6.4765 2.8946-7.7922 3.684-1.3162 0.78921-1.8671 1.2728-2.4446 2.3003-0.83251 1.4677-1.7829 2.8604-3.3529 4.5921"/>
  <path d="m172.97 266.87c6.0011-2.0043 15.211-3.497 23.928-3.9978 1.7829 4.6428 2.6398 7.8514 3.7774 12.639-12.138-1.0009-21.56 0-30.923 7.8601 2.504-5.2201 5.076-12.291 3.217-16.501"/>
  <path d="m197.96 275.17c-1.6121 5.6703-4.5921 17.342-6.2049 24.327-0.45716 1.985-0.83252 3.2766-2.3941 5.127-1.5616 1.8599-7.9621 7.1303-12.554 10.262-1.3763 0.93357-1.9008 2.0957-2.2906 3.7093-0.69537 2.8606-0.3898 12.317 0.25505 16.476 1.0274 6.5868 5.0844 29.505 6.4342 38.723 0.25505 1.7228 1.001 2.954 2.1462 3.9554 0.782 0.68816 2.3003 1.7565 2.6398 2.64 0.79883 2.0452-0.67131 12.715-2.818 13.106-2.1463 0.38979-6.6717-7.8603-8.2676-15.763-1.0178-4.9913-4.0488-15.848-6.1878-25.465-1.7565-7.894-6.9094-28.07-7.1048-33.282-0.0963-2.6737 0.0722-3.9725 1.1116-6.5105 2.6397-6.434 4.0319-13.42 3.9046-22.732 1.2488-2.1896 2.767-5.0249 3.5481-6.9349 7.4866-5.721 16.374-8.4796 27.782-7.6394"/>
  <path d="m172.62 378.76c-1.0611 4.2868-0.57746 10.042 4.4393 12.554-1.8262-4.1847-3.2848-8.2422-4.4393-12.554"/>
 </g>
 <path d="m185.35 389.67c-0.68816 2.6568-1.4846 3.7858-2.1992 3.9556-1.0274 0.24542-5.9927-4.5752-8.259-15.89-0.76514-3.8281-3.268-12.249-5.3308-21.467-2.9369-13.14-5.721-27.867-7.5968-32.841 0.0722 11.264 8.5222 53.798 14.498 66.582 2.3772 5.1012 4.7364 7.9789 6.7737 7.6563 1.6217-0.26225 2.6652-2.5124 2.1126-7.996" fill="#ddd9ac"/>
 <g fill="#38383a">
  <path d="m148.91 295.15c-0.67852 5.2713-2.6145 8.8365-7.0367 11.137-3.8707 2.0211-7.3849 3.6414-12.843 5.8483-3.6075 1.4509-5.3815 7.2744-6.5528 13.267 1.6217-4.7194 3.0558-8.208 6.1115-9.0229 6.8416-1.8166 22.443-6.4 24.616-8.7258 7.6904-8.2082 15.177-19.124 18.564-28.724 1.5712-4.4309 1.9947-7.945 1.5014-11.06-0.56783-3.5991-21.755 7.0112-24.361 27.281"/>
  <path d="m104.1 381.02c-2.538 3.6162-3.0303 9.9312 2.1463 12.996-1.6891-3.8452-2.216-8.3694-2.1463-12.996"/>
  <path d="m205.83 384.84c-2.7502 4.4224-3.8113 9.074 1.2055 15.058-1.1212-4.8214-1.3763-8.3268-1.2055-15.058"/>
  <path d="m107.34 386.57c2.8859 2.1896 6.6804 2.4446 10.067 0.39942 1.1983 2.8861-3.1491 11.332-5.0334 11.561-1.6458 0.19249-4.6347-8.7684-5.0336-11.96"/>
  <path d="m209.56 389.26c4.6176 3.0813 10.729 1.1622 13.021-2.2497 0.49325 6.536-3.6585 20.177-6.1625 20.465-2.4954 0.28874-5.6955-9.0229-6.8584-18.216"/>
 </g>
 <g fill="#ddd9ac">
  <path d="m221.6 308.49c-2.3845 1.6819-4.8043 2.6229-7.1216 2.8606 0.7892 5.806 1.1116 12.741 1.2993 17.367 1.2825-5.7294 1.6987-8.2506 3.5312-11.739 1.8335-3.4886 3.1662-6.7905 2.2906-8.4883"/>
  <path d="m212.2 311.36c-3.1236-0.30557-5.9842-1.961-8.2082-4.8466-0.82289 3.166-0.71221 5.8822 0.78199 8.1233 1.2825 1.9273 1.256 4.626 1.2392 8.4796-0.0168 2.2497 3.1152 3.1662 3.3955 0.32243 0.45957-4.7875 1.4172-9.4813 2.7925-12.079"/>
  <path d="m233.87 315.23c-1.6289 0.24542-3.2596 0.0963-4.7874-0.32243-0.56784 3.3274-1.179 6.2049-2.1462 9.5749 2.9201-0.85658 5.721-4.5836 6.9349-9.2522"/>
  <path d="m221.49 309.03c1.2223 2.2738 3.4376 4.2528 6.0945 5.3647-2.4446 1.9008-5.772 6.485-6.5783 9.9312-0.81568 3.4463-3.7774 15.016-4.5071 19.353-0.28152-7.4272-0.56062-12.588-0.72905-14.956 0.97689-5.0081 2.0717-8.9043 3.446-11.663 1.3835-2.7586 2.4362-5.3476 2.2738-8.0299"/>
 </g>
 <g fill="#38383a">
  <path d="m219.91 328.49c-0.26227 12.274-0.35611 21.331 0.19249 34.649l-0.97688 8.6666-1.6963-8.5988c-0.44994-8.3353-0.87342-16.085-0.92636-19.54 0.99372-5.3392 2.4954-10.882 3.4037-15.177"/>
  <path d="m75.688 280.1c4.8382 3.1746 11.366 6.6464 25.193 1.8599-1.0779 1.9008-5.1777 4.134-8.4712 5.6958 9.7022 0.52695 16.06-1.1718 25.728-11.561 0.38979 3.0813-0.68816 4.7364-2.1463 6.8416 3.8113-0.93357 7.3254-4.6431 8.989-8.4541 2.3676-5.4496 6.8331-8.9551 10.644-9.1334 1.0274-3.2766 2.64-7.4698 4.9402-11.281-10.364-4.2018-25.337 1.7565-30.88 5.7124-6.1539 4.3969-19.37 22.358-33.995 20.321"/>
  <path d="m71.927 264.76c3.4208 2.4785 5.4749 4.2018 6.2982 5.2797 1.3402 1.7228 0.14429 1.0707-1.3162-0.0963-2.3941-1.9105-3.4208-2.9963-4.9826-5.1777"/>
  <path d="m85.018 276.97c1.434 0.19248 2.2497 0.28874 2.3772 0 0.07222-0.16843-0.44994-0.76274-1.2055-0.94319-5.8567-1.4341-10.449-3.7771-14.617-6.7735 1.333 3.3527 7.6818 6.8839 13.445 7.7157"/>
 </g>
 <g fill="#ddd9ac">
  <path d="m217.36 363.1c0.25504 7.5632 0.54378 11.417 0.83974 13.887 0.28872 2.4701 1.1622 3.8536 2.7928 5.5598-1.1622-6.3577-2.293-12.758-3.633-19.447"/>
  <path d="m105.03 390.43c2.0885 4.8469 5.2117 8.0978 7.2999 8.1488 0.75553 0.0171 1.9177-1.0707 3.0981-3.2509-0.26227 4.0404-1.5207 6.4171-3.4463 6.4171-1.6289 0-5.0673-3.7095-6.9517-11.315"/>
  <path d="m206.63 397.6c2.7841 6.0521 7.3084 9.9652 9.6512 10.05 1.1549 0.0241 4.4816-6.8076 5.8399-13.649-0.0482 9.8037-1.6819 20.338-5.8399 20.771-3.0473 0.32243-8.3694-10.169-9.6512-17.172"/>
  <path d="m235.41 123.33c2.1463 0.97688 3.8452 0.90951 5.2117 0.26227 0.19248 1.2391 0.19248 2.0789 0.19248 2.9285-1.3065 0.9769-3.0642-1.434-5.407-3.1915"/>
 </g>
 <path d="m175.06 195.88c0.34889 2.2834 1.1285 7.5547 1.8672 10.161l-1.9778-3.0642c-0.30557-2.5296-0.60153-6.7737 0.12038-7.0964" fill="#005197"/>
 <path d="m272.28 210c-0.83252 3.3614-1.5712 6.4087-2.538 8.9638l2.139-2.9879c0.72185-2.7925 1.179-5.8399 0.39942-5.9758" fill="#005197"/>
 <g fill="#ddd9ac">
  <path d="m224.26 118.88c0.40662-0.16843 4.4224-3.446 4.4224-3.446-1.665 2.1463-3.0305 4.2526-3.2256 5.4749z"/>
  <path d="m200.64 66.875c-0.41625 0.07222-0.92635 0.97688-0.38978 3.5141 0.53415 2.5466 0.78198 3.1746 0.78198 3.1746 1.3498 0.16843 2.5209 0.91674 3.5141 2.7841-0.58468-2.2401-1.4605-5.2711-2.0452-6.7395-0.58468-1.4605-0.93357-2.8775-1.8599-2.7333"/>
  <path d="m175.91 76.53c-0.14429-1.1212-0.58468-3.6159-0.68816-4.2016-0.0963-0.58468 0.0963-1.7059 0.62078-1.7565 0.54379-0.04815 1.1453 0.62078 1.629 2.1824 0.49325 1.5616 1.1116 5.0165 1.4004 6.2812-1.4172-2.538-2.9624-2.504-2.9624-2.504"/>
  <path d="m238.06 247.08c0.19251 0 1.3667-0.29596 1.9008-0.45716-0.0963 1.5375-0.38979 5.7381-0.67853 5.7381-0.29594 0-1.2223-5.2797-1.2223-5.2797"/>
 </g>
 <path d="m234.76 109.07c0.77959 0 3.7774-0.71221 4.4309-1.1044 0.65445-0.39942 2.8606-2.7415 3.1236-3.6498-1.4341 0.58468-2.9793 1.5616-3.5141 1.8262-0.54379 0.25505-4.0404 2.9285-4.0404 2.9285" fill="#fad59c"/>
 <path d="m220.62 98.48c0 0.5847-0.29594 1.9514-0.58468 2.538-0.29596 0.5847-1.9514 2.4446-1.9514 2.4446-0.0722-1.4004-0.38979-2.6398 0.0963-3.1236 0.49326-0.49326 2.4446-1.8599 2.4446-1.8599" fill="#f48a6d"/>
 <path d="m205.58 99.066c0.0963 0.68816 0.68815 2.0548 0.68815 2.8351 0 0.78198-0.1925 4.2018-0.1925 4.2018l-0.59431 0.67852s-0.38979-2.8267-0.38979-4.0064c0-1.1718 0.49326-3.7095 0.49326-3.7095" fill="#b1a7d5"/>
 <path d="m192.68 113.1c-0.14429 0.0241-0.78198 1.0106-1.3402 1.9682-0.24061 0.41625 2.8096 1.3931 2.5551 0.53416-0.39941-1.357-0.88305-2.5635-1.2127-2.504" fill="#afbee2"/>
 <path d="m73.554 127.95c-2.538-2.5293-8.1062-8.0636-10.067-9.6935-1.1285-0.95043-3.7771-2.3508-4.9316-2.9793-3.7263-2.0548-22.918-9.2354-25.787-10.22-0.77237-0.26227-0.81567 0.32243-0.35611 0.67852 1.6723 1.2728 7.0196 2.4701 11.671 5.2287 8.9806 5.3308 17.002 11.383 20.312 17.91l-1.7565-0.21655c-3.3529-6.2049-10.517-11.501-19.082-16.577-4.4054-2.6145-9.3624-4.0404-11.485-5.4665-1.807-1.2127-0.99371-3.0558 1.0876-2.3772 3.0048 0.97689 22.265 7.9534 26.008 10.016 1.1886 0.65445 3.998 2.0548 5.1779 3.0726 1.9514 1.6891 7.894 7.3509 10.967 10.483z" fill="#007baa"/>
 <path d="m57.33 101.19c-1.5279-1.9273-2.4446-3.7348-3.3274-5.806-1.0106-2.3845-2.6823-6.0521-6.2643-10.101-4.7449-5.356-18.581-16.416-26.407-21.374-1.0683-0.6713-1.4605-0.14429-0.25505 0.94319 2.453 2.1824 17.316 15.381 18.377 16.807 3.6414 4.8979 6.5699 10.186 9.1079 16.875l-1.6458-0.63763c-2.0885-5.8146-4.397-9.8973-8.4034-15.5-1.0178-1.434-15.661-14.634-18.037-16.713-2.3772-2.0957-0.96726-4.1337 1.3498-2.6653 7.9195 5.0165 22.027 16.077 26.797 21.467 3.6753 4.1505 5.6277 7.945 6.6717 10.39 0.9841 2.3099 2.2834 4.5666 4.0319 6.6462z" fill="#5c4881"/>
 <path d="m55.138 69.199c-0.48363-2.2906-0.71221-4.176-1.2391-7.3933-0.44033-2.6992-1.4677-5.4494-3.7093-10.059-4.4819-9.2181-12.393-24.718-15.567-32.485-1.357-3.3188 1.0106-3.5649 2.7415-1.0683 2.7757 3.998 9.9228 14.557 13.233 19.727 4.2441 6.6378 8.2844 13.276 11.603 19.608 1.8936 3.6246 3.7774 7.5547 4.9826 13.216 0.92635 4.3969 1.7829 8.1572 3.2425 12.308l-2.0957-1.8768c-1.1453-3.5312-1.7059-6.3153-2.5211-10.161-1.179-5.6106-3.217-9.7953-4.8553-12.877-3.3442-6.2898-7.1045-12.894-11.332-19.515-3.3358-5.2203-10.406-16.043-13.233-20.041-1.0707-1.511-1.5447-1.4172-0.83973 0.27911 3.0218 7.317 11.663 23.674 15.847 32.298 2.2738 4.6941 3.4547 7.6565 3.9046 10.449 0.61116 3.7519 0.92635 6.2136 1.5447 8.9893z" fill="#b50000"/>
 <path d="m93.388 67.673c-1.8262-6.2557-2.0789-11.459-2.6058-17.944-0.19249-2.3508-0.83973-4.7364-1.4677-6.7395-3.7858-12.257-13.658-31.644-17.511-40.599-0.66169-1.5279-1.3162-1.4677-1.0779 0.69536 0.51732 4.8214 2.7928 14.379 9.2099 29.514 2.6142 6.1539 2.3845 12.605 1.3065 17.647l-1.2391-1.4268c0.84936-4.2694 1.2391-9.2181-1.3667-15.762-5.9588-14.973-8.3524-24.005-8.938-29.819-0.39942-3.9809 1.6963-4.2102 3.0981-1.1381 3.9302 8.6069 14.082 27.926 17.859 40.531 0.62078 2.0548 1.333 4.5158 1.5279 6.9688 0.55099 6.9349 0.88305 11.833 3.3868 20.66z" fill="#bd753a"/>
 <path d="m180.13 110.88c-2.818-3.9725-6.6209-7.9024-8.3865-8.6409-4.626-1.9177-12.189-1.5544-18.318-2.2497l-2.5125-1.2151c8.208 0.89988 16.688 0.04815 21.246 2.1463 2.6739 1.2223 6.4003 5.7039 9.719 10.406z" fill="#c9bd4b"/>
 <path d="m218.08 106.15c2.2906-2.8349 5.1524-7.7496 5.5343-10.534l1.2728-1.3065c-0.42348 3.7771-3.1407 9.0059-5.1101 11.323z" fill="#b74023"/>
 <path d="m206.78 104.86c0.5173-4.2949 0.42347-7.2913-0.16845-9.7698l0.7796-1.8599c0.58468 2.3604 1.0106 5.0844 0.81567 8.6324z" fill="#6b6091"/>
 <path d="m232 111.82c3.9554-0.72907 7.6734-2.2064 9.125-3.1236 2.7586-1.7396 4.9571-4.0914 6.1623-7.2828 0 0 1.1453-1.001 1.0274-0.5847-1.1285 3.9047-3.6246 7.0622-6.7227 9.0229-2.6908 1.6987-9.4645 3.1152-10.424 2.9456z" fill="#c39856"/>
 <path d="m70.55 127.97c-1.6987-1.9514-7.1642-7.5545-8.989-8.989-1.8238-1.434-7.1641-4.6854-7.5544-4.5582-0.38979 0.12037 4.8211 3.9047 6.2556 5.4749 1.4268 1.5616 5.3392 6.2475 7.2915 8.5901z" fill="#00b9e4"/>
 <path d="m54.08 100.18c-1.1718-2.767-4.5582-9.9313-5.7297-11.629-1.1718-1.6891-5.2117-6.3832-5.7379-6.2475-0.51732 0.12037 3.183 4.8553 4.176 6.901 1.6891 3.5141 2.7333 6.7737 3.6414 9.77z" fill="#9478b5"/>
 <path d="m59.795 72.944c-0.12037-2.216-1.2993-11.069-1.9514-12.894-0.65447-1.8262-4.0403-8.5985-3.5225-8.8617 0.52693-0.26227 4.957 6.5107 5.9926 9.2522 1.0443 2.7334 2.7418 11.332 3.132 15.89z" fill="#ea5532"/>
 <path d="m84.27 53.669c0.12037-1.9514 1.1718-9.1163 0.782-11.849-0.38979-2.7418-1.9514-6.7737-1.434-7.0369 0.52693-0.26226 3.2593 6.901 3.7771 11.205 0.52693 4.2952 0.26226 9.6341 0.26226 13.021-0.78198-1.8238-3.3868-5.3392-3.3868-5.3392" fill="#f7ba83"/>
 <path d="m160.24 103.07c1.5616-0.0963 7.8177 0.38979 9.1842 0.97688 1.3667 0.5847 4.2018 2.8351 4.9828 4.3969-2.64-1.0779-14.167-5.3731-14.167-5.3731" fill="#fffabc"/>
 <path d="m201.21 112.65c-0.38978-0.33204-3.1236 0.90711-3.1236 1.3667 0 0.45716 0.90711 4.4309 1.2319 4.499 0.33204 0.0481 2.3508-5.4751 1.8936-5.8654" fill="#ddc3dd"/>
 <g fill="#0d131a">
  <path d="m213.32 130.01c0.0722 0.0722 0.65446-0.48363 0.82289-0.75551 0.14429-0.24062 0.34889-0.91674 0.24062-0.96727-0.0963-0.0481-0.60153 0.49325-0.73868 0.71222-0.16843 0.25505-0.38979 0.95041-0.32243 1.0106"/>
  <path d="m212.83 128.52c-0.0481 0.0963 0.628 0.67852 0.88305 0.8325 0.38979 0.24062 1.1453 0.4668 1.2055 0.37296 0.0481-0.0963-0.55099-0.61117-0.89989-0.79884-0.27188-0.14445-1.1381-0.50047-1.1886-0.40662"/>
  <path d="m104.21 113.72c-3.5057 0.27188-6.2388 0.29594-10.941-1.2223-11.969-3.8536-30.728-9.5407-44.275-13.012-2.6058-0.66169-9.1163-2.6061-14.455-5.7636-6.6378-3.9215-19.557-11.162-31.822-14.99-2.0717-0.64484-2.3845 0.65447-0.3561 1.6723 15.635 7.8856 27.943 14.532 36.406 20.321 3.769 2.5806 4.6857 3.183 7.8856 4.1084 11.637 3.3358 27.561 8.7597 37.773 13.157 1.665 0.71221 4.4735 1.9177 7.4614 2.4701 3.9215 0.72907 9.4813 2.5211 13.513 3.1917 3.6498 0.60153 11.909-0.46678 16.739-0.0482 8.9212 0.7459 16.28 3.4715 21.594 7.6818 2.1294 1.6891 3.9131 2.7502 6.8671 3.0897 6.4171 0.75553 11.043 1.7324 15.602 3.1915l3.4205 2.1559c-8.0129-2.2834-12.529-3.1744-19.183-3.9131-3.2851-0.36572-5.042-1.4004-7.5886-3.4208-5.1777-4.0998-12.028-6.4934-20.779-7.3252-4.6683-0.44033-13.063 0.60153-16.866-0.0241-3.9978-0.66169-9.5576-2.3845-13.547-3.2256-3.0726-0.63763-6.137-1.8407-7.7499-2.538-10.177-4.3799-25.974-9.9228-37.586-13.25-3.3188-0.96004-4.575-1.6723-8.3353-4.3033-8.4628-5.9248-20.644-12.631-36.016-20.321-3.3613-1.6723-2.0284-4.5584 1.001-3.6162 11.739 3.6669 24.013 10.11 32.153 14.922 5.2372 3.0981 11.731 4.9061 14.294 5.5682 13.564 3.4631 32.213 9.0655 44.241 12.732 4.0914 1.2488 6.1115 1.5014 8.989 1.3667z"/>
  <path d="m205.33 128.47c2.3845-0.0963 3.4886-0.40662 5.2117-1.0876 2.0885-0.83253 4.5584-1.3763 6.4765-1.1958 1.6554 0.16843 3.37 1.0948 5.1014 3.0897l-1.2656 0.24062c-1.3739-1.5784-2.3845-2.1727-3.8962-2.3604-1.5712-0.19249-3.7942 0.31279-5.8228 1.1212-0.90711 0.35612-1.8407 0.69538-2.9795 0.96004z"/>
  <path d="m216.97 130.44c-1.1212-2.2569-2.869-2.9369-3.9641-2.5209-1.4942 0.56062-1.4605 1.9345-1.1116 2.5974l-0.93356-0.0482c-0.25505-0.92637-0.1925-2.4701 1.6554-3.1578 1.588-0.60395 3.9896-0.0241 5.2629 2.954z"/>
  <path d="m109.9 103.46c-14.651-6.5444-23.597-11.96-37.195-18.233-1.6554-0.76515-2.954-1.5447-4.5329-3.1917-14.727-15.415-42.229-37.119-57.1-47.534-1.5952-1.1116-2.4362-0.04815-0.49324 1.5544 13.768 11.34 39.962 35.744 52.143 50.573 2.504 3.0471 3.7942 3.8281 6.485 5.127 8.7684 4.2186 33.435 19.421 34.394 20.499 0.48363 0.55099 1.6554 0.85658 3.8536 1.001 22.002 1.3931 38.163 5.7042 49.368 13.038 1.7901 1.1718 2.954 1.7156 4.7451 2.4617l-0.54379 1.3498c-2.1727-0.92635-3.1491-1.4942-4.8553-2.6061-11.077-7.2405-26.933-11.408-48.782-12.8-2.4533-0.14429-4.1934-0.51732-5.0591-1.6049-0.59431-0.73868-25.236-16.212-33.571-20.228-2.7928-1.3498-4.3375-2.2401-6.9349-5.3984-11.688-14.235-38.053-39.105-51.855-50.616-2.9456-2.4615-1.0346-5.042 1.6626-3.1575 15.084 10.534 42.721 32.009 57.491 47.458 1.4774 1.5447 2.5127 2.1824 4.0661 2.903 13.972 6.4426 22.697 11.595 34.055 16.62z"/>
  <path d="m105.93 124.61c-8.0299 0.67852-12.928 1.3571-18.496 2.6994-1.5712 0.38256-3.4547 0.93357-5.772 0.9841-7.3594 0.12037-15.033 0.33204-21.84 1.511-2.4956 0.43311-4.4479 0.3152-6.1115-0.33204-8.8107-3.4379-28.224-9.1165-32.451-7.2066-0.7459 0.34889-0.75552 0.64484 0.77237 1.0515 6.8841 1.8503 14.905 5.0675 18.954 7.2066 1.5375 0.81567 3.582 1.7829 5.8312 2.2738 2.2834 0.49326 5.8486 1.4268 7.8177 2.216 1.9706 0.7892 3.7349 0.81567 6.1286 0.56784 5.4154-0.55099 16.654-0.9432 22.723-0.0722 1.9442 0.27911 4.9402 0.21654 6.9691-0.45717 6.3916-2.1294 32.866-6.3832 48.722-6.1541l1.4677 1.2055c-14.948-0.19248-43.451 4.1084-49.801 6.222-2.5887 0.86619-5.2287 0.85658-7.58 0.51732-6.0095-0.85659-17.129-0.5847-22.502-0.0481-2.5295 0.26225-4.4308 0.21654-6.5698-0.628-1.9273-0.77237-5.3476-1.7902-7.5971-2.2738-2.3508-0.5101-4.4903-1.5544-6.0776-2.3941-3.9978-2.1222-11.917-5.407-18.742-7.2405-2.538-0.67852-2.453-2.1222-0.91674-2.8946 4.3885-2.2232 25.702 4.1424 33.189 7.0538 1.511 0.59431 3.3103 0.61115 5.6363 0.19248 6.8668-1.1958 14.718-1.3763 22.112-1.5207 1.7565-0.0241 3.9809-0.69538 5.5004-1.0442 5.3392-1.2319 10.186-1.9442 15.118-2.4275z"/>
  <path d="m172.54 118.34c-2.2906-0.14429-4.7196-0.27911-7.181-0.38979 3.2764 3.5481 6.9265 6.4681 13.276 10.228 2.3436 1.3932 2.3436 2.2233-0.34888 1.7156-5.8825-1.1285-9.5152-1.4172-12.13-0.84936-1.0611 0.24061-2.6653 0.55099-4.1253 0.60154 3.1152 2.0957 6.2473 3.4631 9.855 4.2952 3.132 0.72183 5.1354 1.3498 7.4696 2.4699 2.869 1.3835 2.4446 1.9345-0.33926 0.82289-2.538-1.0178-4.3207-1.6121-7.4188-2.1896-4.083-0.75554-7.2066-1.9778-10.873-5.0334-1.511-1.2656-1.357-1.5375 0.37295-1.4677 1.8768 0.0722 3.4802-0.32243 4.8892-0.61115 3.1407-0.628 6.3153-0.3898 11.179 0.68814-5.8822-3.2764-9.719-6.6972-13.013-10.33-1.0274-1.1381-0.782-1.4268 0.78199-1.4004 2.3171 0.0481 4.6515 0.14429 6.8755 0.24542z"/>
  <path d="m175.66 117.36c5.7804 0.38979 10.339 0.96004 11.451 1.511 2.5124 1.2391 8.5051 8.1743 9.5407 9.9993 0.51008 0.88304 0.62078 2.1463 0.58468 3.5141l-1.3931-0.0722c0.0171-1.0611 0.0241-2.2497-0.36573-2.9285-0.97688-1.6963-6.7992-8.4967-8.8194-9.4815-0.68813-0.32243-4.4224-0.79884-9.5152-1.2223z"/>
  <path d="m197.78 150.28c-4.1508-4.3967-7.5545-6.5358-10.916-8.2506-1.8599-0.95042-1.5279-1.6554 0.37294-0.80605 3.7264 1.6722 7.3507 3.6669 11.213 8.4714 1.6049 2.0115 1.0274 2.3772-0.6713 0.5847"/>
  <path d="m181.77 146.26c-1.179 0.0963-1.41 0.0241-2.3099-0.65447-4.9739-3.7516-9.5918-6.6038-13.445-8.5475 3.8284-0.75553 8.7176-0.87342 12.962-0.24062l-3.1068-1.357c-3.9725-0.3561-6.5276-0.16843-10.39 0.5847-2.0957 0.40662-2.062 1.0106-0.0241 2.0043 4.0827 1.985 8.3778 4.8721 13.225 8.6408 1.2391 0.96004 1.8238 0.97689 3.1491 0.86621 7.0367-0.60153 13.725 2.0115 15.143 5.4241 8.5732 21.747 8.9467 52.933 3.6924 63.008l2.1559-1.6819c4.626-11.739 3.6754-41.278-4.2696-61.124-1.7733-4.4309-8.0128-7.6904-16.773-6.9349"/>
  <path d="m203.04 143.46c3.7008 9.9652 7.6055 16.018 10.712 20.907 1.9442 3.0471 3.5991 7.2489 5.407 13.216 0.72907 2.4107-0.0963 2.6313-0.83973 0.27189-1.8936-5.9503-3.6075-9.7614-5.5769-12.8-3.1066-4.8127-7.4696-11.561-11.204-21.857z"/>
  <path d="m187.67 113.43c7.5206 1.9008 11.136 3.4802 14.557 6.2983 2.062 1.7059 3.0897 2.139 5.492 2.3508 2.4362 0.19249 3.6585 0.27911 5.5682 0.60152 0.47641-2.4275 1.6458-5.0078 2.3941-5.1183 1.0779-0.14429 2.7415 2.869 3.6159 5.0081 3.4547-0.19249 8.4118-1.1549 11.323-1.9177 2.8183-0.73868 4.9657-0.75553 6.7992-0.33926 1.0443 0.2406 2.6145 0.79882 3.4376 2.0043 0.52695 0.76515 0.69538 3.6669 0.67853 6.799 0 1.1549-0.19249 1.9441-1.2728 2.869-3.0728 2.6568-7.1216 6.7821-9.0568 8.9638-2.6145 2.9453-5.5259 5.3644-8.5562 6.9347l0.54378-1.9008c2.5974-1.4774 4.8469-3.2848 7.1387-5.8738 1.9442-2.1992 5.9503-6.4084 9.0569-9.0908 0.83253-0.72182 0.83973-1.0346 0.83973-1.9947 0-3.5651-0.26225-5.4496-0.48361-5.772-0.72185-0.96004-1.7661-1.5375-2.6653-1.807-1.807-0.54379-3.3784-0.43311-6.3069 0.33204-3.0387 0.80606-8.0636 1.6819-11.586 1.8335-0.54378-8e-3 -0.63761-0.0963-0.76274-0.45716-0.86619-2.3436-2.1896-4.2865-2.5293-4.2442-0.42347 0.0482-1.2656 2.2064-1.7565 4.3459-0.12038 0.48363-0.3128 0.56784-0.72905 0.50047-2.1126-0.3561-3.3868-0.47641-5.806-0.628-2.5974-0.14429-3.8792-0.72183-6.0776-2.538-2.767-2.2738-5.9756-3.8026-10.729-5.1524z"/>
  <path d="m240.87 127.18c-0.85659 0.39942-1.7156 0.27189-2.6398-0.65447-1.4605-1.4677-3.2766-2.9792-4.2273-3.1152-0.87342-0.12037-4.2949 0.50047-7.4696 1.0274-3.3445 0.551-6.0947 0.21654-7.9195-0.96004l1.1116-0.44994c1.5953 0.78198 3.8621 0.89026 6.6378 0.46678 3.2511-0.48363 7.1981-1.2825 7.8432-1.1718 1.0948 0.1925 3.0981 1.807 4.728 3.2425 0.73868 0.65446 1.0178 0.70499 1.884 0.2406z"/>
  <path d="m225.58 122.31c-0.67853-1.588-1.6386-2.903-1.8599-2.8943-0.24543 0.0168-0.96004 1.5014-1.5712 3.4121l-1.0442 0.0722c0.7892-2.8096 1.8166-4.8298 2.4615-4.8977 0.76273-0.0722 1.9947 1.7492 2.9795 4.1082z"/>
  <path d="m194.6 111.02c-0.55099-2.0957-1.4605-3.7771-3.1917-5.7634-4.9061-5.6277-4.4987-7.5632-7.0961-11.009-3.7264-4.9318-6.1115-15.686-7.2318-21.458-0.36575-1.8671-1.8768-2.5719-1.4004 0.04815 0.40664 2.3099 3.3527 19.574 3.8197 22.723 0.3561 2.4107 1.6891 4.7194 3.9046 7.215 1.4437 1.6386 2.4013 3.7432 2.8349 5.9164 0.33204 1.6386 0.75552 2.8604 1.5784 4.8551l-1.4677-0.30557c-0.80606-1.6723-1.0876-2.7247-1.3932-4.2439-0.39941-2.0211-1.256-3.7944-2.5974-5.3137-2.3267-2.6229-3.7093-5.4157-4.0914-7.9876-0.46679-3.1491-3.0387-20.338-3.4037-22.663-0.67131-4.3036 2.4278-3.7603 3.0642-0.44994 1.1044 5.7973 3.9386 16.127 7.3933 21 2.8691 4.0574 2.6908 5.6616 7.0964 10.721 1.1622 1.333 1.7998 2.1727 2.3436 3.3868z"/>
  <path d="m204.65 116.71c-0.0722 0.30557-0.12038 0.60393-0.19251 0.90952-0.49324 2.1559-1.256 2.038-0.86619-0.16843 0.16843-0.99373 0.31279-1.9442 0.42347-2.8775z"/>
  <path d="m204.31 110.68c0.0722-2.0019 0.0241-3.9893-0.0481-6.1115-0.16843-3.5904 0.70499-7.478 1.6217-9.5068 0.62077-1.3667 0.76514-1.8238 0.49324-4.0064-1.3234-10.653-2.9285-17.91-4.8892-22.799-0.50046-1.256-1.1453-1.0346-0.99372 0.42348 0.21656 1.9177 1.8671 7.2489 2.1462 10.161 0.21656 2.2497 0.14429 4.8977 0.0722 7.5713-0.0722 2.2497-0.44994 3.4379-1.2391 4.5158-1.5784 2.1559-3.005 5.3899-3.3274 7.0114-0.34889 1.7661-0.80606 2.8859-1.8768 4.9316-1.1453 2.1824-1.1718 4.6176-1.0779 8.4544 0.0241 1.3739-0.61115 1.4172-0.78198 0.0481-0.41626-3.2596-0.4668-6.4681 0.72905-8.9467 1.0178-2.1126 1.3402-3.3106 1.6386-4.813 0.33926-1.7156 1.9441-5.1438 3.6414-7.4527 0.60153-0.82289 0.97688-1.5544 1.0515-3.8365 0.0722-2.6568 0.26227-5.2542 0.0481-7.4698-0.27188-2.7586-1.8407-7.9874-2.0284-10.135-0.21654-2.5295 1.9104-3.6075 2.9708-0.8662 1.8672 4.8637 3.6753 12.291 5.1948 22.927 0.33206 2.3436 0.29596 3.4208-0.3994 4.9487-0.8999 2.0019-1.7396 5.5343-1.5953 8.8278 0.0482 1.0707 0.0722 2.1318 0.0482 3.183z"/>
  <path d="m215.66 107.13c1.1044-1.2223 1.8166-3.3782 1.7565-5.3476-0.0241-1.3065 0.12038-1.8407 1.3234-2.8604 3.268-2.7757 5.3476-4.6092 7.6139-6.8161 0.9841-0.95041 1.1886-1.7059 1.2488-3.2425 0.25504-6.587 1.8334-15.381 3.0642-21.611 0.25504-1.2897-0.16843-1.2728-0.8662-0.28874-0.90711 1.2656-1.8936 3.548-2.2497 5.7297-0.49326 3.0132-2.0789 9.4984-3.1746 12.588-0.43311 1.2223-0.96726 2.2401-2.3099 3.2001-4.1679 2.9963-6.451 5.7294-11.137 9.9397-0.89027 0.7892-1.4677 1.6554-2.0548 3.0726-0.52694 1.2656-1.5952 3.735-2.0957 5.1609l-2.3339 3.0134c0.84936-2.9708 2.3267-6.6888 3.1407-8.675 0.64484-1.5544 1.4004-2.6992 2.3941-3.582 4.728-4.2018 7.3423-6.8755 11.451-9.8379 1.0178-0.73868 1.4677-1.4605 1.9177-2.7334 1.0515-2.9624 2.7415-9.0569 3.2254-12.18 0.38256-2.4107 1.5447-5.1185 2.538-6.2559 1.6049-1.8262 3.0218-1.3234 2.5635 1.0106-1.2319 6.2049-2.7247 14.948-2.9708 21.475-0.0722 1.7059-0.35612 2.9453-1.5447 4.0998-2.2738 2.216-4.1508 4.1424-7.444 6.9349-0.83252 0.70499-1.0106 0.99373-0.97689 1.884 0.0481 1.5279-0.3561 3.1915-1.0274 4.5413z"/>
  <path d="m212.54 115.12c-0.33204 1.0611-0.50046 2.062-0.45716 2.903 0.0481 1.0779-0.24542 2.1487-0.70499 2.7841-1.0009 1.3931-1.5279 1.1958-0.78199-0.43311 0.3561-0.76274 0.42348-1.4004 0.38257-2.3339-0.0963-1.9441 0.69538-4.4222 1.8503-6.6885z"/>
  <path d="m224.97 120.27c0.5101-1.5183 6.8839-10.211 12.605-14.057 2.64-1.7733 10.653-5.5598 13.395-8.3863 1.4172-1.4605 2.8604-3.0558 4.1421-4.7194 1.4509-1.8768 2.1294-2.7502 2.6994-4.3291 1.2488-3.4718 2.2064-5.8738 3.9215-10.152 0.56062-1.41 1.0515-2.2401 2.538-3.9725 5.8993-6.8841 11.298-13.386 15.211-18.954 1.2488-1.7661 0.34889-2.1054-1.1718-0.39942-6.2728 7.0877-12.198 13.972-17.341 19.175-1.1116 1.1212-1.9273 1.9345-2.9795 3.6585-3.2338 5.3389-8.3863 12.265-10.916 15.296-1.7156 2.0548-13.921 8.7429-21.025 11.595l-1.4437-0.92635c7.215-2.7502 19.37-9.0826 21.518-11.671 2.504-3.0218 7.6988-9.6343 10.916-14.922 1.1044-1.8166 2.038-2.7076 3.1491-3.8366 5.127-5.178 10.873-11.969 17.358-19.056 2.2834-2.487 4.9912-1.4846 2.7418 1.6554-4.1253 5.772-9.1079 11.926-15.262 19.132-1.41 1.6458-1.6891 2.2569-2.2329 3.5991-1.8672 4.6602-2.5974 6.7737-3.8368 10.237-0.61116 1.6891-1.357 2.8012-2.8691 4.6854-1.333 1.6722-2.7925 3.2766-4.2102 4.7451-2.6821 2.7925-11.875 7.1385-13.768 8.5561-4.5921 3.4547-11.043 9.9313-12.215 14.574z"/>
  <path d="m207.17 217.97c-1.5953-2.0548-3.0729-3.0981-3.8197-3.0981-0.69536 0-2.5125 1.7565-3.7179 3.8452l-1.7565-0.0481c1.4942-2.453 4.0319-5.093 5.4154-5.093 1.2993 0 3.4208 1.5014 4.991 3.6585z"/>
  <path d="m174.35 202.17c-0.55099-4.5581-0.38257-6.7821 0.24062-7.0028 2.0211-0.7122 6.4171 11.782 11.256 19.438 0.77237 1.2151 1.4004 1.9104 3.0981 2.2497 6.2643 1.2392 12.334 1.629 16.314 1.0779 1.807-0.25504 2.8351-0.94319 3.497-2.1896 0.67853-1.2897 1.3402-1.0876 0.83973 0.27911-0.61837 1.6819-2.0548 2.6484-4.2018 2.9624-3.9638 0.59431-10.814 0.46679-16.705-0.78921-2.0548-0.44031-2.903-1.179-3.9131-2.903-4.6515-7.9111-8.9806-18.954-9.6683-18.691-0.30558 0.12038-0.0481 3.7093 0.58469 7.8175z"/>
  <path d="m270.21 217.73c3.2254-5.4749 5.3986-8.2845 6.1284-8.0129 1.8094 0.65447-5.1012 21.28-9.6257 28.885-1.6458 2.7757-3.7516 4.6602-6.6462 5.8909-5.492 2.3436-10.449 4.5752-15.279 7.0538-0.91672 0.46677-1.4509 0.96724-2.0452 1.985-1.2151 2.062-1.7902 2.7331-2.8352 3.9386-1.5952 1.8407-1.7492 1.3498-1.434-0.71221 2.869-18.53-1.4605-39.572-11.298-54.605 1.5712 18.716-0.29596 41.346-4.465 54.571-0.53415 1.6987-1.1285 1.4268-1.4004 0.0241-0.48363-2.5127-1.1886-4.7109-1.9177-6.7143-0.92396-2.5464-2.6058-3.8621-5.6022-4.4903-7.9282-1.6626-16.162-2.9708-23.063-4.0488-3.9217-0.61837-5.042-1.1285-7.0622-5.1014-5.0507-9.906-15.864-39.513-14.006-40.124 0.92637-0.30558 3.2256 1.9514 6.8586 8.4286 1.5952 2.8351 0.91673 3.268-0.7459 0.46678-3.0471-5.1183-5.0081-7.2573-5.1948-7.1724-0.44994 0.21655 9.4729 28.487 14.141 37.79 1.7661 3.5312 2.9879 4.0064 6.1965 4.5074 6.9094 1.0779 15.313 2.3171 23.266 3.9809 3.3445 0.70499 5.127 1.9682 6.3493 5.2458 0.81567 2.1823 1.1381 3.4547 1.5014 5.5343 3.8536-12.741 5.178-34.751 4.0064-53.569-0.14429-2.216 0.28874-2.4785 1.7396-0.40663 10.262 14.6 14.804 36.881 11.867 54.953 1.0106-1.333 1.5447-2.1294 2.1462-3.1575 0.705-1.1958 1.4268-1.8407 2.4785-2.3772 4.8469-2.4786 9.8463-4.8976 15.364-7.2489 2.6992-1.1549 4.4903-2.6484 6.0605-5.2374 4.677-7.7157 10.466-26.585 9.9652-26.763-0.21654-0.0722-2.4446 3.2001-4.7025 6.952-1.2656 2.1126-1.9947 1.6458-0.7459-0.47641"/>
  <path d="m270.94 217.25c1.1285-3.3103 1.3835-6.4085 1.2055-6.4595-0.30559-0.0963-4.4987 7.6565-9.5152 12.206-1.4268 1.2993-2.1559 1.6217-3.9386 1.6626-4.3291 0.0963-7.4443 0.0481-11.646-0.27911-1.5616-0.12037-2.3002-0.59431-3.3274-1.8431-10.339-12.605-21.849-44.92-25.108-58.679-0.62078-2.589-0.65446-4.2442 0.0481-6.6038 1.8503-6.1455 2.7673-8.5222 4.8045-13.046 0.89026-2.0043 1.6891-1.6891 0.88305 0.35609-1.807 4.6176-2.453 6.7482-4.2186 12.987-0.61837 2.1824-0.68814 3.4292-0.0722 6.0608 3.2511 13.683 14.405 45.505 24.658 58 0.8662 1.0515 1.2728 1.4004 2.4701 1.511 4.1847 0.38257 7.1726 0.40664 11.519 0.27911 1.5616-0.0482 1.9177-0.12037 3.1915-1.2488 5.0507-4.4819 9.4476-13.208 10.678-12.877 0.91672 0.25505 0.59431 3.0642-0.16843 6.0182z"/>
  <path d="m161.38 245.26c8.989-2.8265 17.384-6.9518 22.044-10.653l0.5847 1.3065c-4.5156 3.5225-12.147 7.2913-20.482 9.8973z"/>
  <path d="m186.35 239.35c-4.0319 3.3019-13.259 9.354-23.113 7.0283-7.7244-1.8166-16.034 0.27189-19.693 4.7535-5.3731 6.6038-10.347 20.49-12.316 34.836-0.46678 3.3529-1.1718 6.3153-2.8012 8.76-2.7331 4.0998-5.3815 7.2063-11.272 12.605-1.8166 1.6626-1.8335 2.1727-2.3772 4.9147-5.9758 30.235-7.5121 68.458-6.7314 74.909 0.66169 5.458 3.4294 10.661 4.3291 10.627 1.0178-0.0241 4.1169-5.407 4.3375-8.5985 0.12037-1.7228 0.0241-3.0813-0.65447-5.127-0.55099-1.6554-0.81567-3.3274-0.73866-5.5259 0.95041-26.322 5.9164-53.349 8.7684-58.73 1.2824-2.4013 2.0115-3.3019 4.6602-4.0064 12.817-3.4208 22.519-7.1895 24.293-9.1502 9.7274-10.695 15.415-19.888 19.183-31.194 1.511-4.5497 1.1044-9.6088-4.4224-16.96-1.2993-1.7228-0.67132-2.1992 0.70499-0.54377 6.4171 7.7244 6.7227 13.242 5.1185 18.055-3.8113 11.434-9.6938 21.051-19.506 31.848-2.3267 2.5548-15.007 6.451-25.015 9.1163-2.3772 0.63763-2.7163 1.0779-3.9386 3.3869-2.8183 5.3136-7.7075 32.068-8.6495 58.28-0.0722 2.0885 0.16843 3.582 0.68814 5.127 0.61116 1.8166 1.0779 3.4123 0.92637 5.492-0.25505 3.6159-3.8536 10.025-5.7889 10.118-1.6554 0.0722-4.8721-6.1541-5.5937-12.096-0.782-6.485 0.83251-44.971 6.8245-75.291 0.51732-2.6313 1.0611-4.0235 2.7078-5.5343 5.8144-5.3392 8.6324-8.9212 11.103-12.605 1.6049-2.3845 1.9706-4.2018 2.4956-7.9792 2.1463-15.601 6.8416-28.877 12.393-35.701 4.0745-4.991 13.064-7.1132 21.297-5.1777 9.4221 2.216 16.603-2.6145 21.806-6.7314z"/>
  <path d="m163.94 253.74c-2.5806-2.5719-4.4987-4.2865-7.8177-6.3745-1.5712-0.99373-1.2055-1.629 0.44031-0.77237 3.3527 1.7565 5.4749 3.5904 8.0042 6.5189 1.4677 1.6987 0.87342 2.1294-0.62799 0.628"/>
  <path d="m200.72 276.31c-14.404-1.2728-23.224 1.1718-31.296 8.2253l1.1453-2.7673c7.3338-6.3067 16.17-8.2677 29.785-7.0622z"/>
  <path d="m217.33 274.73c8.0723-1.5375 14.201-5.6871 18.436-12.24 1.665-2.5635 2.216-2.2401 0.77235 0.44994-3.8029 7.0538-10.441 11.62-19.26 13.276z"/>
  <path d="m238.96 255.77c-0.67852-7.7157-3.7093-15.712-5.7975-20.321-2.818 7.7669-7.2573 18.233-10.899 22.231l-0.12037-1.7156c2.6398-3.3529 7.0028-13.233 10.228-21.458 0.628-1.5952 0.91673-1.4509 1.5953 0 2.3267 4.9487 4.5497 10.491 5.7294 17.944z"/>
  <path d="m116.28 393.92c-0.0963 5.7297-1.6987 8.5732-4.1676 8.6327-3.5736 0.0722-7.9876-9.5239-8.3355-14.982-1.6987-26.398 2.1126-48.451 10.61-77.659l-1.4605 8.4967c-4.9487 20.491-9.7359 45.845-7.7838 69.018 0.41625 4.8892 4.5668 13.411 7.0199 13.411 0.91672 0 2.4107-1.078 2.6823-5.2287z"/>
  <path d="m106.74 395.42c-5.6955-4.0743-6.6123-8.7597-2.9285-15.466l-0.0241 2.4872c-1.7156 4.1508-1.0443 7.894 1.9345 10.797z"/>
  <path d="m161.61 325.28c-0.12037-1.3402-0.47641-4.176-0.58468-5.6106-0.1925-2.6739-0.16843-4.0659 0.7122-6.2898 2.8775-7.1556 4.2442-14.303 4.397-22.765l1.4268-2.3267c-0.0481 10.84-1.2824 17.681-4.6176 25.482-0.8662 2.0452-0.93358 3.1575-0.7122 5.7381 0.12037 1.3835 0.40662 4.1253 0.5173 5.3134z"/>
  <path d="m176.07 339.79c1.7324 9.8718 4.2865 24.149 5.6022 33.605 0.25505 1.8407 0.71221 2.8861 1.7902 3.684 1.5712 1.1622 3.0642 2.3676 3.3188 3.3866 0.89989 3.5906-1.0515 13.912-3.6838 13.845-1.7565-0.0482-4.5242-3.7263-6.816-9.9822-1.5207-4.1337-5.5853-20.448-7.0198-26.645-2.5464-11.052-4.8127-23.105-6.765-31.347 1.3571 15.72 7.7073 43.35 11.62 55.428 3.8452 11.909 7.1048 15.601 9.1163 15.313 1.1213-0.16843 1.7902-1.4509 1.665-6.5189l0.81568-2.3436c1.0346 8.0807-0.48363 9.9991-2.3171 10.262-3.1662 0.44994-6.7058-4.4564-10.449-16.348-3.6756-11.663-10.211-41.083-11.383-56.294-0.2719-3.531 0.77235-3.8366 1.7059-0.0722 1.9682 7.9366 4.7449 20.499 7.2321 31.585 2.6652 11.926 5.9077 23.988 6.901 26.602 2.2569 5.9419 4.7364 9.1334 5.5766 9.125 1.4172-8e-3 3.217-8.31 2.4362-12.257-0.14429-0.79883-1.6554-2.038-2.64-2.7673-1.2656-0.9432-2.0548-2.436-2.3436-4.4903-1.3065-9.4474-3.8536-23.716-5.5853-33.579-1.6891-9.6172-1.5953-15.236-0.99373-21.17 0.26227-2.6145 1.0611-3.633 2.8351-4.7535 4.2526-2.6823 7.9366-5.5512 11.918-9.5407 1.5207-1.511 1.8672-2.6737 2.3772-5.0504 1.4437-6.6803 3.7858-15.933 6.2559-24.226l1.4942 0.0963c-2.4872 8.3355-4.9318 17.579-6.3832 24.302-0.6208 2.8861-1.0876 4.0151-2.8267 5.7636-4.0404 4.0319-7.7751 7.079-12.087 9.7953-1.256 0.79883-2.139 1.3498-2.3772 3.7179-0.59431 5.857-0.66169 11.357 1.0106 20.873"/>
  <path d="m205.81 324c-0.48364-2.2329-1.357-4.2949-2.8351-6.6801-2.7502-4.4224-2.9963-7.1642-0.9432-12.758 0.41625-1.1453 0.52695-2.0115 0.58468-3.7858 0.38258-10.992-1.9514-28.775-9.4219-45.692-2.2232-5.0336-2.2329-9.0994-1.961-14.073l1.4172 0.16843c-0.27189 4.9655-0.21655 8.5985 1.9177 13.437 7.5292 17.053 9.5578 35.065 9.1757 46.151-0.0722 1.8672-0.16843 2.852-0.61115 4.1082-1.7661 4.9742-1.6386 8.0299 0.73866 11.799 0.7459 1.1886 1.3932 2.453 1.8936 3.7348z"/>
  <path d="m221.81 256.31c-3.7687 13.743-4.991 25.601-4.6515 42.798l-1.3498-3.9896c-0.45955-14.82 0.83975-25.762 5.2117-41.592z"/>
  <path d="m220.33 382.1c-0.96726-4.9826-1.807-10.177-2.7334-15.44l-0.38978-8.8872c1.0611 7.2405 2.9453 16.484 4.4222 24.098 0.16843 0.87343 0.32243 1.7396 0.45717 2.5974z"/>
  <path d="m222.82 391.11c0.86619 13.989-2.7502 24.438-6.4595 24.591-3.9386 0.16843-11.162-13.793-11.205-22.952-0.0481-9.6257 0.68815-51.295 0.16842-72.77-0.0481-2.4533-0.19248-3.2766-0.97687-4.5413-2.4701-3.9896-2.0885-8.675 0.88305-12.554 4.1847-5.4833 4.9571-17.358 5.5004-28.682 0.21655-4.397 2.5548-5.1525 2.8859 0.16843 0.58468 9.6509 1.8599 21.382 5.5853 27.154 4.1508 6.4426 3.6075 9.4474 1.1886 14.642-2.6313 5.6532-3.5906 8.76-4.1679 16.544l-0.5101-5.1948c0.61115-4.7704 1.4268-7.5122 3.531-12.028 2.2738-4.8892 2.2497-7.9618-1.1718-13.25-3.8113-5.9162-4.7619-17.409-5.3899-27.773-0.21656-3.4294-0.83975-3.3868-1.001-0.19248-0.58469 11.45-1.0683 23.657-5.4241 29.361-2.487 3.2427-2.9114 7.6736-0.7892 11.111 0.59431 0.95041 0.97689 2.1126 1.0707 5.2627 0.64485 21.705-0.12038 63.22 0.0481 72.753 0.16842 10.203 7.546 21.365 9.668 21.195 1.9514-0.16842 5.0504-7.0369 5.3137-17.715z"/>
  <path d="m212.55 311.95c-2.038 4.448-2.4278 8.9467-2.6397 15.016-0.63762 18.088-1.1116 51.091 0.21655 62.423 1.0442 8.8276 4.9061 17.63 6.1623 17.511 1.2055-0.12037 4.4903-8.9892 5.5004-15.559 0.78921-5.1183-1.0106-8.123-2.2401-9.4387-1.2897-1.3835-1.7733-2.9711-1.961-5.4412-1.7228-23.674-1.9273-48.756-3.4378-63.976-0.24061-2.3339-0.78199-2.3267-1.6049-0.53417m-3.7093 77.574c-1.333-11.383-0.73868-44.47-0.0963-62.592 0.21656-6.1794 0.782-10.89 2.8775-15.474 1.2993-2.8267 3.2596-2.5551 3.5822 0.93358 1.4509 15.389 2.216 41.244 3.7009 64.069 0.14429 2.139 0.32241 3.0983 1.6289 4.499 2.0548 2.1992 3.3613 5.8312 2.6398 10.551-1.3667 8.8278-4.8298 16.883-6.816 16.976-1.9514 0.0963-6.1455-7.3678-7.5119-18.963"/>
  <path d="m177.41 392.49c-5.3731-3.0642-6.8076-8.1062-5.3392-14.591l0.73868 2.1992c-0.55101 4.3459 0.83252 8.1572 3.8452 10.585z"/>
  <path d="m207.69 401.65c-4.0658-3.7603-4.8808-7.894-4.7619-10.296 0.0963-2.0284 0.92635-4.3883 2.7925-7.7667l0.0963 2.4872c-1.0442 2.1222-1.6554 3.8366-1.6819 5.2882-0.0241 1.7564 0.38258 4.7449 2.716 7.6649z"/>
  <path d="m228.77 270.85c-2.5295 12.469-4.3714 20.321-8.0894 34.878l-0.84936-1.6217c3.3361-13.064 4.9912-21.025 7.0793-32.094z"/>
  <path d="m234.11 299.71c4.8382-11.934 10.126-24.344 15.101-34.759 2.4107-5.042 3.1236-10.042 2.5464-17.477l1.4509-0.48363c0.73868 7.945-0.0963 13.327-2.6145 18.589-5.305 11.111-10.619 22.876-16.586 37.645z"/>
  <path d="m226.88 324.26c4.9316-2.9792 7.1979-9.0992 6.5444-17.392-0.44994-5.7039 0.64483-11.841 2.6058-17.291 1.5952-4.4477 2.2497-6.5018 2.6568-9.6002 0.21656-1.6386-0.32241-1.6722-0.8325 0-4.7704 15.559-11.705 24.506-17.129 25.592l-0.5847-1.1718c3.769-0.49325 11.162-7.1726 16.815-24.692 0.94078-2.9116 3.1152-2.9879 2.6653 0.43311-0.41626 3.1746-1.1622 5.755-2.5806 9.7614-2.0789 5.8738-2.818 10.398-2.3075 16.934 0.74589 9.6596-1.6987 15.423-8.1488 18.988z"/>
  <path d="m218.79 370.68c1.3739-21.085 5.6616-39.402 9.2436-53.179 0.70499-2.6992 0.38258-3.217-1.5784-1.2993-2.5125 2.4446-3.9896 5.1014-5.0507 9.0061-2.038 7.4866-3.2848 13.089-4.7872 22.112l-0.28874-5.441c1.0106-5.5767 2.0115-9.7019 3.9386-17.002 1.0539-4.0148 2.7841-7.0454 5.3815-9.5747 2.8012-2.7247 4.7196-1.7324 3.633 2.4275-3.7348 14.379-7.9363 32.485-9.7359 56.523z"/>
  <path d="m147.4 247.42c-17.392-3.6669-30.498-0.0168-44.062 13.242-6.952 6.7905-19.744 8.7768-30.464 4.7872 1.3402 1.706 2.6145 2.8606 5.0336 4.4395 1.6458 1.0683 1.0274 1.7324-0.48363 0.7459-3.0728-2.0115-3.8962-2.7163-5.9164-5.2882-1.3763-1.7492-0.88305-1.884 0.94319-1.2055 11.264 4.2016 23.037 2.4446 30.057-4.414 14.532-14.192 27.553-17.783 46.405-13.14z"/>
  <path d="m77.081 269.92c-1.6049 0.0722-3.1662 8e-3 -5.0252-0.30557 2.5295 2.9369 7.3933 5.7975 13.675 6.7482 2.3267 0.3561 2.0115 1.0876-0.12037 0.88305-7.0961-0.67853-11.934-3.8792-14.736-7.266-0.97688-1.1886-0.83973-1.7156 0.88305-1.434 1.3835 0.21654 2.4362 0.33926 3.9725 0.3561z"/>
  <path d="m85.995 276.95c-3.4886 2.1222-5.8144 2.954-9.354 3.1746 5.7634 3.582 14.294 4.7959 23.835 1.3234 2.0452-0.75552 2.3508-0.27911 0.75552 1.2055-2.2665 2.1054-4.6178 3.633-7.4104 4.7874 7.1387 0.50047 16.815-2.8861 24.506-11.985 1.2825-1.511 1.9177-0.99372 0.68814 0.56063-7.6902 9.7274-17.851 13.462-25.787 12.41-2.062-0.2719-1.5616-1.1285-0.24062-1.7396 2.6653-1.2127 4.1337-1.961 6.3577-3.7348-9.7614 3.217-18.097 1.8407-23.767-2.2401-1.588-1.1453-1.2127-1.5447 0.44033-1.6386 3.5396-0.19248 5.4325-0.78198 8.3779-2.5127z"/>
  <path d="m135.3 265.9c-4.2697 0.89026-7.8687 4.312-9.6428 8.5648-1.884 4.5411-4.4561 7.0706-8.3524 8.5646-1.9947 0.77236-2.5974 0.36572-1.3667-1.2488 1.4172-1.8503 1.7829-3.0981 1.9514-5.2032l1.0948-1.1212c-0.21654 3.1999-0.57748 5.0249-1.9682 6.6462 3.2764-1.4268 5.8144-3.9554 7.6052-8.1572 1.9706-4.6344 6.1457-8.7597 11.103-9.5407z"/>
  <path d="m107.63 262.01c-2.7502 2.0043-6.4426 3.3868-9.8295 4.1934-2.2064 0.53415-2.6313-0.14445-0.26226-0.83973 2.869-0.84936 7.079-2.7757 9.4389-4.4648 2.5125-1.807 3.9809-2.8351 7.0283-4.2018 2.2401-1.0106 2.5803-0.33204 0.39942 0.78921-2.4701 1.2656-4.2867 2.7163-6.7737 4.5242"/>
  <path d="m140.17 254.75c-5.4664-2.5803-11.866-2.1992-19.752 0.3152-1.9947 0.63763-2.4362 0.0241-0.3152-0.82289 8.0978-3.2509 15.092-3.4376 20.796-0.7122z"/>
  <path d="m98.761 263.3c5.6022-6.1878 8.3355-9.8379 11.12-13.776 6.8076-9.6257 21.305-10.755 39.182-2.9285l-1.7565 0.67852c-16.951-6.6377-29.726-5.5175-36.202 3.0813-2.8351 3.7603-4.7196 6.2982-8.1743 10.143z"/>
 </g>
 <path d="m205.86 117.72c1.0442 0.14429 4.4477-3.2509 5.6532-6.9517 0.51732-1.588 0.0241-5.6703-0.53416-5.9927-0.88305-0.50047-4.3799 1.4605-5.5937 5.6277-0.72905 2.4785-0.41626 7.1895 0.47641 7.3168m-0.38257 1.3835c-2.0019-0.41625-1.985-6.6207-1.2897-9.0145 1.3498-4.626 5.7805-7.2318 7.3509-6.3322 1.1886 0.6713 1.7228 5.3307 1.0683 7.3338-1.3932 4.2865-5.2882 8.3949-7.1303 8.0129" fill="#c09ba1"/>
 <path d="m195.27 116.41c-1.884-5.1693-6.587-8.7174-7.266-8.4457-0.54377 0.21654-0.30558 3.8113 0.42347 6.0266l-1.4605-0.53416c-0.64484-2.6653-0.44032-6.2557 0.68815-6.536 1.6289-0.39942 7.3933 4.1847 9.1247 9.906z" fill="#5d75a2"/>
 <path d="m200.08 118.8c1.2897-2.7331 1.7902-4.9145 1.7565-6.5444-0.0481-1.9706-2.4954-6.2133-3.0897-6.2727-0.42348-0.0482-1.511 2.555-1.6217 6.3661-0.0481 1.3667 0.65447 4.2781 1.3402 5.4241l-1.6121-0.67852c-0.56784-1.511-1.0346-3.582-1.001-4.7704 0.0963-3.4547 1.4437-7.4866 2.9198-7.4866 1.2295 0 4.312 5.1522 4.363 7.3933 0.0241 1.8263-0.66167 4.3288-2.0043 7.3507z" fill="#a07fa1"/>
 <path d="m213.16 116.81c0.64484 0.24544 3.5226-1.7228 7.1387-5.3476 3.6075-3.5988 5.2201-6.1794 4.9826-6.5444-0.38979-0.60392-7.5547 1.629-9.5494 3.3445-2.6737 2.2906-3.4802 8.208-2.5719 8.5475m-0.79883 1.1958c-1.7565-1.2488-0.12038-8.7003 2.3676-10.848 2.1053-1.7998 10.381-4.0743 11.485-3.0471 0.93358 0.87342-1.1549 4.4477-4.9826 8.2758-4.2186 4.2189-7.7922 6.3832-8.8702 5.6192" fill="#c9bd4b"/>
 <path d="m169.23 122.42c-2.7673-0.14429-5.772-1.2223-9.8718-3.7093-9.2438-5.6277-24.234-10.076-46.04-13.878-3.6243-0.62798-5.6787-1.6458-7.3933-4.4903-3.3188-5.492-6.9262-11.187-11.892-15.372-3.1152-2.6313-5.772-6.451-8.3355-11.917-6.8416-14.625-24.54-39.122-29.598-44.818-3.3358-3.7519-4.9573-6.4-6.7482-9.1334-2.216-3.3869 0.28874-4.6599 2.3604-2.7163 3.3445 3.1491 5.772 5.5685 8.7173 9.1505 2.4872 3.0303 6.1625 7.4782 10.076 11.4 5.1185 5.1099 9.5747 9.7274 13.191 15.432 3.9809 6.2898 5.8483 8.7513 13.157 18.369 6.6803 8.7939 16.594 15.542 20.89 17.002 6.035 2.0548 14.591 4.3801 19.54 5.3223 2.8012 0.53416 5.6958 1.1285 9.4476 3.0471 13.411 6.8416 27.765 11.773 38.63 15.822 3.4971 1.3065 5.8399 2.3436 7.3678 4.1931 2.8859 3.4973 5.67 6.9265 9.7869 10.559 1.0442 0.93357 1.8407 1.2656 3.5141 1.4677 1.6289 0.19248 2.9369 0.72182 4.813 1.6819 1.1958 0.61837 2.7415 0.80606 6.8245 0.0168 3.0558-0.58469 4.0574-0.61116 8.5477-1.7829 3.3527-0.87342 3.633-0.14429 0.61115 1.4846-6.7058 3.6501-7.4698 3.9556-14.54 6.7398-1.5952 0.63762-2.3508 0.551-3.0984-0.71221-1.7059-2.9201-6.0434-3.8368-9.7953-2.9624-1.5279 0.35612-3.8876 0.44996-7.2999 0.19251-1.3234-0.0963-2.1992-0.91674-3.0897-1.86-5.0591-5.3221-13.675-13.445-17.554-16.247-0.89025-0.64484-1.0611-0.40664-0.46678 0.45716 4.2102 6.0947 10.33 15.126 14.727 22.358 0.5847 0.96004 0.93358 1.3065 1.7998 1.511 3.9641 0.93357 12.928 3.1407 17.112 4.2441 0.0481 0.0168 0.0722 0.0241 0.12038 0.0482 0.76273 0.43309 2.767 1.9273 4.3204 3.2254 0.51732 0.36573 4.8298 1.0178 5.6022 0.83973 0.9841-0.21656 3.1662-1.3595 5.7297-3.3188 1.4942-1.1453 1.9514-0.60153 0.51732 0.7122-2.4191 2.2233-4.8298 3.7264-5.9843 3.9893-1.0948 0.25505-6.1286-0.48363-6.7058-0.96724-2.0548-1.7228-3.48-2.9708-4.0659-3.3188-4.1592-1.1044-13.012-3.1662-16.96-4.0914-1.2392-0.29595-2.0885-0.99373-2.7076-2.0043-4.3885-7.215-10.092-16.612-14.294-22.698-1.5207-2.2064-0.12038-3.1491 1.8503-1.7396 3.9131 2.8351 13.021 10.67 18.105 16.026 0.92635 0.97689 1.2728 1.3234 2.216 1.434 3.2593 0.38981 5.1777 0.35612 6.7056 0 3.8026-0.89025 9.1163 0.0241 11.171 3.4208 0.3489 0.56784 0.84936 0.63761 1.5953 0.3561 7.2999-2.7673 9.2862-3.6501 15.05-6.5786-3.6159 1.0443-5.5682 1.5279-9.0569 2.2497-4.0914 0.83973-6.0776 0.72185-7.4527 0-1.7324-0.91672-3.132-1.4677-4.3969-1.5712-1.8768-0.14429-3.1068-0.69538-4.3036-1.7565-4.1676-3.6838-6.9944-6.9178-9.9058-10.457-1.3763-1.6626-3.2509-2.4107-6.7056-3.7603-10.891-4.2526-25.524-9.0995-39.071-15.805-3.6585-1.807-6.2133-2.3604-8.938-2.8861-4.9826-0.95043-13.776-3.4037-19.837-5.4665-4.5156-1.5375-14.413-8.4373-21.297-17.486-7.3252-9.6425-9.0908-12.155-13.089-18.47-3.5651-5.6277-8.0213-10.364-13.097-15.432-3.9472-3.9557-7.5376-8.4289-10.042-11.485-2.92-3.5481-5.2287-5.9758-8.5477-9.0995-1.2728-1.2055-2.5719-1.1718-1.0948 1.0876 1.7565 2.6908 3.633 5.4241 6.9349 9.1418 5.0845 5.7126 23.054 30.414 29.93 45.115 2.504 5.356 4.9655 8.9212 7.9789 11.468 5.0589 4.2612 9.0229 10.076 12.376 15.627 1.3835 2.3003 2.8265 2.9711 6.3493 3.5822 21.925 3.8197 37.162 8.5817 46.507 14.269 3.7432 2.2738 5.5343 3.1236 7.3252 3.3188z" fill="#0d131a"/>
 <path d="m187.67 113.43c7.5206 1.9008 11.136 3.4802 14.557 6.2983 2.062 1.7059 3.0897 2.139 5.492 2.3508 2.4362 0.19249 3.6585 0.27911 5.5682 0.60152 0.47641-2.4275 1.6458-5.0078 2.3941-5.1183 1.0779-0.14429 2.7415 2.869 3.6159 5.0081 3.4547-0.19249 8.4118-1.1549 11.323-1.9177 2.8183-0.73868 4.9657-0.75553 6.7992-0.33926 1.0443 0.2406 2.6145 0.79882 3.4376 2.0043 0.52695 0.76515 0.69538 3.6669 0.67853 6.799 0 1.1549-0.19249 1.9441-1.2728 2.869-3.0728 2.6568-7.1216 6.7821-9.0568 8.9638-2.6145 2.9453-5.5259 5.3644-8.5562 6.9347l0.54378-1.9008c2.5974-1.4774 4.8469-3.2848 7.1387-5.8738 1.9442-2.1992 5.9503-6.4084 9.0569-9.0908 0.83253-0.72182 0.83973-1.0346 0.83973-1.9947 0-3.5651-0.26225-5.4496-0.48361-5.772-0.72185-0.96004-1.7661-1.5375-2.6653-1.807-1.807-0.54379-3.3784-0.43311-6.3069 0.33204-3.0387 0.80606-8.0636 1.6819-11.586 1.8335-0.54378-8e-3 -0.63761-0.0963-0.76274-0.45716-0.86619-2.3436-2.1896-4.2865-2.5293-4.2442-0.42347 0.0482-1.2656 2.2064-1.7565 4.3459-0.12038 0.48363-0.3128 0.56784-0.72905 0.50047-2.1126-0.3561-3.3868-0.47641-5.806-0.628-2.5974-0.14429-3.8792-0.72183-6.0776-2.538-2.767-2.2738-5.9756-3.8026-10.729-5.1524z" fill="#0d131a"/>
 <path d="m137.53 114.46c3.6838-0.61115 6.7395-0.77958 8.989-0.49324 2.2497 0.29594 7.9111 0.0963 7.9621-0.67852 0.12038-1.9008-18.912-11.824-27.943-12.851-6.451-0.72905-20.329-7.7583-22.689-8.811-1.0539-0.474-1.3402-0.34889-1.0274 1.1718 1.0274 4.9826 15.033 19.26 26.059 21.467 2.9369 0.58468 6.0098 0.63761 8.6495 0.19249" fill="#f9c270"/>
 <path d="m112.58 105.26c-3.9047 0.19249-8.0384 0.0241-11.969 0.58468-0.7459 0.12037-1.7396 0.64484-0.53416 1.6626 4.5921 3.8878 17.52 13.887 22.358 14.515 5.6363 0.7459 27.545-0.43311 27.791-1.1718 0.24541-0.72905-3.9557-5.2711-7.3254-7.0283-3.7093-0.0481-9.303 0.4668-16.263-0.73868-4.6515-0.80604-11.417-5.042-14.057-7.8261" fill="#ea5532"/>
 <path d="m112.44 116.81c-4.7874 0.5847-13.776 2.2906-13.53 2.9795 0.49324 1.3835 16.697 8.3016 24.166 8.8786 2.538 0.19248 18.258-0.76515 18.759-1.7565 0.28874-0.5847-1.7661-3.2764-4.4479-5.5682-5.8654 0.72905-12.308 1.3667-15.287 0.63763-2.3508-0.57748-6.3406-3.166-9.6596-5.1693" fill="#8f82bc"/>
 <path d="m114.13 126.52c-5.0844 1.7565-15.958 6.6548-15.907 7.5376 0.04815 0.87341 18.751 2.0115 21.102 1.7492 3.3953-0.38258 6.901-2.3941 10.585-3.6159 2.0957-0.70499 6.7653-3.2086 8.3694-3.6414l-1.6795-0.75552c-1.8671-0.0482-4.0574 0.0963-6.2049 0.48363-4.0488 0.72905-9.4558 0.79884-16.263-1.7565" fill="#02c4ed"/>
 <path d="m180.22 94.768c0.53416 0.59431 0.9841 0.34889 1.0274-0.53416 0.0963-2.1992-0.39941-4.4648-1.2223-5.5682-1.8599-2.4954-4.049-5.5937-5.2797-8.1572-1.9947-4.2016-3.4208-7.4696-4.6347-10.899-0.54378-1.511-1.6049-0.99373-1.0779 0.49326 1.5616 4.3967 3.8705 13.029 4.7364 16.705 0.44031 1.8599 0.46678 2.5719 1.5207 3.37 1.6554 1.2728 3.1744 2.6398 4.9316 4.5921" fill="#00a0da"/>
 <path d="m197.61 86.072c0.14429 1.5712 0.72183 2.3941 1.4172 3.1239 0.87342 0.93357 1.8166 1.9947 2.9795 3.4208 0.63762 0.78198 1.2223 0.44031 1.5616-0.33926 0.72905-1.6626 1.1212-3.1239 1.1718-4.7875 0.0481-1.6626-0.19249-2.5464-1.7059-4.4987-1.588-2.0452-3.1831-4.5668-4.3967-6.8331-0.96004-1.7901-3.7605-9.3964-4.7364-10.899-1.1285-1.7059-2.2064-0.67852-1.5712 0.83252 0.93357 2.1992 2.2666 5.772 2.9879 8.31 1.2151 4.2952 1.9008 7.2744 2.293 11.671" fill="#7b59a3"/>
 <path d="m217.74 91.934c-0.12037 1.1285 0.29595 1.9105 1.3667 1.3162 1.5183-0.82289 3.6583-2.436 4.9826-4.1505 0.83251-1.0683 0.83251-1.9273 0-3.7095-1.7565-3.7603-3.769-9.7785-3.4208-13.921 0.34889-4.0574 0.62078-9.5833 0.3898-13.293-0.14429-2.3941-1.7059-1.7565-1.8094 0.68815-0.24062 6.2049-1.5616 12.894-2.6821 18.122-0.44032 2.0548-0.67131 3.268 0.19248 4.9316 1.3667 2.6398 1.4677 4.8892 0.97689 10.016" fill="#e60012"/>
 <path d="m246.95 90.713c0.0241 1.6121 1.4774 1.7733 3.0303 0.72907 4.8808-3.268 6.5276-7.7751 6.8839-12.792 0.34889-4.8384 1.3667-10.118 3.2256-14.124 1.8599-4.0067 4.4648-9.906 4.9316-13.182 0.1925-1.3739-0.43309-1.4846-1.3161-0.04815-4.8382 7.8177-6.799 11.196-12.656 22.375-3.7603 7.1726-4.2016 10.059-4.0998 17.044" fill="#f3994f"/>
 <path d="m213.65 115.91c0.48363 0.19249 6.3153-4.7533 6.2559-5.2795-0.0722-0.5173-4.9573 0.14429-5.2798 0.59431-0.32242 0.44994-1.434 4.4903-0.97689 4.6854" fill="#fffabc"/>
 <path d="m224.47 105.55c-0.16843-0.33204-2.9964 0.45957-3.0642 0.78198-0.0481 0.32243 1.434 0.65447 1.8238 0.52695 0.38978-0.14429 1.434-0.91674 1.2391-1.3065" fill="#fffabc"/>
 <path d="m206.1 116.82c0.54377 0.14429 4.8637-4.6515 4.626-5.7294-0.14429-0.58468-4.626 0.38979-4.8892 0.71221-0.25505 0.33204-0.25505 4.8892 0.26227 5.0165" fill="#fadadd"/>
 <path d="m210.59 105.22c-0.93358-0.19249-2.8096 1.5544-2.7334 2.0211 0.0481 0.38979 2.8012-0.12037 2.9966-0.3898 0.1925-0.26226 0.0481-1.5616-0.26226-1.6289" fill="#fadadd"/>
 <path d="m198.8 106.85c-0.25505 0.0481-1.0442 2.4785-0.84936 2.6739 0.19249 0.19249 1.6987-0.72184 1.6987-1.2391 0-0.52695-0.58469-1.5014-0.84936-1.4341" fill="#ddc3dd"/>
 <path d="m188.45 108.74c-0.29595 0.29594-0.38979 2.9963 0.0722 2.9963 0.44994 0 1.9514-1.5616 1.6891-1.8936-0.25505-0.32241-1.5616-1.2993-1.7565-1.1044" fill="#afbee2"/>
 <path d="m117.42 100.54c0 1.0515 7.0028 6.502 10.322 7.4782 3.3274 0.97689 12.902 0.58468 13.293-0.19249 0.38979-0.78198-8.4034-3.7093-11.34-4.6854-2.9285-0.9841-12.274-3.3784-12.274-2.5974" fill="#fad59c"/>
 <path d="m113.94 109.6c-0.24062 0.6713 6.7395 5.8825 10.457 6.7653 3.9302 0.93357 14.04-0.59431 14.914-2.3339-2.9369 0.0963-9.9312-0.33204-12.121-0.61837-0.91674-0.12037-9.9654-4.4648-9.9654-4.4648-1.4942-0.12037-3.1405 0.21656-3.2848 0.65447" fill="#f48a6d"/>
 <path d="m116.08 119.62c-0.90711 0.0722-4.4819 0.69538-4.4819 1.1549 0 0.44994 6.3069 3.2767 10.279 3.9896 3.9725 0.72184 11.459-1.4942 11.985-2.6058-1.5616 0.0722-9.0571 0.33204-11.205-0.0482-2.1463-0.39942-6.5783-2.4785-6.5783-2.4785" fill="#b1a7d5"/>
 <path d="m116.44 127.56c-1.665 0.53415-5.3731 2.2906-5.2797 2.7841 0.0963 0.49327 5.7042 1.1622 8.4373 1.0611 2.7418-0.0963 6.9349-2.0452 7.5292-2.538-2.9369-0.0963-6.7482-0.38979-7.9197-0.68816-1.1718-0.28872-2.767-0.61837-2.767-0.61837" fill="#76e0ff"/>
 <path d="m179.88 92.178c0.19248 0.16843-0.0241-1.2391-0.42348-1.6795-0.58468-0.64484-2.4107-2.3099-2.8606-3.1575-0.45956-0.83973-2.4104-5.5682-2.6058-5.5682-0.1925 0 1.4268 5.0165 1.9514 6.0605 0.51731 1.0443 2.8351 3.3698 3.9386 4.3459" fill="#00b9e4"/>
 <path d="m202.84 89.931c0.30557 0.04815 0.71221-1.9778 0.49324-2.2906-0.49324-0.68814-2.0548-2.4954-3.1746-4.4477-0.51732-0.89027-2.1054-5.4241-2.3508-5.4241s1.1285 4.8384 1.5616 5.9587c0.44031 1.1212 2.7841 6.1031 3.4718 6.2049" fill="#9478b5"/>
 <path d="m220.69 90.11c0.24542 0.21654 1.9345-1.6963 1.9345-2.0885 0-0.3898-1.6722-5.1438-2.0019-6.2472-0.32241-1.1116-1.2319-8.1401-1.5616-8.1401-0.32242 0-0.1925 6.2812 0.0481 8.1401 0.12038 0.83973 1.1212 7.945 1.5784 8.3355" fill="#ea5532"/>
 <path d="m250.32 87.831c0.51732 0.44031 3.1236-1.9514 3.1236-3.3188 0-1.3667 0.38978-6.0608 0.78198-8.0129 0.38979-1.9514 2.0548-6.9349 1.7661-7.1303-0.29596-0.19249-3.6159 7.3254-4.2016 9.1844-0.58468 1.8503-2.1559 8.6919-1.4677 9.2775" fill="#f7ba83"/>
 <path d="m115.08 126.78c-5.1354 1.7829-16.263 6.4258-16.221 7.0793 0.02407 0.32241 18.471 1.6386 20.754 1.3161 3.1491-0.44031 16.697-6.3067 17.681-7.0283l1.4437 0.65445c-0.3898 0.92396-15.822 7.2999-19.056 7.7244-2.6143 0.33926-22.12-1.179-22.188-2.3772-0.07222-1.357 11.595-6.3238 16.153-8.0554z" fill="#0091af"/>
 <path d="m137.35 127.38c2.3676 1.0948 4.5071 2.4013 6.3832 3.8878l-0.87342 1.1116c-2.3508-1.8672-5.0504-3.3784-8.1146-4.5497-0.49326-0.19248 2.3845-0.55099 2.6058-0.44994" fill="#0d131a"/>
 <path d="m113.18 117.48c-4.991 0.35612-13.539 2.0957-13.547 2.3604-0.01711 0.49324 16.671 7.6904 23.444 8.1488 2.3171 0.14429 17.545-0.97688 17.961-1.4677 0.2406-0.26227-1.9345-2.8181-4.4395-4.9826l1.5616-0.24062c2.062 1.7998 5.042 4.8466 4.448 5.9672-0.8662 1.6121-16.875 2.2738-19.659 2.1126-6.1541-0.3561-25.007-8.0128-25.015-9.6257 0-1.3162 9.3372-2.7502 13.912-3.2935z" fill="#6b6091"/>
 <path d="m113.56 105.92c-4.6854-0.14429-10.356 0.0481-12.97 0.29594-0.474 0.0482-0.77237 0.37295-0.2406 0.83975 5.1522 4.4648 17.588 13.658 22.146 14.252 5.5853 0.73868 26.67-0.51732 26.806-0.86621 0.14429-0.37294-3.2935-4.1169-7.5206-6.3577l2.0789-0.29837c3.4208 2.0885 7.7496 6.0266 7.1469 7.3594-0.68816 1.5183-23.266 2.4191-28.707 1.5953-4.9487-0.7459-17.248-9.9568-22.604-14.855-1.3931-1.2728-1.4172-2.3676 0.12037-2.5632 2.8945-0.38258 8.2676-0.57748 12.605-0.34889z" fill="#b74023"/>
 <path d="m103.35 92.703c1.0106 4.8892 11.519 15.729 21.891 19.566 4.7535 1.7565 28.13 0.99373 28.164 0.57746 0.0963-1.1549-17.24-10.763-26.865-11.858-6.2559-0.7122-18.224-7.0624-22.774-8.8449-0.40662-0.16843-0.56062-0.14429-0.41625 0.56062m21.628 20.864c-10.891-3.6246-21.654-15.185-22.664-20.644-0.38979-2.0789 0.30557-2.3171 1.7829-1.7565 4.2186 1.588 16.34 7.8264 22.511 8.5477 10.483 1.2391 29.081 11.238 28.733 13.615-0.21654 1.5014-25.982 1.6987-30.362 0.24062" fill="#c39856"/>
 <path d="m174.21 86.7c0.36573 1.3162 0.67853 2.6145 1.4677 3.2001 1.985 1.4605 2.818 2.0284 4.4819 3.9386 0.24542 0.27911 0.59431 0.33926 0.62078-0.24062 0.0963-2.0885-0.39942-3.6246-1.1622-4.6431-2.0284-2.7163-3.8876-5.4665-5.178-8.1827-2.1655-4.5326-3.2338-7.2066-4.575-10.95-0.41625-1.1886-0.92635-1.1453-0.53415 0.12037 1.41 4.5921 3.2341 10.873 4.8808 16.747m-1.1453 0.25505c-0.83973-3.633-2.9877-11.552-4.5666-16.713-0.782-2.5635 1.2223-3.2256 2.139-0.82289 1.4942 3.9386 2.4362 6.451 4.6515 10.924 1.5952 3.2256 3.6669 5.5769 5.3137 7.7838 1.2223 1.6458 1.5616 3.8368 1.333 5.8315-0.2719 2.3436-1.0178 2.4701-2.3436 0.96004-1.588-1.807-2.5464-2.6398-4.5752-4.0829-1.0611-0.75553-1.6289-2.504-1.9514-3.8792" fill="#007baa"/>
 <path d="m192.83 65.947c0.95041 2.2401 2.1559 5.857 2.8775 8.3781 1.4437 5.0079 1.9273 7.1556 2.3267 11.612 0.0963 1.2151 0.61837 2.0284 1.3931 2.8688 1.0178 1.1213 1.7156 1.8599 2.7841 3.1746 0.35612 0.44031 0.72905 0.32243 0.9769-0.24062 0.74588-1.7059 0.98409-2.7415 1.0274-4.2781 0.0482-1.5544-0.0481-2.3171-1.511-4.1931-1.5375-1.9947-3.1323-4.0743-4.4732-6.8671-1.3402-2.8096-3.8113-9.3795-4.762-10.873-0.77237-1.2055-1.1453-0.7892-0.63763 0.41627m8.6495 27.052c-1.256-1.5447-1.8262-2.1294-2.9201-3.3019-1.1958-1.2728-1.4846-1.8335-1.6386-3.582-0.38979-4.3885-0.81567-6.6803-2.1896-11.57-0.97689-3.4971-1.6554-5.3221-2.8775-8.2335-1.0948-2.5974 0.83251-3.8962 2.5125-1.2897 0.95043 1.4605 3.8113 8.9719 4.7874 10.89 1.2055 2.3772 2.9285 4.7533 4.4393 6.7143 1.588 2.0548 1.9008 3.1746 1.8503 4.9145-0.0481 1.8503-0.49326 3.37-1.4004 5.1525-0.7892 1.5544-1.6121 1.4774-2.5635 0.30557" fill="#5c4881"/>
 <path d="m219.7 58.881c-0.24061 6.0608-1.511 12.724-2.7163 18.326-0.2719 1.2656-0.37295 2.1655-0.24062 3.0134 0.0963 0.54379 2.2233 6.434 1.6554 11.391-0.12037 1.1044 0.28872 1.2656 0.79882 0.9841 1.4942-0.82289 3.166-2.1824 4.4477-3.8365 0.64484-0.83975 0.72905-1.3931-0.0963-3.1746-1.8166-3.8876-3.7519-9.8973-3.3953-14.116 0.37295-4.3885 0.66169-9.9652 0.46679-13.259-0.0963-1.6458-0.83973-1.4268-0.92394 0.67132m-2.6229 33.053c0.62078-5.0336-1.4172-10.975-1.4942-11.604-0.14445-1.1044 0.0481-2.1896 0.32242-3.4463 1.1886-5.5598 2.6737-12.045 2.9114-18.037 0.12038-2.9114 2.4956-3.8366 2.6908-0.69538 0.19248 3.0642 0.0241 9.7869-0.24061 13.36-0.33205 4.3969 1.4677 9.4645 3.3866 13.547 1.1453 2.4614 1.1285 2.9793-0.0722 4.5326-1.357 1.7492-3.3274 3.2001-5.305 4.261-1.8936 1.0106-2.4872 0.29594-2.216-1.9177" fill="#b50000"/>
 <path d="m264.08 51.525c-4.8469 7.8348-6.6972 11.34-12.495 22.4-3.684 7.0369-4.0319 9.4984-3.9386 16.578 0.0171 1.0876 0.628 1.2656 1.9273 0.38979 4.1679-2.7841 6.2727-6.5699 6.6719-12.283 0.38979-5.5004 1.5351-10.602 3.3527-14.26 2.3772-4.7872 4.6686-10.882 4.9826-13.072 0.0722-0.45957 0.0171-0.58468-0.50046 0.24542m-17.859 39.224c-0.28874-7.0198 0.41625-10.22 4.1594-17.375 5.806-11.086 7.9958-14.574 12.859-22.435 1.333-2.1655 2.5974-1.6121 2.2906 0.47641-0.474 3.3529-3.0471 9.2778-4.9571 13.395-1.6722 3.6075-2.6058 8.5051-2.9963 13.904-0.47402 6.6038-2.4013 10.636-7.3762 13.386-2.504 1.3763-3.8876 0.87342-3.9812-1.3498" fill="#bd753a"/>
</svg>
