<?xml version="1.0" encoding="UTF-8"?>
<!-- Created with Inkscape (http://www.inkscape.org/) -->
<svg version="1.1" viewBox="0 0 289.94 326.15" xmlns="http://www.w3.org/2000/svg" xmlns:cc="http://creativecommons.org/ns#" xmlns:dc="http://purl.org/dc/elements/1.1/" xmlns:rdf="http://www.w3.org/1999/02/22-rdf-syntax-ns#">
 <metadata>
  <rdf:RDF>
   <cc:Work rdf:about="">
    <dc:format>image/svg+xml</dc:format>
    <dc:type rdf:resource="http://purl.org/dc/dcmitype/StillImage"/>
   </cc:Work>
  </rdf:RDF>
 </metadata>
 <g stroke-width="18.918">
  <path d="m233.86 272.42c27.204-13.602 53.349-55.316 53.349-107.06 0-42.793-11.691-79.91-31.177-107.25-25.501-35.812-69.126-56.338-99.83-56.338-106.04 0-153.12 95.082-153.12 162.09 0 85.547 55.316 117.03 62.146 114.53 3.9728-1.4188 10.859-28.339 7.6429-40.409 3.4809 3.7269 10.31 7.7375 13.489 6.7159 3.1972-1.0026 9.4968-11.956 10.651-16.042-2.989-3.3674-7.624-11.389-7.3213-13.053 2.5161-15.229 19.221-31.026 40.012-31.026 16.44 0 28.32 5.8078 34.506 18.256 10.954-15.21 20.507-21.623 34.147-21.623 27.904 0 39.993 31.707 39.993 33.542 0 1.3999-6.5835 11.389-14.605 16.591 1.3999 3.0647 4.9187 8.5509 8.0212 8.9861 3.1026 0.39727 13.98-9.1942 17.442-16.383-0.18918 6.6781-1.154 18.502-4.1241 26.504-2.9323 7.9834-11.218 21.964-11.218 21.964" fill="#fbd8b5"/>
  <path d="m249.19 223.99c0 44.836-32.671 72.986-71.094 72.986-8.8726 0-20.81-3.9349-27.904-9.1563-9.8563 5.8268-21.283 10.84-38.385 10.84-21.68 0-39.52-11.597-46.595-20.223 2.5728-2.2702 6.0916-11.105 7.2078-19.523s0.92698-15.664 0.45403-20.885c3.1782 3.3296 9.7428 7.4915 13.489 6.7159 3.7647-0.73781 8.078-8.759 10.632-16.042 3.7647 4.6349 16.402 15.759 30.344 15.759 17.405 0 31.801-8.7023 37.06-19.391 6.4132 7.2834 18.804 15.134 29.55 15.134 12.562 0 23.572-3.4431 29.777-8.8158 1.5513 3.2161 5.6186 8.9482 8.0212 8.986 8.0023 0.13242 17.442-16.383 17.442-16.383" fill="#fff"/>
  <path d="m151.57 274.69c-8.1537 0-19.675 4.4836-42.13 4.4836-16.837 0-28.358-3.6512-38.29-13.867-1.608 6.1105-4.0484 11.483-5.9402 13.205 7.0753 8.6266 24.896 20.223 46.576 20.223 17.102 0 28.528-5.0133 38.385-10.859 7.0942 5.2403 19.05 9.1752 27.904 9.1752 27.261 0 51.627-14.17 63.489-38.404-15.929 13.659-39.236 21.094-55.43 21.094-18.54 0-26.428-5.0511-34.563-5.0511" fill="#dcdddd"/>
  <path d="m129.82 184.64c-19.315 0-35.206 12.562-40.012 31.007 3.5755 14.983 23.042 28.642 38.612 28.642 15.91 0 28.245-7.7942 33.693-16.194 1.9864-2.9323 2.7809-3.1026 5.9781 0.24593 5.8268 5.8646 16.667 11.597 27.715 11.597 20.072 0 35.282-10.954 42.66-25.123-6.0727-20.072-22.739-33.409-39.293-33.409-12.297 0-25.615 6.5267-34.847 22.323-7.8699-14.037-16.667-19.088-34.506-19.088" fill="#00ab84"/>
  <path d="m198.3 235.15c-12.41 0-24.347-5.2781-29.569-10.481-3.3674-3.3863-6.2808-3.0458-8.4185-0.18918-5.543 7.3969-16.042 14.605-32.369 14.605-13.224 0-27.715-12.032-37.798-21.831 4.5025 14.378 23.137 27.147 38.177 27.147 15.91 0 28.245-7.7942 33.693-16.175 1.9864-2.9512 2.7809-3.1026 5.9781 0.22702 5.8268 5.8835 16.667 11.616 27.715 11.616 20.072 0 35.282-10.972 42.66-25.142l-0.24593-0.7378c-9.8941 11.067-26.485 20.961-39.822 20.961" fill="#009573"/>
  <path d="m120.55 31.593c-35.377 0-65.286 34.658-65.286 72.248 0 31.177 23.458 69.826 64.756 69.826 15.399 0 30.628-6.7726 39.841-14.491 2.9323-2.4783 4.7863-2.9134 8.5131 0.17026 8.0969 6.5646 23.61 12.07 35.225 12.07 30.553 0 58.627-26.126 58.627-65.645 0-34.96-28.453-72.021-63.3-72.021-11.805 0-25.18 3.8593-33.901 10.745-2.4026 1.8729-3.8214 1.7594-6.2051 0.28377-1.6648-1.0783-17.745-13.186-38.271-13.186" fill="#fff"/>
  <path d="m107.87 71.888c9.9698 0 17.026 13.394 17.026 32.293 0 12.921-7.1321 26.523-16.137 26.523-9.7806 0-17.707-13.886-17.707-28.358 0-21.491 9.7617-30.458 16.818-30.458" fill="#3e3a39"/>
  <path d="m108.82 89.104c2.3648 0 4.3322 5.1268 4.3322 11.294 0 6.0727-2.308 10.027-4.4836 10.027-2.3269 0-4.0674-4.2566-4.0674-9.686 0-5.8267 1.7783-11.635 4.2187-11.635" fill="#fff"/>
  <path d="m211.54 73.023c9.4212 0 15.305 12.391 15.305 26.75 0 15.797-5.8078 26.258-14.151 26.258-7.7753 0-15.532-8.5888-15.532-26.05 0-17.367 7.5104-26.958 14.378-26.958" fill="#3e3a39"/>
  <path d="m212.49 88.725c2.1377 0 4.5214 3.916 4.5214 10.802 0 6.1862-1.7972 10.462-4.3322 10.462-2.6296 0-4.8808-4.9376-4.8808-10.462 0-6.7348 2.8944-10.802 4.6917-10.802" fill="#fff"/>
  <path d="m100.87 307.04c0 7.832 6.0159 17.688 12.637 17.688 8.8158 0 13.394-8.5509 13.394-16.932 0-2.8377-0.52971-7.3591-2.535-10.102-6.6402 0.77564-15.21 1.7594-23.08 0.0757-7.851-1.6648-17.121-4.6349-21.453-7.151-2.2323 4.5025-4.3511 9.5347-4.5025 14.321-0.24593 8.0212 2.762 15.891 9.5347 18.388 4.2187 1.5513 8.2672-1.1729 10.235-3.5188 4.6349-5.316 5.77-12.77 5.77-12.77" fill="#d28444"/>
  <path d="m211.16 289.45c7.7942 2.9323 12.164 10.481 11.426 19.921-0.28377 3.6512-6.2808 9.6482-8.6266 9.6482-2.3648 0-8.9671-4.5971-11.048-6.9051-1.0594 4.0674-2.2891 8.8347-5.5997 8.9671-3.3106 0.15134-7.2267 0.56754-11.313-4.0674-4.1052-4.616-19.126-21.604-19.126-21.604 6.3186 1.9296 16.856 2.3648 25.445 0.39728 8.5509-1.9675 18.842-6.3564 18.842-6.3564" fill="#d28444"/>
 </g>
 <g fill="#d9bb9e" stroke-width="18.918">
  <path d="m64.359 223.8c3.1404 7.3024 16.269 15.853 19.788 14.756 3.0836-0.98374 7.5672-5.4484 10.67-11.672l2.2512 2.535c-1.4188 4.7862-6.6024 14.075-10.121 15.437-3.4998 1.4378-11.786-3.3485-15.437-7.851-3.6322-4.4836-7.151-13.205-7.151-13.205"/>
  <path d="m68.332 232.69c-0.15134 4.0863-6.7916 21.85-14.188 24.593-7.9834 2.9701-21.056-0.98374-27.677-9.1563 10.859 17.386 32.558 33.352 38.725 30.382 2.1377-1.0027 6.3564-12.108 7.4726-20.81 1.1351-8.6834 0.98374-18.956 0.98374-18.956-2.6485-2.3837-5.316-6.0538-5.316-6.0538"/>
  <path d="m227.81 229.48c1.2486 1.9864 2.7999 4.3701 4.9187 4.7862 2.0999 0.4162 13.47-5.4862 15.853-9.8374-2.8188 5.7511-11.502 16.44-16.705 16.042-5.2214-0.45403-8.0212-9.005-8.0212-9.005z"/>
  <path d="m247.11 243.66c6.3754 4.0863 14.983 0.35944 22.304-8.986-8.3996 17.934-24.026 31.839-35.225 36.871 5.07-8.2482 8.0591-13.867 9.9509-18.918 1.835-5.0511 2.9701-8.9671 2.9701-8.9671"/>
 </g>
 <g fill="#0d131a" stroke-width="18.918">
  <path d="m156.3 0c-106.64 0-156.3 93.171-156.3 164.02 0 85.68 56.168 119.88 66.005 116.33 5.4673-2.0053 11.181-28.112 9.2698-40.674l-4.2566-2.2702c3.0836 11.597-3.235 38.025-5.7889 38.782-2.8188 0.81348-16.08-12.807-20.885-25.785-3.6512-9.913-6.0348-8.986-2.3269 1.0405 2.9134 7.8888 7.7186 15.683 12.675 21.245-1.5891-1.0027-3.3296-2.1377-5.2024-3.5755-41.203-31.12-44.363-88.347-44.363-105.09 0-66.516 46.86-160.2 151.17-160.2 57.17 0 129.12 54.219 129.12 161.69 0 50.511-24.839 90.05-50.114 104.18l-2.9512 5.5051c28.812-14.416 57.586-54.862 57.586-109.69 0-103.61-66.572-165.51-133.64-165.51"/>
  <path d="m57.17 203.75c-0.88915-7.5104 1.6648-7.7375 2.5161-0.28377 3.0836 25.047 17.764 40.409 26.447 39.349 1.7783-0.45403 7.5483-8.8915 9.4401-15.286l2.989 3.0836c-2.4026 6.2429-7.9456 15.494-11.937 16.005-9.2887 1.1729-25.615-11.635-29.455-42.868"/>
  <path d="m111.84 300.99c-17.745 0-39.501-9.686-48.733-21.358l4.0106-1.5324c8.0591 10.159 28.547 18.729 44.722 18.729 14.737 0 29.077-4.7673 36.587-9.8752 7.5672-5.1835 9.232-2.6674 1.7783 2.6107-10.159 7.2078-23.875 11.426-38.366 11.426"/>
  <path d="m178.06 299.09c-9.4401 0-21.264-3.9539-28.945-9.6293l2.1566-2.2891c6.9997 4.4836 18.729 7.9834 26.882 7.9834 33.693 0 67.84-23.458 69.164-68.37l4.3701-5.316c0 43.606-28.604 77.621-73.629 77.621"/>
  <path d="m231.78 242.91c-3.0269 0-6.0916-4.0106-9.6103-10.556l3.3674-1.7783c1.6837 3.2161 4.9187 7.9645 6.47 7.9645 5.2403 0 20.658-16.686 21.983-33.106 0.58646-7.9834 3.3296-7.8888 2.7242 0.13243-1.3621 17.726-16.44 37.344-24.934 37.344"/>
  <path d="m91.601 215.67c3.5755 13.564 21.623 26.731 36.663 26.731 14.359 0 26.258-6.8672 31.725-14.68 3.5188-5.089 5.0133-5.2214 9.0996-0.96482 5.2781 5.524 15.702 11.294 26.561 11.294 17.518 0 32.634-8.7212 40.617-23.439-5.8457-18.18-21.396-31.29-37.25-31.29-12.202 0-23.496 6.7159-31.366 18.521-2.6485 3.9539-3.9917 4.4268-6.9051-0.13242-7.151-11.256-15.437-15.153-31.082-15.153-18.048 0-33.296 11.672-38.063 29.115m36.663 30.798c-17.083 0-36.739-14.888-40.466-30.344l0.0378-0.9459c5.0511-19.391 21.831-32.842 41.828-32.842 17.215 0 26.599 4.9754 34.544 17.707 8.6455-13.091 21.15-20.867 34.809-20.867 17.991 0 34.866 14.605 41.166 35.074l-0.15134 1.4567c-8.5699 16.383-25.161 26.428-44.382 26.428-13.262 0-25.615-7.8888-31.026-14.718-5.2214 9.6482-18.672 19.05-36.36 19.05"/>
  <path d="m154.98 216.61c-3.7647-1.0026-15.513-2.0053-22.985-1.835-7.605 0.2081-7.5294-2.6674 0.30269-2.7999 6.7159-0.11351 19.164-0.24593 23.704 0.96482 4.5971 1.2675 2.7242 4.7295-1.0216 3.6701"/>
  <path d="m171.62 213.21c3.4431-0.66213 11.786-1.2297 18.105-0.58646 5.7322 0.54862 5.6186 3.2539-0.0946 2.9323-5.5997-0.34052-14.113 0.77564-17.291 1.3999-4.0863 0.8324-5.7511-2.7999-0.71888-3.7458"/>
  <path d="m120.55 33.485c-33.788 0-63.394 32.861-63.394 70.337 0 28.491 21.888 67.897 62.865 67.897 16.061 0 30.855-7.5672 38.649-14.056 1.4756-1.2675 3.1782-2.4215 5.2403-2.4215 1.7026 0 3.5187 0.81347 5.6943 2.5918 7.9077 6.4132 23.118 11.635 33.996 11.635 35.509 0 56.716-32.388 56.716-63.735 0-32.425-26.826-70.11-61.389-70.11-11.918 0-24.783 4.0674-32.766 10.329l-4.3133 1.8161-4.0295-1.3999-0.69997-0.45403c-15.059-10.291-28.188-12.429-36.568-12.429m-0.5297 142.07c-44.646 0-67.291-40.352-67.291-71.113 0-41.109 31.347-74.802 67.821-74.802 8.9293 0 22.872 2.2702 38.706 13.072l0.56754 0.39728 2.0242 0.83239 1.9864-0.98374c8.759-6.8672 22.172-11.162 35.093-11.162 40.201 0 65.74 42.149 65.74 74.48 0 41.128-27.904 67.045-61.067 67.045-11.786 0-27.791-5.5241-36.436-12.543l-3.2539-1.7215-2.7999 1.5513c-8.2672 6.8672-23.988 14.945-41.09 14.945"/>
  <path d="m107.87 73.78c-5.7511 0-14.87 7.7564-14.87 28.547 0 13.867 7.4726 26.447 15.759 26.447 7.3213 0 14.226-11.975 14.226-24.631 0-17.594-6.3754-30.363-15.115-30.363m0.88915 58.835c-10.424 0-19.883-14.151-19.883-30.288 0-23.742 11.464-32.35 18.994-32.35 11.143 0 19.353 14.056 19.353 34.166 0 13.47-7.8131 28.472-18.464 28.472"/>
  <path d="m211.54 74.915c-5.9781 0-12.486 9.5725-12.486 25.047 0 16.572 7.0375 24.139 13.64 24.139 7.151 0 12.259-10.008 12.259-24.347 0-14.151-5.77-24.839-13.413-24.839m1.154 53.008c-8.3996 0-17.783-8.759-17.783-27.961 0-18.748 8.759-28.85 16.629-28.85 9.9509 0 17.423 11.786 17.423 28.415 0 16.837-6.697 28.396-16.269 28.396"/>
  <path d="m86.493 325.2c-6.4321 0-13.337-7.9077-13.337-18.842 0-6.3186 3.2161-13.489 5.4673-16.478l2.9512 2.4026c-1.6648 2.2323-4.3133 8.6077-4.3133 14.075 0 9.2131 4.7673 15.399 9.232 15.399 6.6213 0 12.183-6.9997 12.845-16.345 0.32161-5.0889 3.2728-4.9187 2.8566 0.28377-0.81347 11.464-6.9429 19.504-15.702 19.504"/>
  <path d="m113.55 326.15c-6.6213 0-12.41-7.2834-14.056-15.002l2.0053-3.4052c1.2486 6.6213 6.7159 15.002 12.051 15.002 5.1835 0 11.483-7.4726 11.483-15.002 0-2.762-0.58646-6.7726-2.1756-8.986l3.7079-1.2864c2.0999 3.6701 2.4026 8.8725 2.4026 10.443 0 9.7995-8.5509 18.237-15.418 18.237"/>
  <path d="m183.73 317.25c-2.7431-3.2161-16.042-18.161-18.388-20.696l5.6186 0.56754c4.843 5.524 13.583 15.532 15.494 17.745 2.2323 2.6674 7.4348 5.1835 10.027 4.2187 2.4026-0.87023 4.7295-7.2456 4.6538-9.0617-0.22702-4.8052-2.7053-11.162-6.5456-13.394l3.916-1.854c4.389 3.9349 6.697 10.764 6.9051 14.983 0.11351 2.3837-2.8188 10.972-7.6429 12.751-4.1052 1.4945-10.594-1.1918-14.037-5.2592"/>
  <path d="m213.81 320.47c-2.9323 0-8.7401-3.7079-11.483-6.224l1.8729-3.5188c2.1188 2.4215 8.2293 6.224 9.6103 6.2808 1.4378-0.2081 6.5078-5.1457 6.7159-7.8888 0.62429-8.6266-3.1593-15.38-10.197-18.01l3.8214-2.4404c6.9997 3.8025 11.199 11.521 10.481 20.734-0.30269 4.2755-7.2456 11.067-10.821 11.067"/>
 </g>
 <g stroke-width="18.918">
  <path d="m140.6 126.94c2.9701 3.8971 17.915 15.418 25.539 14.945 7.5861-0.47295 14.151-5.8835 16.78-8.0969-0.79456 7.4915-12.751 19.145-20.999 17.915-8.2482-1.2486-18.842-13.848-21.321-24.764" fill="#f3994f"/>
  <path d="m164.25 114.64c4.1052 0.35945 16.478 10.064 16.156 20.621 2.5918-1.3621 5.7511-7.9266 6.4132-10.726-2.4782-3.7836-10.045-11.862-22.569-9.8941" fill="#933000"/>
  <path d="m164.25 114.64c4.4646 0.68105 16.648 8.078 16.156 20.621-3.2917 5.8835-11.389 7.0375-15.456 6.8862-4.143-0.17026-21.226-10.594-24.272-15.115 3.3674-4.6349 18.483-12.864 23.572-12.391" fill="#cf7487"/>
  <path d="m180.33 132.99c-13.602-7.9077-24.366-4.162-31.744 0.75672 6.1105 4.1809 13.791 8.2861 16.364 8.3996 4.0674 0.17026 12.164-0.98373 15.456-6.8672z" fill="#ee869a"/>
 </g>
 <g fill="#0d131a" stroke-width="18.918">
  <path d="m139.84 125.24c9.7995-8.8725 19.013-13.243 29.285-13.243 7.151 0 15.324 6.9808 18.804 11.843l-2.6674 2.0432c-3.3674-4.7484-11.01-10.064-16.137-10.064-9.4022 0-18.086 3.8971-27.242 12.24z"/>
  <path d="m165.76 143.4c-8.2861 0-22.361-10.84-25.993-15.948l2.6674-1.7405c3.0836 4.3322 16.629 13.886 23.326 13.886 6.6591 0 15.551-5.6943 18.804-15.191l3.2917 1.2486c-3.9349 11.559-14.17 17.745-22.096 17.745"/>
  <path d="m178.25 135.07c0-6.7537-7.7942-18.975-15.683-18.975l2.6107-2.4215c8.7212 1.9107 15.872 11.956 16.799 19.769z"/>
  <path d="m167.46 113.7c0.2081-1.3999 0.30269-5.997 0.56754-9.005 0.69997-7.3591 2.989-7.0753 3.1782 0.28377 0.15135 3.9539 0.22702 7.6618 0.0378 9.2131z"/>
  <path d="m162.35 58.646c-10.954 0-22.796 19.713-22.796 51.57 0 18.218 12.713 39.028 23.837 39.028 12.335 0 23.893-21.964 23.893-38.99 0-31.044-15.002-51.608-24.934-51.608m1.0405 93.928c-12.732 0-27.98-19.807-27.98-42.357 0-36.871 14.416-55.032 26.939-55.032 13.299 0 29.134 23.856 29.134 55.07 0 19.902-13.829 42.32-28.093 42.32"/>
 </g>
</svg>
