<?xml version="1.0" encoding="UTF-8"?>
<!-- Created with Inkscape (http://www.inkscape.org/) -->
<svg version="1.1" viewBox="0 0 586.05 710.15" xml:space="preserve" xmlns="http://www.w3.org/2000/svg"><g stroke-width="1.3333"><path d="m310.17 547.25c2.6079 25.363 6.9212 57.712 11.446 85.619 3.8399-33.298 7.4798-65.21 10.078-88.67-6.7038 2.1506-13.849 3.2012-21.525 3.0506m52.312 140.1c-5.5359 1.12-15.205 1.728-22.525 0.8107-4.2092 6.0585-12.385 11.036-24.757 13.401-28.655 5.4799-40.916-7.1838-45.064-20.571-30.41 11.574-49.551-1.7613-54.537-30.706-10.297-25.987-17.014-53.432-19.377-79.811-4.4092 7.3612-8.3158 13.577-10.914 19.069-3.3252-12.862-6.2118-30.931-5.1985-45.091-12.724 7.5158-28.202 15.993-42.72 22.954-6.5598 25.467-6.1145 67.574 3.1172 94.628 23.389 19.693 16.22 42.752-11.732 45.582-35.755 3.6199-49.223-20.092-44.242-37.203-9.7198-30.499-15.198-71.518-16.424-137.76-0.96264-51.961 2.6533-96.338 26.671-135.86 19.153-31.517 66.582-41.546 105.83-20.943l191.92 156.21c-7.3772 34.73-17.126 83.89-22.779 116.17 19.094 5.1225 22.123 33.183-7.2625 39.123" fill="#3e4e57"/><path d="m502.35 483.47c34.015-36.634 55.657-94.04 62.792-171.93 8.6678-59.04 1.02-145.22-12.8-149.02-14.805-4.0732-73.899 39.899-100.6 76.465 3.0519-12.45 7.6225-26.675 11.942-36.582-21.595 1.7786-41.663 8.1291-57.668 20.831-16.005-18.8-34.8-33.532-50.296-40.392-1.7813 12.956-4.0652 24.133-7.3692 34.04-10.553-54.248-43.579-108.15-53.011-108.55-11.777-0.4893-62.006 74.407-77.271 139.36-22.398 83.861-24.059 150.1-1.104 197.64z" fill="#3e4e57"/><path d="m404.55 339.2c1.4866-9.1531 2.5199-17.938 3.1746-26.234 36.019 2.7693 66.048 0.6067 66.604-3.0879 0.58665-3.8946-29.987-23.905-66.013-32.807-1.1613-21.422-5.0879-34.876-8.7398-35.399-3.6519-0.5226-14.166 10.412-24.934 30.494-44.038-2.8159-76.769 7.5425-77.507 12.462-0.51199 3.4146 23.539 14.28 62.778 21.907-2.5213 7.4798-4.8452 15.522-6.8478 24.09-63.106-6.6092-107.69 1.6306-108.44 5.3945-0.94264 4.7079 38.987 26.275 103.23 39.822 0.22399 32.826 9.1544 55.791 13.533 56.449 4.7706 0.7173 20.182-14.004 32.253-48.744 67.853 9.1478 115.81 6.6598 116.21 1.4066 0.3987-5.1319-47.709-31.885-105.31-45.754" fill="#e8382f"/><path d="m506.16 412.34c8.5492 23.629 4.132 54.187-5.9171 72.957 33.962 24.802 58.541 46.474 83.117 80.215-10.276 0-23.454-0.8933-33.291-2.4559 2.4599 17.429 4.2466 32.847 7.1531 48.487-12.293-6.7038-26.146-16.537-40.444-27.931-3.1278 11.621-6.4851 24.577-10.726 37.539-14.522-35.08-35.619-81.65-48.864-104.39-31.507 14.858-69.121 18.654-112.02 11.272-39.438-6.7878-70.276-19.605-93.156-38.264-21.026 27.485-56.78 80.441-66.836 99.882-3.7972-11.17-5.3559-29.051-5.1345-44.914-21.007 12.065-32.623 17.43-51.393 27.711 4.6932-16.541 14.076-40.447 24.579-56.311-18.772 0.6707-37.759 0-50.276-2.4613 29.718-23.237 79.993-51.389 114.63-61.67-6.4532-33.392-2.4626-70.27 17.93-89.35 23.683 9.8304 79.347 32.653 98.038 41.535 6.9198 3.2839 9.5518 9.2278 7.8238 17.876-1.7906 8.9384-6.4825 23.238-13.185 34.856 17.426-4.4679 37.092-2.0106 55.191 9.6091-0.66799-13.406 0.71331-33.275 4.9185-44.02 2.6559-6.7892 5.7852-8.9158 12.509-9.1611 30.393-1.116 78.377-1.0053 105.35-1.0053" fill="#e8382f"/><path d="m339.66 409.23c-1.388-2.0826-3.4106-3.7732-6.1012-5.0479-18.692-8.8824-74.349-31.703-98.038-41.535-20.55 40.356-8.4198 93.46 23.206 105.77 30.354 11.814 69.161-4.2399 80.933-59.189" fill="#fff200"/><path d="m294.61 457.51c2.5453 0.6173 9.2078-13.212 14.518-30.422-4.1607-2.3792-8.8034-3.9925-13.558-4.1772-3.6719 18.013-3.1999 34.056-0.95998 34.599" fill="#e8382f"/><path d="m306.55 392.28c-5.3572 9.1251-8.8651 20.205-10.986 30.626 4.8239 1.3586 9.1904 2.6253 13.558 4.1772 3.0372-9.8464 5.6412-20.795 6.7705-30.794-2.9479-1.2773-6.0785-2.6186-9.3424-4.0092" fill="#3e4e57"/><path d="m505.78 412.34c-27.05 0-74.713-0.1053-104.96 1.0053-4.2866 0.1573-7.1105 1.0946-9.2838 3.5039-5.0145 52.795 11.746 85.178 50.843 84.537 30.789-0.5093 60.64-31.819 63.404-89.046" fill="#fff200"/><path d="m413.1 474.32c2.1733 0.448 7.6451-10.092 11.742-28.915-4.0706-1.7264-8.8624-2.6104-13.198-2.2026-1.812 17.537-0.63865 30.682 1.456 31.118" fill="#e8382f"/><path d="m417.34 412.88c-2.9413 10.52-4.7346 21.033-5.6972 30.318 4.3359 0.628 9.1264 1.5133 13.197 2.2026 1.9786-9.0851 3.6346-20.069 4.4399-32.73-4.0839 0.059-8.0745 0.1293-11.94 0.2094" fill="#3e4e57"/><path d="m343.78 479.53c-1.1266 6.2585 14.489 8.6864 15.376 2.5986 0.87864-6.0745-14.497-7.4998-15.376-2.5986" fill="#3e4e57"/><path d="m326.62 217.61c-3.6039-36.75-25.027-85.581-31.951-85.134-11.14 0.7173-45.472 66.626-54.077 112.84 26.143-15.194 55.696-23.727 86.029-27.706" fill="#dddcd6"/><path d="m472.59 247.13c23.166 11.232 50.896 31.938 69.49 54.575 9.9998-41.868 10.334-117.95 4.3905-120.03-8.1025-2.8266-56.397 36.596-73.881 65.453" fill="#dddcd6"/></g><g fill="#e8382f" stroke-width="1.3333"><path d="m68.656 553.19c0.57599 16.417 1.4546 31.17 2.6439 44.447 19.352 6.4945 44.96 6.9372 61.976-1.068 0.58399-10.749 1.9626-20.841 4.1039-29.149 0.14399-0.068 0.28932-0.1413 0.43199-0.2093l0.9973-16.628c-21.683 7.2998-50.173 7.9545-70.153 2.6066"/><path d="m140.28 661.32c-3.1799-9.5624-5.2799-20.923-6.3865-32.749-15.36 6.8492-41.047 10.581-57.779 6.5665 2.2919 13.182 5.0532 24.658 8.2998 34.914 18.921 5.0852 42.139 1.3226 55.865-8.7318"/><path d="m242.14 556.59c-11.265 4.5092-26.29 6.3732-40.755 5.0905-1.9666 3.4146-3.6079 6.7465-5.3425 9.4731 0.49732 4.4599 1.2426 10.654 2.0919 16.177 12.86 6.3625 36.935 5.0852 51.017-2.0306-2.8079-10.306-5.1585-20.342-7.0118-28.71"/><path d="m215.26 650.04c14.429 2.2746 35.49-1.608 48.155-9.8011-2.4413-9.8584-5.8825-22.749-7.7571-31.049-11.757 8.9798-40.654 13.302-52.408 4.3172 2.5906 9.1918 7.3065 25.218 12.01 36.532"/><path d="m314.18 581.72c-15.854 13.541-46.082 18.32-63.222 11.449-2.6866-11.73-6.1158-25.838-8.8131-36.586 18.001 5.5732 51.264 0.6293 67.834-10.272 1.32 10.853 3.1159 26.486 4.2012 35.408"/><path d="m268.49 661.9c16.042 6.8705 41.678 2.9039 56.545-9.1758-1.7013-9.1344-4.7919-27.486-6.4678-38.087-13.118 13.593-45.967 16.664-59.545 9.8971 3.9279 13.476 6.6972 24.801 9.4678 37.366"/><path d="m323.19 643.73c13.145 10.801 33.935 11.717 46.668 4.5052 1.204-7.6251 4.4026-24.449 5.5905-32.155-17.156 5.5932-38.688 3.2479-51.427-5.6558-0.32533 5.0172-1.5653 16.177-2.3093 21.881 0.49732 3.5919 0.97331 7.1038 1.4773 11.425"/><path d="m381.94 583.75c-15.702 6.6798-41.946 3.4706-54.529-4.2599 1.6293-11.537 2.4879-20.134 3.6706-31.149 15.234 5.9732 41.722 7.0318 57.889 1.1653-2.5239 11.753-4.5959 22.263-7.0305 34.243"/></g><g stroke-width="1.3333"><path d="m96.056 394.3c-45.99-18.354-57.444-88.768-15.882-137.14 35.815-41.692 45.582-101.89-5.8865-141.26-23.453-4.8106-46.103-12.026-67.95-21.046 8.8184-4.6106 16.44-8.0171 25.257-10.222-10.22-9.6198-18.041-16.836-28.058-27.258 10.62-0.60132 22.847 0.80131 34.872 2.8053 0-20.643 0-35.676 0.40399-57.524 14.228 12.028 25.453 24.653 38.88 41.891 7.8171-14.23 12.028-21.446 20.246-34.875 2.8013 20.845 5.3625 55 6.3665 82.258 50.947 53.961 56.977 116.3 8.2678 180.21-30.002 39.366-26.109 83.573 17.944 96.896-11.234 2.9253-26.686 13.602-34.46 25.281" fill="#3e4e57"/><path d="m256.22 199.78c22.571-42.731 45.58-50.304 58.315-27.681-4.1906-15.082-15.004-39.127-19.864-39.296-8.3905-0.288-27.43 36.071-38.451 66.977" fill="#b5b5b0"/><path d="m510.99 205.7c18.321-12.512 37.358-1.6133 37.89 43.804 2.6825-25.25 2.7639-65.634-2.1533-67.869s-26.795 14.456-35.736 24.065" fill="#b5b5b0"/><path d="m462.76 201.69c-7.1225 8.0425-15.417 23.043-18.612 37.14-0.81198 3.5866 2.6946 5.6039 6.2518 3.5399 2.6799-9.6771 7.4505-28.806 12.36-40.68" fill="#28333b"/><path d="m356.69 182.49c1.76 8.7984 1.9253 21.534-1.728 36.454-1.216 4.9585-5.4785 4.2692-7.0705 2.0479 3.5479-12.329 5.7812-22.725 8.7984-38.502" fill="#28333b"/></g><g fill="#c92e27" stroke-width="1.3333"><path d="m506.5 621.49c-0.6693-22.457-22.731-71.717-42.342-107.75-2.7893-5.1265-5.5452-5.9438-11.148-3.0679-49.072 25.175-145.38 12.836-195.21-25.097-4.0012-3.0453-9.6944-2.9959-12.738 0.8373-20.779 26.145-55.468 76.251-60.161 102.56 17.428-28.993 49.268-76.586 67.034-99.378 54.465 44.578 156.02 54.131 204.79 26.813 14.916 26.814 42.288 85.053 49.771 105.08"/><path d="m104.17 511.99c11.696 0.1774 31.545-0.3506 47.133-2.036 3.8546-0.4133 5.9412 2.8346 3.7239 6.2025-15.508 1.064-41.818-0.088-50.857-4.1666"/><path d="m128.52 571.12c10.056-8.9651 30.75-20.781 46.671-30.039 3.3452-1.948 6.2385-0.3813 6.5785 2.6799-12.052 7.4425-41.646 21.687-53.249 27.359"/><path d="m557.24 609.58c-11.364-8.8864-23.921-18.524-36.039-29.415-2.788-2.5039-5.3745-1.2013-6.1185 2.2613 10.768 9.7211 28.225 21.207 42.158 27.154"/><path d="m583.39 563.77c-11.39-1.5933-21.446-3.5119-30.282-6.0118-3.2666-0.924-5.5331 1.596-4.8944 5.4292 10.804 1.756 24.478 2.2319 35.176 0.5827"/></g><g stroke-width="1.3333"><path d="m323.95 611c7.6345 4.3026 16.744 7.0185 26.903 7.7745 1.1493-10.306 2.4119-21.137 3.7132-31.59-9.8131-0.6213-19.441-3.3879-26.905-7.3892-1.14 10.161-2.4226 21.023-3.7119 31.205" fill="#28333b"/><path d="m325.29 653.54c18.769 10.278 21.677 24.357 14.749 34.188 19.665 3.5732 41.56-2.6813 44.13-18.661-14.854 11.286-37.647 2.124-36.379-16.344-8.2865-0.3973-17.346-3.4332-24.338-8.2158 0.58932 3.1399 1.2106 6.2492 1.8386 9.0318" fill="#28333b"/><path d="m327.66 579.79c7.4638 4.0012 17.09 6.7678 26.905 7.3892 1.532-12.38 3.1093-24.179 4.5866-33.838-10.417-0.2226-19.87-2.0413-28.297-4.6372-0.67465 7.6971-1.828 18.869-3.1946 31.086" fill="#c92e27"/><path d="m321.27 631.2c0.53465 3.8759 1.308 8.6318 2.1786 13.313 6.9918 4.7839 16.052 7.8198 24.338 8.2158 0.51732-9.4611 1.6306-21.974 3.0679-33.966-10.16-0.7573-19.269-3.4732-26.902-7.7745-0.91198 7.2558-1.828 14.166-2.6826 20.211" fill="#c92e27"/></g><g fill="#28333b" stroke-width="1.3333"><path d="m259.49 625.18c4.5506 1.1546 9.1531 1.9266 13.408 2.3293-2.5733-10.164-5.1705-20.69-7.6785-31.085-4.6786-0.3146-9.3424-1.096-13.576-2.3706 2.6293 10.441 5.2812 20.949 7.8465 31.126"/><path d="m268.92 662.96c-4.2359 27.838 15.83 41.95 39.046 39.84 22.653-2.0626 37.854-12.594 34.299-30.603-6.4998 24.963-62.184 23.759-59.981-7.1132-4.3666-0.2986-8.9331-1.1613-13.437-2.4226 0.0267 0.097 0.0533 0.204 0.0733 0.2987"/><path d="m251.94 489.59c-4.9439 6.3892-14.649 19.645-19.148 26.862 2.3999 10.856 5.7665 24.922 9.5958 40.482 4.4079 1.0266 9.0944 1.628 13.965 1.812-1.5386-5.7065-3.2679-13.405-4.6919-19.13-1.5333-6.1652-0.048-9.5424 8.0438-10.606 15.053-1.9813 36.56 0.576 49.543 6.5585 0.14133 3.7746 0.31333 6.5225 0.80131 12.006 7.7731-0.3026 14.854-1.3133 21.159-3.1546-0.0973 1.26-0.21599 2.7053-0.35332 4.2772 8.4265 2.5959 17.88 4.4146 28.298 4.6372 0.21866-1.4466 0.43999-2.8693 0.65465-4.2092 0.68132-4.2359 2.2293-5.7705 6.9012-7.7451 6.6825-2.8226 14.794-4.4039 24.993-4.3786l1.0093-5.3479c-51.532 0.8907-108.43-15.75-140.77-42.063"/></g><g stroke-width="1.3333"><path d="m251.65 594.05c4.2332 1.2746 8.8971 2.056 13.576 2.3693-3.1866-13.161-6.2172-26.054-8.8678-37.675-4.8705-0.184-9.5571-0.7853-13.965-1.812 2.8946 11.766 6.0572 24.389 9.2571 37.118" fill="#c92e27"/><path d="m268.84 662.65c4.5039 1.26 9.0691 2.124 13.437 2.4213-4e-3 -3.8159-6.0785-24.498-9.3784-37.564-4.2532-0.4026-8.8558-1.1746-13.406-2.3293 3.3719 13.396 6.5812 26.201 9.3478 37.472" fill="#c92e27"/><path d="m239.65 616.21c-2.3599-8.4091-4.6492-17.084-6.8492-25.958-9.6038 1.7893-21.503 1.504-34.334-1.7786 1.452 8.7504 3.4479 17.702 5.6732 26.162 10.509 5.3879 25.141 4.3159 35.51 1.5746" fill="#28333b"/><path d="m268.66 668.53c-11.638 3.6079-19.429-5.6745-19.593-14.422-0.0573-3.0906-0.15067-5.1159-0.44399-7.0318-9.3224 2.9826-20.681 4.5759-32.581 3.8319 1.12 27.689 28.306 42.831 53.831 29.903-1.1146-3.5772-1.5653-8.4891-1.2133-12.281" fill="#28333b"/><path d="m248.62 647.08c-0.25599-1.6826-0.66132-3.2799-1.3533-5.4385-2.6013-8.1278-5.1465-16.636-7.6198-25.43-10.369 2.7399-25.001 3.8132-35.51-1.5746 3.9012 14.853 8.4718 28.159 11.882 36.012 5e-3 0.089 0.0147 0.1734 0.02 0.2627 11.9 0.744 23.258-0.8493 32.581-3.8319" fill="#c92e27"/><path d="m202.22 561.35c9.6998-15.441 22.185-33.37 30.538-45.199 2.0626 9.1051 6.5638 29.783 9.2864 40.486-12.906 4.8599-27.861 6.4078-39.824 4.7132" fill="#28333b"/><path d="m242.38 556.93 1.2573 5.7119c-11.874 2.5533-14.094 14.537-10.846 27.597-9.6051 1.7893-21.505 1.504-34.335-1.7786-1.0013-6.0452-1.748-11.992-2.1066-17.596 1.6733-2.8053 3.6959-6.0745 5.8718-9.5304 11.494 1.7533 27.951 0.3613 40.159-4.4039" fill="#c92e27"/></g><g fill="#28333b" stroke-width="1.3333"><path d="m81.189 600.44c-3.3626-0.7786-6.7092-1.7546-9.8198-2.7786 1.3306 12.984 3.0319 25.674 5.1065 37.656 3.5292 0.5507 7.1078 1.0053 10.546 1.2586-2.2253-10.789-4.1839-23.029-5.8332-36.136"/><path d="m83.189 424.07c-12.149 18.709-17.014 72.417-14.912 129.01 2.9799 0.6653 5.8865 1.2586 8.6944 1.772-3.0373-48.863-1.696-100.28 6.2172-130.78"/><path d="m98.016 672.24c-4.8412-0.4053-8.9664-0.9186-13.842-1.9973-2.6546 23.167 11.908 36.186 35.102 37.539 23.233 1.3573 35.426-6.8318 33.711-23.189-9.2251 23.871-60.22 16.808-54.971-12.353"/></g><g stroke-width="1.3333"><path d="m76.963 554.85c-2.8079-0.5133-5.7145-1.1066-8.6944-1.772 0.55599 14.856 1.5893 29.906 3.0959 44.578 3.1106 1.024 6.4572 2 9.8198 2.7786-1.812-14.41-3.2413-29.862-4.2212-45.584" fill="#c92e27"/><path d="m87.029 636.57c-3.4399-0.252-7.0185-0.7066-10.546-1.2573 2.1666 12.529 4.7332 24.29 7.7038 34.824-7e-3 0.037-7e-3 0.069-0.012 0.1027 4.8772 1.0786 9.0024 1.592 13.844 1.9973-4.0906-7.7598-7.8038-20.23-10.989-35.667" fill="#c92e27"/><path d="m84.696 253.81c-39.886 56.811-20.613 105.41 5.3625 119.15 9.7118 5.1359 24.803 0.6707 28.658-8.5464 3.5492 1.7053 7.7105 3.3506 11.062 4.6906-14.976 4.4706-26.369 14.749-33.518 25.474-48.329-18.673-57.651-97.032-11.565-140.77" fill="#28333b"/><path d="m8.4416 93.759c21.117 5.6985 41.731 10.056 62.021 12.61 3.0666 0.3853 5.8052 1.4666 8.1731 3.2866 19.542 15 34.616 40.092 33.039 70.242-5.6999-27.987-17.262-48.936-36.868-64.018-16.758-3.0159-53.461-12.736-66.365-22.121" fill="#28333b"/><path d="m250.48 405.2c-2.036 12.894-6.4038 20.137-9.3478 19.786-2.3306-0.2773-4.2746-9.0664-2.1733-21.958 2.4493-15.049 6.7878-19.428 9.6211-19 2.3453 0.3507 4.0532 7.5771 1.9 21.171" fill="#fff9b1"/></g><g fill="#28333b" stroke-width="1.3333"><path d="m5.763 56.64c8.6291 7.4571 20.778 16.925 28.57 22.709 2.7413 2.0306 2.9253 5.7559-1.172 6.6185-9.6358-8.7144-22.623-20.277-27.398-29.327"/><path d="m37.817 62.214c3.5612 1.048 7.2212 0.0667 6.8692-5.2359-1.132-16.928-2.4693-32.511-4.2306-53.544-1.6746 14.664-2.5559 38.419-2.6386 58.78"/><path d="m97.856 12.321c-5.6999 13.574-9.5518 22.875-13.7 32.343-1.7466 3.9746-5.2705 3.5346-7.6265 1.132 5.0279-9.9731 16.298-26.771 21.326-33.475"/></g><g fill="#0d131a" stroke-width="1.3333"><path d="m215.74 247.06c15.173-64.58 65.696-142.08 79.981-141.64 10.114 0.3093 41.687 51.347 52.959 103.64 2.0573-8.1771 3.2026-15.881 4.6026-26.203 0.372-2.7146 1.3946-3.2906 3.8546-2.1013 15.758 7.5998 34.311 22.215 49.289 39.539 14.942-11.074 34.506-18.389 56.493-20.603 3.7586-0.3733 4.7012 0.572 3.1039 4.0492-4.0999 8.9424-6.5612 15.869-9.7344 26.302 28.594-35.906 81.121-74.222 96.968-70.05 15.752 4.1466 23.629 90.955 14.356 151.82-6.5905 78.729-28.487 138.17-65.344 175.85l-0.5706-7.9478c32.957-38.222 52.848-91.4 60.985-168.38 8.0011-62.23-0.043-143.17-11.186-146.28-12.784-3.5559-68.428 37.816-97.388 74.275-4.0412 5.1025-5.4519 3.6612-4.1519-1.964 2.9159-12.625 6.3785-23.349 10.168-32.355-21.209 2.112-37.552 8.7184-52.084 19.276-1.7773 1.2933-2.8333 1.3493-4.0826-0.097-14.605-16.965-31.253-30.325-46.46-37.976-1.636 11.385-3.8679 21.394-6.6985 30.439-1.824 5.8238-3.3746 6.3145-4.6986-0.011-11.228-53.368-43.718-106.05-50.819-105.88-10.329 0.248-59.813 73.774-74.765 137.41-23.267 88.735-19.357 149.9-4.8239 186.22l0.70799 16.196c-25.799-47.988-25.186-113.46-0.66132-203.54"/><path d="m518.5 582.41c13.7 10.862 25.347 19.024 35.762 24.99-2.2545-12.224-4.4132-25.697-6.1091-43.431-0.228-2.3399 0.3919-3.2372 2.8852-2.8253 10.138 1.68 19.484 2.224 28.154 2.224-23.981-31.269-47.664-52.051-79.607-75.833-1.6226-1.212-1.8066-2.1413-0.9426-3.9279 8.5344-17.604 13.276-45.988 5.8078-68.845-31.087-0.252-79.366 0.076-103.53 0.9627-5.5852 0.204-8.4251 1.9186-10.64 7.5838-3.9532 10.098-5.2799 26.51-4.9212 43.043 0.06 2.9279-1.1906 3.1732-3.7186 1.6293-16.253-9.9398-33.456-13.476-52.167-9.1864-4.1319 0.9479-4.6559-0.089-2.7133-3.6666 5.9812-10.981 10.766-24.929 12.474-33.448 1.452-7.2638-0.0213-12.18-6.5878-15.296-15.868-7.5425-68.741-29.262-96.459-40.724-19.593 20.287-21.51 55.277-16.704 84.842 0.40399 2.4986-0.11866 3.2652-2.1479 3.8839-34.631 10.605-81.647 37.494-109.35 57.995 8.3571 1.3253 25.807 2.8479 44.247 1.916 3.0692-0.1534 3.8039 0.8746 1.9706 3.7892-9.4651 15.018-17.844 35.576-22.045 50.017 14.925-7.8478 26.254-13.706 46.208-24.835 2.7279-1.516 3.5599-1.0506 3.5426 2.3133-0.0867 14.906 1.3066 28.575 3.9599 37.98 12.438-23.295 44.823-69.488 64.401-95.214 1.3973-1.82 2.3653-1.9226 4.1839-0.4134 23.101 19.209 53.327 31.069 91.294 37.602 41.898 7.2118 80.311 3.2666 109.7-10.92 1.82-0.8773 2.6026-0.6253 3.6506 1.1666 13.598 23.333 33.598 66.602 46.646 98.95 3.2146-9.9011 6.5652-21.743 8.9544-31.259 0.672-2.6826 1.54-2.8559 3.7972-1.0626m-0.688 4.5039c-2.26 9.5384-5.2772 21.381-9.2944 34.155-1.5346 4.8772-3.1039 4.8772-5.0745 0.1254-13.858-33.286-33.951-78.755-46.965-101.44-31.439 14.454-69.512 18.364-111.61 10.726-39.024-7.0812-69.981-19.105-92.579-37.776-19.449 26.045-51.628 73.302-64.878 97.556-2.2253 4.0786-3.7119 3.4786-4.8052-0.336-3.2279-11.234-4.7919-27.435-4.4839-41.931-18.52 10.698-29.965 16.336-47.584 25.907-4.2452 2.3093-5.1012 1.2346-3.6426-3.5306 4.7919-15.808 14.384-38.382 22.822-52.265-15.005 0.7533-34.104-0.1253-46.427-2.1373-4.0639-0.6613-4.0706-2.1506-0.90531-4.6652 29.127-23.142 76.239-49.241 112.88-60.81-5.9612-30.409-3.4879-68.325 17.885-89.04 1.3706-1.3293 2.0626-1.5253 4.0066-0.7187 28.131 11.69 81.842 33.842 97.534 41.296 7.7891 3.6986 10.918 10.32 8.8558 20.621-1.696 8.4838-5.6732 20.407-11.474 31.37 16.485-3.2252 34.5 0.041 49.135 8.5678-0.37866-13.748 1.1133-30.878 5.0559-40.954 3.0386-7.7638 6.7945-10.404 14.454-10.684 23.878-0.8799 72.65-1.3346 104.99-1.256 1.928 0.01 2.4893 0.34 3.1319 2.1773 8.6145 24.594 3.4732 54.868-5.8985 72.733 31.283 22.479 57.667 44.916 81.206 77.894 3.1279 4.3852 2.4893 5.6719-2.5653 5.6332-11.233-0.089-19.397-0.9919-29.203-2.7519 1.8306 15.317 4.1759 29.51 7.1665 46.084 0.6227 3.4532-0.7506 3.9399-3.7359 2.2426-10.682-6.0785-24.053-15.354-37.995-26.791"/><path d="m294.67 134.62c-8.0451 0.312-41.274 60.58-50.759 106.22 23.422-13.052 49.077-20.891 80.069-25.325-4.3466-37.463-24.878-81.066-29.31-80.893m-56.585 109.9c8.5384-44.791 43.088-113.57 56.617-114.27 8.8704-0.4613 30.279 50.204 34.107 86.269 0.27332 2.5853-0.104 3.2173-2.8026 3.5826-30.929 4.2626-60.329 13.99-83.587 27.005-4.0799 2.2786-5.0279 1.0493-4.3346-2.5813"/><path d="m545.72 183.64c-5.8824-2.2613-51.884 34.06-69.932 62.632 23.73 11.817 48.017 30.535 65.16 50.579 9.7024-43.846 8.0331-111.96 4.7719-113.21m-6.0545 118.86c-16.96-19.962-43.878-41.039-67.5-52.829-2.2786-1.1386-2.5826-2.3333-1.3266-4.2772 20.577-31.797 67.95-68.87 76.507-65.881 7.8451 2.7399 6.0744 83.019-3.0413 122.31-0.796 3.4439-2.3359 3.3986-4.6399 0.6813"/><path d="m345.54 479.96c-0.27999 1.56 1.312 3.1213 5.5719 3.7706 3.7332 0.5733 5.9692-0.2533 6.2052-1.864 0.15733-1.0693-1.2506-2.5946-4.9092-3.2066-4.8052-0.8026-6.6558 0.096-6.8678 1.3m5.0279 7.2492c-7.2718-1.1213-9.2678-4.9292-8.7184-7.9611 0.53732-2.9799 4.7199-5.2745 11.154-4.2106 5.5759 0.9227 8.4971 4.1426 8.0371 7.3532-0.55466 3.8119-5.1319 5.6505-10.473 4.8185"/><path d="m341.25 412.36c-12.729 55.953-53.828 69.216-83.709 57.583-33.255-12.949-44.227-64.797-25.833-104.78l6.0318-1.676c-20.321 39.634-7.0785 91.418 21.786 102.44 34.24 13.069 68.165-10.516 78.199-59.131z"/><path d="m308.58 392.98c-14.078 23.713-15.109 60.909-13.185 61.322 2.1786 0.4693 16.118-31.995 18.548-58.851l4.3559 1.872c-6.1452 36.62-18.621 63.254-24.006 62.102-6.1305-1.3093-5.7265-36.902 9.6678-67.874z"/><path d="m507.91 415.3c-3.3865 60.292-36.238 87.43-65.91 87.918-42.531 0.7107-57.264-34.28-53.351-82.57l5.4345-5.7452c-5.1585 50.029 9.4384 84.331 48.271 83.686 27.919-0.4586 57.776-28.598 61.148-86.672z"/><path d="m431.88 412.78c-3.7852 43.262-13.702 64.412-19.025 63.406-6.1478-1.1626-5.8652-31.317 1.8933-63.22l4.6852-0.212c-8.0198 27.741-7.9278 58.185-5.8025 58.495 2.2786 0.3267 11.589-23.793 13.597-58.536z"/><path d="m139.86 566.35c-6.3692 23.806-7.0505 65.882 2.4986 94.26 23.078 19.702 18.278 45.95-13.352 49.151-36.091 3.6666-52.332-19.65-46.932-39.507-10.224-31.633-15.553-74.33-16.724-137.5-0.99731-53.831 3.0439-98.282 26.747-137.29 20.465-33.688 70.082-42.683 108.85-21.913l0.16799 5.4465c-38.535-20.43-84.987-12.177-104.2 19.44-23.083 37.994-27.27 82.615-26.31 134.38 1.172 63.158 5.7492 103.53 15.542 136.02 0.36666 1.2146 0.34666 1.856 0.084 3.0159-3.4039 15.066 8.1851 37.022 42.316 33.559 25.646-2.5973 31.905-22.723 11.017-41.394-0.66265-0.5906-1.0933-1.2853-1.3813-2.1359-9.5318-27.935-9.4118-68.049-3.5199-92.8z"/><path d="m112.97 707.45c3.9399-9.0491 3.0173-18.097-1.2626-24.042-3.5092-4.8812-2.0253-6.3732 2.2053-2.0946 5.2572 5.3159 7.6465 16.586 3.2906 26.514z"/><path d="m132.71 707.08c4.3759-7.2558 5.4465-15.544 2.3386-23.891-2.1813-5.8705-0.37466-6.8532 2.7039-1.3933 4.0052 7.1012 4.0466 16.362 0.23466 23.943z"/><path d="m134.85 553.72c-21.058 6.2012-47.368 6.3678-66.082 1.3973l-0.16666-3.8532c19.308 5.2505 47.028 4.6599 67.872-1.844z"/><path d="m133.07 598.64c-17.576 7.8625-42.676 7.5905-61.613 1.0053l-0.45199-4.0772c20.53 7.1345 46.415 6.3252 62.23-1.0053z"/><path d="m134.07 630.53c-14.673 6.9372-40.707 11.029-57.537 6.5358l-0.72532-3.9639c16.602 4.2626 43.098 0.5227 57.928-6.5372z"/><path d="m141.21 662.88c-14.632 11.66-40.328 14.024-56.92 8.9944l-0.50399-3.9092c18.604 5.3359 42.039 1.7546 55.748-8.4371z"/><path d="m270.8 683.08c-27.742 10.525-51.648 1.7586-57.229-32.234-10.113-25.566-16.756-51.715-19.272-77.285l3.7706-5.5705c2.1813 26.269 8.8384 54.629 19.234 81.059 0.236 0.5987 0.35466 1.1146 0.47733 1.772 4.5092 24.494 20.491 40.062 51.761 28.067z"/><path d="m252.06 685.08c1.88-6.0798 1.216-13.113-2.5199-19.672-3.5372-6.2252-1.6226-7.4332 2.5666-1.6253 4.3959 6.0892 5.9505 14.194 4.2679 20.921z"/><path d="m234.41 513.88c9.0824 40.935 25.626 105.93 36.299 146.9 0.28133 1.1 0.256 1.444 0.124 2.3453-2.3439 16.246 5.3065 44.002 43.951 36.283 30.762-6.1425 34.412-29.998 9.8464-43.447-1.028-0.56-1.3573-1.152-1.5933-2.4706-6.5772-36.367-13.45-87.647-16.005-121.29-0.84397-11.05 2.4253-11.292 3.3932-0.2506 2.6679 32.249 10.04 84.907 16.549 120.66 27.021 13.689 26.106 43.87-11.542 51.067-44.18 8.4571-52.061-24.529-48.495-41.723-10.77-40.442-26.342-102.48-35.999-142.94z"/><path d="m310.18 544.77c13.742 0.3773 24.51-2.5666 36.659-9.6784 6.1132-3.5759 7.5358-1.1933 1.76 2.8906-10.965 7.7518-23.781 12.124-38.208 11.941z"/><path d="m310.18 548.37c-16.618 10.657-49.5 15.734-67.956 10.305-11.32 4.4119-27.07 6.5918-41.687 4.8185l2.5986-3.6026c13.773 1.0373 27.657-0.848 38.419-5.1545 0.32266-0.1267 0.68665-0.14 1.016-0.04 18.114 5.6012 51.413 0.2627 67.232-10.517z"/><path d="m249.66 587.15c-13.421 6.8652-37.407 8.7571-51.008 2.4639l-0.61465-4.4919c12.062 6.4612 36.479 5.4732 50.697-1.712z"/><path d="m255.81 611.34c-12.004 8.3998-38.271 12.833-51.443 5.0585l-1.2786-5.3239c10.916 9.5024 40.735 4.9279 51.752-3.6519z"/><path d="m214.65 648.09c14.624 2.5959 35.926-1.712 48.096-9.6371l0.88131 3.7719c-11.354 7.3052-32.023 12.442-47.761 9.7611z"/><path d="m314.41 583.91c-15.04 12.669-44.871 18.032-62.636 11.565l-1.088-4.4426c17.245 7.4958 48.239 1.912 63.18-11.521z"/><path d="m318.94 616.81c-12.536 13.049-44.835 16.458-59.211 10.042l-0.98797-4.6199c12.312 7.0452 47.3 4.2852 59.634-10.185z"/><path d="m325.83 654.44c-13.898 11.972-40.651 16.208-57.04 9.5211l-0.14266-3.9599c16.197 6.8478 41.823 2.5293 56.051-9.4744z"/><path d="m299.66 702.93c4.6906-5.5305 4.3146-13.617 1.1933-18.25-3.4986-5.1932-1.5333-6.7305 2.4026-1.86 4.1959 5.1932 5.1585 13.773 1.0946 20.15z"/><path d="m322.99 699.54c2.6706-5.1972 3.2692-12.234 0.84398-18.48-2.4826-6.3998-0.35599-7.4118 2.7546-1.2893 2.8146 5.5239 3.3986 12.353 1.556 17.758z"/><path d="m320.27 625.93c3.0026-26.071 6.3372-56.521 9.0451-80.986l4.6079-1.4666c-3.1066 28.043-7.7185 67.337-10.965 95.471z"/><path d="m341.14 686.09c6.9278 0.7493 14.705 0.4187 20.989-0.8373 25.662-5.1332 24.803-29.914 7.4172-34.816-1.6413-0.46-2.116-1.1533-1.8013-2.9319 5.8732-33.6 15.574-82.986 22.581-115.97l4.6519-0.1253c-7.4612 33.767-17.073 81.71-23.002 115.43 19.732 6.6612 21.746 36.323-9.2171 42.731-6.7945 1.408-16.549 1.676-24.341 0.7146z"/><path d="m348.01 688.65c3.0053-4.8865 3.3519-9.9718 2.1333-13.832-1.688-5.3465 0.73731-6.1798 2.8733-0.9946 1.572 3.8079 2.0893 9.4744-0.48132 14.785z"/><path d="m363.93 686.93c4.1906-5.0279 5.1119-10.768 4.4959-14.564-0.80265-4.9612 1.48-5.5105 2.9586-0.7133 1.0933 3.5452 1.1786 8.8664-1.7986 13.728z"/><path d="m371.77 649.22c-12.025 7.4998-33.602 8.1278-47.847-2.6386l-0.79332-5.3212c13.04 11.585 34.526 12.178 46.67 4.9025z"/><path d="m375.21 618.05c-15.042 4.8172-37.079 4.1892-51.239-5.4892l0.45999-4.1052c12.458 9.0651 34.432 11.381 51.448 5.5292z"/><path d="m381.41 585.92c-14.916 5.9505-40.724 3.7706-54.007-4.3132l0.33866-4.1052c12.249 7.8518 39.516 10.997 54.589 4.0212z"/><path d="m388.27 551.73c-15.292 5.3199-42.148 4.8599-57.188-1.4253l0.29066-3.8119c15.712 6.3078 42.551 6.7785 57.776 0.9627z"/><path d="m95.042 396.42c-47.931-18.464-59.08-91.351-16.549-140.85 35.643-41.491 43.848-99.458-5.1532-137.64-21.791-4.4919-45.207-11.604-67.47-20.943-3.6479-1.532-3.4826-2.6026-0.22399-4.3186 7.1545-3.7706 14.046-6.7438 21.983-9.0078-8.4598-7.4998-16.421-14.789-25.21-23.853-3.5412-3.6559-3.3186-4.8652 1.4986-4.8839 11.062-0.0467 20.863 0.79065 32.47 2.7613 0-19.24-0.172-32.263 0.20933-53.808 0.0787-4.5212 1.032-4.9439 4.4186-2.0266 13.837 11.949 25.007 24.489 36.388 38.991 5.7812-11.38 10.137-19.09 17.968-31.385 3.0333-4.7545 4.2212-4.3946 4.9479 1.3893 2.8653 22.858 5.3212 52.355 6.0345 80.062 52.868 55.703 55.787 120.05 8.0851 182.62-31.941 41.906-22.591 83.418 19.986 94.559l-6.9132 2.3466c-41.524-13.385-49.057-57.632-16.885-99.84 46.584-61.108 44.07-121.45-7.3838-176.48-0.84265-0.89598-1.0933-1.376-1.1573-2.8453-0.98397-26.059-3.0319-55.365-5.4932-75.453-6.4798 9.9438-10.344 17.102-16.832 28.89-1.3613 2.4773-2.5133 2.3013-4.1866 0.196-11.83-14.896-23.226-27.746-34.872-37.968-0.33466 19.626-0.41866 32.233-0.21066 52.58 0.0213 2.3759-0.80531 3.0919-3.2786 2.6746-12.097-2.0466-20.61-2.9719-28.687-2.8413 7.6265 8.0025 15.252 15.458 23.966 23.333 2.4666 2.2279 2.0426 3.1986-1.0453 4.0346-8.0065 2.1693-13.369 4.3466-20.238 7.8251 21.355 8.6198 41.923 14.732 62.944 19.088 0.62265 0.1307 1.224 0.324 1.944 0.8733 49.288 37.371 45.198 98.268 5.7892 144.14-41.14 47.887-28.385 116.73 15.796 133.86z"/><path d="m361.83 429.35c4.0132 0.46 17.798-12.638 29.537-45.847 0.64132-1.8106 1.304-2.18 3.3119-1.9106 70.709 9.4171 111.79 5.6679 112.05 2.9186 0.34-3.5719-46.951-29.661-101.83-43.102-2.1306-0.5213-2.4879-1.2853-2.176-3.2732 1.244-7.8905 2.1093-16.746 2.7626-24.546 0.172-2.14 0.85065-2.6999 3.0266-2.5333 31.287 2.4079 62.28 0.3867 62.625-1.8653 0.41466-2.7399-28.993-21.473-62.802-30.039-1.7626-0.448-2.032-0.7706-2.1359-2.8639-1.0906-21.813-5.3212-31.551-7.0105-31.835-2.1333-0.3573-12.686 9.7064-22.695 28.575-0.49732 0.9413-1.212 1.3213-2.4439 1.268-44.986-2.8839-73.606 7.6625-73.946 10.48-0.22132 1.78 21.183 12.138 59.633 19.72 1.78 0.3573 2.5039 1.208 1.8453 3.1692-2.344 7.0318-4.6572 14.874-6.4372 22.251-0.46798 1.956-1.132 2.7319-3.5412 2.4879-61.31-6.2132-103.99 1.7933-104.27 4.2706-0.25066 2.152 34.38 22.933 100.2 36.974 1.704 0.3613 2.4333 0.9253 2.4599 2.9119 0.41332 32.418 8.9558 52.456 11.844 52.789m-1.0026 5.9905c-6.4212-0.9453-16.07-27.007-15.901-57.253-60.9-12.998-104.85-35.839-103.5-42.543 1.304-6.5492 55.332-14.012 109.46-8.1051 1.7226-7.2198 3.1812-11.95 5.4612-18.868-34.704-6.7732-63.077-18.404-62.218-24.099 0.99464-6.6305 34.691-17.754 78.605-15.129 10.406-19.785 22.217-31.011 27.459-30.638 4.6986 0.3334 10.186 13.564 11.024 35.851 34.715 8.6584 66.852 30.082 65.956 36.059-0.91731 6.1105-38.25 7.5091-66.948 5.4039-0.65465 7.7478-1.4946 13.517-2.7319 21.351 56.907 13.894 105.73 41.206 105.21 47.988-0.6134 7.9051-53.876 10.021-117.13 1.4186-11.05 33.18-28.591 49.469-34.747 48.563"/><path d="m347.71 496.01c1.572 0.036 4.3999 4.4812 7.6425 11.642 2 4.4252-0.57999 5.4492-2.7199 1.3613-2.6586-5.0865-4.6692-8.4371-5.2972-8.4784-0.50932-0.035-3.7706 2.7226-6.9718 6.2532-2.8013 3.0826-4.8172 1.3293-2.2973-1.988 3.8626-5.1039 7.7558-8.8384 9.6438-8.7904"/></g></svg>
