<?xml version="1.0" encoding="UTF-8"?>
<!-- Created with Inkscape (http://www.inkscape.org/) -->
<svg version="1.1" viewBox="0 0 233.68 318.42" xmlns="http://www.w3.org/2000/svg">
 <g stroke-width="11.132">
  <path d="m160.71 102.86c-7.5252 3.8961-17.8 2.3382-22.565-1.8807-2.171 6.5123-4.9093 8.3491-12.457 7.8036-4.0744-0.28399-11.978-1.5146-17.266-3.4064-2.272-0.81412-4.4082-2.9946-5.5774-5.466-1.704 1.2243-3.004 2.1142-5.7215 3.4733 6.2337 27.463-9.2062 44.06-23.077 41.467 3.0829 4.8424 10.687 10.876 19.448 16.52 5.4436 3.5067 8.3933 7.0131 9.0503 12.991 0.50172-0.45754 1.035-0.91194 1.603-1.3569-0.48911 2.3698-0.12622 5.1318 1.827 7.6808 1.136 1.4926 2.2499 3.2953 2.9504 4.9649 0.54589-5.1204 3.5512-8.8386 6.8238-10.197-0.94665 3.3508 1.2685 7.2469 3.863 8.6051 1.6819-4.6979 6.2226-8.1598 9.2172-9.3286-0.35658 2.1584-0.0111 4.9314 1.2464 6.512 0.55537 0.71313 0.99083 1.5146 1.3253 2.4708 1.1454-1.259 2.5055-2.3603 4.0075-3.217 2.1836-1.237 3.874-2.5717 5.4101-5.1432 0.57745 1.9154 0.45754 4.2637 0 6.056-0.45755 1.7923-0.15777 3.5733 0.5459 4.7866 1.2117-2.739 2.8715-4.5641 5.2766-6.412 2.1268-1.6472 4.7534-5.0873 6.3564-8.5716 3.1725 3.7402 5.3098 7.8146 6.0002 12.345 1.8049-1.7576 2.6822-5.0763 2.6727-7.7591 2.5938 2.4171 3.9851 5.0987 4.5196 9.0503 0.72261-3.5954 1.3695-6.5344 2.0038-8.9165 0.0631 0.0315 0.0946 0.0631 0.15777 0.12622 0.88038-4.631 1.3916-9.0948 1.7355-13.659 0.55537-7.5142 1.726-15.963 4.6641-22.476 5.1542-11.377-0.95612-31.058-14.038-37.058" fill="#727171"/>
  <path d="m171.41 195.95c-1.1581-2.4487-1.2243-4.4193-0.25244-6.6682 2.0605-4.8756 1.4926-9.8628-2.9283-13.269-0.64687 2.3824-1.2811 5.3211-2.0037 8.9279-0.54591-3.963-1.9375-6.6458-4.5307-9.0614 0.0224 2.6948-0.85829 6.0002-2.6601 7.7701-0.69105-4.542-2.84-8.6051-6.0112-12.345-1.5904 3.4843-4.2189 6.9238-6.3451 8.5603-2.414 1.8586-4.0744 3.6847-5.2766 6.412-0.71314-1.2022-1.0129-2.9946-0.55537-4.7866 0.45755-1.7923 0.59008-4.1299 0-6.0557-1.5241 2.5717-3.217 3.9071-5.3991 5.1428-1.502 0.8583-2.8715 1.9596-4.0075 3.217-0.33448-0.95612-0.76679-1.7482-1.3348-2.4613-1.2464-1.5904-1.603-4.3638-1.237-6.5123-2.9946 1.1581-7.5363 4.62-9.2286 9.3286-2.5844-1.3695-4.809-5.2653-3.8626-8.6161-3.2615 1.3569-6.2671 5.0763-6.8238 10.197-0.69106-1.6598-1.8144-3.4733-2.9378-4.9538-1.9375-2.5496-2.3161-5.3101-1.827-7.6811-7.2804 5.6884-9.4958 12.334-5.6663 17.678-3.9296 3.6067-4.3637 7.5252-3.3174 11.054-2.1047 3.1271-2.3477 8.7941 0.22088 11.288 0.42284-3.2618 2.9504-5.477 5.3322-6.98 2.7169-1.704 5.1652-3.9182 6.4899-6.9241 0.2209 3.696 2.0479 8.0153 4.8093 10.186-0.0315-2.9378 1.502-6.4344 4.1744-7.6701 0.45755 2.982 2.6064 6.4789 5.8219 9.0392 0.25245-2.8841 1.4926-6.4454 4.2303-9.0727 0.91195 7.0914 7.6032 8.7054 11.366 5.4104 3.4064 6.0447 12.29 7.358 17.009 1.0571 4.3527 2.2057 9.529-1.6693 11.021-7.3804 0.57746 1.603 1.4926 3.1836 2.0258 3.6957 0.8015 0.79203 1.4358 1.603 1.6472 3.4174 3.4843-3.6512 4.052-7.7367 2.0605-11.945" fill="#EA5504"/>
  <path d="m83.595 92.132c4.8756 0.41021 10.119-8.7609 15.418-13.281-0.69106 3.4957-2.1805 15.641-2.7958 21.106 0.39128 1.0129 0.67842 2.1047 0.91194 3.5067 1.6693-0.90247 3.9071-2.2499 5.7216-3.4733 1.1234 2.0605 2.7043 4.2079 4.0857 4.8648 4.1631 1.9596 15.707 3.8961 20.472 4.1189 5.6439 0.25244 8.5492-1.4705 10.887-7.9594 5.3211 4.9538 18.947 6.0892 25.214-0.0631-3.217 0.0224-6.1782-0.80149-8.694-1.9816 9.4735-1.0571 19.091-6.4568 22.475-15.028-4.6197 1.9596-10.175 2.9725-15.429 3.1615 9.0948-4.809 16.609-12.423 18.546-23.756-6.2671 5.0652-19.013 10.13-28.353 13.002 2.4266-4.0188 1.9596-9.6404-0.41338-12.089-1.7576 2.4708-4.5641 5.5436-7.8367 8.0484-0.66896 0.2209-1.4263 0.50173-1.827 0.69106-0.41336 0.18933-41.734 0.03154-41.734 0.03154-4.9759-1.1581-8.2374-5.0539-9.8852-9.5624-1.8586 2.2941-1.7134 7.2359-0.69105 10.687-6.0002-1.9375-18.357-10.408-23.165-14.716-0.43546 6.6124 2.3035 13.614 6.6348 18.501 1.5367-2.6506 2.6033-4.1747 4.0965-5.9557 1.4137 3.5398 1.6598 19.748 6.3564 20.149" fill="#E83820"/>
  <path d="m137.96 78.564c2.0826 2.395 1.8144 7.7477 0.22088 12.446 3.7626-4.1858 5.0428-11.555 3.9185-17.555-0.86777-4.6197-3.2281-11.878-4.2858-12.056-1.0697-0.18933-5.7998 5.3101-7.5584 8.1377-6.0781-0.99083-12.746-0.95612-18.001 0.06309-2.0037-4.3972-5.1987-8.8944-5.8664-8.7499-1.0255 0.22088-6.145 10.709-7.1803 16.275-0.71314 3.7961 0.03154 9.2728 3.0514 13.781-1.0571-2.8494-1.0255-6.1782-0.22088-8.9834 3.6512 2.0479 9.4845 5.0649 13.503 7.5252 0.45755-0.02239 1.1802-0.5238 1.4137-1.1454 0.22089-0.6248 1.7261-3.6736 2.3824-3.6957 0.65635-0.02239 1.9375 2.1931 2.4392 3.4285 0.35656 0.88038 0.71314 1.2906 1.3916 1.237 3.4846-3.3619 9.9632-7.7032 14.795-10.698" fill="#3E3A39"/>
  <path d="m123.07 89.292c3.2505-2.8399 9.3952-7.5142 14.405-10.375 0.15778 3.5843-0.69105 9.8739-3.6402 12.768-3.1397-0.94666-6.6789-1.8365-10.764-2.395" fill="#FFF200"/>
  <path d="m123.86 89.608c-0.97821-0.12622-1.5904-0.28399-1.9816-1.0571-0.99083-2.0037-2.0921-3.7516-2.5276-3.8185-0.51118-0.06309-1.7702 2.272-2.3824 3.7071-0.35658 0.81412-0.92457 1.1234-2.2373 1.3916-2.3824 0.47963-4.0965 0.50172-6.0778 0.4323-3.6067-0.12623-5.566 1.9469-5.7219 4.2192-0.22088 3.295 2.5055 5.666 8.104 5.3098 4.6086-0.28399 17.9-3.1271 23.455-4.72 1.9028-0.55536 1.8049-2.294-0.33449-3.0829-2.9599-1.1013-7.0355-1.9375-10.297-2.3824" fill="#3E3A39"/>
  <path d="m123.41 91.501c-0.32187-0.69105-7.4697-0.70052-7.8705-0.03154-0.22088 0.40075 2.3603 2.1931 3.785 2.1931 1.2117 0 4.2634-1.7797 4.0854-2.1584" fill="#E83820"/>
  <path d="m131.02 87.715c0 1.8144-0.8015 2.9283-1.7355 2.9283-0.91194 0-1.7134-0.99083-1.7134-2.9283 0-1.8586 0.94664-3.0072 1.7702-3.0072 0.94665 0 1.6819 0.99083 1.6819 3.0072" fill="#3EB571"/>
 </g>
 <g fill="#fff" stroke-width="11.132">
  <path d="m134.49 94.972c-5.555 1.603-18.836 4.4306-23.455 4.731-2.4834 0.15777-4.3972-0.22088-5.7443-0.99083h-0.011c3.7402 3.4064 17.422 4.0075 28.13 3.9409 1.1675-2.3603 1.8933-6.0112 2.4045-8.8278-0.0946 0.48911-0.53327 0.92456-1.3253 1.1454"/>
  <path d="m133.48 102.86c-0.0315-3.8626-0.81412-7.0576-1.9596-8.7385-0.73523 3.206-1.6819 6.2116-2.8494 8.7496 1.3821 0.0315 3.295 0.0631 4.809-0.0111"/>
  <path d="m110.6 100.97c-1.6693-2.5055-2.5276-4.6531-3.3619-7.1579-0.76678 1.6156-1.4137 3.2174-1.5146 5.2542 1.2117 0.88986 2.8621 1.4263 4.8756 1.9028"/>
 </g>
 <g stroke-width="11.132">
  <path d="m115.53 89.608c-6.223-3.6736-18.535-9.8852-27.908-15.195 9.4286 1.9596 17.933 4.4972 29.032 9.9742 0.12622-2.0826 0.31555-3.9965 0.54589-5.7888-2.3256-0.38813-4.6534-1.2149-6.8796-2.638 2.5055-1.1675 5.1318-1.827 7.7701-2.0258 0.46701-1.8144 1.0697-3.4512 1.8365-4.9093 1.4578-0.06309 2.537-0.06309 3.9851 0.03154-0.31555 1.5683-0.52382 3.295-0.69105 5.0539 2.7043 0.38812 5.3325 1.2369 7.737 2.4928-2.4928 1.0255-5.2432 1.827-8.0932 2.1142-0.0946 1.6156-0.18933 3.1839-0.25244 4.631 8.8054-5.2766 19.748-11.243 29.967-13.737-8.6385 5.9333-20.138 11.533-29.644 19.96-0.59954-0.18933-0.92456-0.51119-1.2243-1.2243-0.59954-1.4926-1.9249-3.4954-2.3698-3.5402-0.53328-0.03154-2.0164 2.4613-2.3698 3.5736-0.25244 0.8015-0.70052 1.2022-1.4358 1.2149" fill="#E83820"/>
  <path d="m172.58 146.09c5.9781-5.9557 8.4605-18.691 5.8778-29.222-0.44494-1.8049-0.18934-3.1176 0.12622-4.7421 1.1928-5.9557 3.2284-12.958 6.1561-21.062-3.4733 1.3127-10.999 11.722-15.195 8.8944-0.90248-0.6027-1.1454-2.862-0.93403-5.8443-4.3972 2.9283-9.6514 4.6755-13.793 4.8869 2.5717 1.1581 5.9333 1.9249 8.4381 2.0258-0.63426 0.76679-1.4926 1.3916-2.5496 1.969 13.67 6.2895 19.325 26.695 13.726 37.916-0.83621 1.6598-1.2243 2.9283-1.8586 5.1763" fill="#3E3A39"/>
  <path d="m171.79 79.826c-0.73524 2.0385-1.3821 4.2969-1.9028 6.5568-1.4926 0.33449-2.8841 0.52382-4.1747 0.66897 0.52381-0.91195 1.0476-2.0164 1.3916-2.9725 1.8144-1.4484 2.7043-2.171 4.6866-4.2524" fill="#3E3A39"/>
  <path d="m75.958 38.804c-2.414 1.6819-5.1318 2.7831-8.872 2.2057" fill="#E83820"/>
  <path d="m54.564 95.603c-0.2209-2.2499-0.53329-4.4972-0.90248-6.5234-1.379-7.4807-1.9816-19.28-1.3916-29.767 0.15777-2.9283 0.88038-4.0968 3.5174-4.9762 4.1968-1.4042 7.3249-3.5174 9.451-6.5679 3.1949 1.8712 8.505 2.07 13.192-0.83305 3.0829-1.9154 8.8054-11.878 8.8054-13.57 0-1.2464-2.272-5.1318-4.3303-7.4028-1.3916-1.5462-4.2527-1.9817-6.3788-1.3127-0.06309 0.01109-0.12622 0.03154-0.15777 0.03154 1.4484-2.5276 1.704-6.9017 1.2685-8.2598-1.1013-3.4733-6.7013-6.9686-9.8183-6.7461-0.81412 0.063088-2.0385 0.65634-3.4174 1.502 0.06309-2.4392-0.55537-4.731-2.0164-6.412-1.827-2.1268-10.475-4.542-13.704-3.7405-1.1896 0.31555-2.2941 1.2906-3.217 2.7611-3.1271-4.987-15.073-2.5055-18.112 0.5459-2.4392 2.4266-0.73522 9.6738 1.0918 14.36 0.76678 1.969 0.66896 3.7402 0.22088 5.3543-0.15777 0.61216-0.31555 1.2685-0.38813 1.9154-4.8759-1.2685-9.4845 1.5367-9.9408 4.898-1.1139 8.1153 4.8535 14.728 11.856 13.67 0.67843 1.8491 1.5904 3.4509 3.4619 5.8329 1.5683 2.0037 1.5367 4.1747 0.73524 7.0355-3.6291 12.846-8.0708 28.954-11.455 41.756-4.6086 17.388 5.9778 31.281 37.526 42.769 20.049 7.3025 30.947 1.8144 34.331-14.505 2.9599-14.338-7.1687-40.777-40.22-31.826" fill="#E83820"/>
  <path d="m99.025 78.879c-7.2248 6.9462-11.644 14.717-15.997 12.958-4.141-1.6693-3.9075-13.358-5.7664-19.826-9.0613 11.555-6.6013 18.323-11.555 18.557-2.9946 0.15777-5.7664-3.7516-8.2153-9.4066-0.22088 4.6531-0.18933 8.5606 0.06309 13.536l0.03155 0.06309c30.658-6.5899 40.086 18.657 37.214 32.55-1.4484 6.98-4.2748 11.967-8.594 14.839 11.221-6.4233 15.418-24.858 10.019-42.146 0.50172-6.4454 1.6693-14.082 2.7926-21.117" fill="#3E3A39"/>
  <path d="m68.448 88.977c0.85829-1.3348 1.4042-3.4843 2.5717-6.3564-2.1931-0.12622-4.4082-0.45755-6.3785-0.9782 0.09463 2.0921 1.401 5.0314 3.8071 7.3359" fill="#E83820"/>
 </g>
 <g fill="#3E3A39" stroke-width="11.132">
  <path d="m52.26 75.724c-0.25244-5.3211-0.28399-11.054 0.0113-16.442 0.02207-0.35658 0.06309-0.69106 0.09463-1.0035-5.6774-5.8109-12.835-6.3006-17.499-3.1615-0.06309 0.70052-0.25244 1.4578-0.46701 2.2593-1.3253 4.6755-2.7484 9.7849-4.1968 15.017 6.2227-1.4799 16.353-0.22088 22.064 3.3284"/>
  <path d="m53.775 89.608c-6.3785 3.3729-22.242 3.5398-27.997-1.502-1.7702 6.2675-4.4748 15.652-3.7847 20.249 7.1355 8.2822 28.03 7.2804 31.882-1.9596 1.1454-2.7611 1.1234-11.822-0.09463-16.787"/>
  <path d="m77.725 117.37c2.2057-11.544-3.7292-21.296-15.228-23.511-2.4834 0.284-5.1094 0.77941-7.9036 1.5367l-0.40075 0.51119c7.8481 3.8851 9.2062 15.518 5.1318 23.099-4.9759 9.2728-14.772 12.713-23.11 10.753 4.3193 3.0514 9.6404 5.9667 16.085 8.7388 12.412 0.22089 22.943-8.1377 25.425-21.129"/>
  <path d="m173.14 141.36c-4.3079 3.0956-9.5845 4.2413-18.201 2.7043-2.0605-9.5738-5.6774-17.244-10.609-20.75-0.53329-0.36603-0.67843-0.33447-0.59008 0.25244 1.1013 6.991 0.7447 14.327 1.0918 21.351-8.7051 3.0608-29.144-0.18933-39.619-5.0762-1.2117-0.55537-1.3569-0.34395-0.36603 0.48911 11.644 9.8628 31.058 14.95 40.643 11.978 0.31555 2.8715 0.57745 5.7219 0.72261 8.583-4.6976 1.1896-13.926 1.9911-22.497 0.22089-0.88038-0.18933-0.90247-0.0316-0.28399 0.46701 5.2097 4.2413 15.228 7.6366 22.821 6.6903-0.18933 4.72-0.93403 9.451-2.5055 14.204 0.82358-0.93403 1.7797-1.7923 2.8936-2.6601 2.1268-1.6377 4.7531-5.0759 6.3451-8.5602 1.2464 1.4578 2.3256 2.9725 3.2284 4.5417 0.25244-2.3035 0.44492-4.6196 0.55537-6.9352 5.5212-1.4799 10.92-4.8535 12.98-8.9948-4.0744 1.9596-8.8613 2.3162-12.88 1.7134-0.0631-3.4953-0.32186-6.9352-0.72261-10.23 7.9594 1.0792 15.496-3.0388 17.477-9.7183 0.18932-0.63425 0.12622-0.73522-0.48911-0.28399"/>
 </g>
 <g stroke-width="11.132">
  <path d="m155.98 187.74c0-3.1492-1.3916-5.8778-3.5288-7.915 0.37866 4.9428-1.2243 7.4808-2.9062 7.7256-6.8014 1.035-9.3397 4.3082-9.2172 8.4826 0.12622 4.3303 2.9946 8.015 8.4157 7.7925 8.5271-0.35658 11.5-9.1617 7.2359-16.086" fill="#FFF200"/>
  <path d="m215.14 258.43c0.76679-0.88985 0.77941-1.7134-0.28399-2.0479-1.0792-0.34395-3.2281-0.5459-4.7421-0.4891-0.77941 0.0221-0.96874 0.76678-1.2243 1.3127-1.0792 2.3035-3.4174 5.6218-6.3006 7.2804 4.152 0.0631 9.718-2.7264 12.557-6.0557" fill="#fff"/>
  <path d="m221.9 212.67c-1.1896-2.4708-1.7923-3.8626-2.5276-6.9686-2.9283-12.535-8.3381-29.255-17.299-45.942-4.2972-8.015-8.6944-19.648-9.8632-25.414-2.4929-12.223-6.6679-23.377-12.479-27.496-0.60269 2.6727-1.1928 4.7424-1.4263 6.4678-0.22089 1.7134-0.0631 2.9062 0.41336 4.909 2.6601 11.366-1.3568 23.021-5.9781 27.696-1.237 4.4306-2.2373 9.7294-2.5938 14.694 1.5904 6.234 6.8907 13.203 15.752 22.064 5.7664 5.7664 15.251 17.199 17.511 22.075 1.7923 3.863 1.6692 7.1469-1.4705 9.7073-8.7385 7.1245-11.678 10.854-13.47 15.73-1.3916 3.7626-0.85829 8.9724 4.3638 11.544 4.9535 2.4266 9.9184-1.0003 10.987-7.2248 0.59008-3.4174 2.4929-8.4157 4.6086-9.5621 2.4392 4.8424 2.3035 15.484-0.73523 22.442-1.5588 3.5512-1.3821 7.759 1.603 9.0948 0.18933-0.25244 0.41338-0.43546 0.79204-0.44492 1.5146-0.0631 3.6736 0.15777 4.7424 0.4891 0.81411 0.25244 1.0034 0.77941 0.71314 1.4137 0.18933-0.0315 0.37866-0.0631 0.55537-0.12622 2.4834 3.7178 7.4918 3.8627 11.455-0.50172 1.8933-2.0826 2.9725-4.82 3.384-7.8591 1.6598-2.7926 2.1804-6.1671 1.827-9.6628 1.7482-9.7404-6.7237-18.523-10.865-27.128" fill="#E83820"/>
  <path d="m216.66 258.43c-1.4136 2.4487-3.4954 5.0873-6.2002 7.2359 3.6957 0.7447 9.7849-1.7134 12.345-5.3656-2.3477 0.59008-4.5976-0.0946-6.145-1.8712" fill="#fff"/>
 </g>
 <g fill="#3E3A39" stroke-width="11.132">
  <path d="m188.57 185.22c2.272 2.4487 4.798 5.3656 7.1245 8.2488 1.7482-6.4009 9.7294-10.921 17.499-8.8389-1.502-4.1855-3.217-8.5271-5.1652-12.935-7.9481-1.8933-19.247 3.2839-19.459 13.525"/>
  <path d="m219.75 206.99c-0.12622-0.43546-0.22088-0.90248-0.35658-1.4263-0.64688-2.7264-1.4042-5.655-2.294-8.7385-5.0649-3.6847-13.548-0.34395-15.073 5.3211 0.59008 0.94665 1.0792 1.7829 1.401 2.4834 0.78889 1.704 1.2022 3.2839 1.1581 4.7421 4.7421-3.105 11.499-4.3303 15.162-2.3824"/>
  <path d="m193.18 137.89c-6.3451 4.6196-14.349 7.5473-20.717 8.861-1.1139 4.2079-1.9911 9.0503-2.3161 13.614 0.73524 2.9062 2.294 5.9667 4.6197 9.3065 6.4568-7.6142 16.086-12.546 25.76-13.18-2.9599-6.0671-5.7777-13.314-7.3473-18.602"/>
 </g>
 <path d="m199.24 296.92c-0.0315-2.3035-1.4137-3.5178-3.7626-4.1078-2.6727-0.66897-4.9425-0.90247-7.3694-0.77941-3.0388-1.2685-5.9554-2.5276-8.4157-3.4733-1.2464-5.566-3.3284-16.564-4.4972-23.11-1.1675-6.5344-2.414-18.401-2.9283-26.906-0.64688-10.698-1.5462-20.961-2.5717-28.731-0.34395-2.638-0.72261-3.5067-2.3161-5.488-0.59008-0.73524-1.3569-1.969-1.7261-3.4064-1.4926 5.7105-6.6682 9.5845-11.021 7.3914-4.72 6.3009-13.603 4.9762-17.021-1.0697-3.7516 3.2953-10.442 1.6914-11.355-5.4101-2.739 2.638-3.9964 6.2006-4.2413 9.0727-3.206-2.5591-5.3656-6.0557-5.8219-9.0282-2.6727 1.2243-4.1968 4.7314-4.1634 7.659-2.7705-2.171-4.5976-6.4899-4.809-10.186-1.3348 3.004-3.774 5.2211-6.4899 6.9352-1.7702 1.1139-3.6291 2.6285-4.631 4.6755l-0.25245 0.67843c-2.1584 9.1951-8.5716 24.168-15.151 37.537-3.2284 6.5454-6.323 11.099-9.4845 15.93-3.5178 5.3766-9.4845 22.186-12.346 34.142-2.1931 1.6819-3.8292 2.9062-5.7105 4.542-1.8365 1.5904-2.8147 4.3413-2.862 7.7701-0.03154 2.862 1.3916 4.987 4.2523 5.566 3.8295 0.78889 14.438 1.1013 20.817 0 4.4417-0.75731 5.0873-2.4266 5.2766-8.0598 0.06309-2.1268-0.8015-3.6623-2.7832-4.8424-1.9817-1.1675-3.7405-2.5591-5.2766-4.809 4.5976-12.902 16.631-27.251 28.542-38.416 5.0983-4.7869 7.4473-7.2024 10.943-10.943 11.989-12.813 17.833-18.924 25.436-21.652 13.67 16.464 24.39 40.253 29.689 61.827-0.34395 3.0735-0.63425 5.7664-0.83619 8.4047-0.12623 1.8491 0.28399 2.6601 2.1584 3.7626 3.8071 2.2278 9.3286 4.6421 14.026 6.3006 2.4266 0.86777 4.1968 0.48911 6.6903-0.15777 2.4928-0.63425 8.9389-2.8841 9.4286-3.963 0.4891-1.0697 0.63425-5.1318 0.59008-7.6698" fill="#E83820" stroke-width="11.132"/>
 <g fill="#3E3A39" stroke-width="11.132">
  <path d="m172.8 245.49c-6.2002 4.0965-16.42 5.5436-21.262 3.885 2.2278 4.1189 4.2861 8.3936 6.1785 12.746 5.2542 1.726 12.946 1.0003 16.631-2.4392-0.57745-4.2858-1.1234-9.3731-1.5462-14.193"/>
  <path d="m179.68 288.4c-0.76679-3.4619-1.8365-8.8944-2.8179-14.071-3.1176 2.414-9.9629 2.8494-13.926 1.4263 1.6693 4.8648 3.105 9.7404 4.2744 14.494-0.0111 0.0224-0.0111 0.0315-0.0111 0.0631 3.7405 1.2022 8.9278 0.12622 12.479-1.9248"/>
  <path d="m82.174 246.12c-0.4891 1.0129-0.96874 2.0164-1.4705 3.004-3.1725 6.4565-6.2227 10.976-9.3397 15.73 1.4705 4.5862 9.8187 9.6625 16.898 9.5511 4.0633-4.7645 8.4716-9.3286 12.88-13.459 0.71314-0.66896 1.3695-1.2811 1.9817-1.8712-7.5363-1.4137-17.344-7.4363-20.95-12.958"/>
  <path d="m59.77 295.66c2.9504 2.9062 8.3157 4.4417 13.036 3.0829 1.5146-4.0854 3.7626-8.3043 6.501-12.512-6.0778-0.15778-11.588-2.4834-14.883-5.5439-1.7134 4.8759-3.3732 10.164-4.6534 14.973"/>
 </g>
 <g stroke-width="11.132">
  <path d="m53.333 218.67c-1.9817-0.91195-3.9406-1.6914-5.8774-2.3824-5.9446-0.0315-9.4176 5.3767-10.052 10.397-0.70052 5.5325 1.2685 10.33 6.3561 12.49 2.0037 0.18934 4.1747 0.42284 6.5458 0.8015 13.859 2.2152 28.676 1.0129 36.201-3.0955 3.3619-7.158 6.9462-16.598 8.3823-21.83-14.082 7.3804-28.542 9.618-41.556 3.6178" fill="#E83820"/>
  <path d="m85.141 219.3c-7.0686 2.4266-14.126 3.3843-20.939 2.5055-6.0671 3.9961-7.3807 14.104-0.86776 19.28 9.3841 0.0946 18-1.3569 23.177-4.1855 0.50172-1.0918 1.0129-2.2278 1.5241-3.3843-4.2634-2.3698-5.3988-9.3621-2.8936-14.216" fill="#3E3A39"/>
  <path d="m41.784 238.23c-3.6067-2.4613-4.9759-6.6568-4.3748-11.399 0.63425-5.0204 4.1078-10.442 10.052-10.408 0.50172 0.18933 1.0035 0.36919 1.502 0.55537 1.1928-2.2593 2.2278-4.3079 3.3508-7.0576-2.638-0.0631-7.2804 0.63426-10.164 1.805 0.03154-3.0735-0.15777-7.2804-0.34395-10.208-2.739 2.3382-5.1763 4.6866-7.4807 7.18-2.4928-3.8071-4.8869-7.2356-8.4047-10.943-0.63426 4.6866-1.0792 10.898-1.0224 14.906-3.2729-2.2499-7.7259-3.7178-12.613-3.4729 1.2685 5.1763 3.1271 9.8739 6.9465 14.805-2.4045 1.5146-5.1876 3.7626-7.3804 5.9667 3.1725 0.38813 6.5899 1.1675 9.718 2.537-1.6598 5.2766-2.8273 12.123-3.3729 18.379 3.4733-3.9185 7.1355-7.1355 10.075-9.3396 0.97821 2.8841 1.8049 5.0314 3.4174 7.091 0.34395-2.1047 1.0792-4.5976 2.0037-6.7906 2.537 2.3382 5.3767 3.9075 8.5495 4.4862-0.33449-2.537-0.53329-4.9314-0.57746-7.7146z" fill="#3E3A39"/>
  <path d="m21.558 232.23c-3.1271-1.3695-6.5458-2.1489-9.7297-2.537 2.2025-2.2057 4.9873-4.453 7.3807-5.9667-3.0608-3.9744-4.8648-7.7815-6.1116-11.811-7.3025 0.75731-12.924 7.091-12.401 14.594 0.51119 7.4473 7.2024 12.913 18.958 13.459 0.53329-2.7611 1.1675-5.3991 1.9028-7.7367" fill="#E83820"/>
 </g>
 <g fill="#C92F19" stroke-width="11.132">
  <path d="m88.675 74.777c9.1282 3.4509 18.947 8.104 28.409 13.269-0.18933 0.65634-0.62478 1.3127-1.3253 1.4705-8.1374-4.5086-19.314-10.631-27.084-14.739"/>
  <path d="m121.52 87.715c9.529-7.258 21.373-14.26 30.713-18.001-9.3842 6.0115-23.31 13.86-29.099 19.726-0.73522-0.22088-1.2464-0.81096-1.6156-1.7261"/>
  <path d="m102.34 91.501c-1.8586-0.53328-3.384-1.1581-4.8645-2.3919 0.18933-2.0258 0.53328-5.0428 1.2464-8.4157 0.31555 3.5398 1.5588 7.4249 3.6178 10.809"/>
 </g>
 <g stroke-width="11.132">
  <path d="m97.384 103.49c2.5623 0.59954 5.377 0.69105 7.9705 0.25244-1.1139-1.2022-1.9911-2.2814-2.5591-3.5064-1.8049 1.2243-3.3284 2.1489-5.4101 3.2505" fill="#595757"/>
  <path d="m104.29 103.81c0.8015 1.4926 1.8807 2.3256 4.1078 3.0388 4.9649 1.5935 11.199 2.9062 15.874 3.5622 5.8557 0.83621 8.9613 0.65634 12.446-0.88986 1.3127 1.1013 2.07 1.8712 3.4843 3.3619 1.8807 1.969 3.785 1.1581 2.8052-1.0034-0.82359-1.8365-1.0571-2.7169 0.18933-3.1397 1.2243-0.42283 3.6626-1.2022 6.0781-1.3695 5.2656-0.36603 9.5514-1.5367 12.546-3.9185l-0.88039-0.59955c-7.7812 4.052-17.811 2.1805-22.609-1.8144-2.537 6.7903-5.7998 8.5382-13.247 7.7367-6.3006-0.69106-11.655-1.827-16.476-3.2615-1.9817-0.59008-2.7043-1.1802-3.1271-1.8586z" fill="#595757"/>
  <path d="m103.47 85.19c-0.18933-0.92456-0.18933-1.6377-0.12622-2.3256-0.43546-0.22088-0.84567-0.45755-1.2685-0.67844-0.22088 0.66897-0.41337 1.4263-0.51119 2.0826 0.59008 0.25244 1.1707 0.55537 1.9028 0.92456" fill="#C92F19"/>
  <path d="m99.246 83.297c0.93403 0.37866 1.6377 0.66897 2.3256 0.99083 0.12622-0.65634 0.31555-1.4137 0.52382-2.0826-0.95612-0.5112-1.9249-1.0255-3.0388-1.6251-0.06309 0.77942 0.03154 2.0606 0.18933 2.7169" fill="#2F2725"/>
 </g>
 <g fill="#C92F19" stroke-width="11.132">
  <path d="m115.81 91.501c1.0697 0.4891 2.8147 1.1139 3.4729 1.1139 0.64688 0 3.0167-0.66896 4.0968-1.2243-0.32186 1.0003-2.9062 2.2499-4.0633 2.2941-1.1454 0.03154-3.7402-1.5241-3.5064-2.1805"/>
  <path d="m101.49 97.181c-1.6819 1.0035-3.6512 1.8049-5.2429 2.2152l-0.02239 0.77941c0.38812 1.0697 0.75732 2.1047 0.9782 3.4285 1.401-0.75733 3.7402-2.1268 5.7108-3.4285-0.70052-1.1139-1.0918-2.0037-1.4263-2.9946"/>
  <path d="m101.99 97.497c1.6156 2.5276 3.9633 5.1428 5.6774 5.8667 3.8406 1.6251 14.939 3.5509 19.247 3.7847 5.8219 0.31555 7.8256-1.237 10.008-6.7682 0.59008-1.4926 1.4484-1.7797 2.7484-0.73522 5.9557 4.8424 15.83 4.6752 23.377 1.379-4.3637 4.6421-16.542 6.5903-24.746 0-1.7261 5.8109-5.0094 8.2822-11.477 7.8146-4.6307-0.32186-16.676-2.171-20.037-4.2079-1.3348-0.80149-3.9295-3.8516-4.7979-7.1355"/>
  <path d="m151.88 97.497c11.577-1.259 20.215-6.8686 24.98-13.091-2.2814 6.1002-8.4713 12.702-21.952 14.795-1.1928-0.47964-2.0921-1.0255-3.0293-1.704"/>
  <path d="m179.8 64.048c-3.2726 9.2841-11.488 18.034-22.921 23.166 1.1675 0.15777 3.3063 0.15777 4.7421 0.09463 10.509-5.3767 18.134-15.206 18.179-23.266"/>
  <path d="m151.56 64.995c0.75733 3.5957 0.90247 8.8723-2.1489 12.189l2.6822-0.73524c2.1489-3.5622 2.2814-9.529-0.53328-11.455"/>
  <path d="m90.347 64.048c-0.25244 3.1615-0.03154 7.2135 1.36 10.809l-2.1836-0.82359c-1.2243-4.0409-0.77941-9.0613 0.82358-9.9853"/>
  <path d="m74.349 76.039c-3.6623-4.0299-6.3785-9.6404-7.4025-16.119-0.72262 6.7572 1.9596 13.459 6.2337 18.145 0.38812-0.72261 0.78887-1.4263 1.1675-2.0258"/>
  <path d="m86.466 82.666c-2.7264-0.37867-5.3208-1.2464-7.7367-2.8147 0.09463 0.83621 0.25244 1.9028 0.40074 2.862 2.7611 1.4137 5.7664 2.0605 8.7499 1.6598 0.62479-0.62479 0.18933-1.4799-1.4137-1.704"/>
  <path d="m64.914 81.719c1.3569 2.4266 2.6822 4.0409 4.4193 5.2432-0.12622 0.57745-0.42284 1.3569-0.88038 1.969-1.8365-1.3348-3.9075-5.2987-3.5398-7.2135"/>
  <path d="m81.67 25.551c2.1804 2.5055 1.5241 7.7811-5.0649 12.846-2.7831 2.1489-4.9983 2.6506-8.5047 2.7705-0.60271 2.1047-1.0476 3.9406-2.7611 6.6568 3.295 2.2152 10.508 1.9028 14.182-1.8365 3.6733-3.7292 7.7142-11.132 7.6587-12.59-0.06309-1.4578-2.2152-5.9443-5.5105-7.848"/>
  <path d="m75.327 13.56c0.92455 3.963 0.12622 7.7256-1.1234 9.3176-0.81412 1.0224-2.3161 1.8933-5.1876 3.0735 2.0826-0.12622 5.2987-0.76679 7.5697-1.603 2.1047-6.1113 1.7134-8.9279-1.2591-10.787"/>
  <path d="m60.37 3.463c2.1489 3.6067 2.1047 7.3138-4.2744 12.123-0.76679 0.57746-1.4705 0.75733-2.3256 0.8583 1.237 0.8583 2.5149 0.69105 3.8961-0.43546 2.2372-1.8049 4.3303-3.4174 6.6124-4.7979 0.43546-2.8052-1.0129-6.5455-3.9071-7.7477"/>
  <path d="m43.015 1.885c-1.1802 2.9819-1.8586 7.258-1.7355 11.121 0.0113 0.52381-0.03154 0.65634-0.4323 0.91194-1.2591 0.83305-1.9375 1.5241-2.1489 2.0605 0.95612-0.44492 2.2278-1.1013 3.9075-1.7261 0.18933-2.9157 0.92456-7.9149 2.8715-10.687-0.77941-0.85829-1.2022-1.2685-2.4613-1.6819"/>
  <path d="m18.907 29.653c0.12622 5.3991 3.9296 12.034 10.608 12.813l0.69105 2.1047c-9.9742 1.0034-13.637-9.5179-11.299-14.917"/>
  <path d="m35.82 71.937c-1.9028 0.03154-3.8295 0.22088-5.8112 0.59008-1.3695 4.9649-2.8399 10.375-4.2744 15.685 1.9816 1.6251 4.4193 2.5149 6.6234 3.0608 0.91194-6.323 2.1268-12.802 3.4622-19.336"/>
  <path d="m56.489 123.05c-6.4902-1.2022-12.924-3.4174-18.613-6.5455-1.7702-0.9782-3.1729-1.8933-4.2413-2.9599-4.542-0.3692-8.583-2.1489-11.778-5.2321 0.28399 2.7169 1.1013 5.5104 2.6064 8.9279 1.9817 4.4972 6.5455 8.9055 12.256 12.835 7.9815 0.88039 14.694-1.1234 19.77-7.0241"/>
  <path d="m93.787 113.27c-3.5733 5.6329-10.119 8.9948-17.911 10.33-3.5512 8.7609-12.846 15.073-23.589 15.173 8.4492 3.6847 16.798 6.0557 21.997 6.2895 20.628 0.88986 23.4-20.772 19.503-31.793"/>
  <path d="m35.031 47.955c-2.3824-1.7702-3.8737-3.4174-5.3987-5.7329 0.25244 2.3698 1.827 5.5215 3.6067 7.4473 1.2243 1.3253 1.7134 2.9504 1.4705 5.1318 1.259-0.62479 2.414-1.0697 3.6733-1.401-0.46701-2.2152-1.5367-4.0965-3.3505-5.4436"/>
 </g>
 <g fill="#2F2725" stroke-width="11.132">
  <path d="m38.218 60.262c0.51119-2.414 0.59008-4.709 0.15777-6.7348-1.2464 0.33449-2.4045 0.79204-3.6736 1.4042-0.06309 0.72262-0.25244 1.5146-0.4891 2.3698-1.0792 3.7071-2.5717 9.0613-4.2192 15.062 1.9817-0.36604 3.9075-0.55537 5.8109-0.59008 0.77941-3.8182 1.5904-7.6587 2.4045-11.51"/>
  <path d="m33.643 113.59c-2.2499-2.2593-3.0167-5.2208-2.6033-10.921 0.28399-3.8071 0.72261-7.7032 1.3032-11.655-2.2057-0.5459-4.6421-1.4358-6.6234-3.0608-0.88038 3.2615-1.7481 6.4675-2.5591 9.5176-1.136 4.2192-1.6377 7.4921-1.2906 10.887 3.195 3.0829 7.2359 4.8648 11.778 5.2321"/>
  <path d="m75.863 123.69c-5.9888 1.035-12.702 0.86777-19.38-0.36604-5.0652 5.8998-11.778 7.9036-19.77 7.0242 4.6865 3.2394 10.152 6.145 15.574 8.5161 10.731-0.0946 20.037-6.423 23.577-15.173"/>
  <path d="m98.836 79.195c-2.2278 5.2766-3.874 12.011-4.8093 18.568-0.55537 3.9406-3.1492 5.2208-8.0595 1.9469 11.477 11.299 11.933 30.769 3.3729 39.752 10.197-6.3896 10.921-27.541 6.8907-39.363 0.55537-5.8443 1.4926-14.928 2.6033-20.906"/>
  <path d="m77.031 72.253c-0.15778 5.8998 0.44492 13.614 1.6819 16.865 1.237 3.2505 3.1839 4.1634 5.8557 3.5067-2.5149-0.8015-3.7737-2.7043-4.3972-5.2432-1.2906-5.2097-2.0164-13.503-3.1397-15.128"/>
  <path d="m57.688 82.666c1.0034 4.052 2.537 7.2693 4.9317 8.9168 1.1802 0.81096 4.1075 0.75733 5.577-1.1928-2.638 0.92456-4.3303 0.65634-5.9667-1.2464-1.6377-1.9154-3.2505-3.8185-4.542-6.4789"/>
  <path d="m170.81 111.06c2.4834 2.2372 4.5976 1.502 5.466-1.2591 1.8491-5.8222 4.141-12.201 7.9481-18.256-2.3161 7.5139-4.4193 14.906-5.5881 20.182-0.51119 2.3256-0.55537 4.063 0.0316 6.2561 1.969 7.1579 0.38812 21.874-5.9447 27.863 0.55537-1.7702 1.237-3.6847 2.1268-6.0226 3.2618-8.5382 1.969-18.223-4.052-28.765"/>
  <path d="m166.2 95.603c0.0631 4.4751 2.3824 6.6793 5.9891 5.2542-2.7832 0.0315-3.2839-1.1581-3.4398-2.8494-0.15778-1.6913-0.15778-3.0167-0.0631-4.0965-1.0129 0.77941-1.4263 1.1139-2.4834 1.6913"/>
 </g>
 <g stroke-width="11.132">
  <path d="m146.26 168.49c-7.5922 0.95612-17.611-2.4487-22.821-6.6903-0.6248-0.51119-0.59956-0.64687 0.28399-0.46702 8.5716 1.7702 17.8 0.95612 22.498-0.22088-0.15779-2.8494-0.41338-5.7105-0.72262-8.5826-9.5848 2.982-28.999-2.1047-40.643-11.967-0.99083-0.84567-0.84567-1.0571 0.35658-0.50172 10.486 4.8756 30.925 8.1374 39.63 5.0873-0.0946-1.6472-0.12622-3.2953-0.15777-4.9649-13.002 4.4751-36.98-3.696-47.144-15.095-3.2394 14.216-13.737 21.863-23.477 20.037 3.0829 4.8424 10.675 10.876 19.447 16.52 5.4436 3.5064 8.3936 7.0131 9.0503 12.991 0.50172-0.45755 1.035-0.91194 1.603-1.3569-0.4891 2.3698-0.0946 5.1318 1.827 7.6811 1.1234 1.4926 2.2499 3.295 2.9504 4.9538 0.54589-5.1208 3.5512-8.8278 6.8127-10.197-0.93403 3.3619 1.2811 7.258 3.863 8.6161 1.6914-4.6976 6.234-8.1595 9.2283-9.3286-0.36604 2.1584-0.0111 4.9317 1.237 6.5123 0.56799 0.71314 1.0034 1.5146 1.3348 2.4708 1.136-1.259 2.5055-2.3603 4.0075-3.2174 2.1804-1.2369 3.874-2.5717 5.3991-5.1428 0.59008 1.9154 0.45755 4.2634 0 6.0557-0.44492 1.7923-0.15777 3.5733 0.55537 4.7869 0.64688-1.4705 1.4358-2.6727 2.395-3.7626-0.0111 0-0.0111 0-0.0111 0.011 1.5683-4.7645 2.3035-9.4955 2.5055-14.216" fill="#595757"/>
  <path d="m153.39 138.2c0.59008 1.8712 1.1139 3.8516 1.5588 5.9222 8.6161 1.5367 13.904 0.38812 18.201-2.7043 0.63425-0.44494 0.69106-0.35658 0.50173 0.28399-1.9817 6.6792-9.529 10.798-17.488 9.7183 0.41021 3.295 0.64688 6.7348 0.72261 10.242 4.0188 0.59008 8.8054 0.22089 12.891-1.7261-2.07 4.141-7.4694 7.5139-12.991 8.9944-0.0946 2.3162-0.28399 4.631-0.55537 6.9352 1.4042 2.4487 2.3698 5.0428 2.7832 7.8036 1.8144-1.7702 2.6822-5.0759 2.6727-7.7701 2.5938 2.4266 3.9851 5.0987 4.5196 9.0617 0.72261-3.6067 1.3695-6.5347 2.0038-8.9168 0.0631 0.0316 0.0946 0.0631 0.15777 0.12622 0.88038-4.631 1.3916-9.0948 1.7355-13.659 0.55537-7.5142 1.726-15.974 4.6752-22.475 0.75731-1.6819 1.2685-3.5512 1.5462-5.5215-6.9907 7.258-17.945 7.8367-22.932 3.6957" fill="#595757"/>
  <path d="m169.77 159.97c-4.0854 1.947-8.872 2.3035-12.891 1.7134-0.0631-3.5067-0.31555-6.9352-0.72261-10.23 7.9591 1.0697 15.507-3.0388 17.488-9.7294 0.18934-0.62163 0.12623-0.72261-0.48909-0.25244-4.3079 3.0956-9.5956 4.23-18.212 2.7043-0.44494-2.0826-0.96875-4.052-1.5588-5.9222-0.0221-0.0221-0.0631-0.0315-0.0631-0.0631-1.6819-1.4358-2.7611-1.4137-5.0314 0.12622-1.0697 0.72261-2.272 1.3032-3.5847 1.7576 0.0316 1.6598 0.0631 3.3174 0.15778 4.9535-8.7051 3.0608-29.132-0.22088-39.619-5.0759-1.2022-0.55537-1.3474-0.34395-0.35658 0.48911 11.644 9.8628 31.058 14.95 40.643 11.978 0.31555 2.862 0.56799 5.7219 0.71314 8.5716-4.6976 1.1928-13.915 2.0037-22.498 0.25244-0.86777-0.18933-0.90248-0.0315-0.25244 0.46701 5.1987 4.23 15.228 7.6366 22.821 6.6792-0.22088 4.731-0.93403 9.451-2.5055 14.216v-0.0114c0.61217-0.70053 1.3032-1.3569 2.07-1.9911 0.25244-0.22089 0.53328-0.44493 0.82358-0.65635 2.1268-1.6377 4.7535-5.0763 6.3451-8.5606 0.28399 0.32187 0.5459 0.65635 0.81411 0.99083 0.0631 0.0631 0.0946 0.12622 0.15778 0.18933 0.25245 0.33449 0.53329 0.67844 0.77941 1.035v0.011c0.25245 0.35657 0.51119 0.73523 0.75732 1.1013 0 0.0111 0.0113 0.0315 0.0316 0.0631 0.22088 0.37866 0.46701 0.75732 0.69105 1.1454 0.25244-2.3162 0.44492-4.631 0.55537-6.9352 5.5215-1.4799 10.921-4.8538 12.991-8.9948" fill="#2F2725"/>
 </g>
 <g fill="#C92F19" stroke-width="11.132">
  <path d="m193.15 175.44c-3.1176-5.1318-5.6326-9.8742-7.6477-14.483-4.2858 2.4171-7.8812 5.0873-10.709 8.7833 3.8406 5.3322 9.1838 10.82 12.69 14.371 0.35656 0.35658 0.71313 0.73524 1.0792 1.1139 0.25244-3.5288 1.4926-7.3359 4.5862-9.7849"/>
  <path d="m207.03 196.26c-0.44492-0.77941-0.93403-1.5462-1.4705-2.294-1.7797-2.4928-3.4619-4.8869-5.0314-7.1804-2.5717 1.6377-3.963 3.863-4.8983 6.5903 2.6506 3.295 4.9873 6.4454 6.323 8.5161 0.90247-2.2278 2.2372-4.1299 5.0762-5.6329"/>
  <path d="m178.89 132.84c-1.2117 5.577-3.5954 10.52-6.1337 12.857-0.12622 0.33449-0.22088 0.66896-0.32185 1.0255 2.8715-0.54591 5.1652-1.1234 7.8925-2.1489-0.72261-3.7516-1.1928-7.6142-1.4358-11.733"/>
  <path d="m204.1 216.14c3.295-2.6727 4.9649-5.7774 5.4101-9.0168-1.8807 0.59955-3.4957 1.2906-4.8314 2.2372 0.0111 1.8807-0.7794 3.5509-2.7169 5.0314-4.5086 3.4398-9.2841 8.2933-12.167 12.657-3.7626 5.6884-2.1047 12.089 3.0167 14.36 7.9484 3.5288 10.832-4.1078 11.41-9.9408-3.1271 7.6142-8.1484 6.7458-10.141 5.1428-4.4972-3.6288-1.5241-11.099 10.019-20.472"/>
 </g>
 <g fill="#2F2725" stroke-width="11.132">
  <path d="m185.48 161.24c-2.4045-5.4991-4.0851-10.82-5.1652-16.397-2.7264 1.0129-5.0314 1.603-7.9036 2.1363-1.237 4.0965-1.8491 9.6735-2.272 13.681 0.39128 2.7169 2.2152 6.0112 4.631 9.3617 2.84-3.6957 6.423-6.3675 10.709-8.783"/>
  <path d="m200.53 186.8c-2.7611-4.0299-5.21-7.7925-7.3807-11.366-3.0829 2.4613-4.3192 6.2561-4.5862 9.7963 2.2814 2.4045 4.7866 5.3322 7.0686 8.1598 0.93403-2.7264 2.3256-4.9538 4.8983-6.5903"/>
  <path d="m207.03 196.26c-2.8399 1.502-4.1744 3.4064-5.0759 5.6329 0.32186 0.50172 0.59008 0.94664 0.78888 1.3127 1.1802 2.2057 1.9154 4.1858 1.9248 5.9667 1.3348-0.94665 2.9599-1.6377 4.8311-2.2372 0.47963-3.5291-0.5112-7.2248-2.4708-10.676"/>
 </g>
 <g fill="#C92F19" stroke-width="11.132">
  <path d="m209.15 225.29c2.6506 6.1337 3.4398 15.373 1.4799 23.188-1.1802 4.7424 4.4417 7.4583 8.0708 4.4527 2.272-1.8933 3.1492-4.9425 3.217-10.464 1.0792 5.6215 0.83621 14.171-6.2561 15.295 0.0631-1.1675-0.43546-1.3127-1.805-1.5588-1.3695-0.25244-2.0479-0.34395-3.0293-0.284-0.9782 0.0315-1.3695 0.284-1.6125 0.63425-3.4174-0.97821-2.7832-6.312-1.2243-9.9297 1.5683-3.6067 3.1271-12.891 1.1581-21.329"/>
  <path d="m220.35 255.27c2.739 1.8586 10.208-1.3695 9.4842-16.464 5.3211 16.319-7.3359 26.483-13.637 18.902 1.4705-0.43546 2.982-1.4578 4.152-2.4392"/>
  <path d="m229.44 230.03c1.8018 4.4306 1.6598 8.4826 0.92457 9.9742 0.4891 2.537 0.83621 5.6105 0.69105 8.3491 3.1726-4.9317 1.6156-13.236-1.6125-18.323"/>
  <path d="m228.62 224.66c0.53328 1.5683 1.0255 3.8516 0.77941 4.9314 1.1802 2.2499 2.7926 6.3564 3.2726 8.8944 0.54591-3.7626-1.0697-9.6735-4.052-13.826"/>
  <path d="m52.418 304.5c-1.5241 5.0873-0.33449 9.0058 3.0955 9.5735 6.9241 1.1454 11.744 1.237 19.158 0.28399 3.5177-0.45755 5.3101-2.5938 5.5325-7.4363 0.36604 3.3174 0.44492 5.4436-0.18933 7.08-0.65634 1.6472-1.6819 2.4928-4.6976 3.1176-5.2766 1.1139-15.863 0.99083-20.171 0.12622-6.7793-1.3916-5.577-8.683-2.7169-12.735"/>
  <path d="m169.17 276.41c-1.1234-4.4638-2.3477-8.8944-3.696-13.269-2.4487 0.31555-5.2321-0.12622-7.7367-0.88038 1.8586 4.3192 3.5957 8.8386 5.1652 13.548 2.2057 0.5459 4.4417 0.70052 6.2675 0.59954"/>
  <path d="m71.54 300.71c1.0476 1.4358 2.2373 2.171 5.2766 3.2505-2.2373-1.7481-3.7402-3.3174-4.2969-4.82 0.03154-0.0631 0.06309-0.15777 0.09463-0.22088-0.63425 0.12622-1.2811 0.22088-1.9469 0.28399 0.22088 0.50172 0.51119 1.0003 0.86776 1.4926"/>
  <path d="m160.87 249.91c-2.7926-7.169-6.0778-14.204-10.074-21.084-4.8759-8.4157-10.141-10.23-18.012-6.6679-7.3248 3.3174-14.305 9.2062-25.147 22.397-3.9072 4.7424-7.4139 8.8165-10.742 12.624 1.7355 0.72262 3.7626 1.3348 5.8219 1.8933 4.0633-4.1189 8.4157-8.5606 13.459-13.748 6.5458-6.7458 15.151-15.54 21.207-16.865 4.9983 5.8556 9.8742 13.036 14.316 21.296 3.2508 0.64688 6.5234 0.5459 9.1727 0.15778"/>
  <path d="m198.89 295.34c-0.12622 3.3063-0.83621 4.72-2.3603 5.8667-1.5241 1.1454-7.5032 2.8368-10.553 2.638-2.9062-0.18933-7.3359-2.294-10.364-4.2079-3.1615-1.9817-3.4733-2.7169-3.3395-5.3991 0.0631-1.2022 0.0315-2.3256-0.0631-3.5843-1.7576 0.15777-3.5512-0.0315-5.1542-0.41022 0.0631 2.2246-0.53327 5.9443-0.80149 7.7812-0.284 1.8586 0.40074 2.9283 2.1268 4.1299 3.3953 2.3382 14.193 6.9131 16.72 7.002 2.5276 0.0946 12.234-2.9283 13.392-4.6531 0.81412-1.237 1.0129-5.5884 0.38812-9.1617"/>
  <path d="m75.548 285.88c1.1581 0.22088 2.4487 0.34394 3.7513 0.42283 2.3603-3.7626 5.1766-7.6145 8.7609-11.833-1.5367-0.0315-3.2615-0.31555-4.9204-0.73523-2.982 4.152-5.4212 8.115-7.5918 12.145"/>
 </g>
 <g fill="#2F2725" stroke-width="11.132">
  <path d="m165.48 263.16c-1.3821-4.4751-2.9062-8.8944-4.6086-13.269-2.6506 0.38813-5.9222 0.48911-9.1727-0.15777 2.1268 3.9516 4.1523 8.1374 6.0447 12.546 2.5055 0.76678 5.299 1.1802 7.7366 0.88038"/>
  <path d="m172.23 290.61c-0.12622-1.5241-0.42284-3.2729-0.96873-5.6439-0.65635-2.8841-1.3474-5.7553-2.07-8.6051-1.827 0.0946-4.063-0.0631-6.2671-0.59955 1.5462 4.6086 2.9378 9.3955 4.1634 14.338v0.0946c1.5904 0.36605 3.384 0.568 5.1428 0.41023"/>
  <path d="m90.631 264.42c-2.8715 3.3174-5.3208 6.423-7.4918 9.44 1.6472 0.43546 3.3732 0.70053 4.9093 0.7447 2.3256-2.7484 4.9759-5.6326 8.0484-8.7496 2.1489-2.1931 4.3303-4.3972 6.6013-6.7127-2.0479-0.55537-4.0854-1.1581-5.8109-1.8933-2.1489 2.4613-4.2192 4.809-6.2564 7.169"/>
  <path d="m70.815 295.66c-0.63425 1.4042-0.59008 2.5591-0.15777 3.6512 0.66896-0.0631 1.3127-0.18932 1.9469-0.28399 1.969-4.3193 4.0523-8.3823 6.6792-12.568-1.3032-0.0631-2.5938-0.22089-3.7513-0.42285-1.6819 3.1271-3.2174 6.3006-4.7314 9.629"/>
 </g>
 <path d="m58.729 231.29c-7.2917-0.45754-14.672-1.8712-21.462-4.1078-0.54591 4.3638 1.1234 8.7054 5.3987 11.744 2.2278 0.15777 4.7979 0.47963 6.8462 0.90247 3.3729 0.67843 8.0929 1.1581 13.18 1.2149-2.3477-2.7484-4.141-6.4123-3.9627-9.7518" fill="#C92F19" stroke-width="11.132"/>
 <path d="m88.012 233.5c1.3127-2.9946 2.5591-6.234 3.6288-8.8054-2.2814 1.4263-4.7866 2.6033-7.4583 3.5733 0.54591 1.9596 1.7923 3.7626 3.8295 5.2321" fill="#C92F19" stroke-width="11.132"/>
 <g fill="#2F2725" stroke-width="11.132">
  <path d="m86.371 236.97c0.55537-1.0792 1.1013-2.272 1.6377-3.5067-2.0385-1.4578-3.2836-3.2726-3.8292-5.2318-7.5363 2.7169-16.431 3.6402-25.437 3.0829-0.18933 3.3395 1.603 7.0021 3.963 9.7628 8.3154 0.0946 17.633-0.95611 23.667-4.1078"/>
  <path d="m12.343 229.71c2.5717-0.92456 9.1058-1.0571 14.638-0.0631 1.136 0.18933 1.827-0.15778 1.8933-1.401 0.03154-0.57745 0.09463-1.1454 0.18933-1.6819 0.2209-1.2906 1.0035-2.0037 2.8052-1.259 1.7481 0.7226 3.5512 1.3916 5.3991 2.0037-0.53328 4.3527 1.136 8.694 5.4101 11.744l-1.0255-0.0631c0 1.8144 0.15778 4.6976 0.53329 7.18-1.9469-0.33448-5.8554-1.603-8.4492-4.4417-1.1234 2.4928-1.8018 4.7869-2.0037 6.8907-1.2685-1.7576-2.7832-4.5417-3.3619-7.0355-3.5178 2.638-7.5697 5.6105-10.208 9.3731 0.69105-5.666 1.704-14.16 3.4177-18.412-2.3382-1.1139-6.1005-2.3382-9.2286-2.8273"/>
  <path d="m12.753 208.88c1.6125 4.0299 4.9428 9.4176 7.3807 11.956 1.0792 1.1139 0.77942 2.6159-0.65634 3.2505-2.5055-2.8936-7.0245-11.933-6.7237-15.206"/>
  <path d="m26.322 197.84c-0.09463 4.1299 0.28399 10.23 0.63425 13.77 0.12622 1.4578-0.95612 2.1363-2.2057 1.3916-0.06309-4.3417 0.57746-11.644 1.5683-15.162"/>
  <path d="m41.374 201.63c-0.12622 2.7832-0.36604 6.7458-0.63426 9.2507-0.12622 1.0129 0.59008 1.4358 1.379 1.1928 0-4.1634-0.18933-8.2378-0.7447-10.442"/>
  <path d="m52.04 209.83c-1.7355 2.0479-3.9633 4.5641-5.477 6.1447 0.88986 0.31555 1.4137 0.52381 2.3382 0.94664 1.1454-2.1047 2.1805-4.2634 3.1397-7.091"/>
 </g>
 <path d="m1.0782 222.77c2.8147 1.7481 9.8963 3.5178 15.317 3.3395-2.1584 1.6377-3.1949 2.5844-4.3748 3.8185 2.7611 0.40074 6.7572 1.136 9.3062 2.5844-0.82358 3.4508-1.1802 5.2653-1.6819 7.7587-10.831-0.0315-20.85-6.2782-18.568-17.499" fill="#C92F19" stroke-width="11.132"/>
 <g fill="#F08300" stroke-width="11.132">
  <path d="m98.488 191.53c-3.4729 2.0826-4.3969 6.9017-3.3619 10.431 0.95612-1.1896 1.2906-1.9154 1.827-3.0956-0.8015-1.3032-0.03154-5.9333 1.5367-7.3359"/>
  <path d="m98.646 190.27c-1.1013-1.969-0.5112-6.7793 2.07-9.8628 0.72261-0.86776 1.2369-1.1013 1.9943 0.15777 1.827 3.1271 3.696 2.8052 5.9447 7.1466l0.31555-2.1363c-2.2941-5.1207-6.0671-6.6234-4.8314-12.379-7.3804 5.4322-9.2952 13.113-5.477 17.065"/>
  <path d="m108.71 188.06c0.54589 0.12622 1.3032-0.36604 1.5462-1.3569 0.56798-2.3477 1.1707-3.6736 2.2372-5.1873 0.52381-0.7447 1.0129-0.71314 1.6156 0.22089 1.3253 2.0479 3.306 3.6847 5.0425 4.0965 0.12622-0.50172 0.22088-1.0571 0.45755-1.5809-2.4928-1.4578-4.6976-4.7755-3.7958-8.8165-4.1302 1.1896-6.9131 6.7682-7.1024 12.624"/>
  <path d="m118.81 188.37c0.55537 0.0946 1.3474-0.37866 1.6125-1.3127 0.73524-2.6601 2.5591-4.987 4.241-6.4341 0.8583-0.73523 1.3695-0.55537 2.0037 0.31555 1.0792 1.4578 2.9599 3.0514 3.1397 4.8759 0.40074-0.7794 0.94665-1.4484 1.4799-1.8933-0.31555-2.7484-3.2839-3.5622-2.4613-9.0951-4.898 1.1928-10.442 8.672-10.019 13.559"/>
  <path d="m127.74 191.53c0.65635 0.0224 1.1675-0.32187 1.4578-0.97821 2.1931-5.0542 5.1094-6.2119 7.3246-7.6925 0.84568-0.56799 1.3127-0.59956 1.5683 0.42283 0.42284 1.6819 1.4578 3.1176 2.294 4.1858 0.73524 0.95612 1.4358 0.75731 2.2152-0.47964 2.9504-4.6866 7.8815-5.9002 9.8632-9.1172 0.62479-1.0003 0.97821-1.035 1.6693-0.0315 1.9154 2.7264 3.5509 6.0781 3.9185 9.5066 0.12623 1.1234 0.53329 1.4799 1.1454 1.4578 0.32186-6.3899-1.827-12.813-6.2785-17.488-3.2284 8.2488-9.4176 9.2952-11.555 15.006-2.1047-2.7484 1.1928-8.6385-0.61217-10.754-2.6033 5.6329-11.421 5.5215-13.013 15.974"/>
  <path d="m159.2 185.22c1.3253-0.55537 2.294-1.379 2.9725-2.5717 0.38814-0.70052 0.81412-0.75732 1.3032 0.0111 0.88039 1.379 1.3127 2.5276 1.8365 4.5752 0.15777 0.62479 0.72262 1.0129 1.1928 0.90247-0.3471-6.6013-2.3256-10.297-4.8424-12.334-0.0631 2.7705-0.65635 5.3098-2.6506 7.6811 0.0631 0.59008 0.15777 1.2243 0.18933 1.7355"/>
  <path d="m167.59 178.91c2.8494 2.07 3.6626 7.7146 2.7043 11.41 2.5276-2.7484 3.2508-10.119-2.0921-14.149-0.25244 0.92456-0.38812 1.8049-0.61217 2.739"/>
  <path d="m170.59 195.32c0.62479 3.1839 0.22088 8.3936-2.3035 10.041 0.46701 0.81096 0.8015 1.5809 1.0224 2.414 4.0633-2.739 4.0633-9.3062 1.2811-12.457"/>
  <path d="m97.668 197.52c0.22088 3.0167-1.3032 5.3767-1.4578 7.6366-0.09463 1.3253 0.22088 1.4705 1.2685 0.53328 3.0293-2.7705 6.0557-2.414 9.6959-8.0484l-0.0113 1.6819c-2.5844 6.6013-10.943 7.5252-11.778 13.681-2.6506-2.9378-2.5812-7.7256-0.03154-11.243 1.0129-1.3916 1.8933-3.217 2.3256-4.2413"/>
  <path d="m107.32 196.26c0.73524 0.0631 1.1454 0.36604 1.2464 1.8365 0.12622 1.7481 0.57746 3.3174 1.2685 4.5862 0.52381 0.96873 0.95612 0.88038 1.7355 0.0315 1.1928-1.2685 2.6159-2.1363 4.5641-2.7484-0.0631 0.4891-0.0631 1.2906 0.0631 1.9249-2.3256 0.90247-4.2082 4.4751-4.1858 7.6032-2.4708-1.6472-5.3991-6.5789-4.6866-13.247"/>
  <path d="m116.72 197.84c0.44492-0.0224 0.92456 0.45755 0.92456 1.5146 0 2.0384 0.88985 4.3527 2.1489 5.7774 0.53327 0.59956 0.92456 0.45755 1.3127-0.15777 1.2811-1.9817 2.84-3.3619 4.9983-4.2413l0.12622 0.97821c-2.8841 2.4171-4.1855 6.0116-4.1299 9.0172-3.3284-1.2022-7.3359-8.9503-5.3767-12.88"/>
  <path d="m126.1 199.73c0.57745-0.0631 1.0129 0.284 1.3348 1.3127 1.2464 4.0075 4.1744 6.4454 9.6066 4.7866l0.57746 1.1675c-3.4284 3.206-11.154 2.3603-11.521-7.2693"/>
  <path d="m136.51 204.78c0.63426-0.15778 1.2022-0.0224 1.8807 0.88039 4.6979 6.2561 12.635 4.809 16.398-0.0224 0.51118-0.65635 1.3474-0.95612 1.7576-0.71315-2.3698 5.8443-5.9892 7.5473-10.097 7.5473-4.0968 0-8.3712-2.2499-9.9408-7.6922"/>
  <path d="m155.82 206.36c2.7169 0.38813 7.2021-1.5367 9.0389-8.0595 0.34395-1.2149 0.8583-1.3695 1.3253-1.2243-0.56798 6.5903-4.4082 13.459-11.41 11.065 0.31556-0.53327 0.72262-1.1675 1.0476-1.7797"/>
 </g>
 <path d="m95.68 78.879c-0.72261 1.7797-1.2811 3.6736-1.502 5.3432 1.0792-1.3474 2.4171-2.8179 3.7516-4.1189-0.7447-0.44492-1.5462-0.85829-2.2499-1.2243" fill="#C92F19" stroke-width="11.132"/>
 <path d="m99.088 72.884c-0.77941 0.82358-1.6156 2.1268-2.3824 3.6288 0.7447 0.18934 1.6819 0.4891 2.5717 0.77942 0.18933-0.94666 0.62479-2.8147 1.1234-4.063-0.34395-0.06309-0.90247-0.22088-1.3127-0.34395" fill="#C92F19" stroke-width="11.132"/>
 <g fill="#dcdddd" stroke-width="11.132">
  <path d="m212.71 256.22c-2.2057 3.2284-5.3098 6.5344-9.5066 8.1485 4.5417-0.0946 9.1617-2.7169 11.833-5.7995 1.1675-1.3348 0.81412-2.2814-2.3256-2.3477"/>
  <path d="m218.3 259.69c-1.8144 2.4834-4.0854 4.6755-7.6363 5.7888 3.217 0.81412 9.0058-1.3348 11.755-5.1542-1.6377 0.25244-2.7832 0.12622-4.1189-0.63426"/>
  <path d="m107.2 94.026c-0.0315 1.9596 0 4.3527 0.41022 6.234-0.77942-0.32186-1.3127-0.59008-1.9249-0.93403 0.0221-1.4926 0.53329-3.5843 1.5146-5.2987"/>
  <path d="m131.56 94.341c0.39128 3.1271 0.44492 5.7664 0 8.5047 0.61216 0.0224 1.2685 0.0224 1.8586-0.0221 0.18933-2.4708-0.36604-6.334-1.8586-8.4826"/>
 </g>
 <g stroke-width="11.132">
  <path d="m103.41 82.666c-0.12622 2.1931 0.38813 5.0094 2.4708 7.8705 1.7797-0.44493 2.8936-0.40075 3.9516-0.35658 2.0038 0.06309 3.696-0.06309 5.7329-0.70052-3.5398-2.1363-8.4268-4.898-12.156-6.8127" fill="#FFF200"/>
  <path d="m112.53 90.239c0.38813-0.48911 0.59008-1.2464 0.62479-2.0606-1.2685-0.81412-2.272-1.3032-3.3174-1.8491-0.15777 0.43546-0.25243 0.95611-0.25243 1.5241 0.0221 1.0571 0.28399 1.9375 0.74469 2.4487 0.568 0.02207 1.4358 0.01109 2.2152-0.06309" fill="#3EB571"/>
  <path d="m115.59 89.608c-0.59008-0.34395-1.4358-0.82358-2.4266-1.3916-0.0221 0.47964-0.0946 0.91195-0.25244 1.3032 0.34395 0.15778 0.69105 0.33449 1.035 0.5112 0.61217-0.09463 1.035-0.22088 1.6377-0.42284" fill="#FFF200"/>
 </g>
 <g fill="#0d131a" stroke-width="11.132">
  <path d="m111.77 87.399c0.0111 0.15777 0.0221 0.28399 0.0221 0.45755-0.0111 0.73524-0.18933 1.3348-0.35656 1.3348-0.15778 0-0.37866-0.59954-0.38814-1.3032 0-0.31555 0.0224-0.59954 0.0631-0.83621z"/>
  <path d="m112.12 90.239c0.37866-0.37867 0.63425-1.1139 0.63425-2.1489l0.84568 0.31556c-0.0315 0.81412-0.22089 1.4578-0.53328 1.9375z"/>
  <path d="m109.88 90.239c-0.44492-0.57746-0.71315-1.4484-0.73523-2.537-0.0111-0.71314 0.12622-1.3127 0.32186-1.7923l0.77941 0.44493c-0.15778 0.41021-0.22089 0.88984-0.22089 1.3474 0.0111 1.0918 0.284 1.9028 0.71315 2.3035z"/>
  <path d="m129.66 88.03c0.0113 0.81097-0.18933 1.379-0.35658 1.379-0.18933 0-0.34395-0.64688-0.34395-1.3916 0-0.90247 0.18933-1.3821 0.36604-1.3821 0.15778 0 0.32186 0.47963 0.33449 1.3916"/>
  <path d="m116.12 91.501c-0.12621 0.18933 2.1363 1.5809 3.2394 1.5809 0.9782 0 3.5402-1.3569 3.4843-1.603-0.0631-0.31556-6.4786-0.36604-6.7234 0.02239m3.206 2.4708c-1.4263 0-4.709-2.0164-4.2192-2.862 0.53328-0.93403 8.3492-0.92456 8.7499 0.09463 0.35657 0.91194-3.2618 2.7737-4.5307 2.7737"/>
  <path d="m118.71 98.759c-0.0631-1.9943-0.0631-3.6957-0.0224-5.1207l0.92457 0.06309c-0.0315 1.3569 0 3.0735 0.0631 4.9425z"/>
  <path d="m136.38 94.026c-0.54591 3.3395-1.3253 6.5679-2.395 8.8944-0.18933 0.38813-0.31555 0.46701-0.75732 0.46701-13.626 0.0631-27.652-0.92456-30.168-5.7664l1.0792-0.43546c2.3603 4.2858 15.485 5.1652 28.91 5.0873 0.95612-2.0479 1.5367-4.72 2.0605-7.5028z"/>
  <path d="m109.97 100.97c-1.3569-2.0921-2.2057-4.052-2.8147-5.9778-0.54591 1.237-0.90247 2.5055-0.99083 4.23l-0.93403-0.37866c0.12622-1.8933 0.7447-3.4843 1.4926-4.8759 0.38812-0.73522 0.65634-0.77941 0.98135 0.09463 0.88039 2.4834 1.8933 4.7311 3.5067 7.1021z"/>
  <path d="m114.45 99.39c-0.57746 0.76679-1.1013 1.5809-1.5241 2.171l-0.95612-0.18933c0.32185-0.45754 0.90247-1.2022 1.3695-1.8144z"/>
  <path d="m115.56 101.91c-0.81411-0.83621-1.5683-1.6251-2.3824-2.4045l0.94664-0.15777c1.0129 0.97821 1.7702 1.6472 2.7832 2.7264z"/>
  <path d="m119.79 98.443c-1.1139 1.5241-1.7355 2.4834-2.5591 3.6736l-0.99083-0.0631c0.92457-1.2685 1.7134-2.2941 2.4928-3.4177z"/>
  <path d="m121.96 102.55c-0.7447-1.2022-1.5809-2.6285-2.5591-4.0185l0.86777-0.15778c1.0035 1.3916 2.0038 2.9157 2.7484 4.2079z"/>
  <path d="m125.65 97.181c-1.1139 1.969-1.9817 3.6291-2.8273 5.2766l-0.96875-0.0224c1.035-1.9596 1.9375-3.5509 2.7832-5.0428z"/>
  <path d="m127.96 102.86c-1.1234-1.9249-1.8365-3.1271-3.217-5.2432l0.81412-0.18934c1.3569 1.969 2.2372 3.3284 3.4177 5.4101z"/>
  <path d="m132.98 102.86c-0.0316-3.1949-0.47963-5.9443-1.3127-7.7812-0.61217 2.6822-1.5241 5.5101-2.5276 7.7143l-0.99083-0.0111c1.0571-2.2593 2.0826-5.2208 2.862-8.4381 0.25244-1.0476 0.62479-1.0697 1.1139-0.15778 1.0571 1.9375 1.6914 4.709 1.7923 7.8705z"/>
  <path d="m124.36 69.097c-0.25243 1.3474-0.44492 2.7831-0.62478 4.5976 2.3603 0.37866 4.7424 1.1454 6.902 2.2152 1.136 0.56799 1.1139 0.83621-0.12621 1.3474-2.4392 1.0003-4.8869 1.6251-7.2024 1.8933-0.0631 1.0918-0.15778 2.3382-0.18933 3.3508 7.3804-4.3972 17.8-10.175 27.83-12.935 3.105-0.8583 3.2284-0.45755 0.53328 1.3348-8.5492 5.6774-19.336 11.01-27.919 18.735l-1.0792-0.34395c9.1282-8.1485 20.216-13.514 27.73-18.613-9.1279 2.6064-18.802 8.0263-27.251 13.025-0.61217 0.35658-0.86776 0.15777-0.8362-0.4891 0.0946-1.5367 0.18933-3.1949 0.25243-4.3972 0.0315-0.50172 0.15778-0.57745 0.70053-0.64688 2.294-0.25244 4.82-0.81412 6.8127-1.6377-1.7134-0.83621-4.2189-1.5241-6.5679-1.8933-0.52381-0.09463-0.63426-0.22088-0.57746-0.77941 0.18933-1.7923 0.42284-3.4509 0.69105-4.809z"/>
  <path d="m98.646 80.773c6.7348 3.6067 13.158 6.9796 16.442 8.9834l1.1013-0.41021c-5.8554-3.5398-18.557-10.019-26.016-14.104 7.2693 1.603 15.373 4.063 26.071 9.3731 0.61217 0.31555 0.86776 0.15777 0.91194-0.47963 0.12622-1.9028 0.284-3.8516 0.50173-5.4101 0.0631-0.53328-0.0315-0.67844-0.59008-0.77941-2.0826-0.37866-3.9854-1.035-5.7332-2.0605 2.1584-0.88039 4.2527-1.4011 6.6013-1.603 0.46702-0.03154 0.57747-0.18933 0.67844-0.56799 0.4891-1.8018 1.0792-3.4622 1.827-4.8314l-1.035 0.02239c-0.69105 1.3474-1.2022 2.7484-1.6598 4.4638-2.4928 0.18933-4.7086 0.7447-6.9686 1.7261-1.3127 0.57746-1.3127 0.76679-0.284 1.4137 1.8807 1.1802 4.0299 2.0164 6.1671 2.3477-0.18933 1.5146-0.34395 2.7484-0.46701 4.5976-9.7628-4.6641-17.822-7.3025-27.173-9.3062-2.4266-0.52382-2.5149-0.0113-0.31555 1.2117 2.8715 1.6156 5.9778 3.295 9.0389 4.9314l0.66897-0.35657z"/>
  <path d="m129.35 85.19c-0.55537 0-1.3032 0.86776-1.3032 2.6601 0 1.7134 0.56799 2.5496 1.2685 2.5496 0.67844 0 1.3032-0.88039 1.3032-2.5717 0-1.8144-0.54591-2.638-1.2685-2.638m-1.4578 5.2653c-0.44492-0.53328-0.7447-1.379-0.7447-2.6064 0-2.0479 1.1581-3.384 2.2057-3.384 1.1675 0 2.1268 1.0476 2.1268 3.384 0 1.4799-0.48909 2.5591-1.259 3.0293z"/>
  <path d="m105.46 90.87c-1.3474-1.7134-2.8147-5.0983-2.5717-8.2598l0.90247 0.45755c-0.12622 2.6285 1.2243 5.8667 2.5276 7.4918z"/>
  <path d="m133.26 91.817c2.2814-2.1363 4.0968-8.1709 3.7071-12.49l0.88039-0.54591c0.55537 4.1968-1.0792 10.776-3.6847 13.336z"/>
  <path d="m99.53 80.773c0.15778 2.5591 0.72261 5.4211 1.603 7.2135-0.18933-2.1584-0.15777-3.9295 0.45754-6.1226l0.90247 0.46701c-0.70052 2.5591-0.7447 5.2208-0.0946 7.6366 0.5112 1.8586 0 2.1142-1.0255 0.46701-2.0826-3.2839-2.862-7.0686-2.8841-10.186z"/>
  <path d="m141.49 73.199c-1.4042-7.2135-3.3619-11.132-3.7513-11.176-0.65634-0.06309-4.9428 4.5196-6.9686 7.6253-0.284 0.44492-0.41337 0.45755-0.91194 0.38813-5.7443-0.88986-12.178-0.86776-17.244 0.03154-0.52381 0.09463-0.64688 0.02239-0.84567-0.41022-2.1931-4.4641-4.909-8.2488-5.3211-8.1933-0.47964 0.06309-5.7219 10.119-6.7903 15.863l-0.93403-0.15777c1.0792-5.7998 6.2785-16.498 7.6032-16.731 0.88984-0.15777 3.9516 3.9854 6.1782 8.772 5.1873-0.96875 11.655-0.96875 17.555-0.03154 2.4834-3.7516 6.6124-8.2488 7.837-8.1709 1.1896 0.06309 3.5288 6.6458 4.5976 11.856z"/>
  <path d="m142.91 75.724c0.55537 5.9443-1.035 12.245-4.3748 15.763-0.57745 0.61217-0.99082 0.28399-0.75731-0.46701 1.4137-4.5865 1.6472-9.7183-0.25244-12.111l0.84567-0.4891c1.8807 2.3698 1.9028 6.2785 0.90247 10.497 1.9249-3.3171 2.9504-7.9815 2.6159-12.635z"/>
  <path d="m103.06 100.34c-1.827 1.2811-4.0299 2.5938-5.7664 3.5178l-0.22088-0.96875c1.704-0.92455 3.6512-2.0605 5.5546-3.3508z"/>
  <path d="m105.78 104.12c-2.9157 0.31555-5.9891 0.18933-8.6275-0.25244l-0.09463-0.95612c3.0293 0.46701 5.388 0.57746 7.826 0.34395z"/>
  <path d="m127.39 109.8c-5.0314-0.22088-16.598-2.2499-20.694-4.1744-2.0037-0.94666-4.3527-4.6979-5.2211-7.3249-0.568-1.7355-0.0631-2.0164 0.70052-0.34395 1.1454 2.4928 3.4733 5.9002 4.9649 6.6013 4.0299 1.8933 15.34 3.8071 20.327 4.0299 5.566 0.25244 8.0705-1.704 10.219-7.3918 0.22088-0.60271 0.50172-0.70053 1.1139-0.15777 4.9759 4.3972 16.542 5.577 23.266 0.65634-4.2634-0.28399-9.0168-2.0258-12.557-5.4546-1.5462-1.4926-1.2022-1.9249 0.48911-0.6027 4.0741 3.206 8.4823 4.7755 12.646 4.9649 1.7797 0.0946 1.8933 0.47964 0.5112 1.6914-5.8554 5.1766-19.102 4.6645-24.624-0.25244-1.8933 5.8219-5.0428 8.0484-11.143 7.7701"/>
  <path d="m154.09 98.759c8.5161-0.8015 18.268-5.577 22.197-13.648-5.9333 2.3382-13.781 3.1492-20.361 2.4045-2.1584-0.25245-2.1047-0.91195 0.0946-0.73524 6.9576 0.57746 14.171-0.5112 20.082-2.7705 1.6914-0.65634 2.0479-0.45755 1.3474 1.1675-3.7071 8.5826-13.96 13.548-21.93 14.349z"/>
  <path d="m160.52 87.084c10.208-5.1097 16.943-13.191 19.036-22.342-6.5123 4.6976-19.047 9.8183-29.121 12.49-1.969 0.5112-2.1363-0.15777-0.18933-0.75732 9.5735-2.9504 21.307-7.5697 28.743-12.857 1.8586-1.3253 2.2372-1.2117 1.8144 1.0129-1.8144 9.5735-8.2598 17.266-17.544 22.42z"/>
  <path d="m142 72.884c3.195-2.1584 6.4902-5.388 9.0172-8.8275 0.46701-0.64688 0.70053-0.71314 1.237-0.06309 2.5149 3.0388 2.6285 8.4492 0.59955 12.056l-1.5462 0.45755c2.5717-3.9071 2.171-9.1614 0.35657-11.365-1.5462 2.1363-3.696 4.4414-6.145 6.501z"/>
  <path d="m132.98 108.22c0.92456 0.12622 1.6377 0.28399 2.5149 0.50172 1.2243 0.31555 1.7261 0.57746 2.5055 1.3916 1.1013 1.1581 2.2372 2.5844 3.6515 4.6979 1.259 1.8712 0.76679 2.1047-0.54589 0.37866-1.4263-1.8712-2.6727-3.2505-3.7961-4.3861-0.64688-0.65634-0.96875-0.83305-2.0258-1.1454-1.2685-0.35658-2.0605-0.53328-3.7516-0.78888z"/>
  <path d="m144.62 114.85c-0.94665-1.4137-1.6598-2.2814-2.5496-3.7516-0.64687-1.0697-0.53328-1.7261 0.52381-2.3477 1.2243-0.72261 4.6418-1.3916 6.6344-1.5367 1.6819-0.12622 1.7702 0.41337 0.0631 0.65634-2.0826 0.31555-5.0873 0.96874-6.2226 1.6377-0.38813 0.22088-0.50173 0.52382-0.15778 1.1802 0.79203 1.4705 1.3916 2.2814 2.2499 3.8071 0.73523 1.2906 0.22089 1.5241-0.55536 0.35657"/>
  <path d="m164.69 87.084c0.61217-0.93403 1.259-1.8933 1.8365-2.8715l2.0258-1.1896c-0.80149 1.379-1.5462 2.6822-2.3256 3.8851z"/>
  <path d="m169.2 93.71c-0.25244 3.0293-0.0631 5.2432 0.65634 5.7329 3.4177 2.3698 10.264-6.3451 14.149-8.6385 1.1896-0.70052 1.4705-0.45754 1.0255 0.82359-2.8494 8.1598-4.72 14.772-5.8778 20.561-0.31556 1.5241-0.57746 2.8052-0.15778 4.5641 2.7705 11.177-0.15778 24.368-6.6234 30.335l0.44492-2.2593c5.1873-5.7998 7.5139-17.555 4.987-27.875-0.47963-1.9028-0.18933-3.4285 0.12622-5.0204 1.1675-5.8333 3.3619-12.757 5.7998-19.704-2.2814 1.1234-10.353 11.444-14.65 8.2043-0.95611-0.72261-1.2464-2.9946-1.0792-5.8998z"/>
  <path d="m169.29 86.452c0.44493-1.9249 0.96875-3.8071 1.5241-5.4325l1.5367-1.4926c-0.75731 2.1363-1.4042 4.4306-1.9028 6.6682z"/>
  <path d="m89.243 74.777c-1.2022-3.2729-1.3127-8.0708 0.12622-10.865 0.79203-1.5367 1.1013-1.5146 1.7702 0.09463 1.8365 4.4527 5.0652 7.6811 9.3734 8.6606l-0.31555 0.93403c-4.2972-0.8015-8.1043-4.1747-9.9521-8.8054-1.1928 2.5149-0.99083 6.7237 0.12622 10.008z"/>
  <path d="m72.866 78.564c-4.4193-4.7645-7.2801-11.633-7.0241-18.234 0.06309-1.6377 0.41337-1.827 1.827-0.64688 6.1337 5.1539 16.909 12.356 22.821 14.36 2.1047 0.71314 2.0037 1.237-0.15777 0.72261-6.0223-1.4042-18.301-9.6959-23.266-14.015 0.06309 6.1116 2.537 12.29 6.3785 16.742z"/>
  <path d="m79.145 82.035c2.2278 1.2022 4.6534 1.8712 7.1914 1.8586 2.0605-0.02207 2.1047 0.59008 0.03154 0.73524-2.4487 0.15777-4.8535-0.35658-7.1021-1.4042z"/>
  <path d="m68.133 89.292c-2.272-1.8712-3.8074-5.0538-4.0968-7.4583-0.09463-0.88038-0.06309-1.0255 1.136-0.73524 2.3161 0.568 4.0299 0.8015 6.0557 0.92456l-0.40075 1.0571c-1.8144-0.12622-3.7513-0.36604-5.5436-0.81412 0.31555 1.7261 1.2906 4.0965 3.4509 6.2002z"/>
  <path d="m88.044 140.41c9.1841-7.0576 12.557-23.945 7.659-39.975-0.09463-0.32186-0.09463-0.42283-0.06309-0.7447 0.52382-7.1021 1.7797-14.26 2.6159-19.28-6.0336 6.0333-10.72 13.948-15.474 12-4.4193-1.8144-4.2969-13.759-5.744-19.292-8.0929 10.798-5.8333 17.945-11.31 18.056-2.6506 0.06309-5.4546-2.3161-7.8032-7.8591-0.06309 4.052-0.01131 6.5123 0.25244 11.288l-1.2022 0.25244c-0.28399-4.72-0.31555-8.5382-0.06309-12.868 0.09463-2.171 0.50172-2.2941 1.5241-0.12622 2.6506 5.6774 4.8645 8.1484 7.2804 8.0708 4.141-0.12622 2.3824-6.8017 10.764-17.823 0.82359-1.0792 1.1139-0.95612 1.4484 0.32186 1.7355 6.8348 1.9375 17.444 5.3435 18.824 3.6847 1.502 8.2264-5.6218 14.906-12.301 1.2243-1.237 1.5367-1.2243 1.2591 0.57745-1.0255 6.5568-2.0826 13.492-2.5717 20.349 5.5104 17.744 1.2464 36.658-10.264 42.914z"/>
  <path d="m54.501 94.972c33.351-9.0279 44.016 17.499 40.921 32.583-3.3395 16.353-13.937 22.743-35.232 14.995-31.292-11.399-42.78-25.381-37.982-43.515 3.0829-11.61 7.4918-27.618 11.488-41.756 0.8015-2.8494 0.77941-4.8314-0.56799-6.5458-2.0605-2.638-3.1271-4.5976-3.6291-6.8462-0.42284-1.9154 0.18933-2.0258 0.83621-0.18933 0.75732 2.1047 1.5809 3.5733 3.785 6.2895 1.5241 1.9028 1.8491 4.052 0.83621 7.6587-3.9854 14.138-8.2933 30.09-11.366 41.712-4.5862 17.277 6.5789 30.88 37.081 41.99 19.247 7.0021 30.101 2.0164 33.418-14.048 2.8715-13.837-6.9465-39.786-39.407-31.069z"/>
  <path d="m28.215 26.498c-4.3413-1.2149-8.783 1.2685-9.1948 4.3303-1.1139 8.0374 4.898 13.815 10.965 12.969l0.37866 1.1896c-7.3249 1.2906-13.926-5.7664-12.746-14.382 0.54591-3.952 5.9222-6.6903 10.72-5.4436z"/>
  <path d="m45.098 4.409c-2.7264-4.9425-14.483-2.3824-17.244 0.37866-1.9249 1.9249-1.0129 8.0153 1.2022 13.67 0.7447 1.9249 0.76679 3.4733 0.09463 5.7329-0.41021 1.3916-0.57745 2.1047-0.44492 3.295 0.22088 2.1489-0.39129 2.2372-0.79203 0.15778-0.25245-1.3032-0.18934-2.1805 0.22088-3.7292 0.4891-1.8586 0.35657-3.4064-0.31555-5.0649-2.0385-5.2321-3.6292-12.357-0.95612-15.039 3.4288-3.4174 15.563-5.5884 18.936-0.59008z"/>
  <path d="m63.683 11.351c0.12622-2.5591-0.42284-4.5865-1.9249-6.323-1.8933-2.2057-10.375-4.2079-12.935-3.5288-2.7958 0.7447-5.2097 5.9222-5.655 12.613-0.02207 0.47964-0.06309 0.65634-0.55537 0.82359-0.91195 0.28399-1.4358 0.47963-2.4708 0.95611-1.7923 0.82359-2.07 0.06309-0.40075-0.78887 0.86776-0.44492 1.2811-0.66897 2.2814-1.136 0.42283-7.18 3.0293-12.946 6.5013-13.792 3.4954-0.85829 12.39 1.5904 14.371 3.8961 1.5146 1.7481 2.1931 3.963 2.1268 6.5679z"/>
  <path d="m75.517 24.92c1.5462-2.3382 1.8018-6.9462 1.3695-8.3267-1.1013-3.4509-6.6348-6.3899-9.0172-6.2116-2.0037 0.15777-7.091 3.963-9.3173 5.655-1.379 1.0476-2.8273 1.827-4.0854 1.259-1.5462-0.69105-1.3253-1.2464 0.31555-0.81412 0.82358 0.22088 1.5683-0.18933 3.0514-1.3127 3.7402-2.862 7.9926-5.9888 9.9408-6.1337 3.3284-0.22088 9.451 3.7292 10.575 7.2583 0.43546 1.3916 0.15777 5.9667-1.2243 8.2933z"/>
  <path d="m65.576 47.009c2.9283 1.7134 7.7815 2.0385 12.435-0.84567 3.0167-1.8712 8.4381-11.41 8.4381-13.013 0-1.0697-1.969-4.6086-4.1078-6.9797-1.3127-1.4484-3.8961-1.7576-5.655-1.2022-2.1047 0.64688-4.1968 1.1454-6.7348 1.3032-1.9469 0.12622-2.0037-0.48909-0.06309-0.78887 2.7043-0.41021 4.4748-1.0129 6.5344-1.6598 2.3382-0.72261 5.4656-0.15777 6.9686 1.502 1.9469 2.1584 4.5531 6.3899 4.5417 7.837-0.01109 2.1142-6.1447 12.268-9.1838 14.149-4.8869 3.0261-10.564 2.8936-14.004 0.81096z"/>
  <path d="m68.101 40.382c2.862 0.18933 5.1204-0.48911 7.6253-2.0606 1.4263-0.88984 1.7481-0.40075 0.43546 0.65634-2.1931 1.7797-5.1652 2.8841-8.2822 2.6159z"/>
  <path d="m21.905 106.96c4.0965 7.926 24.846 9.0613 30.914 0.15778 2.07-3.0261 1.3127-11.444 0.12622-17.867-1.4137-7.6587-1.9469-19.704-1.379-29.901 0.18933-3.3174 1.1675-4.5752 4.0744-5.5436 6.9131-2.3035 10.486-6.3899 12.056-13.114 0.45755-1.9817 1.1675-1.8712 0.82359 0.15777-1.2464 7.269-5.3546 11.744-12.524 14.138-2.2152 0.73524-2.9504 1.6251-3.105 4.4193-0.56799 10.153 0.03154 22.03 1.4484 29.633 1.259 6.8686 1.7923 15.44-0.36604 18.78-5.9888 9.2507-26.438 8.8723-31.949 1.3474z"/>
  <path d="m34.905 54.582c4.7645-3.0514 12-2.537 17.555 3.1397l-0.12622 1.3253c-5.5439-5.7995-12.724-6.601-17.544-3.1271z"/>
  <path d="m30.33 71.937c6.0895-1.3695 15.986-0.61217 21.919 3.2839l0.03154 1.2149c-5.8888-3.7181-16.119-4.72-22.253-3.3395z"/>
  <path d="m53.838 90.239c-6.4123 3.7626-22.453 3.6402-28.131-1.4137l0.31555-1.1013c5.8553 4.9873 21.373 4.6976 27.641 1.4358z"/>
  <path d="m54.627 95.603c8.0481 4.2413 9.4062 16.119 5.3208 23.733-5.1204 9.5511-14.95 12.746-23.032 11.188l-1.5146-1.4484c7.9484 2.2499 18.156-0.5112 23.399-10.275 4.1637-7.7701 2.272-18.179-4.141-21.952z"/>
  <path d="m51.124 138.2c12.913 0.69105 23.522-7.6811 26.004-20.694 2.2814-11.967-4.4417-21.863-16.765-23.121l3.4953-0.45755c10.197 2.1931 16.787 11.856 14.483 23.9-2.4392 12.779-12.779 21.485-25.225 21.485z"/>
  <path d="m232.4 237.91c0.43546-8.1485-7.2021-16.754-11.099-24.913-1.2022-2.5149-1.8491-4.052-2.5717-7.1469-2.5938-11.076-7.6698-27.874-17.243-45.719-4.4641-8.3157-8.7944-20.138-9.9076-25.615-2.6948-13.214-7.0576-23.321-11.956-26.928l0.33448-1.3032c6.9686 4.8759 10.876 18.123 12.88 27.963 1.1013 5.4325 5.2546 16.765 9.7742 25.181 9.6066 17.911 14.716 34.409 17.399 46.153 0.70053 3.0388 1.2464 4.3079 2.4928 6.8238 4.4193 8.9613 13.737 18.345 10.508 29.333z"/>
  <path d="m230.89 247.7c3.0735-6.2451 0.86775-13.915-3.5174-20.516-1.3253-2.0038-0.83621-2.395 0.61217-0.47965 6.2006 8.1485 7.1466 17.9 2.7705 24.167z"/>
  <path d="m216.75 257.48c1.8491 2.7043 6.4009 3.5288 10.308-0.77941 5.477-6.0226 4.1634-17.299-1.1139-26.027-1.0792-1.7828-0.52382-2.1363 0.65634-0.42283 5.5436 8.104 7.3804 20.884 1.4578 27.396-4.3303 4.7755-9.9742 4.4862-12.713 0.18933z"/>
  <path d="m215.68 257.16c6.2899-1.3348 8.2712-8.694 3.7405-27.897-0.50172-2.1268 0.25244-2.3035 0.81413-0.18933 5.2766 20.126 3.0955 28.253-5.0428 29.5z"/>
  <path d="m208.96 257.16c-2.8841-1.136-3.8737-5.3656-1.8586-9.9742 2.8273-6.4565 3.1836-16.487 1.1139-21.284-1.136 0.84567-3.0167 4.4975-3.7516 8.7609-1.2464 7.2248-7.0131 10.153-11.933 7.7367-5.4215-2.6601-6.2785-8.2819-4.7645-12.39 1.9028-5.1876 5.399-9.2062 13.77-16.03 2.6948-2.2057 3.1176-4.8648 1.2464-8.8834-2.171-4.6866-11.277-15.774-17.399-21.897-10.186-10.186-14.015-16.386-15.395-20.75l0.45755-2.9157c1.401 6.2116 6.3006 13.058 15.941 22.698 5.4101 5.4101 15.228 17.188 17.622 22.353 1.8933 4.0744 1.8365 7.5252-1.6693 10.431-8.0374 6.6572-11.321 10.408-13.18 15.463-1.5904 4.3303-0.0946 8.6495 3.9964 10.664 4.6976 2.3161 9.0724-1.0129 10.052-6.6903 0.66897-3.9295 2.5055-8.1264 4.4862-9.6849 0.70053-0.55536 1.0255-0.59954 1.4578 0.37867 2.3698 5.388 2.1931 15.607-0.8583 22.554-1.5367 3.5178-1.1139 7.2024 1.5367 8.3712z"/>
  <path d="m193.34 138.52c-5.1428 3.974-13.258 7.4583-21.117 8.9724l0.28399-1.3032c7.5142-1.6472 14.984-4.5865 20.505-8.7389z"/>
  <path d="m174.44 169.44c6.4341-7.6142 16.252-12.813 25.893-13.203l0.37866 0.94664c-9.529 0.75733-19.258 5.566-25.648 13.147z"/>
  <path d="m208.27 172.28c-7.9705-1.9596-19.114 3.3174-19.191 13.492l-0.99083-1.0003c0.40075-10.319 11.844-15.362 19.737-13.603z"/>
  <path d="m195.3 193.11c1.9154-6.4454 10.03-10.887 17.756-8.861l0.33448 1.1139c-7.8704-2.2593-15.785 2.5276-17.321 8.7496z"/>
  <path d="m217.32 197.52c-5.1097-4.0965-13.648-0.5459-14.939 5.0983l-0.7447-1.1139c1.8807-5.8557 10.531-8.7944 15.396-5.4104z"/>
  <path d="m204.57 208.88c4.5083-2.84 11.165-4.2858 15.05-2.3603l0.25245 1.2369c-3.4064-2.0479-10.353-0.93402-15.328 2.3603z"/>
  <path d="m210.66 256.53c-0.61216 0-0.79202 0.22089-1.1581 0.97821-1.1454 2.3729-2.7832 4.6645-4.9317 6.245 3.2729-0.77941 7.2583-2.5149 9.8963-5.6326 0.65634-0.76679 0.5459-1.035-0.0631-1.1896-1.1675-0.31556-2.3824-0.38813-3.7513-0.40075m-7.7367 7.0242c2.4487-1.7355 4.2189-4.2524 5.2653-6.601 0.6027-1.3569 1.0255-1.7829 1.9596-1.7829 1.8491 0.0111 3.3729 0.18933 4.8759 0.59008 1.5367 0.38813 1.9154 1.6472 0.69105 3.1492-2.7264 3.3063-8.1153 5.8333-12.212 6.145-2.272 0.18933-2.171-0.35658-0.57746-1.502"/>
  <path d="m223.82 260c-2.5496 4.052-8.5606 6.7682-13.136 6.2006-1.1454-0.15778-1.2117-0.46702-0.32187-1.2243 2.5149-2.1047 4.2082-4.152 5.8333-7.1245l0.90247 0.93403c-1.3127 2.3824-3.3619 4.8756-5.3432 6.412 2.6727 0.12622 7.6698-1.7481 10.108-4.8648z"/>
  <path d="m167.62 176.07c0.81412-4.2413 1.3821-8.5826 1.7482-13.603 0.72261-9.7849 2.414-17.266 4.8538-22.709 5.0314-11.21-1.2685-30.546-14.26-36.368l1.3695-0.76678c13.035 5.9888 19.336 25.737 13.948 37.648-2.4045 5.3101-3.8626 12.524-4.5865 22.264-0.37866 5.0984-0.99083 9.6404-1.8144 13.948z"/>
  <path d="m142.98 183.32c1.726-5.1652 2.4708-9.5735 2.7169-14.405-7.9815 0.84567-17.889-2.8841-22.832-7.1245-1.3569-1.1581-1.2811-1.502 0.8015-1.0792 8.0374 1.6377 16.754 1.0476 21.997-0.2209-0.12621-2.3035-0.284-4.4527-0.59007-7.5142-9.8297 2.8273-29.188-2.3161-40.732-12.457-2.4392-2.1363-2.0921-2.4708 0.88984-1.136 12.212 5.4546 31.314 7.7032 39.018 5.1873-0.284-6.7569 0.0631-13.948-0.9782-21.117-0.15778-1.1013 0.0221-1.3253 1.0571-0.62479 4.8535 3.2839 8.7944 10.609 11.021 20.839 7.8925 1.3695 13.102 0.6027 17.633-2.7043 1.2464-0.91193 1.4799-0.7226 1.0792 0.72261-1.9943 7.091-9.34 11.154-17.377 10.286 0.36604 2.8715 0.61217 5.9557 0.67843 9.2172 4.0409 0.5459 8.3046-0.0631 11.722-1.4799 1.4484-0.59955 1.5904-0.38812 0.70053 1.0918-2.2594 3.7292-7.0686 7.0352-12.568 8.5271-0.12622 2.4266-0.32186 4.7645-0.60269 7.1466l-0.83621-1.237c0.22088-2.0258 0.37865-4.0409 0.4891-6.0892 0.0224-0.50172 0.15778-0.64687 0.71315-0.81096 5.2766-1.5683 9.5624-4.3082 11.667-7.4583-3.4622 1.4263-7.5476 1.8712-11.633 1.3348-0.61217-0.0946-0.67844-0.25244-0.69107-0.7794-0.0631-3.217-0.28399-6.6903-0.64687-9.7514-0.0631-0.65635 0.0631-0.82358 0.80149-0.7447 7.6256 0.83621 14.561-3.0388 16.62-9.0279-4.4417 3.2839-10.086 4.1968-17.978 2.7705-0.50172-0.0946-0.66896-0.25244-0.76678-0.73522-2.171-9.8518-5.8109-16.898-10.175-20.16 1.1013 6.2785 0.76678 13.737 1.1013 20.895 0.0315 0.61217-0.0946 0.71314-0.53328 0.8583-8.9944 2.9157-28.431-0.0316-38.973-4.9201 9.9297 8.0371 28.309 14.293 39.318 11.288 0.57746-0.15778 0.83621-0.0316 0.90247 0.62479 0.32187 2.9725 0.568 5.477 0.67843 8.104 0.0224 0.57746-0.0315 0.7447-0.61215 0.88038-5.3322 1.3032-14.349 1.8365-21.874 0.18934 4.3413 3.2505 13.993 7.0131 21.908 6.0671 0.53329-0.0631 0.7447 0.15777 0.71315 0.71314-0.22089 4.7314-1.0129 9.3176-2.3035 13.225z"/>
  <path d="m101.93 175.12c-0.64688-6.3451-3.863-9.7183-8.8502-12.935-10.408-6.7013-17.221-12.602-20.026-17.199l1.8144 0.12622c2.84 4.3079 9.3621 9.6959 18.969 15.885 5.0428 3.2508 8.6051 6.7127 9.2841 13.08z"/>
  <path d="m165.92 183.96c0.67843-3.3619 1.2022-5.7998 1.704-7.7591 0.18933-0.71314 0.40074-0.84567 1.1581-0.25244 4.1858 3.2505 5.0652 8.3933 2.7958 13.737-0.92456 2.1804-0.88038 3.8406 0.25244 6.2006 2.1931 4.6642 1.5588 8.9279-2.3477 12.702l-0.31555-1.1139c3.0388-3.3395 3.6847-7.0686 1.7702-11.132-1.1928-2.5149-1.3032-4.7645-0.31554-7.1134 1.9028-4.4972 1.3474-9.0834-2.1489-12.134-0.59008 2.2593-1.1581 4.9317-2.0164 9.262z"/>
  <path d="m158.88 183.01c1.4705-1.6819 2.1268-4.2189 2.2152-7.0466 0.0315-1.0697 0.32186-1.1454 1.1234-0.36604 2.84 2.7611 4.3306 6.1337 4.5086 10.809 0.0946 2.3824-0.44492 2.4266-0.7447 0.0631-0.56799-4.3972-1.3474-6.5568-3.8516-9.4624-0.0946 2.7831-1.2022 5.5549-3.0735 7.2138z"/>
  <path d="m127.67 189.95c0.83621-4.0854 3.6626-7.6587 7.4921-9.8294 1.8933-1.0792 3.5843-2.4928 5.0204-4.6645 0.61216-0.93403 0.86776-1.0255 1.2022 0.12622 0.59007 1.9596 0.46701 3.952-0.0946 5.9891-0.40075 1.4578-0.22088 2.6727 0.0946 3.4509 0.96874-1.969 2.6033-3.8182 4.9538-5.6215 2.0479-1.5809 4.4748-4.8314 6.0223-8.1822 0.35657-0.75731 0.65634-0.83305 1.3032-0.0315 4.1189 5.0428 6.145 10.419 5.9557 16.108-0.0631 2.0164-0.7226 2.0164-0.75731-0.0111-0.0946-5.5439-1.7261-9.9966-5.7443-14.995-1.5683 3.2394-4.052 6.323-6.2002 7.9815-2.3477 1.8144-3.863 3.5291-4.9649 5.8667-0.43546 0.92456-0.76679 1.0697-1.1928 0.18933-0.6248-1.3127-0.97821-3.105-0.5112-4.9425 0.46702-1.8365 0.63427-3.0956 0.32186-4.631-1.0918 1.7702-2.9725 3.1839-4.9428 4.3082-3.6736 2.0826-6.3006 5.3767-7.2024 9.0503-0.48911 1.9596-1.1675 1.8491-0.75733-0.15778"/>
  <path d="m131.02 184.27c-0.28399-1.0571-0.7447-1.8712-1.3348-2.6159-1.3348-1.6819-1.704-3.885-1.4926-5.9667-2.7926 1.1013-8.1929 5.5546-8.8275 11.099-0.25244 2.2372-0.96874 2.1489-0.75733-0.12622 0.55537-5.8998 5.8888-10.497 9.7739-12.245 0.79203-0.34395 1.0129-0.15777 0.90248 0.60271-0.284 2.1584-0.0315 4.4751 1.1581 6.0002 0.55537 0.69105 1.0034 1.3695 1.3253 2.414z"/>
  <path d="m119.44 184.59c-2.5591-1.3253-4.7755-4.5865-4.4414-8.0484-2.4708 1.2811-5.1542 4.731-5.7443 9.629-0.284 2.4045-0.88985 2.3382-0.7447-0.0946 0.32186-5.1987 2.8936-8.9724 6.7793-11.032 0.82359-0.43546 1.1454-0.22088 0.94666 0.88038-0.61218 3.2615 1.2811 6.4899 3.5512 7.7143z"/>
  <path d="m94.733 202.57c-1.3695-4.3082-0.41337-8.4268 3.1615-11.711-3.5954-5.288-1.6251-11.711 5.3325-17.566 1.1928-1.0034 1.5588-0.88039 1.3348 0.7794-0.31555 2.3256 0.35658 4.542 1.8807 6.5568 1.1455 1.502 2.0038 2.9157 2.6506 4.3748l-0.31555 1.827c-0.7447-1.9596-1.8586-3.7626-3.2394-5.577-1.603-2.1142-2.3698-4.3082-2.0826-6.7237-6.3788 5.2763-7.8036 11.254-4.7758 15.863 0.34395 0.52381 0.31555 0.65634-0.06309 1.035-3.0293 3.0829-4.1186 6.2671-3.0608 10.097z"/>
  <path d="m107.32 200.36c-1.237 2.4708-3.2615 4.5752-6.3006 6.4789-3.2839 2.0826-4.6531 4.1744-5.0873 6.7348-0.12623 0.75733-0.44493 0.8015-0.86776 0.36604-2.7043-2.7484-2.9504-8.861-0.03154-12.568 1.0255-1.3032 1.4705-2.0258 1.8365-3.2394 0.51119-1.7134 1.1139-1.5241 0.71314 0.22089-0.28399 1.2022-0.82359 2.3824-1.7482 3.5733-2.0605 2.6601-2.2941 7.9929-0.71314 10.164 0.42284-1.8933 1.8018-3.9964 5.3656-6.234 3.3953-2.1363 5.6218-4.6531 6.6903-7.4918z"/>
  <path d="m116.31 202.26c-2.3824 1.1675-3.5174 3.6736-3.7292 7.08-0.0631 0.83621-0.35656 1.035-0.9782 0.5112-3.0735-2.6159-5.2208-8.0264-4.72-12.323 0.22088-1.9596 0.84568-1.9154 0.7668 0.0631-0.15778 4.0741 1.5462 8.2374 3.9519 10.709 0.25245-2.6601 1.6251-5.744 4.5531-7.0131z"/>
  <path d="m126.35 202.26c-2.2814 2.0921-3.3508 5.1763-3.7181 8.2378-0.12622 1.0255-0.41338 1.1013-1.2243 0.44494-4.1302-3.3953-6.6458-8.761-5.3991-12.245 0.53328-1.5146 1.1139-1.3348 0.73524 0.22088-0.7447 3.004 0.99083 7.347 4.898 10.686 0.42284-3.2615 2.0826-6.2671 4.5531-8.5716z"/>
  <path d="m137.83 207.62c-3.8182 3.5178-11.588 1.9469-12-6.4565-0.0946-1.7355 0.55537-1.7797 0.73522-0.0631 0.7668 7.1358 7.1576 8.8278 10.787 5.6329z"/>
  <path d="m136.73 206.04c-0.73523-1.8712-0.12622-2.171 0.67843-0.32185 3.195 7.347 13.993 8.4936 18.212 0.0315 0.84568-1.704 1.4484-1.4484 0.67844 0.31555-4.2413 9.5956-16.275 8.3488-19.57-0.0224"/>
  <path d="m154.94 207.94c4.631 2.2152 9.9521-2.7958 10.72-9.351 0.22088-1.7702 0.83621-1.704 0.75732 0.0631-0.32186 7.4808-6.7237 12.902-12.123 10.119z"/>
  <path d="m186.97 292.19c-2.171-0.91194-5.2318-2.171-7.1911-2.9283-0.46701-0.18932-0.56799-0.31554-0.67843-0.80149-1.3032-5.9333-3.4509-17.155-4.4751-22.888-1.1139-6.1782-2.4928-18.078-3.0293-26.995-0.66896-11.043-1.5462-21.206-2.5276-28.676-0.31556-2.2278-0.66897-3.4288-2.0385-5.1318-0.7447-0.92456-1.3916-2.2372-1.5809-3.1725l0.66897-2.0038c0.0631 1.5809 0.75731 3.1271 1.7576 4.3413 1.603 1.9596 2.1489 3.4398 2.4613 5.8333 0.99081 7.4807 1.8933 17.7 2.5591 28.765 0.53328 8.8944 1.7923 20.661 2.9062 26.828 1.035 5.7998 3.0829 16.932 4.3862 22.776 1.8933 0.73523 6.8793 2.9062 9.1393 3.8626z"/>
  <path d="m138.06 228.13c12.357 14.338 23.945 38.361 29.689 61.504 0.0631 0.33449 0.0631 0.45755 0.0315 0.84567-0.33449 3.0167-0.54591 5.5884-0.73524 8.0484-0.12622 1.7482 0.41021 2.3698 1.8144 3.1839 3.5398 2.0826 8.7164 4.4638 13.804 6.2671 2.3477 0.83621 3.8851 0.52382 6.3896-0.12622 3.105-0.78887 8.6385-2.8147 9.0168-3.6288 0.41337-0.91194 0.52382-4.4417 0.46702-7.3473-0.0315-1.8049-0.81412-2.9598-3.1946-3.5622-5.2321-1.3127-8.5385-0.94665-14.784 0.25244-2.3035 0.44492-2.395-0.25244-0.12622-0.81412 5.7332-1.4578 9.8073-1.9248 15.173-0.57746 3.0387 0.75733 4.2192 2.4613 4.2637 4.6752 0.0315 2.9599-0.12623 6.7906-0.70053 7.9484-0.53328 1.1234-6.0671 3.295-9.8518 4.2634-3.0072 0.75732-4.8759 0.96874-7.0466 0.18933-5.1207-1.8144-10.531-4.2189-14.104-6.3116-2.1805-1.2811-2.7611-2.3603-2.6033-4.4527 0.18933-2.5717 0.47963-5.1432 0.83621-8.3046-5.7219-23.255-16.687-46.164-29.6-61.66z"/>
  <path d="m70.688 264.74c2.9283-4.4638 6.4902-9.9522 9.4179-15.896 7.169-14.549 12.646-27.852 14.805-36.068l1.0918 0.37867c-2.1268 8.7496-7.5808 21.718-14.761 36.279-2.9504 5.9888-6.5792 11.477-9.5179 15.952-3.3395 5.0984-9.2728 21.407-12.256 33.73-0.09463 0.3692-0.15778 0.47965-0.43546 0.67844-1.7481 1.3348-3.6178 2.7264-5.4991 4.3527-1.6125 1.379-2.5844 4.0854-2.6285 7.3918-0.03154 2.6033 1.2243 4.4417 3.7737 4.9649 3.7181 0.75733 14.171 1.0571 20.594-0.0316 4.2413-0.73522 4.631-2.2499 4.809-7.4473 0.06309-1.8018-0.67843-3.2953-2.4834-4.3638-2.2373-1.3253-3.963-2.8273-5.3098-4.6979-0.25244-0.35657-0.28399-0.56799-0.12622-1.035 3.5733-9.7625 12.557-23.522 28.487-38.461 4.9538-4.642 7.2359-6.9796 10.898-10.887 14.071-15.05 20.238-21.385 31.047-22.887 2.4708-0.34395 2.5844 0.32186 0.12622 0.76678-9.8518 1.7797-15.184 6.9797-30.179 23.01-3.6736 3.9185-6.0223 6.3344-10.987 10.987-14.071 13.202-24.335 26.817-28.309 37.849 0.93403 1.5904 2.638 3.1397 4.8756 4.4638 2.1931 1.3032 3.2284 3.1271 3.1492 5.3435-0.22088 6.0223-1.2022 7.8146-5.8443 8.6161-5.4546 0.93403-16.431 0.91193-21.017-0.0224-3.1492-0.64687-4.7979-3.0956-4.7534-6.1671 0.03154-3.5398 1.2022-6.5565 3.0735-8.1819 2.0258-1.7482 3.8071-3.0829 5.6329-4.4751 2.9819-12.401 8.9389-28.965 12.323-34.131"/>
  <path d="m172.86 246.12c-5.7884 3.8516-15.785 5.488-21.006 3.963l-0.56799-1.3127c4.6086 1.827 15.184 0.40075 21.474-3.8292z"/>
  <path d="m174.41 260.32c-3.885 3.4174-11.889 3.9964-16.453 2.4045l-0.46701-1.259c5.1873 1.827 13.169 1.1802 16.765-2.395z"/>
  <path d="m176.9 274.83c-3.2281 2.3698-9.7514 2.862-13.803 1.4926l-0.32187-1.2022c3.8292 1.5683 11.01 1.035 13.904-1.379z"/>
  <path d="m179.87 288.72c-3.7629 2.294-8.9503 3.195-12.713 2.0164l-0.0111-1.0697c3.8182 1.3032 9.0614 0 12.368-1.8712z"/>
  <path d="m188.83 308.6c0.94664-2.6159 0.88038-5.744 0.0946-8.8054-0.44493-1.7576 0.0631-1.969 0.70052-0.25244 1.0792 2.9062 1.1928 6.1558 0.57746 8.6606z"/>
  <path d="m194.85 306.7c0.91193-2.4708 1.0476-5.3767 0.60269-7.837-0.34395-1.9596 0.25244-2.0921 0.7447-0.15778 0.54591 2.0921 0.59008 4.8869 0.0224 7.4363z"/>
  <path d="m102.68 259.69c-7.4142-1.5241-17.166-7.2469-20.817-12.88l0.52382-1.1139c3.5288 5.5546 13.614 11.766 21.14 13.058z"/>
  <path d="m71.698 264.11c1.1675 4.5976 9.7514 9.8408 16.987 9.618l-0.88038 1.0697c-6.8127-0.0631-14.917-4.7645-16.82-9.5735z"/>
  <path d="m64.63 280.2c3.4729 3.3063 9.2507 5.4325 14.995 5.5436l-0.73524 1.0571c-5.5994-0.22088-11.165-2.1489-14.661-5.5105z"/>
  <path d="m59.897 295.03c2.7484 2.8147 8.1598 4.6196 13.08 3.105l-0.42283 1.2022c-4.6197 1.2243-9.8852-0.12622-12.957-3.105z"/>
  <path d="m59.581 317.75c0.22088-5.4991 0.65634-8.9168 1.3127-12.423 0.32187-1.704 0.95612-1.6251 0.73524 0.0946-0.43546 3.384-0.78887 6.9017-0.8583 12.412z"/>
  <path d="m70.657 317.43c2.1804-6.6234 1.827-10.843 0.12622-12.891-0.96874-1.136-0.57746-1.5462 0.51119-0.52381 2.3161 2.1268 2.638 7.3138 0.60271 13.359z"/>
  <path d="m152.92 181.12c0.22089 4.6642-1.5588 6.8572-3.3174 7.1245-5.7219 0.8583-8.8499 3.4174-8.7164 7.937 0.12622 4.5531 3.206 7.5142 7.8146 7.3249 8.2933-0.34395 10.742-9.0168 6.8127-15.384-0.0316-0.0631-0.0631-0.12622-0.0631-0.18933 0-2.6033-1.1675-5.3988-2.537-6.8238m-13.18 15.106c-0.12622-3.9185 2.1047-7.8591 9.7294-9.0168 1.259-0.18933 2.6948-2.1489 2.5717-6.4675-0.0315-1.3695 0.18933-1.6377 1.237-0.56798 2.0385 2.0605 3.195 4.7424 3.217 7.5476 4.1968 6.9128 1.5904 16.409-7.7477 16.798-5.477 0.22089-8.861-3.295-9.0058-8.2933"/>
  <path d="m94.702 215.83c-16.442 8.5382-30.223 8.6271-41.645 3.3508-5.8891-2.7169-11.945-4.542-18.145-5.7443-2.2278-0.43546-2.1268-1.0697 0.12622-0.77942 6.1674 0.79203 12.579 2.7043 18.535 5.4436 12.067 5.577 26.461 4.052 41.623-3.9964z"/>
  <path d="m86.056 237.91c-7.2583 3.7181-21.552 5.0428-35.834 2.7611-8.2043-1.3127-12.635-1.0035-16.865-2.1931-2.2152-0.62164-2.0826-1.2149 0.18933-0.75732 4.531 0.92456 8.5271 0.37866 16.865 1.7482 14.249 2.3477 29.065 0.88038 36.357-3.2839z"/>
  <path d="m42.131 239.18c0.06309 2.3162 0.25244 4.5641 0.62479 6.9797 0.09463 0.66896-0.06309 0.84567-0.8015 0.67843-2.8273-0.61217-5.655-2.0606-8.0929-4.2189-0.75733 1.8586-1.2464 3.6957-1.6598 5.8888-0.15777 0.91194-0.45755 1.0571-1.0571 0.25244-1.3916-1.9154-2.3477-4.063-3.0956-6.4899-2.5149 1.8491-5.6995 4.7979-9.0058 8.5047-1.1139 1.259-1.4926 1.0918-1.3348-0.45755 0.61217-6.2561 1.827-12.868 3.2618-17.533-2.5496-1.0918-5.7108-1.8144-8.9279-2.2499-1.0255-0.15777-1.0476-0.52381-0.40075-1.136 2.2814-2.1489 4.6866-4.0854 6.8907-5.5215-3.217-4.2303-5.3546-8.605-6.6903-14.349-0.15777-0.65635-0.06309-0.8583 0.8015-0.88039 4.1855-0.0946 8.3933 0.97821 11.789 3.1492 0-3.7737 0.28399-8.5047 0.91195-13.826 0.12622-1.0697 0.37866-1.1896 1.2243-0.25243 3.0293 3.2839 5.566 6.7793 7.826 10.208 2.0826-2.2278 3.8851-3.9851 6.8793-6.7127 0.77941-0.70052 1.035-0.57745 1.0918 0.57746 0.18934 3.4398 0.284 6.9796 0.25245 9.2841 2.8273-1.0129 6.5123-1.6251 9.5514-1.6819 0.78887-0.0111 0.90247 0.12622 0.57746 0.88039-1.3032 3.0514-2.2499 4.82-3.3284 6.8683l-0.8583-0.35658c1.2117-2.272 2.0258-4.0075 2.9946-6.3451-2.4487 0.0316-5.8554 0.50174-9.0282 1.6377-0.64688 0.22089-0.82359 0.0316-0.82359-0.4891 0.0113-3.1615-0.15777-6.0002-0.36604-8.9279-2.4266 2.1142-4.0965 3.6623-6.4899 6.2002-0.48911 0.5112-0.70052 0.44493-1.0129-0.0315-2.4708-3.774-4.9314-7.1024-7.5697-9.9521-0.57746 4.5752-0.90247 9.2731-0.92456 13.726 0 0.65634-0.31555 0.7447-0.91194 0.35657-3.3505-2.1804-7.3359-3.3953-11.499-3.2729 1.4137 5.5994 3.3729 9.707 6.5344 13.859 0.35657 0.46701 0.33448 0.66896-0.12622 0.95611-2.1363 1.379-4.3303 3.1492-6.3451 5.0984 2.7264 0.38813 5.9667 1.2906 8.5606 2.4045 0.41338 0.18934 0.53329 0.35658 0.37867 0.8236-1.4263 4.6642-2.6033 11.811-3.0956 16.576 2.7484-3.0167 5.9219-5.7553 8.9389-8.0484 0.57746-0.44493 0.77941-0.38813 1.0129 0.31555 0.75732 2.3161 1.4799 4.0296 2.6159 5.744 0.36604-1.8586 1.0255-3.7292 1.7923-5.5881 0.25244-0.57746 0.37866-0.66897 0.9782-0.12622 2.3477 2.0921 4.7421 3.3843 7.4473 3.963-0.28399-2.2057-0.40074-4.1854-0.45754-6.5344z"/>
  <path d="m42.415 239.18c-4.5086-2.3256-6.2675-7.2469-5.6108-12.468 0.73524-5.8333 4.6534-10.486 9.6962-10.787l2.2941 1.0129c-6.0668-0.8015-10.119 4.141-10.854 9.8963-0.77941 6.2451 2.0258 10.742 7.3697 12.501z"/>
  <path d="m62.547 241.07c-6.1223-5.0094-5.0649-15.195 0.94664-19.425l1.4358 0.18933c-6.2337 3.8516-7.6253 14.082-0.85829 19.202z"/>
  <path d="m87.728 234.13c-3.8964-2.0479-6.0115-8.8165-3.2839-14.527l1.3253-0.42283c-2.6285 5.1763-1.3821 11.51 2.395 13.859z"/>
  <path d="m19.506 240.75c-11.277-0.55537-18.902-5.8443-19.47-14.071-0.55537-8.0039 5.3991-14.449 12.869-15.251l0.40075 1.2685c-7.0579 0.62479-12.501 6.9355-12.023 13.937 0.53328 7.6032 7.7035 12.39 18.49 12.88z"/>
  <path d="m130.89 96.55c-6.3785 1.5683-15.996 3.5288-19.826 3.7737-0.35658 0.0224-0.70053 0.0315-1.0476 0.0315l-0.48911-1.136c0.46702 0.01098 0.96874 0 1.4926-0.03154 3.8964-0.25245 13.837-2.2593 20.138-3.8295z"/>
  <path d="m132.15 95.288c0.81413-0.22088 1.5367-0.40075 2.1584-0.59008 1.5367-0.43546 1.2685-1.4926-0.42284-2.1142-2.6159-0.96874-6.3454-1.8586-10.13-2.3698-1.0129-0.12622-1.827-0.40075-2.2941-1.3348-1.0918-2.2057-1.9375-3.5288-2.1363-3.5512-0.22089-0.01109-1.1675 1.5146-1.9817 3.4288-0.45754 1.0571-0.81412 1.3348-2.5496 1.6819-2.3603 0.46701-4.0188 0.59008-6.1561 0.4891-3.0387-0.12622-5.0652 1.603-5.2097 3.7181-0.0946 1.5462 0.57745 3.0388 2.3161 3.9296l-0.15777 1.1896c-2.2278-0.96874-3.3953-2.7705-3.2394-5.1542 0.15777-2.3824 2.1584-4.82 6.3006-4.72 1.969 0.06309 3.6402 0.12622 5.9891-0.38812 1.3474-0.28399 1.603-0.47964 1.8933-1.1454 0.75731-1.7576 2.1363-4.0409 2.862-3.9409 0.7794 0.12622 2.272 2.8936 2.8494 4.0633 0.31555 0.62479 0.75731 0.70053 1.6913 0.82359 3.9072 0.52382 7.5139 1.3127 10.397 2.3477 2.8273 1.0129 2.537 3.4398 0.25244 4.0965-0.59954 0.18933-1.3127 0.3692-2.0921 0.57745z"/>
 </g>
 <g stroke-width="11.132">
  <path d="m196.43 241.7c1.3032-1.4705 0.81096-3.4398-1.1675-5.6215-2.0605-2.2593-4.4414-1.726-5.0873 1.1234-1.5146 6.7013 0.34396 12.368 3.3732 14.761-0.0315-4.2524 1.3695-8.5492 2.8841-10.264" fill="#fff"/>
  <path d="m194.13 235.07c-2.4266 3.3953-2.7484 11.21-0.81413 16.442-3.3395-2.1047-4.2744-8.9837-3.395-13.86 0.55537-3.004 2.0826-3.885 4.2079-2.5812" fill="#dcdddd"/>
  <path d="m190.75 237.28c-1.1802 5.2987-0.0631 10.898 2.272 13.392 0.0114-3.8182 1.401-7.3914 2.7926-9.3618 0.96873-1.3695 0.96873-2.6727-0.94665-4.7758-1.8365-2.0037-3.5843-1.6472-4.1186 0.7447m2.0479 14.828c-2.7926-2.3824-4.9093-8.3154-3.3843-15.151 0.81097-3.6402 3.952-4.0744 6.3675-1.4358 2.6159 2.8715 2.4045 5.1987 1.2464 6.4678-1.6251 1.7797-2.7832 5.3432-2.9378 9.629-0.0315 1.1013-0.43546 1.2243-1.2906 0.48909" fill="#0d131a"/>
 </g>
</svg>
