<?xml version="1.0" encoding="UTF-8"?>
<!-- Created with Inkscape (http://www.inkscape.org/) -->
<svg version="1.1" viewBox="0 0 331.95 221.87" xmlns="http://www.w3.org/2000/svg">
 <path d="m256.08 124.28c-9.0078 2.2227-15.247-8.0525-17.47-27.219-4.3479 7.4091-9.2613 8.306-14.935 3.6655-6.3757-5.1863-9.3198-8.7154-15.812-17.84-6.9996 19.946-36.909 18.464-62.314 1.5793 2.8272 26.185-7.7405 53.248-29.909 67.52 2.0667-0.74091 4.1335-1.5013 6.2587-2.3202 35.875-13.843 85.653-17.665 117.77-0.56543 20.648 10.997 34.199 10.587 37.767-4.5234-4.2309 15.013-23.28 10.197-21.35-20.297" fill="#dcdddd"/>
 <path d="m140.41 64.005c32.034-31.235 65.57-17.528 68.709 6.1027 27.57-1.8328 33.965 4.9524 33.302 17.84 20.336 3.4901 27.842 19.381 20.862 30.709 9.3003 3.8605 14.877 9.3393 15.052 18.503 0.156-4.7184-0.273-10.314-1.3843-16.865-7.4091-43.635-40.379-83.898-95.46-96.318-29.617-6.6682-59.117-6.9996-86.998-1.7743 23.378 7.721 38.449 23.495 45.917 41.803" fill="#187FC4"/>
 <path d="m263.28 118.66c6.9996-11.328-0.5264-27.219-20.862-30.709 0.6629-12.907-5.7323-19.693-33.302-17.84-3.1196-23.631-36.675-37.338-68.709-6.1027-7.4676-18.308-22.539-34.101-45.917-41.822-18.133 3.3926-35.603 9.1443-51.961 17.041-36.967 17.86-46.599 53.618-36.987 81.909 13.668 40.243 48.451 52.994 110.1 30.845 22.169-14.272 32.736-41.335 29.909-67.52 25.386 16.885 55.295 18.367 62.314-1.5793 6.4927 9.1248 9.4369 12.634 15.812 17.84 5.6738 4.6404 10.587 3.7435 14.916-3.6655 2.2227 19.166 8.4814 29.441 17.489 27.219-2.0277 31.761 18.737 35.68 21.818 18.328 2.2032-12.537-3.6071-19.381-14.623-23.943" fill="#fff"/>
 <path d="m67.074 119.38c-8.8519-6.6682-34.569-14.896-48.627-11.075 4.4455 0.078 9.2419 1.8718 13.492 5.6348 6.3952 5.6933 11.328 10.509 17.918 17.333 3.451-4.9719 10.061-10.256 17.216-11.894" fill="#933000"/>
 <path d="m72.122 136.66c3.3146-3.1586 3.0416-11.211-5.0499-17.294-7.1556 1.6378-13.765 6.9216-17.216 11.894 8.6179 8.5984 16.846 10.568 22.266 5.4008" fill="#ee869a"/>
 <path d="m212.18 34.718c-3.7825-12.888-18.347-25.62-34.784-29.948-26.088-6.8241-58.22-2.1642-84.483 17.645 40.379-7.0776 85.165-3.8995 119.27 12.303" fill="#187FC4"/>
 <path d="m261.1 156.6c2.2422 13.414 1.4428 28.603-1.4818 51.259-1.9498 15.052 12.244 16.651 18.503 1.9692 11.952-28.057 23.495-46.482 37.474-53.092 21.993-10.431 16.456-26.224 2.7296-26.263-14.799-0.039-27.57 0.72141-40.009 3.1586 0.7799 15.208-4.4454 23.904-17.216 22.968" fill="#fff"/>
 <path d="m61.388 68.085c-0.4875 7.7015 1.1503 16.3 5.5763 24.937 11.64 22.734 33.653 28.232 49.134 20.492 15.462-7.7405 20.589-27.55 13.824-45.468-24.294-7.526-50.011-8.3839-68.534 0.039" fill="#fff"/>
 <path d="m129.92 68.045c-0.6044-1.6183-1.2868-3.2171-2.0862-4.7964-11.036-21.584-34.043-28.642-49.855-21.759-9.4173 4.0945-15.793 14.175-16.592 26.595 18.523-8.4229 44.24-7.565 68.534-0.039" fill="#187FC4"/>
 <path d="m86.967 62.155c4.2505 3.1001 5.1474 7.9355 3.5876 11.289-1.9888 4.231-7.7795 6.2002-13.765 3.3926-5.4788-2.5542-7.3505-8.4814-6.2197-12.127 3.88-1.0919 10.88-2.3202 16.397-2.5542" fill="#fff"/>
 <path d="m79.704 77.815c3.6851 2.6712 4.036 6.6487 1.2284 12.088-3.3536 6.5122-1.4623 12.225 2.1642 14.253 4.2115 2.3787 8.9299 2.4762 12.732-1.9303 4.7964-5.5763 15.423-7.0776 19.361-4.9329 4.3089 2.3592 7.6625 1.4428 10.314-2.7492 2.4761-3.8995 1.3453-8.4424-1.4624-11.582-5.8102-6.5122-9.7292-12.361-5.1863-17.704-11.64-2.5737-22.344-3.3536-31.06-3.1976 6.2392 5.7323 4.4455 18.328-8.0915 15.754" fill="#00b9ef"/>
 <path d="m239.66 149.1c20.882 10.548 34.199 10.587 37.767-4.5234-2.7686 9.8462-11.913 11.172-17.333 2.3202-3.8995-1.0529-8.111-2.9441-12.498-5.7908-35.174-22.851-67.949-28.232-107.39-19.03-5.0304 12.088-13.297 22.656-24.567 29.909 25.483-11.894 83.059-23.553 124.02-2.8856" fill="#B5B5B6"/>
 <path d="m35.798 156.82c15.812 8.8519 42.037 8.7544 79.842-4.8354 11.27-7.2531 19.536-17.821 24.567-29.909-29.324 6.9801-78.029 22.13-104.41 34.745" fill="#dcdddd"/>
 <path d="m277.44 144.56c-2.9051 3.4316-11.542 3.958-17.333 2.3202 5.4008 8.4814 14.74 7.8185 17.333-2.3202" fill="#dcdddd"/>
 <path d="m136.75 144.56c26.341 15.949 24.879 39.385 13.668 43.655-15.734 5.9857-34.355-2.9831-38.917-34.53 7.5261-3.1196 17.138-6.5122 25.249-9.1248" fill="#B5B5B6"/>
 <path d="m266.04 156.48c1.8132 8.9494 2.4371 20.511 2.2812 40.009-0.078 10.256 10.607 9.2028 18.074-7.3506-3.5291 9.4173-6.2197 15.832-9.0859 22.383-5.5958 12.868-20.024 12.225-17.606-5.1084 2.6126-18.737 3.6265-37.728 1.0333-49.836 1.4818 0.17548 3.5291 0.0975 5.3034-0.0975" fill="#dcdddd"/>
 <path d="m123.96 17.28c26.107-2.6907 58.103-0.11698 84.834 9.9242 1.3453 2.7102 2.0862 4.9134 2.6906 7.2336-26.965-12.615-58.473-15.812-87.524-17.158" fill="#136EAB"/>
 <g fill="#0d131a">
  <path d="m43.288 40.691c-34.628 16.729-45.741 51.434-36.09 79.823 15.15 44.571 55.919 50.031 114.1 27.57 36.519-14.077 85.945-17.86 119.03-0.23397 32.132 17.08 40.457 3.5875 35.232-27.277-8.0524-47.593-44.22-83.469-94.388-94.797-41.374-9.3198-91.209-7.6235-137.89 14.916m-39.814 81.051c-9.6318-28.31 0.02-65.707 38.332-84.21 48.003-23.183 98.092-24.684 140.19-15.189 51.122 11.523 87.953 48.919 96.22 97.702 5.7323 33.789-5.3618 48.354-39.268 30.319-30.689-16.339-79.745-13.278-116.56 0.93588-61.086 23.553-103.16 16.787-118.92-29.558"/>
  <path d="m210 33.859c-4.3869-12.42-17.489-23.183-33.087-27.277-26.692-6.9996-56.114-1.5013-81.09 15.462l-6.1808 0.99437c24.489-20.258 58.551-27.803 88.09-20.043 17.158 4.5039 32.639 18.308 36.304 32.502z"/>
  <path d="m201.3 18.122c-5.5568-1.9498-12.342-2.9246-18.445-3.4901-4.7184-0.42895-4.6599-1.7353 0.039-1.8133 4.7964-0.05849 8.7349 0.09749 13.629 1.1504z"/>
  <path d="m109.98 153.7c23.28-12.361 36.87-39.249 34.023-68.885-0.234-2.5152 0.5069-2.6907 2.7686-1.1698 29.695 19.907 58.688 15.228 60.774-7.526 2.3397-25.444-31.84-43.48-65.531-11.621-1.5988 1.5208-2.5931 1.3843-3.412-0.64342-8.0135-20.16-25.015-34.277-47.048-41.159l5.4788-1.0334c20.258 7.0776 35.778 20.921 43.889 39.989 34.199-31.8 72.219-14.487 69.86 14.877-2.1837 26.926-35.622 29.324-63.62 10.665 1.8523 26.887-9.6903 51.279-27.297 63.542z"/>
  <path d="m277.37 138.26c-0.117-8.3839-4.8939-14.116-14.116-18.25-1.3648-0.60442-1.5793-0.91638-0.8969-2.2617 2.2812-4.5039 2.6517-9.7683 0.5069-14.545-3.1586-6.9801-10.451-11.971-20.238-13.843-1.3063-0.25347-1.5793-0.56543-1.5403-1.8328 0.156-4.8744-0.7604-8.306-3.4706-10.977-4.4454-4.348-13.102-5.8298-28.31-5.0304l-0.3315-2.7686c15.93-1.1504 25.854 0.52643 30.728 5.2838 2.9441 2.9051 4.3284 7.2531 4.0944 12.771 10.412 2.0082 18.308 7.4286 21.72 14.974 2.3982 5.3033 2.3397 11.406-0.4095 16.222 8.345 3.4316 12.888 8.4619 14.058 15.228z"/>
  <path d="m275.78 150.48c-1.8717 2.9636-5.0693 4.231-8.0525 3.8605-6.8046-0.79939-14.136-9.8462-13.044-28.486-3.6851 0.64342-6.7072-0.8189-9.3978-3.8605-3.5291-3.9775-6.2002-10.334-7.5066-21.408-3.3146 4.9134-9.0468 6.6097-15.072 1.4233-6.1417-5.2838-9.8852-9.5733-15.364-17.528l1.0333-3.2951c6.7657 9.0858 9.8658 13.005 16.3 18.269 4.7184 3.841 8.2669 3.1976 12.498-2.7686 1.6378-2.3007 2.4567-2.2812 2.8076 0.70191 1.4039 12.166 4.0945 18.289 7.4676 22.266 2.5347 3.0026 4.6989 3.724 8.1305 3.3146 1.5013-0.17547 1.7937-0.0195 1.7547 1.6963-0.5069 16.436 4.504 25.659 10.665 26.4 3.4316 0.42894 6.2977-1.3843 7.838-5.6933z"/>
  <path d="m78.588 43.186c-13.999 6.0832-21.467 27.141-10.197 49.173 11.698 22.871 32.99 26.595 46.911 19.634 14.233-7.1166 21.428-27.959 11.114-48.081-10.997-21.525-33.536-26.946-47.828-20.726m-13.161 50.479c-11.543-22.578-5.0109-46.463 11.854-53.813 16.807-7.2921 40.672 0.68242 51.941 22.734 10.49 20.472 4.3675 44.201-12.459 52.604-15.072 7.5455-38.664 3.2366-51.337-21.525"/>
  <path d="m130.5 69.735c-25.873-8.2864-51.727-8.3449-69.314-0.21447l0.1755-2.8661c16.573-8.072 42.778-7.838 67.968-0.37045z"/>
  <path d="m3.811 115.68c4.8159-10.139 18.484-12.01 29.012-2.6517 6.6487 5.9078 11.27 10.373 17.509 16.768 9.1444 9.3588 16.456 9.6903 20.667 5.6543 2.6127-2.4762 3.0806-11.153-9.1443-17.431-14.019-7.2141-29.5-10.626-42.017-9.5148l-5.2448-1.2283c13.999-3.7435 34.179 0.62392 48.607 8.033 14.019 7.2141 14.467 18.211 9.9437 22.539-5.6932 5.4398-14.935 4.192-24.898-6.0247-6.2197-6.3562-10.568-10.997-17.158-16.865-10.86-9.6513-23.046-5.3813-26.146 4.3285z"/>
  <path d="m48.85 130.32c3.3536-4.9914 9.9047-10.022 17.041-11.777l2.1253 1.7353c-7.1556 1.5793-13.629 6.7656-17.197 11.952z"/>
  <path d="m138.55 144.22c26.127 15.832 24.82 41.14 12.42 45.858-16.358 6.2197-36.363-3.0221-41.023-36.246l2.7882-0.8189c4.1919 29.87 21.311 39.463 37.006 33.497 10.041-3.8215 11.484-25.834-14.448-41.335z"/>
  <path d="m148.54 188.92c0.4484-4.114-1.4428-8.6374-5.1474-12.615-3.1391-3.3536-1.8522-4.7379 1.5598-1.6378 4.1335 3.763 6.5317 9.2223 6.3367 13.453z"/>
  <path d="m278.4 132.28c11.348-2.1837 23.728-3.3146 39.95-3.1781 14.838 0.13648 21.974 17.587-2.1252 29.012-12.81 6.0832-23.378 20.882-36.772 52.273-7.5846 17.801-23.514 13.356-21.447-2.6712 3.1781-24.586 3.724-38.683 1.5988-51.162l2.8856 0.11699c2.0668 12.556 1.7353 26.868-1.4233 51.356-1.5208 11.718 9.4758 15.462 15.578 1.1309 12.79-29.968 25.444-47.691 38.274-53.755 20.492-9.7293 15.5-23.417 3.3536-23.436-16.28-0.078-28.603 0.76041-39.97 3.0221z"/>
  <path d="m285.89 192.7c-0.2925-6.9606-0.5655-12.342-1.1114-18.406-0.4679-5.0304 1.4428-5.2253 2.2032-0.23397 0.7604 5.1278 1.1504 8.9299 1.4234 14.37z"/>
  <path d="m312.58 158.68c-5.3813-0.33145-8.7934-1.1114-14.292-2.8661-4.9719-1.5598-4.4065-3.3926 0.6239-2.1057 6.1027 1.5208 10.743 2.1642 17.353 2.3982z"/>
  <path d="m124.97 82.095c-6.3952-7.1556-8.9493-12.147-4.5819-16.729l-2.6906-0.58493c-5.2254 6.0052 0.097 13.141 5.3618 19.03 2.4372 2.7296 3.1586 6.7656 1.1698 9.8852-2.4957 3.919-5.6932 4.036-8.5204 2.4762-4.8159-2.6127-16.144-0.27296-20.784 5.1278-2.5736 2.9831-6.6681 4.114-11.152 1.5988-3.7241-2.0862-4.0945-7.7405-1.6963-12.42 1.8717-3.6265 2.4762-6.9021 1.6183-9.5538-0.5265-1.6183-2.3787-3.3926-6.3757-5.2643-2.4372-1.1309-4.0555-3.0026-4.9524-4.9524-1.0334-2.2617-1.1309-4.6209-0.429-6.1417l-2.7101 0.48744c-0.4874 2.1642-0.156 4.5819 0.8969 6.8241 1.1698 2.5152 3.2561 4.7769 6.1027 6.1222 3.5096 1.6378 4.387 2.3592 4.8354 3.4901 0.7604 1.9888 0.3509 4.5234-1.3648 7.8575-3.4121 6.6292-2.3397 13.434 2.5931 16.202 5.2644 2.9636 10.529 2.1252 14.428-2.3982 4.4649-5.1863 13.98-6.8436 17.957-4.6599 4.7184 2.5542 8.9884 1.7158 12.069-3.1391 2.1447-3.3731 2.5152-8.4619-1.7743-13.258"/>
  <path d="m77.878 75.935c4.6989 1.8913 10.08 0.11699 11.542-3.0026 1.2284-2.6517 0.6239-7.565-4.192-10.392l3.6266-0.46794c3.5875 3.3536 4.5234 8.1305 2.7881 11.874-1.9887 4.231-7.0581 5.8103-11.66 4.7184z"/>
 </g>
 <path d="m171.38 122.1c37.045 3.7825 46.248 24.879 41.179 34.491-8.7544 16.495-40.418 6.9021-58.376-20.141-5.4983-8.2864 1.9108-15.91 17.197-14.35" fill="#dcdddd"/>
 <path d="m171.31 121.4c-18.542-1.8913-23.689 6.7072-18.932 13.843 3.3536 5.0694 7.1556 9.5148 11.172 13.336 9.1639-7.916 25.152-14.194 42.154-13.843-6.6487-6.2587-17.684-11.621-34.394-13.336" fill="#B5B5B6"/>
 <path d="m152.76 137.12c-3.0611-4.5234-1.5013-5.7713 1.8133-1.4233 20.141 26.458 48.549 34.686 56.289 20.063 4.5624-8.6374-4.036-27.881-36.655-32.483-6.6876-0.93588-6.5122-2.9441 0.234-2.2812 34.511 3.3926 45.507 25.561 39.756 36.382-9.5148 17.977-42.524 7.565-61.437-20.258" fill="#0d131a"/>
 <path d="m211.55 158.3c-3.7826-2.8661-8.15-5.4008-13.512-7.8965-6.1418-2.8466-5.4204-4.5624 0.8579-2.0082 5.5373 2.2617 10.217 4.7769 14.116 7.5455z" fill="#0d131a"/>
</svg>
