<?xml version="1.0" encoding="UTF-8"?>
<!-- Created with Inkscape (http://www.inkscape.org/) -->
<svg version="1.1" viewBox="0 0 431.02 345.94" xmlns="http://www.w3.org/2000/svg">
 <path d="m128.91 157.12c-2.7893-3.463-5.9547-7.271-9.3081-11.22-0.61114 1.1752-1.2223 2.3505-1.7864 3.5571-31.763 20.81-68.98 70.516-79.495 109.72-5.9547 6.2367-11.204 12.066-15.921 17.707 3.9646-1.191 8.3365-2.3819 12.332-3.2594 1.6767 4.8734 3.4788 12.803 3.8235 19.603 4.6697-1.9431 9.2454-3.9332 13.664-5.9702 8.6499 2.6952 14.37 4.607 21.891 8.0857-0.61114 3.6669-1.1753 7.1613-1.6924 10.546 5.798-6.4247 14.573-12.724 20.497-15.623 2.1155 3.9646 3.3848 13.179 3.134 20.747 5.986-5.5629 11.298-10.844 14.432-14.652 2.0215-2.4758 4.0272-5.845 4.9361-10.452 6.4248-32.688 18.992-80.294 35.18-106.9-6.08-3.8393-12.959-11.032-21.688-21.891" fill="#A0D8EF"/>
 <path d="m397.43 265.88c-1.8491-0.62683-3.6982-1.2537-5.5786-1.8804-22.784-52.056-47.559-92.705-88.254-118.59-5.7353-10.327-13.461-18.961-22.502-25.918-17.08 13.555-33.754 29.052-45.396 49.126-3.0244 5.2182-5.6883 9.073-8.5402 11.565 12.818 25.668 23.787 65.611 30.651 111.81 0.7835 5.2966 1.6924 7.1769 3.5885 10.405 1.3006 2.2095 2.5856 4.3721 3.8549 6.4718 0.61114-3.0086 1.661-5.3905 2.7893-7.3493 8.4149 3.4632 17.739 9.3551 26.106 17.049 0.26639-2.3975 0.50145-4.7167 0.68949-6.9576 8.3992-1.473 19.196-3.3691 28.394-5.2651 4.7951 2.993 9.0574 5.6255 12.959 8.0074 0.8932-6.8791 4.5287-16.391 8.2738-21.719 6.2681 0.56412 15.749 6.5814 24.367 18.694 0.0941-2.0214 0.18805-4.1056 0.25073-6.2994 5.2808-2.805 9.5588-5.1084 14.699-7.9604 4.372 0.57973 8.5402 1.1282 12.567 1.6454 1.7551-5.704 4.0899-12.724 5.8606-17.41-1.1283-0.68954-4.3876-3.087-5.8136-4.0117-0.51712-3.8548-0.047-7.8977 1.0342-11.408" fill="#A0D8EF"/>
 <path d="m227.17 180.18c-3.7295 2.9616-7.8351 4.2309-13.868 2.7892-7.0046-1.6767-15.686-4.748-24.665-10.029-19.509 11.643-31.873 11.142-38.031 6.08-13.367 23.364-21.75 51.273-28.253 76.408 20.857 2.5699 35.18-0.40735 40.272-4.2936 0.68949 1.426 2.4446 2.2878 5.5629 2.9304 16.563 3.4161 45.632 4.1055 55.504-1.2223 0.79918 1.6297 2.5386 3.1027 5.9547 3.4317 7.3806 0.68953 15.357 0.83056 22.111 0.53289-5.939-27.329-13.931-55.598-24.586-76.627" fill="#2F3160"/>
 <path d="m301.56 64.93c-1.5357-2.1939-12.928-11.173-17.519-12.709-7.3023-2.4289-23.427-3.7138-29.789-1.3006-13.68 5.1869-64.624 83.036-67.147 107.11-20.591-15.388-39.473-53.874-49.721-87.33-2.7736-9.0574-6.6598-19.447-8.1798-19.995-5.1555-1.9117-23.834-1.7707-28.316-1.0342-2.5542 0.42309-17.676 10.374-20.011 13.727-1.5984 2.3036-8.0388 19.29-7.7411 23.803 0.29773 4.3719 5.0301 11.612 15.184 23.066 11.392 12.849 29.162 32.625 40.601 46.87 13.711 17.08 22.91 25.104 31.528 25.26 8.0858 0.1253 19.384-3.7295 28.473-9.3864 7.3963 4.419 15.905 7.8977 23.396 9.7782 7.506 1.8648 12.426 0.95586 17.958-10.045 15.764-31.372 37.107-54.532 69.952-81.171 0.90888-0.7365 1.2536-1.6297 1.2379-2.7736-0.0941-8.2425 0.15671-17.801 0.0941-23.866" fill="#525898"/>
 <g fill="#A0D8EF">
  <path d="m164.19 118.25c-7.5687-17.707-11.815-32.218-15.764-45.694-4.5443-15.545-7.0986-20.606-15.607-32.672-3.4161-4.8421-6.7538-9.4961-10.06-14.04-8.0075-1.614-16.783 0.97147-21.985 5.5785-0.32907 5.8137-0.67382 11.925-1.1909 18.726 0.56413-0.25071 1.0029-0.42309 1.3006-0.47018 4.4817-0.75212 23.161-0.87754 28.316 1.0186 1.52 0.56412 5.4062 10.954 8.1798 19.995 10.248 33.44 29.115 71.91 49.706 87.314 0.10967-1.5671 0.42309-3.1184 0.75217-4.3407-10.358-8.0231-17.237-20.434-23.646-35.415"/>
  <path d="m67.604 58.106c-1.5827-0.42309-3.181-0.83057-4.7951-1.2223-4.8264 3.2594-8.5559 9.8565-8.6186 16.595 5.9077 5.3592 12.458 10.906 19.682 16.72-0.4231-1.1282-0.67382-2.1311-0.7365-3.0086-0.1567-2.3975 1.5984-8.3679 3.5258-13.743-4.278-5.6256-7.2239-11.188-9.0574-15.341"/>
  <path d="m317.8 58.742c-5.2182 1.849-10.656 3.8236-16.438 5.939 0.0783 0.09394 0.14103 0.17238 0.18804 0.25071 0.0783 6.0643-0.17237 15.623-0.0941 23.866 0.0156 1.144-0.32908 2.0371-1.2223 2.7736-32.845 26.639-54.187 49.784-69.967 81.156-3.8235 7.6156-7.3493 10.405-11.643 10.781 6.8008 0.0939 11.486-5.2651 16.673-14.181 14.511-24.978 35.603-44.237 68.369-65.736 4.372-2.8676 5.9703-4.325 9.1044-7.506 6.0487-6.1427 12.379-12.677 18.475-19.353 0.0314-8.8536-5.845-15.545-13.445-17.989"/>
  <path d="m275.52 50.407c4.372-4.6384 9.8879-9.2612 13.508-11.627 0.54846-1.2379 1.0656-2.4602 1.567-3.6825-3.5571-3.8705-9.9192-6.3307-15.545-6.3621-7.1926 6.9733-14.417 14.667-21.484 22.487 0.23504-0.12541 0.4701-0.21935 0.68949-0.31341 4.4347-1.6767 13.633-1.5513 21.264-0.50141"/>
 </g>
 <g fill="#F5AF7E">
  <path d="m122.76 25.847c-6.1584-8.4619-12.207-16.501-18.444-24.461-0.34474-0.43871-1.0812-1.0029-1.0969-0.86192-1.3006 10.812-1.8334 20.371-2.4445 30.902 5.2025-4.607 13.978-7.1925 21.985-5.5785"/>
  <path d="m62.812 56.885c-8.8066-2.1624-18.224-3.9331-28.943-5.3905-0.34474-0.04758-0.86186 0.07808-0.76784 0.17238 5.6726 6.9889 12.709 14.213 21.092 21.813 0.06268-6.7381 3.7922-13.335 8.6186-16.595"/>
  <path d="m290.59 35.099c3.3691-8.1799 5.892-16.36 8.4619-25.809 0.0783-0.25071-0.18804-0.51715-0.37609-0.37612-7.6784 5.1712-15.639 12.05-23.631 19.823 5.6256 0.03172 11.988 2.4915 15.545 6.3621"/>
  <path d="m317.8 58.742c7.6 2.4445 13.476 9.1357 13.445 17.989 8.7596-9.6058 16.986-19.462 23.019-28.802 0.14103-0.23497 0.12536-0.62671-0.0156-0.59548-11.455 2.8677-23.176 6.7069-36.449 11.408"/>
 </g>
 <g fill="#DB6AA4">
  <path d="m224.05 74.141c-0.70516-0.21948-5.7823 9.3237-11.22 22.173-2.5229-11.69-5.1241-21.076-6.0173-21.139-0.68949-0.04636-3.8862 10.765-6.5188 20.434-6.127-11.784-11.094-19.337-11.988-18.914-0.78351 0.37612 0.98721 10.859 5.2182 22.158-11.612 1.6767-22.878 4.9362-33.189 9.7782 6.6598 18.397 17.112 38.157 27.611 44.973 4.9831-19.509 25.292-51.696 36.997-68.823 0.23505-5.7195-0.18805-10.421-0.8932-10.64"/>
  <path d="m196.11 88.063c-0.39175-9.0261-0.34474-17.049 0.53278-17.206 0.67382-0.12529 2.8676 3.4945 4.7324 7.7098-1.0499 4.4974-2.0841 8.3052-3.2124 13.037-0.8462-1.5827-1.3006-2.5072-2.0528-3.5414"/>
  <path d="m281.14 119.46c-11.768 9.0259-21.593 17.989-29.883 27.564 8.2268-2.6326 15.278 3.6354 22.925 16.015 1.3163 2.1468 3.3064 2.0528 2.9617-1.144-2.7266-25.856 10.076-35.556 24.634-19.666-5.1085-7.8038-13.21-17.535-20.638-22.769"/>
  <path d="m122.45 149.28c-0.21938 3.6824-1.0812 6.3777-2.2565 9.4961-0.7365 1.9273 0.72083 2.8049 2.1625 0.89315 1.708-2.2722 3.181-4.0272 4.9988-4.4503-1.5513-1.9118-3.181-3.8863-4.9048-5.939"/>
 </g>
 <path d="m230.27 217.12c2.3192-0.0476 4.8578-0.0781 6.6598 0.0781-4.7794-5.3122-13.273-11.596-23.552-14.793 8.4776-3.2593 14.072-10.28 14.526-20.841l-0.90886-1.5827c-2.5229 2.4602-5.9233 4.325-12.599 3.2593-7.9604-1.2535-18.021-5.8606-25.668-10.311-3.7295 2.4289-8.2112 4.5287-11.972 6.0017-0.53279 13.962 8.6813 23.897 21.515 25.37-9.4648 4.4504-20.982 15.984-23.16 22.032 7.4276-3.3691 13.194-6.0487 19.995-8.3992 0.68949 5.8919 3.5415 14.464 6.9106 17.88 4.1683-3.9958 9.4491-10.53 11.533-15.921 8.6186 2.178 16.422 4.8106 23.317 8.4462-0.98722-3.4632-3.2751-7.4903-6.5971-11.22" fill="#BF5B8F"/>
 <g fill="#F5AF7E">
  <path d="m200.3 95.612c2.6169-9.6685 5.8136-20.481 6.5188-20.434 0.89319 0.06222 3.4944 9.449 6.0017 21.139 2.6012-6.127 5.1085-11.486 7.0986-15.42-2.3192-14.369-4.9204-26.608-7.9604-40.758-0.12537-0.64244-0.72083-0.83044-0.86186-0.28206-4.654 16.783-8.2112 31.607-12.85 51.9 0.67382 1.2223 1.3476 2.5072 2.0528 3.8549"/>
  <path d="m305.09 132.2c5.9076-5.6883 11.831-11.768 15.999-17.833 0.34475-0.50141-0.18803-0.89327-0.75217-0.61121-9.2297 4.6541-17.41 9.3708-27.877 16.015 1.4887 1.8334 3.7138 4.607 5.2652 6.6755 2.4132-1.6454 5.5316-3.3848 7.365-4.2466"/>
  <path d="m286.67 123.98c1.8177-3.3691 3.1027-6.3307 4.278-8.9791 0.12537-0.29768-0.29772-0.57974-0.6268-0.45444-2.1938 0.90889-3.9959 1.6298-5.9233 2.4133-1.3163 1.0499-2.3192 1.802-3.2594 2.5072 2.3035 1.7864 3.2594 2.5856 5.5316 4.5131"/>
 </g>
 <g fill="#A0D8EF">
  <path d="m50.251 229.16c-5.5316-5.3435-10.217-12.395-9.2297-14.448 0.59547-1.2379 5.9077-0.56412 15.592 3.3221-2.0528 3.2123-4.466 7.647-6.3621 11.126"/>
  <path d="m335.54 171.86c14.479-5.0772 24.571-6.7696 25.95-5.1398 1.0029 1.1908-2.1938 6.7538-6.0487 10.264-4.654 0.31341-9.3864 0.97159-13.727 1.8178-2.1311-2.3506-4.2623-4.9518-6.174-6.9418"/>
  <path d="m389.15 232.44c8.7283-5.9233 12.332-11.847 11.392-13.68-1.1753-2.2878-14.181-1.5983-29.319 2.993 2.2408 3.8705 4.1526 7.459 5.5002 10.311 4.9204-0.40747 8.7753-0.48579 12.426 0.376"/>
 </g>
 <g fill="#F5AF7E">
  <path d="m22.403 276.9c-8.4462 10.123-15.106 19.635-20.81 29.789 11.674-3.5885 24.586-8.3052 36.966-13.461-0.34474-6.8008-2.1468-14.714-3.8235-19.588-3.9959 0.86192-8.3679 2.0685-12.332 3.2594"/>
  <path d="m92.922 290.28c-5.9233 2.8989-14.714 9.1983-20.497 15.608-1.5357 10.139-2.6326 19.149-3.4788 28.426 7.0672-5.5786 17.895-14.761 27.094-23.286 0.26639-7.5687-1.0029-16.783-3.1184-20.747"/>
  <path d="m265.26 308.86c8.2582 13.617 16.078 25.057 24.806 35.838 1.8491-8.9791 3.181-17.942 4.0899-26.138-8.3679-7.6941-17.692-13.586-26.106-17.049-1.1282 1.9587-2.1782 4.3406-2.7893 7.3493"/>
  <path d="m344.46 292.62c-3.7452 5.3435-7.3806 14.84-8.2582 21.735 11.894 7.2552 20.465 12.176 30.682 17.676 0.92454-7.083 1.567-13.461 1.9431-20.716-8.6186-12.113-18.099-18.13-24.367-18.695"/>
 </g>
 <path d="m124.73 106.79c-5.7196-3.6981-14.793-5.1868-16.689-3.3847-1.5043 1.4417 0.50144 9.2768 4.7794 14.401 7.6941 2.476 13.586-2.2251 11.909-11.016" fill="#DB6AA4"/>
 <path d="m247.9 95.037c-2.0685-1.3162-8.4932 2.8206-13.194 7.6-1.9118 8.3836 5.5942 12.787 12.411 7.9605 2.0058-6.6128 2.1311-14.699 0.78351-15.561" fill="#DB6AA4"/>
 <path d="m211.48 39.789c-0.8932 12.207-1.52 27.329-2.2408 41.072-0.83052-2.7109-1.8648-5.4532-2.4132-5.4219-0.83053 0.06222-5.4846 16.845-6.4875 19.979-0.81485-1.3006-1.5827-2.6482-2.1781-3.7765 4.8264-21.217 8.7753-36.95 13.32-51.853" fill="#D4986D"/>
 <g fill="#BF5B8F">
  <path d="m196.75 71.241c1.2379 4.9674 2.1938 8.6813 2.9773 13.038-0.48578 2.1782-1.0969 5.3592-1.4887 7.2395-0.48578-0.9245-1.7551-2.993-2.2408-3.6981-0.25072-6.7225-0.36041-16.25 0.75217-16.579"/>
  <path d="m188.47 76.783c2.3819 8.0702 5.1555 16.25 7.7254 21.923 0.90886 2.0058-0.50145 3.1496-1.7237 2.7579-3.8705-9.7782-6.9889-23.944-6.0017-24.681"/>
  <path d="m206.99 75.37c-1.1909 6.8635-2.6326 16.093-3.4944 22.267-0.32907 2.2878-2.9773 2.8989-4.2153 1.6297 1.8177-6.5658 6.3151-23.051 7.7097-23.897"/>
  <path d="m224.1 74.632c-2.3348 6.6598-5.7196 16.845-7.8037 23.098-1.5043 1.9275-3.8235 2.2095-4.6227 1.3164 3.134-7.7881 10.797-24.32 12.426-24.414"/>
 </g>
 <path d="m109.2 133.64c31.779 35.415 59.578 34.145 77.802 25.01 16.36 9.9506 43.485 8.1016 68.761-25.26-12.693 16.187-20.794 30.087-25.715 39.943-5.2495 10.499-10.562 11.455-18.209 9.2766-10.013-2.852-16.14-5.4844-22.925-9.6372-10.734 6.6442-24.806 10.358-30.886 9.1984-14.087-2.7109-32.406-30.087-48.828-48.531" fill="#42467E"/>
 <path d="m180.24 193.26c9.9506-7.4903 32.845-7.7724 44.174 0.28206 2.0841-3.5571 3.4004-8.1641 3.5571-12.05l-0.81486-1.2536c-7.2239 6.3464-19.274 3.275-38.235-7.271-3.2751 2.0685-8.2582 4.4817-12.411 6.1741 0.047 5.2495 1.1126 9.9035 3.7295 14.119" fill="#9D4976"/>
 <path d="m179.82 178.86c-0.79918 9.6998 3.4944 14.793 7.412 14.417 4.9831-0.4858 7.3023-5.1554 5.0301-14.965-3.1027 1.0812-8.6343 1.2535-12.442 0.54839" fill="#D4986D"/>
 <path d="m188.44 179.14c0.83052 0.64244 1.4103 2.2408 1.4417 4.6226 0.047 3.5728-0.79918 5.2025-2.1782 5.3279-1.2536 0.1098-2.2722-1.7864-2.3192-5.0772-0.047-2.5072 0.36042-4.0272 1.0812-4.7167 0.54845-0.0159 1.1126-0.0317 1.9744-0.15665" fill="#8ABCCF"/>
 <path d="m212.32 182.78c-2.4289-0.61109-4.9831-1.3947-7.553-2.3192-0.72083 10.421 2.899 13.978 7.4747 14.04 5.2652 0.0781 9.167-4.0116 9.2924-11.706-2.7266 1.1282-5.6883 0.86192-9.2141-0.0159" fill="#D4986D"/>
 <path d="m208.46 181.68c-0.54845 2.8677-0.6268 8.6813 2.4446 8.7754 2.1625 0.0781 3.5415-3.2125 3.3534-7.2554-2.2722-0.376-3.8078-0.89315-5.798-1.52" fill="#8ABCCF"/>
 <g fill="#9D4976">
  <path d="m215.54 203.28c-0.047 0.48579-0.29774 1.2223-0.51711 1.2849-0.53279 0.18813-2.9617-1.3006-5.3749-3.6981-5.986 2.2565-13.79 1.8961-19.024-0.83044-0.39175 0.45432-0.92453 0.95586-1.5984 1.4103 2.6013 1.4573 5.4689 2.3662 8.8536 2.8049-1.9274 1.191-2.5856 1.6768-4.2309 3.0401 5.5472 4.1682 15.482 4.3877 21.938 0.65818 0.84619-0.4858 1.379-0.4858 2.1468-0.12541 4.7481 2.1938 8.6969 4.9832 12.442 9.12 3.4318 0.0781 4.9518 0.10979 6.6912 0.18812-5.5002-5.9077-13.884-11.831-21.327-13.852"/>
  <path d="m214.37 216.94c0.61114-1.097 1.8334-1.3477 3.3534-0.73651 5.7666 2.2721 13.68 6.7381 18.553 11.439-5.3122-2.3036-14.824-5.9077-22.706-7.7254 0.43875-1.0812 0.47009-1.8648 0.79917-2.9772"/>
  <path d="m175.16 226.04c5.2495-4.9674 12.818-8.6498 18.977-10.765 2.7893-0.95586 4.231-0.376 4.3876 2.0371 0.36042 5.8137 1.426 12.301 3.6512 17.958-2.9303-1.6454-6.7225-12.003-7.0516-17.253-5.4062 1.8961-13.351 4.9518-19.964 8.0231"/>
 </g>
 <path d="m1.087 272.1c8.0545 1.5513 13.946 2.0371 22.91 2.617 2.7736-3.0087 6.0957-6.5972 9.1044-9.8409-0.62681-2.1939-1.5357-4.654-2.2878-6.5815-9.5118 3.6354-20.904 8.8066-29.726 13.805" fill="#D4986D"/>
 <path d="m39.441 255.24c-2.5699 0.81482-5.4846 1.8491-8.6186 3.0557 0.7365 1.9275 1.6454 4.3877 2.2878 6.5814 1.8491-1.99 3.5728-3.8548 4.9988-5.3592 0.5798-1.5044 0.75217-2.5072 1.332-4.278" fill="#8ABCCF"/>
 <path d="m354.11 47.398c-7.6627 7.1143-16.14 14.652-24.461 21.688 1.0342 2.3035 1.5984 4.8577 1.5984 7.647 8.979-9.8408 16.798-19.791 22.863-29.335" fill="#D4986D"/>
 <path d="m300.9 90.847c-1.3163 1.2379-3.8862 3.3534-5.4689 4.654-19.196 16.485-35.681 32.045-49.377 51.006-5.8606 8.2268-11.063 16.861-15.78 26.232-2.1625 4.278-4.2153 7.036-6.3778 8.697-0.92454 0.78348-1.9118 1.4259-2.9773 1.8804 5.6099-1.0186 9.8095-6.127 14.385-13.993 14.511-24.978 35.603-44.237 68.369-65.736 4.372-2.8676 5.9547-4.325 9.0887-7.506 6.0487-6.1427 12.395-12.677 18.491-19.353 0-2.7735-0.56413-5.3434-1.5984-7.6314-10.045 8.5089-20.042 16.297-28.755 21.75" fill="#8ABCCF"/>
 <path d="m100.78 31.428c3.6041-3.2125 8.9477-5.4376 14.573-5.939-3.7922-8.6499-8.1171-17.112-12.191-24.837-1.3006 10.828-1.7707 20.23-2.3819 30.776" fill="#D4986D"/>
 <path d="m115.35 25.482c-5.6099 0.51715-10.953 2.7423-14.573 5.939-0.32907 5.8137-0.67382 11.925-1.1909 18.726 0.56413-0.25071 1.0029-0.42309 1.3006-0.47018 3.7452-0.62671 17.394-0.81483 24.79 0.23509-3.1497-7.4903-6.6128-15.937-10.327-24.43" fill="#8ABCCF"/>
 <path d="m33.228 51.817c5.6413 6.9262 12.646 14.103 20.967 21.672 0.03134-4.5287 1.7394-8.979 4.2936-12.411-9.7155-3.7922-18.883-7.1456-25.26-9.261" fill="#D4986D"/>
 <path d="m54.195 73.485c5.892 5.3592 12.458 10.906 19.666 16.704-0.4231-1.1126-0.65815-2.1155-0.72083-2.993-0.1567-2.4133 1.5984-8.3679 3.5101-13.758-1.7864-2.3663-3.3377-4.7011-4.6854-6.942-4.466-1.849-9.026-3.6825-13.476-5.4062-2.5542 3.4162-4.2623 7.8665-4.2936 12.395" fill="#8ABCCF"/>
 <path d="m298.37 9.129c-3.3691 7.6627-6.9575 15.466-10.891 23.364 1.1753 0.76774 2.2252 1.6453 3.1027 2.6013 3.2907-7.9761 5.7823-15.968 8.2895-25.135 0.14103-0.4858-0.20372-1.0342-0.50146-0.83057" fill="#D4986D"/>
 <path d="m289.02 38.772c0.54846-1.2222 1.0656-2.4445 1.567-3.6668-0.87753-0.97147-1.9431-1.8334-3.1027-2.6013-2.0998 4.1997-4.278 8.4306-6.5815 12.677 2.9617-2.6483 5.892-4.9518 8.1171-6.4092" fill="#8ABCCF"/>
 <path d="m247.11 110.6c2.0058-6.6128 2.1468-14.699 0.78351-15.561 0-0.01586-0.0156-0.01586-0.0156-0.01586-1.7551 6.8165-4.231 13.022-7.1456 17.551 1.9744 0.15665 4.2153-0.43883 6.3778-1.9744" fill="#BF5B8F"/>
 <path d="m241.17 119.57c-3.181 0.65818-4.2623-2.0215-2.3035-4.4504 0.59546-0.7365 1.3054-1.6658 1.8696-2.5433 1.9901 0.17238 4.1996-0.43883 6.3778-1.9744-1.0656 4.2309-3.7186 7.6517-5.9438 8.9681" fill="#42467E"/>
 <path d="m108.12 103.36c-0.0157 0.0159-0.0627 0.0317-0.0784 0.0476-1.5043 1.4417 0.51712 9.2925 4.7794 14.401 2.9617 0.95586 5.6569 0.83057 7.7567-0.17238-0.26639-0.26644-0.56412-0.51715-0.92454-0.76786-4.3406-3.0557-8.7596-8.5559-11.533-13.508" fill="#BF5B8F"/>
 <path d="m119.92 122.49c2.0528-0.59547 2.5699-2.8833 0.64248-4.8577-2.0998 1.0028-4.7794 1.1282-7.7411 0.17238 1.332 2.1468 5.0458 4.5286 7.0986 4.6854" fill="#42467E"/>
 <path d="m47.508 262.58c-3.5728 3.0557-7.9761 6.9262-12.724 11.189 1.661 4.8891 3.4318 12.724 3.7765 19.462 4.654-1.9431 9.2454-3.9332 13.664-5.9546 0.03134 0 0.04701 0.0159 0.07835 0.0159 3.4474-6.1114 0.92454-19.227-4.7951-24.712" fill="#8ABCCF"/>
 <path d="m34.787 273.78c-11.486 10.358-24.9 23.129-32.986 32.563-0.06268 0.12542-0.14103 0.23509-0.20371 0.34477 11.674-3.5885 24.571-8.3052 36.966-13.461-0.34474-6.7381-2.1155-14.558-3.7765-19.447" fill="#D4986D"/>
 <path d="m146.32 175.88c-20.246 22.001-36.402 66.598-48.828 103.08-1.2066 3.5415-2.7423 7.412-4.513 11.455 2.0841 4.0272 3.3221 13.132 3.0557 20.622 6.0017-5.5629 11.314-10.844 14.448-14.667 2.0058-2.4602 4.0272-5.8293 4.9361-10.436 6.4248-32.688 18.992-80.294 35.18-106.9-1.379-0.87754-2.805-1.9273-4.278-3.1496" fill="#8ABCCF"/>
 <path d="m92.983 290.42c-6.3464 14.479-15.733 31.199-23.975 43.297-0.01566 0.20374-0.04701 0.39174-0.06268 0.59548 7.0672-5.5629 17.895-14.746 27.094-23.286 0.26639-7.4747-0.98722-16.579-3.0557-20.606" fill="#D4986D"/>
 <path d="m264.63 292.76c-5.2965-36.355-16.939-86.437-33.722-116.74-1.238 1.6611-2.4759 3.0557-3.7452 4.1683 12.818 25.652 23.787 65.595 30.651 111.79 0.79917 5.3122 1.6924 7.1925 3.5885 10.421 1.3006 2.2095 2.5856 4.3563 3.8549 6.456 0.61114-2.9459 1.614-5.2808 2.7266-7.2239-1.8334-3.8236-3.0714-6.8949-3.3534-8.8693" fill="#8ABCCF"/>
 <path d="m290.19 344.06c-7.1456-15.043-17.049-31.701-22.205-42.435-1.1126 1.9432-2.1311 4.2936-2.7266 7.2396 7.365 12.129 20.434 31.748 24.931 35.195" fill="#D4986D"/>
 <path d="m333.87 276.86c-5.4219 9.9819-9.1984 18.773-10.781 29.523 0.047-0.0159 0.10967-0.0159 0.1567-0.0317 4.7951 2.993 9.0574 5.6256 12.959 8.0231 0.87753-6.8949 4.513-16.391 8.2582-21.735-4.0116-6.1584-7.7567-11.659-10.593-15.78" fill="#8ABCCF"/>
 <path d="m344.47 292.62c-3.7452 5.3435-7.3806 14.84-8.2738 21.735 11.831 7.2239 20.371 12.113 30.525 17.582-4.8891-11.737-14.119-26.859-22.252-39.316" fill="#D4986D"/>
 <path d="m402.22 281.3c-1.7864 4.6854-4.1056 11.706-5.8763 17.41-3.9802-0.51715-8.1172-1.0499-12.442-1.6297-0.75217-10.906 0.64248-20.904 3.0087-26.718 4.8264 3.5258 9.8095 7.0986 15.31 10.938" fill="#8ABCCF"/>
 <path d="m429.89 301.2c-8.5402-6.1426-18.6-13.523-27.705-20.011-1.9744 4.9204-4.1839 11.831-5.845 17.519 12.567 1.614 23.537 2.899 33.377 3.6825 0.68949 0.0463 0.79918-0.73651 0.17237-1.191" fill="#D4986D"/>
 <path d="m396.4 277.28c-0.51711-3.8549-0.0627-7.8821 1.0342-11.408-2.0528-0.68941-3.8549-1.2222-5.798-1.99-0.95587 2.4132-1.4887 5.657-1.5513 8.932 2.3662 1.6924 3.9019 2.7892 6.3151 4.466" fill="#8ABCCF"/>
 <g fill="#D4986D">
  <path d="m396.4 277.28c-0.51711-3.8549-0.0627-7.8821 1.0342-11.408 10.421 3.5728 20.512 7.2867 30.635 11.627 0.59546 0.26645 0.61114 1.0655-0.0157 1.191-7.3336 1.5671-17.488 2.7892-24.837 3.3378-2.2095-1.5513-4.6697-3.1811-6.8165-4.7481"/>
  <path d="m320.41 114.38c-7.459 6.5031-16.642 13.68-24.602 19.431 0.56412 0.68954 1.332 1.7864 1.8021 2.5856 2.4132-1.4888 5.4062-3.275 8.4776-4.9204 5.7353-5.9704 11.283-11.69 14.526-16.407 0.45443-0.6738 0.28206-1.1125-0.20371-0.68941"/>
  <path d="m290.51 114.82c-2.3348 2.7423-4.4033 4.9675-6.5188 6.942 0.79919 0.7365 1.8648 1.5669 2.6012 2.2565 1.5043-2.9774 3.1967-6.4562 4.1839-8.9634 0.14103-0.36038-0.0627-0.4858-0.2664-0.23509"/>
 </g>
 <g fill="#8ABCCF">
  <path d="m41.051 214.46c4.372 4.2153 7.5217 6.8791 11.768 9.9506-0.79918 1.3162-1.6924 3.1967-2.4759 4.7481-4.7794-4.6541-10.264-12.599-9.2924-14.699"/>
  <path d="m361.7 166.72c-4.1839 4.1056-11.956 8.8066-18.365 11.706 4.0429-1.0969 8.979-1.473 12.317-1.473 3.0714-2.899 6.2367-8.0388 6.0487-10.233"/>
  <path d="m400.49 218.66c-5.751 4.8108-14.667 8.8694-24.148 12.317l0.39175 1.0969c4.1056-0.5485 9.5745-0.37612 12.756 0.32903 5.798-3.9958 11.988-11.063 11-13.743"/>
 </g>
 <g fill="#0d131a">
  <path d="m188.15 184.16c0.0156 1.1282-0.18804 1.8022-0.51712 1.8178-0.25072 0.0159-0.5798-0.65818-0.59546-1.7237-0.0156-1.2223 0.25072-1.7237 0.54846-1.7237 0.26638 0 0.54844 0.50141 0.56412 1.6296"/>
  <path d="m211.64 185.78c-0.0941 1.3162-0.42309 1.849-0.81485 1.8334-0.37608-0.0317-0.6268-0.75225-0.53278-2.0685 0.0941-1.3006 0.43877-1.8491 0.81484-1.8178 0.36042 0.0317 0.62682 0.75225 0.53279 2.0529"/>
  <path d="m187.17 179.5c-0.70517 0.39174-1.238 1.802-1.1909 4.513 0.047 3.3535 0.94022 4.5601 1.708 4.5287 0.90887-0.0317 1.661-1.2222 1.5984-4.7323-0.0314-2.5699-0.65816-3.9802-1.3476-4.3407l1.2693-0.376c0.76784 0.89315 1.2223 2.5228 1.2536 4.6696 0.0627 4.1214-1.0812 5.798-2.7266 5.8607-1.8021 0.0781-2.899-1.9275-2.9617-5.61-0.0314-2.3504 0.34474-3.8392 0.95588-4.7167z"/>
  <path d="m214.87 183.3c0.23506 4.7167-1.567 7.7881-3.9646 7.7097-3.4474-0.1098-3.8392-5.6882-3.0243-9.4961l1.1282 0.36051c-0.7835 4.513 0.0941 7.9918 1.9118 8.0545 1.3476 0 2.9773-2.2095 2.7266-6.8323z"/>
  <path d="m192.88 178.08c2.6326 9.2766-0.0313 15.325-5.5786 15.858-4.8107 0.47006-8.8536-5.5473-8.1328-14.934 0.047-0.64245 0.2664-0.83057 1.1439-0.68954 4.3093 0.70515 9.5588 0.53289 12.881-0.95586 1.5984-0.72076 2.0371 0.0317 0.48577 0.86192-3.04 1.6453-8.6499 2.0684-13.273 1.3946-0.37608 7.8351 2.7736 13.351 6.8009 12.975 5.0928-0.4858 6.5971-6.6755 4.4503-14.072z"/>
  <path d="m222.21 182.54c0.047 8.0231-4.1526 12.74-9.9976 12.646-5.2338-0.0781-8.979-4.3721-8.1171-14.902l1.2693 0.4231c-0.59546 8.885 2.0685 13.053 6.8949 13.132 5.5002-0.0159 8.4619-4.4972 8.6343-10.75z"/>
  <path d="m227.15 180.34c-0.18804 12.176-7.0672 20.559-19.071 23.066-2.3505 0.48567-2.1625 1.3476 0.18805 0.97147 12.003-1.9588 19.556-9.9035 20.262-21.468z"/>
  <path d="m177.5 178.68c-0.51711 15.31 10.248 25.715 25.589 25.292 1.9588-0.0476 2.0214 0.87741 0.047 1.0028-15.858 0.87754-27.658-9.8722-27.219-25.636z"/>
  <path d="m174.53 225.82c2.7893-6.6128 13.226-16.971 22.581-21.672l2.5072 0.2978c-8.791 3.8236-19.964 14.558-22.925 20.356 6.0957-2.9147 11.784-5.2496 17.848-7.3807 0.84618-0.28206 1.1282-0.14103 1.2536 0.78347 0.83051 5.939 3.3691 13.116 6.2367 16.595 4.5914-4.4816 9.6998-11.047 11.518-16.36 0.7835-2.3036 1.5984-2.0529 0.94021 0.28206-1.6297 5.8606-6.9732 12.677-11.831 17.488-0.56412 0.56412-0.78351 0.53276-1.2693 0.0317-3.3848-3.5885-6.033-11.549-6.8322-17.363-5.798 2.0215-11.815 4.7638-18.742 7.9761-1.5827 0.73651-1.8647 0.36039-1.2849-1.0342"/>
  <path d="m213.76 219.26c9.0574 2.3035 15.733 4.5286 21.844 7.6314-2.3348-5.8137-7.0672-11.659-13.523-16.125-2.5856-1.7864-2.1468-2.4758 0.54846-0.83044 6.8479 4.1682 12.818 11.33 14.918 18.005 0.45443 1.4417-0.0941 1.5513-1.3946 0.89316-7.2083-3.6825-13.68-5.9704-22.847-8.2896z"/>
  <path d="m215.45 202.5c8.0545 2.5855 15.686 7.318 21.531 13.696 1.3006 1.426 1.1753 1.8491-0.40743 1.7551-1.6297-0.0939-3.8549-0.15665-5.8136-0.12542l-0.86186-1.4103c2.1312-0.0476 3.6198-0.0622 5.2965 0-5.6569-5.845-12.191-9.9506-19.791-12.458z"/>
  <path d="m251.73 257.78c-7.0986 0.28206-15.263 0.0476-22.252-0.59535-4.9518-0.47018-7.1926-3.3848-7.2866-6.7069-0.0627-2.4132 0.14104-5.1869 0.36041-8.3052 0.20372-2.852 1.2536-2.805 1.2066 0.0464-0.0314 3.6042 0.0314 5.1869 0.23504 8.2268 0.17237 2.5385 1.5984 4.4974 5.7823 4.8891 6.9889 0.65818 14.542 0.86179 21.546 0.5485z"/>
  <path d="m224.08 253.7c-9.7625 5.3279-39.207 4.8108-56.099 1.285-4.2623-0.89315-6.8949-2.3505-6.6442-5.751 0.21939-2.993 0.36042-4.4346 0.70517-7.3805 0.37608-3.134 1.4416-3.0557 1.285 0.0939-0.17238 3.2125-0.20372 4.8735-0.21938 7.365 0 1.7864 0.64247 2.9147 5.2965 3.8705 15.89 3.275 45.193 4.1056 54.971-1.2067z"/>
  <path d="m162.98 251.9c-5.3749 4.0429-20.199 7.0672-40.899 4.466l0.40742-1.8176c22.236 2.7579 35.336-0.76786 39.787-4.2624z"/>
  <path d="m189.67 173.5c-9.2611 5.8137-21.202 9.9506-29.319 9.8253-8.4305-0.12542-17.316-7.083-32.171-25.558-9.9035-12.348-29.711-34.584-40.586-46.854-10.295-11.58-15.059-19.086-15.357-23.646-0.3134-4.654 6.3307-22.032 7.8978-24.273 2.3819-3.4161 17.801-13.664 20.653-14.135 4.56-0.75212 23.286-0.94024 28.629 1.0186 1.7864 0.65818 5.4846 10.013 8.7283 20.638 10.013 32.672 28.708 71.143 49.095 86.593l-0.21938 1.9118c-20.089-14.855-39.019-50.756-50.458-88.098-3.6041-11.737-6.9262-19.102-7.8351-19.462-5.0928-1.8804-23.349-1.661-27.721-0.9245-2.2095 0.36038-17.065 9.9506-19.415 13.32-1.5043 2.1624-7.8664 19.024-7.5844 23.38 0.28206 4.278 5.0145 11.142 14.996 22.393 10.906 12.285 30.588 34.459 40.523 46.822 14.385 17.895 22.894 24.822 30.933 25.01 7.8508 0.20362 18.71-3.3378 27.768-8.9634z"/>
  <path d="m98.679 50.502c1.2379-19.196 1.7394-32.719 3.5101-48.421 0.26639-2.3036 1.3946-2.9304 3.1654-0.67392 9.5275 12.113 18.099 23.631 28.222 37.985 8.6499 12.238 11.267 17.519 15.78 32.954 3.8078 13.069 8.0701 27.799 15.654 45.553 5.751 13.476 12.144 26.42 23.129 34.991l-0.43877 1.7237c-11.079-8.4776-18.412-22.205-24.304-36.01-7.6157-17.801-12.05-32.672-15.874-45.757-4.419-15.09-6.8635-20.199-15.529-32.469-10.53-14.918-19.086-26.827-28.175-38.392-1.473 15.043-1.9274 28.504-3.3848 47.857z"/>
  <path d="m122.38 43.901c-3.2907-7.8038-5.5472-13.304-8.4776-20.575-1.2066-2.993-0.34474-3.3378 0.92454-0.37612 3.0714 7.1456 5.4532 12.677 8.6969 20.434 1.3633 3.275 0.20371 3.7295-1.1439 0.51715"/>
  <path d="m74.342 91.703c-18.365-14.636-31.372-26.796-40.852-38.126-1.708-2.0371-0.97155-3.134 1.4103-2.7893 11.533 1.6766 22.424 3.6981 32.14 6.315l0.86186 1.9118c-10.515-2.8207-22.518-5.0301-33.221-6.6442 8.8066 10.64 20.904 22.079 38.737 36.292z"/>
  <path d="m117.76 122.25c-7.8664-2.7265-12.897-17.002-10.405-19.384 2.9617-2.8206 19.979 1.144 22.361 8.791 0.84619 2.758-0.0313 3.0401-1.0186 0.32903-2.4445-6.6598-17.801-10.186-20.073-8.0387-1.5043 1.4259 2.1468 14.276 9.5118 17.269 2.6953 1.0813 2.3975 1.9902-0.37608 1.0342"/>
  <path d="m212.1 183.6c-8.2895-2.0685-16.219-5.4846-23.646-10.233-2.3662-1.52-1.8334-2.3662 0.5798-0.97147 7.8821 4.513 15.2 7.4903 23.443 9.5117 7.271 1.7708 11.596 0.95586 16.892-9.5902 14.761-29.35 35.038-52.871 70.061-81.265 0.73649-0.61121 1.1126-1.2223 1.1126-2.2722 0.047-8.2738 0.21937-17.754 0.17237-23.552-1.7864-2.3035-12.505-10.734-16.924-12.207-7.4903-2.4916-23.208-3.6041-29.225-1.3162-13.523 5.1242-67.538 87.487-66.943 108.48 0.10967 3.51-1.0499 3.5258-1.1909 0.0159-0.81485-21.045 52.573-104.36 67.523-110.04 6.7695-2.5542 23.38-1.0655 30.447 1.285 4.3093 1.4417 15.482 10.107 17.723 12.881 0.20372 0.26644 0.25072 0.40748 0.2664 0.86192 0.0627 6.0957-0.0783 15.513-0.0314 23.584 0 1.3476-0.68948 2.6953-1.6767 3.4944-34.897 28.316-54.955 51.649-69.638 80.874-6.0487 12.019-11.753 12.254-18.945 10.452"/>
  <path d="m287.84 39.388c4.278-9.5588 7.2239-18.444 10.123-29.052-13.946 9.6999-29.225 25.339-42.811 40.335l-3.4161 1.3633c14.949-16.391 30.196-32.265 45.02-42.811 2.4916-1.7863 3.4788-1.1752 2.6012 1.8805-3.181 11.094-5.7666 18.835-9.0887 26.859z"/>
  <path d="m221.92 182.26c5.0458-1.4573 8.5716-6.4874 12.646-13.492 14.166-24.383 34.098-43.156 68.714-65.862 4.372-2.8833 5.892-4.3092 8.9477-7.4276 15.592-15.827 31.027-32.531 40.648-46.979-15.028 3.8705-30.04 9.2924-51.163 16.955l-0.97155-1.4573c19.682-7.2083 36.057-12.865 51.085-16.908 3.4944-0.94024 3.8235 0.26644 2.1155 2.805-10.139 15.059-25.621 31.497-40.617 46.728-3.1184 3.1811-4.7794 4.7011-9.2297 7.6471-33.754 22.424-54.454 42.153-68.056 65.533-5.2808 9.1044-10.53 14.605-17.707 14.605z"/>
  <path d="m310.4 83.636c7.2239-5.4533 13.226-10.154 20.826-16.344 2.5856-2.1155 3.1654-1.426 0.62681 0.76786-7.3336 6.3464-13.79 11.408-20.747 16.642-2.1311 1.5827-2.946 0.62683-0.70515-1.0655"/>
  <path d="m242.4 117.82c5.5786-4.6384 6.6128-21.155 5.0458-22.126-2.7266-1.708-16.297 9.1984-17.425 15.122-0.59546 3.0243-1.473 2.8363-1.0812-0.21935 0.83052-6.6128 15.749-18.632 19.462-16.266 2.5072 1.5983 0.7835 19.87-5.3122 24.351-2.2252 1.6297-2.9303 1.003-0.68949-0.8618"/>
  <path d="m159.92 107.77c10.389-4.842 21.672-8.0545 33.236-9.7155l0.5798 1.5357c-11.283 1.614-22.675 4.842-33.189 9.7624z"/>
  <path d="m120.16 146.6c-0.51712 0.97148-1.0029 1.8804-1.4887 2.8989-0.21938 0.45445-0.34474 0.59548-0.76784 0.87754-32.155 21.28-68.604 71.393-78.79 108.7-0.10969 0.43883-0.17237 0.53277-0.43876 0.83057-16.344 17.284-26.937 30.98-35.477 45.538 15.576-5.0459 32.751-11.69 48.468-18.883 0.37608-0.17239 0.59547-0.18812 0.98722-0.0622 7.9448 2.4758 14.134 4.5913 21.672 8.0545 0.50144 0.23509 0.62681 0.50142 0.53278 1.0499-2.3349 13.931-3.8549 25.057-4.9518 36.903 12.207-9.7155 32.453-27.642 39.959-36.809 2.5072-3.0556 3.8705-6.1584 4.6227-9.9818 3.3848-17.237 16.031-75.029 35.462-107.15l1.3006 0.89315c-19.4 32.312-31.215 89.492-34.6 106.68-0.78351 3.9802-2.5856 7.7253-5.1868 10.922-7.9761 9.7782-28.112 26.624-41.761 37.687-1.4417 1.1752-1.6924 0.87754-1.5357-0.86192 1.2066-12.364 2.6169-24.054 4.9518-38.047-7.506-3.4474-12.897-5.2181-20.857-7.694-15.764 7.2083-33.613 14.119-49.831 19.118-1.8334 0.56412-2.1938 0.18813-1.3476-1.2849 8.7283-15.357 19.447-29.899 36.135-47.246 10.389-38.58 46.807-88.035 79.965-109.83 0.56413-1.1752 1.1596-2.3662 1.7551-3.51z"/>
  <path d="m281.55 118.8c10.233 7.9448 18.569 17.958 24.289 29.507 1.5357 3.0713 0.36042 3.6668-1.2066 0.61109-5.939-11.627-14.244-21.217-24.21-28.833z"/>
  <path d="m1.853 305.36c15.952-17.958 30.886-31.591 44.785-43.265 12.019-36.856 38.94-76.533 66.41-96.763 2.7736-2.0371 3.3534-1.2066 0.64248 0.90889-26.561 20.873-53.451 59.97-65.439 96.607-0.10969 0.34477-0.20371 0.4858-0.48577 0.73651-13.664 11.706-29.241 25.652-45.177 43.062z"/>
  <path d="m49.856 229.86c-5.5002-5.2808-10.812-13.053-9.6215-15.529 1.0186-2.1312 9.2454 0 16.626 3.0557l-0.7365 1.2379c-8.885-3.5415-14.04-4.2623-14.417-3.4945-0.67382 1.4104 3.04 7.6471 8.932 13.429z"/>
  <path d="m53.3 280.2c-0.34474-4.5287-1.3006-8.6343-2.9303-12.332-0.97155-2.1938 0.18804-2.7109 1.1596-0.51703 1.7237 3.9331 2.6796 8.4148 2.7579 12.818 0.07835 3.4632-0.72083 3.4788-0.98722 0.0317"/>
  <path d="m77.872 291.12c4.4973-5.3122 9.8409-9.5432 14.871-11.847 2.7579-1.285 3.3064-0.14103 0.51712 1.1282-4.9048 2.2565-10.154 6.3777-14.636 11.361-1.9744 2.2095-2.7423 1.7081-0.75217-0.64244"/>
  <path d="m23.452 275.5c-7.9918-0.50141-14.448-1.1282-21.876-2.4914-2.0371-0.37612-2.0371-0.95598-0.36041-1.8805 11.173-6.2053 27.611-13.429 38.502-16.814l-0.54846 1.9117c-10.734 3.4318-24.806 9.6529-35.806 15.529 7.4903 1.2223 12.113 1.6297 21.484 2.1782z"/>
  <path d="m197.65 90.745c4.3563-19.071 7.8821-33.565 12.301-49.345 1.2066-4.3406 2.0841-4.2309 2.993 0.12541 2.946 14.087 5.2965 24.743 7.4903 38.251l-1.1282 2.2409c-2.6639-16.767-4.8107-26.733-7.8664-40.868-3.9959 14.746-7.6 29.476-12.677 51.602z"/>
  <path d="m303.19 132.98c6.8635-6.5972 13.32-13.147 16.83-18.287-8.4932 4.2936-16.156 8.7596-27.235 15.764l-1.0342-1.2223c10.295-6.5501 18.93-11.424 27.799-15.921 2.7423-1.3789 3.6198-0.42309 1.614 2.2253-3.8392 5.0615-8.6029 10.452-13.727 15.357z"/>
  <path d="m286.06 123.54c1.6767-3.2437 2.9303-5.8449 3.9332-8.117-2.3035 0.95586-3.9959 1.5669-6.2837 2.5072l2.2095-2.3505c1.1282-0.47006 2.1155-0.87754 3.1497-1.285 1.9431-0.76774 3.0087-0.1098 2.0841 1.9745-1.1439 2.5542-2.4602 5.4061-3.9959 8.2894z"/>
  <path d="m227.71 179.6c12.944 25.621 24.116 65.783 31.027 112.36 0.76784 5.1555 1.5043 6.6128 3.4004 9.8566 9.9506 16.924 18.068 29.303 27.423 40.977 2.5386-12.583 3.6982-23.49 4.3563-31.043 0.0627-0.73651 0.18805-0.87754 0.8932-1.0028 7.8821-1.3791 18.867-3.3378 27.971-5.2182 0.48577-0.0939 0.64247-0.0781 1.0656 0.17238 18.992 11.847 29.178 17.927 42.341 25.025 1.2066-9.5119 1.708-16.814 1.9744-25.605 0.0156-0.56412 0.14105-0.72089 0.70517-1.0186 4.6384-2.4602 9.1044-4.8265 14.276-7.6785 0.36042-0.20362 0.54845-0.21936 0.97154-0.17239 17.065 2.2722 31.403 4.2153 44.817 5.2652-13.367-9.6058-26.263-18.804-42.153-30.055-0.3134-0.21948-0.40743-0.34477-0.54846-0.68954-15.623-37.248-35.462-78.382-64.53-104.32-2.7579-2.4602-2.0685-3.2437 0.73651-0.84618 29.491 25.182 49.941 66.692 65.627 104.1 14.918 10.577 28.316 20.732 40.977 29.93 2.6639 1.9274 2.7109 3.7922-0.25072 3.5101-13.085-1.2694-28.629-3.0087-44.895-5.1712-5.2965 2.9303-9.2141 5.1241-13.946 7.647-0.26638 8.885-1.0499 16.72-2.2722 26.326-0.14103 1.0812-0.59546 1.1439-1.5513 0.62671-13.179-7.0986-23.944-13.429-42.999-25.307-9.167 1.8804-19.556 3.6981-27.517 5.0928-0.65816 7.6156-2.1312 19.666-4.7324 32.453-0.28206 1.4103-0.67382 1.473-1.567 0.34477-9.4648-11.768-19.133-24.978-29.146-42.027-1.9744-3.3534-2.9617-5.4688-3.7452-10.812-6.8949-46.337-17.08-85.888-29.93-111.63z"/>
  <path d="m365.94 331.74c-7.1299-15.263-17.723-33.048-32.406-53.67-0.20372-0.28206-0.28208-0.45445-0.36042-0.76786-10.217-36.558-28.849-72.96-50.662-101.73-1.8961-2.4914-1.1282-3.1496 0.86186-0.70515 22.299 27.532 41.307 64.639 51.539 101.4 14.793 20.747 25.401 39.019 32.328 54.861z"/>
  <path d="m292.16 305.3c-4.7324-4.8577-9.073-8.2268-15.372-11.22-2.6012-1.2223-2.1155-2.3819 0.50145-1.1752 6.5188 3.0086 11.173 6.4718 15.607 11.721 2.3975 2.8362 1.7551 3.2437-0.73649 0.6738"/>
  <path d="m324.17 298.64c0.75217-4.2937 2.5229-9.6529 4.8264-13.523 1.2066-2.0371 2.2252-1.3633 1.0499 0.70515-2.1782 3.8236-3.9176 8.885-4.9048 13.038-0.72083 3.04-1.52 2.8989-0.97155-0.21936"/>
  <path d="m362.33 294.98c-4.2309-4.3877-8.7283-7.3807-16.391-10.812-2.805-1.2693-2.3035-2.4602 0.51712-1.2379 7.6627 3.3378 12.74 6.8166 16.61 11.392 1.9588 2.2878 1.2693 2.7266-0.7365 0.65819"/>
  <path d="m383.34 288.3c0.047-4.1996 0.28207-6.8322 0.83052-10.562 0.42309-2.8677 1.7237-2.6797 1.2536 0.17238-0.62681 3.9645-0.83053 6.1426-1.0969 10.421-0.18805 3.134-1.0186 3.1184-0.98723-0.0317"/>
  <path d="m303.12 144.18c44.629 27.893 69.45 73.101 89.43 118.73 9.7468 3.275 22.032 8.0545 34.584 13.335 2.9303 1.2222 3.8078 2.6482-0.047 3.4161-6.9576 1.3946-14.354 2.5542-23.114 3.0557l-2.2252-1.5827c10.295-0.53289 18.005-1.426 25.652-3.087-13.163-5.61-25.652-9.9192-35.634-13.257-0.50145-0.15677-0.6268-0.31341-0.81485-0.75224-18.945-43.203-43.547-89.445-86.907-117.34z"/>
  <path d="m335.14 171.22c12.897-4.5286 25.151-7.2239 27.062-4.9517 1.1596 1.3632-1.6767 6.9576-5.7823 10.687l-1.9118-0.0159c4.56-3.9802 6.9262-8.9947 6.3308-9.7155-0.97155-1.144-9.2454-0.26645-24.822 5.1868z"/>
  <path d="m370.95 221.08c14.338-4.3563 28.833-5.751 30.384-2.6482 1.1753 2.3348-2.9773 8.5872-11.204 14.213l-1.7551-0.50141c9.3551-6.2995 12.003-11.8 11.408-12.959-0.84618-1.661-12.223-1.6297-28.253 3.2281z"/>
  <path d="m212.3 97.142c-2.2565-11.377-5.0615-20.857-5.4375-20.857-0.36042 0-3.3064 9.6685-6.3621 20.841-0.84619 3.1184-2.0371 2.8363-1.1596-0.31341 3.04-10.969 6.0644-22.424 7.5217-22.377 1.5043 0.04758 4.278 11 6.3934 21.014z"/>
  <path d="m224.27 85.598c0.29774-5.3122-0.0627-10.295-0.39175-10.389-0.36042-0.09394-5.4689 9.4334-10.703 21.546-1.426 3.2908-2.3192 2.993-0.90886-0.39174 5.1241-12.301 10.577-23.38 12.003-23.019 1.2066 0.32903 1.4573 6.4247 1.3163 10.468z"/>
  <path d="m201.12 79.48c-1.708-4.0116-3.8235-7.741-4.1996-7.6314-0.40743 0.14103-0.5798 7.083-0.15671 17.081l-1.3163-2.1782c-0.37609-8.5872-0.36041-16.454 0.97154-16.704 1.3163-0.25071 3.9332 4.6228 5.1868 7.4276z"/>
  <path d="m200.08 96.617c-5.798-11.392-10.922-19.086-11.377-18.945-0.43876 0.12542 1.6454 11.063 5.4846 21.343 1.1282 3.04 0.0783 3.3847-1.0656 0.40748-3.6042-9.4335-6.7225-22.722-5.1555-23.458 1.661-0.76786 8.1642 10.264 12.614 18.788z"/>
 </g>
 <g fill="#D4986D">
  <path d="m184.72 203.44c0.20372 0.12529 3.6355-0.94024 6.0957-3.3221-1.6297-0.78347-3.1497-1.7864-4.5287-3.0086-1.426 2.5542-1.8334 6.174-1.567 6.3308"/>
  <path d="m215 198.06c-1.661 1.1439-3.4631 2.0685-5.3122 2.7579 2.2252 2.6953 5.0615 3.8705 5.4532 3.7608 0.54845-0.17239 0.48577-3.8392-0.14103-6.5188"/>
  <path d="m195.63 201.78c-1.1439-2.9147-3.5258-6.8635-4.278-6.7694-0.54846 0.0781-1.3476 2.0528-1.614 4.5599 1.661 0.94024 3.6668 1.7237 5.892 2.2095"/>
  <path d="m207.25 196.16c-0.54846 0-2.8363 3.5885-3.6512 6.0173 2.2722-0.2507 4.607-0.84618 6.9576-1.8491-1.1126-1.99-2.8363-4.1682-3.3064-4.1682"/>
  <path d="m203.55 202.2c-1.3163-2.6325-3.8862-6.6754-4.7167-6.5971-0.79918 0.0781-2.3662 3.3534-3.134 6.2053 2.3975 0.51716 5.0615 0.70516 7.8508 0.39174"/>
 </g>
 <path d="m318.35 125.83c-9.9192 3.6825-19.525 9.4805-27.752 15.466-2.4132 1.7551-2.6012 5.0615-0.5798 8.5403 1.9118 3.275 4.701 3.8234 7.1613 1.5356 8.3209-7.7724 15.639-16.344 21.813-24.931 0.28206-0.376-0.15671-0.78348-0.64248-0.61109" fill="#F5AF7E"/>
 <path d="m263.52 164.2c7.6-10.295 12.865-18.193 18.115-27.642 0.28206-0.51715-0.20371-0.9716-0.72082-0.67392-9.9976 5.6413-17.488 10.907-26.89 18.381-2.2565 1.802-2.5072 7.0203 0.65815 10.076 2.8676 2.7579 7.271 1.99 8.838-0.14103" fill="#F5AF7E"/>
 <g fill="#A0D8EF">
  <path d="m99.419 207.28c-2.0841 0.67392-4.1683 0.43883-6.9419-1.3162-7.318-4.6226-14.542-19.055-13.053-21.672 1.5984-2.852 17.519-0.81482 26.201 6.4247 2.0371 1.6925 2.993 3.0401 3.0714 4.5914 0.21938 4.9361-3.5415 10.123-9.2767 11.972"/>
  <path d="m81.868 192.88c-1.8647 0.6267-3.7138 0-6.0957-2.0998-10.452-9.1984-16.501-20.011-15.043-21.985 1.0499-1.4103 9.12-0.43882 23.208 5.7039 2.8206 1.2223 4.7794 2.3819 6.1427 4.3719 3.7452 5.5473-2.1155 11.941-8.2112 14.009"/>
  <path d="m42.77 248.46c-10.186-4.4346-25.683-20.042-24.242-24.242 1.0186-2.9459 22.377-0.79909 35.916 7.1613 5.751 3.3691-3.5728 20.606-11.674 17.081"/>
  <path d="m78.101 261.6c-3.3691 2.9616-7.7411 2.852-11.533 0.57973-7.1926-4.2936-19.932-20.152-18.099-23.725 1.2693-2.5072 12.254-2.8363 22.252-1.1596 4.513 0.75212 7.9448 1.8804 9.3551 4.3092 3.5101 6.0487 3.087 15.545-1.9744 19.995"/>
  <path d="m280.28 213.62c3.3221 1.8334 7.2396 1.4103 10.358-0.83044 9.2924-6.6913 17.018-16.626 15.827-19.541-1.3633-3.3534-13.523-2.4445-23.881 0.9716-3.8705 1.2693-5.7353 3.4161-6.4561 5.1868-2.1312 5.1555 0.43876 12.144 4.1526 14.213"/>
  <path d="m333.74 198.86c3.4318 1.7864 5.7666 1.5827 9.7782-1.1752 7.8194-5.4062 18.459-17.394 17.347-19.682-0.97154-1.9744-9.9662-1.2223-22.33 1.5044-3.5571 0.78348-6.2837 2.1468-8.3052 3.8078-4.1996 3.4788-2.2408 12.552 3.5101 15.545"/>
  <path d="m364.35 256.56c1.9274 0.40747 4.2309-0.14104 7.8351-2.3506 8.7126-5.3905 20.967-16.14 19.807-20.105-1.1439-3.9332-22.126-2.8677-33.879 3.51-6.0017 3.2594-2.2095 17.127 6.2367 18.945"/>
  <path d="m314.19 278.24c2.7266-1.0499 4.607-2.476 6.5031-4.3094 6.4718-6.2211 16.783-19.995 15.184-22.769-1.285-2.2095-16.877-0.45445-29.57 2.4758-10.765 2.4916-4.6697 29.429 7.8821 24.602"/>
 </g>
 <path d="m88.903 63.235c-9.5901-6.7538-20.935-12.035-22.44-10.139-1.4417 1.8177 4.4033 12.787 11.079 21.546 9.167 2.8677 14.417-2.3975 11.361-11.408" fill="#DB6AA4"/>
 <path d="m292.47 37.352c-2.0841-0.9716-12.097 7.6783-19.196 15.513-0.76785 7.3336 5.7039 12.536 13.085 8.1955 4.0899-9.2297 8.1015-22.769 6.1114-23.709" fill="#DB6AA4"/>
 <path d="m286.36 61.055c4.0742-9.1827 8.0701-22.643 6.1427-23.678-3.5571 8.9163-8.9163 18.835-13.508 24.994 2.1311 0.57974 4.6854 0.26632 7.365-1.3164" fill="#BF5B8F"/>
 <path d="m280.2 70.318c-2.4132 0.84618-5.7039-2.4131-2.5699-6.2053 0.43877-0.53277 0.8932-1.1282 1.3633-1.7395 2.1311 0.57986 4.6854 0.26644 7.365-1.3162-1.8648 4.6384-4.5914 8.3208-6.1584 9.261" fill="#42467E"/>
 <path d="m77.537 74.649c2.7266 0.84618 5.0928 0.97147 7.0046 0.50141-6.2211-5.9546-12.599-13.915-17.911-22.205-0.06268 0.04758-0.12536 0.09394-0.17237 0.15665-1.4417 1.8178 4.4033 12.771 11.079 21.547" fill="#BF5B8F"/>
 <path d="m91.822 86.516c2.5699-0.53289 2.8363-3.3848 0.37608-5.0459-2.4602-1.6767-5.0458-3.8236-7.647-6.3307-1.9274 0.47018-4.2936 0.36038-7.0202-0.4858 6.2367 8.5246 11.565 11.894 14.291 11.862" fill="#42467E"/>
 <path d="m281.22 136.2c-8.7126 9.8879-20.199 22.581-27.109 27.282 2.0528 3.2281 6.9419 4.0429 9.9349-0.0476 7.4433-10.154 13.006-19.196 17.394-27.031 0.23505-0.40747 0.0783-0.5485-0.21938-0.20373" fill="#D4986D"/>
 <path d="m289.62 149.02c7.412-4.5601 20.152-14.793 28.817-22.8 0.28206-0.26632 0.40743-0.14103 0.18804 0.20374-6.1114 9.0261-14.056 18.71-21.452 24.931-2.3035 1.9431-4.7637 2.3192-7.553-2.3348" fill="#D4986D"/>
 <g fill="#8ABCCF">
  <path d="m79.635 184.28c4.3876 8.0702 13.602 14.871 18.538 16.469 3.7295 1.1909 4.56 4.0116 2.8676 5.9233-3.5885 1.7237-6.8009 1.0655-9.5275-1.3476-10.562-9.2924-13.006-19.697-11.878-21.045"/>
  <path d="m60.695 168.78c4.9988 6.5345 12.003 12.52 18.412 16.438 0.34474 2.2878 1.4103 5.4218 2.7109 7.6783-2.3349 0.51715-4.8421-0.87754-7.8037-3.6512-11.753-11.016-13.978-19.321-13.32-20.465"/>
  <path d="m18.727 224.02c5.4689 7.6785 16.83 15.984 26.044 19.791 2.9303 1.2066 2.8833 4.8577 0.09402 5.5159-12.176-3.9802-28.457-22.33-26.138-25.307"/>
  <path d="m48.579 238.1c4.325 7.6785 18.021 19.948 26.843 17.566 3.5101-0.94024 5.6569 2.3975 4.1839 4.654-3.9019 4.9988-9.7312 4.5601-13.79 1.4103-13.1-10.17-19.165-22.142-17.237-23.631"/>
  <path d="m360.74 177.72c-4.607 6.6755-19.149 17.989-25.542 16.971-2.8206-0.4387-4.1996 1.9275-2.946 3.3691 3.4161 2.1311 6.2524 2.805 9.6528 0.57974 8.1798-5.3435 20.277-17.864 18.836-20.92"/>
  <path d="m306.12 192.86c-4.7794 8.1799-16.751 17.253-24.508 16.031-2.6639-0.42309-4.2466 1.8022-2.899 3.7139 2.8833 2.6326 8.0231 3.134 12.473-0.26644 12.379-9.4804 16.031-16.798 14.934-19.478"/>
  <path d="m335.69 250.94c-6.9732 11.251-24.79 22.048-35.697 23.38 4.1369 5.5942 9.8095 6.9262 15.404 3.4003 11.706-7.3649 21.672-24.179 20.293-26.78"/>
  <path d="m391.93 233.74c-4.1526 6.1113-18.397 15.231-27.156 16.83-3.6041 0.6738-4.4503 3.8078-2.1468 5.6256 2.8833 0.98722 6.033 0.18813 8.9007-1.5983 13.335-8.3679 21.688-17.519 20.403-20.857"/>
 </g>
 <g fill="#0d131a">
  <path d="m89.55 86.378c-8.6343-1.8491-26.592-30.431-23.725-33.816 3.1027-3.6824 33.597 13.743 36.966 24.242 0.84619 2.6796-0.0313 2.9303-1.0342 0.32903-3.8235-9.9506-32.625-26.075-34.678-23.49-1.9274 2.4446 14.385 29.021 22.722 31.654 2.993 0.94024 2.8363 1.7395-0.25072 1.0813"/>
  <path d="m281.01 68.871c1.1126-1.0812 1.5984-1.8961 2.4602-3.4317 4.4817-8.0388 10.374-26.608 8.6186-27.407-2.3192-1.0655-21.891 17.143-25.354 24.602-1.238 2.664-2.0528 2.2878-1.0029-0.45444 2.8206-7.318 23.599-27.297 27.188-25.589 2.8676 1.3477-3.5258 20.998-8.3522 29.523-1.1126 1.9588-1.9431 2.9774-3.0087 3.7139-1.7394 1.2066-2.0841 0.53277-0.54845-0.95598"/>
  <path d="m92.082 206.6c-7.4433-4.654-15.278-19.494-13.445-22.722 1.8334-3.275 18.444-1.1596 27.407 6.2994 2.1155 1.7551 3.04 3.4005 3.181 5.1086 0.18804 2.0528-0.75217 2.0841-1.0969 0.0464-0.25072-1.4574-1.0342-2.4916-2.9617-4.0899-8.4305-7.0203-23.74-8.9634-25.088-6.5816-1.2066 2.1469 5.5316 16.109 12.787 20.7 2.5699 1.6296 4.4817 2.0685 6.3934 1.3947 2.1782-0.76786 2.4916 0.15664 0.34474 1.0342-2.1938 0.90889-4.2153 0.87753-7.5217-1.191"/>
  <path d="m82.089 193.42c-1.9901 0.7365-3.9646 0.40735-6.8165-2.1156-10.515-9.261-17.175-20.403-15.278-22.972 1.3476-1.8176 10.107-0.70515 24.21 5.5159 2.7893 1.2379 4.7794 2.4132 6.2994 4.6854 1.3006 1.9432 0.5798 2.5856-0.81485 0.72089-1.3946-1.8648-3.1027-2.8677-6.033-4.137-14.229-6.1897-21.531-6.8322-22.267-5.8293-0.79918 1.1126 3.7608 11.173 14.84 20.935 2.5699 2.2565 3.7922 2.4758 5.2808 2.1311z"/>
  <path d="m42.56 248.96c-9.5745-4.0116-26.561-20.136-24.837-25.072 1.2693-3.6668 23.881-0.40747 36.997 7.0045 3.0557 1.7237 2.6169 2.5856-0.51712 0.9716-14.824-7.6785-34.349-9.3395-34.929-7.318-1.1126 3.8392 14.558 19.462 23.725 23.396 2.9147 1.2693 2.3035 2.1624-0.43877 1.0186"/>
  <path d="m66.103 262.78c-6.7695-4.0429-20.638-20.387-18.444-24.696 1.52-2.9616 12.959-3.2123 23.161-1.5044 5.2182 0.87753 8.2738 2.3505 9.7155 4.6855 1.332 2.178 0.5798 2.6952-0.94021 0.62671-1.4573-1.99-4.0742-3.0869-8.9947-3.9175-11.141-1.8647-20.544-0.90889-21.437 0.84618-1.473 2.8833 10.217 18.224 17.77 22.722 3.134 1.8647 7.553 2.6953 10.797-0.36039 2.0998-1.9744 2.6796-1.3164 0.75217 0.79921-3.2594 3.5727-8.1798 3.3064-12.379 0.79909"/>
  <path d="m317.86 126.77c-8.5559 3.2751-17.143 8.1485-26.671 15.09-2.1625 1.5827-2.4132 4.2936-0.4701 7.6 1.8021 3.087 3.8705 3.3064 5.939 1.3791 7.7881-7.271 14.636-14.949 21.202-24.069m-28.567 23.427c-2.0685-3.5258-1.9431-7.5217 0.81485-9.5275 9.0417-6.5971 18.444-11.8 26.984-15.122 2.2408-0.8618 2.9303 0.62683 1.7551 2.2409-6.9889 9.6058-13.602 17.19-21.139 24.226-2.4759 2.3036-6.0957 2.1782-8.4149-1.8178"/>
  <path d="m280.76 136.78c-9.4648 5.3279-16.156 10.06-26.201 18.146-1.9744 1.5827-1.9901 6.2524 0.67382 8.8223 2.6012 2.4916 6.2054 2.0214 7.694 0 7.9291-10.75 12.834-17.989 17.833-26.968m-26.733 28.112c-2.946-2.8207-3.5571-8.7754-0.56413-11.173 9.3864-7.4747 17.284-12.646 26.059-17.833 2.7736-1.6298 3.6355-0.4858 2.2252 1.9744-5.3278 9.2141-9.9976 16.548-17.551 26.78-1.9744 2.6797-6.8949 3.4005-10.17 0.25083"/>
  <path d="m280 214.08c-2.0841-1.4103-1.5984-2.2095 0.57979-0.92451 2.8676 1.6766 6.4248 1.3633 9.6058-0.92462 9.5431-6.8791 16.422-16.422 15.513-18.647-1.0186-2.5072-11.377-2.4289-22.925 1.3947-3.2437 1.0655-5.3279 2.5855-6.127 4.5913-1.0499 2.664-1.9118 2.3819-1.0499-0.36039 0.78351-2.5229 3.2751-4.4974 6.8322-5.6726 11.361-3.7608 23.333-4.2623 24.822-0.61109 1.4417 3.5258-7.0672 13.837-16.25 20.45-3.8235 2.7736-8.0231 2.7267-11 0.70515"/>
  <path d="m333.5 199.3c-1.9274-1.2379-1.567-1.9117 0.48578-0.8618 3.134 1.5827 5.2808 1.332 9.1514-1.3476 8.3679-5.7666 17.723-17.096 16.939-18.71-0.64248-1.3164-7.365-1.238-21.405 1.8648-3.6198 0.79909-6.2367 1.7549-8.0858 3.51-2.2878 2.1625-2.9617 1.3791-0.73649-0.84619 1.8491-1.849 4.6697-3.2593 8.5246-4.1212 7.271-1.5983 21.64-4.2309 23.223-1.0969 1.567 3.1027-10.671 15.827-17.739 20.606-4.466 3.0243-7.1769 3.0557-10.358 1.0028"/>
  <path d="m364.22 257.1c-2.3975-0.64257-2.1625-1.473 0.26639-1.0499 1.9744 0.34477 4.0586-0.39174 7.412-2.4602 9.6998-6.0017 20.183-16.093 19.337-19.227-0.76785-2.8362-19.494-3.0243-32.876 3.7452-2.7423 1.3946-3.2124 0.51703-0.51712-0.97159 11.737-6.4562 33.628-7.8821 34.991-3.2281 1.3476 4.6384-12.285 15.984-20.34 20.951-4.2153 2.6012-6.4875 2.7266-8.2738 2.2409"/>
  <path d="m314 277.72c2.4289-1.0499 4.1369-2.3506 6.2054-4.325 8.3679-8.0545 16.015-19.964 14.965-21.766-0.98723-1.6924-15.466-0.65819-28.708 2.5543-3.6668 0.89315-3.9175-0.12542-0.28206-1.0813 11.518-3.0401 28.817-5.2339 30.431-2.2878 1.9901 3.6041-10.123 18.475-15.482 23.615-2.1468 2.0842-4.2153 3.3535-6.7538 4.3094-2.8363 1.0813-3.3534 0.26633-0.37608-1.0186"/>
  <path d="m210.12 200.6c2.0058 1.9744 4.4347 3.4474 4.7011 3.3378 0.17237-0.0622 0.21937-2.5699-0.2664-4.8421-8.3835 5.5629-20.716 5.1555-28.097-1.0499-0.8932 1.8647-1.4416 4.6384-1.2693 4.7638 0.20371 0.17226 3.1654-1.2223 4.9361-3.0087l1.1753 0.62682c-2.0685 2.1938-6.2211 3.9175-6.8792 3.4944-0.76785-0.4858 0.0156-4.6697 1.2849-6.9732 0.32908-0.57986 0.54846-0.61109 1.0656-0.17239 7.2866 6.2524 18.961 6.7069 27.736 0.81483 0.62681-0.42309 0.98722-0.34477 1.1439 0.47018 0.34475 1.802 0.8932 6.7852-0.32907 7.1298-0.81485 0.21947-3.7922-1.4886-6.5501-4.1055z"/>
  <path d="m189.12 199.28c0.25072-2.0684 1.0969-4.7481 2.1311-4.8891 1.1909-0.15665 3.2594 3.275 4.3093 5.657 0.7365-2.2095 2.1155-4.9518 3.2751-5.0615 1.0342-0.0939 3.1184 2.8833 4.6697 5.7197 1.1282-2.5856 2.9303-5.1712 3.7452-5.1712 0.75217 0 2.6012 2.2251 3.9175 4.6384l-1.1753 0.4858c-0.83051-1.7708-2.3975-3.8236-2.7423-3.8079-0.36041 0.0159-2.2252 3.0557-3.0087 5.3749l-1.379 0.0781c-1.4573-2.993-3.6041-6.08-3.9489-6.0643-0.39176 0.0159-1.8177 2.7736-2.6169 5.7196l-1.4103-0.28206c-1.1439-2.805-3.0087-6.0644-3.4631-6.0174-0.25072 0.0317-0.97155 1.8961-1.1126 4.231z"/>
  <path d="m303.01 277.98c-3.8235-2.5699-6.7382-7.4747-6.3464-11.142 0.26639-2.5699 1.2066-2.5072 1.1596 0.0939-0.0627 3.4317 2.3819 7.4746 5.7823 10.248 2.2565 1.8334 1.6767 2.3349-0.59546 0.79921"/>
 </g>
</svg>
