<?xml version="1.0" encoding="UTF-8"?>
<!-- Created with Inkscape (http://www.inkscape.org/) -->
<svg version="1.1" viewBox="0 0 90.432 98.589" xmlns="http://www.w3.org/2000/svg">
 <g stroke-width=".3298">
  <path d="m10.468 62.275c-0.23482 0.27637-0.48283 0.52108-0.73644 0.75096 5.9832 2.5728 14.214-0.50987 16.03-8.1606-0.33277 0.05343-0.67741 0.0963-1.0481 0.11444-6.4407 0.31529-9.7644 2.0138-14.245 7.2952" fill="#fff"/>
  <path d="m38.477 30.413c-0.14808 1.2839-0.34563 2.3703-0.74073 4.0001-1.1853 1.4073-2.741 3.5308-3.1852 4.6419-0.89936 2.2479-0.93136 6.3829-0.46931 9.4814 1.9508-2.5926 5.0618-7.1111 5.2841-7.8519s0.34563-3.9503 0.39543-5.852c0.88848-1.7037 1.4815-2.8801 2.2961-4.1683 1.8152-0.05211 3.8752-0.34728 6.0004-0.72028 1.9323-0.33969 3.2785-0.96862 3.9985-2.6302 0.52669-3.172 1.0346-6.1541 1.4244-8.5065 1.182-7.1283 0.13324-11.155-3.7386-14.992-4.4833-4.4431-11.202-4.8006-16.502-0.15764-2.9837 2.6137-7.8275 2.8267-9.6783 1.2348-0.71171-0.61277-1.5896-1.0191-2.2403-1.0362-1.2209-0.03331-5.2761 2.9323-5.5476 5.8826-0.10653 1.1583 0.71863 3.9329 3.0345 5.0647 0.38191-1.342 1.1843-2.7766 2.0134-3.5529 0.28924 1.5659 0.76283 2.921 1.5425 4.3181 0.73974-1.0633 1.6256-2.2205 2.3561-3.0101 0.59826-0.64707 1.0293-0.86638 2.1793-0.80801 1.9221 0.09762 4.3893 0.43435 6.47 0.89178 0.32749 0.89145 0.69324 1.684 1.2572 2.5682 1.0211-0.87331 1.7582-1.5177 2.9154-2.3492 0.4482 0.66752 0.88848 1.155 1.3848 1.6358-4.7138 4.7518-8.405 8.614-11.362 10.95-0.45446-0.50097-0.98577-1.031-1.123-0.9396-0.1372 0.09169-0.2058 1.2575-0.19161 1.9072-0.35124 0.23746-0.69093 0.44787-1.0201 0.63058-0.83308 0.46205-1.9204 0.43435-1.8617 0.80735 0.11741 0.74832 3.047 0.50789 4.0288 0.06794 4.3943-1.9696 11.58-8.9046 14.66-9.7172-0.09168 2.5187-2.5705 6.7546-5.4015 11.108 0.46898 0.45578 1.0699 0.83077 1.8198 1.1015" fill="#30363A"/>
  <path d="m62.26 68.096c-1.8901-3.6578-5.1821-8.1691-9.9375-14.022-3.2198-3.9632-3.4016-5.3998-2.4379-12.68 0.54714-4.1344 1.3815-9.3215 2.1721-14.081-0.71995 1.6615-2.0662 2.2908-3.9988 2.6302-2.1249 0.37333-4.1848 0.66818-6.0001 0.72028-0.81494 1.2885-1.4076 2.4649-2.2964 4.1687-0.04947 1.9013-0.17282 5.1112-0.3951 5.8516-0.22228 0.74073-3.3333 5.2593-5.2841 7.8519-0.46205-3.0985-0.43006-7.2335 0.46898-9.4814 0.44457-1.1111 2.0002-3.2343 3.1855-4.6419 0.3951-1.6295 0.59232-2.7162 0.74073-4.0001-0.7503-0.27077-1.3509-0.64575-1.8198-1.1015-2.3825 3.6644-5.0146 7.4119-6.6854 10.29-2.4333 4.1908-3.9893 7.7902-4.6574 11.16-12.477 4.0898-17.868 12.395-17.741 15.601 0.058045 1.4726 4.5582 4.2795 9.089 5.3784 0.20217 0.04881 0.38389 0.10554 0.55571 0.16424 1.5266-0.50426 2.4254-1.8235 2.8742-3.3359 3.5124-0.80966 6.7873-1.6398 9.9969-2.6074 4.0265 3.2297 10.252 4.6274 15.088 4.5638 3.6697 2.734 8.1988 5.1231 11.169 5.8625 4.7313 1.178 9.1483-2.0319 5.914-8.2912" fill="#595757"/>
  <path d="m17.219 71.904c0.75788 0.26186 1.213 0.61145 1.2776 0.95642 0.14445 0.76975-0.72622 1.9356-2.3528 2.586-5.2003 0.52108-8.8482 2.6621-9.9098 4.9107 1.2931-0.64674 2.43-1.0537 3.6565-1.3179-1.4762 1.0257-2.6081 2.334-3.1991 3.7413 2.4131-1.6295 4.7534-3.0704 7.4713-3.7736-1.9297 1.5797-3.5325 3.5665-4.4081 5.4424 2.7205-2.6061 6.3101-5.0067 9.739-6.8358-2.1384 2.1127-3.7878 4.5232-4.1258 6.0241 1.3321-0.73974 2.8966-1.7545 4.1654-3.2347 0.56923-0.66455 1.4584-1.5227 2.0504-2.0299 0.79548-0.68137 1.0633-1.212 1.2265-2.0929 0.2114-1.1414 0.67642-3.0315 1.1629-4.2709 0.25592-0.65201-0.01352-1.0923-0.50756-1.4798-1.1289-0.88584-2.2298-1.5257-3.3722-1.9613-0.44886 1.5125-1.3476 2.8317-2.8742 3.3359" fill="#30363A"/>
  <path d="m78.106 94.894c-1.4221-4.8124-5.508-10.255-7.7041-12.185-0.78229-0.6873-1.4607-1.4679-1.9676-2.181-0.66059-0.92839-1.3944-2.0312-2.1424-3.2294-0.45908 2.3749-2.9075 2.8604-4.854 2.0428 0.49866 0.74436 0.96697 1.5138 1.4254 2.2779 0.21338 0.35552 0.2612 1.3512 0.23746 2.0388-2.2288 2.2047-4.5282 5.8549-5.3813 8.1071 2.6549-2.5365 4.267-3.9589 6.6376-5.1676-0.23713 3.39-0.30836 8.155 0.33178 11.378 0.49767-3.9118 1.2087-8.8192 2.7499-11 2.0147 3.5084 3.7455 6.6372 5.4997 9.956-0.21338-3.1763-1.5408-8.0362-2.892-10.644 2.5837 2.2047 5.5941 5.5947 8.0597 8.6051" fill="#30363A"/>
  <path d="m66.292 77.299c-0.99698-1.5982-2.0194-3.3656-2.927-5.1195-0.06365 2.5312-1.8475 4.0621-4.1733 4.3827 0.84693 0.82186 1.5748 1.777 2.2463 2.7796 1.9468 0.81757 4.3949 0.33211 4.854-2.0428" fill="#595757"/>
  <path d="m34.274 9.8072c3.235-3.7492 8.4251-4.6611 12.643-2.835-1.8977-2.7433-4.8698-3.9777-7.373-3.4863-2.7176 0.53362-4.9569 2.7406-5.2695 6.3213" fill="#a59aca"/>
  <path d="m25.603 25.349c-0.39609-0.41159-1.2344-1.0781-1.402-0.95609-0.11015 0.08014-0.04584 1.0817 0.18304 1.8439-0.26582 0.53131-0.48777 0.9152-0.75161 1.3472 0.36443-0.13885 1.0385-0.22822 1.5992-0.53889 0.32914-0.18271 0.66884-0.39312 1.0201-0.63091-0.01088-0.50822 0.02869-1.3311 0.11246-1.7094-0.26219 0.22789-0.51746 0.44424-0.76118 0.6441" fill="#E8380D"/>
  <path d="m26.568 24.525c0.21965 0.10125 0.63223 0.51779 0.99798 0.92113 2.9567-2.3356 6.6481-6.1979 11.362-10.95-0.49635-0.48085-0.93663-0.96829-1.3852-1.6358-1.1569 0.83142-1.8944 1.4759-2.9154 2.3492-0.17282-0.2711-0.32222-0.53263-0.46238-0.79185-3.4289 0.16325-6.9439 2.5385-8.4307 4.5562-0.64014 0.86869-0.23053 1.494 1.0059 1.029 2.3129-0.87001 3.9747-1.2038 5.5545-1.1932-1.6437 1.8456-3.8596 4.0714-5.7266 5.7151" fill="#E8380D"/>
  <path d="m18.303 35.377c-1.7882-0.31067-3.5661-0.57781-5.4265-0.78921-1.9435-1.8677-5.2534-4.2633-7.8499-5.1429 1.5078 1.9458 3.4082 3.73 4.9978 5.0928-3.9873-0.80801-7.0158-0.60584-9.4643 0.02507 3.3722 0.35454 5.1963 0.69522 8.2532 1.5646-3.6344 1.2368-5.9311 3.079-8.0765 5.603 3.0035-1.5646 6.8397-3.1298 9.616-3.7604-1.9936 1.9181-3.9121 4.6439-3.9375 7.2434 1.7921-2.4227 4.7198-5.9562 7.1933-6.9657 2.4329 0.64245 4.2663 1.2704 6.3536 2.1417 0.13093-1.8733-0.43369-3.5668-1.6592-5.0123" fill="#30363A"/>
  <path d="m24.152 41.222c1.679-0.25395 3.7544-0.86243 5.9958-1.9188 1.3911-2.3551 3.3725-5.2471 5.3236-8.1883-4.0704 1.399-8.6764 3.2584-12.172 5.2141-1.7225-0.34959-3.364-0.66883-4.9968-0.95246 1.2252 1.4455 1.7898 3.1387 1.6592 5.0123 0.32419 0.13522 0.65366 0.27538 0.99336 0.42346 1.398 0.60947 1.8891 0.60749 3.1968 0.40961" fill="#595757"/>
  <path d="m53.88 15.464c-0.06959 1.0379-0.19953 2.143-0.39873 3.3429-0.15962 0.96434-0.34002 2.0382-0.53263 3.1836 2.8498-1.7598 5.2507-4.9688 5.882-8.1256-1.9973 0-3.4998 0.52207-4.9506 1.5992" fill="#30363A"/>
  <path d="m52.88 22.398c-0.20546 1.2219-0.42412 2.5197-0.64839 3.8653 6.2705 0.82549 11.569-1.6071 15.227-5.1782-5.2959-2.7904-10.646-1.8792-14.579 1.3129" fill="#30363A"/>
  <path d="m88.946 23.227c-4.8009 1.0059-7.2698 1.8291-11.614 4.1608-5.1317 2.7548-5.349 7.8562-2.6978 12.071 1.7836 2.835 2.7436 5.5324 2.149 8.8245-0.99336 5.503-9.4877 10.384-23.665 6.7764 4.3273 5.3774 7.3585 9.5876 9.1411 13.037 0.1184 0.22987 0.22393 0.45413 0.32254 0.67576 17.982-3.2868 28.528-13.166 19.871-27.942-3.7818-6.4552-3.109-11.385 6.9044-16.506 1.1952-0.61145 0.90662-1.3736-0.41159-1.0976" fill="#595757"/>
 </g>
 <path d="m88.946 23.227c-2.7166 0.56924-4.6868 1.0804-6.6722 1.839-7.1797 3.7211-9.3617 7.5415-7.7302 12.214 0.58935 1.6879 1.277 3.4629 1.8076 5.6241 0.5877 1.6859 0.78459 3.4279 0.43237 5.3794-0.99336 5.503-9.4877 10.384-23.665 6.7764 1.2008 1.492 2.298 2.8914 3.3003 4.2122 7.5531 1.4709 17.288 0.2734 21.691-4.7244 3.7347-4.2392 3.9533-9.2107-0.4571-16.415-2.5863-4.2241-1.8647-6.818 0.28726-8.8113 3.1489-2.9171 7.1362-4.8969 11.953-6.0713-0.19458-0.09102-0.51383-0.11378-0.94686-0.02309" fill="#E8380D" stroke-width=".33"/>
 <path d="m26.626 24.462c0.29715 0.27439 0.50262 0.50294 0.91421 0.9828 2.9952-2.1717 9.8-9.2641 11.361-10.98-0.45018-0.47788-0.94224-1.0827-1.3218-1.645-0.8156 0.57649-1.7714 1.3779-2.9105 2.362-0.3575 1.2549-1.1302 1.9531-2.5309 2.1236-2.4484 0.29781-5.0093 1.3037-6.6089 2.587 0.26714 0.32353 0.74106 0.28099 1.3782 0.04254 1.7677-0.66125 3.546-1.1625 5.2164-1.1111-1.7714 2.1628-3.5777 3.8547-5.4978 5.6379" fill="#C92F07" stroke-width=".3298"/>
 <path d="m24.263 24.54c0.32914 0.39873 0.51119 0.66521 0.80504 1.0923 0.16226 0.23482 0.39708 0.24438 0.65136-0.04221 0.1682-0.18898 0.31496-0.3918 0.4759-0.67213-0.02078 0.70016-0.02045 1.0573 0.0073 1.5125-0.91717 0.56726-1.6945 0.93102-2.5273 1.1411 0.41291-0.65103 0.55308-0.95906 0.6718-1.3512-0.18205-0.67906-0.16094-1.2602-0.0841-1.6803" fill="#C92F07" stroke-width=".3298"/>
 <g fill="#222327" stroke-width=".3298">
  <path d="m58.632 13.808c-1.2163 2.5352-3.5054 5.3038-5.5172 6.8282l-0.21305 1.4881c3.4316-2.2311 5.662-6.0334 5.7303-8.3162"/>
  <path d="m52.396 25.353c4.2089 0.6253 10.684-1.0989 14.825-4.3445-2.6371 3.7188-10.232 6.3368-15.011 5.1897z"/>
  <path d="m42.058 17.887c2.5362-0.60848 2.8402 3.6318-2.6984 7.4258 1.1767-2.3739 3.2053-5.9242 2.6984-7.4258"/>
 </g>
 <path d="m30.433 33.052c0.34761 1.8442-0.30309 3.1674-2.027 4.1294-1.8416 1.0277-3.3049 1.4795-4.8771 1.7687-0.6441 0.11873-1.1048 0.14247-1.676 0.01187-0.71303-0.16325-1.3766-0.32222-2.0124-0.47854 0.1118 0.50394 0.15632 1.1085 0.10092 1.9043 0.44985 0.19096 0.89277 0.38719 1.3212 0.59331 0.684 0.32947 1.6609 0.42148 2.6348 0.27868 1.8996-0.27868 4.2557-0.93729 6.2062-1.8492 1.52-2.4827 3.6733-5.8516 5.3451-8.2582-1.8238 0.63322-3.2931 1.1398-5.0156 1.8996" fill="#3E3A39" stroke-width=".3298"/>
 <g fill="#222327" stroke-width=".3298">
  <path d="m19.84 38.483c-1.8772-0.46073-3.5018-0.89442-5.3662-1.3284-0.85814-0.19986-1.1546-0.18139-1.7859 0.21503-1.9755 1.241-5.105 4.8777-6.1943 7.6639 2.2542-3.0144 5.1426-6.0034 7.1181-6.7889 2.2443 0.61772 4.3794 1.3133 6.3295 2.1427 0.05541-0.79581 0.01055-1.4003-0.10125-1.9043"/>
  <path d="m1.1884 41.352c2.2215-1.7684 7.404-3.9404 8.6381-4.1413 0.61739-0.10026 0.92707 0.24108 0.83934 0.59166-2.7852 0.78954-6.6204 2.2146-9.4775 3.5496"/>
  <path d="m0.9813 34.531c2.3953-0.13588 6.1936 0.218 7.9449 0.80141 0.41588 0.13852 0.51614 0.56693 0.22855 0.82285-3.0121-0.81164-5.6303-1.3512-8.1734-1.6243"/>
  <path d="m5.2172 29.594c1.9999 1.3832 4.0806 3.235 5.4067 4.4922 0.26978 0.25592 0.11411 0.66883-0.25724 0.64014-1.6919-1.3258-3.7093-3.4408-5.1495-5.1323"/>
 </g>
 <g stroke-width=".3298">
  <path d="m26.631 46.228c-1.5553 9.0962 6.8951 17.931 15.602 17.077 0.15632-0.74337 0.35816-1.5722 0.52339-2.1734 8.592 11.506 19.352 13.305 19.85 7.9112 2.1648 3.3069-0.0066 9.5286-7.6962 6.9146-3.0061-1.0224-6.8842-3.3501-9.9019-5.5449-5.3042 0.32024-12.163-1.9659-14.998-4.4352-2.8805 0.86902-7.1784 2.0576-10.059 2.6519-0.19788 1.3235-0.99435 3.0134-2.2344 3.4533-6.4647-1.584-9.9976-4.64-10.202-5.6633-0.15237-0.76184 0.21371-1.9204 0.70115-2.865 2.2862 1.5543 12.437-0.85385 16.826-7.8647-0.1527-2.3775 0.52603-7.5537 1.589-9.4616" fill="#3E3A39"/>
  <path d="m65.467 78.917c-1.0128-1.5636-1.8512-2.8495-2.8003-4.263-0.69786 1.0864-2.2285 1.7714-3.4401 1.8858 0.73414 0.78987 1.5698 1.902 2.2816 2.9286 1.4172 0.37795 3.0645 0.2523 3.9589-0.55143" fill="#3E3A39"/>
  <path d="m63.069 83.598c-2.2878 2.2872-3.9019 5.0855-5.3817 8.2074 2.2331-2.4488 4.6284-4.0635 6.6465-5.1937-0.26879 2.6908-0.10752 7.992 0.34992 11.409 0.43039-3.2561 1.0491-8.5029 2.7446-11.06 1.3723 2.4217 3.8752 6.8348 5.4892 9.741-0.05409-2.2064-1.0761-6.4044-2.8251-10.306 2.3004 1.7911 5.2052 4.9968 7.7698 8.1922-2.0111-3.9675-5.6673-8.6187-8.5501-10.829-0.77239-0.59199-1.7351-1.5837-2.2608-2.395-0.58704-0.90728-1.1045-1.708-1.584-2.4474-0.89409 0.80372-2.5418 0.92938-3.9586 0.55142 0.46304 0.66752 0.8743 1.2991 1.1705 1.7806 0.30968 0.50394 0.4703 1.676 0.38982 2.3488" fill="#222327"/>
  <path d="m58.577 62.379c17.919 2.9913 29.047-8.6757 24.561-19.774 4.2478 7.3291 1.99 13.987-1.4043 17.476-4.3982 4.5206-11.688 7.3714-19.222 8.6747-1.2625-2.6882-2.6318-4.788-3.9348-6.3764" fill="#3E3A39"/>
  <path d="m18.496 72.861c-0.01814-0.35025 0.0063-0.47656-0.75161-0.73842 1.1833-0.57154 1.8993-2.0418 2.3482-3.5543 1.1424 0.436 2.2433 1.0758 3.3722 1.9617 0.49404 0.38752 0.76349 0.82747 0.50723 1.4798-0.48612 1.2391-0.95114 3.1291-1.1625 4.2709-0.16325 0.8809-0.43138 1.4115-1.2265 2.0929-0.59199 0.50723-1.4811 1.365-2.0504 2.0296-1.2687 1.4801-2.8333 2.4953-4.1654 3.235 0.33804-1.5012 1.9874-3.9118 4.1258-6.0241-3.4289 1.8291-7.0185 4.2294-9.739 6.8358 0.87562-1.8762 2.4784-3.8626 4.4081-5.4427-2.7179 0.70346-5.0581 2.144-7.4713 3.7736 0.591-1.4069 1.7229-2.7156 3.1991-3.7409-1.2265 0.26384-2.0398 0.39939-3.3333 1.0458 2.5447-2.0398 4.5005-3.0543 8.1813-3.7287 0.82912-0.15204 1.5662-0.36608 1.6803-0.91454 1.6576-0.88024 2.1147-1.865 2.0777-2.5813" fill="#222327"/>
  <path d="m16.094 9.7522c0.30935 1.712 1.8152 3.7333 3.1041 4.0015-0.09267 0.26813-0.2058 0.63948-0.31958 1.0003-1.774-0.6187-3.3821-3.3208-2.7845-5.0017" fill="#222327"/>
  <path d="m39.703 5.3839c-0.39411 0.40005-0.82285 0.3885-1.0059 0.19986-0.15962-0.1649-0.15534-0.64113 0.26912-1.0458 0.40334-0.38488 0.778-0.43764 1.0171-0.2058 0.19425 0.18865 0.13027 0.63519-0.28033 1.0517" fill="#afcfe5"/>
 </g>
 <g fill="#0d131a" stroke-width=".3298">
  <path d="m18.061 8.6951c-0.30177 0.4726-0.085418 0.67378 0.30474 0.25131 0.45743-0.49536 0.92971-0.92971 1.433-1.2955 0.17479-0.1273 0.096632-0.24471-0.10718-0.17512-0.62464 0.21338-1.3396 0.76349-1.6305 1.2193"/>
  <path d="m38.995 14.966c-0.62662-0.59892-1.1121-1.2166-1.6441-2.0184-0.41357-0.62332-0.11279-0.82219 0.3453-0.2302 0.57748 0.74766 0.96071 1.1649 1.5606 1.7077 0.88815-0.73414 1.8175-1.7262 2.6938-2.7776 0.37168-0.44589 0.47194-0.3862 0.50756 0.17776 0.06695 1.0544 0.16952 1.709 0.37663 2.4742 2.6902-1.4825 5.6501-4.0806 5.6637-5.0637 0.004947-0.32881-0.41621-0.68961-1.7331-0.93136-0.81131-0.14874-0.76678-0.49668 0.055406-0.41093 1.5662 0.16292 2.2588 0.78328 2.2783 1.3591 0.04551 1.3548-3.4698 4.2033-6.2124 5.6706-0.35486 0.1903-0.42181 0.1217-0.5069-0.16622-0.17347-0.59232-0.32782-1.4472-0.39642-2.3894-0.71995 0.88024-1.5623 1.7384-2.5015 2.6025-0.20184 0.18568-0.28132 0.19161-0.48678-4e-3"/>
  <path d="m53.157 18.743c1.1672-6.9881 0.14973-10.884-3.6921-14.691-4.4526-4.4134-10.805-4.6469-16.01-0.087397-2.9725 2.6048-8.1767 2.9184-10.142 1.2275-0.70676-0.60815-1.3875-0.95213-2.0025-0.96862-1.0441-0.037267-4.9087 2.6285-5.1772 5.54-0.1062 1.1553 0.67708 3.5417 2.5085 4.6047 0.39312-1.2351 1.1675-2.4702 1.9175-3.232 0.30045-0.3054 0.44358-0.27308 0.53197 0.15731 0.29748 1.4363 0.6784 2.516 1.3169 3.7205 0.77041-1.0877 1.4544-2.0035 2.08-2.6806 0.6065-0.65597 1.1909-0.97225 2.4465-0.9086 1.9039 0.09696 4.3774 0.44523 6.4169 0.88551 0.20448 0.04386 0.2645 0.09993 0.34068 0.30605 0.30572 0.81922 0.58836 1.4597 1.0095 2.1463 0.89804-0.76909 1.6111-1.3604 2.6862-2.1318l0.31463 0.46865c-0.99567 0.71501-1.9498 1.5168-2.8007 2.241-0.27934 0.23746-0.39642 0.20843-0.55538-0.04452-0.47128-0.74733-0.87496-1.465-1.2107-2.3624-2.022-0.43698-4.356-0.76118-6.2467-0.85715-1.087-0.05541-1.4472 0.13225-2.0065 0.7371-0.63025 0.6817-1.4521 1.7206-2.2344 2.8294-0.23976 0.34002-0.38982 0.34596-0.57715 0-0.65729-1.2147-1.1167-2.4659-1.4066-3.8465-0.64245 0.74931-1.2071 1.8512-1.5504 2.954-0.11312 0.36047-0.21701 0.42379-0.55868 0.24867-2.3393-1.1985-3.2825-4.045-3.1661-5.3104 0.28165-3.0592 4.5667-6.2487 5.9555-6.2025 0.83967 0.022756 1.6889 0.48547 2.4408 1.1325 1.807 1.5543 6.2672 1.2961 9.2093-1.2809 4.975-4.3586 12.085-4.6208 16.984 0.23416 3.9527 3.917 5.0324 8.1385 3.8395 15.281-0.98544 5.9018-2.8861 17.008-3.6225 22.572-0.97753 7.3885-0.74766 8.5672 2.3775 12.414 5.1241 6.3068 8.2434 10.662 10.008 14.077 3.424 6.6277-1.2793 10.081-6.3381 8.8202-3.735-0.93004-9.7499-4.3906-13.466-7.8258-1.0253-0.94818-0.73941-1.2918 0.32584-0.3885 4.0222 3.4101 9.648 6.597 13.328 7.5135 4.4704 1.1118 8.5474-1.8057 5.4532-7.7938-1.7512-3.389-4.7936-7.7018-9.8993-13.986-3.3293-4.0988-3.3907-5.7642-2.4461-12.905 0.73776-5.5713 2.6321-16.703 3.6179-22.608"/>
  <path d="m42.145 62.745c0.34233-1.8419 0.81263-3.2983 1.6127-4.731 0.45545-0.8156 0.81757-0.63322 0.40368 0.2058-0.80735 1.6384-1.2457 2.8534-1.6477 4.6043-0.28627 1.2483-0.60485 1.1922-0.36872-0.07915"/>
  <path d="m45.548 70.905c-6.1349 0.14775-14.167-2.0322-17.688-6.818-0.67906-0.92344-0.32617-1.1718 0.41093-0.29484 3.8112 4.5321 10.792 6.3305 16.412 6.3473z"/>
  <path d="m39.164 14.712c-3.6898 3.7376-8.6701 8.8911-11.342 10.968-0.23812 0.18601-0.36575 0.15435-0.51449-0.03694-0.38916-0.50064-0.63454-0.80867-0.69819-0.78229-0.07948 0.03331-0.08509 0.76744-0.0808 1.4287 0.0013 0.23976-0.04023 0.32617-0.21536 0.44226-0.66257 0.43863-1.365 0.79482-2.1364 1.0102-0.41324 0.11543-0.34266 0.21536 0.07684 0.27802 0.88254 0.13291 2.3093-0.09234 3.0497-0.42478 4.2175-1.8947 11.187-8.5303 14.566-9.6773 0.38257-0.13027 0.51647-0.05508 0.50591 0.37663-0.11147 4.6574-8.4079 15.171-12.068 21.489-4.5377 7.8331-5.8299 12.934-4.6492 18.788 0.21206 1.0524-0.19524 1.1362-0.44952 0.10982-1.4399-5.8041-0.19293-11.354 4.4183-19.281 3.7821-6.5007 11.387-16.113 12.088-20.764-2.149 0.58869-10.059 7.7444-14.225 9.5952-0.87661 0.38916-3.2093 0.64542-4.0183 0.20678-0.55242-0.29979-0.59397-0.96434 0.51482-1.2516 0.66224-0.1715 1.4904-0.5722 1.9768-0.92971-0.0089-1.092 0.14016-1.9135 0.32024-2.0253 0.16589-0.1029 0.63157 0.05112 1.3205 0.79449 2.6364-2.025 7.3295-6.9113 11.086-10.764z"/>
  <path d="m34.318 14.724c-3.2604 0.11972-6.7622 2.2651-8.3433 4.4111-0.49932 0.67708-0.16721 0.91223 0.69192 0.58869 2.431-0.91454 4.1608-1.2344 6.0179-1.1375 0.92707 0.04848 0.88485 0.45743-0.04584 0.45183-1.834-0.01154-3.4421 0.33508-5.8177 1.2288-1.5309 0.57484-2.1737-0.30276-1.3149-1.4689 1.6078-2.1823 5.1673-4.4912 8.4973-4.6973z"/>
  <path d="m26.805 24.743c1.8706-1.6912 4.2386-4.048 5.8704-5.8909l-0.81757-0.01748c-1.8957 2.1094-4.3949 4.5423-6.2411 6.1214-0.5699-0.6098-1.3317-1.0115-1.6061-0.82879-0.25494 0.17018-0.1372 1.309 0.0686 2.0692-0.27373 0.54219-0.53131 0.95048-0.85154 1.4686l0.74898-0.09696c0.22031-0.36476 0.40071-0.67048 0.6065-1.0718 0.08344-0.16292 0.08674-0.28627 0.03133-0.47821-0.1583-0.55439-0.27571-1.2773-0.20909-1.3077 0.07421-0.0343 0.46304 0.27406 0.93696 0.78855 0.18865 0.20415 0.40664 0.17314 0.59463 0.01154 0.15896-0.13687 0.32452-0.28132 0.49437-0.4327l0.0808-0.38818z"/>
  <path d="m34.055 10.013c0.04716-3.7492 2.6727-6.2355 5.4519-6.7813 2.673-0.52438 5.5875 0.77437 7.4462 3.4045 0.38158 0.54087 0.28099 0.70445-0.33211 0.46205-4.2864-1.6948-9.0979-0.58045-12.19 2.8445-0.69555 0.77008-1.0191 0.55868-0.31397-0.27077 3.0718-3.6139 7.6866-4.8309 12.107-3.2142-1.776-2.0573-4.2825-3.1694-6.6135-2.7116-2.8115 0.55176-4.725 2.8841-5.0802 5.7844z"/>
  <path d="m37.457 7.27c-0.22855-0.86869-0.21668-2.0299-0.11444-2.9092l0.56561-0.33145c-0.14379 0.80537-0.16457 2.1269 0.02276 3.0065z"/>
  <path d="m25.243 51.175c-12.682 4.1944-17.403 12.47-17.295 15.18 0.035618 0.90497 3.6974 3.8672 8.773 5.098 1.3723 0.3331 1.9636 0.82549 2.0645 1.3621 0.17842 0.94818-0.71303 2.1351-2.3676 2.8501-0.16919 0.07355-0.25065 0.07618-0.40005 0.09168-4.9256 0.52801-7.9713 2.429-9.1332 4.0176 1.0402-0.55406 2.1493-0.85715 3.4636-1.1144l-0.93729 0.77734c-0.93663 0.23647-1.8172 0.54021-2.8712 1.0468-0.64575 0.311-0.77272 0.15501-0.4759-0.39345 1.3274-2.4537 5.318-4.4526 10.005-4.9285 1.5553-0.63124 2.2202-1.6599 2.1127-2.2321-0.03925-0.21173-0.3331-0.62761-1.587-0.90563-4.9361-1.0933-9.3518-4.1106-9.4132-5.6524-0.14841-3.7419 6.0119-12.052 18.215-16.014z"/>
  <path d="m13.778 79.363c-2.0233 0.59034-4.3491 1.9165-6.7721 3.5318-0.65267 0.43567-0.78328 0.25032-0.51185-0.35256 1.28-2.8425 4.3883-4.9968 7.8605-5.6115 0.99864-0.17677 1.0732 0.19689 0.08146 0.40664-3.2185 0.68071-5.6112 2.4639-7.0933 4.7062 2.1909-1.4521 4.4731-2.7713 7.2071-3.4009z"/>
  <path d="m20.597 68.418c1.0613 0.43929 2.0085 0.98247 3.0576 1.806 0.8245 0.64674 0.91717 1.2509 0.66323 1.8973-0.45743 1.1652-0.94521 3.0008-1.1714 4.2224-0.19623 1.0593-0.45512 1.4986-1.3608 2.2707-0.70148 0.59793-1.458 1.3228-2.0286 1.9887-1.2668 1.4778-2.8356 2.4504-4.0829 3.1634-0.65597 0.3763-0.67642 0.14841-0.5379-0.33079 0.37234-1.2813 1.4049-3.0041 2.9814-4.7448-3.1948 1.8518-5.4671 3.5793-8.1797 5.9357-0.46469 0.404-0.73941 0.41489-0.41126-0.29715 1.341-2.9128 3.8392-5.3955 6.6158-6.9627 0.9119-0.51482 1.1029-0.18799 0.21041 0.35717-2.3376 1.4277-4.1591 3.3574-5.6551 5.5255 2.3139-2.0448 5.074-3.9289 8.274-5.6663 1.0313-0.56099 1.2351-0.31397 0.41852 0.51548-1.7473 1.7753-2.9751 3.5928-3.5942 5.0024 1.0893-0.63421 2.3805-1.5576 3.5434-2.9151 0.5844-0.6817 1.4465-1.5421 2.0345-2.0461 0.81362-0.69687 0.9363-1.0484 1.1055-1.96 0.22987-1.241 0.66257-3.0751 1.1296-4.264 0.15798-0.40269 0.13423-0.70511-0.4172-1.1375-1.2081-0.94785-2.4649-1.648-3.6921-2.0748z"/>
  <path d="m20.288 68.561c-0.19887 1.37-0.88024 2.8435-2.1909 3.7581l-0.80603-0.27439c1.4003-0.89936 2.1384-2.0299 2.4026-3.3979z"/>
  <path d="m30.393 66.251c-4.5136 1.3423-8.7351 2.3633-12.833 3.1417-1.4383 0.27307-1.4798-0.15896-0.10488-0.48118 4.0654-0.95213 8.2569-1.9584 12.321-3.2426z"/>
  <path d="m63.41 71.464c1.7107 3.5328 3.8629 6.8691 5.2705 8.8485 0.54417 0.76481 1.249 1.5702 1.9531 2.1889 2.3696 2.0824 6.3186 7.4502 7.8024 12.561 0.14709 0.5069-0.04881 0.56824-0.35948 0.1903-2.3439-2.8488-5.3411-6.1481-7.2342-7.8911 1.2394 2.7166 2.053 6.094 2.3429 9.3455 0.08278 0.93498-0.1372 0.97885-0.58012 0.15566-1.8129-3.3712-3.2878-6.0766-5.1709-9.3624-1.3937 2.2796-2.0797 7.3667-2.4643 10.385-0.11873 0.933-0.43632 0.93597-0.59199 0.01814-0.64377-3.7953-0.51185-8.6032-0.32815-10.83-1.9996 1.0666-3.5813 2.3963-6.0146 4.7405-0.57187 0.5511-0.78888 0.3984-0.49569-0.29418 1.054-2.4887 3.0041-5.7936 5.2075-7.9967 0.02012-0.82153-0.07091-1.5131-0.2058-1.7374-1.0432-1.7331-2.2321-3.7248-3.7907-5.1868l0.85748-0.12104c1.4679 1.465 2.5665 3.2769 3.5562 4.9477 0.26219 0.44259 0.26087 1.6572 0.24933 2.1259-0.0046 0.23416-0.03265 0.28495-0.18073 0.42874-1.9316 1.8756-3.8 4.8045-4.7897 6.7556 1.9379-1.9547 3.5061-3.1984 5.6185-4.3092 0.38488-0.20217 0.58474-0.15039 0.56 0.30276-0.15072 2.6978-0.30309 5.8371 0.05079 9.3977 0.52141-3.8897 1.1151-7.1286 2.4204-9.1747 0.22228-0.34794 0.42115-0.40664 0.66686 0.02012 1.7799 3.1047 3.2614 5.8131 4.7844 8.6711-0.42379-2.9022-1.5095-6.6115-2.6321-8.9841-0.4858-1.0277-0.33376-1.1622 0.52537-0.41423 2.6664 2.3188 4.912 4.9176 6.9928 7.4396-1.6061-3.955-5.0987-8.8828-7.2385-10.763-0.72787-0.63882-1.494-1.4294-2.0556-2.2196-1.3218-1.8578-3.205-4.7686-4.8744-7.9531z"/>
  <path d="m66.411 77.44c-0.16622 0.79845-1.1612 2.0652-1.5012 2.2281-0.67411 0.32353-2.7565 0.26087-3.2769 0.06662l-0.36608-0.78888c0.64443 0.31925 2.7769 0.44754 3.4154 0.11114 0.47128-0.24867 1.1998-1.466 1.306-2.303z"/>
  <path d="m29.878 39.761c-2.4623 1.1269-4.3883 1.5811-5.6864 1.7776-1.3116 0.19788-1.9481 0.20843-3.3953-0.44028-2.5375-1.1372-4.509-1.8466-7.1689-2.552-2.3986 1.0194-5.2484 4.4543-6.8539 6.6009-0.47326 0.63256-0.65234 0.57088-0.60485-0.21041 0.16226-2.6638 2.0408-5.1947 3.3722-6.5076-2.3478 0.63849-5.5789 1.926-8.4693 3.4141-0.72589 0.37498-0.81131 0.047162-0.35256-0.48283 2.1978-2.5461 4.2858-4.0608 7.1263-5.1887-2.3769-0.67378-3.924-0.93894-7.1069-1.338-0.96697-0.12104-0.98907-0.33277-0.044523-0.56528 2.4052-0.59232 5.2939-0.75986 8.4376-0.15995-1.7394-1.5036-3.0335-2.922-4.1782-4.3398-0.47359-0.58672-0.31727-0.74337 0.39312-0.48415 2.6166 0.95576 5.7919 3.2696 7.6919 5.0314 3.4161 0.39048 6.5063 0.95708 10.21 1.7074 4.2115-2.3455 9.5688-4.3197 12.454-5.3042l-0.48019 0.82879c-2.9313 1.0164-7.7315 2.7898-11.677 4.9767-0.16259 0.09036-0.3021 0.09333-0.46139 0.06101-3.6205-0.73216-6.7813-1.3086-10.121-1.6939-0.20283-0.02375-0.26549-0.07256-0.36509-0.16688-1.7865-1.6965-4.4305-3.6562-6.7691-4.6973 1.1846 1.3578 2.5085 2.6978 4.1977 4.1641 0.60749 0.52702 0.4482 0.67114-0.24966 0.54582-2.9032-0.52141-5.2352-0.61013-7.6398-0.25164 2.6018 0.31166 4.0496 0.622 6.593 1.3416 0.61772 0.17677 0.59925 0.37597 0.036608 0.58737-2.8544 1.0725-4.8329 2.2882-6.9555 4.4948 2.7189-1.3654 5.6485-2.5507 8.3568-3.1499 0.55176-0.12236 0.73446 0.0086 0.23482 0.50657-1.804 1.7981-3.327 3.9959-3.6595 6.0901 1.9033-2.5058 4.4104-5.3579 6.6692-6.3407 0.15237-0.06596 0.19854-0.07157 0.38356-0.02177 2.6486 0.70379 4.636 1.4036 7.253 2.5444 1.3311 0.58045 1.7588 0.5755 3.0688 0.37729 1.3674-0.20678 3.58-0.73809 6.253-2.0345z"/>
  <path d="m19.687 40.312c0.11675-1.8772-0.5224-3.5331-1.8093-5.0074l0.82681 0.10916c1.2011 1.4274 1.6774 3.2093 1.5286 5.0931z"/>
  <path d="m52.271 25.976c6.0868 0.7714 11.147-1.5299 14.711-4.8237-4.7989-2.4161-10.124-1.7265-14.145 1.6457l0.10883-0.8001c4.2518-3.3396 9.5827-3.8029 14.517-1.2262 0.35948 0.18865 0.3862 0.33706 0.04024 0.67444-3.8874 3.7884-9.3238 5.9859-15.301 5.1297z"/>
  <path d="m52.963 21.621c2.6724-1.6975 4.8896-4.8164 5.4991-7.4644-1.8238 0.04287-3.138 0.61442-4.6119 1.6922l0.04057-0.75722c1.3829-1.0221 2.8838-1.4956 4.765-1.5207 0.43369-0.0059 0.51086 0.07157 0.43039 0.46898-0.68368 3.4009-3.1245 6.5231-6.1917 8.3469z"/>
  <path d="m52.062 27.929c-0.70511 1.3172-1.9029 1.9066-3.9398 2.2641-2.5296 0.44424-3.8517 0.5689-5.9094 0.72886-0.68466 1.0923-1.3558 2.3792-2.146 4.0021-0.04024 1.5283-0.12466 5.0506-0.36905 5.8658-0.22558 0.75095-3.3247 5.1465-5.2798 7.7655-0.42643 0.57022-0.55769 0.48843-0.63816-0.09894-0.42907-3.1562-0.49602-7.2355 0.43105-9.5527 0.43435-1.086 1.9989-3.1377 3.2604-4.6406 0.41819-1.5504 0.56594-2.4402 0.7127-3.6611-0.685-0.26615-1.2569-0.61277-1.714-1.0488l0.34695-0.51416c0.45875 0.46106 1.1342 0.81823 1.8703 1.0844 0.09103 0.03265 0.14709 0.12302 0.13588 0.21866-0.14775 1.2826-0.40302 2.4847-0.77503 4.0249-0.03595 0.1494-0.08476 0.23878-0.15138 0.31859-1.2295 1.4732-2.6209 3.4645-3.0345 4.4981-0.87628 2.1905-0.89673 5.9608-0.60024 8.6417 1.7499-2.3841 4.5674-6.6003 4.761-7.247 0.23086-0.76876 0.40236-4.3273 0.44094-5.6211 4e-3 -0.14742 0.02704-0.22591 0.08773-0.34365 0.70082-1.3512 1.4765-2.9563 2.1615-4.0668 0.10422-0.16886 0.18139-0.21899 0.43468-0.22987 2.0283-0.09168 3.3659-0.26252 5.8599-0.70082 2.0392-0.35783 3.5625-1.0804 4.0638-3.2462z"/>
  <path d="m62.434 68.39c11.193-1.9867 18.874-6.5498 21.563-12.357 1.9847-4.2848 1.4356-9.366-1.8802-15.026-4.1166-7.0264-2.5889-12 7.0887-16.95 0.83835-0.42907 0.73545-0.73941-0.19788-0.54087-4.7706 1.0131-7.0801 1.7578-11.537 4.1509-4.6548 2.4992-5.3141 7.2394-2.5606 11.618 2.0682 3.2878 2.7416 6.0601 2.2139 9.0632-1.0003 5.6947-9.6229 10.618-23.668 7.1705l-0.61475-0.89706c14.127 3.6776 22.611-0.93993 23.596-6.3915 0.52141-2.89-0.12038-5.4298-2.1282-8.6223-2.865-4.5532-2.2905-9.7462 2.8709-12.518 4.5024-2.4171 7.0017-3.1842 11.699-4.1683 1.7143-0.35948 2.149 0.88782 0.60188 1.6843-10.113 5.2056-10.231 10.047-6.7058 16.064 3.2726 5.5862 4.0997 10.913 1.9089 15.643-2.9382 6.3437-10.613 10.704-21.923 12.847z"/>
  <path d="m56.198 58.902c9.2796 1.9039 18.061-0.44985 21.702-4.5836 3.7779-4.2881 3.7231-9.213-0.48151-16.081-2.3422-3.8244-2.2426-6.6705 0.36575-9.087 3.0886-2.861 6.9119-4.8758 11.752-6.0891l0.58869 0.4172c-4.9562 1.1863-8.895 3.1575-12.014 6.0469-2.2535 2.0873-2.5213 4.729-0.23416 8.4643 4.2801 6.9911 4.485 12.177 0.43435 16.775-4.3392 4.9252-14.145 6.3209-21.684 4.8464z"/>
  <path d="m75.748 41.576c-0.45414-1.4838-1.0085-2.9461-1.463-4.2208-1.7219-4.8312 0.88419-8.5804 6.6923-11.881l2.391-0.57616c-7.6088 3.5266-10.287 7.4436-8.5672 12.276 0.84033 2.3607 1.3139 3.6637 1.8858 5.8658z"/>
 </g>
 <g stroke-width=".3298">
  <path d="m58.184 39.479c0.13456-0.58441 0.31496-1.3947 0.49569-1.993-1.962 1.3416-4.0579 3.0295-6.2039 4.9368-3.73 0.09004-6.8994 1.3937-9.2364 3.4837 2.584-0.60683 4.9665-1.0339 8.0227-1.371-2.6519 1.9102-5.416 5.259-5.9555 7.3486 2.0903-2.3149 4.4276-3.9774 6.8097-5.5281-1.4383 2.6519-2.8317 6.6745-2.9441 9.0566 1.5507-3.1687 3.5061-6.5172 4.9892-8.585-0.26978 2.7868-0.40466 6.3602 0.11246 8.4729 0.94422-3.3036 1.5507-6.8321 2.3597-10.832 2.6107-1.557 5.294-3.1832 7.5775-4.6723-1.8594-0.44028-4.042-0.49899-6.0271-0.31694" fill="#30363A"/>
  <path d="m68.881 34.266c-5.596-2.3373-12.592-3.4547-19.891-2.0184-2.7143 0.53428-2.9316 7.153-0.43666 6.717 2.8818-0.5036 6.9274-1.1902 10.126-1.4778-0.1804 0.59826-0.3608 1.4086-0.49569 1.993 1.9851-0.18238 4.1677-0.12334 6.0274 0.31694 2.1988-1.434 4.0272-2.741 5.0522-3.733 0.80801-0.78163 0.6718-1.3578-0.38191-1.7977" fill="#595757"/>
  <path d="m62.279 35.229c-3.9965-0.15995-8.1273 0.09894-11.961 0.55505-2.3482 0.27934-2.8693 2.021-2.1618 3.2515 3.5526-0.75326 7.279-1.34 10.503-1.4943 1.4096-0.96566 2.5378-1.6751 3.6189-2.3122" fill="#3E3A39"/>
  <path d="m68.308 34.297c0.5356 0.36707 0.57946 0.88881 0.0155 1.3617-1.3802 1.1573-3.4484 2.5408-5.5855 3.8755 0.44127 0.06926 0.90332 0.16358 1.3608 0.29055 2.2192-1.4577 4.1591-2.83 5.1119-3.7373 0.96005-0.91454 0.58177-1.6068-0.90266-1.7905" fill="#3E3A39"/>
 </g>
 <g fill="#222327" stroke-width=".3298">
  <path d="m56.433 43.295c-0.52174 0.30276-0.72688 0.60188-0.81856 1.1474-0.36608 2.1717-0.93729 6.4011-1.3489 10.47 1.0059-3.4065 2.0115-8.093 2.3544-10.425 2.1918-1.3126 5.0087-3.0411 7.4789-4.6634-0.45776-0.12664-0.91948-0.22097-1.3608-0.29022-2.272 1.4188-4.6205 2.7832-6.3051 3.7607"/>
  <path d="m49.259 54.958c1.0171-3.0292 2.9379-6.5469 4.1034-8.4703 0.2424-0.39939 0.76975-0.37498 0.93729 0.0343-1.4745 2.2519-3.9893 6.3899-5.0407 8.436"/>
  <path d="m45.544 51.484c1.5088-2.3891 4.1162-4.4629 6.1039-5.6755 0.39477-0.24075 0.76019-0.0686 0.74304 0.34299-2.143 1.4115-4.6525 3.1493-6.847 5.3325"/>
  <path d="m43.481 45.7c2.2575-1.0115 5.443-1.7146 7.5996-1.9125 0.46139-0.04254 0.69951 0.26351 0.59034 0.60947-2.7317 0.3885-5.5096 0.7028-8.1899 1.303"/>
 </g>
 <g fill="#0d131a" stroke-width=".3298">
  <path d="m48.936 55.173c0.23185-2.4395 1.2905-5.6152 2.5029-8.0633-1.8884 1.2555-3.6275 2.5147-5.7586 4.7283-0.59694 0.62002-0.79086 0.54813-0.5346-0.28231 0.62332-2.0227 2.8119-4.7429 5.2263-6.6636-2.4432 0.29187-4.4173 0.63882-6.7642 1.1804-0.74667 0.17084-1.0224 0.07289-0.27835-0.57946 2.485-2.1783 5.5796-3.2149 9.0388-3.3597 3.4962-3.2235 6.2807-5.0337 9.0731-6.6244 1.118-0.63684 1.3578-0.17479 0.23053 0.44655-2.5533 1.4076-5.3721 3.4817-8.8634 6.564-0.18667 0.1649-0.35355 0.2147-0.56198 0.22262-3.1212 0.11708-5.7745 1.0273-8.0171 2.6776 2.1645-0.48975 4.1307-0.80966 6.7827-1.1121 0.81164-0.09267 0.90365 0.05936 0.20085 0.5821-2.2337 1.6711-4.3857 4.323-5.2059 5.8965 1.8983-1.9267 3.8316-3.2957 5.8223-4.5466 0.5666-0.35618 0.74436-0.22855 0.41687 0.41258-1.3713 2.6826-2.2858 5.4259-2.6556 7.3806 1.3756-2.6559 2.9375-5.3536 4.26-7.2206 0.35882-0.50822 0.60485-0.43962 0.54054 0.25296-0.22921 2.5094-0.311 5.4542-0.06827 7.1164 0.65168-2.4844 1.2978-5.8576 2.0082-9.6819 0.03793-0.20283 0.07948-0.25329 0.27373-0.36971 5.2775-3.1502 10.424-6.3266 12.453-8.2892 0.62926-0.60881 0.60222-0.9396-0.30869-1.3166-6.382-2.6404-12.555-3.2957-18.982-2.1506-1.2391 0.22064-1.3251-0.2391-0.09003-0.48942 6.4713-1.311 12.903-0.64047 19.295 2.1058 1.4663 0.62959 1.3977 1.4026 0.46799 2.2908-2.0817 1.9874-7.221 5.2303-12.545 8.4073-0.68862 3.7093-1.4333 7.3516-2.3403 10.551-0.16523 0.58177-0.4139 0.59133-0.55736-0.0432-0.49173-2.1813-0.3641-5.3889-0.16589-7.4462-1.2344 1.8287-2.9761 4.8085-4.3257 7.5399-0.32024 0.64905-0.64443 0.66455-0.56989-0.11675"/>
  <path d="m58.216 37.829c-2.5253 0.19656-6.1221 0.68434-9.1289 1.2691-1.1579 0.22525-1.3373-0.20645-0.09136-0.4914 3.0065-0.68763 6.8166-1.2212 10.223-1.4699z"/>
  <path d="m63.919 40.024c-1.59-0.35025-3.5599-0.42775-5.5842-0.2612-0.42742 0.03529-0.49305-0.11048-0.41819-0.40203 0.13291-0.52207 0.29352-1.0854 0.48118-1.7258l0.65136-0.40565c-0.24207 0.79976-0.37465 1.3888-0.50855 1.9316 2.2057-0.17644 4.3583-0.01583 6.0469 0.41159z"/>
 </g>
</svg>
