<?xml version="1.0" encoding="UTF-8"?>
<svg version="1.1" viewBox="0 0 418.82 455.67" xmlns="http://www.w3.org/2000/svg" xmlns:cc="http://creativecommons.org/ns#" xmlns:dc="http://purl.org/dc/elements/1.1/" xmlns:rdf="http://www.w3.org/1999/02/22-rdf-syntax-ns#">
 <title>Tapu Bulu</title>
 <path d="m242.44 170.75c-11.09 1.34-22.74 2.54-34.95 3.7-10.49-1.79-20.88-4-31.07-6.52-17.44 12.53-39 46.36-41.24 65.19-1.59 13.21 2.4 40.92 13.83 57.08 5.86 8.3 19.73 18.62 30 23.32 4.49 2.05 5.69 3.86 5.38 11.22a99.48 99.48 0 0 1-3.19 20.87c8.57-8.27 23.46-4.21 23.81 9.29a292.91 292.91 0 0 0 15.54-33.25c1.24-3.18 2.24-4.49 5.62-6.09 9.34-4.4 21.53-11.21 27.69-18.65a15.59 15.59 0 0 1 0.95-3.19c5.37-12.79 15-38.91 19.76-52.55a7.69 7.69 0 0 1 0.84-1.7c-3.05-23.1-18.78-56.63-32.97-68.72z" fill="#30363A"/>
 <path d="m174.75 194.81c-1.48 0.1-7.74-5.45-11.47-9.62-2.34 2.64-4.63 5.4-6.66 8.11 3.89 4.27 9.9 10.44 12.28 10.66 4.52 0.41 15.27-5.58 20.25-14.72-4.91 2.3-12.49 5.44-14.4 5.57z" fill="#E8382F"/>
 <path d="m251.46 189.3c-4.86 4.86-11.15 9-13.64 9-2.72 0-9.94-4.06-14.48-8 1.92 5.42 7.74 14.82 10.94 16.21 4 1.72 15.64-0.56 23.62-6.93a102.24 102.24 0 0 0-6.44-10.28z" fill="#E8382F"/>
 <path d="m159.73 204.49a40.19 40.19 0 0 1-8-8.77c-1.66 2.52-3.25 5.08-4.74 7.64a24.32 24.32 0 0 0 8.91 7.05c2.76 1.3 15.85 1.2 21.48-1.76-7.32 0.34-13.93-1.34-17.65-4.16z" fill="#fff"/>
 <path d="m256.58 214.89c2.61-0.33 7.94-3.14 10.41-5.08-1.41-3.48-2.95-6.92-4.58-10.25a34.63 34.63 0 0 1-9.29 8.93c-2.68 1.47-10.67 4-16.9 4.47 4.6 2.06 15.02 2.63 20.36 1.93z" fill="#fff"/>
 <path d="m209.96 110.14c-16-8.55-37.57-20.16-57.43-30.7-7 20.23-13.3 48.2-17 76.46a472.92 472.92 0 0 0 72 18.55c27.19-2.6 51.63-5.35 73.17-9.47-0.77-26.12-1.53-56.52-5.5-84.32-21.24 7.79-45.1 18.94-65.24 29.48z" fill="#E8382F"/>
 <path d="m294.42 247.64c-0.15-8.38-2.63-12.6-6.3-13.73-5-1.53-11.92 2.64-13.55 7.26-4.81 13.64-14.39 39.76-19.76 52.55-2.23 5.31-1.13 10.76 1.4 11.8 2.86 1.18 8.69-0.6 14.95-6.29 11.63-10.59 23.64-29.76 23.26-51.59z" fill="#E8382F"/>
 <path d="m181.2 345.61a157.65 157.65 0 0 1-10.69 28.28c-0.84 1.77-1.56 2-4.14 1.85-9.89-0.48-26.69 1.37-32.56 4.74-11.36 6.54-19.38 28.64-20.5 40.68-0.81 8.78 5.45 17.67 13.76 24.1 9.36 7.23 21.31 11.33 28.69 8.63 12.93-4.75 34.26-23.88 34.65-34.49 0.3-8.37-1.53-20.59-5.31-31.52a4.18 4.18 0 0 1 0.73-4.5c6.51-7.28 13.15-17.48 19.18-28.48-0.35-13.5-15.24-17.56-23.81-9.29z" fill="#D7C700"/>
 <path d="m153.59 449.87c-2.17 2.85-9.68 2.6-22.51-7.16-12.06-9.17-15.27-17.92-13.43-20.34s11.31-1.69 22.83 7.08c11.34 8.63 15.31 17.52 13.11 20.42z" fill="#585000"/>
 <path d="m147.96 435.97c-1 14.15-22.64 19.69-32.88 13.29 3.29 0.06 6.6-2.16 7.38-6.86 1.42-8.51 5.29-15.64 11.28-17.45a72.38 72.38 0 0 1 14.22 11.02z" fill="#30363A"/>
 <path d="m187.21 235.28c-8.39-1.55-17.26-3.66-26-6.2a93.23 93.23 0 0 1-6.62-15.08c-0.85 7-1.74 26.19 0 27.83 3.66 3.45 25.55 13.77 38 14.51-1.63-6.83-3.9-15.85-5.38-21.06z" fill="#fff"/>
 <path d="m218.75 236.9c10.37-1.51 22.49-3.74 32.68-6a48.43 48.43 0 0 0 6.63-10.91c1.27 7.77-1.2 24.42-4 26.71-4.37 3.53-28.7 10.61-40.88 9.4 1.89-6.96 3.64-13.47 5.57-19.2z" fill="#fff"/>
 <path d="m225.76 178.17c-10.45-4.45-27.41-5.11-37.35-2.12 1.54 11 7.8 27.82 13.45 36.18 1.57 2.33 2.87 2.85 5.26-0.36 5.7-7.68 14.99-24.41 18.64-33.7z" fill="#D7C700"/>
 <path d="m212.89 190.26c8.78 3 13.15 11 12.29 19.56-1.14 11.36-10.56 18.8-22 18.48-13.52-0.39-20-10-20.22-18.5-0.22-9.5 6.29-17.81 16.89-20.16l0.56 1.6a16.29 16.29 0 0 0-9.24 13.25c-0.66 7.51 3.36 14.76 12.74 15s14.93-6.07 15.27-14.63a14 14 0 0 0-7.18-13z" fill="#fff"/>
 <g fill="#E8382F">
  <path d="m135.49 155.9c0.14 0.89 0.26 1.73 0.4 2.75-42.53-10-88.76-20.2-134.83-29.26 2.08-11.24 9.65-25.26 14.81-30.74 16.78-7.3 56.48-20 69.67-21.07 9.81-0.8 42 5.73 63.53 12.5-5.68 16.68-12.23 53.24-13.58 65.82z"/>
  <path d="m280.63 163.86c40.91-6.64 95.95-15.67 137.24-22.55-1.7-13.14-6.19-24.3-15.26-31.71-10.34-5.26-59.6-20.64-66.74-21.43-6-0.67-40.9 2-59.17 4.83 2.6 23.86 3.26 48.83 3.93 70.86z"/>
  <path d="m135.73 229.91c-2.91-3-6.73-4.27-9.1-3.69-3.53 0.86-6.67 4.25-8.78 10.77-7.84 24.11 0 49.29 20.62 59.16 4.14 2 6.92 2 8.37 1.13s2.47-2.76 3-5.94c-9.88-12.8-17.66-44.61-14.11-61.43z"/>
 </g>
 <path d="m115.02 251.42a32.6 32.6 0 0 0-10.88 0.49c-0.49-2.46-0.93-4.87-1.41-7.35-3.76 9.15-13.44 13-22.46 11.4a21.73 21.73 0 0 1-16.58-13.13c-3.73 14.94-4.6 31.53-1.92 43.25 2.32 10.09 7.51 13.78 19.57 14.81 14.27 1.22 37.82-3 49.24-9.73-11.22-9.15-16.68-23.96-15.56-39.74z" fill="#30363A"/>
 <g fill="#D7C700">
  <path d="m80.27 255.96c9 1.57 18.7-2.25 22.46-11.4-0.46-2.44-1-4.94-1.58-7.63-8.9 5.7-30.06-1.66-30.15-13.56a85.72 85.72 0 0 0-7.31 19.46 21.73 21.73 0 0 0 16.58 13.13z"/>
  <path d="m98.11 202.72 2-4.77c-10.37-5-21.23-2.44-22.56 1.2-5 7.84-7.53 20.63-6 27.3 1 4.34 5.68 8 11.07 10.25 2.77-6.33 4.82-10.73 7.42-16.14q1.48-3.16 3-6.54c-6.56-3.09-9.55-8.2-8.27-10.83 1.24-2.41 6.64-3.41 13.34-0.47z"/>
  <path d="m97.64 216.44c-1.06 2-2.1 4.07-3.06 5.95 8.24 4.54 21.06 2.37 22.67-1.25s-1.93-13.75-11.09-19.29a47.43 47.43 0 0 0-3 4.58c5 3.26 6.55 7 5.59 9-0.79 1.65-5.3 2.83-11.11 1.01z"/>
  <path d="m307.84 214.4c1.88 1.61 3.69 3.19 5.3 4.64-11.38 8.67-22.14 6.8-26 2-3.5-4.42-0.77-14.37 5.78-18.32 1.31 0.87 2.81 2 4.43 3.18-4.93 3.64-5.72 8.33-4.26 10.1 2.66 3.14 10.2 2.42 14.75-1.6z"/>
 </g>
 <g fill="#30363A">
  <path d="m101.85 208.61c2.4 1.1 6 5 5.84 7.86a14.12 14.12 0 0 1-10 0 80.14 80.14 0 0 1 4.16-7.86z"/>
  <path d="m84.41 205.08c1.65-2.37 6.63-2.93 12.5 0.24-1.13 2.74-2 4.83-3.7 8.69-4.98-2.11-7.68-5.17-8.8-8.93z"/>
  <path d="m337.84 235.77c-1.11 7.63-8.06 13.08-15.63 14.87-7.39 1.75-16.05-0.35-20-5.83a57.35 57.35 0 0 0 0 8.29c-2.95 0-5.34 0-8 0.13-1.25 16.41-9.25 30.94-18 40.85 18.67 10.18 59.28 12.83 69.14-2.7 7.26-11.43 4.74-34.06-7.51-55.61z"/>
 </g>
 <g fill="#D7C700">
  <path d="m322.21 250.64c7.57-1.79 14.52-7.24 15.63-14.87a104.6 104.6 0 0 0-9.88-14.46c-0.22 1.28-0.5 2.55-0.83 3.78-1.67 6.07-10.8 11-17.06 10.44a23 23 0 0 1-7.85-3 18.82 18.82 0 0 1 0.53 7.54c-0.22 1.6-0.37 3.16-0.48 4.7 3.89 5.52 12.55 7.62 19.94 5.87z"/>
  <path d="m312.89 210.6c1.94 1.65 3.85 3.17 5.67 4.47 7.89-4.49 9.95-13.67 3.5-18.85-5.78-4.64-16.13-2.4-21.87 2.49 1.29 1.28 2.61 2.59 4 3.89 3.82-3.87 10-4.23 12.29-2.06s1.68 6.43-3.59 10.06z"/>
  <path d="m322.06 196.22c6.57 5.17 7.93 18.3 5 28.87-0.81 2.94-3.37 5.62-6.5 7.54 0.6-4.8 0-10.89-2.05-17.74 4.34-1.32 11.67-11.04 3.55-18.67z"/>
 </g>
 <g fill="#30363A">
  <path d="m299.48 207.93a9.6 9.6 0 0 0-5.41 9c3.05 1.62 8.3 1.46 12.41-1.55-1.84-2.24-4.44-4.89-7-7.45z"/>
  <path d="m305.06 205.01c3.82-4.53 10.14-4 12.37-0.58-0.42 2.49-2.11 4.56-4.54 6.17-1.93-1.52-5.73-4.06-7.83-5.59z"/>
  <path d="m160.23 83.55c14.53 7.74 29.44 15.76 42.07 22.51-7.6-15.84-10.61-38.16-7.67-54.51 1.93-10.73 9.16-29.3 16.64-45.95 2.34-5.21 0.49-5.9-4-3-11.09 7.18-28.94 24.6-40.16 39a9.37 9.37 0 0 0-2 8.32c2.13 12.03 1.41 27.67-4.88 33.63z"/>
  <path d="m234.33 50.82c0.84 16-7.52 42.92-16.1 55.06 13.7-6.93 28.6-13.88 43-19.78-2.87-7.91-1.54-21.34 1.87-32.51 1.43-4.65 1-6.27-0.81-8.9-6.23-9.11-23.53-29.4-34-40.59-3.82-4.1-6.51-3.07-3.92 2.2 4.29 8.78 9.15 29.07 9.96 44.52z"/>
 </g>
 <path d="m202.23 12.82c-0.74 0-0.82 0-1.13-0.7a4.18 4.18 0 0 0-3.28-2.35 232.77 232.77 0 0 0-30.69 31.77 10.64 10.64 0 0 0-1.86 3.38 12.28 12.28 0 0 0 8.47-2c0.67-0.43 1-0.43 1.34 0.38 2 5 6.87 5.18 12.2 2.51 0.71-0.35 1-0.25 1.31 0.43a6.92 6.92 0 0 0 6.3 4c1.8-8.73 6.61-21.86 12.16-35a4.85 4.85 0 0 0-4.82-2.42z" fill="#D7C700"/>
 <path d="m234.33 50.82v0.79a13.28 13.28 0 0 0 3.79-2.87c0.74-0.84 0.89-0.87 1.58 0.07 2.72 3.67 7.37 3.79 10.11 0.07 0.64-0.86 0.81-0.94 1.67-0.53 5.18 2.43 9.08 0.36 10-4.76-5.13-7.26-15.82-20.07-25.07-30.51a2.92 2.92 0 0 0-2 1.65c-0.27 0.61-0.39 0.74-1.06 0.61a5.18 5.18 0 0 0-5 1.58 158.61 158.61 0 0 1 5.98 33.9z" fill="#D7C700"/>
 <path d="m10.48 105.97a20.4 20.4 0 0 1 6.07 1.35 18.31 18.31 0 0 0 4.73 1 20.63 20.63 0 0 1 5.14 1.18 13.7 13.7 0 0 0 4.37 1 17.3 17.3 0 0 1 5 1.24 22.72 22.72 0 0 0 4.77 1.34 18 18 0 0 1 4.82 1.41 6.26 6.26 0 0 1 3.2 2.84 16.69 16.69 0 0 0 2.2 3.43 10.75 10.75 0 0 1 2 3.41 14.76 14.76 0 0 0 2 3.68 12.86 12.86 0 0 1 1.93 3.8 25 25 0 0 0 2.25 4.94c0.45 0.66 0.84 1.21 2 0.51a10.4 10.4 0 0 0 3.2-3.1 9.41 9.41 0 0 1 2.92-2.87 7.42 7.42 0 0 0 2.44-2.32 9.65 9.65 0 0 1 2.81-2.59 10.48 10.48 0 0 0 2.86-2.53 8.43 8.43 0 0 1 3.26-2.72c2.15-0.91 3.82-0.89 5.75 1.63a16.47 16.47 0 0 1 2.24 3.68 14.23 14.23 0 0 0 1.74 3.35 9.46 9.46 0 0 1 1.57 3 10.18 10.18 0 0 0 1.72 3.17 12.2 12.2 0 0 1 1.87 3.55 7.41 7.41 0 0 0 1.45 2.9c0.45 0.54 0.78 0.6 1.5 0.09a13.84 13.84 0 0 0 2.84-2.93 9.73 9.73 0 0 1 2.74-2.53 11.43 11.43 0 0 0 2.71-2.62 8.63 8.63 0 0 1 2.63-2.44 8.6 8.6 0 0 0 2.59-2.47 11 11 0 0 1 2.89-2.6 9.83 9.83 0 0 0 2.69-2.41 8.33 8.33 0 0 1 2.71-2.47 19.41 19.41 0 0 0 4.25-3.89c0.64-0.94 0.83-1.35 0.09-2.29a11.88 11.88 0 0 1-1.82-3.19 9.39 9.39 0 0 0-1.54-3 6.13 6.13 0 0 1-1.29-2.36 10.75 10.75 0 0 0-1.19-2.46c-1-1.6-0.54-3 1.15-4.57a9.58 9.58 0 0 1 3.22-2.17 14.08 14.08 0 0 0 3.46-2.06 8.94 8.94 0 0 1 3-1.84 11.12 11.12 0 0 0 3.19-1.96 11 11 0 0 1 3.55-2 9.64 9.64 0 0 0 3.28-1.83 5.73 5.73 0 0 1 1.52-1.05c3.82 1 6.93 1.74 10.07 2.88-4.07 12.8-12.07 51.05-13.51 65.47l0.37 3.1c-41.13-9.47-108.86-24.31-134.83-29.26 0.9-5.31 5.73-17.82 9.42-23.42z" fill="#333648"/>
 <path d="m286.96 91.41a4.14 4.14 0 0 1 0.79 0.83 8.28 8.28 0 0 0 2.81 2.24 10.66 10.66 0 0 1 3.18 2.6 9.4 9.4 0 0 0 2.74 2.2 9.22 9.22 0 0 1 2.85 2.34 12.52 12.52 0 0 0 3.11 2.6 12.36 12.36 0 0 1 3.17 2.82c1.51 1.74 1.7 3.1 0.83 4.44a14.33 14.33 0 0 0-1.41 2.27 5.64 5.64 0 0 1-1.4 2.17 11.05 11.05 0 0 0-2.06 3 6.87 6.87 0 0 1-1.55 2.42c-0.83 0.86-0.67 1.17 0 1.91a23.7 23.7 0 0 0 3.65 3.43 11.07 11.07 0 0 1 3 2.92 10.84 10.84 0 0 0 2.68 2.64 12.5 12.5 0 0 1 3 2.85 8.9 8.9 0 0 0 2.52 2.63 8.83 8.83 0 0 1 2.6 2.53 9.71 9.71 0 0 0 2.42 2.49 8.41 8.41 0 0 1 2.45 2.45 18.4 18.4 0 0 0 3.79 3.79c0.71 0.54 1.23 0.24 1.74-0.25a8.68 8.68 0 0 0 1.8-3 11.69 11.69 0 0 1 2.13-3.29 14.3 14.3 0 0 0 2.31-3.64 14.28 14.28 0 0 1 2.31-3.4 14.46 14.46 0 0 0 2.06-3.24 10.84 10.84 0 0 1 2.8-3.37c2.41-2 4.28-1.72 6.51-0.39a9.73 9.73 0 0 1 2.92 3.36 7.61 7.61 0 0 0 1.52 2.13 10.53 10.53 0 0 1 2.06 2.85 5.46 5.46 0 0 0 1.58 2.24 9.31 9.31 0 0 1 2.19 3.1 9.45 9.45 0 0 0 2.06 2.87c0.43 0.43 0.72 0.48 1.36-0.27a9.47 9.47 0 0 0 1.71-2.82 13.1 13.1 0 0 1 2.24-3.75 13.23 13.23 0 0 0 2-3.5c0.51-1.07 1.19-3 2.23-3.9s1.73-2.78 2.35-4.19a3 3 0 0 1 2.53-2.24 17.86 17.86 0 0 1 6.1-0.21 14.78 14.78 0 0 0 5.05-0.18c1.35-0.41 3.67-0.19 5.49-0.15a17 17 0 0 0 4.94-0.18c1.5-0.41 4.11-0.15 5.59-0.11a28.32 28.32 0 0 0 5.82-0.18 18.08 18.08 0 0 1 5.49-0.28 67.37 67.37 0 0 1 4.84 18.24c-32.1 5.19-103.38 17-137.24 22.55-0.47-16.16-2.47-57-3.93-70.86 2.27-0.3 6.27-0.84 10.27-1.51z" fill="#333648"/>
 <path d="m146.4 99.22a11.46 11.46 0 0 1-2.46 1.55 11.29 11.29 0 0 0-3.23 2.33 16.18 16.18 0 0 1-3 2.2 9.34 9.34 0 0 0-2.75 2 10.88 10.88 0 0 1-3 2.35 15.58 15.58 0 0 0-3 2.43c-0.81 0.81-1.29 0.54-1.53-0.15a14.91 14.91 0 0 0-1.93-3.41 11.73 11.73 0 0 1-1.75-3c-0.42-1-0.37-1.29 0.51-1.69a12.88 12.88 0 0 0 3.42-2.17 11.71 11.71 0 0 1 3.78-2.29 15.39 15.39 0 0 0 4.18-2.57 11 11 0 0 1 4.1-2.62 10.84 10.84 0 0 0 4.14-2.49 13.47 13.47 0 0 1 3.42-2.14l1.81 0.51c-1.05 2.95-1.85 5.84-2.71 9.16z" fill="#fff"/>
 <path d="m138.96 132.21a17.63 17.63 0 0 1-1.72-3.13 10.93 10.93 0 0 0-1.78-3.31 10.35 10.35 0 0 1-1.84-3.41 12 12 0 0 0-1.84-3.16c-0.75-0.9-0.6-1.26 0.18-1.63a15.13 15.13 0 0 0 3.5-3.08 14.15 14.15 0 0 1 3.28-2.74 12.48 12.48 0 0 0 2.93-2.44 11.83 11.83 0 0 1 2.54-2.14c-1.54 6.73-3.41 16.66-5.25 25.04z" fill="#E8382F"/>
 <path d="m137.59 141.08a22.07 22.07 0 0 0-2.18-3.61 12.88 12.88 0 0 1-2-3.34 16.84 16.84 0 0 0-2-3.56 13.94 13.94 0 0 1-2.23-3.89 13.19 13.19 0 0 0-1.87-3.31c-0.37-0.52-0.88-0.82-1.42-0.19a10.22 10.22 0 0 1-2.17 1.87 8.54 8.54 0 0 0-2.41 2.27 12.17 12.17 0 0 1-3.26 2.89 1.09 1.09 0 0 0-0.61 1.4 0.61 0.61 0 0 0 0.07 0.14 10.8 10.8 0 0 0 1.66 2.89 11.46 11.46 0 0 1 1.77 3.35 9.59 9.59 0 0 0 1.81 3.28 12.33 12.33 0 0 1 2.11 3.8 13.12 13.12 0 0 0 2 3.65 12.81 12.81 0 0 1 2.08 3.89 9.4 9.4 0 0 0 1.66 3 12.16 12.16 0 0 1 1.11 1.79l4.26 1.25-0.4-2.75c0.59-4.7 1.39-10.08 2.02-14.82z" fill="#D7C700"/>
 <g fill="#fff">
  <path d="m123.25 155.54a15.42 15.42 0 0 0-1.77-3.51 11.54 11.54 0 0 1-1.81-3.5 13 13 0 0 0-1.78-3.53 12.39 12.39 0 0 1-1.87-3.47 11.56 11.56 0 0 0-1.75-3.31 8 8 0 0 1-1.2-2.29c-0.18-0.61-0.58-0.85-1.09-0.18a7.59 7.59 0 0 1-2.26 2.11 8.09 8.09 0 0 0-2.53 2.41 14 14 0 0 1-2.84 2.59 14 14 0 0 0-2.65 2.68 9.19 9.19 0 0 1-2.29 2.15 7.88 7.88 0 0 0-2.08 2.07c5.63 1.32 18.48 4.16 25.92 5.78z"/>
  <path d="m63.61 142.31a5.86 5.86 0 0 1 1.35-1.23 9.14 9.14 0 0 0 2.32-2.32 10.6 10.6 0 0 1 2.59-2.41 8 8 0 0 0 2.27-2.11 7.81 7.81 0 0 1 2.35-2.23 10.78 10.78 0 0 0 2.62-2.14 11.23 11.23 0 0 1 2.2-1.87c0.66-0.45 1.12-0.24 1.24 0.3a5.22 5.22 0 0 0 1.11 2.2 9.62 9.62 0 0 1 1.6 3.2 11.08 11.08 0 0 0 1.78 3.55 10 10 0 0 1 1.92 3.83 9.16 9.16 0 0 0 1.72 3.53 13.22 13.22 0 0 1 1.72 3.47c-7.11-1.61-19.51-4.33-26.79-5.77z"/>
  <path d="m16.68 132.49a10.74 10.74 0 0 1 4.07-1.41 26.06 26.06 0 0 0 4.83-1.36 29.22 29.22 0 0 1 5.71-1.09c1.4-0.12 1.36-0.64 1-1.28a6.52 6.52 0 0 0-1.77-2 21.42 21.42 0 0 1-3.46-3.66 14.3 14.3 0 0 0-2.65-3 11.91 11.91 0 0 1-2.57-3.13c-0.57-1-0.4-1.21 0.8-1.09a21.14 21.14 0 0 1 4.71 1 19.56 19.56 0 0 0 4.78 1 19.72 19.72 0 0 1 5.28 1.35 15.5 15.5 0 0 0 4.13 1.06c1 0.12 1.44 0.16 2.09 1.65a26.53 26.53 0 0 0 3.25 5.31 15.15 15.15 0 0 1 2.49 4.78 19.92 19.92 0 0 0 2.38 4.83 22.23 22.23 0 0 1 2.38 4.75c-9.23-1.87-28.91-6.12-37.45-7.71z"/>
 </g>
 <path d="m277.49 109.4a15.15 15.15 0 0 1 3.35 3.43 14.18 14.18 0 0 0 2.89 2.9 15.42 15.42 0 0 1 3.2 3.1 9.73 9.73 0 0 0 2.59 2.72 1.2 1.2 0 0 1 0.64 1.57 1.17 1.17 0 0 1-0.4 0.51 11.37 11.37 0 0 0-2.2 2.86 7.69 7.69 0 0 1-2.11 2.56 11.34 11.34 0 0 0-2.35 2.9 8.29 8.29 0 0 1-2.11 2.56 10.79 10.79 0 0 0-2.2 2.74z" fill="#E8382F"/>
 <path d="m406.41 143.17a14.76 14.76 0 0 1-4.05-0.84 11.26 11.26 0 0 0-3.8-0.79 11.86 11.86 0 0 1-4.14-1 11 11 0 0 0-3.47-0.94 9.65 9.65 0 0 1-3-1c-0.57-0.34-0.57-0.74-0.19-1.08a8.3 8.3 0 0 1 2.54-1.55 9.58 9.58 0 0 0 2.94-1.92 10.63 10.63 0 0 1 3-2 11.7 11.7 0 0 0 2.87-1.84c0.63-0.61 0.55-0.84-0.24-1a25.89 25.89 0 0 0-4.9-0.08 33.19 33.19 0 0 1-5.64 0.07 16.76 16.76 0 0 0-5 0.16 13.22 13.22 0 0 1-4.48 0.13c-1-0.1-1.14 0-1.64 1a16.33 16.33 0 0 1-2.38 4.28 11.62 11.62 0 0 0-2.38 4 16.93 16.93 0 0 1-2.44 4.4 14.78 14.78 0 0 0-2.29 4.22 12.36 12.36 0 0 1-1.26 2.28c14.71-2.36 28.61-4.65 39.95-6.5z" fill="#fff"/>
 <path d="m358.4 151.08a9.47 9.47 0 0 0-1.51-2 8.69 8.69 0 0 1-1.74-2.51 12.36 12.36 0 0 0-2.19-3.09 10 10 0 0 1-2.1-2.9 8.46 8.46 0 0 0-1.89-2.69 7.31 7.31 0 0 1-1.91-2.59 15.2 15.2 0 0 0-1.81-2.54c-0.49-0.55-0.86-0.32-1 0.21a5 5 0 0 1-1.34 2 8.69 8.69 0 0 0-1.92 2.8 11.55 11.55 0 0 1-2.27 3.34 9.33 9.33 0 0 0-2.24 3.52 9.47 9.47 0 0 1-2.14 3.33 14 14 0 0 0-2.41 4 25.76 25.76 0 0 1-2.09 3.78z" fill="#fff"/>
 <path d="m296.58 128.08c-0.47-0.69-0.84-0.63-1.29-0.2a14.79 14.79 0 0 0-2.48 3.3 18.12 18.12 0 0 1-2.69 3.41 16 16 0 0 0-2.5 3.12 15.55 15.55 0 0 1-2.69 3.3 23.57 23.57 0 0 0-3 3.61 17.45 17.45 0 0 1-1.92 2.37c0.3 6.7 0.52 12.65 0.65 16.89l5.06-0.83a17.42 17.42 0 0 1 2.46-3.08 12.86 12.86 0 0 0 2.28-3 13 13 0 0 1 2.49-3.64 12.9 12.9 0 0 0 2.34-3.42 12.08 12.08 0 0 1 2.5-3.55 9.85 9.85 0 0 0 2.13-3.2 11.69 11.69 0 0 1 2.13-3.2 12.37 12.37 0 0 0 2-3 1.25 1.25 0 0 0-0.36-1.73 7.86 7.86 0 0 1-2.44-2.53 10.25 10.25 0 0 0-2.55-2.58 11.31 11.31 0 0 1-2.12-2.04z" fill="#D7C700"/>
 <path d="m276.7 93c0.22 2.12 0.46 4.86 0.7 8a11.16 11.16 0 0 0 2.57 2.47 11.83 11.83 0 0 1 2.79 2.77 15.69 15.69 0 0 0 2.69 2.65 15.47 15.47 0 0 1 2.52 2.4 12.32 12.32 0 0 0 2.65 2.55 14.32 14.32 0 0 1 2.87 2.79c0.67 0.94 0.8 0.87 1.35 0.38a7.43 7.43 0 0 0 1.55-2.13 8 8 0 0 1 1.56-2 6.69 6.69 0 0 0 1.55-1.92c0.5-1 0.39-1.12-0.42-1.66a12.87 12.87 0 0 1-3-2.7 12.31 12.31 0 0 0-3.31-3 14.24 14.24 0 0 1-3.6-3.14 13 13 0 0 0-3.76-3.23 12.48 12.48 0 0 1-3.68-3.15 10.6 10.6 0 0 0-2-1.9l-3.11 0.61z" fill="#fff"/>
 <path d="m301.37 153.15a11 11 0 0 1-2.15 3.12 8.5 8.5 0 0 0-2.25 3.23 6.72 6.72 0 0 1-1.16 1.87c8.81-1.44 18.79-3.09 29.27-4.82a15.33 15.33 0 0 0-2.5-2.59 7.27 7.27 0 0 1-2.26-2.42 8.89 8.89 0 0 0-2.59-2.63 7.21 7.21 0 0 1-2.43-2.45 8.77 8.77 0 0 0-2.67-2.51 8.64 8.64 0 0 1-2.28-2.15c-0.44-0.71-0.85-0.51-1.1 0.07a8.18 8.18 0 0 1-1.44 2.15 11.24 11.24 0 0 0-2.1 3.1 10.71 10.71 0 0 1-2.17 3 11.82 11.82 0 0 0-2.17 3.03z" fill="#fff"/>
 <g fill="#222327">
  <path d="m103.78 205.01c-3.82 4.5-10.88 13.07-14.82 17.87l-3 6.56a138.56 138.56 0 0 0 11.62-13.19c2.05-3.88 3.9-7.3 6.2-11.24z"/>
  <path d="m192.65 192.49a91.17 91.17 0 0 1-4.24-16.41 57.41 57.41 0 0 1 18.32-1.74c-10.24-1.76-20.37-3.92-30.31-6.38-7 5-14.69 13.52-21.5 23.08 0.68 0.58 1.41 1.13 2.17 1.67 1.92-2.5 4-5 6.19-7.49 3.73 4.17 10 9.72 11.47 9.62 1.91-0.13 9.49-3.27 14.4-5.57a32.88 32.88 0 0 1-12 12c2.25 0.57 4.59 1.07 7 1.5a19.9 19.9 0 0 1 8.5-10.28z"/>
  <path d="m242.44 170.75c-10.92 1.32-22.39 2.5-34.4 3.65a56.37 56.37 0 0 1 17.72 3.77 150.87 150.87 0 0 1-7.27 15.11 17.56 17.56 0 0 1 6.25 9.87c1.75-0.28 3.49-0.58 5.2-0.93a52.26 52.26 0 0 1-6.6-11.93c4.54 4 11.76 8.08 14.48 8 2.49 0 8.78-4.16 13.64-9 0.9 1.3 1.79 2.6 2.63 3.89 1.26-0.78 2.5-1.58 3.66-2.43-4.86-8.46-10.18-15.67-15.31-20z"/>
  <path d="m312.89 210.6c-2.1-1.6-5.31-3.9-7.77-5.49 1.75 4.21 2.95 7.29 4.28 10.79 1.13 1 2.6 2.1 3.58 3 0.79 1.25 1.67 2.71 2.38 3.91-0.81-4.22-1.79-9.28-2.47-12.21z"/>
  <path d="m197.47 204.35c-1.16-2.45-2.29-5.09-3.34-7.82a16.22 16.22 0 0 0-2.86 7.26q3.06 0.35 6.2 0.56z"/>
  <path d="m212.06 204.45c2.39-0.12 4.77-0.33 7.14-0.58a14.44 14.44 0 0 0-2.36-7.59c-1.58 2.8-3.21 5.63-4.78 8.17z"/>
  <path d="m165.51 50.89c2.25 14.85 13.45 32.28 29.52 30.38 1.27 10 4 20.35 8.08 25.57-11.55-6.57-31.32-17.24-43-23.46 5.29-5.6 6.85-11.3 5.4-32.49z"/>
  <path d="m263.06 52.85c-5.69 18.55-23.28 31.5-34 29.14-2.63 7.7-5.95 16.18-10.77 23.88 11.82-5.77 30.37-14.87 43-19.77-3.48-7.53-1.33-21.62 1.77-33.25z"/>
  <path d="m62.69 247.69c-0.84 31.05 18.16 41.43 55.8 27a41.94 41.94 0 0 0 12 16.44c-12 7.7-51.88 15.54-63.59 4.9-9.32-8.48-7.36-38.11-4.21-48.34z"/>
  <path d="m287.2 277.42c23.71 12.88 63.78 8.08 59-19.58 5.79 16.93 2.66 32.34-4.75 37.82-15.36 11.34-51.8 6.46-65.31-1.49a76 76 0 0 0 11.06-16.75z"/>
  <path d="m297.84 253.28c0.36 5 6.85 18.54 12.92 21.86-4.41-5.34-8.59-14.5-8.74-21.94a38.88 38.88 0 0 0-4.18 0.08z"/>
  <path d="m205.33 354.78a312.62 312.62 0 0 0 15.22-33.13c1.21-3.19 2.24-4.49 5.62-6.09 9.34-4.4 21.53-11.21 27.69-18.65a15.59 15.59 0 0 1 0.95-3.19c4.91-11.7 13.35-34.55 18.43-48.8-20.07 16.27-61.3 21.77-72.72 21.25-14-0.65-46.06-8.79-65.56-22.53 0.74 14.3 5.13 33.95 14.05 46.56 5.86 8.3 19.73 18.62 30 23.32 3.5 1.59 5 3.06 5.34 7.11a34.25 34.25 0 0 1 16.38 1.45c3.6 1.25 5.14 3.66 3.94 8.17-1.27 4.75-2.71 9.46-4.3 14a17 17 0 0 1 4.96 10.53z"/>
  <path d="m123.7 437.85c1.38 4.22 1.64 9.47-2.58 13.52 8.18 2.15 25.32-1.9 26.78-15.25a65.18 65.18 0 0 0-14.46-11.19c-4.31 1.2-9.05 7.49-9.74 12.92z"/>
 </g>
 <path d="m137.75 168.89c11.73 3.06 19.93 4.67 30.13 6.49a67.24 67.24 0 0 1 8.54-7.45c-14.14-3.49-27.88-7.59-40.93-12 0.14 0.89 0.26 1.73 0.4 2.75-33.09-7.8-68.41-15.7-104.16-23.1-0.53 1.85-1.05 4.15-1.52 5.95 32.77 6.21 74.42 15.54 107 24.18 0.17 1.04 0.32 1.98 0.54 3.18z" fill="#7E0F07"/>
 <path d="m388.96 146.08c-35.87 5.93-76.38 12.56-108.28 17.74v1.12c-11.87 2.27-24.62 4.13-38.22 5.77a51 51 0 0 1 6.69 7.09c11.17-1.4 23.4-3.16 33.56-4.76-0.05-1-0.16-2.35-0.29-3.54 38.17-6.68 76.44-13.76 107.47-18.26-0.28-1.49-0.63-3.29-0.93-5.16z" fill="#7E0F07"/>
 <g fill="#dcdddd">
  <path d="m187.58 180.85c-2.6-4.28-5.14-8.12-7.26-11.32a57.34 57.34 0 0 0-6.27 4.82 87.16 87.16 0 0 1 13.53 6.5z"/>
  <path d="m225.44 182.6c3-3.92 8-7.94 12-10.76a31.6 31.6 0 0 1 6 5.55 132.28 132.28 0 0 0-18 5.21z"/>
  <path d="m183.75 209.08c3.6 20.92 34.23 21.72 40.73 1.3-1.1 13-11.9 18.32-20.91 17.92-12.72-0.57-20.38-7.65-19.82-19.22z"/>
 </g>
 <path d="m147.67 92.94c-9.13 20.73-14.34 42.14-17.71 64.53l5.73 1.17-0.26-2.73c1.81-14.6 8.59-49.41 12.24-62.97z" opacity=".137" style="mix-blend-mode:normal"/>
 <path d="m277.81 96.27c4.73 20.35 6.9 45.78 8.6 66.72l-6 0.87c-0.64-18.61-0.85-37.78-2.6-67.59z" opacity=".137" style="mix-blend-mode:normal"/>
 <g fill="#AFA300">
  <path d="m312.89 210.6c1 3.9 1.89 8.76 2.6 12.36 1.55 3.14 3.59 7 4.86 9.62 0.74-4.28-0.07-12.63-1.69-17.49-1.97-1.46-3.24-2.47-5.77-4.49z"/>
  <path d="m299.48 207.93-2.17-2.3c-5.73 4.18-5.83 9.36-3.24 11.27a9.6 9.6 0 0 1 5.41-8.97z"/>
  <path d="m305.06 205.01-1-2.72c5.87-5.05 14.81-3.89 13.35 2.14-2.21-3.35-8.53-3.95-12.35 0.58z"/>
  <path d="m304.15 202.6-4.19-3.71c2.14 4.7 5.45 12.8 6.93 16.2l0.91-0.69 1.49 1.3c-1.71-4.4-3.39-8.98-5.14-13.1z"/>
  <path d="m94.58 222.39c-2.38 3.15-8.09 10.26-11.92 14.31 5.5 2.28 11.73 3 15.54 1.49 6.35-2.62 17.5-12 19.05-17.05-1.61 3.62-14.43 5.79-22.67 1.25z"/>
  <path d="m84.58 204.94c2.22-2.7 6.38-2.66 12.44 0.58l1.09-2.8c-7.43-3.2-13.33-2.24-13.53 2.22z"/>
  <path d="m102.96 206.39-1.09 2.22c3.78 2.06 5.75 5.7 5.84 7.86 2.73-0.97 1.51-6.25-4.75-10.08z"/>
  <path d="m97.12 217.08c-2.84 3.46-8 9.18-11.68 13.1l-2.27 5.55a97.16 97.16 0 0 0 11.41-13.32z"/>
  <path d="m287.18 221.01c4.37 5.44 17 14 22.86 14.52 3.23 0.31 7.22-0.86 10.56-2.9-2-4-4.6-8.72-7.62-13.71-7.11 6.58-19.78 8.79-25.8 2.09z"/>
  <path d="m188.41 176.08c1.13 8.09 4.79 19.24 8.89 27.92 3-2.87 6.83-4.74 7.85-4.74 0.79 0 4.15 2.62 6.41 6 5.27-8.44 11.39-20 14.2-27.09-10.45-4.45-27.41-5.09-37.35-2.09z"/>
  <path d="m83.64 237.34c5.32 7.42 16.32 9.74 18.54 3.82l-1-4.57c-3.58 2.49-8.47 3.82-17.54 0.75z"/>
  <path d="m302.59 239.08c1.52 2.94 9.94 3.84 17.29-5.65-7.46 3.22-12.6 2.32-17.46-0.85a21.15 21.15 0 0 1 0.17 6.5z"/>
  <path d="m181.16 388.46c3.38 9.95 6 23.87 4.67 31.34-0.85 4.61-11.94 13.33-23 17.17-4.7 1.62-6.17 0.92-8.86-2-16.54-18.23-36.92-23.3-40.87-14.4-0.79 6.53 3.12 15.46 9.64 20.58a18.87 18.87 0 0 1 1.22-5.07c-6.7-6.21-7.72-12.51-6.33-13.87 2.84-2.77 13-0.24 22.31 6.75 11.76 8.86 16.56 18 13.09 21.23-2.54 2.35-8.63 0.72-13.33-2a30.61 30.61 0 0 1-4.36 2.09c3.74 2.94 12.4 4.85 17.36 4.34 9-0.94 35.84-21.64 37.47-33.93 1.08-8.2-2.05-23.39-4.83-32.32-0.88-2.85-0.91-3.65 1-5.54 6.52-6.58 13.19-17.15 19-28-0.62-4.88-2.7-8.51-5-10.49-4.9 14.09-10.2 23.25-17.76 33.86-2.96 4.15-3.04 5.48-1.42 10.26z"/>
 </g>
 <path d="m181.67 192.59a21.31 21.31 0 0 0 1.43-3.86c1.71-6.17 0.53-9.62-1.16-10.09-1.86-0.52-4.69 1.42-6.46 7.82-1.09 4-1.07 6.66-0.39 8.25a37.12 37.12 0 0 0 6.58-2.12z" fill="#68A299"/>
 <path d="m230.96 195.59a17.88 17.88 0 0 1-1-3.95c-0.89-6.35 1.24-10 3-10.25 1.91-0.27 4.57 2.27 5.55 8.84 0.56 3.84-0.06 6.55-1 8.07a31 31 0 0 1-6.55-2.71z" fill="#68A299"/>
 <path d="m234.46 194.2a2 2 0 0 0-1.55 2.13 31.69 31.69 0 0 0 3 1.24c1.05-1.35 0.21-3.57-1.45-3.37z" fill="#dcdddd"/>
 <path d="m179.42 190.66c-1.66-0.43-3.05 2-2.06 3.47 1.09-0.32 2.24-0.72 3.32-1.14a2 2 0 0 0-1.26-2.33z" fill="#dcdddd"/>
 <g fill="#AFA300">
  <path d="m175.48 186.46c-0.13 0.48-0.25 1-0.35 1.4 1.15-0.26 2.26-0.53 3.46-0.92l0.29-0.81a30.85 30.85 0 0 1-2.78-1.61c-0.21 0.56-0.42 1.24-0.62 1.94z"/>
  <path d="m183.86 185.68c-1 0.2-1.84 0.53-2.8 0.65l-0.18 1.2c0.65 0.46 1.28 0.88 2.09 1.39 0.18-0.77 0.8-2.57 0.89-3.24z"/>
  <path d="m237.96 187.78a27.59 27.59 0 0 1-3.13 1.31l0.23 1.11c1.39 0.38 2.26 0.6 3.53 0.93-0.14-0.97-0.4-2.41-0.63-3.35z"/>
  <path d="m232.83 189.4c-1.12-0.34-2.11-0.63-3.17-1a24.83 24.83 0 0 0 0.3 3.44c1-0.51 1.78-1 2.83-1.55z"/>
 </g>
 <g fill="#C92E27">
  <path d="m189.15 189.24c-4.91 2.3-12.49 5.44-14.4 5.57-1.48 0.1-7.74-5.45-11.47-9.62-2.17 2.45-4.27 5-6.19 7.49 5.16 3.68 12.11 6.56 20 8.57a32.69 32.69 0 0 0 12.06-12.01z"/>
  <path d="m251.46 189.3c-4.86 4.86-11.15 9-13.64 9-2.72 0-9.94-4.06-14.48-8a52.26 52.26 0 0 0 6.6 11.93 76.76 76.76 0 0 0 24.15-9c-0.84-1.33-1.73-2.63-2.63-3.93z"/>
  <path d="m117.52 271.93c10.82 13.7 22 11.63 22.1-1.32 2.57 7.16 6.31 16.11 10.28 20.93-0.64 6.07-4.21 8.08-11.83 4.6-8.18-3.74-17.52-13.62-20.55-24.21z"/>
  <path d="m261.96 275.97c2 9.49 12.86 12.3 25.76 1.3-5.66 11.4-14 20.73-21.18 25.63-10.52 7.22-16.07 0.63-11.41-9.88 2.49-5.63 4.98-12.22 6.83-17.05z"/>
 </g>
 <path d="m184.96 200.96a4.88 4.88 0 0 1 6.33 2.41c0.72-5.49 5.5-10.54 9.17-12.13l-0.56-1.6c-5.57 0.44-12.08 5.23-14.94 11.32z" fill="#dcdddd"/>
 <path d="m219.05 203.69a13.66 13.66 0 0 0-7-11.85l0.81-1.58c4.93 1.25 10 6.39 11.69 11.64-1.76-1.56-5.02 0.04-5.5 1.79z" fill="#dcdddd"/>
 <path d="m200.43 191.53c1.9 6 1.68 9.11 0.22 9.57-1.62 0.5-4-2.37-5.82-8.27-1.69-5.38-1.17-9.09 0.21-9.35s3.52 2.08 5.39 8.05z" fill="#0d131a"/>
 <path d="m212.08 191.84c-2.53 5.17-2.94 9.1-1.84 9.64s3.52-1.68 6.54-7.87c2.57-5.25 2.84-8.75 1.75-9.13s-3.3 0.9-6.45 7.36z" fill="#0d131a"/>
 <g>
  <path d="m278.03 107.63c16.33-1.81 32.29-3.3 48.11-4.39 3.84-0.27 3.94 0.89 0.1 1.22-15.84 1.36-31.92 3-48 4.73z" opacity=".397" style="mix-blend-mode:normal"/>
  <path d="m279.66 135.08c18.68-2.44 39.36-5 59.64-7.1 3.74-0.38 3.86 0.78 0.12 1.21-20.16 2.3-41.14 4.89-59.7 7.46z" opacity=".397" style="mix-blend-mode:normal"/>
  <path d="m279.6 134.18c-1.81 0.41-3.39 0.74-5.38 1.17-2.95 0.62-3.39-0.34-0.23-1.18 2.16-0.57 3.73-0.92 5.57-1.39z" opacity=".397" style="mix-blend-mode:normal"/>
  <path d="m277.62 103.14c-7.31 2.48-14 4.83-21.28 7.48-4.06 1.48-4.66 0.48-0.41-1.16 7.2-2.78 14.19-5.3 21.61-7.8z" opacity=".397" style="mix-blend-mode:normal"/>
  <path d="m145.38 103.49c9.56 3.25 20.91 7.75 33.29 13.15 3.75 1.64 3.12 2.65-0.46 1.16-12.4-5.19-23.74-9.57-33.2-12.78z" opacity=".397" style="mix-blend-mode:normal"/>
  <path d="m139.67 129.66c8.66 2.41 20.23 6 32.88 10.16 4.57 1.51 3.94 2.57-0.41 1.18-12.64-4-24.06-7.45-32.79-9.81z" opacity=".397" style="mix-blend-mode:normal"/>
  <path d="m139.2 132.79c-6.47-1.89-13.43-3.79-21.46-5.83-3.15-0.79-3-1.92 0.21-1.17 8 1.88 15.06 3.72 21.53 5.62z" opacity=".397" style="mix-blend-mode:normal"/>
  <path d="m144.27 108.08c-6.44-1.83-13.76-3.48-22.67-5.64-3.26-0.78-3-1.91 0.24-1.2 8.92 1.91 16.24 3.7 22.75 5.42z" opacity=".397" style="mix-blend-mode:normal"/>
 </g>
 <path d="m280.28 166.18c-22.1 4.17-47.61 6.83-71.42 9.12a8 8 0 0 1-2.81-0.1 479 479 0 0 1-70.57-18c-1.15-0.39-1.29-0.74-1.14-1.82 3.66-27.42 10.07-55.6 17-75.84 0.42-1.21 0.91-1.33 2.15-0.67 19.13 10.1 40.8 21.87 56.43 30.18 22.45-11.72 45.5-22.14 64.35-29.13 1.31-0.49 1.8-0.21 2 1.23 3.65 26.24 4.69 58.16 5.46 83.27 0.03 1.19-0.18 1.52-1.45 1.76zm-0.84-2.24c-0.74-25.4-1.42-55.19-5.16-81.78a568.89 568.89 0 0 0-63.48 28.69 1.41 1.41 0 0 1-1.64 0c-16-8.57-37.4-20-56.08-29.9-7 20.3-12.75 46.54-16.4 74.18a464.77 464.77 0 0 0 70.8 18.42c24.37-2.37 49.38-5.31 71.96-9.61z" fill="#0d131a"/>
 <path d="m207.79 131.4c-5.45-2.74-10.59-5.2-16.87-8-3.27-1.49-2.83-2.51 0.48-1.12 6.25 2.62 11.45 5 16.95 7.66 9.72-4.86 20.25-9.6 32.57-14.59 3.36-1.35 3.77-0.21 0.41 1.18-12.13 5-22.78 9.92-32.18 14.81a1.24 1.24 0 0 1-1.36 0.06z" opacity=".397" style="mix-blend-mode:normal"/>
 <path d="m206.96 152.97c-5.89-2.2-11.71-4.3-18.82-6.7-3.27-1.09-2.91-2.21 0.37-1.17 7.35 2.32 12.92 4.31 19.18 6.46 18-5.58 35.86-10.41 57.14-15.26 4.91-1.12 5.13-0.05 0.26 1.17-21.24 5.31-39 10-56.82 15.55a1.75 1.75 0 0 1-1.31-0.05z" opacity=".397" style="mix-blend-mode:normal"/>
 <path d="m206.34 174.46c-0.22-20.47 0.66-44.57 2.41-64.39l2.25 0.06c-1.75 19.79-2.65 43.86-2.43 64.3z" fill="#0d131a"/>
 <path d="m341.62 103.3c-4.09 0.24-4.16-0.91-0.06-1.22 14.54-1.13 24.86-1.76 35.28-2.11l3.68 1.41c-13.44 0.42-23.81 1.02-38.9 1.92z" opacity=".397" style="mix-blend-mode:normal"/>
 <path d="m412.62 122.64c-16.84 1-36.54 2.8-60.11 5.14-4.47 0.44-4.48-0.71-0.1-1.19 22.79-2.51 43.42-4.43 59.55-5.51z" opacity=".397" style="mix-blend-mode:normal"/>
 <path d="m280.63 162.8c42.08-6.83 96.09-15.71 136-22.36-1.84-13.53-6.81-23.43-14.7-29.9-10.17-5.15-58.84-20.18-66.25-21-5.93-0.66-39.27 1.85-58.94 4.52l-0.21-2.14c18.75-3.11 53.46-5.62 59.43-5 7.36 0.81 55.55 16.12 66.64 21.5a3.61 3.61 0 0 1 1 0.68c8.27 7 13.07 16.71 15.15 31.41 0.17 1.2 0.1 1.62-1.17 1.83-40 6.66-95 15.75-137 22.56z" fill="#0d131a"/>
 <path d="m49.04 86.65c17 2.89 40.23 7.39 61.21 12 4.06 0.9 3.55 2-0.28 1.19-21.01-4.31-43.77-8.66-64.01-12.18z" opacity=".397" style="mix-blend-mode:normal"/>
 <path d="m10.39 105.95c20.82 2.85 44.21 6.76 61.57 10.13 3.37 0.65 3.15 1.81-0.21 1.21-17.27-3.1-40.48-6.87-62.06-9.79z" opacity=".397" style="mix-blend-mode:normal"/>
 <g fill="#0d131a">
  <path d="m136.61 156.16c0.09 0.58 0.23 1.48 0.35 2.28 0.19 1.28-0.24 1.51-1.77 1.15-49.59-11.68-92-20.84-134-29-1.18-0.23-1.33-0.67-1.1-1.75 2.32-11.1 9.53-24.82 14.78-30.63a2 2 0 0 1 0.86-0.62c16.66-7.18 56.38-20.13 69.76-21.22 9.52-0.78 41.78 5.53 63.9 12.74l-0.58 2.07c-22-6.7-53.74-13-63.17-12.22-13.41 1.03-52.68 13.46-69.08 20.58-5.07 5.45-12.29 18.94-14.31 29 41.28 8.16 84.91 17.54 132.25 28.69-0.08-0.37-0.14-0.74-0.2-1.14z"/>
  <path d="m167.12 176.08c-9.57-1.64-17.77-3.25-29.13-6.19-0.93-0.24-1.09-0.52-1.24-1.36s-0.24-1.45-0.35-2.14c-31.93-8.31-72.13-17.31-105.94-23.89-1.22-0.24-1.33-0.55-1.07-1.57 0.41-1.65 1.14-4.55 1.43-5.55l1.81 0.33c-0.34 1.17-0.94 3.76-1.27 5.09 33.48 6.49 73.11 15.28 105.6 23.87 0.91 0.24 1.05 0.43 1.19 1.23s0.28 1.48 0.42 2.29c11.8 3.07 20 4.7 30 6.47z"/>
  <path d="m283.36 170.27c0.08 0.8 0.16 1.6 0.21 2.31 0.07 1-0.13 1.27-1.24 1.44-10.77 1.68-22.59 3.31-32.65 4.57l-1.22-1.51c10.31-1.29 22.14-3 33.22-4.77 0-0.68-0.1-1.46-0.17-2.25-0.1-1 0-1.3 1.17-1.5 29.64-5.23 82.39-14.57 106.12-18-0.17-1-0.59-3.22-0.8-4.3l1.79-0.27c0.21 1.11 0.68 3.55 0.92 4.94 0.16 0.91-0.06 1.2-1 1.33-24.35 3.52-76.93 12.82-106.35 18.01z"/>
  <path d="m136.2 449.91c7.23 3.62 14.37 4.88 19.24 3.09 13.3-4.89 33.58-24 33.93-33.67 0.32-8.82-1.58-21-5.11-31.2a4.68 4.68 0 0 1 0.94-5.27c13.65-15.16 27.08-42.57 34.36-61.53 1.31-3.4 2.66-5.06 6.19-6.73 8-3.76 22.11-11.46 28.36-19.56l-0.47 3.72c-6.82 7.72-19.47 14.18-27.07 17.77-3.53 1.67-4 2.54-5.15 5.52-7.25 19-20.72 46.38-34.94 61.85-1.16 1.26-1.14 2.18-0.56 3.79 3.78 10.38 5.82 22.86 5.5 31.8-0.42 11.65-23.13 30.8-35.44 35.32-5.39 2-13.84 0.47-22.22-4z"/>
  <path d="m122.45 442.56c-6.76-6.48-10.79-14.36-10.13-21.48 1.23-13.27 9.81-35.11 21-41.53 5.8-3.33 22.67-5.17 33.12-4.67 2.49 0.12 2.82-0.29 3.34-1.38 8.92-18.69 12.94-33.62 13.58-48.78 0.3-7-0.58-8.32-4.79-10.24-9.87-4.51-24.15-14.71-30.46-23.64-11.57-16.28-15.78-44.06-14.15-57.76 2.38-19.86 24.51-53.17 41.23-65.42l2.36 0.63c-18.27 13.06-39.15 47.1-41.3 65-1.5 12.55 2.37 40.33 13.6 56.23 6.31 8.92 19.62 18.53 29.52 23.05 5.21 2.38 6.27 4.94 6 12.21-0.65 15.66-5.06 30.92-14.13 49.49-1 2.07-2.14 2.48-4.89 2.35-10.29-0.5-26.37 1.46-32 4.7-11 6.31-19 28.25-20.08 39.88-0.56 6 2.57 12.9 8.54 19z"/>
  <path d="m123.45 437.24c-6.59-6.92-8.41-13-6.57-15.38 2.12-2.79 12-2.41 24.21 6.9 11.41 8.69 15.84 18.06 13.11 21.65-2 2.68-7.46 2.83-15.61-1.62l1.7-1.14c7.15 3.76 11.32 3.38 12.61 1.67 1.78-2.33-1.88-10.68-13.06-19.19-11.56-8.79-20.25-8.88-21.5-7.25-1 1.32 0.41 6.37 6 12.51z"/>
  <path d="m190.41 415.94c-10-25-37.71-39.31-60.7-32.08l3.54-3.38c22-6.09 47.83 9.33 57.08 29.59z"/>
  <path d="m187.6 397.08c-7.64-11.9-22.92-19.86-38.19-20.5l9.4-1.05c11.26 1.29 21.23 8 27.42 15.6z"/>
  <path d="m197.63 367.47c-0.68-10.7-12.89-14.65-20.37-8.95l0.68-2.22c8-5 19.7-0.59 20.93 9.44z"/>
  <path d="m204.29 356.2c0.13-14.2-14.91-18.21-23.39-9.37l0.46-2.33c8.95-8.08 23.51-3.54 24.32 9.26z"/>
  <path d="m157.85 434.91a138.23 138.23 0 0 0 7.22-13.94 111.54 111.54 0 0 0-13.07 7l-0.39-2.35c4.91-2.6 8.23-4.16 13.65-6.45 2.22-0.93 2.52-0.86 1.62 1.43a139.76 139.76 0 0 1-6.59 14.48z"/>
  <path d="m138.74 418.34a101.88 101.88 0 0 0 4.52-14.5 100.84 100.84 0 0 0-9.93 11.62l-1.17-2.12a90.91 90.91 0 0 1 11.49-12.05c1.71-1.54 2-1.53 1.58 0.83a105 105 0 0 1-3.91 15.72z"/>
  <path d="m255.81 306.28c-3.36-1.39-4-7.81-1.88-12.93 5.29-12.61 14.72-38.27 19.73-52.49 1.82-5.14 9.36-9.42 14.75-7.76 3.36 1 6.72 4.47 6.93 14.56 0.47 22.76-12.12 41.81-23.59 52.25-6.65 6.05-12.79 7.66-15.94 6.37zm19.53-64.77c-5 14.6-14.1 39.61-19.74 52.58-2.16 5-0.95 9.84 1 10.65 2.17 0.89 7.22-0.13 14-6.26 11.32-10.31 23.33-29.4 23-50.83-0.15-8-2.43-11.89-5.66-12.89-4.57-1.39-11.16 2.54-12.6 6.75z"/>
  <path d="m290.56 269.29c0.89-10.23-2.62-17.25-5.67-18.37s-9.73 0.75-15.49 4.73l0.69-2.29c5.06-3.24 11.65-5.35 15.44-3.95 3.34 1.24 6.62 7.23 6.67 16.1z"/>
  <path d="m270.01 300.27c-4.13 1.47-8.22 1.71-10.37 0.63s-3.49-5.2-3.62-10.52l1.52-2.85c-0.31 6.69 1.42 11.22 2.9 12 1.83 0.91 5.9 1.12 11.9-1.57z"/>
  <path d="m274.35 240.86c-2.89-23.65-18.82-57.91-33.31-69.91l2.58-0.36c14 12.12 29.66 44.23 32.73 67.73z"/>
  <path d="m150.57 292.19c-0.56 3.09-1.47 4.69-3.32 5.82-2 1.25-4.9 1-9.21-1.06-21.3-10.18-29-35.85-21.11-60.25 2.2-6.76 5.53-10.36 9.44-11.32 2.58-0.62 6.64 0.63 9.61 3.51l-0.46 2c-3.31-3.55-7-4.25-8.72-3.83-3.18 0.77-6.09 4-8.12 10.22-7.72 23.8 0.28 48.5 20.28 58 4.32 2.07 6.35 1.88 7.5 1.18 1.56-1 2.42-2.88 2.64-6.18z"/>
  <path d="m115.7 245.08c2-4 5.39-7.39 8.69-7.67 3-0.22 7.65 2.45 10.64 6.18v2.38c-3.23-4.48-8-7.13-10.52-6.93-3.11 0.26-7.25 4.62-9.25 11.19z"/>
  <path d="m145.58 284.49c-0.33 5.21-1.84 8.21-4.22 9.34-1.68 0.8-4.55 0.71-7.75-0.31l-3.26-2.72c4.55 2.29 8.64 2.36 10.36 1.54 2-0.95 3.4-4.76 3.51-10.26z"/>
  <path d="m217.35 197.34a151.18 151.18 0 0 1-9.67 15.11c-2.53 3.35-4.28 3.55-6.53 0.31a79.62 79.62 0 0 1-7.64-15l1.28-2a79.94 79.94 0 0 0 7.71 16c1.5 2.2 2.14 2 4-0.46a142 142 0 0 0 9.68-15.7z"/>
  <path d="m217.71 192.74a150.63 150.63 0 0 0 6.66-14c-9.89-3.85-25.81-4.28-34.93-2a100.33 100.33 0 0 0 4 15.25l-1.74 0.93a90.16 90.16 0 0 1-4.25-16.39c-0.15-1.07 0-1.27 1-1.55 9.88-2.73 26-2.42 37.1 2 1.23 0.49 1.43 0.86 0.87 2.22a152.48 152.48 0 0 1-7.15 14.65z"/>
  <path d="m209.54 180.73c-2.36 0-2.38-1 0-1.09a106.48 106.48 0 0 0 15.6-2.08l0.47 1.37a85.15 85.15 0 0 1-16.07 1.8z"/>
  <path d="m189.33 175.61a89.65 89.65 0 0 0 14.42 3.67c2.72 0.45 2.54 1.37-0.14 1.08a70.13 70.13 0 0 1-15.19-3.53z"/>
  <path d="m206.96 182.95c-0.87 8.41-1.76 18.86-2.18 27-0.14 2.73-1 2.72-1 0 0.14-8.09 1-18.71 2-27 0.35-2.87 1.52-2.87 1.18 0z"/>
  <path d="m196.06 194.18c1.79 5 3.56 6.62 4.42 6.35s1.07-2.92-0.77-8.78c-1.93-6.15-3.81-7.88-4.55-7.67s-1 3.06 0 7.07l-1.39 0.62c-1.29-5-0.63-8.54 1.2-8.9s4.35 2.48 6.23 8.45c2.18 6.94 1.47 9.8-0.33 10.37s-4-1.37-5.84-6.1z"/>
  <path d="m216.71 192c1.89-4.25 2-6.73 1.59-6.94-0.61-0.3-2.32 0.54-5.55 7.14-2.68 5.48-2.77 8.45-2.23 8.72 0.32 0.15 1.79-0.24 4.94-6.35l1 1.24c-3.14 5.82-5.34 6.78-6.48 6.22-1.64-0.8-1.17-5.25 1.43-10.58 3.29-6.71 5.92-8.17 7.34-7.55 1.61 0.7 1.35 4.09-0.79 8.89z"/>
  <path d="m200.57 192.01a15.61 15.61 0 0 0-8.55 12.57c-0.62 7 3.4 13.77 11.93 14 8 0.19 14-5 14.32-13.76 0.2-5-2.21-10-6.55-12.27l0.59-1.35a15 15 0 0 1 7.75 13.69c-0.38 9.53-6.9 15.73-16.16 15.55s-14.48-7.15-13.7-16a17.33 17.33 0 0 1 9.92-13.83z"/>
  <path d="m213.28 189.58a19 19 0 0 1 12.78 20.4c-1.34 13.3-12.71 19.57-22.85 19.26-12.79-0.36-21-9-21.21-19.43-0.24-10.09 7-18.51 17.55-20.9l0.49 1.47c-9.75 2.17-16.4 9.62-16.17 19.42 0.18 7.76 6.17 17.19 19.37 17.57 11.09 0.33 19.95-7 21-17.65 0.85-8.41-3.35-15.94-11.75-18.79z"/>
  <path d="m181.31 169.53c1.82 2.78 4.12 6.34 6.4 10.14 1.36 2.28 1.16 2.69-1.11 1.43a87.2 87.2 0 0 0-12.57-5.9c-1.2-0.43-1.29-0.83-0.19-1.78a66.09 66.09 0 0 1 5.61-4.39c0.81-0.55 1.18-0.55 1.86 0.5zm-5.7 4.56a75.74 75.74 0 0 1 10 4.88c-2.07-3.23-3.64-5.62-5.52-8.28a42.13 42.13 0 0 0-4.48 3.39z"/>
  <path d="m163.86 184.58c4.16 5.06 9.66 9.5 10.84 9.46 1.59-0.1 8.41-2.74 13.62-5.22 2-0.94 2.25-0.66 1.12 1.3-5.42 9.39-15.91 15-20.6 14.61-1.94-0.18-6.43-3.8-12.54-10.44-0.72-0.78-0.75-1.08-0.07-1.92a167.56 167.56 0 0 1 11.63-12.93c2.14-2.11 2.91-1.25 0.8 0.89a119.89 119.89 0 0 0-11 12.92c6 6.56 9.89 9.78 11.4 9.91 3.8 0.34 13.46-4.78 18.27-12.33-4.68 2.12-10.65 4.62-12.51 4.75s-8.68-5.66-12-9.8z"/>
  <path d="m162.64 199.55a89.94 89.94 0 0 1 6.39-8.54l1 0.95a93.87 93.87 0 0 0-6.22 8.63z"/>
  <path d="m177.22 201.2c-0.34-2.55-0.5-5.12-0.6-6.88l1.38-0.38c0.09 1.64 0.3 3.95 0.62 6.4z"/>
  <path d="m180.73 192.81a21 21 0 0 0 1.63-4.27c1.71-6.18 0.46-9-0.56-9.31-1.2-0.34-3.88 1.23-5.59 7.41-0.95 3.43-1 6.32-0.38 7.89l-1.46 0.24c-0.74-1.82-0.7-4.69 0.36-8.53 1.94-7 5.21-8.79 7.37-8.19 2.46 0.68 3.47 4.54 1.71 10.93a26.38 26.38 0 0 1-1 3z"/>
  <path d="m225.19 181.84a62.06 62.06 0 0 1 11.26-10.4c0.8-0.58 1-0.59 1.83 0a33.24 33.24 0 0 1 5.56 5.24c0.75 0.88 0.74 1.29-0.59 1.57a137.29 137.29 0 0 0-17.13 4.8c-2.16 0.78-2.06 0.21-0.93-1.21zm12.19-9a86 86 0 0 0-9.75 8.22 130 130 0 0 1 14.21-4.18 24.06 24.06 0 0 0-4.46-4z"/>
  <path d="m237.82 199.08c-2.71 0-8.44-3.11-12.82-6.58 2.7 5.53 6.93 12.1 9.55 13.23 3.72 1.61 14.28-0.23 22.24-6.39a126.4 126.4 0 0 0-10.7-16.3c-2-2.73-1.21-3.4 1-0.75a116.38 116.38 0 0 1 11.42 16.6c0.4 0.72 0.35 1-0.26 1.46-7.8 6-19.61 8.88-24.27 6.86-3.31-1.43-8.68-9.86-11.15-16.39-0.81-2.14-0.52-2.31 1.38-0.74 4.67 3.86 11.31 7.45 13.67 7.45 2.53 0 8-3.64 13.1-9l1 1.37c-5.33 5.39-11.33 9.18-14.16 9.18z"/>
  <path d="m248.53 204.87a100.36 100.36 0 0 0-4.94-9l1.15-0.74a86.7 86.7 0 0 1 5.22 9.15z"/>
  <path d="m229.86 194.95a19.23 19.23 0 0 1-0.71-3.18c-0.94-6.66 1.34-10.68 3.66-11s5.33 2.21 6.39 9.41c0.51 3.41 0.07 6.27-1 8.08l-1.44-0.18c0.9-1.4 1.46-4.14 0.92-7.77-0.94-6.33-3.35-8.53-4.7-8.34s-3.17 3.55-2.32 9.58a15.58 15.58 0 0 0 1.3 4.53z"/>
  <path d="m147.31 202.73a24.74 24.74 0 0 0 8.94 7c2.1 1 11.53 1.2 17.56-0.44-5.89 0-11.25-1.52-14.62-4.07a39.92 39.92 0 0 1-8-8.81l0.93-1.32a40 40 0 0 0 8.14 8.79c3.47 2.63 9.5 4.36 16.5 4.14 3.37-0.1 3.27 0.4 0.18 1.75-6 2.62-18.39 2.87-21.4 1.45a22.89 22.89 0 0 1-9-7.13z"/>
  <path d="m192.25 257.17c-13.13-1.09-33.86-10.7-38.32-14.71-2-1.83-1.07-19-0.25-27.69 0.33-3.57 0.88-3.18 2-0.17a86.88 86.88 0 0 0 6.2 13.69 238.38 238.38 0 0 0 25 6.09c0.88 0.16 1.05 0.26 1.29 1.12 1.46 5.25 3.63 14 5.15 20.41 0.23 1.09 0.06 1.35-1.07 1.26zm-37.29-39.73c-0.41 5.83-1.24 22.41 0.27 23.79 3.61 3.29 24.17 13 36.22 14.23-1.53-6.44-3.49-14.3-4.94-19.45-8.07-1.5-16.72-3.49-25.05-5.88a1.91 1.91 0 0 1-1.37-1.13 82.82 82.82 0 0 1-5.13-11.56z"/>
  <path d="m267.27 210.5c-2.49 2.07-8 4.88-10.6 5.22-5.06 0.66-14.65 0.08-19.83-1.7-3.25-1.11-2.52-1.48 0.09-1.77a49.69 49.69 0 0 0 15.83-4.5 33.65 33.65 0 0 0 9.27-9l0.73 1.59a33.55 33.55 0 0 1-9.3 8.94c-2.48 1.36-8.45 3.2-14.15 4a55.48 55.48 0 0 0 17.15 0.84c2.53-0.33 7.63-2.82 10.28-5z"/>
  <path d="m212.43 255.62c1.56-5.64 3.77-13.75 5.37-18.62 0.22-0.67 0.43-0.88 1.27-1 10.17-1.49 22-3.66 31.8-5.95a44.92 44.92 0 0 0 6-9.52c1.34-2.8 1.84-2.67 2.2 0.47 1 8.93-1.72 24.19-4.46 26.41-4.15 3.35-28 10.59-41.18 9.52-1.2-0.11-1.24-0.45-1-1.31zm1.75-0.3c11.67 1 35.22-6 39.25-9.36 2.15-1.81 4.7-15.66 4.19-23.37a43 43 0 0 1-5.22 8.58 1.52 1.52 0 0 1-1.07 0.68c-9.9 2.21-21.76 4.3-31.93 5.79-1.62 4.84-3.63 12-5.22 17.68z"/>
  <path d="m200.45 260.42c0.55-9.93 1-20.57 1.35-28.21 0.12-2.68 1.35-2.62 1.27 0.06-0.26 8.34-0.87 18.35-1.64 28.21-0.29 3.84-1.19 3.8-0.98-0.06z"/>
  <path d="m200.81 267.08c-14.34 0-47.3-10.47-61.86-20-2.37-1.54-1.77-2.56 0.63-1.07 14.47 9 47.32 19.28 61.23 19.28 20.28 0 56.23-9.33 66.78-17.27 2.06-1.55 2.66-0.61 0.68 1-10.09 8.44-47.01 18.06-67.46 18.06z"/>
  <path d="m201.56 266.28a197.68 197.68 0 0 0-0.07 29c0.27 3.65-0.8 3.69-1.21 0.07a161.6 161.6 0 0 1-0.21-29.18z"/>
  <path d="m101.89 236.15c0.93 4.09 2.15 10.23 3 14.69a33.14 33.14 0 0 1 10.28-0.31l-0.19 1.82a31.71 31.71 0 0 0-10.33 0.37c-1.09 0.2-1.31 0-1.52-1-0.9-4.69-1.94-10.55-2.88-14.42z"/>
  <path d="m98.96 265.44a27.17 27.17 0 0 0 4.69-8.49c0.81-2.46 1.78-2.18 1.16 0.33a22 22 0 0 1-5 8.88c-2.16 2.5-2.99 1.92-0.85-0.72z"/>
  <path d="m96.54 281.88c-1.85-1.94-1.07-2.8 0.83-0.9 2.73 2.72 8.33 3.28 13 1.14 2.94-1.32 3.36-0.29 0.46 1.13-4.87 2.43-10.8 2.28-14.29-1.37z"/>
  <path d="m71.21 224.78c-8.71 16.94-12.49 43.61-8.48 61.06 2.08 9.05 6.8 13 18.72 14 13.5 1.15 36.66-2.75 48.36-9.33l1.34 1.35c-12.37 7.53-36.7 11.21-49.91 10.07-12.43-1.06-18.06-4.91-20.53-15.66-4.28-18.63 0.42-47.66 10.39-64.93z"/>
  <path d="m118.12 221.32c-1.57 5.51-13 15.11-19.63 17.84-7.49 3.07-25.7-2.9-27.9-12.54-1.64-7.13 1.52-21.44 6.72-28.8l-0.11 3.63c-3.85 7.47-6.15 18.39-4.67 24.85 1.84 8.06 18.19 13.95 25.32 11 5.74-2.35 15-10 17.81-15z"/>
  <path d="m89.55 221.31c-9.08-2.55-15.08-16.26-12.83-22.45 1.69-4.65 13.67-6.57 23.66-1.82 0.71 0.33 0.87 0.51 0.5 1.38-0.59 1.38-1.36 3.08-2 4.45-0.3 0.68-0.72 0.82-1.48 0.51-6.86-2.85-11-1.55-11.84 0.16-1 2 1.47 6.52 7.7 9.62 0.63 0.32 0.88 0.62 0.5 1.43-0.9 2-2 4.19-2.88 6.05-0.31 0.74-0.61 0.87-1.33 0.67zm-11.17-21.85c-1.81 5 3.53 17.31 11.29 20 0.85-1.82 1.46-3.17 2.34-5.09-7-3.45-9.35-8.93-8-11.61 1.5-3.06 7.59-3.72 13.7-1.19 0.55-1.26 0.81-2 1.27-3.12-10.42-4.75-19.64-1.64-20.6 1.01z"/>
  <path d="m84.47 204.08c1.52-2.06 6.25-2.59 12.27 0.36 0.25-0.58 0.62-1.45 0.84-1.94l1.34 0.37c-0.29 0.62-1 2.15-1.33 3-0.15 0.35-0.39 0.48-0.73 0.28-5.44-3.21-11.83-3.12-11.82 0.21z"/>
  <path d="m97.59 205.88c-1.5 3.32-2.54 5.82-3.79 8.71l-1.19-0.74c1.25-2.89 2.39-5.6 3.89-8.92z"/>
  <path d="m93.96 221.64c0.83-1.63 1.83-3.56 2.72-5.27 0.39-0.75 0.6-0.84 1.57-0.57 5.12 1.43 9 0.51 9.7-0.86s-0.35-4.37-5-7.59c-0.77-0.54-0.89-0.94-0.43-1.69 0.93-1.52 1.92-3 2.68-4.09 0.55-0.76 0.85-0.87 1.81-0.26 9.1 5.82 12.8 16 11 20.21-1.73 4-14.79 6.22-23.53 1.81-0.87-0.46-0.97-0.75-0.52-1.69zm1.71 0.38c7.84 4 19.33 1.85 20.71-1.25 1.45-3.27-1.63-12.3-10.1-17.71a35.08 35.08 0 0 0-2.09 3.15c5.14 3.45 6.3 7.58 5.32 9.65s-5.82 3.28-11.47 1.55c-0.87 1.73-1.51 3-2.34 4.61z"/>
  <path d="m103.61 206.71c-0.28 0.47-0.57 1-0.86 1.47 2.62 1.85 5.27 4.77 5.54 7.71l-1.27 0.81c0-2.67-2.33-5.36-5.16-7.29a1.08 1.08 0 0 1-0.55-1.41 1 1 0 0 1 0.15-0.24c0.36-0.68 0.84-1.59 1.14-2.1z"/>
  <path d="m96.63 216.37c1.81-3.39 3.39-6.26 4.83-8.61l1.1 1a87.08 87.08 0 0 0-4.35 8z"/>
  <path d="m89.25 221.81c4.81-6.41 11-14.21 16-20.24l-0.75 3.21c-4.14 4.87-9.45 11.86-15.54 19.3z"/>
  <path d="m81.96 236.43c2.77-6.16 4.79-10.46 7.33-16.13l1.64 0.34c-2.47 5.41-4.94 10-7.73 16.27z"/>
  <path d="m86.25 228.73c3.69-4.44 7-8.22 10.77-12.85l-0.58 2.57c-3.19 4.28-7.68 9.25-11.92 14z"/>
  <path d="m95.19 222.76a135.39 135.39 0 0 1-12.12 14.4l-1-1a137.83 137.83 0 0 0 11.89-14.52z"/>
  <path d="m66.49 233.47c1 7.62 6.81 13.22 15.21 14.83 7.66 1.46 17.07-1.08 20.1-8.45l0.49 2.41c-3.85 6.94-13.59 9.1-20.88 7.71-8.39-1.61-14.19-6.41-15.87-13.61z"/>
  <path d="m64.05 241.72a21.34 21.34 0 0 0 16.36 13.41c8.14 1.42 18.37-1.82 22-11.92l0.57 2.6c-4.18 9.44-14.81 12.45-22.94 11a22.29 22.29 0 0 1-16.73-12.89z"/>
  <path d="m302.14 252.15c-2.93 0-5.27 0.06-7.87 0.17l-0.11 1.84c2.73-0.12 5.13-0.19 8.07-0.18z"/>
  <path d="m303.19 233.08a19.1 19.1 0 0 1 0.42 7.22c-2 14.25 0.32 24.92 7.18 33.5 1.88 2.35 1 3-0.91 0.84-7.44-8.5-10.14-20-8.1-34.59a18.68 18.68 0 0 0-0.67-8z"/>
  <path d="m296.78 284.83c-2.19-1.21-1.83-2 0.46-1 4.88 2.16 9.57 2.41 11.83 1.76s2.64 0.34 0.43 1.18c-2.83 1.09-7.91 0.7-12.72-1.94z"/>
  <path d="m328.13 220.08c22.19 26.9 26.76 58.23 18.07 71.92-10.78 17-53.35 12.66-70.71 2.85l1.28-1.4c17.23 9.22 57.85 12.83 67.65-2.61 7.9-12.44 4.63-41.65-16.7-68.39z"/>
  <path d="m334.96 230.99c0.34 5.92-4.68 11.74-14.14 14-7 1.65-14.18 0.58-18.26-4.11l0.28-2c3.43 4.89 10.73 6 17.6 4.42 7.84-1.86 14.67-7.5 12.76-14.84z"/>
  <path d="m338.41 236.64c-1.42 8-9 13.16-16 14.84s-15.81 0-20.22-5.54l0.15-2.27c3.46 5.5 12.17 7.91 19.74 6.12 7.11-1.69 14.34-6.93 15.24-15z"/>
  <path d="m286.43 221.57c-3.73-4.72-1.14-15 5.62-19.48 0.63-0.42 0.94-0.39 1.6 0.06 1.13 0.77 2.66 1.87 4 2.9 0.76 0.57 0.81 1 0 1.59-4.46 3.55-5 7.45-3.89 8.78 2.2 2.66 8.75 2.21 13.2-1.34 0.74-0.59 1-0.6 1.81 0.1 1.48 1.27 3.15 2.75 4.54 4 0.85 0.75 0.77 1.17 0 1.73-10.06 7.85-21.94 7.91-26.88 1.66zm6.59-17.8c-6.42 4.34-7.8 13.35-5.14 16.71 3.72 4.71 14 5.69 24-1.5-1.41-1.24-2.46-2.17-4-3.5-4.53 3.7-12.46 4.63-15.43 1-1.74-2.11-0.79-6.88 3.68-10.6z"/>
  <path d="m297.96 205.34c0.53 0.52 1.08 1.1 1.6 1.66s0.57 1.21-0.05 1.62c-4.1 2.72-5.4 7-4.44 8.65l-1.65-0.75c-0.43-2.29 1.05-6.15 4.79-8.88-0.5-0.48-0.85-0.87-1.31-1.39z"/>
  <path d="m299.6 207c2.49 2.43 5.22 5.3 7.6 7.92l-1.16 0.8c-2.22-2.4-4.81-5.07-7.26-7.46z"/>
  <path d="m322.58 195.51c7.05 5.54 8.3 19.28 5.41 29.86-1.92 7-12.18 11.68-18.1 11.12s-19-9.33-23.46-14.92l3.66 1.27c5.38 5.17 15.13 11.24 20 11.71 6.09 0.58 14.46-4.12 16-9.79 2.56-9.35 1.68-17.83-1.16-23.57z"/>
  <path d="m305.51 204.38c2.07 1.5 6 4.34 7.74 5.8l-0.8 1.16c-1.69-1.44-5.47-4.23-7.52-5.7z"/>
  <path d="m304.64 202.24c0.25 0.55 0.42 1 0.63 1.47 3.81-3.77 10.71-3.66 12.42 0.48l-0.92 2.09c-0.1-4.28-6.85-5.29-10.89-1.06-0.75 0.79-1.25 0.55-1.58-0.23s-0.55-1.34-0.85-2z"/>
  <path d="m306.32 215.28c-2.2-4.95-4.59-10.59-7.09-16.35l1.42-0.46c2.46 5.64 4.55 11 6.77 16.05z"/>
  <path d="m308.49 215.08c-1.44-3.56-2.92-7-4.19-10.08l1.34-0.42c1.35 3.27 3.22 7.94 4.77 12z"/>
  <path d="m314.67 221.68c-1-4-1.95-8.18-2.64-11l1.53 0.4c0.85 3.54 1.76 7.52 3.21 14.27z"/>
  <path d="m319.36 214.79a42.41 42.41 0 0 1 1.77 17.48l-1.48 0.92c1.08-5.51-0.48-13.46-1.9-18.05z"/>
  <path d="m319.76 232.99a107.68 107.68 0 0 0-7.36-13.46l1.36-0.94a114.81 114.81 0 0 1 7.25 13.86z"/>
  <path d="m148.74 437.08c-1.06 12.52-20.8 19.76-33.52 13.26-2.37-1.2-1.82-1.71 0.53-2 3.52-0.5 5.08-2.3 5.73-6.16 1.53-9.21 5.56-15.74 11-17.75l2.23 1.16c-5.54 1.41-9.78 7.71-11.34 17.07-0.68 4.1-3 6.4-5.63 7 10.48 4.19 28.81-1.59 29.3-14.42z"/>
  <path d="m200.78 105.63c-7.25-15.57-10-37.8-7.09-54.24 2.42-13.46 12.62-36.73 16.83-46.1 1.83-4.08 1.12-4.51-2.82-2-10.8 7-28.54 24.3-39.81 38.72-2.18 2.79-2.48 4.49-1.89 7.8 2.29 12.82 1.27 28.14-4.86 34.18l-1.83-1c4.51-4.55 7.73-16.56 4.78-33.07a9.83 9.83 0 0 1 2.23-9c11.53-14.75 29.48-32 40.55-39.13 5.31-3.44 7.78-1.82 5.16 4-4.2 9.34-14.09 32.5-16.49 45.84-2.88 16 0.41 39.33 7.95 54.69z"/>
  <path d="m167.96 87.67a67.36 67.36 0 0 0 3.13-17c0.2-3.19 1.19-3.19 1.21 0a60.61 60.61 0 0 1-2.76 17.88z"/>
  <path d="m181.11 77.31a144.4 144.4 0 0 1-1.31-18.47c-0.07-2.8 1-2.83 1.09 0 0.31 7 0.85 12.8 1.46 18.35 0.37 3.31-0.75 3.44-1.24 0.12z"/>
  <path d="m186.23 32.44c4.06-5.73 8.27-11.21 12.92-16.86 1.76-2.13 2.45-1.61 0.79 0.59-4.37 5.76-8.47 11.31-12.74 17.06-1.91 2.57-2.88 1.91-0.97-0.79z"/>
  <path d="m260.19 86.48c-3.06-8.4-1.23-22.69 1.93-33.17 1.41-4.61 1-5.71-0.66-8.1-6.41-9.46-23.1-29.08-33.83-40.57-3.23-3.45-4.51-2.66-2.55 1.33 4.16 8.44 9.29 28.74 10.13 44.79 0.81 15.4-6.45 41.43-15.39 54.44l-3.34 1.42c9-11.92 17.69-40.19 16.87-55.78-0.84-15.92-5.75-36-9.76-44.21-3.13-6.38 1-7.72 5.32-3.09 10.76 11.54 28.05 31.74 34.11 40.61 2.06 3 2.4 4.93 0.95 9.68-3.2 10.47-4.74 24-1.91 31.86z"/>
  <path d="m247.42 40.29c-2.34-5-3.77-8.1-5.44-11.47-1-2.09-0.23-2.5 0.89-0.45 1.81 3.3 3.41 6.4 5.63 11.39 1.17 2.63 0.11 3.06-1.08 0.53z"/>
  <path d="m243.96 93.52c0.44-6.68 1.05-14.64 1.57-20.28 0.43-4.56 1.51-4.48 1.23 0.09-0.39 6.16-0.79 13.59-1 19.48z"/>
  <path d="m159.13 452.44a8.48 8.48 0 0 0 2.3-5.47 3 3 0 0 1 1-2.57 55.12 55.12 0 0 0 10.81-15.38c-4.43 2.27-8 4.44-13 7.53-1.52 0.94-2.12 0.7-3-0.59a52.64 52.64 0 0 0-6.46-7.37c-1-0.93-1.12-1.41-0.41-2.91a112.29 112.29 0 0 0 6.59-17.84 111 111 0 0 0-15.54 11.38c-1.19 1-1.58 1-3 0.23a53.38 53.38 0 0 0-5.93-2.91c-1.48-0.61-1.72-1-1.53-2.61 0.53-4.44 1.11-8.44 2.17-13.66a68.94 68.94 0 0 0-9.61 12.55 2.55 2.55 0 0 1-2.6 1.44 11.1 11.1 0 0 0-7 2.52l0.84-4.28a14.32 14.32 0 0 1 6.1-1.42 77.79 77.79 0 0 1 12.49-14.84c3.3-3.14 3.92-2.91 3.11 1.42-1.2 6.41-1.76 10.43-2.35 16.18a49.24 49.24 0 0 1 5.64 2.79 94.43 94.43 0 0 1 17.46-12c3.55-1.9 3.91-1.55 2.84 2.46-2.2 8.25-3.82 13.43-6.72 19.63a49.63 49.63 0 0 1 5.91 6.72c5.84-3.43 9.34-5.2 14.88-7.91 3.6-1.76 4.24-1.64 2.5 2.61a57.26 57.26 0 0 1-12 18.6 10.08 10.08 0 0 1-0.34 2.89z"/>
  <path d="m230.37 202.82c0.75-2.14 1.55-4.1 2.47-6.23l1.24 0.62a64.67 64.67 0 0 0-2.61 7z"/>
  <path d="m314.2 210.63c1.76 1.45 2.95 2.45 4.43 3.45 6.05-3.59 9.13-12.18 2.91-17.17-4.91-3.94-14-2.76-20.11 1.94 1.08 1 1.7 1.55 2.77 2.58 3.87-3.56 10.13-4.14 12.8-1.58 2.52 2.43 2.07 7.23-2.8 10.78zm3.48 4.87c-1.55-1.14-3.47-2.68-5.23-4.16-0.63-0.53-0.55-1 0.18-1.56 4.43-3.28 4.88-6.91 3.07-8.64-2-1.89-7.22-1.51-10.81 1.8a1 1 0 0 1-1.41 0.13 1 1 0 0 1-0.17-0.18c-1.14-1.07-2.56-2.34-3.68-3.41-0.6-0.58-0.64-1.09 0.09-1.68 6.34-5.12 17.1-6.92 22.86-2.29 7 5.58 4.72 15.73-3.27 20.11a1.25 1.25 0 0 1-1.63-0.12z"/>
  <path d="m181.21 187.13c-0.61 2.64-1.64 3.62-2.33 3.49s-1.33-1.47-0.69-4.2c0.59-2.57 1.59-3.74 2.45-3.56 0.69 0.15 1.17 1.67 0.57 4.27z"/>
  <path d="m232.36 190.02c0.3 3.1 1.26 4.19 2 4.16s1.34-1.68 1.06-4.47c-0.25-2.62-1.07-4.13-2-4.06-0.63 0.05-1.32 1.72-1.06 4.37z"/>
 </g>
 <path d="m107.47 124.57c-8-1.79-15-3.28-23.83-5-3.54-0.7-3.35-1.84 0.2-1.2 8.65 1.55 15.84 3.12 23.9 5 3.45 0.81 2.93 1.91-0.27 1.2z" opacity=".397" style="mix-blend-mode:normal"/>
 <g fill="none">
  <path d="m180.19 193.08c0.23-0.9-0.12-1.87-0.83-2.05-1.3-0.33-2.32 1.61-1.54 2.89l-0.93 0.32c-1.07-1.84 0.37-4.51 2.65-4a2.23 2.23 0 0 1 1.63 2.42z"/>
  <path d="m176.24 183.88c0.77 0.52 1.79 1.17 2.57 1.58l-0.28 1.09a26.43 26.43 0 0 1-2.62-1.41z"/>
  <path d="m175.29 187.19c1-0.19 2-0.41 3.22-0.69l-0.18 1.2c-1.05 0.33-2.38 0.63-3.37 0.83z"/>
  <path d="m183.65 186.41a26.7 26.7 0 0 1-2.81 0.38l0.14-1.12c0.89-0.15 1.85-0.33 2.83-0.56z"/>
  <path d="m182.96 189.63a20.71 20.71 0 0 1-2.44-1.73l0.23-1.08a29.16 29.16 0 0 0 2.47 1.62z"/>
  <path d="m235.33 197.48c1.13-1.05 0.31-3-0.8-2.88a1.61 1.61 0 0 0-1.11 2l-1-0.43a2.3 2.3 0 0 1 2-2.36c2.2-0.17 3.12 2.42 1.86 4z"/>
  <path d="m234.83 188.48c1-0.38 2.14-0.89 3-1.29l0.36 1.2a24.84 24.84 0 0 1-3.11 1.18z"/>
  <path d="m238.63 191.83c-1.24-0.33-2.26-0.67-3.51-1.07l-0.12-1.16c1.4 0.4 2.32 0.66 3.5 0.93z"/>
  <path d="m232.69 189.94-3-0.86v-1.29c0.93 0.3 2.1 0.67 2.92 1z"/>
  <path d="m232.78 190.95a28.44 28.44 0 0 1-2.74 1.56l-0.18-1.29c0.89-0.42 1.87-0.93 2.77-1.46z"/>
 </g>
 <path d="m206.72 16.08a4.34 4.34 0 0 0-4.7-2.55c-1 0.07-1.14 0-1.45-0.85a3.66 3.66 0 0 0-3.42-2.29l1.29-1.24a4.54 4.54 0 0 1 3.4 3.06 5.09 5.09 0 0 1 5.51 2.35z" fill="#0d131a"/>
 <path d="m236.85 13.59a2.19 2.19 0 0 0-1.89 1.49c-0.39 0.92-0.64 1.13-1.82 0.93a4.63 4.63 0 0 0-4.67 1.74l-0.42-1.52a5.56 5.56 0 0 1 5.59-1.48 3.42 3.42 0 0 1 2.26-2.31z" fill="#0d131a"/>
 <g fill="none">
  <path d="m194.78 51.08a7.34 7.34 0 0 1-6.93-4.8c-6.77 3.74-11.74 2.32-13.48-3-2.53 1.77-6.27 3-9.36 2.39l0.44-1.54a11.9 11.9 0 0 0 7.78-1.72c1.45-0.87 1.78-0.89 2.49 0.63 1.88 4 5.89 4.93 11.33 2.1 1.18-0.61 1.45-0.42 2.2 0.9a6.37 6.37 0 0 0 5.82 3.44z"/>
  <path d="m262.07 44.37c-1.13 5.57-5.74 7.26-11.3 4.36-2.93 5-8.78 4.91-11.84 0.09a12.43 12.43 0 0 1-4.54 3.66l-0.07-1.68a11.73 11.73 0 0 0 3.36-2.58c1.07-1.2 1.55-1.23 2.46 0 2.57 3.43 6.83 3.59 9.35 0 0.71-1 1-1 2.34-0.43 4.6 2.07 8.34 0.32 9.08-5z"/>
  <path d="m10.96 105.47a20 20 0 0 1 5.81 1.17 17.33 17.33 0 0 0 4.5 0.93 22.35 22.35 0 0 1 5.42 1.19 12.81 12.81 0 0 0 4.13 1 18.24 18.24 0 0 1 5.25 1.32 20.37 20.37 0 0 0 4.54 1.25 19.73 19.73 0 0 1 5.14 1.52 7.25 7.25 0 0 1 3.51 3.23 15.1 15.1 0 0 0 2.11 3.25 11.7 11.7 0 0 1 2.19 3.67 13.35 13.35 0 0 0 1.85 3.45 14.3 14.3 0 0 1 2.08 4.08 23.19 23.19 0 0 0 1.9 4.22c0.53 0.89 0.79 0.9 1.54 0.38a8.64 8.64 0 0 0 2.47-2.46 10.3 10.3 0 0 1 3.18-3.09 6.3 6.3 0 0 0 2.11-2.06 10.79 10.79 0 0 1 3.11-2.91 9.75 9.75 0 0 0 2.56-2.4 9.94 9.94 0 0 1 3.74-3c2.27-1 4.55-1 6.72 1.85a17.6 17.6 0 0 1 2.28 4 13.19 13.19 0 0 0 1.72 3.23 11 11 0 0 1 1.74 3.25 8.74 8.74 0 0 0 1.51 2.88 13.71 13.71 0 0 1 2 3.85 6.06 6.06 0 0 0 1 2c0.4 0.59 0.68 0.44 1.3-0.06a10.19 10.19 0 0 0 2.12-2.13 10 10 0 0 1 2.84-2.76 10.58 10.58 0 0 0 2.48-2.38 10.2 10.2 0 0 1 2.88-2.75 7.78 7.78 0 0 0 2.4-2.24 11.5 11.5 0 0 1 3-2.82 9.26 9.26 0 0 0 2.41-2.26 9.17 9.17 0 0 1 3-2.78 16.5 16.5 0 0 0 3.76-3.46 1.34 1.34 0 0 0 0-1.93 8.35 8.35 0 0 1-1.52-2.85 8.71 8.71 0 0 0-1.45-2.7 6.93 6.93 0 0 1-1.36-2.64 10.31 10.31 0 0 0-1.19-2.28c-1.4-2.36 0.07-4.47 1.28-5.59a11.12 11.12 0 0 1 3.47-2.36 12.6 12.6 0 0 0 3.21-1.92 9.67 9.67 0 0 1 3.29-2 10.36 10.36 0 0 0 3-1.78 12.15 12.15 0 0 1 3.84-2.2 7.91 7.91 0 0 0 2.85-1.61 7.41 7.41 0 0 1 1.28-0.8l2.49 0.66a6 6 0 0 0-2.49 1.26 11.08 11.08 0 0 1-3.64 2 10.32 10.32 0 0 0-3.3 1.92 12.35 12.35 0 0 1-3.46 2 8.13 8.13 0 0 0-2.82 1.7 14.13 14.13 0 0 1-3.64 2.26 9.4 9.4 0 0 0-2.88 2.16c-1.56 1.45-1.63 2.29-1 3.36a11.36 11.36 0 0 1 1.18 2.61 5.33 5.33 0 0 0 1.11 2.15 9.77 9.77 0 0 1 1.7 3.12 10.4 10.4 0 0 0 1.75 2.91c1.06 1.36 1.06 2.24 0.18 3.54a21.22 21.22 0 0 1-4.65 4.22 7.2 7.2 0 0 0-2.43 2.16 11.1 11.1 0 0 1-2.94 2.65 9.75 9.75 0 0 0-2.58 2.38 9.37 9.37 0 0 1-2.89 2.68 7.72 7.72 0 0 0-2.44 2.25 12.88 12.88 0 0 1-3 2.8 8.46 8.46 0 0 0-2.43 2.3 15.46 15.46 0 0 1-3.21 3.15c-1.31 0.92-1.79 0.81-2.43 0a9.41 9.41 0 0 1-1.69-3.3 11.75 11.75 0 0 0-1.78-3.33 11.07 11.07 0 0 1-1.83-3.44 9.2 9.2 0 0 0-1.51-2.85 15.67 15.67 0 0 1-1.84-3.51 14.77 14.77 0 0 0-2.1-3.41c-1.76-2.29-2.67-2.22-4.62-1.4a7.61 7.61 0 0 0-3 2.29 11.5 11.5 0 0 1-3 2.82 8.61 8.61 0 0 0-2.49 2.32 8.71 8.71 0 0 1-2.77 2.6 8.67 8.67 0 0 0-2.7 2.59 12 12 0 0 1-3.53 3.42c-1.6 1-2 0.65-2.93-0.65a27.57 27.57 0 0 1-2.39-5.28 11.53 11.53 0 0 0-1.83-3.53 16.28 16.28 0 0 1-2.14-3.9 9.44 9.44 0 0 0-1.85-3.11 17.22 17.22 0 0 1-2.35-3.57 4.93 4.93 0 0 0-2.68-2.5 17.61 17.61 0 0 0-4.71-1.39 23 23 0 0 1-5-1.42 16.34 16.34 0 0 0-4.72-1.22 14.46 14.46 0 0 1-4.58-1.09 19.85 19.85 0 0 0-4.93-1.08 18.58 18.58 0 0 1-4.89-1.06 19.85 19.85 0 0 0-6.23-1.25z"/>
  <path d="m148.37 90.08a14.22 14.22 0 0 0-3.92 2.36 12.43 12.43 0 0 1-4.56 2.73 9.91 9.91 0 0 0-3.81 2.35 16.2 16.2 0 0 1-4.47 2.71 11.74 11.74 0 0 0-3.56 2.25 10.63 10.63 0 0 1-3 2c-0.62 0.29-0.65 0.49-0.39 1.1a8.92 8.92 0 0 0 1.4 2.5 11.74 11.74 0 0 1 1.69 2.8c0.26 0.59 0.47 0.75 1 0.2a12.94 12.94 0 0 1 2.68-2.1 10.12 10.12 0 0 0 2.76-2.15 10.34 10.34 0 0 1 3-2.2 13.94 13.94 0 0 0 2.77-2 13.27 13.27 0 0 1 3.5-2.44 11.18 11.18 0 0 0 3.44-2.5l-0.67 2.59a15.44 15.44 0 0 1-2.08 1.4 10.06 10.06 0 0 0-3 2.13 16.24 16.24 0 0 1-3.18 2.35 8 8 0 0 0-2.5 1.9 11.28 11.28 0 0 1-3.12 2.5 17.42 17.42 0 0 0-3.14 2.61c-1.06 1.06-2.11 1-2.65-0.53a16.25 16.25 0 0 0-2-3.39 14.1 14.1 0 0 1-1.87-3.32c-0.48-1.13-0.45-2.07 0.83-2.65a12.59 12.59 0 0 0 3.38-2.1 13.55 13.55 0 0 1 4.06-2.52 13.74 13.74 0 0 0 3.9-2.39 12.33 12.33 0 0 1 4.48-2.71 9.32 9.32 0 0 0 3.74-2.25 12.56 12.56 0 0 1 3.14-1.94z"/>
  <path d="m144.2 108.51a9.22 9.22 0 0 0-2.08 1.65 12.15 12.15 0 0 1-3 2.39 13.15 13.15 0 0 0-3.06 2.6 14.3 14.3 0 0 1-3.15 2.76c-0.66 0.43-0.71 0.76-0.19 1.43a12.18 12.18 0 0 1 1.61 2.94 8.86 8.86 0 0 0 1.7 3.08 13.2 13.2 0 0 1 2 3.57 9.14 9.14 0 0 0 1.35 2.37l-0.49 2.33a17.37 17.37 0 0 1-2.37-4 10.54 10.54 0 0 0-1.79-3.1 10.76 10.76 0 0 1-2-3.63 11.53 11.53 0 0 0-1.69-3c-0.93-1.1-0.77-2.31 0.51-2.92a13.4 13.4 0 0 0 3.14-2.82 15.72 15.72 0 0 1 3.51-3 12.05 12.05 0 0 0 2.79-2.29 15.92 15.92 0 0 1 3.69-3z"/>
  <path d="m137.4 142.65a24.56 24.56 0 0 0-2.73-4.46 13.81 13.81 0 0 1-2.07-3.54 15.63 15.63 0 0 0-2-3.42 15 15 0 0 1-2.31-4.08 9.32 9.32 0 0 0-1.51-2.61c-0.42-0.61-0.6-0.46-1-0.06a9.23 9.23 0 0 1-1.77 1.53 7.26 7.26 0 0 0-2.27 2 10 10 0 0 1-3.06 2.73c-0.38 0.22-0.46 0.53-0.26 1.09a7.55 7.55 0 0 0 1.27 2.35 12.55 12.55 0 0 1 2 3.57 8.32 8.32 0 0 0 1.58 3 13.49 13.49 0 0 1 2.26 4.1 11.44 11.44 0 0 0 1.82 3.32 14.58 14.58 0 0 1 2.26 4.2 9.25 9.25 0 0 0 1.58 3 13.19 13.19 0 0 1 1.51 2.63l-2.09-0.42a13.41 13.41 0 0 0-1-1.67 8.35 8.35 0 0 1-1.59-3 11.71 11.71 0 0 0-2-3.52 14.25 14.25 0 0 1-2.17-3.86 10.82 10.82 0 0 0-1.89-3.45 10.46 10.46 0 0 1-2-3.62 9.67 9.67 0 0 0-1.69-3 12.79 12.79 0 0 1-1.77-3.27c-0.47-1.31-0.36-1.92 0.74-2.56a12.34 12.34 0 0 0 3.22-2.85 8.52 8.52 0 0 1 2.53-2.29 11.39 11.39 0 0 0 2.21-1.89c1.07-1.24 1.66-1.14 2.62 0.22a15.16 15.16 0 0 1 2.14 3.66 12.57 12.57 0 0 0 2 3.62 16.34 16.34 0 0 1 2.11 3.67 12.94 12.94 0 0 0 1.95 3.38 19.69 19.69 0 0 1 1.77 3z"/>
  <path d="m122.17 155.56a11.36 11.36 0 0 0-1.46-2.86 13.09 13.09 0 0 1-1.92-3.78 11.59 11.59 0 0 0-1.69-3.23 14.42 14.42 0 0 1-1.94-3.76 8.29 8.29 0 0 0-1.52-2.74 7 7 0 0 1-1-1.77c-0.21-0.51-0.43-0.57-0.87 0a4.64 4.64 0 0 1-1.64 1.41 7.61 7.61 0 0 0-2.42 2.2 14.4 14.4 0 0 1-2.88 2.63 13.33 13.33 0 0 0-2.59 2.5 10.07 10.07 0 0 1-2.44 2.39 6 6 0 0 0-1.54 1.65l-1.81-0.5a8.56 8.56 0 0 1 2.33-2.43 8.66 8.66 0 0 0 2.09-2.05 14.87 14.87 0 0 1 2.84-2.82 13.79 13.79 0 0 0 2.68-2.55 8.88 8.88 0 0 1 2.69-2.56 7.71 7.71 0 0 0 2.18-2c1-1.24 1.93-1.24 2.39 0.3a9.38 9.38 0 0 0 1.26 2.33 12.13 12.13 0 0 1 1.93 3.55 10.81 10.81 0 0 0 1.64 3.16 13.71 13.71 0 0 1 1.93 3.72 11 11 0 0 0 1.68 3.37 18.87 18.87 0 0 1 2.12 4.41z"/>
  <path d="m89.26 148.08a10 10 0 0 0-1.3-2.83 9.91 9.91 0 0 1-1.79-3.78 8.73 8.73 0 0 0-1.75-3.51 11.67 11.67 0 0 1-1.89-3.82 8.43 8.43 0 0 0-1.44-2.77 4.9 4.9 0 0 1-1-1.85c-0.13-0.36-0.35-0.56-0.93-0.13a7.48 7.48 0 0 0-1.52 1.29 10.34 10.34 0 0 1-2.68 2.2 8 8 0 0 0-2.3 2.08 8.54 8.54 0 0 1-2.4 2.2 9.11 9.11 0 0 0-2.3 2.25 9.18 9.18 0 0 1-2.45 2.28 3.4 3.4 0 0 0-1 1l-1.86-0.48a7.14 7.14 0 0 1 1.69-1.6 9.21 9.21 0 0 0 2.26-2.23 10.27 10.27 0 0 1 2.68-2.62 7.58 7.58 0 0 0 2.08-1.91 8.6 8.6 0 0 1 2.6-2.39 10.35 10.35 0 0 0 2.45-2.17 13.23 13.23 0 0 1 2.36-2c1.39-1 2.23-0.81 2.57 0.68a5.24 5.24 0 0 0 1 2 10.49 10.49 0 0 1 1.72 3.46 9.67 9.67 0 0 0 1.6 3.25 11.56 11.56 0 0 1 2.07 4.31 8.15 8.15 0 0 0 1.54 3.27 16.71 16.71 0 0 1 1.94 4.31z"/>
  <path d="m25.79 130.63a26.94 26.94 0 0 1-4.83 1.39 6.81 6.81 0 0 0-2.68 1l-2.76-0.59a14.22 14.22 0 0 1 5.11-2.1 24.94 24.94 0 0 0 4.55-1.4 25.18 25.18 0 0 1 5.37-1c0.56 0 0.71-0.13 0.35-0.68a4 4 0 0 0-1-1 20.65 20.65 0 0 1-3.52-3.83 13.77 13.77 0 0 0-2.56-2.88 14.65 14.65 0 0 1-2.86-3.6c-1.22-2.16-1.25-2.5 1.54-2.22a23.82 23.82 0 0 1 5.15 1.07 16.16 16.16 0 0 0 4.44 1 22.19 22.19 0 0 1 5.68 1.29 14.91 14.91 0 0 0 3.94 1 2.81 2.81 0 0 1 2.68 2.15 25.3 25.3 0 0 0 3 5.19 17.7 17.7 0 0 1 2.71 5.09 18.77 18.77 0 0 0 2.33 4.57 24.83 24.83 0 0 1 2.53 5.5l-2-0.43a17.9 17.9 0 0 0-2-4.1 20.43 20.43 0 0 1-2.47-5 13.86 13.86 0 0 0-2.4-4.48 26.6 26.6 0 0 1-3.27-5.41c-0.52-1.19-0.78-1.09-1.73-1.2a15.08 15.08 0 0 1-4.12-1.07 18 18 0 0 0-5-1.32 24 24 0 0 1-5-1.26 16.1 16.1 0 0 0-3.21-0.75c-1.14-0.18-1.33-0.1-0.56 0.92a12.54 12.54 0 0 0 1.76 1.85 15.63 15.63 0 0 1 2.8 3 18.53 18.53 0 0 0 3.2 3.42 8.72 8.72 0 0 1 2.17 2.4c0.74 1.32 0.92 2.14-1.81 2.38a28.07 28.07 0 0 0-5.53 1.1z"/>
  <path d="m413.27 124.15a18.34 18.34 0 0 0-5.58 0.23 28 28 0 0 1-6.07 0.13 19.11 19.11 0 0 0-5.34 0.15 17.65 17.65 0 0 1-5.23 0.16 19.5 19.5 0 0 0-5.23 0.16 15.87 15.87 0 0 1-5.41 0.21 16.84 16.84 0 0 0-5.75 0.21c-1.16 0.3-1.35 0.41-1.89 1.66s-1.54 3.6-2.52 4.49a11.27 11.27 0 0 0-2.07 3.56 13.23 13.23 0 0 1-2.21 3.72 12.37 12.37 0 0 0-2.1 3.53 13.17 13.17 0 0 1-2 3.44c-0.89 1-1.4 1.06-2.2 0.24a11.43 11.43 0 0 1-2.39-3.3 8 8 0 0 0-2.08-2.87 6.58 6.58 0 0 1-1.82-2.51 9.31 9.31 0 0 0-1.87-2.58 9.14 9.14 0 0 1-1.72-2.41 8.13 8.13 0 0 0-2.55-3c-2.14-1.28-3.72-1.33-5.51 0.12a9.75 9.75 0 0 0-2.57 3.2 18.36 18.36 0 0 1-2.2 3.39 12.74 12.74 0 0 0-2.12 3.22 15.57 15.57 0 0 1-2.46 3.8 10.24 10.24 0 0 0-1.94 3 11.27 11.27 0 0 1-2.2 3.45 1.9 1.9 0 0 1-2.57 0.34c-0.8-0.6-3.51-2.9-4.11-4.13a9.67 9.67 0 0 0-2.37-2.32 9.55 9.55 0 0 1-2.55-2.52 7.68 7.68 0 0 0-2.27-2.27 10.23 10.23 0 0 1-2.93-2.82 9.83 9.83 0 0 0-2.69-2.61 9.42 9.42 0 0 1-2.91-2.85 11 11 0 0 0-2.81-2.73 25.66 25.66 0 0 1-3.8-3.64c-1-1.17-1.21-1.81-0.07-3a7.93 7.93 0 0 0 1.67-2.39 10.47 10.47 0 0 1 2.13-3.09 5.38 5.38 0 0 0 1.32-2 14 14 0 0 1 1.45-2.41c0.56-0.79 0.86-1.41-0.77-3.29a10.76 10.76 0 0 0-3-2.58 13.67 13.67 0 0 1-3.31-2.75 8.46 8.46 0 0 0-2.6-2.16c-1-0.48-1.73-1.68-2.7-2.76a8.3 8.3 0 0 0-3.17-2.08c-2.16-1-3.62-3-4.52-3.58l2.3-0.25c0.78 0.56 1.17 1.57 2.81 2.3a11.45 11.45 0 0 1 3.39 2.88 8 8 0 0 0 2.63 1.91 10.49 10.49 0 0 1 3.14 2.56 11.27 11.27 0 0 0 2.86 2.38 13 13 0 0 1 3.5 2.9c1.63 1.88 2.07 3.9 1 5.45a16.33 16.33 0 0 0-1.49 2.29 5.71 5.71 0 0 1-1.5 2.28 10.86 10.86 0 0 0-1.87 2.86 7.36 7.36 0 0 1-1.46 2.31c-0.45 0.5-0.47 0.67 0.14 1.36a19.39 19.39 0 0 0 2.85 2.94 12.37 12.37 0 0 1 3.28 3.25 9.44 9.44 0 0 0 2.4 2.4 13.76 13.76 0 0 1 3.39 3.29 6.93 6.93 0 0 0 2.13 2.18 11.27 11.27 0 0 1 3 3 6.76 6.76 0 0 0 1.95 2 11.41 11.41 0 0 1 2.85 2.78 13.49 13.49 0 0 0 3 3.08c0.63 0.51 0.89 0.52 1.44-0.11a7.45 7.45 0 0 0 1.46-2.33 12.4 12.4 0 0 1 2.27-3.53 13.56 13.56 0 0 0 2.21-3.44 14.67 14.67 0 0 1 2.35-3.58 16.65 16.65 0 0 0 2-3.11 12.68 12.68 0 0 1 3-3.86c2.11-1.71 4.16-2.16 7.4-0.22a10.84 10.84 0 0 1 3.26 3.67 6.48 6.48 0 0 0 1.39 2 11.16 11.16 0 0 1 2.15 3.08 4.68 4.68 0 0 0 1.39 2 10.45 10.45 0 0 1 2.46 3.42 6 6 0 0 0 1.41 2.05c0.33 0.35 0.55 0.43 0.94-0.05a7.19 7.19 0 0 0 1.32-2.27 14.58 14.58 0 0 1 2.37-4 10.5 10.5 0 0 0 1.92-3.3 13.09 13.09 0 0 1 2.35-4.14 14.18 14.18 0 0 0 2.14-3.91 3.69 3.69 0 0 1 3-2.66 19.3 19.3 0 0 1 6.43-0.28 13.42 13.42 0 0 0 4.77-0.15 24.22 24.22 0 0 1 5.77-0.15 17.14 17.14 0 0 0 4.69-0.13 20.55 20.55 0 0 1 5.86-0.12 24.63 24.63 0 0 0 5.56-0.18 14.71 14.71 0 0 1 5.25-0.2z"/>
  <path d="m280.86 92.54a10.9 10.9 0 0 1 1.48 1.4 10.29 10.29 0 0 0 3.3 2.82 14.57 14.57 0 0 1 4.05 3.45 12.7 12.7 0 0 0 3.33 2.91 14 14 0 0 1 3.68 3.23 10.56 10.56 0 0 0 2.75 2.41c1.23 0.83 1.53 1.37 0.84 2.7a7.11 7.11 0 0 1-1.6 2.17 8.89 8.89 0 0 0-1.61 2 8.29 8.29 0 0 1-1.83 2.29c-1.2 1.06-1.67 0.79-2.44-0.29a14 14 0 0 0-2.82-2.82 13.82 13.82 0 0 1-2.83-2.73 15.9 15.9 0 0 0-2.32-2.32 12.87 12.87 0 0 1-2.79-2.82 10.5 10.5 0 0 0-2.59-2.56 8.4 8.4 0 0 1-1.93-1.88l-0.2-2.58a11 11 0 0 0 2.94 3 13.82 13.82 0 0 1 3.06 3 10.74 10.74 0 0 0 2.5 2.49 16.35 16.35 0 0 1 2.69 2.57 10.94 10.94 0 0 0 2.47 2.38 11.66 11.66 0 0 1 2.68 2.52c0.29 0.41 0.53 0.42 0.82 0.12a5.25 5.25 0 0 0 1.11-1.41 7.24 7.24 0 0 1 1.57-2 5.51 5.51 0 0 0 1.17-1.54c0.28-0.51 0.36-0.73-0.13-1.06a11.32 11.32 0 0 1-2.88-2.64 11 11 0 0 0-3-2.72 15.66 15.66 0 0 1-3.86-3.4 12 12 0 0 0-3.53-3 13.61 13.61 0 0 1-4-3.34 13.25 13.25 0 0 0-2.29-2z"/>
  <path d="m286.16 129.67a11.08 11.08 0 0 0-2.24 2.77 10.06 10.06 0 0 1-2.38 2.93 12.56 12.56 0 0 0-1.81 2.17l-0.12-2.47a4.38 4.38 0 0 1 0.87-1 7.48 7.48 0 0 0 1.9-2.39 13.23 13.23 0 0 1 2.59-3.18 6.73 6.73 0 0 0 1.84-2.33 9.86 9.86 0 0 1 2.17-2.76c0.51-0.49 0.44-0.82-0.21-1.22a8.89 8.89 0 0 1-2.65-2.64 15 15 0 0 0-2.94-2.91 15.53 15.53 0 0 1-3.06-3 12.55 12.55 0 0 0-1.85-2.2l-0.14-2.44a16.61 16.61 0 0 1 3.33 3.57 13.19 13.19 0 0 0 2.67 2.71 16.56 16.56 0 0 1 3.36 3.38 8.22 8.22 0 0 0 2.32 2.38c1.42 0.88 1.9 2 0.55 3.27a10.36 10.36 0 0 0-2 2.69 8.47 8.47 0 0 1-2.2 2.67z"/>
  <path d="m279.96 145.6a6.78 6.78 0 0 0 1.22-1.4 22.48 22.48 0 0 1 3-3.6 15.37 15.37 0 0 0 2.59-3.15 17 17 0 0 1 2.67-3.36 17.07 17.07 0 0 0 2.51-3.23 15.85 15.85 0 0 1 2.67-3.53c1.1-1 1.56-1.12 2.53 0.29a9.59 9.59 0 0 0 1.92 2 11.58 11.58 0 0 1 2.76 2.87 7.36 7.36 0 0 0 2.35 2.36 1.72 1.72 0 0 1 0.83 2.3 0.94 0.94 0 0 1-0.12 0.22 15 15 0 0 1-2.26 3.36 11 11 0 0 0-2 3 11 11 0 0 1-2.35 3.45 10.63 10.63 0 0 0-2.28 3.24 14.28 14.28 0 0 1-2.54 3.66 12.17 12.17 0 0 0-2.41 3.33 13.82 13.82 0 0 1-2.37 3.21 14.59 14.59 0 0 0-1.84 2.44l-2.17 0.38a18.89 18.89 0 0 1 2.81-3.89 13.25 13.25 0 0 0 2.08-2.86 13.27 13.27 0 0 1 2.68-3.71 12.64 12.64 0 0 0 2.23-3.24 13.74 13.74 0 0 1 2.65-3.8 8.68 8.68 0 0 0 2-3 12.61 12.61 0 0 1 2.23-3.36 9.76 9.76 0 0 0 1.63-2.65c0.23-0.46 0.12-0.74-0.47-1.16a6.48 6.48 0 0 1-2.3-2.35 8.22 8.22 0 0 0-2.25-2.34 6.12 6.12 0 0 1-1.6-1.61c-0.39-0.54-0.53-0.48-0.93-0.06a10.69 10.69 0 0 0-1.87 2.36 18.16 18.16 0 0 1-2.8 3.56 15 15 0 0 0-2.44 3 16.81 16.81 0 0 1-2.78 3.4 23.07 23.07 0 0 0-3 3.47 16.12 16.12 0 0 1-2.39 2.76z"/>
  <path d="m294.43 161.69a11.48 11.48 0 0 0 1.73-2.42 10.27 10.27 0 0 1 2.37-3.46 10.2 10.2 0 0 0 2-2.91 12 12 0 0 1 2.26-3.24 10.85 10.85 0 0 0 2-2.88 11.46 11.46 0 0 1 2.22-3.24 7.08 7.08 0 0 0 1.31-1.9c0.76-1.81 1.8-1.71 2.71-0.23a8.26 8.26 0 0 0 2 2 11 11 0 0 1 2.93 2.77 6.16 6.16 0 0 0 2.19 2.23 9.87 9.87 0 0 1 2.8 2.85 6.48 6.48 0 0 0 2 2.23 15 15 0 0 1 2.85 3.11l-1.7 0.28a9.68 9.68 0 0 0-2.11-2.08 8.27 8.27 0 0 1-2.55-2.65 7.53 7.53 0 0 0-2.29-2.31 8.58 8.58 0 0 1-2.75-2.71 8.32 8.32 0 0 0-2.41-2.28 10.77 10.77 0 0 1-1.56-1.38c-0.52-0.55-0.68-0.55-1 0a8.49 8.49 0 0 1-1 1.32 10.75 10.75 0 0 0-2.08 2.88 11 11 0 0 1-2.19 3.1 10.9 10.9 0 0 0-2 2.9 11.76 11.76 0 0 1-2.33 3.3 8.47 8.47 0 0 0-2.08 2.94 4.84 4.84 0 0 1-0.74 1.38z"/>
  <path d="m328.48 156.18a36.3 36.3 0 0 0 2.59-4.32 20.44 20.44 0 0 1 2.65-4.39 7.93 7.93 0 0 0 1.9-3.06 10.43 10.43 0 0 1 2.43-3.83 10.26 10.26 0 0 0 2.05-3.07 9 9 0 0 1 1.93-3 5.58 5.58 0 0 0 1.3-1.92c0.57-1.69 1.35-1.53 2.41-0.34a15.57 15.57 0 0 1 1.91 2.71 7.1 7.1 0 0 0 1.67 2.35 8.67 8.67 0 0 1 2.15 3 9 9 0 0 0 1.85 2.65 13.63 13.63 0 0 1 2.4 3.39 8.19 8.19 0 0 0 1.59 2.32 9.9 9.9 0 0 1 1.87 2.45l-1.61 0.24a6.75 6.75 0 0 0-1.25-1.56 9.3 9.3 0 0 1-1.9-2.63 10.34 10.34 0 0 0-2.08-2.87 11.5 11.5 0 0 1-2.28-3.12 6 6 0 0 0-1.73-2.38 8.38 8.38 0 0 1-2.08-2.76 7.6 7.6 0 0 0-0.92-1.27c-0.57-0.66-0.69-0.69-1.17 0.06a4.51 4.51 0 0 1-0.85 1 7.18 7.18 0 0 0-1.67 2.44 12.65 12.65 0 0 1-2.46 3.6 8.08 8.08 0 0 0-2 3.14 10.64 10.64 0 0 1-2.33 3.65 14.87 14.87 0 0 0-2.26 3.74 20.32 20.32 0 0 1-1.85 3.36z"/>
  <path d="m365.2 150.14a14.91 14.91 0 0 0 1.7-2.85 16.35 16.35 0 0 1 2.5-4.39 16 16 0 0 0 2.36-4.19 12.48 12.48 0 0 1 2.38-4.31 15.69 15.69 0 0 0 2.26-4.11 2.18 2.18 0 0 1 2.58-1.42 11.93 11.93 0 0 0 4.17-0.17 18.89 18.89 0 0 1 5.31-0.15 33.06 33.06 0 0 0 5.45 0 24 24 0 0 1 5.36 0.12c1.93 0.26 2 0.85 0.61 2.2a13.49 13.49 0 0 1-3.09 2.1 10.46 10.46 0 0 0-2.89 1.89 8.4 8.4 0 0 1-2.9 1.83 6.08 6.08 0 0 0-1.68 1c-0.45 0.34-0.42 0.46-0.08 0.62a5.44 5.44 0 0 0 1.76 0.58 12 12 0 0 1 3.8 1.09 10.26 10.26 0 0 0 3.73 0.9 10.81 10.81 0 0 1 4.31 0.86 28.81 28.81 0 0 0 6.72 1l-5.21 0.92a15.48 15.48 0 0 1-2.63-0.41 9.26 9.26 0 0 0-3.33-0.65 13 13 0 0 1-4.46-1.1 9.22 9.22 0 0 0-3.17-0.9 12.34 12.34 0 0 1-3.45-1.12c-1.39-0.8-1.45-1.38-0.27-2.41a11.1 11.1 0 0 1 3-1.82 8.39 8.39 0 0 0 2.64-1.71 11.53 11.53 0 0 1 3.24-2 5.35 5.35 0 0 0 1.4-0.91c0.64-0.52 0.48-0.57-0.23-0.61a16 16 0 0 0-3.09 0.1 32.14 32.14 0 0 1-5.72 0.09 15.15 15.15 0 0 0-4.75 0.18 12.42 12.42 0 0 1-4.34 0.23c-0.92-0.1-1 0-1.42 0.86a15.12 15.12 0 0 1-2.28 4 11.12 11.12 0 0 0-2.17 3.83 18.29 18.29 0 0 1-2.57 4.48 13.69 13.69 0 0 0-2.28 4 9.14 9.14 0 0 1-1.12 2z"/>
 </g>
 <metadata>
  <rdf:RDF>
   <cc:Work rdf:about="">
    <dc:title>Tapu Bulu</dc:title>
   </cc:Work>
  </rdf:RDF>
 </metadata>
</svg>
