<?xml version="1.0" encoding="UTF-8"?>
<!-- Created with Inkscape (http://www.inkscape.org/) -->
<svg version="1.1" viewBox="0 0 87.209 112.01" xmlns="http://www.w3.org/2000/svg">
 <g transform="translate(-1.8926 -1.9811)">
  <g transform="matrix(.89377 -.92272 -.92272 -.89377 27.534 21.458)">
   <path d="m0 0c6.049-6.002 13.415-13.709 18.651-19.28 0.613-0.651 0.613-0.911 0.367-1.463-0.377-0.844-1.294-1.713-2.3-1.962-0.39-0.097-0.537-2e-3 -0.949 0.442-5.171 5.567-12.354 13.137-18.584 19.031-0.368 0.348-0.417 0.648-0.266 1.026 0.343 0.862 1.06 1.917 1.983 2.487 0.329 0.203 0.673 0.14 1.098-0.281" fill="#d3965c"/>
  </g>
  <g transform="matrix(.89377 -.92272 -.92272 -.89377 63.923 24.494)">
   <path d="m0 0c-1.378 1.259-3.483 3.483-4.899 5.13-0.207 0.241-0.181 0.406 0.214 0.442 0.758 0.069 1.534 0.217 2.148 0.489l-0.875 0.981c-1.26-0.017-2.903 0.125-4.192 0.622 0.331-1.101 0.762-2.336 1.182-3.513 1.266-1.325 2.953-3.137 4.264-4.476 0.538-0.55 1.147-0.426 2.158 0.325" fill="#ad7b4a"/>
  </g>
  <g transform="matrix(.89377 -.92272 -.92272 -.89377 34.071 21.352)">
   <path d="m0 0c-0.22-0.571-0.398-1.225-0.531-1.832-0.105-0.476-0.215-0.518-0.583-0.191-1.589 1.406-3.457 3.256-4.793 4.677-0.323-0.487-0.605-0.967-0.723-1.321-0.138-0.414-0.029-0.726 0.336-1.079 1.143-1.107 2.484-2.376 3.565-3.437 1.377-0.49 2.42-0.989 3.545-1.606-0.09 1.089-0.082 2.567 0.09 3.936-0.254 0.254-0.537 0.513-0.906 0.853" fill="#ad7b4a"/>
  </g>
  <g transform="matrix(.89377 -.92272 -.92272 -.89377 26.691 22.303)">
   <path d="m0 0c-0.923-0.569-1.557-1.579-1.852-2.318-0.122-0.307-0.061-0.475 0.187-0.699 4.965-4.697 11.22-11.099 18.593-19.037 0.283-0.305 0.481-0.392 0.65-0.35 0.924 0.229 1.751 1.055 2.071 1.775 0.195 0.435 0.158 0.626-0.306 1.122-3.4 3.635-11.476 12.105-18.635 19.271-0.31 0.309-0.561 0.327-0.708 0.236m16.468-22.495c-7.366 7.929-13.609 14.327-18.567 19.017-0.475 0.449-0.539 0.821-0.35 1.368 0.298 0.862 1.097 2.015 2.116 2.643 0.459 0.283 0.947 0.207 1.484-0.325 7.084-7.026 15.304-15.651 18.662-19.289 0.736-0.796 0.722-1.153 0.428-1.812-0.485-1.089-1.521-1.895-2.508-2.139-0.527-0.132-0.745-0.024-1.265 0.537" fill="#0f141b"/>
  </g>
  <g transform="matrix(.89377 -.92272 -.92272 -.89377 14.552 53.877)">
   <path d="m0 0c6.614 6.684 19.456 7.376 29.541 1.898-0.638 10.215 5.73 17.096 7.438 16.704 1.567-0.36 4.69-9.025 1.144-14.153 4.452 3.326 13.159 1.343 13.878-0.803 0.644-1.92-6.838-10.744-16.632-7.624 5.332-13.434 5.546-23.315-2.285-30.919-5.194-5.042-12.552-6.697-19.072-4.332-1.15-2.751-3.862-6.691-6.075-8.879-1.474-1.456-4.075-3.003-6.77-4.348 0.169 3.248-2.734 8.513-6.441 9.357-1.788-1.144-3.615-2.494-5.425-4.05-1.052 0.948-2.404 2.516-3.349 3.709 1.363 1.464 2.849 3.306 4.229 5.253-0.401 2.674-4.233 6.502-8.227 6.634 2.045 3.236 4.275 6.141 6.746 8.21 1.789 1.498 4.26 2.854 6.517 3.811-2.379 6.865-0.82 13.87 4.783 19.532" fill="#8bc56c"/>
  </g>
  <g transform="matrix(.89377 -.92272 -.92272 -.89377 54.767 66.437)">
   <path d="m0 0c-0.744-5.997 7.852-12.672 16.395-4.312 8.835 8.648 1.455 21.268-7.115 19.589 2.211 2.255 3.082 6.192 2.255 6.939-0.897 0.809-4.75-0.81-6.873-2.583 1.295 9.791-10.279 14.506-18.254 7.004-8.12-7.639-4.137-16.394 3.042-16.306" fill="#fff697"/>
  </g>
  <g transform="matrix(.89377 -.92272 -.92272 -.89377 34.949 64.332)">
   <path d="m0 0c-4.235-4.235-4.028-9.667-1.118-12.576 3.055-3.055 8.461-2.927 12.494 1.106 4.21 4.21 3.96 9.734 0.99 12.704-2.968 2.968-8.307 2.825-12.366-1.234" fill="#ef8337"/>
  </g>
  <g transform="matrix(.89377 -.92272 -.92272 -.89377 68.018 56.165)">
   <path d="m0 0c-3.12-3.25-6.129-3.274-7.963-1.514-1.878 1.803-1.57 4.764 1.369 7.827 2.72 2.833 6.365 3.19 7.836 1.777 1.426-1.368 1.57-5.161-1.242-8.09" fill="#fff"/>
  </g>
  <g transform="matrix(.89377 -.92272 -.92272 -.89377 22.367 56.513)">
   <path d="m0 0c-3.467-3.121-3.291-6.219-1.873-7.794 1.733-1.926 4.458-1.676 7.708 1.249 3.098 2.789 3.66 6.217 2.26 7.772-1.523 1.692-4.915 1.635-8.095-1.227" fill="#fff"/>
  </g>
  <g transform="matrix(.89377 -.92272 -.92272 -.89377 76.321 54.54)">
   <path d="m0 0c1.874 1.82 3.282 3.772 4.275 5.87 4.821-1.261 7.972-5.265 7.407-7.237-1.054-3.672-14.262-9.647-21.329-3.693 3.525 0.674 6.891 2.385 9.647 5.06" fill="#865b16"/>
  </g>
  <g transform="matrix(.89377 -.92272 -.92272 -.89377 2.5942 45.928)">
   <path d="m0 0c2.259 1.226 7.353-1.415 9.271-6.653-2.799-0.925-5.292-2.369-7.24-4.339-3.072-3.105-4.921-6.615-5.579-10.284-5.121 6.827 0.21 19.465 3.548 21.276" fill="#865b16"/>
  </g>
  <g transform="matrix(.89377 -.92272 -.92272 -.89377 23.056 98.313)">
   <path d="m0 0c-1.624 1.927-2.292 4.472-0.398 6.796 1.445 1.775 3.405 2.267 5.889 1.423 2.914-0.989 5.481 0.887 5.842 3.114 0.312 1.919-1.195 4.477-4.681 5.124-4.397 0.815-8.78-1.456-11.581-5.344-3.706-5.145-3.035-11.185 1.741-15.296" fill="#865b16"/>
  </g>
  <g transform="matrix(.89377 -.92272 -.92272 -.89377 65.592 93.476)">
   <path d="m0 0c-0.143-3.035-1.567-5.523-3.777-6.776-2.072-1.175-4.83-1.266-7.87 0.294-0.011 0.301-2e-3 0.597-0.029 0.874 2.801 1.004 9.072 3.697 11.676 5.608" fill="#8bc56c"/>
  </g>
  <g transform="matrix(.89377 -.92272 -.92272 -.89377 26.179 91.362)">
   <path d="m0 0c-6.744-0.048-11.396-6.033-8.458-11.02 0.532 0.033 0.964 0.018 1.464-0.03 1.182 2.287 4.825 8.636 6.994 11.05" fill="#8bc56c"/>
  </g>
  <g transform="matrix(.89377 -.92272 -.92272 -.89377 49.606 97.265)">
   <path d="m0 0c3.707-0.844 6.61-6.11 6.441-9.356-2.696-1.346-5.487-2.489-7.34-3.139 0.066-1.74-0.472-2.368-0.803-2.41-0.314-0.04-0.697 0.225-0.981 0.667-0.144-0.196-0.307-0.292-0.468-0.267-0.401 0.061-0.94 0.703-1.017 1.947-0.201-0.233-0.446-0.357-0.669-0.289-0.427 0.131-0.864 0.799-1.046 1.96-0.161-0.206-0.353-0.334-0.521-0.293-0.411 0.101-1.039 1.076-0.917 3.014-1.134 0.203-2.253 1.388-1.862 2.023 0.217 0.353 1.089 0.267 1.907 0.425 2.405 2.278 4.876 4.183 7.276 5.718" fill="#fff"/>
  </g>
  <g transform="matrix(.89377 -.92272 -.92272 -.89377 49.606 97.265)">
   <path d="m0 0c3.707-0.844 6.61-6.11 6.441-9.356-2.696-1.346-5.487-2.489-7.34-3.139 0.066-1.74-0.472-2.368-0.803-2.41-0.314-0.04-0.697 0.225-0.981 0.667-0.144-0.196-0.307-0.292-0.468-0.267-0.401 0.061-0.94 0.703-1.017 1.947-0.201-0.233-0.446-0.357-0.669-0.289-0.427 0.131-0.864 0.799-1.046 1.96-0.161-0.206-0.353-0.334-0.521-0.293-0.411 0.101-1.039 1.076-0.917 3.014-1.134 0.203-2.253 1.388-1.862 2.023 0.217 0.353 1.089 0.267 1.907 0.425 2.405 2.278 4.876 4.183 7.276 5.718" fill="#ef8337"/>
  </g>
  <g transform="matrix(.89377 -.92272 -.92272 -.89377 41.011 97.068)">
   <path d="m0 0c-2.088-2.944-4.422-5.663-6.196-7.171-0.453-1.056-0.824-2.142-1.351-2.112-0.556 0.032-1.278 0.945-1.295 2.565-1.689 0.83-3.95 0.939-4.18 1.774-0.049 0.178 0.017 0.386 0.175 0.584-0.646 0.071-1.222 0.36-1.366 0.703-0.074 0.177-0.062 0.378 0.036 0.577-0.599 0.034-1.122 0.346-1.242 0.738-0.082 0.265 0 0.535 0.255 0.764-0.311 0.18-0.506 0.431-0.519 0.715-0.032 0.719 1.415 1.437 3.846 1.196 1.141 2.149 2.34 4.289 3.61 6.301 3.995-0.132 7.827-3.96 8.227-6.634" fill="#ef8337"/>
  </g>
  <g transform="matrix(.89377 -.92272 -.92272 -.89377 57.747 2.811)">
   <path d="m0 0c-3.103-4.72-9.868-7.157-14.699-6.389-1.02 0.162-1.822-0.234-2.142-0.903 7.249-2.951 15.751 1.973 16.841 7.292" fill="#79ab5e"/>
  </g>
  <g transform="matrix(.89377 -.92272 -.92272 -.89377 30.442 3.2025)">
   <path d="m0 0c-3.591-3.035-6.166-9.843-5.919-15.048 0.043-0.904-0.583-1.713-1.313-1.874-0.821 9.764 4.753 17.043 7.232 16.922" fill="#79ab5e"/>
  </g>
  <g transform="matrix(.89377 -.92272 -.92272 -.89377 55.46 61.642)">
   <path d="m0 0c-5.045-3.102-14.332 3.573-11.528 10.938-5.416-4.343-5.365-10.536-2.092-13.565 3.917-3.627 10.113-2.143 13.62 2.627" fill="#ce712f"/>
  </g>
  <g transform="matrix(.89377 -.92272 -.92272 -.89377 87.935 44.815)">
   <path d="m0 0c-3.575-3.026-12.545-5.251-16.741-2.301-1.407-0.62-2.834-1.176-4.479-1.563 4.449-4.063 17.362-3.131 21.22 3.864" fill="#6a4606"/>
  </g>
  <g transform="matrix(.89377 -.92272 -.92272 -.89377 68.34 103.32)">
   <path d="m0 0c-1.738-0.533-4.108 0.785-4.979 2.291-0.738-0.285-1.983-0.78-2.636-0.998v-0.846c1.802-1.101 4.879-1.812 7.615-0.447" fill="#79ab5e"/>
  </g>
  <g transform="matrix(.89377 -.92272 -.92272 -.89377 22.55 102.19)">
   <path d="m0 0c-0.52-1.874 0.424-3.978 2.141-5.26-0.375-0.689-0.738-1.366-1.088-1.886-0.375 0.012-0.823 0.048-1.44 0.012-1.148 1.584-1.463 5.042 0.387 7.134" fill="#79ab5e"/>
  </g>
  <g transform="matrix(.89377 -.92272 -.92272 -.89377 50.358 94.132)">
   <path d="m0 0c-2.116 0.595-4.893 3.636-5.307 5.703-1.487-2.381-3.835-5.555-5.636-7.356 1.008-1.339 2.215-2.612 3.422-3.653 1.586 1.454 5.323 4.297 7.521 5.306" fill="#79ab5e"/>
  </g>
  <g transform="matrix(.89377 -.92272 -.92272 -.89377 23.573 105.01)">
   <path d="m0 0c-6.831 6.321-3.892 16.652 5.218 19.982-5.73-3.632-8.198-9.069-6.141-13.6 0.857-1.885 2.22-2.263 3.346-1.019 0.22-0.411 0.497-0.834 0.739-1.125-1.197-0.931-2.806-2.708-3.162-4.238" fill="#6a4606"/>
  </g>
  <g transform="matrix(.89377 -.92272 -.92272 -.89377 2.8405 45.539)">
   <path d="m0 0c-3.416-4.734-3.99-12.31-2.225-16.349-0.665-1.354-1.276-3.148-1.687-4.672-4.673 5.966-0.574 18.554 3.912 21.021" fill="#6a4606"/>
  </g>
  <g transform="matrix(.89377 -.92272 -.92272 -.89377 62.733 109.35)">
   <path d="m0 0c0.198-0.9 0.042-1.826-0.28-1.979-0.342-0.162-0.935 0.164-1.646 1.051 0.394 0.233 0.661 0.87 0.664 1.424 0.395-0.206 0.807-0.37 1.262-0.496" fill="#ce712f"/>
  </g>
  <g transform="matrix(.89377 -.92272 -.92272 -.89377 27.523 111.7)">
   <path d="M 0,0 C -0.664,0.456 -0.969,1.033 -0.746,1.476 -0.497,1.972 0.3,2.482 1.646,1.94 1.754,1.639 1.967,1.114 2.141,0.781 1.262,0.705 0.371,0.42 0,0" fill="#ce712f"/>
  </g>
  <g transform="matrix(.89377 -.92272 -.92272 -.89377 28.251 75.993)">
   <path d="m0 0c-0.823 2.533-1.452 8.931 0.223 12.875-1.115-5.396 1.849-12.603 6.764-18.822 0.512-3.169 2.699-5.328 5.697-5.968 6.801-5.892 15.165-9.285 22.012-6.117-6.087-3.001-9.979-3.249-15.781-1.733-0.462-0.9-0.704-1.48-1.381-2.495-9.795 1.91-18.499 10.874-19.346 21.475 0.555 0.266 1.159 0.554 1.812 0.785" fill="#79ab5e"/>
  </g>
  <g transform="matrix(.89377 -.92272 -.92272 -.89377 50.598 111.32)">
   <path d="m0 0c-1.134 0.203-2.253 1.389-1.861 2.024 0.216 0.352 1.089 0.267 1.906 0.425 0.484 0.458 0.972 0.898 1.46 1.326 2.036-3.8 6.035-6.018 10.663-5.733-2.163-1.008-4.258-1.849-5.746-2.37 0.066-1.741-0.472-2.369-0.803-2.411-0.313-0.04-0.697 0.226-0.98 0.667-0.145-0.196-0.308-0.291-0.469-0.266-0.4 0.061-0.94 0.702-1.017 1.947-0.201-0.234-0.446-0.358-0.669-0.289-0.426 0.13-0.864 0.799-1.046 1.96-0.161-0.206-0.353-0.335-0.521-0.293-0.411 0.101-1.039 1.075-0.917 3.013" fill="#ce712f"/>
  </g>
  <g transform="matrix(.89377 -.92272 -.92272 -.89377 42.832 112.33)">
   <path d="m0 0c-0.556 0.032-1.278 0.945-1.295 2.565-1.689 0.831-3.95 0.939-4.181 1.774-0.048 0.178 0.018 0.386 0.176 0.584-0.646 0.071-1.222 0.36-1.366 0.703-0.074 0.177-0.063 0.378 0.036 0.578-0.599 0.033-1.122 0.345-1.242 0.737-0.082 0.266 0 0.536 0.255 0.765-0.311 0.179-0.506 0.43-0.519 0.714-0.032 0.72 1.415 1.437 3.846 1.197 0.601 1.131 1.218 2.258 1.853 3.367-0.087-3.723 2.146-7.746 5.024-9.716-0.433-0.435-0.849-0.826-1.236-1.156-0.454-1.056-0.824-2.142-1.351-2.112" fill="#ce712f"/>
  </g>
  <g transform="matrix(.89377 -.92272 -.92272 -.89377 23.613 80.668)">
   <path d="m0 0c-1.959 2.588-6.681 2.05-9.371-1.209 1.306 0.653 2.901 0.871 4.299 0.345 2.247-0.847 3.872-0.381 5.072 0.864" fill="#6a4606"/>
  </g>
  <g transform="matrix(.89377 -.92272 -.92272 -.89377 76.306 52.799)">
   <path d="m0 0c1.511-0.335 2.825-0.834 4.303-1.521 1.286-0.598 1.489-0.213 0.238 0.451-1.371 0.726-2.713 1.261-4.087 1.615z" fill="#442023"/>
  </g>
  <g transform="matrix(.89377 -.92272 -.92272 -.89377 14.632 51.946)">
   <path d="m0 0c-0.07 1.472-0.482 3.122-1.043 4.477-0.518 1.25-0.965 1.082-0.484-0.183 0.513-1.354 0.881-3.101 0.909-4.822z" fill="#442023"/>
  </g>
  <g transform="matrix(.89377 -.92272 -.92272 -.89377 33.637 56.983)">
   <path d="m0 0c-2.498-1.344-4.75-1.203-5.812 0.325-0.955 1.376-0.44 3.942 2.804 6.267 1.768 1.267 3.837 1.748 5.118 1.327 1.679-1.448 0.916-5.245-2.11-7.919" fill="#0f141b"/>
  </g>
  <g transform="matrix(.89377 -.92272 -.92272 -.89377 41.184 57.336)">
   <path d="m0 0c0.216 0.411 0.604 0.211 0.451-0.257-0.12-0.368-0.246-0.624-0.403-0.884-0.177-0.291-0.402-0.234-0.361 0.131 0.034 0.306 0.132 0.665 0.313 1.01" fill="#0f141b"/>
  </g>
  <g transform="matrix(.89377 -.92272 -.92272 -.89377 48.815 57.382)">
   <path d="m0 0c0.404 0.206 0.221 0.567-0.227 0.467-0.247-0.055-0.495-0.149-0.794-0.3-0.323-0.163-0.287-0.354 0.103-0.375 0.304-0.018 0.597 0.044 0.918 0.208" fill="#0f141b"/>
  </g>
  <g transform="matrix(.89377 -.92272 -.92272 -.89377 62.832 47.962)">
   <path d="m0 0c0.307-1.521-0.411-3.59-2.025-5.306-2.306-2.452-5.197-3.097-6.638-1.741-1.852 1.742-0.479 5.399 2.206 7.551 3.224 1.781 5.715 1.118 6.457-0.504" fill="#0f141b"/>
  </g>
  <g transform="matrix(.89377 -.92272 -.92272 -.89377 58.956 54.004)">
   <path d="m0 0c-1.041-1.08-1.147-2.232-0.558-2.8 0.607-0.585 1.764-0.438 2.846 0.684 0.948 0.983 1.132 2.283 0.518 2.875-0.643 0.619-1.794 0.291-2.806-0.759" fill="#fff"/>
  </g>
  <g transform="matrix(.89377 -.92272 -.92272 -.89377 31.288 54.132)">
   <path d="m0 0c-1.077-0.974-2.152-1.071-2.669-0.5-0.498 0.551-0.336 1.584 0.83 2.638 0.988 0.893 2.106 1.046 2.64 0.44 0.528-0.599 0.22-1.656-0.801-2.578" fill="#fff"/>
  </g>
  <g transform="matrix(.89377 -.92272 -.92272 -.89377 57.725 78.236)">
   <path d="m0 0c7.162-5.286 17.275-4.153 23.688 2.073 7.249 7.037 8.156 16.4 2.546 30.709 3.628-1.024 6.897-0.519 9.892 0.935 4.222 2.05 6.977 5.927 6.492 7.371-0.347 1.037-2.479 2.58-6.706 2.881-2.303 0.163-4.818-0.188-6.555-1.136 0.781 1.526 1.208 3.257 1.092 5.618-0.202 4.095-2.004 7.6-3.137 7.86-1.495 0.344-4.708-2.93-6.449-7.252-1.109-2.755-1.595-5.489-1.47-9.23-9.899 5.328-22.679 4.78-29.531-2.097-6.732-6.758-7.691-15.76-2.936-23.809 0.778-1.318 1.186-1.08 0.456 0.264-4.4 8.104-3.219 16.195 3.235 22.779 6.612 6.744 18.786 6.981 28.57 2.175 0.789-0.388 0.96-0.291 0.922 0.667-0.134 3.459 0.569 6.393 1.562 8.871 1.947 4.86 4.645 7.054 5.493 6.86 0.676-0.156 2.251-3.116 2.379-7.074 0.089-2.755-0.249-4.289-1.173-5.935-0.691-1.234-0.528-1.484 0.735-0.718 1.889 1.144 4.331 1.489 6.749 1.31 3.603-0.267 5.75-1.454 6.019-2.25 0.288-0.861-2.082-4.42-6.184-6.391-2.431-1.169-5.664-1.96-9.308-0.963-1.104 0.301-1.289 0.176-0.895-0.868 4.957-13.129 4.935-22.662-2.496-29.876-6.03-5.855-14.747-7.304-22.696-2.341-1.138 0.711-1.371 0.362-0.294-0.433" fill="#0f141b"/>
  </g>
  <g transform="matrix(.89377 -.92272 -.92272 -.89377 35.191 66.88)">
   <path d="m0 0c-2.904 0.191-5.228 1.68-6.272 4.27-1.271 3.148-0.275 7.299 3.942 11.266 4.165 3.917 9.045 4.572 12.887 2.602 3.231-1.656 4.986-4.491 4.647-8.72-0.089-1.117 0.121-1.08 0.921-0.467 2.285 1.751 5.46 2.84 6.017 2.257 0.587-0.616-0.127-3.921-1.972-6.081-0.545-0.638-0.404-0.94 0.481-0.835 3.578 0.425 6.993-1.57 8.901-5.199 2.16-4.108 1.652-9.591-2.641-13.793-3.887-3.803-8.026-4.734-11.506-3.011-2.622 1.298-4.223 3.87-4.252 6.419l-0.698-0.451c-0.01-2.774 2.014-5.437 4.616-6.725 3.984-1.972 8.442-0.83 12.493 3.136 4.625 4.526 5.004 10.49 2.734 14.809-2.009 3.82-5.84 5.952-9.316 5.563 2.072 2.524 2.68 6.041 1.799 6.823-1.084 0.963-4.709-0.466-6.855-2.182 0.401 3.705-1.378 7.347-4.977 9.192-4.667 2.392-9.967 1.16-13.987-2.623-4.144-3.897-5.592-8.515-4.05-12.336 1.151-2.85 4.135-4.666 6.634-4.641z" fill="#0f141b"/>
  </g>
  <g transform="matrix(.89377 -.92272 -.92272 -.89377 35.612 64.285)">
   <path d="m0 0c-4.225-4.225-3.895-9.333-1.239-11.988 2.744-2.745 7.956-2.734 11.894 1.205 4.276 4.275 3.589 9.591 1.072 12.109-2.394 2.393-7.375 3.026-11.727-1.326m-0.681 0.625c3.886 3.887 9.466 4.663 12.923 1.207 3.387-3.387 3.234-9.089-0.937-13.26-3.857-3.857-9.516-4.616-13.067-1.065-3.269 3.27-3.145 8.892 1.081 13.118" fill="#0f141b"/>
  </g>
  <g transform="matrix(.89377 -.92272 -.92272 -.89377 45.032 72.618)">
   <path d="m0 0c1.854-1.854 4.575-2.565 7.112-1.507 0.862 0.36 0.711 0.772-0.176 0.488-2.742-0.875-4.993 0.147-6.416 1.545-2.025 1.989-2.245 4.551-1.038 6.618 0.496 0.848 0.134 1.087-0.434 0.286-1.68-2.365-1.164-5.314 0.952-7.43" fill="#0f141b"/>
  </g>
  <g transform="matrix(.89377 -.92272 -.92272 -.89377 61.716 48.272)">
   <path d="m0 0c-1.287 1.235-4.625 1.02-7.306-1.773-2.856-2.976-3.119-5.655-1.408-7.284 1.808-1.735 4.638-1.365 7.426 1.54 2.615 2.725 2.539 6.318 1.288 7.517m-7.909-1.175c2.861 2.98 6.726 3.333 8.404 1.723 1.734-1.657 1.699-5.665-1.161-8.645-2.999-3.125-6.277-3.652-8.538-1.483-1.957 1.886-1.935 5.039 1.295 8.405" fill="#0f141b"/>
  </g>
  <g transform="matrix(.89377 -.92272 -.92272 -.89377 22.892 56.53)">
   <path d="m0 0c-3.169-2.853-3.271-5.709-1.881-7.255 1.639-1.812 4.087-1.473 7.152 1.287 2.833 2.549 3.577 5.805 2.278 7.248-1.274 1.405-4.291 1.652-7.549-1.28m-2.403-7.736c-1.615 1.793-1.702 5.14 1.857 8.344 3.581 3.224 7.089 2.9 8.648 1.164 1.586-1.761 0.952-5.522-2.23-8.386-3.425-3.083-6.396-3.217-8.275-1.122" fill="#0f141b"/>
  </g>
  <g transform="matrix(.89377 -.92272 -.92272 -.89377 44.834 21.36)">
   <path d="m0 0c2.056-0.256 4.159-0.159 6.055 0.336 1.012 0.265 0.919 0.716-0.109 0.519-1.944-0.373-3.848-0.416-5.728-0.181 0 1.67 0.199 3.635 0.55 5.45 0.211 1.098-0.237 1.187-0.519 0.105-0.461-1.763-0.651-3.817-0.729-5.65-0.018-0.403 0.144-0.537 0.48-0.579" fill="#009234"/>
  </g>
  <g transform="matrix(.89377 -.92272 -.92272 -.89377 72.099 68.467)">
   <path d="m0 0c3.049-2.811 7.763-3.65 13.275-2.168 4.7 1.263 8.269 3.859 8.886 5.844 0.689 2.211-2.692 6.394-7.631 7.735l-0.327-0.735c4.911-1.297 7.612-5.1 7.149-6.751-0.45-1.601-3.885-4.013-8.337-5.21-4.694-1.261-9.242-0.706-12.056 1.49z" fill="#0f141b"/>
  </g>
  <g transform="matrix(.89377 -.92272 -.92272 -.89377 18.682 67.611)">
   <path d="m0 0c-1.679 2.541-2.265 5.987-1.463 10.269 0.921 4.924 3.437 9.208 5.11 10.116 2.005 1.088 6.717-1.46 8.664-6.424l0.753 0.247c-1.889 5.526-7.198 8.334-9.839 6.901-2.013-1.092-4.624-5.389-5.616-10.685-0.887-4.746-0.083-8.626 2.154-11.502z" fill="#0f141b"/>
  </g>
  <g transform="matrix(.89377 -.92272 -.92272 -.89377 60.365 112.85)">
   <path d="m0 0c0.354-0.497 0.815-0.823 1.237-0.777 0.515 0.056 1.127 0.733 1.042 2.537 3.841 1.299 11.141 4.319 14.15 7.367 2.448 2.479 4.836 6.223 6.1 9.057l-0.709 0.263c-1.275-2.779-3.625-6.379-5.998-8.715-2.835-2.792-9.776-6.003-13.771-7.441-0.293-0.106-0.354-0.198-0.35-0.49 0.022-1.398-0.347-1.879-0.583-1.908-0.183-0.024-0.448 0.133-0.708 0.563z" fill="#0f141b"/>
  </g>
  <g transform="matrix(.89377 -.92272 -.92272 -.89377 57.456 112.81)">
   <path d="m0 0c0.132-1.283 0.778-1.966 1.266-2.041 0.545-0.083 1.181 0.694 1.144 1.991-0.022 0.769-0.428 0.81-0.463 0.042-0.044-0.94-0.376-1.409-0.605-1.368-0.25 0.044-0.797 0.687-0.798 1.976z" fill="#0f141b"/>
  </g>
  <g transform="matrix(.89377 -.92272 -.92272 -.89377 54.4 112.88)">
   <path d="m0 0c0.169-1.049 0.709-1.879 1.227-2.038 0.524-0.161 1.352 0.477 1.374 1.525 0.017 0.871-0.352 0.922-0.462 0.059-0.084-0.651-0.522-1.005-0.756-0.935-0.347 0.106-0.739 0.774-0.875 1.964z" fill="#0f141b"/>
  </g>
  <g transform="matrix(.89377 -.92272 -.92272 -.89377 53.468 86.588)">
   <path d="m0 0c1.028 0.317 1.848 0.536 2.739 0.708 1.206 0.234 1.141 0.634-0.075 0.46-0.909-0.13-1.81-0.321-2.821-0.656-1.018-0.337-0.831-0.818 0.157-0.512" fill="#0f141b"/>
  </g>
  <g transform="matrix(.89377 -.92272 -.92272 -.89377 54.435 113.52)">
   <path d="m0 0c0.443-0.109 1.134 0.522 1.16 1.412 0.022 0.749-0.377 0.791-0.463 0.048-0.071-0.612-0.406-0.83-0.559-0.805-0.287 0.046-0.754 0.867-0.693 2.507 0.012 0.312-0.046 0.412-0.388 0.503-1.018 0.271-1.692 1.111-1.475 1.532 0.121 0.236 0.782 0.143 1.485 0.261 0.233 0.038 0.298 0.084 0.461 0.233 3.692 3.374 7.573 6.051 11.516 8.062 1.345 0.687 1.165 1.059-0.224 0.466-4.145-1.772-8.008-4.62-11.747-8.149-0.706-0.154-1.712 0.02-2.068-0.543-0.49-0.773 0.598-2.078 1.845-2.419-0.09-1.616 0.527-2.954 1.15-3.108" fill="#0f141b"/>
  </g>
  <g transform="matrix(.89377 -.92272 -.92272 -.89377 39.228 111.67)">
   <path d="m0 0c0.025-1.666 0.854-2.632 1.565-2.703 0.68-0.068 1.11 0.882 1.622 2.267 3.02 2.562 7.023 7.585 9.333 12.272 0.573 1.162 0.177 1.373-0.456 0.243-2.424-4.338-6.318-9.411-9.224-12.04-0.13-0.118-0.177-0.161-0.236-0.297-0.47-1.092-0.772-1.793-1.01-1.78-0.384 0.022-0.94 0.748-1 2.086-0.012 0.274-0.068 0.367-0.331 0.488-1.613 0.737-3.623 0.865-3.829 1.514-0.096 0.301 0.218 0.77 1.225 0.959 0.771 0.144 0.7 0.578-0.074 0.459-1.3-0.2-1.994-1.012-1.79-1.592 0.383-1.087 2.69-1.123 4.205-1.876" fill="#0f141b"/>
  </g>
  <g transform="matrix(.89377 -.92272 -.92272 -.89377 38.511 86.797)">
   <path d="M 0,0 C 0.295,0.691 0.517,1.266 0.66,1.863 0.907,2.888 0.557,2.989 0.213,1.992 0.017,1.421 -0.2,0.875 -0.48,0.203 -0.874,-0.74 -0.413,-0.967 0,0" fill="#0f141b"/>
  </g>
  <g transform="matrix(.89377 -.92272 -.92272 -.89377 33.549 112.33)">
   <path d="m0 0c-0.689 0.022-1.201 0.264-1.323 0.555-0.143 0.34 0.223 0.891 1.308 1.123 0.791 0.169 0.711 0.579-0.089 0.457-1.375-0.211-2.173-1.068-1.845-1.822 0.2-0.459 0.769-0.81 1.526-0.854z" fill="#0f141b"/>
  </g>
  <g transform="matrix(.89377 -.92272 -.92272 -.89377 31.102 112.46)">
   <path d="m0 0c-0.595-0.043-1.031 0.236-1.127 0.549-0.117 0.381 0.289 0.86 1.732 1.016 0.867 0.094 0.833 0.506-0.037 0.464-1.666-0.08-2.594-0.845-2.335-1.674 0.139-0.443 0.784-0.933 1.487-0.931z" fill="#0f141b"/>
  </g>
  <g transform="matrix(.89377 -.92272 -.92272 -.89377 27.858 75.513)">
   <path d="m0 0c-2.594-1.096-5.036-2.457-6.688-3.856-4.418-3.739-7.756-9.646-10.244-14.536-2.509 0.241-4.057-0.562-4.015-1.506 0.015-0.339 0.32-0.754 0.671-0.929l0.468 0.396c-0.296 0.129-0.456 0.326-0.465 0.549-0.02 0.441 1.221 1.088 3.279 0.916 0.348-0.03 0.424 0.025 0.565 0.279 2.79 5.008 6.142 10.725 10.297 14.203 1.617 1.355 3.864 2.651 6.375 3.754z" fill="#0f141b"/>
  </g>
  <g transform="matrix(.89377 -.92272 -.92272 -.89377 42.137 106.18)">
   <path d="m0 0c1.017-1.292 2.272-2.707 3.311-3.654l0.627 0.531c-1.028 0.901-2.338 2.379-3.399 3.733z" fill="#0f141b"/>
  </g>
  <g transform="matrix(.89377 -.92272 -.92272 -.89377 61.437 110.44)">
   <path d="m0 0c2.989-1.552 5.873-1.614 8.211-0.288 2.47 1.401 3.926 4.226 3.918 7.389l-0.77-0.509c-0.244-3.017-1.813-5.138-3.597-6.151-2.097-1.189-4.865-1.1-7.693 0.386z" fill="#0f141b"/>
  </g>
  <g transform="matrix(.89377 -.92272 -.92272 -.89377 61.776 112.35)">
   <path d="m0 0c0.841-1.111 1.581-1.429 2.062-1.201 0.458 0.217 0.678 1.146 0.459 2.153l-0.648 0.223c0.259-1.012 0.046-1.679-0.123-1.759-0.173-0.083-0.61 0.117-1.23 0.909z" fill="#0f141b"/>
  </g>
  <g transform="matrix(.89377 -.92272 -.92272 -.89377 29.176 108.59)">
   <path d="m0 0c-1.197 1.96-1.269 4.171-0.123 6.217 1.455 2.599 4.373 4.295 7.822 4.402l0.607 0.736c-3.808 0.118-7.464-1.654-9.201-4.756-1.185-2.118-1.254-4.458 0.047-6.647z" fill="#0f141b"/>
  </g>
  <g transform="matrix(.89377 -.92272 -.92272 -.89377 26.776 108.24)">
   <path d="m0 0c-1.252 0.485-2.23 0.037-2.587-0.674-0.318-0.633 0.084-1.344 0.9-1.88l0.382 0.482c-0.626 0.417-0.801 0.819-0.648 1.123 0.189 0.378 0.868 0.841 2.206 0.225z" fill="#0f141b"/>
  </g>
  <g transform="matrix(.89377 -.92272 -.92272 -.89377 23.368 104.66)">
   <path d="m0 0c-4.199 4.038-4.763 9.654-1.261 14.514 2.779 3.857 7.056 6.004 11.242 5.227 2.862-0.531 4.702-2.695 4.373-4.725-0.331-2.032-2.696-3.791-5.37-2.884-2.758 0.937-4.775 0.323-6.266-1.508-1.916-2.352-1.492-4.913 0.196-6.922l0.506 0.347c-1.456 1.844-1.746 4.18-0.152 6.137 1.458 1.789 3.19 2.074 5.492 1.293 3.325-1.129 5.931 1.106 6.307 3.42 0.372 2.297-1.517 4.876-4.959 5.515-4.538 0.841-9.001-1.437-11.951-5.481-3.76-5.156-3.011-11.427 1.656-15.559z" fill="#0f141b"/>
  </g>
 </g>
</svg>
