<?xml version="1.0" encoding="UTF-8"?>
<!-- Created with Inkscape (http://www.inkscape.org/) -->
<svg version="1.1" viewBox="0 0 82.528 91.085" xmlns="http://www.w3.org/2000/svg">
 <path d="m60.455 5.3306c-0.077554-0.31868-0.30395-1.2481-1.2473-1.2876-6.3388-0.26732-16.716 2.379-21.189 10.83-4.401-2.7512-11.938-3.9291-18.268-1.4211-1.6447-6.0273-8.6014-11.754-15.646-13.043-0.98519-0.18029-1.6044 0.21974-1.9852 1.1976-3.0873 7.945-2.6488 23.369 7.6718 26.129-0.20234 1.1116-0.44219 2.3284-0.84522 3.7505-6.5183 8.2721 6.4728 19.04 16.639 20.618 10.612 1.6473 21.838-7.6071 22.413-12.198 0.37851-3.0174-0.57261-4.1262-0.64026-7.7492-0.02049-1.1197-0.09044-2.238-0.2147-3.338 13.034-0.8196 15.246-15.494 13.312-23.488" fill="#fff"/>
 <path d="m19.751 13.452c-1.6447-6.0273-8.6014-11.753-15.646-13.043-0.98519-0.18029-1.6044 0.21974-1.9851 1.1983-3.0873 7.945-2.6488 23.369 7.6718 26.129-0.20239 1.1109-0.44224 2.3278-0.84522 3.7505-0.0086 0.0088-0.01508 0.02082-0.02321 0.03151 1.2902 1.3532 3.5064 2.4204 6.2789 2.7306 2.6255 0.29391 4.71-2.5072 4.5584-5.8155-0.3142-6.839 0.3824-12.179 2.5493-15.786-0.86706 0.20739-1.7234 0.47405-2.5586 0.80419" fill="#D5C8A0"/>
 <path d="m21.87 12.868c-1.9282 3.4786-2.8021 8.4966-2.477 15.582 0.15234 3.3181-1.6712 5.755-4.1432 5.4762-2.5955-0.29044-4.8767-1.2738-6.1642-2.6906l-0.36846 0.52394c1.4297 1.446 3.8108 2.4838 6.4636 2.7808 2.748 0.30892 5.1251-2.2294 4.9458-6.1241-0.33447-7.2877 0.42382-12.421 2.5309-15.76z" fill="#EAE4D1"/>
 <path d="m15.96 22.411c2.4098 0.20413 3.7447 2.7391 3.7994 6.0223 0.05561 3.3517-1.8367 6.0052-4.3954 5.7935-2.669-0.22111-4.2136-3.3362-3.8983-6.6108 0.28541-2.963 1.9644-5.4198 4.4944-5.205" fill="#FFF462"/>
 <path d="m19.393 28.44c0.04808 2.9133-1.3354 5.6623-4.0086 5.4375-2.2541-0.18719-3.8625-3.0096-3.5524-6.2264 0.26816-2.7869 1.7859-5.088 4.1021-4.8907 2.0812 0.17638 3.4034 2.3629 3.4588 5.6797m-3.3998-6.376c-2.5446-0.2155-4.5576 2.0418-4.8927 5.5172-0.38382 3.9909 1.6308 6.7669 4.2394 6.9837 2.2543 0.18849 4.8613-1.6903 4.7878-6.1375-0.06253-3.7256-1.6457-6.1519-4.1345-6.3633" fill="#ECDF87"/>
 <path d="m60.455 5.3306c-0.07755-0.31868-0.30395-1.2481-1.2473-1.2876-6.3388-0.26732-16.716 2.379-21.189 10.83-0.21752-0.13634-0.44306-0.26634-0.67577-0.39491-2.7419 7.0346-4.1464 17.656-1.2011 20.511 2.6417 2.5611 8.4136 2.6989 11.453-0.15683-0.1173-0.74786-0.21608-1.6001-0.23601-2.6763-0.02049-1.1197-0.09044-2.238-0.2147-3.338 13.034-0.81962 15.246-15.494 13.312-23.488" fill="#D5C8A0"/>
 <path d="m36.397 34.726c-2.6797-2.5975-1.5973-12.781 1.1918-20.005l-0.54815-0.30978c-2.6062 6.7433-4.1509 17.642-0.97497 20.72 2.6982 2.6151 8.263 2.849 11.483 0.14397l-0.14166-0.6984c-2.6519 2.5556-8.2851 2.7901-11.01 0.14882" fill="#EAE4D1"/>
 <path d="m39.66 24.564c2.627 0.19089 4.0687 2.7185 4.1096 6.0021 0.03646 2.9399-2.0969 6.0147-4.827 5.821-2.9097-0.20607-4.5769-3.313-4.2139-6.5916 0.32806-2.9652 2.1731-5.4315 4.9313-5.2316" fill="#FFF462"/>
 <path d="m43.393 30.571c0.03371 2.7377-2.0177 5.67-4.4256 5.4974-2.7611-0.19588-4.2471-3.1897-3.9106-6.2294 0.30479-2.7582 2.1519-5.1661 4.5905-4.9887 2.2834 0.16632 3.7044 2.4075 3.7457 5.7208m-3.7099-6.3138c-2.75-0.1966-4.9354 2.026-5.3195 5.4981-0.27892 2.5188 1.019 6.5018 4.5554 6.7528 2.9292 0.21104 5.267-2.7506 5.2269-5.9527-0.04572-3.6735-1.8047-6.1059-4.4628-6.2982" fill="#ECDF87"/>
 <path d="m25.796 30.306c-1.7366 0.17527-2.6518 0.93049-2.5707 1.4941 0.12777 0.8914 2.159 2.5828 2.9967 2.6606 0.79126 0.07436 3.4404-1.1052 3.5799-1.9137 0.17975-1.0412-1.5068-2.0416-2.483-2.1449" fill="#FFF462"/>
 <path d="m15.574 16.193c-1.648-6.929-9.6324-13.822-11.748-14.635-0.46829-0.17992-0.96732-0.32423-1.4629-0.43525-0.088449 0.14305-0.17185 0.3002-0.24388 0.48341-3.0873 7.945-2.6488 23.369 7.6718 26.129 0.69678-3.824 0.93908-6.3715 5.783-11.543" fill="#D7E7AF"/>
 <path d="m3.8771 1.5808c0.47367 4.6472 4.644 11.683 10.497 16.067 0.17437-0.37424 0.73552-0.90409 1.2007-1.4544-1.6359-6.8778-9.5117-13.717-11.697-14.612" fill="#BAC998"/>
 <path d="m15.574 16.193c-0.84072-3.536-3.332-7.0613-5.8511-9.7755-1.2451-0.60079-2.6457-1.0478-3.2187-0.6956-1.608 0.98869-3.1051 13.95 4.5196 16.998 0.73881-1.83 2.0131-3.8185 4.5503-6.5268" fill="#FFF462"/>
 <path d="m15.577 16.318s-1.6105-5.6741-5.8541-9.8998c-1.0323-0.49821-2.1707-0.92253-2.8503-0.80157-0.74413 0.13075-1.1042 1.6588-1.1042 1.6588 1.2659 3.3422 6.7392 7.9814 9.8086 9.0426" fill="#DFD355"/>
 <path d="m58.158 5.2702c-3.9434 0.91237-13.793 5.9837-15.843 12.658 2.9858 2.6324 4.3453 6.619 4.829 10.89 13.034-0.81964 15.246-15.494 13.312-23.488-0.01135-0.0477-0.0282-0.11176-0.04858-0.18198-0.57759-0.17824-1.3267-0.091655-2.2486 0.12163" fill="#D7E7AF"/>
 <path d="m42.315 17.929c0.74314 0.59777 1.2804 1.1049 1.6481 1.8026 11.144-9.7928 12.928-11.225 14.565-14.526-0.0088-0.0011-0.02192-0.0022-0.03195-0.00551-0.11277 0.024236-0.21942 0.041751-0.33716 0.068961-3.9435 0.91169-13.793 5.9837-15.843 12.658" fill="#BAC998"/>
 <path d="m38.133 28.518c1.6865 0.12293 2.4502 2.0421 2.273 3.8227-0.16766 1.6797-1.1728 3.2354-3.0315 3.0396-1.5786-0.1654-2.1807-1.9383-1.9925-3.6414 0.18812-1.7037 1.1673-3.3358 2.751-3.2209" fill="#D7E7AF"/>
 <path d="m37.796 32.19c-0.34719 0.22029-1.5032 1.0612-1.6738 1.2163 0.17508 0.24607 0.98039 1.3292 1.1944 1.5675 0.26909-0.17563 1.4038-0.93904 1.7626-1.2506-0.18034-0.29445-1.0744-1.3663-1.2832-1.5332" fill="#FFF462"/>
 <path d="m37.796 32.19c0.17498-0.10201 1.6261-0.94538 2.5063-1.4756-0.2767-1.1653-1.001-2.112-2.1695-2.1963-1.1447-0.08361-1.9719 0.74824-2.4142 1.859 0.72321 0.69231 1.9685 1.7308 2.0775 1.8129" fill="#30363A"/>
 <path d="m38.038 28.74c0.20879 0.16688 1.2544 1.31 1.4354 1.6044-0.31255 0.2003-1.4742 0.94018-1.6824 1.0621-0.13358-0.11827-1.1846-1.0619-1.378-1.2663 0.17118-0.15514 1.2786-1.1799 1.6251-1.4002" fill="#0d131a"/>
 <path d="m39.474 30.345c-0.18115-0.295-1.228-1.3821-1.4368-1.5489-0.34719 0.2203-1.4525 1.1896-1.6231 1.3447 0.19277 0.2044 1.2438 1.1481 1.3773 1.2657 0.20894-0.12126 1.3706-0.86119 1.6825-1.0614" fill="#fff"/>
 <path d="m16.45 26.85c-1.4213 0.05695-2.3273 1.7207-2.2762 3.6409 0.04582 1.7505 1.0152 3.4445 2.6249 3.3542 1.5172-0.08549 2.2351-1.969 2.1616-3.6071-0.08158-1.8017-0.9938-3.4489-2.5104-3.388" fill="#D7E7AF"/>
 <path d="m16.643 30.672c0.33638 0.2355 1.2657 1.1186 1.4286 1.2806-0.18678 0.2388-1.0376 1.2242-1.2809 1.4168-0.31254-0.20184-1.2012-1.1357-1.5458-1.4629 0.25964-0.283 1.1815-1.0771 1.398-1.2346" fill="#FFF462"/>
 <path d="m16.542 27.288c0.33575 0.23555 1.3036 1.2665 1.4666 1.4298-0.20228 0.19458-1.2513 1.0861-1.3905 1.1977-0.20258-0.13094-1.1944-0.98006-1.4765-1.2292 0.19412-0.28621 1.1839-1.2408 1.4004-1.3983m2.2506 1.8258c-0.3364-1.3061-1.1519-2.312-2.3425-2.2639-1.0125 0.04131-1.7623 0.90049-2.0918 2.0851 0.80831 0.62867 2.1157 1.6278 2.2849 1.7373 0.20492-0.13019 1.3572-0.97612 2.1494-1.5585" fill="#30363A"/>
 <path d="m18.009 28.718c-0.16362-0.16335-1.1308-1.1936-1.4666-1.4298-0.21651 0.15756-1.2063 1.1127-1.4004 1.3989 0.28212 0.24918 1.2733 1.0982 1.4765 1.2292 0.13844-0.11231 1.1882-1.0031 1.3904-1.1983" fill="#fff"/>
 <g fill="#FFF462">
  <path d="m55.7 9.1939c-0.29025-0.45286-3.0201-0.78966-5.3369-0.32434-3.5195 2.2726-6.9341 5.4325-8.0485 9.0594 1.888 1.6649 3.1261 3.8716 3.9045 6.3479 7.8242-0.30335 11.38-12.119 9.4809-15.083"/>
  <path d="m81.033 24.858c-1.6388 0.53175-4.9647 2.4806-6.7609 3.9245-1.1566-1.0656-3.4579-2.988-4.3505-2.8187-1.832 0.34718-5.0224 5.3188-6.3194 9.9357 1.1739 0.64154 2.2328 1.3756 3.1763 2.1811 1.1297-0.63905 2.6387-1.7258 3.9396-2.8351 0.61209 0.51089 1.4936 1.0834 2.5056 1.6473 0.91539 0.5111 1.2773 0.47882 2.0552 0.01113 3.1497-1.8942 6.6425-7.6086 6.8771-11.312 0.04671-0.74219-0.13634-1.0542-1.1228-0.73407"/>
  <path d="m47.347 31.784c0.0022 0.12442 0.0088 0.24911 0.01157 0.37285 0.06731 3.623 1.0184 4.7318 0.64026 7.7492-0.57528 4.5913-11.801 13.846-22.413 12.198-6.8016-1.0555-14.867-6.2254-17.509-12.009-2.3705 2.6578-4.0075 7.4633-3.9773 11.004 0.10136 12.04 14.757 21.749 25.058 21.422 18.465-0.58536 25.96-14.394 25.27-25.384-0.37966-6.0367-3.1467-13.653-7.0793-15.354"/>
 </g>
 <path d="m72.837 49.647c-0.48023-7.6443-7.782-17.679-23.321-16.237 2.7562 3.0013 4.6046 8.8749 4.9097 13.728 0.69046 10.991-6.8049 24.799-25.27 25.384-6.2638 0.19849-14.132-3.3169-19.364-8.8072 0.05375 1.8725 0.65841 4.5055 1.8967 6.4325-3.1708 0.52538-7.9451 3.0214-7.8802 6.3249 0.052955 2.6841 2.846 4.1701 5.6425 4.1777 3.5773 0.01113 7.1084-0.86498 8.7925-3.3643 0.61193-0.90781 0.80312-2.0587 0.29779-3.5764 1.0899-0.02269 2.4588-0.09892 4.2478 0.43002 5.7441 1.6991 7.4788 4.1407 11.3 5.1792-0.8898 2.1917-1.4866 5.8599-0.7769 7.7479 0.67998 1.8067 3.3286 3.7033 6.5281 3.6246 4.1969-0.10377 6.3972-3.0126 6.4662-6.4925 0.04693-2.3488-1.1774-5.1842-2.6338-6.7704 2.0713-1.6187 3.8374-3.7444 6.1505-5.2517 2.7151-1.767 5.102-2.3416 7.8936-2.6032-1.1041 0.81496-1.6451 1.9444-1.5804 3.2424 0.0943 1.8764 2.3002 3.4131 5.7106 3.1727 6.7461-0.47602 9.943-7.838 7.4826-11.324 2.5505-3.552 3.8873-8.9704 3.5076-15.016" fill="#dcdddd"/>
 <path d="m49.516 33.41c2.7563 3.0019 4.6046 8.8748 4.9098 13.728 0.69042 10.99-6.805 24.799-25.27 25.384-0.17098 0.0055-0.34604 6.17e-4 -0.51944 3.53e-4 2.4274 2.2628 6.8276 3.5467 10.497 3.1703 5.2536-0.53907 8.6004-5.4114 12.793-7.3443 5.7542-2.6541 12.335-3.0025 16.058-5.2192 2.0976-1.249 3.368-2.9636 4.1999-5.0497 0.60314-2.5526 0.84219-5.4135 0.65229-8.4325-0.48038-7.6443-7.782-17.679-23.321-16.237" fill="#D5C8A0"/>
 <path d="m63.952 37.78c1.147 0.98128 3.5981 2.0674 5.4618 3.0823-1.5503-2.0334-3.6376-3.8626-6.2914-5.2183-0.28097 0.6585-0.06378 1.3712 0.82957 2.136" fill="#FFF462"/>
 <path d="m63.952 37.78c-0.89329-0.76477-1.1105-1.4774-0.82957-2.136-1.3093-0.66872-2.7579-1.2179-4.3462-1.6225-0.99775 0.16539-1.7735 0.465-1.7918 0.6445-0.04021 0.4107 1.2827 0.77769 2.4827 1.665-0.02688 1.2508 1.1397 2.8799 2.3995 3.9423 2.2845 1.9265 7.9298 3.4175 10.332 5.9705-0.56042-1.8277-1.483-3.6752-2.7851-5.3815-1.8638-1.0149-4.3148-2.101-5.4618-3.0823" fill="#D7E7AF"/>
 <path d="m9.7924 63.715c0.04593 1.5929 0.48992 3.7367 1.3838 5.5305 1.3201-0.05288 2.6951-0.71517 3.3664-1.5349-1.7216-1.163-3.3315-2.5066-4.7502-3.9956" fill="#B8AE8B"/>
 <path d="m50.363 8.8699c-3.5201 2.2733-6.9341 5.4325-8.0485 9.0594 4.5978-0.61785 10.118-5.1665 13.426-8.7449-1.2685-0.67799-3.8222-0.62639-5.3776-0.31442" fill="#DFD355"/>
 <path d="m47.941 40.207c-4.6472 5.8913-13.198 10.172-20.867 9.8752-8.1789-0.31644-16.618-5.4392-19.733-12.241 1.2816 6.6405 10.567 13.072 18.244 14.264 10.387 1.6117 21.356-7.2182 22.355-11.898" fill="#dcdddd"/>
 <path d="m4.2586 53.121c1.5949 11.086 15.181 19.709 24.898 19.401 15.37-0.48743 23.134-10.136 24.908-19.697-7.3138 13.282-37.647 19.992-49.806 0.29562" fill="#DFD355"/>
 <path d="m67.985 63.129c2.0976-1.249 3.3687-2.9637 4.1999-5.0497 0.60314-2.5526 0.84219-5.4135 0.65229-8.4325-0.05629-0.91702-0.21635-1.8684-0.47244-2.8304 0.08516 9.5074-11.702 12.503-20.165 11.831-3.4204 7.315-10.832 13.487-23.044 13.874-0.17098 0.0055-0.34604 6.17e-4 -0.51944 3.64e-4 2.4274 2.2628 6.8276 3.5467 10.497 3.1703 5.2536-0.53904 8.6011-5.4115 12.793-7.3443 5.7542-2.654 12.336-3.0026 16.058-5.2192" fill="#B8AE8B"/>
 <path d="m14.22 67.658c-0.64269 0.70136-1.9149 1.2749-3.0967 1.3018l0.2797 0.52558c1.3475-0.12889 2.6175-0.71342 3.3215-1.5352z" fill="#CAC6B5"/>
 <path d="m67.842 62.817c-3.6659 2.1837-10.435 2.6874-16.042 5.2733-4.3096 1.9873-7.3567 6.6881-12.704 7.2367-3.512 0.36082-7.5501-0.77663-9.9011-2.6944l-0.88624 0.0055c2.5672 2.5197 7.3984 3.7781 10.862 3.4193 5.289-0.54195 8.5429-5.4377 12.899-7.4472 5.4334-2.5052 12.782-3.2514 16.059-5.2015 1.5237-0.90795 2.7696-2.196 3.5638-3.6719l0.65144-3.0734c-0.7767 2.671-2.0294 4.6814-4.5017 6.1536" fill="#CAC6B5"/>
 <path d="m33.747 80.378c-0.5853 1.5873-1.3736 4.8255-0.40197 6.8041 1.254 2.5528 4.4955 3.5583 6.4955 3.5086 2.7021-0.06654 4.8871-1.2223 6.1099-3.7597 1.1456-2.3775-0.17483-6.2644-0.86659-7.4821-0.85418 1.6686-2.7706 2.6918-5.7075 2.8856-3.1193 0.20463-4.5651-0.77849-5.6294-1.9564" fill="#fff"/>
 <path d="m10.174 70.5c-3.5959 1.3078-6.4095 3.7236-6.3651 5.9726 0.053142 2.6841 2.8453 4.1695 5.6425 4.1777 4.78 0.013 8.9719-1.6808 9.3653-5.1761-4.6198 1.3719-10.881-1.8586-8.6428-4.9742" fill="#fff"/>
 <path d="m82.156 25.592c0.02941-0.45523-0.03129-0.74571-0.30671-0.83126-0.69962 3.8862-5.44 8.9855-6.332 9.1212-0.88816 0.13521-2.0884-0.79545-2.3344-1.3357-0.92157 0.82176-5.4753 3.5146-7.7499 4.4953 0.47084 0.33194 0.92172 0.67737 1.3462 1.0388 1.1291-0.63897 2.6381-1.7257 3.9389-2.835 0.6121 0.51086 1.4936 1.0834 2.5056 1.6473 0.91602 0.51104 1.2773 0.47884 2.0552 0.01124 3.1497-1.8942 6.6431-7.6086 6.8771-11.312" fill="#DFD355"/>
 <g fill="#0d131a">
  <path d="m25.527 52.498c-10.692-1.6591-23.575-12.625-16.927-21.192 1.9984-7.1135 0.31817-8.8093 6.5139-15.168-1.7553-6.903-9.3639-13.506-11.221-14.347-0.64766-0.29307-0.4991-0.62039 0.16591-0.36498 2.3848 0.91352 10.291 7.7908 11.928 14.675 0.03589 0.14863 0.0094 0.22866-0.08853 0.33622-6.0546 6.5847-4.537 7.9042-6.5914 15.155-0.01304 0.0466-0.03492 0.08923-0.0647 0.1272-5.9503 7.5512 6.057 18.39 16.403 19.997 9.5679 1.4829 21.198-7.0167 21.872-11.892 0.41652-3.012-0.45688-3.8878-0.52726-7.6608-0.12183-6.599-2.0197-11.42-4.9848-14.033-0.13921-0.12312-0.16006-0.21566-0.10796-0.38411 2.161-6.9633 12.526-12.012 16.197-12.672 0.83485-0.15012 0.91304 0.18494 0.09276 0.3906-3.8728 0.96918-13.303 6.1506-15.396 12.391 3.3857 3.1126 4.8084 7.508 4.9337 14.295 0.0716 3.8686 1.1724 4.6077 0.77547 7.7711-0.62071 4.9544-12.293 14.238-22.974 12.577"/>
  <path d="m38.807 15.062c-4.0525-3.325-12.043-4.6859-18.765-2.1207-1.8565-5.9889-8.7641-11.592-15.872-12.893-1.1392-0.2094-1.9443 0.27137-2.3936 1.4262-3.4783 8.9501-2.3421 23.998 7.8246 26.723l0.18422-0.96246c-9.5772-2.651-10.512-17.294-7.3238-25.495 0.32399-0.83347 0.78018-1.1154 1.576-0.96962 7.0068 1.2826 13.696 6.9198 15.302 12.803 0.07713 0.28242 0.26128 0.3326 0.50139 0.23776 6.0934-2.4155 13.999-1.2545 18.638 1.7026 1.3334 0.84938 1.5502 0.55076 0.32826-0.45143"/>
  <path d="m60.787 5.2455c-0.26567-1.1036-0.82349-1.5385-1.5637-1.5695-7.3405-0.30983-17.2 2.8933-21.501 10.775l0.80725 0.48699c4.7465-8.816 15.531-10.745 20.663-10.528 0.44525 0.018617 0.76261 0.26385 0.942 1.0053 2.0388 8.4244-0.81569 22.134-12.916 22.954l0.08548 0.88365c12.683-0.87922 15.677-14.889 13.483-24.007"/>
  <path d="m56.009 8.9959c-0.37192-0.5807-2.6283-0.78747-4.7708-0.54473l-1.4947 0.899c2.2606-0.69279 5.3716-0.36217 5.6473 0.04175 1.8609 2.7272-1.8283 14.189-9.1973 14.464l0.30286 0.83223c8.2885-0.55883 11.405-12.739 9.5127-15.693"/>
  <path d="m6.6971 6.0347c0.48956-0.30116 2.1572 0.2275 3.3297 0.83551l-0.99457-1.0999c-1.0765-0.46628-2.2254-0.66489-2.72-0.36133-1.7832 1.096-3.4835 14.416 4.519 17.666l0.31103-0.74207c-7.0184-2.85-6.0708-15.299-4.4452-16.299"/>
  <path d="m31.392 32.675c-2.7936-1.9843-6.42-2.168-9.2824-0.88729-0.69947 0.31374-0.90317-0.06444-0.22812-0.42696 3.381-1.815 7.1173-1.4004 9.8247 0.89162 0.72614 0.61562 0.37465 0.91205-0.31414 0.42263"/>
  <path d="m29.806 31.544-1.6396-0.49202c0.64463 0.31243 1.3658 0.89944 1.2743 1.4324-0.09225 0.53232-2.3719 1.7481-3.1761 1.6689-0.91547-0.08604-2.5833-1.7596-2.6758-2.406-0.03738-0.27383 0.54361-0.67939 1.2706-0.89055l-1.6861 0.23637c-0.25171 0.2751-0.3537 0.46276-0.31101 0.75859 0.12982 0.90966 2.3183 2.8137 3.3507 2.9104 1.0092 0.0954 3.7807-1.168 3.9512-2.153 0.05905-0.34238-0.07992-0.79315-0.35818-1.065"/>
  <path d="m40.063 32.274c-0.18151 1.8245-1.2971 2.9575-2.6624 2.8135-1.2023-0.12647-1.8838-1.6217-1.6959-3.3202 0.18661-1.6898 1.1486-3.0732 2.4021-2.9814 1.3549 0.09793 2.1488 1.5572 1.9562 3.4881m-1.9267-4.0449c-1.7335-0.12498-2.8727 1.5248-3.0881 3.4674-0.23657 2.1422 0.68916 3.8022 2.2684 3.9675 1.9066 0.20116 3.2148-1.3333 3.4114-3.3027 0.24157-2.4195-1.1235-4.0257-2.5918-4.1322"/>
  <path d="m16.433 27.219c-1.1281 0.07061-1.9396 1.4642-1.8926 3.2621 0.02785 1.0308 0.40398 2.0027 0.98299 2.5361 0.36146 0.3323 0.78362 0.48825 1.2547 0.4609 0.0019 4.96e-4 0.0056 1.88e-4 0.0094-1.1e-4 1.271-0.08031 1.8846-1.492 1.8061-3.2233-0.07027-1.5488-0.82335-3.0904-2.1283-3.0376-0.01118 9.03e-4 -0.02159 0.0011-0.03219 0.0022m0.40178 6.9914-0.01491 0.0011c-0.66675 0.03768-1.2871-0.18862-1.7934-0.65542-0.73012-0.67199-1.1863-1.8147-1.2194-3.056-0.0579-2.2037 1.0484-3.9181 2.5805-4.0146 0.01677-7.05e-4 0.03219-0.0022 0.04864-0.0022 1.7846-0.07227 2.8057 1.8258 2.8917 3.7378 0.08408 1.8555-0.76142 3.8801-2.4923 3.9889"/>
  <path d="m47.45 31.438 0.039 0.79054c3.5186 1.8294 6.0737 8.8864 6.4533 14.93 0.74192 11.804-7.7341 24.394-24.793 24.947-10.035 0.31758-24.432-9.1437-24.532-21.028-0.029953-3.5206 1.4792-7.9386 3.588-10.46l-0.35418-0.91176c-2.3566 2.6112-4.2999 7.5156-4.2673 11.382 0.10242 12.101 14.73 22.182 25.579 21.837 17.71-0.54662 26.522-13.441 25.745-25.812-0.41299-6.5712-3.3945-13.926-7.457-15.675"/>
  <path d="m49.345 33.058 0.6559 0.63519c14.695-1.1501 21.912 8.3052 22.393 15.958 0.6175 9.8257-3.31 17.26-8.7008 18.836-1.634 0.47861-1.2014 0.73722 0.07755 0.46304 6.1771-1.3214 10.123-9.4264 9.4996-19.354-0.54184-8.6215-8.7822-18.011-23.925-16.538"/>
  <path d="m13.338 71.677c-1.9095-1.6137-2.8714-4.8668-3.0674-7.3071l-0.98712-0.96078c0.01248 2.6571 1.2878 6.9096 3.7973 8.6377 0.75378 0.51841 1.0419 0.29374 0.25715-0.36982"/>
  <path d="m18.077 73.805c0.4526 1.3164 0.42263 2.3914-0.18869 3.2985-1.2573 1.8658-4.1911 3.1767-8.4352 3.1624-2.5849-0.0077-5.0996-1.3234-5.1485-3.82-0.061272-3.1067 4.5262-5.468 7.5058-5.9461l-0.39364-0.6771c-3.2828 0.62289-8.1938 3.1887-8.1259 6.6502 0.058463 2.9684 3.2134 4.5586 6.1557 4.5675 3.9458 0.01113 7.5342-1.0911 9.1954-3.5562 0.70187-1.0411 0.84708-2.2627 0.4103-3.6997z"/>
  <path d="m6.7633 74.464c-1.7119 0.83112-2.3603 2.235-2.1476 3.9317l0.99878 1.1029c-0.83395-1.7869-0.2458-3.8069 1.3626-4.638 0.65139-0.33749 0.44693-0.71696-0.21374-0.39652"/>
  <path d="m10.435 76.589c-1.4884 0.74294-2.6711 2.5538-2.4842 3.8056l0.82976 0.11772c-0.34308-1.0419 0.67496-2.7061 1.9217-3.542 0.57813-0.38684 0.35402-0.6922-0.26726-0.38157"/>
  <path d="m37.454 79.562c-5.9866-0.36872-7.8408-3.8348-14.541-5.8315-1.7015-0.50735-4.0682-0.42561-5.6584-0.31446-1.1131 0.07656-1.1912 0.28281-0.08801 0.4542 1.5624 0.24118 3.3981-0.04495 5.5402 0.67425 7.3856 2.4791 8.0662 5.1784 14.706 5.4705 0.80655 0.03459 0.86362-0.40232 0.04139-0.45301"/>
  <path d="m40.654 78.938c2.2222-0.95199 3.5609-2.3868 5.2345-3.9597 1.1538-1.0847 2.3229-2.2491 3.7099-3.1525 2.7037-1.7614 5.125-2.5115 9.9481-2.6323 1.2277-0.02996 1.254 0.39569 0.02985 0.4788-3.4033 0.23057-6.1972 0.66576-9.5305 2.8374-1.3319 0.86723-2.5182 1.9579-3.6488 3.0209-1.6522 1.5527-3.3573 3.0056-5.6002 3.8169-0.57755 0.20884-0.85822-0.10322-0.14306-0.40955"/>
  <path d="m44.1 77.315-0.63753 0.45835c1.3061 1.4831 2.4483 4.1598 2.4029 6.4386-0.07216 3.6351-2.4132 5.9852-6.0505 6.0873-2.9995 0.07337-5.418-1.7259-6.0519-3.4124-0.64383-1.7114-0.22603-5.2311 0.66143-7.4193l-0.70934-0.20103c-0.87067 2.2-1.6074 5.939-0.83793 7.9849 0.73832 1.9634 3.5997 3.9145 6.9663 3.8313 3.9209-0.09243 6.8333-2.606 6.9179-6.838 0.04495-2.2682-1.1329-5.1872-2.6613-6.9297"/>
  <path d="m42.47 85.898c-0.40187-0.61647-0.83589-0.38578-0.47353 0.23917 0.38364 0.65947 0.54544 2.5627 0.05078 4.0569l0.90325-0.36144c0.35882-1.5351 0.0217-3.1642-0.48053-3.9346"/>
  <path d="m37.683 86.129c0.38373-0.59509 0.01002-0.84337-0.39181-0.25997-0.66636 0.96765-0.93447 2.6766-0.48406 4.1435l0.93437 0.31638c-0.62957-1.2959-0.64742-3.2848-0.05851-4.1999"/>
  <path d="m69.716 64.401-0.59605 0.75552c2.0435 3.3306-1.0748 10.003-7.3043 10.443-2.9847 0.23787-5.2019-1.0678-5.2896-2.7978-0.06588-1.319 0.52717-2.4099 1.7296-3.1511l-1.3123 0.10807c-0.8178 0.82511-1.2523 1.8707-1.1919 3.0675 0.10708 2.1457 2.5071 3.7667 6.1184 3.5401 7.2875-0.51378 10.365-8.3552 7.8461-11.965"/>
  <path d="m62.521 71.883c-0.90505 0.86259-1.6396 2.5439-1.4719 3.9634l0.7918-0.02379c-0.17992-1.1588 0.31594-2.8798 1.046-3.6173 0.49754-0.50156 0.14525-0.81023-0.36594-0.32272"/>
  <path d="m58.723 71.099c-1.0002 0.77941-1.5496 2.1844-1.5363 3.5553l0.80543 0.51286c-0.1877-1.1897 0.09099-2.8502 1.0215-3.7155 0.48829-0.45334 0.23429-0.7615-0.29062-0.35263"/>
  <path d="m62.107 40.061c-1.3576-1.1454-2.3784-2.7099-2.3573-3.717 0.0011-0.11827-0.05321-0.23166-0.14866-0.30231-0.68428-0.50695-2.1415-1.0337-2.1842-1.3374-0.01895-0.13894 0.6713-0.40834 1.5241-0.53222l-0.75643-0.21224c-0.81069 0.13895-1.539 0.39895-1.5717 0.72404-0.06136 0.62668 1.6061 0.9918 2.611 1.7355 0.02412 1.397 1.2416 3.0614 2.4633 4.0926 2.4623 2.076 8.1141 3.3246 10.518 6.099l-0.21424-0.9654c-2.4201-2.2779-7.5974-3.657-9.884-5.5846"/>
  <path d="m68.843 40.276c-0.94382-0.48834-3.4428-1.6127-4.6544-2.65-0.81096-0.69304-1.0316-1.3751-0.90683-1.767l-0.42559-0.19793c-0.23103 0.64852-0.1348 1.4212 0.97471 2.3706 1.1115 0.9506 4.2012 2.3081 5.5449 3.0736z"/>
  <path d="m75.035 29.197c-0.98734-1.0438-3.9339-3.874-5.1848-3.6272-1.989 0.37718-5.1908 5.363-6.5526 10.058l0.66662 0.33963c1.3193-4.6826 4.4384-9.2937 6.0165-9.5924 0.76199-0.1382 3.6375 2.0411 4.7504 3.1452 0.76353 0.75824 1.0436 0.45844 0.30379-0.3235"/>
  <path d="m80.92 24.509c-1.6588 0.53801-4.9137 2.5246-6.758 3.9928l0.46879 0.39537c1.789-1.3951 4.9823-3.1921 6.5158-3.6895 0.60623-0.19674 0.67557-0.15478 0.6427 0.36136-0.22284 3.5327-3.667 9.197-6.6999 11.021-0.63836 0.38388-0.96326 0.38542-1.6865-0.01675-0.97056-0.54085-1.782-1.0394-2.3452-1.4917l-0.51395 0.45414c0.73979 0.61315 1.7051 1.2349 2.5009 1.6787 1.0169 0.5674 1.6717 0.45708 2.4232 0.0055 3.2546-1.9575 6.815-7.8132 7.0543-11.604 0.07414-1.1782-0.53235-1.4529-1.6023-1.1062"/>
  <path d="m72.708 32.928c-1.3647 1.5773-4.2804 3.7286-6.1276 4.7751l0.64289 0.56506c1.9199-1.1409 4.6599-3.4419 5.8581-5.0629 0.56792-0.76907 0.25166-1.0003-0.37342-0.27728"/>
 </g>
 <path d="m23.912 48.974c0.0012-0.83802 0.33242-2.8877 0.88906-3.9235-0.55664 1.0358-0.88782 3.0855-0.88906 3.9235m5.9086-2.9014c0.20597-0.67284 0.45648-1.2445 0.71799-1.3114 0.36288-0.09298 0.99684 1.0872 1.3977 1.9734-0.27546-0.91618-0.70398-1.9306-1.4866-2.6636-1.7037-1.5963-6.3716-2.1567-8.4232-1.6017-0.7598 0.20521-1.6492 0.80753-2.1295 1.3433 0.19474 0.43827 0.36381 1.174 0.55689 2.0666 0.09414-0.41119 0.20146-0.80827 0.3222-1.1774-0.12076 0.36918-0.22798 0.76628-0.3222 1.1774 0.01508 0.07006 0.03056 0.14062 0.04636 0.21244 0.13131 0.02424 0.26312 0.04913 0.38935 0.06092-0.12618-0.01113-0.25813-0.0369-0.38935-0.06092 0.07105 0.32909 0.14505 0.67572 0.22596 1.0363-0.08093-0.36058-0.15492-0.70722-0.22596-1.0363-0.03075-0.0077-0.06053-0.0077-0.09147-0.01487-0.46505 2.178-0.48828 4.7358 0.52209 6.085 1.1702 1.5622 4.4605 1.7871 5.8144 0.77834 1.4788-1.1021 1.7154-2.616 2.0214-4.6195 0.06162-0.40652 0.18009-0.82761 0.35935-1.2227-0.20867-0.013-0.41588-0.03162-0.62032-0.05607 0.20443 0.02402 0.41163 0.0434 0.62032 0.05607 0.17137-0.37862 0.40019-0.73225 0.69455-1.026" fill="#EE869A"/>
 <path d="m30.539 44.761c-0.26086 0.06687-0.51203 0.63854-0.71734 1.3113 0.18595-0.18458 0.39539-0.34816 0.63478-0.47593-0.23939 0.12778-0.44883 0.29127-0.63478 0.47593-0.1035 0.33809-0.19443 0.70086-0.27092 1.0387 0.80168 0.01487 1.6218-0.05662 2.4324-0.22093-0.01359-0.05178-0.0309-0.10355-0.04639-0.1557-0.4009-0.88616-1.0348-2.0664-1.3977-1.9734" fill="#fff"/>
 <path d="m35.851 39.637c-3.2175 1.2188-6.3804 1.4468-10.189-2.1513-4.1623 2.5224-6.9737 2.1395-8.9467 0.52308-1.5578 0.1613-2.5966 1.0894-3.123 2.2039 0.55905 1.8271 2.3781 3.6961 4.3172 4.8426 0.47803-0.82826 1.2108-1.6939 1.5721-1.6853 0.15854 0.0033 0.29295 0.1639 0.41668 0.44318 0.48023-0.53573 1.369-1.1379 2.1295-1.3433 2.051-0.55494 6.7195 0.0055 8.4233 1.6017 0.78191 0.73303 1.211 1.7467 1.4858 2.663 0.02328 0.05156 0.04589 0.10168 0.06776 0.15217 2.2648-0.46307 4.4401-1.634 5.8516-3.5415-0.06048-1.777-0.70347-2.9868-2.0052-3.7082" fill="#933000"/>
 <path d="m16.715 38.009c-0.23953-0.19596-0.46842-0.40662-0.68367-0.63622-0.88252-0.93902-3.1288-0.16091-2.5345 2.5149 0.02376 0.10752 0.06183 0.21646 0.09521 0.32515 0.5258-1.1143 1.5652-2.0427 3.123-2.2039" fill="#0d131a"/>
 <path d="m19.898 43.813c-0.20238 0.22555-0.33445 0.44008-0.3504 0.60751 0.01602-0.16762 0.14792-0.38194 0.3504-0.60751-0.12373-0.27863-0.25811-0.43902-0.41668-0.44319-0.36129-0.0077-1.0934 0.85693-1.572 1.6859 0.84449 0.49911 1.7089 0.86276 2.5005 1.0221 0.01359-0.06709 0.03015-0.13168 0.04507-0.19817-0.19383-0.89259-0.36213-1.6284-0.55691-2.0666" fill="#fff"/>
 <path d="m35.957 39.598c-0.0358 0.013-0.07121 0.02501-0.10687 0.03889 1.3024 0.72135 1.9447 1.9312 2.0059 3.7082 0.02551-0.03503 0.05442-0.06775 0.07996-0.10267 1.0629-1.4866 0.84961-4.7351-1.9789-3.6445" fill="#0d131a"/>
 <path d="m30.45 44.071c-1.7037-1.5963-6.3716-2.1561-8.4233-1.6017-0.76045 0.20542-1.6492 0.8075-2.1295 1.3433 0.05026 0.11398 0.09944 0.24893 0.14755 0.40058 2.1066-0.72958 7.0178-1.0382 9.9659 1.3112 0.16276-0.41153 0.34216-0.71628 0.52754-0.76312 0.27376-0.07039 0.70246 0.58394 1.0682 1.2904l0.08176-0.03944c-0.27282-0.69888-0.6583-1.3971-1.2382-1.941" fill="#CF7487"/>
 <path d="m31.937 46.735c-0.3912-0.86456-0.97589-2.039-1.432-1.9646 0.25322 0.43547 0.51032 1.4738 0.62576 2.2555 0.2845-0.0358 0.56918-0.07766 0.85256-0.13503-0.01359-0.05178-0.0309-0.10355-0.04639-0.15571" fill="#dcdddd"/>
 <path d="m19.481 43.37c-0.03556-4.4e-4 -0.07734 0.01487-0.1197 0.02831 0.25058 0.55632 0.3378 1.6534 0.3074 2.4734 0.25154 0.08494 0.49943 0.15758 0.74011 0.20643 0.01434-0.0672 0.0301-0.13242 0.04579-0.19825-0.19382-0.89257-0.36278-1.6283-0.55689-2.0666-0.12378-0.2793-0.25818-0.43969-0.4167-0.44319" fill="#dcdddd"/>
 <g fill="#0d131a">
  <path d="m35.825 39.255c-4.31 1.6609-7.1904 0.44382-9.675-1.817-0.34691-0.31572-0.51307-0.34824-0.96572-0.0954-3.8267 2.1362-6.6434 2.0353-8.8857-0.22031-1.1589-1.1663-3.8513-0.26541-3.1601 2.8457 0.64617 2.9071 4.2957 5.8115 7.0726 6.4411l0.18592-0.70809c-2.5374-0.55496-5.9636-3.2917-6.5418-5.8926-0.49728-2.2403 1.1985-2.9382 1.9077-2.1841 2.4823 2.6427 5.6615 2.7106 9.6964 0.39517 0.13101-0.07524 0.18282-0.0618 0.27816 0.02313 3.4175 3.0658 6.2377 3.4842 10.351 1.898 2.4233-0.93552 2.3706 1.9385 1.5484 3.0884-2.0046 2.8038-5.555 3.8547-8.4258 3.7041l-0.31192 0.70724c2.9433 0.23037 7.1371-0.90954 9.335-3.9843 1.3894-1.9432 0.86271-5.4607-2.4095-4.2012"/>
  <path d="m30.53 44.493c-0.55017 0.06015-1.0002 1.1816-1.2916 2.4778l0.72206 0.0022c0.15433-1.0859 0.42092-1.8797 0.6424-1.9124 0.24105-0.03481 0.67149 0.84159 0.98556 1.7948l0.74411-0.14733c-0.53405-1.2563-1.2746-2.2729-1.8025-2.2151"/>
  <path d="m30.63 43.821c-1.7766-1.6648-6.577-2.2091-8.6382-1.65-0.70756 0.19104-1.6069 0.67285-2.176 1.2337l0.32377 0.669c0.37936-0.43917 1.1997-1.1129 1.9788-1.3237 2.2562-0.60934 6.5998 0.12852 8.0837 1.5201 0.24206 0.22674 0.44482 0.489 0.62243 0.76582l1.413 1.6452c-0.39293-1.2639-0.97196-2.2647-1.6075-2.86"/>
  <path d="m28.438 48.283c-0.29766 1.952-0.54671 3.3463-1.9117 4.3639-1.2091 0.90132-4.263 0.68075-5.3007-0.70441-1.0075-1.3461-0.83996-4.0417-0.51688-5.8936 0.11218-0.64272-0.48814-2.9095-1.1719-2.9676-0.46534-0.03911-1.3432 0.84903-1.8746 1.6777l0.63551 0.36197c0.37813-0.73572 0.96331-1.4792 1.1546-1.454 0.2412 0.03096 0.62849 1.4114 0.68706 2.2069-0.52677 2.3262-0.61154 5.0261 0.49813 6.5089 1.2117 1.6181 4.8233 1.975 6.3281 0.85232 1.6061-1.1975 1.8347-2.8973 2.1465-4.9422 0.04043-0.26373 0.13676-0.71265 0.34908-1.1711l0.47256-1.5794c-1.0809 0.80777-1.4065 2.1536-1.4956 2.7404"/>
  <path d="m16.752 38.238-0.455-0.39587c-1.2223 0.12833-2.1363 0.80059-2.699 1.8033l0.22389 0.85122c0.46654-1.1616 1.5455-2.1149 2.93-2.2586"/>
  <path d="m36.349 39.604-0.65622 0.24626c1.3391 0.74206 1.8058 1.9248 1.908 3.728l0.49568-0.80599c-0.08613-1.5422-0.71928-2.4634-1.7474-3.1683"/>
  <path d="m23.624 48.959c-0.07494-1.1205 0.24806-2.8716 0.89848-3.9533 0.43166-0.71833 0.88086-0.6589 0.55307 0.11212-0.39972 0.93921-0.76238 2.83-0.88802 3.8397-0.09057 0.72865-0.51413 0.74158-0.56354 0.0011"/>
 </g>
</svg>
