<?xml version="1.0" encoding="UTF-8"?>
<!-- Created with Inkscape (http://www.inkscape.org/) -->
<svg version="1.1" viewBox="0 0 290.66 288.68" xmlns="http://www.w3.org/2000/svg">
 <defs>
  <clipPath id="clipPath139338">
   <path transform="translate(-500.73 -231.09)" d="M 0,595.276 H 841.89 V 0 H 0 Z"/>
  </clipPath>
  <clipPath id="clipPath139340">
   <path transform="translate(-500.24 -227.15)" d="M 0,595.276 H 841.89 V 0 H 0 Z"/>
  </clipPath>
  <clipPath id="clipPath139342">
   <path transform="translate(-500.4 -230.89)" d="M 0,595.276 H 841.89 V 0 H 0 Z"/>
  </clipPath>
  <clipPath id="clipPath139344">
   <path transform="translate(-500.42 -229.17)" d="M 0,595.276 H 841.89 V 0 H 0 Z"/>
  </clipPath>
  <clipPath id="clipPath139346">
   <path transform="translate(-500.42 -226.44)" d="M 0,595.276 H 841.89 V 0 H 0 Z"/>
  </clipPath>
  <clipPath id="clipPath139348">
   <path transform="translate(-499.8 -233.2)" d="M 0,595.276 H 841.89 V 0 H 0 Z"/>
  </clipPath>
  <clipPath id="clipPath139350">
   <path transform="translate(-499.54 -221.35)" d="M 0,595.276 H 841.89 V 0 H 0 Z"/>
  </clipPath>
  <clipPath id="clipPath139352">
   <path transform="translate(-499.03 -224.36)" d="M 0,595.276 H 841.89 V 0 H 0 Z"/>
  </clipPath>
  <clipPath id="clipPath139354">
   <path transform="translate(-497.91 -231.15)" d="M 0,595.276 H 841.89 V 0 H 0 Z"/>
  </clipPath>
  <clipPath id="clipPath139356">
   <path transform="translate(-496.62 -230.15)" d="M 0,595.276 H 841.89 V 0 H 0 Z"/>
  </clipPath>
  <clipPath id="clipPath139358">
   <path transform="translate(-496.41 -225.3)" d="M 0,595.276 H 841.89 V 0 H 0 Z"/>
  </clipPath>
  <clipPath id="clipPath139360">
   <path transform="translate(-498.61 -234.42)" d="M 0,595.276 H 841.89 V 0 H 0 Z"/>
  </clipPath>
  <clipPath id="clipPath139362">
   <path transform="translate(-494.31 -221.21)" d="M 0,595.276 H 841.89 V 0 H 0 Z"/>
  </clipPath>
  <clipPath id="clipPath139364">
   <path transform="translate(-493.75 -224.38)" d="M 0,595.276 H 841.89 V 0 H 0 Z"/>
  </clipPath>
  <clipPath id="clipPath139366">
   <path transform="translate(-499.56 -221.04)" d="M 0,595.276 H 841.89 V 0 H 0 Z"/>
  </clipPath>
  <clipPath id="clipPath139368">
   <path transform="translate(-493.16 -221.33)" d="M 0,595.276 H 841.89 V 0 H 0 Z"/>
  </clipPath>
  <clipPath id="clipPath139370">
   <path transform="translate(-500.91 -223.4)" d="M 0,595.276 H 841.89 V 0 H 0 Z"/>
  </clipPath>
  <clipPath id="clipPath139372">
   <path transform="translate(-500.08 -235.88)" d="M 0,595.276 H 841.89 V 0 H 0 Z"/>
  </clipPath>
  <clipPath id="clipPath139374">
   <path transform="translate(-494.43 -230.72)" d="M 0,595.276 H 841.89 V 0 H 0 Z"/>
  </clipPath>
  <clipPath id="clipPath139376">
   <path transform="translate(-494.9 -230.04)" d="M 0,595.276 H 841.89 V 0 H 0 Z"/>
  </clipPath>
  <clipPath id="clipPath139378">
   <path transform="translate(-491.57 -228.08)" d="M 0,595.276 H 841.89 V 0 H 0 Z"/>
  </clipPath>
  <clipPath id="clipPath139380">
   <path transform="translate(-488.96 -228.37)" d="M 0,595.276 H 841.89 V 0 H 0 Z"/>
  </clipPath>
  <clipPath id="clipPath139382">
   <path transform="translate(-498.46 -222.58)" d="M 0,595.276 H 841.89 V 0 H 0 Z"/>
  </clipPath>
  <clipPath id="clipPath139384">
   <path transform="translate(-498.42 -227.63)" d="M 0,595.276 H 841.89 V 0 H 0 Z"/>
  </clipPath>
  <clipPath id="clipPath139386">
   <path transform="translate(-500.73 -231.09)" d="M 0,595.276 H 841.89 V 0 H 0 Z"/>
  </clipPath>
  <clipPath id="clipPath139388">
   <path transform="translate(-500.4 -230.89)" d="M 0,595.276 H 841.89 V 0 H 0 Z"/>
  </clipPath>
  <clipPath id="clipPath139390">
   <path transform="translate(-499.36 -229.71)" d="M 0,595.276 H 841.89 V 0 H 0 Z"/>
  </clipPath>
  <clipPath id="clipPath139392">
   <path transform="translate(-499.79 -226.76)" d="M 0,595.276 H 841.89 V 0 H 0 Z"/>
  </clipPath>
  <clipPath id="clipPath139394">
   <path transform="translate(-496.7 -229.6)" d="M 0,595.276 H 841.89 V 0 H 0 Z"/>
  </clipPath>
  <clipPath id="clipPath139396">
   <path transform="translate(-499.67 -230.76)" d="M 0,595.276 H 841.89 V 0 H 0 Z"/>
  </clipPath>
  <clipPath id="clipPath139398">
   <path transform="translate(-496.82 -219.96)" d="M 0,595.276 H 841.89 V 0 H 0 Z"/>
  </clipPath>
  <clipPath id="clipPath139400">
   <path transform="translate(-498.61 -234.42)" d="M 0,595.276 H 841.89 V 0 H 0 Z"/>
  </clipPath>
  <clipPath id="clipPath139402">
   <path transform="translate(-494.31 -221.21)" d="M 0,595.276 H 841.89 V 0 H 0 Z"/>
  </clipPath>
  <clipPath id="clipPath139404">
   <path transform="translate(-499.56 -221.04)" d="M 0,595.276 H 841.89 V 0 H 0 Z"/>
  </clipPath>
  <clipPath id="clipPath139406">
   <path transform="translate(-493.16 -221.33)" d="M 0,595.276 H 841.89 V 0 H 0 Z"/>
  </clipPath>
  <clipPath id="clipPath139408">
   <path transform="translate(-500.08 -235.88)" d="M 0,595.276 H 841.89 V 0 H 0 Z"/>
  </clipPath>
  <clipPath id="clipPath139410">
   <path transform="translate(-498.88 -232.57)" d="M 0,595.276 H 841.89 V 0 H 0 Z"/>
  </clipPath>
  <clipPath id="clipPath139412">
   <path transform="translate(-494.9 -230.04)" d="M 0,595.276 H 841.89 V 0 H 0 Z"/>
  </clipPath>
  <clipPath id="clipPath139414">
   <path transform="translate(-493.51 -230.91)" d="M 0,595.276 H 841.89 V 0 H 0 Z"/>
  </clipPath>
  <clipPath id="clipPath139416">
   <path transform="translate(-500.91 -223.4)" d="M 0,595.276 H 841.89 V 0 H 0 Z"/>
  </clipPath>
  <clipPath id="clipPath139418">
   <path transform="translate(-500.06 -222.07)" d="M 0,595.276 H 841.89 V 0 H 0 Z"/>
  </clipPath>
  <clipPath id="clipPath139420">
   <path transform="translate(-492.28 -224.51)" d="M 0,595.276 H 841.89 V 0 H 0 Z"/>
  </clipPath>
  <clipPath id="clipPath139422">
   <path transform="translate(-493.25 -225.77)" d="M 0,595.276 H 841.89 V 0 H 0 Z"/>
  </clipPath>
  <clipPath id="clipPath139424">
   <path transform="translate(-495.1 -225.78)" d="M 0,595.276 H 841.89 V 0 H 0 Z"/>
  </clipPath>
  <clipPath id="clipPath139426">
   <path transform="translate(-496.8 -227.4)" d="M 0,595.276 H 841.89 V 0 H 0 Z"/>
  </clipPath>
  <clipPath id="clipPath139428">
   <path transform="translate(-495.45 -227.02)" d="M 0,595.276 H 841.89 V 0 H 0 Z"/>
  </clipPath>
  <clipPath id="clipPath139430">
   <path transform="translate(-498.46 -222.58)" d="M 0,595.276 H 841.89 V 0 H 0 Z"/>
  </clipPath>
  <clipPath id="clipPath139432">
   <path transform="translate(-497.26 -230.09)" d="M 0,595.276 H 841.89 V 0 H 0 Z"/>
  </clipPath>
  <clipPath id="clipPath139434">
   <path transform="translate(-500.68 -230.21)" d="M 0,595.276 H 841.89 V 0 H 0 Z"/>
  </clipPath>
  <clipPath id="clipPath139436">
   <path transform="translate(-496.1 -228.9)" d="M 0,595.276 H 841.89 V 0 H 0 Z"/>
  </clipPath>
  <clipPath id="clipPath139438">
   <path transform="translate(-498.41 -223.26)" d="M 0,595.276 H 841.89 V 0 H 0 Z"/>
  </clipPath>
  <clipPath id="clipPath139440">
   <path transform="translate(-500.47 -226.44)" d="M 0,595.276 H 841.89 V 0 H 0 Z"/>
  </clipPath>
  <clipPath id="clipPath139442">
   <path transform="translate(-495.98 -227.1)" d="M 0,595.276 H 841.89 V 0 H 0 Z"/>
  </clipPath>
  <clipPath id="clipPath139444">
   <path transform="translate(-493.81 -224.36)" d="M 0,595.276 H 841.89 V 0 H 0 Z"/>
  </clipPath>
  <clipPath id="clipPath139446">
   <path transform="translate(-495.42 -227.51)" d="M 0,595.276 H 841.89 V 0 H 0 Z"/>
  </clipPath>
  <clipPath id="clipPath139448">
   <path transform="translate(-498.4 -222.6)" d="M 0,595.276 H 841.89 V 0 H 0 Z"/>
  </clipPath>
  <clipPath id="clipPath139450">
   <path transform="translate(-497.63 -221.73)" d="M 0,595.276 H 841.89 V 0 H 0 Z"/>
  </clipPath>
  <clipPath id="clipPath139452">
   <path transform="translate(-492.55 -224.14)" d="M 0,595.276 H 841.89 V 0 H 0 Z"/>
  </clipPath>
  <clipPath id="clipPath139454">
   <path transform="translate(-493.11 -223.47)" d="M 0,595.276 H 841.89 V 0 H 0 Z"/>
  </clipPath>
  <clipPath id="clipPath139456">
   <path transform="translate(-493.41 -220.61)" d="M 0,595.276 H 841.89 V 0 H 0 Z"/>
  </clipPath>
  <clipPath id="clipPath139458">
   <path transform="translate(-492.48 -223.81)" d="M 0,595.276 H 841.89 V 0 H 0 Z"/>
  </clipPath>
  <clipPath id="clipPath139460">
   <path transform="translate(-493.42 -221.75)" d="M 0,595.276 H 841.89 V 0 H 0 Z"/>
  </clipPath>
  <clipPath id="clipPath139462">
   <path transform="translate(-493.12 -221.29)" d="M 0,595.276 H 841.89 V 0 H 0 Z"/>
  </clipPath>
  <clipPath id="clipPath139464">
   <path transform="translate(-498.7 -222.97)" d="M 0,595.276 H 841.89 V 0 H 0 Z"/>
  </clipPath>
  <clipPath id="clipPath139466">
   <path transform="translate(-499.55 -221.09)" d="M 0,595.276 H 841.89 V 0 H 0 Z"/>
  </clipPath>
  <clipPath id="clipPath139468">
   <path transform="translate(-499.35 -221.52)" d="M 0,595.276 H 841.89 V 0 H 0 Z"/>
  </clipPath>
  <clipPath id="clipPath139470">
   <path transform="translate(-499.51 -220.8)" d="M 0,595.276 H 841.89 V 0 H 0 Z"/>
  </clipPath>
  <clipPath id="clipPath139472">
   <path transform="translate(-497.01 -231.33)" d="M 0,595.276 H 841.89 V 0 H 0 Z"/>
  </clipPath>
  <clipPath id="clipPath139474">
   <path transform="translate(-497.94 -231.08)" d="M 0,595.276 H 841.89 V 0 H 0 Z"/>
  </clipPath>
  <clipPath id="clipPath139476">
   <path transform="translate(-499.58 -230.39)" d="M 0,595.276 H 841.89 V 0 H 0 Z"/>
  </clipPath>
  <clipPath id="clipPath139478">
   <path transform="translate(-496.7 -229.64)" d="M 0,595.276 H 841.89 V 0 H 0 Z"/>
  </clipPath>
  <clipPath id="clipPath139480">
   <path transform="translate(-496.63 -230.2)" d="M 0,595.276 H 841.89 V 0 H 0 Z"/>
  </clipPath>
  <clipPath id="clipPath139482">
   <path transform="translate(-499.64 -227.98)" d="M 0,595.276 H 841.89 V 0 H 0 Z"/>
  </clipPath>
  <clipPath id="clipPath139484">
   <path transform="translate(-500.4 -229.23)" d="M 0,595.276 H 841.89 V 0 H 0 Z"/>
  </clipPath>
  <clipPath id="clipPath139486">
   <path transform="translate(-494.89 -230.93)" d="M 0,595.276 H 841.89 V 0 H 0 Z"/>
  </clipPath>
  <clipPath id="clipPath139488">
   <path transform="translate(-499.57 -235.05)" d="M 0,595.276 H 841.89 V 0 H 0 Z"/>
  </clipPath>
  <clipPath id="clipPath139490">
   <path transform="translate(-488.24 -229.91)" d="M 0,595.276 H 841.89 V 0 H 0 Z"/>
  </clipPath>
  <clipPath id="clipPath139492">
   <path transform="translate(-490.92 -232.66)" d="M 0,595.276 H 841.89 V 0 H 0 Z"/>
  </clipPath>
  <clipPath id="clipPath139494">
   <path transform="translate(-488.52 -230.33)" d="M 0,595.276 H 841.89 V 0 H 0 Z"/>
  </clipPath>
  <clipPath id="clipPath139496">
   <path transform="translate(-485.95 -232.82)" d="M 0,595.276 H 841.89 V 0 H 0 Z"/>
  </clipPath>
  <clipPath id="clipPath139498">
   <path transform="translate(-499.72 -226.08)" d="M 0,595.276 H 841.89 V 0 H 0 Z"/>
  </clipPath>
  <clipPath id="clipPath139500">
   <path transform="translate(-500.07 -226.13)" d="M 0,595.276 H 841.89 V 0 H 0 Z"/>
  </clipPath>
  <clipPath id="clipPath139502">
   <path transform="translate(-493.65 -226.13)" d="M 0,595.276 H 841.89 V 0 H 0 Z"/>
  </clipPath>
  <clipPath id="clipPath139504">
   <path transform="translate(-496.04 -220.63)" d="M 0,595.276 H 841.89 V 0 H 0 Z"/>
  </clipPath>
  <clipPath id="clipPath139506">
   <path transform="translate(-496.77 -220.07)" d="M 0,595.276 H 841.89 V 0 H 0 Z"/>
  </clipPath>
  <clipPath id="clipPath139508">
   <path transform="translate(-499.14 -234.08)" d="M 0,595.276 H 841.89 V 0 H 0 Z"/>
  </clipPath>
  <clipPath id="clipPath139510">
   <path transform="translate(-491.8 -226.58)" d="M 0,595.276 H 841.89 V 0 H 0 Z"/>
  </clipPath>
  <clipPath id="clipPath139512">
   <path transform="translate(-495.52 -228.61)" d="M 0,595.276 H 841.89 V 0 H 0 Z"/>
  </clipPath>
  <clipPath id="clipPath139514">
   <path transform="translate(-495.05 -226.64)" d="M 0,595.276 H 841.89 V 0 H 0 Z"/>
  </clipPath>
  <clipPath id="clipPath139516">
   <path transform="translate(-499.12 -229.26)" d="M 0,595.276 H 841.89 V 0 H 0 Z"/>
  </clipPath>
  <clipPath id="clipPath139518">
   <path transform="translate(-498.29 -225.73)" d="M 0,595.276 H 841.89 V 0 H 0 Z"/>
  </clipPath>
  <clipPath id="clipPath139520">
   <path transform="translate(-500.52 -229.76)" d="M 0,595.276 H 841.89 V 0 H 0 Z"/>
  </clipPath>
  <clipPath id="clipPath139522">
   <path transform="translate(-499.83 -230.2)" d="M 0,595.276 H 841.89 V 0 H 0 Z"/>
  </clipPath>
  <clipPath id="clipPath139524">
   <path transform="translate(-498.47 -229.4)" d="M 0,595.276 H 841.89 V 0 H 0 Z"/>
  </clipPath>
  <clipPath id="clipPath139526">
   <path transform="translate(-497.33 -231.36)" d="M 0,595.276 H 841.89 V 0 H 0 Z"/>
  </clipPath>
  <clipPath id="clipPath139528">
   <path transform="translate(-497.56 -229.2)" d="M 0,595.276 H 841.89 V 0 H 0 Z"/>
  </clipPath>
 </defs>
 <path transform="matrix(17.593 0 0 -17.593 286.5 85.282)" d="m0 0c-0.121 0.267-0.283 0.226-0.317-0.018-0.018-0.132 0.056-1.031-0.287-1.267 0.116-0.196 0.214-0.408 0.291-0.626 0.404 0.422 0.634 1.203 0.313 1.911" clip-path="url(#clipPath139338)" fill="#FDD35C"/>
 <path transform="matrix(17.593 0 0 -17.593 277.84 154.6)" d="m0 0c-0.051 0.196-0.213 0.505-0.293 0.629-0.078 0.119-0.47 0.339-0.551 0.404-0.15 0.118-0.272 0.255-0.41 0.4-0.101 0.108-0.202 0.083-0.308 0.153-0.084 0.055-0.142 0.097-0.191 0.136-2e-3 -0.223-0.01-0.438-0.021-0.631 0.141-0.027 0.235-0.056 0.289-0.15 0.055-0.098 0.133-0.158 0.192-0.18 0.153-0.058 0.644-0.409 0.845-0.91 7e-3 -0.016 0.014-0.032 0.02-0.048 0.183-0.09 0.46-0.072 0.558 0.071 2e-3 4e-3 5e-3 9e-3 7e-3 0.013-0.067 0.015-0.124 0.063-0.137 0.113" clip-path="url(#clipPath139340)" fill="#FFE893"/>
 <path transform="matrix(17.593 0 0 -17.593 280.64 88.795)" d="m0 0c-0.087-0.275-0.289-0.607-0.491-0.763 0.08-0.101 0.153-0.209 0.22-0.322 0.258 0.176 0.248 0.707 0.271 1.085" clip-path="url(#clipPath139342)" fill="#6BA429"/>
 <path transform="matrix(17.593 0 0 -17.593 281 118.91)" d="m0 0c-0.077 0.218-0.175 0.43-0.291 0.626-0.068 0.114-0.141 0.222-0.22 0.323-0.099 0.126-0.207 0.242-0.324 0.342-0.115-0.449-0.255-0.863-0.398-1.201-0.26 0.023-0.543 0.093-0.718 0.229 0.014-0.21 0.019-0.422 0.018-0.626 0.049-0.039 0.107-0.081 0.191-0.136 0.106-0.07 0.207-0.045 0.308-0.153 0.138-0.145 0.26-0.282 0.41-0.401 0.081-0.064 0.473-0.284 0.551-0.403 0.08-0.124 0.242-0.433 0.293-0.629 0.013-0.05 0.07-0.098 0.137-0.113 0.333 0.502 0.319 1.361 0.043 2.142" clip-path="url(#clipPath139344)" fill="#AB010B"/>
 <path transform="matrix(17.593 0 0 -17.593 280.88 167.03)" d="m0 0c-0.01 0.12-0.475 0.203-0.579 0.202-0.065-1e-3 -0.053 0.15-0.042 0.355-0.201 0.501-0.692 0.852-0.845 0.91-0.059 0.022-0.137 0.082-0.193 0.18-0.053 0.095-0.147 0.124-0.288 0.15-0.015-0.244-0.033-0.456-0.047-0.609-0.019-0.205-0.036-0.247-0.19-0.145-0.498 0.332-1.292 1.134-1.536 2.118-0.241-2e-3 -0.658-0.03-0.749-0.041-0.224-0.026-0.376 0.013-0.571 0.134-0.123 0.077-0.288 0.112-0.433 0.128 0.024-0.241-2e-3 -0.549-0.034-0.787 0.128-0.12 0.436-0.305 0.608-0.395 0.426 0.444 1.121 0.284 1.413-0.13 0.148-0.21 0.195-0.461 0.151-0.694 0.782-0.055 1.401-1.178 1.453-1.292 0.071-0.152 0.026-0.243 0.308-0.513 0.235-0.226 0.896-0.368 1-0.345 0.211 0.047 0.608 0.382 0.574 0.774" clip-path="url(#clipPath139346)" fill="#6BA429"/>
 <path transform="matrix(17.593 0 0 -17.593 269.98 48.045)" d="m0 0c-0.029 0.174-0.097 0.154-0.124 0.017-0.107-0.527-0.659-2.213-1.281-3.087 0.04-0.203 0.065-0.42 0.08-0.639 0.175-0.136 0.458-0.206 0.718-0.228 0.347 0.819 0.853 2.459 0.607 3.937" clip-path="url(#clipPath139348)" fill="#6BA429"/>
 <path transform="matrix(17.593 0 0 -17.593 265.52 256.49)" d="m0 0c-0.035 0.047-0.22 0.222-0.279 0.234-0.058 0.011-0.61-0.108-0.776-0.219-0.068-0.045-0.338-0.427-0.465-0.569-0.106-0.117-1.266-0.486-1.266-0.486s-0.628 0.281-0.593 0.375c-0.018 0.076-0.028 0.266-0.028 0.286 0 0.083-0.191 0.209-0.266 0.254-0.117 0.071-0.446 0.693-0.54 0.728-0.148 0.056-1.149 0.48-1.247 0.436-0.155-0.068-0.271-0.255-0.341-0.346-0.063-0.082-0.325-0.294-0.46-0.523 0.095 0.019 0.22 0.038 0.279 0.116 0.137 0.179 0.183 0.238 0.279 0.256 0.445 0.083 1.457-0.379 1.539-0.497 0.082-0.117 0.121-0.449 0.203-0.531s0.33-0.147 0.352-0.26c0.015-0.075 0.011-0.29 0.046-0.324 0.126-0.123 0.758-0.456 0.851-0.414 0.422 0.188 1.399 0.571 1.469 0.618s0.482 0.624 0.576 0.671c0.082 0.041 0.526 0.128 0.657 0.14v1e-3z" clip-path="url(#clipPath139350)" fill="#FFE893"/>
 <path transform="matrix(17.593 0 0 -17.593 256.46 203.54)" d="m0 0c-0.012 0.364-0.494 1.442-0.625 1.615-0.075 0.07-1.083 0.325-1.188 0.325 0.105 0 1.083-0.255 1.162-0.32 0.08-0.065 0.639-1.256 0.651-1.62" clip-path="url(#clipPath139352)" fill="#FFE893"/>
 <path transform="matrix(17.593 0 0 -17.593 236.76 84.212)" d="m0 0c0.298-0.286 0.375-0.457 0.484-1.015 0.131 0.185 0.284 0.449 0.439 0.76 0.278-0.109-0.458 0.176-0.923 0.255" clip-path="url(#clipPath139354)" fill="#AB010B"/>
 <path transform="matrix(17.593 0 0 -17.593 214.16 101.83)" d="m0 0c-0.245 0.028-0.531 0.018-0.765-5e-3 -0.184-0.019-0.309 0.014-0.554 0.136-0.133 0.067-0.337 0.113-0.631 0.109 0.108-0.157 0.184-0.282 0.228-0.346 0.021-0.061 0.034-0.136 0.042-0.218 0.145-0.016 0.31-0.051 0.433-0.128 0.194-0.121 0.347-0.16 0.57-0.134 0.091 0.011 0.509 0.039 0.75 0.042-0.044 0.176-0.07 0.358-0.073 0.544" clip-path="url(#clipPath139356)" fill="#FFE893"/>
 <path transform="matrix(17.593 0 0 -17.593 210.38 187.04)" d="m0 0c0.334 0.301 0.32 0.312 0.414 0.64 0.038 0.133 0.015 0.783 0.528 1.142 0.144 0.1 0.69-0.094 1.048-0.326-0.237 0.369-0.745 1.017-1.317 1.058 0.044 0.232-3e-3 0.484-0.151 0.694-0.287 0.406-0.878 0.529-1.278 0.246-0.442-0.313-0.548-0.862-0.196-1.287 0.126-0.153 0.306-0.262 0.487-0.313-0.279-0.399-0.358-0.816-0.484-0.942-0.129-0.13-1.213-1.311-1.163-2.566 0.029-0.721 1.042-1.058 1.231-1.179-0.047-0.117-0.144-0.437-0.038-0.61 0.393-0.464 1.453-0.556 2.241-0.076-2.507 0.017-2.671 2.301-1.322 3.519" clip-path="url(#clipPath139358)" fill="#CECD6F"/>
 <path transform="matrix(17.593 0 0 -17.593 249.14 26.56)" d="m0 0c-0.157-0.81 0.24-1.637 0.266-1.859 0.014-0.128 4e-3 -0.314 0-0.364-0.041-0.413-0.176-0.911-0.326-1.21 0.094-0.03 0.187-0.063 0.28-0.099 0.213 0.427 0.479 1.033 0.683 1.711-0.011 0.371-0.28 1.296-0.137 1.654 0.063 0.156 0.683 0.486 0.789 0.69 0.059 0.114 0.072 0.363 0.078 0.561-0.347-0.209-1.589-0.854-1.633-1.084" clip-path="url(#clipPath139360)" fill="#FFE893"/>
 <path transform="matrix(17.593 0 0 -17.593 173.54 258.95)" d="m0 0c-0.081-0.225-0.104-0.611-0.081-0.877-0.142 0.051-0.55 0.219-0.783 0.323 0.773-0.676 1.869-0.999 2.946-1.028-0.626 0.135-1.368 0.594-2.082 1.582" clip-path="url(#clipPath139362)" fill="#dd503f"/>
 <path transform="matrix(17.593 0 0 -17.593 163.59 203.34)" d="m0 0c0.091 0.673 0.524 1.593 0.996 2.283-1.105-0.1-1.804-0.427-1.885-0.618-0.097-0.23-0.261-1.527-0.247-1.958-0.121 0.167-0.225 0.319-0.295 0.414-0.068 0.052-0.392-8e-3 -0.437-0.144-0.059-0.623 0.544-2.336 1.284-3.022 0.012 0.076 0.034 0.134 0.057 0.152 0.017 0.014 0.035 0.023 0.053 0.031 2e-3 4e-3 4e-3 7e-3 7e-3 0.011 0.134 0.229 0.396 0.441 0.459 0.523 0.07 0.091 0.186 0.278 0.341 0.346-0.324 0.504-0.448 1.139-0.333 1.982" clip-path="url(#clipPath139364)" fill="#FFE893"/>
 <path transform="matrix(17.593 0 0 -17.593 265.78 262.11)" d="m0 0c-8e-3 0.087-0.018 0.178-0.025 0.265-0.13-0.013-0.575-0.1-0.657-0.141-0.094-0.047-0.505-0.624-0.576-0.671-0.07-0.047-1.047-0.429-1.469-0.618-0.093-0.041-0.725 0.292-0.851 0.415-0.035 0.033-0.03 0.248-0.045 0.323-0.023 0.113-0.27 0.178-0.352 0.26-0.083 0.083-0.122 0.414-0.204 0.531-0.082 0.118-1.094 0.581-1.539 0.498-0.096-0.018-0.141-0.077-0.278-0.256-0.06-0.079-0.185-0.097-0.279-0.116-3e-3 -4e-3 -5e-3 -8e-3 -7e-3 -0.012-0.018-8e-3 -0.036-0.017-0.053-0.031-0.023-0.018-0.045-0.076-0.057-0.152-0.02-0.133-0.011-0.322 0.073-0.457 0.01-0.015 0.021-0.03 0.033-0.044 0.057-0.059 0.118-0.114 0.18-0.168 0.233-0.105 0.641-0.273 0.783-0.323-0.023 0.265 0 0.651 0.081 0.876 0.714-0.988 1.456-1.447 2.082-1.582 1.145-0.031 2.267 0.269 2.953 0.83 0.074 0.096 0.192 0.271 0.215 0.333 4e-3 0.072 0 0.154-8e-3 0.24" clip-path="url(#clipPath139366)" fill="#AB010B"/>
 <path transform="matrix(17.593 0 0 -17.593 153.32 256.92)" d="m0 0c-0.548 0.508-1.169 1.851-1.294 2.874-0.027-0.85 0.297-2.548 1.367-3.331-0.084 0.135-0.094 0.324-0.073 0.457" clip-path="url(#clipPath139368)" fill="#AB010B"/>
 <path transform="matrix(17.593 0 0 -17.593 289.5 220.57)" d="m0 0c-0.042 0.159-0.318 0.518-0.437 0.557-0.126 0.042-0.362-0.052-0.444-0.105-0.083-0.113-0.244-0.362-0.309-0.444-0.06-0.076-0.764-0.382-0.959-0.439 0.116 0.375 0.28 1.103 0.271 1.399-0.012 0.364-0.572 1.555-0.651 1.62-0.08 0.065-1.057 0.32-1.162 0.32-0.016 0-0.259-0.176-0.373-0.294-7e-3 -0.023-0.013-0.046-0.019-0.068-0.094-0.328-0.081-0.339-0.415-0.64-1.349-1.218-1.184-3.502 1.323-3.519 0.298 0.181 0.557 0.444 0.727 0.799 0.055 0.116 0.139 0.15 0.135-0.067-0.027-1.651-1.344-2.051-2.457-1.598 2e-3 -0.08 9e-3 -0.151 0.027-0.228-0.035-0.093 0.594-0.374 0.594-0.374s1.16 0.368 1.266 0.486c0.127 0.141 0.397 0.523 0.465 0.568 0.166 0.111 0.717 0.231 0.776 0.219 0.058-0.012 0.243-0.187 0.278-0.234 0 0 7e-3 -0.231 0.015-0.319 0.416 0.266 0.771 0.602 0.95 0.817 0.075 0.113 0.467 1.288 0.399 1.544" clip-path="url(#clipPath139370)" fill="#FFE893"/>
 <path transform="matrix(17.593 0 0 -17.593 275.02 .938)" d="m0 0c-3.121-0.038-4.617-2.754-5.069-4.965 0.613 0.18 1.271 0.298 1.903 0.306 0.271 0.32 0.669 0.235 0.991-0.074 0.218-0.038 0.433-0.089 0.644-0.156 0.149 0.298 0.284 0.797 0.325 1.21 5e-3 0.049 0.015 0.236 0 0.364-0.025 0.222-0.423 1.048-0.266 1.859 0.045 0.229 1.286 0.875 1.633 1.084 2e-3 0.069 4e-3 0.133 6e-3 0.182 6e-3 0.14-0.023 0.192-0.167 0.19" clip-path="url(#clipPath139372)" fill="#AB010B"/>
 <path transform="matrix(17.593 0 0 -17.593 175.54 91.708)" d="m0 0c0.095-0.121 0.177-0.235 0.245-0.335 0.294 4e-3 0.498-0.042 0.632-0.109 0.245-0.123 0.369-0.155 0.553-0.137 0.234 0.024 0.52 0.033 0.765 5e-3 -3e-3 0.152 9e-3 0.307 0.038 0.463 0.054 0.282 0.144 0.482 0.256 0.614-1.025-0.014-1.812-0.249-2.489-0.501" clip-path="url(#clipPath139374)" fill="#AB010B"/>
 <path transform="matrix(17.593 0 0 -17.593 183.88 103.7)" d="m0 0c-0.956 1.382-1.237 1.686-3.163 2.655-0.258 0.281-0.289 0.377-0.546 0.523-0.638 0.327-4.87 0.296-5.447 0.114-0.277-0.087-1.236-2.655-1.236-3.33 0-0.349 0.643-1.316 0.796-1.434 0.235-0.18 0.576-0.167 0.733-0.158 0.094 5e-3 0.211 0.018 0.238 0.052 0.047 0.059 0.555 0.637 0.766 0.86 0.205 0.141 0.615 0.088 0.751 0.179 0.109 0.101 0.262 0.273 0.35 0.381 1e-3 -0.238 0.039-1.083 0.049-1.135 0.012-0.059 0.166-0.283 0.195-0.367 0.035-0.1 0.023-0.308 0.035-0.35 0.013-0.047 0.395-0.389 0.6-0.465 0.055-0.021 0.257-0.027 0.299-5e-3 0.103 0.053 1.046 0.528 1.211 0.728 0.164 0.199 0.689 0.973 0.771 1.079 0.014 0.018 0.039 0.02 0.07 0.013-0.023-0.218-0.068-0.449-0.09-0.569-0.023-0.121-0.185-0.449-0.205-0.546-0.061-0.296-8e-3 -1.161 0.121-1.366 0.036-0.045 0.272-0.124 0.447-0.176 0-2e-3 0-4e-3 1e-3 -6e-3 0.174-0.098 0.341-0.144 0.553-0.136 0.174 0.099 0.371 0.323 0.688 0.64 0.192-0.026 0.601 0.033 0.956 0.161-0.311 0.355-0.585 0.847-0.817 1.493-0.079 0.219-0.174 0.289-0.317 0.289-0.191 0-0.298-0.172-0.42-0.172-0.144 0-0.312 0.141-0.312 0.337 0 0.169 0.091 0.302 0.209 0.358 0.076 0.036 0.188 0.023 0.244-0.03 0.092-0.088 0.189-0.086 0.252-0.052 0.07 0.037 0.074 0.13-1e-3 0.259-0.132 0.229-0.372 0.31-0.449 0.473-0.072 0.156-0.05 0.433 0.116 0.563 0.138 0.108 0.381 0.067 0.527-0.13 0.097-0.13 0.113-0.342 0.122-0.503 6e-3 -0.096 0.135-0.342 0.206-0.424 0.07-0.082 0.156-0.072 0.167 0.01 0.012 0.082 0 0.29 0.102 0.392 0.089 0.089 0.33 0.097 0.433-0.019 0.124-0.14 0.132-0.288 0.071-0.398-0.071-0.127-0.289-0.151-0.377-0.349-0.079-0.179 0.112-0.979 0.512-1.528 0.074-0.101 0.153-0.194 0.237-0.279 0.154 0.232 0.438 0.829 0.498 1.024 1e-3 0 1e-3 1e-3 1e-3 1e-3 0.144 0.539 0.165 1.014 0.053 1.343" clip-path="url(#clipPath139376)" fill="#FFE893"/>
 <path transform="matrix(17.593 0 0 -17.593 125.25 138.19)" d="m0 0c0.012 0.075 0.26 0.456 0.29 0.535 0.031 0.079 0.027 0.33-2e-3 0.397-0.028 0.066-0.323 0.296-0.484 0.368-0.023-0.217-0.068-0.448-0.09-0.568-0.023-0.122-0.185-0.449-0.205-0.546-0.061-0.296-8e-3 -1.161 0.121-1.366 0.036-0.046 0.272-0.125 0.447-0.176 0-2e-3 1e-3 -4e-3 1e-3 -6e-3 3e-3 -2e-3 7e-3 -3e-3 0.01-5e-3 -0.051 0.493-0.097 1.307-0.088 1.367" clip-path="url(#clipPath139378)" fill="#B4A468"/>
 <path transform="matrix(17.593 0 0 -17.593 79.288 133)" d="m0 0c0 0.041-0.127 0.299-0.151 0.363-0.025 0.064 7e-3 0.853-0.023 0.922s-0.547 0.312-0.547 0.312l-0.092-0.09c1e-3 -0.237 0.039-1.083 0.05-1.135 0.011-0.058 0.165-0.282 0.194-0.366 0.035-0.1 0.023-0.308 0.035-0.35 0.011-0.041 0.297-0.301 0.506-0.42 0.047 0.342 0.028 0.734 0.028 0.764" clip-path="url(#clipPath139380)" fill="#B4A468"/>
 <path transform="matrix(17.593 0 0 -17.593 246.42 234.89)" d="m0 0c-0.17-0.356-0.429-0.618-0.727-0.799-0.788-0.48-1.848-0.389-2.241 0.076-0.106 0.173-0.01 0.493 0.037 0.61-0.188 0.121-1.201 0.457-1.23 1.178-0.05 1.255 1.033 2.437 1.163 2.566 0.126 0.126 0.205 0.544 0.484 0.943-0.181 0.051-0.361 0.16-0.487 0.312-0.105-0.079-0.217-0.187-0.331-0.315-1.247 0.501-1.629 2.088-1.524 2.325 0.088 0.198 0.305 0.223 0.376 0.349 0.061 0.11 0.054 0.258-0.07 0.398-0.104 0.116-0.344 0.108-0.433 0.019-0.102-0.102-0.09-0.31-0.102-0.392s-0.097-0.092-0.168-0.01c-0.07 0.082-0.199 0.328-0.205 0.424-0.01 0.161-0.026 0.373-0.122 0.503-0.146 0.197-0.39 0.238-0.528 0.13-0.165-0.13-0.188-0.407-0.115-0.563 0.076-0.163 0.316-0.244 0.448-0.473 0.075-0.129 0.071-0.222 2e-3 -0.259-0.064-0.034-0.16-0.036-0.253 0.052-0.055 0.053-0.167 0.066-0.243 0.03-0.118-0.056-0.21-0.189-0.21-0.358 0-0.196 0.169-0.337 0.312-0.337 0.123 0 0.229 0.172 0.421 0.172 0.143 0 0.238-0.07 0.316-0.289 0.44-1.224 0.996-1.897 1.77-2.141-0.854-1.209-1.619-2.934-0.716-4.34 0.012 6e-3 0.024 0.012 0.037 0.016 0.079 0.024 1.117-0.417 1.211-0.452s0.423-0.657 0.54-0.728c0.255-0.153 0.264-0.213 0.267-0.312 1.112-0.454 2.429-0.053 2.457 1.597 3e-3 0.218-0.081 0.184-0.136 0.068" clip-path="url(#clipPath139382)" fill="#598B1F"/>
 <path transform="matrix(17.593 0 0 -17.593 245.8 146.13)" d="m0 0c0.064 0.699 0.221 2.597-0.364 3.353-0.459 0.593-1.191 0.705-1.396-0.372-0.27-1.421 0.91-2.685 1.57-3.125 0.154-0.103 0.171-0.06 0.19 0.144" clip-path="url(#clipPath139384)" fill="#FDD35C"/>
 <path transform="matrix(17.593 0 0 -17.593 286.5 85.282)" d="m0 0c-0.121 0.267-0.283 0.226-0.317-0.018-0.018-0.132 0.056-1.031-0.287-1.267 0.116-0.196 0.214-0.408 0.291-0.626 0.404 0.422 0.634 1.203 0.313 1.911" clip-path="url(#clipPath139386)" fill="#FDD35C"/>
 <path transform="matrix(17.593 0 0 -17.593 280.64 88.795)" d="m0 0c-0.087-0.275-0.289-0.607-0.491-0.763 0.08-0.101 0.153-0.209 0.22-0.322 0.258 0.176 0.248 0.707 0.271 1.085" clip-path="url(#clipPath139388)" fill="#6BA429"/>
 <path transform="matrix(17.593 0 0 -17.593 262.34 109.43)" d="m0 0c-0.045-0.164-0.114-0.311-0.172-0.448 0.192 5e-3 0.218 0 0.313 5e-3 0.25 0 0.03 0.341-0.141 0.443" clip-path="url(#clipPath139390)" fill="#800"/>
 <g fill="#598B1F">
  <path transform="matrix(17.593 0 0 -17.593 269.82 161.47)" d="m0 0c-2e-3 0.062 3e-3 0.145 8e-3 0.241-0.201 0.501-0.692 0.852-0.845 0.91-0.06 0.022-0.137 0.082-0.193 0.18-0.053 0.095-0.147 0.124-0.289 0.15-0.014-0.244-0.032-0.456-0.047-0.609-1e-3 -0.015-2e-3 -0.028-4e-3 -0.041 0.378-0.283 0.75-0.589 1.175-0.801 0.056-0.028 0.122-0.033 0.195-0.03" clip-path="url(#clipPath139392)"/>
  <path transform="matrix(17.593 0 0 -17.593 215.44 111.41)" d="m0 0c-0.241-2e-3 -0.658-0.031-0.749-0.041-0.224-0.026-0.377 0.013-0.571 0.134-0.123 0.076-0.288 0.112-0.433 0.128 0.023-0.241-2e-3 -0.549-0.034-0.787 0.128-0.12 0.436-0.305 0.608-0.396 0.426 0.444 1.121 0.284 1.413-0.129 0.05-0.072 0.088-0.148 0.115-0.226 0.156-0.028 0.303-0.073 0.445-0.132-0.339 0.389-0.655 0.89-0.794 1.449" clip-path="url(#clipPath139394)"/>
  <path transform="matrix(17.593 0 0 -17.593 267.7 91.076)" d="m0 0c-0.206-0.568-0.465-1.123-0.945-1.394 0.146-0.053 0.311-0.084 0.469-0.097 0.154 0.363 0.339 0.889 0.476 1.491" clip-path="url(#clipPath139396)"/>
 </g>
 <path transform="matrix(17.593 0 0 -17.593 217.7 280.96)" d="m0 0c-0.012 0.039-0.049 0.311-0.07 0.353-0.03 0.013-0.534 0.256-0.598 0.365-0.074-0.058-0.118-0.065-0.194-0.121 5e-3 -0.087-6e-3 -0.254 0.017-0.276 0.125-0.123 0.758-0.455 0.851-0.414 7e-3 3e-3 3e-3 0.065-6e-3 0.093" clip-path="url(#clipPath139398)" fill="#DCC87F"/>
 <path transform="matrix(17.593 0 0 -17.593 249.14 26.56)" d="m0 0c-0.157-0.81 0.24-1.637 0.266-1.859 0.014-0.128 4e-3 -0.314 0-0.364-0.041-0.413-0.176-0.911-0.326-1.21 0.094-0.03 0.187-0.063 0.28-0.099 0.213 0.427 0.479 1.033 0.683 1.711-0.011 0.371-0.28 1.296-0.137 1.654 0.063 0.156 0.683 0.486 0.789 0.69 0.059 0.114 0.072 0.363 0.078 0.561-0.347-0.209-1.589-0.854-1.633-1.084" clip-path="url(#clipPath139400)" fill="#DCC87F"/>
 <path transform="matrix(17.593 0 0 -17.593 173.54 258.95)" d="m0 0c-0.081-0.225-0.104-0.611-0.081-0.877-0.142 0.051-0.55 0.219-0.783 0.323 0.773-0.676 1.869-0.999 2.946-1.028-0.626 0.135-1.368 0.594-2.082 1.582" clip-path="url(#clipPath139402)" fill="#bb5535"/>
 <g fill="#800">
  <path transform="matrix(17.593 0 0 -17.593 265.78 262.11)" d="m0 0c-8e-3 0.087-0.018 0.178-0.025 0.265-0.13-0.013-0.575-0.1-0.657-0.141-0.094-0.047-0.505-0.624-0.576-0.671-0.07-0.047-1.047-0.429-1.469-0.618-0.093-0.041-0.725 0.292-0.851 0.415-0.035 0.033-0.03 0.248-0.045 0.323-0.023 0.113-0.27 0.178-0.352 0.26-0.083 0.083-0.122 0.414-0.204 0.531-0.082 0.118-1.094 0.581-1.539 0.498-0.096-0.018-0.141-0.077-0.278-0.256-0.06-0.079-0.185-0.097-0.279-0.116-3e-3 -4e-3 -5e-3 -8e-3 -7e-3 -0.012-0.018-8e-3 -0.036-0.017-0.053-0.031-0.023-0.018-0.045-0.076-0.057-0.152-0.02-0.133-0.011-0.322 0.073-0.457 0.01-0.015 0.021-0.03 0.033-0.044 0.057-0.059 0.118-0.114 0.18-0.168 0.233-0.105 0.641-0.273 0.783-0.323-0.023 0.265 0 0.651 0.081 0.876 0.714-0.988 1.456-1.447 2.082-1.582 1.145-0.031 2.267 0.269 2.953 0.83 0.074 0.096 0.192 0.271 0.215 0.333 4e-3 0.072 0 0.154-8e-3 0.24" clip-path="url(#clipPath139404)"/>
  <path transform="matrix(17.593 0 0 -17.593 153.32 256.92)" d="m0 0c-0.548 0.508-1.169 1.851-1.294 2.874-0.027-0.85 0.297-2.548 1.367-3.331-0.084 0.135-0.094 0.324-0.073 0.457" clip-path="url(#clipPath139406)"/>
  <path transform="matrix(17.593 0 0 -17.593 275.02 .938)" d="m0 0c-3.121-0.038-4.617-2.754-5.069-4.965 0.613 0.18 1.271 0.298 1.903 0.306 0.271 0.32 0.669 0.235 0.991-0.074 0.218-0.038 0.433-0.089 0.644-0.156 0.149 0.298 0.284 0.797 0.325 1.21 5e-3 0.049 0.015 0.236 0 0.364-0.025 0.222-0.423 1.048-0.266 1.859 0.045 0.229 1.286 0.875 1.633 1.084 2e-3 0.069 4e-3 0.133 6e-3 0.182 6e-3 0.14-0.023 0.192-0.167 0.19" clip-path="url(#clipPath139408)"/>
 </g>
 <path transform="matrix(17.593 0 0 -17.593 253.8 59.258)" d="m0 0c-0.025 0.222-0.422 1.048-0.266 1.859 0.045 0.229 1.286 0.875 1.633 1.084 3e-3 0.069 4e-3 0.133 6e-3 0.182 6e-3 0.14-0.023 0.192-0.167 0.19-2.009-0.025-3.343-1.159-4.161-2.553 0.549-0.826 1.591-1.521 2.821-1.82 0.063 0.227 0.112 0.472 0.134 0.694 5e-3 0.049 0.015 0.235 0 0.364" clip-path="url(#clipPath139410)" fill="#AB010B"/>
 <g fill="#DCC87F">
  <path transform="matrix(17.593 0 0 -17.593 183.88 103.7)" d="m0 0c-0.427 0.617-0.78 1.069-1.145 1.411 0.204-0.469 0.159-0.756-0.063-0.726 0.473-0.503 1.016-1.259 1.154-2.029 1e-3 0 1e-3 1e-3 1e-3 1e-3 0.144 0.539 0.165 1.014 0.053 1.343" clip-path="url(#clipPath139412)"/>
  <path transform="matrix(17.593 0 0 -17.593 159.48 88.436)" d="m0 0c-0.535 0.52-1.831 1.19-2.335 1.356-0.094 0.07-0.171 0.447-0.241 0.459-1.861 0.325-4.295 0.174-4.708-0.043-0.235-0.27-1.162-2.269-1.009-2.668 0.151-0.396 0.648-1.356 0.817-1.602 0.093 5e-3 0.21 0.019 0.238 0.053 0.047 0.058 0.554 0.636 0.766 0.859 0.205 0.142 0.614 0.089 0.751 0.18 0.108 0.1 0.262 0.272 0.35 0.38 0.072 0.156 0.628-0.17 0.639-0.222 0.011-0.059-7e-3 -0.838 0.022-0.922 0.035-0.1 0.14-0.321 0.152-0.363 0.012-0.047 0-0.537-0.031-0.749 0.106-0.068 0.354-0.088 0.396-0.066 0.102 0.054 1.046 0.529 1.21 0.728 0.165 0.2 0.69 0.974 0.772 1.079 0.014 0.018 0.038 0.02 0.069 0.013 0.155-0.036 0.475-0.329 0.485-0.369 0.011-0.047 0.037-0.314 2e-3 -0.397-0.036-0.082-0.215-0.349-0.273-0.455-0.059-0.104 0.035-1.275 0.059-1.436 1e-3 -1e-3 1e-3 -4e-3 1e-3 -5e-3 0.175-0.099 0.342-0.144 0.554-0.137 0.174 0.1 0.371 0.323 0.688 0.64 0.191-0.026 0.601 0.034 0.956 0.162-0.311 0.355-0.585 0.846-0.818 1.493-0.078 0.219-0.173 0.288-0.316 0.288-0.192 0-0.298-0.171-0.421-0.171-0.143 0-0.312 0.141-0.312 0.337 0 0.168 0.092 0.301 0.21 0.358 0.076 0.036 0.188 0.022 0.244-0.031 0.092-0.088 0.188-0.085 0.252-0.052 0.069 0.037 0.073 0.131-2e-3 0.26-0.132 0.228-0.371 0.31-0.448 0.473-0.073 0.155-0.05 0.432 0.115 0.562 0.138 0.109 0.382 0.068 0.528-0.13 0.096-0.13 0.112-0.341 0.122-0.502 6e-3 -0.096 0.135-0.343 0.205-0.425 0.071-0.082 0.156-0.072 0.168 0.01s0 0.29 0.102 0.392c0.089 0.09 0.329 0.097 0.433-0.019 0.124-0.139 0.131-0.288 0.07-0.397-0.071-0.127-0.288-0.152-0.376-0.35-0.079-0.179 0.112-0.978 0.512-1.527 0.073-0.101 0.152-0.194 0.236-0.28 0.155 0.233 0.439 0.83 0.499 1.024-0.156 0.87-0.828 1.722-1.333 2.212" clip-path="url(#clipPath139414)"/>
  <path transform="matrix(17.593 0 0 -17.593 289.5 220.57)" d="m0 0c-0.135-0.105-0.353-0.123-0.444-0.044-0.046-0.21-0.25-0.973-0.4-1.284-0.075-0.155-0.409-0.421-0.653-0.581 0.059-0.052 0.115-0.109 0.133-0.133 0 0 7e-3 -0.231 0.015-0.319 0.416 0.266 0.771 0.602 0.95 0.817 0.075 0.113 0.467 1.288 0.399 1.544" clip-path="url(#clipPath139416)"/>
  <path transform="matrix(17.593 0 0 -17.593 274.66 243.94)" d="m0 0c0.15 0.311 0.354 1.075 0.4 1.284 0.016 0.075-0.303 0.39-0.421 0.506-5e-3 -4e-3 -0.012-7e-3 -0.017-0.01-0.082-0.113-0.243-0.362-0.308-0.444-0.061-0.076-0.764-0.382-0.959-0.439 0.116 0.375 0.28 1.103 0.271 1.399-0.012 0.364-0.543 1.475-0.619 1.543-0.011-0.095-0.073-0.2-0.212-0.272-0.236 0.139-1.293 0.433-1.302 0.399-0.094-0.328-0.153-0.431-0.487-0.732-1.349-1.218-1.184-3.502 1.323-3.519 0.298 0.181 0.557 0.444 0.726 0.8 0.056 0.115 0.14 0.149 0.136-0.068-0.027-1.651-1.344-2.051-2.457-1.598 2e-3 -0.08 9e-3 -0.151 0.027-0.227-0.035-0.094 0.594-0.375 0.594-0.375s1.16 0.368 1.265 0.486c0.128 0.141 0.398 0.523 0.466 0.569 0.166 0.11 0.717 0.23 0.776 0.218 0.028-6e-3 0.088-0.051 0.144-0.101 0.245 0.16 0.579 0.426 0.654 0.581" clip-path="url(#clipPath139418)"/>
  <path transform="matrix(17.593 0 0 -17.593 137.77 200.97)" d="m0 0c-0.108 0.022-0.361-0.039-0.401-0.158-0.059-0.623 0.545-2.337 1.285-3.022 0.012 0.076 0.033 0.134 0.056 0.152 0.018 0.013 0.035 0.023 0.053 0.03 3e-3 4e-3 5e-3 8e-3 7e-3 0.012 0.037 0.063 0.084 0.124 0.133 0.182-0.424 0.337-0.94 1.939-1.133 2.804" clip-path="url(#clipPath139420)"/>
  <path transform="matrix(17.593 0 0 -17.593 154.84 178.76)" d="m0 0c-0.154-0.32-0.129-2.301-0.082-2.395l-0.557 0.712v-7e-3c-0.021 0.029-0.042 0.058-0.062 0.086l-0.267 0.341c-1e-3 0-1e-3 1e-3 -2e-3 1e-3 0.192-0.866 0.709-2.467 1.133-2.804 0.13 0.153 0.281 0.281 0.327 0.341 0.07 0.091 0.185 0.277 0.34 0.346-0.324 0.504-0.447 1.139-0.333 1.982 0.075 0.549 0.377 1.263 0.742 1.882-0.228-0.011-0.752-0.088-1.005-0.195-0.146-0.071-0.168-0.153-0.234-0.29" clip-path="url(#clipPath139422)"/>
 </g>
 <path transform="matrix(17.593 0 0 -17.593 187.34 178.58)" d="m0 0c-0.357-0.48-0.836-1.291-0.802-2.135 0.028-0.721 1.042-1.058 1.23-1.179-0.047-0.117-0.143-0.436-0.038-0.61 0.394-0.464 1.453-0.556 2.242-0.076-2.261 0.015-2.617 1.874-1.675 3.132-0.463 2e-3 -0.862 0.338-0.957 0.868" clip-path="url(#clipPath139424)" fill="#EFED80"/>
 <path transform="matrix(17.593 0 0 -17.593 217.24 150.08)" d="m0 0c0.135 0.041 0.275 0.128 0.366 0.402-0.027 4e-3 -0.055 9e-3 -0.083 0.011 0.044 0.233-3e-3 0.484-0.151 0.694-0.28 0.397-0.85 0.522-1.249 0.264 0.95 0.156 1.316-0.571 1.117-1.371" clip-path="url(#clipPath139426)" fill="#CECD6F"/>
 <path transform="matrix(17.593 0 0 -17.593 193.58 156.79)" d="m0 0c0.145 0.024 0.268 0.027 0.41 0.011 0.025 0.041 0.051 0.082 0.08 0.124-0.181 0.051-0.362 0.16-0.488 0.312-0.104-0.079-0.216-0.187-0.33-0.315 0.14-0.047 0.423-0.116 0.328-0.132" clip-path="url(#clipPath139428)" fill="#598B1F"/>
 <path transform="matrix(17.593 0 0 -17.593 246.42 234.89)" d="m0 0c-0.17-0.356-0.429-0.618-0.727-0.799-0.788-0.48-1.848-0.389-2.241 0.076-0.106 0.173-0.01 0.493 0.037 0.61-0.188 0.121-1.201 0.457-1.23 1.178-0.034 0.845 0.446 1.656 0.803 2.136-0.051 0.285-0.015 0.626 0.148 1.002-0.04 6e-3 -1.076 0.309-0.726 0.741-0.767 0.668-1.005 1.759-0.92 1.952 0.088 0.198 0.305 0.223 0.376 0.349 0.061 0.11 0.054 0.258-0.07 0.398-0.104 0.116-0.344 0.108-0.433 0.019-0.102-0.102-0.09-0.31-0.102-0.392s-0.097-0.092-0.168-0.01c-0.07 0.082-0.199 0.328-0.205 0.424-0.01 0.161-0.026 0.373-0.122 0.503-0.146 0.197-0.39 0.238-0.528 0.13-0.165-0.13-0.188-0.407-0.115-0.563 0.076-0.163 0.316-0.244 0.448-0.473 0.075-0.129 0.071-0.222 2e-3 -0.259-0.064-0.034-0.16-0.036-0.253 0.052-0.055 0.053-0.167 0.066-0.243 0.03-0.118-0.056-0.21-0.189-0.21-0.358 0-0.196 0.169-0.337 0.312-0.337 0.123 0 0.229 0.172 0.421 0.172 0.143 0 0.238-0.07 0.316-0.289 0.44-1.224 0.996-1.897 1.77-2.141-0.854-1.209-1.619-2.934-0.716-4.34 0.012 6e-3 0.024 0.012 0.037 0.016 0.079 0.024 1.117-0.417 1.211-0.452s0.423-0.657 0.54-0.728c0.255-0.153 0.264-0.213 0.267-0.312 1.112-0.454 2.429-0.053 2.457 1.597 3e-3 0.218-0.081 0.184-0.136 0.068" clip-path="url(#clipPath139430)" fill="#598B1F"/>
 <path transform="matrix(17.593 0 0 -17.593 225.4 102.76)" d="m0 0c-0.073-1e-3 -0.146-0.098-0.114-0.251 0.039-0.182 0.165-0.299 0.254-0.298s0.14 0.122 0.102 0.301c-0.037 0.174-0.161 0.249-0.242 0.248" clip-path="url(#clipPath139432)" fill="#fff"/>
 <path transform="matrix(17.593 0 0 -17.593 285.48 100.75)" d="m0 0c-0.029 0.012-0.078-0.021-0.097-0.099-0.023-0.092 2e-3 -0.169 0.037-0.184s0.08 0.033 0.103 0.124c0.022 0.088-0.011 0.145-0.043 0.159" clip-path="url(#clipPath139434)" fill="#fff"/>
 <path transform="matrix(17.593 0 0 -17.593 204.92 123.67)" d="m0 0c-0.261 0-0.634-0.2-0.734-0.488-0.1-0.289 0.253-0.542 0.757-0.542 0.527 0 0.943 0.397 0.831 0.592-0.107 0.184-0.419 0.438-0.854 0.438" clip-path="url(#clipPath139436)" fill="#EFED80"/>
 <g fill="#0d131a">
  <path transform="matrix(17.593 0 0 -17.593 245.64 222.99)" d="m0 0c0.097 0.515 0.13 0.828 0.141 1.144-0.063 0.331-0.234 0.949-0.361 1.18-0.096 0.1-0.617 0.263-1.08 0.358-0.125 0.026-0.042 0.062 0.083 0.038 0.328-0.068 0.986-0.223 1.063-0.354 0.144-0.257 0.317-0.915 0.374-1.212v-9e-3c-0.011-0.322-0.058-0.59-0.156-1.111-0.022-0.115-0.086-0.152-0.064-0.034" clip-path="url(#clipPath139438)"/>
  <path transform="matrix(17.593 0 0 -17.593 281.92 167.04)" d="m0 0c-0.016 0.181-0.518 0.248-0.623 0.255-0.012 0.041-5e-3 0.166 1e-3 0.268l-0.132 0.112c-0.012-0.209-1e-3 -0.417 0.049-0.468 0.017-0.019 0.041-0.029 0.067-0.029h6e-3c0.136 0 0.51-0.092 0.514-0.148 0.032-0.363-0.351-0.672-0.528-0.712-0.082-0.017-0.724 0.116-0.946 0.33-0.197 0.188-0.224 0.28-0.252 0.376-0.101 0.342-0.804 1.39-1.542 1.446 1e-3 -0.013 4e-3 -0.092 5e-3 -0.119 0.636-0.059 1.278-1.008 1.378-1.346 0.031-0.107 0.094-0.257 0.313-0.467 0.233-0.224 0.844-0.338 1.031-0.338 0.016 0 0.029 1e-3 0.039 3e-3 0.239 0.054 0.656 0.412 0.62 0.837" clip-path="url(#clipPath139440)"/>
  <path transform="matrix(17.593 0 0 -17.593 202.82 155.33)" d="m0 0c-0.249 0.038-0.514 0.19-0.64 0.369-0.298 0.421-0.179 1.034 0.256 1.341 0.4 0.283 1.069 0.169 1.383-0.276 0.172-0.244 0.221-0.55 0.14-0.829-0.059-0.201-0.109-0.184-0.077 0.02 0.038 0.241-0.01 0.529-0.159 0.741-0.261 0.369-0.828 0.491-1.195 0.232-0.382-0.27-0.481-0.789-0.221-1.157 0.109-0.154 0.283-0.275 0.473-0.333 0.18-0.055 0.226-0.136 0.04-0.108" clip-path="url(#clipPath139442)"/>
  <path transform="matrix(17.593 0 0 -17.593 164.62 203.58)" d="m0 0c0.096 0.706 0.561 1.656 1.043 2.337-0.032 6e-3 -0.063 0.02-0.091 0.036-0.012 7e-3 -0.023 0.014-0.034 0.021-0.518-0.71-1-1.681-1.093-2.367-0.115-0.841 4e-3 -1.463 0.361-2 0.012-0.017 0.165 0.035 0.147 0.062-0.345 0.518-0.445 1.09-0.333 1.911" clip-path="url(#clipPath139444)"/>
  <path transform="matrix(17.593 0 0 -17.593 193 148.19)" d="m0 0c-0.108-0.081-0.222-0.188-0.338-0.315 0.027-0.021 0.056-0.041 0.086-0.058 7e-3 -4e-3 0.014-7e-3 0.021-0.01 0.104 0.117 0.206 0.215 0.3 0.287-9e-3 0.014-0.054 0.08-0.069 0.096" clip-path="url(#clipPath139446)"/>
  <path transform="matrix(17.593 0 0 -17.593 245.5 234.54)" d="m0 0c-0.586-1.23-2.315-1.357-2.867-0.714-0.083 0.143-7e-3 0.424 0.044 0.554 0.011 0.026 1e-3 0.056-0.022 0.071-0.219 0.14-1.176 0.443-1.204 1.131-0.042 1.058 0.791 2.167 1.146 2.522 0.064 0.065 0.113 0.183 0.175 0.334 0.074 0.18 0.166 0.402 0.317 0.619-0.041 0.01-0.082 0.02-0.123 0.029-0.143-0.215-0.232-0.428-0.303-0.603-0.055-0.133-0.102-0.248-0.15-0.295-0.012-0.013-1.271-1.268-1.216-2.626 0.031-0.773 1.121-1.118 1.253-1.187-0.042-0.122-0.129-0.428-0.015-0.614 1e-3 -3e-3 3e-3 -5e-3 5e-3 -8e-3 0.54-0.637 2.365-0.674 3.046 0.694 0.026 0.053 0.045 0.054 0.044 1e-3 -0.012-0.689-0.253-1.202-0.699-1.484-0.455-0.288-1.081-0.307-1.688-0.056-0.025 0.011-0.02-0.148 0.02-0.164 1.016-0.401 2.464-0.143 2.485 1.702 3e-3 0.243-0.135 0.332-0.248 0.094" clip-path="url(#clipPath139448)"/>
  <path transform="matrix(17.593 0 0 -17.593 231.92 249.93)" d="m0 0c-0.993 0.02-1.746 0.435-2.023 1.151-0.304 0.785 0.025 1.799 0.759 2.462 0.301 0.271 0.305 0.287 0.381 0.555 0.046 0.172 0.151 0.94 0.567 1.231 0.188 0.132 0.746-0.067 1.1-0.325 0.026-0.02 0.04-0.177 0.014-0.157-0.365 0.298-0.93 0.466-1.046 0.385-0.345-0.241-0.468-1.046-0.504-1.182-0.082-0.291-0.099-0.326-0.416-0.611-0.698-0.631-1.003-1.572-0.716-2.313 0.156-0.404 0.646-1.055 2.07-1.061 6e-3 0-0.161-0.135-0.186-0.135" clip-path="url(#clipPath139450)"/>
  <path transform="matrix(17.593 0 0 -17.593 142.56 207.42)" d="m0 0c-0.034 0.516 0.152 1.676 0.252 1.914 0.106 0.25 0.892 0.6 2.002 0.687 0.031 3e-3 -0.065-0.151-0.109-0.155-1.069-0.105-1.718-0.421-1.784-0.578-0.093-0.221-0.282-1.702-0.237-2.01 5e-3 -0.032-0.12 0.075-0.124 0.142" clip-path="url(#clipPath139452)"/>
  <path transform="matrix(17.593 0 0 -17.593 152.42 219.34)" d="M 0,0 C -0.044,0.432 -0.048,1.849 0.094,2.244 0.157,2.42 0.238,2.463 0.174,2.287 0.01,1.829 0.053,0.02 0.091,-0.077 0.099,-0.097 0.006,-0.058 0,0" clip-path="url(#clipPath139454)"/>
  <path transform="matrix(17.593 0 0 -17.593 157.63 269.51)" d="m0 0c-1.513 1.291-1.669 2.884-1.588 3.738 0.015 0.168 0.427 0.266 0.532 0.185 4e-3 -4e-3 0.581-0.8 0.796-1.056 0.148-0.177 0.153-0.284-0.011-0.121-0.253 0.251-0.758 0.946-0.862 1.085-0.104 0.038-0.301-0.029-0.338-0.112-0.066-0.721 0.117-2.346 1.277-3.385 0.024-0.022 0.206-0.344 0.194-0.334" clip-path="url(#clipPath139456)"/>
  <path transform="matrix(17.593 0 0 -17.593 141.36 213.25)" d="m0 0c-0.043 0.159-0.083 0.382-0.114 0.521-0.019 0.088-0.075-0.026-0.055-0.114 0.031-0.143 0.048-0.202 0.092-0.363 0.061-0.225 0.14-0.275 0.077-0.044" clip-path="url(#clipPath139458)"/>
  <path transform="matrix(17.593 0 0 -17.593 157.76 249.55)" d="m0 0c-0.242 0.21-0.551 0.888-0.763 1.51-0.083 0.243-0.107 0.111-0.018-0.146 0.215-0.625 0.481-1.209 0.734-1.427 0.015-0.013 0.062 0.05 0.047 0.063" clip-path="url(#clipPath139460)"/>
  <path transform="matrix(17.593 0 0 -17.593 152.57 257.71)" d="m0 0c-0.493 0.429-1.022 1.519-1.235 2.479-0.037 0.164 0.033 0.524 0.037 0.491 0.108-1.021 0.716-2.394 1.275-2.881 0.025-0.021-0.066-0.099-0.077-0.089" clip-path="url(#clipPath139462)"/>
  <path transform="matrix(17.593 0 0 -17.593 250.62 228.06)" d="m0 0c0.115 0.353 0.282 1.086 0.273 1.386-0.011 0.337-0.551 1.496-0.631 1.578-0.079 0.056-0.966 0.289-1.111 0.304-0.059-0.036-0.298-0.214-0.373-0.308-0.02-0.026-0.044 0.126-4e-3 0.162 0.123 0.112 0.319 0.265 0.365 0.265 0.104 0 1.104-0.255 1.199-0.333 0.105-0.086 0.698-1.285 0.71-1.659 0.011-0.317-0.195-1.062-0.316-1.432-8e-3 -0.024-0.122 6e-3 -0.112 0.037" clip-path="url(#clipPath139464)"/>
  <path transform="matrix(17.593 0 0 -17.593 265.62 261.07)" d="m0 0c0.383 0.249 0.729 0.569 0.913 0.79 0.071 0.107 0.447 1.264 0.387 1.491-0.04 0.153-0.309 0.487-0.398 0.517-0.094 0.031-0.296-0.041-0.385-0.094-0.036-0.05-0.266-0.389-0.304-0.437-0.08-0.101-0.873-0.432-1.012-0.465-0.063-0.015-0.136 0.031-0.194 0.082-0.134 0.12-0.074 0.214 0.03 0.122 0.043-0.037 0.125-0.089 0.138-0.089h1e-3c0.153 0.037 0.883 0.357 0.945 0.424 0.035 0.043 0.317 0.453 0.323 0.457 0.073 0.047 0.337 0.164 0.495 0.112 0.143-0.048 0.43-0.428 0.475-0.599 0.076-0.287-0.338-1.489-0.407-1.592-0.185-0.223-0.522-0.574-0.957-0.848-0.017-0.012-0.08 0.11-0.05 0.129" clip-path="url(#clipPath139466)"/>
  <path transform="matrix(17.593 0 0 -17.593 262.22 253.63)" d="m0 0c0.234 0.153 0.595 0.442 0.666 0.589 0.145 0.3 0.327 1.039 0.375 1.259-1e-3 0.018-0.04 0.078-0.194 0.278-0.098 0.125-0.053 0.155 0.056 0.045 0.202-0.204 0.27-0.273 0.254-0.348-0.049-0.224-0.273-0.977-0.422-1.285-0.079-0.165-0.398-0.454-0.647-0.622-0.02-0.013-0.099 0.077-0.088 0.084" clip-path="url(#clipPath139468)"/>
  <path transform="matrix(17.593 0 0 -17.593 264.88 266.2)" d="m0 0c-0.025-0.057-0.125-0.207-0.199-0.305-1.384-1.123-4.479-1.176-5.992 0.364-0.152 0.179-0.099 0.525-0.058 0.569 0.038 0.029 0.08 0.038 0.128 0.048 0.072 0.014 0.153 0.031 0.222 0.121 0.136 0.178 0.171 0.221 0.243 0.234 0.418 0.078 1.407-0.374 1.479-0.473 0.034-0.048 0.156-0.485 0.21-0.539 0.038-0.038 0.328-0.188 0.336-0.23 5e-3 -0.023 0.027-0.321 0.062-0.355 0.102-0.099 0.773-0.49 0.917-0.426 0.203 0.091 1.438 0.597 1.478 0.623 0.034 0.023 0.526 0.662 0.569 0.686 0.05 0.025 0.222 0.073 0.343 0.094 0.281 0.049 0.306 0.079 0.015 0.071-0.15-3e-3 -0.362-0.054-0.411-0.078-0.061-0.03-0.557-0.656-0.582-0.675-0.034-0.022-1.255-0.505-1.459-0.621-0.088-0.013-0.653 0.285-0.784 0.408-0.01 0.025-0.026 0.265-0.032 0.296-0.019 0.098-0.357 0.265-0.382 0.29-0.032 0.032-0.143 0.486-0.188 0.55-0.141 0.202-1.085 0.59-1.593 0.495-0.119-0.022-0.172-0.092-0.315-0.278-0.039-0.051-0.083-0.063-0.139-0.075 0.083 0.112 0.196 0.21 0.286 0.288 0.089 0.077 0.104 0.088 0.167 0.175 0.071 0.098 0.177 0.245 0.302 0.286 0.103-7e-3 1.161-0.442 1.177-0.448 0.037-0.022 0.156-0.205 0.234-0.327 0.142-0.221 0.233-0.358 0.299-0.397 0.151-0.09 0.234-0.176 0.237-0.203 0-0.087 3e-3 -0.181 0.026-0.285-0.01-0.053 0.034-0.164 0.63-0.43 8e-3 -3e-3 0.016-5e-3 0.024-5e-3 6e-3 0 0.012 1e-3 0.018 3e-3 0.196 0.062 1.181 0.379 1.292 0.502 0.055 0.062 0.423 0.539 0.454 0.559 0.15 0.101 0.668 0.216 0.73 0.21 0.043-0.012 0.216-0.191 0.25-0.228 4e-3 -0.049 0.011-0.399 6e-3 -0.494m0.089 0.546c-0.037 0.069-0.25 0.278-0.32 0.292-0.085 0.017-0.649-0.113-0.821-0.227-0.044-0.03-0.423-0.52-0.476-0.579-0.059-0.065-0.661-0.284-1.218-0.462-0.238 0.107-0.5 0.251-0.539 0.308 1e-3 6e-3 0 0.011-1e-3 0.017-0.022 0.093-0.026 0.176-0.026 0.273 0 0.111-0.185 0.238-0.295 0.304-0.047 0.028-0.17 0.22-0.26 0.36-0.159 0.247-0.23 0.35-0.289 0.373-0.018 6e-3 -1.193 0.47-1.25 0.453-0.165-0.051-0.287-0.22-0.368-0.332-0.054-0.074-0.072-0.088-0.15-0.155-0.126-0.11-0.297-0.259-0.384-0.441-4e-3 -3e-3 -9e-3 -6e-3 -0.013-9e-3 -0.089-0.069-0.165-0.497 0.043-0.741 1.466-1.727 5.036-1.504 6.141-0.364 0.071 0.073 0.254 0.362 0.254 0.367 3e-3 0.051-0.022 0.551-0.028 0.563" clip-path="url(#clipPath139470)"/>
  <path transform="matrix(17.593 0 0 -17.593 220.96 81.077)" d="m0 0c-0.753 3e-3 -1.63-0.137-2.586-0.543-0.03-0.012 0.012-0.122 0.042-0.11 0.918 0.345 1.723 0.478 2.408 0.489 0.023 0 0.162 0.164 0.136 0.164" clip-path="url(#clipPath139472)"/>
  <path transform="matrix(17.593 0 0 -17.593 237.28 85.465)" d="m0 0c0.346-0.063 0.641-0.154 0.885-0.25 0.029 0.05 0.049 0.075 0.093 0.156-0.296 0.115-0.674 0.223-1.117 0.286-0.054 8e-3 0.083-0.182 0.139-0.192" clip-path="url(#clipPath139474)"/>
  <path transform="matrix(17.593 0 0 -17.593 266.2 97.502)" d="m0 0c0.943-0.828 1.269-2.571 0.742-3.344-0.071-0.105-0.295-0.133-0.462-0.062-0.182 0.55-0.694 0.916-0.913 0.964-0.045 0.01-0.09 0.073-0.14 0.161-0.066 0.116-0.177 0.15-0.326 0.178 0-7e-3 0-0.014-1e-3 -0.021-1e-3 -0.033-1e-3 -0.066-2e-3 -0.099 0.126-0.025 0.189-0.051 0.227-0.117 0.055-0.098 0.139-0.175 0.222-0.206 0.123-0.046 0.642-0.394 0.83-0.923 0.029-0.079 0.507-0.169 0.663 0.058 0.545 0.801 0.257 2.723-0.786 3.598-0.051-0.111-0.046-0.111-0.054-0.187" clip-path="url(#clipPath139476)"/>
  <path transform="matrix(17.593 0 0 -17.593 215.5 110.67)" d="m0 0c-1e-3 4e-3 -2e-3 8e-3 -3e-3 0.011-0.247-2e-3 -0.668-0.031-0.756-0.041-0.206-0.024-0.347 0.027-0.534 0.143-0.112 0.07-0.264 0.097-0.455 0.118v-0.118c0.166-0.02 0.301-0.06 0.394-0.118 0.202-0.126 0.446-0.161 0.608-0.142 0.089 0.01 0.546 0.042 0.777 0.041-0.011 0.035-0.022 0.07-0.031 0.106" clip-path="url(#clipPath139478)"/>
  <path transform="matrix(17.593 0 0 -17.593 214.22 100.89)" d="m0 0c-0.303 0.034-0.635 9e-3 -0.774-5e-3 -0.171-0.017-0.283 0.023-0.522 0.143-0.168 0.084-0.4 0.11-0.693 0.102-3e-3 0-6e-3 -1e-3 -9e-3 -2e-3 4e-3 -0.012 0.034-0.089 0.046-0.116 0.253 3e-3 0.462-0.031 0.603-0.102 0.257-0.129 0.394-0.162 0.586-0.143 0.285 0.029 0.562 0.029 0.775 3e-3 -2e-3 0.04-6e-3 0.08-0.012 0.12" clip-path="url(#clipPath139480)"/>
  <path transform="matrix(17.593 0 0 -17.593 267.22 139.97)" d="m0 0c0.122-0.086 0.233-0.197 0.261-0.241 0.076-0.116 0.236-0.42 0.286-0.611 0.015-0.058 0.064-0.108 0.125-0.137 0.035-0.016 0.145 0.092 0.113 0.092-0.064 0-0.116 0.044-0.124 0.075-0.056 0.213-0.226 0.531-0.301 0.646-0.038 0.058-0.187 0.172-0.325 0.261-0.08 0.052-0.395 0.3-0.461 0.364-0.097 0.096-0.181 0.188-0.181 0.188-0.07 0.074-0.141 0.095-0.204 0.114-0.04 0.012-0.078 0.023-0.115 0.047-0.113 0.075-0.18 0.124-0.236 0.173 6e-3 -0.043 0.015-0.152 0.015-0.163 0.043-0.032 0.093-0.066 0.156-0.108 0.052-0.034 0.102-0.049 0.146-0.062 0.058-0.018 0.104-0.031 0.153-0.083 0 0 0.139-0.106 0.177-0.146 0.106-0.107 0.413-0.337 0.515-0.409" clip-path="url(#clipPath139482)"/>
  <path transform="matrix(17.593 0 0 -17.593 280.62 117.92)" d="m0 0c0.374 0.41 0.586 1.151 0.281 1.825-0.094 0.208-0.181 0.168-0.205-2e-3 -0.013-0.089-0.018-0.202-0.023-0.322-0.017-0.365-0.038-0.813-0.287-0.985-0.017-0.012-0.087 0.084-0.078 0.089 0.211 0.132 0.231 0.557 0.247 0.902 5e-3 0.122 0.011 0.238 0.024 0.333 0.045 0.319 0.294 0.308 0.429 0.034 0.358-0.727 0.128-1.598-0.324-2.012-0.012-0.011-0.077 0.123-0.064 0.138" clip-path="url(#clipPath139484)"/>
  <path transform="matrix(17.593 0 0 -17.593 183.6 88.005)" d="m0 0c0.389 2.153 2.053 4.964 5.196 5.002 0.058 2e-3 0.13-4e-3 0.178-0.054 0.048-0.049 0.052-0.124 0.048-0.197-1e-3 -0.032-2e-3 -0.069-3e-3 -0.111-6e-3 -0.218-0.014-0.517-0.087-0.657-0.061-0.118-0.257-0.26-0.447-0.398-0.141-0.101-0.315-0.228-0.339-0.287-0.14-0.348 0.111-1.338 0.129-1.487 0.01-0.084-0.109-0.234-0.106-0.201 4e-3 0.054-0.268 1.394-0.133 1.732 0.035 0.087 0.167 0.185 0.38 0.339 0.17 0.123 0.363 0.263 0.412 0.356 0.06 0.116 0.068 0.411 0.073 0.606 1e-3 0.042 2e-3 0.081 3e-3 0.113 3e-3 0.061-2e-3 0.097-0.015 0.11-9e-3 9e-3 -0.032 0.019-0.092 0.018-1.956-0.024-4.28-1.325-5.007-4.89-0.012-0.061-0.199-0.042-0.19 6e-3" clip-path="url(#clipPath139486)"/>
  <path transform="matrix(17.593 0 0 -17.593 266.1 15.512)" d="m0 0c0.249 0.159 0.512 0.292 0.701 0.426 0.027 0.018-0.041 0.115-0.068 0.096-0.162-0.114-0.414-0.268-0.689-0.435-0.119-0.073-0.443-0.279-0.546-0.332-0.2-0.101-0.399-0.267-0.42-0.377-0.121-0.625 0.076-1.249 0.194-1.621 0.099-0.312 0.097-0.343 0.071-0.608-0.041-0.414-0.176-0.91-0.324-1.2-0.013-0.026 0.128-0.079 0.143-0.05 0.154 0.305 0.269 0.799 0.31 1.225 0.02 0.203-1e-3 0.428-0.076 0.665-0.114 0.362-0.317 0.971-0.202 1.566 0.019 0.099 0.151 0.22 0.368 0.332 0.129 0.066 0.453 0.259 0.538 0.313" clip-path="url(#clipPath139488)"/>
  <path transform="matrix(17.593 0 0 -17.593 66.747 106.01)" d="m0 0c0.101-0.028 0.417-0.199 0.479-0.254 3e-3 -0.047 0-0.814 0.01-0.91 6e-3 -0.057 0.165-0.374 0.168-0.381 9e-3 -0.037 0.019-0.366-0.031-0.652-0.172 0.117-0.361 0.29-0.391 0.332-2e-3 0.015-0.01 0.278-0.035 0.35-0.016 0.047-0.188 0.337-0.193 0.359-0.011 0.069-0.045 0.859-0.048 1.103 0.016 0.02 0.03 0.038 0.041 0.053m6.703 0.217c-0.946 1.373-1.334 1.741-3.172 2.612-0.067 0.073-0.118 0.133-0.163 0.186-0.122 0.143-0.195 0.229-0.393 0.342-0.651 0.333-4.867 0.347-5.484 0.152-0.389-0.123-1.285-2.807-1.285-3.421 0-0.364 0.649-1.349 0.82-1.481 0.242-0.186 0.939-0.251 1.046-0.119 0.044 0.056 0.551 0.648 0.765 0.875 0.102 0.067 0.27 0.084 0.417 0.1 0.138 0.014 0.256 0.027 0.329 0.075 2e-3 2e-3 5e-3 4e-3 7e-3 6e-3 0.072 0.066 0.17 0.171 0.254 0.267 0.01-0.343 0.012-0.948 0.02-0.986s0.212-0.343 0.224-0.379c0.019-0.055 0.028-0.325 0.034-0.346 0.021-0.078 0.432-0.429 0.636-0.505 0.058-0.021 0.283-0.035 0.347-2e-3 0.172 0.094 1.075 0.511 1.255 0.73 0.105 0.128 0.71 1.045 0.743 1.088 0.083 8e-3 0.405-0.26 0.455-0.334 0.012-0.061 0.029-0.295 4e-3 -0.354-0.019-0.045-0.24-0.435-0.264-0.479-0.076-0.137 0.032-1.356 0.047-1.45 3e-3 -0.018 0.014-0.033 0.03-0.042 0.25-0.142 0.456-0.149 0.584-0.144 0.117 4e-3 0.602 0.53 0.708 0.637 0.203-0.018 0.594 0.031 0.944 0.146 0.132 0.043-8e-3 0.142-0.05 0.127-0.34-0.12-0.728-0.177-0.908-0.153-0.018 2e-3 -0.037-4e-3 -0.05-0.017-0.07-0.07-0.538-0.547-0.662-0.623-0.179-5e-3 -0.325 0.031-0.483 0.116-0.032 0.242-0.122 1.256-0.081 1.357 0.023 0.042 0.271 0.425 0.293 0.478 0.045 0.104 0.012 0.392 1e-3 0.435-0.019 0.077-0.374 0.38-0.533 0.414-0.073 0.015-0.154-0.019-0.169-0.039-0.031-0.04-0.624-0.951-0.726-1.075-0.054-0.065-0.275-0.242-1.152-0.692l-0.039-0.02c-0.035-0.014-0.21-9e-3 -0.253 7e-3 -0.02 7e-3 -0.041 0.017-0.063 0.029 0.047 0.319 0.027 0.713 0.01 0.765-4e-3 0.01-0.017 0.04-0.034 0.079-0.033 0.074-0.101 0.227-0.106 0.27-9e-3 0.089-8e-3 0.353-7e-3 0.565 1e-3 0.269 1e-3 0.345-6e-3 0.37-0.022 0.091-0.512 0.327-0.599 0.337-0.053 5e-3 -0.073-0.024-0.079-0.037-1e-3 0-0.296-0.352-0.401-0.45-0.051-0.031-0.163-0.042-0.272-0.054-0.164-0.017-0.35-0.036-0.477-0.124-3e-3 -2e-3 -6e-3 -5e-3 -9e-3 -8e-3 -0.213-0.224-0.724-0.807-0.767-0.861-0.1-0.077-0.694-0.038-0.891 0.114-0.154 0.118-0.774 1.069-0.774 1.387 0 0.76 1.003 3.212 1.196 3.274 0.587 0.185 4.789 0.204 5.399-0.109 0.177-0.101 0.238-0.172 0.359-0.315 0.047-0.056 0.184-0.207 0.19-0.21 1.728-0.869 2.277-1.364 3.136-2.629 0.11-0.338-5e-3 -1.11-0.056-1.299-0.055-0.181-0.31-0.716-0.463-0.965-0.012-0.02 0.094-0.124 0.101-0.112 0.157 0.247 0.414 0.844 0.476 1.045 0.095 0.358 0.184 1.244 0.041 1.449" clip-path="url(#clipPath139490)"/>
  <path transform="matrix(17.593 0 0 -17.593 113.75 57.525)" d="m0 0m-4.919-4.271c-0.188 0.291-0.682 1.204-0.83 1.591-0.164 0.429 0.852 2.645 1.037 2.742 0.424 0.222 2.825 0.361 4.735 0.029 0.127-0.023 0.208-0.381 0.271-0.445 1.258-0.422 3.29-1.673 3.668-3.527 9e-3 -0.045-0.083-0.16-0.087-0.127-0.258 1.801-2.366 3.131-3.629 3.545-0.1 0.034-0.157 0.355-0.243 0.459-1.837 0.319-4.241 0.187-4.67-0.02-0.23-0.284-1.08-2.294-0.972-2.614 0.135-0.397 0.684-1.377 0.844-1.605 0.018-0.027-0.114-0.043-0.124-0.028" clip-path="url(#clipPath139492)"/>
  <path transform="matrix(17.593,0,0,-17.593,71.643,98.562)" d="M 0,0 C 0.145,0.211 0.436,0.611 0.586,0.834 0.733,1.051 0.799,1.017 0.657,0.807 0.518,0.6 0.262,0.208 0.109,-0.015 0.023,-0.14 -0.075,-0.109 0,0" clip-path="url(#clipPath139494)"/>
  <path transform="matrix(17.593,0,0,-17.593,26.45,54.705)" d="m0 0c-0.09 0.068-0.15 0.133-0.198 0.215-0.064 0.109 0.041 0.163 0.105 0.055 0.038-0.066 0.088-0.132 0.133-0.18 0.104-0.112 0.08-0.18-0.04-0.09" clip-path="url(#clipPath139496)"/>
  <path transform="matrix(17.593 0 0 -17.593 268.64 173.34)" d="m0 0c-0.026 0.035-0.099 0.09-0.22 0.096-0.106 5e-3 -0.077 0.035-4e-3 0.05 0.144 0.028 0.253-9e-3 0.303-0.114 0.026-0.054-0.045-0.078-0.079-0.032" clip-path="url(#clipPath139498)"/>
  <path transform="matrix(17.593 0 0 -17.593 274.76 172.44)" d="m0 0c0.03 0.122 0.133 0.154 0.19 0.152 0.041-2e-3 0.058-0.02 0.011-0.036-0.052-0.018-0.118-0.088-0.13-0.138-0.014-0.054-0.086-0.037-0.071 0.022" clip-path="url(#clipPath139500)"/>
  <path transform="matrix(17.593 0 0 -17.593 161.84 172.49)" d="m0 0c0.283 0.124 0.664 0.156 0.853 0.163 0.026 1e-3 3e-3 -0.078-0.04-0.081-0.189-0.013-0.542-0.063-0.797-0.134-0.178-0.05-0.175-0.018-0.016 0.052" clip-path="url(#clipPath139502)"/>
  <path transform="matrix(17.593 0 0 -17.593 203.88 269.31)" d="m0 0c0.047 0.047 0.101 0.084 0.105 0.087 0.016 0.011 0.054-0.047 0.038-0.058-1e-3 0-0.045-0.021-0.098-0.059s-0.098-0.023-0.045 0.03" clip-path="url(#clipPath139504)"/>
  <path transform="matrix(17.593 0 0 -17.593 216.74 279.05)" d="m0 0c-6e-3 0.034-0.055 0.174-0.064 0.264-2e-3 0.019 0.063 0.025 0.068 7e-3 0.026-0.086 0.043-0.181 0.049-0.218 0.02-0.12-0.034-0.171-0.053-0.053" clip-path="url(#clipPath139506)"/>
  <path transform="matrix(17.593 0 0 -17.593 258.48 32.636)" d="m0 0c-0.044 7e-3 -0.107 0.027-0.222 0.062-0.096 0.03-0.078 0.094 0.023 0.079 0.102-0.015 0.169-0.027 0.207-0.037 0.101-0.028 0.087-0.119-8e-3 -0.104" clip-path="url(#clipPath139508)"/>
  <path transform="matrix(17.593 0 0 -17.593 129.38 164.54)" d="m0 0c-0.062 0.013-0.579 0.184-0.651 0.276-0.145 0.231-0.194 1.114-0.132 1.414 0.01 0.05 0.193 0.486 0.204 0.545 0 0 0.07 0.368 0.091 0.572 3e-3 0.032 0.12 0.02 0.117-0.012-0.022-0.209-0.092-0.582-0.092-0.582-0.013-0.071-0.197-0.508-0.205-0.547-0.061-0.296-3e-3 -1.137 0.114-1.322 0.032-0.041 0.323-0.161 0.409-0.178 0.032-7e-3 0.149-0.167 0.145-0.166" clip-path="url(#clipPath139510)"/>
  <path transform="matrix(17.593 0 0 -17.593 194.72 128.86)" d="m0 0c0.018 0.021 0.034 0.042 0.051 0.064-0.166 0.084-0.504 0.288-0.623 0.401-8e-3 -0.042-0.02-0.085-0.034-0.126 0.153-0.126 0.424-0.286 0.579-0.367 9e-3 9e-3 0.019 0.018 0.027 0.028" clip-path="url(#clipPath139512)"/>
  <path transform="matrix(17.593 0 0 -17.593 186.52 163.42)" d="m0 0c-0.882 0.122-1.636 0.838-2.08 2.204-0.11 0.338-0.256 0.293-0.481 0.145-0.064-0.042-0.137-0.108-0.209-0.108-0.176 0-0.363 0.21-0.363 0.437 0 0.341 0.325 0.589 0.553 0.37 0.145-0.137 0.244-0.026 0.159 0.136-0.092 0.178-0.388 0.275-0.479 0.469-0.085 0.183-0.024 0.497 0.161 0.642 0.161 0.127 0.476 0.088 0.639-0.133 0.103-0.138 0.095-0.356 0.106-0.542 9e-3 -0.16 0.13-0.319 0.191-0.39 0.093-0.108 0.064-0.041 0.07 0.041 6e-3 0.107 5e-3 0.275 0.102 0.372 0.124 0.124 0.412 0.104 0.53-0.029 0.13-0.146 0.163-0.342 0.082-0.488-0.094-0.168-0.291-0.133-0.378-0.322-0.081-0.177 0.214-1.885 1.83-2.365 0.244-0.073 0.203-0.159-0.034-0.091-1.832 0.53-1.953 2.393-1.904 2.504 0.071 0.158 0.326 0.259 0.379 0.354 0.056 0.101 0.033 0.221-0.063 0.329-0.075 0.084-0.272 0.093-0.348 0.017-0.087-0.088-0.065-0.217-0.085-0.359-0.021-0.153-0.169-0.158-0.27-0.04-0.07 0.082-0.213 0.34-0.22 0.46-7e-3 0.13-0.02 0.349-0.11 0.471-0.122 0.164-0.319 0.216-0.444 0.118-0.135-0.106-0.164-0.351-0.098-0.491 0.061-0.132 0.365-0.329 0.446-0.468 0.156-0.271-0.081-0.529-0.343-0.28-0.108 0.103-0.354-0.023-0.354-0.285 0-0.156 0.136-0.278 0.253-0.278 0.037 0 0.081 0.029 0.131 0.062 0.221 0.146 0.511 0.204 0.662-0.218 0.476-1.323 1.132-2.034 2.002-2.168 0.245-0.038 0.206-0.109-0.033-0.076" clip-path="url(#clipPath139514)"/>
  <path transform="matrix(17.593 0 0 -17.593 258.16 117.48)" d="m0 0c0.443 1.034 0.819 2.682 0.616 3.922-4e-3 0.024-0.01 0.025-0.015 0-0.223-1.079-0.861-2.503-1.3-3.107-0.02-0.026-0.083 0.141-0.047 0.194 0.634 0.931 1.097 2.271 1.236 2.961 0.04 0.197 0.199 0.231 0.24-0.019 0.209-1.254-0.094-2.885-0.572-3.936-0.011-0.026-0.165-0.031-0.158-0.015" clip-path="url(#clipPath139516)"/>
  <path transform="matrix(17.593 0 0 -17.593 243.52 179.55)" d="m0 0c0.023 0.037 0.042 0.072 0.049 0.087 0.016 0.031 0.063 3e-3 0.047-0.029-0.011-0.021-0.04-0.054-0.053-0.071-0.042-0.055-0.082-0.051-0.043 0.013" clip-path="url(#clipPath139518)"/>
  <path transform="matrix(17.593 0 0 -17.593 282.74 108.57)" d="m0 0c-0.024 0.017-0.09-9e-3 -0.133-0.093-0.042-0.084-0.044-0.166-0.019-0.183 0.024-0.017 0.099 0.038 0.141 0.122 0.045 0.09 0.029 0.141 0.011 0.154" clip-path="url(#clipPath139520)"/>
  <path transform="matrix(17.593 0 0 -17.593 270.58 100.93)" d="m0 0c0.255 0.131 0.496 0.526 0.524 0.824 3e-3 0.032 0.076-0.228 0.029-0.342-0.105-0.255-0.286-0.509-0.47-0.634-0.01-7e-3 -0.112 0.137-0.083 0.152" clip-path="url(#clipPath139522)"/>
  <path transform="matrix(17.593 0 0 -17.593 246.62 115.03)" d="m0 0c-0.04 0.027-0.041 0.216-0.019 0.192 0.193-0.21 0.65-0.284 0.972-0.277 0.219 5e-3 0.167-0.085-0.052-0.104-0.264-0.023-0.636 7e-3 -0.901 0.189" clip-path="url(#clipPath139524)"/>
  <path transform="matrix(17.593 0 0 -17.593 226.56 80.47)" d="m0 0c-0.036 0-0.071-4e-3 -0.106-0.012-0.245-0.059-0.419-0.321-0.502-0.756-0.25-1.314 0.732-2.524 1.545-3.065 0.044-0.029 0.066-0.039 0.076-0.042 0.012 0.028 0.019 0.109 0.022 0.142 0.157 1.693 0.038 2.807-0.352 3.312-0.207 0.267-0.46 0.421-0.683 0.421m0.872-3.931c-1.03 0.686-1.859 1.916-1.626 3.141 0.117 0.612 0.416 0.843 0.621 0.893 0.292 0.07 0.684-0.115 0.954-0.464 0.409-0.528 0.491-1.659 0.332-3.383-0.03-0.32-0.133-0.287-0.281-0.187" clip-path="url(#clipPath139526)"/>
  <path transform="matrix(17.593 0 0 -17.593 230.58 118.44)" d="m0 0c-0.036-0.012-0.06-0.094-0.025-0.199 0.042-0.125 0.119-0.189 0.162-0.174 0.044 0.015 0.055 0.11 0.014 0.233-0.04 0.119-0.111 0.153-0.151 0.14" clip-path="url(#clipPath139528)"/>
 </g>
</svg>
