<?xml version="1.0" encoding="UTF-8"?>
<!-- Created with Inkscape (http://www.inkscape.org/) -->
<svg version="1.1" viewBox="0 0 366.39 322.15" xmlns="http://www.w3.org/2000/svg">
 <path d="m282.66 244.39c2.6731 9.2215 21.63 27.399 32.635 32.218 17.665 7.7413 46.43 15.749 48.517 30.131 2.4096 16.545-59.294 17.21-78.876 6.8689-12.428-6.565-28.044-21.441-34.969-35.824 2.2213-10.853 18.158-31.25 32.693-33.395" fill="#d3edfb"/>
 <path d="m363.7 304.24c-6.679 9.2215-43.186 12.03-64.626 6.5274-18.595-4.7815-16.052-21.877-7.7988-27.19 8.1404-5.2548 13.908-11.271 11.043-15.616-5.2548-4.4211-18.613-19.239-19.657-23.566-14.534 2.146-30.454 22.523-32.692 33.395 6.9442 14.383 22.56 29.239 34.988 35.804 19.582 10.36 86.105 10.36 78.743-9.3543" fill="#b7cdda"/>
 <path d="m184.8 152.71c-8.3679-17.039-42.028-75.157-49.409-83.126-11.232 21.915-31.402 101.65-28.802 131.13 11.118-13.339 46.676-44.722 78.212-48.005" fill="#fadbda"/>
 <path d="m162.02 134.79c3.5875 7.2674 11.251 11.176 18.86 10.341-4.2705-7.9882-10.436-18.955-16.887-30.093-4.2329 5.4839-5.2548 13.111-1.9739 19.752" fill="#fff"/>
 <path d="m140.06 120.82c2.544-10.815-3.7596-21.725-14.307-25.577-3.8349 12.333-7.7413 27.057-11.043 41.819 0 0.0382 0.0189 0.0539 0.0189 0.10758 11.574 1.8771 22.693-5.1634 25.331-16.356" fill="#fff"/>
 <path d="m176.16 293.45c2.8667 1.6888 7.02 8.5196 7.0582 12.922 0.0537 4.6094-2.6731 10.853-17.57 10.398-13.984-0.43029-19.525-5.8443-19.278-12.39 0.26892-6.5456 6.622-13.529 13.016-15.084 4.6309-1.1026 14.136 2.3504 16.773 4.1522" fill="#fadbda"/>
 <path d="m176.16 293.45c2.8667 1.6888 7.02 8.5196 7.0582 12.922-4.6686-12.333-30.226-5.8061-34.855 4.8568-7.495-8.7283 4.6309-20.379 11.024-21.934 4.6309-1.1026 14.136 2.3504 16.773 4.1522" fill="#d8bebd"/>
 <path d="m227.38 289.23c7.9312 0.10758 28.158 9.9239 27.626 18.348-0.54861 9.1456-18.101 7.8935-23.224 7.7983-8.4626-0.10758-20.663-2.8291-23.433-7.1152-2.6193-4.0608 0.43028-12.124 4.8783-15.179 2.4849-1.4253 11.442-4.0231 14.155-3.851" fill="#fadbda"/>
 <path d="m227.38 289.23c4.249 0.0539 12.03 2.9205 18.272 6.8501-8.2915-3.9855-28.196 4.5933-29.941 16.621-3.453-1.1564-6.2235-2.657-7.3621-4.4427-2.6193-4.0608 0.43028-12.124 4.8783-15.179 2.4849-1.4253 11.442-4.0231 14.155-3.851" fill="#d8bebd"/>
 <path d="m263.32 259.67c-4.1952 14.895-22.219 27.134-47.587 32.94-29.714 6.7925-73.127-3.055-81.21-20.549-0.64541-23.983 116.46-96.01 128.8-12.39" fill="#fadbda"/>
 <path d="m263.22 254.27c-6.6032-6.1476-15.711-31.896-15.635-33.318-16.83 24.249-35.026 27.418-53.64 10.417-14.459 26.317-33.584 37.91-64.361 20.985-3.5498-1.9363 8.2727 11.385 19.354 13.415 17.513 3.2056 37.739 1.0434 47.265-16.868 6.5838 4.2329 16.47 6.2805 24.571 5.3516 9.4683-1.0811 17.988-4.4426 23.149-11.461 2.6946 11.707 11.802 18.841 19.373 17.627 0.90896-0.10758 0.64541-5.4646-0.0537-6.1476" fill="#d8bebd"/>
 <path d="m140.94 259.29c-4.1361 4.8407-6.5085 9.3167-6.4133 12.77 8.0828 17.494 51.477 27.342 81.21 20.549 24.742-5.6544 42.464-17.456 47.208-31.857-28.822 45.064-113.71 27.911-122-1.463" fill="#d8bebd"/>
 <path d="m135.47 69.768c-8.7094-10.36-19.696-26.26-21.707-42.255-1.8986-15.066 5.5022-24.515 13.206-25.691 13.244-2.0277 22.94 7.1341 22.143 22.996-0.66155 13.339-6.7737 31.327-13.642 44.95" fill="#d3edfb"/>
 <path d="m117.63 41.54c4.4588 10.891 11.707 20.948 17.836 28.234 4.2114-8.3679 8.1398-18.367 10.701-27.949-8.2533 5.7679-19.885 5.5781-28.537-0.26892" fill="#b7cdda"/>
 <path d="m284.78 221.83c-4.5341-39.277-36.81-68.762-86.826-70.641-90.242-3.3938-108.63 93.202-135.15 111.99-13.965 9.8852-61.875 16.678-59.522 37.891 2.3504 21.365 71.59 24.78 100.28 6.167 11.859-7.7036 22.921-21.118 36.942-44.191 2.4096 0.72071 4.9321 1.3661 7.6278 1.8771 18.424 3.3562 37.038-4.3082 46.145-24.382 4.3835 5.5974 17.57 9.8857 26.298 8.8993 12.067-1.3877 20.625-7.552 24.477-20.625 3.5498 21.82 13.813 33.129 23.642 32.275 9.6582-0.83367 18.652-17.114 16.09-39.258" fill="#d3edfb"/>
 <path d="m111.98 224.42c-5.2548 1.3877-15.142-5.5592-15.103-12.56-11.859 20.321-23.661 43.944-34.078 51.306-2.4849 1.7642-6.0718 3.4369-10.246 5.1042 19.468 0.21513 41.61 28.367 26.393 39.049-13.016 9.1268-67.093 5.8249-75.688-6.9824 0 0.26893 0 0.48407 0.01887 0.72073 2.3558 21.365 71.59 24.78 100.28 6.167 11.935-7.7418 23.073-21.27 37.209-44.628-18.766-11.365-26.071-21.175-28.784-38.176" fill="#b7cdda"/>
 <path d="m247.3 218.39c-8.8041 11.404-38.556 9.563-47.379-1.6136-7.893 25.027-70.736 37.682-86.067-0.3765-1.1564 3.0711-1.9363 6.508-2.1837 10.284-1.2155 17.722 10.948 33.584 36.45 38.252 18.424 3.3562 37.056-4.3082 46.145-24.363 4.3835 5.5974 17.571 9.8663 26.298 8.8799 12.068-1.3876 20.625-7.552 24.477-20.606 3.5498 21.801 13.813 33.11 23.642 32.256 8.5384-0.72073 18.234-15.843 16.602-39.713-10.322 4.0393-25.255 7.9123-37.986-2.9797" fill="#b7cdda"/>
 <g fill="#0d131a">
  <path d="m107.93 197.47c-0.94662-29.922 16.754-101.28 27.797-125.08 8.9934 11.859 37.512 60.869 46.828 79.256l3.453-0.93048c-8.0834-18.841-41.952-74.056-49.485-82.177-0.32272-0.37649-2.259-0.10758-2.4849 0.32271-13.7 26.677-32.143 99.007-29.258 131.78z"/>
  <path d="m127.2 3.336c-7.1916 1.1026-13.624 10.379-11.916 23.984 1.861 14.724 11.518 29.391 19.866 39.637 7.0206-14.534 11.859-30.89 12.428-42.218 0.74223-14.8-8.5572-23.224-20.378-21.403m7.0964 67.415c-8.9181-10.606-20.739-26.734-22.788-43.109-2.0277-16.033 6.6979-26.033 15.217-27.342 13.775-2.1245 25.957 7.1341 25.103 24.629-0.60778 12.257-7.2099 30.131-14.989 45.538-0.21513 0.43029-2.259 0.62391-2.544 0.26893"/>
  <path d="m142.08 263.39c-14.459 23.87-25.482 37.588-37.455 45.348-29.22 18.974-101.97 15.786-104.53-7.3427-2.5817-23.376 46.525-28.632 61.818-39.466 25.501-18.044 44.969-116.65 135.99-113.22 50.168 1.9363 83.714 32.351 88.401 72.956 2.8076 24.325-6.7549 40.377-17.361 41.288-9.3543 0.81754-20.492-8.7089-24.894-30.833l2.3719-4.3458c3.4906 22.845 13.927 32.503 22.124 31.782 7.3051-0.62391 17.285-15.179 14.705-37.55-4.6686-40.415-38.157-67.454-85.346-69.275-88.837-3.3562-107.11 92.518-134.2 111.7-15.692 11.1-61.04 17.096-58.896 36.468 2.1837 19.676 70.148 23.072 97.926 5.045 11.404-7.3998 22.256-20.378 36.183-43.28z"/>
  <path d="m195.28 239.37c3.7004 5.1257 16.602 9.5065 25.103 8.5384 16.185-1.861 24.211-12.257 25.274-32.768 0.93048-17.874-1.7857-25.748-3.4369-28.727-3.7972-6.7737-1.7104-7.7036 2.9044-1.2317 2.8291 3.964 4.8944 11.745 3.9478 29.979-1.1402 22.067-10.36 34.855-27.93 36.848-8.9176 1.0219-21.289-3.2809-27.342-9.6388z"/>
  <path d="m147.83 266.93c-24.629-4.4964-39.049-20.283-37.683-40.358 1.2693-18.917 14.401-29.752 27.57-28.443 19.657 1.9739 22.237 19.164 19.182 25.331-3.5875 7.2481-5.9578 6.2423-3.2809-0.89284 3.1142-8.3109-3.5498-20.112-16.204-21.384-12.03-1.2155-23.167 10.056-24.211 25.596-1.2317 18.386 12.257 32.426 35.216 36.62 19.639 3.6036 42.237-6.053 48.441-35.71 5.0666-24.173 0.60777-35.937-3.4907-41.914-4.0016-5.8626-2.6193-7.9882 2.5064-1.8233 3.851 4.6685 10.455 16.83 4.6094 44.703-6.565 31.364-30.358 42.35-52.653 38.271"/>
  <path d="m264.8 260.09c-4.3082 15.313-22.484 28.347-48.688 34.343-27 6.1858-71.931-1.307-82.462-20.701l2.2751-2.3128c7.5326 16.318 49.124 26.64 79.464 19.696 25.084-5.7303 42.446-17.646 46.449-31.858z"/>
  <path d="m178.68 293.51c2.9582 2.942 6.2611 8.8041 6.3181 12.96 0.10758 8.1022-6.6597 12.219-19.392 11.821-15.957-0.62391-21.497-6.3181-21.194-14.003 0.26893-6.394 6.2235-13.377 12.731-15.9l2.5978 2.388c-5.9766 1.463-11.612 7.9693-11.84 13.661-0.21515 5.4269 6.1858 10.455 17.798 10.777 11.479 0.37649 16.052-4.0608 15.995-8.8229-0.0538-4.0231-4.0231-10.284-6.3187-11.631z"/>
  <path d="m230.84 288.13c10.588 2.2374 26.602 11.536 26.07 19.866-0.43028 6.6408-6.4698 9.4495-25.16 8.9181-12.219-0.21515-22.541-4.0016-25.179-8.0834-2.6731-4.1522-0.0376-11.1 3.7596-15.236l3.7596 0.75837c-4.0016 2.7699-6.451 9.961-4.4588 13.073 2.259 3.4906 13.567 6.2993 22.181 6.4133 15.255 0.43028 21.403-2.1084 21.668-6.3563 0.37649-6.11-17.494-16.698-26.127-16.716z"/>
  <path d="m284.14 243.96c2.4311 8.3491 20.834 26.45 31.782 31.232 17.02 7.4756 48.138 16.394 50.376 31.857 2.9044 20.018-64.55 17.324-82.158 8.0264-11.726-6.2047-28.12-21.213-35.558-36.621l2.7699-1.3285c7.1529 14.8 23.016 29.145 34.305 35.121 21.042 11.119 78.591 8.0452 76.656-5.2924-1.9147-13.168-31.117-21.707-47.625-28.936-10.208-4.4803-27.664-20.454-32.56-30.795z"/>
 </g>
 <path d="m207.1 264.83c-0.3765 3.2648 2.8667 15.958 11.404 14.781 3.7757-0.53785 9.8852-7.5896 10.246-16.659-6.2235 0.26892-14.193 0.81753-21.65 1.8771" fill="#933000"/>
 <path d="m218.5 279.62c2.3504-0.32271 5.6351-3.2056 7.836-7.5326-3.2432-6.679-13.244-8.007-18.898-3.8725 1.0434 4.916 4.4588 12.315 11.062 11.404" fill="#ee869a"/>
 <path d="m207.86 267.94c8.9934 1.463 14.781 4.249 15.843 8.1022 0.94662-1.1187 1.8394-2.4311 2.6193-3.9478-3.168-6.5268-12.751-7.9312-18.462-4.1576" fill="#cf7487"/>
 <path d="m208.5 265.38c-0.70459 0.57013 2.388 14.022 10.037 12.96 6.1094-0.83367 9.9045-14.439 8.9364-14.705-0.48407-0.10758-18.31 1.2155-18.974 1.7426m0.16135-2.9582c7.4568-0.98427 14.515-1.35 18.803-1.5382 2.2751-0.10758 2.9958 0.85518 2.8452 2.7108-0.79602 8.7471-6.4322 16.906-11.612 17.551-6.9824 0.85518-12.58-8.3674-12.978-15.578-0.10758-1.9739 0.53784-2.8452 2.942-3.1518" fill="#0d131a"/>
 <path d="m226.28 271.11c-3.3562-6.565-13.794-7.3427-18.917-3.6036 0.0376 0.43029 0.10758 2.6355 0.68307 2.2213 5.0289-3.7004 14.496-2.0116 17.039 3.2648z" fill="#0d131a"/>
</svg>
