<?xml version="1.0" encoding="UTF-8"?>
<!-- Created with Inkscape (http://www.inkscape.org/) -->
<svg version="1.1" viewBox="0 0 339.29 301.63" xmlns="http://www.w3.org/2000/svg">
 <path d="m55.409 182.82c-3.2855-1.4875-40.68-10.123-54.377-12.954 2.9751 3.5724 38.283 37.229 45.142 43.2 3.7013-2.0263 8.1398-25.35 9.235-30.247" fill="#3D3650"/>
 <g fill="#2D273F">
  <path d="m107.55 132.17c-18.78-34.565-45.742-76.278-46.775-75.988-1.0542 0.29283 4.609 47.229 5.5167 51.114l27.602 32.333z"/>
  <path d="m142.71 86.285c-3.1625-12.871-10.888-32.023-11.466-32.023-0.59735 0-7.9747 58.882-8.801 72.249l12.375-3.18z"/>
  <path d="m221.97 102.82c1.0307-6.2599 10.785-62.229 8.9873-62.414-2.3133-0.29282-48.324 79.252-49.213 80.45l17.437 4.0702z"/>
  <path d="m259.96 163.16c0.74376-1.4875 47.374-78.509 46.031-79.707-1.3411-1.2006-60.328 38.883-64.356 41.713l-6.6939 15.64z"/>
  <path d="m277.24 195.34c2.8111-1.6925 61.278-43.944 60.865-44.936-0.40995-0.98974-66.918 17.086-72.806 18.78 2.4363 6.281 10.31 23.987 11.942 26.156"/>
 </g>
 <path d="m26.026 194.26c-2.1493-8.3882 0.58564-15.908 12.252-15.908l-0.02111-0.0585c-12.727-3.057-29.11-6.756-37.229-8.4291 1.6925 2.0029 13.657 13.615 24.999 24.4" fill="#968C87"/>
 <g fill="#766E6A">
  <path d="m60.772 56.192c-0.86675 0.23426 2.9926 33.552 4.773 46.382 1.8799-7.1278 10.723-13.429 18.883-10.289-12.417-20.35-23.015-36.279-23.656-36.093"/>
  <path d="m142.65 86.038c-3.2034-12.871-10.826-31.775-11.404-31.775-0.35138 0-2.6471 17.313-4.8316 35.287 3.7423-4.8725 10.66-6.2394 16.239-3.5139"/>
  <path d="m230.96 40.402c-1.0132-0.11709-10.248 14.813-20.454 31.858 6.1364-2.1259 12.479-0.23426 15.722 5.1419 2.8286-17.292 5.7861-36.878 4.732-37.002"/>
  <path d="m305.99 83.457c-0.82575-0.74376-23.697 14.297-42.002 26.569 9.69-0.23426 17.272 7.293 17.128 17.644 12.417-20.97 25.598-43.572 24.875-44.212"/>
  <path d="m338.11 150.39c-0.23426-0.58565-21.611 4.978-41.196 10.206 7.9542-0.23426 12.334 8.4707 8.4292 14.586 16.074-11.694 32.994-24.255 32.767-24.792"/>
 </g>
 <path d="m278.43 198.46c9.3387 53.427-22.809 78.22-114.56 78.22-100.06 0-128.51-29.751-114.87-78.22 11.9-42.27 52.807-78.819 115.02-78.819 57.476 0 106.92 35.949 114.42 78.819" fill="#3D3650"/>
 <path d="m182.04 121.14c0-2.6881-15.474-119.62-17.582-119.62-2.0849 0-28.015 100.84-31.59 121.56 2.2489 2.8931 39.068 1.5051 49.171-1.9443" fill="#3D3650"/>
 <path d="m173.6 57.18c-4.0058-28.47-8.1193-55.658-9.1319-55.658-1.0952 0-8.5322 26.961-15.97 55.865 5.8037-7.5413 20.123-6.9422 25.102-0.23425" fill="#968C87"/>
 <path d="m99.06 270.72c-2.5417 3.1215-19.668 21.156-20.701 20.557-1.0542-0.59735-1.3411-26.672-1.3411-28.159 3.6954-1.8155 19.111 5.7627 22.044 7.6028" fill="#2D273F"/>
 <path d="m154.92 226.5c-6.1774 2.9341-7.3135 13.45-2.5417 23.532 5.7451 12.086 15.97 14.752 19.833 12.913 6.1779-2.9341 7.2936-13.45 2.5183-23.532-4.773-10.062-13.636-15.846-19.813-12.913" fill="#FFF462"/>
 <path d="m153.99 243.51c1.9853-1.6925 12.417-9.6274 12.417-9.6274 0.40996 2.3777 2.4773 21.238 2.4773 22.643-2.3133-1.9443-10.02-9.0493-14.896-13.016" fill="#3D3650"/>
 <path d="m48.275 201.21c-10.702-6.322-36.135-23.904-46.238-31.135-0.35138-0.0585-0.67935-0.11709-1.0132-0.23426 2.975 3.5724 38.2 37.147 45.121 43.179 0.40994-3.8008 1.0951-7.7475 2.1259-11.838" fill="#2D273F"/>
 <path d="m25.656 186.47c-9.2145-6.2599-18.429-12.686-23.614-16.404-0.35138-0.0585-0.70278-0.11709-1.0132-0.23426 1.6749 2.0263 13.657 13.615 24.999 24.4-0.70277-2.7701-0.86675-5.4523-0.35138-7.789" fill="#766E6A"/>
 <path d="m156.12 255.99c5.7042 6.9832 12.974 8.4502 16.094 6.9627 4.527-2.1493 6.3431-8.4086 5.0834-15.578-2.4363 8.657-13.946 12.127-21.177 8.6154" fill="#DFD355"/>
 <path d="m164.46 1.5165c-0.11709 0-0.29282 0.29282-0.58565 0.89018 3.4084 25.123 10.619 96.4 12.024 113.98 0.29282 3.7188 2.6471 4.5446 6.4046 5.4933 0-2.6647-15.764-120.37-17.871-120.37" fill="#2D273F"/>
 <path d="m173.6 57.18c-4.0058-28.47-8.1193-55.658-9.1319-55.658-0.11709 0-0.29282 0.29282-0.58564 0.89018 1.511 11.094 3.6778 31.279 5.8675 51.588 1.2181 0.76719 3.016 2.0849 3.8242 3.18" fill="#766E6A"/>
 <path d="m140.77 264.16c-3.8828-0.93117-4.9604-2.3953-3.2854-5.3703 1.8799-3.2445 3.4084-11.528 2.8696-17.706-1.3235 18.49-15.433 29.255-30.081 29.13-10.103-0.0585-20.144-2.5827-25.68-9.1729-1.6749 1.2826-3.6544 2.3367-5.7861 3.18 18.966 8.0988 46.754 12.458 85.058 12.458 71.112 0 106.42-14.896 114.35-46.485-22.643 31.197-98.363 43.221-137.45 33.965" fill="#2D273F"/>
 <g fill="#0d131a">
  <path d="m46.293 211.82c-6.8385-6.0743-34.027-31.94-42.292-40.308 15.536 3.3264 47.994 10.867 50.99 12.231l1.0132-2.1083c-3.303-1.5051-36.982-8.9662-51.775-12.148-5.0014-1.0542-5.5168-0.46852-1.8155 3.303 8.4707 8.5949 36.651 35.949 42.808 41.321z"/>
  <path d="m35.596 177.48c-8.264 0.90774-12.686 6.4872-10.867 15.702l2.6061 2.0029c-3.0981-10.082 1.7745-16.466 13.842-16.156z"/>
  <path d="m108.3 131.07c-8.6154-16.693-33.759-57.952-45.039-73.468-3.0161-4.1756-3.7598-3.7832-3.5548 1.3646 0.11709 3.262 3.9062 40.019 5.1419 45.948l2.4187 2.1493c-0.97216-4.2752-5.0424-38.779-5.5577-48.241 6.0116 8.264 28.097 42.87 44.605 73.199z"/>
  <path d="m142.4 81.244c-1.7979-6.2189-6.4046-19.235-8.76-24.524-2.2489-5.0599-3.0805-5.019-4.0702 0.82576-0.52708 3.2445-7.9958 59.584-8.3676 68.757l2.3367-0.98974c1.0307-13.883 6.4257-56.774 8.1404-67.992 2.2489 5.1829 7.0658 17.727 9.6894 27.809z"/>
  <path d="m261.75 163.45c2.8287-6.1153 35.349-59.088 44.481-77.827 1.8623-3.8008 1.2006-4.2986-3.0805-2.0439-3.6368 1.9209-54.068 34.73-60.472 39.357l-0.46852 3.0571c5.9085-4.1756 52.146-35.432 62.083-40.803-4.568 9.4417-43.51 74.521-44.378 76.009z"/>
  <path d="m283.85 192.08c18.119-12.686 45.969-33.345 52.435-38.8 4.4802-3.7598 3.9648-4.4626-1.634-3.3264-4.2986 0.89016-66.133 16.424-69.769 17.809l0.67935 2.3543c6.5492-1.9033 56.733-15.496 69.522-18.305-9.628 7.6854-47.477 35.225-56.568 41.506z"/>
  <path d="m100.65 271.12c-1.9853 2.7876-17.416 18.202-18.966 19.565-3.4319 3.016-4.814 2.6237-5.2708-1.8799-0.23426-2.0673-1.1361-24.338-0.89018-26.135l2.5007 1.6515c0.05854 5.4758 0.3514 21.218 0.94875 25.474 3.6954-2.9516 16.817-16.652 19.296-19.71z"/>
  <path d="m84.457 93.376c-7.8716-3.3674-16.445 3.3264-17.975 9.6274l-1.3236-2.4597c2.7701-6.6113 10.619-11.962 18.656-9.5653z"/>
  <path d="m141.09 86.463c-5.1419-1.9209-11.012-0.35138-14.09 3.9882l-0.46852-2.6061c3.7833-3.9648 9.8136-5.2884 15.186-3.303z"/>
  <path d="m173.63 55.591c-5.5168-5.8675-17.953-6.7765-24.73-0.23426l-0.0211 3.1625c4.978-7.4376 19.854-6.818 24.131-0.46851z"/>
  <path d="m210.46 73.332c6.0122-2.2489 12.086-0.35138 15.061 4.814l1.0542-2.0849c-3.344-4.7086-9.2766-6.6939-15.206-5.1419z"/>
  <path d="m282.12 126.31c-0.4685-10.392-7.6649-16.941-16.92-17.313l-1.7979 2.0439c10.537-0.63835 17.024 8.1398 16.694 17.024z"/>
  <path d="m307.06 173.93c2.4363-6.2804-1.6339-12.851-7.5618-14.09l-5.3293 1.4875c9.9167-0.6852 14.007 7.5612 9.8341 14.875z"/>
  <path d="m155.35 227.42c-5.2708 2.5007-6.7355 12.314-2.0439 22.168 5.0014 10.557 14.359 14.4 18.47 12.437 5.4523-2.5827 6.6113-12.561 2.0439-22.168-4.9194-10.351-13.677-14.71-18.47-12.437m-4.2166 23.036c-4.814-10.123-3.8008-21.714 3.344-25.102 6.4667-3.0805 16.26 2.7057 21.384 13.491 4.855 10.247 4.0468 21.837-3.139 25.246-3.9472 1.8623-15.33-0.40994-21.59-13.636"/>
  <path d="m155.58 243.51c2.9751 2.4773 11.384 9.9788 12.086 10.598-0.40996-4.5446-1.5051-14.214-2.0263-18.366-2.5007 1.8799-7.6649 5.867-10.061 7.7679m10.867 12.21c-3.139-2.7701-9.5038-8.4087-12.396-10.847-1.3411-1.1127-1.2826-1.7159 0.11708-2.8521 2.3543-1.8799 7.5618-5.8676 10.123-7.83 2.5007-1.9209 2.9165-1.8799 3.262 0.86675 0.52708 4.0058 1.7159 14.648 2.1493 19.317 0.35138 4.0702 0.0416 4.2986-3.2855 1.3411"/>
  <path d="m182.56 121.45c0.23426-0.29281 41.299-70.224 47.601-78.736-0.29282 4.7086-9.194 59.935-9.194 59.935l2.2957-1.3821c3.8242-22.23 7.7065-46.362 8.8631-58.096 0.58564-5.9917-0.0585-5.7627-4.0468-0.98973-5.3118 6.4257-40.845 67.104-46.403 76.587z"/>
  <path d="m180.88 119.19c0.29283 2.3953 0.29283 2.6471 2.3777 2.9575 45.969 6.8795 87.33 37.374 94.189 76.504 8.0783 46.258-12.954 77.021-113.57 77.021-94.809 0-128.03-26.693-113.9-76.939 8.4086-29.833 34.544-63.819 81.897-74.604 1.5695-0.35139 1.8799-0.46852 2.3953-2.9341 4.8784-23.738 25.061-103.28 30.019-117.04 3.2444 14.525 14.751 100.18 16.59 115.04m99.644 79.273c-6.7976-38.903-47.56-72.125-97.557-78.984-1.2181-15.02-14.297-106.34-16.59-115.28-1.4465-5.6807-2.2489-5.5343-4.2576 0.058543-4.3806 12.252-26.941 98.507-30.019 117.23-45.597 9.9788-75.223 41.072-85.326 76.959-12.954 46.01 10.805 79.706 117.04 79.706 104.64 0 124.89-32.911 116.71-79.706"/>
 </g>
 <g fill="#3D3650">
  <path d="m113.21 159.43c-3.5724-1.6339-82.682-96.09-84.624-95.202-1.9443 0.89018 35.763 110.41 37.705 117.25z"/>
  <path d="m220.18 181.33c1.6339-3.2854 44.833-115.45 43.2-116.36-1.6339-0.89017-91.463 84.334-96.09 88.797z"/>
  <path d="m266.96 240.33c5.9501-3.2854 69.872-56.01 69.129-58.406-0.59736-1.9033-61.092 12.065-77.909 16.693z"/>
 </g>
 <g fill="#968C87">
  <path d="m28.592 64.237c-0.84919 0.40995 5.7451 21.115 13.635 45.06 5.8881 6.9006 20.475 0.0409 17.396-10.744-16.321-18.862-30.226-34.688-31.031-34.316"/>
  <path d="m263.39 64.983c-0.72034-0.40994-19.008 16.342-39.44 35.391-5.1419 13.863 7.0242 22.127 20.722 17.519 10.185-27.003 19.504-52.476 18.718-52.91"/>
  <path d="m336.09 181.93c-0.35139-1.0952-20.908 3.139-41.362 7.8095-5.0834 8.5533-1.552 19.255 10.061 20.412 16.363-13.656 31.672-27.044 31.3-28.222"/>
 </g>
 <path d="m84.957 260.79c-4.9604 3.9648-12.913 5.9501-19.462 5.6632-17.499-0.80819-27.809-15.185-28.408-29.792-0.76133-18.264 13.367-29.792 28.408-29.792 6.818 0 13.098 2.5183 17.995 6.7355 6.0122-4.527 13.719-6.8385 22.127-6.8385 19.255 0 34.853 13.863 34.853 31.486 0 20.226-14.813 32.106-30.184 31.982-16.694-0.11708-33.201-6.8385-29.503-27.622" fill="#FABE00"/>
 <path d="m125.88 274.74c1.2006 2.5417 9.6689 25.66 10.723 25.763 1.4875 0.17569 13.408-18.016 17.293-24.275-4.65-3.8652-27.169-2.9106-28.015-1.4875" fill="#3D3650"/>
 <path d="m241.64 266.4c-0.29282 1.3411-1.7569 26.176-2.5417 26.362-2.3777 0.59736-20.991-17.726-22.788-19.958 4.445-3.0805 17.954-5.8447 25.33-6.4046" fill="#3D3650"/>
 <g fill="#2D273F">
  <path d="m336.09 181.93c0-0.0205-0.0205-0.0416-0.0585-0.0585-16.797 11.239-67.6 43.986-71.298 45.948-7.8927 4.2166-10.744 7.1484-10.826 10.433-0.23426 7.9337-5.4523 15.082-14.793 17.582 2.1669 1.6339 22.933-4.6676 29.296-15.206 0.40994-0.23424 7.293-6.1568 7.3961-6.756 20.185-16.032 60.865-50.101 60.287-51.939"/>
  <path d="m75.025 169.81c-1.5285-4.3162-33.345-76.215-46.382-104.4 2.1493 11.653 34.792 106.63 37.54 115.7 4.7964 4.6676 12.003-2.3953 8.8426-11.301"/>
  <path d="m220.31 181.05c2.8696-6.5697 40.659-104.75 43.014-115.18-11.549 23.532-52.497 103.16-53.819 107.31-3.18 10.02 6.3009 12.892 10.805 7.8716"/>
 </g>
 <g fill="#766E6A">
  <path d="m28.637 65.414c0.86675 4.732 6.7355 23.098 13.595 43.882 1.8799 2.2079 4.65 2.9985 7.4377 2.7057-7.9132-17.788-15.929-35.535-21.032-46.588"/>
  <path d="m236.45 119.15c2.5827 0.11708 5.3528-0.29283 8.2019-1.2591 9.1524-24.255 17.582-47.25 18.656-52.001-5.1419 10.475-16.136 32.127-26.858 53.262"/>
  <path d="m304.8 210.16c16.342-13.677 31.652-27.065 31.3-28.222-0.0205-0.0211-0.0416-0.0416-0.0585-0.0585-7.7065 5.1419-23.656 15.454-39.027 25.329 1.9619 1.552 4.5446 2.6237 7.789 2.9516"/>
 </g>
 <path d="m125.88 274.74c0.40995 0.89018 1.7569 4.3806 3.3674 8.5328 3.4904-4.7964 10.971-6.0538 13.161-0.35139 0.98974 2.5183 1.1596 5.7217 0.63836 9.7105 3.9648-5.6807 10.061-14.958 12.231-18.449-7.7885-3.6778-22.437-8.8426-29.399 0.52707" fill="#2D273F"/>
 <path d="m60.882 217.69c1.3235 2.6237-0.63834 6.2804-4.3572 8.1193-3.6954 1.8624-7.7884 1.2181-9.0903-1.4055-1.3235-2.6412 0.62078-6.2804 4.3396-8.1398 3.7188-1.8389 7.7884-1.2181 9.1108 1.4231" fill="#FEDF8F"/>
 <path d="m140.44 239.82c-5.8272 14.71-15.97 21.59-33.779 20.908-13.76-0.52707-24.503-7.8095-26.28-15.681 0 0-0.46851 3.1215-0.17569 3.9882-5.5753 11.962-29.771 12.747-41.031-2.0673 3.9062 10.433 13.036 18.863 26.3 19.483 6.4046 0.29282 14.132-1.6105 19.111-5.3938 5.5343 6.5697 15.578 9.0692 25.68 9.1524 14.979 0.11708 29.42-11.115 30.164-30.391" fill="#D8A500"/>
 <path d="m214.52 270.72c1.2591 1.8624 12.355 12.913 18.759 18.264-3.5724-6.9832-4.2752-14.772-1.1362-16.28 2.7467-1.3001 5.9911 0.29281 8.739 2.8521 0.35138-4.691 1.0132-11.838 1.1127-12.355-7.3756 0.52709-23.036 4.445-27.478 7.5202" fill="#2D273F"/>
 <g fill="#0d131a">
  <path d="m64.299 179.15c-1.7745-4.1346-25.929-75.988-36.031-111.07-1.7569-6.1159-0.80819-6.756 3.7598-2.1669 9.4212 9.4411 71.195 81.545 79.356 89.996 3.4084 3.5548 2.3133 5.4348-1.4875 1.7745-6.2599-6.0532-73.902-84.975-79.975-91.07 2.7057 11.198 35.184 107.87 36.548 112.1 1.0717 3.303-0.67935 3.9062-2.1669 0.40996"/>
  <path d="m268.98 237.73c12.21-8.9457 58.551-47.291 65.348-54.936-8.7805 0.74375-53.944 11.033-72.744 15.95-4.1346 1.0952-4.7496-0.63835-0.46852-1.9619 14.917-4.568 62.084-15.04 72.435-15.887 4.9604-0.40995 4.9194-0.23426 1.6105 3.8418-4.5856 5.5577-46.01 41.093-65.224 54.708-3.5549 2.5417-4.7906 1.0717-0.97217-1.7159"/>
  <path d="m42.649 111.11c7.0658 5.5987 19.668-1.0717 18.325-11.136l-2.4187-1.4641c3.0805 9.6479-10.744 16.755-15.888 9.7304z"/>
  <path d="m303.74 211.07c-11.239-1.6515-15.268-11.962-10.289-21.197l2.3367 0.0416c-5.5577 8.8631-0.58564 18.594 9.6894 19.296z"/>
  <path d="m244.18 119.12c-14.069 4.2342-25.391-4.3162-21.755-17.354l2.5183-1.2181c-4.8725 12.81 6.4052 20.991 19.772 16.26z"/>
  <path d="m220.27 178.57c6.3841-15.495 37.291-96.999 41.63-111.38-12.066 9.772-78.137 72.248-91.835 85.326-2.9751 2.8287-4.3572 1.4231-1.2591-1.6749 14.276-14.214 86.587-81.339 91.607-84.954 4.609-3.3264 4.8725-3.0161 3.3674 2.1083-4.6266 15.702-35.701 98.446-41.651 111.3-1.4875 3.2035-3.1215 2.3367-1.8623-0.72033"/>
  <path d="m110.29 269.21c16.136 0.23426 29.172-12.954 29.172-30.969 0-16.797-15.185-30.474-33.841-30.474-8.305 0-15.743 2.2957-21.528 6.6523-0.35138 0.29281-0.90776 0.29281-1.2591-0.041-4.8784-4.1932-11.032-6.5082-17.334-6.5082-17.189 0-28.015 14.111-27.396 28.739 0.58564 13.739 10.185 28.036 27.437 28.821 6.1984 0.29283 13.078-1.5285 17.603-4.568-2.8696-3.4319-4.7496-11.301-3.5549-15.867 0.94874-3.5724 1.9619-3.3909 1.6925 0-1.3821 17.086 14.111 24.09 29.007 24.214m-0.40995 2.1083c-11.507-0.11708-20.226-3.303-25.432-8.8836-4.8784 3.3265-12.665 5.4933-19.359 5.2064-18.47-0.84915-29.027-16.094-29.647-30.742-0.78476-18.677 14.173-31.424 29.957-31.424 6.5287 0 12.995 2.6647 18.14 6.8385 6.0327-4.2986 13.801-7.0037 22.23-7.0037 19.772 0 36.341 15.165 36.341 33.077 0 20.02-15.247 32.932-32.23 32.932"/>
  <path d="m156.07 275.68c-0.29281 0.4685-15.474 22.747-16.693 24.131-2.0029 2.3133-3.3264 2.5827-4.855-0.1757-1.6749-3.016-9.5864-23.388-9.9372-24.152-0.11709-0.29281-0.17569-1.2006 0-1.4875 2.6237-4.3572 8.739-5.5167 13.863-5.1654 2.8287 0.17569 2.8287 1.7745 0 1.8155-4.4802 0.0585-9.3591 1.4465-11.363 4.1522 0.46852 1.2006 8.4297 21.693 9.8136 24.297 2.3777-2.3953 10.557-14.462 15.412-22.086 0.74377-1.1596 1.4641-1.5285 3.7598-1.3236"/>
  <path d="m145.47 271.54c-0.40995-0.1757-0.89018-0.35139-1.3645-0.46852-2.3543-0.66178-2.4363-2.2313 0.40995-1.7159 0.52708 0.11709 1.0307 0.29282 1.4875 0.46851 2.1669 1.0307 1.3821 2.4597-0.52709 1.6925"/>
  <path d="m218.76 274c4.65 4.855 16.321 15.867 19.648 17.561 0.40996-2.5593 1.8799-22.189 2.0263-23.594 0.23425-1.9619 0.74376-2.7057 3.2444-3.4084 0 0.82576-2.4187 24.214-2.7876 26.61-0.46852 3.1215-1.6339 3.5548-4.2752 1.9853-6.3015-3.7188-22.52-19.978-23.139-20.742 2.7877-0.46852 3.4494-0.35139 5.2884 1.5929"/>
 </g>
</svg>
