<?xml version="1.0" encoding="UTF-8"?>
<!-- Created with Inkscape (http://www.inkscape.org/) -->
<svg version="1.1" viewBox="0 0 147.13 245.99" xmlns="http://www.w3.org/2000/svg">
 <g transform="translate(-44.283 -23.617)">
  <g transform="matrix(1.704 0 0 -1.704 74.56 229.88)">
   <path d="m0 0c-0.338-0.623-0.614-1.269-0.79-1.855-0.292 0.562-0.572 1.098-0.822 1.574-0.473-0.992-1.007-2.179-1.557-3.473-1.537 1.245-4.111 3.231-5.766 4.497-0.604 1.564-1.518 3.779-2.293 5.437 1.565-0.589 3.657-1.317 5.066-1.797 1.845-1.01 3.602-2.109 5.466-3.373 0.196-0.281 0.46-0.682 0.696-1.01" fill="#bad4ee"/>
  </g>
  <g transform="matrix(1.704 0 0 -1.704 58.752 93.242)">
   <path d="m0 0c-1.436 0.382-2.937 0.607-4.529 0.649-0.549 0.015-0.556-0.234-0.318-0.722 0.635-1.299 1.458-2.786 2.41-4.258 0.758-0.957 1.613-1.817 2.464-2.724-1.438 0.045-3.111-0.03-4.513-0.264 1.695-1.987 3.694-3.789 5.484-4.999 0.124 1.129 0.269 2.269 0.437 3.408l0.023-3e-3c-0.396 0.524-0.689 0.973-0.819 1.276-0.289 0.674 0.095 5.521 0.394 8.153v-1e-3c-0.128 0.232-0.258 0.471-0.394 0.726 0.302 1.285 0.894 2.628 1.4 3.551 0.115 1.279 0.255 2.645 0.4 3.961-2.271 0.834-5.87 2.133-8.287 2.858 0.212-1.136 0.5-2.464 0.847-3.754 1.315-2.341 3.523-5.729 5.001-7.857" fill="#bad4ee"/>
  </g>
  <g transform="matrix(1.704 0 0 -1.704 61.197 108.42)">
   <path d="m0 0c-1.133-7.686-1.244-15.464-0.729-18.945-2.176-7.335-2.933-12.309-2.261-16.246 0.267-1.57 0.197-2.655-0.549-4.187-0.934-1.918-2.528-5.115-3.411-7.505 0.531 1.008 1.051 1.904 1.476 2.52 0.018-1.752 0.114-4.47 0.287-6.413 0.871 1.251 1.833 2.197 3.005 2.948 0.231-1.501-0.654-4.215-0.346-5.235l5e-3 -5e-3c0.512 0.46 1.225 0.869 1.94 1.122 1.882 0.665 4.935 2.38 7.806 5.363 1.174-0.316 2.742-0.23 3.978 0.2 1.966-0.864 3.957-1.358 5.674-1.09-0.028-0.955-0.021-2.001 0.075-3.44 0.274 0.369 0.575 0.675 0.955 0.981 0.478-1.67 0.915-5.587 0.935-7.595 0.437 1.272 1.054 2.386 1.69 3.221 0.272-1.173 0.442-3.071 0.448-4.914 0.32-0.424 0.637-0.881 0.894-1.274 1.325 3.751 3.565 9.093 4.953 11.949 0.353 0.725 0.659 1.191 1.044 1.567 3.206 0.813 7.422 2.19 10.196 3.423 0.603 0.268 1.154 0.36 1.995 0.355 1.39-7e-3 2.169 0.221 3.125 0.236 0.399 6e-3 0.614-0.174 0.733-0.732 0.334-1.57 0.747-3.2 1.153-4.478 0.303-0.951 0.467-1.218 1.228-2.015 1.074-1.126 2.137-3.388 2.19-5.073 0.032-0.963 0.024-2.263-0.014-3.844 0.548 1.535 1.155 3.039 1.754 4.118 0.212-2.194 0.712-5.331 1.098-7.622 0.539-2.618 1.585-5.983 2.252-7.372 0.246-0.513 0.591-0.603 1.232-0.404 0.866 0.269 1.845 0.559 2.728 0.78 0.189 0.047 0.343 0.061 0.48 0.032-0.516 1.685-0.598 4.03-0.629 5.925-0.069 4.193-1.01 7.632-2.078 9.469-0.541 0.927-0.658 1.623-0.694 3.003-0.033 1.253 0.294 3.553 0.616 5.082 0.308 1.462 0.693 2.387 1.501 3.233 3.857 4.04 4.591 12.175 1.963 18.786-3.457 8.701-11.355 10.163-20.305 7.295-0.632-0.202-1.175-0.231-1.752-0.096-3.001 0.7-8.508 2.329-11.53 3.502-1.592 0.62-2.174 1.463-2.791 2.695-1.16 2.322-3.228 6.279-4.325 8.304z" fill="#fff"/>
  </g>
  <g transform="matrix(1.704 0 0 -1.704 96.427 69.535)">
   <path d="m0 0c-2.057-1.506-3.923-3.164-6.19-5.512-1.91 4.936-4.775 16.849-5.869 21.843-1.039 3.666-2.252 7.506-3.175 10.422-0.444-0.529-0.694-0.895-0.982-1.415-0.596-2.944-1.347-6.64-1.79-10.317 0.156-4.335 0.591-11.637 0.962-16.786-0.409 0.728-0.802 1.407-1.154 1.985-0.361 0.589-0.695 0.522-0.819-0.274-0.332-2.136-0.765-5.876-1.053-9.066-0.506-0.923-1.098-2.266-1.401-3.551 0.751-1.4 1.343-2.425 2.007-3.364 1.776-1.313 4.735-3.06 6.871-4.042 0.405-1.905 1.025-4.662 1.401-6.265 0.028-0.447 0.043-0.909 0-1.386-0.78-0.909-1.834-2.049-3.018-3.175 0-0.895 0.094-2.426 0.448-2.931 1.082-1.544 4.196-3.229 5.832-3.118 1.487 0.101 3.825 2.434 4.153 4.158 0.157 0.828-7e-3 3.049-0.111 3.522-0.026 0.12-0.069 0.248-0.126 0.38-5e-3 0.719 0.07 1.387 0.183 1.98 0.99 1.356 2.476 3.655 2.83 4.492 0.408 0.968 0.585 4.136 0.513 6.42 0.04 0.033 0.08 0.067 0.119 0.099-0.261 2.072-0.706 4.973-1.228 7.168 0.798 2.701 1.712 6.134 2.164 8.396 0.11 0.545-0.083 0.692-0.567 0.337" fill="#bad4ee"/>
  </g>
  <g transform="matrix(1.704 0 0 -1.704 73.709 95.013)">
   <path d="m0 0c-0.214 2.227-0.656 5.047-1.129 6.862-0.991 1.937-2.287 4.316-3.232 5.871-0.275-1.983-0.504-4.712-0.489-7.197 1.25-1.876 3.035-3.95 4.85-5.536" fill="#71706d"/>
  </g>
  <g transform="matrix(1.704 0 0 -1.704 84.492 98.885)">
   <path d="m0 0c0.663 1.022 1.328 1.956 2.015 2.86-0.185 2.193-0.23 4.222-0.214 6.336 1e-3 3e-3 3e-3 6e-3 5e-3 8e-3 -0.175-0.015-0.371-0.027-0.558-0.029-0.558 0.647-1.299 1.677-1.856 2.504-0.985 3.928-2.225 10.334-2.815 14.89-0.393 1.606-0.753 3.122-1.059 4.449-0.407 1.041-0.812 2.024-1.189 2.844 0.154-4.831 1.367-15.937 2.272-22.654-1.087-0.677-2.489-1.436-4.034-2.171 0.459-1.799 0.886-4.52 1.098-6.698 0.93-3.657 1.857-8.544 2.4-12.114 0.366-2.399 2.279-6.114 4.041-8.509 0.961 1.098 1.77 3.218 2.135 5.246-0.579 0.747-1.143 1.372-1.738 1.997-0.107 3.416-0.32 8.25-0.503 11.041" fill="#fff"/>
  </g>
  <g transform="matrix(1.704 0 0 -1.704 88.503 121.46)">
   <path d="m0 0c-0.098-0.595-0.279-1.347-0.496-2.045 0.224-0.192 0.652-0.174 0.969 0.151 0.089 0.618 0.012 1.508-0.154 1.894-0.143 0.336-0.273 0.275-0.319 0" fill="#595754"/>
  </g>
  <g transform="matrix(1.704 0 0 -1.704 78.066 124.96)">
   <path d="m0 0c0.176 0.11 0.278 1.115 0.198 2.031-0.024 0.05-0.047 0.096-0.067 0.139-0.165 0.341-0.456 0.386-0.753 0.18-0.532-0.369-1.147-0.925-1.409-1.351-0.184-0.299-0.147-0.521 0.153-0.922 0.634-0.247 1.678-0.203 1.878-0.077" fill="#71706d"/>
  </g>
  <g transform="matrix(1.704 0 0 -1.704 72.213 122.19)">
   <path d="m0 0c1.184 1.126 2.238 2.266 3.018 3.176 0.043 0.476 0.028 0.938 0 1.386-0.376 1.602-0.997 4.359-1.401 6.265-2.137 0.982-5.096 2.728-6.871 4.042-0.544 0.767-1.04 1.596-1.612 2.638-0.299-2.632-0.684-7.479-0.395-8.153 0.487-1.134 3.201-4.263 5.37-5.976 0.465-1.025 1.137-2.359 1.894-3.613-2e-3 0.081-3e-3 0.161-3e-3 0.235" fill="#fff"/>
  </g>
  <g transform="matrix(1.704 0 0 -1.704 88.282 104.37)">
   <path d="m0 0c0.392-0.215 0.755-0.375 1.196-0.482 0.897 0.86 1.652 1.71 2.288 2.488 0.181 0.532 0.267 1.329 0.288 2.005-1.247-1.039-2.677-2.284-3.724-3.248-0.019-0.248-0.034-0.504-0.048-0.763" fill="#d0e2f3"/>
  </g>
  <g transform="matrix(1.704 0 0 -1.704 65.326 101.43)">
   <path d="m0 0c0.938-0.938 1.978-1.862 2.96-2.613 0.696 0.211 1.413 0.516 2.07 0.809-0.057 0.28-0.121 0.56-0.188 0.84-1.739 0.867-3.806 2.085-5.342 3.142 0.088-0.855 0.222-1.633 0.5-2.178" fill="#e3eff5"/>
  </g>
  <g transform="matrix(1.704 0 0 -1.704 60.109 90.132)">
   <path d="m0 0c0.277 0.939 0.676 1.87 1.055 2.611-1.409 1.315-3.185 2.851-5.182 4.038 0.375-0.693 1.386-2.108 2.397-3.248 0.628-1.246 1.06-2.107 1.73-3.401" fill="#fff"/>
  </g>
  <g transform="matrix(1.704 0 0 -1.704 60.095 96.596)">
   <path d="m0 0c-0.829 0.167-1.788 0.333-2.771 0.381 0.494-1.082 1.602-3.047 2.523-4.51 0.019 1.123 0.122 2.671 0.248 4.129" fill="#fff"/>
  </g>
  <g transform="matrix(1.704 0 0 -1.704 93.706 84.417)">
   <path d="m0 0c0.352-1.479 0.669-3.28 0.918-4.931 1.464 2.74 2.755 5.087 3.787 7.225 0.982 2.521 1.982 5.293 3.003 8.507-0.02 0.366-0.039 0.751-0.097 1.04-1.71-1.51-4.056-3.399-5.722-4.723-0.492-2.157-1.23-4.886-1.889-7.118" fill="#bad4ee"/>
  </g>
  <g transform="matrix(1.704 0 0 -1.704 95.798 96.631)">
   <path d="m0 0c-0.039-0.032-0.079-0.065-0.119-0.098 0.057-1.806-0.042-4.159-0.287-5.546 1.152 0.66 2.427 2.173 3.376 3.557 0.663 0.966 1.733 3.073 2.482 4.787 0.206 0.471 0.094 0.672-0.459 0.501-1.724-0.534-3.669-1.116-5.218-1.542 0.085-0.588 0.162-1.149 0.225-1.659" fill="#bad4ee"/>
  </g>
  <g transform="matrix(1.704 0 0 -1.704 95.271 92.82)">
   <path d="m0 0c0.716 1.34 1.39 2.585 2.013 3.759 1.2 3.574 2.211 6.913 2.852 9.394-1.193-1.655-2.098-3.099-3.176-5.081-0.756-1.392-1.703-2.646-2.486-3.671 0.304-1.368 0.576-2.942 0.797-4.401" fill="#fff"/>
  </g>
  <g transform="matrix(1.704 0 0 -1.704 95.106 106.25)">
   <path d="m0 0c0 2e-3 0 5e-3 1e-3 7e-3 -0.065-0.371-0.141-0.677-0.227-0.882-0.228-0.54-0.929-1.691-1.665-2.803 0.199-0.366 0.428-0.794 0.677-1.262 0.555 1.701 1.725 4.178 2.884 6.346-0.553-0.59-1.125-1.094-1.67-1.406" fill="#a1b8ce"/>
  </g>
  <g transform="matrix(1.704 0 0 -1.704 99.027 215.33)">
   <path d="m0 0c0.42 0.634 0.427 0.961 0.159 1.452-0.218 0.399-0.795 1.289-1.382 2.065-6e-3 1.843-0.175 3.742-0.447 4.914-0.637-0.835-1.253-1.949-1.69-3.221-0.02 2.008-0.457 5.925-0.935 7.596-0.815-0.657-1.272-1.313-1.85-2.585-0.667-2.058-1.597-4.476-2.968-7.329l-1.525-5.029c-0.849-1.917-1.983-3.823-3.004-5.252-0.657-0.92-1.218-2.044-1.506-3.008-0.292 0.563-0.573 1.099-0.823 1.574-0.883-1.857-1.986-4.389-2.992-7.043-0.498 1.87-0.9 3.622-1.16 4.97-1.232-1.81-2.466-3.619-3.698-5.906-0.319-1.412-0.616-3.102-0.816-4.593-0.695-1.849-1.65-4.275-2.385-6.065 0.8-0.428 1.793-0.94 2.684-1.491 0.415 0.046 0.865 0.177 1.324 0.381-0.079-0.544-0.15-1.025-0.211-1.375 2.247-0.696 4.176-1.213 6.403-1.691 0.835 0.517 1.69 0.935 2.326 1.214 0.253-0.349 0.704-0.712 0.995-0.895 1.53-0.04 5.011 0.378 6.7 1.113 0.497 0.557 1.055 1.233 1.552 1.85 1.51 0.409 3.002 0.914 4.155 1.372-0.477 1.769-1.391 4.434-1.969 5.945 0.776 1.094 1.432 2.068 2.009 3.121-0.955 2.943-1.471 9.164-1.074 12.945 0.138 1.302 1.027 3.309 2.128 4.971" fill="#bad4ee"/>
  </g>
  <g transform="matrix(1.704 0 0 -1.704 70.318 269.24)">
   <path d="m0 0c-0.205 3.696 0.17 7.867 0.562 10.56-0.258 2.147-1.074 5.169-1.669 6.78-0.716-1.034-1.115-1.968-1.532-3.281-0.427-1.093-1.034-2.008-1.73-3.201-0.69-1.183-1.016-2.645-1.153-3.858-0.113-0.996-0.593-3.771-0.855-5.309 1.354-0.416 4.443-1.249 6.377-1.691" fill="#fff"/>
  </g>
  <g transform="matrix(1.704 0 0 -1.704 86.375 239.97)">
   <path d="m0 0c-0.135 0.696-0.423 0.664-0.616 0.039-0.5-1.617-1.077-3.87-1.059-5.063-1.001-1.809-2.724-5.527-3.098-6.679-0.238-0.729-0.613-3.1-0.716-5.148 1.535 0.049 4.041 0.381 5.622 0.923 0.074 1.434 0.16 3.961 0.079 5.515-0.097 1.848 0.423 7.121-0.212 10.413" fill="#fff"/>
  </g>
  <g transform="matrix(1.704 0 0 -1.704 59.821 264.19)">
   <path d="m0 0c0.253 1.49 0.553 3.281 0.638 4.04 0.115 1.011 0.364 2.194 0.842 3.246-0.168 2.118-0.481 4.699-0.722 6.338-0.497-0.474-1.038-1.091-1.572-1.753-0.318-1.411-0.616-3.1-0.815-4.59-0.695-1.849-1.65-4.276-2.386-6.065 0.801-0.428 1.793-0.94 2.685-1.491 0.415 0.046 0.865 0.177 1.324 0.38-5e-3 -0.038-2e-3 -0.072 6e-3 -0.105" fill="#fff"/>
  </g>
  <g transform="matrix(1.704 0 0 -1.704 72.841 232.33)">
   <path d="m0 0c0.859-1.65 1.874-3.625 2.63-5.043-0.053-2.082-0.122-4.726-0.118-6.946 0.576 1.313 1.198 2.861 1.816 4.476-0.244 2.723-0.442 5.642-0.64 8.263 1.001 0.635 2.561 1.713 3.62 2.502-0.135 1.444-0.174 2.695-0.194 4.119 0.944 0.539 2.022 1.213 3.003 1.848-0.462 1.328-0.962 3.176-1.27 4.889-1.809-0.789-3.195-1.482-4.33-2.502-0.193-2.098 0.307-4.928 1.058-7.199-1.442-1.254-3.43-2.8-5.575-4.407" fill="#fff"/>
  </g>
  <g transform="matrix(1.704 0 0 -1.704 74.649 229.72)">
   <path d="m0 0c0.203 0.368 0.427 0.726 0.664 1.058 0.6 0.839 1.237 1.846 1.834 2.92-0.725 0.557-1.368 1.041-2.114 1.534-1.178 0.48-2.82 1.223-4.183 1.905 0.806-1.518 1.441-3.438 1.781-4.957 0.587-0.651 1.369-1.533 2.018-2.46" fill="#bad4ee"/>
  </g>
  <g transform="matrix(1.704 0 0 -1.704 71.211 225.53)">
   <path d="m0 0c-0.341 1.518-0.976 3.438-1.781 4.957 1.363-0.682 3.005-1.425 4.182-1.906 0.736-0.486 1.404-0.981 2.118-1.529 0.418 0.753 0.817 1.539 1.167 2.328l1e-3 2e-3c-0.222 1.332-0.317 2.65-0.214 3.763 0.066 0.06 0.135 0.114 0.204 0.172-1.097 1.258-2.326 2.665-3.304 3.677-3.356-0.607-7.231 0.376-10.778 4.197-0.308 1.02 0.577 3.734 0.346 5.235-1.172-0.751-2.134-1.698-3.004-2.949-0.174 1.944-0.27 4.662-0.288 6.413-1.268-1.836-3.368-6.139-4.128-8.584 0.144-1.241 0.346-2.858 0.318-3.638-0.029-0.779 0.093-1.351 0.886-2.002 0.75-0.615 1.596-1.193 2.636-1.636 0.699-0.297 1.152-0.663 1.809-1.501 0.867-1.105 2.274-2.84 3.586-4.464 0.743-0.26 1.455-0.506 2.047-0.707 1.829-1.002 3.713-2.168 5.561-3.42-0.476 0.598-0.965 1.149-1.364 1.592" fill="#a1b8ce"/>
  </g>
  <g transform="matrix(1.704 0 0 -1.704 59.335 228.62)">
   <path d="m0 0c-0.386 0.999-0.897 2.262-1.418 3.476-1.26 0.958-2.693 2.129-4.094 3.335 0.71-2.507 2.219-5.813 3.728-7.744 1.296-1.093 2.806-2.416 3.994-3.582 0.32 0.478 0.641 0.948 0.96 1.417 0.147-0.767 0.344-1.67 0.575-2.648 0.397-0.123 0.861-0.244 1.359-0.346 0.221 0.546 0.443 1.079 0.662 1.596-1.537 1.245-4.112 3.23-5.766 4.496" fill="#bad4ee"/>
  </g>
  <g transform="matrix(1.704 0 0 -1.704 75.781 227.92)">
   <path d="m0 0c0.233 0.327 0.473 0.681 0.713 1.052-1.096 0.261-2.152 0.49-3.056 0.625 0.701-0.844 1.252-1.55 1.868-2.404 0.151 0.251 0.31 0.496 0.475 0.727" fill="#dbdcdc"/>
  </g>
  <g transform="matrix(1.704 0 0 -1.704 71.092 231.91)">
   <path d="m0 0c-1.078 0.606-2.268 1.258-3.384 1.837-1.229 0.146-2.201 0.14-3.508 0.086 1.656-1.266 4.223-3.247 5.758-4.49 0.392 0.921 0.775 1.786 1.134 2.567" fill="#dbdcdc"/>
  </g>
  <g transform="matrix(1.704 0 0 -1.704 54.504 206.53)">
   <path d="m0 0c-1.486 0.868-3.036 1.859-4.569 2.943-0.295-0.64-0.542-1.234-0.786-1.908-1e-3 -0.016-1e-3 -0.034-1e-3 -0.049-0.03-0.779 0.092-1.352 0.885-2.002 0.75-0.616 1.597-1.193 2.637-1.636 0.681-0.29 1.13-0.648 1.762-1.443-0.111 1.404-0.095 2.955 0.072 4.095" fill="#dbdcdc"/>
  </g>
  <g transform="matrix(1.704 0 0 -1.704 66.064 218.11)">
   <path d="m0 0c-1.522 0.201-3.499 0.55-5.483 0.982 0.702-0.874 1.497-1.855 2.259-2.799 0.744-0.261 1.455-0.506 2.047-0.708 0.542-0.296 1.089-0.609 1.638-0.933-0.151 1.367-0.312 2.554-0.461 3.458" fill="#dbdcdc"/>
  </g>
  <g transform="matrix(1.704 0 0 -1.704 160.65 240.66)">
   <path d="m0 0c0.635 1.213 1.516 2.858 2.021 3.912-0.563 1.256-1.156 2.382-1.743 3.499-0.318 0.605-0.581 0.716-1.101 0.587-0.883-0.221-1.863-0.511-2.729-0.78-0.64-0.199-0.985-0.109-1.231 0.404-0.667 1.389-1.713 4.754-2.252 7.372-0.386 2.291-0.886 5.428-1.098 7.622-0.962-1.732-1.943-4.562-2.675-6.852-0.613-2.313-1.274-5.103-1.808-7.487-1.039-0.732-2.215-2.381-2.894-4.16-0.085-0.222-0.182-0.539-0.28-0.896-0.378 1.021-0.808 2.075-1.188 2.788-0.699-1.146-1.286-2.139-2.138-3.69-0.266-2.152-0.727-3.984-1.189-5.521 0.084-0.573 0.113-1.258 0.126-1.859 1.873-0.811 3.872-1.579 5.941-2.306 3.298 0.154 6.971 0.573 9.445 1.015 1.115 0.677 2.285 2.018 3.037 3.106 0.95 0.346 1.764 0.666 2.478 0.994-0.232 0.751-0.462 1.53-0.722 2.252" fill="#bad4ee"/>
  </g>
  <g transform="matrix(1.704 0 0 -1.704 145.02 229.28)">
   <path d="m0 0c-0.481-1.232-1.193-3.469-1.463-4.793-0.231-1.136-0.539-4.157-0.616-6.217-0.041-1.102-0.549-1.294-0.924-0.231-0.817 2.32-2.02 6.564-2.541 9.547-0.94-2.098-1.856-6.472-2.175-9.201-0.115-0.995-0.702-1.201-0.808 0.022-0.241 2.783-0.537 5.648-1.23 6.852-0.062-0.112-0.123-0.221-0.187-0.339-0.266-2.153-0.727-3.984-1.189-5.521 0.084-0.573 0.112-1.258 0.126-1.859 1.873-0.811 3.872-1.579 5.941-2.306 3.283 0.153 6.937 0.568 9.41 1.009-0.786 3.211-2.884 9.517-4.344 13.037" fill="#fff"/>
  </g>
  <g transform="matrix(1.704 0 0 -1.704 128.07 236.71)">
   <path d="m0 0c0.02 0.037 0.038 0.069 0.058 0.105-0.19 0.617-0.424 1.245-0.676 1.849 0.404 0.607 0.851 1.444 1.198 2.281-0.433 1.357-0.779 2.7-1.039 3.999-1.386-0.26-3.018-0.409-4.157-0.433-0.747-0.016-1.043 0.255-0.983 1.025 0.246 3.118 0.664 7.333 1.113 10.206-1.97-1.817-4.671-7.083-6.481-10.949-0.155 1.655-0.43 3.445-0.694 4.886-0.996-1.271-1.603-2.18-2.339-3.537-1.141-3.104-2.237-8.763-2.512-11.159 0.375-0.606 0.909-1.328 1.429-1.804 2.411-0.563 6.482-0.679 8.662-0.664 1.486 0.88 2.367 1.385 3.45 1.963 0.896 0.274 1.835 0.592 2.78 0.933 0.07 0.42 0.135 0.851 0.191 1.299" fill="#a1b8ce"/>
  </g>
  <g transform="matrix(1.704 0 0 -1.704 114.02 243.83)">
   <path d="m0 0c-0.326 3.046-1.118 5.77-1.857 7.75-0.707-1.443-1.603-3.464-2.18-5.615-0.404 2.223-1.415 6.51-2.093 9.022-0.493-2.437-1.105-7.159-0.708-10.509 1.232-0.403 4.725-0.647 6.838-0.648" fill="#fff"/>
  </g>
  <g transform="matrix(1.704 0 0 -1.704 103.58 224.82)">
   <path d="m0 0-0.329 0.217c-0.86-3.097-1.591-7.028-1.808-8.922 0.375-0.606 0.909-1.328 1.429-1.804-0.397 3.35 0.215 8.071 0.708 10.509" fill="#fff"/>
  </g>
  <g transform="matrix(1.704 0 0 -1.704 176.49 145)">
   <path d="m0 0c0.184 0.911 0.314 1.667 0.432 2.567-1.343 1.891-7.084 3.555-13.033 0.278 0.466-0.422 0.909-0.887 1.323-1.401 1.801 0.961 3.897 1.389 5.993 0.989-0.25-2.714 1.54-5.447 3.542-6.371-0.212 1.135-0.347 3.06-0.251 4.696 0.626-0.21 1.303-0.468 1.994-0.758" fill="#e3eff5"/>
  </g>
  <g transform="matrix(1.704 0 0 -1.704 191.1 168.38)">
   <path d="m0 0c-2.004 1.36-4.199 3.005-6.32 4.977 1.539 0.699 3.063 1.433 4.318 2.106-0.135 1.329-0.347 2.445-0.654 3.484-1.906 1.367-5.332 3.041-7.911 3.908-0.096-1.637 0.039-3.561 0.251-4.697-1.378 0.636-2.656 2.128-3.237 3.882-1.12-0.763-2.661-1.766-3.991-2.532 3e-3 -7e-3 6e-3 -0.014 9e-3 -0.022 0.652-1.64 1.097-3.374 1.338-5.116 0.954-0.62 2.195-1.077 3.212-1.325-1.096-1.095-2.049-2.043-3.04-3.175-0.083-1.285-0.281-2.532-0.593-3.702 0.087-0.256 0.181-0.513 0.296-0.79 1.172-0.391 3.114-0.929 4.768-1.252-0.242-0.95-0.419-1.869-0.495-2.579 0.615-2.059 1.944-4.542 3.061-6.043 1.346 1.693 2.944 5.023 3.618 7.294-0.067 0.598-0.222 1.157-0.423 1.78 1.479 0.373 3.216 0.759 4.83 1.031 0.386 0.943 0.674 1.867 0.963 2.771" fill="#bad4ee"/>
  </g>
  <g transform="matrix(1.704 0 0 -1.704 104.19 220.8)">
   <path d="m0 0 0.069-1.63-0.975-1.351c0.209 0.997 0.547 2.085 0.906 2.981" fill="#dbdcdc"/>
  </g>
  <g transform="matrix(1.704 0 0 -1.704 141.51 232.32)">
   <path d="m0 0c-1.017-0.835-2.009-1.852-2.844-2.893 0.387-1.779 1.405-5.337 2.227-7.128 0.085 3.037 0.424 6.729 1.054 8.472-0.146 0.472-0.291 0.992-0.437 1.549" fill="#a1b8ce"/>
  </g>
  <g transform="matrix(1.704 0 0 -1.704 132.28 239.48)">
   <path d="m0 0c-0.401-0.33-0.956-0.683-1.502-0.972 0.168-1.173 0.403-2.915 0.417-3.671 9e-3 -0.426 0.105-0.924 0.209-1.052 0.361 1.807 0.579 4.201 0.876 5.695" fill="#a1b8ce"/>
  </g>
  <g transform="matrix(1.704 0 0 -1.704 152.75 236.04)">
   <path d="m0 0c1.749 0.203 4.815 0.804 6.641 1.328-0.491-1.14-1.242-2.613-2.006-4.042-0.853-0.447-2.694-1.1-3.848-1.375-0.187 1.328-0.483 2.92-0.787 4.089" fill="#a1b8ce"/>
  </g>
  <g transform="matrix(1.704 0 0 -1.704 97.166 245.51)">
   <path d="m0 0c-1.732-1.043-3.626-1.898-5.545-2.607-0.125-0.897-0.104-1.856-0.083-2.92 1.355 0.654 2.686 1.463 3.657 2.202 0.889 1.281 1.403 2.071 1.971 3.325" fill="#a1b8ce"/>
  </g>
  <g transform="matrix(1.704 0 0 -1.704 66.088 243.99)">
   <path d="m0 0c-0.833-0.882-1.618-1.512-2.471-2.151 0.059-0.62 0.204-1.677 0.252-2.345 0.494 0.911 2.084 3.266 2.219 4.496" fill="#a1b8ce"/>
  </g>
  <g transform="matrix(1.704 0 0 -1.704 75.032 220.31)">
   <path d="m0 0c0.184-0.908 0.351-2.404 0.343-3.232 0.169-0.051 0.537-0.152 0.731-0.224 0.405 0.635 0.824 1.346 1.202 1.914-0.559 0.454-1.546 1.179-2.276 1.542" fill="#a1b8ce"/>
  </g>
  <g transform="matrix(1.704 0 0 -1.704 73.373 228.16)">
   <path d="m0 0c-1.863 1.264-3.621 2.363-5.466 3.373-0.047 0.016-0.096 0.033-0.145 0.049 0.266-0.974 0.638-2.642 0.84-3.777 0.016-2e-3 0.032-3e-3 0.048-5e-3 1.117-0.579 2.306-1.231 3.384-1.837l-1e-3 -1e-3c0.146 0.316 0.288 0.62 0.424 0.906 0.25-0.475 0.53-1.011 0.822-1.574 0.176 0.587 0.452 1.233 0.79 1.856-0.236 0.327-0.5 0.728-0.696 1.01" fill="#a1b8ce"/>
  </g>
  <g transform="matrix(1.704 0 0 -1.704 69.16 236.28)">
   <path d="m0 0c-1.178 0.954-2.964 2.342-4.479 3.509-1.192 0.285-2.693 0.704-3.89 1.234 0.269-0.43 0.545-0.828 0.819-1.18 1.296-1.093 2.807-2.416 3.994-3.582 0.321 0.478 0.641 0.948 0.96 1.417 0.148-0.767 0.344-1.67 0.575-2.648 0.397-0.123 0.862-0.244 1.36-0.346 0.221 0.546 0.442 1.079 0.661 1.596" fill="#a1b8ce"/>
  </g>
  <g transform="matrix(1.704 0 0 -1.704 187.17 152.85)">
   <path d="m0 0c-2.78-0.922-5.337-1.422-7.683-1.534 0.386-1.119 1.391-2.556 2.468-3.137 1.797 0.802 3.958 1.771 5.517 2.641-0.053 0.565-0.182 1.376-0.302 2.03" fill="#a1b8ce"/>
  </g>
  <g transform="matrix(1.704 0 0 -1.704 162.59 153.91)">
   <path d="m0 0c1.654-0.581 3.457-0.898 5.416-0.93-0.487-1.023-0.921-2.082-1.104-3.004-1.116 0.249-2.562 0.673-3.815 1.364-0.056 0.645-0.239 1.75-0.497 2.57" fill="#a1b8ce"/>
  </g>
  <g transform="matrix(1.704 0 0 -1.704 171.95 155.39)">
   <path d="m0 0c0.272-0.374 0.941-0.334 1.237 8e-3 0.281-0.856 1.059-2.116 1.992-2.871-1.307 0.599-3.12 0.622-4.326 0.132 0.32 0.973 0.607 1.844 1.097 2.731" fill="#a1b8ce"/>
  </g>
  <g transform="matrix(1.704 0 0 -1.704 162.74 172.23)">
   <path d="m0 0c0.079-0.238 0.231-0.542 0.39-0.758 1.162-0.44 3.724-1.025 4.701-1.235 0.203 0.91 0.488 1.762 0.726 2.368-1.883 0.032-3.762 0.284-5.525 0.784-0.075-0.372-0.169-0.777-0.292-1.159" fill="#a1b8ce"/>
  </g>
  <g transform="matrix(1.704 0 0 -1.704 191.1 168.38)">
   <path d="m0 0c-2.735-0.984-5.768-1.624-8.661-1.819 0.375-0.962 0.664-1.612 1.162-2.42 1.718 0.505 4.405 1.116 6.536 1.468 0.335 0.863 0.695 1.915 0.963 2.771" fill="#a1b8ce"/>
  </g>
  <g transform="matrix(1.704 0 0 -1.704 175.77 170.01)">
   <path d="m0 0c-0.317-1.473-0.937-4.297-0.894-5.635 0.039-1.183 0.549-4.504 0.968-6.193 1.054 1.386 3.089 5.37 3.551 7.203-0.145 0.693-0.24 1.164-0.423 1.78-0.616-0.148-1.107-0.249-1.706-0.437-0.585 1.083-1.063 2.098-1.496 3.282" fill="#a1b8ce"/>
  </g>
  <g transform="matrix(1.704 0 0 -1.704 160.06 226.98)">
   <path d="m0 0c-0.516 1.685-0.598 4.03-0.629 5.924-0.068 4.194-1.01 7.633-2.078 9.47-0.014 0.023-0.025 0.045-0.038 0.067 0.827-2.989 1.094-5.501 0.724-9.386-0.24-2.514-0.122-4.278 0.422-6.424 0.334 0.094 0.8 0.236 1.12 0.316 0.188 0.048 0.342 0.061 0.479 0.033" fill="#dbdcdc"/>
  </g>
  <g transform="matrix(1.704 0 0 -1.704 93.718 84.224)">
   <path d="m0 0c-0.921-1.873-2.278-4.303-3.384-5.946-0.199 2.272-0.245 4.36-0.229 6.539 1.458 2.087 3.176 4.205 4.849 6.078-0.112-1.325-0.341-3.089-0.747-5.115-0.179-0.607-0.269-0.945-0.489-1.556" fill="#71706d"/>
  </g>
  <g transform="matrix(1.704 0 0 -1.704 64.474 97.723)">
   <path d="m0 0c0.149-1.075 3.567-3.086 5.53-3.982l-0.188 0.84c-1.867 0.959-4.055 2.17-5.342 3.142" fill="#c1cbd1"/>
  </g>
  <g transform="matrix(1.704 0 0 -1.704 88.262 104.41)">
   <path d="m0 0c1.297 0.941 3.269 2.838 3.901 4.098-1.139-0.935-2.851-2.327-3.887-3.346z" fill="#b2c3d1"/>
  </g>
  <g transform="matrix(1.704 0 0 -1.704 110.86 230.63)">
   <path d="m0 0c-0.334-0.681-0.709-1.492-1.073-2.384 0.587 0.157 1.171 0.301 1.734 0.427-0.216 0.71-0.44 1.367-0.661 1.957" fill="#dbdcdc"/>
  </g>
  <g transform="matrix(1.704 0 0 -1.704 106.18 235.51)">
   <path d="m0 0c-0.47 2.119-1.071 4.59-1.524 6.27-0.34-1.677-0.736-4.434-0.82-7.082 0.69 0.274 1.493 0.55 2.344 0.812" fill="#dbdcdc"/>
  </g>
  <g transform="matrix(1.704 0 0 -1.704 103.02 224.45)">
   <path d="m0 0c-0.613-2.208-1.159-4.837-1.502-6.853 0.28-0.365 0.602-0.682 0.999-1.001 0.042 2.812 0.469 5.843 0.832 7.637z" fill="#dbdcdc"/>
  </g>
  <g transform="matrix(1.704 0 0 -1.704 108.69 188.48)">
   <path d="m0 0c3.206 0.813 7.422 2.19 10.196 3.423 0.603 0.268 1.154 0.36 1.994 0.355 1.391-7e-3 2.17 0.221 3.125 0.236 0.4 7e-3 0.615-0.174 0.734-0.732 0.334-1.57 0.747-3.2 1.153-4.478 0.303-0.95 0.467-1.218 1.228-2.015 1.074-1.126 2.136-3.388 2.19-5.073 0.031-0.963 0.024-2.263-0.015-3.844 0.405 1.131 0.841 2.245 1.283 3.185 0.42 1.549-0.864 5.064-2.337 6.698-1.328 1.473-2.022 8.228-0.482 10.442 0.313 0.449 0.732 1.077 0.962 1.559-3.233-2.098-11.76-2.675-16.41-1.101-0.146 1.206-0.37 2.552-0.797 3.785 0.982-5.533-0.88-8.583-3.484-10.845-1.243-1.081-1.634-1.581-2.233-2.984-1.28-2.997-2.521-6.332-4.017-10.465l0.014-0.323c0.26-0.308 0.672-1.003 0.899-1.339 1.267 3.514 3.518 8.947 4.875 11.776 0.431 0.898 0.671 1.372 1.122 1.74" fill="#dbdcdc"/>
  </g>
  <g transform="matrix(1.704 0 0 -1.704 130.06 194.29)">
   <path d="m0 0c0.89 2.298 1.613 4.925 2.096 7.381-0.694-0.069-1.397-0.198-2.45-0.193-0.84 4e-3 -1.391-0.087-1.994-0.355-2.028-0.902-4.827-1.88-7.438-2.658 0.209-2.092 0.35-3.539 0.624-5.262 0.169-1.06 0.516-1.554 1.184-2.094 0.375-0.303 0.982-0.923 1.184-1.241 0.208-0.327 0.231-0.677 0.13-1.256-0.106-0.601-0.224-1.185-0.388-1.849 0.49 0.688 0.962 1.259 1.399 1.661-0.449-2.872-0.867-7.088-1.113-10.206-0.06-0.77 0.236-1.041 0.983-1.025 1.001 0.021 2.382 0.139 3.641 0.344 1.519 2.87 2.476 5.539 3.258 8.708 0.454 1.834 0.436 3.123-0.635 4.908-0.743 1.239-0.949 1.929-0.481 3.137" fill="#dbdcdc"/>
  </g>
  <g transform="matrix(1.704 0 0 -1.704 119.97 207.51)">
   <path d="m0 0c0.087 0.672 0.177 1.312 0.268 1.894-1.18-1.088-2.622-3.413-3.977-5.934 1.253 1.492 2.635 2.986 3.709 4.04" fill="#c0cbd6"/>
  </g>
  <g transform="matrix(1.704 0 0 -1.704 104.33 223.46)">
   <path d="m0 0c-0.154-0.202-0.289-0.414-0.452-0.616 0.125-0.443 0.26-0.895 0.375-1.357 0.654 0.818 1.367 1.53 2.089 2.233-0.155 0.5-0.327 1.155-0.419 1.727 0.298 0.375 0.656 0.749 1.027 1.107-0.111 0.74-0.23 1.454-0.349 2.098-0.996-1.271-1.602-2.18-2.338-3.537-0.01-0.51 0.019-0.991 0.067-1.655" fill="#c0cbd6"/>
  </g>
  <g transform="matrix(1.704 0 0 -1.704 115.09 228.45)">
   <path d="m0 0c-0.822-0.479-2.44-1.276-3.57-1.783 0.548 0.898 1.953 2.726 2.891 3.669 0.217-0.495 0.492-1.27 0.679-1.886" fill="#c0cbd6"/>
  </g>
  <g transform="matrix(1.704 0 0 -1.704 86.255 173.68)">
   <path d="m0 0c-1.902-0.766-4.79-0.795-6.316 0.236-5.932-1.527-10.113 0.75-11.613 6.189-0.019-1.194 0.058-2.294 0.234-3.322 0.267-1.57 0.197-2.654-0.549-4.186-0.934-1.919-2.528-5.116-3.411-7.506 0.531 1.009 1.051 1.904 1.476 2.52 0.018-1.751 0.114-4.47 0.287-6.413 0.871 1.251 1.832 2.198 3.005 2.949 0.231-1.502-0.654-4.216-0.346-5.236l4e-3 -4e-3c0.513 0.46 1.226 0.868 1.941 1.121 1.882 0.665 4.934 2.38 7.806 5.363 1.174-0.315 2.742-0.23 3.978 0.2 1.966-0.864 3.957-1.358 5.674-1.089l0.011 0.331c-1.901 2.239-3.38 6.753-2.181 8.847" fill="#dbdcdc"/>
  </g>
  <g transform="matrix(1.704 0 0 -1.704 91.884 112.52)">
   <path d="m0 0c-0.402-0.61-0.814-1.208-1.165-1.688-0.113-0.593-0.188-1.262-0.183-1.98 0.057-0.132 0.1-0.261 0.126-0.38 0.104-0.473 0.268-2.695 0.111-3.523-0.328-1.723-2.666-4.056-4.153-4.158-1.636-0.111-4.75 1.574-5.832 3.119-0.325 0.463-0.43 1.789-0.445 2.696v-1e-3c-0.757 1.254-1.429 2.588-1.894 3.613-1.587 1.255-3.466 3.267-4.55 4.7l-0.024 3e-3c-0.867-5.884-1.136-11.821-0.982-15.843 4.019-11.752 17.292-5.458 20.208 11.16-0.459 0.87-0.882 1.664-1.217 2.282" fill="#dbdcdc"/>
  </g>
  <g transform="matrix(1.704 0 0 -1.704 146.13 208.16)">
   <path d="m0 0c0.234 0.339 0.468 0.663 0.699 0.97-0.128 0.92-0.237 1.803-0.311 2.57-0.962-1.732-1.944-4.562-2.675-6.852-0.05-0.187-0.101-0.381-0.151-0.574 0.446 0.757 0.93 1.564 1.431 2.357-0.159-1.41-0.333-3.67-0.353-5.85-2e-3 -0.215 0.046-0.216 0.096-2e-3 0.498 2.105 1.004 4.869 1.264 7.381" fill="#deeaf7"/>
  </g>
  <g transform="matrix(1.704 0 0 -1.704 150 227.32)">
   <path d="m0 0c-0.79-0.482-1.927-1.384-2.532-2.051-0.124 0.309-0.252 0.574-0.392 0.899l-0.461 0.312c0.754 1.001 1.67 2.159 2.429 3.143 0.314-0.647 0.635-1.401 0.956-2.303" fill="#deeaf7"/>
  </g>
  <g transform="matrix(1.704 0 0 -1.704 140.95 230.18)">
   <path d="m0 0c-0.902-0.766-2.039-1.779-2.879-2.718-0.111 0.519-0.206 0.98-0.276 1.552l-0.268 0.214c0.544 1.248 1.558 2.644 2.694 3.324 0.259-0.605 0.519-1.458 0.729-2.372" fill="#deeaf7"/>
  </g>
  <g transform="matrix(1.704 0 0 -1.704 61.387 242.86)">
   <path d="m0 0c0.78 0.859 1.771 1.735 2.551 2.428-0.219 1.017-0.399 1.838-0.585 2.83-0.738-0.954-2.361-3.575-2.939-4.592 0.21 0.114 0.587 0.281 0.824 0.359 0.061-0.341 0.114-0.683 0.149-1.025" fill="#deeaf7"/>
  </g>
  <g transform="matrix(1.704 0 0 -1.704 77.24 240.69)">
   <path d="m0 0c-1.187-0.799-2.992-2.037-4.14-2.901-0.257 1.186-0.668 2.531-1.03 3.49l-0.376 0.056c0.594 1.457 1.6 3.909 2.36 5.417 0.748-1.522 2.218-4.334 3.186-6.062" fill="#deeaf7"/>
  </g>
  <g transform="matrix(1.704 0 0 -1.704 83.436 236.23)">
   <path d="m0 0c0.351-0.821 0.66-1.399 1.108-2.16 0.052 0.326 0.199 0.499 0.34 0.531 0.065 1.336 0.277 2.741 0.604 4.344-0.084 0.688-0.23 1.376-0.435 1.967-0.518-1.581-1.122-3.355-1.617-4.682" fill="#deeaf7"/>
  </g>
  <g transform="matrix(1.704 0 0 -1.704 91.382 198.57)">
   <path d="m0 0c0.398-1.28 0.812-2.876 1.126-4.626-0.02 2.008-0.457 5.925-0.935 7.595-0.815-0.656-1.272-1.312-1.849-2.585-0.137-0.42-0.287-0.86-0.447-1.312 0.278 0.334 0.542 0.633 0.825 0.942-0.27-0.969-0.573-2.855-0.713-4.238-0.022-0.219 0.041-0.209 0.112 1e-3 0.53 1.565 1.307 3.188 1.881 4.223" fill="#deeaf7"/>
  </g>
  <g transform="matrix(1.704 0 0 -1.704 94.984 202.91)">
   <path d="m0 0c-0.15-0.979-0.163-2.231-0.127-3.248 7e-3 -0.181 0.046-0.193 0.126 4e-3 0.358 0.88 0.685 1.77 0.963 2.763-0.058 0.567-0.155 1.142-0.26 1.625-0.269-0.307-0.452-0.634-0.702-1.144" fill="#deeaf7"/>
  </g>
  <g transform="matrix(1.704 0 0 -1.704 73.321 225.26)">
   <path d="m0 0c-0.043 0.654-0.181 1.673-0.354 2.554-0.02 0.109 3e-3 0.136 0.112 0.138 0.47 0.011 1.168 0.011 1.79-0.036-1.075 0.556-3.03 1.449-4.536 2.089 0.634-1.174 1.395-3.171 1.66-4.624 0.346-0.034 0.857-0.078 1.328-0.121" fill="#deeaf7"/>
  </g>
  <g transform="matrix(1.704 0 0 -1.704 61.378 228.55)">
   <path d="m0 0c-0.159 1.062-0.437 2.309-0.708 3.351-0.029 0.114-6e-3 0.143 0.138 0.137 0.762-0.029 1.823-0.093 2.645-0.177-1.25 0.557-4.136 1.575-5.567 2.084 0.792-1.721 1.774-4.091 2.301-5.443 0.361 0.026 0.743 0.048 1.191 0.048" fill="#deeaf7"/>
  </g>
  <g transform="matrix(1.704 0 0 -1.704 173.48 151.7)">
   <path d="m0 0c-2.052 0.872-3.755 3.688-3.517 6.363-2.095 0.401-4.191-0.028-5.993-0.989-0.226 0.281-0.463 0.547-0.706 0.8 2.294 1.187 5.596 1.763 8.062 1.065 0.451-0.128 0.543-0.273 0.442-0.869-0.325-1.918 0.204-4.271 1.712-6.37" fill="#c1cbd1"/>
  </g>
  <g transform="matrix(1.704 0 0 -1.704 75.718 41.14)">
   <path d="m0 0c-1.019 3.565-2.186 7.262-3.081 10.09-0.443-0.53-0.693-0.895-0.981-1.415-0.516-2.544-1.146-5.647-1.593-8.814 0.718 1.788 1.358 3.542 1.817 4.896 0.031 0.091 0.084 0.1 0.154 0.011 1.182-1.516 2.454-3.103 3.684-4.768" fill="#deeaf7"/>
  </g>
  <g transform="matrix(1.704 0 0 -1.704 68.817 75.185)">
   <path d="m0 0c-0.345 4.748-0.9 11.166-1.711 16.325 0.172-3.808 0.562-10.633 0.87-14.775 0.266-0.507 0.636-1.155 0.841-1.55" fill="#deeaf7"/>
  </g>
  <g transform="matrix(1.704 0 0 -1.704 60.448 89.167)">
   <path d="m0 0c0.337-1.023 0.86-2.557 1.406-4.126-0.628 1-1.282 2.012-1.762 2.976 0.124 0.429 0.216 0.72 0.356 1.15" fill="#deeaf7"/>
  </g>
  <g transform="matrix(1.704 0 0 -1.704 66.277 73.316)">
   <path d="m0 0c0.938-1.544 2.222-3.899 3.21-5.828 0.224 0.122 0.438 0.25 0.64 0.385-1.093 2.011-2.988 5.532-4.095 7.472-0.246 0.181-0.449 0.035-0.504-0.375-0.256-1.911-0.683-6.365-0.829-8.541-0.024-0.337 0.099-0.458 0.371-0.409 0.232 0.042 0.473 0.091 0.719 0.147-0.012 2.472 0.215 5.18 0.488 7.149" fill="#a1b8ce"/>
   <path d="m0 0c-0.273-1.969-0.5-4.677-0.488-7.149 1.228 0.275 2.587 0.716 3.698 1.321-0.988 1.929-2.272 4.284-3.21 5.828" fill="#595754"/>
  </g>
  <g transform="matrix(1.704 0 0 -1.704 50.231 79.852)">
   <path d="m0 0c0.048-0.086 0.101-0.176 0.151-0.265 0.078 0.948 0.175 1.979 0.286 2.618 0.016 0.094 0.047 0.097 0.156 0.043 2.105-1.055 4.64-2.526 6.608-3.777 0.075 0.758 0.156 1.526 0.239 2.277-2.271 0.834-5.87 2.132-8.287 2.857 0.212-1.135 0.5-2.463 0.847-3.753" fill="#deeaf7"/>
  </g>
  <g transform="matrix(1.704 0 0 -1.704 54.601 100.62)">
   <path d="m0 0c-0.535 1.513-0.967 2.814-1.326 3.971-0.025 0.078 4e-3 0.111 0.097 0.098 1.286-0.172 2.807-0.516 3.567-0.783 0.318-0.29 0.615-0.578 0.887-0.923l0.11 0.76c-0.327 0.385-0.664 0.856-0.898 1.208-1.393 0.341-3.211 0.616-4.53 0.649-0.461 0.012-0.593-0.167-0.317-0.722 0.49-0.991 1.53-2.916 2.41-4.258" fill="#deeaf7"/>
  </g>
  <g transform="matrix(1.704 0 0 -1.704 57.103 111.76)">
   <path d="m0 0c-0.712 1.029-1.115 1.86-1.406 2.701 1.097 0.094 2.246 0.145 3.206 0.085-0.171 0.24-0.3 0.626-0.248 1.004-1.57 0.059-3.565 0.021-5.071-0.243 0.895-1.009 2.378-2.638 3.519-3.547" fill="#deeaf7"/>
  </g>
  <g transform="matrix(1.704 0 0 -1.704 94.558 81.545)">
   <path d="m0 0c0.7 2.434 1.446 5.733 1.683 6.974-1.937-1.664-5.447-5.643-6.703-7.504l0.361-0.47 0.553 0.021c1.458 2.087 3.176 4.205 4.849 6.078-0.112-1.321-0.341-3.08-0.743-5.099" fill="#a1b8ce"/>
  </g>
  <g transform="matrix(1.704 0 0 -1.704 95.825 72.857)">
   <path d="m0 0c-1.673-1.873-3.392-3.991-4.85-6.078 1.075 3e-3 2.536-0.277 3.614-0.593 0.156 0.446 0.323 0.984 0.493 1.572 0.402 2.019 0.631 3.778 0.743 5.099" fill="#595754"/>
  </g>
  <g transform="matrix(1.704 0 0 -1.704 95.788 76.952)">
   <path d="M 0,0 C 1.632,1.579 4.08,4.13 5.351,5.612 5.198,4.34 4.946,2.59 4.522,0.723 5.219,2.541 6.049,5.029 6.486,6.42 6.474,6.777 6.432,7.118 6.39,7.46 4.769,6.055 2.422,4.147 0.667,2.737 0.46,1.851 0.262,0.941 0,0" fill="#deeaf7"/>
  </g>
  <g transform="matrix(1.704 0 0 -1.704 95.519 101.99)">
   <path d="M 0,0 C 0.929,0.657 2.295,1.924 2.621,2.31 3.681,3.561 4.768,4.957 5.557,6.4 5.066,6.438 2.092,5.332 -0.061,4.804 0.014,4.36 0.133,3.693 0.164,3.146 L 0.045,3.047 C 0.062,2.098 0.034,1.155 0,0" fill="#deeaf7"/>
  </g>
  <g transform="matrix(1.704 0 0 -1.704 70.532 105.86)">
   <path d="m0 0c0.788-0.16 1.637-0.375 2.317-0.768 0.416-0.733 0.993-2.093 1.417-3.197-0.337 1.52-0.808 3.676-1.13 5.206l-0.818 0.393c0.062-0.229 0.132-0.585 0.189-0.84-0.618-0.274-1.214-0.505-1.975-0.794" fill="#dbdcdc"/>
  </g>
  <g transform="matrix(1.704 0 0 -1.704 89.837 105.13)">
   <path d="m0 0c-0.318-0.434-0.665-1.072-0.977-1.872-0.02 0.712-7e-3 1.51 0.052 2.298 0.239-0.114 0.566-0.283 0.925-0.426" fill="#a1b8ce"/>
  </g>
  <g transform="matrix(1.704 0 0 -1.704 59.716 105.57)">
   <path d="m0 0c1.396-1.683 3.944-3.826 5.916-4.937 0.473-0.267 0.572-0.415 0.707-1.009 0.261-1.148 0.638-2.345 1.095-3.43l-0.47-0.444c-0.654 1.019-1.24 2.14-1.805 3.44-2.81 2.402-5.322 5.285-5.443 6.38" fill="#dbdcdc"/>
  </g>
  <g transform="matrix(1.704 0 0 -1.704 87.965 114.98)">
   <path d="m0 0c1.193 1.02 3.099 3.234 4.052 4.927-0.113-0.965-1.241-2.781-2.898-5.11-0.125-0.587-0.213-1.241-0.202-2.04-0.211 0.491-0.457 0.827-0.745 1.116-0.102 0.342-0.183 0.708-0.207 1.107" fill="#a1b8ce"/>
  </g>
  <g transform="matrix(1.704 0 0 -1.704 89.308 124.69)">
   <path d="m0 0c-0.23-0.295-0.687-0.322-0.966-0.206-0.239-0.734-0.502-1.238-0.891-1.82-1.241-1.85-2.502-1.787-2.888-0.441-0.441 1.54-1.026 3.084-1.654 4.337 0.061-0.784 0.105-1.806-0.199-2.031-0.144-0.108-1.144-0.188-1.878 0.077-0.308 0.404-0.672 1.377-0.836 2.25-0.234-0.233-0.473-0.468-0.72-0.703 0-0.895 0.094-2.426 0.448-2.931 1.082-1.544 4.195-3.229 5.832-3.118 1.486 0.102 3.824 2.434 4.152 4.158 0.158 0.828-6e-3 3.049-0.11 3.522-0.026 0.12-0.069 0.248-0.126 0.381-0.126 0.38-0.446 0.788-0.699 1.028 0.467-1.219 0.648-3.598 0.535-4.503" fill="#a1b8ce"/>
  </g>
  <g transform="matrix(1.704 0 0 -1.704 61.197 108.42)">
   <path d="m0 0 0.023-3e-3c-0.396 0.524-0.689 0.973-0.819 1.276-0.289 0.674 0.096 5.521 0.395 8.153v-1e-3c-0.128 0.232-0.258 0.471-0.395 0.726-0.613-1.614-1.432-4.091-2.219-6.575 0.521-0.579 1.064-1.141 1.608-1.721-0.684 0.021-1.42 0.015-2.156-0.022-0.223-0.721-0.44-1.424-0.644-2.089 1.246-1.238 2.556-2.332 3.77-3.152 0.125 1.129 0.269 2.269 0.437 3.408" fill="#a1b8ce"/>
  </g>
  <g transform="matrix(1.704 0 0 -1.704 61.13 108.89)">
   <path d="m0 0c-0.926 0.166-1.938 0.283-2.913 0.283 0.828-0.828 1.666-1.756 2.584-2.81 0.098 0.839 0.208 1.683 0.329 2.527" fill="#dbdcdc"/>
  </g>
  <g transform="matrix(1.704 0 0 -1.704 60.17 107.01)">
   <path d="m0 0c-0.171 0.24-0.3 0.626-0.248 1.003-0.831 0.032-1.78 0.035-2.714-7e-3 -0.225-0.722-0.441-1.426-0.645-2.091 0.612-0.632 1.251-1.247 1.807-1.691-0.712 1.029-1.114 1.86-1.406 2.701 1.098 0.094 2.246 0.145 3.206 0.085" fill="#c0cbd6"/>
  </g>
  <g transform="matrix(1.704 0 0 -1.704 57.062 99.207)">
   <path d="m0 0c0.481-0.866 1.033-1.804 1.532-2.596 0.02 1.123 0.122 2.671 0.248 4.129-0.377 0.076-0.783 0.15-1.204 0.215-0.188-0.561-0.381-1.147-0.576-1.748" fill="#dbdcdc"/>
  </g>
  <g transform="matrix(1.704 0 0 -1.704 60.283 95.3)">
   <path d="m0 0c-0.275 0.324-0.554 0.705-0.776 1.028-0.095-0.269-0.192-0.551-0.291-0.841 0.023-8e-3 0.048-0.017 0.07-0.024 0.318-0.29 0.615-0.579 0.887-0.923z" fill="#c0cbd6"/>
  </g>
  <g transform="matrix(1.704 0 0 -1.704 176.12 155.3)">
   <path d="M 0,0 C 2.012,0.202 4.17,0.673 6.485,1.441 6.486,1.434 6.492,1.424 6.494,1.416 6.392,1.933 6.272,2.422 6.133,2.895 4.59,4.001 2.049,5.31 -0.231,6.228 1.644,4.945 4.165,3.105 5.401,1.933 3.941,1.272 1.84,0.534 0,0" fill="#deeaf7"/>
  </g>
  <g transform="matrix(1.704 0 0 -1.704 178.29 160.8)">
   <path d="m0 0c1.994-1.681 4.435-3.478 7.454-4.641l0.065 0.198c-2.08 1.348-4.615 3.391-6.321 4.977-0.407-0.175-0.786-0.345-1.198-0.534" fill="#deeaf7"/>
  </g>
  <g transform="matrix(1.704 0 0 -1.704 103.99 223.97)">
   <path d="m0 0c-0.029 0.497-0.049 0.952-0.058 1.437l0.388 0.916c-7e-3 -0.593 0.031-1.279 0.064-1.883z" fill="#83a1b1"/>
  </g>
  <g transform="matrix(1.704 0 0 -1.704 53.995 213)">
   <path d="m0 0c-0.139 1.011-0.115 2.657 0 3.667-1.306 0.78-2.772 1.733-4.187 2.732-0.254-0.641-0.581-1.389-0.837-2.131l-0.081 1.063c0.177 0.473 0.355 0.911 0.561 1.406 0.131 0.312 0.217 0.339 0.543 0.11 1.494-1.05 2.869-1.929 4.27-2.741 0.211-0.123 0.267-0.206 0.23-0.491-0.142-1.079-0.176-2.587-0.031-4.135z" fill="#83a1b1"/>
  </g>
  <g transform="matrix(1.704 0 0 -1.704 66.449 223.75)">
   <path d="m0 0c-0.117 0.981-0.262 2.028-0.438 3.056-1.411 0.21-3.33 0.557-5.039 0.959l-0.396 0.528c2.137-0.46 3.922-0.754 5.535-0.957 0.26-0.032 0.321-0.109 0.357-0.345 0.175-1.171 0.325-2.309 0.45-3.526z" fill="#83a1b1"/>
  </g>
  <g transform="matrix(1.704 0 0 -1.704 59.188 228.33)">
   <path d="m0 0c1.373 0.086 2.341 0.08 3.49-0.049 0.091-0.011 0.201-0.037 0.324-0.1 1.01-0.516 2.077-1.076 3.274-1.749l-0.202-0.419c-1.239 0.696-2.283 1.261-3.342 1.83-1.13 0.133-1.971 0.158-3.24 0.119z" fill="#a1c4d7"/>
  </g>
  <g transform="matrix(1.704 0 0 -1.704 65.179 228.42)">
   <path d="m0 0c0.03-0.165 0.058-0.319 0.081-0.462 1.041-0.56 2.071-1.117 3.289-1.802l0.202 0.419c-1.197 0.673-2.263 1.234-3.273 1.749-0.112 0.057-0.213 0.084-0.299 0.096" fill="#83a1b1"/>
  </g>
  <g transform="matrix(1.704 0 0 -1.704 87.97 94.529)">
   <path d="m0 0c-0.539-0.668-1.218-1.678-1.813-2.611 0.17-2.626 0.357-7.186 0.459-10.903 0.538-0.563 1.062-1.142 1.652-1.895 0.093-0.119 0.099-0.178 0.066-0.352-0.383-2.004-1.164-3.96-2.011-5.035-0.224-0.284-0.31-0.332-0.583 0.028-1.743 2.298-3.594 5.96-3.963 8.387-0.527 3.456-1.523 8.872-2.387 12.166l0.255 0.538c1.04-3.762 2.009-9.045 2.552-12.617 0.366-2.403 2.357-6.131 3.846-8.251 0.772 0.989 1.536 2.87 1.909 4.891-0.472 0.612-1.101 1.324-1.586 1.839-0.113 0.12-0.127 0.143-0.132 0.313-0.118 3.737-0.342 8.091-0.528 10.818-0.012 0.189-5e-3 0.206 0.086 0.34 0.675 1.003 1.359 1.948 2.11 2.916z" fill="#a1c4d7"/>
  </g>
  <g transform="matrix(1.704 0 0 -1.704 86.143 128.14)">
   <path d="m0 0c-0.364-0.543-0.729-0.917-1.074-1.146 0.209-0.242 0.3-0.178 0.499 0.074 0.388 0.492 0.761 1.168 1.088 1.948-0.147-0.299-0.313-0.578-0.513-0.876" fill="#83a1b1"/>
  </g>
  <g transform="matrix(1.704 0 0 -1.704 87.551 83.575)">
   <path d="m0 0c-0.131-0.011-0.309-0.021-0.475-0.019s-0.254 0.035-0.356 0.161c-0.56 0.687-1.174 1.543-1.684 2.302-0.078 0.118-0.107 0.184-0.145 0.337-0.937 3.696-2.265 10.548-2.876 15.928l0.693-2.505c0.592-3.847 1.703-9.693 2.656-13.403 0.655-0.969 1.197-1.759 1.718-2.383 0.206-2e-3 0.431 0.012 0.614 0.03z" fill="#a1c4d7"/>
  </g>
  <g transform="matrix(1.704 0 0 -1.704 77.184 47.594)">
   <path d="m0 0c-0.498 1.299-0.893 2.246-1.172 2.853 0.202-3.978 1.376-14.911 2.269-21.581 0.031-0.239-6e-3 -0.313-0.206-0.435-1.11-0.677-2.474-1.402-3.988-2.128l-0.14 0.449c1.453 0.693 2.732 1.381 3.877 2.074-0.851 6.303-2.041 17.27-2.182 22.198-0.024 0.841 0.143 0.797 0.46 0.093 0.222-0.49 0.452-1.023 0.699-1.666z" fill="#a1c4d7"/>
  </g>
  <g transform="matrix(1.704 0 0 -1.704 97.862 87.773)">
   <path d="m0 0c1.228 3.561 2.439 7.42 2.938 9.323-0.662-0.979-1.467-2.236-2.6-4.306-0.833-1.523-1.651-2.649-2.597-3.828l-0.147 0.528c0.767 1.006 1.645 2.149 2.378 3.497 0.989 1.818 1.834 3.102 2.916 4.638 0.57 0.81 0.759 0.733 0.505-0.22-0.744-2.778-1.807-6.125-2.422-8.014z" fill="#a1c4d7"/>
  </g>
  <g transform="matrix(1.704 0 0 -1.704 59.931 90.569)">
   <path d="m0 0c-0.688 1.354-1.3 2.571-1.795 3.551-0.855 0.975-1.661 2.064-2.23 3.017-0.324 0.541-0.221 0.672 0.366 0.312 1.959-1.201 3.621-2.633 4.922-3.817l-0.201-0.387c-1.374 1.313-3.079 2.728-4.586 3.735 0.252-0.448 1.166-1.63 1.931-2.509 0.084-0.095 0.127-0.147 0.191-0.273 0.454-0.897 1.047-2.021 1.602-3.098z" fill="#a1c4d7"/>
  </g>
  <g transform="matrix(1.704 0 0 -1.704 60.104 96.948)">
   <path d="m0 0c-0.838 0.202-1.714 0.351-2.492 0.395 0.423-0.895 1.471-2.738 2.246-3.946l-0.019-0.717c-1.016 1.581-2.015 3.37-2.565 4.557-0.199 0.428-0.147 0.488 0.381 0.45 0.915-0.068 1.759-0.188 2.472-0.34z" fill="#a1c4d7"/>
  </g>
  <g transform="matrix(1.704 0 0 -1.704 60.144 96.268)">
   <path d="m0 0c-0.36 0.076-0.754 0.145-1.172 0.203-0.039-0.115-0.077-0.23-0.116-0.346 0.42-0.068 0.847-0.156 1.265-0.256z" fill="#83a1b1"/>
  </g>
  <g transform="matrix(1.704 0 0 -1.704 59.684 103)">
   <path d="m0 0c-0.454 0.708-1.002 1.634-1.463 2.459-0.053-0.162-0.105-0.325-0.159-0.489 0.48-0.867 1.039-1.809 1.603-2.687z" fill="#83a1b1"/>
  </g>
  <g transform="matrix(1.704 0 0 -1.704 61.062 109.22)">
   <path d="m0 0c-0.891 0.168-1.868 0.273-2.417 0.288 0.639-0.61 1.447-1.516 2.167-2.357l-0.067-0.525c-0.823 0.962-1.642 1.877-2.514 2.77-0.371 0.38-0.353 0.492 0.205 0.48 0.873-0.017 1.848-0.112 2.698-0.261z" fill="#83a1b1"/>
  </g>
  <g transform="matrix(1.704 0 0 -1.704 87.606 103.42)">
   <path d="m0 0c1.231 1.235 2.934 2.817 4.442 4.078-0.189 1.574-0.442 4.253-1.036 6.814-0.057 0.246-0.057 0.281-6e-3 0.463 0.747 2.613 1.642 5.817 2.147 8.228 0.068 0.325 0.011 0.349-0.276 0.133-2.067-1.552-3.944-3.188-6.234-5.516-0.55-0.558-0.749-0.339-0.217 0.227 2.2 2.342 4.105 4.064 6.246 5.614 0.706 0.51 1.049 0.349 0.875-0.545-0.485-2.487-1.351-5.702-2.136-8.35 0.55-2.364 0.841-5.033 1.092-6.961 0.033-0.25 0-0.339-0.153-0.462-1.63-1.311-3.274-2.794-4.554-3.939-0.541-0.484-0.729-0.325-0.19 0.216" fill="#0f141b"/>
  </g>
  <g transform="matrix(1.704 0 0 -1.704 93.706 85.129)">
   <path d="m0 0c-0.767-1.488-1.935-3.556-3.018-5.198-0.392-0.596-0.503-0.636-0.568 0.149-0.173 2.072-0.239 3.765-0.251 5.99-1e-3 0.22 0.032 0.3 0.146 0.461 1.289 1.824 2.879 3.801 4.579 5.672 0.449 0.495 0.553 0.458 0.502-0.208-0.108-1.381-0.307-2.697-0.453-3.386l-0.76-1.922c0.469 2.22 0.765 4.147 0.847 5.138-1.352-1.554-3.126-3.798-4.413-5.636-7e-3 -2.342 0.03-3.952 0.146-5.959 0.831 1.288 2.073 3.497 3.063 5.518z" fill="#0f141b"/>
  </g>
  <g transform="matrix(1.704 0 0 -1.704 85.559 79.238)">
   <path d="m0 0c-1.966 5.009-4.741 16.84-5.869 21.988-1.041 3.669-2.198 7.35-3.052 10.116-0.269-0.311-0.497-0.675-0.749-1.137-0.597-2.943-1.226-6.382-1.749-10.274 0.161-4.445 0.647-12.095 0.994-17.181l-0.487 0.804c-0.3 4.187-0.771 11.791-0.928 16.386 0.455 3.841 1.209 7.359 1.803 10.289 0.017 0.087 0.028 0.121 0.074 0.202 0.25 0.44 0.494 0.785 0.827 1.186 0.303 0.365 0.362 0.361 0.509-0.092 0.911-2.799 2.089-6.521 3.136-10.215 1.121-5.114 4.025-16.677 5.863-21.708z" fill="#0f141b"/>
  </g>
  <g transform="matrix(1.704 0 0 -1.704 65.833 85.413)">
   <path d="m0 0c1.229-1.835 2.94-3.897 4.405-5.201-0.204 1.901-0.712 4.732-1.134 6.357-0.999 1.996-2.207 4.244-2.906 5.431-0.222-1.878-0.376-4.514-0.365-6.587m4.25-5.549c-1.684 1.471-3.316 3.354-4.547 5.158-0.124 0.182-0.156 0.275-0.155 0.491 2e-3 2.074 0.191 4.536 0.495 6.733 0.089 0.637 0.17 0.682 0.542 0.072 0.935-1.534 1.991-3.447 2.988-5.382 0.082-0.159 0.129-0.274 0.172-0.447 0.404-1.642 0.81-4.191 1.016-6.356 0.056-0.601-0.058-0.665-0.511-0.269" fill="#0f141b"/>
  </g>
  <g transform="matrix(1.704 0 0 -1.704 86.343 127.61)">
   <path d="M 0,0 C 0.467,0.852 0.817,2.36 1.094,3.644 1.2,4.137 1.504,4.295 1.747,3.677 1.933,3.205 2.001,2.269 1.899,1.644 1.837,1.263 1.485,0.617 1.039,0.151 0.648,-0.257 0.488,-0.117 0.842,0.323 1.211,0.783 1.51,1.366 1.563,1.7 1.652,2.246 1.622,3.05 1.491,3.496 1.445,3.652 1.402,3.637 1.38,3.489 1.176,2.14 0.752,0.729 0.227,-0.132 -0.105,-0.675 -0.329,-0.6 0,0" fill="#0f141b"/>
  </g>
  <g transform="matrix(1.704 0 0 -1.704 87.766 124.6)">
   <path d="m0 0c0.143-0.196 0.604-0.224 0.921 0.222l-0.066-0.549c-0.319-0.245-0.766-0.277-0.988-0.072z" fill="#0f141b"/>
  </g>
  <g transform="matrix(1.704 0 0 -1.704 80.893 128.68)">
   <path d="m0 0c-0.511 1.627-1.115 3.059-1.679 4.246-0.109 0.229-0.274 0.286-0.502 0.128-0.579-0.4-1.126-0.935-1.355-1.308-0.157-0.256-0.146-0.353 0.257-0.849 0.31-0.384 0.67-0.777 1.139-1.207 0.442-0.404 0.303-0.566-0.169-0.199-0.491 0.38-0.923 0.758-1.246 1.171-0.472 0.607-0.561 0.867-0.303 1.286 0.289 0.469 0.957 1.06 1.468 1.414 0.401 0.276 0.798 0.232 1.03-0.257 0.516-1.091 1.208-2.658 1.613-4.357 0.145-0.611-0.068-0.656-0.253-0.068" fill="#0f141b"/>
  </g>
  <g transform="matrix(1.704 0 0 -1.704 78.738 122.19)">
   <path d="m0 0c0.069-0.762-0.047-1.647-0.285-1.797-0.253-0.16-1.22-0.188-1.804 3e-3l-0.31 0.495c0.606-0.304 1.736-0.281 1.89-0.159 0.119 0.094 0.242 1.187 0.105 2.158z" fill="#0f141b"/>
  </g>
  <g transform="matrix(1.704 0 0 -1.704 88.721 102.74)">
   <path d="m0 0c-0.104-1-0.146-2.051-0.191-3.067-0.028-0.618-0.285-0.613-0.288 7e-3 -7e-3 0.967 8e-3 1.789 0.069 2.674z" fill="#0f141b"/>
  </g>
  <g transform="matrix(1.704 0 0 -1.704 95.034 97.28)">
   <path d="m0 0c-0.01-0.751-0.081-1.535-0.257-2.106-0.035-0.116-0.071-0.176-0.142-0.265-0.689-0.86-1.41-1.632-2.138-2.339-0.157-0.154-0.202-0.157-0.408-0.097-0.384 0.112-0.66 0.231-1.032 0.432l0.033 0.425c0.423-0.236 0.737-0.356 1.118-0.455 0.763 0.73 1.454 1.472 2.177 2.354 0.165 0.499 0.26 1.179 0.277 1.76z" fill="#0f141b"/>
  </g>
  <g transform="matrix(1.704 0 0 -1.704 95.971 96.521)">
   <path d="m0 0c0.132-2.436-0.072-5.692-0.495-6.693-0.351-0.829-1.846-3.086-2.865-4.479-0.123-0.661-0.188-1.419-0.182-2.229l-0.432 0.646c6e-3 0.486 0.06 1.066 0.156 1.613 0.025 0.146 0.042 0.175 0.119 0.283 1.011 1.399 2.364 3.569 2.702 4.368 0.389 0.921 0.611 4.17 0.548 6.141z" fill="#0f141b"/>
  </g>
  <g transform="matrix(1.704 0 0 -1.704 73.951 103.27)">
   <path d="m0 0c0.247-1.131 0.435-2.084 0.54-3.207 0.079-0.835-0.156-0.858-0.288-0.037-0.18 1.119-0.372 2.217-0.699 3.456z" fill="#0f141b"/>
  </g>
  <g transform="matrix(1.704 0 0 -1.704 73.96 104.82)">
   <path d="m0 0c-0.583-0.261-1.269-0.562-1.915-0.772-0.226-0.073-0.261-0.058-0.43 0.073-0.93 0.72-1.889 1.558-2.778 2.437-0.084 0.083-0.138 0.144-0.189 0.258-0.274 0.604-0.41 1.418-0.452 2.317l0.39-0.271c0.081-0.714 0.224-1.415 0.487-1.92 0.933-0.932 1.889-1.813 2.816-2.526 0.681 0.211 1.277 0.44 1.999 0.761z" fill="#0f141b"/>
  </g>
  <g transform="matrix(1.704 0 0 -1.704 60.833 92.903)">
   <path d="m0 0c-0.214-2.085-0.57-7.145-0.333-7.73 0.442-1.092 3.062-4.143 5.181-5.844 0.09-0.073 0.125-0.113 0.187-0.254 0.533-1.205 1.113-2.297 1.711-3.304l-0.072-0.698c-0.883 1.391-1.478 2.526-2.082 3.886-2.184 1.65-4.932 4.837-5.426 5.99-0.325 0.759 0.109 5.996 0.459 8.608z" fill="#0f141b"/>
  </g>
  <g transform="matrix(1.704 0 0 -1.704 95.134 92.187)">
   <path d="m0 0c1.038 1.869 2.855 5.28 3.674 6.974 1.094 2.812 2.041 5.462 2.989 8.416 0.017 0.224 1e-3 0.477-0.015 0.655-1.382-1.247-3.115-2.705-5.668-4.716l0.116 0.683c2.102 1.657 3.794 2.976 5.384 4.36 0.354 0.308 0.428 0.289 0.499-0.15 0.035-0.222 0.06-0.464 0.075-0.699 0.01-0.161 0.01-0.207-0.042-0.372-0.932-2.925-1.834-5.552-2.948-8.396-0.825-1.708-2.622-5.108-3.904-7.5z" fill="#0f141b"/>
  </g>
  <g transform="matrix(1.704 0 0 -1.704 95.139 105.84)">
   <path d="m0 0c1.188 0.767 2.281 2.105 3.203 3.45 0.61 0.89 1.652 2.908 2.46 4.718 0.141 0.316 0.071 0.374-0.249 0.268-1.242-0.413-3.35-1.058-5.226-1.584l-0.086 0.425c1.809 0.476 4.01 1.127 5.21 1.498 0.685 0.212 0.995-8e-3 0.679-0.761-0.769-1.839-1.764-3.789-2.476-4.827-0.871-1.27-2.143-2.863-3.565-3.652z" fill="#0f141b"/>
  </g>
  <g transform="matrix(1.704 0 0 -1.704 92.828 114.18)">
   <path d="m0 0c0.52 1.559 1.775 4.244 2.512 5.565l0.902 0.859c-1.191-2.281-2.505-4.966-3.14-6.987z" fill="#0f141b"/>
  </g>
  <g transform="matrix(1.704 0 0 -1.704 62.886 78.786)">
   <path d="m0 0c-2.928 1.087-5.808 2.148-8.033 2.863 0.17-0.888 0.478-2.108 0.804-3.398 1.371-2.401 3.537-5.827 5.091-8.133 0.388-0.576 0.216-0.709-0.205-0.164-1.654 2.14-3.824 5.504-5.178 7.948-0.05 0.09-0.101 0.206-0.129 0.307-0.338 1.213-0.578 2.315-0.755 3.4-0.083 0.506-0.029 0.565 0.503 0.398 2.367-0.747 5.085-1.683 7.955-2.742z" fill="#0f141b"/>
  </g>
  <g transform="matrix(1.704 0 0 -1.704 58.332 105.25)">
   <path d="m0 0c-0.659 0.654-1.753 1.825-2.357 2.589-0.891 1.374-1.765 2.923-2.412 4.275-0.384 0.803-0.148 1.044 0.501 1.028 1.53-0.041 3.248-0.236 4.33-0.547l0.354-0.584c-1.516 0.416-3.082 0.689-4.688 0.731-0.288 0.01-0.319-0.053-0.137-0.425 0.695-1.421 1.511-2.863 2.388-4.218 0.59-0.745 1.756-2.007 2.589-2.864z" fill="#0f141b"/>
  </g>
  <g transform="matrix(1.704 0 0 -1.704 60.398 114.64)">
   <path d="m0 0c-1.936 1.301-3.658 2.834-5.375 4.865-0.394 0.465-0.291 0.536 0.234 0.615 1.349 0.205 3.228 0.294 4.707 0.229l0.036-0.468c-1.561 0.112-3.373 0.04-4.679-0.134 1.66-1.855 3.39-3.432 5.12-4.613z" fill="#0f141b"/>
  </g>
  <g transform="matrix(1.704 0 0 -1.704 61.528 108.81)">
   <path d="m0 0c-1.207-8.749-1.209-17.613-0.453-20.025 0.269-0.86 0.035-0.947-0.313-0.139-0.987 2.293-0.975 11.747 0.375 20.676z" fill="#0f141b"/>
  </g>
  <g transform="matrix(1.704 0 0 -1.704 66.66 135.96)">
   <path d="m0 0c-0.624 2.748-0.857 7.012-0.758 9.83 0.033 0.946 0.292 0.936 0.304-0.012 0.032-2.841 0.292-7.013 0.855-9.7 0.215-1.026-0.172-1.129-0.401-0.118" fill="#0f141b"/>
  </g>
  <g transform="matrix(1.704 0 0 -1.704 70.374 147.06)">
   <path d="m0 0c-0.63 1.159-0.949 2.004-1.293 3.191-0.207 0.714 0.102 0.838 0.339 0.133 0.394-1.173 0.673-1.952 1.218-3.176 0.305-0.685 0.085-0.789-0.264-0.148" fill="#0f141b"/>
  </g>
  <g transform="matrix(1.704 0 0 -1.704 70.141 159.26)">
   <path d="m0 0c-1.194 1.065-2.516 3.303-3.175 5.137-0.263 0.732-0.043 0.828 0.269 0.116 0.752-1.719 1.971-3.906 3.131-4.978 0.617-0.57 0.373-0.809-0.225-0.275" fill="#0f141b"/>
  </g>
  <g transform="matrix(1.704 0 0 -1.704 80.85 159.75)">
   <path d="m0 0c1.226 3.662 2.659 8.943 3.612 12.729 0.196 0.774 0.442 0.713 0.279-0.065-0.817-3.92-2.246-9.103-3.559-12.789-0.317-0.893-0.638-0.787-0.332 0.125" fill="#0f141b"/>
  </g>
  <g transform="matrix(1.704 0 0 -1.704 48.495 189.4)">
   <path d="m0 0c1.271 3.395 2.629 6.137 3.667 8.266 0.628 1.288 0.82 2.333 0.502 4.036-0.744 3.982 0.063 9.179 2.439 16.803l0.232-1.06c-2.049-6.661-2.703-11.877-2.11-15.637 0.31-1.964 0.114-3.025-0.561-4.378-1.018-2.044-2.405-4.83-3.03-6.44z" fill="#0f141b"/>
  </g>
  <g transform="matrix(1.704 0 0 -1.704 59.914 221.03)">
   <path d="m0 0c-0.948 1.196-2.645 3.232-3.382 4.172-0.623 0.794-1.143 1.176-1.738 1.429-0.977 0.416-1.856 0.95-2.733 1.67-0.828 0.679-0.994 1.117-1.005 2.232-0.01 0.881-0.155 2.325-0.291 3.295-0.041 0.297-0.034 0.368 0.051 0.623 0.758 2.277 2.742 6.394 3.952 8.084 0.431 0.603 0.641 0.675 0.643-0.15 4e-3 -1.636 0.109-4.128 0.274-5.678l-0.43-0.583c-0.205 2.075-0.282 4.635-0.254 5.93-0.895-1.468-2.897-5.578-3.583-7.919 0.164-1.157 0.287-2.63 0.249-3.597-0.037-0.904 0.202-1.285 0.75-1.747 0.761-0.639 1.68-1.252 2.546-1.621 0.822-0.35 1.208-0.689 1.915-1.591 0.736-0.938 2.458-3.068 3.749-4.773z" fill="#0f141b"/>
  </g>
  <g transform="matrix(1.704 0 0 -1.704 80.52 212.48)">
   <path d="m0 0c-0.981 1.13-2.242 2.583-3.162 3.524-2.646-0.461-6.789-0.115-10.776 4.136-0.123 0.131-0.193 0.215-0.227 0.404-0.192 1.094 0.525 3.74 0.461 4.786-0.874-0.609-1.915-1.549-2.83-2.837-0.509-0.716-0.696-0.578-0.248 0.176 0.756 1.269 1.797 2.281 2.866 3.019 0.509 0.352 0.602 0.264 0.642-0.241 0.118-1.529-0.622-4.009-0.356-4.814 3.901-4.151 7.724-4.543 10.37-4.108 0.202 0.033 0.259 0.024 0.412-0.137 0.967-1.012 2.264-2.49 3.242-3.618z" fill="#0f141b"/>
  </g>
  <g transform="matrix(1.704 0 0 -1.704 73.959 187.97)">
   <path d="m0 0c-2.717-2.946-6.062-4.787-7.99-5.507-0.715-0.268-1.388-0.603-1.85-1.08l-0.248 0.436c0.363 0.408 1.025 0.806 1.915 1.14 2.152 0.807 5.179 2.595 7.569 5.208z" fill="#0f141b"/>
  </g>
  <g transform="matrix(1.704 0 0 -1.704 89.966 189.76)">
   <path d="m0 0c-1.583-0.237-3.575 0.066-5.691 1.098-1.666-0.527-3.716-0.513-4.862 0.232-0.632 0.41-0.528 0.586 0.155 0.273 1.153-0.529 2.958-0.573 4.526-0.078 0.139 0.044 0.228 0.049 0.393-0.02 2.21-0.905 4.001-1.217 5.46-0.997z" fill="#0f141b"/>
  </g>
  <g transform="matrix(1.704 0 0 -1.704 68.537 184.24)">
   <path d="m0 0c-2.238 1.953-4.635 5.468-5.466 7.956-0.273 0.82-0.032 0.907 0.274 0.098 0.919-2.442 3.264-5.783 5.417-7.779 0.716-0.666 0.483-0.893-0.225-0.275" fill="#0f141b"/>
  </g>
  <g transform="matrix(1.704 0 0 -1.704 77.552 183.31)">
   <path d="m0 0c-0.934 1.188-1.376 3.912-1.312 6.077 0.028 0.935 0.277 0.931 0.296-4e-3 0.044-2.132 0.449-4.644 1.287-5.859 0.545-0.791 0.305-0.946-0.271-0.214" fill="#0f141b"/>
  </g>
  <g transform="matrix(1.704 0 0 -1.704 74.37 230.09)">
   <path d="m0 0c-0.645 0.927-1.442 1.844-1.944 2.405-0.099 0.11-0.136 0.177-0.169 0.338-0.316 1.53-0.927 3.236-1.572 4.55-0.294 0.602-0.237 0.68 0.425 0.373 1.258-0.584 2.656-1.176 3.782-1.639 0.099-0.04 0.162-0.07 0.26-0.136 0.694-0.466 1.301-0.944 1.988-1.471l-0.263-0.451c-0.727 0.568-1.351 1.068-2.095 1.56-1.256 0.526-2.726 1.142-3.626 1.675 0.555-0.894 1.209-2.783 1.57-4.395 0.484-0.538 1.256-1.443 1.933-2.4z" fill="#0f141b"/>
  </g>
  <g transform="matrix(1.704 0 0 -1.704 68.967 236.66)">
   <path d="m0 0c-1.777 1.418-4.057 3.164-5.693 4.407-0.152 0.115-0.194 0.168-0.269 0.364-0.589 1.536-1.313 3.399-2.051 4.942-0.318 0.667-0.191 0.792 0.577 0.502 1.546-0.581 3.364-1.192 4.65-1.645 1.904-1.058 3.838-2.24 5.016-3.065l0.823-1.119c-2.05 1.437-4.143 2.724-6.036 3.761-1.34 0.483-3.102 1.046-4.567 1.631 0.657-1.292 1.473-3.313 2.088-4.903 1.579-1.21 3.928-3.051 5.679-4.466z" fill="#0f141b"/>
  </g>
  <g transform="matrix(1.704 0 0 -1.704 65.613 237.92)">
   <path d="m0 0c0.449-0.139 0.974-0.246 1.527-0.359l-0.18-0.483c-0.406 0.07-0.826 0.165-1.208 0.269z" fill="#0f141b"/>
  </g>
  <g transform="matrix(1.704 0 0 -1.704 62.816 236.69)">
   <path d="m0 0c-1.179 1.158-2.665 2.455-3.863 3.47-0.122 0.103-0.207 0.194-0.307 0.326-1.46 1.944-2.819 4.939-3.476 7.276-0.243 0.869-0.121 0.924 0.534 0.366 1.275-1.087 2.653-2.196 3.474-2.797l0.296-0.808c-1.465 1.083-2.881 2.228-3.84 3.147 0.6-1.848 2.072-5.105 3.544-6.994 1.2-1.013 2.718-2.333 3.936-3.521z" fill="#0f141b"/>
  </g>
  <g transform="matrix(1.704 0 0 -1.704 92.117 112.1)">
   <path d="m0 0c1.391-2.521 3.122-5.948 4.356-8.405 0.607-1.206 1.173-2.024 2.674-2.607 2.993-1.163 8.538-2.812 11.504-3.504 0.538-0.125 1.066-0.1 1.651 0.092 9.819 3.218 17.335 0.871 20.607-7.361 2.899-7.297 1.644-15.326-2.026-19.093-0.729-0.748-1.136-1.666-1.442-3.12-0.321-1.526-0.636-3.769-0.603-5.003 0.037-1.403 0.187-2.114 0.65-2.91 1.006-1.728 2.052-4.912 2.128-9.564 0.043-2.611 0.184-4.47 0.665-6.046l-0.581 0.135c-0.392 1.368-0.561 3.079-0.613 5.895-0.08 4.228-1.106 7.777-2.019 9.345-0.546 0.938-0.694 1.602-0.734 3.113-0.033 1.255 0.281 3.61 0.605 5.151 0.345 1.636 0.771 2.51 1.574 3.352 3.792 3.973 4.483 11.965 1.884 18.501-3.178 7.998-10.571 10.156-19.985 7.22-0.621-0.194-1.252-0.246-1.843-0.111-3.027 0.693-8.426 2.291-11.569 3.486-1.642 0.625-2.252 1.504-2.911 2.81-1.287 2.547-3.03 5.876-4.253 8.123z" fill="#0f141b"/>
  </g>
  <g transform="matrix(1.704 0 0 -1.704 89.718 195.67)">
   <path d="m0 0c-0.148 1.723-0.147 2.93-0.09 3.97-1.261 1.494-2.091 3.443-2.368 5.312-0.165 1.119 0.105 1.224 0.332 0.115 0.36-1.758 1.221-3.502 2.368-5.06 0.113-0.153 0.133-0.241 0.126-0.44-0.041-1.075-0.031-2.104 0.05-3.346z" fill="#0f141b"/>
  </g>
  <g transform="matrix(1.704 0 0 -1.704 86.258 172.58)">
   <path d="M 0,0 C 0.915,3.055 2.82,7.029 4.311,9.117 4.77,9.76 4.975,9.598 4.544,8.936 3.177,6.837 1.319,2.843 0.321,-0.134 0.055,-0.929 -0.244,-0.816 0,0" fill="#0f141b"/>
  </g>
  <g transform="matrix(1.704 0 0 -1.704 98.772 184.35)">
   <path d="m0 0c-1.381 1.607-2.454 3.397-3.209 5.109-0.36 0.817-0.112 0.932 0.273 0.126 0.795-1.66 1.897-3.349 3.205-5.009 0.596-0.757 0.338-0.933-0.269-0.226" fill="#0f141b"/>
  </g>
  <g transform="matrix(1.704 0 0 -1.704 98.239 211.13)">
   <path d="m0 0c1.091 3.361 3.511 9.071 4.867 11.862 0.473 0.972 0.854 1.445 1.409 1.884 0.89 0.705 2.106 2.22 2.941 3.99 0.386 0.819 0.616 0.683 0.305-0.167-0.67-1.833-2.06-3.467-2.976-4.192-0.567-0.449-0.772-0.809-1.249-1.792-1.374-2.829-3.68-8.33-5.001-12.061z" fill="#0f141b"/>
  </g>
  <g transform="matrix(1.704 0 0 -1.704 114.72 174.5)">
   <path d="m0 0c-0.272 2.208-1.009 4.854-2.022 7.147-0.396 0.895-0.152 1.017 0.27 0.136 1.085-2.269 1.874-4.998 2.098-7.244 0.106-1.07-0.215-1.102-0.346-0.039" fill="#0f141b"/>
  </g>
  <g transform="matrix(1.704 0 0 -1.704 82.927 210.73)">
   <path d="m0 0c1.26 2.717 2.253 5.143 3.046 7.586 0.514 1.16 0.974 1.832 1.67 2.456 0.354 0.318 0.591 0.354 0.728-0.174 0.515-1.968 0.822-5.214 0.828-6.223 0.148 0.43 0.592 1.242 1.089 1.93 0.402 0.553 0.577 0.521 0.711-0.181 0.285-1.493 0.4-3.664 0.293-5.502-0.042-0.729-0.285-0.715-0.296 0.014-0.028 2.014-0.173 4.288-0.396 5.277-0.36-0.456-0.765-1.277-1.19-2.341-0.36-0.9-0.634-0.93-0.67 0.068-0.075 2.135-0.421 5.29-0.782 6.777-0.57-0.499-0.987-1.099-1.523-2.281-0.758-2.454-1.766-5.032-2.902-7.117z" fill="#0f141b"/>
  </g>
  <g transform="matrix(1.704 0 0 -1.704 97.02 208.82)">
   <path d="m0 0c0.571-0.737 1.171-1.561 1.558-2.239 0.351-0.617 0.309-1.002-0.171-1.726-1.087-1.641-1.967-3.577-2.102-4.863-0.391-3.719 0.14-9.589 1.051-12.705 0.047-0.163 0.047-0.278-0.034-0.425-0.572-1.049-1.301-2.105-1.925-2.945 0.618-1.555 1.4-3.794 1.943-5.724 0.09-0.318 0.072-0.372-0.215-0.475-1.25-0.447-2.593-0.906-4.04-1.285-0.43-0.594-0.952-1.226-1.397-1.715-0.099-0.107-0.158-0.155-0.293-0.211-1.703-0.701-4.932-1.088-6.604-1.049-0.158 4e-3 -0.226 0.025-0.359 0.117-0.29 0.202-0.566 0.449-0.797 0.724-0.568-0.233-1.268-0.605-2-1.05-0.181-0.111-0.304-0.125-0.517-0.078-2.009 0.437-3.953 0.944-6.127 1.612-0.258 0.079-0.301 0.136-0.253 0.416 0.23 1.361 0.534 3.444 0.901 5.194l0.402-0.071c-0.327-1.635-0.62-4.001-0.777-5.093 2.078-0.647 3.971-1.143 6.063-1.593 0.648 0.393 1.433 0.757 2.167 1.091 0.22 0.1 0.283 0.064 0.448-0.113 0.258-0.274 0.605-0.57 0.821-0.684 1.59-8e-3 4.803 0.376 6.462 1.087 0.472 0.496 0.909 0.989 1.446 1.657 0.108 0.134 0.191 0.184 0.357 0.23 1.476 0.409 2.769 0.863 3.76 1.284-0.4 1.423-1.222 3.908-1.834 5.545-0.071 0.186-0.071 0.318 0.036 0.469 0.719 1.021 1.385 1.989 1.862 2.932-0.964 2.882-1.41 9.117-1.011 12.915 0.127 1.201 1.117 3.553 2.12 5.068 0.371 0.559 0.411 0.824 0.192 1.218-0.323 0.586-0.785 1.315-1.184 1.843z" fill="#0f141b"/>
  </g>
  <g transform="matrix(1.704 0 0 -1.704 59.754 264.46)">
   <path d="m0 0c-0.312-0.146-0.754-0.273-1.128-0.335-0.197-0.032-0.267-7e-3 -0.421 0.085-0.7 0.421-1.643 0.907-2.464 1.321-0.23 0.116-0.292 0.214-0.186 0.472 0.722 1.763 1.678 4.17 2.376 5.975 0.201 1.579 0.424 3.003 0.717 4.351 0.033 0.152 0.057 0.24 0.143 0.398 1.153 2.116 2.363 3.891 3.487 5.489 0.349 0.495 0.531 0.556 0.671-0.151 0.293-1.466 0.696-2.981 1.092-4.389l-0.324-0.671c-0.491 1.797-0.953 3.623-1.141 4.872-0.924-1.415-2.155-3.258-3.348-5.479-0.35-1.5-0.588-2.83-0.799-4.42-0.017-0.125-0.034-0.196-0.077-0.311-0.701-1.871-1.641-4.266-2.206-5.698 0.685-0.381 1.57-0.871 2.374-1.364 0.399 0.031 0.838 0.156 1.285 0.36z" fill="#0f141b"/>
  </g>
  <g transform="matrix(1.704 0 0 -1.704 86.984 267.05)">
   <path d="m0 0c0.114 1.62 0.137 3.384 0.05 5.527-0.079 1.93 0.088 5.997 0.229 8.265-0.018 2.518-0.348 6.298-0.74 8.231-0.98-3.505-3.777-11.294-5.921-15.307-0.431-0.807-0.636-0.634-0.264 0.202 1.804 4.067 4.51 11.783 5.875 15.561 0.274 0.757 0.395 0.728 0.637-0.047 0.558-1.793 1.06-6.147 0.996-8.666-0.141-2.272-0.387-6.329-0.309-8.247 0.084-2.052 0.1-3.529 0-5.09z" fill="#0f141b"/>
  </g>
  <g transform="matrix(1.704 0 0 -1.704 76.65 253.62)">
   <path d="m0 0c-0.041 2.298 0.017 5.091 0.104 7.387-0.946 1.84-2.165 4.159-2.931 5.781-0.859-1.797-1.932-4.384-2.885-6.888l-0.225 0.688c0.686 1.887 1.791 4.438 2.756 6.483 0.235 0.497 0.394 0.54 0.701-0.046 0.936-1.784 2.098-3.947 3.042-5.637 0.114-0.203 0.126-0.268 0.12-0.483-0.072-2.318-0.153-4.97-0.143-6.255z" fill="#0f141b"/>
  </g>
  <g transform="matrix(1.704 0 0 -1.704 81.028 219.77)">
   <path d="m0 0c-0.539-1.261-1.788-3.385-2.896-4.937-0.687-0.961-1.283-2.181-1.55-3.147l-0.288 0.626c0.283 0.928 0.78 1.928 1.423 2.829 1.179 1.65 2.379 3.742 3.158 5.534z" fill="#0f141b"/>
  </g>
  <g transform="matrix(1.704 0 0 -1.704 143.39 210.16)">
   <path d="m0 0c0 2.011 0.05 3.414 0.018 4.429-0.046 1.425-0.939 3.593-2.162 4.876-0.727 0.761-0.981 1.077-1.292 2.114-0.418 1.394-0.803 2.856-1.143 4.515-0.08 0.396-0.189 0.554-0.485 0.539-0.958-0.048-1.627-0.186-3.128-0.212-0.878-0.014-1.329-0.089-1.887-0.336-2.814-1.248-6.467-2.483-10.621-3.567l0.667 0.731c3.359 0.905 6.851 2.008 9.766 3.264 0.749 0.323 1.062 0.373 2.094 0.375 1.404 3e-3 2.168 0.238 3.122 0.27 0.518 0.017 0.81-0.207 0.983-0.963 0.38-1.664 0.756-3.101 1.17-4.41 0.263-0.833 0.502-1.243 1.144-1.916 1.289-1.351 2.187-3.691 2.244-5.273 0.041-1.09-0.011-2.281-0.014-3.3z" fill="#0f141b"/>
  </g>
  <g transform="matrix(1.704 0 0 -1.704 141.26 173.98)">
   <path d="m0 0c1.271 1.943 2.159 4.094 2.756 6.483 0.266 1.068 0.564 0.974 0.348-0.105-0.49-2.429-1.522-4.71-2.86-6.558-0.574-0.793-0.795-0.662-0.244 0.18" fill="#0f141b"/>
  </g>
  <g transform="matrix(1.704 0 0 -1.704 146.2 151.3)">
   <path d="m0 0c-0.345 1.473-0.828 2.657-1.615 3.747-0.441 0.61-0.241 0.763 0.231 0.177 0.855-1.061 1.411-2.342 1.727-3.855 0.195-0.939-0.126-0.994-0.343-0.069" fill="#0f141b"/>
  </g>
  <g transform="matrix(1.704 0 0 -1.704 157.03 142.26)">
   <path d="m0 0c1.824 1.006 3.921 1.439 6.037 1.109 0.262-0.041 0.355-0.127 0.337-0.422-0.157-2.59 1.549-5.042 3.046-5.883-0.16 0.831-0.282 2.446-0.256 3.93 0.012 0.608 0.086 0.758 0.677 0.551 2.524-0.888 5.652-2.463 7.488-3.74 0.131-0.091 0.227-0.191 0.275-0.388 0.246-0.979 0.476-2.07 0.594-3.228 0.026-0.252-6e-3 -0.337-0.176-0.428-1.73-0.92-3.834-1.899-5.31-2.581-0.201-0.093-0.304-0.087-0.471 0.025-0.938 0.631-1.816 1.757-2.223 2.865-0.242 0.658-0.04 0.756 0.278 0.13 0.503-0.989 1.297-1.973 2.192-2.522 1.378 0.606 3.478 1.583 5.255 2.479-0.103 1.111-0.291 2.184-0.587 3.193-1.862 1.296-4.987 2.841-7.506 3.711-0.071-1.147-2e-3 -2.733 0.17-3.953 0.081-0.582-0.018-0.699-0.527-0.44-1.8 0.917-3.58 3.554-3.402 6.203-1.902 0.296-3.777-0.022-5.586-0.972z" fill="#0f141b"/>
  </g>
  <g transform="matrix(1.704 0 0 -1.704 163.41 157.6)">
   <path d="m0 0c1.071-0.725 2.566-1.263 3.63-1.451 0.236 0.799 0.606 1.631 1.03 2.425 0.315 0.591 0.57 0.477 0.298-0.135-0.315-0.71-0.596-1.605-0.839-2.537-0.079-0.302-0.197-0.377-0.524-0.31-1.377 0.284-2.794 0.802-3.509 1.38z" fill="#0f141b"/>
  </g>
  <g transform="matrix(1.704 0 0 -1.704 161.01 148.99)">
   <path d="m0 0c1.363 0.816 2.848 1.702 4.02 2.509l0.138-0.469c-1.024-0.747-2.544-1.719-3.95-2.552z" fill="#0f141b"/>
  </g>
  <g transform="matrix(1.704 0 0 -1.704 176.12 144.81)">
   <path d="m0 0c0.209 0.851 0.319 1.55 0.437 2.448-1.431 1.733-6.847 3.185-12.643 0.107l-0.375 0.325c5.953 3.313 11.721 1.872 13.33-0.141 0.143-0.178 0.173-0.254 0.14-0.502-0.118-0.855-0.254-1.572-0.435-2.432z" fill="#0f141b"/>
  </g>
  <g transform="matrix(1.704 0 0 -1.704 163.77 165.16)">
   <path d="m0 0c0.786 0.911 1.772 1.897 2.792 2.842l0.497-0.141c-1.11-1.102-2.154-2.221-3.331-3.571z" fill="#0f141b"/>
  </g>
  <g transform="matrix(1.704 0 0 -1.704 162.96 171.51)">
   <path d="m0 0c0.115-0.308 0.24-0.659 0.4-0.948 1.167-0.386 3.05-0.895 4.613-1.208l-0.122-0.511c-1.609 0.338-3.448 0.8-4.642 1.209-0.232 0.08-0.328 0.14-0.394 0.356-0.026 0.089-0.07 0.252-0.095 0.366z" fill="#0f141b"/>
  </g>
  <g transform="matrix(1.704 0 0 -1.704 190.63 168.56)">
   <path d="m0 0c-2.401 1.553-4.394 3.179-6.255 4.971l0.423 0.224c1.715-1.623 3.739-3.19 6.08-4.81 0.239-0.165 0.246-0.262 0.168-0.527-0.261-0.883-0.52-1.722-0.818-2.486-0.088-0.225-0.19-0.284-0.41-0.319-2.158-0.352-4.328-0.865-6.175-1.374-0.281-0.077-0.392-0.035-0.526 0.195-0.434 0.752-0.819 1.697-1.116 2.667-0.249 0.813-0.026 0.873 0.292 0.083 0.394-0.975 0.787-1.769 1.237-2.477 1.737 0.502 3.952 1.004 6.252 1.395 0.345 0.855 0.595 1.604 0.848 2.458" fill="#0f141b"/>
  </g>
  <g transform="matrix(1.704 0 0 -1.704 181.65 174.75)">
   <path d="m0 0c0.177-0.487 0.344-1.051 0.429-1.602 0.029-0.194 0.013-0.326-0.044-0.509-0.715-2.28-2.216-5.287-3.538-7.042-0.258-0.344-0.409-0.307-0.626-2e-3 -0.991 1.394-2.26 3.657-2.918 5.681-0.084 0.26-0.094 0.347-0.064 0.581 0.243 1.853 1.088 4.819 2.05 6.383 0.394 0.64 0.596 0.52 0.257-0.152-0.82-1.627-1.657-4.688-1.754-6.398 0.626-2.11 1.992-4.569 2.743-5.667 1.09 1.408 2.627 4.599 3.342 6.894-0.069 0.595-0.206 1.134-0.39 1.703z" fill="#0f141b"/>
  </g>
  <g transform="matrix(1.704 0 0 -1.704 138.55 226.9)">
   <path d="m0 0 0.664 0.375c0.431 1.98 1.095 4.752 1.754 7.24 1.024 3.104 1.718 4.836 2.28 6.222 0.145-1.761 0.602-5.26 0.958-6.987 0.526-2.553 1.605-5.995 2.305-7.454 0.289-0.602 0.829-0.738 1.516-0.52 1.043 0.333 1.847 0.579 2.716 0.81 0.473 0.125 0.588-0.037 0.834-0.497 0.632-1.184 1.2-2.321 1.637-3.32-0.463-0.998-1.176-2.419-1.869-3.713-0.087-0.161-0.095-0.246-0.024-0.448 0.225-0.639 0.461-1.381 0.58-1.879-0.82-0.404-1.834-0.82-2.997-1.268-0.703-0.27-0.58-0.548 0.084-0.338 1.16 0.366 2.123 0.678 3.247 1.137 0.285 0.117 0.31 0.2 0.237 0.447-0.208 0.697-0.443 1.473-0.676 2.078 0.609 1.114 1.37 2.539 1.947 3.679 0.097 0.19 0.097 0.27 8e-3 0.454-0.616 1.281-1.142 2.336-1.768 3.47-0.343 0.622-0.621 0.826-1.37 0.639-0.939-0.233-1.796-0.459-2.707-0.735-0.524-0.16-0.776-0.075-0.958 0.303-0.692 1.444-1.657 4.774-2.211 7.291-0.275 1.454-0.798 4.702-1.092 7.108-0.111 0.903-0.298 0.898-0.676 0.164-0.894-1.736-1.562-3.47-2.528-6.499-0.623-2.545-1.307-5.249-1.891-7.759" fill="#0f141b"/>
  </g>
  <g transform="matrix(1.704 0 0 -1.704 158.21 246.11)">
   <path d="m0 0c-0.829-1.34-1.944-2.561-3.155-3.346-0.113-0.073-0.142-0.08-0.298-0.108-2.582-0.453-6.11-0.864-9.224-1.007-0.163-8e-3 -0.241 3e-3 -0.384 0.053-2.029 0.717-4 1.482-5.702 2.212-0.212 0.092-0.269 0.167-0.272 0.435-6e-3 0.53-0.045 1.063-0.099 1.558-0.02 0.194-0.01 0.253 0.036 0.407 0.54 1.831 0.891 3.524 1.108 5.223 0.019 0.151 0.036 0.195 0.092 0.295 0.769 1.394 1.349 2.294 1.988 3.335 0.295 0.479 0.45 0.482 0.725-0.066 0.356-0.705 0.73-1.584 0.955-2.225l-0.244-0.728c-0.366 1.076-0.792 2.151-1.089 2.717-0.554-0.883-1.045-1.851-1.888-3.356-0.224-1.799-0.572-3.547-1.149-5.432 0.076-0.548 0.129-1.111 0.137-1.636 1.756-0.758 3.587-1.441 5.7-2.185 3.079 0.145 6.634 0.515 9.259 0.983 1.017 0.624 2.171 1.831 2.841 2.747z" fill="#0f141b"/>
  </g>
  <g transform="matrix(1.704 0 0 -1.704 141.91 235.85)">
   <path d="m0 0c-0.476 2.202-0.931 4.057-1.363 5.364-0.946-0.571-2.181-2.319-2.896-4.191-0.219-0.572-0.56-1.754-0.751-2.658-0.029-0.143-0.052-0.207-0.121-0.33-0.127-0.224-0.274-0.537-0.385-0.798-0.224-1.263-0.46-2.756-0.622-4.008-0.142-1.103-0.415-1.067-0.316 0.028 0.109 1.214 0.254 2.738 0.469 3.994 0.02 0.123 0.032 0.19 0.082 0.311 0.141 0.344 0.257 0.574 0.402 0.848 0.184 0.931 0.496 2.195 0.731 2.812 0.708 1.851 1.948 3.609 3.088 4.339 0.447 0.286 0.578 0.282 0.8-0.326 0.507-1.396 0.908-3.033 1.225-4.501z" fill="#0f141b"/>
  </g>
  <g transform="matrix(1.704 0 0 -1.704 153.66 241.83)">
   <path d="m0 0c-0.209 1.231-0.418 2.249-0.794 3.733-0.197 0.782 0.137 0.863 0.337 0.082 0.378-1.472 0.587-2.606 0.748-3.788 0.135-0.993-0.124-1.01-0.291-0.027" fill="#0f141b"/>
  </g>
  <g transform="matrix(1.704 0 0 -1.704 140.3 247.1)">
   <path d="m0 0c0.022 2.206 0.224 4.512 0.525 5.743 0.371 1.509 1.072 3.864 1.583 5.107 0.054 0.129 0.089 0.189 0.187 0.317 0.705 0.935 1.392 1.815 2.027 2.648 0.375 0.491 0.522 0.432 0.778-0.107 0.586-1.235 1.077-2.706 1.56-4.347 0.26-0.882-0.013-0.949-0.317-0.082-0.568 1.617-1.232 3.364-1.651 4.182-0.512-0.688-1.305-1.73-2.054-2.724-0.507-1.171-1.229-3.509-1.613-5.071-0.293-1.196-0.635-3.583-0.728-5.665-0.033-0.738-0.305-0.738-0.297-1e-3" fill="#0f141b"/>
  </g>
  <g transform="matrix(1.704 0 0 -1.704 117.42 207.86)">
   <path d="m0 0c0.245 0.847 0.366 1.511 0.486 2.281 0.093 0.597 0.064 0.829-0.11 1.102-0.195 0.306-0.77 0.909-1.127 1.198-0.752 0.608-1.061 1.096-1.251 2.262-0.278 1.713-0.462 3.359-0.644 5.197l0.539 0.192c0.172-1.944 0.337-3.615 0.606-5.303 0.136-0.856 0.417-1.387 1.059-1.905 0.374-0.303 1.076-1.003 1.289-1.338 0.231-0.363 0.295-0.716 0.174-1.453-0.092-0.553-0.165-0.885-0.28-1.357z" fill="#0f141b"/>
  </g>
  <g transform="matrix(1.704 0 0 -1.704 125.9 222.89)">
   <path d="m0 0c1.473 2.802 2.449 5.425 3.278 8.78 0.435 1.758 0.456 3.064-0.564 4.763-0.786 1.311-0.991 2.026-0.504 3.326 0.903 2.409 1.553 4.723 2.056 7.276l0.545 0.047c-0.507-2.766-1.25-5.16-2.151-7.498-0.401-1.042-0.292-1.672 0.471-2.942 1.186-1.979 1.115-3.356 0.684-5.099-0.816-3.307-1.842-6.053-3.217-8.619z" fill="#0f141b"/>
  </g>
  <g transform="matrix(1.704 0 0 -1.704 127.98 237.07)">
   <path d="m0 0c-0.181 0.634-0.451 1.36-0.73 1.974-0.089 0.195-0.079 0.249 0.042 0.442 0.404 0.648 0.789 1.394 1.054 2.049-0.387 1.239-0.746 2.596-0.931 3.716-1.247-0.225-2.668-0.37-4.006-0.423-0.974-0.038-1.304 0.325-1.228 1.297 0.227 2.872 0.641 6.989 1.049 9.552-1.574-1.639-4.525-7.324-6.144-10.656-0.337-0.694-0.586-0.561-0.282 0.153 1.437 3.374 4.122 8.784 6.232 10.973 0.623 0.647 0.811 0.595 0.664-0.382-0.397-2.622-0.802-6.96-1.009-9.66-0.049-0.645 0.129-0.788 0.723-0.767 1.321 0.046 2.597 0.153 3.985 0.376 0.227 0.036 0.336 0 0.391-0.256 0.263-1.241 0.605-2.481 1.029-3.732 0.063-0.188 0.066-0.25-0.011-0.437-0.315-0.765-0.76-1.526-1.143-2.091 0.249-0.565 0.437-1.064 0.589-1.578z" fill="#0f141b"/>
  </g>
  <g transform="matrix(1.704 0 0 -1.704 127.64 239.37)">
   <path d="m0 0c-0.833-0.302-1.745-0.611-2.631-0.897-1.061-0.58-1.891-1.064-3.294-1.874-0.167-0.097-0.241-0.112-0.47-0.114-2.65-0.03-6.091 0.072-8.419 0.593-0.141 0.031-0.225 0.08-0.32 0.174-0.461 0.454-0.906 1.045-1.304 1.69-0.081 0.129-0.096 0.213-0.078 0.37 0.324 2.712 1.454 8.238 2.531 11.167 0.682 1.261 1.283 2.193 2.136 3.268 0.474 0.597 0.586 0.582 0.733-0.179 0.242-1.261 0.497-2.986 0.599-4.144l-0.401-0.784c-0.16 1.83-0.426 3.69-0.61 4.728-0.667-0.871-1.308-1.836-2.025-3.13-1.077-2.935-2.126-8.405-2.426-10.979 0.333-0.515 0.837-1.194 1.272-1.623 2.279-0.504 5.9-0.628 8.461-0.599 1.325 0.769 2.223 1.244 3.318 1.81 0.123 0.064 0.16 0.078 0.297 0.124 0.847 0.285 1.708 0.581 2.736 0.942z" fill="#0f141b"/>
  </g>
  <g transform="matrix(1.704 0 0 -1.704 109.58 230.34)">
   <path d="m0 0c-0.676 1.716-1.263 3.91-1.596 5.557-0.483-0.566-1.57-2.073-2.568-3.414l0.165 0.934c0.493 0.728 1.406 1.997 2.093 2.829 0.448 0.543 0.559 0.559 0.719-0.157 0.423-1.914 0.983-3.879 1.569-5.323z" fill="#0f141b"/>
  </g>
  <g transform="matrix(1.704 0 0 -1.704 116.03 235)">
   <path d="m0 0c-0.043 1.227-0.899 4.229-1.3 5.311-0.74-0.819-1.585-1.815-2.479-2.941-0.447-0.562-0.644-0.389-0.245 0.209 0.783 1.175 1.51 2.081 2.35 3.014 0.478 0.531 0.581 0.463 0.832-0.156 0.62-1.527 1.28-4.023 1.28-5.413 0-0.522 0.19-0.771 0.976-0.722 0.716 0.031 0.723-0.227 0.015-0.332-0.9-0.134-1.396 0.094-1.429 1.03" fill="#0f141b"/>
  </g>
  <g transform="matrix(1.704 0 0 -1.704 111.91 143.13)">
   <path d="M 0,0 C 0.549,0.522 1.075,1.071 1.59,1.631 1.969,2.045 2.138,1.894 1.785,1.458 1.343,0.909 0.791,0.295 0.199,-0.235 -0.31,-0.69 -0.521,-0.497 0,0" fill="#0f141b"/>
  </g>
  <g transform="matrix(1.704 0 0 -1.704 73.834 82.927)">
   <path d="m0 0c-0.246-0.124-0.497-0.248-0.752-0.373l-0.193 0.423c0.251 0.122 0.497 0.243 0.737 0.365z" fill="#a1c4d7"/>
  </g>
  <g transform="matrix(1.704 0 0 -1.704 69.889 269.15)">
   <path d="m0 0c-0.254 4.251 0.308 8.841 0.557 10.538-0.217 2.022-1.026 5.014-1.458 6.331-0.477-0.708-0.86-1.689-1.264-2.952-0.46-1.156-1.063-2.085-1.769-3.263-0.733-1.226-0.923-2.473-1.123-3.746-0.137-0.882-0.504-0.816-0.402 0.071 0.124 1.08 0.39 2.692 1.136 3.963 0.686 1.169 1.267 2.038 1.711 3.165 0.353 1.115 0.781 2.064 1.383 2.982 0.306 0.467 0.421 0.602 0.667-0.064 0.605-1.645 1.343-4.358 1.607-6.336 0.022-0.167 0.015-0.28-8e-3 -0.443-0.248-1.758-0.744-6.077-0.567-10.188z" fill="#a1c4d7"/>
  </g>
  <g transform="matrix(1.704 0 0 -1.704 151.98 251.59)">
   <path d="m0 0c-0.788 3.292-2.896 9.622-4.07 12.521-0.326-0.878-0.972-3.108-1.216-4.308-0.235-1.161-0.581-4.195-0.654-6.161-0.054-1.431-0.863-1.646-1.389-0.237-0.796 2.136-2.018 6.429-2.375 8.8-0.846-2.261-1.486-5.985-1.817-8.495-0.19-1.445-1.199-1.487-1.328 0.031-0.241 2.819-0.527 5.493-1.132 6.73l0.282 0.365c0.77-1.234 1.046-4.082 1.297-6.976 0.078-0.9 0.302-0.804 0.404-0.054 0.37 2.726 1.102 6.662 2.019 8.958 0.317 0.793 0.466 0.821 0.644-0.125 0.555-2.944 1.742-6.907 2.488-9.038 0.264-0.753 0.411-0.735 0.442 0.077 0.075 2.014 0.365 5.114 0.608 6.307 0.247 1.217 0.792 3.127 1.308 4.424 0.279 0.704 0.441 0.737 0.74 0.016 1.402-3.381 3.483-9.534 4.25-12.649z" fill="#a1c4d7"/>
  </g>
  <g transform="matrix(1.704 0 0 -1.704 101.69 238.89)">
   <path d="m0 0c-0.029 2.733 0.382 5.962 0.81 7.831 0.223 0.973 0.354 0.971 0.621-2e-3 0.612-2.241 1.334-5.244 1.81-7.601 0.385 1.214 1.048 2.89 1.795 4.388 0.307 0.614 0.441 0.556 0.664-0.054 0.691-1.889 1.452-4.418 1.776-7.453l-0.47 0.029c-0.363 2.974-1.095 5.688-1.652 7.233-0.546-1.177-1.176-2.832-1.788-4.757-0.31-0.977-0.551-0.802-0.699-0.019-0.515 2.74-1.248 5.878-1.72 7.773-0.271-1.462-0.672-4.449-0.658-7.348 6e-3 -1.209-0.476-1.128-0.489-0.02" fill="#a1c4d7"/>
  </g>
  <g transform="matrix(1.704 0 0 -1.704 111.4 231.11)">
   <path d="m0 0c-0.224 0.61-0.357 0.668-0.664 0.054-0.362-0.725-0.703-1.492-1.003-2.228 0.185 0.05 0.368 0.099 0.553 0.148 0.265 0.692 0.525 1.313 0.767 1.835 0.154-0.426 0.321-0.943 0.49-1.527 0.137 0.032 0.273 0.062 0.408 0.092-0.182 0.584-0.369 1.128-0.551 1.626" fill="#83a1b1"/>
  </g>
  <g transform="matrix(1.704 0 0 -1.704 104.13 225.55)">
   <path d="m0 0c-0.267 0.973-0.397 0.975-0.621 2e-3 -0.374-1.632-0.734-4.302-0.8-6.773 0.159 0.066 0.324 0.132 0.497 0.199 0.08 2.481 0.408 4.857 0.641 6.112 0.342-1.375 0.82-3.402 1.255-5.458 0.148 0.047 0.299 0.093 0.45 0.139-0.435 1.957-0.959 4.085-1.422 5.779" fill="#83a1b1"/>
  </g>
  <g transform="matrix(1.704 0 0 -1.704 57.365 252.18)">
   <path d="M 0,0 C 0.374,1.035 0.721,3.99 0.995,4.742 1.244,5.427 1.61,5.835 2.066,6.176 2.283,4.646 2.543,2.004 2.688,-0.075 l 0.44,0.671 C 2.99,2.177 2.694,4.624 2.458,6.204 2.368,6.806 2.272,6.849 1.81,6.468 1.459,6.179 0.783,5.521 0.602,4.802 0.419,4.079 0.18,1.437 0,0" fill="#a1c4d7"/>
  </g>
  <g transform="matrix(1.704 0 0 -1.704 86.196 267.24)">
   <path d="m0 0c0.072 1.356 0.17 3.98 0.073 5.589-0.109 1.826 0.414 7.103-0.155 10.371-0.062 0.356-0.148 0.343-0.249 0.014-0.479-1.561-0.979-3.698-1.001-4.903-3e-3 -0.153-0.015-0.191-0.08-0.32-1.04-2.03-2.677-5.494-3.02-6.548-0.222-0.687-0.572-2.93-0.679-5.021l-0.514-0.031c0.043 2.115 0.464 4.527 0.692 5.231 0.36 1.104 2.066 4.749 3.122 6.666-0.014 1.238 0.614 3.501 1.101 5.049 0.284 0.903 0.822 0.886 1.014-0.065 0.654-3.243 0.17-8.574 0.262-10.435 0.079-1.578 0.038-4.123-0.061-5.478z" fill="#a1c4d7"/>
  </g>
  <g transform="matrix(1.704 0 0 -1.704 90.315 264.01)">
   <path d="m0 0c-0.431-0.595-0.952-1.227-1.397-1.715-0.099-0.107-0.159-0.155-0.293-0.211-1.704-0.701-4.932-1.088-6.605-1.049-0.157 3e-3 -0.226 0.025-0.358 0.117-0.29 0.202-0.567 0.449-0.797 0.724-0.569-0.234-1.269-0.605-2-1.051-0.182-0.11-0.305-0.124-0.518-0.078-0.37 0.081-0.738 0.164-1.105 0.249l0.097 0.489c0.401-0.093 0.805-0.183 1.217-0.272 0.649 0.393 1.434 0.756 2.167 1.09 0.221 0.101 0.283 0.065 0.448-0.112 0.258-0.275 0.606-0.571 0.822-0.684 1.59-8e-3 4.802 0.376 6.462 1.087 0.471 0.496 0.909 0.989 1.446 1.657z" fill="#0f141b"/>
  </g>
  <g transform="matrix(1.704 0 0 -1.704 100.41 239.56)">
   <path d="m0 0c0.332-0.515 0.837-1.193 1.271-1.623 2.28-0.504 5.901-0.627 8.461-0.599l-0.148-0.552c-2.65-0.03-6.092 0.072-8.42 0.593-0.141 0.031-0.225 0.08-0.319 0.174-0.461 0.454-0.907 1.046-1.305 1.69z" fill="#0f141b"/>
  </g>
  <g transform="matrix(1.704 0 0 -1.704 158.21 246.11)">
   <path d="m0 0c-0.829-1.34-1.944-2.561-3.155-3.346-0.113-0.073-0.142-0.08-0.298-0.108-2.582-0.453-6.11-0.864-9.224-1.007-0.163-8e-3 -0.241 3e-3 -0.384 0.053-2.029 0.717-4 1.482-5.702 2.212-0.212 0.092-0.269 0.167-0.272 0.435-6e-3 0.53-0.045 1.063-0.099 1.558-0.02 0.194-0.01 0.253 0.036 0.407 0.54 1.831 0.891 3.524 1.108 5.223 0.019 0.151 0.036 0.195 0.092 0.295 0.769 1.394 1.349 2.294 1.988 3.335 0.295 0.479 0.45 0.482 0.725-0.066 0.356-0.705 0.73-1.584 0.955-2.225l-0.244-0.728c-0.366 1.076-0.792 2.151-1.089 2.717-0.554-0.883-1.045-1.851-1.888-3.356-0.224-1.799-0.572-3.547-1.149-5.432 0.076-0.548 0.129-1.111 0.137-1.636 1.756-0.758 3.587-1.441 5.7-2.185 3.079 0.145 6.634 0.515 9.259 0.983 1.017 0.624 2.171 1.831 2.841 2.747z" fill="#0f141b"/>
  </g>
  <g transform="matrix(1.704 0 0 -1.704 79.816 245.86)">
   <path d="m0 0c-0.239 2.86-0.464 5.673-0.632 8.528-0.015 0.262 0.011 0.294 0.222 0.432 1.175 0.771 2.266 1.537 3.351 2.38-0.089 1.282-0.126 2.428-0.135 3.841-2e-3 0.198 0.044 0.275 0.223 0.387 1.013 0.633 1.856 1.146 2.671 1.708-0.431 1.321-0.836 2.909-1.102 4.477-1.438-0.601-2.917-1.445-3.922-2.333-0.125-1.749 0.245-4.353 0.989-6.88 0.068-0.233 0.049-0.313-0.104-0.446-1.538-1.336-3.052-2.556-5.293-4.235l0.281 0.874c1.66 1.253 3.218 2.505 4.64 3.716-0.781 2.253-1.211 4.943-1.106 6.912 0.014 0.261 0.039 0.307 0.241 0.464 1.23 0.959 2.629 1.711 3.973 2.279 0.488 0.207 0.623 0.142 0.729-0.33 0.353-1.557 0.706-2.995 1.196-4.391 0.095-0.272 0.064-0.348-0.152-0.486-1.011-0.647-1.873-1.184-2.825-1.718 0.016-1.244 0.077-2.383 0.2-3.816 0.022-0.258-0.011-0.336-0.19-0.465-1.179-0.851-2.313-1.616-3.412-2.333 0.198-2.661 0.397-5.569 0.597-7.622z" fill="#a1c4d7"/>
  </g>
  <g transform="matrix(1.704 0 0 -1.704 86.198 229.52)">
   <path d="m0 0c-0.98-3.505-3.777-11.293-5.921-15.307-0.432-0.807-0.636-0.634-0.265 0.203 1.805 4.066 4.511 11.782 5.876 15.561z" fill="#0f141b"/>
  </g>
  <g transform="matrix(1.704 0 0 -1.704 74.723 229.49)">
   <path d="m0 0c-0.559 0.754-1.083 1.466-1.703 2.267-0.42 0.541-0.382 0.574 0.322 0.464 1.003-0.157 1.875-0.332 2.791-0.551l-0.245-0.375c-0.91 0.24-1.727 0.399-2.454 0.543 0.495-0.577 0.999-1.211 1.52-1.929z" fill="#a1c4d7"/>
  </g>
  <g transform="matrix(1.704 0 0 -1.704 78.174 225.04)">
   <path d="m0 0c-0.398-0.645-0.819-1.284-1.222-1.847-0.686-0.961-1.282-2.181-1.549-3.147l-0.289 0.626c0.284 0.929 0.781 1.928 1.424 2.829 0.405 0.566 0.812 1.184 1.202 1.824z" fill="#0f141b"/>
  </g>
  <g transform="matrix(1.704 0 0 -1.704 72.238 82.318)">
   <path d="m0 0c-1.271 2.448-2.944 5.578-4.157 7.597-0.239 0.398-0.373 0.386-0.462-0.179-0.361-2.28-0.735-5.745-1.027-8.92-0.015-0.169-0.034-0.223-0.106-0.362-0.579-1.112-0.997-2.165-1.275-3.279 0.684-1.275 1.272-2.216 1.962-3.166 1.677-1.321 4.505-2.984 6.627-4.004 0.162-0.078 0.196-0.112 0.236-0.299 0.404-1.899 1.021-4.628 1.383-6.172 0.026-0.386 0.062-0.877 0.035-1.348-0.01-0.164-0.028-0.207-0.116-0.31-0.895-1.055-1.86-2.108-2.853-3.056 4e-3 -1.107 0.113-2.283 0.4-2.694 0.95-1.353 3.986-3.12 5.604-3.006 1.448 0.098 3.693 2.463 3.974 3.934 0.153 0.807-9e-3 2.962-0.112 3.433-0.092 0.417-0.384 0.945-0.76 1.343-0.107 0.112-0.122 0.135-0.151 0.277-0.105 0.497-0.147 0.909-0.123 1.367 0.03 0.557 0.23 0.569 0.262 8e-3 0.028-0.476 0.1-0.938 0.23-1.338 0.409-0.384 0.829-1.05 0.934-1.535 0.12-0.56 0.282-2.835 0.12-3.685-0.347-1.819-2.776-4.171-4.346-4.295-1.74-0.137-4.832 1.458-6.051 3.198-0.39 0.557-0.485 1.956-0.492 2.929-1e-3 0.229 0.016 0.285 0.14 0.405 1.063 1.023 2.029 2.011 2.908 3.034 0.041 0.482 0.044 0.884 0.019 1.269-0.364 1.546-1.032 4.297-1.406 6.121-2.051 0.925-4.908 2.545-6.711 3.896-0.11 0.083-0.163 0.135-0.254 0.272-0.685 1.007-1.198 1.896-1.876 3.2-0.071 0.136-0.083 0.208-0.042 0.382 0.275 1.158 0.766 2.311 1.386 3.452 0.288 3.132 0.72 6.808 1.081 9.007 0.17 1.036 0.696 1.132 1.174 0.342 1.264-2.089 2.94-5.175 4.232-7.631 0.443-0.845 0.055-1.039-0.387-0.187" fill="#0f141b"/>
  </g>
  <g transform="matrix(1.704 0 0 -1.704 87.606 103.42)">
   <path d="m0 0c1.231 1.235 2.934 2.817 4.442 4.078-0.189 1.574-0.442 4.253-1.036 6.814-0.057 0.246-0.057 0.281-6e-3 0.463 0.747 2.613 1.642 5.817 2.147 8.228 0.068 0.325 0.011 0.349-0.276 0.133-2.067-1.552-3.944-3.188-6.234-5.516-0.55-0.558-0.749-0.339-0.217 0.227 2.2 2.342 4.105 4.064 6.246 5.614 0.706 0.51 1.049 0.349 0.875-0.545-0.485-2.487-1.351-5.702-2.136-8.35 0.55-2.364 0.841-5.033 1.092-6.961 0.033-0.25 0-0.339-0.153-0.462-1.63-1.311-3.274-2.794-4.554-3.939-0.541-0.484-0.729-0.325-0.19 0.216" fill="#0f141b"/>
  </g>
 </g>
</svg>
