<?xml version="1.0" encoding="UTF-8"?>
<!-- Created with Inkscape (http://www.inkscape.org/) -->
<svg version="1.1" viewBox="0 0 351.07 407.39" xmlns="http://www.w3.org/2000/svg">
 <path d="m158.83 338.53c-1.6163-1.3488-3.1141-3.3281-4.2462-5.6482 0.19105 2.56 0.44323 5.0819 0.75654 7.4815 1.3068-0.5273 2.4684-1.1578 3.4924-1.8341" fill="#c93d12"/>
 <g fill="#F8B757">
  <path d="m176.85 341.26c0.78331 1.4138 1.6851 3.0874 2.0213 3.8019 1.6583 1.1998 3.3969 5.702 3.4924 11.121 0.78331 0.26748 2.2238 0.58079 3.3969 0.74128 10.164 1.0508 16.162 4.61 17.712 7.279 2.6136-0.30568 3.5574-1.5246 3.4389-3.0606-0.19104-2.1971-5.5129-6.1598-18.022-5.8771-1.1998-6.0387-4.0709-10.029-5.877-12.334-0.95525-0.44324-2.1818-1.0508-3.7752-1.3603-0.7145-0.15285-1.5246-0.22925-2.3843-0.30568"/>
  <path d="m171.52 353.33c1.1043 4.5023 2.7626 7.9935 6.8881 10.568 8.7619 5.4457 24.964 6.7395 25.463 1.7538 0.26748-2.6021-5.9309-7.4677-18.103-8.7348-1.1845-0.15284-2.6135-0.45851-3.3968-0.74127-0.0764-5.4185-1.8455-9.9208-3.4924-11.121-0.34389-0.69923-1.2418-2.3728-2.0366-3.8019-2.5486-0.19105-5.6344-0.15284-8.546-0.26747z"/>
  <path d="m161.41 358.48c0.26746 5.796 1.1998 6.3352 4.0437 8.4516 9.9346 7.4001 20.435 7.5082 21.783 4.1381 1.4443-3.5841-7.1307-10.096-16.714-11.916 2.411-4.5156 3.7331-13.412 1.2686-18.09-3.4389-0.0383-6.9958-0.11467-9.5303-0.75655 0.60753 5.0147-1.1845 11.067-0.84825 18.171"/>
 </g>
 <path d="m160.21 178.61c-2.6823-9.476-25.328-11.795-27.593-9.8941-0.48526 0.4165 1.7806 4.3001 5.7017 7.3867 6.7941-0.19105 14.652 0.78329 21.891 2.5066" fill="#91D2DC"/>
 <path d="m140.99 172.57c-0.19106 0.40503 0.86353 1.9831 2.9804 3.6261 3.6949 0.19104 7.535 0.68777 11.309 1.3756-2.7778-4.0304-14.154-5.2707-14.289-5.0009" fill="#EAF6FD"/>
 <path d="m97.197 177.16c12.01 8.4245 26.083 7.872 33.672 3.0988 12.536-7.8452 11.633-25.733-2.8581-37.392-6.6451-5.3647-13.399-8.0741-20.044-8.5055 1.2151 7.5755 1.2686 13.857 0.41649 14.72-0.50055 0.48525-11.565-7.0902-18.265-10.191-9.3549 8.1012-6.9825 28.415 7.0768 38.269" fill="#91D2DC"/>
 <path d="m107.96 134.36c-1.2953-8.034-3.9093-17.523-8.1555-23.562-8.7481-12.428-18.912-15.138-25.476-10.689-8.8559 6.0253-3.2631 31.65 13.534 41.261 0.66103-0.91703 1.4023-1.7538 2.2506-2.4798 6.7131 3.0988 17.766 10.689 18.265 10.191 0.86353-0.86353 0.81004-7.1441-0.41649-14.72" fill="#3252A3"/>
 <path d="m108.38 149.08c0.46999-0.47381 0.6725-2.6136 0.53876-5.7021-3.6108-27.727-15.744-33.712-21.406-30.612-6.5243 3.5841-4.2596 19.168 14.881 33.066 3.2746 1.9831 5.7559 3.4771 5.9848 3.2478" fill="#91D2DC"/>
 <path d="m104.63 141.91c0.7833-0.50055-3.6528-23.01-11.202-19.613-6.9148 3.0988 10.635 19.976 11.202 19.613" fill="#EAF6FD"/>
 <path d="m100.45 161.59c0.3821-1.9831-15.38-15.623-27.66-19.047-16.513-4.5963-23.778-0.30567-24.964 5.7154-1.2533 6.3757 4.0441 15.825 17.335 18.939 15.137 3.5573 35.195-5.1354 35.289-5.6073" fill="#3252A3"/>
 <path d="m100.45 161.59c0.19104-0.99729-3.7598-5.0009-9.3144-9.1528-12.617-6.4028-25.598-7.3057-26.865-1.0661-1.5513 7.5892 6.7131 14.046 31.165 12.388 3.0721-1.1043 4.9875-2.0213 5.0146-2.1703" fill="#91D2DC"/>
 <path d="m93.229 159.78c0.19106-0.90176-18.939-12.63-21.244-5.6077-2.2124 6.7131 21.096 6.2679 21.244 5.6077" fill="#EAF6FD"/>
 <path d="m111.37 177.63c-1.5895-0.56552-16.998 6.3352-25.369 17.523-4.2191 5.621-4.6234 11.161-3.0988 14.747-3.0988 1.9143-25.881 0.0268-34.575 5.8232-4.7586 3.1676-6.7937 7.3057-6.3222 13.129-17.645 5.2573-27.336 7.5621-35.882 15.731-5.7154 5.4594-6.2277 13.696-3.0071 17.753 3.1141 3.9226 13.21 3.9093 20.745-3.4083 13.938-13.534 17.834-24.654 19.545-26.973 10.177 7.1846 24.142 4.0709 43-19.033 4.2596 2.2123 11.08 0.94377 15.609-3.2478 11.767-10.878 9.9074-31.852 9.3549-32.041" fill="#91D2DC"/>
 <g fill="#EAF6FD">
  <path d="m106.26 186.45c-0.99728 0-7.7241 6.6183-12.631 10.932-2.9383 2.5754-3.7484 6.2412-2.1015 7.8181 2.1015 1.9946 6.6049 0.86353 8.7214-1.7118 4.61-5.6077 6.6183-17.038 6.0119-17.038"/>
  <path d="m74.485 216.42c-0.51202-0.512-14.733 0.60752-19.451 3.1141-3.7331 1.9831-4.2325 5.1224-3.0988 6.9148 1.4443 2.2926 5.877 2.8161 8.8158 1.0928 4.8122-2.8046 14.14-10.716 13.736-11.121"/>
  <path d="m30.581 238.17c-0.19106-0.30567-13.426 4.7044-18.844 9.9208-2.9116 2.8046-3.3281 5.7964-1.8073 7.4138 1.3335 1.4138 4.3674 0.91704 7.0226-1.0928 4.61-3.5191 13.924-15.744 13.628-16.243"/>
 </g>
 <path d="m123.54 152.8c0.94379 0.26747 16.647-8.9908 18.642-22.996 1.5895-11.174-2.8581-18.467-8.5731-19.505-6.2274-1.131-12.468 3.5573-13.52 15.299-1.0928 12.105 2.3308 26.905 3.4504 27.202" fill="#3252A3"/>
 <path d="m133.61 123.97c-4.3403-1.536-7.6699 1.2533-9.5704 6.4567-1.7271 4.7449-1.4826 14.046-1.4673 20.327 0.38973 1.238 0.72598 1.9831 0.97052 2.048 0.30568 0.0764 2.2506-0.89028 4.7583-2.7091 4.8389-5.9848 8.6404-11.714 9.1662-14.436 1.1577-6.039-0.87501-10.622-3.8554-11.687" fill="#91D2DC"/>
 <path d="m125.03 148.83c0.99727 0 12.806-13.79 6.7127-16.149-5.4323-2.1168-7.0631 16.149-6.7127 16.149" fill="#EAF6FD"/>
 <path d="m224.06 210.14c9.1661-3.0071 13.641-8.8158 11.822-10.972-1.9831-2.3728-15.663 1.9831-22.74 2.1015-0.74128 0.0137-4.7311-2.4798-7.5755-4.0976-8.3305-4.7315-24.142-20.543-24.708-22.242-0.56549-1.6851-6.5916-25.22-8.4654-25.409-1.8876-0.19107-3.5191 2.3193-3.7331 9.2468-0.15284 4.9742 0 13.924 0.74126 18.144 0.84827 4.8526 21.001 30.572 31.313 35.168 3.6108 3.9627 9.0718 8.4111 12.832 10.217 0.66103 21.891 11.822 27.795 13.763 27.189 1.7653-0.55404-2.4263-19.815-4.273-27.579 9.7053 10.298 22.025 12.806 23.158 11.053 1.3068-2.0213-13.143-17.631-22.133-22.821" fill="#2B458E"/>
 <path d="m138.91 87.333c-9.2334 4.1515-19.788 8.627-38.174 9.4088 14.127 9.813 33.47 12.293 52.813 8.2495-0.75656-0.69923-1.5628-1.429-2.4684-2.2238-7.4811-6.605-9.9074-9.3683-12.172-15.434" fill="#2B458E"/>
 <g fill="#3252A3">
  <path d="m180.35 34.349c-10.379-8.9774-22.794-12.873-40.573-10.339-26.056 3.7064-35.289 26.406-48.554 40.681-12.334 13.278-27.754 11.013-31.124 4.5023-1.8073-3.5038-3.4656-3.5726-4.0437-0.79477-1.0393 4.8932 2.2506 12.334 9.2739 16.284-0.19104-0.22926-0.38209-0.43178-0.512-0.66104-2.2506-3.2631-1.4978-4.5829 1.685-3.8133 7.5888 1.8073 16.297 0.92851 26.339-4.8798-0.875-2.0366 0.40502-3.6414 4.6639-3.5191 0.22926 0.01367 0.46997 0 0.69923 0.01367 16.081-11.714 15.919-23.522 34.157-25.22 15.34-1.429 27.714 5.9581 35.249 19.99 1.3603-3.2364 3.4771-6.3218 4.7988-6.5106 1.5895-0.22926 5.1492 3.2211 7.4001 7.0497 1.3068-7.7642 5.6749-12.779 11.094-13.264 0.22927-6.1063-2.2773-12.361-10.554-19.518"/>
  <path d="m190.9 53.867c0.43176-0.03827 0.84826-0.03827 1.2953-0.03827 0.38211 0.01367 0.74127 0.02719 1.0928 0.03827-0.75656-1.7538-1.7271-3.4924-2.9116-5.1763 0.43177 1.7538 0.59225 3.4656 0.52729 5.1763m3.2899 16.647c-1.6965 4.4346-5.1354 7.8586-10.11 9.1929-0.11468-0.0764-0.19105-0.19104-0.30568-0.30568 3.3166-5.4323 6.3894-8.1956 10.406-8.8964"/>
  <path d="m132.35 46.599c-18.238 1.6965-18.076 13.506-34.157 25.22 9.2063 0.11468 20.88-2.4416 32.593-6.8338 11.97-4.4889 23.481-3.5994 35.613 5.7288 0.15285-1.2418 0.60754-2.6976 1.2151-4.1248-7.5484-14.032-19.923-21.419-35.262-19.99"/>
  <path d="m132.45 83.188c-9.0179 3.8955-14.666 4.9875-19.532 4.8526-7.198-0.19104-9.314-3.3013-5.3918-5.028-7.7104-0.90174-13.439-4.7449-14.692-7.6966-10.029 5.8232-18.737 6.6993-26.339 4.8928-3.1829-0.76802-3.936 0.55404-1.6851 3.8133 4.7311 6.8476 17.672 13.129 33.038 12.819 37.905-0.78331 43.957-16.768 68.422-16.971-10.299-3.6414-20.84-2.3041-33.82 3.3166"/>
 </g>
 <path d="m128.65 84.742c1.387 1.8723 2.9804 3.5459 4.7988 4.9604 1.387-0.56549 2.7358-1.1578 4.0437-1.7385-1.2686-1.5513-2.3575-3.4236-3.2631-5.5267-0.59224 0.22926-1.1845 0.48527-1.792 0.75656-1.3335 0.58079-2.5868 1.0928-3.7866 1.5513m2.6556-19.936c-0.19104 0.03827-0.34389 0.11468-0.52729 0.19106-2.8046 1.0508-5.6077 1.9945-8.3844 2.8161-2.1436-19.262 8.6136-42.178 33.605-44.226 4.3807 0.49673 8.3706 1.5246 12.078 3.0721-25.585 1.1845-36.044 20.624-36.772 38.147" fill="#9da1cf"/>
 <path d="m118.73 94.457c-3.3013 7.9935-1.9945 15.919 4.4079 22.052 7.6026 7.2656 18.036 2.4263 17.079 1.3488-0.41648-0.48526-6.5916 1.3068-8.7481-3.5038-1.6163-3.5994 1.7653-13.763 11.511-19.586-1.792-2.2391-2.9536-4.4346-4.0709-7.4272-5.7154 2.5601-11.929 5.2569-20.179 7.1173" fill="#2B458E"/>
 <path d="m178.62 101.85 7.9125-19.06c0.59224-1.6965 0.74125-3.0186 0.72981-4.3269-0.98582 0.51202-2.0366 0.94379-3.1829 1.2533-0.11467-0.0764-0.19106-0.19106-0.3057-0.30569-0.58078-0.66102-1.066-1.5093-1.5513-2.6403l-9.3278-0.71453c-0.41647 2.5601-0.68777 5.0819-0.8215 6.4028-1.9678-1.0508-3.9364-1.899-5.9042-2.5868-11.377 0.11468-18.777 3.6376-27.269 7.4544 2.2658 6.0658 4.691 8.8291 12.185 15.434 7.9664 7.0363 9.813 9.6109 11.525 14.827 3.6376 0.75655 8.465 2.1589 13.52 4.354-5.0819-13.587-3.1409-14.127 2.4798-20.098" fill="#EAF6FD"/>
 <path d="m186.97 81.245c0.22926-0.99728 0.26747-1.8876 0.26747-2.7779-0.98581 0.512-2.0366 0.94377-3.1829 1.238 0.51202 0.46997 1.5093 1.131 2.8963 1.536" fill="#EAF6FD"/>
 <path d="m200.07 159.27c4.0575-3.8133 2.1971-16.337-5.5267-24.776-13.291-14.504-37.069-18.642-38.39-17.321-2.304 2.304 5.7288 30.599 19.357 40.506 9.3549 6.7937 19.599 6.2679 24.56 1.5895" fill="#91D2DC"/>
 <path d="m157.84 128.88c-1.429-0.34389-2.8695-0.44325-3.3701-0.0272-1.643 1.3756 1.3335 23.212 18.386 34.656-3.3434-6.6993-6.848-13.062-7.5758-17.874-3.2899-5.4995-5.8232-11.606-7.4406-16.755" fill="#7db6bf"/>
 <path d="m200.34 143.9c2.5066 6.4567 2.411 12.832-0.26747 15.353-1.3068 1.2418-3.0071 2.1818-4.9336 2.7778 3.4504 8.7485 15.07 30.167 16.135 30.167 2.304 0 8.8964-28.914-10.932-48.297" fill="#EAF6FD"/>
 <path d="m200.72 212.08c-0.48526-0.22925-0.99728-0.49672-1.5246-0.79477-1.4825 2.1971-3.0721 4.354-4.7311 6.4433 0.26747 1.6048 0.22927 2.9918 0.69923 3.5038 2.7244 2.9383 5.9848 7.441 9.3278 12.577 0.81005-5.0552 1.131-12.091 0.67249-17.416-1.6048-1.4023-3.1523-2.8963-4.4484-4.3135" fill="#2B458E"/>
 <path d="m205.36 223.2c-1.3335 2.8428-2.7626 4.866-3.8554 6.1736 0.98581 1.4023 1.9831 2.8848 2.9918 4.4346 0.48527-3.0721 0.79477-6.8881 0.86354-10.608" fill="#7db6bf"/>
 <path d="m195.14 162.03c-5.3918 1.6698-12.751 0.63429-19.626-4.3674-3.9226-2.8428-7.36-7.2117-10.244-12.037 1.5628 10.406 16.108 27.97 13.951 40.735-9.1929-6.9286-32.108-11.862-46.356-9.8264-0.11467 0.0268-0.22925 0.0383-0.34389 0.0383 0.8368-2.7244 0.46999-4.9875-0.15282-6.2679-1.8341-3.6796-13.884-10.069-15.784-9.0718-2.2506 1.1998-5.6482 12.037-4.4751 14.801 1.0775 2.5066 3.6681 5.1354 10.298 7.1036-4.9203 12.064 0.38209 38.12 13.938 49.066 10.433 8.3978 22.767 10.352 33.807 5.8365 15.272-6.2542 34.952-29.789 39.091-48.607-3.7484-6.0658-11.404-20.597-14.099-27.417" fill="#3252A3"/>
 <path d="m154.11 227.26c-12.59-2.9001-27.053-11.889-32.782-24.465 1.8073 11.08 6.9553 22.929 15.016 29.426 10.42 8.4111 22.767 10.352 33.794 5.8365 5.1759-2.1168 10.865-6.2274 16.283-11.458-11.053 3.1944-23.104 2.7893-32.311 0.66103" fill="#2B458E"/>
 <path d="m193.95 209.28c-6.2817 2.3996-12.469 1.9946-16.284-1.4558-4.1652-3.7751-5.0682-10.016-3.2211-13.17-8.5728-2.5486-13.331-6.9687-13.938-9.3545-0.52729-2.1015 1.131-4.7044 2.6556-5.9313-1.8608-0.51203-3.7598-0.97055-5.7154-1.3756-2.0901 1.4291-3.0186 3.5841-2.7893 6.5243 0.30567 4.0438 4.691 8.6266 14.046 11.404-1.5246 3.2478-0.7833 10.689 4.2864 16.094 4.4889 4.772 11.862 5.702 18.13 3.3014-0.26745 1.6583 0.0764 3.9092 0.82152 5.4323 1.5895-1.8341 3.1294-3.7484 4.5963-5.7154-1.3488-1.2953-2.4149-3.6376-2.5868-5.7555" fill="#91D2DC"/>
 <path d="m136.3 236.63c-13.641 9.3549-13.884 17.955-9.5299 22.187 3.2364 3.1408 11.04 1.685 15.744-7.535-0.44324-1.173-0.92848-2.3461-1.4443-3.4656-1.9946-4.3135-3.5573-7.9392-4.772-11.188" fill="#91D2DC"/>
 <path d="m131.25 253.64c1.7806 1.3335 6.2141-0.90174 8.8696-7.8991-0.53876-1.1998-1.0508-2.3461-1.5246-3.4389-8.5193 5.0685-9.7324 9.557-7.3466 11.336" fill="#EAF6FD"/>
 <path d="m157.57 361.75c2.7244-0.30569 2.8848-1.2418 1.4558-4.7044-6.6859-16.256-6.4567-65.133-1.7806-72.412 1.6965-2.6288 2.8046-5.3379 4.1652-8.452 6.2412-14.153 12.415-42.339 11.35-52.139-2.3843-22.214-35.289-46.046-38.875-17.16-2.1015 16.998-1.0775 23.037 7.1846 40.924 4.1248 8.9235 5.8232 19.976 4.7449 24.937-1.8608 8.5189-15.583 20.597-23.859 44.456-8.8425 25.517-4.9203 47.219-2.155 47.974 2.9804 0.81005 7.8586-1.7653 15.043-4.0709 8.0879-2.6021 13.709-3.2746 18.467-2.3461 1.1998 0.86354 3.3013 2.304 4.2596 2.9918" fill="#3252A3"/>
 <path d="m195.16 221.24c-0.48527-0.512-0.41649-1.899-0.69924-3.5038-6.9148 8.6538-15.138 15.946-22.551 19.532-0.38974 2.6136-0.89028 5.4052-1.4672 8.2766 6.133 4.5962 25.314 18.453 31.353 24.654-10.999 10.581-38.323 24.897-47.933 44.388 0 6.0257 0.22927 12.32 0.71453 18.306 1.7385 3.5573 4.2997 6.3352 6.9286 7.2113 4.4075 1.4711 13.048 0.55404 17.739 1.4711 3.2096 0.63429 4.947 2.4684 5.9309 1.8188 1.5093-0.99727-3.6376-9.813 11.283-35.613 15.003-25.962 28.078-30.262 28.361-34.319 0.30567-4.6776-18.858-40.56-29.655-52.22" fill="#3252A3"/>
 <path d="m222.27 265.93c-5.5267-12.401-18.804-35.721-27.108-44.698-0.48527-0.51201-0.4165-1.8876-0.71453-3.5038-6.9014 8.6541-15.138 15.946-22.538 19.532-0.38973 2.6136-0.89028 5.4052-1.4673 8.2766 6.1331 4.61 25.315 18.453 31.34 24.654-0.46997 0.4585-0.98581 0.92848-1.5246 1.4023 5.4051-0.95524 15.825-9.314 22.012-5.6612" fill="#2B458E"/>
 <g fill="#E94615">
  <path d="m170.52 359.15s0-0.0137 0.0137-0.0137c-6.1334 0.98582-8.0745 3.0988-7.6294 5.6073 0.59225 0.76801 1.4138 1.3603 2.5486 2.1818 9.9342 7.4005 20.435 7.5082 21.783 4.1381 1.4291-3.5841-7.1445-10.096-16.715-11.916"/>
  <path d="m206.91 361.14c-0.19104-2.1971-5.4862-6.1334-17.901-5.8908-0.49672 0.56551-0.97053 1.3221-1.173 1.9258 8.9102 1.28 14.194 4.5428 15.637 7.0096 2.6135-0.30569 3.5573-1.5246 3.4389-3.0453"/>
  <path d="m185.76 356.92c-2.1436 0.19105-9.301 1.5246-7.8991 6.6183 0.19105 0.11467 0.34388 0.22925 0.53876 0.38209 8.7619 5.4456 24.964 6.7398 25.463 1.7538 0.26747-2.6021-5.9313-7.4677-18.103-8.7348"/>
 </g>
 <path d="m119.79 365.17c-0.11468-0.0272-0.22926-0.11467-0.34389-0.22925-2.5601 2.1588-6.6856 2.6441-6.8476 4.4618-0.30569 3.4121 5.9985 7.2385 11.848 2.7893 0.74128-3.5726 2.0366-6.7265 3.8133-8.7886-3.7216 1.3488-6.5106 2.2926-8.465 1.7538" fill="#c93d12"/>
 <path d="m171.61 376.95c-0.22926-6.9825-12.536-13.965-18.292-18.197h-0.0137c-4.7583-0.92849-10.366-0.26747-18.467 2.3461-2.4531 0.7833-4.6371 1.6048-6.5782 2.304-4.4075 5.1354-5.8499 16.971-3.3434 25.314-8.9235 3.9092-13.709 11.983-11.026 14.342 4.3269 3.8019 22.888-0.78331 18.467-13.237 3.5841-1.7385 6.7666-6.686 7.3329-13.048 2.7778 5.1763 5.9848 8.546 10.042 10.743-1.8723 15.757 17.86 20.718 20.678 18.197 4.4079-3.9092-4.9065-17.416-14.801-20.395 0.38972-2.6136 0.38209-5.2435-0.0137-7.8181 2.7893 2.304 7.0092 4.0441 11.7 4.0441 4.5829 6.4296 22.578 9.988 24.074 5.6073 1.0661-3.1141-4.4079-9.3817-19.761-10.204" fill="#F8B757"/>
 <g fill="#E94615">
  <path d="m124.78 388.78c-8.8291 3.936-13.561 11.943-10.905 14.275 4.1786 3.6681 21.487-0.44325 18.885-11.835-1.9143-3.0874-3.9226-3.2364-7.9797-2.4416"/>
  <path d="m149.62 388.85c-0.66103 14.706 18.036 19.316 20.785 16.876 3.9765-3.5306-3.2364-14.882-11.943-19.249-5.4185-1.1043-7.5483-0.22926-8.8425 2.3728"/>
  <path d="m171.61 376.95c0-0.0383-0.0137-0.0764-0.0137-0.15284-2.2658 1.2533-3.6681 3.2096-4.3269 4.7449h0.0272c4.5829 6.4296 22.578 9.988 24.074 5.6073 1.0661-3.1141-4.4079-9.3816-19.761-10.204"/>
 </g>
 <path d="m143.63 324.14c-6.7265 20.273-24.021 17.591-21.621-7.0635-0.0137 0.0383-0.0272 0.0764-0.0383 0.11467-2.6709 7.6966-4.1786 15.043-4.9065 21.581 0.76802-1.7118 1.6583-3.3816 2.4683-4.8255 2.6288 11.848 16.04 17.294 23.037 1.8455 2.3728 8.3572 8.3034 11.404 13.291 8.371-0.26747-1.7118-0.49673-3.5038-0.71452-5.3517-4.192 0.64574-8.546-2.2085-11.511-14.679m10.258-13.156c-0.0382 2.5868-0.0382 5.2435 0.0137 7.9259-3.3013 0.75656-7.8586-2.4263-9.1123-8.3706-7.3057 8.6943-18.764 7.7237-17.402-6.2007 1.3068-2.6021 2.6403-5.0146 3.9628-7.279-2.2659 14.558 6.7264 17.753 15.488 1.3335 0.45853 8.6542 3.0453 13.035 7.0501 12.59" fill="#91D2DC"/>
 <path d="m189.1 311.12c-12.927 13.897-25.746 14.086-15.259-9.813-4.4346 2.2926-10.069 3.2631-13.21 3.1943-1.7538 2.0633-3.3434 4.2058-4.7178 6.4166 2.155 0.8368 6.2813 0.69923 10.069-1.0661-5.4457 15.259 4.0709 21.769 17.969 12.738 0 3.8688 1.0928 6.7803 2.5218 8.5731 0.5273-2.2773 1.3068-4.9203 2.4798-7.9664-1.1043-2.1283-1.6583-5.877 0.15284-12.078m10.177-8.0202c-0.9285 1.4826-1.8723 3.0339-2.8314 4.6773-0.11467 0.19105-0.22925 0.38974-0.30567 0.58079-0.84826-1.6316-1.6163-4.3269-0.81005-7.8319-9.3282 6.1201-16.216 1.5628-12.725-8.546-3.6682 1.0126-6.8342 0.7833-8.4922-0.38211 1.6851-1.3603 3.3701-2.6976 5.0685-3.9765 2.8314 0.89028 7.0902 0.0764 13.143-4.2868-11.364 13.493-0.875 17.78 9.2334 7.8586-2.5868 4.2596-3.2364 8.6541-2.2658 11.903" fill="#91D2DC"/>
 <path d="m204.68 63.683c2.4798-2.8695 3.2478-9.1394 1.7271-12.172-1.28-2.5753-1.9411-2.3308-4.4484 0.45852-1.2686 1.4023-3.0721 2.1436-9.7592 1.8608-5.9986-0.26746-10.986 4.9199-12.388 13.304-2.2506-3.8416-5.8098-7.279-7.4005-7.0635-1.9143 0.26748-5.459 6.5511-5.9982 10.649-12.132-9.3278-23.643-10.218-35.613-5.7288-12.01 4.5023-23.98 7.0768-33.294 6.8204-10.42-0.30568-3.0071 9.6648 10.029 11.202-3.9226 1.7271-1.8073 4.8393 5.3918 5.028 4.8664 0.15282 10.514-0.95907 19.532-4.8526 15.421-6.686 27.39-7.279 39.63-0.71453 0.34389-3.2364 1.4405-13.534 3.5726-14.154 2.2238-0.64574 4.6501 3.5306 6.2274 7.616 0.60754 1.5781 1.1845 2.667 1.899 3.4771 4.1515-6.7803 7.8854-9.4088 13.614-9.0446 5.7154 0.34389 8.4382-1.7806 8.8291-4.6505 0.22926-1.8188-0.26746-2.2658-1.5513-2.0366" fill="#E94615"/>
 <path d="m174.86 18.327c-21.85-25.086-61.938-18.696-70.539-8.3171-1.8608 2.2391-0.75656 4.098 1.643 3.5459 8.7619-2.0213 20.664 0.86354 27.957 7.36 5.0552 4.5023 11.35 9.6243 18.427 15.016 8.6136 6.5511 15.973 19.276 16.944 27.363 1.0928-1.7806 2.2658-3.0988 3.1141-3.2211 0.44324-0.03828 1.0393 0.19104 1.7271 0.60754 10.77-16.904 8.7214-33.173 0.72598-42.353" fill="#91D2DC"/>
 <path d="m176.07 40.979c2.7511-1.131 4.4346-5.365 4.4346-11.808-0.95524-3.5841-2.5218-6.7937-4.5561-9.4894 1.9258 6.3489 1.4558 11.539-2.4684 13.426-5.9309 2.8581-18.737-2.8581-33.065-6.6187 3.5726 2.9536 7.535 6.0929 11.781 9.3278 13.924 6.1602 20.543 6.5377 23.872 5.1629" fill="#EAF6FD"/>
 <path d="m141.22 92.266c1.9564 3.2364 4.7044 5.9581 9.8535 10.5 7.9667 7.023 9.8268 9.6109 11.525 14.828 3.6528 0.75274 8.4788 2.155 13.534 4.3536-5.0819-13.587-3.1408-14.127 2.4798-20.098l7.9125-19.06c-28.253 16.216-37.73 16.135-45.305 9.476" fill="#CAD5DC"/>
 <g fill="#0f141b">
  <path d="m92.878 77.203c-2.6288-3.2631-2.1436-6.4972 4.6643-6.2951 8.9636 0.26748 20.664-2.0098 32.984-6.6321 12.469-4.6773 23.805-3.179 35.451 5.365 0.92849-4.6773 4.3269-10.218 6.349-10.46 2.5486-0.30569 7.4272 5.1763 8.9636 9.8134 0.44325 1.3488-0.0383 1.6583-0.68777 0.40502-3.0071-5.9175-6.6317-8.5731-7.8315-8.4788-1.1196 0.0764-4.9738 5.2168-5.7827 9.8941-0.19105 0.98199-0.0764 1.0126-0.97053 0.30568-11.269-8.6541-23.063-9.894-34.966-5.4323-12.482 4.6773-24.398 7.2656-33.564 7.0092-3.4924-0.0764-4.9203 1.0928-2.9804 3.4771 3.0721 3.8019 12.199 8.0879 23.212 5.6749 1.4978-0.30568 1.7385 0.58079 0.26748 1.0126-9.2605 2.6938-20.462 0.0764-25.112-5.6749"/>
  <path d="m179.38 66.077c1.685-7.8991 6.2951-13.358 12.846-13.008 7.3462 0.38973 7.9797-0.03827 9.894-2.3843 2.155-2.6288 3.2899-3.0339 5.0143 0.40502 2.3575 4.7178-0.22927 14.154-4.8526 14.423-1.3756 0.07639-1.387-0.68778 0-0.92849 3.0186-0.52729 5.5534-8.3573 3.3548-12.765-0.7833-1.5628-1.131-1.2953-2.3461-0.15284-2.8581 2.6709-3.2096 3.0453-11.134 2.9383-5.8366-0.0764-10.797 5.203-11.848 13.385-0.15283-0.45852-0.61899-1.28-0.9285-1.899"/>
  <path d="m183.27 78.796c4.0842-6.6049 8.4516-9.5437 14.167-9.1933 4.9203 0.30568 7.5892-1.5093 7.9125-3.8955 0.19105-1.4138-0.30569-1.387-1.536-1.1196 0.64575-0.64575 0.97053-0.95907 1.2533-1.4978 1.4405-0.41648 2.2658 0.48527 1.9831 2.6136-0.46998 3.4504-3.2631 5.8232-9.7053 5.4189-5.3647-0.34389-8.5189 1.4138-13.008 8.8425-0.26747-0.15284-0.95906-0.84826-1.0661-1.173"/>
  <path d="m168.7 64.601c-0.19104-8.0879-9.0313-22.336-16.849-27.97-7.5082-5.4052-13.601-10.662-18.481-15.057-7.2385-6.5239-18.009-9.5165-27.458-7.36-4.5829 1.0393-4.4751-1.8073-2.0633-4.7311 4.4751-5.3784 16.202-9.3278 28.779-9.476 17.079-0.22926 32.648 5.7422 43.108 17.739 8.1956 9.4222 10.016 26.353-1.0508 43.377-0.19104-0.19104-0.76802-0.53875-1.1578-0.8215 9.301-14.787 9.4764-31.138 0.86353-41.032-9.7053-11.134-23.953-17.793-41.733-17.551-12.145 0.15285-23.684 3.6949-27.876 8.7619-1.3756 1.6583-0.7833 2.5486 1.0661 2.1703 9.4898-1.8876 21.015 1.0393 28.658 7.5621 4.3941 3.7598 12.158 10.177 18.359 15.03 9.2873 7.2656 15.542 18.467 16.971 27.107-0.41648 0.726-0.90174 1.3603-1.131 2.2506"/>
  <path d="m99.234 71.812c4.3945-3.0606 8.5597-7.2251 12.738-12.145 5.9714-7.0635 12.549-11.39 20.408-12.118 8.9774-0.8368 15.286 0.81005 19.896 3.5306 1.536 0.91703 2.0901 0.44323 0.38209-0.74128-4.7988-3.3434-12.01-5.4457-20.422-4.6639-8.0336 0.75656-14.248 4.017-21.581 12.671-4.5561 5.3918-8.9369 9.9479-13.426 13.304z"/>
  <path d="m159.62 56.461c2.4263 2.5218 5.4189 6.6722 7.6565 10.945 0.19104-0.56551 0.45852-0.95526 0.67249-1.6163-1.8723-3.5726-4.7315-7.5487-7.5354-10.029-2.6021-2.2926-3.1829-1.7806-0.79476 0.69923"/>
  <path d="m117.6 94.751c0.43177-0.22925 1.9831-0.51201 2.2926-0.5655-7.1173 16.445 7.279 29.655 18.561 24.371-13.87 0.38209-8.5728-16.836 4.0036-24.695 0.11467 0.19106 0.84826 1.3756 1.131 1.7271-9.9479 5.4995-18.481 22.147-4.5966 21.621 2.9116-0.11468 3.8416 0.6725 0.50054 2.3461-12.482 6.2679-28.779-7.2251-21.891-24.802"/>
  <path d="m117.11 105.34c-6.3623-1.8073-12.266-4.5967-17.47-8.4249 0.43177-0.07642 1.4978-0.26747 2.2391-0.26747 4.5428 2.9804 9.6109 5.2573 15.097 6.8075z"/>
  <path d="m131.76 107.73c7.3057 0.40503 14.949-0.26747 22.646-1.9143-0.38209-0.30569-1.131-1.4711-1.5513-1.7386-6.9962 1.4405-13.817 2.0213-20.301 1.7653z"/>
  <path d="m190.14 53.953c0.26747-6.1063-2.4148-11.7-8.7615-17.523-0.0272-0.48527-0.0764-2.1283-0.0764-2.4798 7.7505 6.7394 10.595 12.981 10.366 19.882-0.26747-0.03827-1.2265 0.15285-1.5246 0.11468"/>
  <path d="m66.765 86.411c-14.248-6.5511-13.264-21.918-9.3545-21.028 3.0606 0.68778 3.5841 7.4544 11.404 8.034 9.9208 0.75656 18.157-3.2096 31.205-21.284 14.18-19.639 23.805-26.244 36.826-28.738 0.55404 0.26746 1.9258 1.643 2.1703 1.9411-14.261 2.3728-24.411 9.7863-37.5 28.051-13.062 18.238-23.117 22.848-32.877 21.554-7.9259-1.0393-9.651-6.9821-11.134-7.0902-1.3068-0.0764-2.4798 9.0179 6.7265 15.313 0.60754 1.0775 1.9945 2.9001 2.5333 3.2478"/>
  <path d="m194.25 53.726c-1.0661-2.5066-2.5601-5.0414-4.529-7.4949 0.38209 0.89029 0.79476 3.7331 0.89028 4.5156 0.64575 1.024 1.1998 2.0633 1.6851 3.0988z"/>
  <path d="m161.56 117.42c-1.6316-4.7583-3.4236-7.4272-10.972-14.086-8.5727-7.5621-10.285-9.4493-12.603-15.623 0.26746-0.19104 1.6048-0.59226 1.9525-0.79477 2.3728 6.4162 4.8526 9.2877 11.646 15.286 8.209 7.2251 10.312 10.11 12.091 15.636-0.60754-0.15285-1.6965-0.30568-2.1168-0.41649"/>
  <path d="m199.2 158.36c3.7751-3.936 2.048-14.989-5.284-22.996-13.075-14.289-35.802-18.602-37.109-17.456-1.8073 1.5895 5.5538 28.86 19.519 39.01 9.3006 6.7532 18.602 5.9042 22.875 1.4443m-24.034 0.26747c-14.208-10.325-22.551-38.983-19.545-42.002 2.1436-2.1283 27.175 3.4656 39.765 17.214 6.7131 7.3328 10.676 21.352 5.5133 26.218-5.0414 4.7583-15.812 5.7693-25.732-1.4291"/>
  <path d="m211.37 193.41c-2.6823 0-14.706-25.45-16.93-31.084 0.22926-0.0137 1.2686-0.0137 1.536-0.26748 2.9536 7.36 13.453 26.797 15.138 27.97 0.78331 0.55404 4.0976-12.212 0.0383-26.123-1.7538-5.9848-4.6639-12.522-10.244-18.373-0.15283-0.87502-0.89028-2.6288-1.5513-3.6108 7.3596 6.5782 11.565 14.086 13.695 21.406 4.354 14.976 1.131 30.073-1.685 30.073"/>
  <path d="m171.69 238.59c16.903-7.872 34.05-30.788 38.147-47.866-0.34389-0.40502-1.0393-2.0748-1.2265-2.4531-3.2478 16.593-20.475 39.091-36.53 47.65z"/>
  <path d="m122.33 181.94c-5.6073 10.568-2.2926 36.475 12.59 50.616l-0.8903-3.9498c-12.253-13.668-15.016-36.597-10.73-46.019 0.51201-1.1196-0.38209-1.7806-0.97052-0.64576"/>
  <path d="m133.13 177.09c12.172-1.322 33.469 2.1971 45.628 9.8803 0.84827 0.52729 1.0508 0.40503 1.1998-0.48526 0.90175-5.3242 0.0383-10.945-7.6832-26.218-3.3548-6.6321-4.8798-10.514-5.3245-12.172-0.69924-1.1845-2.5218-4.0166-2.9383-4.7311 0.0764 3.4389 2.0098 8.8964 6.4701 17.726 7.5755 14.935 8.5059 20.004 8.209 23.684-13.83-8.0741-33.955-10.851-45.749-8.8559-1.7118 0.26747-1.5093 1.3603 0.19107 1.173"/>
  <path d="m198.67 212.03c0.512 0.30567 1.1042 0.45852 1.5895 0.68778 5.122 5.5534 10.056 9.2739 13.412 10.77-0.0764-0.61899-0.15283-1.8723-0.15283-2.2926-3.3969-1.7538-8.4788-5.54-12.091-9.4493-0.26746-0.30568-0.91703-0.79477-1.6698-1.2113z"/>
  <path d="m174 183.21c-1.9831-2.9651-3.2899-5.3245-3.4924-6.5106-0.64573-3.6261-0.86354-10.757-0.94376-15.771-0.40503-0.19105-1.387-1.1883-1.7806-1.429-0.0272 5.0414-0.11468 13.52 0.59226 17.551 0.19104 1.0393 1.0508 2.7893 2.4263 4.9738z"/>
  <path d="m220.59 210.59c11.121-2.7626 15.744-9.476 14.464-10.784-1.6316-1.685-16.971 2.5218-21.905 2.2238-0.71452-0.0382-6.0658-2.7779-6.9687-3.4083 0.15283-0.3821 0.59225-1.7385 0.71452-1.8608 0.99727 0.68777 5.7555 3.6643 6.2813 3.7598 8.7348-0.30568 20.745-5.0953 23.549-2.1283 2.3728 2.5218-1.7538 10.366-15.96 13.237-1.1578 0.22926-1.6851-0.66103-0.19105-1.0393"/>
  <path d="m220.18 219.34c-0.78331-1.0775-0.11468-1.6583 0.72981-0.63427 10.258 12.36 23.522 14.45 24.115 13.466 1.0393-1.7538-11.929-16.283-21.837-21.662 0.5273-0.26749 1.2953-0.59227 1.8455-0.68779 12.441 7.4811 24.034 21.015 22.214 23.845-2.0748 3.1944-17.941-1.8723-27.067-14.329"/>
  <path d="m212.92 220.73c0.0137-1.387 1.1463-1.3603 1.173 0.0268 0.43176 20.583 10.932 28.24 12.549 27.458 1.0508-0.49672-2.5333-18.898-4.61-27.283 0.38209 0.30567 1.4138 1.3068 2.0213 1.9831 4.8259 20.678 5.5133 27.08 3.8282 27.606-3.5459 1.1196-15.138-7.104-14.962-29.79"/>
  <path d="m203.7 232.62c0.76802-5.3245 1.1578-12.064 0.64575-16.984 0.38209 0.26746 1.1845 0.69923 1.6048 1.0126 0.44323 5.7422 0.34388 13.372-0.66103 18.319-0.3439-0.30568-1.3756-1.8608-1.5895-2.3461"/>
  <path d="m122.23 183.8c-6.3084-1.8723-9.6243-4.3674-10.918-7.4005-1.2953-3.0186 2.1703-15.057 4.8393-16.081 2.7511-1.0508 14.989 5.7422 16.944 9.638 0.68776 1.387 0.7833 3.1408 0.11467 6.5373-0.26747 0.0272-0.82151 0.11467-1.3221 0.0764 0.72981-3.2899 0.53876-4.3808-0.22925-5.8904-1.6965-3.3969-13.143-9.1394-14.625-8.4921-1.5781 0.71452-5.2302 10.918-4.1519 13.453 1.2686 2.923 4.3674 5.2974 9.7997 6.8881-0.11468 0.26747-0.34389 1.0393-0.45852 1.2686"/>
  <path d="m123.38 116.84c-1.2533 2.3308-2.0901 5.3108-2.3996 8.7886-1.0126 11.242 1.6965 24.182 2.8313 26.299 2.6021-0.98583 15.744-9.8131 17.537-22.336 1.4023-9.8941-2.6135-17.267-7.9667-18.252-0.82152-0.15282-1.6163-0.19104-2.3843-0.11467l0.22926-2.2238c0.84826-0.0382 1.6965 0.0137 2.5601 0.19104 6.9018 1.2686 10.905 9.5299 9.301 20.759-2.0366 14.194-18.144 23.966-19.748 23.535-2.3843-0.64574-4.9604-18.103-4.0842-27.929 0.38209-4.1519 1.322-7.4811 2.667-10.029z"/>
  <path d="m107.04 149.42c-0.99728-0.50055-2.6021-1.4711-5.3513-3.1408-3.7598-2.2658-8.4245-5.0953-11.902-6.6993-0.3821-0.19105-0.53876-0.63427-0.3821-1.0126 0.19106-0.3821 0.619-0.55404 1.0126-0.3821 3.5459 1.643 8.2495 4.5023 12.037 6.7937 2.1436 1.2953 4.529 2.7511 5.5133 3.2096 1.066-6.4299-2.1168-27.189-8.9102-36.84-8.3167-11.821-18.157-14.261-24.102-10.231-8.1551 5.5263-2.4951 30.396 13.062 39.468-0.30568 0.41647-0.5273 0.92848-0.76801 1.322-16.621-9.7053-23.832-35.694-13.48-42.717 7.3462-4.9875 17.807-1.6583 26.703 10.972 6.9691 9.894 10.514 31.219 8.8696 38.511-0.34389 1.5781-0.43177 1.7003-2.3193 0.74127"/>
  <path d="m111.96 184.17c3.4771 0.59224 6.9152 0.66102 10.123 0.22924l0.68776-2.197c-3.3013 0.66103-7.0092 0.75654-10.851 0.11467z"/>
  <path d="m88.631 165.91c2.0748 4.0304 5.1087 7.7104 9.0446 10.474 2.1015 1.4673 4.273 2.667 6.4433 3.6108l-1.6163 1.2418c-2.0213-0.92851-3.9899-2.0633-5.8637-3.3701-4.3941-3.0874-7.6565-7.1441-9.813-11.552z"/>
  <path d="m85.71 148.51c0.68778-3.6261 2.3041-6.8071 4.9065-9.045 0.58079-0.51202-0.41649-1.6583-0.99728-1.1463-2.7091 2.3308-4.4885 5.6478-5.3245 9.4355z"/>
  <path d="m140.33 168.37c1.2533-7.2522-1.6316-15.461-7.373-22.093l-1.3221 1.2112c5.3108 6.2408 8.0065 13.87 6.6993 20.57z"/>
  <path d="m137.58 175.32c-0.22926 0.30567-0.43178 0.619-0.66103 0.9285l-2.9383 0.0764c0.75656-0.76801 1.4138-1.5895 1.9678-2.4416z"/>
  <path d="m120.36 138.63c-3.7599-1.8876-7.9396-3.1408-12.374-3.5191-0.53876-0.0382-0.40502-1.5513 0.11468-1.5093 4.4213 0.38211 8.5594 1.5246 12.293 3.2364z"/>
  <path d="m48.959 148.42c-1.28 6.5778 4.7311 15.205 16.337 17.928 10.514 2.4684 26.555-1.28 34.319-5.1625-1.4558-2.6823-15.272-14.504-27-17.766-13.52-3.7598-22.363-1.6163-23.656 5.0009m52.247 13.385c-0.34387 1.1578-20.475 9.9613-36.273 6.2542-14.342-3.3701-19.532-13.291-18.197-20.111 1.5093-7.7237 10.541-10.676 26.245-6.2412 12.401 3.4924 29.008 17.429 28.226 20.098"/>
  <path d="m110.94 178.18c-3.1256 0.45852-16.768 7.6565-24.169 17.55-4.2191 5.6211-4.4751 10.784-3.1676 13.871 0.22926 0.56551 0.22926 0.60753-0.30569 0.94378-1.2265 0.75274-4.4079 0.95525-9.9074 1.238-13.318 0.67247-20.3 2.0098-24.479 4.7988-5.028 3.3548-6.5377 7.4543-6.1468 12.199 0.03828 0.51201-0.03812 0.64574-0.53876 0.7833-1.5513 0.46997-3.0453 0.90175-4.4751 1.3335-14.612 4.3001-23.4 7.0902-31.071 14.41-5.2298 5.0143-5.6883 12.967-2.7511 16.27 3.2746 3.7064 12.927 2.8734 19.289-3.3013 10.878-10.568 15.758-19.639 18.049-24.061 0.66103-1.2533 1.131-2.1703 1.536-2.7244 0.43177-0.58078 0.41649-0.60753 1.0508-0.15284 10.487 7.4005 25.22 1.6316 41.975-18.912 0.41649-0.51202 0.34389-0.48527 0.92849-0.19104 3.6261 1.8876 9.7997 1.0775 14.545-3.3014 8.721-8.0741 10.743-23.94 9.6377-30.747m0.68778-1.28c1.4978 0.5273 3.0186 22.444-8.9369 33.51-4.6234 4.273-11.35 5.4862-16.068 3.4389-18.467 22.443-31.879 26.433-43 19.168-0.26746 0.48526-0.61899 1.1463-1.0126 1.899-2.3308 4.4885-7.1173 13.978-18.157 24.708-7.9396 7.7104-17.86 8.1685-22.012 3.5726-3.8686-4.273-3.3563-13.156 3.0606-19.303 7.9396-7.5755 16.971-10.083 31.812-14.45 1.2533-0.38209 2.5486-0.75272 3.8955-1.1578-0.30568-5.7555 1.6965-10.191 6.5645-13.425 3.7751-2.5218 8.6943-3.7331 25.53-4.5966 3.6376-0.19104 7.1173-0.38209 8.627-0.7833-1.173-3.5306-0.98582-9.2067 3.3013-14.935 8.2629-11.026 24.102-18.44 26.393-17.645"/>
  <path d="m125.88 259.69c-4.772-4.6505-3.7598-14.639 10.11-23.765 0.15285 0.15284 0.45852 1.1195 0.56552 1.4558-12.819 9.0989-12.967 16.917-9.139 20.651 2.6709 2.6021 10.177 1.4023 14.679-7.5892 0.26747 0.46999 0.55405 1.2686 0.7833 1.8073-5.0414 9.5303-13.762 10.595-16.998 7.441"/>
  <path d="m170.91 217.09c-3.2631-7.4005-10.218-15.771-14.531-18.063-0.87501-0.46996-0.50056-1.2533 0.41649-0.86354 5.5943 2.3996 11.498 9.139 15.178 18.548 0.40502 1.0508-0.64574 1.3221-1.066 0.38212"/>
  <path d="m202.1 271.42c-7.4677-6.7937-23.953-18.925-31.974-24.789 0.0764-0.43177 0.38209-1.8455 0.512-2.1971 8.7886 6.349 27.808 20.435 32.418 26.123 0.92848 1.1577 0 1.7385-0.95525 0.86354"/>
  <path d="m153.93 316.73c4.6505-10.353 13.749-19.829 34.265-34.791 5.6749-4.1247 10.649-7.7914 14.113-11.107-0.26747-0.30567-0.89028-1.0126-1.0775-1.2418-3.3816 3.2631-8.3034 6.848-13.951 10.959-22.848 16.661-29.116 23.697-33.564 32.095z"/>
  <path d="m182.84 343.84c-1.131-0.66103-2.5486-1.1998-3.6949-1.4405-4.3402-0.92849-12.967 0.34389-17.86-1.3603-2.6823-0.94379-4.8122-2.6556-6.5373-5.5267-0.26747-1.024-0.38974-5.2164-0.38209-5.7555 2.1283 5.8771 5.3241 8.6671 7.4673 9.3683 4.3001 1.4023 13.48 0.78331 17.537 1.6316 1.6163 0.34388 2.7778 0.68778 3.7216 1.131 1.4558 0.68777 1.4138 0.512 1.387-0.79477-0.11468-4.192-0.15283-13.871 11.296-33.685 7.5617-13.062 14.827-21.689 23.684-29.372 3.1141-2.6976 4.0438-3.7331 4.0976-4.5966 0.26748-3.9092-18.009-39.765-29.035-51.667-0.30567-0.34387-0.59223-0.92849-0.87499-3.4083 0.3821-0.38209 1.387-1.2686 1.536-1.6048 0.19106 0.78328 0.44324 3.8019 0.59226 3.9765 10.905 11.767 30.693 47.273 30.302 52.934-0.0764 1.2686-0.95525 2.4798-5.2436 6.0253-10.433 8.6404-17.483 17.645-23.737 28.469-11.242 19.451-10.743 28.927-10.635 32.984 0.11467 3.5573-0.94379 4.2596-3.6376 2.6976"/>
  <path d="m203.1 363.4c1.792-0.15284 2.7626-0.82152 2.8046-2.0213 0.0764-1.8455-5.2974-5.7017-16.944-5.4457-0.51202-0.0137-0.63429-0.0764-0.72601-0.55405-0.99726-4.7586-3.3281-8.7485-6.6187-12.711 0.46999-0.15285 2.2238 0.22926 2.8314 0.66103 2.3996 3.1829 4.0438 6.942 5.0009 11.242 12.239-0.11467 18.225 3.3281 18.481 6.4296 0.15283 1.9946-0.9285 3.5726-4.1653 4.0036-0.11467-0.30567-0.50054-1.3756-0.66103-1.6048"/>
  <path d="m186.46 368.09c8.4788 2.3843 18.036 2.3308 18.494-2.2926 0.30568-3.2096-6.133-8.2632-19.168-9.4626-1.4443-0.15285-1.4825 0.94377-0.0383 1.1195 11.39 1.429 17.267 5.9443 17.065 8.0875-0.30567 2.8848-9.2605 3.2364-17.389 0.66103z"/>
  <path d="m173.1 359.83c-0.619-0.98201-1.1043-2.0098-1.4978-3.0874 0.0383-0.66103 0.7833-2.5868 0.94378-2.9001 0.67249 2.4951 1.5781 4.7854 3.1561 6.6997z"/>
  <path d="m181.79 355.88c-0.30569-5.702-1.6583-9.2739-3.0453-10.46-0.75655-0.63427-0.44324-1.3335 0.38975-0.81003 2.0366 1.2953 3.855 5.5939 3.6528 11.242-0.0383 1.0775-0.94379 1.0928-0.99726 0.0272"/>
  <path d="m173.2 352.61c-0.26748 2.6288-0.97055 5.1625-1.7806 6.7261-0.30567-0.0383-1.429-0.22927-1.7653-0.26749 1.2533-2.2391 2.0098-4.435 2.5868-6.6859 0.40503-1.5628 1.1043-1.3335 0.95525 0.22926"/>
  <path d="m173.62 348.34c0.26745-2.9116-0.22927-5.8908-0.98582-7.4005-0.46998-0.15283-1.4826-0.0764-1.8723 0.0272 1.2533 2.1015 1.6698 4.354 1.8073 7.3195 0.0764 1.4978 0.90177 1.536 1.0508 0.0382"/>
  <path d="m164.8 367.39c-3.2364-2.3308-3.9089-3.6796-4.1515-8.883-0.19106-4.2868 1.2265-13.844 0.55404-18.588 0.26746 0.15284 1.7653 0.50054 2.1283 0.50054 0.40503 4.529-1.387 13.453-1.1578 18.022 0.22926 4.6639 0.56551 5.5672 3.5306 7.7375 9.5838 7.0092 19.518 7.1036 20.597 4.3941 0.98582-2.4531-6.5644-9.1524-16.445-10.986-1.3756-0.26746-1.2686-1.131 0.11467-0.97053 10.258 1.2533 20.125 8.5326 18.359 12.967-1.5895 3.9631-12.145 4.017-23.522-4.192"/>
  <path d="m155.21 339.72c1.066-0.43176 2.0213-0.95906 2.9536-1.5513 0.19107 0.22925 0.66103 0.61898 0.97054 0.97052-0.86354 0.89029-2.2773 1.7233-3.6108 2.2506-0.0764-0.59225-0.26748-1.3488-0.30569-1.6698"/>
  <path d="m166.97 382.23c-4.7716-0.0764-8.465-1.4138-11.201-3.4389-0.11467-0.38972-0.26748-2.048-0.22926-2.5753 2.5486 2.2926 6.8476 4.6234 11.767 4.6234 0.4165 0 0.26748-0.0382 0.53876 0.30568 4.1248 5.7693 21.459 9.045 22.632 5.5943 0.7298-2.1015-4.0571-8.3305-18.871-9.1256-0.72981-0.0383-0.61901 0.0764-0.6725-0.66103-0.15285-2.7244-1.9831-6.9691-19.141-18.4 0.90175 0.0764 2.1015 0.22925 3.0988 0.40503 14.639 9.9074 16.769 13.021 17.362 17.348 16.014 1.0393 21.298 7.4272 20.044 11.121-1.9831 5.7556-20.516 0.92851-25.315-5.1896"/>
  <path d="m149.02 387.89c-3.8282-2.1818-7.0501-5.3245-9.6785-10.002 0.19104-0.76802 0.34389-2.4149 0.30568-2.9651 2.8161 5.7151 6.1197 9.6648 10.42 11.997 0.45852 0.22927 0.3821 0.19107 0.30567 0.64576-1.7806 14.895 17.133 19.276 19.343 17.308 3.3854-3.0071-4.7044-15.987-14.342-18.899-0.59224-0.19105-0.55404-0.19105-0.4738-0.75273 1.0775-7.3195-1.685-16.162-6.2408-21.042-0.92849-0.99728 0.0137-1.5895 0.94379-0.60754 5.6478 6.0521 7.8448 13.169 6.6993 21.257 10.945 3.7599 19.626 17.389 14.801 21.581-4.0846 3.5459-23.59-2.3843-22.12-18.521"/>
  <path d="m140.25 376.08c-0.22926 6.9148-2.2391 11.013-7.1445 14.032 3.9631 13.062-15.34 17.807-19.923 13.776-2.5486-2.2391-0.30568-10.272 10.959-15.528-2.5486-8.5999-1.3068-18.481 2.8428-24.492 0.66103-0.38209 2.4378-0.71452 3.1523-1.1998-5.1629 3.7866-7.023 17.079-4.61 25.827 0.11468 0.5273 0.30567 0.53876-0.26746 0.79477-8.627 3.7751-12.536 11.336-10.662 12.981 3.9899 3.5038 21.109-1.1998 17.2-12.226-0.19104-0.59225-0.30568-0.5655 0.30567-0.86354 3.1523-1.5246 5.9982-6.3489 7.0631-13.291 0.22926-1.4978 1.1463-1.3756 1.0928 0.19105"/>
  <path d="m140.15 372.67c0.0764-1.5246-0.26745-3.1676-0.69923-4.691-0.4165-1.4023-1.429-1.1196-1.1043 0.30568 0.30567 1.3756 0.67249 2.7626 0.90174 4.2325 0.19104 1.173 0.8368 1.2686 0.90174 0.15284"/>
  <path d="m111.59 369.28c0.22926-2.6671 4.61-2.5066 7.441-4.9604 0.19104 0.38973 0.72598 0.94378 1.0775 1.066-2.6403 2.3576-6.3489 2.8696-6.4571 4.111-0.26748 2.9116 5.6482 6.2141 10.918 1.6316-0.0764 0.55404-0.19104 1.387-0.26748 2.1168-6.5778 4.4079-13.062-0.0764-12.711-3.9627"/>
  <path d="m173.78 165.39c-18.683-11.808-22.147-35.155-19.801-37.109 0.75656-0.63428 2.3308-0.48527 3.5841-0.22925 0.26748 0.61899 0.38211 1.173 0.44324 1.6583-1.5628-0.40502-2.8046-0.44322-3.0721-0.26745-1.2953 0.91702 1.7806 21.23 16.971 32.081 0.41649 1.0393 1.4138 3.1141 1.8723 3.8687"/>
  <path d="m159.18 178.53c-2.9804-8.8291-25.248-10.487-25.8-9.382-0.34388 0.6725 2.3728 3.8554 6.4433 6.9286-0.55405 0.0764-1.9678 0.19104-2.6938 0.19104-3.3434-2.7358-5.4457-6.5644-5.0147-7.7508 0.95906-2.5868 26.757-0.86354 29.184 10.353-0.40502 0-1.7118-0.19105-2.1168-0.34389"/>
  <path d="m156.16 360.82c1.1043-0.0383 2.2124-0.15284 2.4531-0.52729 0.3439-0.5273-0.26746-1.9678-0.56549-2.6823-6.4028-15.569-6.5239-65.214-1.4978-73.45 1.536-2.5218 2.923-5.8098 4.0437-8.4249 5.9718-13.965 12.415-41.867 11.66-51.667-0.11467-1.7653 0.84825-1.8341 1.0508-0.0764 1.1998 9.9208-4.7178 38.403-10.932 52.53-1.1196 2.5486-3.1944 6.6187-4.5023 8.6541-4.3001 6.6993-4.5156 55.118 2.155 71.361 1.1196 2.7358 1.2151 4.0842 0.64574 4.9604-0.38209 0.55403-1.024 0.89028-1.8341 1.0661-0.59226-0.3439-2.3193-1.494-2.6823-1.7233"/>
  <path d="m119.05 366.12c-3.9899-2.1818-6.4429-25.382 1.8455-49.322 4.8798-14.099 12.064-24.196 17.079-31.623 3.5191-5.203 6.1873-9.1795 6.9286-12.55 1.024-4.691-0.74128-15.461-4.8122-24.29-9.0447-19.573-9.4222-24.573-6.8208-41.221 0.26747-1.643 1.28-1.6048 1.131 0.0383-1.4138 15.515-0.44325 22.781 7.5892 40.169 4.3403 9.3817 5.8366 20.718 4.7583 25.625-0.79477 3.6528-3.6681 7.872-7.279 13.21-4.9741 7.3466-11.606 17.551-16.432 31.462-9.1795 26.501-4.2864 45.736-2.8046 46.41 2.8046 0.768 7.0635-1.4405 14.302-3.7751 10.716-3.4389 17.254-3.2899 22.713-0.81005 0.982 0.44325 0.69925 1.1043-0.30567 0.74128-4.691-1.6698-11.134-1.7271-21.837 1.6965-5.0143 1.6163-13.466 5.6344-16.054 4.2191"/>
 </g>
 <path d="m161.9 97.495c-0.19104-0.01371-0.38975-0.03826-0.5808-0.07642 2.7358 4.6368 10.986 11.525 12.199 11.525 1.2953 0 1.7653-1.2265 5.0143-2.9498 5.2974-2.8046 10.244-3.8283 9.6648-4.5966-1.2418-1.643-6.605-0.95907-12.832-1.1845-2.7893-0.11467-4.5022-0.58079-9.6109-2.8695-1.3068 0.22926-2.5333 0.30567-3.8554 0.19104" fill="#d69f4b"/>
 <path d="m177.7 93.5c-1.4825 0.50054-2.7893 0.97053-3.9898 1.387 3.6949 0.11468 6.1736 2.2391 6.9824 4.8259 2.6288-1.8723 6.1197-3.9631 12.145-6.5916-3.0186-1.4443-7.7375-2.1436-15.138 0.3821" fill="#d69f4b"/>
 <path d="m165.76 97.318c5.109 2.2926 6.8208 2.7626 9.6247 2.8696 1.9258 0.0764 3.7751 0.0383 5.4457 0.0383-0.61901-2.8313-3.1829-5.2435-7.1173-5.3513-3.3816 1.1998-5.7827 2.0366-7.953 2.4263z" fill="#ef869a"/>
 <path d="m172.03 82.909c0.0137-0.11468 0.0272-0.26748 0.0382-0.43177-1.9678-1.0661-3.9226-1.9143-5.8908-2.6021-4.5829 0.03827-8.5189 0.64575-12.132 1.5895-0.30569 6.3489 3.7751 9.7324 10.15 9.3549 1.3068-0.4165 2.6709-0.98199 4.017-1.7806 2.8428-1.6698 3.5191-3.3548 3.8133-6.133" fill="#EAF6FD"/>
 <path d="m159.76 80.33c-2.0098 0.26746-3.8955 0.66102-5.7154 1.131-0.30568 6.0524 3.3968 9.3954 9.2605 9.3817 1.3603-2.9918-0.19104-8.384-3.5459-10.514" fill="#91D2DC"/>
 <path d="m160.65 88.408c-1.0661-0.11468-1.8341 0.50054-1.9411 1.5628 0.89029 0.38974 1.899 0.64575 3.0071 0.7833 0.43177-0.90174 0.0137-2.2238-1.066-2.3461" fill="#bfeae9"/>
 <path d="m198.14 97.309c1.7271-0.15285 3.7866-6.3084 1.9563-9.0989-1.7653-2.6976-6.6993-5.3918-12.455-6.7937-3.1409-0.75274-4.3808-1.899-5.7559-5.4724-1.5781-4.098-4.0032-8.2766-6.2274-7.616-2.2238 0.64575-3.3434 11.983-3.6261 14.585-0.30569 2.7626-0.97053 4.4618-3.8019 6.1334-6.3218 3.7064-12.913 2.6823-13.197 3.2478-0.26746 0.55405 2.8848 4.8259 6.8747 5.2034 4.2997 0.38974 7.6294-1.2113 15.798-4.0036 15.785-5.3784 19.316 3.9092 20.435 3.8133" fill="#F8B757"/>
 <g fill="#0f141b">
  <path d="m173.45 109.86c-2.2659-0.11467-10.474-7.7508-12.968-12.644 0.5808 0.30568 1.3488 0.30568 1.6698 0.38211 2.8428 4.3674 10.487 10.312 11.458 10.393 0.86354 0.0764 2.0901-2.2124 11.458-5.5805 2.7511-0.99728 2.3843-1.3221 0-1.4825-2.5486-0.15285-7.2251 0.19104-9.7324 0.0382-3.1408-0.19104-4.6639-0.72598-10.797-3.5306 0.60754 0.07642 1.5246-0.26747 1.9678-0.40503 4.4212 1.9563 6.3218 2.2123 8.8964 2.4263 2.4416 0.19104 7.0363-0.07642 9.7997 0.15285 2.7244 0.22924 3.6376 1.1043 3.7751 1.7385 0.19105 0.79475-0.0382 1.1998-3.4771 2.4378-9.5437 3.4771-10.042 6.214-12.051 6.1063"/>
  <path d="m180.19 100.21c-0.72981-2.8848-3.9899-5.0414-7.8047-4.5561 0.75656-0.19104 1.7118-1.0661 2.5868-1.3221 3.8554 0.64575 5.796 2.8581 6.4433 5.7151-0.34389 0.15282-0.81005 0.15282-1.2265 0.15282"/>
  <path d="m178.83 100.09c3.2211-2.3728 7.441-4.8121 13.385-7.4272 0.44325 0.15284 0.8903 0.512 1.3488 0.74126-5.5267 2.3575-8.9774 4.4618-12.145 6.8071-0.53877-0.11468-1.8876-0.0137-2.5868-0.11468"/>
  <path d="m162.32 91.296c1.9831-2.5753 0.19105-9.2605-3.8821-10.797 0.40503-0.15284 1.6583-0.40502 2.304-0.41649 3.1944 2.3193 4.529 7.6561 3.1408 10.932-0.56551 0.26746-1.0775 0.26746-1.5628 0.26746"/>
  <path d="m158.11 83.353c-1.2686 0.26748-0.15283 4.8121 1.0508 4.5023 1.1998-0.30568 0-4.7315-1.0508-4.5023"/>
  <path d="m162.2 91.515c-6.5511-0.48526-9.301-4.4751-9.0851-9.8402 0.19106-0.0764 1.4673-0.40502 1.7653-0.50055-0.44325 5.9982 3.3166 9.7997 9.7186 9.1524-0.45851 0.43178-1.0928 0.90176-2.3996 1.1845"/>
  <path d="m156.7 93.568c1.0393 1.2533 2.8695 2.8161 5.284 3.0339 3.7751 0.34389 7.198-0.84824 15.515-3.6796 10.393-3.5459 15.933-1.7386 19.91 2.8848 0.68778 0.81005 1.1196 0.66101 1.6965-0.34389 1.1196-1.9564 1.2151-5.2435 0.22926-6.767-1.6583-2.5333-6.2951-5.284-11.795-6.6317-3.6796-0.89028-4.6372-1.7118-6.3627-5.8369-1.7806-4.273-3.5726-6.942-4.9199-7.0363-0.90174-0.0764-2.1283 2.6976-3.4236 13.466-0.48527 4.0437-1.173 5.0548-4.2864 7.0092-2.4378 1.5246-6.686 2.9804-11.579 3.2211-0.59226 0.02676-0.63428 0.22926-0.26747 0.68776m5.0953 4.8527c-3.6108-0.34389-6.4972-3.5038-7.3057-4.9604-1.1043-1.9946-0.0764-2.1703 2.1436-2.2773 5.6883-0.30568 8.4111-1.1998 11.215-2.6823 2.5601-1.3488 3.1408-2.3728 3.4656-5.9982 1.131-13.075 2.7626-15.084 4.6773-15.165 2.1971-0.07639 4.5294 2.7358 6.5916 8.3305 1.3068 3.5191 2.1971 4.3941 5.203 5.0953 5.9714 1.3756 11.134 4.0304 13.022 6.9015 1.2953 1.9831 0.98198 6.0391-0.58079 8.3978-1.6851 2.56-2.3194 2.4149-3.5038 0.90175-3.5841-4.5156-10.218-5.9852-18.71-2.8581-10.312 3.8019-13.358 4.5695-16.216 4.3135"/>
  <path d="m174.55 121.24c-2.6823-7.1712-2.1856-11.309-1.4023-12.711 0.26748 0.15284 0.94379 0.30567 1.4558 0.38974-0.72599 1.387-1.28 5.9309 2.6288 13.439-0.69924-0.41649-1.9946-0.76803-2.6823-1.1196"/>
 </g>
 <path d="m245.05 166.6c-11.377 13.48-7.9931 28.644-5.1086 29.129 2.9918 0.50054 13.372-11.148 16.593-22.861 1.5895-5.7693 2.3576-9.557 2.3576-9.557z" fill="#3252A3"/>
 <path d="m281.2 157.67-24.776 6.2679c-4.529 25.84 11.458 44.644 16.162 43.701 4.8664-0.97054 6.3623-16.27 4.8526-27.148 6.6993 11.134 15.043 15.879 17.47 14.598 5.0552-2.6403-0.52729-28.698-13.709-37.419" fill="#3252A3"/>
 <path d="m241.35 171.88c-6.7941 11.876-3.9092 23.428-1.4023 23.845 2.7626 0.4738 11.862-9.476 15.758-20.246-10.42 9.7592-15.919 5.9176-14.356-3.5994" fill="#91D2DC"/>
 <path d="m287.77 164.11c2.5066 6.2007 1.9946 11.808-0.94377 13.439-2.5333 1.4138-7.5621 0.15285-12.657-4.4889 1.0393 7.9125-2.6021 14.558-7.117 15.34-3.7598 0.63428-9.0179-4.3808-11.296-11.7 1.3603 19.006 12.927 31.718 16.823 30.936 4.866-0.97053 6.3757-16.27 4.8526-27.148 6.6993 11.134 15.043 15.879 17.483 14.598 4.0976-2.1436 1.173-19.774-7.1441-30.976" fill="#91D2DC"/>
 <path d="m349.77 148.95c-0.81003-2.6136-9.3683-1.9946-27.471-4.9203 17.766-9.8131 22.107-27.525 18.534-27.714-3.9226-0.22924-6.0524 5.9447-19.667 16.054-8.6809 6.4433-14.841 8.7481-29.547 10.312-23.131 2.4416-39.886 7.5216-65.322 17.47-4.6639 0.40502-6.5782 0-10.285-1.8455-18.912-9.4627-29.035-20.017-33.065-16.688-3.7216 3.072 19.572 30.086 32.971 33.173 4.9741 1.1463 16.472 0.30567 27.741-3.936 6.2274-2.3576 27.862-8.8291 38.916-9.4627 16.593-0.95908 21.904-2.9804 29.884-7.6565 29.655 5.6348 38.188-1.9258 37.311-4.785" fill="#3252A3"/>
 <path d="m300.62 141.42c4.3807-5.4594 2.4378-13.345 0.0764-13.345-3.2096 0-5.1086 7.198-16.054 15.447 2.2658-0.30567 4.5833-0.59225 6.9691-0.84826 3.4236-0.38209 6.3623-0.76801 9.0041-1.2533" fill="#3252A3"/>
 <path d="m199.04 89.964c-0.51201-2.1436-3.3854-4.2325-3.5038-3.1676-0.0764 0.60753 3.5726 3.4503 3.5038 3.1676" fill="#fde2c0"/>
 <g fill="#0f141b">
  <path d="m180.27 84.243c0.75655-0.38211 2.1168-0.4738 2.7091-0.26748 0.81005 0.30568 0.5808 1.1043-0.30567 0.97054-0.30568-0.03826-1.8876-0.07642-2.2506-0.03826-0.7833 0.03826-1.0928-0.22926-0.15284-0.67249"/>
  <path d="m239.71 196.91c-4.1786-0.69923-6.3084-17.618 4.098-29.521 1.387-1.5628 2.0213-1.1998 0.76802 0.44323-9.9212 13.075-6.2817 26.393-4.3808 26.716 1.2953 0.22926 10.999-7.791 15.191-20.516 0.0383 0.71452 0.26748 2.4263 0.3057 3.4771-4.1653 10.406-12.725 19.923-15.973 19.397"/>
  <path d="m256.28 169.68c0.22927-1.7538 0.55405-3.8283 0.76803-5.3246 0.15285-0.9285-0.81005-1.2418-1.0661-0.30568-0.38973 1.4443-0.49671 4.1114-0.43176 5.4999 0.0764 1.7653 0.49673 1.9411 0.72599 0.15284"/>
  <path d="m273.86 171.92c8.209 18.629 18.939 22.848 20.435 22.08 3.5306-1.8455 0.86352-25.22-13.345-35.842-1.429-1.0775-0.90175-1.8073 0.60753-0.84825 13.385 8.384 20.152 35.667 13.898 38.929-3.8688 2.0213-16.189-6.6321-22.444-24.007-0.55405-1.5513 0.19104-1.8341 0.84825-0.30568"/>
  <path d="m271.85 167.13c-0.30567-1.6698-0.60753-3.3434-1.024-5.2707-0.26748-1.2265-1.429-0.99728-1.2151 0.22926 0.30568 1.7538 0.84825 3.8133 1.5781 5.4457 0.61901 1.4023 0.90176 0.86354 0.66103-0.41648"/>
  <path d="m254.97 174.82c0.0268 18.265 12.28 35.222 17.793 34.211 4.9738-0.90177 7.1036-15.461 5.6745-26.986-0.63428-1.2686-1.4825-2.6021-2.0633-3.3548 2.3041 12.563-0.34387 27.134-4.0304 27.552-3.3548 0.38974-14.895-11.444-16.324-31.421-0.19107-2.6021-1.0508-2.5868-1.0508 0"/>
  <path d="m222.27 160.9c29.952-12.887 47.394-17.052 69.272-18.966 13.345-1.1731 20.071-3.5994 29.103-10.298 6.5644-4.8798 10.298-8.883 13.075-11.714 8.371-8.546 10.946-5.6883 8.6404 2.2658-2.3575 8.1685-8.8559 16.283-18.871 22.066-1.066-0.0272-1.9258-0.22927-2.2773-0.47381 10.595-5.5939 17.011-14.895 19.101-21.648 1.9678-6.3489-0.95524-5.0685-5.1897-0.75656-2.6556 2.6976-6.8342 6.8208-13.507 11.768-8.3301 6.1869-13.655 8.1146-29.924 10.298-21.419 2.8581-35.451 6.5644-69.07 18.696-1.792 0.63428-2.3843-0.38209-0.34389-1.238"/>
  <path d="m240.87 172.86c-10.177 3.3434-19.99 4.2459-24.964 3.0988-14.032-3.2364-38.862-31.839-33.834-35.424 2.0901-1.4978 5.5133-0.61901 15.663 5.9175 20.085 12.954 22.187 13.695 30.963 12.698-1.5513 0.64574-3.3166 1.4558-4.6639 1.899-5.0819 0.11468-8.0879-0.63428-27.229-12.981-6.5916-4.2596-10.878-6.8747-12.671-5.5534-2.5333 1.8876 18.319 27.943 32.284 31.165 4.9065 1.1196 15.245 0.38211 25.692-3.3281z"/>
  <path d="m286.09 162.14c14.261-1.0928 19.222-3.4503 26.447-7.6836 12.104 2.2773 20.732 2.6289 26.69 1.7386 9.5433-1.4291 12.428-5.3784 11.754-7.5888-0.5655-1.792-2.1971-2.1818-11.916-3.2478-4.7716-0.51202-11.458-1.024-19.72-2.6823-3.7484-0.75655-5.4995-0.5655-9.5704 1.2533-1.387 0.61899-1.1195 1.3068 0.34389 0.91702 3.6414-1.0126 5.8365-1.131 9.058-0.52729 8.3305 1.5895 14.841 2.2506 19.626 2.7778 5.7288 0.61901 9.4627 1.024 9.6648 2.2124 0.22925 1.2953-2.0633 3.7598-9.3549 4.9742-5.6749 0.95523-14.14 1.131-26.218-1.1578-0.22926-0.0382-0.64575-0.0382-1.173 0.26747-7.1578 4.1652-12.28 5.9309-27.094 6.9152z"/>
  <path d="m283.04 143.76c11.336-8.0745 13.655-16.823 17.793-16.944 2.8314-0.0764 5.2569 7.9664 0.95524 14.302-0.7833 0.26747-1.5895 0.30567-2.3461 0.50054 4.0976-4.3135 2.9804-12.334 1.2151-12.213-2.4149 0.15282-6.3356 7.953-14.652 14.032-0.8368 0.0764-1.9411 0.26745-2.9651 0.30567"/>
  <path d="m93.103 75.933c-3.7331 2.1703-7.4811 3.7331-11.242 4.6906-5.2703 1.3603-10.406 1.536-15.542 0.30568-2.1283-0.49672-2.6823 0.03827-0.89029 2.6556 4.4484 6.4429 17.079 12.617 32.432 12.293 20.732-0.43178 31.866-5.2569 41.719-9.6919 11.067-4.9875 15.623-6.4028 24.87-6.8476 1.1845 0.19106 3.2096 1.0393 3.7484 1.3488-8.9774-0.15285-14.073 0.60754-27.984 6.8747-9.9884 4.5019-21.379 9.813-42.42 10.244-12.819 0.22926-27.687-4.7583-33.605-13.359-3.2631-4.7311-1.6048-5.9577 2.4798-4.9871 4.9065 1.173 9.8941 1.2265 14.949-0.0764 3.7484-0.95524 7.3867-2.4951 10.972-4.6234z"/>
  <path d="m104.57 85.238c-0.0764-0.49672 0.26748-1.685 1.6851-2.4149 0.5655 0.15285 1.9143 0.67249 2.5333 0.5273-1.7921 0.53876-2.2659 1.238-2.1971 1.7118 0.15284 1.1043 7.0363 5.3112 25.517-2.6938 16.391-7.0902 28.455-6.6993 40.115-0.50055-0.0137 0.41648-0.11467 0.75655-0.15284 1.2953-11.35-6.1736-22.781-6.3084-39.28 0.8368-19.936 8.6404-27.835 4.098-28.213 1.2418"/>
  <path d="m193.25 70.723c-1.6851 4.1652-4.9875 7.3462-9.7458 8.4787 0.22927 0.58079 0.67249 0.89029 1.2265 1.0393 5.0009-1.5093 8.6404-5.1763 10.393-9.9345z"/>
  <path d="m186.56 81.097c0.19106-0.82152 0.15284-1.9296 0.11468-2.4149 0.22925-0.0764 0.81005-0.26746 1.2265-0.44322 0.0268 1.0393-0.11467 1.9296-0.38974 3.1561-0.40502-0.0764-0.59225-0.19104-0.95906-0.30568"/>
 </g>
</svg>
