<?xml version="1.0" encoding="UTF-8"?>
<!-- Created with Inkscape (http://www.inkscape.org/) -->
<svg version="1.1" viewBox="0 0 254.96 226.71" xmlns="http://www.w3.org/2000/svg">
 <g transform="translate(6.5774 -40.409)">
  <path d="m244.78 68.092c-6.1832-6.6594-33.891 2.035-50.108 18.01-22.127 21.802-22.446 43.313-18.597 47.458 2.3295 2.5059 7.2769 3.0718 13.71 1.5759-9.3525 7.3295-19.339 22.021-15.917 27.121 2.5735 3.8349 18.634-1.6168 29.672-9.0252 10.277-6.8974 19.318-16.911 15.647-22.384-1.9354-2.8832-6.553-4.8232-14.184-2.7678 5.7375-3.0454 11.669-6.7196 17.313-11.612 22.347-19.378 27.612-42.835 22.466-48.377" fill="#ffeabe"/>
  <path d="m175.11 163.16c4.6534 1.7607 18.551-3.2973 28.431-9.9288 9.3601-6.2823 17.695-15.147 16.329-20.816-10.335 12.18-30.456 26.316-44.76 30.745" fill="#dacaa5"/>
  <path d="m222.32 116.47c13.52-11.723 20.779-24.931 23.272-34.77-15.994 27.065-40.533 41.601-44.771 44.822-4.8374 3.6765-2.0467 4.2592 7.2314 0.92709-0.95719 0.14153-1.9661 0.34198-3.0441 0.63337 5.7396-3.0477 11.669-6.7195 17.313-11.612" fill="#dacaa5"/>
  <path d="m188.82 137.31c-9.1686 7.9179-16.62 20.56-14.07 24.36 1.5975 2.3836 15.49-0.78706 28.198-9.3147 9.825-6.5923 18.546-16.164 15.357-20.911-1.8937-2.8219-6.1-3.7958-11.424-2.7147-3.284 0.66603-3.9812-0.69896-1.0673-2.287 6.2191-3.396 11.27-6.8392 15.804-10.773 22.107-19.167 26.847-42.046 22.387-46.851-5.8376-6.2868-33.038 2.725-48.585 18.042-22.019 21.697-21.692 42.613-18.566 45.978 1.7735 1.9111 5.4851 2.5138 10.364 1.7264 4.2818-0.69028 4.721 0.0496 1.6021 2.7442m-16.445 26.096c-2.4486-3.6462 1.4341-15.005 13.794-26.55-4.9799 0.56912-8.9278 0.23736-11.029-2.0246-4.4348-4.7765-3.9115-27.956 18.164-49.707 17.268-17.015 45.591-26.259 52.969-18.31 5.7254 6.1625 0.32968 30.574-22.976 50.932-3.6989 3.2295-8.0186 6.0068-12.744 8.4416 5.2569-0.0837 8.2834 1.1198 9.9943 3.663 3.6002 5.3652-2.2674 15.436-16.142 24.749-12.186 8.1761-29.644 12.363-32.03 8.8062" fill="#0f141b"/>
  <path d="m65.776 229.79-3.7606 6.0769c1.2182 0.34254 4.588 0.46687 6.0153 0.31749 0.07057 0.43697 0.28671 0.79942 0.69323 1.008 2.6623 1.3481 18.274 0.24598 26.183-4.5124z" fill="#ce7228"/>
  <path d="m213.93 223.31c15.238-12.522 18.152-31.675 13.153-52.244-11.162-45.943-43.619-76.209-107.6-75.049-15.284 0.27852-36.493 2.5106-55.28 10.491l0.08717 0.0887c-15.898 4.8058-28.14 15.479-38.886 35.934-1.1734 2.2368-2.2101 4.5038-3.173 6.7801-3.5303 6.3878-7.1608 13.507-11.032 21.472-10.379 21.358-14.615 38.76-13.946 52.036 17.478 11.031 47.131 13.669 67.962 9.1935 0.03019-0.12268 0.07678-0.24046 0.10895-0.36575 0.29029 0.0536 0.59052 0.0901 0.8808 0.14383 7.6925 1.2879 16.156 1.853 25.396 1.6259 12.908-0.31423 24.216-1.7527 33.947-4.5968l1.3225-0.3976c20.873 6.7675 56.339 5.8059 72.627-7.8046-0.10335 2.9953-3.3629 14.996-3.3629 14.996 3.9409 2.8102 14.132 3.9456 14.749 3.3758 0.10186-0.0938 0.18869-0.19877 0.26102-0.31229 2.2574 0.092 3.9451-0.1447 5.0396-0.95616 0.34777-0.26126 0.50852-0.78994 0.50519-1.485 2.6982-2.7163 1.1111-9.1924-2.7592-12.927" fill="#ed8322"/>
  <path d="m199.38 215.19c0.95368 5.2157-0.95975 16.868-2.5175 20.874 4.3343 2.4749 13.446 3.4609 14.03 2.9252 0.10185-0.0938 0.18705-0.20073 0.25446-0.3192 2.2598 0.094 3.9476-0.14263 5.0397-0.95605 0.34778-0.26128 0.50853-0.78997 0.50521-1.4851 2.6982-2.7163 1.1111-9.1923-2.7592-12.926 8.1358-6.6871 12.756-15.261 14.537-24.933-7.5227 12.553-25.617 17.795-29.092 16.817" fill="#ce7228"/>
  <path d="m65.251 232.01c-20.831 4.4758-50.517 1.8402-67.996-9.1948 0.63103 12.557 5.6599 21.415 14.097 26.375-2.3649 1.35-4.5693 4.3454-4.0073 4.8197 0.95265 0.8087 7.8198 0.0172 8.9143-0.42421-2.4618 2.5846-1.9894 4.9619-1.7426 5.1275 1.7631 1.1959 7.4225-1.6581 11.436-3.4962 1.1302 0.9416 5.7342 5.363 7.3886 5.01 0.79551-0.16807 2.1057-3.5766 2.3056-6.5318 16.911-1.2874 26.36-9.7601 29.604-21.685" fill="#ffeabe"/>
  <path d="m126.87 228.42-1.3251 0.39557c3.2289 14.649 11.462 24.583 23.946 28.108-1.0147 1.9833-1.9976 6.0942-0.347 6.8138 1.5744 0.69008 9.2779-2.6102 10.411-2.9498 1.8763 0.36901 8.2322 5.609 10.5 4.9322 1.9335-0.57727 1.5176-3.6582 0.81383-5.6688 3.0646 1.5834 9.7009 2.2307 10.393 1.3488 0.66555-0.84941 0.0252-3.3743-3.1139-6.3553 16.772-6.884 21.155-22.032 21.35-34.429-16.29 13.609-51.754 14.572-72.627 7.8046" fill="#ffeabe"/>
  <path d="m-1.2048 232.43c2.1674 7.5638 6.469 13.184 12.557 16.764-2.3649 1.35-4.5692 4.3454-4.0073 4.8197 0.95264 0.80866 7.8198 0.0172 8.9143-0.42432-2.4618 2.5847-1.9894 4.962-1.7425 5.1276 1.763 1.1958 7.4224-1.6581 11.436-3.4962 1.1302 0.94248 5.7343 5.363 7.3887 5.01 0.79551-0.16806 2.1057-3.5766 2.3056-6.5318 14.914-1.1363 24.018-7.8625 28.186-17.615-11.314 11.883-50.038 9.9889-65.037-3.6536" fill="#dacaa5"/>
  <path d="m127.03 234.18c3.9196 11.708 11.576 19.667 22.465 22.742-1.0127 1.9811-1.9955 6.092-0.34452 6.8161 1.5721 0.68807 9.2777-2.6147 10.41-2.9542 1.8787 0.37101 8.2322 5.6134 10.498 4.9343 1.938-0.57774 1.5198-3.6558 0.81541-5.6665 3.0625 1.5812 9.7009 2.2307 10.395 1.3472 0.66555-0.8495 0.0223-3.3721-3.1184-6.3552 12.929-5.3063 18.49-15.521 20.453-25.598-14.285 17.268-57.026 17.299-71.574 4.7349" fill="#dacaa5"/>
  <path d="m51.454 193.79c-0.81707 11.565-7.6456 18.858-18.001 18.127-9.1923-0.65009-16.036-9.8134-15.281-20.472 0.7501-10.659 8.8384-19.014 18.028-18.366 9.1901 0.64718 16.004 10.053 15.254 20.711" fill="#fcd24d"/>
  <path d="m130.15 192.57c0.87184 11.555 8.093 18.472 18.403 17.241 9.1497-1.0963 15.464-10.658 14.194-21.266-1.2678-10.61-9.68-18.487-18.828-17.393-9.1476 1.0939-14.572 10.763-13.769 21.418" fill="#fcd24d"/>
  <path d="m90.222 177.75c-19.028 0.46316-30.781 10.144-30.544 19.789 0.25078 10.394 13.095 18.725 31.471 18.28 19.943-0.48773 30.796-9.4381 30.544-19.79-0.25378-10.514-14.345-18.697-31.471-18.28" fill="#ffeabe"/>
  <path d="m163.93 43.767c-14.387-2.5957-40.655 36.96-38.079 81.465l27.906 20.706c9.835-4.2505 23.908-16.56 29.497-35.779 5.9629-20.517-6.0882-64.005-19.325-66.392" fill="#ed8322"/>
  <path d="m156.69 79.553c-6.6644-1.801-15.371 9.6464-19.621 25.364-1.1427 4.2328-2.2509 11.065-2.5476 16.639 0.3307-1.2648 0.75782-2.5544 1.3146-3.8559 4.2422-9.9081 13.104-13.732 17.568-11.821 5.7108 2.446 4.4958 12.771 2.2409 18.916 2.4433-4.5385 4.6495-10.116 5.506-13.29 3.3344-12.331 2.4586-30.081-4.4613-31.951" fill="#009683"/>
  <path d="m156.69 79.553c-4.0578-1.0979-8.876 2.7274-12.98 9.4345 1.6517 1.4545 3.1387 3.54 4.3635 6.1521 1.3352 2.8475 2.3588 6.3208 2.9446 10.285 0.87634 0.0177 1.6908 0.15697 2.3865 0.45449 5.7108 2.446 4.4958 12.771 2.2409 18.916 2.4433-4.5385 4.6495-10.116 5.506-13.29 3.3344-12.331 2.4586-30.081-4.4613-31.951" fill="#008273"/>
  <path d="m26.668 212.13-0.09785 0.12907c12.961 14.403 34.964 21.889 65.033 21.158 26.671-0.64922 48.836-6.274 62.169-21.268-21.5 20.59-105.23 20.413-127.1-0.019" fill="#ce7228"/>
  <g fill="#0f141b">
   <path d="m157.99 143.75c11.39 19.259 12.039 45.021 5.0769 58.068-11.602 21.751-33.274 32.221-71.566 33.153-34.887 0.85147-60.007-9.4739-71.987-29.521-8.9807-15.028-7.0839-41.645 4.5357-63.766 14.803-28.182 33.154-38.997 64.369-39.438 0.58643-9e-3 0.64334 2.0924 0.02957 2.1207-30.306 0.44581-47.727 11.276-62.107 38.657-11.113 21.159-13.022 46.821-4.5357 61.021 11.566 19.348 35.69 29.138 69.769 28.309 36.399-0.88608 57.632-10.657 68.848-31.683 6.7238-12.605 6.5526-36.11-4.4995-55.861z"/>
   <path d="m66.809 232.43c-4.991 19.067-24.137 23.212-35.062 22.13-2.5017-0.24811-2.5107-1.4294-0.0353-1.452 17.433-0.1682 28.881-7.9252 32.528-21.42z"/>
   <path d="m20.564 154.61c-2.5889 4.8742-5.359 10.359-8.4084 16.635-20.034 41.234-17.369 68.872 1.4102 78.253 2.4337 1.2179 1.8348 2.3309-0.6931 1.3673-20.952-8.0001-24.322-36.867-2.9382-80.883 6.0521-12.457 11.334-21.492 15.952-29.15z"/>
   <path d="m183.18 110.58c21.648 12.144 36 32.431 42.877 60.736 7.1546 29.448-3.0139 50.027-27.429 59.521l-1.1422 3.2233c30.045-10.514 38.413-34.341 31.283-63.691-7.1196-29.293-22.205-50.153-44.697-62.548z"/>
   <path d="m176.06 254.99c9.4775-3.3772 16.303-10.233 19.74-19.373 4.8028-12.785 5.469-36.594-18.234-77.948-1.1822-2.0615 0.11574-2.8573 1.5062-0.65782 20.905 33.051 26.305 60.763 19.169 79.657-3.6595 9.6844-10.753 17.177-21.522 19.759-2.6518 0.63761-3.1553-0.54675-0.65882-1.4367"/>
   <path d="m126.47 228.07c3.4009 16.131 12.895 26.601 26.876 28.997 2.0924 0.36109 1.9903 1.5602-0.10089 1.389-16.079-1.3356-25.647-12.586-29.366-29.593z"/>
   <path d="m13.036 249.62c-2.1083 0.4455-4.5156 3.6132-4.4633 3.676 0.1105 0.13049 4.5397-0.16173 6.2684-0.4556 2.5409-0.43888 3.1152 0.0865 1.5321 2.2559-0.9599 1.3134-1.1455 2.7376-0.99151 2.8408 0.68374 0.45124 4.9958-1.2893 10.13-3.6872 0.36787-0.17151 0.80645-0.1115 1.12 0.14786 0.83401 0.69551 4.8477 4.494 6.3601 4.7743 0.49006-0.65175 1.4969-3.2251 1.6125-5.7996l2.201-0.0308c-0.10991 2.4405-1.2823 7.8328-3.1223 8.2252-2.23 0.47734-6.8936-3.9859-7.9079-5.0999-4.0037 1.8601-9.8353 4.7897-12.115 3.2498-0.74307-0.5033-0.57662-2.2679 0.04395-4.5136-2.6142 0.35591-6.4129 0.47038-7.3778-0.44461-1.1929-1.1274 1.8596-4.8942 4.3035-6.3865z"/>
   <path d="m150.75 256.88c-1.4416 2.2076-1.6875 5.6499-1.1763 5.8848 0.68866 0.18622 3.4276-0.62492 8.106-2.4168 1.9319-0.74001 2.0371-0.80952 3.5022-0.0366 1.7829 0.93707 7.2936 4.7672 8.5702 4.3908 0.99116-0.29626 1.0785-2.9499 0.15863-5-0.46155-1.027 0.57548-1.6054 1.2814-0.55025 1.778 2.6555 1.9908 7.078-0.65207 7.869-2.763 0.8316-8.4147-4.1338-10.957-5.1237-3.2481 1.3181-9.1023 3.8738-11.026 3.0293-2.5201-1.0955-1.2763-6.1148 4e-3 -8.5281z"/>
   <path d="m170.83 261.23c3.3656 1.9481 10.44 2.2996 11.437 1.0252 1.0741-1.3699 0.15946-4.5119-3.1503-7.7561l-1.8887 1.1334c2.7402 2.536 3.4888 4.6371 3.2217 5.0134-0.58967 0.84349-8.064-0.3454-10.044-1.839z"/>
   <path d="m195.76 237.01c4.1504 2.5173 15.036 4.1844 16.333 2.9918 2.2427-2.0582-0.27125-6.8413-6.9141-11.145l-1.8506 0.77385c6.0806 4.0034 7.387 7.5058 6.9552 8.439-1.7212 0.14387-10.189-0.93755-13.527-3.3164z"/>
   <path d="m211.51 237.63c2.0002 0.0558 3.2732-0.193 4.0415-0.76243 0.47658-0.63775-0.25095-4.7984-3.033-7.6052-1.3775-1.3859-0.61953-2.2736 1.0165-0.98957 3.3552 2.6259 5.8688 8.8486 3.6472 10.496-1.9325 1.4398-6.4059 1.1253-7.3922 0.89075z"/>
   <path d="m217.15 237.28c4.013-2.482 1.8695-11.072-2.592-15.121l-1.8156 1.4904c3.8034 3.2699 5.3054 9.1342 3.4504 11.57z"/>
   <path d="m71.904 232.61c-2.1743 0.57483-3.2698 3.3422-2.6995 3.6331 1.8838 0.95981 14.469 0.38102 22.665-3.2034l4.2352 0.50971c-7.9439 4.7772-24.879 6.5419-28.11 4.9048-1.9494-0.99093-1.5637-4.4611 1.7039-6.7176z"/>
   <path d="m62.783 237.31c1.5965 0.2365 4.043 0.30012 5.3946 0.16981l0.04435-2.3899c-0.60939 0.13764-2.9384 0.12513-4.5869-0.0355z"/>
   <path d="m91.753 185.26c0.0089 0.38739-0.591 0.71151-1.3393 0.73057-0.74894 0.0205-1.3613-0.27949-1.3732-0.6644-0.0089-0.38562 0.58035-0.8004 1.3285-0.81865 0.74895-0.0205 1.3746 0.36589 1.3846 0.75244"/>
   <path d="m154.75 144.32c10.366-5.0544 22.512-17.354 27.479-34.456 5.7204-19.678-6.0592-62.806-18.49-65.053-12.878-2.3115-39.26 34.66-37.199 79.057 0.0874 1.8674-1.4019 2.0105-1.552 0.14056-3.6286-44.798 24.014-84.924 39.167-82.182 15.352 2.7706 26.504 48.965 20.769 68.686-5.1527 17.734-19.021 31.308-29.716 35.597-2.1384 0.85649-2.5083-0.78768-0.45778-1.7894"/>
  </g>
  <path d="m73.428 177.04c0.13619 5.5944-4.3255 10.242-9.9644 10.384-5.6412 0.13484-10.099-4.3156-10.236-9.9097-0.13619-5.5944 4.1011-10.217 9.7414-10.357 5.6411-0.13483 10.324 4.2901 10.458 9.8868" fill="#5c4043"/>
  <path d="m106.54 176.21c0.13652 5.5944 5.1555 10.031 10.797 9.8964 5.6411-0.13934 9.8773-4.8019 9.7416-10.396-0.13652-5.5944-4.5934-10.005-10.234-9.8707-5.641 0.13933-10.44 4.7755-10.304 10.37" fill="#5c4043"/>
  <path d="m70.423 173.16c0.04451 1.826-1.4384 3.3418-3.3132 3.3879-1.8752 0.0454-3.4585-1.3753-3.5052-3.1992-0.04252-1.8285 1.4689-3.3694 3.3415-3.4176 1.8731-0.0438 3.4278 1.3985 3.4741 3.2228" fill="#fff"/>
  <path d="m109.69 172.2c0.0446 1.8262 1.5993 3.268 3.4741 3.2227 1.8752-0.0454 3.3875-1.5419 3.3454-3.3659-0.047-1.8285-1.631-3.2939-3.5037-3.251-1.8729 0.0474-3.3558 1.5636-3.3133 3.3879" fill="#fff"/>
  <path d="m61.692 182.11c0.03984 1.6347-1.2509 2.9897-2.8833 3.0272-1.6347 0.0398-2.9897-1.2509-3.0273-2.8835-0.04197-1.6323 1.1949-3.0909 2.8299-3.1303 1.6302-0.0395 3.0412 1.3522 3.0825 2.9853" fill="#ed8322"/>
  <path d="m118.85 180.72c0.0398 1.6346 1.3948 2.9253 3.0272 2.8834 1.6346-0.0397 2.9253-1.3948 2.8834-3.0272-0.0367-1.6325-1.344-3.029-2.9789-2.989-1.6302 0.0402-2.9718 1.4986-2.9336 3.1318" fill="#ed8322"/>
  <g fill="#0f141b">
   <path d="m62.993 168.22c-5.0064 0.12149-8.8293 4.1948-8.7049 9.2688 0.12177 5.0978 4.1408 8.9955 9.147 8.8738 5.0466-0.1231 9.052-4.2916 8.928-9.2958-0.11955-4.9998-4.3253-8.9708-9.3696-8.8503m0.49314 20.262c-5.9573 0.14699-11.16-4.3344-11.324-10.942-0.15261-6.3628 4.4142-11.454 10.743-11.608 6.8326-0.16604 11.452 5.691 11.585 11.083 0.13152 5.385-4.4934 11.309-11.005 11.464"/>
   <path d="m116.87 166.91c-5.1445 0.12491-9.3886 4.3754-9.2671 9.2815 0.11986 4.9262 4.564 8.9852 9.7086 8.86 5.0064-0.12149 8.831-4.2105 8.7044-9.3084-0.12342-5.0733-4.1399-8.9554-9.1456-8.8343m0.49323 20.262c-6.5676 0.16167-11.745-5.2694-11.885-10.928-0.14232-5.9396 4.9594-11.301 11.34-11.458 6.6656-0.15987 11.185 5.2497 11.322 10.907 0.15154 6.3182-5.2747 11.348-10.778 11.48"/>
   <path d="m90.708 197.31c-6.4496 0.15726-8.9824-2.7385-9.3412-4.2071-0.23099-0.95956 0.65005-1.3731 1.2364-0.39295 0.74551 1.2453 3.1808 2.5942 8.0536 2.4757 4.3494-0.1039 7.4275-1.91 7.869-2.8121 0.49745-1.0013 1.5052-0.78526 1.3082 0.38489-0.21319 1.2846-2.7476 4.3966-9.1258 4.5519"/>
  </g>
  <path d="m16.645 41.955c-14.327 2.2428-26.381 47.554-19.601 70.223 5.8802 19.663 24.711 33.265 32.94 34.346l22.919-13.565c7.7736-47.377-20.956-93.398-36.258-91.005" fill="#ed8322"/>
  <path d="m132.79 103.27c-6.4487 17.679-18.042 34.273-37.142 34.738-19.097 0.46711-35.23-14.708-34.409-33.992 0.97363-22.894 20.345-36 48.116-42.519 13.802-3.244 17.993-8.5715 22.442-7.6057 7.7199 1.6794 11.306 21.106 0.99252 49.379" fill="#ed8322"/>
  <path d="m42.782 103.41c-4.4813-15.654-13.356-26.97-19.993-25.068-7.0196 2.0071-8.4531 18.184-4.4783 32.073 1.0058 3.512 3.2247 8.9844 5.3487 12.843-2.4345-6.6392-2.8926-15.847 2.4038-18.429 4.3628-2.1229 12.757 1.8309 17.475 11.519 0.65675 1.3433 1.166 2.6769 1.5656 3.9886-0.01572-5.0402-1.2379-13.135-2.3218-16.926" fill="#009683"/>
  <path d="m42.782 103.41c-4.4813-15.654-13.356-26.97-19.993-25.068-4.2578 1.2178-6.4586 7.6536-6.6456 15.629 6.7532 0.14053 15.159 4.3662 18.412 12.129 3.2692 1.9212 6.5972 5.3476 8.9824 10.248 0.65673 1.3433 1.166 2.6769 1.5656 3.9886-0.01572-5.0402-1.2379-13.135-2.3218-16.926" fill="#008273"/>
  <path d="m62.365 113.8c12.205 14.562 42.216 16.097 66.197-0.78026-4.7148 11.012-17.172 30.59-35.077 30.017-18.684-0.59698-27.81-19.488-31.12-29.236" fill="#ce7228"/>
  <g fill="#0f141b">
   <path d="m28.614 147.11c-7.114-0.7764-27.005-13.691-33.222-34.48-6.6421-22.216 4.3067-69.514 20.976-72.124 16.336-2.5525 46.851 44.6 37.405 91.358-0.37774 1.8765-1.7395 1.5803-1.4595-0.27684 7.277-47.911-22.125-90.687-35.504-88.585-13.173 2.0587-25.488 46.342-18.751 68.87 5.4459 18.205 22.213 31.595 30.722 33.574 2.1716 0.50198 2.0765 1.9038-0.16615 1.6643"/>
   <path d="m24.94 126.93c-2.7747-3.2261-6.6711-11.419-8.001-16.066-4.0721-14.225-1.9538-31.93 5.3977-34.034 7.1634-2.0484 17.048 9.7286 21.738 26.109 1.3783 4.811 2.5756 16.006 1.8071 20.23l-1.891-4.8162c-0.25206-4.8652-1.3004-11.402-2.2307-14.651-4.2573-14.876-12.816-26.025-18.68-24.34-5.9639 1.7073-7.7861 16.657-3.7481 30.763 0.81357 2.8458 2.3482 6.7528 3.9513 10.085z"/>
   <path d="m34.943 137.06c-3.9489-1.1937-8.1788-4.6922-11.273-11.037-3.4129-7.0098-4.814-19.343 1.8061-22.566 5.226-2.545 14.203 2.4643 18.979 12.269 2.2095 4.5323 2.4277 9.6522 2.3382 10.737-0.15963 1.9403-1.3344 1.757-1.3813 0.10253-0.06783-2.4227-0.91989-5.8405-2.8291-9.756-4.4262-9.0932-12.207-12.902-16.057-11.03-5.1841 2.5239-4.0457 12.95-0.9493 19.314 2.3315 4.7833 5.6854 8.8176 9.61 10.576 1.8835 0.84588 1.6883 1.9732-0.24476 1.3899"/>
   <path d="m135.81 118.47c0.48063-4.9315 1.4213-10.098 2.2795-13.279 4.0946-15.152 12.407-26.214 18.318-24.617 5.9173 1.5985 7.0076 18.47 3.7141 30.648-0.7893 2.916-2.5836 7.4678-4.5919 11.472l-2.8416 8.04c3.985-4.1838 8.54-14.338 9.7811-18.921 3.2709-12.099 2.6921-31.381-5.383-33.564-7.8507-2.1175-17.152 11.082-21.294 26.394-1.1778 4.3606-2.0344 12.181-2.1796 18.39z"/>
   <path d="m144.12 136.76c3.5293-1.6682 7.683-5.6086 10.076-11.195 2.4945-5.8211 3.9527-16.493-1.213-18.707-3.9227-1.6783-12.214 2.0064-16.176 11.259-1.3599 3.1773-2.475 6.44-2.4574 9.5415 0.0113 1.9428-1.2634 2.1033-1.3155-0.0403-0.084-3.4342 0.32589-6.8379 1.8226-10.337 4.3076-10.064 13.841-14.797 19.14-12.522 7.5303 3.2262 4.0844 17.2 2.1513 21.641-3.2375 7.4281-9.8811 11.142-11.444 11.59-1.8567 0.52871-2.1732-0.48241-0.58445-1.2315"/>
   <path d="m105.54 135.28c13.975-5.198 21.91-20.482 26.247-32.371 10.679-29.278 5.9556-46.633-0.22527-47.978-3.9831-0.87042-8.0504 4.3318-21.972 7.601-30.515 7.165-46.426 21.139-47.298 41.532-0.31274 7.3813 1.829 14.899 6.3556 20.698 1.7248 2.2089 0.68651 2.9381-1.2222 0.9634-5.2827-5.467-8.2439-14.052-7.9052-22.018 0.94695-22.249 17.482-36.073 49.793-43.663 13.635-3.202 17.764-8.9069 22.749-7.8183 7.9328 1.7256 13.704 21.567 2.3287 51.631-5.8833 15.546-14.785 29.418-28.291 33.069-2.6964 0.72975-3.1541-0.68116-0.55971-1.6465"/>
  </g>
 </g>
</svg>
