<?xml version="1.0" encoding="UTF-8"?>
<!-- Created with Inkscape (http://www.inkscape.org/) -->
<svg version="1.1" viewBox="0 0 280.63 287.55" xmlns="http://www.w3.org/2000/svg">
 <path d="m83.599 271.6-37.201-5.6391c-4.3473 1.5034-8.5083 5.3782-8.1481 10.694 0.35209 5.2169 5.925 8.8562 21.886 9.5269 17.824 0.73235 25.128-4.5212 23.463-14.582" fill="#D38D46"/>
 <path d="m232.3 265.51-37.027 4.223c-2.0879 9.1667 0.99289 16.831 22.42 16.148 17.911-0.57038 21.488-4.3103 22.221-8.9308 0.7077-4.4342-2.7463-8.434-7.6143-11.44" fill="#D38D46"/>
 <path d="m140.49 1.0111c26.233 1.0668 50.579 10.98 69.52 43.188 22.395 38.095 34.655 72.054 49.361 97.48 6.3222 10.93 28.916 48.206 15.191 84.81-10.844 28.916-35.81 42.393-57.099 45.598-28.345 4.248-39.387-3.1407-76.973-3.3414-39.101-0.21125-45.622 7.6763-76.973 3.1054-35.04-5.1176-62.713-33.152-61.732-71.707 0.83093-32.742 21.662-60.031 28.605-74.662 10.893-22.967 29.835-64.776 37.102-76.861 18.259-30.332 41.821-48.889 72.998-47.61" fill="#01af96"/>
 <path d="m126.89 10.14c3.6272 4.223-0.24646 12.123-7.7256 16.458-8.9308 5.1423-18.309 4.6082-20.445 0.91896-2.5597-4.4219 4.4716-11.241 8.9308-14.235 7.1668-4.8068 16.309-6.5457 19.24-3.1407" fill="#86cabf"/>
 <path d="m125.02 16.422c1.1196 5.8503 6.9682 11.489 14.135 11.489 8.322 0 13.837-5.8007 14.632-11.788 5.3286 0.43307 13.452-1.852 15.315-9.4399-9.1417-3.6146-18.743-5.2666-28.618-5.6764-11.303-0.45773-21.6 1.7006-31.003 6.0616 2.5351 6.3098 7.9992 9.0051 15.539 9.353" fill="#f3a251"/>
 <path d="m126.89 10.14c-2.3977-2.7815-8.9181-2.1372-15.129 0.8063 2.9681 3.5649 7.5024 5.2043 13.266 5.4778 0.21125 1.1936 0.65841 2.3837 1.2534 3.5139 2.2745-3.5523 2.7463-7.3158 0.60912-9.8001" fill="#FACEA7"/>
 <path d="m205.52 216.38-137.82-1.5633c-37.089-2.8062-55.298-14.52-64.738-26.494-0.64433 3.8505-1.0668 7.7879-1.1689 11.825-0.98234 38.555 26.693 66.577 61.733 71.694 31.351 4.5835 37.872-3.3026 76.973-3.0914 37.586 0.17605 48.628 7.5893 76.973 3.3273 21.29-3.1935 46.256-16.681 57.099-45.585 5.4652-14.595 5.167-29.289 2.4224-42.393-12.645 19.898-50.181 32.63-71.471 32.282" fill="#009a82"/>
 <path d="m24.663 237.94c11.117 7.6886 19.985 10.223 23.289 7.3034 3.4153-3.0315-0.61968-12.744-7.1049-21.712-6.0116-8.3097-13.986-13.837-21.153-12.346-7.8126 1.6161-10.993 9.8001-12.905 17.464 2.2217 5.5398 5.1296 10.67 8.6199 15.328 2.4858-2.1865 4.8444-4.5212 6.2355-5.8504 1.3168-1.2429 1.3309-1.3556 3.0174-0.17605" fill="#D38D46"/>
 <path d="m259.9 211.02c-7.2041-1.2675-15.563 4.956-21.352 13.415-5.9 8.6326-9.9864 18.532-6.1856 21.302 3.4153 2.4963 11.912-0.21126 23.016-7.8872 1.7006-1.1689 1.7006-1.0563 3.0174 0.21127 1.4048 1.3309 3.8505 3.9874 6.3845 6.3598 3.4047-4.5212 6.3968-9.6512 8.7938-15.427-1.9013-8.5086-5.8004-16.57-13.676-17.961" fill="#D38D46"/>
 <g fill="#0f141b">
  <path d="m264.79 148.87-1.3415 2.1724c10.893 20.681 19.923 47.374 9.8251 75.073-9.266 25.388-32.816 41.772-56.118 44.753-30.506 3.9005-42.468-2.8696-76.662-2.8696-38.99 0-50.616 6.4838-76.787 2.7322-34.878-5.0057-61.807-33.164-60.863-70.327 0.4718-18.744 7.4777-35.338 14.719-49.15l-1.6407-1.6161c-7.6886 14.16-15.415 31.425-15.899 50.578-1.1197 44.157 31.463 69.173 63.198 72.998 30.481 3.6889 40.939-3.366 77.271-3.366 31.251 0 45.051 7.5643 77.482 3.4646 26.32-3.3273 48.132-19.476 58.205-46.343 9.5146-25.351 2.8695-51.013-11.39-78.103"/>
  <path d="m199.17 30.374c-15.315-18.967-33.189-27.575-58.614-28.444-24.656-0.84502-43.089 9.6262-58.627 28.072l-1.5915-1.4048c15.402-18.383 33.934-29.214 60.167-28.568 25.985 0.63376 45.138 10.322 60.379 28.978z"/>
  <path d="m227.16 78.464c5.7387 11.875 11.055 23.737 16.408 35.002l2.2604-0.85558c-5.5648-11.427-11.241-23.476-16.905-35.04z"/>
  <path d="m53.146 78.312c-5.4775 11.551-10.968 23.836-15.986 34.729l-2.0633-0.91896c4.9434-10.645 10.744-23.165 16.284-34.667z"/>
  <path d="m60.13 287.48c-15.166-0.61968-22.73-3.6392-23.215-10.881-0.31689-4.7698 2.6442-8.3967 6.3348-10.26 0.53518-0.24646 2.771 0.94361 2.2604 1.1795-3.5523 1.6266-6.4091 4.4839-6.1109 9.0174 0.39787 5.9623 7.3781 8.2477 20.656 8.6822 19.016 0.61968 23.19-5.9246 22.184-11.961-0.03518-0.28167 3.2287-0.55982 3.2674-0.0704 0.52109 7.2784-3.6892 15.178-25.376 14.284"/>
  <path d="m236.24 267.28c-0.17605 0.10565-1.9506 1.0915-2.0492 1.2429 2.6196 1.8133 4.9684 5.3659 4.4839 8.4213-0.61968 3.9001-5.3536 7.4404-20.979 7.9372-15.874 0.49644-22.47-2.8062-22.134-11.39-0.17605 0-1.9259-0.0352-2.0985-0.0352-1.3415 12.657 11.725 14.321 24.159 13.924 12.669-0.39786 22.507-3.3167 23.264-10.508 0.39787-3.7758-1.6267-6.9679-4.6455-9.5889"/>
 </g>
 <path d="m174.55 63.786c-17.961 9.7878-51.1 10.968-70.601-0.24646l-1.2534 2.7322c20.197 11.204 54.503 10.036 73.11 0.24646z" fill="#f3a251"/>
 <g fill="#FFE900">
  <path d="m104.19 59.5c2.521 1.1689 2.9188 4.4716 1.5386 7.0056-1.7393 3.204-4.9064 3.8008-7.0552 2.4822-2.1865-1.3556-2.5597-4.6328-1.007-6.9556 1.7745-2.697 4.4716-3.4892 6.5207-2.5351"/>
  <path d="m174.63 59.566c-1.9612 0.95769-3.1407 3.8628-1.6654 7.0056 1.2534 2.6688 4.5462 3.9374 7.0925 2.5844 2.2851-1.2182 2.6829-4.5335 1.5386-6.7443-1.1302-2.1865-4.161-4.2233-6.9682-2.8449"/>
  <path d="m121.28 44.13c3.2428 0 4.7451 5.813 4.6705 9.8624-0.14084 7.1545-2.771 9.9367-4.7821 9.9367-2.771 0-4.6951-3.2674-4.8194-9.7505-0.10565-5.4155 1.9119-10.049 4.931-10.049"/>
  <path d="m158.05 44.13c-3.0421 0-4.8191 5.1673-4.7321 9.8624 0.14084 7.5517 2.9435 9.9117 4.9557 9.9117 2.4611 0 4.5089-2.7956 4.6455-9.7255 0.10565-5.4155-1.852-10.049-4.8691-10.049"/>
 </g>
 <path d="m80.467 62.816c-10.111 16.147-22.743 18.048-28.469 14.992-9.8624-5.2662-14.247-22.78-5.9123-36.095 8.3344-13.315 25.277-18.955 34.717-12.446 6.5707 4.5335 7.5024 21.041-0.35209 33.549" fill="#fff"/>
 <path d="m199.58 62.094c7.5647 15.054 20.967 20.582 29.376 15.464 10.111-6.1486 12.26-24.457 5.8877-35.412-8.9554-15.402-25.152-17.862-33.499-13.402-6.1732 3.292-10.682 15.613-1.764 33.35" fill="#fff"/>
 <path d="m206.86 55.556c2.7076 6.3222 6.8566 8.0611 10.148 6.757 3.5772-1.4154 3.7639-7.3407 1.764-12.073-2.8942-6.8563-7.1298-8.9928-10.732-7.3904-3.278 1.4541-4.0121 6.0863-1.1795 12.707" fill="#FFE900"/>
 <path d="m74.199 55.32c-2.3344 6.0616-6.5707 8.6576-10.086 7.2911-3.1547-1.2288-4.4966-6.4464-2.4365-12.073 2.359-6.4341 7.0675-9.3406 10.496-7.9495 3.6146 1.4788 4.3473 6.7073 2.0245 12.732" fill="#FFE900"/>
 <path d="m71.254 53.7c-1.6654 4.31-4.248 6.0366-5.8004 5.4405-1.5527-0.60912-2.197-3.6396-0.53517-7.8749 1.602-4.0617 4.1733-6.012 5.9743-5.2789 1.7147 0.69362 1.9013 3.7139 0.35914 7.7133" fill="#0f141b"/>
 <path d="m209.47 53.874c1.8626 4.6455 4.4346 5.788 6.1609 5.0057 1.9893-0.91896 2.014-4.186 0.43307-7.8999-1.8133-4.3099-4.5462-6.0612-6.3595-5.2539-1.5034 0.66898-1.9259 3.9498-0.24646 8.1481" fill="#0f141b"/>
 <path d="m13.184 115.75c-8.5083 8.9431-4.0117 29.314 10.645 41.524l24.109-37.4c-8.434-7.7879-25.575-13.775-34.754-4.1237" fill="#01af96"/>
 <path d="m267.44 115.76c-9.179-9.6512-26.419-3.204-34.841 4.5835l23.227 37.909c16.47-13.091 20.122-33.549 11.613-42.492" fill="#01af96"/>
 <path d="m29.627 158.14c1.2182-1.4048 0.90839-3.6269-0.37322-4.8318-1.8027-1.69-2.7956-1.5386-6.4838-5.0927-6.0116-5.7757-11.961-15.936-10.545-31.326-5.813 7.6636-3.8132 21.749 4.6578 33.052 0.80629 1.3802 2.3731 3.9001 3.6519 5.2293 2.2745 3.5139 6.782 5.6264 9.0921 2.9681" fill="#009a82"/>
 <path d="m257.01 148.18c-3.3026 3.3414-4.6701 3.9498-5.7757 5.7511-0.88023 1.4541-0.90488 3.2181-0.21125 4.5458 0.60911 1.1549 2.771 1.8379 5.3659 0.17604 1.007-1.1689 4.6951-5.018 7.6016-8.7815 8.4586-11.229 10.024-24.432 4.9807-32.121 1.8379 17.228-6.9556 25.326-11.974 30.419" fill="#009a82"/>
 <path d="m229.08 173.78c-0.49645 47.56-43.076 84.686-89.555 83.134-46.84-1.5633-88.512-33.437-88.512-84.314 0-46.517 42.269-84.885 88.786-84.885 51.808 0 89.766 38.679 89.282 86.065" fill="#746A5F"/>
 <path d="m123.77 103.59c-3.2674-5.9496-12.769-6.4464-19.625-2.1865-7.0056 4.3473-9.8874 12.222-9.1297 17.514-1.6267 0.40843-3.3414 1.2182-4.4962 2.197-3.1688 2.7076-3.8631 6.5707-1.764 9.0674 2.1372 2.521 6.5461 2.0245 9.229-0.49645 1.5668-1.4541 2.3837-3.3273 2.6442-5.13 4.3723 0.67249 10.868-0.47181 15.104-2.8555 7.9368-4.4839 11.266-12.235 8.0361-18.11" fill="#B8A9A3"/>
 <path d="m139.5 207.15c-14.508 0-26.183-11.08-26.432-25.563-0.24646-14.595 10.036-26.506 25.563-26.506 15.091 0 27.363 9.8374 27.798 26.134 0.38379 14.545-12.384 25.935-26.929 25.935" fill="#FFE900"/>
 <path d="m155.75 180.8c0.21125 9.1417-7.502 16.644-16.445 16.346-9.0054-0.28167-16.731-5.925-16.731-15.713 0-9.5019 6.8443-16.83 16.98-16.98 10.011-0.14083 15.998 8.496 16.197 16.346" fill="#fff"/>
 <path d="m44.734 44.128c-6.4464 12.93-2.014 28.73 7.2665 33.673 4.8068 2.5703 14.471 1.6407 23.426-8.2601-14.098 1.7147-35.201 2.3731-30.693-25.413" fill="#dcdddd"/>
 <path d="m204.54 69.738c7.6016 9.1417 17.626 11.949 24.42 7.8129 7.3781-4.4842 10.508-15.464 9.1914-25.327-3.4399 19.203-20.085 22.407-33.611 17.514" fill="#dcdddd"/>
 <path d="m143.09 241.51c-28.047-0.69714-63.893-10.334-84.823-34.468 13.924 30.481 46.144 48.703 81.258 49.87 35.884 1.1936 69.433-20.656 83.096-52.553-17.042 26.618-51.498 37.847-79.532 37.151" fill="#665f54"/>
 <g fill="#0f141b">
  <path d="m22.168 157.17c-11.303-7.7133-20.805-30.692-9.8248-42.231 8.8065-9.2664 27.028-5.3786 35.499 3.9124 1.6759 1.8379 0.82037 2.5703-1.1689 0.94362-8.6199-7.0922-24.208-12.259-32.791-3.2428-7.8499 8.2474-3.8132 26.991 9.5765 39.387 1.69 1.5633 1.1056 2.8695-1.2922 1.2288"/>
  <path d="m255.94 157.21c13.054-10.943 19.439-29.835 10.707-40.269-6.9559-8.322-19.985-5.3782-32.791 3.292-1.852 1.2429-2.9329 0.46124-0.91896-1.2534 9.1047-7.7506 25.625-14.023 35.238-3.9124 10.694 11.229 3.2674 32.866-11.316 43.399-2.2851 1.6513-2.8696 0.3732-0.91897-1.2534"/>
  <path d="m46.803 42.036c-7.7256 12.309-4.6082 29.189 5.5525 34.593 6.6823 3.5646 19.277-1.1161 27.09-14.62 7.0306-12.136 7.2911-27.513 0.53519-32.171-8.5953-5.9123-25.152-0.59503-33.177 12.198m4.7325 36.766c-10.694-5.7137-15.402-23.289-6.4214-37.635 9.9864-15.936 28.084-18.706 36.456-12.918 6.7943 4.6825 8.0115 21.699-0.14084 35.114-10.968 18.011-24.681 18.209-29.885 15.439"/>
  <path d="m201.79 29.514c-8.9554 4.9311-6.7943 20.88-0.9929 31.847 8.322 15.737 20.78 19.017 27.599 14.868 9.8128-5.9623 11.713-22.631 5.5648-33.748-6.9932-12.632-22.532-18.284-32.171-12.968m-3.1547 33.015c-7.7383-15.141-6.2355-30.282 2.1372-34.655 9.6881-5.0553 25.538-2.014 34.754 13.837 7.8129 13.415 3.5139 30.841-6.0989 36.704-8.3344 5.0677-22.283 0.757-30.791-15.887"/>
  <path d="m140.34 88.922c-43.945 0-88.437 35.872-88.437 83.482 0 47.299 37.4 81.805 87.841 83.482 41.2 1.3802 89.506-32.357 88.475-82.326-0.86967-41.797-30.369-84.637-87.879-84.637m-0.98234 169.43c-47.075-0.78165-90.052-34.182-90.251-85.37-0.17605-49.187 45.622-86.537 90.251-86.537 57.36 0 90.785 42.318 91.096 87.009 0.39786 55.671-48.703 85.605-91.096 84.897"/>
 </g>
</svg>
