<?xml version="1.0" encoding="UTF-8"?>
<!-- Created with Inkscape (http://www.inkscape.org/) -->
<svg version="1.1" viewBox="0 0 228.44 296.94" xmlns="http://www.w3.org/2000/svg">
 <defs>
  <radialGradient id="radialGradient79377" cx="0" cy="0" r="1" gradientTransform="matrix(15.307 28.065 -34.783 18.972 118.44 88.52)" gradientUnits="userSpaceOnUse">
   <stop stop-color="#96cfac" offset="0"/>
   <stop stop-color="#96cfac" offset=".36366"/>
   <stop stop-color="#96cfac" offset=".5753"/>
   <stop stop-color="#d6e0ab" offset=".94568"/>
   <stop stop-color="#d6e0ab" offset="1"/>
  </radialGradient>
  <radialGradient id="radialGradient79385" cx="0" cy="0" r="1" gradientTransform="matrix(3.6087 15.971 -15.971 3.6087 67.777 125.4)" gradientUnits="userSpaceOnUse">
   <stop stop-color="#96cfac" offset="0"/>
   <stop stop-color="#96cfac" offset=".36366"/>
   <stop stop-color="#96cfac" offset=".5753"/>
   <stop stop-color="#d6e0ab" offset=".94568"/>
   <stop stop-color="#d6e0ab" offset="1"/>
  </radialGradient>
 </defs>
 <path d="m227.59 220.95c-0.39455-26.355-20.007-52.088-45.887-53.457l4.5716 10.92c16.635 5.2055 22.632 34.22 7.8079 47.618l-16.815 8.3965c-7.0954-4.017-16.148-5.1939-18.864-4.1302-0.16038 0.7923 1.9118 5.5336 8.0116 9.2112-14.405-2.1395-27.26 1.2318-29.071 3.44-0.0321 1.1323 7.695 8.8719 17.563 10.467-2.5116-0.22454-10.603 2.2422-11.588 3.3723 0.45229 0.93987 6.1107 3.0088 14.134 2.4218-13.183 6.3936-19.248 19.905-18.683 22.53 5.2052 2.162 20.108-1.2221 28.675-7.1744-2.3865 3.3155-10.275 19.17-9.2792 21.602 37.728-9.5734 70.001-36.743 69.424-75.218" fill="#516d75"/>
 <g fill="#465e65">
  <path d="m175.67 243.43c1.1323 0.16038 1.5493-0.74741 0.0962-1.2093-9.2225-2.9543-14.767-9.0416-17.427-12.119 1.3921 6.6198 11.214 12.402 17.325 13.33"/>
  <path d="m156.23 257.94c-6.7218 0.32078-12.878-1.3344-12.889-1.312-0.19247 1.0297 6.4273 3.4855 14.45 2.8966 0.51003-0.2887 1.0521-1.7097-1.5622-1.5846"/>
  <path d="m226.16 209.26c-4.979-21.806-22.451-40.602-44.461-41.768l4.5716 10.92c8.7019 2.7169 14.484 11.961 15.91 22.078 5.4656-3.8021 14.983-1.7097 23.979 8.7699"/>
  <path d="m154.7 252.04c-6.4616-1.7546-13.319-5.9407-17.246-9.4262-0.65757 1.3472 7.8871 9.2905 17.675 11.124 0.99759-0.25662 1.0521-1.2895-0.42984-1.6969"/>
  <path d="m185.37 276.9c0.34965-0.82759 10.286-18.14 8.306-19.916-0.1604-0.32077-0.83723-0.90456-1.2093-0.9623-4.4359 7.8079-15.017 10.784-18.92 10.942-0.22454-0.51003 4.2547-10.92 9.8108-16.397-9.6751 3.7681-19.237 11.191-26.095 17.506-7.7514 7.1179-13.274 14.903-6.2804 13.331 5.6805-1.2799 11.961-3.7004 16.465-6.835-0.40738 0.56456-1.5942 2.4443-2.3769 3.9493 1.1419-1.065 2.5469-1.8797 2.7618-1.7771 0.77947 0.39455-5.9974 17.427-5.5901 18.321 20.776-6.043 39.55-17.461 51.59-33.19-8.2384 8.17-20.844 14.564-26.978 16.148-1.5269 0.39455-2.0946 0.32077-1.482-1.1195"/>
 </g>
 <path d="m227.5 225.42c0.0642-1.4723 0.12827-2.9543 0.0962-4.4696-0.1604-9.6866-2.8966-19.294-7.6045-27.634-6.3933-6.45-17.506-3.9378-18.434 3.8477 1.7771 7.3893 1.1772 15.627-2.3994 22.327 9.6186-10.581 22.972-7.5365 28.347 5.9294" fill="#e9e5e2"/>
 <path d="m226.16 209.26c-1.2799-5.6013-3.3723-10.999-6.1672-15.955-6.4051-6.4388-17.506-3.9269-18.445 3.8586 0.25661 1.0874 0.47473 2.2069 0.63512 3.327 5.4656-3.8021 15.243-3.6212 23.979 8.7699" fill="#cac7c4"/>
 <path d="m104.28 236.29c2.3545-1.1772 2.7169-2.8613 1.8091-4.2547-1.5172-2.3545-4.1755-1.3472-7.8079 1.4948-0.82759 0.64476-3.9609 0.73457-4.6509 0.22454-0.85966-0.63512 0.63512-1.7322-0.85966-2.5245-2.4667-1.2895-3.5532 2.0497-7.1744 0.94948-2.9639-0.90458-8.555-10.807-11.158-16.227 0.68967-0.51965 1.2799-1.097 1.7418-1.7193 5.7145 1.312 12.832-2.0946 12.561-5.7941-0.09617-1.5044-1.482-2.7939-4.6512-2.2871-1.312 0.22453-2.6143 1.02-3.5304 1.992-0.63512-6.6762-4.4247-13.138-6.4052-15.944 2.3641-2.1267 31.776-12.538 39.108-14.032l-4.9675-7.3328c-7.2539 5.2844-37.524 13.556-43.522 20.256-2.5469 2.8613-2.4443 14.745-1.5718 20.584 0.47474 3.2013-0.32077 5.9182 2.1267 6.6993 1.2574 0.40737 3.0088 0.25661 4.7753-0.25663 3.4515 7.4233 8.1248 14.315 9.2565 16.589 1.5044 3.0088 7.729 5.6693 11.282 7.5705 4.5039 2.3994 8.9736 10.954 14.191 7.4797 2.7041-1.7995 3.8021-5.4092-1.2671-10.479-0.93985-0.94947-0.68002-2.3096 0.71211-2.9992" fill="#516d75"/>
 <path d="m113.26 178.18-4.9678-7.3328c-2.0946 1.5269-6.1107 3.3046-10.909 5.2167-0.0642 2.2743-1.8669 6.9254-3.6212 8.2156 7.9779-2.8067 16.103-5.4092 19.498-6.0995" fill="#465e65"/>
 <path d="m104.28 236.29c2.3545-1.1772 2.7169-2.8613 1.8091-4.2547-1.5172-2.3545-4.1755-1.3472-7.8079 1.4948-0.82759 0.64476-3.9609 0.73457-4.6509 0.22454-0.85966-0.63512 0.63512-1.7322-0.85966-2.5245-2.4667-1.2895-3.5532 2.0497-7.1744 0.94948-1.0201-0.32078-2.3545-1.6873-3.7569-3.576-1.8092-0.12827-3.6436 0.80192-4.3792 2.8292 0.8725 1.4371 1.5493 2.5694 1.9022 3.2703 1.5044 3.0088 7.729 5.6696 11.282 7.5705 4.5039 2.3994 8.9736 10.954 14.191 7.4801 2.7041-1.7995 3.8021-5.4092-1.2671-10.479-0.93985-0.94947-0.68002-2.3095 0.71211-2.9992" fill="#2ea7c2"/>
 <path d="m81.835 228.62c-2.6945-3.6096-5.6921-9.098-7.4008-12.651 0.68966-0.51965 1.2799-1.1099 1.7418-1.7322 5.7145 1.3248 12.832-2.0818 12.561-5.7825-0.09617-1.5172-1.482-2.8068-4.6509-2.2871-1.312 0.22454-2.6143 1.0072-3.5304 1.9792-0.39455-4.1078-1.9792-8.1251-3.5987-11.271-1.6423-1.482-3.5532-1.9792-5.2619-1.6872-3.2362 0.56455-7.6157 6.0655-8.7926 13.953 0.0642 0.92703 0.19245 1.7867 0.28869 2.5469 0.47474 3.2013-0.32077 5.907 2.1267 6.699 1.267 0.40738 3.0088 0.25662 4.7753-0.25662 2.3994 5.149 5.3752 10.038 7.3553 13.308 0.73457-2.0144 2.5694-2.9639 4.3795-2.8164" fill="#e84283"/>
 <path d="m65.68 216.05c-1.02-0.93986-0.68004-4.3339-2.7394-6.5405 0.0642 0.77947 0.16039 1.5269 0.25663 2.1844 0.48757 3.2013-0.32077 5.9182 2.1395 6.699 1.2574 0.40739 3.0088 0.25663 4.7756-0.25661 0.55494 1.1997 1.4018 2.8966 2.0016 4.0513 1.652 0.85966 4.1755-0.79231 4.7073-1.6071-0.9174-1.6744-1.7418-3.2703-2.3769-4.6056-3.2013 1.3793-7.2764 1.437-8.7587 0.0642" fill="#c93872"/>
 <path d="m87.842 210.93c-3.2366 1.065-6.9819 1.0072-7.6385-0.19245-0.32719-0.60947-0.0642-1.6424 0.42983-2.6464-0.02274 0.0321-0.0642 0.0642-0.0642 0.0642-0.12827-1.2221-0.34964-2.4347-0.64474-3.6212-1.9792 1.4723-5.047 1.7995-7.4573 0.65757 0.0321 1.097 0.09617 2.3192 0.16038 3.4967 1.7193-0.57738 3.44-0.22454 4.153 1.267 0.71211 1.5044 0.37209 2.9768-0.56456 4.2662l0.0642 0.0321c4.3679 0.96232 9.517-0.80192 11.565-3.3382" fill="#c93872"/>
 <path d="m135.5 150.58c-9.4602 10.728-21.127 11.033-24.918 14.428-1.7193 1.5493-2.6688 4.5716-2.5245 6.6197 0.22454 3.3947 3.4515 7.3328 8.7702 10.06l23.718-19.396c3.2703-5.3639-1.652-11.361-5.047-11.712" fill="#2f3141"/>
 <path d="m136.89 185.16c3.7796 0.16038 7.7966 0.19247 10.875 0.0228l-8.555-24.115c-13.647 2.3641-22.881 12.369-23.345 16.555-0.63512 5.7941 3.2363 11.248 4.1755 11.984 2.9992 2.3769 7.6497 3.3947 14.202 3.8701-2.2069 3.5304-3.3723 5.3748-4.7413 5.4428-2.842 0.12827-9.6302 0.63513-15.288 3.4627-7.0611 3.5307-12.459 8.9851-12.459 11.904 0 2.2069 34.186-1.8893 35.872-4.017 2.4443-3.0762 8.8379-18.287 8.4417-20.109-0.39455-1.8091-5.2391-3.3383-9.1772-5.0018" fill="#516d75"/>
 <path d="m134.43 174.75c0.25661 0.82438 1.6969 3.0794 2.0273 3.508-5.5904 3.0441-14.009 4.1418-18.264 1.1868-1.0168-0.70249-1.5397-3.3155-0.9174-5.1035-0.82759 1.267-1.312 2.409-1.4146 3.2818-0.63512 5.7938 3.2366 11.248 4.1758 11.984 2.9992 2.3641 7.6494 3.3947 14.201 3.8701-2.2069 3.5307-3.3723 5.3752-4.7413 5.4432-2.8292 0.12826-9.6302 0.63512-15.288 3.4627-7.0614 3.5304-12.459 8.9848-12.459 11.904 0 2.2069 34.186-1.8893 35.872-4.0173 2.4443-3.0794 8.8379-18.298 8.4417-20.108-0.39455-1.8091-5.2392-3.3383-9.1773-5.0018 3.7796 0.16038 7.797 0.19247 10.875 0.0225l-2.0273-5.6918c-4.8318-0.32077-9.449-1.8797-11.305-4.7416" fill="#465e65"/>
 <path d="m130.69 178.02c-1.0874-5.4316-0.90458-10.976 0.47473-14.541-3.293 1.4146-6.1447 3.2253-8.4757 5.1038 0.75702 3.3723 4.4132 8.4077 8.0003 9.4374" fill="#e9e5e2"/>
 <path d="m128.99 198.94c-3.089 0.16038-9.4377 0.76985-14.779 3.4403-7.0611 3.5304-12.459 8.9848-12.459 11.916 0 1.312 12.233 0.37209 22.429-1.0425-3.0088-3.225-4.1758-8.521 4.8093-14.315" fill="#e9e5e2"/>
 <path d="m105.48 214.92c4.4132-0.0117 11.995-0.73457 18.705-1.6744-3.0088-3.225-4.1755-8.521 4.8093-14.304-1.1997 0.0642-2.9094 0.19247-4.8546 0.48757-6.9482 2.3641-15.231 9.166-18.66 15.492" fill="#cac7c4"/>
 <path d="m144.35 192.7c-1.0746-0.51003-3.1564 1.6199-4.6624 4.7641-1.4948 3.1468-1.8444 6.1107-0.76985 6.6201 0.70249 0.32719 1.822-0.45227 2.9318-1.8893 1.1772-2.672 2.3192-5.4884 3.1243-7.7402 0.0227-0.90456-0.19246-1.5397-0.6223-1.7546" fill="#2f3141"/>
 <path d="m184.7 104.61c-1.3697-0.64475-3.7344-0.32077-6.3484 0.6672 9.166-30.361-1.0746-48.331-16.929-59.975-14.281-10.479-26.05-11.667-51.398-16.069-0.81475 5.1487 4.017 24.703 23.888 38.723-1.3248 1.3921-3.8701 5.5901-4.3339 7.6385 0 0-77.266 28.856-84.361 28.856-13.726 0.58702-34.774 9.1096-44.359 18.332 1.5397 1.065 4.5832 3.3383 6.1559 5.4432 15.017 20.108 33.1 32.941 64.807 34.65 0.71211-0.93986 5.9182-8.6342 8.2833-9.9356l2.2518 2.1267c14.19 6.1562 38.441-2.1267 50.142-4.9678 1.6295-0.38491 4.2775 1.482 5.9182 4.9678 1.2221 2.6143 1.652 7.6497-3.7116 15.616-0.9174 1.3793-1.2574 1.7771-0.38492 3.7909 3.0537 7.1291 11.327 13.873 25.144 10.716l13.432-26.751c-4.2322-6.1671-11.769-10.999-15.141-12.855 3.259-0.80513 7.242-2.0016 11.259-3.4403 1.6295 0.89495 5.873 2.4443 6.3031 2.2871 0.5421-0.19247 2.0144-4.085 2.7169-5.9635 4.9226-2.3192 8.9623-4.8661 10.445-7.2876 4.5376-7.3668 0.39454-24.59-3.7796-26.57" fill="#3d4052"/>
 <path d="m16.584 112.56c-6.2692 2.9992-11.904 6.5521-15.718 10.23 1.5397 1.065 4.5716 3.327 6.1447 5.4319 15.028 20.108 33.111 32.952 64.818 34.661 0.71211-0.94947 5.9182-8.6342 8.2833-9.9356l2.2422 2.1267c0.16038 0.0642 0.32077 0.0962 0.45229 0.19246-2.0144-8.3965-5.6578-22.598-6.5181-26.038-3.6096-14.428-34.627-22.191-59.703-16.657" fill="#2f3141"/>
 <path d="m189.84 127.79c-8.4985 10.83-30.836 13.67-33.133 10.728-0.76985-0.97193 0.89496-5.3411 2.3545-8.623 0.85003-1.4018 1.6969-2.9543 2.5341-4.6508 1.3922-2.8164 2.7715-6.0655 4.1755-9.8336 1.482-3.9721 7.4913-8.2384 12.572-10.128v-0.0117c6.7102-22.191 3.0313-37.751-5.6241-49.078 4.7753 17.155 2.5245 29.625-2.2165 34.537-1.2221 1.2799-3.8473 2.4892-5.4656 2.0273-3.4967-6.5068-10.343-13.478-22.134-19.407-3.293-1.6648-6.2804-3.4739-8.9963-5.3864-1.3248 1.3922-3.8701 5.5901-4.3227 7.627 0 0-28.992 10.83-53.084 19.226 6.5857 23.323 12.278 48.987 11.814 61.944 14.292 2.409 33.993-4.1758 44.189-6.6541 1.4723-0.34964 3.7684 1.1419 5.4092 4.0061 0.85005-0.7474 2.162-1.482 2.7041-1.482 1.4242 0 12.912 1.9342 16.725 0.16038 1.5269-0.71211 3.3947-2.6239 4.6508-4.5832-1.6744-1.1323-3.1692-2.0241-4.2435-2.6239 3.259-0.79231 7.2424-1.992 11.26-3.4287 1.6295 0.88212 5.873 2.4443 6.3028 2.2743 0.5421-0.19245 2.0273-4.0738 2.7265-5.9634 4.9113-2.3096 8.9511-4.8549 10.445-7.2764 0.59984-0.97193 1.0393-2.1267 1.3569-3.3947" fill="#2f3141"/>
 <path d="m112.79 42.12c-4.3003 5.8958-8.0119 14.643-8.272 24.251-17.404-8.1139-26.977-19.803-31.696-25.62-3.2138 16.669-1.2221 27.657 1.7546 34.378-16.125-1.8797-29.196 3.5644-29.196 4.0962 0 0.98476 8.9736 9.7206 23.866 15.548-7.763 2.672-20.776 4.0058-30.169 4.1642 5.1942 7.8082 19.158 14.428 29.49 12.618 3.9381-3.0794 65.362-29.648 65.362-29.648-5.6356-8.6454-9.3585-17.246-11.792-24.658-4.436-5.2055-7.4345-10.501-9.347-15.13" fill="#b3b492"/>
 <path d="m122.13 57.251c-4.4359-5.2051-7.4461-10.501-9.3473-15.129-0.19247 0.25662-0.39455 0.56456-0.59984 0.85005-2.0369 6.7105-2.2069 20.346-2.5341 24.296-0.32719 3.9609-4.5152 8.0911-4.8321 5.4092-0.16038-1.312-0.34964-4.5716-0.25661-6.2239l-0.0321-0.09617c0 0.0117-0.0117 0.02274-0.0117 0.0321-17.302-8.0683-26.864-19.679-31.606-25.529-0.39455 11.508 4.9453 27.849 9.5394 35.148 1.065 1.6969 0.46512 2.1267-1.3472 1.3472-2.1716-0.94949-5.6465-4.0513-8.3397-7.48 0.51964 1.992 1.1419 3.7456 1.822 5.2731h-0.0321c0.02248 0.0117 0.0321 0.0227 0.0321 0.0321 0.82438 2.1716 2.9639 5.4432 4.8093 7.1407-3.4515-2.2743-26.151-4.3002-34.016-3.0537 0.16038 1.097 9.0868 9.7431 23.854 15.526-0.0117 0-0.02248 0.0117-0.0321 0.0117h0.0642c1.065 0.44267 2.5694 0.94949 3.1788 1.1419 0.68002 0.22454 0.85004 0.2887 0.22454 0.79231-4.5489 3.6664-19.565 7.4008-29.139 2.0593-1.5493 0.0642-3.0441 0.12827-4.4584 0.1604 5.2055 7.8082 19.158 14.428 29.49 12.618 3.9493-3.0794 65.373-29.648 65.373-29.648-5.6353-8.6454-9.3697-17.246-11.791-24.658" fill="#9b9c7f"/>
 <path d="m151.19 119.12c-5.975 24.986-49.938 45.072-70.691 35.159-11.158-5.3296-18.355-23.119-13.195-42.582 7.8759-29.637 37.524-38.226 60.235-32.794 15.877 3.8136 26.978 26.287 23.651 40.217" fill="#e9e5e2"/>
 <path d="m141.65 88.155c-3.9041-4.5149-8.7362-7.9551-14.123-9.2453-22.7-5.4428-52.359 3.1564-60.224 32.794-0.19245 0.68966-0.34964 1.3793-0.49719 2.0594 11.305-19.305 41.054-37.999 74.845-25.608" fill="#cac7c4"/>
 <path d="m78.636 153.24c0.61267 0.38492 1.235 0.73455 1.8669 1.0425 20.742 9.9131 64.716-10.184 70.691-35.159 0.0642-0.34002 0.16038-0.68965 0.19245-1.0393-16.442 23.096-51.805 40.376-72.762 35.159" fill="#cac7c4"/>
 <path d="m200.39 237.33c-5.6016-12.085-16.454-27.656-17.744-30.293-1.5718-3.2366-2.2422-6.1447-0.64475-7.6157 2.409-2.2165 7.8871-11.282 4.0738-25.077-2.7618-9.992-15.503-21.002-22.7-18.796-8.521 2.6014-6.7442 11.769-18.807 17.031-3.3498 1.4595-8.4985 1.7546-10.728 0.32077 0.0321 0.40738 0.19247 0.89495 0.47475 1.5718 3.0441 7.0951 11.237 13.794 24.929 10.773 1.3922 4.5832 4.2435 9.5397 9.9243 14.36 0.76985 0.65759 2.239 5.081 1.8893 8.34-0.25661 2.5116-0.82759 4.0962-0.94947 7.7626-0.0962 3.3835 4.9562 16.997 11.768 27.419 7.8082 11.95 18.547 22.813 21.354 22.417 3.0441-0.44266 2.4667-16.77-2.8388-28.211" fill="#516d75"/>
 <path d="m158.02 177.07c-5.7485 3.8929-19.916 3.2706-23.572-2.2967 3.1564 6.9822 11.305 13.455 24.805 10.467 0 0.0117 0.0117 0.0321 0.0227 0.0642l0.0117-0.0321c-0.9174-2.5116-1.3023-6.4728-1.267-8.1928" fill="#465e65"/>
 <path d="m183.37 208.29c-1.6969-2.8067-3.4063-7.0047-1.3697-8.8716 1.6167-1.4723 4.5832-5.9978 5.2507-12.934-3.8361 13.319-17.381 13.149-26.423 2.749 1.6648 3.3947 4.2775 6.9142 8.3397 10.366 0.64475 0.55493 1.7771 3.7116 1.9246 6.6425 4.7186 5.5901 10.026 4.5941 12.278 2.0497" fill="#465e65"/>
 <path d="m170.98 160.38c-5.4996 0.75703-11.746 5.1038-12.063 15.277 5.4092-8.1928 19.441-9.8676 26.163-4.0738-1.5172-3.3947-3.9946-6.7554-6.8574-9.5394-2.1716-1.2221-4.9225-1.9792-7.2424-1.6648" fill="#e9e5e2"/>
 <path d="m200.39 237.33c-0.0642-0.12826-0.12827-0.25661-0.19245-0.38493-5.8502-4.6396-16.77 0.0642-17.381 7.6045 7.7062 11.373 17.71 21.376 20.403 20.991 3.0441-0.44266 2.4667-16.77-2.8388-28.211" fill="#e9e5e2"/>
 <path d="m215.06 34.438c-0.32077-2.3096-2.3545-3.8133-3.0794-3.8586-0.45229-0.0321-2.2743 0.4972-4.3112 1.4595-3.8589-3.3835-6.6088-15.752-7.6725-20.233-0.48757-2.0722 0.417-7.0611-3.542-7.1744-2.6816-0.0642-3.9493 0.83721-5.1262 0.79231-16.872-0.71211-16.046-5.7601-21.297-4.255-5.013 1.4274-3.4967 8.2836-0.32078 10.241 2.0594 1.267 1.1869 5.6805-1.652 6.5521-8.8379 2.7041-11.486 5.9862-9.3809 8.6679 1.8669 2.3865 10.535 1.6167 13.251-6.0651 0.80514-2.2871 6.3372-8.4873 8.5097-7.2539 1.267 0.70248 0.79231 3.429 2.4892 3.8589 3.4743 0.89495 5.8053-4.3567 6.8914-4.1755 2.2069 0.34964 2.3095 0.22454 2.8869-0.44267 0.0642-0.09617 0.22454-0.16038 0.36246-0.25661 0.99439 2.2069 4.8209 15.989 4.8321 18.174-1.2574 1.4018-1.9471 1.097-2.7169 0.0642-1.3023-1.7771-2.5694-3.644-5.5561-3.1917-2.9768 0.44266-4.2775 3.4175-5.2055 4.5489-1.8893 2.3096-2.8966 3.7344-1.5942 5.2055 0.91741 1.0521 3.1243 1.2446 6.3256-0.40739 0.34964-0.19245 0.6672-0.46512 0.94948-0.80192-0.0321 10.184 0.78268 14.666 3.3046 18.128 0.72494 0.98477 1.5044 1.4146 1.5942 3.0794 1.065 17.495-16.59 46.962-17.8 50.594-1.1772 4.0286-0.22454 14.394 3.5532 14.394 3.61 0 16.974-37.558 20.935-54.996 1.0393-4.5719 2.2967-6.937 5.4428-10.886 3.361-4.2207 6.5296-7.7967 7.446-11.588 0.63513-2.6014 0.89495-7.0839 0.47475-10.173" fill="#516d75"/>
 <path d="m201.57 18.173c-0.68966-2.5694-1.2221-4.8998-1.5718-6.3596-0.48757-2.0818 0.4202-7.0611-3.542-7.1856-2.6816-0.0642-3.9493 0.85005-5.1259 0.79231-16.873-0.71211-16.046-5.7601-21.297-4.255-5.013 1.437-3.4967 8.2948-0.32077 10.252 2.0593 1.2574 1.1868 5.6693-1.652 6.5408-8.8379 2.7041-11.486 5.9862-9.3809 8.6794 1.8669 2.3769 10.535 1.6167 13.251-6.077 0.80513-2.2871 6.3371-8.4757 8.5097-7.2536 1.267 0.71211 0.79231 3.429 2.4892 3.8589 3.4743 0.89495 5.8053-4.3452 6.8918-4.1755 2.2069 0.34964 2.3096 0.22454 2.8869-0.42983 0.0642-0.09617 0.22454-0.19247 0.36247-0.25663 0.47474 1.065 1.5942 4.7641 2.6464 8.5886 1.8893 1.652 5.3412 0.74741 5.8505-2.7169" fill="#2ea7c2"/>
 <path d="m199.39 51.352c5.6468 0 13.624-7.7627 15.526-17.563-0.55495-1.9343-2.2871-3.1692-2.9319-3.2138-0.45229-0.0321-2.2742 0.51003-4.3115 1.4595-2.6014-2.2743-4.6849-8.6002-6.0992-13.862-0.51001 3.4627-3.9609 4.3679-5.8505 2.7169 1.1323 4.1642 2.1844 8.4533 2.1844 9.5962-1.2574 1.3921-1.9567 1.0874-2.7169 0.0321-1.3023-1.7642-2.5694-3.6327-5.5564-3.1917-2.9768 0.45229-4.2775 3.4172-5.2052 4.5601-1.8893 2.2967-2.8966 3.7232-1.5942 5.2055 0.91741 1.0425 3.1243 1.2318 6.3256-0.42022 0.34965-0.19247 0.65758-0.45229 0.94949-0.79231-0.0117 1.0746 0 2.0722 0.0117 3.0217 0.73456 5.8278 5.3639 12.436 9.268 12.436" fill="#e84283"/>
 <path d="m149.69 29.668c-0.57739-1.2446-2.6014-1.5397-4.0626-0.7474-1.437 0.76985-2.3865 2.4667-1.8893 3.5872 0.4202 0.92702 2.3096 1.4499 3.9833 0.63192 1.7771-0.8725 2.3641-2.6239 1.9695-3.474" fill="#2ea7c2"/>
 <path d="m157.1 49.222c-1.0521-1.7546-4.4019-1.3921-6.5861-0.12827-2.5565 1.4948-3.5304 4.0398-2.6816 5.8278 0.76985 1.6167 3.8364 2.2294 6.7105 0.42983 2.7394-1.7097 3.6552-4.3227 2.5566-6.1447" fill="#2ea7c2"/>
 <path d="m74.057 211.78c-0.22454-0.28869-0.85003-0.19247-1.312 0.19247-0.47473 0.38491-0.65758 0.92702-0.42983 1.2221 0.22454 0.28869 0.80192 0.22454 1.2799-0.16039 0.46512-0.37209 0.70248-0.9623 0.46512-1.2574" fill="#f3a8bb"/>
 <path d="m102.28 246.59c-0.22454 0.6672-1.4499 0.79229-2.6014 0.39776-1.1548-0.39776-1.7995-1.3472-1.4948-1.992 0.32077-0.63513 1.1772-0.1604 2.2197 0.25661 0.88212 0.37209 2.1171 0.59984 1.8797 1.3344" fill="#afd6e2"/>
 <path d="m204.78 35.367c-0.71211 0.51964-1.0746 1.2318-0.77946 1.6295 0.28868 0.40738 1.1195 0.34964 1.8444-0.19247 0.76985-0.56456 1.1419-1.4723 0.90458-1.7867-0.2887-0.40739-1.267-0.16039-1.9695 0.34002" fill="#f3a8bb"/>
 <path d="m200.94 38.853c-0.0642-2.3865 2.4346-4.4924 5.0922-5.9747-1.0874-0.34002-2.9992-0.48757-5.5224-0.0321-4.6961 0.83721-7.5365 3.3723-7.276 5.7598 0.25661 2.2743 4.4244 5.149 8.2268 4.8433 0.0962-0.28869 0.42983-1.267 0.587-1.5044 1.3569 0.71211 4.6509-0.55494 5.3412-1.6744-4.4244 1.1419-6.4388-0.94948-6.45-1.4146" fill="#c93872"/>
 <path d="m152.63 50.681c0.32076 0.417 0.0642 1.1644-0.4972 1.6199-0.56456 0.44266-1.2574 0.42983-1.5718 0.02274-0.32077-0.4202-0.16038-1.0746 0.42022-1.5172 0.56454-0.45228 1.3344-0.5421 1.652-0.12827" fill="#afd6e2"/>
 <path d="m173.38 2.9652c-1.2125-0.39455-2.2197 0-2.3865 0.68002-0.19247 0.68004 0.51964 1.4723 1.7546 1.7867 1.6872 0.42983 2.6015 0.16038 2.7843-0.56456 0.16038-0.68004-0.98478-1.5269-2.1492-1.9022" fill="#afd6e2"/>
 <path d="m113.56 153.06c-9.1096-0.19246-17.506-6.2464-23.764-17.166-9.2453-16.159-11.112-38.35-4.3567-50.142l-2.1171 1.5044c-5.6468 12.527-3.4855 33.654 5.4316 49.236 5.8958 10.309 13.681 16.42 22.247 17.585z" fill="#282f37"/>
 <g fill="#0f141b">
  <path d="m45.244 105.06c-13.489 0.57738-33.914 8.9286-43.42 17.665 1.5397 1.097 4.1983 3.1564 5.6809 5.1375 16.815 22.519 35.974 32.817 64.026 34.401 1.7642-2.4539 4.8885-6.8918 7.0727-8.9171l1.5622 0.72494c-2.1941 1.8316-5.873 7.1856-7.3553 9.2113-0.4972 0.68003-0.77948 0.7474-1.4948 0.70248-28.426-1.6071-47.923-12.267-64.966-35.08-1.482-1.9695-4.4244-4.4812-5.7258-5.4092-0.82758-0.587-0.83721-0.85966 0-1.6295 9.449-8.7586 28.754-17.189 42.696-18.298z"/>
  <path d="m65.857 128.46c-5.081-2.0497-13.568-2.4667-16.85-2.0722-0.99439 0.12827-0.88212 0.91741 0.12827 0.8276 3.6324-0.3272 13.036 0.9623 16.805 2.6945z"/>
  <path d="m70.187 95.087c-7.3893 2.7394-20.143 4.1758-29.954 4.4247 5.1147 6.6425 17.37 12.764 27.181 11.599l-0.37209 1.5044c-10.728 1.0297-23.526-6.3259-27.86-12.652-0.9623-1.4146-0.81475-1.5044 0.83721-1.5397 9.1436-0.19246 20.414-1.7995 27.905-4.1983z"/>
  <path d="m74.781 75.763c-14.858-1.8092-26.559 2.5918-28.641 3.6552 1.4018 1.9022 10.399 10.411 25.28 15.752 1.2799 0.46511 1.065 1.1997-0.22454 0.82438-14.021-3.9606-24.658-13.806-25.789-15.492-0.9174-1.3793-1.097-1.482 0.36248-2.1844 3.1468-1.5269 14.734-5.4204 28.494-3.9038z"/>
  <path d="m104.47 65.13c-16.125-7.3553-25.586-17.992-30.316-23.832-1.6167-1.992-1.6424-1.7322-2.1492 0.64474-3.61 16.872-1.4146 32.918 6.5068 40.104 1.0521 0.94948 1.5172 0.41699 0.53247-0.59984-9.9808-10.32-7.0614-32.387-5.873-39.301 4.9222 6.0202 14.462 17.065 31.244 24.85z"/>
  <path d="m123.68 59.379c2.5918 7.1179 6.3936 15.164 11.893 23.141l-2.919-1.4595c-5.4544-8.6226-9.0416-17.144-11.35-24.42z"/>
  <path d="m112.94 42.906c-4.8661 6.801-9.0303 17.314-7.8082 28.675 0.16038 1.3921-0.59984 1.482-0.83722 0.12827-1.8669-10.863 1.7097-22.179 8.1136-30.203z"/>
  <path d="m134.49 68.232c-1.1644 1.0874-3.8589 5.4432-4.3227 7.4913l-0.88212-1.6744c0.89495-2.2743 2.8869-5.4092 4.0398-6.6765z"/>
  <path d="m179.07 105.02c8.1588-25.959 2.4314-46.147-16.997-60.417-14.541-10.671-27.283-11.69-51.432-15.876-1.1419-0.19245-1.2221 0.0642-1.2895 1.1772-0.51003 8.6679 6.8007 30.893 33.201 44.155 20.346 10.218 26.276 23.436 24.963 32.172-0.19245 1.2799 0.56456 1.4371 0.82759 0.0962 1.7995-9.2677-3.5419-22.666-25.156-33.541-26.457-13.296-32.964-36.494-32.624-42.865 25.62 4.4359 36.54 5.6013 50.504 15.854 19.203 14.089 24.624 33.665 16.555 59.817z"/>
  <path d="m155.92 107.77c-0.25661-10.931-7.3216-22.971-15.933-27.475-1.1997-0.63514-0.89495-1.3569 0.32077-0.75703 10.807 5.3976 16.827 18.536 16.329 28.154-0.0642 1.437-0.68004 1.482-0.71211 0.0642"/>
  <path d="m160.56 86.368c-1.9792 2.502-5.907 10.909-5.8165 12.731l-0.7474-2.1844c1.1195-3.4855 3.9946-9.3017 5.7598-11.452z"/>
  <path d="m162.19 124.14c-1.097-0.46512-5.0698-2.0273-6.4276-2.7394-0.63513-0.32719-0.96231 0.0962-0.25662 0.68004 0.6672 0.57739 5.975 3.089 6.2127 3.1692z"/>
  <path d="m95.988 156.69c13.081-0.22454 27.362-4.979 36.37-7.1628 2.1042-0.51003 4.945 1.7642 6.6085 5.2959 1.097 2.332 2.0722 7.5477-3.7569 16.204-0.85967 1.2895-1.0521 1.5493-0.34002 3.2138 3.0217 7.0159 11.033 13.432 24.466 10.366l0.3721 1.4018c-13.466 3.1564-22.587-3.0441-26.174-11.418-0.9976-2.2967-0.46513-2.919 0.44266-4.3567 5.4996-8.1588 4.8885-12.798 3.8929-14.903-1.4948-3.1692-3.9041-4.9566-5.2167-4.6284-10.988 2.6592-36.494 11.35-50.888 4.9338z"/>
  <path d="m116.24 182.28c-5.0242-2.502-8.8039-7.0836-9.0528-10.58-0.16038-2.1716 0.88212-5.7033 2.7843-7.4008 4.0626-3.6324 15.254-3.3383 24.703-13.692l0.98476 0.70249c-9.4152 10.422-21.172 11.01-24.669 14.156-1.6071 1.4242-2.4539 4.3003-2.332 6.1335 0.22454 2.9543 3.1468 6.5405 7.1968 8.8379z"/>
  <path d="m108.11 171.71c-8.0571 5.2735-37.207 13.455-42.888 19.803-2.2743 2.5469-2.3641 13.772-1.4242 20.086 0.53247 3.5644-0.25662 5.5785 1.7193 6.2124 2.6014 0.85005 7.5705-0.9174 9.8339-3.4967 1.2093-1.3793 1.4948-2.7618 0.85966-4.0962-1.1323-2.3994-6.1787-1.1099-7.4913 3.1692-0.25661 0.80192-0.93986 0.68965-0.74739-0.12827 1.3344-5.7033 7.7174-6.9707 9.3357-3.5647 2.7041 5.7033-7.661 10.852-12.278 9.3697-2.9094-0.93986-1.9695-4.1642-2.4314-7.2876-0.8725-5.8954-1.2895-18.117 1.482-21.218 6.2011-6.9254 36.608-14.926 43.861-20.21z"/>
  <path d="m74.917 215.59c2.5341 5.3187 8.1024 15.186 10.852 16.024 3.2706 0.9944 4.5944-2.5116 7.3896-1.0425 1.6424 0.8725 0.68004 2.3994 0.79231 2.672 0.53247 0.38493 3.3495 0.2887 3.9606-0.19245 4.1983-3.2818 7.1519-4.0173 8.8039-1.4595 1.0746 1.652 0.57738 3.8586-2.1716 5.2279-1.0072 0.51002-1.1997 1.3793-0.5421 2.0369 4.6621 4.6624 5.047 9.2 1.3472 11.542-6.1107 3.8589-10.524-5.2051-14.994-7.593-3.3043-1.7546-10.094-4.4812-11.724-7.729-0.99439-1.992-5.839-9.6979-9.1208-16.782l1.1772-0.34965c2.7265 5.8618 8.4305 14.926 9.2113 16.488 1.4595 2.919 9.0416 6.2464 11.022 7.3104 4.6621 2.4796 8.8603 10.66 13.579 7.525 2.9864-2.0016 2.7394-5.4656-1.3569-9.5619-1.2895-1.2799-0.82759-3.1115 0.87249-3.9609 2.1043-1.065 2.2294-2.3769 1.5718-3.3947-1.1323-1.7418-3.1243-1.3248-6.9254 1.652-1.0072 0.77947-4.4247 0.93985-5.3867 0.25662-1.267-0.92704 0.19247-1.9567-0.7923-2.4796-2.0144-1.065-3.1339 2.1845-7.0611 0.98478-3.259-0.98478-8.8154-10.886-11.463-16.397z"/>
  <path d="m73.121 208.49c-0.19247-2.2743-0.2887-4.6056-0.32077-4.9222-0.0642-1.1997-0.7474-1.4146-0.8725 0.0321-0.02274 0.28869-0.02274 2.749 0.09617 5.1715z"/>
  <path d="m76.373 213.67c5.6241 1.2574 11.984-2.1492 11.769-5.1715-0.09617-1.2895-1.3569-2.1492-3.9493-1.7322-1.6423 0.25662-3.5307 1.652-4.2435 2.8741-0.65757 1.142-1.1419 0.66721-0.7474-0.36247 0.68004-1.7642 2.8388-3.508 4.7756-3.8246 3.5756-0.57739 5.3864 1.065 5.5108 2.8869 0.32077 4.2435-7.2876 8.3513-13.919 6.3708z"/>
  <path d="m81.213 207.55c-0.76985-6.8347-4.7981-13.059-6.2239-15.186 4.0738-2.4443 29.467-11.339 37.807-13.319l-1.2574-1.0874c-8.7246 2.2518-32.658 10.694-37.207 13.398-1.1869 0.71211-0.81476 0.98476-0.32077 1.7193 1.482 2.2069 5.6128 8.9511 5.9975 15.888z"/>
  <path d="m138.87 161.74c-13.704 2.5565-22.01 12.414-22.406 15.945-0.60946 5.5788 3.1468 10.807 3.9606 11.452 2.5918 2.0497 6.5973 3.1692 13.297 3.6889 1.1869 0.0962 1.3922 0.38493 0.76985 1.3793-2.1844 3.4855-3.3382 5.2395-4.9562 5.3075-3.3723 0.16038-9.8111 0.79229-15.051 3.4059-6.9594 3.4855-11.859 8.5777-12.119 11.169 2.9768 1.2574 32.998-2.3192 34.797-4.1982 2.4892-3.1468 8.6114-18.06 8.3173-19.599-0.32076-1.4595-5.5561-3.1339-10.433-5.2167l3.7229 0.16038c3.6664 1.4595 7.6157 2.7169 8.0459 4.6964 0.47475 2.1492-6.3256 18.072-8.6342 20.968-1.6969 2.1395-30.225 5.7938-35.793 4.5716-1.4595-0.32077-1.6969-0.8725-1.1869-2.3416 1.1419-3.3607 6.4616-8.4077 12.674-11.508 5.1715-2.5918 11.26-3.3042 15.492-3.4967 0.9623-0.0321 2.1492-1.4499 3.8361-4.119-6.7105-0.56456-10.965-1.5942-13.704-3.7681-0.93986-0.73456-5.1375-6.5296-4.4584-12.686 0.49719-4.5376 10.456-14.937 24.126-17.314z"/>
  <path d="m141.16 203.84c-1.142 1.0072-1.9567 1.0425-2.4892 0.77947-1.6295-0.77947-0.99439-4.3227 0.48757-7.4233 1.4723-3.1019 3.8249-5.8278 5.4656-5.047 0.45227 0.22454 0.73455 0.64476 0.85966 1.2221l-1.6424 3.7116c0.71211-2.162 0.64475-3.6549 0.25662-3.8473-0.56456-0.25661-2.4443 1.5172-3.8589 4.4812-1.5172 3.1917-1.5493 5.5788-1.0521 5.8166 0.5421 0.25661 2.5918-1.6744 3.8586-4.4812z"/>
  <path d="m124.81 213.04c-3.9266-3.9718-3.0666-9.1205 5.4996-14.281l-2.5341 0.25662c-7.1631 4.9562-7.8874 10.23-4.3227 14.337z"/>
  <path d="m149.53 185.77c-5.1827 0.66721-20.788-0.40738-23.3-1.2446-1.2895-0.42984-0.96232-1.0521 0.2887-0.76985 2.8613 0.66719 12.108 1.0746 19.056 0.90457z"/>
  <path d="m173.78 158.21c-3.8589-5.6465-10.818-10.705-15.163-12.844l-1.9695 0.32077c3.2254 1.6424 9.8903 5.8958 14.292 11.18z"/>
  <path d="m188.35 107.95c2.8741 6.3824 4.3227 18.038 0.80513 23.764-4.2662 6.9367-28.494 14.53-35.318 15.118-1.4242 0.12827-1.3793-0.6223-0.12827-0.82759 8.7923-1.4595 30.451-8.9399 34.265-15.141 3.0313-4.9338 1.9567-14.835-0.32076-20.856z"/>
  <path d="m178.77 104.22c-5.5224 1.8893-12.187 6.5861-13.738 10.762-6.3596 17.042-12.029 23.639-19.577 27.792-1.0874 0.59984-0.85968 1.2799 0.28868 0.76985 6.5181-2.8613 13.546-9.0191 20.595-27.917 1.3344-3.5872 6.7218-7.5137 11.452-9.4826z"/>
  <path d="m169.9 141.92c1.6648 0.79231 4.4132 1.7642 5.1939 1.9022 0.25662-0.34001 0.82759-1.4723 2.162-4.9902l1.4948-0.5421c-2.1941 5.9182-2.7169 6.733-3.1917 6.9027-0.92702 0.34963-6.5181-2.2871-7.3104-2.7715z"/>
  <path d="m203.75 40.493c-0.68004 0.45229-2.0722 3.0313-2.4539 4.9453-0.25662 1.2125-0.93986 1.065-0.7923-0.0642 0.22454-1.7097 1.065-4.0738 1.8893-5.1602z"/>
  <path d="m208.55 31.757c-4.1418-2.7843-7.5253-18.23-7.9667-20.086-0.45229-1.9022 0.45228-7.5025-4.119-7.6382-2.3994-0.0642-4.3567 0.81475-5.1147 0.77947-16.929-0.71211-15.911-6.1219-21.557-4.5152-5.4432 1.5493-4.1418 9.3245-0.39774 11.633 1.5942 0.97193 0.76983 4.5601-1.5718 5.2732-8.8039 2.6945-12.482 6.6877-9.8903 9.9808 2.0946 2.672 11.826 2.162 14.62-6.2351 0.81476-2.4443 6.1107-7.9551 7.5933-7.1179 0.9174 0.51964 0.46512 3.5307 2.502 4.0513 3.61 0.9174 6.1671-3.8817 7.1404-4.3455 2.162 0.34964 2.5694 0.32076 3.361-0.5774 0.12827-0.16038 0.85967-0.59984 1.5622-0.72494 1.142-0.19247 0.71211-0.82759-0.0642-0.74739-0.93986 0.09617-2.0241 0.25661-2.3994 0.68004-0.41701 0.48757-0.55493 0.44266-2.409 0.16038-1.6744-0.25661-3.6096 5.081-6.7442 4.2662-1.1772-0.28869-0.68965-3.0794-2.162-3.9041-2.4892-1.4018-8.3176 4.1418-9.5622 7.6834-2.5469 7.1971-10.626 7.9102-12.199 5.8958-1.5397-1.9567-0.0962-4.9226 9.0868-7.7174 3.395-1.0425 4.2663-6.1107 1.7867-7.6385-2.7041-1.6648-4.3227-7.8759 0.1604-9.1545 4.7978-1.3697 4.4584 3.5756 21.093 4.2775 1.3697 0.0642 2.6816-0.85966 5.1375-0.79231 3.327 0.09617 2.4571 4.5036 2.9768 6.7102 0.47474 2.0016 3.4627 16.488 7.7402 20.448z"/>
  <path d="m193.63 12.096c1.097 2.5341 4.8773 16.205 4.8773 18.4 0 0.68004-0.0962 2.2165-0.64474 3.3155-0.47475 0.93986-1.065 0.74741-0.74739-0.28869 0.25661-0.82438 0.19245-2.0593 0.19245-3.0313 0-2.0273-3.6776-15.356-4.7189-17.8z"/>
  <path d="m197.91 31.342c-1.312 1.1868-2.3544 0.72494-3.2138-0.45229-1.3922-1.9118-2.4443-3.3267-4.979-2.9543-2.6816 0.40739-4.187 3.5647-4.8209 4.3455-2.024 2.4667-2.5116 3.3947-1.6167 4.4132 0.65759 0.74741 2.5245 1.0521 5.6013-0.5421 0.96232-0.49719 1.9342-1.992 2.3416-3.4852 0.22454-0.85966 1.0072-0.70249 0.83722 0.19247-0.37211 1.822-1.2799 3.7681-2.6688 4.4924-2.8164 1.4595-5.7938 1.8444-7.2084 0.22454-1.7322-1.9567 0.0642-3.9946 1.7771-6.0654 1.0425-1.2799 2.0722-4.3455 5.3752-4.9338 3.542-0.63512 5.3187 2.1941 6.3484 3.5984 0.59984 0.82759 0.89496 1.1869 2.2294-0.77947z"/>
  <path d="m190.71 35.009c-0.0321 11.056 0.72494 15.265 3.1917 18.649 0.58701 0.80514 1.5942 1.4723 1.7193 3.3947 1.0746 17.721-16.703 47.392-17.834 50.821-1.1548 3.9153-0.0642 13.602 2.9768 13.602 2.9094-0.40739 16.035-35.566 20.346-54.532 1.0168-4.5036 2.2646-6.9931 5.5564-11.124 2.3416-2.9415 6.4161-7.5477 7.3328-11.35 0.64476-2.6816 0.84684-7.0499 0.46513-9.9471-0.25662-2.0144-2.0818-3.3267-2.5341-3.3495-1.1548-0.0321-10.513 3.5307-10.377 7.661 0.22454 0.7474 5.9182 2.9543 9.4262-1.437 0.70249-0.87249 1.2093-0.34964 0.53248 0.58702-3.6664 5.0922-11.18 3.1243-11.293 1.0072-0.28869-5.5561 10.241-9.4262 11.769-9.2905 1.0521 0.0642 3.4515 2.1492 3.8021 4.6961 0.40737 3.0217 0.19245 7.5821-0.48758 10.388-0.99439 4.0853-4.8209 8.1816-7.695 11.792-3.1917 4.0058-4.3343 6.2916-5.3187 10.637-3.6324 15.967-17.11 55.754-21.523 55.754-4.6284 0-5.4884-11.543-4.3795-15.322 1.2799-3.8589 19.079-33.145 18.027-50.527-0.0962-1.3793-0.80193-1.822-1.482-2.749-2.579-3.542-3.7681-8.0456-3.4287-17.902z"/>
  <path d="m201.17 238.78c-5.0922-6.7102-17.981-1.5172-17.755 6.6313l-1.1323-1.4242c1.0072-7.2876 11.078-11.927 17.416-8.1248z"/>
  <path d="m203.98 265.54c-0.16038-4.6509-3.7004-17.189-7.5477-24.013-0.59022-1.0425-1.2221-0.65758-0.71211 0.41701 2.9768 6.2464 6.8462 18.671 7.0047 23.866z"/>
  <path d="m183.26 168.21c25.721 2.3641 43.363 28.46 43.725 52.744 0.58701 39.606-33.416 65.396-68.326 74.46 0.16038-3.61 8.0796-19.871 10.332-21.998l-3.1339 1.9342c-1.9695 3.1788-8.0459 14.949-8.3965 19.769-0.12827 1.8893 0.19245 2.0273 1.652 1.6424 41.394-10.875 69.843-39.572 69.311-75.806-0.39455-26.049-19.045-52.167-46.136-54.294z"/>
  <path d="m168.16 240.47c-13.919-2.749-27.792 0.57739-30.135 2.6592 0.74739 1.3921 7.1971 7.5933 15.707 9.4489 2.3545 0.51003 2.3994 1.2221 0 1.4724-2.7715 0.25661-7.763 1.8669-9.449 2.7843 1.3344 0.72494 5.6013 2.0722 11.724 1.8573 2.3096-0.0962 2.8869 0.417 0.63513 1.6167-11.588 6.1447-17.314 18.061-17.302 21.003 6.0202 2.0369 24.692-2.6143 31.425-10.15 0.97193-1.0874 1.6295-0.68004 0.65757 0.47475-7.8646 9.3017-25.133 12.957-32.172 11.237-1.267-0.32077-1.6071-0.38493-1.3793-1.992 0.57739-4.2775 6.5633-14.903 16.985-20.969-1.7418 0.0321-8.0456-0.16038-11.407-2.0594-1.3248-0.73457-1.3568-1.3569 0-2.0946 1.6295-0.88212 5.2619-1.9471 8.0007-2.5245-6.6765-2.0273-12.301-6.484-14.225-8.9399-1.0874-1.3697-1.0072-1.7995 0.25663-2.5918 3.6548-2.2967 15.526-4.5036 27.735-2.9768z"/>
  <path d="m176.97 234.96c-6.9254-3.9266-15.118-4.911-17.936-4.2319 0.48757 1.9246 5.0355 9.4034 16.555 11.95 1.1323 0.25661 1.0425 0.94948-0.0642 0.74739-11.758-2.1844-16.431-8.9399-17.54-11.984-0.48757-1.3344-0.44266-1.8316 1.065-2.0946 3.3267-0.57738 11.633 0.7474 17.132 3.8133z"/>
  <path d="m193.71 258.21c-4.5944 8.0007-15.152 10.977-19.339 10.173-1.3921-0.25661-1.7995-0.82438-1.3344-2.2871 0.3753-1.1997 4.1306-10.422 9.4942-15.333 0.81475-0.74739 1.3344-0.22454 0.59984 0.58701-4.8093 5.2959-8.6682 13.93-8.9963 15.605 3.3835 1.3248 14.157-2.0016 18.706-9.6526z"/>
  <path d="m194.49 226.49c15.107-13.658 9.0868-42.808-7.593-48.512l0.0642 1.5269c15.537 5.771 20.165 32.522 6.801 45.592z"/>
  <path d="m145.92 29.451c-1.1644 0.63512-1.9792 2.0241-1.6295 2.8067 0.25661 0.59984 1.8091 0.99439 3.1692 0.34002 1.482-0.72494 1.9342-2.1395 1.6872-2.672-0.47473-1.0168-2.2518-1.0072-3.225-0.47474m4.3227-0.0321c0.56455 1.2093-0.25662 3.293-2.2518 4.2662-2.0016 0.97193-4.2435 0.32077-4.7981-0.92702-0.61267-1.3793 0.39455-3.4175 2.1492-4.3679 2.0722-1.1195 4.2659-0.32077 4.8998 1.0297"/>
  <path d="m150.82 49.626c-2.162 1.2574-3.2138 3.429-2.4443 5.0586 0.62229 1.2799 3.259 1.7867 5.839 0.16039 2.3416-1.4595 3.3383-3.7004 2.3641-5.3187-0.90458-1.5172-4.085-0.88212-5.7598 0.09617m6.801-0.71211c1.3248 2.2069 0.16039 5.1375-2.7618 6.9707-3.2478 2.0369-6.6538 1.2318-7.5705-0.68965-1.0393-2.1844 0.22453-5.0358 2.919-6.6085 2.5245-1.4819 6.1899-1.7097 7.4121 0.32719"/>
  <path d="m134.01 173.69c2.7169 1.2895 7.7402 0.76985 10.796-0.55495 12.21-5.3296 10.581-14.518 18.739-17.008 6.5405-2.0016 19.136 8.1816 21.942 18.389 3.7569 13.602-1.6969 22.44-3.9041 24.466-1.6424 1.5044-1.4723 4.2322 0.51965 8.3173 1.0072 2.0722 12.437 18.841 17.733 30.282 5.873 12.674 5.1939 27.091 3.3043 27.362-2.1267 0.2887-12.21-9.0644-20.754-22.146-6.9139-10.569-11.768-24.069-11.678-27.068 0.12827-3.259 0.68965-5.3979 0.94948-7.729 0.34964-3.2703-1.0746-7.9891-2.1042-8.8603-12.301-10.433-11.271-21.557-10.92-28.064 0.0642-1.3569-0.59984-1.4723-0.7923-0.12827-1.2125 8.6454-0.7474 19.95 10.728 29.173 0.56456 0.45229 2.0594 4.5376 1.7193 7.6838-0.25661 2.2069-1.1195 3.983-1.2446 7.6946-0.12827 3.61 5.3524 17.631 12.063 27.905 6.6653 10.196 15.843 19.939 20.335 22.225 2.1042 1.0746 2.3641 1.1548 3.3043-0.73455 1.8893-3.7684 1.1772-17.585-3.5872-27.871-5.8165-12.538-16.272-27.385-17.743-30.395-1.1772-2.409-2.2422-5.2167-0.76985-6.5633 2.3416-2.162 8.238-11.837 4.3115-26.027-2.9768-10.796-16.442-21.557-23.707-19.339-8.7586 2.6816-7.0951 12.142-18.932 17.314-3.7004 1.6071-8.9283 1.5846-10.513 0.0962z"/>
  <path d="m67.895 111.86c-5.2619 19.849 2.409 36.879 12.866 41.881 20.12 9.6074 63.879-9.7996 69.843-34.752 3.8813-16.227-10.015-36.324-23.209-39.493-23.073-5.5224-51.918 3.7796-59.5 32.364m84.395 7.1859c-6.0314 25.269-50.232 46.373-72.378 35.793-10.909-5.2052-18.943-22.824-13.523-43.273 8.0119-30.18 38.282-39.097 61.808-33.462 16.205 3.8813 27.498 26.729 24.092 40.942"/>
 </g>
 <path d="m107.9 125.39c4.7981 8.306 4.4924 16.08-10.049 21.523-10.218 3.8249-18.219 0.587-21.172-5.907-4.5152-9.9243-1.9471-19.566 4.1415-23.062 7.661-4.4135 20.448-4.0286 27.079 7.4457" fill="#3d4052"/>
 <g fill="#0f141b">
  <path d="m85.012 135.43c-4.119-4.5604-6.733-13.704-2.919-18.162l-2.0016 0.88212c-2.6015 5.0242-0.19247 13.41 4.0286 18.094z"/>
  <path d="m84.525 126.97c-0.25661-0.44265 0.0642-1.312 1.3344-2.0497 1.3023-0.7474 2.5245-0.90458 2.8067-0.44267 0.25661 0.42984-0.39776 1.2799-1.7322 2.0594-1.1772 0.68002-2.0946 0.98476-2.409 0.42983"/>
  <path d="m74.596 125.49c0.0642-0.44267 1.0072-0.63512 1.9343-0.53248 1.097 0.12826 1.4242 0.57738 1.3697 1.0297-0.0642 0.44267-0.55494 0.85966-1.6167 0.70249-0.9174-0.12826-1.7418-0.75702-1.6873-1.1997"/>
  <path d="m76.127 132.6c-0.28869-0.28869-0.19245-1.1099 0.82759-2.1267 0.83721-0.85004 1.7097-0.93986 2.0144-0.63513 0.32718 0.34001 0.0321 1.142-0.71211 1.8894-0.77948 0.77946-1.8573 1.1419-2.1267 0.87249"/>
  <path d="m83.42 120.62c-0.65758 1.097-0.48757 1.9471-0.09617 2.1941 0.3753 0.22454 1.0746-0.0962 1.8316-1.1323 0.90456-1.2221 1.1099-2.5469 0.72494-2.7939-0.37209-0.22453-1.6648 0.40738-2.4539 1.7322"/>
 </g>
 <g>
  <path d="m77.152 113.76c-0.47474 0.0642-1.7867-0.0642-2.7618-0.47473-2.8869-1.235-4.5716-5.1715-4.6961-8.4642-0.92703 2.162-1.7418 4.4472-2.3865 6.8799-4.3567 16.42 0.09617 31.64 8.2836 39.21 3.1468-2.672 4.4812-18.932 1.5621-37.151" fill="#5a4398"/>
  <path d="m93.947 106.5c-0.79231 0.72495-2.4443 1.7322-3.3155 2.0497 15.944 13.692 47.369 19 61.016 7.8762 1.4723-13.964-9.2225-33.96-24.115-37.524-7.593-1.822-15.978-2.0594-24.058-0.47473-0.19247 10.331-4.8321 23.764-9.5282 28.075" fill="#5a4398"/>
  <path d="m67.31 111.7c-0.19245 0.68965-0.34002 1.3793-0.49719 2.0593 1.0393-1.7867 2.2518-3.5644 3.5984-5.3184-0.42983-1.1868-0.68002-2.4443-0.71211-3.6212-0.92702 2.162-1.7418 4.436-2.3865 6.8802" fill="#4e3885"/>
  <path d="m141.65 88.153c-3.9041-4.5149-8.7362-7.9551-14.111-9.2453-7.6045-1.822-15.979-2.0593-24.058-0.47474-0.0642 2.6143-0.38493 5.4207-0.93986 8.2268 11.644-3.4399 25.031-3.6664 39.108 1.4948" fill="#4e3885"/>
 </g>
 <path d="m99.625 108.16c4.2662 4.9453 19.69 9.9016 34.695 8.9059 8.8039-0.57738 15.186-5.2619 16.861-9.3133-2.3865-12.448-11.656-25.97-23.639-28.845-4.7073-1.1323-9.6979-1.6424-14.745-1.5044 1.2574 10.388-3.089 21.965-13.172 30.757" fill="#8cd6a3"/>
 <path d="m112.79 77.398c1.2671 10.388-3.1018 21.976-13.172 30.757 4.2659 4.9453 19.69 9.9016 34.695 8.9171 8.8039-0.5774 15.186-5.2619 16.861-9.3245-2.3865-12.436-11.656-25.97-23.639-28.833-4.221-1.0201-8.6682-1.5269-13.183-1.5269-0.51966 0-1.0393 0-1.5622 0.0117" fill="url(#radialGradient79377)"/>
 <path d="m141.65 88.155c-3.9041-4.5149-8.7362-7.9551-14.111-9.2453-4.7076-1.1323-9.7094-1.6424-14.745-1.5044 0.28869 2.3416 0.25661 4.7416-0.0227 7.1631 9.0076-1.0425 18.762-0.12827 28.879 3.5872" fill="#74b087"/>
 <path d="m73.998 117.31c-3.7456 0-6.2464-1.0521-7.4233-2.409-2.4667 12.391 0 23.832 5.1599 31.47 5.5676-5.873 2.8645-20.731 2.2646-29.06" fill="#8cd6a3"/>
 <path d="m71.728 146.36c5.5676-5.8618 2.8613-20.708 2.2743-29.048-3.7456 0-6.2579-1.065-7.4233-2.4218-2.4667 12.402 0 23.843 5.1487 31.47" fill="url(#radialGradient79385)"/>
 <path d="m117.72 87.928c-0.47473-0.19245-0.94948-0.0321-1.1868 0.45229-0.12827 0.25663-1.9343 3.4403-2.0593 3.678-0.2887 0.51966-0.12827 1.0425 0.22454 1.3248 0.70248 0.55493 3.5083 1.7771 4.2323 2.1844 0.44266 0.25661 0.98476 0.19246 1.3248-0.25662 0.19247-0.22454 2.1396-3.6892 2.2069-3.9609 0.12827-0.49718-0.0642-0.92702-0.47474-1.267-0.76985-0.65758-3.4059-1.8348-4.2547-2.162" fill="#d5ead7"/>
 <path d="m67.433 117.55c0.47474 0.25661 1.1644 0.64474 1.652 0.92702 0.45229 0.25663 0.44267 0.2887 0.34002 0.93986-0.16038 0.88212-0.40738 2.3416-0.53247 3.1243-0.0642 0.38493-0.16039 0.44267-0.59984 0.19246-0.45229-0.2887-1.0425-0.64475-1.4146-0.89495-0.34002-0.22454-0.36248-0.28869-0.34002-0.73456 0.0321-0.93986 0.09617-2.3192 0.22454-3.2815 0.0642-0.48757 0.25662-0.49719 0.68004-0.25661" fill="#d5ead7"/>
 <g fill="#0f141b">
  <path d="m76.032 151.3c3.5419-3.3267 4.4584-19.984 1.822-36.958-0.16039-1.02-0.19247-1.0746-1.405-1.1868-0.51964-0.0321-1.2446-0.19247-1.822-0.42984-2.9992-1.2799-4.6621-5.8958-4.2887-9.2225l-1.1548 2.5469c0.44266 3.2362 2.2165 6.6085 4.9678 7.7966 0.76985 0.32718 1.7642 0.51003 2.4892 0.53247 3.1788 20.459 0.9623 34.514-1.5172 36.155z"/>
  <path d="m66.355 115.55c1.4018 1.4018 3.9606 2.2646 7.0839 2.3545 0.61268 7.7517 3.089 22.395-2.0722 27.985l0.53248 1.1868c6.009-5.771 3.3947-21.365 2.749-29.184-0.09617-1.1323-0.12827-1.1548-1.3248-1.1997-3.9266-0.16038-6.0427-1.5397-6.6765-2.7394z"/>
  <path d="m104.09 78.042c-0.0962 10.4-4.7753 24.364-9.7319 28.913-0.61267 0.55494-1.6872 1.267-2.6014 1.7546 16.431 13.444 47.369 17.993 60.054 6.801l-0.2887 1.8091c-14.179 10.796-44.993 5.3072-60.858-7.9551-0.89495-0.74739-0.77947-1.065 0.34964-1.6295 0.85005-0.42983 1.9567-1.1548 2.5245-1.6744 4.6396-4.255 9.1772-17.857 9.3469-27.781z"/>
  <path d="m113.38 77.051c1.4595 11.033-3.3043 22.564-12.889 31.153 4.7413 4.7413 19.78 9.1888 33.79 8.2608 9.5846-0.63513 16.057-6.0654 16.85-10.535l0.51965 2.2871c-1.9342 4.3455-8.5662 8.8831-17.291 9.4605-13.806 0.9174-29.456-3.3046-34.774-8.6682-0.75702-0.76985-0.7474-0.94948 0.0642-1.6872 9.3245-8.34 13.953-19.52 12.516-30.18z"/>
  <path d="m76.286 111.63c-0.51966-0.97193-1.5397-2.0818-2.1267-2.6367-0.71211-0.68003-0.51964-1.4018 0.47475-0.75701 1.312 0.87249 2.2646 2.3096 2.4795 3.1243 0.2887 1.0746-0.32718 1.1997-0.82758 0.25661"/>
  <path d="m87.974 104.99c0.0642-1.065 0.42983-2.7843 1.1869-4.051 0.59984-1.0297 1.0746-0.70248 0.7025 0.3272-0.32719 0.93986-0.79231 2.842-1.0072 3.9266-0.28869 1.437-0.97193 1.3922-0.88212-0.19247"/>
  <path d="m67.895 111.86c-5.2619 19.849 2.409 36.879 12.866 41.881 20.12 9.6074 63.879-9.7996 69.843-34.752 3.8813-16.227-10.015-36.324-23.209-39.493-23.073-5.5224-51.918 3.7796-59.5 32.364m84.395 7.1859c-6.0314 25.269-50.232 46.373-72.378 35.793-10.909-5.2052-18.943-22.824-13.523-43.273 8.0119-30.18 38.282-39.097 61.808-33.462 16.205 3.8813 27.498 26.729 24.092 40.942"/>
 </g>
 <path d="m107.9 125.39c-6.6313-11.474-19.418-11.859-27.079-7.4457-6.0879 3.4964-8.6566 13.138-4.1415 23.062 2.0369 4.4812 6.4725 7.4121 12.391 7.5365 4.0058 2.8613 8.8263 4.4359 12.21 3.5756 4.9113-1.2446 7.6045-5.8842 8.2608-13.568 2.1395-4.0058 1.0521-8.4982-1.6391-13.161" fill="#3d4052"/>
 <path d="m84.249 135.44c-1.9343 1.652-2.5341 7.5365-1.5493 11.656 1.8444 0.88213 3.9833 1.3922 6.3708 1.4499 4.0173 2.8645 8.8267 4.436 12.21 3.576 4.9113-1.2574 7.6157-5.8842 8.272-13.579 0.75702-1.4146 1.097-2.8966 1.1195-4.4247-7.1067-3.5192-21.716-2.7041-26.423 1.3248" fill="#2f3141"/>
 <path d="m105.62 134.47c-0.55493-0.0962-1.1548-0.19246-1.8124-0.22454-4.1302 1.0297-6.5181 6.6201-6.7442 9.1888 2.9094 1.0521 5.8278 2.0593 7.0951 2.1042 1.4595-3.61 2.1941-8.1928 1.4595-11.067" fill="#2ea7c2"/>
 <path d="m105.81 138.85c0.16039-1.6295 0.12827-3.1564-0.19245-4.3792-0.55494-0.0962-1.1548-0.16038-1.8092-0.22454-3.4399 0.85967-5.6693 4.8773-6.4501 7.6834 2.1844-2.8388 5.6353-3.949 8.4417-3.0794" fill="#2892aa"/>
 <path d="m84.326 139.43c1.4723 0.39455 4.2435 0.37209 4.7301 0.0642 0.38492-0.22454 1.267-3.1243 1.4018-4.5716-3.0441 0.41701-5.3748 0.87251-5.771 1.097-0.12827 0.0642-0.32077 1.5622-0.36246 3.3947" fill="#e9e5e2"/>
 <path d="m89.531 141.16c-0.6223 0.62229 2.5694 7.9554 4.7189 9.9471 2.2871 0.25661 5.1487 0.0962 6.2011-0.44268 1.4146-0.73455 2.7266-2.7169 3.7004-5.1262-2.8067-0.0962-13.964-5.0358-14.62-4.3795" fill="#e9e5e2"/>
 <g fill="#0f141b">
  <path d="m97.664 143.5c0.22454-2.7618 2.9318-8.7359 7.8419-9.03l-2.9094-0.44266c-3.259 1.4499-6.0202 5.8842-6.1107 9.1208z"/>
  <path d="m103.92 146.13c-2.6271-0.22454-11.792-4.017-13.851-4.3904 0.28869 1.7097 3.4627 9.2565 6.2351 10.218l-3.0313-1.0201c-1.9118-2.3096-3.8589-7.2648-4.1418-9.1092-0.16038-0.98478-0.12827-1.3248 1.3793-0.98478 2.9543 0.66721 11.904 4.2547 13.975 4.0962z"/>
  <path d="m84.575 145.94c-1.2125-2.4218-0.79231-8.2493-0.6672-9.1997 0.16038-1.2318 0.22454-1.267 1.7995-1.6167 5.3636-1.1997 17.2-2.2967 21.433-0.68004 0.90458 0.34002 0.6223 0.99439-0.22454 0.73457-5.0698-1.6071-19.781 0.71211-21.772 1.3248-0.28869 1.3472-0.56456 7.0724 0.0642 9.0868 0.39455 1.2125-0.0321 1.5493-0.64476 0.34964"/>
  <path d="m89.856 134.95c-0.12827 1.2574-0.83721 3.5535-1.1548 4.0513-0.64474 0.19246-3.5759 0.16038-4.5944-0.2887l0.0642 1.1323c1.0072 0.44266 4.4132 0.63512 5.1827 0.16038 0.77948-0.46512 1.5718-4.153 1.5942-5.1942z"/>
  <path d="m89.368 138.98c-0.25661-0.19247-1.9471-1.822-2.8388-2.6945-0.25663-0.25661-0.48757-0.48757-0.66721-0.6672l-1.1868 0.54211c0.12827 0.12826 0.51964 0.4972 1.0072 0.98477 1.6423 1.5942 2.3865 2.3095 2.7618 2.6367z"/>
  <path d="m94.391 151.73c2.0946 0.32077 4.9566 0.19245 6.3368-0.53249 3.8701-1.9792 6.7785-11.61 5.3639-16.623l-1.097-0.12826c1.312 4.6284-1.5718 13.998-4.8205 15.662-0.96232 0.49719-4.2435 0.71211-6.7105 0.25661z"/>
  <path d="m90.416 141.22c0.77948 1.1997 3.8813 4.9453 6.1787 6.5973 0.82759 0.59984 0.47473 0.94948-0.42983 0.48757-2.3994-1.2093-6.1107-5.4544-6.767-6.4501z"/>
  <path d="m101.43 152.7c5.0242-1.2799 7.9439-5.907 8.6906-13.76 2.3192-4.0854 1.6295-8.8379-1.3921-14.066-6.4388-11.146-19.554-12.448-28.211-7.4685-6.8802 3.9606-9.0079 14.269-4.6284 23.911 2.1043 4.6169 6.733 7.9551 14.066 7.8419l-1.7418-1.2671c-5.7033-0.51001-9.2337-3.2927-10.976-7.1403-3.5532-7.8194-3.0794-18.287 3.8813-22.293 6.9142-3.9721 19.599-4.3002 26.265 7.2308 2.5694 4.4475 3.3947 8.3513 2.0144 11.746-0.32077 0.72495-0.417 0.76985-0.46512 1.3248-0.68004 7.3328-3.3043 11.622-7.7967 12.764-4.6509 1.1869-12.81-2.6014-16.974-8.6906l0.58702 2.6367c1.9567 2.5694 10.366 8.8379 16.68 7.2308"/>
  <path d="m85.012 135.43c-4.119-4.5604-6.733-13.704-2.919-18.162l-2.0016 0.88212c-2.6015 5.0242-0.19247 13.41 4.0286 18.094z"/>
  <path d="m84.525 126.97c-0.25661-0.44265 0.0642-1.312 1.3344-2.0497 1.3023-0.7474 2.5245-0.90458 2.8067-0.44267 0.25661 0.42984-0.39776 1.2799-1.7322 2.0594-1.1772 0.68002-2.0946 0.98476-2.409 0.42983"/>
  <path d="m74.596 125.49c0.0642-0.44267 1.0072-0.63512 1.9343-0.53248 1.097 0.12826 1.4242 0.57738 1.3697 1.0297-0.0642 0.44267-0.55494 0.85966-1.6167 0.70249-0.9174-0.12826-1.7418-0.75702-1.6873-1.1997"/>
  <path d="m76.127 132.6c-0.28869-0.28869-0.19245-1.1099 0.82759-2.1267 0.83721-0.85004 1.7097-0.93986 2.0144-0.63513 0.32718 0.34001 0.0321 1.142-0.71211 1.8894-0.77948 0.77946-1.8573 1.1419-2.1267 0.87249"/>
  <path d="m83.42 120.62c-0.65758 1.097-0.48757 1.9471-0.09617 2.1941 0.3753 0.22454 1.0746-0.0962 1.8316-1.1323 0.90456-1.2221 1.1099-2.5469 0.72494-2.7939-0.37209-0.22453-1.6648 0.40738-2.4539 1.7322"/>
 </g>
</svg>
