<?xml version="1.0" encoding="UTF-8"?>
<!-- Created with Inkscape (http://www.inkscape.org/) -->
<svg version="1.1" viewBox="0 0 324.58 309.43" xmlns="http://www.w3.org/2000/svg">
 <path d="m126.8 286.53c0.12373-0.61861 0.24744-1.1135 0.30931-1.5898-14.687-2.3569-32.538-11.37-41.377-19.117 1.1321 4.9551 4.3427 11.239 8.3148 17.131 9.6677 5.6974 23.264 6.2352 32.735 3.5756" fill="#fff"/>
 <path d="m127.13 284.94c-3.6684-0.61861-7.5514-1.596-11.414-2.9013-0.12373 1.9177-0.24746 3.8416-0.37117 5.784 4.1014-0.0434 8.0531-0.4949 11.479-1.2867 0.12372-0.61862 0.24744-1.1321 0.30931-1.596" fill="#dcdddd"/>
 <path d="m94.061 282.95c6.5684 9.7116 15.254 18.332 20.274 18.092 6.1119-0.30931 11.065-9.3188 12.461-14.513-9.471 2.1052-23.067 2.1174-32.735-3.5818" fill="#a591c3"/>
 <path d="m115.35 287.82c-0.37117 4.6272-0.98069 9.1533-1.6178 13.19 0.18559 0.0223 0.43304 0.0439 0.61862 0.0439 6.0872-0.3093 11.043-9.3404 12.461-14.534-3.4271 0.7609-7.3592 1.2565-11.462 1.2998" fill="#8f7daa"/>
 <path d="m94.768 20.976c-8.8388-16.127-25.184-19.815-42.6-9.3398-22.587 13.596-14.73 40.22-18.943 45.021-6.874 7.8341-29.396 0-31.054 3.3158-2.425 4.8437 28.676 36.968 68.722 38.147 13.181-6.918 26.122-15.429 36.248-26.995 0.49489-19.445-8.5981-43.254-12.374-50.15" fill="#fff"/>
 <path d="m40.088 62.588c-2.1157 3.1859 21.801 27.017 32.931 34.35 6.874-3.6251 11.893-6.7219 18.244-11.414-18.746-13.006-49.146-25.991-51.175-22.936" fill="#dcdddd"/>
 <path d="m322.07 70.881c-2.9446-7.3757-23.46 0.24744-31.753-8.7726-5.8026-6.2851-0.24744-30.793-22.74-50.238-14.338-12.374-38.627-12.243-45.982-1.4166-10.235 15.08-17.895 35.463-23.7 60.189 6.6346 13.203 28.611 29.789 36.489 31.753 45.393-7.1147 90.567-24.312 87.686-31.513" fill="#fff"/>
 <path d="m280.84 67.802c-2.3755-3.4704-47.531 9.646-69.311 19.314 7.5292 6.8963 13.749 11.37 18.834 13.378 11.719-5.8273 53.336-28.524 50.477-32.692" fill="#dcdddd"/>
 <path d="m233.25 244.83c-12.657 30.378-38.715 43.167-84.805 43.167-41.268 0-72.148-18.615-86.203-56.348 14.207-37.122 151.04-35.419 171.01 13.181" fill="#F5A353"/>
 <path d="m232.2 242.54c-23.242-46.374-155.99-47.422-169.98-10.889 1.33 3.5137 2.79 6.874 4.386 10.082 37.842 22.958 114.66 25.752 165.6 0.81038" fill="#D38D47"/>
 <path d="m280.37 193.15c-23.067-2.2023-218.52-8.6637-260.81-3.0126-9.4493 1.2867-10.541 16.913-6.7868 29.876 5.085 17.568 16.346 25.708 21.801 25.577 13.421 2.2023 21.496-1.8125 38.606-23.504 9.6238 2.2703 19.161 9.9733 23.788 22.238 12.308 32.713 76.949 32.124 84.347 6.1738 3.3405-11.675 9.8205-21.059 22.958-24.529 2.6662-0.69902 5.3943-0.9836 8.0531-0.91554 4.9551 3.5818 15.407 31.076 41.508 27.802 25.599-3.1859 31.644-33.52 26.537-59.709" fill="#F3A9C9"/>
 <g fill="#D292AF">
  <path d="m49.943 230.68c-4.4973 7.0274-8.7509 14.753-15.386 14.927h0.02168c13.4 2.1837 21.475-1.8125 38.54-23.46l-0.04397-0.0619c-8.9693-2.0724-17.982 0.55675-23.132 8.6198"/>
  <path d="m233.92 235.33c-4.7572-6.0006-12.92-10.017-21.518-10.257l-0.0217 0.0434c4.9736 3.7117 15.429 30.989 41.442 27.737-15.647 1.6826-13.639-9.6238-19.903-17.524"/>
  <path d="m35.35 231.23c7.5725 0 12.788-23.067 37.448-21.648 24.639 1.4166 39.086 21.016 40.504 31.207 3.2106 22.871 49.648 25.664 53.096 1.6579 1.6146-11.305 19.619-24.878 35.288-26.777 36.968-4.4973 38.147 24.072 47.4 24.573 11.785 0.61862 25.773-14.273 17.982-47.946-50.63-2.6167-209.85-7.1802-247.52-2.1404-0.02229 0-0.0619 0.0217-0.0619 0.0217-2.3384 21.714 5.1531 41.049 15.887 41.049"/>
 </g>
 <path d="m278.94 170.72c-5.1036-5.9139-27.083-3.6003-35.987 2.858-0.78564-25.883-7.333-48.426-19.03-65.863 8.8604 4.7386 19.074 5.4562 20.187 3.6869 1.1754-1.8992-7.3541-8.2925-15.647-14.927 1.4166-3.7983 3.7983-19.444 0.4949-22.98-2.7714-2.9879-17.415 0.74234-25.118 3.5323-1.4166-2.8394-12.025-19.467-14.447-18.703-3.0126 0.9403 0.24745 13.967 2.1837 20.732-12.483-6.2195-27.105-9.6021-43.669-9.6021-12.33 0-23.526 1.961-33.542 5.6108 1.2001-4.454 2.227-12.527 0.61862-13.029-1.5713-0.49489-14.993 13.749-16.433 15.473-13.094-7.7475-22.74-8.0308-25.272-5.8459-3.6003 3.1426-2.0291 18.484 1.1135 23.067-12.679 5.017-19.794 11.916-18.637 13.269 0.71758 0.87225 10.039 2.0724 18.07-1.2001-11.239 16.324-17.851 37.034-19.554 60.101-6.8524-3.4457-31.164-9.8644-34.394-1.2434-7.7036 20.732 6.6779 52.965 20.231 54.187 10.889 1.0022 24.878-24.486 42.315-25.926 17.786 5.8274 30.662 18.2 30.662 28.152 0 7.9003-3.8849 8.1836-3.7736 11.523 0.12373 5.8459 8.6198 14.469 29.526 14.687 26.603 0.3093 29.985-5.0664 30.335-11.217 0.24744-4.3674-4.0396-5.6541-4.188-11.348-0.18558-8.2925 15.058-25.795 38.104-30.465 10.322 3.4704 25.053 17.611 30.378 23.656 5.7593 6.5035 8.0531 9.1876 12.963 9.3182 8.5548 0.24744 18.921-7.8125 26.428-18.31 11.675-16.28 11.435-33.04 6.1119-39.195" fill="#FFEE8A"/>
 <g fill="#DDCF78">
  <path d="m114.34 75.08c1.2001-4.4726 2.2456-12.548 0.63098-13.05-0.12373-0.02168-0.24744 0-0.43304 0.0619-0.89698 4.1447-2.5549 9.6893-4.1694 14.622 0.69902-0.43304 3.9529-1.6393 3.9529-1.6393"/>
  <path d="m204.48 78.05c-2.9013-4.6891-12.374-20.623-15.451-19.903 3.056 6.5907 7.8125 14.207 9.9294 18.004 1.3548 2.425 3.0992 2.66 5.5242 1.8992"/>
  <path d="m228.47 98.014c2.1837-7.878 4.0396-22.936-0.24744-25.228-0.55676 7.0708-1.528 17.11-2.3136 19.598-0.65573 2.1404-0.24745 3.6684 2.5549 5.6294"/>
  <path d="m223.96 107.74c8.8604 4.7138 19.204 6.0253 20.557 3.5323-6.5684-1.4847-19.968-5.4314-29.134-14.098 4.7386 4.9737 8.2269 10.082 8.5765 10.562"/>
  <path d="m99.702 77.978c-9.0132-5.3263-17.568-7.5941-22.107-7.4852 5.0603 2.7961 11.828 6.0006 15.451 8.4459 3.3158 2.2456 5.1531 0.37117 6.6563-0.95885"/>
  <path d="m202.88 195.3c0.0434 0 0.0619-0.0217 0.12373-0.0217-0.044 0-0.0619 0-0.12373 0.0217z"/>
  <path d="m213.7 194.1c-3.687 0.0619-7.2452 0.4949-10.628 1.1568 10.323 3.4704 25.053 17.611 30.378 23.635 4.0581 4.6272 6.394 7.2891 9.1654 8.5109 4.188-25.097-12.548-33.564-28.916-33.302"/>
  <path d="m55.811 108.07c1.0888 0.87225 10.126 1.9177 17.982-1.2682 0 0 1.596-2.1157 3.8168-5.1964-4.7138 2.9879-14.36 5.3263-21.801 6.4596"/>
  <path d="m34.961 217.99c1.7012 1.0455 3.4024 1.7012 5.1283 1.8558 10.868 1.0022 24.813-24.333 42.162-25.904-6.0253-2.227-13.814-3.3591-20.688-3.3158-11.086 0.0619-27.497 5.982-26.602 27.366"/>
 </g>
 <path d="m119.39 106.9c0.69904-2.0971 41.399-0.76089 42.01 1.2682 0.63098 2.0291-21.016 30.967-22.412 30.967-2.4868 0-20.295-30.16-19.598-32.233" fill="#A591C3"/>
 <g fill="#0f141b">
  <path d="m113.03 75.468c1.0702-3.3591 1.8125-9.9294 1.4599-11.959-2.6848 1.7692-11.173 10.453-14.207 13.836-1.4847 1.6579-1.4847 1.7259-3.2292 0.71759-12.461-7.1357-21.103-7.1141-23.002-5.4747-2.7961 2.425-1.7445 15.451 0.78564 20.557 1.0269 2.0724 1.0269 2.2703-0.9836 3.0993-10.322 4.2561-15.822 9.2749-16.869 11.021 2.2703 0.61861 10.518 1.33 18.375-2.4683l-2.926 4.2313c-7.5508 2.4868-16.913 1.6146-18.244 0-2.5982-3.1178 8.4892-11.021 18.114-15.037-2.8394-5.982-4.2313-20.47-0.37116-23.831 3.2725-2.8147 13.967-1.9177 26.428 5.2149 2.4002-2.66 10.672-11.675 14.971-14.49 2.9879-1.9239 3.489-1.0022 3.8602 1.5713 0.37117 2.6848-0.0619 8.2709-0.95885 11.85z"/>
  <path d="m108.81 66.933c-0.55676-20.754-13.138-52.987-20.972-58.508-9.5805-6.7435-22.544-7.3547-36.969 1.33-23.176 13.923-15.56 41.552-19.314 45.807-6.5684 7.4852-28.283-2.227-31.273 3.2292-3.5137 6.3723 26.537 37.318 64.815 40.526l4.4973-2.4435c-38.104-1.7878-66.343-31.077-66.387-36.271 2.3569-1.6826 23.984 4.7571 30.924-3.1426 4.8685-5.5428-3.557-31.426 18.681-44.781 12.09-7.2675 24.028-7.2452 32.975-1.1568 8.2276 5.6294 19.489 38.431 20.165 58.225z"/>
  <path d="m225.51 110.34c8.1836 4.1447 18.681 4.9984 20.383 2.2456 1.8744-3.0127-4.6272-8.402-15.648-16.586 1.4166-4.8252 3.8168-19.968 0.12371-23.94-3.7983-4.0581-21.212 0.95885-25.948 2.9693-2.3755-4.8437-12.025-19.968-15.647-18.834-3.9715 1.2434-2.1404 13.378 0.82895 22.042l3.4271 1.6146c-3.2292-10.497-4.2561-19.008-3.3838-20.274 2.2456 1.1135 9.8205 12.2 12.505 16.914 1.1568 2.0538 1.2001 1.9858 3.1426 1.3115 9.3188-3.2292 20.951-5.4314 22.762-3.489 2.4868 2.6848 1.0702 15.713-0.43303 20.819-0.4949 1.7692-0.4949 1.8558 0.95885 2.9879 3.5137 2.7281 13.53 10.497 14.36 12.679-1.8558 0.87225-11.697 0.0619-20.231-5.1716z"/>
  <path d="m236.88 103.46c42.533-6.0439 91.593-23.351 87.446-33.411-3.5137-8.4892-25.489-1.1816-32.822-9.3621-4.6705-5.1716 0-31.273-22.871-50.718-14.622-12.417-40.417-13.77-49.059-1.0455-9.5149 14.01-17.175 34.939-22.391 57.701l2.1837 3.0993c6.0006-25.249 13.596-44.41 23.242-58.596 6.8524-10.082 30.356-10.257 44.17 1.6579 22.303 19.248 16.367 43.32 22.652 50.15 8.642 9.3838 29.047 2.227 31.513 8.402 1.8992 4.7324-36.554 21.998-86.748 29.854z"/>
  <path d="m54.111 168.18c-5.8954-3.2972-30.29-9.6677-33.106-2.0971-7.4636 20.055 6.6124 51.415 19.183 52.551 9.231 0.81038 23.591-22.5 39.631-25.49l7.4203 2.6167c-18.004-3.0993-35.223 27.388-47.313 26.144-16.106-1.6579-30.64-37.056-22.107-58.377 3.7735-9.471 28.393-3.0312 36.249 0.69904z"/>
  <path d="m138.78 250.38c-22.238-0.24744-31.12-10.584-31.273-16.826-0.12373-4.7324 4.3427-3.9715 4.3427-11.501 0-12.767-23.526-30.509-50.281-30.225-12.33 0.0619-24.42 7.5947-24.639 19.248-0.04325 2.4002-1.8558 2.4435-2.0538 0.0619-1.2682-14.229 13.88-22.347 26.843-22.434 26.101-0.12371 52.878 16.651 52.878 32.975 0 8.2059-4.1695 9.2749-4.1014 11.85 0.12373 5.1036 7.9436 13.29 28.326 13.53 26.319 0.3093 28.807-4.8252 29.113-10.082 0.24745-3.6436-4.6025-5.3696-4.7571-11.392-0.24745-10.715 21.496-33.062 50.368-33.521 18.004-0.30931 30.094 9.7556 30.247 24.137 0.0217 2.0043-1.5527 2.227-1.6579 0.30931-0.69904-13.247-12.286-21.431-28.414-21.212-28.218 0.43303-47.772 21.692-47.553 30.356 0.12372 5.5861 5.1469 6.394 4.8438 11.676-0.55676 9.1437-9.4277 13.29-32.233 13.028"/>
  <path d="m281.79 190.94c8.4453 35.834-5.6974 61.978-27.497 64.292-16.477 1.7445-15.648-11.086-21.627-18.637-6.2412-7.8787-17.284-11.392-27.497-8.686-11.305 2.9879-18.506 10.213-22.26 23.372-8.0964 28.305-74.505 28.633-87.686-6.3068-8.6637-23.024-33.564-29.003-43.603-13.269-4.386 6.9402-9.8861 15.888-17.197 16.062-6.4163 0.18559-18.659-9.2972-23.722-26.821-3.953-13.639-2.2456-31.033 7.3547-33.019l1.2434 3.489c-7.7259 1.528-9.0349 15.603-5.3696 28.261 5.017 17.328 15.931 24.704 20.514 24.704 6.1552 0 10.497-8.2276 14.49-14.36 11.37-17.524 39.806-10.912 49.168 13.88 12.112 32.146 75.05 30.727 82.056 6.2628 3.9529-13.879 11.741-22.172 23.809-25.358 11.282-2.9693 23.984 1.0454 30.902 9.7766 6.5252 8.2276 4.2561 18.615 18.834 17.066 19.51-2.0538 31.054-24.028 26.057-54.995z"/>
  <path d="m205.31 194.82c11.152 4.7571 25.337 19.095 29.047 23.286 5.4562 6.1979 7.5508 8.7948 12.069 8.9037 6.5684 0.18558 16.498-5.3263 25.424-17.786 11.457-16.018 10.956-32.19 6.1738-37.711-4.6953-5.4129-27.432-2.9879-35.267 3.755l0.1856-3.755c9.406-6.2635 32.298-9.4932 37.929-2.9879 6.0686 7.0268 5.914 26.537-6.394 42.883-7.6603 10.148-18.638 19.008-28.218 18.724-5.3696-0.12372-8.227-3.5137-14.054-10.126-6.1305-6.9396-22.893-22.587-33.325-24.006z"/>
  <path d="m253.05 255.35c-28.13 1.7878-35.703-25.075-43.297-30.116 0.55675-0.24744 4.2994-0.18559 4.2994-0.18559 6.7212 7.3108 14.73 28.043 38.562 26.712z"/>
  <path d="m128.87 286.52c-1.2867 5.4562-7.5731 16.411-14.687 16.738-7.3108 0.30931-26.908-21.299-30.662-38.06 0.43304 0.24744 4.3674 3.557 4.3674 3.557 4.6705 12.941 20.034 31.426 26.385 31.077 5.4747-0.24744 10.301-9.2316 11.457-14.01z"/>
  <path d="m74.684 223.01c-19.248 24.464-27.89 27.214-42.665 24.42l5.7593-2.6167c11.021 1.0269 18.463-3.4457 34.132-23.045z"/>
  <path d="m198.9 84.619c-14.338-9.2526-31.491-13.945-51.001-13.945-18.877 0-35.572 4.6272-49.626 13.727-2.7714 1.8125-3.7735 0.12373-1.1568-1.8311 14.032-10.475 31.294-15.473 50.717-15.473 19.881 0 38.322 4.8437 52.289 15.473 2.8147 2.1404 1.6826 3.9282-1.2248 2.0538"/>
  <path d="m52.725 177.83c-1.6146-26.755 6.4596-58.792 24.791-77.713 2.1157-2.1837 3.755-1.0269 1.8125 1.33-15.494 18.921-24.093 45.938-24.289 76.36-0.02168 3.1673-2.1157 3.2106-2.3136 0.0217"/>
  <path d="m233.61 248.6c-13.116 28.349-39.74 41.552-85.155 41.552-43.952 0-73.239-20.754-86.922-54.711l2.425-2.6415c13.705 35.288 43.319 53.991 84.478 53.991 44.498 0 69.988-12.309 82.602-39.893z"/>
  <path d="m241.73 187.41c0.0619-2.7528 0.0619-5.6108 0.0619-8.5109 0-33.651-9.3404-61.585-27.04-80.877-2.3384-2.5116-0.82894-3.7736 1.7692-1.3981 21.409 19.75 31.601 56.02 27.498 90.676-0.37116 3.2539-2.3755 3.3158-2.3136 0.12373"/>
 </g>
 <path d="m149.29 171.27c0 5.5675-4.7757 9.2316-12.025 9.2316-6.8307 0-11.937-3.6869-11.937-9.2316 0-5.3015 5.3263-9.995 11.937-9.995 6.613 0 12.025 4.6953 12.025 9.995" fill="#A591C3"/>
 <path d="m125.4 170.11c-0.76089 6.4602 5.017 10.41 11.872 10.41 6.8524 0 12.482-3.6003 12.068-9.8205-5.2149 2.7466-20.274 2.3136-23.94-0.61862" fill="#8F7DAA"/>
 <g fill="#0f141b">
  <path d="m137.27 162.49c-5.8026 0-10.716 4.0148-10.716 8.7948 0 4.7138 4.4107 8.0315 10.716 8.0315 6.5684 0 10.802-3.1673 10.802-8.0315 0-4.7819-4.9551-8.7948-10.802-8.7948m0 19.248c-7.7475 0-12.833-4.3427-12.833-10.497 0-6.0872 5.6974-11.173 12.833-11.173 7.1796 0 13.006 5.085 13.006 11.173 0 6.2412-5.085 10.497-13.006 10.497"/>
  <path d="m139.43 173.37c-1.3981-0.12372-4.1014-0.24744-5.5675-0.18558-1.5713 0.0439-2.3322-1.5527-0.12373-1.961 1.2682-0.24744 4.6705-0.18558 5.9387 0.24744 1.8311 0.65574 1.5032 2.0971-0.24744 1.8992"/>
  <path d="m99.683 178.99c-3.8169 0-10.628-5.3015-10.628-21.059 0-13.334 5.2149-20.863 11.217-20.863 6.1979 0 10.912 6.8085 10.912 20.71 0 12.374-5.5675 21.212-11.501 21.212"/>
  <path d="m181.2 182.62c-5.017 0-10.628-5.6294-10.628-21.212 0-13.334 5.2149-20.71 11.217-20.71 6.1979 0 11.217 7.1141 11.217 21.016 0 12.374-5.8954 20.907-11.806 20.907"/>
  <path d="m98.539 139.05c-1.5713-4.1014-3.0312-6.0253-4.2561-8.4453-3.2106-6.2418-6.3507-4.6025-4.7571 2.2023 0.63098 2.6848 2.858 6.1552 6.1738 8.926z"/>
  <path d="m102.25 140.23c0.71758-5.518 0.87224-9.711 0.37116-14.97-0.82894-8.5548-5.8706-8.402-6.2195 0.0217-0.24744 5.3015-0.12372 9.8861 1.1135 15.254z"/>
  <path d="m100.04 138.97c1.8125-2.3755 3.7983-5.7593 4.9737-8.5325 3.0312-7.0491 7.1147-4.2746 4.4293 2.5301-1.4414 3.6251-3.6684 7.2891-5.3696 8.8388zm5.5242 1.4599c-0.0217 0.044-0.0217 0.0619-0.0433 0.12373 0.0217-0.0434 0.0433-0.0619 0.0433-0.12373"/>
  <path d="m181.32 142.8c-1.8991-3.3158-4.0395-7.4636-4.6272-9.471-2.0291-6.918-5.9139-6.2851-5.1716 0.74233 0.49489 4.4107 3.7117 9.0132 6.0006 11.523z"/>
  <path d="m185.27 144.65c0.43302-4.1014 0.37117-10.344 0.78563-15.953 0.61862-8.5764-5.2396-8.6853-6.1305-0.3093-0.55675 5.283-0.7609 9.8421 0.12372 15.298z"/>
  <path d="m181.95 142.6c2.5301-2.0538 5.1716-6.5684 6.1738-8.7509 3.7736-8.162 7.8787-4.9984 5.6727 1.961-1.1816 3.7117-4.5839 7.4197-7.6164 9.2749z"/>
 </g>
 <path d="m100.28 141.9c-2.425 0-6.0006 4.8437-6.0006 16.018 0 12.134 3.2106 15.975 5.3448 15.975 2.66 0 6.4812-5.283 6.4812-15.975 0-11.981-3.5818-15.953-5.8273-16.018" fill="#B0DCD5"/>
 <path d="m181.79 145.54c-2.425 0-6.0006 4.8438-6.0006 16.018 0 12.134 3.2106 15.975 5.3448 15.975 2.66 0 6.4818-5.283 6.4818-15.975 0-11.981-3.5818-15.953-5.8274-16.018" fill="#B0DCD5"/>
 <path d="m174.15 292.22c2.0724 8.4676 7.114 14.709 11.915 14.993 4.8685 0.24744 12.985-7.922 19.27-16.978-7.4413-6.0872-25.249-6.6996-31.185 1.9858" fill="#A591C3"/>
 <path d="m185.89 307.19c0.0619 0 0.12372 0.0223 0.18558 0.0223 4.8685 0.24744 12.985-7.9003 19.27-16.978-1.6826-1.3733-3.9282-2.4683-6.4379-3.2292-3.8602 8.4899-8.7732 16.411-13.007 20.187" fill="#8F7DAA"/>
 <path d="m173.26 286.52c0.12372 1.9858 0.43303 3.8849 0.89699 5.716 5.9398-8.7062 23.842-7.9505 31.186-2.0105 4.9551-7.1147 8.7732-14.797 8.9916-19.358-8.097-3.8849-26.21 0.78564-41.072 15.647" fill="#fff"/>
 <path d="m214.33 270.88c-2.4002-1.1568-5.6974-1.528-9.5149-1.1321-1.0702 5.2396-3.2539 11.37-5.914 17.262 2.5116 0.76089 4.7324 1.8558 6.4379 3.2292 4.9551-7.1147 8.7726-14.797 8.9909-19.358" fill="#dcdddd"/>
 <path d="m174.51 286.98c0.91554 10.606 6.8301 18.746 11.61 19.03 7.2675 0.49488 25.359-23.133 26.93-34.372-8.1836-3.0993-25.097 2.1404-38.54 15.342m11.697 22.435c-6.5901-0.37117-13.509-10.65-14.534-21.802-0.12372-1.2001 0.37118-2.4683 1.2682-3.3158 14.317-13.989 31.448-18.877 40.439-15.8 1.9424 0.67429 2.7281 1.9424 2.5301 3.4952-1.4166 11.675-20.274 37.951-29.702 37.427" fill="#0f141b"/>
</svg>
