<?xml version="1.0" encoding="UTF-8" standalone="no"?>
<!-- Created with Inkscape (http://www.inkscape.org/) -->

<svg
   version="1.1"
   viewBox="0 0 248.88 333.44"
   id="svg42847"
   sodipodi:docname="968.svg"
   inkscape:version="1.2.2 (b0a8486, 2022-12-01)"
   xmlns:inkscape="http://www.inkscape.org/namespaces/inkscape"
   xmlns:sodipodi="http://sodipodi.sourceforge.net/DTD/sodipodi-0.dtd"
   xmlns="http://www.w3.org/2000/svg"
   xmlns:svg="http://www.w3.org/2000/svg">
  <defs
     id="defs42851" />
  <sodipodi:namedview
     id="namedview42849"
     pagecolor="#505050"
     bordercolor="#eeeeee"
     borderopacity="1"
     inkscape:showpageshadow="0"
     inkscape:pageopacity="0"
     inkscape:pagecheckerboard="0"
     inkscape:deskcolor="#505050"
     showgrid="false"
     inkscape:zoom="0.7077735"
     inkscape:cx="72.763391"
     inkscape:cy="166.72"
     inkscape:window-width="1309"
     inkscape:window-height="430"
     inkscape:window-x="-57"
     inkscape:window-y="389"
     inkscape:window-maximized="0"
     inkscape:current-layer="svg42847" />
  <path
     d="M 95.109,257.727 C 69.228,212.458 31.11,210.882 11.586,230.588 c -23.054,23.271 -11.158,80.069 73.49,85.638 -21.733,-11.297 -16.03,-51.956 10.033,-58.5"
     fill="#eb6153"
     id="path42617" />
  <path
     d="M 1.27,256.237 C 0.95611,280.461 21.969,309.236 76.387,315.448 35.511,303.352 8.166,278.374 1.27,256.237"
     fill="#cb5347"
     id="path42619" />
  <path
     d="m 2.048,264.837 c 4.5033,23.302 28.879,47.829 83.028,51.392 -6.6271,-3.4452 -10.69,-9.6268 -12.415,-16.732 -26.754,0.65818 -60.584,-14.408 -70.613,-34.659"
     fill="#f9d0ba"
     id="path42621" />
  <path
     d="M 18.374,282.607 C 11.1204,277.4747 5.316,271.432 2.048,264.833 c 4.2527,22.013 26.254,45.105 74.315,50.6 C 51.51,308.0744 31.662,295.957 18.374,282.606"
     fill="#d7b3a2"
     id="path42623" />
  <path
     d="m 164.006,256.457 c -30.104,-7.2966 -53.389,-4.8894 -67.039,1.9352 -22.907,11.454 -25.426,43.595 -11.139,57.501 14.629,14.239 69.727,22.185 83.98,11.235 -0.71764,-0.2594 -1.4201,-0.53034 -2.0884,-0.83028 -18.064,-8.0737 -23.402,-37.294 -3.7135,-69.841"
     fill="#eb6153"
     id="path42625" />
  <path
     d="m 101.51,256.437 c -1.4214,9.2989 17.249,22.545 48.826,24.519 0,0 0.53156,-0.93155 0.79737,-1.4631 0,0 1.8884,0.35052 2.6592,0.27733 1.9922,-7.3877 5.331,-15.25 10.211,-23.319 -27.004,-6.5461 -48.497,-5.2703 -62.494,-0.0143"
     fill="#cb5347"
     id="path42627" />
  <path
     d="m 151.606,299.027 c -0.37843,0.21275 -0.75056,0.39996 -1.1126,0.54426 -19.766,7.9168 -62.165,4.7766 -72.714,0.78216 1.2492,6.0626 3.9565,11.547 8.0497,15.531 14.629,14.239 69.727,22.186 83.98,11.235 -0.71764,-0.25939 -1.4201,-0.53034 -2.0884,-0.82902 -9.3964,-4.1995 -15.336,-14.129 -16.115,-27.264"
     fill="#f9d0ba"
     id="path42629" />
  <path
     d="m 100.825,324.357 c 22.254,8.3762 57.917,11.266 68.981,2.7655 -0.71763,-0.25832 -1.4201,-0.53034 -2.0884,-0.82901 -2.4124,-1.0784 -4.5919,-2.539 -6.5195,-4.3299 -0.10266,-0.0365 -0.21777,-0.0646 -0.31895,-0.10266 -7.0055,5.1374 -34.063,8.1294 -60.054,2.4959"
     fill="#d7b3a2"
     id="path42631" />
  <path
     d="m 104.087,61.869 c -1.8922,-17.97 6.1816,-35.754 21.535,-47.354 -15.678,1.8859 -32.966,11.173 -42.462,24.519 -22.396,31.474 -5.2361,101.24 26.192,125.38 21.389,16.427 65.699,10.333 76.613,-10.513 5.3082,-10.142 7.3067,-36.713 3.7325,-54.446 -3.5034,0.57842 -7.1548,1.0771 -10.994,1.4644 -41.2,4.1603 -71.664,-11.004 -74.617,-39.052"
     fill="#c8bec0"
     id="path42633" />
  <path
     d="m 108.221,36.1946 c 3.6894,-8.2978 9.6027,-15.788 17.402,-21.681 -15.678,1.8859 -32.967,11.175 -42.462,24.519 -22.396,31.475 -5.2361,101.24 26.192,125.38 4.0438,3.1072 8.9091,5.4045 14.211,6.9536 -45.495,-38.118 -43.98,-116.44 -15.343,-135.17"
     fill="#dfd9d9"
     id="path42635" />
  <path
     d="m 88.98,42.5098 c -3.3401,-3.8818 4.9184,-10.491 8.1244,-7.1321 3.792,3.973 -4.8222,10.97 -8.1244,7.1321"
     fill="#efecec"
     id="path42637" />
  <path
     d="m 115.46,92.32 c 31.155,34.615 60.752,36.316 75.763,19.158 -0.28235,-4.2375 -0.78094,-8.3231 -1.5264,-12.021 -3.5047,0.57841 -7.1549,1.0771 -10.995,1.4644 -41.199,4.1603 -71.664,-11.005 -74.615,-39.052 -1.8922,-17.97 6.1816,-35.754 21.535,-47.355 -2.3364,0.28092 -4.7096,0.7455 -7.0865,1.3454 -23.104,17.347 -23.816,53.415 -3.0756,76.461"
     fill="#ada4a7"
     id="path42639" />
  <path
     d="m 108.221,36.1946 c 10e-4,-0.0013 0.004,-0.0025 0.005,-0.0038 3.6907,-8.2952 9.5989,-15.785 17.397,-21.677 -2.3364,0.28093 -4.7096,0.74676 -7.0865,1.3454 -8.7003,6.5322 -14.221,15.72 -16.622,25.865 1.9238,-2.1972 4.0274,-4.0603 6.3069,-5.5298"
     fill="#c8bec0"
     id="path42641" />
  <path
     d="m 90.3,51.492 c -5.2348,-0.66575 -12.283,9.7419 -12.283,20.295 0,14.421 4.3134,20.825 11.037,21.008 5.3209,0.14423 8.7648,-3.8793 8.9015,-20.829 0.12909,-15.907 -2.401,-19.805 -7.6548,-20.474"
     fill="#ffffff"
     id="path42643" />
  <path
     d="m 81.366,58.856 c -1.9795,3.6591 -3.3502,8.2813 -3.3502,12.933 0,14.42 4.3134,20.825 11.038,21.006 2.9047,0.0786 5.2488,-1.091 6.8017,-4.9235 -7.2283,4.5159 -20.604,0.32291 -14.489,-29.016"
     fill="#c8bec0"
     id="path42645" />
  <path
     d="m 82.836,85.013 -2.0605,2.1415 c 1.9264,3.7375 4.7691,5.5462 8.2775,5.6411 0.848,0.0216 1.6416,-0.0785 2.3883,-0.30244 l -0.82015,-3.0844 c -2.8199,0.0101 -5.7031,-1.2695 -7.7852,-4.3957"
     fill="#dfd9d9"
     id="path42647" />
  <path
     d="m 90.3,51.492 c -2.9275,-0.37212 -6.422,2.7199 -8.9344,7.3637 -6.1145,29.338 7.2624,33.532 14.491,29.016 1.291,-3.187 2.0365,-8.2104 2.0985,-15.906 0.12909,-15.907 -2.401,-19.805 -7.6548,-20.474"
     fill="#4da5dc"
     id="path42649" />
  <path
     d="m 96.711,57.663 c -1.2264,-4.2957 -3.3578,-5.7816 -6.4119,-6.1714 -2.9275,-0.37212 -6.422,2.7199 -8.9344,7.3637 -3.111,14.927 -1.172,23.335 2.4301,27.408 -4.802,-23.376 6.8625,-32.663 12.916,-28.6"
     fill="#4291c1"
     id="path42651" />
  <path
     d="m 96.175,123.327 c 12.448,3.6831 19.288,-0.20379 20.718,-5.5171 -0.33797,-4.5666 -7.265,-8.5421 -19.813,-9.952 -6.5802,-0.73919 -11.127,-0.27088 -13.852,0.93277 -1.2733,4.9463 2.1466,11.34 12.947,14.536"
     fill="#4da5dc"
     id="path42653" />
  <path
     d="m 97.08,107.858 c -6.5803,-0.73918 -11.128,-0.26945 -13.852,0.93277 -0.23036,0.89611 -0.30248,1.8403 -0.20884,2.8035 5.4133,-1.9124 13.567,-1.9542 20.479,0.0216 6.9625,1.9884 10.592,5.4133 12.085,8.8926 0.61132,-0.83028 1.0518,-1.739 1.31,-2.6984 -0.33797,-4.5665 -7.2662,-8.5421 -19.813,-9.952"
     fill="#4291c1"
     id="path42655" />
  <path
     d="m 96.175,123.327 c -10.8,-3.1958 -14.22,-9.59 -12.947,-14.536 -2.339,1.0328 -3.3388,2.6048 -3.0769,4.4388 0.75687,5.3044 6.2904,11.468 17.27,13.748 12.802,2.6566 19.724,-2.6516 19.494,-8.9914 -0.003,-0.0595 -0.0179,-0.11661 -0.0216,-0.1758 -1.4302,5.3133 -8.2699,9.2002 -20.718,5.5171"
     fill="#c8bec0"
     id="path42657" />
  <path
     d="m 96.175,123.327 c -1.6947,-0.5012 -3.1882,-1.0897 -4.5299,-1.7302 l -1.0239,3.2009 c 1.9795,0.89611 4.2349,1.6467 6.8005,2.1795 2.5756,0.53411 4.902,0.73282 6.9916,0.67965 l -0.28351,-2.9123 c -2.3364,-0.10012 -4.9804,-0.53792 -7.9548,-1.4176"
     fill="#dfd9d9"
     id="path42659" />
  <path
     d="m 106.109,151.047 c 11.59,3.1895 16.866,0.41643 17.523,-3.3338 -2.0276,-4.8868 -9.6989,-9.3685 -20.315,-10.53 -5.1779,-0.56575 -8.5686,0.73663 -10.341,2.5086 0.8037,4.3767 5.4614,9.2445 13.133,11.356"
     fill="#4da5dc"
     id="path42661" />
  <path
     d="m 103.317,137.187 c -3.6578,-0.39996 -6.4043,0.14171 -8.3383,1.1138 5.4234,-0.0811 12.023,1.1265 17.935,3.6236 5.1488,2.1744 8.2092,4.9589 9.833,7.7864 0.46831,-0.60754 0.76197,-1.2821 0.886,-1.9935 -2.0276,-4.888 -9.6989,-9.3698 -20.315,-10.53"
     fill="#4291c1"
     id="path42663" />
  <path
     d="m 123.966,148.697 c -0.0846,-0.32899 -0.19482,-0.65814 -0.33044,-0.98469 -0.65689,3.7514 -5.9335,6.5233 -17.523,3.3338 -7.6713,-2.1112 -12.329,-6.979 -13.133,-11.354 -1.3252,1.3264 -1.7479,2.9174 -1.315,4.1894 1.3188,3.8806 6.0221,8.0484 13.978,10.101 14.564,3.7591 19.512,-0.63916 18.323,-5.2855"
     fill="#c8bec0"
     id="path42665" />
  <path
     d="m 106.109,151.047 c -1.6593,-0.4569 -3.1667,-1.048 -4.5349,-1.7289 l -0.93534,2.9212 c 1.4935,0.67459 3.1553,1.2682 5.0007,1.7441 3.4717,0.89607 6.3803,1.3176 8.8066,1.3935 l -0.28856,-2.9629 c -2.2466,-0.0886 -4.9083,-0.50246 -8.0484,-1.3669"
     fill="#dfd9d9"
     id="path42667" />
  <path
     d="m 239.446,215.637 c -2.2694,-16.456 -26.635,-53.543 -49.512,-68.979 2.0605,7.3333 -2.4516,21.08 -19.035,28.682 -20.424,9.3609 -53.16,4.9045 -58.343,-7.6953 2.4516,19.477 33.167,67.753 57.354,75.847 50.769,16.988 70.573,-20.326 69.535,-27.854"
     fill="#eb6153"
     id="path42669" />
  <path
     d="m 169.916,243.497 c 5.7487,1.9238 11.096,3.1452 16.065,3.7983 -13.667,-4.0261 -33.025,-16.108 -48.062,-30.979 10.036,12.824 21.615,23.706 31.996,27.18"
     fill="#cb5347"
     id="path42671" />
  <path
     d="m 239.446,215.637 c -2.2694,-16.456 -26.635,-53.543 -49.512,-68.979 2.0605,7.3333 -2.4516,21.08 -19.035,28.682 -14.352,6.5777 -34.771,6.3258 -47.449,1.2264 0.87204,6.1259 8.6635,20.331 24.988,40.351 13.048,16.003 24.749,25.954 37.584,30.377 38.883,5.0855 54.343,-24.984 53.423,-31.657"
     fill="#f9d0ba"
     id="path42673" />
  <path
     d="m 198.476,181.187 c -9.1002,5.5614 5.3551,34.343 19.218,24.177 9.2977,-6.8195 -8.0598,-30.996 -19.218,-24.177"
     fill="#fbdac8"
     id="path42675" />
  <path
     d="m 185.966,153.897 c -10.465,19.989 -51.622,26.401 -73.846,12.413 3.3414,13.61 37.654,18.713 58.784,9.0281 18.328,-8.4003 21.911,-24.309 18.174,-30.767 -0.8442,3.773 -1.8884,6.9891 -3.1123,9.3268"
     fill="#eb6153"
     id="path42677" />
  <path
     d="m 142.606,217.757 c 7.3371,9.0242 14.878,10.406 18.395,6.5233 1.3429,-1.4808 2.0922,-3.9919 1.7618,-7.1675 -1.0404,-3.006 -3.0199,-6.4385 -6.2499,-10.166 -7.0966,-8.1876 -14.087,-9.9229 -18.352,-7.8522 -2.7263,3.6338 -2.3251,10.336 4.445,18.662"
     fill="#4da5dc"
     id="path42679" />
  <path
     d="m 144.246,198.577 c -2.339,-0.50882 -4.4223,-0.29097 -6.0866,0.51767 -2.7262,3.6337 -2.3263,10.336 4.4438,18.662 1.4049,1.7264 2.8161,3.1693 4.2058,4.3527 -8.6914,-10.447 -8.3269,-21.267 -2.563,-23.533"
     fill="#4291c1"
     id="path42681" />
  <path
     d="m 162.756,217.117 c 0.33045,3.1756 -0.41894,5.6867 -1.7618,7.1675 -3.5173,3.8818 -11.058,2.4997 -18.395,-6.5233 -6.7701,-8.3282 -7.1701,-15.03 -4.445,-18.662 -0.67969,0.33043 -1.2973,0.74801 -1.8289,1.2619 -3.7907,3.6717 -3.3059,11.572 4.8058,21.004 7.8814,9.166 16.683,10.257 20.593,6.1778 1.9618,-2.0479 2.663,-5.7095 1.0328,-10.425"
     fill="#eb6153"
     id="path42683" />
  <path
     d="m 146.756,222.067 c -1.372,-1.1746 -2.7642,-2.6048 -4.1501,-4.3083 -6.7701,-8.3282 -7.1701,-15.03 -4.4451,-18.664 -0.67967,0.33151 -1.2973,0.74929 -1.8289,1.2632 -3.7907,3.6717 -3.306,11.572 4.8057,21.004 1.5492,1.8023 3.1338,3.2806 4.7096,4.4805 0.0556,-1.3872 0.44803,-2.8693 0.92269,-3.7578 -0.004,-0.008 -0.008,-0.0102 -0.0143,-0.0179"
     fill="#cb5347"
     id="path42685" />
  <path
     d="m 239.236,218.247 c -2.2871,10.319 -20.404,36.978 -60.642,27.706 33.742,16.382 64.137,-0.48604 65.843,-7.065 1.41,-5.4373 -1.4087,-16.132 -5.2007,-20.641"
     fill="#eb6153"
     id="path42687" />
  <path
     d="m 237.406,223.207 c -5.7842,11.919 -24.026,30.753 -58.815,22.738 4.8437,2.3516 9.6153,3.9996 14.246,5.1095 25.989,-0.35697 41.54,-13.881 44.568,-27.847"
     fill="#cb5347"
     id="path42689" />
  <path
     d="m 244.766,234.507 c 0.076,1.6365 -0.0179,3.1439 -0.33546,4.3742 -1.7061,6.579 -32.1,23.447 -65.843,7.065 -1.9998,-0.4607 -4.0515,-1.0062 -6.1613,-1.6517 -29.266,37.178 -25.002,72.928 -4.7121,81.997 16.612,7.4257 48.736,2.7465 64.938,-28.361 18.046,-34.649 16.582,-56.453 12.114,-63.423"
     fill="#eb6153"
     id="path42691" />
  <path
     d="m 153.526,281.227 c 1.5973,-0.13275 5.1893,-0.79867 10.246,-3.5933 0,0 2.5288,-0.13275 3.3274,0.13419 10.147,-4.7235 15.511,-15.136 15.646,-29.974 -1.3796,-0.56574 -2.7642,-1.1657 -4.1565,-1.8428 -2.001,-0.4607 -4.0527,-1.0062 -6.1626,-1.6504 -9.6723,12.287 -15.663,24.411 -18.642,35.474 0.0467,-0.004 0.10367,-0.004 0.14064,-0.0101 0,0 -0.53159,1.1973 -0.39871,1.4631"
     fill="#cb5347"
     id="path42693" />
  <path
     d="m 244.766,234.507 c 0.076,1.6365 -0.0179,3.1439 -0.33546,4.3742 -1.6732,6.4524 -30.952,22.783 -63.914,7.9459 -2.6314,16.477 -18.675,46.464 -28.931,52.209 0.78597,13.131 6.7347,23.057 16.128,27.255 16.612,7.4257 48.736,2.7465 64.938,-28.361 18.046,-34.649 16.582,-56.453 12.114,-63.423"
     fill="#f9d0ba"
     id="path42695" />
  <path
     d="m 182.746,247.767 c -0.74169,-0.30388 -1.4834,-0.60626 -2.2301,-0.94164 -1.3062,8.1864 -5.9259,19.708 -11.501,29.934 8.9091,-5.1045 13.609,-15.111 13.731,-28.993"
     fill="#d7b3a2"
     id="path42697" />
  <path
     d="m 161.196,321.967 c 1.9289,1.7909 4.1097,3.2515 6.5208,4.3299 16.613,7.4257 48.736,2.7465 64.939,-28.361 1.6036,-3.0794 3.0452,-6.0525 4.3527,-8.9268 -21.008,30.248 -59.046,38.903 -75.813,32.958"
     fill="#d7b3a2"
     id="path42699" />
  <path
     d="m 178.676,272.117 c 3.3439,-8.3585 2.7972,-14.802 0.92772,-17.393 -3.5578,-1.1986 -5.0994,-0.0179 -9.7254,11.646 -3.8046,9.5951 -2.9161,13.087 -1.3441,14.936 0.73664,0.86827 2.406,1.3745 4.2173,0.73914 1.977,-2.0099 4.0426,-5.2234 5.9246,-9.928"
     fill="#4da5dc"
     id="path42701" />
  <path
     d="m 181.086,260.377 c -0.0736,-2.5427 -0.6417,-4.4881 -1.4821,-5.6525 -3.5565,-1.1986 -5.0994,-0.0179 -9.7242,11.645 -2.1858,5.512 -2.8187,9.004 -2.6668,11.334 6.9055,-3.2566 11.572,-9.1711 13.873,-17.327"
     fill="#4291c1"
     id="path42703" />
  <path
     d="m 168.536,281.307 c -1.5707,-1.8492 -2.4592,-5.3412 1.3454,-14.936 4.6248,-11.664 6.1676,-12.844 9.7242,-11.645 -0.39742,-0.55183 -0.85181,-0.93787 -1.3454,-1.1201 -3.5629,-1.3201 -6.341,0.55564 -11.553,13.362 -3.878,9.5293 -3.7021,14.074 -1.5302,16.565 1.6049,1.8403 4.4817,1.6631 7.5776,-1.4859 -1.8124,0.63536 -3.4819,0.12916 -4.2185,-0.73914"
     fill="#eb6153"
     id="path42705" />
  <path
     d="m 169.886,266.367 c 4.6248,-11.664 6.1676,-12.844 9.7242,-11.645 -0.39741,-0.55058 -0.8518,-0.93787 -1.3442,-1.1201 -3.5641,-1.3201 -6.3423,0.55689 -11.554,13.363 -1.8871,4.6387 -2.8085,8.0889 -3.0123,10.704 0.0251,-0.0143 0.0506,-0.0251 0.0786,-0.0405 0,0 2.5276,-0.13418 3.3262,0.13274 0.0391,-0.0179 0.076,-0.0416 0.11522,-0.0606 -0.15176,-2.3288 0.48098,-5.8209 2.6668,-11.333"
     fill="#cb5347"
     id="path42707" />
  <path
     d="m 158.476,266.877 c -12.401,13.439 -13.971,34.007 -2.9047,47.592 -5.8664,-11.338 -5.7968,-28.504 2.9047,-47.592"
     fill="#eb6153"
     id="path42709" />
  <path
     d="m 150.146,280.947 c 0.0646,0.004 0.12664,0.0101 0.19123,0.0143 0,0 0.53159,-0.93153 0.79737,-1.4644 0,0 1.9112,0.35556 2.6718,0.27734 1.1239,-4.1666 2.6554,-8.4775 4.6716,-12.897 -3.8287,4.1476 -6.6208,8.9775 -8.332,14.069"
     fill="#cb5347"
     id="path42711" />
  <path
     d="m 127.186,303.817 c 0.0251,-4.1856 -5.3247,-9.0382 -18.504,-9.59 -14.205,-0.59613 -18.894,3.3022 -19.213,7.8788 -0.33667,4.821 6.4436,9.7584 17.798,10.527 15.191,1.0303 19.89,-4.0628 19.919,-8.8154"
     fill="#4da5dc"
     id="path42713" />
  <path
     d="m 127.186,303.817 c 0.0251,-4.1856 -5.3247,-9.0382 -18.504,-9.59 -14.205,-0.59611 -18.894,3.3022 -19.213,7.8789 -0.12537,1.7871 0.73282,3.5894 2.4339,5.1892 -1.8188,-4.7298 3.53,-9.4077 16.328,-9.4077 14.087,0 19.31,6.2537 16.185,11.459 1.9516,-1.6112 2.7579,-3.5958 2.7693,-5.5298"
     fill="#4291c1"
     id="path42715" />
  <path
     d="m 126.866,302.057 c -0.81129,4.3628 -5.8322,8.513 -19.404,7.3979 -10.532,-0.86699 -16.947,-5.4652 -17.184,-10.065 -0.48476,0.85431 -0.75055,1.7669 -0.81637,2.7111 -0.33542,4.821 6.4436,9.7584 17.798,10.528 15.191,1.029 19.89,-4.0641 19.92,-8.8167 0.003,-0.57716 -0.10621,-1.1657 -0.31392,-1.7555"
     fill="#eb6153"
     id="path42717" />
  <path
     d="m 92.087,303.387 c -1.1062,-1.2682 -1.734,-2.6313 -1.8048,-3.997 -0.48349,0.85305 -0.74928,1.7656 -0.8151,2.7111 -0.12537,1.7871 0.73284,3.5882 2.4339,5.1893 -0.51513,-1.3403 -0.45818,-2.6769 0.18606,-3.9034"
     fill="#cb5347"
     id="path42719" />
  <path
     d="m 127.186,303.817 c 0.004,-0.57716 -0.10621,-1.167 -0.31392,-1.7555 -0.21777,1.1758 -0.75561,2.3314 -1.6694,3.3768 0.2454,1.2948 -0.0216,2.6326 -0.78601,3.9084 1.9517,-1.6112 2.7579,-3.5958 2.7693,-5.5298"
     fill="#cb5347"
     id="path42721" />
  <path
     d="m 96.965,258.387 c 1.048,-0.52399 2.1719,-1.0125 3.3325,-1.4821 -31.417,2.1605 -38.823,50.306 -12.862,60.39 -0.57841,-0.46196 -1.1201,-0.93027 -1.6112,-1.4074 -14.287,-13.906 -11.767,-46.047 11.14,-57.501"
     fill="#eb6153"
     id="path42723" />
  <path
     d="m 67.639,242.767 c -0.83407,6.5322 -13.739,9.6078 -23.849,4.9399 -9.0002,-4.1552 -11.53,-8.8331 -11.008,-13.698 0.48096,-4.4704 8.98,-9.452 18.917,-7.0777 12.625,3.0174 16.459,11.77 15.94,15.836"
     fill="#ee7c68"
     id="path42725" />
  <path
     d="M 108.686,165.277 C 76.509,140.562 59.222,70.196 82.095,38.047 c 9.4571,-13.292 27.964,-23.19 44.818,-24.815 -0.62016,0.55184 -2.4934,2.1681 -3.2098,2.6744 -13.907,2.1238 -30.38,11.291 -39.469,24.066 -21.872,30.737 -4.8906,100.02 25.82,123.61 20.696,15.897 64.266,10.47 75.052,-10.132 5.4854,-10.48 6.8625,-35.563 3.3098,-53.681 0.49109,0.0287 1.9403,-0.0251 2.568,-0.21383 3.4616,17.763 1.3366,44.291 -4.1615,54.795 -11.454,21.878 -56.645,27.434 -78.136,10.927"
     id="path42727"
     style="fill:#0f141b" />
  <path
     d="m 80.114,112.888 c -0.70371,-0.21383 -1.4024,-0.43415 -2.0985,-0.66068 -0.17971,-0.315 -0.61385,-1.234 -0.4278,-1.4518 0.8923,0.29742 1.7922,0.58348 2.6984,0.85941 z"
     id="path42729"
     style="fill:#0f141b" />
  <path
     d="m 116.808,118.482 c 13.857,0.34298 27.498,-1.105 39.344,-3.8628 15.811,-3.6806 24.614,-9.0078 27.615,-13.749 -0.23033,-0.0736 -0.67589,-0.0322 -1.2024,0.0442 -2.5212,3.4907 -9.5964,8.7294 -26.961,12.673 -11.244,2.5541 -24.836,3.9476 -38.788,3.5806 z"
     id="path42731"
     style="fill:#0f141b" />
  <path
     d="m 116.4,120.96 c 13.959,0.52019 27.707,-0.76447 40.103,-3.7654 17.862,-4.3248 27.499,-10.923 30.734,-16.903 -0.41138,-0.042 -0.98219,0.0442 -1.2239,0.13418 -3.1338,5.2006 -12.272,11.583 -29.764,15.789 -11.577,2.7832 -25.202,4.1223 -39.516,3.5616 z"
     id="path42733"
     style="fill:#0f141b" />
  <path
     d="m 91.678,141.607 c -0.67713,-0.21025 -1.3543,-0.424 -2.0327,-0.64421 -0.1734,-0.29599 -0.47843,-1.2822 -0.56069,-1.5252 1.0328,0.34299 2.0643,0.67209 3.0946,0.9885 z"
     id="path42735"
     style="fill:#0f141b" />
  <path
     d="m 123.656,147.757 c 13.878,1.0417 27.008,-0.15428 38.437,-3.4262 15.255,-4.3679 25.049,-11.878 29.588,-20.022 0.008,-0.61386 -0.19625,-0.97331 -0.26191,-1.577 -3.697,7.6599 -13.357,15.704 -29.579,20.399 -10.885,3.1502 -24.22,4.4602 -38.808,3.2793 z"
     id="path42737"
     style="fill:#0f141b" />
  <path
     d="m 124.156,149.947 c 13.977,1.0961 27.11,-0.0721 38.59,-3.3173 15.551,-4.3957 24.111,-11.21 28.666,-18.96 0.0216,-0.65688 0.003,-1.3176 -0.10367,-1.7492 -3.7666,7.589 -13.248,15.218 -28.875,19.598 -10.914,3.0592 -24.096,4.2565 -38.426,3.1009 z"
     id="path42739"
     style="fill:#0f141b" />
  <path
     d="m 90.175,52.607 c -4.4729,-0.57461 -11.096,8.1319 -11.19,19.181 -0.11636,13.701 4.0274,19.674 10.044,19.836 4.9171,0.15319 7.5662,-4.3957 7.689,-19.631 C 96.84464,56.34 94.6866,53.186 90.1745,52.607 m 0.32782,-2.2086 c 6.479,0.8151 8.7104,6.3056 8.5876,21.513 -0.1405,17.374 -4.0476,22.086 -9.8976,22.086 -7.3384,0 -12.326,-6.7537 -12.147,-22.209 0.1367,-11.807 7.5447,-22.134 13.457,-21.39"
     id="path42741"
     style="fill:#0f141b" />
  <path
     d="m 80.669,59.603 c -3.635,17.632 -0.10126,27.589 6.7714,29.991 2.1909,0.76703 5.1361,0.84423 7.9067,-0.95431 0.27088,-0.36326 0.37464,-0.82775 0.36326,-1.272 -2.5035,1.3796 -5.6183,1.6479 -7.8611,0.86319 -6.1309,-2.144 -9.9343,-12.205 -5.7259,-30.583 -0.55563,0.23535 -1.1252,1.3201 -1.4543,1.9542"
     id="path42743"
     style="fill:#0f141b" />
  <path
     d="m 81.095,112.36 c -0.02652,0.23285 -0.02157,0.47717 0.0151,0.73283 0.68094,4.7678 5.1551,10.723 16.522,13.081 12.228,2.5377 18.521,-2.4542 18.314,-8.1522 -0.15693,-4.3109 -7.6624,-7.9067 -19.032,-9.1838 -10.599,-1.191 -15.52,0.86448 -15.82,3.5224 m 16.137,15.413 c -13.744,-2.8516 -19.057,-12.007 -17.947,-16.25 0.91508,-3.5009 5.7171,-5.9753 17.8,-4.6185 12.759,1.434 20.599,5.5563 20.798,11.047 0.22388,6.1132 -6.16,12.83 -20.651,9.8217"
     id="path42745"
     style="fill:#0f141b" />
  <path
     d="m 96.09,123.946 c -10.858,-3.2135 -14.755,-9.4634 -13.796,-14.743 0.37212,-0.33795 1.3429,-0.39487 1.8124,-0.6012 -1.496,4.7058 1.8593,10.99 12.326,14.087 13.462,3.9856 19.643,-1.1264 19.943,-6.6157 0.33545,0.61767 0.67841,2.7883 0.47462,4.0097 -1.3577,2.3972 -3.8184,4.249 -7.4535,5.0123 -3.3932,0.71252 -7.8097,0.4766 -13.307,-1.1494"
     id="path42747"
     style="fill:#0f141b" />
  <path
     d="m 123.126,148.867 c -1.1277,-4.4096 -8.3977,-9.4546 -19.913,-10.714 -8.537,-0.92901 -11.43,3.4882 -10.733,5.5399 1.0898,3.2022 5.2146,7.3928 13.362,9.4951 13.221,3.4123 18.371,-0.0721 17.284,-4.321 m 1.7062,-0.22782 c 1.296,5.0716 -3.8856,10.142 -19.389,6.1411 -7.4409,-1.92 -13.015,-5.936 -14.611,-10.632 -1.2581,-3.7021 2.8908,-8.9888 12.591,-7.9219 11.114,1.2151 19.876,6.4233 21.409,12.412"
     id="path42749"
     style="fill:#0f141b" />
  <path
     d="m 105.945,151.737 c -7.2599,-1.9972 -12.461,-6.4372 -13.667,-11.38 0.20253,-0.36452 1.0556,-0.70624 1.4543,-0.94292 0.64424,3.935 5.0323,8.9243 12.612,11.01 11.321,3.1148 16.545,0.28343 16.568,-3.5123 0.55437,0.52905 1.0657,1.4948 1.1834,2.1352 -1.7023,3.9185 -7.7889,5.5412 -18.151,2.6896"
     id="path42751"
     style="fill:#0f141b" />
  <path
     d="m 111.042,166.017 c 0.55943,0.17724 1.5251,0.41894 2.0833,0.41134 3.6768,12.793 37.464,16.959 57.241,7.8966 16.651,-7.632 21.195,-21.638 18.26,-28.498 0.0936,-0.72397 0.57716,-1.6897 0.84549,-2.4339 5.1121,7.0384 0.8885,24.347 -18.219,33.105 -22.371,10.255 -57.422,4.2172 -60.211,-10.481"
     id="path42753"
     style="fill:#0f141b" />
  <path
     d="m 136.326,200.357 h 0.0101 z m 0.63284,0.62523 c -2.849,2.7604 -2.5579,9.1584 1.4986,14.976 0,0 -2.2605,-2.0378 -3.1769,-3.1921 -3.1705,-5.3981 -2.0061,-10.684 0.44427,-13.057 4.4387,-4.297 13.152,-3.0452 21.514,6.6031 8.5851,9.9052 8.6826,18.114 5.0766,21.877 -2.9782,3.1085 -9.4698,3.1693 -14.439,-0.68601 l -1.9479,-3.0072 c 5.0703,4.3767 11.947,5.8057 15.154,2.4605 2.8996,-3.0262 2.4352,-10.441 -5.3082,-19.375 -7.1663,-8.2687 -14.979,-10.317 -18.816,-6.5992"
     id="path42755"
     style="fill:#0f141b" />
  <path
     d="m 142.096,218.197 c -6.7182,-8.2636 -7.3321,-14.608 -5.288,-18.486 0.56198,-0.29491 1.6302,-0.70625 2.52,-0.75181 -2.7604,2.8275 -3.4566,9.404 3.8362,18.375 7.3549,9.0458 14.322,9.7811 17.302,6.4929 1.4201,-1.5669 2.32,-5.0728 0.78471,-9.9545 1.0657,1.777 1.9694,3.873 2.3592,5.7677 -0.16575,2.0934 -0.98598,3.9223 -2.1567,5.2146 -3.5641,3.9325 -11.337,3.2072 -19.357,-6.6574"
     id="path42757"
     style="fill:#0f141b" />
  <path
     d="m 174.736,245.257 c 1.5821,0.39616 5.564,1.1113 7.7789,1.2784 16.318,6.9612 34.886,6.8562 49.239,0.748 6.9372,-2.9528 11.229,-6.6562 11.743,-8.642 1.048,-4.0388 -0.76953,-13.663 -4.5336,-18.886 0.13024,-0.6012 0.5645,-2.063 0.61132,-2.8338 5.0551,5.3867 7.1258,17.089 5.7993,22.206 -0.77839,3.0034 -5.9474,6.9979 -12.862,9.9393 -17.668,7.5194 -40.48,6.3638 -57.776,-3.8097"
     id="path42759"
     style="fill:#0f141b" />
  <path
     d="m 167.206,327.457 c -21.751,-9.7204 -24.472,-46.984 3.978,-83.446 0.45816,0.052 1.7036,0.55309 2.3592,0.71381 -28.919,36.608 -25.033,71.711 -5.312,80.525 18.478,8.2611 49.311,-0.39867 63.567,-27.769 15.264,-29.307 16.597,-51.732 12.992,-60.223 0.0216,-1.1467 0.15929,-3.33 0.0786,-4.6527 5.593,6.6106 8.0763,28.47 -11.352,65.771 -16.785,32.228 -49.471,36.608 -66.311,29.081"
     id="path42761"
     style="fill:#0f141b" />
  <path
     d="m 167.406,267.287 c -3.8768,9.5242 -3.2895,13.753 -1.5631,15.732 2.1402,2.4541 7.5422,-0.26442 11.939,-11.256 3.7515,-9.3799 2.4048,-16.521 0.21275,-17.335 -2.8895,-1.0708 -5.5993,0.59994 -10.589,12.858 m 11.094,-14.522 c 3.3958,1.2593 5.3969,8.9306 1.0822,19.718 -5.3462,13.367 -12.115,15.02 -15.101,11.595 -2.4655,-2.8275 -2.6086,-7.3916 1.4631,-17.395 5.2057,-12.791 8.2522,-15.512 12.555,-13.917"
     id="path42763"
     style="fill:#0f141b" />
  <path
     d="m 167.926,281.827 c -1.5998,-1.8821 -2.7731,-5.35 1.3442,-15.732 4.7754,-12.044 6.3651,-12.98 9.6672,-12.306 0.73789,0.54297 0.80243,1.3518 0.95431,1.7808 -3.4667,-1.5264 -4.8488,-0.39617 -9.3812,11.034 -3.8426,9.6913 -2.5579,12.759 -1.353,14.178 0.80623,0.95054 3.1971,1.3935 5.4576,-0.89608 -0.45059,0.70496 -1.6606,2.6212 -2.7731,3.2059 -1.6618,0.21634 -3.1224,-0.329 -3.916,-1.2644"
     id="path42765"
     style="fill:#0f141b" />
  <path
     d="m 157.156,317.547 c -6.7612,-6.6056 -10.124,-15.956 -10.101,-24.607 0.0251,-8.9838 3.2515,-19.347 12.157,-27.955 -0.54042,1.0442 -1.1011,2.444 -1.4682,3.9932 -6.1702,7.5434 -8.4939,15.579 -8.5155,23.962 -0.0179,6.5929 1.7618,13.567 5.1096,18.441 0.60752,2.2921 1.9238,4.8374 2.8186,6.1664"
     id="path42767"
     style="fill:#0f141b" />
  <path
     d="m 85.15,316.587 c -7.1802,-6.9891 -10.491,-18.726 -8.6408,-30.633 5.4614,-35.155 43.93,-41.133 87.972,-30.395 -0.34298,0.51893 -0.66448,1.2682 -1.0999,1.7277 -46.72,-11.233 -80.36,-0.63033 -84.957,28.965 -1.7555,11.297 1.3404,22.389 8.0776,28.947 14.208,13.829 68.121,21.205 81.915,11.261 0.64421,0.32541 2.2174,1.3555 2.5668,1.391 -14.215,11.6 -70.286,3.8705 -85.833,-11.263"
     id="path42769"
     style="fill:#0f141b" />
  <path
     d="m 89.226,318.987 c -13.683,-4.102 -20.514,-18.086 -18.232,-33.578 2.4782,-16.825 14.693,-29.051 30.471,-29.538 -1.1733,0.70625 -2.4124,1.3821 -3.7451,2.2947 -12.454,1.9884 -22.354,12.823 -24.515,27.496 -2.1719,14.741 4.1894,25.507 12.335,29.724 0.89357,0.79608 2.4529,2.4984 3.6856,3.6021"
     id="path42771"
     style="fill:#0f141b" />
  <path
     d="m 87.163,317.327 c -88.749,-4.8463 -100.02,-63.809 -76.552,-87.497 21.356,-21.556 60.564,-17.211 86.131,28.812 -0.47968,0.21131 -1.2783,0.8265 -1.6947,0.94042 -23.521,-42.339 -61.09,-49.755 -82.573,-28.07 -22.632,22.842 -9.6963,78.425 72.793,83.76 0.48855,0.71511 1.472,1.5758 1.896,2.0554"
     id="path42773"
     style="fill:#0f141b" />
  <path
     d="m 5.892,276.727 c -3.1629,-14.492 0.26072,-30.004 9.2268,-41.008 8.7256,-10.708 22.113,-16.301 37.377,-15.637 1.1948,0.35196 1.8631,0.65053 2.7225,1.029 -16.294,-1.2505 -30.095,4.1211 -39.222,15.322 -9.5723,11.748 -12.715,28.082 -8.4117,43.273 -0.95685,-1.167 -1.1429,-1.7909 -1.6922,-2.9794"
     id="path42775"
     style="fill:#0f141b" />
  <path
     d="m 10.38,284.227 c -6.0892,-14.139 -5.2791,-32.853 6.2689,-47.068 9.752,-12.004 25.363,-17.376 42.8,-14.617 1.2492,0.45058 1.3441,0.66826 2.6478,1.3606 -18.542,-3.4452 -34.53,1.5036 -44.628,14.038 -11.409,14.162 -12.697,33.752 -4.8083,48.898 -1.0366,-1.0442 -1.9124,-2.0225 -2.2807,-2.6111"
     id="path42777"
     style="fill:#0f141b" />
  <path
     d="m 40.811,306.797 c -13.925,-14.44 -15.155,-35.59 -4.2274,-51.943 9.8963,-14.811 27.415,-21.027 45.23,-15.849 0.41895,0.36197 0.58981,0.61258 0.74042,1.1581 -21.386,-6.4322 -37.279,3.8198 -45.081,15.406 -11.251,16.709 -9.0116,38.011 5.4285,52.096 -0.65815,-0.0797 -1.353,-0.40373 -2.0909,-0.86823"
     id="path42779"
     style="fill:#0f141b" />
  <path
     d="m 37.337,305.187 c -13.186,-15.019 -13.268,-36.432 -2.5605,-51.908 10.014,-14.472 27.13,-20.837 44.818,-16.688 0.47336,0.35303 0.74168,0.70753 0.86826,1.1897 -17.688,-4.3742 -34.807,1.7314 -44.788,16.188 -11.389,16.498 -9.7862,37.615 3.8173,52.312 -0.44046,-0.0862 -1.5973,-0.72141 -2.1542,-1.0935"
     id="path42781"
     style="fill:#0f141b" />
  <path
     d="m 169.596,244.627 c -24.958,-8.3522 -57.838,-59.569 -58.545,-78.731 0.3797,0.20128 2.3263,0.74299 2.7452,1.029 0.86572,10.166 10.351,28.907 22.619,45.329 2.2441,4.6665 7.9687,11.547 11.64,13.872 7.4852,7.8421 15.27,13.909 22.315,16.265 22.396,7.4953 42.401,4.6298 55.357,-6.117 9.3141,-7.7257 13.148,-17.361 12.707,-20.555 -2.9414,-21.333 -32.414,-56.973 -50.09,-68.725 0.20522,-0.50501 0.64425,-2.0226 0.77965,-2.277 24.479,15.554 49.121,54.615 51.349,70.763 0.46576,3.373 -3.2604,13.786 -13.509,22.286 -15.122,12.544 -34.142,14.631 -57.368,6.8612"
     id="path42783"
     style="fill:#0f141b" />
  <path
     d="m 126.376,303.897 c 0.0216,-3.7945 -5.6297,-8.1965 -17.738,-8.7053 -12.618,-0.5303 -18.012,2.4048 -18.326,6.9169 -0.24805,3.5604 5.1323,8.9939 17.077,9.8027 14.44,0.9834 18.962,-3.7679 18.988,-8.0143 m -19.112,9.4938 c -12.51,-0.84801 -19.042,-6.3334 -18.679,-11.528 0.30378,-4.3792 3.9692,-9.2799 20.133,-8.6078 9.7027,0.40757 19.364,3.9084 19.322,10.642 -0.0381,6.2638 -6.6246,10.448 -20.776,9.4938"
     id="path42785"
     style="fill:#0f141b" />
  <path
     d="m 107.359,310.207 c -9.8938,-0.8138 -16.651,-5.0602 -17.576,-9.7406 0.16202,-0.4202 0.65942,-1.0922 1.1429,-1.5239 -0.10887,4.4083 6.3005,8.9521 16.542,9.7951 12.825,1.0543 18.393,-2.8288 18.774,-7.6181 0.31751,0.1923 0.52525,1.2442 0.9252,2.2314 -1.6871,5.0058 -8.3193,7.8042 -19.808,6.8562"
     id="path42787"
     style="fill:#0f141b" />
  <path
     d="m 117.373,63.882 c 11.396,-12.754 35.465,-7.6498 45.238,9.9862 0.69613,1.2556 1.2631,2.506 1.758,3.7414 2.1795,2.987 4.0362,3.311 8.966,3.5844 20.842,1.1581 39.054,-3.6515 52.055,-10.652 0.35447,-0.20521 1.1404,-0.62397 1.5137,-0.83658 10.82,-6.1626 17.698,-13.833 18.983,-20.632 -0.11014,-0.52148 -0.21526,-1.0417 -0.35052,-1.5644 -6.8524,-26.472 -44.591,-49.487 -85.084,-45.897 -36.946,3.2756 -59.388,31.528 -56.364,60.256 1.0961,10.42 5.9955,19.057 13.826,25.591 -5.4943,-8.4534 -5.7715,-17.723 -0.54043,-23.577"
     fill="#eb6153"
     id="path42791" />
  <path
     d="m 197.146,22.601 c -1.2252,6.5322 -20.182,9.6078 -35.033,4.9412 -13.221,-4.1552 -16.937,-8.8344 -16.169,-13.7 0.70625,-4.4704 13.19,-9.4521 27.787,-7.0777 18.546,3.0174 24.177,11.77 23.415,15.836"
     fill="#ee7c68"
     id="path42793" />
  <path
     d="m 113.98,70.745 c -9.0357,-21.539 -4.5261,-43.362 23.183,-63.083 -22.713,10.415 -35.397,32.163 -33.077,54.206 1.0973,10.419 5.9968,19.056 13.826,25.589 -3.6578,-5.6272 -4.9855,-11.61 -3.9325,-16.713"
     fill="#cb5347"
     id="path42795" />
  <path
     d="m 176.476,97.057 c 23.069,12.066 46.109,8.8243 54.328,-1.6201 5.231,-6.6473 4.9779,-16.671 -5.4146,-24.895 0,-0.001 0,-0.001 0.001,-0.001 -13.001,7.0005 -31.214,11.81 -52.056,10.653 -4.9298,-0.27447 -6.7866,-0.5974 -8.966,-3.5844 3.0566,7.6548 3.1946,14.786 12.107,19.447"
     fill="#884457"
     id="path42797"
     style="fill:#693d46;fill-opacity:1" />
  <path
     d="m 205.186,78.243 c -9.5116,2.3921 -20.271,3.5933 -31.847,2.9503 -4.945,-0.27483 -6.7992,-0.59995 -8.9863,-3.611 3.0528,7.7042 3.1161,14.969 12.126,19.475 1.5555,0.77714 3.0781,1.4695 4.5856,2.1226 23.423,-2.3579 29.038,-11.329 24.121,-20.937"
     fill="#5c2738"
     id="path42799"
     style="fill:#552d33;fill-opacity:1" />
  <path
     d="m 230.806,95.437 c -8.2193,10.444 -31.257,13.684 -54.328,1.62 -10.353,-5.4146 -8.8623,-14.162 -13.865,-23.19 -9.7723,-17.636 -33.84,-22.739 -45.238,-9.9862 -5.9879,6.7018 -4.7602,17.881 3.254,27.187 20.565,23.88 89.901,34.544 111.7,7.6649 8.0066,-9.8748 4.1337,-22.018 -5.4196,-29.028 -0.49614,0.28235 -1.0012,0.56069 -1.5137,0.83662 10.392,8.2244 10.646,18.249 5.4146,24.896"
     fill="#f9d0ba"
     id="path42801" />
  <path
     d="m 114.097,70.228 c -1.5226,6.3094 0.69613,14.067 6.5296,20.839 11.452,13.298 38.03,22.494 63.099,23.395 -37.365,-9.6128 -64.127,-31.81 -69.629,-44.234"
     fill="#d7b3a2"
     id="path42803" />
  <path
     d="m 176.046,97.924 c -7.3485,-3.6742 -9.0597,-9.1445 -10.871,-14.936 -7.9434,-25.408 -32.189,-29.574 -44.014,-20.929 -9.6964,7.0878 -7.3308,19.48 0.27733,28.314 11.697,13.585 40.861,23.607 67.879,23.185 23.545,-0.348 37.907,-8.637 43.504,-16.721 5.6892,-8.218 3.2806,-19.683 -6.3347,-26.835 0.49744,-0.23787 0.78094,-0.39993 1.2518,-0.70115 10.5,8.099 12.077,19.734 6.2993,28.406 -6.179,9.271 -21.336,17.444 -44.692,17.79 -29.285,0.42905 -58.093,-10.468 -69.536,-23.755 -10.265,-11.918 -9.5407,-24.941 -0.0179,-31.739 12.75,-9.104 38.713,-4.8336 47.235,22.408 1.758,5.6209 3.2755,10.475 9.8875,13.781 24.881,12.44 45.64,8.1775 53.301,-1.2644 5.6981,-7.022 3.7628,-17.175 -5.3804,-23.873 0.30891,0.0179 1.353,-0.70119 1.353,-0.70119 8.1661,5.9082 11.732,16.177 5.2437,25.444 -6.0233,8.6054 -28.003,15.82 -55.385,2.1289"
     id="path42805"
     style="fill:#0f141b" />
  <path
     d="m 208.106,100.546 c -2.4326,1.958 -5.2146,3.2288 -8.1396,3.9957 -1.7707,-0.25687 -3.4907,-0.73153 -4.5463,-1.1632 4.2337,-0.38603 8.413,-1.7643 12.271,-4.0198 1.6137,-0.94293 1.9124,-0.0179 0.41514,1.1872"
     id="path42807"
     style="fill:#0f141b" />
  <path
     d="m 215.826,93.485 c 5.4589,-6.3499 8.4168,-14.758 7.8244,-21.832 -0.34801,0.17222 -1.5935,0.64676 -1.8897,0.76828 0.34944,6.4613 -2.2554,13.943 -6.8245,20.174 -1.053,1.4353 -0.28092,2.2517 0.88976,0.8898"
     id="path42809"
     style="fill:#0f141b" />
  <path
     d="m 190.486,93.485 c -3.4414,2.3731 -7.6447,3.7261 -12.88,4.2463 -1.0062,-0.38858 -1.5998,-1.0417 -2.7883,-1.753 6.0841,-0.22137 11.158,-1.7213 15.015,-3.5616 1.6884,-0.80495 2.2137,-0.008 0.65307,1.0682"
     id="path42811"
     style="fill:#0f141b" />
  <path
     d="m 196.236,88.737 c 2.849,-2.73 4.4767,-6.1689 4.9538,-9.5584 -0.44423,0.12271 -1.6896,0.0632 -1.9795,0.12156 -0.47969,2.8516 -1.9061,5.9955 -3.8046,8.4876 -1.0012,1.3125 -0.42905,2.1568 0.83028,0.94929"
     id="path42813"
     style="fill:#0f141b" />
  <path
     d="M 245.816,44.14 C 236.8828,19.182 201.186,-3.239 160.364,0.387 123.434,3.66 100.018,32.505 103.12,61.971 c 1.1961,11.375 6.865,20.851 15.988,27.814 -0.84166,-0.94419 -2.425,-4.1261 -2.8908,-5.2348 -6.317,-6.0727 -10.22,-13.754 -11.171,-22.782 -2.8617,-27.193 17.983,-55.528 55.547,-58.858 51.311,-4.5463 81.545,29.345 83.918,44.877 0.36831,2.4098 -1.0011,6.7853 -5.8728,11.858 -15.241,15.874 -43.753,21.605 -65.246,20.413 -6.36,-0.35303 -7.5118,-1.0138 -10.322,-6.7803 0.0962,0.92395 0.72522,4.5881 1.0973,5.8335 1.4606,2.0149 3.2629,2.8655 9.1242,3.1908 25.002,1.3885 52.403,-6.3778 66.744,-21.314 2.5276,-2.6339 5.3399,-6.8827 6.2955,-9.6204 0.5379,-1.5403 0.62903,-4.0274 -0.51639,-7.2283"
     id="path42815"
     style="fill:#0f141b" />
  <path
     d="m 164.416,77.934 c -5.1551,-17.397 -1.0454,-36.856 10.589,-50.307 10.175,-11.762 24.4,-16.951 39.945,-14.694 0.72017,0.49485 1.2011,0.83026 1.4872,1.129 -15.801,-2.7187 -30.262,2.3807 -40.576,14.305 -11.932,13.795 -15.482,34.253 -9.2901,51.876 -0.77206,-0.49993 -1.7542,-1.6593 -2.1542,-2.3086"
     id="path42817"
     style="fill:#0f141b" />
  <path
     d="m 161.026,72.649 c -3.5895,-16.401 0.74675,-34.007 11.556,-46.502 9.6811,-11.192 23.464,-16.766 39.235,-14.857 0.92391,0.49996 1.3327,0.87714 1.6922,1.2315 -15.788,-2.563 -29.865,2.5643 -40.073,14.364 -11.186,12.933 -15.06,31.885 -10.409,48.687 -0.47968,-0.36451 -1.7201,-2.4162 -2.001,-2.9237"
     id="path42819"
     style="fill:#0f141b" />
  <path
     d="m 129.156,57.083 c -0.004,-16.279 5.8588,-30.852 16.431,-41.076 9.0091,-8.7129 21.339,-13.506 34.083,-14.197 1.5011,0.12664 2.5212,0.58221 3.092,0.85435 -13.259,-0.03807 -26.13,4.2324 -36.389,14.155 -10.303,9.9634 -15.83,24.177 -15.874,40.06 -0.26442,0 -0.97458,0.13311 -1.3429,0.20379"
     id="path42821"
     style="fill:#0f141b" />
  <path
     d="m 127.366,57.572 c -0.11521,-16.017 5.4487,-30.637 15.477,-41.136 8.2446,-8.6294 19.194,-13.931 30.767,-15.317 0.95556,0.0076 2.687,0.49615 3.4578,0.69104 -12.774,0.53285 -24.445,6.0259 -33.408,15.408 -9.7495,10.205 -15.053,24.325 -15.021,39.905 -0.29742,0.12271 -0.90747,0.32648 -1.2732,0.44804"
     id="path42823"
     style="fill:#0f141b" />
  <path
     d="m 222.576,60.512 c 1.839,-1.515 1.8454,-6.155 -1.172,-10.095 -3.4515,-4.5058 -7.4764,-5.1893 -9.6445,-3.7856 -2.4313,1.5758 -2.5972,6.5954 0.54171,11.066 3.1009,4.416 7.6966,4.9374 10.275,2.8149"
     fill="#add6f2"
     id="path42827" />
  <path
     d="m 237.696,51.453 c 1.6909,-1.4087 1.6314,-5.3601 -1.0454,-9.5457 -2.6744,-4.1831 -6.1525,-5.5854 -7.8966,-4.4551 -1.758,1.1378 -1.7365,5.8525 1.0796,9.8634 3.3604,4.7855 6.5562,5.226 7.8624,4.1375"
     fill="#add6f2"
     id="path42829" />
  <path
     d="m 212.196,47.32 c -2.02,1.3074 -1.9302,5.9651 0.82267,9.8849 2.9794,4.2426 7.446,4.521 9.1888,2.8035 1.7264,-1.7036 1.7264,-5.4703 -1.3264,-9.4533 -3.2376,-4.2274 -6.5701,-4.6071 -8.6851,-3.2351 m 10.941,13.869 c -3.1541,2.5972 -8.3282,1.6466 -11.575,-2.9782 -3.4198,-4.8703 -3.1971,-10.422 -0.27196,-12.318 2.4124,-1.5631 6.9701,-1.0847 10.714,3.8021 3.3604,4.3894 3.5148,9.5318 1.1328,11.494"
     id="path42831"
     style="fill:#0f141b" />
  <path
     d="m 217.506,52.549 c -1.4277,0.73282 0.44552,4.2716 2.0694,3.1895 1.2644,-0.84294 -0.3848,-4.054 -2.0694,-3.1895"
     id="path42833"
     style="fill:#0f141b" />
  <path
     d="m 229.136,37.9227 c -1.2923,0.83662 -0.99611,5.4361 1.4277,8.8888 2.9642,4.2223 5.8082,4.8855 6.7258,4.1223 1.4897,-1.2429 1.5872,-4.7969 -1.0404,-8.9053 -2.644,-4.1337 -5.6513,-5.0526 -7.1131,-4.1058 m 8.5597,13.53 h 0.0101 z m -8.6192,-3.611 c -3.1237,-4.4488 -3.1313,-9.6267 -0.80624,-11.134 2.1491,-1.3948 6.1246,-0.04162 9.1584,4.7045 2.7604,4.3172 3.1136,8.823 0.84165,10.716 h -0.001 c -1.8264,1.5226 -5.6006,0.82774 -9.1926,-4.2868"
     id="path42835"
     style="fill:#0f141b" />
  <path
     d="m 233.496,43.303 c -1.2302,0.63159 0.55438,4.1691 1.9985,3.206 1.0834,-0.72142 -0.49741,-3.9755 -1.9985,-3.206"
     id="path42837"
     style="fill:#0f141b" />
  <path
     d="m 221.516,60.525 c 1.796,-1.4783 1.3189,-5.8423 -1.2555,-9.2027 -3.2326,-4.2198 -6.5638,-4.9488 -8.4142,-3.7502 -0.15069,0.0986 -0.68472,-0.46702 -0.53536,-0.5645 2.6934,-1.7428 6.417,-0.74672 9.79,3.6566 2.9402,3.8401 3.2338,8.2282 0.64676,10.358 -0.0595,0.04949 -0.36958,-0.3835 -0.23177,-0.49741"
     id="path42839"
     style="fill:#0f141b" />
  <path
     d="m 236.796,51.166 c 1.372,-1.1416 1.4504,-4.3134 -1.1404,-8.3636 -3.1566,-4.9386 -5.6348,-5.369 -6.8473,-4.583 -0.15068,0.09758 -0.48983,-0.65311 -0.35697,-0.77208 1.658,-1.4922 4.8095,-0.33294 8.0788,4.7463 2.7706,4.3071 2.8174,8.4585 0.56321,9.6849 -0.0697,0.03807 -0.43412,-0.59866 -0.29743,-0.71257"
     id="path42841"
     style="fill:#0f141b" />
</svg>
