<?xml version="1.0" encoding="UTF-8"?>
<!-- Created with Inkscape (http://www.inkscape.org/) -->
<svg version="1.1" viewBox="0 0 287.64 346.77" xmlns="http://www.w3.org/2000/svg">
 <defs>
  <radialGradient id="radialGradient22323" cx=".0020068" cy="-.0016358" r="1" fx="-.11365" fy=".99165" gradientTransform="matrix(48.123 -51.165 59.037 55.528 97.962 109.17)" gradientUnits="userSpaceOnUse">
   <stop stop-color="#a5a3ad" offset="0"/>
   <stop stop-color="#a5a3ad" offset=".4519"/>
   <stop stop-color="#fff" offset=".5471"/>
   <stop stop-color="#fff" offset="1"/>
  </radialGradient>
  <radialGradient id="radialGradient22327" cx="-.0050129" cy=".003519" r="1" fx="-.084978" fy="1.0003" gradientTransform="matrix(43.825 -62.429 62.429 43.825 75.445 136.48)" gradientUnits="userSpaceOnUse">
   <stop stop-color="#a5a3ad" offset="0"/>
   <stop stop-color="#a5a3ad" offset=".41475"/>
   <stop stop-color="#fff" offset=".50317"/>
   <stop stop-color="#fff" offset="1"/>
  </radialGradient>
  <radialGradient id="radialGradient22331" cx="0" cy="0" r="1" fx="-.012357" fy=".91905" gradientTransform="matrix(49.978 55.917 -55.917 49.978 255.09 159.34)" gradientUnits="userSpaceOnUse">
   <stop stop-color="#a5a3ad" offset="0"/>
   <stop stop-color="#a5a3ad" offset=".41406"/>
   <stop stop-color="#fff" offset=".53382"/>
   <stop stop-color="#fff" offset="1"/>
  </radialGradient>
  <radialGradient id="radialGradient22335" cx="0" cy="0" r="1" fx="-.082199" fy=".87334" gradientTransform="matrix(99.122 47.241 -38.528 80.84 218.6 111.04)" gradientUnits="userSpaceOnUse">
   <stop stop-color="#a5a3ad" offset="0"/>
   <stop stop-color="#a5a3ad" offset=".4234"/>
   <stop stop-color="#fff" offset=".51676"/>
   <stop stop-color="#fff" offset="1"/>
  </radialGradient>
  <radialGradient id="radialGradient22339" cx="0" cy="0" r="1" fx=".10655" fy=".97108" gradientTransform="matrix(128.13 17.685 -16.904 122.47 170.6 88.121)" gradientUnits="userSpaceOnUse">
   <stop stop-color="#a5a3ad" offset="0"/>
   <stop stop-color="#a5a3ad" offset=".47194"/>
   <stop stop-color="#fff" offset=".53415"/>
   <stop stop-color="#fff" offset="1"/>
  </radialGradient>
  <radialGradient id="radialGradient22343" cx="0" cy="0" r="1" fx="-.11432" fy=".99344" gradientTransform="matrix(5.9258 -35.122 39.124 6.6009 86.629 176.68)" gradientUnits="userSpaceOnUse">
   <stop stop-color="#a5a3ad" offset="0"/>
   <stop stop-color="#a5a3ad" offset=".40333"/>
   <stop stop-color="#fff" offset=".50162"/>
   <stop stop-color="#fff" offset="1"/>
  </radialGradient>
  <radialGradient id="radialGradient22347" cx="0" cy="0" r="1" fx=".083652" fy="-.96733" gradientTransform="matrix(23.928 14.252 -14.252 23.928 97.508 196.74)" gradientUnits="userSpaceOnUse">
   <stop stop-color="#a5a3ad" offset="0"/>
   <stop stop-color="#a5a3ad" offset=".44198"/>
   <stop stop-color="#fff" offset=".59712"/>
   <stop stop-color="#fff" offset="1"/>
  </radialGradient>
  <radialGradient id="radialGradient22351" cx="0" cy="0" r="1" fx="-.055877" fy="-.95674" gradientTransform="matrix(30.134 -.14062 .14062 30.134 117.56 205.34)" gradientUnits="userSpaceOnUse">
   <stop stop-color="#a5a3ad" offset="0"/>
   <stop stop-color="#a5a3ad" offset=".44733"/>
   <stop stop-color="#fff" offset=".5934"/>
   <stop stop-color="#fff" offset="1"/>
  </radialGradient>
  <radialGradient id="radialGradient22355" cx="0" cy="0" r="1" fx="-.093338" fy="-.99563" gradientTransform="matrix(24.36 -33.064 33.064 24.36 234.19 217.18)" gradientUnits="userSpaceOnUse">
   <stop stop-color="#a5a3ad" offset="0"/>
   <stop stop-color="#a5a3ad" offset=".45075"/>
   <stop stop-color="#fff" offset=".56189"/>
   <stop stop-color="#fff" offset="1"/>
  </radialGradient>
  <radialGradient id="radialGradient22359" cx="0" cy="0" r="1" fx=".081634" fy=".99666" gradientTransform="matrix(35.684 -8.3332 9.3153 39.89 222.71 233.42)" gradientUnits="userSpaceOnUse">
   <stop stop-color="#fff" offset="0"/>
   <stop stop-color="#fff" offset=".57155"/>
   <stop stop-color="#a5a3ad" offset=".67576"/>
   <stop stop-color="#a5a3ad" offset="1"/>
  </radialGradient>
  <radialGradient id="radialGradient22363" cx="0" cy="0" r="1" fx="-.023594" fy=".99972" gradientTransform="matrix(36.033 7.4801 -7.4801 36.033 200.32 234.36)" gradientUnits="userSpaceOnUse">
   <stop stop-color="#fff" offset="0"/>
   <stop stop-color="#fff" offset=".52925"/>
   <stop stop-color="#a5a3ad" offset=".641"/>
   <stop stop-color="#a5a3ad" offset="1"/>
  </radialGradient>
 </defs>
 <path d="m117.8 278.44c-1.1318 2.1248-2.395 4.1858-3.748 6.1693-0.18254-3.5815-1.0186-7.6633-2.2161-12.107-2.782-1.7013-5.9243-2.5885-9.0543-2.6798-1.1318 0.60606-2.2526 1.1975-3.2712 1.8291 3.5158 1.778 8.5391 7.2383 8.7582 10.175 0.32858 4.2117-4.7783 8.4749-8.5264 8.2817-1.8693-0.073-2.9901-0.90177-5.2292-4.1989-1.3253-1.9824-3.0412-3.9025-4.7009-5.0357-0.96749-0.65717-1.8547-1.3253-2.6542-2.008-3.0923 5.783-2.3037 12.712 1.5443 17.748 6.0017 7.8695 17.851 10.729 25.631 4.7911 6.6845-5.1131 8.2171-15.288 3.4647-22.964" fill="#373739"/>
 <g fill="#a5a3ad">
  <path d="m268.16 149.72c-0.90177-5.9247 1.402-12.429 10.072-17.503 10.278-6.0277 11.515-22.385 2.9609-32.933 3.6436 10.664-3.4647 23.299-15.494 25.811-12.223 2.5629-16.499 7.1868-20.517 17.761-3.1288 8.2171-9.1576 14.103-16.074 16.228 11.643-9.8786 13.511-30.834 4.7396-43.031-8.3588-11.618-7.2511-21.805 2.9755-30.46 9.5439-8.1014 8.4106-22.076 1.7013-28.438 3.001 8.6549-0.18255 15.803-14.837 21.213-13.33 4.9072-18.778 9.9433-22.977 20.35-3.8769-6.7746-9.0933-13.189-15.662-18.637-8.6293-7.1481-10.239-16.834-7.1868-23.479-6.1438 4.0441-10.806 14.773-7.9984 21.419-12.545-6.9422-12.39-17.735-2.6141-30.306 8.99-11.553 5.8601-25.592-10.291-32.302 6.556 9.2606 5.2292 19.255-7.5603 28.052-17.285 11.901-22.192 34.621-5.9116 52.794 7.277 8.1401 7.2639 16.228 3.7608 21.38-4.5209-6.3369-10.42-10.561-18.186-13.974-18.057-7.9082-21.444-16.743-16.498-32.908 4.4819-14.605 1.2632-20.775-10.703-22.539 5.1003 5.6027 7.2511 12.596-0.68272 21.973-14.477 17.117-20.723 25.27-20.247 37.621 0.32858 8.5263 6.6074 17.671 21.045 24.819-6.5943-2.0737-14.657-3.0376-24.484-3.18-14.734-0.21906-17.607-8.9772-14.348-19.203 3.0777-9.7242 1.2742-14.927-5.7958-18.959 2.5374 6.9035 1.9204 13.42-3.3369 21.097-11.527 16.808-6.8133 34.479 7.998 40.931-7.9338-0.45272-17.954-7.3672-18.134-16.499-7.6246 12.029 2.5118 26.223 17.684 22.101 2.008 6.453 5.6542 11.218 11.257 14.193l20.389 30.821-18.92 6.6461c-5.3836 2.2928-11.205 4.598-15.777 6.4526 7.6888 4.3789 19.28 6.0664 28.966 4.3789-2.1139 5.4738-2.8842 12.622-2.2928 17.851 4.3661-1.8802 9.0543-4.8298 12.828-8.6421 5.9116 20.105 15.288 40.596 16.048 53.991 3.2858-4.817 6.1051-10.11 7.7148-15.765 1.7378 10.639 11.09 22.424 15.932 34.221 1.997-2.6287 3.6578-6.2595 5.0229-10.729 2.6287 8.8867 8.243 16.692 16.357 23.75 0.073-10.123 1.2377-20.672 2.9901-28.31 0.39795 3.7612 1.6867 7.9342 3.6436 11.45 1.8802-7.3153 7.1481-15.455 11.077-22.629 0.25556 4.9072 1.8036 9.9305 4.5852 13.665 1.5845-8.2043 3.388-16.112 6.633-20.028 3.5925-4.3534 7.2898-8.0112 10.896-11.321 0.99305 3.748 4.8426 6.0277 15.378 5.8988-2.8477-1.789-4.9072-4.7783-5.9506-8.2686l24.381-59.324c17.297 2.771 36.797-11.373 36.642-33.963-0.073-12.854 7.4318-19.139 16.679-19.461-4.276-5.9116-12.339-4.4691-17.877 5.9247"/>
  <path d="m168.18 158.5c-3.7867-6.6972-8.8739-12.777-13.961-14.142-7.3672-1.9824-32.07 3.3625-47.036 19.603-11.257 12.223-23.57 13.717-25.128 3.4757-1.0186-6.7359-7.8955-9.3894-13.833-8.6293 4.7783 2.2928 5.809 6.9035 4.7783 12.596-1.2888 7.0966 2.2417 15.739 8.591 20.092-7.4833-2.6652-14.361-8.2043-17.156-16.125-3.8126 12.339 1.7634 25.012 15.391 30.538-3.2968 0.46366-6.9035-0.21906-10.304-2.0482 4.8429 13.099 27.073 18.933 37.827 4.2891 1.2121 3.6436 3.4392 7.0324 6.7878 9.5439 9.492 7.1353 10.613 14.013 2.7966 17.928 12.248 1.6502 22.088-7.1222 13.652-21.96-11.051-19.422 8.8739-34.53 36.475-41.64 4.3146-1.1062 5.6542-5.4997 1.1208-13.524"/>
  <path d="m249.14 211.16c-4.8429 6.1306-12.455 4.8426-13.704-3.5158-2.1504-14.245-17.658-45.272-26.751-47.577-3.9795-1.004-12.094 1.7269-18.057 5.3964-5.0102 3.0777-4.2117 8.5523-1.0296 13.872 5.3577 8.9641 8.7582 23.737 3.0376 37.389-5.3449 12.738-6.1693 20.916 6.4654 27.034 6.0149 2.9098 9.1189 9.7757 4.6626 14.039 7.1481-0.91638 12.39-6.3497 10.986-12.442 10.883 10.432 30.074 6.1306 33.255-9.8144-8.0627 8.1916-21.419 5.8601-19.294-6.4012 6.5428 7.4701 20.994 3.9152 23.943-8.5391 1.5078-6.3241 4.9203-11.012 9.2992-13.331-4.4691-0.47462-10.149 0.51478-12.815 3.8897"/>
 </g>
 <path d="m101.16 70.192c-14.477 17.117-20.711 25.257-20.234 37.621 0.36509 8.9513 7.2514 18.585 23.273 25.875 23.557 10.252 54.893 3.2055 45.156-12.776-4.7268-8.2175-11.244-13.279-20.298-17.246-18.045-7.921-21.432-16.757-16.499-32.908 4.4819-14.605 1.2632-20.788-10.703-22.552 5.1003 5.6158 7.2511 12.596-0.69733 21.986" fill="url(#radialGradient22323)"/>
 <path d="m54.006 112.37c-11.527 16.808-6.8133 34.479 7.9853 40.931-7.921-0.44906-17.941-7.3672-18.122-16.499-7.6118 12.03 2.5118 26.223 17.684 22.102 3.6834 12.905 16.911 18.109 26.545 19.049 23.39 1.0442 44.241-32.444 19.435-43.172-7.4314-3.5816-17.259-5.1518-30.035-5.3453-14.748-0.21905-17.607-8.9641-14.361-19.203 3.0923-9.7238 1.2742-14.928-5.7958-18.946 2.552 6.8904 1.9204 13.408-3.3369 21.084" fill="url(#radialGradient22327)"/>
 <path d="m265.7 125.1c-12.223 2.5629-16.499 7.174-20.517 17.761-3.6706 9.634-11.321 16.241-19.77 16.988-21.689 1.9569-14.361 32.148 4.3402 36.707 18.109 4.4304 39.76-9.415 39.618-33.294-0.10953-12.854 7.4055-19.152 16.679-19.461-4.2887-5.9247-12.351-4.4822-17.89 5.9119-0.90177-5.9119 1.4166-12.416 10.072-17.504 10.278-6.0277 11.527-22.385 2.9609-32.92 3.6436 10.652-3.4757 23.286-15.494 25.811" fill="url(#radialGradient22331)"/>
 <path d="m223.69 78.358c-13.897 5.1131-19.757 10.471-23.518 21.728-18.521 55.395 4.8685 72.448 24.613 61.913 15.288-8.1788 18.843-32.366 9.0674-45.954-8.3591-11.618-7.2514-21.805 2.9609-30.46 9.5694-8.0886 8.4358-22.076 1.7123-28.438 3.001 8.6552-0.18254 15.816-14.837 21.213" fill="url(#radialGradient22335)"/>
 <path d="m149.4 43.454c-17.285 11.901-22.179 34.621-5.9116 52.806 8.0627 9.0028 6.955 17.735 2.5228 22.913-13.034 15.133-0.25557 44.68 38.909 40.545 32.122-3.3734 32.238-53.012 0.14603-79.647-8.6293-7.1481-10.239-16.834-7.1868-23.467-6.1438 4.0313-10.806 14.76-7.9853 21.419-12.545-6.955-12.39-17.748-2.6287-30.319 9.0028-11.553 5.8601-25.605-10.291-32.302 6.5556 9.2605 5.2288 19.255-7.5603 28.052" fill="url(#radialGradient22339)"/>
 <path d="m68.212 158.82c4.7783 2.2928 5.809 6.9035 4.7783 12.596-1.2632 6.9806 2.1248 15.507 8.2945 19.912 2.8331 2.2526 6.4658 3.8638 9.4924 3.9412 15.43 0.36509 24.188-17.065 11.012-26.313-9.5179 7.4187-18.431 7.1094-19.744-1.5188-0.90178-5.989-6.453-8.7454-11.849-8.7454-0.66812 0-1.3399 0.0365-1.9824 0.14603" fill="url(#radialGradient22343)"/>
 <path d="m97.204 179.74c-3.1033 3.7093-5.2036 8.4621-6.1051 13.961-1.9313 11.914-12.532 15.018-21.586 10.175 5.0233 13.588 28.541 19.242 38.961 2.6031 9.7498-15.546 5.2935-31.761-2.9499-31.761-2.5118 0-5.3968 1.5188-8.3204 5.0229" fill="url(#radialGradient22347)"/>
 <path d="m110.41 189.16c-6.4012 6.9681-5.8214 21.367 3.7225 28.541 9.492 7.1354 10.612 14.026 2.7966 17.929 12.248 1.6502 22.088-7.1226 13.652-21.96-3.7352-6.5687-3.9152-12.609-1.4823-18.019 3.0777-6.813-1.004-12.48-7.2383-12.48-3.4392 0-7.5475 1.7378-11.45 5.989" fill="url(#radialGradient22351)"/>
 <path d="m227.41 227.34c6.1562 9.4537 22.088 6.6074 25.257-6.7487 1.5078-6.3241 4.92-10.999 9.2865-13.331-4.4567-0.47462-10.136 0.51478-12.803 3.8897-4.8426 6.1306-12.454 4.8426-13.716-3.5158-0.43811-2.9098-1.4166-6.5041-2.8076-10.42-11.167 0.18254-17.027 11.927-5.2164 30.126" fill="url(#radialGradient22355)"/>
 <path d="m212.18 242.4c10.626 13.627 32.38 10.432 35.831-6.852-8.7969 8.9258-21.019 4.4563-19.461-5.3062 0.99305-6.2854 0.94194-9.8531-0.78494-13.91-2.0737-4.8816-5.5381-6.9809-9.1185-6.9809-9.6855 0-20.221 15.43-6.4658 33.049" fill="url(#radialGradient22359)"/>
 <path d="m192.63 216.72c-5.461 12.687-6.1565 20.929 6.4782 27.034 6.0149 2.9098 9.1189 9.7757 4.6498 14.039 9.0543-1.1573 15.069-9.5698 8.346-17.401-4.173-4.8554-4.4822-11.012 0.91273-19.397 3.1434-4.9072-4.1602-9.6855-11.051-9.6855-3.8897 0-7.6505 1.5334-9.3376 5.4096" fill="url(#radialGradient22363)"/>
 <g fill="#626872">
  <path d="m87.465 221.4c-7.8568 1.3654-16.988 0.51478-24.252-2.2015-2.7053 0.29207-5.2551 0.44906-8.1401 0.50383-2.8076 0.0365-4.5852 1.1573-6.4782 3.9412-4.418 6.4786-7.1868 10.317-14.361 18.379-8.1142 9.1058-15.868 20.028-18.392 27.549-4.1471 12.39-14.322 26.738-14.915 34.479-0.56589 7.4186 10.768 22.848 14.258 24.085 5.6414 1.9824 26.339-0.36509 30.409-2.2672 3.1033-1.4677 4.5465-3.1179 6.1434-6.0149 1.1829-2.1504 1.5078-3.7995 0.95289-5.4092 6.1824-2.4972 14.322-14.953 12.339-21.29-0.72288-2.2818-2.4096-4.096-6.6845-7.2387-3.3625-2.4863-4.3661-5.4994-2.6396-10.587 3.9156-11.553 6.2467-27.678 5.3066-42.528 1.7123-0.92733 3.5414-1.7269 5.0229-2.1759 6.1438 1.1208 14.825 1.0807 19.358-0.85066 0.39795-2.9098 1.0953-5.8218 2.0737-8.3719"/>
  <path d="m109.69 265.32c-1.8145-5.6414-3.9926-11.682-6.1693-17.89-2.3074 2.8076-4.8429 6.6589-6.3241 8.9385-1.778 2.7163-3.2311 3.8769-6.2464 5.4096-5.2807 2.6798-9.3252 5.7571-9.5439 7.702-0.32858 2.8733 2.6652 7.5088 8.3975 11.399 1.6612 1.1208 3.3734 3.0522 4.7137 5.0229 2.2271 3.2968 3.3625 4.1087 5.2164 4.1986 3.7608 0.18254 8.8484-4.0697 8.5391-8.2686-0.21905-2.9353-5.242-8.4102-8.7582-10.175 3.2055-2.0226 7.4446-3.6071 10.175-6.3369"/>
  <path d="m126.45 294.36c-2.3183-1.6867-4.0313-3.1179-5.9634-4.7783-0.36509 4.6367-2.4717 9.0028-6.1565 11.811-5.2033 3.9799-12.235 4.0054-18.109 1.2377-0.97845 1.9459-2.4717 2.614-4.6754 2.5885-5.242-0.0365-8.9641 0.47462-10.098 1.3764-3.18 2.5118-2.1504 10.059-0.61701 11.514 1.5991 1.5188 14.554 1.223 16.769 0.0365 2.1504-1.1464 4.2891-1.9058 6.8907-1.9204 0.0128 1.6867 0.37239 3.231 0.94193 4.1858 1.2377 2.0591 16.924 2.8842 19.796-0.56589 2.3074-2.782 2.6396-13.691 2.782-20.543 0.073-2.9755-0.10953-3.9025-1.5589-4.9587"/>
  <path d="m216.73 272.42c-2.4096-1.3654-5.6929-4.4176-8.024-7.8308-6.3756-0.64256-9.0028-2.6907-9.8016-5.6797-3.6071 3.2968-7.3026 6.9678-10.896 11.308-0.36509 0.43811-0.69367 0.91273-1.0186 1.4421 5.1003 1.9459 9.956 3.4647 14.284 4.8426 1.1208 4.4048-0.58049 8.4362-4.1989 12.995-2.552 3.2201-1.4823 6.53 3.9671 8.8871 6.4139 2.793 9.2087 1.4932 10.123-2.5118 0.95289-4.2376 3.1544-8.6165 6.852-14.464 2.7564-4.3661 2.3694-6.9035-1.2888-8.99"/>
 </g>
 <path d="m211.87 293.4c-0.29208 0.83606-0.52939 1.6758-0.70828 2.4863-0.91638 4.0054-3.7093 5.3062-10.123 2.5118-5.4479-2.3585-6.5169-5.6542-3.9667-8.8871 0.10953-0.14603 0.21906-0.29207 0.32859-0.4235-6.6589-0.90178-11.502 0.25556-12.442 2.614-1.4932 3.7352-3.1288 9.1448-4.4819 14.078-0.87622 3.2055 3.7608 9.093 16.099 12.261 10.561 2.7163 18.688 2.5118 20.8-1.7013 1.9204-3.8382 3.0412-8.0627 4.0445-13.009 0.56589-2.782-1.4677-6.3238-9.5566-9.9301" fill="#373739"/>
 <path d="m241.39 327.22c-2.0847-1.0807-8.913-1.4421-12.996-1.2231-2.4972 0.14604-3.6327-0.0365-5.2548-1.0442-3.556-2.1759-6.8133-4.0956-9.7885-5.7056-3.8254 1.0807-9.7498 0.5805-16.757-1.223-5.5381-1.4166-9.5179-3.388-12.158-5.4223-5.886 6.0404-9.7111 15.172-8.0112 18.379 1.172 2.2161 5.2551 3.388 11.051 3.7093 3.7093 0.21905 9.0028 2.9353 14.026 6.0664 4.8944 6.5687 12.313 6.0149 19.964 3.1288 1.6101-0.617 3.4246-4.1598 3.2968-7.0707 2.0226 1.8291 4.7783 3.1033 7.1226 3.4903 6.5684 1.0697 12.609 0.387 14.038-1.2742 1.391-1.61-0.5659-9.7501-4.5334-11.811" fill="#626872"/>
 <path d="m243.1 269.28c-0.77399-2.2161-1.7634-4.7268-2.2672-5.1003-0.94194-0.69368-3.8893-1.621-5.3322-1.9313-0.73383-1.621-1.7634-4.1343-2.4352-6.1306-0.25556-0.73384-0.72288-0.85067-1.5078-0.61701-9.9557 2.9755-15.017 8.6034-15.185 16.692 4.07 2.4972 4.4691 4.7396 1.6356 9.2218-0.073 0.10953-0.14603 0.21905-0.18254 0.29207 1.2121 3.8126 3.1179 7.3285 5.6414 10.227 0.8105-1.3508 1.9204-2.782 3.2457-4.0441 3.7349-3.5816 4.4176-6.1825 6.9032-7.7922 2.8331-1.8291 5.8345-3.0668 9.4281-3.774 0.18255-2.1139 0.14604-4.9842 0.073-7.0579" fill="#373739"/>
 <path d="m231.75 238.58c1.6758 1.2121 3.8382 1.8547 6.1952 1.778-0.64256-1.3143-1.2377-2.5776-1.789-3.7608-1.4166 0.75939-2.8842 1.4312-4.4048 1.9824" fill="#626872"/>
 <path d="m280.57 301.9c-0.73383-2.8587-5.139-9.1317-8.8097-13.794-4.2891-5.4096-7.7407-8.7067-11.296-11.321-2.6798-0.83606-4.5593-1.7013-5.5125-2.7053-0.74844-0.78494-1.2742-3.2457-1.6612-5.1777-0.18255-0.99304-0.79955-1.9058-2.2271-2.8733-2.008-2.1248-4.3015-4.25-5.2803-5.8729 0.69732-0.74843 1.2121-1.8145 1.5334-2.9755-2.0482-3.1544-4.1215-6.7619-6.0408-10.342-5.3322 4.173-12.789 5.1646-19.448 2.6798 0.0256 0.073 0.0365 0.18254 0.073 0.25556 0.10953 1.7269-0.0259 3.4246-0.29207 5.0229-0.32858-0.10953-0.65717-0.25556-1.004-0.37239 0.64256 1.7524 1.2888 3.4392 2.0591 5.3453 2.3329-1.7634 5.2807-3.2055 8.8998-4.2891 0.77399-0.21906 1.2377-0.10953 1.4932 0.63161 0.66812 1.9824 1.7013 4.5078 2.4352 6.1178 1.4421 0.32859 4.392 1.2486 5.3322 1.9459 0.50383 0.36509 1.4932 2.8733 2.2672 5.1003 0.10953 2.0591 0.10953 4.9455-0.073 7.0452-3.5925 0.70828-6.5943 1.9459-9.4278 3.7736-2.4863 1.6101-3.169 4.2117-6.9035 7.7922-2.7163 2.6031-4.5596 5.8732-4.6881 7.8049-0.10953 1.778 0.29207 2.8222 1.8145 4.6239 2.4607 2.8988 3.5925 4.7783 3.399 8.5004-0.41256 8.1273 1.6758 10.922 9.389 12.854-0.10952 6.6198 5.1646 8.9769 14.412 5.9762 5.4223-1.7634 12.274-2.9609 18.959-3.7225 3.7221-0.4235 5.2675-1.61 6.9163-4.598 2.5118-4.495 4.598-13.781 3.6578-17.439" fill="#626872"/>
 <g fill="#fff">
  <path d="m59.535 56.549c12.79 2.4096 18.263 12.068 14.722 19.706-2.2928 4.9587-1.9313 9.2474 0.073 13.678-5.1518-4.9072-7.8053-10.78-6.9167-17.774 0.82511-6.5559-2.7418-12.88-7.8823-15.61"/>
  <path d="m192.17 0.647c-7.8053 6.9163-10.754 15.7-5.9506 23.969 4.3406 7.4829 3.0522 11.901-4.0182 18.907 17.696-8.771 19.332-15.172 12.622-20.028-6.4398-4.6754-6.5943-13.434-2.6542-22.849"/>
  <path d="m257.41 78.93c17.091 10.098 17.941 25.54 3.7736 29.559-6.5428 1.8547-10.471 4.598-12.223 8.3975-0.86162-5.2938 1.2121-9.6085 9.4281-13.743 8.243-4.1598 8.0882-15.211-0.97845-24.214"/>
 </g>
 <path d="m258.78 270.84c-0.43811-2.7053-1.223-4.9072-1.8291-5.6414-0.64256-0.77399-1.7889-1.8802-2.9609-2.384-0.85066-1.8036-5.1003-6.2336-6.3369-7.8181-0.073 1.9459-0.75939 3.9671-1.8802 5.165 0.99305 1.6356 3.2712 3.7608 5.2807 5.886 1.4312 0.96749 2.0482 1.8693 2.2417 2.8733 0.3724 1.9204 0.90178 4.3917 1.6612 5.1774 0.95289 1.004 2.8331 1.8547 5.4997 2.7053 2.384 1.7524 4.7268 3.8123 7.2898 6.5943 0.50382-0.55494 0.85066-1.2888 1.0807-2.0993 0.75939-3.3223-6.633-9.4796-10.046-10.458" fill="#373739"/>
 <path d="m268.18 273.58c-6.285-14.915-13.794-20.35-20.53-18.598 1.2377 1.5845 5.4994 6.0149 6.3493 7.8181 1.161 0.50018 2.3074 1.61 2.9645 2.395 0.59145 0.72288 1.3764 2.9244 1.8145 5.6286 3.4136 0.97844 10.806 7.1481 10.046 10.458 0.65717-2.3694 0.29208-5.4994-0.64256-7.702" fill="#373739"/>
 <path d="m116.2 281.26c1.6867 15.43-15.134 26.597-29.005 12.983 0.43811 0.8251 0.94194 1.621 1.5078 2.3694 6.0017 7.8696 17.851 10.729 25.631 4.7911 6.6845-5.1131 8.2171-15.288 3.4647-22.964-0.50383 0.95289-1.0442 1.8948-1.5991 2.8222" fill="#292627"/>
 <path transform="matrix(12.879,0,0,-12.879,286.03,143.66)" d="m0 0c-0.676 0.323-1.47-0.469-1.501-1.468-0.042-1.378-1.352-2.389-2.79-2.299 0.055-0.134 0.105-0.267 0.15-0.395l4e-3 0.01c1.343-0.216 2.857 0.883 2.845 2.636-6e-3 0.998 0.577 1.487 1.296 1.511-1e-3 2e-3 -3e-3 3e-3 -4e-3 5e-3" opacity=".137" style="mix-blend-mode:normal"/>
 <path d="m276.91 129.4c-10.767 6.3238-12.867 12.892-9.2218 20.208l0.46367 0.10953c-0.90178-5.9247 1.4166-12.429 10.085-17.503 10.278-6.0277 11.514-22.385 2.9499-32.933 4.0313 6.6074 4.9974 24.678-4.276 30.126" fill="#dcdddd" style="mix-blend-mode:normal"/>
 <path d="m261.18 108.49c10.96-3.1033 12.931-13.047 5.3581-22.063 4.92 10.909 0.387 18.534-7.1098 20.556-5.8473 1.5845-10.072 5.1259-10.471 9.9042 1.7524-3.7995 5.6797-6.5428 12.223-8.3975" fill="#dcdddd" style="mix-blend-mode:normal"/>
 <path transform="matrix(12.879,0,0,-12.879,234.06,83.089)" d="m0 0c-0.9-0.746-1.202-1.709-0.469-2.765 0.729-1.051 0.641-2.405-0.338-3.382 0.161 0.07 0.327 0.17 0.425 0.25l0.083 0.075c0.829 0.794 0.944 2.349 0.284 3.266-0.648 0.902-0.562 1.693 0.231 2.365 0.742 0.629 0.654 1.714 0.132 2.208 0.462-0.726 0.265-1.509-0.348-2.017" opacity=".137" style="mix-blend-mode:normal"/>
 <path transform="matrix(12.879,0,0,-12.879,182.48,82.993)" d="m0 0c1.803-1.662 2.376-5.167 0.105-5.937l9e-3 -0.025c2.601 0.239 2.58 4.123 0.086 6.192-0.669 0.555-0.794 1.306-0.557 1.822-0.541-0.629-0.303-1.443 0.357-2.052" opacity=".137" style="mix-blend-mode:normal"/>
 <path d="m194.83 23.491c-6.4395-4.6626-6.5943-13.434-2.6542-22.849-4.9842 6.8392-7.7148 17.104 0.073 24.497 5.2938 5.0229-1.3654 12.107-10.033 18.379 17.684-8.771 19.332-15.159 12.622-20.028" fill="#dcdddd" style="mix-blend-mode:normal"/>
 <path transform="matrix(12.879,0,0,-12.879,172.34,36.047)" d="m0 0c-0.293-0.76-1.33-1.145-1.33-2.291 0-0.692 0.666-1.038 1.21-1.12-0.027 0.055-0.049 0.107-0.069 0.155-0.486 0.269-0.726 0.613-0.751 1.011-0.012 0.188 0.06 0.578 0.268 0.945 0.242 0.429 0.529 0.631 0.672 1.3" opacity=".137" style="mix-blend-mode:normal"/>
 <path transform="matrix(12.879,0,0,-12.879,149.54,121.82)" d="m0 0c-0.063 0.137-0.125 0.249-0.181 0.332-0.35 0.491-0.808 0.819-1.411 1.084-1.402 0.615-1.665 1.3-1.281 2.555 0.287 0.939 0.165 1.429-0.412 1.647 0.385-0.321 0.423-0.822 0.174-1.612-0.536-1.7-0.197-2.241 1.431-2.866 0.736-0.282 1.208-0.596 1.68-1.14" opacity=".137" style="mix-blend-mode:normal"/>
 <path d="m74.254 76.255c2.7163-5.8732 0.10953-12.931-7.058-16.988 4.5465 4.6235 5.7188 10.857 4.392 14.618-1.7013 4.7524-0.617 11.901 2.7418 16.048-2.008-4.4308-2.3694-8.7195-0.073-13.678" fill="#dcdddd" style="mix-blend-mode:normal"/>
 <path d="m62.688 150.4c1.7123 0.774 1.9569 2.8076-0.32859 3.4246-8.9385-3.9025-14.425-12.197-14.747-21.767 2.7309 9.7888 8.4621 15.353 15.069 18.341" opacity=".137" style="mix-blend-mode:normal"/>
 <g stroke-width="12.879">
  <path d="m73.037 171.38c0.16743-0.90153 0.27046-1.7644 0.32198-2.6016-4.3402-2.4084-7.5342-6.0145-9.5305-10.574-0.59243-1.3394-1.2106-1.597-2.7947-1.3523-6.6198 1.0174-14.424-1.0174-18.597-6.066 2.6788 6.3751 10.007 10.574 19.177 8.088 1.8546 6.5296 6.169 11.089 11.23 14.115 0.03864-0.54091 0.10303-1.0818 0.19318-1.6099" opacity=".137" style="mix-blend-mode:normal"/>
  <path d="m204.99 107.63c9.1827 23.62 3.2713 49.996-21.057 52.211l-0.0901 0.30909c18.79 4.572 41.303-16.614 21.147-52.521" opacity=".137" style="mix-blend-mode:normal"/>
  <path d="m249.23 220.26c-2.4985 8.191-15.957 10.149-20.117 2.8849 0.0515 2.0735-0.1803 4.3145-0.39925 5.8213 6.8516 7.3668 20.98 4.0698 23.942-8.4229 1.5068-6.3236 4.9198-10.999 9.2858-13.33-5.1516 0.95305-10.162 4.688-12.712 13.046" opacity=".137" style="mix-blend-mode:normal"/>
 </g>
 <path d="m211.62 239.48c1.4421 1.997 2.4461 3.5304 3.0668 5.6414 11.218 10.368 30.126 6.4526 33.332-9.5698-9.2218 15.842-28.515 12.107-36.398 3.9284" opacity=".137" style="mix-blend-mode:normal"/>
 <g stroke-width="12.879">
  <path d="m212.14 240.35c-4.8039-5.5895-3.4516-13.008 1.1334-19.834l0.14167-0.77274c-7.8948 7.0963-10.342 13.922-4.0955 22.551 3.5675 4.9455 1.7258 11.913-5.5251 15.455 9.0539-1.1591 15.068-9.5691 8.3456-17.4" opacity=".137" style="mix-blend-mode:normal"/>
  <path d="m130.61 213.69c-11.05-19.422 8.8736-34.529 36.486-41.638 0.23182-0.0515 0.46364-0.12879 0.68258-0.21894l0.0515-0.18031c-39.551 6.4138-51.993 22.847-40.234 43.814 6.491 11.591 0.11592 18.327-10.638 20.181 12.261 1.6485 22.087-7.1221 13.652-21.959" opacity=".137" style="mix-blend-mode:normal"/>
  <path d="m69.559 203.84c4.8425 13.111 27.072 18.932 37.826 4.2887-0.64395-1.7902-0.96592-3.3357-1.1462-4.8296-10.097 12.956-28.617 9.3759-36.679 0.54092" opacity=".137" style="mix-blend-mode:normal"/>
  <path d="m90.714 195.43c0.43789-2.5114 1.6099-6.9418 2.5243-9.1054-8.0107 2.1122-16.305-1.1978-20.181-8.5774 1.7 9.8009 10.625 17.503 17.657 17.683" opacity=".137" style="mix-blend-mode:normal"/>
 </g>
 <g fill="#7d7b82">
  <path d="m228.71 229.14c-0.78495 4.5209 0.55494 7.6892 2.9353 9.4924 4.1599-1.5188 7.9725-3.8769 11.218-6.5815-5.0105 1.9058-10.69 1.0442-14.155-2.9098"/>
  <path d="m214.75 245.36c0.44906 1.9715 0.21906 3.8638-0.56589 5.5768 2.5629 1.7524 5.1259 3.0923 7.4314 3.8769 0.25556-1.5845 0.37239-3.2858 0.29207-5.0102-2.5776-0.94194-5.0229-2.4096-7.1481-4.4435"/>
  <path d="m208.33 256.54 0.0259-0.0365c-1.391 0.64256-2.9353 1.0953-4.5852 1.3143 3.9667-3.7995 1.9459-9.6468-2.793-12.944-9.5179 10.639-21.882 16.834-34.943 18.998-2.1139 3.4501-4.7911 6.285-8.0495 8.3588-0.43811-2.3439-1.4421-4.894-2.5885-7.4701-6.3628 0.0128-12.764-0.87622-18.959-2.6287-0.37239 1.0697-0.74844 1.9204-1.0807 2.4863-1.0953-0.99305-2.3183-2.3585-3.556-3.9671-12.403-4.4432-23.673-12.429-31.8-23.596 5.8214 17.954 13.382 35.599 14.064 47.564 3.2712-4.8298 6.0923-10.11 7.702-15.765 1.7378 10.626 11.09 22.424 15.932 34.221 2.008-2.6396 3.6578-6.2723 5.0361-10.729 2.6141 8.8871 8.2299 16.692 16.357 23.75 0.073-10.136 1.2231-20.672 2.9755-28.309 0.39795 3.7608 1.6867 7.9338 3.6436 11.437 1.8802-7.3026 7.1481-15.443 11.077-22.616 0.25557 4.9068 1.8036 9.917 4.5852 13.665 1.5845-8.2171 3.388-16.112 6.633-20.041 3.5925-4.3406 7.2898-7.9981 10.896-11.308 1.004 3.7352 4.8429 6.0149 15.378 5.8988-2.8477-1.789-4.9072-4.7911-5.9506-8.2686"/>
  <path d="m103.52 247.44c-1.9313-5.5253-3.8638-11.192-5.5253-16.821-1.391 1.4166-2.9244 2.7163-4.5206 3.8897 0.61701 5.3449 3.2603 11.926 7.2898 16.576 0.90178-1.2742 1.8401-2.5374 2.7564-3.6436"/>
  <path d="m86.931 216.5c-7.9721 1.7378-18.753 1.5443-28.219 0.42351-0.073 0.0365-0.14604 0.073-0.21906 0.073 7.702 4.392 19.294 6.0664 28.966 4.392-2.0993 5.461-2.8842 12.622-2.2782 17.851 4.353-1.8802 9.0543-4.8298 12.828-8.6424-1.5078-4.8813-2.8587-11.025-3.5304-14.322-2.4972 0.48923-5.0616 0.54034-7.5475 0.21906"/>
  <path d="m79.814 205.92c3.3223-0.46366 6.311-2.1139 8.4234-4.9974-10.33-0.25556-20.749-6.4267-24.806-15.043 1.0296 8.5132 6.6585 16.099 16.383 20.041"/>
 </g>
 <path d="m87.465 221.4c-7.3285 1.2742-15.765 0.61701-22.758-1.6867 0.14604 3.928-1.3399 6.7359-4.3019 7.9853-2.9244 1.2231-3.4757 3.169-3.3114 6.2208 0.58049 10.368-1.6758 30.267-7.1222 41.859-1.5443 3.2858-1.4312 6.3365 1.161 9.7885 1.9459 2.5885 2.4096 6.7232 1.4312 9.4665-1.2231 3.388-4.2248 8.0499-6.9809 11.154-1.2742 1.4312-1.4166 2.3037-0.83606 4.1084 1.61 5.0361-0.55494 7.5475-3.8638 9.6213-3.3223 2.0591-20.311 5.4738-23.84 4.92-2.0482-0.32858-6.1825-2.6031-10.046-5.7316 3.0923 4.6239 6.53 8.4362 8.1916 9.0287 5.641 1.9824 26.339-0.36509 30.408-2.2672 3.1033-1.4677 4.5465-3.1179 6.1438-6.0149 1.1829-2.1504 1.5078-3.7995 0.95289-5.4092 6.1821-2.4972 14.322-14.953 12.339-21.29-0.72288-2.2818-2.4096-4.096-6.6845-7.2387-3.3625-2.4863-4.3661-5.4994-2.6396-10.587 3.9152-11.553 6.2467-27.678 5.3062-42.528 1.7123-0.92733 3.5414-1.7269 5.0233-2.1759 6.1434 1.1208 14.825 1.0807 19.358-0.85066 0.39795-2.9098 1.0953-5.8218 2.0737-8.3719" fill="#555963"/>
 <path d="m108.27 281.84c-0.21906-2.9353-5.242-8.3975-8.7582-10.175 3.2201-2.0226 7.4446-3.6071 10.175-6.3369-1.2231-3.7995-2.6141-7.8049-4.0573-11.901-1.5845 1.4823-2.8076 3.3223-4.3402 6.0664-1.5991 2.8331-3.6966 4.5078-6.7619 5.9503-7.4318 3.5049-8.5391 6.4143-3.9025 10.484 2.8477 2.4972 4.7396 5.2288 6.4267 8.9641 1.9204 4.2632 3.4647 5.2548 4.8813 4.8813 3.3479-1.1062 6.6202-4.1858 6.3369-7.9338" fill="#555963"/>
 <path d="m108.27 281.84c0.21905 2.9499-2.2271 5.9375-5.0102 7.38 1.4823 2.782 3.0777 6.0664 4.4563 9.3248 5.6155-3.0668 9.312-9.6468 8.4876-17.284 0 0 0-0.0131 0.0128-0.0131-0.69732 1.1464-1.4166 2.2672-2.165 3.3625-0.18255-3.567-1.0186-7.6505-2.2161-12.094-2.782-1.7013-5.9243-2.6031-9.0543-2.6907-1.1318 0.60606-2.2526 1.2121-3.2712 1.8437 3.5158 1.778 8.5391 7.2383 8.7582 10.175" fill="#292627"/>
 <path d="m109.82 321.88c5.139 1.1464 13.408 0.37239 15.404-2.0226 2.3074-2.782 2.6396-13.691 2.782-20.543 0.073-2.9755-0.10953-3.9025-1.559-4.9587-2.3183-1.6867-4.0441-3.1179-5.9634-4.7783-0.36509 4.6367-2.4717 9.0032-6.1562 11.811-4.3146 3.2968-9.8659 3.8769-14.992 2.4096-2.3439 3.2201-4.4691 4.5337-9.1057 4.1602-3.6706-0.29208-5.9247-0.0131-7.4833 1.1464-1.6101 1.1975-2.0737 5.3194-1.3399 9.3252 2.9864 1.1464 14.142 0.8105 16.19-0.25557 2.1504-1.1464 4.2887-1.9058 6.8904-1.9204-0.10952-2.2782 1.5188-5.3062 3.6327-6.1821-2.6396 4.3406-1.5078 11.102 1.7013 11.823" fill="#555963"/>
 <path d="m216.73 272.42c-2.4096-1.3654-5.6929-4.4176-8.024-7.8308-6.3756-0.64256-9.0028-2.6907-9.8016-5.6797-3.6071 3.2968-7.3026 6.9678-10.896 11.308-0.36509 0.43811-0.69367 0.91273-1.0186 1.4421 4.392 1.6612 8.5778 3.0266 12.416 4.25 1.7123-0.77399 3.2055-1.6502 4.4822-2.6652 1.8547-1.4677 2.8587-1.7524 4.7911-0.25556 1.2742 0.99305 2.771 1.9715 4.2117 2.771 2.0482 1.1318 2.2782 3.0522 0.18255 6.0919-3.4647 5.0102-5.9375 12.068-6.7487 18.019 2.782 0.14604 4.2373-1.3143 4.8426-3.9799 0.95289-4.2376 3.1544-8.6165 6.852-14.464 2.7564-4.3661 2.3694-6.9035-1.2888-8.99" fill="#555963"/>
 <path d="m211.87 293.4c-0.29208 0.83606-0.52939 1.6758-0.70828 2.4863-0.91638 4.0054-3.7093 5.3062-10.123 2.5118-5.4479-2.3585-6.5169-5.6542-3.9667-8.8871 0.10953-0.14603 0.21906-0.29207 0.32859-0.4235-6.6589-0.90178-11.502 0.25556-12.442 2.614-0.21905 0.50383-0.41255 1.0442-0.60605 1.5954 8.0499 10.291 26.223 13.961 36.784 11.399 0.10952-0.44906 0.18254-0.90177 0.29207-1.3654 0.56589-2.782-1.4677-6.3238-9.557-9.9301" fill="#292627"/>
 <path d="m190.39 298.74c-1.8547 4.6107-3.6962 8.9385-5.886 13.923 2.6287 2.008 6.5946 3.9543 12.081 5.3709 1.4823 0.3724 2.9098 0.69368 4.2887 0.95289 1.6758-4.4435 3.3734-9.4664 4.7783-14.297-5.3836-1.004-10.806-2.9864-15.262-5.9503" fill="#5c6165"/>
 <path d="m192.96 300.3c-1.7123 4.6626-3.5925 9.6213-5.4866 14.283 2.384 1.2997 5.3964 2.4972 9.1185 3.4501 0.41256 0.10953 0.82511 0.21906 1.2377 0.29207 1.9204-4.5593 3.4793-8.9126 5.0488-14.258-3.4392-0.85066-6.8389-2.1139-9.9173-3.7867" fill="#999EA0"/>
 <g fill="#555963">
  <path d="m184.44 312.62c-0.47462 0.48922-0.94194 1.004-1.391 1.5334 5.5512 6.2854 20.286 11.566 35.664 8.1529-1.8802-1.1062-3.6706-2.1394-5.3705-3.0522-3.8126 1.0953-9.737 0.59144-16.757-1.2121-5.5381-1.4166-9.5179-3.388-12.146-5.4223"/>
  <path d="m242.3 336.44c-0.99305 0.70828-6.8261 1.3654-10.857 0.5659-3.5158-0.69368-6.6717-3.1033-9.1189-4.7268 1.6502 1.4166 2.3183 2.8842 2.4352 4.5465 2.0226 1.8182 4.7915 3.1033 7.1226 3.4793 6.5687 1.0697 12.609 0.387 14.039-1.2632 1.2121-1.4166-0.10952-7.7407-3.0923-10.729 1.5078 4.3534 0.51478 7.38-0.52938 8.1269"/>
  <path d="m219.99 341.36c-3.9667 2.008-11.901 1.789-14.825-1.6502-1.1062-1.2997-1.8145-1.6356-2.614-2.0993-5.5509-3.2968-9.737-5.0744-14.992-5.5381-5.8988-0.52938-9.6596-1.6356-11.527-3.3369-0.0365 0.90178 0.073 1.6758 0.38699 2.2526 1.1866 2.2161 5.2551 3.388 11.051 3.7093 3.7093 0.21905 9.0028 2.9353 14.038 6.0664 4.8816 6.5687 12.313 6.0149 19.964 3.1179 1.5954-0.60606 3.4136-4.1471 3.2858-7.058-0.0365-1.2231-0.29207-1.8948-1.1062-2.8076 0.14603 3.2201-1.4166 6.208-3.6578 7.3412"/>
  <path d="m280.57 301.9c-0.73383-2.8587-5.139-9.1317-8.8097-13.794-4.2891-5.4096-7.7407-8.7067-11.296-11.321-2.6798-0.83606-4.5593-1.7013-5.5125-2.7053-0.74844-0.78494-1.2742-3.2457-1.6612-5.1777-0.18255-0.99304-0.79955-1.9058-2.2271-2.8733-2.008-2.1248-4.3015-4.25-5.2803-5.8729 0.69732-0.74843 1.2121-1.8145 1.5334-2.9755-2.0482-3.1544-4.1215-6.7619-6.0408-10.342-5.3322 4.173-12.789 5.1646-19.448 2.6798 0.0256 0.073 0.0365 0.18254 0.073 0.25556 0.10953 1.7269-0.0259 3.4246-0.29207 5.0229-0.32858-0.10953-0.65717-0.25556-1.004-0.37239 0.64256 1.7524 1.2888 3.4392 2.0591 5.3453 2.3329-1.7634 5.2807-3.2055 8.8998-4.2891 0.77399-0.21906 1.2377-0.10953 1.4932 0.63161 0.0365 0.14603 0.10953 0.29207 0.14604 0.45271 4.9842 0.10953 9.2605 3.1033 11.707 8.2299 4.6111 9.6727 6.7363 14.786 12.97 17.452 5.6027 2.384 12.931 14.902 14.812 19.719 1.1318 2.8988 1.0953 7.1222-0.79955 12.029-1.004 2.6141-2.4972 3.399-6.955 3.7093-5.062 0.32858-9.1189 1.2888-14.696 3.2457-9.2865 3.2566-12.699 3.2311-13.55-1.0551 0.8251-6.0404-1.1062-11.901-6.955-16.808-4.8813-4.0956-6.6972-7.8823-4.9842-13.06-1.621 2.0737-2.6652 4.2376-2.7564 5.667-0.10953 1.778 0.29207 2.8222 1.8145 4.6239 2.4607 2.8988 3.5925 4.7783 3.399 8.5004-0.41255 8.1273 1.6758 10.922 9.3891 12.854-0.0256 1.8036 0.32858 3.2858 1.0697 4.4304 0.14603 0.21905 4.9331 2.7966 5.9506 2.8222 2.0591 0.073 4.5333-0.36509 7.3927-1.2742 5.4223-1.7634 12.274-2.9609 18.959-3.7225 3.7221-0.42351 5.2679-1.61 6.9163-4.598 2.5118-4.495 4.598-13.781 3.6578-17.439"/>
 </g>
 <path d="m223.21 291.66c0.073 0.10953 0.14604 0.21906 0.25556 0.29208 0.81051-1.3508 1.9204-2.782 3.2457-4.0441 3.7352-3.5816 4.418-6.1821 6.9035-7.7922 2.8331-1.8291 5.8473-3.0668 9.4409-3.7736 0.18255-2.0993 0.14604-4.9846 0.0365-7.058-15.455 6.0919-20.26 11.179-19.886 22.372" fill="#292627"/>
 <path d="m269.03 280.28c-1.5699-4.0313-6.2723-7.9338-10.123-9.415-1.1208 0.75939-2.1504 2.2672-2.9609 4.0186 1.0551 0.68272 2.563 1.2997 4.5078 1.9058 2.384 1.7634 4.7268 3.8123 7.2901 6.6071 0.69368-0.78495 1.1062-1.8948 1.2888-3.1179" fill="#292627"/>
 <path d="m257.85 257.84c-3.4246-2.8477-6.9035-3.7093-10.201-2.8587 1.2377 1.5954 5.4997 6.0277 6.3497 7.8181 1.161 0.50383 2.3183 1.61 2.9609 2.395 0.59144 0.71923 1.3764 2.9244 1.8145 5.6282 1.7524 0.50383 4.5206 2.3585 6.7359 4.495-2.0993-6.1438-4.7137-11.823-7.6633-17.478" fill="#5c6165"/>
 <path d="m253.74 255.36c-2.0591-0.78495-4.1087-0.90178-6.0919-0.387 1.2377 1.5954 5.4994 6.0277 6.3497 7.8177 1.161 0.50383 2.3074 1.6101 2.9499 2.395 0.60605 0.72289 1.391 2.9244 1.8291 5.6282 0.75939 0.21906 1.7123 0.69368 2.7418 1.3399-1.7524-4.6754-4.315-10.239-7.7794-16.795" fill="#999EA0"/>
 <path d="m243.1 269.28c-0.77399-2.2161-1.7634-4.7268-2.2672-5.1003-0.94194-0.69368-3.8893-1.621-5.3322-1.9313-0.73383-1.621-1.7634-4.1343-2.4352-6.1306-0.25556-0.73384-0.72288-0.85067-1.5078-0.61701-3.8765 1.1573-7.0065 2.7309-9.4018 4.6881 2.8331 5.8473 5.0229 10.51 7.5472 16.061 3.1179-2.4461 7.4705-4.6367 13.395-6.9678" fill="#5c6165"/>
 <path d="m243.1 269.28c-0.77399-2.2161-1.7634-4.7268-2.2672-5.1003-0.94194-0.69368-3.8893-1.621-5.3322-1.9313-0.73383-1.621-1.7634-4.1343-2.4352-6.1306-0.25556-0.73384-0.72288-0.85067-1.5078-0.61701-2.4717 0.73384-4.6494 1.6466-6.5297 2.7163 3.0668 6.1178 5.2548 10.652 7.7407 15.932 2.7418-1.6502 6.1434-3.2201 10.329-4.8685" fill="#999EA0"/>
 <g fill="#0f141b">
  <path d="m184.12 238.82c-0.96749-2.0737-2.3183-3.4392-3.3223-3.7608-0.79955-0.25556-2.782 0.073-5.1518 0.94194-1.7013 0.617-1.997-0.10953-0.32858-0.85066 2.4607-1.1062 4.7524-1.5954 5.8086-1.2742 1.4421 0.45271 2.9244 2.2526 3.8382 4.5596 0.61701 1.5443-0.14603 1.8401-0.83606 0.387"/>
  <path d="m185.15 199.98c1.5078-2.4607 2.1906-4.3534 2.008-5.8345-0.10953-0.97845-2.4972-4.4819-5.7056-7.8564-1.0807-1.1318-0.48922-1.6758 0.65716-0.60605 3.2347 3.0522 6.1952 6.8648 6.311 8.3975 0.14603 1.997-0.72289 3.9412-2.5483 6.4267-1.0551 1.4312-1.7013 1.0551-0.72288-0.52938"/>
  <path d="m193.64 188.48c-1.4677 0.90178-2.8733 1.4421-3.5304 1.391-0.95289-0.073-3.5049-2.1139-5.242-4.0054-1.38-1.4932-0.83606-2.0993 0.59145-0.65716 1.7634 1.778 4.2632 3.388 4.7783 3.4246 0.43811 0.0365 1.6101-0.3724 3.0668-1.2632z"/>
  <path d="m195.62 200.7c-1.5334-1.6502-2.7418-2.5374-3.4392-2.4972-0.617 0.0365-2.4863 1.6758-4.3146 4.0441-1.0953 1.4166-1.7013 1.0807-0.65717-0.47462 1.6867-2.5374 3.7221-4.7655 4.8813-4.8298 0.77399-0.0365 2.2015 0.83605 3.5049 2.1905z"/>
  <path d="m146.35 179.76c1.391 0.51478 4.817 0.36509 7.9338-0.36509 2.0883-0.47827 2.2782 0.32858 0.21905 0.87622-3.0522 0.8105-7.7407 1.2742-9.3894 0.25557z"/>
  <path d="m142.29 240.38c0.8105-2.5483 1.61-4.6881 2.5775-6.7104 0.82511-1.7123 1.5443-1.3764 0.83606 0.387-0.79955 2.008-1.5334 4.0697-2.395 6.6972-0.58049 1.778-1.5954 1.4421-1.0186-0.37239"/>
  <path d="m134.45 264.68c-4.3793-4.1602-9.6987-12.506-11.257-20.582-0.4235-2.2271 0.3724-2.3694 0.92734-0.14604 1.9824 8.0627 7.496 16.087 11.038 19.59 1.1865-2.5374 2.9353-8.9769 5.1777-16.409 0.63161-2.1102 1.4421-1.8693 0.87622 0.25557-1.8802 7.058-3.2566 13.472-4.9459 16.95-0.56589 1.172-0.90178 1.1975-1.8145 0.32859"/>
  <path d="m170.92 245.82c0.18255-2.5374 0.32859-4.92 0.32859-7.6633-0.0259-2.0591 0.78494-2.0482 0.90177 0.0128 0.18255 2.8842 0.14604 5.3322-0.14603 7.7922-0.21906 2.1248-1.2377 1.997-1.0807-0.14603"/>
  <path d="m157.13 271.5c-1.3508-5.3194-4.92-11.257-6.4913-16.718-0.55494-1.9204 0.21905-2.1139 0.91273-0.21905 2.0482 5.6414 5.9247 11.515 6.8652 16.563 5.242-3.6706 8.8097-9.1704 11.102-16.757 0.60606-1.997 1.391-1.7634 0.88718 0.25557-1.8948 7.7279-5.7958 13.949-11.296 17.607-1.391 0.92734-1.5845 0.81051-1.9824-0.73383"/>
  <path d="m188.71 249.12c0.0259-2.3585-0.0365-4.2245-0.25556-6.4271-0.14604-1.8145 0.58049-1.8948 0.88717-0.073 0.36509 2.0737 0.51478 4.2632 0.44906 6.5815-0.073 1.9715-1.1208 1.8948-1.0953-0.073"/>
  <path d="m117.88 234.48c5.384-3.4246 4.9331-9.4278-4.1986-16.293-10.175-7.6505-10.123-22.411-3.6181-29.34 1.38-1.4567 1.9569-0.92733 0.66812 0.61701-5.8086 6.9678-5.4096 20.801 3.7867 27.717 10.432 7.8436 10.175 14.696 4.1212 18.083 10.432 0.55494 19.204-7.4961 11.347-21.303-11.411-20.067 8.8611-34.917 36.952-42.374 2.6652-0.69367 2.8988 0.18255 0.25557 0.88718-28.387 7.702-46.367 22.732-36.024 40.918 8.449 14.863-0.56589 23.918-12.828 22.939-2.0993-0.18255-2.2417-0.72288-0.45271-1.8547"/>
  <path d="m107.61 208.88c-10.497 14.335-33.139 9.3635-38.304-3.9926-0.617-1.5954-0.36509-1.8547 1.3399-1.0697 8.7067 3.9799 18.07 0.42351 19.809-10.227 2.2928-14.077 11.849-22.694 25.386-23.196 2.0482-0.073 2.0847 0.79955 0.0365 0.91273-13.189 0.70828-22.114 10.059-24.137 22.501-2.1906 13.42-13.858 14.889-21.161 11.179 5.886 11.321 26.223 16.718 36.475 2.3694z"/>
  <path d="m82.582 192.54c-7.7407-2.384-15.301-7.6892-18.07-15.494-2.4352 11.811 3.0923 23.222 16.408 28.631l-2.2928 0.39795c-12.429-4.8944-18.83-17.285-14.992-30.035 0.50383-1.6356 0.92734-1.621 1.6502 0.0365 2.8076 6.4271 8.1784 11.038 14.116 13.742 2.4461 1.1208 4.2635 3.0522 3.1836 2.7163"/>
  <path d="m73.617 171.54c1.0697-5.8988 0.0365-10.085-3.7093-12.339 4.5465 0 10.587 2.4206 11.476 8.3201 1.6758 11.012 14.412 9.737 26.249-3.1179 14.773-16.022 39.605-20.968 46.315-19.178 4.5078 1.2121 9.3635 6.311 13.755 13.498 1.2997 2.1248 2.0336 1.7378 0.91638-0.46366-3.9795-7.8181-9.4537-13.434-14.18-14.696-7.0711-1.9058-31.967 2.8587-47.732 19.976-11.308 12.261-22.642 13.008-24.033 3.8378-1.0442-6.8389-7.2642-9.6081-13.678-9.1572-1.621 0.10953-1.778 0.55494-0.29208 1.5078 3.3369 2.1504 4.6622 5.9375 3.6436 11.566-1.7524 9.6855 4.6881 22.32 18.186 24.523l0.36509-1.1719c-10.613-1.2486-19.165-12.596-17.272-23.106"/>
  <path d="m72.716 173.9c-5.4351-2.793-9.5953-7.5088-11.592-14.181-14.67 3.9671-25.669-10.098-18.16-22.475 0.82511-1.3654 1.3399-1.391 1.4932 0.32858 0.69367 7.844 9.312 13.24 13.652 14.387-11.54-6.7746-16.318-22.951-4.6239-39.991 4.5081-6.5684 5.7443-12.454 3.556-19.822-0.42351-1.4421-0.18255-1.7634 1.1975-0.99305 7.0839 3.9799 8.6037 9.5052 5.487 19.307-3.6706 11.553 1.8036 18.211 13.755 18.354 13.55 0.14604 22.926 1.9569 30.228 5.5508 2.3183 1.1573 1.9715 1.9204-0.387 0.83606-7.1353-3.2457-16.421-4.9072-29.855-5.0872-14.85-0.18255-18.637-8.5264-14.966-20.067 2.6287-8.269 1.4567-13.794-4.173-17.529 2.2526 6.7359 1.4421 12.609-3.8126 20.285-10.819 15.791-6.4654 32.998 6.3628 39.193 2.6652 1.2888 2.3585 2.2161-0.29207 1.8547-8.4234-1.1318-16.486-8.1014-17.117-15.327-5.0748 11.064 3.3734 22.9 17.49 19.86 0.85066-0.18255 1.0697-0.0256 1.3253 0.74844 2.2928 6.6074 5.886 10.639 10.574 13.163z"/>
  <path d="m100.37 132.4c-11.94-5.3581-19.925-14.799-20.311-24.613-0.48922-12.661 4.997-19.564 20.607-38.021 6.8261-8.0755 5.9634-14.438 1.4312-20.401-1.0953-1.4312-0.92733-1.8291 0.82511-1.5334 11.566 1.9313 14.825 8.2171 10.265 23.145-4.92 16.061-0.75939 24.703 16.113 32.109 9.6596 4.2373 16.035 9.5307 20.44 17.593 0.94194 1.7123 0.25557 2.1139-0.78494 0.44906-4.6367-7.5475-10.703-12.725-20.195-16.885-17.774-7.7921-22.14-16.241-16.808-33.693 4.1858-13.652 1.0296-19.719-8.7195-21.573 4.3789 4.9714 6.6458 11.914-1.5845 21.638-15.108 17.877-20.324 26.313-19.899 37.183 0.32858 8.2817 6.8517 17.607 21.676 24.961z"/>
  <path d="m153.21 130.7c-0.50383-1.4421-0.94194-2.5885-1.5845-4.0054-0.88717-1.9569 0.073-2.3074 0.95289-0.36509 0.64256 1.4166 1.0807 2.6542 1.4677 4.07 0.51478 1.9313-0.18255 2.1394-0.83606 0.29207"/>
  <path d="m170.18 78.837c-11.772-5.9116-15.404-16.138-3.4246-31.542 7.8049-10.033 6.3884-23.402-8.3719-30.692 5.7188 8.7323 4.2504 18.534-8.6293 27.395-17.297 11.926-21.032 34.801-5.783 51.853 8.1273 9.0674 7.1613 17.71 3.6436 22.307l-0.74844-1.0807c2.4863-3.9543 3.6071-11.991-3.9152-20.401-16.125-18.006-12.738-40.79 6.1051-53.76 10.819-7.4442 14.116-16.808 8.0755-26.287-1.0953-1.7123-0.87622-2.1248 1.0442-1.2632 16.035 7.1613 18.701 21.007 9.5566 32.753-10.535 13.549-7.9984 23.273 1.8802 29.095z"/>
  <path d="m184.89 159.26c10.806-1.5589 18.328-7.921 21.651-18.933 5.0102-16.602-1.5589-42.864-21.973-59.8-9.1317-7.5731-10.046-17.143-7.844-22.436-4.3789 3.8638-8.9769 13.317-6.2208 20.195 0.85066 2.1394 0.21905 2.4206-0.85066 0.37239-3.5414-6.8265 0.96749-17.297 6.9294-21.831 1.6758-1.2742 1.9824-0.8105 1.38 0.97845-2.165 6.4913-0.387 15.224 7.4961 21.766 21.457 17.8 27.974 43.791 22.694 61.269-3.4647 11.476-11.682 18.379-23.171 19.332-2.2015 0.18255-2.4863-0.56589-0.073-0.91638"/>
  <path d="m200.2 97.99c4.3019-10.51 9.5052-15.133 23.286-20.208 12.674-4.6622 17.079-10.922 14.812-19.435-0.55493-2.0993-0.10952-2.4607 1.4677-0.68272 6.5943 7.4059 6.6458 20.659-2.5228 28.425-10.317 8.7326-10.484 19.049-2.9499 29.52 10.652 14.799 6.311 39.206-9.2992 46.779-1.7524 0.85067-2.2526 0.18255-0.41256-0.8105 14.219-7.7534 18.328-31.813 8.6939-45.194-8.6552-12.03-7.4701-22.321 3.1434-31.311 8.9641-7.5859 7.5344-20.234 3.2603-25.836 2.0482 8.243-2.1504 14.708-15.791 19.732-13.24 4.8685-18.611 10.278-22.745 20.672z"/>
  <path d="m232.46 196.52c16.821 2.7309 36.372-11.128 36.217-33.268-0.073-13.434 7.4961-19.32 16.254-19.951-3.5669-3.6834-10.136-3.5816-15.765 5.7571-1.0296 1.7013-1.5078 1.4567-1.7013-0.25556-0.66811-5.6282 1.3253-11.811 10.432-17.156 9.2861-5.4479 10.561-20.079 4.4819-29.842 2.0847 9.7625-4.2887 21.303-16.563 23.879-10.677 2.2417-16.022 6.8517-20.041 17.4-3.4246 9.0156-9.634 14.889-17.542 16.795l1.6101-1.5954c5.2288-2.1248 11.385-6.878 14.747-15.713 3.9799-10.432 7.4574-15.275 20.981-18.109 10.561-2.2161 18.225-13.704 15.327-24.265-0.52938-1.9459-0.10952-2.395 1.2888-0.51478 8.6549 11.566 6.6845 27.021-3.6578 33.075-8.5906 5.0361-9.9948 11.373-9.9948 15.172 5.3836-9.5052 13.382-10.252 17.504-5.0488 0.87622 1.0953 0.68272 1.3654-0.72288 1.4823-8.7841 0.72288-15.404 7.6764-15.327 18.895 0.18254 23.763-19.899 37.441-36.99 34.62z"/>
  <path d="m62.276 57.758c3.9156 2.8222 6.7232 8.4876 5.9375 14.618-0.79955 6.4143 1.4421 11.308 4.7013 15.288-1.2742-3.2311-1.4312-6.8006 0.64256-11.63 3.1544-7.3413-2.2015-15.417-11.283-18.276m11.012 31.954c-4.9331-4.7009-7.5862-10.819-6.7104-17.542 0.74844-5.667-1.7634-11.411-6.4526-14.605-1.8036-1.2377-1.5334-1.778 0.60605-1.3253 12.635 2.6396 17.851 12.326 14.181 20.286-2.0591 4.4691-1.9715 8.2558-0.4235 12.326 0.77399 2.0482 0.46366 2.4352-1.1975 0.86162"/>
  <path d="m190.83 2.642c-5.8345 6.4139-8.2303 14.039-3.8123 21.638 4.0697 7.0065 3.3369 11.553-2.2015 17.284 15.314-8.4617 14.605-13.807 9.5435-17.477-6.2336-4.5082-6.955-12.699-3.5304-21.445m-7.9594 39.296c5.9758-6.453 6.1949-10.754 2.6396-16.872-5.0488-8.6939-2.0737-17.182 5.4738-24.124 1.6612-1.5188 2.0883-1.1719 1.3654 0.82511-3.3734 9.2605-2.4461 17.259 2.793 21.045 7.5603 5.4997 5.0357 12.39-11.231 20.491-2.6287 1.2997-3.0266 0.77399-1.0442-1.3654"/>
  <path d="m260.37 81.488c5.9762 6.7359 7.38 17.697-1.7269 22.23-7.4701 3.7225-9.4278 7.9984-9.3248 11.424 1.7524-3.0266 5.2807-5.4351 11.707-7.2514 12.532-3.556 12.661-16.563-0.65717-26.403m-12.094 34.479c-0.65717-5.6027 2.1759-9.4668 9.8403-13.395 6.7232-3.4392 8.0495-12.777-0.29208-22.385-1.7524-2.0226-1.391-2.5118 0.94194-1.0807 16.293 9.9557 17.439 25.811 2.5629 30.022-5.7958 1.6502-9.235 3.7867-11.321 6.9937-1.0697 1.6612-1.5078 1.8547-1.7378-0.14604"/>
  <path d="m228.81 228.28c6.2336 7.4701 20.311 4.2372 23.248-7.8564 1.5954-6.5559 4.5596-10.407 8.1788-12.738-3.388-0.0365-8.2817 0.90178-10.626 3.8897-5.1387 6.5041-13.485 5.2033-14.85-3.8641-2.2782-15.121-18.186-44.821-26.275-46.869-3.851-0.97844-11.244 1.5954-17.619 5.0229-2.0993 1.1318-2.4607 0.47827-0.44906-0.8105 5.8991-3.7995 14.129-6.8389 18.444-5.744 9.4664 2.395 24.909 33.113 27.189 48.234 1.1866 7.9466 8.2043 8.7323 12.596 3.18 2.5885-3.2822 7.7538-4.495 12.493-4.0956 1.7378 0.14604 1.789 0.63161 0.32858 1.5699-4.3534 2.8222-6.9809 7.5344-8.1656 12.558-3.0266 12.802-17.916 16.872-24.742 9.1444z"/>
  <path d="m214.51 244.28c10.394 10.445 28.219 7.0065 32.56-7.1226-8.5906 7.6249-20.891 3.3369-19.178-7.0192 1.0807-6.5041 0.91273-9.5566-0.54033-13.639-0.73384-2.0482-0.0365-2.3074 0.85066-0.32858 1.8145 4.0441 2.0336 7.599 0.97845 14.206-1.3143 8.2817 8.9644 13.305 17.864 5.3194 1.2121-1.0807 1.7123-0.85067 1.2997 0.95289-3.6327 15.79-22.939 19.551-33.461 9.6596z"/>
  <path d="m203.89 256.84c2.9609-3.8382 0.46367-9.84-5.0876-12.519-12.854-6.2336-12.468-14.219-6.7487-27.871 5.6023-13.343 2.4096-27.73-2.8331-36.887-1.0697-1.8802-0.37239-2.3037 0.77399-0.47827 5.4479 8.7454 9.2087 23.608 3.2055 37.905-5.384 12.828-5.7188 20.427 6.1821 26.184 6.208 3.001 9.1572 9.6085 5.783 13.82 7.058-1.621 12.648-9.0028 6.4395-16.215-4.598-5.3453-4.5206-12.017 1.0296-20.054 1.4421-2.0847 2.0226-1.6867 0.77399 0.51478-4.5593 7.9984-4.9328 13.936-0.79955 18.753 6.9035 8.0108 1.4166 16.743-7.9981 18.237-1.61 0.25556-1.778-0.0259-0.72288-1.391"/>
  <path d="m216.85 213.12c1.0551-2.2526 1.8036-4.1858 2.3183-6.1306 0.44906-1.7269 1.2486-1.5443 0.88717 0.18255-0.41255 2.008-1.1062 4.1471-2.2782 6.4139-0.88717 1.7013-1.7634 1.3143-0.92733-0.47827"/>
  <path d="m244.42 231.52c-3.8641 3.748-7.9853 6.1306-11.965 7.5731l-1.4421-1.0296c4.7268-1.7524 8.1269-3.8251 10.278-5.5512z"/>
  <path d="m214.44 250.26c2.4096 1.6612 4.6494 2.9864 6.6972 3.7352 0.21906-1.4056 0.21906-2.771 0.14604-4.495l1.2486 0.54034c0.073 1.3399 0 2.771-0.29207 4.5596-0.10953 0.774-0.42351 0.87622-1.0697 0.65717-2.5374-0.87622-4.894-2.0737-7.2766-3.7221z"/>
  <path d="m113.36 283.66c-1.4677-13.189-10.754-33.693-16.19-53.966-0.63161-2.3439 0.29207-2.5885 1.0551-0.25557 6.5041 20.118 15.597 41.37 16.331 53.36 3.6181-5.9116 6.2982-11.707 7.6377-17.761 0.44906-2.0482 1.2121-1.8948 0.88717 0.18255-1.004 6.5172-3.4501 12.261-7.9466 18.907-1.161 1.7269-1.5699 1.3508-1.778-0.44906"/>
  <path d="m95.101 216.22c0.25556 1.5589 0.56589 3.1434 0.87622 4.7783 0.36509 1.9204-0.44907 2.0336-0.97845 0.18254-0.44906-1.61-0.78495-3.1544-1.0807-4.7396z"/>
  <path d="m143.06 293.54c-0.83606 2.793-2.2526 6.1952-4.4691 9.3248-0.83606 1.1573-1.1208 1.1208-1.7123-0.21906-5.2292-11.875-13.73-22.307-15.417-32.946l0.59145-1.8802c2.2526 11.798 11.128 22.436 15.778 34.054 1.778-2.8733 3.2201-5.8988 4.5078-10.716z"/>
  <path d="m162.34 289.68c-1.0697 5.4096-2.4206 14.67-2.6396 25.476-0.0365 1.7013-0.42351 1.8693-1.7634 0.774-11.965-9.8012-18.521-23.479-17.31-37.596 0.18255-2.2015 0.96749-2.1504 0.91273 0.0365-0.32858 14.348 6.6589 27.073 16.988 36.385 0.0365-10.33 0.95289-19.796 3.2712-28.902z"/>
  <path d="m164.71 298.7c-2.5118-4.2504-3.4793-9.737-3.2201-14.258 0.14603-2.5629 1.0296-2.5228 0.91273 0.0365-0.18255 4.4176 1.61 9.9944 3.1288 13.15 2.5118-10.213 12.454-21.921 15.03-30.679 0.64256-2.1906 1.38-1.997 0.87622 0.21905-2.0226 8.9382-11.604 21.019-14.863 31.194-0.55494 1.7524-0.97844 1.8036-1.8656 0.29207"/>
  <path d="m199.14 259.7c-3.3734 3.1434-6.4782 6.2854-10.497 11.064-2.9609 3.5414-4.92 11.424-6.4526 18.585-0.38699 1.8182-0.8105 1.9459-1.9569 0.45272-2.5885-3.399-3.9284-8.2686-4.1474-12.055l1.3508-2.2928c0.29208 5.9375 1.7269 10.278 3.6436 13.317 1.0551-6.6074 2.9864-15.224 6.2212-19.1 4.1471-4.9714 7.38-7.9466 11.437-11.463z"/>
  <path d="m208.96 256.2c0.83606 2.8587 2.5776 5.7958 5.1003 7.702 1.2742 0.96749 1.2486 1.4567-0.3724 1.5078-10.961 0.37239-15.585-2.3183-15.546-8.7195 0.0259-2.1139 0.78495-2.1504 0.9675-0.0365 0.4235 5.0361 4.1343 7.4059 13.459 7.5862-1.8948-1.1464-4.173-4.3146-4.8944-7.4442z"/>
  <path d="m98.263 231.52c-3.0777 3.169-7.3413 5.8473-12.197 8.0499-1.172 0.54033-1.402 0.29207-1.5334-0.74844-0.65716-5.2938 0.10953-11.914 1.6612-16.422-8.0499 1.6246-19.654-0.10953-27.124-4.25-1.7269-0.9675-1.7123-1.4166 0.25556-2.2161 5.1518-2.0737 9.7111-3.9156 14.167-5.9375l1.1865 1.2377c-4.9714 2.165-9.3504 3.928-14.58 5.8601 6.3365 3.1544 17.22 5.0876 26.068 3.6578 2.2161-0.36509 2.4206 0.14604 1.6867 2.1394-1.8802 5.0616-2.395 11.244-2.1394 15.391 3.9799-1.8547 8.3719-4.8042 12.068-8.565z"/>
  <path d="m100.38 251.64c-4.0828-4.1471-7.0839-11.347-7.5731-16.576l1.391-1.004c0.70828 5.7571 3.6071 12.558 6.9678 16.409z"/>
  <path d="m241.82 246.44c1.8401 3.4392 3.8123 6.852 5.7184 9.8786l-0.5659 1.61c-2.2672-3.3625-4.4176-7.0452-6.3497-10.677z"/>
  <path d="m237.14 240.32c-0.55493-1.172-1.0807-2.3074-1.5699-3.388l1.1975-0.60605c0.59145 1.2742 1.2231 2.614 1.9058 3.9926z"/>
  <path d="m222.03 260.18c-0.87622-2.1394-1.5443-3.8897-2.2161-5.9116l1.61 0.29207c0.56589 1.5699 1.1573 3.0011 1.8948 4.7911z"/>
  <path d="m250.41 265.42c-4.0313 1.0442-7.0192-3.6327-10.149-12.468-0.66812-1.8948 0.10953-2.176 0.86162-0.29208 3.1799 8.1916 5.8988 11.927 8.2686 11.708z"/>
 </g>
 <path d="m255.52 274.94c0.36509 3.5414 1.1866 7.2255 5.1003 15.25 0.95289 1.9459 0.18254 1.3143-0.96749-0.41255-4.6239-6.8776-6.3369-13.305-5.4351-16.46z" fill="#555963"/>
 <g fill="#0f141b">
  <path d="m254.83 273.74c-0.55494 3.4647 0.25557 7.7666 5.7958 16.46 1.161 1.8291 0.387 2.3183-0.77399 0.58049-5.8473-8.6811-7.277-13.858-5.9243-18.611z"/>
  <path d="m248.27 254.78c1.61 1.8693 5.1646 5.6027 6.1693 7.5731 1.0296 0.50383 2.3037 1.4932 3.0923 2.4863 0.65716 0.85067 1.4932 3.3734 1.778 5.5512 2.9098 0.96749 9.3891 5.7958 10.072 9.6596l-1.1975 1.5954c1.0953-2.7564-6.0277-9.1313-9.3635-10.175-0.43811-0.14604-0.59145-0.29208-0.65716-0.69368-0.3724-2.384-1.2377-4.3661-1.7634-5.1646-0.54034-0.79955-1.4166-1.5954-2.4096-2.1504-0.387-0.21906-0.47827-0.29207-0.68272-0.64256-1.1719-1.9824-4.392-5.2807-5.9375-7.0835z"/>
  <path d="m255.47 274.58c0.5805-1.6758 1.789-3.2968 2.9609-4.2632l0.78494 0.95289c-1.0807 0.90178-2.1394 2.5118-2.6652 4.0313z"/>
  <path d="m250.59 265.54c1.1062-1.1866 1.9715-2.1504 2.9244-3.2457l0.95289 0.90178c-0.96749 1.0953-1.778 2.1139-2.9098 3.2603z"/>
  <path d="m215.49 271.6c0.387-8.2945 5.7571-13.73 15.842-16.731 1.2377-0.3724 1.9058-0.14604 2.3329 1.0953 0.65717 1.9824 1.5954 4.2632 2.2782 5.7056 1.61 0.37239 4.2504 1.1062 5.2935 1.9715 0.74844 0.60605 1.7378 2.8988 2.4096 5.0488 0.10952 0.3651 0.14603 0.68273 0.18254 1.0442 0.10953 1.9204 0.10953 4.173 0.0259 6.4398-0.0259 0.66812-0.21905 0.85067-0.85066 0.99305-3.5049 0.78495-6.3238 1.8036-9.0028 3.6706-2.2161 1.5334-3.0266 4.1343-6.7878 7.7407-2.5885 2.4607-4.2372 5.3968-4.353 7.2514-0.10952 1.4421 0.387 2.6542 1.5589 4.031 2.8076 3.3223 3.7864 5.1522 3.5925 9.0287-0.38699 7.5734 1.8291 10.252 8.6421 11.965l-0.10952 1.7378c-8.3073-1.9459-10.523-4.8944-10.072-13.743 0.14604-3.0522-0.78495-5.1259-3.3369-7.9725-1.4677-1.6356-2.1906-3.0412-2.0482-5.2288 0.18255-2.3585 2.2782-5.7056 5.0488-8.2558 3.6181-3.3369 4.1858-6.2212 7.0452-7.9597 3.2457-1.9715 5.641-3.0777 9.1313-3.7995 0.18255-1.6502 0.21906-4.4176 0.14604-6.208-0.79955-2.3585-1.5954-4.2245-2.1139-4.6881-0.55494-0.48922-2.9244-1.2742-4.7137-1.7013-0.48922-0.14603-0.65716-0.21905-0.87622-0.71923-0.70827-1.5334-1.5078-3.618-2.2161-5.6801-0.18255-0.55494-0.37239-0.617-0.86162-0.47827-9.8144 2.9353-14.477 8.5519-14.49 16.396z"/>
  <path d="m218.4 280.8c1.1208 4.0054 3.0011 7.702 5.5125 10.613l-0.95289 1.1318c-2.4717-2.5374-4.4176-6.0017-5.7056-9.7626z"/>
 </g>
 <path d="m243.59 275.5c4.5078 0.70827 9.2474 6.0536 12.596 16.009 0.64256 1.9204 0.14604 1.5188-0.78494-0.18255-5.0357-9.1959-7.4829-12.738-11.501-14.786z" fill="#555963"/>
 <path d="m243.06 275.14c4.4176 1.8948 8.2817 6.6589 13.124 16.37 0.90177 1.8036 0.14603 2.165-0.79955 0.45271-5.0361-9.1963-8.3588-13.446-12.377-15.494z" fill="#0f141b"/>
 <path d="m239.47 263.04c0.37239-1.2997-0.0128-2.6396-1.6867-5.8988-0.774-1.4823-1.0807-1.8291 0.21905-0.75939 3.0923 2.5629 3.1179 5.7703 2.008 6.878z" fill="#555963"/>
 <g fill="#0f141b">
  <path d="m238.94 263.28c0.3724-1.2997-0.10952-3.2201-1.778-6.4785-0.774-1.4823-0.0256-1.8547 0.8251-0.41256 2.008 3.4392 2.6396 5.7316 2.0336 7.3416z"/>
  <path d="m222.56 291.22c-0.48922-10.96 4.5593-16.357 20.337-22.527l0.21906 1.2742c-14.889 6.0277-19.603 11.063-19.268 21.715z"/>
  <path d="m209.51 264.54c1.61 2.614 5.3322 5.9375 7.5862 7.2128 5.0229 2.8587 4.0828 6.3624 1.6101 10.136-3.7608 5.6801-5.8601 9.7885-6.852 14.193-1.0442 4.598-4.5852 5.8345-11.141 2.9864-5.989-2.6031-7.1613-6.3624-4.1858-10.098 3.9152-4.9587 5.1131-8.3719 4.0182-12.596l1.4932 0.45271c0.99305 4.2504-0.55494 8.1656-4.495 13.137-1.6867 2.1248-1.9971 5.1518 3.7995 7.6764 5.809 2.5228 8.3204 1.6758 9.1444-1.9715 0.92733-4.0697 3.1179-8.6162 6.852-14.657 2.5228-4.0697 2.0336-6.1306-1.0551-7.921-2.5885-1.5078-6.3365-4.9583-8.3847-8.4745z"/>
  <path d="m201.59 275.96c1.7378 0.56589 2.8222 1.4677 3.2858 2.9244 0.51478 1.5699-0.21906 1.8948-0.88718 0.44907-0.48922-1.0186-1.1719-1.7378-2.6907-2.165-4.5852-1.2742-9.2087-2.7564-14.734-4.7783l0.82511-1.4312c4.9714 1.8693 9.7238 3.5304 14.206 4.9974"/>
  <path d="m196.81 289.74c-5.886-0.68272-10.226 0.29207-11.025 2.2928-1.6502 4.1215-3.1288 9.0287-4.4691 13.949-0.59145 2.2015 2.7309 8.0627 15.391 11.308 11.849 3.0522 18.212 1.9313 19.822-1.2997 1.6758-3.3479 2.9244-7.0192 4.1087-12.828 0.41255-2.0737-0.69733-5.3836-8.9385-9.067l0.43811-1.3143c8.7454 3.8765 10.703 7.7148 10.072 10.819-0.86162 4.3019-2.0336 8.9126-4.1471 13.15-2.1394 4.2628-9.4792 5.2161-21.689 2.0883-12.558-3.2311-17.877-9.235-16.756-13.266 1.3143-4.7009 3.1434-10.612 4.5852-14.245 1.1464-2.8331 6.5556-3.9025 13.523-2.8988z"/>
  <path d="m186.78 295.22c7.5475 6.852 21.586 10.252 31.13 9.5566 1.4421-0.10953 1.5188 0.58049 0.073 0.79955-9.1572 1.3764-24.87-1.7013-31.903-9.9042-0.97844-1.1354-0.46366-1.4932 0.68272-0.45272"/>
  <path d="m100.12 271.32c3.5669 1.9058 8.7067 7.3927 8.8871 10.535 0.29207 4.9072-5.0876 9.2218-9.4022 9.0159-2.1139-0.10953-3.3625-1.1573-5.6282-4.5082-1.4421-2.1139-3.1544-3.9412-4.6494-4.9583-6.0664-4.1087-9.1704-8.8615-8.8096-11.927 0.21905-2.0336 3.169-4.7652 10.136-8.2945 2.8076-1.4166 4.418-2.6798 5.9762-5.1774 1.5078-2.4206 3.9671-6.2854 6.5943-9.3248l0.55494 1.4932c-2.1906 2.6031-4.4563 5.9503-6.0791 8.5778-1.7013 2.793-3.5414 4.1858-6.4782 5.667-6.2339 3.1544-8.7067 5.6282-8.913 7.1868-0.29208 2.2015 1.5078 6.3756 7.9082 10.703 1.5699 1.0697 3.4647 3.1434 4.9587 5.3322 1.9715 2.9244 3.0777 3.7349 4.598 3.7867 3.2457 0.10952 8.0499-3.851 7.7407-7.6249-0.21906-2.614-4.8685-7.8436-8.6421-9.7498z"/>
  <path d="m109.9 266.24c-3.1179 3.0522-8.7323 4.7396-12.029 7.3412-1.5443 1.2377-2.384 0.46367-0.8105-0.92733 3.2311-2.8733 8.7195-4.6235 12.3-8.101z"/>
  <path d="m103.97 269.2c2.6652 0.21905 5.2935 1.004 7.6888 2.3183l0.387 2.0226c-3.2968-2.3074-7.0711-3.2092-10.626-3.0011z"/>
  <path d="m87.753 279.38c-2.6907 5.3709-2.0847 11.862 1.61 16.705 6.7878 8.8998 18.276 9.5439 24.536 4.7655 5.809-4.4435 7.9725-13.82 3.4647-21.522l0.95289-1.6101c4.6626 7.3285 4.1474 18.354-3.5925 24.252-7.5859 5.7958-20.105 3.6966-26.712-4.9587-3.8251-4.9842-4.7783-12.248-1.5334-18.392z"/>
  <path d="m116.83 280.48c1.1208 6.9291-1.5078 13.601-6.7878 17.555-6.1562 4.5852-15.546 4.5078-22.32-2.4607l-1.1975-2.8587c8.4102 8.9772 17.4 7.8181 22.591 3.9412 3.9543-2.9499 6.7491-8.0627 6.4526-14.258z"/>
  <path d="m104.44 316.9c-2.2928 0-4.173 0.65716-6.5815 1.9313-2.4972 1.3253-15.584 1.6758-17.529-0.0259-1.9459-1.6867-3.3114-10.149 0.54033-12.931 1.4677-1.0551 4.5852-1.391 10.677-1.3654 1.8401 0 3.012-0.387 3.9667-2.2015l1.4166 0.68272c-0.97844 1.9715-2.614 3.001-5.3322 3.001-6.0404-0.073-8.5647 0.47827-9.6337 1.3253-2.6798 2.1139-1.7013 9.1448-0.55494 10.227 1.2377 1.1464 13.626 1.0551 15.829-0.0259 2.4717-1.2377 4.7268-1.9569 7.174-2.008z"/>
  <path d="m120.46 288.64c2.008 1.7889 4.0313 3.4647 6.4012 5.1262 1.5954 1.1208 1.9569 1.8802 1.9058 5.667-0.10952 7.0452-0.37239 18.07-2.9755 21.032-3.1179 3.567-19.319 3.0412-21.032 0.387-0.74844-1.1719-1.1975-3.3734-0.95289-5.8604 0.14604-1.5845 1.3399-3.399 3.2201-4.7009 1.4567-1.0186 1.9204-0.46367 0.59145 0.73383-1.4677 1.3143-2.2271 2.8222-2.3585 4.173-0.18254 1.9569 0 3.6578 0.78495 4.7655 1.2486 1.778 15.661 2.4461 18.585-0.65716 1.7269-1.8401 2.5776-12.841 2.6542-20.002 0.0365-2.9353-0.21906-3.4903-1.3508-4.3019-2.2417-1.5954-3.9412-2.9864-5.4479-4.3917z"/>
  <path d="m112.67 307.5c1.2742-0.25557 2.2782-0.3651 3.6436-0.29208 1.6758 0.073 1.6612 0.90178-0.0259 0.91273-1.1464 0-2.2417 0.14604-3.4246 0.41255-1.5699 0.39795-1.9715-0.65716-0.18255-1.0296"/>
  <path d="m48.796 300.98c1.223-1.8036 2.4863-4.0828 3.2055-6.1434 0.58049-1.61 1.2888-1.391 0.85066 0.25557-0.617 2.2928-1.778 4.5465-3.2055 6.5559-1.0953 1.5589-1.9569 0.9675-0.85066-0.68272"/>
  <path d="m64.209 219.66c-3.2055 0.51477-5.641 0.68272-9.1444 0.72288-2.2161 0.0365-3.928 0.95289-5.7827 3.6834-4.5468 6.6845-7.4059 10.51-14.516 18.495-8.5775 9.634-16.434 22.088-18.186 27.356-4.0441 12.12-13.961 26.777-14.721 34.247-0.66812 6.5169 10.072 22.037 13.614 23.273 5.461 1.9313 25.978-0.52939 29.713-2.2928 2.2526-1.0697 4.3146-2.771 5.989-5.7958 1.1062-2.008 1.4421-3.9799 0.18254-6.0404-1.621-2.6652-2.4206-4.276-3.0522-6.1565-0.65717-1.9459 0.073-2.1759 0.87622-0.29207 0.72288 1.6867 1.6612 3.2822 3.3625 5.8086 1.7524 2.6031 1.2997 5.2935-0.0256 7.676-1.7123 3.1179-3.6706 4.9203-6.5687 6.2854-4.5465 2.1504-25.566 4.1989-31.169 2.2015-3.851-1.3764-15.34-16.924-14.76-24.883 0.59145-8.1656 10.922-22.565 15.017-34.608 3.0668-9.0028 11.27-19.59 18.637-27.846 7.0711-7.947 9.7114-11.308 14.245-18.276 1.5334-2.3439 3.8123-4.173 7.0835-4.1861 3.231-0.0128 5.3453-0.073 7.1485-0.29207z"/>
  <path d="m85.221 230.72c-4.6498 1.8437-12.918 1.8145-19.191 0.63161-2.0226 0.63161-4.6754 1.7524-6.7491 3.0412-1.5078 0.92734-2.0226 0.25557-0.48923-0.86161 2.165-1.5954 4.4435-2.7163 6.6589-3.5304 0.38699-0.14603 0.65716-0.14603 1.1208-0.0365 6.0919 1.0186 14.593 0.81051 18.933-1.0186z"/>
  <path d="m52.325 313.74c6.1434-2.4863 13.781-14.889 11.926-20.298-0.78494-2.3037-2.8222-4.3274-6.4012-6.9678-3.9799-2.9353-4.6626-5.989-2.9609-11.399 3.9025-12.429 6.2723-28.039 5.4351-41.949l1.3764-0.50383c1.1208 14.928-0.83606 30.318-5.2164 43.018-1.5845 4.5983-0.72288 7.4833 2.3329 9.7242 3.8514 2.8477 6.1825 4.7783 7.1485 7.599 2.0336 5.9762-5.9506 19.474-13.189 22.166z"/>
 </g>
 <path d="m34.262 267.6c-5.242 0.25556-7.0966-7.8564 0.43811-18.263 1.3143-1.8036 1.3399-1.7013 0.44906 0.32859-4.8813 11.244-4.25 16.396-0.90177 17.349 1.9824 0.5659 1.8802 0.48923 0.0131 0.5805" fill="#555963"/>
 <path d="m34.262 267.6c-3.9156-0.75939-5.6158-5.2935 0.43811-18.263 0.94193-2.0226 1.7123-1.6612 0.8105 0.387-4.8816 11.231-4.392 16.035-1.0442 16.976 1.9824 0.56589 1.6356 1.2632-0.21905 0.90178" fill="#0f141b"/>
 <path d="m20.05 265.38c4.0569-2.2015 5.8218-4.4435 9.956-14.296 0.78495-1.8693 0.97845-1.2888 0.41256 0.64256-3.0923 10.381-6.1438 13.691-9.9174 14.167-1.2742 0.14604-1.7634 0.21905-0.45271-0.51478" fill="#555963"/>
 <path d="m20.05 265.38c4.4822-0.58049 6.5172-4.0956 9.956-14.296 0.64256-1.9204 1.4567-1.6612 0.88717 0.25557-3.169 10.664-5.4355 14.773-10.793 14.927-1.2888 0.0259-1.5334-0.70828-0.0365-0.90178" fill="#0f141b"/>
 <path d="m15.287 290.28c1.6758-5.5381 4.1343-17.156 3.1946-19.525-0.51478-1.2888-0.073-0.85066 0.32858-0.46367 2.6652 2.5228 1.7378 7.676-2.8477 19.938-0.8105 2.1759-1.3654 2.3329-0.68272 0.0365" fill="#555963"/>
 <path d="m15.287 290.28c4.2632-12.197 5.1649-17.607 3.1946-19.525-1.1975-1.1573-0.59145-1.8291 0.617-0.68272 2.6798 2.5228 1.6356 8.269-2.9499 20.517-0.8105 2.1906-1.6502 1.9313-0.86161-0.29207" fill="#0f141b"/>
 <path d="m20.443 288.36c1.9715-13.034 6.633-17.89 14.219-17.078 1.6612 0.18255 1.6466 0.48922-0.0131 0.60605-6.2208 0.43811-10.226 5.1518-13.575 16.563-0.55494 1.8802-0.92733 1.8802-0.63161-0.073" fill="#555963"/>
 <g fill="#0f141b">
  <path d="m20.443 288.36c3.3114-12.068 7.2383-16.911 14.219-17.078 1.6758-0.0365 1.7013 0.79955 0.0365 0.91273-6.2208 0.43811-10.02 4.9974-13.369 16.409-0.55494 1.8802-1.4166 1.6758-0.88717-0.25556"/>
  <path d="m205.06 330.6c1.3764-0.86162 2.8222-1.3399 4.4435-1.5699 1.9204-0.29207 2.0591 0.81051 0.14604 1.0551-1.4823 0.18254-2.7053 0.56589-4.0956 1.2742-1.3399 0.66811-1.8802 0.10952-0.48922-0.75939"/>
  <path d="m184.98 313.08c-5.4994 5.8473-9.2602 14.515-7.7662 17.49 0.78495 1.5443 3.748 2.9864 10.291 3.3479 3.169 0.18254 8.2043 2.3183 14.181 6.0923 0.29208 0.18254 0.387 0.29207 0.61701 0.55494 4.3146 5.1003 9.8655 5.8601 18.791 2.4863 1.8036-0.68272 3.3223-5.4994 2.5885-7.4442-0.46366-1.2632-3.2858-3.4136-8.1528-4.9846-1.8401-0.60605-1.6612-1.402 0.21905-0.99305 4.8429 1.0442 8.8998 3.4903 9.5953 5.2935 1.1208 2.9499-0.41256 8.6165-3.556 9.8144-8.4876 3.2055-16.216 3.0011-20.749-3.4392-6.0149-3.6578-10.703-5.5899-13.64-5.7703-6.8261-0.41255-10.6-1.8291-11.849-4.1471-2.0591-3.8123 2.3439-13.356 8.2945-19.242z"/>
  <path d="m214.33 318.86c2.3329 1.2377 5.3964 3.0777 9.2733 5.5125 1.4932 0.94193 2.2271 1.0551 4.7268 0.88717 4.4691-0.29207 11.205-0.073 13.498 1.1573 4.4694 2.3694 6.4398 11.218 4.7911 13.253-1.6758 2.0737-8.9769 2.5483-14.914 1.5845-2.2526-0.37239-5.3194-1.7524-7.0065-3.399l0.0256-2.1139c2.008 1.8693 4.9459 3.399 7.2383 3.774 6.2339 1.004 12.158 0.25557 13.266-1.0186 1.1318-1.2997-1.0697-8.7582-4.276-10.484-2.0482-1.0953-8.2945-1.4823-12.583-1.2632-2.6542 0.14604-3.9926-0.14603-5.6286-1.161-3.7991-2.3585-6.7746-4.0182-10.587-6.0532z"/>
  <path d="m242.82 327.98c2.0993 0.25556 4.7783-0.073 7.921-1.0442 5.7184-1.7378 11.592-2.9098 19.178-3.7612 3.0412-0.3651 4.7141-1.5188 6.208-4.276 2.384-4.4048 4.4048-13.601 3.5158-16.859-0.63161-2.384-4.8554-8.7582-8.5519-13.421-3.9156-4.92-7.4314-8.5391-10.961-11.205-2.8477-0.90177-4.7652-1.9058-5.7056-2.8842-0.86161-0.91273-1.2377-2.793-1.7524-5.461-0.18254-0.87622-0.54033-1.4932-1.7269-2.3439-0.25556-0.18254-0.36509-0.25556-0.59145-0.50382-1.9459-1.9569-3.8378-3.7995-5.0229-5.5253-0.32858-0.47462-0.29207-0.70827 0.10953-1.223 0.86162-1.0807 1.4166-2.7455 1.5188-4.418 0.0365-0.59144 0.18255-0.75939 0.83606-0.87621 7.8181-1.5078 14.85 4.3278 21.123 19.217 1.5845 3.7608 1.1975 8.3201-0.69367 10.497l-0.92733-1.0186c1.4166-1.997 1.4312-5.8345 0.10952-8.9254-6.1438-14.438-13.279-19.5-19.178-18.405-0.14603 1.8948-0.66811 3.567-1.6356 4.6622 0.97845 1.4421 2.8331 3.2968 4.8042 5.3194 1.5589 1.0697 2.176 1.8948 2.4461 3.3369 0.41255 2.0737 0.93828 4.0441 1.5845 4.7268 0.81051 0.85066 2.3074 1.5845 4.894 2.4352 0.32859 0.10953 0.42351 0.14603 0.74844 0.37239 3.9028 2.8331 7.5862 6.3752 11.424 11.27 4.1215 5.2803 8.4102 11.321 9.1058 14.038 0.97845 3.9028-1.5078 13.717-3.9667 18.16-1.9569 3.5158-3.748 4.495-7.4446 4.9072-7.6505 0.85066-13.369 1.8036-18.984 3.6834-2.6907 0.90178-5.139 1.3399-7.2514 1.3399z"/>
  <path d="m236.63 326.16c-0.75939-1.4312-1.0697-3.2566-0.85066-5.4997 0.43811-4.4691 0.387-6.1949-0.42351-8.8352-0.77399-2.4863-2.9864-5.564-5.2807-7.7666-1.391-1.3508-0.92733-1.9058 0.61701-0.73383 2.8076 2.1139 5.242 5.4994 6.0404 8.1269 0.92734 3.001 1.161 5.6027 0.78495 9.3248-0.21905 2.4607 0.29207 4.3019 1.4823 5.5253z"/>
 </g>
 <path d="m166.39 226.84c5.9762 4.3406 15.404 7.8049 23.376 8.243-1.8693-4.8685-0.29208-10.819 2.8733-18.366 1.2997-3.0923 2.1248-6.2208 2.5629-9.3507-4.8685-0.0365-11.063-0.63161-15.803-1.4567-4.7268-3.399-12.944-7.2255-19.036-8.3591-6.1821-3.1033-15.881-8.5906-21.985-12.841-10.11 7.6764-14.271 17.568-7.8053 28.954 0.51478 0.90178 0.95289 1.778 1.3399 2.6287 5.2551 1.7634 10.986 2.4863 15.25 2.1394-1.4567-2.3585-1.8401-5.0875-0.90178-8.1014 1.6247-5.1777 8.7326-8.6552 18.766-5.5125 9.6209 3.001 13.511 10.033 11.836 15.391-1.2997 4.1602-5.2675 6.4271-10.471 6.633" fill="#6c6c6f"/>
 <path d="m169.47 226.44c4.92 3.1799 12.828 6.0017 19.719 6.5556-0.8105-4.4563 0.73383-9.7753 3.4501-16.28 0.95288-2.2526 1.6502-4.5465 2.1248-6.8261-4.9587-0.18255-12.957-1.1719-18.109-2.2417-2.8842-2.6396-11.244-6.3241-15.726-7.1354-6.3238-3.1179-18.044-9.5698-24.677-14.078-8.1916 7.1226-11.411 15.945-6.3369 25.978 4.8429 2.1504 11.914 3.8765 16.228 3.7864-0.54034-1.8036-0.54034-3.7608 0.10952-5.8729 1.6247-5.1777 8.7326-8.6552 18.766-5.5125 9.634 3.0011 13.511 10.033 11.836 15.391-1.0296 3.2968-3.7349 5.3964-7.3927 6.2336" fill="#404442"/>
 <path d="m130.26 193.38c2.9499 4.7396 7.5607 9.312 9.982 10.136 3.0522 1.0296 7.8823 1.1719 12.403 0.90178 1.789-0.59145 3.9025-0.86162 6.2726-0.73384-9.8016-3.8897-18.508-8.423-25.502-14.489-1.2377 1.3508-2.2928 2.7418-3.1544 4.1858" fill="#c81233"/>
 <path d="m192.64 216.72c0.43811-1.0442 0.8251-2.1139 1.161-3.169-6.1434-0.47827-13.704-1.6502-19.641-3.18 1.3399 1.4932 2.2271 3.1179 2.6907 4.7268 2.8477 3.0156 6.2464 5.6414 8.4876 6.0664 1.7634 0.32858 3.6327 0 5.8214-0.68272 0.43811-1.2121 0.94194-2.4607 1.4823-3.7608" fill="#c81233"/>
 <path d="m176.86 220.2c-1.9459 6.2336-9.8531 8.243-18.946 5.3964-8.848-2.7674-13.845-8.2558-11.656-15.275 1.6246-5.1646 8.7322-8.6552 18.766-5.5125 9.6337 3.0156 13.511 10.033 11.836 15.391" fill="#ec79ac"/>
 <path transform="matrix(12.879,0,0,-12.879,116.89,235.62)" d="M 0,0 C 0.952,-0.273 2.164,0.171 1.312,1.912 0.707,3.148 2.181,4.369 3.954,4.924 1.862,4.431 0.16,3.269 1.06,1.705 1.721,0.556 0.954,-0.126 0,0" opacity=".137" style="mix-blend-mode:normal"/>
 <path d="m145.76 213.08c-0.29207 5.7056 4.495 10.136 12.146 12.532 9.093 2.8331 17.001 0.83606 18.959-5.3964 0.72289-2.3329 0.39795-4.9846-1.004-7.4829 0.65717 13.987-23.711 12.48-30.1 0.36509" fill="#cf6a98"/>
 <g fill="#0f141b">
  <path d="m157.18 203.66c-8.8611-3.2055-17.838-8.1401-24.137-13.82l0.92733-1.1866c6.556 5.5512 14.889 10.342 26.609 15.044z"/>
  <path d="m130.77 192.7c2.793 4.6367 7.5348 9.3376 9.7242 10.098 3.1945 1.1062 8.1269 1.3399 13.214 0.97845l-2.395 1.2888c-2.7163 0.25556-7.6505 0.21905-11.437-0.90178-2.8222-0.83606-7.4442-5.6929-9.9816-10.046z"/>
  <path d="m193.57 214.22c-6.0532-0.48922-14.155-1.7378-18.714-3.0522l-1.2231-1.5589c5.744 1.5334 13.884 2.8733 20.453 3.2566z"/>
  <path d="m190.97 221.18c-1.9459 0.64256-3.8382 0.99305-5.7958 0.60605-2.5739-0.50383-5.8604-3.1179-8.0755-5.4997l-0.46366-2.3183c3.0412 3.4647 6.7232 6.0923 8.8352 6.4913 1.9715 0.37239 3.169 0.18254 5.9247-0.70828z"/>
  <path d="m160.66 203.84c-0.25556-3.2968-0.82511-6.9035-1.5078-9.5953-0.50382-1.9459 0.32859-2.1504 0.88718-0.21905 0.86161 2.8587 1.4567 6.4398 1.8036 9.9816z"/>
  <path d="m172.95 188.64c0.38699-1.778 1.1975-1.6101 0.90177 0.18254-0.95288 5.6027-3.1946 12.029-6.0664 17.04l-1.1062-0.47827c3.0266-4.92 5.3322-12.365 6.2726-16.743"/>
  <path d="m172.6 208.86c3.4136-1.3253 6.4526-2.9244 8.7582-4.7009 1.778-1.3508 2.2782-0.74844 0.5805 0.70828-2.1248 1.8145-4.9974 3.5049-8.3588 4.8685z"/>
  <path d="m145.6 190.08c-0.32859-2.6798 0.32858-5.0488 1.5443-6.1178 0.92733-0.8105 3.18-1.3253 5.9503-1.3654 2.176-0.0365 2.2417 0.75939 0.073 0.88717-2.5118 0.14604-4.3789 0.71923-5.1646 1.4056-1.0186 0.87622-1.5589 2.7564-1.4932 5.1646 0.0365 1.4166-0.73383 1.4312-0.90177 0.0259"/>
  <path d="m137.34 185.54c1.5443-0.21905 3.5414-0.0365 4.276 0.51478 0.83605 0.617 1.1318 2.1394 1.2377 3.5414 0.10952 1.3654-0.63161 1.4166-0.88718 0.073-0.25556-1.3508-0.56589-2.2417-1.1318-2.6396-0.5805-0.39795-2.4863-0.56589-4.5078-0.36509z"/>
  <path d="m176.15 219.94c1.4312-4.5724-1.6758-11.514-11.36-14.541-9.4924-2.9609-16.331 0.48922-17.8 5.165-1.8145 5.8086 1.5991 11.45 11.102 14.425 8.9385 2.793 16.254 0.71923 18.057-5.0488m-18.456 6.2467c-10.316-3.2201-14.283-9.2992-12.12-16.203 1.6466-5.3062 9.0028-9.067 19.603-5.7571 10.188 3.1946 14.116 10.587 12.325 16.293-2.1504 6.9032-10.677 8.526-19.809 5.667"/>
  <path d="m157.98 216.24c-0.92733 2.2928-1.8291 3.2858-2.3074 3.0777-0.44906-0.18255-0.46367-1.6502 0.47827-3.9539 0.83606-2.0883 1.8145-3.169 2.3439-2.9609 0.55494 0.21906 0.36509 1.6758-0.51478 3.8382"/>
  <path d="m167.34 219.38c-0.92733 2.2928-1.8437 3.1033-2.3329 2.9098-0.44906-0.18255-0.41255-1.6356 0.51478-3.9412 0.85066-2.0883 1.6758-2.9901 2.2161-2.771 0.54034 0.21906 0.47827 1.6356-0.39795 3.7995"/>
  <path d="m198.8 244.32c-12.867-6.2208-12.48-14.219-6.7491-27.871 5.5899-13.331 2.4096-27.73-2.8331-36.887-1.0697-1.8693-0.3724-2.2928 0.75939-0.47827 5.4483 8.7582 9.2091 23.621 3.2201 37.918-5.3836 12.828-5.7184 20.427 6.1821 26.184z"/>
  <path d="m118.64 235.26c10.432 0.55494 19.203-7.4961 11.347-21.303-11.411-20.067 8.8615-34.917 36.952-42.361 2.6542-0.70828 2.8988 0.14604 0.21906 0.87622-28.374 7.7148-46.353 22.732-36.011 40.932 8.4489 14.863-0.5659 23.917-12.828 22.926-2.0993-0.18254-2.2417-0.70827-0.44907-1.8547z"/>
  <path d="m174.74 232.02c2.4461-0.72288 4.5078-1.9569 4.8816-2.6907 0.32858-0.65717 0.25556-1.9204-0.18255-3.4136-0.45271-1.5589 0.25556-1.8145 0.86162-0.29207 0.64256 1.5954 0.90177 3.3114 0.39795 4.3146-0.5659 1.1318-3.0923 2.3329-5.7575 3.001-1.9715 0.48922-2.3439-0.25556-0.21905-0.90178"/>
  <path d="m189.09 228.4c-1.4823 0.10953-3.1434 0.073-3.9152-0.29207-1.2997-0.60605-1.8036-1.7634-2.2271-3.3479-0.36509-1.391 0.387-1.6502 0.85066-0.29207 0.39795 1.1865 1.1062 2.1905 1.9058 2.5629 0.69367 0.32858 1.9459 0.41255 3.5304 0.25556z"/>
  <path d="m189.04 231.88c-1.1062 0.61701-1.5443 1.38-1.621 1.9459-0.10953 0.68272 0.18255 2.0482 1.1062 3.169 0.90177 1.0807 0.29207 1.5188-0.64256 0.64256-1.172-1.0953-1.7634-3.0157-1.6356-3.9799 0.14603-0.96749 1.0296-2.0226 2.7163-2.9244z"/>
 </g>
</svg>
